<svg xmlns="http://www.w3.org/2000/svg" preserveAspectRatio="none" width="65" height="46"><path stroke="#FFF" stroke-linejoin="round" stroke-linecap="round" fill="none" d="M28.9 11.2q-.25-.6-.25-1.3 0-1.45 1.05-2.5.95-.95 2.25-1.05h.25q1.45 0 2.5 1.05.85.85 1 1.95.05.25.05.55 0 1.45-1.05 2.5t-2.5 1.05q-1.45 0-2.5-1.05-.55-.55-.8-1.2z"/><path stroke="#FFF" stroke-width="3" stroke-linejoin="round" stroke-linecap="round" fill="none" d="M32.1 6.35V4.1m.05 9.35l-.05 26.9"/><path stroke="#FFF" stroke-linejoin="round" stroke-linecap="round" fill="none" d="M28.65 11.4l-16.7 4.45m41.35-11L36 9.475"/><path fill="#FFF" d="M17.9 30.65H2.2q.2 3.6 2.75 6.15 2.85 2.85 6.85 2.85 4 0 6.8-2.85 2.6-2.55 2.85-6.15H17.9z"/><path stroke="#FFF" stroke-linejoin="round" stroke-linecap="round" fill="none" d="M5.65 30.65L11.9 15.9l6 14.75"/><g><path fill="#FFF" d="M59.3 19.6H43.6q.2 3.6 2.75 6.15 2.85 2.85 6.85 2.85 4 0 6.8-2.85 2.6-2.55 2.85-6.15H59.3z"/><path stroke="#FFF" stroke-linejoin="round" stroke-linecap="round" fill="none" d="M47.05 19.6L53.3 4.85l6 14.75"/></g></svg>
