<svg xmlns="http://www.w3.org/2000/svg" width="22" height="22"><style></style><linearGradient id="SVGID_1_" gradientUnits="userSpaceOnUse" x1="0" y1="0" x2="0" y2="-1"><stop offset="0" stop-color="#656565"/><stop offset=".618" stop-color="#1b1b1b"/><stop offset=".629" stop-color="#545454"/><stop offset=".983" stop-color="#3e3e3e"/></linearGradient><path d="M11.083 20.292c-.666-.386-2.246-1.382-3.25-2.208C5 15.75.01 12.117.917 7.25c.348-1.868 1.828-4.11 4.167-4.583 2.166-.438 4.574.74 6 3 .27-.486 1.548-2.666 4-3.125a4.664 4.664 0 011.75 0c1.98.39 3.748 2.187 4.25 3.958 1.19 4.205-4.487 9.214-7.125 11.542a31.151 31.151 0 01-2.876 2.25z" fill="#fd3018" id="Capa_2"/></svg>