<svg xmlns="http://www.w3.org/2000/svg" xmlns:xlink="http://www.w3.org/1999/xlink" preserveAspectRatio="none" width="19" height="19"><defs><radialGradient id="a" gradientUnits="userSpaceOnUse" cx="0" cy="0" r="6.5" fx="0" fy="0" gradientTransform="matrix(-1 0 0 1.00385 766.85 387.45)" spreadMethod="pad"><stop offset="0%" stop-color="#EDE5FF"/><stop offset="17.647%" stop-color="#E9E1FB"/><stop offset="35.294%" stop-color="#DED7EF"/><stop offset="45.098%" stop-color="#D5CEE5"/><stop offset="49.412%" stop-color="#BCB5D2"/><stop offset="58.824%" stop-color="#9087AF"/><stop offset="67.843%" stop-color="#6D6494"/><stop offset="76.471%" stop-color="#544A80"/><stop offset="83.922%" stop-color="#443A74"/><stop offset="89.804%" stop-color="#3F3570"/></radialGradient><radialGradient id="b" gradientUnits="userSpaceOnUse" cx="0" cy="0" r="13.013" fx="0" fy="0" gradientTransform="matrix(-1 0 0 1.0048 766.85 387.45)" spreadMethod="pad"><stop offset="0%" stop-color="#EDE5FF"/><stop offset="5.882%" stop-color="#E9E1FB"/><stop offset="11.765%" stop-color="#DED7EF"/><stop offset="15.294%" stop-color="#D5CEE5"/><stop offset="100%" stop-color="#524C8C"/></radialGradient><radialGradient id="c" gradientUnits="userSpaceOnUse" cx="0" cy="0" r="3.875" fx="0" fy="0" gradientTransform="matrix(-1 0 0 1.00323 362.8 70)" spreadMethod="pad"><stop offset="0%" stop-color="#EDE5FF"/><stop offset="17.647%" stop-color="#E9E1FB"/><stop offset="35.294%" stop-color="#DED7EF"/><stop offset="45.098%" stop-color="#D5CEE5"/><stop offset="55.294%" stop-color="#BEB4D7"/><stop offset="68.627%" stop-color="#A79BCA"/><stop offset="80.392%" stop-color="#998BC2"/><stop offset="89.804%" stop-color="#9486BF"/></radialGradient><radialGradient id="d" gradientUnits="userSpaceOnUse" cx="0" cy="0" r="10.125" fx="0" fy="0" gradientTransform="matrix(-1 0 0 1.00494 362.8 70)" spreadMethod="pad"><stop offset="0%" stop-color="#EDE5FF"/><stop offset="5.882%" stop-color="#E9E1FB"/><stop offset="11.765%" stop-color="#DED7EF"/><stop offset="15.294%" stop-color="#D5CEE5"/><stop offset="100%" stop-color="#9486BF"/></radialGradient><radialGradient id="e" gradientUnits="userSpaceOnUse" cx="0" cy="0" r="13.9" fx="0" fy="0" gradientTransform="matrix(-1 0 0 1.0045 626.05 182.15)" spreadMethod="pad"><stop offset="0%" stop-color="#EDE5FF"/><stop offset="5.882%" stop-color="#E9E1FB"/><stop offset="11.765%" stop-color="#DED7EF"/><stop offset="15.294%" stop-color="#D5CEE5"/><stop offset="79.608%" stop-color="#524C8C"/></radialGradient><path d="M-1.2-18q-7.393.142-12.7 5.4-5.4 5.45-5.4 13.1 0 7.65 5.4 13.05Q-8.45 19-.8 19q7.65 0 13.05-5.45 2.454-2.431 3.8-5.35L-1.2 0v-18z" id="f"/><path fill="url(#a)" d="M760.35 387.45q0 2.75 1.9 4.65 1.9 1.9 4.6 1.9 2.7 0 4.6-1.9 1.9-1.9 1.9-4.65 0-2.7-1.9-4.6-1.9-1.9-4.6-1.9-2.7 0-4.6 1.9-1.9 1.9-1.9 4.6z" id="g"/><path fill="url(#b)" d="M764.65 385.25q-.7.65-.9 1.6l-9.9.6 9.9.65q.2.95.9 1.65.65.65 1.6.85l.6 9.95.6-9.95q.95-.2 1.65-.85.65-.7.85-1.65l9.9-.65-9.9-.6q-.2-.95-.85-1.6-.7-.7-1.65-.9l-.6-9.95-.6 9.95q-.95.2-1.6.9z" id="h"/><path fill="url(#c)" d="M358.85 70q0 1.6 1.15 2.75t2.75 1.15q1.6 0 2.75-1.15t1.15-2.75q0-1.6-1.15-2.75t-2.75-1.15q-1.6 0-2.75 1.15T358.85 70z" id="i"/><path fill="url(#d)" d="M362.3 67.55q-1.6.35-1.95 1.95l-7.7.5 7.7.45q.35 1.65 1.95 1.95l.45 7.75.5-7.75q1.6-.35 1.9-1.95l7.75-.45-7.75-.5q-.3-1.6-1.9-1.95l-.5-7.75-.45 7.75z" id="j"/><path fill="url(#e)" d="M625.2 180.7q-1.3.25-1.55 1.5l-10.6.35 10.6.4q.25 1.25 1.55 1.5l.35 12.55.4-12.55q1.25-.25 1.5-1.5l11.5-.4-11.5-.35q-.25-1.25-1.5-1.5l-.4-13.35-.35 13.35z" id="k"/></defs><use xlink:href="#f" transform="matrix(.47693 0 0 .47693 10.6 9.4)"/><use xlink:href="#g" transform="matrix(-.39257 0 0 .3923 313.974 -141.405)"/><use xlink:href="#h" transform="matrix(-.39257 0 0 .3923 313.974 -141.405)"/><use xlink:href="#i" transform="matrix(-.39257 0 0 .3923 151.986 -13.755)"/><use xlink:href="#j" transform="matrix(-.39257 0 0 .3923 151.986 -13.755)"/><use xlink:href="#k" transform="matrix(-.5286 0 0 .52903 338.56 -87.965)"/></svg>
