<svg xmlns="http://www.w3.org/2000/svg" xmlns:xlink="http://www.w3.org/1999/xlink" preserveAspectRatio="none" width="19" height="19"><defs><radialGradient id="a" gradientUnits="userSpaceOnUse" cx="0" cy="0" r="6.025" fx="0" fy="0" gradientTransform="matrix(1 0 0 -1 174.45 492.5)" spreadMethod="pad"><stop offset="0%" stop-color="#E7E8E9"/><stop offset="47.451%" stop-color="#E5E6E7"/><stop offset="64.706%" stop-color="#E0E1E2"/><stop offset="76.863%" stop-color="#D6D8D9"/><stop offset="86.667%" stop-color="#C9CACC"/><stop offset="94.902%" stop-color="#B7B9BB"/><stop offset="100%" stop-color="#AAACAE"/></radialGradient><radialGradient id="b" gradientUnits="userSpaceOnUse" cx="0" cy="0" r="6.025" fx="0" fy="0" gradientTransform="matrix(1 0 0 -1 206.95 492.5)" spreadMethod="pad"><stop offset="0%" stop-color="#E7E8E9"/><stop offset="47.451%" stop-color="#E5E6E7"/><stop offset="64.706%" stop-color="#E0E1E2"/><stop offset="76.863%" stop-color="#D6D8D9"/><stop offset="86.667%" stop-color="#C9CACC"/><stop offset="94.902%" stop-color="#B7B9BB"/><stop offset="100%" stop-color="#AAACAE"/></radialGradient><linearGradient id="c" gradientUnits="userSpaceOnUse" x1="190.7" y1="492.488" x2="190.7" y2="498.512" spreadMethod="pad"><stop offset="0%" stop-color="#E7E8E9"/><stop offset="47.451%" stop-color="#E5E6E7"/><stop offset="64.706%" stop-color="#E0E1E2"/><stop offset="76.863%" stop-color="#D6D8D9"/><stop offset="86.667%" stop-color="#C9CACC"/><stop offset="94.902%" stop-color="#B7B9BB"/><stop offset="100%" stop-color="#AAACAE"/></linearGradient><linearGradient id="d" gradientUnits="userSpaceOnUse" x1="174.462" y1="396.4" x2="168.438" y2="396.4" spreadMethod="pad"><stop offset="0%" stop-color="#E7E8E9"/><stop offset="47.451%" stop-color="#E5E6E7"/><stop offset="64.706%" stop-color="#E0E1E2"/><stop offset="76.863%" stop-color="#D6D8D9"/><stop offset="86.667%" stop-color="#C9CACC"/><stop offset="94.902%" stop-color="#B7B9BB"/><stop offset="100%" stop-color="#AAACAE"/></linearGradient><linearGradient id="e" gradientUnits="userSpaceOnUse" x1="206.938" y1="396.4" x2="212.962" y2="396.4" spreadMethod="pad"><stop offset="0%" stop-color="#E7E8E9"/><stop offset="47.451%" stop-color="#E5E6E7"/><stop offset="64.706%" stop-color="#E0E1E2"/><stop offset="76.863%" stop-color="#D6D8D9"/><stop offset="86.667%" stop-color="#C9CACC"/><stop offset="94.902%" stop-color="#B7B9BB"/><stop offset="100%" stop-color="#AAACAE"/></linearGradient><linearGradient id="f" gradientUnits="userSpaceOnUse" x1="206.938" y1="314.7" x2="212.962" y2="314.7" spreadMethod="pad"><stop offset="0%" stop-color="#E7E8E9"/><stop offset="47.451%" stop-color="#E5E6E7"/><stop offset="64.706%" stop-color="#E0E1E2"/><stop offset="76.863%" stop-color="#D6D8D9"/><stop offset="86.667%" stop-color="#C9CACC"/><stop offset="94.902%" stop-color="#B7B9BB"/><stop offset="100%" stop-color="#AAACAE"/></linearGradient><linearGradient id="g" gradientUnits="userSpaceOnUse" x1="206.938" y1="313.7" x2="212.962" y2="313.7" spreadMethod="pad"><stop offset="0%" stop-color="#DDDEDF"/><stop offset="47.843%" stop-color="#D5D8DD"/><stop offset="65.098%" stop-color="#CFD2D7"/><stop offset="77.255%" stop-color="#C4C8CE"/><stop offset="87.059%" stop-color="#B6BBC1"/><stop offset="95.686%" stop-color="#A4AAB1"/><stop offset="100%" stop-color="#A2A4A6"/></linearGradient><linearGradient id="h" gradientUnits="userSpaceOnUse" x1="206.938" y1="312.75" x2="212.962" y2="312.75" spreadMethod="pad"><stop offset="0%" stop-color="#D3D4D6"/><stop offset="48.235%" stop-color="#C9CDD3"/><stop offset="65.49%" stop-color="#C3C7CD"/><stop offset="77.647%" stop-color="#B9BEC4"/><stop offset="87.843%" stop-color="#ABB1B8"/><stop offset="96.078%" stop-color="#9AA0A7"/><stop offset="100%" stop-color="#9A9C9F"/></linearGradient><linearGradient id="i" gradientUnits="userSpaceOnUse" x1="206.938" y1="311.75" x2="212.962" y2="311.75" spreadMethod="pad"><stop offset="0%" stop-color="#C9CACC"/><stop offset="48.235%" stop-color="#BFC3CA"/><stop offset="65.882%" stop-color="#B9BEC4"/><stop offset="78.039%" stop-color="#AFB5BB"/><stop offset="88.235%" stop-color="#A1A8AF"/><stop offset="96.471%" stop-color="#91979E"/><stop offset="100%" stop-color="#939597"/></linearGradient><linearGradient id="j" gradientUnits="userSpaceOnUse" x1="206.938" y1="310.8" x2="212.962" y2="310.8" spreadMethod="pad"><stop offset="0%" stop-color="#BEC0C2"/><stop offset="48.627%" stop-color="#B4B9C0"/><stop offset="66.275%" stop-color="#AEB4BB"/><stop offset="78.431%" stop-color="#A5ABB2"/><stop offset="88.627%" stop-color="#979EA4"/><stop offset="97.255%" stop-color="#878D93"/><stop offset="100%" stop-color="#8B8D90"/></linearGradient><linearGradient id="k" gradientUnits="userSpaceOnUse" x1="206.938" y1="309.8" x2="212.962" y2="309.8" spreadMethod="pad"><stop offset="0%" stop-color="#B4B6B9"/><stop offset="49.02%" stop-color="#AAB0B7"/><stop offset="66.667%" stop-color="#A4ABB1"/><stop offset="79.216%" stop-color="#9BA2A8"/><stop offset="89.02%" stop-color="#8E959B"/><stop offset="97.647%" stop-color="#7D8489"/><stop offset="100%" stop-color="#848688"/></linearGradient><linearGradient id="l" gradientUnits="userSpaceOnUse" x1="206.938" y1="308.85" x2="212.962" y2="308.85" spreadMethod="pad"><stop offset="0%" stop-color="#ABADAF"/><stop offset="49.02%" stop-color="#9FA6AD"/><stop offset="67.059%" stop-color="#9AA1A7"/><stop offset="79.608%" stop-color="#91989E"/><stop offset="89.804%" stop-color="#848B90"/><stop offset="98.431%" stop-color="#737A7E"/><stop offset="100%" stop-color="#7D7E81"/></linearGradient><linearGradient id="m" gradientUnits="userSpaceOnUse" x1="206.938" y1="307.85" x2="212.962" y2="307.85" spreadMethod="pad"><stop offset="0%" stop-color="#A1A3A6"/><stop offset="49.412%" stop-color="#969DA3"/><stop offset="67.451%" stop-color="#91989E"/><stop offset="80%" stop-color="#888F94"/><stop offset="90.196%" stop-color="#7B8286"/><stop offset="98.824%" stop-color="#6A7173"/><stop offset="100%" stop-color="#767779"/></linearGradient><linearGradient id="n" gradientUnits="userSpaceOnUse" x1="206.938" y1="306.9" x2="212.962" y2="306.9" spreadMethod="pad"><stop offset="0%" stop-color="#989A9D"/><stop offset="50.196%" stop-color="#8C9399"/><stop offset="67.843%" stop-color="#878E93"/><stop offset="80.784%" stop-color="#7E8589"/><stop offset="90.98%" stop-color="#70787B"/><stop offset="100%" stop-color="#6E6F71"/></linearGradient><linearGradient id="o" gradientUnits="userSpaceOnUse" x1="206.938" y1="305.9" x2="212.962" y2="305.9" spreadMethod="pad"><stop offset="0%" stop-color="#8F9194"/><stop offset="50.196%" stop-color="#838A8F"/><stop offset="68.235%" stop-color="#7D8489"/><stop offset="81.176%" stop-color="#747B7F"/><stop offset="91.373%" stop-color="#676E70"/><stop offset="100%" stop-color="#666769"/></linearGradient><linearGradient id="p" gradientUnits="userSpaceOnUse" x1="206.938" y1="304.95" x2="212.962" y2="304.95" spreadMethod="pad"><stop offset="0%" stop-color="#86888B"/><stop offset="50.588%" stop-color="#798084"/><stop offset="69.02%" stop-color="#737A7E"/><stop offset="81.961%" stop-color="#6A7174"/><stop offset="92.549%" stop-color="#5C6365"/><stop offset="100%" stop-color="#5E5F61"/></linearGradient><linearGradient id="q" gradientUnits="userSpaceOnUse" x1="206.938" y1="303.95" x2="212.962" y2="303.95" spreadMethod="pad"><stop offset="0%" stop-color="#7E7F82"/><stop offset="50.98%" stop-color="#7C7E80"/><stop offset="69.412%" stop-color="#78797B"/><stop offset="82.353%" stop-color="#6F7173"/><stop offset="92.941%" stop-color="#636466"/><stop offset="100%" stop-color="#565758"/></linearGradient><linearGradient id="r" gradientUnits="userSpaceOnUse" x1="22.3" y1="28.875" x2="22.3" y2=".025" spreadMethod="pad"><stop offset="0%" stop-opacity="0"/><stop offset="32.941%" stop-opacity=".094"/><stop offset="100%" stop-opacity=".498"/></linearGradient><linearGradient id="s" gradientUnits="userSpaceOnUse" x1="115.25" y1="410.625" x2="115.25" y2="300.275" spreadMethod="pad"><stop offset="0%" stop-color="#3D3C39"/><stop offset=".784%" stop-color="#403F3B"/><stop offset="3.922%" stop-color="#4C4946"/><stop offset="7.451%" stop-color="#565150"/><stop offset="10.98%" stop-color="#5E5757"/><stop offset="14.902%" stop-color="#635B5C"/><stop offset="19.608%" stop-color="#645C5D"/><stop offset="20.784%" stop-color="#706868"/><stop offset="22.745%" stop-color="#847B7B"/><stop offset="24.706%" stop-color="#918888"/><stop offset="26.275%" stop-color="#968D8D"/><stop offset="84.706%" stop-color="#292929"/></linearGradient><linearGradient id="t" gradientUnits="userSpaceOnUse" x1="104.05" y1="410.625" x2="104.05" y2="300.275" spreadMethod="pad"><stop offset="0%" stop-color="#A4A4A8"/><stop offset="100%" stop-color="#393A3A"/></linearGradient><linearGradient id="u" gradientUnits="userSpaceOnUse" x1="104.05" y1="410.613" x2="104.05" y2="391.887" spreadMethod="pad"><stop offset="0%" stop-color="#FFF"/><stop offset="100%" stop-color="#A4A4A8"/></linearGradient><linearGradient id="v" gradientUnits="userSpaceOnUse" x1="126.45" y1="410.625" x2="126.45" y2="300.275" spreadMethod="pad"><stop offset="0%" stop-color="#686A6C"/><stop offset="28.235%" stop-color="#67696B"/><stop offset="43.529%" stop-color="#636567"/><stop offset="55.686%" stop-color="#5C5E60"/><stop offset="66.275%" stop-color="#545556"/><stop offset="75.686%" stop-color="#494A4B"/><stop offset="82.353%" stop-color="#404242"/><stop offset="86.667%" stop-color="#3F4040"/><stop offset="91.765%" stop-color="#3A3B3C"/><stop offset="96.863%" stop-color="#333434"/><stop offset="100%" stop-color="#2E2E2E"/></linearGradient><linearGradient id="w" gradientUnits="userSpaceOnUse" x1="126.45" y1="391.887" x2="126.45" y2="410.613" spreadMethod="pad"><stop offset="0%" stop-color="#ABA9AB"/><stop offset="9.412%" stop-color="#9D9C9E"/><stop offset="32.549%" stop-color="#848486"/><stop offset="55.686%" stop-color="#747577"/><stop offset="78.431%" stop-color="#6B6D6F"/><stop offset="100%" stop-color="#686A6C"/></linearGradient><path fill="url(#a)" d="M180.45 492.5q0-2.5-1.75-4.3-1.75-1.75-4.25-1.75t-4.3 1.75q-1.75 1.8-1.75 4.3t1.75 4.3q1.8 1.75 4.3 1.75t4.25-1.75q1.75-1.8 1.75-4.3z" id="x"/><path fill="url(#b)" d="M213 492.5q0-2.5-1.75-4.3-1.8-1.75-4.3-1.75t-4.3 1.75q-1.75 1.8-1.75 4.3t1.75 4.3q1.8 1.75 4.3 1.75t4.3-1.75q1.75-1.8 1.75-4.3z" id="y"/><path fill="url(#c)" d="M206.95 492.5h-32.5v6.05h32.5v-6.05z" id="z"/><path fill="url(#d)" d="M174.45 300.25h-6.05V492.5h6.05V300.25z" id="A"/><path fill="url(#e)" d="M213 300.25h-6.05V492.5H213V300.25z" id="B"/><path fill="url(#f)" d="M213 329.15v-28.9h-6.05v28.9H213z" id="C"/><path fill="url(#g)" d="M206.95 327.2H213v-26.95h-6.05v26.95z" id="D"/><path fill="url(#h)" d="M206.95 325.25H213v-25h-6.05v25z" id="E"/><path fill="url(#i)" d="M206.95 323.3H213v-23.05h-6.05v23.05z" id="F"/><path fill="url(#j)" d="M206.95 321.35H213v-21.1h-6.05v21.1z" id="G"/><path fill="url(#k)" d="M206.95 319.4H213v-19.15h-6.05v19.15z" id="H"/><path fill="url(#l)" d="M206.95 317.45H213v-17.2h-6.05v17.2z" id="I"/><path fill="url(#m)" d="M206.95 315.5H213v-15.25h-6.05v15.25z" id="J"/><path fill="url(#n)" d="M206.95 313.55H213v-13.3h-6.05v13.3z" id="K"/><path fill="url(#o)" d="M206.95 311.6H213v-11.35h-6.05v11.35z" id="L"/><path fill="url(#p)" d="M206.95 309.65H213v-9.4h-6.05v9.4z" id="M"/><path fill="url(#q)" d="M213 307.7v-7.45h-6.05v7.45H213z" id="N"/><path fill="#FFF" d="M38 0H0v192.25q0 1.15.8 1.95.85.8 1.95.8h32.5q1.15 0 1.95-.8t.8-1.95V0z" id="O"/><path fill-opacity=".047" d="M41.3 0h-38v120.9q5.5-22.6 15.35-40.05 9.9-17.5 22.65-27.15V0z" id="P"/><path fill="url(#r)" d="M41.3 28.9V0h-38v28.9h38z" id="Q"/><path fill-opacity=".137" d="M0 192.25q0 2.5 1.75 4.3 1.8 1.75 4.3 1.75h2L0 0v192.25z" id="R"/><path fill-opacity=".133" d="M0 112.75q0 .75 1 .95 1 .2 2.15-.3 3.05-1.35 2.45-5.15L0 0v112.75z" id="S"/><path d="M27.7 0H0v112.75h27.7V0z" id="T"/><path fill="url(#s)" d="M127.3 300.25h-24.1v110.4h24.1v-110.4z" id="U"/><path fill="url(#t)" d="M104.9 300.25h-1.7v110.4q.9-4.5 1.25-7.75.45-4.05.45-9.6v-93.05z" id="V"/><path fill="url(#u)" d="M103.2 407.85v2.8q.9-4.5 1.25-7.75.36-3.246.4-7.45-.107 3.073-.4 5.35-.25 2.15-1.25 7.05z" id="W"/><path fill="url(#v)" d="M127.3 300.25h-1.65v93.05q0 5.6.4 9.6.35 3.35 1.25 7.75v-110.4z" id="X"/><path fill="url(#w)" d="M127.3 410.65v-2.8q-.95-4.75-1.25-7.05-.26-2.247-.4-5.35.08 4.243.4 7.45.35 3.35 1.25 7.75z" id="Y"/></defs><use xlink:href="#x" transform="matrix(.05231 0 0 .05242 -5.366 -11.438)"/><use xlink:href="#y" transform="matrix(.05231 0 0 .05242 -5.366 -11.438)"/><use xlink:href="#z" transform="matrix(.05231 0 0 .05242 -5.366 -11.438)"/><use xlink:href="#A" transform="matrix(.05231 0 0 .05242 -5.366 -11.438)"/><use xlink:href="#B" transform="matrix(.05231 0 0 .05242 -5.366 -11.438)"/><use xlink:href="#C" transform="matrix(.05231 0 0 .05242 -5.366 -11.438)"/><use xlink:href="#D" transform="matrix(.05231 0 0 .05242 -5.366 -11.438)"/><use xlink:href="#E" transform="matrix(.05231 0 0 .05242 -5.366 -11.438)"/><use xlink:href="#F" transform="matrix(.05231 0 0 .05242 -5.366 -11.438)"/><use xlink:href="#G" transform="matrix(.05231 0 0 .05242 -5.366 -11.438)"/><use xlink:href="#H" transform="matrix(.05231 0 0 .05242 -5.366 -11.438)"/><use xlink:href="#I" transform="matrix(.05231 0 0 .05242 -5.366 -11.438)"/><use xlink:href="#J" transform="matrix(.05231 0 0 .05242 -5.366 -11.438)"/><use xlink:href="#K" transform="matrix(.05231 0 0 .05242 -5.366 -11.438)"/><use xlink:href="#L" transform="matrix(.05231 0 0 .05242 -5.366 -11.438)"/><use xlink:href="#M" transform="matrix(.05231 0 0 .05242 -5.366 -11.438)"/><use xlink:href="#N" transform="matrix(.05231 0 0 .05242 -5.366 -11.438)"/><use xlink:href="#O" transform="matrix(.05231 0 0 .05242 3.616 4.3)"/><use xlink:href="#P" transform="matrix(.05231 0 0 .05242 3.443 4.3)"/><use xlink:href="#Q" transform="matrix(.05231 0 0 .05242 3.443 4.3)"/><use xlink:href="#R" transform="matrix(.05231 0 0 .05242 3.443 4.3)"/><use xlink:href="#S" transform="matrix(.05231 0 0 .05339 4.283 4.295)"/><g><use xlink:href="#x" transform="matrix(.05231 0 0 .05242 -2.891 -11.438)"/><use xlink:href="#y" transform="matrix(.05231 0 0 .05242 -2.891 -11.438)"/><use xlink:href="#z" transform="matrix(.05231 0 0 .05242 -2.891 -11.438)"/><use xlink:href="#A" transform="matrix(.05231 0 0 .05242 -2.891 -11.438)"/><use xlink:href="#B" transform="matrix(.05231 0 0 .05242 -2.891 -11.438)"/><use xlink:href="#C" transform="matrix(.05231 0 0 .05242 -2.891 -11.438)"/><use xlink:href="#D" transform="matrix(.05231 0 0 .05242 -2.891 -11.438)"/><use xlink:href="#E" transform="matrix(.05231 0 0 .05242 -2.891 -11.438)"/><use xlink:href="#F" transform="matrix(.05231 0 0 .05242 -2.891 -11.438)"/><use xlink:href="#G" transform="matrix(.05231 0 0 .05242 -2.891 -11.438)"/><use xlink:href="#H" transform="matrix(.05231 0 0 .05242 -2.891 -11.438)"/><use xlink:href="#I" transform="matrix(.05231 0 0 .05242 -2.891 -11.438)"/><use xlink:href="#J" transform="matrix(.05231 0 0 .05242 -2.891 -11.438)"/><use xlink:href="#K" transform="matrix(.05231 0 0 .05242 -2.891 -11.438)"/><use xlink:href="#L" transform="matrix(.05231 0 0 .05242 -2.891 -11.438)"/><use xlink:href="#M" transform="matrix(.05231 0 0 .05242 -2.891 -11.438)"/><use xlink:href="#N" transform="matrix(.05231 0 0 .05242 -2.891 -11.438)"/><use xlink:href="#O" transform="matrix(.05231 0 0 .05242 6.09 4.3)"/><use xlink:href="#P" transform="matrix(.05231 0 0 .05242 5.918 4.3)"/><use xlink:href="#Q" transform="matrix(.05231 0 0 .05242 5.918 4.3)"/><use xlink:href="#R" transform="matrix(.05231 0 0 .05242 5.918 4.3)"/><use xlink:href="#S" transform="matrix(.05231 0 0 .05339 6.758 4.295)"/></g><g><use xlink:href="#x" transform="matrix(.05231 0 0 .05242 -.448 -11.438)"/><use xlink:href="#y" transform="matrix(.05231 0 0 .05242 -.448 -11.438)"/><use xlink:href="#z" transform="matrix(.05231 0 0 .05242 -.448 -11.438)"/><use xlink:href="#A" transform="matrix(.05231 0 0 .05242 -.448 -11.438)"/><use xlink:href="#B" transform="matrix(.05231 0 0 .05242 -.448 -11.438)"/><use xlink:href="#C" transform="matrix(.05231 0 0 .05242 -.448 -11.438)"/><use xlink:href="#D" transform="matrix(.05231 0 0 .05242 -.448 -11.438)"/><use xlink:href="#E" transform="matrix(.05231 0 0 .05242 -.448 -11.438)"/><use xlink:href="#F" transform="matrix(.05231 0 0 .05242 -.448 -11.438)"/><use xlink:href="#G" transform="matrix(.05231 0 0 .05242 -.448 -11.438)"/><use xlink:href="#H" transform="matrix(.05231 0 0 .05242 -.448 -11.438)"/><use xlink:href="#I" transform="matrix(.05231 0 0 .05242 -.448 -11.438)"/><use xlink:href="#J" transform="matrix(.05231 0 0 .05242 -.448 -11.438)"/><use xlink:href="#K" transform="matrix(.05231 0 0 .05242 -.448 -11.438)"/><use xlink:href="#L" transform="matrix(.05231 0 0 .05242 -.448 -11.438)"/><use xlink:href="#M" transform="matrix(.05231 0 0 .05242 -.448 -11.438)"/><use xlink:href="#N" transform="matrix(.05231 0 0 .05242 -.448 -11.438)"/><use xlink:href="#O" transform="matrix(.05231 0 0 .05242 8.534 4.3)"/><use xlink:href="#P" transform="matrix(.05231 0 0 .05242 8.361 4.3)"/><use xlink:href="#Q" transform="matrix(.05231 0 0 .05242 8.361 4.3)"/><use xlink:href="#R" transform="matrix(.05231 0 0 .05242 8.361 4.3)"/><use xlink:href="#S" transform="matrix(.05231 0 0 .05339 9.201 4.295)"/></g><g><use xlink:href="#x" transform="matrix(.05231 0 0 .05242 2.027 -11.438)"/><use xlink:href="#y" transform="matrix(.05231 0 0 .05242 2.027 -11.438)"/><use xlink:href="#z" transform="matrix(.05231 0 0 .05242 2.027 -11.438)"/><use xlink:href="#A" transform="matrix(.05231 0 0 .05242 2.027 -11.438)"/><use xlink:href="#B" transform="matrix(.05231 0 0 .05242 2.027 -11.438)"/><use xlink:href="#C" transform="matrix(.05231 0 0 .05242 2.027 -11.438)"/><use xlink:href="#D" transform="matrix(.05231 0 0 .05242 2.027 -11.438)"/><use xlink:href="#E" transform="matrix(.05231 0 0 .05242 2.027 -11.438)"/><use xlink:href="#F" transform="matrix(.05231 0 0 .05242 2.027 -11.438)"/><use xlink:href="#G" transform="matrix(.05231 0 0 .05242 2.027 -11.438)"/><use xlink:href="#H" transform="matrix(.05231 0 0 .05242 2.027 -11.438)"/><use xlink:href="#I" transform="matrix(.05231 0 0 .05242 2.027 -11.438)"/><use xlink:href="#J" transform="matrix(.05231 0 0 .05242 2.027 -11.438)"/><use xlink:href="#K" transform="matrix(.05231 0 0 .05242 2.027 -11.438)"/><use xlink:href="#L" transform="matrix(.05231 0 0 .05242 2.027 -11.438)"/><use xlink:href="#M" transform="matrix(.05231 0 0 .05242 2.027 -11.438)"/><use xlink:href="#N" transform="matrix(.05231 0 0 .05242 2.027 -11.438)"/><use xlink:href="#O" transform="matrix(.05231 0 0 .05242 11.009 4.3)"/><use xlink:href="#P" transform="matrix(.05231 0 0 .05242 10.836 4.3)"/><use xlink:href="#Q" transform="matrix(.05231 0 0 .05242 10.836 4.3)"/><use xlink:href="#R" transform="matrix(.05231 0 0 .05242 10.836 4.3)"/><use xlink:href="#S" transform="matrix(.05231 0 0 .05339 11.676 4.295)"/></g><g><use xlink:href="#x" transform="matrix(.05231 0 0 .05242 4.502 -11.438)"/><use xlink:href="#y" transform="matrix(.05231 0 0 .05242 4.502 -11.438)"/><use xlink:href="#z" transform="matrix(.05231 0 0 .05242 4.502 -11.438)"/><use xlink:href="#A" transform="matrix(.05231 0 0 .05242 4.502 -11.438)"/><use xlink:href="#B" transform="matrix(.05231 0 0 .05242 4.502 -11.438)"/><use xlink:href="#C" transform="matrix(.05231 0 0 .05242 4.502 -11.438)"/><use xlink:href="#D" transform="matrix(.05231 0 0 .05242 4.502 -11.438)"/><use xlink:href="#E" transform="matrix(.05231 0 0 .05242 4.502 -11.438)"/><use xlink:href="#F" transform="matrix(.05231 0 0 .05242 4.502 -11.438)"/><use xlink:href="#G" transform="matrix(.05231 0 0 .05242 4.502 -11.438)"/><use xlink:href="#H" transform="matrix(.05231 0 0 .05242 4.502 -11.438)"/><use xlink:href="#I" transform="matrix(.05231 0 0 .05242 4.502 -11.438)"/><use xlink:href="#J" transform="matrix(.05231 0 0 .05242 4.502 -11.438)"/><use xlink:href="#K" transform="matrix(.05231 0 0 .05242 4.502 -11.438)"/><use xlink:href="#L" transform="matrix(.05231 0 0 .05242 4.502 -11.438)"/><use xlink:href="#M" transform="matrix(.05231 0 0 .05242 4.502 -11.438)"/><use xlink:href="#N" transform="matrix(.05231 0 0 .05242 4.502 -11.438)"/><use xlink:href="#O" transform="matrix(.05231 0 0 .05242 13.484 4.3)"/><use xlink:href="#P" transform="matrix(.05231 0 0 .05242 13.31 4.3)"/><use xlink:href="#Q" transform="matrix(.05231 0 0 .05242 13.31 4.3)"/><use xlink:href="#R" transform="matrix(.05231 0 0 .05242 13.31 4.3)"/><use xlink:href="#S" transform="matrix(.05231 0 0 .05339 14.15 4.295)"/></g><g><use xlink:href="#x" transform="matrix(.05231 0 0 .05242 6.945 -11.438)"/><use xlink:href="#y" transform="matrix(.05231 0 0 .05242 6.945 -11.438)"/><use xlink:href="#z" transform="matrix(.05231 0 0 .05242 6.945 -11.438)"/><use xlink:href="#A" transform="matrix(.05231 0 0 .05242 6.945 -11.438)"/><use xlink:href="#B" transform="matrix(.05231 0 0 .05242 6.945 -11.438)"/><use xlink:href="#C" transform="matrix(.05231 0 0 .05242 6.945 -11.438)"/><use xlink:href="#D" transform="matrix(.05231 0 0 .05242 6.945 -11.438)"/><use xlink:href="#E" transform="matrix(.05231 0 0 .05242 6.945 -11.438)"/><use xlink:href="#F" transform="matrix(.05231 0 0 .05242 6.945 -11.438)"/><use xlink:href="#G" transform="matrix(.05231 0 0 .05242 6.945 -11.438)"/><use xlink:href="#H" transform="matrix(.05231 0 0 .05242 6.945 -11.438)"/><use xlink:href="#I" transform="matrix(.05231 0 0 .05242 6.945 -11.438)"/><use xlink:href="#J" transform="matrix(.05231 0 0 .05242 6.945 -11.438)"/><use xlink:href="#K" transform="matrix(.05231 0 0 .05242 6.945 -11.438)"/><use xlink:href="#L" transform="matrix(.05231 0 0 .05242 6.945 -11.438)"/><use xlink:href="#M" transform="matrix(.05231 0 0 .05242 6.945 -11.438)"/><use xlink:href="#N" transform="matrix(.05231 0 0 .05242 6.945 -11.438)"/><use xlink:href="#O" transform="matrix(.05231 0 0 .05242 15.927 4.3)"/><use xlink:href="#P" transform="matrix(.05231 0 0 .05242 15.754 4.3)"/><use xlink:href="#Q" transform="matrix(.05231 0 0 .05242 15.754 4.3)"/><use xlink:href="#R" transform="matrix(.05231 0 0 .05242 15.754 4.3)"/><use xlink:href="#S" transform="matrix(.05231 0 0 .05339 16.594 4.295)"/></g><g><use xlink:href="#T" transform="matrix(.06224 0 0 .0631 5.01 4.3)"/><use xlink:href="#U" transform="matrix(.06224 0 0 .0631 -1.302 -14.647)"/><use xlink:href="#V" transform="matrix(.06224 0 0 .0631 -1.302 -14.647)"/><use xlink:href="#W" transform="matrix(.06224 0 0 .0631 -1.302 -14.647)"/><use xlink:href="#X" transform="matrix(.06224 0 0 .0631 -1.302 -14.647)"/><use xlink:href="#Y" transform="matrix(.06224 0 0 .0631 -1.302 -14.647)"/></g><g><use xlink:href="#T" transform="matrix(.06224 0 0 .0631 9.96 4.3)"/><use xlink:href="#U" transform="matrix(.06224 0 0 .0631 3.648 -14.647)"/><use xlink:href="#V" transform="matrix(.06224 0 0 .0631 3.648 -14.647)"/><use xlink:href="#W" transform="matrix(.06224 0 0 .0631 3.648 -14.647)"/><use xlink:href="#X" transform="matrix(.06224 0 0 .0631 3.648 -14.647)"/><use xlink:href="#Y" transform="matrix(.06224 0 0 .0631 3.648 -14.647)"/></g><g><use xlink:href="#T" transform="matrix(.06224 0 0 .0631 12.402 4.3)"/><use xlink:href="#U" transform="matrix(.06224 0 0 .0631 6.091 -14.647)"/><use xlink:href="#V" transform="matrix(.06224 0 0 .0631 6.091 -14.647)"/><use xlink:href="#W" transform="matrix(.06224 0 0 .0631 6.091 -14.647)"/><use xlink:href="#X" transform="matrix(.06224 0 0 .0631 6.091 -14.647)"/><use xlink:href="#Y" transform="matrix(.06224 0 0 .0631 6.091 -14.647)"/></g><g><use xlink:href="#T" transform="matrix(.06224 0 0 .0631 14.877 4.3)"/><use xlink:href="#U" transform="matrix(.06224 0 0 .0631 8.566 -14.647)"/><use xlink:href="#V" transform="matrix(.06224 0 0 .0631 8.566 -14.647)"/><use xlink:href="#W" transform="matrix(.06224 0 0 .0631 8.566 -14.647)"/><use xlink:href="#X" transform="matrix(.06224 0 0 .0631 8.566 -14.647)"/><use xlink:href="#Y" transform="matrix(.06224 0 0 .0631 8.566 -14.647)"/></g><g><use xlink:href="#x" transform="matrix(.05231 0 0 .05242 -7.81 -11.438)"/><use xlink:href="#y" transform="matrix(.05231 0 0 .05242 -7.81 -11.438)"/><use xlink:href="#z" transform="matrix(.05231 0 0 .05242 -7.81 -11.438)"/><use xlink:href="#A" transform="matrix(.05231 0 0 .05242 -7.81 -11.438)"/><use xlink:href="#B" transform="matrix(.05231 0 0 .05242 -7.81 -11.438)"/><use xlink:href="#C" transform="matrix(.05231 0 0 .05242 -7.81 -11.438)"/><use xlink:href="#D" transform="matrix(.05231 0 0 .05242 -7.81 -11.438)"/><use xlink:href="#E" transform="matrix(.05231 0 0 .05242 -7.81 -11.438)"/><use xlink:href="#F" transform="matrix(.05231 0 0 .05242 -7.81 -11.438)"/><use xlink:href="#G" transform="matrix(.05231 0 0 .05242 -7.81 -11.438)"/><use xlink:href="#H" transform="matrix(.05231 0 0 .05242 -7.81 -11.438)"/><use xlink:href="#I" transform="matrix(.05231 0 0 .05242 -7.81 -11.438)"/><use xlink:href="#J" transform="matrix(.05231 0 0 .05242 -7.81 -11.438)"/><use xlink:href="#K" transform="matrix(.05231 0 0 .05242 -7.81 -11.438)"/><use xlink:href="#L" transform="matrix(.05231 0 0 .05242 -7.81 -11.438)"/><use xlink:href="#M" transform="matrix(.05231 0 0 .05242 -7.81 -11.438)"/><use xlink:href="#N" transform="matrix(.05231 0 0 .05242 -7.81 -11.438)"/><use xlink:href="#O" transform="matrix(.05231 0 0 .05242 1.173 4.3)"/><use xlink:href="#P" transform="matrix(.05231 0 0 .05242 1 4.3)"/><use xlink:href="#Q" transform="matrix(.05231 0 0 .05242 1 4.3)"/><use xlink:href="#R" transform="matrix(.05231 0 0 .05242 1 4.3)"/><use xlink:href="#S" transform="matrix(.05231 0 0 .05339 1.84 4.295)"/></g><g><use xlink:href="#T" transform="matrix(.06224 0 0 .0631 2.566 4.3)"/><use xlink:href="#U" transform="matrix(.06224 0 0 .0631 -3.745 -14.647)"/><use xlink:href="#V" transform="matrix(.06224 0 0 .0631 -3.745 -14.647)"/><use xlink:href="#W" transform="matrix(.06224 0 0 .0631 -3.745 -14.647)"/><use xlink:href="#X" transform="matrix(.06224 0 0 .0631 -3.745 -14.647)"/><use xlink:href="#Y" transform="matrix(.06224 0 0 .0631 -3.745 -14.647)"/></g></svg>
