<svg xmlns="http://www.w3.org/2000/svg" xmlns:xlink="http://www.w3.org/1999/xlink" preserveAspectRatio="none" width="19" height="19"><defs><radialGradient id="a" gradientUnits="userSpaceOnUse" cx="0" cy="0" r="10.6" fx="0" fy="0" gradientTransform="translate(8.5 8.2)" spreadMethod="pad"><stop offset="0%" stop-color="#FFF"/><stop offset="100%"/></radialGradient><radialGradient id="b" gradientUnits="userSpaceOnUse" cx="0" cy="0" r="50.963" fx="0" fy="0" gradientTransform="translate(50 50)" spreadMethod="pad"><stop offset="0%" stop-color="#FFF"/><stop offset="28.627%" stop-color="#F2970D"/><stop offset="49.412%" stop-color="#F83707"/><stop offset="100%" stop-color="red" stop-opacity="0"/></radialGradient><path fill="url(#a)" d="M18.95 9.45q.033-3.9-2.75-6.7-.645-.641-1.35-1.15-2.354-1.631-5.4-1.65L8.7 0Q6.263.176 4.3 1.5q-.806.532-1.55 1.25l-.55.6Q-.021 5.976-.05 9.45q.03 3.938 2.8 6.7 2.812 2.82 6.7 2.8 3.95.02 6.75-2.8 2.783-2.762 2.75-6.7z" id="c"/><path fill="url(#b)" d="M85.35 85.35Q100.004 70.756 100 50q.004-20.715-14.65-35.4Q70.743.024 50 0 29.26.024 14.6 14.6-.001 29.285 0 50q-.001 20.756 14.6 35.35Q29.26 100.017 50 100q20.743.017 35.35-14.65z" id="e"/><path id="d" stroke="#000" stroke-width="1" stroke-linejoin="round" stroke-linecap="round" fill="none" d="M11.55 4.55l1.95 2.1 1.9-2.1m.35 4.55L13.5 6.65 11.2 9.1M3.8 4.55l1.9 2.1 1.95-2.1M8 9.1L5.7 6.65 3.45 9.1m.7 3.15h11.6"/></defs><use xlink:href="#c" transform="matrix(.65641 0 0 .65467 1.895 3.384)"/><use xlink:href="#d" transform="translate(.795 2.247) scale(.73362)"/><use xlink:href="#e" transform="matrix(.0645 0 0 .0645 .9 8.76)"/><g><use xlink:href="#e" transform="matrix(.0645 0 0 .0645 11.72 6.081)"/></g></svg>
