<svg xmlns="http://www.w3.org/2000/svg" xmlns:xlink="http://www.w3.org/1999/xlink" preserveAspectRatio="none" width="19" height="19"><defs><radialGradient id="a" gradientUnits="userSpaceOnUse" cx="0" cy="0" r="38.3" fx="0" fy="0" gradientTransform="translate(23.5 22.3)" spreadMethod="pad"><stop offset="0%" stop-color="#FFF"/><stop offset="100%" stop-color="#B1EAEF"/></radialGradient><radialGradient id="b" gradientUnits="userSpaceOnUse" cx="0" cy="0" r="11.45" fx="0" fy="0" gradientTransform="translate(29 26.3)" spreadMethod="pad"><stop offset="0%" stop-color="#FFF"/><stop offset="54.902%"/></radialGradient><radialGradient id="c" gradientUnits="userSpaceOnUse" cx="0" cy="0" r="29.65" fx="0" fy="0" gradientTransform="translate(16.75 52.8)" spreadMethod="pad"><stop offset="0%" stop-color="#FFF"/><stop offset="100%" stop-color="#B1EAEF"/></radialGradient><path id="e" stroke="#000" stroke-width="1" stroke-linejoin="round" stroke-linecap="round" fill="none" d="M52.725 46.25q-.79.914-1.675 1.8-8.25 8.25-19.9 8.25-11.65 0-19.9-8.25-.958-.958-1.8-1.95-.203.069-.4.15Q3 48.8 1 52.05q1.9 2.25 6.7 5.35 7.9 5.15 20.7 5.15 12.8 0 21.85-3.8 8.6-3.55 9.05-8.55-2.3-2.15-6.55-3.95h-.025q3.047-3.571 4.675-7.7 1.9-4.8 1.9-10.4 0-11.65-8.25-19.9Q42.8 0 31.15 0 19.5 0 11.25 8.25 3 16.5 3 28.15q0 5.6 1.9 10.4 1.593 4.041 4.55 7.55m49.85 4.1q2.5 2.4 2.5 5.2 0 5.35-9.05 9.1-9.05 3.8-21.85 3.8T9.05 64.5Q0 60.75 0 55.4q0-1.75 1-3.35"/><path id="f" stroke="#1F8894" stroke-width="1" stroke-linejoin="round" stroke-linecap="round" fill="none" d="M39.2 21.35q3.3 3.3 3.3 7.95t-3.3 7.95q-3.3 3.3-7.95 3.3t-7.95-3.3Q20 33.95 20 29.3t3.3-7.95q3.3-3.3 7.95-3.3t7.95 3.3z"/><g id="d"><path fill="#E5F7FA" d="M28.4 62.55q-12.8 0-20.7-5.15-4.8-3.1-6.7-5.35-1 1.6-1 3.35 0 5.35 9.05 9.1 9.05 3.8 21.85 3.8t21.85-3.8q9.05-3.75 9.05-9.1 0-2.8-2.5-5.2-.45 5-9.05 8.55-9.05 3.8-21.85 3.8z"/><path fill="url(#a)" d="M51.05 48.05q.886-.886 1.65-1.8 3.072-3.571 4.7-7.7 1.9-4.8 1.9-10.4 0-11.65-8.25-19.9Q42.8 0 31.15 0 19.5 0 11.25 8.25 3 16.5 3 28.15q0 5.6 1.9 10.4 1.593 4.041 4.55 7.55.842.992 1.8 1.95 8.25 8.25 19.9 8.25 11.65 0 19.9-8.25m-19.8-30q4.65 0 7.95 3.3t3.3 7.95q0 4.65-3.3 7.95t-7.95 3.3q-4.65 0-7.95-3.3T20 29.3q0-4.65 3.3-7.95t7.95-3.3z"/><path fill="url(#b)" d="M39.2 21.35q-3.3-3.3-7.95-3.3t-7.95 3.3Q20 24.65 20 29.3t3.3 7.95q3.3 3.3 7.95 3.3t7.95-3.3q3.3-3.3 3.3-7.95t-3.3-7.95z"/><path fill="url(#c)" d="M52.7 46.25q-.764.914-1.65 1.8-8.25 8.25-19.9 8.25-11.65 0-19.9-8.25-.958-.958-1.8-1.95-.203.069-.4.15Q3 48.8 1 52.05q1.9 2.25 6.7 5.35 7.9 5.15 20.7 5.15 12.8 0 21.85-3.8 8.6-3.55 9.05-8.55-2.3-2.15-6.55-3.95h-.05z"/></g></defs><g transform="matrix(.2451 0 0 .24435 1.751 .845)"><use xlink:href="#d"/><use xlink:href="#e"/><use xlink:href="#f"/></g></svg>