<svg xmlns="http://www.w3.org/2000/svg" xmlns:xlink="http://www.w3.org/1999/xlink" preserveAspectRatio="none" width="284" height="320"><defs><linearGradient id="a" gradientUnits="userSpaceOnUse" x1="248.413" y1="285.913" x2="273.288" y2="237.088" spreadMethod="pad"><stop offset="0%" stop-color="#CDECFC"/><stop offset="100%" stop-color="#B6E4FA"/></linearGradient><linearGradient id="b" gradientUnits="userSpaceOnUse" x1="350.212" y1="286.225" x2="326.188" y2="236.975" spreadMethod="pad"><stop offset="0%" stop-color="#CDECFC"/><stop offset="100%" stop-color="#B6E4FA"/></linearGradient><linearGradient id="c" gradientUnits="userSpaceOnUse" x1="237.462" y1="248.25" x2="268.938" y2="248.25" spreadMethod="pad"><stop offset="0%" stop-color="#FFF"/><stop offset="100%" stop-color="#B6E4FA"/></linearGradient><linearGradient id="d" gradientUnits="userSpaceOnUse" x1="361.438" y1="248.25" x2="329.962" y2="248.25" spreadMethod="pad"><stop offset="0%" stop-color="#FFF"/><stop offset="100%" stop-color="#B6E4FA"/></linearGradient><linearGradient id="e" gradientUnits="userSpaceOnUse" x1="280.45" y1="251.538" x2="280.45" y2="266.163" spreadMethod="pad"><stop offset="0%" stop-color="#D99630"/><stop offset="100%" stop-color="#FFCC2A"/></linearGradient><linearGradient id="f" gradientUnits="userSpaceOnUse" x1="318.45" y1="251.538" x2="318.45" y2="266.163" spreadMethod="pad"><stop offset="0%" stop-color="#D99630"/><stop offset="100%" stop-color="#FFCC2A"/></linearGradient><linearGradient id="g" gradientUnits="userSpaceOnUse" x1="332.45" y1="258.1" x2="318.35" y2="258.1" spreadMethod="pad"><stop offset="0%" stop-color="#FFCC2A"/><stop offset="100%" stop-color="#FFCC2A"/></linearGradient><linearGradient id="h" gradientUnits="userSpaceOnUse" x1="332.45" y1="255.25" x2="320.25" y2="255.25" spreadMethod="pad"><stop offset="0%" stop-color="#FFCC2A"/><stop offset="100%" stop-color="#FFCC2A"/></linearGradient><linearGradient id="i" gradientUnits="userSpaceOnUse" x1="266.5" y1="258.1" x2="280.6" y2="258.1" spreadMethod="pad"><stop offset="0%" stop-color="#FFE697"/><stop offset="100%" stop-color="#FFCC2A"/></linearGradient><linearGradient id="j" gradientUnits="userSpaceOnUse" x1="266.5" y1="255.25" x2="280.6" y2="255.25" spreadMethod="pad"><stop offset="0%" stop-color="#FFE697"/><stop offset="100%" stop-color="#FFCC2A"/></linearGradient><linearGradient id="k" gradientUnits="userSpaceOnUse" x1="330" y1="257.55" x2="330" y2="277.05" spreadMethod="pad"><stop offset="0%" stop-color="#0076BD"/><stop offset="100%" stop-color="#008BCF"/></linearGradient><linearGradient id="l" gradientUnits="userSpaceOnUse" x1="268.7" y1="257.55" x2="268.7" y2="277.05" spreadMethod="pad"><stop offset="0%" stop-color="#0092D5"/><stop offset="100%" stop-color="#00B0F0"/></linearGradient><linearGradient id="m" gradientUnits="userSpaceOnUse" x1="276.463" y1="290.55" x2="322.238" y2="290.55" spreadMethod="pad"><stop offset="0%" stop-color="#63CDF6"/><stop offset="100%" stop-color="#0092D5"/></linearGradient><linearGradient id="n" gradientUnits="userSpaceOnUse" x1="318.75" y1="313.512" x2="318.75" y2="263.988" spreadMethod="pad"><stop offset="0%" stop-color="#00B5F1"/><stop offset="100%" stop-color="#00B5F1"/></linearGradient><linearGradient id="o" gradientUnits="userSpaceOnUse" x1="267" y1="237.525" x2="267" y2="251.975" spreadMethod="pad"><stop offset="0%" stop-color="#D99630"/><stop offset="100%" stop-color="#FFCC2A"/></linearGradient><linearGradient id="p" gradientUnits="userSpaceOnUse" x1="323.85" y1="221.55" x2="323.85" y2="231.85" spreadMethod="pad"><stop offset="0%" stop-color="#D99630"/><stop offset="100%" stop-color="#FFCC2A"/></linearGradient><linearGradient id="q" gradientUnits="userSpaceOnUse" x1="260.5" y1="242.75" x2="274.6" y2="242.75" spreadMethod="pad"><stop offset="0%" stop-color="#FFE697"/><stop offset="100%" stop-color="#FFCC2A"/></linearGradient><linearGradient id="r" gradientUnits="userSpaceOnUse" x1="260.5" y1="239.9" x2="274.6" y2="239.9" spreadMethod="pad"><stop offset="0%" stop-color="#FFE697"/><stop offset="100%" stop-color="#FFCC2A"/></linearGradient><linearGradient id="s" gradientUnits="userSpaceOnUse" x1="339.45" y1="242.75" x2="325.35" y2="242.75" spreadMethod="pad"><stop offset="0%" stop-color="#FFCC2A"/><stop offset="100%" stop-color="#FFCC2A"/></linearGradient><linearGradient id="t" gradientUnits="userSpaceOnUse" x1="339.45" y1="239.9" x2="327.25" y2="239.9" spreadMethod="pad"><stop offset="0%" stop-color="#FFCC2A"/><stop offset="100%" stop-color="#FFCC2A"/></linearGradient><linearGradient id="u" gradientUnits="userSpaceOnUse" x1="299.45" y1="239.538" x2="299.45" y2="236.563" spreadMethod="pad"><stop offset="0%" stop-color="#FFE8CF"/><stop offset="100%" stop-color="#FFD7A7"/></linearGradient><linearGradient id="v" gradientUnits="userSpaceOnUse" x1="321.475" y1="211.8" x2="342.125" y2="211.8" spreadMethod="pad"><stop offset="0%" stop-color="#F1B82D"/><stop offset="100%" stop-color="#D99630"/></linearGradient><linearGradient id="w" gradientUnits="userSpaceOnUse" x1="326.488" y1="194.2" x2="303.512" y2="194.2" spreadMethod="pad"><stop offset="0%" stop-color="#F1B82D"/><stop offset="100%" stop-color="#FFE284"/></linearGradient><linearGradient id="x" gradientUnits="userSpaceOnUse" x1="325.45" y1="197.35" x2="303.45" y2="197.35" spreadMethod="pad"><stop offset="0%" stop-color="#F1B82D"/><stop offset="100%" stop-color="#FFE284"/></linearGradient><linearGradient id="y" gradientUnits="userSpaceOnUse" x1="280.475" y1="211.8" x2="301.125" y2="211.8" spreadMethod="pad"><stop offset="0%" stop-color="#F1B82D"/><stop offset="100%" stop-color="#D99630"/></linearGradient><linearGradient id="z" gradientUnits="userSpaceOnUse" x1="295.488" y1="192.925" x2="273.113" y2="194.875" spreadMethod="pad"><stop offset="0%" stop-color="#E5A62F"/><stop offset="100%" stop-color="#FFE284"/></linearGradient><linearGradient id="A" gradientUnits="userSpaceOnUse" x1="295.525" y1="196.213" x2="274.075" y2="198.088" spreadMethod="pad"><stop offset="0%" stop-color="#E5A62F"/><stop offset="100%" stop-color="#FFE284"/></linearGradient><linearGradient id="B" gradientUnits="userSpaceOnUse" x1="295.462" y1="209.15" x2="274.837" y2="209.15" spreadMethod="pad"><stop offset="0%" stop-color="#E5A62F"/><stop offset="100%" stop-color="#FFE284"/></linearGradient><linearGradient id="C" gradientUnits="userSpaceOnUse" x1="295.488" y1="205.55" x2="274.213" y2="205.55" spreadMethod="pad"><stop offset="0%" stop-color="#E5A62F"/><stop offset="100%" stop-color="#FFE284"/></linearGradient><linearGradient id="D" gradientUnits="userSpaceOnUse" x1="294.488" y1="201.95" x2="273.213" y2="201.95" spreadMethod="pad"><stop offset="0%" stop-color="#E5A62F"/><stop offset="100%" stop-color="#FFE284"/></linearGradient><linearGradient id="E" gradientUnits="userSpaceOnUse" x1="324.462" y1="209.15" x2="303.837" y2="209.15" spreadMethod="pad"><stop offset="0%" stop-color="#F1B82D"/><stop offset="100%" stop-color="#FFE284"/></linearGradient><linearGradient id="F" gradientUnits="userSpaceOnUse" x1="325.475" y1="205.55" x2="304.125" y2="205.55" spreadMethod="pad"><stop offset="0%" stop-color="#F1B82D"/><stop offset="100%" stop-color="#FFE284"/></linearGradient><linearGradient id="G" gradientUnits="userSpaceOnUse" x1="326.475" y1="201.95" x2="304.525" y2="201.95" spreadMethod="pad"><stop offset="0%" stop-color="#F1B82D"/><stop offset="100%" stop-color="#FFE284"/></linearGradient><linearGradient id="H" gradientUnits="userSpaceOnUse" x1="260.5" y1="229.6" x2="274.6" y2="229.6" spreadMethod="pad"><stop offset="0%" stop-color="#FFE697"/><stop offset="100%" stop-color="#FFCC2A"/></linearGradient><linearGradient id="I" gradientUnits="userSpaceOnUse" x1="260.5" y1="226.75" x2="274.6" y2="226.75" spreadMethod="pad"><stop offset="0%" stop-color="#FFE697"/><stop offset="100%" stop-color="#FFCC2A"/></linearGradient><linearGradient id="J" gradientUnits="userSpaceOnUse" x1="339.45" y1="229.6" x2="325.35" y2="229.6" spreadMethod="pad"><stop offset="0%" stop-color="#E5A62F"/><stop offset="100%" stop-color="#FFCC2A"/></linearGradient><linearGradient id="K" gradientUnits="userSpaceOnUse" x1="339.45" y1="226.75" x2="325.35" y2="226.75" spreadMethod="pad"><stop offset="0%" stop-color="#E5A62F"/><stop offset="100%" stop-color="#FFCC2A"/></linearGradient><linearGradient id="L" gradientUnits="userSpaceOnUse" x1="286.65" y1="229.537" x2="286.65" y2="222.463" spreadMethod="pad"><stop offset="0%" stop-color="#00A0E1"/><stop offset="100%" stop-color="#1F467A"/></linearGradient><linearGradient id="M" gradientUnits="userSpaceOnUse" x1="286.6" y1="222.538" x2="286.6" y2="229.563" spreadMethod="pad"><stop offset="0%" stop-color="#1362AD"/><stop offset="43.922%" stop-color="#00B5F1"/><stop offset="100%" stop-color="#CDECFC"/></linearGradient><linearGradient id="N" gradientUnits="userSpaceOnUse" x1="286.6" y1="229.537" x2="286.6" y2="222.263" spreadMethod="pad"><stop offset="0%" stop-color="#3BC6F4"/><stop offset="100%" stop-color="#1C5493"/></linearGradient><linearGradient id="O" gradientUnits="userSpaceOnUse" x1="312.3" y1="229.537" x2="312.3" y2="222.463" spreadMethod="pad"><stop offset="0%" stop-color="#00A0E1"/><stop offset="100%" stop-color="#1F467A"/></linearGradient><linearGradient id="P" gradientUnits="userSpaceOnUse" x1="312.25" y1="222.538" x2="312.25" y2="229.563" spreadMethod="pad"><stop offset="0%" stop-color="#1362AD"/><stop offset="43.922%" stop-color="#00B5F1"/><stop offset="100%" stop-color="#CDECFC"/></linearGradient><linearGradient id="Q" gradientUnits="userSpaceOnUse" x1="312.25" y1="229.537" x2="312.25" y2="222.263" spreadMethod="pad"><stop offset="0%" stop-color="#3BC6F4"/><stop offset="100%" stop-color="#1C5493"/></linearGradient><linearGradient id="R" gradientUnits="userSpaceOnUse" x1="274.487" y1="204.387" x2="320.813" y2="203.613" spreadMethod="pad"><stop offset="0%" stop-color="#E5F5FD"/><stop offset="61.176%" stop-color="#63CDF6"/><stop offset="100%" stop-color="#63CDF6"/></linearGradient><radialGradient id="S" gradientUnits="userSpaceOnUse" cx="0" cy="0" r="8.4" fx="0" fy="0" gradientTransform="matrix(1 0 0 -1 299.5 197.55)" spreadMethod="pad"><stop offset="0%" stop-color="#FFF"/><stop offset="52.941%" stop-color="#C6EAFB"/><stop offset="100%" stop-color="#9DDCF9"/></radialGradient><linearGradient id="T" gradientUnits="userSpaceOnUse" x1="282.65" y1="277.525" x2="282.65" y2="322.175" spreadMethod="pad"><stop offset="0%" stop-color="#63CDF6"/><stop offset="100%" stop-color="#CDECFC"/></linearGradient><linearGradient id="U" gradientUnits="userSpaceOnUse" x1="312.487" y1="322.95" x2="276.313" y2="322.95" spreadMethod="pad"><stop offset="0%" stop-color="#00B5F1"/><stop offset="100%" stop-color="#9DDCF9"/></linearGradient><linearGradient id="V" gradientUnits="userSpaceOnUse" x1="301.8" y1="270.2" x2="297.5" y2="265.9" spreadMethod="pad"><stop offset="0%" stop-color="#0069B2"/><stop offset="100%" stop-color="#0092D5"/></linearGradient><linearGradient id="W" gradientUnits="userSpaceOnUse" x1="302.2" y1="281.8" x2="297.9" y2="277.5" spreadMethod="pad"><stop offset="0%" stop-color="#0069B2"/><stop offset="100%" stop-color="#0092D5"/></linearGradient><path fill="#FFF" fill-opacity="0" d="M284 0H0v320h284V0z" id="X"/><path fill="url(#a)" d="M265.25 223.6q-7.05-1.9-13.4.2-6.7 2.2-10.7 8.2-4.35 6.7-4.5 16.9-.05 3.85-.05 10.55-.15 5.55-1.15 9.4-2.6 9.75-14.3 20-3.3 3.95-.3 6.1 2.95 2.15 6.55-.55 6.4-4.5 10.75-10.35 4.6-6.3 9.65-17.8-1.75 10.15-9.1 19.5-6.2 7.95-21 20.65-1.45 1.15-1.55 2.8-.1 1.55.95 2.75 2.65 2.95 6.65-.05 8.05-5.05 14.45-11.35 8.5-8.45 15.5-20.4-6.75 14.65-15.1 23.45-2.95 3.1-7.3 6.7-2.45 2-7.35 6.05-3.9 3.65-1.15 6.6 2.7 2.85 6.55.45 9.25-6.05 15.9-13.55 8.95-10.1 19.45-28.8-4.3 11.05-10.7 20.8-3.55 5.35-9.6 13.7-2.25 3.5 1.35 5 3.65 1.5 6.3-2.05 7.3-9.1 12.9-18.65 4.5-7.7 11.05-21.3-2.95 9.55-6.9 17.4-2.25 4.5-6.7 12.1-2.55 3.75 1 5.4 3.5 1.65 6.05-1.85 4.3-6.15 10.75-20.1 6.2-13.25 12.1-28.65 2.4-6.35-3.1-16.9-4.6-8.85-11.25-15.2-5.55-5.3-12.7-7.15z" id="Y"/><path fill="url(#b)" d="M357.7 232q-3.95-6-10.65-8.2-6.35-2.1-13.4-.2-7.15 1.85-12.7 7.15-6.65 6.35-11.25 15.2-5.5 10.55-3.1 16.9 5.85 15.25 12.1 28.65 6.45 13.9 10.75 20.1 2.6 3.5 6.1 1.85 3.45-1.65.95-5.4-4.45-7.6-6.75-12.1-3.95-7.8-6.85-17.4 6.5 13.55 11.05 21.3 5.55 9.55 12.9 18.65 2.65 3.5 6.3 2.05 3.6-1.5 1.35-5-6.1-8.35-9.6-13.7-6.45-9.75-10.7-20.8 10.55 18.7 19.5 28.8 6.6 7.5 15.8 13.55 3.85 2.4 6.55-.45 2.8-2.95-1.1-6.6-4.9-4.05-7.35-6.05-4.3-3.6-7.3-6.7-8.35-8.8-15.1-23.45 6.95 11.95 15.5 20.4 6.4 6.3 14.45 11.35 4.05 3 6.65.05 1.05-1.2.95-2.75-.1-1.65-1.55-2.8-14.8-12.65-21.05-20.65-7.3-9.35-9.05-19.5 5.1 11.5 9.7 17.8 4.25 5.85 10.6 10.35 3.65 2.7 6.65.55 3-2.15-.3-6.1-11.7-10.25-14.35-20-1.05-3.9-1.15-9.4 0-6.7-.05-10.55-.1-10.2-4.5-16.9z" id="Z"/><path fill="url(#c)" d="M254.6 226.45q-6.7 2.2-10.65 8.25-4.35 6.65-4.5 16.85-.05 3.8-.05 10.4-.1 5.45-1.05 9.2 2.75-6.6 2.9-14.8.15-10.2 4.55-16.9 3.95-6.05 10.6-8.2 6.35-2.1 13.4-.2 7.1 1.85 12.7 7.2 3.3 3 6.6 7.6 3.55 4.9 5.8 9.8-1.7-5.75-6.1-12.4-3.85-5.85-8.05-9.85-5.6-5.3-12.75-7.15-7.05-1.85-13.4.2z" id="aa"/><path fill="url(#d)" d="M354.95 234.7q-4-6.05-10.7-8.25-6.35-2.05-13.4-.2-7.15 1.85-12.7 7.15-4.2 4-8.1 9.85-4.35 6.65-6 12.4 2.2-4.85 5.75-9.8 3.3-4.55 6.55-7.6 5.55-5.3 12.7-7.2 7.05-1.9 13.4.2 6.7 2.15 10.7 8.2 4.35 6.7 4.5 16.9.15 8.4 2.9 14.8-.95-3.8-1.05-9.2 0-6.6-.05-10.4-.15-10.2-4.5-16.85z" id="ab"/><path fill="url(#e)" d="M279.35 233.05l-10.65 14.1q1.5 3.5 4.45 6.35.85.9.55 2.2-.3 1.4-2.2.1-2.45-1.65-4.55-.85-1.5.55-2.6 2.3-2.15 3.2.8 6.85 3.15 3.95 9 2.2 6.95-2 14.85-7.5 9.1-6.4 8.2-10.85l-17.85-14.9z" id="ac"/><path fill="url(#f)" d="M324.7 266.3q5.9 1.75 9.05-2.2 2.95-3.65.8-6.85-1.05-1.75-2.6-2.3-2.1-.8-4.6.85-1.85 1.3-2.15-.1-.3-1.35.55-2.2 2.75-2.65 4.5-6.35l-10.65-14.1-17.9 14.9q-.95 4.45 8.15 10.85 7.9 5.5 14.85 7.5z" id="ad"/><path fill="url(#g)" d="M332.9 263.95q-3.1 2.45-7.4 1.2-4.2-1.15-5.65-6.15-1.1-3.8-.55-9.2-1 5.4 0 9.6 1.25 5.35 5.55 6.55 2.65.8 4.9.15 1.9-.6 3.15-2.15z" id="ae"/><path fill="url(#h)" d="M332.9 260.5q-2.65 2.6-6.4 1.65-3.65-.9-4.9-5.8-.95-3.7-.5-9.1-.85 5.4 0 9.55 1.1 5.2 4.8 6.2 2.35.6 4.25-.2 1.7-.65 2.75-2.3z" id="af"/><path fill="url(#i)" d="M273.45 265.15q-4.35 1.25-7.45-1.2 1.2 1.55 3.15 2.15 2.2.65 4.95-.15 4.25-1.2 5.5-6.55 1-4.25 0-9.6.55 5.4-.55 9.2-1.45 5-5.6 6.15z" id="ag"/><path fill="url(#j)" d="M272.4 262.15q-3.75.9-6.4-1.65 1.05 1.65 2.75 2.3 1.9.8 4.25.2 3.7-1 4.8-6.2.85-4.1 0-9.55.45 5.45-.5 9.1-1.3 4.95-4.9 5.8z" id="ah"/><path fill="url(#k)" d="M328.45 272.55q.65 2.55 1.55 2.55.95 0 1.55-2.55.65-2.5.65-6.15 0-3.65-.65-6.2-.6-2.6-1.55-2.6-.9 0-1.55 2.6-.65 2.55-.65 6.2 0 3.6.65 6.15z" id="ai"/><path fill="url(#l)" d="M267.15 272.55q.65 2.55 1.6 2.55.9 0 1.55-2.55.6-2.55.6-6.15 0-3.65-.6-6.2-.65-2.6-1.55-2.6-.95 0-1.6 2.6-.65 2.55-.65 6.2 0 3.6.65 6.15z" id="aj"/><path fill="#FFF3E3" d="M266.1 262.35q-1.35 0-2.3-.7-1-.8-2.1-2.7-.15-.3-.55-.4-.4-.1-.75.05-.75.5-.35 1.35l1 1.7-1.75-.15-.55 8.85q3.3.55 6.35-1.15 1.5-.7 3.05-.45 8.35 1.45 13.25-.3l-1.85-7.7-3.1-1.35q-1.7 1.5-4.85 2.3-2.75.7-5.5.65z" id="ak"/><path fill="#FFF3E3" d="M256.5 261.25q-.4-.05-.7.25-.3.25-.35.65 0 .4.25.7.25.3.65.3l3.05.2.15-1.85-3.05-.25z" id="al"/><path fill="#FFF3E3" d="M255.3 263.5q-.4-.05-.7.2-.35.3-.35.65-.05.45.25.75.25.25.65.25 2.85.3 4.1.3l.15-1.85-4.1-.3z" id="am"/><path fill="#FFF3E3" d="M255.2 265.9q-.4-.05-.7.2-.3.25-.3.65-.05.4.2.7.25.3.65.3l4 .3.1-1.95q-3-.15-3.95-.2z" id="an"/><path fill="#FFF3E3" d="M256.15 268.25q-.35-.05-.65.2-.3.25-.35.65 0 .4.25.7.25.35.6.35l2.8.2.15-1.9-2.8-.2z" id="ao"/><path fill="#FFE8CF" d="M338.5 258.6q-.85-.35-1.35.35-1.05 1.9-2.05 2.7-.95.7-2.25.7-2.8.05-5.55-.65-3.15-.8-4.9-2.3l-3.1 1.35-1.8 7.7q4.85 1.8 13.25.3 1.6-.25 3 .45 3.05 1.7 6.4 1.15l-.65-8.85-1.7.15 1-1.7q.5-.8-.3-1.35z" id="ap"/><path fill="#FFE8CF" d="M343.1 261.5q-.3-.3-.7-.25l-3.1.25.15 1.85 3.1-.2q.4 0 .65-.3.3-.35.2-.7 0-.35-.3-.65z" id="aq"/><path fill="#FFE8CF" d="M344.35 263.7q-.3-.25-.7-.2l-4.15.3.15 1.85q1.4 0 4.1-.3.4 0 .65-.25.3-.3.25-.75 0-.35-.3-.65z" id="ar"/><path fill="#FFE8CF" d="M344.4 266.1q-.35-.25-.7-.2-3 .1-3.95.2 0 1 .15 1.95l3.95-.3q.4 0 .65-.3t.2-.7q0-.4-.3-.65z" id="as"/><path fill="#FFE8CF" d="M343.4 268.45q-.3-.25-.7-.2l-2.8.2.15 1.9 2.8-.2q.35 0 .65-.35.25-.3.2-.7 0-.4-.3-.65z" id="at"/><path fill="url(#m)" d="M327 272.3q-.9-.05-1.1-1.2-.2-.95-.2-4.7 0-3.4 1.1-5.8.95-2.2 2-2.2l-.1-.15-1.85 1.15q-4.2.8-7.4-1.2-4.55-2.85-9.6-3.7-4.35-.6-5.25-.65l-4.9.95h-.65l-4.8-.95q-6.9.7-15.35 3.05-5.35 1.5-10.3.6h-.05v.1h.15q.9 0 1.55 2.6.65 2.55.65 6.2 0 3.55-.65 6.15-.65 2.55-1.55 2.55 5.15.3 9.7-1.5 3.9-1.55 7-4.5.45 3.6-1.7 7.95-.05.1-5.15 9-8.35 14.4-9.75 31.75 4.15 4.6 13.55 7.15 7.7 2.05 17 2.35 8.95-.3 15.8-2.35 8.1-2.45 12.35-7.15-1.35-17.2-9.3-33.15-4.65-9.25-4.9-9.95-2-4.8-1.55-8.4 3.4 3.1 6.3 4.45 3.95 1.8 8.95 1.55z" id="au"/><path fill="url(#n)" d="M330.15 275.1q-.9 0-1.55-2.55-.65-2.6-.65-6.15 0-3.7.6-6.2.55-2.6 1.45-2.6h.15v-.1q-4.95.95-9.2-.05-5.95-1.8-11.6-2.95-1.7 4.85-2.15 8.65v6.45q.5 4.15 2.7 9.7 1.25 3.25 4.4 10.65 6.2 15.6 7.1 33.4 5.8-2.4 8.6-5.55-1.4-17.35-9.7-31.75-5.1-8.9-5.2-9-2.1-4.35-1.65-7.95 6.9 6.55 16.7 6z" id="av"/><path fill="#FDD7BC" d="M296.1 257q1.65.9 4.05.9 2.45 0 4.1-.9 1.7-.9 1.7-2.2 0-1.3-1.7-2.2-1.65-.9-4.1-.9-2.4 0-4.05.9-1.7.9-1.7 2.2 0 1.3 1.7 2.2z" id="aw"/><path fill="#FFE0BA" d="M294.65 259.65q1.95 1.9 4.6 1.9 2.75 0 4.7-1.9 1.95-1.95 1.95-4.65t-1.95-4.6q-1.95-1.95-4.7-1.95-2.65 0-4.6 1.95-1.95 1.9-1.95 4.6 0 2.7 1.95 4.65z" id="ax"/><path fill="url(#o)" d="M275 232.7h-11.65q1.8 3.8 4.45 6.3.9.9.65 2.2-.3 1.4-2.2.1-2.5-1.65-4.6-.85-1.55.55-2.6 2.25-2.15 3.2.8 6.85 3.15 4 9.05 2.3 5.05-1.5 6.4-8 1.05-5.05-.3-11.15z" id="ay"/><path fill="url(#p)" d="M306.85 200.95l10.95.7q-5.4-1.35-10.95-.7m34.05 43.75q-.2-1.25-.65-2-2.95-4.25-7.2-1.4-1.9 1.3-2.2-.1-.25-1.3.6-2.2 2.9-2.8 4.4-6.3h-11.6q-1.35 6.05-.3 11.15 1.4 6.5 6.45 8 4.45 1.3 7.55-.9 2.65-1.85 2.95-5v-1.25z" id="az"/><path fill="url(#q)" d="M274.15 234.5q.5 5.45-.55 9.15-1.45 5-5.65 6.15-4.4 1.25-7.4-1.3 1.2 1.6 3.1 2.2 2.2.7 4.95-.1 4.25-1.25 5.55-6.55 1-4.25 0-9.55z" id="aA"/><path fill="url(#r)" d="M266.95 246.8q-3.75.9-6.4-1.75 2.4 3.75 6.95 2.6 3.65-1 4.75-6.2.9-4.1.1-9.55.4 5.4-.55 9.1-1.25 4.9-4.85 5.8z" id="aB"/><path fill="url(#s)" d="M325.95 243.65q-1.05-3.7-.6-9.15-.95 5.4.05 9.55 1.25 5.3 5.55 6.55 2.7.8 4.9.1 1.9-.6 3.15-2.2-3.1 2.55-7.4 1.3-4.15-1.15-5.65-6.15z" id="aC"/><path fill="url(#t)" d="M339 245.05q-2.6 2.7-6.4 1.75-3.65-.9-4.9-5.8-.95-3.7-.5-9.1-.85 5.4 0 9.55 1.1 5.2 4.85 6.2 2.35.6 4.25-.2 1.65-.75 2.7-2.4z" id="aD"/><path fill="#FFE8CF" d="M325.2 235.3q0-2.8-.85-4.8-.7-3.7-.2-7.65.6-4.85 2.85-8.15l-27.6-24.3-27.5 24.3q2.35 3.5 2.9 8.6.45 4.15-.35 7.85-.8 1.85-.8 4.15 0 9.55 8.05 14.95 7.2 4.8 17.75 4.6 10.4-.2 17.7-5.15 8.05-5.5 8.05-14.4z" id="aE"/><path fill="#FFF8EF" d="M275.85 215.55q-.8 0-1.1-1.15-.3-1.45-1.1-1.9l-2.45 2.2q2.25 3.3 2.85 8.15.5 3.95-.2 7.65-.95 2.25-.95 4.8 0 8.5 7.35 13.9 6.55 4.85 16.45 5.6-14.8-2.8-18.75-14.2-1-2.95-1.35-8 0-.15.4-7.6.3-4.85-1.15-9.45z" id="aF"/><path fill="url(#u)" d="M299.4 236.2q-1.55 0-2.75 1-1.2.95-1.6 2.45h8.85q-.4-1.5-1.6-2.45-1.25-1-2.9-1z" id="aG"/><path fill="#FFE8CF" d="M289.65 235.95q-1.8-1.8-4.35-1.8t-4.35 1.8q-1.85 1.75-1.85 4.3t1.85 4.4q1.8 1.8 4.35 1.8t4.35-1.8q1.8-1.85 1.8-4.4 0-2.55-1.8-4.3z" id="aH"/><path fill="#FFE8CE" d="M289.6 235.95q-1.8-1.75-4.3-1.75t-4.3 1.75q-1.8 1.8-1.8 4.3t1.8 4.3q1.8 1.8 4.3 1.8t4.3-1.8q1.75-1.8 1.75-4.3t-1.75-4.3z" id="aI"/><path fill="#FFE7CD" d="M289.5 236.05q-1.7-1.75-4.2-1.75-2.45 0-4.2 1.75-1.8 1.75-1.8 4.2t1.8 4.2q1.75 1.8 4.2 1.8t4.2-1.8q1.75-1.75 1.75-4.2t-1.75-4.2z" id="aJ"/><path fill="#FFE6CD" d="M289.45 236.15q-1.7-1.75-4.15-1.75-2.4 0-4.15 1.75-1.75 1.7-1.75 4.1 0 2.4 1.75 4.15 1.75 1.75 4.15 1.75 2.45 0 4.15-1.75 1.7-1.75 1.7-4.15 0-2.4-1.7-4.1z" id="aK"/><path fill="#FFE5CC" d="M289.35 236.2q-1.7-1.7-4.05-1.7-2.35 0-4.1 1.7-1.7 1.7-1.7 4.05 0 2.35 1.7 4.1 1.75 1.7 4.1 1.7 2.35 0 4.05-1.7 1.7-1.75 1.7-4.1 0-2.35-1.7-4.05z" id="aL"/><path fill="#FFE5CC" d="M289.3 236.25q-1.65-1.65-4-1.65t-4 1.65q-1.7 1.7-1.7 4 0 2.35 1.7 4 1.7 1.7 4 1.7t4-1.7q1.65-1.65 1.65-4 0-2.3-1.65-4z" id="aM"/><path fill="#FEE4CB" d="M289.2 236.35q-1.6-1.65-3.9-1.65t-3.95 1.65q-1.65 1.6-1.65 3.9t1.65 3.95q1.65 1.65 3.95 1.65 2.3 0 3.9-1.65 1.65-1.65 1.65-3.95 0-2.3-1.65-3.9z" id="aN"/><path fill="#FEE3CA" d="M289.15 236.4q-1.6-1.6-3.85-1.6t-3.85 1.6q-1.65 1.6-1.65 3.85t1.65 3.9q1.6 1.6 3.85 1.6t3.85-1.6q1.6-1.65 1.6-3.9t-1.6-3.85z" id="aO"/><path fill="#FEE2CA" d="M289.1 236.45q-1.6-1.55-3.8-1.55-2.2 0-3.8 1.55-1.6 1.6-1.6 3.8 0 2.2 1.6 3.8 1.6 1.6 3.8 1.6 2.2 0 3.8-1.6 1.55-1.6 1.55-3.8 0-2.2-1.55-3.8z" id="aP"/><path fill="#FEE2C9" d="M289 236.55q-1.5-1.55-3.7-1.55t-3.75 1.55q-1.55 1.55-1.55 3.7 0 2.2 1.55 3.75 1.6 1.55 3.75 1.55T289 244q1.55-1.55 1.55-3.75 0-2.15-1.55-3.7z" id="aQ"/><path fill="#FEE1C9" d="M288.95 236.6q-1.5-1.5-3.65-1.5t-3.65 1.5q-1.55 1.5-1.55 3.65t1.55 3.65q1.5 1.55 3.65 1.55t3.65-1.55q1.5-1.5 1.5-3.65t-1.5-3.65z" id="aR"/><path fill="#FEE0C8" d="M288.9 236.7q-1.5-1.5-3.6-1.5t-3.6 1.5q-1.5 1.45-1.5 3.55 0 2.1 1.5 3.6t3.6 1.5q2.1 0 3.6-1.5 1.45-1.5 1.45-3.6t-1.45-3.55z" id="aS"/><path fill="#FEE0C8" d="M288.8 236.75q-1.45-1.45-3.5-1.45t-3.55 1.45q-1.45 1.45-1.45 3.5t1.45 3.55q1.5 1.45 3.55 1.45t3.5-1.45q1.45-1.5 1.45-3.55t-1.45-3.5z" id="aT"/><path fill="#FEDFC7" d="M288.7 236.85q-1.4-1.45-3.4-1.45t-3.45 1.45q-1.45 1.4-1.45 3.4 0 2.05 1.45 3.45 1.45 1.45 3.45 1.45t3.4-1.45q1.45-1.45 1.45-3.45t-1.45-3.4z" id="aU"/><path fill="#FEDEC6" d="M288.65 236.9q-1.4-1.4-3.35-1.4-2 0-3.4 1.4t-1.4 3.35q0 2 1.4 3.4t3.4 1.4q1.95 0 3.35-1.4 1.4-1.4 1.4-3.4 0-1.95-1.4-3.35z" id="aV"/><path fill="#FEDDC6" d="M288.6 236.95q-1.4-1.35-3.3-1.35t-3.3 1.35q-1.4 1.4-1.4 3.3t1.4 3.3q1.4 1.4 3.3 1.4t3.3-1.4q1.35-1.4 1.35-3.3t-1.35-3.3z" id="aW"/><path fill="#FEDDC5" d="M288.5 237.05q-1.3-1.35-3.2-1.35-1.9 0-3.25 1.35t-1.35 3.2q0 1.9 1.35 3.25 1.4 1.35 3.25 1.35t3.2-1.35q1.35-1.35 1.35-3.25 0-1.85-1.35-3.2z" id="aX"/><path fill="#FEDCC5" d="M288.45 237.1q-1.3-1.3-3.15-1.3-1.85 0-3.15 1.3-1.35 1.3-1.35 3.15 0 1.85 1.35 3.15 1.3 1.35 3.15 1.35 1.85 0 3.15-1.35 1.3-1.3 1.3-3.15 0-1.85-1.3-3.15z" id="aY"/><path fill="#FEDBC4" d="M288.4 237.2q-1.3-1.3-3.1-1.3t-3.1 1.3q-1.3 1.25-1.3 3.05 0 1.8 1.3 3.1t3.1 1.3q1.8 0 3.1-1.3 1.25-1.3 1.25-3.1t-1.25-3.05z" id="aZ"/><path fill="#FDDAC4" d="M288.3 237.25q-1.25-1.25-3-1.25t-3.05 1.25q-1.25 1.25-1.25 3t1.25 3.05q1.3 1.25 3.05 1.25 1.75 0 3-1.25 1.25-1.3 1.25-3.05 0-1.75-1.25-3z" id="ba"/><path fill="#FDDAC3" d="M288.25 237.3q-1.2-1.2-2.95-1.2-1.75 0-2.95 1.2-1.25 1.25-1.25 2.95 0 1.75 1.25 2.95 1.25 1.25 2.95 1.25 1.7 0 2.95-1.25 1.2-1.2 1.2-2.95 0-1.7-1.2-2.95z" id="bb"/><path fill="#FDD9C3" d="M288.15 237.4q-1.15-1.2-2.85-1.2-1.7 0-2.9 1.2-1.2 1.15-1.2 2.85 0 1.7 1.2 2.9t2.9 1.2q1.7 0 2.85-1.2 1.2-1.2 1.2-2.9t-1.2-2.85z" id="bc"/><path fill="#FDD8C2" d="M288.1 237.45q-1.15-1.15-2.8-1.15t-2.8 1.15q-1.2 1.15-1.2 2.8t1.2 2.85q1.15 1.15 2.8 1.15t2.8-1.15q1.15-1.2 1.15-2.85 0-1.65-1.15-2.8z" id="bd"/><path fill="#FDD8C1" d="M288 237.55q-1.1-1.15-2.7-1.15t-2.75 1.15q-1.15 1.1-1.15 2.7t1.15 2.75q1.15 1.15 2.75 1.15T288 243q1.15-1.15 1.15-2.75 0-1.55-1.15-2.7z" id="be"/><path fill="#FDD7C1" d="M287.95 237.6q-1.1-1.1-2.65-1.1-1.55 0-2.7 1.1-1.1 1.1-1.1 2.65 0 1.6 1.1 2.7 1.15 1.1 2.7 1.1 1.55 0 2.65-1.1 1.1-1.15 1.1-2.7 0-1.55-1.1-2.65z" id="bf"/><path fill="#FDD6C0" d="M287.9 237.7q-1.1-1.1-2.6-1.1-1.55 0-2.6 1.1-1.1 1.05-1.1 2.55 0 1.55 1.1 2.6 1.05 1.1 2.6 1.1 1.5 0 2.6-1.1 1.1-1.05 1.1-2.6 0-1.5-1.1-2.55z" id="bg"/><path fill="#FDD5C0" d="M287.85 237.7q-1.1-1.05-2.55-1.05-1.5 0-2.55 1.05-1.05 1.1-1.05 2.55 0 1.5 1.05 2.55 1.05 1.05 2.55 1.05 1.45 0 2.55-1.05 1.05-1.05 1.05-2.55 0-1.45-1.05-2.55z" id="bh"/><path fill="#FDD5BF" d="M287.75 237.8q-1-1.05-2.45-1.05-1.45 0-2.5 1.05-1 1-1 2.45 0 1.45 1 2.5 1.05 1 2.5 1t2.45-1q1.05-1.05 1.05-2.5 0-1.4-1.05-2.45z" id="bi"/><path fill="#FDD4BF" d="M287.7 237.85q-1-1-2.4-1t-2.4 1q-1 1-1 2.4 0 1.45 1 2.4 1 1 2.4 1t2.4-1q1-1 1-2.4t-1-2.4z" id="bj"/><path fill="#FDD3BE" d="M287.65 237.95q-1-1-2.35-1t-2.3 1q-1 .95-1 2.3 0 1.35 1 2.35.95.95 2.3.95 1.35 0 2.35-.95.95-1 .95-2.35t-.95-2.3z" id="bk"/><path fill="#FDD2BE" d="M287.55 238q-.95-.95-2.25-.95t-2.25.95q-.95.95-.95 2.25t.95 2.25q.95.95 2.25.95t2.25-.95q.95-.95.95-2.25t-.95-2.25z" id="bl"/><path fill="#FCD2BD" d="M287.5 238.05q-.9-.9-2.2-.9-1.25 0-2.2.9-.9.95-.9 2.2 0 1.3.9 2.2.95.9 2.2.9 1.3 0 2.2-.9.9-.9.9-2.2 0-1.25-.9-2.2z" id="bm"/><path fill="#FCD1BC" d="M287.4 238.15q-.85-.9-2.1-.9t-2.1.9q-.9.9-.9 2.1 0 1.25.9 2.1.85.9 2.1.9t2.1-.9q.9-.85.9-2.1 0-1.2-.9-2.1z" id="bn"/><path fill="#FCD0BC" d="M287.35 238.2q-.9-.85-2.05-.85-1.2 0-2.05.85-.85.9-.85 2.05 0 1.2.85 2.05.85.85 2.05.85 1.15 0 2.05-.85.85-.85.85-2.05 0-1.15-.85-2.05z" id="bo"/><path fill="#FCCFBB" d="M287.25 238.3q-.8-.85-1.95-.85t-2 .85q-.8.8-.8 1.95t.8 2q.85.8 2 .8t1.95-.8q.85-.85.85-2 0-1.1-.85-1.95z" id="bp"/><path fill="#FCCFBB" d="M287.2 238.35q-.8-.8-1.9-.8-1.1 0-1.9.8-.8.8-.8 1.9 0 1.15.8 1.9.8.8 1.9.8 1.1 0 1.9-.8.8-.8.8-1.9 0-1.1-.8-1.9z" id="bq"/><path fill="#FCCEBA" d="M287.15 238.45q-.8-.8-1.85-.8-1.1 0-1.85.8-.75.75-.75 1.8 0 1.1.75 1.85t1.85.75q1.05 0 1.85-.75.75-.75.75-1.85 0-1.05-.75-1.8z" id="br"/><path fill="#FCCDBA" d="M283.55 242.05q.7.7 1.75.7 1 0 1.75-.7.75-.75.75-1.8 0-1-.75-1.75t-1.75-.75q-1.05 0-1.75.75-.75.75-.75 1.75 0 1.05.75 1.8z" id="bs"/><path fill="#FCCDB9" d="M283.6 241.95q.7.7 1.7.7t1.7-.7q.7-.7.7-1.7 0-.95-.7-1.7-.7-.7-1.7-.7t-1.7.7q-.7.7-.7 1.7t.7 1.7z" id="bt"/><path fill="#FCCCB9" d="M283.65 241.9q.7.65 1.65.65t1.6-.65q.7-.7.7-1.65t-.7-1.6q-.65-.7-1.6-.7-.95 0-1.65.7-.65.65-.65 1.6 0 1 .65 1.65z" id="bu"/><path fill="#FCCBB8" d="M283.75 241.8q.6.65 1.55.65.9 0 1.55-.65.65-.6.65-1.55 0-.9-.65-1.55t-1.55-.65q-.95 0-1.55.65-.65.65-.65 1.55 0 .95.65 1.55z" id="bv"/><path fill="#FBCAB8" d="M283.8 241.75q.6.6 1.5.6.85 0 1.5-.6.6-.6.6-1.5 0-.85-.6-1.5-.65-.6-1.5-.6-.9 0-1.5.6-.6.65-.6 1.5 0 .9.6 1.5z" id="bw"/><path fill="#FBCAB7" d="M283.85 241.7q.6.55 1.45.55.8 0 1.4-.55.6-.6.6-1.45 0-.8-.6-1.4-.6-.6-1.4-.6-.85 0-1.45.6-.55.6-.55 1.4 0 .85.55 1.45z" id="bx"/><path fill="#FBC9B6" d="M283.95 241.6q.55.55 1.35.55.75 0 1.35-.55.55-.55.55-1.35 0-.75-.55-1.3-.6-.6-1.35-.6-.8 0-1.35.6-.55.55-.55 1.3 0 .8.55 1.35z" id="by"/><path fill="#FBC8B6" d="M284.05 241.55q.5.5 1.25.5.7 0 1.25-.5.55-.55.55-1.3 0-.7-.55-1.25t-1.25-.55q-.75 0-1.25.55-.55.55-.55 1.25 0 .75.55 1.3z" id="bz"/><path fill="#FBC7B5" d="M284.1 241.45q.5.5 1.2.5t1.2-.5q.5-.5.5-1.2 0-.65-.5-1.2-.5-.5-1.2-.5t-1.2.5q-.5.5-.5 1.2t.5 1.2z" id="bA"/><path fill="#FBC7B5" d="M284.15 241.4q.5.45 1.15.45.65 0 1.1-.45.5-.5.5-1.15 0-.65-.5-1.1-.45-.5-1.1-.5-.65 0-1.15.5-.45.45-.45 1.1 0 .7.45 1.15z" id="bB"/><path fill="#FBC6B4" d="M284.25 241.3q.4.45 1.05.45.6 0 1.05-.45.45-.4.45-1.05 0-.6-.45-1.05-.45-.45-1.05-.45-.65 0-1.05.45-.45.45-.45 1.05 0 .65.45 1.05z" id="bC"/><path fill="#FFE8CF" d="M309.3 244.65q1.75 1.8 4.3 1.8t4.4-1.8q1.8-1.85 1.8-4.4 0-2.55-1.8-4.3-1.85-1.8-4.4-1.8-2.55 0-4.3 1.8-1.8 1.75-1.8 4.3t1.8 4.4z" id="bD"/><path fill="#FFE8CE" d="M309.35 244.55q1.75 1.8 4.25 1.8t4.3-1.8q1.8-1.8 1.8-4.3t-1.8-4.3q-1.8-1.75-4.3-1.75t-4.25 1.75q-1.75 1.8-1.75 4.3t1.75 4.3z" id="bE"/><path fill="#FFE7CD" d="M309.45 244.45q1.7 1.8 4.15 1.8t4.25-1.8q1.75-1.75 1.75-4.2t-1.75-4.2q-1.75-1.75-4.25-1.75-2.45 0-4.15 1.75-1.75 1.75-1.75 4.2t1.75 4.2z" id="bF"/><path fill="#FFE6CD" d="M309.5 244.4q1.7 1.75 4.1 1.75 2.45 0 4.15-1.75 1.75-1.75 1.75-4.15 0-2.4-1.75-4.1-1.7-1.75-4.15-1.75-2.4 0-4.1 1.75-1.7 1.7-1.7 4.1 0 2.4 1.7 4.15z" id="bG"/><path fill="#FFE5CC" d="M309.55 244.35q1.7 1.7 4.05 1.7 2.35 0 4.1-1.7 1.7-1.75 1.7-4.1 0-2.35-1.7-4.05-1.75-1.7-4.1-1.7-2.35 0-4.05 1.7-1.65 1.7-1.65 4.05 0 2.35 1.65 4.1z" id="bH"/><path fill="#FFE5CC" d="M309.6 244.25q1.7 1.7 4 1.7 2.35 0 4-1.7 1.7-1.65 1.7-4 0-2.3-1.7-4-1.65-1.65-4-1.65-2.3 0-4 1.65-1.65 1.7-1.65 4 0 2.35 1.65 4z" id="bI"/><path fill="#FEE4CB" d="M309.7 244.2q1.6 1.65 3.9 1.65t3.95-1.65q1.65-1.65 1.65-3.95 0-2.3-1.65-3.9-1.65-1.65-3.95-1.65-2.3 0-3.9 1.65-1.65 1.6-1.65 3.9t1.65 3.95z" id="bJ"/><path fill="#FEE3CA" d="M309.75 244.15q1.6 1.6 3.85 1.6t3.9-1.6q1.6-1.65 1.6-3.9t-1.6-3.85q-1.65-1.6-3.9-1.6t-3.85 1.6q-1.6 1.6-1.6 3.85t1.6 3.9z" id="bK"/><path fill="#FEE2CA" d="M309.8 244.05q1.6 1.6 3.8 1.6 2.2 0 3.8-1.6 1.6-1.6 1.6-3.8 0-2.2-1.6-3.8-1.6-1.55-3.8-1.55-2.2 0-3.8 1.55-1.55 1.6-1.55 3.8 0 2.2 1.55 3.8z" id="bL"/><path fill="#FEE2C9" d="M309.9 244q1.55 1.55 3.7 1.55 2.2 0 3.75-1.55 1.55-1.55 1.55-3.75 0-2.15-1.55-3.7-1.55-1.55-3.75-1.55-2.15 0-3.7 1.55-1.55 1.55-1.55 3.7 0 2.2 1.55 3.75z" id="bM"/><path fill="#FEE1C9" d="M309.95 243.9q1.5 1.55 3.65 1.55t3.65-1.55q1.55-1.5 1.55-3.65t-1.55-3.65q-1.5-1.5-3.65-1.5t-3.65 1.5q-1.5 1.5-1.5 3.65t1.5 3.65z" id="bN"/><path fill="#FEE0C8" d="M310.05 243.85q1.45 1.5 3.55 1.5 2.1 0 3.6-1.5t1.5-3.6q0-2.1-1.5-3.55-1.5-1.5-3.6-1.5t-3.55 1.5q-1.5 1.45-1.5 3.55 0 2.1 1.5 3.6z" id="bO"/><path fill="#FEE0C8" d="M310.1 243.8q1.45 1.45 3.5 1.45t3.55-1.45q1.45-1.5 1.45-3.55t-1.45-3.5q-1.5-1.45-3.55-1.45t-3.5 1.45q-1.45 1.45-1.45 3.5t1.45 3.55z" id="bP"/><path fill="#FEDFC7" d="M310.15 243.7q1.45 1.45 3.45 1.45 2.05 0 3.45-1.45 1.45-1.4 1.45-3.45 0-2-1.45-3.4-1.45-1.45-3.45-1.45t-3.45 1.45q-1.4 1.4-1.4 3.4 0 2.05 1.4 3.45z" id="bQ"/><path fill="#FEDEC6" d="M310.25 243.65q1.35 1.4 3.35 1.4t3.4-1.4q1.4-1.4 1.4-3.4 0-1.95-1.4-3.35-1.4-1.4-3.4-1.4t-3.35 1.4q-1.4 1.4-1.4 3.35 0 2 1.4 3.4z" id="bR"/><path fill="#FEDDC6" d="M310.3 243.55q1.35 1.4 3.3 1.4 1.95 0 3.35-1.4 1.35-1.4 1.35-3.3t-1.35-3.3q-1.4-1.35-3.35-1.35-1.95 0-3.3 1.35-1.35 1.4-1.35 3.3 0 1.95 1.35 3.3z" id="bS"/><path fill="#FEDDC5" d="M310.4 243.5q1.35 1.35 3.2 1.35 1.9 0 3.25-1.35t1.35-3.25q0-1.9-1.35-3.2-1.35-1.35-3.25-1.35-1.85 0-3.2 1.35t-1.35 3.2q0 1.9 1.35 3.25z" id="bT"/><path fill="#FEDCC5" d="M310.45 243.4q1.3 1.35 3.15 1.35 1.85 0 3.2-1.35 1.3-1.3 1.3-3.15 0-1.85-1.3-3.15-1.35-1.3-3.2-1.3t-3.15 1.3q-1.3 1.3-1.3 3.15 0 1.85 1.3 3.15z" id="bU"/><path fill="#FEDBC4" d="M310.55 243.35q1.25 1.3 3.05 1.3 1.8 0 3.1-1.3t1.3-3.1q0-1.8-1.3-3.05-1.3-1.3-3.1-1.3t-3.05 1.3q-1.3 1.25-1.3 3.05 0 1.8 1.3 3.1z" id="bV"/><path fill="#FDDAC4" d="M310.6 243.3q1.25 1.25 3 1.25t3.05-1.25q1.25-1.3 1.25-3.05 0-1.75-1.25-3-1.3-1.25-3.05-1.25-1.75 0-3 1.25t-1.25 3q0 1.75 1.25 3.05z" id="bW"/><path fill="#FDDAC3" d="M310.65 243.2q1.25 1.25 2.95 1.25 1.75 0 2.95-1.25 1.25-1.2 1.25-2.95 0-1.7-1.25-2.95-1.2-1.2-2.95-1.2-1.7 0-2.95 1.2-1.2 1.25-1.2 2.95 0 1.75 1.2 2.95z" id="bX"/><path fill="#FDD9C3" d="M310.75 243.15q1.15 1.2 2.85 1.2 1.7 0 2.9-1.2t1.2-2.9q0-1.7-1.2-2.85-1.2-1.2-2.9-1.2t-2.85 1.2q-1.2 1.15-1.2 2.85 0 1.7 1.2 2.9z" id="bY"/><path fill="#FDD8C2" d="M310.8 243.1q1.15 1.15 2.8 1.15t2.85-1.15q1.15-1.2 1.15-2.85 0-1.65-1.15-2.8-1.2-1.15-2.85-1.15-1.65 0-2.8 1.15t-1.15 2.8q0 1.65 1.15 2.85z" id="bZ"/><path fill="#FDD8C1" d="M310.85 243q1.15 1.15 2.75 1.15t2.75-1.15q1.15-1.15 1.15-2.75t-1.15-2.7q-1.15-1.15-2.75-1.15t-2.75 1.15q-1.1 1.1-1.1 2.7t1.1 2.75z" id="ca"/><path fill="#FDD7C1" d="M310.95 242.95q1.1 1.1 2.65 1.1 1.6 0 2.7-1.1t1.1-2.7q0-1.55-1.1-2.65-1.15-1.1-2.7-1.1-1.55 0-2.65 1.1-1.1 1.1-1.1 2.65 0 1.6 1.1 2.7z" id="cb"/><path fill="#FDD6C0" d="M311 242.85q1.05 1.1 2.6 1.1t2.6-1.1q1.1-1.05 1.1-2.6 0-1.5-1.1-2.55-1.05-1.1-2.6-1.1t-2.6 1.1q-1.05 1.05-1.05 2.55 0 1.55 1.05 2.6z" id="cc"/><path fill="#FDD5C0" d="M311.1 242.8q1 1.05 2.5 1.05t2.55-1.05q1.05-1.05 1.05-2.55 0-1.45-1.05-2.55-1.05-1.05-2.55-1.05-1.5 0-2.5 1.05-1.05 1.1-1.05 2.55 0 1.5 1.05 2.55z" id="cd"/><path fill="#FDD5BF" d="M311.15 242.75q1 1 2.45 1 1.45 0 2.5-1 1-1.05 1-2.5t-1-2.45q-1.05-1.05-2.5-1.05t-2.45 1.05q-1 1-1 2.45 0 1.45 1 2.5z" id="ce"/><path fill="#FDD4BF" d="M311.2 242.65q1 1 2.4 1 1.45 0 2.4-1 1-.95 1-2.4 0-1.4-1-2.4t-2.4-1q-1.4 0-2.4 1-.95 1-.95 2.4 0 1.45.95 2.4z" id="cf"/><path fill="#FDD3BE" d="M311.3 242.6q.95.95 2.3.95 1.4 0 2.35-.95.95-1 .95-2.35t-.95-2.3q-.95-1-2.35-1-1.35 0-2.3 1-.95.95-.95 2.3 0 1.35.95 2.35z" id="cg"/><path fill="#FDD2BE" d="M311.35 242.5q.95.95 2.25.95 1.35 0 2.3-.95.9-.95.9-2.25t-.9-2.25q-.95-.95-2.3-.95-1.3 0-2.25.95t-.95 2.25q0 1.3.95 2.25z" id="ch"/><path fill="#FCD2BD" d="M311.4 242.45q.95.9 2.2.9 1.3 0 2.2-.9.9-.9.9-2.2 0-1.25-.9-2.2-.9-.9-2.2-.9-1.25 0-2.2.9-.9.95-.9 2.2 0 1.3.9 2.2z" id="ci"/><path fill="#FCD1BC" d="M311.5 242.35q.85.9 2.1.9t2.1-.9q.9-.85.9-2.1 0-1.2-.9-2.1-.85-.9-2.1-.9t-2.1.9q-.9.9-.9 2.1 0 1.25.9 2.1z" id="cj"/><path fill="#FCD0BC" d="M311.55 242.3q.85.85 2.05.85 1.2 0 2.05-.85.85-.85.85-2.05 0-1.15-.85-2.05-.85-.85-2.05-.85-1.2 0-2.05.85-.85.9-.85 2.05 0 1.2.85 2.05z" id="ck"/><path fill="#FCCFBB" d="M311.6 242.25q.85.8 2 .8t2-.8q.8-.85.8-2t-.8-1.95q-.85-.85-2-.85t-2 .85q-.8.8-.8 1.95t.8 2z" id="cl"/><path fill="#FCCFBB" d="M311.7 242.15q.8.8 1.9.8 1.15 0 1.9-.8.8-.75.8-1.9 0-1.1-.8-1.9-.8-.8-1.9-.8-1.1 0-1.9.8-.8.8-.8 1.9 0 1.15.8 1.9z" id="cm"/><path fill="#FCCEBA" d="M311.75 242.1q.75.75 1.85.75t1.85-.75q.75-.75.75-1.85 0-1.05-.75-1.8-.75-.8-1.85-.8t-1.85.8q-.75.75-.75 1.8 0 1.1.75 1.85z" id="cn"/><path fill="#FCCDBA" d="M311.85 242.05q.7.7 1.75.7t1.8-.7q.7-.75.7-1.8 0-1-.7-1.75-.75-.75-1.8-.75t-1.75.75q-.75.75-.75 1.75 0 1.05.75 1.8z" id="co"/><path fill="#FCCDB9" d="M311.9 241.95q.7.7 1.7.7t1.7-.7q.7-.7.7-1.7t-.7-1.7q-.7-.7-1.7-.7t-1.7.7q-.7.7-.7 1.7t.7 1.7z" id="cp"/><path fill="#FCCCB9" d="M311.95 241.9q.7.65 1.65.65 1 0 1.65-.65.65-.65.65-1.65 0-.95-.65-1.6-.7-.7-1.65-.7t-1.65.7q-.65.65-.65 1.6 0 1 .65 1.65z" id="cq"/><path fill="#FCCBB8" d="M312.05 241.8q.6.65 1.55.65.95 0 1.55-.65.65-.6.65-1.55 0-.9-.65-1.55-.6-.65-1.55-.65-.95 0-1.55.65-.65.65-.65 1.55 0 .95.65 1.55z" id="cr"/><path fill="#FBCAB8" d="M312.1 241.75q.6.6 1.5.6t1.5-.6q.6-.6.6-1.5 0-.85-.6-1.5-.6-.6-1.5-.6t-1.5.6q-.6.65-.6 1.5 0 .9.6 1.5z" id="cs"/><path fill="#FBCAB7" d="M312.15 241.7q.6.55 1.45.55t1.45-.55q.55-.6.55-1.45 0-.8-.55-1.4-.6-.6-1.45-.6t-1.45.6q-.55.6-.55 1.4 0 .85.55 1.45z" id="ct"/><path fill="#FBC9B6" d="M312.25 241.6q.55.55 1.35.55t1.35-.55q.55-.55.55-1.35 0-.75-.55-1.3-.55-.6-1.35-.6t-1.35.6q-.55.55-.55 1.3 0 .8.55 1.35z" id="cu"/><path fill="#FBC8B6" d="M312.35 241.55q.5.5 1.25.5.8 0 1.3-.5.5-.55.5-1.3t-.5-1.25q-.55-.55-1.3-.55t-1.25.55q-.55.55-.55 1.25 0 .75.55 1.3z" id="cv"/><path fill="#FBC7B5" d="M312.4 241.45q.5.5 1.2.5t1.2-.5q.5-.5.5-1.2t-.5-1.2q-.5-.5-1.2-.5t-1.2.5q-.5.5-.5 1.2t.5 1.2z" id="cw"/><path fill="#FBC7B5" d="M312.45 241.4q.5.45 1.15.45.7 0 1.15-.45.45-.45.45-1.15 0-.65-.45-1.1-.5-.5-1.15-.5-.65 0-1.15.5-.45.45-.45 1.1 0 .7.45 1.15z" id="cx"/><path fill="#FBC6B4" d="M312.55 241.3q.4.45 1.05.45t1.05-.45q.45-.4.45-1.05 0-.6-.45-1.05-.4-.45-1.05-.45t-1.05.45q-.45.45-.45 1.05 0 .65.45 1.05z" id="cy"/><path fill="#FFE0BA" d="M325.2 235.3q0-2.8-.85-4.8-.7-3.7-.2-7.65.6-4.85 2.85-8.15l-2.45-2.2q-.75.45-1.1 1.9-.3 1.15-1.15 1.15-1.4 4.6-1.1 9.45.4 7.35.4 7.6-.35 5.05-1.35 8-3.95 11.4-18.75 14.2 9.9-.75 16.45-5.6 7.25-5.4 7.25-13.9z" id="cz"/><path fill="url(#v)" d="M330.4 238.8q5.85 1.7 9-2.25 2.9-3.65.85-6.9-2.95-4.25-7.2-1.35-1.9 1.25-2.1 0-.15-1.05.5-2.3 5.25-10 4.3-19-.9-8.15-6.55-14.05-5.35-5.6-13.4-7.65-8.15-2.05-16.25.3v24.5q4.5 3.65 13.1 6 7.1 1.9 12.05 1.9-1.75 6.1-.9 11.85 1.1 7.4 6.6 8.95z" id="cA"/><path fill="url(#w)" d="M299.55 189.65v2.2q5.85-2.35 15.45-.05 9.7 2.35 14.8 7.5-3.5-4.85-12.1-7.95-9.4-3.35-18.15-1.7z" id="cB"/><path fill="url(#x)" d="M299.55 192.6v1.85q5.65-1.8 14.75.8 8.85 2.5 14.3 7.2-3.05-4.35-12.5-7.75-9.85-3.5-16.55-2.1z" id="cC"/><path fill="url(#y)" d="M283.4 185.3q-8 2.05-13.35 7.65-5.65 5.9-6.55 14.05-.95 9.05 4.3 19 .7 1.2.5 2.3-.2 1.3-2.05 0-2.5-1.7-4.6-.9-1.55.55-2.6 2.25-2.15 3.2.8 6.9 3.15 3.95 9.05 2.25 5.45-1.55 6.6-8.95.85-5.8-.9-11.85 4.85 0 11.95-1.9 8.55-2.35 13-6v-24.5q-8.05-2.35-16.15-.3z" id="cD"/><path fill="url(#z)" d="M299.55 191.85v-2.2q-8.6-1.65-18 1.7-8.55 3.1-12.15 7.95 5.1-5.15 14.85-7.5 9.55-2.3 15.3.05z" id="cE"/><path fill="url(#A)" d="M299.55 194.45v-1.85q-6.55-1.4-16.35 2.1-9.45 3.4-12.5 7.75 5.4-4.7 14.25-7.2 9.05-2.6 14.6-.8z" id="cF"/><path fill="url(#B)" d="M298.85 203.4h-.1q-2.6 4.25-11.85 8-8.75 3.5-15.9 3.7 5.1.9 14.6-2.05 10.15-3.15 13.95-7.6V203q-.45 0-.7.4z" id="cG"/><path fill="url(#C)" d="M297.75 199.8q-2.6 4.25-11.9 8-8.8 3.5-15.95 3.7 5.4.95 15.4-2.3 10.65-3.45 13.85-8.2.55-.7-.1-1.35-.3-.25-.7-.2-.4.05-.6.35z" id="cH"/><path fill="url(#D)" d="M298.05 197.4q.5-.8-.05-1.35-.85-.55-1.4.15-2.6 4.25-11.9 8-8.8 3.5-15.95 3.7 5.4.95 15.4-2.3 10.7-3.5 13.9-8.2z" id="cI"/><path fill="url(#E)" d="M312.3 211.4q-9.3-3.7-11.95-8-.3-.4-.8-.4v2.45q3.95 4.45 14.05 7.6 9.5 2.95 14.6 2.05-7.1-.2-15.9-3.7z" id="cJ"/><path fill="url(#F)" d="M313.45 207.8q-9.3-3.7-11.95-8-.25-.3-.65-.35-.4-.05-.7.2-.7.55-.15 1.35 3.25 4.75 13.95 8.2 10 3.25 15.4 2.3-7.1-.2-15.9-3.7z" id="cK"/><path fill="url(#G)" d="M302.65 196.2h-.05q-.2-.3-.65-.35-.35-.05-.65.2-.75.6-.15 1.35 3.25 4.7 13.95 8.2 10 3.25 15.4 2.3-7.1-.2-15.9-3.7-9.3-3.7-11.95-8z" id="cL"/><path fill="url(#H)" d="M267.95 236.65q-4.3 1.25-7.4-1.3 1.2 1.6 3.1 2.2 2.2.7 4.95-.1 4.25-1.2 5.55-6.55 1-4.25 0-9.6.5 5.45-.55 9.2-1.45 4.95-5.65 6.15z" id="cM"/><path fill="url(#I)" d="M266.95 233.6q-3.75.95-6.4-1.7 1.1 1.65 2.7 2.35 1.9.85 4.25.25 3.65-1 4.75-6.25.9-4.1.1-9.55.4 5.45-.55 9.1-1.25 4.9-4.85 5.8z" id="cN"/><path fill="url(#J)" d="M339 235.35q-3.15 2.5-7.4 1.3-4.15-1.2-5.65-6.15-1.05-3.75-.6-9.2-.95 5.45.05 9.6 1.25 5.35 5.55 6.55 2.7.8 4.9.1 1.9-.6 3.15-2.2z" id="cO"/><path fill="url(#K)" d="M339 231.9q-2.6 2.7-6.4 1.7-3.65-.9-4.9-5.8-.95-3.65-.5-9.1-.85 5.4 0 9.55 1.1 5.25 4.85 6.25 2.3.6 4.25-.25 1.65-.7 2.7-2.35z" id="cP"/><path fill="#F7A6A9" d="M296.65 243.8q1 .55 1.35.55.4-.05.85-.15-.3 1.1.4-.15.65-.2.75.3.45-.05 1.5-.2.4-.05.85-.6.45-.5.75-.5-.05-.8-.75-1.4-.6-.55-1.35-.55-1.3.15-1.85 1.1-.65-.95-1.6-.95-.75.05-1.4.7-.7.7-.7 1.45.3-.1 1.2.4z" id="cQ"/><path fill="#F7A6A9" d="M299.25 243.85q-2.5.1-4.15-.3.25 1.65 1.45 2.7 1.25 1.1 2.85 1 1.7-.05 2.85-1.3 1.15-1.2 1.15-2.9-1.8.65-4.15.8z" id="cR"/><path fill="#F4868D" d="M293 242.4q-.3-.05-.7-.35-.4-.2-.5.15-.2.35.15.5l.75.45.9.25q2.7.85 5.6.65l1.3-.05 1.2-.25q2.8-.5 4.7-1.85.25-.25.1-.5-.25-.3-.55-.1-1.65 1.2-4.35 1.75l-2.35.3h-.05q-2.95.2-5.4-.6-.3-.05-.8-.35z" id="cS"/><path fill="#FFF" d="M298.05 244.65q-.75-.4-1.15.15-.25.6.45 1 .55.4 1-.1.3-.55-.3-1.05z" id="cT"/><path fill="#D99630" d="M286.7 221h-.4q-.2 0-1.35.25-.7.2-1.3.55-1.6.85-2.55 2.35-1 1.55-1.05 3.35 0 .4.3.65.3.3.65.3l11.6-.65q.3-.1.55-.4.25-.3.2-.6-.1-.95-.35-1.45l-.55-1.25q-.95-1.45-2.45-2.25-1.6-.9-3.3-.85m2.4 2.4q1.1.6 1.8 1.65.45.9.45.95l.1.05-9.55.6q.6-2.2 2.55-3.35l.95-.35 1.3-.2q1.25 0 2.4.65z" id="cU"/><path fill="#FFF" d="M290.65 223.4q-1.85-1.6-4.25-1.5-2.4.15-4 1.95t-1.5 4.25q.2 2.4 2 3.95 1.8 1.6 4.2 1.5 2.35-.15 3.95-1.95 1.65-1.8 1.55-4.25-.2-2.4-1.95-3.95z" id="cV"/><path fill="url(#L)" d="M290.65 223.4q-1.8-1.65-4.25-1.5-2.5.25-4.05 2-.35.85-.2 1.8.1 1.85 1.5 3.1 1.35 1.25 3.25 1.15 1.85-.1 3.1-1.5t1.15-3.25q-.15-1.05-.5-1.8z" id="cW"/><path fill="url(#M)" d="M289.7 222.7q-1.55-.95-3.3-.8-1.7.1-3.1 1.15-.9 1.05-.8 2.65.1 1.7 1.4 2.8 1.25 1.15 2.9 1.1 1.75-.1 2.85-1.4 1.15-1.3 1.05-3 0-1.4-1-2.5z" id="cX"/><path fill="url(#N)" d="M286.7 221.9h-.3l-.25.05v.8l-.2-.8-.5.1.3.85-.6-.8q-.45.15-.5.15l.65.95-.95-.8q-.4.2-.5.3l1.1.9-1.45-.7q-.15.05-.2.15-.15.1-.15.2l1.5.8-1.7-.35-.25.5 1.9.35-2.05.15-.05.5 2.1-.15-2.1.7.05.55 2.25-.75-2 1.35.2.45 2.1-1.35-1.75 1.95.35.4 1.75-2-1.2 2.45.4.3 1.25-2.55-.5 2.8q.05.05.5.15l.55-2.8.15 2.9h.2q.15-.1.3-.1l-.15-2.8.9 2.65.5-.2-.9-2.65 1.55 2.3.35-.3-1.45-2.3 1.95 1.8.3-.45-1.9-1.7 2.15 1.05.25-.5-2.15-1.05 2.2.5v-.5l-2.15-.5 2.15-.1-.15-.55-2 .15 1.8-.6-.2-.5-1.75.6 1.45-.95-.15-.2-.3-.15-1.3.85.95-1-.55-.25-.8.9.5-.95q-.35-.05-.5-.15l-.45.85.15-.85-.5-.05-.15.85-.05-.85z" id="cY"/><path fill="#373535" d="M287.6 223.65q-.5-.45-1.15-.45-.65.05-1.05.5-.45.5-.4 1.15.1.65.55 1.05.5.45 1.15.45.65-.05 1.05-.5.45-.5.35-1.15 0-.6-.5-1.05z" id="cZ"/><path fill="#FFF" d="M289.45 223.4q-.35-.35-.85-.3-.4 0-.75.4-.3.35-.3.85.1 1.05 1.2 1.05.5-.05.8-.35.35-.35.3-.85 0-.5-.4-.8z" id="da"/><path fill="#D99630" d="M312.25 221q-1.75-.05-3.3.85-1.5.8-2.45 2.25l-.65 1.25q-.25.8-.3 1.45h-.1q0 .3.25.6.3.35.65.4l11.55.65q.35 0 .65-.3.3-.3.3-.65-.05-1.8-1.05-3.35-.95-1.5-2.55-2.35l-1.3-.55q-1-.25-1.45-.25h-.25m2.15 2.3q2.15 1.25 2.5 3.35l-9.4-.6.05-.05q.25-.7.45-.95 1.45-2.3 4.25-2.3l.2.05 1 .15.95.35z" id="db"/><path fill="#FFF" d="M312.45 221.9q-2.35-.1-4.15 1.5-1.8 1.6-1.95 3.95-.1 2.45 1.5 4.25 1.6 1.8 3.95 1.95 2.45.1 4.25-1.5 1.8-1.6 1.85-3.95.2-2.45-1.4-4.25-1.6-1.8-4.05-1.95z" id="dc"/><path fill="url(#O)" d="M316.5 223.9q-1.45-1.75-4.05-2-2.35-.15-4.25 1.5-.45 1.25-.45 1.8-.05 1.85 1.15 3.25 1.25 1.4 3.1 1.5 1.85.1 3.25-1.15 1.45-1.25 1.5-3.1.15-.85-.25-1.8z" id="dd"/><path fill="url(#P)" d="M312.45 221.9q-1.75-.15-3.25.8-.95 1.05-1.05 2.5-.05 1.7 1.05 3 1.15 1.3 2.8 1.4 1.75.05 3-1.1 1.3-1.1 1.4-2.8 0-1.55-.8-2.65-1.4-1.1-3.15-1.15z" id="de"/><path fill="url(#Q)" d="M309.5 222.55l-.3.15-.15.2 1.45.95-1.7-.6q-.15.35-.3.5l1.85.6-2-.15-.15.55 2.1.1-2.15.5.05.5 2.25-.5-2.2 1.05.15.5 2.25-1.05-1.95 1.7.35.45 1.95-1.8-1.5 2.3.45.3 1.5-2.3-.85 2.65q.15.15.5.2l.85-2.65-.15 2.8q.15 0 .2.1h.3l.15-2.9.6 2.8q.45-.1.5-.15l-.6-2.8 1.3 2.55.45-.3-1.25-2.45 1.75 2 .35-.4-1.75-1.95 2.1 1.35.2-.45-2-1.35 2.15.75q.1-.15.1-.55l-2.1-.7 2.15.15-.05-.5-2.05-.15 1.9-.35-.2-.5-1.8.35 1.55-.8q-.05-.15-.15-.2-.05-.05-.2-.15l-1.45.7 1.1-.9-.5-.3-.95.8.65-.95q-.35-.1-.55-.15l-.55.8.3-.85-.5-.1-.3.8.1-.8-.3-.05h-.2l-.1.85-.15-.85-.55.05.2.85-.4-.85-.55.15.45.95-.8-.9-.5.25.95 1-1.3-.85z" id="df"/><path fill="#373535" d="M312.4 223.2q-.65 0-1.15.45-.45.4-.55 1.05 0 .65.45 1.15.45.45 1.1.5.65 0 1.1-.45.5-.4.55-1.05 0-.65-.45-1.15-.4-.45-1.05-.5z" id="dg"/><path fill="#FFF" d="M314.3 223.1q-.45-.05-.8.3-.35.3-.4.8 0 .5.35.85.3.3.75.35.5 0 .85-.3.35-.25.35-.75.1-.5-.25-.85-.35-.4-.85-.4z" id="dh"/><path fill="url(#R)" d="M335.85 210.65q.1-2.35-.3-4.6-5.4-4.25-14.9-6.75-9.8-2.6-21.25-2.6-11.15 0-20.85 2.5-9.35 2.45-14.85 6.55-.35 2.65-.3 4.6 5.5-4.4 14.9-7.05 9.9-2.85 21.1-2.85 11.45 0 21.5 2.9 9.55 2.75 14.95 7.3z" id="di"/><path fill="url(#S)" d="M299.55 189l-2.7 5.45-6.05 1 4.3 4.35-.95 6.1 5.4-2.8 5.55 2.8-.95-6.1 4.35-4.35-6.15-1-2.8-5.45z" id="dj"/><path fill="url(#T)" d="M287.6 295.45q2.35-9.2 3.1-13.55 1.25-7.5-.5-13.85.1 5.45-2.05 10.75-.65 1.65-4.95 9.8-7.75 14.75-9.2 33.15 4.95 2.6 11.75 3.95-.8-8.4-.25-15.75.45-6.5 2.1-14.5z" id="dk"/><path fill="url(#U)" d="M322.7 326.2v-6.3q-9.85 2.2-23 2.2-8.85 0-16.65-1.1-7.5-1.1-12.05-2.9-2-.8-3.25-.55-1.6.4-1.6 2.6 0 3.4 9.85 5.8t23.7 2.4q13.7 0 23-2.15z" id="dl"/><path fill="#63CDF6" d="M333.35 320.15q0-2.3-2.55-2.25-1.4.05-4.3.95-2.35.7-5.1 1.3l1 6.05q5.95-1.3 8-2.25 2.95-1.35 2.95-3.8z" id="dm"/><path fill="#E5F5FD" d="M286.05 327.65l-.6-5.25v-1.1q-6.55-.75-11.25-2.05l-.05 6.25q4.7 1.4 11.9 2.15z" id="dn"/><path fill="url(#V)" d="M297.15 270.25q.95.95 2.25.95 1.45 0 2.4-.95 1-.95 1-2.35 0-1.35-1-2.3-1-1-2.4-1-1.3 0-2.25 1-.95.95-.95 2.3 0 1.35.95 2.35z" id="do"/><path fill="url(#W)" d="M297.15 281.4q.95.95 2.25.95 1.4 0 2.4-.95 1-1 1-2.35t-1-2.3q-1-1-2.4-1-1.3 0-2.25 1-.95.95-.95 2.3 0 1.35.95 2.35z" id="dp"/></defs><use xlink:href="#X"/><use xlink:href="#Y" transform="matrix(1.6076 0 0 1.6076 -339.434 -232.062)"/><use xlink:href="#Z" transform="matrix(1.6076 0 0 1.6076 -339.434 -232.062)"/><use xlink:href="#aa" transform="matrix(1.6076 0 0 1.6076 -339.434 -232.062)"/><use xlink:href="#ab" transform="matrix(1.6076 0 0 1.6076 -339.434 -232.062)"/><use xlink:href="#ac" transform="matrix(1.6076 0 0 1.6076 -339.434 -232.062)"/><use xlink:href="#ad" transform="matrix(1.6076 0 0 1.6076 -339.434 -232.062)"/><use xlink:href="#ae" transform="matrix(1.6076 0 0 1.6076 -339.434 -232.062)"/><use xlink:href="#af" transform="matrix(1.6076 0 0 1.6076 -339.434 -232.062)"/><use xlink:href="#ag" transform="matrix(1.6076 0 0 1.6076 -339.434 -232.062)"/><use xlink:href="#ah" transform="matrix(1.6076 0 0 1.6076 -339.434 -232.062)"/><use xlink:href="#ai" transform="matrix(1.6076 0 0 1.6076 -339.434 -232.062)"/><use xlink:href="#aj" transform="matrix(1.6076 0 0 1.6076 -339.434 -232.062)"/><use xlink:href="#ak" transform="matrix(1.6076 0 0 1.6076 -339.434 -232.062)"/><use xlink:href="#al" transform="matrix(1.6076 0 0 1.6076 -339.434 -232.062)"/><use xlink:href="#am" transform="matrix(1.6076 0 0 1.6076 -339.434 -232.062)"/><use xlink:href="#an" transform="matrix(1.6076 0 0 1.6076 -339.434 -232.062)"/><use xlink:href="#ao" transform="matrix(1.6076 0 0 1.6076 -339.434 -232.062)"/><use xlink:href="#ap" transform="matrix(1.6076 0 0 1.6076 -339.434 -232.062)"/><use xlink:href="#aq" transform="matrix(1.6076 0 0 1.6076 -339.434 -232.062)"/><use xlink:href="#ar" transform="matrix(1.6076 0 0 1.6076 -339.434 -232.062)"/><use xlink:href="#as" transform="matrix(1.6076 0 0 1.6076 -339.434 -232.062)"/><use xlink:href="#at" transform="matrix(1.6076 0 0 1.6076 -339.434 -232.062)"/><use xlink:href="#au" transform="matrix(1.6076 0 0 1.6076 -339.434 -232.062)"/><use xlink:href="#av" transform="matrix(1.6076 0 0 1.6076 -339.434 -232.062)"/><use xlink:href="#aw" transform="matrix(1.6076 0 0 1.6076 -339.434 -232.062)"/><use xlink:href="#ax" transform="matrix(1.6076 0 0 1.6076 -339.434 -232.062)"/><use xlink:href="#ay" transform="matrix(1.6076 0 0 1.6076 -339.434 -232.062)"/><use xlink:href="#az" transform="matrix(1.6076 0 0 1.6076 -339.434 -232.062)"/><use xlink:href="#aA" transform="matrix(1.6076 0 0 1.6076 -339.434 -232.062)"/><use xlink:href="#aB" transform="matrix(1.6076 0 0 1.6076 -339.434 -232.062)"/><use xlink:href="#aC" transform="matrix(1.6076 0 0 1.6076 -339.434 -232.062)"/><use xlink:href="#aD" transform="matrix(1.6076 0 0 1.6076 -339.434 -232.062)"/><use xlink:href="#aE" transform="matrix(1.6076 0 0 1.6076 -339.434 -232.062)"/><use xlink:href="#aF" transform="matrix(1.6076 0 0 1.6076 -339.434 -232.062)"/><use xlink:href="#aG" transform="matrix(1.6076 0 0 1.6076 -339.434 -232.062)"/><use xlink:href="#aH" transform="matrix(1.6076 0 0 1.6076 -339.434 -232.062)"/><use xlink:href="#aI" transform="matrix(1.6076 0 0 1.6076 -339.434 -232.062)"/><use xlink:href="#aJ" transform="matrix(1.6076 0 0 1.6076 -339.434 -232.062)"/><use xlink:href="#aK" transform="matrix(1.6076 0 0 1.6076 -339.434 -232.062)"/><use xlink:href="#aL" transform="matrix(1.6076 0 0 1.6076 -339.434 -232.062)"/><use xlink:href="#aM" transform="matrix(1.6076 0 0 1.6076 -339.434 -232.062)"/><use xlink:href="#aN" transform="matrix(1.6076 0 0 1.6076 -339.434 -232.062)"/><use xlink:href="#aO" transform="matrix(1.6076 0 0 1.6076 -339.434 -232.062)"/><use xlink:href="#aP" transform="matrix(1.6076 0 0 1.6076 -339.434 -232.062)"/><use xlink:href="#aQ" transform="matrix(1.6076 0 0 1.6076 -339.434 -232.062)"/><use xlink:href="#aR" transform="matrix(1.6076 0 0 1.6076 -339.434 -232.062)"/><use xlink:href="#aS" transform="matrix(1.6076 0 0 1.6076 -339.434 -232.062)"/><use xlink:href="#aT" transform="matrix(1.6076 0 0 1.6076 -339.434 -232.062)"/><use xlink:href="#aU" transform="matrix(1.6076 0 0 1.6076 -339.434 -232.062)"/><use xlink:href="#aV" transform="matrix(1.6076 0 0 1.6076 -339.434 -232.062)"/><use xlink:href="#aW" transform="matrix(1.6076 0 0 1.6076 -339.434 -232.062)"/><use xlink:href="#aX" transform="matrix(1.6076 0 0 1.6076 -339.434 -232.062)"/><use xlink:href="#aY" transform="matrix(1.6076 0 0 1.6076 -339.434 -232.062)"/><use xlink:href="#aZ" transform="matrix(1.6076 0 0 1.6076 -339.434 -232.062)"/><use xlink:href="#ba" transform="matrix(1.6076 0 0 1.6076 -339.434 -232.062)"/><use xlink:href="#bb" transform="matrix(1.6076 0 0 1.6076 -339.434 -232.062)"/><use xlink:href="#bc" transform="matrix(1.6076 0 0 1.6076 -339.434 -232.062)"/><use xlink:href="#bd" transform="matrix(1.6076 0 0 1.6076 -339.434 -232.062)"/><use xlink:href="#be" transform="matrix(1.6076 0 0 1.6076 -339.434 -232.062)"/><use xlink:href="#bf" transform="matrix(1.6076 0 0 1.6076 -339.434 -232.062)"/><use xlink:href="#bg" transform="matrix(1.6076 0 0 1.6076 -339.434 -232.062)"/><use xlink:href="#bh" transform="matrix(1.6076 0 0 1.6076 -339.434 -232.062)"/><use xlink:href="#bi" transform="matrix(1.6076 0 0 1.6076 -339.434 -232.062)"/><use xlink:href="#bj" transform="matrix(1.6076 0 0 1.6076 -339.434 -232.062)"/><use xlink:href="#bk" transform="matrix(1.6076 0 0 1.6076 -339.434 -232.062)"/><use xlink:href="#bl" transform="matrix(1.6076 0 0 1.6076 -339.434 -232.062)"/><use xlink:href="#bm" transform="matrix(1.6076 0 0 1.6076 -339.434 -232.062)"/><use xlink:href="#bn" transform="matrix(1.6076 0 0 1.6076 -339.434 -232.062)"/><use xlink:href="#bo" transform="matrix(1.6076 0 0 1.6076 -339.434 -232.062)"/><use xlink:href="#bp" transform="matrix(1.6076 0 0 1.6076 -339.434 -232.062)"/><use xlink:href="#bq" transform="matrix(1.6076 0 0 1.6076 -339.434 -232.062)"/><use xlink:href="#br" transform="matrix(1.6076 0 0 1.6076 -339.434 -232.062)"/><use xlink:href="#bs" transform="matrix(1.6076 0 0 1.6076 -339.434 -232.062)"/><use xlink:href="#bt" transform="matrix(1.6076 0 0 1.6076 -339.434 -232.062)"/><use xlink:href="#bu" transform="matrix(1.6076 0 0 1.6076 -339.434 -232.062)"/><use xlink:href="#bv" transform="matrix(1.6076 0 0 1.6076 -339.434 -232.062)"/><use xlink:href="#bw" transform="matrix(1.6076 0 0 1.6076 -339.434 -232.062)"/><use xlink:href="#bx" transform="matrix(1.6076 0 0 1.6076 -339.434 -232.062)"/><use xlink:href="#by" transform="matrix(1.6076 0 0 1.6076 -339.434 -232.062)"/><use xlink:href="#bz" transform="matrix(1.6076 0 0 1.6076 -339.434 -232.062)"/><use xlink:href="#bA" transform="matrix(1.6076 0 0 1.6076 -339.434 -232.062)"/><use xlink:href="#bB" transform="matrix(1.6076 0 0 1.6076 -339.434 -232.062)"/><use xlink:href="#bC" transform="matrix(1.6076 0 0 1.6076 -339.434 -232.062)"/><use xlink:href="#bD" transform="matrix(1.6076 0 0 1.6076 -339.434 -232.062)"/><use xlink:href="#bE" transform="matrix(1.6076 0 0 1.6076 -339.434 -232.062)"/><use xlink:href="#bF" transform="matrix(1.6076 0 0 1.6076 -339.434 -232.062)"/><use xlink:href="#bG" transform="matrix(1.6076 0 0 1.6076 -339.434 -232.062)"/><use xlink:href="#bH" transform="matrix(1.6076 0 0 1.6076 -339.434 -232.062)"/><use xlink:href="#bI" transform="matrix(1.6076 0 0 1.6076 -339.434 -232.062)"/><use xlink:href="#bJ" transform="matrix(1.6076 0 0 1.6076 -339.434 -232.062)"/><use xlink:href="#bK" transform="matrix(1.6076 0 0 1.6076 -339.434 -232.062)"/><use xlink:href="#bL" transform="matrix(1.6076 0 0 1.6076 -339.434 -232.062)"/><use xlink:href="#bM" transform="matrix(1.6076 0 0 1.6076 -339.434 -232.062)"/><use xlink:href="#bN" transform="matrix(1.6076 0 0 1.6076 -339.434 -232.062)"/><use xlink:href="#bO" transform="matrix(1.6076 0 0 1.6076 -339.434 -232.062)"/><use xlink:href="#bP" transform="matrix(1.6076 0 0 1.6076 -339.434 -232.062)"/><use xlink:href="#bQ" transform="matrix(1.6076 0 0 1.6076 -339.434 -232.062)"/><use xlink:href="#bR" transform="matrix(1.6076 0 0 1.6076 -339.434 -232.062)"/><use xlink:href="#bS" transform="matrix(1.6076 0 0 1.6076 -339.434 -232.062)"/><use xlink:href="#bT" transform="matrix(1.6076 0 0 1.6076 -339.434 -232.062)"/><use xlink:href="#bU" transform="matrix(1.6076 0 0 1.6076 -339.434 -232.062)"/><use xlink:href="#bV" transform="matrix(1.6076 0 0 1.6076 -339.434 -232.062)"/><use xlink:href="#bW" transform="matrix(1.6076 0 0 1.6076 -339.434 -232.062)"/><use xlink:href="#bX" transform="matrix(1.6076 0 0 1.6076 -339.434 -232.062)"/><use xlink:href="#bY" transform="matrix(1.6076 0 0 1.6076 -339.434 -232.062)"/><use xlink:href="#bZ" transform="matrix(1.6076 0 0 1.6076 -339.434 -232.062)"/><use xlink:href="#ca" transform="matrix(1.6076 0 0 1.6076 -339.434 -232.062)"/><use xlink:href="#cb" transform="matrix(1.6076 0 0 1.6076 -339.434 -232.062)"/><use xlink:href="#cc" transform="matrix(1.6076 0 0 1.6076 -339.434 -232.062)"/><use xlink:href="#cd" transform="matrix(1.6076 0 0 1.6076 -339.434 -232.062)"/><use xlink:href="#ce" transform="matrix(1.6076 0 0 1.6076 -339.434 -232.062)"/><use xlink:href="#cf" transform="matrix(1.6076 0 0 1.6076 -339.434 -232.062)"/><use xlink:href="#cg" transform="matrix(1.6076 0 0 1.6076 -339.434 -232.062)"/><use xlink:href="#ch" transform="matrix(1.6076 0 0 1.6076 -339.434 -232.062)"/><use xlink:href="#ci" transform="matrix(1.6076 0 0 1.6076 -339.434 -232.062)"/><use xlink:href="#cj" transform="matrix(1.6076 0 0 1.6076 -339.434 -232.062)"/><use xlink:href="#ck" transform="matrix(1.6076 0 0 1.6076 -339.434 -232.062)"/><use xlink:href="#cl" transform="matrix(1.6076 0 0 1.6076 -339.434 -232.062)"/><use xlink:href="#cm" transform="matrix(1.6076 0 0 1.6076 -339.434 -232.062)"/><use xlink:href="#cn" transform="matrix(1.6076 0 0 1.6076 -339.434 -232.062)"/><use xlink:href="#co" transform="matrix(1.6076 0 0 1.6076 -339.434 -232.062)"/><use xlink:href="#cp" transform="matrix(1.6076 0 0 1.6076 -339.434 -232.062)"/><use xlink:href="#cq" transform="matrix(1.6076 0 0 1.6076 -339.434 -232.062)"/><use xlink:href="#cr" transform="matrix(1.6076 0 0 1.6076 -339.434 -232.062)"/><use xlink:href="#cs" transform="matrix(1.6076 0 0 1.6076 -339.434 -232.062)"/><use xlink:href="#ct" transform="matrix(1.6076 0 0 1.6076 -339.434 -232.062)"/><use xlink:href="#cu" transform="matrix(1.6076 0 0 1.6076 -339.434 -232.062)"/><use xlink:href="#cv" transform="matrix(1.6076 0 0 1.6076 -339.434 -232.062)"/><use xlink:href="#cw" transform="matrix(1.6076 0 0 1.6076 -339.434 -232.062)"/><use xlink:href="#cx" transform="matrix(1.6076 0 0 1.6076 -339.434 -232.062)"/><use xlink:href="#cy" transform="matrix(1.6076 0 0 1.6076 -339.434 -232.062)"/><use xlink:href="#cz" transform="matrix(1.6076 0 0 1.6076 -339.434 -232.062)"/><use xlink:href="#cA" transform="matrix(1.6076 0 0 1.6076 -339.434 -232.062)"/><use xlink:href="#cB" transform="matrix(1.6076 0 0 1.6076 -339.434 -232.062)"/><use xlink:href="#cC" transform="matrix(1.6076 0 0 1.6076 -339.434 -232.062)"/><use xlink:href="#cD" transform="matrix(1.6076 0 0 1.6076 -339.434 -232.062)"/><use xlink:href="#cE" transform="matrix(1.6076 0 0 1.6076 -339.434 -232.062)"/><use xlink:href="#cF" transform="matrix(1.6076 0 0 1.6076 -339.434 -232.062)"/><use xlink:href="#cG" transform="matrix(1.6076 0 0 1.6076 -339.434 -232.062)"/><use xlink:href="#cH" transform="matrix(1.6076 0 0 1.6076 -339.434 -232.062)"/><use xlink:href="#cI" transform="matrix(1.6076 0 0 1.6076 -339.434 -232.062)"/><use xlink:href="#cJ" transform="matrix(1.6076 0 0 1.6076 -339.434 -232.062)"/><use xlink:href="#cK" transform="matrix(1.6076 0 0 1.6076 -339.434 -232.062)"/><use xlink:href="#cL" transform="matrix(1.6076 0 0 1.6076 -339.434 -232.062)"/><use xlink:href="#cM" transform="matrix(1.6076 0 0 1.6076 -339.434 -232.062)"/><use xlink:href="#cN" transform="matrix(1.6076 0 0 1.6076 -339.434 -232.062)"/><use xlink:href="#cO" transform="matrix(1.6076 0 0 1.6076 -339.434 -232.062)"/><use xlink:href="#cP" transform="matrix(1.6076 0 0 1.6076 -339.434 -232.062)"/><use xlink:href="#cQ" transform="matrix(1.6076 0 0 1.6076 -339.434 -232.062)"/><use xlink:href="#cR" transform="matrix(1.6076 0 0 1.6076 -339.434 -232.062)"/><use xlink:href="#cS" transform="matrix(1.6076 0 0 1.6076 -339.434 -232.062)"/><use xlink:href="#cT" transform="matrix(1.6076 0 0 1.6076 -339.434 -232.062)"/><use xlink:href="#cU" transform="matrix(1.6076 0 0 1.6076 -339.434 -232.062)"/><use xlink:href="#cV" transform="matrix(1.6076 0 0 1.6076 -339.434 -232.062)"/><use xlink:href="#cW" transform="matrix(1.6076 0 0 1.6076 -339.434 -232.062)"/><use xlink:href="#cX" transform="matrix(1.6076 0 0 1.6076 -339.434 -232.062)"/><use xlink:href="#cY" transform="matrix(1.6076 0 0 1.6076 -339.434 -232.062)"/><use xlink:href="#cZ" transform="matrix(1.6076 0 0 1.6076 -339.434 -232.062)"/><use xlink:href="#da" transform="matrix(1.6076 0 0 1.6076 -339.434 -232.062)"/><use xlink:href="#db" transform="matrix(1.6076 0 0 1.6076 -339.434 -232.062)"/><use xlink:href="#dc" transform="matrix(1.6076 0 0 1.6076 -339.434 -232.062)"/><use xlink:href="#dd" transform="matrix(1.6076 0 0 1.6076 -339.434 -232.062)"/><use xlink:href="#de" transform="matrix(1.6076 0 0 1.6076 -339.434 -232.062)"/><use xlink:href="#df" transform="matrix(1.6076 0 0 1.6076 -339.434 -232.062)"/><use xlink:href="#dg" transform="matrix(1.6076 0 0 1.6076 -339.434 -232.062)"/><use xlink:href="#dh" transform="matrix(1.6076 0 0 1.6076 -339.434 -232.062)"/><use xlink:href="#di" transform="matrix(1.6076 0 0 1.6076 -339.434 -232.062)"/><use xlink:href="#dj" transform="matrix(1.6076 0 0 1.6076 -339.434 -232.062)"/><use xlink:href="#dk" transform="matrix(1.6076 0 0 1.6076 -339.434 -232.062)"/><use xlink:href="#dl" transform="matrix(1.6076 0 0 1.6076 -339.434 -232.062)"/><use xlink:href="#dm" transform="matrix(1.6076 0 0 1.6076 -339.434 -232.062)"/><use xlink:href="#dn" transform="matrix(1.6076 0 0 1.6076 -339.434 -232.062)"/><use xlink:href="#do" transform="matrix(1.6076 0 0 1.6076 -339.434 -232.062)"/><use xlink:href="#dp" transform="matrix(1.6076 0 0 1.6076 -339.434 -232.062)"/></svg>