<svg xmlns="http://www.w3.org/2000/svg" xmlns:xlink="http://www.w3.org/1999/xlink" preserveAspectRatio="none" width="284" height="320"><defs><linearGradient id="a" gradientUnits="userSpaceOnUse" x1="325.05" y1="593.538" x2="325.05" y2="548.462" spreadMethod="pad"><stop offset="0%" stop-color="#1CAED0"/><stop offset="100%" stop-color="#3555AA"/></linearGradient><linearGradient id="b" gradientUnits="userSpaceOnUse" x1="318.05" y1="601.513" x2="318.05" y2="564.987" spreadMethod="pad"><stop offset="0%" stop-color="#1CAED0"/><stop offset="100%" stop-color="#374AA6"/></linearGradient><linearGradient id="c" gradientUnits="userSpaceOnUse" x1="335.35" y1="591.512" x2="335.35" y2="556.788" spreadMethod="pad"><stop offset="0%" stop-color="#43BDD8"/><stop offset="100%" stop-color="#2E7FBB"/></linearGradient><linearGradient id="d" gradientUnits="userSpaceOnUse" x1="262.8" y1="593.487" x2="262.8" y2="548.112" spreadMethod="pad"><stop offset="0%" stop-color="#1CAED0"/><stop offset="100%" stop-color="#3555AA"/></linearGradient><linearGradient id="e" gradientUnits="userSpaceOnUse" x1="269.8" y1="601.513" x2="269.8" y2="564.987" spreadMethod="pad"><stop offset="0%" stop-color="#1CAED0"/><stop offset="100%" stop-color="#374AA6"/></linearGradient><linearGradient id="f" gradientUnits="userSpaceOnUse" x1="252.45" y1="591.512" x2="252.45" y2="556.788" spreadMethod="pad"><stop offset="0%" stop-color="#43BDD8"/><stop offset="100%" stop-color="#2E7FBB"/></linearGradient><linearGradient id="g" gradientUnits="userSpaceOnUse" x1="282.7" y1="597.538" x2="282.7" y2="608.163" spreadMethod="pad"><stop offset="0%" stop-color="#DAF1F7"/><stop offset="49.02%" stop-color="#AADFEC"/><stop offset="100%" stop-color="#90CFE3"/></linearGradient><linearGradient id="h" gradientUnits="userSpaceOnUse" x1="286.45" y1="600.25" x2="277.05" y2="600.25" spreadMethod="pad"><stop offset="0%" stop-color="#CDECF4"/><stop offset="100%" stop-color="#F1FAFC"/></linearGradient><linearGradient id="i" gradientUnits="userSpaceOnUse" x1="305" y1="597.538" x2="305" y2="608.163" spreadMethod="pad"><stop offset="0%" stop-color="#DAF1F7"/><stop offset="49.02%" stop-color="#AADFEC"/><stop offset="100%" stop-color="#90CFE3"/></linearGradient><linearGradient id="j" gradientUnits="userSpaceOnUse" x1="308.45" y1="600.25" x2="299.05" y2="600.25" spreadMethod="pad"><stop offset="0%" stop-color="#CDECF4"/><stop offset="100%" stop-color="#F1FAFC"/></linearGradient><linearGradient id="k" gradientUnits="userSpaceOnUse" x1="293.8" y1="541.525" x2="293.8" y2="585.575" spreadMethod="pad"><stop offset="0%" stop-color="#F7FCFD"/><stop offset="76.078%" stop-color="#FFF"/><stop offset="100%" stop-color="#EDF8FB"/></linearGradient><linearGradient id="l" gradientUnits="userSpaceOnUse" x1="311.05" y1="569.538" x2="311.05" y2="587.262" spreadMethod="pad"><stop offset="0%" stop-color="#EFF9FB"/><stop offset="100%" stop-color="#DAF1F7"/></linearGradient><linearGradient id="m" gradientUnits="userSpaceOnUse" x1="294.15" y1="569.537" x2="294.15" y2="587.063" spreadMethod="pad"><stop offset="0%" stop-color="#EFF9FB"/><stop offset="100%" stop-color="#DAF1F7"/></linearGradient><linearGradient id="n" gradientUnits="userSpaceOnUse" x1="280.2" y1="569.513" x2="280.2" y2="586.987" spreadMethod="pad"><stop offset="0%" stop-color="#EFF9FB"/><stop offset="100%" stop-color="#DAF1F7"/></linearGradient><linearGradient id="o" gradientUnits="userSpaceOnUse" x1="336.7" y1="484.538" x2="336.7" y2="525.563" spreadMethod="pad"><stop offset="0%" stop-color="#7D8198"/><stop offset="100%" stop-color="#7A7E95"/></linearGradient><linearGradient id="p" gradientUnits="userSpaceOnUse" x1="334.85" y1="513.788" x2="337.35" y2="485.212" spreadMethod="pad"><stop offset="0%" stop-color="#969AAD"/><stop offset="56.863%" stop-color="#D8D9E1"/><stop offset="100%" stop-color="#B4B5C4"/></linearGradient><linearGradient id="q" gradientUnits="userSpaceOnUse" x1="327.65" y1="523.538" x2="327.65" y2="478.462" spreadMethod="pad"><stop offset="0%" stop-color="#5B617B"/><stop offset="100%" stop-color="#5B617B"/></linearGradient><linearGradient id="r" gradientUnits="userSpaceOnUse" x1="327.438" y1="518.712" x2="329.263" y2="483.887" spreadMethod="pad"><stop offset="0%" stop-color="#7A7E95"/><stop offset="56.078%" stop-color="#B4B5C4"/><stop offset="100%" stop-color="#9DA0B3"/></linearGradient><linearGradient id="s" gradientUnits="userSpaceOnUse" x1="250.55" y1="484.538" x2="250.55" y2="525.563" spreadMethod="pad"><stop offset="0%" stop-color="#7D8198"/><stop offset="100%" stop-color="#7A7E95"/></linearGradient><linearGradient id="t" gradientUnits="userSpaceOnUse" x1="249.6" y1="513.888" x2="252.1" y2="485.313" spreadMethod="pad"><stop offset="0%" stop-color="#969AAD"/><stop offset="56.863%" stop-color="#D8D9E1"/><stop offset="100%" stop-color="#B4B5C4"/></linearGradient><linearGradient id="u" gradientUnits="userSpaceOnUse" x1="294.45" y1="540.5" x2="294.45" y2="533.6" spreadMethod="pad"><stop offset="0%" stop-color="#FBD7AB"/><stop offset="100%" stop-color="#FBAC59"/></linearGradient><linearGradient id="v" gradientUnits="userSpaceOnUse" x1="293.95" y1="477.512" x2="293.95" y2="534.288" spreadMethod="pad"><stop offset="0%" stop-color="#FBBC76"/><stop offset="16.078%" stop-color="#FBCF9C"/><stop offset="27.843%" stop-color="#FCE5C7"/><stop offset="85.882%" stop-color="#FCE5C7"/><stop offset="100%" stop-color="#FBCA91"/></linearGradient><linearGradient id="w" gradientUnits="userSpaceOnUse" x1="259.5" y1="523.5" x2="259.5" y2="478.3" spreadMethod="pad"><stop offset="0%" stop-color="#5B617B"/><stop offset="100%" stop-color="#5B617B"/></linearGradient><linearGradient id="x" gradientUnits="userSpaceOnUse" x1="258.938" y1="518.763" x2="260.763" y2="483.938" spreadMethod="pad"><stop offset="0%" stop-color="#7A7E95"/><stop offset="56.078%" stop-color="#B4B5C4"/><stop offset="100%" stop-color="#9DA0B3"/></linearGradient><linearGradient id="y" gradientUnits="userSpaceOnUse" x1="293.65" y1="472.525" x2="293.65" y2="433.775" spreadMethod="pad"><stop offset="0%" stop-color="#9DA0B3"/><stop offset="100%" stop-color="#5B617B"/></linearGradient><linearGradient id="z" gradientUnits="userSpaceOnUse" x1="290.5" y1="520.35" x2="297.1" y2="520.35" spreadMethod="pad"><stop offset="0%" stop-color="#FCA289"/><stop offset="100%" stop-color="#FF3626"/></linearGradient><linearGradient id="A" gradientUnits="userSpaceOnUse" x1="298.575" y1="502.975" x2="290.325" y2="501.825" spreadMethod="pad"><stop offset="0%" stop-color="#FBCA91"/><stop offset="100%" stop-color="#FDF3E5"/></linearGradient><linearGradient id="B" gradientUnits="userSpaceOnUse" x1="294.2" y1="509.537" x2="294.2" y2="511.762" spreadMethod="pad"><stop offset="0%" stop-color="#FCE5C7"/><stop offset="100%" stop-color="#FBCA91"/></linearGradient><linearGradient id="C" gradientUnits="userSpaceOnUse" x1="298.45" y1="518.55" x2="291.05" y2="518.55" spreadMethod="pad"><stop offset="0%" stop-color="#FD765D"/><stop offset="100%" stop-color="#FCC9B5"/></linearGradient><linearGradient id="D" gradientUnits="userSpaceOnUse" x1="276.25" y1="490.525" x2="276.25" y2="500.275" spreadMethod="pad"><stop offset="0%" stop-color="#297CB1"/><stop offset="100%" stop-color="#A3CEE4"/></linearGradient><linearGradient id="E" gradientUnits="userSpaceOnUse" x1="272.488" y1="498.8" x2="279.613" y2="498.8" spreadMethod="pad"><stop offset="0%" stop-color="#A3CEE4"/><stop offset="49.02%" stop-color="#EBF7FA"/><stop offset="100%" stop-color="#A3CEE4"/></linearGradient><linearGradient id="F" gradientUnits="userSpaceOnUse" x1="311.75" y1="490.525" x2="311.75" y2="500.275" spreadMethod="pad"><stop offset="0%" stop-color="#297CB1"/><stop offset="100%" stop-color="#A3CEE4"/></linearGradient><linearGradient id="G" gradientUnits="userSpaceOnUse" x1="308.488" y1="498.8" x2="315.613" y2="498.8" spreadMethod="pad"><stop offset="0%" stop-color="#A3CEE4"/><stop offset="49.02%" stop-color="#EBF7FA"/><stop offset="100%" stop-color="#A3CEE4"/></linearGradient><linearGradient id="H" gradientUnits="userSpaceOnUse" x1="289.488" y1="518.563" x2="292.713" y2="519.737" spreadMethod="pad"><stop offset="0%" stop-color="#FFF"/><stop offset="100%" stop-color="#FCC9B5"/></linearGradient><linearGradient id="I" gradientUnits="userSpaceOnUse" x1="291.475" y1="527.7" x2="297.025" y2="527.7" spreadMethod="pad"><stop offset="0%" stop-color="#FDF3E5"/><stop offset="100%" stop-color="#FCE5C7"/></linearGradient><linearGradient id="J" gradientUnits="userSpaceOnUse" x1="294.15" y1="517.525" x2="294.15" y2="513.975" spreadMethod="pad"><stop offset="0%" stop-color="#FF2916"/><stop offset="100%" stop-color="#FCA289"/></linearGradient><linearGradient id="K" gradientUnits="userSpaceOnUse" x1="322.675" y1="474.5" x2="322.725" y2="473.3" spreadMethod="pad"><stop offset="0%" stop-color="#E6D5CD"/><stop offset="100%" stop-color="#914940"/></linearGradient><linearGradient id="L" gradientUnits="userSpaceOnUse" x1="295.925" y1="451.4" x2="265.375" y2="473.6" spreadMethod="pad"><stop offset="0%" stop-color="#868AA0"/><stop offset="100%" stop-color="#B4B5C4"/></linearGradient><linearGradient id="M" gradientUnits="userSpaceOnUse" x1="314.513" y1="458.488" x2="327.688" y2="473.113" spreadMethod="pad"><stop offset="0%" stop-color="#969AAD"/><stop offset="100%" stop-color="#C0C2CE"/></linearGradient><linearGradient id="N" gradientUnits="userSpaceOnUse" x1="253.8" y1="461.862" x2="289.5" y2="447.438" spreadMethod="pad"><stop offset="0%" stop-color="#9DA0B3"/><stop offset="41.961%" stop-color="#B4B5C4"/><stop offset="100%" stop-color="#83879D"/></linearGradient><linearGradient id="O" gradientUnits="userSpaceOnUse" x1="300.525" y1="452.938" x2="309.175" y2="472.362" spreadMethod="pad"><stop offset="0%" stop-color="#83879D"/><stop offset="100%" stop-color="#B4B5C4"/></linearGradient><linearGradient id="P" gradientUnits="userSpaceOnUse" x1="269.463" y1="474.4" x2="334.137" y2="474.4" spreadMethod="pad"><stop offset="0%" stop-color="#E7F6F9"/><stop offset="100%" stop-color="#9FDBEA"/></linearGradient><linearGradient id="Q" gradientUnits="userSpaceOnUse" x1="271.5" y1="475.8" x2="331.8" y2="475.8" spreadMethod="pad"><stop offset="0%" stop-color="#AADFEC"/><stop offset="100%" stop-color="#2892C3"/></linearGradient><linearGradient id="R" gradientUnits="userSpaceOnUse" x1="308.15" y1="545.012" x2="319.85" y2="565.288" spreadMethod="pad"><stop offset="0%" stop-color="#AADFEC"/><stop offset="100%" stop-color="#AADFEC"/></linearGradient><linearGradient id="S" gradientUnits="userSpaceOnUse" x1="288.2" y1="554.425" x2="322.7" y2="526.475" spreadMethod="pad"><stop offset="0%" stop-color="#B3E2EE"/><stop offset="69.02%" stop-color="#FFF"/><stop offset="100%" stop-color="#B3E2EE"/></linearGradient><linearGradient id="T" gradientUnits="userSpaceOnUse" x1="337.287" y1="526.688" x2="329.512" y2="518.912" spreadMethod="pad"><stop offset="0%" stop-color="#AADFEC"/><stop offset="100%" stop-color="#E0F3F8"/></linearGradient><linearGradient id="U" gradientUnits="userSpaceOnUse" x1="348.012" y1="521" x2="336.088" y2="508.2" spreadMethod="pad"><stop offset="0%" stop-color="#AADFEC"/><stop offset="100%" stop-color="#C2E8F1"/></linearGradient><linearGradient id="V" gradientUnits="userSpaceOnUse" x1="354.2" y1="530.55" x2="354.2" y2="557.85" spreadMethod="pad"><stop offset="0%" stop-color="#D6EFF6"/><stop offset="100%" stop-color="#E9F6FA"/></linearGradient><linearGradient id="W" gradientUnits="userSpaceOnUse" x1="363.962" y1="531.5" x2="363.038" y2="558" spreadMethod="pad"><stop offset="0%" stop-color="#DAF1F7"/><stop offset="100%" stop-color="#F7FCFD"/></linearGradient><linearGradient id="X" gradientUnits="userSpaceOnUse" x1="365.2" y1="520.525" x2="364.9" y2="529.275" spreadMethod="pad"><stop offset="0%" stop-color="#DAF1F7"/><stop offset="100%" stop-color="#F7FCFD"/></linearGradient><linearGradient id="Y" gradientUnits="userSpaceOnUse" x1="349.325" y1="529.5" x2="346.975" y2="544.4" spreadMethod="pad"><stop offset="0%" stop-color="#FFF"/><stop offset="100%" stop-color="#E7F6F9"/></linearGradient><linearGradient id="Z" gradientUnits="userSpaceOnUse" x1="293.85" y1="472.55" x2="293.85" y2="485.15" spreadMethod="pad"><stop offset="0%" stop-color="#FFF"/><stop offset="100%" stop-color="#E0F3F8"/></linearGradient><linearGradient id="aa" gradientUnits="userSpaceOnUse" x1="359.413" y1="527.638" x2="338.788" y2="515.263" spreadMethod="pad"><stop offset="0%" stop-color="#FFF"/><stop offset="100%" stop-color="#DAF1F7"/></linearGradient><linearGradient id="ab" gradientUnits="userSpaceOnUse" x1="373.3" y1="538.538" x2="372.9" y2="549.762" spreadMethod="pad"><stop offset="0%" stop-color="#C9EAF3"/><stop offset="100%" stop-color="#E2F4F8"/></linearGradient><path fill="#FFF" fill-opacity="0" d="M284 0H0v320h284V0z" id="ac"/><path fill="url(#a)" d="M306.85 537.55l-12.9 5.9v60.95q5.15 1.5 9.15-1 6.85-4.3 8.8-4.6 1-.2 3.7 1.5 4.7 3 10.95 2.95 6.55-.1 10.45-3.65 3.35-4.35 4.8-6.25 2.5-3.25 6.1-3.25 2.95 0 5.15-2 2-1.85 2.75-4.7.8-2.8.05-5.1-.75-2.45-2.65-2.45-8.35 0-13.3-2.85-5.65-3.25-8.35-10.85-3.95-10.95-8.8-16.75-6.6-7.85-15.9-7.85z" id="ad"/><path fill="url(#b)" d="M320.6 575.85q-2.55-7.75-3.8-17.5-1-7.75-.8-11.8l-1.15 2.2q-13.3 8.95-20.9 18.6v37.05q5.15 1.5 9.15-1 6.7-4.55 7.5-4.95.5-.2.85.2 1.1 1.2 1.3 1.4 4.35 3.85 12.3 3.6 7.8-.3 11.95-4.05 1.3-1.25 2.85-3.45 1.8-2.65 2.35-3.3-.35.35-.65.4-13.7 5-20.95-17.4z" id="ae"/><path fill="url(#c)" d="M323.85 558.25q-1.25-4.95-2.8-4.45-1.6.5-1.2 5.25.75 8.5 3.4 16.35 2.3 6.75 5.05 10.5 3.05 4.25 6.7 5.55 4.05 1.4 5.9-2.2.9-1.8 1.8-2 .65-.2 3.25-.7 1.5-.45 2.55-1.35 2.55-2 2.4-3.85-.25-2.15-4.7-1.7-7.55.8-13.7-5.15-6.1-5.9-8.65-16.25z" id="af"/><path fill="url(#d)" d="M234.8 588.1q2.2 2 5.15 2 3.6 0 6.1 3.25 1.45 1.9 4.75 6.25 3.9 3.55 10.5 3.65 6.25.05 10.9-2.95 2.7-1.7 3.7-1.5 2 .3 8.85 4.6 4 2.5 9.2 1v-60.95l-6.5-8.1q-12.1 0-20.05 7.8-6.55 6.35-11.1 19-2.7 7.6-8.35 10.85-5 2.85-13.35 2.85-1.9 0-2.65 2.45-.7 2.3.1 5.1.7 2.85 2.75 4.7z" id="ag"/><path fill="url(#e)" d="M246.3 593.25q-.45-.3-.65-.4.55.65 2.35 3.3 1.5 2.25 2.8 3.45 4.15 3.75 11.95 4.05 8 .25 12.35-3.6.25-.25 1.3-1.4.35-.4.85-.2.8.4 7.5 4.95 4 2.5 9.2 1v-37.05q-7.7-9.65-21.05-18.6l-1.05-2.2q.2 4.1-.85 11.8-1.3 9.75-3.8 17.5-7.2 22.4-20.9 17.4z" id="ah"/><path fill="url(#f)" d="M239.3 585.2q1.2 1 2.6 1.35 1.7.55 3.25.7.9.2 1.8 2 1.85 3.6 5.9 2.2 3.65-1.3 6.7-5.55 2.7-3.75 5-10.5 2.65-7.85 3.4-16.35.4-4.75-1.15-5.25-1.6-.5-2.8 4.45-2.55 10.35-8.65 16.25-6.2 5.95-13.75 5.15-4.45-.45-4.65 1.7-.2 1.85 2.35 3.85z" id="ai"/><path fill="#FBD7AB" d="M308.4 575.85H298q-1.5 0-2.4.6-1.1.7-.95 2 .6 4.25.7 12.7.1 8.85-.55 12.2l18.75-1.3 1.85 1.3q-1.6-4.55-2.75-24.9-.05-1.3-1.45-2-1.2-.6-2.8-.6z" id="aj"/><path fill="#FBCA91" d="M312.65 578.45q-.05-1.15-1.25-1.9-1.05-.55-2.55-.7.6 15.05 2.15 26.4l2.55-.2.7.5h.95q-1.4-5.05-2.55-24.1z" id="ak"/><path fill="#FFF" d="M310.75 588.3l-.65-.75-13.85 12.6.7.75 13.8-12.6z" id="al"/><path fill="#FFF" d="M297.65 588.25l-.6.8 13.8 10.25.6-.8-13.8-10.25z" id="am"/><path fill="#FBD7AB" d="M279.35 575.85q-1.65 0-2.85.6-1.4.7-1.5 2-.25 6.35-.8 12.7-.85 9.15-1.95 12.2l1.9-1.3 18.85 1.3q-.6-3.35-.5-12.2.05-8.4.6-12.7.2-1.35-.85-2-.9-.6-2.5-.6h-10.4z" id="an"/><path fill="#FBCA91" d="M293 585.1l-2.5-1.5-1 5.15v14.4l4 .2q-.65-3.45-.5-18.25z" id="ao"/><path fill="#FFF" d="M277.5 587.55l-.65.75 13.95 12.6.65-.75-13.95-12.6z" id="ap"/><path fill="#FFF" d="M290.65 589.05l-.6-.8-13.8 10.25.55.8 13.85-10.25z" id="aq"/><path fill="#C2E8F1" d="M289.5 586.65v1.55l3.5-2.35v-2.8l-1.15-.65-1.6.05-.75 4.2z" id="ar"/><path fill="url(#g)" d="M289.75 607.45q2.2 0 3.4-1.35 1.35-1.5.2-3.6-2.85-5.45-10.65-5.45-7.8 0-10.65 5.45-1.1 2.1.25 3.6 1.2 1.35 3.45 1.35h14z" id="as"/><path fill="url(#h)" d="M285.85 601.45q1.6-.5 1.6-1.2t-1.6-1.25q-1.6-.5-3.8-.5-2.2 0-3.8.5-1.6.55-1.6 1.25t1.6 1.2q1.6.5 3.8.5 2.25 0 3.8-.5z" id="at"/><path fill="url(#i)" d="M298.05 607.45H312q2.2 0 3.45-1.35 1.3-1.5.25-3.6-2.9-5.45-10.7-5.45-7.8 0-10.6 5.45-1.15 2.1.2 3.6 1.2 1.35 3.45 1.35z" id="au"/><path fill="url(#j)" d="M304.45 598.5q-2.25 0-3.8.5-1.6.55-1.6 1.25t1.6 1.2q1.55.5 3.8.5 2.2 0 3.8-.5 1.55-.5 1.55-1.2t-1.55-1.25q-1.6-.5-3.8-.5z" id="av"/><path fill="url(#k)" d="M313.25 538.7l-25.4-3.75q-7.35 2.2-9.05 2.8-3.1 1.25-4.1 2.85-1 1.55-1 5 0 2.3.4 9.45.3 8.45-.35 13.45-.8 6.55-3.4 9.8-1.85 2.4-1.85 2.45-1.05 1.65-.9 3 .1.8 1.15 1.25.65.3 2.9 1.2 7.35 3.55 22.95 3.7 15.75.1 22.4-3.5 3.3-1.8 2.95-3.85-.15-1.1-2.45-3.9-4-4.85-3.9-21.5.2-8.3.25-11.6.05-5.55-.6-6.85z" id="aw"/><path fill="url(#l)" d="M309.95 586.8l5.1-2.7q-4.55-6.05-7.8-19.7-1.1 10.8 2.7 22.4z" id="ax"/><path fill="url(#m)" d="M291.15 588.35q1 .25 2.95.25 1.95.05 2.85.25.35-6.35.1-9.95-.45-7.2-2.8-13.05.2 4.6-.7 11.6-.95 7.45-2.4 10.9z" id="ay"/><path fill="url(#n)" d="M276.65 584.4l5.5 2.15q1.35-7.5 1.55-10.05.25-4.65-.85-11.45-1.35 11.45-6.2 19.35z" id="az"/><path fill="#FFF" d="M269.2 583.6q-1.2-.9-1.55-.2-.35.35.45 1.35 1.9 2.45 9.15 4.35 7.4 1.85 16.25 2.05 9.05.25 16.4-1.6 8.25-2.05 10.1-5.85.2-.55-.15-.75-.2-.05-1.15.75-1.3 1.1-1.75 1.2-.5.1-1.6-.65-1.25-.85-2.55-.4-1.15.4-3.45 2.3-2.4 2-4.75 1.9-1.4 0-3.9-1.1-3.5-1.65-5.25-1.8-2.5-.15-3.95 2.2-1.15 1.95-4.15.55-3.55-2.2-5.2-3.05-1.75-.9-3.35-.85-1.85 0-2.5 1.35-1 2.1-3.4.95-.4-.2-3.7-2.7z" id="aA"/><path fill="url(#o)" d="M338.6 472.5l-9.75.4 4.1 40-2.55 15.7q4.55 1.65 8.35-.85 3.75-2.5 4.95-7.7 1.65-7.25-.05-18.45-.65-4.55-2.45-11.85-2.6-11.6-2.6-17.25z" id="aB"/><path fill="url(#p)" d="M337.15 474.7l-5.45-3.1q-.1.25-.1.9l3.05 2.7q0 7.4 4.75 28.5 2.85 18.45-5 22.65-.7.45-.35.95.35.45 1.15 0 8.4-4.95 5.95-24.05-4.3-21.45-4-28.55z" id="aC"/><path fill="#3A3B54" d="M303.9 530.55q3.45 1.75 8.15 1.65 4.85-.15 9.05-2.35 1.6-.9 3.05-.85 2.15 0 3.3-.25l6.9-15.35-3.3-37.95-14.2 2.95-12.95 52.15z" id="aD"/><path fill="url(#q)" d="M320.5 530.1q-3 1.35-2.05 2.85.9 1.55 5.4.5 3.25-.75 6-3.15 2.6-2.25 4.35-5.6 2.8-5.2 2.8-12.8 0-3.65-1.2-13.3-1.35-10.3-1.6-12.65-.8-7.65-.65-14.95l-6.7-3q-1.3 8.45-.25 19.95.6 6.45 2.2 18.2 1 9.6-.4 14.65-1.75 6.55-7.9 9.3z" id="aE"/><path fill="url(#r)" d="M323.75 466.3q-.15.9-.15 1.05l3.4 1.95q-.1 7.1 1.15 14.8.7 4.4 2.3 12.75 1.4 7.95 1.3 14.5-.15 9.8-3.55 14.95-2.25 3.25-5.4 4.4-.9.3-.5.9.4.55 1.4.1 3.25-1.4 5.65-4.1 4.3-5.15 4.95-14.5.35-5.9-.8-14.45-1.35-8.65-2-13.55-1.05-8.65-1-15.8l-6.75-3z" id="aF"/><path fill="url(#s)" d="M258.4 472.9l-9.75-.4q0 5.65-2.6 17.25-1.8 7.3-2.45 11.85-1.7 11.2-.05 18.45 1.2 5.2 4.95 7.7 3.8 2.5 8.35.85l-2.6-15.7 4.15-40z" id="aG"/><path fill="url(#t)" d="M255.45 471.6l-5.55 3.1q.35 7.1-3.95 28.55-2.45 19.1 5.95 24.05.8.5 1.15 0 .4-.5-.35-.95-7.9-4.2-5.05-22.65 4.75-21.1 4.75-28.5l3.1-2.7-.05-.9z" id="aH"/><path fill="#3A3B54" d="M270.4 478.4l-14.2-2.95-3.3 37.95 6.9 15.35q1.15.25 3.3.25 1.4-.05 3.05.85 4.2 2.2 9.05 2.35 4.7.1 8.15-1.65L270.4 478.4z" id="aI"/><path fill="url(#u)" d="M285.95 526.9v6.1q0 3 2.65 4.8 2.4 1.6 5.85 1.6 3.45 0 5.85-1.6 2.65-1.8 2.65-4.8v-6.1h-17z" id="aJ"/><path fill="url(#v)" d="M272.5 456.85q-8.7 5.45-11.95 17.05-.55 1.95-.4 9.3.2 7.85-.1 9.75-1.6 10.8-.15 17.2 1.8 7.8 8.85 14.35 5.1 4.75 11.55 7.35 6.6 2.7 13.65 2.75 7.05-.05 13.6-2.75 6.45-2.6 11.45-7.35 6.4-5.9 8.45-12.7 1.8-5.85.9-14.65-.2-1.85-1.65-11.75-1.05-7.1-1.15-11.8-.3-11.6-9.55-17.1-7.95-4.7-22.05-4.85-13.35.1-21.45 5.2z" id="aK"/><path fill="#40415D" d="M313.9 477.9l-17.05-24.6-13.75 24.9 30.8-.3z" id="aL"/><path fill="url(#w)" d="M261.2 467.85l-6.8 3.15q.15 7-.95 14.95-.65 4.45-2 12.65-1.2 9.65-1.2 13.3 0 7.6 2.8 12.8 1.75 3.35 4.35 5.6 2.75 2.4 6 3.15 2.35.6 3.75.35 1.15-.25 1.45-1 .3-.7-.15-1.45-.5-.8-1.7-1.3-8.2-3.75-8.65-14.95-.2-4.2.65-11.3 1.1-8.4 1.55-12.9 1-8.2 1.2-11.35.45-6.6-.3-11.7z" id="aM"/><path fill="url(#x)" d="M263.4 466.3l-6.75 3q.1 7.1-1 15.8-.6 4.9-1.95 13.55-1.2 8.45-.8 14.45.6 9.35 4.9 14.5 2.4 2.75 5.7 4.1.95.45 1.4-.1.4-.6-.45-.9-3.35-1.2-5.4-4.4-5.8-8.6-2.35-29.45 1.65-8.35 2.35-12.75 1.2-7.75 1.15-14.8l3.35-1.95q0-.6-.15-1.05z" id="aN"/><path fill="url(#y)" d="M295.15 434.05h-2.45q-18.9.1-32.2 10.55-14.35 11.3-11.4 27.5.1.6 1.45 1.85 1.2 1.15 1.05 1.8h33.2q2.3-1 6.45-7.1 4.25-6.55 5.3-8 .65.85 3.1 8 2.1 6.15 4.25 7.1h32.3q-.15-.65.8-1.8 1.15-1.3 1.25-1.85 2.95-16.25-11.2-27.5-13.1-10.45-31.9-10.55z" id="aO"/><path fill="#FDF3E5" d="M294.5 509.15q-.5 0-.9.4-.35.45-.35 1t.35.95q.4.4.9.4.55 0 .95-.4.35-.4.35-.95 0-.55-.35-1-.4-.4-.95-.4z" id="aP"/><path fill="#FCE5C7" d="M273.15 504.1q-3.65 0-6.2 2.6-2.6 2.6-2.6 6.2 0 3.65 2.6 6.2 2.55 2.6 6.2 2.6 3.6 0 6.15-2.6 2.55-2.55 2.55-6.2 0-3.6-2.55-6.2t-6.15-2.6z" id="aQ"/><path fill="#FCE4C6" d="M273.15 504.3q-3.55 0-6.1 2.55-2.5 2.5-2.5 6.05t2.5 6.1q2.55 2.5 6.1 2.5t6-2.5q2.5-2.55 2.5-6.1t-2.5-6.05q-2.5-2.55-6-2.55z" id="aR"/><path fill="#FCE4C5" d="M273.15 504.5q-3.5 0-5.95 2.5-2.45 2.45-2.45 5.9t2.45 5.95q2.45 2.45 5.95 2.45 3.45 0 5.9-2.45 2.4-2.5 2.4-5.95t-2.4-5.9q-2.45-2.5-5.9-2.5z" id="aS"/><path fill="#FCE3C4" d="M273.15 504.7q-3.4 0-5.8 2.4-2.45 2.45-2.45 5.8 0 3.35 2.45 5.8 2.4 2.4 5.8 2.4 3.35 0 5.75-2.4t2.4-5.8q0-3.4-2.4-5.8t-5.75-2.4z" id="aT"/><path fill="#FCE2C3" d="M273.15 504.9q-3.3 0-5.65 2.35-2.4 2.35-2.4 5.65 0 3.3 2.4 5.7 2.35 2.35 5.65 2.35 3.3 0 5.65-2.35 2.3-2.4 2.3-5.7 0-3.3-2.3-5.65-2.35-2.35-5.65-2.35z" id="aU"/><path fill="#FCE1C2" d="M273.15 505.1q-3.25 0-5.55 2.3t-2.3 5.5q0 3.25 2.3 5.55 2.35 2.3 5.55 2.3 3.2 0 5.5-2.3 2.25-2.3 2.25-5.55t-2.25-5.5q-2.3-2.3-5.5-2.3z" id="aV"/><path fill="#FCE1C1" d="M273.15 505.25q-3.15 0-5.4 2.25-2.25 2.25-2.25 5.4 0 3.15 2.25 5.4 2.25 2.25 5.4 2.25 3.15 0 5.35-2.25 2.2-2.25 2.2-5.4 0-3.15-2.2-5.4-2.2-2.25-5.35-2.25z" id="aW"/><path fill="#FCE0C0" d="M273.15 505.45q-3.05 0-5.25 2.2t-2.2 5.25q0 3.1 2.2 5.25 2.2 2.2 5.25 2.2t5.2-2.2q2.15-2.15 2.15-5.25t-2.15-5.25q-2.15-2.2-5.2-2.2z" id="aX"/><path fill="#FCDFBF" d="M273.15 505.65q-3 0-5.15 2.15-2.15 2.1-2.15 5.1 0 3 2.15 5.15 2.15 2.1 5.15 2.1 2.95 0 5.1-2.1 2.1-2.15 2.1-5.15 0-3-2.1-5.1-2.15-2.15-5.1-2.15z" id="aY"/><path fill="#FCDEBE" d="M273.15 505.85q-2.9 0-5 2.1-2.1 2.05-2.1 4.95 0 2.9 2.1 5 2.05 2.05 5 2.05 2.9 0 4.95-2.05 2.05-2.1 2.05-5t-2.05-4.95q-2.05-2.1-4.95-2.1z" id="aZ"/><path fill="#FCDDBD" d="M273.15 506.05q-2.85 0-4.85 2-2.05 2.05-2.05 4.85 0 2.85 2.05 4.9 2 2 4.85 2 2.8 0 4.8-2 2-2.05 2-4.9 0-2.8-2-4.85-2-2-4.8-2z" id="ba"/><path fill="#FCDDBC" d="M273.15 506.25q-2.75 0-4.75 1.95-1.95 1.95-1.95 4.7 0 2.8 1.95 4.75 2 1.95 4.75 1.95t4.65-1.95q1.95-1.95 1.95-4.75 0-2.75-1.95-4.7-1.9-1.95-4.65-1.95z" id="bb"/><path fill="#FCDCBC" d="M273.15 506.4q-2.7 0-4.6 1.9-1.9 1.95-1.9 4.6 0 2.7 1.9 4.6 1.9 1.9 4.6 1.9 2.65 0 4.55-1.9 1.85-1.9 1.85-4.6 0-2.65-1.85-4.6-1.9-1.9-4.55-1.9z" id="bc"/><path fill="#FCDBBB" d="M273.15 506.6q-2.6 0-4.45 1.85-1.9 1.85-1.9 4.45t1.9 4.45q1.85 1.85 4.45 1.85t4.4-1.85q1.85-1.85 1.85-4.45t-1.85-4.45q-1.8-1.85-4.4-1.85z" id="bd"/><path fill="#FCDABA" d="M273.15 506.8q-2.5 0-4.35 1.8-1.8 1.8-1.8 4.3t1.8 4.3q1.85 1.8 4.35 1.8 2.5 0 4.3-1.8 1.75-1.8 1.75-4.3t-1.75-4.3q-1.8-1.8-4.3-1.8z" id="be"/><path fill="#FCD9B9" d="M273.15 507q-2.45 0-4.2 1.75-1.75 1.7-1.75 4.15t1.75 4.15q1.75 1.75 4.2 1.75t4.15-1.75q1.7-1.7 1.7-4.15t-1.7-4.15q-1.7-1.75-4.15-1.75z" id="bf"/><path fill="#FCD9B8" d="M273.15 507.2q-2.35 0-4.05 1.65-1.7 1.7-1.7 4.05 0 2.35 1.7 4.05 1.7 1.7 4.05 1.7 2.35 0 4-1.7t1.65-4.05q0-2.35-1.65-4.05-1.65-1.65-4-1.65z" id="bg"/><path fill="#FCD8B7" d="M273.15 507.4q-2.3 0-3.9 1.6-1.65 1.6-1.65 3.9t1.65 3.9q1.6 1.65 3.9 1.65t3.85-1.65q1.6-1.6 1.6-3.9T277 509q-1.55-1.6-3.85-1.6z" id="bh"/><path fill="#FCD7B6" d="M273.15 507.55q-2.2 0-3.8 1.55-1.6 1.6-1.6 3.8 0 2.2 1.6 3.8 1.6 1.55 3.8 1.55 2.2 0 3.75-1.55 1.55-1.6 1.55-3.8 0-2.2-1.55-3.8-1.55-1.55-3.75-1.55z" id="bi"/><path fill="#FCD6B5" d="M273.15 507.75q-2.15 0-3.65 1.5-1.55 1.5-1.55 3.65t1.55 3.65q1.5 1.5 3.65 1.5 2.1 0 3.6-1.5t1.5-3.65q0-2.15-1.5-3.65t-3.6-1.5z" id="bj"/><path fill="#FCD6B4" d="M273.15 507.95q-2.05 0-3.55 1.45-1.45 1.45-1.45 3.5t1.45 3.5q1.5 1.45 3.55 1.45t3.45-1.45q1.45-1.45 1.45-3.5t-1.45-3.5q-1.45-1.45-3.45-1.45z" id="bk"/><path fill="#FCD5B3" d="M273.15 508.15q-2 0-3.4 1.4t-1.4 3.35q0 2 1.4 3.35 1.4 1.4 3.4 1.4 1.95 0 3.35-1.4 1.35-1.35 1.35-3.35 0-1.95-1.35-3.35-1.4-1.4-3.35-1.4z" id="bl"/><path fill="#FCD4B2" d="M273.15 508.35q-1.9 0-3.25 1.35-1.35 1.3-1.35 3.2 0 1.9 1.35 3.25t3.25 1.35q1.9 0 3.2-1.35 1.3-1.35 1.3-3.25t-1.3-3.2q-1.35-1.35-3.2-1.35z" id="bm"/><path fill="#FCD3B1" d="M273.15 508.55q-1.85 0-3.15 1.3-1.3 1.25-1.3 3.05 0 1.8 1.3 3.1t3.15 1.3q1.8 0 3.1-1.3 1.25-1.3 1.25-3.1t-1.25-3.05q-1.3-1.3-3.1-1.3z" id="bn"/><path fill="#FCD2B0" d="M273.15 508.7q-1.75 0-3 1.25t-1.25 2.95q0 1.7 1.25 2.95 1.25 1.25 3 1.25 1.7 0 2.95-1.25 1.2-1.2 1.2-2.95 0-1.75-1.2-2.95-1.25-1.25-2.95-1.25z" id="bo"/><path fill="#FCD2AF" d="M273.15 508.9q-1.65 0-2.85 1.2-1.2 1.15-1.2 2.8t1.2 2.85q1.2 1.15 2.85 1.15 1.65 0 2.8-1.15 1.15-1.2 1.15-2.85 0-1.65-1.15-2.8-1.15-1.2-2.8-1.2z" id="bp"/><path fill="#FCD1AE" d="M273.15 509.1q-1.6 0-2.7 1.1-1.15 1.15-1.15 2.7 0 1.55 1.15 2.7 1.1 1.1 2.7 1.1 1.55 0 2.65-1.1 1.1-1.1 1.1-2.7t-1.1-2.7q-1.1-1.1-2.65-1.1z" id="bq"/><path fill="#FCD0AD" d="M273.15 509.3q-1.5 0-2.55 1.05-1.1 1.05-1.1 2.55 0 1.5 1.1 2.55 1.05 1.05 2.55 1.05 1.5 0 2.55-1.05 1.05-1.05 1.05-2.55 0-1.5-1.05-2.55-1.05-1.05-2.55-1.05z" id="br"/><path fill="#FCCFAC" d="M273.15 509.5q-1.45 0-2.45 1-1.05 1-1.05 2.4t1.05 2.45q1 1 2.45 1 1.4 0 2.4-1t1-2.45q0-1.4-1-2.4-.95-1-2.4-1z" id="bs"/><path fill="#FCCEAB" d="M273.15 509.7q-1.35 0-2.3.95-1 .9-1 2.25t1 2.3q.95.95 2.3.95 1.35 0 2.3-.95.9-.95.9-2.3 0-1.35-.9-2.25-.95-.95-2.3-.95z" id="bt"/><path fill="#FCCDAB" d="M273.15 509.85q-1.25 0-2.2.9-.9.9-.9 2.15t.9 2.15q.9.9 2.2.9 1.25 0 2.1-.9.9-.9.9-2.15t-.9-2.15q-.85-.9-2.1-.9z" id="bu"/><path fill="#FCCDAA" d="M273.15 510.05q-1.2 0-2.05.85-.85.85-.85 2 0 1.2.85 2.05.85.8 2.05.8 1.15 0 2-.8.8-.85.8-2.05 0-1.15-.8-2-.85-.85-2-.85z" id="bv"/><path fill="#FCCCA9" d="M273.15 510.25q-1.1 0-1.9.8-.8.75-.8 1.85t.8 1.9q.75.75 1.9.75 1.1 0 1.85-.75.8-.8.8-1.9 0-1.1-.8-1.85-.75-.8-1.85-.8z" id="bw"/><path fill="#FCCBA8" d="M273.15 510.45q-1.05 0-1.8.7-.75.75-.75 1.75 0 1.05.75 1.75t1.8.7q1 0 1.75-.7.7-.7.7-1.75 0-1-.7-1.75-.75-.7-1.75-.7z" id="bx"/><path fill="#FCCAA7" d="M273.15 510.65q-.95 0-1.65.65t-.7 1.6q0 .95.7 1.6.7.7 1.65.7t1.6-.7q.65-.65.65-1.6 0-.95-.65-1.6-.65-.65-1.6-.65z" id="by"/><path fill="#FCC9A6" d="M273.15 510.85q-.85 0-1.5.6t-.65 1.45q0 .85.65 1.5.65.6 1.5.6t1.45-.6q.6-.65.6-1.5t-.6-1.45q-.6-.6-1.45-.6z" id="bz"/><path fill="#FCC9A5" d="M273.15 511q-.8 0-1.35.55-.6.55-.6 1.35t.6 1.35q.55.55 1.35.55t1.3-.55q.55-.55.55-1.35t-.55-1.35q-.5-.55-1.3-.55z" id="bA"/><path fill="#FCC8A4" d="M273.15 511.2q-.7 0-1.25.5-.5.5-.5 1.2t.5 1.2q.55.5 1.25.5t1.2-.5q.5-.5.5-1.2t-.5-1.2q-.5-.5-1.2-.5z" id="bB"/><path fill="#FCC7A3" d="M273.15 511.4q-.65 0-1.1.45-.5.4-.5 1.05t.5 1.05q.45.45 1.1.45.65 0 1.05-.45.45-.4.45-1.05t-.45-1.05q-.4-.45-1.05-.45z" id="bC"/><path fill="#FCC6A2" d="M273.15 511.6q-.55 0-1 .35-.4.4-.4.95 0 .55.4.95.45.4 1 .4t.95-.4q.35-.4.35-.95 0-.55-.35-.95-.4-.35-.95-.35z" id="bD"/><path fill="#FCC5A1" d="M273.15 511.8q-.5 0-.85.3t-.35.8q0 .5.35.8.35.35.85.35.45 0 .8-.35.3-.3.3-.8t-.3-.8q-.35-.3-.8-.3z" id="bE"/><path fill="#FCC5A0" d="M273.15 511.95q-.4 0-.7.3-.3.25-.3.65t.3.7q.3.25.7.25.9 0 .9-.95 0-.4-.25-.65-.3-.3-.65-.3z" id="bF"/><path fill="#FCC49F" d="M273.15 512.15q-.8 0-.8.75t.8.75q.75 0 .75-.75 0-.3-.2-.5-.25-.25-.55-.25z" id="bG"/><path fill="#FCC39E" d="M273.15 512.35q-.65 0-.65.55t.65.55q.55 0 .55-.55t-.55-.55z" id="bH"/><path fill="#FCC29E" d="M273.15 512.55q-.45 0-.45.35t.45.35q.35 0 .35-.35t-.35-.35z" id="bI"/><path fill="#FCE5C7" d="M314.7 504.1q-3.6 0-6.2 2.6-2.55 2.6-2.55 6.2 0 3.65 2.55 6.2 2.55 2.6 6.2 2.6 3.6 0 6.2-2.6 2.55-2.55 2.55-6.2 0-3.6-2.55-6.2-2.6-2.6-6.2-2.6z" id="bJ"/><path fill="#FCE4C6" d="M314.7 504.3q-3.55 0-6.05 2.55-2.5 2.5-2.5 6.05t2.5 6.1q2.5 2.5 6.05 2.5t6.05-2.5q2.55-2.55 2.55-6.1 0-3.5-2.55-6.05-2.5-2.55-6.05-2.55z" id="bK"/><path fill="#FCE4C5" d="M314.7 504.5q-3.45 0-5.9 2.5-2.45 2.45-2.45 5.9t2.45 5.95q2.45 2.45 5.9 2.45t5.95-2.45q2.45-2.5 2.45-5.95t-2.45-5.9q-2.5-2.5-5.95-2.5z" id="bL"/><path fill="#FCE3C4" d="M314.7 504.7q-3.4 0-5.8 2.4-2.35 2.4-2.35 5.8t2.35 5.8q2.4 2.4 5.8 2.4t5.8-2.4q2.4-2.4 2.4-5.8 0-3.35-2.4-5.8-2.4-2.4-5.8-2.4z" id="bM"/><path fill="#FCE2C3" d="M314.7 504.9q-3.3 0-5.6 2.35-2.35 2.35-2.35 5.65 0 3.3 2.35 5.7 2.3 2.35 5.6 2.35t5.65-2.35q2.35-2.4 2.35-5.7 0-3.3-2.35-5.65-2.35-2.35-5.65-2.35z" id="bN"/><path fill="#FCE1C2" d="M314.7 505.1q-3.2 0-5.5 2.3t-2.3 5.5q0 3.25 2.3 5.55t5.5 2.3q3.2 0 5.5-2.3t2.3-5.55q0-3.2-2.3-5.5-2.25-2.3-5.5-2.3z" id="bO"/><path fill="#FCE1C1" d="M314.7 505.25q-3.15 0-5.35 2.25-2.25 2.25-2.25 5.4 0 3.15 2.25 5.4 2.2 2.25 5.35 2.25 3.15 0 5.4-2.25 2.25-2.25 2.25-5.4 0-3.15-2.25-5.4-2.25-2.25-5.4-2.25z" id="bP"/><path fill="#FCE0C0" d="M314.7 505.45q-3.05 0-5.25 2.2-2.15 2.15-2.15 5.25t2.15 5.25q2.2 2.2 5.25 2.2t5.25-2.2q2.2-2.2 2.2-5.25t-2.2-5.25q-2.2-2.2-5.25-2.2z" id="bQ"/><path fill="#FCDFBF" d="M314.7 505.65q-3 0-5.1 2.15-2.1 2.1-2.1 5.1 0 3 2.1 5.15 2.1 2.1 5.1 2.1 2.95 0 5.1-2.1 2.15-2.15 2.15-5.15 0-3-2.15-5.1-2.15-2.15-5.1-2.15z" id="bR"/><path fill="#FCDEBE" d="M314.7 505.85q-2.9 0-4.95 2.1-2.05 2.05-2.05 4.95 0 2.95 2.05 5t4.95 2.05q2.9 0 4.95-2.05 2.1-2.1 2.1-5t-2.1-4.95q-2.05-2.1-4.95-2.1z" id="bS"/><path fill="#FCDDBD" d="M314.7 506.05q-2.85 0-4.85 2-2 2.05-2 4.85 0 2.85 2 4.9 2 2 4.85 2 2.8 0 4.85-2 2-2.05 2-4.9 0-2.8-2-4.85-2.05-2-4.85-2z" id="bT"/><path fill="#FCDDBC" d="M314.7 506.25q-2.75 0-4.7 1.95-1.95 1.95-1.95 4.7 0 2.8 1.95 4.75 1.95 1.95 4.7 1.95t4.7-1.95q2-2 2-4.75t-2-4.7q-1.95-1.95-4.7-1.95z" id="bU"/><path fill="#FCDCBC" d="M314.7 506.4q-2.7 0-4.55 1.9-1.9 1.95-1.9 4.6 0 2.7 1.9 4.6 1.85 1.9 4.55 1.9 2.65 0 4.6-1.9 1.9-1.9 1.9-4.6 0-2.65-1.9-4.6-1.95-1.9-4.6-1.9z" id="bV"/><path fill="#FCDBBB" d="M314.7 506.6q-2.6 0-4.45 1.85-1.8 1.85-1.8 4.45t1.8 4.45q1.85 1.85 4.45 1.85t4.45-1.85q1.85-1.85 1.85-4.45t-1.85-4.45q-1.85-1.85-4.45-1.85z" id="bW"/><path fill="#FCDABA" d="M314.7 506.8q-2.55 0-4.3 1.8t-1.75 4.3q0 2.55 1.75 4.3 1.75 1.8 4.3 1.8 2.5 0 4.3-1.8 1.8-1.8 1.8-4.3t-1.8-4.3q-1.8-1.8-4.3-1.8z" id="bX"/><path fill="#FCD9B9" d="M314.7 507q-2.45 0-4.15 1.75-1.75 1.7-1.75 4.15t1.75 4.15q1.7 1.75 4.15 1.75t4.15-1.75q1.75-1.7 1.75-4.15t-1.75-4.15q-1.7-1.75-4.15-1.75z" id="bY"/><path fill="#FCD9B8" d="M314.7 507.2q-2.35 0-4.05 1.65-1.65 1.7-1.65 4.05 0 2.35 1.65 4.05 1.7 1.7 4.05 1.7 2.35 0 4.05-1.7 1.7-1.7 1.7-4.05 0-2.35-1.7-4.05-1.7-1.65-4.05-1.65z" id="bZ"/><path fill="#FCD8B7" d="M314.7 507.4q-2.3 0-3.9 1.6t-1.6 3.9q0 2.3 1.6 3.9 1.6 1.65 3.9 1.65t3.9-1.65q1.65-1.6 1.65-3.9t-1.65-3.9q-1.6-1.6-3.9-1.6z" id="ca"/><path fill="#FCD7B6" d="M314.7 507.55q-2.2 0-3.75 1.55-1.55 1.6-1.55 3.8 0 2.2 1.55 3.8 1.55 1.55 3.75 1.55t3.75-1.55q1.6-1.6 1.6-3.8 0-2.2-1.6-3.8-1.55-1.55-3.75-1.55z" id="cb"/><path fill="#FCD6B5" d="M314.7 507.75q-2.15 0-3.6 1.5-1.5 1.5-1.5 3.65t1.5 3.65q1.45 1.5 3.6 1.5 2.1 0 3.65-1.5 1.5-1.5 1.5-3.65t-1.5-3.65q-1.55-1.5-3.65-1.5z" id="cc"/><path fill="#FCD6B4" d="M314.7 507.95q-2.05 0-3.5 1.45-1.45 1.45-1.45 3.5t1.45 3.5q1.45 1.45 3.5 1.45t3.5-1.45q1.45-1.45 1.45-3.5 0-2-1.45-3.5-1.45-1.45-3.5-1.45z" id="cd"/><path fill="#FCD5B3" d="M314.7 508.15q-2 0-3.35 1.4-1.4 1.4-1.4 3.35 0 2 1.4 3.35 1.35 1.4 3.35 1.4 1.95 0 3.4-1.4 1.4-1.35 1.4-3.35 0-1.95-1.4-3.35-1.45-1.4-3.4-1.4z" id="ce"/><path fill="#FCD4B2" d="M314.7 508.35q-1.9 0-3.25 1.35-1.3 1.3-1.3 3.2 0 1.9 1.3 3.25 1.35 1.35 3.25 1.35t3.25-1.35q1.35-1.35 1.35-3.25 0-1.85-1.35-3.2t-3.25-1.35z" id="cf"/><path fill="#FCD3B1" d="M314.7 508.55q-1.85 0-3.1 1.3-1.25 1.25-1.25 3.05 0 1.8 1.25 3.1 1.3 1.3 3.1 1.3t3.1-1.3q1.3-1.3 1.3-3.1t-1.3-3.05q-1.3-1.3-3.1-1.3z" id="cg"/><path fill="#FCD2B0" d="M314.7 508.7q-1.75 0-2.95 1.25-1.2 1.2-1.2 2.95 0 1.75 1.2 2.95 1.2 1.25 2.95 1.25 1.75 0 2.95-1.25 1.25-1.2 1.25-2.95 0-1.7-1.25-2.95-1.2-1.25-2.95-1.25z" id="ch"/><path fill="#FCD2AF" d="M314.7 508.9q-1.65 0-2.8 1.2-1.2 1.15-1.2 2.8t1.2 2.85q1.15 1.15 2.8 1.15t2.85-1.15q1.15-1.2 1.15-2.85 0-1.65-1.15-2.8-1.2-1.2-2.85-1.2z" id="ci"/><path fill="#FCD1AE" d="M314.7 509.1q-1.55 0-2.7 1.1-1.1 1.15-1.1 2.7 0 1.6 1.1 2.7 1.15 1.1 2.7 1.1 1.6 0 2.7-1.1 1.15-1.15 1.15-2.7 0-1.55-1.15-2.7-1.1-1.1-2.7-1.1z" id="cj"/><path fill="#FCD0AD" d="M314.7 509.3q-1.5 0-2.55 1.05-1.05 1.05-1.05 2.55 0 1.5 1.05 2.55 1.05 1.05 2.55 1.05 1.5 0 2.6-1.05 1.05-1.05 1.05-2.55 0-1.5-1.05-2.55-1.1-1.05-2.6-1.05z" id="ck"/><path fill="#FCCFAC" d="M314.7 509.5q-1.4 0-2.4 1t-1 2.4q0 1.45 1 2.45 1 1 2.4 1t2.4-1q1.05-1.05 1.05-2.45 0-1.4-1.05-2.4-1-1-2.4-1z" id="cl"/><path fill="#FCCEAB" d="M314.7 509.7q-1.35 0-2.25.95-.95.9-.95 2.25t.95 2.3q.9.95 2.25.95 1.3 0 2.3-.95.95-.95.95-2.3 0-1.35-.95-2.25-.95-.95-2.3-.95z" id="cm"/><path fill="#FCCDAB" d="M314.7 509.85q-1.25 0-2.15.9-.9.9-.9 2.15 0 1.3.9 2.15.9.9 2.15.9t2.15-.9q.9-.9.9-2.15t-.9-2.15q-.9-.9-2.15-.9z" id="cn"/><path fill="#FCCDAA" d="M314.7 510.05q-1.2 0-2 .85-.85.85-.85 2 0 1.2.85 2.05.8.8 2 .8t2.05-.8q.85-.85.85-2.05 0-1.15-.85-2-.9-.85-2.05-.85z" id="co"/><path fill="#FCCCA9" d="M314.7 510.25q-1.1 0-1.9.8-.75.75-.75 1.85 0 1.15.75 1.9.8.75 1.9.75 1.1 0 1.9-.75.8-.8.8-1.9 0-1.1-.8-1.85-.8-.8-1.9-.8z" id="cp"/><path fill="#FCCBA8" d="M314.7 510.45q-1.05 0-1.75.7-.7.75-.7 1.75 0 1.05.7 1.75t1.75.7q1.05 0 1.75-.7.75-.7.75-1.75 0-1-.75-1.75-.75-.7-1.75-.7z" id="cq"/><path fill="#FCCAA7" d="M314.7 510.65q-.95 0-1.6.65-.65.65-.65 1.6 0 .95.65 1.6.65.7 1.6.7.95 0 1.6-.7.7-.65.7-1.6 0-.95-.7-1.6-.65-.65-1.6-.65z" id="cr"/><path fill="#FCC9A6" d="M314.7 510.85q-.9 0-1.5.6t-.6 1.45q0 .85.6 1.5.6.6 1.5.6.85 0 1.5-.6.6-.65.6-1.5t-.6-1.45q-.65-.6-1.5-.6z" id="cs"/><path fill="#FCC9A5" d="M314.7 511q-.8 0-1.35.55t-.55 1.35q0 .8.55 1.35t1.35.55q.8 0 1.35-.55.6-.55.6-1.35t-.6-1.35q-.55-.55-1.35-.55z" id="ct"/><path fill="#FCC8A4" d="M314.7 511.2q-.7 0-1.2.5t-.5 1.2q0 .7.5 1.2t1.2.5q.7 0 1.25-.5.5-.5.5-1.2t-.5-1.2q-.55-.5-1.25-.5z" id="cu"/><path fill="#FCC7A3" d="M314.7 511.4q-.65 0-1.05.45-.45.4-.45 1.05t.45 1.05q.4.45 1.05.45t1.1-.45q.45-.4.45-1.05t-.45-1.05q-.45-.45-1.1-.45z" id="cv"/><path fill="#FCC6A2" d="M314.7 511.6q-.55 0-.95.35-.4.4-.4.95 0 .55.4.95.4.4.95.4.55 0 .95-.4.4-.4.4-.95 0-.55-.4-.95-.4-.35-.95-.35z" id="cw"/><path fill="#FCC5A1" d="M314.7 511.8q-.5 0-.8.3-.35.3-.35.8t.35.8q.3.35.8.35.45 0 .8-.35.35-.3.35-.8 0-.45-.35-.8-.35-.3-.8-.3z" id="cx"/><path fill="#FCC5A0" d="M314.7 511.95q-.4 0-.7.3-.25.25-.25.65 0 .95.95.95.4 0 .7-.25.3-.3.3-.7 0-.35-.3-.65-.3-.3-.7-.3z" id="cy"/><path fill="#FCC49F" d="M314.7 512.15q-.75 0-.75.75t.75.75q.8 0 .8-.75 0-.3-.25-.5-.25-.25-.55-.25z" id="cz"/><path fill="#FCC39E" d="M314.7 512.35q-.55 0-.55.55t.55.55q.6 0 .6-.55t-.6-.55z" id="cA"/><path fill="#FCC29E" d="M314.7 512.55q-.4 0-.4.35t.4.35q.4 0 .4-.35t-.4-.35z" id="cB"/><path fill="#FDF3E5" d="M291.85 505.35q-2.45 0-4.75 2.2-2.65 2.45-2.6 5.95.05 3.25 2.1 3.7 1.2.3 4.2-.1 2.1 0 2.85-1.45.65-1.2.65-4.2 0-3.9-.1-4.45-.4-1.65-2.35-1.65z" id="cC"/><path fill="#FDF3E5" d="M294.4 523.55q4-.2 4.95-2.4.35-.75.35-3.8-.05-1.15-2.2-.15-3.2 1.45-4.7 1.45-1.55.05-4.6-1.3-2-.85-1.95.3 0 2.15 1.75 3.9 2.25 2.25 6.4 2z" id="cD"/><path fill="url(#z)" d="M298.9 517.55q-3.3 1.55-4.65 1.7-1.3-.15-4.75-1.7-2.15-1-2.2.35 0 2.15 1.5 3.7 1.9 1.95 5.45 2.05 3.5-.1 5.3-2.05 1.5-1.6 1.45-3.7 0-1.35-2.1-.35z" id="cE"/><path fill="url(#A)" d="M294 496q-2.15 0-4 3.3-1.75 3.15-1.5 6 .1 1.85 1.4 2.55 1.35.75 4.4.65 3-.1 4.25-.85 1.3-.8 1.35-2.6.1-2.85-1.75-5.9-1.95-3.2-4.15-3.15z" id="cF"/><path fill="#FBBC76" d="M299.65 506.35q0-.6-.75-1-.9-.55-1.85-.65-1.45-.65-2.9-.7-.75 0-1.65.35-.95.35-1 .35-2.6.4-2.8 1.6-.2 2.2 5.6 2.2 3-.05 4.35-.9 1-.55 1-1.25z" id="cG"/><path fill="#F36F12" d="M291.3 505.55q-.5.25-.8.7-.35.45-.3.9.05.5.45.7.45.2 1 0 .5-.15.8-.6.35-.45.25-.95-.05-.45-.45-.65-.4-.25-.95-.1z" id="cH"/><path fill="#F36F12" d="M297.9 506.2q-.35-.45-.85-.65-.55-.15-.95.1-.35.2-.4.65-.05.45.3.95.35.45.85.6.55.2.9 0t.35-.7q.1-.5-.2-.95z" id="cI"/><path fill="#FBBC76" d="M304.15 515.25q-.35-.45-.9-.45-.5.05-.85.5-.35.5-.3 1.15 0 .65.4 1.1.4.45.9.45.5-.05.85-.5t.35-1.15q-.05-.65-.45-1.1z" id="cJ"/><path fill="url(#B)" d="M294.25 509.4q-.35 0-.65.35-.25.3-.25.8t.25.85q.3.35.65.35.3 0 .55-.35.25-.35.25-.85 0-.45-.25-.8-.25-.35-.55-.35z" id="cK"/><path fill="#FBBC76" d="M285.1 514.8q-.55 0-.95.45-.35.45-.35 1.1-.05.65.3 1.15.3.45.85.5.5 0 .9-.45t.45-1.1q0-.7-.35-1.15-.35-.45-.85-.5z" id="cL"/><path fill="url(#C)" d="M294.25 515.65q-3.35-.35-4.85-.1-2.15.3-2.15 1.75-.05 1.8 1.5 2.9 1.75 1.35 5.5 1.4 3.6-.05 5.4-1.4 1.5-1.1 1.5-2.9-.05-1.45-2.2-1.75-1.45-.25-4.7.1z" id="cM"/><path fill="#FD765D" d="M294.25 521.05l.8-4.3-.8-.15-.8.15.8 4.3z" id="cN"/><path fill="#E5600F" d="M271.25 488.2q-2.2 1.5-3 3.9-.65 2.05 1.05 2.45.85.2 1.5-.2.8-.45.95-1.55h8.95q.25 1.1 1 1.55.65.35 1.45.2 1.75-.4 1.1-2.45-.85-2.4-3-3.9-2.2-1.55-4.95-1.55h-.05q-2.8 0-5 1.55z" id="cO"/><path d="M269.45 494.25l1.55-3.15q-2.1 1-4.05-.25-2.2-1.35-1.95-4.75-.95 2.75.05 4.95 1.1 2.45 4.4 3.2z" id="cP"/><path d="M270.6 492.25l1.3-2.75q-1.95 1.05-3.65-.1-1.8-1.25-1-4.05-1.35 2.05-.4 4.15.95 2.15 3.75 2.75z" id="cQ"/><path fill="#FFF" d="M276.25 488q-3.05 0-5.25 2.2t-2.2 5.3q0 3.1 2.2 5.25 2.2 2.2 5.25 2.2 3.1 0 5.25-2.2 2.2-2.15 2.2-5.25t-2.2-5.3q-2.2-2.2-5.25-2.2z" id="cR"/><path fill="url(#D)" d="M276.25 489.8q-2.3 0-4 1.7-1.7 1.7-1.7 4 0 2.35 1.7 4 1.65 1.65 4 1.65t4-1.65q1.65-1.65 1.65-4t-1.65-4q-1.65-1.7-4-1.7z" id="cS"/><path fill="url(#E)" d="M276.25 500.6q2.25 0 3.8-1.8.35-.35.4-.85.05-.45-.25-.65-.65-.65-1.45.25-.9 1.2-2.5 1.2-1.5 0-2.55-1.2-.35-.5-.8-.5-.4 0-.65.25-.25.2-.25.65.05.5.4.85 1.55 1.8 3.85 1.8z" id="cT"/><path d="M276.25 492.9q-1.1 0-1.85.75t-.75 1.85q0 1.1.75 1.85t1.85.75q1.1 0 1.85-.75t.75-1.85q0-1.1-.75-1.85t-1.85-.75z" id="cU"/><path fill="#FFF" d="M278.95 495.05q-.85 0-.85.8t.85.8q.8 0 .8-.8t-.8-.8z" id="cV"/><path fill="#FFF" d="M273.95 491.95q-.7 0-1.2.5-.5.45-.5 1.1 0 .7.5 1.2.5.45 1.2.45.65 0 1.1-.45.45-.5.45-1.2 0-.65-.45-1.1-.45-.5-1.1-.5z" id="cW"/><path fill="#E5600F" d="M311.75 486.65h-.1q-2.7 0-4.9 1.55-2.2 1.5-3 3.9-.65 2.05 1.05 2.45 2 .4 2.45-1.75h8.95q.2 1.1.95 1.55.65.4 1.4.2 1.9-.4 1.15-2.45-.8-2.4-2.95-3.9-2.2-1.55-5-1.55z" id="cX"/><path d="M317 491.1l1.5 3.15q3.35-.75 4.45-3.2 1-2.2 0-4.95.25 3.4-1.9 4.75-1.95 1.25-4.05.25z" id="cY"/><path d="M316.05 489.5l1.3 2.75q2.75-.6 3.75-2.75.95-2.1-.35-4.15.8 2.8-1 4.05-1.7 1.15-3.7.1z" id="cZ"/><path fill="#FFF" d="M317 490.2q-2.2-2.2-5.25-2.2t-5.3 2.2q-2.2 2.25-2.2 5.3t2.2 5.25q2.2 2.2 5.3 2.2 3.05 0 5.25-2.2 2.15-2.15 2.15-5.25t-2.15-5.3z" id="da"/><path fill="url(#F)" d="M311.75 489.8q-2.4 0-4.05 1.7-1.65 1.65-1.65 4t1.65 4q1.65 1.65 4.05 1.65 2.35 0 4-1.65t1.65-4q0-2.35-1.65-4-1.7-1.7-4-1.7z" id="db"/><path fill="url(#G)" d="M315.55 498.8q.35-.35.4-.85 0-.45-.25-.65-.8-.65-1.5.25-.95 1.2-2.45 1.2-1.6 0-2.55-1.2-.75-.95-1.45-.25-.3.2-.25.65.05.5.4.85 1.45 1.8 3.85 1.8 2.25 0 3.8-1.8z" id="dc"/><path d="M311.75 492.9q-1.1 0-1.85.75t-.75 1.85q0 1.1.75 1.85t1.85.75q1.05 0 1.8-.75t.75-1.85q0-1.05-.75-1.85-.75-.75-1.8-.75z" id="dd"/><path fill="#FFF" d="M314.4 495.05q-.8 0-.8.8t.8.8q.8 0 .8-.8t-.8-.8z" id="de"/><path fill="#FFF" d="M309.35 491.95q-.65 0-1.15.5-.5.45-.5 1.1 0 .7.5 1.2.5.45 1.15.45.7 0 1.2-.45.45-.5.45-1.2 0-.65-.45-1.1-.5-.5-1.2-.5z" id="df"/><path fill="url(#H)" d="M291.55 518.3q-.65-.15-1.2-.05-.55.15-.65.5-.1.4.3.8.35.4 1 .55.65.25 1.2.15.55-.15.65-.5.1-.4-.25-.8-.4-.45-1.05-.65z" id="dg"/><path fill="url(#I)" d="M293.95 525.5q-1.25 0-2.15.65-.9.65-.9 1.6 0 .9.9 1.55.9.6 2.15.6t2.1-.6q.85-.65.85-1.55 0-.95-.85-1.6-.85-.65-2.1-.65z" id="dh"/><path fill="url(#J)" d="M289.65 513.75q-.2.15-1.35 1.6-.9 1.1-2 1.4-1.35.3-.15.55 1.25.25 3.35-.05 4.75-.75 9.35 0 2.15.3 3.35.05 1.2-.25-.2-.55-1.1-.3-1.95-1.4-1.2-1.5-1.35-1.6-1.95-1.8-4.45-.85-2.55-.9-4.6.85z" id="di"/><path fill="url(#K)" d="M321.95 473l-2.15 1.1 1.3 1.65h4.45l-3.6-2.75z" id="dj"/><path fill="#7A7E95" d="M275.35 474.35q-3.5.95-5.25 1.4h15.95q11-6.8 10.55-17.9-.1-1.45-.3-1.9-1.15 11.25-15.65 16.7-2.25.8-5.3 1.7z" id="dk"/><path fill="#5B617B" d="M255 475.75h.35q.3-.8.1-.65-.2.1-.45.65m3 0q2.75-.9 9.25-1.75 6.55-.85 9.7-1.85 8.25-2.5 12.95-7.25 5.6-5.65 6.65-14.8-3.05 10.65-17.85 15.35-10.35 3.45-12.95 4.5-5.8 2.4-9.95 5.8h2.2z" id="dl"/><path fill="url(#L)" d="M255.5 474.05l1.95 1.7q3.55-1.7 9.85-3.3 8-2 9.5-2.5 8.2-2.9 12.9-6.9 5.9-5.05 6.85-12.05.15-1.25.05-1.65-1.7 6.1-8.05 9.65-2.8 1.6-10.45 4-10.65 3.45-12.15 4.1-6.3 2.6-10.45 6.95z" id="dm"/><path fill="#7A7E95" d="M296.45 456.1l.1.85q-.75 5.55.5 10.4 1.3 5 4.45 8.4h4.55q-4-3.45-6.6-9.15-2.2-4.9-3-10.5z" id="dn"/><path fill="#697088" d="M320.5 466.4q-7.75-7.6-8.25-15.65-.45 7.6 2.3 14.95 2.5 6.4 7.35 10.2l8.9-1.65q-.5-.4-5.25-3.75-3.2-2.3-5.05-4.1z" id="do"/><path fill="url(#M)" d="M315.25 458q-2.45-4.25-3.1-8.3.9 9.8 4.15 15.85 3 5.65 9.05 9.7l6.6-1.2q-1-.8-5.5-4-3.4-2.45-5.3-4.35-3.6-3.6-5.9-7.7z" id="dp"/><path fill="#5B617B" d="M258 462.95q1.65-3.55-.15-.3-.294.546-.25.75l.4-.45m7.5-4.4q-4.529 1.92-7.9 4.85.075.298.8-.05 2.45-1.1 7.8-1.8 6.1-.8 8.5-1.55 6.35-2 9.9-5.6 4.3-4.3 5.1-11.35-2.4 8.2-13.7 11.85-8.15 2.65-10.5 3.65z" id="dq"/><path fill="url(#N)" d="M289.7 443.7q.15-.9.05-1.2-2.25 8.05-13.75 11.75-6.9 1.75-10.3 2.8-5.95 1.9-9 5.15-1.15 1.25-1.4 2.2-.15.5.05.65.25.25.85-.1.3-.15 1.1-.85 3-2.05 8.65-3.55 8.35-2.2 8.65-2.3 13.7-4.75 15.1-14.55z" id="dr"/><path fill="#697088" d="M301.7 466.75q2.6 6.05 6.85 9h3.95q0-.15-.6-.5-.8-.5-1.25-1-5.35-6-7.35-11.85-2.1-8.3-3.9-15.1-1.2 11.25 2.3 19.45z" id="ds"/><path fill="url(#O)" d="M310.45 475.75h3.5q-.2-.45-1-1.35-5.9-6.65-8.5-12.1-2.2-4.65-4.95-15.35.25 9.7 2.4 16.05 2.6 7.7 8.55 12.75z" id="dt"/><path fill="url(#P)" d="M248.25 468.85v6.25q22.35 4.9 45.35 4.9t45.35-4.9v-6.25q-22.35 4.85-45.35 4.85t-45.35-4.85z" id="du"/><path fill="url(#Q)" d="M248.25 470.3v6.25q22.35 4.8 45.35 4.8t45.35-4.8v-6.25q-22.35 4.85-45.35 4.85t-45.35-4.85z" id="dv"/><path fill="#FCE5C7" d="M319.95 545.1q-2.8 1.65-3.95 3.25-1.65 2.2-.75 4.7.95 2.5 3.6 3.4 2.35.85 5.6.2 3.15-.6 5.35-2.25 2.25-1.7 1.25-2.6.9-.3 1.2-1 .3-.75-.65-1.1 1.2-.6.95-1.6-.25-.95-1.3-.65.8-.6.35-1.4-.5-.8-1.8-.55-.8.2-2.85 1.3-1.85 1-2.75 1.1-.6.05-.9-.2-.45-.25.1-.8.05-.1.95-.55.9-.5 1.2-.9.4-.55.2-1.05-.2-.6-1.05-.65-2-.3-4.75 1.35z" id="dw"/><path fill="#FBD7AB" d="M316.7 553.65q.2 1.55 1.9 2.35 1.7.85 3.8.55 3.05-.5 3.65-.8 1.45-.9 1-3.55-.45-2.7-2-3.15-.75-.15-3.65.3-2.15.25-3.55 1.55t-1.15 2.75z" id="dx"/><path fill="#FBBC76" d="M332 547.5q-.35-.2-.75-.05-1.95 1.6-4.35 2.05 1.25.2 3.25-.75 1.85-.95 2.3-.8-.1-.3-.45-.45z" id="dy"/><path fill="#FBBC76" d="M332.2 550.2q-.15-.3-.5-.5-2 1.55-4.2 1.85 1.05.25 2.6-.4.8-.35 2.1-.95z" id="dz"/><path fill="#FBBC76" d="M331.3 552.45q0-.4-.2-.6-2.05 1.5-4.2 1.9 1 .15 2.35-.35.8-.3 2.05-.95z" id="dA"/><path fill="#90CFE3" d="M295.95 568.15q-.7-.65-2.45-3.75-1.55-2.7-2.45-3.05-1.75-.75-3.85.9-1.05.8-2.75 2.85-1.55 1.7-.35 5 1.2 3.25 4.45 6.15 3.2 2.95 6.6 3.85 3.35.85 4.85-.8 2.2-1.95 3.65-3.45 2.75-2.8 2.25-4.05-.35-1.05-4.45-1.85-4.5-.85-5.5-1.8z" id="dB"/><path fill="#AADFEC" d="M302.8 576.7q2.35-2.2 2.95-3.55-6.15 1.9-12.4 1.6l-2.8 3.1q2.95 2.05 5.5 2.45 2.65.45 3.95-1 1.6-1.45 2.8-2.6z" id="dC"/><path fill="url(#R)" d="M322.35 522.15q-5.2-1.45-10.55-.3-7.65 1.7-14.05 7.8-6.1 5.9-9.05 13.8-3.6 9.55-3.25 20.8.05 5.25 4.7 9.7l.4.45q4.85 4 10 3.65 11.25-.7 20.45-5.3 7.6-3.8 12.8-10.45 5.5-7.05 6.35-14.85.6-5.4-1.35-10.4-1.95-4.95-6.25-9-.1 0-.1-.1l-.2-.2q-.05-.15-.3-.15l-.05-.1q-4.45-3.9-9.55-5.35z" id="dD"/><path fill="#C2E8F1" d="M300.55 578.05q11.25-.7 20.45-5.3 7.6-3.8 12.8-10.45 5.5-7.05 6.35-14.85 1.15-10.15-6.45-18.2-2 2.85-2.95 5.9 2.3 9.55-1.6 17.6-3.4 7.05-12.4 14.3-5.05 4.05-11.6 6.4-6.45 2.3-12.7 2.3 4.05 2.65 8.1 2.3z" id="dE"/><path fill="#90CFE3" d="M330.3 537.8q1-.15 1.1-.1.75.05.6.6-.1.4-.6.75-.75.5-3 .85-2.3.35-3.15.8-1.2.6-1.05 1.55.1.95 1.15.95-1.1.35-.65 1.35.45.95 1.8.7-.55.9.2 1.35.7.35 1.6 0-.3 1.35 2.65 1.3 3.55-.05 6.25-2.1 3-2.3 2.55-5.75-.3-2-2.05-3.8-1.35-1.4-2.7-1.9-1.5-.6-3.5-.1-2 .45-3.2 1.65-.65.65-.45 1.25.15.55.85.65.55.15 1.6 0z" id="dF"/><path fill="url(#S)" d="M313.3 525.9q-7 1.75-13 8.05-5.75 6.05-8.75 14.3-3.1 8.5-2.15 16.3.3-7.3 3.7-14.35 3.3-6.8 8.75-11.7 12.3-11.1 25.8-6.15.8-.35.35-1.9-.45-1.65.2-2.2-7.15-4.25-14.9-2.35z" id="dG"/><path fill="#90CFE3" d="M322.65 526.95q-.15 1.8 1.1 4.1 1.25 2.45 3.5 4.45 2.65 2.4 5.3 2.7 1.35.15 2.3-.8.65-.6 1.35-2.05 1.85-4.95 2.65-6.7 1.35-2.8 4.7-4.35l-1.3-7.15-5.95-2.1q-1.3 3.9-4.2 6-2.25 1.6-7.25 3.15-2.05.65-2.2 2.75z" id="dH"/><path fill="url(#T)" d="M323.75 525.2q-.4.65-.05 2.05.6 2.85 3.8 5.75 3.05 2.85 6.1 3.25 1.4.15 2-.3.4-.3 1.05-1.5 3.55-7.55 12.8-11.75l-6.75-6.5-7.15-6.1q-3.3 9.65-10.35 13.95-1.2.7-1.45 1.15z" id="dI"/><path fill="#BAE5F0" d="M336.65 534.45q3.25-6.9 11.1-10.9l-2.3-4.1q-11.75 6.75-14 16.15 1 .5 2.15.65 1.4.15 2-.3.4-.3 1.05-1.5z" id="dJ"/><path fill="#90CFE3" d="M349.85 517.85q-.9-.9-4.65-4.2-3.35-3.05-5.05-4.25-2.65-1.8-4.35-1.55-.4.1-1.2 1-.4.5-1.05 1.25-1.45 1.6-.1 4.9 1.35 3.3 4.7 6.35 3.4 3.05 6.8 4.1 3.4 1 4.85-.6.9-.85 1.4-1.4.95-1.05.9-1.6-.05-1.65-2.25-4z" id="dK"/><path fill="url(#U)" d="M346.7 511.9q-3.35-3.05-6.75-4.05-3.45-1-4.9.6-1.45 1.6-.1 4.9 1.35 3.3 4.7 6.35 3.4 3.05 6.85 4.1 3.4 1 4.85-.6 1.45-1.6.1-4.9-1.4-3.35-4.75-6.4z" id="dL"/><path fill="#2991C3" d="M345.8 513q-2.2-2.05-4.45-2.7-2.25-.7-3.2.4-.95 1-.05 3.15.9 2.15 3.1 4.15 2.2 2 4.45 2.7 2.25.65 3.15-.4 1-1 .1-3.15t-3.1-4.15z" id="dM"/><path fill="#90CFE3" d="M320.4 556.4q.05-1.1-1.1-1.1.75-.6.1-1.1-.7-.5-2.05-.3-.85.15-2.85 1.25-1.85 1-2.75 1.1-.35.05-.3-.05.35-.35.65-.8-.2-.15-.25-.4-.05-.5.8-1.2.8-.7.95-1.6.2-1.05-.8-1.5-.95-.45-2.7.85-1 .7-2.6 1.95-2.55 1.45-4 3.25l-.35.45v-.1q-.1-.45-.5-.7-.4-.25-.85-.15-.5.05-.75.45-.3.4-.2.9v.1q-3.7-1-7.5-1.35-3.95-.35-5.15.25-.65-3.7-1.5-6.3-.4 1.9-2.3 5.9-1.5 3.15-1.4 5.6 0 1.95 1.35 2.6 3.55 1.6 9.3 1.9 5.2.3 7.35-.55.8-.3 1.05-.3.05 0 .85.4.65.35 1.35-.15l.45-.45q.3-.4 1-.15l.7.2q2.35.9 5.6.25 3.25-.6 5.4-2.3 1.45-1.15 1.45-2.05-.05-.65.1-.75.2-.1.35-.3.55-.5.55-1.1 0-.7-.7-1 1.2-.6 1.25-1.65z" id="dN"/><path fill="#90CFE3" d="M289.55 556.25q-.65 3.95-.15 8.3.25-4.2 1.45-8.35l-1.3.05z" id="dO"/><path fill="#FBD7AB" d="M282.05 541.05q-1.65-1.4-3.6-1.85-2.3-.55-4 .5-2.15 1.2-2.7 3.8-1.1 4.8 2.1 11.4 3 6.35 6.85 8.5 3.45 1.9 11.3 1.7 9.05-.2 13.6-3.9 0-.75-.8-2.2-.7-1.3-.5-2.05-.55-.05-.85-.1-3.9-1.35-8.8-2-5-.65-6.45.1-.75-4.25-1.7-6.95-1.65-4.5-4.45-6.95z" id="dP"/><path fill="#FCE5C7" d="M274.45 539.7q-.65.3-1.15.95 5.1.45 8.85 6.3 3.35 5.2 3.35 10.45 2.95-1.2 9.65-.6 5.4.45 8 1.3l-.25-1.5q-3.9-1.25-8.55-1.8-4.8-.6-6.15.15-.75-4.25-1.7-6.95-1.65-4.5-4.45-6.95-1.65-1.4-3.6-1.85-2.3-.55-4 .5z" id="dQ"/><path fill="#FBD7AB" d="M319.15 556.4q1.2-.6.95-1.55-.25-1-1.3-.6.8-.65.35-1.4-.5-.8-1.8-.55-.9.15-2.85 1.2-1.9 1.05-2.75 1.15-.65 0-.95-.2-.5-.25.05-.8 1.65-.8 2.25-1.5.4-.55.2-1.05-.2-.6-1.05-.7-2.1-.1-4.75 1.45-2.5 1.35-4 3.25-1.65 2.15-.7 4.7.95 2.5 3.6 3.45 2.3.85 5.55.2 3.15-.65 5.4-2.3 2.3-1.8 1.2-2.6.9-.3 1.2-1 .35-.75-.6-1.15z" id="dR"/><path fill="#FBCA91" d="M304.25 560.45q.25 1.5 1.9 2.35 1.65.85 3.8.5 2.95-.4 3.65-.85 1.45-.85 1-3.55-.45-2.65-2-3.05-.65-.15-3.7.2-2.15.3-3.5 1.6-1.35 1.25-1.15 2.8z" id="dS"/><path fill="#FBBC76" d="M319.55 554.25q-.35-.2-.75 0-2.2 1.6-4.35 1.95 1.25.2 3.25-.75 1.85-.9 2.3-.7-.1-.35-.45-.5z" id="dT"/><path fill="#FBBC76" d="M319.7 556.9q-.1-.25-.5-.45-2 1.55-4.15 1.9 1.05.2 2.55-.4.8-.35 2.1-1.05z" id="dU"/><path fill="#FBBC76" d="M318.85 559.2q0-.4-.2-.65-1.9 1.5-4.2 1.95 1 .2 2.35-.35.75-.3 2.05-.95z" id="dV"/><path fill="#FFF" d="M304.4 563.35q.25-.4.15-.9l-1.4-6.9q-.1-.5-.5-.75-.35-.3-.85-.2-.5.05-.75.45-.3.4-.2.9l1.4 7q.05.45.5.75.4.25.9.2.45-.1.75-.55z" id="dW"/><path fill="#FBD7AB" d="M330.9 535.5q.75.1.55.65-.15.45-.65.75-.8.5-2.95.9-2.35.4-3.15.8-1.2.65-1.1 1.55.1.9 1.15.9-1.05.4-.6 1.35.4 1 1.75.7-.5.95.25 1.35.65.4 1.55 0-.25 1.35 2.7 1.35 2.8-.05 5.05-1.2 2.3-1.2 3.65-3.4 2.15-3.4.5-6.05-1.55-2.45-5.1-2.85-1.85-.25-3.6.1-2.1.35-3.2 1.4-.65.65-.45 1.25.2.5.9.7.95.2 2.75-.25z" id="dX"/><path fill="#FBCA91" d="M339.45 540.55q.7-1.85-.05-3.3-.8-1.35-2.75-1.5-1.95-.15-3.9.9-2.25 1.35-2.5 2-.45 1.05 1 3.55 1.45 2.55 2.6 2.65.7.1 2.95-1.25 1.9-1.15 2.65-3.05z" id="dY"/><path fill="#FBBC76" d="M324.75 541.05q-.9.4-.65 1.25.25-.4 2.4-.9 2.25-.5 3.1-1.5-2.1 1.15-4.85 1.15z" id="dZ"/><path fill="#FBBC76" d="M325.9 543.2q-.2.45-.15.75.65-.25 2.4-.6 1.6-.45 2.35-1.3-1.9 1.05-4.6 1.15z" id="ea"/><path fill="#FBBC76" d="M327.7 544.6q0 .3.25.55.65-.15 2.25-.55 1.45-.4 2.1-1.15-1.85.95-4.6 1.15z" id="eb"/><path fill="url(#V)" d="M369.6 538.95q-1.475-5.113-4.5-7.95 1.318 1.173 3.05.5 1.7-.7 1.95-2.4.65-3.55-2.7-7.75-2.95-3.7-6.9-5.7-5.6-2.85-11.5-3.55-6.1-.7-11.15 1.1.8 3.15 5.05 6.25 1.6 1.05 1.9 1.35.65.6 1.35 1.95 3.85 8.45-3.55 16.85-1.2 1.4-1.4 3.3-.25 1.95.75 3.25 1.45 1.75 3.75 1.7 2.6-.1 4.4-2.7 1-1.35 1.5-1.7.4-.3.75-.1.55.45 0 2.05l-.8 1.9q-2.4 4.95-.1 8.9 2.1 3.6 6.45 4.1 5.05.6 8.45-2.8 3.1-3.05 3.9-8.25.85-5.05-.65-10.3z" id="ec"/><path fill="url(#W)" d="M361.5 526.25q.55 1.25.25 2.45-.3 1.4-.05 2.3 2 6.95 1.75 11.9-.3 6.1-4.05 9.95-2.5 2.55-.95 4.6 1.55 2 4.2.55 7.05-3.9 5.8-14.75-1.15-9.6-6.95-17z" id="ed"/><path fill="url(#X)" d="M364.95 527.3q.55 2.65 2.45 2.2 1.85-.4 1.2-3.25-.45-2-2.3-4-1.96-2.058-4.7-3.15 1.006.452 2 3.15.75 2.15 1.35 5.05z" id="ee"/><path fill="url(#Y)" d="M347.9 520.7q3.9 7.6 1.85 13.05-.65 1.65-4.75 6.6-2.15 2.65-.65 4.35 1.5 1.7 3.6-.55 2.85-3.1 3.75-8.35 1.35-7.75-3.8-15.1z" id="ef"/><path fill="url(#Z)" d="M293.9 467.55q-.95-.05-1.45 1.8l-1.15 3.6-3.75-.8q-1.85-.4-2.3.4-.45.8.85 2.2l2.6 2.75-2.65 2.8q-1.25 1.4-.8 2.2.5.8 2.3.4l3.75-.9 1.15 3.7q.55 1.75 1.45 1.75.95 0 1.5-1.75l1.15-3.7 3.6.9q1.85.4 2.35-.4.45-.8-.85-2.2l-2.6-2.8 2.6-2.75q1.25-1.4.8-2.2-.45-.8-2.3-.4l-3.6.8-1.15-3.6q-.55-1.8-1.5-1.8z" id="eg"/><path fill="url(#aa)" d="M338.1 514q.6 1.4 1.8 2.75 6.55.4 9.55 2.35 5.2 3.45 7 13.3.7 3.75 4.15 3.95 3.45.2 3.7-3.15.8-9.55-7.65-15.7-8.4-6.1-18.55-3.5z" id="eh"/><path fill="url(#ab)" d="M369.8 536.4q1.161.766 1.75 4.25.45 2.7.5 6.25.1 3.25 2.4 3.15 2.3-.15 2.15-3.6-.05-2.45-1.85-5.25-1.936-2.929-4.95-4.8z" id="ei"/><path fill="#FFF" d="M346.15 540.85q-.5-.25-1.15.65-.55 1.05 0 1.35.25.1.55-.1.3-.2.5-.6.3-.35.3-.75.05-.4-.2-.55z" id="ej"/><path fill="#FFF" d="M364.2 553q-.4.7-.4 1.25 0 .6.35.8.4.2.9-.1.55-.3.9-.95.8-1.5 0-2-.35-.2-.85.05-.5.3-.9.95z" id="ek"/><path fill="#EBF7FA" d="M354.7 532.5q-.5-.05-.9.6t-.45 1.55q-.05.9.3 1.6.3.65.85.7.5 0 .9-.65t.4-1.55q.05-.95-.3-1.6-.3-.65-.8-.65z" id="el"/><path fill="#FFF" d="M367.15 524.8q-.25.05-.35.45-.1.35.1.85.1.4.35.7.3.3.5.2.25-.05.35-.4.1-.4 0-.85-.25-1.1-.95-.95z" id="em"/><path fill="#FFF" d="M375.15 545.5q-.25-.05-.5.35-.2.35-.2.85-.05.5.1.9.2.35.45.35.3.05.55-.3.2-.35.25-.85 0-1.3-.65-1.3z" id="en"/></defs><use xlink:href="#ac"/><use xlink:href="#ad" transform="matrix(1.4885 0 0 1.48846 -310.585 -590.068)"/><use xlink:href="#ae" transform="matrix(1.4885 0 0 1.48846 -310.585 -590.068)"/><use xlink:href="#af" transform="matrix(1.4885 0 0 1.48846 -310.585 -590.068)"/><use xlink:href="#ag" transform="matrix(1.4885 0 0 1.48846 -310.585 -590.068)"/><use xlink:href="#ah" transform="matrix(1.4885 0 0 1.48846 -310.585 -590.068)"/><use xlink:href="#ai" transform="matrix(1.4885 0 0 1.48846 -310.585 -590.068)"/><use xlink:href="#aj" transform="matrix(1.4885 0 0 1.48846 -310.585 -590.068)"/><use xlink:href="#ak" transform="matrix(1.4885 0 0 1.48846 -310.585 -590.068)"/><use xlink:href="#al" transform="matrix(1.4885 0 0 1.48846 -310.585 -590.068)"/><use xlink:href="#am" transform="matrix(1.4885 0 0 1.48846 -310.585 -590.068)"/><use xlink:href="#an" transform="matrix(1.4885 0 0 1.48846 -310.585 -590.068)"/><use xlink:href="#ao" transform="matrix(1.4885 0 0 1.48846 -310.585 -590.068)"/><use xlink:href="#ap" transform="matrix(1.4885 0 0 1.48846 -310.585 -590.068)"/><use xlink:href="#aq" transform="matrix(1.4885 0 0 1.48846 -310.585 -590.068)"/><use xlink:href="#ar" transform="matrix(1.4885 0 0 1.48846 -310.585 -590.068)"/><use xlink:href="#as" transform="matrix(1.4885 0 0 1.48846 -310.585 -590.068)"/><use xlink:href="#at" transform="matrix(1.4885 0 0 1.48846 -310.585 -590.068)"/><use xlink:href="#au" transform="matrix(1.4885 0 0 1.48846 -310.585 -590.068)"/><use xlink:href="#av" transform="matrix(1.4885 0 0 1.48846 -310.585 -590.068)"/><use xlink:href="#aw" transform="matrix(1.4885 0 0 1.48846 -310.585 -590.068)"/><use xlink:href="#ax" transform="matrix(1.4885 0 0 1.48846 -310.585 -590.068)"/><use xlink:href="#ay" transform="matrix(1.4885 0 0 1.48846 -310.585 -590.068)"/><use xlink:href="#az" transform="matrix(1.4885 0 0 1.48846 -310.585 -590.068)"/><use xlink:href="#aA" transform="matrix(1.4885 0 0 1.48846 -310.585 -590.068)"/><use xlink:href="#aB" transform="matrix(1.4885 0 0 1.48846 -310.585 -590.068)"/><use xlink:href="#aC" transform="matrix(1.4885 0 0 1.48846 -310.585 -590.068)"/><use xlink:href="#aD" transform="matrix(1.4885 0 0 1.48846 -310.585 -590.068)"/><use xlink:href="#aE" transform="matrix(1.4885 0 0 1.48846 -310.585 -590.068)"/><use xlink:href="#aF" transform="matrix(1.4885 0 0 1.48846 -310.585 -590.068)"/><use xlink:href="#aG" transform="matrix(1.4885 0 0 1.48846 -310.585 -590.068)"/><use xlink:href="#aH" transform="matrix(1.4885 0 0 1.48846 -310.585 -590.068)"/><use xlink:href="#aI" transform="matrix(1.4885 0 0 1.48846 -310.585 -590.068)"/><use xlink:href="#aJ" transform="matrix(1.4885 0 0 1.48846 -310.585 -590.068)"/><use xlink:href="#aK" transform="matrix(1.4885 0 0 1.48846 -310.585 -590.068)"/><use xlink:href="#aL" transform="matrix(1.4885 0 0 1.48846 -310.585 -590.068)"/><use xlink:href="#aM" transform="matrix(1.4885 0 0 1.48846 -310.585 -590.068)"/><use xlink:href="#aN" transform="matrix(1.4885 0 0 1.48846 -310.585 -590.068)"/><use xlink:href="#aO" transform="matrix(1.4885 0 0 1.48846 -310.585 -590.068)"/><use xlink:href="#aP" transform="matrix(1.4885 0 0 1.48846 -310.585 -590.068)"/><use xlink:href="#aQ" transform="matrix(1.4885 0 0 1.48846 -310.585 -590.068)"/><use xlink:href="#aR" transform="matrix(1.4885 0 0 1.48846 -310.585 -590.068)"/><use xlink:href="#aS" transform="matrix(1.4885 0 0 1.48846 -310.585 -590.068)"/><use xlink:href="#aT" transform="matrix(1.4885 0 0 1.48846 -310.585 -590.068)"/><use xlink:href="#aU" transform="matrix(1.4885 0 0 1.48846 -310.585 -590.068)"/><use xlink:href="#aV" transform="matrix(1.4885 0 0 1.48846 -310.585 -590.068)"/><use xlink:href="#aW" transform="matrix(1.4885 0 0 1.48846 -310.585 -590.068)"/><use xlink:href="#aX" transform="matrix(1.4885 0 0 1.48846 -310.585 -590.068)"/><use xlink:href="#aY" transform="matrix(1.4885 0 0 1.48846 -310.585 -590.068)"/><use xlink:href="#aZ" transform="matrix(1.4885 0 0 1.48846 -310.585 -590.068)"/><use xlink:href="#ba" transform="matrix(1.4885 0 0 1.48846 -310.585 -590.068)"/><use xlink:href="#bb" transform="matrix(1.4885 0 0 1.48846 -310.585 -590.068)"/><use xlink:href="#bc" transform="matrix(1.4885 0 0 1.48846 -310.585 -590.068)"/><use xlink:href="#bd" transform="matrix(1.4885 0 0 1.48846 -310.585 -590.068)"/><use xlink:href="#be" transform="matrix(1.4885 0 0 1.48846 -310.585 -590.068)"/><use xlink:href="#bf" transform="matrix(1.4885 0 0 1.48846 -310.585 -590.068)"/><use xlink:href="#bg" transform="matrix(1.4885 0 0 1.48846 -310.585 -590.068)"/><use xlink:href="#bh" transform="matrix(1.4885 0 0 1.48846 -310.585 -590.068)"/><use xlink:href="#bi" transform="matrix(1.4885 0 0 1.48846 -310.585 -590.068)"/><use xlink:href="#bj" transform="matrix(1.4885 0 0 1.48846 -310.585 -590.068)"/><use xlink:href="#bk" transform="matrix(1.4885 0 0 1.48846 -310.585 -590.068)"/><use xlink:href="#bl" transform="matrix(1.4885 0 0 1.48846 -310.585 -590.068)"/><use xlink:href="#bm" transform="matrix(1.4885 0 0 1.48846 -310.585 -590.068)"/><use xlink:href="#bn" transform="matrix(1.4885 0 0 1.48846 -310.585 -590.068)"/><use xlink:href="#bo" transform="matrix(1.4885 0 0 1.48846 -310.585 -590.068)"/><use xlink:href="#bp" transform="matrix(1.4885 0 0 1.48846 -310.585 -590.068)"/><use xlink:href="#bq" transform="matrix(1.4885 0 0 1.48846 -310.585 -590.068)"/><use xlink:href="#br" transform="matrix(1.4885 0 0 1.48846 -310.585 -590.068)"/><use xlink:href="#bs" transform="matrix(1.4885 0 0 1.48846 -310.585 -590.068)"/><use xlink:href="#bt" transform="matrix(1.4885 0 0 1.48846 -310.585 -590.068)"/><use xlink:href="#bu" transform="matrix(1.4885 0 0 1.48846 -310.585 -590.068)"/><use xlink:href="#bv" transform="matrix(1.4885 0 0 1.48846 -310.585 -590.068)"/><use xlink:href="#bw" transform="matrix(1.4885 0 0 1.48846 -310.585 -590.068)"/><use xlink:href="#bx" transform="matrix(1.4885 0 0 1.48846 -310.585 -590.068)"/><use xlink:href="#by" transform="matrix(1.4885 0 0 1.48846 -310.585 -590.068)"/><use xlink:href="#bz" transform="matrix(1.4885 0 0 1.48846 -310.585 -590.068)"/><use xlink:href="#bA" transform="matrix(1.4885 0 0 1.48846 -310.585 -590.068)"/><use xlink:href="#bB" transform="matrix(1.4885 0 0 1.48846 -310.585 -590.068)"/><use xlink:href="#bC" transform="matrix(1.4885 0 0 1.48846 -310.585 -590.068)"/><use xlink:href="#bD" transform="matrix(1.4885 0 0 1.48846 -310.585 -590.068)"/><use xlink:href="#bE" transform="matrix(1.4885 0 0 1.48846 -310.585 -590.068)"/><use xlink:href="#bF" transform="matrix(1.4885 0 0 1.48846 -310.585 -590.068)"/><use xlink:href="#bG" transform="matrix(1.4885 0 0 1.48846 -310.585 -590.068)"/><use xlink:href="#bH" transform="matrix(1.4885 0 0 1.48846 -310.585 -590.068)"/><use xlink:href="#bI" transform="matrix(1.4885 0 0 1.48846 -310.585 -590.068)"/><use xlink:href="#bJ" transform="matrix(1.4885 0 0 1.48846 -310.585 -590.068)"/><use xlink:href="#bK" transform="matrix(1.4885 0 0 1.48846 -310.585 -590.068)"/><use xlink:href="#bL" transform="matrix(1.4885 0 0 1.48846 -310.585 -590.068)"/><use xlink:href="#bM" transform="matrix(1.4885 0 0 1.48846 -310.585 -590.068)"/><use xlink:href="#bN" transform="matrix(1.4885 0 0 1.48846 -310.585 -590.068)"/><use xlink:href="#bO" transform="matrix(1.4885 0 0 1.48846 -310.585 -590.068)"/><use xlink:href="#bP" transform="matrix(1.4885 0 0 1.48846 -310.585 -590.068)"/><use xlink:href="#bQ" transform="matrix(1.4885 0 0 1.48846 -310.585 -590.068)"/><use xlink:href="#bR" transform="matrix(1.4885 0 0 1.48846 -310.585 -590.068)"/><use xlink:href="#bS" transform="matrix(1.4885 0 0 1.48846 -310.585 -590.068)"/><use xlink:href="#bT" transform="matrix(1.4885 0 0 1.48846 -310.585 -590.068)"/><use xlink:href="#bU" transform="matrix(1.4885 0 0 1.48846 -310.585 -590.068)"/><use xlink:href="#bV" transform="matrix(1.4885 0 0 1.48846 -310.585 -590.068)"/><use xlink:href="#bW" transform="matrix(1.4885 0 0 1.48846 -310.585 -590.068)"/><use xlink:href="#bX" transform="matrix(1.4885 0 0 1.48846 -310.585 -590.068)"/><use xlink:href="#bY" transform="matrix(1.4885 0 0 1.48846 -310.585 -590.068)"/><use xlink:href="#bZ" transform="matrix(1.4885 0 0 1.48846 -310.585 -590.068)"/><use xlink:href="#ca" transform="matrix(1.4885 0 0 1.48846 -310.585 -590.068)"/><use xlink:href="#cb" transform="matrix(1.4885 0 0 1.48846 -310.585 -590.068)"/><use xlink:href="#cc" transform="matrix(1.4885 0 0 1.48846 -310.585 -590.068)"/><use xlink:href="#cd" transform="matrix(1.4885 0 0 1.48846 -310.585 -590.068)"/><use xlink:href="#ce" transform="matrix(1.4885 0 0 1.48846 -310.585 -590.068)"/><use xlink:href="#cf" transform="matrix(1.4885 0 0 1.48846 -310.585 -590.068)"/><use xlink:href="#cg" transform="matrix(1.4885 0 0 1.48846 -310.585 -590.068)"/><use xlink:href="#ch" transform="matrix(1.4885 0 0 1.48846 -310.585 -590.068)"/><use xlink:href="#ci" transform="matrix(1.4885 0 0 1.48846 -310.585 -590.068)"/><use xlink:href="#cj" transform="matrix(1.4885 0 0 1.48846 -310.585 -590.068)"/><use xlink:href="#ck" transform="matrix(1.4885 0 0 1.48846 -310.585 -590.068)"/><use xlink:href="#cl" transform="matrix(1.4885 0 0 1.48846 -310.585 -590.068)"/><use xlink:href="#cm" transform="matrix(1.4885 0 0 1.48846 -310.585 -590.068)"/><use xlink:href="#cn" transform="matrix(1.4885 0 0 1.48846 -310.585 -590.068)"/><use xlink:href="#co" transform="matrix(1.4885 0 0 1.48846 -310.585 -590.068)"/><use xlink:href="#cp" transform="matrix(1.4885 0 0 1.48846 -310.585 -590.068)"/><use xlink:href="#cq" transform="matrix(1.4885 0 0 1.48846 -310.585 -590.068)"/><use xlink:href="#cr" transform="matrix(1.4885 0 0 1.48846 -310.585 -590.068)"/><use xlink:href="#cs" transform="matrix(1.4885 0 0 1.48846 -310.585 -590.068)"/><use xlink:href="#ct" transform="matrix(1.4885 0 0 1.48846 -310.585 -590.068)"/><use xlink:href="#cu" transform="matrix(1.4885 0 0 1.48846 -310.585 -590.068)"/><use xlink:href="#cv" transform="matrix(1.4885 0 0 1.48846 -310.585 -590.068)"/><use xlink:href="#cw" transform="matrix(1.4885 0 0 1.48846 -310.585 -590.068)"/><use xlink:href="#cx" transform="matrix(1.4885 0 0 1.48846 -310.585 -590.068)"/><use xlink:href="#cy" transform="matrix(1.4885 0 0 1.48846 -310.585 -590.068)"/><use xlink:href="#cz" transform="matrix(1.4885 0 0 1.48846 -310.585 -590.068)"/><use xlink:href="#cA" transform="matrix(1.4885 0 0 1.48846 -310.585 -590.068)"/><use xlink:href="#cB" transform="matrix(1.4885 0 0 1.48846 -310.585 -590.068)"/><use xlink:href="#cC" transform="matrix(1.4885 0 0 1.48846 -310.585 -590.068)"/><use xlink:href="#cD" transform="matrix(1.4885 0 0 1.48846 -310.585 -590.068)"/><use xlink:href="#cE" transform="matrix(1.4885 0 0 1.48846 -310.585 -590.068)"/><use xlink:href="#cF" transform="matrix(1.4885 0 0 1.48846 -310.585 -590.068)"/><use xlink:href="#cG" transform="matrix(1.4885 0 0 1.48846 -310.585 -590.068)"/><use xlink:href="#cH" transform="matrix(1.4885 0 0 1.48846 -310.585 -590.068)"/><use xlink:href="#cI" transform="matrix(1.4885 0 0 1.48846 -310.585 -590.068)"/><use xlink:href="#cJ" transform="matrix(1.4885 0 0 1.48846 -310.585 -590.068)"/><use xlink:href="#cK" transform="matrix(1.4885 0 0 1.48846 -310.585 -590.068)"/><use xlink:href="#cL" transform="matrix(1.4885 0 0 1.48846 -310.585 -590.068)"/><use xlink:href="#cM" transform="matrix(1.4885 0 0 1.48846 -310.585 -590.068)"/><use xlink:href="#cN" transform="matrix(1.4885 0 0 1.48846 -310.585 -590.068)"/><use xlink:href="#cO" transform="matrix(1.4885 0 0 1.48846 -310.585 -590.068)"/><use xlink:href="#cP" transform="matrix(1.4885 0 0 1.48846 -310.585 -590.068)"/><use xlink:href="#cQ" transform="matrix(1.4885 0 0 1.48846 -310.585 -590.068)"/><use xlink:href="#cR" transform="matrix(1.4885 0 0 1.48846 -310.585 -590.068)"/><use xlink:href="#cS" transform="matrix(1.4885 0 0 1.48846 -310.585 -590.068)"/><use xlink:href="#cT" transform="matrix(1.4885 0 0 1.48846 -310.585 -590.068)"/><use xlink:href="#cU" transform="matrix(1.4885 0 0 1.48846 -310.585 -590.068)"/><use xlink:href="#cV" transform="matrix(1.4885 0 0 1.48846 -310.585 -590.068)"/><use xlink:href="#cW" transform="matrix(1.4885 0 0 1.48846 -310.585 -590.068)"/><use xlink:href="#cX" transform="matrix(1.4885 0 0 1.48846 -310.585 -590.068)"/><use xlink:href="#cY" transform="matrix(1.4885 0 0 1.48846 -310.585 -590.068)"/><use xlink:href="#cZ" transform="matrix(1.4885 0 0 1.48846 -310.585 -590.068)"/><use xlink:href="#da" transform="matrix(1.4885 0 0 1.48846 -310.585 -590.068)"/><use xlink:href="#db" transform="matrix(1.4885 0 0 1.48846 -310.585 -590.068)"/><use xlink:href="#dc" transform="matrix(1.4885 0 0 1.48846 -310.585 -590.068)"/><use xlink:href="#dd" transform="matrix(1.4885 0 0 1.48846 -310.585 -590.068)"/><use xlink:href="#de" transform="matrix(1.4885 0 0 1.48846 -310.585 -590.068)"/><use xlink:href="#df" transform="matrix(1.4885 0 0 1.48846 -310.585 -590.068)"/><use xlink:href="#dg" transform="matrix(1.4885 0 0 1.48846 -310.585 -590.068)"/><use xlink:href="#dh" transform="matrix(1.4885 0 0 1.48846 -310.585 -590.068)"/><use xlink:href="#di" transform="matrix(1.4885 0 0 1.48846 -310.585 -590.068)"/><use xlink:href="#dj" transform="matrix(1.4885 0 0 1.48846 -310.585 -590.068)"/><use xlink:href="#dk" transform="matrix(1.4885 0 0 1.48846 -310.585 -590.068)"/><use xlink:href="#dl" transform="matrix(1.4885 0 0 1.48846 -310.585 -590.068)"/><use xlink:href="#dm" transform="matrix(1.4885 0 0 1.48846 -310.585 -590.068)"/><use xlink:href="#dn" transform="matrix(1.4885 0 0 1.48846 -310.585 -590.068)"/><use xlink:href="#do" transform="matrix(1.4885 0 0 1.48846 -310.585 -590.068)"/><use xlink:href="#dp" transform="matrix(1.4885 0 0 1.48846 -310.585 -590.068)"/><use xlink:href="#dq" transform="matrix(1.4885 0 0 1.48846 -310.585 -590.068)"/><use xlink:href="#dr" transform="matrix(1.4885 0 0 1.48846 -310.585 -590.068)"/><use xlink:href="#ds" transform="matrix(1.4885 0 0 1.48846 -310.585 -590.068)"/><use xlink:href="#dt" transform="matrix(1.4885 0 0 1.48846 -310.585 -590.068)"/><use xlink:href="#du" transform="matrix(1.4885 0 0 1.48846 -310.585 -590.068)"/><use xlink:href="#dv" transform="matrix(1.4885 0 0 1.48846 -310.585 -590.068)"/><use xlink:href="#dw" transform="matrix(1.4885 0 0 1.48846 -310.585 -590.068)"/><use xlink:href="#dx" transform="matrix(1.4885 0 0 1.48846 -310.585 -590.068)"/><use xlink:href="#dy" transform="matrix(1.4885 0 0 1.48846 -310.585 -590.068)"/><use xlink:href="#dz" transform="matrix(1.4885 0 0 1.48846 -310.585 -590.068)"/><use xlink:href="#dA" transform="matrix(1.4885 0 0 1.48846 -310.585 -590.068)"/><use xlink:href="#dB" transform="matrix(1.4885 0 0 1.48846 -310.585 -590.068)"/><use xlink:href="#dC" transform="matrix(1.4885 0 0 1.48846 -310.585 -590.068)"/><use xlink:href="#dD" transform="matrix(1.4885 0 0 1.48846 -310.585 -590.068)"/><use xlink:href="#dE" transform="matrix(1.4885 0 0 1.48846 -310.585 -590.068)"/><use xlink:href="#dF" transform="matrix(1.4885 0 0 1.48846 -310.585 -590.068)"/><use xlink:href="#dG" transform="matrix(1.4885 0 0 1.48846 -310.585 -590.068)"/><use xlink:href="#dH" transform="matrix(1.4885 0 0 1.48846 -310.585 -590.068)"/><use xlink:href="#dI" transform="matrix(1.4885 0 0 1.48846 -310.585 -590.068)"/><use xlink:href="#dJ" transform="matrix(1.4885 0 0 1.48846 -310.585 -590.068)"/><use xlink:href="#dK" transform="matrix(1.4885 0 0 1.48846 -310.585 -590.068)"/><use xlink:href="#dL" transform="matrix(1.4885 0 0 1.48846 -310.585 -590.068)"/><use xlink:href="#dM" transform="matrix(1.4885 0 0 1.48846 -310.585 -590.068)"/><use xlink:href="#dN" transform="matrix(1.4885 0 0 1.48846 -310.585 -590.068)"/><use xlink:href="#dO" transform="matrix(1.4885 0 0 1.48846 -310.585 -590.068)"/><use xlink:href="#dP" transform="matrix(1.4885 0 0 1.48846 -310.585 -590.068)"/><use xlink:href="#dQ" transform="matrix(1.4885 0 0 1.48846 -310.585 -590.068)"/><use xlink:href="#dR" transform="matrix(1.4885 0 0 1.48846 -310.585 -590.068)"/><use xlink:href="#dS" transform="matrix(1.4885 0 0 1.48846 -310.585 -590.068)"/><use xlink:href="#dT" transform="matrix(1.4885 0 0 1.48846 -310.585 -590.068)"/><use xlink:href="#dU" transform="matrix(1.4885 0 0 1.48846 -310.585 -590.068)"/><use xlink:href="#dV" transform="matrix(1.4885 0 0 1.48846 -310.585 -590.068)"/><use xlink:href="#dW" transform="matrix(1.4885 0 0 1.48846 -310.585 -590.068)"/><use xlink:href="#dX" transform="matrix(1.4885 0 0 1.48846 -310.585 -590.068)"/><use xlink:href="#dY" transform="matrix(1.4885 0 0 1.48846 -310.585 -590.068)"/><use xlink:href="#dZ" transform="matrix(1.4885 0 0 1.48846 -310.585 -590.068)"/><use xlink:href="#ea" transform="matrix(1.4885 0 0 1.48846 -310.585 -590.068)"/><use xlink:href="#eb" transform="matrix(1.4885 0 0 1.48846 -310.585 -590.068)"/><use xlink:href="#ec" transform="matrix(1.4885 0 0 1.48846 -310.585 -590.068)"/><use xlink:href="#ed" transform="matrix(1.4885 0 0 1.48846 -310.585 -590.068)"/><use xlink:href="#ee" transform="matrix(1.4885 0 0 1.48846 -310.585 -590.068)"/><use xlink:href="#ef" transform="matrix(1.4885 0 0 1.48846 -310.585 -590.068)"/><use xlink:href="#eg" transform="matrix(1.4885 0 0 1.48846 -310.585 -590.068)"/><use xlink:href="#eh" transform="matrix(1.4885 0 0 1.48846 -310.585 -590.068)"/><use xlink:href="#ei" transform="matrix(1.4885 0 0 1.48846 -310.585 -590.068)"/><use xlink:href="#ej" transform="matrix(1.4885 0 0 1.48846 -310.585 -590.068)"/><use xlink:href="#ek" transform="matrix(1.4885 0 0 1.48846 -310.585 -590.068)"/><use xlink:href="#el" transform="matrix(1.4885 0 0 1.48846 -310.585 -590.068)"/><use xlink:href="#em" transform="matrix(1.4885 0 0 1.48846 -310.585 -590.068)"/><use xlink:href="#en" transform="matrix(1.4885 0 0 1.48846 -310.585 -590.068)"/></svg>