<svg xmlns="http://www.w3.org/2000/svg" xmlns:xlink="http://www.w3.org/1999/xlink" preserveAspectRatio="none" width="284" height="320"><defs><linearGradient id="a" gradientUnits="userSpaceOnUse" x1="96.487" y1="348.35" x2="113.612" y2="348.35" spreadMethod="pad"><stop offset="0%" stop-color="#EFC21F"/><stop offset="100%" stop-color="#D48614"/></linearGradient><linearGradient id="b" gradientUnits="userSpaceOnUse" x1="94.725" y1="351.563" x2="95.575" y2="344.737" spreadMethod="pad"><stop offset="0%" stop-color="#F7E148"/><stop offset="100%" stop-color="#FFF"/></linearGradient><linearGradient id="c" gradientUnits="userSpaceOnUse" x1="119.488" y1="348.35" x2="136.613" y2="348.35" spreadMethod="pad"><stop offset="0%" stop-color="#EFC21F"/><stop offset="100%" stop-color="#D48614"/></linearGradient><linearGradient id="d" gradientUnits="userSpaceOnUse" x1="118.275" y1="351.513" x2="119.125" y2="344.688" spreadMethod="pad"><stop offset="0%" stop-color="#F7E148"/><stop offset="100%" stop-color="#FFF"/></linearGradient><linearGradient id="e" gradientUnits="userSpaceOnUse" x1="83.813" y1="199.313" x2="79.588" y2="229.288" spreadMethod="pad"><stop offset="0%" stop-color="#E6AC1B"/><stop offset="100%" stop-color="#CA7410"/></linearGradient><linearGradient id="f" gradientUnits="userSpaceOnUse" x1="78.35" y1="225.3" x2="83.25" y2="194.3" spreadMethod="pad"><stop offset="0%" stop-color="#D48614"/><stop offset="100%" stop-color="#EFC21F"/></linearGradient><linearGradient id="g" gradientUnits="userSpaceOnUse" x1="71.65" y1="199.087" x2="78.05" y2="218.813" spreadMethod="pad"><stop offset="0%" stop-color="#E5A81A"/><stop offset="100%" stop-color="#DD9817"/></linearGradient><linearGradient id="h" gradientUnits="userSpaceOnUse" x1="76.1" y1="198.337" x2="73.9" y2="214.063" spreadMethod="pad"><stop offset="0%" stop-color="#D48614"/><stop offset="100%" stop-color="#C0610D"/></linearGradient><linearGradient id="i" gradientUnits="userSpaceOnUse" x1="58.112" y1="188.925" x2="97.587" y2="194.475" spreadMethod="pad"><stop offset="0%" stop-color="#F7E96F"/><stop offset="47.843%" stop-color="#FFF"/><stop offset="100%" stop-color="#F7DB31"/></linearGradient><linearGradient id="j" gradientUnits="userSpaceOnUse" x1="67.625" y1="204.313" x2="80.975" y2="206.188" spreadMethod="pad"><stop offset="0%" stop-color="#EEC62C"/><stop offset="47.843%" stop-color="#F8F19C"/><stop offset="100%" stop-color="#EEC62C"/></linearGradient><linearGradient id="k" gradientUnits="userSpaceOnUse" x1="49.775" y1="212.8" x2="80.525" y2="227.8" spreadMethod="pad"><stop offset="0%" stop-color="#D48614"/><stop offset="100%" stop-color="#C0610D"/></linearGradient><linearGradient id="l" gradientUnits="userSpaceOnUse" x1="145.075" y1="198.175" x2="147.725" y2="228.425" spreadMethod="pad"><stop offset="0%" stop-color="#E6AC1B"/><stop offset="100%" stop-color="#CA7410"/></linearGradient><linearGradient id="m" gradientUnits="userSpaceOnUse" x1="149.225" y1="225.8" x2="146.975" y2="193.7" spreadMethod="pad"><stop offset="0%" stop-color="#D48614"/><stop offset="100%" stop-color="#EFC21F"/></linearGradient><linearGradient id="n" gradientUnits="userSpaceOnUse" x1="157.837" y1="199.537" x2="150.063" y2="218.763" spreadMethod="pad"><stop offset="0%" stop-color="#E5A81A"/><stop offset="100%" stop-color="#DD9817"/></linearGradient><linearGradient id="o" gradientUnits="userSpaceOnUse" x1="153.037" y1="198.463" x2="154.463" y2="214.737" spreadMethod="pad"><stop offset="0%" stop-color="#D48614"/><stop offset="100%" stop-color="#C0610D"/></linearGradient><linearGradient id="p" gradientUnits="userSpaceOnUse" x1="172.025" y1="190.212" x2="132.375" y2="193.688" spreadMethod="pad"><stop offset="0%" stop-color="#F7E96F"/><stop offset="47.843%" stop-color="#FFF"/><stop offset="100%" stop-color="#F7DB31"/></linearGradient><linearGradient id="q" gradientUnits="userSpaceOnUse" x1="161.325" y1="205.112" x2="147.975" y2="206.287" spreadMethod="pad"><stop offset="0%" stop-color="#EEC62C"/><stop offset="47.843%" stop-color="#F8F19C"/><stop offset="100%" stop-color="#EEC62C"/></linearGradient><linearGradient id="r" gradientUnits="userSpaceOnUse" x1="178.737" y1="215" x2="146.662" y2="227.3" spreadMethod="pad"><stop offset="0%" stop-color="#D48614"/><stop offset="100%" stop-color="#C0610D"/></linearGradient><linearGradient id="s" gradientUnits="userSpaceOnUse" x1="156.012" y1="246.825" x2="173.988" y2="253.375" spreadMethod="pad"><stop offset="0%" stop-color="#EFC21F"/><stop offset="100%" stop-color="#F7E560"/></linearGradient><linearGradient id="t" gradientUnits="userSpaceOnUse" x1="156.412" y1="242.725" x2="153.787" y2="252.475" spreadMethod="pad"><stop offset="0%" stop-color="#E1A319"/><stop offset="100%" stop-color="#C66C0F"/></linearGradient><linearGradient id="u" gradientUnits="userSpaceOnUse" x1="173.025" y1="255.963" x2="161.175" y2="248.838" spreadMethod="pad"><stop offset="0%" stop-color="#FFF"/><stop offset="100%" stop-color="#F8D723"/></linearGradient><linearGradient id="v" gradientUnits="userSpaceOnUse" x1="70.987" y1="246.875" x2="53.013" y2="253.425" spreadMethod="pad"><stop offset="0%" stop-color="#EFC21F"/><stop offset="100%" stop-color="#F7E560"/></linearGradient><linearGradient id="w" gradientUnits="userSpaceOnUse" x1="70.563" y1="242.65" x2="73.338" y2="252.35" spreadMethod="pad"><stop offset="0%" stop-color="#E1A319"/><stop offset="100%" stop-color="#C66C0F"/></linearGradient><linearGradient id="x" gradientUnits="userSpaceOnUse" x1="54.025" y1="256.063" x2="65.875" y2="248.938" spreadMethod="pad"><stop offset="0%" stop-color="#FFF"/><stop offset="100%" stop-color="#F8D723"/></linearGradient><linearGradient id="y" gradientUnits="userSpaceOnUse" x1="115.1" y1="326.5" x2="115.1" y2="271.9" spreadMethod="pad"><stop offset="0%" stop-color="#EFC21F"/><stop offset="100%" stop-color="#CA7410"/></linearGradient><linearGradient id="z" gradientUnits="userSpaceOnUse" x1="113.6" y1="299.5" x2="113.6" y2="251.1" spreadMethod="pad"><stop offset="0%" stop-color="#F8F5A8"/><stop offset="29.804%" stop-color="#F7E148"/><stop offset="58.824%" stop-color="#F7E148"/><stop offset="100%" stop-color="#F8D723"/></linearGradient><linearGradient id="A" gradientUnits="userSpaceOnUse" x1="113.6" y1="235.512" x2="113.6" y2="272.988" spreadMethod="pad"><stop offset="0%" stop-color="#F7E148"/><stop offset="25.882%" stop-color="#F7EB79"/><stop offset="54.118%" stop-color="#F8F5A8"/><stop offset="100%" stop-color="#F7E560"/></linearGradient><linearGradient id="B" gradientUnits="userSpaceOnUse" x1="113.6" y1="232.537" x2="113.6" y2="211.263" spreadMethod="pad"><stop offset="0%" stop-color="#EFC21F"/><stop offset="100%" stop-color="#F7DB31"/></linearGradient><linearGradient id="C" gradientUnits="userSpaceOnUse" x1="113.6" y1="212.55" x2="113.6" y2="217.25" spreadMethod="pad"><stop offset="0%" stop-color="#FAF9BF"/><stop offset="100%" stop-color="#F7DB31"/></linearGradient><linearGradient id="D" gradientUnits="userSpaceOnUse" x1="102.65" y1="213.55" x2="102.65" y2="218.25" spreadMethod="pad"><stop offset="0%" stop-color="#FAF9BF"/><stop offset="100%" stop-color="#F7DB31"/></linearGradient><linearGradient id="E" gradientUnits="userSpaceOnUse" x1="124.75" y1="213.55" x2="124.75" y2="218.25" spreadMethod="pad"><stop offset="0%" stop-color="#FAF9BF"/><stop offset="100%" stop-color="#F7DB31"/></linearGradient><linearGradient id="F" gradientUnits="userSpaceOnUse" x1="92.4" y1="216.55" x2="92.4" y2="221.25" spreadMethod="pad"><stop offset="0%" stop-color="#FAF9BF"/><stop offset="100%" stop-color="#F7DB31"/></linearGradient><linearGradient id="G" gradientUnits="userSpaceOnUse" x1="135.1" y1="216.55" x2="135.1" y2="221.25" spreadMethod="pad"><stop offset="0%" stop-color="#FAF9BF"/><stop offset="100%" stop-color="#F7DB31"/></linearGradient><linearGradient id="H" gradientUnits="userSpaceOnUse" x1="88.5" y1="256.05" x2="103.2" y2="256.05" spreadMethod="pad"><stop offset="0%" stop-color="#D28313"/><stop offset="100%" stop-color="#EFC21F"/></linearGradient><linearGradient id="I" gradientUnits="userSpaceOnUse" x1="93.85" y1="258.538" x2="93.85" y2="269.063" spreadMethod="pad"><stop offset="0%" stop-color="#5F5F5F"/><stop offset="100%" stop-color="silver"/></linearGradient><linearGradient id="J" gradientUnits="userSpaceOnUse" x1="90.5" y1="266.65" x2="98.2" y2="266.65" spreadMethod="pad"><stop offset="0%" stop-color="silver"/><stop offset="49.02%" stop-color="#EBEBEB"/><stop offset="100%" stop-color="silver"/></linearGradient><linearGradient id="K" gradientUnits="userSpaceOnUse" x1="139.45" y1="256.05" x2="124.75" y2="256.05" spreadMethod="pad"><stop offset="0%" stop-color="#D28313"/><stop offset="100%" stop-color="#EFC21F"/></linearGradient><linearGradient id="L" gradientUnits="userSpaceOnUse" x1="133.3" y1="258.538" x2="133.3" y2="269.063" spreadMethod="pad"><stop offset="0%" stop-color="#5F5F5F"/><stop offset="100%" stop-color="silver"/></linearGradient><linearGradient id="M" gradientUnits="userSpaceOnUse" x1="129.5" y1="266.65" x2="137.2" y2="266.65" spreadMethod="pad"><stop offset="0%" stop-color="silver"/><stop offset="49.02%" stop-color="#EBEBEB"/><stop offset="100%" stop-color="silver"/></linearGradient><linearGradient id="N" gradientUnits="userSpaceOnUse" x1="113.6" y1="300.55" x2="113.6" y2="306.85" spreadMethod="pad"><stop offset="0%" stop-color="#EFC21F"/><stop offset="100%" stop-color="#F7DB31"/></linearGradient><linearGradient id="O" gradientUnits="userSpaceOnUse" x1="113.55" y1="281.55" x2="113.55" y2="300.45" spreadMethod="pad"><stop offset="0%" stop-color="#EFC21F"/><stop offset="100%" stop-color="#F7DB31"/></linearGradient><linearGradient id="P" gradientUnits="userSpaceOnUse" x1="106.463" y1="281.9" x2="119.838" y2="281.9" spreadMethod="pad"><stop offset="0%" stop-color="#F1C824"/><stop offset="49.02%" stop-color="#F7DD3F"/><stop offset="100%" stop-color="#F1C824"/></linearGradient><linearGradient id="Q" gradientUnits="userSpaceOnUse" x1="113.5" y1="291.525" x2="113.5" y2="296.975" spreadMethod="pad"><stop offset="0%" stop-color="#E6AC1B"/><stop offset="100%" stop-color="#F8D723"/></linearGradient><linearGradient id="R" gradientUnits="userSpaceOnUse" x1="113.5" y1="303.537" x2="113.5" y2="305.863" spreadMethod="pad"><stop offset="0%" stop-color="#F7E159"/><stop offset="100%" stop-color="#F9F7B8"/></linearGradient><linearGradient id="S" gradientUnits="userSpaceOnUse" x1="110.5" y1="291.3" x2="117.1" y2="291.3" spreadMethod="pad"><stop offset="0%" stop-color="#F8EF91"/><stop offset="43.922%" stop-color="#F7E148"/><stop offset="100%" stop-color="#EFC21F"/></linearGradient><linearGradient id="T" gradientUnits="userSpaceOnUse" x1="111.125" y1="294.787" x2="108.575" y2="294.113" spreadMethod="pad"><stop offset="0%" stop-color="#DD9817"/><stop offset="100%" stop-color="#C0610D"/></linearGradient><linearGradient id="U" gradientUnits="userSpaceOnUse" x1="116.763" y1="294.625" x2="119.337" y2="293.975" spreadMethod="pad"><stop offset="0%" stop-color="#DD9817"/><stop offset="100%" stop-color="#C0610D"/></linearGradient><path fill="#FFF" fill-opacity="0" d="M284 0H0v320h284V0z" id="V"/><path fill="#F8F5A8" d="M147.85 301.25q-2.15-1.3-4.4-1.3h-10.3q-2.3 0-4.1 1.05-2.05 1.2-2.05 2.95 0 3.3.75 6.1.75 2.75.75 6.65 0 3.25.95 6.55.4 1.4 1.4 3.9 1.3 3.35.15 6.75-1.55 4.6-1.55 6.4 0 2.35 3 3.5 2.25.85 5.9.9 3.6-.05 5.85-.9 3-1.15 3-3.5 0-1.8-1.55-6.4-1.1-3.4.2-6.75 1.2-3.55 1.25-3.6.8-3 .7-6.25-.15-4 1.05-6.8 1.3-2.9 1.3-6.05 0-1.8-2.3-3.2z" id="W"/><path fill="#F7EB79" d="M138.35 335.8q-2.5 0-7.7-1-1.2 3.4-1.2 5.5 0 2.35 3 3.5 2.25.85 5.9.9 3.6-.05 5.85-.9 3-1.15 3-3.5 0-2.1-1.2-5.5-5.15 1-7.65 1z" id="X"/><path fill="#F8F5A8" d="M79.3 304.45q0 3.15 1.35 6.05 1.25 2.8 1.1 6.8-.15 3.25.7 6.25.45 1.6 1.25 3.6 1.3 3.35.2 6.75-1.55 4.6-1.55 6.4 0 2.35 2.95 3.5 2.25.85 5.9.9 3.65-.05 5.9-.9 3-1.15 3-3.5 0-1.8-1.55-6.4-1.15-3.4.15-6.75.85-2.15 1.35-3.9.95-3.3 1-6.55 0-3.9.75-6.65.7-2.8.7-6.1 0-1.75-2-2.95-1.8-1.05-4.1-1.05H86.1q-2.35 0-4.5 1.3-2.3 1.4-2.3 3.2z" id="Y"/><path fill="#F7EB79" d="M83.55 334.8q-1.2 3.4-1.2 5.5 0 2.35 2.95 3.5 2.25.85 5.9.9 3.65-.05 5.9-.9 3-1.15 3-3.5 0-1.5-.4-3.05-.15-.5-.85-2.45-5.15 1-7.6 1-2.5 0-7.7-1z" id="Z"/><path fill="#F7DB31" d="M114.85 299.2q-2.35-1.35-5.3-1.35H96.5q-2.9 0-5.55 1.7-2.9 1.8-2.9 4.05 0 4 1.65 7.7 1.55 3.5 1.35 8.6-.15 4.1.9 7.9.3 1.05 1.6 4.6 1.65 4.25.2 8.55-2 5.85-2 8.15 0 3 3.8 4.4 2.9 1.1 7.55 1.15 4.5-.05 7.4-1.15 3.8-1.45 3.8-4.4 0-2.3-1.95-8.15-1.5-4.3.15-8.55 1.4-3.5 1.85-4.95 1.2-4.15 1.2-8.35 0-4.95.95-8.45.9-3.55.9-7.7 0-2.25-2.55-3.75z" id="aa"/><path fill="url(#a)" d="M112.7 342.05q-6.5 1.3-9.65 1.3-3.15 0-9.7-1.3-.9 2.55-1.05 3.15-.55 2-.55 3.9 0 3 3.8 4.4 2.9 1.1 7.55 1.15 4.5-.05 7.4-1.15 3.8-1.45 3.8-4.4 0-1.95-.5-3.9-.3-1-1.1-3.15z" id="ab"/><path fill="url(#b)" d="M93.5 352.35q.8.7 2.15 1.15l-.15-9.2-2 8.05z" id="ac"/><path fill="#F7DB31" d="M138.6 299.55q-2.75-1.7-5.55-1.7H119.9q-2.85 0-5.2 1.35-2.55 1.55-2.55 3.75 0 4.15.9 7.7.95 3.55.95 8.45 0 4.15 1.2 8.35.65 2.25 1.75 4.95 1.65 4.25.25 8.55-1.95 5.9-1.95 8.15 0 3 3.8 4.4 2.9 1.1 7.45 1.15 4.55-.05 7.45-1.15 3.85-1.45 3.85-4.4 0-2.3-2-8.15-1.45-4.3.2-8.55 1.5-4.3 1.6-4.6 1-3.8.85-7.9-.15-5.1 1.4-8.6 1.65-3.7 1.65-7.7 0-2.25-2.9-4.05z" id="ad"/><path fill="url(#c)" d="M136.2 342.05q-6.6 1.3-9.7 1.3-3.1 0-9.65-1.3-1.6 4-1.6 7.05 0 3 3.8 4.4 2.9 1.1 7.45 1.15 4.55-.05 7.45-1.15 3.85-1.45 3.85-4.4 0-1.9-.55-3.9-.15-.6-1.05-3.15z" id="ae"/><path fill="url(#d)" d="M117.05 352.35q.65.6 2.15 1.15l-.15-9.2-2 8.05z" id="af"/><path fill="url(#e)" d="M61.15 184.95q-6.75 4-10.35 11.95-3.4 7.35-2.6 14.4.8 6.7 6.05 9.55 3.45 1.9 13.1 3.55 7.6 1.35 13.15-2.7 5.55-4 7.15-12.05-.2 9.95.1 15.55.6 10.55 2.85 14.9 4.35 8.15 11.25 10.65 6.9 2.45 8.95-3.5 3.15-9.5 3.1-20.25-.1-11.4-3.8-20.9-8.9-22.95-33.25-24.7-8.75-.55-15.7 3.55z" id="ag"/><path fill="url(#f)" d="M106.9 242.85l5.25 2.2q-2.622-2.175-5.25-2.2m-3.75-1.55q-.065.199-.15.4-1.15 2.75-1.05 2.9 0 .05 1.45-.75 1.758-.99 3.5-1l-3.75-1.55m-45.5-55.65q-6.85 4.1-10.5 11.35-3.5 6.9-2.7 13.75.85 7.55 6.2 13.45 5.5 6.05 13.35 7.4 7.95 1.4 13.95-1.85 6.5-3.5 8.05-11.25.65 6.85-.7 12.15-.25 1 1.15 2.65 1.3 1.55 2.6 2.1l14.1 5.9q8.01-19.251 4.15-33.75-3.4-12.7-15.45-20.5-7.65-4.95-16.4-5.55-9.55-.65-17.8 4.15z" id="ah"/><path fill="url(#g)" d="M75.65 194.9q-5.5-.9-9.7 2-4.55 3.15-5.8 9.85 6.9-9.5 15.65-8.2 7.35 1.1 12.3 16.2 1.4-8.55-2.85-14.15-3.65-4.85-9.6-5.7z" id="ai"/><path fill="url(#h)" d="M85.15 211.3q2.5 7.3.8 16.35 3.55-8.25.85-17.95-3.2-11.5-14.05-11.95-3.25-.2-6.7 1.65-.15.1-.15.15-1.15.6-2.15 1.6-3.15 2.65-3.65 6.7-.45 3.75 1.65 7 1.35 2 3.65 2.95 2.2.95 4.55.7 2.55-.3 4.1-1.7 1.8-1.65 1.8-4.5-.6 2.75-3.65 3.8-3 1.05-5.75-.55-1.8-1.05-2.65-3.15-.8-1.95-.55-4.1.25-.9.25-.95.55-2.35 2.4-4.05 1.45-1.05 1.7-1.2l.1-.1q1.8-1 3.35-1.2 1.7-.25 3.8.3 7.45 1.8 10.3 10.2z" id="aj"/><path fill="url(#i)" d="M78 184.5q-7.7-1.15-14.65 1.8-6.8 2.9-10.3 8.65 4.3-4.15 10.7-6.05 6.6-1.9 13.7-.85 7.15 1.1 12.9 4.85 5.55 3.65 8.35 8.9-1.7-6.55-7.2-11.25-5.7-4.85-13.5-6.05z" id="ak"/><path fill="url(#j)" d="M80.95 208.7q-1.3-5.2-6.9-6-5.6-.85-8.5 3.8 2.8-2.7 8.2-1.9 5.35.75 7.2 4.1z" id="al"/><path fill="url(#k)" d="M56.85 226.5q-6.9-4.15-9.7-11.45-3.15-8.35.2-18.45-4 7.6-3.25 15.55.85 9.4 7.2 15.35 8.8 8.05 20.25 5.45 11.6-2.6 14.3-13.75-3.2 8.25-11.6 10.4-8.45 2.2-17.4-3.1z" id="am"/><path fill="url(#l)" d="M135.75 239.15Q139.9 232.6 141 209q1.05 8.15 6.3 12.6 5.2 4.45 12.85 3.75 9.9-1 13.4-2.6 5.45-2.45 6.7-9.05 1.3-7-1.45-14.6-3-8.25-9.5-12.7-6.4-4.55-15.3-4.7-24.45-.15-35.1 22.05-4.4 9.25-5.3 20.55-.9 10.7 1.55 20.4 1.55 6.15 8.6 4.2 7.05-1.9 12-9.75z" id="an"/><path fill="url(#m)" d="M119.4 240.7q-2.633-.23-5.45 1.8l5.45-1.8m3.35 1.25q1.35.9 1.4.85.1-.15-.85-3-.058-.176-.15-.35l-3.75 1.25q1.714.146 3.35 1.25m32.6-60.05q-8.8-.05-16.8 4.25-12.55 6.85-16.9 19.3-4.956 14.174 1.5 34l14.55-4.8q1.4-.5 2.75-1.9 1.55-1.5 1.35-2.6-1-5.3.25-12.15.95 7.8 7.15 11.8 5.7 3.7 13.8 2.9 7.9-.75 13.85-6.35 5.75-5.45 7.15-12.95 1.35-6.75-1.6-13.9-3.1-7.55-9.65-12.1-7.8-5.4-17.4-5.5z" id="ao"/><path fill="url(#n)" d="M140.25 214.1q5.85-14.65 13.45-15.25 8.95-.6 14.95 9.45-.7-6.85-5-10.35-3.95-3.2-9.55-2.8-5.95.45-9.95 5-4.65 5.35-3.9 13.95z" id="ap"/><path fill="url(#o)" d="M154.4 201.45q2.15-.35 3.85.05 1.55.35 3.2 1.45l.15.05 1.6 1.3q1.85 2 2.15 4.25.05.1.15.95.05 2.15-.85 4.05-1 2.1-2.9 3-2.85 1.35-5.8.05-2.95-1.25-3.35-4-.25 2.75 1.45 4.6 1.5 1.55 3.95 2 2.35.45 4.6-.35 2.35-.8 3.85-2.7 2.35-2.95 2.2-6.8-.25-4.05-3.1-7.05-.55-.55-2.05-1.75l-.15-.05q-3.35-2.1-6.55-2.25-10.85-.35-14.9 10.85-3.4 9.5-.5 17.95-.95-9.15 2.05-16.25 3.5-8.15 10.95-9.35z" id="aq"/><path fill="url(#p)" d="M176.75 197.05q-3.1-6-9.7-9.4-6.7-3.5-14.5-3-7.8.6-13.85 5-5.9 4.3-8.05 10.7 3.2-5 9-8.2 6-3.35 13.2-3.9 7.2-.5 13.65 1.95 6.3 2.35 10.25 6.85z" id="ar"/><path fill="url(#q)" d="M155.1 203.1q-5.65.4-7.3 5.55 2-3.25 7.5-3.65 5.45-.4 7.95 2.5-2.5-4.8-8.15-4.4z" id="as"/><path fill="url(#r)" d="M152.85 229.95q-8.2-2.8-10.75-11.25 1.85 11.35 13.2 14.85 11.25 3.4 20.65-3.95 6.8-5.45 8.35-14.75 1.3-8-2.05-15.8 2.55 10.4-1.25 18.45-3.35 7.15-10.55 10.65-9.3 4.6-17.6 1.8z" id="at"/><path fill="url(#s)" d="M139.45 237q-2.55 4.1-3.65 6.9-1.7 4.4-.7 7.45-.6.2 4.45-1 5.95-.7 8.6 2.2 4.25 4.6 12.85 5.25 7.8.55 13.95-2.15 4.15-1.75 1.8-6.75-3.95-8.4-13.05-11.45-8.75-2.9-17.85.3-1.7.55-3.4-1.9-1.2-1.7-3 1.15z" id="au"/><path fill="url(#t)" d="M142.25 239.8q-1.9 3-2.7 5-1.25 3.25-.45 5.5l2.8-.9q4-.7 6.25 1.05 5.95 4.8 17.35 4 3.05-.25 4.2-1.25 1.35-1.25-.3-3.4-3.95-5.05-12.35-6.45-7.85-1.3-14.65 1.15-1.65.55-.25-3.45.65-1.7.75-2.05.15-.5-.65.8z" id="av"/><path fill="url(#u)" d="M171.5 250.05q2.7 4.55-5.3 5.55-6.7.85-10.55-.4 2.6 1.15 6.55 1.5 3.95.3 7.35-.4 3.4-.75 4.65-2.6 1.2-1.5-.2-4.4-1.95-4.35-7.5-6.8-5.9-2.55-12.75-1.45 5.55.75 10 2.75 5.45 2.45 7.75 6.25z" id="aw"/><path fill="url(#v)" d="M91.35 243.9q-.95-2.55-3.6-6.9-1.8-2.85-3-1.15-1.75 2.45-3.4 1.9-9.15-3.2-17.85-.3-9.2 3.05-13.05 11.45-2.35 5 1.8 6.75 6.15 2.7 13.95 2.15 8.55-.65 12.75-5.25 2.65-2.9 8.6-2.2 2.9.3 4.5 1 1.05-3-.7-7.45z" id="ax"/><path fill="url(#w)" d="M87.6 244.8q-.7-1.8-2.65-5-.8-1.3-.65-.8.1.35.7 2.05 1.4 4-.2 3.45-6.9-2.45-14.7-1.15-8.45 1.4-12.3 6.45-1.7 2.15-.35 3.4 1.15 1 4.15 1.25 11.4.8 17.45-4 2.25-1.75 6.2-1.05 1.95.35 2.85.9.75-2.25-.5-5.5z" id="ay"/><path fill="url(#x)" d="M63.4 243.8q4.45-2 9.95-2.75-6.85-1.1-12.7 1.45-5.5 2.45-7.55 6.8-1.3 2.75-.2 4.4 1.3 1.85 4.75 2.6 3.3.7 7.35.4 3.95-.35 6.55-1.5-4 1.25-10.6.4-8-1-5.3-5.55 2.25-3.8 7.75-6.25z" id="az"/><path fill="url(#y)" d="M97.55 250.1q-3.85 0-6.6 2.75-2.7 2.7-2.7 6.55 0 2.25 1 4.1-2.9-3-6.85-3-3.85 0-6.6 2.7-2.7 2.7-2.7 6.55 0 2.3 1 4.3 1 1.95 2.75 3.2-1.3-.35-2.65-.35-3.85 0-6.55 2.7-2.75 2.75-2.75 6.6 0 3.7 2.6 6.4 2.55 2.7 6.25 2.85-2.8.95-4.5 3.35-1.8 2.4-1.8 5.45 0 3.85 2.7 6.55 2.75 2.75 6.55 2.75 2.7 0 4.9-1.4-2.3 2.8-2.3 6.05 0 3.85 2.75 6.6 2.7 2.7 6.55 2.7 2.5 0 4.7-1.25 2.1-1.2 3.3-3.3-.35 1.4-.35 2.55 0 3.85 2.7 6.55 2.75 2.75 6.55 2.75 3.55 0 6.2-2.35 2.6-2.3 3.05-5.75.4 3.45 3.05 5.8 2.65 2.35 6.15 2.35 3.85 0 6.55-2.7 2.75-2.7 2.75-6.6 0-1.15-.3-2.35 1.2 2.15 3.35 3.4 2.15 1.25 4.7 1.25 3.85 0 6.6-2.7 2.7-2.7 2.7-6.55 0-3.25-2.15-6 2.3 1.5 4.95 1.5 3.85 0 6.6-2.7 2.7-2.7 2.7-6.55 0-3-1.75-5.45-1.7-2.35-4.45-3.35 3.8-.1 6.45-2.8 2.65-2.7 2.65-6.5t-2.75-6.55q-2.7-2.75-6.55-2.75-1.3 0-2.5.4 1.8-1.35 2.85-3.3 1.1-2.05 1.1-4.3 0-3.85-2.75-6.6-2.7-2.75-6.55-2.75-3.95 0-6.75 2.95 1.05-2.1 1.05-4.25 0-3.85-2.7-6.55-2.75-2.75-6.6-2.75-3.05 0-5.5 1.8-2.333 1.701-3.3 4.4.05-.196.05-.5 0-3.8-2.75-6.55-2.7-2.7-6.55-2.7-3.65 0-6.3 2.45-2.65 2.4-3 6-1.15-2.3-3.35-3.65-2.25-1.45-4.9-1.45z" id="aA"/><path fill="url(#z)" d="M146 235.9q-5.8-10.65-19.1-13.95-5.45-1.4-13.3-1.3-7.85-.1-13.4 1.3-13.3 3.3-19.1 13.95-4.7 8.75-3.95 21.25.45 7.5 4.25 14.85 3.45 6.75 9.2 12.3 2.8 2.7 3.6 3.65 1.85 2.05 2.7 4.2 2.45 6.25 7.4 9.05 3.95 2.25 9.05 2.05h.45q5.1.2 9.05-2.05 4.9-2.8 7.45-9.05.85-2.15 2.65-4.2 1-1.2 3.6-3.65 5.75-5.55 9.2-12.3 3.8-7.35 4.25-14.85.7-12.55-4-21.25z" id="aB"/><path fill="url(#A)" d="M148.45 241.75Q145.3 231.4 136.7 226l-23.1 9.8-23.1-9.8q-8.7 5.35-11.75 15.75 1.6 3.5 5.4 5.2 4.25 2 9.7.85 7.05-1.45 11.25 1.8 5.15 4.05 4.8 15.05-.25 9.25-3.5 16.25l7.2 1.9 7.1-1.9q-3.25-7-3.5-16.25-.3-11 4.9-15.05 4.05-3.25 11.2-1.8 5.45 1.15 9.75-.85 3.8-1.75 5.4-5.2z" id="aC"/><path fill="url(#B)" d="M128.3 213.85q-1.55-1.6-3.75-1.6-2.05 0-3.55 1.35-1.55 1.3-1.8 3.25h-.05v-.3q0-2.2-1.6-3.75-1.6-1.55-3.8-1.55-2.2 0-3.8 1.55-1.55 1.55-1.55 3.75v.2h-.05q-.3-1.95-1.8-3.25-1.5-1.35-3.45-1.35-2.25 0-3.8 1.6-1.6 1.6-1.6 3.8 0 .8.2 1.4h-.15q-.6-1.45-1.9-2.3-1.35-.9-3-.9-2.2 0-3.8 1.6-1.55 1.6-1.55 3.8 0 1.9 1.25 3.4-2.2 0-3.8 1.6-1.55 1.6-1.55 3.8 0 2.2 1.55 3.8 1.6 1.55 3.8 1.55 2.35 0 3.8-1.6h.1q-.5 1.15-.5 2.2 0 2.25 1.6 3.85 1.6 1.55 3.8 1.55 1.8 0 3.25-1.1 1.4-1.1 1.85-2.85h.15q-.1.3-.1.8 0 2.2 1.6 3.8 1.6 1.6 3.8 1.6 2.1 0 3.65-1.5 1.6-1.5 1.7-3.6h.05q.1 2.1 1.7 3.6 1.55 1.5 3.7 1.5 2.2 0 3.8-1.55 1.55-1.55 1.55-3.75v-.8h.05q.5 1.75 1.95 2.85t3.25 1.1q2.2 0 3.8-1.55 1.6-1.6 1.6-3.8 0-1.1-.5-2.2h.05q1.6 1.7 3.9 1.7 2.2 0 3.8-1.6 1.6-1.6 1.6-3.8 0-2.1-1.5-3.65-1.45-1.55-3.6-1.65 1.35-1.5 1.35-3.55 0-2.25-1.55-3.8-1.6-1.6-3.85-1.6-1.55 0-2.85.9-1.3.8-1.95 2.2h-.1q.15-.65.15-1.35 0-2.2-1.55-3.8z" id="aD"/><path fill="#F7E148" d="M94.65 267.8q-3.45 0-5.9 2.5-2.5 2.5-2.5 5.95t2.5 5.95q2.45 2.45 5.9 2.45t5.95-2.45q2.5-2.5 2.5-5.95t-2.5-5.95q-2.5-2.5-5.95-2.5z" id="aE"/><path fill="#F7E048" d="M94.65 268q-3.35 0-5.8 2.45-2.45 2.45-2.45 5.8 0 3.4 2.45 5.8 2.45 2.45 5.8 2.45 3.4 0 5.8-2.45 2.45-2.4 2.45-5.8 0-3.35-2.45-5.8-2.4-2.45-5.8-2.45z" id="aF"/><path fill="#F7DF47" d="M94.65 268.15q-3.3 0-5.7 2.4-2.4 2.4-2.4 5.7 0 3.3 2.4 5.7 2.4 2.35 5.7 2.35 3.3 0 5.7-2.35 2.4-2.4 2.4-5.7 0-3.3-2.4-5.7-2.4-2.4-5.7-2.4z" id="aG"/><path fill="#F7DF47" d="M94.65 268.35q-3.25 0-5.55 2.3-2.35 2.35-2.35 5.6 0 3.25 2.35 5.55 2.35 2.35 5.55 2.35 3.25 0 5.55-2.35 2.35-2.3 2.35-5.55t-2.35-5.6q-2.3-2.3-5.55-2.3z" id="aH"/><path fill="#F7DE47" d="M94.65 268.5q-3.2 0-5.45 2.3-2.3 2.25-2.3 5.45 0 3.15 2.3 5.45 2.25 2.3 5.45 2.3t5.45-2.3q2.3-2.3 2.3-5.45 0-3.2-2.3-5.45-2.25-2.3-5.45-2.3z" id="aI"/><path fill="#F7DD46" d="M94.65 268.7q-3.1 0-5.35 2.2-2.2 2.25-2.2 5.35 0 3.1 2.2 5.35 2.25 2.2 5.35 2.2 3.1 0 5.35-2.2 2.2-2.25 2.2-5.35 0-3.1-2.2-5.35-2.25-2.2-5.35-2.2z" id="aJ"/><path fill="#F7DC46" d="M94.65 268.85q-3.05 0-5.2 2.2-2.2 2.15-2.2 5.2 0 3.05 2.2 5.2 2.15 2.2 5.2 2.2 3.05 0 5.2-2.2 2.2-2.15 2.2-5.2 0-3.05-2.2-5.2-2.15-2.2-5.2-2.2z" id="aK"/><path fill="#F7DB46" d="M94.65 269.05q-2.95 0-5.1 2.1-2.1 2.15-2.1 5.1 0 2.95 2.1 5.1 2.15 2.1 5.1 2.1 2.95 0 5.1-2.1 2.1-2.15 2.1-5.1 0-2.95-2.1-5.1-2.15-2.1-5.1-2.1z" id="aL"/><path fill="#F7DB45" d="M94.65 269.2q-2.9 0-4.95 2.1-2.1 2.05-2.1 4.95 0 2.9 2.1 4.95 2.05 2.1 4.95 2.1 2.9 0 4.95-2.1 2.1-2.05 2.1-4.95 0-2.9-2.1-4.95-2.05-2.1-4.95-2.1z" id="aM"/><path fill="#F7DA45" d="M94.65 269.4q-2.8 0-4.85 2-2 2.05-2 4.85t2 4.85q2.05 2 4.85 2t4.85-2q2-2.05 2-4.85t-2-4.85q-2.05-2-4.85-2z" id="aN"/><path fill="#F7D945" d="M94.65 269.55q-2.75 0-4.7 2-2 1.95-2 4.7t2 4.7q1.95 2 4.7 2t4.7-2q2-1.95 2-4.7t-2-4.7q-1.95-2-4.7-2z" id="aO"/><path fill="#F8D844" d="M94.65 269.75q-2.65 0-4.6 1.9-1.9 1.95-1.9 4.6 0 2.65 1.9 4.6 1.95 1.9 4.6 1.9 2.65 0 4.6-1.9 1.9-1.95 1.9-4.6 0-2.65-1.9-4.6-1.95-1.9-4.6-1.9z" id="aP"/><path fill="#F8D744" d="M94.65 269.9q-2.6 0-4.45 1.9-1.9 1.85-1.9 4.45t1.9 4.45q1.85 1.9 4.45 1.9t4.45-1.9q1.9-1.85 1.9-4.45t-1.9-4.45q-1.85-1.9-4.45-1.9z" id="aQ"/><path fill="#F8D744" d="M94.65 270.1q-2.5 0-4.35 1.8-1.8 1.8-1.8 4.35 0 2.5 1.8 4.35 1.85 1.8 4.35 1.8 2.55 0 4.35-1.8 1.8-1.85 1.8-4.35 0-2.55-1.8-4.35-1.8-1.8-4.35-1.8z" id="aR"/><path fill="#F8D643" d="M94.65 270.25q-2.45 0-4.25 1.75-1.75 1.8-1.75 4.25t1.75 4.2q1.8 1.8 4.25 1.8t4.25-1.8q1.75-1.75 1.75-4.2T98.9 272q-1.75-1.75-4.25-1.75z" id="aS"/><path fill="#F8D543" d="M94.65 270.4q-2.4 0-4.1 1.75-1.7 1.7-1.7 4.1 0 2.4 1.7 4.1 1.7 1.7 4.1 1.7 2.4 0 4.1-1.7 1.7-1.7 1.7-4.1 0-2.4-1.7-4.1-1.7-1.75-4.1-1.75z" id="aT"/><path fill="#F8D443" d="M94.65 270.6q-2.3 0-4 1.65-1.65 1.7-1.65 4 0 2.35 1.65 4 1.7 1.65 4 1.65 2.35 0 4-1.65t1.65-4q0-2.3-1.65-4-1.65-1.65-4-1.65z" id="aU"/><path fill="#F8D342" d="M94.65 270.75q-2.25 0-3.85 1.65-1.6 1.6-1.6 3.85t1.6 3.85q1.6 1.6 3.85 1.6t3.9-1.6q1.6-1.6 1.6-3.85t-1.6-3.85q-1.65-1.65-3.9-1.65z" id="aV"/><path fill="#F8D342" d="M94.65 270.95q-2.15 0-3.75 1.55-1.55 1.6-1.55 3.75 0 2.2 1.55 3.75 1.6 1.55 3.75 1.55 2.2 0 3.75-1.55 1.55-1.55 1.55-3.75 0-2.15-1.55-3.75-1.55-1.55-3.75-1.55z" id="aW"/><path fill="#F8D242" d="M94.65 271.1q-2.1 0-3.6 1.55-1.55 1.5-1.55 3.6t1.55 3.6q1.5 1.5 3.6 1.5t3.65-1.5q1.5-1.5 1.5-3.6t-1.5-3.6q-1.55-1.55-3.65-1.55z" id="aX"/><path fill="#F8D141" d="M94.65 271.3q-2 0-3.5 1.45-1.45 1.5-1.45 3.5 0 2.05 1.45 3.5 1.5 1.45 3.5 1.45 2.05 0 3.5-1.45 1.45-1.45 1.45-3.5 0-2-1.45-3.5-1.45-1.45-3.5-1.45z" id="aY"/><path fill="#F8D041" d="M94.65 271.45q-1.95 0-3.35 1.45-1.45 1.4-1.45 3.35 0 1.95 1.45 3.4 1.4 1.4 3.35 1.4 1.95 0 3.4-1.4 1.4-1.45 1.4-3.4t-1.4-3.35q-1.45-1.45-3.4-1.45z" id="aZ"/><path fill="#F8CF41" d="M94.65 271.65q-1.85 0-3.25 1.35-1.35 1.4-1.35 3.25 0 1.9 1.35 3.25 1.4 1.35 3.25 1.35 1.9 0 3.25-1.35t1.35-3.25q0-1.85-1.35-3.25-1.35-1.35-3.25-1.35z" id="ba"/><path fill="#F9CF40" d="M94.65 271.8q-1.8 0-3.1 1.3-1.35 1.3-1.35 3.15 0 1.8 1.35 3.15 1.3 1.3 3.1 1.3 1.85 0 3.15-1.3 1.3-1.35 1.3-3.15 0-1.85-1.3-3.15-1.3-1.3-3.15-1.3z" id="bb"/><path fill="#F9CE40" d="M94.65 272q-1.75 0-3 1.25t-1.25 3q0 1.75 1.25 3t3 1.25q1.75 0 3-1.25t1.25-3q0-1.75-1.25-3t-3-1.25z" id="bc"/><path fill="#F9CD40" d="M94.65 272.15q-1.7 0-2.9 1.2t-1.2 2.9q0 1.7 1.2 2.9t2.9 1.2q1.7 0 2.9-1.2t1.2-2.9q0-1.7-1.2-2.9t-2.9-1.2z" id="bd"/><path fill="#F9CC3F" d="M94.65 272.35q-1.6 0-2.75 1.15t-1.15 2.75q0 1.6 1.15 2.75t2.75 1.15q1.6 0 2.75-1.15t1.15-2.75q0-1.6-1.15-2.75t-2.75-1.15z" id="be"/><path fill="#F9CB3F" d="M94.65 272.5q-1.55 0-2.65 1.1-1.1 1.1-1.1 2.65 0 1.55 1.1 2.65 1.1 1.1 2.65 1.1 1.55 0 2.65-1.1 1.1-1.1 1.1-2.65 0-1.55-1.1-2.65-1.1-1.1-2.65-1.1z" id="bf"/><path fill="#F9CB3F" d="M94.65 272.7q-1.45 0-2.5 1.05t-1.05 2.5q0 1.45 1.05 2.5t2.5 1.05q1.45 0 2.5-1.05t1.05-2.5q0-1.45-1.05-2.5t-2.5-1.05z" id="bg"/><path fill="#F9CA3E" d="M94.65 272.85q-1.4 0-2.4 1t-1 2.4q0 1.4 1 2.4t2.4 1q1.4 0 2.4-1t1-2.4q0-1.4-1-2.4t-2.4-1z" id="bh"/><path fill="#F9C93E" d="M94.65 273q-1.3 0-2.25.95-.95 1-.95 2.3 0 1.3.95 2.25t2.25.95q1.3 0 2.25-.95t.95-2.25q0-1.3-.95-2.3-.95-.95-2.25-.95z" id="bi"/><path fill="#F9C83E" d="M94.65 273.2q-1.25 0-2.15.9-.9.9-.9 2.15t.9 2.15q.9.9 2.15.9t2.15-.9q.9-.9.9-2.15t-.9-2.15q-.9-.9-2.15-.9z" id="bj"/><path fill="#F9C73D" d="M94.65 273.35q-1.15 0-2 .85-.85.85-.85 2.05 0 1.15.85 2 .85.85 2 .85t2-.85q.85-.85.85-2 0-1.2-.85-2.05-.85-.85-2-.85z" id="bk"/><path fill="#F9C73D" d="M94.65 273.55q-1.1 0-1.9.8-.8.8-.8 1.9 0 1.1.8 1.9.8.8 1.9.8 1.1 0 1.9-.8.8-.8.8-1.9 0-1.1-.8-1.9-.75-.8-1.9-.8z" id="bl"/><path fill="#F9C63D" d="M94.65 273.7q-1.05 0-1.8.75t-.75 1.8q0 1.05.75 1.8.75.7 1.8.7t1.8-.7q.75-.75.75-1.8t-.75-1.8q-.75-.75-1.8-.75z" id="bm"/><path fill="#F9C53C" d="M94.65 273.9q-.95 0-1.65.7t-.7 1.65q0 1 .7 1.65.7.7 1.65.7 1 0 1.65-.7.7-.65.7-1.65 0-.95-.7-1.65-.65-.7-1.65-.7z" id="bn"/><path fill="#F9C43C" d="M94.65 274.05q-.9 0-1.55.65t-.65 1.55q0 .9.65 1.55.65.6 1.55.6t1.55-.6q.65-.65.65-1.55t-.65-1.55q-.65-.65-1.55-.65z" id="bo"/><path fill="#FAC33B" d="M94.65 274.25q-.8 0-1.4.6-.6.6-.6 1.4 0 .85.6 1.4.6.6 1.4.6.85 0 1.4-.6.6-.55.6-1.4 0-.8-.6-1.4-.55-.6-1.4-.6z" id="bp"/><path fill="#FAC23B" d="M94.65 274.4q-.75 0-1.3.55t-.55 1.3q0 .75.55 1.3t1.3.55q.75 0 1.3-.55t.55-1.3q0-.75-.55-1.3t-1.3-.55z" id="bq"/><path fill="#FAC23B" d="M94.65 274.6q-.65 0-1.15.5-.5.5-.5 1.15 0 .7.5 1.15.5.5 1.15.5.7 0 1.15-.5.5-.45.5-1.15 0-.65-.5-1.15-.45-.5-1.15-.5z" id="br"/><path fill="#FAC13A" d="M94.65 274.75q-.6 0-1.05.45-.45.45-.45 1.05 0 .6.45 1.05.45.45 1.05.45.6 0 1.05-.45.45-.45.45-1.05 0-.6-.45-1.05-.45-.45-1.05-.45z" id="bs"/><path fill="#FAC03A" d="M94.65 274.95q-.5 0-.9.4t-.4.9q0 .55.4.9.4.4.9.4.55 0 .9-.4.4-.35.4-.9 0-.5-.4-.9-.35-.4-.9-.4z" id="bt"/><path fill="#FABF3A" d="M94.65 275.1q-.45 0-.8.35-.35.3-.35.8 0 .45.35.8.35.35.8.35.45 0 .8-.35.35-.35.35-.8 0-.5-.35-.8-.35-.35-.8-.35z" id="bu"/><path fill="#FABE39" d="M94.65 275.3q-.95 0-.95.95 0 .4.25.65.3.3.7.3.4 0 .7-.3.25-.25.25-.65 0-.95-.95-.95z" id="bv"/><path fill="#FABD39" d="M94.65 275.45q-.8 0-.8.8t.8.8q.8 0 .8-.8t-.8-.8z" id="bw"/><path fill="#F7E148" d="M132.45 267.8q-3.45 0-5.9 2.5t-2.45 5.95q0 3.45 2.45 5.95 2.45 2.45 5.9 2.45 3.5 0 5.95-2.45 2.45-2.5 2.45-5.95t-2.45-5.95q-2.45-2.5-5.95-2.5z" id="bx"/><path fill="#F7E048" d="M132.45 268q-3.35 0-5.8 2.45-2.4 2.4-2.4 5.8t2.4 5.8q2.45 2.45 5.8 2.45 3.45 0 5.85-2.45 2.4-2.4 2.4-5.8t-2.4-5.8q-2.4-2.45-5.85-2.45z" id="by"/><path fill="#F7DF47" d="M132.45 268.15q-3.3 0-5.65 2.4-2.35 2.4-2.35 5.7 0 3.3 2.35 5.7 2.35 2.35 5.65 2.35 3.35 0 5.75-2.35 2.35-2.4 2.35-5.7 0-3.3-2.35-5.7-2.4-2.4-5.75-2.4z" id="bz"/><path fill="#F7DF47" d="M132.45 268.35q-3.25 0-5.55 2.3-2.3 2.35-2.3 5.6 0 3.25 2.3 5.55 2.35 2.35 5.55 2.35 3.3 0 5.6-2.35 2.3-2.3 2.3-5.55t-2.3-5.6q-2.3-2.3-5.6-2.3z" id="bA"/><path fill="#F7DE47" d="M132.45 268.5q-3.2 0-5.4 2.3-2.25 2.25-2.25 5.45 0 3.15 2.25 5.45 2.25 2.3 5.4 2.3 3.2 0 5.5-2.3 2.25-2.3 2.25-5.45 0-3.2-2.25-5.45-2.3-2.3-5.5-2.3z" id="bB"/><path fill="#F7DD46" d="M132.45 268.7q-3.1 0-5.3 2.2-2.2 2.25-2.2 5.35 0 3.1 2.2 5.35 2.2 2.2 5.3 2.2 3.15 0 5.35-2.2 2.2-2.25 2.2-5.35 0-3.1-2.2-5.35-2.2-2.2-5.35-2.2z" id="bC"/><path fill="#F7DC46" d="M132.45 268.85q-3.05 0-5.15 2.2-2.15 2.15-2.15 5.2 0 3.05 2.15 5.2 2.1 2.2 5.15 2.2 3.05 0 5.25-2.2 2.15-2.15 2.15-5.2 0-3.05-2.15-5.2-2.2-2.2-5.25-2.2z" id="bD"/><path fill="#F7DB46" d="M132.45 269.05q-2.95 0-5.05 2.1-2.1 2.15-2.1 5.1 0 2.95 2.1 5.1 2.1 2.1 5.05 2.1 3 0 5.1-2.1 2.1-2.15 2.1-5.1 0-2.95-2.1-5.1-2.1-2.1-5.1-2.1z" id="bE"/><path fill="#F7DB45" d="M132.45 269.2q-2.9 0-4.9 2.1-2.05 2.05-2.05 4.95 0 2.9 2.05 4.95 2 2.1 4.9 2.1 2.9 0 5-2.1 2.05-2.05 2.05-4.95 0-2.9-2.05-4.95-2.1-2.1-5-2.1z" id="bF"/><path fill="#F7DA45" d="M132.45 269.4q-2.8 0-4.8 2-2 2.05-2 4.85t2 4.85q2 2 4.8 2 2.85 0 4.85-2 2-2.05 2-4.85t-2-4.85q-2-2-4.85-2z" id="bG"/><path fill="#F7D945" d="M132.45 269.55q-2.75 0-4.65 2-1.95 1.95-1.95 4.7t1.95 4.7q1.9 2 4.65 2 2.75 0 4.75-2 1.95-1.95 1.95-4.7t-1.95-4.7q-2-2-4.75-2z" id="bH"/><path fill="#F8D844" d="M132.45 269.75q-2.65 0-4.55 1.9-1.9 1.95-1.9 4.6 0 2.65 1.9 4.6 1.9 1.9 4.55 1.9 2.7 0 4.6-1.9 1.9-1.95 1.9-4.6 0-2.65-1.9-4.6-1.9-1.9-4.6-1.9z" id="bI"/><path fill="#F8D744" d="M132.45 269.9q-2.6 0-4.4 1.9-1.85 1.85-1.85 4.45t1.85 4.45q1.8 1.9 4.4 1.9 2.6 0 4.5-1.9 1.85-1.85 1.85-4.45t-1.85-4.45q-1.9-1.9-4.5-1.9z" id="bJ"/><path fill="#F8D744" d="M132.45 270.1q-2.5 0-4.3 1.8-1.8 1.8-1.8 4.35 0 2.5 1.8 4.35 1.8 1.8 4.3 1.8 2.55 0 4.35-1.8 1.8-1.8 1.8-4.35t-1.8-4.35q-1.75-1.8-4.35-1.8z" id="bK"/><path fill="#F8D643" d="M132.45 270.25q-2.45 0-4.2 1.75-1.7 1.75-1.7 4.25 0 2.45 1.7 4.2 1.75 1.8 4.2 1.8 2.5 0 4.25-1.8 1.75-1.75 1.75-4.2 0-2.5-1.75-4.25t-4.25-1.75z" id="bL"/><path fill="#F8D543" d="M132.45 270.4q-2.4 0-4.05 1.75-1.7 1.7-1.7 4.1 0 2.4 1.7 4.1 1.65 1.7 4.05 1.7 2.45 0 4.1-1.7 1.7-1.7 1.7-4.1 0-2.4-1.7-4.1-1.65-1.75-4.1-1.75z" id="bM"/><path fill="#F8D443" d="M132.45 270.6q-2.3 0-3.95 1.65-1.65 1.65-1.65 4t1.65 4q1.65 1.65 3.95 1.65 2.35 0 4-1.65t1.65-4q0-2.35-1.65-4t-4-1.65z" id="bN"/><path fill="#F8D342" d="M132.45 270.75q-2.25 0-3.8 1.65-1.6 1.6-1.6 3.85t1.6 3.85q1.55 1.6 3.8 1.6 2.3 0 3.9-1.6t1.6-3.85q0-2.25-1.6-3.85-1.6-1.65-3.9-1.65z" id="bO"/><path fill="#F8D342" d="M132.45 270.95q-2.15 0-3.7 1.55-1.55 1.55-1.55 3.75t1.55 3.75q1.55 1.55 3.7 1.55 2.2 0 3.75-1.55 1.55-1.55 1.55-3.75t-1.55-3.75q-1.55-1.55-3.75-1.55z" id="bP"/><path fill="#F8D242" d="M132.45 271.1q-2.1 0-3.55 1.55-1.5 1.5-1.5 3.6t1.5 3.6q1.45 1.5 3.55 1.5 2.15 0 3.65-1.5t1.5-3.6q0-2.1-1.5-3.6-1.5-1.55-3.65-1.55z" id="bQ"/><path fill="#F8D141" d="M132.45 271.3q-2 0-3.45 1.45-1.45 1.45-1.45 3.5t1.45 3.5q1.45 1.45 3.45 1.45 2.05 0 3.5-1.45 1.45-1.45 1.45-3.5t-1.45-3.5q-1.45-1.45-3.5-1.45z" id="bR"/><path fill="#F8D041" d="M132.45 271.45q-1.95 0-3.3 1.45-1.4 1.4-1.4 3.35 0 1.95 1.4 3.4 1.35 1.4 3.3 1.4 2 0 3.4-1.4 1.4-1.45 1.4-3.4t-1.4-3.35q-1.4-1.45-3.4-1.45z" id="bS"/><path fill="#F8CF41" d="M132.45 271.65q-1.85 0-3.2 1.35t-1.35 3.25q0 1.9 1.35 3.25t3.2 1.35q1.9 0 3.25-1.35t1.35-3.25q0-1.9-1.35-3.25t-3.25-1.35z" id="bT"/><path fill="#F9CF40" d="M132.45 271.8q-1.8 0-3.05 1.3-1.3 1.3-1.3 3.15 0 1.8 1.3 3.15 1.25 1.3 3.05 1.3 1.85 0 3.15-1.3 1.3-1.35 1.3-3.15 0-1.85-1.3-3.15-1.3-1.3-3.15-1.3z" id="bU"/><path fill="#F9CE40" d="M132.45 272q-1.75 0-3 1.25-1.2 1.25-1.2 3t1.2 3q1.25 1.25 3 1.25t3-1.25q1.25-1.25 1.25-3t-1.25-3q-1.25-1.25-3-1.25z" id="bV"/><path fill="#F9CD40" d="M132.45 272.15q-1.7 0-2.85 1.2-1.15 1.2-1.15 2.9t1.15 2.9q1.15 1.2 2.85 1.2 1.7 0 2.9-1.2t1.2-2.9q0-1.7-1.2-2.9t-2.9-1.2z" id="bW"/><path fill="#F9CC3F" d="M132.45 272.35q-1.6 0-2.75 1.15-1.1 1.15-1.1 2.75t1.1 2.75q1.15 1.15 2.75 1.15t2.75-1.15q1.15-1.15 1.15-2.75t-1.15-2.75q-1.15-1.15-2.75-1.15z" id="bX"/><path fill="#F9CB3F" d="M132.45 272.5q-1.55 0-2.6 1.1t-1.05 2.65q0 1.55 1.05 2.65 1.05 1.1 2.6 1.1t2.65-1.1q1.1-1.1 1.1-2.65 0-1.55-1.1-2.65-1.1-1.1-2.65-1.1z" id="bY"/><path fill="#F9CB3F" d="M132.45 272.7q-1.45 0-2.5 1.05-1 1.05-1 2.5t1 2.5q1.05 1.05 2.5 1.05 1.5 0 2.55-1.05 1-1.05 1-2.5t-1-2.5q-1.05-1.05-2.55-1.05z" id="bZ"/><path fill="#F9CA3E" d="M132.45 272.85q-1.4 0-2.35 1-.95 1-.95 2.4t.95 2.4q.95 1 2.35 1 1.4 0 2.4-1t1-2.4q0-1.4-1-2.4t-2.4-1z" id="ca"/><path fill="#F9C93E" d="M132.45 273q-1.3 0-2.25.95-.9 1-.9 2.3 0 1.3.9 2.25.95.95 2.25.95 1.35 0 2.3-.95.9-.95.9-2.25t-.9-2.3q-.95-.95-2.3-.95z" id="cb"/><path fill="#F9C83E" d="M132.45 273.2q-1.25 0-2.1.9-.85.9-.85 2.15t.85 2.15q.85.9 2.1.9t2.15-.9q.9-.9.9-2.15t-.9-2.15q-.9-.9-2.15-.9z" id="cc"/><path fill="#F9C73D" d="M132.45 273.35q-1.15 0-2 .85-.8.85-.8 2.05 0 1.15.8 2 .85.85 2 .85 1.2 0 2.05-.85.8-.85.8-2 0-1.2-.8-2.05-.85-.85-2.05-.85z" id="cd"/><path fill="#F9C73D" d="M132.45 273.55q-1.1 0-1.85.8-.8.8-.8 1.9 0 1.1.8 1.9.75.8 1.85.8t1.9-.8q.8-.8.8-1.9 0-1.1-.8-1.9-.75-.8-1.9-.8z" id="ce"/><path fill="#F9C63D" d="M132.45 273.7q-1.05 0-1.75.75t-.7 1.8q0 1.05.7 1.8.7.7 1.75.7t1.8-.7q.75-.75.75-1.8t-.75-1.8q-.75-.75-1.8-.75z" id="cf"/><path fill="#F9C53C" d="M132.45 273.9q-.95 0-1.65.7-.65.65-.65 1.65 0 1 .65 1.65.7.7 1.65.7 1 0 1.65-.7.7-.65.7-1.65 0-.95-.7-1.65-.65-.7-1.65-.7z" id="cg"/><path fill="#F9C43C" d="M132.45 274.05q-.9 0-1.5.65t-.6 1.55q0 .9.6 1.55.6.6 1.5.6t1.55-.6q.65-.65.65-1.55t-.65-1.55q-.65-.65-1.55-.65z" id="ch"/><path fill="#FAC33B" d="M132.45 274.25q-.8 0-1.4.6-.55.55-.55 1.4 0 .85.55 1.4.6.6 1.4.6.85 0 1.4-.6.6-.55.6-1.4 0-.8-.6-1.4-.55-.6-1.4-.6z" id="ci"/><path fill="#FAC23B" d="M132.45 274.4q-.75 0-1.25.55t-.5 1.3q0 .75.5 1.3t1.25.55q.75 0 1.3-.55t.55-1.3q0-.75-.55-1.3t-1.3-.55z" id="cj"/><path fill="#FAC23B" d="M132.45 274.6q-.65 0-1.15.5-.45.45-.45 1.15t.45 1.15q.5.5 1.15.5.7 0 1.15-.5.5-.45.5-1.15 0-.65-.5-1.15-.45-.5-1.15-.5z" id="ck"/><path fill="#FAC13A" d="M132.45 274.75q-.6 0-1 .45t-.4 1.05q0 .6.4 1.05.4.45 1 .45t1.05-.45q.45-.45.45-1.05 0-.6-.45-1.05-.45-.45-1.05-.45z" id="cl"/><path fill="#FAC03A" d="M132.45 274.95q-.5 0-.9.4-.35.35-.35.9t.35.9q.4.4.9.4.55 0 .9-.4.4-.35.4-.9 0-.5-.4-.9-.35-.4-.9-.4z" id="cm"/><path fill="#FABF3A" d="M132.45 275.1q-.45 0-.75.35-.3.3-.3.8 0 .45.3.8.3.35.75.35.5 0 .8-.35.35-.35.35-.8 0-.5-.35-.8-.3-.35-.8-.35z" id="cn"/><path fill="#FABE39" d="M132.45 275.3q-.9 0-.9.95t.9.95q.4 0 .7-.3.25-.25.25-.65 0-.95-.95-.95z" id="co"/><path fill="#FABD39" d="M132.45 275.45q-.7 0-.7.8t.7.8q.8 0 .8-.8t-.8-.8z" id="cp"/><path fill="url(#C)" d="M113.65 212.1q-1.5 0-2.55.75-1.1.75-1.1 1.75 0 1.05 1.1 1.8 1.05.75 2.55.75 1.45 0 2.55-.75 1.05-.75 1.05-1.8 0-1-1.05-1.75-1.1-.75-2.55-.75z" id="cq"/><path fill="url(#D)" d="M102.65 212.95q-1.5 0-2.55.75-1.05.75-1.05 1.85 0 1 1.05 1.75t2.55.75q1.5 0 2.55-.75 1.05-.75 1.05-1.75 0-1.1-1.05-1.85t-2.55-.75z" id="cr"/><path fill="url(#E)" d="M124.75 212.95q-1.5 0-2.55.75-1.05.75-1.05 1.85 0 1 1.05 1.75t2.55.75q1.5 0 2.55-.75 1.05-.75 1.05-1.75 0-1.1-1.05-1.85t-2.55-.75z" id="cs"/><path fill="url(#F)" d="M92.4 216.7q-1.5 0-2.55.75-1.05.75-1.05 1.85 0 1 1.05 1.75t2.55.75q1.5 0 2.55-.75 1.05-.7 1.05-1.75 0-1.1-1.05-1.85-1-.75-2.55-.75z" id="ct"/><path fill="url(#G)" d="M135.1 216.7q-1.5 0-2.55.75-1.1.75-1.1 1.85 0 1 1.1 1.75 1.05.75 2.55.75 1.45 0 2.55-.75 1.05-.75 1.05-1.75 0-1.1-1.05-1.85-1.1-.75-2.55-.75z" id="cu"/><path fill="url(#H)" d="M103.75 259.9q.3-.8-.1-1.85-1-3.2-3.7-5.15-2.7-2-6.1-2-3.4 0-6.1 2-2.65 1.95-3.7 5.15-.35 1.05-.05 1.85.3.95 1.45 1.25.9.3 1.7-.2.95-.55 1.25-2h10.95q.3 1.45 1.2 2 .8.5 1.75.2 1.15-.3 1.45-1.25z" id="cv"/><path d="M86.5 261.75l1.65-3.45q-2.3 1.1-4.35-.2-2.3-1.5-2.05-5.2-1.1 3 0 5.4 1.2 2.65 4.75 3.45z" id="cw"/><path d="M87.75 259.6l1.45-2.95q-2.15 1.05-3.95-.2-1.95-1.35-1.1-4.4-1.45 2.25-.45 4.55 1.1 2.35 4.05 3z" id="cx"/><path fill="#FFF" d="M93.85 255q-3.35 0-5.7 2.35t-2.35 5.7q0 3.35 2.35 5.75 2.35 2.35 5.7 2.35t5.7-2.35q2.35-2.4 2.35-5.75t-2.35-5.7Q97.2 255 93.85 255z" id="cy"/><path fill="url(#I)" d="M93.85 256.95q-2.5 0-4.3 1.8-1.8 1.8-1.8 4.3 0 2.55 1.8 4.35 1.8 1.8 4.3 1.8 2.55 0 4.35-1.8 1.8-1.8 1.8-4.35 0-2.5-1.8-4.3-1.8-1.8-4.35-1.8z" id="cz"/><path fill="url(#J)" d="M91.1 265.3q-.4-.5-.85-.55-.4-.05-.65.2-.3.25-.3.8.05.5.45.9 1.65 1.9 4.1 1.9 2.45 0 4.1-1.9.4-.4.45-.9.05-.55-.3-.8-.65-.65-1.6.35-.9 1.3-2.65 1.3-1.7 0-2.75-1.3z" id="cA"/><path d="M93.85 260.25q-1.15 0-1.95.8-.85.85-.85 2t.85 2q.8.85 1.95.85t1.95-.85q.85-.85.85-2t-.85-2q-.8-.8-1.95-.8z" id="cB"/><path fill="#FFF" d="M96.8 262.55q-.95 0-.95.9 0 .35.3.6.25.25.65.25.35 0 .6-.25.3-.25.3-.6 0-.4-.3-.65-.25-.25-.6-.25z" id="cC"/><path fill="#FFF" d="M91.35 259.2q-.75 0-1.25.5-.55.5-.55 1.3 0 .7.55 1.2.5.5 1.25.5.7 0 1.2-.5t.5-1.2q0-.75-.5-1.3-.5-.5-1.2-.5z" id="cD"/><path fill="url(#K)" d="M143.15 259.9q.3-.85-.1-1.85-1-3.15-3.65-5.15-2.7-2-6.1-2h-.05q-3.4 0-6.1 2-2.7 2-3.7 5.15-.35 1.05-.05 1.85.3.95 1.4 1.25.95.3 1.8-.2.95-.55 1.25-2h10.85q.3 1.45 1.25 2 .85.5 1.8.2 1.1-.3 1.4-1.25z" id="cE"/><path d="M138.95 258.3l1.65 3.45q3.6-.8 4.8-3.45 1.15-2.4 0-5.4.3 3.7-2.05 5.2-2.1 1.3-4.4.2z" id="cF"/><path d="M138 256.65l1.35 2.95q3-.65 4.1-3 1.05-2.3-.4-4.55.85 3.05-1.15 4.4-1.8 1.25-3.9.2z" id="cG"/><path fill="#FFF" d="M138.95 257.35q-2.35-2.35-5.7-2.35-3.3 0-5.65 2.35-2.4 2.35-2.4 5.7t2.4 5.75q2.35 2.35 5.65 2.35 3.35 0 5.7-2.35 2.35-2.4 2.35-5.75t-2.35-5.7z" id="cH"/><path fill="url(#L)" d="M133.25 256.95q-2.5 0-4.3 1.8-1.85 1.8-1.85 4.3 0 2.55 1.85 4.35 1.8 1.8 4.3 1.8 2.55 0 4.4-1.8 1.8-1.8 1.8-4.35 0-2.5-1.8-4.3-1.85-1.8-4.4-1.8z" id="cI"/><path fill="url(#M)" d="M130.6 265.3q-.95-1-1.6-.35-.35.25-.3.8.05.5.45.9 1.65 1.9 4.1 1.9 2.5 0 4.15-1.9.35-.4.4-.9.05-.5-.25-.8-.75-.65-1.55.35-1.05 1.3-2.75 1.3-1.6 0-2.65-1.3z" id="cJ"/><path d="M133.25 260.25q-1.15 0-1.95.8-.8.85-.8 2t.8 2q.85.85 1.95.85 1.2 0 2-.85.8-.8.8-2 0-1.15-.8-2-.8-.8-2-.8z" id="cK"/><path fill="#FFF" d="M136.2 262.55q-.85 0-.85.9 0 .85.85.85t.85-.85q0-.9-.85-.9z" id="cL"/><path fill="#FFF" d="M130.7 259.2q-.7 0-1.2.5-.5.55-.5 1.3 0 .7.5 1.2.55.5 1.2.5.75 0 1.3-.5.5-.5.5-1.2 0-.8-.5-1.3t-1.3-.5z" id="cM"/><path fill="url(#N)" d="M118.05 296.75q-2-1.65-4.7-1.55-2.7.1-4.55 1.9-1.85 1.85-1.75 4.25.1 2.45 2.1 4.1 1.95 1.65 4.65 1.55 2.7-.1 4.55-1.9 1.85-1.8 1.8-4.25-.1-2.4-2.1-4.1z" id="cN"/><path fill="#D48614" d="M113.6 294.3q-3.2 0-5.5 1.05-2.3 1.1-2.3 2.55 0 1.5 2.3 2.75 2.4 1.25 5.5 1.25t5.45-1.25q2.25-1.25 2.25-2.75 0-1.45-2.25-2.55-2.25-1.05-5.45-1.05z" id="cO"/><path fill="url(#O)" d="M113.6 277.3q-7.9 0-10.45 7.5-2.3 7 .5 11.3 2.85 4.4 9.95 4.55 7.1-.15 9.9-4.55 2.8-4.3.45-11.3-2.45-7.5-10.35-7.5z" id="cP"/><path fill="url(#P)" d="M117.55 279.5q-1.85-.9-3.95-.9-4.45 0-7.2 3.25-.65.75-.7 1.6-.1.85.45 1.35.5.45 1.2.4.85-.05 1.55-.95 1.75-2.25 4.7-2.25 2.8 0 4.65 2.25.75.9 1.6.95.65.05 1.15-.4.55-.5.45-1.35-.05-.85-.75-1.6-1.3-1.5-3.15-2.35z" id="cQ"/><path fill="url(#Q)" d="M107.05 291l2.2 3.8 4.25 2.6 3.25-2 3.15-4.25q-3.05-1.75-6.5-1.8-3.35 0-6.35 1.65z" id="cR"/><path fill="url(#R)" d="M113.5 303.8q-1.25 0-2.1.35-.85.3-.85.8t.85.85q.85.35 2.1.35 1.2 0 2.05-.35.85-.35.85-.85t-.85-.8q-.85-.35-2.05-.35z" id="cS"/><path fill="url(#S)" d="M113.6 290.15q-1.45 0-2.45.35-1 .3-1 .8t1 .8q1 .35 2.45.35 1.4 0 2.35-.35 1-.3 1-.8t-1-.8q-.95-.35-2.35-.35z" id="cT"/><path fill="url(#T)" d="M107.25 293.1q1.3.75 2.05 1.65 1.2 1.25 2.05 3.4-.35-4.1-1.5-5.8-1.8-2.55-2.9-1.4-1.25 1.25.3 2.15z" id="cU"/><path fill="url(#U)" d="M117.8 294.75q.75-.85 2.05-1.65 1.55-.9.35-2.15-1.1-1.15-2.85 1.4-1.35 1.85-1.55 5.8.85-2.15 2-3.4z" id="cV"/></defs><use xlink:href="#V"/><use xlink:href="#W" transform="matrix(1.43062 0 0 1.43062 -20.547 -200.293)"/><use xlink:href="#X" transform="matrix(1.43062 0 0 1.43062 -20.547 -200.293)"/><use xlink:href="#Y" transform="matrix(1.43062 0 0 1.43062 -20.547 -200.293)"/><use xlink:href="#Z" transform="matrix(1.43062 0 0 1.43062 -20.547 -200.293)"/><use xlink:href="#aa" transform="matrix(1.43062 0 0 1.43062 -20.547 -200.293)"/><use xlink:href="#ab" transform="matrix(1.43062 0 0 1.43062 -20.547 -200.293)"/><use xlink:href="#ac" transform="matrix(1.43062 0 0 1.43062 -20.547 -200.293)"/><use xlink:href="#ad" transform="matrix(1.43062 0 0 1.43062 -20.547 -200.293)"/><use xlink:href="#ae" transform="matrix(1.43062 0 0 1.43062 -20.547 -200.293)"/><use xlink:href="#af" transform="matrix(1.43062 0 0 1.43062 -20.547 -200.293)"/><use xlink:href="#ag" transform="matrix(1.43062 0 0 1.43062 -20.547 -200.293)"/><use xlink:href="#ah" transform="matrix(1.43062 0 0 1.43062 -20.547 -200.293)"/><use xlink:href="#ai" transform="matrix(1.43062 0 0 1.43062 -20.547 -200.293)"/><use xlink:href="#aj" transform="matrix(1.43062 0 0 1.43062 -20.547 -200.293)"/><use xlink:href="#ak" transform="matrix(1.43062 0 0 1.43062 -20.547 -200.293)"/><use xlink:href="#al" transform="matrix(1.43062 0 0 1.43062 -20.547 -200.293)"/><use xlink:href="#am" transform="matrix(1.43062 0 0 1.43062 -20.547 -200.293)"/><use xlink:href="#an" transform="matrix(1.43062 0 0 1.43062 -20.547 -200.293)"/><use xlink:href="#ao" transform="matrix(1.43062 0 0 1.43062 -20.547 -200.293)"/><use xlink:href="#ap" transform="matrix(1.43062 0 0 1.43062 -20.547 -200.293)"/><use xlink:href="#aq" transform="matrix(1.43062 0 0 1.43062 -20.547 -200.293)"/><use xlink:href="#ar" transform="matrix(1.43062 0 0 1.43062 -20.547 -200.293)"/><use xlink:href="#as" transform="matrix(1.43062 0 0 1.43062 -20.547 -200.293)"/><use xlink:href="#at" transform="matrix(1.43062 0 0 1.43062 -20.547 -200.293)"/><use xlink:href="#au" transform="matrix(1.43062 0 0 1.43062 -20.547 -200.293)"/><use xlink:href="#av" transform="matrix(1.43062 0 0 1.43062 -20.547 -200.293)"/><use xlink:href="#aw" transform="matrix(1.43062 0 0 1.43062 -20.547 -200.293)"/><use xlink:href="#ax" transform="matrix(1.43062 0 0 1.43062 -20.547 -200.293)"/><use xlink:href="#ay" transform="matrix(1.43062 0 0 1.43062 -20.547 -200.293)"/><use xlink:href="#az" transform="matrix(1.43062 0 0 1.43062 -20.547 -200.293)"/><use xlink:href="#aA" transform="matrix(1.43062 0 0 1.43062 -20.547 -200.293)"/><use xlink:href="#aB" transform="matrix(1.43062 0 0 1.43062 -20.547 -200.293)"/><use xlink:href="#aC" transform="matrix(1.43062 0 0 1.43062 -20.547 -200.293)"/><use xlink:href="#aD" transform="matrix(1.43062 0 0 1.43062 -20.547 -200.293)"/><use xlink:href="#aE" transform="matrix(1.43062 0 0 1.43062 -20.547 -200.293)"/><use xlink:href="#aF" transform="matrix(1.43062 0 0 1.43062 -20.547 -200.293)"/><use xlink:href="#aG" transform="matrix(1.43062 0 0 1.43062 -20.547 -200.293)"/><use xlink:href="#aH" transform="matrix(1.43062 0 0 1.43062 -20.547 -200.293)"/><use xlink:href="#aI" transform="matrix(1.43062 0 0 1.43062 -20.547 -200.293)"/><use xlink:href="#aJ" transform="matrix(1.43062 0 0 1.43062 -20.547 -200.293)"/><use xlink:href="#aK" transform="matrix(1.43062 0 0 1.43062 -20.547 -200.293)"/><use xlink:href="#aL" transform="matrix(1.43062 0 0 1.43062 -20.547 -200.293)"/><use xlink:href="#aM" transform="matrix(1.43062 0 0 1.43062 -20.547 -200.293)"/><use xlink:href="#aN" transform="matrix(1.43062 0 0 1.43062 -20.547 -200.293)"/><use xlink:href="#aO" transform="matrix(1.43062 0 0 1.43062 -20.547 -200.293)"/><use xlink:href="#aP" transform="matrix(1.43062 0 0 1.43062 -20.547 -200.293)"/><use xlink:href="#aQ" transform="matrix(1.43062 0 0 1.43062 -20.547 -200.293)"/><use xlink:href="#aR" transform="matrix(1.43062 0 0 1.43062 -20.547 -200.293)"/><use xlink:href="#aS" transform="matrix(1.43062 0 0 1.43062 -20.547 -200.293)"/><use xlink:href="#aT" transform="matrix(1.43062 0 0 1.43062 -20.547 -200.293)"/><use xlink:href="#aU" transform="matrix(1.43062 0 0 1.43062 -20.547 -200.293)"/><use xlink:href="#aV" transform="matrix(1.43062 0 0 1.43062 -20.547 -200.293)"/><use xlink:href="#aW" transform="matrix(1.43062 0 0 1.43062 -20.547 -200.293)"/><use xlink:href="#aX" transform="matrix(1.43062 0 0 1.43062 -20.547 -200.293)"/><use xlink:href="#aY" transform="matrix(1.43062 0 0 1.43062 -20.547 -200.293)"/><use xlink:href="#aZ" transform="matrix(1.43062 0 0 1.43062 -20.547 -200.293)"/><use xlink:href="#ba" transform="matrix(1.43062 0 0 1.43062 -20.547 -200.293)"/><use xlink:href="#bb" transform="matrix(1.43062 0 0 1.43062 -20.547 -200.293)"/><use xlink:href="#bc" transform="matrix(1.43062 0 0 1.43062 -20.547 -200.293)"/><use xlink:href="#bd" transform="matrix(1.43062 0 0 1.43062 -20.547 -200.293)"/><use xlink:href="#be" transform="matrix(1.43062 0 0 1.43062 -20.547 -200.293)"/><use xlink:href="#bf" transform="matrix(1.43062 0 0 1.43062 -20.547 -200.293)"/><use xlink:href="#bg" transform="matrix(1.43062 0 0 1.43062 -20.547 -200.293)"/><use xlink:href="#bh" transform="matrix(1.43062 0 0 1.43062 -20.547 -200.293)"/><use xlink:href="#bi" transform="matrix(1.43062 0 0 1.43062 -20.547 -200.293)"/><use xlink:href="#bj" transform="matrix(1.43062 0 0 1.43062 -20.547 -200.293)"/><use xlink:href="#bk" transform="matrix(1.43062 0 0 1.43062 -20.547 -200.293)"/><use xlink:href="#bl" transform="matrix(1.43062 0 0 1.43062 -20.547 -200.293)"/><use xlink:href="#bm" transform="matrix(1.43062 0 0 1.43062 -20.547 -200.293)"/><use xlink:href="#bn" transform="matrix(1.43062 0 0 1.43062 -20.547 -200.293)"/><use xlink:href="#bo" transform="matrix(1.43062 0 0 1.43062 -20.547 -200.293)"/><use xlink:href="#bp" transform="matrix(1.43062 0 0 1.43062 -20.547 -200.293)"/><use xlink:href="#bq" transform="matrix(1.43062 0 0 1.43062 -20.547 -200.293)"/><use xlink:href="#br" transform="matrix(1.43062 0 0 1.43062 -20.547 -200.293)"/><use xlink:href="#bs" transform="matrix(1.43062 0 0 1.43062 -20.547 -200.293)"/><use xlink:href="#bt" transform="matrix(1.43062 0 0 1.43062 -20.547 -200.293)"/><use xlink:href="#bu" transform="matrix(1.43062 0 0 1.43062 -20.547 -200.293)"/><use xlink:href="#bv" transform="matrix(1.43062 0 0 1.43062 -20.547 -200.293)"/><use xlink:href="#bw" transform="matrix(1.43062 0 0 1.43062 -20.547 -200.293)"/><use xlink:href="#bx" transform="matrix(1.43062 0 0 1.43062 -20.547 -200.293)"/><use xlink:href="#by" transform="matrix(1.43062 0 0 1.43062 -20.547 -200.293)"/><use xlink:href="#bz" transform="matrix(1.43062 0 0 1.43062 -20.547 -200.293)"/><use xlink:href="#bA" transform="matrix(1.43062 0 0 1.43062 -20.547 -200.293)"/><use xlink:href="#bB" transform="matrix(1.43062 0 0 1.43062 -20.547 -200.293)"/><use xlink:href="#bC" transform="matrix(1.43062 0 0 1.43062 -20.547 -200.293)"/><use xlink:href="#bD" transform="matrix(1.43062 0 0 1.43062 -20.547 -200.293)"/><use xlink:href="#bE" transform="matrix(1.43062 0 0 1.43062 -20.547 -200.293)"/><use xlink:href="#bF" transform="matrix(1.43062 0 0 1.43062 -20.547 -200.293)"/><use xlink:href="#bG" transform="matrix(1.43062 0 0 1.43062 -20.547 -200.293)"/><use xlink:href="#bH" transform="matrix(1.43062 0 0 1.43062 -20.547 -200.293)"/><use xlink:href="#bI" transform="matrix(1.43062 0 0 1.43062 -20.547 -200.293)"/><use xlink:href="#bJ" transform="matrix(1.43062 0 0 1.43062 -20.547 -200.293)"/><use xlink:href="#bK" transform="matrix(1.43062 0 0 1.43062 -20.547 -200.293)"/><use xlink:href="#bL" transform="matrix(1.43062 0 0 1.43062 -20.547 -200.293)"/><use xlink:href="#bM" transform="matrix(1.43062 0 0 1.43062 -20.547 -200.293)"/><use xlink:href="#bN" transform="matrix(1.43062 0 0 1.43062 -20.547 -200.293)"/><use xlink:href="#bO" transform="matrix(1.43062 0 0 1.43062 -20.547 -200.293)"/><use xlink:href="#bP" transform="matrix(1.43062 0 0 1.43062 -20.547 -200.293)"/><use xlink:href="#bQ" transform="matrix(1.43062 0 0 1.43062 -20.547 -200.293)"/><use xlink:href="#bR" transform="matrix(1.43062 0 0 1.43062 -20.547 -200.293)"/><use xlink:href="#bS" transform="matrix(1.43062 0 0 1.43062 -20.547 -200.293)"/><use xlink:href="#bT" transform="matrix(1.43062 0 0 1.43062 -20.547 -200.293)"/><use xlink:href="#bU" transform="matrix(1.43062 0 0 1.43062 -20.547 -200.293)"/><use xlink:href="#bV" transform="matrix(1.43062 0 0 1.43062 -20.547 -200.293)"/><use xlink:href="#bW" transform="matrix(1.43062 0 0 1.43062 -20.547 -200.293)"/><use xlink:href="#bX" transform="matrix(1.43062 0 0 1.43062 -20.547 -200.293)"/><use xlink:href="#bY" transform="matrix(1.43062 0 0 1.43062 -20.547 -200.293)"/><use xlink:href="#bZ" transform="matrix(1.43062 0 0 1.43062 -20.547 -200.293)"/><use xlink:href="#ca" transform="matrix(1.43062 0 0 1.43062 -20.547 -200.293)"/><use xlink:href="#cb" transform="matrix(1.43062 0 0 1.43062 -20.547 -200.293)"/><use xlink:href="#cc" transform="matrix(1.43062 0 0 1.43062 -20.547 -200.293)"/><use xlink:href="#cd" transform="matrix(1.43062 0 0 1.43062 -20.547 -200.293)"/><use xlink:href="#ce" transform="matrix(1.43062 0 0 1.43062 -20.547 -200.293)"/><use xlink:href="#cf" transform="matrix(1.43062 0 0 1.43062 -20.547 -200.293)"/><use xlink:href="#cg" transform="matrix(1.43062 0 0 1.43062 -20.547 -200.293)"/><use xlink:href="#ch" transform="matrix(1.43062 0 0 1.43062 -20.547 -200.293)"/><use xlink:href="#ci" transform="matrix(1.43062 0 0 1.43062 -20.547 -200.293)"/><use xlink:href="#cj" transform="matrix(1.43062 0 0 1.43062 -20.547 -200.293)"/><use xlink:href="#ck" transform="matrix(1.43062 0 0 1.43062 -20.547 -200.293)"/><use xlink:href="#cl" transform="matrix(1.43062 0 0 1.43062 -20.547 -200.293)"/><use xlink:href="#cm" transform="matrix(1.43062 0 0 1.43062 -20.547 -200.293)"/><use xlink:href="#cn" transform="matrix(1.43062 0 0 1.43062 -20.547 -200.293)"/><use xlink:href="#co" transform="matrix(1.43062 0 0 1.43062 -20.547 -200.293)"/><use xlink:href="#cp" transform="matrix(1.43062 0 0 1.43062 -20.547 -200.293)"/><use xlink:href="#cq" transform="matrix(1.43062 0 0 1.43062 -20.547 -200.293)"/><use xlink:href="#cr" transform="matrix(1.43062 0 0 1.43062 -20.547 -200.293)"/><use xlink:href="#cs" transform="matrix(1.43062 0 0 1.43062 -20.547 -200.293)"/><use xlink:href="#ct" transform="matrix(1.43062 0 0 1.43062 -20.547 -200.293)"/><use xlink:href="#cu" transform="matrix(1.43062 0 0 1.43062 -20.547 -200.293)"/><use xlink:href="#cv" transform="matrix(1.43062 0 0 1.43062 -20.547 -200.293)"/><use xlink:href="#cw" transform="matrix(1.43062 0 0 1.43062 -20.547 -200.293)"/><use xlink:href="#cx" transform="matrix(1.43062 0 0 1.43062 -20.547 -200.293)"/><use xlink:href="#cy" transform="matrix(1.43062 0 0 1.43062 -20.547 -200.293)"/><use xlink:href="#cz" transform="matrix(1.43062 0 0 1.43062 -20.547 -200.293)"/><use xlink:href="#cA" transform="matrix(1.43062 0 0 1.43062 -20.547 -200.293)"/><use xlink:href="#cB" transform="matrix(1.43062 0 0 1.43062 -20.547 -200.293)"/><use xlink:href="#cC" transform="matrix(1.43062 0 0 1.43062 -20.547 -200.293)"/><use xlink:href="#cD" transform="matrix(1.43062 0 0 1.43062 -20.547 -200.293)"/><use xlink:href="#cE" transform="matrix(1.43062 0 0 1.43062 -20.547 -200.293)"/><use xlink:href="#cF" transform="matrix(1.43062 0 0 1.43062 -20.547 -200.293)"/><use xlink:href="#cG" transform="matrix(1.43062 0 0 1.43062 -20.547 -200.293)"/><use xlink:href="#cH" transform="matrix(1.43062 0 0 1.43062 -20.547 -200.293)"/><use xlink:href="#cI" transform="matrix(1.43062 0 0 1.43062 -20.547 -200.293)"/><use xlink:href="#cJ" transform="matrix(1.43062 0 0 1.43062 -20.547 -200.293)"/><use xlink:href="#cK" transform="matrix(1.43062 0 0 1.43062 -20.547 -200.293)"/><use xlink:href="#cL" transform="matrix(1.43062 0 0 1.43062 -20.547 -200.293)"/><use xlink:href="#cM" transform="matrix(1.43062 0 0 1.43062 -20.547 -200.293)"/><use xlink:href="#cN" transform="matrix(1.43062 0 0 1.43062 -20.547 -200.293)"/><use xlink:href="#cO" transform="matrix(1.43062 0 0 1.43062 -20.547 -200.293)"/><use xlink:href="#cP" transform="matrix(1.43062 0 0 1.43062 -20.547 -200.293)"/><use xlink:href="#cQ" transform="matrix(1.43062 0 0 1.43062 -20.547 -200.293)"/><use xlink:href="#cR" transform="matrix(1.43062 0 0 1.43062 -20.547 -200.293)"/><use xlink:href="#cS" transform="matrix(1.43062 0 0 1.43062 -20.547 -200.293)"/><use xlink:href="#cT" transform="matrix(1.43062 0 0 1.43062 -20.547 -200.293)"/><use xlink:href="#cU" transform="matrix(1.43062 0 0 1.43062 -20.547 -200.293)"/><use xlink:href="#cV" transform="matrix(1.43062 0 0 1.43062 -20.547 -200.293)"/></svg>