<svg xmlns="http://www.w3.org/2000/svg" xmlns:xlink="http://www.w3.org/1999/xlink" preserveAspectRatio="none" width="284" height="320"><defs><radialGradient id="a" gradientUnits="userSpaceOnUse" cx="0" cy="0" r="98.25" fx="0" fy="0" gradientTransform="matrix(1 0 0 -1 112.45 241.55)" spreadMethod="pad"><stop offset="0%" stop-color="#FEEAE2"/><stop offset="38.824%" stop-color="#EF4A47"/><stop offset="58.824%" stop-color="#C93039"/><stop offset="100%" stop-color="#F2705F"/></radialGradient><linearGradient id="b" gradientUnits="userSpaceOnUse" x1="153.188" y1="272.075" x2="96.113" y2="295.125" spreadMethod="pad"><stop offset="0%" stop-color="#F2705F"/><stop offset="100%" stop-color="#EE333F"/></linearGradient><linearGradient id="c" gradientUnits="userSpaceOnUse" x1="81.1" y1="274.6" x2="119.5" y2="230.4" spreadMethod="pad"><stop offset="0%" stop-color="#EF4A47"/><stop offset="34.902%" stop-color="#F8AB96"/><stop offset="74.902%" stop-color="#FDD8CB"/><stop offset="100%" stop-color="#FBCABB"/></linearGradient><linearGradient id="d" gradientUnits="userSpaceOnUse" x1="117" y1="210.4" x2="161.1" y2="271.1" spreadMethod="pad"><stop offset="0%" stop-color="#FFCC2A"/><stop offset="21.176%" stop-color="#FFFCD6"/><stop offset="100%" stop-color="#F1B82D"/></linearGradient><linearGradient id="e" gradientUnits="userSpaceOnUse" x1="165.662" y1="254.375" x2="121.537" y2="213.225" spreadMethod="pad"><stop offset="0%" stop-color="#CF303A"/><stop offset="41.176%" stop-color="#EF4A47"/><stop offset="100%" stop-color="#F6917D"/></linearGradient><linearGradient id="f" gradientUnits="userSpaceOnUse" x1="155.412" y1="210.738" x2="172.888" y2="231.563" spreadMethod="pad"><stop offset="0%" stop-color="#BEC0C2"/><stop offset="21.176%" stop-color="#E7E8E9"/><stop offset="100%" stop-color="#858789"/></linearGradient><linearGradient id="g" gradientUnits="userSpaceOnUse" x1="165.2" y1="208.8" x2="178.2" y2="221.8" spreadMethod="pad"><stop offset="0%" stop-color="#AAACAE"/><stop offset="100%" stop-color="#858789"/></linearGradient><linearGradient id="h" gradientUnits="userSpaceOnUse" x1="152.025" y1="213.975" x2="171.675" y2="234.325" spreadMethod="pad"><stop offset="0%" stop-color="#E7E8E9"/><stop offset="21.176%" stop-color="#FFF"/><stop offset="100%" stop-color="#AAACAE"/></linearGradient><linearGradient id="i" gradientUnits="userSpaceOnUse" x1="104.95" y1="212.025" x2="158.45" y2="285.675" spreadMethod="pad"><stop offset="0%" stop-color="#FFCC2A"/><stop offset="21.176%" stop-color="#FFFCD6"/><stop offset="100%" stop-color="#F1B82D"/></linearGradient><linearGradient id="j" gradientUnits="userSpaceOnUse" x1="178.412" y1="206.487" x2="172.388" y2="213.412" spreadMethod="pad"><stop offset="0%" stop-color="#D2D4D5"/><stop offset="76.078%" stop-color="#97999B"/><stop offset="100%" stop-color="#737477"/></linearGradient><linearGradient id="k" gradientUnits="userSpaceOnUse" x1="117.575" y1="218.188" x2="149.625" y2="228.613" spreadMethod="pad"><stop offset="0%" stop-color="#FBC6B4"/><stop offset="100%" stop-color="#F2705F"/></linearGradient><linearGradient id="l" gradientUnits="userSpaceOnUse" x1="97.075" y1="263.5" x2="98.525" y2="305.1" spreadMethod="pad"><stop offset="0%" stop-color="#FFCC2A"/><stop offset="100%" stop-color="#E5A62F"/></linearGradient><linearGradient id="m" gradientUnits="userSpaceOnUse" x1="122.775" y1="259.5" x2="124.225" y2="301.1" spreadMethod="pad"><stop offset="0%" stop-color="#FDB730"/><stop offset="100%" stop-color="#E79D31"/></linearGradient><linearGradient id="n" gradientUnits="userSpaceOnUse" x1="87.525" y1="297.063" x2="81.375" y2="309.138" spreadMethod="pad"><stop offset="0%" stop-color="#F1B82D"/><stop offset="100%" stop-color="#EF4A47"/></linearGradient><linearGradient id="o" gradientUnits="userSpaceOnUse" x1="204.375" y1="305.375" x2="176.225" y2="233.725" spreadMethod="pad"><stop offset="0%" stop-color="#BEC0C2"/><stop offset="21.176%" stop-color="#E7E8E9"/><stop offset="100%" stop-color="#BEC0C2"/></linearGradient><linearGradient id="p" gradientUnits="userSpaceOnUse" x1="161.338" y1="209.662" x2="173.963" y2="222.737" spreadMethod="pad"><stop offset="0%" stop-color="#FFF"/><stop offset="14.902%" stop-color="#FFF"/><stop offset="100%" stop-color="#B2B4B6"/></linearGradient><path fill="#FFF" fill-opacity="0" d="M284 0H0v320h284V0z" id="q"/><path fill="url(#a)" d="M150.95 236.95q-3.5-3.5-9-10.45-6.05-7.6-8.5-10.2-10-10.75-20.45-9.6-8.4.85-16.4 4.3-10.1 4.35-17.95 12.2-14.35 14.35-16.5 34.55-2.15 19.95 8.4 36.8 1.4 2.3 4.15 5.15 1.55 1.65 4.85 4.85Q96 321 119.65 319.25q22.8-1.65 40.1-18.95 15.85-15.85 12.45-31.65-2.85-13.3-21.25-31.7z" id="r"/><path fill="url(#b)" d="M118.9 313.2q-20.8 1.8-36.35-8.65-2.4-1.6-6.65-5.25-4.55-3.85-5.95-5.7 3.8 6.25 8.7 11.15 16.9 16.85 40.8 16.85 23.95 0 40.8-16.85 15.8-15.8 16.8-38.2 1-22.2-13.05-39.25 8.45 16.6 5.85 36.45-2.65 20.45-15.95 33.75-13.85 13.8-35 15.7z" id="s"/><path fill="#F1B82D" d="M75.5 262.55l-1.95 5.55-5.7-1.15 3.85 4.4-3.85 4.4 5.7-1.1 1.95 5.5 1.85-5.5 5.8 1.1-3.85-4.4 3.85-4.4-5.8 1.15-1.85-5.55z" id="t"/><path fill="url(#c)" d="M126.05 221.9q13.65 0 25.1 7.25-6.45-6.45-14.9-9.95-8.7-3.7-18.2-3.7-19.4 0-33.15 13.75Q71.1 243 71.1 262.4q0 12.25 6.05 22.9Q82.95 295.6 93 302q-6.55-6.5-10.15-14.9-3.75-8.75-3.75-18.25 0-19.4 13.8-33.15 13.75-13.8 33.15-13.8z" id="u"/><path fill="url(#d)" d="M144.5 245.85q-10.25-10.3-15.65-17.25-6.8-8.8-13.95-22.05-1.7.05-3.35.3-2.3 7.05 2.65 19.9 5.5 14.3 16.8 25.65 11.35 11.35 25.7 16.85 12.85 4.9 19.9 2.6l.35-3.25q-6.4-5.35-16.9-11.15-8.95-5-15.55-11.6z" id="v"/><path fill="#FFD040" d="M174.65 247.25q-3.3-10.95-10.65-19.95 5.05 9.95 6.15 21.85 1.05 11.8-2 23.15 5 .6 8.45-.45l.05-1q.1-.2.1-.6l.1-1.4.1-.55.05-2.05q.1-.15.1-.5v-3.35q0-.5-.1-.7l-.05-1.85-.1-.95v-.3l-.1-.95v-.35l-.15-1q0-.2-.1-.35l-.05-.85q-.1-.1-.1-.3l-.2-1.1v-.3l-.5-2.2v-.3q-.1-.2-.3-1.15h-.05q-.25-1.1-.3-1.25v-.05l-.35-1.2z" id="w"/><path fill="#FFF" d="M126.05 221.9q13.65 0 25.1 7.25-6.45-6.45-14.9-9.95-8.7-3.7-18.2-3.7-4 0-6.75.5.6 4.1 1.85 7.7 6.4-1.8 12.9-1.8z" id="x"/><path fill="url(#e)" d="M160.25 223.2q-9.15-9.15-21.35-13.5-11.8-4.2-24.3-3.15-2.15 7 2.55 19.25 5.2 13.7 16 24.45 10.75 10.8 24.45 16.05 12.25 4.65 19.25 2.55 1.05-12.5-3.1-24.3-4.3-12.15-13.5-21.35z" id="y"/><path fill="#BC2E37" d="M153.9 217.45q-3.7-2.55-4.8-1.45-.85.85-.5 3.5.35 3.05 2.3 6.55 4.8 8.8 12.15 12.9 5.05 2.65 7.35.35 1.15-1.15-1.2-5.5-2.5-4.55-7-9.05-4.95-4.95-8.3-7.3z" id="z"/><path fill="url(#f)" d="M149 215.4q-1.1 1.1 1.2 4.9 2.3 3.85 6.6 8.15 4.3 4.3 8.05 6.55 3.8 2.25 4.9 1.15l8.55-14.4-8.1-6.8-6.7-8.1-14.5 8.55z" id="A"/><path fill="url(#g)" d="M172.65 212.5q-3.1-3.05-5.85-4.7-2.7-1.65-3.45-.9-.75.75.9 3.5t4.7 5.8q3.05 3.05 5.8 4.7 2.75 1.65 3.5.9.75-.75-.9-3.45-1.6-2.75-4.7-5.85z" id="B"/><path fill="#737477" d="M171.55 213.6q-1.3-1.3-2.55-2.05-1.15-.7-1.5-.45-.25.3.45 1.5.75 1.15 2.1 2.5t2.55 2.1q1.15.7 1.45.45.3-.35-.4-1.5-.75-1.2-2.1-2.55z" id="C"/><path fill="url(#h)" d="M154.05 222.1l6.9-7.65-9.55 4.35 8.2-7.8-10.3 4.25-.3.15q-1.15 1.25.7 5.3 1.9 4.1 5.35 7.75 4.05 4.25 8.65 6.7 4.6 2.4 6.05 1 .15-.15.15-.25l4.25-10.35-7.7 8.2q.8-1.95 4.25-9.55l-7.65 6.9q2.3-4.1 4.8-8.95l-7.95 6.15 5.4-8.45-8.45 5.5 6.15-8.05-8.95 4.8z" id="D"/><path fill="url(#i)" d="M110.55 229.4q-5.2-13.15-3.5-21.7-6.15 1.35-10.6 3.4-2.3 8.2 3.65 22.95 6.65 16.4 19.75 29.5 13.15 13.15 29.55 19.8 14.7 5.95 22.95 3.6 2.15-4.8 3.35-10.55-8.55 1.65-21.65-3.55-14.7-5.8-26.2-17.25-11.45-11.5-17.3-26.2z" id="E"/><path fill="#FFD040" d="M172.35 286.95q2.15-4.8 3.35-10.55-3.7.75-8.85 0-2 5.55-4.9 10.65 6.35 1.05 10.4-.1z" id="F"/><path fill="url(#j)" d="M178.75 206.4q1 1.1 1.6 2.4.7 1.9-.15 3.1-.8.9-2.05 1.2-.5.15-.55.15h-.5q-1.95.1-3.2.55-.5.25-.55.3-.8.3-1.35.95l-.45.45 1.6 1.55q.15-.15.2-.15.35-.5 1.35-1 .75-.3 2.45-.4.5 0 .8-.1l.75-.15q2.15-.5 3.3-2.1 1.65-2.25.4-5.25-.7-1.55-2.05-3.1-1.4-1.3-3.1-2.05-2.15-.85-3.9-.25-.6.2-1.35.65l-1.1 1.15q-1.1 1.4-1.2 3.75-.2 1.9-.45 2.4-.35.95-1.15 1.55l1.6 1.6q1-.85 1.65-2.35.45-1.3.55-3.1l.1-.8q.15-.95.7-1.75l.3-.3.25-.35h.1q1.1-.85 3.1-.15 1.25.65 2.3 1.6z" id="G"/><path fill="#FFF" d="M109.05 225.05q-1.4-4.3-1.95-8.3-5.6 1.4-10.8 4.15.7 4.55 2.55 9.75 4.35-3.25 10.2-5.6z" id="H"/><path fill="url(#k)" d="M126.05 221.9q13.65 0 25.1 7.25-6.45-6.45-14.9-9.95-8.7-3.7-18.2-3.7l-3.65.1q.3 2.85 1.7 7.35 4.9-1.05 9.95-1.05z" id="I"/><path fill="#FFD179" d="M122.5 212q0-1.3-.9-2.2-.95-.95-2.25-.95t-2.25.95q-.9.9-.9 2.2 0 1.3.9 2.25.95.95 2.25.95t2.25-.95q.9-.95.9-2.25z" id="J"/><path fill="#FFE697" d="M122.45 227.55q1.3 0 2.2-.9.95-.9.95-2.15 0-1.35-.95-2.25-.9-.95-2.2-.95-1.3 0-2.25.95-.95.9-.95 2.25 0 1.25.95 2.15.95.9 2.25.9z" id="K"/><path fill="#FAD066" d="M128.5 232.6q-1.3 0-2.25.95t-.95 2.25q0 1.3.95 2.2.95.95 2.25.95t2.2-.95q.95-.9.95-2.2 0-1.3-.95-2.25-.9-.95-2.2-.95z" id="L"/><path fill="#F7CA56" d="M136.55 242.6q-1.3 0-2.2.9-.95.95-.95 2.2 0 1.35.95 2.3.9.9 2.2.9 1.3 0 2.25-.9.9-.95.9-2.3 0-1.3-.9-2.2-.95-.9-2.25-.9z" id="M"/><path fill="#F4C346" d="M146.35 250.95q-1.35 0-2.25.95-.9.95-.9 2.25t.9 2.2q.9.95 2.25.95 1.3 0 2.2-.95.9-.9.9-2.2 0-1.3-.9-2.25t-2.2-.95z" id="N"/><path fill="#F0A438" d="M157.45 257.4q-1.3 0-2.25.9-.95.95-.95 2.25t.95 2.25q.95.9 2.25.9t2.2-.9q.95-.95.95-2.25t-.95-2.25q-.9-.9-2.2-.9z" id="O"/><path fill="#EC8E33" d="M167.5 266.4q.95.9 2.25.9t2.25-.9q.9-.95.9-2.25t-.9-2.25q-.95-.9-2.25-.9t-2.25.9q-.9.95-.9 2.25t.9 2.25z" id="P"/><path fill="url(#l)" d="M97.9 278.5L96 284l-5.65-1.15 3.75 4.4-3.75 4.4 5.65-1.1 1.9 5.55 1.95-5.55 5.65 1.1-3.8-4.4 3.8-4.4-5.65 1.15-1.95-5.5z" id="Q"/><path fill="#FFCC2A" d="M101.7 260.55l3.8-4.4-5.65 1.1-1.95-5.55-1.9 5.55-5.65-1.1 3.75 4.4-3.75 4.4L96 263.8l1.9 5.55 1.95-5.55 5.65 1.15-3.8-4.4z" id="R"/><path fill="#FFCC2A" d="M87.1 226.4l-1.95 5.5-5.7-1.1 3.8 4.4-3.8 4.4 5.7-1.1 1.95 5.5 1.85-5.5 5.7 1.1-3.8-4.4 3.8-4.4-5.7 1.1-1.85-5.5z" id="S"/><path fill="url(#m)" d="M115.95 278.55l3.85 4.4-3.85 4.4 5.75-1.1 1.9 5.5 1.85-5.5 5.8 1.1-3.85-4.4 3.85-4.4-5.8 1.1-1.85-5.5-1.9 5.5-5.75-1.1z" id="T"/><path fill="#E18B32" d="M115.25 298.4l-1.9 5.5-5.65-1.1 3.8 4.4-3.8 4.4 5.65-1.15 1.9 5.55 1.95-5.55 5.65 1.15-3.8-4.4 3.8-4.4-5.65 1.1-1.95-5.5z" id="U"/><path fill="#DD8632" d="M142.4 291.15l-1.9 5.45-5.75-1.05 3.8 4.4-3.8 4.35 5.75-1.05 1.9 5.45 1.95-5.45 5.65 1.05-3.8-4.35 3.8-4.4-5.65 1.05-1.95-5.45z" id="V"/><path fill="url(#n)" d="M75.5 301.35q1.65 1.9 3.15 3.4 2.85 2.95 6 5.25l.35-1 5.7 1.15-3.85-4.4 3.85-4.4-5.7 1.1-1.95-5.55-1.85 5.55-5.7-1.1z" id="W"/><path fill="#EFAB30" d="M69.5 246.8l3.85-4.4-5.7 1.1-1-2.75q-2.05 4.75-3.15 9.35l.35-.05 1.85 5.55 1.95-5.55 5.7 1.15-3.85-4.4z" id="X"/><path fill="#FFEDAC" d="M88.95 231.9L87.3 227q-.45.45-.65.55l-1.5 4.35-2.3-.45q-.55.55-1.35 1.65l1.75 2.1-3.8 4.4 5.7-1.1 1.65 4.7q.6-1.05 1.15-1.65l1-3.05 1.15.25q.95-1.3 1.95-2.2l-1.2-1.35 3.8-4.4-5.7 1.1z" id="Y"/><path fill="#FFDB6F" d="M75.5 262.55l-1.95 5.55-2.15-.4q.35 3 1.35 7.1l.8-.15 1.95 5.5 1.85-5.5 2.2.45q-.45-3.15-.45-6.25l.05-1.1-1.8.35-1.85-5.55z" id="Z"/><path fill="url(#o)" d="M185 209.3l1 .85q1.55 1.4 2.75 3 3.15 4.05 4.9 8.5l1 3.25q1.45 5.3 1.45 13.55-.05 4.25-1.3 10.5-1.1 5.2-1.15 8.15v.15q-.05 1 0 1.95l.05 1.65q.15 1.9.45 3.65 1 5.2 3.7 10.25l.55.9q.15.15.35.5 2.15 3.35 5.05 6.05 5.55 5.2 6.75 9.6.9 2.95-.05 5.35-.95 2.15-3.3 3.65-3.6 2.15-8.6 1.95h-.2q-1.45 0-3.3-.35l-3.4-.95q-4.15-1.55-7.9-4.5-3.65-2.85-6.4-6.6-1.25-1.65-2.7-4.4-1.15-2.5-1.85-4.75-4.1-13.2 2.15-30.5 5.65-15.75 6.9-20.75.9-3.5 1.1-6.1.15-2.55-.35-5.05-.6-2.65-1.65-5.55l-.65-2.15.05-1.4q.15-.75-.15-1.7-.3-.9-.8-1.4-1.55 1.55-1.55 3.9l.15 1q0 .4.2 1.1l.5 1.5q1.15 3.3 1.5 5.25.85 4.05-.65 9.95-1.3 5.15-6.85 20.45-6.5 18.2-2.2 32.25.75 2.55 2.1 5.1 1.1 2.45 2.8 4.75 2.95 4.1 6.9 7.15 4.1 3.15 8.65 4.75 1.45.6 2.65.85l1 .25q1.85.35 3.25.4h.5l.6.1q5.55 0 9.4-2.3 3-1.95 4.35-4.9 1.2-3.4.1-7.05-1.4-5.05-7.45-10.75-4.35-4.15-6.7-9.3l-.5-1.15q-1.15-2.95-1.65-5.9-.35-1.65-.45-3.4-.1-2.5-.05-3.3v-.15q.05-2.6 1.05-7.7 1.15-5.1 1.3-9.3.1-.25.1-.85v-.95q0-2.5-.1-3.7-.25-6.25-1.45-10.4-1.05-4.25-3.3-8.2-1.35-2.35-3.1-4.55-1.75-2.1-2.95-3.2l-.55-.55-.65-.5q-2.55-1.95-5-1.55l-.2.05q.6 1 .95 2.4 1.35 0 2.85 1.15z" id="aa"/><path fill="url(#p)" d="M161.6 208.45q-.6.25-.3 1.4.45 1.45 1.95 3.55 1.6 2.3 3.85 4.45 4.9 4.9 8 5.75 1.45.45 1.3-.3-.15-.7-1.4-1.35-3.15-1.65-6.85-5.3-4.05-4.05-5.4-7.15-.6-1.25-1.15-1.05z" id="ab"/></defs><use xlink:href="#q"/><use xlink:href="#r" transform="matrix(1.87334 0 0 1.87335 -115.772 -310.635)"/><use xlink:href="#s" transform="matrix(1.87334 0 0 1.87335 -115.772 -310.635)"/><use xlink:href="#t" transform="matrix(1.87334 0 0 1.87335 -115.772 -310.635)"/><use xlink:href="#u" transform="matrix(1.87334 0 0 1.87335 -115.772 -310.635)"/><use xlink:href="#v" transform="matrix(1.87334 0 0 1.87335 -115.772 -310.635)"/><use xlink:href="#w" transform="matrix(1.87334 0 0 1.87335 -115.772 -310.635)"/><use xlink:href="#x" transform="matrix(1.87334 0 0 1.87335 -115.772 -310.635)"/><use xlink:href="#y" transform="matrix(1.87334 0 0 1.87335 -115.772 -310.635)"/><use xlink:href="#z" transform="matrix(1.87334 0 0 1.87335 -115.772 -310.635)"/><use xlink:href="#A" transform="matrix(1.87334 0 0 1.87335 -115.772 -310.635)"/><use xlink:href="#B" transform="matrix(1.87334 0 0 1.87335 -115.772 -310.635)"/><use xlink:href="#C" transform="matrix(1.87334 0 0 1.87335 -115.772 -310.635)"/><use xlink:href="#D" transform="matrix(1.87334 0 0 1.87335 -115.772 -310.635)"/><use xlink:href="#E" transform="matrix(1.87334 0 0 1.87335 -115.772 -310.635)"/><use xlink:href="#F" transform="matrix(1.87334 0 0 1.87335 -115.772 -310.635)"/><use xlink:href="#G" transform="matrix(1.87334 0 0 1.87335 -115.772 -310.635)"/><use xlink:href="#H" transform="matrix(1.87334 0 0 1.87335 -115.772 -310.635)"/><use xlink:href="#I" transform="matrix(1.87334 0 0 1.87335 -115.772 -310.635)"/><use xlink:href="#J" transform="matrix(1.87334 0 0 1.87335 -115.772 -310.635)"/><use xlink:href="#K" transform="matrix(1.87334 0 0 1.87335 -115.772 -310.635)"/><use xlink:href="#L" transform="matrix(1.87334 0 0 1.87335 -115.772 -310.635)"/><use xlink:href="#M" transform="matrix(1.87334 0 0 1.87335 -115.772 -310.635)"/><use xlink:href="#N" transform="matrix(1.87334 0 0 1.87335 -115.772 -310.635)"/><use xlink:href="#O" transform="matrix(1.87334 0 0 1.87335 -115.772 -310.635)"/><use xlink:href="#P" transform="matrix(1.87334 0 0 1.87335 -115.772 -310.635)"/><use xlink:href="#Q" transform="matrix(1.87334 0 0 1.87335 -115.772 -310.635)"/><use xlink:href="#R" transform="matrix(1.87334 0 0 1.87335 -115.772 -310.635)"/><use xlink:href="#S" transform="matrix(1.87334 0 0 1.87335 -115.772 -310.635)"/><use xlink:href="#T" transform="matrix(1.87334 0 0 1.87335 -115.772 -310.635)"/><use xlink:href="#U" transform="matrix(1.87334 0 0 1.87335 -115.772 -310.635)"/><use xlink:href="#V" transform="matrix(1.87334 0 0 1.87335 -115.772 -310.635)"/><use xlink:href="#W" transform="matrix(1.87334 0 0 1.87335 -115.772 -310.635)"/><use xlink:href="#X" transform="matrix(1.87334 0 0 1.87335 -115.772 -310.635)"/><use xlink:href="#Y" transform="matrix(1.87334 0 0 1.87335 -115.772 -310.635)"/><use xlink:href="#Z" transform="matrix(1.87334 0 0 1.87335 -115.772 -310.635)"/><use xlink:href="#aa" transform="matrix(1.87334 0 0 1.87335 -115.772 -310.635)"/><use xlink:href="#ab" transform="matrix(1.87334 0 0 1.87335 -115.772 -310.635)"/></svg>