<svg xmlns="http://www.w3.org/2000/svg" xmlns:xlink="http://www.w3.org/1999/xlink" preserveAspectRatio="none" width="284" height="320"><defs><linearGradient id="a" gradientUnits="userSpaceOnUse" x1="408.5" y1="305.9" x2="451.6" y2="329.8" spreadMethod="pad"><stop offset="0%" stop-color="#2DB455"/><stop offset="100%" stop-color="#008C4A"/></linearGradient><linearGradient id="b" gradientUnits="userSpaceOnUse" x1="415.425" y1="213.237" x2="457.675" y2="236.662" spreadMethod="pad"><stop offset="0%" stop-color="#2DB455"/><stop offset="100%" stop-color="#008C4A"/></linearGradient><radialGradient id="c" gradientUnits="userSpaceOnUse" cx="0" cy="0" r="54.613" fx="0" fy="0" gradientTransform="matrix(1 0 0 -1 422.5 269.5)" spreadMethod="pad"><stop offset="0%" stop-color="#BBDA8D"/><stop offset="60%" stop-color="#2DB455"/><stop offset="100%" stop-color="#008C4A"/></radialGradient><linearGradient id="d" gradientUnits="userSpaceOnUse" x1="413.488" y1="253.338" x2="433.613" y2="272.762" spreadMethod="pad"><stop offset="0%" stop-color="#D0E5B0"/><stop offset="100%" stop-color="#81C56D"/></linearGradient><linearGradient id="e" gradientUnits="userSpaceOnUse" x1="464.075" y1="295.462" x2="485.525" y2="305.938" spreadMethod="pad"><stop offset="0%" stop-color="#EE333F"/><stop offset="100%" stop-color="#CF303A"/></linearGradient><linearGradient id="f" gradientUnits="userSpaceOnUse" x1="498.025" y1="225.7" x2="519.675" y2="235.8" spreadMethod="pad"><stop offset="0%" stop-color="#EE333F"/><stop offset="100%" stop-color="#CF303A"/></linearGradient><radialGradient id="g" gradientUnits="userSpaceOnUse" cx="0" cy="0" r="57.2" fx="0" fy="0" gradientTransform="matrix(1 0 0 -1 472.45 256.55)" spreadMethod="pad"><stop offset="0%" stop-color="#FBC6B4"/><stop offset="60%" stop-color="#EE3338"/><stop offset="100%" stop-color="#A82C32"/></radialGradient><linearGradient id="h" gradientUnits="userSpaceOnUse" x1="471.563" y1="240.637" x2="483.837" y2="262.762" spreadMethod="pad"><stop offset="0%" stop-color="#FBC6B4"/><stop offset="100%" stop-color="#F8A38E"/></linearGradient><linearGradient id="i" gradientUnits="userSpaceOnUse" x1="450.475" y1="253.4" x2="407.025" y2="253.4" spreadMethod="pad"><stop offset="0%" stop-color="#BEC0C2"/><stop offset="63.922%" stop-color="#FFF"/><stop offset="100%" stop-color="#E7E8E9"/></linearGradient><linearGradient id="j" gradientUnits="userSpaceOnUse" x1="455.45" y1="288.65" x2="400.95" y2="288.65" spreadMethod="pad"><stop offset="0%" stop-color="#BEC0C2"/><stop offset="63.922%" stop-color="#FFF"/><stop offset="100%" stop-color="#E7E8E9"/></linearGradient><linearGradient id="k" gradientUnits="userSpaceOnUse" x1="508.45" y1="245.25" x2="470.45" y2="245.25" spreadMethod="pad"><stop offset="0%" stop-color="#BEC0C2"/><stop offset="63.922%" stop-color="#FFF"/><stop offset="100%" stop-color="#E7E8E9"/></linearGradient><linearGradient id="l" gradientUnits="userSpaceOnUse" x1="498.462" y1="276.6" x2="454.438" y2="276.6" spreadMethod="pad"><stop offset="0%" stop-color="#BEC0C2"/><stop offset="63.922%" stop-color="#FFF"/><stop offset="100%" stop-color="#E7E8E9"/></linearGradient><path fill="#FFF" fill-opacity="0" d="M284 0H0v320h284V0z" id="m"/><path fill="#008C4A" d="M403.3 327.2q-.5 1.5-.05 2.95.7 2.35 3.9 3.4 3.1 1.05 6.55.2 1.55-.35 4.45-1.7 2.6-.8 4.3-.75 2.15 0 3.7 1.2 3.85 2.85 7.75 2.15.85-.2 3.55-1.25 2.1-.8 3.9-.65 1.4.15 3.7 1.15 2.35 1.05 3.55 1.4 2.1.75 3.75.8 2.1.1 3.8-1 1.8-1.15 1.9-3.05l-.75-5.7-4.95-3.75-26.15-4.4q-5.15.35-10.15 1.45-7.1 1.6-10.35 4.25-1.8 1.45-2.4 3.3z" id="n"/><path fill="url(#a)" d="M435.7 295.25l-9.05-2q-.5 8.3-4.85 12.6-1.5 1.45-4.45 3.45-3.9 2.6-5.2 3.6-3.5 2.75-5.55 5.75-2.9 4.25-3.65 9.95 1.05-2.3 3-2.8 1.8-.5 3.9.5.65.3 2.95 2 1.45 1.05 3.1 1 1.65-.1 3.55-1.4 1.85-1.3 2.8-1.35 1.85-.05 3.35 1.2 1.5 1.3 2.4 1.35.7.05 3.7-1.45 2.25-1.1 4.45.5 2.95 2.2 5.45 2.6 2.05.3 4.1-.6 1.4-.55 3.7-1.85 2-.9 3.95-.55 1.8.3 3.05 1.35 1.45 1.3 1.8 3.4 1.15-8.1-2.15-13.55-2.25-3.8-7.9-7.75-7.1-4.9-8.55-6.4-3.95-4.05-3.9-9.55z" id="o"/><path fill="#008C4A" d="M435 296.05l-.85-.45q-.45 7.8 4.35 13.6 1 1.15 2.9 3.05 1.65 1.8 2.5 3.45.5.9 1.2 2.75.65 1.4 1.55 1.3.7-.05.85-1.1.1-.9-.25-2.25-.85-3.5-4-6.1-.1-.1-2.85-2.25-1.6-1.25-2.25-2.05-3.5-3.85-3.15-9.95z" id="p"/><path fill="#00934C" d="M433.25 294.15l-1.15.45q-.35 7.45-5.25 11.8-.95.85-3.05 2.2-2.55 1.55-3.85 2.4-2.2 1.5-3.5 3.05-1.4 1.7-2.25 4.05-.65 1.6-.6 2.7 0 1.25.9 1.45 1.05.2 2.05-1.4.6-.95 1.9-3.3 1.25-1.9 3.5-3.85 1.3-1.1 3.95-3.4 6.8-6.45 7.35-16.15z" id="q"/><path fill="#008748" d="M434.5 306.75q0 3 1.65 6.55 2.15 4.55 2.6 6.45.25 1 .55 3 .35 1.5 1.25 1.6 1.3.2 1.3-3.05 0-3.7-2.45-6.95-1.9-1.95-2.75-3-1.45-1.75-2.15-4.6z" id="r"/><path fill="#008C4A" d="M451.7 223.45q7.1-1.6 10.35-4.25 1.85-1.4 2.45-3.25.45-1.55 0-3-.65-2.3-3.85-3.35-3.15-1.05-6.6-.25-.85.25-2.3.9-1.5.65-2.15.85-2.65.8-4.3.75-2.15 0-3.7-1.2-3.8-2.85-7.75-2.15-.3.05-3.55 1.2-2.15.8-3.85.65-1.5-.15-3.75-1.15-4.65-2-7.3-2.15-2.05-.1-3.75 1-1.85 1.2-1.95 3.05l.75 5.65 4.95 3.75 26.15 4.4q5.2-.35 10.15-1.45z" id="s"/><path fill="url(#b)" d="M464.8 214.55q-1.05 2.25-3 2.8-1.75.45-3.85-.5-.65-.3-2.95-2-1.5-1.1-3.15-1.05-1.65.1-3.55 1.4-1.85 1.35-2.8 1.35-1.85.1-3.3-1.15-1.5-1.35-2.45-1.35-.65-.05-3.7 1.45-2.25 1.05-4.45-.55-2.95-2.1-5.45-2.5-2-.3-4.05.5-2.55 1.35-3.7 1.9-2.05.9-4 .55-4.15-.65-4.8-4.75-1.15 8.1 1.95 14.1 2.25 4.35 7.6 8.65 2.9 2.35 8.05 6.6 3.75 3.7 3.5 7.8l9.05 1.3q.45-8.1 5.5-12.15 1.45-1.2 4.95-3.2 3.55-2.05 5.4-3.45 3.55-2.85 5.55-5.8 2.9-4.25 3.65-9.95z" id="t"/><path fill="#009B4F" d="M420.5 226.7q.85 3.5 4 6.2 4.2 3.25 5.1 4.25 3.55 3.85 3.15 9.95l.95.4q.3-7.8-4.45-13.6l-2.9-3.05q-1.6-1.7-2.45-3.35-.85-2-1.25-2.8-.65-1.4-1.55-1.3-.7.05-.8 1.1-.15.9.2 2.2z" id="u"/><path fill="#008C4A" d="M449.3 225.55q-1.25 1.95-3.5 3.9-2.6 2.15-3.95 3.4-6.8 6.45-7.35 16.1l1.15-.45q.35-7.4 5.25-11.8 1.6-1.35 6.9-4.6 2.2-1.45 3.5-3 1.4-1.7 2.25-4.05.65-1.55.65-2.65 0-1.3-.9-1.5-1.1-.25-2.1 1.35-1.15 2.25-1.9 3.3z" id="v"/><path fill="#009B4F" d="M433.25 236.45q0-3.05-1.65-6.6-2.15-4.6-2.6-6.45-.35-2.1-.55-3-.35-1.5-1.25-1.6-1.3-.2-1.3 3.1 0 3.55 2.45 6.9.95 1.25 2.75 3.05 1.45 1.8 2.15 4.6z" id="w"/><path fill="url(#c)" d="M453.85 295.9q9.85-8.8 10.6-21.9.7-13.15-8.1-22.95-8.85-9.8-21.95-10.5-13.05-.8-22.85 8-9.85 8.8-10.6 21.95-.7 13.15 8.1 22.95 8.8 9.85 21.9 10.5 13.1.75 22.9-8.05z" id="x"/><path fill="url(#d)" d="M441.6 245.65q1.5 0 2.75.15-4.7-1.9-10.1-1.9-11.55 0-19.7 8.25-8.2 8.2-8.2 19.75 0 10.85 7.3 18.85 7.25 7.95 17.9 8.95-7.95-3.05-12.9-10.05-5.05-7.2-5.05-16 0-11.55 8.25-19.75 8.2-8.25 19.75-8.25z" id="y"/><path fill="#A82C32" d="M467.25 318.95q2.15.1 3.6.9 1.25.65 2.9 2.35 1.85 1.9 2.5 2.5 1.6 1.45 3 2.1 1.8.85 3.7.5 2.05-.35 2.8-1.95l1.45-5.35-2.95-5L463 301.6q-4.55-1.65-9.4-2.5-6.8-1.25-10.6-.1-2.1.6-3.3 2-1 1.15-1.2 2.6-.2 2.3 2.2 4.35 2.4 2.05 5.65 2.55.9.15 2.3.2 1.7 0 2.25.05 5.15.4 6.85 3.2 2.3 3.95 5.95 4.8 1.25.2 3.55.2z" id="z"/><path fill="url(#e)" d="M479.7 285.05l-7.1-5.15q-3.45 7.1-8.85 9.25-1.85.7-5.2 1.35-4.3.85-5.85 1.25-4.15 1.15-6.95 3-4.1 2.65-6.85 7.35 1.75-1.55 3.65-1.3 1.7.2 3.15 1.8.55.55 1.9 2.85.85 1.45 2.35 2.05 1.45.55 3.6.05 2.1-.45 2.95-.15 1.65.65 2.45 2.25.85 1.7 1.6 2.1.6.3 3.8.1 2.3-.15 3.6 2.05 1.8 2.95 3.9 4.2 1.65 1 3.75 1.05 1.4 0 3.9-.3 2.15-.05 3.75.95 3.3 2.25 2.45 5.9 3.95-6.6 3.1-12.55-.6-4.1-4.1-9.65-4.35-6.85-5.1-8.7-2-4.95.1-9.75z" id="A"/><path fill="#B52E35" d="M478.75 285.45l-.55-.7q-3.25 6.5-1.15 13.45.45 1.35 1.4 3.75.8 2.15.9 3.9.1 1 .05 2.85.1 1.45.9 1.65.65.2 1.1-.6.45-.75.6-2.05.6-3.4-1.2-6.85-1.15-2.05-1.65-3-.95-1.7-1.25-2.6-1.65-4.7.85-9.8z" id="B"/><path fill="#D6313B" d="M478 283.15l-1.15-.05q-1.4 2.95-3.65 5.1-2.35 2.3-5.3 3.3-1.15.4-3.45.8-2.8.4-4.25.65-2.5.5-4.15 1.4-1.9.95-3.5 2.7-1.1 1.15-1.5 2.1-.5 1.15.2 1.65.85.6 2.4-.45.85-.6 2.8-2.2 1.8-1.2 4.5-2.1 1.55-.5 4.7-1.5 8.35-3.1 12.35-11.4z" id="C"/><path fill="#C93039" d="M473.5 300.9q.2 4.7-.15 6.6-.1 1-.6 2.8-.25 1.45.5 1.85 1.1.7 2.3-2.15 1.3-3.25.35-6.95-.85-2.45-1.2-3.65-.65-2.1-.25-4.85-1.1 2.6-.95 6.35z" id="D"/><path fill="#A82C32" d="M530.6 228.3q2.15-.6 3.35-2 1-1.2 1.1-2.6.2-2.35-2.15-4.45-2.35-2-5.65-2.55-.8-.1-2.3-.1-1.6 0-2.25-.05-2.55-.25-4.05-.9-1.85-.8-2.8-2.4-2.3-4.05-5.95-4.7-1-.2-3.55-.2-2.15-.1-3.6-.9-1.25-.65-2.9-2.35-3.4-3.6-5.45-4.6-1.85-.85-3.75-.55-2.05.4-2.8 2l-1.45 5.25 2.95 5.1 21.25 13.4q4.6 1.6 9.4 2.45 6.8 1.25 10.6.15z" id="E"/><path fill="url(#f)" d="M527.9 232.55q4.05-2.65 6.8-7.35-1.75 1.55-3.6 1.3-1.7-.2-3.2-1.8-.45-.5-1.9-2.9-.85-1.45-2.35-2-1.45-.55-3.6-.05-2.1.45-3 .1-1.65-.65-2.4-2.2-.85-1.7-1.6-2.1-.6-.3-3.75-.1-2.35.15-3.65-2.05-1.8-3-3.9-4.25-1.65-1-3.75-1-2.65.2-3.9.25-2.15.05-3.75-1-1.4-.9-2.1-2.3-.8-1.65-.35-3.6-3.95 6.65-3.45 13.05.4 4.6 3.45 10.35 1.65 3.1 4.65 8.7 1.9 4.6.2 8.1l7.4 4.5q3.4-6.9 9.3-8.65 3.45-1 11.45-2.05 4.1-1.1 7-2.95z" id="F"/><path fill="#D6313B" d="M492.2 217.5q-.45.75-.6 2-.6 3.45 1.2 6.9.55 1.05 1.7 3 .9 1.7 1.2 2.65 1.65 4.7-.85 9.8l.65.7q3.1-6.65 1.05-13.45-.95-2.55-1.4-3.75-.8-2.15-.9-3.9 0-2-.05-2.85-.1-1.45-.9-1.75-.65-.2-1.1.65z" id="G"/><path fill="#B52E35" d="M495.6 244.15h1.15q3.25-6.45 8.95-8.35 1.85-.65 7.7-1.55 2.5-.45 4.2-1.3 1.9-.95 3.45-2.7 2.65-2.8 1.3-3.75-.9-.65-2.35.4-1.85 1.5-2.85 2.2-1.75 1.2-4.5 2.1-4.6 1.45-4.7 1.5-8.35 3.1-12.35 11.45z" id="H"/><path fill="#C93039" d="M499.2 232.7q1.1-2.6.95-6.3-.2-4.85.1-6.65.45-1.95.6-2.8.25-1.45-.5-1.85-1.1-.65-2.3 2.2-1.3 3.25-.35 6.95.4 1.4 1.25 3.65.6 2.05.25 4.8z" id="I"/><path fill="url(#g)" d="M458.45 250.6q-5.45 11.2-1.35 23t15.25 17.25q11.15 5.45 23 1.4 11.8-4.1 17.25-15.3 5.45-11.15 1.4-22.95-4.1-11.8-15.3-17.3-11.2-5.45-23-1.35-11.85 4.1-17.25 15.25z" id="J"/><path fill="url(#h)" d="M460.4 255.65q-2.95 9.65 1.35 18.75 4.3 9.05 13.5 12.95-6.25-4.95-8.7-12.55-2.5-7.8-.1-15.55 3.15-10.3 12.7-15.35 9.5-5.05 19.8-1.95l2.45.95q-3.7-2.95-8.45-4.45-10.3-3.15-19.8 1.9-9.55 5.05-12.75 15.3z" id="K"/><path fill="url(#i)" d="M432.7 254.35q-12.75 0-22.2-4.8l-2 2.05q4.75 2.7 10.9 4.2 6.35 1.5 13.3 1.5 6.95 0 13.25-1.5 6.15-1.5 10.95-4.2-1.3-1.4-2.05-2.05-9.45 4.8-22.15 4.8z" id="L"/><path fill="url(#j)" d="M432.7 292.75q-9.85 0-18.1-3.1-8.05-3-12.2-7.95.9 3 2.5 5.9 4.8 3.7 11.95 5.8 7.45 2.2 15.85 2.2 8.35 0 15.8-2.2 7.2-2.1 12-5.8 1.5-2.6 2.5-5.9-4.15 4.95-12.2 7.95-8.3 3.1-18.1 3.1z" id="M"/><path fill="url(#k)" d="M474.5 235.8q-2.15.9-2.65 1.15 3.5 4.25 8.8 7.85 5.4 3.7 11.95 6.15 11.1 4.25 21.6 3.7-.5-1.65-1.1-2.8-9.45.25-19.4-3.6-11.95-4.55-19.2-12.45z" id="N"/><path fill="url(#l)" d="M480 284.1q-9.3-3.6-16-9.5-6.55-5.8-8.55-11.95-.15 3.2.55 7.1 3.25 5.1 9.15 9.55 6.1 4.55 13.85 7.55 10.55 3.95 20.3 3.65 2.8-1.45 5.1-3.3-5.35.9-11.55.1-6.45-.75-12.85-3.2z" id="O"/></defs><use xlink:href="#m"/><use xlink:href="#n" transform="matrix(1.91197 0 0 1.91202 -752.71 -338.217)"/><use xlink:href="#o" transform="matrix(1.91197 0 0 1.91202 -752.71 -338.217)"/><use xlink:href="#p" transform="matrix(1.91197 0 0 1.91202 -752.71 -338.217)"/><use xlink:href="#q" transform="matrix(1.91197 0 0 1.91202 -752.71 -338.217)"/><use xlink:href="#r" transform="matrix(1.91197 0 0 1.91202 -752.71 -338.217)"/><use xlink:href="#s" transform="matrix(1.91197 0 0 1.91202 -752.71 -338.217)"/><use xlink:href="#t" transform="matrix(1.91197 0 0 1.91202 -752.71 -338.217)"/><use xlink:href="#u" transform="matrix(1.91197 0 0 1.91202 -752.71 -338.217)"/><use xlink:href="#v" transform="matrix(1.91197 0 0 1.91202 -752.71 -338.217)"/><use xlink:href="#w" transform="matrix(1.91197 0 0 1.91202 -752.71 -338.217)"/><use xlink:href="#x" transform="matrix(1.91197 0 0 1.91202 -752.71 -338.217)"/><use xlink:href="#y" transform="matrix(1.91197 0 0 1.91202 -752.71 -338.217)"/><use xlink:href="#z" transform="matrix(1.91197 0 0 1.91202 -752.71 -338.217)"/><use xlink:href="#A" transform="matrix(1.91197 0 0 1.91202 -752.71 -338.217)"/><use xlink:href="#B" transform="matrix(1.91197 0 0 1.91202 -752.71 -338.217)"/><use xlink:href="#C" transform="matrix(1.91197 0 0 1.91202 -752.71 -338.217)"/><use xlink:href="#D" transform="matrix(1.91197 0 0 1.91202 -752.71 -338.217)"/><use xlink:href="#E" transform="matrix(1.91197 0 0 1.91202 -752.71 -338.217)"/><use xlink:href="#F" transform="matrix(1.91197 0 0 1.91202 -752.71 -338.217)"/><use xlink:href="#G" transform="matrix(1.91197 0 0 1.91202 -752.71 -338.217)"/><use xlink:href="#H" transform="matrix(1.91197 0 0 1.91202 -752.71 -338.217)"/><use xlink:href="#I" transform="matrix(1.91197 0 0 1.91202 -752.71 -338.217)"/><use xlink:href="#J" transform="matrix(1.91197 0 0 1.91202 -752.71 -338.217)"/><use xlink:href="#K" transform="matrix(1.91197 0 0 1.91202 -752.71 -338.217)"/><use xlink:href="#L" transform="matrix(1.91197 0 0 1.91202 -752.71 -338.217)"/><use xlink:href="#M" transform="matrix(1.91197 0 0 1.91202 -752.71 -338.217)"/><use xlink:href="#N" transform="matrix(1.91197 0 0 1.91202 -752.71 -338.217)"/><use xlink:href="#O" transform="matrix(1.91197 0 0 1.91202 -752.71 -338.217)"/></svg>