<svg xmlns="http://www.w3.org/2000/svg" xmlns:xlink="http://www.w3.org/1999/xlink" preserveAspectRatio="none" width="284" height="320"><defs><linearGradient id="a" gradientUnits="userSpaceOnUse" x1="618.975" y1="871.887" x2="664.825" y2="824.413" spreadMethod="pad"><stop offset="0%" stop-color="#DCDFED"/><stop offset="100%" stop-color="#7080B3"/></linearGradient><linearGradient id="b" gradientUnits="userSpaceOnUse" x1="635.575" y1="811.075" x2="592.325" y2="866.425" spreadMethod="pad"><stop offset="0%" stop-color="#7786B7"/><stop offset="100%" stop-color="#CDD2E6"/></linearGradient><linearGradient id="c" gradientUnits="userSpaceOnUse" x1="642.875" y1="816.8" x2="599.125" y2="872.8" spreadMethod="pad"><stop offset="0%" stop-color="#7786B7"/><stop offset="100%" stop-color="#CDD2E6"/></linearGradient><linearGradient id="d" gradientUnits="userSpaceOnUse" x1="653.6" y1="825.188" x2="610.2" y2="880.713" spreadMethod="pad"><stop offset="0%" stop-color="#7786B7"/><stop offset="100%" stop-color="#CDD2E6"/></linearGradient><linearGradient id="e" gradientUnits="userSpaceOnUse" x1="669.15" y1="837.275" x2="626.05" y2="892.425" spreadMethod="pad"><stop offset="0%" stop-color="#7786B7"/><stop offset="100%" stop-color="#CDD2E6"/></linearGradient><linearGradient id="f" gradientUnits="userSpaceOnUse" x1="615.038" y1="869.538" x2="650.163" y2="817.462" spreadMethod="pad"><stop offset="0%" stop-color="#EBEBF4"/><stop offset="100%" stop-color="#95A0C8"/></linearGradient><linearGradient id="g" gradientUnits="userSpaceOnUse" x1="635.912" y1="845.038" x2="667.188" y2="817.863" spreadMethod="pad"><stop offset="0%" stop-color="#95A0C8"/><stop offset="100%" stop-color="#5E74AB"/></linearGradient><linearGradient id="h" gradientUnits="userSpaceOnUse" x1="631.288" y1="839.088" x2="657.712" y2="827.313" spreadMethod="pad"><stop offset="0%" stop-color="#CDD2E6"/><stop offset="100%" stop-color="#818FBD"/></linearGradient><linearGradient id="i" gradientUnits="userSpaceOnUse" x1="594.587" y1="866.075" x2="641.413" y2="893.125" spreadMethod="pad"><stop offset="0%" stop-color="#EDD2BD"/><stop offset="100%" stop-color="#F8EDE3"/></linearGradient><linearGradient id="j" gradientUnits="userSpaceOnUse" x1="590.225" y1="806.738" x2="662.975" y2="801.663" spreadMethod="pad"><stop offset="0%" stop-color="#B6BDDA"/><stop offset="100%" stop-color="#818FBD"/></linearGradient><linearGradient id="k" gradientUnits="userSpaceOnUse" x1="582.387" y1="792.138" x2="631.913" y2="800.862" spreadMethod="pad"><stop offset="0%" stop-color="#CDD2E6"/><stop offset="100%" stop-color="#A0AACE"/></linearGradient><linearGradient id="l" gradientUnits="userSpaceOnUse" x1="577.337" y1="788.325" x2="620.962" y2="785.275" spreadMethod="pad"><stop offset="0%" stop-color="#B6BDDA"/><stop offset="100%" stop-color="#818FBD"/></linearGradient><linearGradient id="m" gradientUnits="userSpaceOnUse" x1="573.35" y1="776.212" x2="613.45" y2="783.288" spreadMethod="pad"><stop offset="0%" stop-color="#CDD2E6"/><stop offset="100%" stop-color="#A0AACE"/></linearGradient><linearGradient id="n" gradientUnits="userSpaceOnUse" x1="571.4" y1="772.063" x2="610.2" y2="769.338" spreadMethod="pad"><stop offset="0%" stop-color="#B6BDDA"/><stop offset="100%" stop-color="#818FBD"/></linearGradient><linearGradient id="o" gradientUnits="userSpaceOnUse" x1="578.375" y1="749.075" x2="670.025" y2="782.425" spreadMethod="pad"><stop offset="0%" stop-color="#B6BDDA"/><stop offset="100%" stop-color="#818FBD"/></linearGradient><linearGradient id="p" gradientUnits="userSpaceOnUse" x1="570.462" y1="758.712" x2="619.038" y2="767.288" spreadMethod="pad"><stop offset="0%" stop-color="#CDD2E6"/><stop offset="100%" stop-color="#A0AACE"/></linearGradient><linearGradient id="q" gradientUnits="userSpaceOnUse" x1="597.275" y1="807.575" x2="662.825" y2="819.125" spreadMethod="pad"><stop offset="0%" stop-color="#CDD2E6"/><stop offset="100%" stop-color="#A0AACE"/></linearGradient><linearGradient id="r" gradientUnits="userSpaceOnUse" x1="575.663" y1="814.4" x2="636.738" y2="806.9" spreadMethod="pad"><stop offset="0%" stop-color="#EBEBF4"/><stop offset="100%" stop-color="#C3C7DF"/></linearGradient><linearGradient id="s" gradientUnits="userSpaceOnUse" x1="574.375" y1="803.913" x2="634.925" y2="796.488" spreadMethod="pad"><stop offset="0%" stop-color="#EBEBF4"/><stop offset="100%" stop-color="#C3C7DF"/></linearGradient><linearGradient id="t" gradientUnits="userSpaceOnUse" x1="573.637" y1="797.787" x2="634.462" y2="790.313" spreadMethod="pad"><stop offset="0%" stop-color="#EBEBF4"/><stop offset="100%" stop-color="#C3C7DF"/></linearGradient><linearGradient id="u" gradientUnits="userSpaceOnUse" x1="573.575" y1="788.975" x2="633.425" y2="781.625" spreadMethod="pad"><stop offset="0%" stop-color="#EBEBF4"/><stop offset="100%" stop-color="#C3C7DF"/></linearGradient><linearGradient id="v" gradientUnits="userSpaceOnUse" x1="572.462" y1="780.075" x2="632.238" y2="772.725" spreadMethod="pad"><stop offset="0%" stop-color="#EBEBF4"/><stop offset="100%" stop-color="#C3C7DF"/></linearGradient><linearGradient id="w" gradientUnits="userSpaceOnUse" x1="570.975" y1="776.025" x2="631.725" y2="768.575" spreadMethod="pad"><stop offset="0%" stop-color="#EBEBF4"/><stop offset="100%" stop-color="#C3C7DF"/></linearGradient><linearGradient id="x" gradientUnits="userSpaceOnUse" x1="570.712" y1="765.712" x2="630.288" y2="758.387" spreadMethod="pad"><stop offset="0%" stop-color="#EBEBF4"/><stop offset="100%" stop-color="#C3C7DF"/></linearGradient><linearGradient id="y" gradientUnits="userSpaceOnUse" x1="624.162" y1="776.788" x2="666.938" y2="793.212" spreadMethod="pad"><stop offset="0%" stop-color="#8B98C3"/><stop offset="100%" stop-color="#556CA5"/></linearGradient><linearGradient id="z" gradientUnits="userSpaceOnUse" x1="628.962" y1="778.975" x2="668.837" y2="791.925" spreadMethod="pad"><stop offset="0%" stop-color="#B6BDDA"/><stop offset="100%" stop-color="#95A0C8"/></linearGradient><linearGradient id="A" gradientUnits="userSpaceOnUse" x1="606.575" y1="745.887" x2="630.625" y2="815.712" spreadMethod="pad"><stop offset="0%" stop-color="#7080B3"/><stop offset="100%" stop-color="#335897"/></linearGradient><linearGradient id="B" gradientUnits="userSpaceOnUse" x1="599.788" y1="820.813" x2="571.113" y2="766.888" spreadMethod="pad"><stop offset="0%" stop-color="#F8EDE3"/><stop offset="100%" stop-color="#EDD2BD"/></linearGradient><linearGradient id="C" gradientUnits="userSpaceOnUse" x1="597.638" y1="821.975" x2="569.063" y2="768.225" spreadMethod="pad"><stop offset="0%" stop-color="#F8EDE3"/><stop offset="100%" stop-color="#EDD2BD"/></linearGradient><linearGradient id="D" gradientUnits="userSpaceOnUse" x1="596.8" y1="822.438" x2="568.2" y2="768.662" spreadMethod="pad"><stop offset="0%" stop-color="#F8EDE3"/><stop offset="100%" stop-color="#EDD2BD"/></linearGradient><linearGradient id="E" gradientUnits="userSpaceOnUse" x1="597.25" y1="822.188" x2="568.65" y2="768.412" spreadMethod="pad"><stop offset="0%" stop-color="#F8EDE3"/><stop offset="100%" stop-color="#EDD2BD"/></linearGradient><linearGradient id="F" gradientUnits="userSpaceOnUse" x1="598.438" y1="821.525" x2="569.862" y2="767.775" spreadMethod="pad"><stop offset="0%" stop-color="#F8EDE3"/><stop offset="100%" stop-color="#EDD2BD"/></linearGradient><linearGradient id="G" gradientUnits="userSpaceOnUse" x1="600.688" y1="821.363" x2="571.813" y2="767.038" spreadMethod="pad"><stop offset="0%" stop-color="#F8EDE3"/><stop offset="100%" stop-color="#EDD2BD"/></linearGradient><linearGradient id="H" gradientUnits="userSpaceOnUse" x1="739.9" y1="871.838" x2="694.9" y2="823.563" spreadMethod="pad"><stop offset="0%" stop-color="#DCDFED"/><stop offset="100%" stop-color="#7080B3"/></linearGradient><linearGradient id="I" gradientUnits="userSpaceOnUse" x1="723.05" y1="810.65" x2="767.25" y2="865.25" spreadMethod="pad"><stop offset="0%" stop-color="#7786B7"/><stop offset="100%" stop-color="#CDD2E6"/></linearGradient><linearGradient id="J" gradientUnits="userSpaceOnUse" x1="715.588" y1="816.688" x2="760.313" y2="871.912" spreadMethod="pad"><stop offset="0%" stop-color="#7786B7"/><stop offset="100%" stop-color="#CDD2E6"/></linearGradient><linearGradient id="K" gradientUnits="userSpaceOnUse" x1="704.525" y1="825.612" x2="748.875" y2="880.388" spreadMethod="pad"><stop offset="0%" stop-color="#7786B7"/><stop offset="100%" stop-color="#CDD2E6"/></linearGradient><linearGradient id="L" gradientUnits="userSpaceOnUse" x1="689.525" y1="837.75" x2="733.575" y2="892.15" spreadMethod="pad"><stop offset="0%" stop-color="#7786B7"/><stop offset="100%" stop-color="#CDD2E6"/></linearGradient><linearGradient id="M" gradientUnits="userSpaceOnUse" x1="744.012" y1="869.5" x2="709.788" y2="816.8" spreadMethod="pad"><stop offset="0%" stop-color="#EBEBF4"/><stop offset="100%" stop-color="#95A0C8"/></linearGradient><linearGradient id="N" gradientUnits="userSpaceOnUse" x1="722.788" y1="845.313" x2="692.012" y2="817.588" spreadMethod="pad"><stop offset="0%" stop-color="#95A0C8"/><stop offset="100%" stop-color="#5E74AB"/></linearGradient><linearGradient id="O" gradientUnits="userSpaceOnUse" x1="727.662" y1="839.512" x2="701.438" y2="827.288" spreadMethod="pad"><stop offset="0%" stop-color="#CDD2E6"/><stop offset="100%" stop-color="#818FBD"/></linearGradient><linearGradient id="P" gradientUnits="userSpaceOnUse" x1="764.075" y1="865.525" x2="717.725" y2="893.375" spreadMethod="pad"><stop offset="0%" stop-color="#EDD2BD"/><stop offset="100%" stop-color="#F8EDE3"/></linearGradient><linearGradient id="Q" gradientUnits="userSpaceOnUse" x1="768.725" y1="806.738" x2="695.975" y2="801.663" spreadMethod="pad"><stop offset="0%" stop-color="#B6BDDA"/><stop offset="100%" stop-color="#818FBD"/></linearGradient><linearGradient id="R" gradientUnits="userSpaceOnUse" x1="776.487" y1="791.7" x2="727.112" y2="801.3" spreadMethod="pad"><stop offset="0%" stop-color="#CDD2E6"/><stop offset="100%" stop-color="#A0AACE"/></linearGradient><linearGradient id="S" gradientUnits="userSpaceOnUse" x1="782.612" y1="788.375" x2="738.987" y2="785.325" spreadMethod="pad"><stop offset="0%" stop-color="#B6BDDA"/><stop offset="100%" stop-color="#818FBD"/></linearGradient><linearGradient id="T" gradientUnits="userSpaceOnUse" x1="785.537" y1="775.912" x2="745.563" y2="783.688" spreadMethod="pad"><stop offset="0%" stop-color="#CDD2E6"/><stop offset="100%" stop-color="#A0AACE"/></linearGradient><linearGradient id="U" gradientUnits="userSpaceOnUse" x1="787.563" y1="772.45" x2="748.838" y2="769.05" spreadMethod="pad"><stop offset="0%" stop-color="#B6BDDA"/><stop offset="100%" stop-color="#818FBD"/></linearGradient><linearGradient id="V" gradientUnits="userSpaceOnUse" x1="780.075" y1="747.925" x2="689.025" y2="782.875" spreadMethod="pad"><stop offset="0%" stop-color="#B6BDDA"/><stop offset="100%" stop-color="#818FBD"/></linearGradient><linearGradient id="W" gradientUnits="userSpaceOnUse" x1="788.5" y1="758.6" x2="740.1" y2="768" spreadMethod="pad"><stop offset="0%" stop-color="#CDD2E6"/><stop offset="100%" stop-color="#A0AACE"/></linearGradient><linearGradient id="X" gradientUnits="userSpaceOnUse" x1="761.575" y1="807" x2="696.225" y2="819.7" spreadMethod="pad"><stop offset="0%" stop-color="#CDD2E6"/><stop offset="100%" stop-color="#A0AACE"/></linearGradient><linearGradient id="Y" gradientUnits="userSpaceOnUse" x1="782.762" y1="815.625" x2="721.837" y2="807.075" spreadMethod="pad"><stop offset="0%" stop-color="#EBEBF4"/><stop offset="100%" stop-color="#C3C7DF"/></linearGradient><linearGradient id="Z" gradientUnits="userSpaceOnUse" x1="784.35" y1="804.4" x2="723.95" y2="795.9" spreadMethod="pad"><stop offset="0%" stop-color="#EBEBF4"/><stop offset="100%" stop-color="#C3C7DF"/></linearGradient><linearGradient id="aa" gradientUnits="userSpaceOnUse" x1="785.125" y1="798.713" x2="724.475" y2="790.188" spreadMethod="pad"><stop offset="0%" stop-color="#EBEBF4"/><stop offset="100%" stop-color="#C3C7DF"/></linearGradient><linearGradient id="ab" gradientUnits="userSpaceOnUse" x1="785.462" y1="789.65" x2="725.738" y2="781.25" spreadMethod="pad"><stop offset="0%" stop-color="#EBEBF4"/><stop offset="100%" stop-color="#C3C7DF"/></linearGradient><linearGradient id="ac" gradientUnits="userSpaceOnUse" x1="786.725" y1="780.538" x2="727.075" y2="772.163" spreadMethod="pad"><stop offset="0%" stop-color="#EBEBF4"/><stop offset="100%" stop-color="#C3C7DF"/></linearGradient><linearGradient id="ad" gradientUnits="userSpaceOnUse" x1="788.238" y1="776.663" x2="727.663" y2="768.137" spreadMethod="pad"><stop offset="0%" stop-color="#EBEBF4"/><stop offset="100%" stop-color="#C3C7DF"/></linearGradient><linearGradient id="ae" gradientUnits="userSpaceOnUse" x1="788.725" y1="766.325" x2="729.275" y2="757.975" spreadMethod="pad"><stop offset="0%" stop-color="#EBEBF4"/><stop offset="100%" stop-color="#C3C7DF"/></linearGradient><linearGradient id="af" gradientUnits="userSpaceOnUse" x1="734.7" y1="776.663" x2="692.2" y2="793.837" spreadMethod="pad"><stop offset="0%" stop-color="#8B98C3"/><stop offset="100%" stop-color="#556CA5"/></linearGradient><linearGradient id="ag" gradientUnits="userSpaceOnUse" x1="729.875" y1="778.925" x2="690.225" y2="792.575" spreadMethod="pad"><stop offset="0%" stop-color="#B6BDDA"/><stop offset="100%" stop-color="#95A0C8"/></linearGradient><linearGradient id="ah" gradientUnits="userSpaceOnUse" x1="761.075" y1="739.4" x2="732.125" y2="804.4" spreadMethod="pad"><stop offset="0%" stop-color="#7080B3"/><stop offset="100%" stop-color="#335897"/></linearGradient><linearGradient id="ai" gradientUnits="userSpaceOnUse" x1="759.3" y1="820.862" x2="788.9" y2="767.438" spreadMethod="pad"><stop offset="0%" stop-color="#F8EDE3"/><stop offset="100%" stop-color="#EDD2BD"/></linearGradient><linearGradient id="aj" gradientUnits="userSpaceOnUse" x1="761.2" y1="821.925" x2="790.7" y2="768.675" spreadMethod="pad"><stop offset="0%" stop-color="#F8EDE3"/><stop offset="100%" stop-color="#EDD2BD"/></linearGradient><linearGradient id="ak" gradientUnits="userSpaceOnUse" x1="761.837" y1="822.288" x2="791.363" y2="769.012" spreadMethod="pad"><stop offset="0%" stop-color="#F8EDE3"/><stop offset="100%" stop-color="#EDD2BD"/></linearGradient><linearGradient id="al" gradientUnits="userSpaceOnUse" x1="761.287" y1="821.988" x2="790.813" y2="768.712" spreadMethod="pad"><stop offset="0%" stop-color="#F8EDE3"/><stop offset="100%" stop-color="#EDD2BD"/></linearGradient><linearGradient id="am" gradientUnits="userSpaceOnUse" x1="759.9" y1="821.175" x2="789.4" y2="767.925" spreadMethod="pad"><stop offset="0%" stop-color="#F8EDE3"/><stop offset="100%" stop-color="#EDD2BD"/></linearGradient><linearGradient id="an" gradientUnits="userSpaceOnUse" x1="757.487" y1="820.85" x2="787.313" y2="767.05" spreadMethod="pad"><stop offset="0%" stop-color="#F8EDE3"/><stop offset="100%" stop-color="#EDD2BD"/></linearGradient><linearGradient id="ao" gradientUnits="userSpaceOnUse" x1="686" y1="776.5" x2="686" y2="771" spreadMethod="pad"><stop offset="0%" stop-color="#373535"/><stop offset="100%" stop-color="#97675E"/></linearGradient><linearGradient id="ap" gradientUnits="userSpaceOnUse" x1="673.05" y1="776.5" x2="673.05" y2="771" spreadMethod="pad"><stop offset="0%" stop-color="#373535"/><stop offset="100%" stop-color="#97675E"/></linearGradient><linearGradient id="aq" gradientUnits="userSpaceOnUse" x1="679.6" y1="762.538" x2="679.6" y2="770.962" spreadMethod="pad"><stop offset="0%" stop-color="#9C6C63"/><stop offset="100%" stop-color="#783F3D"/></linearGradient><linearGradient id="ar" gradientUnits="userSpaceOnUse" x1="679.55" y1="831.538" x2="679.55" y2="872.962" spreadMethod="pad"><stop offset="0%" stop-color="#9C6C63"/><stop offset="100%" stop-color="#783F3D"/></linearGradient><linearGradient id="as" gradientUnits="userSpaceOnUse" x1="677.35" y1="872.538" x2="677.35" y2="825.663" spreadMethod="pad"><stop offset="0%" stop-color="#97675E"/><stop offset="100%" stop-color="#E5D8D4"/></linearGradient><linearGradient id="at" gradientUnits="userSpaceOnUse" x1="679.6" y1="781.538" x2="679.6" y2="821.163" spreadMethod="pad"><stop offset="0%" stop-color="#9C6C63"/><stop offset="100%" stop-color="#783F3D"/></linearGradient><linearGradient id="au" gradientUnits="userSpaceOnUse" x1="673.65" y1="818.5" x2="673.65" y2="779.4" spreadMethod="pad"><stop offset="0%" stop-color="#97675E"/><stop offset="100%" stop-color="#E5D8D4"/></linearGradient><path fill="#FFF" fill-opacity="0" d="M284 0H0v320h284V0z" id="av"/><path fill="#EFD8C5" d="M644.65 811.7q-12.25-2.15-21.65 2.05-11.25 5.1-19.6 13.65-8.85 9.15-13.3 21.1-4.25 11.55-3.8 18.9.45 8.5 7 14.15 2.55 2.15 13 7.45 9.4 4.7 13.5 9.35 9.25 10.3 15.35 10.7 5.6.35 11.15-7.6.6-.9-1.4-5.25-2-4.45-1.3-5.75.8-1.4 4.55-4.55 3.3-2.8 4.2-5.6l16.2-49.15q2.2-6.6 7.1-9.7.5-.3-1.1-.8-3.75-1.15-8.05-2.95-18.75-5.5-21.85-6z" id="aw"/><path fill="#FFF" d="M590.75 846.95l-1.05 2.65q21.05-21.4 44.8-32.55 11.8-5.45 24.7-8.75l-3.4-.4q-11.95 3.45-21.75 8.1-23 10.7-43.3 30.95z" id="ax"/><path fill="#FFF" d="M586.25 867.25q0 .55.15 1.65 23.95-30.2 51-46.35 13.45-8.1 28.5-13.1-1.5-.4-2.3-.5-14.05 4.9-26.8 12.55-27.05 16.25-50.55 45.75z" id="ay"/><path fill="#FFF" d="M590.8 879l.8.85q35-48.6 75.25-67.45 1.05-.6 3.35-1.6l-1.5-.65-2.35 1.1Q626 830.15 590.8 879z" id="az"/><path fill="#FFF" d="M599.5 885.6l1.1.5q16.4-24.2 33.65-42.2 16.6-17.25 33.15-28 2.65-1.75 5.9-3.6l-1.3-.65q-2.65 1.55-5.15 3.25-16.65 10.75-33.35 28.15-17.4 18.15-34 42.55z" id="aA"/><path fill="#FFF" d="M639.2 849.15q-14.95 18.4-29.7 41.5.4.2 1.05.55 14.75-23.1 29.5-41.3 14.6-17.95 28.1-29.8 3.45-3 7.75-6.35l-1.05-.65q-3.25 2.45-7.35 6.05-13.65 12.05-28.3 30z" id="aB"/><path fill="#FFF" d="M618.8 897.25l.9.9q12.9-22.35 25.75-41.35 12.55-18.45 23.75-31.75 4.55-5.4 8.8-9.7l-.95-.75q-4.35 4.45-8.7 9.65-11.1 13.15-23.7 31.75-12.8 18.8-25.85 41.25z" id="aC"/><path fill="#FFF" d="M627.5 905.6l.95.65q23.8-45.55 42.15-75.1 5.3-8.55 8.55-13.3l.3-.45-.65-1.15-.6.9q-3.75 5.5-8.55 13.3-18.25 29.4-42.15 75.15z" id="aD"/><path fill="url(#a)" d="M641.8 808.4q-14.1 1.9-25.95 9.15-7 5.1-11.1 10.05-5 6-7.45 13.45-.65 1.35-1.05 2.6-4.35 4.2-5.7 9.35-1.45 5.5 1.85 7.85-3.65 4.85-2.25 8.6 1.25 3.5 5.7 3.35-1.1 4.35 1.85 6.6 2.85 2.2 6.55.35.5 3.7 3.6 5.25 3.1 1.6 6.05-.5-.15 3.5 2.6 5.45 2.85 2 6.55.5-1.1 4 1.9 6.7 2.85 2.6 6.7 1.9.2 4 5.3 6.3 5.25 2.4 8.15-1.3 11.4-14.8 17.95-29.6 7.95-18 10.9-40.45.6-4.65 2.4-9.4 1.95-5.1 2.05-5.8.45-2.35-1.45-4.1-2.05-1.9-8.15-4.5-13-3.75-27-1.8z" id="aE"/><path fill="url(#b)" d="M633.75 809.95q-9.6 2.55-17.9 7.6-7 5.1-11.1 10.05-5 6-7.45 13.45l-.6 1.35 11.4-10.6 13.95-8.6 14.05-7.5 19.5-7.35-2.75-.6q-9.65-.25-19.1 2.2z" id="aF"/><path fill="url(#c)" d="M626.75 839.25l.7-.95 6.55-5.7 5.85-3.5.9-.3 24-19.6-.45-.15-12.5 5.15-16.3 8.55-12.45 8.2-22.3 20.3-9.1 10.6q-2.9 4.6-1.4 7.95 1.4 3.15 5.6 3l-.2.95 9-11.4 11.3-12.65 10.8-10.45z" id="aG"/><path fill="url(#d)" d="M613.9 885.15l17.3-24.9 11.6-15.05-9-2.3-12.55 14.5-12.45 15.9-4.55 6.7q.6 3.55 3.7 5.05 3.1 1.55 5.95-.55v.65z" id="aH"/><path fill="url(#e)" d="M622.85 891.75q-.35 3.5 2.55 5.75 2.75 2.15 6.25 1.55v.15l16.4-29.95.35-1.05 8.05-13.5.45-1.5 8.65-15.2 8-11.65.55-1.25-13.3 8.95L649 850.4l-17.5 27-8.65 14.35z" id="aI"/><path fill="url(#f)" d="M630.9 899.15q.5 0 .75-.1l.1.9q21.7-41.3 38.85-68.8 5.3-8.55 8.55-13.3l.3-.45-.25-.5q-.05-.15-.15-.2v-.05l-.1-.15v-.1l-.1-.05-.05-.1-.6.9q-3.75 5.5-8.55 13.3-16.85 27.1-38.75 68.7m-17.7-14.2q.4-.05.7-.45 0 .95.1 1.4 13.9-21.25 27.75-38.05 13.65-16.55 26.4-27.75 3.45-3 7.75-6.35l-.35-.2-.05-.1h-.1v-.05h-.05l-.3-.15v-.1h-.1l-.1-.05q-3.25 2.45-7.35 6.05-26.35 23.1-54.3 65.8m9.55 5.6l.3-.1q-.35 1.25-.2 2.2 25.15-42.5 46.35-67.6 4.55-5.4 8.8-9.7l-.85-.75h-.1q-4.35 4.45-8.7 9.65-21 24.9-45.6 66.3M591.9 860.4q.4.4.5.45-1 1.2-1.75 2.8 22.05-26.3 46.75-41.1 13.75-8.25 28.5-13.1h-.2v-.1h-.3l-.1-.05h-.25v-.1h-.1l-1.35-.25q-14.05 4.9-26.8 12.55-23.9 14.3-44.9 38.9m3.5 12.4h.45q-.2.75-.2 1.55 33.45-44.3 71.2-61.95 1.05-.6 3.35-1.6l-.65-.3h-.05l-.6-.2v-.1h-.2v-.05l-2.35 1.1q-37.65 17.7-70.95 61.55m7.85 7.4l1-.45q0 .2.15.8 15.55-22.05 31.8-38.6 15.65-15.95 31.2-26.05 2.65-1.75 5.9-3.6l-.35-.2h-.05l-.1-.1h-.05l-.35-.2h-.15v-.05h-.1q-.05-.1-.15-.1-2.65 1.55-5.15 3.25-32.4 20.9-63.6 65.3m-5.8-39.65l-.15.5q-.6 1.3-.8 2 17.75-16.35 38-26 11.8-5.45 24.7-8.75l-.95-.15h-.05l-.5-.1-.75-.05h-.55v-.1h-.6q-11.95 3.45-21.75 8.1-19.15 8.95-36.6 24.55z" id="aJ"/><path fill="url(#g)" d="M647.05 820.8q-14.55 12.15-18.45 29.15 20.55-1.25 35.3-14.6 11.65-10.55 14.1-21.65-1.55.15-.9-3.3.65-3.35-.75-3.15-16 2.45-29.3 13.55z" id="aK"/><path fill="url(#h)" d="M627.9 850.6h.85q6.2-.45 12.15-2 4.9-1.3 10.45-3.95 10.6-5.25 18.2-14.3 6.3-7.55 8.5-14.85-.2-.3-.9-.9-1.95 7.15-8.2 14.7-7.5 9.05-18.1 14.25-5.45 2.6-10.2 3.9-5.55 1.5-11.25 1.85 2.9-11.9 11.45-21.65 7.85-8.95 18.8-14.4 4.5-2.15 8.1-3.3-.95-.35-2.05-.5-3.3 1.1-6.5 2.7-11.45 5.7-19.45 15-8.8 10.2-11.65 22.65l-.2.8z" id="aL"/><path fill="#818FBD" d="M592.15 852.6q.2-3.4 2.55-7.25-3.55 4.2-4.4 8.6-.9 4.8 2.1 6.9-3.65 4.85-2.25 8.6 1.25 3.5 5.7 3.35-1.1 4.35 1.85 6.6 2.85 2.2 6.55.35.5 3.7 3.6 5.25 3.1 1.6 6.05-.5-.15 3.5 2.6 5.45 2.85 2 6.55.5-1.1 4 1.9 6.7 2.85 2.6 6.7 1.9.2 4 5.3 6.3 5.25 2.4 8.15-1.3l1.65-2.45q-3 3.25-8.05.85-4.8-2.35-5.05-6.2-3.85.65-6.7-1.95-2.95-2.75-1.8-6.7-3.75 1.5-6.6-.45-2.8-1.95-2.55-5.45-2.9 2.05-6.1.45-3.1-1.6-3.6-5.2-3.65 1.85-6.55-.35-2.95-2.3-1.9-6.7-4.4.25-5.65-3.3-1.35-3.7 2.2-8.55-2.45-1.75-2.25-5.45m7.15-14.45q1.6-4.85 4.6-9.65-4.5 5.9-6.6 12.55l-.65 1.5q.5-.6 1.65-1.75l1-2.65z" id="aM"/><path fill="url(#i)" d="M634.4 886.7q-2.35-.45-2.9.65-.65 1.05.8 3.05 1.45 2 4.1 3.75 2.7 1.75 5 2.25 2.3.45 2.95-.65.6-1.1-.85-3.1-1.45-2.05-4.1-3.75-2.6-1.7-5-2.2m-14.25-9.3q-1.8-.35-2.25.5-.5.85.65 2.45 1.1 1.55 3.2 2.9 2.1 1.3 3.9 1.65 1.8.35 2.3-.5.5-.8-.65-2.4-1.2-1.6-3.25-2.9-2.1-1.35-3.9-1.7m-16.45-7.65q.25-.45-.35-1.3-.55-.75-1.65-1.5-1.1-.75-2.05-.95-.95-.2-1.2.25-.3.5.3 1.3.6.75 1.7 1.5t2.05.95q.95.2 1.2-.25m2.8 1.95q-.35.6.5 1.75.8 1.1 2.3 2.05 1.5 1 2.75 1.25 1.3.3 1.65-.35.35-.6-.45-1.75-.8-1.1-2.3-2.1-1.5-.95-2.8-1.2-1.3-.25-1.65.35z" id="aN"/><path fill="#E6C4A8" d="M597.7 744.2q-6.45-1.8-10.2-2.6-30.15-6.65-26.75 22.95 1.25 10.95 7 25.25 4.8 11.8 10.5 21.15 5.1 8.3 7.65 11.45 3.05 3.75 5.85 4.65 2.6.8 7-.35.2-.05 11.05-3.4 2.8-.85 15.3-5 9.75-3.25 15.95-4.85 18.75-4.9 31.85-2.35l1.2-12.25q-15.85-20.7-37.05-35.4-19.45-13.5-39.35-19.25z" id="aO"/><path fill="#CB8B5B" d="M586.55 816.5q-2.3.7-3.95 1.3l.7 1.15 3.6-1.25q22.25-7.25 41.9-11 27.85-5.35 44.75-2.25l.15-1.3q-17.15-3.1-45.1 2.25-19.85 3.8-42.05 11.1z" id="aP"/><path fill="#CB8B5B" d="M575.75 806.7q.3.35.65 1.15 17.2-5.55 33.4-8.75 23.1-4.55 40.05-3.3l.05-1.3q-17.2-1.25-40.5 3.35-16.7 3.25-33.65 8.85z" id="aQ"/><path fill="#CB8B5B" d="M570.3 795.7l.55 1.15q20.1-5.5 38.7-7.15 26.6-2.4 44.4 3.9l.35-1.25q-18-6.4-44.9-3.95-18.8 1.7-39.1 7.3z" id="aR"/><path fill="#CB8B5B" d="M565.75 784.45l.45 1.3q17.4-3.75 33.9-4.1 22.7-.55 40.15 5.45l.4-1.3q-17.7-6.05-40.7-5.5-16.6.4-34.2 4.15z" id="aS"/><path fill="#CB8B5B" d="M562.45 773.7l.35 1.25q14.5-1.8 28.7-1 18.6 1.1 35 6.6l.45-1.2q-16.65-5.6-35.5-6.65-14.4-.85-29 1z" id="aT"/><path fill="#CB8B5B" d="M560.55 762.9l.15 1.3q17.75.25 34.95 3.25 23.95 4.15 44.05 13.2l.4-1.15q-20.3-9.2-44.35-13.4-17.6-3.05-35.2-3.2z" id="aU"/><path fill="#CB8B5B" d="M561.55 751.05l-.35 1.3q15.5 1.9 31.5 5.75 21.45 5.2 40.5 13.15l.45-1.2q-19-8-40.55-13.2-15.9-3.85-31.55-5.8z" id="aV"/><path fill="#F3E3D6" d="M599.95 744.65q-5.15-1.5-10.25-2.6-30.1-6.6-26.65 22.65 1.3 10.8 7.1 24.95 4.75 11.65 10.5 20.95 5.1 8.2 7.6 11.25 3.05 3.75 5.9 4.6 2.6.8 7-.3.2-.05 11.1-3.35 2.5-.75 15.2-4.9 9.65-3.15 15.95-4.75 18.75-4.8 31.85-2.3l1.15-12.1q-15.8-20.4-37.05-35-19.5-13.35-39.4-19.1z" id="aW"/><path fill="#FFF" d="M585.55 818.15l1.35-.45q23.15-7.55 43.3-11.25 28.85-5.35 45.65-1.55l.05-1.3q-16.95-3.8-45.85 1.55-20.45 3.75-43.5 11.35l-1.8.55.8 1.1z" id="aX"/><path fill="#FFF" d="M578 805.95l.65 1.15q17.1-5.35 32.8-8.35 22.05-4.15 38.4-2.95l.05-1.3q-16.5-1.25-38.85 3-15.95 3.05-33.05 8.45z" id="aY"/><path fill="#FFF" d="M572.45 795.05l.55 1.2q20.15-5.25 38.25-6.7 25.5-2.05 42.7 4.05l.35-1.25q-17.45-6.15-43.25-4.1-18.5 1.45-38.6 6.8z" id="aZ"/><path fill="#FFF" d="M568.4 785.25q17.25-3.45 33.25-3.65 21.75-.3 38.6 5.5l.4-1.3q-17.1-5.85-39.1-5.55-16.25.25-33.55 3.75l.4 1.25z" id="ba"/><path fill="#FFF" d="M564.65 773.45l.4 1.3q14.15-1.55 28-.65 17.75 1.2 33.45 6.45l.45-1.2Q611 774 593 772.8q-13.95-.95-28.35.65z" id="bb"/><path fill="#FFF" d="M562.85 763q0 .05.15 1.3 17.35.35 34.35 3.45 22.9 4.15 42.35 12.9l.4-1.15q-19.55-8.85-42.6-13.05-17.05-3.1-34.65-3.45z" id="bc"/><path fill="#FFF" d="M563.8 751.3q-.3.9-.35 1.3 15.45 2.05 30.95 5.9 20.55 5.1 38.8 12.75l.45-1.2q-18.2-7.7-38.85-12.8-15.4-3.85-31-5.95z" id="bd"/><path fill="url(#j)" d="M613.85 809l21.5-4.6 18.45-2.55 14.2.5 10.7 2.1 1.15-4.95-14.15-3.4-22.55-1.85-17.2 1.2-21.2 3.75-20.65 5.55q-.3 3.65 1.45 6.45 1.75 2.75 5.35 4.35l22.95-6.55z" id="be"/><path fill="url(#k)" d="M635.1 791.15l-5.2-3.05-13.05.15-14.15 1.1-19.55 3.65-4.75 1.25q-1.15 7.05 5.7 10.45v.1l25.95-6.8 12.2-1.95 14.4-1.75 6.35-.35-7.9-2.8z" id="bf"/><path fill="url(#l)" d="M581.8 782.45l-7.85 1.15q-1.25 6.55 4.55 10.05l-.15.6L605.4 789l10.05-.75 14.1-.4-8.35-6.55-18.95-.75-20.45 1.9z" id="bg"/><path fill="url(#m)" d="M573.95 783.65l16.4-2.25 9.4-.7 21.85.65-5.9-4.75-8.9-1.85-12.4-1.3-16.5-.25-6.9.75q-2.05 5.05 3.1 9l-.15.7z" id="bh"/><path fill="url(#n)" d="M590.5 773.15l12.6 1.05 14.4 2.75 1.15-5.2-18.2-4.3-15.55-2.35-15.55-1.05q-4 5.15 1.8 9.5l-.2.4 3.95-.45 15.6-.35z" id="bi"/><path fill="url(#o)" d="M599.6 744.55l-3.45-.8q-12.5-3.1-19.1-.7-6.6 2.35-6.9 9.95l-.15.05 12.4 2.15 23 5.35 22.5 7.4 18 7.7 20.7 12.3 13.4 10.8.75-2.8q-15.15-19.55-39.4-33.7-19.4-11.3-41.75-17.7z" id="bj"/><path fill="url(#p)" d="M569.4 764.05l13.5.65 25.45 4.5 15.5 4.1 4.6-5.2-15.85-5.4-22.3-5.95-20.4-3.65q-2.4 1.95-2.7 4.75-.3 3.15 2.2 6.2z" id="bk"/><path fill="url(#q)" d="M612.25 822.8q21.75-6.55 31.8-8.5 19.05-3.75 32.5-1.15l2.15-8.7-10.7-2.1-14.2-.5-18.45 2.55-21.5 4.6-22.95 6.55h.1q1.45 6.1 4.65 8.5 2.65 2.05 6.9 1.7 2.55-.7 9.7-2.95z" id="bl"/><path fill="url(#r)" d="M591 815.55l.15.5q23.4-7.5 43.4-10.9 28.3-4.85 44-.25l.3-1.25q-16.1-4.65-44.95.3-20.25 3.5-43.9 11.15l1 .45z" id="bm"/><path fill="url(#s)" d="M584.1 804.7v.7q16.15-4.95 31.2-7.6 20.15-3.6 35.35-2.5l.05-1.3q-15.35-1.1-35.8 2.55-15.2 2.75-31.45 7.75l.65.4z" id="bn"/><path fill="url(#t)" d="M578.5 793.65l-.25 1.4q19.25-4.85 36.6-6.05 23.65-1.6 39.8 4.1l.4-1.15q-16.2-5.75-39.85-4.2-17.2 1.1-36.7 5.9z" id="bo"/><path fill="url(#u)" d="M573.8 784.45q16.45-3.05 31.65-3.1 20.1 0 35.8 5.4l.4-1.15q-15.8-5.45-35.9-5.5-15.25 0-31.7 3.05l-.25 1.3z" id="bp"/><path fill="url(#v)" d="M571.15 773.55l-.35.8q30.8-2.75 57.1 6.05l.35-1.2q-26.85-8.95-57.7-6.05l.6.4z" id="bq"/><path fill="url(#w)" d="M569 764.55q16.55.6 32.65 3.75 21.05 4.1 39.05 12.2l.45-1.15q-18.15-8.2-39.45-12.3-16.15-3.15-32.85-3.75l.55.75q-.15.15-.4.5z" id="br"/><path fill="url(#x)" d="M570.15 753q-.1.05-.75.55 35.2 5.2 64.95 17.8l.45-1.15q-29.7-12.6-64.65-17.85v.65z" id="bs"/><path fill="url(#y)" d="M615.8 776.75q11.2 9.25 13.15 10.6 8.85 6.05 16.85 6.8 12.1 1.2 17.1 1.9 10.9 1.55 18.4 4.1-7.45-7.9-26.65-19.2-19.55-11.5-29.2-13.35-.35-.05-3.45 2.9-3.05 2.9-6.2 6.25z" id="bt"/><path fill="url(#z)" d="M668.65 789.1q-5.6-3.8-8.95-5.8-9.85-6.15-18.9-10.55-9.8-4.75-15.3-5.8-.4-.1-.85.35l-.95.8q-2.8 2.4-8.35 8.2l-.45.5.55.45q1.75 1.45 3.05 2.65 7.65 6.55 12.2 9.4 7.8 4.85 15.05 5.5l1.7.15q11.1 1.1 16.4 1.9 10.25 1.5 17.3 3.85l2.3.8-1.7-1.85q-2.9-2.9-5.55-4.9-3.8-3.05-7.55-5.65m-9.6-4.75q4.15 2.55 8.95 5.8 5.6 4.05 7.5 5.6 2.5 2 3.5 2.95-6.7-1.95-16-3.3-5.2-.7-15.05-1.65h-.05l-2.1-.25q-6.95-.6-14.55-5.35-4.4-2.8-11.95-9.25l-2.6-2.25q4.95-5.1 7.75-7.6l.85-.75q.1 0 .05-.1-.05-.05 0-.05 5.45 1.15 15.05 5.8 9.1 4.4 18.65 10.4z" id="bu"/><path fill="#4E68A3" d="M640.6 778.45q.25-1.85-.75-2.7-1-.95-2.65-.35-1.7.55-3.05 2.3-1.35 1.65-1.6 3.55-.25 1.85.75 2.75 1 .85 2.65.3 1.65-.6 3-2.3 1.35-1.7 1.65-3.55z" id="bv"/><path fill="#45629E" d="M623.35 771.85q.3-2.25-.85-3.3-1.25-1.1-3.25-.4-2 .7-3.6 2.75-1.65 2.05-1.95 4.3-.35 2.25.85 3.35t3.2.4q2.05-.75 3.65-2.8 1.6-2 1.95-4.3z" id="bw"/><path fill="#7080B3" d="M611.75 791q-.85-.15-1.8.55-.95.7-1.35 1.8-.45 1.2-.15 2.15.35.95 1.2 1.1.95.2 1.9-.5t1.35-1.85q.45-1.2.1-2.15-.3-.95-1.25-1.1z" id="bx"/><path fill="#7080B3" d="M605.05 788.25q.85.2 1.85-.55.95-.7 1.4-1.9.45-1.1.1-2.05-.35-.95-1.25-1.1-.85-.2-1.8.5-.95.7-1.35 1.85-.5 1.15-.15 2.1.3.9 1.2 1.15z" id="by"/><path fill="#7080B3" d="M600.3 772.95q-.35-.85-1.3-1.05-.85-.15-1.75.45-.85.65-1.2 1.65-.3 1.1.1 1.95.35.9 1.3 1.1.85.15 1.75-.5.85-.65 1.2-1.7.3-1.05-.1-1.9z" id="bz"/><path fill="#7080B3" d="M602.3 763.85q-.5-1.05-1.65-1.3-1.05-.2-2.15.6-1.1.75-1.5 2.05-.4 1.35.1 2.45t1.6 1.3q1.1.2 2.15-.55 1.1-.8 1.55-2.1.4-1.35-.1-2.45z" id="bA"/><path fill="#7080B3" d="M607.35 756q-.25-.6-.9-.8-.65-.1-1.3.35-.65.5-.9 1.25t.05 1.4q.25.65.9.75.7.1 1.35-.35.6-.4.9-1.25.2-.75-.1-1.35z" id="bB"/><path fill="url(#A)" d="M664 812.1q6.693-.035 12.55 1.05l.15-.4q-5.6-.875-12.7-.65m-94.55-54.45q.35-2.9 2.85-4.8.45-9.95 11.45-10.8-13.15 0-13.6 10.95-2.55 1.85-2.9 4.75-.4 3.2 2.15 6.3-4.1 5.15 1.75 9.5-2.4 5.35 2.95 9.4-1.75 7.15 4.4 10.7-1.6 7.45 5.6 11.05-.3 3.7 1.5 6.5 1.8 2.75 5.4 4.35 1.45 6.1 4.65 8.5 2.65 2.05 6.9 1.7l.3-.05q-3.5-.25-5.7-2.4-2.65-2.45-3.9-7.8-7.6-3.4-6.9-10.95-7.15-3.45-5.65-11.05-6.05-3.55-4.45-10.65-5.25-4-2.85-9.4-5.95-4.35-1.8-9.45-2.55-3.15-2.15-6.35z" id="bC"/><path fill="url(#B)" d="M597.8 816.05q-1.2-.7-1.75-.2-.5.5 0 1.85.5 1.3 1.65 2.75 1.2 1.4 2.4 2.05 1.2.65 1.7.25.55-.5.05-1.85t-1.7-2.75q-1.15-1.45-2.35-2.1z" id="bD"/><path fill="url(#C)" d="M590.45 806.7q-.9-.7-1.4-.35-.45.3-.2 1.45.2 1.15 1 2.5.85 1.3 1.7 2 .9.7 1.35.35.5-.3.25-1.45-.2-1.2-1-2.5t-1.7-2z" id="bE"/><path fill="url(#D)" d="M583.85 796.35q-.75-.65-1.2-.4-.4.25-.2 1.3.15 1 .8 2.15.65 1.2 1.4 1.85.7.65 1.1.4.45-.25.3-1.3-.15-1-.8-2.15-.65-1.2-1.4-1.85z" id="bF"/><path fill="url(#E)" d="M579.05 786.5q-.65-.55-1-.35-.35.25-.25 1.1.15.85.7 1.85.55 1 1.15 1.55.65.55 1 .3.4-.2.25-1.05-.15-.85-.7-1.85-.5-1-1.15-1.55z" id="bG"/><path fill="url(#F)" d="M575.45 776.55q-.5-.55-.85-.4-.35.2-.3.95.05.75.45 1.65.9 2.25 1.65 1.9.35-.2.35-.95-.05-.75-.4-1.65-.35-.95-.9-1.5z" id="bH"/><path fill="url(#G)" d="M573.4 768.55q-.45-2-1.1-1.8-.25.05-.35.65-.1.6 0 1.4.15.8.45 1.35.35.55.6.45.6-.05.4-2.05z" id="bI"/><path fill="#EFD8C5" d="M755.7 827.4q-8.35-8.55-19.6-13.65-9.4-4.2-21.65-2.05-3.1.5-21.85 6-4.25 1.8-8.05 2.95-1.55.5-1.1.8 4.9 3.05 7.05 9.7l16.2 49.15q.95 2.8 4.25 5.6 3.75 3.2 4.55 4.55.75 1.3-1.3 5.75-2.05 4.35-1.45 5.25 5.6 7.95 11.15 7.6 6.15-.4 15.35-10.7 4.1-4.65 13.55-9.35 10.4-5.25 12.95-7.45 6.6-5.65 7.05-14.15.45-7.35-3.8-18.9-4.45-11.95-13.3-21.1z" id="bJ"/><path fill="#FFF" d="M769.45 849.6l-1-2.65Q747.95 826.65 725 816q-9.75-4.65-21.75-8.1l-3.35.4q12.9 3.3 24.7 8.75 23.9 11.25 44.85 32.55z" id="bK"/><path fill="#FFF" d="M772.7 868.9l.1-1.65q-23.55-29.7-50.55-45.75-12.8-7.65-26.75-12.55-1.5.35-2.3.5 15.1 5 28.5 13.1 27.05 16.15 51 46.35z" id="bL"/><path fill="#FFF" d="M767.55 879.85l.8-.85q-35.4-48.9-75.6-67.75l-2.3-1.1-.05.05-1.45.6 3.35 1.6q40.3 18.9 75.25 67.45z" id="bM"/><path fill="#FFF" d="M758.5 886.1l1.05-.5q-16.55-24.45-33.9-42.55-16.7-17.4-33.35-28.15-3.7-2.35-5.25-3.25l-1.3.65q2.65 1.4 6 3.6 16.5 10.75 33.05 28 17.3 18.05 33.7 42.2z" id="bN"/><path fill="#FFF" d="M684.25 813.1l-1.05.65q4.3 3.35 7.75 6.35 13.55 11.95 28.1 29.8 14.9 18.35 29.5 41.3.1 0 1-.55-14.75-23.15-29.6-41.5-14.6-18-28.25-30-4.8-4.05-7.45-6.05z" id="bO"/><path fill="#FFF" d="M682.05 814.6q-.2.15-.95.75 4.25 4.3 8.8 9.7 11.15 13.3 23.75 31.75 12.9 19.05 25.85 41.35l.75-.9q-13-22.4-25.8-41.25-12.6-18.55-23.7-31.75-4.4-5.15-8.7-9.65z" id="bP"/><path fill="#FFF" d="M680.9 817.15l-.6-.9q-.35.5-.65 1.15l.3.45q3.25 4.75 8.55 13.3 18.85 30.3 42.15 75.1l.9-.65q-22.75-43.95-42.1-75.15-4-6.55-8.55-13.3z" id="bQ"/><path fill="url(#H)" d="M761.8 841.05q-2.4-7.45-7.4-13.45-4.1-4.95-11.1-10.05-11.95-7.25-26.05-9.15-13.95-1.95-26.85 1.8-6.1 2.6-8.15 4.5-1.9 1.75-1.5 4.1.15.75 2.05 5.8 1.8 4.8 2.4 9.4 2.9 22.45 10.85 40.45 6.55 14.8 18 29.6 2.9 3.7 8.15 1.3 5.1-2.35 5.25-6.3 3.85.7 6.7-1.9 3-2.7 1.9-6.7 3.7 1.5 6.55-.5 2.75-1.95 2.55-5.45 2.95 2.1 6.1.5 3.05-1.55 3.55-5.25 3.75 1.85 6.6-.35 2.95-2.25 1.85-6.6 4.45.15 5.75-3.35 1.35-3.75-2.25-8.6 3.3-2.35 1.85-7.85-1.35-5.2-5.7-9.35l-1.1-2.6z" id="bR"/><path fill="url(#I)" d="M761.8 841.05q-2.4-7.45-7.4-13.45-4.1-4.95-11.1-10.05-8.4-5.05-18-7.6-9.45-2.45-19.1-2.2l-2.7.6 19.5 7.35 14.05 7.5 13.95 8.6 11.4 10.6-.6-1.35z" id="bS"/><path fill="url(#J)" d="M731.65 838.3l.7.95 10.8 10.45 11.3 12.65 9 11.4-.2-.95q4.15.15 5.6-3 1.5-3.35-1.45-7.95l-9.05-10.6-22.25-20.3-12.55-8.2-16.25-8.55-12.55-5.15q0 .05-.4.15l23.95 19.6.95.3 5.85 3.5 6.55 5.7z" id="bT"/><path fill="url(#K)" d="M751.15 885.05q3.1-1.5 3.65-5.05l-4.5-6.7-12.45-15.9-12.55-14.5-9 2.3 11.6 15.05 17.25 24.9v-.65q2.9 2.1 6 .55z" id="bU"/><path fill="url(#L)" d="M685 825.1l.55 1.25 8 11.65 8.65 15.2.4 1.5 8.15 13.5.3 1.05 16.4 29.95v-.15q3.5.6 6.3-1.55 2.85-2.25 2.5-5.75l-8.65-14.35-17.4-27-11.85-16.35L685 825.1z" id="bV"/><path fill="url(#M)" d="M680.1 816.65l-.1.05-.05.2h-.1l-.05.3h-.1l-.05.2.3.45q3.25 4.75 8.55 13.3 17.3 27.8 38.8 68.8.15-.45.15-.9.25.1.75.1-21.5-40.75-38.75-68.7-4-6.55-8.55-13.3l-.6-.9-.05.1v.05h-.1v.1l-.05.15m74.6 63.9l.1-.8 1.05.45q-31.3-44.45-63.55-65.3-3.7-2.35-5.25-3.25-.05.1-.15.1h-.05v.05h-.05l-.45.2h-.1l-.05.1-.35.2h-.1q2.65 1.4 6 3.6 15.55 10.1 31.2 26.05 16.2 16.55 31.75 38.6m8.85-6.2l-.3-1.55h.5q-33.25-43.8-71-61.55l-2.3-1.1h-.05v.05h-.15q0 .1-.1.1l-.5.2h-.05l-.65.3 3.35 1.6q37.65 17.65 71.25 61.95m-27.5 16.1l.25.1q-24.25-41-45.55-66.3-4.4-5.15-8.7-9.65-.2.15-.95.75 4.25 4.3 8.8 9.7 21.35 25.3 46.4 67.6 0-1.25-.25-2.2m9.05-4.55l.05-1.4q.35.35.75.45-13.8-21.1-27.8-38-13.6-16.5-26.4-27.8-4.8-4.05-7.45-6.05l-.15.05-.05.1-.3.15v.05h-.15v.1l-.35.2h-.05q4.3 3.35 7.75 6.35 12.75 11.2 26.4 27.75 13.85 16.8 27.75 38.05m23.35-22.25q-.6-1.3-1.7-2.8l.45-.45q-21.25-24.8-44.95-38.9-12.8-7.65-26.75-12.55l-1.3.25h-.1l-.05.1h-.3v.05h-.25l-.1.1h-.2q14.85 4.85 28.5 13.1 24.7 14.8 46.75 41.1m-6.65-22.6q-.05-.35-.15-.5Q744.4 825.05 725 816q-9.75-4.65-21.75-8.1h-.5l-.05.1-1.3.05-.5.1h-.1l-.9.15q12.9 3.3 24.7 8.75 20.4 9.7 38 26-.2-.7-.8-2z" id="bW"/><path fill="url(#N)" d="M682.75 807.25q-1.35-.2-.7 3.15.65 3.45-.95 3.3 2.6 11.15 14.1 21.65 14.7 13.35 35.3 14.6-3.95-17-18.45-29.15-13.3-11.1-29.3-13.55z" id="bX"/><path fill="url(#O)" d="M730.4 850.6h.8l-.15-.8q-2.85-12.45-11.65-22.65-8.05-9.3-19.45-15-3.35-1.65-6.55-2.7-1.1.15-2.1.5 3.85 1.2 8.15 3.3 11 5.45 18.85 14.4 8.5 9.75 11.45 21.65-5.8-.35-11.2-1.85-4.8-1.3-10.3-3.9-10.55-5.2-18.05-14.25-6.25-7.55-8.25-14.7l-.95.9q2.25 7.3 8.6 14.85 7.6 9.05 18.2 14.3 5.25 2.6 10.45 3.95 5.9 1.6 12.15 2z" id="bY"/><path fill="#818FBD" d="M764.45 845.35q2.3 3.85 2.5 7.25.2 3.7-2.25 5.45 3.6 4.85 2.25 8.55-1.3 3.55-5.7 3.3 1.05 4.45-1.9 6.7-2.8 2.2-6.55.35-.5 3.6-3.6 5.2-3.15 1.6-6.05-.45.15 3.5-2.6 5.45-2.85 1.95-6.55.45 1.1 4-1.85 6.7-2.85 2.6-6.7 1.95-.25 3.85-5.05 6.2-5.05 2.4-8.05-.85l1.7 2.45q2.9 3.7 8.15 1.3 5.1-2.35 5.25-6.3 3.85.7 6.7-1.9 3-2.7 1.9-6.7 3.7 1.5 6.55-.5 2.75-1.95 2.55-5.45 2.95 2.1 6.1.5 3.05-1.55 3.55-5.25 3.75 1.85 6.6-.35 2.95-2.25 1.85-6.6 4.45.15 5.75-3.35 1.35-3.75-2.25-8.6 3-2.1 2.1-6.9-.85-4.45-4.4-8.6m-9.25-16.85q2.75 4.3 4.6 9.65l1 2.65 1.65 1.75-.65-1.5q-2.3-7-6.6-12.55z" id="bZ"/><path fill="url(#P)" d="M727.7 887.35q-.65-1.1-3-.65-2.3.45-5 2.2-2.65 1.7-4.15 3.75-1.45 2-.85 3.1.7 1.1 3.05.65 2.35-.5 4.95-2.25 2.65-1.7 4.1-3.75 1.45-2 .9-3.05m32.6-19.8q.6-.8.35-1.3-.25-.45-1.2-.25t-2.05.95q-1.1.7-1.65 1.5-.6.8-.35 1.3.25.45 1.2.25t2.05-.95q1.1-.75 1.65-1.5M735 879.1q-2 1.3-3.15 2.9-1.15 1.55-.7 2.4.5.85 2.3.5 1.8-.35 3.85-1.65 2.1-1.35 3.25-2.9 1.15-1.6.65-2.45-.5-.85-2.25-.5-1.8.35-3.95 1.7m13.1-6.55q-1.45 1-2.25 2.1-.8 1.15-.45 1.75.35.65 1.65.35 1.3-.25 2.8-1.25 1.45-.9 2.25-2.05t.5-1.75q-.35-.6-1.65-.35-1.3.25-2.85 1.2z" id="ca"/><path fill="#E6C4A8" d="M791.3 789.8q5.8-14.3 7.05-25.25 3.4-29.6-26.75-22.95-4.45 1-10.25 2.6-19.85 5.75-39.3 19.25-21.25 14.7-37 35.4l1.15 12.25q13.05-2.55 31.85 2.35 10.75 2.8 31.2 9.85 10.8 3.35 11.1 3.4 4.4 1.15 7 .35 2.85-.9 5.9-4.65 2.5-3.15 7.55-11.45 5.75-9.35 10.5-21.15z" id="cb"/><path fill="#CB8B5B" d="M776.55 817.8q-2.6-.9-4-1.3-22.2-7.3-42.05-11.1-27.95-5.35-45.1-2.25l.15 1.3q16.9-3.1 44.75 2.25 19.55 3.7 41.85 11 3.5 1.2 3.6 1.25l.8-1.15z" id="cc"/><path fill="#CB8B5B" d="M782.7 807.85l.65-1.15q-16.95-5.6-33.6-8.85-23.35-4.6-40.6-3.35l.15 1.3q16.9-1.25 40 3.3 16.2 3.2 33.4 8.75z" id="cd"/><path fill="#CB8B5B" d="M788.3 796.85l.5-1.15q-20.25-5.6-39.05-7.3-26.95-2.45-44.95 3.95l.35 1.25q17.8-6.3 44.4-3.9 18.6 1.65 38.75 7.15z" id="ce"/><path fill="#CB8B5B" d="M718.45 785.8l.45 1.3q17.4-6 40.1-5.45 16.45.35 33.9 4.1l.45-1.3q-17.6-3.75-34.2-4.15-23-.55-40.7 5.5z" id="cf"/><path fill="#CB8B5B" d="M767.65 772.7q-18.85 1.05-35.45 6.65l.35 1.2q16.4-5.5 35.05-6.6 14.15-.8 28.7 1 .3-.95.35-1.25-14.6-1.85-29-1z" id="cg"/><path fill="#CB8B5B" d="M718.95 779.5l.5 1.15q20.1-9.05 44-13.2 17.2-3 34.95-3.25l.1-1.3q-17.55.15-35.15 3.2-24.05 4.25-44.4 13.4z" id="ch"/><path fill="#CB8B5B" d="M725.5 770.05l.45 1.2q19-7.95 40.45-13.15 16-3.85 31.55-5.75-.3-.9-.35-1.3-15.7 1.95-31.6 5.8-21.5 5.2-40.5 13.2z" id="ci"/><path fill="#F3E3D6" d="M789 789.65q5.8-14.15 7.05-24.95 3.45-29.25-26.7-22.65-5.4 1.2-10.2 2.6-19.85 5.75-39.35 19.1-21.3 14.6-37.1 35l1.15 12.1q13.1-2.5 31.85 2.3 10.75 2.75 31.2 9.65 10.8 3.3 11.05 3.35 4.4 1.1 7 .3 2.85-.85 5.9-4.6 2.5-3.05 7.6-11.25 5.75-9.3 10.55-20.95z" id="cj"/><path fill="#FFF" d="M772.15 817.7l1.45.45q.45-.75.75-1.1l-1.8-.55q-23.1-7.6-43.45-11.35-28.9-5.35-45.9-1.55l.1 1.3q16.75-3.8 45.55 1.55 20.1 3.7 43.3 11.25z" id="ck"/><path fill="#FFF" d="M780.5 807.1l.65-1.15q-17.15-5.4-33.1-8.45-22.4-4.25-38.9-3l.15 1.3q16.25-1.2 38.35 2.95 15.8 3 32.85 8.35z" id="cl"/><path fill="#FFF" d="M786.05 796.25l.6-1.2q-20.1-5.35-38.6-6.8-25.8-2.05-43.25 4.1l.35 1.25q17.2-6.1 42.7-4.05 18.15 1.45 38.2 6.7z" id="cm"/><path fill="#FFF" d="M718.45 785.8l.45 1.3q16.85-5.8 38.55-5.5 16.05.2 33.25 3.65.35-.8.5-1.25-17.4-3.5-33.65-3.75-22-.3-39.1 5.55z" id="cn"/><path fill="#FFF" d="M732.2 779.35l.35 1.2q15.8-5.25 33.55-6.45 13.85-.9 27.95.65l.35-1.3q-14.3-1.6-28.25-.65-18 1.2-33.95 6.55z" id="co"/><path fill="#FFF" d="M718.95 779.5l.5 1.15q19.4-8.75 42.3-12.9 17-3.1 34.3-3.45l.15-1.3q-17.5.35-34.55 3.45-23.15 4.2-42.7 13.05z" id="cp"/><path fill="#FFF" d="M725.5 770.05l.45 1.2q18.25-7.65 38.8-12.75 15.5-3.85 30.9-5.9l-.35-1.3q-15.55 2.1-31 5.95-20.6 5.1-38.8 12.8z" id="cq"/><path fill="url(#Q)" d="M773.55 811.2q1.75-2.8 1.45-6.45l-20.7-5.55-21.15-3.75-17.2-1.2-22.55 1.85-14.2 3.4 1.25 4.95 10.65-2.1 14.2-.5 18.4 2.55 21.55 4.6 22.95 6.55q3.6-1.6 5.35-4.35z" id="cr"/><path fill="url(#R)" d="M756.5 789.35l-14.3-1.1-13-.15-5.2 3.05-7.9 2.8 6.4.35 26.55 3.7 25.95 6.8v-.1q6.85-3.4 5.75-10.45L775.9 793l-19.4-3.65z" id="cs"/><path fill="url(#S)" d="M737.9 781.3l-8.35 6.55 14.1.4 10 .75 27.1 5.25q-.05-.05-.15-.6 5.8-3.45 4.6-10.05l-7.9-1.15-20.45-1.9-18.95.75z" id="ct"/><path fill="url(#T)" d="M737.45 781.35l22-.65 9.25.7 16.5 2.25q-.15-.6-.15-.7 5.1-3.9 3.1-9l-7-.75-16.45.25-12.4 1.3-8.95 1.85-5.9 4.75z" id="cu"/><path fill="url(#U)" d="M740.4 771.75l1.15 5.2 14.4-2.75 12.6-1.05 15.65.35 3.95.45-.2-.4q5.8-4.4 1.8-9.5l-15.55 1.05-15.55 2.35-18.25 4.3z" id="cv"/><path fill="url(#V)" d="M692.45 787.95l20.8-12.3 18-7.7 22.4-7.4 23.05-5.35 12.4-2.15-.1-.05q-.4-7.6-6.9-9.95-6.6-2.4-19.05.7l-3.55.8q-22.3 6.4-41.7 17.7-24.25 14.15-39.45 33.7l.7 2.8 13.4-10.8z" id="cw"/><path fill="url(#W)" d="M730.65 768.1l4.65 5.2 15.4-4.1 25.5-4.5 13.55-.65q2.45-3.05 2.15-6.2-.3-2.8-2.65-4.75l-20.45 3.65-22.25 5.95-15.9 5.4z" id="cx"/><path fill="url(#X)" d="M746.9 822.8q7.45 2.35 9.65 2.95 4.25.35 6.9-1.7 3.15-2.4 4.6-8.5h.15L745.25 809l-21.55-4.6-18.4-2.55-14.2.5-10.65 2.1 2.1 8.7q13.45-2.6 32.5 1.15 10 1.95 31.85 8.5z" id="cy"/><path fill="url(#Y)" d="M768 816.05l.05-.5 1-.45q-23.5-7.65-43.85-11.15-28.85-5-44.95-.3l.25 1.25q15.75-4.6 44.05.25 20 3.4 43.45 10.9z" id="cz"/><path fill="url(#Z)" d="M775.05 805.4l-.05-.7.65-.4q-16.35-5-31.5-7.75-20.4-3.65-35.7-2.55l.05 1.3q15.15-1.1 35.3 2.5 15.05 2.65 31.25 7.6z" id="cA"/><path fill="url(#aa)" d="M743.95 787.75q-23.65-1.55-39.8 4.2l.35 1.15q16.15-5.7 39.8-4.1 17.35 1.2 36.5 6.05 0-.75-.2-1.4-19.5-4.8-36.65-5.9z" id="cB"/><path fill="url(#ab)" d="M717.45 785.6l.45 1.15q15.7-5.4 35.8-5.4 15.15.05 31.55 3.1 0-.7-.2-1.3-16.5-3.05-31.7-3.05-20.1.05-35.9 5.5z" id="cC"/><path fill="url(#ac)" d="M730.85 779.2l.35 1.2q26.35-8.8 57.1-6.05-.05-.3-.35-.8l.55-.4q-30.8-2.9-57.65 6.05z" id="cD"/><path fill="url(#ad)" d="M717.95 779.35l.45 1.15q18-8.1 39.1-12.2 16.05-3.15 32.6-3.75-.2-.35-.35-.5l.55-.75q-16.75.6-32.85 3.75-21.35 4.1-39.5 12.3z" id="cE"/><path fill="url(#ae)" d="M724.3 770.2l.4 1.15q29.65-12.55 64.95-17.8-.5-.5-.65-.55l-.05-.65Q754 757.6 724.3 770.2z" id="cF"/><path fill="url(#af)" d="M730.15 787.35q1.95-1.35 13.15-10.6-3.2-3.4-6.15-6.25-3.1-2.95-3.45-2.9-9.7 1.85-29.25 13.35-19.2 11.3-26.65 19.2 7.5-2.55 18.4-4.1 5-.7 17.15-1.9 8-.75 16.8-6.8z" id="cG"/><path fill="url(#ag)" d="M718.35 772.75q-9.1 4.4-18.9 10.55-3.7 2.2-8.95 5.8-4.65 3.25-7.6 5.65-2.65 2-5.55 4.9l-1.75 1.85 2.4-.8q7.1-2.35 17.25-3.85 5.45-.85 16.45-1.9l1.65-.15q7.25-.65 15.05-5.5 4.45-2.8 12.15-9.4 1-.95 3.1-2.65l.6-.45-.5-.5q-5-5.25-8.3-8.2l-.95-.8q-.5-.45-.85-.35h-.05q-5.5 1.05-15.25 5.8m-27.25 17.4q4.8-3.25 8.95-5.8 9.6-6 18.7-10.4 9.6-4.65 15.05-5.8.05 0 0 .15.05.05.85.75 3.2 2.75 7.8 7.6l-2.6 2.25q-7.5 6.45-11.95 9.25-7.65 4.75-14.65 5.35l-2.05.25h-.1q-9.85.95-15 1.65-9.3 1.35-16 3.3 1.45-1.35 3.5-2.95 3.1-2.5 7.5-5.6z" id="cH"/><path fill="#4E68A3" d="M719.25 775.75q-1 .85-.75 2.7t1.6 3.55q1.35 1.7 3.05 2.3 1.65.55 2.65-.3 1-.9.75-2.75-.25-1.9-1.6-3.55-1.35-1.75-3.05-2.3-1.65-.6-2.65.35z" id="cI"/><path fill="#45629E" d="M736.7 768.55q-1.25 1.05-.95 3.3.3 2.25 1.95 4.3 1.6 2.05 3.65 2.8 2 .7 3.15-.4 1.2-1.1.95-3.35-.3-2.25-1.95-4.3-1.6-2.05-3.6-2.75-2.05-.7-3.2.4z" id="cJ"/><path fill="#7080B3" d="M749.15 791.55q-.95-.7-1.8-.55-.95.15-1.25 1.1-.35.95.1 2.15.5 1.15 1.4 1.85.95.7 1.8.5.95-.15 1.25-1.1.35-.95-.1-2.15-.5-1.15-1.4-1.8z" id="cK"/><path fill="#7080B3" d="M751.95 782.65q-.95.15-1.25 1.1-.35.95.15 2.05.45 1.2 1.4 1.9.95.75 1.8.55.9-.2 1.25-1.15.3-.95-.1-2.1-.45-1.15-1.4-1.85-1-.7-1.85-.5z" id="cL"/><path fill="#7080B3" d="M760.05 771.9q-.85.2-1.25 1.05-.45.85-.1 1.9.35 1.05 1.2 1.7.9.65 1.75.5.95-.2 1.3-1.1.4-.85.1-1.95-.35-1-1.2-1.65-.85-.6-1.8-.45z" id="cM"/><path fill="#7080B3" d="M758.4 762.55q-1.1.2-1.6 1.3t-.1 2.45q.4 1.3 1.5 2.1 1.05.75 2.15.55 1.15-.2 1.65-1.3t.1-2.45q-.35-1.25-1.5-2.05-1.1-.8-2.2-.6z" id="cN"/><path fill="#7080B3" d="M752.75 755.2q-.7.2-1 .8-.3.6-.05 1.35.2.8.9 1.25.6.45 1.3.35.65-.1.95-.75.3-.65.05-1.4-.25-.75-.9-1.25-.6-.45-1.25-.35z" id="cO"/><path fill="url(#ah)" d="M682.4 812.75l.15.4q5.862-1.086 12.55-1.05-7.056-.225-12.7.65m104.4-59.9q2.55 1.9 2.9 4.8.35 3.2-2.2 6.35 4.15 5.1-1.7 9.45 2.25 5.45-2.95 9.4 1.75 7.1-4.5 10.65 1.6 7.6-5.6 11.05.75 7.5-6.85 10.95-1.3 5.35-3.9 7.8-2.25 2.15-5.75 2.4l.3.05q4.25.35 6.9-1.7 3.15-2.4 4.6-8.5 3.7-1.6 5.45-4.35 1.8-2.8 1.5-6.5 7.15-3.5 5.6-11.05 6.15-3.55 4.45-10.7 5.2-4.1 2.9-9.4 5.85-4.4 1.8-9.5 2.5-3.1 2.15-6.3-.35-2.9-2.9-4.75-.55-10.95-13.6-10.95 10.95.85 11.4 10.8z" id="cP"/><path fill="url(#ai)" d="M763.05 815.85q-.5-.5-1.7.2-1.25.65-2.45 2.1-1.15 1.4-1.65 2.75t0 1.85q.5.4 1.7-.25 1.25-.7 2.4-2.05 1.2-1.4 1.7-2.75t0-1.85z" id="cQ"/><path fill="url(#aj)" d="M770.25 807.8q.25-1.15-.25-1.45-.4-.35-1.35.35-.9.75-1.65 2-.8 1.3-1.05 2.5-.25 1.15.25 1.45.4.35 1.35-.35.9-.75 1.65-2 .85-1.35 1.05-2.5z" id="cR"/><path fill="url(#ak)" d="M776.4 795.95q-.4-.25-1.15.4-.75.65-1.4 1.85-.65 1.1-.8 2.15-.15 1.05.25 1.3t1.2-.4q.75-.65 1.35-1.85.65-1.15.8-2.15.2-1.05-.25-1.3z" id="cS"/><path fill="url(#al)" d="M781.1 786.15q-.4-.2-1 .35-.65.55-1.15 1.55-.55.95-.7 1.85-.15.8.2 1.05t1-.3q.6-.55 1.15-1.55.55-1.05.7-1.85.15-.9-.2-1.1z" id="cT"/><path fill="url(#am)" d="M784.5 776.15q-.35-.15-.8.4-.45.55-.85 1.5-.4.9-.45 1.65-.05.75.3.95.3.15.8-.4.55-.55.9-1.5.35-.9.4-1.65 0-.75-.3-.95z" id="cU"/><path fill="url(#an)" d="M786.8 766.75q-.25-.1-.6.45t-.5 1.35q-.1.8 0 1.4.1.6.35.65.75.25 1.1-1.8.15-.8.05-1.4-.1-.6-.4-.65z" id="cV"/><path fill="#373535" d="M675.05 767.4l.95-.6-32.15-53.4-.9.55 32.1 53.45z" id="cW"/><path fill="#373535" d="M642.05 713.45q1.65 1.9 3.6 4.1-.35-.85-1.65-5.25-1.15-3.95-2-5.7-.5-1.2-1.35-1.95-1.15-1-2.2-.4-.7.35-.75 1.45-.1 1 .25 1.9.85 2.1 4.1 5.85z" id="cX"/><path fill="#373535" d="M716.25 713.95l-1.05-.55-32.1 53.4.95.6 32.2-53.45z" id="cY"/><path fill="#373535" d="M713.4 717.55q2-2.2 3.65-4.1 3.25-3.7 4.05-5.85.4-.9.35-1.9-.1-1.1-.75-1.45-1.05-.6-2.2.4-.9.75-1.4 1.95-.85 1.7-2 5.7-1.3 4.3-1.7 5.25z" id="cZ"/><path fill="#AF867D" d="M683.9 771.7q.35-5.35-.45-10.75-.8-5.1-2.45-8.85v13.25l2.9 6.35z" id="da"/><path fill="#AF867D" d="M675.7 760.95q-.8 5.45-.5 10.75l2.85-6.35V752.1q-1.55 3.8-2.35 8.85z" id="db"/><path fill="#373535" d="M683.1 776.85q1.25 1.2 2.95 1.2 1.7 0 2.9-1.2 1.2-1.25 1.2-2.9 0-1.7-1.2-2.95-1.2-1.25-2.9-1.25T683.1 771q-1.2 1.2-1.2 2.95 0 1.65 1.2 2.9z" id="dc"/><path fill="url(#ao)" d="M688.45 771.5q-.95-1-2.4-1t-2.45 1q-1 1-1 2.45 0 1.4 1 2.35 1 1 2.45 1 1.4 0 2.4-1 1-.95 1-2.35 0-1.45-1-2.45z" id="dd"/><path fill="#373535" d="M673.1 769.75q-1.7 0-2.95 1.25-1.25 1.25-1.25 2.95 0 1.65 1.25 2.9 1.25 1.2 2.95 1.2 1.7 0 2.9-1.2 1.2-1.25 1.2-2.9 0-1.7-1.2-2.95-1.2-1.25-2.9-1.25z" id="de"/><path fill="url(#ap)" d="M673.1 770.5q-1.45 0-2.45 1-1 1-1 2.45 0 1.4 1 2.35 1 1 2.45 1 1.4 0 2.4-1 1-.95 1-2.35 0-1.45-1-2.45-1-1-2.4-1z" id="df"/><path fill="#AF867D" d="M670.6 772.85q0 .85.85.85t.85-.85q0-.85-.85-.85t-.85.85z" id="dg"/><path fill="#AF867D" d="M686.8 772.85q0 .85.85.85t.85-.85q0-.85-.85-.85t-.85.85z" id="dh"/><path fill="url(#aq)" d="M684.55 766.1q-1.3-1.3-3.15-1.3h-3.7q-1.85 0-3.1 1.3-1.3 1.3-1.3 3.15v9.7q0 1.85 1.3 3.15 1.25 1.35 3.1 1.35h3.7q1.85 0 3.15-1.35 1.3-1.3 1.3-3.15v-9.7q0-1.85-1.3-3.15z" id="di"/><path fill="url(#ar)" d="M685.4 827.45h-12.5q-5.65 26.9 0 49.1.7 2.75 2.15 4.35 1.7 1.9 4.1 1.9 4.3 0 6.25-6.25 7.3-23.85 0-49.1z" id="dj"/><path fill="url(#as)" d="M680.35 824.6l-3.95-.1q-2.75 14.1-1.8 32.6.9 18.55 4.6 23.2-3.15-4.75-2.15-26.7.9-19.85 3.3-29z" id="dk"/><path fill="url(#at)" d="M679.6 777.75q-6.35 0-10.85 7.75t-4.5 18.65q0 11 4.5 18.75t10.85 7.75q6.3 0 10.8-7.75 4.5-7.8 4.5-18.75 0-10.85-4.5-18.65-4.5-7.75-10.8-7.75z" id="dl"/><path fill="url(#au)" d="M672.7 823.5q1.55 2.55 2.65 2.25.85-.15 1.15-.65.55-1-.3-3.45-2.05-5.55-2.45-7.05-2.75-9.2-1.85-19.2 1.05-11.95 7.3-16.15-8.7 3.35-10.65 16.25-1.6 10.85 1.8 22.55.95 3.15 2.35 5.45z" id="dm"/></defs><use xlink:href="#av"/><use xlink:href="#aw" transform="translate(-667.87 -781.158) scale(1.19177)"/><use xlink:href="#ax" transform="translate(-667.87 -781.158) scale(1.19177)"/><use xlink:href="#ay" transform="translate(-667.87 -781.158) scale(1.19177)"/><use xlink:href="#az" transform="translate(-667.87 -781.158) scale(1.19177)"/><use xlink:href="#aA" transform="translate(-667.87 -781.158) scale(1.19177)"/><use xlink:href="#aB" transform="translate(-667.87 -781.158) scale(1.19177)"/><use xlink:href="#aC" transform="translate(-667.87 -781.158) scale(1.19177)"/><use xlink:href="#aD" transform="translate(-667.87 -781.158) scale(1.19177)"/><use xlink:href="#aE" transform="translate(-667.87 -781.158) scale(1.19177)"/><use xlink:href="#aF" transform="translate(-667.87 -781.158) scale(1.19177)"/><use xlink:href="#aG" transform="translate(-667.87 -781.158) scale(1.19177)"/><use xlink:href="#aH" transform="translate(-667.87 -781.158) scale(1.19177)"/><use xlink:href="#aI" transform="translate(-667.87 -781.158) scale(1.19177)"/><use xlink:href="#aJ" transform="translate(-667.87 -781.158) scale(1.19177)"/><use xlink:href="#aK" transform="translate(-667.87 -781.158) scale(1.19177)"/><use xlink:href="#aL" transform="translate(-667.87 -781.158) scale(1.19177)"/><use xlink:href="#aM" transform="translate(-667.87 -781.158) scale(1.19177)"/><use xlink:href="#aN" transform="translate(-667.87 -781.158) scale(1.19177)"/><use xlink:href="#aO" transform="translate(-667.87 -781.158) scale(1.19177)"/><use xlink:href="#aP" transform="translate(-667.87 -781.158) scale(1.19177)"/><use xlink:href="#aQ" transform="translate(-667.87 -781.158) scale(1.19177)"/><use xlink:href="#aR" transform="translate(-667.87 -781.158) scale(1.19177)"/><use xlink:href="#aS" transform="translate(-667.87 -781.158) scale(1.19177)"/><use xlink:href="#aT" transform="translate(-667.87 -781.158) scale(1.19177)"/><use xlink:href="#aU" transform="translate(-667.87 -781.158) scale(1.19177)"/><use xlink:href="#aV" transform="translate(-667.87 -781.158) scale(1.19177)"/><use xlink:href="#aW" transform="translate(-667.87 -781.158) scale(1.19177)"/><use xlink:href="#aX" transform="translate(-667.87 -781.158) scale(1.19177)"/><use xlink:href="#aY" transform="translate(-667.87 -781.158) scale(1.19177)"/><use xlink:href="#aZ" transform="translate(-667.87 -781.158) scale(1.19177)"/><use xlink:href="#ba" transform="translate(-667.87 -781.158) scale(1.19177)"/><use xlink:href="#bb" transform="translate(-667.87 -781.158) scale(1.19177)"/><use xlink:href="#bc" transform="translate(-667.87 -781.158) scale(1.19177)"/><use xlink:href="#bd" transform="translate(-667.87 -781.158) scale(1.19177)"/><use xlink:href="#be" transform="translate(-667.87 -781.158) scale(1.19177)"/><use xlink:href="#bf" transform="translate(-667.87 -781.158) scale(1.19177)"/><use xlink:href="#bg" transform="translate(-667.87 -781.158) scale(1.19177)"/><use xlink:href="#bh" transform="translate(-667.87 -781.158) scale(1.19177)"/><use xlink:href="#bi" transform="translate(-667.87 -781.158) scale(1.19177)"/><use xlink:href="#bj" transform="translate(-667.87 -781.158) scale(1.19177)"/><use xlink:href="#bk" transform="translate(-667.87 -781.158) scale(1.19177)"/><use xlink:href="#bl" transform="translate(-667.87 -781.158) scale(1.19177)"/><use xlink:href="#bm" transform="translate(-667.87 -781.158) scale(1.19177)"/><use xlink:href="#bn" transform="translate(-667.87 -781.158) scale(1.19177)"/><use xlink:href="#bo" transform="translate(-667.87 -781.158) scale(1.19177)"/><use xlink:href="#bp" transform="translate(-667.87 -781.158) scale(1.19177)"/><use xlink:href="#bq" transform="translate(-667.87 -781.158) scale(1.19177)"/><use xlink:href="#br" transform="translate(-667.87 -781.158) scale(1.19177)"/><use xlink:href="#bs" transform="translate(-667.87 -781.158) scale(1.19177)"/><use xlink:href="#bt" transform="translate(-667.87 -781.158) scale(1.19177)"/><use xlink:href="#bu" transform="translate(-667.87 -781.158) scale(1.19177)"/><use xlink:href="#bv" transform="translate(-667.87 -781.158) scale(1.19177)"/><use xlink:href="#bw" transform="translate(-667.87 -781.158) scale(1.19177)"/><use xlink:href="#bx" transform="translate(-667.87 -781.158) scale(1.19177)"/><use xlink:href="#by" transform="translate(-667.87 -781.158) scale(1.19177)"/><use xlink:href="#bz" transform="translate(-667.87 -781.158) scale(1.19177)"/><use xlink:href="#bA" transform="translate(-667.87 -781.158) scale(1.19177)"/><use xlink:href="#bB" transform="translate(-667.87 -781.158) scale(1.19177)"/><use xlink:href="#bC" transform="translate(-667.87 -781.158) scale(1.19177)"/><use xlink:href="#bD" transform="translate(-667.87 -781.158) scale(1.19177)"/><use xlink:href="#bE" transform="translate(-667.87 -781.158) scale(1.19177)"/><use xlink:href="#bF" transform="translate(-667.87 -781.158) scale(1.19177)"/><use xlink:href="#bG" transform="translate(-667.87 -781.158) scale(1.19177)"/><use xlink:href="#bH" transform="translate(-667.87 -781.158) scale(1.19177)"/><use xlink:href="#bI" transform="translate(-667.87 -781.158) scale(1.19177)"/><use xlink:href="#bJ" transform="translate(-667.87 -781.158) scale(1.19177)"/><use xlink:href="#bK" transform="translate(-667.87 -781.158) scale(1.19177)"/><use xlink:href="#bL" transform="translate(-667.87 -781.158) scale(1.19177)"/><use xlink:href="#bM" transform="translate(-667.87 -781.158) scale(1.19177)"/><use xlink:href="#bN" transform="translate(-667.87 -781.158) scale(1.19177)"/><use xlink:href="#bO" transform="translate(-667.87 -781.158) scale(1.19177)"/><use xlink:href="#bP" transform="translate(-667.87 -781.158) scale(1.19177)"/><use xlink:href="#bQ" transform="translate(-667.87 -781.158) scale(1.19177)"/><use xlink:href="#bR" transform="translate(-667.87 -781.158) scale(1.19177)"/><use xlink:href="#bS" transform="translate(-667.87 -781.158) scale(1.19177)"/><use xlink:href="#bT" transform="translate(-667.87 -781.158) scale(1.19177)"/><use xlink:href="#bU" transform="translate(-667.87 -781.158) scale(1.19177)"/><use xlink:href="#bV" transform="translate(-667.87 -781.158) scale(1.19177)"/><use xlink:href="#bW" transform="translate(-667.87 -781.158) scale(1.19177)"/><use xlink:href="#bX" transform="translate(-667.87 -781.158) scale(1.19177)"/><use xlink:href="#bY" transform="translate(-667.87 -781.158) scale(1.19177)"/><use xlink:href="#bZ" transform="translate(-667.87 -781.158) scale(1.19177)"/><use xlink:href="#ca" transform="translate(-667.87 -781.158) scale(1.19177)"/><use xlink:href="#cb" transform="translate(-667.87 -781.158) scale(1.19177)"/><use xlink:href="#cc" transform="translate(-667.87 -781.158) scale(1.19177)"/><use xlink:href="#cd" transform="translate(-667.87 -781.158) scale(1.19177)"/><use xlink:href="#ce" transform="translate(-667.87 -781.158) scale(1.19177)"/><use xlink:href="#cf" transform="translate(-667.87 -781.158) scale(1.19177)"/><use xlink:href="#cg" transform="translate(-667.87 -781.158) scale(1.19177)"/><use xlink:href="#ch" transform="translate(-667.87 -781.158) scale(1.19177)"/><use xlink:href="#ci" transform="translate(-667.87 -781.158) scale(1.19177)"/><use xlink:href="#cj" transform="translate(-667.87 -781.158) scale(1.19177)"/><use xlink:href="#ck" transform="translate(-667.87 -781.158) scale(1.19177)"/><use xlink:href="#cl" transform="translate(-667.87 -781.158) scale(1.19177)"/><use xlink:href="#cm" transform="translate(-667.87 -781.158) scale(1.19177)"/><use xlink:href="#cn" transform="translate(-667.87 -781.158) scale(1.19177)"/><use xlink:href="#co" transform="translate(-667.87 -781.158) scale(1.19177)"/><use xlink:href="#cp" transform="translate(-667.87 -781.158) scale(1.19177)"/><use xlink:href="#cq" transform="translate(-667.87 -781.158) scale(1.19177)"/><use xlink:href="#cr" transform="translate(-667.87 -781.158) scale(1.19177)"/><use xlink:href="#cs" transform="translate(-667.87 -781.158) scale(1.19177)"/><use xlink:href="#ct" transform="translate(-667.87 -781.158) scale(1.19177)"/><use xlink:href="#cu" transform="translate(-667.87 -781.158) scale(1.19177)"/><use xlink:href="#cv" transform="translate(-667.87 -781.158) scale(1.19177)"/><use xlink:href="#cw" transform="translate(-667.87 -781.158) scale(1.19177)"/><use xlink:href="#cx" transform="translate(-667.87 -781.158) scale(1.19177)"/><use xlink:href="#cy" transform="translate(-667.87 -781.158) scale(1.19177)"/><use xlink:href="#cz" transform="translate(-667.87 -781.158) scale(1.19177)"/><use xlink:href="#cA" transform="translate(-667.87 -781.158) scale(1.19177)"/><use xlink:href="#cB" transform="translate(-667.87 -781.158) scale(1.19177)"/><use xlink:href="#cC" transform="translate(-667.87 -781.158) scale(1.19177)"/><use xlink:href="#cD" transform="translate(-667.87 -781.158) scale(1.19177)"/><use xlink:href="#cE" transform="translate(-667.87 -781.158) scale(1.19177)"/><use xlink:href="#cF" transform="translate(-667.87 -781.158) scale(1.19177)"/><use xlink:href="#cG" transform="translate(-667.87 -781.158) scale(1.19177)"/><use xlink:href="#cH" transform="translate(-667.87 -781.158) scale(1.19177)"/><use xlink:href="#cI" transform="translate(-667.87 -781.158) scale(1.19177)"/><use xlink:href="#cJ" transform="translate(-667.87 -781.158) scale(1.19177)"/><use xlink:href="#cK" transform="translate(-667.87 -781.158) scale(1.19177)"/><use xlink:href="#cL" transform="translate(-667.87 -781.158) scale(1.19177)"/><use xlink:href="#cM" transform="translate(-667.87 -781.158) scale(1.19177)"/><use xlink:href="#cN" transform="translate(-667.87 -781.158) scale(1.19177)"/><use xlink:href="#cO" transform="translate(-667.87 -781.158) scale(1.19177)"/><use xlink:href="#cP" transform="translate(-667.87 -781.158) scale(1.19177)"/><use xlink:href="#cQ" transform="translate(-667.87 -781.158) scale(1.19177)"/><use xlink:href="#cR" transform="translate(-667.87 -781.158) scale(1.19177)"/><use xlink:href="#cS" transform="translate(-667.87 -781.158) scale(1.19177)"/><use xlink:href="#cT" transform="translate(-667.87 -781.158) scale(1.19177)"/><use xlink:href="#cU" transform="translate(-667.87 -781.158) scale(1.19177)"/><use xlink:href="#cV" transform="translate(-667.87 -781.158) scale(1.19177)"/><use xlink:href="#cW" transform="translate(-667.87 -781.158) scale(1.19177)"/><use xlink:href="#cX" transform="translate(-667.87 -781.158) scale(1.19177)"/><use xlink:href="#cY" transform="translate(-667.87 -781.158) scale(1.19177)"/><use xlink:href="#cZ" transform="translate(-667.87 -781.158) scale(1.19177)"/><use xlink:href="#da" transform="translate(-667.87 -781.158) scale(1.19177)"/><use xlink:href="#db" transform="translate(-667.87 -781.158) scale(1.19177)"/><use xlink:href="#dc" transform="translate(-667.87 -781.158) scale(1.19177)"/><use xlink:href="#dd" transform="translate(-667.87 -781.158) scale(1.19177)"/><use xlink:href="#de" transform="translate(-667.87 -781.158) scale(1.19177)"/><use xlink:href="#df" transform="translate(-667.87 -781.158) scale(1.19177)"/><use xlink:href="#dg" transform="translate(-667.87 -781.158) scale(1.19177)"/><use xlink:href="#dh" transform="translate(-667.87 -781.158) scale(1.19177)"/><use xlink:href="#di" transform="translate(-667.87 -781.158) scale(1.19177)"/><use xlink:href="#dj" transform="translate(-667.87 -781.158) scale(1.19177)"/><use xlink:href="#dk" transform="translate(-667.87 -781.158) scale(1.19177)"/><use xlink:href="#dl" transform="translate(-667.87 -781.158) scale(1.19177)"/><use xlink:href="#dm" transform="translate(-667.87 -781.158) scale(1.19177)"/></svg>