<svg xmlns="http://www.w3.org/2000/svg" xmlns:xlink="http://www.w3.org/1999/xlink" preserveAspectRatio="none" width="284" height="320"><defs><linearGradient id="a" gradientUnits="userSpaceOnUse" x1="479.85" y1="501.525" x2="479.85" y2="552.375" spreadMethod="pad"><stop offset="0%" stop-color="#C57C2F"/><stop offset="100%" stop-color="#F1B82D"/></linearGradient><linearGradient id="b" gradientUnits="userSpaceOnUse" x1="488.375" y1="580.425" x2="441.025" y2="627.775" spreadMethod="pad"><stop offset="0%" stop-color="#E7A92F"/><stop offset="100%" stop-color="#FFD44F"/></linearGradient><linearGradient id="c" gradientUnits="userSpaceOnUse" x1="432.225" y1="589.3" x2="499.275" y2="629.6" spreadMethod="pad"><stop offset="0%" stop-color="#F6BF2D"/><stop offset="25.098%" stop-color="#FFD143"/><stop offset="100%" stop-color="#FFF2C0"/></linearGradient><linearGradient id="d" gradientUnits="userSpaceOnUse" x1="446.387" y1="588.725" x2="498.213" y2="635.375" spreadMethod="pad"><stop offset="0%" stop-color="#F6BF2D"/><stop offset="100%" stop-color="#FFDF80"/></linearGradient><linearGradient id="e" gradientUnits="userSpaceOnUse" x1="436.4" y1="559.15" x2="510.6" y2="524.55" spreadMethod="pad"><stop offset="0%" stop-color="#F6BF2D"/><stop offset="25.098%" stop-color="#FFD143"/><stop offset="100%" stop-color="#FFF2C0"/></linearGradient><linearGradient id="f" gradientUnits="userSpaceOnUse" x1="474.762" y1="509.837" x2="520.638" y2="502.563" spreadMethod="pad"><stop offset="0%" stop-color="#F6BF2D"/><stop offset="100%" stop-color="#FFDF80"/></linearGradient><linearGradient id="g" gradientUnits="userSpaceOnUse" x1="479.125" y1="543.563" x2="525.975" y2="536.138" spreadMethod="pad"><stop offset="0%" stop-color="#F6BF2D"/><stop offset="100%" stop-color="#FFDF80"/></linearGradient><linearGradient id="h" gradientUnits="userSpaceOnUse" x1="473.363" y1="500.887" x2="519.337" y2="493.613" spreadMethod="pad"><stop offset="0%" stop-color="#F6BF2D"/><stop offset="100%" stop-color="#FFDF80"/></linearGradient><linearGradient id="i" gradientUnits="userSpaceOnUse" x1="475.9" y1="516.938" x2="522.5" y2="509.563" spreadMethod="pad"><stop offset="0%" stop-color="#F6BF2D"/><stop offset="100%" stop-color="#FFDF80"/></linearGradient><linearGradient id="j" gradientUnits="userSpaceOnUse" x1="477.063" y1="523.362" x2="522.737" y2="516.138" spreadMethod="pad"><stop offset="0%" stop-color="#F6BF2D"/><stop offset="100%" stop-color="#FFDF80"/></linearGradient><linearGradient id="k" gradientUnits="userSpaceOnUse" x1="477.875" y1="529.575" x2="524.225" y2="522.225" spreadMethod="pad"><stop offset="0%" stop-color="#F6BF2D"/><stop offset="100%" stop-color="#FFDF80"/></linearGradient><linearGradient id="l" gradientUnits="userSpaceOnUse" x1="479.138" y1="536.2" x2="524.563" y2="529" spreadMethod="pad"><stop offset="0%" stop-color="#F6BF2D"/><stop offset="100%" stop-color="#FFDF80"/></linearGradient><linearGradient id="m" gradientUnits="userSpaceOnUse" x1="481.337" y1="550.087" x2="526.663" y2="542.913" spreadMethod="pad"><stop offset="0%" stop-color="#F6BF2D"/><stop offset="100%" stop-color="#FFDF80"/></linearGradient><linearGradient id="n" gradientUnits="userSpaceOnUse" x1="482.313" y1="556.35" x2="527.688" y2="549.15" spreadMethod="pad"><stop offset="0%" stop-color="#F6BF2D"/><stop offset="100%" stop-color="#FFDF80"/></linearGradient><linearGradient id="o" gradientUnits="userSpaceOnUse" x1="484.037" y1="568.325" x2="529.862" y2="561.075" spreadMethod="pad"><stop offset="0%" stop-color="#F6BF2D"/><stop offset="100%" stop-color="#FFDF80"/></linearGradient><linearGradient id="p" gradientUnits="userSpaceOnUse" x1="488.162" y1="547.588" x2="433.738" y2="566.313" spreadMethod="pad"><stop offset="0%" stop-color="#FFCC2A"/><stop offset="100%" stop-color="#CE8730"/></linearGradient><linearGradient id="q" gradientUnits="userSpaceOnUse" x1="437.538" y1="563.75" x2="488.563" y2="548.15" spreadMethod="pad"><stop offset="0%" stop-color="#BB722F"/><stop offset="100%" stop-color="#F1B82D"/></linearGradient><linearGradient id="r" gradientUnits="userSpaceOnUse" x1="478.337" y1="519.4" x2="432.462" y2="557.9" spreadMethod="pad"><stop offset="0%" stop-color="#FFD143"/><stop offset="100%" stop-color="#EEB32E"/></linearGradient><linearGradient id="s" gradientUnits="userSpaceOnUse" x1="447.525" y1="557.65" x2="465.275" y2="525.65" spreadMethod="pad"><stop offset="0%" stop-color="#BB722F"/><stop offset="100%" stop-color="#F1B82D"/></linearGradient><linearGradient id="t" gradientUnits="userSpaceOnUse" x1="450.5" y1="572.2" x2="479.4" y2="572.7" spreadMethod="pad"><stop offset="0%" stop-color="#A9632C"/><stop offset="100%" stop-color="#DE9D30"/></linearGradient><linearGradient id="u" gradientUnits="userSpaceOnUse" x1="506.9" y1="492.537" x2="506.9" y2="510.863" spreadMethod="pad"><stop offset="0%" stop-color="#C57C2F"/><stop offset="100%" stop-color="#F1B82D"/></linearGradient><linearGradient id="v" gradientUnits="userSpaceOnUse" x1="359.15" y1="504.525" x2="359.15" y2="553.375" spreadMethod="pad"><stop offset="0%" stop-color="#C57C2F"/><stop offset="100%" stop-color="#F1B82D"/></linearGradient><linearGradient id="w" gradientUnits="userSpaceOnUse" x1="347.137" y1="578" x2="397.463" y2="626.6" spreadMethod="pad"><stop offset="0%" stop-color="#E7A92F"/><stop offset="100%" stop-color="#FFD44F"/></linearGradient><linearGradient id="x" gradientUnits="userSpaceOnUse" x1="406.425" y1="588.425" x2="340.075" y2="629.875" spreadMethod="pad"><stop offset="0%" stop-color="#F6BF2D"/><stop offset="25.098%" stop-color="#FFD143"/><stop offset="100%" stop-color="#FFF2C0"/></linearGradient><linearGradient id="y" gradientUnits="userSpaceOnUse" x1="392" y1="588.063" x2="341" y2="635.638" spreadMethod="pad"><stop offset="0%" stop-color="#F6BF2D"/><stop offset="100%" stop-color="#FFDF80"/></linearGradient><linearGradient id="z" gradientUnits="userSpaceOnUse" x1="402.15" y1="560.2" x2="328.55" y2="524.3" spreadMethod="pad"><stop offset="0%" stop-color="#F6BF2D"/><stop offset="25.098%" stop-color="#FFD143"/><stop offset="100%" stop-color="#FFF2C0"/></linearGradient><linearGradient id="A" gradientUnits="userSpaceOnUse" x1="364.625" y1="510.288" x2="318.875" y2="502.212" spreadMethod="pad"><stop offset="0%" stop-color="#F6BF2D"/><stop offset="100%" stop-color="#FFDF80"/></linearGradient><linearGradient id="B" gradientUnits="userSpaceOnUse" x1="359.7" y1="543.912" x2="313" y2="535.688" spreadMethod="pad"><stop offset="0%" stop-color="#F6BF2D"/><stop offset="100%" stop-color="#FFDF80"/></linearGradient><linearGradient id="C" gradientUnits="userSpaceOnUse" x1="366.225" y1="501.388" x2="320.375" y2="493.313" spreadMethod="pad"><stop offset="0%" stop-color="#F6BF2D"/><stop offset="100%" stop-color="#FFDF80"/></linearGradient><linearGradient id="D" gradientUnits="userSpaceOnUse" x1="363.375" y1="517.3" x2="316.925" y2="509.1" spreadMethod="pad"><stop offset="0%" stop-color="#F6BF2D"/><stop offset="100%" stop-color="#FFDF80"/></linearGradient><linearGradient id="E" gradientUnits="userSpaceOnUse" x1="362.125" y1="523.563" x2="316.575" y2="515.537" spreadMethod="pad"><stop offset="0%" stop-color="#F6BF2D"/><stop offset="100%" stop-color="#FFDF80"/></linearGradient><linearGradient id="F" gradientUnits="userSpaceOnUse" x1="361.188" y1="529.675" x2="315.013" y2="521.525" spreadMethod="pad"><stop offset="0%" stop-color="#F6BF2D"/><stop offset="100%" stop-color="#FFDF80"/></linearGradient><linearGradient id="G" gradientUnits="userSpaceOnUse" x1="359.8" y1="536.65" x2="314.5" y2="528.65" spreadMethod="pad"><stop offset="0%" stop-color="#F6BF2D"/><stop offset="100%" stop-color="#FFDF80"/></linearGradient><linearGradient id="H" gradientUnits="userSpaceOnUse" x1="357.4" y1="550.337" x2="312.2" y2="542.363" spreadMethod="pad"><stop offset="0%" stop-color="#F6BF2D"/><stop offset="100%" stop-color="#FFDF80"/></linearGradient><linearGradient id="I" gradientUnits="userSpaceOnUse" x1="356.325" y1="556.438" x2="311.075" y2="548.463" spreadMethod="pad"><stop offset="0%" stop-color="#F6BF2D"/><stop offset="100%" stop-color="#FFDF80"/></linearGradient><linearGradient id="J" gradientUnits="userSpaceOnUse" x1="354.4" y1="568.275" x2="308.7" y2="560.225" spreadMethod="pad"><stop offset="0%" stop-color="#F6BF2D"/><stop offset="100%" stop-color="#FFDF80"/></linearGradient><linearGradient id="K" gradientUnits="userSpaceOnUse" x1="350.788" y1="547.538" x2="405.212" y2="566.262" spreadMethod="pad"><stop offset="0%" stop-color="#FFCC2A"/><stop offset="100%" stop-color="#CE8730"/></linearGradient><linearGradient id="L" gradientUnits="userSpaceOnUse" x1="401.225" y1="564.287" x2="350.475" y2="547.813" spreadMethod="pad"><stop offset="0%" stop-color="#BB722F"/><stop offset="100%" stop-color="#F1B82D"/></linearGradient><linearGradient id="M" gradientUnits="userSpaceOnUse" x1="360.425" y1="519.6" x2="406.975" y2="557.3" spreadMethod="pad"><stop offset="0%" stop-color="#FFD143"/><stop offset="100%" stop-color="#EEB32E"/></linearGradient><linearGradient id="N" gradientUnits="userSpaceOnUse" x1="391.087" y1="557.813" x2="373.913" y2="525.487" spreadMethod="pad"><stop offset="0%" stop-color="#BB722F"/><stop offset="100%" stop-color="#F1B82D"/></linearGradient><linearGradient id="O" gradientUnits="userSpaceOnUse" x1="388.387" y1="571.75" x2="359.512" y2="572.75" spreadMethod="pad"><stop offset="0%" stop-color="#A9632C"/><stop offset="100%" stop-color="#DE9D30"/></linearGradient><linearGradient id="P" gradientUnits="userSpaceOnUse" x1="332.25" y1="493.55" x2="332.25" y2="511.35" spreadMethod="pad"><stop offset="0%" stop-color="#C57C2F"/><stop offset="100%" stop-color="#F1B82D"/></linearGradient><linearGradient id="Q" gradientUnits="userSpaceOnUse" x1="377.175" y1="595.138" x2="404.925" y2="579.763" spreadMethod="pad"><stop offset="0%" stop-color="#F1B82D"/><stop offset="100%" stop-color="#E5A62F"/></linearGradient><linearGradient id="R" gradientUnits="userSpaceOnUse" x1="425.9" y1="543.5" x2="425.9" y2="538" spreadMethod="pad"><stop offset="0%" stop-color="#373535"/><stop offset="100%" stop-color="#97675E"/></linearGradient><linearGradient id="S" gradientUnits="userSpaceOnUse" x1="413.05" y1="543.5" x2="413.05" y2="538" spreadMethod="pad"><stop offset="0%" stop-color="#373535"/><stop offset="100%" stop-color="#97675E"/></linearGradient><linearGradient id="T" gradientUnits="userSpaceOnUse" x1="419.5" y1="530.538" x2="419.5" y2="538.962" spreadMethod="pad"><stop offset="0%" stop-color="#9C6C63"/><stop offset="100%" stop-color="#783F3D"/></linearGradient><linearGradient id="U" gradientUnits="userSpaceOnUse" x1="419.5" y1="598.55" x2="419.5" y2="639.95" spreadMethod="pad"><stop offset="0%" stop-color="#9C6C63"/><stop offset="100%" stop-color="#783F3D"/></linearGradient><linearGradient id="V" gradientUnits="userSpaceOnUse" x1="417.35" y1="639.525" x2="417.35" y2="592.675" spreadMethod="pad"><stop offset="0%" stop-color="#97675E"/><stop offset="100%" stop-color="#E5D8D4"/></linearGradient><linearGradient id="W" gradientUnits="userSpaceOnUse" x1="419.5" y1="548.512" x2="419.5" y2="588.087" spreadMethod="pad"><stop offset="0%" stop-color="#9C6C63"/><stop offset="100%" stop-color="#783F3D"/></linearGradient><linearGradient id="X" gradientUnits="userSpaceOnUse" x1="413.65" y1="586.538" x2="413.65" y2="547.462" spreadMethod="pad"><stop offset="0%" stop-color="#97675E"/><stop offset="100%" stop-color="#E5D8D4"/></linearGradient><path fill="#FFF" fill-opacity="0" d="M284 0H0v320h284V0z" id="Y"/><path fill="url(#a)" d="M507.3 483.65q-12 3.95-18.3 7.2-17.05 8.5-31.25 21.7-14.9 13.85-23.7 30.2-11.45 20.95 7.5 28.05 9.45 3.6 23.45 4.5 10.25.65 23.85-.15 7.95-.55 13.95-2.55 7.05-2.4 12.2-7.1 12.4-11.4 14.5-30.6 1.5-13.1-2-33.35-.95-5.65-2.55-10.25-1.7-4.95-3.75-7.4-2.15-2.55-6.2-2.2-2.5.15-7.7 1.95z" id="Z"/><path fill="url(#b)" d="M434.2 571.9q-9.95-.3-10.3 5.35-.15 2.4 1.15 7.35.8 3 3.05 10.7 6.35 23.5 12.3 35.1 9.45 18.5 23.2 22.2 8.05 2.15 19.15-2.55 9.45-4 16.05-10.3 23.7-22.6 15.9-39.4-6.9-14.85-34.2-19.65-13.95-3.05-22.8-5-16.65-3.6-23.5-3.8z" id="aa"/><path fill="url(#c)" d="M432.55 569.5q-10-.25-10.3 5.35-.15 2.45 1.15 7.4.8 3 3.05 10.75 6.45 23.9 11.8 34.6 9.1 18.1 22.9 21.75 8.05 2.2 19.15-2.5 9.4-3.95 16.05-10.3 23.7-22.55 16.15-38.5-6.6-13.95-33.95-18.8-1.9-.35-22.7-5.45-16.6-4.05-23.3-4.3z" id="ab"/><path fill="url(#d)" d="M427.35 596.5q5.3 8.15 10.25 16.85 9.3 16.55 15.1 32.2l1.35.85q-6.05-16.65-15.6-33.45-5.55-9.9-11.9-19.4.7 2.45.8 2.95m2.8-23.9l-.35.95q24.85 10.4 43.5 21.55 20.95 12.5 35.5 26.85l.5-.85q-14.8-14.5-35.55-26.8-16.1-9.8-38.2-19.4 24.8 7.35 44.9 16.5 18.75 8.5 33.3 19l.25-1.05q-14.9-10.5-33.2-18.8-16.35-7.55-36.45-13.9 23.7 4.55 43.2 11.1 13.35 4.45 24.7 9.8-.15-.35-.8-1.45-11.4-5.25-23.6-9.3-21.35-7.15-48.8-12.15l-.1.25-4.4-1.25-.2.75-4.2-1.8m-4.35-.9l-.55.8q23.85 13.3 40.85 26.2 21.05 16 34.55 33.45.4-.3.65-.7-13.35-17.35-34.6-33.5-17.25-13.15-40.9-26.25m-2.9 8.55l.5 2.1q12.25 14.25 21.3 27.35 14.3 20.6 22.1 40.3h1.1q-7.9-19.8-22.4-40.8-8.75-12.8-22.6-28.95m-.65-5.85l-.05 1.3q17.25 15.9 29.65 30.35 17.9 21.2 27.4 41.25.6-.3.9-.35-10-20.95-27.6-41.5-12.65-14.9-30.3-31.05m.85-2.45l-.5.8q21.75 15.75 36.35 29.6 20.35 19.4 31.75 38.65.25-.1.8-.5-11.55-19.5-31.8-38.8-15.95-15-36.6-29.75z" id="ac"/><path fill="#F6BF2D" d="M457.2 585.8q-10.67-7.746-28.1-11.5 14.225 25.466 41.8 28.4-4.45-10.15-13.7-16.9m-28.1-11.5q-.285-.562-.6-1.15l-10.85-5.5q.673.546 1.7 2.6 1.25 2.55 2.05 2.65 4.021.616 7.7 1.4z" id="ad"/><path fill="url(#e)" d="M521.2 492.25q-1.75-4.95-3.75-7.35-2.15-2.5-6.15-2.2-2.6.2-7.7 1.95-12.25 4.15-18.15 7.1-16.6 8.35-30.9 22.15-14.45 13.95-23.45 30.5-11.25 20.85 7.5 27.85 9.4 3.55 23.3 4.45 10.3.7 23.7-.1 7.85-.5 13.85-2.55 6.95-2.35 12.1-7.05 12.25-11.35 14.3-30.95 1.35-13.25-2.15-33.65-.95-5.6-2.5-10.15z" id="ae"/><path fill="url(#f)" d="M520.4 496.75l-.9.2q-17.5 3.75-37.05 12.3-4.8 2.2-6.85 3.25-4.7 2.4-6.2 3.25l.35.8h.1q2.9-1.7 6.1-3.25 2.75-1.4 6.85-3.15 18.65-8.35 37-12.35l.8-.2-.2-.85z" id="af"/><path fill="url(#g)" d="M525.45 539.5l.05-.95-6.5-.5q-4.65-.3-9.5-.3-12.1.05-24.7 1.75-12.05 1.55-21 4.1l.2.85q8.8-2.5 20.9-4.05 12.45-1.6 24.6-1.7 3.25 0 9.45.2.65.05 6.5.6z" id="ag"/><path fill="url(#h)" d="M505.9 485.55q-6.2 4-9.8 6.85-10.15 8.2-15.6 17.8l.65.45q5.6-9.65 15.5-17.5 5-4.1 12.3-8.3.55-.3.7-.15.2.25.75-.05l-1.1-.45q-.9.5-1.75.7-.75.15-1.65.65z" id="ah"/><path fill="url(#i)" d="M521.95 505.6l-.1-.9q-.133.088-.75.15-19.5 3.05-39.9 10.9-6.5 2.65-8.05 3.4-2.5 1.15-6.9 3.35l-.1.1.25.4.15.35h.05l-.15-.35.15.3v.05q3.55-1.95 6.9-3.35 3.35-1.6 8-3.4 9.4-3.65 19.7-6.45 10.75-2.95 20.4-4.4.5-.1.2-.1-.2-.05.15-.05z" id="ai"/><path fill="url(#j)" d="M523.4 513.95q.65-.1-.15-.15-.04-.507-.1-.8-9.864.714-21.4 3.2-10.65 2.3-20.95 5.65-4.05 1.4-8.15 2.95-3.85 1.45-7.05 2.95v.1h.05l.25.8h.05q2.85-1.4 7-3.05 4.55-1.75 8.1-2.85 10.2-3.35 20.95-5.6 11.55-2.5 21.4-3.2z" id="aj"/><path fill="url(#k)" d="M526.05 521.45q-10.35-.05-22.9 1.8-11.65 1.75-22.7 4.75-4.9 1.25-8.25 2.45-4.65 1.55-7.2 2.65l.3.8q2.85-1.2 7.15-2.6 3.7-1.2 8.2-2.45 11.1-3 22.65-4.75 12.55-1.85 22.85-1.8-.1-.3-.1-.85z" id="ak"/><path fill="url(#l)" d="M526.2 530.05q-10.4-.65-23.1.55-11.8 1.05-23.05 3.5-5.05 1.1-8.35 2-5 1.4-7.25 2.25v.2l.05.1.1.55h.05q3.05-1.1 7.2-2.2 3.35-.95 8.35-2.05 11.4-2.4 23-3.45 12.75-1.2 23-.55v-.9z" id="al"/><path fill="url(#m)" d="M523.75 546.9q-10.15-1.5-22.25-1.6-11.35-.1-22.25 1.05-4.7.45-8.55 1.05-3.8.65-7.5 1.45h-.05l.2.9q3.6-.85 7.5-1.45 4.8-.7 8.5-1.1 10.8-1.15 22.05-1.05 12.05.15 22.1 1.65l.25-.9z" id="am"/><path fill="url(#n)" d="M520.7 554.85q-9.75-1.75-21-2.35-10.7-.6-20.85-.05-4.9.25-8.65.65-3.45.4-7.55 1h-.1l.15.95q3-.6 7.55-1.1 5.3-.5 8.65-.65 10.25-.45 20.6.1 11.25.55 20.75 2.3l.45-.85z" id="an"/><path fill="url(#o)" d="M507.35 570.25l1-.75q-12.85-2.65-26.55-3.65-4.9-.3-7.3-.35-2.35-.15-6.9-.15h-.05v.95h.05q1.45-.05 6.9.05l7.3.35q13.65 1.05 25.55 3.55z" id="ao"/><path fill="url(#p)" d="M433.35 569.65q4.85-1.95 11.45-2.7 3.55-.4 11.85-.65 8.1-.2 13.55-1 7.3-1.05 13.2-3.5 8.65-3.65 12.5-9.2-8.55-8.8-23.1-9.4-13.65-.55-22.3 5.95l-16.5 5.4-5.9 9.35q1.55 3.35 5.25 5.75z" id="ap"/><path fill="url(#q)" d="M496.55 552.6l-.3-.3q-6.25-6.45-16.15-8.65-9.1-2-18.2.05-3.55.8-6.3 2-3 1.3-5.35 3h-.05l-16.5 5.4-.05.15-6.15 9.6.15.2q.7 1.6 2.1 3.25 1.65 1.75 3.3 2.75l.2.1.25-.05q4.8-1.95 11.2-2.65 3.85-.45 11.7-.65h.25q8.65-.3 13.6-1 7.3-1.05 13.25-3.55 6.05-2.4 9.95-6.1l1.5-1.55q.05-.05 1.4-1.7l.2-.3m-1.3.1l-2.45 2.8q-3.85 3.55-9.65 5.9-6 2.4-13 3.45-5 .7-13.55 1h-.2q-7.7.2-11.7.65-6.4.75-11.3 2.6-1.45-.95-2.95-2.45-1.1-1.35-1.85-2.75l5.75-9 16.25-5.25.1-.05h.05l.1-.1q2.3-1.8 5.1-2.95 3.4-1.4 6.2-1.95 8.75-2 17.5-.05 9.5 2.05 15.6 8.15z" id="aq"/><path fill="url(#r)" d="M462.5 542.65q10.3-5.5 14.05-8.5 6.75-5.45 10-13.6L480 519.4l1.45-5.4q-4.1-.55-8.45.85-3.3 1.1-7.55 3.65-12.25 7.3-22 18.1-10 11.05-16.3 24.5.5 2.75 2.35 5.2 5.8-7 15.8-13.65 6.05-4.05 17.2-10z" id="ar"/><path fill="url(#s)" d="M487 520.8l.25-.6-6.6-1.15 1.45-5.4-.6-.05q-4-.6-8.65.85-3.3 1.05-7.6 3.6-17.95 10.75-30.2 28.35-2.8 4.05-4.45 7-2.95 5.35-3.9 7.5l-.05.15v.1q.3 1.55.95 2.85.7 1.55 1.55 2.55l.35.55.45-.55q5.8-7 15.65-13.5 6.5-4.35 17.1-9.95 1.1-.6 1.25-.65 9.55-5.15 13.45-8.35 6.4-5.35 9.6-13.3m-21.25-1.9q4.15-2.55 7.4-3.5 4.1-1.35 7.7-.95l-1.45 5.4 6.5 1.05q-3.15 7.5-9.4 12.65-3.8 3.1-13 8.05-.55.3-1.2.65-11.45 6.1-17.3 10-9.65 6.45-15.4 13.25-.7-.95-1.15-1.9-.55-1.2-.8-2.45 1.25-2.7 3.8-7.25 2.45-4.2 4.4-7 12.2-17.55 29.9-28z" id="as"/><path fill="url(#t)" d="M478.05 576.95q2.55-1.2 4.1-3.65.6-.95 2.4-5-3.55 4.7-20.3 5.55-14 .75-24.35-1.1 14.15 4.85 38.15 4.2z" id="at"/><path fill="#C57C2F" d="M503.8 524.4q-1.85-1.65-4.45-1.65-1.95 0-3.5 1 2.65 1.7 2.65 4.5 0 1.3-.75 2.55-.7 1.2-1.9 1.95 1.55 1 3.5 1 2.6 0 4.45-1.6t1.85-3.9q0-2.25-1.85-3.85z" id="au"/><path fill="#C57C2F" d="M490.55 555.1q-1.2-1.05-2.9-1.05-1.4 0-2.35.65 1.75 1.05 1.75 2.95 0 1.9-1.75 2.95 1.2.65 2.35.65 1.7 0 2.9-1.05t1.2-2.55q0-1.5-1.2-2.55z" id="av"/><path fill="url(#u)" d="M503.4 487.1q-8.5 2.85-13.6 5.1 6.75-1.8 6.55 2.6 1.8-1.15 4.45-1.6 2.95-.5 5.2.3 4.75 1.55 2.7 7.55 3.8-1.35 5.45 1.45 1.45 2.45.2 4.65 3.7.4 4.35 3.65.6 2.85-.55 3.65 3.35 0 5.9 4.7-.5-6.95-2-15.5-.9-5.25-2.4-9.5-1.55-4.55-3.45-6.8-1.95-2.3-5.7-2.05-2.4.2-7.1 1.8z" id="aw"/><path fill="url(#v)" d="M317.8 483.9q-2.05 2.4-3.75 7.4-1.55 4.5-2.55 10.25-3.5 20.2-2.05 33.35 2.15 19.2 14.6 30.6 5.1 4.7 12.15 7.1 5.9 2 13.9 2.55 13.6.8 23.9.15 14-.9 23.5-4.5 18.8-7.1 7.45-28.05-8.85-16.35-23.75-30.2-14.2-13.2-31.25-21.7-6.4-3.3-18.25-7.2-5.25-1.8-7.75-1.95-4.05-.35-6.15 2.2z" id="ax"/><path fill="url(#w)" d="M404.85 571.9q-6.9.2-23.5 3.8-17.6 4.05-22.9 5-27.25 4.8-34.15 19.65-7.85 16.8 15.85 39.4 6.65 6.3 16.05 10.3 11.15 4.7 19.2 2.55 13.8-3.7 23.25-22.2 5.9-11.6 12.2-35.1 2.25-7.7 3.05-10.7 1.35-4.95 1.2-7.35-.3-5.65-10.25-5.35z" id="ay"/><path fill="url(#x)" d="M383.1 573.8q-20.85 5.1-22.7 5.45-27.35 4.85-33.95 18.8-7.5 15.95 16.25 38.5 6.65 6.35 16 10.3 11.1 4.7 19.2 2.5 13.7-3.65 22.8-21.75Q406 617 412.6 593q2.2-7.75 3-10.75 1.35-5 1.2-7.4-.3-5.6-10.3-5.35-6.75.25-23.4 4.3z" id="az"/><path fill="url(#y)" d="M384.9 646.4q.3-.15 1.35-.85 6.05-16 15.1-32.2 4.4-7.8 10.25-16.85l.8-2.95q-6.8 10.25-11.9 19.4-9.65 17.25-15.6 33.45m28.8-73.9l-.45-.8q-23.6 13.1-40.95 26.25-21.45 16.4-34.65 33.5.1.15.65.7 13.5-17.45 34.55-33.45 16.75-12.7 40.85-26.2m2.65.25l-.5-.8q-20.8 14.85-36.5 29.75-20.45 19.55-31.9 38.8.3.15.8.5 11.7-19.55 31.75-38.65 14.65-13.85 36.35-29.6m.45 2.95v-1.3q-17.5 15.9-30.4 31.05-17.7 20.75-27.6 41.5.3.05.9.35 9.65-20.25 27.4-41.25 12.8-14.9 29.7-30.35m-1.25 6.65l.6-2.1q-13.3 15.35-22.7 28.95-14.6 21.15-22.3 40.8h1q8-19.9 22.1-40.3 8.3-12.05 21.3-27.35m-10.95-7.95l-.2-.75-4.3 1.25-.1-.25q-27.3 4.95-48.9 12.15-12.2 4.05-23.6 9.3l-.8 1.45q11.65-5.4 24.7-9.8 19.55-6.55 43.2-11.1-19.7 6.2-36.45 13.9-18.4 8.3-33.15 18.8l.2 1.05q15.05-10.75 33.4-19 19.65-9 44.85-16.5-21.65 9.4-38.2 19.4-20.9 12.4-35.6 26.8l.5.85q14.65-14.45 35.6-26.85 18.35-11.05 43.45-21.55l-.4-.95-4.2 1.8z" id="aA"/><path fill="#F6BF2D" d="M409.8 574.3q-17.379 3.754-28.05 11.5-9.25 6.75-13.65 16.9 27.528-2.885 41.7-28.4m.65-1.15q-.314.588-.65 1.15 3.73-.784 7.75-1.4.9-.1 2.15-2.65.993-2.064 1.65-2.6l-10.9 5.5z" id="aB"/><path fill="url(#z)" d="M321.5 484.9q-1.95 2.45-3.65 7.35-1.6 4.6-2.6 10.15-3.5 20.5-2.1 33.65 2.05 19.6 14.35 30.95 5.05 4.7 12.05 7.05 6 2.05 13.85 2.55 13.45.8 23.75.1 13.9-.9 23.3-4.45 18.75-6.95 7.4-27.85-8.9-16.5-23.4-30.5-14.3-13.8-30.95-22.15-5.9-2.95-18.15-7.1-5.05-1.75-7.65-1.95-4.05-.3-6.2 2.2z" id="aC"/><path fill="url(#A)" d="M319.45 496.95l-.8-.2-.3.85.85.2q18.25 4 37.05 12.35 3.8 1.65 6.8 3.15 2.55 1.2 6.15 3.25l.35-.8q-2.45-1.4-6.1-3.25l-6.95-3.25q-19.45-8.55-37.05-12.3z" id="aD"/><path fill="url(#B)" d="M313.45 538.55l.15.95q6.05-.55 6.4-.6 6.2-.2 9.5-.2 12.15.1 24.65 1.7 12.05 1.55 20.85 4.05l.25-.85q-8.95-2.55-21-4.1-12.6-1.7-24.75-1.75-4.85 0-9.5.3l-6.55.5z" id="aE"/><path fill="url(#C)" d="M342.85 492.4q-3.6-2.85-9.8-6.85-.85-.5-1.6-.65-.85-.2-1.8-.7l-1.05.45q.6.3.75.05.15-.15.65.15 7.45 4.3 12.35 8.3 10.15 8.15 15.45 17.5l.75-.45q-5.4-9.55-15.7-17.8z" id="aF"/><path fill="url(#D)" d="M317.15 504.65q0 .1-.15.95.85.05.4.15 9.65 1.45 20.45 4.4 10.25 2.8 19.65 6.45 3.8 1.45 8 3.4 3.79 1.624 6.85 3.3.051.023.1.05l.1-.35.3-.4-.05-.1-7-3.35q-1.65-.8-8-3.4-9.4-3.65-19.55-6.45-10.75-2.95-20.35-4.45-.5-.05-.35-.1l-.4-.1z" id="aG"/><path fill="url(#E)" d="M315.8 513q-.061.296-.1.8.25 0-.05.05-.4.05-.05.1 9.85.7 21.4 3.2 10.65 2.25 20.95 5.6 3.55 1.15 8.05 2.85 4 1.55 7.1 3.05l.25-.8v-.1q-3.5-1.6-7.05-2.95-4.55-1.75-8.15-2.95-10.25-3.35-20.95-5.65-11.564-2.492-21.4-3.2z" id="aH"/><path fill="url(#F)" d="M312.95 521.45l-.05.85q10.25-.05 22.8 1.8 11.5 1.75 22.7 4.75 5 1.4 8.2 2.45 4.75 1.6 7.1 2.6l.3-.8q-2.8-1.2-7.2-2.65-3.85-1.35-8.25-2.45-11.1-3-22.7-4.75-12.55-1.85-22.9-1.8z" id="aI"/><path fill="url(#G)" d="M312.75 530.05l.05.9q10.3-.65 23 .55 11.65 1.05 23 3.45 5.35 1.2 8.3 2.05 4.65 1.25 7.2 2.2h.05l.25-.85q-2.15-.75-7.3-2.25-3.2-.85-8.35-2-11.3-2.45-23.1-3.5-12.7-1.2-23.1-.55z" id="aJ"/><path fill="url(#H)" d="M315.25 546.9l.25.9q10.05-1.5 22.1-1.65 11.25-.1 22.1 1.05 3.1.3 8.5 1.1 3.85.6 7.4 1.45l.2-.9q-4-.85-7.55-1.45-3.75-.55-8.5-1.05-10.9-1.15-22.25-1.05-12.15.1-22.25 1.6z" id="aK"/><path fill="url(#I)" d="M318.35 554.85l.45.85q9.45-1.75 20.7-2.3 10.35-.55 20.6-.1 3.3.15 8.6.65 4.45.5 7.55 1.1l.15-.95q-3.85-.6-7.65-1-3.75-.4-8.65-.65-10.15-.55-20.8.05-11.3.6-20.95 2.35z" id="aL"/><path fill="url(#J)" d="M364.45 565.5q-2.4.05-7.3.35-13.6 1-26.55 3.65.55.5 1.1.75 11.65-2.5 25.55-3.55l7.2-.35q5.5-.1 6.95-.05v-.95q-4.6 0-6.95.15z" id="aM"/><path fill="url(#K)" d="M343.05 552.6q4.1 5.7 12.6 9.2 5.9 2.45 13.15 3.5 5.45.8 13.55 1 8.3.25 11.9.65 6.6.75 11.45 2.7 3.5-2.3 5.25-5.75l-6-9.35-16.4-5.4q-8.7-6.5-22.35-5.95-14.5.6-23.15 9.4z" id="aN"/><path fill="url(#L)" d="M345.55 556.15q3.9 3.7 9.9 6.1 6.2 2.55 13.3 3.55 4.9.7 13.6 1h.25q7.85.2 11.7.65 6.35.7 11.2 2.65l.2.05.2-.1q1.85-1.15 3.3-2.75 1.2-1.35 2.2-3.25l.05-.2-6.05-9.6-.05-.15-.25-.05-16.35-5.35q-2.3-1.7-5.4-3-2.7-1.2-6.25-2-9.1-2.05-18.25-.05-9.9 2.2-16.15 8.65l-.3.3.3.3q.8 1.1 1.35 1.7.8 1 1.5 1.55m.65-.65q-1-1-1.4-1.55l-1.1-1.25q6.1-6.1 15.65-8.15 8.75-1.95 17.55.05 3.1.65 6.1 1.95 3.1 1.3 5.1 2.95.1 0 .15.1h.1l.05.05 16.3 5.25 5.65 9q-.95 1.8-1.85 2.75-1.35 1.45-2.9 2.45-4.85-1.85-11.25-2.6-4-.45-11.7-.65h-.3q-8.65-.3-13.45-1-7.05-1.05-13.1-3.45-6-2.5-9.6-5.9z" id="aO"/><path fill="url(#M)" d="M373.5 518.5q-4.25-2.55-7.55-3.65-4.35-1.4-8.45-.85l1.45 5.4-6.55 1.15q3.25 8.15 10 13.6 3.75 3 14.05 8.5 11.3 6.05 17.25 10 10.05 6.7 15.75 13.65 1.75-2.35 2.45-5.2-6.4-13.5-16.35-24.5-9.8-10.8-22.05-18.1z" id="aP"/><path fill="url(#N)" d="M373.7 518.05q-4.05-2.5-7.6-3.6-4.5-1.45-8.65-.85l-.5.05 1.45 5.4-6.05 1-.6.15.25.6q3.2 7.95 9.6 13.3 3.9 3.25 13.4 8.35.25.05 1.25.65 10.55 5.6 17.2 9.95 9.8 6.55 15.65 13.5l.35.55.35-.55q.95-1.1 1.6-2.55.65-1.4.9-2.85l.1-.1-.1-.15q-1.45-3.15-3.85-7.5-2.7-4.45-4.5-7-12.25-17.65-30.25-28.35m3.05 24.2q-.7-.35-1.25-.65-9.2-4.9-13.05-8.05-6.2-5.15-9.3-12.65l5.9-1 .5-.05-.1-.6-1.3-4.8q3.65-.4 7.65.95 3.25.95 7.5 3.5 17.65 10.5 29.8 28 2.7 3.85 4.45 7 1.6 2.7 3.85 7.25-.5 1.6-.9 2.45-.3.75-1.05 1.9-5.75-6.75-15.5-13.25-6.25-4.15-17.2-10z" id="aQ"/><path fill="url(#O)" d="M356.85 573.3q1.55 2.45 4.15 3.65 23.9.65 38.15-4.2-10.4 1.85-24.4 1.1Q358 573 354.5 568.3q1.85 4.2 2.35 5z" id="aR"/><path fill="#C57C2F" d="M339.6 522.75q-2.55 0-4.35 1.65-1.85 1.6-1.85 3.85 0 2.3 1.85 3.9 1.8 1.6 4.35 1.6 2.05 0 3.6-1-1.25-.75-1.95-1.95t-.7-2.55q0-2.9 2.65-4.5-1.55-1-3.6-1z" id="aS"/><path fill="#C57C2F" d="M351.35 554.05q-1.7 0-2.9 1.05t-1.2 2.55q0 1.45 1.2 2.55 1.2 1.05 2.9 1.05 1.1 0 2.3-.65-1.75-1.15-1.75-2.95 0-1.8 1.75-2.95-.95-.65-2.3-.65z" id="aT"/><path fill="url(#P)" d="M322.8 487.45q-1.85 2.25-3.4 6.85-1.5 4.3-2.4 9.55-1.45 7.95-2.1 15.7 1.1-2.05 2.5-3.3 1.65-1.45 3.45-1.45-1.15-.75-.5-3.65.7-3.3 4.4-3.7-1.25-2.25.25-4.75 1.6-2.85 5.45-1.45-2.1-6 2.8-7.7 2.25-.75 5.2-.25 2.7.45 4.55 1.65-.15-4.4 6.6-2.7-3.3-1.45-13.75-5.15-4.85-1.65-7.2-1.8-3.8-.25-5.85 2.15z" id="aU"/><path fill="url(#Q)" d="M421.15 568.25l.45-.3 2.8-1.4-3 .55h-.1q-.4.1-.55.25l-10.8 5.35-.15.05-.1.15q-.05.1-.55 1-17.5 3.8-27.95 11.55-9.6 7-13.9 17.1l-.25.75.75-.1q16.7-1.75 29.1-12.15 7.1-6.1 12.9-16.25 2.75-.6 7.55-1.4.75-.1 1.4-1 .4-.6 1.1-2 .9-1.8 1.3-2.15m-2.15 1.7q-1.05 2.35-1.8 2.55-4.35.65-6.75 1.15l.05-.15 8.95-4.4-.45.85m-10.5 5.1q-4.95 8.8-12.25 15.3-11.7 9.9-27.7 11.8 4.35-9.5 13.25-16 10.2-7.4 26.7-11.1z" id="aV"/><path fill="#373535" d="M383.85 480.75l-.9.5 32.1 53.45.95-.6-32.15-53.35z" id="aW"/><path fill="#373535" d="M382.05 480.75q1.65 1.9 3.65 4.1-.4-1-1.7-5.25-1.15-4-2-5.7-.5-1.2-1.35-1.95-1.1-1-2.15-.4-.7.35-.8 1.5-.1.95.25 1.95.85 2.05 4.1 5.75z" id="aX"/><path fill="#373535" d="M456.1 481.25l-.95-.5-32.2 53.35 1.05.6 32.1-53.45z" id="aY"/><path fill="#373535" d="M453.35 484.85q1.9-2.2 3.55-4.1 3.25-3.75 4.1-5.75.35-1 .3-1.95-.1-1.15-.75-1.5-1.85-1.05-3.6 2.35-.85 1.75-2 5.7-1.3 4.45-1.6 5.25z" id="aZ"/><path fill="#AF867D" d="M423.75 539q.35-5.3-.45-10.75-.75-5-2.25-8.85v13.2l2.7 6.4z" id="ba"/><path fill="#AF867D" d="M415.7 528.25q-.85 5.4-.5 10.75l2.9-6.4v-13.2q-1.65 3.75-2.4 8.85z" id="bb"/><path fill="#373535" d="M428.9 538.25q-1.25-1.2-3-1.2t-2.95 1.2q-1.2 1.2-1.2 2.9 0 1.75 1.2 2.95 1.25 1.25 2.95 1.25 1.75 0 3-1.25 1.2-1.2 1.2-2.95 0-1.7-1.2-2.9z" id="bc"/><path fill="url(#R)" d="M428.35 538.75q-1-1-2.45-1-1.4 0-2.4 1-1.05 1-1.05 2.4 0 1.45 1.05 2.45 1 1 2.4 1 1.45 0 2.45-1 1.05-1 1.05-2.45 0-1.4-1.05-2.4z" id="bd"/><path fill="#373535" d="M413.05 537.05q-1.7 0-2.9 1.2t-1.2 2.9q0 1.75 1.2 2.95 1.2 1.25 2.9 1.25t2.95-1.25q1.2-1.2 1.2-2.95 0-1.7-1.2-2.9t-2.95-1.2z" id="be"/><path fill="url(#S)" d="M413.05 537.75q-1.4 0-2.4 1t-1 2.4q0 1.45 1 2.45.95 1 2.4 1t2.45-1q1-1 1-2.45 0-1.4-1-2.4t-2.45-1z" id="bf"/><path fill="#AF867D" d="M410.85 540.75q.25.25.6.25t.6-.25q.25-.25.25-.6 0-.85-.85-.85t-.85.85q0 .35.25.6z" id="bg"/><path fill="#AF867D" d="M426.7 540.15q0 .85.9.85.3 0 .6-.25.25-.25.25-.6t-.25-.6q-.3-.25-.6-.25-.9 0-.9.85z" id="bh"/><path fill="url(#T)" d="M424.4 533.4q-1.3-1.3-3.1-1.3h-3.6q-1.85 0-3.15 1.3-1.3 1.3-1.3 3.15v9.65q0 1.85 1.3 3.15 1.3 1.3 3.15 1.3h3.6q1.8 0 3.1-1.3t1.3-3.15v-9.65q0-1.85-1.3-3.15z" id="bi"/><path fill="url(#U)" d="M425.25 594.65H412.9q-5.7 26.85 0 48.95.7 2.8 2.15 4.4 1.7 1.9 4.1 1.9 4.4 0 6.1-6.3 7.35-23.45 0-48.95z" id="bj"/><path fill="url(#V)" d="M420.3 591.85l-3.9-.15q-2.75 14.1-1.85 32.55.95 18.5 4.7 23.2-3.2-4.7-2.25-26.65.9-19.8 3.3-28.95z" id="bk"/><path fill="url(#W)" d="M430.3 552.8q-4.5-7.75-10.8-7.75-6.3 0-10.8 7.75-4.5 7.7-4.5 18.65 0 10.9 4.5 18.65 4.5 7.7 10.8 7.7 6.3 0 10.8-7.7 4.5-7.75 4.5-18.65 0-10.9-4.5-18.65z" id="bl"/><path fill="url(#X)" d="M411.85 562.65q1.1-11.95 7.4-16.1-8.75 3.35-10.65 16.25-1.65 10.85 1.75 22.5.95 3.05 2.35 5.4 1.6 2.55 2.65 2.3.9-.25 1.15-.7.55-.95-.3-3.4-1.6-4.05-2.5-7-2.75-9.25-1.85-19.25z" id="bm"/></defs><use xlink:href="#Y"/><use xlink:href="#Z" transform="matrix(1.28564 0 0 1.28564 -397.328 -542.874)"/><use xlink:href="#aa" transform="matrix(1.28564 0 0 1.28564 -397.328 -542.874)"/><use xlink:href="#ab" transform="matrix(1.28564 0 0 1.28564 -397.328 -542.874)"/><use xlink:href="#ac" transform="matrix(1.28564 0 0 1.28564 -397.328 -542.874)"/><use xlink:href="#ad" transform="matrix(1.28564 0 0 1.28564 -397.328 -542.874)"/><use xlink:href="#ae" transform="matrix(1.28564 0 0 1.28564 -397.328 -542.874)"/><use xlink:href="#af" transform="matrix(1.28564 0 0 1.28564 -397.328 -542.874)"/><use xlink:href="#ag" transform="matrix(1.28564 0 0 1.28564 -397.328 -542.874)"/><use xlink:href="#ah" transform="matrix(1.28564 0 0 1.28564 -397.328 -542.874)"/><use xlink:href="#ai" transform="matrix(1.28564 0 0 1.28564 -397.328 -542.874)"/><use xlink:href="#aj" transform="matrix(1.28564 0 0 1.28564 -397.328 -542.874)"/><use xlink:href="#ak" transform="matrix(1.28564 0 0 1.28564 -397.328 -542.874)"/><use xlink:href="#al" transform="matrix(1.28564 0 0 1.28564 -397.328 -542.874)"/><use xlink:href="#am" transform="matrix(1.28564 0 0 1.28564 -397.328 -542.874)"/><use xlink:href="#an" transform="matrix(1.28564 0 0 1.28564 -397.328 -542.874)"/><use xlink:href="#ao" transform="matrix(1.28564 0 0 1.28564 -397.328 -542.874)"/><use xlink:href="#ap" transform="matrix(1.28564 0 0 1.28564 -397.328 -542.874)"/><use xlink:href="#aq" transform="matrix(1.28564 0 0 1.28564 -397.328 -542.874)"/><use xlink:href="#ar" transform="matrix(1.28564 0 0 1.28564 -397.328 -542.874)"/><use xlink:href="#as" transform="matrix(1.28564 0 0 1.28564 -397.328 -542.874)"/><use xlink:href="#at" transform="matrix(1.28564 0 0 1.28564 -397.328 -542.874)"/><use xlink:href="#au" transform="matrix(1.28564 0 0 1.28564 -397.328 -542.874)"/><use xlink:href="#av" transform="matrix(1.28564 0 0 1.28564 -397.328 -542.874)"/><use xlink:href="#aw" transform="matrix(1.28564 0 0 1.28564 -397.328 -542.874)"/><use xlink:href="#ax" transform="matrix(1.28564 0 0 1.28564 -397.328 -542.874)"/><use xlink:href="#ay" transform="matrix(1.28564 0 0 1.28564 -397.328 -542.874)"/><use xlink:href="#az" transform="matrix(1.28564 0 0 1.28564 -397.328 -542.874)"/><use xlink:href="#aA" transform="matrix(1.28564 0 0 1.28564 -397.328 -542.874)"/><use xlink:href="#aB" transform="matrix(1.28564 0 0 1.28564 -397.328 -542.874)"/><use xlink:href="#aC" transform="matrix(1.28564 0 0 1.28564 -397.328 -542.874)"/><use xlink:href="#aD" transform="matrix(1.28564 0 0 1.28564 -397.328 -542.874)"/><use xlink:href="#aE" transform="matrix(1.28564 0 0 1.28564 -397.328 -542.874)"/><use xlink:href="#aF" transform="matrix(1.28564 0 0 1.28564 -397.328 -542.874)"/><use xlink:href="#aG" transform="matrix(1.28564 0 0 1.28564 -397.328 -542.874)"/><use xlink:href="#aH" transform="matrix(1.28564 0 0 1.28564 -397.328 -542.874)"/><use xlink:href="#aI" transform="matrix(1.28564 0 0 1.28564 -397.328 -542.874)"/><use xlink:href="#aJ" transform="matrix(1.28564 0 0 1.28564 -397.328 -542.874)"/><use xlink:href="#aK" transform="matrix(1.28564 0 0 1.28564 -397.328 -542.874)"/><use xlink:href="#aL" transform="matrix(1.28564 0 0 1.28564 -397.328 -542.874)"/><use xlink:href="#aM" transform="matrix(1.28564 0 0 1.28564 -397.328 -542.874)"/><use xlink:href="#aN" transform="matrix(1.28564 0 0 1.28564 -397.328 -542.874)"/><use xlink:href="#aO" transform="matrix(1.28564 0 0 1.28564 -397.328 -542.874)"/><use xlink:href="#aP" transform="matrix(1.28564 0 0 1.28564 -397.328 -542.874)"/><use xlink:href="#aQ" transform="matrix(1.28564 0 0 1.28564 -397.328 -542.874)"/><use xlink:href="#aR" transform="matrix(1.28564 0 0 1.28564 -397.328 -542.874)"/><use xlink:href="#aS" transform="matrix(1.28564 0 0 1.28564 -397.328 -542.874)"/><use xlink:href="#aT" transform="matrix(1.28564 0 0 1.28564 -397.328 -542.874)"/><use xlink:href="#aU" transform="matrix(1.28564 0 0 1.28564 -397.328 -542.874)"/><use xlink:href="#aV" transform="matrix(1.28564 0 0 1.28564 -397.328 -542.874)"/><use xlink:href="#aW" transform="matrix(1.28564 0 0 1.28564 -397.328 -542.874)"/><use xlink:href="#aX" transform="matrix(1.28564 0 0 1.28564 -397.328 -542.874)"/><use xlink:href="#aY" transform="matrix(1.28564 0 0 1.28564 -397.328 -542.874)"/><use xlink:href="#aZ" transform="matrix(1.28564 0 0 1.28564 -397.328 -542.874)"/><use xlink:href="#ba" transform="matrix(1.28564 0 0 1.28564 -397.328 -542.874)"/><use xlink:href="#bb" transform="matrix(1.28564 0 0 1.28564 -397.328 -542.874)"/><use xlink:href="#bc" transform="matrix(1.28564 0 0 1.28564 -397.328 -542.874)"/><use xlink:href="#bd" transform="matrix(1.28564 0 0 1.28564 -397.328 -542.874)"/><use xlink:href="#be" transform="matrix(1.28564 0 0 1.28564 -397.328 -542.874)"/><use xlink:href="#bf" transform="matrix(1.28564 0 0 1.28564 -397.328 -542.874)"/><use xlink:href="#bg" transform="matrix(1.28564 0 0 1.28564 -397.328 -542.874)"/><use xlink:href="#bh" transform="matrix(1.28564 0 0 1.28564 -397.328 -542.874)"/><use xlink:href="#bi" transform="matrix(1.28564 0 0 1.28564 -397.328 -542.874)"/><use xlink:href="#bj" transform="matrix(1.28564 0 0 1.28564 -397.328 -542.874)"/><use xlink:href="#bk" transform="matrix(1.28564 0 0 1.28564 -397.328 -542.874)"/><use xlink:href="#bl" transform="matrix(1.28564 0 0 1.28564 -397.328 -542.874)"/><use xlink:href="#bm" transform="matrix(1.28564 0 0 1.28564 -397.328 -542.874)"/></svg>