<svg xmlns="http://www.w3.org/2000/svg" xmlns:xlink="http://www.w3.org/1999/xlink" preserveAspectRatio="none" width="284" height="320"><defs><linearGradient id="a" gradientUnits="userSpaceOnUse" x1="483.9" y1="886.5" x2="436" y2="818.1" spreadMethod="pad"><stop offset="0%" stop-color="#C88756"/><stop offset="100%" stop-color="#9C4D2B"/></linearGradient><linearGradient id="b" gradientUnits="userSpaceOnUse" x1="469.938" y1="828.438" x2="495.862" y2="871.563" spreadMethod="pad"><stop offset="0%" stop-color="#8C432B"/><stop offset="100%" stop-color="#B2652E"/></linearGradient><linearGradient id="c" gradientUnits="userSpaceOnUse" x1="457.8" y1="834.725" x2="484.1" y2="878.475" spreadMethod="pad"><stop offset="0%" stop-color="#8C432B"/><stop offset="100%" stop-color="#B2652E"/></linearGradient><linearGradient id="d" gradientUnits="userSpaceOnUse" x1="439.125" y1="846.987" x2="464.975" y2="890.013" spreadMethod="pad"><stop offset="0%" stop-color="#8C432B"/><stop offset="100%" stop-color="#B2652E"/></linearGradient><linearGradient id="e" gradientUnits="userSpaceOnUse" x1="427.212" y1="854.125" x2="453.188" y2="897.375" spreadMethod="pad"><stop offset="0%" stop-color="#8C432B"/><stop offset="100%" stop-color="#B2652E"/></linearGradient><linearGradient id="f" gradientUnits="userSpaceOnUse" x1="455.125" y1="819.388" x2="498.475" y2="881.313" spreadMethod="pad"><stop offset="0%" stop-color="#CB8B5B"/><stop offset="100%" stop-color="#E4BFA3"/></linearGradient><linearGradient id="g" gradientUnits="userSpaceOnUse" x1="450.788" y1="823.4" x2="493.913" y2="885" spreadMethod="pad"><stop offset="0%" stop-color="#CB8B5B"/><stop offset="100%" stop-color="#E4BFA3"/></linearGradient><linearGradient id="h" gradientUnits="userSpaceOnUse" x1="444.2" y1="826.363" x2="488.1" y2="889.038" spreadMethod="pad"><stop offset="0%" stop-color="#CB8B5B"/><stop offset="100%" stop-color="#E4BFA3"/></linearGradient><linearGradient id="i" gradientUnits="userSpaceOnUse" x1="438.588" y1="830.962" x2="482.113" y2="893.137" spreadMethod="pad"><stop offset="0%" stop-color="#CB8B5B"/><stop offset="100%" stop-color="#E4BFA3"/></linearGradient><linearGradient id="j" gradientUnits="userSpaceOnUse" x1="433.712" y1="833.675" x2="478.087" y2="897.025" spreadMethod="pad"><stop offset="0%" stop-color="#CB8B5B"/><stop offset="100%" stop-color="#E4BFA3"/></linearGradient><linearGradient id="k" gradientUnits="userSpaceOnUse" x1="427.375" y1="838.8" x2="470.725" y2="900.7" spreadMethod="pad"><stop offset="0%" stop-color="#CB8B5B"/><stop offset="100%" stop-color="#E4BFA3"/></linearGradient><linearGradient id="l" gradientUnits="userSpaceOnUse" x1="422.6" y1="841.438" x2="466.6" y2="904.263" spreadMethod="pad"><stop offset="0%" stop-color="#CB8B5B"/><stop offset="100%" stop-color="#E4BFA3"/></linearGradient><linearGradient id="m" gradientUnits="userSpaceOnUse" x1="427.313" y1="813.925" x2="461.487" y2="859.275" spreadMethod="pad"><stop offset="0%" stop-color="#77372B"/><stop offset="100%" stop-color="#AA5B2D"/></linearGradient><linearGradient id="n" gradientUnits="userSpaceOnUse" x1="478.625" y1="828.375" x2="436.575" y2="858.925" spreadMethod="pad"><stop offset="0%" stop-color="#FFF"/><stop offset="100%" stop-color="#DFB493"/></linearGradient><linearGradient id="o" gradientUnits="userSpaceOnUse" x1="441.462" y1="883.575" x2="493.337" y2="862.625" spreadMethod="pad"><stop offset="0%" stop-color="#F79134"/><stop offset="100%" stop-color="#FEBC2E"/></linearGradient><linearGradient id="p" gradientUnits="userSpaceOnUse" x1="479.837" y1="829.05" x2="437.163" y2="860.05" spreadMethod="pad"><stop offset="0%" stop-color="#FFF"/><stop offset="100%" stop-color="#DFB493"/></linearGradient><linearGradient id="q" gradientUnits="userSpaceOnUse" x1="470.825" y1="837.625" x2="437.475" y2="860.975" spreadMethod="pad"><stop offset="0%" stop-color="#E2BA9B"/><stop offset="100%" stop-color="#D9A781"/></linearGradient><linearGradient id="r" gradientUnits="userSpaceOnUse" x1="470.413" y1="837.025" x2="437.188" y2="860.275" spreadMethod="pad"><stop offset="0%" stop-color="#E2BA9B"/><stop offset="100%" stop-color="#D9A781"/></linearGradient><linearGradient id="s" gradientUnits="userSpaceOnUse" x1="470.2" y1="836.737" x2="437.6" y2="859.563" spreadMethod="pad"><stop offset="0%" stop-color="#E2BA9B"/><stop offset="100%" stop-color="#D9A781"/></linearGradient><linearGradient id="t" gradientUnits="userSpaceOnUse" x1="469.788" y1="836.137" x2="437.212" y2="858.962" spreadMethod="pad"><stop offset="0%" stop-color="#E2BA9B"/><stop offset="100%" stop-color="#D9A781"/></linearGradient><linearGradient id="u" gradientUnits="userSpaceOnUse" x1="469.6" y1="835.863" x2="436.5" y2="859.038" spreadMethod="pad"><stop offset="0%" stop-color="#E2BA9B"/><stop offset="100%" stop-color="#D9A781"/></linearGradient><linearGradient id="v" gradientUnits="userSpaceOnUse" x1="469.337" y1="835.438" x2="436.462" y2="858.463" spreadMethod="pad"><stop offset="0%" stop-color="#E2BA9B"/><stop offset="100%" stop-color="#D9A781"/></linearGradient><linearGradient id="w" gradientUnits="userSpaceOnUse" x1="480.425" y1="793.55" x2="490.275" y2="742.85" spreadMethod="pad"><stop offset="0%" stop-color="#AA5B2D"/><stop offset="100%" stop-color="#803C2A"/></linearGradient><linearGradient id="x" gradientUnits="userSpaceOnUse" x1="521.05" y1="780.063" x2="431.85" y2="789.438" spreadMethod="pad"><stop offset="0%" stop-color="#CB8B5B"/><stop offset="100%" stop-color="#B2652E"/></linearGradient><linearGradient id="y" gradientUnits="userSpaceOnUse" x1="459.637" y1="811.637" x2="526.862" y2="815.163" spreadMethod="pad"><stop offset="0%" stop-color="#9C4D2B"/><stop offset="100%" stop-color="#C4804A"/></linearGradient><linearGradient id="z" gradientUnits="userSpaceOnUse" x1="460.288" y1="799.537" x2="527.712" y2="803.063" spreadMethod="pad"><stop offset="0%" stop-color="#9C4D2B"/><stop offset="100%" stop-color="#C4804A"/></linearGradient><linearGradient id="A" gradientUnits="userSpaceOnUse" x1="461.1" y1="783.987" x2="528.3" y2="787.513" spreadMethod="pad"><stop offset="0%" stop-color="#9C4D2B"/><stop offset="100%" stop-color="#C4804A"/></linearGradient><linearGradient id="B" gradientUnits="userSpaceOnUse" x1="462.05" y1="765.513" x2="528.45" y2="768.987" spreadMethod="pad"><stop offset="0%" stop-color="#9C4D2B"/><stop offset="100%" stop-color="#C4804A"/></linearGradient><linearGradient id="C" gradientUnits="userSpaceOnUse" x1="462.525" y1="756.737" x2="529.675" y2="760.263" spreadMethod="pad"><stop offset="0%" stop-color="#9C4D2B"/><stop offset="100%" stop-color="#C4804A"/></linearGradient><linearGradient id="D" gradientUnits="userSpaceOnUse" x1="540.263" y1="745.238" x2="521.138" y2="821.962" spreadMethod="pad"><stop offset="0%" stop-color="#E6C4A8"/><stop offset="49.02%" stop-color="#FFF"/><stop offset="100%" stop-color="#E6C4A8"/></linearGradient><linearGradient id="E" gradientUnits="userSpaceOnUse" x1="540.875" y1="745.4" x2="521.825" y2="821.8" spreadMethod="pad"><stop offset="0%" stop-color="#E6C4A8"/><stop offset="49.02%" stop-color="#FFF"/><stop offset="100%" stop-color="#E6C4A8"/></linearGradient><linearGradient id="F" gradientUnits="userSpaceOnUse" x1="540.825" y1="745.4" x2="521.775" y2="821.8" spreadMethod="pad"><stop offset="0%" stop-color="#E6C4A8"/><stop offset="49.02%" stop-color="#FFF"/><stop offset="100%" stop-color="#E6C4A8"/></linearGradient><linearGradient id="G" gradientUnits="userSpaceOnUse" x1="541.075" y1="745.438" x2="522.025" y2="821.862" spreadMethod="pad"><stop offset="0%" stop-color="#E6C4A8"/><stop offset="49.02%" stop-color="#FFF"/><stop offset="100%" stop-color="#E6C4A8"/></linearGradient><linearGradient id="H" gradientUnits="userSpaceOnUse" x1="541.125" y1="745.45" x2="522.075" y2="821.85" spreadMethod="pad"><stop offset="0%" stop-color="#E6C4A8"/><stop offset="49.02%" stop-color="#FFF"/><stop offset="100%" stop-color="#E6C4A8"/></linearGradient><linearGradient id="I" gradientUnits="userSpaceOnUse" x1="539.725" y1="745.1" x2="520.675" y2="821.5" spreadMethod="pad"><stop offset="0%" stop-color="#E6C4A8"/><stop offset="49.02%" stop-color="#FFF"/><stop offset="100%" stop-color="#E6C4A8"/></linearGradient><linearGradient id="J" gradientUnits="userSpaceOnUse" x1="537.1" y1="744.462" x2="517.8" y2="821.837" spreadMethod="pad"><stop offset="0%" stop-color="#E6C4A8"/><stop offset="49.02%" stop-color="#FFF"/><stop offset="100%" stop-color="#E6C4A8"/></linearGradient><linearGradient id="K" gradientUnits="userSpaceOnUse" x1="535.888" y1="744.138" x2="516.513" y2="821.862" spreadMethod="pad"><stop offset="0%" stop-color="#E6C4A8"/><stop offset="49.02%" stop-color="#FFF"/><stop offset="100%" stop-color="#E6C4A8"/></linearGradient><linearGradient id="L" gradientUnits="userSpaceOnUse" x1="523.188" y1="816.737" x2="446.813" y2="814.063" spreadMethod="pad"><stop offset="0%" stop-color="#DFB594"/><stop offset="100%" stop-color="#BF783E"/></linearGradient><linearGradient id="M" gradientUnits="userSpaceOnUse" x1="523.388" y1="811.462" x2="448.512" y2="808.837" spreadMethod="pad"><stop offset="0%" stop-color="#DFB594"/><stop offset="100%" stop-color="#BF783E"/></linearGradient><linearGradient id="N" gradientUnits="userSpaceOnUse" x1="523.6" y1="805.362" x2="448.5" y2="802.737" spreadMethod="pad"><stop offset="0%" stop-color="#DFB594"/><stop offset="100%" stop-color="#BF783E"/></linearGradient><linearGradient id="O" gradientUnits="userSpaceOnUse" x1="523.788" y1="799.375" x2="447.813" y2="796.725" spreadMethod="pad"><stop offset="0%" stop-color="#DFB594"/><stop offset="100%" stop-color="#BF783E"/></linearGradient><linearGradient id="P" gradientUnits="userSpaceOnUse" x1="523" y1="794.05" x2="448.7" y2="791.45" spreadMethod="pad"><stop offset="0%" stop-color="#DFB594"/><stop offset="100%" stop-color="#BF783E"/></linearGradient><linearGradient id="Q" gradientUnits="userSpaceOnUse" x1="524.175" y1="788.163" x2="448.725" y2="785.538" spreadMethod="pad"><stop offset="0%" stop-color="#DFB594"/><stop offset="100%" stop-color="#BF783E"/></linearGradient><linearGradient id="R" gradientUnits="userSpaceOnUse" x1="524.387" y1="781.475" x2="448.412" y2="778.825" spreadMethod="pad"><stop offset="0%" stop-color="#DFB594"/><stop offset="100%" stop-color="#BF783E"/></linearGradient><linearGradient id="S" gradientUnits="userSpaceOnUse" x1="524.688" y1="773.775" x2="448.712" y2="771.125" spreadMethod="pad"><stop offset="0%" stop-color="#DFB594"/><stop offset="100%" stop-color="#BF783E"/></linearGradient><linearGradient id="T" gradientUnits="userSpaceOnUse" x1="524.987" y1="764.913" x2="449.813" y2="762.288" spreadMethod="pad"><stop offset="0%" stop-color="#DFB594"/><stop offset="100%" stop-color="#BF783E"/></linearGradient><linearGradient id="U" gradientUnits="userSpaceOnUse" x1="525.1" y1="761.3" x2="450.3" y2="758.7" spreadMethod="pad"><stop offset="0%" stop-color="#DFB594"/><stop offset="100%" stop-color="#BF783E"/></linearGradient><linearGradient id="V" gradientUnits="userSpaceOnUse" x1="494.9" y1="763.513" x2="428.2" y2="800.487" spreadMethod="pad"><stop offset="0%" stop-color="#BF783E"/><stop offset="100%" stop-color="#8C432B"/></linearGradient><linearGradient id="W" gradientUnits="userSpaceOnUse" x1="508.825" y1="781.488" x2="400.475" y2="777.712" spreadMethod="pad"><stop offset="0%" stop-color="#E4BFA1"/><stop offset="100%" stop-color="#C4804A"/></linearGradient><linearGradient id="X" gradientUnits="userSpaceOnUse" x1="482.225" y1="755.175" x2="498.675" y2="776.225" spreadMethod="pad"><stop offset="0%" stop-color="#FFF"/><stop offset="100%" stop-color="#EDD4C1"/></linearGradient><linearGradient id="Y" gradientUnits="userSpaceOnUse" x1="477.7" y1="788.188" x2="481.8" y2="814.013" spreadMethod="pad"><stop offset="0%" stop-color="#F3E3D6"/><stop offset="100%" stop-color="#E4BFA1"/></linearGradient><linearGradient id="Z" gradientUnits="userSpaceOnUse" x1="478.7" y1="787.225" x2="480.9" y2="812.475" spreadMethod="pad"><stop offset="0%" stop-color="#EDD2BD"/><stop offset="100%" stop-color="#DBAC88"/></linearGradient><linearGradient id="aa" gradientUnits="userSpaceOnUse" x1="478.75" y1="787.25" x2="480.95" y2="812.35" spreadMethod="pad"><stop offset="0%" stop-color="#EDD2BD"/><stop offset="100%" stop-color="#DBAC88"/></linearGradient><linearGradient id="ab" gradientUnits="userSpaceOnUse" x1="479.4" y1="787.212" x2="481.6" y2="812.387" spreadMethod="pad"><stop offset="0%" stop-color="#EDD2BD"/><stop offset="100%" stop-color="#DBAC88"/></linearGradient><linearGradient id="ac" gradientUnits="userSpaceOnUse" x1="478.2" y1="787.275" x2="480.4" y2="812.325" spreadMethod="pad"><stop offset="0%" stop-color="#EDD2BD"/><stop offset="100%" stop-color="#DBAC88"/></linearGradient><linearGradient id="ad" gradientUnits="userSpaceOnUse" x1="477.188" y1="787.375" x2="479.413" y2="812.725" spreadMethod="pad"><stop offset="0%" stop-color="#EDD2BD"/><stop offset="100%" stop-color="#DBAC88"/></linearGradient><linearGradient id="ae" gradientUnits="userSpaceOnUse" x1="487.013" y1="760.313" x2="493.688" y2="773.987" spreadMethod="pad"><stop offset="0%" stop-color="#F1DBCB"/><stop offset="100%" stop-color="#E6C4A8"/></linearGradient><linearGradient id="af" gradientUnits="userSpaceOnUse" x1="350.262" y1="885.925" x2="399.338" y2="818.375" spreadMethod="pad"><stop offset="0%" stop-color="#C88756"/><stop offset="100%" stop-color="#9C4D2B"/></linearGradient><linearGradient id="ag" gradientUnits="userSpaceOnUse" x1="364.037" y1="828.9" x2="338.863" y2="872.5" spreadMethod="pad"><stop offset="0%" stop-color="#8C432B"/><stop offset="100%" stop-color="#B2652E"/></linearGradient><linearGradient id="ah" gradientUnits="userSpaceOnUse" x1="376.113" y1="834.3" x2="350.588" y2="878.5" spreadMethod="pad"><stop offset="0%" stop-color="#8C432B"/><stop offset="100%" stop-color="#B2652E"/></linearGradient><linearGradient id="ai" gradientUnits="userSpaceOnUse" x1="394.65" y1="846.563" x2="369.55" y2="890.037" spreadMethod="pad"><stop offset="0%" stop-color="#8C432B"/><stop offset="100%" stop-color="#B2652E"/></linearGradient><linearGradient id="aj" gradientUnits="userSpaceOnUse" x1="407.512" y1="853.4" x2="382.287" y2="897.1" spreadMethod="pad"><stop offset="0%" stop-color="#8C432B"/><stop offset="100%" stop-color="#B2652E"/></linearGradient><linearGradient id="ak" gradientUnits="userSpaceOnUse" x1="379.037" y1="819.363" x2="336.762" y2="882.038" spreadMethod="pad"><stop offset="0%" stop-color="#CB8B5B"/><stop offset="100%" stop-color="#E4BFA3"/></linearGradient><linearGradient id="al" gradientUnits="userSpaceOnUse" x1="383.325" y1="823.275" x2="341.275" y2="885.625" spreadMethod="pad"><stop offset="0%" stop-color="#CB8B5B"/><stop offset="100%" stop-color="#E4BFA3"/></linearGradient><linearGradient id="am" gradientUnits="userSpaceOnUse" x1="389.6" y1="826.525" x2="346.8" y2="889.975" spreadMethod="pad"><stop offset="0%" stop-color="#CB8B5B"/><stop offset="100%" stop-color="#E4BFA3"/></linearGradient><linearGradient id="an" gradientUnits="userSpaceOnUse" x1="395.625" y1="830.575" x2="353.175" y2="893.525" spreadMethod="pad"><stop offset="0%" stop-color="#CB8B5B"/><stop offset="100%" stop-color="#E4BFA3"/></linearGradient><linearGradient id="ao" gradientUnits="userSpaceOnUse" x1="400.238" y1="833.725" x2="356.963" y2="897.875" spreadMethod="pad"><stop offset="0%" stop-color="#CB8B5B"/><stop offset="100%" stop-color="#E4BFA3"/></linearGradient><linearGradient id="ap" gradientUnits="userSpaceOnUse" x1="406.787" y1="838.113" x2="364.512" y2="900.788" spreadMethod="pad"><stop offset="0%" stop-color="#CB8B5B"/><stop offset="100%" stop-color="#E4BFA3"/></linearGradient><linearGradient id="aq" gradientUnits="userSpaceOnUse" x1="411.375" y1="841.225" x2="368.525" y2="904.775" spreadMethod="pad"><stop offset="0%" stop-color="#CB8B5B"/><stop offset="100%" stop-color="#E4BFA3"/></linearGradient><linearGradient id="ar" gradientUnits="userSpaceOnUse" x1="406.75" y1="814.063" x2="373.35" y2="860.037" spreadMethod="pad"><stop offset="0%" stop-color="#77372B"/><stop offset="100%" stop-color="#AA5B2D"/></linearGradient><linearGradient id="as" gradientUnits="userSpaceOnUse" x1="356.063" y1="828.7" x2="398.638" y2="858.5" spreadMethod="pad"><stop offset="0%" stop-color="#FFF"/><stop offset="100%" stop-color="#DFB493"/></linearGradient><linearGradient id="at" gradientUnits="userSpaceOnUse" x1="393.2" y1="884.425" x2="341.7" y2="862.575" spreadMethod="pad"><stop offset="0%" stop-color="#F79134"/><stop offset="100%" stop-color="#FEBC2E"/></linearGradient><linearGradient id="au" gradientUnits="userSpaceOnUse" x1="354.537" y1="829.862" x2="397.762" y2="860.138" spreadMethod="pad"><stop offset="0%" stop-color="#FFF"/><stop offset="100%" stop-color="#DFB493"/></linearGradient><linearGradient id="av" gradientUnits="userSpaceOnUse" x1="363.225" y1="837.425" x2="396.975" y2="860.175" spreadMethod="pad"><stop offset="0%" stop-color="#E2BA9B"/><stop offset="100%" stop-color="#D9A781"/></linearGradient><linearGradient id="aw" gradientUnits="userSpaceOnUse" x1="363.488" y1="837.013" x2="397.113" y2="859.688" spreadMethod="pad"><stop offset="0%" stop-color="#E2BA9B"/><stop offset="100%" stop-color="#D9A781"/></linearGradient><linearGradient id="ax" gradientUnits="userSpaceOnUse" x1="363.65" y1="836.825" x2="396.65" y2="859.075" spreadMethod="pad"><stop offset="0%" stop-color="#E2BA9B"/><stop offset="100%" stop-color="#D9A781"/></linearGradient><linearGradient id="ay" gradientUnits="userSpaceOnUse" x1="363.95" y1="836.325" x2="396.95" y2="858.575" spreadMethod="pad"><stop offset="0%" stop-color="#E2BA9B"/><stop offset="100%" stop-color="#D9A781"/></linearGradient><linearGradient id="az" gradientUnits="userSpaceOnUse" x1="364.1" y1="836.1" x2="397.6" y2="858.7" spreadMethod="pad"><stop offset="0%" stop-color="#E2BA9B"/><stop offset="100%" stop-color="#D9A781"/></linearGradient><linearGradient id="aA" gradientUnits="userSpaceOnUse" x1="364.325" y1="835.788" x2="397.575" y2="858.212" spreadMethod="pad"><stop offset="0%" stop-color="#E2BA9B"/><stop offset="100%" stop-color="#D9A781"/></linearGradient><linearGradient id="aB" gradientUnits="userSpaceOnUse" x1="353.838" y1="794.337" x2="344.863" y2="743.462" spreadMethod="pad"><stop offset="0%" stop-color="#AA5B2D"/><stop offset="100%" stop-color="#803C2A"/></linearGradient><linearGradient id="aC" gradientUnits="userSpaceOnUse" x1="312.9" y1="780.063" x2="402.1" y2="789.438" spreadMethod="pad"><stop offset="0%" stop-color="#CB8B5B"/><stop offset="100%" stop-color="#B2652E"/></linearGradient><linearGradient id="aD" gradientUnits="userSpaceOnUse" x1="375.05" y1="812.225" x2="307.75" y2="814.575" spreadMethod="pad"><stop offset="0%" stop-color="#9C4D2B"/><stop offset="100%" stop-color="#C4804A"/></linearGradient><linearGradient id="aE" gradientUnits="userSpaceOnUse" x1="374.637" y1="800.275" x2="307.162" y2="802.625" spreadMethod="pad"><stop offset="0%" stop-color="#9C4D2B"/><stop offset="100%" stop-color="#C4804A"/></linearGradient><linearGradient id="aF" gradientUnits="userSpaceOnUse" x1="374.075" y1="784.925" x2="306.825" y2="787.275" spreadMethod="pad"><stop offset="0%" stop-color="#9C4D2B"/><stop offset="100%" stop-color="#C4804A"/></linearGradient><linearGradient id="aG" gradientUnits="userSpaceOnUse" x1="372.475" y1="766.637" x2="306.025" y2="768.962" spreadMethod="pad"><stop offset="0%" stop-color="#9C4D2B"/><stop offset="100%" stop-color="#C4804A"/></linearGradient><linearGradient id="aH" gradientUnits="userSpaceOnUse" x1="373.1" y1="757.175" x2="305.9" y2="759.525" spreadMethod="pad"><stop offset="0%" stop-color="#9C4D2B"/><stop offset="100%" stop-color="#C4804A"/></linearGradient><linearGradient id="aI" gradientUnits="userSpaceOnUse" x1="293.813" y1="745.263" x2="314.288" y2="821.638" spreadMethod="pad"><stop offset="0%" stop-color="#E6C4A8"/><stop offset="49.02%" stop-color="#FFF"/><stop offset="100%" stop-color="#E6C4A8"/></linearGradient><linearGradient id="aJ" gradientUnits="userSpaceOnUse" x1="293.063" y1="745.462" x2="313.438" y2="821.538" spreadMethod="pad"><stop offset="0%" stop-color="#E6C4A8"/><stop offset="49.02%" stop-color="#FFF"/><stop offset="100%" stop-color="#E6C4A8"/></linearGradient><linearGradient id="aK" gradientUnits="userSpaceOnUse" x1="292.863" y1="745.512" x2="313.238" y2="821.587" spreadMethod="pad"><stop offset="0%" stop-color="#E6C4A8"/><stop offset="49.02%" stop-color="#FFF"/><stop offset="100%" stop-color="#E6C4A8"/></linearGradient><linearGradient id="aL" gradientUnits="userSpaceOnUse" x1="292.462" y1="745.612" x2="312.837" y2="821.688" spreadMethod="pad"><stop offset="0%" stop-color="#E6C4A8"/><stop offset="49.02%" stop-color="#FFF"/><stop offset="100%" stop-color="#E6C4A8"/></linearGradient><linearGradient id="aM" gradientUnits="userSpaceOnUse" x1="292.313" y1="745.663" x2="312.688" y2="821.738" spreadMethod="pad"><stop offset="0%" stop-color="#E6C4A8"/><stop offset="49.02%" stop-color="#FFF"/><stop offset="100%" stop-color="#E6C4A8"/></linearGradient><linearGradient id="aN" gradientUnits="userSpaceOnUse" x1="292.413" y1="745.612" x2="312.788" y2="821.688" spreadMethod="pad"><stop offset="0%" stop-color="#E6C4A8"/><stop offset="49.02%" stop-color="#FFF"/><stop offset="100%" stop-color="#E6C4A8"/></linearGradient><linearGradient id="aO" gradientUnits="userSpaceOnUse" x1="293.462" y1="745.35" x2="313.837" y2="821.45" spreadMethod="pad"><stop offset="0%" stop-color="#E6C4A8"/><stop offset="49.02%" stop-color="#FFF"/><stop offset="100%" stop-color="#E6C4A8"/></linearGradient><linearGradient id="aP" gradientUnits="userSpaceOnUse" x1="295.875" y1="744.688" x2="316.525" y2="821.713" spreadMethod="pad"><stop offset="0%" stop-color="#E6C4A8"/><stop offset="49.02%" stop-color="#FFF"/><stop offset="100%" stop-color="#E6C4A8"/></linearGradient><linearGradient id="aQ" gradientUnits="userSpaceOnUse" x1="298.387" y1="744.013" x2="319.113" y2="821.388" spreadMethod="pad"><stop offset="0%" stop-color="#E6C4A8"/><stop offset="49.02%" stop-color="#FFF"/><stop offset="100%" stop-color="#E6C4A8"/></linearGradient><linearGradient id="aR" gradientUnits="userSpaceOnUse" x1="310.588" y1="815.913" x2="387.012" y2="814.587" spreadMethod="pad"><stop offset="0%" stop-color="#DFB594"/><stop offset="100%" stop-color="#BF783E"/></linearGradient><linearGradient id="aS" gradientUnits="userSpaceOnUse" x1="311.5" y1="810.85" x2="386.4" y2="809.55" spreadMethod="pad"><stop offset="0%" stop-color="#DFB594"/><stop offset="100%" stop-color="#BF783E"/></linearGradient><linearGradient id="aT" gradientUnits="userSpaceOnUse" x1="311.413" y1="804.85" x2="386.587" y2="803.55" spreadMethod="pad"><stop offset="0%" stop-color="#DFB594"/><stop offset="100%" stop-color="#BF783E"/></linearGradient><linearGradient id="aU" gradientUnits="userSpaceOnUse" x1="310.288" y1="798.163" x2="386.313" y2="796.837" spreadMethod="pad"><stop offset="0%" stop-color="#DFB594"/><stop offset="100%" stop-color="#BF783E"/></linearGradient><linearGradient id="aV" gradientUnits="userSpaceOnUse" x1="311.225" y1="792.95" x2="385.575" y2="791.65" spreadMethod="pad"><stop offset="0%" stop-color="#DFB594"/><stop offset="100%" stop-color="#BF783E"/></linearGradient><linearGradient id="aW" gradientUnits="userSpaceOnUse" x1="311.1" y1="787.163" x2="386.6" y2="785.837" spreadMethod="pad"><stop offset="0%" stop-color="#DFB594"/><stop offset="100%" stop-color="#BF783E"/></linearGradient><linearGradient id="aX" gradientUnits="userSpaceOnUse" x1="309.975" y1="780.563" x2="386.025" y2="779.237" spreadMethod="pad"><stop offset="0%" stop-color="#DFB594"/><stop offset="100%" stop-color="#BF783E"/></linearGradient><linearGradient id="aY" gradientUnits="userSpaceOnUse" x1="309.838" y1="773.063" x2="385.863" y2="771.737" spreadMethod="pad"><stop offset="0%" stop-color="#DFB594"/><stop offset="100%" stop-color="#BF783E"/></linearGradient><linearGradient id="aZ" gradientUnits="userSpaceOnUse" x1="310.688" y1="764.3" x2="385.913" y2="763" spreadMethod="pad"><stop offset="0%" stop-color="#DFB594"/><stop offset="100%" stop-color="#BF783E"/></linearGradient><linearGradient id="ba" gradientUnits="userSpaceOnUse" x1="310.625" y1="760.65" x2="385.475" y2="759.35" spreadMethod="pad"><stop offset="0%" stop-color="#DFB594"/><stop offset="100%" stop-color="#BF783E"/></linearGradient><linearGradient id="bb" gradientUnits="userSpaceOnUse" x1="339.625" y1="764.3" x2="406.975" y2="800.1" spreadMethod="pad"><stop offset="0%" stop-color="#BF783E"/><stop offset="100%" stop-color="#8C432B"/></linearGradient><linearGradient id="bc" gradientUnits="userSpaceOnUse" x1="335.825" y1="756.65" x2="404.375" y2="804.65" spreadMethod="pad"><stop offset="0%" stop-color="#E4BFA1"/><stop offset="100%" stop-color="#CB8B5B"/></linearGradient><linearGradient id="bd" gradientUnits="userSpaceOnUse" x1="352.138" y1="754.775" x2="336.063" y2="776.125" spreadMethod="pad"><stop offset="0%" stop-color="#FFF"/><stop offset="100%" stop-color="#EDD4C1"/></linearGradient><linearGradient id="be" gradientUnits="userSpaceOnUse" x1="356.425" y1="788.25" x2="352.775" y2="814.15" spreadMethod="pad"><stop offset="0%" stop-color="#F3E3D6"/><stop offset="100%" stop-color="#E4BFA1"/></linearGradient><linearGradient id="bf" gradientUnits="userSpaceOnUse" x1="355.238" y1="787.3" x2="353.463" y2="812.6" spreadMethod="pad"><stop offset="0%" stop-color="#EDD2BD"/><stop offset="100%" stop-color="#DBAC88"/></linearGradient><linearGradient id="bg" gradientUnits="userSpaceOnUse" x1="355.225" y1="787.275" x2="353.475" y2="812.425" spreadMethod="pad"><stop offset="0%" stop-color="#EDD2BD"/><stop offset="100%" stop-color="#DBAC88"/></linearGradient><linearGradient id="bh" gradientUnits="userSpaceOnUse" x1="354.738" y1="787.288" x2="352.963" y2="812.512" spreadMethod="pad"><stop offset="0%" stop-color="#EDD2BD"/><stop offset="100%" stop-color="#DBAC88"/></linearGradient><linearGradient id="bi" gradientUnits="userSpaceOnUse" x1="355.975" y1="787.35" x2="354.225" y2="812.45" spreadMethod="pad"><stop offset="0%" stop-color="#EDD2BD"/><stop offset="100%" stop-color="#DBAC88"/></linearGradient><linearGradient id="bj" gradientUnits="userSpaceOnUse" x1="357.137" y1="787.45" x2="355.363" y2="812.85" spreadMethod="pad"><stop offset="0%" stop-color="#EDD2BD"/><stop offset="100%" stop-color="#DBAC88"/></linearGradient><linearGradient id="bk" gradientUnits="userSpaceOnUse" x1="347.362" y1="760.15" x2="340.938" y2="773.95" spreadMethod="pad"><stop offset="0%" stop-color="#F1DBCB"/><stop offset="100%" stop-color="#E6C4A8"/></linearGradient><linearGradient id="bl" gradientUnits="userSpaceOnUse" x1="424.2" y1="771.525" x2="424.2" y2="765.575" spreadMethod="pad"><stop offset="0%" stop-color="#373535"/><stop offset="100%" stop-color="#97675E"/></linearGradient><linearGradient id="bm" gradientUnits="userSpaceOnUse" x1="410.2" y1="771.525" x2="410.2" y2="765.575" spreadMethod="pad"><stop offset="0%" stop-color="#373535"/><stop offset="100%" stop-color="#97675E"/></linearGradient><linearGradient id="bn" gradientUnits="userSpaceOnUse" x1="417.15" y1="757.538" x2="417.15" y2="766.663" spreadMethod="pad"><stop offset="0%" stop-color="#9C6C63"/><stop offset="100%" stop-color="#783F3D"/></linearGradient><linearGradient id="bo" gradientUnits="userSpaceOnUse" x1="417.15" y1="831.525" x2="417.15" y2="876.375" spreadMethod="pad"><stop offset="0%" stop-color="#9C6C63"/><stop offset="100%" stop-color="#783F3D"/></linearGradient><linearGradient id="bp" gradientUnits="userSpaceOnUse" x1="414.85" y1="875.538" x2="414.85" y2="824.762" spreadMethod="pad"><stop offset="0%" stop-color="#97675E"/><stop offset="100%" stop-color="#E5D8D4"/></linearGradient><linearGradient id="bq" gradientUnits="userSpaceOnUse" x1="417.15" y1="777.55" x2="417.15" y2="820.45" spreadMethod="pad"><stop offset="0%" stop-color="#9C6C63"/><stop offset="100%" stop-color="#783F3D"/></linearGradient><linearGradient id="br" gradientUnits="userSpaceOnUse" x1="410.85" y1="817.513" x2="410.85" y2="775.188" spreadMethod="pad"><stop offset="0%" stop-color="#97675E"/><stop offset="100%" stop-color="#E5D8D4"/></linearGradient><linearGradient id="bs" gradientUnits="userSpaceOnUse" x1="417.15" y1="879.5" x2="417.15" y2="826.5" spreadMethod="pad"><stop offset="0%" stop-color="#97675E"/><stop offset="100%" stop-color="#E5D8D4"/></linearGradient><linearGradient id="bt" gradientUnits="userSpaceOnUse" x1="413.45" y1="876.538" x2="413.45" y2="841.462" spreadMethod="pad"><stop offset="0%" stop-color="#B7948C"/><stop offset="100%" stop-color="#FFF"/></linearGradient><path fill="#FFF" fill-opacity="0" d="M284 0H0v320h284V0z" id="bu"/><path fill="#77372B" d="M492.95 883.2q.45-1 7.55-12.65 13.9-22.45-8.85-39.15-12-8.8-32.2-16.25-15.85-5.85-35.2-10.35l-4.8-.9q2.8 9.85 4.75 28.7 2.55 24.5 3.5 30.35 3.65 21.05 11.15 29.95 9.4 11.1 26.65 6.4 3.25-.85 9.15-3.4 5.35-1.95 9.45-1.45 3.05.35 5.45 1.4 2.154.983 2.5 1.85-2.323-7.113.9-14.5z" id="bv"/><path fill="url(#a)" d="M490.45 879.5q5.7-7.65 8.25-11.9 6.05-9.8 5.15-17.9-1.2-10.6-14.05-20.05-12.25-9-32.15-16.85-17-6.7-35.1-10.95l-4.9-.85q3.15 10.8 6.1 35.45 3.05 25.55 5.7 35.55 4.65 17.45 13.8 22.95 11.05 6.6 30.4-2.3 4.55-2.1 9.65-1.45 4.663.546 5.25 2.35-2.092-7.164 1.9-14.05z" id="bw"/><path fill="url(#b)" d="M500.9 863.8q4-8.25 2.8-15.3l-11.1-7.4-16.85-10.3-15.1-7.5-20.55-8.45 6.5 10.25 10.45 4.05 12.2 8.65 11.3 8.65 20.35 17.35z" id="bx"/><path fill="url(#c)" d="M488.6 883.55q1.1-3.45 4.45-7.95l-14.4-16.15-16.95-16.9-5.95 6.4 8.5 9.3 10.5 14.6 13.75 20.45q-1.45-5.1.1-9.75z" id="by"/><path fill="url(#d)" d="M449.85 867.95l7.1 15 4.9 13.9q5.45-1.25 11.45-4.05L456 863.15l-11.7-17.7-10.95-6.05 7.9 12.85 8.6 15.7z" id="bz"/><path fill="url(#e)" d="M425.6 851.4q1.85 13.7 4.25 22.1 6.4 22.45 21.55 24.15l-3.9-14-7.05-19.85-9.7-21.3-8.2-15.3q1.05 8.05 3.05 24.2z" id="bA"/><path fill="url(#f)" d="M503.85 849.7l-.25-1.6q-18.65-13.15-36.65-22.35-23.05-11.65-47.5-17.6l.3 1.2q24.45 6.15 46.7 17.45 17.8 9.05 37.4 22.9z" id="bB"/><path fill="url(#g)" d="M500.6 864.35l.5-1.05q-20.65-19-38.8-31.05-20.2-13.25-42.45-22.05.2.65.3 1.4 22.15 8.8 41.5 21.6 18.6 12.4 38.95 31.15z" id="bC"/><path fill="url(#h)" d="M492.6 876.15l.7-1q-18.3-21.7-35.6-36.55-17.4-14.85-37.4-26.1l.3 1.45q19.55 11.15 36.35 25.5 17.25 14.8 35.65 36.7z" id="bD"/><path fill="url(#i)" d="M486.85 892.1q1.423.638 1.7 1.45-.3-.958-.35-1.45-17.6-28.25-35-47.25-14.3-15.85-32.4-29.8l.3 1.65q17.3 13.5 31.25 28.85 17.6 19.5 34.5 46.55z" id="bE"/><path fill="url(#j)" d="M421.25 817.85q.15.65.3 1.95 14.75 15.3 26.35 31.8 12.95 18.4 24.45 41.65l1-.45Q462 869.65 448.8 850.9q-12.15-17.2-27.55-33.05z" id="bF"/><path fill="url(#k)" d="M421.75 821.15l.3 2.45q12.55 17.15 21.5 33.85 9.8 18.1 17.7 39.55.45-.1 1.2-.3-7.8-21-17.9-39.75-9.75-18.1-22.8-35.8z" id="bG"/><path fill="url(#l)" d="M422.3 825.35l.4 3.1q9.65 17.4 16.6 34.75 6.75 16.7 11.6 34.35.7.15 1.25.15-5.15-18.45-11.75-34.9-7.45-18.45-18.1-37.45z" id="bH"/><path fill="url(#m)" d="M418.2 808.8q6.446 23.209 21.35 37 12.55 11.6 29.65 15.3-5.4-21.7-15.2-33.7-13.097-16.112-35.8-18.6m-8.6.8l-1.9.35q.12.393 1.9-.35m0 0l5.8-1.05q1.427.101 2.8.25-.196-.768-.4-1.55-.4-1.55-5.15.9-1.882.97-3.05 1.45z" id="bI"/><path fill="#77372B" d="M450.85 836.7q-1.3-.55-2.8-.05-2.3.8-3.6 2.65-1.6 2.15.05 4 1.7 1.85 2.95-.25 1.4-2.25 3.4-2.75.85-.2 1.25-.8.4-.6.15-1.25-.3-1-1.4-1.55z" id="bJ"/><path fill="url(#n)" d="M477.75 825.5q-1.3 0-2.05.9-.8.95-.6 2.25.2 1.3 1.3 2.25 1.1.9 2.4.9 1.35 0 2.15-.9.75-1 .55-2.3-.2-1.35-1.3-2.25-1.15-.85-2.45-.85z" id="bK"/><path fill="url(#o)" d="M483.1 871.15l2.5-2.7q.4-.5.35-1.1-.05-.6-.5-.95-.5-.35-1.1-.35-.55.05-.95.45l-2.4 2.55q-3 2.85-6.9 5.4-.55.35-.7.95-.15.55.2 1.05.3.55.9.7.65.15 1.2-.2 4.4-2.95 7.4-5.8m-31.45 11.7q-.6.1-.95.6-.35.45-.3 1.05.1.6.65 1 .5.35 1.1.25 4.25-.75 8.2-1.95l3.35-1.05.1-.1q.6-.2.85-.75.3-.55.1-1.1-.2-.6-.8-.85-.5-.25-1.1-.05h-.05l-3.25 1.1q-4.5 1.3-7.9 1.85M442.5 886q.4.45 1 .45l3.6-.05q.3-.1.7-.1.1 0 .8-.05v-.05q.65-.05 1.05-.55.35-.45.25-1.05-.05-.6-.5-.95-.5-.4-1.1-.35l-1.4.15q-2.75.1-3.35.05-.65 0-1.05.45-.45.4-.45 1 0 .65.45 1.05m49.45-28.35q.25-.55 0-1.05-.25-.6-.85-.8-.55-.2-1.1.05t-.8.8l-.85 2.15q-1.1 2.4-2.8 5-.35.5-.25 1.05.1.6.6.95t1.1.25q.6-.1.9-.6 1.8-2.5 3.1-5.5.2-.3.5-1.15l.45-1.15z" id="bL"/><path fill="#CB8B5B" d="M408.8 810.65q.1 0 1.3-.5l5.3-1 2.4.2q4.85 17.2 14.4 29.3 8.3 10.5 19.8 16.7 3.7 2.05 8.5 3.85 4.2 1.55 8.5 2.45l.05.05.95.15-.3-.85q-2.45-9.95-5.6-17.45-4.05-9.6-9.65-16.55-13.25-16.15-35.8-18.7l-.3-1.2q-.35-1.5-2.6-.9-1.45.4-4.45 2l-1.6.8-2.05.45-.65.05.2.65q.2.8 1.6.5m6.6-2.65h-.15l-1.65.3q1.25-.6 2.45-1.05 1.1-.25 1.15.15l.25.75-2.05-.15m17.75 30.05q-9.35-11.8-14.15-28.55 21.75 2.65 34.55 18.2 9.5 11.65 14.85 32.65-4.1-1-7.5-2.25-4.25-1.5-8.35-3.75-11.25-6-19.4-16.3z" id="bM"/><path fill="url(#p)" d="M452.75 841q-1.3-.4-2.7-.1-3.63.895-2.45 5.05-.927-2.991-4.4-1.85-3.55 1.2-2.35 5.15.1.7.25 1.05-.55-1.35-1.15-2.2-1.05-1.7-2.15-1.6-1 .05-1.75 1.3-.85 1.6-1.25 5.05-.3 2.5-.25 3.95.3 9.65 2.75 8.85 2.5-.7 3.25-1.2 1.9-1.4 2.2-4.9v-1.95q1.05 3.7 2.7 4.6 3.6 2.15 6.15-1.05 2.5-3.05 1.3-7.1.05.15.9.4 1 .25 1.8.05 2.45-.5 1.3-4.45 1.35 2.7 3.8 3.5 2.25.75 4.15-.25 2-1.1 2.2-3.3.25-2.5-2.1-5.35 1.6 1.2 3.45 1.1 1.85-.15 2.95-1.4 1.75-2 .2-4.4 2.4 1.05 3.4-.2.8-1.05 0-2.65.95.1 1.35-.45.5-.55.15-1.5-.35-1-1.3-1.8-.95-.85-1.95-1-1.05-.2-1.55.4-.35.5-.2 1.15-2-.8-2.95.3-1 1.05.1 3-2.1-1.15-4.45-1.3-2.4-.15-3.25.8-.65 1-.2 2.25-2.45-1.55-4.65-.8-2.55.8-1.7 4.2-.25-.9-1.6-1.35z" id="bN"/><path fill="url(#q)" d="M466.1 836.2l5.75 4.2-.3-.45q1.3.5 2.2.35l-5.55-4q.05.3.4.9-1.1-.6-2.5-1z" id="bO"/><path fill="url(#r)" d="M457.7 838.6l-.8-.65q-.85.1-1.3.35.5.55 1.35 1.15 6.6 5.8 10 9.15-.25-1.35-1.05-2.65-3.75-3.45-8.2-7.35z" id="bP"/><path fill="url(#s)" d="M448.6 841.55l8.5 9.4-.2-.9q1.25 2.7 3.95 3.6-4.25-5.05-7.65-8.8l-3.5-3.9q-.65.2-1.1.6z" id="bQ"/><path fill="url(#t)" d="M443.8 844q-.45.05-1.15.35 1.7 2.4 5.25 7.25l4.95 7.2q.3-.8.3-1.5l-4.35-6.4q-1.9-2.8-5-6.9z" id="bR"/><path fill="url(#u)" d="M444.55 856.95q-3.45-6.45-5.65-10.1-.75-.5-1.55-.25 3.7 6.2 6.2 10.85l2.75 5.2q.7.25 1.45.35-1.15-2.4-3.2-6.05z" id="bS"/><path fill="url(#v)" d="M440.9 864.1l-.5-1.3q-1.95-4.9-5.25-12.2-.2.95-.3 2.05 3.3 7.55 4.45 10.55l.65 1.6.95-.7z" id="bT"/><path fill="#77372B" d="M448.7 824.5q-.5-1.55-2.15-2.35-1.9-.85-4.15-.05-3.4 1.25-5.4 3.9-2.35 3.25.15 6 1 1.1 2.2 1.05 1.35 0 2.2-1.45 2-3.35 5.05-4.05 1.3-.3 1.9-1.2.5-.85.2-1.85z" id="bU"/><path fill="#5F2B29" d="M436.1 821.1q-1.6-.75-3.5-.1-2.8 1.1-4.45 3.35-2 2.65.1 4.95 2.1 2.25 3.65-.35 1.9-2.85 4.25-3.3 1.1-.3 1.55-1.05.45-.75.2-1.55-.35-1.3-1.8-1.95z" id="bV"/><path fill="#5F2B29" d="M451.35 830.9q-.6-1.75-2.5-2.55-2.1-.95-4.55-.05-3.75 1.3-5.9 4.3-2.65 3.55.15 6.6 1.1 1.2 2.4 1.15 1.5 0 2.45-1.6 2.15-3.65 5.55-4.5 1.45-.3 2.1-1.3.6-.95.3-2.05z" id="bW"/><path fill="#6E332A" d="M432.55 815.65q-1.3-.6-2.8-.05-2.25.8-3.55 2.6-1.6 2.15.1 4 1.7 1.85 2.95-.25 1.35-2.25 3.3-2.75.95-.2 1.3-.8.35-.55.15-1.25-.3-1-1.45-1.5z" id="bX"/><path fill="url(#w)" d="M442.65 778.6q-7.1 6.65-12.85 13.25-5.2 5.95-6.35 9.85-1.05 3.45 1.05 5.7 2.95 3.15 12.8 4.25 13.2 1.4 30 5.4 9.75 2.4 29.35 7.65 8.45 2.15 13.85 1.75 7.2-.6 12-5.65 6.35-6.75 10.2-20.4 4.1-17.7 7.15-28.55 3.7-13.25 2.2-22.25-1.45-8.75-7.6-12.05-3.95-2.1-9.95-2.35-5.75-.25-11.75 1.3-18.5 4.9-37.3 16.55-16.65 10.35-32.8 25.55z" id="bY"/><path fill="url(#x)" d="M439.4 778.75q-6.1 5.7-12.7 12.95-5.05 5.85-6.15 9.65-1.05 3.45 1 5.55 2.8 3.15 12.65 4.25 12.95 1.35 29.55 5.3 9.65 2.35 29 7.5 8.3 2.15 13.65 1.7 7.1-.55 11.85-5.5 6.25-6.55 10.05-19.95 4.05-17.35 7.05-28 3.7-12.95 2.15-21.75-1.45-8.55-7.55-11.8-3.85-2.05-9.7-2.2-5.55-.15-11.6 1.4-18.3 4.75-36.8 16-16.55 10.1-32.45 24.9z" id="bZ"/><path fill="url(#y)" d="M491.45 814.75l23.25 7.15 1.45.15q1.75-1.5 2.1-1.9 1.75-1.85 2.85-3.45l-7.35-2.95-13.65-3.8-16.35-3.25-15.7-2-15.65-.55-24.05.75-6.05 1.45-.6.7q.6.7 1.65 1.3l23.3.15 15.7 1.3 16.3 2.5 12.8 2.45z" id="ca"/><path fill="url(#z)" d="M487 800.65l22.6 4.4 9.85 2.85 5.45 2.05q1.3-2.95 2.85-7.7l-3.6-1.25-23.4-5.3-8.45-1.45-21.6-.9-9.65.55-7 2.85-9.4 3.2 14.2-.95 13.6.15 14.55 1.5z" id="cb"/><path fill="url(#A)" d="M484.1 780.1l-4.6 3.4-7.05 4.2 8.9-.75 11.55.25 13.6 1.4 23.45 5.2q.1-.3 2.15-9l-18.85-3.75-11.15-1.15-11.6-.2-6.4.4z" id="cc"/><path fill="url(#B)" d="M492.8 771.25l15.35.45 9.55.8 10.9 1.5 5.85 1.45q.35-1.45.9-3.25 1-3.4 1.75-7.5l-18.35-2.35-10.05.15-8.1.85-3.25 4.3-4.55 3.6z" id="cd"/><path fill="url(#C)" d="M480.7 755.35L469.4 762l-10.85 7.7-6.9 6.4 3.35-2.45 9.35-5.35L488 758.1l10.35-3.1 12.7-1.95 11.8-1.15 14.95 1q-.75-8.25-5.25-12.45l-14.95 1.65-13.2 3.2-11.45 4.2-12.25 5.85z" id="ce"/><path fill="url(#D)" d="M537.1 764.65q1.15-6.5.7-11.95-.8.5-1.45 2.05-.7 1.6-.9 3.65-.2 2.4.25 4.2.45 1.85 1.4 2.05z" id="cf"/><path fill="url(#E)" d="M537.1 764.7l-.45-.15q-.9-.15-1.8 1.4-.9 1.6-1.2 3.95-.3 1.8-.05 3.4.25 1.5.85 2.15.35-1.45.9-3.25 1-3.4 1.75-7.5z" id="cg"/><path fill="url(#F)" d="M534.45 775.5q-.05-.1-.4-.2-.8-.15-1.7 1.25-.9 1.45-1.25 3.55-.35 1.95-.15 3.5.25 1.55.95 2 1.95-7.9 2.55-10.1z" id="ch"/><path fill="url(#G)" d="M530.5 786.25q-.85 1.15-1.25 2.95-.45 1.85-.25 3.25.2 1.45.9 1.65l2.1-8.85q-.7-.2-1.5 1z" id="ci"/><path fill="url(#H)" d="M527.65 802.35q1.4-4.65 2.3-8.55-.7.1-1.45 1.15-.75 1.05-1.2 2.6-.55 1.85-.45 3.2.1 1.4.8 1.6z" id="cj"/><path fill="url(#E)" d="M524.4 808.3q-.05 1.25.45 1.65 1.3-2.85 2.8-7.6-.65 0-1.4.9-.75.9-1.25 2.3-.6 1.45-.6 2.75z" id="ck"/><path fill="url(#I)" d="M521.25 816.5q1.8-2.6 3.55-6.35-.55-.35-1.45.4-.85.75-1.5 2.1-.65 1.2-.8 2.3-.2 1.05.2 1.55z" id="cl"/><path fill="url(#J)" d="M518.25 820.15q1.6-1.7 2.7-3.4-.45-.4-1.45.05-1 .5-1.9 1.55-.95 1.05-1.3 2.05-.35 1.05 0 1.55l1.95-1.8z" id="cm"/><path fill="url(#K)" d="M535.7 751.1q1.05 1.4 2.1 1.95-.6-8.3-5.15-12.55-.4 1.2-.1 3.15.3 2 1.25 4.1.8 1.9 1.9 3.35z" id="cn"/><path fill="url(#L)" d="M515.5 822.55l1.05-.9q-22.85-7.85-45.75-11.3-11.85-1.7-24.9-2.35-9.95-.5-23.7-.45.7.6 1.85 1.15 12.6-.05 22.75.5 12.35.65 23.85 2.3 22.4 3.35 44.85 11.05z" id="co"/><path fill="url(#M)" d="M520.9 816.9l.7-1q-24.75-8.25-46.8-10.95-13.3-1.55-25.85-1.45-10.75.1-25.6 1.55.3.85.55 1.05 14.75-1.4 25.3-1.45 12.4-.1 25.45 1.45 22.5 2.75 46.25 10.8z" id="cp"/><path fill="url(#N)" d="M524.7 810.3l.5-1.1q-24.7-8.05-46.2-10-13.9-1.25-26.35-.5-11.85.75-27.5 3.65l.1 1.1q15.55-2.85 27.45-3.55 12.3-.75 26.2.45 21.3 1.95 45.8 9.95z" id="cq"/><path fill="url(#O)" d="M527.5 802.75l.4-1.1q-24.4-7.35-44.5-8.65-13.3-.75-27.2.95-13.45 1.65-29.7 5.85l.2 1.15q16.2-4.2 29.55-5.85 13.85-1.7 27.05-.95 20 1.3 44.2 8.6z" id="cr"/><path fill="url(#P)" d="M488.05 786.4q-12.85-.35-26.5 2.05-13.4 2.35-30.15 7.8l.3 1.1q16.65-5.4 30-7.75 13.6-2.4 26.3-2.05 18.3.4 41.8 6.9l.25-1.1q-23.85-6.55-42-6.95z" id="cs"/><path fill="url(#Q)" d="M511.9 780.35q-9.9-1.4-19-1.25-12.25.2-25.65 3.3-13.35 3.1-30.65 9.75l.35 1.1q17.1-6.65 30.5-9.75 13.25-3.05 25.5-3.25 16.4-.25 38.95 5.25.1-.2.3-1.15-11.4-2.75-20.3-4z" id="ct"/><path fill="url(#R)" d="M442.1 787.3l.4 1.1q17.6-7.85 30.95-11.7 13-3.7 24.75-4.4 8.35-.45 17.5.55 7.95.85 18.65 3.05l.3-1.15q-10.75-2.2-18.8-3.1-9.25-1-17.7-.55-11.75.7-24.9 4.5-13.4 3.85-31.15 11.7z" id="cu"/><path fill="url(#S)" d="M448.05 781.7l.4 1q18.35-9.05 31.5-13.6 12.9-4.45 23.9-5.6 7.75-.8 16.15-.25 7.05.45 16.95 2.1l.2-1.15q-9.95-1.65-17.1-2.1-8.45-.55-16.3.25-11.2 1.2-24.1 5.65-13.4 4.6-31.6 13.7z" id="cv"/><path fill="url(#T)" d="M454.45 774.95l.4 1q30.35-16.6 48.55-21 14.6-3.55 34.5-1.4l-.15-1.15q-19.85-2.15-34.6 1.4-18.25 4.45-48.7 21.15z" id="cw"/><path fill="url(#U)" d="M445.85 779.25l.65.95q27.2-23.35 50.7-31.95 16.6-6.15 35.85-7.3l-1.2-1.05q-18.4 1.1-35 7.25-23.55 8.6-51 32.1z" id="cx"/><path fill="url(#V)" d="M507.45 753.4q-5.85.5-16.4 3.85-12.55 4-24.45 10.05-32.65 16.45-44.05 39.05 18.65-5.35 24.8-7.4 12.9-4.3 22.1-9.2 22.35-11.95 38-36.35z" id="cy"/><path fill="#AA5B2D" d="M475.45 764.8q-1 1.1-.95 2.85.15 2.6 1.6 4.55 1.75 2.35 4.2 1.2 2.45-1.15.65-3.15-1.9-2.25-1.75-4.3.1-1.05-.4-1.6-.45-.55-1.25-.55-1.2 0-2.1 1z" id="cz"/><path fill="#93482B" d="M470.3 773q-1.25 1.7-.95 4.1.55 3.7 2.8 6.2 2.75 3 6 1.05 1.3-.8 1.55-2 .25-1.35-1-2.5-2.95-2.7-2.95-5.85-.05-1.4-.85-2.15-.75-.7-1.8-.6-1.7.2-2.8 1.75z" id="cA"/><path fill="#A0512C" d="M461.05 770.8q-1.35 1.65-1.15 4.2.25 3.85 2.3 6.85 2.55 3.55 5.9 1.95 1.3-.65 1.65-1.9.3-1.4-.85-2.8-1.35-1.65-1.9-2.95-.7-1.65-.6-3.5.05-1.5-.7-2.4-.7-.85-1.75-.85-1.65-.1-2.9 1.4z" id="cB"/><path fill="#98482B" d="M448.7 778.55q-1.65 0-2.9 1.4-1.3 1.5-1.25 3.85.25 3.5 2.2 6.25 2.35 3.2 5.65 1.65 1.35-.6 1.7-1.75.35-1.3-.75-2.55-2.65-2.9-2.35-6 .05-1.35-.6-2.1t-1.7-.75z" id="cC"/><path fill="#A0512C" d="M481.1 765.1q-1.25 1.4-1.2 3.5.25 3.2 1.95 5.6 2.1 2.85 5.15 1.45 3-1.35.75-3.8-2.25-2.65-2.05-5.35.1-1.2-.55-1.95-.6-.7-1.55-.7-1.4 0-2.5 1.25z" id="cD"/><path fill="#8C432B" d="M444.15 788.35q-1.35 0-2.35 1.2-1.15 1.3-1.05 3.25.15 3 1.8 5.2 1.95 2.65 4.75 1.35 2.8-1.3.75-3.6-2.15-2.4-1.95-4.95.1-1.15-.5-1.8-.55-.65-1.45-.65z" id="cE"/><path fill="url(#W)" d="M480.7 760.35q-21.45 8.4-36.85 20.4-6.85 5.5-12.4 11.6-5.65 6.5-9.35 13.7l-.5 1 .1.05 4.95-1.35q16.15-4.6 23.55-7.2 12.15-4.2 21.05-9.15 21.4-11.9 36.6-35.65l.65-1-1.15.1q-9.6.8-26.65 7.5m-36.2 21.35q14.75-11.5 35.2-19.75 16.25-6.55 26.55-7.8-14.9 22.9-35.95 34.45-13.1 7.2-43.95 16-2.1.65-2.75.8 3.5-6.4 8.65-12.25 5.65-6.3 12.25-11.45z" id="cF"/><path fill="#FFF" d="M510.4 748.7q-.75-.45-1.8-.45-1.1 0-1.9.4-.8.35-.8.95-.05.6.7 1.05.8.4 1.9.4 1.05.05 1.85-.35.75-.4.8-.95 0-.6-.75-1.05z" id="cG"/><path fill="#FFF" d="M515.55 767q-1.8-.45-3.8.4-1.95.8-3.05 2.45-1.05 1.65-.55 3.1.55 1.45 2.3 1.9 1.8.45 3.75-.35 2-.85 3.05-2.45 1.05-1.65.55-3.1-.5-1.5-2.25-1.95z" id="cH"/><path fill="#FFF" d="M502.25 793.25q-1-.5-2-.1-.95.35-1.35 1.5-.45 1.1-.05 2.25t1.35 1.7q1 .55 1.95.1.95-.35 1.4-1.5.45-1.1.05-2.25-.4-1.2-1.35-1.7z" id="cI"/><path fill="#FFF" d="M507.35 778.5q-.7.4-1.3 1.25-.65.85-.85 1.6-.15.8.2 1.15.35.25 1-.1.7-.4 1.3-1.25.6-.85.8-1.6.2-.8-.15-1.15-.3-.25-1 .1z" id="cJ"/><path fill="#FFF" d="M525.35 772.2q-.15 1.35.3 2.4.4 1.05 1.2 1.15.8.1 1.45-.8.7-.95.85-2.3.2-1.35-.3-2.4-.45-1.05-1.2-1.15-.8-.1-1.45.8-.7.9-.85 2.3z" id="cK"/><path fill="#FFF" d="M516.1 752.05q-1.25-.55-2.75-.15-1.55.45-2.4 1.55-.9 1.05-.65 2.1.25 1.15 1.45 1.7 1.2.5 2.75.1t2.45-1.45q.9-1.1.65-2.2-.2-1.1-1.5-1.65z" id="cL"/><path fill="#FFF" d="M521.75 778.1q-.75-.75-1.5-.6-.75.15-1.3 1.05-1 1.7-1.65 3.95-.45 1.8-.45 2.4 0 1.85 1.65 1.8.7-.05 2.75-.8 1.35-.5 2-1.1.8-.6.85-1.45 0-.7-.55-2-1.15-2.6-1.8-3.25z" id="cM"/><path fill="#FFF" d="M507.95 739.5q-1.4-.2-2.4 1.1-1.1 1.4-.5 3.25 1.45 4.55 6.25 3.6-2.4-.95-1.95-4.1.7-3.4-1.4-3.85z" id="cN"/><path fill="#FFF" d="M482.35 784.6q.45.7 1.55.65 1.1 0 2.15-.75 1.1-.75 1.55-1.75.45-1.05.05-1.75t-1.5-.7q-1.05.05-2.1.75-1.1.75-1.6 1.8-.45 1.05-.1 1.75z" id="cO"/><path fill="url(#X)" d="M483.9 752.5q-1.7.6-3.45 2.1-1.85 1.55-2.6 3.2-.85 1.75-.25 2.8.65 1.15 2.9.5 1.2 7.25 5.45 8.85 3.15 1.2 3.35 1.35 1.25.75 1.95 2.8.9 2.5 2.65 3.15 1.6.6 3.1-.45 2.05-1.4 2.25-4.05.25-3-2.4-5.45 1.9-1.3 1.35-2.95-.45-1.4-2-2.1-2.15-.9-3.65-3.1-.8-1.2-2.2-4.3-1.1-2.6-2.95-2.95-1.15-.2-3.5.6z" id="cP"/><path fill="url(#Y)" d="M480.85 786.3q-2.95-.6-6.3.05-4.45.85-2.55 3.85.85 1.4.75 2.5-.05.45-.55 1.7-.45 1.1-.1 2.35.35 1.3 1.35 1.75.5.3 1.65.2-.2 7.45 1.3 11.3 1.4 3.45 4.25 4.75 1.2.6 2.35.2 1.3-.45 1.6-1.9.15-.7-.15-2.1-.35-1.5-.3-2.15.1-1 1.15-2 1.3-1.25 1.55-1.75.8-1.5-.35-3.25-1.25-1.95-3.85-2.25 1.5-.2 2.2-1.45.7-1.25.45-3-.6-4.75-1.75-6.75-.9-1.55-2.7-2.05z" id="cQ"/><path fill="url(#Z)" d="M484.7 812.8l-7.65-1.45q.45.85.95 1.4 4.3.75 6.25 1.2.3-.5.35-.9 0-.15.1-.25z" id="cR"/><path fill="url(#aa)" d="M485.55 806.55q-5.6-.95-10.3-1.5l.15 1.15 9.2 1.35q.05-.1.95-1z" id="cS"/><path fill="url(#ab)" d="M483.25 799.65l-8.15-.75v1.15l3.8.3q1.95.15 7.15.8-.95-1-2.8-1.5z" id="cT"/><path fill="url(#ac)" d="M485.05 793.15l-1.65-.15q-4.95-.3-10.7-.2-.1.8-.35 1.15 5.9-.1 10.95.2l1.9.15q0-.1-.15-1.15z" id="cU"/><path fill="url(#ad)" d="M481 786.4q-2.55.05-8.3.55-.95.45-1.2 1.25 7.05-.65 11.45-.75-.8-.7-1.95-1.05z" id="cV"/><path fill="#F3E5DA" d="M503.75 795.6l-4.9-.85q-.2.45-.2 1.15l5.05.85q.1-.85.05-1.15z" id="cW"/><path fill="#F3E5DA" d="M506.05 779.7v.05q-.4.4-.65 1l2.4.25q.5-.7.55-1.1l-2.3-.2z" id="cX"/><path fill="#F3E5DA" d="M524 782.5q-3.3-.7-6.35-1.2 0 .2-.35 1.15 3.95.65 6.75 1.3.05-.25-.05-1.25z" id="cY"/><path fill="#F3E5DA" d="M517.35 771.85q-5.4-.6-9.2-.8l-.15 1.15q4.65.25 8.55.65.4-.3.8-1z" id="cZ"/><path fill="#F3E5DA" d="M525.35 773q0 .1.15 1.15l2.95.6.5-1.1q-.3-.1-3.6-.65z" id="da"/><path fill="#F3E5DA" d="M515.2 751.85q-.75 0-2.15.2-1.35.45-2.15 1.45 4.3-.6 6.25-.65-.7-.9-1.95-1z" id="db"/><path fill="#F3E5DA" d="M505.75 745.4l3.55-.9.05-1.15q-1.31.28-4.1 1.05l.5 1z" id="dc"/><path fill="url(#ae)" d="M490.95 773.2l.4 1.15q3.3-3.2 6.05-6.45l-.55-.6q1.4-1 1.5-2.2-3.8 4.55-7.4 8.1m-12.45-11.95q.75.2 2-.15l.05.5q5.6-2.15 11.1-3.95l-.5-1q-6.65 2.15-12.65 4.6z" id="dd"/><path fill="#8C432B" d="M452.4 779.45q-1.5 1.7-1.4 4.35.15 3.75 2.35 6.9 2.65 3.55 6.3 1.8 1.5-.7 1.85-1.95.45-1.4-.8-2.8-2.85-3.2-2.6-6.6.1-1.5-.65-2.4-.75-.85-1.95-.85-1.75 0-3.1 1.55z" id="de"/><path fill="#77372B" d="M437.45 790.35q-1.05 0-1.9.95-.9 1.05-.85 2.65.15 2.45 1.45 4.15 1.6 2.15 3.8 1.1 2.25-1.05.65-2.9-1.7-1.9-1.65-4 .1-.9-.35-1.45-.4-.5-1.15-.5z" id="df"/><path fill="#803C2A" d="M462.1 780.9q-.9 1.05-.85 2.6.15 2.35 1.45 4.2 1.6 2.15 3.85 1.1 2.2-1.1.55-2.9-1.65-1.9-1.6-3.95.1-.95-.35-1.5-.45-.55-1.15-.55-1.1.1-1.9 1z" id="dg"/><path fill="#803C2A" d="M477.3 770.45q-.6.7-.55 1.7.2 1.75 1 2.7 1.05 1.45 2.5.75 1.45-.65.4-1.9-1.15-1.35-1-2.6 0-1.35-1.1-1.35-.7.1-1.25.7z" id="dh"/><path fill="#77372B" d="M410.1 832.6q2-18.9 4.9-28.7l-5 .9q-19.3 4.5-35.15 10.35-20.15 7.45-32.15 16.25-22.75 16.65-8.85 39.15 7.1 11.65 7.55 12.65 3.238 7.423.8 14.55.363-.879 2.6-1.9 2.45-1.05 5.45-1.4 4.1-.5 9.45 1.45 3 1.1 9.15 3.4 17.25 4.7 26.65-6.4 7.5-8.9 11.05-29.95 1-5.95 3.55-30.35z" id="di"/><path fill="url(#af)" d="M410.65 836.45q3-24.65 6.15-35.45l-5 .85q-18.1 4.25-35.1 10.95-19.9 7.85-32.15 16.85-12.85 9.45-14.05 20.05-.95 8.1 5.15 17.9 2.6 4.25 8.25 11.9 3.992 6.886 1.9 14.05.587-1.804 5.25-2.35 5.1-.65 9.55 1.45 19.4 8.9 30.45 2.3 9.2-5.5 13.85-22.95 2.65-10 5.75-35.55z" id="dj"/><path fill="url(#ag)" d="M365.1 837.8l12.2-8.65 10.4-4.05 6.55-10.25-20.55 8.45-15.1 7.5-16.85 10.3-11.1 7.4q-1.2 7.1 2.85 15.3l9.55-8.5 22.05-17.5z" id="dk"/><path fill="url(#ah)" d="M341.3 875.6q3.35 4.5 4.45 7.95 1.55 4.65.1 9.75l13.75-20.45 10.5-14.6 8.5-9.3-5.95-6.4-16.95 16.9-14.4 16.15z" id="dl"/><path fill="url(#ai)" d="M377.4 882.95l7.1-15 8.6-15.7 7.9-12.85-10.95 6.05-11.7 17.7-17.3 29.65q6 2.8 11.45 4.05l4.9-13.9z" id="dm"/><path fill="url(#aj)" d="M408.75 851.4q2-16.15 3.05-24.2l-8.2 15.3-9.7 21.3-7.05 19.85-3.9 14q15.15-1.7 21.55-24.15 2.4-8.4 4.25-22.1z" id="dn"/><path fill="url(#ak)" d="M414.7 809.35l.3-1.2q-24.5 5.95-47.6 17.6-17.8 9.05-36.65 22.35-.25 1.25-.25 1.6 19.75-13.95 37.4-22.9 22.3-11.3 46.8-17.45z" id="do"/><path fill="url(#al)" d="M414.25 811.6q.15-.95.3-1.4-22.4 8.75-42.5 22.05-18.65 12.4-38.8 31.05l.5 1.05q20.1-18.55 38.95-31.15 19.5-12.9 41.55-21.6z" id="dp"/><path fill="url(#am)" d="M413.85 813.95l.2-1.45q-20.3 11.4-37.35 26.1-17.3 14.8-35.65 36.55l.7 1q18.4-21.9 35.65-36.7 16.9-14.45 36.45-25.5z" id="dq"/><path fill="url(#an)" d="M413.3 816.7l.3-1.65q-18.05 13.9-32.45 29.8-17.55 19.3-35 47.25-.05.492-.35 1.45.277-.812 1.7-1.45 16.9-27.05 34.5-46.55 14-15.4 31.3-28.85z" id="dr"/><path fill="url(#ao)" d="M412.8 819.8l.3-1.95q-15.9 16.4-27.55 33.05-13.2 18.75-24.55 41.9l1 .45q11.5-23.25 24.45-41.65 11.6-16.5 26.35-31.8z" id="ds"/><path fill="url(#ap)" d="M412.25 823.6q.3-1.55.35-2.45-13.05 17.7-22.8 35.8-10.1 18.75-17.9 39.75.1 0 1.1.3 8.15-21.7 17.8-39.55 8.9-16.55 21.45-33.85z" id="dt"/><path fill="url(#aq)" d="M411.6 828.45l.45-3.1q-10.65 19-18.1 37.45-6.6 16.45-11.75 34.9.6 0 1.25-.15 4.85-17.65 11.6-34.35 6.9-17.15 16.55-34.75z" id="du"/><path fill="url(#ar)" d="M365.15 861.1q17.05-3.7 29.65-15.3 14.859-13.746 21.4-37-22.74 2.47-35.85 18.6-9.8 11.95-15.2 33.7m59.65-51.5q-1.136-.447-3.1-1.45-4.65-2.45-5.05-.9-.208.78-.45 1.55 1.395-.15 2.8-.25l5.8 1.05z" id="dv"/><path fill="#77372B" d="M386.3 836.65q-1.5-.5-2.75.05-1.15.55-1.45 1.55-.25.7.1 1.25.35.6 1.3.8 2 .5 3.4 2.75 1.3 2.1 2.95.25 1.65-1.85.05-4-1.25-1.8-3.6-2.65z" id="dw"/><path fill="url(#as)" d="M358.7 826.4q-.8-.9-2.1-.9-1.35 0-2.45.85-1.1.9-1.3 2.25-.25 1.35.55 2.3.8.9 2.15.9 1.3 0 2.4-.9 1.1-.95 1.3-2.25.25-1.3-.55-2.25z" id="dx"/><path fill="url(#at)" d="M384.4 884.6q-.05.6.3 1.05.4.5 1 .55l.05.05.7.05q.5 0 .8.1l3.6.05q.6 0 1.05-.45.4-.4.4-1.05 0-.6-.45-1-.45-.45-1.05-.45-.6.05-3.3-.05l-1.45-.15q-.6-.05-1.1.35-.45.35-.55.95m-14-4.65q-.6.25-.8.85-.2.55.1 1.1.25.55.8.75l.05.1h.1l3.3 1.05q4.05 1.2 8.25 1.95.6.1 1.1-.25.5-.4.55-1 .1-.55-.2-1.05-.35-.5-.95-.6-3.4-.55-7.9-1.85l-3.25-1.1h-.05q-.55-.2-1.1.05m-9.5-4.55q-.1-.6-.65-.95-3.9-2.55-6.9-5.4l-2.4-2.55q-.35-.4-.95-.45-.6 0-1.1.35-.45.35-.5.95-.05.6.35 1.1l2.5 2.7q3.05 2.95 7.45 5.8.55.35 1.1.2.55-.15.9-.7.3-.5.2-1.05M346 858.8l-.85-2.15q-.25-.55-.8-.8t-1.1-.05q-.55.25-.8.8t-.05 1.05l.45 1.15q.3.85.5 1.15 1.2 2.8 3 5.5.4.5 1 .6.6.1 1.1-.25.5-.35.6-.95.1-.55-.25-1.05-1.7-2.6-2.8-5z" id="dy"/><path fill="#CB8B5B" d="M425.55 810.65q1.35.3 1.6-.5l.2-.65-.65-.05-2.05-.45q-1.05-.5-1.7-.8-2.8-1.6-4.3-2-2.2-.6-2.6.9l-.3 1.2Q393 810.85 379.9 827q-5.6 6.9-9.65 16.55-3.1 7.45-5.65 17.45l-.25.85.95-.15.05-.05q4.6-1 8.45-2.45 4.6-1.65 8.55-3.85 11.5-6.2 19.85-16.7 9.55-12.05 14.45-29.3l2.35-.2 5.25 1q1.2.5 1.3.5m-6.4-2.65H419l-2 .15.2-.75q.15-.4 1.15-.15.8.25 2.45 1.05l-1.65-.3m-37.35 46.35q-4.1 2.25-8.35 3.75-3.25 1.2-7.5 2.25 5.35-21 14.85-32.65 12.6-15.55 34.6-18.2-4.85 16.75-14.2 28.55-8.15 10.3-19.4 16.3z" id="dz"/><path fill="url(#au)" d="M365.75 837.2q1.05-1.9.1-3-.95-1.1-2.95-.3.15-.65-.2-1.15-.5-.6-1.5-.4-1 .15-2 1-.95.8-1.3 1.8-.35.95.15 1.5.4.55 1.35.45-.8 1.6 0 2.65.5.6 1.4.65.9 0 1.9-.45-1.4 2.45.3 4.4 1.1 1.25 2.95 1.4 1.85.1 3.45-1.1-2.35 2.85-2.1 5.35.2 2.2 2.15 3.3 1.95 1 4.2.25 2.45-.8 3.8-3.5-1.15 3.95 1.3 4.45.8.2 1.8-.05.85-.25.9-.4-1.2 4.05 1.3 7.1 2.55 3.2 6.15 1.05 1.55-.85 2.7-4.6-.15 1 0 1.95.3 3.5 2.2 4.9.75.5 3.25 1.2 2.45.8 2.75-8.85.05-1.45-.25-3.95-.4-3.45-1.3-5.05-.75-1.25-1.7-1.3-1.1-.1-2.15 1.6-.589.834-1.15 2.15.157-.349.25-1 1.2-3.95-2.35-5.15-3.473-1.141-4.45 1.85 1.23-4.155-2.4-5.05-1.35-.3-2.7.1-1.35.45-1.6 1.35.85-3.4-1.65-4.2-2.25-.75-4.7.8.45-1.25-.2-2.25-.85-.95-3.25-.8-2.4.15-4.45 1.3z" id="dA"/><path fill="url(#av)" d="M365.75 837.2l.4-.9-5.55 4q.95.15 2.1-.35l-.2.45 5.75-4.2q-1.4.4-2.5 1z" id="dB"/><path fill="url(#aw)" d="M377.4 837.95l-.7.65q-4.1 3.55-8.25 7.35-.8 1.3-1.05 2.65 3.4-3.35 10-9.15.85-.6 1.35-1.15-.45-.25-1.35-.35z" id="dC"/><path fill="url(#ax)" d="M377.25 850.95l8.5-9.4q-.45-.4-1.1-.6l-3.5 3.9q-4.25 4.65-7.65 8.8 2.7-.9 3.95-3.6l-.2.9z" id="dD"/><path fill="url(#ay)" d="M385.55 850.9q-.95 1.3-4.4 6.4.1.75.35 1.5l4.95-7.2q2.65-3.75 5.25-7.25-.7-.3-1.15-.35-2.3 3-5 6.9z" id="dE"/><path fill="url(#az)" d="M389.8 856.95q-2.05 3.65-3.2 6.05.8-.1 1.45-.35l2.75-5.2q2.5-4.65 6.2-10.85-.8-.25-1.55.25-2.2 3.65-5.65 10.1z" id="dF"/><path fill="url(#aA)" d="M393.95 862.8l-.5 1.3.95.7.65-1.6q1.75-4.3 4.45-10.55-.1-1.1-.3-2.05-3.3 7.3-5.25 12.2z" id="dG"/><path fill="#77372B" d="M391.95 822.1q-2.25-.8-4.1.05-1.7.8-2.15 2.35-.35 1 .15 1.85.55.9 1.9 1.2 3.05.7 5.05 4.05.85 1.45 2.2 1.45 1.2.05 2.2-1.05 2.5-2.75.05-6-1.85-2.6-5.3-3.9z" id="dH"/><path fill="#5F2B29" d="M406.05 829.3q2.1-2.3.15-4.95-1.85-2.35-4.45-3.35-1.9-.65-3.5.1-1.45.65-1.85 1.95-.25.85.25 1.55.45.75 1.55 1.05 2.4.5 4.2 3.3 1.6 2.6 3.65.35z" id="dI"/><path fill="#5F2B29" d="M383 830.9q-.3 1.1.3 2.05.65 1 2.1 1.3 3.45.85 5.55 4.5.95 1.6 2.45 1.6 1.3.05 2.4-1.15 2.8-3.05.15-6.6-2.15-3-5.95-4.3-2.5-.9-4.6.05-1.85.8-2.4 2.55z" id="dJ"/><path fill="#6E332A" d="M405.1 821.95q1.3 2.1 2.95.25 1.7-1.85.1-4-1.35-1.8-3.6-2.6-1.5-.55-2.75.05-1.15.5-1.45 1.5-.2.7.15 1.25.35.6 1.3.8 1.95.5 3.3 2.75z" id="dK"/><path fill="url(#aB)" d="M309.85 735.2q-6 .25-9.95 2.35-6.15 3.35-7.65 12.05-1.5 9 2.25 22.25 3.1 10.85 7.2 28.55 3.8 13.65 10.15 20.4 4.8 5.05 12 5.65 5.4.4 13.8-1.75 9.95-2.55 29.4-7.65 16.85-4 30-5.4 9.85-1.1 12.8-4.25 2.1-2.25 1.05-5.7-1.15-3.9-6.35-9.85-5.7-6.6-12.85-13.25-16.15-15.2-32.8-25.55-18.8-11.65-37.3-16.55-6-1.55-11.75-1.3z" id="dL"/><path fill="url(#aC)" d="M314.1 736.45q-5.85.15-9.7 2.2-6.05 3.25-7.55 11.8-1.55 8.8 2.15 21.75 3.05 10.65 7.05 28 3.8 13.4 10.05 19.95 4.7 4.95 11.8 5.5 5.4.45 13.65-1.7 9.85-2.5 29.05-7.5 16.6-3.95 29.55-5.3 9.7-1.05 12.65-4.25 2.1-2.1 1.05-5.55-1.1-3.8-6.2-9.65-6.05-6.75-12.7-12.95-15.9-14.8-32.45-24.9-18.5-11.25-36.85-16-6-1.55-11.55-1.4z" id="dM"/><path fill="url(#aD)" d="M412.05 806.35L406 804.9l-24.05-.75-15.65.55-15.7 2-16.35 3.25-13.65 3.8-7.35 2.95q1.1 1.6 2.85 3.45.35.4 2.1 1.9l1.45-.15 23.25-7.15 12.8-2.45 16.3-2.5 15.6-1.3 23.35-.15q1.05-.55 1.75-1.3l-.65-.7z" id="dN"/><path fill="url(#aE)" d="M380.25 796.75l-6.95-2.85-9.65-.55-21.6.9-8.45 1.45-23.4 5.3-3.6 1.25q1.75 5.25 2.85 7.7l5.4-2.05 9.9-2.85 22.55-4.4 14.55-1.5 13.65-.15 14.2.95-9.45-3.2z" id="dO"/><path fill="url(#aF)" d="M321.1 781.05l-18.85 3.75q2.1 8.7 2.15 9l23.45-5.2 13.6-1.4 11.55-.25 8.85.75-7-4.2-4.65-3.4-6.45-.4-11.5.2-11.15 1.15z" id="dP"/><path fill="url(#aG)" d="M315.6 762.35l-18.35 2.35q.75 4.1 1.75 7.5l.85 3.25 5.9-1.45 10.8-1.5 9.65-.8 15.35-.45-4.55-3.6-3.25-4.3-8.1-.85-10.05-.15z" id="dQ"/><path fill="url(#aH)" d="M316.75 742.1l-14.95-1.65q-4.65 4.2-5.25 12.45l14.95-1 11.8 1.15 12.6 1.95 10.45 3.1L370 768.3l9.35 5.35 3.35 2.45-6.9-6.4-10.95-7.7-11.2-6.65-12.25-5.85-11.45-4.2-13.2-3.2z" id="dR"/><path fill="url(#aI)" d="M296.55 752.7q-.45 5.45.7 11.95.95-.2 1.4-2.05.5-1.8.25-4.2-.2-2.05-.85-3.65-.7-1.55-1.5-2.05z" id="dS"/><path fill="url(#aJ)" d="M297.7 764.55l-.45.15q.75 4.1 1.75 7.5.25 1.1.9 3.25.6-.65.8-2.15.25-1.55 0-3.4-.3-2.35-1.2-3.95-.9-1.55-1.8-1.4z" id="dT"/><path fill="url(#aK)" d="M300.2 775.3q-.05.05-.3.2.6 2.2 2.55 10.1.7-.45.95-2 .2-1.55-.15-3.5-.35-2.1-1.3-3.55-.9-1.4-1.75-1.25z" id="dU"/><path fill="url(#aL)" d="M305.1 789.2q-.4-1.8-1.2-2.95-.85-1.2-1.55-1l2.1 8.85q.7-.2.9-1.65.2-1.4-.25-3.25z" id="dV"/><path fill="url(#aM)" d="M304.4 793.8q.9 3.9 2.3 8.55.7-.2.8-1.6.1-1.35-.45-3.2-.5-1.55-1.25-2.6t-1.4-1.15z" id="dW"/><path fill="url(#aN)" d="M306.7 802.35q1.2 4.05 2.75 7.6.55-.4.5-1.65 0-1.25-.6-2.75-.5-1.4-1.3-2.3-.75-.9-1.35-.9z" id="dX"/><path fill="url(#aO)" d="M309.55 810.15q1.75 3.75 3.55 6.35.35-.5.15-1.55-.15-1.1-.75-2.3-.65-1.35-1.5-2.1-.9-.75-1.45-.4z" id="dY"/><path fill="url(#aP)" d="M313.3 816.75q1.35 1.9 2.8 3.4l1.95 1.8q.4-.5 0-1.55-.35-1-1.3-2.05-.9-1.05-1.95-1.55-1-.45-1.5-.05z" id="dZ"/><path fill="url(#aQ)" d="M296.55 753.05q1.05-.55 2.1-1.95 1.15-1.45 1.9-3.35.95-2.1 1.25-4.1.3-1.95-.1-3.15-4.55 4.25-5.15 12.55z" id="ea"/><path fill="url(#aR)" d="M410.3 808.7q1.2-.6 1.8-1.15-13.7-.05-23.65.45-13.05.65-24.9 2.35-22.9 3.45-45.75 11.3l1.05.9q22.2-7.65 44.85-11.05 11.5-1.65 23.85-2.3 10.1-.55 22.75-.5z" id="eb"/><path fill="url(#aS)" d="M410.45 806.1q.25-.2.55-1.05-14.85-1.45-25.65-1.55-12.55-.1-25.8 1.45-22.05 2.7-46.8 10.95l.7 1q23.65-8 46.25-10.8 13.05-1.55 25.45-1.45 10.55.05 25.3 1.45z" id="ec"/><path fill="url(#aT)" d="M409.1 803.45l.1-1.1q-15.65-2.9-27.5-3.65-12.45-.75-26.35.5-21.5 1.95-46.2 10l.5 1.1q24.5-8 45.8-9.95 13.9-1.2 26.25-.45 11.85.7 27.4 3.55z" id="ed"/><path fill="url(#aU)" d="M407.65 800.95l.2-1.15q-16.25-4.2-29.7-5.85-13.9-1.7-27.2-.95-20.1 1.3-44.45 8.65l.35 1.1q24.2-7.3 44.2-8.6 13.2-.75 27.05.95 13.35 1.65 29.55 5.85z" id="ee"/><path fill="url(#aV)" d="M372.8 788.45q-13.65-2.4-26.5-2.05-18.3.4-42.05 6.95l.3 1.1q23.5-6.5 41.8-6.9 12.7-.35 26.3 2.05 13.25 2.35 30 7.75l.3-1.1q-16.75-5.45-30.15-7.8z" id="ef"/><path fill="url(#aW)" d="M302.15 784.35l.2 1.15q22.7-5.5 39.05-5.25 12.25.2 25.5 3.25 13.4 3.1 30.5 9.75l.35-1.1q-17.3-6.65-30.65-9.75-13.4-3.1-25.7-3.3-16.55-.25-39.25 5.25z" id="eg"/><path fill="url(#aX)" d="M318.5 771.65q-8.05.9-18.8 3.1l.3 1.15q10.7-2.2 18.65-3.05 9.15-1 17.5-.55 11.7.7 24.7 4.4 13.4 3.85 31 11.7l.4-1.1q-17.75-7.85-31.15-11.7-13.15-3.8-24.9-4.5-8.5-.45-17.7.55z" id="eh"/><path fill="url(#aY)" d="M314.3 762.1q-7.2.45-17.1 2.1l.2 1.15q9.9-1.65 16.95-2.1 8.4-.55 16.15.25 11 1.15 23.9 5.6 13.15 4.5 31.5 13.6l.4-1q-18.2-9.1-31.6-13.7-12.9-4.45-24.1-5.65-7.85-.8-16.3-.25z" id="ei"/><path fill="url(#aZ)" d="M296.6 752.4l-.15 1.15q19.85-2.15 34.45 1.4 18.25 4.4 48.5 21l.5-1q-30.45-16.7-48.7-21.15-14.75-3.55-34.6-1.4z" id="ej"/><path fill="url(#ba)" d="M302.5 739.9l-1.2 1.05q19.25 1.15 35.85 7.3 23.6 8.7 50.6 31.95l.75-.95q-27.45-23.5-51-32.1-16.6-6.15-35-7.25z" id="ek"/><path fill="url(#bb)" d="M343.3 757.25q-10.55-3.35-16.4-3.85 15.65 24.4 38.05 36.35 9.15 4.9 22.05 9.2 6.05 2 24.75 7.4-11.4-22.6-44-39.05-11.9-6.05-24.45-10.05z" id="el"/><path fill="#AA5B2D" d="M356.8 763.8q-.8 0-1.25.55-.5.55-.4 1.6.1 1.25-.4 2.35-.4.85-1.4 1.95-1.8 2 .7 3.15 2.45 1.15 4.2-1.2 1.45-1.95 1.6-4.55.05-1.75-.95-2.85-.9-1-2.1-1z" id="em"/><path fill="#93482B" d="M364.05 773q-1.1-1.55-2.8-1.75-1.05-.1-1.8.6-.8.75-.85 2.15 0 3.15-2.95 5.85-1.25 1.15-1 2.5.25 1.2 1.55 2 3.25 1.95 6-1.05 2.3-2.55 2.75-6.2.35-2.4-.9-4.1z" id="en"/><path fill="#A0512C" d="M374.45 775q.15-2.55-1.2-4.2-1.2-1.5-2.85-1.4-1.05 0-1.75.85-.75.9-.7 2.4.1 1.85-.6 3.5-.55 1.3-1.9 2.95-1.15 1.4-.85 2.8.35 1.25 1.65 1.9 3.4 1.6 5.9-1.95 2.05-3 2.3-6.85z" id="eo"/><path fill="#98482B" d="M389.8 783.8q.05-2.3-1.3-3.85-1.25-1.4-2.8-1.4-1.1 0-1.75.75-.65.75-.6 2.1.3 2.9-2.35 6-1.1 1.25-.75 2.55.35 1.15 1.65 1.75 3.35 1.55 5.7-1.65 1.95-2.75 2.2-6.25z" id="ep"/><path fill="#A0512C" d="M354.35 768.6q.1-2.1-1.1-3.5-1.05-1.25-2.5-1.25-.95 0-1.55.7-.65.75-.55 1.95.2 2.75-2.15 5.35-2.15 2.45.85 3.8 3 1.4 5.15-1.45 1.75-2.5 1.85-5.6z" id="eq"/><path fill="#8C432B" d="M392.6 789.55q-1.05-1.2-2.4-1.2-.9 0-1.45.65-.6.65-.5 1.8.2 2.5-1.95 4.95-2.05 2.3.75 3.6 2.8 1.3 4.75-1.35 1.65-2.2 1.8-5.2.1-1.95-1-3.25z" id="er"/><path fill="url(#bc)" d="M353.65 760.35q-17.05-6.7-26.65-7.5l-1.15-.1.65 1q15.2 23.75 36.6 35.65 8.9 4.95 21.05 9.15 7.4 2.6 23.55 7.2l4.9 1.35.15-.05-.5-1q-3.7-7.2-9.35-13.7-5.55-6.1-12.4-11.6-15.4-12-36.85-20.4m10.4 28.25q-21.1-11.55-36.05-34.45 10.4 1.25 26.65 7.8 20.45 8.25 35.2 19.75 6.6 5.15 12.25 11.45 5.4 6.2 8.55 12.25-1.15-.25-2.65-.8-30.85-8.8-43.95-16z" id="es"/><path fill="#FFF" d="M323.95 748.7q-.75.45-.75 1.05 0 .55.8.95.8.4 1.85.35 1.1 0 1.85-.4.8-.45.75-1.05 0-.6-.8-.95-.8-.4-1.9-.4-1.05 0-1.8.45z" id="et"/><path fill="#FFF" d="M322.6 767.4q-2-.85-3.75-.4-1.8.45-2.3 1.95-.5 1.45.55 3.1 1.05 1.6 3.05 2.45 1.95.8 3.75.35 1.75-.45 2.25-1.9.55-1.45-.5-3.1-1.05-1.65-3.05-2.45z" id="eu"/><path fill="#FFF" d="M334.05 793.15q-1-.4-1.95.1-1 .5-1.35 1.7-.4 1.15 0 2.25.45 1.15 1.45 1.5.95.45 1.95-.1.95-.55 1.35-1.7.4-1.15-.05-2.25-.4-1.15-1.4-1.5z" id="ev"/><path fill="#FFF" d="M328.3 779.75q-.6-.85-1.3-1.25-.7-.35-1-.1-.4.35-.2 1.15.2.8.85 1.6.6.85 1.3 1.25.65.35 1 .1.35-.35.2-1.15-.2-.75-.85-1.6z" id="ew"/><path fill="#FFF" d="M306.7 769.1q-.75.1-1.2 1.15-.5 1.05-.3 2.4.15 1.35.85 2.3.7.9 1.45.8.75-.1 1.2-1.15.45-1.05.3-2.4-.15-1.35-.85-2.3-.7-.9-1.45-.8z" id="ex"/><path fill="#FFF" d="M320.95 751.9q-1.5-.35-2.75.15-1.2.55-1.45 1.65-.25 1.1.65 2.2.9 1.05 2.4 1.45 1.5.4 2.75-.1 1.3-.55 1.5-1.7.25-1.05-.65-2.1-.95-1.1-2.45-1.55z" id="ey"/><path fill="#FFF" d="M315.4 778.55q-.55-.9-1.3-1.05-.8-.15-1.5.6-.65.65-1.8 3.25-.55 1.25-.55 2 .05.85.75 1.45.8.6 2.05 1.1 2.05.75 2.75.8 1.65.05 1.7-1.8 0-.6-.45-2.4-.6-2.25-1.65-3.95z" id="ez"/><path fill="#FFF" d="M328.75 740.6q-1.05-1.3-2.4-1.1-1.9.45-1.45 3.85.7 3.1-1.85 4.1 4.6.95 6.25-3.6.6-1.85-.55-3.25z" id="eA"/><path fill="#FFF" d="M346.65 781q-.4.7.1 1.75.45 1 1.55 1.75t2.15.75q1.05.05 1.45-.65.45-.7-.05-1.75-.45-1.05-1.55-1.8-1.05-.7-2.1-.75-1.1 0-1.55.7z" id="eB"/><path fill="url(#bd)" d="M350.45 752.5q-2.35-.8-3.5-.6-1.9.35-3.05 2.95-1.25 2.95-2.1 4.3-1.5 2.2-3.65 3.1-1.55.75-2.05 2.1-.6 1.65 1.4 2.95-2.65 2.45-2.4 5.45.15 2.65 2.2 4.05 1.55 1.05 3.1.45 1.8-.65 2.65-3.15.7-2.05 2-2.8.2-.15 3.35-1.35 2.45-.95 3.9-3.8.95-1.9 1.55-5.05 2.25.65 2.9-.5.6-1.05-.25-2.8-.75-1.65-2.55-3.2-1.8-1.5-3.5-2.1z" id="eC"/><path fill="url(#be)" d="M359.8 786.35q-3.35-.65-6.3-.05-1.8.5-2.7 2.05-1.15 2-1.75 6.75-.25 1.75.45 3t2.1 1.45q-2.55.3-3.8 2.25-1.15 1.75-.35 3.25.25.5 1.6 1.75 1.05 1 1.15 2 .05.65-.3 2.15-.3 1.4-.15 2.1.3 1.45 1.6 1.9 1.15.4 2.35-.2 2.85-1.3 4.25-4.75.95-2.5 1.2-6.35.1-1.35.1-4.95 1.2.1 1.65-.2 1-.45 1.35-1.75.35-1.25-.1-2.35-.5-1.25-.55-1.7-.1-1.1.75-2.5 1.9-3-2.55-3.85z" id="eD"/><path fill="url(#bf)" d="M357.3 811.35l-7.6 1.45.05.25q.1.55.3.9 2-.45 6.3-1.2.5-.55.95-1.4z" id="eE"/><path fill="url(#bg)" d="M359.1 805.05q-5.2.6-10.3 1.5.9.9.95 1l9.15-1.35.2-1.15z" id="eF"/><path fill="url(#bh)" d="M359.25 798.9l-8.15.75q-1.85.45-2.8 1.5 4.9-.6 7.15-.8l3.8-.3v-1.15z" id="eG"/><path fill="url(#bi)" d="M350.95 793l-1.65.15-.2 1.15 1.95-.15q5.05-.3 10.85-.2-.25-.6-.25-1.15-5.75-.1-10.7.2z" id="eH"/><path fill="url(#bj)" d="M361.65 786.95q-5.75-.5-8.3-.55-1.15.35-1.95 1.05 4.4.1 11.45.75-.3-.75-1.2-1.25z" id="eI"/><path fill="#F3E5DA" d="M335.5 794.75l-4.9.85q-.15.65 0 1.15l5.05-.85q.05-.65-.15-1.15z" id="eJ"/><path fill="#F3E5DA" d="M328.3 779.75l-.1-.05-2.3.2q.3.65.6 1.1l2.35-.25q-.35-.8-.55-1z" id="eK"/><path fill="#F3E5DA" d="M316.7 781.3q-3.05.5-6.35 1.2-.1 1-.05 1.25 2.75-.65 6.7-1.3l-.3-1.15z" id="eL"/><path fill="#F3E5DA" d="M317 771.85q.4.7.8 1 3.8-.4 8.45-.65.05-.2-.05-1.15-3.7.2-9.2.8z" id="eM"/><path fill="#F3E5DA" d="M309 773q-3.3.55-3.6.65l.5 1.1 2.95-.6q.15-1.05.15-1.15z" id="eN"/><path fill="#F3E5DA" d="M321.3 752.05q-1.4-.2-2.15-.2-1.25.1-2 1 2 .05 6.3.65-.8-1-2.15-1.45z" id="eO"/><path fill="#F3E5DA" d="M325.05 744.5q1.15.25 3.55.9l.5-1q-2.85-.8-4.2-1.05.15.55.15 1.15z" id="eP"/><path fill="url(#bk)" d="M337.5 767.3l-.55.6q3.1 3.65 6.05 6.45l.05-.25.35-.9q-3.6-3.55-7.4-8.1.1 1.25 1.5 2.2m16.35-6.2q1.25.35 2 .15-6.25-2.55-12.75-4.6-.2.55-.5 1 5.35 1.7 11.2 3.95l.05-.5z" id="eQ"/><path fill="#8C432B" d="M383.35 783.8q.1-2.65-1.4-4.35-1.35-1.55-3.1-1.55-1.2 0-1.95.85-.75.9-.65 2.4.25 3.4-2.6 6.6-1.2 1.4-.8 2.8.35 1.25 1.85 1.95 3.65 1.75 6.3-1.8 2.2-3.15 2.35-6.9z" id="eR"/><path fill="#77372B" d="M398.8 791.3q-.85-.95-1.9-.95-.75 0-1.15.5-.5.55-.45 1.45.2 2.1-1.55 4-1.6 1.85.65 2.9 2.2 1.05 3.8-1.1 1.3-1.7 1.45-4.15.05-1.6-.85-2.65z" id="eS"/><path fill="#803C2A" d="M373.1 783.5q.05-1.55-.85-2.6-.8-.9-1.9-1-.75 0-1.15.55-.45.55-.35 1.5.05 2.1-1.7 3.95-1.6 1.8.7 2.9 2.25 1.05 3.8-1.1 1.3-1.85 1.45-4.2z" id="eT"/><path fill="#803C2A" d="M357.6 772.15q0-1.05-.6-1.7-.55-.6-1.3-.7-.45 0-.7.35-.35.4-.3 1 .1 1.3-1 2.6-1.1 1.25.35 1.9 1.5.7 2.55-.75.85-.95 1-2.7z" id="eU"/><path fill="#373535" d="M378.55 703.5l-1 .65L412.3 762l1.1-.6-34.85-57.9z" id="eV"/><path fill="#373535" d="M376.6 703.55q1.8 2.1 3.9 4.45-.3-.8-1.7-5.65-1.3-4.25-2.2-6.2-.7-1.35-1.55-2.1-1.25-1.1-2.35-.45-.75.4-.85 1.6-.05 1.1.35 2.1.9 2.25 4.4 6.25z" id="eW"/><path fill="#373535" d="M456.8 704.15l-1-.65-34.75 57.9.9.6 34.85-57.85z" id="eX"/><path fill="#373535" d="M453.85 708q2.1-2.35 3.9-4.45 3.5-4 4.4-6.25.4-1 .35-2.1-.1-1.2-.85-1.6-2-1.1-3.9 2.55-.9 1.95-2.15 6.2-1.45 4.85-1.75 5.65z" id="eY"/><path fill="#AF867D" d="M421.8 766.65q.35-5.9-.45-11.65-.85-5.55-2.55-9.6v14.35l3 6.9z" id="eZ"/><path fill="#AF867D" d="M413.05 755q-.95 5.9-.5 11.65l3.1-6.9V745.4q-1.75 4.15-2.6 9.6z" id="fa"/><path fill="#373535" d="M427.35 765.85q-1.35-1.35-3.25-1.35-1.8 0-3.05 1.35-1.3 1.35-1.3 3.2t1.3 3.15q1.25 1.3 3.05 1.3 1.9 0 3.25-1.3 1.3-1.3 1.3-3.15 0-1.85-1.3-3.2z" id="fb"/><path fill="url(#bl)" d="M426.75 766.4q-1.1-1.1-2.65-1.1-1.5 0-2.55 1.1-1.05 1.1-1.05 2.65 0 1.5 1.05 2.65 1.05 1.1 2.55 1.1 1.55 0 2.65-1.1 1.1-1.15 1.1-2.65 0-1.55-1.1-2.65z" id="fc"/><path fill="#373535" d="M410.25 764.5q-1.9 0-3.25 1.35-1.3 1.35-1.3 3.2t1.3 3.15q1.35 1.3 3.25 1.3 1.85 0 3.15-1.3 1.3-1.3 1.3-3.15 0-1.85-1.3-3.2t-3.15-1.35z" id="fd"/><path fill="url(#bm)" d="M410.25 765.3q-1.55 0-2.65 1.1-1.1 1.1-1.1 2.65 0 1.5 1.1 2.65 1.1 1.1 2.65 1.1 1.5 0 2.6-1.1 1.05-1.15 1.05-2.65 0-1.55-1.05-2.65-1.1-1.1-2.6-1.1z" id="fe"/><path fill="#AF867D" d="M407.5 767.9q0 .9.95.9.4 0 .65-.25t.25-.65q0-.4-.25-.65-.3-.3-.65-.3-.4 0-.7.3-.25.25-.25.65z" id="ff"/><path fill="#AF867D" d="M425.25 768.55q.3.25.65.25.95 0 .95-.9 0-.4-.25-.65-.3-.3-.7-.3-.35 0-.65.3-.25.25-.25.65t.25.65z" id="fg"/><path fill="url(#bn)" d="M422.5 760.6q-1.4-1.45-3.35-1.45h-3.9q-2 0-3.4 1.45-1.4 1.4-1.4 3.4v10.5q0 2 1.4 3.4 1.4 1.45 3.4 1.45h3.9q1.95 0 3.35-1.45 1.4-1.4 1.4-3.4V764q0-2-1.4-3.4z" id="fh"/><path fill="url(#bo)" d="M423.5 827H410q-6.1 28.95 0 53.15.8 3 2.35 4.75 1.8 2 4.45 2 4.6 0 6.7-6.75 7.75-25.6 0-53.15z" id="fi"/><path fill="url(#bp)" d="M418.1 823.95l-4.25-.2q-3.05 15.3-2.05 35.35t5.05 25.15q-3.45-5.1-2.35-28.9 1-21.5 3.6-31.4z" id="fj"/><path fill="url(#bq)" d="M428.9 781.6q-4.85-8.4-11.7-8.4t-11.75 8.4q-4.85 8.4-4.85 20.25t4.85 20.25q4.9 8.35 11.75 8.35t11.7-8.35q4.85-8.4 4.85-20.25t-4.85-20.25z" id="fk"/><path fill="url(#br)" d="M409.8 822.7q1.65 2.75 2.8 2.5 1-.2 1.3-.75.6-1.05-.35-3.7-2.2-6.05-2.7-7.65-2.9-10.05-1.95-20.85 1.2-12.95 7.95-17.45-9.45 3.7-11.55 17.65-1.75 11.8 1.95 24.4 1 3.35 2.55 5.85z" id="fl"/><path fill="url(#bs)" d="M407.65 867.25q4.55 1.95 9.55 1.95 5.05 0 9.25-1.9l.25-2.15q-4.3 2.15-9.5 2.15-5.3 0-9.8-2.2l.25 2.15m17.05 8.55l.5-2.15q-3.5 1.5-8 1.5t-8.65-1.7l.4 2.15q3.8 1.45 8.25 1.45 3.9 0 7.5-1.25m2.6-16.7l.05-2.1q-4.5 2.45-10.15 2.45-5.75 0-10.3-2.5.1.7.1 2.15 4.6 2.25 10.2 2.25 5.5 0 10.1-2.25m.05-7.85l-.05-2q-4.75 2.45-10.1 2.45-5.4 0-10.15-2.45l-.05 2q4.6 2.25 10.2 2.25 5.55 0 10.15-2.25m-.55-7.55l-.25-1.95q-4.35 2.1-9.35 2.1-5.25 0-9.55-2.15-.15 1-.15 1.95 4.3 2 9.7 2 5.25 0 9.6-1.95z" id="fm"/><path fill="url(#bt)" d="M412.4 866.8l.2 1.95 1.75.3q-.1-.65-.1-1.9l-1.85-.35m1.15 8.1l.4 1.9.9.1-.25-1.9-1.05-.1m-1.75-16.1l.1 1.95q.1 0 2.35.45.1-.65.1-1.9-1.45-.15-2.55-.5m-.2-7.85v1.9q1.4.45 3 .5 0-1.25.1-1.8-1.55-.2-3.1-.6m.05-5.9q1.9.45 3.45.5l.15-1.8q-2.05-.15-3.5-.55l-.1 1.85z" id="fn"/></defs><use xlink:href="#bu"/><use xlink:href="#bv" transform="matrix(1.13281 0 0 1.13281 -330.555 -722.836)"/><use xlink:href="#bw" transform="matrix(1.13281 0 0 1.13281 -330.555 -722.836)"/><use xlink:href="#bx" transform="matrix(1.13281 0 0 1.13281 -330.555 -722.836)"/><use xlink:href="#by" transform="matrix(1.13281 0 0 1.13281 -330.555 -722.836)"/><use xlink:href="#bz" transform="matrix(1.13281 0 0 1.13281 -330.555 -722.836)"/><use xlink:href="#bA" transform="matrix(1.13281 0 0 1.13281 -330.555 -722.836)"/><use xlink:href="#bB" transform="matrix(1.13281 0 0 1.13281 -330.555 -722.836)"/><use xlink:href="#bC" transform="matrix(1.13281 0 0 1.13281 -330.555 -722.836)"/><use xlink:href="#bD" transform="matrix(1.13281 0 0 1.13281 -330.555 -722.836)"/><use xlink:href="#bE" transform="matrix(1.13281 0 0 1.13281 -330.555 -722.836)"/><use xlink:href="#bF" transform="matrix(1.13281 0 0 1.13281 -330.555 -722.836)"/><use xlink:href="#bG" transform="matrix(1.13281 0 0 1.13281 -330.555 -722.836)"/><use xlink:href="#bH" transform="matrix(1.13281 0 0 1.13281 -330.555 -722.836)"/><use xlink:href="#bI" transform="matrix(1.13281 0 0 1.13281 -330.555 -722.836)"/><use xlink:href="#bJ" transform="matrix(1.13281 0 0 1.13281 -330.555 -722.836)"/><use xlink:href="#bK" transform="matrix(1.13281 0 0 1.13281 -330.555 -722.836)"/><use xlink:href="#bL" transform="matrix(1.13281 0 0 1.13281 -330.555 -722.836)"/><use xlink:href="#bM" transform="matrix(1.13281 0 0 1.13281 -330.555 -722.836)"/><use xlink:href="#bN" transform="matrix(1.13281 0 0 1.13281 -330.555 -722.836)"/><use xlink:href="#bO" transform="matrix(1.13281 0 0 1.13281 -330.555 -722.836)"/><use xlink:href="#bP" transform="matrix(1.13281 0 0 1.13281 -330.555 -722.836)"/><use xlink:href="#bQ" transform="matrix(1.13281 0 0 1.13281 -330.555 -722.836)"/><use xlink:href="#bR" transform="matrix(1.13281 0 0 1.13281 -330.555 -722.836)"/><use xlink:href="#bS" transform="matrix(1.13281 0 0 1.13281 -330.555 -722.836)"/><use xlink:href="#bT" transform="matrix(1.13281 0 0 1.13281 -330.555 -722.836)"/><use xlink:href="#bU" transform="matrix(1.13281 0 0 1.13281 -330.555 -722.836)"/><use xlink:href="#bV" transform="matrix(1.13281 0 0 1.13281 -330.555 -722.836)"/><use xlink:href="#bW" transform="matrix(1.13281 0 0 1.13281 -330.555 -722.836)"/><use xlink:href="#bX" transform="matrix(1.13281 0 0 1.13281 -330.555 -722.836)"/><use xlink:href="#bY" transform="matrix(1.13281 0 0 1.13281 -330.555 -722.836)"/><use xlink:href="#bZ" transform="matrix(1.13281 0 0 1.13281 -330.555 -722.836)"/><use xlink:href="#ca" transform="matrix(1.13281 0 0 1.13281 -330.555 -722.836)"/><use xlink:href="#cb" transform="matrix(1.13281 0 0 1.13281 -330.555 -722.836)"/><use xlink:href="#cc" transform="matrix(1.13281 0 0 1.13281 -330.555 -722.836)"/><use xlink:href="#cd" transform="matrix(1.13281 0 0 1.13281 -330.555 -722.836)"/><use xlink:href="#ce" transform="matrix(1.13281 0 0 1.13281 -330.555 -722.836)"/><use xlink:href="#cf" transform="matrix(1.13281 0 0 1.13281 -330.555 -722.836)"/><use xlink:href="#cg" transform="matrix(1.13281 0 0 1.13281 -330.555 -722.836)"/><use xlink:href="#ch" transform="matrix(1.13281 0 0 1.13281 -330.555 -722.836)"/><use xlink:href="#ci" transform="matrix(1.13281 0 0 1.13281 -330.555 -722.836)"/><use xlink:href="#cj" transform="matrix(1.13281 0 0 1.13281 -330.555 -722.836)"/><use xlink:href="#ck" transform="matrix(1.13281 0 0 1.13281 -330.555 -722.836)"/><use xlink:href="#cl" transform="matrix(1.13281 0 0 1.13281 -330.555 -722.836)"/><use xlink:href="#cm" transform="matrix(1.13281 0 0 1.13281 -330.555 -722.836)"/><use xlink:href="#cn" transform="matrix(1.13281 0 0 1.13281 -330.555 -722.836)"/><use xlink:href="#co" transform="matrix(1.13281 0 0 1.13281 -330.555 -722.836)"/><use xlink:href="#cp" transform="matrix(1.13281 0 0 1.13281 -330.555 -722.836)"/><use xlink:href="#cq" transform="matrix(1.13281 0 0 1.13281 -330.555 -722.836)"/><use xlink:href="#cr" transform="matrix(1.13281 0 0 1.13281 -330.555 -722.836)"/><use xlink:href="#cs" transform="matrix(1.13281 0 0 1.13281 -330.555 -722.836)"/><use xlink:href="#ct" transform="matrix(1.13281 0 0 1.13281 -330.555 -722.836)"/><use xlink:href="#cu" transform="matrix(1.13281 0 0 1.13281 -330.555 -722.836)"/><use xlink:href="#cv" transform="matrix(1.13281 0 0 1.13281 -330.555 -722.836)"/><use xlink:href="#cw" transform="matrix(1.13281 0 0 1.13281 -330.555 -722.836)"/><use xlink:href="#cx" transform="matrix(1.13281 0 0 1.13281 -330.555 -722.836)"/><use xlink:href="#cy" transform="matrix(1.13281 0 0 1.13281 -330.555 -722.836)"/><use xlink:href="#cz" transform="matrix(1.13281 0 0 1.13281 -330.555 -722.836)"/><use xlink:href="#cA" transform="matrix(1.13281 0 0 1.13281 -330.555 -722.836)"/><use xlink:href="#cB" transform="matrix(1.13281 0 0 1.13281 -330.555 -722.836)"/><use xlink:href="#cC" transform="matrix(1.13281 0 0 1.13281 -330.555 -722.836)"/><use xlink:href="#cD" transform="matrix(1.13281 0 0 1.13281 -330.555 -722.836)"/><use xlink:href="#cE" transform="matrix(1.13281 0 0 1.13281 -330.555 -722.836)"/><use xlink:href="#cF" transform="matrix(1.13281 0 0 1.13281 -330.555 -722.836)"/><use xlink:href="#cG" transform="matrix(1.13281 0 0 1.13281 -330.555 -722.836)"/><use xlink:href="#cH" transform="matrix(1.13281 0 0 1.13281 -330.555 -722.836)"/><use xlink:href="#cI" transform="matrix(1.13281 0 0 1.13281 -330.555 -722.836)"/><use xlink:href="#cJ" transform="matrix(1.13281 0 0 1.13281 -330.555 -722.836)"/><use xlink:href="#cK" transform="matrix(1.13281 0 0 1.13281 -330.555 -722.836)"/><use xlink:href="#cL" transform="matrix(1.13281 0 0 1.13281 -330.555 -722.836)"/><use xlink:href="#cM" transform="matrix(1.13281 0 0 1.13281 -330.555 -722.836)"/><use xlink:href="#cN" transform="matrix(1.13281 0 0 1.13281 -330.555 -722.836)"/><use xlink:href="#cO" transform="matrix(1.13281 0 0 1.13281 -330.555 -722.836)"/><use xlink:href="#cP" transform="matrix(1.13281 0 0 1.13281 -330.555 -722.836)"/><use xlink:href="#cQ" transform="matrix(1.13281 0 0 1.13281 -330.555 -722.836)"/><use xlink:href="#cR" transform="matrix(1.13281 0 0 1.13281 -330.555 -722.836)"/><use xlink:href="#cS" transform="matrix(1.13281 0 0 1.13281 -330.555 -722.836)"/><use xlink:href="#cT" transform="matrix(1.13281 0 0 1.13281 -330.555 -722.836)"/><use xlink:href="#cU" transform="matrix(1.13281 0 0 1.13281 -330.555 -722.836)"/><use xlink:href="#cV" transform="matrix(1.13281 0 0 1.13281 -330.555 -722.836)"/><use xlink:href="#cW" transform="matrix(1.13281 0 0 1.13281 -330.555 -722.836)"/><use xlink:href="#cX" transform="matrix(1.13281 0 0 1.13281 -330.555 -722.836)"/><use xlink:href="#cY" transform="matrix(1.13281 0 0 1.13281 -330.555 -722.836)"/><use xlink:href="#cZ" transform="matrix(1.13281 0 0 1.13281 -330.555 -722.836)"/><use xlink:href="#da" transform="matrix(1.13281 0 0 1.13281 -330.555 -722.836)"/><use xlink:href="#db" transform="matrix(1.13281 0 0 1.13281 -330.555 -722.836)"/><use xlink:href="#dc" transform="matrix(1.13281 0 0 1.13281 -330.555 -722.836)"/><use xlink:href="#dd" transform="matrix(1.13281 0 0 1.13281 -330.555 -722.836)"/><use xlink:href="#de" transform="matrix(1.13281 0 0 1.13281 -330.555 -722.836)"/><use xlink:href="#df" transform="matrix(1.13281 0 0 1.13281 -330.555 -722.836)"/><use xlink:href="#dg" transform="matrix(1.13281 0 0 1.13281 -330.555 -722.836)"/><use xlink:href="#dh" transform="matrix(1.13281 0 0 1.13281 -330.555 -722.836)"/><use xlink:href="#di" transform="matrix(1.13281 0 0 1.13281 -330.555 -722.836)"/><use xlink:href="#dj" transform="matrix(1.13281 0 0 1.13281 -330.555 -722.836)"/><use xlink:href="#dk" transform="matrix(1.13281 0 0 1.13281 -330.555 -722.836)"/><use xlink:href="#dl" transform="matrix(1.13281 0 0 1.13281 -330.555 -722.836)"/><use xlink:href="#dm" transform="matrix(1.13281 0 0 1.13281 -330.555 -722.836)"/><use xlink:href="#dn" transform="matrix(1.13281 0 0 1.13281 -330.555 -722.836)"/><use xlink:href="#do" transform="matrix(1.13281 0 0 1.13281 -330.555 -722.836)"/><use xlink:href="#dp" transform="matrix(1.13281 0 0 1.13281 -330.555 -722.836)"/><use xlink:href="#dq" transform="matrix(1.13281 0 0 1.13281 -330.555 -722.836)"/><use xlink:href="#dr" transform="matrix(1.13281 0 0 1.13281 -330.555 -722.836)"/><use xlink:href="#ds" transform="matrix(1.13281 0 0 1.13281 -330.555 -722.836)"/><use xlink:href="#dt" transform="matrix(1.13281 0 0 1.13281 -330.555 -722.836)"/><use xlink:href="#du" transform="matrix(1.13281 0 0 1.13281 -330.555 -722.836)"/><use xlink:href="#dv" transform="matrix(1.13281 0 0 1.13281 -330.555 -722.836)"/><use xlink:href="#dw" transform="matrix(1.13281 0 0 1.13281 -330.555 -722.836)"/><use xlink:href="#dx" transform="matrix(1.13281 0 0 1.13281 -330.555 -722.836)"/><use xlink:href="#dy" transform="matrix(1.13281 0 0 1.13281 -330.555 -722.836)"/><use xlink:href="#dz" transform="matrix(1.13281 0 0 1.13281 -330.555 -722.836)"/><use xlink:href="#dA" transform="matrix(1.13281 0 0 1.13281 -330.555 -722.836)"/><use xlink:href="#dB" transform="matrix(1.13281 0 0 1.13281 -330.555 -722.836)"/><use xlink:href="#dC" transform="matrix(1.13281 0 0 1.13281 -330.555 -722.836)"/><use xlink:href="#dD" transform="matrix(1.13281 0 0 1.13281 -330.555 -722.836)"/><use xlink:href="#dE" transform="matrix(1.13281 0 0 1.13281 -330.555 -722.836)"/><use xlink:href="#dF" transform="matrix(1.13281 0 0 1.13281 -330.555 -722.836)"/><use xlink:href="#dG" transform="matrix(1.13281 0 0 1.13281 -330.555 -722.836)"/><use xlink:href="#dH" transform="matrix(1.13281 0 0 1.13281 -330.555 -722.836)"/><use xlink:href="#dI" transform="matrix(1.13281 0 0 1.13281 -330.555 -722.836)"/><use xlink:href="#dJ" transform="matrix(1.13281 0 0 1.13281 -330.555 -722.836)"/><use xlink:href="#dK" transform="matrix(1.13281 0 0 1.13281 -330.555 -722.836)"/><use xlink:href="#dL" transform="matrix(1.13281 0 0 1.13281 -330.555 -722.836)"/><use xlink:href="#dM" transform="matrix(1.13281 0 0 1.13281 -330.555 -722.836)"/><use xlink:href="#dN" transform="matrix(1.13281 0 0 1.13281 -330.555 -722.836)"/><use xlink:href="#dO" transform="matrix(1.13281 0 0 1.13281 -330.555 -722.836)"/><use xlink:href="#dP" transform="matrix(1.13281 0 0 1.13281 -330.555 -722.836)"/><use xlink:href="#dQ" transform="matrix(1.13281 0 0 1.13281 -330.555 -722.836)"/><use xlink:href="#dR" transform="matrix(1.13281 0 0 1.13281 -330.555 -722.836)"/><use xlink:href="#dS" transform="matrix(1.13281 0 0 1.13281 -330.555 -722.836)"/><use xlink:href="#dT" transform="matrix(1.13281 0 0 1.13281 -330.555 -722.836)"/><use xlink:href="#dU" transform="matrix(1.13281 0 0 1.13281 -330.555 -722.836)"/><use xlink:href="#dV" transform="matrix(1.13281 0 0 1.13281 -330.555 -722.836)"/><use xlink:href="#dW" transform="matrix(1.13281 0 0 1.13281 -330.555 -722.836)"/><use xlink:href="#dX" transform="matrix(1.13281 0 0 1.13281 -330.555 -722.836)"/><use xlink:href="#dY" transform="matrix(1.13281 0 0 1.13281 -330.555 -722.836)"/><use xlink:href="#dZ" transform="matrix(1.13281 0 0 1.13281 -330.555 -722.836)"/><use xlink:href="#ea" transform="matrix(1.13281 0 0 1.13281 -330.555 -722.836)"/><use xlink:href="#eb" transform="matrix(1.13281 0 0 1.13281 -330.555 -722.836)"/><use xlink:href="#ec" transform="matrix(1.13281 0 0 1.13281 -330.555 -722.836)"/><use xlink:href="#ed" transform="matrix(1.13281 0 0 1.13281 -330.555 -722.836)"/><use xlink:href="#ee" transform="matrix(1.13281 0 0 1.13281 -330.555 -722.836)"/><use xlink:href="#ef" transform="matrix(1.13281 0 0 1.13281 -330.555 -722.836)"/><use xlink:href="#eg" transform="matrix(1.13281 0 0 1.13281 -330.555 -722.836)"/><use xlink:href="#eh" transform="matrix(1.13281 0 0 1.13281 -330.555 -722.836)"/><use xlink:href="#ei" transform="matrix(1.13281 0 0 1.13281 -330.555 -722.836)"/><use xlink:href="#ej" transform="matrix(1.13281 0 0 1.13281 -330.555 -722.836)"/><use xlink:href="#ek" transform="matrix(1.13281 0 0 1.13281 -330.555 -722.836)"/><use xlink:href="#el" transform="matrix(1.13281 0 0 1.13281 -330.555 -722.836)"/><use xlink:href="#em" transform="matrix(1.13281 0 0 1.13281 -330.555 -722.836)"/><use xlink:href="#en" transform="matrix(1.13281 0 0 1.13281 -330.555 -722.836)"/><use xlink:href="#eo" transform="matrix(1.13281 0 0 1.13281 -330.555 -722.836)"/><use xlink:href="#ep" transform="matrix(1.13281 0 0 1.13281 -330.555 -722.836)"/><use xlink:href="#eq" transform="matrix(1.13281 0 0 1.13281 -330.555 -722.836)"/><use xlink:href="#er" transform="matrix(1.13281 0 0 1.13281 -330.555 -722.836)"/><use xlink:href="#es" transform="matrix(1.13281 0 0 1.13281 -330.555 -722.836)"/><use xlink:href="#et" transform="matrix(1.13281 0 0 1.13281 -330.555 -722.836)"/><use xlink:href="#eu" transform="matrix(1.13281 0 0 1.13281 -330.555 -722.836)"/><use xlink:href="#ev" transform="matrix(1.13281 0 0 1.13281 -330.555 -722.836)"/><use xlink:href="#ew" transform="matrix(1.13281 0 0 1.13281 -330.555 -722.836)"/><use xlink:href="#ex" transform="matrix(1.13281 0 0 1.13281 -330.555 -722.836)"/><use xlink:href="#ey" transform="matrix(1.13281 0 0 1.13281 -330.555 -722.836)"/><use xlink:href="#ez" transform="matrix(1.13281 0 0 1.13281 -330.555 -722.836)"/><use xlink:href="#eA" transform="matrix(1.13281 0 0 1.13281 -330.555 -722.836)"/><use xlink:href="#eB" transform="matrix(1.13281 0 0 1.13281 -330.555 -722.836)"/><use xlink:href="#eC" transform="matrix(1.13281 0 0 1.13281 -330.555 -722.836)"/><use xlink:href="#eD" transform="matrix(1.13281 0 0 1.13281 -330.555 -722.836)"/><use xlink:href="#eE" transform="matrix(1.13281 0 0 1.13281 -330.555 -722.836)"/><use xlink:href="#eF" transform="matrix(1.13281 0 0 1.13281 -330.555 -722.836)"/><use xlink:href="#eG" transform="matrix(1.13281 0 0 1.13281 -330.555 -722.836)"/><use xlink:href="#eH" transform="matrix(1.13281 0 0 1.13281 -330.555 -722.836)"/><use xlink:href="#eI" transform="matrix(1.13281 0 0 1.13281 -330.555 -722.836)"/><use xlink:href="#eJ" transform="matrix(1.13281 0 0 1.13281 -330.555 -722.836)"/><use xlink:href="#eK" transform="matrix(1.13281 0 0 1.13281 -330.555 -722.836)"/><use xlink:href="#eL" transform="matrix(1.13281 0 0 1.13281 -330.555 -722.836)"/><use xlink:href="#eM" transform="matrix(1.13281 0 0 1.13281 -330.555 -722.836)"/><use xlink:href="#eN" transform="matrix(1.13281 0 0 1.13281 -330.555 -722.836)"/><use xlink:href="#eO" transform="matrix(1.13281 0 0 1.13281 -330.555 -722.836)"/><use xlink:href="#eP" transform="matrix(1.13281 0 0 1.13281 -330.555 -722.836)"/><use xlink:href="#eQ" transform="matrix(1.13281 0 0 1.13281 -330.555 -722.836)"/><use xlink:href="#eR" transform="matrix(1.13281 0 0 1.13281 -330.555 -722.836)"/><use xlink:href="#eS" transform="matrix(1.13281 0 0 1.13281 -330.555 -722.836)"/><use xlink:href="#eT" transform="matrix(1.13281 0 0 1.13281 -330.555 -722.836)"/><use xlink:href="#eU" transform="matrix(1.13281 0 0 1.13281 -330.555 -722.836)"/><use xlink:href="#eV" transform="matrix(1.13281 0 0 1.13281 -330.555 -722.836)"/><use xlink:href="#eW" transform="matrix(1.13281 0 0 1.13281 -330.555 -722.836)"/><use xlink:href="#eX" transform="matrix(1.13281 0 0 1.13281 -330.555 -722.836)"/><use xlink:href="#eY" transform="matrix(1.13281 0 0 1.13281 -330.555 -722.836)"/><use xlink:href="#eZ" transform="matrix(1.13281 0 0 1.13281 -330.555 -722.836)"/><use xlink:href="#fa" transform="matrix(1.13281 0 0 1.13281 -330.555 -722.836)"/><use xlink:href="#fb" transform="matrix(1.13281 0 0 1.13281 -330.555 -722.836)"/><use xlink:href="#fc" transform="matrix(1.13281 0 0 1.13281 -330.555 -722.836)"/><use xlink:href="#fd" transform="matrix(1.13281 0 0 1.13281 -330.555 -722.836)"/><use xlink:href="#fe" transform="matrix(1.13281 0 0 1.13281 -330.555 -722.836)"/><use xlink:href="#ff" transform="matrix(1.13281 0 0 1.13281 -330.555 -722.836)"/><use xlink:href="#fg" transform="matrix(1.13281 0 0 1.13281 -330.555 -722.836)"/><use xlink:href="#fh" transform="matrix(1.13281 0 0 1.13281 -330.555 -722.836)"/><use xlink:href="#fi" transform="matrix(1.13281 0 0 1.13281 -330.555 -722.836)"/><use xlink:href="#fj" transform="matrix(1.13281 0 0 1.13281 -330.555 -722.836)"/><use xlink:href="#fk" transform="matrix(1.13281 0 0 1.13281 -330.555 -722.836)"/><use xlink:href="#fl" transform="matrix(1.13281 0 0 1.13281 -330.555 -722.836)"/><use xlink:href="#fm" transform="matrix(1.13281 0 0 1.13281 -330.555 -722.836)"/><use xlink:href="#fn" transform="matrix(1.13281 0 0 1.13281 -330.555 -722.836)"/></svg>