<svg xmlns="http://www.w3.org/2000/svg" xmlns:xlink="http://www.w3.org/1999/xlink" preserveAspectRatio="none" width="284" height="320"><defs><linearGradient id="a" gradientUnits="userSpaceOnUse" x1="317.163" y1="267.525" x2="415.038" y2="309.075" spreadMethod="pad"><stop offset="0%" stop-color="#371F1E"/><stop offset="100%" stop-color="#9B2B30"/></linearGradient><linearGradient id="b" gradientUnits="userSpaceOnUse" x1="315.025" y1="286.038" x2="387.375" y2="308.163" spreadMethod="pad"><stop offset="0%" stop-color="#91292D"/><stop offset="100%" stop-color="#A42C31"/></linearGradient><linearGradient id="c" gradientUnits="userSpaceOnUse" x1="346.4" y1="242.675" x2="412.2" y2="304.025" spreadMethod="pad"><stop offset="0%" stop-color="#BD3634"/><stop offset="100%" stop-color="#CE3935"/></linearGradient><linearGradient id="d" gradientUnits="userSpaceOnUse" x1="315.988" y1="259.913" x2="392.113" y2="283.188" spreadMethod="pad"><stop offset="0%" stop-color="#91292D"/><stop offset="100%" stop-color="#A42C31"/></linearGradient><linearGradient id="e" gradientUnits="userSpaceOnUse" x1="313.037" y1="262.75" x2="357.863" y2="276.45" spreadMethod="pad"><stop offset="0%" stop-color="#91292D"/><stop offset="100%" stop-color="#A42C31"/></linearGradient><linearGradient id="f" gradientUnits="userSpaceOnUse" x1="320.5" y1="275.125" x2="404.1" y2="300.675" spreadMethod="pad"><stop offset="0%" stop-color="#91292D"/><stop offset="100%" stop-color="#A42C31"/></linearGradient><linearGradient id="g" gradientUnits="userSpaceOnUse" x1="317.3" y1="282.113" x2="375.1" y2="299.787" spreadMethod="pad"><stop offset="0%" stop-color="#91292D"/><stop offset="100%" stop-color="#A42C31"/></linearGradient><linearGradient id="h" gradientUnits="userSpaceOnUse" x1="318.65" y1="295.15" x2="403.05" y2="320.95" spreadMethod="pad"><stop offset="0%" stop-color="#91292D"/><stop offset="100%" stop-color="#A42C31"/></linearGradient><linearGradient id="i" gradientUnits="userSpaceOnUse" x1="398.325" y1="273.8" x2="383.375" y2="283.5" spreadMethod="pad"><stop offset="0%" stop-color="#EE3338"/><stop offset="100%" stop-color="#F58735"/></linearGradient><linearGradient id="j" gradientUnits="userSpaceOnUse" x1="385.475" y1="264.9" x2="331.425" y2="300" spreadMethod="pad"><stop offset="0%" stop-color="#EE3338"/><stop offset="100%" stop-color="#F58735"/></linearGradient><linearGradient id="k" gradientUnits="userSpaceOnUse" x1="339.425" y1="282.975" x2="324.875" y2="309.225" spreadMethod="pad"><stop offset="0%" stop-color="#F89934"/><stop offset="100%" stop-color="#FFCC2A"/></linearGradient><linearGradient id="l" gradientUnits="userSpaceOnUse" x1="326.087" y1="259.563" x2="325.413" y2="269.138" spreadMethod="pad"><stop offset="0%" stop-color="#FFF"/><stop offset="100%" stop-color="#EDD4C1"/></linearGradient><linearGradient id="m" gradientUnits="userSpaceOnUse" x1="338.362" y1="257.375" x2="351.938" y2="244.725" spreadMethod="pad"><stop offset="0%" stop-color="#FFF"/><stop offset="100%" stop-color="#EDD4C1"/></linearGradient><linearGradient id="n" gradientUnits="userSpaceOnUse" x1="329.8" y1="300.4" x2="374" y2="274.9" spreadMethod="pad"><stop offset="0%" stop-color="#EE3338"/><stop offset="100%" stop-color="#D43136"/></linearGradient><linearGradient id="o" gradientUnits="userSpaceOnUse" x1="326.838" y1="295.313" x2="370.363" y2="270.188" spreadMethod="pad"><stop offset="0%" stop-color="#EE3338"/><stop offset="100%" stop-color="#D43136"/></linearGradient><linearGradient id="p" gradientUnits="userSpaceOnUse" x1="328.288" y1="297.813" x2="371.813" y2="272.688" spreadMethod="pad"><stop offset="0%" stop-color="#EE3338"/><stop offset="100%" stop-color="#D43136"/></linearGradient><linearGradient id="q" gradientUnits="userSpaceOnUse" x1="327.337" y1="296.162" x2="371.563" y2="270.637" spreadMethod="pad"><stop offset="0%" stop-color="#EE3338"/><stop offset="100%" stop-color="#D43136"/></linearGradient><linearGradient id="r" gradientUnits="userSpaceOnUse" x1="333.35" y1="306.55" x2="377.55" y2="281.05" spreadMethod="pad"><stop offset="0%" stop-color="#EE3338"/><stop offset="100%" stop-color="#D43136"/></linearGradient><linearGradient id="s" gradientUnits="userSpaceOnUse" x1="386.213" y1="365.813" x2="352.387" y2="311.688" spreadMethod="pad"><stop offset="0%" stop-color="#EDD2BD"/><stop offset="100%" stop-color="#DFB493"/></linearGradient><linearGradient id="t" gradientUnits="userSpaceOnUse" x1="375.088" y1="341.137" x2="337.012" y2="315.463" spreadMethod="pad"><stop offset="0%" stop-color="#371F1E"/><stop offset="100%" stop-color="#9B2B30"/></linearGradient><linearGradient id="u" gradientUnits="userSpaceOnUse" x1="392.613" y1="312.813" x2="357.588" y2="353.087" spreadMethod="pad"><stop offset="0%" stop-color="#702527"/><stop offset="100%" stop-color="#C83035"/></linearGradient><linearGradient id="v" gradientUnits="userSpaceOnUse" x1="378.512" y1="388.95" x2="337.488" y2="355.75" spreadMethod="pad"><stop offset="0%" stop-color="#91292D"/><stop offset="29.804%" stop-color="#EF4338"/><stop offset="100%" stop-color="#F58735"/></linearGradient><linearGradient id="w" gradientUnits="userSpaceOnUse" x1="334.975" y1="356.512" x2="372.625" y2="384.887" spreadMethod="pad"><stop offset="0%" stop-color="#EE3338"/><stop offset="100%" stop-color="#83282B"/></linearGradient><linearGradient id="x" gradientUnits="userSpaceOnUse" x1="334.087" y1="356.55" x2="386.813" y2="394.85" spreadMethod="pad"><stop offset="0%" stop-color="#B52E33"/><stop offset="100%" stop-color="#592222"/></linearGradient><linearGradient id="y" gradientUnits="userSpaceOnUse" x1="337.925" y1="328.9" x2="383.375" y2="307.7" spreadMethod="pad"><stop offset="0%" stop-color="#A12B31"/><stop offset="100%" stop-color="#572222"/></linearGradient><linearGradient id="z" gradientUnits="userSpaceOnUse" x1="309.4" y1="236.15" x2="307.9" y2="253.25" spreadMethod="pad"><stop offset="0%" stop-color="#A0ABD6"/><stop offset="100%" stop-color="#7290C9"/></linearGradient><linearGradient id="A" gradientUnits="userSpaceOnUse" x1="307.225" y1="247.638" x2="307.675" y2="252.662" spreadMethod="pad"><stop offset="0%" stop-color="#7290C9"/><stop offset="100%" stop-color="#5B6DA9"/></linearGradient><linearGradient id="B" gradientUnits="userSpaceOnUse" x1="516.625" y1="267.375" x2="419.475" y2="310.625" spreadMethod="pad"><stop offset="0%" stop-color="#371F1E"/><stop offset="100%" stop-color="#9B2B30"/></linearGradient><linearGradient id="C" gradientUnits="userSpaceOnUse" x1="519.725" y1="285.262" x2="447.775" y2="308.637" spreadMethod="pad"><stop offset="0%" stop-color="#91292D"/><stop offset="100%" stop-color="#A42C31"/></linearGradient><linearGradient id="D" gradientUnits="userSpaceOnUse" x1="487.713" y1="242.8" x2="422.988" y2="305.3" spreadMethod="pad"><stop offset="0%" stop-color="#BD3634"/><stop offset="100%" stop-color="#CE3935"/></linearGradient><linearGradient id="E" gradientUnits="userSpaceOnUse" x1="518.6" y1="258.85" x2="442.9" y2="283.45" spreadMethod="pad"><stop offset="0%" stop-color="#91292D"/><stop offset="100%" stop-color="#A42C31"/></linearGradient><linearGradient id="F" gradientUnits="userSpaceOnUse" x1="521.638" y1="261.962" x2="477.063" y2="276.438" spreadMethod="pad"><stop offset="0%" stop-color="#91292D"/><stop offset="100%" stop-color="#A42C31"/></linearGradient><linearGradient id="G" gradientUnits="userSpaceOnUse" x1="513.075" y1="274.188" x2="429.925" y2="301.212" spreadMethod="pad"><stop offset="0%" stop-color="#91292D"/><stop offset="100%" stop-color="#A42C31"/></linearGradient><linearGradient id="H" gradientUnits="userSpaceOnUse" x1="517.45" y1="281.463" x2="459.95" y2="300.137" spreadMethod="pad"><stop offset="0%" stop-color="#91292D"/><stop offset="100%" stop-color="#A42C31"/></linearGradient><linearGradient id="I" gradientUnits="userSpaceOnUse" x1="515.112" y1="294.512" x2="431.188" y2="321.787" spreadMethod="pad"><stop offset="0%" stop-color="#91292D"/><stop offset="100%" stop-color="#A42C31"/></linearGradient><linearGradient id="J" gradientUnits="userSpaceOnUse" x1="435.637" y1="273.625" x2="450.762" y2="283.075" spreadMethod="pad"><stop offset="0%" stop-color="#EE3338"/><stop offset="100%" stop-color="#F58735"/></linearGradient><linearGradient id="K" gradientUnits="userSpaceOnUse" x1="448.275" y1="265.075" x2="502.925" y2="299.225" spreadMethod="pad"><stop offset="0%" stop-color="#EE3338"/><stop offset="100%" stop-color="#F58735"/></linearGradient><linearGradient id="L" gradientUnits="userSpaceOnUse" x1="494.55" y1="282.9" x2="509.55" y2="308.9" spreadMethod="pad"><stop offset="0%" stop-color="#F89934"/><stop offset="100%" stop-color="#FFCC2A"/></linearGradient><linearGradient id="M" gradientUnits="userSpaceOnUse" x1="508.237" y1="259.563" x2="509.063" y2="269.138" spreadMethod="pad"><stop offset="0%" stop-color="#FFF"/><stop offset="100%" stop-color="#EDD4C1"/></linearGradient><linearGradient id="N" gradientUnits="userSpaceOnUse" x1="496.275" y1="257.738" x2="482.925" y2="244.863" spreadMethod="pad"><stop offset="0%" stop-color="#FFF"/><stop offset="100%" stop-color="#EDD4C1"/></linearGradient><linearGradient id="O" gradientUnits="userSpaceOnUse" x1="504.663" y1="301.537" x2="460.938" y2="275.262" spreadMethod="pad"><stop offset="0%" stop-color="#EE3338"/><stop offset="100%" stop-color="#D43136"/></linearGradient><linearGradient id="P" gradientUnits="userSpaceOnUse" x1="507.138" y1="295.788" x2="464.063" y2="269.913" spreadMethod="pad"><stop offset="0%" stop-color="#EE3338"/><stop offset="100%" stop-color="#D43136"/></linearGradient><linearGradient id="Q" gradientUnits="userSpaceOnUse" x1="505.638" y1="298.288" x2="462.563" y2="272.413" spreadMethod="pad"><stop offset="0%" stop-color="#EE3338"/><stop offset="100%" stop-color="#D43136"/></linearGradient><linearGradient id="R" gradientUnits="userSpaceOnUse" x1="507.55" y1="296.813" x2="463.75" y2="270.487" spreadMethod="pad"><stop offset="0%" stop-color="#EE3338"/><stop offset="100%" stop-color="#D43136"/></linearGradient><linearGradient id="S" gradientUnits="userSpaceOnUse" x1="501.463" y1="306.837" x2="457.738" y2="280.563" spreadMethod="pad"><stop offset="0%" stop-color="#EE3338"/><stop offset="100%" stop-color="#D43136"/></linearGradient><linearGradient id="T" gradientUnits="userSpaceOnUse" x1="447.825" y1="365.412" x2="482.575" y2="311.887" spreadMethod="pad"><stop offset="0%" stop-color="#EDD2BD"/><stop offset="100%" stop-color="#DFB493"/></linearGradient><linearGradient id="U" gradientUnits="userSpaceOnUse" x1="459.038" y1="341.35" x2="497.563" y2="316.35" spreadMethod="pad"><stop offset="0%" stop-color="#371F1E"/><stop offset="100%" stop-color="#9B2B30"/></linearGradient><linearGradient id="V" gradientUnits="userSpaceOnUse" x1="440.988" y1="313.763" x2="476.713" y2="353.438" spreadMethod="pad"><stop offset="0%" stop-color="#702527"/><stop offset="100%" stop-color="#C83035"/></linearGradient><linearGradient id="W" gradientUnits="userSpaceOnUse" x1="455.412" y1="389" x2="496.988" y2="356.5" spreadMethod="pad"><stop offset="0%" stop-color="#91292D"/><stop offset="29.804%" stop-color="#EF4338"/><stop offset="100%" stop-color="#F58735"/></linearGradient><linearGradient id="X" gradientUnits="userSpaceOnUse" x1="499.675" y1="356.088" x2="462.525" y2="385.113" spreadMethod="pad"><stop offset="0%" stop-color="#EE3338"/><stop offset="100%" stop-color="#83282B"/></linearGradient><linearGradient id="Y" gradientUnits="userSpaceOnUse" x1="499.875" y1="356.738" x2="447.825" y2="395.963" spreadMethod="pad"><stop offset="0%" stop-color="#B52E33"/><stop offset="100%" stop-color="#592222"/></linearGradient><linearGradient id="Z" gradientUnits="userSpaceOnUse" x1="496.788" y1="329.738" x2="451.712" y2="307.762" spreadMethod="pad"><stop offset="0%" stop-color="#A12B31"/><stop offset="100%" stop-color="#572222"/></linearGradient><linearGradient id="aa" gradientUnits="userSpaceOnUse" x1="524.9" y1="236.162" x2="526.7" y2="253.237" spreadMethod="pad"><stop offset="0%" stop-color="#A0ABD6"/><stop offset="100%" stop-color="#7290C9"/></linearGradient><linearGradient id="ab" gradientUnits="userSpaceOnUse" x1="527.125" y1="247.575" x2="526.775" y2="252.625" spreadMethod="pad"><stop offset="0%" stop-color="#7290C9"/><stop offset="100%" stop-color="#5B6DA9"/></linearGradient><linearGradient id="ac" gradientUnits="userSpaceOnUse" x1="423.1" y1="275.538" x2="423.1" y2="270.563" spreadMethod="pad"><stop offset="0%" stop-color="#373535"/><stop offset="100%" stop-color="#EE3338"/></linearGradient><linearGradient id="ad" gradientUnits="userSpaceOnUse" x1="411.35" y1="275.538" x2="411.35" y2="270.563" spreadMethod="pad"><stop offset="0%" stop-color="#373535"/><stop offset="100%" stop-color="#EE3338"/></linearGradient><linearGradient id="ae" gradientUnits="userSpaceOnUse" x1="417.15" y1="263.525" x2="417.15" y2="271.175" spreadMethod="pad"><stop offset="0%" stop-color="#9C6C63"/><stop offset="100%" stop-color="#783F3D"/></linearGradient><linearGradient id="af" gradientUnits="userSpaceOnUse" x1="417.2" y1="325.55" x2="417.2" y2="363.15" spreadMethod="pad"><stop offset="0%" stop-color="#9C6C63"/><stop offset="100%" stop-color="#783F3D"/></linearGradient><linearGradient id="ag" gradientUnits="userSpaceOnUse" x1="415.2" y1="362.538" x2="415.2" y2="319.962" spreadMethod="pad"><stop offset="0%" stop-color="#97675E"/><stop offset="100%" stop-color="#E5D8D4"/></linearGradient><linearGradient id="ah" gradientUnits="userSpaceOnUse" x1="417.2" y1="280.525" x2="417.2" y2="316.475" spreadMethod="pad"><stop offset="0%" stop-color="#9C6C63"/><stop offset="100%" stop-color="#783F3D"/></linearGradient><linearGradient id="ai" gradientUnits="userSpaceOnUse" x1="411.9" y1="314.5" x2="411.9" y2="279" spreadMethod="pad"><stop offset="0%" stop-color="#97675E"/><stop offset="100%" stop-color="#E5D8D4"/></linearGradient><path fill="#FFF" fill-opacity="0" d="M284 0H0v320h284V0z" id="aj"/><path fill="url(#a)" d="M371.15 308.45q14-.2 23.9 1.95 8.55 1.8 11.95 1.7 4.4-.15 6.7-3 .85-1 .9-4.15.05-4.15.45-5.85-14-30.85-41.95-49.15-28.35-18.65-63.9-19.6-5-.1-7.15 2.25-2.2 2.45 1.45 4.7.85.55.2 1.8-.65 1.15-1.75 1.8-1.95 1.15-2.15 2.1-.15.75.45 1.4.35.4 1.25 1.05 1.6 1.55-.7 4.2-1.6 1.8-1.95 2.7-.55 1.55.5 3.35 1.35 2.25 4.6 4.1 1.4.8 4.7 2.6 2.5 1.9 1.7 4.85-.5 1.95-.35 2.5.2 1 2 1.55 1.65.45 2.4 1.9.55 1.1.5 2.55-.1 1.5-1.45 2.75-1.55 1.15-1.95 1.6-1.95 2.05-1.7 4.05.25 1.8 2.15 3.35 2.2 1.8 1.6 4.2-.5 1.9-2.2 3.2-1.55 1.25-1.1 2.75.35 1.4 1.85 1.75 2.3.35 3.25 2.9.55 1.35 1.15 5.6.65 5.05 10.15 5.6 9.05.5 24.9-3.25 7-1.65 19.6-1.8z" id="ak"/><path fill="url(#b)" d="M389.05 294.5l-2.65-1.65q-18.15-2.45-36.9-.65-19.2 1.8-35.9 7.75.7.45 1.1 1 17.45-5.95 37-7.6 19.25-1.65 37.35 1.15z" id="al"/><path fill="url(#c)" d="M413.1 306.8q-.4 1.35.2 2.75 2.35-2.6 3.9-9.15-12.7-31.15-41.85-50.2-29.2-19.05-65.5-19.85 36.3 2.95 64.4 23.75 28.05 20.8 38.85 52.7z" id="am"/><path fill="#83282B" d="M303 244q-.1.75.5 1.35.35.35 1.2 1.05.9.8.35 1.8-.25.45-1.45 1.7-2.1 2.4-1.7 4.25.3 1.55 2.85 3.9.9.85 5.45 3.7 1.8 1.05 2.65 2.6.85 1.55.45 3-.45 1.85-.3 2.4.2.95 1.95 1.4 1.6.45 2.35 1.9.55 1.05.5 2.45-.1 1.45-1.45 2.65-1.5 1.05-1.9 1.45-1.9 1.9-1.65 3.9.25 1.75 2.1 3.3 2.1 1.7 1.55 4-.4 1.8-2.05 3.05-1.6 1.15-1.15 2.65.35 1.35 1.85 1.6 2.25.45 3.2 2.85.5 1.35 1.05 5.35.65 4.75 9.65 5.3-5.6-1.05-6.2-4.85-.55-4.1-1.05-5.35-.95-2.45-3.2-2.8-1.45-.3-1.85-1.7-.35-1.5 1.15-2.65 1.65-1.25 2.1-3.05.55-2.3-1.5-4-1.9-1.5-2.15-3.25-.3-1.9 1.6-3.85.4-.45 1.9-1.55 1.35-1.15 1.45-2.65.1-3.5-2.8-4.3-1.75-.5-2-1.45-.15-.55.3-2.4.65-2.2-1.65-4.6-1.9-2-6.3-4.6-2.85-1.65-3.3-3.85-.4-2.1 1.55-4.35 1.25-1.4 1.45-1.7.55-1-.35-1.85-.8-.65-1.15-1-.6-.6-.5-1.3.2-.95 2.05-2.05 1.1-.65 1.7-1.7.7-1.2-.15-1.7-7.3-4.55 3.75-5.75 8.2-.9 14.25-.15-7.6-1.1-15.95-1.25-4.85-.1-6.95 2.15-2.2 2.35 1.4 4.55.85.5.2 1.7-.6 1.1-1.7 1.7-1.95 1.1-2.1 2z" id="an"/><path fill="url(#d)" d="M379.95 272.55q-16.25-12.8-35.6-20.9-20.05-8.4-44.2-9.3-.3.4-.35.65v.5q24.15.9 44.1 9.25 19.1 7.95 35.2 20.6 19.1 15 26.15 31.2.25.55.8.35.2-.05.3-.3.1-.25 0-.45-7.1-16.4-26.4-31.6z" id="ao"/><path fill="url(#e)" d="M362 280.95q-8.45-9.3-22.2-14.25-11.15-4.05-24.95-4.95-3.25-.3-7.65-.3l1.8 1.2q1.85.1 5.75.3 13.7.95 24.6 4.85 13.45 4.85 21.7 13.95.15.15.45.2.25.05.4-.15.45-.5.1-.85z" id="ap"/><path fill="url(#f)" d="M352.55 277.9q-7.95-1.95-18.25-2.5-9.55-.45-19.4.35-.1.75-.35 1.25h.4q9.65-.9 19.25-.4 10.15.55 18.05 2.5 3.35.8 6.85 2.15 3.85 1.35 8.3 3.25 11.85 5.1 22.45 11.45 11.75 7 16.7 12.55l1.3-.35-.15-.15q-4.9-5.65-16.9-12.9-10.9-6.55-23-11.7-4.05-1.85-8.25-3.3-3.05-1.1-7-2.2z" id="aq"/><path fill="url(#g)" d="M378.4 289.5h.1q.2.1.4-.1.2-.15.2-.4.1-.2-.05-.4-.15-.25-.45-.25h-.05q-4.9-.85-11.65-1.35-6-.45-11.9-.45-21.5-.05-41.45 5.25-.25.8-.65 1.45 19.7-5.55 42.1-5.55 6.6.15 11.8.5 5.6.45 11.6 1.3z" id="ar"/><path fill="url(#h)" d="M404.95 305.45q-20.75-4.9-43.8-3.7-23.45 1.25-43.65 8.55.4.45 1.05.95 20.4-7 43.25-8.2 22.7-1.15 42.8 3.7.25.05.5-.15.25-.15.3-.4.05-.25-.05-.5-.15-.2-.4-.25z" id="as"/><path fill="url(#i)" d="M386.15 279.45q-2.1 2.3-3.3 4.75-.8 1.6-.1 2 .75.45 1.7-1.15 5.8-9.9 17.55-10.6l-1.3-1.65q-6.15.45-10.05 2.9-2.4 1.5-4.5 3.75z" id="at"/><path fill="url(#j)" d="M337.8 280.95q-4.6 1.85-7.8 5.5-3.1 3.55-4.65 8.4-1.35 4.05-.4 7.35.8 2.9 3.2 4.6 2.9 2.05 6.3 1.35 3-.65 5.55-3.2 2.45-2.55 3.3-5.75.95-3.45-.4-6.3 6.3-.1 10.2-4.05 3.15-3.25 3.25-6.9 4.1 3.4 7.9 2.95 3.7-.45 3.95-4.1 4.95 3.8 9.85-1.05 1.75-1.85 2.1-2 .85-.4.4 2.1-.45 2.6-.5 2.95-.05 1.4 1.1-.5 6.5-10.95 18.2-11.05-3.5-4.1-6.7-7.15-4.95-1.65-7.85.25-2.3 2.4-2.95 2.8-3.4-2.45-7.55-1.15-3.8 1.15-7.05 5-2 2.4-3.3 2.2-2-.95-4.05-1.6-2.85-.95-5.3.65-1.3.85-4.05 3.95-2.7 3.1-6.05 3.55-5.55.75-6.7 1.2z" id="au"/><path fill="url(#k)" d="M337.2 284.6q-3-.2-5.9 2.9-2.95 3.15-4 7.7-1.15 4.5.2 7.95 1.35 3.45 4.3 3.65h.6q-2.45-.85-3.4-4.05-1-3.25 0-7.35 1.1-4.35 3.8-7.4 2.75-3.05 5.65-3.15-1.1-.25-1.25-.25z" id="av"/><path fill="#EDD2BD" d="M333.9 269.95q-1.35-.05-2.35.55-.95.65-1.05 1.6-.05 1 .85 1.7.9.75 2.2.8 1.3.1 2.25-.5 1-.65 1.05-1.6.1-.95-.75-1.7-.9-.75-2.2-.85z" id="aw"/><path fill="url(#l)" d="M330.8 263.95q.1-.15.1-.3.1-1.5-1.3-3-1.4-1.45-3.45-2-2.05-.55-3.55.1-1.55.7-1.65 2.25-.15 1.05.65 2.3-.9 1-1 2.15-.1 1.55 1.3 2.45 1.4.9 3.5.65 2.1-.2 3.7-1.45t1.7-2.85v-.3z" id="ax"/><path fill="#FFF" d="M321.3 252.8q-.55-1.15-1.45-1.65-.95-.5-1.8-.15-.8.35-1 1.4-.2 1.05.3 2.1.5 1.15 1.45 1.7.9.5 1.7.1.8-.3 1.05-1.35t-.25-2.15z" id="ay"/><path fill="#FFF" d="M321.45 245.3q.4-.9.2-1.75t-.85-1.1q-.7-.3-1.45.15-.75.4-1.15 1.35-.35.9-.2 1.75.2.85.85 1.2.7.25 1.45-.2.8-.45 1.15-1.4z" id="az"/><path fill="url(#m)" d="M344.9 243.2q-1.75.95-4.5 3.25-1.45 1.05-4.5 4.1-2.05 2.25-1.15 4.9.75 2.25 3.4 4.2 3.05 2.25 5.4 1.4 1.65-.6 4.85-3.95 1.35-1.5 3.95-4.65 1.55-1.8 4.65-5.2.95-1.2.05-2.4-.7-.95-2.5-1.75-2.85-1.2-4.35-1.25-2.6-.15-5.3 1.35z" id="aA"/><path fill="#EDD2BD" d="M341.6 272q-1.45-.1-1.65.65 0 .75 1.5.9.65.05 1.15-.15.5-.2.5-.5 0-.75-1.5-.9z" id="aB"/><path fill="#EDD2BD" d="M344.4 270.15q-.5-.35-1.05-.35-.5 0-.65.35-.35.6 1.05 1.35.6.3 1.1.3.55 0 .65-.3.15-.25-.15-.65-.35-.45-.95-.7z" id="aC"/><path fill="#FFF" d="M327.8 238.1q1.85-2.1 1.85-4.9-3.05-.6-7.55-1.15 1.6 2 1.05 4.95-.5 2.8-2.2 3.15 4.45.65 6.85-2.05z" id="aD"/><path fill="url(#n)" d="M385.25 277q-5.25-4.75-12.95-10.1-.05 0-1.15.65 7.7 5.35 13.3 10.3.65-.75.8-.85z" id="aE"/><path fill="url(#o)" d="M362 280.95q-4-4.35-8.85-7.55-.15.1-.9.85 4.95 3.2 8.8 7.5.15.15.45.2.25.05.4-.15.45-.5.1-.85z" id="aF"/><path fill="url(#p)" d="M352.55 277.9l-3-.6q-.8.7-1.15.9l3.85.9q3.35.8 6.85 2.15 2.1.75 7.35 2.85.45-.35.95-.9-5.3-2.2-7.85-3.1-3.05-1.1-7-2.2z" id="aG"/><path fill="url(#q)" d="M354.85 286.55q-13.5-.05-26.55 2.1-.7 1.05-.85 1.35 12.4-2.15 26.55-2.3.45-.45.85-1.15z" id="aH"/><path fill="url(#r)" d="M340.7 304.15q-5.4.9-12.35 2.7.75.6 1.8.95 4.75-1.1 8.8-1.95.9-.7 1.75-1.7z" id="aI"/><path fill="#EDD4C1" d="M337.5 249l-.95 1q4.7 1.55 7.35 2.75l5.9 2.65.8-.95q-3.8-1.8-6.25-2.8-3.3-1.4-6.85-2.65z" id="aJ"/><path fill="#EDD4C1" d="M330.8 264.25v-.2q-4.4-1-9.7-1.75l.5 1-.2.3q3.9.45 9.2 1.65.2-.45.2-1z" id="aK"/><path fill="#EE3338" d="M387.05 278.55l-.85.9 1.5 1.35q.1-.15.8-.85l-1.45-1.4z" id="aL"/><path fill="#F58735" d="M396.35 267.85q-2.15-2.3-2.55-2.65l-1.35-.3q-4.55-.95-7.1.75-2.5 1.7-1.55 5l.15.6q-.1-2.7 2.4-3.95 2.5-1.35 6.5-.55 1.9.5 3.5 1.1z" id="aM"/><path fill="#EE3338" d="M342.9 292.95q-8.45 1.1-18.05 3.55l-.25 1.45q8.65-2.25 18.8-3.7l-.5-1.3z" id="aN"/><path fill="url(#s)" d="M389.5 308.75q-.9.1-13.7 1.85-13.8 1.85-23.3 5.2-11.9 4.15-20.4 11.6-3.25 2.8-3.65 3.3-1.3 1.9.4 4.1 1.8 2.4.4 5.55-1.05 2.4-3.6 4.8 3.15 4.3 2.05 8.2-.55 2.1-2.2 4.4 3.65-.4 5.6 3.55 1.95 3.9.3 7.5 3.75-.1 6.55 2.6 3.35 3.25 2.45 8.75 4.9-1.75 7.7 1.1 2.2 2.2 2.15 5.3 4.45-1.35 7.9.7 2.65 1.6 4.1 4.8 4-1.2 8.3-1.55 7.15-.6 10.35 2 1.05.1 3.15-1.8 2.5-2.25 4.45-6 1.1-2 2.4-16.65 1.2-15.1 1.45-16.95 8.85-1.7 13.45-6.7 3.25-3.5 4.7-9.15 1.15-4.25.95-11.1-.15-6.6-1.45-10.8-.55-1.75-3.9-3.8-3.2-1.75-3.2-1.9v1.15q-5.9-.75-13.4-.05z" id="aO"/><path fill="url(#t)" d="M391.95 305.4q-.35.05-13.75 1.85-26.35 3.55-43.7 18.7-3.2 2.7-3.6 3.3-1.3 1.9.35 4.1 1.75 2.3.25 5.1-.95 1.7-3.8 4.4 3.2 4.3 2.5 8.2-.35 2.05-1.85 4.4 3.65-.4 5.8 3.45 2.1 3.8.5 7.35 3.9 0 6.25 2.1 3.05 2.85 2.5 9 7.85-2.8 10.25 6.25 4.35-1.3 7.65 1.15 2.2 1.6 3.7 4.55 6.15-2.4 6.75-2.55 6.65-1.3 11.7 3 .9.15 3.05-2.1 2.45-2.55 4.45-6.35 2.95-5.8 3.85-10.85 8.3-1.6 13.45-18.1 1.65-5.2 3.1-12.4 1.25-6.7 1.6-8.15 1.15-4.25.95-11.05-.2-6.65-1.5-10.8-.55-1.75-3.85-3.8-3.2-1.7-3.2-1.85v1.15q-5.9-.8-13.4-.05z" id="aP"/><path fill="url(#u)" d="M352.25 383.4l.25.65q.3 0 .5-.15l4.8-4.65q8.25-8.5 10.5-10.9 30.25-32.4 43.15-59.9l-.65-.65q-12.8 27.3-43.1 60-6.3 6.65-10.55 10.85l-4.9 4.75m11.3 5.85q.2.4.3.5.55-.55 1.3-.85.6-.65.85-1.05 3.85-4.15 9.9-11.45 27.55-33.9 36.65-66l-.5-1.3q-4.75 17.15-15.05 35.2-9.05 15.9-21.85 31.55-5.1 6.4-9.8 11.45l-1.8 1.95m-30.15-22.5h1.1q7.8-6.45 42.95-34.6 20-16 31.75-25.55l-.7-.45q-16.8 13.55-31.6 25.35-27 21.5-43.35 34.9 0 .2-.15.35m17.8 3.1q4.8-4.35 11-10.2 30.8-29.2 48.1-52.3l-.65-.5q-17.3 23-48.1 52.15-6.55 6.25-10.95 10.2l-8.25 7.45-.1 1.2.1-.05 8.85-7.95m10.55-48.3q-15.6 8-31.5 18.75-1.15 1.4-2.55 2.55l.1.1q17.95-12.25 34.35-20.6 23.35-11.85 44.85-16.7-27.4 12.95-59.05 34.75l-20.45 14.9-.3.65q.3-.05 1-.05 7.95-5.9 8.25-6.1 6.4-4.75 12-8.65 31.4-21.7 59.85-35.15l-.9-.5h-.05l-1-.6-1 .25v.3l-.75-.15q-20.25 4.85-42.85 16.25z" id="aQ"/><path fill="url(#v)" d="M327.85 342.85h-.15q3.2 4.3 1.95 8.45-.7 2.2-2.45 4.65 3.6-.5 5.75 3.45 2.1 3.85.45 7.35 4-.05 6.3 2.1 3.1 2.8 2.55 9 7.85-2.8 10.25 6.2 4.3-1.25 7.65 1.15 2.2 1.6 3.7 4.55 2.85-1.2 7.5-1.55 7.3-.55 12.1 2.7.85.1 3.15-2.8 2.45-3.05 4.55-7.15-4.15.45-10.1-.15-5.75-.55-7.35-1.5-2.4-1.4-6.2-6.2-3.5-4.45-5.75-5.3-3.65-.9-4.75-1.45-1.8-.8-1.8-3.95 0-4.05-3.35-6-3.4-1.15-3.4-1.35 1.05-4.5-1.4-7.1-2.2-2.3-5.95-2.15-1.7.05-3.45-.5-2.25-.75-3.3-.9l-3.15-.4q-1.7-.35-3.35-1.15z" id="aR"/><path fill="url(#w)" d="M363.7 389.45v.15h.1v.15h.05q.55-.55 1.3-.85.6-.65.85-1.05 2.9-3.05 7.6-8.6l-.8-.5q-4.1 4.95-7.45 8.55l-1.8 1.95.1.05v.15h.05m-11-5.45h.2v-.1h.1l4.8-4.65q4.7-4.7 8-8.25l-.55-.65q-1.35 1.45-8.1 8.3l-4.9 4.75.25.65.2-.05m3.25-18.45q-.3-.4-.45-.85l-13.15 11.95v.15q0 .2-.1.25v.45l1.25-1.2-1.25 1.25v.3l.1-.05 13.6-12.25m-7.5-10.5l.2-.95q-8.5 6.85-15.1 12.3v.15h-.05v.15l-.1.05h1.1q10.2-8.3 14.25-11.55l-.3-.15m-6.55-9.25q-.3-.1-.8 0h-.7l-12.9 9.5v.1h-.05v.15h-.1v.15h-.05v.15h-.1v.1l.25-.05h.75q7.95-5.9 8.25-6.1 1.15-.9 5.45-4z" id="aS"/><path fill="#FFCC2A" d="M340.15 352.45q-.65-.65-1.55-.6-.9 0-1.4.6-.5.65-.35 1.5.2.85.95 1.45.7.6 1.6.6.85 0 1.35-.6.55-.65.35-1.5-.15-.85-.95-1.45z" id="aT"/><path fill="#FFCC2A" d="M347.45 363.25q-.65-.5-1.4-.5-.75.05-1.15.55-.4.55-.2 1.25.15.7.8 1.2t1.35.45q.75 0 1.15-.5.4-.55.25-1.3-.15-.75-.8-1.15z" id="aU"/><path fill="#FFCC2A" d="M356.25 371.3q-.75-.3-1.45-.15t-1 .75q-.35.6 0 1.3.3.65 1 1 .65.35 1.4.2.7-.2 1.05-.8.25-.6-.05-1.25-.25-.65-.95-1.05z" id="aV"/><path fill="#FFCC2A" d="M363.65 378.3q-.2.7.25 1.4t1.25.95q.85.3 1.6-.05.75-.3 1-1t-.2-1.4q-.45-.75-1.3-1-.85-.25-1.6.05-.75.35-1 1.05z" id="aW"/><path fill="#41201F" d="M339.65 353.15q-.7-.6-1.55-.6-.9.05-1.4.7-.5.6-.35 1.45.2.8.95 1.5.7.6 1.6.55.85-.05 1.35-.65.55-.6.35-1.45-.15-.9-.95-1.5z" id="aX"/><path fill="#41201F" d="M346.95 363.95q-.65-.5-1.4-.45-.75.05-1.15.6-.4.5-.2 1.25.15.7.8 1.2t1.35.45q.75-.05 1.15-.6.4-.55.25-1.25-.15-.7-.8-1.2z" id="aY"/><path fill="#41201F" d="M355.7 372.1q-.65-.35-1.4-.2-.7.2-1.05.8-.25.55.05 1.25t1 1.05q.7.3 1.4.15t1.05-.75q.3-.6 0-1.3-.35-.65-1.05-1z" id="aZ"/><path fill="#41201F" d="M364.15 378.05q-.8.3-1 1.05-.2.65.25 1.35.4.7 1.25.95t1.6-.05q.8-.35 1-1.05.25-.7-.2-1.35-.45-.7-1.3-.95-.85-.25-1.6.05z" id="ba"/><path fill="#41201F" d="M355.5 380.65q-.35-.35-2.8 1.5-2.15 1.6-2.8 2.35-1.3 1.35-.2 2.35 1.15 1.05 2.4-.35.75-.75 2.15-2.9 1.65-2.55 1.25-2.95z" id="bb"/><path fill="#41201F" d="M346.3 373.45q-.4-.4-3.15 1.6-2.35 1.75-3.2 2.65-1.4 1.55-.15 2.7 1.25 1.15 2.7-.4.95-1.1 2.4-3.3 1.85-2.85 1.4-3.25z" id="bc"/><path fill="#41201F" d="M336.65 364.45q-.3-.35-2.75 1.05-2 1.2-2.8 1.85-1.35 1.15-.45 2.2.9 1.1 2.25-.05.75-.65 2.3-2.5 1.8-2.15 1.45-2.55z" id="bd"/><path fill="#41201F" d="M331.75 352.6q-.3-.4-3.1 1-2.05 1.05-3.25 1.85-1.5 1.15-.55 2.4.9 1.25 2.45.05.9-.7 2.65-2.55 2.1-2.3 1.8-2.75z" id="be"/><path fill="#41201F" d="M363.9 388.35q-1.75 1.45-2.4 2.2-1.1 1.25-.1 2.15 1 .9 2.1-.35.7-.85 1.85-2.75 1.4-2.35 1.05-2.65-.4-.3-2.5 1.4z" id="bf"/><path fill="url(#x)" d="M383.1 387.35q-1.55-.7-2.55-.9-5.6-1.65-11.7-.3-.5.1-.4.65.2.4.6.35 5.9-1.35 11.2.2.6.2 2.45.95 1.05.5 2.35 1.3l.05.05q.4.3.65-.15.3-.4-.05-.7h-.1q-.8-.55-2.5-1.45m-35.85-11.95q-.55 0-.55.5t.55.5q2.1 0 3.5 1.25 1.15 1 2.1 2.75.05.2.25.25.2.05.4-.05.45-.35.2-.65-1-2-2.3-3.1-1.7-1.45-4.15-1.45m9.2 6.85q.1.5.55.5 2.15-.05 4.05 1.15 1.35.9 2.75 2.75.3.35.7.05.35-.25.1-.7-1.6-2-2.95-2.95-2.15-1.35-4.7-1.3-.5 0-.5.5m-18.35-16.7q-.55-.1-.65.35-.1.35.35.6 2.5.65 3.8 1.95 1.7 1.8 2.05 4.8.1.55.55.45.2 0 .35-.15.15-.2.1-.35-.35-3.35-2.3-5.5-1.7-1.55-4.25-2.15m-7.15-10.05q.05.2.3.25 2.7 1.25 3.65 4.4.3 1 .3 1.15l.05 1.1q.2.5.6.5.2 0 .35-.15.15-.2.1-.35v-.1l-.45-2.45q-1.1-3.65-4.25-4.95-.45-.2-.65.2-.1.2 0 .4m.1-11.55q-.25-.45-.75-.2-.15.05-.2.25-.05.2 0 .4.9 1.6 1.2 3.85.15 1.5-.25 3.1-.2.35.25.6.55.1.65-.35.5-1.55.35-3.4-.15-1.9-1.25-4.25z" id="bg"/><path fill="#A0ABD6" d="M377.9 381.3q-1.65-.5-3.2-.35-1.5.15-2 .85-.5.8.4 1.7.85.85 2.55 1.4 1.7.5 3.2.35 1.55-.15 2-.85.5-.75-.4-1.65-.85-.9-2.55-1.45z" id="bh"/><path fill="#A0ABD6" d="M385.05 382.9q-1.25-.15-2.25.2t-1.25 1.05q-.15.65.6 1.2.7.55 1.95.7 1.25.1 2.25-.25 1.05-.4 1.2-1.05.25-.65-.5-1.2-.75-.55-2-.65z" id="bi"/><path fill="#41201F" d="M330.65 341.05q-.25-.35-2.8.95-2.2 1.15-3 1.75-1.4 1.05-.55 2.2.85 1.1 2.25.1.85-.65 2.5-2.45 1.95-2.15 1.6-2.55z" id="bj"/><path fill="#7290C9" d="M377.75 382.1q-1-.3-1.85-.2-.9.05-1.15.5-.3.4.2.95.5.5 1.5.85 1 .3 1.85.2.9-.05 1.2-.5.25-.4-.25-.95-.5-.5-1.5-.85z" id="bk"/><path fill="#7290C9" d="M384.95 383.6q-.65-.05-1.15.15-.55.2-.65.5-.1.35.3.7.4.25 1.05.35.65.05 1.2-.15.5-.2.6-.5.1-.35-.3-.65-.4-.3-1.05-.4z" id="bl"/><path fill="url(#y)" d="M378.6 314.3l18.75-6.7 9.5-2.45-1.5-.85v1.15q-6.3-.85-13.55-.55-5.5.25-13.85 1.4-5.55.85-9.05 1.65-1.4.3-3.75 1.9-2.6 1.75-3.75 2.15-1.2.4-4.25.45-2.75.1-4.15.7-10.35 4.6-18.75 11.85-2.7 2.45-3.45 3.8-1.25 2.35.45 4.55 1.6 2.1.5 4.55-.75 1.75-3.1 4.1l9.95-6.75 26.4-14.9 13.6-6.05z" id="bm"/><path fill="#9B2B30" d="M368.2 312.65q1.9-2.4 1.15-4.7v-.15q-8.6 1.95-16.45 5.4v.1q.7 2.25 3.65 3.1 3 .85 6.35-.25 3.4-1.1 5.3-3.5z" id="bn"/><path fill="url(#z)" d="M310.3 233.7q-1.55-1.2-2.55.05-.95 1.15-.25 2.7 0 .05.45 1.05.3.7.4 1.25.25 1.4-.2 2.45-.5 1.2-1.75 1.45-.85.15-1 .9-.1.7.3 1.05.9.9.35 2.5-.8 2.6-.85 2.75-.1.8.05 1.7.2.95.7 1.45.65.65 1.45.6.85-.1 1.45-1.1 1.1-1.6.45-3.8-.6-1.85.1-3.35.2-.55 1.7-2.5 1.95-2.75 1.05-5.8-.7-2.55-1.85-3.35z" id="bo"/><path fill="#A0ABD6" d="M313.75 258.35q-1.2-1.25-2.6-1.9-1.4-.65-2.1-.35-.75.35-.4 1.5t1.55 2.4q1.25 1.25 2.6 1.9 1.4.65 2.15.35.7-.35.4-1.5-.35-1.15-1.6-2.4z" id="bp"/><path fill="#7290C9" d="M313.3 258.85q-.65-.7-1.5-1.1-.8-.35-1.2-.2-.45.25-.25.9t.9 1.4q.65.7 1.5 1.1.8.35 1.2.2.45-.2.25-.9-.2-.65-.9-1.4z" id="bq"/><path fill="#A0ABD6" d="M317.85 266.9q-.05-1.1-.5-2-.45-.9-1-1.1-.55-.15-.9.55-.3.7-.25 1.85.05 1.1.45 1.95.45.9 1 1.05.5.2.9-.5.35-.7.3-1.8z" id="br"/><path fill="#7290C9" d="M317.35 266.9q-.2-1.55-.85-1.8-.35-.05-.55.35-.15.4-.1 1.05 0 .65.25 1.2.25.5.55.6.3.1.5-.35.25-.4.2-1.05z" id="bs"/><path fill="url(#A)" d="M308.55 250.55q.25-1 .05-1.95-.2-.9-.7-1.15-.45-.25-.95.35-.45.55-.7 1.6-.2 1.05-.05 1.95.2.95.7 1.15.5.25.95-.35.5-.55.7-1.6z" id="bt"/><path fill="#7290C9" d="M311.15 236.45q-.4-1-.95-1.65-.55-.65-1.05-.65-.45-.05-.55.65-.1.7.25 1.65.35 1 .9 1.7t1.05.7q.5 0 .6-.7.1-.7-.25-1.7z" id="bu"/><path fill="url(#B)" d="M463.25 308.45q12.6.15 19.55 1.8 15.85 3.75 24.95 3.25 9.45-.55 10.2-5.6.55-4.25 1.05-5.6.95-2.55 3.25-2.9 1.55-.3 1.9-1.75.4-1.5-1.15-2.75-1.7-1.3-2.15-3.2-.65-2.4 1.55-4.2 1.95-1.55 2.2-3.35.25-2-1.7-4.05-1.25-.9-1.95-1.6-1.35-1.25-1.45-2.75-.1-1.4.5-2.55.7-1.45 2.4-1.9 1.8-.55 2.05-1.55.15-.65-.4-2.5-.75-2.95 1.7-4.85 1.4-1.1 4.65-2.6 3.3-1.85 4.6-4.1 1.05-1.8.5-3.35-.3-.85-1.85-2.7-2.5-2.6-.75-4.2l1.2-1.05q.6-.65.45-1.4-.1-.8-2.05-2.1-1.1-.65-1.75-1.8-.7-1.25.15-1.8 3.65-2.25 1.45-4.7-2.15-2.35-7.15-2.25-35.6.95-63.9 19.6-27.9 18.3-41.95 49.15.45 1.8.55 5.85.05 3.15.85 4.15 2.2 2.85 6.6 3 3.4.1 12.05-1.7 9.8-2.15 23.85-1.95z" id="bv"/><path fill="url(#C)" d="M484.85 292.2q-18.75-1.8-36.8.65l-2.75 1.65q18.1-2.8 37.4-1.15 19.5 1.65 37.05 7.6.5-.65 1-1-16.7-5.95-35.9-7.75z" id="bw"/><path fill="url(#D)" d="M421.1 309.55q.5-1.35.3-2.75 10.75-31.9 38.75-52.7 28.05-20.8 64.35-23.75-36.25.8-65.45 19.85-29.1 19.05-41.85 50.2 1.65 6.55 3.9 9.15z" id="bx"/><path fill="#83282B" d="M527.9 244.5q.15.7-.45 1.3-.85.65-1.25 1-.85.85-.3 1.85.1.2 1.4 1.7 2 2.25 1.55 4.35-.45 2.2-3.3 3.85-4.4 2.6-6.3 4.6-2.3 2.4-1.65 4.6.45 1.85.3 2.4-.25.95-2 1.45-1.6.45-2.3 1.85-.55 1.1-.5 2.45.1 1.5 1.45 2.65.7.65 1.9 1.55 1.9 1.9 1.65 3.85-.25 1.75-2.1 3.25-2.1 1.7-1.6 4 .45 1.8 2.1 3.05 1.6 1.15 1.2 2.65-.4 1.4-1.85 1.7-2.25.35-3.2 2.8-.55 1.3-1.1 5.35-.6 3.8-6.2 4.85 8.95-.55 9.7-5.3.5-3.95 1.05-5.35.95-2.4 3.2-2.85 1.5-.25 1.85-1.6.4-1.5-1.2-2.65-1.65-1.25-2.05-3.05-.55-2.3 1.55-4 1.85-1.55 2.1-3.3.25-2-1.65-3.9-1.15-.85-1.9-1.45-1.3-1.2-1.45-2.65-.05-1.4.5-2.45.75-1.45 2.4-1.9 1.7-.5 1.95-1.4.15-.6-.35-2.4-.4-1.45.45-3 .85-1.55 2.65-2.6 4.35-2.65 5.45-3.7 2.55-2.4 2.9-3.9.45-1.9-1.65-4.25-1.2-1.2-1.45-1.7-.55-1 .35-1.8.35-.35 1.15-1.05.6-.65.45-1.35-.15-.9-2.05-2-1.1-.6-1.7-1.7-.65-1.15.15-1.7 3.6-2.2 1.45-4.55-2.1-2.25-7-2.15-8.35.15-15.95 1.25 6.05-.75 14.25.15 11.1 1.2 3.75 5.75-.85.5-.15 1.7.6 1.05 1.7 1.7 1.95 1.2 2.1 2.05z" id="by"/><path fill="url(#E)" d="M428 304.15q-.1.2 0 .45t.35.3q.55.2.8-.35 7-16.2 26.15-31.2 16.1-12.65 35.2-20.6 19.95-8.35 44.05-9.25v-.5q-.1-.45-.35-.65-24.15.9-44.2 9.3-19.35 8.1-35.6 20.9-19.25 15.2-26.4 31.6z" id="bz"/><path fill="url(#F)" d="M472.45 280.95q-.4.35 0 .85.4.4.85-.05 8.25-9.1 21.75-13.95 10.9-3.9 24.6-4.85 1.95-.15 5.8-.3.9-.7 1.8-1.2-4.5 0-7.75.3-13.8.9-24.95 4.95-13.7 4.95-22.1 14.25z" id="bA"/><path fill="url(#G)" d="M481.85 277.9q-3.85 1.05-7.05 2.2-4.15 1.5-8.25 3.3-12.1 5.15-23 11.7-12 7.25-16.9 12.9 0 .1-.1.15l1.25.35q5-5.55 16.75-12.55 10.65-6.35 22.5-11.45 4.45-1.95 8.2-3.25 3.25-1.25 6.9-2.15 7.95-1.95 18.05-2.5 9.55-.5 19.2.4h.4q-.3-.7-.3-1.25-9.85-.8-19.4-.35-10.25.55-18.25 2.5z" id="bB"/><path fill="url(#H)" d="M455.95 289.5h.05q6.25-.9 11.55-1.3 5.2-.35 11.85-.5 22.4 0 42.15 5.55-.35-.5-.65-1.45-20.1-5.3-41.5-5.25-5.95 0-11.95.45-6.75.5-11.65 1.35h-.05q-.3 0-.45.25-.15.2-.05.4.1.65.7.5z" id="bC"/><path fill="url(#I)" d="M429.45 305.45q-.6.1-.5.75.3.6.8.55 20.1-4.85 42.8-3.7 22.85 1.2 43.25 8.2.75-.6 1.05-.95-20.15-7.3-43.6-8.55-23.1-1.2-43.8 3.7z" id="bD"/><path fill="url(#J)" d="M443.7 275.7q-3.9-2.45-10-2.9l-1.35 1.65q11.75.7 17.55 10.6.95 1.6 1.7 1.15.7-.4-.05-2-1.25-2.45-3.35-4.75t-4.5-3.75z" id="bE"/><path fill="url(#K)" d="M441.7 264.1q-3.45 3.5-6.7 7.15 11.8.1 18.3 11.05 1.1 1.9 1 .5-.35-2.1-.5-2.95-.45-2.5.4-2.1.35.15 2.2 2 4.8 4.85 9.75 1.05.3 3.65 4 4.1 3.8.45 7.85-2.95.1 3.6 3.3 6.9 3.95 3.95 10.15 4.05-1.3 2.85-.35 6.3.85 3.2 3.3 5.75 2.5 2.55 5.55 3.2 3.35.7 6.25-1.35 2.45-1.7 3.25-4.6.95-3.25-.35-7.35-3.4-10.25-12.55-13.9-1.15-.45-6.65-1.2-3.4-.45-6.1-3.55-2.75-3.15-4-3.95-2.45-1.6-5.3-.65-3.1 1.45-4.05 1.6-1.35.2-3.35-2.2-3.25-3.85-7.05-5-4.1-1.3-7.55 1.15-1.35-1.8-2.9-2.8-2.9-1.9-7.9-.25z" id="bF"/><path fill="url(#L)" d="M503.1 287.5q-2.95-3.1-5.95-2.9-.25 0-1.15.25 2.85.1 5.6 3.15 2.7 3.05 3.75 7.4 1 4.1.05 7.35-.95 3.2-3.35 4.05h.5q3-.2 4.35-3.65 1.35-3.4.25-7.95-1.1-4.55-4.05-7.7z" id="bG"/><path fill="#EDD2BD" d="M502.8 270.5q-1-.6-2.3-.55-1.35.1-2.2.85-.85.75-.8 1.7.05 1 1 1.6 1 .6 2.3.5 1.35-.05 2.25-.8.9-.7.8-1.7-.05-.95-1.05-1.6z" id="bH"/><path fill="url(#M)" d="M508.95 268.55q2.1.25 3.5-.65t1.3-2.45q0-1.05-1-2.15.85-1.15.75-2.3-.1-1.55-1.65-2.25-1.55-.65-3.65-.1-2 .5-3.4 2-1.35 1.5-1.25 3v.6q.1 1.6 1.7 2.85 1.6 1.25 3.7 1.45z" id="bI"/><path fill="#FFF" d="M514.55 251.15q-.95.55-1.45 1.65-.5 1.1-.25 2.15.2 1.05 1.05 1.35.85.4 1.75-.1.95-.55 1.4-1.7.5-1.05.25-2.1-.2-1.05-1-1.4-.85-.35-1.75.15z" id="bJ"/><path fill="#FFF" d="M512.75 243.55q-.25.85.15 1.75.4.95 1.15 1.4.75.45 1.45.2.65-.35.85-1.2.2-.85-.2-1.75-.35-.95-1.1-1.35-.75-.45-1.45-.15-.65.25-.85 1.1z" id="bK"/><path fill="url(#N)" d="M484.25 241.85q-1.55.05-4.4 1.25-1.8.8-2.55 1.75-.9 1.2.1 2.4l8.65 9.85q3.1 3.35 4.8 3.95 2.35.85 5.4-1.4 2.65-1.9 3.45-4.2.85-2.6-1.25-4.9-2.4-2.6-4.5-4.1-2.75-2.3-4.45-3.25-2.7-1.5-5.25-1.35z" id="bL"/><path fill="#EDD2BD" d="M493.95 272.15q-.5-.2-1.2-.15-1.5.2-1.5.9.05.3.5.5.5.2 1.15.15 1.6-.2 1.5-.9 0-.3-.45-.5z" id="bM"/><path fill="#EDD2BD" d="M491.05 269.8q-.55 0-1.1.35-.6.25-.9.7-.35.4-.2.65.15.3.65.3.55 0 1.1-.3 1.45-.8 1.05-1.35-.1-.35-.6-.35z" id="bN"/><path fill="#FFF" d="M512.25 232.05q-4.55.55-7.5 1.15-.05 2.8 1.8 4.9 2.4 2.7 6.85 2.05-1.6-.35-2.15-3.15-.6-2.95 1-4.95z" id="bO"/><path fill="url(#O)" d="M462.15 266.9q-7.6 5.15-13.05 10.1.45.3.85.85 5.7-5.1 13.35-10.3-.8-.5-1.15-.65z" id="bP"/><path fill="url(#P)" d="M481.2 273.4q-4.9 3.25-8.75 7.55-.4.35 0 .85.4.4.85-.05 3.95-4.3 8.8-7.5-.75-.75-.9-.85z" id="bQ"/><path fill="url(#Q)" d="M484.8 277.3q-.2 0-2.95.6-3.85 1.05-7.05 2.2-1.95.7-7.85 3.1.5.6 1 .9 4.85-2 7.3-2.85 3.25-1.25 6.9-2.15l3.8-.9q-.7-.55-1.15-.9z" id="bR"/><path fill="url(#R)" d="M479.5 286.55l.85 1.15q14.15.15 26.55 2.3-.15-.3-.85-1.35-13.05-2.15-26.55-2.1z" id="bS"/><path fill="url(#S)" d="M506 306.85q-6.9-1.8-12.3-2.7.75.95 1.7 1.7 4.6.95 8.8 1.95.9-.3 1.8-.95z" id="bT"/><path fill="#EDD4C1" d="M483.75 254.45l.8.95q1.45-.7 5.95-2.65 2.6-1.1 7.35-2.75l-1-1q-4.6 1.7-6.85 2.65l-6.25 2.8z" id="bU"/><path fill="#EDD4C1" d="M512.95 263.6l-.2-.3.5-1q-5.55.8-9.7 1.75v.2q.05.45.3 1 5.05-1.2 9.1-1.65z" id="bV"/><path fill="#EE3338" d="M448.15 279.45l-.75-.9-1.55 1.4.9.85q.5-.65 1.4-1.35z" id="bW"/><path fill="#F58735" d="M440.6 265.2q-1.7 1.7-2.5 2.65 1.4-.6 3.4-1.1 4-.8 6.55.55 2.45 1.25 2.35 3.95l.2-.6q.95-3.3-1.6-5-2.55-1.7-7.1-.75l-1.3.3z" id="bX"/><path fill="#EE3338" d="M509.5 296.5q-9.6-2.45-18.05-3.55l-.45 1.3q9.95 1.4 18.75 3.7l-.25-1.45z" id="bY"/><path fill="url(#T)" d="M481.85 315.8q-9.5-3.35-23.25-5.2-12.9-1.75-13.7-1.85-7.55-.7-13.45.05v-1.15q-1.55.85-3.2 1.9-3.35 2.05-3.85 3.8-1.3 4.15-1.5 10.8-.2 6.8.95 11.1 1.45 5.65 4.7 9.15 4.6 5 13.45 6.7.05.3 1.55 16.95 1.3 14.7 2.3 16.65 1.95 3.75 4.5 6 2.05 1.9 3.1 1.8 3.25-2.6 10.4-2 4.2.35 8.3 1.55 1.4-3.15 4.05-4.8 3.45-2.05 7.95-.7-.1-3.1 2.1-5.3 2.85-2.85 7.8-1.1-.9-5.5 2.45-8.75 2.7-2.7 6.45-2.6-1.65-3.6.3-7.5 2.05-3.95 5.7-3.55-1.7-2.3-2.3-4.4-1.05-3.9 2.05-8.2-2.55-2.4-3.55-4.8-1.4-3.15.4-5.55 1.65-2.2.35-4.1-.35-.5-3.6-3.3-8.5-7.45-20.45-11.6z" id="bZ"/><path fill="url(#U)" d="M429.1 304.3q-1.55.85-3.25 1.85-3.35 2.05-3.9 3.8-1.2 4.15-1.4 10.8-.2 6.8.85 11.05.4 1.45 1.65 8.15 1.45 7.2 3.1 12.4 5.2 16.5 13.45 18.1.8 4.95 3.8 10.85 2.05 3.85 4.5 6.35 2.15 2.25 3.1 2.1 5-4.3 11.7-3 .95.2 6.7 2.55 1.4-2.95 3.65-4.55 3.35-2.45 7.75-1.15.8-3.4 2.55-5.2 2.8-2.8 7.65-1.05-.55-6.15 2.5-9 2.3-2.1 6.3-2.1-1.65-3.5.45-7.35 2.15-3.85 5.8-3.45-1.85-4.15-1.9-4.4-.7-3.9 2.5-8.2-2.85-2.7-3.8-4.4-1.5-2.8.25-5.1 1.65-2.2.35-4.1-.45-.65-3.6-3.3-17.4-15.2-43.7-18.7-13.55-1.85-13.65-1.85-7.5-.75-13.4.05v-1.15z" id="ca"/><path fill="url(#V)" d="M425.9 306.15l-.75.45q11.75 9.55 31.75 25.55 31.3 25 42.95 34.6h1.1q-.05-.25-.15-.35-16.35-13.4-43.35-34.9-22-17.6-31.55-25.35m-1.15.7l-.7.5q17.6 23.45 48.15 52.3L492 377.8l.15.05-.05-1.2L472.8 359q-30.85-29.2-48.05-52.15m-1.2.95l-.65.65q13 27.65 43.15 59.9 3.5 3.75 10.55 10.9l4.75 4.65q.4.15.6.15 0-.35.15-.65l-4.9-4.75q-5.85-5.95-10.5-10.85-30.35-32.65-43.15-60m-1.6 2.15l-.15.45q9.15 32 36.75 66 4.3 5.35 9.8 11.45.85 1 .9 1.05.55.25 1.3.85l.25-.5-1.8-1.95q-4.3-4.75-9.8-11.45-12.8-15.75-21.8-31.55-10.35-18.1-15-35.2l-.45.85m7.15-4.5v-.3l-1.1-.25-1 .6h-.05l-.9.5q28.9 13.65 59.85 35.15 4.4 3.05 12.1 8.65l8.2 6.1q.65 0 1 .05-.2-.35-.35-.65l-20.45-14.9q-31.8-21.95-59.05-34.75 21.8 4.9 44.85 16.7 16.7 8.5 34.35 20.6.1 0 .1-.1-1.1-.9-2.55-2.55-15.85-10.7-31.45-18.75-22.7-11.4-42.9-16.25-.6.1-.65.15z" id="cb"/><path fill="url(#W)" d="M485.9 355.05q-1.65.4-3.35 1.35-3.35 1.95-3.35 6 0 3.15-1.75 3.95-2.75.65-4.8 1.45-2.3.85-5.8 5.3-3.8 4.8-6.15 6.2-1.65.95-7.35 1.5-5.95.6-10.1.15 2.2 4.15 4.6 7.15 2.3 2.9 3.15 2.8 4.75-3.25 12.05-2.7 4.75.35 7.5 1.55 1.45-2.9 3.65-4.55 3.35-2.45 7.75-1.15.8-3.35 2.55-5.15 2.85-2.8 7.65-1.05-.55-6.2 2.5-9 2.35-2.15 6.3-2.1-1.65-3.55.45-7.35 2.15-3.95 5.8-3.45-1.8-2.45-2.45-4.65-1.3-4.15 1.9-8.45h-.1q-1.6.8-3.35 1.15-2 .25-3.1.4-1.1.15-3.4.9-1.75.55-3.45.5-3.7-.15-5.9 2.15-2.5 2.6-1.45 7.1z" id="cc"/><path fill="url(#X)" d="M493.25 345.8q-.4-.05-.8 0l13.75 10.1h.8l.2.05v-.05h-.05v-.15h-.1v-.15H507v-.05l-.1-.1v-.05h-.05v-.1l-12.9-9.5h-.7m13.25-2.85h.15v-.1h-.1l-.05.1m-44.95 35.8q-.5.35-.7.5 3.4 4.1 7.5 8.6.85 1 .9 1.05.55.25 1.3.85v-.1h.1v-.15h.05v-.1q.1 0 .1-.1v-.05l-1.8-1.95q-5.15-5.8-7.45-8.55m7.55-8.4q-.05.15-.55.65.85.9 8.05 8.25l4.75 4.65h.1v.1h.2l.2.05h.1q0-.35.15-.65l-13-13.05m9.75-5.65l-.35.85L492 377.8l.15.05v-.05l-.05-.1v-.15l-1.25-1.25 1.25 1.2v-.85l-13.25-11.95m6.9-10.6q0 .05.15.95l-.2.15 14.15 11.55h1.1v-.05h-.05v-.15q-.1-.05-.1-.15l-15.05-12.3z" id="cd"/><path fill="#FFCC2A" d="M495.85 351.85q-.9-.05-1.65.6-.75.6-.95 1.45-.15.85.35 1.5.5.6 1.4.6.85 0 1.65-.6.7-.6.85-1.45.2-.85-.3-1.5-.5-.6-1.35-.6z" id="ce"/><path fill="#FFCC2A" d="M488.3 362.75q-.75 0-1.3.5-.65.4-.85 1.15-.15.75.25 1.3.4.5 1.1.5.75.05 1.4-.45.6-.5.8-1.2.15-.7-.25-1.25-.4-.5-1.15-.55z" id="cf"/><path fill="#FFCC2A" d="M479.55 371.15q-.7-.15-1.45.15-.7.4-.95 1.05-.3.65-.05 1.25.35.6 1.05.8.75.15 1.4-.2.75-.35 1.05-1 .3-.7-.05-1.3-.25-.6-1-.75z" id="cg"/><path fill="#FFCC2A" d="M469.7 377.25q-.75-.3-1.6-.05-.8.25-1.25 1-.45.7-.25 1.4.25.7 1 1 .75.35 1.6.05.85-.25 1.3-.95.45-.7.2-1.4-.2-.7-1-1.05z" id="ch"/><path fill="#41201F" d="M496.3 352.55q-.85 0-1.6.6-.75.6-.9 1.5-.2.85.3 1.45t1.4.65q.9.05 1.65-.55.7-.7.85-1.5.2-.85-.3-1.45-.5-.65-1.4-.7z" id="ci"/><path fill="#41201F" d="M488.8 363.5q-.75-.05-1.3.45-.65.5-.85 1.2-.15.7.25 1.25.35.55 1.15.6.7.05 1.4-.45.6-.5.75-1.2.15-.75-.25-1.25-.4-.55-1.15-.6z" id="cj"/><path fill="#41201F" d="M480.05 371.9q-.75-.15-1.4.2-.7.35-1 1-.3.7-.05 1.3.35.6 1.05.75.7.15 1.4-.15.75-.35 1.05-1.05.3-.7-.05-1.25-.25-.6-1-.8z" id="ck"/><path fill="#41201F" d="M470.2 378.05q-.75-.3-1.6-.05-.85.25-1.3.95-.4.65-.2 1.35.25.7 1 1.05.75.3 1.6.05.85-.25 1.3-.95.45-.65.2-1.35-.2-.75-1-1.05z" id="cl"/><path fill="#41201F" d="M481.65 382.15q-2.45-1.85-2.8-1.5-.4.4 1.25 2.95 1.45 2.15 2.2 2.9 1.25 1.4 2.35.35 1.1-1-.2-2.35-.6-.75-2.8-2.35z" id="cm"/><path fill="#41201F" d="M491.25 375.05q-2.7-2-3.2-1.6-.4.4 1.45 3.25 1.6 2.35 2.45 3.3 1.4 1.55 2.6.4 1.25-1.15-.15-2.7-.85-.95-3.15-2.65z" id="cn"/><path fill="#41201F" d="M500.5 365.5q-2.45-1.4-2.8-1.05-.3.4 1.5 2.55 1.4 1.75 2.25 2.5 1.35 1.1 2.25.05.9-1.05-.4-2.2-.65-.6-2.8-1.85z" id="co"/><path fill="#41201F" d="M505.7 353.6q-2.75-1.4-3.1-1-.3.45 1.8 2.75 1.75 1.85 2.65 2.55 1.55 1.2 2.55-.05.95-1.25-.65-2.4-.85-.65-3.25-1.85z" id="cp"/><path fill="#41201F" d="M470.5 388.35q-2.15-1.75-2.55-1.4-.35.3 1.05 2.65 1.15 1.9 1.85 2.75 1.1 1.25 2.15.35 1-.9-.15-2.15-.45-.65-2.35-2.2z" id="cq"/><path fill="url(#Y)" d="M496.9 365.9q-.1-.45-.55-.35-2.65.6-4.25 2.15-2 2-2.4 5.5 0 .5.45.5.55.1.55-.45.35-3.05 2.1-4.8 1.25-1.3 3.75-1.95.5-.15.35-.6m6.3-10.15q.15-.05.25-.25.05-.2-.05-.4-.2-.4-.65-.2-3.1 1.3-4.25 4.95l-.45 2.45v.1q0 .15.15.35.15.15.35.15.5 0 .5-.5 0-.2.15-1.1l.25-1.15q1-3.2 3.75-4.4m.45-12.05q-.2.05-.25.25-1.2 2.3-1.3 4.25-.2 1.55.3 3.4.1.45.65.35.45-.15.35-.6-.45-1.9-.3-3.1.15-1.85 1.15-3.85.1-.2.05-.4-.1-.2-.25-.25-.15-.1-.4-.05m-22.8 36.9q.5.25.75-.2.9-1.7 2-2.75 1.4-1.25 3.6-1.25.5 0 .5-.5t-.5-.5q-2.35 0-4.25 1.45-1.3 1.1-2.3 3.1-.2.35.2.65m-2.95 1.65q0-.5-.5-.5-2.5-.05-4.7 1.3-1.35.95-2.95 2.95-.2.45.15.7.4.25.75-.05 1.25-1.8 2.65-2.75 1.9-1.2 4.1-1.15.5 0 .5-.5m-29.15 6.55q-.45.35-.15.7.3.45.7.15v-.05q1.35-.85 2.4-1.3 1.6-.7 2.35-.95 5.45-1.55 11.25-.2.55.1.65-.35 0-.55-.45-.65-6.15-1.35-11.65.3-.7.15-2.6.9-1.4.75-2.5 1.45z" id="cr"/><path fill="#A0ABD6" d="M459.65 380.95q-1.5-.15-3.2.35-1.7.55-2.55 1.45-.85.9-.4 1.65.5.7 2 .85 1.5.15 3.2-.35 1.7-.55 2.55-1.4.9-.9.4-1.7-.45-.7-2-.85z" id="cs"/><path fill="#A0ABD6" d="M451.6 383.1q-1-.35-2.3-.2-1.2.1-1.95.65-.7.55-.55 1.2.25.65 1.2 1.05 1 .35 2.25.25 1.25-.15 2-.7.75-.55.55-1.2-.2-.65-1.2-1.05z" id="ct"/><path fill="#41201F" d="M506.55 342q-2.6-1.3-2.85-.95-.3.4 1.65 2.55 1.5 1.65 2.45 2.45 1.4 1 2.25-.1.85-1.15-.55-2.2-.6-.55-2.95-1.75z" id="cu"/><path fill="#7290C9" d="M458.5 381.9q-.85-.1-1.9.2-1 .35-1.5.85-.5.55-.25.95.3.45 1.2.5.85.1 1.85-.2 1-.35 1.55-.85.5-.55.25-.95-.35-.45-1.2-.5z" id="cv"/><path fill="#7290C9" d="M450.55 383.75q-.5-.2-1.15-.15-.65.1-1 .4-.4.3-.3.65.05.3.6.5.55.25 1.2.15.65-.05 1.05-.35.35-.35.25-.7-.1-.3-.65-.5z" id="cw"/><path fill="url(#Z)" d="M455.8 314.3l13.55 6.05 26.4 14.9 9.95 6.75q-2.35-2.35-3.1-4.1-1.1-2.45.5-4.55 1.7-2.25.45-4.55-.75-1.4-3.45-3.8-8.35-7.25-18.75-11.85-1.4-.6-4.15-.7-3-.05-4.25-.45-1.15-.4-3.75-2.15-2.3-1.6-3.75-1.9-3.65-.85-9.05-1.65-8.35-1.15-13.8-1.4-7.2-.3-13.5.55v-1.15l-1.5.85 9.5 2.45 18.7 6.7z" id="cx"/><path fill="#9B2B30" d="M481.5 313.2q-7.8-3.4-16.5-5.4v.15q-.75 2.3 1.15 4.7 1.9 2.4 5.3 3.5 3.35 1.1 6.35.25 2.95-.85 3.7-3.1v-.1z" id="cy"/><path fill="url(#aa)" d="M526.95 236.45q.65-1.6-.3-2.7-1-1.2-2.6-.05-1.2.9-1.8 3.35-.9 2.9 1.1 5.8 1.45 2.1 1.65 2.5.65 1.55.05 3.35-.65 2.2.45 3.8.6 1 1.5 1.1.75.05 1.4-.6 1.05-1 .75-3.15-.05-.7-.35-1.45-.3-.8-.5-1.3-.5-1.65.35-2.5.45-.35.35-1.05-.15-.75-1.05-.9-1.25-.25-1.7-1.45-.4-1-.25-2.45.1-.6.4-1.25.4-.7.55-1.05z" id="cz"/><path fill="#A0ABD6" d="M523.2 256.45q-1.35.65-2.6 1.9-1.2 1.3-1.55 2.4-.35 1.15.4 1.5.7.3 2.1-.35 1.4-.65 2.6-1.9 1.25-1.25 1.55-2.4.35-1.1-.4-1.5-.7-.3-2.1.35z" id="cA"/><path fill="#7290C9" d="M522.6 257.75q-.8.4-1.55 1.1-.7.75-.9 1.4-.2.7.25.9.4.15 1.2-.2.85-.4 1.5-1.1.7-.75.95-1.4.2-.7-.2-.9-.45-.15-1.25.2z" id="cB"/><path fill="#A0ABD6" d="M517.05 264.9q-.4.9-.5 2-.05 1.1.3 1.8t.85.5q.55-.15 1-1.05.4-.85.45-1.95.1-1.15-.25-1.85-.35-.7-.9-.55-.55.2-.95 1.1z" id="cC"/><path fill="#7290C9" d="M517.3 265.75q-.25.5-.3 1.15 0 .65.2 1.05.2.45.5.35.7-.15.9-1.8 0-1.5-.75-1.4-.3.1-.55.65z" id="cD"/><path fill="url(#ab)" d="M525.8 248.6q-.2.95 0 1.95.2 1.05.7 1.6.45.6.95.35.5-.2.7-1.15.2-.9 0-1.95-.2-1-.7-1.6-.5-.6-1-.35-.45.25-.65 1.15z" id="cE"/><path fill="#7290C9" d="M524.15 234.8q-.55.7-.9 1.65-.3.95-.2 1.7.1.7.5.7.5 0 1.05-.7t.9-1.7q.35-.95.3-1.65-.1-.7-.6-.65-.5 0-1.05.65z" id="cF"/><path fill="#373535" d="M413.2 267.35l.85-.5-29.25-48.55-.85.6 29.25 48.45z" id="cG"/><path fill="#373535" d="M383.15 218.35q1.5 1.75 3.3 3.7-.35-.85-1.5-4.75-1.1-3.65-1.8-5.2-.55-1.05-1.25-1.7-1.05-.9-2-.35-.6.3-.65 1.3-.1.9.25 1.8.75 1.85 3.65 5.2z" id="cH"/><path fill="#373535" d="M450.4 218.9l-.85-.6-29.1 48.55.85.5 29.1-48.45z" id="cI"/><path fill="#373535" d="M447.95 222.05q.35-.5 3.25-3.7 2.9-3.35 3.65-5.2.35-.85.3-1.8-.05-1-.65-1.3-.95-.55-2 .35-.75.65-1.3 1.7-.75 1.6-1.8 5.2-1.15 4-1.45 4.75z" id="cJ"/><path fill="#AF867D" d="M421.15 271.3q.3-4.9-.45-9.75-.65-4.65-2.1-8.1v12l2.55 5.85z" id="cK"/><path fill="#AF867D" d="M413.7 261.55q-.75 4.95-.4 9.75l2.6-5.85v-12q-1.45 3.55-2.2 8.1z" id="cL"/><path fill="#373535" d="M425.7 270.6q-1.05-1.1-2.65-1.1-1.5 0-2.6 1.1-1.15 1.1-1.15 2.65 0 1.55 1.15 2.7 1.1 1.1 2.6 1.1 1.55 0 2.65-1.1 1.1-1.1 1.1-2.7 0-1.55-1.1-2.65z" id="cM"/><path fill="url(#ac)" d="M425.25 271.05q-.9-.9-2.2-.9-1.25 0-2.15.9-.9.9-.9 2.2 0 1.3.9 2.2.9.95 2.15.95t2.2-.95q.9-.9.9-2.2 0-1.3-.9-2.2z" id="cN"/><path fill="#373535" d="M411.4 269.5q-1.6 0-2.7 1.1-1.15 1.1-1.15 2.65 0 1.55 1.15 2.7 1.1 1.1 2.7 1.1 1.5 0 2.6-1.1 1.1-1.15 1.1-2.7 0-1.55-1.1-2.65-1.1-1.1-2.6-1.1z" id="cO"/><path fill="url(#ad)" d="M411.4 270.15q-1.3 0-2.25.9t-.95 2.2q0 1.3.95 2.2.95.95 2.25.95 1.25 0 2.15-.95.95-.95.95-2.2 0-1.3-.95-2.2-.9-.9-2.15-.9z" id="cP"/><path fill="#F58735" d="M409.1 272.3q0 .8.75.8.8 0 .8-.8 0-.3-.25-.55-.2-.25-.55-.25-.3 0-.5.25-.25.25-.25.55z" id="cQ"/><path fill="#F58735" d="M423.75 272.3q0 .8.8.8.7 0 .7-.8t-.7-.8q-.35 0-.55.25-.25.25-.25.55z" id="cR"/><path fill="url(#ae)" d="M421.7 266.25q-1.15-1.2-2.85-1.2h-3.3q-1.7 0-2.85 1.2-1.2 1.15-1.2 2.8v8.8q0 1.7 1.2 2.85 1.15 1.2 2.85 1.2h3.3q1.7 0 2.85-1.2 1.15-1.15 1.15-2.85v-8.8q0-1.65-1.15-2.8z" id="cS"/><path fill="url(#af)" d="M422.45 321.85h-11.3q-5.05 24.4 0 44.55.65 2.5 2 4 1.5 1.7 3.7 1.7 3.85 0 5.6-5.7 6.6-21.6 0-44.55z" id="cT"/><path fill="url(#ag)" d="M414.95 345.65q.8-18.1 3-26.35l-3.6-.1q-2.5 12.8-1.65 29.6.85 16.8 4.2 21.05-2.85-4.25-1.95-24.2z" id="cU"/><path fill="url(#ah)" d="M427 283.8q-4.05-7.05-9.8-7.05-5.7 0-9.8 7.05-4.1 7.05-4.1 16.95 0 9.9 4.1 17 4.1 7.05 9.8 7.05 5.75 0 9.8-7.05 4.1-7.05 4.1-17 0-9.9-4.1-16.95z" id="cV"/><path fill="url(#ai)" d="M416.9 278.15q-7.9 3.05-9.65 14.75-1.45 9.9 1.7 20.45.8 2.8 2.1 4.95 1.4 2.3 2.35 2.05.75-.15 1.05-.6.5-.9-.25-3.1-1.45-3.75-2.25-6.4-2.5-8.45-1.7-17.5.95-10.9 6.65-14.6z" id="cW"/></defs><use xlink:href="#aj"/><use xlink:href="#ak" transform="matrix(1.19806 0 0 1.19806 -357.75 -181.163)"/><use xlink:href="#al" transform="matrix(1.19806 0 0 1.19806 -357.75 -181.163)"/><use xlink:href="#am" transform="matrix(1.19806 0 0 1.19806 -357.75 -181.163)"/><use xlink:href="#an" transform="matrix(1.19806 0 0 1.19806 -357.75 -181.163)"/><use xlink:href="#ao" transform="matrix(1.19806 0 0 1.19806 -357.75 -181.163)"/><use xlink:href="#ap" transform="matrix(1.19806 0 0 1.19806 -357.75 -181.163)"/><use xlink:href="#aq" transform="matrix(1.19806 0 0 1.19806 -357.75 -181.163)"/><use xlink:href="#ar" transform="matrix(1.19806 0 0 1.19806 -357.75 -181.163)"/><use xlink:href="#as" transform="matrix(1.19806 0 0 1.19806 -357.75 -181.163)"/><use xlink:href="#at" transform="matrix(1.19806 0 0 1.19806 -357.75 -181.163)"/><use xlink:href="#au" transform="matrix(1.19806 0 0 1.19806 -357.75 -181.163)"/><use xlink:href="#av" transform="matrix(1.19806 0 0 1.19806 -357.75 -181.163)"/><use xlink:href="#aw" transform="matrix(1.19806 0 0 1.19806 -357.75 -181.163)"/><use xlink:href="#ax" transform="matrix(1.19806 0 0 1.19806 -357.75 -181.163)"/><use xlink:href="#ay" transform="matrix(1.19806 0 0 1.19806 -357.75 -181.163)"/><use xlink:href="#az" transform="matrix(1.19806 0 0 1.19806 -357.75 -181.163)"/><use xlink:href="#aA" transform="matrix(1.19806 0 0 1.19806 -357.75 -181.163)"/><use xlink:href="#aB" transform="matrix(1.19806 0 0 1.19806 -357.75 -181.163)"/><use xlink:href="#aC" transform="matrix(1.19806 0 0 1.19806 -357.75 -181.163)"/><use xlink:href="#aD" transform="matrix(1.19806 0 0 1.19806 -357.75 -181.163)"/><use xlink:href="#aE" transform="matrix(1.19806 0 0 1.19806 -357.75 -181.163)"/><use xlink:href="#aF" transform="matrix(1.19806 0 0 1.19806 -357.75 -181.163)"/><use xlink:href="#aG" transform="matrix(1.19806 0 0 1.19806 -357.75 -181.163)"/><use xlink:href="#aH" transform="matrix(1.19806 0 0 1.19806 -357.75 -181.163)"/><use xlink:href="#aI" transform="matrix(1.19806 0 0 1.19806 -357.75 -181.163)"/><use xlink:href="#aJ" transform="matrix(1.19806 0 0 1.19806 -357.75 -181.163)"/><use xlink:href="#aK" transform="matrix(1.19806 0 0 1.19806 -357.75 -181.163)"/><use xlink:href="#aL" transform="matrix(1.19806 0 0 1.19806 -357.75 -181.163)"/><use xlink:href="#aM" transform="matrix(1.19806 0 0 1.19806 -357.75 -181.163)"/><use xlink:href="#aN" transform="matrix(1.19806 0 0 1.19806 -357.75 -181.163)"/><use xlink:href="#aO" transform="matrix(1.19806 0 0 1.19806 -357.75 -181.163)"/><use xlink:href="#aP" transform="matrix(1.19806 0 0 1.19806 -357.75 -181.163)"/><use xlink:href="#aQ" transform="matrix(1.19806 0 0 1.19806 -357.75 -181.163)"/><use xlink:href="#aR" transform="matrix(1.19806 0 0 1.19806 -357.75 -181.163)"/><use xlink:href="#aS" transform="matrix(1.19806 0 0 1.19806 -357.75 -181.163)"/><use xlink:href="#aT" transform="matrix(1.19806 0 0 1.19806 -357.75 -181.163)"/><use xlink:href="#aU" transform="matrix(1.19806 0 0 1.19806 -357.75 -181.163)"/><use xlink:href="#aV" transform="matrix(1.19806 0 0 1.19806 -357.75 -181.163)"/><use xlink:href="#aW" transform="matrix(1.19806 0 0 1.19806 -357.75 -181.163)"/><use xlink:href="#aX" transform="matrix(1.19806 0 0 1.19806 -357.75 -181.163)"/><use xlink:href="#aY" transform="matrix(1.19806 0 0 1.19806 -357.75 -181.163)"/><use xlink:href="#aZ" transform="matrix(1.19806 0 0 1.19806 -357.75 -181.163)"/><use xlink:href="#ba" transform="matrix(1.19806 0 0 1.19806 -357.75 -181.163)"/><use xlink:href="#bb" transform="matrix(1.19806 0 0 1.19806 -357.75 -181.163)"/><use xlink:href="#bc" transform="matrix(1.19806 0 0 1.19806 -357.75 -181.163)"/><use xlink:href="#bd" transform="matrix(1.19806 0 0 1.19806 -357.75 -181.163)"/><use xlink:href="#be" transform="matrix(1.19806 0 0 1.19806 -357.75 -181.163)"/><use xlink:href="#bf" transform="matrix(1.19806 0 0 1.19806 -357.75 -181.163)"/><use xlink:href="#bg" transform="matrix(1.19806 0 0 1.19806 -357.75 -181.163)"/><use xlink:href="#bh" transform="matrix(1.19806 0 0 1.19806 -357.75 -181.163)"/><use xlink:href="#bi" transform="matrix(1.19806 0 0 1.19806 -357.75 -181.163)"/><use xlink:href="#bj" transform="matrix(1.19806 0 0 1.19806 -357.75 -181.163)"/><use xlink:href="#bk" transform="matrix(1.19806 0 0 1.19806 -357.75 -181.163)"/><use xlink:href="#bl" transform="matrix(1.19806 0 0 1.19806 -357.75 -181.163)"/><use xlink:href="#bm" transform="matrix(1.19806 0 0 1.19806 -357.75 -181.163)"/><use xlink:href="#bn" transform="matrix(1.19806 0 0 1.19806 -357.75 -181.163)"/><use xlink:href="#bo" transform="matrix(1.19806 0 0 1.19806 -357.75 -181.163)"/><use xlink:href="#bp" transform="matrix(1.19806 0 0 1.19806 -357.75 -181.163)"/><use xlink:href="#bq" transform="matrix(1.19806 0 0 1.19806 -357.75 -181.163)"/><use xlink:href="#br" transform="matrix(1.19806 0 0 1.19806 -357.75 -181.163)"/><use xlink:href="#bs" transform="matrix(1.19806 0 0 1.19806 -357.75 -181.163)"/><use xlink:href="#bt" transform="matrix(1.19806 0 0 1.19806 -357.75 -181.163)"/><use xlink:href="#bu" transform="matrix(1.19806 0 0 1.19806 -357.75 -181.163)"/><use xlink:href="#bv" transform="matrix(1.19806 0 0 1.19806 -357.75 -181.163)"/><use xlink:href="#bw" transform="matrix(1.19806 0 0 1.19806 -357.75 -181.163)"/><use xlink:href="#bx" transform="matrix(1.19806 0 0 1.19806 -357.75 -181.163)"/><use xlink:href="#by" transform="matrix(1.19806 0 0 1.19806 -357.75 -181.163)"/><use xlink:href="#bz" transform="matrix(1.19806 0 0 1.19806 -357.75 -181.163)"/><use xlink:href="#bA" transform="matrix(1.19806 0 0 1.19806 -357.75 -181.163)"/><use xlink:href="#bB" transform="matrix(1.19806 0 0 1.19806 -357.75 -181.163)"/><use xlink:href="#bC" transform="matrix(1.19806 0 0 1.19806 -357.75 -181.163)"/><use xlink:href="#bD" transform="matrix(1.19806 0 0 1.19806 -357.75 -181.163)"/><use xlink:href="#bE" transform="matrix(1.19806 0 0 1.19806 -357.75 -181.163)"/><use xlink:href="#bF" transform="matrix(1.19806 0 0 1.19806 -357.75 -181.163)"/><use xlink:href="#bG" transform="matrix(1.19806 0 0 1.19806 -357.75 -181.163)"/><use xlink:href="#bH" transform="matrix(1.19806 0 0 1.19806 -357.75 -181.163)"/><use xlink:href="#bI" transform="matrix(1.19806 0 0 1.19806 -357.75 -181.163)"/><use xlink:href="#bJ" transform="matrix(1.19806 0 0 1.19806 -357.75 -181.163)"/><use xlink:href="#bK" transform="matrix(1.19806 0 0 1.19806 -357.75 -181.163)"/><use xlink:href="#bL" transform="matrix(1.19806 0 0 1.19806 -357.75 -181.163)"/><use xlink:href="#bM" transform="matrix(1.19806 0 0 1.19806 -357.75 -181.163)"/><use xlink:href="#bN" transform="matrix(1.19806 0 0 1.19806 -357.75 -181.163)"/><use xlink:href="#bO" transform="matrix(1.19806 0 0 1.19806 -357.75 -181.163)"/><use xlink:href="#bP" transform="matrix(1.19806 0 0 1.19806 -357.75 -181.163)"/><use xlink:href="#bQ" transform="matrix(1.19806 0 0 1.19806 -357.75 -181.163)"/><use xlink:href="#bR" transform="matrix(1.19806 0 0 1.19806 -357.75 -181.163)"/><use xlink:href="#bS" transform="matrix(1.19806 0 0 1.19806 -357.75 -181.163)"/><use xlink:href="#bT" transform="matrix(1.19806 0 0 1.19806 -357.75 -181.163)"/><use xlink:href="#bU" transform="matrix(1.19806 0 0 1.19806 -357.75 -181.163)"/><use xlink:href="#bV" transform="matrix(1.19806 0 0 1.19806 -357.75 -181.163)"/><use xlink:href="#bW" transform="matrix(1.19806 0 0 1.19806 -357.75 -181.163)"/><use xlink:href="#bX" transform="matrix(1.19806 0 0 1.19806 -357.75 -181.163)"/><use xlink:href="#bY" transform="matrix(1.19806 0 0 1.19806 -357.75 -181.163)"/><use xlink:href="#bZ" transform="matrix(1.19806 0 0 1.19806 -357.75 -181.163)"/><use xlink:href="#ca" transform="matrix(1.19806 0 0 1.19806 -357.75 -181.163)"/><use xlink:href="#cb" transform="matrix(1.19806 0 0 1.19806 -357.75 -181.163)"/><use xlink:href="#cc" transform="matrix(1.19806 0 0 1.19806 -357.75 -181.163)"/><use xlink:href="#cd" transform="matrix(1.19806 0 0 1.19806 -357.75 -181.163)"/><use xlink:href="#ce" transform="matrix(1.19806 0 0 1.19806 -357.75 -181.163)"/><use xlink:href="#cf" transform="matrix(1.19806 0 0 1.19806 -357.75 -181.163)"/><use xlink:href="#cg" transform="matrix(1.19806 0 0 1.19806 -357.75 -181.163)"/><use xlink:href="#ch" transform="matrix(1.19806 0 0 1.19806 -357.75 -181.163)"/><use xlink:href="#ci" transform="matrix(1.19806 0 0 1.19806 -357.75 -181.163)"/><use xlink:href="#cj" transform="matrix(1.19806 0 0 1.19806 -357.75 -181.163)"/><use xlink:href="#ck" transform="matrix(1.19806 0 0 1.19806 -357.75 -181.163)"/><use xlink:href="#cl" transform="matrix(1.19806 0 0 1.19806 -357.75 -181.163)"/><use xlink:href="#cm" transform="matrix(1.19806 0 0 1.19806 -357.75 -181.163)"/><use xlink:href="#cn" transform="matrix(1.19806 0 0 1.19806 -357.75 -181.163)"/><use xlink:href="#co" transform="matrix(1.19806 0 0 1.19806 -357.75 -181.163)"/><use xlink:href="#cp" transform="matrix(1.19806 0 0 1.19806 -357.75 -181.163)"/><use xlink:href="#cq" transform="matrix(1.19806 0 0 1.19806 -357.75 -181.163)"/><use xlink:href="#cr" transform="matrix(1.19806 0 0 1.19806 -357.75 -181.163)"/><use xlink:href="#cs" transform="matrix(1.19806 0 0 1.19806 -357.75 -181.163)"/><use xlink:href="#ct" transform="matrix(1.19806 0 0 1.19806 -357.75 -181.163)"/><use xlink:href="#cu" transform="matrix(1.19806 0 0 1.19806 -357.75 -181.163)"/><use xlink:href="#cv" transform="matrix(1.19806 0 0 1.19806 -357.75 -181.163)"/><use xlink:href="#cw" transform="matrix(1.19806 0 0 1.19806 -357.75 -181.163)"/><use xlink:href="#cx" transform="matrix(1.19806 0 0 1.19806 -357.75 -181.163)"/><use xlink:href="#cy" transform="matrix(1.19806 0 0 1.19806 -357.75 -181.163)"/><use xlink:href="#cz" transform="matrix(1.19806 0 0 1.19806 -357.75 -181.163)"/><use xlink:href="#cA" transform="matrix(1.19806 0 0 1.19806 -357.75 -181.163)"/><use xlink:href="#cB" transform="matrix(1.19806 0 0 1.19806 -357.75 -181.163)"/><use xlink:href="#cC" transform="matrix(1.19806 0 0 1.19806 -357.75 -181.163)"/><use xlink:href="#cD" transform="matrix(1.19806 0 0 1.19806 -357.75 -181.163)"/><use xlink:href="#cE" transform="matrix(1.19806 0 0 1.19806 -357.75 -181.163)"/><use xlink:href="#cF" transform="matrix(1.19806 0 0 1.19806 -357.75 -181.163)"/><use xlink:href="#cG" transform="matrix(1.19806 0 0 1.19806 -357.75 -181.163)"/><use xlink:href="#cH" transform="matrix(1.19806 0 0 1.19806 -357.75 -181.163)"/><use xlink:href="#cI" transform="matrix(1.19806 0 0 1.19806 -357.75 -181.163)"/><use xlink:href="#cJ" transform="matrix(1.19806 0 0 1.19806 -357.75 -181.163)"/><use xlink:href="#cK" transform="matrix(1.19806 0 0 1.19806 -357.75 -181.163)"/><use xlink:href="#cL" transform="matrix(1.19806 0 0 1.19806 -357.75 -181.163)"/><use xlink:href="#cM" transform="matrix(1.19806 0 0 1.19806 -357.75 -181.163)"/><use xlink:href="#cN" transform="matrix(1.19806 0 0 1.19806 -357.75 -181.163)"/><use xlink:href="#cO" transform="matrix(1.19806 0 0 1.19806 -357.75 -181.163)"/><use xlink:href="#cP" transform="matrix(1.19806 0 0 1.19806 -357.75 -181.163)"/><use xlink:href="#cQ" transform="matrix(1.19806 0 0 1.19806 -357.75 -181.163)"/><use xlink:href="#cR" transform="matrix(1.19806 0 0 1.19806 -357.75 -181.163)"/><use xlink:href="#cS" transform="matrix(1.19806 0 0 1.19806 -357.75 -181.163)"/><use xlink:href="#cT" transform="matrix(1.19806 0 0 1.19806 -357.75 -181.163)"/><use xlink:href="#cU" transform="matrix(1.19806 0 0 1.19806 -357.75 -181.163)"/><use xlink:href="#cV" transform="matrix(1.19806 0 0 1.19806 -357.75 -181.163)"/><use xlink:href="#cW" transform="matrix(1.19806 0 0 1.19806 -357.75 -181.163)"/></svg>