<svg xmlns="http://www.w3.org/2000/svg" xmlns:xlink="http://www.w3.org/1999/xlink" preserveAspectRatio="none" width="284" height="320"><defs><linearGradient id="a" gradientUnits="userSpaceOnUse" x1="99.725" y1="786.925" x2="98.075" y2="739.375" spreadMethod="pad"><stop offset="0%" stop-color="#7DB94A"/><stop offset="100%" stop-color="#59A148"/></linearGradient><linearGradient id="b" gradientUnits="userSpaceOnUse" x1="141.975" y1="878.587" x2="87.625" y2="826.113" spreadMethod="pad"><stop offset="0%" stop-color="#A8D16D"/><stop offset="100%" stop-color="#B5D781"/></linearGradient><linearGradient id="c" gradientUnits="userSpaceOnUse" x1="139.5" y1="876.087" x2="89.4" y2="827.712" spreadMethod="pad"><stop offset="0%" stop-color="#7DB94A"/><stop offset="100%" stop-color="#91C84B"/></linearGradient><linearGradient id="d" gradientUnits="userSpaceOnUse" x1="137.012" y1="829.087" x2="101.388" y2="864.712" spreadMethod="pad"><stop offset="0%" stop-color="#7DB94A"/><stop offset="38.824%" stop-color="#9BCC5A"/><stop offset="100%" stop-color="#D9EABD"/></linearGradient><linearGradient id="e" gradientUnits="userSpaceOnUse" x1="72.862" y1="838.163" x2="132.838" y2="885.038" spreadMethod="pad"><stop offset="0%" stop-color="#D9EABD"/><stop offset="45.882%" stop-color="#FFF"/><stop offset="100%" stop-color="#D9EABD"/></linearGradient><linearGradient id="f" gradientUnits="userSpaceOnUse" x1="137.675" y1="826.75" x2="104.825" y2="860.75" spreadMethod="pad"><stop offset="0%" stop-color="#7DB94A"/><stop offset="100%" stop-color="#B5D781"/></linearGradient><linearGradient id="g" gradientUnits="userSpaceOnUse" x1="59.05" y1="857.225" x2="116.05" y2="901.775" spreadMethod="pad"><stop offset="0%" stop-color="#BFDD96"/><stop offset="45.882%" stop-color="#D9EABD"/><stop offset="100%" stop-color="#BFDD96"/></linearGradient><linearGradient id="h" gradientUnits="userSpaceOnUse" x1="148.45" y1="800.163" x2="72.35" y2="778.337" spreadMethod="pad"><stop offset="0%" stop-color="#9BCC5A"/><stop offset="38.824%" stop-color="#B5D781"/><stop offset="100%" stop-color="#D9EABD"/></linearGradient><linearGradient id="i" gradientUnits="userSpaceOnUse" x1="139.738" y1="797.375" x2="87.362" y2="790.025" spreadMethod="pad"><stop offset="0%" stop-color="#9BCC5A"/><stop offset="38.824%" stop-color="#B5D781"/><stop offset="100%" stop-color="#E3F0D5"/></linearGradient><linearGradient id="j" gradientUnits="userSpaceOnUse" x1="96.275" y1="784.338" x2="47.025" y2="772.063" spreadMethod="pad"><stop offset="0%" stop-color="#7DB94A"/><stop offset="38.824%" stop-color="#ABD17B"/><stop offset="100%" stop-color="#CDE2AE"/></linearGradient><linearGradient id="k" gradientUnits="userSpaceOnUse" x1="75.65" y1="744.638" x2="162.75" y2="778.063" spreadMethod="pad"><stop offset="0%" stop-color="#BFDD96"/><stop offset="100%" stop-color="#9BCC5A"/></linearGradient><linearGradient id="l" gradientUnits="userSpaceOnUse" x1="69.487" y1="760.65" x2="157.512" y2="794.45" spreadMethod="pad"><stop offset="0%" stop-color="#BFDD96"/><stop offset="100%" stop-color="#9BCC5A"/></linearGradient><linearGradient id="m" gradientUnits="userSpaceOnUse" x1="68.338" y1="763.637" x2="156.463" y2="797.462" spreadMethod="pad"><stop offset="0%" stop-color="#BFDD96"/><stop offset="100%" stop-color="#9BCC5A"/></linearGradient><linearGradient id="n" gradientUnits="userSpaceOnUse" x1="67.188" y1="766.65" x2="154.213" y2="800.05" spreadMethod="pad"><stop offset="0%" stop-color="#BFDD96"/><stop offset="100%" stop-color="#9BCC5A"/></linearGradient><linearGradient id="o" gradientUnits="userSpaceOnUse" x1="65.737" y1="770.425" x2="152.863" y2="803.875" spreadMethod="pad"><stop offset="0%" stop-color="#BFDD96"/><stop offset="100%" stop-color="#9BCC5A"/></linearGradient><linearGradient id="p" gradientUnits="userSpaceOnUse" x1="63.4" y1="776.575" x2="151.3" y2="810.325" spreadMethod="pad"><stop offset="0%" stop-color="#BFDD96"/><stop offset="100%" stop-color="#9BCC5A"/></linearGradient><linearGradient id="q" gradientUnits="userSpaceOnUse" x1="60.975" y1="782.838" x2="147.525" y2="816.063" spreadMethod="pad"><stop offset="0%" stop-color="#BFDD96"/><stop offset="100%" stop-color="#9BCC5A"/></linearGradient><linearGradient id="r" gradientUnits="userSpaceOnUse" x1="58.512" y1="789.2" x2="146.588" y2="823" spreadMethod="pad"><stop offset="0%" stop-color="#BFDD96"/><stop offset="100%" stop-color="#9BCC5A"/></linearGradient><linearGradient id="s" gradientUnits="userSpaceOnUse" x1="56.125" y1="795.475" x2="144.075" y2="829.225" spreadMethod="pad"><stop offset="0%" stop-color="#BFDD96"/><stop offset="100%" stop-color="#9BCC5A"/></linearGradient><linearGradient id="t" gradientUnits="userSpaceOnUse" x1="54.025" y1="800.912" x2="140.675" y2="834.188" spreadMethod="pad"><stop offset="0%" stop-color="#BFDD96"/><stop offset="100%" stop-color="#9BCC5A"/></linearGradient><linearGradient id="u" gradientUnits="userSpaceOnUse" x1="142.325" y1="797.55" x2="144.975" y2="822.85" spreadMethod="pad"><stop offset="0%" stop-color="#7DB94A"/><stop offset="100%" stop-color="#9BCC5A"/></linearGradient><linearGradient id="v" gradientUnits="userSpaceOnUse" x1="53.462" y1="738.4" x2="82.537" y2="738.4" spreadMethod="pad"><stop offset="0%" stop-color="#B5D781"/><stop offset="100%" stop-color="#7DB94A"/></linearGradient><linearGradient id="w" gradientUnits="userSpaceOnUse" x1="53.475" y1="749.8" x2="82.625" y2="749.8" spreadMethod="pad"><stop offset="0%" stop-color="#B5D781"/><stop offset="100%" stop-color="#7DB94A"/></linearGradient><linearGradient id="x" gradientUnits="userSpaceOnUse" x1="53.5" y1="756.45" x2="82.8" y2="756.45" spreadMethod="pad"><stop offset="0%" stop-color="#B5D781"/><stop offset="100%" stop-color="#7DB94A"/></linearGradient><linearGradient id="y" gradientUnits="userSpaceOnUse" x1="53.475" y1="763.8" x2="82.525" y2="763.8" spreadMethod="pad"><stop offset="0%" stop-color="#B5D781"/><stop offset="100%" stop-color="#7DB94A"/></linearGradient><linearGradient id="z" gradientUnits="userSpaceOnUse" x1="53.475" y1="771.65" x2="82.925" y2="771.65" spreadMethod="pad"><stop offset="0%" stop-color="#B5D781"/><stop offset="100%" stop-color="#7DB94A"/></linearGradient><linearGradient id="A" gradientUnits="userSpaceOnUse" x1="53.487" y1="780" x2="82.513" y2="780" spreadMethod="pad"><stop offset="0%" stop-color="#B5D781"/><stop offset="100%" stop-color="#7DB94A"/></linearGradient><linearGradient id="B" gradientUnits="userSpaceOnUse" x1="53.5" y1="788.8" x2="82.4" y2="788.8" spreadMethod="pad"><stop offset="0%" stop-color="#B5D781"/><stop offset="100%" stop-color="#7DB94A"/></linearGradient><linearGradient id="C" gradientUnits="userSpaceOnUse" x1="53.5" y1="798.4" x2="82.7" y2="798.4" spreadMethod="pad"><stop offset="0%" stop-color="#B5D781"/><stop offset="100%" stop-color="#7DB94A"/></linearGradient><linearGradient id="D" gradientUnits="userSpaceOnUse" x1="53.475" y1="808.4" x2="82.925" y2="808.4" spreadMethod="pad"><stop offset="0%" stop-color="#B5D781"/><stop offset="100%" stop-color="#7DB94A"/></linearGradient><linearGradient id="E" gradientUnits="userSpaceOnUse" x1="53.487" y1="818.4" x2="82.513" y2="818.4" spreadMethod="pad"><stop offset="0%" stop-color="#B5D781"/><stop offset="100%" stop-color="#7DB94A"/></linearGradient><linearGradient id="F" gradientUnits="userSpaceOnUse" x1="75.012" y1="740.55" x2="94.588" y2="825.35" spreadMethod="pad"><stop offset="0%" stop-color="#D9EABD"/><stop offset="45.882%" stop-color="#FFF"/><stop offset="100%" stop-color="#D9EABD"/></linearGradient><linearGradient id="G" gradientUnits="userSpaceOnUse" x1="131.938" y1="784.425" x2="140.363" y2="820.975" spreadMethod="pad"><stop offset="0%" stop-color="#BDDC92"/><stop offset="45.882%" stop-color="#D5E8B9"/><stop offset="100%" stop-color="#BDDC92"/></linearGradient><linearGradient id="H" gradientUnits="userSpaceOnUse" x1="135.225" y1="783.7" x2="88.575" y2="741.7" spreadMethod="pad"><stop offset="0%" stop-color="#D9EABD"/><stop offset="100%" stop-color="#FFF"/></linearGradient><linearGradient id="I" gradientUnits="userSpaceOnUse" x1="214.6" y1="786.15" x2="217.1" y2="738.65" spreadMethod="pad"><stop offset="0%" stop-color="#7DB94A"/><stop offset="100%" stop-color="#59A148"/></linearGradient><linearGradient id="J" gradientUnits="userSpaceOnUse" x1="171.875" y1="878.063" x2="227.125" y2="826.537" spreadMethod="pad"><stop offset="0%" stop-color="#A8D16D"/><stop offset="100%" stop-color="#B5D781"/></linearGradient><linearGradient id="K" gradientUnits="userSpaceOnUse" x1="174.425" y1="875.613" x2="225.375" y2="828.087" spreadMethod="pad"><stop offset="0%" stop-color="#7DB94A"/><stop offset="100%" stop-color="#91C84B"/></linearGradient><linearGradient id="L" gradientUnits="userSpaceOnUse" x1="176.587" y1="829.45" x2="212.813" y2="864.45" spreadMethod="pad"><stop offset="0%" stop-color="#7DB94A"/><stop offset="38.824%" stop-color="#9BCC5A"/><stop offset="100%" stop-color="#D9EABD"/></linearGradient><linearGradient id="M" gradientUnits="userSpaceOnUse" x1="241.625" y1="837.45" x2="182.475" y2="885.35" spreadMethod="pad"><stop offset="0%" stop-color="#D9EABD"/><stop offset="45.882%" stop-color="#FFF"/><stop offset="100%" stop-color="#D9EABD"/></linearGradient><linearGradient id="N" gradientUnits="userSpaceOnUse" x1="175.838" y1="827.188" x2="209.263" y2="860.612" spreadMethod="pad"><stop offset="0%" stop-color="#7DB94A"/><stop offset="100%" stop-color="#B5D781"/></linearGradient><linearGradient id="O" gradientUnits="userSpaceOnUse" x1="254.913" y1="857.037" x2="198.688" y2="902.563" spreadMethod="pad"><stop offset="0%" stop-color="#BFDD96"/><stop offset="45.882%" stop-color="#D9EABD"/><stop offset="100%" stop-color="#BFDD96"/></linearGradient><linearGradient id="P" gradientUnits="userSpaceOnUse" x1="165.362" y1="798.85" x2="241.838" y2="778.35" spreadMethod="pad"><stop offset="0%" stop-color="#9BCC5A"/><stop offset="38.824%" stop-color="#B5D781"/><stop offset="100%" stop-color="#D9EABD"/></linearGradient><linearGradient id="Q" gradientUnits="userSpaceOnUse" x1="174.4" y1="796.475" x2="226.9" y2="790.025" spreadMethod="pad"><stop offset="0%" stop-color="#9BCC5A"/><stop offset="38.824%" stop-color="#B5D781"/><stop offset="100%" stop-color="#E3F0D5"/></linearGradient><linearGradient id="R" gradientUnits="userSpaceOnUse" x1="217.563" y1="784.012" x2="267.038" y2="772.587" spreadMethod="pad"><stop offset="0%" stop-color="#7DB94A"/><stop offset="38.824%" stop-color="#ABD17B"/><stop offset="100%" stop-color="#CDE2AE"/></linearGradient><linearGradient id="S" gradientUnits="userSpaceOnUse" x1="237.712" y1="744.925" x2="151.188" y2="779.875" spreadMethod="pad"><stop offset="0%" stop-color="#BFDD96"/><stop offset="100%" stop-color="#9BCC5A"/></linearGradient><linearGradient id="T" gradientUnits="userSpaceOnUse" x1="244.65" y1="759.737" x2="157.25" y2="795.063" spreadMethod="pad"><stop offset="0%" stop-color="#BFDD96"/><stop offset="100%" stop-color="#9BCC5A"/></linearGradient><linearGradient id="U" gradientUnits="userSpaceOnUse" x1="245.813" y1="762.612" x2="158.288" y2="797.987" spreadMethod="pad"><stop offset="0%" stop-color="#BFDD96"/><stop offset="100%" stop-color="#9BCC5A"/></linearGradient><linearGradient id="V" gradientUnits="userSpaceOnUse" x1="246.113" y1="765.837" x2="159.688" y2="800.762" spreadMethod="pad"><stop offset="0%" stop-color="#BFDD96"/><stop offset="100%" stop-color="#9BCC5A"/></linearGradient><linearGradient id="W" gradientUnits="userSpaceOnUse" x1="247.962" y1="770.375" x2="161.438" y2="805.325" spreadMethod="pad"><stop offset="0%" stop-color="#BFDD96"/><stop offset="100%" stop-color="#9BCC5A"/></linearGradient><linearGradient id="X" gradientUnits="userSpaceOnUse" x1="251.25" y1="775.962" x2="163.95" y2="811.238" spreadMethod="pad"><stop offset="0%" stop-color="#BFDD96"/><stop offset="100%" stop-color="#9BCC5A"/></linearGradient><linearGradient id="Y" gradientUnits="userSpaceOnUse" x1="252.825" y1="782.438" x2="166.875" y2="817.162" spreadMethod="pad"><stop offset="0%" stop-color="#BFDD96"/><stop offset="100%" stop-color="#9BCC5A"/></linearGradient><linearGradient id="Z" gradientUnits="userSpaceOnUse" x1="256.175" y1="788.288" x2="168.725" y2="823.613" spreadMethod="pad"><stop offset="0%" stop-color="#BFDD96"/><stop offset="100%" stop-color="#9BCC5A"/></linearGradient><linearGradient id="aa" gradientUnits="userSpaceOnUse" x1="258.663" y1="794.313" x2="171.338" y2="829.588" spreadMethod="pad"><stop offset="0%" stop-color="#BFDD96"/><stop offset="100%" stop-color="#9BCC5A"/></linearGradient><linearGradient id="ab" gradientUnits="userSpaceOnUse" x1="259.938" y1="800.012" x2="173.863" y2="834.788" spreadMethod="pad"><stop offset="0%" stop-color="#BFDD96"/><stop offset="100%" stop-color="#9BCC5A"/></linearGradient><linearGradient id="ac" gradientUnits="userSpaceOnUse" x1="171.713" y1="797.575" x2="169.487" y2="822.925" spreadMethod="pad"><stop offset="0%" stop-color="#7DB94A"/><stop offset="100%" stop-color="#9BCC5A"/></linearGradient><linearGradient id="ad" gradientUnits="userSpaceOnUse" x1="260.488" y1="738.4" x2="231.412" y2="738.4" spreadMethod="pad"><stop offset="0%" stop-color="#B5D781"/><stop offset="100%" stop-color="#7DB94A"/></linearGradient><linearGradient id="ae" gradientUnits="userSpaceOnUse" x1="260.475" y1="749.8" x2="231.325" y2="749.8" spreadMethod="pad"><stop offset="0%" stop-color="#B5D781"/><stop offset="100%" stop-color="#7DB94A"/></linearGradient><linearGradient id="af" gradientUnits="userSpaceOnUse" x1="260.45" y1="756.45" x2="231.15" y2="756.45" spreadMethod="pad"><stop offset="0%" stop-color="#B5D781"/><stop offset="100%" stop-color="#7DB94A"/></linearGradient><linearGradient id="ag" gradientUnits="userSpaceOnUse" x1="260.475" y1="763.8" x2="231.425" y2="763.8" spreadMethod="pad"><stop offset="0%" stop-color="#B5D781"/><stop offset="100%" stop-color="#7DB94A"/></linearGradient><linearGradient id="ah" gradientUnits="userSpaceOnUse" x1="260.475" y1="771.65" x2="231.025" y2="771.65" spreadMethod="pad"><stop offset="0%" stop-color="#B5D781"/><stop offset="100%" stop-color="#7DB94A"/></linearGradient><linearGradient id="ai" gradientUnits="userSpaceOnUse" x1="260.462" y1="780" x2="231.438" y2="780" spreadMethod="pad"><stop offset="0%" stop-color="#B5D781"/><stop offset="100%" stop-color="#7DB94A"/></linearGradient><linearGradient id="aj" gradientUnits="userSpaceOnUse" x1="260.45" y1="788.8" x2="231.55" y2="788.8" spreadMethod="pad"><stop offset="0%" stop-color="#B5D781"/><stop offset="100%" stop-color="#7DB94A"/></linearGradient><linearGradient id="ak" gradientUnits="userSpaceOnUse" x1="260.45" y1="798.4" x2="231.25" y2="798.4" spreadMethod="pad"><stop offset="0%" stop-color="#B5D781"/><stop offset="100%" stop-color="#7DB94A"/></linearGradient><linearGradient id="al" gradientUnits="userSpaceOnUse" x1="260.475" y1="808.4" x2="231.025" y2="808.4" spreadMethod="pad"><stop offset="0%" stop-color="#B5D781"/><stop offset="100%" stop-color="#7DB94A"/></linearGradient><linearGradient id="am" gradientUnits="userSpaceOnUse" x1="260.462" y1="818.4" x2="231.438" y2="818.4" spreadMethod="pad"><stop offset="0%" stop-color="#B5D781"/><stop offset="100%" stop-color="#7DB94A"/></linearGradient><linearGradient id="an" gradientUnits="userSpaceOnUse" x1="238.75" y1="740.438" x2="220.65" y2="825.563" spreadMethod="pad"><stop offset="0%" stop-color="#D9EABD"/><stop offset="45.882%" stop-color="#FFF"/><stop offset="100%" stop-color="#D9EABD"/></linearGradient><linearGradient id="ao" gradientUnits="userSpaceOnUse" x1="182" y1="784.462" x2="174.2" y2="821.137" spreadMethod="pad"><stop offset="0%" stop-color="#BDDC92"/><stop offset="45.882%" stop-color="#D5E8B9"/><stop offset="100%" stop-color="#BDDC92"/></linearGradient><linearGradient id="ap" gradientUnits="userSpaceOnUse" x1="178.463" y1="783.387" x2="225.838" y2="742.212" spreadMethod="pad"><stop offset="0%" stop-color="#D9EABD"/><stop offset="100%" stop-color="#FFF"/></linearGradient><linearGradient id="aq" gradientUnits="userSpaceOnUse" x1="163.6" y1="793.537" x2="163.6" y2="788.063" spreadMethod="pad"><stop offset="0%" stop-color="#373535"/><stop offset="100%" stop-color="#6BAC49"/></linearGradient><linearGradient id="ar" gradientUnits="userSpaceOnUse" x1="150.7" y1="793.537" x2="150.7" y2="788.063" spreadMethod="pad"><stop offset="0%" stop-color="#373535"/><stop offset="100%" stop-color="#6BAC49"/></linearGradient><linearGradient id="as" gradientUnits="userSpaceOnUse" x1="157.1" y1="780.513" x2="157.1" y2="788.888" spreadMethod="pad"><stop offset="0%" stop-color="#9C6C63"/><stop offset="100%" stop-color="#783F3D"/></linearGradient><linearGradient id="at" gradientUnits="userSpaceOnUse" x1="157.15" y1="848.538" x2="157.15" y2="889.762" spreadMethod="pad"><stop offset="0%" stop-color="#9C6C63"/><stop offset="100%" stop-color="#783F3D"/></linearGradient><linearGradient id="au" gradientUnits="userSpaceOnUse" x1="154.95" y1="889.538" x2="154.95" y2="842.863" spreadMethod="pad"><stop offset="0%" stop-color="#97675E"/><stop offset="100%" stop-color="#E5D8D4"/></linearGradient><linearGradient id="av" gradientUnits="userSpaceOnUse" x1="157.15" y1="799.538" x2="157.15" y2="838.962" spreadMethod="pad"><stop offset="0%" stop-color="#9C6C63"/><stop offset="100%" stop-color="#783F3D"/></linearGradient><linearGradient id="aw" gradientUnits="userSpaceOnUse" x1="151.3" y1="836.5" x2="151.3" y2="797.6" spreadMethod="pad"><stop offset="0%" stop-color="#97675E"/><stop offset="100%" stop-color="#E5D8D4"/></linearGradient><path fill="#FFF" fill-opacity="0" d="M284 0H0v320h284V0z" id="ax"/><path fill="url(#a)" d="M71.9 733.8q-11.75-4.6-16.55-2-9.1 4.95-8 35.4.45 11.45 2.25 23.1 1.7 10.8 3.5 15.55 3.85 10 11.7 14.95 8.65 5.55 23.1 5.6 18.5.15 23.65-.15 14.2-.75 23.2-4.15 12.1-4.55 15.35-8.25 4.3-4.85-.75-12.7-9.75-15.1-27.8-32.5-17.85-17.15-33.5-26.7-8.35-5.05-16.15-8.15z" id="ay"/><path fill="url(#b)" d="M154.15 825q-.3-5.65-10.25-5.35-6.7.2-23.3 4.25-20.5 5.05-22.55 5.4-27.2 4.85-33.8 18.8Q56.7 864 80.3 886.45q6.7 6.35 16 10.3 11.05 4.7 19.1 2.55 13.65-3.65 22.75-21.75 5.4-10.75 11.8-34.5 2.2-7.7 3-10.7 1.35-4.95 1.2-7.35z" id="az"/><path fill="url(#c)" d="M138.8 863.45q4.4-7.85 10.2-16.8l.8-3.1q-6.15 9.35-11.8 19.4-9.7 17.05-15.55 33.3l1.3-.85q6-15.9 15.05-31.95m14.15-31q.25-.75.55-2.05-12.75 14.6-22.55 28.8-14.3 20.75-22.25 40.65l1 .1q7.55-19.2 22.05-40.2 9.45-13.6 21.2-27.3m1.25-6.6q0-.95-.1-1.3-16.95 15.35-30.2 30.95-17.95 21.15-27.45 41.25l.85.35q9.65-20.2 27.3-41 12.55-14.75 29.6-30.25m-.5-2.95l-.45-.85q-20.85 14.95-36.4 29.7-20.05 19.05-31.75 38.7.2.05.75.5 11.55-19.3 31.7-38.45 14.95-14.35 36.15-29.6m-2.6-.3l-.5-.85Q126.85 835.1 109.85 848q-21.35 16.35-34.5 33.45.55.55.65.7 13.25-17.2 34.4-33.35 17.05-13.05 40.7-26.2m-13.6 2.45l-.1-.3q-27.65 5.05-48.65 12.1-12.65 4.25-23.5 9.35-.6 1.1-.75 1.45 11.45-5.45 24.6-9.85 18.15-6.1 43-11.1-20.1 6.5-36.3 13.9-18.6 8.5-33.05 18.8l.2 1.1q13.7-10 33.2-19.05 19.15-8.8 44.7-16.4-21.75 9.45-38.05 19.25-20.8 12.45-35.45 26.75l.6.9q14.6-14.45 35.35-26.8 18.55-11.15 43.25-21.45l-.35-.95-4.15 1.8-.25-.8-4.3 1.3z" id="aA"/><path fill="url(#d)" d="M141.05 819.05q-7.25 2.25-9.7 2.4-5.55 1.15-18.25 4.35-11.2 2.85-15.05 3.5-10.6 1.9-18.15 5.35 2.45.1 2.55 2.1.1 2.1-2.55 3.55 3.25-.85 4.55 1.95 1.3 2.85-2.1 5.25 4.05-1.2 5.6 1.75 1.6 2.95-1.2 5.95 4.15-2.35 6.5.4 2.35 2.8-.45 7.1 3.95-2.25 6.65-.3 2.9 2.1 1.25 7.35 4.25-3.2 7.4-1.05 3.05 2.15 1.4 6.9 3.4-3.55 6.85-2.1 3.45 1.5 2.3 6.2 2.9-4.25 6.75-3.3 3.85.95 3.6 5.6 1.9-3.95 4.3-3.7 2.35.25 2.45 3.55 4.45-7.45 8.3-18.75 2.45-7.1 5.9-20.05 1.8-6.25 2.5-8.8 1.25-4.4 1.6-6.7-1.65-1.7-2.15-6.85-.35-3.85-3.4-3.85-.3 0-7.45 2.2z" id="aB"/><path fill="url(#e)" d="M81.2 835.95q.3.4.35.7.1.45-.15 1-.55 1.15-1.85 1.95-.6.35-.3 1 .25.7.85.6 1.6-.45 2.65.35.6.4.95 1 .2.6.2 1.35-.15 1.5-2.05 2.9-.5.4-.2 1.05t.9.45q2-.5 3.25.1.85.3 1.35 1.15.45.75.45 1.8 0 1.65-1.5 3.3-.35.5.1 1.05.4.55.95.3 2.05-1.2 3.85-.8.95.2 1.55.9.5.45.8 1.7.25 2.1-1.2 4.4-.35.5.1 1 .45.5.95.25 1.75-1.05 3.6-1.05 1.25 0 2.25.75.9.65 1.2 2 .4 1.7-.35 4.35-.2.55.3.9t1 0q2.15-1.65 4.3-1.65 1.45.2 2.2.75.9.65 1.2 1.8.6 1.75-.2 4-.2.55.4.95.6.35 1.05-.1 1.85-1.9 4-2.15 1.15-.05 2.1.35 1 .5 1.35 1.45.75 1.5.25 3.7-.2.6.45.9.65.3 1.05-.2 1.6-2.35 3.75-2.95 1.25-.3 2.3 0 1.1.3 1.8 1.25 1 1.35.95 3.45 0 .6.7.8.7.15.95-.4 1.15-2.35 2.5-3 .65-.3 1-.15.45 0 .9.45.7.9.7 2.3 0 .4.45.65l1.15-1.95q-.4-1.4-1.1-2.1-.6-.85-1.7-1.1-1.3-.1-2.2.4-.9.35-1.95 1.65-.25-1.05-1-2.05-1.15-1.4-2.65-1.8-1.5-.5-3.3-.05-1.6.5-2.9 1.6-.1-1.35-.55-2.2-.65-1.3-2.1-2.15-1.65-.7-3.05-.5-1.55.15-3.15 1.1.1-1.7-.3-2.75-.55-1.65-1.85-2.6-1.45-1-3.2-1-1.75-.1-3.5.85.25-1.95-.1-3.15-.35-1.85-1.85-3.05-1.25-.95-3.15-1.05-1.4 0-2.3.3.65-1.65.4-3.4-.2-1.6-1.2-2.65-1.05-1.05-2.45-1.4-1.15-.3-2.55 0 .4-.95.5-2.15 0-1.65-.7-2.75-.8-1.2-2.1-1.85-.8-.3-1.8-.45.75-1 .9-2.2.1-1.2-.4-2.3-.55-1-1.4-1.7-.8-.5-1.55-.7.5-.6.75-1.15.4-1.1.2-1.95-.05-.85-.95-1.65-.3-.35-1-.65l-2.15.95q.25.5.7.5.95 0 1.4.45z" id="aC"/><path fill="url(#f)" d="M138 862.95q-4.85 8.6-9.1 17.6.1.45.1 1.45.65-1.25 1.3-2.1 4.1-8.65 8.5-16.45 4.4-7.85 10.2-16.8l.8-3.1q-6.15 9.35-11.8 19.4m11.15-39.25q-.65-.4-.95-.6-21.5 12.1-38.35 24.9-9.2 7.05-16.55 13.9l-.5.8q.75-.45 2-.85 7.1-6.6 15.6-13.05 16.3-12.45 38.75-25.1m1.8 1.2l-.8-.65q-18.9 13.8-33.3 27.5-8.5 8.15-15.8 16.65l-.35 1.35q.85-.6 1.1-.7 7.6-9 15.75-16.55 14.2-13.7 33.4-27.6m2.25 1.8l-.75-.65q-16.25 14.9-28.55 29.45-7.85 9.25-13.9 18-.2 1.25-.5 2.1l.7-.65q6.2-9.1 14.4-18.85 12.85-14.95 28.6-29.4m-.25 5.75q.25-.75.55-2.05-12.75 14.6-22.55 28.8-6 8.65-12.1 19.35 0 .25-.2 1.15.85-1.2 1.8-1.95 4.75-8.55 11.3-18 9.45-13.6 21.2-27.3m-15.45-7.4l-.1-.3q-27.65 5.05-48.65 12.1-5.7 1.95-7.85 2.8-.45.4-1 .65 1.1-.3 2.1-.05l7.1-2.45q18.15-6.1 43-11.1-20.1 6.5-36.3 13.9-7.95 3.65-12.6 6.2l-.85.7q1.45-.35 2.15-.25 4.65-2.55 11.65-5.8 19.15-8.8 44.7-16.4-21.75 9.45-38.05 19.25-9.15 5.55-15.35 10.05l-.7.85q1.1-.6 2.35-.85 7.2-5.1 14.2-9.2 18.55-11.15 43.25-21.45l-.35-.95-4.15 1.8-.25-.8-4.3 1.3z" id="aD"/><path fill="#E4F0D2" d="M85.8 874.5q-.7.8-.7 1.9 0 1.1.7 1.8.8.8 1.8.8h.05q1 0 1.8-.8.75-.75.75-1.8t-.75-1.9q-.85-.7-1.8-.7h-.05q-.9 0-1.8.7m.8.9q.4-.45 1-.45h.05q.6 0 1.05.45.35.35.35 1 0 .5-.35 1h-.1q-.45.45-.95.45h-.05q-.45 0-1-.45-.35-.4-.35-1 0-.7.35-1z" id="aE"/><path fill="#D9EABD" d="M81.7 868.95q.65-.65.65-1.55 0-.85-.65-1.6-.65-.65-1.5-.65h-.1q-.85 0-1.5.65t-.65 1.6q0 .95.65 1.55.55.65 1.5.65h.1q.95 0 1.5-.65m-1.6-2.8h.1q.4 0 .75.35.4.4.4.9 0 .55-.4.85-.35.35-.75.35h-.1q-.35 0-.8-.35-.35-.35-.35-.85 0-.45.35-.9.45-.35.8-.35z" id="aF"/><path fill="#CCE3A9" d="M76.15 858.9q.5-.5.5-1.25 0-.7-.5-1.2-.4-.4-1.25-.6-.85.15-1.2.6-.6.5-.6 1.2 0 .75.6 1.25.5.5 1.2.5.65 0 1.25-.5m-1.25-2.25q.45 0 .65.3.3.25.3.7 0 .45-.3.65-.1.3-.65.3-.45 0-.7-.3-.3-.3-.3-.65 0-.3.3-.7.4-.3.7-.3z" id="aG"/><path fill="#CCE3A9" d="M72.55 847.5q-.35-.35-.85-.35-.6 0-.95.35-.35.45-.35.9v.05q0 .5.35.85.3.4.95.4.55 0 .85-.4.35-.35.35-.85v-.05q0-.45-.35-.9m-.2.95l-.15.45q-.2.2-.5.2-.35 0-.5-.2-.25-.15-.25-.45v-.05q0-.35.25-.45.15-.2.5-.2.3 0 .5.2l.15.45v.05z" id="aH"/><path fill="#D9EABD" d="M99.9 883.9q0-.8-.65-1.55-.65-.65-1.55-.65-.95 0-1.6.65-.65.75-.65 1.55v.05q0 .85.65 1.5.6.65 1.6.65.95 0 1.55-.65.65-.65.65-1.55m-2.2-1.15q.55 0 .85.35.35.35.35.8 0 .4-.35.85-.45.35-.85.35-.45 0-.9-.35-.35-.45-.35-.8v-.05q0-.45.35-.8.3-.35.9-.35z" id="aI"/><path fill="#CCE3A9" d="M108.1 887.25q-.6 0-1.2.5-.5.6-.5 1.25 0 .7.5 1.3.6.5 1.2.5.65 0 1.25-.5.5-.5.5-1.3 0-.75-.5-1.25-.6-.5-1.25-.5m0 2.75q-.35 0-.65-.3-.25-.25-.25-.7 0-.45.25-.65.3-.3.65-.3.25 0 .75.3.2.2.2.65t-.2.7q-.5.3-.75.3z" id="aJ"/><path fill="#CCE3A9" d="M119.7 889.5q-.5 0-.85.35-.45.3-.45.85 0 .65.45.95.35.35.85.35.6 0 .95-.35t.35-.95q0-.5-.35-.85t-.95-.35m0 .55q.05 0 .5.15.25.25.25.5 0 .4-.25.5-.25.25-.5.25t-.5-.25q-.2-.05-.2-.5 0-.3.2-.5.45-.15.5-.15z" id="aK"/><path fill="#B5D781" d="M129.5 879.25l-1.3 2.95q.1.55.8.55 1.15-2.7 2.25-4.7-.8.4-1.7 1.45l-.05-.25m-18.65-6.95l-2.15 3.15q-.15.55.55.85 1.45-2.15 2.25-3.2-.25.05-.65.35v-1.15m10.5 3.8q-.65.35-1.65 1.1v-.15l-1.7 3.1q.35.45.9.35l2.45-4.4m-21.5-6.35q.05.5.65.8 1.7-2.1 2.6-3.1l-1.1.5.05-.8-2.2 2.6M94.6 861l.2-.45q-.45.4-2.65 2.45.15.6.85.5l2.95-2.75q-.1 0-1.35.25m-8.8-14.5l-1.1-.15.3-.5-3.4 1.8q.15.6.75.75l3.45-1.9m4.6 6.9q-1 0-1.6.15.1-.05.1-.25l-2.9 2.15q.15.5.75.65 2.45-1.8 3.65-2.7m-7.2-13.6q-.6-.3-.95-.35l.4-.45-3.5 1.3q0 .7.6.8l3.45-1.3z" id="aL"/><path fill="url(#g)" d="M107.65 897.5q-1.5-1.15-3.65-1.65-2.2-.5-4.1-.1-1.85.35-2.6 1.35 6.5 2.65 12.1 2.85-.25-1.35-1.75-2.45m7.9-2.3q-2.4.55-4.05 1.95-1.65 1.3-1.75 2.8 2.75 0 5.65-.65 3.6-1.1 6.95-2.95-.9-1-2.8-1.3-1.9-.35-4 .15M67.5 864.65q-1.9-3.65-4.6-4.3 1.1 5.5 4.9 11.35 3 4.75 7.55 9.75.85-1.15.3-3.15-.6-2-2.3-3.85-1.25-1.3-2.75-2.05-1.45-.7-2.65-.7.8-1.1.7-3.05-.15-1.95-1.15-4m-4.8-5.45q1.9-1.8 2.35-5.2.45-3.5-.95-5.7-2.3 4.95-1.4 10.9m25.95 30.75q-2-.1-3 .85Q91 894.55 96.8 897q.25-1.35-.85-3-1.15-1.65-3.15-2.8-2.15-1.1-4.15-1.25m-3.45.55q.5-1.3-.35-3.1-.8-1.8-2.65-3.3-1.55-1.35-3.3-1.9-1.7-.5-2.95-.1l4.35 4.35q2.4 2.2 4.9 4.05z" id="aM"/><path fill="#6BAC49" d="M80.75 875.65q-.45-.45-3.35 1.75-2.45 1.85-3.35 2.8-1.5 1.6-.2 2.85 1.3 1.2 2.8-.4.85-.85 2.6-3.5 2-3.1 1.5-3.5z" id="aN"/><path fill="#6BAC49" d="M89.9 883.95q-.5-.4-3.15 2.1-2.25 2.15-2.95 3.15-1.35 1.8.1 2.9 1.45 1.05 2.75-.75.8-1.05 2.15-3.8 1.65-3.25 1.1-3.6z" id="aO"/><path fill="#6BAC49" d="M97.8 892.6q-1.7 2.25-2.2 3.3-.85 1.85.6 2.55 1.5.75 2.35-1.1.5-1.05 1.3-3.75.9-3.15.4-3.4t-2.45 2.4z" id="aP"/><path fill="#6BAC49" d="M73.4 866.1q-.35-.5-3.25 1.1-2.3 1.2-3.45 2.05-1.6 1.25-.6 2.55 1 1.3 2.65.05.9-.7 2.8-2.8 2.2-2.5 1.85-2.95z" id="aQ"/><path fill="#6BAC49" d="M112.35 892.8q-.5-.2-2.05 2.35-1.25 2.1-1.7 3.15-.65 1.7.7 2.25 1.4.55 2.05-1.2.4-.9.9-3.4.6-2.95.1-3.15z" id="aR"/><path fill="#6BAC49" d="M68.85 856q-.25-.4-3.05.7-2.25.85-3.25 1.45-1.55.95-.8 2.25.8 1.3 2.35.3.95-.6 2.85-2.25 2.2-1.95 1.9-2.45z" id="aS"/><path fill="#6BAC49" d="M124.75 891.35q-.4-.15-1.7 2.05-1.15 1.9-1.4 2.65-.5 1.45.65 1.9 1.15.4 1.65-1.05.35-.75.75-2.9.5-2.5.05-2.65z" id="aT"/><path fill="#6BAC49" d="M69.4 844.85q-.2-.4-2.65.2-2.1.55-2.85.9-1.4.65-.9 1.75.5 1.15 1.9.55.95-.5 2.55-1.55 2.1-1.45 1.95-1.85z" id="aU"/><path fill="url(#h)" d="M75 734.1q-11.75-4.65-16.55-2.05-9.1 4.95-8 35.35.45 11.45 2.25 23.1 1.7 10.8 3.5 15.55 3.85 10 11.7 15 8.7 5.55 23.15 5.65 18 .15 23.65-.2 14.2-.75 23.15-4.1 12.35-4.65 14.65-7.1 3.6-3.75-1.4-11.55-10.45-16.25-27.1-33.7-18-18.85-32.9-27.85-8.4-5.05-16.1-8.1z" id="aV"/><path fill="url(#i)" d="M136.7 822.8l.8-3.8-10.45-1.95-13.4-1.2-14.05-.25-10.3 1.05 7.1 2 1.7 4.75-.7 3.3q12.8.15 20.1-.35 11.45-.85 19.2-3.55m-.65-10v-1.7l-2.25-2.4 1.1-2.35-8.7-2.6-20.45-4.35-13.9-1.35-10.5-.35 3.6 2.15.7 3.15-2.15 4 17.85-.3 14.95 1.35 19.75 4.75m-27.55-25.6l-19.8-4.7-9.75-1.6 2.95 4-2.15 4.2 11.3 1.1 13.2 1.95 11.2 2.9 12.55 4.1 6.1 3.2 1.1-3.2-1.1-1.95-25.6-10m-28.7-17.3l-2.85 3.3 24.4 6.05 15.4 6 9.5 4.75 8.5 5.1.85-.45.65-2.5-15.25-9.5-.55-.15-12.35-5.6-.5-.65-22.25-7.8-7.9-1.95 2.35 3.4m-1.95-16.5l1.45 3.75-3 2.55q2.3.45 5.35 1.5 1.7.6 5.15 1.8l13.05 5.15 10.5 4.7 16.35 10 8.9 5.9.65.6.8-.8-6.6-6.1-12.4-8.95-12.4-7.2-27.8-12.9z" id="aW"/><path fill="url(#j)" d="M79.05 735.75q-14.9-6.75-20.6-3.7-9.1 4.95-8 35.35.45 11.45 2.25 23.1 1.7 10.8 3.5 15.55 3.85 10 11.7 15 8.7 5.55 23.15 5.65h6.4l-.15-.05q1.9-3.85-.35-7-2.5-3.5-8.55-2.6 3.6-2.85 1.95-6.75-1.75-3.95-7-3.3 2.95-2.9 1.95-6-1-3.05-4.75-3.3 2.65-1.25 2.55-4.3-.1-3.25-4.2-4.05 2.75-1.15 2.7-4.3-.1-3.3-4.1-4.3 2.55-1.3 2.45-4.05-.1-2.85-3.25-3.55 2.75-1 2.7-3.7-.05-2.75-3.2-3.5 2.45-.3 2.9-2.7.45-2.55-3-3.5 2.75-.65 3-3.05.2-2.4-2.95-3.35 6.7-2.2 6.75-8.35.05-5.4-4-8.8l.15-.45z" id="aX"/><path fill="url(#k)" d="M64.2 731.15q-1.25-.05-2.45 0 5.7 2.75 11.55 6.8 7.35 5.15 13 11.15 2.55 2.65 4.9 5.75 2.1 2.75 4.25 6.4v.1l.95-.6h-.1q-1.8-3.4-4.25-6.45-1.75-2.4-4.95-5.95-9.6-10.25-22.9-17.2z" id="aY"/><path fill="url(#l)" d="M51.75 744.9l-.25 1.05q26.4 7.4 45.45 16.55 32.5 15.6 51.4 39l.9-.65q-19.35-23.9-51.8-39.3-19-9.1-45.7-16.65z" id="aZ"/><path fill="url(#m)" d="M50.75 752.35q-.1.35-.1 1.05 26.95 5.95 46.6 14.2 31.6 13.3 51.6 35.3l.8-.65q-20.1-22.1-52.05-35.6-20.3-8.55-46.85-14.3z" id="ba"/><path fill="url(#n)" d="M50.35 760.4v1.1q27.15 4.35 47.2 11.55 31 11.25 51.8 31.55l.75-.7q-20.9-20.45-52.2-31.85-20.15-7.3-47.55-11.65z" id="bb"/><path fill="url(#o)" d="M50.5 769.1q.1.35.1 1.1 26.95 2.55 47.3 8.65Q128.25 788 150 806.7l.65-.8Q128.7 787 98.2 777.8q-20.55-6.15-47.7-8.7z" id="bc"/><path fill="url(#p)" d="M51.25 778.3l.05 1.1q27 .9 47 5.7 29.75 7.1 52.35 24.1l.65-.85q-22.6-17.1-52.7-24.25-19.95-4.8-47.35-5.8z" id="bd"/><path fill="url(#q)" d="M52.4 788.2q0 .55.15 1.05 26.05-.95 46.35 2.6 29 5.1 52.55 20.4l.6-.9q-23.3-15.3-53-20.55-20-3.5-46.65-2.6z" id="be"/><path fill="url(#r)" d="M151.75 815.55l.85-.7q-24.25-13.6-52.9-16.75-20-2.15-45.5.55l.2 1q24.9-2.6 45.15-.45 28.35 3.15 52.2 16.35z" id="bf"/><path fill="url(#s)" d="M148.2 817.95q1-.65 1.15-.75-23.1-9.95-48.95-11-19.05-.8-42.7 3.3.15.3.5.95 23.85-3.9 42.15-3.2 25.6 1.05 47.85 10.7z" id="bg"/><path fill="url(#t)" d="M141.3 821l1.6-.65q-20-5.7-41.55-5.15-16.05.55-35.15 4.75l1.25.8q18.25-3.95 33.9-4.5 20.75-.55 39.95 4.75z" id="bh"/><path fill="url(#u)" d="M137.1 787.95q-.65 1.55-2.9 1.9 2.35 1.65 1.75 4.05-.55 2.2-2.7 2.5 2.05 1.6 1.75 3.65-.25 1.9-2.1 2.6 2.1 1.2 2.15 3.2.05 2-1.9 3.15 2.6.6 2.9 3.45.35 2.8-1.75 4.1 2.45.2 3 2.4.45 2.05-1.1 3.95v.05l1.65-.55q12.35-4.65 14.65-7.1 3.6-3.75-1.4-11.55-5.75-8.9-14.6-19.65 1.25 2.25.6 3.85z" id="bi"/><path fill="url(#v)" d="M64.2 731.15q-1.25-.05-2.45 0 4.75 2.25 9.85 5.65 6.15 4.1 11.3 8.9v-1.45q-8.6-7.8-18.7-13.1z" id="bj"/><path fill="url(#w)" d="M51.75 744.9l-.25 1.05q15.1 4.3 26.9 8.7-.8-.85-2.25-1.3l.95-.35q-12.65-4.55-25.35-8.1z" id="bk"/><path fill="url(#x)" d="M50.75 752.35q-.1.35-.1 1.05 15.05 3.3 27.15 7.15-.8-.55-1.7-.8.4-.05 1.2-.5-13.15-4-26.55-6.9z" id="bl"/><path fill="url(#y)" d="M50.35 760.4v1.1q14.4 2.2 28.15 5.75-.95-1.05-2.3-1.3l.75-.2q-12.85-3.2-26.6-5.35z" id="bm"/><path fill="url(#z)" d="M50.5 769.1q.1.35.1 1.1 14.95 1.4 28.2 3.95-.9-.8-2.1-1l.65-.35q-12.3-2.35-26.85-3.7z" id="bn"/><path fill="url(#A)" d="M51.25 778.3l.05 1.1q15.45.5 28.4 2.25-.95-.55-2.2-.9.2-.05.65-.4-12.15-1.55-26.9-2.05z" id="bo"/><path fill="url(#B)" d="M52.4 788.2q0 .55.15 1.05 14.8-.6 27.25.3l-.9-.2q1-.6 1.2-.8-12.35-.85-27.7-.35z" id="bp"/><path fill="url(#C)" d="M54.2 798.65l.2 1q15.5-1.6 28.3-1.45-.9-.4-2.15-.5.35-.15.85-.6-12.7 0-27.2 1.55z" id="bq"/><path fill="url(#D)" d="M86.95 807.25q-1.8-.45-3.6-.25l.55-.6q-11.6.65-26.2 3.1.15.3.5.95 16.6-2.65 28.75-3.2z" id="br"/><path fill="url(#E)" d="M91.5 816.9q-1.7-.1-3.1.15.9-.8 1.05-1-10.4 1.15-23.25 3.9l1.25.8q13.45-2.8 24.05-3.85z" id="bs"/><path fill="url(#F)" d="M78.45 735.55q.1.15.2.2 2.65 2.5 3.55 6.2.6 2.5.2 4.35-.3 2.05-1.7 3.8-1.85 1.9-4.7 2.6-.4.1-.4.6t.4.6q1.6.65 2.1 1.45.35.4.35 1.25 0 .55-.45 1.2-.65 1-2.15 1.3-.4.1-.4.65t.4.65q1.75.5 2.4 1.5.2.35.2 1.1-.1.7-.45 1.05-.7 1.1-1.85 1.25-.5.05-.5.55-.05.55.45.65 1.4.45 2.15 1.4.5.8.5 1.5 0 .95-.45 1.6-.55 1.05-1.8 1.5-.4.15-.4.6.05.5.5.6 1.25.35 1.9 1.1.7.65.8 1.8 0 .9-.4 1.95-.75 1.25-1.65 1.65-.4.2-.35.7.05.4.45.5 2 .4 2.9 1.6.6.8.7 1.95 0 1.3-.5 2-.55 1.3-1.85 1.75-.4.15-.35.65.05.55.5.65 1.85.3 2.95 1.45.65.9.8 1.85 0 1.05-.45 1.95-.55 1.3-1.8 1.85-.35.2-.3.7.1.5.5.55 1.9.05 3.35 1.35.65.8.85 1.4.2.75.2 1.7-.25 2.05-2 3.75-.25.35-.05.75t.6.35q2.9-.35 4.7.9 1.15.75 1.65 2.1.5 1.2.3 2.6-.25 1.9-2 3.25-.4.3-.2.8.2.45.7.35 3.35-.45 5.6.65 1.4.6 2.25 1.85.75 1.15 1 2.55.2 1.95-.65 4 .97.005 1.35.1.9-2.1.5-4.25-.25-1.9-1.15-3.2-1.05-1.4-2.75-2.2-1.75-.95-4.6-.95 1.05-1.35 1.25-2.8.3-1.65-.35-3.25-.7-1.7-2.2-2.65-1.55-1.1-4-1.25 1.1-1.35 1.35-3.35.15-1.05-.3-2.25-.4-1-1.2-1.9-1.05-1.05-2.45-1.4.7-.7 1.05-1.55.65-1.2.55-2.65-.15-1.45-1.15-2.6-.9-.9-2.2-1.45.85-.75 1.15-1.5.65-1.25.65-2.7-.1-1.55-1-2.7-.7-.95-2.3-1.65.75-.75 1.1-1.45.7-1.45.55-2.65-.1-1.45-1.05-2.5-.35-.35-1.25-.95.6-.45 1.15-1.3.7-1.05.6-2.3 0-1.2-.8-2.3-.35-.55-1.3-1.15.75-.5 1.15-1.15.6-.8.65-1.65.1-1-.35-1.9-.5-.8-1.65-1.5.75-.45 1.35-1.25.65-1 .65-1.9 0-1.1-.6-1.95-.4-.75-1.2-1.25 2.1-.7 3.65-2.45 1.65-1.85 2.1-4.45.4-2.1-.2-4.9-.6-2.3-2.15-4.75l-2.9-1.3z" id="bt"/><path fill="#E8F2D9" d="M67.5 785.8q.75-.65.75-1.8 0-1.05-.75-1.8-.8-.8-1.85-.8-1.15 0-1.8.75-.8.8-.8 1.85 0 1.15.8 1.8.65.8 1.8.8 1.05 0 1.85-.8m-.4-1.8q0 .65-.45 1-.35.45-1 .45-.55 0-1-.45-.45-.45-.45-1 0-.65.45-1 .4-.45 1-.45.7 0 1 .45.45.3.45 1z" id="bu"/><path fill="#E4F0D2" d="M66.8 791h-.1q-1 0-1.8.8-.7.7-.7 1.8 0 1 .7 1.85.85.75 1.8.75h.1q.95 0 1.8-.75.7-.85.7-1.85 0-1.1-.7-1.8-.8-.8-1.8-.8m1.35 2.6q0 .65-.35 1h-.1q-.3.45-.9.45h-.1q-.6 0-.9-.45-.45-.3-.45-1 0-.55.35-1 .55-.45 1-.45h.1q.45 0 1 .45.35.45.35 1z" id="bv"/><path fill="#E4F0D2" d="M67.5 801.75q-.65.65-.65 1.4 0 .8.65 1.45.65.65 1.45.65.95 0 1.45-.65.65-.65.65-1.45 0-.75-.65-1.4-.55-.65-1.45-.65-.9 0-1.45.65m.65 2.2q-.35-.35-.35-.8 0-.35.35-.8.35-.35.8-.35.35 0 .8.35.35.45.35.8 0 .45-.35.8-.45.35-.8.35-.45 0-.8-.35z" id="bw"/><path fill="#DDECC8" d="M63.1 773.8q-.65.75-.65 1.55t.65 1.55q.75.65 1.6.65.95 0 1.5-.65.65-.6.65-1.55 0-.95-.65-1.55-.65-.65-1.5-.65-.75 0-1.6.65m1.6.35q.5 0 .85.35t.35.85q0 .55-.35.9t-.85.35q-.5 0-.85-.35t-.35-.9q0-.5.35-.85t.85-.35z" id="bx"/><path fill="#D9EABD" d="M64.2 765.35q-.85 0-1.45.6-.65.6-.65 1.5 0 .95.65 1.45.55.65 1.45.65.75 0 1.5-.65.6-.6.6-1.45t-.6-1.45q-.75-.65-1.5-.65m-.8 1.3q.35-.35.8-.35.55 0 .8.35.35.45.35.8 0 .45-.35.8-.25.35-.8.35-.45 0-.8-.35-.35-.35-.35-.8 0-.35.35-.8z" id="by"/><path fill="#D9EABD" d="M63.2 758.5q-.5.45-.5 1.25 0 .85.5 1.2.4.55 1.2.55.85 0 1.25-.55.5-.5.5-1.2 0-.65-.5-1.25-.6-.5-1.25-.5-.6 0-1.2.5m.5.6q.3-.3.7-.3.45 0 .65.3.3.25.3.65t-.3.7q-.25.25-.65.25-.35 0-.7-.25-.2-.25-.2-.7 0-.45.2-.65z" id="bz"/><path fill="#D9EABD" d="M63.9 751.85q-.35.35-.35.85t.35.95q.55.35.95.35.45 0 .95-.35.35-.45.35-.95 0-.5-.35-.85-.5-.4-.95-.4-.45 0-.95.4m1.45.4q.2.15.2.45 0 .35-.2.5-.2.2-.5.2t-.5-.2q-.25-.15-.25-.5 0-.3.25-.45.2-.2.5-.2t.5.2z" id="bA"/><path fill="#D9EABD" d="M67.35 744.05q0-.5-.35-.95-.35-.35-.95-.35-.5 0-.85.35-.35.45-.35.95 0 .5.35.85.3.45.85.45.65 0 .95-.45.35-.35.35-.85m-.8-.5q.25.25.25.5t-.25.5q-.1.2-.5.2-.3 0-.4-.2-.25-.25-.25-.5t.25-.5q.05-.2.4-.2.45 0 .5.2z" id="bB"/><path fill="#CCE3A9" d="M73.65 810.65h-.1q-.85 0-1.5.65t-.65 1.6q0 .95.65 1.55.55.65 1.5.65h.1q.95 0 1.5-.65.65-.65.65-1.55 0-.85-.65-1.6-.65-.65-1.5-.65m0 1q.4 0 .75.35.4.4.4.9 0 .55-.4.85-.35.35-.75.35h-.1q-.35 0-.8-.35-.35-.35-.35-.85 0-.45.35-.9.45-.35.8-.35h.1z" id="bC"/><path fill="#A8D16D" d="M82.2 822.8q.8 0 1.2-.5.5-.6.5-1.2 0-.75-.5-1.25-.4-.55-1.2-.55-.85.1-1.25.55-.5.45-.5 1.25 0 .85.5 1.2.5.5 1.25.5m.65-2.45q.3.4.3.75 0 .45-.3.65-.2.3-.65.3-.4 0-.7-.3-.3-.3-.3-.65 0-.25.3-.75.5-.25.7-.25.3 0 .65.25z" id="bD"/><path fill="#59A148" d="M58.1 747.45q.15-.5-2.6-1.95-2.35-1.2-3.4-1.5-1.8-.55-2.25.9-.45 1.5 1.4 2.05 1.1.35 3.65.65 3.05.4 3.2-.15z" id="bE"/><path fill="#64A848" d="M56.2 754.05q.1-.5-2.5-1.6-2.25-.95-3.2-1.15-1.7-.35-2 1-.3 1.35 1.35 1.75 1.2.25 3.4.35 2.8.15 2.95-.35z" id="bF"/><path fill="#67AA49" d="M56.25 762q.1-.5-2.6-1.6-2.2-.9-3.2-1.1-1.75-.3-2 1.05-.3 1.4 1.4 1.75 1.05.2 3.4.3 2.85.1 3-.4z" id="bG"/><path fill="#6FB049" d="M55.9 770.1q.05-.45-2.3-1.2-1.65-.5-2.95-.75-1.5-.15-1.65 1.1-.15 1.2 1.35 1.35.7.15 3 .05 2.5-.1 2.55-.55z" id="bH"/><path fill="#75B449" d="M56.5 779.05q.05-.5-2.35-1.1-1.95-.5-2.9-.55-1.55-.1-1.6 1.1-.05 1.25 1.45 1.35.85.05 2.95-.15 2.45-.25 2.45-.65z" id="bI"/><path fill="#7DB94A" d="M57.5 788.7q-.05-.5-2.55-.9-2.05-.35-3-.35-1.55 0-1.55 1.3 0 1.25 1.55 1.25.9 0 3.05-.4 2.5-.45 2.5-.9z" id="bJ"/><path fill="#7DB94A" d="M59.8 798.75q-.05-.45-2.55-.7-1.75-.15-3.05-.15-1.55.15-1.45 1.45.1 1.25 1.65 1.1.75 0 2.95-.55 2.45-.65 2.45-1.15z" id="bK"/><path fill="#7DB94A" d="M63.25 809.5q-.1-.45-2.6-.35-2.05.1-3.1.3-1.5.4-1.2 1.6.3 1.25 1.8.85.9-.2 2.85-1 2.35-1 2.25-1.4z" id="bL"/><path fill="#7DB94A" d="M71.95 819.6q-.05-.4-2.35-.3-1.95.1-2.65.3-1.35.3-1.1 1.4.25 1.05 1.6.8.95-.25 2.5-.9 2.1-.9 2-1.3z" id="bM"/><path fill="#BFDD96" d="M82.55 745.35l1.15 1.15.15-1.35-1.3-1.25v1.45z" id="bN"/><path fill="#BFDD96" d="M75.55 753.65q2.05.65 3.85 1.35 0-.1-.25-.35-.4-.75-1.2-1.25h.15q-.65-.3-1.95-.7H76q-.55.05-.45.95z" id="bO"/><path fill="#BFDD96" d="M75.45 759.8l3.7 1.15q-.4-.65-1.4-1.2l.35-.2-1.75-.6q-.2.15-.5.15-.4.2-.4.7z" id="bP"/><path fill="#BFDD96" d="M76.7 766.75l2.85.7q-.2-.1-.3-.35-.7-.85-1.15-1.1l-2.3-.55q-.25.3-.15.65.05.35.45.4l.6.25z" id="bQ"/><path fill="#BFDD96" d="M76.45 773.7l3.35.65-.25-.4q-.35-.35-1.25-.95l-2-.45q-.2.2-.15.6.05.4.3.55z" id="bR"/><path fill="#BFDD96" d="M77.25 781.35l3.65.45q-1-.9-1.95-1.25l.1-.05-1.9-.25q-.25.2-.25.55.05.35.35.55z" id="bS"/><path fill="#BFDD96" d="M80.45 789.1l.5-.5q-1.3-.1-1.85-.1l-.5.2q-.55.25-.35.8l3.35.2q-.9-.5-1.15-.6z" id="bT"/><path fill="#BFDD96" d="M84 798.2q-.75-.55-1.8-.85 0-.1.15-.25H80.2q-.65.45 0 1.1H84z" id="bU"/><path fill="#BFDD96" d="M82.9 807.5l5.5-.25q-1.3-.8-3.05-.9-1.15 0-2.35.15l-.15.05q-.3.5.05.95z" id="bV"/><path fill="#BFDD96" d="M87.9 817.3q3-.4 5.8-.6-1.45-.5-3.6-.5l.25-.2-1.9.1-.4.4q-.4.35-.15.8z" id="bW"/><path fill="url(#G)" d="M135.4 782.8q-.25.35 0 .7 1.1 1.55 1.3 2.8.05.75-.15 1.4-.25.6-.8.9-.55.4-1.7.65-.35.1-.45.5-.1.4.2.6 1.35 1 1.6 2.4l-.05 1-.45 1q-.75.9-1.8 1.05-.35.1-.45.45-.1.4.15.65.85.6 1.45 1.65.2.75.15 1.4-.15.8-.5 1.2-.5.7-1.25.95-.35.15-.4.55 0 .35.35.6.9.5 1.5 1.35.35.8.35 1.35 0 .6-.35 1.3-.55.8-1.3 1.25-.3.25-.25.65.05.4.5.5 1.1.2 1.85 1.3.3.35.6 1.45.05.7-.1 1.55-.3 1.4-1.45 2.1-.3.25-.2.7.15.4.55.45.9 0 1.6.6.45.35.75 1 .1.35.1 1.3-.05 1.2-1 2.45-.25.2-.15.65.65-.3 1.55-.5.7-1.1.85-2.55 0-.6-.2-1.8-.4-.9-1.1-1.45-.55-.45-1.1-.7.7-.75.95-1.95.25-1.05.1-2.1-.15-.9-.75-1.95-.5-.8-1.5-1.35l.8-1q.5-.85.5-1.9 0-1.05-.6-1.9-.2-.55-1.05-1.3l.8-.8q.7-1.05.75-1.8.15-1-.25-2.05-.5-1-.95-1.4.95-.5 1.45-1.3.35-.5.65-1.3.2-.7.05-1.6-.05-1.15-1.15-2.3l1.1-.55q.7-.6 1.2-1.55.35-1 .15-2l-.05-.45-2.4-2.85z" id="bX"/><path fill="url(#H)" d="M83.15 739.1q33.2 25.75 52.7 46.65Q115.1 759 83.15 739.1z" id="bY"/><path fill="url(#I)" d="M242.4 733.8q-7.9 3.1-16.15 8.15-15.7 9.5-33.6 26.7-18.05 17.35-27.8 32.5-5 7.85-.7 12.7 3.25 3.7 15.4 8.25 8.95 3.4 23.2 4.15 5.15.3 23.6.15 14.5-.05 23.15-5.6 7.85-4.95 11.7-14.95 1.8-4.8 3.5-15.55 1.8-11.7 2.2-23.1 1.15-30.45-7.95-35.4-4.8-2.6-16.55 2z" id="bZ"/><path fill="url(#J)" d="M193.65 823.9q-16.6-4.05-23.25-4.25-9.95-.3-10.3 5.35-.15 2.4 1.15 7.35.8 3 3 10.7 6.5 23.85 11.85 34.5 9.05 18.1 22.75 21.75 8.05 2.15 19.1-2.55 9.4-4 15.95-10.3 23.65-22.45 16.15-38.35-6.6-13.95-33.8-18.8-2.15-.4-22.6-5.4z" id="ca"/><path fill="url(#K)" d="M216.9 897.1q.35-.05.95-.35-9.85-20.6-27.5-41.25-12.8-15.15-30.25-30.95v1.3q16.9 15.35 29.5 30.25 17.55 20.6 27.3 41m-12.4 2.85l1.1-.1q-7.7-19.35-22.25-40.65-9.9-14.3-22.6-28.8l.55 2.05q11.7 13.55 21.25 27.3 14.25 20.7 21.95 40.2m23.85-9q.3-.15.8-.5-11.65-19.7-31.75-38.7-15.15-14.45-36.35-29.7-.15.15-.5.85 21.2 15.3 36.2 29.6 20 19.1 31.6 38.45m-63.05-44.3q5.45 8.4 10.15 16.8 9.25 16.45 15.05 31.95l1.35.85q-5.95-16.15-15.55-33.3-5.05-8.95-11.9-19.4l.9 3.1m-1.65-24.9l-.45.85q23.7 13.25 40.65 26.2 20.8 15.8 34.45 33.35.25-.4.65-.7-13.05-16.9-34.5-33.45-16.85-12.8-40.8-26.25m87.65 38.75l.15-1.1Q237 849.05 218.5 840.6q-16.25-7.45-36.35-13.9 24.7 4.95 43.05 11.1 13.15 4.4 24.6 9.85l-.8-1.45q-11.3-5.3-23.5-9.35-21-7.05-48.7-12.1v.3l-4.4-1.3-.2.8q-1.7-.8-4.2-1.8l-.35.95q25.05 10.45 43.3 21.45 21 12.55 35.4 26.8l.5-.9Q232.6 857 211.45 844.3q-16.5-9.95-38.05-19.25 25.6 7.6 44.65 16.4 19.15 8.85 33.25 19.05z" id="cb"/><path fill="url(#L)" d="M234.35 840.3q-2.6-1.45-2.5-3.55.1-2 2.55-2.1-7.65-3.5-18.15-5.35-3.8-.65-15.05-3.5-12.65-3.15-18.35-4.35-2.35-.15-9.65-2.4-7.05-2.2-7.4-2.2-3.1 0-3.45 3.85-.45 5.15-2.1 6.85.3 2.25 1.55 6.7.7 2.55 2.45 8.8 3.65 13.35 5.95 20.05 3.85 11.3 8.25 18.75.1-3.3 2.45-3.55 2.45-.25 4.35 3.7-.25-4.65 3.6-5.6 3.85-.95 6.75 3.3-1.2-4.7 2.25-6.2 3.45-1.45 6.9 2.1-1.7-4.75 1.45-6.9 3.15-2.15 7.4 1.05-1.65-5.25 1.25-7.35 2.65-1.95 6.6.3-2.8-4.3-.45-7.1 2.35-2.75 6.5-.4-2.8-3-1.25-5.95 1.6-2.95 5.7-1.75-3.45-2.4-2.15-5.25 1.3-2.8 4.55-1.95z" id="cc"/><path fill="url(#M)" d="M232.8 837.65q-.15-.5-.05-1 0-.35.35-.7.45-.45 1.3-.45.6 0 .7-.5-.45-.25-2.05-.95-.65.25-1.1.65-.7.65-.95 1.65-.1 1.1.3 1.95.35.8.65 1.15-.9.25-1.45.7-1 .7-1.4 1.7-.6 1.1-.4 2.3.15 1.2.9 2.2-1.1.15-1.8.45-1.4.65-2.2 1.85-.7 1.45-.65 2.75 0 1.1.45 2.15-1.3-.3-2.45 0-1.45.35-2.5 1.4-1.05 1.1-1.25 2.65-.25 1.5.45 3.4-.95-.3-2.25-.3-1.85.1-3.25 1.05-1.35 1.2-1.8 3.05-.35 1.45-.05 3.15-1.7-.95-3.6-.85-1.8 0-3.1 1-1.3.95-1.85 2.6-.45 1.25-.4 2.75-1.45-.95-3.1-1.1-1.5-.2-3 .5-1.35.7-2.15 2.15-.45.95-.6 2.2-1.25-1.1-2.85-1.6-1.8-.45-3.35.05-1.45.45-2.65 1.8-.55.8-1 2.05-.85-1.2-1.95-1.65-.85-.5-2.1-.4-1.05.25-1.8 1.1-.8.8-1 2.1l1.1 1.95q.4-.2.4-.65.15-1.5.8-2.3.45-.45.8-.45.35-.1 1.1.15 1.4.7 2.5 3 .25.55.95.4.7-.2.65-.8-.15-2 .95-3.45.85-1 1.8-1.25 1.05-.3 2.35 0 2.1.55 3.75 2.95.35.5 1 .2.7-.3.5-.9-.6-2.25.15-3.7.55-1 1.35-1.45 1.1-.4 2.1-.35 2.2.25 4.1 2.15.45.45 1 .1.6-.4.4-.95-.85-2.2-.25-4 .35-1.1 1.3-1.8.8-.6 2.15-.75 2.05 0 4.35 1.65.4.35.95 0 .5-.35.35-.9-.85-2.55-.35-4.35.15-1.25 1.2-2 1-.75 2.15-.75 1.9 0 3.6 1.05.55.25 1.05-.25.45-.5.1-1-1.6-2.5-1.2-4.4.1-1.05.8-1.7.5-.65 1.55-.9 1.75-.45 3.85.8.55.25.95-.3.45-.55.05-1.05-1.4-1.55-1.5-3.3 0-1.15.5-1.8.45-.85 1.3-1.15 1.3-.6 3.2-.1.6.25.95-.45.35-.65-.2-1.05-1.8-1.3-2.05-2.9-.1-.75.25-1.35.2-.45.85-1 1.15-.8 2.65-.35.6.1.9-.6.3-.65-.25-1-1.45-.85-1.95-1.95z" id="cd"/><path fill="url(#N)" d="M204.75 875.6q-.45-1.2-.5-2.1-6.4-9.2-13.9-18-12.2-14.35-28.5-29.45l-.75.65q16.25 14.95 28.5 29.4 8.55 10.05 14.4 18.85l.75.65m-9.15 4.1l-.2-1.15q-5.2-9.3-12.05-19.35-9.9-14.3-22.6-28.8l.55 2.05q11.7 13.55 21.25 27.3 6.95 10.3 11.3 18 1.1.95 1.75 1.95m-31.2-36.15l.9 3.1q5.45 8.4 10.15 16.8 5.25 9.45 8.5 16.45.7.85 1.3 2.1l.05-1.45q-3.9-8.55-9-17.6-5.05-8.95-11.9-19.4m-.25-19.3l-.9.65q19.6 14.2 33.5 27.6 8.8 8.35 15.7 16.55.45.2 1.15.7-.3-1.05-.35-1.35-7.4-8.65-15.85-16.65-14-13.4-33.25-27.5m1.95-1.15l-1.05.6q22.65 12.75 38.8 25.1 8.35 6.4 15.65 13.05 1.15.35 1.95.85l-.45-.8q-7.35-6.8-16.55-13.9-16.85-12.8-38.35-24.9m67.2 16.55q-2.85-1.15-7.8-2.8-21-7.05-48.7-12.1v.3l-4.4-1.3-.2.8q-1.7-.8-4.2-1.8l-.35.95q25.05 10.45 43.3 21.45 7.05 4.2 14.15 9.2 1.1.2 2.4.85-.45-.45-.65-.85-7.2-5.1-15.4-10.05-16.5-9.95-38.05-19.25 25.6 7.6 44.65 16.4 6.35 2.9 11.75 5.8.7-.1 2.15.25l-.95-.7q-5.15-2.85-12.5-6.2-16.25-7.45-36.35-13.9 24.7 4.95 43.05 11.1 5.35 1.8 7.05 2.45 1.05-.25 2.1.05-.65-.35-1.05-.65z" id="ce"/><path fill="#E4F0D2" d="M224.05 876.4q0 1.15.8 1.8.65.8 1.8.8 1.1 0 1.8-.8.75-.65.75-1.8t-.75-1.9q-.8-.7-1.8-.7-1.1 0-1.8.7-.8.75-.8 1.9m1.55-1q.45-.45 1.05-.45.55 0 1 .45.4.3.4 1 0 .5-.4 1-.65.45-1 .45t-1.05-.45q-.4-.5-.4-1 0-.7.4-1z" id="cf"/><path fill="#D9EABD" d="M235.7 865.8q-.85-.65-1.6-.65-.8 0-1.55.65-.65.75-.65 1.6 0 .9.65 1.55t1.55.65q.85 0 1.6-.65.65-.75.65-1.55 0-.75-.65-1.6m-2.8 1.6q0-.45.35-.9.35-.35.85-.35.45 0 .9.35.35.45.35.9 0 .5-.35.85-.45.35-.9.35-.5 0-.85-.35t-.35-.85z" id="cg"/><path fill="#CCE3A9" d="M239.35 855.85q-.85.15-1.2.6-.6.5-.6 1.2 0 .75.6 1.25.5.5 1.2.5.65 0 1.25-.5.5-.5.5-1.25 0-.7-.5-1.2-.4-.4-1.25-.6m-.7 1.1q.4-.3.7-.3.35 0 .65.3.3.25.3.7 0 .45-.3.65-.2.3-.65.3t-.7-.3q-.3-.3-.3-.65 0-.3.3-.7z" id="ch"/><path fill="#CCE3A9" d="M243.9 848.4q0-.5-.4-.9-.45-.35-.9-.35-.55 0-.9.35-.4.4-.4.9v.05q0 .55.4.85.3.4.9.4.5 0 .9-.4.4-.3.4-.85v-.05m-.55.05q0 .2-.25.45-.2.2-.5.2t-.5-.2q-.2-.15-.2-.45v-.05q0-.4.2-.45.2-.2.5-.2t.5.2q.25.15.25.45v.05z" id="ci"/><path fill="#D9EABD" d="M218.8 883.9q0-.9-.65-1.55-.75-.65-1.6-.65-.95 0-1.5.65-.65.6-.65 1.55 0 1.05.65 1.55.5.65 1.5.65.95 0 1.6-.65.65-.55.65-1.5v-.05m-1.05 0v.05q0 .45-.35.8-.35.35-.85.35-.4 0-.85-.35-.4-.4-.4-.85 0-.5.4-.8.25-.35.85-.35t.85.35q.35.3.35.8z" id="cj"/><path fill="#CCE3A9" d="M207.35 887.75q-.6-.5-1.25-.5-.5 0-1.2.5-.5.6-.5 1.25 0 .7.5 1.3.7.5 1.2.5.65 0 1.25-.5h.05q.5-.6.5-1.3 0-.7-.55-1.25m-.5.6q.25.4.25.65 0 .2-.25.7-.5.3-.75.3-.35 0-.65-.3-.3-.3-.3-.7 0-.4.3-.65.3-.3.65-.3.25 0 .75.3z" id="ck"/><path fill="#CCE3A9" d="M195.45 889.85q-.35-.35-.95-.35-.5 0-.85.35t-.35.85q0 .6.35.95t.85.35q.6 0 .95-.35t.35-.95q0-.5-.35-.85m-1.45.35l.5-.15q.05 0 .5.15.25.25.25.5 0 .4-.25.5-.25.25-.5.25t-.5-.25q-.15-.15-.15-.5l.15-.5z" id="cl"/><path fill="#B5D781" d="M205.6 875.45q-.75-1.2-2.25-3.15v1.15q-.15-.25-.55-.35l2.15 3.2q.65-.3.65-.85m8.15-4.9q.65-.3.65-.8l-2.15-2.6.05.8-1.15-.5 2.6 3.1m8.4-7.55l-2.65-2.45.15.45q-1.1-.25-1.4-.25 1.75 1.5 3 2.75.55.1.9-.5m6.35-16.5l3.4 1.9q.55-.15.8-.75-.4-.2-3.5-1.8l.4.5-1.1.15m-3.1 7.05q-.5-.15-1.6-.15l3.75 2.7q.5-.15.75-.65l-2.95-2.15.05.25m-39.3 28.65l-1.4-2.95-.05.25q-.7-.9-1.6-1.45 1.55 3.1 2.2 4.7.6 0 .85-.55m8.4-5q-.55-.5-1.55-1.1.75 1.45 2.45 4.4.5.1.85-.35-.7-1.5-1.75-3.1v.15m37.45-37.75q-.35.05-.95.35l3.55 1.3q.45-.1.55-.8l-3.45-1.3.3.45z" id="cm"/><path fill="url(#O)" d="M204.8 899.95q5.5-.2 12.2-2.85-.85-1-2.7-1.35-1.9-.4-4 .1-2.15.5-3.7 1.65-1.55 1.15-1.8 2.45m-.35 0q-.1-1.5-1.7-2.8-1.65-1.4-4.05-1.95-2.15-.5-4-.15-1.85.3-2.85 1.3 3.4 1.9 7 2.95 2.95.65 5.6.65m24.1-9.15q-1-.95-3-.85-2 .15-4.05 1.25-2 1.15-3.15 2.8t-.95 3q6.05-2.55 11.15-6.2m.85-3.4q-.8 1.75-.3 3.1 3-2.3 4.8-4.05.8-.75 4.4-4.35-1.25-.4-2.95.1-1.7.55-3.3 1.9-1.8 1.5-2.65 3.3m19.85-33.4q.35 3.35 2.3 5.2.95-5.75-1.45-10.9-1.4 2.5-.85 5.7m2.05 6.35q-1.2.3-2.4 1.45-1.25 1.15-2.1 2.85-1.05 2.05-1.2 4-.1 1.95.75 3.05-1.3 0-2.7.7-1.5.75-2.7 2.05-1.75 1.85-2.35 3.85-.6 2 .25 3.15 4.6-4.85 7.65-9.75 3.7-5.95 4.8-11.35z" id="cn"/><path fill="#6BAC49" d="M236.85 877.4q-2.9-2.2-3.4-1.75-.45.4 1.55 3.5 1.65 2.55 2.55 3.5 1.55 1.6 2.85.4 1.3-1.25-.25-2.85-.9-.95-3.3-2.8z" id="co"/><path fill="#6BAC49" d="M227.45 886.05q-2.65-2.5-3.15-2.1-.5.35 1.15 3.6 1.3 2.65 2.1 3.8 1.35 1.8 2.8.75 1.45-1.1.1-2.9-.8-1.1-3-3.15z" id="cp"/><path fill="#6BAC49" d="M218.65 895.9q-.75-1.3-2.2-3.3-1.95-2.65-2.5-2.4-.5.25.45 3.4.75 2.7 1.3 3.75.9 1.85 2.4 1.1 1.45-.7.55-2.55z" id="cq"/><path fill="#6BAC49" d="M247.6 869.25q-1.15-.85-3.4-2.05-2.95-1.6-3.3-1.1-.4.45 1.85 2.95 1.85 2.05 2.8 2.8 1.55 1.25 2.6-.05 1-1.3-.55-2.55z" id="cr"/><path fill="#6BAC49" d="M205.7 898.3q-.4-1-1.7-3.15-1.6-2.55-2.05-2.35-.5.2.05 3.15.45 2.3.85 3.4.7 1.7 2.1 1.2 1.4-.5.75-2.25z" id="cs"/><path fill="#6BAC49" d="M248.4 856.7q-2.75-1.1-3.05-.7-.2.5 2 2.45 1.8 1.6 2.8 2.25 1.55 1 2.3-.3.8-1.25-.75-2.25-1.2-.65-3.3-1.45z" id="ct"/><path fill="#6BAC49" d="M191.2 893.4q-1.3-2.2-1.7-2.05-.4.15.05 2.65.35 1.75.7 2.9.55 1.45 1.75 1.05 1.15-.45.55-1.9-.2-.7-1.35-2.65z" id="cu"/><path fill="#6BAC49" d="M247.5 845.05q-2.45-.6-2.65-.2-.2.4 1.9 1.85 1.75 1.15 2.65 1.55 1.4.6 1.9-.55.5-1.1-.9-1.75-.85-.4-2.9-.9z" id="cv"/><path fill="url(#P)" d="M239.25 734.1q-7.65 3-16.15 8.1-14.85 9-32.8 27.85-16.65 17.45-27.1 33.7-5 7.8-1.45 11.55 2.25 2.45 14.6 7.1 9.05 3.35 23.25 4.1 5.65.35 23.65.2 14.45-.1 23.1-5.65 7.85-5 11.65-15 1.85-4.8 3.5-15.55 1.85-11.65 2.25-23.1 1.15-30.4-7.95-35.35-4.8-2.6-16.55 2.05z" id="cw"/><path fill="url(#Q)" d="M216.2 823.4l1.7-4.75 7-2-10.2-1.05-14.05.25-13.4 1.2L176.8 819l.7 3.8q7.85 2.7 19.3 3.55 7.3.5 20.05.35l-.65-3.3m12.35-20.4l.8-3.15 3.55-2.15-10.45.35-13.95 1.35-20.4 4.35-8.7 2.6 1.1 2.35-2.35 2.4v1.7l19.75-4.75 15.05-1.35 17.8.3-2.2-4m6.7-22.1l-9.7 1.6-19.75 4.7-25.7 10-1.05 1.95 1.05 3.2 6.15-3.2 12.5-4.1 11.25-2.9 13.15-1.95 11.4-1.1-2.15-4.2 2.85-4m-41.45 1.6l-.5.15-15.35 9.5.65 2.5.85.45 8.5-5.1 9.5-4.75 15.5-6 24.4-6.05-2.95-3.3 2.4-3.4-7.85 1.95-22.25 7.8-.6.65-12.3 5.6m-15.1 6.25l8.85-5.9 16.3-10 10.55-4.7 13.1-5.15q1.8-.55 5.2-1.8 3-1.05 5.3-1.5l-3-2.55 1.35-3.75-27.8 12.9-12.4 7.2-12.35 8.95-6.55 6.1.8.8.65-.6z" id="cx"/><path fill="url(#R)" d="M235.2 735.75l.15.45q-4.05 3.4-4 8.8 0 6.15 6.75 8.35-3.2.95-2.95 3.35.2 2.4 3.05 3.05-3.45.95-3 3.5.4 2.4 2.8 2.7-3.1.75-3.15 3.5 0 2.7 2.7 3.7-3.2.7-3.25 3.55-.1 2.75 2.4 4.05-4 1-4.05 4.3-.05 3.15 2.75 4.3-4.2.8-4.3 4.05-.1 3.05 2.6 4.3-3.7.25-4.7 3.3-.95 3.1 1.95 6-5.3-.65-7.05 3.3-1.7 3.9 1.95 6.75-6-.9-8.5 2.6-2.25 3.15-.35 7l-.25.05h6.5q14.45-.1 23.1-5.65 7.85-5 11.65-15 1.85-4.8 3.5-15.55 1.85-11.65 2.25-23.1 1.15-30.4-7.95-35.35-5.75-3.1-20.6 3.7z" id="cy"/><path fill="url(#S)" d="M217.9 760.75l.95.6v-.1q1.75-3.1 4.2-6.4 2.25-3 4.85-5.75 5.65-6 13.05-11.15 5.85-4.05 11.55-6.8-1.2-.05-2.45 0-13.25 7-22.9 17.2-2.7 2.95-5 5.95-2.3 3.05-4.25 6.45z" id="cz"/><path fill="url(#T)" d="M262.75 745.95l-.2-1.05q-26.85 7.55-45.7 16.65-32.45 15.4-51.8 39.3l.8.65q19.05-23.45 51.4-39 19.25-9.25 45.5-16.55z" id="cA"/><path fill="url(#U)" d="M263.65 753.4q-.1-.35-.1-1.05-26.75 5.8-46.95 14.3-31.95 13.55-51.95 35.6l.8.65q19.9-21.95 51.6-35.3 19.5-8.2 46.6-14.2z" id="cB"/><path fill="url(#V)" d="M263.85 761.5v-1.1q-27.3 4.35-47.45 11.65-31.45 11.5-52.25 31.85l.7.7q21-20.4 51.9-31.55 20-7.2 47.1-11.55z" id="cC"/><path fill="url(#W)" d="M263.65 770.2l.05-1.1q-27.2 2.55-47.65 8.7-30.35 9.2-52.5 28.1l.7.8q21.8-18.75 52.15-27.85 20.2-6.1 47.25-8.65z" id="cD"/><path fill="url(#X)" d="M262.9 779.4q0-.1.15-1.1-27.45 1-47.35 5.8-30.05 7.1-52.7 24.25l.55.85q22.55-16.95 52.35-24.1 20.1-4.8 47-5.7z" id="cE"/><path fill="url(#Y)" d="M261.75 789.25l.15-1.05q-26.7-.9-46.7 2.6-29.65 5.25-53 20.55l.55.9q23.55-15.3 52.65-20.4 20.15-3.55 46.35-2.6z" id="cF"/><path fill="url(#Z)" d="M259.8 799.65l.25-1q-25.5-2.65-45.45-.55-28.6 3.1-53 16.75l.9.7q23.8-13.2 52.2-16.35 20.25-2.2 45.1.45z" id="cG"/><path fill="url(#aa)" d="M256 810.45q.35-.65.6-.95-23.8-4.1-42.8-3.3-25.85 1.05-48.9 11l1.2.75q22.25-9.65 47.8-10.7 18.35-.7 42.1 3.2z" id="cH"/><path fill="url(#ab)" d="M246.85 820.75l1.15-.8q-18.9-4.2-35.05-4.75-21.7-.55-41.6 5.15l1.55.65q19.2-5.3 39.95-4.75 15.7.55 34 4.5z" id="cI"/><path fill="url(#ac)" d="M180.1 789.85q-2.25-.35-2.9-1.9-.7-1.6.55-3.85-8.35 10.05-14.55 19.65-5 7.8-1.45 11.55 2.25 2.45 14.6 7.1l1.7.55v-.05q-1.6-1.85-1.1-3.95.55-2.2 2.95-2.4-2.05-1.35-1.7-4.1.3-2.85 2.9-3.45-2-1.15-1.9-3.15.05-2 2.2-3.2-1.9-.75-2.15-2.6-.3-2.05 1.8-3.65-2.15-.3-2.7-2.5-.6-2.4 1.75-4.05z" id="cJ"/><path fill="url(#ad)" d="M231.4 744.25q-.15.7 0 1.45 5.15-4.8 11.3-8.9 5.1-3.45 9.8-5.65-1.2-.05-2.45 0-10.4 5.5-18.65 13.1z" id="cK"/><path fill="url(#ae)" d="M238.1 753.35q-1.55.45-2.2 1.3 11.15-4.2 26.85-8.7l-.2-1.05q-13.05 3.6-25.35 8.1l.9.35z" id="cL"/><path fill="url(#af)" d="M238.2 759.75q-.9.25-1.8.8 12.3-3.85 27.25-7.15-.1-.35-.1-1.05-13.4 2.85-26.65 6.9 1.1.5 1.3.5z" id="cM"/><path fill="url(#ag)" d="M238 765.95q-1.4.3-2.25 1.3 13.85-3.55 28.1-5.75v-1.1q-13.7 2.15-26.55 5.35l.7.2z" id="cN"/><path fill="url(#ah)" d="M237.55 773.15q-1.15.2-2.05 1 13.1-2.55 28.15-3.95l.05-1.1q-14.55 1.35-26.85 3.7l.7.35z" id="cO"/><path fill="url(#ai)" d="M236.7 780.75q-1.1.35-2.1.9 12.9-1.75 28.3-2.25 0-.1.15-1.1-14.65.5-27 2.05l.65.4z" id="cP"/><path fill="url(#aj)" d="M235.4 789.35l-.9.2q12.45-.9 27.25-.3l.15-1.05q-15.3-.5-27.8.35l1.3.8z" id="cQ"/><path fill="url(#ak)" d="M259.8 799.65l.25-1q-14.6-1.55-27.25-1.55l.9.6q-1.35.1-2.1.5 12.75-.15 28.2 1.45z" id="cR"/><path fill="url(#al)" d="M256 810.45q.35-.65.6-.95-14.6-2.45-26.25-3.1l.6.6q-1.85-.2-3.7.25 12.1.55 28.75 3.2z" id="cS"/><path fill="url(#am)" d="M246.85 820.75l1.15-.8q-12.8-2.8-23.15-3.9l1 1q-1.4-.25-3.1-.15 10.65 1.05 24.1 3.85z" id="cT"/><path fill="url(#an)" d="M232.95 736.85q-1.4 2.05-2.15 4.75-.6 2.3-.3 4.9.45 2.5 2.1 4.45 1.6 1.7 3.65 2.45-.7.5-1.2 1.25-.55.8-.55 1.95.1 1.15.7 1.9.45.65 1.3 1.25-1.15.65-1.6 1.5-.45.8-.35 1.9.1.85.65 1.65.4.65 1.05 1.15-.8.55-1.25 1.15-.7 1-.8 2.3 0 1.2.55 2.3.75.95 1.25 1.3-1 .6-1.25.95-.95 1.05-1.05 2.5-.15 1.4.5 2.65.5.85 1.05 1.45-1.4.65-2.2 1.65-1 1.25-1 2.7-.15 1.35.55 2.7.45.95 1.25 1.5-1.4.6-2.25 1.45-.95 1.15-1.1 2.6-.1 1.55.5 2.65.45.9 1.1 1.55-1.45.35-2.5 1.4-.9 1.1-1.15 1.9-.45 1.05-.3 2.25.1 1.75 1.3 3.35-2.5.15-3.95 1.25-1.5.95-2.2 2.65-.65 1.55-.4 3.25.35 1.65 1.2 2.8-2.7 0-4.6.95-1.5.75-2.65 2.2-1.05 1.5-1.25 3.2-.3 2 .5 4.25l1.45-.1q-.95-1.9-.65-4 .25-1.55 1-2.55.8-1.25 2.2-1.85 2.3-1.05 5.65-.65.45.1.65-.35.2-.5-.2-.8-1.65-1.3-2-3.25-.25-1.5.25-2.6.65-1.4 1.75-2.1 1.8-1.25 4.65-.9.45.05.65-.35.2-.4-.1-.75-1.85-1.85-1.95-3.75-.1-.8.2-1.7.2-.65.85-1.4 1.35-1.3 3.25-1.35.45-.05.55-.55.1-.5-.35-.7-1.05-.5-1.8-1.85-.4-1-.35-1.95.2-1.15.8-1.85 1.1-1.2 2.95-1.45.45-.1.5-.65 0-.5-.4-.65-1.15-.45-1.9-1.75-.5-.95-.45-2 0-1.05.75-1.95.95-1.2 2.8-1.6.45-.05.5-.5.05-.45-.35-.7-1-.45-1.65-1.65-.5-1.05-.35-1.95.1-1.1.7-1.8.75-.75 2-1.1.45-.1.45-.6.05-.45-.35-.6-1.35-.45-1.9-1.5-.4-.7-.4-1.6.1-1 .55-1.5.75-.95 2.15-1.4.45-.1.4-.65-.05-.5-.5-.55-1.15-.15-1.9-1.25-.35-.45-.35-1.05-.15-.45.15-1.1.55-1 2.35-1.5.45-.1.45-.65t-.45-.65q-1.35-.3-2.1-1.3-.4-.7-.4-1.2-.15-.65.3-1.25.55-.85 2.15-1.45.4-.1.4-.6t-.4-.6q-3.05-.7-4.7-2.6-1.4-1.55-1.8-3.8-.3-2.25.25-4.35 1-3.85 3.6-6.2l.1-.2-2.8 1.3z" id="cU"/><path fill="#E8F2D9" d="M251.2 784q0-1-.75-1.85-.85-.75-1.85-.75-1.15 0-1.8.8-.8.7-.8 1.8 0 1.15.8 1.8.65.8 1.8.8 1.05 0 1.85-.8.75-.65.75-1.8m-1.15 0q0 .65-.45 1-.35.45-1 .45-.55 0-1-.45-.45-.45-.45-1 0-.65.45-1 .4-.45 1-.45.7 0 1 .45.45.3.45 1z" id="cV"/><path fill="#E4F0D2" d="M249.3 791.8q-.7-.8-1.8-.8t-1.8.8q-.8.65-.8 1.8 0 1.05.8 1.85.75.75 1.8.75t1.8-.75q.8-.8.8-1.85 0-1.15-.8-1.8m-.8.8q.45.4.45 1 0 .7-.45 1-.35.45-1 .45-.55 0-1-.45-.45-.3-.45-1 0-.6.45-1 .35-.45 1-.45.55 0 1 .45z" id="cW"/><path fill="#E4F0D2" d="M245.35 801.1h-.1q-.85 0-1.4.65-.6.6-.6 1.4 0 .85.6 1.45.5.65 1.4.65h.1q.8 0 1.45-.65.55-.55.55-1.45 0-.85-.55-1.4-.55-.65-1.45-.65m-.85 1.25q.35-.35.75-.35h.1q.35 0 .8.35.3.5.3.8 0 .4-.3.8-.45.35-.8.35h-.1q-.4 0-.75-.35-.3-.25-.3-.8 0-.5.3-.8z" id="cX"/><path fill="#DDECC8" d="M247.35 775.35q0 .8.65 1.55.75.65 1.6.65.95 0 1.5-.65.65-.6.65-1.55 0-.95-.65-1.55-.65-.65-1.5-.65-.75 0-1.6.65-.65.75-.65 1.55m1.4-.85q.35-.35.85-.35t.85.35q.35.35.35.85 0 .55-.35.9t-.85.35q-.5 0-.85-.35-.4-.4-.4-.9 0-.45.4-.85z" id="cY"/><path fill="#D9EABD" d="M251.55 765.95q-.75-.6-1.5-.6-.9 0-1.45.65-.65.65-.65 1.45 0 .8.65 1.45.55.65 1.45.65.75 0 1.5-.65.55-.55.55-1.45 0-.85-.55-1.5m-1.5.35q.5 0 .85.35.3.5.3.8 0 .4-.3.8-.35.35-.85.35-.45 0-.8-.35-.4-.3-.4-.8 0-.4.4-.8.35-.35.8-.35z" id="cZ"/><path fill="#D9EABD" d="M248.1 759.75q0 .8.5 1.2.5.55 1.3.55.7 0 1.2-.55.5-.4.5-1.2 0-.75-.5-1.25-.7-.5-1.2-.5-.6 0-1.3.5-.5.5-.5 1.25m1.8-.95q.45 0 .65.3.25.25.25.65 0 .35-.25.7-.25.25-.65.25-.35 0-.75-.25-.3-.4-.3-.7 0-.35.3-.65.4-.3.75-.3z" id="da"/><path fill="#D9EABD" d="M249.45 751.45h-.05q-.5 0-.9.4-.35.35-.35.85t.35.95q.45.35.9.35h.05q.5 0 .85-.35.4-.4.4-.95 0-.55-.4-.85-.3-.4-.85-.4m-.05.6h.05q.3 0 .45.2.2.15.2.45 0 .35-.2.5-.15.2-.45.2h-.05q-.4 0-.45-.2-.2-.15-.2-.5 0-.3.2-.45.05-.2.45-.2z" id="db"/><path fill="#D9EABD" d="M249.1 744.9q.35-.35.35-.85t-.35-.95q-.5-.35-.95-.35-.4 0-.95.35-.35.45-.35.95 0 .5.35.85.45.45.95.45.5 0 .95-.45m-.25-.85q0 .3-.2.5-.3.2-.5.2t-.5-.2q-.2-.2-.2-.5t.2-.5q.2-.2.5-.2t.5.2q.2.2.2.5z" id="dc"/><path fill="#CCE3A9" d="M242.25 811.3q-.85-.65-1.6-.65-.8 0-1.55.65-.65.75-.65 1.6 0 .9.65 1.55t1.55.65q.85 0 1.6-.65.65-.75.65-1.55 0-.75-.65-1.6m-.7.7q.35.45.35.9 0 .5-.35.85-.45.35-.9.35-.5 0-.85-.35t-.35-.85q0-.45.35-.9.35-.35.85-.35.45 0 .9.35z" id="dd"/><path fill="#A8D16D" d="M233.85 821.1q0-.7-.55-1.25-.45-.45-1.2-.55-.75 0-1.3.55-.5.5-.5 1.25 0 .65.55 1.2h-.05q.6.5 1.3.5.6 0 1.2-.5.55-.45.55-1.2m-2.45-.75q.5-.25.7-.25.3 0 .65.25.3.4.3.75 0 .45-.3.65-.2.3-.65.3-.4 0-.7-.3-.3-.3-.3-.65 0-.25.3-.75z" id="de"/><path fill="#59A148" d="M258.75 745.5q-2.75 1.45-2.6 1.95.2.55 3.25.15 2.55-.3 3.65-.65 1.8-.55 1.35-2.05-.45-1.45-2.3-.9-1.1.35-3.35 1.5z" id="df"/><path fill="#64A848" d="M260.55 752.45q-2.6 1.1-2.45 1.6.1.5 2.9.35 2.35-.15 3.35-.35 1.7-.35 1.4-1.75-.3-1.4-1.95-1-1 .2-3.25 1.15z" id="dg"/><path fill="#67AA49" d="M260.55 760.4q-2.65 1.1-2.55 1.6.1.5 3 .4 2.35-.1 3.45-.3 1.7-.35 1.45-1.75-.3-1.35-2.05-1.05-1 .2-3.3 1.1z" id="dh"/><path fill="#6FB049" d="M263.55 768.15q-5.25 1.2-5.15 1.95.05.45 2.5.55 2.25.1 2.95-.05 1.5-.15 1.35-1.35-.1-1.25-1.65-1.1z" id="di"/><path fill="#75B449" d="M260.1 777.95q-2.4.6-2.35 1.1.05.4 2.5.65 2.05.2 2.95.15 1.5-.1 1.4-1.35-.1-1.2-1.6-1.1-.95.1-2.9.55z" id="dj"/><path fill="#7DB94A" d="M259.3 787.8q-2.5.4-2.5.9 0 .4 2.5.9 2.1.4 2.95.4 1.6 0 1.65-1.25.05-1.3-1.55-1.3-1 0-3.05.35z" id="dk"/><path fill="#7DB94A" d="M257.05 798.05q-2.5.25-2.55.7-.05.5 2.4 1.15 2.15.55 3 .55 1.55.15 1.65-1.1.05-1.3-1.45-1.45-1.35 0-3.05.15z" id="dl"/><path fill="#7DB94A" d="M253.65 809.15q-2.5-.1-2.6.35-.15.4 2.2 1.4 2 .8 2.9 1 1.5.4 1.75-.85.25-1.2-1.25-1.6-.9-.2-3-.3z" id="dm"/><path fill="#7DB94A" d="M247.3 819.6q-.75-.2-2.7-.3-2.25-.1-2.35.3-.1.4 2 1.3 1.7.7 2.6.9 1.35.25 1.6-.8.25-1.1-1.15-1.4z" id="dn"/><path fill="#BFDD96" d="M230.5 746.5l1.25-1.15q-.15-.7 0-1.45l-1.4 1.25q.05.1.15 1.35z" id="do"/><path fill="#BFDD96" d="M234.85 755q2.35-.9 3.8-1.35.1-.3 0-.6t-.35-.35h-.15q-1.3.4-1.95.7h.05q-.7.5-1.2 1.25l-.2.35z" id="dp"/><path fill="#BFDD96" d="M235.05 760.95l3.75-1.15q0-.45-.45-.7-.25 0-.5-.15-1.15.35-1.7.6l.35.2q-.75.4-1.45 1.2z" id="dq"/><path fill="#BFDD96" d="M234.75 767.45l2.8-.7.65-.25q.3-.05.4-.4.05-.35-.15-.65l-2.25.55q-.7.45-1.2 1.1-.2.35-.25.35z" id="dr"/><path fill="#BFDD96" d="M234.4 774.35l3.4-.65q.3-.15.35-.55.05-.4-.2-.6L236 773q-1 .6-1.25.95l-.35.4z" id="ds"/><path fill="#BFDD96" d="M233.4 781.8l3.65-.45q.3-.2.3-.55 0-.35-.3-.55l-1.85.25.05.05q-1 .4-1.85 1.25z" id="dt"/><path fill="#BFDD96" d="M232.6 789.7l3.4-.2q.1-.6-.35-.8l-.55-.2q-.6 0-1.8.1l.55.5q-.5.15-1.25.6z" id="du"/><path fill="#BFDD96" d="M230.25 798.2h3.8q.25-.2.25-.55 0-.3-.25-.55h-2.15l.2.25q-.95.25-1.85.85z" id="dv"/><path fill="#BFDD96" d="M225.85 807.25l5.45.25q.55-.45.1-.95l-.1-.05q-1.2-.15-2.35-.15-1.7.05-3.1.9z" id="dw"/><path fill="#BFDD96" d="M220.5 816.7q2.95.2 5.9.6.2-.5-.2-.8-.3-.2-.35-.4l-1.9-.1.15.2q-2.05 0-3.6.5z" id="dx"/><path fill="url(#ao)" d="M178.9 783.5q.25-.35 0-.7l-2.45 2.85-.1.45q-.1 1.25.25 2 .25.75 1.15 1.55l1.05.55q-.9 1.05-1.15 2.3-.05.8.1 1.6.35.95.65 1.3.55.85 1.45 1.3-.6.55-.95 1.4-.45.95-.2 2.05.05.7.7 1.8.25.35.85.8-.7.5-1.15 1.3-.5.8-.5 1.9 0 1.05.5 1.9.2.5.8 1-.95.55-1.5 1.35-.5.7-.8 1.95-.15 1.2.05 2.1.55 1.5 1.05 1.95-.75.35-1.2.7-.55.45-1 1.45-.25.85-.2 1.8 0 1.25.8 2.55.85.15 1.5.5.25-.35-.05-.65-1-1.25-1.1-2.45 0-.85.2-1.3.25-.6.65-1 .8-.6 1.65-.6.4-.05.55-.45.1-.45-.25-.7-1.05-.65-1.35-2.1-.2-.65-.1-1.55.2-.9.6-1.45.6-1.05 1.85-1.3.4-.1.45-.5.05-.4-.3-.65-.8-.5-1.3-1.25-.25-.5-.25-1.3t.35-1.35q.5-.85 1.5-1.35.35-.2.3-.6-.05-.4-.35-.55-.7-.2-1.3-.95-.45-.6-.5-1.2-.15-.6.2-1.4.35-.9 1.35-1.65.35-.25.25-.65-.15-.35-.55-.45-.95-.15-1.7-1.05-.3-.45-.45-1-.1-.75-.05-1 .1-1.4 1.6-2.4.3-.2.2-.6-.1-.4-.5-.5-1.1-.2-1.75-.65-.4-.25-.7-.9-.3-.55-.15-1.4.25-1.5 1.3-2.8z" id="dy"/><path fill="url(#ap)" d="M178.4 785.75q19.25-20.65 52.7-46.65-32.1 20-52.7 46.65z" id="dz"/><path fill="#373535" d="M152.7 784.95l.9-.6-32-53.1-.95.5 32.05 53.2z" id="dA"/><path fill="#373535" d="M123.4 735.35q-.35-.85-1.65-5.25-1.15-3.95-1.95-5.7-.65-1.2-1.45-1.9-1.1-.95-2.15-.4-.65.35-.75 1.5-.1 1 .3 1.9.8 2.05 4.05 5.75 1.65 1.9 3.6 4.1z" id="dB"/><path fill="#373535" d="M160.7 784.35l.9.6 32-53.2-.95-.5-31.95 53.1z" id="dC"/><path fill="#373535" d="M190.85 735.35q2-2.2 3.65-4.1 3.2-3.7 4-5.75.35-.95.3-1.9-.1-1.15-.75-1.5-1.05-.55-2.2.4-.85.7-1.4 1.9-.8 1.75-1.95 5.7-1.25 4.3-1.65 5.25z" id="dD"/><path fill="#AF867D" d="M161.45 789.2q.35-5.35-.45-10.6-.8-5.15-2.4-8.85v13.2l2.85 6.25z" id="dE"/><path fill="#AF867D" d="M153.3 778.6q-.85 5.35-.45 10.6l2.8-6.25v-13.2q-1.6 3.8-2.35 8.85z" id="dF"/><path fill="#373535" d="M160.65 788.45q-1.2 1.25-1.2 3 0 1.7 1.2 2.9t2.9 1.2q1.75 0 2.95-1.2 1.25-1.2 1.25-2.9 0-1.75-1.25-3-1.2-1.2-2.95-1.2-1.7 0-2.9 1.2z" id="dG"/><path fill="url(#aq)" d="M161.15 789q-1 1.05-1 2.45 0 1.4 1 2.35 1 1 2.4 1 1.45 0 2.45-1 1-.95 1-2.35 0-1.45-1-2.45-1.05-1.05-2.45-1.05-1.4 0-2.4 1.05z" id="dH"/><path fill="#373535" d="M150.65 787.25q-1.65 0-2.85 1.2-1.25 1.25-1.25 3 0 1.7 1.25 2.9 1.2 1.2 2.85 1.2 1.75 0 2.95-1.2 1.25-1.2 1.25-2.9 0-1.75-1.25-3-1.2-1.2-2.95-1.2z" id="dI"/><path fill="url(#ar)" d="M150.65 787.95q-1.4 0-2.35 1.05-1 1-1 2.45 0 1.4 1 2.35.95 1 2.35 1 1.45 0 2.45-1 1-.95 1-2.35 0-1.45-1-2.45-1.05-1.05-2.45-1.05z" id="dJ"/><path fill="#9BCC5A" d="M148.2 790.35q0 .85.9.85.3 0 .6-.25.25-.25.25-.6t-.25-.6q-.3-.25-.6-.25-.35 0-.65.25-.25.25-.25.6z" id="dK"/><path fill="#9BCC5A" d="M164.35 790.35q0 .85.85.85.35 0 .6-.25.3-.25.3-.6t-.3-.6q-.25-.25-.6-.25-.85 0-.85.85z" id="dL"/><path fill="url(#as)" d="M152.2 783.65q-1.3 1.3-1.3 3.15v9.65q0 1.8 1.3 3.1t3.15 1.3h3.6q1.85 0 3.1-1.3 1.3-1.3 1.3-3.1v-9.65q0-1.85-1.3-3.15-1.25-1.3-3.1-1.3h-3.6q-1.85 0-3.15 1.3z" id="dM"/><path fill="url(#at)" d="M163 893.5q7.15-23.65 0-48.8h-12.5q-5.6 26.75 0 48.8.65 2.7 2.15 4.35 1.7 1.85 4.05 1.85 4.3 0 6.3-6.2z" id="dN"/><path fill="url(#au)" d="M154.65 870.75q.9-19.7 3.3-28.85l-3.95-.15q-2.7 14.15-1.8 32.5.9 18.4 4.6 23-3.2-4.6-2.15-26.5z" id="dO"/><path fill="url(#av)" d="M172.4 821.6q0-10.9-4.5-18.65-4.45-7.7-10.75-7.7-6.35 0-10.8 7.7-4.45 7.75-4.45 18.65 0 10.85 4.45 18.55 4.5 7.75 10.8 7.75 6.25 0 10.75-7.75 4.5-7.7 4.5-18.55z" id="dP"/><path fill="url(#aw)" d="M148 835.4q.95 3.05 2.35 5.35 1.5 2.55 2.55 2.3.9-.2 1.2-.7.55-1-.35-3.4-2-5.6-2.45-7-2.7-9.2-1.8-19.15 1.1-11.9 7.35-16.05-8.75 3.35-10.65 16.25-1.65 10.8 1.8 22.4z" id="dQ"/></defs><use xlink:href="#ax"/><use xlink:href="#ay" transform="matrix(1.29208 0 0 1.29208 -61.051 -868.305)"/><use xlink:href="#az" transform="matrix(1.29208 0 0 1.29208 -61.051 -868.305)"/><use xlink:href="#aA" transform="matrix(1.29208 0 0 1.29208 -61.051 -868.305)"/><use xlink:href="#aB" transform="matrix(1.29208 0 0 1.29208 -61.051 -868.305)"/><use xlink:href="#aC" transform="matrix(1.29208 0 0 1.29208 -61.051 -868.305)"/><use xlink:href="#aD" transform="matrix(1.29208 0 0 1.29208 -61.051 -868.305)"/><use xlink:href="#aE" transform="matrix(1.29208 0 0 1.29208 -61.051 -868.305)"/><use xlink:href="#aF" transform="matrix(1.29208 0 0 1.29208 -61.051 -868.305)"/><use xlink:href="#aG" transform="matrix(1.29208 0 0 1.29208 -61.051 -868.305)"/><use xlink:href="#aH" transform="matrix(1.29208 0 0 1.29208 -61.051 -868.305)"/><use xlink:href="#aI" transform="matrix(1.29208 0 0 1.29208 -61.051 -868.305)"/><use xlink:href="#aJ" transform="matrix(1.29208 0 0 1.29208 -61.051 -868.305)"/><use xlink:href="#aK" transform="matrix(1.29208 0 0 1.29208 -61.051 -868.305)"/><use xlink:href="#aL" transform="matrix(1.29208 0 0 1.29208 -61.051 -868.305)"/><use xlink:href="#aM" transform="matrix(1.29208 0 0 1.29208 -61.051 -868.305)"/><use xlink:href="#aN" transform="matrix(1.29208 0 0 1.29208 -61.051 -868.305)"/><use xlink:href="#aO" transform="matrix(1.29208 0 0 1.29208 -61.051 -868.305)"/><use xlink:href="#aP" transform="matrix(1.29208 0 0 1.29208 -61.051 -868.305)"/><use xlink:href="#aQ" transform="matrix(1.29208 0 0 1.29208 -61.051 -868.305)"/><use xlink:href="#aR" transform="matrix(1.29208 0 0 1.29208 -61.051 -868.305)"/><use xlink:href="#aS" transform="matrix(1.29208 0 0 1.29208 -61.051 -868.305)"/><use xlink:href="#aT" transform="matrix(1.29208 0 0 1.29208 -61.051 -868.305)"/><use xlink:href="#aU" transform="matrix(1.29208 0 0 1.29208 -61.051 -868.305)"/><use xlink:href="#aV" transform="matrix(1.29208 0 0 1.29208 -61.051 -868.305)"/><use xlink:href="#aW" transform="matrix(1.29208 0 0 1.29208 -61.051 -868.305)"/><use xlink:href="#aX" transform="matrix(1.29208 0 0 1.29208 -61.051 -868.305)"/><use xlink:href="#aY" transform="matrix(1.29208 0 0 1.29208 -61.051 -868.305)"/><use xlink:href="#aZ" transform="matrix(1.29208 0 0 1.29208 -61.051 -868.305)"/><use xlink:href="#ba" transform="matrix(1.29208 0 0 1.29208 -61.051 -868.305)"/><use xlink:href="#bb" transform="matrix(1.29208 0 0 1.29208 -61.051 -868.305)"/><use xlink:href="#bc" transform="matrix(1.29208 0 0 1.29208 -61.051 -868.305)"/><use xlink:href="#bd" transform="matrix(1.29208 0 0 1.29208 -61.051 -868.305)"/><use xlink:href="#be" transform="matrix(1.29208 0 0 1.29208 -61.051 -868.305)"/><use xlink:href="#bf" transform="matrix(1.29208 0 0 1.29208 -61.051 -868.305)"/><use xlink:href="#bg" transform="matrix(1.29208 0 0 1.29208 -61.051 -868.305)"/><use xlink:href="#bh" transform="matrix(1.29208 0 0 1.29208 -61.051 -868.305)"/><use xlink:href="#bi" transform="matrix(1.29208 0 0 1.29208 -61.051 -868.305)"/><use xlink:href="#bj" transform="matrix(1.29208 0 0 1.29208 -61.051 -868.305)"/><use xlink:href="#bk" transform="matrix(1.29208 0 0 1.29208 -61.051 -868.305)"/><use xlink:href="#bl" transform="matrix(1.29208 0 0 1.29208 -61.051 -868.305)"/><use xlink:href="#bm" transform="matrix(1.29208 0 0 1.29208 -61.051 -868.305)"/><use xlink:href="#bn" transform="matrix(1.29208 0 0 1.29208 -61.051 -868.305)"/><use xlink:href="#bo" transform="matrix(1.29208 0 0 1.29208 -61.051 -868.305)"/><use xlink:href="#bp" transform="matrix(1.29208 0 0 1.29208 -61.051 -868.305)"/><use xlink:href="#bq" transform="matrix(1.29208 0 0 1.29208 -61.051 -868.305)"/><use xlink:href="#br" transform="matrix(1.29208 0 0 1.29208 -61.051 -868.305)"/><use xlink:href="#bs" transform="matrix(1.29208 0 0 1.29208 -61.051 -868.305)"/><use xlink:href="#bt" transform="matrix(1.29208 0 0 1.29208 -61.051 -868.305)"/><use xlink:href="#bu" transform="matrix(1.29208 0 0 1.29208 -61.051 -868.305)"/><use xlink:href="#bv" transform="matrix(1.29208 0 0 1.29208 -61.051 -868.305)"/><use xlink:href="#bw" transform="matrix(1.29208 0 0 1.29208 -61.051 -868.305)"/><use xlink:href="#bx" transform="matrix(1.29208 0 0 1.29208 -61.051 -868.305)"/><use xlink:href="#by" transform="matrix(1.29208 0 0 1.29208 -61.051 -868.305)"/><use xlink:href="#bz" transform="matrix(1.29208 0 0 1.29208 -61.051 -868.305)"/><use xlink:href="#bA" transform="matrix(1.29208 0 0 1.29208 -61.051 -868.305)"/><use xlink:href="#bB" transform="matrix(1.29208 0 0 1.29208 -61.051 -868.305)"/><use xlink:href="#bC" transform="matrix(1.29208 0 0 1.29208 -61.051 -868.305)"/><use xlink:href="#bD" transform="matrix(1.29208 0 0 1.29208 -61.051 -868.305)"/><use xlink:href="#bE" transform="matrix(1.29208 0 0 1.29208 -61.051 -868.305)"/><use xlink:href="#bF" transform="matrix(1.29208 0 0 1.29208 -61.051 -868.305)"/><use xlink:href="#bG" transform="matrix(1.29208 0 0 1.29208 -61.051 -868.305)"/><use xlink:href="#bH" transform="matrix(1.29208 0 0 1.29208 -61.051 -868.305)"/><use xlink:href="#bI" transform="matrix(1.29208 0 0 1.29208 -61.051 -868.305)"/><use xlink:href="#bJ" transform="matrix(1.29208 0 0 1.29208 -61.051 -868.305)"/><use xlink:href="#bK" transform="matrix(1.29208 0 0 1.29208 -61.051 -868.305)"/><use xlink:href="#bL" transform="matrix(1.29208 0 0 1.29208 -61.051 -868.305)"/><use xlink:href="#bM" transform="matrix(1.29208 0 0 1.29208 -61.051 -868.305)"/><use xlink:href="#bN" transform="matrix(1.29208 0 0 1.29208 -61.051 -868.305)"/><use xlink:href="#bO" transform="matrix(1.29208 0 0 1.29208 -61.051 -868.305)"/><use xlink:href="#bP" transform="matrix(1.29208 0 0 1.29208 -61.051 -868.305)"/><use xlink:href="#bQ" transform="matrix(1.29208 0 0 1.29208 -61.051 -868.305)"/><use xlink:href="#bR" transform="matrix(1.29208 0 0 1.29208 -61.051 -868.305)"/><use xlink:href="#bS" transform="matrix(1.29208 0 0 1.29208 -61.051 -868.305)"/><use xlink:href="#bT" transform="matrix(1.29208 0 0 1.29208 -61.051 -868.305)"/><use xlink:href="#bU" transform="matrix(1.29208 0 0 1.29208 -61.051 -868.305)"/><use xlink:href="#bV" transform="matrix(1.29208 0 0 1.29208 -61.051 -868.305)"/><use xlink:href="#bW" transform="matrix(1.29208 0 0 1.29208 -61.051 -868.305)"/><use xlink:href="#bX" transform="matrix(1.29208 0 0 1.29208 -61.051 -868.305)"/><use xlink:href="#bY" transform="matrix(1.29208 0 0 1.29208 -61.051 -868.305)"/><use xlink:href="#bZ" transform="matrix(1.29208 0 0 1.29208 -61.051 -868.305)"/><use xlink:href="#ca" transform="matrix(1.29208 0 0 1.29208 -61.051 -868.305)"/><use xlink:href="#cb" transform="matrix(1.29208 0 0 1.29208 -61.051 -868.305)"/><use xlink:href="#cc" transform="matrix(1.29208 0 0 1.29208 -61.051 -868.305)"/><use xlink:href="#cd" transform="matrix(1.29208 0 0 1.29208 -61.051 -868.305)"/><use xlink:href="#ce" transform="matrix(1.29208 0 0 1.29208 -61.051 -868.305)"/><use xlink:href="#cf" transform="matrix(1.29208 0 0 1.29208 -61.051 -868.305)"/><use xlink:href="#cg" transform="matrix(1.29208 0 0 1.29208 -61.051 -868.305)"/><use xlink:href="#ch" transform="matrix(1.29208 0 0 1.29208 -61.051 -868.305)"/><use xlink:href="#ci" transform="matrix(1.29208 0 0 1.29208 -61.051 -868.305)"/><use xlink:href="#cj" transform="matrix(1.29208 0 0 1.29208 -61.051 -868.305)"/><use xlink:href="#ck" transform="matrix(1.29208 0 0 1.29208 -61.051 -868.305)"/><use xlink:href="#cl" transform="matrix(1.29208 0 0 1.29208 -61.051 -868.305)"/><use xlink:href="#cm" transform="matrix(1.29208 0 0 1.29208 -61.051 -868.305)"/><use xlink:href="#cn" transform="matrix(1.29208 0 0 1.29208 -61.051 -868.305)"/><use xlink:href="#co" transform="matrix(1.29208 0 0 1.29208 -61.051 -868.305)"/><use xlink:href="#cp" transform="matrix(1.29208 0 0 1.29208 -61.051 -868.305)"/><use xlink:href="#cq" transform="matrix(1.29208 0 0 1.29208 -61.051 -868.305)"/><use xlink:href="#cr" transform="matrix(1.29208 0 0 1.29208 -61.051 -868.305)"/><use xlink:href="#cs" transform="matrix(1.29208 0 0 1.29208 -61.051 -868.305)"/><use xlink:href="#ct" transform="matrix(1.29208 0 0 1.29208 -61.051 -868.305)"/><use xlink:href="#cu" transform="matrix(1.29208 0 0 1.29208 -61.051 -868.305)"/><use xlink:href="#cv" transform="matrix(1.29208 0 0 1.29208 -61.051 -868.305)"/><use xlink:href="#cw" transform="matrix(1.29208 0 0 1.29208 -61.051 -868.305)"/><use xlink:href="#cx" transform="matrix(1.29208 0 0 1.29208 -61.051 -868.305)"/><use xlink:href="#cy" transform="matrix(1.29208 0 0 1.29208 -61.051 -868.305)"/><use xlink:href="#cz" transform="matrix(1.29208 0 0 1.29208 -61.051 -868.305)"/><use xlink:href="#cA" transform="matrix(1.29208 0 0 1.29208 -61.051 -868.305)"/><use xlink:href="#cB" transform="matrix(1.29208 0 0 1.29208 -61.051 -868.305)"/><use xlink:href="#cC" transform="matrix(1.29208 0 0 1.29208 -61.051 -868.305)"/><use xlink:href="#cD" transform="matrix(1.29208 0 0 1.29208 -61.051 -868.305)"/><use xlink:href="#cE" transform="matrix(1.29208 0 0 1.29208 -61.051 -868.305)"/><use xlink:href="#cF" transform="matrix(1.29208 0 0 1.29208 -61.051 -868.305)"/><use xlink:href="#cG" transform="matrix(1.29208 0 0 1.29208 -61.051 -868.305)"/><use xlink:href="#cH" transform="matrix(1.29208 0 0 1.29208 -61.051 -868.305)"/><use xlink:href="#cI" transform="matrix(1.29208 0 0 1.29208 -61.051 -868.305)"/><use xlink:href="#cJ" transform="matrix(1.29208 0 0 1.29208 -61.051 -868.305)"/><use xlink:href="#cK" transform="matrix(1.29208 0 0 1.29208 -61.051 -868.305)"/><use xlink:href="#cL" transform="matrix(1.29208 0 0 1.29208 -61.051 -868.305)"/><use xlink:href="#cM" transform="matrix(1.29208 0 0 1.29208 -61.051 -868.305)"/><use xlink:href="#cN" transform="matrix(1.29208 0 0 1.29208 -61.051 -868.305)"/><use xlink:href="#cO" transform="matrix(1.29208 0 0 1.29208 -61.051 -868.305)"/><use xlink:href="#cP" transform="matrix(1.29208 0 0 1.29208 -61.051 -868.305)"/><use xlink:href="#cQ" transform="matrix(1.29208 0 0 1.29208 -61.051 -868.305)"/><use xlink:href="#cR" transform="matrix(1.29208 0 0 1.29208 -61.051 -868.305)"/><use xlink:href="#cS" transform="matrix(1.29208 0 0 1.29208 -61.051 -868.305)"/><use xlink:href="#cT" transform="matrix(1.29208 0 0 1.29208 -61.051 -868.305)"/><use xlink:href="#cU" transform="matrix(1.29208 0 0 1.29208 -61.051 -868.305)"/><use xlink:href="#cV" transform="matrix(1.29208 0 0 1.29208 -61.051 -868.305)"/><use xlink:href="#cW" transform="matrix(1.29208 0 0 1.29208 -61.051 -868.305)"/><use xlink:href="#cX" transform="matrix(1.29208 0 0 1.29208 -61.051 -868.305)"/><use xlink:href="#cY" transform="matrix(1.29208 0 0 1.29208 -61.051 -868.305)"/><use xlink:href="#cZ" transform="matrix(1.29208 0 0 1.29208 -61.051 -868.305)"/><use xlink:href="#da" transform="matrix(1.29208 0 0 1.29208 -61.051 -868.305)"/><use xlink:href="#db" transform="matrix(1.29208 0 0 1.29208 -61.051 -868.305)"/><use xlink:href="#dc" transform="matrix(1.29208 0 0 1.29208 -61.051 -868.305)"/><use xlink:href="#dd" transform="matrix(1.29208 0 0 1.29208 -61.051 -868.305)"/><use xlink:href="#de" transform="matrix(1.29208 0 0 1.29208 -61.051 -868.305)"/><use xlink:href="#df" transform="matrix(1.29208 0 0 1.29208 -61.051 -868.305)"/><use xlink:href="#dg" transform="matrix(1.29208 0 0 1.29208 -61.051 -868.305)"/><use xlink:href="#dh" transform="matrix(1.29208 0 0 1.29208 -61.051 -868.305)"/><use xlink:href="#di" transform="matrix(1.29208 0 0 1.29208 -61.051 -868.305)"/><use xlink:href="#dj" transform="matrix(1.29208 0 0 1.29208 -61.051 -868.305)"/><use xlink:href="#dk" transform="matrix(1.29208 0 0 1.29208 -61.051 -868.305)"/><use xlink:href="#dl" transform="matrix(1.29208 0 0 1.29208 -61.051 -868.305)"/><use xlink:href="#dm" transform="matrix(1.29208 0 0 1.29208 -61.051 -868.305)"/><use xlink:href="#dn" transform="matrix(1.29208 0 0 1.29208 -61.051 -868.305)"/><use xlink:href="#do" transform="matrix(1.29208 0 0 1.29208 -61.051 -868.305)"/><use xlink:href="#dp" transform="matrix(1.29208 0 0 1.29208 -61.051 -868.305)"/><use xlink:href="#dq" transform="matrix(1.29208 0 0 1.29208 -61.051 -868.305)"/><use xlink:href="#dr" transform="matrix(1.29208 0 0 1.29208 -61.051 -868.305)"/><use xlink:href="#ds" transform="matrix(1.29208 0 0 1.29208 -61.051 -868.305)"/><use xlink:href="#dt" transform="matrix(1.29208 0 0 1.29208 -61.051 -868.305)"/><use xlink:href="#du" transform="matrix(1.29208 0 0 1.29208 -61.051 -868.305)"/><use xlink:href="#dv" transform="matrix(1.29208 0 0 1.29208 -61.051 -868.305)"/><use xlink:href="#dw" transform="matrix(1.29208 0 0 1.29208 -61.051 -868.305)"/><use xlink:href="#dx" transform="matrix(1.29208 0 0 1.29208 -61.051 -868.305)"/><use xlink:href="#dy" transform="matrix(1.29208 0 0 1.29208 -61.051 -868.305)"/><use xlink:href="#dz" transform="matrix(1.29208 0 0 1.29208 -61.051 -868.305)"/><use xlink:href="#dA" transform="matrix(1.29208 0 0 1.29208 -61.051 -868.305)"/><use xlink:href="#dB" transform="matrix(1.29208 0 0 1.29208 -61.051 -868.305)"/><use xlink:href="#dC" transform="matrix(1.29208 0 0 1.29208 -61.051 -868.305)"/><use xlink:href="#dD" transform="matrix(1.29208 0 0 1.29208 -61.051 -868.305)"/><use xlink:href="#dE" transform="matrix(1.29208 0 0 1.29208 -61.051 -868.305)"/><use xlink:href="#dF" transform="matrix(1.29208 0 0 1.29208 -61.051 -868.305)"/><use xlink:href="#dG" transform="matrix(1.29208 0 0 1.29208 -61.051 -868.305)"/><use xlink:href="#dH" transform="matrix(1.29208 0 0 1.29208 -61.051 -868.305)"/><use xlink:href="#dI" transform="matrix(1.29208 0 0 1.29208 -61.051 -868.305)"/><use xlink:href="#dJ" transform="matrix(1.29208 0 0 1.29208 -61.051 -868.305)"/><use xlink:href="#dK" transform="matrix(1.29208 0 0 1.29208 -61.051 -868.305)"/><use xlink:href="#dL" transform="matrix(1.29208 0 0 1.29208 -61.051 -868.305)"/><use xlink:href="#dM" transform="matrix(1.29208 0 0 1.29208 -61.051 -868.305)"/><use xlink:href="#dN" transform="matrix(1.29208 0 0 1.29208 -61.051 -868.305)"/><use xlink:href="#dO" transform="matrix(1.29208 0 0 1.29208 -61.051 -868.305)"/><use xlink:href="#dP" transform="matrix(1.29208 0 0 1.29208 -61.051 -868.305)"/><use xlink:href="#dQ" transform="matrix(1.29208 0 0 1.29208 -61.051 -868.305)"/></svg>