<svg xmlns="http://www.w3.org/2000/svg" xmlns:xlink="http://www.w3.org/1999/xlink" preserveAspectRatio="none" width="284" height="320"><defs><linearGradient id="a" gradientUnits="userSpaceOnUse" x1="189.463" y1="495.85" x2="164.338" y2="495.85" spreadMethod="pad"><stop offset="0%" stop-color="#E6D5CD"/><stop offset="100%" stop-color="#BE9286"/></linearGradient><linearGradient id="b" gradientUnits="userSpaceOnUse" x1="161.475" y1="489.2" x2="191.225" y2="489.2" spreadMethod="pad"><stop offset="0%" stop-color="#A5685C"/><stop offset="100%" stop-color="#DAC0B6"/></linearGradient><linearGradient id="c" gradientUnits="userSpaceOnUse" x1="60.487" y1="495.85" x2="85.612" y2="495.85" spreadMethod="pad"><stop offset="0%" stop-color="#E6D5CD"/><stop offset="100%" stop-color="#BE9286"/></linearGradient><linearGradient id="d" gradientUnits="userSpaceOnUse" x1="88.475" y1="489.2" x2="58.725" y2="489.2" spreadMethod="pad"><stop offset="0%" stop-color="#A5685C"/><stop offset="100%" stop-color="#DAC0B6"/></linearGradient><linearGradient id="e" gradientUnits="userSpaceOnUse" x1="105" y1="601.613" x2="105.9" y2="594.288" spreadMethod="pad"><stop offset="0%" stop-color="#F7E148"/><stop offset="100%" stop-color="#FFF"/></linearGradient><linearGradient id="f" gradientUnits="userSpaceOnUse" x1="123.45" y1="599.05" x2="103.65" y2="599.05" spreadMethod="pad"><stop offset="0%" stop-color="#A06054"/><stop offset="100%" stop-color="#C59C90"/></linearGradient><linearGradient id="g" gradientUnits="userSpaceOnUse" x1="106.063" y1="603.6" x2="106.938" y2="596.5" spreadMethod="pad"><stop offset="0%" stop-color="#CEAEA2"/><stop offset="100%" stop-color="#FFF"/></linearGradient><linearGradient id="h" gradientUnits="userSpaceOnUse" x1="148.45" y1="599.05" x2="128.65" y2="599.05" spreadMethod="pad"><stop offset="0%" stop-color="#A06054"/><stop offset="100%" stop-color="#C59C90"/></linearGradient><linearGradient id="i" gradientUnits="userSpaceOnUse" x1="130.713" y1="603.55" x2="131.588" y2="596.45" spreadMethod="pad"><stop offset="0%" stop-color="#CEAEA2"/><stop offset="100%" stop-color="#FFF"/></linearGradient><linearGradient id="j" gradientUnits="userSpaceOnUse" x1="125" y1="571.5" x2="125" y2="544.7" spreadMethod="pad"><stop offset="0%" stop-color="#AF7A6C"/><stop offset="100%" stop-color="#914940"/></linearGradient><linearGradient id="k" gradientUnits="userSpaceOnUse" x1="125.1" y1="497.55" x2="125.1" y2="515.25" spreadMethod="pad"><stop offset="0%" stop-color="#B58275"/><stop offset="100%" stop-color="#C59C90"/></linearGradient><linearGradient id="l" gradientUnits="userSpaceOnUse" x1="125.15" y1="519.5" x2="125.15" y2="464" spreadMethod="pad"><stop offset="0%" stop-color="#D6B8AF"/><stop offset="100%" stop-color="#CEAEA2"/></linearGradient><linearGradient id="m" gradientUnits="userSpaceOnUse" x1="112.475" y1="499.65" x2="96.925" y2="499.65" spreadMethod="pad"><stop offset="0%" stop-color="#A06054"/><stop offset="100%" stop-color="#76211D"/></linearGradient><linearGradient id="n" gradientUnits="userSpaceOnUse" x1="104" y1="501.512" x2="104" y2="512.788" spreadMethod="pad"><stop offset="0%" stop-color="#68740E"/><stop offset="100%" stop-color="#96A718"/></linearGradient><linearGradient id="o" gradientUnits="userSpaceOnUse" x1="99.487" y1="511" x2="107.712" y2="511" spreadMethod="pad"><stop offset="0%" stop-color="#A4B61B"/><stop offset="49.02%" stop-color="#CAE024"/><stop offset="100%" stop-color="#A4B61B"/></linearGradient><linearGradient id="p" gradientUnits="userSpaceOnUse" x1="137.45" y1="499.65" x2="155.05" y2="499.65" spreadMethod="pad"><stop offset="0%" stop-color="#A06054"/><stop offset="100%" stop-color="#76211D"/></linearGradient><linearGradient id="q" gradientUnits="userSpaceOnUse" x1="146.2" y1="501.512" x2="146.2" y2="512.788" spreadMethod="pad"><stop offset="0%" stop-color="#68740E"/><stop offset="100%" stop-color="#96A718"/></linearGradient><linearGradient id="r" gradientUnits="userSpaceOnUse" x1="142.487" y1="511" x2="150.713" y2="511" spreadMethod="pad"><stop offset="0%" stop-color="#A4B61B"/><stop offset="49.02%" stop-color="#CAE024"/><stop offset="100%" stop-color="#A4B61B"/></linearGradient><linearGradient id="s" gradientUnits="userSpaceOnUse" x1="125.05" y1="530.55" x2="125.05" y2="538.95" spreadMethod="pad"><stop offset="0%" stop-color="#ECDFD9"/><stop offset="100%" stop-color="#B8897D"/></linearGradient><linearGradient id="t" gradientUnits="userSpaceOnUse" x1="121.25" y1="535.525" x2="121.25" y2="530.975" spreadMethod="pad"><stop offset="0%" stop-color="#A06054"/><stop offset="100%" stop-color="#3F0402"/></linearGradient><linearGradient id="u" gradientUnits="userSpaceOnUse" x1="129" y1="535.525" x2="129" y2="530.975" spreadMethod="pad"><stop offset="0%" stop-color="#A06054"/><stop offset="100%" stop-color="#3F0402"/></linearGradient><linearGradient id="v" gradientUnits="userSpaceOnUse" x1="125.1" y1="528.525" x2="125.1" y2="521.675" spreadMethod="pad"><stop offset="0%" stop-color="#FFF"/><stop offset="100%" stop-color="#E6D5CD"/></linearGradient><linearGradient id="w" gradientUnits="userSpaceOnUse" x1="83.912" y1="452.038" x2="90.088" y2="438.163" spreadMethod="pad"><stop offset="0%" stop-color="#AA7064"/><stop offset="100%" stop-color="#D6B8AF"/></linearGradient><linearGradient id="x" gradientUnits="userSpaceOnUse" x1="102.788" y1="467.712" x2="111.513" y2="453.188" spreadMethod="pad"><stop offset="0%" stop-color="#C59C90"/><stop offset="100%" stop-color="#E6D5CD"/></linearGradient><linearGradient id="y" gradientUnits="userSpaceOnUse" x1="98.2" y1="464.975" x2="107" y2="450.325" spreadMethod="pad"><stop offset="0%" stop-color="#C59C90"/><stop offset="100%" stop-color="#E6D5CD"/></linearGradient><linearGradient id="z" gradientUnits="userSpaceOnUse" x1="93.388" y1="462.063" x2="102.413" y2="447.038" spreadMethod="pad"><stop offset="0%" stop-color="#C59C90"/><stop offset="100%" stop-color="#E6D5CD"/></linearGradient><linearGradient id="A" gradientUnits="userSpaceOnUse" x1="88.438" y1="459.1" x2="97.162" y2="444.6" spreadMethod="pad"><stop offset="0%" stop-color="#C59C90"/><stop offset="100%" stop-color="#E6D5CD"/></linearGradient><linearGradient id="B" gradientUnits="userSpaceOnUse" x1="83.538" y1="456.137" x2="92.362" y2="441.463" spreadMethod="pad"><stop offset="0%" stop-color="#C59C90"/><stop offset="100%" stop-color="#E6D5CD"/></linearGradient><linearGradient id="C" gradientUnits="userSpaceOnUse" x1="79.338" y1="453.6" x2="88.063" y2="439.1" spreadMethod="pad"><stop offset="0%" stop-color="#C59C90"/><stop offset="100%" stop-color="#E6D5CD"/></linearGradient><linearGradient id="D" gradientUnits="userSpaceOnUse" x1="75.375" y1="451.238" x2="84.125" y2="436.662" spreadMethod="pad"><stop offset="0%" stop-color="#C59C90"/><stop offset="100%" stop-color="#E6D5CD"/></linearGradient><linearGradient id="E" gradientUnits="userSpaceOnUse" x1="71.65" y1="449.013" x2="80.55" y2="434.188" spreadMethod="pad"><stop offset="0%" stop-color="#C59C90"/><stop offset="100%" stop-color="#E6D5CD"/></linearGradient><linearGradient id="F" gradientUnits="userSpaceOnUse" x1="68.288" y1="446.962" x2="77.013" y2="432.438" spreadMethod="pad"><stop offset="0%" stop-color="#C59C90"/><stop offset="100%" stop-color="#E6D5CD"/></linearGradient><linearGradient id="G" gradientUnits="userSpaceOnUse" x1="65.362" y1="445.212" x2="74.138" y2="430.587" spreadMethod="pad"><stop offset="0%" stop-color="#C59C90"/><stop offset="100%" stop-color="#E6D5CD"/></linearGradient><linearGradient id="H" gradientUnits="userSpaceOnUse" x1="62.912" y1="443.738" x2="71.787" y2="428.963" spreadMethod="pad"><stop offset="0%" stop-color="#C59C90"/><stop offset="100%" stop-color="#E6D5CD"/></linearGradient><linearGradient id="I" gradientUnits="userSpaceOnUse" x1="61.125" y1="442.688" x2="69.775" y2="428.313" spreadMethod="pad"><stop offset="0%" stop-color="#C59C90"/><stop offset="100%" stop-color="#E6D5CD"/></linearGradient><linearGradient id="J" gradientUnits="userSpaceOnUse" x1="60" y1="441.975" x2="68.8" y2="427.325" spreadMethod="pad"><stop offset="0%" stop-color="#C59C90"/><stop offset="100%" stop-color="#E6D5CD"/></linearGradient><linearGradient id="K" gradientUnits="userSpaceOnUse" x1="60.1" y1="442.063" x2="68.9" y2="427.438" spreadMethod="pad"><stop offset="0%" stop-color="#C59C90"/><stop offset="100%" stop-color="#E6D5CD"/></linearGradient><linearGradient id="L" gradientUnits="userSpaceOnUse" x1="62.313" y1="443.412" x2="71.588" y2="427.988" spreadMethod="pad"><stop offset="0%" stop-color="#C59C90"/><stop offset="100%" stop-color="#E6D5CD"/></linearGradient><linearGradient id="M" gradientUnits="userSpaceOnUse" x1="56.337" y1="444.675" x2="112.763" y2="454.625" spreadMethod="pad"><stop offset="0%" stop-color="#CEAEA2"/><stop offset="38.039%" stop-color="#F0E9E4"/><stop offset="100%" stop-color="#C59C90"/></linearGradient><linearGradient id="N" gradientUnits="userSpaceOnUse" x1="59.15" y1="444.313" x2="110.15" y2="452.388" spreadMethod="pad"><stop offset="0%" stop-color="#ECDFD9"/><stop offset="38.039%" stop-color="#FFF"/><stop offset="100%" stop-color="#ECDFD9"/></linearGradient><linearGradient id="O" gradientUnits="userSpaceOnUse" x1="166.625" y1="452.15" x2="160.675" y2="438.15" spreadMethod="pad"><stop offset="0%" stop-color="#AA7064"/><stop offset="100%" stop-color="#D6B8AF"/></linearGradient><linearGradient id="P" gradientUnits="userSpaceOnUse" x1="147.088" y1="467.287" x2="138.612" y2="452.613" spreadMethod="pad"><stop offset="0%" stop-color="#C59C90"/><stop offset="100%" stop-color="#E6D5CD"/></linearGradient><linearGradient id="Q" gradientUnits="userSpaceOnUse" x1="151.675" y1="464.65" x2="143.125" y2="449.85" spreadMethod="pad"><stop offset="0%" stop-color="#C59C90"/><stop offset="100%" stop-color="#E6D5CD"/></linearGradient><linearGradient id="R" gradientUnits="userSpaceOnUse" x1="156.475" y1="461.837" x2="147.725" y2="446.663" spreadMethod="pad"><stop offset="0%" stop-color="#C59C90"/><stop offset="100%" stop-color="#E6D5CD"/></linearGradient><linearGradient id="S" gradientUnits="userSpaceOnUse" x1="161.475" y1="458.975" x2="153.025" y2="444.325" spreadMethod="pad"><stop offset="0%" stop-color="#C59C90"/><stop offset="100%" stop-color="#E6D5CD"/></linearGradient><linearGradient id="T" gradientUnits="userSpaceOnUse" x1="166.475" y1="456.113" x2="157.925" y2="441.287" spreadMethod="pad"><stop offset="0%" stop-color="#C59C90"/><stop offset="100%" stop-color="#E6D5CD"/></linearGradient><linearGradient id="U" gradientUnits="userSpaceOnUse" x1="170.875" y1="453.575" x2="162.425" y2="438.925" spreadMethod="pad"><stop offset="0%" stop-color="#C59C90"/><stop offset="100%" stop-color="#E6D5CD"/></linearGradient><linearGradient id="V" gradientUnits="userSpaceOnUse" x1="174.85" y1="451.262" x2="166.35" y2="436.537" spreadMethod="pad"><stop offset="0%" stop-color="#C59C90"/><stop offset="100%" stop-color="#E6D5CD"/></linearGradient><linearGradient id="W" gradientUnits="userSpaceOnUse" x1="178.625" y1="449.088" x2="169.975" y2="434.113" spreadMethod="pad"><stop offset="0%" stop-color="#C59C90"/><stop offset="100%" stop-color="#E6D5CD"/></linearGradient><linearGradient id="X" gradientUnits="userSpaceOnUse" x1="182.088" y1="447.087" x2="173.612" y2="432.413" spreadMethod="pad"><stop offset="0%" stop-color="#C59C90"/><stop offset="100%" stop-color="#E6D5CD"/></linearGradient><linearGradient id="Y" gradientUnits="userSpaceOnUse" x1="185.112" y1="445.337" x2="176.588" y2="430.563" spreadMethod="pad"><stop offset="0%" stop-color="#C59C90"/><stop offset="100%" stop-color="#E6D5CD"/></linearGradient><linearGradient id="Z" gradientUnits="userSpaceOnUse" x1="187.6" y1="443.912" x2="179" y2="428.988" spreadMethod="pad"><stop offset="0%" stop-color="#C59C90"/><stop offset="100%" stop-color="#E6D5CD"/></linearGradient><linearGradient id="aa" gradientUnits="userSpaceOnUse" x1="189.488" y1="442.813" x2="181.113" y2="428.288" spreadMethod="pad"><stop offset="0%" stop-color="#C59C90"/><stop offset="100%" stop-color="#E6D5CD"/></linearGradient><linearGradient id="ab" gradientUnits="userSpaceOnUse" x1="190.775" y1="442.05" x2="182.225" y2="427.25" spreadMethod="pad"><stop offset="0%" stop-color="#C59C90"/><stop offset="100%" stop-color="#E6D5CD"/></linearGradient><linearGradient id="ac" gradientUnits="userSpaceOnUse" x1="190.762" y1="442.037" x2="182.238" y2="427.262" spreadMethod="pad"><stop offset="0%" stop-color="#C59C90"/><stop offset="100%" stop-color="#E6D5CD"/></linearGradient><linearGradient id="ad" gradientUnits="userSpaceOnUse" x1="188.65" y1="443.3" x2="179.65" y2="427.7" spreadMethod="pad"><stop offset="0%" stop-color="#C59C90"/><stop offset="100%" stop-color="#E6D5CD"/></linearGradient><linearGradient id="ae" gradientUnits="userSpaceOnUse" x1="193.475" y1="444.538" x2="137.225" y2="455.462" spreadMethod="pad"><stop offset="0%" stop-color="#CEAEA2"/><stop offset="38.039%" stop-color="#F0E9E4"/><stop offset="100%" stop-color="#C59C90"/></linearGradient><linearGradient id="af" gradientUnits="userSpaceOnUse" x1="190.625" y1="443.762" x2="139.775" y2="452.738" spreadMethod="pad"><stop offset="0%" stop-color="#ECDFD9"/><stop offset="38.039%" stop-color="#FFF"/><stop offset="100%" stop-color="#ECDFD9"/></linearGradient><linearGradient id="ag" gradientUnits="userSpaceOnUse" x1="125.1" y1="494.5" x2="125.1" y2="477.2" spreadMethod="pad"><stop offset="0%" stop-color="#FFF"/><stop offset="100%" stop-color="#E6D5CD"/></linearGradient><path fill="#FFF" fill-opacity="0" d="M284 0H0v320h284V0z" id="ah"/><path fill="#ECDFD9" d="M109.8 545.7q-2-1.2-4.55-1.2H94q-2.4 0-4.75 1.5-2.5 1.6-2.5 3.55 0 3.45 1.4 6.65 1.3 3.1 1.15 7.55-.05 3.65.8 6.95.35 1.25 1.4 3.9.95 2.55.75 4.75-.15 1.5-1 3.75l8.3 4.9 8.4-4.9q-.8-2.3-.9-3.75-.15-2.2.8-4.75 1.05-2.65 1.5-4.3 1-3.65 1-7.3.05-4.25.85-7.35.8-3 .8-6.65 0-2-2.2-3.3z" id="ai"/><path fill="#DAC0B6" d="M107.4 592.95q1.1-1.7 1.2-4.85.1-3-.65-5.05-4.55.9-8.3.9-3.7 0-8.25-.9-.75 2.15-.65 5.05.1 3.2 1.25 4.85 1.6 2.45 4.05 2.1 2.6-.4 3.65-3.8.95 3.4 3.6 3.8 2.5.35 4.1-2.1z" id="aj"/><path fill="#ECDFD9" d="M162.1 556.2q1.45-3.2 1.45-6.65 0-1.95-2.5-3.55-2.35-1.5-4.85-1.5H145q-2.55 0-4.55 1.2-2.25 1.3-2.25 3.3 0 3.6.85 6.65.8 3.05.8 7.35 0 3.65 1.05 7.3.4 1.35 1.55 4.3.95 2.5.75 4.75-.1 1.35-.95 3.75l8.4 4.9 8.3-4.9q-.85-2.4-.95-3.75-.2-2.25.75-4.75 1.1-2.75 1.4-3.9.9-3.3.75-6.95-.15-4.45 1.2-7.55z" id="ak"/><path fill="#DAC0B6" d="M141.65 588.1q.1 3.2 1.25 4.85 1.6 2.45 4.1 2.1 2.65-.4 3.6-3.8.95 3.4 3.6 3.8 2.5.35 4.1-2.1 1.15-1.65 1.25-4.85.05-2.95-.7-5.05-4.55.9-8.3.9-3.7 0-8.25-.9-.75 2.15-.65 5.05z" id="al"/><path fill="url(#a)" d="M184 492.55l-20.45-7.45-7.55 2.85-4.3 15q3.55-3.85 7.35-3.35 2.35.3 6.95 3.25 8.6 5.3 17.05 3.15 3.8-.95 6.5-3.05 3.25-2.55 5.75-7.3.1-.4.75-3.2l-.3-1.55-1.4-1.45-2.15-.45-8.2 3.55z" id="am"/><path fill="url(#b)" d="M167 488.4q1.15.5 6.8 3.7 4.05 2.3 6.7 2.6 2.65.25 4.65-.45 1.6-.5 3.25-1.8 2.8-2.15 3.9-2.45 2-.6 2.9.85.9 1.45.25 4.2 1.3-3.25.05-5.15-.95-1.45-2.5-1.45-1.65-.1-3.55.7-2.35 1-3.3 1.15-3.35.55-6.85-1.85-13.1-9.15-22.75-1.9l-3.65 7.7q6-9.2 14.1-5.85z" id="an"/><path fill="url(#c)" d="M94.3 487.95l-7.65-2.85-20.45 7.45L58 489l-2.15.45-1.3 1.45-.35 1.55q.3 1.1.7 3.2 2.6 4.75 5.85 7.3 2.7 2.1 6.4 3.05 8.5 2.15 17.15-3.15 4.6-2.95 6.9-3.25 3.75-.5 7.35 3.35l-4.25-15z" id="ao"/><path fill="url(#d)" d="M97.3 494.25l-3.65-7.7q-9.55-7.35-22.75 1.9-3.35 2.4-6.85 1.85-.95-.15-3.3-1.15-1.85-.8-3.45-.7-1.65 0-2.6 1.45-1.25 1.9.05 5.15-.65-2.75.3-4.2.9-1.45 2.95-.85 1.25.35 3.8 2.45 1.7 1.3 3.25 1.8 2.05.7 4.7.45 2.65-.3 6.7-2.6 5.6-3.2 6.75-3.7 8.1-3.35 14.1 5.85z" id="ap"/><path fill="url(#e)" d="M105.95 604l-.15-9.85-2.15 8.6q.85.7 2.3 1.25z" id="aq"/><path fill="#CEAEA2" d="M120.05 544.35h-13.8q-3 0-5.9 1.85-3.05 1.95-3.05 4.35 0 4.3 1.75 8.2 1.7 3.75 1.5 9.15-.2 4.45.9 8.55.3 1.2 1.7 4.85 1.15 3.15.95 5.9-.15 1.75-1.15 4.55l10.05 6 10.4-6q-1-2.75-1.15-4.55-.25-2.7.9-5.9 1.55-4.1 1.9-5.25 1.3-4.5 1.3-8.95 0-5.25 1-9 1-3.8 1-8.25 0-2.4-2.75-4-2.5-1.5-5.55-1.5z" id="ar"/><path fill="url(#f)" d="M113.2 592.85q-4.55 0-10.2-1.15-.9 2.55-.8 6.15.15 3.95 1.5 6 1.95 3 5.05 2.5 3.2-.5 4.4-4.65 1.25 4.15 4.5 4.65 3.05.45 5-2.5 1.35-2.05 1.5-6 .15-3.65-.75-6.15-5.6 1.15-10.2 1.15z" id="as"/><path fill="url(#g)" d="M104.85 605.15q1.35 1.15 3.2 1.3-2.95-3.15-2.55-12.05-2.15 5.95-.65 10.75z" id="at"/><path fill="#CEAEA2" d="M144.7 544.35h-13.85q-3 0-5.85 1.85-3.05 1.95-3.05 4.35 0 4.3 1.75 8.2 1.7 3.75 1.5 9.15-.2 4.45.9 8.55.15.7 1.65 4.85 1.2 3.15 1 5.9-.15 1.75-1.2 4.55l10.1 6 10.35-6q-1-2.75-1.15-4.55-.25-2.7.95-5.9 1.5-3.9 1.9-5.25 1.25-4.5 1.25-8.95.05-5.2 1.05-9 .95-3.75.95-8.25 0-2.4-2.7-4-2.5-1.5-5.55-1.5z" id="au"/><path fill="url(#h)" d="M148 591.7q-5.6 1.15-10.2 1.15-4.55 0-10.15-1.15-.95 2.55-.8 6.15.1 3.95 1.5 6 1.95 2.95 5 2.5 3.25-.5 4.5-4.65 1.2 4.15 4.45 4.65 3.05.5 5-2.5 1.4-2.05 1.5-6 .15-3.6-.8-6.15z" id="av"/><path fill="url(#i)" d="M129.5 605.15q1.35 1.15 3.15 1.3-2.95-3.15-2.45-12.05-2.2 5.7-.7 10.75z" id="aw"/><path fill="url(#j)" d="M163.5 567.2q3.75-4.4 5-11.9 1.2-7.55-.6-15.35-1.95-8.45-6.95-14.5-5.6-6.8-14.1-9.25l-44.65 2.1q-7.6 0-14.25 8.85-5.9 7.9-6.75 16-1.3 12.4 8.05 24.2 2.75 3.7 3.05 4.25 1.15 2.65-.45 5.55 3.6-2.4 3.95-7.25.3-4.5-2.25-8.3 3.95 3.7 5.05 10.35 1.15 7-2.5 10.15 4-1.85 5.9-4.4 1.65-2.2 2.25-5.75 1.1-6.25 3.4-6.3 1.95-.05 3.85 4.15 1.85 4.15 2.05 8.85.2 5.3-2.1 7.75 2.75-1.45 4.45-5.05 1.75-3.8.8-6.95 1.85 2.5 2.3 4.5.6 2.5-.5 5.85 2.65-2 3.55-4.8.75-2.4.45-6.4 2.65 1.15 4 6.4 1.5 6-1.95 10.15 9.2-2.45 11.6-10.9 1.75-6-.15-13.5 2.75 2.15 4.3 7.45 1.85 6.45-.7 11.85 4.2-3.5 5.75-6.2 2.45-4.15 1.7-10-.25-2.2.3-4 .65-1.85 1.8-2.05 3.25-.6 4.35 5.2.95 4.95 0 7.9 9.1-6.25 9.35-19.3 1.4 1.1 1.55 4.2.1 2.9-.9 6.45z" id="ax"/><path fill="url(#k)" d="M111.05 463.15q-9.9 2.45-16 8.1-6.05 5.6-6.95 13.05-.95 7.1-.45 14.15.55 7.45 2.75 13.95 1.25 3.7 4.05 7.7 1.85 2.55 5.6 6.8 4.05 4.4 5 5.55 2.55 3.15 3.65 5.85 5 12.3 16.4 11.85 11.55.45 16.5-11.85 1.05-2.65 3.65-5.85.55-.7 4.9-5.55 3.85-4.3 5.65-6.8 2.85-4 4.1-7.7 4.25-12.75 2.3-28.1-1-7.45-7.05-13.05-6.1-5.65-16-8.1-6.05-1.55-14.05-1.45-7.85-.1-14.05 1.45z" id="ay"/><path fill="#E0CCC2" d="M125.75 538.05h-1.2q-4.65-.9-6.5-1.1-3.2-.3-3.1 4.05.2 5.35 3.35 8.45 2.8 2.85 6.85 2.85t6.85-2.85q3.15-3.1 3.35-8.45.1-4.35-3.05-4.05-4.35 1.2-6.55 1.1z" id="az"/><path fill="#D6B8AF" d="M129.65 541.2q-1.9-1.7-4.6-1.7-2.7 0-4.6 1.7-1.95 1.65-1.95 4.1 0 2.45 1.95 4.15 1.9 1.75 4.6 1.75 2.7 0 4.6-1.75 1.85-1.7 1.85-4.15t-1.85-4.1z" id="aA"/><path fill="url(#l)" d="M93.55 489.95q4.55 2 10.45.85 3.6-.7 5.9-.3 2.2.45 4.5 2.25 5.55 4.35 5.2 19.1-.35 12.85-3.8 20.45l9.3 1.9 9.3-1.9q-3.45-7.55-3.75-20.45-.3-14.75 5.25-19.1 2.3-1.8 4.5-2.25 2.25-.4 5.85.3 5.85 1.15 10.4-.85 4.05-1.85 5.85-5.55-2.25-15.25-15-23-5.7-3.45-11.5-3.65-6.2-.15-10.9 3.45-4.7-3.6-10.85-3.45-5.85.2-11.55 3.65-5.7 3.5-9.65 9.35-4.2 6.2-5.25 13.65 1.7 3.7 5.75 5.55z" id="aB"/><path fill="url(#m)" d="M104.1 494.1h-.1q-3.65 0-6.5 2.15-2.85 2.1-3.95 5.5-.4 1.2-.1 2.05.35 1 1.55 1.35 1 .2 1.85-.3 1.05-.6 1.35-2.1h11.65q.35 1.5 1.35 2.1.85.5 1.9.3 2.25-.65 1.4-3.4-1.05-3.35-3.9-5.5-2.9-2.15-6.5-2.15z" id="aC"/><path d="M96.15 505.8l1.8-3.75q-2.45 1.15-4.7-.25-2.5-1.6-2.2-5.45-1.15 3.15 0 5.7 1.25 2.85 5.1 3.75z" id="aD"/><path d="M97.45 503.4l1.5-3.15q-2.25 1.15-4.15-.15-2.1-1.45-1.15-4.75-1.55 2.4-.45 4.85 1.1 2.5 4.25 3.2z" id="aE"/><path fill="#FFF" d="M104 498.5q-3.55 0-6.1 2.55t-2.55 6.1q0 3.55 2.55 6.1t6.1 2.55q3.55 0 6.1-2.55t2.55-6.1q0-3.55-2.55-6.1t-6.1-2.55z" id="aF"/><path fill="url(#n)" d="M104 500.6q-2.7 0-4.6 1.95-1.95 1.9-1.95 4.6 0 2.7 1.95 4.65 1.9 1.9 4.6 1.9 2.7 0 4.65-1.9 1.9-1.95 1.9-4.65t-1.9-4.6q-1.95-1.95-4.65-1.95z" id="aG"/><path fill="url(#o)" d="M104 513.05q2.8-.1 4.5-2.1.4-.4.4-.95.05-.5-.3-.85-.85-.6-1.7.35-1 1.4-2.9 1.4-1.75 0-2.85-1.4-.45-.5-.95-.55-.45-.05-.7.2-.4.35-.35.85.05.55.45.95 1.7 2 4.4 2.1z" id="aH"/><path d="M104 504.1q-1.25 0-2.1.9-.85.9-.85 2.15t.85 2.1q.85.85 2.1.85t2.15-.85q.9-.85.9-2.1t-.9-2.15q-.9-.9-2.15-.9z" id="aI"/><path fill="#FFF" d="M107.2 506.55q-.45 0-.75.3t-.3.75q0 .4.3.65t.75.25q.4 0 .65-.25t.25-.65q0-.45-.25-.75t-.65-.3z" id="aJ"/><path fill="#FFF" d="M101.35 503.05q-.8 0-1.4.55-.55.5-.55 1.3t.55 1.35q.6.55 1.4.55.75 0 1.3-.55t.55-1.35q0-.8-.55-1.3-.55-.55-1.3-.55z" id="aK"/><path fill="url(#p)" d="M146.25 494.1h-.05q-3.65 0-6.5 2.15-2.85 2.1-3.95 5.5-.4 1.2-.1 2.05.35 1 1.55 1.35 1 .2 1.85-.3 1.05-.6 1.3-2.1h11.7q.35 1.5 1.35 2.1.8.5 1.85.3 2.3-.65 1.45-3.4-1.1-3.35-3.95-5.5-2.9-2.15-6.5-2.15z" id="aL"/><path d="M152.3 502.05l1.75 3.75q3.85-.9 5.15-3.75 1.2-2.55.05-5.7.3 3.9-2.25 5.45-2.25 1.4-4.7.25z" id="aM"/><path d="M151.25 500.25l1.5 3.15q3.2-.7 4.35-3.2 1.1-2.45-.45-4.85.9 3.3-1.2 4.75-1.9 1.3-4.2.15z" id="aN"/><path fill="#FFF" d="M152.3 501.05q-2.55-2.55-6.1-2.55t-6.1 2.55q-2.55 2.55-2.55 6.1t2.55 6.1q2.55 2.55 6.1 2.55t6.1-2.55q2.55-2.55 2.55-6.1t-2.55-6.1z" id="aO"/><path fill="url(#q)" d="M146.2 500.6q-2.7 0-4.6 1.95-1.95 1.9-1.95 4.6 0 2.7 1.95 4.65 1.9 1.9 4.6 1.9 2.7 0 4.65-1.9 1.9-1.95 1.9-4.65t-1.9-4.6q-1.95-1.95-4.65-1.95z" id="aP"/><path fill="url(#r)" d="M146.2 513.05q2.8-.1 4.45-2.1.4-.4.45-.95.05-.5-.3-.85-.85-.6-1.7.35-1 1.4-2.9 1.4-1.75 0-2.9-1.4-.4-.5-.95-.55-.4-.05-.7.2-.35.35-.3.85.05.55.45.95 1.7 2 4.4 2.1z" id="aQ"/><path d="M146.2 504.1q-1.25 0-2.1.9-.85.9-.85 2.15t.85 2.1q.85.85 2.1.85t2.15-.85q.9-.85.9-2.1t-.9-2.15q-.9-.9-2.15-.9z" id="aR"/><path fill="#FFF" d="M149.35 506.55q-.4 0-.7.3-.3.3-.3.75 0 .4.3.65t.7.25q.4 0 .65-.25.3-.3.3-.65 0-.45-.3-.75-.25-.3-.65-.3z" id="aS"/><path fill="#FFF" d="M143.55 503.05q-.8 0-1.4.55-.55.5-.55 1.3t.55 1.35q.6.55 1.4.55.75 0 1.3-.55t.55-1.35q0-.8-.55-1.3-.55-.55-1.3-.55z" id="aT"/><path fill="#9B594E" d="M135.1 541.7q0-2-2.95-3.4-2.9-1.4-7.05-1.4-4.1 0-7 1.4-2.95 1.4-2.95 3.4 0 2.1 2.95 3.75 3 1.65 7 1.65 4.05 0 7.05-1.65 2.95-1.65 2.95-3.75z" id="aU"/><path fill="#E0CCC2" d="M134.3 543.6q3.05-1.8 2.75-6-.35-5.15-3.55-7.8-3.05-2.55-8.4-2.65-5.3.1-8.3 2.65-3.2 2.65-3.55 7.8-.4 4.2 2.65 6 2.75 1.6 9.2 1.8 6.45-.2 9.2-1.8z" id="aV"/><path fill="#D6B8AF" d="M125.1 541.3l-.3-.55q0 4.35-5.6 4h-.05q2.3.5 5.95.65 3.65-.15 6.05-.65h-.05q-5.7.4-5.7-4l-.3.55z" id="aW"/><path fill="#ECDFD9" d="M125.1 540.85q4.95 0 8-4.4 2.1-2.95.9-5.6-1.3-2.8-5.65-3.4-2.2-.3-3.25-.3-1.05 0-3.25.3-4.3.6-5.6 3.4-1.2 2.65.85 5.6 3.1 4.4 8 4.4z" id="aX"/><path fill="#FFF" d="M125.45 541.3q.35-1.75 2.35-2.6 2.95-1.3 3.35-1.6 3.05-2.55.85-6.4-.05 1.6-.55 2.55-.35.7-1.35 1.55-1.1 1-3.1 2.45-1.5 1.45-1.55 4.05z" id="aY"/><path fill="#FFF" d="M122.45 538.7q1.95.85 2.3 2.6 0-2.6-1.45-4.05-2.05-1.45-3.15-2.45-.95-.85-1.35-1.55-.5-.95-.6-2.55-2.1 3.85.85 6.4.35.25 3.4 1.6z" id="aZ"/><path fill="url(#s)" d="M131.3 530.1q-.9-.2-2.55-.15-1.8.1-2.55.1-2.7-.15-4.5-.2-3.35-.1-3.45.5V533l1.15 2.1.3.25 3.95 2.7.8.8.3 1.5h.8q.1-1.75 2.2-3.55 2.45-1.9 3.35-2.95.5-.65.7-2 .25-1.55-.5-1.75z" id="ba"/><path fill="url(#t)" d="M122.25 537.4q2.15 1.2 2.5 3-.05-2.6-1.5-4-2-1.4-3.1-2.4-.85-.75-1.2-1.6-.3-.85-.4-2.55-.95 1.7-.75 3.3.15 1.45 1.2 2.45.1.1 3.25 1.8z" id="bb"/><path fill="url(#u)" d="M125.55 540.4q.35-1.8 2.45-3 3.2-1.75 3.25-1.8 1-1 1.15-2.45.2-1.6-.65-3.3-.1 1.7-.45 2.55-.35.85-1.2 1.6-1.1 1-3.1 2.4-1.45 1.4-1.45 4z" id="bc"/><path fill="#B8897D" d="M125.55 540.25h-.8v5.15h.8v-5.15z" id="bd"/><path fill="url(#v)" d="M129.7 522.25q-1.15-2.6-4.6-2.6-3.4 0-4.65 2.6-.35.8-1.1 3.45-.65 2.1-1.45 3.25 2.35-1.25 4.5-.4 2.2.8 2.7 3.1.45-2.3 2.65-3.1 2.2-.85 4.55.4-.85-1.15-1.5-3.25-.8-2.8-1.1-3.45z" id="be"/><path fill="#B58275" d="M103.5 458.05q-4.7 2.6-6.85 6.55-2.15 3.9-.55 6.85 1.6 2.95 6.1 3.2t9.25-2.35q4.7-2.6 6.9-6.55 2.2-3.95.5-6.9-1.6-2.9-6.1-3.15t-9.25 2.35z" id="bf"/><path fill="url(#w)" d="M100.5 442.15q-8.8-4.5-19.4-5.05-17.2-.85-29.05 9.5-11.75 10.25-13.5 27.15-.75 7.1.65 14.05 1.4 7.15 5 13.45 1.9 3.5 3.95 5.1 2.8 2.1 1.55-1.95-3.45-11.45-4.05-17.5-1-9.7 2.65-17.25 2.5-5.25 7.3-9.1 5.1-4.1 11.05-5.1 7.35-1.25 14.7 1.4 7.5 2.75 12.3 8.7 4.75 5.9 10.85 5.9 5.75-.05 10.65-5.25 4.55-4.6.25-10.95-5.6-8.35-14.9-13.1z" id="bg"/><path fill="url(#x)" d="M96.9 468.7q.55.5 1.55 1.1 2.05-5.25 6.2-8.5 4.25-3.4 9.8-3.9-3.45-.35-7.55 1.25-6.75 2.7-10 10.05z" id="bh"/><path fill="url(#y)" d="M93.8 465.7q1 1.2 1.55 1.7 1.2-5.85 5.2-9.85 4.05-4.05 9.85-5-3.55-.2-7.5 1.8-6.6 3.25-9.1 11.35z" id="bi"/><path fill="url(#z)" d="M90.5 462.2q1.2 1.1 1.75 1.75.75-5.85 4.25-10.05 3.6-4.3 9.15-5.6-3.45 0-7.1 2.15-6.15 3.6-8.05 11.75z" id="bj"/><path fill="url(#A)" d="M86.75 459.4l1.95 1.4q.25-5.6 3.3-9.9 3.2-4.45 8.4-6.1-3.4.3-6.7 2.6-5.7 3.9-6.95 12z" id="bk"/><path fill="url(#B)" d="M94.65 442.15q-3.2.5-6.2 2.95-5.15 4.2-5.75 12.2l2 .95q-.15-5.3 2.4-9.6 2.65-4.55 7.55-6.5z" id="bl"/><path fill="url(#C)" d="M88.55 440.35q-3.05.85-5.6 3.35-4.55 4.45-4.55 12.2l2.05.65q-.55-5.05 1.5-9.3 2.15-4.6 6.6-6.9z" id="bm"/><path fill="url(#D)" d="M74 455.15l2 .3q-.9-4.6.65-8.85 1.7-4.55 5.7-7.15-2.85 1.1-5.05 3.7-3.95 4.65-3.3 12z" id="bn"/><path fill="url(#E)" d="M76.1 439.3q-2.6 1.4-4.45 4.05-3.3 4.85-2.15 11.75.65-.1 1.95-.1-1.2-4.2-.05-8.3 1.15-4.5 4.7-7.4z" id="bo"/><path fill="url(#F)" d="M69.9 440.05q-2.25 1.5-3.75 4.3-2.6 4.95-.9 11.4.7-.25 1.4-.3l.3-.05q-1.45-3.85-.8-7.85.7-4.35 3.75-7.5z" id="bp"/><path fill="url(#G)" d="M61.15 457.1l1.45-.55q-1.7-3.5-1.45-7.35.3-4.3 2.85-7.65-2 1.9-3.1 4.65-2.05 5.05.25 10.9z" id="bq"/><path fill="url(#H)" d="M57.45 459.2l1.05-.7q-1.9-3.1-2-6.9-.15-4.2 1.95-7.75-5.1 7.5-1 15.35z" id="br"/><path fill="url(#I)" d="M53.85 462.1l.85-.8q-2.05-2.45-2.55-5.9-.6-3.75.9-7.2-1.25 2.25-1.55 4.65-.65 4.75 2.35 9.25z" id="bs"/><path fill="url(#J)" d="M50.3 466.1l.65-.8q-2-1.85-2.95-4.8-1-3.3-.15-6.55-.8 2.15-.75 4.35.05 4.3 3.2 7.8z" id="bt"/><path fill="url(#K)" d="M47.25 471.95l.4-.85q-2-1.25-3.25-3.7-1.4-2.7-1.25-5.75-.75 6.45 4.1 10.3z" id="bu"/><path fill="url(#L)" d="M45.6 478.95q0-.45.1-.75-3.7-1.9-5.25-6.1 1.35 4.7 5.15 6.85z" id="bv"/><path fill="url(#M)" d="M84.2 444.85q18.15 3.55 28.45 16.7Q100.9 442.4 79.1 441.7q-8.6-.25-16.15 2.65-7.15 2.75-10.25 7.05 12.6-10.25 31.5-6.55z" id="bw"/><path fill="#965047" d="M98.95 466.05q-1.7-1.2-4.1-3.55-6.8-6.6-15.1-8.9-7.8-2.15-15.55-.1-9.3 2.5-14.55 9.75-5 6.9-5.6 16.9-.4 6.65 1.2 13.75 1.6 7.15 4.75 12.95.3-.25.25-1.2-.05-.75-.3-1.55-3.35-10.85-3.9-17.2-.8-9.45 2.9-17.05 2.45-5.15 7-8.65 4.7-3.6 10.7-4.6 7.3-1.25 14.7 1.6 7.45 2.9 12.3 8.9 4.65 5.8 10.85 5.15 5.55-.6 10.65-6.05.15-.15.8-.9-3.6 2.8-7 3.35-2.55.45-5.6-.4-2.15-.6-4.4-2.2z" id="bx"/><path fill="#A5685C" d="M96.4 469.85q.4.3 1.7 1.15.7-2.25 1.9-4.25l-1.55-1.05q-1.05 1.65-2.05 4.15z" id="by"/><path fill="#A5685C" d="M93.65 467.1q.5.65 1.5 1.65.3-2.4 1.25-4.8l-1.45-1.35q-.95 2.05-1.5 4.25l.2.25z" id="bz"/><path fill="#A5685C" d="M90.2 463.5l1.95 1.9q.05-2.15.75-4.7l-1.55-1.3q-.65 1.65-1.15 4.1z" id="bA"/><path fill="#A5685C" d="M86.6 460.85l2.1 1.45q-.15-2.15.35-4.45l-1.75-1.1q-.45 1.5-.7 4.1z" id="bB"/><path fill="#A5685C" d="M82.65 458.7l2.15 1.15q-.25-2.35.05-4.4l-1.8-.8q-.4 1.65-.4 4.05z" id="bC"/><path fill="#A5685C" d="M78.4 457.25l2.3.7q-.4-1.85-.4-4.15l-1.8-.5q-.2 2.45-.1 3.95z" id="bD"/><path fill="#A5685C" d="M74.05 456.4q.75.05 2.25.35-.6-2.25-.6-3.95l-1.8-.25q-.05 1.75.15 3.85z" id="bE"/><path fill="#A5685C" d="M69.8 456.25h2.05q-.7-1.9-.9-3.75l-1.65.15q0 1.45.5 3.6z" id="bF"/><path fill="#A5685C" d="M66.65 456.6q.6-.15.8-.15-.9-1.9-1.15-3.45l-1.55.35q.2 1.4.8 3.4l1.1-.15z" id="bG"/><path fill="#A5685C" d="M61.55 458.05l1.55-.6q-.95-1.75-1.35-3.15l-1.3.5q.25 1.35 1.1 3.25z" id="bH"/><path fill="#A5685C" d="M57.8 459.9l1.2-.7q-.85-1.1-1.55-2.95l-1.05.65q.9 2.1 1.4 3z" id="bI"/><path fill="#A5685C" d="M54.25 462.65l.95-.8q-1.2-1.35-1.9-2.65l-.7.65q.75 1.55 1.65 2.8z" id="bJ"/><path fill="#A5685C" d="M50.8 466.7q.45-.65.65-.95-1.4-1.2-2-2.25l-.5.8q.9 1.45 1.85 2.4z" id="bK"/><path fill="#A5685C" d="M47.85 472.35l.45-.9q-1.1-.5-2.2-1.5-.15.55-.25.7 1.2 1.2 2 1.7z" id="bL"/><path fill="#A5685C" d="M46.2 479.3l.05-.8q-1.15-.5-1.95-1.15l-.05.7q1.1.85 1.95 1.25z" id="bM"/><path fill="url(#N)" d="M56.65 448.7l.25-1.25-.65.45-.25 1.15.65-.35m15.7-4.6q.6-1.35 1.3-2.2l-.9.1q-.7.7-1.55 2.15l1.15-.05m5.5 0q.7-1.1 1.75-2.35-.3-.05-.85-.05-1.3 1.1-2.1 2.3.8 0 1.2.1m-15.65.55l-.75.3q-.4.75-.7 1.7l.85-.35.6-1.65m4.65.15l.95-1.95-.85.2q-.75 1.1-1.1 1.95l1-.2m27.75 3.25q1.25-1.05 2.3-1.65l-.75-.4q-1.65.75-2.7 1.6l1.15.45m15.4 9.65l-.65.15.55.55.5-.15-.4-.55m-8-8.1l-.65-.4q-1.5.55-2.4 1 .4.2 1.05.55l2-1.15m3.15 4.65l1.3-.6-.5-.5q-.15 0-1.6.5l.8.6m-21.75-9.5q.65-.9 2.2-2.35l-.95-.1q-1.35.9-2.55 2.2l1.3.25m7.95-.75l-.85-.3q-1.25.7-2.75 1.95.8.3 1.3.35 1-1.1 2.3-2z" id="bN"/><path fill="#B58275" d="M153.6 464.6q-2.2-3.95-6.9-6.55-4.7-2.6-9.2-2.35-4.5.25-6.15 3.15-1.6 3 .55 6.9 2.2 3.95 6.95 6.55 4.7 2.6 9.2 2.35 4.55-.25 6.15-3.2 1.6-2.9-.6-6.85z" id="bO"/><path fill="url(#O)" d="M168.9 456.85q7.3-2.65 14.75-1.4 5.9 1 11 5.1 4.8 3.85 7.35 9.1 3.65 7.55 2.65 17.25-.65 5.85-4.1 17.5-1.25 4 1.55 1.95 1.9-1.4 3.95-5.1 7.2-12.45 5.65-27.5-1.75-16.9-13.45-27.15-11.9-10.35-29.15-9.5-10.55.55-19.35 5.05-9.25 4.75-14.9 13.1-4.3 6.35.2 10.95 4.95 5.2 10.75 5.25 6.1 0 10.85-5.9 4.7-5.95 12.25-8.7z" id="bP"/><path fill="url(#P)" d="M151.75 469.8q.9-.5 1.65-1.1-3.25-7.35-10-10.05-4.1-1.6-7.65-1.25 5.6.5 9.85 3.9 4.15 3.3 6.15 8.5z" id="bQ"/><path fill="url(#Q)" d="M154.85 467.4q.95-.85 1.65-1.7-2.6-8.1-9.15-11.35-3.9-2-7.55-1.8 5.85.9 9.9 5 3.95 4 5.15 9.85z" id="bR"/><path fill="url(#R)" d="M158 463.95l1.75-1.75q-1.95-8.15-8.05-11.75-3.7-2.15-7.15-2.15 5.6 1.3 9.2 5.6 3.55 4.2 4.25 10.05z" id="bS"/><path fill="url(#S)" d="M158.25 450.9q3.05 4.3 3.3 9.9l1.95-1.4q-1.3-8.1-6.95-12-3.3-2.3-6.7-2.6 5.25 1.65 8.4 6.1z" id="bT"/><path fill="url(#T)" d="M165.5 458.25l2.1-.95q-.65-7.95-5.8-12.2-2.95-2.4-6.15-2.95 4.8 1.95 7.5 6.5 2.5 4.3 2.35 9.6z" id="bU"/><path fill="url(#U)" d="M169.8 456.55l2.1-.65q0-7.75-4.55-12.2-2.55-2.45-5.65-3.35 4.45 2.3 6.6 6.9 2 4.25 1.5 9.3z" id="bV"/><path fill="url(#V)" d="M172.95 443.15q-2.2-2.6-5-3.7 3.95 2.6 5.6 7.15 1.6 4.2.75 8.85l2-.3q.6-7.35-3.35-12z" id="bW"/><path fill="url(#W)" d="M178.6 443.35q-1.8-2.55-4.4-4.05 3.5 2.9 4.65 7.4 1.1 4.1-.1 8.3 1.3 0 1.95.1 1.2-6.9-2.1-11.75z" id="bX"/><path fill="url(#X)" d="M184.1 444.35q-1.5-2.7-3.75-4.3 3.05 3.15 3.75 7.5.65 4-.8 7.85l1.7.35q1.75-6.45-.9-11.4z" id="bY"/><path fill="url(#Y)" d="M187.6 456.55l1.45.55q2.3-5.85.3-10.9-1.05-2.65-3.05-4.65 2.55 3.35 2.8 7.65.2 3.85-1.5 7.35z" id="bZ"/><path fill="url(#Z)" d="M191.7 458.5l1.1.7q2.7-5.25 1.4-10.35-.55-2.2-2.35-5 2.1 3.55 1.95 7.75-.15 3.8-2.1 6.9z" id="ca"/><path fill="url(#aa)" d="M195.5 461.3l.9.8q3-4.5 2.35-9.25-.3-2.4-1.55-4.65 1.55 3.4.9 7.2-.55 3.4-2.6 5.9z" id="cb"/><path fill="url(#ab)" d="M199.35 465.3q.5.75.55.8 3.15-3.5 3.25-7.8.05-1.6-.7-4.35.8 3.3-.2 6.55-.9 2.95-2.9 4.8z" id="cc"/><path fill="url(#ac)" d="M202.65 471.1l.35.85q4.85-3.8 4.1-10.3.2 3.05-1.2 5.75-1.25 2.45-3.25 3.7z" id="cd"/><path fill="url(#ad)" d="M209.7 472.35q-1.562 4.008-5.1 5.85l.05.75q2.55-1.4 4-4 .375-.703 1.05-2.6z" id="ce"/><path fill="url(#ae)" d="M187.3 444.35q-7.55-2.9-16.15-2.65-21.8.7-33.6 19.85 10.3-13.15 28.5-16.7 18.9-3.7 31.5 6.55-3.05-4.3-10.25-7.05z" id="cf"/><path fill="#965047" d="M200.65 463.25q-5.25-7.25-14.55-9.75-7.8-2.05-15.65.1-8.25 2.3-15.1 8.9-2.45 2.35-4.1 3.55-2.25 1.6-4.4 2.2-2.95.85-5.5.4-3.45-.55-7.05-3.35l.75.9q5.15 5.45 10.75 6.05 6.2.65 10.85-5.15 4.8-6 12.25-8.9 7.4-2.85 14.75-1.6 5.95 1 10.65 4.6 4.5 3.5 7 8.65 3.7 7.6 2.85 17.05-.55 6.35-3.9 17.2-.5 2.35 0 2.75 3.15-5.8 4.75-12.95 1.6-7.15 1.2-13.75-.6-10-5.55-16.9z" id="cg"/><path fill="#A5685C" d="M152.2 471q1.25-.8 1.65-1.15-.85-2.3-2.1-4.15l-1.45 1.05q1.15 2 1.9 4.25z" id="ch"/><path fill="#A5685C" d="M155.15 468.75q1-1 1.5-1.65l.2-.25q-.45-1.7-1.6-4.25l-1.4 1.35q.85 2.3 1.3 4.8z" id="ci"/><path fill="#A5685C" d="M158.15 465.4l1.9-1.9q-.45-2.35-1.1-4.1l-1.6 1.3q.5 1.75.8 4.7z" id="cj"/><path fill="#A5685C" d="M163.7 460.85q-.2-2.05-.8-4.1l-1.7 1.1q.4 2.25.4 4.45l2.1-1.45z" id="ck"/><path fill="#A5685C" d="M165.45 459.85q.9-.6 2.2-1.15-.05-1.95-.4-4.05-.65.3-1.8.8.15 2.15 0 4.4z" id="cl"/><path fill="#A5685C" d="M169.6 457.95q1.3-.45 2.25-.7.05-1.95-.1-3.95l-1.85.5q.05 1.65-.3 4.15z" id="cm"/><path fill="#A5685C" d="M173.9 456.75q1.65-.3 2.25-.35.2-1.85.2-3.85l-1.8.25q-.1 2.1-.65 3.95z" id="cn"/><path fill="#A5685C" d="M178.4 456.25h2.1q.35-1.7.5-3.6l-1.75-.15q-.2 1.7-.85 3.75z" id="co"/><path fill="#A5685C" d="M182.8 456.45l1.85.3q.45-1.1.85-3.4l-1.55-.35q-.4 2.05-1.15 3.45z" id="cp"/><path fill="#A5685C" d="M187.1 457.45q.25.05 1.6.6.55-1.3 1.15-3.25l-1.3-.5q-.5 1.55-1.45 3.15z" id="cq"/><path fill="#A5685C" d="M191.25 459.2l1.2.7q1-1.95 1.35-3l-.95-.65q-.55 1.5-1.6 2.95z" id="cr"/><path fill="#A5685C" d="M195.1 461.85l.85.8q1.05-1.35 1.75-2.8l-.8-.65q-.55 1.15-1.8 2.65z" id="cs"/><path fill="#A5685C" d="M198.75 465.75q.45.55.65.95 1.2-1.2 1.95-2.4l-.55-.8q-.85 1.35-2.05 2.25z" id="ct"/><path fill="#A5685C" d="M202 471.45q.15.3.35.9.6-.4 2.05-1.7-.15-.5-.3-.7-1.05 1-2.1 1.5z" id="cu"/><path fill="#A5685C" d="M203.95 478.5l.15.8q1.05-.5 1.85-1.25l-.05-.7q-.65.55-1.95 1.15z" id="cv"/><path fill="url(#af)" d="M139.85 458.25q.05.05.5.15l.6-.55q-.1 0-.7-.15l-.4.55m8.45-8.65l1.95 1.15q.1 0 1-.55-.55-.3-2.4-1l-.55.4m-4.55 4.05q.85.3 1.35.6l.75-.6q-1.15-.45-1.6-.5l-.5.5m9.6-7.25q1.35.8 2.35 1.65l1.15-.45q-1.3-.95-2.75-1.6l-.75.4m6.4-2.7l-.9.3q1.2.8 2.4 2 .35-.05 1.25-.35-1.3-1.1-2.75-1.95m33.6 3.75l.25 1.25.7.35-.35-1.15-.6-.45m-4.5-2.5q-.65-.2-.75-.3l.5 1.65.95.35q-.5-1.15-.7-1.7m-6.35-2.1q.6 1.1.85 1.95l1.1.2q-.45-.9-1.15-1.95l-.8-.2m-5.9-.95q.55.75 1.3 2.2l1.2.05q-.8-1.35-1.6-2.15l-.9-.1m-5.05-.2q-.65 0-.95.05 1.25 1.45 1.75 2.35.4-.1 1.3-.1-1.05-1.3-2.1-2.3m-6.85.7q1.4 1.35 2.1 2.35l1.3-.25q-1.1-1.3-2.55-2.2l-.85.1z" id="cw"/><path fill="url(#ag)" d="M115.1 485.6q2.2 1.15 3.1 1.95 3.3 3.15 5.05 9.35 1.2 4.1 1.85 10.55.8-6.65 1.9-10.55 1.8-6.25 5.1-9.35.9-.85 3.05-1.95 2.1-1.1 3-2 2.05-2.1 1.95-4.55-.1-2.15-1.65-3.8-1.45-1.55-7.3-4.7-4.55-2.45-6.05-6.45-1.5 4-6 6.45-5.85 3.15-7.3 4.7-1.5 1.7-1.6 3.8-.15 2.5 1.95 4.55.9.9 2.95 2z" id="cx"/></defs><use xlink:href="#ah"/><use xlink:href="#ai" transform="matrix(1.52702 0 0 1.52702 -49.035 -618.836)"/><use xlink:href="#aj" transform="matrix(1.52702 0 0 1.52702 -49.035 -618.836)"/><use xlink:href="#ak" transform="matrix(1.52702 0 0 1.52702 -49.035 -618.836)"/><use xlink:href="#al" transform="matrix(1.52702 0 0 1.52702 -49.035 -618.836)"/><use xlink:href="#am" transform="matrix(1.52702 0 0 1.52702 -49.035 -618.836)"/><use xlink:href="#an" transform="matrix(1.52702 0 0 1.52702 -49.035 -618.836)"/><use xlink:href="#ao" transform="matrix(1.52702 0 0 1.52702 -49.035 -618.836)"/><use xlink:href="#ap" transform="matrix(1.52702 0 0 1.52702 -49.035 -618.836)"/><use xlink:href="#aq" transform="matrix(1.52702 0 0 1.52702 -49.035 -618.836)"/><use xlink:href="#ar" transform="matrix(1.52702 0 0 1.52702 -49.035 -618.836)"/><use xlink:href="#as" transform="matrix(1.52702 0 0 1.52702 -49.035 -618.836)"/><use xlink:href="#at" transform="matrix(1.52702 0 0 1.52702 -49.035 -618.836)"/><use xlink:href="#au" transform="matrix(1.52702 0 0 1.52702 -49.035 -618.836)"/><use xlink:href="#av" transform="matrix(1.52702 0 0 1.52702 -49.035 -618.836)"/><use xlink:href="#aw" transform="matrix(1.52702 0 0 1.52702 -49.035 -618.836)"/><use xlink:href="#ax" transform="matrix(1.52702 0 0 1.52702 -49.035 -618.836)"/><use xlink:href="#ay" transform="matrix(1.52702 0 0 1.52702 -49.035 -618.836)"/><use xlink:href="#az" transform="matrix(1.52702 0 0 1.52702 -49.035 -618.836)"/><use xlink:href="#aA" transform="matrix(1.52702 0 0 1.52702 -49.035 -618.836)"/><use xlink:href="#aB" transform="matrix(1.52702 0 0 1.52702 -49.035 -618.836)"/><use xlink:href="#aC" transform="matrix(1.52702 0 0 1.52702 -49.035 -618.836)"/><use xlink:href="#aD" transform="matrix(1.52702 0 0 1.52702 -49.035 -618.836)"/><use xlink:href="#aE" transform="matrix(1.52702 0 0 1.52702 -49.035 -618.836)"/><use xlink:href="#aF" transform="matrix(1.52702 0 0 1.52702 -49.035 -618.836)"/><use xlink:href="#aG" transform="matrix(1.52702 0 0 1.52702 -49.035 -618.836)"/><use xlink:href="#aH" transform="matrix(1.52702 0 0 1.52702 -49.035 -618.836)"/><use xlink:href="#aI" transform="matrix(1.52702 0 0 1.52702 -49.035 -618.836)"/><use xlink:href="#aJ" transform="matrix(1.52702 0 0 1.52702 -49.035 -618.836)"/><use xlink:href="#aK" transform="matrix(1.52702 0 0 1.52702 -49.035 -618.836)"/><use xlink:href="#aL" transform="matrix(1.52702 0 0 1.52702 -49.035 -618.836)"/><use xlink:href="#aM" transform="matrix(1.52702 0 0 1.52702 -49.035 -618.836)"/><use xlink:href="#aN" transform="matrix(1.52702 0 0 1.52702 -49.035 -618.836)"/><use xlink:href="#aO" transform="matrix(1.52702 0 0 1.52702 -49.035 -618.836)"/><use xlink:href="#aP" transform="matrix(1.52702 0 0 1.52702 -49.035 -618.836)"/><use xlink:href="#aQ" transform="matrix(1.52702 0 0 1.52702 -49.035 -618.836)"/><use xlink:href="#aR" transform="matrix(1.52702 0 0 1.52702 -49.035 -618.836)"/><use xlink:href="#aS" transform="matrix(1.52702 0 0 1.52702 -49.035 -618.836)"/><use xlink:href="#aT" transform="matrix(1.52702 0 0 1.52702 -49.035 -618.836)"/><use xlink:href="#aU" transform="matrix(1.52702 0 0 1.52702 -49.035 -618.836)"/><use xlink:href="#aV" transform="matrix(1.52702 0 0 1.52702 -49.035 -618.836)"/><use xlink:href="#aW" transform="matrix(1.52702 0 0 1.52702 -49.035 -618.836)"/><use xlink:href="#aX" transform="matrix(1.52702 0 0 1.52702 -49.035 -618.836)"/><use xlink:href="#aY" transform="matrix(1.52702 0 0 1.52702 -49.035 -618.836)"/><use xlink:href="#aZ" transform="matrix(1.52702 0 0 1.52702 -49.035 -618.836)"/><use xlink:href="#ba" transform="matrix(1.52702 0 0 1.52702 -49.035 -618.836)"/><use xlink:href="#bb" transform="matrix(1.52702 0 0 1.52702 -49.035 -618.836)"/><use xlink:href="#bc" transform="matrix(1.52702 0 0 1.52702 -49.035 -618.836)"/><use xlink:href="#bd" transform="matrix(1.52702 0 0 1.52702 -49.035 -618.836)"/><use xlink:href="#be" transform="matrix(1.52702 0 0 1.52702 -49.035 -618.836)"/><use xlink:href="#bf" transform="matrix(1.52702 0 0 1.52702 -49.035 -618.836)"/><use xlink:href="#bg" transform="matrix(1.52702 0 0 1.52702 -49.035 -618.836)"/><use xlink:href="#bh" transform="matrix(1.52702 0 0 1.52702 -49.035 -618.836)"/><use xlink:href="#bi" transform="matrix(1.52702 0 0 1.52702 -49.035 -618.836)"/><use xlink:href="#bj" transform="matrix(1.52702 0 0 1.52702 -49.035 -618.836)"/><use xlink:href="#bk" transform="matrix(1.52702 0 0 1.52702 -49.035 -618.836)"/><use xlink:href="#bl" transform="matrix(1.52702 0 0 1.52702 -49.035 -618.836)"/><use xlink:href="#bm" transform="matrix(1.52702 0 0 1.52702 -49.035 -618.836)"/><use xlink:href="#bn" transform="matrix(1.52702 0 0 1.52702 -49.035 -618.836)"/><use xlink:href="#bo" transform="matrix(1.52702 0 0 1.52702 -49.035 -618.836)"/><use xlink:href="#bp" transform="matrix(1.52702 0 0 1.52702 -49.035 -618.836)"/><use xlink:href="#bq" transform="matrix(1.52702 0 0 1.52702 -49.035 -618.836)"/><use xlink:href="#br" transform="matrix(1.52702 0 0 1.52702 -49.035 -618.836)"/><use xlink:href="#bs" transform="matrix(1.52702 0 0 1.52702 -49.035 -618.836)"/><use xlink:href="#bt" transform="matrix(1.52702 0 0 1.52702 -49.035 -618.836)"/><use xlink:href="#bu" transform="matrix(1.52702 0 0 1.52702 -49.035 -618.836)"/><use xlink:href="#bv" transform="matrix(1.52702 0 0 1.52702 -49.035 -618.836)"/><use xlink:href="#bw" transform="matrix(1.52702 0 0 1.52702 -49.035 -618.836)"/><use xlink:href="#bx" transform="matrix(1.52702 0 0 1.52702 -49.035 -618.836)"/><use xlink:href="#by" transform="matrix(1.52702 0 0 1.52702 -49.035 -618.836)"/><use xlink:href="#bz" transform="matrix(1.52702 0 0 1.52702 -49.035 -618.836)"/><use xlink:href="#bA" transform="matrix(1.52702 0 0 1.52702 -49.035 -618.836)"/><use xlink:href="#bB" transform="matrix(1.52702 0 0 1.52702 -49.035 -618.836)"/><use xlink:href="#bC" transform="matrix(1.52702 0 0 1.52702 -49.035 -618.836)"/><use xlink:href="#bD" transform="matrix(1.52702 0 0 1.52702 -49.035 -618.836)"/><use xlink:href="#bE" transform="matrix(1.52702 0 0 1.52702 -49.035 -618.836)"/><use xlink:href="#bF" transform="matrix(1.52702 0 0 1.52702 -49.035 -618.836)"/><use xlink:href="#bG" transform="matrix(1.52702 0 0 1.52702 -49.035 -618.836)"/><use xlink:href="#bH" transform="matrix(1.52702 0 0 1.52702 -49.035 -618.836)"/><use xlink:href="#bI" transform="matrix(1.52702 0 0 1.52702 -49.035 -618.836)"/><use xlink:href="#bJ" transform="matrix(1.52702 0 0 1.52702 -49.035 -618.836)"/><use xlink:href="#bK" transform="matrix(1.52702 0 0 1.52702 -49.035 -618.836)"/><use xlink:href="#bL" transform="matrix(1.52702 0 0 1.52702 -49.035 -618.836)"/><use xlink:href="#bM" transform="matrix(1.52702 0 0 1.52702 -49.035 -618.836)"/><use xlink:href="#bN" transform="matrix(1.52702 0 0 1.52702 -49.035 -618.836)"/><use xlink:href="#bO" transform="matrix(1.52702 0 0 1.52702 -49.035 -618.836)"/><use xlink:href="#bP" transform="matrix(1.52702 0 0 1.52702 -49.035 -618.836)"/><use xlink:href="#bQ" transform="matrix(1.52702 0 0 1.52702 -49.035 -618.836)"/><use xlink:href="#bR" transform="matrix(1.52702 0 0 1.52702 -49.035 -618.836)"/><use xlink:href="#bS" transform="matrix(1.52702 0 0 1.52702 -49.035 -618.836)"/><use xlink:href="#bT" transform="matrix(1.52702 0 0 1.52702 -49.035 -618.836)"/><use xlink:href="#bU" transform="matrix(1.52702 0 0 1.52702 -49.035 -618.836)"/><use xlink:href="#bV" transform="matrix(1.52702 0 0 1.52702 -49.035 -618.836)"/><use xlink:href="#bW" transform="matrix(1.52702 0 0 1.52702 -49.035 -618.836)"/><use xlink:href="#bX" transform="matrix(1.52702 0 0 1.52702 -49.035 -618.836)"/><use xlink:href="#bY" transform="matrix(1.52702 0 0 1.52702 -49.035 -618.836)"/><use xlink:href="#bZ" transform="matrix(1.52702 0 0 1.52702 -49.035 -618.836)"/><use xlink:href="#ca" transform="matrix(1.52702 0 0 1.52702 -49.035 -618.836)"/><use xlink:href="#cb" transform="matrix(1.52702 0 0 1.52702 -49.035 -618.836)"/><use xlink:href="#cc" transform="matrix(1.52702 0 0 1.52702 -49.035 -618.836)"/><use xlink:href="#cd" transform="matrix(1.52702 0 0 1.52702 -49.035 -618.836)"/><use xlink:href="#ce" transform="matrix(1.52702 0 0 1.52702 -49.035 -618.836)"/><use xlink:href="#cf" transform="matrix(1.52702 0 0 1.52702 -49.035 -618.836)"/><use xlink:href="#cg" transform="matrix(1.52702 0 0 1.52702 -49.035 -618.836)"/><use xlink:href="#ch" transform="matrix(1.52702 0 0 1.52702 -49.035 -618.836)"/><use xlink:href="#ci" transform="matrix(1.52702 0 0 1.52702 -49.035 -618.836)"/><use xlink:href="#cj" transform="matrix(1.52702 0 0 1.52702 -49.035 -618.836)"/><use xlink:href="#ck" transform="matrix(1.52702 0 0 1.52702 -49.035 -618.836)"/><use xlink:href="#cl" transform="matrix(1.52702 0 0 1.52702 -49.035 -618.836)"/><use xlink:href="#cm" transform="matrix(1.52702 0 0 1.52702 -49.035 -618.836)"/><use xlink:href="#cn" transform="matrix(1.52702 0 0 1.52702 -49.035 -618.836)"/><use xlink:href="#co" transform="matrix(1.52702 0 0 1.52702 -49.035 -618.836)"/><use xlink:href="#cp" transform="matrix(1.52702 0 0 1.52702 -49.035 -618.836)"/><use xlink:href="#cq" transform="matrix(1.52702 0 0 1.52702 -49.035 -618.836)"/><use xlink:href="#cr" transform="matrix(1.52702 0 0 1.52702 -49.035 -618.836)"/><use xlink:href="#cs" transform="matrix(1.52702 0 0 1.52702 -49.035 -618.836)"/><use xlink:href="#ct" transform="matrix(1.52702 0 0 1.52702 -49.035 -618.836)"/><use xlink:href="#cu" transform="matrix(1.52702 0 0 1.52702 -49.035 -618.836)"/><use xlink:href="#cv" transform="matrix(1.52702 0 0 1.52702 -49.035 -618.836)"/><use xlink:href="#cw" transform="matrix(1.52702 0 0 1.52702 -49.035 -618.836)"/><use xlink:href="#cx" transform="matrix(1.52702 0 0 1.52702 -49.035 -618.836)"/></svg>