<svg xmlns="http://www.w3.org/2000/svg" xmlns:xlink="http://www.w3.org/1999/xlink" preserveAspectRatio="none" width="284" height="320"><defs><linearGradient id="a" gradientUnits="userSpaceOnUse" x1="540.25" y1="112.825" x2="475.55" y2="31.575" spreadMethod="pad"><stop offset="3.922%" stop-color="#FCFCFC"/><stop offset="32.157%" stop-color="#EAEAEA"/><stop offset="60%" stop-color="#EFEFEF"/><stop offset="63.529%" stop-color="#F1F1F1"/><stop offset="78.824%" stop-color="#F6F7F5"/><stop offset="100%" stop-color="#FFF"/></linearGradient><radialGradient id="b" gradientUnits="userSpaceOnUse" cx="0" cy="0" r="77.275" fx="0" fy="0" gradientTransform="matrix(1 0 0 -1 516.2 182.95)" spreadMethod="pad"><stop offset="3.922%" stop-color="#067A4A"/><stop offset="59.216%" stop-color="#1D3F31"/><stop offset="87.059%" stop-color="#262626"/></radialGradient><linearGradient id="c" gradientUnits="userSpaceOnUse" x1="515.9" y1="106.638" x2="516.4" y2="116.862" spreadMethod="pad"><stop offset="3.922%" stop-color="#5E5E5E"/><stop offset="100%"/></linearGradient><radialGradient id="d" gradientUnits="userSpaceOnUse" cx="0" cy="0" r="12.313" fx="0" fy="0" gradientTransform="matrix(.91872 -.3949 -1.16642 -.65783 478.4 174.35)" spreadMethod="pad"><stop offset="24.706%" stop-color="#5EFF62"/><stop offset="34.902%" stop-color="#59F761"/><stop offset="50.588%" stop-color="#4BE25D"/><stop offset="69.412%" stop-color="#34C057"/><stop offset="90.98%" stop-color="#15904E"/><stop offset="100%" stop-color="#067A4A"/></radialGradient><radialGradient id="e" gradientUnits="userSpaceOnUse" cx="0" cy="0" r="12.313" fx="0" fy="0" gradientTransform="matrix(-.91872 -.3949 1.16642 -.65783 552.2 174.35)" spreadMethod="pad"><stop offset="24.706%" stop-color="#5EFF62"/><stop offset="34.902%" stop-color="#59F761"/><stop offset="50.588%" stop-color="#4BE25D"/><stop offset="69.412%" stop-color="#34C057"/><stop offset="90.98%" stop-color="#15904E"/><stop offset="100%" stop-color="#067A4A"/></radialGradient><radialGradient id="f" gradientUnits="userSpaceOnUse" cx="0" cy="0" r="23.979" fx="0" fy="0" gradientTransform="matrix(.92216 -.3868 -1.1703 -.64432 476.35 169.05)" spreadMethod="pad"><stop offset="24.706%" stop-color="#5EFF62"/><stop offset="34.902%" stop-color="#59F761"/><stop offset="50.588%" stop-color="#4BE25D"/><stop offset="69.412%" stop-color="#34C057"/><stop offset="90.98%" stop-color="#15904E"/><stop offset="100%" stop-color="#067A4A"/></radialGradient><radialGradient id="g" gradientUnits="userSpaceOnUse" cx="0" cy="0" r="23.979" fx="0" fy="0" gradientTransform="matrix(-.92216 -.3868 1.1703 -.64432 554.25 169.05)" spreadMethod="pad"><stop offset="24.706%" stop-color="#5EFF62"/><stop offset="34.902%" stop-color="#59F761"/><stop offset="50.588%" stop-color="#4BE25D"/><stop offset="69.412%" stop-color="#34C057"/><stop offset="90.98%" stop-color="#15904E"/><stop offset="100%" stop-color="#067A4A"/></radialGradient><radialGradient id="h" gradientUnits="userSpaceOnUse" cx="0" cy="0" r="19.256" fx="0" fy="0" gradientTransform="matrix(.97308 -.23045 -.91856 -.89389 491.35 168.35)" spreadMethod="pad"><stop offset="24.706%" stop-color="#5EFF62"/><stop offset="34.902%" stop-color="#59F761"/><stop offset="50.588%" stop-color="#4BE25D"/><stop offset="69.412%" stop-color="#34C057"/><stop offset="90.98%" stop-color="#15904E"/><stop offset="100%" stop-color="#067A4A"/></radialGradient><radialGradient id="i" gradientUnits="userSpaceOnUse" cx="0" cy="0" r="19.256" fx="0" fy="0" gradientTransform="matrix(-.97308 -.23045 .91856 -.89389 539.25 168.35)" spreadMethod="pad"><stop offset="24.706%" stop-color="#5EFF62"/><stop offset="34.902%" stop-color="#59F761"/><stop offset="50.588%" stop-color="#4BE25D"/><stop offset="69.412%" stop-color="#34C057"/><stop offset="90.98%" stop-color="#15904E"/><stop offset="100%" stop-color="#067A4A"/></radialGradient><radialGradient id="j" gradientUnits="userSpaceOnUse" cx="0" cy="0" r="21.875" fx="0" fy="0" gradientTransform="matrix(1 0 0 -.83029 515 167.75)" spreadMethod="pad"><stop offset="24.706%" stop-color="#5EFF62"/><stop offset="34.902%" stop-color="#59F761"/><stop offset="50.588%" stop-color="#4BE25D"/><stop offset="69.412%" stop-color="#34C057"/><stop offset="90.98%" stop-color="#15904E"/><stop offset="100%" stop-color="#067A4A"/></radialGradient><linearGradient id="k" gradientUnits="userSpaceOnUse" x1="516.2" y1="121.125" x2="516.2" y2="111.075" spreadMethod="pad"><stop offset=".392%" stop-color="#C8D692"/><stop offset="100%" stop-color="#547F24"/></linearGradient><radialGradient id="l" gradientUnits="userSpaceOnUse" cx="0" cy="0" r="23.337" fx="0" fy="0" gradientTransform="matrix(1 0 0 -1 515.7 120.15)" spreadMethod="pad"><stop offset=".392%" stop-color="#A4FFA4"/><stop offset="100%" stop-color="#262626"/></radialGradient><radialGradient id="m" gradientUnits="userSpaceOnUse" cx="0" cy="0" r="3.733" fx="0" fy="0" gradientTransform="matrix(.99797 -.06363 -.04019 -1.18551 507 111.6)" spreadMethod="pad"><stop offset="3.922%" stop-color="#E6ECA1"/><stop offset="10.98%" stop-color="#DBE497"/><stop offset="52.941%" stop-color="#9CB85D"/><stop offset="83.922%" stop-color="#759C3A"/><stop offset="100%" stop-color="#66922C"/></radialGradient><radialGradient id="n" gradientUnits="userSpaceOnUse" cx="0" cy="0" r="2.301" fx="0" fy="0" gradientTransform="matrix(.99408 -.10864 -.08148 -1.26026 503 112.1)" spreadMethod="pad"><stop offset="3.922%" stop-color="#E6ECA1"/><stop offset="10.98%" stop-color="#DBE497"/><stop offset="52.941%" stop-color="#9CB85D"/><stop offset="83.922%" stop-color="#759C3A"/><stop offset="100%" stop-color="#66922C"/></radialGradient><radialGradient id="o" gradientUnits="userSpaceOnUse" cx="0" cy="0" r="1.334" fx="0" fy="0" gradientTransform="matrix(.98402 -.17806 -.15932 -1.2558 494.8 113.4)" spreadMethod="pad"><stop offset="3.922%" stop-color="#E6ECA1"/><stop offset="10.98%" stop-color="#DBE497"/><stop offset="52.941%" stop-color="#9CB85D"/><stop offset="83.922%" stop-color="#759C3A"/><stop offset="100%" stop-color="#66922C"/></radialGradient><radialGradient id="p" gradientUnits="userSpaceOnUse" cx="0" cy="0" r="1.333" fx="0" fy="0" gradientTransform="matrix(.99365 -.11249 -.075 -1.2655 500.75 112.75)" spreadMethod="pad"><stop offset="3.922%" stop-color="#E6ECA1"/><stop offset="10.98%" stop-color="#DBE497"/><stop offset="52.941%" stop-color="#9CB85D"/><stop offset="83.922%" stop-color="#759C3A"/><stop offset="100%" stop-color="#66922C"/></radialGradient><radialGradient id="q" gradientUnits="userSpaceOnUse" cx="0" cy="0" r="1.322" fx="0" fy="0" gradientTransform="matrix(.98372 -.17972 -.1608 -1.25802 490.1 114.1)" spreadMethod="pad"><stop offset="3.922%" stop-color="#E6ECA1"/><stop offset="10.98%" stop-color="#DBE497"/><stop offset="52.941%" stop-color="#9CB85D"/><stop offset="83.922%" stop-color="#759C3A"/><stop offset="100%" stop-color="#66922C"/></radialGradient><radialGradient id="r" gradientUnits="userSpaceOnUse" cx="0" cy="0" r="2.295" fx="0" fy="0" gradientTransform="matrix(.98565 -.16881 -.16337 -1.25793 492.2 113.35)" spreadMethod="pad"><stop offset="3.922%" stop-color="#E6ECA1"/><stop offset="10.98%" stop-color="#DBE497"/><stop offset="52.941%" stop-color="#9CB85D"/><stop offset="83.922%" stop-color="#759C3A"/><stop offset="100%" stop-color="#66922C"/></radialGradient><radialGradient id="s" gradientUnits="userSpaceOnUse" cx="0" cy="0" r="1.321" fx="0" fy="0" gradientTransform="matrix(.99353 -.11355 -.0757 -1.26794 511.2 112)" spreadMethod="pad"><stop offset="3.922%" stop-color="#E6ECA1"/><stop offset="10.98%" stop-color="#DBE497"/><stop offset="52.941%" stop-color="#9CB85D"/><stop offset="83.922%" stop-color="#759C3A"/><stop offset="100%" stop-color="#66922C"/></radialGradient><radialGradient id="t" gradientUnits="userSpaceOnUse" cx="0" cy="0" r="2.289" fx="0" fy="0" gradientTransform="matrix(.99402 .10923 .12562 -1.2671 533.05 112.45)" spreadMethod="pad"><stop offset="3.922%" stop-color="#E6ECA1"/><stop offset="10.98%" stop-color="#DBE497"/><stop offset="52.941%" stop-color="#9CB85D"/><stop offset="83.922%" stop-color="#759C3A"/><stop offset="100%" stop-color="#66922C"/></radialGradient><radialGradient id="u" gradientUnits="userSpaceOnUse" cx="0" cy="0" r="1.521" fx="0" fy="0" gradientTransform="matrix(.99428 .10682 .13147 -1.26544 535.7 113)" spreadMethod="pad"><stop offset="3.922%" stop-color="#E6ECA1"/><stop offset="10.98%" stop-color="#DBE497"/><stop offset="52.941%" stop-color="#9CB85D"/><stop offset="83.922%" stop-color="#759C3A"/><stop offset="100%" stop-color="#66922C"/></radialGradient><radialGradient id="v" gradientUnits="userSpaceOnUse" cx="0" cy="0" r="1.295" fx="0" fy="0" gradientTransform="matrix(.99435 .1062 .1255 -1.26465 530.8 112.6)" spreadMethod="pad"><stop offset="3.922%" stop-color="#E6ECA1"/><stop offset="10.98%" stop-color="#DBE497"/><stop offset="52.941%" stop-color="#9CB85D"/><stop offset="83.922%" stop-color="#759C3A"/><stop offset="100%" stop-color="#66922C"/></radialGradient><radialGradient id="w" gradientUnits="userSpaceOnUse" cx="0" cy="0" r="1.082" fx="0" fy="0" gradientTransform="matrix(.9933 .1155 .12705 -1.2705 537.5 113.35)" spreadMethod="pad"><stop offset="3.922%" stop-color="#E6ECA1"/><stop offset="10.98%" stop-color="#DBE497"/><stop offset="52.941%" stop-color="#9CB85D"/><stop offset="83.922%" stop-color="#759C3A"/><stop offset="100%" stop-color="#66922C"/></radialGradient><radialGradient id="x" gradientUnits="userSpaceOnUse" cx="0" cy="0" r="1.098" fx="0" fy="0" gradientTransform="matrix(.9788 .20486 .25039 -1.24056 542.55 114.1)" spreadMethod="pad"><stop offset="3.922%" stop-color="#E6ECA1"/><stop offset="10.98%" stop-color="#DBE497"/><stop offset="52.941%" stop-color="#9CB85D"/><stop offset="83.922%" stop-color="#759C3A"/><stop offset="100%" stop-color="#66922C"/></radialGradient><radialGradient id="y" gradientUnits="userSpaceOnUse" cx="0" cy="0" r=".919" fx="0" fy="0" gradientTransform="matrix(.97898 .20395 .25834 -1.23732 544 114.5)" spreadMethod="pad"><stop offset="3.922%" stop-color="#E6ECA1"/><stop offset="10.98%" stop-color="#DBE497"/><stop offset="52.941%" stop-color="#9CB85D"/><stop offset="83.922%" stop-color="#759C3A"/><stop offset="100%" stop-color="#66922C"/></radialGradient><radialGradient id="z" gradientUnits="userSpaceOnUse" cx="0" cy="0" r=".65" fx="0" fy="0" gradientTransform="matrix(.99926 .03843 .03843 -1.2683 499.55 113.05)" spreadMethod="pad"><stop offset="3.922%" stop-color="#E6ECA1"/><stop offset="10.98%" stop-color="#DBE497"/><stop offset="52.941%" stop-color="#9CB85D"/><stop offset="83.922%" stop-color="#759C3A"/><stop offset="100%" stop-color="#66922C"/></radialGradient><radialGradient id="A" gradientUnits="userSpaceOnUse" cx="0" cy="0" r=".65" fx="0" fy="0" gradientTransform="matrix(.99982 -.01923 -.03845 -1.269 488.9 114.5)" spreadMethod="pad"><stop offset="3.922%" stop-color="#E6ECA1"/><stop offset="10.98%" stop-color="#DBE497"/><stop offset="52.941%" stop-color="#9CB85D"/><stop offset="83.922%" stop-color="#759C3A"/><stop offset="100%" stop-color="#66922C"/></radialGradient><radialGradient id="B" gradientUnits="userSpaceOnUse" cx="0" cy="0" r=".65" fx="0" fy="0" gradientTransform="matrix(.99926 .03843 .03843 -1.2683 512.75 112.2)" spreadMethod="pad"><stop offset="3.922%" stop-color="#E6ECA1"/><stop offset="10.98%" stop-color="#DBE497"/><stop offset="52.941%" stop-color="#9CB85D"/><stop offset="83.922%" stop-color="#759C3A"/><stop offset="100%" stop-color="#66922C"/></radialGradient><radialGradient id="C" gradientUnits="userSpaceOnUse" cx="0" cy="0" r=".652" fx="0" fy="0" gradientTransform="matrix(.99705 .0767 .0767 -1.28467 517.55 112.3)" spreadMethod="pad"><stop offset="3.922%" stop-color="#E6ECA1"/><stop offset="10.98%" stop-color="#DBE497"/><stop offset="52.941%" stop-color="#9CB85D"/><stop offset="83.922%" stop-color="#759C3A"/><stop offset="100%" stop-color="#66922C"/></radialGradient><linearGradient id="D" gradientUnits="userSpaceOnUse" x1="516.15" y1="114.563" x2="515.85" y2="120.338" spreadMethod="pad"><stop offset=".392%" stop-color="#C8D692"/><stop offset="100%" stop-color="#66922C"/></linearGradient><path fill="#FFF" fill-opacity="0" d="M284 320V0H0v320h284z" id="E"/><path fill="url(#a)" d="M519.5 29.9q-7.95-2.55-15.95-11.8l-6.35-8.8q-1 7.15-.05 11.5.9 4 3.85 7.1 2 2.15 7.45 6 7 5.05 10.8 8.2 16.45 13.75-1.75 22.6-5.7 2.75-14.15 4.7L496 70.8q-13.75 5.25-16.6 17.5-2.3 9.85 2.5 23.9l58.1 1.4 12.95-2.4q1.45-1.35 1.95-3.1 1.05-3.55-3.6-5.7-13.55-3.35-20.65-7.75-13.8-8.55 6.1-19.35 7.4-4.05 9.15-10.85 1.65-6.2-1.65-13.4-3.15-6.95-9.75-12.65-6.8-5.9-15-8.5z" id="F"/><path fill="#262626" d="M480.95 116.6q-1.4-1.85-6.15-1.75l1.25 1.55q1.15 2.25.85 5.6-.15 1.95 1.45 1.1 1.55-.75 2.55-2.75 1.15-2.25.05-3.75z" id="G"/><path fill="#262626" d="M557.6 114.85q-4.75-.1-6.15 1.75-1.1 1.5.05 3.75 1 2 2.55 2.75 1.6.85 1.45-1.1-.3-3.35.85-5.6l1.25-1.55z" id="H"/><path fill="url(#b)" d="M552.7 114.45q-2.45-1.35-8.4-2.7-11.85-2.75-29.2-2.75t-28.1 2.75q-3.35.85-5.7 1.85l-1.6.85q-4.2 5.75-6.45 12.45-2.3 6.95-2.3 14.3 0 17.85 13.25 27.15 11.95 8.4 32 8.4t31.95-8.4Q561.4 159 561.4 141.2q0-7.35-2.3-14.3-2.25-6.7-6.4-12.45z" id="I"/><path fill="#262626" d="M557.85 113.05q-1-3.05-13.55-4.65-11.05-1.4-28.1-1.4-15.7 0-27.7 1.8-11.85 1.8-13.95 4.4v.85q0 2.95 12.2 5 12.2 2.1 29.45 2.1t29.5-2.1q12.2-2.05 12.2-5l-.05-1z" id="J"/><path fill="url(#c)" d="M557.85 113.2q0-2.6-12.2-4.5-12.2-1.85-29.45-1.85t-29.45 1.85q-12.2 1.9-12.2 4.5 0 2.65 12.2 4.5t29.45 1.85q17.25 0 29.45-1.85t12.2-4.5z" id="K"/><path fill="#067A4A" d="M486.45 181.45q2.2 1.25 4.2 1.5 1.85.2 3.15-.45 2.3-1.15.05-1.65-4.4-1-5.25-1.45-1.85-1.05-2.75-2.3l-.65-.9q-.6.2-.65 2.05-.05 2.1 1.9 3.2z" id="L"/><path fill="url(#d)" d="M486.35 181q4.4 2.45 6.95 1.3 1.8-.8-.1-1.2-3.65-.75-4.85-1.45-1.85-1.05-2.55-2.55-.35-1.3-.5-1.25-.6.3-.75 2-.15 2.05 1.8 3.15z" id="M"/><path fill="#067A4A" d="M544.75 177.1q-.9 1.25-2.75 2.3-.85.45-5.25 1.45-2.25.5.05 1.65 1.3.65 3.15.45 2-.25 4.2-1.5 3.05-1.7 1.25-5.25l-.65.9z" id="N"/><path fill="url(#e)" d="M544.85 177.1q-.75 1.5-2.6 2.55-1.2.7-4.85 1.45-1.9.4-.1 1.2 2.55 1.15 6.95-1.3 3.1-1.75 1.05-5.15-.1.5-.45 1.25z" id="O"/><path fill="#067A4A" d="M492.1 182.6q4.25 2.35 8.2 2.8 3.55.45 6.1-.8 2.75-1.35 2.55-2.1-.1-.6-2.45-1.1-8.55-1.8-10.25-2.75-3.6-1.95-5.3-4.4-1.25-1.7-1.3-1.7-1.1.5-1.25 3.9-.1 4.05 3.7 6.15z" id="P"/><path fill="url(#f)" d="M495.8 179.15q-3.65-2-5.05-4.95-.7-2.4-.95-2.3-1.15.55-1.45 3.75-.3 3.9 3.5 6 8.6 4.7 13.6 2.55 2.25-.95 2-1.45-.15-.4-2.2-.85-7.15-1.5-9.45-2.75z" id="Q"/><path fill="#067A4A" d="M521.65 182.5q-.2.75 2.55 2.1 2.55 1.25 6.1.8 3.95-.45 8.2-2.8 3.8-2.1 3.7-6.15-.15-3.4-1.25-3.9-.05 0-1.25 1.7-1.75 2.45-5.35 4.4-1.7.95-10.25 2.75-2.35.5-2.45 1.1z" id="R"/><path fill="url(#g)" d="M523.15 182.75q-.2.5 2 1.45 5 2.15 13.6-2.55 3.8-2.1 3.5-6-.3-3.2-1.45-3.75-.25.9-.95 2.3-1.4 2.95-5.05 4.95-2.25 1.25-9.45 2.75-2.05.45-2.2.85z" id="S"/><path fill="#067A4A" d="M508.95 180.15q-3.45-1.8-6.75-4.45-2.55-2.1-2.65-2.05-.8.15-1.05 3.2-.35 3.5 1.9 5.7 4.85 4.75 9.65 3.55 3.4-.75 2.35-3.35-.5-1.1-3.45-2.6z" id="T"/><path fill="url(#h)" d="M507.75 179.95q-3.3-1.9-5.95-4.7-2.1-2.2-2.15-2.2-.75.2-1.1 3.1-.35 3.45 1.9 5.65 4.85 4.75 9 3.7 2.65-.6 1.95-2.65-.25-.9-3.65-2.9z" id="U"/><path fill="#067A4A" d="M518.2 182.75q-1.05 2.6 2.35 3.35 4.8 1.25 9.65-3.55 3.55-3.45.85-8.9-.1-.05-2.65 2.05-3.3 2.65-6.75 4.45-2.95 1.5-3.45 2.6z" id="V"/><path fill="url(#i)" d="M519.2 182.85q-.65 2.05 1.95 2.65 4.1 1.05 9.05-3.7 3.5-3.45.75-8.75-.05 0-2.15 2.2-2.65 2.8-5.95 4.7-3.4 2-3.65 2.9z" id="W"/><path fill="#067A4A" d="M520.9 181.8q0-2.2-2.7-5.2-2.4-2.6-3.1-2.6-.7 0-2.9 2.6-2.5 2.95-2.5 5.2 0 4.75 5.4 4.75 2.5 0 4.05-1.1 1.75-1.2 1.75-3.65z" id="X"/><path fill="url(#j)" d="M520.15 181.2q0-2.25-2.35-5.2-2.05-2.6-2.7-2.6-.6 0-2.5 2.6-2.15 2.95-2.15 5.2 0 4.75 4.65 4.75 2.2 0 3.55-1.1 1.5-1.2 1.5-3.65z" id="Y"/><path fill="url(#k)" d="M549.1 117.1q-1.25-2.05-10.6-3.3-9.1-1.25-22.2-1.25T494 113.8q-9.5 1.25-10.75 3.3 12.5 2.45 32.95 2.45 20.4 0 32.9-2.45z" id="Z"/><path fill="url(#l)" d="M548.7 119.4l-.15-.9q-12.55 2.45-32.85 2.45-20.25 0-32.8-2.45l-.2.9q12.65 2.45 33 2.45t33-2.45z" id="aa"/><path fill="url(#m)" d="M510.25 112.5q-.05-1.25-.85-2.05-.75-.8-1.75-.75-1 .1-1.7 1t-.65 2.1q.05 1.1 1 1.6.75.35 1.65.3.85-.05 1.5-.5.85-.6.8-1.7z" id="ab"/><path fill="url(#n)" d="M505 112.65q-.05-.8-.5-1.3-.5-.5-1.1-.45-.65.05-1.05.65-.4.65-.35 1.45.05.7.65 1 .45.25 1 .15.55-.05.9-.35.5-.45.45-1.15z" id="ac"/><path fill="url(#o)" d="M496 113.65q-.05-.45-.35-.75-.3-.25-.65-.2-.35.05-.6.4-.2.4-.15.85.1.8 1 .65.85-.25.75-.95z" id="ad"/><path fill="url(#p)" d="M501.9 113.1q-.1-1.15-.95-1.05-.35.05-.6.4-.25.35-.2.85.05.8.95.65.85-.1.8-.85z" id="ae"/><path fill="url(#q)" d="M491.3 114.35q-.05-.45-.35-.75-.35-.25-.7-.2-.35.1-.55.45-.2.35-.15.8.05.8 1 .65.8-.15.75-.95z" id="af"/><path fill="url(#r)" d="M494.25 113.75q-.1-.8-.6-1.25-.5-.5-1.15-.4-.65.1-1 .75t-.25 1.45q.1 1.35 1.75 1.05.5-.05.9-.4.45-.45.35-1.2z" id="ag"/><path fill="url(#s)" d="M512.4 112.35q-.05-.45-.3-.75-.3-.3-.65-.25-.35 0-.6.35t-.25.85q.05.4.4.55.3.15.6.1.8 0 .8-.85z" id="ah"/><path fill="url(#t)" d="M534.9 113.45q.1-.8-.3-1.4-.35-.6-1-.7-.65-.05-1.15.45-.45.5-.55 1.3-.05.75.5 1.15.4.35.95.4 1.4.15 1.55-1.2z" id="ai"/><path fill="url(#u)" d="M536.95 113.65q.05-.5-.2-.9-.3-.4-.7-.45-.4-.05-.75.3-.3.3-.4.85-.05.5.35.75.3.25.65.25.95.15 1.05-.8z" id="aj"/><path fill="url(#v)" d="M531.9 113.2q.05-.5-.2-.8-.2-.35-.55-.4-.35-.05-.65.25-.3.3-.35.75-.05.4.3.65.25.2.55.2.75.15.9-.65z" id="ak"/><path fill="url(#w)" d="M538.4 113.8q.1-.9-.6-1-.3-.05-.55.2-.25.3-.3.65-.05.6.7.75.7 0 .75-.6z" id="al"/><path fill="url(#x)" d="M543.35 114.65q.2-.9-.5-1.05-.3-.05-.55.15-.25.2-.35.6-.2.65.6.8.65.15.8-.5z" id="am"/><path fill="url(#y)" d="M544.7 114.95q.2-.75-.45-.85-.55-.15-.75.6-.1.55.5.7.6 0 .7-.45z" id="an"/><path fill="url(#z)" d="M500.1 113.35q0-.6-.45-.6-.4 0-.4.55-.05.4.4.4t.45-.35z" id="ao"/><path fill="url(#A)" d="M489.5 114.7q0-.55-.45-.55-.45.1-.45.6.05.35.5.35.4 0 .4-.4z" id="ap"/><path fill="url(#B)" d="M513.3 112.45q0-.6-.45-.6-.35 0-.45.55 0 .4.45.4t.45-.35z" id="aq"/><path fill="url(#C)" d="M518.1 112.55q0-.55-.45-.55-.35-.1-.45.5 0 .4.45.4.35.15.45-.35z" id="ar"/><path fill="url(#D)" d="M510.95 115.6q1.75-.05 14.85.25 11.65.2 9.3-.35-5.65-.45-13.15-.6-15.05-.3-24.5 1.25-.5.1-.75.25-.45.25.75.5 1.6.3 10.35.35 9.25.05 17.75-.25 7.8-.25 5.95.35-1.9.65-5.05.65-11.65 0-22-.25-.55 0-.9.1-.7.2.2.65 1.7.9 17 .45 15.45-.4 14.7-1.7-.65-1.15-12.95-1-12.75.4-13.95.2-1.75-.3-.95-.55.7-.2 3.35-.3z" id="as"/></defs><use xlink:href="#E"/><use xlink:href="#F" transform="matrix(1.67078 0 0 1.67078 -720.352 6.512)"/><use xlink:href="#G" transform="matrix(1.67078 0 0 1.67078 -720.352 6.512)"/><use xlink:href="#H" transform="matrix(1.67078 0 0 1.67078 -720.352 6.512)"/><use xlink:href="#I" transform="matrix(1.67078 0 0 1.67078 -720.352 6.512)"/><use xlink:href="#J" transform="matrix(1.67078 0 0 1.67078 -720.352 6.512)"/><use xlink:href="#K" transform="matrix(1.67078 0 0 1.67078 -720.352 6.512)"/><use xlink:href="#L" transform="matrix(1.67078 0 0 1.67078 -720.352 6.512)"/><use xlink:href="#M" transform="matrix(1.67078 0 0 1.67078 -720.352 6.512)"/><use xlink:href="#N" transform="matrix(1.67078 0 0 1.67078 -720.352 6.512)"/><use xlink:href="#O" transform="matrix(1.67078 0 0 1.67078 -720.352 6.512)"/><use xlink:href="#P" transform="matrix(1.67078 0 0 1.67078 -720.352 6.512)"/><use xlink:href="#Q" transform="matrix(1.67078 0 0 1.67078 -720.352 6.512)"/><use xlink:href="#R" transform="matrix(1.67078 0 0 1.67078 -720.352 6.512)"/><use xlink:href="#S" transform="matrix(1.67078 0 0 1.67078 -720.352 6.512)"/><use xlink:href="#T" transform="matrix(1.67078 0 0 1.67078 -720.352 6.512)"/><use xlink:href="#U" transform="matrix(1.67078 0 0 1.67078 -720.352 6.512)"/><use xlink:href="#V" transform="matrix(1.67078 0 0 1.67078 -720.352 6.512)"/><use xlink:href="#W" transform="matrix(1.67078 0 0 1.67078 -720.352 6.512)"/><use xlink:href="#X" transform="matrix(1.67078 0 0 1.67078 -720.352 6.512)"/><use xlink:href="#Y" transform="matrix(1.67078 0 0 1.67078 -720.352 6.512)"/><use xlink:href="#Z" transform="matrix(1.67078 0 0 1.67078 -720.352 6.512)"/><use xlink:href="#aa" transform="matrix(1.67078 0 0 1.67078 -720.352 6.512)"/><use xlink:href="#ab" transform="matrix(1.67078 0 0 1.67078 -720.352 6.512)"/><use xlink:href="#ac" transform="matrix(1.67078 0 0 1.67078 -720.352 6.512)"/><use xlink:href="#ad" transform="matrix(1.67078 0 0 1.67078 -720.352 6.512)"/><use xlink:href="#ae" transform="matrix(1.67078 0 0 1.67078 -720.352 6.512)"/><use xlink:href="#af" transform="matrix(1.67078 0 0 1.67078 -720.352 6.512)"/><use xlink:href="#ag" transform="matrix(1.67078 0 0 1.67078 -720.352 6.512)"/><use xlink:href="#ah" transform="matrix(1.67078 0 0 1.67078 -720.352 6.512)"/><use xlink:href="#ai" transform="matrix(1.67078 0 0 1.67078 -720.352 6.512)"/><use xlink:href="#aj" transform="matrix(1.67078 0 0 1.67078 -720.352 6.512)"/><use xlink:href="#ak" transform="matrix(1.67078 0 0 1.67078 -720.352 6.512)"/><use xlink:href="#al" transform="matrix(1.67078 0 0 1.67078 -720.352 6.512)"/><use xlink:href="#am" transform="matrix(1.67078 0 0 1.67078 -720.352 6.512)"/><use xlink:href="#an" transform="matrix(1.67078 0 0 1.67078 -720.352 6.512)"/><use xlink:href="#ao" transform="matrix(1.67078 0 0 1.67078 -720.352 6.512)"/><use xlink:href="#ap" transform="matrix(1.67078 0 0 1.67078 -720.352 6.512)"/><use xlink:href="#aq" transform="matrix(1.67078 0 0 1.67078 -720.352 6.512)"/><use xlink:href="#ar" transform="matrix(1.67078 0 0 1.67078 -720.352 6.512)"/><use xlink:href="#as" transform="matrix(1.67078 0 0 1.67078 -720.352 6.512)"/></svg>