<svg xmlns="http://www.w3.org/2000/svg" xmlns:xlink="http://www.w3.org/1999/xlink" preserveAspectRatio="none" width="284" height="320"><defs><linearGradient id="a" gradientUnits="userSpaceOnUse" x1="151.4" y1="788.337" x2="143.5" y2="816.462" spreadMethod="pad"><stop offset="0%" stop-color="#D9B779"/><stop offset="70.98%" stop-color="#8A6116"/></linearGradient><linearGradient id="b" gradientUnits="userSpaceOnUse" x1="133.65" y1="818.075" x2="155.95" y2="787.825" spreadMethod="pad"><stop offset="0%" stop-color="#784E3D"/><stop offset="70.98%" stop-color="#3D2216"/></linearGradient><linearGradient id="c" gradientUnits="userSpaceOnUse" x1="112.325" y1="773.4" x2="139.875" y2="773.4" spreadMethod="pad"><stop offset="0%" stop-color="#D9B779"/><stop offset="70.98%" stop-color="#8A6116"/></linearGradient><linearGradient id="d" gradientUnits="userSpaceOnUse" x1="118.212" y1="782.587" x2="127.388" y2="772.212" spreadMethod="pad"><stop offset="0%" stop-color="#784E3D"/><stop offset="70.98%" stop-color="#3D2216"/></linearGradient><linearGradient id="e" gradientUnits="userSpaceOnUse" x1="103.388" y1="795.3" x2="137.113" y2="795.3" spreadMethod="pad"><stop offset="0%" stop-color="#D9B779"/><stop offset="70.98%" stop-color="#8A6116"/></linearGradient><linearGradient id="f" gradientUnits="userSpaceOnUse" x1="108.825" y1="819.438" x2="128.975" y2="781.563" spreadMethod="pad"><stop offset="0%" stop-color="#784E3D"/><stop offset="70.98%" stop-color="#3D2216"/></linearGradient><linearGradient id="g" gradientUnits="userSpaceOnUse" x1="43.7" y1="832.775" x2="121.6" y2="702.425" spreadMethod="pad"><stop offset="17.647%" stop-color="#F0D68B"/><stop offset="70.98%" stop-color="#B09055"/><stop offset="87.451%" stop-color="#BFA169"/></linearGradient><linearGradient id="h" gradientUnits="userSpaceOnUse" x1="3.35" y1="696.825" x2="172.95" y2="801.875" spreadMethod="pad"><stop offset="0%" stop-color="#F2D399"/><stop offset="38.824%" stop-color="#FFDC9B"/><stop offset="51.373%" stop-color="#DEBC7D"/><stop offset="71.373%" stop-color="#F9D89A"/><stop offset="100%" stop-color="#D9B779"/></linearGradient><linearGradient id="i" gradientUnits="userSpaceOnUse" x1="83.1" y1="762.95" x2="111.8" y2="762.95" spreadMethod="pad"><stop offset="0%" stop-color="#D9B779"/><stop offset="70.98%" stop-color="#8A6116"/></linearGradient><linearGradient id="j" gradientUnits="userSpaceOnUse" x1="89.213" y1="772.288" x2="104.188" y2="756.712" spreadMethod="pad"><stop offset="0%" stop-color="#784E3D"/><stop offset="70.98%" stop-color="#3D2216"/></linearGradient><linearGradient id="k" gradientUnits="userSpaceOnUse" x1="66.9" y1="782.3" x2="103.6" y2="782.3" spreadMethod="pad"><stop offset="0%" stop-color="#D9B779"/><stop offset="70.98%" stop-color="#8A6116"/></linearGradient><linearGradient id="l" gradientUnits="userSpaceOnUse" x1="69.563" y1="782.4" x2="102.238" y2="782.4" spreadMethod="pad"><stop offset="0%" stop-color="#784E3D"/><stop offset="70.98%" stop-color="#3D2216"/></linearGradient><linearGradient id="m" gradientUnits="userSpaceOnUse" x1="67.388" y1="751.45" x2="85.413" y2="740.75" spreadMethod="pad"><stop offset="0%" stop-color="#784E3D"/><stop offset="70.98%" stop-color="#3D2216"/></linearGradient><linearGradient id="n" gradientUnits="userSpaceOnUse" x1="61.725" y1="745.7" x2="80.275" y2="745.7" spreadMethod="pad"><stop offset="0%" stop-color="#D9B779"/><stop offset="70.98%" stop-color="#8A6116"/></linearGradient><linearGradient id="o" gradientUnits="userSpaceOnUse" x1="53.475" y1="721.15" x2="76.225" y2="721.15" spreadMethod="pad"><stop offset="0%" stop-color="#D9B779"/><stop offset="70.98%" stop-color="#8A6116"/></linearGradient><linearGradient id="p" gradientUnits="userSpaceOnUse" x1="33" y1="759.85" x2="72.3" y2="759.85" spreadMethod="pad"><stop offset="0%" stop-color="#D9B779"/><stop offset="70.98%" stop-color="#8A6116"/></linearGradient><linearGradient id="q" gradientUnits="userSpaceOnUse" x1="41.087" y1="776.788" x2="59.113" y2="750.512" spreadMethod="pad"><stop offset="0%" stop-color="#784E3D"/><stop offset="70.98%" stop-color="#3D2216"/></linearGradient><linearGradient id="r" gradientUnits="userSpaceOnUse" x1="40.175" y1="692.063" x2="60.025" y2="702.138" spreadMethod="pad"><stop offset="0%" stop-color="#784E3D"/><stop offset="70.98%" stop-color="#3D2216"/></linearGradient><linearGradient id="s" gradientUnits="userSpaceOnUse" x1="31.175" y1="694.35" x2="59.125" y2="694.35" spreadMethod="pad"><stop offset="0%" stop-color="#D9B779"/><stop offset="70.98%" stop-color="#8A6116"/></linearGradient><linearGradient id="t" gradientUnits="userSpaceOnUse" x1="22.7" y1="726.25" x2="48.4" y2="726.25" spreadMethod="pad"><stop offset="0%" stop-color="#784E3D"/><stop offset="70.98%" stop-color="#3D2216"/></linearGradient><linearGradient id="u" gradientUnits="userSpaceOnUse" x1="50.575" y1="714.887" x2="26.225" y2="728.712" spreadMethod="pad"><stop offset="0%" stop-color="#D9B779"/><stop offset="70.98%" stop-color="#8A6116"/></linearGradient><linearGradient id="v" gradientUnits="userSpaceOnUse" x1="53.025" y1="723.787" x2="67.375" y2="719.813" spreadMethod="pad"><stop offset="0%" stop-color="#784E3D"/><stop offset="70.98%" stop-color="#3D2216"/></linearGradient><linearGradient id="w" gradientUnits="userSpaceOnUse" x1="9.213" y1="781.45" x2="152.588" y2="781.45" spreadMethod="pad"><stop offset="0%" stop-color="#D9B779"/><stop offset="70.98%" stop-color="#8A6116"/></linearGradient><linearGradient id="x" gradientUnits="userSpaceOnUse" x1="141.213" y1="831.6" x2="178.588" y2="799.5" spreadMethod="pad"><stop offset="0%" stop-color="#D9B779"/><stop offset="70.98%" stop-color="#8A6116"/><stop offset="100%" stop-color="#8C1313"/></linearGradient><linearGradient id="y" gradientUnits="userSpaceOnUse" x1="16.45" y1="749.9" x2="175.85" y2="749.9" spreadMethod="pad"><stop offset="0%" stop-color="#8C6A2B"/><stop offset="23.137%" stop-color="#BFA15C"/><stop offset="70.98%" stop-color="#8C6A2B"/></linearGradient><linearGradient id="z" gradientUnits="userSpaceOnUse" x1="2.287" y1="747.588" x2="108.713" y2="747.813" spreadMethod="pad"><stop offset="0%" stop-color="#FFE8BD"/><stop offset="38.824%" stop-color="#FFDC9B"/><stop offset="60%" stop-color="#DEBC7D"/><stop offset="100%" stop-color="#D9B779"/></linearGradient><linearGradient id="A" gradientUnits="userSpaceOnUse" x1="166.188" y1="745.55" x2="57.512" y2="732.05" spreadMethod="pad"><stop offset="0%" stop-color="#7C050C"/><stop offset="100%" stop-color="#AE0D20"/></linearGradient><radialGradient id="B" gradientUnits="userSpaceOnUse" cx="0" cy="0" r="159.299" fx="-86.82" fy="1.492" gradientTransform="scale(-1 1) rotate(.985 -42466.067 -7566.556)" spreadMethod="pad"><stop offset="0%" stop-color="#E3112A"/><stop offset="41.176%" stop-color="#AE0D20"/><stop offset="59.216%" stop-color="#980917"/><stop offset="73.333%" stop-color="#91060E"/><stop offset="100%" stop-color="#C70D20"/></radialGradient><radialGradient id="C" gradientUnits="userSpaceOnUse" cx="0" cy="0" r="159.299" fx="-86.82" fy="1.492" gradientTransform="scale(-1 1) rotate(.985 -42553.673 -7603.627)" spreadMethod="pad"><stop offset="0%" stop-color="#FF132F"/><stop offset="41.176%" stop-color="#C70F25"/><stop offset="73.333%" stop-color="#AD0711"/><stop offset="100%" stop-color="#E30F24"/></radialGradient><linearGradient id="D" gradientUnits="userSpaceOnUse" x1="218.175" y1="756.375" x2="231.525" y2="777.125" spreadMethod="pad"><stop offset="0%" stop-color="#F9CC56"/><stop offset="27.059%" stop-color="#FCE996"/><stop offset="51.765%" stop-color="#F9CC56"/><stop offset="100%" stop-color="#D1910F"/></linearGradient><linearGradient id="E" gradientUnits="userSpaceOnUse" x1="226.912" y1="764.638" x2="104.787" y2="669.763" spreadMethod="pad"><stop offset="0%" stop-color="#7C050C"/><stop offset="100%" stop-color="#C90F25"/></linearGradient><linearGradient id="F" gradientUnits="userSpaceOnUse" x1="208.537" y1="762.588" x2="221.862" y2="783.313" spreadMethod="pad"><stop offset="0%" stop-color="#F9CC56"/><stop offset="27.059%" stop-color="#FCE996"/><stop offset="51.765%" stop-color="#F9CC56"/><stop offset="100%" stop-color="#D1910F"/></linearGradient><linearGradient id="G" gradientUnits="userSpaceOnUse" x1="218.363" y1="775.587" x2="96.238" y2="680.712" spreadMethod="pad"><stop offset="0%" stop-color="#7C050C"/><stop offset="100%" stop-color="#C90F25"/></linearGradient><linearGradient id="H" gradientUnits="userSpaceOnUse" x1="112.275" y1="703.863" x2="256.925" y2="785.337" spreadMethod="pad"><stop offset="0%" stop-color="#B57014"/><stop offset="36.863%" stop-color="#EEB401"/><stop offset="64.314%" stop-color="#FFE8A1"/><stop offset="65.882%" stop-color="#EBB002"/><stop offset="100%" stop-color="#B06B16"/></linearGradient><linearGradient id="I" gradientUnits="userSpaceOnUse" x1="108.088" y1="711.375" x2="252.713" y2="792.825" spreadMethod="pad"><stop offset="0%" stop-color="#B57014"/><stop offset="36.863%" stop-color="#EEB401"/><stop offset="64.314%" stop-color="#FFE8A1"/><stop offset="65.882%" stop-color="#EBB002"/><stop offset="100%" stop-color="#B06B16"/></linearGradient><linearGradient id="J" gradientUnits="userSpaceOnUse" x1="118.688" y1="692.525" x2="263.313" y2="773.975" spreadMethod="pad"><stop offset="0%" stop-color="#B57014"/><stop offset="36.863%" stop-color="#EEB401"/><stop offset="64.314%" stop-color="#FFE8A1"/><stop offset="65.882%" stop-color="#EBB002"/><stop offset="100%" stop-color="#B06B16"/></linearGradient><linearGradient id="K" gradientUnits="userSpaceOnUse" x1="116.012" y1="697.738" x2="259.688" y2="778.663" spreadMethod="pad"><stop offset="0%" stop-color="#B57014"/><stop offset="36.863%" stop-color="#EEB401"/><stop offset="64.314%" stop-color="#FFE8A1"/><stop offset="65.882%" stop-color="#EBB002"/><stop offset="100%" stop-color="#B06B16"/></linearGradient><linearGradient id="L" gradientUnits="userSpaceOnUse" x1="113.688" y1="701.375" x2="258.313" y2="782.825" spreadMethod="pad"><stop offset="0%" stop-color="#B57014"/><stop offset="36.863%" stop-color="#EEB401"/><stop offset="64.314%" stop-color="#FFE8A1"/><stop offset="65.882%" stop-color="#EBB002"/><stop offset="100%" stop-color="#B06B16"/></linearGradient><linearGradient id="M" gradientUnits="userSpaceOnUse" x1="199.037" y1="768.688" x2="212.362" y2="789.412" spreadMethod="pad"><stop offset="0%" stop-color="#F9CC56"/><stop offset="27.059%" stop-color="#FCE996"/><stop offset="51.765%" stop-color="#F9CC56"/><stop offset="100%" stop-color="#D1910F"/></linearGradient><linearGradient id="N" gradientUnits="userSpaceOnUse" x1="228.563" y1="762.487" x2="106.438" y2="667.612" spreadMethod="pad"><stop offset="0%" stop-color="#7C050C"/><stop offset="100%" stop-color="#C90F25"/></linearGradient><linearGradient id="O" gradientUnits="userSpaceOnUse" x1="221.213" y1="771.875" x2="99.088" y2="677.025" spreadMethod="pad"><stop offset="0%" stop-color="#7C050C"/><stop offset="100%" stop-color="#C90F25"/></linearGradient><linearGradient id="P" gradientUnits="userSpaceOnUse" x1="62.575" y1="660.1" x2="99.325" y2="660.1" spreadMethod="pad"><stop offset="0%" stop-color="#F9CC56"/><stop offset="27.059%" stop-color="#FCE996"/><stop offset="51.765%" stop-color="#F9CC56"/><stop offset="100%" stop-color="#D1910F"/></linearGradient><linearGradient id="Q" gradientUnits="userSpaceOnUse" x1="238.625" y1="752.225" x2="192.675" y2="740.875" spreadMethod="pad"><stop offset="0%" stop-color="#7C050C"/><stop offset="100%" stop-color="#AE0D20"/></linearGradient><linearGradient id="R" gradientUnits="userSpaceOnUse" x1="108.088" y1="675.737" x2="96.313" y2="662.063" spreadMethod="pad"><stop offset="0%" stop-color="#EEB401"/><stop offset="100%" stop-color="#B06B16"/></linearGradient><linearGradient id="S" gradientUnits="userSpaceOnUse" x1="108.138" y1="703.863" x2="77.263" y2="739.538" spreadMethod="pad"><stop offset="0%" stop-color="#E39622"/><stop offset="10.98%" stop-color="#F9CC56"/><stop offset="32.549%" stop-color="#FCE996"/><stop offset="36.863%" stop-color="#FBDC79"/><stop offset="51.765%" stop-color="#F9CC56"/><stop offset="86.275%" stop-color="#D1910F"/></linearGradient><linearGradient id="T" gradientUnits="userSpaceOnUse" x1="170.688" y1="733.738" x2="140.313" y2="704.962" spreadMethod="pad"><stop offset="0%" stop-color="#E39622"/><stop offset="10.98%" stop-color="#F9CC56"/><stop offset="32.549%" stop-color="#FCE996"/><stop offset="36.863%" stop-color="#FBDC79"/><stop offset="51.765%" stop-color="#F9CC56"/><stop offset="86.275%" stop-color="#D1910F"/></linearGradient><linearGradient id="U" gradientUnits="userSpaceOnUse" x1="125.287" y1="700.475" x2="154.412" y2="739.325" spreadMethod="pad"><stop offset="0%" stop-color="#E39622"/><stop offset="10.98%" stop-color="#F9CC56"/><stop offset="32.549%" stop-color="#FCE996"/><stop offset="36.863%" stop-color="#FBDC79"/><stop offset="51.765%" stop-color="#F9CC56"/><stop offset="86.275%" stop-color="#D1910F"/></linearGradient><linearGradient id="V" gradientUnits="userSpaceOnUse" x1="165.525" y1="697.475" x2="130.675" y2="682.825" spreadMethod="pad"><stop offset="0%" stop-color="#E39622"/><stop offset="10.98%" stop-color="#F9CC56"/><stop offset="32.549%" stop-color="#FCE996"/><stop offset="36.863%" stop-color="#FBDC79"/><stop offset="51.765%" stop-color="#F9CC56"/><stop offset="86.275%" stop-color="#D1910F"/></linearGradient><linearGradient id="W" gradientUnits="userSpaceOnUse" x1="143.925" y1="681.163" x2="158.275" y2="668.038" spreadMethod="pad"><stop offset="0%" stop-color="#DBA92A"/><stop offset="58.431%" stop-color="#FBDE7F"/><stop offset="71.765%" stop-color="#F9CC56"/><stop offset="100%" stop-color="#BF7300"/></linearGradient><linearGradient id="X" gradientUnits="userSpaceOnUse" x1="95.975" y1="653.688" x2="116.725" y2="672.112" spreadMethod="pad"><stop offset="0%" stop-color="#DBA92A"/><stop offset="41.961%" stop-color="#FBDE7F"/><stop offset="64.314%" stop-color="#F9CC56"/><stop offset="100%" stop-color="#BF7300"/></linearGradient><linearGradient id="Y" gradientUnits="userSpaceOnUse" x1="75.9" y1="679.337" x2="100.6" y2="687.163" spreadMethod="pad"><stop offset="0%" stop-color="#F9CC56"/><stop offset="27.059%" stop-color="#FCE996"/><stop offset="51.765%" stop-color="#F9CC56"/><stop offset="100%" stop-color="#D1910F"/></linearGradient><linearGradient id="Z" gradientUnits="userSpaceOnUse" x1="165.988" y1="704.138" x2="127.813" y2="696.862" spreadMethod="pad"><stop offset="0%" stop-color="#B57014"/><stop offset="32.157%" stop-color="#EEB401"/><stop offset="47.843%" stop-color="#EBB002"/><stop offset="100%" stop-color="#B06B16"/></linearGradient><linearGradient id="aa" gradientUnits="userSpaceOnUse" x1="73.45" y1="684.938" x2="110.25" y2="704.463" spreadMethod="pad"><stop offset="0%" stop-color="#B57014"/><stop offset="32.157%" stop-color="#EEB401"/><stop offset="47.843%" stop-color="#EBB002"/><stop offset="100%" stop-color="#B06B16"/></linearGradient><linearGradient id="ab" gradientUnits="userSpaceOnUse" x1="114.987" y1="705.325" x2="114.212" y2="687.075" spreadMethod="pad"><stop offset="0%" stop-color="#B57014"/><stop offset="87.843%" stop-color="#EEB401"/></linearGradient><linearGradient id="ac" gradientUnits="userSpaceOnUse" x1="117.425" y1="702.337" x2="127.075" y2="679.863" spreadMethod="pad"><stop offset=".392%" stop-color="#F9AC39"/><stop offset="9.804%" stop-color="#F9CC56"/><stop offset="30.588%" stop-color="#FCE996"/><stop offset="51.765%" stop-color="#F9CC56"/><stop offset="100%" stop-color="#D1910F"/></linearGradient><linearGradient id="ad" gradientUnits="userSpaceOnUse" x1="73.35" y1="674.338" x2="90.75" y2="677.063" spreadMethod="pad"><stop offset="9.02%" stop-color="#FAF5D2"/><stop offset="61.961%" stop-color="#FCE996"/><stop offset="100%" stop-color="#F9CC56"/></linearGradient><path fill="#FFF" fill-opacity="0" d="M284 320V0H0v320h284z" id="ae"/><path fill="url(#a)" d="M146.5 789.15q-2.8-.5-4.3.55t-2.1 3.9q-1.15 4.95-1.7 8.45-.65 3.85-.55 4.9.2 2.55 2.7 3.6 2.05.9 4.25 1.2 2.9.4 4.65-.65 2.95-1.8 6-7.35 2.25-4.15 4.15-9.5.5-1.45-6.25-3.45l-6.85-1.65m-2.7 1.5q1.3-.9 3.6-.4l5.55 1.65q5.45 1.85 5 3.15-1.7 4.7-3.65 8.35-2.65 4.9-5.15 6.4-1.4.85-3.8.45-1.7-.3-3.4-1.15-2.05-1-2.15-3.3-.05-.9.6-4.35.6-3.3 1.6-7.45.55-2.5 1.8-3.35z" id="af"/><path fill="url(#b)" d="M147.4 790.25q-2.3-.5-3.6.4-1.25.85-1.8 3.35-1 4.15-1.6 7.45-.65 3.45-.6 4.35.1 2.3 2.15 3.3 1.7.85 3.4 1.15 2.4.4 3.8-.45 2.5-1.5 5.15-6.4 1.95-3.65 3.65-8.35.45-1.3-5-3.15l-5.55-1.65z" id="ag"/><path fill="url(#c)" d="M116.35 763.7q-3.35 6.75-3.85 9.2-.95 4.8 3.15 6.6 3.9 1.7 10.75 2.95 8.15 1.45 10.8-.15 1.4-.85 2.15-6.35.6-4.25.55-8.35l-23.55-3.9m.95 14q-3.65-1.9-2.8-5.85.5-2.4 3.65-7.8l20.55 5.85q-.35 5.25-.5 6.3-.55 3.65-1.8 4.25-2.55 1.25-9.6 0-6.45-1.15-9.5-2.75z" id="ah"/><path fill="url(#d)" d="M118.15 764.05q-3.15 5.4-3.65 7.8-.85 3.95 2.8 5.85 3.05 1.6 9.5 2.75 7.05 1.25 9.6 0 1.25-.6 1.8-4.25.15-1.05.5-6.3l-20.55-5.85z" id="ai"/><path fill="url(#e)" d="M115.45 782.6q-2.75-.95-4-.6-.45.15-1.85 1.35-1.05.85-3.2 5.7-1.1 2.45-2 4.7-1.25 3.15-.95 4.9.3 1.85 2.45 3.1 2.55 1.45 8.8 3.5 7.8 2.5 14.4 3.35 2.25.3 3.15-.15.75-.35 1.2-1.65.5-1.3 2.05-8.5 1.7-7.6 1.6-8.85-.2-2.2-3.2-2.65-4.35-.6-9.9-1.85-5.2-1.2-8.55-2.35m-7.3 7.2q1.9-4.15 2.8-4.85 1.3-1 1.65-1.1 1.15-.25 3.6.55 2.95 1.05 7.75 2.15 4.9 1.15 8.95 1.75 2.7.45 2.9 2.35.15 1.05-1.25 7.55-1.35 6.05-1.75 7.2-.4 1.1-1.05 1.4-.8.4-2.85.1-5.95-.85-13-3.1-5.7-1.85-8-3.15-1.95-1.1-2.25-2.65-.25-1.5.8-4.2.75-1.9 1.7-4z" id="aj"/><path fill="url(#f)" d="M116.2 784.4q-2.45-.8-3.6-.55-.35.1-1.65 1.1-.9.7-2.8 4.85-.95 2.1-1.7 4-1.05 2.7-.8 4.2.3 1.55 2.25 2.65 2.3 1.3 8 3.15 7.05 2.25 13 3.1 2.05.3 2.85-.1.65-.3 1.05-1.4.4-1.15 1.75-7.2 1.4-6.5 1.25-7.55-.2-1.9-2.9-2.35-4.05-.6-8.95-1.75-4.8-1.1-7.75-2.15z" id="ak"/><path fill="url(#g)" d="M59.85 677.75q-11.95 3-18.15 5.25-10 3.6-16.65 8.6-7.7 5.75-11.65 13.4-3.95 7.6-4.05 16.65-.05 3.4.45 6.9 1.8 12.4 9.7 25.2 6.8 11 17.25 20.95 11.8 11.25 28.9 20.55 13.2 7.25 32.35 14.7 25.1 9.75 48.7 15.3l3.05.7q9.15-7.8 16.65-19.9 6.9-11.1 11.2-23.8.95-2.7 1.85-6.8 1.05-4.6 1.55-6.8l-121.15-90.9m-12.95 8.6q5.75-2.05 16.8-4.8l112.55 83.8q-.5 2.05-1.45 6.3-.9 3.8-1.75 6.3-4 11.7-10.35 21.9-7 11.15-15.5 18.35l-2.85-.65q-21.7-5.1-45.15-14.1-17.85-6.9-30.1-13.55-15.85-8.6-26.8-18.95-9.65-9.15-16-19.3-7.35-11.8-9.05-23.25-.7-5.2-.25-9.75 1.5-14.7 14.4-24.35 6.15-4.6 15.5-7.95z" id="al"/><path fill="url(#h)" d="M63.7 681.55q-11.05 2.75-16.8 4.8-9.35 3.35-15.5 7.95-12.9 9.65-14.4 24.35-.45 4.55.25 9.75 1.7 11.45 9.05 23.25 6.35 10.15 16 19.3 10.95 10.35 26.8 18.95 12.25 6.65 30.1 13.55 23.45 9 45.15 14.1l2.85.65q8.5-7.2 15.5-18.35 6.35-10.2 10.35-21.9.85-2.5 1.75-6.3.95-4.25 1.45-6.3L63.7 681.55m-12.35 5.65q4.75-1.15 7.05 1.05l4.4 7.65q-1.2 1.35-3.85 3.35-1.45 1.15-4.25 3.15-2.5 1.9-5.4 2.1-3.25.3-13.7-2.65-1.35-.35-2.4-.7-4.65-1.55 1.05-6 2.35-1.85 8-4.5t9.1-3.45m-8.9 21.4q3 .4 3.9.85 1.8 1 2.25 1.75.8 1.25.35 3.95-.7 3.9-.6 8.65.1 5.2 1.2 9.95.55 2.45-1.15 3.75l-.85.5q-3.4 1.5-9.25 2.6-5 1-8.85 1.2-.3.1-.6 0-1.65-.1-3.2-1.4-1.65-1.35-2.45-3.55-3.35-9.15-2.5-19.65.3-3.75 1-5.6.95-2.45 2.9-3.35 1.9-.9 5.45-.6l4.35.25q5 .3 8.05.7m8.65 33.8q1.8-.25 2.6.05 1.35.55 2.7 2.9 1.9 3.15 6.1 7.75 4.2 4.5 8.15 7.7 1.1.9 1.5 2.05.35 1.2-.15 2.35-1.15 2.7-4.85 6.25-2 1.9-5.5 4.95-1.1 1.05-3.05 1-2.15-.05-4.25-1.45-6.4-4.2-13.4-11.65-6.2-6.6-7.3-9.3-1.05-2.7-.55-4.35.6-2 3.5-3.25l6.35-2.4q6.7-2.45 8.15-2.6m4.75-11.3q-2.1-2.9-2.35-8.7-.6-14.15 8.15-13.85l14.6 20.5q-1.85 1.05-6.1 2.4-.95.3-6.25 1.8-5.35 1.55-8.05-2.15m6 9.55q.35-1.5 2.1-2.8 1.8-1.3 5.55-2.7 2.1-.8 6-2.15l.95 1 1-.25L92 745.85q-1.45 2.6-4.15 6.05-3.3 4.25-5.45 5.4-.75.4-2.1.25-.85.5-1.35.7-2.65 1.05-8.65-3.85-5.85-4.8-7.65-9.15-1.2-2.85-.8-4.6M77.4 790.8q-6.6-3.3-8.7-5.25-3.75-3.45.35-7.5 1.55-2.05 3.3-4.2 3.5-4.35 4.7-4.95 1.7-.9 2.15-.9 1.3-.1 3.75 1.4 3.15 1.95 8.3 4.5 5.7 2.8 9.75 4.3 1.3.45 1.95 1.3.75.9.6 2-.15 1.25-2.6 7.15-2.3 5.6-2.95 6.65-1.3 2.05-6.05.9-6.65-1.5-14.55-5.4m33.4-27.3l1 .6q-2.1 5.25-2.65 6.4-1.8 3.6-3.35 3.85-3.2.5-11-2.85-7.3-3.15-9.9-5.65-3.25-3.1-.5-7.2 1.45-2.2 7.15-7.1l.65.4 1-.9 17.95 11.6-.35.85m-4.4 25.55q2.15-4.85 3.2-5.7 1.4-1.2 1.85-1.35 1.25-.35 4 .6 3.35 1.15 8.55 2.35 5.55 1.25 9.9 1.85 3 .45 3.2 2.65.1 1.25-1.6 8.85-1.55 7.2-2.05 8.5-.45 1.3-1.2 1.65-.9.45-3.15.15-6.6-.85-14.4-3.35-6.25-2.05-8.8-3.5-2.15-1.25-2.45-3.1-.3-1.75.95-4.9.9-2.25 2-4.7m9.25-9.55q-4.1-1.8-3.15-6.6.5-2.45 3.85-9.2l23.55 3.9q.05 4.1-.55 8.35-.75 5.5-2.15 6.35-2.65 1.6-10.8.15-6.85-1.25-10.75-2.95m30.85 9.65l6.85 1.65q6.75 2 6.25 3.45-1.9 5.35-4.15 9.5-3.05 5.55-6 7.35-1.75 1.05-4.65.65-2.2-.3-4.25-1.2-2.5-1.05-2.7-3.6-.1-1.05.55-4.9.55-3.5 1.7-8.45.6-2.85 2.1-3.9 1.5-1.05 4.3-.55z" id="am"/><path fill="url(#i)" d="M111.8 764.1l-1-.6q-1.45 3.9-2.25 5.45-1.45 2.9-2.75 3.1-2.85.45-9.7-2.6-6.45-2.9-8.8-5.2-2.7-2.7-.7-6.2 1.25-2.15 5.6-6.1l-.65-.4q-5.7 4.9-7.15 7.1-2.75 4.1.5 7.2 2.6 2.5 9.9 5.65 7.8 3.35 11 2.85 1.55-.25 3.35-3.85.55-1.15 2.65-6.4z" id="an"/><path fill="#B1AEA7" d="M93.2 751.05l-1 .9 18.6 11.55.35-.85-17.95-11.6z" id="ao"/><path fill="#26140C" d="M111.35 762.75l.1-.2-18.1-11.7-.15-.15-1.4 1.25 19.15 11.95.4-1.15m-.5 0l-.15.4-18.1-11.25.65-.55 17.6 11.4z" id="ap"/><path fill="url(#j)" d="M92.2 751.95q-4.35 3.95-5.6 6.1-2 3.5.7 6.2 2.35 2.3 8.8 5.2 6.85 3.05 9.7 2.6 1.3-.2 2.75-3.1.8-1.55 2.25-5.45l-18.6-11.55z" id="aq"/><path fill="url(#k)" d="M79.2 768q-.45 0-2.15.9-1.2.6-4.7 4.95-1.75 2.15-3.3 4.2-4.1 4.05-.35 7.5 2.1 1.95 8.7 5.25 7.9 3.9 14.55 5.4 4.75 1.15 6.05-.9.65-1.05 2.95-6.65 2.45-5.9 2.6-7.15.15-1.1-.6-2-.65-.85-1.95-1.3-4.05-1.5-9.75-4.3-5.15-2.55-8.3-4.5-2.45-1.5-3.75-1.4m-7.75 10.5q1.35-1.8 2.9-3.7 3.15-3.8 4.2-4.35 1.5-.75 1.85-.75 1.15-.1 3.35 1.25 2.75 1.7 7.45 4.05 5.1 2.5 8.7 3.85 1.1.4 1.75 1.15.65.8.55 1.75-.15 1.15-2.25 6.35-2 4.9-2.6 5.85-1.1 1.75-5.4.75-5.95-1.35-13-4.9-5.85-2.9-7.75-4.65-3.4-3.1.25-6.65z" id="ar"/><path fill="url(#l)" d="M80.4 769.7q-.35 0-1.85.75-1.05.55-4.2 4.35-1.55 1.9-2.9 3.7-3.65 3.55-.25 6.65 1.9 1.75 7.75 4.65 7.05 3.55 13 4.9 4.3 1 5.4-.75.6-.95 2.6-5.85 2.1-5.2 2.25-6.35.1-.95-.55-1.75-.65-.75-1.75-1.15-3.6-1.35-8.7-3.85-4.7-2.35-7.45-4.05-2.2-1.35-3.35-1.25z" id="as"/><path fill="#F2D399" d="M77.45 733.75l-1 .25 13.35 14.05q-1.3 1.95-4.05 4.75-3.1 3.25-5.45 4.75 1.35.15 2.1-.25 2.15-1.15 5.45-5.4 2.7-3.45 4.15-6.05l-14.55-12.1z" id="at"/><path fill="url(#m)" d="M76.45 734q-7.7 2.2-10.6 4.9-1.6 1.5-1.75 3-.2 1.8 1.35 4.5 1.9 3.4 6.7 7 4.8 3.65 8.15 4.15 2.35-1.5 5.45-4.75 2.75-2.8 4.05-4.75L76.45 734z" id="au"/><path fill="url(#n)" d="M64.1 741.9q.15-1.5 1.75-3 2.9-2.7 10.6-4.9l-.95-1q-3.9 1.35-6 2.15-3.75 1.4-5.55 2.7-1.75 1.3-2.1 2.8-.4 1.75.8 4.6 1.8 4.35 7.65 9.15 6 4.9 8.65 3.85.5-.2 1.35-.7-3.35-.5-8.15-4.15-4.8-3.6-6.7-7-1.55-2.7-1.35-4.5z" id="av"/><path fill="url(#o)" d="M61.65 708.55q-8.75-.3-8.15 13.85.25 5.8 2.35 8.7 2.7 3.7 8.05 2.15 5.3-1.5 6.25-1.8 4.25-1.35 6.1-2.4l-14.6-20.5z" id="aw"/><path fill="url(#p)" d="M53.7 742.45q-.8-.3-2.6-.05-1.45.15-8.15 2.6l-6.35 2.4q-2.9 1.25-3.5 3.25-.5 1.65.55 4.35 1.1 2.7 7.3 9.3 7 7.45 13.4 11.65 2.1 1.4 4.25 1.45 1.95.05 3.05-1 3.5-3.05 5.5-4.95 3.7-3.55 4.85-6.25.5-1.15.15-2.35-.4-1.15-1.5-2.05-3.95-3.2-8.15-7.7-4.2-4.6-6.1-7.75-1.35-2.35-2.7-2.9m-16.6 13.8q-1.25-2.6-.95-4.1.35-1.8 2.85-2.85l5.35-2.1q5.6-2.15 6.9-2.25 1.6-.15 2.35.2 1.3.55 2.8 2.8 4.25 6.2 12.25 12.75 1.2.95 1.8 2.05.7 1.3.4 2.3-.75 2.45-4.05 5.5-1.75 1.7-4.75 4.3-.9.95-2.65.8-2-.1-4.05-1.5-6.3-4.2-12.1-10.2-4.9-5.1-6.15-7.7z" id="ax"/><path fill="url(#q)" d="M39 749.3q-2.5 1.05-2.85 2.85-.3 1.5.95 4.1 1.25 2.6 6.15 7.7 5.8 6 12.1 10.2 2.05 1.4 4.05 1.5 1.75.15 2.65-.8 3-2.6 4.75-4.3 3.3-3.05 4.05-5.5.3-1-.4-2.3-.6-1.1-1.8-2.05-8-6.55-12.25-12.75-1.5-2.25-2.8-2.8-.75-.35-2.35-.2-1.3.1-6.9 2.25L39 749.3z" id="ay"/><path fill="url(#r)" d="M59.1 689.5q-3.1-.8-7.65.7-1.85.6-7.15 2.95-5 2.1-6.5 3.3-2.85 2.2-2.2 5.4 10.45 2.95 13.7 2.65 2.9-.2 5.4-2.1 2.8-2 4.25-3.15 2.65-2 3.85-3.35l-3.7-6.4z" id="az"/><path fill="url(#s)" d="M58.4 688.25q-2.3-2.2-7.05-1.05-3.45.8-9.1 3.45-5.65 2.65-8 4.5-5.7 4.45-1.05 6 1.05.35 2.4.7-.65-3.2 2.2-5.4 1.5-1.2 6.5-3.3 5.3-2.35 7.15-2.95 4.55-1.5 7.65-.7l-.7-1.25z" id="aA"/><path fill="url(#t)" d="M46.7 726.6q-.1-1.2-.55-12.1-.05-2.15-4.1-3.1-1.9-.45-4.95-.7-5.55-.25-8.3.4-2.55.6-3.95 1.9-1.3 1.2-1.8 3.25-.25 1.3-.35 3.15-.2 5.7 1.15 11.5 1.65 7.2 5 10.9.3.1.6 0 3.85-.2 8.85-1.2 5.85-1.1 9.25-2.6l.85-.5q-1.2-3.75-1.7-10.9z" id="aB"/><path fill="url(#u)" d="M48.6 711.2q-.45-.75-2.25-1.75-.9-.45-3.9-.85-3.05-.4-8.05-.7l-4.35-.25q-3.55-.3-5.45.6-1.95.9-2.9 3.35-.7 1.85-1 5.6-.85 10.5 2.5 19.65.8 2.2 2.45 3.55 1.55 1.3 3.2 1.4-3.35-3.7-5-10.9-1.35-5.8-1.15-11.5.1-1.85.35-3.15.5-2.05 1.8-3.25 1.4-1.3 3.95-1.9 2.75-.65 8.3-.4 3.05.25 4.95.7 4.05.95 4.1 3.1.45 10.9.55 12.1.5 7.15 1.7 10.9 1.7-1.3 1.15-3.75-1.1-4.75-1.2-9.95-.1-4.75.6-8.65.45-2.7-.35-3.95z" id="aC"/><path fill="url(#v)" d="M66.15 716.6l-4.7-6.75q-4.1 1.05-5.4 5.3-1.05 3.5-.1 8.5 1.05 5.35 2.95 7 2.45 2.1 8.3.8 5.1-1.1 4.9-5.15-.1-2.35-2.3-5.25-2.6-3.15-3.65-4.45z" id="aD"/><path fill="url(#w)" d="M9.35 721.65l-.15.1q.05 9.65 1.75 20.9 2.2 14.5 6.05 21.4 16 28.3 54.25 50.25 38.1 21.85 79.85 26.9l1.45-6.55-2.9-8.7-2.95-.7q-23.6-5.55-48.7-15.3-19.15-7.45-32.35-14.7-17.1-9.3-28.9-20.55-10.45-9.95-17.25-20.95-7.9-12.8-9.7-25.2-.5-3.5-.45-6.9z" id="aE"/><path fill="url(#x)" d="M181 785.4q-2.25-6.5-3.4-3.15-4.3 12.7-11.2 23.8-7.5 12.1-16.65 19.9h-.1l1.45 15.6q12.75-14.3 18-21.5 8.9-12.3 13.05-24.65 1.15-3.55-1.15-10z" id="aF"/><path fill="url(#y)" d="M47.25 686.65q5.65-2 16.6-4.7l-.2-.8q-10.9 2.7-16.5 4.7-9.65 3.4-15.95 8.1-13.05 9.8-14.55 24.65-.5 4.65.25 9.85 1.8 12.7 10.55 25.7 6.05 9 14.6 17.1 11.35 10.7 27.75 19.5 11.9 6.4 29.25 13.1 23.35 8.95 45.25 14.1l3.05.7.15-.1q8.15-6.95 14.95-17.55 6.8-10.6 11-22.95.95-2.7 2.4-9v-.15l-.8-.15v.15q-1.5 6.4-2.35 8.9-4.15 12.2-10.85 22.7-6.7 10.4-14.75 17.25l-2.6-.6q-22.15-5.2-45.15-14.1-17.3-6.65-29.15-13-16.3-8.75-27.6-19.4-8.5-8.1-14.45-16.95-8.65-12.85-10.45-25.35-.7-5.15-.25-9.7 1.5-14.5 14.25-24 6.2-4.65 15.55-8z" id="aG"/><path fill="url(#z)" d="M13 707.85q2.15-5.95 6.05-10.65l3.45-3.55q-24.15 20.65-4.45 57.2 9.3 17.3 25.45 30 10.723 8.465 31.4 19.4-9.313-5.194-20.25-13.2-24.9-18.3-35.1-36.45Q6.2 726.8 13 707.85z" id="aH"/><path fill="url(#A)" d="M54.9 693.65q.4 12.9 9.75 28.95 7.4 12.7 18.6 24.7 12.2 13.1 57.2 37.2 22.55 12.05 42.75 21.45l2.6-18.55q-16.1-6.9-33.85-15.65-34.15-16.9-48.95-29.05-22.05-18.1-31.95-31-14.75-19.2-13.6-38l-2.55 19.95z" id="aI"/><path fill="url(#B)" d="M85.2 645.15q-2.5 2.5-2.25 4.55l-5.6 6.9q-1.35 1.6-3.85 4.95l-1.35 1.8-9.55-8q-3.1 5.6-4.4 12.45l-.75 6.05v.05q-1.15 18.75 13.6 37.95 9.9 12.9 31.95 31 15.15 12.45 50.6 29.9 17.7 8.7 32.4 14.9 9.6-5.7 18.55-13v-.05l-27.15-22.85h21.8v-15.4l24.75 20q13.4-14.85 21.15-31.65 8.7-18.85 8.25-36.25-.3-13.7-6.45-25.6-6.25-12.2-18.05-20-11.05-7.3-24.9-9.45-13.65-2.1-26.85 1.25-13.65 3.45-23.7 12.05-14.15-12.05-36.25-14.4-22.55-2.35-38.95 7.2l7 5.65z" id="aJ"/><path fill="url(#C)" d="M85.8 646.7q-2.45 2.4-2.25 4.5l-5.6 6.95q-.7.8-3.85 4.95l-1.35 1.8-9.55-8.05q-3.1 5.7-4.4 12.45l-.75 6.1q-1.15 18.75 13.6 37.95 9.85 12.9 31.95 31.05 15.15 12.45 50.6 29.85 17.7 8.75 32.4 14.95 10.05-6.05 18.55-13.05v-.05L178 753.3h21.8v-15.4l24.75 20q13.4-14.85 21.15-31.65 8.7-18.85 8.25-36.3-.3-13.7-6.45-25.6-6.25-12.2-18.05-19.95-11.05-7.3-24.9-9.45-13.65-2.1-26.85 1.25-13.65 3.45-23.7 12.05-14.1-12.05-36.2-14.4-22.55-2.35-39 7.2l7 5.65z" id="aK"/><path fill="url(#D)" d="M221.1 759.45v10.4l2.5-3 .35-10.45-2.85 3.05z" id="aL"/><path fill="#7C050C" d="M102.55 680.45q.15 7-1.15 8.6-1.8 2.35-6.9 4-4.15 1.3-7.8 1.55-1.35.1-3.75-.45-3.9-.9-4.05-.95-4.85-.85-6.15 2.25-2.9 6.75 8.55 10.7 7.1 2.4 16.25 3.05 1.55 6.15-2.9 10.95-.85.95-4.25 3.95-2.75 2.5-4.1 4.3 5.1 4.65 13.3 10.5 1.95-13.35 7-20.95 4.05-6.1 4.5-6.55 2.55-2.75 5.4-1 3.25 2 7.35 2.8 2.8.5 8.1.7 3.05 13.3 8.65 20.3 6.95 8.7 19.15 9.75-.25-1.75-1.45-5.85 1.15-1.1 4-2.5 2.9-1.4 4-2.45-.7-.6-1.45-2-.9-1.5-1.35-2 4.2.1 7-.4 3.15-.55 6.55-2.15-.95-1.75-4.4-6.75-3.1-4.55-4.25-6.95 2.65 0 6.1-8.65 2.2-5.6 4-12.6 1.75-6.95-.3-10.65-1.85-3.35-6.7-3.75-2.4-.2-5.55-6.8-3.2-6.75-7.05-7.4-4-.7-8.45 3.65-5.6 5.5-7.75 6.3-4.65 1.7-10.05.5-5.75-1.3-8.85-5.2-.65-.85-4.4-9.3-2.6-5.95-6.9-7-9.95-2.4-10.25 15-.1 4.55.3 13.45z" id="aM"/><path fill="#AE0D20" d="M221.1 759.45l-2.2 2.25.05 10.6 2.15-2.45v-10.4z" id="aN"/><path fill="url(#E)" d="M158.15 708.05l-1.75 2.3 62.5 51.2.1.05 2.1-2.15-62.95-51.4z" id="aO"/><path fill="url(#F)" d="M210.85 769.25l-.7 12.9q4.55-4.85 8.8-9.85l-.05-10.6-1.65 1.6q-4.2 4-6.4 5.95z" id="aP"/><path fill="#AE0D20" d="M208.6 771.2l-.8 13.45 2.35-2.5.7-12.85h-.05l-2.2 1.9z" id="aQ"/><path fill="url(#G)" d="M159.7 726.75q-.5.3-1.65 1.15-1.05.7-1.65.8l52.2 42.5 2.2-1.9-51.1-42.55z" id="aR"/><path fill="url(#H)" d="M145.05 719.4q-1.1 1.15-2.6 3.05l5 4.2q-1.2-3.1-2.4-7.25z" id="aS"/><path fill="url(#I)" d="M204.6 774.6l4-3.4-43.4-36.6q-2.5 1.8-5.05 2.7l44.4 37.3h.05z" id="aT"/><path fill="url(#J)" d="M168.55 711.35q-.75 2.05-2.35 3.55l54.9 44.55 2.85-3.05v-.05l-55.4-45z" id="aU"/><path fill="url(#K)" d="M144.15 713.4l-.3.15.3.25v-.4z" id="aV"/><path fill="url(#L)" d="M163.25 723.95q3.4 3.25 6.65 3.1-3.3 2.05-6.95 2.4l47.85 39.85.05-.05q2.2-1.95 6.4-5.95l1.65-1.6v-.15l-54.9-45.1q-2.15 1.2-5.05 1.35 1.35 3.35 4.3 6.15z" id="aW"/><path fill="#AB7915" d="M160 706.95q.1 1.9-.4 2.55l6.6 5.4q1.6-.7 2.25-1.1 1-.65 1.3-1.55l-9.5-7.7q-.3.45-.25 2.4z" id="aX"/><path fill="#AB7915" d="M147.45 709.75q-1.75 2.6-3.3 3.65v.4l18.8 15.65q3.65-.35 6.95-2.4-3.25.15-6.65-3.1-2.95-2.8-4.3-6.15 2.9-.15 5.05-1.35l-13.55-11.1q-1.05 1.4-3 4.4z" id="aY"/><path fill="#AB7915" d="M146.1 718.5q-.3.1-1.05.9 1.2 4.15 2.4 7.25l12.7 10.65q2.55-.9 5.05-2.7l-19.1-16.1z" id="aZ"/><path fill="url(#M)" d="M204.6 774.6l-.05.05-.65 14 3.9-4 .8-13.45-4 3.4z" id="ba"/><path fill="#D9B779" d="M161 734.9q-4.65-1.35-9-5.4-4.1-3.85-6-8.2 1 4.45 1.2 5.1l8.4 7.05.15-.2q2.2 1.65 5.25 1.65z" id="bb"/><path fill="url(#N)" d="M92.7 658.85q-.15-.55 1-.9 1.3-.35 1.4-.85l-19.95-15.65-2 1.45 19.55 15.95z" id="bc"/><path fill="url(#O)" d="M86.05 669.3l1.35.05q.15-1.3.5-2.2L66.55 649.4l-1.7 2.25 21.2 17.65z" id="bd"/><path fill="#AE0D20" d="M86.05 669.3l1.2 1 .15-.95-1.35-.05z" id="be"/><path fill="url(#P)" d="M96.75 658.25q.15-.6 1.15-1 1.15-.5 1.45-.9L78.2 639.5q-1.45.8-3.05 1.95l21.6 16.8m-5.7 4.7q2.5-2.75 2.3-3.7l-20.2-16.35q-3.85 3.05-6.6 6.5l21.35 17.75q.35-1.15 3.15-4.2m.1 13.6q-1.3-2.9-1.2-4.1l-25.1-20.8q-1.35 2-2.25 3.7l30.3 25.3q-.1-.3-1.75-4.1z" id="bf"/><path fill="#7C050C" d="M85.4 730.05q-1.9 4.95 3.05 12 4.6 6.55 10 8.55.35-5.45.85-9.4-8.5-6.05-13.9-11.15z" id="bg"/><path fill="#FF5050" d="M99.6 738.9l-.3 2.3q16.45 11.6 42.5 25.2 17.85 9.4 28.1 13.8l9.65 4.45q-14.294-6.974-33.15-17.3-29.4-16.1-46.8-28.45z" id="bh"/><path fill="#FF5050" d="M62.3 656.55l-.05-.45q-9.1 17.5-1.8 37.45 5.6 15.2 21.4 32.9 1.45 1.7 3.55 3.6.3-.85.8-1.55l.1-.1q-1.75-1.6-3.6-3.65-16.35-18.3-21.8-31.85-7.6-19 1.4-36.35z" id="bi"/><path fill="#990B1C" d="M99.6 738.9q-8.2-5.85-13.3-10.5l-.1.1q-.5.7-.8 1.55 5.4 5.1 13.9 11.15l.3-2.3z" id="bj"/><path fill="url(#Q)" d="M186 787.65l-.2-.05-2.6 18.35q9.95-6.75 20.7-17.3l.65-14q-8.95 7.3-18.55 13m67.5-99.15l-.15-.05q.45 17.4-8.25 36.25-7.75 16.8-21.15 31.65l-.35 10.5 1.5-1.75q10.1-12.05 18.65-31.6 11.05-25.3 9.75-45z" id="bk"/><path fill="#D1910F" d="M111.2 706.2q-7.5 2.85-12.5 14.7-1.25 3.05-3.65 10.1-2.1 6.3-3.45 9.15l.75.5q1.3-2.8 3.55-9.15 2.4-6.95 3.8-10.1 5.1-11.85 12.7-14.7l-1.2-.5z" id="bl"/><path fill="#EEB401" d="M77.1 673.95q-.35 1.15-1 2.4 3.95-3.25 6.65-3-3.05-1.25-5.35-.45-.05.25-.3 1.05z" id="bm"/><path fill="#D1910F" d="M98.5 698.5l2.45-1.7q-3.05-.05-6.7-1.4-3.25-1.25-6.25-3.3 2 2.15 4.75 3.85 3 1.9 5.75 2.55z" id="bn"/><path fill="#F9CC56" d="M125.75 701.85l.05 1.35q3.4 1.5 5.9 5.85.45-.2.8-.65-2.75-4.75-6.75-6.55z" id="bo"/><path fill="#F9CC56" d="M131.7 709.05l.85 1.6.75-.6-.8-1.65q-.35.45-.8.65z" id="bp"/><path fill="#F9CC56" d="M159.2 732q-2.75 2.95-6.1 4.4l.3.95q1.95-.8 3.9-2.3 1.85-1.4 2.95-2.8l-1.05-.25z" id="bq"/><path fill="#F9CC56" d="M160.45 724.55q-3.7-.4-6.3-1.45-3.6-1.45-6.45-4.05l1.85 3q4.05 3.1 9.9 4.1 5.65.95 10.55-.45-1.25-.3-2.9-1.35-2.75.6-6.65.2z" id="br"/><path fill="#F9CC56" d="M132.55 710.65q1.95 4.05 3.75 11.5 2.1 8.85 2.55 10.15 4.4 12.3 15.2 13.4l.2-1.35q-9.85-.7-14.25-12.85-.95-2.55-3.15-10.95-1.85-6.95-3.55-10.5l-.75.6z" id="bs"/><path fill="#F9CC56" d="M153.7 692.3q-6.85-2.35-14.4-.5-6.8 1.6-13.1 6.25l-.2 1.2 1.45.2q6.75-5.2 14.4-5.9 8.65-.75 14.95 4.7 9.05 7.8 1.5 9.35-5.8 1.2-15.65-1.15l-4.8-1.15q1.75 1.75 3.3 3.75 7.5 2.7 12.45 2.75 2.65 0 4.3-.55l1.55-.55q7.45-2.9 5.9-8.4-1.4-4.8-8.1-8.4-1.75-.95-3.55-1.6z" id="bt"/><path fill="#D1910F" d="M156.05 673.7q-1.4.35-3.05 1.6-.3.2-2.9 2.4l2.75-.55q2.45-2.1 4.5-1.85 1.9.25 2.8 1.6l1.85.25q-.4-1.65-2.25-2.75-1.9-1.15-3.7-.7z" id="bu"/><path fill="#B06B16" d="M157.35 675.3q-2.05-.25-4.5 1.85l3.4-.3q1.45-.05 3.9.05-.9-1.35-2.8-1.6z" id="bv"/><path fill="#824F10" d="M128.35 691.95q4.45-6.2 12.3-10.5-1.7-2.05-5.95 2.2-3.5 3.45-6.35 8.3z" id="bw"/><path fill="#D1910F" d="M126.1 705.05q-.25-.9-.3-1.85-.5-.25-1.5-.55l-.55.05q.5 3.25 1.6 5.55 1.2 2.55 3 3.45 2.3.4 4.2-1.05l-.85-1.6q-1.5.9-3.15-.2-1.7-1.15-2.45-3.8z" id="bx"/><path fill="#D1910F" d="M128.35 692v-.05q2.85-4.85 6.35-8.3 4.25-4.25 5.95-2.2l1.3-.65q-.25-1.15-1-2.05-4.75-3.45-11.45 6.25-6.5 9.3-5.9 16.3l.15 1.4.55-.05q1 .3 1.5.55l-.05-1.35.45-3.8q.45-2.15.8-3.2.2-.9 1.35-2.85z" id="by"/><path fill="#F9CC56" d="M80.85 730q-3-.55-5.6-2l.35 1.25q1.75 1.1 5.8 1.8 4.05.65 5.2.1l-.1-1.1q-2.65.5-5.65-.05z" id="bz"/><path fill="#F9CC56" d="M97.7 683.05q-4.65-2.6-10-3.2-12.85-1.4-16.25 7-2.15 5.5 1.6 10.55.8 1 1.35 1.55l1.2 1.1q3.35 2.9 7.9 4.35 4.65 1.5 8.75.9.75-1.15 1.35-1.85-4.2.75-8.95-.75-4.6-1.5-7.8-4.4l-1.15-1.15Q71 691.9 74.05 687q3-4.85 10.2-4.8 11.75.05 21.6 9.2.15-.95.45-1.95-4.95-4.35-8.6-6.4z" id="bA"/><path fill="#F9CC56" d="M99.1 660.6q-1.9-1-3.4-1.05-1.55-.05-2.6.75-1.15.8-1 2.05l1.45.7q.1-1.65 2-1.8 1.75-.1 3.6.95 3.85 2.2 7.45 8.85l.05.05 2.75 1.75.4.3q-3.9-7.1-7.8-10.45-1.35-1.25-2.9-2.1z" id="bB"/><path fill="url(#R)" d="M99.15 662.2q-1.85-1.05-3.6-.95-1.9.15-2 1.8 2.95 1.4 6.85 3.85.6.45 6.2 4.15-3.6-6.65-7.45-8.85z" id="bC"/><path fill="#824F10" d="M125.8 703.2q.05.95.3 1.85.75 2.65 2.45 3.8 1.65 1.1 3.15.2-2.5-4.35-5.9-5.85z" id="bD"/><path fill="url(#S)" d="M75.25 728q2.6 1.45 5.6 2 3 .55 5.65.05l.1 1.1q.35 2.6 1.7 5.05 1.4 2.55 3.3 3.95 1.35-2.85 3.45-9.15 2.4-7.05 3.65-10.1 5-11.85 12.5-14.7-1.25-.6-2.1-1.45-3.7-3.8-3.55-9.95-1.65.1-4.6 2l-2.45 1.7q-2.6 2-4.9 4.95-.6.7-1.35 1.85-1.45 2.1-3.15 5.3-1 1.8-3 5.6-5.05 9.15-10.85 11.8z" id="bE"/><path fill="url(#T)" d="M155 711.9l-1.4-.1q-4.95-.05-12.45-2.75 2.2 2.85 6.55 10 2.85 2.6 6.45 4.05 2.6 1.05 6.3 1.45 3.9.4 6.65-.2-2.4-1.55-6.1-6-4.25-4.95-6-6.45z" id="bF"/><path fill="url(#U)" d="M141.15 709.05q-1.55-2-3.3-3.75-4.85-4.85-10.4-5.85l-1.45-.2-.25 2.6q4 1.8 6.75 6.55l.8 1.65q1.7 3.55 3.55 10.5 2.2 8.4 3.15 10.95 4.4 12.15 14.25 12.85.3-3.55-.85-7l-.3-.95q3.35-1.45 6.1-4.4-2.5-.85-5.05-3.65-2-2.2-4.6-6.3l-1.85-3q-4.35-7.15-6.55-10z" id="bG"/><path fill="url(#V)" d="M156.25 676.85l-6.15.85q-4.2 1.1-8.15 3.1l-1.3.65q-7.85 4.3-12.3 10.5v.05q-1.15 1.95-1.35 2.85-.35 1.05-.8 3.2 6.3-4.65 13.1-6.25 7.55-1.85 14.4.5 1.8.65 3.55 1.6 6.7 3.6 8.1 8.4 1.55 5.5-5.9 8.4l-1.55.55q-.45.15-2.2.35-1.793.249-2.5.2.175.05 1.55.1 1.35.05 1.5.1 2.55 0 5-.75 3.8-1.25 5.9-5.2.9-1.7 3.05-8.45l.8-2.3q2.35-6.75.95-11.15-1.7-5.35-8.65-6.8l-3.15-.45q-2.45-.1-3.9-.05z" id="bH"/><path fill="url(#W)" d="M157.45 665q-5.3-4.15-9.95-.95-1.55 1.05-4.9 6.2-3.45 5.4-5.35 6.95 2.55.25 3.7 1.55.75.9 1 2.05 3.95-2 8.15-3.1 2.6-2.2 2.9-2.4 1.65-1.25 3.05-1.6 1.8-.45 3.7.7 1.85 1.1 2.25 2.75l1.3.2q.25-1.5-.1-3.05-.9-5.5-5.75-9.3z" id="bI"/><path fill="url(#X)" d="M113.3 657.8q-2.65-4.35-6.1-6.5-4.5-2.8-8.25 0-1.1.85-2.5 3.05-1.55 2.45-2.3 3.2-1.65 1.65-1.95 2.05-.9 1.15-1 2.35l.9.4q-.15-1.25 1-2.05 1.05-.8 2.6-.75 1.5.05 3.4 1.05 1.55.85 2.9 2.1 3.9 3.35 7.8 10.45 3.3 1.95 5.2 2.65 2.35-1.65 4.1-2.3-1.3-5.25-2.25-8.05-1.45-4.3-3.55-7.65z" id="bJ"/><path fill="url(#Y)" d="M93.55 663.05l-2.35-1.1q-1.85-.65-3.35-1-9-1.75-10.05 9.75l-.35 2.05-.05.15q2.3-.8 5.35.45-2.7-.25-6.65 3-.85 1.6-2.7 4.1-2.2 2.95-3 4.2-1.8 2.85-1.3 6.4.45 3.5 3 6.25 2.25 2.4 4.9 4.1 1.85 1.2 2.45 1.3-6.05-3.65-7.95-8.3-1.6-3.9-.05-7.55 3.6-8.4 16.25-7 5.35.6 10 3.2 3.65 2.05 8.6 6.4 1-3.95 3.2-7.5t4.9-5.7l.6-.45q-1.9-.7-5.2-2.65l-.4-.3-2.75-1.75-.05-.05q-5.6-3.7-6.2-4.15-3.9-2.45-6.85-3.85z" id="bK"/><path fill="url(#Z)" d="M156.8 698.25q-6.3-5.45-14.95-4.7-7.65.7-14.4 5.9 5.55 1 10.4 5.85l4.8 1.15q9.85 2.35 15.65 1.15 7.55-1.55-1.5-9.35z" id="bL"/><path fill="url(#aa)" d="M105.85 691.4q-9.85-9.15-21.6-9.2-7.2-.05-10.2 4.8-3.05 4.9 1.65 10.15l1.15 1.15q3.2 2.9 7.8 4.4 4.75 1.5 8.95.75 2.3-2.95 4.9-4.95-2.75-.65-5.75-2.55-2.75-1.7-4.75-3.85 3 2.05 6.25 3.3 3.65 1.35 6.7 1.4 2.95-1.9 4.6-2 0-1.65.3-3.4z" id="bM"/><path fill="#B06B16" d="M106.2 692.9l.2-.9q-6.7-7.2-16.35-9.35-9.85-2.2-14.7 2.75l2.05-1.35q2.7-1.4 6-1.65 10.5-.7 22.8 10.5z" id="bN"/><path fill="#B06B16" d="M127.2 675.65q-1.85 1.3-3.3 3.25-1.45 1.95-2.1 3.9 2.35-3.95 6.95-6.2-.85-.3-1.55-.95z" id="bO"/><path fill="url(#ab)" d="M112.45 697q-.2 5.7 2.45 10.5.4.35 1.15.25.75-.05 1.25-.5-2.35-4.8-2.75-6.9-1.35-6.25 1.35-13-3.3 3.7-3.45 9.65z" id="bP"/><path fill="url(#ac)" d="M119.1 673.5q-1.75.65-4.1 2.3l-.6.45q-2.7 2.15-4.9 5.7-2.2 3.55-3.2 7.5-.3 1-.45 1.95-.3 1.75-.3 3.4-.15 6.15 3.55 9.95.85.85 2.1 1.45l3.7 1.3q-2.65-4.8-2.45-10.5.15-5.95 3.45-9.65-2.7 6.75-1.35 13 .35 1.7 1.25 3.85 1 2.35 2.25 4.1.9 1.55 5.75 2.6 0 .05 6.45 1.1-3.1-.9-4.7-4.55-1.35-3.15-1.1-6.35-.65-7.05 5.45-16.25 6.3-9.55 11.05-6.1-1.15-1.3-3.7-1.55-.95-.1-4.15-.1-2.6 0-3.85-.35l-.5-.15q-4.6 2.25-6.95 6.2.65-1.95 2.1-3.9 1.45-1.95 3.3-3.25-1.15-1.45-1.95-2-1.3-1-3.7-.85-1.1.1-2.45.7z" id="bQ"/><path fill="url(#ad)" d="M91.25 661.85q-4.55-1.85-7.6-.95-4.05 1.2-5.25 5.5-.65 2.45-1.35 7.6-.65 2.25-4.6 7.25-3.3 4.2-3.35 7.95l.1.3q.8-5.95 6.75-8.5 6.35-2.75 15.9-.4-4.25-1.3-5.8-4.8-1.35-3.15-.05-6.45 1.3-3.4 4.4-4.65 3.5-1.4 7.7.75-4.35-2.6-6.85-3.6z" id="bR"/><path fill="#FCE996" d="M92.1 661.7v.15q1.7-3.6 5.95-1.7 3.1 1.4 5.9 4.6-2.65-3.95-6.75-5.65-4.6-1.95-5.1 2.6z" id="bS"/><path fill="#FAF5D2" d="M144.15 690.9l-1.7.35q5.003-.616 10.75 1.3 8.2 2.75 11.7 9.05-.65-3.1-3.65-5.8-2.8-2.55-6.5-3.8-4.95-1.7-10.6-1.1z" id="bT"/><path fill="#FAF5D2" d="M127.8 703.2l3.2 3.6q2.35 2.9 4.3 8.6 1.1 3.15 3.2 9.45l-.5-1.6q-2.1-7.95-3.4-10.95-2.6-6.1-6.8-9.1z" id="bU"/><path fill="#784E3D" d="M42.9 713.45l-.6-.6q-6.05-1.15-10.3-.2-5.8 1.25-6.85 6.3-.9 4.1.95 10.6 1.65 6 4.2 9.55-.1-1.4-1.9-9.15-1.4-5.85-.5-9.45 1.1-4.4 5.95-5.5 2.8-.6 9.05-1.55z" id="bV"/><path fill="#784E3D" d="M41 701.65q1.4.7 6.35 1.75l-.6-.45q-3.4-.7-4.85-2.15-1.9-1.85.6-4.3 1.35-1.25 4.75-2.5 3.847-1.425 5-2.1-2.725.428-6.25 1.75-4.35 1.65-5.75 3.25-2.7 3 .75 4.75m11.4-9.8q-.055.032-.15.05.091.008.15 0 .15 0 0-.05z" id="bW"/><path fill="#784E3D" d="M52.4 746.15q-3.65-.2-8.05 2.1-5 2.6-4.8 5.9.15 3.2 4.55 7.8 2.3 2.4 7.1 6.3 4.95 4.1 8.95 4.85-1.25-1.5-5.9-5.2-5.25-4.15-7.3-6.25-8.05-8.05-.65-12.75 1.3-.85 3-1.55 1.75-.7 2.9-.8l.2-.4z" id="bX"/><path fill="#784E3D" d="M76.05 779.65q.65-2.4 4.45-6.85l.55-.65-.65-.6q-4.45 3.7-6.25 6-3.55 4.45-1.15 6.7 2.6 2.45 8.15 5.15 5.15 2.5 8.6 3.3 2.7.65 3.7.6 2-.1 2.5-2.15-3.25.65-8.65-1.1-4.6-1.5-8.1-3.75-4.3-2.75-3.15-6.65z" id="bY"/><path fill="#784E3D" d="M113.5 785.25l-.8-.2q-3.15 2.9-4.4 7.15-1.4 4.9 1.6 7.35 2.6 2.1 8.15 3.75 4.55 1.3 8.75 1.75 1.8.15 2.3.15 1.25-.05 2.15-.6-10.5-2.8-16.55-5.25-5-2-4-6.2 2.3-5.15 2.8-7.9z" id="bZ"/><path fill="#784E3D" d="M146.55 791.9l.85-.4q-2.9-1.35-4.6 4.05-1.15 3.7-1.6 9.85.6 2.15 2.6 2.85 1.85.6 4.6-.2-3.25-1.35-4.15-2.1-1.3-1.05-.9-4.35 1-8.3 3.2-9.7z" id="ca"/><path fill="#784E3D" d="M59.05 714.3l-.2-1.1q-2.5 4.2-.75 10.75 1.9 7.05 7.5 4.75-4.95-.05-5.8-5.75-.15-6.65-.75-8.65z" id="cb"/><path fill="#784E3D" d="M71.7 737.15v-.4q-4 1.25-4.6 4.35-.55 2.7 1.55 6.1 1.95 3.15 5.1 5.35 3.25 2.3 5.95 2.2 0-.3.25-.4-.35-.6-3.3-2.85-3.5-2.6-5.1-4.3-6.05-6.15.15-10.05z" id="cc"/><path fill="#784E3D" d="M90 756.55l-.45-.45q-4.8 5.7 4.8 10.65 3.55 1.9 7.25 2.5 3.75.65 4.55-.5-5.5-.2-11.45-3.4-7.3-3.95-4.7-8.8z" id="cd"/><path fill="#784E3D" d="M115.7 772.9l-.65-.65q.15 2.05 2.05 3.45 1.9 1.4 3.75.85-.5-1.1-2.4-2.05-2.35-1.2-2.75-1.6z" id="ce"/><path fill="#784E3D" d="M152.15 798.45l.5-.65q-.3-2.5-3.55-3.2-1.4-.3-2.8-.1-.1-.8.45-1.4.4-.45-.1-.85-.5-.4-.85.05-.95 1.2-.65 2.45-1.75.55-2.55 1.85-1.25 2.15.15 4.3l.6.75q-1 1.25-1.25 2.6-.25 1.4.3 2.5 1.1 2.2 4.15 2.2l.7-.05q.55-.1.55-.65-.1-.6-.7-.55-2.75.25-3.6-1.5-.85-1.65.8-3.75 2.15 1.55 4.5 1.25 1.95-.25 2.1-1.5.1-.65-.3-1.25-.45-.6-1.25-1-1.05-.5-2.35-.4-1.5.2-2.8 1.25l-.45-.6q-1-1.45-.1-3 .6-.9 1.95-1.3.9 1.45 2.8 2.2 1.9.75 3.75.35m-3.35-1.55q-1.15-.5-1.85-1.25 1-.05 1.9.15 1.85.4 2.4 1.55-1.2.05-2.45-.45m.9 5.1q-.1.35-1.05.5-1.7.25-3.45-.9.9-.75 1.95-.85.9-.1 1.65.3 1 .45.9.95z" id="cf"/><path fill="#784E3D" d="M79.7 770.85q-.45-.35-.85.1-.4.5.15.85 1.8 1.4 3.55 3.9 1.05 1.55 2.9 4.75 2.5 4.4 4 6.2 2.5 3.05 5.6 3.9h.2q.5 0 .55-.45.2-.6-.4-.75-2.75-.75-5.1-3.55-1.4-1.7-3.8-5.95-1.9-3.4-3-4.95-1.85-2.6-3.8-4.05z" id="cg"/><path fill="#AB8574" d="M90.75 776.95q-1.25-1.6-2.7-1.95-.65-.1-.75.45-.1.65.45.75 1.15.25 2.15 1.65.6.8 1.75 3.1 1.35 2.7 2.2 3.85 1.5 1.95 3.35 2.4h.15q.5 0 .6-.45.15-.55-.45-.75-1.5-.35-2.75-2.1-.7-.9-2-3.5-1.25-2.5-2-3.45z" id="ch"/><path fill="#AB8574" d="M79.6 778.05q-1.1-2-2.7-2.95-.5-.35-.8.2-.15.2-.1.45.1.25.3.35 1.35.85 2.3 2.65.55 1.05 1.4 3.5 1.15 3.5 2.2 5 1.75 2.55 4.95 3.3h.15q.45 0 .6-.45.1-.55-.45-.75-2.75-.65-4.3-2.8-.9-1.35-2-4.65-.95-2.7-1.55-3.85z" id="ci"/><path fill="#784E3D" d="M113.7 791.85q1.3-1.7 4.35-2.75 1.75-.65 4.5-.4 2.95.2 4.95 1.3 1.9 1 2.3 2.55.7 2.75-1.8 4.15-1.65.95-3.7.8-2.05-.15-3.2-1.3-1.8-1.8-1.3-3 .45-1.2 2.9-1.1 1.3.05 1.7 1.05.2.45-.1.65-.45.35-1.55-.4-.55-.25-.85.2-.25.55.2.85 1.85 1.15 2.95.3.9-.75.5-2-.6-1.85-2.8-1.85-3.25-.1-4.05 1.8-.9 2 1.55 4.35 1.45 1.45 3.9 1.65 2.45.2 4.45-.9 3.25-1.95 2.4-5.55-.55-2.05-2.95-3.35-2.25-1.2-5.4-1.45-3-.2-5 .45-4.35 1.55-5.6 4.3-.8 1.8-.2 3.8 1 3.3 4.9 5.7 4 2.45 8.85 2.45 2 0 4-.45.6-.15.45-.75-.2-.55-.75-.45-5.3 1.3-10.4-1.05-4.8-2.2-5.85-5.8-.65-2.15.65-3.8z" id="cj"/><path fill="#AB8574" d="M39.65 756.95q.5 0 .55-.45.55-1.9 2.8-3.95 2.25-2.05 5-3.1 3.4-1.25 5.05-.2.5.25.85-.2.3-.6-.2-.85-2.15-1.4-6.1.1-2.85 1.1-5.25 3.2-2.65 2.35-3.3 4.7-.2.55.4.75h.2z" id="ck"/><path fill="#784E3D" d="M55.85 753.25q.5.25.8-.3.25-.55-.25-.8-2.45-1.3-6.45.75-2.55 1.25-4.55 3.3-2.3 2.35-2.7 4.65-.1.55.5.7h.1q.5 0 .6-.5.35-1.85 2.2-3.8 1.85-2 4.35-3.25 3.55-1.75 5.4-.75z" id="cl"/><path fill="#AB8574" d="M48.45 765.4q1.2-3.45 4.8-6.2 3.9-3 6.95-1.95.6.2.8-.4.2-.55-.4-.75-3.65-1.25-8 2-3.9 3-5.3 6.9-.2.65.4.8h.2q.4 0 .55-.4z" id="cm"/><path fill="#784E3D" d="M65.95 760.7q-2.1-1.25-4.7-.45-2.9.95-5.75 4.15-2.55 2.75-3.6 5.45-.25.65.35.8l.2.05q.45 0 .6-.4.95-2.4 3.3-5.05 2.7-3 5.3-3.85 2.1-.6 3.6.35.55.4.85-.2.35-.45-.15-.85z" id="cn"/><path fill="#AB8574" d="M56.75 773.45q.5 0 .6-.5.3-2.05 2-3.5 1.65-1.4 3.85-1.5.25 0 .4-.2.2-.2.15-.4 0-.6-.6-.6-2.65.1-4.65 1.8-1.95 1.7-2.35 4.2-.1.6.5.7h.1z" id="co"/><path fill="#8F5D49" d="M43.9 716.55q.6.3.85-.25t-.25-.8q-7.95-4.3-14.2-2.2-2.25.75-3.85 2-1.85 1.45-2.15 3.15-.25 1.7 1.05 3.2-1.75 2.2-.8 4.25 1 2.25 5.15 3.7-2 1.75-2.15 3.45-.2 3.5 6.45 4.95.6.15 1.3.15 2.2 0 7-1.6l.25-.1q.6-.15.4-.75-.15-.6-.75-.4l-.3.1q-2.35.8-3.55 1.1-2.65.6-4.1.3-5.7-1.15-5.45-3.6.15-1.45 2.2-3.2 3 .85 6.3 1 3.2.15 5.05-.4 2.5-.75 2.2-2.45-.55-3.05-4.65-2.9-2.15.1-4.7 1.05-2.45.95-4.4 2.4-4.25-1.35-5.15-3.3-.6-1.3.6-2.85l.45.35q1.35 1 5.9 1.2 4.65.2 7.25-.8 1.95-.75 2.15-2.05.4-1.9-1.2-2.95-1.9-1.35-6.25-1-3.95.3-5.55 1.35-1.8 1.1-2.8 2.1-.85-1.1-.7-2.1.2-1.25 1.8-2.45 1.45-1.1 3.35-1.7 5.8-1.95 13.25 2.05m-.6 11.8q.1.65-1.3 1.1-1.65.5-4.35.4-2.7-.1-5.35-.75 3.95-2.5 7.65-2.65 3.05-.05 3.35 1.9m-8.75-9.8q4-.35 5.55.75.9.65.7 1.75-.15.7-1.4 1.1-2.4.9-6.85.7-4.1-.15-5.1-.9-.3-.2-.4-.35.8-.75 2.6-1.95 1.3-.8 4.9-1.1z" id="cp"/><path fill="#AB8574" d="M52.95 692.85q.4-.6-.15-.85-.95-.65-2.25-.55-1.3.05-2.45.8-1.5.95-1.8 2.6-1.3.25-2.4 1.1-1.2 1-1.65 2.55-.4 1.5.15 2.75.9 2 3.75 2l1.2-.05q.6-.1.5-.7-.1-.55-.7-.55-2.9.45-3.6-1.2-.4-.85-.1-2 .35-1.1 1.25-1.85.7-.55 1.6-.8l.05.2q.3 1.5 1.45 2.35.95.7 2.2.8 1.95.15 2.35-1 .35-1.15-1.3-2.25-1.7-1.2-3.45-1.35.25-1.1 1.2-1.6.8-.5 1.75-.6.95-.05 1.55.35.55.35.85-.15m-1.75 5.2q-.05.1-.4.15-.4.1-.95 0-1.95-.2-2.3-2.15 1.35.15 2.8 1.15.8.55.85.85z" id="cq"/><path fill="#784E3D" d="M74.15 739.45q.25-.1.3-.35.05-.25-.1-.5-.1-.2-.35-.25-.25-.05-.45.05-1.4.85-2.3 2.35-.95 1.55-1.15 3.35-.4 3.35 1.8 5.35.2.2.4.2.25 0 .45-.2.45-.45 0-.9-1.7-1.55-1.45-4.35.4-3.35 2.85-4.75z" id="cr"/><path fill="#AB8574" d="M76 742.05q-.6-.3-.85.25-1.5 2.65-1.25 5.5.2 3.2 2.6 5.35.15.15.4.15t.45-.2q.45-.4-.05-.9-2.05-1.8-2.2-4.55-.15-2.45 1.1-4.75.3-.45-.2-.85z" id="cs"/><path fill="#784E3D" d="M80.55 753q.25 0 .4-.15.5-.4.1-.85-.95-1.2-1.35-2.6-.4-1.45-.05-2.65.1-.65-.45-.75-.55-.2-.75.4-.4 1.5.05 3.2.45 1.7 1.6 3.15.15.25.45.25z" id="ct"/><path fill="#AB8574" d="M87 758.55q-.55.25-.25.85.25.55.85.25 2.1-1.15 3.4-.3.9.6 2.3 3.1 1.1 2.1 1.9 2.9 1.3 1.4 3.05 1.4h.4q.65-.1.55-.7 0-.2-.2-.4-.2-.15-.45-.15-1.4.15-2.45-1-.65-.65-1.75-2.65-1.45-2.6-2.55-3.4-1.95-1.4-4.8.1z" id="cu"/><path fill="#784E3D" d="M104.6 765.75q-.75-.9-3-2.2-3.05-1.7-3.65-3.15-.25-.55-.8-.35-.55.25-.35.8.5 1.2 1.75 2.2.7.6 2.4 1.55 2.1 1.15 2.7 1.9.9 1.05.45 2.5-.1.6.45.75l.15.05q.4 0 .6-.45.6-2.1-.7-3.6z" id="cv"/><path fill="#AB8574" d="M123 789.75q1.75.25 3 1.25 1.6 1.35 1.15 3.2-.45 1.7-2.35 1.85-.8.05-1.45-.25-.6-.3-.85-.8-.4-.95 1.15-2.25.5-.4.05-.85-.15-.2-.4-.2-.25-.05-.45.15-2.25 1.9-1.45 3.6.35.85 1.3 1.35 1 .55 2.2.45 1.3-.05 2.2-.8.9-.7 1.2-1.95.7-2.6-1.55-4.45-1.5-1.25-3.65-1.55-2.1-.3-3.8.5-3.85 1.8-3.6 5.2.2 2.2 2.1 4.2 1.9 2 4.5 2.7 1.15.3 2.2.3 3.55 0 5.75-3.05.4-.5-.15-.85-.2-.15-.45-.1-.25.05-.4.25-2.4 3.4-6.6 2.3-2.2-.65-3.9-2.35-1.65-1.7-1.8-3.5-.25-2.55 2.9-4 1.35-.65 3.15-.35z" id="cw"/><path fill="#AB8574" d="M35.65 714.3q-6.55-.15-7.75 2.85-.7 2.1 1.45 3.85 1.75 1.4 4.25 1.4 2.7 0 5.25-1.7.45-.35.15-.85-.1-.2-.35-.25-.25-.05-.5.1-2.25 1.5-4.6 1.45-2.05 0-3.45-1.1-1.55-1.2-1.05-2.5.35-1.05 2.15-1.6 1.75-.5 4.45-.45.6 0 .6-.6.05-.2-.15-.4t-.45-.2z" id="cx"/><path fill="#AB8574" d="M41.05 734.65q.6-.1.5-.7-.1-.6-.7-.5-5.05.7-6.55-1.65-.7-1.1 0-2.25.55-.85 1.75-1.25 1.25-.35 2.8-.15.65 0 .65-.55.1-.6-.5-.7-1.95-.2-3.45.3-1.55.55-2.3 1.7-1.1 1.8.05 3.6 1.55 2.3 5.6 2.3l2.15-.15z" id="cy"/><path fill="#AB8574" d="M65.15 727.35q.2-.55-.3-.8-1.5-.65-2.25-2.1-.75-1.45-.65-3.4 0-.65-.6-.65-.55 0-.65.55-.1 2.35.85 4.15.95 1.8 2.8 2.6l.25.05q.4 0 .55-.4z" id="cz"/><path fill="#AB8574" d="M153.3 796.9q.25-.1.3-.35.05-.25-.1-.5-.1-.2-.35-.25-.25-.05-.45.05-1.75.95-3.5.2-2.3-.95-2.95-3.5-.2-.55-.75-.45-.65.2-.45.75.85 3.15 3.65 4.35 1.05.4 2.05.4 1.3 0 2.55-.7z" id="cA"/><path fill="#AB8574" d="M143 801.35q.05.25.25.4 2.25 1.7 4.6 1.7 1.55 0 3-.85.25-.1.3-.35.05-.25-.1-.5-.25-.5-.85-.2-1.35.8-3 .6-1.65-.2-3.2-1.35-.5-.35-.85.1-.2.2-.15.45z" id="cB"/><path fill="#AB8574" d="M147.2 807.1q1.7 0 3.3-1.3.45-.35.1-.85-.4-.45-.85-.1-2.65 2.1-4.9.05-.2-.2-.45-.15-.25 0-.4.2-.4.45 0 .85 1.55 1.3 3.2 1.3z" id="cC"/></defs><use xlink:href="#ae"/><use xlink:href="#af" transform="matrix(1.01708 0 0 1.01693 7.364 -555.49)"/><use xlink:href="#ag" transform="matrix(1.01708 0 0 1.01693 7.364 -555.49)"/><use xlink:href="#ah" transform="matrix(1.01708 0 0 1.01693 7.364 -555.49)"/><use xlink:href="#ai" transform="matrix(1.01708 0 0 1.01693 7.364 -555.49)"/><use xlink:href="#aj" transform="matrix(1.01708 0 0 1.01693 7.364 -555.49)"/><use xlink:href="#ak" transform="matrix(1.01708 0 0 1.01693 7.364 -555.49)"/><use xlink:href="#al" transform="matrix(1.01708 0 0 1.01693 7.364 -555.49)"/><use xlink:href="#am" transform="matrix(1.01708 0 0 1.01693 7.364 -555.49)"/><use xlink:href="#an" transform="matrix(1.01708 0 0 1.01693 7.364 -555.49)"/><use xlink:href="#ao" transform="matrix(1.01708 0 0 1.01693 7.364 -555.49)"/><use xlink:href="#ap" transform="matrix(1.01708 0 0 1.01693 7.364 -555.49)"/><use xlink:href="#aq" transform="matrix(1.01708 0 0 1.01693 7.364 -555.49)"/><use xlink:href="#ar" transform="matrix(1.01708 0 0 1.01693 7.364 -555.49)"/><use xlink:href="#as" transform="matrix(1.01708 0 0 1.01693 7.364 -555.49)"/><use xlink:href="#at" transform="matrix(1.01708 0 0 1.01693 7.364 -555.49)"/><use xlink:href="#au" transform="matrix(1.01708 0 0 1.01693 7.364 -555.49)"/><use xlink:href="#av" transform="matrix(1.01708 0 0 1.01693 7.364 -555.49)"/><use xlink:href="#aw" transform="matrix(1.01708 0 0 1.01693 7.364 -555.49)"/><use xlink:href="#ax" transform="matrix(1.01708 0 0 1.01693 7.364 -555.49)"/><use xlink:href="#ay" transform="matrix(1.01708 0 0 1.01693 7.364 -555.49)"/><use xlink:href="#az" transform="matrix(1.01708 0 0 1.01693 7.364 -555.49)"/><use xlink:href="#aA" transform="matrix(1.01708 0 0 1.01693 7.364 -555.49)"/><use xlink:href="#aB" transform="matrix(1.01708 0 0 1.01693 7.364 -555.49)"/><use xlink:href="#aC" transform="matrix(1.01708 0 0 1.01693 7.364 -555.49)"/><use xlink:href="#aD" transform="matrix(1.01708 0 0 1.01693 7.364 -555.49)"/><use xlink:href="#aE" transform="matrix(1.01708 0 0 1.01693 7.364 -555.49)"/><use xlink:href="#aF" transform="matrix(1.01708 0 0 1.01693 7.364 -555.49)"/><use xlink:href="#aG" transform="matrix(1.01708 0 0 1.01693 7.364 -555.49)"/><use xlink:href="#aH" transform="matrix(1.01708 0 0 1.01693 7.364 -555.49)"/><use xlink:href="#aI" transform="matrix(1.01708 0 0 1.01693 7.364 -555.49)"/><use xlink:href="#aJ" transform="matrix(1.01708 0 0 1.01693 7.364 -555.49)"/><use xlink:href="#aK" transform="matrix(1.01708 0 0 1.01693 7.364 -555.49)"/><use xlink:href="#aL" transform="matrix(1.01708 0 0 1.01693 7.364 -555.49)"/><use xlink:href="#aM" transform="matrix(1.01708 0 0 1.01693 7.364 -555.49)"/><use xlink:href="#aN" transform="matrix(1.01708 0 0 1.01693 7.364 -555.49)"/><use xlink:href="#aO" transform="matrix(1.01708 0 0 1.01693 7.364 -555.49)"/><use xlink:href="#aP" transform="matrix(1.01708 0 0 1.01693 7.364 -555.49)"/><use xlink:href="#aQ" transform="matrix(1.01708 0 0 1.01693 7.364 -555.49)"/><use xlink:href="#aR" transform="matrix(1.01708 0 0 1.01693 7.364 -555.49)"/><use xlink:href="#aS" transform="matrix(1.01708 0 0 1.01693 7.364 -555.49)"/><use xlink:href="#aT" transform="matrix(1.01708 0 0 1.01693 7.364 -555.49)"/><use xlink:href="#aU" transform="matrix(1.01708 0 0 1.01693 7.364 -555.49)"/><use xlink:href="#aV" transform="matrix(1.01708 0 0 1.01693 7.364 -555.49)"/><use xlink:href="#aW" transform="matrix(1.01708 0 0 1.01693 7.364 -555.49)"/><use xlink:href="#aX" transform="matrix(1.01708 0 0 1.01693 7.364 -555.49)"/><use xlink:href="#aY" transform="matrix(1.01708 0 0 1.01693 7.364 -555.49)"/><use xlink:href="#aZ" transform="matrix(1.01708 0 0 1.01693 7.364 -555.49)"/><use xlink:href="#ba" transform="matrix(1.01708 0 0 1.01693 7.364 -555.49)"/><use xlink:href="#bb" transform="matrix(1.01708 0 0 1.01693 7.364 -555.49)"/><use xlink:href="#bc" transform="matrix(1.01708 0 0 1.01693 7.364 -555.49)"/><use xlink:href="#bd" transform="matrix(1.01708 0 0 1.01693 7.364 -555.49)"/><use xlink:href="#be" transform="matrix(1.01708 0 0 1.01693 7.364 -555.49)"/><use xlink:href="#bf" transform="matrix(1.01708 0 0 1.01693 7.364 -555.49)"/><use xlink:href="#bg" transform="matrix(1.01708 0 0 1.01693 7.364 -555.49)"/><use xlink:href="#bh" transform="matrix(1.01708 0 0 1.01693 7.364 -555.49)"/><use xlink:href="#bi" transform="matrix(1.01708 0 0 1.01693 7.364 -555.49)"/><use xlink:href="#bj" transform="matrix(1.01708 0 0 1.01693 7.364 -555.49)"/><use xlink:href="#bk" transform="matrix(1.01708 0 0 1.01693 7.364 -555.49)"/><use xlink:href="#bl" transform="matrix(1.01708 0 0 1.01693 7.364 -555.49)"/><use xlink:href="#bm" transform="matrix(1.01708 0 0 1.01693 7.364 -555.49)"/><use xlink:href="#bn" transform="matrix(1.01708 0 0 1.01693 7.364 -555.49)"/><use xlink:href="#bo" transform="matrix(1.01708 0 0 1.01693 7.364 -555.49)"/><use xlink:href="#bp" transform="matrix(1.01708 0 0 1.01693 7.364 -555.49)"/><use xlink:href="#bq" transform="matrix(1.01708 0 0 1.01693 7.364 -555.49)"/><use xlink:href="#br" transform="matrix(1.01708 0 0 1.01693 7.364 -555.49)"/><use xlink:href="#bs" transform="matrix(1.01708 0 0 1.01693 7.364 -555.49)"/><use xlink:href="#bt" transform="matrix(1.01708 0 0 1.01693 7.364 -555.49)"/><use xlink:href="#bu" transform="matrix(1.01708 0 0 1.01693 7.364 -555.49)"/><use xlink:href="#bv" transform="matrix(1.01708 0 0 1.01693 7.364 -555.49)"/><use xlink:href="#bw" transform="matrix(1.01708 0 0 1.01693 7.364 -555.49)"/><use xlink:href="#bx" transform="matrix(1.01708 0 0 1.01693 7.364 -555.49)"/><use xlink:href="#by" transform="matrix(1.01708 0 0 1.01693 7.364 -555.49)"/><use xlink:href="#bz" transform="matrix(1.01708 0 0 1.01693 7.364 -555.49)"/><use xlink:href="#bA" transform="matrix(1.01708 0 0 1.01693 7.364 -555.49)"/><use xlink:href="#bB" transform="matrix(1.01708 0 0 1.01693 7.364 -555.49)"/><use xlink:href="#bC" transform="matrix(1.01708 0 0 1.01693 7.364 -555.49)"/><use xlink:href="#bD" transform="matrix(1.01708 0 0 1.01693 7.364 -555.49)"/><use xlink:href="#bE" transform="matrix(1.01708 0 0 1.01693 7.364 -555.49)"/><use xlink:href="#bF" transform="matrix(1.01708 0 0 1.01693 7.364 -555.49)"/><use xlink:href="#bG" transform="matrix(1.01708 0 0 1.01693 7.364 -555.49)"/><use xlink:href="#bH" transform="matrix(1.01708 0 0 1.01693 7.364 -555.49)"/><use xlink:href="#bI" transform="matrix(1.01708 0 0 1.01693 7.364 -555.49)"/><use xlink:href="#bJ" transform="matrix(1.01708 0 0 1.01693 7.364 -555.49)"/><use xlink:href="#bK" transform="matrix(1.01708 0 0 1.01693 7.364 -555.49)"/><use xlink:href="#bL" transform="matrix(1.01708 0 0 1.01693 7.364 -555.49)"/><use xlink:href="#bM" transform="matrix(1.01708 0 0 1.01693 7.364 -555.49)"/><use xlink:href="#bN" transform="matrix(1.01708 0 0 1.01693 7.364 -555.49)"/><use xlink:href="#bO" transform="matrix(1.01708 0 0 1.01693 7.364 -555.49)"/><use xlink:href="#bP" transform="matrix(1.01708 0 0 1.01693 7.364 -555.49)"/><use xlink:href="#bQ" transform="matrix(1.01708 0 0 1.01693 7.364 -555.49)"/><use xlink:href="#bR" transform="matrix(1.01708 0 0 1.01693 7.364 -555.49)"/><use xlink:href="#bS" transform="matrix(1.01708 0 0 1.01693 7.364 -555.49)"/><use xlink:href="#bT" transform="matrix(1.01708 0 0 1.01693 7.364 -555.49)"/><use xlink:href="#bU" transform="matrix(1.01708 0 0 1.01693 7.364 -555.49)"/><use xlink:href="#bV" transform="matrix(1.01708 0 0 1.01693 7.364 -555.49)"/><use xlink:href="#bW" transform="matrix(1.01708 0 0 1.01693 7.364 -555.49)"/><use xlink:href="#bX" transform="matrix(1.01708 0 0 1.01693 7.364 -555.49)"/><use xlink:href="#bY" transform="matrix(1.01708 0 0 1.01693 7.364 -555.49)"/><use xlink:href="#bZ" transform="matrix(1.01708 0 0 1.01693 7.364 -555.49)"/><use xlink:href="#ca" transform="matrix(1.01708 0 0 1.01693 7.364 -555.49)"/><use xlink:href="#cb" transform="matrix(1.01708 0 0 1.01693 7.364 -555.49)"/><use xlink:href="#cc" transform="matrix(1.01708 0 0 1.01693 7.364 -555.49)"/><use xlink:href="#cd" transform="matrix(1.01708 0 0 1.01693 7.364 -555.49)"/><use xlink:href="#ce" transform="matrix(1.01708 0 0 1.01693 7.364 -555.49)"/><use xlink:href="#cf" transform="matrix(1.01708 0 0 1.01693 7.364 -555.49)"/><use xlink:href="#cg" transform="matrix(1.01708 0 0 1.01693 7.364 -555.49)"/><use xlink:href="#ch" transform="matrix(1.01708 0 0 1.01693 7.364 -555.49)"/><use xlink:href="#ci" transform="matrix(1.01708 0 0 1.01693 7.364 -555.49)"/><use xlink:href="#cj" transform="matrix(1.01708 0 0 1.01693 7.364 -555.49)"/><use xlink:href="#ck" transform="matrix(1.01708 0 0 1.01693 7.364 -555.49)"/><use xlink:href="#cl" transform="matrix(1.01708 0 0 1.01693 7.364 -555.49)"/><use xlink:href="#cm" transform="matrix(1.01708 0 0 1.01693 7.364 -555.49)"/><use xlink:href="#cn" transform="matrix(1.01708 0 0 1.01693 7.364 -555.49)"/><use xlink:href="#co" transform="matrix(1.01708 0 0 1.01693 7.364 -555.49)"/><use xlink:href="#cp" transform="matrix(1.01708 0 0 1.01693 7.364 -555.49)"/><use xlink:href="#cq" transform="matrix(1.01708 0 0 1.01693 7.364 -555.49)"/><use xlink:href="#cr" transform="matrix(1.01708 0 0 1.01693 7.364 -555.49)"/><use xlink:href="#cs" transform="matrix(1.01708 0 0 1.01693 7.364 -555.49)"/><use xlink:href="#ct" transform="matrix(1.01708 0 0 1.01693 7.364 -555.49)"/><use xlink:href="#cu" transform="matrix(1.01708 0 0 1.01693 7.364 -555.49)"/><use xlink:href="#cv" transform="matrix(1.01708 0 0 1.01693 7.364 -555.49)"/><use xlink:href="#cw" transform="matrix(1.01708 0 0 1.01693 7.364 -555.49)"/><use xlink:href="#cx" transform="matrix(1.01708 0 0 1.01693 7.364 -555.49)"/><use xlink:href="#cy" transform="matrix(1.01708 0 0 1.01693 7.364 -555.49)"/><use xlink:href="#cz" transform="matrix(1.01708 0 0 1.01693 7.364 -555.49)"/><use xlink:href="#cA" transform="matrix(1.01708 0 0 1.01693 7.364 -555.49)"/><use xlink:href="#cB" transform="matrix(1.01708 0 0 1.01693 7.364 -555.49)"/><use xlink:href="#cC" transform="matrix(1.01708 0 0 1.01693 7.364 -555.49)"/></svg>