<svg xmlns="http://www.w3.org/2000/svg" xmlns:xlink="http://www.w3.org/1999/xlink" preserveAspectRatio="none" width="284" height="320"><defs><g id="a"><path fill="#FED1E0" d="M284 179V0H0v320h284V179m-76.25-38.85q.25.35.25.85 2.15.85 2.85 3.05.15.45.15.95 2.2.3 2.05 3-.05.5-.05 1 .5.5.8 1.1.2.4.2.9 2.55.45 2.05 4-.05.5-.05 1 1.65-.1 1.1 2.05-.1.45-.1.95 2.95-.4 2.1 3.05-.1.45-.1.95.5.5.8 1.1.2.4.2.9.5.5.8 1.1.2.4.2.9 2.2.3 2.05 3-.05.5-.05 1 2.65-.65 2.1 2-.1.5-.1 1 1.7.3 1.1 3-.1.5-.1 1 2.65-.65 2.1 2-.1.5-.1 1 .5.5.8 1.1.2.4.2.9.5 0 .75.25t.25.75q1.8 1.2 2.8 3.1.2.4.2.9 1.7.3 1.95 2 .05.5.05 1 3.95 2.55 11 2.05.5-.05 1-.05v-1q.5-.5 1.1-.8.4-.2.9-.2v-1-1q6.45-1.65 2.65 4.8-.15.2-.65.2 0 .5.05 1 .1 1.65-2.05 1 0 .5-.25.85Q248 198 247 199q0 .5-.2.9-.3.6-.8 1.1 0 .5.1.95.55 2.2-1.1 2.05 0 .5-.25.75-2 2-4.75 3.25 0 .5-.25.75t-.75.25q0 .5-.2.6-.8.4-1.8.4 0 .5-.2.6-.8.4-1.8.4 0 .5-.25.75t-.75.25q0 .5-.25.7-2.3 1.75-5.75 2.3 0 .5-.05.5-3.45.5-6.95.5 0 .5-.25.75t-.75.25q0 .5-.05.5-4.95.5-9.95.5v.5q-.5 0-1-.5h-8q0 .5-.25.75t-.75.25q-4.85-2.95-3.2 7.85 2.85 18.3-8.8 16.15 8.35.55 7.75-7.05Q195 226.5 195 217h-1q-2.9-.1-4-2-.5 0-.75-.25-.75-.75-1.25-1.75-.5 0-.95.1-2.15.55-2.05-1.1-.5 0-.95-.15-1.75-.6-2.05-2.85-.5 0-.9-.2-.6-.3-1.1-.8-.5 0-.95.1-2.15.55-2.05-1.1-.5 0-.75-.25Q175 205.5 174 204q-.5 0-.95-.1-2.8-.7-3.05-3.9-.5 0-.9-.2-.6-.3-1.1-.8-.5 0-.6-.2-.4-.8-.4-1.8-.5 0-.75-.25Q165 195.5 164 194q-.5 0-.5-.05-.3-2.65-1.5-3.95-.5 0-.6-.2-.4-.8-.4-1.8-.5 0-.8-.25-2.4-2.05-3.2-5.75-.5 0-.5-.1-.5-2.4-.5-4.9-.5 0-.75-.25-1.7-1.8-2.25-4.75-.5 0-.75-.25T152 171v-1q-.5 0-.55-.15-.45-1.35-.45-2.85v-1-1-1-1-1-1q0-.5-.2-.9Q145.45 150 136 144q7.55-2.45 16-3.9.5-.1 1-.1v-1-2h2v-1-1h2v-1-1h2v-1q3-2.5 7.05-3.85.45-.15.95-.15v-1q8.5 0 16.95.5.05 0 .05.5 1.5 0 2.85.45.15.05.15.55 3.7-.7 4.8 1.15.2.35.2.85 1.5 0 2.85.45.15.05.15.55.5 0 .75.25t.25.75q1 0 1.8.4.2.1.2.6.5 0 .75.25t.25.75q1 0 1.8.4.2.1.2.6 2.7-.7 2.95 1 .05.5.05 1 2.55.45 3.75 2.15M127 15q.5 0 .75.25t.25.75v2q0 .5-.25.75T127 19v1q0 .5-.25.75T126 21q0 .5-.25.75T125 22v1q0 .5-.25.75T124 24q0 .5-.25.75T123 25v1q0 .5-.25.75T122 27q-.5 0-.75-.25T121 26v-1q-.5 0-.75-.25T120 24v-1q-.5 0-.75-.25T119 22q-.5 0-.75-.25T118 21v-1q-.5 0-.75-.25T117 19q-.5 0-.75-.25T116 18v-1-1-1h2v-1h2q.5 0 .75.25t.25.75h3v-1h1q.5 0 .75.25t.25.75h1m31.75 14.25q.25.25.25.75v2q0 .5-.25.75T158 33v1q0 .5-.25.75T157 35q0 .5-.25.75T156 36v1q0 .5-.25.75T155 38q0 .5-.25.75T154 39v1.5q-.5 0-1-.5-.5 0-.75-.25T152 39v-1q-.5 0-.75-.25T151 37q-.5 0-.75-.25T150 36q-.5 0-.75-.25T149 35v-1q-.5 0-.75-.25T148 33q-.5 0-.75-.25T147 32v-1-1h1v-1h1v-1h2q.5 0 .75.25t.25.75h3v-1h1q.5 0 .75.25t.25.75h1q.5 0 .75.25m-38 22q.25.25.25.75h3v-1h1q.5 0 .75.25t.25.75h1q.5 0 .75.25t.25.75v2q0 .5-.25.75T127 56v1q0 .5-.25.75T126 58q0 .5-.25.75T125 59v1q0 .5-.25.75T124 61q0 .5-.25.75T123 62v1.5q-.5 0-1-.5-.5 0-.75-.25T121 62v-1q-.5 0-.75-.25T120 60q-.5 0-.75-.25T119 59q-.5 0-.75-.25T118 58v-1q-.5 0-.75-.25T117 56q-.5 0-.55-.15Q116 54.5 116 53h1v-1h1v-1h2q.5 0 .75.25M115 95h1q.5 0 .75.25t.25.75h4v-1h1q.5 0 .75.25t.25.75h1q.5 0 .75.25t.25.75v2q0 .5-.25.75t-.75.25v1q0 .5-.25.75t-.75.25q0 .5-.25.75t-.75.25q0 .5-.25.75t-.75.25v1q0 .5-.25.75t-.75.25v1q0 .5-.25.75t-.75.25q-.5 0-.75-.25T118 107v-1q-.5 0-.75-.25T117 105v-1q-.5 0-.75-.25T116 103q-.5 0-.75-.25T115 102v-1q-.5 0-.75-.25T114 100q-.5 0-.75-.25T113 99v-1-1-1h2v-1m36-21h1q.5.5 1.1.8.4.2.9.2t.75.25q.25.25.25.75t.1.95q.55 2.2-1.1 2.05v1q0 .5-.25.75T153 81q0 .5-.25.75T152 82q0 .5-.25.75T151 83v1q0 .5-.25.75T150 85v1.5q-.5 0-1-.5-.5 0-.75-.25T148 85v-1q-.5 0-.75-.25T147 83q-.5 0-.75-.25T146 82q-.5 0-.75-.25T145 81v-1q-.5 0-.75-.25T144 79q-.5 0-.55-.15Q143 77.5 143 76h1v-1h1v-1h1q.5.5 1.1.8.4.2.9.2h3v-1m-93 72q.5-.5 1.1-.8.4-.2.9-.2v-1-1q1.7-.3 2.4-1.8.1-.2.6-.2v-1q1.5-1 3.1-1.8.4-.2.9-.2v-1-1h3v-1h2v-1h1v-1h2v-1h1v-1h3v-1-1h5v-1h3v-1q8 0 15.95.5.05 0 .05.5 5.65.85 8.75 4.25.25.25.25.75 2.15-.6 2.05 1-.05.5-.05 1 2.15-.6 2.05 1-.05.5-.05 1 2.65-.65 2.1 2-.1.5-.1 1 .5 0 1 .05 10.3.65 16 5.95-.5 0-.8.25-4.35 3.6-10.2 5.75 0 .5-.25.8-3.93 5.332-4.7 9.6.172 1.881.05 3.6-.015.264-.05.5-.49 5.906-4.05 10.5 0 .5.1 1 .6 3.2-1.1 4 0 .5-.1.95-.95 3.5-3.9 5.05 0 .5-.2.9-.3.6-.8 1.1 0 .5-.1 1-.55 2.35-2.9 3 0 .5-.25.75Q104.5 196 103 197q0 .5-.2.9-.3.6-.8 1.1 0 .5-.2.6-.8.4-1.8.4 0 .5-.1.95-.7 2.75-3.9 3.05 0 .5-.25.75Q94.5 206 93 207q0 .5-.2.6-.8.4-1.8.4 0 .5-.2.6-.8.4-1.8.4 0 .5-.2.9-.8 1.6-2.8 2.1 0 .5-.15.55-1.35.45-2.85.45 0 .5-.25.75Q82 214.5 81 215q0 .5-.2.65-2 1.15-4.8 1.35 0 .5-.1.5-2.4.5-4.9.5-1.198 9.868 3.6 12.1 1.688.16 3.35.4.04 0 .05.3.804.012 1.7-.1l-1.7.3q0 .5-.2.9-.3.6-.8 1.1 0 .5-.25.75T76 234q0 .5-.2.9-.3.6-.8 1.1 0 .5-.25.75T74 237v2q6.6.25 1 .95-.5.05-1 .05 0 .5-.25.85-1.1 1.7 9.25 1.15h1q-.35 1.65-9 1-6.95-.55-6-9-.5 0-.9-.2-.6-.3-1.1-.8-.5 0-.9-.2-.6-.3-1.1-.8h-.5q.15 7.65-1.5 13-.5 0-.5-.05Q62 238.5 62 232h-.5q2.56-14.235-7.95-15H51q-.5 0-.75-.25T50 216q-.5 0-1 .05-4.25.65-6-1.05-.5 0-1-.1-3.3-.6-5-2.9-.5 0-.9-.2-.6-.3-1.1-.8-.5 0-.9-.2-.6-.3-1.1-.8-.5 0-.9-.2-.6-.3-1.1-.8-.5 0-.75-.25T30 208q-.5 0-.9-.2-2.55-1.35-4.1-3.8-.5 0-.55-.15Q24 202.5 24 201q-.5 0-.6-.2-.4-.8-.4-1.8-.5 0-.55-.15-.5-1.8-1.45-2.85-.5 0-.6-.2-.4-.8-.4-1.8-.5 0-.75-.25-1.7-1.8-1.25-5.75 2 .5 2.8 2.1.2.4.2.9 1 .5 1.75 1.25.25.25.25.75 7.45.95 11.2-1.75.3-.25.8-.25v-1-1q2.15.65 2.5-.9 0-.1.5-.1v-1q1.5-1 2.4-2.8.1-.2.6-.2v-1h1v-1-1h1v-1-2h2v-1-3h1v-1-2h2v-1-2q.5-.5 1.1-.8.4-.2.9-.2v-1-1h1v-1-1h1v-1-3h2v-1-2h1v-1-3q.5-.5 1.1-.8.4-.2.9-.2v-1-1h1v-1-2m89-32h2q.5 0 .75.25t.25.75h3v-1h2q.5 0 .75.25t.25.75q.5 0 .75.25t.25.75v3q0 .5-.25.75t-.75.25q0 .5-.25.75t-.75.25q0 .5-.25.75t-.75.25v1q0 .5-.25.75t-.75.25q0 .5-.25.75t-.75.25v1q0 .5-.25.75t-.75.25q-.5 0-.75-.25T150 126v-1q-.5 0-.75-.25T149 124v-1q-.5 0-.75-.25T148 122q-.5 0-.75-.25T147 121v-1q-.5 0-.75-.25T146 119q-.5 0-.75-.25T145 118v-1-1-1h2v-1M86 236.5v-.5q5.4.5 0 .5m-4 .5q7 .5 0 .5v-.5m7.75 49.25q.25.25.25.75v2h1v-1h1v-1-1h2q.5.5.5 1H94v1q0 .5-.25.75T93 289v1q0 .5-.25.75T92 291v1q0 .5-.25.75T91 293v1q0 .5-.25.75T90 295v1q0 .5-.25.75T89 297q0 .5-.25.75T88 298h-1q-.5 0-.75-.25T86 297h2v-1h1v-1-1-1-1-1-1q-.5 0-.75-.25T88 289v-1h-1v1q0 .5-.25.75T86 290v1q0 .5-.25.75T85 292q0 .5-.25.75T84 293h-3q0 .5.1 1 .6 3.2-1.1 4-.5 0-.6-.2-.4-.8-.4-1.8v-1-2-1-5h-1v2q0 .5-.25.75T77 290v1q0 .5-.25.75T76 292q0 .5-.25.75T75 293h-3q0 .5.1 1 .6 3.2-1.1 4-.5 0-.6-.2-.4-.8-.4-1.8v-1-2-1-5h-1q-.5 0-.75-.25T68 286h3q.5 0 .75.25t.25.75h1v-1h7q.5 0 .75.25t.25.75h1v-1h7q.5 0 .75.25m11 0q.25.25.25.75v2h2v-1-1q-.5 0-.75-.25T102 286h2q.5.5.8 1.1.2.4.2.9t-.25.75q-.25.25-.75.25v1q0 .5-.25.75t-.75.25q0 .5-.25.75t-.75.25q0 .5-.25.75t-.75.25q-.5 0-.75-.25T100 292v-1q-.5 0-.75-.25T99 290v-1-1q-.5 0-.75-.25T98 287q-.5 0-.75-.25T97 286h3q.5 0 .75.25M115 281v-2h2q.5 0 .75.25t.25.75q0 .5-.25.75t-.75.25v11h1v-1-1-1-1h1v-1h1v-1h6q.5 0 .75.25t.25.75h1v-1h3q.5 0 .75.25t.25.75v4q.5 0 .75.25t.25.75q0 .5-.25.75t-.75.25h-1q-.5 0-.75-.25T130 292v-1-2-1-1h-1q0 .5-.25.75t-.75.25v2q0 .5-.25.75t-.75.25v1q0 .5-.25.75t-.75.25q-.5 0-.75-.25T125 292h-1q0 .5-.25.75t-.75.25h-7q-.5 0-.75-.25T115 292v-1-2-1-3-1-2-1m-5 5h1q.5 0 .75.25t.25.75q1.7.3.6 2.8-.1.2-.6.2v1q.5 0 .75.25t.25.75q.5.5.5 1H112q-.5 0-.75-.25T111 292h-1q0 .5-.25.75t-.75.25h-3q-.5 0-.75-.25T105 292v-1-1h1v-1-1-1h2v-1h2m24-2v-1-1h2q.5 0 .75.25t.25.75q0 .5-.25.75t-.75.25v2h4q.5 0 .75.25t.25.75v5h1v-1h1v-1-2-1q-.5 0-.75-.25T142 286h2q.5 0 .75.25t.25.75h1v-1h3q.5 0 .75.25t.25.75v4h1v-1-1-1h1v-1h1v-1h3q.5 0 .75.25t.25.75q.5.5.5 1H156q0 .5-.25.75t-.75.25h-2v1q.5 0 .75.25t.25.75v1h2v-1h1q.5.5.5 1h-.5q0 .5-.25.75t-.75.25h-3q-.5 0-.75-.25T152 292h-1q0 .5-.25.75t-.75.25h-1q-.5 0-.75-.25T148 292v-1-2-1-1h-1q0 .5-.25.75t-.75.25v2q0 .5-.25.75t-.75.25v1q0 .5-.25.75t-.75.25h-4q-.5 0-.75-.25T139 292h-1q0 .5-.25.75t-.75.25h-2q-.5 0-.75-.25T134 292v-1-4q-.5 0-.75-.25T133 286h1v-1-1m7-2q.5.5.5 1h-.5q0 .5-.25.75t-.75.25q-.5 0-.6-.2-.4-.8-.4-1.8h2m18.75-1.75q.25.25.25.75v2q0 .5-.25.75t-.75.25v.5q-.5 0-1-.5v-1-1-1-1h1q.5 0 .75.25M160 287h1v-1h4q.5 0 .75.25t.25.75q0 .5-.25.75t-.75.25q-.5 0-.75-.25T164 287h-2v1q.5 0 .75.25t.25.75h1q.5 0 .75.25t.25.75q1.65-.1.6 1.8-.1.2-.6.2 0 .5-.25.75t-.75.25h-3q-.5 0-.75-.25T160 292v-1h1q.5 0 .75.25t.25.75h2v-1q-.5 0-.75-.25T163 290h-1q-.5 0-.75-.25T161 289q-.5 0-.6-.2-.4-.8-.4-1.8m-80-59.5v-.5q2.25.5 0 .5m-2 11v-.5q7 .5 0 .5M52 281q.5 0 .75.25t.25.75v4h4v-1-2-1-1h2q.5.5.8 1.1.2.4.2.9t-.2.9q-.3.6-.8 1.1v6q.5 0 .75.25t.25.75h1v-1-1h1v-1-1-1h1v-1h3q.5 0 .75.25t.25.75q1.7.3.6 2.8-.1.2-.6.2v1q.5 0 .75.25t.25.75q.5.5.5 1H67q-.5 0-.75-.25T66 292h-1q0 .5-.25.75T64 293h-6q-.5 0-.75-.25T57 292v-1-1-2-1h-4v2q0 .5.1 1 .6 2.7-1.1 3h-1q-.5 0-.55-.15Q50 291.5 50 290v-1-7q-.5 0-.75-.25T49 281h3m152.25-52.25q-.25-.25-.25-.75 1.95 2.45.25.75M203 226q1.95 2.45.25.75-.25-.25-.25-.75m4.25 7.75q-.25-.25-.25-.75 1.95 2.45.25.75M205 230q2.25.5 0 .5v-.5m1 1q1.95 2.45.25.75-.25-.25-.25-.75m5.05 7.8q.45.2.95.2-.35 3.1-12.9.5-.1 0-.1-.5 9.15-1.4 12.05-.2M205 236q2.25.5 0 .5v-.5m1 1q2.25.5 0 .5v-.5m-2 6.5v-.5q5.4.5 0 .5m3-1v-.5q5.4.5 0 .5m1.25-6.75q-.25-.25-.25-.75 1.95 2.45.25.75m-5.25-.25v-.5q3.85.5 0 .5m-2.75-14.75q-.25-.25-.25-.75 1.95 2.45.25.75M182 234.5v-.5q2.25.5 0 .5m-1-1v-.5q2.25.5 0 .5m-1 12v-.5q5.4.5 0 .5m0-13v-.5q2.25.5 0 .5m22 2v-.5q2.25.5 0 .5m.25-9.75q-.25-.25-.25-.75 1.95 2.45.25.75M201 233.5v-.5q2.25.5 0 .5m-2-1v-.5q3.85.5 0 .5m-1-1v-.5q2.25.5 0 .5m-7.75 3.25q-.25-.25-.25-.75 1.95 2.45.25.75m-1-2q-.25-.25-.25-.75 1.95 2.45.25.75m-1-2q-.25-.25-.25-.75 1.95 2.45.25.75m-1-2q-.25-.25-.25-.75 1.95 2.45.25.75m5 10q-.25-.25-.25-.75 1.95 2.45.25.75m-1-2q-.25-.25-.25-.75 1.95 2.45.25.75M189 240.5v-.5q3.85.5 0 .5m-1-1v-.5q2.25.5 0 .5m-2-2.5q2.25.5 0 .5v-.5m-1-.5v-.5q2.25.5 0 .5m2 2v-.5q2.25.5 0 .5m-4 6v-.5q8.55.5 0 .5m8-3v-.5q2.25.5 0 .5m11 3v-.5q3.85.5 0 .5m-3 1v-.5q5.4.5 0 .5m-3 1v-.5q5.4.5 0 .5M183 235q3.85.5 0 .5v-.5m18.25-12.25q-.25-.25-.25-.75 1.95 2.45.25.75M176 281v-1-1h3q.5.5.5 1h-.5v12h1v-1-1h1v-1-1-1h1v-1h3q.5 0 .75.25t.25.75q1.7.3.6 2.8-.1.2-.6.2v1q.5 0 .75.25t.25.75q.5.5.5 1H186q-.5 0-.75-.25T185 292h-1q0 .5-.25.75t-.75.25h-6q-.5 0-.75-.25T176 292h-2q0 .5-.25.75t-.75.25h-1q-.5 0-.75-.25T171 292q-.5 0-.55-.15-.45-1.35-.45-2.85v-1h1v-1h1v-1h4v-1-2-1-1m26 3v-1-1-1h2v-1h2q.5 0 .75.25t.25.75h3v-1h2q.5 0 .75.25t.25.75q.5 0 .75.25t.25.75v3q0 .5-.25.75t-.75.25q0 .5-.25.75t-.75.25q0 .5-.25.75t-.75.25v1q0 .5-.25.75t-.75.25q0 .5-.25.75t-.75.25v1q0 .5-.25.75t-.75.25q-.5 0-.75-.25T207 292v-1q-.5 0-.75-.25T206 290v-1q-.5 0-.75-.25T205 288q-.5 0-.75-.25T204 287v-1q-.5 0-.75-.25T203 285q-.5 0-.75-.25T202 284m-11.25 2.25q.25.25.25.75v2h1v-1h1v-1-1h2q.5.5.5 1h-.5v1q0 .5-.25.75t-.75.25v1q0 .5-.25.75t-.75.25v1q0 .5-.25.75t-.75.25v1q0 .5-.25.75t-.75.25v1q0 .5-.25.75t-.75.25q0 .5-.25.75t-.75.25h-1q-.5 0-.75-.25T187 297h2v-1h1v-1-1-1-1-1-1q-.5 0-.75-.25T189 289v-1q-.5 0-.75-.25T188 287q-.5 0-.75-.25T187 286h3q.5 0 .75.25M194 247.5v-.5q3.85.5 0 .5z"/><path d="M194 247v.5q3.85 0 0-.5m-5 50h-1v1h1v-1m-1-11v1h1v-1h-1m25-2v-1-1-1h-3q0 .5-.25.75t-.75.25q0 .5-.25.75t-.75.25q-.5 0-.75-.25T207 282v-1h-3q0 .5-.25.75t-.75.25v2q.5 0 .75.25t.25.75v1q.5 0 .75.25t.25.75q.5 0 .75.25t.25.75v1q.5 0 .75.25t.25.75q.5 0 .75.25t.25.75h1v-1-1h1v-1h1v-1h1v-1-1h1v-1m-26 9v-1h-1v1h1m-3-4h-1v1h2v-1h-1m1-2v-1h-2v1h2m-3 5v1h1v-1h-1m-5 0v1h2v-1h-2m-2-5v-1h-1v1h1m-3 5v1h1v-1h-1m29-70q0 .5.25.75 1.7 1.7-.25-.75m-18 13.5q3.85 0 0-.5v.5m13 10.5v.5q5.4 0 0-.5m3-1v.5q5.4 0 0-.5m3-1v.5q3.85 0 0-.5m-11-3v.5q2.25 0 0-.5m-8 3v.5q8.55 0 0-.5m4-6v.5q2.25 0 0-.5m-2-2v.5q2.25 0 0-.5m1 1.5q2.25 0 0-.5v.5m2 1.5v.5q2.25 0 0-.5m1 1v.5q3.85 0 0-.5m2-4q0 .5.25.75 1.7 1.7-.25-.75m1 2q0 .5.25.75 1.7 1.7-.25-.75m-5-10q0 .5.25.75 1.7 1.7-.25-.75m1 2q0 .5.25.75 1.7 1.7-.25-.75m1 2q0 .5.25.75 1.7 1.7-.25-.75m1 2q0 .5.25.75 1.7 1.7-.25-.75m8-3v.5q2.25 0 0-.5m1 1v.5q3.85 0 0-.5m2 1v.5q2.25 0 0-.5m1-9q0 .5.25.75 1.7 1.7-.25-.75m0 10v.5q2.25 0 0-.5m-22-2v.5q2.25 0 0-.5m0 13v.5q5.4 0 0-.5m1-12v.5q2.25 0 0-.5m1 1v.5q2.25 0 0-.5m18-14q0 .5.25.75 1.7 1.7-.25-.75m3 15v.5q3.85 0 0-.5m5 0q0 .5.25.75 1.7 1.7-.25-.75m-1 7v.5q5.4 0 0-.5m-3 1v.5q5.4 0 0-.5m2-5.5q2.25 0 0-.5v.5m-1-1q2.25 0 0-.5v.5m7 2.5q-.5 0-.95-.2-2.9-1.2-12.05.2 0 .5.1.5 12.55 2.6 12.9-.5m-5.75-7.25q1.7 1.7-.25-.75 0 .5.25.75M205 230.5q2.25 0 0-.5v.5m2 2.5q0 .5.25.75 1.7 1.7-.25-.75m-3.75-6.25q1.7 1.7-.25-.75 0 .5.25.75M204 228q0 .5.25.75 1.7 1.7-.25-.75M67 292v1h1v-1h-1m-3 1v-1h-1v1h1m2-3v-1h-2v1h2m0-3v-1h-2v1h2m-6 6v-1h-1v1h1m-2-6v-1h-6v1h6m-7-5v-1h-1v1h1m27-44v.5q7 0 0-.5m2-11v.5q2.25 0 0-.5m84 66v-1h-2v1h2m0-4h-1v1h1v-1m1-2v-1h-3v1h3m-10 6v-1h-2v1h2m-2-5v1h2v-1h-2m3-1v-1h-2v1h2m-6 6v-1h-1v1h1m-7-7v1h1v-1h-1m5 0h-1v1h1v-1m-7 7v-1h-1v1h1m-6 0h2v-1h-2v1m2-6v-1h-3v1h3m-24 6v-1h-1v1h1m-4 0v-1h-1v1h1m1-4h-1v1h2v-1h-1m1-2v-1h-2v1h2m20 5v1h1v-1h-1m-5-5v-1h-1v1h1m4 0v-1h-1v1h1m-10 6h2v-1h-2v1m-4-1v1h1v-1h-1m4-4v1h2v-1h-2m1-2v1h2v-1h-2m-22 1v-1h-1v1h1m-11 10h-1v1h1v-1m-14-4v-1h-2v1h2m2-6v-1h-1v1h1m4 0v-1h-1v1h1m-10-1v1h1v-1h-1m13 7v-1h-2v1h2m2-6v-1h-1v1h1m3-1h-1v1h1v-1m-6-48.5q7 0 0-.5v.5m4-1.5v.5q5.4 0 0-.5m62-121h-1q0 .5-.25.75t-.75.25v2q.5 0 .75.25t.25.75v1q.5 0 .75.25t.25.75q.5 0 .75.25t.25.75v1q.5 0 .75.25t.25.75q.5 0 .75.25t.25.75h1v-1-1h1v-1h1v-1h1v-1-1h1v-1-1-1-1h-3q0 .5-.25.75t-.75.25q0 .5-.25.75t-.75.25q-.5 0-.75-.25T150 116v-1h-2M34.1 210.8q.4.2.9.2 0-.5-.2-.6-.8-.4-1.8-.4.5.5 1.1.8m2 1q.4.2.9.2 0-.5-.2-.6-.8-.4-1.8-.4.5.5 1.1.8m-7-4q.4.2.9.2 0-.5-.2-.85-1.5-2.45-4.8-3.15 1.55 2.45 4.1 3.8m-4.65-3.95q.05.15.55.15 0-.5.1-.95.55-2.15-1.1-2.05 0 1.5.45 2.85M23 199q0-.5.1-1 .55-2.65-2.1-2 .95 1.05 1.45 2.85.05.15.55.15m.4 1.8q.1.2.6.2 0-.5-.2-.9-.3-.6-.8-1.1 0 1 .4 1.8M31 209q0-.5-.25-.75T30 208q0 .5.25.75t.75.25m1.1.8q.4.2.9.2 0-.5-.2-.6-.8-.4-1.8-.4.5.5 1.1.8M74 239v1q.5 0 1-.05 5.6-.7-1-.95m0-1v-1q.5 0 .75-.25T75 236h-2v3h1v-1m-7.9-5.2q.4.2.9.2 0-.5-.2-.6-.8-.4-1.8-.4.5.5 1.1.8m2 1q.4.2.9.2 0-.5-.2-.6-.8-.4-1.8-.4.5.5 1.1.8m-3.6-1.8h.5q0-.5-.2-.6-.8-.4-1.8-.4 0 .5-.25.75T62 232q0 6.5.5 12.95 0 .05.5.05 1.65-5.35 1.5-13m12.5 1h-1v1q.5 0 .75-.25T77 233m1-2.2v.2l1.7-.3q-.896.112-1.7.1m-.2 1.1q.2-.4.2-.9h-1v2q.5-.5.8-1.1M75 234v2q.5-.5.8-1.1.2-.4.2-.9h-1m-22-23h-2v1q1.5 0 2.85-.45.15-.05.15-.55h-1m-3 5q0 .5.25.75t.75.25q0-.5-.25-.75T50 216m-7-1q0-.5-.25-.7-2.3-1.75-5.75-2.3 1.7 2.3 5 2.9.5.1 1 .1m7 1v-.5q-3.2.2-4-1.5 1.5 0 2.85-.45.15-.05.15-.55h-1q-3.45.05-5 2 1.75 1.7 6 1.05.5-.05 1-.05m-1-4v1q1 0 1.8-.4.2-.1.2-.6h-2m9-4v1q1 0 1.8-.4.2-.1.2-.6h-2m-.2 1.6q.2-.1.2-.6h-2v1q1 0 1.8-.4m-2.8.4h-1v1q1 0 1.8-.4.2-.1.2-.6h-1m21 7q2.8-.2 4.8-1.35.2-.15.2-.65-.5 0-1 .1-2 .4-4 .9v1m-13.25-10.15q.25-.35.25-.85-.5 0-.95.15-1.05.35-2.05.85v1q1.95-.05 2.75-1.15m2.4-4.6Q64 203 63 204v2q1.8-1.2 2.8-3.1.2-.4.2-.9-.5 0-.85.25M67 201h-1v1q.5 0 .75-.25T67 201m1.75-1.25q.25-.25.25-.75h-2v2q1-.5 1.75-1.25m1-1q.25-.25.25-.75h-1v1q.5 0 .75-.25M84 242h-1q-10.35.55-9.25-1.15.25-.35.25-.85-.5 0-.75-.25T73 239q-.5 0-.75.25-1.6 1.55-1.25-3.25h2q0-.5-.1-.55-3.1-.75-1.9-5.45 1.814 0 3.6.1-4.798-2.232-3.6-12.1 2.5 0 4.9-.5.1 0 .1-.5H53.55q10.51.765 7.95 15h.5v-1h1v-1q7.45-1.95 6.5 3.9 0 .1-.5.1-.95 8.45 6 9 8.65.65 9-1m-22.15-21q.15-1.5.15-3 13.15.3 4.6 9.75-1.1 1.25-2.85.1-2.5-1.6-1.9-6.85M83 213h-2v2q1-.5 1.75-1.25.25-.25.25-.75m2.85-.45q.15-.05.15-.55h-3v1q1.5 0 2.85-.45M90 208h-1v1q1 0 1.8-.4.2-.1.2-.6h-1m-1 1q-.5 0-.5.1-.35 1.55-2.5.9v2q2-.5 2.8-2.1.2-.4.2-.9m4-2h-2v1q1 0 1.8-.4.2-.1.2-.6m3-3q-.5 0-.95.15-1.05.35-2.05.85v2q1.5-1 2.75-2.25.25-.25.25-.75m3.9-3.05q.1-.45.1-.95-.5 0-.65.2-1.2 1.95-3.35 2.8v1q3.2-.3 3.9-3.05m1.9-1.35q.2-.1.2-.6h-2v1q1 0 1.8-.4m1.2-2.6h-1v2q.5-.5.8-1.1.2-.4.2-.9m2.75-2.25q.25-.25.25-.75-.5 0-.95.15-1.05.35-2.05.85v2q1.5-1 2.75-2.25m3.15-3.75q.1-.5.1-1h-3v4q2.35-.65 2.9-3m.9-2.1q.2-.4.2-.9h-1v2q.5-.5.8-1.1m4.2-6.9q-.5 0-.55-.15-1.85-4.5-9.45-2.85 10.8.6 6.2 8.15-.2.35-.2.85 2.95-1.55 3.9-5.05.1-.45.1-.95m1-5h-1v5q1.7-.8 1.1-4-.1-.5-.1-1m-32.25 4.75q.25-.25.25-.75h-1v1q.5 0 .75-.25m3.1-1.2q.15-.05.15-.55h-3v1q1.5 0 2.85-.45M88 179h-2v1q1 0 1.8-.4.2-.1.2-.6m0-1v1h16q0-.5-.05-.5Q96 178 88 178m12-6q0-.5.05-1 .65-4.25-1.05-6 0 3.5.5 6.95 0 .05.5.05m1 .5v-.5h-1q.5.5 1 .5m-2.55-7.6q.05.1.55.1v-1-3h-1q0 2 .45 3.9m1.3-4.65Q99.5 160 99 160v1h1q0-.5-.25-.75m14 8q-.25-.25-.75-.25 0 .5.25.75t.75.25q0-.5-.25-.75m-1.65-.45q.4.2.9.2 0-.5-.2-.6-.8-.4-1.8-.4.5.5 1.1.8m3 2q.4.2.9.2 0-.5-.2-.6-.8-.4-1.8-.4.5.5 1.1.8m-2.35-6.05q.25-.25.25-.75h-1v1q.5 0 .75-.25m2.05-1.15q.2-.1.2-.6h-2v1q1 0 1.8-.4m.95-.85q.25-.25.25-.75h-1v1q.5 0 .75-.25m-14 10q.25-.25.25-.75h-1v1q.5 0 .75-.25M103 170h-1v1q.5 0 .75-.25t.25-.75m1.8-.4q.2-.1.2-.6h-2v1q1 0 1.8-.4m.95-.85q.25-.25.25-.75h-1v1q.5 0 .75-.25M102 162q0-.5-.2-.6-.8-.4-1.8-.4.5.5 1.1.8.4.2.9.2m2.75 1.25q-.25-.25-.75-.25 0 .5.25.75t.75.25q0-.5-.25-.75M104 163q0-.5-.2-.6-.8-.4-1.8-.4.5.5 1.1.8.4.2.9.2m7 1v1q.5 0 .75-.25t.25-.75h-1m-3 1v2h3v-1-1h-3m0 2h-2v1q1 0 1.8-.4.2-.1.2-.6m0-2q0-.5-.15-.55-1.35-.45-2.85-.45-.1 1.65 2.05 1.1.45-.1.95-.1m9.45-25.15q.05.15.55.15 0-.5.1-1 .55-2.65-2.1-2 .95 1.05 1.45 2.85M112 133q0-.5-.25-.75-3.1-3.4-8.75-4.25 3.65 2.85 8.1 4.8.4.2.9.2m1.25 1.75q.25.25.75.25 0-.5.05-1 .1-1.6-2.05-1 .5 1 1.25 1.75m2.8 1.25q.1-1.6-2.05-1 .5 1 1.25 1.75.25.25.75.25 0-.5.05-1M87 127v1h16q0-.5-.05-.5Q95 127 87 127m-.15 1.55q.15-.05.15-.55h-3v1q1.5 0 2.85-.45m47.35 17.7q.3-.25.8-.25-5.7-5.3-16-5.95-.5-.05-1-.05 0 .5.15.95 3.6 11.85-2.15 19.05v1q1.75 3.25.5 8.9 0 .1-.5.1 0 .5.25.8 1.7 2.2-1.25 4.2v2q3.56-4.594 4.05-10.5.035-.236.05-.5.122-1.719-.05-3.6.77-4.268 4.7-9.6.25-.3.25-.8 5.85-2.15 10.2-5.75M73 194h-1v1q.5 0 .75-.25T73 194m.8-1.1q.2-.4.2-.9h-1v2q.5-.5.8-1.1m.95-1.15q.25-.25.25-.75h-1v1q.5 0 .75-.25M75 191q.5-.5.8-1.1.2-.4.2-.9h-1v2m3-5v1q2-2 3.75-4.2.25-.3.25-.8-.5 0-.9.2-1.9 1-3.1 2.8v1m0 1h-1v1q.5 0 .75-.25T78 187m-1 1h-1v1q.5 0 .75-.25T77 188m-7 7v3q1-1 1.75-2.15.25-.35.25-.85h-2m-28.25-11.25q.25-.25.25-.75h-1v1q.5 0 .75-.25m1.05-1.85q.2-.4.2-.9h-1v2q.5-.5.8-1.1m1.95-3.05q.25-.35.25-.85h-2v3q1-1 1.75-2.15M46.1 175q-.1-.5-.1-1h-1v4q1.7-.3 1.1-3m5.7-11.1q.2-.4.2-.9h-1v2q.5-.5.8-1.1M48 171q1.5-1 1.9-3 .1-.5.1-1-.5 0-.9.2-.6.3-1.1.8v3m0 0h-2v3q1-1 1.75-2.15.25-.35.25-.85m2-5v1q.5-.5.8-1.1.2-.4.2-.9h-1v1m3-7h-1v4q1-1.5 1.8-3.1.2-.4.2-.9h-1m2.1-2.05q-.1-.45-.1-.95h-1v3q1.65.15 1.1-2.05m1.8-4.95q.1-.5.1-1-.5 0-.9.2-.6.3-1.1.8v4q1.35-1.65 1.9-4m.9-2.1q.2-.4.2-.9h-1v2q.5-.5.8-1.1M35 191q-.5 0-.8.25-3.75 2.7-11.2 1.75 6.85 2.85 11.75-1.3.25-.2.25-.7m3-4v1q2.7-.3 2.95-3 .05-.5.05-1-.5 0-.6.2-.9 1.8-2.4 2.8m0 1q-.5 0-.5.1-.35 1.55-2.5.9v2q2.7.2 2.95-2 .05-.5.05-1m-15.25 4.25Q22 191.5 21 191q-.6 2.15 1 2.05.5-.05 1-.05 0-.5-.25-.75M21 196q0-.5-.2-.9-.3-.6-.8-1.1 0 1 .4 1.8.1.2.6.2m-3-8q-.45 3.95 1.25 5.75.25.25.75.25 0-.5-.25-.85-.7-1.2-.75-3.15.5.5 1.1.8.4.2.9.2 0-.5-.2-.9-.8-1.6-2.8-2.1m48.75-49.15q.25-.35.25-.85-.5 0-.9.2-1.6.8-3.1 1.8v1q2.55-.45 3.75-2.15M69 136h-2v2q1.05-.95 2.85-1.45.15-.05.15-.55h-1m9.85-4.45q.15-.05.15-.55h-3v1q1.5 0 2.85-.45M79 130v1q1.65-1.35 5-1.5v-.5h-5v1m-7.2 5.6q.2-.1.2-.6h-2v1q1 0 1.8-.4m.95-.85q.25-.25.25-.75h-1v1q.5 0 .75-.25M75 133h-2v1q1 0 1.8-.4.2-.1.2-.6m0 0q.5 0 .75-.25T76 132h-1v1m-15 10v2q2.15-.85 2.85-3.05.15-.45.15-.95-.5 0-.6.2-.7 1.5-2.4 1.8m33 0q-.55 3.55 1.45 2.7Q103 142.2 93 143m-33.9 2.2q-.6.3-1.1.8v3q1.5-1 1.9-3 .1-.5.1-1-.5 0-.9.2m108.3 53.6q.1.2.6.2 0-.5-.2-.9-.3-.6-.8-1.1 0 1 .4 1.8m1.7 1q.4.2.9.2 0-.5-.2-.6-.8-.4-1.8-.4.5.5 1.1.8m9.95 8.3q.45-.1.95-.1 0-.5-.15-.55-1.35-.45-2.85-.45-.1 1.65 2.05 1.1m2.05.7q.4.2.9.2 0-.5-.2-.6-.8-.4-1.8-.4.5.5 1.1.8M177 207q0-.5-.05-1-.25-2.2-2.95-2 1 1.5 2.25 2.75.25.25.75.25m-3-3q0-.5-.25-.75Q172 201.5 170 200q.25 3.2 3.05 3.9.45.1.95.1m20 13h1q0-.5-.2-.65-2-1.15-4.8-1.35 1.1 1.9 4 2m-9.95-5.15q.45.15.95.15 0-.5-.2-.9-.8-1.6-2.8-2.1.3 2.25 2.05 2.85M188 213q0-.5-.15-.55-1.35-.45-2.85-.45-.1 1.65 2.05 1.1.45-.1.95-.1m1.25 1.75q.25.25.75.25 0-.5.05-1 .1-1.6-2.05-1 .5 1 1.25 1.75m12-16q.25.25.75.25 0-.5-.25-.75T201 198q0 .5.25.75M217 211q0-.5-.2-.6-.8-.4-1.8-.4.5.5 1.1.8.4.2.9.2m4 5h-1v1q.5 0 .75-.25t.25-.75m-1.95-3.9q.45-.1.95-.1 0-.5-.15-.55-1.35-.45-2.85-.45-.1 1.65 2.05 1.1m2.95.9q0-.5-.2-.6-.8-.4-1.8-.4.5.5 1.1.8.4.2.9.2m-13 5h1q5 0 9.95-.5.05 0 .05-.5h-25q0 9.5.75 18.95.6 7.6-7.75 7.05 11.65 2.15 8.8-16.15-1.65-10.8 3.2-7.85v-1h9m-1-12q0-.5-.05-1-.25-2.7-2.95-3 1 2 2.3 3.75.2.25.7.25m0 0q.3 1.7 2 1.95.5.05 1 .05 0-.5-.25-.85-.8-1.1-2.75-1.15m-4-5q0-.5.05-1 .1-1.6-2.05-1 .5 1 1.25 1.75.25.25.75.25m.25.75q.25.25.75.25 0-.5-.25-.75T204 201q0 .5.25.75M213 209q0-.5-.2-.6-.8-.4-1.8-.4.5.5 1.1.8.4.2.9.2m1.1.8q.4.2.9.2 0-.5-.2-.6-.8-.4-1.8-.4.5.5 1.1.8m20.65 1.95q.25-.25.25-.75h-1v1q.5 0 .75-.25M228 214v1q3.45-.55 5.75-2.3.25-.2.25-.7-.5 0-.95.15-2.55.85-5.05 1.85m-.05 1.5q.05 0 .05-.5-.5 0-.6-.2-1.15-2.55-5.4-1.8 0 .5.1.5 5.5 1.25-1.1 1.5v1q3.5 0 6.95-.5M239 208v1q.5 0 .75-.25t.25-.75h-1m-2 1v1q1 0 1.8-.4.2-.1.2-.6h-2m-1 1h-1v1q1 0 1.8-.4.2-.1.2-.6h-1m9-6q-.5 0-.8.25-1.65 1.3-4.2 1.75v2q2.75-1.25 4.75-3.25.25-.25.25-.75m0-1v1q1.65.15 1.1-2.05-.1-.45-.1-.95h-1v2m1.8-3.1q.2-.4.2-.9h-1v2q.5-.5.8-1.1M161 188q0 1 .4 1.8.1.2.6.2 0-.5-.2-.9-.3-.6-.8-1.1m-3.9-7q.6-3.2-1.1-4 0 2.5.5 4.9 0 .1.5.1 0-.5.1-1m-3.1-9h-1q.55 2.95 2.25 4.75.25.25.75.25 0-.5-.15-.95Q155 174 154 172m-3-9v1h1v-1h-1m1.8-22.1q.2-.4.2-.9-.5 0-1 .1-8.45 1.45-16 3.9 9.45 6 14.8 16.1.2.4.2.9h1v-1-1-1-16q.5-.5.8-1.1m1.95-3.05q.25-.35.25-.85h-2v3q1-1 1.75-2.15m4-4.1q.25-.25.25-.75h-2v2q1-.5 1.75-1.25M156 135h-1v2q1-.5 1.75-1.25.25-.25.25-.75h-1m94 59h-1v2q2.15.65 2.05-1-.05-.5-.05-1h-1m-2 2h-1v3q1-1 1.75-2.15.25-.35.25-.85h-1m-1-3q-.5 0-1 .05-7.05.5-11-2.05 3 4.55 11.9 2.5.1 0 .1-.5m2-2q-.5 0-.9.2-.6.3-1.1.8v1q2.15.65 2.05-1-.05-.5-.05-1m0-1v1q4.5-1.8 2.2 2.15-.2.35-.2.85.5 0 .65-.2 3.8-6.45-2.65-4.8v1m-16.9-2.2q.4.2.9.2 0-.5-.2-.9-1-1.9-2.8-3.1.1 2.9 2.1 3.8m2.05 2.95q.35.25.85.25 0-.5-.05-1-.25-1.7-1.95-2 .05 1.95 1.15 2.75m-4.4-7.5q-.25-.25-.75-.25 0 .5.25.75t.75.25q0-.5-.25-.75m-.95-1.15q-.3-.6-.8-1.1 0 1 .4 1.8.1.2.6.2 0-.5-.2-.9m-.8-1.1q0-.5.1-1 .55-2.65-2.1-2 .95 1.05 1.45 2.85.05.15.55.15m-2.55-3.1q.05.1.55.1 0-.5.1-1 .6-2.7-1.1-3 0 2 .45 3.9m-5.05-11.1q.1.2.6.2 0-.5-.2-.9-.3-.6-.8-1.1 0 1 .4 1.8m-1-2q.1.2.6.2 0-.5-.2-.9-.3-.6-.8-1.1 0 1 .4 1.8m-.9-1.85q0 .05.5.05 0-.5.1-.95.85-3.45-2.1-3.05 1.2 1.3 1.5 3.95m-3.05-7.05q.05.1.55.1 0-.5.05-1 .5-3.55-2.05-4 .8 2.2 1.45 4.9M217 159q0-.5.1-.95.55-2.15-1.1-2.05 0 1.5.45 2.85.05.15.55.15m-3.2-8.9q-.3-.6-.8-1.1 0 1 .4 1.8.1.2.6.2 0-.5-.2-.9M223 171q0-.5.05-1 .15-2.7-2.05-3 .5 2 1.4 3.8.1.2.6.2m2.1 2q.55-2.65-2.1-2 .95 1.05 1.45 2.85.05.15.55.15 0-.5.1-1m-26.85 21.75q.25.25.75.25 0-.5-.25-.75T198 194q0 .5.25.75m.75.25q.95 1.05 1.45 2.85.05.15.55.15 0-.5.1-1 .55-2.65-2.1-2m-2-3q0 1 .4 1.8.1.2.6.2 0-.5-.2-.9-.3-.6-.8-1.1m-1.6-1.2q.1.2.6.2 0-.5-.2-.9-.3-.6-.8-1.1 0 1 .4 1.8m.6.2q0 .5.25.75t.75.25q0-.5-.25-.75T196 191m-3-4q0-.5-.05-1-.5-3.45-3.95-4 1.75 2.25 3.35 4.75.15.25.65.25m.25.75q.25.25.75.25 0-.5-.25-.75T193 187q0 .5.25.75m1.5.5q-.25-.25-.75-.25 0 .5.25.75t.75.25q0-.5-.25-.75m-6.5-6.5q.25.25.75.25 0-.5-.25-.75T188 181q0 .5.25.75M185 180q-.1 1.65 2.05 1.1.45-.1.95-.1 0-.5-.15-.55-1.35-.45-2.85-.45m-.2-.6q-.8-.4-1.8-.4.5.5 1.1.8.4.2.9.2 0-.5-.2-.6m-20.7 13.65q.85-3.45-2.1-3.05 1.2 1.3 1.5 3.95 0 .05.5.05 0-.5.1-.95m2.85 2.95q-.25-2.2-2.95-2 1 1.5 2.25 2.75.25.25.75.25 0-.5-.05-1m-.95-16.5v-.5q-.5 0-1-.05-6.4-.85-8 3.05.8 3.7 3.2 5.75.3.25.8.25 0-.5-.25-.75-2-2-1.75-6.25 2.45-1.55 7-1.5m0-1.5v1h17q0-.5-.05-.5-8.45-.5-16.95-.5m25.05-47.15q.45.15.95.15 0-.5-.2-.85-1.1-1.85-4.8-1.15 2 1 4.05 1.85m-5-1.75q.45-.1.95-.1 0-.5-.15-.55-1.35-.45-2.85-.45-.1 1.65 2.05 1.1M201 136q0-.5-.2-.6-.8-.4-1.8-.4.5.5 1.1.8.4.2.9.2m-2.25-1.75q-.25-.25-.75-.25 0 .5.25.75t.75.25q0-.5-.25-.75M196 133q.5.5 1.1.8.4.2.9.2 0-.5-.2-.6-.8-.4-1.8-.4m-1.95-.9q.45-.1.95-.1 0-.5-.15-.55-1.35-.45-2.85-.45-.1 1.65 2.05 1.1m1.95.9q0-.5-.25-.75T195 132q0 .5.25.75t.75.25m-29-6v1h17q0-.5-.05-.5-8.45-.5-16.95-.5m0 1q-.5 0-.95.15Q162 129.5 159 132v1q4-2 7.8-4.35.2-.15.2-.65m46.05 20q.15-2.7-2.05-3 .5 2 1.4 3.8.1.2.6.2 0-.5.05-1m-2.9-3.25q.35.25.85.25 0-.5-.15-.95-.7-2.2-2.85-3.05.45 2.55 2.15 3.75m-37.7.95q8.55-3.5-1.45-2.7-.55 3.55 1.45 2.7M204 138q0-.5-.05-1-.25-1.7-2.95-1 1 1 2.15 1.75.35.25.85.25m4 3q0-.5-.25-.85-1.2-1.7-3.75-2.15.85 2.15 3.05 2.85.45.15.95.15z"/><path fill="#B65400" d="M188 298v-1h-1q0 .5.25.75t.75.25m2-6h1v-1h-1v1m16-2h1q0-.5-.25-.75T206 289v1m5-9v-1h-1v1h1m-34 3v-1h-1v3h1v-1-1m-16 8v-1h-1v1h1m-2-11v-1h-1v2h1v-1m-6 6h-1v1h1v-1m1 0v-1h-1v1h1m-5 5h-1q0 .5.25.75t.75.25v-1m-6 0v1h1v-1h-1m6-5h-1v2h1v-1-1m-9 6v-1h-1q0 .5.25.75t.75.25m-5-3v-3h-1v5h1v-1-1m-2-4q0 .5.25.75t.75.25v-1h-1m7 1v-1h-1v3h1v-1-1m-9 6v-1h-1q0 .5.25.75t.75.25m-5 0v-1h-1q0 .5.25.75t.75.25m5-6h-1v2h1v-1-1m-15 6v-1h-1q0 .5.25.75t.75.25m0-6v-1-1h-1v4h1v-1-1m4 0h-1v1h1v-1m1 0v-1h-1v1h1m-20 6v-1h-1q0 .5.25.75t.75.25m-1-4v-1h-1v1h1m-13.75 8.75q.25.25.75.25v-1h-1q0 .5.25.75M80 293h-1v3h1v-1-2m-10 2v1h1v-1-2h-1v2m20-3v-1h-1v1h1m64-178h-1v1h1v-1m-4.25 9.25q-.25-.25-.75-.25v1h1q0-.5-.25-.75z"/><path fill="#0054A0" d="M189.75 297.75q.25-.25.25-.75h-1v1q.5 0 .75-.25M191 288h-1v1h1v-1m21-1h-1v1q.5 0 .75-.25t.25-.75m2-3v-1-1h-1v2h1m-30 8h-1v1q.5 0 .75-.25t.25-.75m3 0v1h.5q0-.5-.5-1m-2-5h1q0-.5-.25-.75T185 286v1m-8-5v1h2v-1h-2M68 292v1h.5q0-.5-.5-1m-3.25.75q.25-.25.25-.75h-1v1q.5 0 .75-.25m2-6.5Q66.5 286 66 286v1h1q0-.5-.25-.75m98 6.5q.25-.25.25-.75h-1v1q.5 0 .75-.25M161 291v1h1q0-.5-.25-.75T161 291m-7 1v-1h-1v1h1m-9 0v-1h-1v1h1m-9 0v-1h-1v1h1m0-6v-1h-1v1h1m4 1h1q0-.5-.25-.75T140 286v1m-27 6h.5q0-.5-.5-1v1m-3-1h-1v1q.5 0 .75-.25t.25-.75m1-6v1h1q0-.5-.25-.75T111 286m15 5v1h1v-1h-1m-5 1q0-.5-.25-.75T120 291v1h1m-5-9v1h1v-1h-1m-15 6v-1h-1v1h1m-12.25 8.75q.25-.25.25-.75h-1v1q.5 0 .75-.25M72 290h-1v2h1v-1-1m5 0h-1v1h1v-1m4 2v-1-1h-1v2h1m5-2h-1v1h1v-1m4-1v-1h-1v1h1m64-168v1q.5 0 .75-.25t.25-.75h-1m3-4v-1h-1v2h1v-1z"/><path fill="#3A76C1" d="M195 288v-1h-1v1h1m-2 2h1v-1h-1v1m-2-3h-1v1h1v-1m19 3h-1v1q.5 0 .75-.25t.25-.75m-3-9v1h1v-1h-1m7 3h-1v1h1v-1m-37-1v1h2v-1h-2m-12 8v1q.5 0 .6-.2 1.05-1.9-.6-1.8v1m-1-2v1h1q0-.5-.25-.75T164 289m2-2h-1v1q.5 0 .75-.25t.25-.75m-6-6q0-.5-.25-.75T159 280v1h1m-15.25 11.75q.25-.25.25-.75h-1v1q.5 0 .75-.25M149 288v1h1v-1-1h-1v1m-8 4v-1h-1v1h1m-5-5h-1v4h1v-1-3m5 0h-1v1h1v-1m-15 5v1q.5 0 .75-.25t.25-.75h-1m5-4v1h1v-1-1h-1v1m-15 3v1h1v-1h-1m1-7h-1v3h1v-1-2m-13 2v2h1q0-.5-.2-.9-.3-.6-.8-1.1m-3 6v1q.5 0 .75-.25t.25-.75h-1m0-5h-1v1h1v-1m-24 0v-1h-1v1h1m17 1v-1h-1v1h1m-1 2v-1h-1v1h1m-7-3v-1h-1v1h1m4 0h-1v1h1v-1m63-163h-1v1q.5 0 .75-.25t.25-.75m3-6v1h1v-1h-1m-5-2v-1h-1v1h1z"/><path fill="#B6D2E1" d="M193.75 290.75q.25-.25.25-.75h-1v1q.5 0 .75-.25M194 288v1q.5 0 .75-.25t.25-.75h-1m-2 1h-1v1h1v-1m-2-2h1q0-.5-.25-.75T190 286v1m23.75-1.25q.25-.25.25-.75h-1v1q.5 0 .75-.25M213 281q0-.5-.25-.75T212 280v1h1m-26 11q0-.5-.25-.75T186 291v1h1m-1-3v1q.5 0 .6-.2 1.1-2.5-.6-2.8v2m-6.5-9q0-.5-.5-1v1h.5M68 292q0-.5-.25-.75T67 291v1h1m-1-3v1q.5 0 .6-.2 1.1-2.5-.6-2.8v2m-8 3h1q0-.5-.25-.75T59 291v1m-5.9-2q-.1-.5-.1-1h-1v4q1.7-.3 1.1-3m6.7-6.1q.2-.4.2-.9h-1v2q.5-.5.8-1.1m99.2-.9v1q.5 0 .75-.25t.25-.75h-1m-18-1v1h.5q0-.5-.5-1m16.5 10q0-.5-.5-1v1h.5m-3.75-1.75q-.25-.25-.75-.25v1h1q0-.5-.25-.75M143 292h-1v1h1v-1m2.75-1.25q.25-.25.25-.75h-1v1q.5 0 .75-.25M139 286h-1v1h1v-1m-3-3v1q.5 0 .75-.25t.25-.75h-1m-23 9q0-.5-.25-.75T112 291v1h1m-1-3v1q.5 0 .6-.2 1.1-2.5-.6-2.8v2m15.75 1.75q.25-.25.25-.75h-1v1q.5 0 .75-.25M119 293v-1h-1v1h1m-1-13h-1v1q.5 0 .75-.25t.25-.75m-14.25 10.75q.25-.25.25-.75h-1v1q.5 0 .75-.25M101 289v1h1v-1h-1m-1-2h1q0-.5-.25-.75T100 286v1m-25 6q.5 0 .75-.25T76 292h-1v1m3-4h-1v1q.5 0 .75-.25T78 289m0-2h-1v1h1v-1m14.75 3.75q.25-.25.25-.75h-1v1q.5 0 .75-.25M93 288v1q.5 0 .75-.25T94 288h-1m-9 5q.5 0 .75-.25T85 292h-1v1m3-5v-1h-1v1h1m4 1h-1v1h1v-1m-4.25.75q.25-.25.25-.75h-1v1q.5 0 .75-.25M89 287h1q0-.5-.25-.75T89 286v1m67-167q.5 0 .75-.25t.25-.75h-1v1m-.25-5.75q-.25-.25-.75-.25v1h1q0-.5-.25-.75z"/><path fill="#66005A" d="M194 289v-1h-1v1h1m-101 0v-1h-1v1h1z"/><path fill="#DB7633" d="M194 287h-1v1h1v-1m-4 9h-1v1h1v-1m-1-8v1h1v-1h-1m18 3v1h1v-1h-1m-3-5v-1h-1q0 .5.25.75t.75.25m1-5v-1h-1v1h1m-20 9h-1v1h1v-1m-4 2v-1h-1v1h1m-4-11h-1v2h1v-1-1M66 291v-1h-1v1h1m-4 1v-1h-1v1h1m-4-2v-2h-1v3h1v-1m107-2v-1h-1q0 .5.25.75t.75.25m-25-5v-1h-1q0 1 .4 1.8.1.2.6.2v-1m4 7v-1-1h-1v4h1v-1-1m7-1v2h1v-1-1h-1m-45 3v-1h-1v1h1m5-2h-1v1h1v-1m15 0v-1-1h-1v4h1v-1-1m-8-1v2h1v-1-1h-1m-2-5v-1-1h-1v3h1v-1m-12 4v-1h-1v1h1m-28 3v-1h-1v1h1m4-4h-1v6h1v-1-1-1-1-1-1m-10 5v1h1v-1-1-1-1-1-1h-1v5m23-5h-1v1h1v-1m-4 9h-1v1h1v-1m-4-6h-1v1h1v-1m3-2v1h1v-1h-1m63-162v-1h-1v1h1m-5-7q0 .5.25.75t.75.25v-1h-1m2-5h-1v1h1v-1z"/><path fill="#FFB47F" d="M194 287v-1h-1v1h1m-5 2q0 .5.25.75t.75.25v-1h-1m16-2h-1q0 .5.25.75t.75.25v-1m4-6h-1v1h1v-1m-7 3q0 .5.25.75t.75.25v-1h-1m-18 4v1h1v-1h-1m-10 3h-1v1h1v-1m1-1h-1v1h1v-1m1-1v-1h-1v1h1m5 1h-1v1h1v-1m-9-4v1h1v-1h-1m-110 4h-1v1h1v-1m4-1v-1h-1v1h1m-8 3h-1q0 .5.25.75t.75.25v-1m0-11h-1v2h1v-1-1m-7 2v-1h-1v8h1v-1-2-1-1-2m110 10v-1h-1q0 .5.25.75t.75.25m0-4q0 .5.25.75t.75.25v-1h-1m0-2h-1q0 1 .4 1.8.1.2.6.2v-1-1m-5 0h-1v1h1v-1m-10 0h-1v1h1v-1m5 1v1h1v-1h-1m-17-5v1h1v-1h-1m-28 10v-1h-1q0 .5.25.75t.75.25m0-3h-1v1h1v-1m5-1v-1h-1v1h1m12-2h-1v1h1v-1m5 0h-1v1h1v-1m-9 5v-1h-1v1h1m-1-4v1h1v-1h-1m-15 1h-1v1h1v-1m-28 3v-1h-1v1h1m-2-5h-1v1h1v-1m1 0v-1h-1v1h1m2 2v-1h-1v2h1v-1m17-2v-1h-1v1h1m-9 5v-1h-1v1h1m1-3v-1h-1v2h1v-1m-3-2h-1v1h1v-1m0 0h1v-1h-1v1m6 2q0 .5.25.75t.75.25v-1h-1m59.25-167.25q.25.25.75.25v-1h-1q0 .5.25.75M146 119v-1h-1q0 .5.25.75t.75.25m5-4v1h1v-1h-1z"/><path fill="#3A0033" d="M195 287v-1h-1v1h1m-18 2v-1h-1v1h1m5 1h-1v1h1v-1m-119 0h-1v1h1v-1m-5-8v1h1v-1-1h-1v1m-6 1h-1v3h1v-1-2m105 5v-1h-1v1h1m-49 2h-2v1h2v-1m16-3h-1v1h1v-1m-49 4v1h1v-1h-1m19-4v-1h-1v1h1m-9 5v-1h-1v1h1z"/><path fill="#90B4E1" d="M195 286v1h.5q0-.5-.5-1m-3 6v1q.5 0 .75-.25t.25-.75h-1m18-3v1q.5 0 .75-.25t.25-.75h-1m-4-8h1q0-.5-.25-.75T206 280v1m-24 9v1h1v-1h-1m-8-3h-1v1q.5 0 .75-.25t.25-.75m8 0v1h1v-1h-1m-3 0h-2v5h2v-1-4m-7 4v1h1v-1h-1m-108-1h-1v1h1v-1m0-2v-1h-1v1h1m-11-1h-1v2h1v-1-1m6-5v1h1q0-.5-.2-.9-.3-.6-.8-1.1v1m-6 1h-1v3h1v-1-2m-.25-1.75Q52.5 281 52 281v1h1q0-.5-.25-.75M159 282v1h1v-1h-1m-3 11q.5 0 .75-.25t.25-.75h-1v1m1-5h.5q0-.5-.5-1v1m-7-1q0-.5-.25-.75T149 286v1h1m-14-5v1h1q0-.5-.25-.75T136 282m-27 8h-1v1h1v-1m0-2v-1h-1v1h1m15 4h-1v1q.5 0 .75-.25t.25-.75m1-4v-1h-1v1h1m6-2v1h1q0-.5-.25-.75T131 286m-13.25-6.75q-.25-.25-.75-.25v1h1q0-.5-.25-.75m-13 9.5q.25-.25.25-.75h-1v1q.5 0 .75-.25M101 290v1h1v-1h-1m-24 1h-1v1q.5 0 .75-.25T77 291m-4-2h-1v1q.5 0 .75-.25T73 289m5 0v-1h-1v1h1m16-3v1h.5q0-.5-.5-1m-3 6v1q.5 0 .75-.25T92 292h-1m-5.25-.25q.25-.25.25-.75h-1v1q.5 0 .75-.25m-4-2q.25-.25.25-.75h-1v1q.5 0 .75-.25M87 289v-1h-1v1h1m67-166h-1v1q.5 0 .75-.25t.25-.75m-5-8h1q0-.5-.25-.75T149 114v1z"/><path fill="#90305A" d="M192 290v1h1v-1h-1m-36 1v1h1v-1h-1m-33 1h1q0-.5-.25-.75T123 291v1m-32-2v1h1v-1h-1z"/><path fill="#6696E1" d="M191 296h-1v1q.5 0 .75-.25t.25-.75m.75-1.25q.25-.25.25-.75h-1v1q.5 0 .75-.25M212 286v1q.5 0 .75-.25t.25-.75h-1m1.75-4.75q-.25-.25-.75-.25v1h1q0-.5-.25-.75M182 288v1h1v-1h-1m-10 0v1h1v-1h-1m7-4h-2v3h2v-1-2m-116 4v1h1v-1h-1m-10-5v-1h-1v1h1m109.75 5.25q-.25-.25-.75-.25v1h1q0-.5-.25-.75M165 287h1q0-.5-.25-.75T165 286v1m-5-5v-1h-1v1h1m-6 5h-1v1h1v-1m-4 3v-1h-1v3h1v-1-1m-9 0v-2h-1v3h1v-1m-33-2v1h1v-1h-1m23 3v1h1v-1-1-1h-1v2m-14-1v-3h-1v4h1v-1m4-3h-1v1h1v-1m-18 4h-1v1q.5 0 .75-.25t.25-.75m-31 2h-1v5q1.7-.8 1.1-4-.1-.5-.1-1m17.75 3.75q.25-.25.25-.75h-1v1q.5 0 .75-.25m1-2q.25-.25.25-.75h-1v1q.5 0 .75-.25M81.1 294q-.1-.5-.1-1h-1v5q1.7-.8 1.1-4M156 120h-1v1q.5 0 .75-.25t.25-.75m0-5v1h1q0-.5-.25-.75T156 115z"/><path fill="#90547F" d="M191 295h-1v1h1v-1m-45-6v-1h-1v1h1m-18 0v-1h-1v1h1m-55 0v-1h-1v1h1m16 6v1h1v-1h-1m-7-6v-1h-1v1h1z"/><path fill="#FF965A" d="M190 294v1h1v-1h-1m1-2h-1v1h1v-1m1-3v1h1v-1h-1m-4-2v-1h-1q0 .5.25.75t.75.25m18 2v-1h-1q0 .5.25.75t.75.25m-4-6v1h1v-1-1h-1v1m-18 8h-1v1h1v-1m1-3v-1h-1v1h1m-14 1h-1q0 1.5.45 2.85.05.15.55.15v-1-1-1m1-2h-1v1h1v-1m4-6h1v-1-1h-1v2M65 292v-1h-1v1h1m1-4v-1h-1v1h1m-9 3v1h1v-1h-1m1-4h-1v1h1v-1m-8 3q0 1.5.45 2.85.05.15.55.15v-1-2h-1m8-7h-1v3h1v-1-1-1m107 9v-1h-1v1h1m-4-6v1h1v-1h-1m-8 6h-1q0 .5.25.75t.75.25v-1m-9-5h-1v1h1v-1m3 0v-1h-1v1h1m-12 6v-1h-1q0 .5.25.75t.75.25m0-9h-1v2h1v-1-1m-25 7h-1v1h1v-1m1-4h-1v1h1v-1m15 0h-1v1h1v-1m3 0v-1h-1v1h1m-9 5h-1v1h1v-1m-4-11v-1-1h-1v3h1v-1m-16 9v-1h-1v1h1m-2-4h-1q0 .5.25.75t.75.25v-1m-22 2v-1h-1v1h1m14 7v-1h-1v1h1m-1-2h1v-1h-1v1m-4-6h-1v1h1v-1m6 2v1h1v-1h-1m-4-2v-1h-1v1h1m61.25-164.25q.25.25.75.25v-1h-1q0 .5.25.75M146 117v-1h-1v2h1v-1z"/><path fill="#6654A0" d="M192 293h-1v1h1v-1m-101 0h-1v1h1v-1z"/><path fill="#003" d="M192 293v-1h-1v1h1m18-4h-1v1h1v-1m-4-8v-1h-1v1h1m-30 5h-1v1h1v-1m-4 6v-1h-1v1h1m0-5v1h1v-1h-1m-120-6h-1v1h1v-1m104 12v-1h-1v1h1m-7-6v-1h-1v1h1m-27 6h1v-1h-1v1m9-6v-1h-1v1h1m-59 2h-1v1h1v-1m19 3h-1v1h1v-1m-10-2v-1h-1v1h1m72-167h-1v1h1v-1m-4-9h-1v1h1v-1z"/><path fill="#FFD2A0" d="M191 293h-1v1h1v-1m1-5v1h1v-1h-1m-3-1h-1q0 .5.25.75t.75.25v-1m18 5q0 .5.25.75t.75.25v-1h-1m-1-2q0 .5.25.75t.75.25v-1h-1m-4-9v1h1v-1h-1m-20 9v-1h-1v1h1m-11-1v-1h-1v1h1m-108 1v-1h-1v1h1m100 0q0 .5.25.75t.75.25v-1h-1m-29-8v1h1v-1h-1m-26 8v-1h-2v1h2m-5-4h-1q0 .5.25.75t.75.25v-1m-4 2v-1h-1q0 .5.25.75t.75.25m0 2q0 .5.25.75t.75.25v-1h-1m-21-3v-1h-1v1h1m-9 0v-1h-1q0 .5.25.75t.75.25m21 6h-1v1h1v-1m1-5v1h1v-1h-1m-3-1h-1v1h1v-1m62-162v-1h-1q0 .5.25.75t.75.25m0 1q0 .5.25.75t.75.25v-1h-1m-4-10v-1h-1v1h1z"/><path fill="#003033" d="M192 292v-1h-1v1h1m-101 0v-1h-1v1h1z"/><path fill="#6676C1" d="M192 291v1h1v-1h-1m-101 0v1h1v-1h-1z"/><path fill="#600" d="M190 288v-1h-1v1h1m17 3h1q0-.5-.25-.75T207 290v1m-3-10h-1v1q.5 0 .75-.25t.25-.75m-22 8v1h1v-1h-1m-11 0h1v-1h-1v1m-108 0v1h1v-1h-1m102 1h-1v1h1v-1m-57-1v1h1v-1h-1m-4-2v-1h-1v1h1m-4 0h-1v1h1v-1m-21 0v-1h-1v1h1m-9 0v-1h-1v1h1m19 1v-1h-1v1h1m61.75-163.75q-.25-.25-.75-.25v1h1q0-.5-.25-.75M146 116q.5 0 .75-.25t.25-.75h-1v1z"/><path fill="#6696C1" d="M192 290h-1v1h1v-1m-101 0h-1v1h1v-1z"/><path fill="#903000" d="M191 290h-1v1h1v-1m13-3h1q0-.5-.25-.75T204 286v1m-18 5h-1q0 .5.25.75t.75.25v-1m-9 0h-1q0 .5.25.75t.75.25v-1m5-3v-1h-1v1h1m0-3v1h1v-1h-1m-10 7v-1h-1q0 .5.25.75t.75.25m-105-1h-1q0 .5.25.75t.75.25v-1m-4-4h-1v1h1v-1m1-1v-1h-1v1h1m-14-5v-1h-1q0 .5.25.75t.75.25m93 5v-1h-1q0 .5.25.75t.75.25m6 2h-1v3h1v-1-2m-10 0v3h1v-1-1-1h-1m-28 3q0 .5.25.75t.75.25v-1h-1m-3-3v-1h-2v1h2m1-2v-1h-1v1h1m22 2h-1v3h1v-1-2m-15 1v-1h-1v3h1v-1-1m-15 2v-1h-1v1h1m-30 4h-1q0 1 .4 1.8.1.2.6.2v-1-1m9 0h-1q0 1 .4 1.8.1.2.6.2v-1-1m10-6h-1v1h1v-1m57.75-169.75q-.25-.25-.75-.25v1h1q0-.5-.25-.75z"/><path fill="#3A005A" d="M191 289h-1v1h1v-1m-5 2h-1v1h1v-1m0-2v-1h-1v1h1m-119 3v-1h-1v1h1m0-3v-1h-1v1h1m69-5v-1h-1v1h1m-25 7v1h1v-1h-1m0-3v1h1v-1h-1m-22 1v1h1v-1h-1z"/><path fill="#00005A" d="M190 287v-1h-1v1h1m22-2v1h1v-1h-1m0-4v-1h-1v1h1m-5 1q0 .5.25.75t.75.25v-1h-1m-21 8v-1h-1v1h1m0-3h-1v1h1v-1m-14 2h-1v1h1v-1m5-10v1h2v-1h-2M67 290v-1h-1v1h1m0-3h-1v1h1v-1m-8 5v-1h-1v1h1m-7-2h-1v3h1v-1-2m6-7v2h1v-1-1h-1m83 0v-1h-1v1h1m12 7h-1v1h1v-1m-8 0h-1v1h1v-1m-4 2v1h1v-1h-1m-3-6h-1v1h1v-1m-27 1v1h1v-1h-1m0 2v1h1v-1h-1m16 2v-1h-1v1h1m-9 1h-1v1h1v-1m2-2h-1v1h1v-1m-19-1h-1v1h1v-1m-1-2v-1h-1v1h1m-25 6v-1h-1v1h1m2-6h-1v1h1v-1m7 6v-1h-1v1h1m2-6h-1v1h1v-1m3 0v-1h-1v1h1m67-167v-1h-1v1h1m-1-5v-1h-1v1h1m-4 2v-1h-1q0 .5.25.75t.75.25z"/><path fill="#9076C1" d="M208.75 292.75q.25-.25.25-.75h-1v1q.5 0 .75-.25M151 127q.5 0 .75-.25t.25-.75h-1v1z"/><path fill="#00307F" d="M209 292v-1h-1v1h1m1-4v1h1v-1h-1m-24 2h-1v1h1v-1m-6 3v-1h-1v1h1m2-1v-1h-1v1h1m-8 0h-1v1q.5 0 .75-.25t.25-.75m-2-2h-1v1h1v-1m5-10v2h2v-1-1h-2M63 292v-1h-1v1h1m4-2h-1v1h1v-1m-7 2v1h1v-1h-1m-2-6v5h1v-1-5h-1v1m82-2q.5 0 .75-.25t.25-.75h-1v1m15.75 4.75q.25-.25.25-.75h-1v1q.5 0 .75-.25M153 289h-1v1h1v-1m3-3v1h1q0-.5-.25-.75T156 286m-5.25 6.75q.25-.25.25-.75h-1v1q.5 0 .75-.25M137 293q.5 0 .75-.25t.25-.75h-1v1m-1-9h-1v1h1v-1m-25 6v1h1v-1h-1m-5 1v1h2v-1h-2m27 1h-1v1q.5 0 .75-.25t.25-.75m-10.25-3.25q.25-.25.25-.75h-1v1q.5 0 .75-.25M120 289h-1v1h1v-1m-4-7v1h1v-1-1h-1v1m36-156v-1h-1v1h1m1-4v1h1v-1h-1z"/><path fill="#3A0000" d="M205 288h1q0-.5-.25-.75T205 287v1m5-7h-1v1q.5 0 .75-.25t.25-.75m-6.25 3.25q-.25-.25-.75-.25v1h1q0-.5-.25-.75M182 292h-1v1h1v-1m-8-5v-1h-1v1h1m-112 5v1h1v-1h-1m-3 1v-1h-1v1h1m-7-7h-1v1h1v-1m0-3v-1h-1v1h1m111 6h-1v1h1v-1m-2 3v1h1v-1h-1m0-4v1h1v-1h-1m-8 4v-1h-1v1h1m0-4h-1v1h1v-1m-47 4v1h2v-1h-2m14-1h-1v1h1v-1m0-3h-1v1h1v-1m-45-1v-1h-1v1h1m9 0v-1h-1v1h1m68.75-171.25q.25-.25.25-.75h-1v1q.5 0 .75-.25M149 122q0-.5-.25-.75T148 121v1h1m-3-4v1h1q0-.5-.25-.75T146 118z"/><path fill="#665400" d="M208 282v1q.5 0 .75-.25t.25-.75h-1m-57-165q.5 0 .75-.25t.25-.75h-1v1z"/><path fill="#3A545A" d="M185 292v-1h-1v1h1m-120-1v1h1v-1h-1m79-2v1h1v-1h-1m-33 3v-1h-1v1h1m16-2v-1h-1v1h1z"/><path fill="#FFD2E1" d="M184 290h-1v1h1v-1m0-3h-1v2h1v-1-1m-119 3h-1v1h1v-1m0-3h-1v2h1v-1-1m90 1v-1h-1v1h1m-45 2h-1v1h1v-1m0-3h-1v2h1v-1-1m11 0v1h1v-1h-1z"/><path fill="#DBB47F" d="M181 292h-1v1h1v-1m-119 0h-1v1h1v-1m89-1v1h1v-1h-1z"/><path fill="#DBD2E1" d="M182 291v1h1v-1h-1m-118 1v-1h-1v1h1m45 0v-1h-1v1h1z"/><path fill="#3A307F" d="M175 292v-1h-1v1h1m-101.25-4.25q.25-.25.25-.75h-1v1q.5 0 .75-.25M83 287h-1v1q.5 0 .75-.25T83 287z"/><path fill="#DBD2A0" d="M176 292v-1h-1v1h1z"/><path fill="#9096A0" d="M176 290h-1v1h1v-1z"/><path fill="#B6765A" d="M176 289h-1v1h1v-1z"/><path fill="#603" d="M177 290h-1v2h1v-1-1m-41-7v-1h-1v1h1m-35 7h-1v1h1v-1z"/><path fill="#663033" d="M177 289h-1v1h1v-1z"/><path fill="#FFD2DC" d="M176 287h-2q0 .5-.25.75t-.75.25v3h1v-1h1v-1-1h1v-1m-38 0h-2v5h1v-1h2v-1-1-1-1h-1z"/><path fill="#903033" d="M177 287h-1v1h1v-1m5 0h-1v1h1v-1m-119 0h-1v1h1v-1m45 0h-2v1h2v-1z"/><path fill="#3A3000" d="M177 286h-1v1h1v-1z"/><path fill="#C8D2E1" d="M172 289v2h1v-1-1h-1z"/><path fill="#3A0040" d="M52 287h-1v3h1v-1-1-1z"/><path fill="#3A54A0" d="M161 287v1h1v-1h-1m-15 1q.5 0 .75-.25t.25-.75h-1v1m-17-1h-1v1q.5 0 .75-.25t.25-.75m-26 2v1h1v-1h-1z"/><path fill="#B6767F" d="M159 284h-1q.5.5 1 .5v-.5z"/><path fill="#B65446" d="M158 284h1v-1-1h-1v2z"/><path fill="#FFB4C1" d="M151 292v-1h-1v1h1m-19-1v1h1q0-.5-.25-.75T132 291z"/><path fill="#DBB4E1" d="M143 292v-1h-1v1h1z"/><path fill="#9096E1" d="M146 289h-1v1h1v-1m-19 1h1v-1h-1v1z"/><path fill="#005495" d="M145 287q0-.5-.25-.75T144 286v3h1v-1-1m-18 0q0-.5-.25-.75T126 286v3h1v-1-1m-56-1v3h1v-1-1q0-.5-.25-.75T71 286m10 3v-1-1q0-.5-.25-.75T80 286v3h1z"/><path fill="#FFB4A0" d="M138 292v-1h-1v1h1z"/><path fill="#B6B4C1" d="M139 292v-1h-1v1h1z"/><path fill="#FFD2C1" d="M123 292v-1h-1v1h1z"/><path fill="#00305A" d="M124 286h-1v1h1v-1z"/><path fill="#663000" d="M125 287v-1h-1v1h1z"/><path fill="#EFD2E1" d="M121 289h-1v2q.5 0 .75.25t.25.75h1v-1h1q.5 0 .75.25t.25.75h1v-1-3h-2q0 .5-.25.75t-.75.25h-1z"/><path fill="#000046" d="M116 280v1h1v-1-1h-1v1z"/><path fill="#B6545A" d="M103 290h-1v1h1v-1z"/><path fill="#B65433" d="M103 288v1h1v-1h-1z"/><path fill="#3A3033" d="M101 291v1h1v-1h-1z"/><path fill="#66545A" d="M72 293v-1h-1v1h1m9 0v-1h-1v1h1z"/><path fill="#F7D2E1" d="M75 287h-1q0 .5-.25.75T73 288v1q0 .5-.25.75T72 290v2h2v-1h1v-1-1-1-1m7 1v1q0 .5-.25.75T81 290v2h2v-1h1v-1-1-1-1h-1q0 .5-.25.75T82 288z"/><path fill="#3A0046" d="M76 288v2h1v-1-1h-1m10 0h-1v2h1v-1-1z"/><path fill="#FFE1EB" d="M73 239q0 .5.25.75t.75.25v-1h-1m0-1v-2h-2q-.35 4.8 1.25 3.25.25-.25.75-.25v-1m-10-7h-1v1q.5 0 .75-.25T63 231z"/><path fill="#FFD5E2" d="M64.8 231.4q.2.1.2.6 1 0 1.8.4.2.1.2.6 1 0 1.8.4.2.1.2.6.5 0 .5-.1.95-5.85-6.5-3.9v1q1 0 1.8.4m9.8-1.3q-1.786-.1-3.6-.1-1.2 4.7 1.9 5.45.1.05.1.55h2v-1-1h1v-1h1v-1-1h1v-.2q-.01-.3-.05-.3-1.662-.24-3.35-.4M62 218q0 1.5-.15 3-.6 5.25 1.9 6.85 1.75 1.15 2.85-.1 8.55-9.45-4.6-9.75z"/><path fill="#00A2E8" d="M111 166v1q1 0 1.8.4.2.1.2.6.5 0 .75.25t.25.75q1 0 1.8.4.2.1.2.6.5 0 .5-.1 1.25-5.65-.5-8.9 0 .5-.25.75t-.75.25q0 .5-.2.6-.8.4-1.8.4 0 .5-.25.75t-.75.25q0 .5-.25.75t-.75.25v1m-3-1q-.5 0-.95.1-2.15.55-2.05-1.1-.5 0-.75-.25T104 163q-.5 0-.9-.2-.6-.3-1.1-.8-.5 0-.9-.2-.6-.3-1.1-.8h-1v4q1.7 1.75 1.05 6-.05.5-.05 1h1v-1h1v-1h1v-1h2v-1h1v-1h2v-1-1z"/><path fill="#FFF" d="M77.75 187.75q-.25.25-.75.25 0 .5-.25.75T76 189q0 .5-.2.9-.3.6-.8 1.1 0 .5-.25.75T74 192q0 .5-.2.9-.3.6-.8 1.1 0 .5-.25.75T72 195q0 .5-.25.85Q71 197 70 198q0 .5-.25.75T69 199q0 .5-.25.75Q68 200.5 67 201q0 .5-.25.75T66 202q0 .5-.2.9-1 1.9-2.8 3.1 0 .5-.25.85-.8 1.1-2.75 1.15 0 .5-.2.6-.8.4-1.8.4 0 .5-.2.6-.8.4-1.8.4 0 .5-.2.6-.8.4-1.8.4 0 .5-.15.55-1.35.45-2.85.45 0 .5-.2.6-.8.4-1.8.4 0 .5-.15.55-1.35.45-2.85.45.8 1.7 4 1.5v.5q.5 0 .75.25t.25.75h25v-1q2-.5 4-.9.5-.1 1-.1v-1-1h2v-1h3v-1-1q2.15.65 2.5-.9 0-.1.5-.1v-1h2v-1h2v-1-1q1-.5 2.05-.85.45-.15.95-.15v-1q2.15-.85 3.35-2.8.15-.2.65-.2v-1h2v-1-1h1v-1-1q1-.5 2.05-.85.45-.15.95-.15v-1-3h3v-1-1h1q0-.5.2-.85 4.6-7.55-6.2-8.15H88q0 .5-.2.6-.8.4-1.8.4 0 .5-.15.55-1.35.45-2.85.45 0 .5-.25.75T82 182q0 .5-.25.8Q80 185 78 187q0 .5-.25.75M166 179v.5q-4.55-.05-7 1.5-.25 4.25 1.75 6.25.25.25.25.75.5.5.8 1.1.2.4.2.9 2.95-.4 2.1 3.05-.1.45-.1.95 2.7-.2 2.95 2 .05.5.05 1 .5.5.8 1.1.2.4.2.9 1 0 1.8.4.2.1.2.6 2 1.5 3.75 3.25.25.25.25.75 2.7-.2 2.95 2 .05.5.05 1 1.5 0 2.85.45.15.05.15.55 1 0 1.8.4.2.1.2.6 2 .5 2.8 2.1.2.4.2.9 1.5 0 2.85.45.15.05.15.55 2.15-.6 2.05 1-.05.5-.05 1 2.8.2 4.8 1.35.2.15.2.65h25v-1h1v-1q6.6-.25 1.1-1.5-.1 0-.1-.5-.5 0-.9-.2-.6-.3-1.1-.8-.5 0-.95.1-2.15.55-2.05-1.1-.5 0-.9-.2-.6-.3-1.1-.8-.5 0-.9-.2-.6-.3-1.1-.8-.5 0-.9-.2-.6-.3-1.1-.8-.5 0-1-.05-1.7-.25-2-1.95-.5 0-.7-.25Q206 204 205 202q-.5 0-.75-.25T204 201q-.5 0-.75-.25-.75-.75-1.25-1.75-.5 0-.75-.25T201 198q-.5 0-.55-.15-.5-1.8-1.45-2.85-.5 0-.75-.25T198 194q-.5 0-.6-.2-.4-.8-.4-1.8-.5 0-.75-.25T196 191q-.5 0-.6-.2-.4-.8-.4-1.8-.5 0-.75-.25T194 188q-.5 0-.75-.25T193 187q-.5 0-.65-.25-1.6-2.5-3.35-4.75-.5 0-.75-.25T188 181q-.5 0-.95.1-2.15.55-2.05-1.1-.5 0-.9-.2-.6-.3-1.1-.8h-17z"/><path fill="#B97A57" d="M60 145q0 .5-.1 1-.4 2-1.9 3 0 .5-.2.9-.3.6-.8 1.1 0 .5-.1 1-.55 2.35-1.9 4 0 .5.1.95.55 2.2-1.1 2.05 0 .5-.2.9-.8 1.6-1.8 3.1 0 .5-.2.9-.3.6-.8 1.1 0 .5-.2.9-.3.6-.8 1.1 0 .5-.1 1-.4 2-1.9 3 0 .5-.25.85Q47 173 46 174q0 .5.1 1 .6 2.7-1.1 3 0 .5-.25.85Q44 180 43 181q0 .5-.2.9-.3.6-.8 1.1 0 .5-.25.75T41 184q0 .5-.05 1-.25 2.7-2.95 3 0 .5-.05 1-.25 2.2-2.95 2 0 .5-.25.7-4.9 4.15-11.75 1.3-.5 0-1 .05-1.6.1-1-2.05-.5 0-.9-.2-.6-.3-1.1-.8.05 1.95.75 3.15.25.35.25.85.5.5.8 1.1.2.4.2.9 2.65-.65 2.1 2-.1.5-.1 1 .5.5.8 1.1.2.4.2.9 1.65-.1 1.1 2.05-.1.45-.1.95 3.3.7 4.8 3.15.2.35.2.85.5 0 .75.25t.25.75q1 0 1.8.4.2.1.2.6 1 0 1.8.4.2.1.2.6 1 0 1.8.4.2.1.2.6 3.45.55 5.75 2.3.25.2.25.7 1.55-1.95 5-2h1v-1h2v-1h3v-1h2v-1h2v-1h2v-1q1-.5 2.05-.85.45-.15.95-.15v-1-1q1-1 2.15-1.75.35-.25.85-.25v-1h1v-1-1h2v-1h1v-1-2h2v-1h1v-1-1h1v-1h1v-1-1h1v-1h1v-1h1v-1-1q1.2-1.8 3.1-2.8.4-.2.9-.2v-1h1v-1h3v-1h2v-1q8 0 15.95.5.05 0 .05.5 7.6-1.65 9.45 2.85.05.15.55.15v-1-4h1v-1-1q2.95-2 1.25-4.2-.25-.3-.25-.8-.5 0-.9-.2-.6-.3-1.1-.8-.5 0-.75-.25T113 168q-.5 0-.9-.2-.6-.3-1.1-.8h-3q0 .5-.2.6-.8.4-1.8.4 0 .5-.25.75t-.75.25q0 .5-.2.6-.8.4-1.8.4 0 .5-.25.75t-.75.25q0 .5-.25.75t-.75.25v.5q-.5 0-1-.5-.5 0-.5-.05-.5-3.45-.5-6.95-.5 0-.55-.1Q98 163 98 161h1v-1q.5 0 .75.25t.25.75q1 0 1.8.4.2.1.2.6 1 0 1.8.4.2.1.2.6.5 0 .75.25t.25.75q1.5 0 2.85.45.15.05.15.55h3v-1h1v-1h1v-1h2v-1h1v-1q5.75-7.2 2.15-19.05-.15-.45-.15-.95-.5 0-.55-.15-.5-1.8-1.45-2.85-.5 0-.75-.25-.75-.75-1.25-1.75-.5 0-.75-.25-.75-.75-1.25-1.75-.5 0-.9-.2-4.45-1.95-8.1-4.8H87q0 .5-.15.55-1.35.45-2.85.45v.5q-3.35.15-5 1.5 0 .5-.15.55-1.35.45-2.85.45 0 .5-.25.75T75 133q0 .5-.2.6-.8.4-1.8.4 0 .5-.25.75T72 135q0 .5-.2.6-.8.4-1.8.4 0 .5-.15.55-1.8.5-2.85 1.45 0 .5-.25.85-1.2 1.7-3.75 2.15 0 .5-.15.95-.7 2.2-2.85 3.05m10.15 7.95Q70 152.5 70 152q11.1-12.45 24.75-1.7.25.2.25.7 2.5 4.75-.75 8.25-.25.25-.25.75-17.55 10.65-23.85-7.05m24.3-7.25q-2 .85-1.45-2.7 10-.8 1.45 2.7z"/><path fill="#ED1C24" d="M70 152q0 .5.15.95 6.3 17.7 23.85 7.05 0-.5.25-.75 3.25-3.5.75-8.25 0-.5-.25-.7Q81.1 139.55 70 152m46-56h-2v4q.5 0 .75.25t.25.75v1q.5 0 .75.25t.25.75q.5 0 .75.25t.25.75q.5 0 .75.25t.25.75v1h2v-1-1h1v-1h1v-1h1v-1-1h1v-1-1-1-1h-4v1q0 .5-.25.75T119 98q-.5 0-.75-.25T118 97v-1h-2m71 59q0-.5-.25-.7-14.2-10.95-25.75 1.7-.7 3.7.6 5.35 9.8 12.05 24.4 2.65 0-.5.25-.75 3.25-3.5.75-8.25z"/><path fill="#FA8ED5" d="M150 86.5V86h-1q.5.5 1 .5z"/><path fill="#F68ED5" d="M150.75 84.75q.25-.25.25-.75h-1v1q.5 0 .75-.25M149 75h-1q0 .5.25.75t.75.25v-1z"/><path fill="#FD8EA3" d="M149 86v-1h-1q0 .5.25.75t.75.25m-5-7q0 .5.25.75t.75.25q0-.5-.25-.75T144 79m2-5h-1v1q.5 0 .75-.25T146 74z"/><path fill="#F45CBC" d="M149 85v1h1v-1h-1m2-2q.5 0 .75-.25T152 82h-1v1z"/><path fill="#FC7596" d="M147.75 83.25Q147.5 83 147 83q0 .5.25.75t.75.25q0-.5-.25-.75M152 74h-1v1q.5 0 .75-.25T152 74z"/><path fill="#FFBBBC" d="M145.25 81.75q.25.25.75.25 0-.5-.25-.75T145 81q0 .5.25.75M150 76v-1h-1v1h1z"/><path fill="#FFA5B0" d="M146 82q0 .5.25.75t.75.25q0-.5-.25-.75T146 82z"/><path fill="#FFACB4" d="M144 76h-1q0 1.5.45 2.85.05.15.55.15v-1-2z"/><path fill="#F77596" d="M150 76.5V76h-1q.5.5 1 .5z"/><path fill="#F475C8" d="M153 81h-1v1q.5 0 .75-.25T153 81z"/><path fill="#F7A5E1" d="M154 80h-1v1q.5 0 .75-.25T154 80m1-4q0-.5-.25-.75T154 75v1h1z"/><path fill="#F44097" d="M154 75q-.5 0-.9-.2-.6-.3-1.1-.8 0 .5-.25.75T151 75h-1v1.5q-.5 0-1-.5-.5 0-.75-.25T148 75q-.5 0-.9-.2-.6-.3-1.1-.8 0 .5-.25.75T145 75h-1v4q.5 0 .75.25t.25.75v1q.5 0 .75.25t.25.75q.5 0 .75.25t.25.75q.5 0 .75.25t.25.75v1h2v-1h1v-1-1h1v-1h1v-1h1v-1-1-2-1z"/><path fill="#F47DCC" d="M155.1 76.95q-.1-.45-.1-.95h-1v3q1.65.15 1.1-2.05z"/><path fill="#FC7F49" d="M119 107v-1h-1v1h1m-4.25-6.75q-.25-.25-.75-.25 0 .5.25.75t.75.25q0-.5-.25-.75M116 95h-1v1h1v-1z"/><path fill="#FFD2A8" d="M119 108v-1h-1q0 .5.25.75t.75.25m-1-3h-1q0 .5.25.75t.75.25v-1m-5-9v1h1v-1h-1z"/><path fill="#F77FC4" d="M119.75 107.75q.25-.25.25-.75h-1v1q.5 0 .75-.25z"/><path fill="#ED418A" d="M120 107v-1h-1v1h1m1.75-3.25q.25-.25.25-.75h-1v1q.5 0 .75-.25z"/><path fill="#FFB78A" d="M115.25 102.75q.25.25.75.25 0-.5-.25-.75T115 102q0 .5.25.75M114 100v-1h-1q0 .5.25.75t.75.25m5-3h1v-1h-1v1z"/><path fill="#F17FC4" d="M121 105h-1v1q.5 0 .75-.25t.25-.75m3.75-5.25q.25-.25.25-.75h-1v1q.5 0 .75-.25M118 96v1h1v-1h-1z"/><path fill="#ED1C49" d="M121 105v-1h-1v1h1m-5-10v1h1q0-.5-.25-.75T116 95z"/><path fill="#F96024" d="M117.75 104.25q-.25-.25-.75-.25v1h1q0-.5-.25-.75M121 95v1h1v-1h-1z"/><path fill="#FF9C6A" d="M117 104q0-.5-.25-.75T116 103q0 .5.25.75t.75.25m-4-7v2h1v-1-1h-1z"/><path fill="#ED60A8" d="M123 102h-1v1q.5 0 .75-.25t.25-.75m1-5v2h1v-1-1h-1z"/><path fill="#F39CE1" d="M123 101v1q.5 0 .75-.25t.25-.75h-1m1-5v1h1q0-.5-.25-.75T124 96z"/><path fill="#ED1C6A" d="M124 100h-1v1h1v-1m-1.25-4.75Q122.5 95 122 95v1h1q0-.5-.25-.75M118 97q0 .5.25.75t.75.25v-1h-1z"/><path fill="#F36024" d="M120 97h-1v1q.5 0 .75-.25T120 97z"/><path fill="#D291D6" d="M123 63.5V63h-1q.5.5 1 .5z"/><path fill="#A362C3" d="M123 63v-1h-1v1h1m1-4v1h1v-1h-1z"/><path fill="#D2BDE1" d="M124 60v1q.5 0 .75-.25T125 60h-1m-3.75-8.25q.25.25.75.25 0-.5-.25-.75T120 51q0 .5.25.75z"/><path fill="#B391D6" d="M124 61h-1v1q.5 0 .75-.25T124 61m4-6h-1v1q.5 0 .75-.25T128 55m-7-3v1h1v-1h-1z"/><path fill="#A37ACD" d="M125.75 58.75q.25-.25.25-.75h-1v1q.5 0 .75-.25M128 53h-1v2h1v-1-1z"/><path fill="#A349B9" d="M126 56v1h1v-1h-1m-1-4h1q0-.5-.25-.75T125 51v1m-4 1q0 .5.25.75t.75.25v-1h-1z"/><path fill="#C2A8E1" d="M126 57v1q.5 0 .75-.25T127 57h-1m1.75-4.75Q127.5 52 127 52v1h1q0-.5-.25-.75z"/><path fill="#C27AA4" d="M122 54q.5 0 .75-.25T123 53h-1v1z"/><path fill="#FFBDC3" d="M123 52h-1v1h1v-1m-4.25 6.25Q118.5 58 118 58q0 .5.25.75t.75.25q0-.5-.25-.75z"/><path fill="#E17AA4" d="M125 52v-1h-1v1h1m-4.75 8.75q.25.25.75.25 0-.5-.25-.75T120 60q0 .5.25.75z"/><path fill="#F091AF" d="M121 62q0 .5.25.75t.75.25v-1h-1m-3.25-5.75Q117.5 56 117 56q0 .5.25.75t.75.25q0-.5-.25-.75M118 51v1q.5 0 .75-.25T119 51h-1z"/><path fill="#FFA8B9" d="M119.25 59.75q.25.25.75.25 0-.5-.25-.75T119 59q0 .5.25.75z"/><path fill="#FFAFBC" d="M117 55v-2h-1q0 1.5.45 2.85.05.15.55.15v-1z"/><path fill="#A549A4" d="M121 52q-.5 0-.75-.25T120 51h-1q0 .5-.25.75T118 52h-1v4q.5 0 .75.25t.25.75v1q.5 0 .75.25t.25.75q.5 0 .75.25t.25.75q.5 0 .75.25t.25.75v1h2v-1h1v-1-1h1v-1h1v-1-1h1v-1-1-1-1h-4v1q0 .5-.25.75T122 54q-.5 0-.75-.25T121 53v-1z"/><path fill="#EF628D" d="M151.25 37.75q.25.25.75.25 0-.5-.25-.75T151 37q0 .5.25.75M156 29v-1h-1v1h1z"/><path fill="#E780D3" d="M154 40h-1q.5.5 1 .5V40z"/><path fill="#CF42B8" d="M153 39v1h1v-1h-1m3-2v-1h-1v1h1z"/><path fill="#F7809C" d="M153 39h-1q0 .5.25.75t.75.25v-1m-4.75-5.25q.25.25.75.25 0-.5-.25-.75T148 33q0 .5.25.75M149 28v1q.5 0 .75-.25T150 28h-1z"/><path fill="#D780D3" d="M154.75 38.75q.25-.25.25-.75h-1v1q.5 0 .75-.25M158 32v1q.5 0 .75-.25T159 32h-1m-5-3h-1v1h1v-1z"/><path fill="#FF9CA9" d="M150.25 36.75q.25.25.75.25 0-.5-.25-.75T150 36q0 .5.25.75M148 30h-1v2h1v-1-1z"/><path fill="#FFB8B8" d="M149 35q0 .5.25.75t.75.25q0-.5-.25-.75T149 35m-1-3h-1q0 .5.25.75t.75.25v-1m6-3h-1v1h1v-1z"/><path fill="#E7B8E1" d="M151 28q0 .5.25.75t.75.25q0-.5-.25-.75T151 28m5 9h-1v1q.5 0 .75-.25T156 37z"/><path fill="#E09CE1" d="M158 34h-1v1q.5 0 .75-.25T158 34m0-4h1q0-.5-.25-.75T158 29v1z"/><path fill="#CF1FA9" d="M157 34h1v-1h-1v1m-1-6v1h1q0-.5-.25-.75T156 28m-3 2h-1q0 .5.25.75t.75.25v-1z"/><path fill="#CF62C6" d="M156 36q.5 0 .75-.25T157 35h-1v1m3-6h-1v2h1v-1-1z"/><path fill="#E0628D" d="M153.75 30.75q.25-.25.25-.75h-1v1q.5 0 .75-.25z"/><path fill="#D01F8D" d="M158 30v-1h-4v1q0 .5-.25.75T153 31q-.5 0-.75-.25T152 30v-1q-.5 0-.75-.25T151 28h-1q0 .5-.25.75T149 29h-1v4q.5 0 .75.25t.25.75v1q.5 0 .75.25t.25.75q.5 0 .75.25t.25.75q.5 0 .75.25t.25.75v1h2v-1h1v-1-1h1v-1h1v-1-1h1v-1-1-1z"/><path fill="#FFBC98" d="M117 19v-1h-1q0 .5.25.75t.75.25m1.75 2.25Q118.5 21 118 21q0 .5.25.75t.75.25q0-.5-.25-.75M123 15h-1v1h1v-1z"/><path fill="#FFA67E" d="M119.25 22.75q.25.25.75.25 0-.5-.25-.75T119 22q0 .5.25.75M117 17v-1h-1v2h1v-1z"/><path fill="#FFD2B1" d="M121 24h-1q0 .5.25.75t.75.25v-1m-4-8v-1h-1v1h1m5 11v-1h-1q0 .5.25.75t.75.25z"/><path fill="#EA7646" d="M121 24q0-.5-.25-.75T120 23v1h1m4-9v-1h-1v1h1z"/><path fill="#F58F63" d="M117.75 19.25Q117.5 19 117 19q0 .5.25.75t.75.25q0-.5-.25-.75M119 15v-1h-1v1h1m3 11v-1h-1v1h1z"/><path fill="#C04363" d="M120 15v-1h-1v1h1m4 8h-1v1h1v-1z"/><path fill="#E0BCE1" d="M120 15h1q0-.5-.25-.75T120 14v1m4 8v1q.5 0 .75-.25T125 23h-1z"/><path fill="#E08FC8" d="M122.75 26.75q.25-.25.25-.75h-1v1q.5 0 .75-.25z"/><path fill="#C05D98" d="M123 26v-1h-1v1h1m1-4v1h1v-1h-1z"/><path fill="#CA8FC8" d="M124 24h-1v1q.5 0 .75-.25T124 24m-2-8v-1h-1v1h1m6 2h-1v1q.5 0 .75-.25T128 18z"/><path fill="#C076B1" d="M126 21h-1v1q.5 0 .75-.25T126 21m2-5h-1v2h1v-1-1z"/><path fill="#C0437E" d="M126 19v1h1v-1h-1m-4-2v-1h-1q0 .5.25.75t.75.25m3-2h1q0-.5-.25-.75T125 14v1z"/><path fill="#D5A6E1" d="M126 20v1q.5 0 .75-.25T127 20h-1m1.75-4.75Q127.5 15 127 15v1h1q0-.5-.25-.75z"/><path fill="#D57646" d="M122 17q.5 0 .75-.25T123 16h-1v1z"/><path fill="#C14346" d="M127 17v-1-1h-4v1q0 .5-.25.75T122 17q-.5 0-.75-.25T121 16v-1h-4v4q.5 0 .75.25t.25.75v1q.5 0 .75.25t.25.75q.5 0 .75.25t.25.75q.5 0 .75.25t.25.75v1h2v-1-1h1v-1h1v-1h1v-1-1h1v-1-1z"/><path fill="#1E1E1E" d="M200.75 218.75q.25-.25.25-.75h-1v1q.5 0 .75-.25z"/><path fill="#171717" d="M210 218.5v-.5h-1q.5.5 1 .5z"/><path fill="#4B3123" d="M153 171q0-.5-.25-.75T152 170v1h1z"/><path fill="#160E0A" d="M153 172v-1h-1q0 .5.25.75t.75.25z"/><path fill="#573929" d="M153 172h1q0-.5-.25-.75T153 171v1z"/><path fill="#D8B4A0" d="M152.5 164q0-.5-.5-1v1h.5z"/><path fill="#130C09" d="M151 162v1h1v-1-1h-1v1z"/><path fill="#FAF5F2" d="M151 164v2h1v-1-1h-1z"/><path fill="#110B08" d="M151 166v1h1v-1h-1z"/><path fill="#F9F4F1" d="M151 167q0 1.5.45 2.85.05.15.55.15v-1-2h-1z"/><path fill="#322118" d="M152 159v1h.5q0-.5-.5-1z"/><path fill="#B87A56" d="M204 138q-.5 0-.85-.25Q202 137 201 136q-.5 0-.9-.2-.6-.3-1.1-.8-.5 0-.75-.25T198 134q-.5 0-.9-.2-.6-.3-1.1-.8-.5 0-.75-.25T195 132q-.5 0-.95.1-2.15.55-2.05-1.1-.5 0-.95-.15Q189 130 187 129q-.5 0-.95.1-2.15.55-2.05-1.1h-17q0 .5-.2.65Q163 131 159 133q0 .5-.25.75-.75.75-1.75 1.25 0 .5-.25.75-.75.75-1.75 1.25 0 .5-.25.85Q154 139 153 140q0 .5-.2.9-.3.6-.8 1.1v17q.5.5.5 1h-.5v3q.5.5.5 1h-.5v6q.5 0 .75.25t.25.75q.5 0 .75.25t.25.75q1 2 1.85 4.05.15.45.15.95 1.7.8 1.1 4-.1.5-.1 1 1.6-3.9 8-3.05.5.05 1 .05v-1q8.5 0 16.95.5.05 0 .05.5 1 0 1.8.4.2.1.2.6 1.5 0 2.85.45.15.05.15.55.5 0 .75.25t.25.75q3.45.55 3.95 4 .05.5.05 1 .5 0 .75.25t.25.75q.5 0 .75.25t.25.75q.5.5.8 1.1.2.4.2.9.5 0 .75.25t.25.75q.5.5.8 1.1.2.4.2.9.5 0 .75.25t.25.75q2.65-.65 2.1 2-.1.5-.1 1 .5 0 .75.25t.25.75q2.15-.6 2.05 1-.05.5-.05 1 .5 0 .75.25t.25.75q2.7.3 2.95 3 .05.5.05 1 1.95.05 2.75 1.15.25.35.25.85 1 0 1.8.4.2.1.2.6 1 0 1.8.4.2.1.2.6 1 0 1.8.4.2.1.2.6 1.5 0 2.85.45.15.05.15.55 1 0 1.8.4.2.1.2.6 4.25-.75 5.4 1.8.1.2.6.2v-1q2.5-1 5.05-1.85.45-.15.95-.15v-1h1v-1h2v-1h2v-1h1v-1-1q2.55-.45 4.2-1.75.3-.25.8-.25v-1-2h1v-1-1h1v-1-2h2v-1-1h2q0-.5.2-.85 2.3-3.95-2.2-2.15 0 .5.05 1 .1 1.65-2.05 1 0 .5-.1.5-8.9 2.05-11.9-2.5-.5 0-.85-.25-1.1-.8-1.15-2.75-.5 0-.9-.2-2-.9-2.1-3.8-.5 0-.75-.25T229 183q-.5 0-.6-.2-.4-.8-.4-1.8-.5 0-.55-.15-.5-1.8-1.45-2.85-.5 0-.55-.1-.45-1.9-.45-3.9-.5 0-.55-.15-.5-1.8-1.45-2.85-.5 0-.6-.2-.9-1.8-1.4-3.8-.5 0-.6-.2-.4-.8-.4-1.8-.5 0-.6-.2-.4-.8-.4-1.8-.5 0-.5-.05-.3-2.65-1.5-3.95-.5 0-.55-.15-.45-1.35-.45-2.85-.5 0-.55-.1-.65-2.7-1.45-4.9-.5 0-.6-.2-.4-.8-.4-1.8-.5 0-.6-.2-.9-1.8-1.4-3.8-.5 0-.85-.25-1.7-1.2-2.15-3.75-.5 0-.95-.15-2.2-.7-3.05-2.85m-33 5q10-.8 1.45 2.7-2 .85-1.45-2.7m15.75 11.3q.25.2.25.7 2.5 4.75-.75 8.25-.25.25-.25.75-14.6 9.4-24.4-2.65-1.3-1.65-.6-5.35 11.55-12.65 25.75-1.7z"/></g></defs><use xlink:href="#a"/></svg>