<svg xmlns="http://www.w3.org/2000/svg" xmlns:xlink="http://www.w3.org/1999/xlink" preserveAspectRatio="none" width="284" height="320"><defs><linearGradient id="a" gradientUnits="userSpaceOnUse" x1="0" y1="161" x2="0" y2="-161" spreadMethod="pad"><stop offset="0%" stop-color="#FFF"/><stop offset="100%" stop-color="#00B4FF"/></linearGradient><linearGradient id="b" gradientUnits="userSpaceOnUse" x1=".25" y1="126.725" x2=".25" y2="162.775" spreadMethod="pad"><stop offset="0%" stop-color="#690" stop-opacity="0"/><stop offset="55.294%" stop-color="#4A9541"/></linearGradient><linearGradient id="c" gradientUnits="userSpaceOnUse" x1="49.9" y1="47" x2="49.9" y2="53" spreadMethod="pad"><stop offset="0%" stop-color="#FFF"/><stop offset="100%"/></linearGradient><radialGradient id="d" gradientUnits="userSpaceOnUse" cx="0" cy="0" r="27.45" fx="0" fy="0" gradientTransform="matrix(1 0 0 1.38798 -47.25 -27.3)" spreadMethod="pad"><stop offset=".392%" stop-color="#FFF"/><stop offset="29.412%" stop-color="#2950EF"/><stop offset="44.706%" stop-color="#0331EB"/><stop offset="100%" stop-color="#30A2FE"/></radialGradient><path fill="url(#a)" d="M142 160v-320h-284v320h284z" id="e"/><path fill="#FFF" fill-opacity=".2" d="M80.75-109.2q-23.15-5.9-44.15 5.6Q13.05-90.8-1.5-59q-14.55-31.8-38.1-44.6-21-11.5-44.15-5.6-22.05 5.65-37.4 24.55-16 19.65-17.8 45.65-2.9 43.55 22.5 66.5 7.45 6.75 23.4 17.15Q-69.8 59.8-63.75 64.1-24.8 91.8-2 128.5q23.8-36.7 62.75-64.4 6.05-4.3 29.3-19.45 15.95-10.4 23.4-17.15 25.4-22.95 22.5-66.5-1.8-26-17.8-45.65-15.35-18.9-37.4-24.55z" id="f"/><path fill="url(#b)" d="M142.5 160v-30.5H-142V160h284.5z" id="h"/><path fill="#C06711" d="M54.55 76.85Q30 76 13.6 92.6q-18.4 18.6-17.1 51.65 5.15 21.65 23.9 31.65 16.35 8.7 37.95 6.55 20.15-2 35.65-12.2 16.05-10.55 18-25.25 1.6-30.8-16.7-50-16.45-17.3-40.75-18.15z" id="i"/><path fill="#FFF" d="M54.5 110q-1.127-.2-2.35-.2-1.524 0-2.9.3-.126.066-.25.1-2.533.654-4.55 2.45-3.2 2.9-3.2 7t3.2 6.95q3.2 2.9 7.7 2.9t7.7-2.9q3.2-2.85 3.2-6.95t-3.2-7q-2.233-1.99-5.1-2.6l-.25-.05z" id="j"/><path fill="#4E4A4A" d="M54.55 84.5h-5.3v25.4h5.3V84.5z" id="l"/><g id="o"><path fill="#FFF" d="M114.4 126.65q-7.541 10.528 2 16.3l11.7 7.05q9.742 5.864 14.5-.75l20.1-31.95q5.55-9.704-2.55-14.15l-8.7-5.6q-15.684-11.37-22.85 6.15l-14.2 22.95m32.6-9.35q.6.9.3 5.15-.297 4.26 1.85 7.35-3.67-.639-7.4 1.45-3.7 2.1-4.75 1.95-6-1-6.3-5.7-.3-4.8 6-5.65-2-5.95 2.45-7.75 4.4-1.75 7.85 3.2z"/><path fill="red" d="M147.3 122.45q.3-4.25-.3-5.15-3.45-4.95-7.85-3.2-4.45 1.8-2.45 7.75-6.3.85-6 5.65.3 4.7 6.3 5.7 1.05.15 4.75-1.95 3.73-2.089 7.4-1.45-2.147-3.09-1.85-7.35z"/></g><path fill="#9D530C" d="M19.1 81.05q2.668-2.374.65-3.8-6.35-2.25-14.3.1-7.9 2.3-15.1 8.45-16.8 14.35-19.1 37.45 4.581 15.035 11.5 8.25Q-6.8 102.1 19.1 81.05m95.7 4.1q-14-9.75-32.55-9.4-10.375 2.446-.75 7.5 27.061 14.706 42.75 40.5 8.256 6.947 9.75-11.25-4.8-17.35-19.2-27.35z" id="q"/><g id="s"><path fill="#C06711" d="M78.3 163.25q-5.2 11.65.45 23.75 8.05 8.4 19.95 8.05 10.7-.3 20.75-7.25 9.85-6.8 13.85-16.35 4.35-10.35-.55-19.2-5.45-9.85-17.15-11-10.7-1.1-21.6 5.2-11.1 6.4-15.7 16.8m-73.35 33.2q12.156-.256 17.9-7.2 5.65-6.8 3.6-18.55-2.05-11.75-12.4-19.05-10.3-7.25-16.75-8.25-6.4-.95-13.9-.65-7.501.299-11.4 5.65-3.85 5.356-3.85 16 .058 10.637 12.35 21.45 12.284 10.867 24.45 10.6m-4.3-181q5.796-5.715 16.2-11 .05-15.25-8-19.35Q.8-19.05-8.1-14.95q-8.95 4.1-8.65 13.3.25 9.138 14.7 20.05 1.24-1.51 2.7-2.95m103.7-30.3q-8.9-4.1-16.95.05-8.05 4.1-7.75 18.3 9.361 2.439 15.95 8.9 2.052 1.997 3.55 4.1Q112.75 7.59 113-1.55q.3-9.2-8.65-13.3z"/><path fill="#9D530C" d="M104.95 30.3q-1.31-7.683-5.8-13.8-1.498-2.103-3.55-4.1-6.589-6.461-15.95-8.9-1.662-.443-4.9-1.25-26.724-2.37-52.5 0-2.94.962-5.4 2.2-10.404 5.285-16.2 11-1.46 1.44-2.7 2.95-4.9 6.146-5.65 23.65-.7 17.512 24.95 35.55 1.227.598 2.5 1.15Q32.82 84.383 50.8 84q22.5-.5 33.45-9.4 12.35-10 17.65-22.2 4.9-11.2 3.05-22.1M75.4 35q-1.345 1-3.1 1-1.755 0-3.1-1-.315-.225-.6-.5-1.55-1.45-1.55-3.5t1.55-3.55Q70.15 26 72.3 26q2.15 0 3.7 1.45 1.55 1.5 1.55 3.55T76 34.5q-.285.275-.6.5m-24.6 9.3q13.45.4 22.85 5.15 10.05 5.05 7.6 17.8-13.75 12.6-31.7 12.65Q31.5 79.95 19 67.25q-1.65-12.85 8.7-18.5 8.95-4.9 23.1-4.45M26.25 26q2.15 0 3.7 1.45 1.55 1.5 1.55 3.55t-1.55 3.5q-.285.275-.6.5-1.345 1-3.1 1-1.755 0-3.1-1-.315-.225-.6-.5Q21 33.05 21 31t1.55-3.55Q24.1 26 26.25 26m12.6 41.4q-6.895 1.75-19.85-.15 12.5 12.7 30.55 12.65 17.95-.05 31.7-12.65-24.284 4.847-28.1-7.25-1.607.5-3.5.5-1.506 0-2.85-.35-1.234 5.607-7.95 7.25m34.8-17.95q-9.4-4.75-22.85-5.15-14.15-.45-23.1 4.45-10.35 5.65-8.7 18.5 12.955 1.9 19.85.15 6.716-1.643 7.95-7.25-1.908-.423-3.45-1.55-2.6-1.85-2.6-4.5t2.6-4.55q2.6-1.85 6.3-1.85 3.7 0 6.3 1.85 2.6 1.9 2.6 4.55t-2.6 4.5q-1.27.928-2.8 1.4 3.816 12.097 28.1 7.25 2.45-12.75-7.6-17.8z"/><path d="M29.95 27.45Q28.4 26 26.25 26q-2.15 0-3.7 1.45Q21 28.95 21 31t1.55 3.5q.285.275.6.5 1.345 1 3.1 1 1.755 0 3.1-1 .315-.225.6-.5 1.55-1.45 1.55-3.5t-1.55-3.55M72.3 36q1.755 0 3.1-1 .315-.225.6-.5 1.55-1.45 1.55-3.5T76 27.45Q74.45 26 72.3 26q-2.15 0-3.7 1.45-1.55 1.5-1.55 3.55t1.55 3.5q.285.275.6.5 1.345 1 3.1 1z"/><path fill="url(#c)" d="M46.8 60.15q1.344.35 2.85.35 1.893 0 3.5-.5 1.53-.472 2.8-1.4 2.6-1.85 2.6-4.5t-2.6-4.55q-2.6-1.85-6.3-1.85-3.7 0-6.3 1.85-2.6 1.9-2.6 4.55t2.6 4.5q1.542 1.127 3.45 1.55z"/></g><path fill="#FFF" d="M79.1-11.4q-29.884-14.291-61.35.1l6.2 18.65q24.779-2.922 50.5.4L79.1-11.4m-30 5.7v-4.5 4.5h4.05-4.05v4.55-4.55h-4.2 4.2z" id="w"/><path fill="url(#d)" d="M-57.1-46.4q-5.1 2.5-8.75 7.45-6.8 9.25-6.8 25.25 0 7.45 1.4 12.45 1.45 5.3 5.15 10.3 2.4 3.25 5.35 5.6 6.65 5.35 11.7 6.4l-.1.25-1.05 4.7 7.05-.7-2-4.1q2.55-.3 5.3-1.7 2.75-1.35 6.15-4.1 1.6-1.3 3.55-3.4.95-1 1.75-2.2 3.9-5.25 5.75-10.7 1.9-5.7 1.9-12.8 0-7.9-1.3-13.4-1.5-6.5-5.1-11.35-.7-1.05-1.75-2.25-3.4-3.9-8.25-6-4.6-2-9.55-2-5.65 0-10.4 2.3z" id="y"/><path id="g" stroke="#4A9541" stroke-width="1.5" stroke-linejoin="round" stroke-linecap="round" fill="none" d="M23.15 9l1.3 17.15M18.15 10l1.25 20.25M4.15 14l4.5 12.75m-3.25-19L14.15 29m2-24l-1 24.5M0 8.85L5.4 32m16.45-18.3l-2.2 18.05M7.5 0q8 21.4 7.25 41"/><path id="k" stroke="#000" stroke-width="1" stroke-linejoin="round" stroke-linecap="round" fill="none" d="M54.5 110l.25.05q2.867.61 5.1 2.6 3.2 2.9 3.2 7t-3.2 6.95q-3.2 2.9-7.7 2.9t-7.7-2.9q-3.2-2.85-3.2-6.95t3.2-7q2.017-1.796 4.55-2.45.124-.034.25-.075"/><path id="m" stroke="#107DBC" stroke-width="1" stroke-linejoin="round" stroke-linecap="round" fill="none" d="M49.25 84.5v25.4m5.3 0V84.5"/><path id="n" stroke="#9D530C" stroke-width="15" stroke-linejoin="round" stroke-linecap="round" fill="none" d="M54.55 76.85Q78.85 77.7 95.3 95q18.3 19.2 16.7 50-1.95 14.7-18 25.25-15.5 10.2-35.65 12.2-21.6 2.15-37.95-6.55-18.75-10-23.9-31.65-1.3-33.05 17.1-51.65Q30 76 54.55 76.85z"/><path id="p" stroke="#FFF" stroke-width="1" stroke-linejoin="round" stroke-linecap="round" fill="none" d="M-47.9 26.85q0 3.75 2.1 9.6 2.1 5.7 2 8.1-1 12.2 7.7 25.15 2.25 3.35 1.65 10.7-.55 7.45 1.35 10.5-1.55 4.65-.1 9.05.9 2.6 3.85 6.95 2.7 4.05 3.15 6.05.7 3.25-2.05 6.35"/><path id="r" stroke="#9D530C" stroke-width="1" stroke-linejoin="round" stroke-linecap="round" fill="none" d="M114.8 85.15q14.4 10 19.2 27.35-1.494 18.197-9.75 11.25-15.689-25.794-42.75-40.5-9.625-5.054.75-7.5 18.55-.35 32.55 9.4zm-95.05-7.9q-6.35-2.25-14.3.1-7.9 2.3-15.1 8.45-16.8 14.35-19.1 37.45 4.581 15.035 11.5 8.25Q-6.8 102.1 19.1 81.05q2.668-2.374.65-3.8z"/><path id="t" stroke="#9D530C" stroke-width="3" stroke-linejoin="round" stroke-linecap="round" fill="none" d="M99.15 16.5Q112.75 7.59 113-1.55q.3-9.2-8.65-13.3-8.9-4.1-16.95.05-8.05 4.1-7.75 18.3m-81.7 14.925Q-16.5 7.488-16.75-1.65q-.3-9.2 8.65-13.3 8.9-4.1 16.95.05 8.05 4.1 8.025 19.35"/><path id="u" stroke="#9D530C" stroke-width="2" stroke-linejoin="round" stroke-linecap="round" fill="none" d="M4.95 196.45q-12.166.267-24.45-10.575-12.292-10.838-12.325-21.475-.025-10.644 3.85-16 3.874-5.351 11.375-5.65 7.5-.3 13.925.675 6.425.975 16.75 8.25T26.45 170.7q2.05 11.75-3.6 18.55-5.744 6.944-17.9 7.2zm73.35-33.2q4.6-10.4 15.7-16.8 10.9-6.3 21.6-5.2 11.7 1.15 17.15 11 4.9 8.85.55 19.2-4 9.55-13.85 16.35-10.05 6.95-20.75 7.25-11.9.35-19.95-8.05-5.65-12.1-.45-23.75z"/><path id="v" stroke="#C06711" stroke-width="1" stroke-linejoin="round" stroke-linecap="round" fill="none" d="M79.65 3.5q9.361 2.439 15.95 8.9 2.052 1.997 3.55 4.1 4.49 6.117 5.8 13.8 1.85 10.9-3.05 22.1-5.3 12.2-17.65 22.2Q73.3 83.5 50.8 84q-17.98.383-31.05-5.25-1.273-.552-2.5-1.15Q-8.4 59.562-7.675 42.05q.725-17.504 5.625-23.625M16.875 4.45q2.435-1.238 5.375-2.2 25.776-2.37 52.5 0 3.238.807 4.9 1.25m-6 45.95q10.05 5.05 7.6 17.8-13.75 12.6-31.7 12.65Q31.5 79.95 19 67.25q-1.65-12.85 8.7-18.5 8.95-4.9 23.1-4.45 13.45.4 22.85 5.15zm-56.775-45Q6.445 9.735.65 15.45q-1.46 1.44-2.7 2.975M19 67.25q12.955 1.9 19.875.175 6.691-1.668 7.95-7.25M53.15 60q3.816 12.097 28.1 7.25"/><path id="x" stroke="red" stroke-width="3" stroke-linejoin="round" stroke-linecap="square" fill="none" d="M44.9-5.7h4.2v-4.5m4.05 4.5H49.1v4.55"/></defs><use xlink:href="#e" transform="matrix(.99895 0 0 1 142.15 160)"/><use xlink:href="#f" transform="matrix(.99895 0 0 1 142.15 160)"/><use xlink:href="#g" transform="matrix(.99895 0 0 1 8.291 277.5)"/><use xlink:href="#g" transform="matrix(.99895 0 0 1 24.224 278)"/><use xlink:href="#g" transform="matrix(.99895 0 0 1 41.206 273)"/><use xlink:href="#g" transform="matrix(.99895 0 0 1 67.179 276)"/><use xlink:href="#g" transform="matrix(.99895 0 0 1 90.155 276)"/><use xlink:href="#g" transform="matrix(.99895 0 0 1 108.685 277)"/><use xlink:href="#g" transform="matrix(.99895 0 0 1 124.618 277.5)"/><use xlink:href="#g" transform="matrix(.99895 0 0 1 141.6 272.5)"/><use xlink:href="#g" transform="matrix(.99895 0 0 1 167.573 275.5)"/><use xlink:href="#g" transform="matrix(.99895 0 0 1 190.549 275.5)"/><use xlink:href="#g" transform="matrix(.99895 0 0 1 202.986 275.5)"/><use xlink:href="#g" transform="matrix(.99895 0 0 1 221.516 276.5)"/><use xlink:href="#g" transform="matrix(.99895 0 0 1 237.45 277)"/><use xlink:href="#g" transform="matrix(.99895 0 0 1 254.432 272)"/><g><use xlink:href="#g" transform="matrix(.99895 0 0 1 .3 270.5)"/><use xlink:href="#g" transform="matrix(.99895 0 0 1 16.233 271)"/><use xlink:href="#g" transform="matrix(.99895 0 0 1 33.215 266)"/><use xlink:href="#g" transform="matrix(.99895 0 0 1 59.187 269)"/><use xlink:href="#g" transform="matrix(.99895 0 0 1 82.163 269)"/><use xlink:href="#g" transform="matrix(.99895 0 0 1 100.694 270)"/><use xlink:href="#g" transform="matrix(.99895 0 0 1 116.627 270.5)"/><use xlink:href="#g" transform="matrix(.99895 0 0 1 133.609 265.5)"/><use xlink:href="#g" transform="matrix(.99895 0 0 1 159.582 268.5)"/><use xlink:href="#g" transform="matrix(.99895 0 0 1 182.557 268.5)"/><use xlink:href="#g" transform="matrix(.99895 0 0 1 194.994 268.5)"/><use xlink:href="#g" transform="matrix(.99895 0 0 1 213.525 269.5)"/><use xlink:href="#g" transform="matrix(.99895 0 0 1 229.458 270)"/><use xlink:href="#g" transform="matrix(.99895 0 0 1 246.44 265)"/></g><g transform="matrix(.99895 0 0 1 142.15 160)"><use xlink:href="#h"/></g><g><use xlink:href="#i" transform="matrix(1.13635 0 0 1.13634 88.556 82.74)"/><g transform="matrix(1.13635 0 0 1.13634 88.556 82.74)"><use xlink:href="#j"/><use xlink:href="#k"/></g><g transform="matrix(1.13635 0 0 1.13634 88.556 82.74)"><use xlink:href="#l"/><use xlink:href="#m"/></g><use xlink:href="#n" transform="matrix(1.13635 0 0 1.13634 88.556 82.74)"/><use xlink:href="#o" transform="matrix(1.13635 0 0 1.13634 88.556 82.74)"/><use xlink:href="#p" transform="matrix(1.13635 0 0 1.13634 88.556 82.74)"/><g transform="matrix(1.13635 0 0 1.13634 88.556 82.74)"><use xlink:href="#q"/><use xlink:href="#r"/></g><g transform="matrix(1.13635 0 0 1.13634 88.556 82.74)"><use xlink:href="#s"/><use xlink:href="#t"/><use xlink:href="#u"/><use xlink:href="#v"/></g><g transform="matrix(1.13635 0 0 1.13634 88.556 82.74)"><use xlink:href="#w"/><use xlink:href="#x"/></g><use xlink:href="#y" transform="matrix(1.13635 0 0 1.13634 88.556 82.74)"/></g></svg>