<svg xmlns="http://www.w3.org/2000/svg" xmlns:xlink="http://www.w3.org/1999/xlink" preserveAspectRatio="none" width="284" height="320"><defs><linearGradient id="a" gradientUnits="userSpaceOnUse" x1="-59.175" y1="196.238" x2="9.675" y2="-60.638" spreadMethod="pad"><stop offset="16.471%" stop-color="#009CFF"/><stop offset="100%" stop-color="#FFF"/></linearGradient><linearGradient id="b" gradientUnits="userSpaceOnUse" x1="-160.213" y1="160.325" x2="-101.487" y2="-59.225" spreadMethod="pad"><stop offset="16.471%" stop-color="#009CFF"/><stop offset="100%" stop-color="#FFF"/></linearGradient><linearGradient id="c" gradientUnits="userSpaceOnUse" x1="-57" y1="115.963" x2="-8.4" y2="-65.363" spreadMethod="pad"><stop offset="0%" stop-color="#0078FF"/><stop offset="100%" stop-color="#C0DDFF"/></linearGradient><linearGradient id="j" gradientUnits="userSpaceOnUse" x1="28.113" y1="-4.45" x2="20.887" y2="12.35" spreadMethod="pad"><stop offset="0%" stop-color="#FFF" stop-opacity=".498"/><stop offset="100%" stop-color="#FFF" stop-opacity="0"/></linearGradient><linearGradient id="d" gradientUnits="userSpaceOnUse" x1="158.287" y1="148.325" x2="170.412" y2="-79.925" spreadMethod="pad"><stop offset="16.471%" stop-color="#FF006D"/><stop offset="100%" stop-color="#FFF"/></linearGradient><linearGradient id="e" gradientUnits="userSpaceOnUse" x1="-22.775" y1="117.4" x2="-14.425" y2="-89.8" spreadMethod="pad"><stop offset="0%" stop-color="#FF006D"/><stop offset="100%" stop-color="#FFF"/></linearGradient><linearGradient id="f" gradientUnits="userSpaceOnUse" x1="17.55" y1="82.675" x2="28.45" y2="-84.575" spreadMethod="pad"><stop offset="0%" stop-color="#FF006D"/><stop offset="100%" stop-color="#FFF"/></linearGradient><linearGradient id="k" gradientUnits="userSpaceOnUse" x1="19.212" y1="-9.1" x2="11.987" y2="7.7" spreadMethod="pad"><stop offset="0%" stop-color="#FFF" stop-opacity=".498"/><stop offset="100%" stop-color="#FFF" stop-opacity="0"/></linearGradient><linearGradient id="g" gradientUnits="userSpaceOnUse" x1="5.05" y1="881.138" x2="5.05" y2="-96.938" spreadMethod="pad"><stop offset="11.765%"/><stop offset="100%" stop-color="#FFF"/></linearGradient><linearGradient id="h" gradientUnits="userSpaceOnUse" x1="-91.4" y1="1528.3" x2="-91.4" y2="-32" spreadMethod="pad"><stop offset="60.784%"/><stop offset="100%" stop-color="#FFF"/></linearGradient><linearGradient id="i" gradientUnits="userSpaceOnUse" x1="143.1" y1="1548.45" x2="-97.6" y2="-77.15" spreadMethod="pad"><stop offset="54.118%"/><stop offset="65.098%"/><stop offset="100%" stop-color="#FFF"/></linearGradient><linearGradient id="l" gradientUnits="userSpaceOnUse" x1="12.913" y1="-6.9" x2="5.688" y2="9.9" spreadMethod="pad"><stop offset="0%" stop-color="#FFF" stop-opacity=".498"/><stop offset="100%" stop-color="#FFF" stop-opacity="0"/></linearGradient><path fill="url(#a)" d="M123.9-23.6q1.4-5.7-3.8-7.25l-48.9-14-151.75-38.1q-5.3-1.5-6.7 4.2l-25.3 67.25-11.3 37.15q-.829 3.228.55 5.1.201.301.45.55 1 1.05 2.85 1.55L36.6 69.6l52.05 13.35q5.2 1.5 6.7-4.2l20.7-71.25 7.85-31.1z" id="m"/><path fill="url(#b)" d="M-120.25 31.65q.05.15-.4.4L90.3 82.6q-.1-.2-.1-.55 0-.85 1.35-.7 1.35.15 2.1-1.15.4-.65.65-1.6.3-.45 1.2-3.85.75-3 2.1-4.3l-74.25-92.4q-7.7-13-25.1-4.2l-119.1 43.3q.45.25.35 1.1 0 .15-.35 1.7-.15.75-1.1 3.9-.85 3-.75 4 .15 1.35.65 2.05.2.3 1.25 1.3.25.25.55.45z" id="n"/><path fill="url(#c)" d="M118.55-20.35q13.254-7.556-2.85-12.3-96.617-26.534-145.8-38.7Q-79.293-83.514-82.95-84q-3.652-.437-6.75 11.8l75.25 88.6q11 17.6 32.5 6.75l100.5-43.5z" id="o"/><path fill="#EE0707" d="M25.8-5.9Q17.5-7.6 8.75-1.75 4-11.85-4.3-12.75-11.9-13.6-16.6-7q-5 6.95-1.55 16.2Q-14.1 20.25.95 29.65 20.7 24.5 29.65 16.2q7.55-7.05 5.7-14-1.75-6.5-9.55-8.1z" id="p"/><path fill="url(#d)" d="M115.25-59.25q0-5.75-6-5.75L67.8-68.1l-168.3-8.4q-5.75 0-5.75 5.75l-9 128.5q0 5.75 5.75 5.75l214 13q4.95-1.6 5.75-5.75l5-130z" id="r"/><path fill="url(#e)" d="M20.25-27Q4.496-44.611-12.2-28.3l-102.15 73.05q.1 3.05-.15 8.95-.2 4.3.1 5.95.85 4.3 8.2 3.8l205 12.45q8.8 1.25 10.55-2.6.8-1.75 1.05-5.8.124-4.579.25-7.9L20.25-27z" id="s"/><path fill="url(#f)" d="M115-52.85q.635-8.6-.6-10.6-1.185-1.95-10.3-1.9L-92.15-76.2q-16.18-2.662-14.4 9.75L-22.9 16.6q20 23.8 43.5 3.2L115-52.85z" id="t"/><path fill="#EE0707" d="M14.55-11.3q-8.6-.05-14.1 8.9-4.3-9.1-12.85-9.7-8.1-.6-12.6 6-5.05 7.1-.25 17.05Q-19.6 23.05-.7 34.6q19.65-10.3 26.3-21.9 5.5-9.55 1.05-17.05-4-6.9-12.1-6.95m9.7 8.3q.65 1.2.9 2.4-.25-1.2-.9-2.4-1.75-3.3-5.55-4.9-2.85-1.2-5.6-.95 2.75-.25 5.6.95 3.8 1.6 5.55 4.9z" id="u"/><path fill="url(#g)" d="M109.65-77.9q-1.65-25.5-27.5-14.25l-208 51.5q-13.45 1.5-7.5 21.5l19 102.25q-.05 17.15 23 10.75l216.5-37q13.012-1.237 9.1-17-.352-1.44-.85-3L109.65-77.9z" id="w"/><path fill="url(#h)" d="M-114.35 83.1q-.05 17.15 23 10.75l216.5-37q13.012-1.237 9.1-17L6.65-24.65q-25.1-16.05-37 7.5l-84 100.25z" id="y"/><path fill="url(#i)" d="M106.15-82.9q1.85-20.5-24-9.25l-208 51.5q-13.45 1.5-8.5 17l111.1 56.6q24.237 15.203 39.9-7.1l89.5-108.75z" id="A"/><path fill="#EE0707" d="M19.1-4.4q-6.4-6.95-15.2-4.95-9 2.05-11.95 12.7-6.7-8.85-15.75-7.5-9 1.35-12.4 10.1-1.9 4.9-1.15 10.05.75 5.4 4.35 10 4.25 5.4 12.65 9.55 7.4 3.65 19.7 7.05Q18.3 28.4 22.5 14.55 26 3.05 19.1-4.4z" id="C"/><g id="E"><path fill="#0C0005" fill-opacity=".055" d="M227 302h-4q1.1 1.9 3.95 1.5.05 0 .05-.5v-1z"/><path fill="#04000C" fill-opacity=".078" d="M232 293v1q3.8-.65 1.25-3.25-.25-.25-.25-.75h-1v3z"/><path fill="#03010E" fill-opacity=".086" d="M230 296q0 .5-.25.75t-.75.25q0 .5-.05 1-.25 1.7-1.95 2v3q3.45-1.55 3.95-6 .05-.5.05-1h-1z"/><path fill="#000C11" fill-opacity=".216" d="M230 292q-.5 0-.5.05-.55 4.4-4.5 4.95-.5 0-.6.2-.7 1.5-3.4.8 3.35 5.2 7.35-.75.15-.25.65-.25t.75-.25q.25-.25.25-.75v-1-3z"/><path fill="#1363B0" fill-opacity=".859" d="M224 295h-.5q.15 2.15-1.5 2h-1v1q2.7.7 3.4-.8.1-.2.6-.2v-1q-.5 0-.75-.25T224 295z"/><path fill="#2171E0" fill-opacity=".992" d="M226 293v-1q-.5 0-.9.2-.6.3-1.1.8v2q0 .5.25.75t.75.25v-1q.5 0 .75-.25t.25-.75v-1z"/><path fill="#1957A8" fill-opacity=".843" d="M226 291v3q1.5-1 1.9-3 .1-.5.1-1-.5 0-.9.2-.6.3-1.1.8z"/><path fill="#206BFC" d="M228 289v-1h-2v3q.5-.5 1.1-.8.4-.2.9-.2v-1z"/><path fill="#000A16" fill-opacity=".306" d="M231.1 286q-.1-.5-.1-1h-2q0 .5.1 1 .6 2.7-1.1 3v1q0 .5-.1 1-.4 2-1.9 3 0 .5-.25.75t-.75.25v2q3.95-.55 4.5-4.95 0-.05.5-.05v-1-2q1.7-.3 1.1-3z"/><path fill="#2759A4" fill-opacity=".871" d="M229 284h-1v5q1.7-.3 1.1-3-.1-.5-.1-1v-1z"/><path fill="#0A4D9C" fill-opacity=".757" d="M229 280v5h1v-1-4h-1z"/><path fill="#1772F9" d="M224 278h-1v5q.5 0 .75-.25t.25-.75v-1-3z"/><path fill="#0679FD" d="M224 275v7q1.7-.3 1.1-3-.1-.5-.1-1t.1-.95q.55-2.15-1.1-2.05z"/><path fill="#000711" fill-opacity=".231" d="M230 273h-1q.5 2 1.4 3.8.1.2.6.2v-1q-.05-1.95-1-3z"/><path fill="#000306" fill-opacity=".086" d="M233 277q-.15 4.15.85 7.05.15.45.15.95.5 0 .5-.05.55-5-1.5-7.95z"/><path fill="#030207" fill-opacity=".122" d="M220.75 296.25q-.25-.25-.75-.25v1q.05 3.45 2.15 4.8.35.2.85.2h4v-1-1q1.7-.3 1.95-2 .05-.5.05-1-.5 0-.65.25-4 5.95-7.35.75v-1q0-.5-.25-.75z"/><path fill="#2466D2" fill-opacity=".929" d="M220 293v3q.5 0 .75.25t.25.75h1q0-.5.1-.95.85-3.45-2.1-3.05z"/><path fill="#070007" fill-opacity=".059" d="M216 291q-.2 2.75 1.2 3.75.3.25.8.25v-1q-.05-1.95-1-3h-1z"/><path fill="#000915" fill-opacity=".145" d="M217 288v3q.95 1.05 1 3v1q.5 1 1.25 1.75.25.25.75.25v-1-1-2q-.5 0-.65-.2-1.15-2-1.35-4.8h-1z"/><path fill="#1075F4" fill-opacity=".988" d="M218 287v1q.2 2.8 1.35 4.8.15.2.65.2 2.95-.4 2.1 3.05-.1.45-.1.95 1.65.15 1.5-2h.5v-1-1q.5-.5 1.1-.8.4-.2.9-.2v-1-1-2h2v-1-3h1v-1-3h1q0-.5-.1-1-.4-2-1.9-3-.5 0-.6.2-.7 1.5-2.4 1.8 0 .5.1 1 .6 2.7-1.1 3 0 .5-.25.75t-.75.25q-.5 0-.7.25-2.05 2.45-4.3.75v3m1-1q3.15 5.9.2.85-.2-.35-.2-.85m7-7q3.1 3.6.25.75-.25-.25-.25-.75z"/><path fill="#1572FE" d="M226.25 279.75q2.85 2.85-.25-.75 0 .5.25.75z"/><path fill="#037DFF" d="M219.2 286.85q2.95 5.05-.2-.85 0 .5.2.85z"/><path fill="#1660AF" fill-opacity=".816" d="M217 283v5h1v-1-3q0-.5-.25-.75T217 283z"/><path fill="#00112B" fill-opacity=".224" d="M216 278h-1q-.75 4.75 1.25 6.75.25.25.75.25v-1-1q-.5 0-.5-.1-.5-2.4-.5-4.9z"/><path fill="#1C63B7" fill-opacity=".886" d="M215 278h1q0-.5.1-1 .6-3.7-1.1-5v6z"/><path fill="#047BFC" d="M222.1 277.8q-.6-.3-1.1-.8-.35 3.35 1.2 4.75.3.25.8.25v-1-3q-.5 0-.9-.2z"/><path fill="#002D71" fill-opacity=".447" d="M215 272v-1-2h-1q0 2.5.5 4.9 0 .1.5.1v-1-1z"/><path fill="#165EB6" fill-opacity=".867" d="M215 254h-1v15h1v-1-14z"/><path fill="#004895" fill-opacity=".667" d="M214 249v5h1v-1-1-1-2h-1z"/><path fill="#021C3C" fill-opacity=".404" d="M229 272h-1v4q1.5 1 1.9 3 .1.5.1 1v5h1v-1-7q-.5 0-.6-.2-.9-1.8-1.4-3.8v-1z"/><path fill="#1D73CC" fill-opacity=".992" d="M228 272v-1-1h-1q0 2.5.5 4.9 0 .1.5.1v-1-2z"/><path fill="#00010B" fill-opacity=".082" d="M232.1 267q.6 3.7-1.1 5 .5 1 1.25 1.75.25.25.75.25 0-.5.05-1 .7-4.75-1.05-7 0 .5.1 1z"/><path fill="#0A4695" fill-opacity=".729" d="M227 264v6h1v-1-5h-1z"/><path fill="#1B75C4" d="M227 256h-1v4q0 2.5.5 4.9 0 .1.5.1v-1-1-7z"/><path fill="#0C75EF" fill-opacity=".996" d="M224.8 251.95q-.1-2.65-.15-2.6-2.4 11.6-3.65.65-3.2-2.55-3 8v1.5q-.4-1.65-3-7.5v20q1.7 1.3 1.1 5-.1.5-.1 1 0 2.5.5 4.9 0 .1.5.1t.75.25q.25.25.25.75 2.25 1.7 4.3-.75.2-.25.7-.25v-1q-.5 0-.8-.25-1.55-1.4-1.2-4.75.5.5 1.1.8.4.2.9.2h1v-1-2q1.65-.1 1.1 2.05-.1.45-.1.95 1.7-.3 2.4-1.8.1-.2.6-.2v-1q-.5 0-.5-.1-.5-2.4-.5-4.9v-1-4q-.5 0-.5-.1-.5-2.4-.5-4.9-1-4-1.2-8.05m-7.65 24q-.15-.45-.15-.95 2.9 9.3.15.95z"/><path fill="#0A77FE" d="M217 275q0 .5.15.95 2.75 8.35-.15-.95z"/><path fill="#000311" fill-opacity=".259" d="M229 250h-1v22h1v-1-21z"/><path fill="#00224D" fill-opacity=".478" d="M228 249v-1h-1v16h1v-1-13-1z"/><path fill="#030204" fill-opacity=".075" d="M240 250h-1q.05 1.95 1.15 2.75.35.25.85.25v-1-2h-1z"/><path fill="#0060CF" fill-opacity=".831" d="M242 241v-1h-2q0 3.5.5 6.95 0 .05.5.05v-1-4h1v-1z"/><path fill="#030817" fill-opacity=".161" d="M240 240h-1v10h2v-1-1-1q-.5 0-.5-.05-.5-3.45-.5-6.95z"/><path fill="#1861A2" fill-opacity=".875" d="M239 240h1q0-.5.1-1 .6-3.2-1.1-4v5z"/><path fill="#000619" fill-opacity=".298" d="M228 240v10h1v-1-9h-1z"/><path fill="#0A498F" fill-opacity=".761" d="M228 243h-1v5h1v-1-4z"/><path fill="#0E2F63" fill-opacity=".639" d="M229 235h-1v5h1v-1-4z"/><path fill="#013A70" fill-opacity=".651" d="M230 227h-1v5h1v-1-4z"/><path fill="#000817" fill-opacity=".302" d="M231.05 225q-.05-.5-.05-1h-1v8q1.75-2.25 1.05-7z"/><path fill="#000717" fill-opacity=".106" d="M238 235h-1q.8 2.2 1.45 4.9.05.1.55.1v-1-3q-.5 0-.75-.25T238 235z"/><path fill="#05356A" fill-opacity=".522" d="M238 231v4q0 .5.25.75t.75.25v-1-1-3h-1z"/><path fill="#020102" fill-opacity=".137" d="M234 232q-.5 0-.75-.25T233 231q-.5 0-.5.05-.85 9.1-2.5 16.95v25q.95 1.05 1 3v9q0 .5.1 1 .6 2.7-1.1 3v7h1q.5-.5.8-1.1.2-.4.2-.9v-1-3h1v-1q1.7-.3 1.1-3-.1-.5-.1-1t-.15-.95q-1-2.9-.85-7.05 0-.5-.2-.9-.3-.6-.8-1.1.5 0 .75-.25t.25-.75q-.5 0-.75-.25-.75-.75-1.25-1.75 1.7-1.3 1.1-5-.1-.5-.1-1t-.2-.85q-1.25-2.2-.8-6.15 1.3-12.2 2.95-24 .05-.5.05-1v-1-1z"/><path fill="#000417" fill-opacity=".102" d="M237 229v6h1v-1-3-1-1h-1z"/><path fill="#00030F" fill-opacity=".137" d="M234 224h-1v7q0 .5.25.75t.75.25v-1-7z"/><path fill="#000007" fill-opacity=".102" d="M235 224h-1v10q1.65.15 1.1-2.05-.1-.45-.1-.95v-1-6z"/><path fill="#0A0000" fill-opacity=".098" d="M237 224h-2v7q.5-.5 1.1-.8.4-.2.9-.2v-1-1-4z"/><path fill="#041D45" fill-opacity=".369" d="M238 228v-4h-1v5h1v-1z"/><path fill="#000719" fill-opacity=".102" d="M215 245h-2q-.7 17.7 1.5 32.95 0 .05.5.05v-1-3q-.5 0-.5-.1-.5-2.4-.5-4.9v-1-14-1-4h1v-1-3z"/><path fill="#153A6F" fill-opacity=".604" d="M215 239v4q1.7-.8 1.1-4-.1-.5-.1-1h-1v1z"/><path fill="#000312" fill-opacity=".071" d="M215 240h-1v5h1v-1-1-1-2z"/><path fill="#000716" fill-opacity=".094" d="M216 233v-2h-1v7h1v-1-3-1z"/><path fill="#01284D" fill-opacity=".365" d="M216 231v3q1.7-.8 1.1-4-.1-.5-.1-1h-1v2z"/><path fill="#01122D" fill-opacity=".216" d="M218.1 224.95q-.1-.45-.1-.95h-.5q.15 2.15-1.5 2v3h1v-1-1q1.65.15 1.1-2.05z"/><path fill="#011C38" fill-opacity=".282" d="M220 212h-.5q.15 2.15-1.5 2v8q1.7-.3 1.1-3-.1-.5-.1-1v-1-1q1.7-.3 1.1-3-.1-.5-.1-1z"/><path fill="#1861AB" fill-opacity=".953" d="M221.1 212q-.1-.5-.1-1h-1v1q0 .5.1 1 .6 2.7-1.1 3v2q3.25-.75 2.1-6z"/><path fill="#022851" fill-opacity=".416" d="M221 206h-1v5h1v-1-2-1-1z"/><path fill="#0B2849" fill-opacity=".427" d="M221 200v5q1.7-.8 1.1-4-.1-.5-.1-1h-1z"/><path fill="#1B6AC1" fill-opacity=".984" d="M239 222h-1v9h1v-1-8z"/><path fill="#16457F" fill-opacity=".741" d="M238 221v-2h-1v5h1v-1-1-1z"/><path fill="#070000" fill-opacity=".157" d="M235 221q-.5 0-.9.2-.6.3-1.1.8v2h2v-1-2z"/><path fill="#2565AC" fill-opacity=".98" d="M237 218v1h1v-1-5h-1v5z"/><path fill="#00010C" fill-opacity=".173" d="M236 212v-1h-1v13h1v-1-11z"/><path fill="#00082E" fill-opacity=".208" d="M237 213v-1h-1v12h1v-1-4-1-5z"/><path fill="#166CBC" d="M238 213q0-.5.05-1 .65-4.25-1.05-6v7h1z"/><path fill="#0C3975" fill-opacity=".702" d="M230 219v5h1v-1-4h-1z"/><path fill="#0B6ACA" d="M223.25 212.75q-.25-.25-.25-.75h-1q1.5 8.7 1.95 2 .05-.5.05-1-.5 0-.75-.25z"/><path fill="#0F6DD4" fill-opacity=".996" d="M223 212v-1-3h-2v3q0 .5.1 1 1.15 5.25-2.1 6 0 .5.1 1 .6 2.7-1.1 3v2q0 .5.1.95.55 2.2-1.1 2.05v2q0 .5.1 1 .6 3.2-1.1 4v4q0 .5.1 1 .6 3.2-1.1 4v9q2.6 5.85 3 7.5V258q-.2-10.55 3-8 1.25 10.95 3.65-.65.05-.05.15 2.6.2 4.05 1.2 8.05v-1-3h1v-1-7-1-4h1v-1-2-1-4h1v-1-2-1-4h1v-1-2-1-2q-2.1-1.65-1.65-4.25 1.25-7.55.35-4.55-1.15 3.8-1.05 1.9.65-10.95-3.65-6.1v5q0 .5-.05 1-.45 6.7-1.95-2h1m-2 32.5V243v-8q4 8.6 0 9.5m-4-9.5q3.1 7.55.2.9-.2-.4-.2-.9m6-12q1.55 9.1.1 1-.1-.5-.1-1m1.95 11q.05-.5.05-1 3.6 5.2 1.15 14.05-.15.45-.15.95-1.75-5.75-1.05-14z"/><path fill="#0770EB" d="M225 233q0 .5-.05 1-.7 8.25 1.05 14 0-.5.15-.95Q228.6 238.2 225 233z"/><path fill="#056CE5" d="M223.1 224q1.45 8.1-.1-1 0 .5.1 1z"/><path fill="#0274E9" d="M217.2 235.9q2.9 6.65-.2-.9 0 .5.2.9z"/><path fill="#0771EB" d="M221 243v1.5q4-.9 0-9.5v8z"/><path fill="#1968BA" d="M224 208h-1v4q0 .5.25.75t.75.25v-1-4z"/><path fill="#1D5FA1" fill-opacity=".961" d="M223 207v-4-1-4h-1v2q0 .5.1 1 .6 3.2-1.1 4v3h2v-1z"/><path fill="#006CDA" d="M223 203v5h1q0-.5.1-1 .6-3.2-1.1-4z"/><path fill="#01183A" fill-opacity=".447" d="M233.1 209q-.1-.5-.1-1h-.5q.25 5.25-1.5 8v2q3.15-2.35 2.1-9z"/><path fill="#030105" fill-opacity=".235" d="M236 206v-1h-3v3q0 .5.1 1 1.05 6.65-2.1 9v6q0 .5.05 1 .7 4.75-1.05 7h-1v41h1v-1-24q1.65-7.85 2.5-16.95 0-.05.5-.05v-1-6-1-1q.5-.5 1.1-.8.4-.2.9-.2v-1-9h1v-1-4z"/><path fill="#022F62" fill-opacity=".561" d="M237 206h-1v6h1v-1-5z"/><path fill="#0F3E71" fill-opacity=".765" d="M234 200h-1v5h1v-1-4z"/><path fill="#00050D" fill-opacity=".325" d="M236 200v-1q-.5 0-.9.2-.6.3-1.1.8v5h2v-1-3-1z"/><path fill="#104A7D" fill-opacity=".808" d="M237 201h-1v5h1v-1-4z"/><path fill="#050100" fill-opacity=".149" d="M265 280q.3 1.7 3 1.1.5-.1 1-.1h3v-1q-.5 0-.95-.15Q268 279 265 278q.5 1 .5 2h-.5z"/><path fill="#02091E" fill-opacity=".306" d="M271 277q-.5 0-.9-.2-2.75-1.15-6.1-1.8 0 .5-.25.75t-.75.25q-.1 1.65 2 1.5v.5q3 1 6.05 1.85.45.15.95.15v-1-1q-.5 0-.75-.25T271 277z"/><path fill="#021537" fill-opacity=".318" d="M274 277q0 .5-.2.6-.8.4-1.8.4v3q1 1.9 2.4-.8.1-.2.6-.2v-1-1-1h-1z"/><path fill="#000311" fill-opacity=".247" d="M276.1 274q-.1-.5-.1-1t-.25-.75q-.25-.25-.75-.25v6q1.7-.8 1.1-4z"/><path fill="#010400" fill-opacity=".188" d="M276.6 273.2q-.1-.2-.6-.2 0 .5.1 1 .6 3.2-1.1 4v2q3.8-2 1.6-6.8z"/><path fill="#070005" fill-opacity=".114" d="M262 278v1q1 .5 2.05.85.45.15.95.15h.5q0-1-.5-2h-3z"/><path fill="#01020B" fill-opacity=".106" d="M262 278q0-.5-.1-.5-2.8-.6-3.9-2.5h-2q1.55 2.95 5.05 3.9.45.1.95.1v-1z"/><path fill="#080208" fill-opacity=".184" d="M262.05 275.85Q261 275.5 260 275h-2q1.1 1.9 3.9 2.5.1 0 .1.5h3v-.5q-2.1.15-2-1.5-.5 0-.95-.15z"/><path fill="#011427" fill-opacity=".388" d="M260 275q1 .5 2.05.85.45.15.95.15.5 0 .75-.25t.25-.75q0-.5-.2-.6-1.8-.9-3.8-1.4v2z"/><path fill="#02091A" fill-opacity=".286" d="M259 272h-1q0 .5-.25.75t-.75.25q.5.5.8 1.1.2.4.2.9h2v-1-1q-.5 0-.75-.25T259 272z"/><path fill="#2267C5" fill-opacity=".949" d="M255 269h-1q1.2 1.8 3.1 2.8.4.2.9.2h1q0-.5-.25-.75Q257.5 270 256 269h-1z"/><path fill="#080007" fill-opacity=".078" d="M252 272q0-.5-.15-.55-1.8-.5-2.85-1.45h-1q.3 2.2 3 2.05.5-.05 1-.05z"/><path fill="#010105" fill-opacity=".149" d="M252 269q-.5 0-.95-.15-1.05-.35-2.05-.85v2q1.05.95 2.85 1.45.15.05.15.55 1.2 1.8 3.1 2.8.4.2.9.2h2q0-.5-.2-.9-.3-.6-.8-1.1-.5 0-.9-.2-2.75-1.15-4.1-3.8z"/><path fill="#000B30" fill-opacity=".235" d="M251.8 268.1q-.3-.6-.8-1.1-.5 0-.9-.2-.6-.3-1.1-.8v2q1 .5 2.05.85.45.15.95.15 0-.5-.2-.9z"/><path fill="#001121" fill-opacity=".314" d="M253 269h-1q1.35 2.65 4.1 3.8.4.2.9.2t.75-.25q.25-.25.25-.75-.5 0-.9-.2-1.9-1-3.1-2.8h-1z"/><path fill="#146ADC" fill-opacity=".953" d="M253 267h-2q.5.5.8 1.1.2.4.2.9h4v-1-1h-3z"/><path fill="#001D39" fill-opacity=".302" d="M246 261q0 .5-.25.75t-.75.25v1q1 .5 2.05.85.45.15.95.15 0-.5-.25-.85Q247 262 246 261z"/><path fill="#080107" fill-opacity=".102" d="M249 266q0-.5-.2-.9-.3-.6-.8-1.1-.5 0-.95-.15-1.05-.35-2.05-.85h-1q-.4 3.9 4.1 5.8.4.2.9.2v-1-1-1z"/><path fill="#1C5DC6" fill-opacity=".875" d="M248.8 265.1q.2.4.2.9.5.5 1.1.8.4.2.9.2 0-.5.05-1 .4-2.9-3.05-2 .5.5.8 1.1z"/><path fill="#0083EF" d="M253 265v2h3v-1q.1-6.4-3-1z"/><path fill="#1965D7" fill-opacity=".918" d="M245 256q0 .5-.25.75t-.75.25q.95 1.05 1.45 2.85.05.15.55.15 0-.5.25-.8 2.2-2.9-1.25-3.2z"/><path fill="#000626" fill-opacity=".173" d="M243 256v-1-2h-.5q.2-2.7-1.5-3v3q.05 1.95 1.15 2.75.35.25.85.25z"/><path fill="#000C17" fill-opacity=".153" d="M244 257q0-.5-.25-.75T243 256q-.75 4.2.75 6.2.25.3.25.8h1v-1q.5 0 .75-.25t.25-.75v-1q-.5 0-.55-.15-.5-1.8-1.45-2.85z"/><path fill="#1C66C8" fill-opacity=".925" d="M243.75 256.25q.25.25.25.75.5 0 .75-.25t.25-.75q0-.5.1-1 .55-2.65-2.1-2v3q.5 0 .75.25z"/><path fill="#1F5AAE" fill-opacity=".847" d="M243 253q0-.5.1-.95 1-4.15-2.1-4.05v2q1.7.3 1.5 3h.5z"/><path fill="#2A6ECD" d="M260.25 256.75q-.25-.25-.25-.75-.5 0-.9-.2-.6-.3-1.1-.8-.9 3.45 2 3.05.5-.05 1-.05v-1q-.5 0-.75-.25z"/><path fill="#01020A" fill-opacity=".122" d="M261 256h1q0-.5-.05-1-.25-1.7-1.95-2v3h1z"/><path fill="#03163F" fill-opacity=".298" d="M259.25 252.75q-.25-.25-.25-.75h-2q.5 1 .85 2.05.15.45.15.95.5.5 1.1.8.4.2.9.2v-1-2q-.5 0-.75-.25z"/><path fill="#00163C" fill-opacity=".322" d="M259 252v-1q-.5 0-.95-.15-1.75-.6-2.05-2.85-.5 0-.5-.05-.3-2.65-2.5-2.95.65 3.85 2.75 6.2.25.3.25.8h3z"/><path fill="#1B5AB6" fill-opacity=".863" d="M264 260q0-.5-.25-.75Q262.5 258 261 257v1q-.65 2.65 2 2.1.5-.1 1-.1z"/><path fill="#062964" fill-opacity=".565" d="M275 272h-1v5h1v-1-4z"/><path fill="#010306" fill-opacity=".122" d="M275.25 265.75q-.25-.25-.25-.75h-1v7h1q.5 0 .75.25t.25.75q.5 0 .6.2 2.2 4.8-1.6 6.8-.5 0-.6.2-1.4 2.7-2.4.8h-3q8.65 5.05 10.9-6 .1-.5.1-1-1.85-5.1-4.75-8.25z"/><path fill="#286CD8" fill-opacity=".976" d="M272 266q0 .5.15.95 1.9 7-1.15 10.05 0 .5.25.75t.75.25q1 0 1.8-.4.2-.1.2-.6v-1-4-1-1h-.5q.2-3.2-1.5-4z"/><path fill="#1768B7" fill-opacity=".906" d="M266.85 261.45q-1.8-.5-2.85-1.45 0 .5-.25.75t-.75.25q.3 1.7 3 1.1.5-.1 1-.1 0-.5-.15-.55z"/><path fill="#010A1E" fill-opacity=".153" d="M271 263h1q0-.5-.25-.65-4.9-3.2-9.75-6.35h-2q0 .5.25.75t.75.25q1.5 1 2.75 2.25.25.25.25.75 1.05.95 2.85 1.45.15.05.15.55.5.5 1.1.8.4.2.9.2h2z"/><path fill="#042352" fill-opacity=".396" d="M273 265h-1v1q1.7.8 1.5 4h.5v-1-4h-1z"/><path fill="#000D04" fill-opacity=".09" d="M272 264v1h3q0-.5-.25-.85-.8-1.1-2.75-1.15v1z"/><path fill="#1162B4" fill-opacity=".827" d="M269 263q0 .5-.25.75t-.75.25q.3 1.7 3 1.1.5-.1 1-.1v-1-1h-3z"/><path fill="#090000" fill-opacity=".106" d="M254 240q1 3.5 1.9 7.05.1.45.1.95.3 2.25 2.05 2.85.45.15.95.15 0-.5-.05-1-.5-3.95-3.95-10h-1z"/><path fill="#156DF2" d="M251.75 247.15q-.95-1.4-.75-4.15h-1q-.35 3.35 1.2 4.75.3.25.8.25 0-.5-.25-.85z"/><path fill="#1E6CD0" fill-opacity=".984" d="M251 243q-.2 2.75.75 4.15.25.35.25.85 1.65 4.3 3 4.1.5-.1 1-.1 0-.5-.25-.8-2.1-2.35-2.75-6.2-.5 0-.55-.15-.45-1.35-.45-2.85h-1v1z"/><path fill="#1170E4" d="M243.2 237.9q-.2-.4-.2-.9h-1v5q3.2-.35 1.2-4.1z"/><path fill="#2063B8" fill-opacity=".937" d="M251 240q0-.5-.1-.95-.55-2.4-1.9-4.05v1q-.2 2.75 1.2 3.75.3.25.8.25z"/><path fill="#0D76F1" fill-opacity=".996" d="M249 236q-.5 0-.9-.2-.6-.3-1.1-.8 0 .5-.05 1-.4 6.4-3.95-1v2q0 .5.2.9 2 3.75-1.2 4.1h-1v6q3.1-.1 2.1 4.05-.1.45-.1.95 2.65-.65 2.1 2-.1.5-.1 1 3.45.3 1.25 3.2-.25.3-.25.8v1q1 1 1.75 2.15.25.35.25.85 3.45-.9 3.05 2-.05.5-.05 1h2v-1-1q3.1-5.4 3 1v3q1.5 1 2.75 2.25.25.25.25.75t.25.75q.25.25.75.25 2 .5 3.8 1.4.2.1.2.6 3.35.65 6.1 1.8.4.2.9.2 3.05-3.05 1.15-10.05-.15-.45-.15-.95v-1q-.5 0-1 .1-2.7.6-3-1.1.5 0 .75-.25t.25-.75q-.5 0-.9-.2-.6-.3-1.1-.8-.5 0-1 .1-2.7.6-3-1.1.5 0 .75-.25t.25-.75q-.5 0-1 .1-2.65.55-2-2.1-.5 0-1 .05-2.9.4-2-3.05 0-.5-.15-.95-.35-1.05-.85-2.05h-1q-.5 0-1 .1-1.35.2-3-4.1-.5 0-.8-.25-1.55-1.4-1.2-4.75h1v-1-1-1q-.5 0-.8-.25-1.4-1-1.2-3.75m-4 8q3.65 5.15.75 2.25-.75-.75-.75-2.25m6.45 14.95q.05-.45-.45-.95 8.75-2.55 1.25 3-.95.7-.8-2.05z"/><path fill="#186FFA" d="M251 258q.5.5.45.95-.15 2.75.8 2.05 7.5-5.55-1.25-3z"/><path fill="#1274DE" d="M245.75 246.25q2.9 2.9-.75-2.25 0 1.5.75 2.25z"/><path fill="#03193F" fill-opacity=".447" d="M249 230v-1-5h-1q0 3 .5 5.9 0 .1.5.1z"/><path fill="#001436" fill-opacity=".376" d="M249 232v3q1.35 1.65 1.9 4.05.1.45.1.95v2h1q0-.5.1-1 .8-4.05-2.1-9h-1z"/><path fill="#1B6EDC" d="M247 234v1q.5.5 1.1.8.4.2.9.2v-1-1-2h-1q0 .5-.2.9-.3.6-.8 1.1z"/><path fill="#1965BD" fill-opacity=".957" d="M248 224h-1q-.75 4.75.8 7.15.2.35.2.85h1v-1-1q-.5 0-.5-.1-.5-2.9-.5-5.9z"/><path fill="#010407" fill-opacity=".239" d="M249 223v9h1q0-.5.1-.95 1.15-5-1.1-11.05v3z"/><path fill="#033474" fill-opacity=".647" d="M247 219v5h1v-1-4h-1z"/><path fill="#1D69C3" d="M247 216h-1q0 2.5.5 4.9 0 .1.5.1v-1-1-1-2z"/><path fill="#000C30" fill-opacity=".353" d="M247 215v4h1q0-.5.1-1 .6-3.2-1.1-4v1z"/><path fill="#1A5283" fill-opacity=".855" d="M247 211h-1v5h1v-1-1-1-2z"/><path fill="#176AC2" d="M246 210v-1h-1q0 3 .5 5.9 0 .1.5.1v-1-3-1z"/><path fill="#0B70DD" d="M245 209v-1q-1 0-1 .1-.8 9.8-2.15 3.7-1.25-5.85-2.85 4.2v19q1.7.8 1.1 4-.1.5-.1 1h2v-1-2h1v-1-1q3.55 7.4 3.95 1 .05-.5.05-1v-1q.5-.5.8-1.1.2-.4.2-.9t-.2-.85q-1.55-2.4-.8-7.15v-1-2q-.5 0-.5-.1-.5-2.4-.5-4.9v-1q-.5 0-.5-.1-.5-2.9-.5-5.9m-2.9 8.95q-.1-.45-.1-.95 2.7 11.05.1.95z"/><path fill="#1769D3" d="M242 217q0 .5.1.95 2.6 10.1-.1-.95z"/><path fill="#092D47" fill-opacity=".608" d="M247 205h-1v6h1v-1-5z"/><path fill="#1D67AE" fill-opacity=".996" d="M246 204v-4h-1v9h1v-1-3-1z"/><path fill="#000920" fill-opacity=".357" d="M246 200v5h1q0-.5.05-1 .7-4.75-1.05-7v3z"/><path fill="#020000" fill-opacity=".106" d="M250 194q0-.5.05-1 .65-4.25-1.05-6 0 3.5.5 6.95 0 .05.5.05z"/><path fill="#105495" fill-opacity=".886" d="M246 195h-1v5h1v-1-2-1-1z"/><path fill="#00356A" fill-opacity=".671" d="M245 189v6h1v-1-5h-1z"/><path fill="#001438" fill-opacity=".42" d="M245 187v2h1q0-.5.1-1 .6-3.2-1.1-4v3z"/><path fill="#1F5E98" fill-opacity=".98" d="M245 183v-1h-1q0 3 .5 5.9 0 .1.5.1v-1-3-1z"/><path fill="#123E69" fill-opacity=".776" d="M245 177h-1v5h1v-1-4z"/><path fill="#010209" fill-opacity=".259" d="M247 175h-2v9q1.7.8 1.1 4-.1.5-.1 1v8q1.75 2.25 1.05 7-.05.5-.05 1v9q1.7.8 1.1 4-.1.5-.1 1v5h1v-1-3q0-.5-.05-1-1.15-21.8-1.95-44z"/><path fill="#010204" fill-opacity=".153" d="M249.75 176.25q-.25-.25-.75-.25t-.9-.2q-.6-.3-1.1-.8.8 22.2 1.95 44 .05.5.05 1 2.25 6.05 1.1 11.05-.1.45-.1.95 2.9 4.95 2.1 9-.1.5-.1 1 0 1.5.45 2.85.05.15.55.15 2.2.3 2.5 2.95 0 .05.5.05 0-.5-.1-.95-.9-3.55-1.9-7.05h1q0-.5-.1-1-3.9-18.85-4.9-45-.5 0-.5-.05-.5-3.45-.5-6.95v-1-6q1.65.15 1.1-2.05-.1-.45-.1-.95 0-.5-.25-.75z"/><path fill="#020B40" fill-opacity=".294" d="M258 176v-1-1q-.5 0-.8.25-2 1.5-5.2-.25v1q1.65 1.35 5 1.05.5-.05 1-.05z"/><path fill="#040101" fill-opacity=".118" d="M260 176h-2q-.5 0-1 .05-3.35.3-5-1.05h-3v1q.5 0 .75.25t.25.75q3.2.75 9.9-.5.1 0 .1-.5z"/><path fill="#2C63C0" fill-opacity=".929" d="M259.75 172.75q.25-.25.25-.75-.5 0-.95.15-2.9 1-7.05.85v1q3.2 1.75 5.2.25.3-.25.8-.25 1-.5 1.75-1.25z"/><path fill="#0576D3" d="M255.25 165.35q-.25.15-.25.65h2v-1q.5 0 .75-.25t.25-.75h-.5q-.05-5.85-2.5-2 1.2 2.7.25 3.35z"/><path fill="#1572DC" d="M251 166q.3 1.7 2 1.95.5.05 1 .05 1-.5 1.75-1.25.25-.25.25-.75h-1q-.5 0-.6-.2-.4-.8-.4-1.8-.5 0-.6.2-.7 1.5-2.4 1.8z"/><path fill="#000C19" fill-opacity=".235" d="M250 172q-.5 0-.5-.05-.3-2.65-2.5-2.95v6q.5.5 1.1.8.4.2.9.2v-1h3v-1-1q-.5 0-.9-.2-.6-.3-1.1-.8z"/><path fill="#0A77F6" fill-opacity=".992" d="M251 169q0 .5.1.95.55 2.2-1.1 2.05.5.5 1.1.8.4.2.9.2 4.15.15 7.05-.85.45-.15.95-.15v-1-1q1-.5 1.75-1.25.25-.25.25-.75v-.5q-4.1 1.95-5-1.5h-1q0 .5-.25.75-.75.75-1.75 1.25 0 .5-.1 1-.2 1.2-2.9 0z"/><path fill="#1560A2" fill-opacity=".992" d="M244 172v-1h-1v5q0 2.5.5 4.9 0 .1.5.1v-1-3-1-4z"/><path fill="#011936" fill-opacity=".467" d="M245 172h-1v5h1v-1-1-1-2z"/><path fill="#1D69E1" fill-opacity=".961" d="M247 168v1q2.2.3 2.5 2.95 0 .05.5.05 1.65.15 1.1-2.05-.1-.45-.1-.95 0-.5-.25-.75T250 168h-3z"/><path fill="#0A0201" fill-opacity=".255" d="M247 169q-.5 0-.9.2-.6.3-1.1.8v5h2v-1-5z"/><path fill="#00050B" fill-opacity=".325" d="M247 168h-3v4h1v-1-1q.5-.5 1.1-.8.4-.2.9-.2v-1z"/><path fill="#0873F9" d="M247 165v3h3q0-.5-.2-.9-1-1.9-2.8-3.1v1z"/><path fill="#000729" fill-opacity=".42" d="M243 165v1q.5.5.8 1.1.2.4.2.9h2q0-.5-.2-.9-.8-1.6-1.8-3.1h-1v1z"/><path fill="#04314F" fill-opacity=".71" d="M243 166v5h1v-1-2q0-.5-.2-.9-.3-.6-.8-1.1z"/><path fill="#0971E5" d="M244.8 162.4q.2.1.2.6 1.65-.1 1.5 2h.5v-1q1.8 1.2 2.8 3.1.2.4.2.9.5 0 .75.25t.25.75q2.7 1.2 2.9 0 .1-.5.1-1-.5 0-1-.05-1.7-.25-2-1.95 1.7-.3 2.4-1.8.1-.2.6-.2 0-.5-.1-1-1.3-5.95-10.9-3 .3 1.7 1.8 2.4m2.4-1.8q-.2-.1-.2-.6 5.55 3.55.2.6z"/><path fill="#1769D6" d="M247 160q0 .5.2.6 5.35 2.95-.2-.6z"/><path fill="#2259BD" fill-opacity=".925" d="M245 163q0 .5-.25.75t-.75.25q1 1.5 1.8 3.1.2.4.2.9h1v-1-2h-.5q.15-2.1-1.5-2z"/><path fill="#225287" fill-opacity=".902" d="M253 151q-.5 0-.95-.15-1.05-.35-2.05-.85h-1v1q1.05.95 3 1h1v-1z"/><path fill="#215D9A" fill-opacity=".933" d="M261 159.5v.5h2q0-.5-.25-.75Q261 157.5 259 156q-.9 3.45 2 3.5z"/><path fill="#0077D9" d="M260 160h-1q.65 3.8 2.75.85.25-.35.25-.85h-2z"/><path fill="#125995" fill-opacity=".894" d="M256 155.05q.5-.05 1-.05 0-.5-.25-.7Q255 153 253 152q0 .5-.25.75t-.75.25q.45 2.55 4 2.05z"/><path fill="#040608" fill-opacity=".145" d="M256.8 151.4q-1.8-.9-2.8-2.4h-4v1q1 .5 2.05.85.45.15.95.15 1.95.05 3.15.75.35.25.85.25 0-.5-.2-.6z"/><path fill="#215EB9" fill-opacity=".898" d="M263.75 168.75q.25-.25.25-.75h-2q0 .5-.25.75-.75.75-1.75 1.25v2h1v-1q1.5-1 2.75-2.25z"/><path fill="#00041D" fill-opacity=".251" d="M265 169v-1h-1q0 .5-.25.75Q262.5 170 261 171v1q4.2.7 4-3z"/><path fill="#176DEC" d="M264 166q-.5 0-.75-.25T263 165q-.5 0-.95-.15Q260 164 258 163v1q0 .5-.25.75t-.75.25v1q.9 3.45 5 1.5v.5h2v-1-1z"/><path fill="#1A64B1" fill-opacity=".929" d="M265 162q0 .5.1 1 .6 2.7-1.1 3v2h1q0-.5.25-.8 2.2-2.7-.25-5.2z"/><path fill="#0D70EF" d="M265 162q-.5 0-.9.2-.6.3-1.1.8v2q0 .5.25.75t.75.25q1.7-.3 1.1-3-.1-.5-.1-1z"/><path fill="#060108" fill-opacity=".071" d="M269 166q0 .5-.25.75t-.75.25v2q2.95.45 1.55-2.8-.05-.2-.55-.2z"/><path fill="#01090D" fill-opacity=".165" d="M269 166q0-.5-.1-.95-2.45-10-11.9-13.05-.5 0-.85-.25-1.2-.7-3.15-.75v1q2 1 3.75 2.3.25.2.25.7.5 0 .75.25t.25.75h1q2 1.5 3.75 3.25.25.25.25.75 1 .5 1.75 1.25.25.25.25.75 2.45 2.5.25 5.2-.25.3-.25.8v1q.2 3.7-4 3h-1q0 .5-.25.75-.75.75-1.75 1.25v2h2q5.05-1.95 7.75-6.15.25-.35.25-.85v-1-1q.5 0 .75-.25t.25-.75z"/><path fill="#002957" fill-opacity=".341" d="M266.85 149.55q.15-.05.15-.55h-5q1.3 1.7 4.85.55z"/><path fill="#1860A8" fill-opacity=".839" d="M271 147h-2v2q1.95-.05 2.75-1.15.25-.35.25-.85h-1z"/><path fill="#0D74F9" d="M264 148h5v-1h3v-1-2q-.5 0-.95.15-3.6 1.3-7.05 2.85v1z"/><path fill="#3365A3" fill-opacity=".973" d="M272 140v7q1.7-1.8 1.05-6-.05-.5-.05-1h-1z"/><path fill="#056DD4" d="M269 141q.5 0 .75-.25 2.4-2.45-3.75-1.75v1q2.15-.6 2.5.9 0 .1.5.1z"/><path fill="#20486D" fill-opacity=".769" d="M272 138v2h1q0-.5.1-1 .6-3.2-1.1-4v3z"/><path fill="#195681" fill-opacity=".961" d="M266 132v1h5q0-.5-.2-.6-.8-.4-1.8-.4h-3z"/><path fill="#1E6BC7" fill-opacity=".925" d="M263.05 147.9q-2.75-.7-7.05.1v1h13v-1h-5q-.5 0-.95-.1z"/><path fill="#017BF8" d="M256 147q.5 0 .95-.1 3.9-.9-.95-1.9v2z"/><path fill="#0C6AC9" d="M256 137v2q3.25 6.15 9.2 1.25.3-.25.8-.25v-1q6.15-.7 3.75 1.75-.25.25-.75.25-.1 1.65 2.05 1.1.45-.1.95-.1v-1-1-1-1q-.5 0-1 .05-9.05.5-15-2.05v1z"/><path fill="#022741" fill-opacity=".345" d="M250 148h-2q.5.5.8 1.1.2.4.2.9h1v-1h6v-1h-6z"/><path fill="#155FA9" d="M247 148h-2q0 .5-.2.6-.8.4-1.8.4-.1 1.65 2.05 1.1.45-.1.95-.1v-1q.5 0 .75-.25t.25-.75z"/><path fill="#1C5F90" fill-opacity=".992" d="M248 148h-1q0 .5-.25.75t-.75.25v1q1 .5 2.05.85.45.15.95.15v-1q0-.5-.2-.9-.3-.6-.8-1.1z"/><path fill="#0C72FD" d="M247 146v1h9v-1-1q-.5 0-.95-.15-4.6-1.5-8.05.15v1z"/><path fill="#0E66C6" fill-opacity=".894" d="M244 147q0 .5.25.75t.75.25h5v-1h-6z"/><path fill="#0E71E0" d="M253 140q0 .5-.25.7-2.4 2-5.75.3-.5 0-.6.2-1.1 2.6-3.4 3.8 0 1 .4 1.8.1.2.6.2h3v-1-1q3.45-1.65 8.05-.15.45.15.95.15 4.85 1 .95 1.9-.45.1-.95.1h-6v1h6q4.3-.8 7.05-.1.45.1.95.1v-1q3.45-1.55 7.05-2.85.45-.15.95-.15v-1-1q-.5 0-.95.1-2.15.55-2.05-1.1-.5 0-.5-.1-.35-1.5-2.5-.9-.5 0-.8.25-5.95 4.9-9.2-1.25-.5 0-.95.15-1.05.35-2.05.85m-1 3.5v-.5q11.7.5 0 .5m9.05 1q-.05 0-.05-.5 8.25 1.25.05.5z"/><path fill="#0971F6" d="M261 144q0 .5.05.5 8.2.75-.05-.5z"/><path fill="#0377DF" d="M252 143v.5q11.7 0 0-.5z"/><path fill="#0C6CD0" d="M253 139v-1q-.5 0-.6.2-1.15 2.55-5.4 1.8v1q3.35 1.7 5.75-.3.25-.2.25-.7v-1z"/><path fill="#185ED0" d="M253 138v2q1-.5 2.05-.85.45-.15.95-.15v-1-1q-.5 0-.95.15-1.05.35-2.05.85z"/><path fill="#1870EE" fill-opacity=".992" d="M246 135h3v-1q0-.5-.05-1-.25-1.7-2.95-1v3z"/><path fill="#0B67D5" d="M246 131v-1h-2q.4 3.1 1.35 4.8.15.2.65.2v-1-2-1z"/><path fill="#0065B8" d="M262.75 133.75q-.25.25-.75.25 2.75 4.45 5.75-.15.25-.35.25-.85h-5q0 .5-.25.75z"/><path fill="#142E46" fill-opacity=".545" d="M262 131v1h7q0-.5-.05-.5-3.45-.5-6.95-.5z"/><path fill="#245D97" d="M261 132v1h5v-1h-5z"/><path fill="#1160AE" fill-opacity=".976" d="M256 134q-.5 0-1 .1-2.7.6-3-1.1-.5 0-.5.1-.35 1.55-2.5.9v1q2 1 3.75 2.3.25.2.25.7 1-.5 2.05-.85.45-.15.95-.15v-1q5.95 2.55 15 2.05.5-.05 1-.05v-1-2q0-.5-.2-.9-.3-.6-.8-1.1h-3q0 .5-.25.85-3 4.6-5.75.15.5 0 .75-.25t.25-.75h-2q0 .5-.1.5-2.4.5-4.9.5z"/><path fill="#24578F" fill-opacity=".949" d="M256 133v1q2.5 0 4.9-.5.1 0 .1-.5v-1h-1q0 .5-.1.55-1.9.45-3.9.45z"/><path fill="#002E49" fill-opacity=".345" d="M255.25 132.75q-.25-.25-.25-.75-.5 0-.9.2-.6.3-1.1.8h-1q.3 1.7 3 1.1.5-.1 1-.1v-1q-.5 0-.75-.25z"/><path fill="#021025" fill-opacity=".22" d="M256 131q0 .5-.25.75t-.75.25q0 .5.25.75t.75.25q2 0 3.9-.45.1-.05.1-.55-.5 0-.95.1-2.15.55-2.05-1.1h-1z"/><path fill="#0E6DB9" fill-opacity=".886" d="M255.75 131.75q.25-.25.25-.75h-4q.5.5.8 1.1.2.4.2.9.5-.5 1.1-.8.4-.2.9-.2t.75-.25z"/><path fill="#1072E1" fill-opacity=".992" d="M258 129.1q-3.2.6-4-1.1h-3q-.5 0-1 .1-2 .4-4 .9v3q2.7-.7 2.95 1 .05.5.05 1 2.15.65 2.5-.9 0-.1.5-.1h1q0-.5-.2-.9-.3-.6-.8-1.1h5q.5-.5 1.1-.8.4-.2.9-.2v-1q-.5 0-1 .1z"/><path fill="#086FD6" d="M262.05 126.15q.45-.15.95-.15 0-.5-.1-.5-3.65-.75-6.9-1.5v1q2.7 2.35 6.05 1.15z"/><path fill="#145589" fill-opacity=".765" d="M262 128q-1.95.05-3 1v1q2-.5 3.8-1.4.2-.1.2-.6h-1z"/><path fill="#0570E7" fill-opacity=".996" d="M259 129q1.05-.95 3-1h2q0-.5-.2-.9-.3-.6-.8-1.1-.5 0-.95.15-3.35 1.2-6.05-1.15 0 .5.1.95.55 2.2-1.1 2.05h-1q.8 1.7 4 1.1.5-.1 1-.1z"/><path fill="#334764" fill-opacity=".886" d="M261 112h1q0-.5-.05-.5-3.45-.5-6.95-.5v1h6z"/><path fill="#0E6ACF" d="M244.75 121.75q-.25.25-.75.25v2q4.35.4 6.75 3.2.25.3.25.8h4q0-.5-.25-.8-3.05-3.9-5.75-8.2 0 .5-.25.85Q247 122.4 245 121q0 .5-.25.75z"/><path fill="#1D68C1" fill-opacity=".973" d="M244.8 115.9q-.3.6-.8 1.1v5q.5 0 .75-.25t.25-.75v-1-2h1v-1-1-1h-1q0 .5-.2.9z"/><path fill="#144F8F" fill-opacity=".757" d="M248 113h-2v4q1.5-1 1.9-3 .1-.5.1-1z"/><path fill="#0F5098" fill-opacity=".8" d="M249 117q-.5 0-.6.2-1.4 2.7-2.4.8h-1v3q2 1.4 3.75-1.15.25-.35.25-.85v-1-1z"/><path fill="#1F5BA1" fill-opacity=".996" d="M253.1 113.2q-.6.3-1.1.8v1q2.2 3.25 3.75 1.75.25-.25.25-.75t-.25-.85Q255 114 254 113q-.5 0-.9.2z"/><path fill="#175AA8" fill-opacity=".906" d="M248 108h-1q0 2 .45 3.9.05.1.55.1.5-.5.8-1.1.2-.4.2-.9-.5 0-.6-.2-.4-.8-.4-1.8z"/><path fill="#124876" fill-opacity=".773" d="M250.05 99.85q.45.15.95.15 0-.5-.2-.85-2.1-3.35-7.8-3.15 3.05 2.45 7.05 3.85z"/><path fill="#001833" fill-opacity=".22" d="M251.55 104.85q1.15-3.55-.55-4.85v5q.5 0 .55-.15z"/><path fill="#11487E" fill-opacity=".718" d="M267 119q.5 2 .9 4 .1.5.1 1 .5 0 .55-.15 1.2-4.1-1.55-4.85z"/><path fill="#195C93" fill-opacity=".937" d="M265 116q0 .5-.25.75t-.75.25q.3 1.7 2 1.95.5.05 1 .05 0-.5-.25-.85Q266 117 265 116z"/><path fill="#0E66BD" fill-opacity=".988" d="M265 116q-.5 0-.9-.2-4.1-2-8.1.2 0 .5-.25.75-1.55 1.5-3.75-1.75-.5 0-.5.1-.35 1.55-2.5.9v3q2.7 4.3 5.75 8.2.25.3.25.8 1.65.15 1.1-2.05-.1-.45-.1-.95v-1q3.25.75 6.9 1.5.1 0 .1.5.5.5.8 1.1.2.4.2.9 2-1.5 3.75-3.25.25-.25.25-.75t-.1-1q-.4-2-.9-4-.5 0-1-.05-1.7-.25-2-1.95.5 0 .75-.25t.25-.75m-11 5.5V120q4.2 1.6 0 1.5z"/><path fill="#026DD8" d="M254 120v1.5q4.2.1 0-1.5z"/><path fill="#0B5DA1" fill-opacity=".969" d="M264.1 115.8q.4.2.9.2 0-.5-.2-.9-1-1.9-2.8-3.1h-8v1q1 1 1.75 2.15.25.35.25.85 4-2.2 8.1-.2z"/><path fill="#0A6BCD" d="M240.1 197.1q1.2-12.15-3.1-5.1v14q1.7 1.75 1.05 6-.05.5-.05 1v9h1v-1-5q1.6-10.05 2.85-4.2 1.35 6.1 2.15-3.7 0-.1 1-.1v-1-7-1-4-1-2h-2q0 .5-.05 1-.95 13.3-1.95 1-1.8 12.65-.9 3.1z"/><path fill="#1167C1" d="M241 193v1q1 12.3 1.95-1 .05-.5.05-1v-1q-.15-4.85-2 1v1z"/><path fill="#00142F" fill-opacity=".463" d="M236 196h-.5q.15 2.15-1.5 2v2q.5-.5 1.1-.8.4-.2.9-.2v-1-2z"/><path fill="#042D5F" fill-opacity=".675" d="M235 192q0 .5.1.95.55 2.2-1.1 2.05v3q1.65.15 1.5-2h.5v-1-3h-1z"/><path fill="#195F98" fill-opacity=".992" d="M235.1 192.95q-.1-.45-.1-.95h-2v8h1v-1-1-1-2q1.65.15 1.1-2.05z"/><path fill="#1A65AF" fill-opacity=".992" d="M237 192h-1v9h1v-1-8z"/><path fill="#122A45" fill-opacity=".502" d="M223 192q1.7-.8 1.1-4-.1-.5-.1-1h-1v5z"/><path fill="#1662A8" fill-opacity=".992" d="M225 178v1q0 .5.1 1 .6 3.2-1.1 4v2q3.15-2.35 2.1-9-.1-.5-.1-1h-1v2z"/><path fill="#014385" fill-opacity=".678" d="M225 179h-1v5q1.7-.8 1.1-4-.1-.5-.1-1z"/><path fill="#0C66BB" fill-opacity=".996" d="M227.1 173.95q.55 2.2-1.1 2.05 0 .5.1 1 1.05 6.65-2.1 9v1q0 .5.1 1 .6 3.2-1.1 4v11q1.7.8 1.1 4-.1.5-.1 1 4.3-4.85 3.65 6.1-.1 1.9 1.05-1.9.9-3-.35 4.55-.45 2.6 1.65 4.25v-1-1h1v-1-1-1q1.75-2.75 1.5-8h.5v-1-2-1-4-1-7h2q-1.2-1.3-1.9-3.75-1.35-5-1.85-10.35-1.3-13.6-4.25-4.9 0 .5.1.95z"/><path fill="#0169C4" d="M240.8 174.9q-.3.6-.8 1.1.2 8.3 2.45.15.05-.15.55-.15v-1-2q-.5 0-.9.2-.6.3-1.1.8 0 .5-.2.9z"/><path fill="#0C66B7" fill-opacity=".996" d="M241 174q-.5 0-.6-.2-3.85-9-7.4-4.8 1.2 11.3 2.9 22 .1.5.1 1h1q4.3-7.05 3.1 5.1-.9 9.55.9-3.1v-1-1q1.85-5.85 2-1v1h2v-1-2-1q-.5 0-.5-.1-.5-2.9-.5-5.9v-1q-.5 0-.5-.1-.5-2.4-.5-4.9-.5 0-.55.15-2.25 8.15-2.45-.15.5-.5.8-1.1.2-.4.2-.9z"/><path fill="#000F24" fill-opacity=".176" d="M222 195v3h1v-1-5-1-4h-1v8z"/><path fill="#00020F" fill-opacity=".059" d="M222 195h-1v5h1v-1-1-1-2z"/><path fill="#000D38" fill-opacity=".31" d="M205 176q0-.5-.2-.6-1.5-.7-1.8-2.4h-1q-.2 2.7 2 2.95.5.05 1 .05z"/><path fill="#2565C5" fill-opacity=".937" d="M205 176h1v-1q0-.5-.25-.85-.8-1.1-2.75-1.15.3 1.7 1.8 2.4.2.1.2.6z"/><path fill="#49596E" fill-opacity=".922" d="M210.9 176.55q.1-.05.1-.55h-5q0 .5.25.75t.75.25q2 0 3.9-.45z"/><path fill="#000710" fill-opacity=".114" d="M210 179q-.5 0-.9.2-.6.3-1.1.8v1q1.5 2.4 3.3.25.2-.25.7-.25v-1q-.5 0-.9-.2-.6-.3-1.1-.8z"/><path fill="#020A1E" fill-opacity=".314" d="M212 176h-1q0 .5-.1.55-1.9.45-3.9.45.5 1 .85 2.05.15.45.15.95.5-.5 1.1-.8.4-.2.9-.2 1.7-.3 1.95-2 .05-.5.05-1z"/><path fill="#030201" fill-opacity=".09" d="M216 178q-.5 0-.55.15-.75 2.05-3.45 1.85v1q3.55.55 3.9-2 .1-.5.1-1z"/><path fill="#156AD9" fill-opacity=".925" d="M213.75 174.75q.25-.25.25-.75t-.2-.6q-.8-.4-1.8-.4v3q1-.5 1.75-1.25z"/><path fill="#0979FA" d="M212 173q-.5 0-.95.1-2.15.55-2.05-1.1-.5 0-.5.05-.3 2.65-2.5 2.95v1h6v-1-2z"/><path fill="#0C77F4" d="M202.85 172.05q.15.45.15.95 1.95.05 2.75 1.15.25.35.25.85 2.2-.3 2.5-2.95 0-.05.5-.05 0-.5.1-1 .5-2.3-6.1-1h-1q.5 1 .85 2.05z"/><path fill="#1563BF" fill-opacity=".996" d="M204 159v1q2.85-1.15 7-1h1q0-.5-.1-.5-2.9-.5-5.9-.5-.5 0-.9.2-.6.3-1.1.8z"/><path fill="#1D5CB2" fill-opacity=".933" d="M207 155h-3q0 .5-.25.75t-.75.25v1q2-.5 3.8-1.4.2-.1.2-.6z"/><path fill="#0475E2" d="M204.1 153.5q5.5-1.25-1.1-1.5v1q0 .5.25.75t.75.25q0-.5.1-.5z"/><path fill="#004183" fill-opacity=".761" d="M211.5 153.05q0-.05-.5-.05t-.5.1q-.35 1.55-2.5.9v1h1q2.7.2 2.5-1.95z"/><path fill="#146FBC" d="M208 153v1q2.15.65 2.5-.9 0-.1.5-.1v-1h-3v1z"/><path fill="#0C6FDB" fill-opacity=".992" d="M217 160q0 .5-.25.75-4.05 4.45-3.75-1.75h-2q-4.15-.15-7 1h-1v3q1.05 2.7.15 6.05-.15.45-.15.95 6.6-1.3 6.1 1-.1.5-.1 1-.1 1.65 2.05 1.1.45-.1.95-.1 1 0 1.8.4.2.1.2.6 3.25-2.75 5.4-6.8.1-.2.6-.2v-1q.5-.5.8-1.1.2-.4.2-.9v-1-2q-.5 0-.6-.2-.7-1.5-3.4-.8m-10.9.5q-.1 0-.1-.5 6.65 1.75.1.5m3.9 3.5q5.2.3 0 .5v-.5m5.25 1.7q-.25-.2-.25-.7 3.8 3.7.25.7z"/><path fill="#007ADB" d="M215 165q0 .5.25.7 3.55 3-.25-.7z"/><path fill="#196AD2" d="M210 164.5q5.2-.2 0-.5v.5z"/><path fill="#2163C7" d="M206 160q0 .5.1.5 6.55 1.25-.1-.5z"/><path fill="#1268CE" d="M216.75 160.75q.25-.25.25-.75-.5 0-.75.25-1.7 1.65-3.25-1.25-.3 6.2 3.75 1.75z"/><path fill="#164E86" fill-opacity=".957" d="M241 166q.5.5 1.1.8.4.2.9.2v-1-1-1h1q0-.5-.25-.75-.75-.75-1.75-1.25h-2q-.7 2.7.8 3.4.2.1.2.6z"/><path fill="#0863B2" d="M240 166q.75 3.25.95 7 .05.5.05 1 .5-.5 1.1-.8.4-.2.9-.2v-1-1-1-3q-.5 0-.9-.2-.6-.3-1.1-.8h-1z"/><path fill="#010302" fill-opacity=".094" d="M224 173v-1-2q-.5 0-.85.25-3 1.9-5.15 4.75v1q5.85-6.85 5.5 2h.5v-1-4z"/><path fill="#002151" fill-opacity=".345" d="M225 173h-1v6h1v-1-2-1-2z"/><path fill="#245D8D" d="M225 172v4h1v-1-7h-1v4z"/><path fill="#040409" fill-opacity=".247" d="M224 165q-.5 0-.55.15-.75 2.05-3.45 1.85-.5 0-.6.2-2.15 4.05-5.4 6.8 0 .5-.25.75-.75.75-1.75 1.25 0 .5-.05 1-.25 1.7-1.95 2 .5.5 1.1.8.4.2.9.2 2.7.2 3.45-1.85.05-.15.55-.15v-1q.5-.5 1.1-.8.4-.2.9-.2v-1q2.15-2.85 5.15-4.75.35-.25.85-.25v-1-3-1z"/><path fill="#00081E" fill-opacity=".361" d="M224 165q0-.5-.2-.9-.3-.6-.8-1.1-.5 0-.9.2-.6.3-1.1.8 0 .5-.2.9-.3.6-.8 1.1v1q2.7.2 3.45-1.85.05-.15.55-.15z"/><path fill="#194C76" d="M225 165v3h1v-1-2q0-.5.1-1 .6-3.2-1.1-4v5z"/><path fill="#000F32" fill-opacity=".224" d="M225 166h-1v7h1v-1-4-1-1z"/><path fill="#1660B2" fill-opacity=".953" d="M223 162v-1q-.5 0-.9-.2-.6-.3-1.1-.8v4q.5-.5 1.1-.8.4-.2.9-.2v-1z"/><path fill="#135B9A" d="M228.1 163q-.1-.5-.1-1h-.5q.2 2.7-1.5 3v11q1.65.15 1.1-2.05-.1-.45-.1-.95v-1-6q1.7-.3 1.1-3z"/><path fill="#00163C" fill-opacity=".49" d="M225 160q-.5 0-.9.2-.6.3-1.1.8v2q.5.5.8 1.1.2.4.2.9v1h1v-1-5z"/><path fill="#044078" d="M227.75 155.75q-.25.25-.75.25v1q-.7 2.7 1 2.95.5.05 1 .05 0-.5.1-1 .6-3.2-1.1-4 0 .5-.25.75z"/><path fill="#044B8D" d="M226 157q0 .5-.25.75t-.75.25v2q1.7.8 1.1 4-.1.5-.1 1 1.7-.3 1.5-3h.5q2.2 2.15 2.05-1-.05-.5-.05-1h-1q-.5 0-1-.05-1.7-.25-1-2.95h-1z"/><path fill="#074B8B" d="M229.75 152.75q-.75.75-1.75 1.25v1q1.7.8 1.1 4-.1.5-.1 1h1q0-.5.2-.9 1.8-4.05-.2-7.1 0 .5-.25.75z"/><path fill="#145EA6" d="M231 151q0-.5-.05-.5-3.9-.45-4.95 2.5v4h1v-1q.5 0 .75-.25t.25-.75v-1q1-.5 1.75-1.25.25-.25.25-.75-.5 0-.75-.25T229 151h2z"/><path fill="#0B5CA3" fill-opacity=".996" d="M240 158q-.5 0-.5-.05-1-6.95-8.5-6.95h-2q0 .5.25.75t.75.25q2 3.05.2 7.1-.2.4-.2.9t.05 1q.15 3.15-2.05 1 0 .5.1 1 .6 2.7-1.1 3v7q2.95-8.7 4.25 4.9.5 5.35 1.85 10.35.7 2.45 1.9 3.75h1q0-.5-.1-1-1.7-10.7-2.9-22 3.55-4.2 7.4 4.8.1.2.6.2 0-.5-.05-1-.2-3.75-.95-7h1q0-.5-.2-.6-1.5-.7-.8-3.4h2q0-.5-.2-.9-.3-.6-.8-1.1-.5 0-.6-.2-.4-.8-.4-1.8z"/><path fill="#0173BC" d="M240 156v2q0 1 .4 1.8.1.2.6.2 0-.5.1-.5 7.25-1.65-1.1-3.5z"/><path fill="#0F6AD1" fill-opacity=".996" d="M240 155v1q8.35 1.85 1.1 3.5-.1 0-.1.5.5.5.8 1.1.2.4.2.9 1 .5 1.75 1.25.25.25.25.75.5 0 .75-.25t.25-.75q0-.5-.2-.6-1.5-.7-1.8-2.4 9.6-2.95 10.9 3 .1.5.1 1 0 1 .4 1.8.1.2.6.2 0-.5.25-.65.95-.65-.25-3.35 2.45-3.85 2.5 2h.5v-1q2 1 4.05 1.85.45.15.95.15v-1-1q.5-.5 1.1-.8.4-.2.9-.2 0-.5-.25-.75-.75-.75-1.75-1.25h-1q0 .5-.25.85-2.1 2.95-2.75-.85h2v-.5q-2.9-.05-2-3.5h-1q-4.55-.45-8.35 1.25L248 158q2.2-3.6-5-4 0 .5-.15.55-1.35.45-2.85.45z"/><path fill="#1C5EB8" d="M242.8 153.1q-1-2.4-2.8-3.1v5q1.5 0 2.85-.45.15-.05.15-.55t-.2-.9z"/><path fill="#000409" fill-opacity=".169" d="M199 171h-1q-.55 3.55 1.85 4.45.15.05.15.55 2.8 3.2 7.05 4.85.45.15.95.15v-1q0-.5-.15-.95-.35-1.05-.85-2.05-.5 0-.75-.25T206 176h-1q-.5 0-1-.05-2.2-.25-2-2.95 0-.5-.25-.75-.75-.75-1.75-1.25h-1z"/><path fill="#2067C7" fill-opacity=".976" d="M202 170h-2v1q1 .5 1.75 1.25.25.25.25.75h1q0-.5-.15-.95-.35-1.05-.85-2.05z"/><path fill="#00164C" fill-opacity=".322" d="M197 168v2q.5 0 .75.25t.25.75h2v-1q-.5 0-.8-.25-1.55-1.4-1.2-4.75h-1v3z"/><path fill="#050504" fill-opacity=".071" d="M197 170q0 .5.1.95.55 2.2-1.1 2.05.85 2.15 3.05 2.85.45.15.95.15 0-.5-.15-.55-2.4-.9-1.85-4.45 0-.5-.25-.75T197 170z"/><path fill="#0875E9" d="M202.4 163.2q-.7 1.5-3.4.8-.35 3.35.75 5.15.25.35.25.85h3q0-.5.15-.95.9-3.35-.15-6.05-.5 0-.6.2z"/><path fill="#1C63B1" fill-opacity=".984" d="M199 164q2.7.7 3.4-.8.1-.2.6-.2v-1-2q-.5 0-.65.2-1.2 1.95-3.35 2.8v1z"/><path fill="#1865C5" fill-opacity=".945" d="M198 164v1q-.35 3.35 1.2 4.75.3.25.8.25 0-.5-.25-.85-1.1-1.8-.75-5.15h-1z"/><path fill="#080109" fill-opacity=".137" d="M192 163h-3q4.2 2.25 7.3 5.75.2.25.7.25v-1-3q0-.5-.25-.75-.75-.75-1.75-1.25h-3z"/><path fill="#00022F" fill-opacity=".275" d="M192 162v1h3v-1q.5 0 .75-.25t.25-.75h-4v1z"/><path fill="#000723" fill-opacity=".176" d="M190 160v-1q-.5 0-.6-.2-.9-1.8-1.4-3.8v-1h-1v1q-1.2 4.7 2 4.95.5.05 1 .05z"/><path fill="#080808" fill-opacity=".212" d="M192 160h-2q0 .5-.2.6-.8.4-1.8.4-.1 1.65 2 1.5v.5h2v-1-1-1z"/><path fill="#215EB5" fill-opacity=".882" d="M189.75 155.25q-.25-.25-.75-.25h-1q.5 2 1.4 3.8.1.2.6.2v-1-2q0-.5-.25-.75z"/><path fill="#0971D7" d="M190.25 150.65q-.25-.15-.25-.65h-2v5h1v-1-2q3.3-.05 1.25-1.35z"/><path fill="#021B4C" fill-opacity=".565" d="M201 158v1q1 0 1.8.4.2.1.2.6h1v-1q.5-.5 1.1-.8.4-.2.9-.2v-1q1.95-.05 2.75-1.15.25-.35.25-.85h-2q0 .5-.2.6-1.8.9-3.8 1.4 0 .5-.2.6-.8.4-1.8.4z"/><path fill="#070E1B" fill-opacity=".447" d="M200 159h-1q0 .5-.25.75t-.75.25q-.6 2.15.9 2.5.1 0 .1.5 2.15-.85 3.35-2.8.15-.2.65-.2 0-.5-.2-.6-.8-.4-1.8-.4h-1z"/><path fill="#1B5FAD" fill-opacity=".929" d="M199 159h2v-1q1 0 1.8-.4.2-.1.2-.6h-1q-1.95.05-3 1v1z"/><path fill="#010412" fill-opacity=".314" d="M197 160q0 .5-.25.75t-.75.25q0 .5-.25.75t-.75.25v1q1 .5 1.75 1.25.25.25.25.75h1v-1h1v-1q0-.5-.1-.5-1.5-.35-.9-2.5h-1z"/><path fill="#1A71F0" fill-opacity=".996" d="M195 155q-.5 0-1-.05-2.7-.15-4 1.05v4h3v-1q2.75-1.25 4.75-3.25.25-.25.25-.75h-3z"/><path fill="#1D417A" fill-opacity=".741" d="M196 160h-4v1h4q.5 0 .75-.25t.25-.75h-1z"/><path fill="#0773CC" d="M195.75 150.75q.25-.25.25-.75-.5 0-.85.25-1.2.7-3.15.75-.1 1.65 2.05 1.1.45-.1.95-.1v-1q.5 0 .75-.25z"/><path fill="#0E6CD4" d="M199.75 153.2q.25.3.25.8 1-.5 2.05-.85.45-.15.95-.15v-1q6.6.25 1.1 1.5-.1 0-.1.5v1h4v-1-1-1h3q1-1 2.15-1.8 1.8-1.2-.15-1.2-8.3 0-17 1 0 .5-.25.75t-.75.25v1q0 .5.25.75t.75.25q2-1.75 3.75.2z"/><path fill="#0875F6" fill-opacity=".992" d="M200 154q-.5 0-.9.2-.6.3-1.1.8 0 .5-.25.75-2 2-4.75 3.25v1h5q.5 0 .75-.25t.25-.75v-1q1.05-.95 3-1h1v-1q.5 0 .75-.25t.25-.75v-1q-.5 0-.75-.25T203 153q-.5 0-.95.15-1.05.35-2.05.85z"/><path fill="#1A6AE3" d="M199.1 154.2q.4-.2.9-.2 0-.5-.25-.8-1.75-1.95-3.75-.2 0 .5-.25.75t-.75.25v1h3q.5-.5 1.1-.8z"/><path fill="#092751" fill-opacity=".384" d="M194 141.1q.5-.1 1-.1v-1h-5q.8 1.7 4 1.1z"/><path fill="#1F5189" fill-opacity=".949" d="M200 142h-6v1h7v-1h-1z"/><path fill="#0773ED" d="M192 148h-.5q.15 2.15-1.5 2 0 .5.25.65 2.05 1.3-1.25 1.35v3q.5 0 .75.25t.25.75q1.3-1.2 4-1.05.5.05 1 .05v-1q.5 0 .75-.25t.25-.75q-.5 0-.75-.25T195 152q-.5 0-.95.1-2.15.55-2.05-1.1v-1-2z"/><path fill="#086EC1" d="M192 146h-1q0 .5-.25.75-.75.75-1.75 1.25v2h1q1.65.15 1.5-2h.5q0-.5.2-.6 2.05-.9-.2-1.4z"/><path fill="#0F5EB2" fill-opacity=".886" d="M189 148q-.5 0-.95.15-1.05.35-2.05.85.5 2 .9 4 .1.5.1 1h1v-1-3h1v-1-1z"/><path fill="#145F9D" fill-opacity=".973" d="M192 145v-2h-2v1q0 1 .4 1.8.1.2.6.2h1v-1z"/><path fill="#00081A" fill-opacity=".114" d="M186 148v-1h-1q-.75 5.25 1.3 7.75.2.25.7.25v-1q0-.5-.1-1-.4-2-.9-4v-1z"/><path fill="#1762AB" fill-opacity=".973" d="M186 147v2q1-.5 2.05-.85.45-.15.95-.15 1-.5 1.75-1.25.25-.25.25-.75-.5 0-.6-.2-.4-.8-.4-1.8-.5 0-.9.2-1.6.8-3.1 1.8v1z"/><path fill="#1F6ED1" d="M189 134v2q2.7.7 2.95-1 .05-.5.05-1h-3z"/><path fill="#136CE5" d="M192 133q-.5 0-.95-.15-1.05-.35-2.05-.85h-1q0 .5-.2.9-.3.6-.8 1.1-.6 2.15 1 2.05.5-.05 1-.05v-1-1h3v-1z"/><path fill="#2766BE" fill-opacity=".961" d="M183.75 132.75q-.25.25-.75.25-.35 3.35 1.2 4.75.3.25.8.25v-1-5h-1q0 .5-.25.75z"/><path fill="#076FCA" d="M185 132q.5-.5 1.1-.8.4-.2.9-.2 0-.5-.15-.55-1.35-.45-2.85-.45v2h1z"/><path fill="#1060A1" d="M190.5 126.05q0-.05-.5-.05h-2q0 1 .4 1.8.1.2.6.2 1.7-.3 1.5-1.95z"/><path fill="#115BA8" fill-opacity=".957" d="M192 125v-1h-6q-.5 0-.9.2-.6.3-1.1.8v3q3.05-1.8 5 .5v-.5q-.5 0-.6-.2-.4-.8-.4-1.8h2v-1h2z"/><path fill="#166AE3" d="M198.1 122.8q.4.2.9.2t.85-.25q3.3-2.4-2.85-.75.5.5 1.1.8z"/><path fill="#0D57A0" fill-opacity=".89" d="M195.75 122.75q-.25.25-.75.25 0 .5-.15.55-1.35.45-2.85.45v1q1.95 3.7 8.8-.35.2-.15.2-.65-.5 0-.9-.2-.6-.3-1.1-.8-.5 0-.9-.2-.6-.3-1.1-.8h-1q0 .5-.25.75z"/><path fill="#2F4CB0" fill-opacity=".882" d="M192 120q0-.5.05-1 .15-2.7-2.05-3 .5 2 1.4 3.8.1.2.6.2z"/><path fill="#002E4D" fill-opacity=".333" d="M192 122v1h3q.5 0 .75-.25t.25-.75q-.5 0-.95-.15-1.05-.35-2.05-.85 0 .5-.25.75t-.75.25z"/><path fill="#145FA6" fill-opacity=".871" d="M192 120q0 .5.25.75t.75.25q1 .5 2.05.85.45.15.95.15 0-.5-.2-.9-.3-.6-.8-1.1h-3z"/><path fill="#094666" fill-opacity=".71" d="M187 122v1h5v-1h-5z"/><path fill="#115E98" fill-opacity=".996" d="M187 123h-1v1h6q1.5 0 2.85-.45.15-.05.15-.55h-8z"/><path fill="#0C65B3" fill-opacity=".98" d="M191.75 112.75q-.75.75-1.75 1.25v1q3.5.45 8.85-1.45.15-.05.15-.55-.5 0-.9-.2-.6-.3-1.1-.8h-5q0 .5-.25.75z"/><path fill="#036AB9" d="M195 110v2h2q.5 0 .55-.15.9-2.75-2.55-1.85z"/><path fill="#0772D3" d="M242 127v1q1 .5 1.75 1.25.25.25.25.75h2v-1q2-.5 4-.9.5-.1 1-.1 0-.5-.25-.8-2.4-2.8-6.75-3.2h-1v1q0 .5-.2.9-.3.6-.8 1.1z"/><path fill="#0277F1" d="M240 126q-.6 2.15 1 2.05.5-.05 1-.05v-1q.5-.5.8-1.1.2-.4.2-.9-.5 0-.5.1-.35 1.55-2.5.9z"/><path fill="#1271F6" d="M240 125v1q2.15.65 2.5-.9 0-.1.5-.1v-1h1v-1-1q-.5 0-.55-.15-1.15-3.05-3.45 1.15v2z"/><path fill="#1C5DA2" d="M208 142h-7v1h7v-1z"/><path fill="#1D5BC5" d="M207 144h-2q1.2 3.25 2.75.85.25-.35.25-.85h-1z"/><path fill="#006AD3" d="M205 144h3v-1h-9q1.3 1.7 5 1.1.5-.1 1-.1z"/><path fill="#031739" fill-opacity=".255" d="M203 141v-1h-8v1q1 0 1.8.4.2.1.2.6h3v-1h3z"/><path fill="#011C46" fill-opacity=".306" d="M208 141v-1h-5v1h5z"/><path fill="#334B72" fill-opacity=".898" d="M208 142v-1h-8v1h8z"/><path fill="#0362A1" fill-opacity=".965" d="M209 140h-1v4q7.85-1 2.9-3.8-.4-.2-.9-.2h-1z"/><path fill="#0576F9" fill-opacity=".996" d="M208 138v-1q-.5 0-1 .05-10.6 1.05-18-1.05-.5 0-1 .05-1.6.1-1-2.05.5-.5.8-1.1.2-.4.2-.9t-.25-.75q-.25-.25-.75-.25t-.9.2q-.6.3-1.1.8v6q.5.5 1.1.8.4.2.9.2h21v-1z"/><path fill="#1F75D7" fill-opacity=".992" d="M209 139h-22q-.1 1.65 2.05 1.1.45-.1.95-.1h20v-1h-1z"/><path fill="#1570FC" d="M208 135v3q.5 0 .85-.25 2.95-2.1-.85-2.75z"/><path fill="#0E67BD" fill-opacity=".988" d="M210.05 127.85Q207.5 127 205 126q-.5 0-.75-.25Q203 124.5 201 124q0 .5-.2.65-6.85 4.05-8.8.35h-2v1q.5 0 .5.05.2 1.65-1.5 1.95v.5q-1.95-2.3-5-.5v2q1.5 0 2.85.45.15.05.15.55.5 0 .75.25t.25.75h1v-1q11.8 2.55 21.8-2.4.2-.1.2-.6-.5 0-.95-.15z"/><path fill="#0E72EB" d="M213 136q0-.5-.15-.55-7.45-2.9-20.85-2.45v1q0 .5-.05 1-.25 1.7-2.95 1 7.4 2.1 18 1.05.5-.05 1-.05v-1-1q3.8.65.85 2.75-.35.25-.85.25v1h3v-1q1-.5 1.75-1.25.25-.25.25-.75z"/><path fill="#1772DD" d="M214 136h-1q0 .5-.25.75-.75.75-1.75 1.25v1q3.45.95 3.05-2-.05-.5-.05-1z"/><path fill="#0B6ED8" fill-opacity=".996" d="M217 129q-.5 0-.75-.25-1.15-1.1-5.25-.75 0 .5-.2.6-10 4.95-21.8 2.4v1q1 .5 2.05.85.45.15.95.15 13.4-.45 20.85 2.45.15.05.15.55h1q1.65-2.85 2.85-6.05.15-.45.15-.95z"/><path fill="#0C66BE" fill-opacity=".996" d="M220 127q0 .5-.15.55-1.8.5-2.85 1.45 0 .5-.15.95-1.2 3.2-2.85 6.05 0 .5.05 1 .4 2.95-3.05 2h-1v1q.5 0 .9.2 4.95 2.8-2.9 3.8 0 .5-.25.85-1.55 2.4-2.75-.85-.5 0-1 .1-3.7.6-5-1.1h-7v3q2.25.5.2 1.4-.2.1-.2.6v3q1.95-.05 3.15-.75.35-.25.85-.25 8.7-1 17-1 1.95 0 .15 1.2-1.15.8-2.15 1.8v1q.5 0 .5.05.2 2.15-2.5 1.95 0 .5-.25.85-.8 1.1-2.75 1.15v1q3 0 5.9.5.1 0 .1.5h1q1.55 2.9 3.25 1.25.25-.25.75-.25 2.7-.7 3.4.8.1.2.6.2v-1q.5.5 1.1.8.4.2.9.2.5-.5 1.1-.8.4-.2.9-.2v-1-1q.5 0 .75-.25t.25-.75v-1-3q1.05-2.95 4.95-2.5.05 0 .05.5 7.5 0 8.5 6.95 0 .05.5.05v-1-1-1-1-4q1.8.7 2.8 3.1.2.4.2.9 7.2.4 5 4l1.65-.75q3.8-1.7 8.35-1.25 0-.5-.25-.75T257 155q-.5 0-1 .05-3.55.5-4-2.05.5 0 .75-.25t.25-.75h-1q-1.95-.05-3-1-.5 0-.95-.15-1.05-.35-2.05-.85-.5 0-.95.1-2.15.55-2.05-1.1 1 0 1.8-.4.2-.1.2-.6-.5 0-.75-.25T244 147q-.5 0-.6-.2-.4-.8-.4-1.8 2.3-1.2 3.4-3.8.1-.2.6-.2v-1q4.25.75 5.4-1.8.1-.2.6-.2 0-.5-.25-.7Q251 136 249 135h-3q-.5 0-.65-.2-.95-1.7-1.35-4.8 0-.5-.25-.75-.75-.75-1.75-1.25-.5 0-1 .05-1.6.1-1-2.05-.5 0-.95-.15-6.45-2.5-15.05-.85 0 .5-.2.6-1.8.9-3.8 1.4z"/><path fill="#156AD5" d="M220 126v1q2-.5 3.8-1.4.2-.1.2-.6h-1q-1.95.05-3 1z"/><path fill="#0C6BD9" fill-opacity=".992" d="M217 119v1q2.8 3.9 2.5-.95 0-.05-.5-.05h-2z"/><path fill="#00294E" fill-opacity=".306" d="M215 114h-1q.3 1.7 1.8 2.4.2.1.2.6.5-.5.8-1.1.2-.4.2-.9-.5 0-.9-.2-.6-.3-1.1-.8z"/><path fill="#245FA6" fill-opacity=".929" d="M214 112q.5.5.8 1.1.2.4.2.9.5.5 1.1.8.4.2.9.2 0-.5.05-1 .4-2.9-3.05-2z"/><path fill="#0F6DD9" fill-opacity=".996" d="M207 121.5q-2.1.15-2-1.5 2.7.7 2.95-1 .05-.5.05-1h-3q-.5 0-.95.15-3.75 1.3-9.05-.15v2q.5.5.8 1.1.2.4.2.9h1q6.15-1.65 2.85.75-.35.25-.85.25.5.5 1.1.8.4.2.9.2 2 .5 3.25 1.75.25.25.75.25 0-.5.2-.6 1.45-.7-.2-2.4.5-.5 1.1-.8.4-.2.9-.2v-.5z"/><path fill="#1667C1" d="M204 116q.5.5.8 1.1.2.4.2.9h3q0-.5-.1-1-.7-3.65-3.9-1z"/><path fill="#0C6DD5" d="M212 117q-.5 0-.9.2-.6.3-1.1.8 0 .5.25.75t.75.25q2.2.8 5 .95.5.05 1 .05v-1q0-.5-.2-.6-.8-.4-1.8-.4-.5 0-.95-.15-1.05-.35-2.05-.85z"/><path fill="#195CA8" fill-opacity=".949" d="M210 112q-.55 3.55 1.85 4.45.15.05.15.55 1 .5 2.05.85.45.15.95.15v-1h1q0-.5-.2-.6-1.5-.7-1.8-2.4-.5 0-.55-.15-.75-2.05-3.45-1.85z"/><path fill="#165695" fill-opacity=".933" d="M203.25 109.35q-.25.15-.25.65 3.35-.35 5.15.75.35.25.85.25 0-.5-.25-.8-2.15-2.8-5.75-4.2 1.2 2.7.25 3.35z"/><path fill="#0969CA" d="M203 110q0 .5-.15.95-.65 2.25-3.85 2.05 0 .5-.15.55-5.35 1.9-8.85 1.45v1q2.2.3 2.05 3-.05.5-.05 1h3v-1-1q5.3 1.45 9.05.15.45-.15.95-.15 0-.5-.2-.9-.3-.6-.8-1.1 3.2-2.65 3.9 1 .1.5.1 1t-.05 1q-.25 1.7-2.95 1-.1 1.65 2 1.5v.5q1 .45 3.75-2.25.25-.25.25-.75-.5 0-.75-.25T210 118q.5-.5 1.1-.8.4-.2.9-.2 0-.5-.15-.55-2.4-.9-1.85-4.45 0-.5-.25-.75T209 111q-.5 0-.85-.25-1.8-1.1-5.15-.75m-5 5q4.95 1.75.1.55-.1-.05-.1-.55z"/><path fill="#0968D6" d="M198.1 115.55q4.85 1.2-.1-.55 0 .5.1.55z"/><path fill="#0E62A5" fill-opacity=".988" d="M202.85 110.95q.15-.45.15-.95 0-.5.25-.65.95-.65-.25-3.35h-7q0 .5-.25.8Q194 109 192 111v1h3v-1-1q3.45-.9 2.55 1.85-.05.15-.55.15.5.5 1.1.8.4.2.9.2 3.2.2 3.85-2.05z"/><path fill="#194F7C" fill-opacity=".882" d="M203 106q0-.5-.05-.5-3.45-.5-6.95-.5v1h7z"/><path fill="#006BCA" d="M211 103v1q.5 0 .85-.25 4.05-2.7-.85-2.75v2z"/><path fill="#062D4D" fill-opacity=".443" d="M210 100h-1q0 2.5.5 4.9 0 .1.5.1v-1-4z"/><path fill="#18578F" fill-opacity=".902" d="M211 100v-1h-1v6q0 1 .4 1.8.1.2.6.2v-1-2-1-2-1z"/><path fill="#1566C3" d="M217 107v1q-.65 2.65 1.8 1.6.2-.1.2-.6t-.25-.75Q218 107.5 217 107z"/><path fill="#1561AC" fill-opacity=".941" d="M214 110v-3.5q-1 1-2 2.5.5 1 1.25 1.75.25.25.75.25v-1z"/><path fill="#0C73E6" fill-opacity=".996" d="M229.75 117.7l-1.7-.65Q225.8 114.5 219 116v3q.5 0 .5.05.3 4.85-2.5.95-.5 0-1-.05-2.8-.15-5-.95 0 .5-.25.75-2.75 2.7-3.75 2.25-.5 0-.9.2-.6.3-1.1.8 1.65 1.7.2 2.4-.2.1-.2.6 2.5 1 5.05 1.85.45.15.95.15 4.1-.35 5.25.75.25.25.75.25 1.05-.95 2.85-1.45.15-.05.15-.55v-1q1.05-.95 3-1h1q8.6-1.65 15.05.85.45.15.95.15v-1-2q2.3-4.2 3.45-1.15.05.15.55.15v-1-4q.5-.5.8-1.1.2-.4.2-.9v-.5q-6.25 3.6-14 4.5-.5-1-1.25-1.3z"/><path fill="#246097" fill-opacity=".949" d="M230.9 111q-.65-2.75-1.9-5-.75 4.2 1.2 5.75.3.25.8.25 0-.5-.1-1z"/><path fill="#1B4E7B" fill-opacity=".812" d="M228.2 102.75q.3.25.8.25 0-.5-.1-1-.4-2-1.9-3-.2 2.7 1.2 3.75z"/><path fill="#1868B9" d="M240.5 109H239q1 5.85 1.5 0z"/><path fill="#0866BA" d="M240 109v-1-3q5.3 2 9 .5v.5q2.2-2.75-1.3-3.4-.7-.1-2.15-.8-6-2.9-8.55 3.2v1q1.7.3 1.95 2 .05.5.05 1h1z"/><path fill="#1359A3" fill-opacity=".878" d="M233.1 108q-.1-.5-.1-1h-1v5q1.7-.8 1.1-4z"/><path fill="#0B6BCF" fill-opacity=".996" d="M236.85 107.95q-1.75 6.65-1.85.05 0-.5.05-1 .7-5.2-2.05-3v3q0 .5.1 1 .6 3.2-1.1 4 0 .5-.15.95-.8 2.35-.85-.95-.5 0-.8-.25-1.95-1.55-1.2-5.75l-1-.5q-.95 7.05-2.3 2.3-1.45-5.1-6.7 1.2 0 .5-.2.6-2.45 1.05-1.8-1.6-.5 0-.5-.1-.35-1.5-2.5-.9v5q3.45-.9 3.05 2-.05.5-.05 1t-.2.9q-.3.6-.8 1.1h-1v1q1 0 1.8.4.2.1.2.6h2v-1-2q6.8-1.5 9.05 1.05l1.7.65q.75.3 1.25 1.3 7.75-.9 14-4.5v.5h1v-1-1h2v-1q-.5 0-.55-.1-.45-1.9-.45-3.9h1v-1q.5 0 .75-.25t.25-.75v-.5q-3.7 1.5-9-.5v4h.5q-.5 5.85-1.5 0 0-.5-.05-1-.25-1.7-1.95-2v1q0 .5-.15.95z"/><path fill="#1268BD" d="M235 108q.1 6.6 1.85-.05.15-.45.15-.95-.5 0-.9.2-.6.3-1.1.8z"/><path fill="#0D3C6D" fill-opacity=".631" d="M233 104v-1-3h-1v7h1v-1-2z"/><path fill="#125FA3" fill-opacity=".984" d="M234.1 97.2q-.6.3-1.1.8v6q2.75-2.2 2.05 3-.05.5-.05 1 .5-.5 1.1-.8.4-.2.9-.2v-1-1q2.55-6.1 8.55-3.2 1.45.7 2.15.8 3.5.65 1.3 3.4 0 .5-.25.75t-.75.25v1q0 1 .4 1.8.1.2.6.2v-1q1.5-1 1.9-3 .1-.5.1-1v-1-4q-.5 0-.95-.15-4-1.4-7.05-3.85h-6q0 .5.1 1 .7 3.15-2.1 0-.5 0-.9.2z"/><path fill="#0663B5" fill-opacity=".992" d="M237 96h-2v1q2.8 3.15 2.1 0-.1-.5-.1-1z"/><path fill="#252D31" fill-opacity=".592" d="M236 95v1h5q0-.5-.1-.5-2.4-.5-4.9-.5z"/><path fill="#0D63AF" fill-opacity=".992" d="M219 96q-.5 0-.95.1-3.95.95-7.05 2.9v2q4.9.05.85 2.75-.35.25-.85.25v3q.5.5.8 1.1.2.4.2.9 1-1.5 2-2.5v.5q2.15-.6 2.5.9 0 .1.5.1v-1q1 .5 1.75 1.25.25.25.25.75 5.25-6.3 6.7-1.2 1.35 4.75 2.3-2.3l1 .5v-1-2q-.5 0-.8-.25-1.4-1.05-1.2-3.75 0-.5-.05-1-.25-1.7-1.95-2h-6m-4.75 7.65q-.25-.15-.25-.65 4.6 3.8.25.65z"/><path fill="#1B60A1" d="M214 103q0 .5.25.65 4.35 3.15-.25-.65z"/><path fill="#325167" fill-opacity=".949" d="M219 95v1h6q0-.5-.1-.5-2.9-.5-5.9-.5z"/></g><path id="q" stroke="url(#j)" stroke-width="2.5" stroke-linejoin="round" stroke-linecap="round" fill="none" d="M22-4.2q2.75-.25 5.6.95 3.8 1.6 5.55 4.9.65 1.2.9 2.4"/><path id="v" stroke="url(#k)" stroke-width="2.5" stroke-linejoin="round" stroke-linecap="round" fill="none" d="M13.1-8.85q2.75-.25 5.6.95 3.8 1.6 5.55 4.9.65 1.2.9 2.4"/><path id="x" stroke="#B9B6B6" stroke-width="1" stroke-linejoin="round" stroke-linecap="round" fill="none" d="M109.65-77.9L133.4 36.85q.498 1.56.85 3 3.912 15.763-9.1 17l-216.5 37q-23.05 6.4-23-10.75l-19-102.25q-5.95-20 7.5-21.5l208-51.5Q108-103.4 109.65-77.9z"/><path id="z" stroke="#B9B6B6" stroke-width="1" stroke-linejoin="round" stroke-linecap="round" fill="none" d="M-114.35 83.1l84-100.25q11.9-23.55 37-7.5l127.6 64.5q3.912 15.763-9.1 17l-216.5 37q-23.05 6.4-23-10.75z"/><path id="B" stroke="#B9B6B6" stroke-width="1" stroke-linejoin="round" stroke-linecap="round" fill="none" d="M106.15-82.9L16.65 25.85q-15.663 22.303-39.9 7.1l-111.1-56.6q-4.95-15.5 8.5-17l208-51.5q25.85-11.25 24 9.25z"/><path id="D" stroke="url(#l)" stroke-width="2.5" stroke-linejoin="round" stroke-linecap="round" fill="none" d="M16.575-2.8q.796.908 1.375 2 .65 1.2.9 2.4M6.8-6.65q2.75-.25 5.6.95.71.3 1.35.65"/></defs><use xlink:href="#m" transform="translate(156.3 86.5)"/><use xlink:href="#n" transform="translate(156.3 86.5)"/><use xlink:href="#o" transform="translate(156.3 86.5)"/><use xlink:href="#p" transform="translate(156.3 86.5)"/><use xlink:href="#q" transform="translate(156.3 86.5)"/><g><use xlink:href="#r" transform="translate(135.75 156.5)"/><use xlink:href="#s" transform="translate(135.75 156.5)"/><use xlink:href="#t" transform="translate(135.75 156.5)"/><g transform="translate(135.75 156.5)"><use xlink:href="#u"/><use xlink:href="#v"/></g></g><g><g transform="translate(141.35 221.15)"><use xlink:href="#w"/><use xlink:href="#x"/></g><g transform="translate(141.35 221.15)"><use xlink:href="#y"/><use xlink:href="#z"/></g><g transform="translate(141.35 221.15)"><use xlink:href="#A"/><use xlink:href="#B"/></g><use xlink:href="#C" transform="translate(141.35 221.15)"/><use xlink:href="#D" transform="translate(141.35 221.15)"/></g><g><use xlink:href="#E"/></g></svg>