<svg xmlns="http://www.w3.org/2000/svg" xmlns:xlink="http://www.w3.org/1999/xlink" preserveAspectRatio="none" width="284" height="320"><defs><g id="a"><path fill="#9FA1A7" d="M259 317h-11q4.75 1.75 11.9.5.1 0 .1-.5h-1z"/><path fill="#5D6065" d="M270 318q.73.394 1.55.6 2.97.869 7.35-.1.069 0 .1-.25V318h-9z"/><path fill="#42424A" d="M283.95 318q.05 0 .05-1-.5 0-1 .1-2 .4-4 .9v.25q2.474-.113 4.95-.25M74 317q-.5 0-.95.1-7.65 2-12.05-1.1-.5 0-.75.25Q57.8 318.8 52 318q0 .5-.05.5-10.7 1.25-18.95-.5h-1q-5.35-.15-10-1 0 .5-.05.5-4.45.5-8.95.5-.5 0-.85-.25Q7.85 314.8 3 319v1q89.5 0 179 .45 45.77.263 89.55-1.85-.82-.206-1.55-.6h-1q-5.05.05-9-1 0 .5-.1.5-7.15 1.25-11.9-.5v-.5q-3.5.5-7 1.5-.5 0-1 .05-5.25.7-8-1.05h-1q-10.15.4-21 1 0 .5-.05.5-5.95.5-11.95.5-.5 0-1 .05-4.25.65-6-1.05h-1q-5.05.05-9-1 0 .5-.1.5-7.15 1.25-11.9-.5-.5 0-.95-.1-2.3-.65-7.05 1.1-.5 0-1 .05-4.75.7-7-1.05-.5 0-.95.1-7.65 2-12.05-1.1-.5 0-.75.25-2.45 2.55-8.25 1.75 0 .5-.1.5-2.4.5-4.9.5-.5 0-1 .05-7.75.7-13-1.05h-1q-5.05.05-9-1 0 .5-.05.5-4.95.5-9.95.5-.5 0-.85-.25-3.5-2.55-9.15.25-.5 0-1 .05-4.75.7-7-1.05z"/><path fill="#505258" d="M284 304v-1-5q-.5 0-.9.2-.6.3-1.1.8v5h2z"/><path fill="#B8BAC0" d="M284 307v-1-2h-2q0 .5-.2.9-.3.6-.8 1.1-.1 1.65 2.05 1.1.45-.1.95-.1z"/><path fill="#A0A2A7" d="M181 317h-12q4.75 1.75 11.9.5.1 0 .1-.5z"/><path fill="#585B60" d="M198 319v-1h-7q1.75 1.7 6 1.05.5-.05 1-.05z"/><path fill="#64676C" d="M209.95 318.5q.05 0 .05-.5h-12v1q6 0 11.95-.5z"/><path fill="#C9CBD2" d="M240 318.05q.5-.05 1-.05 0-.5-.05-.5-4.45-.5-8.95-.5 2.75 1.75 8 1.05z"/><path fill="#CACFD8" d="M195 239v-1q0-.5.1-.95.55-2.15-1.1-2.05 0 .5.1.95.55 2.2-1.1 2.05v1h2z"/><path fill="#A9B2C3" d="M192 238h-6q1.75 1.7 6 1.05.5-.05 1-.05v-1h-1z"/><path fill="#4B5E84" d="M192 238v-1h-1q-.5 0-1-.05-4-.45-8-.95.3 1.7 3 1.5v.5h7M22 208v-1h5v-1h-1q-5.05-.05-9 1v1h5z"/><path fill="#3A4E78" d="M192 223h-1v14h1v-1-13m29-95v1h11v-1h-11M17.8 148.15Q16.45 146 16 143h-1q-.9 4.9 2.05 5.85.45.15.95.15 0-.5-.2-.85M215 88h-1q-.9 4.9 2.05 5.85.45.15.95.15 0-.5-.2-.85Q215.45 91 215 88z"/><path fill="#8F9AB2" d="M182 236q-.5 0-.85-.25-1.8-1.1-5.15-.75 3.1 2.45 8 2.95.5.05 1 .05v-.5q-2.7.2-3-1.5z"/><path fill="#5E6F91" d="M175 234h1q0-.5-.1-.5-5.9-1-10.9-2.5h-3q4 1.5 8.05 2.85.45.15.95.15h4z"/><path fill="#98A3B8" d="M176 235v-1h-5q.8 1.7 4 1.1.5-.1 1-.1M50.9 201.5q.1 0 .1-.5h-5v1q2.5 0 4.9-.5M104 207h-5q.8 1.7 4 1.1.5-.1 1-.1v-1m-59-59h-1v5h1v-1-3h1v-1h-1m200-54v-1h-2v5h1v-1-3h1z"/><path fill="#8592AC" d="M194 221v-1-1h-1v19q1.65.15 1.1-2.05-.1-.45-.1-.95v-1-6-1-6m82-8q-.5 0-.5-.1-.6-2.8-2.5-3.9.35 4.15 1.8 7.1.2.4.2.9h1v-1-3M45.85 202.55q.15-.05.15-.55h-1q-3.55-.05-6 1v1q3.75-.25 6.85-1.45z"/><path fill="#E0E2E7" d="M195.05 222q-.05-.5-.05-1h-1v7q1.7-1.8 1.05-6m66.95 6h-2q-.5 0-.5.1-.35 1.55-2.5.9v1q2.8-.2 4.8-1.35.2-.15.2-.65z"/><path fill="#A2ABBE" d="M195 216h-1v5h1v-1-4z"/><path fill="#929EB5" d="M196.1 213q-.1-.5-.1-1h-.5q.15 2.15-1.5 2v2h1q1.7-.3 1.1-3z"/><path fill="#596A8E" d="M192 220v18h1v-1-17h-1z"/><path fill="#4D5F85" d="M192 217v3h1v-1h1v-1-2-1-1-1h-1q0 .5.1 1 .6 2.7-1.1 3z"/><path fill="#2E4470" d="M192 218h-1v5h1v-1-2-1-1m2.5-11q.2 2.7-1.5 3v3h1v-1-1q.5-.5.8-1.1.2-.4.2-.9v-1-1h-.5m26.5-78v-1h-5v1h5m-120 18v1q2.5-2 4.75-4.25.25-.25.25-.75h-3v1q0 .5-.25.75-.75.75-1.75 1.25v1m-12-14q-.5 0-.9.2Q85 135 82 137q-.3 7.8 5.05 9.85.45.15.95.15 0-.5-.2-.9-.8-1.6-1.8-3.1-.5 0-.95-.1-2.8-.65-2.05-4.9.5-.5 1.1-.8.4-.2.9-.2h1v-1q2.65.65 2.5-2h.5v-1m17-63v-1q.5 0 .75-.25T107 68q-.5 0-.9.2-2.55 1.35-4.1 3.8 0 1 .4 1.8.1.2.6.2v-1h1v-1-1q1 0 1.8-.4.2-.1.2-.6m71 27v2q2.5-2 4.75-4.25.25-.25.25-.75h-3v1q0 .5-.25.75Q178 96.5 177 97m-12-13q-.5 0-.9.2Q161 86 158 88q-.3 7.8 5.05 9.85.45.15.95.15 0-.5-.2-.9-.8-1.6-1.8-3.1-.5 0-.95-.1-2.8-.65-2.05-4.9.5-.5 1.1-.8.4-.2.9-.2h1v-1q2.65.65 2.5-2h.5v-1m57.55-51.85Q222.5 32 222 32q0 .5.1 1 .6 2.7-1.1 3v2q3.25-.75 1.55-5.85z"/><path fill="#5C6D8F" d="M195 209q0 .5-.2.9-.3.6-.8 1.1v3q1.65.15 1.5-2h.5v-1-2h-1z"/><path fill="#909BB2" d="M199 204q-.5 0-.5.1-.6 2.8-2.5 3.9v4q2.05-2.95 2.9-7 .1-.5.1-1z"/><path fill="#4D6085" d="M199.1 200.2q-.6.3-1.1.8 0 .5-.15.95-.9 3-2.85 5.05v2h1v-1q1.9-1.1 2.5-3.9 0-.1.5-.1v-1-1q.5-.5.8-1.1.2-.4.2-.9-.5 0-.9.2m52.15-61.45q-.25-.25-.25-.75h-2q1 1.5 2.25 2.75.25.25.75.25v-1-1q-.5 0-.75-.25z"/><path fill="#8C98AF" d="M202 199v-1h-.5q.15 2.15-1.5 2 0 .5-.2.9-.3.6-.8 1.1v2q2.3-1.2 2.9-4 .1-.5.1-1z"/><path fill="#D3D5DC" d="M236 237q3.95.45 5.75-1.25.25-.25.25-.75-.5 0-.95.15-2.9 1-7.05.85v1h2z"/><path fill="#DCDEE4" d="M231 237v1q2.5 0 4.9-.5.1 0 .1-.5h-5z"/><path fill="#C6C8D0" d="M230 238h1v-1h-7v1h6z"/><path fill="#DFE0E6" d="M221 238v1q5 0 9.95-.5.05 0 .05-.5h-10z"/><path fill="#C8CAD1" d="M207 238h-1q5.75 1.75 14 1.05.5-.05 1-.05v-1h-14m10-107q0 .5-.25.75t-.75.25q0 .5-.25.75t-.75.25q16 5.5 26.05 16.95 3.7 4.3 5.95 10.05.6 13.6-2.85 23.05-.15.45-.15.95h3v-1q.55-6.45.75-17 .25-10-4.95-15.95Q232.9 138.6 218 132q1 0 1.8-.4.2-.1.2-.6h-3z"/><path fill="#E6E9EE" d="M205 201v-1q-.5 0-.95-.15-1.05-.35-2.05-.85 0 .5-.1 1-.6 2.8-2.9 4 0 .5-.1 1-.85 4.05-2.9 7 0 .5.1 1 .6 2.7-1.1 3v5q0 .5.05 1 .65 4.2-1.05 6v7q1.65-.1 1.1 2.05-.1.45-.1.95 4.15-.15 7.05.85.45.15.95.15 0-.5-.15-.95Q199.7 228.3 201 214q1.85-6.15 3.85-12.05.15-.45.15-.95z"/><path fill="#CFD2D9" d="M207.5 201h-.5q0 .5-.15.95-1.7 6.2-3.85 12.05-1.3 14.3 2.45 23.85.05.15.55.15 0-.5-.1-.95-1.8-7.15-1.9-16.05 3.1-11.4 3.5-20z"/><path fill="#DDDFE4" d="M207 201h-2q0 .5-.15.95-2 5.9-3.85 12.05-1.3 14.3 1.85 24.05.15.45.15.95 7.85 1.65 17.95.5.05 0 .05-.5-.5 0-1 .05-8.25.7-14-1.05-.5 0-.55-.15Q201.7 228.3 203 214q2.15-5.85 3.85-12.05.15-.45.15-.95z"/><path fill="#C5C4CB" d="M212 200h-7v1h2.5q-.4 8.6-3.5 20 .1 8.9 1.9 16.05.1.45.1.95h2q0-.5-.1-.95-1.7-7.25-1.9-16.05 1.9-11.1 5.8-20.1.2-.4.2-.9z"/><path fill="#BA595E" d="M242 199.5v-.5h-33v1h3q15 0 30-.5z"/><path fill="#494A51" d="M284 288v-1-4h-1q0 2.5.5 4.9 0 .1.5.1z"/><path fill="#C0C3CA" d="M283.5 269.95q0 .05.5.05v-1-9h-1q0 5 .5 9.95z"/><path fill="#ECEFF2" d="M246.7 275.05q11.55-1.8 17.3-11.05-7.7 7.8-20.2 9.5-41.6 5.7-48.8-34.5h-2q.3 3.3.9 7 .1.5.1 1 11.8 34.5 52.7 28.05M268 260h-2q0 .5-.25.75-.75.75-1.75 1.25v2q3.2-.3 3.9-3.05.1-.45.1-.95m8.55-36.9q-.05-.1-.55-.1 0 .5.05 1 2.1 20.25-8.05 33v1h3v-1-1q10.05-14.2 5.55-32.9z"/><path fill="#5A5C63" d="M266 258v2h2q7.75.05 3.9-1.8-.4-.2-.9-.2h-5z"/><path fill="#676A6E" d="M283 253v1h1v-1-5h-1v5z"/><path fill="#797B80" d="M283.45 258.85Q283 257.5 283 256h-1q0 2 .45 3.9.05.1.55.1h1v-1q-.5 0-.55-.15z"/><path fill="#44454C" d="M283 256q0 1.5.45 2.85.05.15.55.15v-1-4h-1v2z"/><path fill="#D5D5DB" d="M248.8 232.65q.2-.15.2-.65-.5 0-1 .1-2 .4-4 .9v1q2.8-.2 4.8-1.35z"/><path fill="#D7DAE1" d="M257 230h-1q-4.15-.15-7 1v1q4-.5 7.9-1.45.1-.05.1-.55z"/><path fill="#F8F8FA" d="M262 228q0 .5-.2.65-2 1.15-4.8 1.35 0 .5-.1.55-3.9.95-7.9 1.45 0 .5-.2.65-2 1.15-4.8 1.35 0 .5-.2.6-.8.4-1.8.4 0 .5-.25.75-1.8 1.7-5.75 1.25 0 .5-.1.5-2.4.5-4.9.5 0 .5-.05.5-4.95.5-9.95.5 0 .5-.05.5-10.1 1.15-17.95-.5-.5 0-.95-.15-2.9-1-7.05-.85v1q7.2 40.2 48.8 34.5 12.5-1.7 20.2-9.5v-1-1q1-.5 1.75-1.25.25-.25.25-.75v-1-1h2v-1q10.15-12.75 8.05-33-.05-.5-.05-1-.5 0-.85.25-1.4.95-4.15.75 0 .5-.2.6-1.8.9-3.8 1.4-.5 0-.5.1-.35 1.55-2.5.9 0 .5-.2.6-.8.4-1.8.4m-11 36q8.8-3.75 2.3 2.3-2.5 2.3-2.3-2.3m-19.75-17.05Q231 246 231 245q10.7-2.65 1.9 3.4-1.05.75-1.65-1.45z"/><path fill="#EAECF0" d="M231 245q0 1 .25 1.95.6 2.2 1.65 1.45 8.8-6.05-1.9-3.4m2.6 2.1q-1.3.6-1.6-1.1 7.05-1.4 1.6 1.1z"/><path fill="#E2E2E7" d="M232 246q.3 1.7 1.6 1.1 5.45-2.5-1.6-1.1z"/><path fill="#5C5D61" d="M253.3 266.3q6.5-6.05-2.3-2.3-.2 4.6 2.3 2.3z"/><path fill="#CFD0D7" d="M261 228h1q1 0 1.8-.4.2-.1.2-.6v-1q-.5 0-.85.25-1.2.7-3.15.75v1h1z"/><path fill="#B9565C" d="M247 198h-5v1q2.5 0 4.9-.5.1 0 .1-.5z"/><path fill="#96A1B7" d="M276.4 218.8q-.4-.8-.4-1.8h-1q-.7 3.2.75 4.3.25.2.25.7 2 0 3.9-.45.1-.05.1-.55-.5 0-.95.1-2.15.55-2.05-1.1v-1q-.5 0-.6-.2z"/><path fill="#526489" d="M277 213.3v-.3h-1v4q0 1 .4 1.8.1.2.6.2v-1-4.7M206 120v-1q3 .45 4.75 2.25.25.25.25.75 1.65-.1 1.1 2.05-.1.45-.1.95 1.7-.3 1.1-3-.1-.5-.1-1-.5 0-.6-.2-1.6-3.6-7.4-2.8 0 .5-.25.75Q203.5 120 202 121v3h1v-1-1h1q.5-.5 1.1-.8.4-.2.9-.2v-1z"/><path fill="#828FA9" d="M272 204h-1q.8 2.2 1.45 4.9.05.1.55.1v-1-2q0-.5-.2-.9-.3-.6-.8-1.1z"/><path fill="#8E99B0" d="M269.25 199.75q-.25-.25-.25-.75h-1q.55 2.95 2.25 4.75.25.25.75.25 0-.5-.25-.85-.7-1.2-.75-3.15-.5 0-.75-.25z"/><path fill="#516388" d="M272 201q-.5 0-.9-.2-.6-.3-1.1-.8.05 1.95.75 3.15.25.35.25.85h1v-1-2M90 146q-.5 0-.6-.2-.4-.8-.4-1.8-.5 0-.55-.1-.3-1.5-2.45-.9 1 1.5 1.8 3.1.2.4.2.9 2 2 4.2 3.75.3.25.8.25 0-.5-.2-.9-.3-.6-.8-1.1-.5 0-.55-.15-.5-1.8-1.45-2.85m74.5-51.1q-.35-1.5-2.5-.9 1 1.5 1.8 3.1.2.4.2.9 2 2 4.2 3.75.3.25.8.25 0-.5-.2-.9-.3-.6-.8-1.1-.5 0-.55-.15-.5-1.8-1.45-2.85-.5 0-.6-.2-.4-.8-.4-1.8-.5 0-.5-.1M214 29q0 .5-.25.75Q213 30.5 212 31v2h1q.5-.5 1.1-.8.4-.2.9-.2v-1-1q3 .45 4.75 2.25.25.25.25.75 1.65-.1 1.1 2.05-.1.45-.1.95 1.7-.3 1.1-3-.1-.5-.1-1-.5 0-.6-.2-1.6-3.6-7.4-2.8z"/><path fill="#55668A" d="M276 210q-.5 0-.5-.1-.6-2.8-2.5-3.9v3q1.9 1.1 2.5 3.9 0 .1.5.1v-1-2z"/><path fill="#334873" d="M275.5 209.9q0 .1.5.1 0-.5-.1-1-1.05-4.85-3.9-8v3q.5.5.8 1.1.2.4.2.9 1.9 1.1 2.5 3.9z"/><path fill="#354A75" d="M284 220v-1h-1q-5.842 0-6-5.7v6.7h7m-87.15-34.95Q196.5 184 196 183q0-.5-.2-.9-.3-.6-.8-1.1-.5 0-.8-.25-1.4-1.05-1.2-3.75h-2q1.75 5.25 5.25 8.75.25.25.75.25 0-.5-.15-.95z"/><path fill="#707F9D" d="M284 221v-1h-7q-.1 1.65 2.05 1.1.45-.1.95-.1h4m-134 5q0-.5-.05-1-.25-1.7-2.95-1h-2q1.1 1.9 4 2h1m57-90v-1h1v-1q2.7.7 3.4-.8.1-.2.6-.2v-1q-.5 0-1 .1-3.7.7-6 2.9v1h2M39 162v2q2.7-.3 2.95-3 .05-.5.05-1h-1v1q0 .5-.2.6-.8.4-1.8.4m202-57h-1v1q0 .5-.2.6-.8.4-1.8.4v2q2.7-.3 2.95-3 .05-.5.05-1z"/><path fill="#C8CCD4" d="M82 318q0-.5-.05-.5Q78 317 74 317q2.25 1.75 7 1.05.5-.05 1-.05z"/><path fill="#96999F" d="M101.95 317.5q.05 0 .05-.5H92v1q5 0 9.95-.5z"/><path fill="#5E6066" d="M126 319v-1h-14q5.25 1.75 13 1.05.5-.05 1-.05z"/><path fill="#6A6E72" d="M130.9 318.5q.1 0 .1-.5h-5v1q2.5 0 4.9-.5z"/><path fill="#CACCD3" d="M160 318.05q.5-.05 1-.05 0-.5-.05-.5-3.95-.5-7.95-.5 2.25 1.75 7 1.05z"/><path fill="#9A9CA2" d="M22 317h-9v1q4.5 0 8.95-.5.05 0 .05-.5z"/><path fill="#606368" d="M51.95 318.5q.05 0 .05-.5H33q8.25 1.75 18.95.5z"/><path fill="#7886A3" d="M4.05 214.15Q2 215 0 216v1q2.95-.55 4.75-2.25.25-.25.25-.75-.5 0-.95.15M34.1 135q-.1-.5-.1-1-.5 0-.9-.2-.6-.3-1.1-.8 0 .5.05 1 .1 1.65-2.05 1h-4v1h4q1.65-.1 1.5 2h.5v-1q2.65.65 2.1-2m199-55q-.1-.5-.1-1-.5 0-.9-.2-.6-.3-1.1-.8 0 .5.05 1 .1 1.65-2.05 1h-4v1h4q1.65-.1 1.5 2h.5v-1q2.65.65 2.1-2z"/><path fill="#72809E" d="M8.8 212.6q.2-.1.2-.6H8q-1.95.05-3 1v1q2-.5 3.8-1.4M258 170v3h1q1.7-.3 1.1-3-.1-.5-.1-1v-1h-1q0 .5-.2.9-.3.6-.8 1.1z"/><path fill="#8E9AB2" d="M15 209v1q2.2-.8 4.9-1.45.1-.05.1-.55h-3q-.5 0-.9.2-.6.3-1.1.8z"/><path fill="#8895AE" d="M14 210q-.5 0-1-.05-2.7-.15-4 1.05v1q2.2-.8 4.9-1.45.1-.05.1-.55z"/><path fill="#A5AFC0" d="M22 207v1q3 0 5.9-.5.1 0 .1-.5h-6z"/><path fill="#8B97AF" d="M31.9 206.55q.1-.05.1-.55h-5v1h1q2 0 3.9-.45z"/><path fill="#8C99B0" d="M38.9 204.5q.1 0 .1-.5h-1q-3.55-.05-6 1v1q3.25-.75 6.9-1.5z"/><path fill="#9CA7BB" d="M82 200H52v1h30v-1z"/><path fill="#445880" d="M82 200q0-.5-.05-.5-19.05-1.1-35.95.5v1h6v-1h30z"/><path fill="#7483A0" d="M89 203q0-.5-.25-.8-1.55-1.95-5.75-1.2 1.8 1.7 5 1.95.5.05 1 .05m29 9.95q.5.05 1 .05 0-.5-.25-.8-1.55-1.95-5.75-1.2 1.8 1.7 5 1.95z"/><path fill="#818EA9" d="M96 205h-1q1 1.5 3 1.9.5.1 1 .1 0-.5-.2-.9-.3-.6-.8-1.1h-2z"/><path fill="#3C5079" d="M93 203q.5.5.8 1.1.2.4.2.9h3q0-.5-.2-.6-1.8-.9-3.8-1.4m52 21h2q0-.5-.2-.6-1.8-.9-3.8-1.4.5.5.8 1.1.2.4.2.9h1m13 4q0-.5-.2-.6-1.8-.9-3.8-1.4.5.5.8 1.1.2.4.2.9h3z"/><path fill="#808EA8" d="M93 203h-3q1 1.5 3 1.9.5.1 1 .1 0-.5-.2-.9-.3-.6-.8-1.1m61 23h-3q1 1.5 3 1.9.5.1 1 .1 0-.5-.2-.9-.3-.6-.8-1.1m-30-12q-.5 0-.6-.2-.7-1.5-3.4-.8 1 1.5 3 1.9.5.1 1 .1v-1z"/><path fill="#6E7D9A" d="M111 211.05q.5-.05 1-.05 0-.5-.15-.95-.65-1.75-3.85-1.05.3 2.2 3 2.05m23 9q.5-.05 1-.05 0-.5-.15-.95-.65-1.75-3.85-1.05.3 2.2 3 2.05z"/><path fill="#5A6B8E" d="M107.75 208.2q-1.05-1.4-3.75-1.2v1q1.05.95 3 1h1q0-.5-.25-.8M261 158h-1v11h1v-1-10m-8-15v1q0 .5.25.75t.75.25q.5.5 1.1.8.4.2.9.2v-1-1q-.5 0-.6-.2-.7-1.5-2.4-1.8v1M32 129q0 .5-.25.75T31 130v1q0 .5.1.95.55 2.2-1.1 2.05v1q2.15.65 2.05-1-.05-.5-.05-1v-1q0-.5.25-.65Q34.35 130 32 129m73.8-58.4q-.8.4-1.8.4v2q0 1 .4 1.8.1.2.6.2v-1-1-1q1 0 1.8-.4.2-.1.2-.6v-1h-1q0 .5-.2.6M231 77q0-.5.25-.65Q233.35 75 231 74q0 .5-.25.75T230 75v1q0 .5.1.95.55 2.2-1.1 2.05v1q2.15.65 2.05-1-.05-.5-.05-1v-1z"/><path fill="#3F537B" d="M104 207q0-.5-.05-.5-3.5-.5-5.95-1.5.5.5.8 1.1.2.4.2.9h5m-72.9-75.05q-.1-.45-.1-.95-.5 0-.5.05-.25 3.2-3.5 2.95v1h3v-1q1.65.15 1.1-2.05M111 68v-1-1h-1q-1.95.05-3 1v1q0 .5-.25.75T106 69v1h1q.5 0 .75-.25T108 69v-1h3m119 8q-.5 0-.5.05-.25 3.2-3.5 2.95v1h3v-1q1.65.15 1.1-2.05-.1-.45-.1-.95z"/><path fill="#3D517B" d="M160.8 230.1q.2.4.2.9h4q0-.5-.1-.55-2.7-.65-4.9-1.45.5.5.8 1.1z"/><path fill="#8692AB" d="M159.1 228.8q-.6-.3-1.1-.8h-2q1.75 1.75 4.1 2.8.4.2.9.2 0-.5-.2-.9-.3-.6-.8-1.1-.5 0-.9-.2M204 136h-1q0 .5-.25.75Q199.5 140 196 143v2q4.15-2.85 7.3-6.75.2-.25.7-.25v-1q.5 0 .75-.25t.25-.75h-1z"/><path fill="#E5E7ED" d="M128 216q-.5 0-.85-.25-1.2-.7-3.15-.75-.5 0-1-.1-2-.4-3-1.9h-1q-.5 0-1-.05-3.2-.25-5-1.95h-1q-.5 0-1 .05-2.7.15-3-2.05h-1q-1.95-.05-3-1-.5 0-1 .1-3.2.6-4-1.1-.5 0-1-.1-2-.4-3-1.9h-1q-.5 0-1-.1-2-.4-3-1.9h-1q-.5 0-1-.05-3.2-.25-5-1.95H51q0 .5-.1.5-2.4.5-4.9.5 0 .5-.15.55-3.1 1.2-6.85 1.45 0 .5-.1.5-3.65.75-6.9 1.5 0 .5-.1.55-1.9.45-3.9.45 0 .5-.1.5-2.9.5-5.9.5h-2q0 .5-.1.55-2.7.65-4.9 1.45h-1q0 .5-.1.55-2.7.65-4.9 1.45 0 .5-.2.6-1.8.9-3.8 1.4 0 .5-.25.75-1.8 1.7-4.75 2.25 0 51.5 1.5 103H3v-1q4.85-4.2 9.15-1.25.35.25.85.25v-1h9q4.65.85 10 1h20q5.8.8 8.25-1.75.25-.25.75-.25 4.4 3.1 12.05 1.1.45-.1.95-.1 4 0 7.95.5.05 0 .05.5 5.65-2.8 9.15-.25.35.25.85.25v-1h10q3.95 1.05 9 1h20q5.8.8 8.25-1.75.25-.25.75-.25 4.4 3.1 12.05 1.1.45-.1.95-.1 4 0 7.95.5.05 0 .05.5 4.75-1.75 7.05-1.1.45.1.95.1h12q3.95 1.05 9 1h20q10.85-.6 21-1h1q4.5 0 8.95.5.05 0 .05.5 3.5-1 7-1.5v.5h12q3.95 1.05 9 1h10q2-.5 4-.9.5-.1 1-.1v-1-9q-.5 0-.95.1-2.15.55-2.05-1.1.5-.5.8-1.1.2-.4.2-.9v-1-4q.5-.5 1.1-.8.4-.2.9-.2v-1-9q-.5 0-.5-.1-.5-2.4-.5-4.9h1v-1-12q-.5 0-.5-.05-.5-4.95-.5-9.95-.5 0-.55-.1-.45-1.9-.45-3.9h1v-1-1-1-5h1v-1-26h-4q0 .5-.1.55-1.9.45-3.9.45v1q.5 0 .55.1 4.5 18.7-5.55 32.9v2q.5 0 .9.2 3.85 1.85-3.9 1.8 0 .5-.1.95-.7 2.75-3.9 3.05-5.75 9.25-17.3 11.05Q205.8 281.5 194 247q0-.5-.1-1-.6-3.7-.9-7-.5 0-1 .05-4.25.65-6-1.05h-1q-.5 0-1-.05-4.9-.5-8-2.95-.5 0-1 .1-3.2.6-4-1.1-.5 0-.95-.15Q166 232.5 162 231h-1q-.5 0-.9-.2-2.35-1.05-4.1-2.8h-1q-.5 0-1-.1-2-.4-3-1.9h-2q-2.9-.1-4-2h-1q-.5 0-.95-.15-4-1.4-7.05-3.85h-1q-.5 0-1 .05-2.7.15-3-2.05-.5 0-.6-.2-.7-1.5-2.4-1.8m-19.95 42.5q-.05 0-.05-.5 11.8 1.95.05.5m-6 29.5Q98 292.2 96 289q6.05-4.3 7-2l-.95 1m-6.8-21.75Q92.8 268.6 93 264q8.65-3.9 2.25 2.25M131 248.5v-.5q6.95-4.25 0 .5m-101.95 10q-.05 0-.05-.5 11.8 1.95.05.5M13 265h1v-1q7.7-4.5 2.7 1.75-.2.25-.7.25 0 .5-.25.7-3.45 2.55-2.75-1.7m11 22l-1.1 1q-4.25 3.9-5.9 1 6.05-4.3 7-2m28-39.5v-.5q6.7-1.5 0 .5M255 288q6.9-2.95 7-1l-1.05 1q-3.85 3.75-5.95 0m-67.95-29.5q-.05 0-.05-.5 13.2 1.75.05.5m-4.65 29q-5.15 4.05-7.4 1.5 6.3-4.05 8-2l-.6.5m-8.1-21.2q-2.5 2.3-2.3-2.3 8.8-3.75 2.3 2.3z"/><path fill="#4C4C54" d="M172 264q-.2 4.6 2.3 2.3 6.5-6.05-2.3-2.3z"/><path fill="#74767B" d="M175 289q2.25 2.55 7.4-1.5l.6-.5q-1.7-2.05-8 2z"/><path fill="#53545B" d="M187 258q0 .5.05.5 13.15 1.25-.05-.5z"/><path fill="#686A6F" d="M262 287q-.1-1.95-7 1 2.1 3.75 5.95 0l1.05-1z"/><path fill="#7A7C82" d="M52 247v.5q6.7-2 0-.5z"/><path fill="#66686D" d="M22.9 288l1.1-1q-.95-2.3-7 2 1.65 2.9 5.9-1z"/><path fill="#8F9297" d="M15.1 265.8q-.6-.3-1.1-.8h-1q-.7 4.25 2.75 1.7.25-.2.25-.7-.5 0-.9-.2z"/><path fill="#46474E" d="M14 265q.5.5 1.1.8.4.2.9.2t.7-.25q5-6.25-2.7-1.75v1z"/><path fill="#55565C" d="M29 258q0 .5.05.5 11.75 1.45-.05-.5z"/><path fill="#6A6A70" d="M131 248v.5q6.95-4.75 0-.5z"/><path fill="#4D4E55" d="M93 264q-.2 4.6 2.25 2.25 6.4-6.15-2.25-2.25z"/><path fill="#696B71" d="M96 289q2 3.2 6.05-1l.95-1q-.95-2.3-7 2z"/><path fill="#505158" d="M108 258q0 .5.05.5 11.75 1.45-.05-.5z"/><path fill="#4E6086" d="M128 216q0-.5-.25-.8-1.05-1.4-3.75-1.2v1q1.95.05 3.15.75.35.25.85.25z"/><path fill="#7F8CA7" d="M143 222q-.5 0-.85-.25-2.35-1.55-6.15-1.75 3.05 2.45 7.05 3.85.45.15.95.15 0-.5-.2-.9-.3-.6-.8-1.1z"/><path fill="#73829F" d="M266 194q-.5 0-.75-.25T265 193h-2q2.35 2.65 4.35 5.75.15.25.65.25h1q0-.5-.2-.85-1.3-2.15-2.8-4.15M44.75 157.25Q44.5 157 44 157h-3v1q.5.5.8 1.1.2.4.2.9h1v-1-1h2q0-.5-.25-.75M242 105v-1-1h2q0-.5-.25-.75T243 102h-3v1q.5.5.8 1.1.2.4.2.9h1z"/><path fill="#364B75" d="M267 194h-1q1.5 2 2.8 4.15.2.35.2.85t.25.75q.25.25.75.25.5.5 1.1.8.4.2.9.2 0-.5-.2-.9-1.6-3.8-4.8-6.1m-6-24v-1h-1q0 .5.1 1 .6 2.7-1.1 3 0 .5-.05 1-.6 3.85-2.95 6v1h1q3.05-3.45 3.9-9 .1-.5.1-1v-1z"/><path fill="#E77E83" d="M255 187h-1v7q1.7-1.8 1.05-6-.05-.5-.05-1z"/><path fill="#E8EBEF" d="M258 189h-2q12 15 14.95 34 .05.5.05 1 2.75.2 4.15-.75.35-.25.85-.25v-1q0-.5-.25-.7-1.45-1.1-.75-4.3 0-.5-.2-.9-1.45-2.95-1.8-7.1-.5 0-.55-.1-.65-2.7-1.45-4.9-.5 0-.75-.25-1.7-1.8-2.25-4.75-.5 0-.65-.25-2-3.1-4.35-5.75-.5 0-.65-.25-1.7-2.4-4.35-3.75z"/><path fill="#E4E6EC" d="M257 189h1q0-.5-.15-.55-1.8-.5-2.85-1.45 0 .5.05 1 .65 4.2-1.05 6v1q12.15 11.85 13 30v1q2-.5 3.8-1.4.2-.1.2-.6t-.05-1Q268 204 256 189h1z"/><path fill="#B8BABF" d="M251 197q-.5 0-.85.25-1.2.7-3.15.75 0 .5-.1.5-2.4.5-4.9.5v.5q-15 .5-30 .5 0 .5-.2.9-3.9 9-5.8 20.1.2 8.8 1.9 16.05.1.45.1.95h16v-1h10v-1q4.15.15 7.05-.85.45-.15.95-.15 1 0 1.8-.4.2-.1.2-.6v-1q2-.5 4-.9.5-.1 1-.1v-1q2.85-1.15 7-1h1v-1q2.15.65 2.5-.9 0-.1.5-.1v-1q1.95-.05 3.15-.75.35-.25.85-.25 0-.5-.1-1-3.15-17.25-12.9-28m-21 14h2v-1q3.2-.7 3.85 1.05.15.45.15.95 0 .5.05 1 .65 4.2-4.05 3-.5 0-.85-.2-1.85-1.1-1.15-4.8m6 16q0 .5.05 1 .65 4.2-4.05 3-.5 0-.85-.2-1.85-1.1-1.15-4.8h2v-1q3.2-.7 3.85 1.05.15.45.15.95z"/><path fill="#828388" d="M232 226h-2q-.7 3.7 1.15 4.8.35.2.85.2 0-.5-.2-.6-1.5-.7-.8-3.4.5 0 .75-.25t.25-.75m3.4.8q.1.2.6.2 0-.5-.15-.95-.65-1.75-3.85-1.05v1q2.7-.7 3.4.8m0-15q.1.2.6.2 0-.5-.15-.95-.65-1.75-3.85-1.05v1q2.7-.7 3.4.8M232 216q0-.5-.2-.6-1.5-.7-.8-3.4.5 0 .75-.25t.25-.75h-2q-.7 3.7 1.15 4.8.35.2.85.2m2-37h-2q-.7 3.7 1.15 4.8.35.2.85.2 0-.5-.2-.6-1.5-.7-.8-3.4.5 0 .75-.25t.25-.75m-12 1v1q2.35-2.1 4.25-.25.25.25.75.25 0-.5-.2-.85-1.1-1.85-4.8-1.15v1m-9-23q0-.5-.15-.95-.65-1.75-3.85-1.05v1q2.7-.7 3.4.8.1.2.6.2z"/><path fill="#090C11" d="M236.05 228q-.05-.5-.05-1-.5 0-.6-.2-.7-1.5-3.4-.8 0 .5-.25.75t-.75.25q-.7 2.7.8 3.4.2.1.2.6 4.7 1.2 4.05-3m-4.25-12.6q.2.1.2.6 4.7 1.2 4.05-3-.05-.5-.05-1-.5 0-.6-.2-.7-1.5-3.4-.8 0 .5-.25.75t-.75.25q-.7 2.7.8 3.4M216.05 177q-.05-.5-.05-1-.5 0-.6-.2-.7-1.5-3.4-.8 0 .5-.25.75t-.75.25q-.7 2.7.8 3.4.2.1.2.6 4.7 1.2 4.05-3m17.7 2.75q-.25.25-.75.25-.7 2.7.8 3.4.2.1.2.6 4.7 1.2 4.05-3-.05-.5-.05-1-.5 0-.6-.2-.7-1.5-3.4-.8 0 .5-.25.75M227 181q-.5 0-.75-.25-1.9-1.85-4.25.25-.7 2.7.8 3.4.2.1.2.6 4.7 1.2 4.05-3-.05-.5-.05-1m-13.95-23q-.05-.5-.05-1-.5 0-.6-.2-.7-1.5-3.4-.8 0 .5-.25.75t-.75.25q-.7 2.7.8 3.4.2.1.2.6 4.7 1.2 4.05-3m29.35 13.8q-.7-1.5-3.4-.8 0 .5-.25.75t-.75.25q-.7 2.7.8 3.4.2.1.2.6 4.7 1.2 4.05-3-.05-.5-.05-1-.5 0-.6-.2m-6.65-17.05q-.25.25-.75.25-.7 2.7.8 3.4.2.1.2.6 4.7 1.2 4.05-3-.05-.5-.05-1-.5 0-.6-.2-.7-1.5-3.4-.8 0 .5-.25.75z"/><path fill="#C9C9D0" d="M251 196v1q9.75 10.75 12.9 28 .1.5.1 1h.5q-.7-17.3-11.5-30h-2z"/><path fill="#D6D8DF" d="M253 195v1q10.8 12.7 11.5 30h-.5v1q2.15.65 2.5-.9 0-.1.5-.1v-1q-.85-18.15-13-30h-1z"/><path fill="#DF0C10" d="M246.75 184.75q-.25.25-.75.25 1.1 6.45 4.75 10.25.25.25.25.75h2v-1h1v-1-1-6q0-.5-.25-.85Q252 183.5 247 184q0 .5-.25.75z"/><path fill="#6E7D9C" d="M256 185h-1v2q1.05.95 2.85 1.45.15.05.15.55 2.65 1.35 4.35 3.75.15.25.65.25h2q0-.5-.25-.7-4.4-3.65-8.75-7.3z"/><path fill="#344974" d="M258 185h-2q4.35 3.65 8.75 7.3.25.2.25.7 0 .5.25.75t.75.25h1q0-.5-.25-.85-3.45-4.95-8.75-8.15m3-28v14q.5 0 .5-.05 1.25-9.2-.5-15.95v2m-5-12v1q1.95 2.55 2.9 6.05.1.45.1.95.5.5 1.1.8.4.2.9.2 0-.5-.1-1-1.3-5.6-4.9-9v1m-66.2 25.1q-.3-.6-.8-1.1h-1q.8 2.2 1.45 4.9.05.1.55.1v-1-2q0-.5-.2-.9m44.25-40q.45-.1.95-.1h2q0-.5-.1-.55-2.7-.65-4.9-1.45v1q-.1 1.65 2.05 1.1M111 67v1q2.15.85 2.85 3.05.15.45.15.95 0 .5.1 1 .6 2.7-1.1 3v1h-1q0 .5-.25.75-2.1 2.35-3.75.25v-1q-.5 0-1-.05-1.7-.25-2-1.95-.5 0-.6-.2-.4-.8-.4-1.8h-1v1q1.7 8.55 9.85 5.55.15-.05.15-.55.5 0 .65-.25Q118.8 70.7 111 66v1z"/><path fill="#B69DAB" d="M254 181q-.5 0-.55.15-.9 2.4-4.45 1.85h-2v1q5-.5 6.75 2.15.25.35.25.85h1v-1-1q-.5 0-.55-.1-.45-1.9-.45-3.9z"/><path fill="#6B7A9A" d="M254 180v1q0 2 .45 3.9.05.1.55.1v-1-4h-1z"/><path fill="#475A81" d="M256 181v-1h-1v5h1v-1-3M22 149h-4v1q4.9-.4 6.4 2.8.1.2.6.2 0-.5.1-1 .55-2.65-2.1-2-.5 0-.75-.25T22 149m195-55v1q4.9-.4 6.4 2.8.1.2.6.2 0-.5.1-1 .55-2.65-2.1-2-.5 0-.75-.25T221 94h-4z"/><path fill="#2A416E" d="M257 181h-1v4h2q0-.5-.2-.6-1.5-.7-.8-3.4z"/><path fill="#627394" d="M259 173h-1q0 .5-.1 1-.4 2-1.9 3 0 .5-.25.75t-.75.25v2h1q2.35-2.15 2.95-6 .05-.5.05-1z"/><path fill="#AEB6C5" d="M258 172h-.5q.15 2.15-1.5 2v3q1.5-1 1.9-3 .1-.5.1-1v-1z"/><path fill="#8491AB" d="M260 158q0-.5-.1-1-.4-2-.9-4h-1q1.4 6.1 1 14v1h1v-1-9m-68-5h-.5q.15 2.15-1.5 2v4h1v-1-1h1v-1-1-2M88.85 137.55q.15-.05.15-.55h-4v2h1v-1q1.5 0 2.85-.45M109 71v-1q1 .5 2.05.85.45.15.95.15 0-.5-.25-.8-1.05-1.4-3.75-1.2 0 .5-.25.75T107 70v1h2m53 18q1.5 0 2.85-.45.15-.05.15-.55h-4v2h1v-1z"/><path fill="#485B82" d="M260.1 153.8q-.6-.3-1.1-.8.5 2 .9 4 .1.5.1 1h1v-1-2-1q-.5 0-.9-.2M236 130h-1v1q1.95.05 3.15.75.35.25.85.25 0-.5-.2-.9-.3-.6-.8-1.1h-2z"/><path fill="#7886A2" d="M256 146q-.5 0-.9-.2-.6-.3-1.1-.8 1.85 3.65 3.45 7.85.05.15.55.15h1q0-.5-.1-.95-.95-3.5-2.9-6.05z"/><path fill="#8995AE" d="M253 142q0-.5-.25-.75T252 141t-.75-.25Q250 139.5 249 138h-2q2.5 3 5.25 5.75.25.25.75.25v-1-1M95 132q.5.5 1.1.8.4.2.9.2 0-.5-.25-.85Q96 131 95 130q-.5 0-.5.1-.35 1.55-2.5.9v2h1v-1h2m78-48q0-.5-.25-.85Q172 82 171 81q-.5 0-.5.1-.35 1.55-2.5.9v2h1v-1h2q.5.5 1.1.8.4.2.9.2z"/><path fill="#2F4571" d="M252.75 141.25q.25.25.25.75 1.7.3 2.4 1.8.1.2.6.2 0-.5-.2-.9-1.15-2.75-3.8-4.1v2q.5 0 .75.25M25 154v-1q-.5 0-.6-.2-1.5-3.2-6.4-2.8 8.15 5.35 12.4 14.8.1.2.6.2v-1-1h-.5q0-7-5.5-8v-1m7-28q-.5 0-.65.25-4.44 7.103-11.25 11.75 4.905.96 5.4-2.95 0-.05.5-.05h1v-1q3.25.25 3.5-2.95 0-.05.5-.05v-1q.5 0 .75-.25T32 129v-1-1-1m-14 16v-2.65q-1.456.881-3 1.65v2h3v-1m2-3v-.9q-.688.456-1.4.9H20m204-41q-.5 0-.6-.2-1.5-3.2-6.4-2.8 8.15 5.35 12.4 14.8.1.2.6.2v-1-1h-.5q-.05-7-5.5-8v-1-1m-6-14h1v-.9q-.688.456-1.4.9h.4m-1 .35q-1.456.881-3 1.65v2h3v-1-2.65M231 74v-1-1-1q-.5 0-.65.25-4.44 7.103-11.25 11.75 4.905.96 5.4-2.95 0-.05.5-.05h1v-1q3.25.25 3.5-2.95 0-.05.5-.05v-1q.5 0 .75-.25T231 74z"/><path fill="#6F7D9C" d="M244 135h-1q1.8 1.2 3.25 2.75.25.25.75.25h2q0-.5-.25-.7Q247 136 245 135h-1z"/><path fill="#314672" d="M244.8 134.1q.2.4.2.9 2 1 3.75 2.3.25.2.25.7h2q0-.5-.25-.75Q248 134.5 244 133q.5.5.8 1.1z"/><path fill="#C2676C" d="M240 185v1q2.8-.2 5.05-.85.45-.15.95-.15.5 0 .75-.25t.25-.75h-3q-.5 0-.85.25-1.2.7-3.15.75z"/><path fill="#B85358" d="M231 187v1q3 0 5.9-.5.1 0 .1-.5h-6z"/><path fill="#B84E52" d="M229 188h-5v1q2.5 0 4.9-.5.1 0 .1-.5z"/><path fill="#BA060A" d="M222 189q0 .5-.05.5-3.45.5-6.95.5v1q0 4-2 6v2h29v-1h5q1.95-.05 3.15-.75.35-.25.85-.25v-1q0-.5-.25-.75-3.65-3.8-4.75-10.25-.5 0-.95.15-2.25.65-5.05.85-.5 0-.5.1-.35 1.55-2.5.9 0 .5-.1.5-2.9.5-5.9.5h-2q0 .5-.1.5-2.4.5-4.9.5h-2z"/><path fill="#BC4D52" d="M221.95 189.5q.05 0 .05-.5h-8v1h1q3.5 0 6.95-.5z"/><path fill="#C6A5B2" d="M203.25 197.75q-.25-.25-.25-.75h-1v2q1 .5 2.05.85.45.15.95.15 0-.5-.2-.9-.3-.6-.8-1.1-.5 0-.75-.25z"/><path fill="#BD737E" d="M205 190h-2v7q0 .5.25.75t.75.25v-1-6q.5 0 .75-.25t.25-.75z"/><path fill="#D1060A" d="M209 190v1q0 4-2 6v3h2v-1h4v-1-1q2-2 2-6v-1h-6z"/><path fill="#E6060A" d="M209 191v-1h-4q0 .5-.25.75t-.75.25v7q.5.5.8 1.1.2.4.2.9h2v-1-2q2-2 2-6z"/><path fill="#D65257" d="M212 189h-7v1h9v-1h-2z"/><path fill="#87898E" d="M211.75 175.75q.25-.25.25-.75h-2v4q0 .5.25.75t.75.25h1q0-.5-.2-.6-1.5-.7-.8-3.4.5 0 .75-.25z"/><path fill="#83858A" d="M215.4 175.8q.1.2.6.2 0-.5-.15-.95-.65-1.75-3.85-1.05v1q2.7-.7 3.4.8z"/><path fill="#71809E" d="M202 196v1h1v-1-6q0-.5-.25-.75T202 189v7z"/><path fill="#2D4370" d="M200 197q.5 0 .55-.1 1.2-5.15-.55-7.9v8m5-80v1q5.8-.8 7.4 2.8.1.2.6.2 0-.5-.15-.95Q211.5 116 205 117m9-88q-.5 0-.9.2-2.55 1.35-4.1 3.8.5 2 1.4 3.8.1.2.6.2v-1-4h1v-1q1-.5 1.75-1.25.25-.25.25-.75m0-1v1q5.8-.8 7.4 2.8.1.2.6.2 0-.5-.15-.95Q220.5 27 214 28m-9.25 90.75q.25-.25.25-.75-.5 0-.9.2-2.55 1.35-4.1 3.8.5 2 1.4 3.8.1.2.6.2v-1-1-1-2q1.5-1 2.75-2.25z"/><path fill="#304571" d="M200 197h-.5q.15 2.15-1.5 2v2q.5-.5 1.1-.8.4-.2.9-.2v-1-2m-99-49q-.5 0-.9.2-1.6.8-3.1 1.8 0 .5-.25.75-2.1 2.35-3.75.25-.5 0-.8-.25Q90 149 88 147q4.8 11.7 12.75 1.8.25-.3.25-.8m-55.2-13.6q.2.1.2.6 2.65-.65 2.1 2-.1.5-.1 1h1q2 .5 2.8 2.1.2.4.2.9.5 0 .75.25t.25.75q1.5 1 2.4 2.8.1.2.6.2h1q0-.5-.25-.8-7.2-8.25-13.75-17.2-.8 5.8 2.8 7.4M177 99q-.5 0-.9.2-1.6.8-3.1 1.8 0 .5-.25.75-2.1 2.35-3.75.25-.5 0-.8-.25Q166 100 164 98q4.8 11.7 12.75 1.8.25-.3.25-.8m67.8-19.6q.2.1.2.6 2.65-.65 2.1 2-.1.5-.1 1h1q2 .5 2.8 2.1.2.4.2.9.5 0 .75.25t.25.75q1.5 1 2.4 2.8.1.2.6.2h1q0-.5-.25-.8-7.2-8.25-13.75-17.2-.8 5.8 2.8 7.4z"/><path fill="#96A2B8" d="M202 187q0-.5-.25-.75Q200 184.5 198 183q.25 3.2 3.05 3.9.45.1.95.1z"/><path fill="#A1A8BA" d="M202 188v1q.5 0 .75.25t.25.75h2v-1q-.5 0-.75-.25T204 188q-.5 0-.9-.2-.6-.3-1.1-.8v1z"/><path fill="#8593AC" d="M196 183h2q0-.5-.25-.75-1.55-1.45-2.75-3.25v2q.5.5.8 1.1.2.4.2.9z"/><path fill="#506287" d="M196 183q.5 1 .85 2.05.15.45.15.95 1.5 1 2.75 2.25.25.25.25.75 1.75 2.75.55 7.9-.05.1-.55.1v3q1.65.15 1.5-2h.5v-1-1-7-1-1q-.5 0-.95-.1-2.8-.7-3.05-3.9h-2M111 68h-3v1q2.7-.2 3.75 1.2.25.3.25.8.5 0 .75.25t.25.75h1q0-.5-.15-.95-.7-2.2-2.85-3.05z"/><path fill="#677797" d="M194 177h-1q-.2 2.7 1.2 3.75.3.25.8.25v-1-1q0-.5-.2-.9-.3-.6-.8-1.1M26.8 152.9q.2-.4.2-.9-.5 0-.75-.25T26 151v-1q0-.5-.2-.6-.8-.4-1.8-.4h-1v1q2.65-.65 2.1 2-.1.5-.1 1v2h1v-1q.5-.5.8-1.1M222 94v1q2.65-.65 2.1 2-.1.5-.1 1v2h1v-1q.5-.5.8-1.1.2-.4.2-.9-.5 0-.75-.25T225 96v-1q0-.5-.2-.6-.8-.4-1.8-.4h-1z"/><path fill="#4C5E84" d="M190 171v3q.5 1 .85 2.05.15.45.15.95h2q0-.5-.25-.7-2-1.6-1.75-5.3h-1M84.1 137.2q-.6.3-1.1.8-.75 4.25 2.05 4.9.45.1.95.1 0-.5-.15-.55Q83.8 141.7 84 139h1v-1-1q-.5 0-.9.2M161 90v-1-1q-.5 0-.9.2-.6.3-1.1.8-.75 4.25 2.05 4.9.45.1.95.1 0-.5-.15-.55Q159.8 92.7 160 90h1z"/><path fill="#8B97AE" d="M192 170h-1v1q-.25 3.7 1.75 5.3.25.2.25.7h1q0-.5-.25-.85-1.55-2.35-1.75-6.15z"/><path fill="#8B97B0" d="M191 159h-1q0 4.5.5 8.95 0 .05.5.05v-1-8z"/><path fill="#5F6F91" d="M190 159v-1h-1v11q.5.5.8 1.1.2.4.2.9h1v-1-1-1q-.5 0-.5-.05-.5-4.45-.5-8.95z"/><path fill="#364A75" d="M189 157v-2h-1v14h1v-1-10-1z"/><path fill="#DBDEE5" d="M192 157h-1v13h1v-1-12z"/><path fill="#EAEDF0" d="M192 156v14q.2 3.8 1.75 6.15.25.35.25.85.5.5.8 1.1.2.4.2.9 1.2 1.8 2.75 3.25.25.25.25.75 2 1.5 3.75 3.25.25.25.25.75.5.5 1.1.8.4.2.9.2.5-.5.4-.65-6.45-10.3-8.6-24.45-1.05-6.95-3.8-6.9z"/><path fill="#4A5D83" d="M193 147q-.5 0-.55.15-1.4 3.9-3.45 6.85v4h1v-1-2q1.65.15 1.5-2h.5v-1-2q1.65.15 1.1-2.05-.1-.45-.1-.95z"/><path fill="#8793AB" d="M196 145q-.5 0-.6.2-.7 1.5-2.4 1.8 0 .5.1.95.55 2.2-1.1 2.05v3q2.1-3.4 3.8-7.1.2-.4.2-.9z"/><path fill="#4B5D84" d="M196 143q-.5 0-.6.2-.7 1.5-2.4 1.8v2q1.7-.3 2.4-1.8.1-.2.6-.2v-1-1M43 158v2q1.3-1.2 3.95-1.5.05 0 .05-.5h-4m199-54v1q1.3-1.2 3.95-1.5.05 0 .05-.5h-4v1z"/><path fill="#E5E7EC" d="M242.1 134.8q-3.75-2.15-9.1-2.8h-6q3.4 3.1 7.8 5.4.2.1.2.6 20.7 12.9 14.1 44-.1.5-.1 1 3.55.55 4.45-1.85.05-.15.55-.15v-1h1v-1-1q.5 0 .75-.25t.25-.75v-1-2q1.65.15 1.5-2h.5v-1-1q.5-.5.8-1.1.2-.4.2-.9v-1q.4-7.9-1-14-.5 0-.55-.15-1.6-4.2-3.45-7.85-.5 0-.75-.25T253 144q-.5 0-.75-.25Q249.5 141 247 138q-.5 0-.75-.25-1.45-1.55-3.25-2.75-.5 0-.9-.2z"/><path fill="#324773" d="M238.8 131.1q.2.4.2.9 2 .5 4 .9.5.1 1 .1 0-.5-.2-.6-2.8-1.4-5.8-2.4.5.5.8 1.1z"/><path fill="#DBDDE3" d="M233 132v-1h-10q4.25 4.75 11.05 6.85.45.15.95.15 0-.5-.2-.6-4.4-2.3-7.8-5.4h6z"/><path fill="#72819F" d="M234 131h-1v1q5.35.65 9.1 2.8.4.2.9.2h2q0-.5-.2-.9-.3-.6-.8-1.1-.5 0-1-.1-2-.4-4-.9-.5 0-.85-.25-1.2-.7-3.15-.75h-1M47 151h-1v7h1v-1-1-4h1v-1h-1m-21-14q0 .5-.25.8-1.4 1.55-4.75 1.2v1h1q1 0 1.8.4.2.1.2.6 2.65.65 2.5-2h.5q0-.5-.2-.9-.3-.6-.8-1.1m194-53v1h1q1 0 1.8.4.2.1.2.6 2.65.65 2.5-2h.5q0-.5-.2-.9-.3-.6-.8-1.1 0 .5-.25.8-1.4 1.55-4.75 1.2m25 12v7h1v-1-1-4h1v-1h-2z"/><path fill="#495B82" d="M202.75 136.75q.25-.25.25-.75h-2q0 .5-.25.75Q198.5 139 196 141v2q3.5-3 6.75-6.25z"/><path fill="#E1E3E9" d="M204.5 138h-.5q-.5 0-.7.25-3.15 3.9-7.3 6.75 0 .5-.2.9-1.7 3.7-3.8 7.1v3q2.75-.05 3.8 6.9 2.15 14.15 8.6 24.45.1.15-.4.65 0 .5.25.75t.75.25h5q0-.5-.25-.85-8.1-12.3-9.75-36.15 3.1-6.4 4.5-14z"/><path fill="#CED1D8" d="M207 136h-2q0 .5-.25.75t-.75.25v1h.5q-1.4 7.6-4.5 14 1.65 23.85 9.75 36.15.25.35.25.85h2q0-.5.25-.75 2.8-3-1.25-8.25-.5 0-.75-.25T210 179q-.5 0-.75-.25T209 178q-.5 0-.7-.25-7.45-8.6-6.3-25.75 4.75-8.75 5.5-16h-.5z"/><path fill="#C4C6CD" d="M207 135v1h.5q-.75 7.25-5.5 16-1.15 17.15 6.3 25.75.2.25.7.25 0-.5-.15-.95Q207 171 204 166v-1-13q4.5-7.5 5.5-17H207z"/><path fill="#3F537C" d="M209 128q0 .5-.1.5-3.65.75-3.9-2.5-.5 0-.75-.25-.75-.75-1.25-1.75h-1v2q1.5 2 3.25 3.75.25.25.75.25 4.25.75 4.9-2.05.1-.45.1-.95h-2v1z"/><path fill="#7D8AA6" d="M208.9 128.5q.1 0 .1-.5-.5 0-.9-.2-.6-.3-1.1-.8v-1h-2q.25 3.25 3.9 2.5z"/><path fill="#D5D8DE" d="M222 131h-2q0 .5-.2.6-.8.4-1.8.4 14.9 6.6 24.8 18.05Q248 156 247.75 166q-.2 10.55-.75 17h2q0-.5.1-1 6.6-31.1-14.1-44-.5 0-.95-.15-6.8-2.1-11.05-6.85h-1z"/><path fill="#8996AF" d="M220 131h11q0-.5-.05-.5-5.45-.5-10.95-.5v1z"/><path fill="#B7B9BE" d="M215.75 132.75q.25-.25.25-.75-.5 0-.85.25-1.2.7-3.15.75-.5 0-.6.2-.7 1.5-3.4.8v1h1.5q-1 9.5-5.5 17v14q3 5 4.85 11.05.15.45.15.95 0 .5.25.75t.75.25v-1-3h2v-1q3.2-.7 3.85 1.05.15.45.15.95 0 .5.05 1 .65 4.2-4.05 3h-1q4.05 5.25 1.25 8.25-.25.25-.25.75h12v-1h7v-1h6q2.15.65 2.5-.9 0-.1.5-.1v-1q1.95-.05 3.15-.75.35-.25.85-.25 0-.5.15-.95Q247.6 173.6 247 160q-2.25-5.75-5.95-10.05Q231 138.5 215 133q.5 0 .75-.25M236 154v-1q3.2-.7 3.85 1.05.15.45.15.95 0 .5.05 1 .65 4.2-4.05 3-.5 0-.85-.2-1.85-1.1-1.15-4.8h2m-5.75 9.75q.25.25.75.25 1.7 1.75.55 5.85-.05.15-.55.15h-1v1q0 .5-.1.5-7.65 1.25-12.9-.5-.5 0-.9-.2-.6-.3-1.1-.8-.5 0-.5-.1-.5-2.9-.5-5.9h1q.5-.5 1.1-.8.4-.2.9-.2v-1q6.5 0 12.95.5.05 0 .05.5t.25.75M239 171v-1q3.2-.7 3.85 1.05.15.45.15.95 0 .5.05 1 .65 4.2-4.05 3-.5 0-.85-.2-1.85-1.1-1.15-4.8h2m-26-14q0 .5.05 1 .65 4.2-4.05 3-.5 0-.85-.2-1.85-1.1-1.15-4.8h2v-1q3.2-.7 3.85 1.05.15.45.15.95m9 24v-1-1q3.7-.7 4.8 1.15.2.35.2.85t.05 1q.65 4.2-4.05 3-.5 0-.95-.15-1.75-.65-1.05-3.85h1m11-2h1v-1q3.2-.7 3.85 1.05.15.45.15.95 0 .5.05 1 .65 4.2-4.05 3-.5 0-.85-.2-1.85-1.1-1.15-4.8h1z"/><path fill="#828489" d="M237.85 179.05q-.65-1.75-3.85-1.05v1q2.7-.7 3.4.8.1.2.6.2 0-.5-.15-.95M221 181q-.7 3.2 1.05 3.85.45.15.95.15 0-.5-.2-.6-1.5-.7-.8-3.4h-1m-12.25-24.25q.25-.25.25-.75h-2q-.7 3.7 1.15 4.8.35.2.85.2 0-.5-.2-.6-1.5-.7-.8-3.4.5 0 .75-.25m30 15q.25-.25.25-.75h-2q-.7 3.7 1.15 4.8.35.2.85.2 0-.5-.2-.6-1.5-.7-.8-3.4.5 0 .75-.25m.25-.75q2.7-.7 3.4.8.1.2.6.2 0-.5-.15-.95-.65-1.75-3.85-1.05v1m-4-17h-1q-.7 3.7 1.15 4.8.35.2.85.2 0-.5-.2-.6-1.5-.7-.8-3.4.5 0 .75-.25t.25-.75h-1m1-1v1q2.7-.7 3.4.8.1.2.6.2 0-.5-.15-.95-.65-1.75-3.85-1.05z"/><path fill="#B6AD85" d="M215 164h-1q0 3 .5 5.9 0 .1.5.1v-1-5z"/><path fill="#B6AB7B" d="M231 169v1q.5 0 .55-.15 1.15-4.1-.55-5.85v5z"/><path fill="#B6A563" d="M229.9 171.5q.1 0 .1-.5h-13q5.25 1.75 12.9.5m-.9-8.5h1q0-.5-.05-.5-6.45-.5-12.95-.5v1h12z"/><path fill="#B6920C" d="M231 164q-.5 0-.75-.25T230 163h-13q-.5 0-.9.2-.6.3-1.1.8v6q.5.5 1.1.8.4.2.9.2h13v-1h1v-1-5z"/><path fill="#637394" d="M216 131h4v-1h-6v1h2z"/><path fill="#8591AA" d="M216.75 131.75q.25-.25.25-.75h-3q-.5 0-.9.2-.6.3-1.1.8v1q1.95-.05 3.15-.75.35-.25.85-.25t.75-.25M31 163q.5.5 1.1.8.4.2.9.2 0-.5-.1-1-.4-2-1.9-3v3m200.1-54.2q.4.2.9.2 0-.5-.1-1-.4-2-1.9-3v3q.5.5 1.1.8z"/><path fill="#455880" d="M220 129h-5v1h5v-1z"/><path fill="#5B6C8F" d="M221 129h-1v1q5.5 0 10.95.5.05 0 .05.5h4v-1q-.5 0-.95.1-2.15.55-2.05-1.1h-11z"/><path fill="#334974" d="M213.55 121.15q-.05-.15-.55-.15 0 .5.1 1 .6 2.7-1.1 3 0 .5-.25.75t-.75.25v1q0 .5-.1.95-.65 2.8-4.9 2.05 0 .5.1 1 .4 2.5-5.1 4v1h4v-1q2.3-2.2 6-2.9.5-.1 1-.1.5-.5 1.1-.8.4-.2.9-.2v-1h1v-1q-.5 0-.95.1-2.15.55-2.05-1.1 3-1.5 1.55-6.85z"/><path fill="#7584A1" d="M211 122q0 .5.1.95.55 2.2-1.1 2.05v2h1v-1q.5 0 .75-.25t.25-.75q0-.5.1-.95.55-2.15-1.1-2.05m-96.9-49q-.1-.5-.1-1h-1q0 .5.1.95.55 2.2-1.1 2.05v2h1v-1q1.7-.3 1.1-3M220 33q0 .5.1.95.55 2.2-1.1 2.05v2q.5-.5 1.1-.8.4-.2.9-.2v-1q0-.5.1-.95.55-2.15-1.1-2.05z"/><path fill="#C9CDD5" d="M207 122h-1q-.7 2.7.8 3.4.2.1.2.6v1q.5 0 .65-.25 2.8-3.85-.65-4.75m8.8-85.6q.2.1.2.6v1q.5 0 .65-.25 2.8-3.85-.65-4.75h-1q-.7 2.7.8 3.4z"/><path fill="#AEB6C6" d="M206 122h1q0-.5-.25-.75T206 121q-.5 0-.9.2-.6.3-1.1.8.05 1.95.75 3.15.25.35.25.85h2q0-.5-.2-.6-1.5-.7-.8-3.4m10-89q0-.5-.25-.75T215 32q-.5 0-.9.2-.6.3-1.1.8.05 1.95.75 3.15.25.35.25.85h2q0-.5-.2-.6-1.5-.7-.8-3.4h1z"/><path fill="#8894AC" d="M204 122h-1v2q.5 1 1.25 1.75.25.25.75.25 0-.5-.25-.85-.7-1.2-.75-3.15m10-85q0-.5-.25-.85-.7-1.2-.75-3.15h-1q-.2 2.7 1.2 3.75.3.25.8.25z"/><path fill="#193162" d="M204.1 118.2q.4-.2.9-.2v-1q6.5-1 7.85 3.05.15.45.15.95.5 0 .55.15Q215 126.5 212 128q-.1 1.65 2.05 1.1.45-.1.95-.1h1v-1h16q2.2.8 4.9 1.45.1.05.1.55h1q3 1 5.8 2.4.2.1.2.6 4 1.5 6.75 4.25.25.25.25.75t.25.75q.25.25.75.25 2.65 1.35 3.8 4.1.2.4.2.9 3.6 3.4 4.9 9 .1.5.1 1v1q1.75 6.75.5 15.95 0 .05-.5.05 0 .5-.1 1-.85 5.55-3.9 9-.7 2.7.8 3.4.2.1.2.6 5.3 3.2 8.75 8.15.25.35.25.85 3.2 2.3 4.8 6.1.2.4.2.9 2.85 3.15 3.9 8 .1.5.1 1v3h1v.3q.158 5.7 6 5.7h1v-40V0H0v216q2-1 4.05-1.85.45-.15.95-.15v-1q1.05-.95 3-1h1v-1q1.3-1.2 4-1.05.5.05 1 .05h1v-1q.5-.5 1.1-.8.4-.2.9-.2v-1q3.95-1.05 9-1h6v-1q2.45-1.05 6-1h1v-1q2.45-1.05 6-1h1v-1-1q16.9-1.6 35.95-.5.05 0 .05.5v1h1q4.2-.75 5.75 1.2.25.3.25.8h4q2 .5 3.8 1.4.2.1.2.6h1q2.45 1 5.95 1.5.05 0 .05.5 2.7-.2 3.75 1.2.25.3.25.8 3.2-.7 3.85 1.05.15.45.15.95h1q4.2-.75 5.75 1.2.25.3.25.8h1q2.7-.7 3.4.8.1.2.6.2 2.7-.2 3.75 1.2.25.3.25.8 1.7.3 2.4 1.8.1.2.6.2 3.2-.7 3.85 1.05.15.45.15.95h1q3.8.2 6.15 1.75.35.25.85.25 2 .5 3.8 1.4.2.1.2.6 2.7-.7 2.95 1 .05.5.05 1h4q2 .5 3.8 1.4.2.1.2.6.5.5 1.1.8.4.2.9.2 2.2.8 4.9 1.45.1.05.1.55 5 1.5 10.9 2.5.1 0 .1.5v1q3.35-.35 5.15.75.35.25.85.25 4 .5 8 .95.5.05 1 .05v-1-13-1-4h1v-1q1.7-.3 1.1-3-.1-.5-.1-1v-1-2q1.7-.3 1.5-3h.5q1.95-2.05 2.85-5.05.15-.45.15-.95v-1-1q1.65.15 1.5-2h.5v-1-7q0-.5-.25-.75Q198.5 187 197 186q-.5 0-.75-.25-3.5-3.5-5.25-8.75 0-.5-.15-.95-.35-1.05-.85-2.05-.5 0-.55-.1-.65-2.7-1.45-4.9v-1-13h1v-1q2.05-2.95 3.45-6.85.05-.15.55-.15v-1-1q1.7-.3 2.4-1.8.1-.2.6-.2v-1-1q2.5-2 4.75-4.25.25-.25.25-.75v-1q5.5-1.5 5.1-4-.1-.5-.1-1-.5 0-.75-.25Q203.5 128 202 126q-.5 0-.6-.2-.9-1.8-1.4-3.8 1.55-2.45 4.1-3.8M256 90q.5.5.4.7-4.25 7.95-9.6 14.9-7.7 9.85-16.8 4.4-.5 0-.6-.2-4.25-9.45-12.4-14.8v-1q-.5 0-.95-.15Q213.1 92.9 214 88v-1-1q1.544-.769 3-1.65V84h.6q.712-.444 1.4-.9V83q.05.01.1 0 6.81-4.647 11.25-11.75.15-.25.65-.25v-1q6.5-2.6 10.75 1.3.25.2.25.7 6.55 8.95 13.75 17.2.25.3.25.8m-42-61v-1q6.5-1 7.85 3.05.15.45.15.95.5 0 .55.15 1.7 5.1-1.55 5.85 0 .5-.05 1-.25 1.7-1.95 2-.5 0-1 .1-2.7.6-3-1.1-.5 0-.95-.15-2.2-.7-3.05-2.85-.5 0-.6-.2-.9-1.8-1.4-3.8 1.55-2.45 4.1-3.8.4-.2.9-.2m-41.1 50.45q.1.05.1.55 7.35 3.65 8.9 13 .1.5.1 1t-.25.75Q179.5 97 177 99q0 .5-.25.8-7.95 9.9-12.75-1.8-.5 0-.95-.15Q157.7 95.8 158 88q3-2 6.1-3.8.4-.2.9-.2v-1-1q.5-.5 1.1-.8.4-.2.9-.2v-1q2.05-1.45 5.9-.55M107 68v-1q1.05-.95 3-1h1q7.8 4.7 2.65 12.75-.15.25-.65.25 0 .5-.15.55-8.15 3-9.85-5.55-.5 0-.6-.2-.4-.8-.4-1.8 1.55-2.45 4.1-3.8.4-.2.9-.2m-64.25 58.3q.25.2.25.7 6.55 8.95 13.75 17.2.25.3.25.8.5.5.4.7-4.25 7.95-9.65 14.9Q40.1 170.45 31 165q-.5 0-.6-.2-4.25-9.45-12.4-14.8v-1q-.5 0-.95-.15Q14.1 147.9 15 143v-1-1q1.544-.769 3-1.65V139h.6q.712-.444 1.4-.9v-.1q.05.01.1 0 6.81-4.647 11.25-11.75.15-.25.65-.25v-1q6.5-2.6 10.75 1.3m54.15 2.15q.1.05.1.55 7.35 3.65 8.9 13 .1.5.1 1t-.25.75Q103.5 146 101 148q0 .5-.25.8Q92.8 158.7 88 147q-.5 0-.95-.15Q81.7 144.8 82 137q3-2 6.1-3.8.4-.2.9-.2v-1-1q.5-.5 1.1-.8.4-.2.9-.2v-1q2.05-1.45 5.9-.55z"/><path fill="#5C6C8F" d="M96.75 150.75q.25-.25.25-.75-.5 0-.85.25-1.2.7-3.15.75 1.65 2.1 3.75-.25m76-49q.25-.25.25-.75-.5 0-.85.25-1.2.7-3.15.75 1.65 2.1 3.75-.25z"/><path fill="#6C7C9B" d="M104.25 142.2q1.7-2.2-1.25-4.2 0 .5.1.95.55 2.2-1.1 2.05v3h1v-1h1q0-.5.25-.8M179 89q0 .5.1.95.55 2.2-1.1 2.05v3h1v-1h1q0-.5.25-.8 1.7-2.2-1.25-4.2z"/><path fill="#55678B" d="M101 148v-1-1q1-.5 1.75-1.25.25-.25.25-.75h-1q-.5 0-.6.2-1.5 2.7-4.4 3.8v2q1.5-1 3.1-1.8.4-.2.9-.2m-70 11q0-.5-.15-.95Q30.5 157 30 156q-.5 0-.6-.2-.7-1.5-3.4-.8h-1q5.5 1 5.5 8h.5v-1-2-1m146-61v-1q1-.5 1.75-1.25.25-.25.25-.75h-1q-.5 0-.6.2-1.5 2.7-4.4 3.8v2q1.5-1 3.1-1.8.4-.2.9-.2v-1m52 3q-.5 0-.6-.2-.7-1.5-3.4-.8h-1q5.45 1 5.5 8h.5v-1-2-1q0-.5-.15-.95-.35-1.05-.85-2.05z"/><path fill="#95A0B5" d="M100 142h-.5q.6 4.1-2.5 4v2q2.9-1.1 4.4-3.8.1-.2.6-.2v-1q-.5 0-.9-.2-.6-.3-1.1-.8m77.1-48.2q-.6-.3-1.1-.8h-.5q.6 4.1-2.5 4v2q2.9-1.1 4.4-3.8.1-.2.6-.2v-1q-.5 0-.9-.2z"/><path fill="#9DA7BA" d="M100 137v1q1 1 1.75 2.15.25.35.25.85 1.65.15 1.1-2.05-.1-.45-.1-.95-.5 0-.95-.15-1.05-.35-2.05-.85m79.1-47.05q-.1-.45-.1-.95-.5 0-.95-.15Q177 88.5 176 88v1q1 1 1.75 2.15.25.35.25.85 1.65.15 1.1-2.05z"/><path fill="#B2BBCB" d="M101 141q0 .5-.25.75t-.75.25q.5.5 1.1.8.4.2.9.2v-1-1q0-.5-.25-.85Q101 139 100 138h-1q-.65 2.65 2 2.5v.5m77-49q0-.5-.25-.85Q177 90 176 89h-1q-.65 2.65 2 2.5v.5q0 .5-.25.75T176 93q.5.5 1.1.8.4.2.9.2v-1-1z"/><path fill="#7D8BA6" d="M91 146h-1q.95 1.05 1.45 2.85.05.15.55.15 0-.5.25-.8 1.9-2.4-1.25-2.2m76-49h-1q.95 1.05 1.45 2.85.05.15.55.15 0-.5.25-.8 1.9-2.4-1.25-2.2z"/><path fill="#99A3B8" d="M90 146h1q0-.5-.2-.9-.8-1.6-1.8-3.1v2q0 1 .4 1.8.1.2.6.2m75-52v1q0 1 .4 1.8.1.2.6.2h1q0-.5-.2-.9-.8-1.6-1.8-3.1v1z"/><path fill="#8A96AE" d="M89 142q-.5 0-1-.05-2.2-.25-2-2.95h-2q-.2 2.7 1.85 3.45.15.05.15.55 2.15-.6 2.45.9.05.1.55.1v-1-1m76-47v-1-1q-.5 0-1-.05-2.2-.25-2-2.95h-2q-.2 2.7 1.85 3.45.15.05.15.55 2.15-.6 2.5.9 0 .1.5.1z"/><path fill="#344A74" d="M99.8 134.15q.2.35.2.85 1.5 1 2.75 2.25.25.25.25.75 2.95 2 1.25 4.2-.25.3-.25.8h2q0-.5-.1-1-1.55-9.35-8.9-13h-1v1q2.35 1.65 3.8 4.15m76-49q.2.35.2.85 1.5 1 2.75 2.25.25.25.25.75 2.95 2 1.25 4.2-.25.3-.25.8h2q0-.5-.1-1-1.55-9.35-8.9-13h-1v1q2.35 1.65 3.8 4.15z"/><path fill="#667696" d="M100 135v2q1 .5 2.05.85.45.15.95.15 0-.5-.25-.75Q101.5 136 100 135m78.05-46.15q.45.15.95.15 0-.5-.25-.75Q177.5 87 176 86v2q1 .5 2.05.85z"/><path fill="#D0D4DC" d="M95 136v-1h-1v1q0 .5-.25.8-.65.85-3.75 2.2 3.5 3 5.05 6.05l.5-1.25q1-2.15 5.45-2.8v-.5q-2.65.15-2-2.5-.5 0-.9-.2-1.6-.8-3.1-1.8m-49 3q0-.5.05-1 .1-1.6-2.05-1h-1v1q0 .5-.25.8-4.8 6.25-4.75-1.8v-1-2h1q0-.5-.1-.55-1.5-.3-.9-2.45 0-.5-.1-.55Q36 130 34 130v1q2.2.3 1.55 2.9-.05.1-.55.1 1.9 2 .25 3.3-.25.2-.25.7h.5q-.45 9-2.5 0h-1q0 .5-.1.55-1.85.4-2.9-.55v2q1.7 1.8 1.5 4.95 0 .05-.5.05h-1v1q.5 0 .8.25 4 3.55-3.8 4.75 0 .5.25.75t.75.25q1.55 1.45 2.75 3.15.25.35.25.85.5 0 .75-.25T31 155v-1-1q1.75-.05 5.1-2.45.8-.55-1.1 1.45l-.2.55q-.7 2-.8 4.45 0 .5.25.7Q35.9 159 33 160q.5 2 1.75 3.25.25.25.25.75.5.5 1 .5v-.5-1q1 0 1.8-.4.2-.1.2-.6-.5 0-.75-.25Q36.5 161 36 160q1 0 1.8-.4.2-.1.2-.6-.5 0-.75-.25T37 158q1 0 1.8-.4.2-.1.2-.6-.5 0-.6-.2-.4-.8-.4-1.8h2v-1-1-1q1.95-.05 2.75-1.15.25-.35.25-.85-.5 0-.9-.2-1.6-.8-2.1-2.8h3v-1q1.95.05 2.75 1.15.25.35.25.85v1h1q1.8-1.2 3.25-2.75.25-.25.75-.25v-1-1h-4q0 .5-.15.55Q43.1 145.9 44 142h1v-1-2h1m125-53h-1v1q0 .5-.25.8-.65.85-3.75 2.2 3.5 3 5.05 6.05l.5-1.25q1-2.15 5.45-2.8v-.5q-2.65.15-2-2.5-.5 0-.9-.2-1.6-.8-3.1-1.8v-1m74.05-3q.1-1.6-2.05-1h-1v1q0 .5-.25.8-4.8 6.25-4.75-1.8v-1-2h1q0-.5-.1-.55-1.5-.3-.9-2.45 0-.5-.1-.55Q235 75 233 75v1q2.2.3 1.55 2.9-.05.1-.55.1 1.95 2 .25 3.3-.25.2-.25.7h.5q-.45 9-2.5 0h-1q0 .5-.1.55-1.85.4-2.9-.55v2q1.7 1.8 1.5 4.95 0 .05-.5.05h-1v1q.5 0 .8.25 4 3.55-3.8 4.75 0 .5.25.75t.75.25q1.55 1.45 2.75 3.15.25.35.25.85.5 0 .75-.25t.25-.75v-1-1q1.75-.05 5.1-2.45.8-.55-1.1 1.45l-.2.55q-.7 2-.8 4.45 0 .5.25.7 1.65 1.3-1.25 2.3.5 2 1.75 3.25.25.25.25.75.5.5 1 .5v-.5-1q1 0 1.8-.4.2-.1.2-.6-.5 0-.75-.25-.75-.75-1.25-1.75 1 0 1.8-.4.2-.1.2-.6-.5 0-.75-.25T236 103q1 0 1.8-.4.2-.1.2-.6-.5 0-.6-.2-.4-.8-.4-1.8h2v-1-1-1q1.95-.05 2.75-1.15.25-.35.25-.85-.5 0-.9-.2-1.6-.8-2.1-2.8h3v-1q1.95.05 2.75 1.15.25.35.25.85v1h1q1.8-1.2 3.25-2.75.25-.25.75-.25v-1-1h-4q0 .5-.15.55Q242.1 90.9 243 87h1v-1-2h1q0-.5.05-1z"/><path fill="#BBC1CE" d="M96 136h-1q1.5 1 3.1 1.8.4.2.9.2h1v-1-1h-4m76-49h-1q1.5 1 3.1 1.8.4.2.9.2h1v-1-1h-4z"/><path fill="#919CB2" d="M96 135v1h4v-1q-.5 0-.95-.15Q98 134.5 97 134h-1v1m80-49q-.5 0-.95-.15Q174 85.5 173 85h-1v2h4v-1z"/><path fill="#BAC0CC" d="M93 136h-4v1q0 .5-.15.55-1.35.45-2.85.45v1q-.2 2.7 2 2.95.5.05 1 .05 1 1.5 1.8 3.1.2.4.2.9 3.15-.2 1.25 2.2-.25.3-.25.8.5.5.8 1.1.2.4.2.9 1.95-.05 3.15-.75.35-.25.85-.25v-1-1-1-1q3.1.1 2.5-4h.5q.5 0 .75-.25t.25-.75q-4.45.65-5.45 2.8l-.5 1.25Q93.5 142 90 139q3.1-1.35 3.75-2.2.25-.3.25-.8h-1m77-49h-5v1q0 .5-.15.55-1.35.45-2.85.45v1q-.2 2.7 2 2.95.5.05 1 .05 1 1.5 1.8 3.1.2.4.2.9 3.15-.2 1.25 2.2-.25.3-.25.8.5.5.8 1.1.2.4.2.9 1.95-.05 3.15-.75.35-.25.85-.25v-1-1-1-1q3.1.1 2.5-4h.5q.5 0 .75-.25T177 92q-4.45.65-5.45 2.8l-.5 1.25Q169.5 93 166 90q3.1-1.35 3.75-2.2.25-.3.25-.8z"/><path fill="#8F9BB2" d="M93 133h-1q0 .5-.25.85-.8 1.1-2.75 1.15v1h4v-1-2m76-47v-2h-1q0 .5-.25.85-.8 1.1-2.75 1.15v1h4v-1z"/><path fill="#314772" d="M92 131v-1h-1q-.5 0-.9.2-.6.3-1.1.8v3q2.2-.3 2.5-2.95 0-.05.5-.05m74.1-49.8q-.6.3-1.1.8v3q2.2-.3 2.5-2.95 0-.05.5-.05v-1h-1q-.5 0-.9.2z"/><path fill="#56678B" d="M92 133v-1-1q-.5 0-.5.05-.3 2.65-2.5 2.95h-.5q.15 2.65-2.5 2v1h3v-1-1q1.95-.05 2.75-1.15.25-.35.25-.85m73-48h-.5q.15 2.65-2.5 2v1h3v-1-1q1.95-.05 2.75-1.15.25-.35.25-.85v-1-1q-.5 0-.5.05-.3 2.65-2.5 2.95z"/><path fill="#B4BCC8" d="M95 132h-2v4h1v-1h1v-1-2m76-49h-2v4h1v-1h1v-1-2z"/><path fill="#607092" d="M96 130h-1q1 1 1.75 2.15.25.35.25.85v1q1 .5 2.05.85.45.15.95.15 0-.5-.2-.85-1.45-2.5-3.8-4.15m79.05-44.15q.45.15.95.15 0-.5-.2-.85-1.45-2.5-3.8-4.15h-1q1 1 1.75 2.15.25.35.25.85v1q1 .5 2.05.85z"/><path fill="#AAB4C5" d="M96.1 132.8q-.6-.3-1.1-.8v4h1v-1-1h1v-1q-.5 0-.9-.2M173 85v-1q-.5 0-.9-.2-.6-.3-1.1-.8v4h1v-1-1h1z"/><path fill="#495C83" d="M96 129h-1q-1.95.05-3 1v1q2.15.65 2.5-.9 0-.1.5-.1h1v-1m76-49h-1q-1.95.05-3 1v1q2.15.65 2.5-.9 0-.1.5-.1h1v-1z"/><path fill="#2A416D" d="M97 129q0-.5-.1-.55-3.85-.9-5.9.55v1h1q1.05-.95 3-1h2m76-49q0-.5-.1-.55-3.85-.9-5.9.55v1h1q1.05-.95 3-1h2z"/><path fill="#B2BAC9" d="M45 153q0 .5.1.95.55 2.2-1.1 2.05v1q.5 0 .75.25t.25.75h1v-1-4h-1m200-55h-1q0 .5.1.95.55 2.2-1.1 2.05v1q.5 0 .75.25t.25.75h1v-1-4z"/><path fill="#D3D8DF" d="M44 153q-.5 0-.9.2-.6.3-1.1.8-.1 1.65 2 1.5v.5q1.65.15 1.1-2.05-.1-.45-.1-.95h-1m200.1-54.05q-.1-.45-.1-.95h-1q-.5 0-.9.2-.6.3-1.1.8-.1 1.65 2 1.5v.5q1.65.15 1.1-2.05z"/><path fill="#8390AA" d="M47 149h-2v4h1v-1-1h2q0-.5-.2-.9-.3-.6-.8-1.1m199.8-53.9q-.3-.6-.8-1.1h-2v4h1v-1-1h2q0-.5-.2-.9z"/><path fill="#4A5D84" d="M52 152h-5v5q.65-3.85 4.95-4.5.05 0 .05-.5m195-55h-1v5q.65-3.85 4.95-4.5.05 0 .05-.5h-4z"/><path fill="#7482A0" d="M36 164v.5q-.5 0-1-.5h-2q1.75 3.3 5.75.65.25-.15.25-.65h-3m199-55v.5q-.5 0-1-.5h-2q1.75 3.3 5.75.65.25-.15.25-.65h-3z"/><path fill="#ABB4C6" d="M27 152q0 .5-.2.9-.3.6-.8 1.1v1q2.7-.7 3.4.8.1.2.6.2 0-.5-.25-.85-1.2-1.7-2.75-3.15m199-55q0 .5-.2.9-.3.6-.8 1.1v1q2.7-.7 3.4.8.1.2.6.2 0-.5-.25-.85-1.2-1.7-2.75-3.15z"/><path fill="#B0B8C6" d="M40.1 160.8q-.6-.3-1.1-.8 0 .5-.25.75T38 161v1q0 .5-.2.6-.8.4-1.8.4v1h3v-1-1q1 0 1.8-.4.2-.1.2-.6-.5 0-.9-.2M34 134q0 .5.1 1 .55 2.65-2.1 2v1h1q1 .5 2 .5v-.5q0-.5.25-.7Q36.9 136 35 134h-1m203-28v1q0 .5-.2.6-.8.4-1.8.4v1h3v-1-1q1 0 1.8-.4.2-.1.2-.6-.5 0-.9-.2-.6-.3-1.1-.8 0 .5-.25.75t-.75.25m-4-27q0 .5.1 1 .55 2.65-2.1 2v1h1q1 .5 2 .5V83q0-.5.25-.7 1.7-1.3-.25-3.3h-1z"/><path fill="#99A4B8" d="M39 160q.5.5 1.1.8.4.2.9.2v-1h1q0-.5-.2-.9-.3-.6-.8-1.1 0 .5-.2.6-.8.4-1.8.4v1m1-3q0 .5.25.75t.75.25v-1h3v-1h-4v1m199.8-53.4q-.8.4-1.8.4v1q.5.5 1.1.8.4.2.9.2v-1h1q0-.5-.2-.9-.3-.6-.8-1.1 0 .5-.2.6m-.8-2.6v1q0 .5.25.75t.75.25v-1h3v-1h-4z"/><path fill="#C5CAD3" d="M37.8 159.6q-.8.4-1.8.4.5 1 1.25 1.75.25.25.75.25v-1q.5 0 .75-.25T39 160v-1h-1q0 .5-.2.6M238 105v-1h-1q0 .5-.2.6-.8.4-1.8.4.5 1 1.25 1.75.25.25.75.25v-1q.5 0 .75-.25t.25-.75z"/><path fill="#ACB5C5" d="M40 157v-1h1q0-.5-.25-.75T40 155h-2q0 1 .4 1.8.1.2.6.2h1m199-55v-1h1q0-.5-.25-.75T239 100h-2q0 1 .4 1.8.1.2.6.2h1z"/><path fill="#BDC4CF" d="M40.25 157.75Q40 157.5 40 157h-1q0 .5-.2.6-.8.4-1.8.4 0 .5.25.75t.75.25h1q1 0 1.8-.4.2-.1.2-.6-.5 0-.75-.25m-15.5-10q.25-.25.25-.75h-.5q.15-2.65-2.5-2v1q1.65-.1 1.1 2.05-.1.45-.1.95h1v-1q.5 0 .75-.25M239 102h-1q0 .5-.2.6-.8.4-1.8.4 0 .5.25.75t.75.25h1q1 0 1.8-.4.2-.1.2-.6-.5 0-.75-.25T239 102m-18-12v1q1.65-.1 1.1 2.05-.1.45-.1.95h1v-1q.5 0 .75-.25T224 92h-.5q.15-2.65-2.5-2z"/><path fill="#7F8DA7" d="M33 157q0-.5.05-1 .1-1.6-2.05-1 0 .5-.25.75T30 156q.5 1 .85 2.05.15.45.15.95 1-.5 1.75-1.25.25-.25.25-.75m199-55q0-.5.05-1 .1-1.6-2.05-1 0 .5-.25.75t-.75.25q.5 1 .85 2.05.15.45.15.95 1-.5 1.75-1.25.25-.25.25-.75z"/><path fill="#BCC3CE" d="M34.25 157.7q-.25-.2-.25-.7h-1q0 .5-.25.75Q32 158.5 31 159v1q1.5 1 1.9 3 .1.5.1 1h2q0-.5-.25-.75Q33.5 162 33 160q2.9-1 1.25-2.3m199-55q-.25-.2-.25-.7h-1q0 .5-.25.75-.75.75-1.75 1.25v1q1.5 1 1.9 3 .1.5.1 1h2q0-.5-.25-.75Q232.5 107 232 105q2.9-1 1.25-2.3z"/><path fill="#B3BBC8" d="M34.8 152.55l.2-.55q1.9-2 1.1-1.45-3.35 2.4-5.1 2.45v2q2.15-.6 2.05 1-.05.5-.05 1h1q.1-2.45.8-4.45M234 97q1.9-2 1.1-1.45-3.35 2.4-5.1 2.45v2q2.15-.6 2.05 1-.05.5-.05 1h1q.1-2.45.8-4.45l.2-.55z"/><path fill="#C6CBD4" d="M40 152v1q1 0 1.8.4.2.1.2.6.5-.5 1.1-.8.4-.2.9-.2v-1-2h-1q0 .5-.25.85-.8 1.1-2.75 1.15m3-5h-3q.5 2 2.1 2.8.4.2.9.2v-1-2m198-55h-2q.5 2 2.1 2.8.4.2.9.2v-1-2h-1m2 6v-1-2h-1q0 .5-.25.85-.8 1.1-2.75 1.15v1q1 0 1.8.4.2.1.2.6.5-.5 1.1-.8.4-.2.9-.2z"/><path fill="#BDC2CD" d="M40 153v2q.5 0 .75.25t.25.75h3v-.5q-2.1.15-2-1.5 0-.5-.2-.6-.8-.4-1.8-.4m200.8-54.6q-.8-.4-1.8-.4v2q.5 0 .75.25t.25.75h3v-.5q-2.1.15-2-1.5 0-.5-.2-.6z"/><path fill="#C3C7D0" d="M35 138.5q-1 0-2-.5 2.05 9 2.5 0H35v.5M234 83v.5q-1 0-2-.5 2.05 9 2.5 0h-.5z"/><path fill="#8290AA" d="M25 147q0 .5-.25.75T24 148v1q1 0 1.8.4.2.1.2.6.5 0 .8-.25 2.15-1.8-1.8-2.75m199-55q0 .5-.25.75T223 93v1q1 0 1.8.4.2.1.2.6.5 0 .8-.25 2.15-1.8-1.8-2.75z"/><path fill="#ABB4C4" d="M25 146v1q3.95.95 1.8 2.75-.3.25-.8.25v1q7.8-1.2 3.8-4.75-.3-.25-.8-.25t-.65.25q-.65.95-3.35-.25m203.8-54.75q-.3-.25-.8-.25t-.65.25q-.65.95-3.35-.25v1q3.95.95 1.8 2.75-.3.25-.8.25v1q7.8-1.2 3.8-4.75z"/><path fill="#9FA8BC" d="M22 146q0 .5-.05.5-2.15.2-2.95-1.5-.9 3.9 3 3.5v.5q0 .5.25.75t.75.25v-1q0-.5.1-.95.55-2.15-1.1-2.05m199-55q0 .5-.05.5-2.15.2-2.95-1.5-.9 3.9 3 3.5v.5q0 .5.25.75t.75.25v-1q0-.5.1-.95.55-2.15-1.1-2.05z"/><path fill="#C2C7D1" d="M27 141v1q2-1.45 2.9 2.05.1.45.1.95.5 0 .5-.05.2-3.15-1.5-4.95-.5 0-.75-.25T28 139h-1v2m200.25-56.25Q227 84.5 227 84h-1v3q2-1.45 2.9 2.05.1.45.1.95.5 0 .5-.05.2-3.15-1.5-4.95-.5 0-.75-.25z"/><path fill="#D0D4DB" d="M27 142h-3q0 .5-.15.55-1.8.5-2.85 1.45 0 1 .4 1.8.1.2.6.2v-1q2.65-.65 2.5 2h.5v-1q2.7 1.2 3.35.25.15-.25.65-.25v-1h1q0-.5-.1-.95-.9-3.5-2.9-2.05m194-51v-1q2.65-.65 2.5 2h.5v-1q2.7 1.2 3.35.25.15-.25.65-.25v-1h1q0-.5-.1-.95-.9-3.5-2.9-2.05h-3q0 .5-.15.55-1.8.5-2.85 1.45 0 1 .4 1.8.1.2.6.2z"/><path fill="#A3AEC1" d="M27 139h-.5q.15 2.65-2.5 2v1h3v-1-2m199-55h-.5q.15 2.65-2.5 2v1h3v-1-2z"/><path fill="#C6CCD6" d="M29 139v-1q1.05.95 2.9.55.1-.05.1-.55h-.5q.15-2.1-1.5-2 0 .5-.2.6-.8.4-1.8.4v2q0 .5.25.75t.75.25v-1m198-57v2q0 .5.25.75t.75.25v-1-1q1.05.95 2.9.55.1-.05.1-.55h-.5q.15-2.1-1.5-2 0 .5-.2.6-.8.4-1.8.4z"/><path fill="#A6B0C1" d="M30 136h-4v1q.5.5.8 1.1.2.4.2.9h1v-1-1q1 0 1.8-.4.2-.1.2-.6m14 0v-1q-.5 0-.7.25-3.15 3.8-4.3-1.25h-1v3q1.3 1.2 4 1.05.5-.05 1-.05v-1h1v-1m65-66v2q.5 0 .55.15 2.15 5.3-1.55 1.85h-2q.3 1.7 1.8 2.4.2.1.2.6v1q1.95-.05 3.15-.75.35-.25.85-.25v-1-1q1.65.15 1.1-2.05-.1-.45-.1-.95 0-.5-.25-.75T112 71q-.5 0-.95-.15Q110 70.5 109 70m118 13v-1q1 0 1.8-.4.2-.1.2-.6h-4v1q.5.5.8 1.1.2.4.2.9h1v-1m16-1v-1-1q-.5 0-.7.25-3.15 3.8-4.3-1.25h-1v3q1.3 1.2 4 1.05.5-.05 1-.05v-1h1z"/><path fill="#BAC2CF" d="M34 131q0 .5-.2.6-.8.4-1.8.4v1q.5.5 1.1.8.4.2.9.2h1q.5 0 .55-.1.65-2.6-1.55-2.9m200.55-52.1q.65-2.6-1.55-2.9 0 .5-.2.6-.8.4-1.8.4v1q.5.5 1.1.8.4.2.9.2h1q.5 0 .55-.1z"/><path fill="#54668A" d="M36.05 127q-.05-.5-.05-1h-4v2h2q2.15.65 2.05-1M231 71v2h2q2.15.65 2.05-1-.05-.5-.05-1h-4z"/><path fill="#B3BAC7" d="M38 129q-.5 0-1 .1-2.7.6-3-1.1h-2v1q2.35 1 .25 2.35-.25.15-.25.65 1 0 1.8-.4.2-.1.2-.6v-1q2 0 3.9.45.1.05.1.55h1q0-.5.25-.65 2.05-1.3-1.25-1.35m193-56v1q2.35 1 .25 2.35-.25.15-.25.65 1 0 1.8-.4.2-.1.2-.6v-1q2 0 3.9.45.1.05.1.55h1q0-.5.25-.65 2.05-1.3-1.25-1.35-.5 0-1 .1-2.7.6-3-1.1h-2z"/><path fill="#97A1B6" d="M38 129v-1q0-.5.05-1 .1-1.6-2.05-1 0 .5.05 1 .1 1.65-2.05 1 .3 1.7 3 1.1.5-.1 1-.1m199-55v-1q0-.5.05-1 .1-1.6-2.05-1 0 .5.05 1 .1 1.65-2.05 1 .3 1.7 3 1.1.5-.1 1-.1z"/><path fill="#96A1B6" d="M18 143h-1v1q3.15-.85 4.75-3.15.25-.35.25-.85h-1q-.5 0-.75.25Q19 141.5 18 143m202-58q-.5 0-.75.25Q218 86.5 217 88h-1v1q3.15-.85 4.75-3.15.25-.35.25-.85h-1z"/><path fill="#7786A2" d="M19 145q-.5 0-.9-.2-.6-.3-1.1-.8v-1h-1q.45 3 1.8 5.15.2.35.2.85h4v-.5q-3.9.4-3-3.5m198.1-55.2q-.6-.3-1.1-.8v-1h-1q.45 3 1.8 5.15.2.35.2.85h4v-.5q-3.9.4-3-3.5-.5 0-.9-.2z"/><path fill="#BAC1CD" d="M18.1 144.8q.4.2.9.2.8 1.7 2.95 1.5.05 0 .05-.5-.5 0-.6-.2-.4-.8-.4-1.8 1.05-.95 2.85-1.45.15-.05.15-.55v-1q0-.5-.2-.6-.8-.4-1.8-.4 0 .5-.25.85-1.6 2.3-4.75 3.15.5.5 1.1.8M221 85q0 .5-.25.85-1.6 2.3-4.75 3.15.5.5 1.1.8.4.2.9.2.8 1.7 2.95 1.5.05 0 .05-.5-.5 0-.6-.2-.4-.8-.4-1.8 1.05-.95 2.85-1.45.15-.05.15-.55v-1q0-.5-.2-.6-.8-.4-1.8-.4z"/><path fill="#627294" d="M18.6 139H18v4q1-1.5 2.25-2.75.25-.25.75-.25v-1h-2.4m199-55h-.6v4q1-1.5 2.25-2.75.25-.25.75-.25v-1h-2.4z"/><path fill="#485A81" d="M20 138.1v.9h1q3.35.35 4.75-1.2.25-.3.25-.8v-1-1q-.5 0-.5.05-.495 3.91-5.4 2.95-.05.01-.1 0v.1M219.1 83q-.05.01-.1 0v1h1q3.35.35 4.75-1.2.25-.3.25-.8v-1-1q-.5 0-.5.05-.495 3.91-5.4 2.95z"/><path fill="#627293" d="M55.9 146.55Q54 147 52 147v5q1.596-3.236 3.9-5.45m.6-.55H56q0 .414-.1.5.31-.248.6-.5m199-55h-.5q0 .414-.1.5.31-.249.6-.5m-4.5 5v1q1.637-3.273 3.9-5.45-1.9.45-3.9.45v4z"/><path fill="#334874" d="M56 145v1h.5q-.29.252-.6.5v.05q-2.304 2.214-3.9 5.45 0 .5-.05.5-4.3.65-4.95 4.5v1q0 .5-.05.5-2.65.3-3.95 1.5h-1q0 .5-.05 1-.25 2.7-2.95 3 0 .5-.25.65-4 2.65-5.75-.65-.5 0-.9-.2-.6-.3-1.1-.8v2q9.1 5.45 16.75-4.4 5.4-6.95 9.65-14.9.1-.2-.4-.7h-1m195-48q0 .5-.05.5-4.3.65-4.95 4.5v1q0 .5-.05.5-2.65.3-3.95 1.5h-1q0 .5-.05 1-.25 2.7-2.95 3 0 .5-.25.65-4 2.65-5.75-.65-.5 0-.9-.2-.6-.3-1.1-.8v2q9.1 5.45 16.8-4.4 5.35-6.95 9.6-14.9.1-.2-.4-.7h-1v1h.5q-.29.251-.6.5v.05q-2.263 2.177-3.9 5.45z"/><path fill="#56688C" d="M54 146h2v-1q-.5 0-.6-.2-.9-1.8-2.4-2.8-.7 2.7.8 3.4.2.1.2.6m198.8-55.6q.2.1.2.6h2v-1q-.5 0-.6-.2-.9-1.8-2.4-2.8-.7 2.7.8 3.4z"/><path fill="#8D99B0" d="M52 147h-1.5q2.1 4.25-2.5 4v1h4v-1-4m198-55h-.5q2.1 4.25-2.5 4v1h4v-1-4h-1z"/><path fill="#C0C6D0" d="M51 147v-1q-.5 0-.75.25Q48.8 147.8 47 149q.5.5.8 1.1.2.4.2.9 4.6.25 2.5-4h.5m199-56q-.5 0-.75.25Q247.8 92.8 246 94q.5.5.8 1.1.2.4.2.9 4.6.25 2.5-4h.5v-1z"/><path fill="#A4AEBF" d="M51 144v3h1q2 0 3.9-.45v-.05q.1-.086.1-.5h-2q-.5 0-1 .05-1.6.1-1-2.05h-1m199-54v2h1q2 0 3.9-.45v-.05q.1-.086.1-.5h-2q-.5 0-1 .05-1.6.1-1-2.05h-1v1z"/><path fill="#465980" d="M52 141q0-.5-.2-.9-.8-1.6-2.8-2.1-.65 2.65 2 2.5v.5h1M214 37q-.5 0-.8-.25-1.4-1.05-1.2-3.75v-1h-1v5q.85 2.15 3.05 2.85.45.15.95.15 0-.5-.15-.95Q214.5 38 214 37m36 49h1q0-.5-.2-.9-.8-1.6-2.8-2.1-.65 2.65 2 2.5v.5z"/><path fill="#808EA9" d="M53 142q0-.5-.25-.75T52 141h-1q.5 1 .85 2.05.15.45.15.95-.6 2.15 1 2.05.5-.05 1-.05 0-.5-.2-.6-1.5-.7-.8-3.4m198.75-55.75Q251.5 86 251 86h-1q.5 1 .85 2.05.15.45.15.95-.6 2.15 1 2.05.5-.05 1-.05 0-.5-.2-.6-1.5-.7-.8-3.4 0-.5-.25-.75z"/><path fill="#B4BCCA" d="M44 148h2q0-.5-.25-.85-.8-1.1-2.75-1.15v4h1v-1-1m199-53v-1-1h2q0-.5-.25-.85-.8-1.1-2.75-1.15v4h1z"/><path fill="#C4C9D2" d="M43 138q-.5 0-1 .05-2.7.15-4-1.05-.05 8.05 4.75 1.8.25-.3.25-.8m198.75-54.2q.25-.3.25-.8-.5 0-1 .05-2.7.15-4-1.05-.05 8.05 4.75 1.8z"/><path fill="#C4C9D3" d="M45 142h-1q-.9 3.9 2.85 2.55.15-.05.15-.55-.5 0-1 .05-1.6.1-1-2.05m200.85-52.45q.15-.05.15-.55-.5 0-1 .05-1.6.1-1-2.05h-1q-.9 3.9 2.85 2.55z"/><path fill="#B6BDC9" d="M45 141v1q-.6 2.15 1 2.05.5-.05 1-.05h1v-1q-.5 0-.95-.15Q45.3 142.2 46 139h-1v2m200-57h-1v3q-.6 2.15 1 2.05.5-.05 1-.05h1v-1q-.5 0-.95-.15Q244.3 87.2 245 84z"/><path fill="#B8BEC9" d="M50.05 141.15Q49 141.5 48 142v2h4q0-.5-.15-.95Q51.5 142 51 141q-.5 0-.95.15M250 86q-.5 0-.95.15-1.05.35-2.05.85v2h4q0-.5-.15-.95Q250.5 87 250 86z"/><path fill="#7B89A5" d="M48 138q0 .5-.2.9-.3.6-.8 1.1 0 1 .4 1.8.1.2.6.2 1-.5 2.05-.85.45-.15.95-.15v-.5q-2.65.15-2-2.5h-1m200-55h-1q0 .5-.2.9-.3.6-.8 1.1 0 1 .4 1.8.1.2.6.2 1-.5 2.05-.85.45-.15.95-.15v-.5q-2.65.15-2-2.5z"/><path fill="#A1ABBD" d="M48 138h-.5q-.1-2.9-3.5-2v1q2.15-.6 2.05 1-.05.5-.05 1-.7 3.2 1.05 3.85.45.15.95.15v-1q-.5 0-.6-.2-.4-.8-.4-1.8.5-.5.8-1.1.2-.4.2-.9m199-55h-.5q-.05-2.9-3.5-2v1q2.15-.6 2.05 1-.05.5-.05 1-.7 3.2 1.05 3.85.45.15.95.15v-1q-.5 0-.6-.2-.4-.8-.4-1.8.5-.5.8-1.1.2-.4.2-.9z"/><path fill="#B8BECB" d="M40.95 132q.05-.5.05-1-.5 0-.6.2-.9 2.05-1.4-.2h-1q-.6 2.15.9 2.45.1.05.1.55 1.7-.3 1.95-2m199-55q.05-.5.05-1-.5 0-.6.2-.9 2.05-1.4-.2h-1q-.6 2.15.9 2.45.1.05.1.55 1.7-.3 1.95-2z"/><path fill="#7C8AA5" d="M44 135q0-.5-.2-.6-2.15-1.05-2.8-3.4 0 .5-.05 1-.25 1.7-1.95 2 1.15 5.05 4.3 1.25.2-.25.7-.25m198.8-55.6q-2.15-1.05-2.8-3.4 0 .5-.05 1-.25 1.7-1.95 2 1.15 5.05 4.3 1.25.2-.25.7-.25 0-.5-.2-.6z"/><path fill="#687898" d="M45 135h-1v1q3.4-.9 3.5 2h.5q0-.5.1-1 .55-2.65-2.1-2h-1m199-55h-1v1q3.45-.9 3.5 2h.5q0-.5.1-1 .55-2.65-2.1-2h-1z"/><path fill="#929DB4" d="M42 128h-4v1q3.3.05 1.25 1.35-.25.15-.25.65.5 2.25 1.4.2.1-.2.6-.2v-1-1q.5 0 .75-.25T42 128m195-55v1q3.3.05 1.25 1.35-.25.15-.25.65.5 2.25 1.4.2.1-.2.6-.2v-1-1q.5 0 .75-.25T241 73h-4z"/><path fill="#304671" d="M42 127h1q0-.5-.25-.7Q38.5 122.4 32 125v1h4v-1q3 .45 5.15 1.8.35.2.85.2m189-57v1h4v-1q3 .45 5.15 1.8.35.2.85.2h1q0-.5-.25-.7Q237.5 67.4 231 70z"/><path fill="#647394" d="M42 128v-1q-.5 0-.85-.2Q39 125.45 36 125v1q2.15-.6 2.05 1-.05.5-.05 1h4m195.05-56q-.05.5-.05 1h4v-1q-.5 0-.85-.2Q238 70.45 235 70v1q2.15-.6 2.05 1z"/><path fill="#495C82" d="M42 127v1q0 .5-.25.75T41 129v2q.65 2.35 2.8 3.4.2.1.2.6h2q0-.5-.2-.6-3.6-1.6-2.8-7.4h-1m203-47q0-.5-.2-.6-3.6-1.6-2.8-7.4h-1v1q0 .5-.25.75T240 74v2q.65 2.35 2.8 3.4.2.1.2.6h2z"/><path fill="#717F9D" d="M111.75 77.75q.25-.25.25-.75-.5 0-.85.25-1.2.7-3.15.75 1.65 2.1 3.75-.25z"/><path fill="#CACED6" d="M108 73v1q3.7 3.45 1.55-1.85-.05-.15-.55-.15h-1v1z"/><path fill="#6A7999" d="M106 74h-1v1q.3 1.7 2 1.95.5.05 1 .05 0-.5-.2-.6-1.5-.7-1.8-2.4z"/><path fill="#AAB1C1" d="M105 72v2h3v-1-1h1v-1h-2q0 .5-.2.6-.8.4-1.8.4z"/><path fill="#4C5F85" d="M219 41v-1-2q-.5 0-.9.2-.6.3-1.1.8 0 .5-.2.6-.8.4-1.8.4.3 1.7 3 1.1.5-.1 1-.1z"/><path fill="#384D77" d="M220.95 39q.05-.5.05-1v-1q-.5 0-.9.2-.6.3-1.1.8v3q1.7-.3 1.95-2z"/><path fill="#8592AB" d="M215 37h-1q.5 1 .85 2.05.15.45.15.95 1 0 1.8-.4.2-.1.2-.6-.5 0-.75-.25T216 38v-1h-1z"/><path fill="#A0AABD" d="M215.75 32.25q.25.25.25.75 3.45.9.65 4.75-.15.25-.65.25 0 .5.25.75t.75.25q.5-.5 1.1-.8.4-.2.9-.2v-1-1q1.65.15 1.1-2.05-.1-.45-.1-.95 0-.5-.25-.75Q218 30.45 215 30v2q.5 0 .75.25M206 119v2q.5 0 .75.25t.25.75q3.45.9.65 4.75-.15.25-.65.25.5.5 1.1.8.4.2.9.2v-1h1v-1-1q1.65.15 1.1-2.05-.1-.45-.1-.95 0-.5-.25-.75-1.75-1.8-4.75-2.25z"/></g></defs><use xlink:href="#a"/></svg>