<svg xmlns="http://www.w3.org/2000/svg" xmlns:xlink="http://www.w3.org/1999/xlink" preserveAspectRatio="none" width="284" height="320"><defs><linearGradient id="a" gradientUnits="userSpaceOnUse" x1="156.963" y1="394.038" x2="83.037" y2="390.163" spreadMethod="pad"><stop offset="0%" stop-color="#D2D4D5"/><stop offset="58.824%" stop-color="#FFF"/><stop offset="100%" stop-color="#D2D4D5"/></linearGradient><linearGradient id="b" gradientUnits="userSpaceOnUse" x1="87.563" y1="397.563" x2="76.537" y2="417.438" spreadMethod="pad"><stop offset="0%" stop-color="#FFF"/><stop offset="100%" stop-color="#DDDEDF"/></linearGradient><linearGradient id="c" gradientUnits="userSpaceOnUse" x1="105.225" y1="379.063" x2="94.875" y2="393.837" spreadMethod="pad"><stop offset="0%" stop-color="#FFF"/><stop offset="100%" stop-color="#E7E8E9"/></linearGradient><linearGradient id="d" gradientUnits="userSpaceOnUse" x1="95.287" y1="403.825" x2="174.112" y2="435.675" spreadMethod="pad"><stop offset="0%" stop-color="#D2D4D5"/><stop offset="100%" stop-color="#BEC0C2"/></linearGradient><linearGradient id="e" gradientUnits="userSpaceOnUse" x1="105.238" y1="381.625" x2="183.063" y2="413.075" spreadMethod="pad"><stop offset="0%" stop-color="#D2D4D5"/><stop offset="100%" stop-color="#BEC0C2"/></linearGradient><linearGradient id="f" gradientUnits="userSpaceOnUse" x1="112.413" y1="363.938" x2="190.188" y2="395.362" spreadMethod="pad"><stop offset="0%" stop-color="#D2D4D5"/><stop offset="100%" stop-color="#BEC0C2"/></linearGradient><linearGradient id="g" gradientUnits="userSpaceOnUse" x1="175.475" y1="453.725" x2="81.125" y2="455.375" spreadMethod="pad"><stop offset="0%" stop-color="#D99630"/><stop offset="85.098%" stop-color="#FFCC2A"/><stop offset="100%" stop-color="#F1B82D"/></linearGradient><linearGradient id="h" gradientUnits="userSpaceOnUse" x1="100.375" y1="481.538" x2="93.325" y2="437.063" spreadMethod="pad"><stop offset="0%" stop-color="#FFE284"/><stop offset="100%" stop-color="#FFCC2A"/></linearGradient><linearGradient id="i" gradientUnits="userSpaceOnUse" x1="100.888" y1="480.438" x2="93.413" y2="438.063" spreadMethod="pad"><stop offset="0%" stop-color="#FFD040"/><stop offset="100%" stop-color="#F1B82D"/></linearGradient><linearGradient id="j" gradientUnits="userSpaceOnUse" x1="126.775" y1="426.387" x2="122.625" y2="444.412" spreadMethod="pad"><stop offset="0%" stop-color="#FFCC2A"/><stop offset="100%" stop-color="#FFE697"/></linearGradient><linearGradient id="k" gradientUnits="userSpaceOnUse" x1="140.575" y1="379.762" x2="129.525" y2="380.537" spreadMethod="pad"><stop offset="0%" stop-color="#CF303A"/><stop offset="100%" stop-color="#EF4A47"/></linearGradient><linearGradient id="l" gradientUnits="userSpaceOnUse" x1="141.938" y1="382.325" x2="128.762" y2="377.275" spreadMethod="pad"><stop offset="0%" stop-color="#D6313B"/><stop offset="47.059%" stop-color="#EE333F"/><stop offset="100%" stop-color="#FFF"/></linearGradient><linearGradient id="m" gradientUnits="userSpaceOnUse" x1="152.563" y1="411.938" x2="147.637" y2="402.663" spreadMethod="pad"><stop offset="0%" stop-color="#BC2E37"/><stop offset="100%" stop-color="#EE333F"/></linearGradient><linearGradient id="n" gradientUnits="userSpaceOnUse" x1="150.775" y1="411.475" x2="149.225" y2="402.625" spreadMethod="pad"><stop offset="0%" stop-color="#BC2E37"/><stop offset="47.059%" stop-color="#EE333F"/><stop offset="100%" stop-color="#FFF"/></linearGradient><linearGradient id="o" gradientUnits="userSpaceOnUse" x1="112.4" y1="413.113" x2="99.4" y2="411.287" spreadMethod="pad"><stop offset="0%" stop-color="#BC2E37"/><stop offset="100%" stop-color="#EE333F"/></linearGradient><linearGradient id="p" gradientUnits="userSpaceOnUse" x1="109.5" y1="413.475" x2="99.4" y2="408.325" spreadMethod="pad"><stop offset="0%" stop-color="#BC2E37"/><stop offset="47.059%" stop-color="#EE333F"/><stop offset="100%" stop-color="#FDD8CB"/></linearGradient><path fill="#FFF" fill-opacity="0" d="M284 0H0v320h284V0z" id="q"/><path fill="#CE8730" d="M170.75 433.75q17.55-6.15 17.55-14.8 0-8.7-17.55-14.9-17.55-6.2-42.25-6.2-24.65 0-41.85 6.1-17.15 6.1-17.15 14.8 0 8.7 17.15 14.9 17.35 6.3 41.85 6.3 24.7 0 42.25-6.2z" id="r"/><path fill="url(#a)" d="M121.35 361.55q-8.05-1.3-12.4 3.4-4.1 4.35-2.65 11-8-2.95-13.85 2.9-5.95 5.95-2.9 14.55-7 .65-11.6 5.15-4.2 4.05-5.4 10.25-1.2 5.95.8 11.75 2.1 6.05 7.05 9.65 14.45 9.75 39.85 10.05 9.15.1 22.2-.95 7.4-.65 21.55-2 17.35-1.4 17.95-11.45.25-3.55-1.8-7-1.85-3.1-3.7-3.5 7.4-7.95 4.2-16.85-1.3-3.55-4-5.85-2.65-2.3-5.4-2.3 4.65-7.4-.3-14.2-4.4-6.15-12.65-7.75-8-1.5-11.85-2.9-4.75-1.75-7.35-4.65-1.8-2-3.1-4.9-1.3-3.2-2.05-4.65-2.75-5.2-10.55-7.25 3.9 4.25 3.2 9.55-.75 5.15-5.25 7.95z" id="s"/><path fill="#FFF" d="M116.2 363.95q-3.4 0-5.85 2.45-2.45 2.4-2.45 5.8 0 3.05 1.95 5.3-.75-1.65-.75-3.4 0-3.45 2.45-5.85 2.4-2.45 5.85-2.45 1.85 0 3.55.8 1.65.8 2.8 2.25-1-2.2-3-3.55-2.05-1.35-4.55-1.35z" id="t"/><path fill="url(#b)" d="M89.85 397q-4.1.1-7.2 2.1-2.75 1.75-4.4 4.75-2.65 4.55-2.45 9.35.2 5 3.45 8.85-4.15-6.95 0-14.7 4.25-7.9 12.95-7.7L89.85 397z" id="u"/><path fill="url(#c)" d="M92.65 390.8q0-4.55 3.25-7.85 3.2-3.25 7.75-3.25 2.5 0 4.8 1.1 2.15 1.1 3.7 2.95-1.35-2.95-4-4.7-2.75-1.8-6.1-1.8-4.55 0-7.75 3.25-3.25 3.25-3.25 7.8 0 3.9 2.5 7.05-.9-2.35-.9-4.55z" id="v"/><path fill="url(#d)" d="M125.15 421.7q9.2 2 25.8 5.1 11.23 2.691 12.7 6.7-2.334-7.988-12.15-12.8-6.45-3.15-22-6.9-16.65-4.05-23.4-6.85-11.95-5-16.55-13.2-.55 11.8 10.55 18.95 8.25 5.35 25.05 9z" id="w"/><path fill="url(#e)" d="M106.05 375.4q0 8.05 4.9 13.15 4.05 4.2 12 6.8 3.55 1.15 13 3 11.2 2.25 16.25 3.5 20.2 5.2 24.4 13.85-.25-9.4-9.8-15.25-6.75-4.2-21.65-8.05-20.05-5.2-23.55-6.45-11.95-4.25-15.55-10.55z" id="x"/><path fill="url(#f)" d="M127.55 374.85q5.1 3.55 15.7 5.9 5.85 1.35 17.15 3.6 8.8 2.3 11.35 6.1-1.4-6.6-7.55-9.9-3.9-2.15-13.7-4.2-11-2.35-15.85-4.3-8.85-3.55-13.95-10.2 0 8.25 6.85 13z" id="y"/><path fill="url(#g)" d="M187.15 422.1q-4.1 7.05-20.5 11.65-16.6 4.7-38.15 4.7-21.5 0-38.1-4.7-16.4-4.6-20.5-11.65l18 56.6q4.9 4.1 15.85 6.7 11.25 2.6 24.9 2.6 13.4 0 24.5-2.55Q164 483 169.05 479l18.1-56.9z" id="z"/><path fill="#F1B82D" d="M179 429q-5.8 3.1-14.5 5.35l-9 50.55q9-2.3 13.55-5.9l18.1-56.9q-2.2 3.7-8.15 6.9z" id="A"/><path fill="url(#h)" d="M99.5 435.85q-6.95-1.25-13.25-3.35l9.55 50.55q4.65 1.7 10.95 2.95l-7.25-50.15z" id="B"/><path fill="#ECB22E" d="M89.3 479.8q.8.55 3.2 1.8l-12.55-51.65q-2-.95-3.1-1.65l12.45 51.5z" id="C"/><path fill="#EAAF2E" d="M87.25 432.75q-1.05-.25-2.95-1l10.7 50.9q.7.35 2.9 1.1l-10.65-51z" id="D"/><path fill="url(#i)" d="M94.15 434.7q-1.9-.4-2.8-.7l8.9 50.45 2.85.8-8.95-50.55z" id="E"/><path fill="#E3A42F" d="M100.85 436.1l-2.8-.5 7.35 50.15 2.7.5-7.25-50.15z" id="F"/><path fill="#E1A12F" d="M107.4 437.1l-2.75-.35 5.7 49.9 2.65.35-5.6-49.9z" id="G"/><path fill="#DE9D30" d="M113.85 437.8l-2.7-.2 4 49.7 2.7.25-4-49.75z" id="H"/><path fill="#DC9A30" d="M120.3 438.25l-2.7-.15 2.4 49.6q.85.1 2.65.15l-2.35-49.6z" id="I"/><path fill="#D99630" d="M126.6 438.45l-2.55-.05.75 49.55 2.7.05-.9-49.55z" id="J"/><path fill="#D59230" d="M133.05 438.4l-2.7.05-.8 49.55 2.7-.05.8-49.55z" id="K"/><path fill="#D38D30" d="M139.45 438.1l-2.7.15-2.35 49.6q1.25 0 2.65-.15l2.4-49.6z" id="L"/><path fill="#D08930" d="M145.85 437.6l-2.65.2-4.05 49.75 2.75-.25 3.95-49.7z" id="M"/><path fill="#CE8730" d="M152.4 436.75l-2.75.35-5.6 49.95q.85-.15 2.65-.35l5.7-49.95z" id="N"/><path fill="#CA8130" d="M158.95 435.6q-.85.2-2.75.5l-7.25 50.25q.9-.25 2.75-.6l7.25-50.15z" id="O"/><path fill="#C87F30" d="M165.7 434q-.9.3-2.8.7l-8.9 50.55q1.95-.45 2.8-.7l8.9-50.55z" id="P"/><path fill="#E5A62F" d="M172.7 431.75q-1.8.75-2.9 1l-10.7 51.05q.75-.2 2.95-1l10.65-51.05z" id="Q"/><path fill="#E5A62F" d="M180.2 428.3q-1.4.85-3.1 1.65l-12.55 51.8q1.9-1 3.1-1.75l12.55-51.7z" id="R"/><path fill="url(#j)" d="M188.85 418.1q0-4.25-4.75-8.2-.4-.35-1.9-1.4l-1.3-.8-.65 1.95q.6.3.8.5l1.75 1.3q4 3.25 4 6.65 0 3.6-4.45 7-4.3 3.3-12.15 5.95-8.2 2.7-18.7 4.15-10.95 1.55-22.8 1.55h-.05q-11.85 0-22.8-1.55-10.55-1.45-18.7-4.15Q79.3 428.4 75 425.1q-4.45-3.4-4.45-7 0-1.7.85-3.1.2-.35.3-.6l.5-.65v-2.95q-1.3 1.15-2.15 2.55l-.4.65q-1.15 1.95-1.15 4.1 0 4.35 4.85 8.25 4.7 3.75 13.25 6.55 8.25 2.75 18.95 4.3 11.05 1.55 23.1 1.55h.05q12.05 0 23.1-1.55 10.7-1.55 19.05-4.3 8.45-2.8 13.15-6.55 4.85-3.9 4.85-8.25z" id="S"/><path fill="url(#k)" d="M138.95 371.2q0-.65-.1-.9-.05-.8-.85-1.15-.75-.4-1.45.2l-4.55 4-4.9-1.15-.85-.1q-.55-.1-1 .15-.5.25-.65.75-.2.45-.05 1 .05.25.4.95l2.05 4.55-3.1 5.1q-.2.65 0 1.25.25.6.85.85.45.2 1.25.1.45-.05 1.25-.2l4-.4 2.55 3q1.25 1.5 1.8 1.75.6.25 1.2-.05.65-.25.85-.8.15-.35.15-.4l1.15-5.45 5.55-2.4q.5-.25.55-.75.2-.5.05-1-.15-.55-.55-.8l-.8-.55-4.4-2.5-.4-5.05z" id="T"/><path fill="url(#l)" d="M136.65 373.25q-.35-.1-.9.1l-2.8 2.55-3-.75-.6-.05q-.75-.1-1 .6-.1.2-.1.6l1.55 3.4-1.75 2.95q-.05.1-.15.25-.15.35.05.75.15.35.45.5.3.1.8.05.3 0 .8-.1l2.45-.2 1.65 1.85q.8.95 1.1 1.1.85.25 1.3-.6v-.2l.7-3.4 2.9-1.2q.5-.25.55-.3.3-.05.45-.45.25-.7-.35-1.15l-3.2-1.85-.35-3.75q-.1-.55-.55-.7z" id="U"/><path fill="url(#m)" d="M158.65 403.6q.15-.4 0-.85-.3-1.05-1.45-.95-.05 0-.85.15l-4.4.85-3.15-3.15q-.45-.45-.65-.55-.6-.5-1.3-.3-.65.3-.8 1l-.7 5.35-4.7 2.4q-.8.65-.5 1.7.15.4.5.65.3.2.85.4l4 1.9.9 5.25q.25.55.75.75.55.25 1.05.05.45-.15 1.6-1.45l2.45-2.6 3.55.55q1.65.25 2.15.1.55-.15.8-.65.25-.55.05-1.1 0-.1-.15-.35l-2.35-4.3 2.35-4.85z" id="V"/><path fill="url(#n)" d="M154.2 408.3l1.2-2.45q.25-.25.3-.5.15-.25 0-.5-.25-.7-.95-.6l-3.15.6-2-1.95q-.3-.3-.45-.35-.3-.4-.8-.15-.3.1-.5.55l-.4 3.35-2.9 1.5q-.55.35-.35 1 .05.25.35.45l3 1.4.55 3.05.05.2q.25.75 1.1.5.25-.1 1-.85l1.5-1.6 2.15.3q1.15.15 1.35.05.35-.1.5-.4.2-.3.05-.65 0-.15-.1-.2l-1.5-2.75z" id="W"/><path fill="url(#o)" d="M116.45 403.9q-.4-1.25-1.85-1.15l-6.75 1.35-5.15-4.75q-.7-.6-1.65-.35-.9.5-1 1.3-.05.2-.2 1.15l-.6 5.85-6.05 3.3q-1.2.9-.65 2.15.25.6.75.85.2.2 1.05.55l5.25 2.35 1.15 6.25.15.45q.25.7.95 1.05.7.3 1.35.05.55-.2 1.2-.85.7-.75 1-1.1l3.1-3.35 4.5.6q1.2.2 1.45.25.9.05 1.45-.2.7-.2 1.05-.9.3-.7 0-1.4l-3.45-6.05 3.05-6.25q.1-.7-.1-1.15z" id="X"/><path fill="url(#p)" d="M112.45 408l.25-.65q.15-.3 0-.7-.35-.85-1.2-.75-.45.1-.65.15l-3.55.75-2.65-2.55-.5-.4q-.55-.45-1-.25-.55.25-.65.8l-.15.75-.35 3.6-3.75 2.05q-.65.45-.45 1.3.1.25.45.6.15.1.7.25l3.25 1.55.8 4.15q.15.45.6.7.4.2.85.05.6-.25 1.35-1.25l1.9-2.1 2.85.4q1.4.15 1.8 0 .45-.2.65-.6.2-.45 0-.85l-2.15-3.75 1.6-3.25z" id="Y"/></defs><use xlink:href="#q"/><use xlink:href="#r" transform="matrix(1.92387 0 0 1.92387 -105.385 -627.309)"/><use xlink:href="#s" transform="matrix(1.92387 0 0 1.92387 -105.385 -627.309)"/><use xlink:href="#t" transform="matrix(1.92387 0 0 1.92387 -105.385 -627.309)"/><use xlink:href="#u" transform="matrix(1.92387 0 0 1.92387 -105.385 -627.309)"/><use xlink:href="#v" transform="matrix(1.92387 0 0 1.92387 -105.385 -627.309)"/><use xlink:href="#w" transform="matrix(1.92387 0 0 1.92387 -105.385 -627.309)"/><use xlink:href="#x" transform="matrix(1.92387 0 0 1.92387 -105.385 -627.309)"/><use xlink:href="#y" transform="matrix(1.92387 0 0 1.92387 -105.385 -627.309)"/><use xlink:href="#z" transform="matrix(1.92387 0 0 1.92387 -105.385 -627.309)"/><use xlink:href="#A" transform="matrix(1.92387 0 0 1.92387 -105.385 -627.309)"/><use xlink:href="#B" transform="matrix(1.92387 0 0 1.92387 -105.385 -627.309)"/><use xlink:href="#C" transform="matrix(1.92387 0 0 1.92387 -105.385 -627.309)"/><use xlink:href="#D" transform="matrix(1.92387 0 0 1.92387 -105.385 -627.309)"/><use xlink:href="#E" transform="matrix(1.92387 0 0 1.92387 -105.385 -627.309)"/><use xlink:href="#F" transform="matrix(1.92387 0 0 1.92387 -105.385 -627.309)"/><use xlink:href="#G" transform="matrix(1.92387 0 0 1.92387 -105.385 -627.309)"/><use xlink:href="#H" transform="matrix(1.92387 0 0 1.92387 -105.385 -627.309)"/><use xlink:href="#I" transform="matrix(1.92387 0 0 1.92387 -105.385 -627.309)"/><use xlink:href="#J" transform="matrix(1.92387 0 0 1.92387 -105.385 -627.309)"/><use xlink:href="#K" transform="matrix(1.92387 0 0 1.92387 -105.385 -627.309)"/><use xlink:href="#L" transform="matrix(1.92387 0 0 1.92387 -105.385 -627.309)"/><use xlink:href="#M" transform="matrix(1.92387 0 0 1.92387 -105.385 -627.309)"/><use xlink:href="#N" transform="matrix(1.92387 0 0 1.92387 -105.385 -627.309)"/><use xlink:href="#O" transform="matrix(1.92387 0 0 1.92387 -105.385 -627.309)"/><use xlink:href="#P" transform="matrix(1.92387 0 0 1.92387 -105.385 -627.309)"/><use xlink:href="#Q" transform="matrix(1.92387 0 0 1.92387 -105.385 -627.309)"/><use xlink:href="#R" transform="matrix(1.92387 0 0 1.92387 -105.385 -627.309)"/><use xlink:href="#S" transform="matrix(1.92387 0 0 1.92387 -105.385 -627.309)"/><use xlink:href="#T" transform="matrix(1.92387 0 0 1.92387 -105.385 -627.309)"/><use xlink:href="#U" transform="matrix(1.92387 0 0 1.92387 -105.385 -627.309)"/><use xlink:href="#V" transform="matrix(1.92387 0 0 1.92387 -105.385 -627.309)"/><use xlink:href="#W" transform="matrix(1.92387 0 0 1.92387 -105.385 -627.309)"/><use xlink:href="#X" transform="matrix(1.92387 0 0 1.92387 -105.385 -627.309)"/><use xlink:href="#Y" transform="matrix(1.92387 0 0 1.92387 -105.385 -627.309)"/></svg>