<svg xmlns="http://www.w3.org/2000/svg" xmlns:xlink="http://www.w3.org/1999/xlink" preserveAspectRatio="none" width="284" height="320"><defs><linearGradient id="a" gradientUnits="userSpaceOnUse" x1="249.613" y1="-459.338" x2="267.887" y2="-478.262" spreadMethod="pad"><stop offset="0%" stop-color="#C7EF6A"/><stop offset="100%" stop-color="#B9E942"/></linearGradient><linearGradient id="b" gradientUnits="userSpaceOnUse" x1="258.063" y1="-405.75" x2="284.337" y2="-432.95" spreadMethod="pad"><stop offset="0%" stop-color="#C7EF6A"/><stop offset="100%" stop-color="#B9E942"/></linearGradient><linearGradient id="c" gradientUnits="userSpaceOnUse" x1="277.963" y1="-436.738" x2="241.138" y2="-391.262" spreadMethod="pad"><stop offset="0%" stop-color="#C1ED55"/><stop offset="100%" stop-color="#A6DA30"/></linearGradient><linearGradient id="d" gradientUnits="userSpaceOnUse" x1="209.662" y1="-305.55" x2="221.838" y2="-538.05" spreadMethod="pad"><stop offset="0%" stop-color="#99CE2F"/><stop offset="100%" stop-color="#B9E942"/></linearGradient><linearGradient id="e" gradientUnits="userSpaceOnUse" x1="238.138" y1="-525.825" x2="236.662" y2="-441.275" spreadMethod="pad"><stop offset="0%" stop-color="#C7EF6A"/><stop offset="100%" stop-color="#D5F394"/></linearGradient><linearGradient id="f" gradientUnits="userSpaceOnUse" x1="241.988" y1="-406.875" x2="218.012" y2="-453.925" spreadMethod="pad"><stop offset="0%" stop-color="#B9E942"/><stop offset="100%" stop-color="#CFF27F"/></linearGradient><linearGradient id="g" gradientUnits="userSpaceOnUse" x1="220.575" y1="-514.925" x2="229.025" y2="-574.975" spreadMethod="pad"><stop offset="0%" stop-color="#F3D72A"/><stop offset="100%" stop-color="#F6C237"/></linearGradient><linearGradient id="h" gradientUnits="userSpaceOnUse" x1="222.4" y1="-512.875" x2="222.4" y2="-560.225" spreadMethod="pad"><stop offset="0%" stop-color="#F2E661"/><stop offset="100%" stop-color="#F4D140"/></linearGradient><linearGradient id="i" gradientUnits="userSpaceOnUse" x1="222.775" y1="-571.063" x2="214.825" y2="-526.037" spreadMethod="pad"><stop offset="0%" stop-color="#F4D140"/><stop offset="100%" stop-color="#F3EF8F"/></linearGradient><linearGradient id="j" gradientUnits="userSpaceOnUse" x1="226.563" y1="-505.7" x2="241.738" y2="-571.4" spreadMethod="pad"><stop offset="0%" stop-color="#F6F9BD"/><stop offset="100%" stop-color="#F3D72A"/></linearGradient><linearGradient id="k" gradientUnits="userSpaceOnUse" x1="344.938" y1="-560.925" x2="263.462" y2="-600.675" spreadMethod="pad"><stop offset="0%" stop-color="#F3DB36"/><stop offset="100%" stop-color="#F6C237"/></linearGradient><linearGradient id="l" gradientUnits="userSpaceOnUse" x1="318.712" y1="-601.313" x2="254.587" y2="-502.588" spreadMethod="pad"><stop offset="0%" stop-color="#F2E661"/><stop offset="100%" stop-color="#F6F9BD"/></linearGradient><linearGradient id="m" gradientUnits="userSpaceOnUse" x1="280.4" y1="-563.525" x2="316.9" y2="-537.975" spreadMethod="pad"><stop offset="0%" stop-color="#F4F5A6"/><stop offset="100%" stop-color="#FEFEFE"/></linearGradient><linearGradient id="n" gradientUnits="userSpaceOnUse" x1="322.875" y1="-561" x2="265.725" y2="-562" spreadMethod="pad"><stop offset="0%" stop-color="#F2E24B"/><stop offset="100%" stop-color="#FAA228"/></linearGradient><linearGradient id="o" gradientUnits="userSpaceOnUse" x1="212.512" y1="-534.013" x2="279.788" y2="-561.188" spreadMethod="pad"><stop offset="0%" stop-color="#F3D72A"/><stop offset="100%" stop-color="#F2E661"/></linearGradient><linearGradient id="p" gradientUnits="userSpaceOnUse" x1="284.525" y1="-513.825" x2="257.875" y2="-579.775" spreadMethod="pad"><stop offset="0%" stop-color="#F4F5A6"/><stop offset="100%" stop-color="#F2E661"/></linearGradient><linearGradient id="q" gradientUnits="userSpaceOnUse" x1="264.375" y1="-533.288" x2="250.725" y2="-577.913" spreadMethod="pad"><stop offset="0%" stop-color="#F4D140"/><stop offset="100%" stop-color="#F8B12E"/></linearGradient><linearGradient id="r" gradientUnits="userSpaceOnUse" x1="285.738" y1="-519.25" x2="266.363" y2="-582.65" spreadMethod="pad"><stop offset="0%" stop-color="#FEFEFE"/><stop offset="100%" stop-color="#F3EF8F"/></linearGradient><linearGradient id="s" gradientUnits="userSpaceOnUse" x1="251.35" y1="-538.95" x2="248.85" y2="-510.25" spreadMethod="pad"><stop offset="0%" stop-color="#F2E661"/><stop offset="100%" stop-color="#F4F5A6"/></linearGradient><linearGradient id="t" gradientUnits="userSpaceOnUse" x1="365.9" y1="-615.25" x2="291.1" y2="-616.55" spreadMethod="pad"><stop offset="0%" stop-color="#F2E24B"/><stop offset="100%" stop-color="#FAA228"/></linearGradient><linearGradient id="u" gradientUnits="userSpaceOnUse" x1="351.938" y1="-591.025" x2="292.563" y2="-599.375" spreadMethod="pad"><stop offset="0%" stop-color="#F2EC78"/><stop offset="100%" stop-color="#F3D72A"/></linearGradient><linearGradient id="v" gradientUnits="userSpaceOnUse" x1="298.775" y1="-598.462" x2="375.925" y2="-586.238" spreadMethod="pad"><stop offset="0%" stop-color="#F2E661"/><stop offset="100%" stop-color="#F6F9BD"/></linearGradient><linearGradient id="w" gradientUnits="userSpaceOnUse" x1="278.162" y1="-605.313" x2="338.637" y2="-601.088" spreadMethod="pad"><stop offset="0%" stop-color="#F8B12E"/><stop offset="100%" stop-color="#F2E24B"/></linearGradient><linearGradient id="x" gradientUnits="userSpaceOnUse" x1="359.825" y1="-583.112" x2="292.175" y2="-585.487" spreadMethod="pad"><stop offset="0%" stop-color="#F6F9BD"/><stop offset="100%" stop-color="#F3D72A"/></linearGradient><linearGradient id="y" gradientUnits="userSpaceOnUse" x1="285.425" y1="-636.225" x2="350.075" y2="-672.075" spreadMethod="pad"><stop offset="0%" stop-color="#F2E661"/><stop offset="100%" stop-color="#F4F5A6"/></linearGradient><linearGradient id="z" gradientUnits="userSpaceOnUse" x1="312.225" y1="-721.788" x2="291.075" y2="-676.413" spreadMethod="pad"><stop offset="0%" stop-color="#F2E24B"/><stop offset="100%" stop-color="#FAA228"/></linearGradient><linearGradient id="A" gradientUnits="userSpaceOnUse" x1="331.613" y1="-705.975" x2="280.988" y2="-647.725" spreadMethod="pad"><stop offset="0%" stop-color="#F4F5A6"/><stop offset="100%" stop-color="#F3D72A"/></linearGradient><linearGradient id="B" gradientUnits="userSpaceOnUse" x1="314.688" y1="-697.038" x2="308.413" y2="-652.462" spreadMethod="pad"><stop offset="0%" stop-color="#FEFEFE"/><stop offset="100%" stop-color="#F3EF8F"/></linearGradient><linearGradient id="C" gradientUnits="userSpaceOnUse" x1="306.075" y1="-703.612" x2="299.725" y2="-658.388" spreadMethod="pad"><stop offset="0%" stop-color="#FEFEFE"/><stop offset="100%" stop-color="#F3EF8F"/></linearGradient><linearGradient id="D" gradientUnits="userSpaceOnUse" x1="112.375" y1="-556.425" x2="184.525" y2="-598.075" spreadMethod="pad"><stop offset="0%" stop-color="#F2E24B"/><stop offset="100%" stop-color="#FAA228"/></linearGradient><linearGradient id="E" gradientUnits="userSpaceOnUse" x1="149.5" y1="-523.025" x2="202.2" y2="-581.575" spreadMethod="pad"><stop offset="0%" stop-color="#F2E661"/><stop offset="100%" stop-color="#F3D72A"/></linearGradient><linearGradient id="F" gradientUnits="userSpaceOnUse" x1="204.35" y1="-580.55" x2="189.95" y2="-518.15" spreadMethod="pad"><stop offset="0%" stop-color="#F4F5A6"/><stop offset="100%" stop-color="#F2E661"/></linearGradient><linearGradient id="G" gradientUnits="userSpaceOnUse" x1="195.487" y1="-514.962" x2="182.713" y2="-559.538" spreadMethod="pad"><stop offset="0%" stop-color="#FEFEFE"/><stop offset="100%" stop-color="#F3EF8F"/></linearGradient><linearGradient id="H" gradientUnits="userSpaceOnUse" x1="205.787" y1="-513.238" x2="193.112" y2="-557.462" spreadMethod="pad"><stop offset="0%" stop-color="#FEFEFE"/><stop offset="100%" stop-color="#F3EF8F"/></linearGradient><linearGradient id="I" gradientUnits="userSpaceOnUse" x1="192.275" y1="-528.837" x2="191.025" y2="-564.363" spreadMethod="pad"><stop offset="0%" stop-color="#F3D72A"/><stop offset="100%" stop-color="#F6C237"/></linearGradient><linearGradient id="J" gradientUnits="userSpaceOnUse" x1="99.912" y1="-583.225" x2="171.787" y2="-612.275" spreadMethod="pad"><stop offset="0%" stop-color="#F2E661"/><stop offset="100%" stop-color="#F4F5A6"/></linearGradient><linearGradient id="K" gradientUnits="userSpaceOnUse" x1="155.9" y1="-616.975" x2="91" y2="-583.925" spreadMethod="pad"><stop offset="0%" stop-color="#F2E661"/><stop offset="100%" stop-color="#FEFEFE"/></linearGradient><linearGradient id="L" gradientUnits="userSpaceOnUse" x1="275.675" y1="-697.013" x2="256.825" y2="-650.388" spreadMethod="pad"><stop offset="0%" stop-color="#F3D72A"/><stop offset="100%" stop-color="#F6C237"/></linearGradient><linearGradient id="M" gradientUnits="userSpaceOnUse" x1="210.013" y1="-683.15" x2="198.588" y2="-732.65" spreadMethod="pad"><stop offset="0%" stop-color="#F2E661"/><stop offset="100%" stop-color="#F4F5A6"/></linearGradient><linearGradient id="N" gradientUnits="userSpaceOnUse" x1="194.8" y1="-694.938" x2="251.4" y2="-681.862" spreadMethod="pad"><stop offset="0%" stop-color="#F3D72A"/><stop offset="100%" stop-color="#F2E661"/></linearGradient><linearGradient id="O" gradientUnits="userSpaceOnUse" x1="85.912" y1="-616.7" x2="176.787" y2="-616.7" spreadMethod="pad"><stop offset="0%" stop-color="#F2E661"/><stop offset="100%" stop-color="#F3D72A"/></linearGradient><linearGradient id="P" gradientUnits="userSpaceOnUse" x1="160.925" y1="-612" x2="111.675" y2="-612" spreadMethod="pad"><stop offset="0%" stop-color="#F2E661"/><stop offset="100%" stop-color="#FEFEFE"/></linearGradient><linearGradient id="Q" gradientUnits="userSpaceOnUse" x1="132.075" y1="-635.775" x2="134.725" y2="-657.325" spreadMethod="pad"><stop offset="0%" stop-color="#F2E661"/><stop offset="100%" stop-color="#F4F5A6"/></linearGradient><linearGradient id="R" gradientUnits="userSpaceOnUse" x1="112.025" y1="-654.75" x2="161.875" y2="-619.85" spreadMethod="pad"><stop offset="0%" stop-color="#F4F5A6"/><stop offset="100%" stop-color="#FEFEFE"/></linearGradient><linearGradient id="S" gradientUnits="userSpaceOnUse" x1="94.063" y1="-658.413" x2="160.938" y2="-642.988" spreadMethod="pad"><stop offset="0%" stop-color="#F3D72A"/><stop offset="100%" stop-color="#F2E661"/></linearGradient><linearGradient id="T" gradientUnits="userSpaceOnUse" x1="93.125" y1="-652.425" x2="163.075" y2="-636.275" spreadMethod="pad"><stop offset="0%" stop-color="#F3D72A"/><stop offset="100%" stop-color="#F2E661"/></linearGradient><linearGradient id="U" gradientUnits="userSpaceOnUse" x1="178.55" y1="-660.613" x2="135.85" y2="-717.288" spreadMethod="pad"><stop offset="0%" stop-color="#F3D72A"/><stop offset="100%" stop-color="#F3EF8F"/></linearGradient><linearGradient id="V" gradientUnits="userSpaceOnUse" x1="142.113" y1="-676.238" x2="178.387" y2="-638.663" spreadMethod="pad"><stop offset="0%" stop-color="#F3D72A"/><stop offset="100%" stop-color="#F8B12E"/></linearGradient><linearGradient id="W" gradientUnits="userSpaceOnUse" x1="123.038" y1="-671.05" x2="182.263" y2="-635.45" spreadMethod="pad"><stop offset="0%" stop-color="#F4F5A6"/><stop offset="100%" stop-color="#F6F9BD"/></linearGradient><linearGradient id="X" gradientUnits="userSpaceOnUse" x1="161.25" y1="-649.662" x2="130.45" y2="-676.438" spreadMethod="pad"><stop offset="0%" stop-color="#F3D72A"/><stop offset="100%" stop-color="#F2E661"/></linearGradient><linearGradient id="Y" gradientUnits="userSpaceOnUse" x1="135.912" y1="-691.163" x2="179.888" y2="-664.738" spreadMethod="pad"><stop offset="0%" stop-color="#F4F5A6"/><stop offset="100%" stop-color="#FEFEFE"/></linearGradient><linearGradient id="Z" gradientUnits="userSpaceOnUse" x1="145.275" y1="-715" x2="186.025" y2="-656.8" spreadMethod="pad"><stop offset="0%" stop-color="#F6F9BD"/><stop offset="100%" stop-color="#F3D72A"/></linearGradient><linearGradient id="aa" gradientUnits="userSpaceOnUse" x1="171.675" y1="-715.713" x2="203.725" y2="-660.188" spreadMethod="pad"><stop offset="0%" stop-color="#F3D72A"/><stop offset="100%" stop-color="#F6C237"/></linearGradient><linearGradient id="ab" gradientUnits="userSpaceOnUse" x1="172.15" y1="-719.575" x2="191.25" y2="-672.325" spreadMethod="pad"><stop offset="0%" stop-color="#F2E661"/><stop offset="100%" stop-color="#F4D140"/></linearGradient><linearGradient id="ac" gradientUnits="userSpaceOnUse" x1="196.4" y1="-660.95" x2="171.1" y2="-703.05" spreadMethod="pad"><stop offset="0%" stop-color="#F4D140"/><stop offset="100%" stop-color="#F3EF8F"/></linearGradient><linearGradient id="ad" gradientUnits="userSpaceOnUse" x1="173.825" y1="-727.725" x2="214.975" y2="-668.975" spreadMethod="pad"><stop offset="0%" stop-color="#F6F9BD"/><stop offset="100%" stop-color="#F3D72A"/></linearGradient><linearGradient id="ae" gradientUnits="userSpaceOnUse" x1="148.3" y1="-707.137" x2="186.1" y2="-653.163" spreadMethod="pad"><stop offset="0%" stop-color="#F6F9BD"/><stop offset="100%" stop-color="#F3D72A"/></linearGradient><linearGradient id="af" gradientUnits="userSpaceOnUse" x1="256.137" y1="-726.825" x2="240.162" y2="-657.675" spreadMethod="pad"><stop offset="0%" stop-color="#F4F5A6"/><stop offset="100%" stop-color="#F2E661"/></linearGradient><linearGradient id="ag" gradientUnits="userSpaceOnUse" x1="239.4" y1="-705.075" x2="232.9" y2="-658.825" spreadMethod="pad"><stop offset="0%" stop-color="#F4D140"/><stop offset="100%" stop-color="#F8B12E"/></linearGradient><linearGradient id="ah" gradientUnits="userSpaceOnUse" x1="258.337" y1="-722.35" x2="248.963" y2="-655.65" spreadMethod="pad"><stop offset="0%" stop-color="#FEFEFE"/><stop offset="100%" stop-color="#F3EF8F"/></linearGradient><linearGradient id="ai" gradientUnits="userSpaceOnUse" x1="229.175" y1="-697.987" x2="222.625" y2="-726.313" spreadMethod="pad"><stop offset="0%" stop-color="#F2E661"/><stop offset="100%" stop-color="#F4F5A6"/></linearGradient><linearGradient id="aj" gradientUnits="userSpaceOnUse" x1="259.375" y1="-653.775" x2="282.025" y2="-719.525" spreadMethod="pad"><stop offset="0%" stop-color="#F4D140"/><stop offset="100%" stop-color="#F4F5A6"/></linearGradient><linearGradient id="ak" gradientUnits="userSpaceOnUse" x1="229.075" y1="-611.938" x2="227.425" y2="-658.862" spreadMethod="pad"><stop offset="0%" stop-color="#FC901F"/><stop offset="100%" stop-color="#F8B12E"/></linearGradient><linearGradient id="al" gradientUnits="userSpaceOnUse" x1="221.7" y1="-656.725" x2="223.3" y2="-625.975" spreadMethod="pad"><stop offset="0%" stop-color="#EDFE4E"/><stop offset="36.863%" stop-color="#F4D140"/><stop offset="100%" stop-color="#F8B12E"/></linearGradient><linearGradient id="am" gradientUnits="userSpaceOnUse" x1="306.512" y1="-631.287" x2="374.588" y2="-650.813" spreadMethod="pad"><stop offset="0%" stop-color="#F3D72A"/><stop offset="100%" stop-color="#F3EF8F"/></linearGradient><linearGradient id="an" gradientUnits="userSpaceOnUse" x1="369.238" y1="-643.325" x2="299.262" y2="-624.575" spreadMethod="pad"><stop offset="0%" stop-color="#F6F9BD"/><stop offset="100%" stop-color="#F3D72A"/></linearGradient><linearGradient id="ao" gradientUnits="userSpaceOnUse" x1="359.925" y1="-642.725" x2="296.275" y2="-625.675" spreadMethod="pad"><stop offset="0%" stop-color="#F6F9BD"/><stop offset="100%" stop-color="#F3D72A"/></linearGradient><linearGradient id="ap" gradientUnits="userSpaceOnUse" x1="189.463" y1="-577.737" x2="263.538" y2="-649.263" spreadMethod="pad"><stop offset="0%" stop-color="#FE480D"/><stop offset="25.882%" stop-color="#FE7115"/><stop offset="56.863%" stop-color="#FD8118"/><stop offset="100%" stop-color="#FE6413"/></linearGradient><linearGradient id="aq" gradientUnits="userSpaceOnUse" x1="247.95" y1="-635.7" x2="212.35" y2="-635.7" spreadMethod="pad"><stop offset="0%" stop-color="#FE3709"/><stop offset="100%" stop-color="#9D2032"/></linearGradient><linearGradient id="ar" gradientUnits="userSpaceOnUse" x1="105.287" y1="-552.888" x2="154.612" y2="-572.813" spreadMethod="pad"><stop offset="0%" stop-color="#F3EF8F"/><stop offset="100%" stop-color="#FEFEFE"/></linearGradient><linearGradient id="as" gradientUnits="userSpaceOnUse" x1="187.438" y1="-584.962" x2="139.762" y2="-511.538" spreadMethod="pad"><stop offset="0%" stop-color="#F2E661"/><stop offset="100%" stop-color="#F6F9BD"/></linearGradient><linearGradient id="at" gradientUnits="userSpaceOnUse" x1="285.05" y1="-600.087" x2="358.55" y2="-550.512" spreadMethod="pad"><stop offset="0%" stop-color="#F2E661"/><stop offset="100%" stop-color="#F6F9BD"/></linearGradient><linearGradient id="au" gradientUnits="userSpaceOnUse" x1="181.613" y1="-540.1" x2="157.488" y2="-516.8" spreadMethod="pad"><stop offset="0%" stop-color="#F3D72A"/><stop offset="100%" stop-color="#F3EF8F"/></linearGradient><linearGradient id="av" gradientUnits="userSpaceOnUse" x1="186.175" y1="-551.387" x2="176.925" y2="-534.712" spreadMethod="pad"><stop offset="0%" stop-color="#F2EC78"/><stop offset="100%" stop-color="#F2E661"/></linearGradient><linearGradient id="aw" gradientUnits="userSpaceOnUse" x1="179.787" y1="-538.512" x2="193.513" y2="-563.288" spreadMethod="pad"><stop offset="0%" stop-color="#F6F9BD"/><stop offset="38.824%" stop-color="#F2EC78"/><stop offset="100%" stop-color="#F3D72A"/></linearGradient><linearGradient id="ax" gradientUnits="userSpaceOnUse" x1="179.725" y1="-539.962" x2="193.975" y2="-564.637" spreadMethod="pad"><stop offset="0%" stop-color="#FEFEFE"/><stop offset="38.824%" stop-color="#F8FED5"/><stop offset="100%" stop-color="#F2EC78"/></linearGradient><linearGradient id="ay" gradientUnits="userSpaceOnUse" x1="336.762" y1="-603.1" x2="357.738" y2="-596.7" spreadMethod="pad"><stop offset="0%" stop-color="#F3D72A"/><stop offset="100%" stop-color="#F3EF8F"/></linearGradient><linearGradient id="az" gradientUnits="userSpaceOnUse" x1="330.275" y1="-607.962" x2="340.925" y2="-601.038" spreadMethod="pad"><stop offset="0%" stop-color="#F2EC78"/><stop offset="100%" stop-color="#F2E661"/></linearGradient><linearGradient id="aA" gradientUnits="userSpaceOnUse" x1="337.95" y1="-601.85" x2="322.95" y2="-612.75" spreadMethod="pad"><stop offset="0%" stop-color="#F6F9BD"/><stop offset="38.824%" stop-color="#F2EC78"/><stop offset="100%" stop-color="#F3D72A"/></linearGradient><linearGradient id="aB" gradientUnits="userSpaceOnUse" x1="337.838" y1="-602.725" x2="322.363" y2="-613.175" spreadMethod="pad"><stop offset="0%" stop-color="#FEFEFE"/><stop offset="38.824%" stop-color="#F8FED5"/><stop offset="100%" stop-color="#F2EC78"/></linearGradient><filter id="aD" x="-20%" y="-20%" width="140%" height="140%" color-interpolation-filters="sRGB"><feColorMatrix in="SourceGraphic" values="0.88 0 0 0 0 0 0.88 0 0 0 0 0 0.88 0 0 0 0 0 1 0" result="result1"/></filter><path fill="#FFF" fill-opacity="0" d="M0 0v320h284V0H0z" id="aC"/><path fill="url(#a)" d="M251.7-451.9q4.5-6.5 6.35-10.45 2.55-5.55 3.25-11.85 1.65-14.4.65-13.9-5.6 2.9-7.85 4.6-3.65 2.85-5.5 7-1.9 4.6-2.15 5.3-1 2.95-1.35 5.95l-1.95 32.35q.8-5.1 3.65-10.8 1.8-3.55 4.9-8.2z" id="aE"/><path fill="#C7EF6A" d="M270.8-407.6q4.2-8.4 7.4-18.8 2.05-6.35 2.4-7.25 1.25-3.4 2.55-4.7-16.25 2.9-27.15 25.65-5.05 11.7-7.2 16.5-3.6 8.25-6.45 10.1l-2.4 12.55q12.25-6.7 20.1-17 6.25-8.1 10.75-17.05z" id="aF"/><path fill="url(#b)" d="M274.8-420.4q3.35-8.7 4.25-10.8 2.45-5.5 4.55-7.65-16.3 2.85-27.45 24.45-5.2 11.15-7.35 15.75-3.7 7.9-6.5 9.75l-2.4 12.55q11.8-6.45 20.1-16.9 9.35-12.3 14.8-27.15z" id="aG"/><path fill="url(#c)" d="M254.05-398.65q2.4-3.8 7.75-14.9 4.55-9.3 8.25-14.15 5.5-7.15 13.35-11.15-17.45 2.15-28.4 23.55-1.95 3.8-7 15.95-3.45 8.35-5.7 10.45l-.9 4.25q.6-.4.8-.65 6.75-5.15 11.85-13.35z" id="aH"/><path fill="url(#d)" d="M217.15-613q-19.1-.95-22.9-1.1 12.85 9.05 23.8 39.55 10.85 30.3 16 71.15 5.5 43.65 2.7 86.3-3.15 47.45-16.2 84.8l12.45.2q9.45-30.45 13-69.8 3.35-37.4.9-77.25-2.4-39.35-9.95-74-7.85-35.6-19.8-59.85z" id="aI"/><path fill="url(#e)" d="M237.75-529.65q-2.7-.8-5.6-1.8 4.9 20.7 7.4 47.3 1.2 13.25 3.15 48.1.35-29.15-.35-46.7-1.05-25.7-4.6-46.9z" id="aJ"/><path fill="#89C12D" d="M226.85-334.65q-2.6 0-4.45.75t-1.95 1.8q-.05 1.1 1.75 1.85t4.4.75q2.6-.05 4.45-.8 1.9-.75 1.95-1.85.05-1.1-1.75-1.85-1.8-.7-4.4-.65z" id="aK"/><path fill="url(#f)" d="M212.45-457.2q.45 1.15 4.5 6.9 2.85 4.15 5.15 11.05 2.35 7.8 3.7 11.55 4.9 13.4 16.25 17.15-.5-5.45-4.3-14-2.05-4.75-6.15-13.5-2.7-7.05-5.45-11.1-3.75-5.65-8.95-8.2-5.9-2.85-4.75.15z" id="aL"/><path fill="url(#g)" d="M218.35-578.6q-4.75 12.85-7.7 28.5-3.05 16.3-2.95 29 .15 14.15 4.35 19.95 1.9 2.6 4 3 2.65.45 5.35-2.55 5 5.8 8.65 1.15 2.8-3.45 4.9-13.1 3.75-16.7 3.25-38.15-.55-21.7-5.2-37.45l-4.75-8.7q-4.95 4.9-9.9 18.35z" id="aM"/><path fill="url(#h)" d="M214-499.05q4.6 2.5 8.25-2.35 2.3-2.95 3.3-6.85 3.7-13.95 4.85-30.2 1.2-17.55-1.15-30.8.7 14.3-.9 30.4-1.95 19.55-6.6 30.8-1.6 3.85-2.8 5.55-2 2.7-4.95 3.45z" id="aN"/><path fill="url(#i)" d="M229.8-581.65l-7.2.3q-6.6 13.05-8.65 32.8-1.8 17.55.8 24.8-.7-13.2 3.8-29.55 4.05-14.8 11.25-28.35z" id="aO"/><path fill="url(#j)" d="M222.7-499.25q3.75 4.2 7.65-.05 2.75-3.05 4.3-8.25 3.8-12.65 3.9-34.8.1-21.35-3.1-35.6 1.95 19.3-.3 44.55-2.9 33.1-12.45 34.15z" id="aP"/><path fill="url(#k)" d="M338.2-550.15q12.25 2.55 12.6-7.85 9.55-6.1-2.8-15.35-3.95-3-10.3-6.3-3.3-1.75-7.2-3.65-15.8-8.75-33.7-13.9-17.15-4.9-33.55-5.75l4.15 4.05q2.4 4.45 15.45 15.4 13.8 11.5 28.15 20.55 16.95 10.65 27.2 12.8z" id="aQ"/><path fill="url(#l)" d="M326.4-534.25q2.5-2.55.85-7.5-3.85-11.45-22.25-25.9-20.8-16.4-44.7-22.75l-4.35 7.35q7.95 13.35 21.15 27.8 15.1 16.55 26.65 22.35 6.85 3.45 10.45 3.1 3.4-.35 2.95-3.95 6.5 2.35 9.25-.5z" id="aR"/><path fill="url(#m)" d="M267.25-575q24.2 15.85 50.2 42.25-2.75-6.5-16.4-19.4-16.9-15.85-33.8-22.85z" id="aS"/><path fill="url(#n)" d="M327-534.95q1.7-2.6.25-6.8-3.85-11.45-22.25-25.9-20.8-16.4-44.7-22.75l-1.45 2.45q15.55 7.3 29.3 16.25 14.85 9.7 26.4 20.6 7.85 7.4 10.1 11.95 2.95 6-4.25 6.25 4.7.8 6.6-2.05z" id="aT"/><path fill="url(#o)" d="M261.15-555.45q-5.4-18.15-13.45-33.9l-8.4-6.45q-3.45 5.6-4.65 19.1-1.15 12.75.05 28 1.25 15.65 4.45 27.6 3.5 13.15 8.45 17.9 2.25 2.15 4.1 2.2 2.45.05 3.75-3.65 5.65 4.6 8.9-.9 2.75-4.65 2.85-13.8.1-15.4-6.05-36.1z" id="aU"/><path fill="url(#p)" d="M252.35-577.75q.4 12.55 3.5 27.2 3.2 15.05 7.9 26.25 5.2 12.3 10.8 16.2 2.6 1.8 4.5 1.6 2.45-.3 3.35-4.15 6.35 3.7 9-2.15 2.3-4.9 1.2-13.75-1.9-16.1-10.7-33.65-8.9-17.7-22.15-31.45l-4.95-5.3q-2.85 5.9-2.45 19.2z" id="aV"/><path fill="url(#q)" d="M262.55-551.8q-3.8-14.35-10.2-28.4.1 14.45 4.05 32.05 4.05 18.05 10 29.5.3-2.25.3-4.65.15-12.4-4.15-28.5z" id="aW"/><path fill="url(#r)" d="M278.05-556.35q-9.2-19.3-18.3-30.7 10.2 16.7 19.15 40.25 11.85 31.05 3.7 36.15 5.25 2.15 6.85-3.3 1.15-3.95.25-9.3-2.1-13.05-11.65-33.1z" id="aX"/><path fill="url(#s)" d="M256.25-548.45q-2.75-11.85-7.65-26.65 4.25 16.05 6.75 29.65 3 16.6 2.4 24.95-.25 3.55-1.7 4.35-1.55.85-3.5-2.9-5.391-10.234-9.6-45.9.09.817.45 6.9.45 7.35 1.05 13.15 1.6 16.9 1.6 23.85-.05 11.45-3.5 10 2.95 4.2 5.15 2.4 1.7-1.45 1.9-4.7 5 5.45 8.25 1.85 2.8-3.1 2.5-9.7-.65-12.4-4.1-27.25z" id="aY"/><path fill="url(#t)" d="M353.6-629.25q-6.8-.3-18.15.6-15 1.15-34.3 5-5.55 1.1-24.4 5.4l3.1 8.05q9.6 2.75 23.55 4.85 14.9 2.3 29.65 3.05 13.95.75 20.65.4 10.75-.6 15.35-3.85 3.5-2.45 3.4-4.7-.05-1.45-1.9-3.4-1.85-1.95-1.8-2.6.05-1.25 3.75-2.25 4.1-1.05 1.3-4.15-2.15-2.35-5-3.55-5.65-2.5-15.2-2.85z" id="aZ"/><path fill="url(#u)" d="M367.65-595.9q-4.55-5.55-18.2-9.4-12.25-3.45-28.8-4.7-15.9-1.25-29.55 0-14.25 1.25-20.3 4.75l7.2 6.9q14.05 8.6 34.8 14.75 20.55 6.1 37.7 6.8 9.9.45 13.95-1.3 5.4-2.35 1.1-8.65 3.6-1.9 3.85-4.55.2-2.15-1.75-4.6z" id="ba"/><path fill="url(#v)" d="M364.65-586.1q5.65-2.3 4.4-7.4-1.45 2.65-4.6 3.9-1.85.7-6.1 1.3-12.05 1.5-31.4-1.7-16-2.65-29.6-7.05 12.15 5.75 29.5 9.15 15.95 3.1 30.35 3.2 4.05 0 7.45-1.4z" id="bb"/><path fill="url(#w)" d="M282.9-606.4l-6.65 5.05q14.2-3.2 32.6-2.6 18.7.65 31.8 4.9-6.35-4.4-23.8-7.2-19.6-3.1-33.95-.15z" id="bc"/><path fill="url(#x)" d="M364.6-577.8q5.1-2.6 2-7.35-3.5 8.95-36.25 3.15-24.85-4.4-43.05-11.3 12.9 6.85 33.55 12.3 21.5 5.65 34.7 5.2 5.5-.15 9.05-2z" id="bd"/><path fill="url(#y)" d="M331.95-645.75q40.85-22.5 25.55-36.75-8-7.35-34.15 9.15-23.5 14.9-47.8 39.5l5.1 9.8q5.4-1.2 19.75-6.95 17.7-7.1 31.55-14.75z" id="be"/><path fill="#F3D72A" d="M315.45-657.35q-11.7 7.4-32.3 22.1 19.75-10.5 34.05-19.1 18.3-11 33.35-22.3-17.35 8-35.1 19.3z" id="bf"/><path fill="#FEFEFE" d="M320.55-651q-11.85 6.45-33.65 19.9 20.25-9.1 35.15-16.8 18.9-9.75 34.8-20.05-17.8 6.85-36.3 16.95z" id="bg"/><path fill="url(#z)" d="M322.05-717.65q-3.1.55-3.95-.05-.8-.55-1.25-3.45-.35-2.05-4.95-1.05-2.85.6-5.7 1.85-16.95 7.2-30.9 33.5-8.05 15.2-14 34.5l8.85 10.9Q286-651 304.6-672.65q20.35-23.75 21.05-37.55.35-7.95-3.6-7.45z" id="bh"/><path fill="url(#A)" d="M335.3-697.9q-.6-2.1-2.5-2-2.9.05-3.6-.6-.65-.6-.75-3.25-.15-2.85-9.65-.5-16.1 4.6-31.65 26.85-8.65 12.35-16.6 29.6l6.85 10.8q15.4-6.9 34.55-24.3 21.05-19.2 23.3-31.55.55-3.2.05-5.05z" id="bi"/><path fill="url(#B)" d="M334-693.75q-.5-4.4-4.1-5.55-3.15-.95-7.9.75-6.25 2.3-15.75 13.05-6.7 7.6-15.9 20.4 1.7-1.15 7.85-7.35 7.35-7.35 11.6-11.05 16.1-14.05 24.2-10.25z" id="bj"/><path fill="url(#C)" d="M328.55-702.15q-.1-.45-.1-1.6-.15-2.85-9.65-.5-12.3 3.5-24.3 17.4-8.8 10.1-17 25.15 10.95-17.6 23.8-29.15 5.8-5.2 13.05-9.05 10-5.3 14.2-2.25z" id="bk"/><path fill="url(#D)" d="M126.2-545.85q8.65-2.5 17.05-7.95 2.6-1.65 17.75-12.8 8.65-6.25 21.5-22.25 5.797-7.202 12.4-15.85-16.964 1.683-38.55 8.45-25.35 7.95-41.6 17.95-4.75 2.95-8.4 6-5.9 4.9-6.2 7.9-.5 4.4 1 6.15 1.7 2 6.65 1.8-1.35 3.45-1.55 5.35-.4 3.3 1.75 4.6 6.35 4.05 18.2.65m75.45-59.3l-4.9-1.95q-.93 1.223-1.85 2.4 3.474-.323 6.75-.45z" id="bl"/><path fill="url(#E)" d="M143.95-520.7q3.75 4.7 10.05 4.75 7.05 0 14.75-6.2 12.8-10.25 27.9-33.15 12.45-18.85 15.45-27.55L195.6-595q-8.05 12.15-22.15 25.85-16.9 15.55-26 24.65-5.75 5.8-6.5 12.75-.7 6.5 3 11.05z" id="bm"/><path fill="url(#F)" d="M215.4-578.65l-10.65-7.1q-11.25 12.6-21.55 36.35-11.35 26.15-8.3 38.25.75 3.15 1.95 4.7 1.45 1.75 3.15.85 2.6-1.3 3.5-1 .8.25 1.95 2.65.9 1.7 4.65-.4 2.2-1.25 4.35-3.1 12.85-10.8 18-37.4 2.85-15.1 2.95-33.8z" id="bn"/><path fill="url(#G)" d="M194.25-530.05q-9 19.4-17.95 19.25 2.3 3.9 6 3.45 3.3-.4 6.9-3.95 4.8-4.65 9.1-18.35 3.05-9.6 6.2-25.1-1.05 1.75-4.15 9.9-3.7 9.65-6.1 14.8z" id="bo"/><path fill="url(#H)" d="M196.8-513.2q-6.95 8.95-12.05 7.9.6 1 .7 1.35.9 1.7 4.65-.4 2.2-1.25 4.35-3.1 9.8-8.2 15.15-25.75 3.95-13.05 5.15-29.9-2.75 20.65-9.75 36.35-3.25 7.2-8.2 13.55z" id="bp"/><path fill="url(#I)" d="M203.75-551.1q3.15-10.8 4.6-17.4-7.5 20.65-11.8 29.9-11.1 23.95-18.05 21.35-.85-.35-1.65-2.95-.4-1.25-.65-2.25-1.25 4.35-.85 8.4.55 5.4 4.2 5.8 4.35.4 8.3-4.6 3.25-4.1 7.1-13.05 4.35-10.2 8.8-25.2z" id="bq"/><path fill="url(#J)" d="M189.8-615.25l-11.3-4.95q-20.2.6-41.3 5.4-24.05 5.45-39.2 14.45-8.9 5.3-11.8 10.85-3.45 6.55 4.45 9.9-2.95 3.45-1.45 5.95 1.1 1.9 4.6 3.05 7.6 2.4 22.6-1.5 13.7-3.55 29.8-11.25 15.75-7.5 27.6-16.05 12.55-9.05 16-15.85z" id="br"/><path fill="url(#K)" d="M154.2-606.9l-4.5-7.85q-17.1.95-38.3 11.2-18.85 9.2-24.7 16.75 13-9.25 32.15-14.6 17.45-4.95 35.35-5.5z" id="bs"/><path fill="url(#L)" d="M282.1-725.5q-2.7-3.55-6.4-.7-8.8 6.75-16.6 33.95-7 24.45-6.55 37.6l10.95 6.7q10.4-5.85 19.55-28.7 7.5-18.65 9.75-35 1.15-8.4-1.4-11.65-2.6-3.3-6.8 1.35-.45.5-2.5-3.55z" id="bt"/><path fill="url(#M)" d="M224.55-654.2q.05-19-1.7-35.5Q218-735.5 202.7-735q-20.95.6-8.9 49.9 4.25 17.4 12.05 38.45 6.05 16.35 11.15 27.1l6.4-10.15q1.15-8.3 1.15-24.5z" id="bu"/><path fill="url(#N)" d="M218.1-732.3q-4.15 5.45-5.55 19-1.3 12.35-.05 27.95 1.2 15.3 4.35 27.65 3.35 13.15 7.65 18.1l7.2-7.7q5.5-16.8 8-35.55 2.85-21.5.35-36.65-1.55-9-4.95-13.15-4.1-4.9-9 .55-1.85-3.5-4.25-3.1-1.85.35-3.75 2.9z" id="bv"/><path fill="url(#O)" d="M178.2-607.75l.55-8.5q-17.25-7.65-33.35-11.85-20.25-5.3-37.1-4.65-4.3-.05-8.05 0-7.2.15-12.05 1.05-15.25 2.7-9.45 12.4-4.4 9.45 8.75 14.3 11 4.1 32.3 4.4 18.3.3 36.65-2.05 17.65-2.3 21.75-5.1z" id="bw"/><path fill="url(#P)" d="M172.5-610.2l1.5-7.55q-15.6 5.4-32 7.25-18.1 2.1-32.05-.85 7.25 4 26.25 4.95 21.3 1.05 36.3-3.8z" id="bx"/><path fill="url(#Q)" d="M179.35-624.95l-4.95-9.25q-5.8-4-17.95-10-14.3-7.1-27.45-11.7-36.5-12.9-42.4.35-8.15 18.05 33.9 26.1 14.8 2.8 33.9 3.95 14.8.9 24.95.55z" id="by"/><path fill="url(#R)" d="M87.1-652.35q17.9 9.05 38.7 13.65 18.65 4.15 46.15 6.05l-84.85-19.7z" id="bz"/><path fill="url(#S)" d="M175.4-634.1q4.7 1.5-8.9-5.25-13.25-6.65-20.05-9.4-19.55-7.85-31.15-10.3-21.6-4.6-29.2 4 5.45-3 17.05-1.75 9.35 1 21.6 4.6 9.85 2.9 25.4 8.85 18.1 6.85 25.25 9.25z" id="bA"/><path fill="url(#T)" d="M180-633.25q-5.75-1.55-7.05-2-15.15-5.35-38.75-11.5-26-6.7-41.55-8.8-4.6-.65-6.3.8-1.85 1.6 3.2 3.95 9.3 4.4 43.4 11.45 32.9 6.8 43.75 7.1 6.95.3 3.3-1z" id="bB"/><path fill="url(#U)" d="M190.65-637.15l6.25-6.05q-3.1-14.65-16.05-36.35-11.3-18.95-23.6-33.1-5.05-5.85-10.4-7.2-5.2-1.35-6.4 2.65-3.7-1.3-5.95.65-1.85 1.55-2.25 4.65-.9 6.95 5.55 19.15 5.8 11 16 23.55 9.85 12.05 19.85 20.9 10.5 9.25 17 11.15z" id="bC"/><path fill="url(#V)" d="M182.5-633.25l8.1-8.85q-6.15-13.75-19.5-28.05-15.3-16.45-33.1-25.5-9.25-4.75-16.05-4.4-6.2.3-6.55 4.3-3.75.35-4.7 3.1-.85 2.4.6 4.55l11.55 15.9 59.65 38.95z" id="bD"/><path fill="url(#W)" d="M184.75-629.8l-2.4-10.65q-10.45-13.35-26.1-26.1-16.7-13.6-31.4-19.85-8.6-3.65-13.3-3.2-5.9.6-4.15 7.9-7.05-.4-4.75 7 2.25 6.65 12.95 15.3 9.7 7.85 23.6 15.3 13.65 7.25 25.9 11.2 13 4.25 19.65 3.1z" id="bE"/><path fill="url(#X)" d="M182.95-638l-.6-2.45q-10.45-13.35-26.1-26.1-16.7-13.6-31.4-19.85-7.8-3.3-12.4-3.25-5.8.05-5.4 5.55l.25.15q6.25-6.9 34.6 12.1 24.6 16.5 41.05 33.85z" id="bF"/><path fill="#F3D72A" d="M109.6-681.05q15.9 11.65 34.5 23.25 11.4 7.15 34.65 20.8-39.7-27.25-69.15-44.05z" id="bG"/><path fill="#F2EC78" d="M184.75-629.8l-.05-.5q-15.2-3.85-39.35-18.4-21.6-13-32.65-23.2-3.2-2.85-4.85-4.75-3.65-4.25-1-4.9l-.2-.15q-6.2 0-4 7 2.25 6.65 12.95 15.3 9.7 7.85 23.6 15.3 13.65 7.25 25.9 11.2 13 4.25 19.65 3.1z" id="bH"/><path fill="#F2EC78" d="M144.45-681.8q-7.8-5.7-12.35-8.15-5.85-3.15-13.75-5.35 10.1 7.95 26.1 13.5z" id="bI"/><path fill="url(#Y)" d="M181.35-657.75q-8-11.15-18.6-20.65-11.85-10.7-24.75-17.25-8.15-4.2-14.55-4.45-5.75-.2-7.55 2.7 2.95-1.45 7.75-.75 4.55.65 10.1 3.2 10.5 4.95 24.1 15.75 12.4 9.85 23.5 21.45z" id="bJ"/><path fill="url(#Z)" d="M184.5-670.55q2.3 3.75 8.95 16-5.45-14.1-16.45-31.3-9.85-15.45-19.75-26.8-5.05-5.85-10.4-7.2-5.2-1.35-6.4 2.65-4.75-1.65-7.05 1.85 3.45-1.45 5.85-.45 1.35.6 4.1 3.3.05-9.2 12.3 4.1 2.8 3 15.85 19.5 7.9 10 13 18.35z" id="bK"/><path fill="url(#aa)" d="M174.6-735.55q-5.55-3.1-8.2 4.75-3.9-1.9-6.35-.35-1.95 1.2-2.8 4.5-1.85 7.55 3.75 21.8 5 12.8 14.7 27.85 9.3 14.45 19.25 25.35 10.4 11.4 17.35 14.3l1.25-10.65q-1.8-17.7-10-39.55-8.2-21.7-18.75-36.85-6.05-8.8-10.2-11.15z" id="bL"/><path fill="url(#ab)" d="M173.65-725q-2.75-3.55-6.1-5.5-5.65-3.35-9.25 1.05 3.3-.45 6.4 1.45 2 1.25 5.05 4.4 9.2 9.4 19.05 28.1 8.25 15.55 13.3 30-2.95-14.15-11.35-31.25Q183-712.5 173.65-725z" id="bM"/><path fill="url(#ac)" d="M178.4-679.95q10.05 18.85 21.95 29.3l7.35-2.7q-12.7-10.6-22.8-23.75-11.05-14.45-15.75-28 .3 8.3 9.25 25.15z" id="bN"/><path fill="url(#ad)" d="M174.75-735.85q-5.55-2.65-7.65 3.1 9.95-2.85 26.35 29.05 12.35 24.2 18.35 44.4-2.55-15.6-11.35-36.8-9.1-22.15-18.1-33.25-3.6-4.6-7.6-6.5z" id="bO"/><path fill="url(#ae)" d="M165.55-680.85q7.95 11.3 23.9 32.6-12.7-19.65-22.4-33.75-12.55-18.3-24.4-33.7 10.25 16.95 22.9 34.85z" id="bP"/><path fill="url(#af)" d="M253.65-730.45q-2.6-6.45-8.15-1.2-4.9 4.7-8.1 17.65-2.95 11.8-3.7 27.1-.75 15 .8 27.45 1.7 13.2 5.45 18.55l8.35-6.55q7.8-15.45 12.8-33.4 5.7-20.35 5.15-35.5-.4-8.95-3.35-13.4-3.55-5.3-9.25-.7z" id="bQ"/><path fill="url(#ag)" d="M240.2-715.5q-.3-1.95-1-4.6-4.15 12.25-5.35 30.75-1.15 17.95 1 32.25 4.1-14.9 5.7-29.55 1.75-16.65-.35-28.85z" id="bR"/><path fill="url(#ah)" d="M261.15-728.3q-2.45-5.15-7.3-2.2 8.85 3.75 2.1 36.3-5.2 24.75-12.65 42.65 7.2-12.6 13.25-33.1 6.25-21.2 6.3-34.5 0-5.5-1.7-9.15z" id="bS"/><path fill="url(#ai)" d="M219.05-726.9q-2.4-1.5-4.65 3.15 3.15-1.8 4.75 1.7 1.15 2.55 1.25 6.95 2.2-8.95 5.7-8.75 3.15.15 4.75 7 1.9 8.05 1.5 24.95-.3 13.3-1.95 30.4 2.45-15.55 3.3-27.5 1.05-15.3-.2-27.55-.7-6.6-3.95-9.25-3.75-3-7.85 3.2-.8-3.2-2.65-4.3z" id="bT"/><path fill="url(#aj)" d="M248.9-649.4l9.8 2.7q12.65-14.8 21.1-40.5 7.55-22.95 6.05-33.8-2.8 18.05-13.6 38.2-9.75 18.1-23.35 33.4z" id="bU"/><path fill="url(#ak)" d="M227.25-661.7q-24.55.95-41.45 14.25-16.95 13.3-16.25 31.05.7 17.8 18.6 29.75 17.85 12 42.3 11 24.5-.95 41.4-14.25t16.2-31.05q-.65-17.75-18.5-29.7t-42.3-11.05z" id="bV"/><path fill="url(#al)" d="M236.9-655.6q-11.6-.5-23.35 2.2-10.6 2.45-19.55 7.1-9.7 5.05-15.35 11.75l17.6-7.25 37.7.5q-4.15.15-6.55 2.3-2.45 2.2-1.2 4.65 2.8 5.65 13.2 7.25 8.8 1.35 15.85-.55 11.7-3.3 11.6-11.7-.15-8.2-11.05-12.6-7.85-3.2-18.9-3.65z" id="bW"/><path fill="url(#am)" d="M374.05-652.35q-.85-2.25-3.6-3.75-6.2-3.25-19.9-1.45-12.35 1.65-27.65 6.85-14.75 4.95-26.45 11.3-12.3 6.6-16.35 12.05l3.2 2.25q15.55 1.25 38.15-.55 25.15-2.05 41-6.75 7.3-2.15 10.45-6.95 3.05-4.6-.3-7.2 2.45-3 1.45-5.8z" id="bX"/><path fill="url(#an)" d="M371.65-648.2q-1.05 1.1-4.5 2.7 11.8 4.45-28.2 12.55-12.8 2.6-29.55 5.25-10.35 1.7-16.05 2.45 24.2-.35 36.1-1.25 21.7-1.6 33-5.9 7.25-2.7 10.4-7.2 3.05-4.45-.25-6.95 3.15-3.9.65-7.2.2 3.65-1.6 5.55z" id="bY"/><path fill="url(#ao)" d="M370.35-645q-19.6 3.75-40.55 9.3-14.55 3.85-38.9 11.1 23.25-5.2 39.45-9.3 21.6-5.4 40-11.1z" id="bZ"/><path fill="url(#ap)" d="M175.25-631.35q-8 10.35-4.2 23.6 4.3 14.65 21.15 23.8 16.9 9.15 38.25 8.3 24.5-.95 41.4-14.25t16.2-31.05q-.35-9.1-5.7-17.2-5.2-7.8-14.3-13.45 5.4 5.3 6.75 11.7 1.3 5.95-1.1 11.75-2.35 5.7-7.65 9.9-5.5 4.3-12.85 5.9-8 1.65-19 1.35-10.55-.3-15.4-2.1-11.3-4.1-14.2-11.15-2.5-6.15 3.4-11.5 6.1-5.55 15.4-4.25 3.75.5 9.2 3.05 6.45 2.95 7.25 3.2 3.95 1.15 7.55 1.35 3.4.15 5.9-1.1 3.05-1.45 3.6-4.6.45-2.8-1.45-5.55-2.15-3.05-6.5-4.8-9.25-3.65-23.95-3-15 .7-28.15 5.65-14.65 5.5-21.6 14.45z" id="ca"/><path fill="#FC901F" d="M221.3-595.15q-1.25.05-2.15 1-.85.95-.8 2.25 0 1.25 1 2.15.95.85 2.2.8 1.25 0 2.2-1 .9-.95.8-2.25-.05-1.25-1-2.15-.95-.85-2.25-.8z" id="cb"/><path fill="#FC901F" d="M228.1-591.65q-1.3.1-2.2 1.05-.9.9-.85 2.2.1 1.3 1.05 2.15.9.9 2.2.8 1.3 0 2.2-.95.9-.95.85-2.2-.05-1.3-1-2.2-.95-.9-2.25-.85z" id="cc"/><path fill="#FC901F" d="M227.6-599.2q-1.3.1-2.15 1-.85.95-.8 2.25.05 1.25 1 2.15.95.85 2.25.8 1.25 0 2.1-.95.9-.95.85-2.2-.05-1.3-1-2.2-.95-.9-2.25-.85z" id="cd"/><path fill="#FC901F" d="M220.7-602.7q-1.3.05-2.2 1-.9.9-.85 2.2.05 1.3 1 2.2.95.85 2.25.85 1.3-.05 2.2-1.05.9-.95.8-2.2-.05-1.3-1-2.2-.9-.85-2.2-.8z" id="ce"/><path fill="#F8B12E" d="M234.95-596.1q-1.3.05-2.2 1-.9.95-.85 2.25.1 1.3 1 2.2.95.9 2.25.8 1.3-.05 2.2-1 .9-.95.8-2.25-.05-1.25-1-2.15-.9-.9-2.2-.85z" id="cf"/><path fill="#FC901F" d="M233.85-604q-1.25.05-2.15 1-.85.95-.85 2.2.05 1.3 1 2.2.95.9 2.2.85 1.3-.05 2.2-1 .9-.95.85-2.25-.05-1.25-1-2.15-.95-.85-2.25-.85z" id="cg"/><path fill="#FC901F" d="M236-587.95q-1.3.05-2.15 1-.9.95-.85 2.25.05 1.25 1 2.15.95.85 2.25.8 1.25 0 2.15-1 .85-.95.85-2.2-.05-1.25-1-2.15-1-.9-2.25-.85z" id="ch"/><path fill="#FC901F" d="M244.45-587.5q.9-1 .85-2.25-.05-1.3-1-2.15-.95-.85-2.25-.8-1.25 0-2.15.95-.9 1-.85 2.25.05 1.3 1 2.15.95.9 2.25.85 1.3-.05 2.15-1z" id="ci"/><path fill="#FC901F" d="M241.35-600.7q-1.3.05-2.15 1.05-.85.95-.8 2.2.05 1.3 1 2.2.95.9 2.25.8 1.25-.05 2.1-1 .9-.95.85-2.25-.05-1.25-1-2.15-.95-.85-2.25-.85z" id="cj"/><path fill="#F8B12E" d="M214.05-598.5q-1.3.1-2.2 1.05-.85.95-.8 2.2.05 1.3 1 2.15.9.9 2.2.8 1.3-.05 2.2-1 .85-.9.85-2.2-.05-1.25-1.05-2.15-.95-.9-2.2-.85z" id="ck"/><path fill="#F6C237" d="M214.5-590.55q-1.25.05-2.15 1-.85.95-.8 2.25.05 1.25 1 2.15.9.85 2.2.85 1.3-.05 2.15-1 .9-1 .8-2.25-.05-1.3-1-2.15-.95-.9-2.2-.85z" id="cl"/><path fill="#FC901F" d="M221.6-587.4q-1.3.1-2.15 1-.85.95-.8 2.25.1 1.25 1 2.15.95.9 2.25.8 1.25-.05 2.15-1 .9-.95.8-2.25-.05-1.25-1-2.15-.95-.85-2.25-.8z" id="cm"/><path fill="#FC901F" d="M248.3-596.95q-1.3.05-2.15 1-.9.95-.85 2.25.05 1.25 1 2.15.95.85 2.25.85 1.25-.05 2.2-1 .9-1 .8-2.25-.05-1.3-1-2.15-.95-.9-2.25-.85z" id="cn"/><path fill="#FC901F" d="M205.2-593.45q-.85.95-.8 2.25 0 1.25.95 2.15.95.85 2.3.85 1.25-.05 2.1-1 .9-.95.85-2.2-.05-1.3-1-2.2-.95-.9-2.25-.85-1.3.1-2.15 1z" id="co"/><path fill="#FC901F" d="M213.35-606.05q-1.3.1-2.15 1.05-.85.9-.8 2.2.05 1.3 1 2.15.9.9 2.2.8 1.25 0 2.15-.95.9-.95.8-2.2-.05-1.3-1-2.2-.9-.9-2.2-.85z" id="cp"/><path fill="#FC901F" d="M206.7-602.2q-1.25.05-2.15 1-.9.95-.85 2.2.05 1.3 1 2.2.95.9 2.25.85 1.3-.05 2.15-1 .9-.95.85-2.25-.05-1.25-1-2.15-.95-.85-2.25-.85z" id="cq"/><path fill="#F8B12E" d="M248.6-589.75q-1.3.05-2.15 1-.9.95-.85 2.25.05 1.25 1 2.15.95.85 2.25.85 1.25-.05 2.15-1 .85-1 .85-2.25-.05-1.25-1-2.15-1-.9-2.25-.85z" id="cr"/><path fill="#FAA228" d="M247.7-604.65q-1.3.05-2.15 1-.9.9-.85 2.2.1 1.3 1.05 2.15.95.9 2.2.8 1.25-.05 2.15-1 .9-.95.8-2.2-.05-1.3-1-2.15-.9-.85-2.2-.8z" id="cs"/><path fill="#FC901F" d="M254.45-601.95q-1.3.1-2.15 1.05-.85.9-.8 2.2.05 1.3 1 2.15.95.9 2.25.8 1.25 0 2.1-.95.9-.95.85-2.2-.05-1.3-1-2.2-.95-.9-2.25-.85z" id="ct"/><path fill="#FC901F" d="M206.35-609.35q-1.3.1-2.15 1-.85.95-.8 2.25 0 1.25.95 2.15.95.85 2.2.85 1.3-.05 2.2-1 .9-.95.85-2.2-.05-1.3-1-2.2-.95-.9-2.25-.85z" id="cu"/><path fill="#FC901F" d="M200.25-598.1q-1.3.05-2.2 1-.85.9-.85 2.2.1 1.3 1.05 2.2.95.85 2.2.8 1.3-.05 2.2-1 .9-1 .8-2.25-.05-1.25-1-2.15-.95-.85-2.2-.8z" id="cv"/><path fill="#FC901F" d="M199.7-605.55q-1.25.1-2.15 1.05-.85.9-.8 2.2 0 1.3 1 2.15.95.9 2.2.8 1.3 0 2.2-.95.9-1 .8-2.3-.05-1.25-1-2.1-.95-.9-2.25-.85z" id="cw"/><path fill="#FAA228" d="M227.1-606.85q-1.3.1-2.2 1.05-.85.9-.85 2.2.1 1.3 1.05 2.2.95.9 2.2.85 1.3-.05 2.2-1 .9-1 .8-2.25-.05-1.3-1-2.2-.9-.9-2.2-.85z" id="cx"/><path fill="#FC901F" d="M253.25-593.35q-.85.95-.8 2.2.05 1.3 1 2.15.9.9 2.2.8 1.3 0 2.2-.95.9-.95.85-2.2-.05-1.3-1.05-2.2-.95-.85-2.2-.8-1.3.05-2.2 1z" id="cy"/><path fill="#FC901F" d="M261.65-600.55q-1.25 0-2.15.95-.85.95-.8 2.2.05 1.3 1 2.2.9.9 2.15.85 1.3-.05 2.2-1 .85-.95.85-2.25-.05-1.3-1.05-2.15-.95-.85-2.2-.8z" id="cz"/><path fill="#FC901F" d="M268.2-606.05q-1.3.1-2.2 1.05-.9.9-.85 2.2.1 1.3 1.05 2.15.9.9 2.2.8 1.3-.05 2.2-1 .85-.9.85-2.25-.05-1.25-1.05-2.1-.95-.9-2.2-.85z" id="cA"/><path fill="#FE7115" d="M193.3-601.35q-1.3.05-2.15 1-.9.95-.85 2.25.05 1.3 1 2.2.95.9 2.25.8 1.3-.05 2.2-1 .9-.95.8-2.25-.05-1.3-1-2.15-.95-.9-2.25-.85z" id="cB"/><path fill="#FE7115" d="M193.75-609.7q-1.3.05-2.2 1-.85.95-.85 2.25.1 1.3 1.05 2.2.95.9 2.2.8 1.3-.05 2.2-1 .9-.95.85-2.25-.05-1.3-1-2.15-.95-.9-2.25-.85z" id="cC"/><path fill="#FC901F" d="M203.45-585.65q.9-.95.8-2.25-.05-1.3-1-2.15-.95-.9-2.25-.85-1.25.05-2.15 1-.85.95-.8 2.25 0 1.25 1 2.15.95.9 2.2.85 1.3-.05 2.2-1z" id="cD"/><path fill="#FE7115" d="M188.95-615.4q-1.3.1-2.2 1-.9.95-.85 2.25.05 1.3 1 2.2.95.9 2.25.8 1.3-.05 2.2-1 .9-.95.8-2.2-.05-1.3-1-2.2-.9-.9-2.2-.85z" id="cE"/><path fill="#FD8118" d="M187.2-606.45q-1.3.05-2.2 1-.9.9-.85 2.2.1 1.3 1.05 2.2.9.85 2.2.85 1.3-.05 2.2-1 .9-1 .85-2.25-.05-1.3-1-2.15-.95-.9-2.25-.85z" id="cF"/><path fill="#FD8118" d="M200.35-614.05q-1.25.1-2.1 1.05-.9.95-.85 2.2.1 1.3 1.05 2.2.9.9 2.2.85 1.3-.05 2.15-1 .9-.95.8-2.25-.05-1.3-1-2.2-.9-.85-2.25-.85z" id="cG"/><path fill="#FC901F" d="M219.9-610.65q-1 .1-1.7.85t-.7 1.75q.1 1 .85 1.75.75.7 1.75.65 1-.05 1.75-.85.7-.75.65-1.75-.05-1-.85-1.7-.75-.7-1.75-.7z" id="cH"/><path fill="#FC901F" d="M194.55-619.2q-1.05 0-1.7.75-.7.7-.7 1.75.1 1.05.85 1.75t1.75.65q1.05 0 1.75-.75t.65-1.8q-.05-1-.85-1.7-.75-.7-1.75-.65z" id="cI"/><path fill="#FC901F" d="M181.5-618.55q-1 .05-1.7.8t-.65 1.8q0 1 .75 1.7.75.75 1.75.65 1-.05 1.75-.8.7-.75.65-1.8 0-.95-.75-1.65t-1.8-.7z" id="cJ"/><path fill="#FC901F" d="M256.9-609.7q-1 .05-1.7.8-.75.75-.7 1.8.1 1.05.85 1.7.75.75 1.75.65 1.05-.05 1.75-.8t.65-1.8q-.05-1-.85-1.7-.75-.65-1.75-.65z" id="cK"/><path fill="#FC901F" d="M271.45-616.5q-1.05 0-1.75.75t-.65 1.8q.1 1.05.85 1.7.75.75 1.75.65 1 0 1.7-.75t.7-1.75q-.05-1-.85-1.7-.75-.75-1.75-.7z" id="cL"/><path fill="#FC901F" d="M186.1-629q-1 .05-1.7.8t-.65 1.8q.05 1 .8 1.7.75.65 1.8.65 1-.05 1.7-.8.65-.75.65-1.8-.05-1-.8-1.7t-1.8-.65z" id="cM"/><path fill="#FD8118" d="M277.5-622.15q-.95 0-1.7.75-.7.75-.7 1.75.1 1.05.85 1.75t1.75.65q1-.05 1.75-.8.7-.8.65-1.75-.05-1-.85-1.7-.75-.7-1.75-.65z" id="cN"/><path fill="url(#aq)" d="M231.2-643.25q-7.45-.1-13.05 2-5.6 2.15-6.05 5.25-.5 3.15 4.5 5.45 4.95 2.3 12.35 2.4 7.4.2 13.05-1.95 5.6-2.15 6.05-5.3.5-3.15-4.5-5.45-4.95-2.3-12.35-2.4z" id="cO"/><path fill="url(#ar)" d="M145.15-575q-8.5 4.05-15.8 7.1-14 5.9-21.05 6.5-4 .4-6.05-.9-2.4-1.55-.95-4.8h-.05q-1 1.5-1.1 2.7-.5 4.4 1 6.15 1.7 2 6.65 1.8-1.35 3.45-1.55 5.35-.4 3.3 1.75 4.6 7.6 4.85 23.45-1.15-5.5 1.6-8.05 1.8-5.7.35-5.95-2.05t4.95-5.6q4.2-2.65 18.85-11.05 15.1-8.7 21.4-12.6-14.55 7.25-26.7 13.05-23.8 11.35-24 6.75-.05-1.75 12.1-7.25 16.05-7.25 21.1-10.4z" id="cP"/><path fill="url(#as)" d="M145.85-529.2q-.85 6.7 4.1 7.55-1.25-2.45-.4-5.8.6-2.15 2.6-6.15Q162-553 193.3-581.85q-30.35 22.55-44.75 44.65-2.05 3.15-2.7 8z" id="cQ"/><path fill="url(#at)" d="M349-555.9q4.2-2.8.75-8.55-2.55-4.25-5.65-6.3-11.05-7.35-31.2-13.85-12.9-4.15-33.95-9.1 30.05 10.5 32.4 11.4 21.35 8.35 30.85 16.2 3.5 2.95 4.85 4.65 2.1 2.75 1.95 5.55z" id="cR"/><path fill="url(#au)" d="M195.4-564.2q-6.5-4.1-12.95-2-6.55 2.2-11.45 10.5-6.55 11-3.3 21.05 2.95 9.3 11.65 11.75 6.65 1.95 13.6-1.8 7.5-4.1 10.8-12.85 2.75-7.35.8-14.5-2.1-7.8-9.15-12.15z" id="cS"/><path fill="url(#av)" d="M195.1-565.8q-5.65-3.4-12.4-1.35-6.8 2-10.6 8.25-3.9 6.3-2.65 13.15 1.3 6.85 6.95 10.25 5.65 3.4 12.4 1.4 6.75-2.05 10.65-8.3 3.85-6.25 2.6-13.1-1.25-6.9-6.95-10.3z" id="cT"/><path fill="url(#aw)" d="M194.95-564.65q-5.25-3.15-10.95-1.6-5.75 1.6-9.35 7.3-2.85 4.65-2.3 10.8.65 7 5.85 10.1 5.25 3.1 11.5 1.25 6.25-1.9 9.8-7.7 3.55-5.65 2.15-11.4-1.35-5.55-6.7-8.75z" id="cU"/><path fill="url(#ax)" d="M195.55-566.1q-5.25-3.1-11.65-1.2-6.4 1.9-9.95 7.65-3.25 5.25-2.2 11.7 1.15 7.25 7.45 10.45-4.25-3.55-4.65-9.4-.3-4.1 2.15-7.85 2.25-3.45 6.25-5.8 5.8-3.3 11.05-.6 4.8 2.5 6.25 8.2 1.1 4.55-1.25 9.35l.5-.9q3.65-5.75 2.45-12.1-1.15-6.35-6.4-9.5z" id="cV"/><path fill="#FEFEFE" d="M194.1-561.85q-1.45-.4-2.75.55-1.25.95-1.55 2.65-.35 1.7.5 3.25.85 1.45 2.3 1.85 1.45.4 2.75-.55 1.3-1 1.55-2.7.35-1.75-.45-3.2-.8-1.45-2.35-1.85z" id="cW"/><path fill="url(#ay)" d="M341.3-615.2q-5.3-3.45-11.3-2.55-5.85.85-8.5 5.25-2.55 4.15-2 8.8.45 4.25 3.4 7.8 2.85 3.45 7.05 4.85 4.45 1.5 8.9.05 5.7-1.8 8.05-6.95 2.5-5.4-.45-11.6-.95-2-2.05-3.2-1-1.05-3.1-2.45z" id="cX"/><path fill="url(#az)" d="M336.9-616.2q-4.15-2.6-8.75-1.8t-6.95 4.5q-2.3 3.65-1.05 8.05 1.25 4.45 5.35 6.95 4.15 2.55 8.75 1.8 4.6-.8 6.9-4.45 2.35-3.65 1.1-8.1-1.25-4.4-5.35-6.95z" id="cY"/><path fill="url(#aA)" d="M335.3-615.45q-3.8-2.35-7.65-1.6-3.8.75-6.05 4.15-2.2 3.45-1.35 7.15.85 3.75 4.6 6.05 3.8 2.35 8.05 1.65 4.3-.7 6.45-4.1 2.15-3.35.5-7.6-1.5-3.85-4.55-5.7z" id="cZ"/><path fill="url(#aB)" d="M335.5-616.1q-3.8-2.4-8.1-1.65t-6.5 4.15q-2.2 3.4-1.05 7.5 1.15 4.05 5 6.4.3.3.6.35-2.85-2.1-3.55-5.15-.8-3.75 1.35-6.65 2.3-3.15 6.65-2.9 3.05.25 5.4 1.6 2.5 1.45 3.6 3.95 1.4 3.8 0 7 2.75-3.75 1.3-8.35-1.25-4.05-4.7-6.25z" id="da"/><path fill="#FEFEFE" d="M326.45-610.85q-.7-.95-1.7-1.1-1-.2-1.85.45-.75.65-.8 1.75-.05 1.15.65 2.05.7.95 1.7 1.1 1 .2 1.85-.45.75-.7.8-1.8.05-1.1-.65-2z" id="db"/></defs><use xlink:href="#aC"/><use filter="url(#aD)" xlink:href="#aE" transform="matrix(.59769 0 0 .59769 6.938 511.716)"/><use filter="url(#aD)" xlink:href="#aF" transform="matrix(.59769 0 0 .59769 6.938 511.716)"/><use filter="url(#aD)" xlink:href="#aG" transform="matrix(.59769 0 0 .59769 6.938 511.716)"/><use filter="url(#aD)" xlink:href="#aH" transform="matrix(.59769 0 0 .59769 6.938 511.716)"/><use filter="url(#aD)" xlink:href="#aI" transform="matrix(.59769 0 0 .59769 6.938 511.716)"/><use filter="url(#aD)" xlink:href="#aJ" transform="matrix(.59769 0 0 .59769 6.938 511.716)"/><use filter="url(#aD)" xlink:href="#aK" transform="matrix(.59769 0 0 .59769 6.938 511.716)"/><use filter="url(#aD)" xlink:href="#aL" transform="matrix(.59769 0 0 .59769 6.938 511.716)"/><use xlink:href="#aM" transform="matrix(.59769 0 0 .59769 6.938 511.716)"/><use xlink:href="#aN" transform="matrix(.59769 0 0 .59769 6.938 511.716)"/><use xlink:href="#aO" transform="matrix(.59769 0 0 .59769 6.938 511.716)"/><use xlink:href="#aP" transform="matrix(.59769 0 0 .59769 6.938 511.716)"/><use xlink:href="#aQ" transform="matrix(.59769 0 0 .59769 6.938 511.716)"/><use xlink:href="#aR" transform="matrix(.59769 0 0 .59769 6.938 511.716)"/><use xlink:href="#aS" transform="matrix(.59769 0 0 .59769 6.938 511.716)"/><use xlink:href="#aT" transform="matrix(.59769 0 0 .59769 6.938 511.716)"/><use xlink:href="#aU" transform="matrix(.59769 0 0 .59769 6.938 511.716)"/><use xlink:href="#aV" transform="matrix(.59769 0 0 .59769 6.938 511.716)"/><use xlink:href="#aW" transform="matrix(.59769 0 0 .59769 6.938 511.716)"/><use xlink:href="#aX" transform="matrix(.59769 0 0 .59769 6.938 511.716)"/><use xlink:href="#aY" transform="matrix(.59769 0 0 .59769 6.938 511.716)"/><use xlink:href="#aZ" transform="matrix(.59769 0 0 .59769 6.938 511.716)"/><use xlink:href="#ba" transform="matrix(.59769 0 0 .59769 6.938 511.716)"/><use xlink:href="#bb" transform="matrix(.59769 0 0 .59769 6.938 511.716)"/><use xlink:href="#bc" transform="matrix(.59769 0 0 .59769 6.938 511.716)"/><use xlink:href="#bd" transform="matrix(.59769 0 0 .59769 6.938 511.716)"/><use xlink:href="#be" transform="matrix(.59769 0 0 .59769 6.938 511.716)"/><use xlink:href="#bf" transform="matrix(.59769 0 0 .59769 6.938 511.716)"/><use xlink:href="#bg" transform="matrix(.59769 0 0 .59769 6.938 511.716)"/><use xlink:href="#bh" transform="matrix(.59769 0 0 .59769 6.938 511.716)"/><use xlink:href="#bi" transform="matrix(.59769 0 0 .59769 6.938 511.716)"/><use xlink:href="#bj" transform="matrix(.59769 0 0 .59769 6.938 511.716)"/><use xlink:href="#bk" transform="matrix(.59769 0 0 .59769 6.938 511.716)"/><use xlink:href="#bl" transform="matrix(.59769 0 0 .59769 6.938 511.716)"/><use xlink:href="#bm" transform="matrix(.59769 0 0 .59769 6.938 511.716)"/><use xlink:href="#bn" transform="matrix(.59769 0 0 .59769 6.938 511.716)"/><use xlink:href="#bo" transform="matrix(.59769 0 0 .59769 6.938 511.716)"/><use xlink:href="#bp" transform="matrix(.59769 0 0 .59769 6.938 511.716)"/><use xlink:href="#bq" transform="matrix(.59769 0 0 .59769 6.938 511.716)"/><use xlink:href="#br" transform="matrix(.59769 0 0 .59769 6.938 511.716)"/><use xlink:href="#bs" transform="matrix(.59769 0 0 .59769 6.938 511.716)"/><use xlink:href="#bt" transform="matrix(.59769 0 0 .59769 6.938 511.716)"/><use xlink:href="#bu" transform="matrix(.59769 0 0 .59769 6.938 511.716)"/><use xlink:href="#bv" transform="matrix(.59769 0 0 .59769 6.938 511.716)"/><use xlink:href="#bw" transform="matrix(.59769 0 0 .59769 6.938 511.716)"/><use xlink:href="#bx" transform="matrix(.59769 0 0 .59769 6.938 511.716)"/><use xlink:href="#by" transform="matrix(.59769 0 0 .59769 6.938 511.716)"/><use xlink:href="#bz" transform="matrix(.59769 0 0 .59769 6.938 511.716)"/><use xlink:href="#bA" transform="matrix(.59769 0 0 .59769 6.938 511.716)"/><use xlink:href="#bB" transform="matrix(.59769 0 0 .59769 6.938 511.716)"/><use xlink:href="#bC" transform="matrix(.59769 0 0 .59769 6.938 511.716)"/><use xlink:href="#bD" transform="matrix(.59769 0 0 .59769 6.938 511.716)"/><use xlink:href="#bE" transform="matrix(.59769 0 0 .59769 6.938 511.716)"/><use xlink:href="#bF" transform="matrix(.59769 0 0 .59769 6.938 511.716)"/><use xlink:href="#bG" transform="matrix(.59769 0 0 .59769 6.938 511.716)"/><use xlink:href="#bH" transform="matrix(.59769 0 0 .59769 6.938 511.716)"/><use xlink:href="#bI" transform="matrix(.59769 0 0 .59769 6.938 511.716)"/><use xlink:href="#bJ" transform="matrix(.59769 0 0 .59769 6.938 511.716)"/><use xlink:href="#bK" transform="matrix(.59769 0 0 .59769 6.938 511.716)"/><use xlink:href="#bL" transform="matrix(.59769 0 0 .59769 6.938 511.716)"/><use xlink:href="#bM" transform="matrix(.59769 0 0 .59769 6.938 511.716)"/><use xlink:href="#bN" transform="matrix(.59769 0 0 .59769 6.938 511.716)"/><use xlink:href="#bO" transform="matrix(.59769 0 0 .59769 6.938 511.716)"/><use xlink:href="#bP" transform="matrix(.59769 0 0 .59769 6.938 511.716)"/><use xlink:href="#bQ" transform="matrix(.59769 0 0 .59769 6.938 511.716)"/><use xlink:href="#bR" transform="matrix(.59769 0 0 .59769 6.938 511.716)"/><use xlink:href="#bS" transform="matrix(.59769 0 0 .59769 6.938 511.716)"/><use xlink:href="#bT" transform="matrix(.59769 0 0 .59769 6.938 511.716)"/><use xlink:href="#bU" transform="matrix(.59769 0 0 .59769 6.938 511.716)"/><use xlink:href="#bV" transform="matrix(.59769 0 0 .59769 6.938 511.716)"/><use xlink:href="#bW" transform="matrix(.59769 0 0 .59769 6.938 511.716)"/><use xlink:href="#bX" transform="matrix(.59769 0 0 .59769 6.938 511.716)"/><use xlink:href="#bY" transform="matrix(.59769 0 0 .59769 6.938 511.716)"/><use xlink:href="#bZ" transform="matrix(.59769 0 0 .59769 6.938 511.716)"/><use xlink:href="#ca" transform="matrix(.59769 0 0 .59769 6.938 511.716)"/><use xlink:href="#cb" transform="matrix(.59769 0 0 .59769 6.938 511.716)"/><use xlink:href="#cc" transform="matrix(.59769 0 0 .59769 6.938 511.716)"/><use xlink:href="#cd" transform="matrix(.59769 0 0 .59769 6.938 511.716)"/><use xlink:href="#ce" transform="matrix(.59769 0 0 .59769 6.938 511.716)"/><use xlink:href="#cf" transform="matrix(.59769 0 0 .59769 6.938 511.716)"/><use xlink:href="#cg" transform="matrix(.59769 0 0 .59769 6.938 511.716)"/><use xlink:href="#ch" transform="matrix(.59769 0 0 .59769 6.938 511.716)"/><use xlink:href="#ci" transform="matrix(.59769 0 0 .59769 6.938 511.716)"/><use xlink:href="#cj" transform="matrix(.59769 0 0 .59769 6.938 511.716)"/><use xlink:href="#ck" transform="matrix(.59769 0 0 .59769 6.938 511.716)"/><use xlink:href="#cl" transform="matrix(.59769 0 0 .59769 6.938 511.716)"/><use xlink:href="#cm" transform="matrix(.59769 0 0 .59769 6.938 511.716)"/><use xlink:href="#cn" transform="matrix(.59769 0 0 .59769 6.938 511.716)"/><use xlink:href="#co" transform="matrix(.59769 0 0 .59769 6.938 511.716)"/><use xlink:href="#cp" transform="matrix(.59769 0 0 .59769 6.938 511.716)"/><use xlink:href="#cq" transform="matrix(.59769 0 0 .59769 6.938 511.716)"/><use xlink:href="#cr" transform="matrix(.59769 0 0 .59769 6.938 511.716)"/><use xlink:href="#cs" transform="matrix(.59769 0 0 .59769 6.938 511.716)"/><use xlink:href="#ct" transform="matrix(.59769 0 0 .59769 6.938 511.716)"/><use xlink:href="#cu" transform="matrix(.59769 0 0 .59769 6.938 511.716)"/><use xlink:href="#cv" transform="matrix(.59769 0 0 .59769 6.938 511.716)"/><use xlink:href="#cw" transform="matrix(.59769 0 0 .59769 6.938 511.716)"/><use xlink:href="#cx" transform="matrix(.59769 0 0 .59769 6.938 511.716)"/><use xlink:href="#cy" transform="matrix(.59769 0 0 .59769 6.938 511.716)"/><use xlink:href="#cz" transform="matrix(.59769 0 0 .59769 6.938 511.716)"/><use xlink:href="#cA" transform="matrix(.59769 0 0 .59769 6.938 511.716)"/><use xlink:href="#cB" transform="matrix(.59769 0 0 .59769 6.938 511.716)"/><use xlink:href="#cC" transform="matrix(.59769 0 0 .59769 6.938 511.716)"/><use xlink:href="#cD" transform="matrix(.59769 0 0 .59769 6.938 511.716)"/><use xlink:href="#cE" transform="matrix(.59769 0 0 .59769 6.938 511.716)"/><use xlink:href="#cF" transform="matrix(.59769 0 0 .59769 6.938 511.716)"/><use xlink:href="#cG" transform="matrix(.59769 0 0 .59769 6.938 511.716)"/><use xlink:href="#cH" transform="matrix(.59769 0 0 .59769 6.938 511.716)"/><use xlink:href="#cI" transform="matrix(.59769 0 0 .59769 6.938 511.716)"/><use xlink:href="#cJ" transform="matrix(.59769 0 0 .59769 6.938 511.716)"/><use xlink:href="#cK" transform="matrix(.59769 0 0 .59769 6.938 511.716)"/><use xlink:href="#cL" transform="matrix(.59769 0 0 .59769 6.938 511.716)"/><use xlink:href="#cM" transform="matrix(.59769 0 0 .59769 6.938 511.716)"/><use xlink:href="#cN" transform="matrix(.59769 0 0 .59769 6.938 511.716)"/><use xlink:href="#cO" transform="matrix(.59769 0 0 .59769 6.938 511.716)"/><use xlink:href="#cP" transform="matrix(.59769 0 0 .59769 6.938 511.716)"/><use xlink:href="#cQ" transform="matrix(.59769 0 0 .59769 6.938 511.716)"/><use xlink:href="#cR" transform="matrix(.59769 0 0 .59769 6.938 511.716)"/><use xlink:href="#cS" transform="matrix(.59769 0 0 .59769 6.938 511.716)"/><use xlink:href="#cT" transform="matrix(.59769 0 0 .59769 6.938 511.716)"/><use xlink:href="#cU" transform="matrix(.59769 0 0 .59769 6.938 511.716)"/><g transform="matrix(.59769 0 0 .59769 6.938 511.716)"><use xlink:href="#cV"/></g><g transform="matrix(.59769 0 0 .59769 6.938 511.716)"><use xlink:href="#cW"/></g><g transform="matrix(.59769 0 0 .59769 6.938 511.716)"><use xlink:href="#cX"/></g><g transform="matrix(.59769 0 0 .59769 6.938 511.716)"><use xlink:href="#cY"/></g><g transform="matrix(.59769 0 0 .59769 6.938 511.716)"><use xlink:href="#cZ"/></g><g transform="matrix(.59769 0 0 .59769 6.938 511.716)"><use xlink:href="#da"/></g><g transform="matrix(.59769 0 0 .59769 6.938 511.716)"><use xlink:href="#db"/></g></svg>