<svg xmlns="http://www.w3.org/2000/svg" xmlns:xlink="http://www.w3.org/1999/xlink" preserveAspectRatio="none" width="284" height="320"><defs><radialGradient id="a" gradientUnits="userSpaceOnUse" cx="0" cy="0" r="92.175" fx="0" fy="0" gradientTransform="matrix(1 0 0 -1 122.45 245.55)" spreadMethod="pad"><stop offset="0%" stop-color="#FFF2C0"/><stop offset="38.824%" stop-color="#FFCC2A"/><stop offset="67.059%" stop-color="#E5A62F"/><stop offset="100%" stop-color="#FFDB6F"/></radialGradient><linearGradient id="b" gradientUnits="userSpaceOnUse" x1="94.825" y1="268.637" x2="131.575" y2="226.363" spreadMethod="pad"><stop offset="0%" stop-color="#FFD040"/><stop offset="34.902%" stop-color="#FFDB6F"/><stop offset="74.902%" stop-color="#FFF2C0"/><stop offset="100%" stop-color="#FFE697"/></linearGradient><linearGradient id="c" gradientUnits="userSpaceOnUse" x1="130.012" y1="210.413" x2="170.887" y2="266.688" spreadMethod="pad"><stop offset="0%" stop-color="#FFE697"/><stop offset="21.176%" stop-color="#FFFCD6"/><stop offset="100%" stop-color="#FFE284"/></linearGradient><linearGradient id="d" gradientUnits="userSpaceOnUse" x1="175.463" y1="251.588" x2="134.638" y2="213.513" spreadMethod="pad"><stop offset="0%" stop-color="#F1B82D"/><stop offset="41.176%" stop-color="#FFD040"/><stop offset="100%" stop-color="#FFE284"/></linearGradient><linearGradient id="e" gradientUnits="userSpaceOnUse" x1="165.862" y1="211.163" x2="182.037" y2="230.438" spreadMethod="pad"><stop offset="0%" stop-color="#BEC0C2"/><stop offset="21.176%" stop-color="#E7E8E9"/><stop offset="100%" stop-color="#858789"/></linearGradient><linearGradient id="f" gradientUnits="userSpaceOnUse" x1="174.338" y1="208.688" x2="186.362" y2="220.712" spreadMethod="pad"><stop offset="0%" stop-color="#AAACAE"/><stop offset="100%" stop-color="#858789"/></linearGradient><linearGradient id="g" gradientUnits="userSpaceOnUse" x1="162.362" y1="213.688" x2="180.537" y2="232.512" spreadMethod="pad"><stop offset="0%" stop-color="#E7E8E9"/><stop offset="21.176%" stop-color="#FFF"/><stop offset="100%" stop-color="#AAACAE"/></linearGradient><linearGradient id="h" gradientUnits="userSpaceOnUse" x1="118.5" y1="211.325" x2="168" y2="279.475" spreadMethod="pad"><stop offset="0%" stop-color="#FFE697"/><stop offset="21.176%" stop-color="#FFFCD6"/><stop offset="100%" stop-color="#FFE284"/></linearGradient><linearGradient id="i" gradientUnits="userSpaceOnUse" x1="186.838" y1="206.838" x2="181.263" y2="213.263" spreadMethod="pad"><stop offset="0%" stop-color="#D2D4D5"/><stop offset="76.078%" stop-color="#97999B"/><stop offset="100%" stop-color="#737477"/></linearGradient><linearGradient id="j" gradientUnits="userSpaceOnUse" x1="159.513" y1="221.837" x2="125.588" y2="220.063" spreadMethod="pad"><stop offset="0%" stop-color="#FFE284"/><stop offset="100%" stop-color="#FFF2C0"/></linearGradient><linearGradient id="k" gradientUnits="userSpaceOnUse" x1="180.1" y1="259.85" x2="125.1" y2="204.85" spreadMethod="pad"><stop offset="0%" stop-color="#FFDB6F"/><stop offset="100%" stop-color="#FFF"/></linearGradient><linearGradient id="l" gradientUnits="userSpaceOnUse" x1="175.8" y1="264.15" x2="120.8" y2="209.15" spreadMethod="pad"><stop offset="0%" stop-color="#FFDB6F"/><stop offset="100%" stop-color="#FFF"/></linearGradient><linearGradient id="m" gradientUnits="userSpaceOnUse" x1="173.4" y1="266.6" x2="118.4" y2="211.6" spreadMethod="pad"><stop offset="0%" stop-color="#FFDB6F"/><stop offset="100%" stop-color="#FFF"/></linearGradient><linearGradient id="n" gradientUnits="userSpaceOnUse" x1="172.5" y1="267.5" x2="117.5" y2="212.5" spreadMethod="pad"><stop offset="0%" stop-color="#FFDB6F"/><stop offset="100%" stop-color="#FFF"/></linearGradient><linearGradient id="o" gradientUnits="userSpaceOnUse" x1="173.15" y1="266.85" x2="118.15" y2="211.85" spreadMethod="pad"><stop offset="0%" stop-color="#FFDB6F"/><stop offset="100%" stop-color="#FFF"/></linearGradient><linearGradient id="p" gradientUnits="userSpaceOnUse" x1="175.313" y1="264.663" x2="120.188" y2="209.537" spreadMethod="pad"><stop offset="0%" stop-color="#FFDB6F"/><stop offset="100%" stop-color="#FFF"/></linearGradient><linearGradient id="q" gradientUnits="userSpaceOnUse" x1="180.3" y1="261.7" x2="124.1" y2="205.5" spreadMethod="pad"><stop offset="0%" stop-color="#FFDB6F"/><stop offset="100%" stop-color="#FFF"/></linearGradient><linearGradient id="r" gradientUnits="userSpaceOnUse" x1="195.825" y1="255.325" x2="227.975" y2="301.275" spreadMethod="pad"><stop offset="0%" stop-color="#BEC0C2"/><stop offset="21.176%" stop-color="#E7E8E9"/><stop offset="100%" stop-color="#BEC0C2"/></linearGradient><linearGradient id="s" gradientUnits="userSpaceOnUse" x1="171.162" y1="209.863" x2="182.838" y2="221.938" spreadMethod="pad"><stop offset="0%" stop-color="#FFF"/><stop offset="14.902%" stop-color="#FFF"/><stop offset="100%" stop-color="#B2B4B6"/></linearGradient><linearGradient id="t" gradientUnits="userSpaceOnUse" x1="137.65" y1="312.175" x2="81.95" y2="250.325" spreadMethod="pad"><stop offset="0%" stop-color="#FFCC2A"/><stop offset="49.804%" stop-color="#FFE284"/><stop offset="72.941%" stop-color="#FFFCD6"/><stop offset="100%" stop-color="#FFF2C0"/></linearGradient><linearGradient id="u" gradientUnits="userSpaceOnUse" x1="134.588" y1="313.9" x2="79.313" y2="252.5" spreadMethod="pad"><stop offset="0%" stop-color="#FFCC2A"/><stop offset="49.804%" stop-color="#FFE284"/><stop offset="72.941%" stop-color="#FFFCD6"/><stop offset="100%" stop-color="#FFF2C0"/></linearGradient><linearGradient id="v" gradientUnits="userSpaceOnUse" x1="133.05" y1="315.313" x2="78.65" y2="254.888" spreadMethod="pad"><stop offset="0%" stop-color="#FFCC2A"/><stop offset="49.804%" stop-color="#FFE284"/><stop offset="72.941%" stop-color="#FFFCD6"/><stop offset="100%" stop-color="#FFF2C0"/></linearGradient><linearGradient id="w" gradientUnits="userSpaceOnUse" x1="132.225" y1="316.012" x2="77.375" y2="255.088" spreadMethod="pad"><stop offset="0%" stop-color="#FFCC2A"/><stop offset="49.804%" stop-color="#FFE284"/><stop offset="72.941%" stop-color="#FFFCD6"/><stop offset="100%" stop-color="#FFF2C0"/></linearGradient><linearGradient id="x" gradientUnits="userSpaceOnUse" x1="132.15" y1="316.088" x2="77.15" y2="255.013" spreadMethod="pad"><stop offset="0%" stop-color="#FFCC2A"/><stop offset="49.804%" stop-color="#FFE284"/><stop offset="72.941%" stop-color="#FFFCD6"/><stop offset="100%" stop-color="#FFF2C0"/></linearGradient><linearGradient id="y" gradientUnits="userSpaceOnUse" x1="132.688" y1="315.625" x2="77.813" y2="254.675" spreadMethod="pad"><stop offset="0%" stop-color="#FFCC2A"/><stop offset="49.804%" stop-color="#FFE284"/><stop offset="72.941%" stop-color="#FFFCD6"/><stop offset="100%" stop-color="#FFF2C0"/></linearGradient><linearGradient id="z" gradientUnits="userSpaceOnUse" x1="133.975" y1="314.438" x2="79.525" y2="253.962" spreadMethod="pad"><stop offset="0%" stop-color="#FFCC2A"/><stop offset="49.804%" stop-color="#FFE284"/><stop offset="72.941%" stop-color="#FFFCD6"/><stop offset="100%" stop-color="#FFF2C0"/></linearGradient><linearGradient id="A" gradientUnits="userSpaceOnUse" x1="136.013" y1="312.663" x2="80.788" y2="251.338" spreadMethod="pad"><stop offset="0%" stop-color="#FFCC2A"/><stop offset="49.804%" stop-color="#FFE284"/><stop offset="72.941%" stop-color="#FFFCD6"/><stop offset="100%" stop-color="#FFF2C0"/></linearGradient><linearGradient id="B" gradientUnits="userSpaceOnUse" x1="139.012" y1="309.95" x2="84.188" y2="249.05" spreadMethod="pad"><stop offset="0%" stop-color="#FFCC2A"/><stop offset="49.804%" stop-color="#FFE284"/><stop offset="72.941%" stop-color="#FFFCD6"/><stop offset="100%" stop-color="#FFF2C0"/></linearGradient><path fill="#FFF" fill-opacity="0" d="M284 0H0v320h284V0z" id="C"/><path fill="url(#a)" d="M159.4 232.9q-3-3-7.85-9.1-5.15-6.4-7.5-8.85-8.85-9.25-18.3-7.95-8.25 1.15-14.55 4-9.95 4.5-16.5 11.4-7.75 8.35-11.25 18.8-3 9.1-3.5 22.25-.1 3.2.3 16 .25 9.1-.8 16.1-.65 4.3-2.35 10.45-.95 4.65 1.2 7.4l.65.65q2.7 2.15 7.35 1.25 2.85-.6 10.5-2.4 7.05-1.1 16.05-.85 13.25.45 16 .35 13.2-.5 22.3-3.5 10.5-3.5 18.8-11.25 6.95-6.55 11.4-16.5 3.25-7.35 4.3-14.9 1.25-9.4-8.1-18.15-2.35-2.15-9-7.35-6.1-4.8-9.15-7.85z" id="D"/><path fill="url(#b)" d="M161.6 227.8q-7.4-7.35-19.65-11-12.3-3.65-22.75-1.55-.55.15-1.8.9-1.25.7-1.8.85-2.85.9-4.6 1.8-10.6 5.4-17.3 16.1-6.1 9.7-7.45 20.95-1.1 9.25-2.25 25.5-1.55 13.8-6.15 24.25 5.8-9.4 9.3-22.4 3.15-14.2 4.5-20.05 2.5-11.3 9.95-20.95 6.75-8.7 16.1-14.4.8-.5 2.9-.95 2.25-.55 2.85-.8 1.65-.8 5.55-2.3 3.15-1.45 4.75-1.95 2.25-.7 4.7-.7 10.65 0 15.15 1.75.55.25 8 4.95z" id="E"/><path fill="url(#c)" d="M155.5 243.2q-9.45-9.35-14.5-15.9-6.25-8.1-12.95-20.45-1 .05-3 .35-2.15 6.5 2.4 18.4 5.1 13.2 15.6 23.7 10.45 10.45 23.7 15.55 11.9 4.6 18.4 2.4 0-.1.3-2.95-5.9-4.95-15.55-10.35-8.3-4.6-14.4-10.75z" id="F"/><path fill="#FFD040" d="M183.35 244.5q-3.15-10.4-9.85-18.45 4.65 9.2 5.7 20.25 1 10.95-1.8 21.4 4.95.55 7.75-.45 0-.3.1-.45l.1-1.55q.1-.3.1-.75l.05-.5q0-.65.1-.95l.05-4.1-.05-.4-.15-3.45-.15-.9v-.35q-.05-.65-.15-.95v-.35l-.2-1q-.1-.65-.15-1 0-.25-.1-.3-.05-.8-.4-2.1v-.2l-.3-1.1v-.05l-.3-1.1v-.05l-.35-1.1v-.05z" id="G"/><path fill="#FFF" d="M131 215.1q-.8 0-3.2-.35-2-.3-3.1-.15.35 3.05 2.4 10.15.4-.1 4.75-2.25 2.8-1.4 6.6-1.4 5.05 0 11.45 1.75 6.9 1.9 11.7 4.95-6-6-13.75-9.25-8.05-3.45-16.85-3.45z" id="H"/><path fill="url(#d)" d="M150.3 209.8q-10.9-3.9-22.45-2.9-2 6.45 2.35 17.8 4.8 12.65 14.8 22.65 10 10 22.65 14.8 11.35 4.35 17.8 2.35 1-11.5-2.9-22.45-4-11.25-12.5-19.8-8.5-8.5-19.75-12.45z" id="I"/><path fill="#E5A62F" d="M159.75 215.6q-.8.8-.5 3.3.35 2.8 2.15 6 4.55 8.3 11.25 11.95 4.55 2.55 6.75.3 1.15-1.05-1.05-5.05-2.3-4.2-6.5-8.35-10.1-10.1-12.1-8.15z" id="J"/><path fill="url(#e)" d="M159.65 215.1q-1 .95 1.1 4.5 2.1 3.5 6.05 7.55 4 3.95 7.5 6.05 3.55 2.1 4.5 1.05l.25-.25 7.75-13.05-7.55-6.25-6.25-7.55-13.35 7.95z" id="K"/><path fill="url(#f)" d="M181.5 212.45q-2.8-2.85-5.35-4.4-2.55-1.55-3.25-.85-.65.7.85 3.25 1.5 2.5 4.35 5.4 2.85 2.85 5.4 4.35 2.55 1.5 3.25.8.7-.65-.85-3.2-1.55-2.55-4.4-5.35z" id="L"/><path fill="#737477" d="M180.5 213.45q-1.25-1.25-2.35-1.9-1.1-.7-1.35-.45-.25.3.4 1.4.65 1.1 1.9 2.35t2.35 1.9q1.05.65 1.4.4.25-.3-.4-1.4-.7-1.05-1.95-2.3z" id="M"/><path fill="url(#g)" d="M159.9 214.9l-.25.2q-1.1 1.15.65 4.9 1.75 3.75 5 7.15 3.7 3.95 7.95 6.2 4.3 2.2 5.55.9.15-.05.15-.2l3.95-9.55-7.2 7.55 4-8.85-7 6.4 4.4-8.3q-4 3.2-7.4 5.7l5-7.8-7.75 5.05q2.5-3.4 5.7-7.4-2.85 1.45-8.3 4.4l6.4-7q-5.95 2.65-8.9 3.95l7.6-7.2-9.55 3.9z" id="N"/><path fill="url(#h)" d="M120.8 207.9q-5.3 1.2-9.8 3.2-2.15 7.6 3.4 21.25 6.15 15.15 18.25 27.35 12.15 12.1 27.35 18.25 13.65 5.5 21.25 3.35 1.95-4.4 3.2-9.8-7.95 1.55-20.15-3.3-13.6-5.4-24.2-16-10.55-10.55-15.95-24.15-4.85-12.15-3.35-20.15z" id="O"/><path fill="#FFF2C0" d="M181.25 281.3q2.05-4.65 3.1-9.8-3.35.6-8.2 0-1.75 5.3-4.55 9.85 6 1 9.65-.05z" id="P"/><path fill="url(#i)" d="M188.6 205.3q-1.2-1.25-2.8-1.9-1.95-.8-3.65-.25-.7.25-1.25.6v.05l-.55.45-.45.55q-1.05 1.45-1.15 3.5 0 1.05-.35 2.2-.4.85-1.1 1.45l1.45 1.45q.9-.7 1.6-2.15.3-.75.5-2.9l.05-.7q.25-1 .65-1.6l.6-.6q1.1-.85 2.85-.15 1.1.4 2.15 1.45 1 1 1.45 2.15.75 1.8-.15 2.9-.55.85-1.85 1.15-.15.1-.5.1l-.5.05q-1.9.1-2.9.5l-.55.3q-.7.3-1.25.85-.3.3-.35.45l1.45 1.45q.15-.15.15-.25.65-.55 1.3-.85 1.15-.35 2.2-.35h.1l.65-.1q.65-.15.7-.15 1.9-.4 3.1-1.9 1.4-2.2.35-4.9-.85-1.85-1.95-2.85z" id="Q"/><path fill="#FFF" d="M123.3 226.15q-1.25-4.05-1.6-5.4-.95-3.75-.9-5.9-3.55.75-5.25 1.2-2.95.75-5 1.8.1 2.6 1.05 6.45.95 3.85 2.25 6.85 4.6-3.15 9.45-5z" id="R"/><path fill="url(#j)" d="M161.6 227.8q-6.5-6.5-15.75-10.15-9.55-3.8-18.45-3.05.2 1.55.95 4.5.75 2.9 1.35 4.75 8.9-1.4 14.4-1 8 .65 17.5 4.95z" id="S"/><path fill="url(#k)" d="M130.15 214.05q.85.85 2.1.85 1.15 0 2-.85.85-.9.85-2.1 0-1.2-.85-2.05-.85-.9-2-.9-1.25 0-2.1.9-.85.85-.85 2.05 0 1.2.85 2.1z" id="T"/><path fill="url(#l)" d="M135.05 220.5q-1.2 0-2.05.85-.85.85-.85 2.1 0 1.2.85 2.05.85.85 2.05.85 1.25 0 2.1-.85.85-.85.85-2.05 0-1.25-.85-2.1-.85-.85-2.1-.85z" id="U"/><path fill="url(#m)" d="M140.65 230.95q-1.15 0-2 .9-.85.85-.85 2.05 0 1.2.85 2.1.85.85 2 .85 1.25 0 2.1-.85.85-.9.85-2.1 0-1.2-.85-2.05-.85-.9-2.1-.9z" id="V"/><path fill="url(#n)" d="M148.15 240.25q-1.2 0-2.05.85-.9.85-.9 2.05 0 1.25.9 2.1.85.85 2.05.85 1.2 0 2.1-.85.85-.85.85-2.1 0-1.2-.85-2.05-.9-.85-2.1-.85z" id="W"/><path fill="url(#o)" d="M157.15 247.95q-1.2 0-2.05.9-.85.85-.85 2.05 0 1.2.85 2.1.85.85 2.05.85 1.25 0 2.1-.85.85-.9.85-2.1 0-1.2-.85-2.05-.85-.9-2.1-.9z" id="X"/><path fill="url(#p)" d="M167.45 253.9q-1.2 0-2.05.85-.85.85-.85 2.05 0 1.25.85 2.1.85.85 2.05.85 1.25 0 2.1-.85.85-.85.85-2.1 0-1.2-.85-2.05-.85-.85-2.1-.85z" id="Y"/><path fill="url(#q)" d="M176.75 262.25q.9.9 2.05.9 1.2 0 2.1-.9.85-.9.85-2.05 0-1.2-.85-2.05-.9-.9-2.1-.9-1.15 0-2.05.9-.9.85-.9 2.05 0 1.15.9 2.05z" id="Z"/><path fill="url(#r)" d="M205.4 238v-5.15q-.25-5.65-1.4-9.6-1-4-3.1-7.55-.95-1.85-2.8-4.2-1.55-1.9-2.7-3l-1.15-.95q-2.45-1.85-4.65-1.45l-.2.1q.55.75.95 2.15 1.15 0 2.6 1.1l.5.35q.35.35.5.4 1.25 1.25 2.45 2.75 3.05 3.95 4.5 7.95l1.05 3q1.3 4.95 1.3 12.55-.1 4.4-1.25 9.7-1 4.7-1.1 7.5l.1 3.45q.1 1.75.45 3.4.85 4.95 3.45 9.4.3.7.5.95l.3.5q1.9 2.95 4.65 5.55 5.05 4.7 6.25 8.85.85 2.65-.05 4.95-.9 2.1-3.1 3.4-3.1 2.05-7.9 1.8h-.15q-1.75-.1-3.1-.35l-1.4-.35q-1.15-.4-1.7-.5-8-3-13.35-10.3-1.55-2.3-2.35-4.05-.95-1.8-1.8-4.4-3.8-12.2 2-28.2 3.3-9.25 4.05-11.4 1.65-4.95 2.35-7.85.8-3.25.95-5.65.15-2.3-.3-4.65-.45-2.2-1.5-5.1l-.55-2q-.1-.15-.1-.6 0-.5.1-.65.15-.75-.15-1.6-.25-.8-.65-1.25-1.5 1.2-1.5 3.5l.05 1q.1.55.3.95.05.45.4 1.45 1.1 3.25 1.4 4.8.75 3.75-.6 9.25-.7 2.85-2.35 7.65-.8 2.4-3.95 11.25-6.1 16.95-2.05 29.85.65 2.2 1.9 4.75 1.05 2.15 2.65 4.35 2.7 3.75 6.35 6.6 3.8 2.95 8 4.45 1.1.45 2.4.7.4.2.95.2 1.5.4 3.05.45h.5l.5.1q5.2 0 8.7-2.2 2.95-1.9 3.95-4.5 1.25-2.95.15-6.5-1.35-4.8-6.85-9.95-3.95-3.65-6.15-8.55-.2-.25-.3-.65l-.25-.45q-1-2.6-1.55-5.45-.3-1.95-.35-3.1-.15-1.7-.1-3.1v-.15q.1-3.05 1-7.1 1.1-5.75 1.25-8.6z" id="aa"/><path fill="url(#s)" d="M185.05 222.35q-.2-.7-1.35-1.25-2.6-1.2-6.3-4.85-3.6-3.6-5.05-6.6-.55-1.2-1.05-1-.5.2-.25 1.35.35 1.3 1.75 3.25 1.45 2.05 3.55 4.1 2.05 2.1 4.2 3.6 1.95 1.4 3.25 1.75 1.4.35 1.25-.35z" id="ab"/><path fill="url(#t)" d="M110.85 219.75l-.3-2.1q-10.6 6.45-17 15.55-5.95 8.45-8.2 19.5-1.3 7.05-2.35 21.55-.75 10.65-1.45 15.4-1.25 8.1-3.9 13.75-.95 4-.95 5.55 4.4-6.45 6.25-16.1 1.1-5.75 2-18.5.8-13.5 2.3-21.3h.05q2-10.35 7.85-18.8 5.9-8.35 15.7-14.5z" id="ac"/><path fill="url(#u)" d="M113.95 231.1q-.35-.7-.7-1.85-6.75 5.35-11.7 11.85-6.35 8.25-9.55 18.1-2.5 7.7-4.75 19.2-2.2 10.65-3.8 15.65-2.6 8.2-6.75 14 0 1.95.3 2.9 4.95-6.3 7.95-15.2 1.7-5.2 4.15-16.9 2.55-12.5 4.7-19.1 3.15-9.55 9.3-17.5 4.85-6.25 10.85-11.15z" id="ad"/><path fill="url(#v)" d="M119 241.75l-.95-1.7q-4.8 4.45-8.55 9-6.7 7.85-10.9 16.55-3.15 6.25-7.25 17.15-3.65 9.55-5.95 14.2-3.75 7.55-8.55 13.35.25 1.25.8 2.1 5.25-6.1 9.2-14.1 2.45-4.85 6.3-14.95 4.3-11.15 7.1-16.9 4.45-8.7 10.75-16.2 3.75-4.45 8-8.5z" id="ae"/><path fill="url(#w)" d="M117.5 256.95q-7.2 7.85-12.25 15.05-4.5 6.35-10 15.2-4.95 8-8 12.35-4.7 6.65-9.9 12.35.25.5.95 1.5.1 0 .15.15 5.4-5.8 10.25-12.65 3.05-4.4 8.2-12.7 6.85-10.9 9.85-15.05 4.9-6.95 12.15-14.9 3.7-4.05 6.55-6.85l-1.2-1.5q-3.65 3.6-6.75 7.05z" id="af"/><path fill="url(#x)" d="M111.85 278.4q-6.6 6.6-17.7 18.2-9.85 10.25-16.05 16.5l.2.3.65.65q.4.3.6.35 8.05-8.1 15.95-16.5 11.1-11.5 17.75-18.15l19.8-19.8-.4-.25-1-1.1-19.8 19.8z" id="ag"/><path fill="url(#y)" d="M118.55 284.9q-3.4 2.45-12.25 8.35-8.85 5.9-13.55 9.45-7.3 5.4-13.7 11.4.6.5 1.8 1.05 6.1-5.8 13.25-11.1 4.25-3.1 13.3-9.15 8.9-6.1 12.25-8.45 7.55-5.35 15.1-12.3 3.95-3.7 6.9-6.7l-1.5-1.15q-3.45 3.5-6.7 6.4-6.85 6.35-14.9 12.2z" id="ah"/><path fill="url(#z)" d="M151.45 273.8l-1.7-.95q-4.75 4.8-8.3 7.8-8 6.65-16.2 10.7-4.85 2.45-15.25 6.8-10.2 4.2-15.3 6.85-8.1 4.3-14.45 9.85.9.45 2.25.7 5.95-5.1 13.7-9.1 4.5-2.35 14.6-6.6 10.2-4.25 15.25-6.75 8.85-4.45 16.65-10.95 4.75-4.1 8.75-8.35z" id="ai"/><path fill="url(#A)" d="M160.25 278.05q-5.05 6.1-10.9 10.6-7.95 6.1-17.5 9.2-6.75 2.25-17.6 4.65-11.6 2.65-17.1 4.65-8.95 3.15-15.4 8.25 1.4.35 3.1.1 5.95-4.2 14.1-6.95 5.05-1.7 15.7-4.15 11.9-2.7 17.85-4.7 9.55-3.1 18.1-9.55 6.25-4.9 11.6-11.4-1.3-.4-1.95-.7z" id="aj"/><path fill="url(#B)" d="M138.55 304.4q-4.4.85-10.1 1.5-2.5.25-9.95.95-12.8 1.15-18.5 2.35-9.6 2-16.1 6.35 2.05-.05 6.2-1.2 5.6-2.6 13.5-3.9 4.95-.8 15.05-1.65 7.4-.7 10-.95 5.75-.7 10.3-1.6 11.15-2.2 19.55-8.2 9-6.3 15.15-16.4l-2.1-.3q-6.15 9.6-14.2 15.2-8.1 5.75-18.8 7.85z" id="ak"/></defs><use xlink:href="#C"/><use xlink:href="#D" transform="matrix(1.99298 0 0 1.99295 -152.862 -336.72)"/><use xlink:href="#E" transform="matrix(1.99298 0 0 1.99295 -152.862 -336.72)"/><use xlink:href="#F" transform="matrix(1.99298 0 0 1.99295 -152.862 -336.72)"/><use xlink:href="#G" transform="matrix(1.99298 0 0 1.99295 -152.862 -336.72)"/><use xlink:href="#H" transform="matrix(1.99298 0 0 1.99295 -152.862 -336.72)"/><use xlink:href="#I" transform="matrix(1.99298 0 0 1.99295 -152.862 -336.72)"/><use xlink:href="#J" transform="matrix(1.99298 0 0 1.99295 -152.862 -336.72)"/><use xlink:href="#K" transform="matrix(1.99298 0 0 1.99295 -152.862 -336.72)"/><use xlink:href="#L" transform="matrix(1.99298 0 0 1.99295 -152.862 -336.72)"/><use xlink:href="#M" transform="matrix(1.99298 0 0 1.99295 -152.862 -336.72)"/><use xlink:href="#N" transform="matrix(1.99298 0 0 1.99295 -152.862 -336.72)"/><use xlink:href="#O" transform="matrix(1.99298 0 0 1.99295 -152.862 -336.72)"/><use xlink:href="#P" transform="matrix(1.99298 0 0 1.99295 -152.862 -336.72)"/><use xlink:href="#Q" transform="matrix(1.99298 0 0 1.99295 -152.862 -336.72)"/><use xlink:href="#R" transform="matrix(1.99298 0 0 1.99295 -152.862 -336.72)"/><use xlink:href="#S" transform="matrix(1.99298 0 0 1.99295 -152.862 -336.72)"/><use xlink:href="#T" transform="matrix(1.99298 0 0 1.99295 -152.862 -336.72)"/><use xlink:href="#U" transform="matrix(1.99298 0 0 1.99295 -152.862 -336.72)"/><use xlink:href="#V" transform="matrix(1.99298 0 0 1.99295 -152.862 -336.72)"/><use xlink:href="#W" transform="matrix(1.99298 0 0 1.99295 -152.862 -336.72)"/><use xlink:href="#X" transform="matrix(1.99298 0 0 1.99295 -152.862 -336.72)"/><use xlink:href="#Y" transform="matrix(1.99298 0 0 1.99295 -152.862 -336.72)"/><use xlink:href="#Z" transform="matrix(1.99298 0 0 1.99295 -152.862 -336.72)"/><use xlink:href="#aa" transform="matrix(1.99298 0 0 1.99295 -152.862 -336.72)"/><use xlink:href="#ab" transform="matrix(1.99298 0 0 1.99295 -152.862 -336.72)"/><use xlink:href="#ac" transform="matrix(1.99298 0 0 1.99295 -152.862 -336.72)"/><use xlink:href="#ad" transform="matrix(1.99298 0 0 1.99295 -152.862 -336.72)"/><use xlink:href="#ae" transform="matrix(1.99298 0 0 1.99295 -152.862 -336.72)"/><use xlink:href="#af" transform="matrix(1.99298 0 0 1.99295 -152.862 -336.72)"/><use xlink:href="#ag" transform="matrix(1.99298 0 0 1.99295 -152.862 -336.72)"/><use xlink:href="#ah" transform="matrix(1.99298 0 0 1.99295 -152.862 -336.72)"/><use xlink:href="#ai" transform="matrix(1.99298 0 0 1.99295 -152.862 -336.72)"/><use xlink:href="#aj" transform="matrix(1.99298 0 0 1.99295 -152.862 -336.72)"/><use xlink:href="#ak" transform="matrix(1.99298 0 0 1.99295 -152.862 -336.72)"/></svg>