<svg xmlns="http://www.w3.org/2000/svg" xmlns:xlink="http://www.w3.org/1999/xlink" preserveAspectRatio="none" width="284" height="320"><defs><linearGradient id="a" gradientUnits="userSpaceOnUse" x1="538.325" y1="243.725" x2="550.275" y2="250.075" spreadMethod="pad"><stop offset="0%" stop-color="#F8C4D2"/><stop offset="100%" stop-color="#FFF"/></linearGradient><linearGradient id="b" gradientUnits="userSpaceOnUse" x1="537.038" y1="228.825" x2="550.462" y2="235.375" spreadMethod="pad"><stop offset="0%" stop-color="#F8C4D2"/><stop offset="100%" stop-color="#FFF"/></linearGradient><linearGradient id="c" gradientUnits="userSpaceOnUse" x1="529.412" y1="256.65" x2="543.188" y2="265.25" spreadMethod="pad"><stop offset="0%" stop-color="#F8C4D2"/><stop offset="100%" stop-color="#FFF"/></linearGradient><linearGradient id="d" gradientUnits="userSpaceOnUse" x1="520.975" y1="270.063" x2="534.625" y2="277.638" spreadMethod="pad"><stop offset="0%" stop-color="#F8C4D2"/><stop offset="100%" stop-color="#FFF"/></linearGradient><linearGradient id="e" gradientUnits="userSpaceOnUse" x1="507.975" y1="279.5" x2="525.125" y2="292.9" spreadMethod="pad"><stop offset="0%" stop-color="#F8C4D2"/><stop offset="100%" stop-color="#FFF"/></linearGradient><linearGradient id="f" gradientUnits="userSpaceOnUse" x1="511.587" y1="244.975" x2="491.712" y2="270.425" spreadMethod="pad"><stop offset="0%" stop-color="#F6B1C8"/><stop offset="100%" stop-color="#F287B1"/></linearGradient><linearGradient id="g" gradientUnits="userSpaceOnUse" x1="500.488" y1="256" x2="515.413" y2="236.2" spreadMethod="pad"><stop offset="0%" stop-color="#F5A5C1"/><stop offset="100%" stop-color="#FACFD9"/></linearGradient><linearGradient id="h" gradientUnits="userSpaceOnUse" x1="521.513" y1="242.075" x2="546.388" y2="245.125" spreadMethod="pad"><stop offset="0%" stop-color="#F8C4D2"/><stop offset="100%" stop-color="#F393B8"/></linearGradient><linearGradient id="i" gradientUnits="userSpaceOnUse" x1="520.512" y1="254.5" x2="540.288" y2="261.7" spreadMethod="pad"><stop offset="0%" stop-color="#F8C4D2"/><stop offset="100%" stop-color="#F393B8"/></linearGradient><linearGradient id="j" gradientUnits="userSpaceOnUse" x1="514.75" y1="267.875" x2="531.05" y2="274.125" spreadMethod="pad"><stop offset="0%" stop-color="#F8C4D2"/><stop offset="100%" stop-color="#F393B8"/></linearGradient><linearGradient id="k" gradientUnits="userSpaceOnUse" x1="504.388" y1="276.637" x2="518.813" y2="286.363" spreadMethod="pad"><stop offset="0%" stop-color="#F8C4D2"/><stop offset="100%" stop-color="#F393B8"/></linearGradient><linearGradient id="l" gradientUnits="userSpaceOnUse" x1="519.363" y1="231.762" x2="544.038" y2="228.738" spreadMethod="pad"><stop offset="0%" stop-color="#F8C4D2"/><stop offset="100%" stop-color="#F393B8"/></linearGradient><linearGradient id="m" gradientUnits="userSpaceOnUse" x1="409.463" y1="244.125" x2="397.637" y2="250.675" spreadMethod="pad"><stop offset="0%" stop-color="#F8C4D2"/><stop offset="100%" stop-color="#FFF"/></linearGradient><linearGradient id="n" gradientUnits="userSpaceOnUse" x1="411.4" y1="228.863" x2="398.1" y2="235.637" spreadMethod="pad"><stop offset="0%" stop-color="#F8C4D2"/><stop offset="100%" stop-color="#FFF"/></linearGradient><linearGradient id="o" gradientUnits="userSpaceOnUse" x1="418.663" y1="256.875" x2="405.038" y2="265.725" spreadMethod="pad"><stop offset="0%" stop-color="#F8C4D2"/><stop offset="100%" stop-color="#FFF"/></linearGradient><linearGradient id="p" gradientUnits="userSpaceOnUse" x1="428.05" y1="269.65" x2="414.55" y2="277.45" spreadMethod="pad"><stop offset="0%" stop-color="#F8C4D2"/><stop offset="100%" stop-color="#FFF"/></linearGradient><linearGradient id="q" gradientUnits="userSpaceOnUse" x1="440.612" y1="279.4" x2="423.688" y2="293.1" spreadMethod="pad"><stop offset="0%" stop-color="#F8C4D2"/><stop offset="100%" stop-color="#FFF"/></linearGradient><linearGradient id="r" gradientUnits="userSpaceOnUse" x1="436.587" y1="244.85" x2="456.913" y2="269.95" spreadMethod="pad"><stop offset="0%" stop-color="#F6B1C8"/><stop offset="100%" stop-color="#F287B1"/></linearGradient><linearGradient id="s" gradientUnits="userSpaceOnUse" x1="448.138" y1="256.188" x2="433.563" y2="236.113" spreadMethod="pad"><stop offset="0%" stop-color="#F5A5C1"/><stop offset="100%" stop-color="#FACFD9"/></linearGradient><linearGradient id="t" gradientUnits="userSpaceOnUse" x1="426.387" y1="242.162" x2="401.613" y2="245.638" spreadMethod="pad"><stop offset="0%" stop-color="#F8C4D2"/><stop offset="100%" stop-color="#F393B8"/></linearGradient><linearGradient id="u" gradientUnits="userSpaceOnUse" x1="428.425" y1="254.425" x2="408.775" y2="261.975" spreadMethod="pad"><stop offset="0%" stop-color="#F8C4D2"/><stop offset="100%" stop-color="#F393B8"/></linearGradient><linearGradient id="v" gradientUnits="userSpaceOnUse" x1="433.287" y1="268.137" x2="417.113" y2="274.662" spreadMethod="pad"><stop offset="0%" stop-color="#F8C4D2"/><stop offset="100%" stop-color="#F393B8"/></linearGradient><linearGradient id="w" gradientUnits="userSpaceOnUse" x1="444.425" y1="276.462" x2="430.175" y2="286.438" spreadMethod="pad"><stop offset="0%" stop-color="#F8C4D2"/><stop offset="100%" stop-color="#F393B8"/></linearGradient><linearGradient id="x" gradientUnits="userSpaceOnUse" x1="428.587" y1="231.662" x2="403.913" y2="228.638" spreadMethod="pad"><stop offset="0%" stop-color="#F8C4D2"/><stop offset="100%" stop-color="#F393B8"/></linearGradient><linearGradient id="y" gradientUnits="userSpaceOnUse" x1="474.35" y1="296.525" x2="474.35" y2="319.775" spreadMethod="pad"><stop offset="0%" stop-color="#ED4795"/><stop offset="100%" stop-color="#D12780"/></linearGradient><linearGradient id="z" gradientUnits="userSpaceOnUse" x1="451" y1="290.55" x2="451" y2="316.95" spreadMethod="pad"><stop offset="0%" stop-color="#EF609F"/><stop offset="100%" stop-color="#F287B1"/></linearGradient><linearGradient id="A" gradientUnits="userSpaceOnUse" x1="454.05" y1="290.525" x2="454.05" y2="316.875" spreadMethod="pad"><stop offset="0%" stop-color="#EF609F"/><stop offset="100%" stop-color="#F287B1"/></linearGradient><linearGradient id="B" gradientUnits="userSpaceOnUse" x1="457.3" y1="290.55" x2="457.3" y2="316.85" spreadMethod="pad"><stop offset="0%" stop-color="#EF609F"/><stop offset="100%" stop-color="#F287B1"/></linearGradient><linearGradient id="C" gradientUnits="userSpaceOnUse" x1="460.75" y1="290.537" x2="460.75" y2="316.762" spreadMethod="pad"><stop offset="0%" stop-color="#EF609F"/><stop offset="100%" stop-color="#F287B1"/></linearGradient><linearGradient id="D" gradientUnits="userSpaceOnUse" x1="464.1" y1="291.513" x2="464.1" y2="317.688" spreadMethod="pad"><stop offset="0%" stop-color="#EF609F"/><stop offset="100%" stop-color="#F287B1"/></linearGradient><linearGradient id="E" gradientUnits="userSpaceOnUse" x1="467.55" y1="291.538" x2="467.55" y2="317.663" spreadMethod="pad"><stop offset="0%" stop-color="#EF609F"/><stop offset="100%" stop-color="#F287B1"/></linearGradient><linearGradient id="F" gradientUnits="userSpaceOnUse" x1="470.95" y1="291.525" x2="470.95" y2="317.575" spreadMethod="pad"><stop offset="0%" stop-color="#EF609F"/><stop offset="100%" stop-color="#F287B1"/></linearGradient><linearGradient id="G" gradientUnits="userSpaceOnUse" x1="474.4" y1="291.55" x2="474.4" y2="317.55" spreadMethod="pad"><stop offset="0%" stop-color="#EF609F"/><stop offset="100%" stop-color="#F287B1"/></linearGradient><linearGradient id="H" gradientUnits="userSpaceOnUse" x1="477.85" y1="291.525" x2="477.85" y2="317.575" spreadMethod="pad"><stop offset="0%" stop-color="#EF609F"/><stop offset="100%" stop-color="#F287B1"/></linearGradient><linearGradient id="I" gradientUnits="userSpaceOnUse" x1="481.25" y1="291.538" x2="481.25" y2="317.663" spreadMethod="pad"><stop offset="0%" stop-color="#EF609F"/><stop offset="100%" stop-color="#F287B1"/></linearGradient><linearGradient id="J" gradientUnits="userSpaceOnUse" x1="484.95" y1="291.513" x2="484.95" y2="317.688" spreadMethod="pad"><stop offset="0%" stop-color="#EF609F"/><stop offset="100%" stop-color="#F287B1"/></linearGradient><linearGradient id="K" gradientUnits="userSpaceOnUse" x1="488.1" y1="290.537" x2="488.1" y2="316.762" spreadMethod="pad"><stop offset="0%" stop-color="#EF609F"/><stop offset="100%" stop-color="#F287B1"/></linearGradient><linearGradient id="L" gradientUnits="userSpaceOnUse" x1="491.55" y1="290.55" x2="491.55" y2="316.85" spreadMethod="pad"><stop offset="0%" stop-color="#EF609F"/><stop offset="100%" stop-color="#F287B1"/></linearGradient><linearGradient id="M" gradientUnits="userSpaceOnUse" x1="494.85" y1="290.525" x2="494.85" y2="316.875" spreadMethod="pad"><stop offset="0%" stop-color="#EF609F"/><stop offset="100%" stop-color="#F287B1"/></linearGradient><linearGradient id="N" gradientUnits="userSpaceOnUse" x1="497.8" y1="290.55" x2="497.8" y2="316.95" spreadMethod="pad"><stop offset="0%" stop-color="#EF609F"/><stop offset="100%" stop-color="#F287B1"/></linearGradient><linearGradient id="O" gradientUnits="userSpaceOnUse" x1="457.65" y1="268.55" x2="457.65" y2="285.55" spreadMethod="pad"><stop offset="0%" stop-color="#ED3491"/><stop offset="100%" stop-color="#F393B8"/></linearGradient><linearGradient id="P" gradientUnits="userSpaceOnUse" x1="461.95" y1="286.525" x2="461.95" y2="277.775" spreadMethod="pad"><stop offset="0%" stop-color="#EE599C"/><stop offset="100%" stop-color="#E22889"/></linearGradient><linearGradient id="Q" gradientUnits="userSpaceOnUse" x1="491.15" y1="268.55" x2="491.15" y2="285.55" spreadMethod="pad"><stop offset="0%" stop-color="#ED3491"/><stop offset="100%" stop-color="#F393B8"/></linearGradient><linearGradient id="R" gradientUnits="userSpaceOnUse" x1="486.9" y1="286.525" x2="486.9" y2="277.775" spreadMethod="pad"><stop offset="0%" stop-color="#EE599C"/><stop offset="100%" stop-color="#E22889"/></linearGradient><linearGradient id="S" gradientUnits="userSpaceOnUse" x1="474.3" y1="314.537" x2="474.3" y2="309.363" spreadMethod="pad"><stop offset="0%" stop-color="#F181AE"/><stop offset="100%" stop-color="#F5A5C1"/></linearGradient><linearGradient id="T" gradientUnits="userSpaceOnUse" x1="466.488" y1="274.712" x2="473.012" y2="280.587" spreadMethod="pad"><stop offset="0%" stop-color="#DCD834"/><stop offset="100%" stop-color="#C7C433"/></linearGradient><linearGradient id="U" gradientUnits="userSpaceOnUse" x1="474.4" y1="261.5" x2="474.4" y2="252.8" spreadMethod="pad"><stop offset="0%" stop-color="#FCD1AD"/><stop offset="100%" stop-color="#F9A96C"/></linearGradient><linearGradient id="V" gradientUnits="userSpaceOnUse" x1="474.4" y1="266.512" x2="474.4" y2="255.488" spreadMethod="pad"><stop offset="0%" stop-color="#FFF"/><stop offset="100%" stop-color="#EAEBEC"/></linearGradient><linearGradient id="W" gradientUnits="userSpaceOnUse" x1="474.4" y1="267.525" x2="474.4" y2="261.675" spreadMethod="pad"><stop offset="0%" stop-color="#F0B732"/><stop offset="100%" stop-color="#FFD55B"/></linearGradient><linearGradient id="X" gradientUnits="userSpaceOnUse" x1="474.4" y1="264.538" x2="474.4" y2="262.163" spreadMethod="pad"><stop offset="0%" stop-color="#FFDA71"/><stop offset="100%" stop-color="#FFF"/></linearGradient><linearGradient id="Y" gradientUnits="userSpaceOnUse" x1="469.625" y1="256.438" x2="471.075" y2="258.663" spreadMethod="pad"><stop offset="0%" stop-color="#FFF"/><stop offset="100%" stop-color="#F3F3F4"/></linearGradient><linearGradient id="Z" gradientUnits="userSpaceOnUse" x1="478.85" y1="256.713" x2="477.65" y2="258.887" spreadMethod="pad"><stop offset="0%" stop-color="#FFF"/><stop offset="100%" stop-color="#F3F3F4"/></linearGradient><linearGradient id="aa" gradientUnits="userSpaceOnUse" x1="500.6" y1="226.55" x2="500.6" y2="249.75" spreadMethod="pad"><stop offset="0%" stop-color="#FFECAC"/><stop offset="100%" stop-color="#FFDA71"/></linearGradient><linearGradient id="ab" gradientUnits="userSpaceOnUse" x1="506.85" y1="245.5" x2="506.85" y2="234.7" spreadMethod="pad"><stop offset="0%" stop-color="#FFECAC"/><stop offset="100%" stop-color="#FFF"/></linearGradient><linearGradient id="ac" gradientUnits="userSpaceOnUse" x1="517" y1="219.537" x2="517" y2="205.862" spreadMethod="pad"><stop offset="0%" stop-color="#FFF0C5"/><stop offset="100%" stop-color="#FFF"/></linearGradient><linearGradient id="ad" gradientUnits="userSpaceOnUse" x1="515.1" y1="233.512" x2="515.1" y2="221.188" spreadMethod="pad"><stop offset="0%" stop-color="#FFECAC"/><stop offset="100%" stop-color="#FFF"/></linearGradient><linearGradient id="ae" gradientUnits="userSpaceOnUse" x1="447.4" y1="226.55" x2="447.4" y2="249.75" spreadMethod="pad"><stop offset="0%" stop-color="#FFE085"/><stop offset="100%" stop-color="#FFCB31"/></linearGradient><linearGradient id="af" gradientUnits="userSpaceOnUse" x1="441.3" y1="245.5" x2="441.3" y2="234.7" spreadMethod="pad"><stop offset="0%" stop-color="#FFDA71"/><stop offset="100%" stop-color="#FFF"/></linearGradient><linearGradient id="ag" gradientUnits="userSpaceOnUse" x1="502.4" y1="239.5" x2="502.4" y2="210.3" spreadMethod="pad"><stop offset="0%" stop-color="#FFCF45"/><stop offset="100%" stop-color="#F0B732"/></linearGradient><linearGradient id="ah" gradientUnits="userSpaceOnUse" x1="445.65" y1="239.537" x2="445.65" y2="209.862" spreadMethod="pad"><stop offset="0%" stop-color="#FFCF45"/><stop offset="100%" stop-color="#F0B732"/></linearGradient><linearGradient id="ai" gradientUnits="userSpaceOnUse" x1="474.3" y1="199.537" x2="474.3" y2="252.763" spreadMethod="pad"><stop offset="0%" stop-color="#FAB781"/><stop offset="16.078%" stop-color="#FCC9A0"/><stop offset="27.843%" stop-color="#FDE0C5"/><stop offset="85.882%" stop-color="#FDE0C5"/><stop offset="100%" stop-color="#FCC597"/></linearGradient><linearGradient id="aj" gradientUnits="userSpaceOnUse" x1="472.5" y1="169.512" x2="473.7" y2="204.188" spreadMethod="pad"><stop offset="0%" stop-color="#FFE085"/><stop offset="25.098%" stop-color="#FFE598"/><stop offset="52.941%" stop-color="#FFE598"/><stop offset="100%" stop-color="#FFECAC"/></linearGradient><linearGradient id="ak" gradientUnits="userSpaceOnUse" x1="431.05" y1="219.537" x2="431.05" y2="205.862" spreadMethod="pad"><stop offset="0%" stop-color="#FFE598"/><stop offset="100%" stop-color="#FFF"/></linearGradient><linearGradient id="al" gradientUnits="userSpaceOnUse" x1="471.488" y1="240.55" x2="477.512" y2="240.55" spreadMethod="pad"><stop offset="0%" stop-color="#F5A5C1"/><stop offset="100%" stop-color="#EF609F"/></linearGradient><linearGradient id="am" gradientUnits="userSpaceOnUse" x1="478.613" y1="223.537" x2="470.887" y2="222.463" spreadMethod="pad"><stop offset="0%" stop-color="#FCC597"/><stop offset="100%" stop-color="#FEEEE1"/></linearGradient><linearGradient id="an" gradientUnits="userSpaceOnUse" x1="474.55" y1="229.513" x2="474.55" y2="231.588" spreadMethod="pad"><stop offset="0%" stop-color="#FDE0C5"/><stop offset="100%" stop-color="#FCC597"/></linearGradient><linearGradient id="ao" gradientUnits="userSpaceOnUse" x1="475.125" y1="237.238" x2="472.775" y2="239.863" spreadMethod="pad"><stop offset="0%" stop-color="#F17CAB"/><stop offset="100%" stop-color="#F8BCCD"/></linearGradient><linearGradient id="ap" gradientUnits="userSpaceOnUse" x1="474.55" y1="236.5" x2="474.55" y2="233.5" spreadMethod="pad"><stop offset="0%" stop-color="#F393B8"/><stop offset="100%" stop-color="#ED3491"/></linearGradient><linearGradient id="aq" gradientUnits="userSpaceOnUse" x1="449.9" y1="204.525" x2="449.9" y2="170.575" spreadMethod="pad"><stop offset="0%" stop-color="#FFE598"/><stop offset="100%" stop-color="#FFF"/></linearGradient><linearGradient id="ar" gradientUnits="userSpaceOnUse" x1="465.45" y1="204.5" x2="465.45" y2="168.4" spreadMethod="pad"><stop offset="0%" stop-color="#FFE598"/><stop offset="100%" stop-color="#FFF"/></linearGradient><linearGradient id="as" gradientUnits="userSpaceOnUse" x1="432.9" y1="233.512" x2="432.9" y2="221.188" spreadMethod="pad"><stop offset="0%" stop-color="#FFE085"/><stop offset="100%" stop-color="#FFF"/></linearGradient><linearGradient id="at" gradientUnits="userSpaceOnUse" x1="433.25" y1="201.537" x2="433.25" y2="189.963" spreadMethod="pad"><stop offset="0%" stop-color="#FFECAC"/><stop offset="100%" stop-color="#FFF"/></linearGradient><linearGradient id="au" gradientUnits="userSpaceOnUse" x1="457.75" y1="212.537" x2="457.75" y2="221.662" spreadMethod="pad"><stop offset="0%" stop-color="#0076BB"/><stop offset="100%" stop-color="#9CDBF8"/></linearGradient><linearGradient id="av" gradientUnits="userSpaceOnUse" x1="454.463" y1="219.65" x2="461.137" y2="219.65" spreadMethod="pad"><stop offset="0%" stop-color="#9CDBF8"/><stop offset="49.02%" stop-color="#FFF"/><stop offset="100%" stop-color="#9CDBF8"/></linearGradient><linearGradient id="aw" gradientUnits="userSpaceOnUse" x1="491" y1="212.537" x2="491" y2="221.662" spreadMethod="pad"><stop offset="0%" stop-color="#0076BB"/><stop offset="100%" stop-color="#9CDBF8"/></linearGradient><linearGradient id="ax" gradientUnits="userSpaceOnUse" x1="487.463" y1="219.65" x2="494.137" y2="219.65" spreadMethod="pad"><stop offset="0%" stop-color="#9CDBF8"/><stop offset="49.02%" stop-color="#FFF"/><stop offset="100%" stop-color="#9CDBF8"/></linearGradient><linearGradient id="ay" gradientUnits="userSpaceOnUse" x1="470.525" y1="240.412" x2="473.475" y2="241.487" spreadMethod="pad"><stop offset="0%" stop-color="#FFF"/><stop offset="100%" stop-color="#F9C9D5"/></linearGradient><linearGradient id="az" gradientUnits="userSpaceOnUse" x1="513.4" y1="203.537" x2="513.4" y2="189.862" spreadMethod="pad"><stop offset="0%" stop-color="#FFF0C5"/><stop offset="100%" stop-color="#FFF"/></linearGradient><linearGradient id="aA" gradientUnits="userSpaceOnUse" x1="488.3" y1="200.537" x2="488.3" y2="171.263" spreadMethod="pad"><stop offset="0%" stop-color="#FFE598"/><stop offset="100%" stop-color="#FFF"/></linearGradient><linearGradient id="aB" gradientUnits="userSpaceOnUse" x1="472.5" y1="246.75" x2="477.7" y2="246.75" spreadMethod="pad"><stop offset="0%" stop-color="#FEEEE1"/><stop offset="100%" stop-color="#FDE0C5"/></linearGradient><linearGradient id="aC" gradientUnits="userSpaceOnUse" x1="447.475" y1="306.05" x2="501.725" y2="306.05" spreadMethod="pad"><stop offset="0%" stop-color="#EA6FA6"/><stop offset="23.137%" stop-color="#FFF"/><stop offset="41.176%" stop-color="#F287B1"/><stop offset="63.137%" stop-color="#EF67A2"/><stop offset="100%" stop-color="#EE599C"/></linearGradient><path fill="#FFF" fill-opacity="0" d="M0 320h284V0H0v320z" id="aD"/><path fill="#F8C4D2" d="M550.65 241.45q-5.45-2.7-10.4-3.8-1.35-.25-8.75-1.3 2.2.1 5.95 0 4.75-.15 7.25-.65 5.2-.95 5.65-4.65.4-3.35-2.65-5.2-3.1-1.85-7.05-2.55-3.15-.55-7.8-.5-10.4.25-19.15 5-13.1 6.95-20.5 20.15-7.95 14.3-5.05 29.25l6.1 2.3q4.85 5.1 11.15 8.35 6.4 3.3 11.65 3.25 4.3-.1 5.85-1.95 1.8-2.15-.35-6.5-1-2-2.4-3.5-1.45-1.5-4.95-4.15 9.4 5.55 15.85 5.35 4.5-.15 5.85-3.4 1.45-3.4-2.4-6.7-3.92-3.46-10.3-6.5 2.262.843 6 1.95 7 2.05 9.55 2.05 5.55-.05 7.1-3.4 1.5-3.3-2.25-6.1-3.8-2.9-9.85-5.25-6.3-2.2-8.3-2.95 1.45.3 8.1 1.85 7.1 1.3 13 .5 5.75-.75 6.9-4.6 1.2-3.85-3.8-6.35z" id="aE"/><path fill="url(#a)" d="M542.5 241.45q-4.1-.9-7.35-.4t-3.75 2.1q-.55 1.55 2 3.3 2.55 1.8 6.65 2.65 4.1.9 7.35.4 3.25-.45 3.75-2.05.55-1.6-2-3.35-2.6-1.8-6.65-2.65z" id="aF"/><path fill="url(#b)" d="M539.45 226.2q-3.75-.35-6.55.4t-3.15 2.15q-.35 1.4 2 2.65 2.4 1.25 6.05 1.55 3.65.4 6.55-.35 2.85-.75 3.2-2.15.3-1.4-2.05-2.65-2.4-1.2-6.05-1.6z" id="aG"/><path fill="url(#c)" d="M536.65 257.1q-3.4-1.3-6.2-1.25-2.75.05-3.35 1.4-.55 1.35 1.45 3.2 1.95 1.8 5.35 3.1 3.35 1.3 6.2 1.3 2.8-.05 3.35-1.4.55-1.35-1.45-3.2t-5.35-3.15z" id="aH"/><path fill="url(#d)" d="M521.7 268.7q-2.65.05-3.2 1.3-.5 1.3 1.4 3 1.85 1.75 5 2.95 3.2 1.25 5.8 1.2 2.65-.05 3.15-1.35.55-1.25-1.35-2.95-1.85-1.75-5-2.95-3.2-1.25-5.8-1.2z" id="aI"/><path fill="url(#e)" d="M514.75 280.3q-3.1-2-6-2.6-2.85-.65-3.85.5-.9 1.15.6 3.35 1.55 2.2 4.65 4.15 3.1 2 6 2.6 2.9.6 3.8-.55 1-1.15-.55-3.35-1.5-2.2-4.65-4.1z" id="aJ"/><path fill="url(#f)" d="M512.55 230.95l-1.5-1.65q-12.1 7.5-18.6 20.1-7.05 13.7-4.3 27.8l6.95 5.75q5.45-3.25 10.25-8.65 9.2-10.4 11.3-23.15 2.1-12.75-4.1-20.2z" id="aK"/><path fill="url(#g)" d="M513.75 242.5q.15-6.25-2.3-7.6-2.1-1.1-6.2 2.2-4.35 3.5-7.9 9.55-3.55 6.15-4.65 13-1 6.6 1.05 7.75 2.75 1.45 6.75-.4 5.2-2.4 9.1-9.75 4.05-7.65 4.15-14.75z" id="aL"/><path fill="url(#h)" d="M521.1 240.7l-.4 2.55 25.75 2.75-25.35-5.3z" id="aM"/><path fill="url(#i)" d="M520.1 253.2l-.8 2 20.9 7.1-20.1-9.1z" id="aN"/><path fill="url(#j)" d="M514.5 266.8l-.65 1.65 17.05 6.3-16.4-7.95z" id="aO"/><path fill="url(#k)" d="M503.25 276.95l15.35 9.8-14.25-11.3-1.1 1.5z" id="aP"/><path fill="url(#l)" d="M518.5 231.4l.3 2.15q10.15-5.1 25.8-3.65-13.95-3.2-26.1 1.5z" id="aQ"/><path fill="#F8C4D2" d="M417.15 236.35q-7.4 1-8.75 1.3-4.95 1.1-10.4 3.8-5.05 2.5-3.85 6.35 1.2 3.85 6.95 4.6 5.9.8 13-.5 3.75-.65 8.1-1.85-5.05 1.65-8.3 2.95-6.05 2.35-9.85 5.25-3.75 2.8-2.25 6.1 1.5 3.35 7.05 3.4 2.55 0 9.55-2.05 3.912-1.159 6.15-2.05-6.506 3.165-10.45 6.6-3.8 3.3-2.4 6.7 1.4 3.25 5.85 3.4 6.25.2 15.95-5.35-3.55 2.65-5 4.15-1.45 1.5-2.45 3.5-2.15 4.35-.3 6.5 1.55 1.85 5.8 1.95 5.25.05 11.65-3.25 6.3-3.25 11.15-8.35l6.15-2.3q2.85-14.95-5.1-29.25-7.4-13.2-20.5-20.15-8.75-4.75-19.15-5-4.6-.05-7.75.5-3.95.7-7.05 2.55-3 1.85-2.65 5.2.4 3.7 5.6 4.65 2.5.5 7.3.65 3.7.1 5.95 0z" id="aR"/><path fill="url(#m)" d="M413.5 241.05q-3.3-.5-7.4.4-4.05.85-6.55 2.65-2.55 1.75-2.05 3.35t3.75 2.05q3.25.5 7.3-.4 4.1-.85 6.7-2.65 2.55-1.75 2.05-3.3-.55-1.6-3.8-2.1z" id="aS"/><path fill="url(#n)" d="M415.7 226.6q-2.8-.75-6.5-.4-3.7.4-6.05 1.6-2.4 1.25-2.05 2.65.3 1.4 3.15 2.15 2.9.75 6.55.35 3.65-.3 6.05-1.55 2.35-1.25 2-2.65-.3-1.4-3.15-2.15z" id="aT"/><path fill="url(#o)" d="M418.15 255.85q-2.8-.05-6.2 1.25-3.35 1.3-5.35 3.15-2 1.85-1.4 3.2.55 1.35 3.35 1.4 2.8 0 6.15-1.3 3.4-1.25 5.4-3.1 2-1.85 1.45-3.2-.6-1.35-3.4-1.4z" id="aU"/><path fill="url(#p)" d="M426.95 268.7q-2.65-.05-5.85 1.2-3.15 1.2-5 2.95-1.85 1.7-1.35 2.95.55 1.3 3.2 1.35 2.6.05 5.75-1.2 3.15-1.2 5.05-2.95 1.85-1.7 1.35-3-.5-1.25-3.15-1.3z" id="aV"/><path fill="url(#q)" d="M439.85 277.7q-2.9.6-6 2.6-3.1 1.9-4.6 4.1-1.55 2.25-.6 3.35.95 1.15 3.85.55 2.85-.6 5.95-2.6 3.15-1.95 4.65-4.15 1.55-2.2.6-3.35-1-1.15-3.85-.5z" id="aW"/><path fill="url(#r)" d="M437.6 229.3l-1.55 1.65q-6.2 7.45-4.05 20.2 2.1 12.7 11.25 23.15 4.8 5.4 10.25 8.65l7-5.75q2.75-14.15-4.3-27.8-6.55-12.6-18.6-20.1z" id="aX"/><path fill="url(#s)" d="M437.15 234.9q-2.4 1.35-2.25 7.6.15 7.1 4.15 14.75 3.95 7.35 9.1 9.75 4 1.85 6.7.4 2.1-1.15 1.1-7.75-1.1-6.9-4.7-13-3.55-6.05-7.9-9.55-4.1-3.3-6.2-2.2z" id="aY"/><path fill="url(#t)" d="M427.95 243.25l-.45-2.55-25.35 5.3 25.8-2.75z" id="aZ"/><path fill="url(#u)" d="M408.45 262.3l20.85-7.1-.8-2-20.05 9.1z" id="ba"/><path fill="url(#v)" d="M417.7 274.75l17.1-6.3-.65-1.65-16.45 7.95z" id="bb"/><path fill="url(#w)" d="M430.05 286.75l15.3-9.8-1.05-1.5-14.25 11.3z" id="bc"/><path fill="url(#x)" d="M429.8 233.55l.3-2.15q-12.1-4.65-26.05-1.5 15.6-1.45 25.75 3.65z" id="bd"/><path fill="#FCD1AD" d="M474.4 309.8q0-2.2-6.3-1.6-6.05.55-7.45 1.9l.35 6.6q-.65.2-1 1.1-.4.9-.15 1.55.1.55.8.75.7.2 1.05-.35-.4 1.6.8 2.05.65.25 1.25.05.65-.25.85-.95-.35 1.7 1.05 2 .7.1 1.25-.25.486-.309.5-.9.077 1.74 1.8 1.5 1.354-.087 1.25-1.8.093.395.3.75.35.55.95.75.95.35 1.7-.2.85-.65.85-2.1 0-.7-.3-1.7-.35-1.05-.35-1.75 0-.75.4-3.75t.4-3.65z" id="be"/><path fill="#FCC597" d="M472.7 310.3q0-.85-.6-1.5-.6-.6-1.45-.6h-7q-.85 0-1.5.6-.6.65-.6 1.5v5.7q0 2.6 5.6 2.6 5.55 0 5.55-2.6v-5.7z" id="bf"/><path fill="#FDE0C5" d="M473.6 320.8q-.1-.8-1.4-.6-1.25.15-1.15.95l.1.6q.05.35.45.35.1 0 .9-.15.7-.05.85-.1.35-.1.3-.45l-.05-.6z" id="bg"/><path fill="#FDE0C5" d="M469.9 321.4q0-.7-1-.65-1.05 0-1 .7v.45q0 .25.35.3h.75q.55 0 .7-.05.3-.05.3-.35l-.1-.4z" id="bh"/><path fill="#FDE0C5" d="M467.05 321.15q.05-.65-.95-.85-1.05-.15-1.15.5l-.05.45q-.05.3.3.4.1.05.75.1.25.05.65.1.3 0 .35-.25l.1-.45z" id="bi"/><path fill="#FDE0C5" d="M464.15 320.5q.25-.55-.75-.95-.95-.4-1.2.2l-.15.4q-.1.3.25.45.15.1.65.3.55.2.65.25.25.05.4-.2l.15-.45z" id="bj"/><path fill="#FDE0C5" d="M461.65 319.1q.15-.5-.6-.8-.8-.35-1 .15l-.05.35q-.15.35.65.55.2.1.5.2.25.05.35-.2l.15-.25z" id="bk"/><path fill="#FCD1AD" d="M480.7 308.2q-6.3-.6-6.3 1.6 0 .65.45 3.65.4 3 .4 3.75 0 .7-.35 1.75-.4 1-.4 1.7 0 1.45.85 2.1.8.55 1.75.2.55-.2.95-.75.246-.422.3-.9-.064 1.859 1.3 1.95 1.76.238 1.7-1.5.073.596.55.9.55.35 1.25.25 1.45-.35 1.1-2 .2.7.85.95.55.2 1.15-.05 1.25-.4.85-2.05.4.55 1.1.35.65-.2.8-.75.25-.65-.15-1.55-.35-.9-1-1.1l.35-6.6q-1.5-1.35-7.5-1.9z" id="bl"/><path fill="#FCC597" d="M476.1 316q0 2.6 5.6 2.6 5.55 0 5.55-2.6v-5.7q0-.85-.6-1.5-.6-.6-1.45-.6h-7q-.85 0-1.5.6-.6.65-.6 1.5v5.7z" id="bm"/><path fill="#FDE0C5" d="M476.6 320.2q-1.25-.2-1.35.6l-.1.6q-.05.35.35.45.15.05.8.1.75.15.9.15.45 0 .5-.35l.05-.6q.1-.8-1.15-.95z" id="bn"/><path fill="#FDE0C5" d="M479.95 320.75q-1.05-.05-1.1.65v.4q0 .3.3.35.1.05.7.05 1.1 0 1.1-.3v-.45q.05-.7-1-.7z" id="bo"/><path fill="#FDE0C5" d="M482.75 320.3q-1.05.2-.95.85l.05.45q.05.25.35.25.2 0 .7-.1.6-.05.7-.1.35-.1.35-.4l-.05-.45q-.1-.65-1.15-.5z" id="bp"/><path fill="#FDE0C5" d="M485.35 319.55q-.95.4-.65.95l.1.45q.15.35 1.05-.05.25-.1.7-.3.3-.15.2-.45l-.15-.4q-.25-.6-1.25-.2z" id="bq"/><path fill="#FDE0C5" d="M487.8 318.3q-.75.3-.6.8l.15.25q.1.25.3.2.15 0 .5-.2.85-.2.7-.55l-.15-.35q-.15-.5-.9-.15z" id="br"/><path fill="url(#y)" d="M482.95 255l-8.55 2.9-8.5-2.9q-10.95 0-10.85 5.8.05 3.4 3.65 12.35.65 2.5.05 5.4-.65 3.35-2.95 6.5-3.15 4.3-7 11.5-4.55 8.45-5.25 12.45-.1.9 1.25 1.5.85.35 3.5 1.45 8.6 4.1 26.85 4.25 18.5.15 26.25-4.05 3.35-1.85 3.8-3.8-1.1-4.45-6.05-13-5.15-8.5-6.1-10.3-4.05-7.55-2.9-11.9 3.6-8.95 3.6-12.35.1-5.8-10.8-5.8z" id="bs"/><path fill="url(#z)" d="M457.15 286.4l-1.25-.6-11.1 24.7 1.35.5 11-24.6z" id="bt"/><path fill="url(#A)" d="M459.7 286.3l-1.3-.5-10 26.15 1.3.6 10-26.25z" id="bu"/><path fill="url(#B)" d="M462.3 286.3l-1.3-.4-8.75 27.05 1.4.45 8.65-27.1z" id="bv"/><path fill="url(#C)" d="M464.9 286.25l-1.4-.3-6.9 27.1 1.35.35 6.95-27.15z" id="bw"/><path fill="url(#D)" d="M467.4 286.25l-1.35-.3-5.2 27.1 1.35.25 5.2-27.05z" id="bx"/><path fill="url(#E)" d="M470 286.2l-1.4-.15-3.45 27.05 1.4.15L470 286.2z" id="by"/><path fill="url(#F)" d="M472.6 286.2l-1.45-.15-1.8 29.95 1.35.05 1.9-29.85z" id="bz"/><path fill="url(#G)" d="M475.1 286.1h-1.35v27.1h1.35v-27.1z" id="bA"/><path fill="url(#H)" d="M477.7 286.05l-1.45.15 1.75 27.05 1.4-.05-1.7-27.15z" id="bB"/><path fill="url(#I)" d="M480.2 286.05l-1.35.15 3.45 27.05 1.35-.15-3.45-27.05z" id="bC"/><path fill="url(#J)" d="M482.75 285.95l-1.4.3 5.75 29.45 1.45-.2-5.8-29.55z" id="bD"/><path fill="url(#K)" d="M485.3 285.95l-1.35.3 6.9 27.15 1.4-.35-6.95-27.1z" id="bE"/><path fill="url(#L)" d="M487.85 285.9l-1.3.4 8.65 27.1 1.35-.45-8.7-27.05z" id="bF"/><path fill="url(#M)" d="M490.35 285.8l-1.3.5 10.3 26.8 1.3-.55-10.3-26.75z" id="bG"/><path fill="url(#N)" d="M492.95 285.8l-1.3.6 11.15 24.9q.9-.65 1.1-.95l-10.95-24.55z" id="bH"/><path fill="#C7C433" d="M474.4 268.4q-.3 0-.55.3-.25.25-.25.55v21.55q0 .3.25.55.2.25.55.25.35 0 .6-.25t.25-.55v-21.55q0-.3-.25-.55-.25-.3-.6-.3z" id="bI"/><path fill="url(#O)" d="M460 263.75q.1-5.85-.75-7.95-5.95-1.65-10.1 8.8-1.65 4.15-2.2 8.45-.55 4.3.3 6.45 1.15 3 5.65 5.5 4.85 2.65 10.45 2.85 4.25.15 5.1-6.2.3-2.5-.3-4.5-.65-2.15-2-2.4-4.45-.95-7.2-.95.95-4.2 1.05-10.05z" id="bJ"/><path fill="url(#P)" d="M464.9 277.1q-1.35.35-2.25-.5-1.7-1.6-2.5-.6t1.55 1.7q1.35.3.55 1.35-.75 1.05-2.15.7-3-.7-3.3.4-.4 1.5 3.1 1.55 1.6.1 1.65 1.35.05 1.3-1.45 1.35-2 .1-1.65 1.05.3 1 2.4.25 1.3-.5 1.85.1 1.25 1.4 3.45.5l.95-8.75q-.85-.8-2.2-.45z" id="bK"/><path fill="#D32781" d="M453.95 273.35l5.3.45q.6-2.7.85-6.8.15-3.9-.1-6.65-.65 7.7-.8 8.3-1.2 4.8-5.25 4.7z" id="bL"/><path fill="url(#Q)" d="M482.65 274.75q-1.35.25-2 2.4-.6 2-.3 4.5.8 6.35 5.05 6.2 5.65-.2 10.5-2.85 4.55-2.5 5.7-5.5.8-2.15.25-6.45-.55-4.35-2.2-8.45-4.15-10.45-10.1-8.8-.85 2.1-.75 7.95.1 5.85 1.05 10.05-2.65 0-7.2.95z" id="bM"/><path fill="url(#R)" d="M483.95 277.1q-1.35-.35-2.25.45l.95 8.75q0 .3 1.25.35 1.4.05 2.15-.85.6-.6 1.95-.1 2.1.75 2.4-.25.3-.95-1.7-1.05-1.5-.05-1.45-1.35.05-1.25 1.65-1.35 3.65-.05 3.1-1.55-.25-1.1-3.3-.4-1.35.35-2.15-.7-.85-1.05.5-1.35 2.35-.7 1.6-1.7t-2.45.6q-.9.85-2.25.5z" id="bN"/><path fill="#D32781" d="M489.55 273.8l5.35-.45q-4.1.1-5.3-4.7-.15-.75-.75-8.3-.3 2.85-.1 6.65.15 4.15.8 6.8z" id="bO"/><path fill="url(#S)" d="M454.9 315.3q8.7 2.25 19 2.5 10.65.25 19.15-1.9 9.6-2.4 11.8-6.9.3-.65-.15-.8-.25-.1-1.3.8-1.6 1.3-2.05 1.4-.6.15-1.9-.75-1.45-1.05-2.95-.5-1.35.45-4.05 2.75-2.75 2.3-5.55 1.9-1.1-.15-4.55-1.7-4.15-1.9-6.2-2-2.95-.15-4.6 2.6-1.4 2.2-4.85.5-4.15-2.65-6.05-3.7-2-1.05-3.95-1-2.15.05-2.85 1.6-1.25 2.5-4.05 1.55-1.6-.6-4.35-2.8-1.3-.95-1.75-.2-.35.5.5 1.6 2.25 2.85 10.7 5.05z" id="bP"/><path fill="#FCD1AD" d="M462.85 282.7q.1 1.85 1 3 1.2 1.4 4.55 1.7 3.3.3 4.85-.85.85-.7 1.05-2.5.25-1.65-.15-3.4-.25-1.15-1.3-1.4-.3-.05-2.8-.05 1.35-.15 2.55-1.35 1.3-1.3.5-2.25-.55-.6-1.35-.05-1.6 1.1-1.75 1.15-2.45.55-3.65.85-2.15.55-2.85 1.85-.8 1.45-.65 3.3z" id="bQ"/><path fill="#F9A96C" d="M472.7 283.25q1.1.05 1.1.85 0 .7-1.3.85-1.5.05-1.8.15 2.2 0 2.45.8.193.674-.95 1.1.675-.216 1.05-.45.85-.7 1.05-2.5.25-1.65-.15-3.4-.2-.85-.7-1.15.6.65-.1 1.2-.25.2-.95.3-1.1.2-2 .3.65.1 2.1.05 1.15.1 1.15.95 0 .5-1.1.7-1.3.15-1.75.3.5.1 1.9-.05z" id="bR"/><path fill="#FDE0C5" d="M468.9 279.65q-.35 0-.35.55 0 .5.35.5t.35-.5q0-.55-.35-.55z" id="bS"/><path fill="#FDE0C5" d="M469.25 281.95q-.35 0-.35.55 0 .6.35.6.45 0 .45-.6 0-.55-.45-.55z" id="bT"/><path fill="#FDE0C5" d="M469.4 284q-.35 0-.35.5 0 .6.35.6t.35-.6q0-.5-.35-.5z" id="bU"/><path fill="#FDE0C5" d="M469.05 285.95q-.35 0-.35.5 0 .6.35.6t.35-.6q0-.5-.35-.5z" id="bV"/><path fill="#FCC597" d="M463.3 279.9q-.6 1.45-.45 3.05.15 1.65 1 2.75.85 1 2.85 1.4.9-.25 1.2-1.15.15-.45.2-1.7 0-3.25-.05-3.6-.15-1.05-1.1-1.5-.8-.45-1.8-.3-1.1.2-1.8 1l-.05.05z" id="bW"/><path fill="#FCD1AD" d="M485.3 279.4q-.7-1.3-2.85-1.85-2.5-.4-3.6-.85-.15-.05-1.75-1.15-.85-.55-1.35.05-.8.95.45 2.25 1.15 1.2 2.55 1.35-2.45 0-2.8.05-1.05.25-1.3 1.4-.4 1.7-.15 3.4.25 1.8 1.1 2.5 1.5 1.15 4.85.85 3.35-.3 4.45-1.7.95-1.15 1.1-3 .1-1.85-.7-3.3z" id="bX"/><path fill="#F9A96C" d="M476.2 283.25q.6 0 1.85.05l-1.8-.3q-1.1-.2-1.1-.7-.05-.85 1.15-.95.7-.05 2.1-.05-2.7-.35-2.95-.6-.6-.5-.15-1.2-.45.35-.65 1.15-.4 1.7-.15 3.4.25 1.8 1.1 2.5.312.195.8.4-.874-.4-.7-1.05.1-.8 2.4-.8-1.05-.05-1.75-.15-1.3-.15-1.3-.85 0-.8 1.15-.85z" id="bY"/><path fill="#FDE0C5" d="M480.3 280.2q0-.55-.4-.55t-.4.55q0 .5.4.5t.4-.5z" id="bZ"/><path fill="#FDE0C5" d="M479.9 282.5q0-.55-.4-.55-.35 0-.35.55 0 .6.35.6.4 0 .4-.6z" id="ca"/><path fill="#FDE0C5" d="M479.8 284.5q0-.5-.4-.5-.35 0-.35.5 0 .6.35.6.4 0 .4-.6z" id="cb"/><path fill="#FDE0C5" d="M480.15 286.45q0-.5-.35-.5-.4 0-.4.5 0 .6.4.6.35 0 .35-.6z" id="cc"/><path fill="#FCC597" d="M482.15 287.1q2.05-.45 2.75-1.4.9-1.1 1.1-2.75.15-1.6-.45-3.05l-.1-.05q-.7-.8-1.8-1-.95-.15-1.85.3-.9.45-1 1.5-.2 1.35-.1 3.6.1 1.3.25 1.7.3.9 1.2 1.15z" id="cd"/><path fill="url(#T)" d="M470.6 278.65q1.5 1.1 3.7.55.55-3.05-1-5.3-1.45-2.05-4.05-2.65-2.6-.6-5.05.55-2.65 1.3-4 4.35 1.15-1.65 4.1-1.55 2.95.1 4.4 1.95 1.55 1.85 1.9 2.1z" id="ce"/><path fill="#BFBD32" d="M470.5 272.95q-2.4-1.15-5.35.05 3.2-.9 5.35.75 1.35 1 3.3 4.2-.6-3.7-3.3-5z" id="cf"/><path fill="#EF67A2" d="M459.55 256.45q-.25-.7-1.1-.85-1.45-.35-3.15.55-1.65.85-2.75 2.45.55-.65 1.65-1.2 1.2-.75 1.7-.15.6.65-.45 1.95l-.75 1.05q-.55.95-.3 1.4.25.4.85 0 .2-.1.85-1.25.75-1.2 1.65-1.2.7 0 .65 1.9 0 1.95.5 1.95.55 0 .8-1.5.25-1.55.05-3.6-.2-1.4-.2-1.5z" id="cg"/><path fill="#EF67A2" d="M490.3 255.6q-.9.15-1.15.85-.1.25-.15 1.5-.2 2.05.05 3.6.25 1.5.8 1.5.45 0 .45-1.95 0-1.9.7-1.9.8 0 1.65 1.2.15.2.45.7.25.45.45.55.55.4.8 0 .25-.5-.3-1.4l-.75-1.05q-1-1.25-.5-1.95.45-.55 1.75.15 1.207.604 1.6 1.1-1.091-1.521-2.7-2.35-1.7-.9-3.15-.55z" id="ch"/><path fill="url(#U)" d="M485.25 257.3q.55-1.25.4-1.7-.15-.65-1.55-1.05-1.6-.3-2.25-.55-1.2-.4-1.2-1.15v-3.75H468.2v3.75q0 .75-1.2 1.15-1.55.4-2.25.55-1.4.4-1.6 1.05-.1.45.45 1.7 1.3 2.85 4.5 4.35 2.75 1.3 6.3 1.4 3.6-.1 6.3-1.4 3.2-1.5 4.55-4.35z" id="ci"/><path fill="url(#V)" d="M474.8 257.15l-.4.8-.4-.8q-1.6-2.75-4.55-1.05-2.95 1.7-1.35 4.45l.5.8q-.35-.1-.9-.1-3.2 0-3.2 3.4t3.2 3.4q.55 0 .9-.1l-.5.8q-1.6 2.75 1.35 4.45 2.95 1.7 4.55-1l.4-.85.4.85q1.6 2.7 4.55 1 2.9-1.7 1.35-4.45l-.5-.8q.3.1.95.1 3.2 0 3.2-3.4t-3.2-3.4q-.65 0-.95.1l.5-.8q1.6-2.75-1.35-4.45-2.95-1.7-4.55 1.05z" id="cj"/><path fill="url(#W)" d="M474.4 261.25q-1.4 0-2.4 1t-1 2.4q0 1.4 1 2.4t2.4 1q1.4 0 2.4-1 1.05-1 1.05-2.4t-1.05-2.4q-1-1-2.4-1z" id="ck"/><path fill="url(#X)" d="M474.4 261.9q-.85 0-1.55.45-.65.4-.65 1 0 .55.65 1 .7.4 1.55.4.9 0 1.55-.4.65-.45.65-1 0-.6-.65-1-.65-.45-1.55-.45z" id="cl"/><path fill="url(#Y)" d="M469.75 256.5q-.75.45-1.1 1.1-.35.7-.1 1.2.35.5 1.1.55.8.05 1.55-.45.75-.45 1.1-1.15.4-.65.05-1.15-.25-.5-1-.55-.8-.05-1.6.45z" id="cm"/><path fill="url(#Z)" d="M480.15 257.6q-.35-.65-1.15-1.1-.8-.5-1.6-.45-.75.05-1 .55-.35.5.05 1.15.35.7 1.1 1.15.8.5 1.6.45.75-.05 1.05-.55.25-.55-.05-1.2z" id="cn"/><path fill="#FFF" d="M467 265.85q.45-.7.45-1.7 0-.95-.45-1.65-.4-.65-1.05-.65-.6 0-1.05.65-.45.7-.45 1.65 0 1 .45 1.7.45.65 1.05.65.65 0 1.05-.65z" id="co"/><path fill="#FFF" d="M481.15 264.15q0 1 .45 1.7.45.65 1.05.65.65 0 1.05-.65.45-.7.45-1.7 0-.95-.45-1.65-.4-.65-1.05-.65-.6 0-1.05.65-.45.7-.45 1.65z" id="cp"/><path fill="url(#aa)" d="M500.6 194.05q-8.9-6.95-12.7-12.65-4.4-6.55-7.55-7.25-2.8-.55-3.3 3.25-.55 3.75 1.65 8.45 2.55 5.35 7.35 8.55 7.2 4.8 11.5 10.55 4.7 6.3 6.65 14.65.85 3.65-1 6.75-1.2 2.1-4.6 5.15-3.75 3.5-5 5.1-2.3 3.15-2.25 6.65 3.1 3.8 7.5 4.85 3.95.95 7.7-.5 3.7-1.35 5.5-4.35 1.9-3.15.7-6.75 4.7.05 7.3-4.9 2.8-5.2-.95-9.95 2.7-1.25 4.1-4.2 1.3-2.8.95-6-.8-7.6-7.85-8.85-6.05-1-15.7-8.55z" id="cq"/><path fill="url(#ab)" d="M505.25 243.2q-1.65.55-3.35.05.55.8 1.3 1.25 1.85 1.35 4.15.95 2.25-.4 3.55-2.3 1.3-1.9.85-4.15-.4-2.3-2.3-3.6-.6-.4-1.6-.75 1.05 1.4 1.1 3.15.05 1.8-.95 3.3-1.05 1.5-2.75 2.1z" id="cr"/><path fill="url(#ac)" d="M512.45 206.2q2.1.7 3.4 2.5 1.3 1.8 1.3 4.05t-1.3 4q-1.3 1.75-3.4 2.45 1.2.4 2.2.4 2.85 0 4.9-2 2-2.05 2-4.85 0-2.9-2-4.9-2.05-2-4.9-2-1.15 0-2.2.35z" id="cs"/><path fill="url(#ad)" d="M512.95 221.6q-.8 0-1.9.3 1.85.65 3 2.25 1.2 1.6 1.2 3.65 0 2-1.2 3.65-1.15 1.6-3 2.25.85.3 1.9.3 2.55 0 4.4-1.85 1.8-1.85 1.8-4.35 0-2.55-1.8-4.35-1.85-1.85-4.4-1.85z" id="ct"/><path fill="url(#ae)" d="M461.9 194.4q4.8-3.2 7.35-8.55 2.2-4.7 1.65-8.45-.5-3.8-3.25-3.25-3.15.7-7.55 7.25-3.8 5.7-12.75 12.65-9.6 7.55-15.6 8.55-7.1 1.25-7.9 8.85-.3 3.2.95 6 1.4 2.95 4.1 4.2-3.75 4.75-.95 9.95 2.6 4.95 7.35 4.9-1.2 3.6.65 6.75 1.8 3 5.45 4.35 3.8 1.45 7.75.5 4.4-1.05 7.5-4.85.1-3.5-2.25-6.65-1.2-1.6-4.95-5.1-3.4-3.1-4.6-5.15-1.8-3.1-1-6.75 1.9-8.35 6.6-14.65 4.25-5.75 11.45-10.55z" id="cu"/><path fill="url(#af)" d="M438.65 235.4q-1.85 1.3-2.25 3.6-.4 2.25.9 4.15 1.3 1.9 3.55 2.3 2.3.4 4.15-.95.75-.45 1.3-1.25-1.7.5-3.4-.05-1.7-.6-2.7-2.1-1.05-1.45-1-3.3.05-1.75 1.1-3.15-1.2.45-1.65.75z" id="cv"/><path fill="url(#ag)" d="M508.25 213.8q-.15-.5-1.9-9.35l-15.1 38.15q.15 0 1.6 1.15 1.45 1.15 2.25 1.15 8.1 0 11-4.55 2.15-3.3 1.1-7.6.4 0 1.85.3.9.2 2.5-.2-2.8-1.85-3.3-6.3-.35-3.6.75-6.3 2.15 1.2 4.55-.5-3.9-1.9-5.3-5.95z" id="cw"/><path fill="url(#ah)" d="M455.2 243.75q1.45-1.15 1.6-1.15l-13.95-38.85q-1.45 7.2-2.5 9.75-1.9 4.3-5.85 6.25 2.4 1.65 4.55.5 1.05 2.8.7 6.3-.45 4.45-3.3 6.3 1.6.4 2.5.2 1.45-.3 1.9-.3-1.1 4.25 1.1 7.6 2.9 4.55 10.95 4.55.85 0 2.3-1.15z" id="cx"/><path fill="url(#ai)" d="M505.65 196.25q-3.1-10.85-11.25-15.95-7.6-4.8-20.1-4.85-12.45.05-20.05 4.85-8.15 5.1-11.25 15.95-.5 1.85-.35 8.75.15 7.3-.15 9.1-1.5 10.1-.1 16.15 1.7 7.35 8.3 13.5 4.75 4.4 10.8 6.9 6.25 2.5 12.8 2.55 6.6-.05 12.8-2.55 6.05-2.45 10.8-6.9 6.6-6.15 8.35-13.5 1.4-6.05-.1-16.15-.25-1.75-.15-9.1.15-6.9-.35-8.75z" id="cy"/><path fill="#FFD55B" d="M482.6 196.05q-5.15-5.9-6.3-18.9-.35 3.4 0 7.9.5 5.7 1.95 9.6 1.9 5.05 6.75 6.4 5.05 1.45 8.7-2.55-2.45 1.1-5.55.55-3.45-.65-5.55-3z" id="cz"/><path fill="url(#aj)" d="M513.25 187.85q-3.2-13.4-15.5-21.35-11.3-7.35-24.9-7.1-14.6.25-25.05 7.6-10.75 7.6-14.75 21.05-5 2.65-5.75 7.25-.65 4.15 2.1 7.15 2.85 3.15 6.8 2.1 4.7-1.2 8.5-8-.6 3.6 1.6 4.95 1.45.95 4.25.8 2.75-.15 5.05-1.3 2.45-1.2 3.9-2.95 1.35-1.7 2.95-5.3-1.2 3.15.1 5.35 1.2 1.95 3.8 2.45 2.6.45 5.1-.8 2.75-1.45 3.95-4.45 1.15-2.85 1.45-6.15.35-3.55-.25-8.9 1.7 8.35 3.1 11.8 1.6 4.05 4.4 6.2 4.2 3.3 8.4.95 4.4-2.5 2.05-8.5 3.45 7.7 6.85 10.8 4.5 4.1 10.45 3.65 6.45-.5 7.65-6.65.6-2.85-.95-5.65-1.65-3.05-5.3-5z" id="cA"/><path fill="url(#ak)" d="M433.35 205.85q-2.8 0-4.85 2-2 2.05-2 4.9 0 2.8 2 4.85 2.05 2 4.85 2 1.1 0 2.2-.4-2.05-.7-3.4-2.45-1.35-1.8-1.35-4 0-2.25 1.35-4.05 1.35-1.75 3.4-2.5-1-.35-2.2-.35z" id="cB"/><path fill="#FEEEE1" d="M472.35 225.75q-2.3 0-4.5 2.05-2.45 2.3-2.4 5.6.05 3.05 1.95 3.5 1.1.25 3.95-.1 1.95 0 2.7-1.35.6-1.15.6-4 0-3.65-.1-4.15-.4-1.55-2.2-1.55z" id="cC"/><path fill="#FEEEE1" d="M474.75 243.55q3.75-.2 4.7-2.45.35-.85.35-3.95-.05-1.25-2.1-.25-3.1 1.5-4.45 1.55-1.45 0-4.3-1.4-1.9-.95-1.9.3.05 2.35 1.7 4.15 2.1 2.35 6 2.05z" id="cD"/><path fill="url(#al)" d="M478.85 237.6q-3.05 1.35-4.25 1.5-1.2-.15-4.3-1.5-2-.85-2.05.25 0 2.05 1.35 3.8 1.75 2.25 5 2.35 3.2-.1 4.9-2.35 1.35-1.75 1.35-3.8-.05-1.1-2-.25z" id="cE"/><path fill="#FDE0C5" d="M455.65 224.2q-3.3 0-5.65 2.3-2.35 2.3-2.35 5.6t2.35 5.65q2.35 2.35 5.65 2.35 3.25 0 5.6-2.35 2.35-2.35 2.35-5.65 0-3.3-2.35-5.6-2.3-2.3-5.6-2.3z" id="cF"/><path fill="#FDDFC4" d="M455.65 224.35q-3.25 0-5.5 2.25-2.3 2.3-2.3 5.5 0 3.25 2.3 5.55t5.5 2.3q3.2 0 5.45-2.3 2.3-2.3 2.3-5.55 0-3.2-2.3-5.5-2.25-2.25-5.45-2.25z" id="cG"/><path fill="#FDDEC4" d="M455.65 224.55q-3.15 0-5.4 2.2-2.25 2.2-2.25 5.35 0 3.15 2.25 5.4 2.25 2.25 5.4 2.25 3.1 0 5.35-2.25 2.25-2.25 2.25-5.4 0-3.15-2.25-5.35-2.2-2.2-5.35-2.2z" id="cH"/><path fill="#FDDDC3" d="M455.65 224.7q-3.1 0-5.25 2.15-2.2 2.2-2.2 5.25 0 3.1 2.2 5.3 2.2 2.2 5.25 2.2t5.2-2.2q2.2-2.2 2.2-5.3 0-3.05-2.2-5.25-2.15-2.15-5.2-2.15z" id="cI"/><path fill="#FDDDC2" d="M455.65 224.9q-3 0-5.15 2.1-2.15 2.1-2.15 5.1 0 3 2.15 5.15 2.15 2.15 5.15 2.15 2.95 0 5.1-2.15 2.15-2.15 2.15-5.15 0-3-2.15-5.1-2.1-2.1-5.1-2.1z" id="cJ"/><path fill="#FDDCC1" d="M455.65 225.05q-2.95 0-5 2.05-2.1 2.1-2.1 5 0 2.95 2.1 5.05 2.05 2.1 5 2.1 2.9 0 4.95-2.1 2.1-2.1 2.1-5.05 0-2.9-2.1-5-2.05-2.05-4.95-2.05z" id="cK"/><path fill="#FDDBC0" d="M455.65 225.2q-2.85 0-4.9 2.05-2.05 2-2.05 4.85 0 2.9 2.05 4.9 2.05 2.05 4.9 2.05 2.85 0 4.85-2.05 2.05-2 2.05-4.9 0-2.85-2.05-4.85-2.05-2.05-4.85-2.05z" id="cL"/><path fill="#FDDABF" d="M455.65 225.4q-2.8 0-4.75 1.95-2 2-2 4.75 0 2.8 2 4.8 1.95 2 4.75 2 2.75 0 4.7-2 2-2 2-4.8 0-2.75-2-4.75-1.95-1.95-4.7-1.95z" id="cM"/><path fill="#FDDABE" d="M455.65 225.55q-2.7 0-4.65 1.95-1.95 1.9-1.95 4.6 0 2.75 1.95 4.65 1.95 1.95 4.65 1.95t4.6-1.95q1.95-1.9 1.95-4.65 0-2.7-1.95-4.6-1.95-1.95-4.6-1.95z" id="cN"/><path fill="#FDD9BD" d="M455.65 225.75q-2.65 0-4.55 1.85-1.85 1.85-1.85 4.5t1.85 4.55q1.9 1.9 4.55 1.9t4.5-1.9q1.85-1.9 1.85-4.55t-1.85-4.5q-1.85-1.85-4.5-1.85z" id="cO"/><path fill="#FDD8BD" d="M455.65 225.9q-2.6 0-4.4 1.8-1.85 1.8-1.85 4.4 0 2.6 1.85 4.4 1.8 1.85 4.4 1.85 2.55 0 4.4-1.85 1.8-1.8 1.8-4.4 0-2.6-1.8-4.4-1.85-1.8-4.4-1.8z" id="cP"/><path fill="#FDD7BC" d="M455.65 226.1q-2.5 0-4.3 1.75-1.8 1.75-1.8 4.25t1.8 4.3q1.8 1.8 4.3 1.8t4.25-1.8q1.75-1.8 1.75-4.3t-1.75-4.25q-1.75-1.75-4.25-1.75z" id="cQ"/><path fill="#FDD7BB" d="M455.65 226.25q-2.45 0-4.15 1.7-1.75 1.7-1.75 4.15t1.75 4.15q1.7 1.75 4.15 1.75 2.4 0 4.15-1.75 1.7-1.7 1.7-4.15t-1.7-4.15q-1.75-1.7-4.15-1.7z" id="cR"/><path fill="#FCD6BA" d="M455.65 226.4q-2.35 0-4.05 1.65-1.7 1.7-1.7 4.05 0 2.35 1.7 4.05 1.7 1.7 4.05 1.7 2.35 0 4-1.7t1.65-4.05q0-2.35-1.65-4.05-1.65-1.65-4-1.65z" id="cS"/><path fill="#FCD5B9" d="M455.65 226.6q-2.3 0-3.9 1.6-1.65 1.6-1.65 3.9t1.65 3.9q1.6 1.65 3.9 1.65 2.25 0 3.9-1.65 1.6-1.6 1.6-3.9t-1.6-3.9q-1.65-1.6-3.9-1.6z" id="cT"/><path fill="#FCD4B8" d="M455.65 226.75q-2.2 0-3.8 1.55-1.6 1.6-1.6 3.8 0 2.25 1.6 3.85 1.6 1.55 3.8 1.55 2.2 0 3.75-1.55 1.6-1.6 1.6-3.85 0-2.2-1.6-3.8-1.55-1.55-3.75-1.55z" id="cU"/><path fill="#FCD4B7" d="M455.65 226.95q-2.15 0-3.65 1.5-1.55 1.5-1.55 3.65t1.55 3.7q1.5 1.55 3.65 1.55 2.1 0 3.65-1.55 1.5-1.55 1.5-3.7 0-2.15-1.5-3.65-1.55-1.5-3.65-1.5z" id="cV"/><path fill="#FCD3B7" d="M455.65 227.1q-2.05 0-3.55 1.45-1.5 1.5-1.5 3.55 0 2.1 1.5 3.6 1.5 1.45 3.55 1.45t3.5-1.45q1.5-1.5 1.5-3.6 0-2.05-1.5-3.55-1.45-1.45-3.5-1.45z" id="cW"/><path fill="#FCD2B6" d="M455.65 227.3q-2 0-3.4 1.4-1.45 1.4-1.45 3.4t1.45 3.45q1.4 1.45 3.4 1.45 1.95 0 3.4-1.45 1.4-1.45 1.4-3.45t-1.4-3.4q-1.45-1.4-3.4-1.4z" id="cX"/><path fill="#FCD1B5" d="M455.65 227.45q-1.95 0-3.3 1.35-1.4 1.35-1.4 3.3 0 1.95 1.4 3.35 1.35 1.35 3.3 1.35 1.9 0 3.3-1.35 1.35-1.4 1.35-3.35 0-1.95-1.35-3.3-1.4-1.35-3.3-1.35z" id="cY"/><path fill="#FCD1B4" d="M455.65 227.65q-1.9 0-3.2 1.3-1.3 1.3-1.3 3.15 0 1.9 1.3 3.2 1.35 1.35 3.2 1.35t3.15-1.35q1.3-1.3 1.3-3.2 0-1.85-1.3-3.15-1.3-1.3-3.15-1.3z" id="cZ"/><path fill="#FCD0B3" d="M455.65 227.8q-1.8 0-3.05 1.25-1.3 1.25-1.3 3.05 0 1.8 1.3 3.1 1.25 1.25 3.05 1.25 1.75 0 3.05-1.25 1.25-1.3 1.25-3.1t-1.25-3.05q-1.3-1.25-3.05-1.25z" id="da"/><path fill="#FCCFB2" d="M455.65 227.95q-1.7 0-2.95 1.2-1.2 1.25-1.2 2.95 0 1.75 1.2 2.95 1.25 1.25 2.95 1.25 1.7 0 2.9-1.25 1.2-1.2 1.2-2.95 0-1.7-1.2-2.95-1.2-1.2-2.9-1.2z" id="db"/><path fill="#FCCEB1" d="M455.65 228.15q-1.65 0-2.8 1.15-1.2 1.15-1.2 2.8t1.2 2.85q1.15 1.15 2.8 1.15 1.6 0 2.8-1.15 1.15-1.2 1.15-2.85 0-1.65-1.15-2.8-1.2-1.15-2.8-1.15z" id="dc"/><path fill="#FCCDB1" d="M455.65 228.3q-1.55 0-2.7 1.1-1.1 1.15-1.1 2.7 0 1.6 1.1 2.7 1.15 1.15 2.7 1.15 1.55 0 2.65-1.15 1.1-1.1 1.1-2.7 0-1.55-1.1-2.7-1.1-1.1-2.65-1.1z" id="dd"/><path fill="#FCCDB0" d="M455.65 228.5q-1.5 0-2.55 1.05-1.1 1.05-1.1 2.55 0 1.55 1.1 2.6 1.05 1.05 2.55 1.05 1.5 0 2.55-1.05 1.05-1.05 1.05-2.6 0-1.5-1.05-2.55-1.1-1.05-2.55-1.05z" id="de"/><path fill="#FBCCAF" d="M455.65 228.65q-1.4 0-2.45 1-1 1.05-1 2.45 0 1.45 1 2.5 1 1 2.45 1 1.4 0 2.4-1 1-1.05 1-2.5 0-1.4-1-2.45-1-1-2.4-1z" id="df"/><path fill="#FBCBAE" d="M455.65 228.85q-1.35 0-2.3.95-1 .95-1 2.3 0 1.4 1 2.35.95.95 2.3.95 1.35 0 2.3-.95.95-.95.95-2.35 0-1.35-.95-2.3-1-.95-2.3-.95z" id="dg"/><path fill="#FBCAAD" d="M455.65 229q-1.3 0-2.25.9-.9.9-.9 2.2 0 1.3.9 2.25.95.9 2.25.9 1.25 0 2.15-.9.9-.95.9-2.25t-.9-2.2q-.9-.9-2.15-.9z" id="dh"/><path fill="#FBCAAC" d="M455.65 229.15q-1.25 0-2.1.85-.85.85-.85 2.1t.85 2.1q.85.85 2.1.85 1.2 0 2.05-.85.85-.85.85-2.1t-.85-2.1q-.85-.85-2.05-.85z" id="di"/><path fill="#FBC9AC" d="M455.65 229.35q-1.15 0-2 .8-.8.8-.8 1.95t.8 2q.85.8 2 .8t1.95-.8q.8-.85.8-2t-.8-1.95q-.8-.8-1.95-.8z" id="dj"/><path fill="#FBC8AB" d="M455.65 229.5q-1.1 0-1.85.75t-.75 1.85q0 1.1.75 1.85t1.85.75q1.05 0 1.8-.75t.75-1.85q0-1.1-.75-1.85t-1.8-.75z" id="dk"/><path fill="#FBC7AA" d="M455.65 229.7q-1 0-1.75.7-.7.7-.7 1.7t.7 1.75q.75.7 1.75.7t1.7-.7q.7-.75.7-1.75t-.7-1.7q-.7-.7-1.7-.7z" id="dl"/><path fill="#FBC7A9" d="M455.65 229.85q-.95 0-1.6.65-.65.65-.65 1.6 0 .95.65 1.6.65.7 1.6.7.9 0 1.55-.7.65-.65.65-1.6 0-.95-.65-1.6-.65-.65-1.55-.65z" id="dm"/><path fill="#FBC6A8" d="M455.65 230.05q-.85 0-1.5.6-.6.6-.6 1.45t.6 1.5q.65.6 1.5.6t1.45-.6q.6-.65.6-1.5t-.6-1.45q-.6-.6-1.45-.6z" id="dn"/><path fill="#FBC5A7" d="M455.65 230.2q-.8 0-1.35.55t-.55 1.35q0 .8.55 1.4.55.55 1.35.55.75 0 1.3-.55.55-.6.55-1.4 0-.8-.55-1.35t-1.3-.55z" id="do"/><path fill="#FBC4A7" d="M455.65 230.35q-.7 0-1.25.5-.5.55-.5 1.25 0 .75.5 1.25.55.5 1.25.5t1.2-.5q.5-.5.5-1.25 0-.7-.5-1.25-.5-.5-1.2-.5z" id="dp"/><path fill="#FBC4A6" d="M455.65 230.55q-.65 0-1.1.45-.45.45-.45 1.1 0 .65.45 1.15.45.45 1.1.45.6 0 1.05-.45.45-.5.45-1.15 0-.65-.45-1.1-.45-.45-1.05-.45z" id="dq"/><path fill="#FBC3A5" d="M455.65 230.7q-.6 0-1 .4t-.4 1q0 .6.4 1t1 .4q.55 0 .95-.4.4-.4.4-1t-.4-1q-.4-.4-.95-.4z" id="dr"/><path fill="#FBC2A4" d="M455.65 230.9q-.5 0-.85.35t-.35.85q0 .55.35.9t.85.35q.5 0 .8-.35.35-.35.35-.9 0-.5-.35-.85-.3-.35-.8-.35z" id="ds"/><path fill="#FAC1A3" d="M455.65 231.05q-.45 0-.75.3t-.3.75q0 .45.3.75t.75.3q.4 0 .7-.3.3-.3.3-.75t-.3-.75q-.3-.3-.7-.3z" id="dt"/><path fill="#FAC1A3" d="M455.65 231.25q-.85 0-.85.85 0 .9.85.9.35 0 .55-.25.25-.25.25-.65 0-.85-.8-.85z" id="du"/><path fill="#FAC0A2" d="M455.65 231.4q-.7 0-.7.7t.7.7q.65 0 .65-.7t-.65-.7z" id="dv"/><path fill="#FABFA1" d="M455.65 231.6q-.5 0-.5.5 0 .55.5.55.45 0 .45-.55 0-.5-.45-.5z" id="dw"/><path fill="#FABEA0" d="M455.65 231.75q-.35 0-.35.35t.35.35q.3 0 .3-.35t-.3-.35z" id="dx"/><path fill="#FDE0C5" d="M493.55 224.2q-3.3 0-5.65 2.3-2.35 2.3-2.35 5.6t2.35 5.65q2.35 2.35 5.65 2.35 3.25 0 5.6-2.35 2.3-2.35 2.3-5.65 0-3.3-2.3-5.6-2.35-2.3-5.6-2.3z" id="dy"/><path fill="#FDDFC4" d="M493.55 224.35q-3.25 0-5.55 2.25-2.3 2.3-2.3 5.5 0 3.25 2.3 5.55 2.35 2.3 5.55 2.3 3.2 0 5.5-2.3 2.25-2.3 2.25-5.55 0-3.2-2.25-5.5-2.25-2.25-5.5-2.25z" id="dz"/><path fill="#FDDEC4" d="M493.55 224.55q-3.15 0-5.4 2.2-2.25 2.2-2.25 5.35 0 3.15 2.25 5.4 2.25 2.25 5.4 2.25 3.15 0 5.35-2.25 2.2-2.25 2.2-5.4 0-3.15-2.2-5.35-2.2-2.2-5.35-2.2z" id="dA"/><path fill="#FDDDC3" d="M493.55 224.7q-3.1 0-5.3 2.15-2.2 2.2-2.2 5.25 0 3.1 2.2 5.3 2.2 2.2 5.3 2.2 3.05 0 5.25-2.2 2.15-2.2 2.15-5.3 0-3.05-2.15-5.25-2.15-2.15-5.25-2.15z" id="dB"/><path fill="#FDDDC2" d="M493.55 224.9q-3.05 0-5.15 2.1-2.15 2.1-2.15 5.1 0 3 2.15 5.15 2.1 2.15 5.15 2.15 3 0 5.1-2.15 2.1-2.15 2.1-5.15 0-3-2.1-5.1-2.1-2.1-5.1-2.1z" id="dC"/><path fill="#FDDCC1" d="M493.55 225.05q-2.95 0-5.05 2.05-2.1 2.1-2.1 5 0 2.95 2.1 5.05 2.1 2.1 5.05 2.1 2.95 0 5-2.1t2.05-5.05q0-2.9-2.05-5-2.05-2.05-5-2.05z" id="dD"/><path fill="#FDDBC0" d="M493.55 225.2q-2.9 0-4.9 2.05-2.05 2-2.05 4.85 0 2.9 2.05 4.9 2 2.05 4.9 2.05 2.85 0 4.85-2.05 2-2 2-4.9 0-2.85-2-4.85-2-2.05-4.85-2.05z" id="dE"/><path fill="#FDDABF" d="M493.55 225.4q-2.8 0-4.8 1.95-2 2-2 4.75 0 2.8 2 4.8t4.8 2q2.8 0 4.75-2 1.95-2 1.95-4.8 0-2.75-1.95-4.75-1.95-1.95-4.75-1.95z" id="dF"/><path fill="#FDDABE" d="M493.55 225.55q-2.75 0-4.65 1.95-1.95 1.9-1.95 4.6 0 2.75 1.95 4.65 1.9 1.95 4.65 1.95 2.7 0 4.65-1.95 1.9-1.9 1.9-4.65 0-2.7-1.9-4.6-1.95-1.95-4.65-1.95z" id="dG"/><path fill="#FDD9BD" d="M493.55 225.75q-2.65 0-4.55 1.85t-1.9 4.5q0 2.65 1.9 4.55t4.55 1.9q2.65 0 4.5-1.9t1.85-4.55q0-2.65-1.85-4.5t-4.5-1.85z" id="dH"/><path fill="#FDD8BD" d="M493.55 225.9q-2.6 0-4.45 1.8t-1.85 4.4q0 2.6 1.85 4.4 1.85 1.85 4.45 1.85 2.55 0 4.4-1.85 1.8-1.8 1.8-4.4 0-2.6-1.8-4.4-1.85-1.8-4.4-1.8z" id="dI"/><path fill="#FDD7BC" d="M493.55 226.1q-2.5 0-4.3 1.75-1.8 1.75-1.8 4.25t1.8 4.3q1.8 1.8 4.3 1.8t4.25-1.8q1.75-1.8 1.75-4.3t-1.75-4.25q-1.75-1.75-4.25-1.75z" id="dJ"/><path fill="#FDD7BB" d="M493.55 226.25q-2.45 0-4.2 1.7t-1.75 4.15q0 2.45 1.75 4.15 1.75 1.75 4.2 1.75 2.4 0 4.15-1.75 1.7-1.7 1.7-4.15t-1.7-4.15q-1.75-1.7-4.15-1.7z" id="dK"/><path fill="#FCD6BA" d="M493.55 226.4q-2.4 0-4.05 1.65-1.7 1.7-1.7 4.05 0 2.35 1.7 4.05 1.65 1.7 4.05 1.7 2.35 0 4-1.7t1.65-4.05q0-2.35-1.65-4.05-1.65-1.65-4-1.65z" id="dL"/><path fill="#FCD5B9" d="M493.55 226.6q-2.3 0-3.95 1.6-1.65 1.6-1.65 3.9t1.65 3.9q1.65 1.65 3.95 1.65 2.25 0 3.9-1.65 1.6-1.6 1.6-3.9t-1.6-3.9q-1.65-1.6-3.9-1.6z" id="dM"/><path fill="#FCD4B8" d="M493.55 226.75q-2.25 0-3.8 1.55-1.6 1.6-1.6 3.8 0 2.25 1.6 3.85 1.55 1.55 3.8 1.55 2.2 0 3.75-1.55 1.55-1.6 1.55-3.85 0-2.2-1.55-3.8-1.55-1.55-3.75-1.55z" id="dN"/><path fill="#FCD4B7" d="M493.55 226.95q-2.15 0-3.7 1.5-1.55 1.5-1.55 3.65 0 2.2 1.55 3.7 1.55 1.55 3.7 1.55 2.15 0 3.65-1.55 1.5-1.5 1.5-3.7 0-2.15-1.5-3.65t-3.65-1.5z" id="dO"/><path fill="#FCD3B7" d="M493.55 227.1q-2.1 0-3.55 1.45-1.5 1.5-1.5 3.55 0 2.1 1.5 3.6 1.45 1.45 3.55 1.45 2.05 0 3.55-1.45 1.45-1.5 1.45-3.6 0-2.05-1.45-3.55-1.5-1.45-3.55-1.45z" id="dP"/><path fill="#FCD2B6" d="M493.55 227.3q-2 0-3.45 1.4-1.45 1.4-1.45 3.4 0 2.05 1.45 3.45 1.45 1.45 3.45 1.45t3.4-1.45q1.4-1.4 1.4-3.45 0-2-1.4-3.4t-3.4-1.4z" id="dQ"/><path fill="#FCD1B5" d="M493.55 227.45q-1.95 0-3.3 1.35-1.4 1.35-1.4 3.3 0 1.95 1.4 3.35 1.35 1.35 3.3 1.35 1.9 0 3.3-1.35 1.35-1.4 1.35-3.35 0-1.95-1.35-3.3-1.4-1.35-3.3-1.35z" id="dR"/><path fill="#FCD1B4" d="M493.55 227.65q-1.9 0-3.2 1.3-1.35 1.3-1.35 3.15 0 1.9 1.35 3.2 1.35 1.35 3.2 1.35t3.15-1.35q1.3-1.3 1.3-3.2 0-1.85-1.3-3.15-1.3-1.3-3.15-1.3z" id="dS"/><path fill="#FCD0B3" d="M493.55 227.8q-1.8 0-3.05 1.25-1.3 1.25-1.3 3.05 0 1.8 1.3 3.1 1.25 1.25 3.05 1.25 1.75 0 3.05-1.25 1.25-1.3 1.25-3.1t-1.25-3.05q-1.3-1.25-3.05-1.25z" id="dT"/><path fill="#FCCFB2" d="M493.55 227.95q-1.75 0-2.95 1.2-1.25 1.25-1.25 2.95 0 1.75 1.25 2.95 1.25 1.25 2.95 1.25 1.7 0 2.9-1.25 1.2-1.2 1.2-2.95 0-1.7-1.2-2.95-1.2-1.2-2.9-1.2z" id="dU"/><path fill="#FCCEB1" d="M493.55 228.15q-1.7 0-2.85 1.15-1.15 1.15-1.15 2.8t1.15 2.85q1.15 1.15 2.85 1.15 1.6 0 2.8-1.15 1.15-1.2 1.15-2.85 0-1.65-1.15-2.8-1.2-1.15-2.8-1.15z" id="dV"/><path fill="#FCCDB1" d="M493.55 228.3q-1.6 0-2.75 1.1-1.1 1.1-1.1 2.7t1.1 2.7q1.15 1.15 2.75 1.15 1.55 0 2.65-1.15 1.15-1.15 1.15-2.7 0-1.55-1.15-2.7-1.1-1.1-2.65-1.1z" id="dW"/><path fill="#FCCDB0" d="M493.55 228.5q-1.55 0-2.6 1.05t-1.05 2.55q0 1.55 1.05 2.6t2.6 1.05q1.5 0 2.55-1.05 1.05-1.05 1.05-2.6 0-1.5-1.05-2.55-1.1-1.05-2.55-1.05z" id="dX"/><path fill="#FBCCAF" d="M493.55 228.65q-1.45 0-2.5 1-1 1-1 2.45 0 1.45 1 2.5 1.05 1 2.5 1 1.4 0 2.4-1 1.05-1.05 1.05-2.5 0-1.4-1.05-2.45-1-1-2.4-1z" id="dY"/><path fill="#FBCBAE" d="M493.55 228.85q-1.4 0-2.35.95-1 .95-1 2.3 0 1.4 1 2.35.95.95 2.35.95 1.35 0 2.3-.95.95-.95.95-2.35 0-1.35-.95-2.3-1-.95-2.3-.95z" id="dZ"/><path fill="#FBCAAD" d="M493.55 229q-1.3 0-2.25.9-.9.9-.9 2.2 0 1.3.9 2.25.95.9 2.25.9 1.25 0 2.15-.9.95-.95.95-2.25t-.95-2.2q-.9-.9-2.15-.9z" id="ea"/><path fill="#FBCAAC" d="M493.55 229.15q-1.25 0-2.1.85-.9.85-.9 2.1t.9 2.1q.85.85 2.1.85 1.2 0 2.05-.85.85-.85.85-2.1 0-1.2-.85-2.1-.85-.85-2.05-.85z" id="eb"/><path fill="#FBC9AC" d="M493.55 229.35q-1.15 0-2 .8-.8.8-.8 1.95t.8 2q.85.8 2 .8t1.95-.8q.8-.85.8-2t-.8-1.95q-.8-.8-1.95-.8z" id="ec"/><path fill="#FBC8AB" d="M493.55 229.5q-1.1 0-1.85.75-.8.75-.8 1.85t.8 1.85q.75.75 1.85.75 1.05 0 1.85-.75.75-.75.75-1.85t-.75-1.85q-.8-.75-1.85-.75z" id="ed"/><path fill="#FBC7AA" d="M493.55 229.7q-1 0-1.75.7-.7.7-.7 1.7t.7 1.75q.75.7 1.75.7t1.7-.7q.7-.75.7-1.75t-.7-1.7q-.7-.7-1.7-.7z" id="ee"/><path fill="#FBC7A9" d="M493.55 229.85q-.95 0-1.65.65-.65.65-.65 1.6 0 .95.65 1.6.7.7 1.65.7.9 0 1.6-.7.65-.65.65-1.6 0-.95-.65-1.6-.7-.65-1.6-.65z" id="ef"/><path fill="#FBC6A8" d="M493.55 230.05q-.9 0-1.5.6t-.6 1.45q0 .85.6 1.5.6.6 1.5.6.85 0 1.45-.6.6-.65.6-1.5t-.6-1.45q-.6-.6-1.45-.6z" id="eg"/><path fill="#FBC5A7" d="M493.55 230.2q-.8 0-1.4.55-.55.55-.55 1.35 0 .85.55 1.4.6.55 1.4.55.75 0 1.35-.55.55-.6.55-1.4 0-.8-.55-1.35-.6-.55-1.35-.55z" id="eh"/><path fill="#FBC4A7" d="M493.55 230.35q-.75 0-1.25.5-.5.55-.5 1.25 0 .75.5 1.25t1.25.5q.7 0 1.2-.5t.5-1.25q0-.7-.5-1.25-.5-.5-1.2-.5z" id="ei"/><path fill="#FBC4A6" d="M493.55 230.55q-.65 0-1.15.45-.45.45-.45 1.1 0 .7.45 1.15.5.45 1.15.45.6 0 1.1-.45.45-.5.45-1.15 0-.65-.45-1.1-.5-.45-1.1-.45z" id="ej"/><path fill="#FBC3A5" d="M493.55 230.7q-.6 0-1 .4t-.4 1q0 .6.4 1t1 .4q.55 0 .95-.4.4-.4.4-1t-.4-1q-.4-.4-.95-.4z" id="ek"/><path fill="#FBC2A4" d="M493.55 230.9q-.55 0-.9.35t-.35.85q0 .55.35.9.4.35.9.35.45 0 .85-.35.35-.4.35-.9t-.35-.85q-.4-.35-.85-.35z" id="el"/><path fill="#FAC1A3" d="M493.55 231.05q-.45 0-.75.3t-.3.75q0 .45.3.75t.75.3q.4 0 .7-.3.35-.3.35-.75t-.35-.75q-.3-.3-.7-.3z" id="em"/><path fill="#FAC1A3" d="M493.55 231.25q-.9 0-.9.85 0 .4.25.65.3.25.65.25.3 0 .6-.25.25-.3.25-.65 0-.35-.25-.6-.3-.25-.6-.25z" id="en"/><path fill="#FAC0A2" d="M493.55 231.4q-.75 0-.75.7t.75.7q.25 0 .45-.2.25-.2.25-.5t-.25-.5q-.2-.2-.45-.2z" id="eo"/><path fill="#FABFA1" d="M493.55 231.6q-.55 0-.55.5 0 .55.55.55.15 0 .35-.15.15-.2.15-.4 0-.5-.5-.5z" id="ep"/><path fill="#FABEA0" d="M493.55 231.75q-.4 0-.4.35t.4.35q.35 0 .35-.35t-.35-.35z" id="eq"/><path fill="url(#am)" d="M474.4 217q-2.05 0-3.8 3.1-1.65 2.95-1.4 5.6.1 1.7 1.35 2.4t4.1.65q2.85-.05 4.05-.8 1.25-.75 1.3-2.45.05-2.7-1.75-5.55-1.85-3-3.85-2.95z" id="er"/><path fill="#FAB781" d="M478.75 227.85q1.85-1.05.3-2.1-.85-.4-1.85-.6-1.3-.6-2.7-.65-.75 0-1.5.3t-.95.35q-.85.1-1.6.45-1 .45-1.05 1.05-.2 2.1 5.2 2.1 2.6 0 4.15-.9z" id="es"/><path fill="#E57835" d="M471.85 226q-.5.15-.8.6-.3.4-.25.9.1.45.45.65.4.15.9 0t.8-.6q.3-.4.2-.9-.05-.45-.4-.65-.4-.2-.9 0z" id="et"/><path fill="#E57835" d="M478.05 226.6q-.3-.45-.8-.6-.55-.2-.9 0-.4.2-.4.7-.05.45.3.9.3.4.8.55.5.15.85-.05.35-.25.45-.65.05-.45-.3-.85z" id="eu"/><path fill="#FAB781" d="M483.95 235q-.35-.4-.85-.35-.5 0-.8.45-.35.45-.3 1.05 0 .65.4 1.05.35.45.85.4.5 0 .8-.45.35-.5.35-1.1-.05-.65-.45-1.05z" id="ev"/><path fill="url(#an)" d="M474.6 229.5q-.35 0-.55.35-.25.3-.25.75 0 .5.25.8.2.35.55.35.7 0 .7-1.15 0-1.1-.7-1.1z" id="ew"/><path fill="#FAB781" d="M466.05 234.65q-.5-.05-.85.35-.4.4-.45 1.05 0 .6.35 1.1.3.45.8.45.5.05.85-.4.35-.4.35-1.05.1-.6-.25-1.05-.3-.45-.8-.45z" id="ex"/><path fill="url(#ao)" d="M474.6 238.15q-1.25-.15-4.5-1.5-2.05-.85-2.05.3-.1 2 1.35 3.75 1.8 2.2 5.2 2.3 3.3-.1 5.15-2.3 1.4-1.75 1.4-3.75-.05-1.15-2.1-.3-3.25 1.35-4.45 1.5z" id="ey"/><path fill="#FFF" d="M475.05 235.4h-.95q-2.05-.1-4.35 1.55.35 1.1 1.75 1.9 1.35.8 3.1.9 1.7-.1 3.05-.9 1.35-.8 1.7-1.9-2.3-1.65-4.3-1.55z" id="ez"/><path fill="url(#ap)" d="M474.45 232.9q-2.4-.95-4.3.7l-1.3 1.55q-.8 1.05-1.9 1.3-1.25.3-.1.5 1.15.25 3.15 0 .8-.15 2.2-.85 1.1-.6 2.3-.6h.15q1.15 0 2.25.6 1.4.7 2.25.85 2.05.25 3.15 0 1.15-.2-.15-.5-1.05-.25-1.85-1.3-1.2-1.5-1.25-1.55-2.05-1.6-4.4-.7h-.2z" id="eA"/><path fill="#EF609F" d="M474.6 237.6q-2.65-.15-4.85-.65.6 3 4.8 3t4.8-3q-2.1.5-4.75.65z" id="eB"/><path fill="url(#aq)" d="M442.8 185.8q-2.2 5.85-1.05 10.4.9 3.5 3.55 5.1 2.45 1.45 4.95.55-5.45-2.9-3.15-13.4 2.4-11 11.35-18.35-5.85 2.4-10.05 6.8-3.6 3.7-5.6 8.9z" id="eC"/><path fill="#FFD55B" d="M463.6 177.8q-.6 6.75-2.25 11.95-1.8 5.7-4.6 8.65-2.45 2.55-6.2 2.95-3.45.35-6.65-1.2 2.1 2.4 5.8 2.85 3.55.4 6.8-1.15 3.9-1.85 6-6.3.7-1.4.75-3.9-.05-3.2-.05-5.1 0-.6.4-4.1.3-2.75 0-4.65z" id="eD"/><path fill="url(#ar)" d="M464.1 186.35q0-12 7.4-19.05-9.25 6.5-11.5 16.35-1.9 8.2 1.35 14.25 1.1 2.15 3.1 3.05 1.95.85 3.9.15-4.3-4.25-4.25-14.75z" id="eE"/><path fill="url(#as)" d="M437 221.9q-1.3-.3-1.95-.3-2.6 0-4.4 1.85-1.85 1.8-1.85 4.35t1.85 4.35q1.85 1.85 4.4 1.85 1 0 1.95-.3-1.85-.65-3.05-2.25-1.2-1.65-1.2-3.65 0-2.05 1.2-3.65t3.05-2.25z" id="eF"/><path fill="url(#at)" d="M435.3 190.05q-2.45 0-4.15 1.7-1.7 1.7-1.7 4.05 0 2.45 1.7 4.15 1.7 1.7 4.15 1.7 1.1 0 1.8-.3-1.75-.6-2.85-2.1-1.15-1.55-1.15-3.45 0-1.85 1.15-3.35 1.1-1.5 2.85-2.1-.9-.3-1.8-.3z" id="eG"/><path fill="#FFD55B" d="M476.2 177.15q.6 13.05-3.55 19.25-1.75 2.5-4.75 3.35-2.8.8-5.35-.2 1.95 2.45 5.1 2.75 2.85.25 5.5-1.35 3.3-2.05 4.35-6 1.6-6.05-1.3-17.8z" id="eH"/><path fill="#D76C34" d="M457.75 208.2h-.05q-2.6 0-4.65 1.45-2.05 1.4-2.8 3.65-.3.85-.1 1.45.25.7 1.1.85.75.2 1.35-.1.7-.4.95-1.45h8.35q.2 1.05.95 1.45.6.3 1.3.1 1.6-.3 1.1-2.3-.85-2.25-2.85-3.65-2.1-1.45-4.65-1.45z" id="eI"/><path fill="#363435" d="M451.35 215.4l1.45-3q-2 .9-3.75-.2-2.05-1.3-1.8-4.45-1 2.6-.05 4.65 1 2.3 4.15 3z" id="eJ"/><path fill="#363435" d="M452.4 213.55l1.25-2.6q-1.8.95-3.4-.1-1.75-1.2-.95-3.85-1.25 1.9-.4 3.9.95 2.05 3.5 2.65z" id="eK"/><path fill="#FFF" d="M457.75 209.5q-2.9 0-4.95 2.05-2.05 2.05-2.05 4.95 0 2.9 2.05 4.95 2.05 2.1 4.95 2.1 2.85 0 4.95-2.1 2.05-2.05 2.05-4.95 0-2.9-2.05-4.95-2.1-2.05-4.95-2.05z" id="eL"/><path fill="url(#au)" d="M457.75 211.25q-2.2 0-3.8 1.55-1.55 1.55-1.55 3.7 0 2.2 1.55 3.75 1.6 1.55 3.8 1.55 2.2 0 3.75-1.55 1.55-1.55 1.55-3.75 0-2.15-1.55-3.7-1.55-1.55-3.75-1.55z" id="eM"/><path fill="url(#av)" d="M455.35 218.45q-.7-.85-1.35-.3-.25.25-.2.7 0 .45.35.8 1.4 1.65 3.6 1.65 2.1 0 3.5-1.65.4-.35.45-.8 0-.45-.3-.7-.5-.5-1.35.3-.9 1.15-2.3 1.15t-2.4-1.15z" id="eN"/><path fill="#363435" d="M457.75 214.1q-1 0-1.75.7-.7.7-.7 1.7t.7 1.75q.75.7 1.75.7t1.65-.7q.7-.75.7-1.75t-.7-1.7q-.7-.7-1.65-.7z" id="eO"/><path fill="#FFF" d="M460.25 216.05q-.75 0-.75.8t.75.8q.75 0 .75-.8t-.75-.8z" id="eP"/><path fill="#FFF" d="M455.5 213.15q-.6 0-1.05.5-.45.45-.45 1.05 0 .65.45 1.1.4.45 1.05.45t1.1-.45q.45-.45.45-1.1 0-.6-.45-1.05-.45-.5-1.1-.5z" id="eQ"/><path fill="#D76C34" d="M484.6 215.6q.7.2 1.3-.1.75-.4.95-1.45h8.35q.25 1.05.95 1.45.65.3 1.35.1.85-.15 1.1-.85.2-.6-.1-1.45-.75-2.25-2.8-3.65-2.05-1.45-4.6-1.45h-.1q-2.55 0-4.65 1.45-2.05 1.4-2.85 3.65-.5 2 1.1 2.3z" id="eR"/><path fill="#363435" d="M496 212.4l1.4 3q3.15-.7 4.15-3 .95-2.05-.05-4.65.3 3.15-1.75 4.45-1.75 1.1-3.75.2z" id="eS"/><path fill="#363435" d="M495.1 210.95l1.25 2.6q2.55-.6 3.5-2.65.85-2-.4-3.9.75 2.65-.95 3.85-1.6 1.05-3.4.1z" id="eT"/><path fill="#FFF" d="M495.95 211.55q-2.05-2.05-4.95-2.05-2.85 0-4.9 2.05-2.05 2.05-2.05 4.95 0 2.9 2.05 4.95 2.05 2.1 4.9 2.1 2.9 0 4.95-2.1 2.05-2.05 2.05-4.95 0-2.9-2.05-4.95z" id="eU"/><path fill="url(#aw)" d="M491 211.25q-2.15 0-3.7 1.55-1.6 1.55-1.6 3.7 0 2.2 1.6 3.75 1.55 1.55 3.7 1.55 2.2 0 3.8-1.55 1.55-1.55 1.55-3.75 0-2.15-1.55-3.7-1.6-1.55-3.8-1.55z" id="eV"/><path fill="url(#ax)" d="M487.4 219.65q1.55 1.65 3.6 1.65 2.2 0 3.6-1.65.35-.35.4-.8 0-.45-.25-.7-.65-.55-1.35.3-1 1.15-2.4 1.15-1.5 0-2.3-1.15-.75-.8-1.35-.3-.25.25-.25.7 0 .45.3.8z" id="eW"/><path fill="#363435" d="M491 214.1q-.95 0-1.65.7t-.7 1.7q0 1 .7 1.75.7.7 1.65.7 1.05 0 1.75-.7.7-.75.7-1.75t-.7-1.7q-.7-.7-1.75-.7z" id="eX"/><path fill="#FFF" d="M493.55 216.05q-.75 0-.75.8t.75.8q.75 0 .75-.8t-.75-.8z" id="eY"/><path fill="#FFF" d="M488.85 213.15q-.6 0-1.05.5-.45.45-.45 1.05 0 .65.45 1.1.4.45 1.05.45.6 0 1.05-.45.45-.45.45-1.1 0-.6-.45-1.05-.45-.5-1.05-.5z" id="eZ"/><path fill="url(#ay)" d="M472.5 240.25q-.6-.2-1.1-.1-.5.1-.6.45-.1.35.25.75t.95.55q.6.2 1.1.1.55-.15.65-.45.1-.35-.25-.75-.4-.4-1-.55z" id="fa"/><path fill="url(#az)" d="M515.95 191.55q-2.05-2.05-4.85-2.05-.95 0-2.25.35 2.1.75 3.4 2.5 1.35 1.8 1.35 4.05t-1.35 4.05q-1.3 1.75-3.4 2.45 1.3.35 2.25.35 2.8 0 4.85-2 2-2.05 2-4.85 0-2.85-2-4.85z" id="fb"/><path fill="url(#aA)" d="M488.75 179.45q2.05 5.45 1.9 10.75-.1 2.85-1.1 5-.9 2.05-2.3 2.7 2.4.35 4.15-1.85 1.7-2.15 1.75-5.35.1-5.35-3.1-11.95-3.15-6.55-6.65-8.4 3.4 3.8 5.35 9.1z" id="fc"/><path fill="#FAB781" d="M457.8 225.35q-.7 0-.7.7 0 .8.7.8.75 0 .75-.8 0-.7-.75-.7z" id="fd"/><path fill="#FAB781" d="M454 225.35q-.25 0-.5.2-.2.25-.2.5 0 .35.2.55.25.25.5.25.8 0 .8-.8 0-.25-.25-.5-.2-.2-.55-.2z" id="fe"/><path fill="#FAB781" d="M461.65 225.35q-.75 0-.75.7 0 .8.75.8.7 0 .7-.8 0-.7-.7-.7z" id="ff"/><path fill="#FAB781" d="M455.9 228.2q-.3 0-.5.25-.25.25-.25.55 0 .25.25.5.2.25.5.25t.55-.25q.2-.25.2-.5 0-.3-.2-.55-.25-.25-.55-.25z" id="fg"/><path fill="#FAB781" d="M459.75 228.2q-.3 0-.5.25t-.2.55q0 .3.2.5.2.25.5.25.75 0 .75-.75 0-.8-.75-.8z" id="fh"/><path fill="#FAB781" d="M491.5 226.05q0-.7-.7-.7-.75 0-.75.7 0 .8.75.8.7 0 .7-.8z" id="fi"/><path fill="#FAB781" d="M495.1 225.55q-.25-.2-.5-.2-.3 0-.55.2-.25.25-.25.5 0 .35.25.55.25.25.55.25.3 0 .5-.25.25-.2.25-.55 0-.25-.25-.5z" id="fj"/><path fill="#FAB781" d="M487.55 225.55q-.25-.2-.55-.2-.3 0-.5.2-.25.25-.25.5 0 .8.75.8t.75-.8q0-.25-.2-.5z" id="fk"/><path fill="#FAB781" d="M493.25 228.45q-.2-.25-.5-.25-.75 0-.75.8 0 .3.2.5.25.25.55.25.3 0 .5-.25.2-.2.2-.5t-.2-.55z" id="fl"/><path fill="#FAB781" d="M489.55 229q0-.8-.7-.8t-.7.8q0 .75.7.75t.7-.75z" id="fm"/><path fill="url(#aB)" d="M474.3 244.7q-1.1 0-1.95.6-.85.65-.85 1.45 0 .85.85 1.45.8.6 1.95.6t1.95-.6q.85-.6.85-1.45 0-.8-.85-1.45-.8-.6-1.95-.6z" id="fn"/><path fill="url(#aC)" d="M467.2 309.25q3.5 1.5 4.95-.75 1.65-2.75 4.6-2.6 2 .1 6.2 2 3.5 1.55 4.55 1.7 2.8.4 5.55-1.9 2.7-2.3 4-2.75 1.5-.5 2.95.55 1.3.85 1.9.75.5-.1 2.05-1.4l.1-.1-1-1.8v-.05q-1.3 1-1.8 1.05-.45.05-1.8-.7-1.55-.9-3-.45-1.35.5-4 2.7-2.75 2.3-5.55 1.9-1.1-.15-4.55-1.7-4.15-1.8-6.2-1.9-2.95-.15-4.6 2.45-1.45 2.25-4.9.55-4.1-2.65-6-3.7-1.95-1.05-4-.9-2.15.15-2.95 1.7-1.2 2.45-3.3 1.7-1.2-.4-4.45-3v.05l-.1.1-.25.55-.55.9q.5.1.95.5 2.95 2.25 4.4 2.75 2.8 1 4.05-1.55.7-1.5 2.8-1.3 1.75.1 3.8 1.25 1.95 1 6.15 3.4z" id="fo"/></defs><use xlink:href="#aD"/><use xlink:href="#aE" transform="matrix(1.60785 0 0 1.60786 -620.532 -209.994)"/><use xlink:href="#aF" transform="matrix(1.60785 0 0 1.60786 -620.532 -209.994)"/><use xlink:href="#aG" transform="matrix(1.60785 0 0 1.60786 -620.532 -209.994)"/><use xlink:href="#aH" transform="matrix(1.60785 0 0 1.60786 -620.532 -209.994)"/><use xlink:href="#aI" transform="matrix(1.60785 0 0 1.60786 -620.532 -209.994)"/><use xlink:href="#aJ" transform="matrix(1.60785 0 0 1.60786 -620.532 -209.994)"/><use xlink:href="#aK" transform="matrix(1.60785 0 0 1.60786 -620.532 -209.994)"/><use xlink:href="#aL" transform="matrix(1.60785 0 0 1.60786 -620.532 -209.994)"/><use xlink:href="#aM" transform="matrix(1.60785 0 0 1.60786 -620.532 -209.994)"/><use xlink:href="#aN" transform="matrix(1.60785 0 0 1.60786 -620.532 -209.994)"/><use xlink:href="#aO" transform="matrix(1.60785 0 0 1.60786 -620.532 -209.994)"/><use xlink:href="#aP" transform="matrix(1.60785 0 0 1.60786 -620.532 -209.994)"/><use xlink:href="#aQ" transform="matrix(1.60785 0 0 1.60786 -620.532 -209.994)"/><use xlink:href="#aR" transform="matrix(1.60785 0 0 1.60786 -620.532 -209.994)"/><use xlink:href="#aS" transform="matrix(1.60785 0 0 1.60786 -620.532 -209.994)"/><use xlink:href="#aT" transform="matrix(1.60785 0 0 1.60786 -620.532 -209.994)"/><use xlink:href="#aU" transform="matrix(1.60785 0 0 1.60786 -620.532 -209.994)"/><use xlink:href="#aV" transform="matrix(1.60785 0 0 1.60786 -620.532 -209.994)"/><use xlink:href="#aW" transform="matrix(1.60785 0 0 1.60786 -620.532 -209.994)"/><use xlink:href="#aX" transform="matrix(1.60785 0 0 1.60786 -620.532 -209.994)"/><use xlink:href="#aY" transform="matrix(1.60785 0 0 1.60786 -620.532 -209.994)"/><use xlink:href="#aZ" transform="matrix(1.60785 0 0 1.60786 -620.532 -209.994)"/><use xlink:href="#ba" transform="matrix(1.60785 0 0 1.60786 -620.532 -209.994)"/><use xlink:href="#bb" transform="matrix(1.60785 0 0 1.60786 -620.532 -209.994)"/><use xlink:href="#bc" transform="matrix(1.60785 0 0 1.60786 -620.532 -209.994)"/><use xlink:href="#bd" transform="matrix(1.60785 0 0 1.60786 -620.532 -209.994)"/><use xlink:href="#be" transform="matrix(1.60785 0 0 1.60786 -620.532 -209.994)"/><use xlink:href="#bf" transform="matrix(1.60785 0 0 1.60786 -620.532 -209.994)"/><use xlink:href="#bg" transform="matrix(1.60785 0 0 1.60786 -620.532 -209.994)"/><use xlink:href="#bh" transform="matrix(1.60785 0 0 1.60786 -620.532 -209.994)"/><use xlink:href="#bi" transform="matrix(1.60785 0 0 1.60786 -620.532 -209.994)"/><use xlink:href="#bj" transform="matrix(1.60785 0 0 1.60786 -620.532 -209.994)"/><use xlink:href="#bk" transform="matrix(1.60785 0 0 1.60786 -620.532 -209.994)"/><use xlink:href="#bl" transform="matrix(1.60785 0 0 1.60786 -620.532 -209.994)"/><use xlink:href="#bm" transform="matrix(1.60785 0 0 1.60786 -620.532 -209.994)"/><use xlink:href="#bn" transform="matrix(1.60785 0 0 1.60786 -620.532 -209.994)"/><use xlink:href="#bo" transform="matrix(1.60785 0 0 1.60786 -620.532 -209.994)"/><use xlink:href="#bp" transform="matrix(1.60785 0 0 1.60786 -620.532 -209.994)"/><use xlink:href="#bq" transform="matrix(1.60785 0 0 1.60786 -620.532 -209.994)"/><use xlink:href="#br" transform="matrix(1.60785 0 0 1.60786 -620.532 -209.994)"/><use xlink:href="#bs" transform="matrix(1.60785 0 0 1.60786 -620.532 -209.994)"/><use xlink:href="#bt" transform="matrix(1.60785 0 0 1.60786 -620.532 -209.994)"/><use xlink:href="#bu" transform="matrix(1.60785 0 0 1.60786 -620.532 -209.994)"/><use xlink:href="#bv" transform="matrix(1.60785 0 0 1.60786 -620.532 -209.994)"/><use xlink:href="#bw" transform="matrix(1.60785 0 0 1.60786 -620.532 -209.994)"/><use xlink:href="#bx" transform="matrix(1.60785 0 0 1.60786 -620.532 -209.994)"/><use xlink:href="#by" transform="matrix(1.60785 0 0 1.60786 -620.532 -209.994)"/><use xlink:href="#bz" transform="matrix(1.60785 0 0 1.60786 -620.532 -209.994)"/><use xlink:href="#bA" transform="matrix(1.60785 0 0 1.60786 -620.532 -209.994)"/><use xlink:href="#bB" transform="matrix(1.60785 0 0 1.60786 -620.532 -209.994)"/><use xlink:href="#bC" transform="matrix(1.60785 0 0 1.60786 -620.532 -209.994)"/><use xlink:href="#bD" transform="matrix(1.60785 0 0 1.60786 -620.532 -209.994)"/><use xlink:href="#bE" transform="matrix(1.60785 0 0 1.60786 -620.532 -209.994)"/><use xlink:href="#bF" transform="matrix(1.60785 0 0 1.60786 -620.532 -209.994)"/><use xlink:href="#bG" transform="matrix(1.60785 0 0 1.60786 -620.532 -209.994)"/><use xlink:href="#bH" transform="matrix(1.60785 0 0 1.60786 -620.532 -209.994)"/><use xlink:href="#bI" transform="matrix(1.60785 0 0 1.60786 -620.532 -209.994)"/><use xlink:href="#bJ" transform="matrix(1.60785 0 0 1.60786 -620.532 -209.994)"/><use xlink:href="#bK" transform="matrix(1.60785 0 0 1.60786 -620.532 -209.994)"/><use xlink:href="#bL" transform="matrix(1.60785 0 0 1.60786 -620.532 -209.994)"/><use xlink:href="#bM" transform="matrix(1.60785 0 0 1.60786 -620.532 -209.994)"/><use xlink:href="#bN" transform="matrix(1.60785 0 0 1.60786 -620.532 -209.994)"/><use xlink:href="#bO" transform="matrix(1.60785 0 0 1.60786 -620.532 -209.994)"/><use xlink:href="#bP" transform="matrix(1.60785 0 0 1.60786 -620.532 -209.994)"/><use xlink:href="#bQ" transform="matrix(1.60785 0 0 1.60786 -620.532 -209.994)"/><use xlink:href="#bR" transform="matrix(1.60785 0 0 1.60786 -620.532 -209.994)"/><use xlink:href="#bS" transform="matrix(1.60785 0 0 1.60786 -620.532 -209.994)"/><use xlink:href="#bT" transform="matrix(1.60785 0 0 1.60786 -620.532 -209.994)"/><use xlink:href="#bU" transform="matrix(1.60785 0 0 1.60786 -620.532 -209.994)"/><use xlink:href="#bV" transform="matrix(1.60785 0 0 1.60786 -620.532 -209.994)"/><use xlink:href="#bW" transform="matrix(1.60785 0 0 1.60786 -620.532 -209.994)"/><use xlink:href="#bX" transform="matrix(1.60785 0 0 1.60786 -620.532 -209.994)"/><use xlink:href="#bY" transform="matrix(1.60785 0 0 1.60786 -620.532 -209.994)"/><use xlink:href="#bZ" transform="matrix(1.60785 0 0 1.60786 -620.532 -209.994)"/><use xlink:href="#ca" transform="matrix(1.60785 0 0 1.60786 -620.532 -209.994)"/><use xlink:href="#cb" transform="matrix(1.60785 0 0 1.60786 -620.532 -209.994)"/><use xlink:href="#cc" transform="matrix(1.60785 0 0 1.60786 -620.532 -209.994)"/><use xlink:href="#cd" transform="matrix(1.60785 0 0 1.60786 -620.532 -209.994)"/><use xlink:href="#ce" transform="matrix(1.60785 0 0 1.60786 -620.532 -209.994)"/><use xlink:href="#cf" transform="matrix(1.60785 0 0 1.60786 -620.532 -209.994)"/><use xlink:href="#cg" transform="matrix(1.60785 0 0 1.60786 -620.532 -209.994)"/><use xlink:href="#ch" transform="matrix(1.60785 0 0 1.60786 -620.532 -209.994)"/><use xlink:href="#ci" transform="matrix(1.60785 0 0 1.60786 -620.532 -209.994)"/><use xlink:href="#cj" transform="matrix(1.60785 0 0 1.60786 -620.532 -209.994)"/><use xlink:href="#ck" transform="matrix(1.60785 0 0 1.60786 -620.532 -209.994)"/><use xlink:href="#cl" transform="matrix(1.60785 0 0 1.60786 -620.532 -209.994)"/><use xlink:href="#cm" transform="matrix(1.60785 0 0 1.60786 -620.532 -209.994)"/><use xlink:href="#cn" transform="matrix(1.60785 0 0 1.60786 -620.532 -209.994)"/><use xlink:href="#co" transform="matrix(1.60785 0 0 1.60786 -620.532 -209.994)"/><use xlink:href="#cp" transform="matrix(1.60785 0 0 1.60786 -620.532 -209.994)"/><use xlink:href="#cq" transform="matrix(1.60785 0 0 1.60786 -620.532 -209.994)"/><use xlink:href="#cr" transform="matrix(1.60785 0 0 1.60786 -620.532 -209.994)"/><use xlink:href="#cs" transform="matrix(1.60785 0 0 1.60786 -620.532 -209.994)"/><use xlink:href="#ct" transform="matrix(1.60785 0 0 1.60786 -620.532 -209.994)"/><use xlink:href="#cu" transform="matrix(1.60785 0 0 1.60786 -620.532 -209.994)"/><use xlink:href="#cv" transform="matrix(1.60785 0 0 1.60786 -620.532 -209.994)"/><use xlink:href="#cw" transform="matrix(1.60785 0 0 1.60786 -620.532 -209.994)"/><use xlink:href="#cx" transform="matrix(1.60785 0 0 1.60786 -620.532 -209.994)"/><use xlink:href="#cy" transform="matrix(1.60785 0 0 1.60786 -620.532 -209.994)"/><use xlink:href="#cz" transform="matrix(1.60785 0 0 1.60786 -620.532 -209.994)"/><use xlink:href="#cA" transform="matrix(1.60785 0 0 1.60786 -620.532 -209.994)"/><use xlink:href="#cB" transform="matrix(1.60785 0 0 1.60786 -620.532 -209.994)"/><use xlink:href="#cC" transform="matrix(1.60785 0 0 1.60786 -620.532 -209.994)"/><use xlink:href="#cD" transform="matrix(1.60785 0 0 1.60786 -620.532 -209.994)"/><use xlink:href="#cE" transform="matrix(1.60785 0 0 1.60786 -620.532 -209.994)"/><use xlink:href="#cF" transform="matrix(1.60785 0 0 1.60786 -620.532 -209.994)"/><use xlink:href="#cG" transform="matrix(1.60785 0 0 1.60786 -620.532 -209.994)"/><use xlink:href="#cH" transform="matrix(1.60785 0 0 1.60786 -620.532 -209.994)"/><use xlink:href="#cI" transform="matrix(1.60785 0 0 1.60786 -620.532 -209.994)"/><use xlink:href="#cJ" transform="matrix(1.60785 0 0 1.60786 -620.532 -209.994)"/><use xlink:href="#cK" transform="matrix(1.60785 0 0 1.60786 -620.532 -209.994)"/><use xlink:href="#cL" transform="matrix(1.60785 0 0 1.60786 -620.532 -209.994)"/><use xlink:href="#cM" transform="matrix(1.60785 0 0 1.60786 -620.532 -209.994)"/><use xlink:href="#cN" transform="matrix(1.60785 0 0 1.60786 -620.532 -209.994)"/><use xlink:href="#cO" transform="matrix(1.60785 0 0 1.60786 -620.532 -209.994)"/><use xlink:href="#cP" transform="matrix(1.60785 0 0 1.60786 -620.532 -209.994)"/><use xlink:href="#cQ" transform="matrix(1.60785 0 0 1.60786 -620.532 -209.994)"/><use xlink:href="#cR" transform="matrix(1.60785 0 0 1.60786 -620.532 -209.994)"/><use xlink:href="#cS" transform="matrix(1.60785 0 0 1.60786 -620.532 -209.994)"/><use xlink:href="#cT" transform="matrix(1.60785 0 0 1.60786 -620.532 -209.994)"/><use xlink:href="#cU" transform="matrix(1.60785 0 0 1.60786 -620.532 -209.994)"/><use xlink:href="#cV" transform="matrix(1.60785 0 0 1.60786 -620.532 -209.994)"/><use xlink:href="#cW" transform="matrix(1.60785 0 0 1.60786 -620.532 -209.994)"/><use xlink:href="#cX" transform="matrix(1.60785 0 0 1.60786 -620.532 -209.994)"/><use xlink:href="#cY" transform="matrix(1.60785 0 0 1.60786 -620.532 -209.994)"/><use xlink:href="#cZ" transform="matrix(1.60785 0 0 1.60786 -620.532 -209.994)"/><use xlink:href="#da" transform="matrix(1.60785 0 0 1.60786 -620.532 -209.994)"/><use xlink:href="#db" transform="matrix(1.60785 0 0 1.60786 -620.532 -209.994)"/><use xlink:href="#dc" transform="matrix(1.60785 0 0 1.60786 -620.532 -209.994)"/><use xlink:href="#dd" transform="matrix(1.60785 0 0 1.60786 -620.532 -209.994)"/><use xlink:href="#de" transform="matrix(1.60785 0 0 1.60786 -620.532 -209.994)"/><use xlink:href="#df" transform="matrix(1.60785 0 0 1.60786 -620.532 -209.994)"/><use xlink:href="#dg" transform="matrix(1.60785 0 0 1.60786 -620.532 -209.994)"/><use xlink:href="#dh" transform="matrix(1.60785 0 0 1.60786 -620.532 -209.994)"/><use xlink:href="#di" transform="matrix(1.60785 0 0 1.60786 -620.532 -209.994)"/><use xlink:href="#dj" transform="matrix(1.60785 0 0 1.60786 -620.532 -209.994)"/><use xlink:href="#dk" transform="matrix(1.60785 0 0 1.60786 -620.532 -209.994)"/><use xlink:href="#dl" transform="matrix(1.60785 0 0 1.60786 -620.532 -209.994)"/><use xlink:href="#dm" transform="matrix(1.60785 0 0 1.60786 -620.532 -209.994)"/><use xlink:href="#dn" transform="matrix(1.60785 0 0 1.60786 -620.532 -209.994)"/><use xlink:href="#do" transform="matrix(1.60785 0 0 1.60786 -620.532 -209.994)"/><use xlink:href="#dp" transform="matrix(1.60785 0 0 1.60786 -620.532 -209.994)"/><use xlink:href="#dq" transform="matrix(1.60785 0 0 1.60786 -620.532 -209.994)"/><use xlink:href="#dr" transform="matrix(1.60785 0 0 1.60786 -620.532 -209.994)"/><use xlink:href="#ds" transform="matrix(1.60785 0 0 1.60786 -620.532 -209.994)"/><use xlink:href="#dt" transform="matrix(1.60785 0 0 1.60786 -620.532 -209.994)"/><use xlink:href="#du" transform="matrix(1.60785 0 0 1.60786 -620.532 -209.994)"/><use xlink:href="#dv" transform="matrix(1.60785 0 0 1.60786 -620.532 -209.994)"/><use xlink:href="#dw" transform="matrix(1.60785 0 0 1.60786 -620.532 -209.994)"/><use xlink:href="#dx" transform="matrix(1.60785 0 0 1.60786 -620.532 -209.994)"/><use xlink:href="#dy" transform="matrix(1.60785 0 0 1.60786 -620.532 -209.994)"/><use xlink:href="#dz" transform="matrix(1.60785 0 0 1.60786 -620.532 -209.994)"/><use xlink:href="#dA" transform="matrix(1.60785 0 0 1.60786 -620.532 -209.994)"/><use xlink:href="#dB" transform="matrix(1.60785 0 0 1.60786 -620.532 -209.994)"/><use xlink:href="#dC" transform="matrix(1.60785 0 0 1.60786 -620.532 -209.994)"/><use xlink:href="#dD" transform="matrix(1.60785 0 0 1.60786 -620.532 -209.994)"/><use xlink:href="#dE" transform="matrix(1.60785 0 0 1.60786 -620.532 -209.994)"/><use xlink:href="#dF" transform="matrix(1.60785 0 0 1.60786 -620.532 -209.994)"/><use xlink:href="#dG" transform="matrix(1.60785 0 0 1.60786 -620.532 -209.994)"/><use xlink:href="#dH" transform="matrix(1.60785 0 0 1.60786 -620.532 -209.994)"/><use xlink:href="#dI" transform="matrix(1.60785 0 0 1.60786 -620.532 -209.994)"/><use xlink:href="#dJ" transform="matrix(1.60785 0 0 1.60786 -620.532 -209.994)"/><use xlink:href="#dK" transform="matrix(1.60785 0 0 1.60786 -620.532 -209.994)"/><use xlink:href="#dL" transform="matrix(1.60785 0 0 1.60786 -620.532 -209.994)"/><use xlink:href="#dM" transform="matrix(1.60785 0 0 1.60786 -620.532 -209.994)"/><use xlink:href="#dN" transform="matrix(1.60785 0 0 1.60786 -620.532 -209.994)"/><use xlink:href="#dO" transform="matrix(1.60785 0 0 1.60786 -620.532 -209.994)"/><use xlink:href="#dP" transform="matrix(1.60785 0 0 1.60786 -620.532 -209.994)"/><use xlink:href="#dQ" transform="matrix(1.60785 0 0 1.60786 -620.532 -209.994)"/><use xlink:href="#dR" transform="matrix(1.60785 0 0 1.60786 -620.532 -209.994)"/><use xlink:href="#dS" transform="matrix(1.60785 0 0 1.60786 -620.532 -209.994)"/><use xlink:href="#dT" transform="matrix(1.60785 0 0 1.60786 -620.532 -209.994)"/><use xlink:href="#dU" transform="matrix(1.60785 0 0 1.60786 -620.532 -209.994)"/><use xlink:href="#dV" transform="matrix(1.60785 0 0 1.60786 -620.532 -209.994)"/><use xlink:href="#dW" transform="matrix(1.60785 0 0 1.60786 -620.532 -209.994)"/><use xlink:href="#dX" transform="matrix(1.60785 0 0 1.60786 -620.532 -209.994)"/><use xlink:href="#dY" transform="matrix(1.60785 0 0 1.60786 -620.532 -209.994)"/><use xlink:href="#dZ" transform="matrix(1.60785 0 0 1.60786 -620.532 -209.994)"/><use xlink:href="#ea" transform="matrix(1.60785 0 0 1.60786 -620.532 -209.994)"/><use xlink:href="#eb" transform="matrix(1.60785 0 0 1.60786 -620.532 -209.994)"/><use xlink:href="#ec" transform="matrix(1.60785 0 0 1.60786 -620.532 -209.994)"/><use xlink:href="#ed" transform="matrix(1.60785 0 0 1.60786 -620.532 -209.994)"/><use xlink:href="#ee" transform="matrix(1.60785 0 0 1.60786 -620.532 -209.994)"/><use xlink:href="#ef" transform="matrix(1.60785 0 0 1.60786 -620.532 -209.994)"/><use xlink:href="#eg" transform="matrix(1.60785 0 0 1.60786 -620.532 -209.994)"/><use xlink:href="#eh" transform="matrix(1.60785 0 0 1.60786 -620.532 -209.994)"/><use xlink:href="#ei" transform="matrix(1.60785 0 0 1.60786 -620.532 -209.994)"/><use xlink:href="#ej" transform="matrix(1.60785 0 0 1.60786 -620.532 -209.994)"/><use xlink:href="#ek" transform="matrix(1.60785 0 0 1.60786 -620.532 -209.994)"/><use xlink:href="#el" transform="matrix(1.60785 0 0 1.60786 -620.532 -209.994)"/><use xlink:href="#em" transform="matrix(1.60785 0 0 1.60786 -620.532 -209.994)"/><use xlink:href="#en" transform="matrix(1.60785 0 0 1.60786 -620.532 -209.994)"/><use xlink:href="#eo" transform="matrix(1.60785 0 0 1.60786 -620.532 -209.994)"/><use xlink:href="#ep" transform="matrix(1.60785 0 0 1.60786 -620.532 -209.994)"/><use xlink:href="#eq" transform="matrix(1.60785 0 0 1.60786 -620.532 -209.994)"/><use xlink:href="#er" transform="matrix(1.60785 0 0 1.60786 -620.532 -209.994)"/><use xlink:href="#es" transform="matrix(1.60785 0 0 1.60786 -620.532 -209.994)"/><use xlink:href="#et" transform="matrix(1.60785 0 0 1.60786 -620.532 -209.994)"/><use xlink:href="#eu" transform="matrix(1.60785 0 0 1.60786 -620.532 -209.994)"/><use xlink:href="#ev" transform="matrix(1.60785 0 0 1.60786 -620.532 -209.994)"/><use xlink:href="#ew" transform="matrix(1.60785 0 0 1.60786 -620.532 -209.994)"/><use xlink:href="#ex" transform="matrix(1.60785 0 0 1.60786 -620.532 -209.994)"/><use xlink:href="#ey" transform="matrix(1.60785 0 0 1.60786 -620.532 -209.994)"/><use xlink:href="#ez" transform="matrix(1.60785 0 0 1.60786 -620.532 -209.994)"/><use xlink:href="#eA" transform="matrix(1.60785 0 0 1.60786 -620.532 -209.994)"/><use xlink:href="#eB" transform="matrix(1.60785 0 0 1.60786 -620.532 -209.994)"/><use xlink:href="#eC" transform="matrix(1.60785 0 0 1.60786 -620.532 -209.994)"/><use xlink:href="#eD" transform="matrix(1.60785 0 0 1.60786 -620.532 -209.994)"/><use xlink:href="#eE" transform="matrix(1.60785 0 0 1.60786 -620.532 -209.994)"/><use xlink:href="#eF" transform="matrix(1.60785 0 0 1.60786 -620.532 -209.994)"/><use xlink:href="#eG" transform="matrix(1.60785 0 0 1.60786 -620.532 -209.994)"/><use xlink:href="#eH" transform="matrix(1.60785 0 0 1.60786 -620.532 -209.994)"/><use xlink:href="#eI" transform="matrix(1.60785 0 0 1.60786 -620.532 -209.994)"/><use xlink:href="#eJ" transform="matrix(1.60785 0 0 1.60786 -620.532 -209.994)"/><use xlink:href="#eK" transform="matrix(1.60785 0 0 1.60786 -620.532 -209.994)"/><use xlink:href="#eL" transform="matrix(1.60785 0 0 1.60786 -620.532 -209.994)"/><use xlink:href="#eM" transform="matrix(1.60785 0 0 1.60786 -620.532 -209.994)"/><use xlink:href="#eN" transform="matrix(1.60785 0 0 1.60786 -620.532 -209.994)"/><use xlink:href="#eO" transform="matrix(1.60785 0 0 1.60786 -620.532 -209.994)"/><use xlink:href="#eP" transform="matrix(1.60785 0 0 1.60786 -620.532 -209.994)"/><use xlink:href="#eQ" transform="matrix(1.60785 0 0 1.60786 -620.532 -209.994)"/><use xlink:href="#eR" transform="matrix(1.60785 0 0 1.60786 -620.532 -209.994)"/><use xlink:href="#eS" transform="matrix(1.60785 0 0 1.60786 -620.532 -209.994)"/><use xlink:href="#eT" transform="matrix(1.60785 0 0 1.60786 -620.532 -209.994)"/><use xlink:href="#eU" transform="matrix(1.60785 0 0 1.60786 -620.532 -209.994)"/><use xlink:href="#eV" transform="matrix(1.60785 0 0 1.60786 -620.532 -209.994)"/><use xlink:href="#eW" transform="matrix(1.60785 0 0 1.60786 -620.532 -209.994)"/><use xlink:href="#eX" transform="matrix(1.60785 0 0 1.60786 -620.532 -209.994)"/><use xlink:href="#eY" transform="matrix(1.60785 0 0 1.60786 -620.532 -209.994)"/><use xlink:href="#eZ" transform="matrix(1.60785 0 0 1.60786 -620.532 -209.994)"/><use xlink:href="#fa" transform="matrix(1.60785 0 0 1.60786 -620.532 -209.994)"/><use xlink:href="#fb" transform="matrix(1.60785 0 0 1.60786 -620.532 -209.994)"/><use xlink:href="#fc" transform="matrix(1.60785 0 0 1.60786 -620.532 -209.994)"/><use xlink:href="#fd" transform="matrix(1.60785 0 0 1.60786 -620.532 -209.994)"/><use xlink:href="#fe" transform="matrix(1.60785 0 0 1.60786 -620.532 -209.994)"/><use xlink:href="#ff" transform="matrix(1.60785 0 0 1.60786 -620.532 -209.994)"/><use xlink:href="#fg" transform="matrix(1.60785 0 0 1.60786 -620.532 -209.994)"/><use xlink:href="#fh" transform="matrix(1.60785 0 0 1.60786 -620.532 -209.994)"/><use xlink:href="#fi" transform="matrix(1.60785 0 0 1.60786 -620.532 -209.994)"/><use xlink:href="#fj" transform="matrix(1.60785 0 0 1.60786 -620.532 -209.994)"/><use xlink:href="#fk" transform="matrix(1.60785 0 0 1.60786 -620.532 -209.994)"/><use xlink:href="#fl" transform="matrix(1.60785 0 0 1.60786 -620.532 -209.994)"/><use xlink:href="#fm" transform="matrix(1.60785 0 0 1.60786 -620.532 -209.994)"/><use xlink:href="#fn" transform="matrix(1.60785 0 0 1.60786 -620.532 -209.994)"/><use xlink:href="#fo" transform="matrix(1.60785 0 0 1.60786 -620.532 -209.994)"/></svg>