<svg xmlns="http://www.w3.org/2000/svg" xmlns:xlink="http://www.w3.org/1999/xlink" preserveAspectRatio="none" width="284" height="320"><defs><linearGradient id="a" gradientUnits="userSpaceOnUse" x1="278.75" y1="215.525" x2="278.75" y2="178.875" spreadMethod="pad"><stop offset="0%" stop-color="#D2BBB5"/><stop offset="100%" stop-color="#AE857D"/></linearGradient><linearGradient id="b" gradientUnits="userSpaceOnUse" x1="345.488" y1="231.3" x2="253.912" y2="231.3" spreadMethod="pad"><stop offset="0%" stop-color="#FFDA71"/><stop offset="100%" stop-color="#F0B732"/></linearGradient><linearGradient id="c" gradientUnits="userSpaceOnUse" x1="311.963" y1="231.188" x2="273.238" y2="220.813" spreadMethod="pad"><stop offset="0%" stop-color="#9CB841"/><stop offset="100%" stop-color="#D8E37A"/></linearGradient><linearGradient id="d" gradientUnits="userSpaceOnUse" x1="274.487" y1="224.5" x2="313.313" y2="224.5" spreadMethod="pad"><stop offset="0%" stop-color="#E8EDB0"/><stop offset="100%" stop-color="#ACC341"/></linearGradient><linearGradient id="e" gradientUnits="userSpaceOnUse" x1="301.7" y1="246.5" x2="301.7" y2="210.9" spreadMethod="pad"><stop offset="0%" stop-color="#BACD41"/><stop offset="100%" stop-color="#D4E065"/></linearGradient><linearGradient id="f" gradientUnits="userSpaceOnUse" x1="344.188" y1="244.838" x2="315.712" y2="216.362" spreadMethod="pad"><stop offset="0%" stop-color="#3DA999"/><stop offset="100%" stop-color="#B5DFD7"/></linearGradient><linearGradient id="g" gradientUnits="userSpaceOnUse" x1="343.713" y1="243.975" x2="317.387" y2="214.725" spreadMethod="pad"><stop offset="0%" stop-color="#64B4A7"/><stop offset="100%" stop-color="#D4ECE6"/></linearGradient><linearGradient id="h" gradientUnits="userSpaceOnUse" x1="327.688" y1="252.438" x2="345.413" y2="222.962" spreadMethod="pad"><stop offset="0%" stop-color="#52B6A3"/><stop offset="100%" stop-color="#A6D9CD"/></linearGradient><linearGradient id="i" gradientUnits="userSpaceOnUse" x1="352.375" y1="216.763" x2="332.825" y2="253.537" spreadMethod="pad"><stop offset="0%" stop-color="#C3E5DE"/><stop offset="100%" stop-color="#95D3C6"/></linearGradient><linearGradient id="j" gradientUnits="userSpaceOnUse" x1="318.025" y1="228.425" x2="342.575" y2="201.175" spreadMethod="pad"><stop offset="0%" stop-color="#C3E5DE"/><stop offset="100%" stop-color="#FFF"/></linearGradient><linearGradient id="k" gradientUnits="userSpaceOnUse" x1="318.275" y1="226.387" x2="335.725" y2="208.313" spreadMethod="pad"><stop offset="0%" stop-color="#E3F2F0"/><stop offset="100%" stop-color="#FFF"/></linearGradient><linearGradient id="l" gradientUnits="userSpaceOnUse" x1="283.6" y1="235.5" x2="283.6" y2="208.6" spreadMethod="pad"><stop offset="0%" stop-color="#D1DE83"/><stop offset="100%" stop-color="#E5EBC4"/></linearGradient><linearGradient id="m" gradientUnits="userSpaceOnUse" x1="274.163" y1="227.912" x2="236.938" y2="237.888" spreadMethod="pad"><stop offset="0%" stop-color="#00B4EF"/><stop offset="100%" stop-color="#B5E3F9"/></linearGradient><linearGradient id="n" gradientUnits="userSpaceOnUse" x1="272.9" y1="226.65" x2="235.9" y2="237.25" spreadMethod="pad"><stop offset="0%" stop-color="#00BFF1"/><stop offset="100%" stop-color="#E4F4FC"/></linearGradient><linearGradient id="o" gradientUnits="userSpaceOnUse" x1="273.538" y1="246.525" x2="255.663" y2="215.575" spreadMethod="pad"><stop offset="0%" stop-color="#62CCF4"/><stop offset="100%" stop-color="#9CDBF8"/></linearGradient><linearGradient id="p" gradientUnits="userSpaceOnUse" x1="263.975" y1="215.725" x2="280.425" y2="250.975" spreadMethod="pad"><stop offset="0%" stop-color="#B5E3F9"/><stop offset="100%" stop-color="#82D4F6"/></linearGradient><linearGradient id="q" gradientUnits="userSpaceOnUse" x1="250.6" y1="240.95" x2="239.8" y2="220.65" spreadMethod="pad"><stop offset="0%" stop-color="#BAE5FA"/><stop offset="100%" stop-color="#FFF"/></linearGradient><linearGradient id="r" gradientUnits="userSpaceOnUse" x1="262.475" y1="263.225" x2="253.125" y2="256.175" spreadMethod="pad"><stop offset="0%" stop-color="#8C3C29"/><stop offset="100%" stop-color="#AF612E"/></linearGradient><linearGradient id="s" gradientUnits="userSpaceOnUse" x1="236.888" y1="255.637" x2="239.213" y2="254.063" spreadMethod="pad"><stop offset="0%" stop-color="#996240"/><stop offset="100%" stop-color="#C89E6E"/></linearGradient><linearGradient id="t" gradientUnits="userSpaceOnUse" x1="238.338" y1="295.65" x2="236.463" y2="293.95" spreadMethod="pad"><stop offset="0%" stop-color="#8B5650"/><stop offset="100%" stop-color="#B18B83"/></linearGradient><linearGradient id="u" gradientUnits="userSpaceOnUse" x1="356.65" y1="256.063" x2="346.85" y2="247.238" spreadMethod="pad"><stop offset="0%" stop-color="#8B5650"/><stop offset="100%" stop-color="#C7ABA3"/></linearGradient><linearGradient id="v" gradientUnits="userSpaceOnUse" x1="351" y1="291.938" x2="347.7" y2="288.962" spreadMethod="pad"><stop offset="0%" stop-color="#8B5650"/><stop offset="100%" stop-color="#C7ABA3"/></linearGradient><linearGradient id="w" gradientUnits="userSpaceOnUse" x1="291.238" y1="323.4" x2="301.463" y2="314.5" spreadMethod="pad"><stop offset="0%" stop-color="#9D6C64"/><stop offset="100%" stop-color="#BA978F"/></linearGradient><linearGradient id="x" gradientUnits="userSpaceOnUse" x1="314.8" y1="319.137" x2="300.4" y2="306.162" spreadMethod="pad"><stop offset="0%" stop-color="#8B5650"/><stop offset="100%" stop-color="#C7ABA3"/></linearGradient><linearGradient id="y" gradientUnits="userSpaceOnUse" x1="284.675" y1="310.6" x2="299.625" y2="297.6" spreadMethod="pad"><stop offset="0%" stop-color="#8E5A54"/><stop offset="100%" stop-color="#B18B83"/></linearGradient><linearGradient id="z" gradientUnits="userSpaceOnUse" x1="265.25" y1="322.45" x2="273.65" y2="315.15" spreadMethod="pad"><stop offset="0%" stop-color="#9D6C64"/><stop offset="100%" stop-color="#BA978F"/></linearGradient><linearGradient id="A" gradientUnits="userSpaceOnUse" x1="285.938" y1="320.087" x2="271.663" y2="307.212" spreadMethod="pad"><stop offset="0%" stop-color="#8B5650"/><stop offset="100%" stop-color="#C7ABA3"/></linearGradient><linearGradient id="B" gradientUnits="userSpaceOnUse" x1="239.688" y1="303.6" x2="249.012" y2="295.5" spreadMethod="pad"><stop offset="0%" stop-color="#8E5A54"/><stop offset="100%" stop-color="#B18B83"/></linearGradient><linearGradient id="C" gradientUnits="userSpaceOnUse" x1="260.113" y1="300.95" x2="245.787" y2="288.05" spreadMethod="pad"><stop offset="0%" stop-color="#8B5650"/><stop offset="100%" stop-color="#C7ABA3"/></linearGradient><linearGradient id="D" gradientUnits="userSpaceOnUse" x1="314.112" y1="301.938" x2="299.688" y2="288.962" spreadMethod="pad"><stop offset="0%" stop-color="#8B5650"/><stop offset="100%" stop-color="#C7ABA3"/></linearGradient><linearGradient id="E" gradientUnits="userSpaceOnUse" x1="349.475" y1="271.237" x2="330.425" y2="254.062" spreadMethod="pad"><stop offset="0%" stop-color="#8B5650"/><stop offset="100%" stop-color="#C7ABA3"/></linearGradient><linearGradient id="F" gradientUnits="userSpaceOnUse" x1="313.675" y1="310.713" x2="328.425" y2="297.887" spreadMethod="pad"><stop offset="0%" stop-color="#8E5A54"/><stop offset="100%" stop-color="#B18B83"/></linearGradient><linearGradient id="G" gradientUnits="userSpaceOnUse" x1="341.625" y1="301.337" x2="326.875" y2="288.063" spreadMethod="pad"><stop offset="0%" stop-color="#8B5650"/><stop offset="100%" stop-color="#C7ABA3"/></linearGradient><linearGradient id="H" gradientUnits="userSpaceOnUse" x1="239.188" y1="262.113" x2="228.613" y2="252.588" spreadMethod="pad"><stop offset="0%" stop-color="#8B5650"/><stop offset="100%" stop-color="#C7ABA3"/></linearGradient><linearGradient id="I" gradientUnits="userSpaceOnUse" x1="258" y1="310.962" x2="273.1" y2="297.837" spreadMethod="pad"><stop offset="0%" stop-color="#8E5A54"/><stop offset="100%" stop-color="#B18B83"/></linearGradient><linearGradient id="J" gradientUnits="userSpaceOnUse" x1="261.375" y1="281.625" x2="247.225" y2="268.875" spreadMethod="pad"><stop offset="0%" stop-color="#8B5650"/><stop offset="100%" stop-color="#B18B83"/></linearGradient><linearGradient id="K" gradientUnits="userSpaceOnUse" x1="259.2" y1="292.212" x2="273.6" y2="279.688" spreadMethod="pad"><stop offset="0%" stop-color="#7A423F"/><stop offset="100%" stop-color="#A4776F"/></linearGradient><linearGradient id="L" gradientUnits="userSpaceOnUse" x1="287.363" y1="282.65" x2="273.037" y2="269.75" spreadMethod="pad"><stop offset="0%" stop-color="#8B5650"/><stop offset="100%" stop-color="#B18B83"/></linearGradient><linearGradient id="M" gradientUnits="userSpaceOnUse" x1="286.225" y1="292.238" x2="300.575" y2="279.762" spreadMethod="pad"><stop offset="0%" stop-color="#7A423F"/><stop offset="100%" stop-color="#A4776F"/></linearGradient><linearGradient id="N" gradientUnits="userSpaceOnUse" x1="287.063" y1="301.938" x2="272.538" y2="288.862" spreadMethod="pad"><stop offset="0%" stop-color="#8B5650"/><stop offset="100%" stop-color="#C7ABA3"/></linearGradient><linearGradient id="O" gradientUnits="userSpaceOnUse" x1="313.362" y1="282.637" x2="298.938" y2="269.662" spreadMethod="pad"><stop offset="0%" stop-color="#8B5650"/><stop offset="100%" stop-color="#B18B83"/></linearGradient><linearGradient id="P" gradientUnits="userSpaceOnUse" x1="312.162" y1="292.175" x2="326.738" y2="279.525" spreadMethod="pad"><stop offset="0%" stop-color="#7A423F"/><stop offset="100%" stop-color="#A4776F"/></linearGradient><linearGradient id="Q" gradientUnits="userSpaceOnUse" x1="339.275" y1="281.762" x2="324.825" y2="268.738" spreadMethod="pad"><stop offset="0%" stop-color="#8B5650"/><stop offset="100%" stop-color="#B18B83"/></linearGradient><linearGradient id="R" gradientUnits="userSpaceOnUse" x1="238.7" y1="279.488" x2="231.4" y2="272.912" spreadMethod="pad"><stop offset="0%" stop-color="#8B5650"/><stop offset="100%" stop-color="#B18B83"/></linearGradient><linearGradient id="S" gradientUnits="userSpaceOnUse" x1="355.4" y1="273.5" x2="347.2" y2="266.1" spreadMethod="pad"><stop offset="0%" stop-color="#8B5650"/><stop offset="100%" stop-color="#B18B83"/></linearGradient><linearGradient id="T" gradientUnits="userSpaceOnUse" x1="259.275" y1="316.7" x2="247.825" y2="306.4" spreadMethod="pad"><stop offset="0%" stop-color="#8B5650"/><stop offset="100%" stop-color="#C7ABA3"/></linearGradient><linearGradient id="U" gradientUnits="userSpaceOnUse" x1="235.938" y1="270.863" x2="249.762" y2="258.838" spreadMethod="pad"><stop offset="0%" stop-color="#7A423F"/><stop offset="100%" stop-color="#A4776F"/></linearGradient><linearGradient id="V" gradientUnits="userSpaceOnUse" x1="286.125" y1="273.063" x2="300.075" y2="260.938" spreadMethod="pad"><stop offset="0%" stop-color="#7A423F"/><stop offset="100%" stop-color="#A4776F"/></linearGradient><linearGradient id="W" gradientUnits="userSpaceOnUse" x1="336.55" y1="271.588" x2="350.35" y2="259.613" spreadMethod="pad"><stop offset="0%" stop-color="#7A423F"/><stop offset="100%" stop-color="#A4776F"/></linearGradient><linearGradient id="X" gradientUnits="userSpaceOnUse" x1="324.7" y1="318.075" x2="344.9" y2="300.525" spreadMethod="pad"><stop offset="0%" stop-color="#7A423F"/><stop offset="100%" stop-color="#A4776F"/></linearGradient><linearGradient id="Y" gradientUnits="userSpaceOnUse" x1="319.2" y1="321.362" x2="326.6" y2="314.938" spreadMethod="pad"><stop offset="0%" stop-color="#9D6C64"/><stop offset="100%" stop-color="#BA978F"/></linearGradient><linearGradient id="Z" gradientUnits="userSpaceOnUse" x1="337.313" y1="315.662" x2="326.288" y2="305.738" spreadMethod="pad"><stop offset="0%" stop-color="#8B5650"/><stop offset="100%" stop-color="#C7ABA3"/></linearGradient><linearGradient id="aa" gradientUnits="userSpaceOnUse" x1="236.55" y1="288.438" x2="249.05" y2="277.563" spreadMethod="pad"><stop offset="0%" stop-color="#7A423F"/><stop offset="100%" stop-color="#A4776F"/></linearGradient><linearGradient id="ab" gradientUnits="userSpaceOnUse" x1="260.575" y1="272.675" x2="275.125" y2="260.025" spreadMethod="pad"><stop offset="0%" stop-color="#7A423F"/><stop offset="100%" stop-color="#A4776F"/></linearGradient><linearGradient id="ac" gradientUnits="userSpaceOnUse" x1="313.338" y1="271.05" x2="332.762" y2="254.15" spreadMethod="pad"><stop offset="0%" stop-color="#7A423F"/><stop offset="100%" stop-color="#A4776F"/></linearGradient><linearGradient id="ad" gradientUnits="userSpaceOnUse" x1="338.575" y1="290.763" x2="351.025" y2="279.938" spreadMethod="pad"><stop offset="0%" stop-color="#7A423F"/><stop offset="100%" stop-color="#A4776F"/></linearGradient><linearGradient id="ae" gradientUnits="userSpaceOnUse" x1="255.563" y1="299.95" x2="249.238" y2="288.05" spreadMethod="pad"><stop offset="0%" stop-color="#B8948D"/><stop offset="100%" stop-color="#E0D3CF"/></linearGradient><linearGradient id="af" gradientUnits="userSpaceOnUse" x1="243.125" y1="257.863" x2="241.875" y2="256.738" spreadMethod="pad"><stop offset="0%" stop-color="#A76043"/><stop offset="100%" stop-color="#D09668"/></linearGradient><linearGradient id="ag" gradientUnits="userSpaceOnUse" x1="253.725" y1="279.838" x2="247.575" y2="268.262" spreadMethod="pad"><stop offset="0%" stop-color="#B8948D"/><stop offset="100%" stop-color="#E0D3CF"/></linearGradient><linearGradient id="ah" gradientUnits="userSpaceOnUse" x1="257.913" y1="312.287" x2="255.688" y2="308.113" spreadMethod="pad"><stop offset="0%" stop-color="#B8948D"/><stop offset="100%" stop-color="#E0D3CF"/></linearGradient><linearGradient id="ai" gradientUnits="userSpaceOnUse" x1="256.2" y1="313.75" x2="248.8" y2="266.95" spreadMethod="pad"><stop offset="0%" stop-color="#C5A8A1"/><stop offset="100%" stop-color="#B18981"/></linearGradient><linearGradient id="aj" gradientUnits="userSpaceOnUse" x1="254.15" y1="314.037" x2="246.75" y2="267.262" spreadMethod="pad"><stop offset="0%" stop-color="#C5A8A1"/><stop offset="100%" stop-color="#B18981"/></linearGradient><linearGradient id="ak" gradientUnits="userSpaceOnUse" x1="256.212" y1="313.713" x2="248.787" y2="266.887" spreadMethod="pad"><stop offset="0%" stop-color="#C5A8A1"/><stop offset="100%" stop-color="#B18981"/></linearGradient><linearGradient id="al" gradientUnits="userSpaceOnUse" x1="252.488" y1="250" x2="333.113" y2="250" spreadMethod="pad"><stop offset="0%" stop-color="#97665E"/><stop offset="25.882%" stop-color="#C1A29B"/><stop offset="100%" stop-color="#713636"/></linearGradient><linearGradient id="am" gradientUnits="userSpaceOnUse" x1="246.475" y1="257.3" x2="364.425" y2="257.3" spreadMethod="pad"><stop offset="0%" stop-color="#E6288B"/><stop offset="16.863%" stop-color="#FBDCE0"/><stop offset="36.863%" stop-color="#EE5299"/><stop offset="69.02%" stop-color="#CC267D"/><stop offset="100%" stop-color="#D52782"/></linearGradient><linearGradient id="an" gradientUnits="userSpaceOnUse" x1="246.475" y1="254.1" x2="364.425" y2="254.1" spreadMethod="pad"><stop offset="0%" stop-color="#EA6FA6"/><stop offset="16.863%" stop-color="#FFF"/><stop offset="32.941%" stop-color="#F287B1"/><stop offset="63.137%" stop-color="#E22889"/><stop offset="100%" stop-color="#D52782"/></linearGradient><linearGradient id="ao" gradientUnits="userSpaceOnUse" x1="246.475" y1="260.2" x2="364.425" y2="260.2" spreadMethod="pad"><stop offset="0%" stop-color="#EA6FA6"/><stop offset="16.863%" stop-color="#FFF"/><stop offset="32.941%" stop-color="#F287B1"/><stop offset="63.137%" stop-color="#E22889"/><stop offset="100%" stop-color="#D52782"/></linearGradient><linearGradient id="ap" gradientUnits="userSpaceOnUse" x1="251.462" y1="240.2" x2="334.938" y2="240.2" spreadMethod="pad"><stop offset="0%" stop-color="#B18B83"/><stop offset="30.98%" stop-color="#E4D7D3"/><stop offset="100%" stop-color="#B18B83"/></linearGradient><linearGradient id="aq" gradientUnits="userSpaceOnUse" x1="306.9" y1="176.538" x2="306.9" y2="258.063" spreadMethod="pad"><stop offset="0%" stop-color="#A97E75"/><stop offset="18.824%" stop-color="#DECEC8"/><stop offset="49.02%" stop-color="#B18B83"/><stop offset="100%" stop-color="#97665E"/></linearGradient><linearGradient id="ar" gradientUnits="userSpaceOnUse" x1="221.737" y1="271.913" x2="271.162" y2="237.287" spreadMethod="pad"><stop offset="0%" stop-color="#FFDA71"/><stop offset="56.863%" stop-color="#FFF"/><stop offset="100%" stop-color="#FFF1C0"/></linearGradient><linearGradient id="as" gradientUnits="userSpaceOnUse" x1="251.887" y1="236.987" x2="247.113" y2="270.912" spreadMethod="pad"><stop offset="0%" stop-color="#FFF1C0"/><stop offset="100%" stop-color="#FFCB31"/></linearGradient><linearGradient id="at" gradientUnits="userSpaceOnUse" x1="351.325" y1="242.188" x2="362.275" y2="262.813" spreadMethod="pad"><stop offset="0%" stop-color="#FFF1C0"/><stop offset="100%" stop-color="#FFCB31"/></linearGradient><linearGradient id="au" gradientUnits="userSpaceOnUse" x1="250.725" y1="242.938" x2="232.975" y2="261.962" spreadMethod="pad"><stop offset="0%" stop-color="#FFDA71"/><stop offset="100%" stop-color="#FFCB31"/></linearGradient><linearGradient id="av" gradientUnits="userSpaceOnUse" x1="236.925" y1="239.587" x2="224.175" y2="260.813" spreadMethod="pad"><stop offset="0%" stop-color="#FFDA71"/><stop offset="100%" stop-color="#FFCB31"/></linearGradient><linearGradient id="aw" gradientUnits="userSpaceOnUse" x1="318.363" y1="263.587" x2="320.537" y2="288.413" spreadMethod="pad"><stop offset="0%" stop-color="#F076A8"/><stop offset="20%" stop-color="#F7B6CA"/><stop offset="45.098%" stop-color="#F06DA4"/><stop offset="100%" stop-color="#E6288B"/></linearGradient><linearGradient id="ax" gradientUnits="userSpaceOnUse" x1="318.625" y1="268.2" x2="320.375" y2="301.5" spreadMethod="pad"><stop offset="0%" stop-color="#F5A2C1"/><stop offset="20%" stop-color="#FFF"/><stop offset="45.098%" stop-color="#F49EBF"/><stop offset="100%" stop-color="#EB7DAD"/></linearGradient><linearGradient id="ay" gradientUnits="userSpaceOnUse" x1="311.475" y1="269.2" x2="313.325" y2="304.4" spreadMethod="pad"><stop offset="0%" stop-color="#F5A2C1"/><stop offset="20%" stop-color="#FFF"/><stop offset="45.098%" stop-color="#F49EBF"/><stop offset="100%" stop-color="#EB7DAD"/></linearGradient><linearGradient id="az" gradientUnits="userSpaceOnUse" x1="322.813" y1="263.363" x2="324.587" y2="283.637" spreadMethod="pad"><stop offset="0%" stop-color="#F076A8"/><stop offset="20%" stop-color="#F7B6CA"/><stop offset="45.098%" stop-color="#F06DA4"/><stop offset="100%" stop-color="#E6288B"/></linearGradient><linearGradient id="aA" gradientUnits="userSpaceOnUse" x1="323.675" y1="265.962" x2="325.225" y2="283.538" spreadMethod="pad"><stop offset="0%" stop-color="#F5A2C1"/><stop offset="20%" stop-color="#FFF"/><stop offset="45.098%" stop-color="#F49EBF"/><stop offset="100%" stop-color="#EB7DAD"/></linearGradient><linearGradient id="aB" gradientUnits="userSpaceOnUse" x1="330.313" y1="265.975" x2="331.888" y2="283.925" spreadMethod="pad"><stop offset="0%" stop-color="#F5A2C1"/><stop offset="20%" stop-color="#FFF"/><stop offset="45.098%" stop-color="#F49EBF"/><stop offset="100%" stop-color="#EB7DAD"/></linearGradient><linearGradient id="aC" gradientUnits="userSpaceOnUse" x1="284.6" y1="249.463" x2="316.3" y2="270.038" spreadMethod="pad"><stop offset="0%" stop-color="#F17CAB"/><stop offset="7.843%" stop-color="#F6B1C8"/><stop offset="16.078%" stop-color="#FBDCE0"/><stop offset="23.922%" stop-color="#F7B6CA"/><stop offset="41.961%" stop-color="#F393B8"/><stop offset="100%" stop-color="#EE599C"/></linearGradient><linearGradient id="aD" gradientUnits="userSpaceOnUse" x1="312.213" y1="270.587" x2="280.988" y2="262.813" spreadMethod="pad"><stop offset="0%" stop-color="#E22889"/><stop offset="100%" stop-color="#EF67A2"/></linearGradient><linearGradient id="aE" gradientUnits="userSpaceOnUse" x1="285.175" y1="263.5" x2="310.125" y2="271.6" spreadMethod="pad"><stop offset="0%" stop-color="#DB2885"/><stop offset="100%" stop-color="#C52679"/></linearGradient><linearGradient id="aF" gradientUnits="userSpaceOnUse" x1="284.887" y1="249.462" x2="314.113" y2="268.438" spreadMethod="pad"><stop offset="0%" stop-color="#F6ADC7"/><stop offset="7.843%" stop-color="#FCDEE2"/><stop offset="16.078%" stop-color="#FFF"/><stop offset="23.922%" stop-color="#FCDEE2"/><stop offset="41.961%" stop-color="#F7BCD1"/><stop offset="100%" stop-color="#F49DBF"/></linearGradient><linearGradient id="aG" gradientUnits="userSpaceOnUse" x1="290.012" y1="244.275" x2="320.287" y2="263.925" spreadMethod="pad"><stop offset="0%" stop-color="#F5A6C3"/><stop offset="7.843%" stop-color="#FBDCE0"/><stop offset="16.078%" stop-color="#FFF"/><stop offset="23.922%" stop-color="#FBDCE0"/><stop offset="41.961%" stop-color="#F7B6CD"/><stop offset="100%" stop-color="#F392B9"/></linearGradient><linearGradient id="aH" gradientUnits="userSpaceOnUse" x1="352.413" y1="245.525" x2="327.188" y2="269.875" spreadMethod="pad"><stop offset="0%" stop-color="#F17CAB"/><stop offset="7.843%" stop-color="#F6B1C8"/><stop offset="16.078%" stop-color="#FBDCE0"/><stop offset="23.922%" stop-color="#F7B6CA"/><stop offset="41.961%" stop-color="#F393B8"/><stop offset="100%" stop-color="#EE599C"/></linearGradient><linearGradient id="aI" gradientUnits="userSpaceOnUse" x1="330.65" y1="268.913" x2="358.05" y2="257.288" spreadMethod="pad"><stop offset="0%" stop-color="#E22889"/><stop offset="100%" stop-color="#EF67A2"/></linearGradient><linearGradient id="aJ" gradientUnits="userSpaceOnUse" x1="354.675" y1="257.863" x2="333.625" y2="269.537" spreadMethod="pad"><stop offset="0%" stop-color="#DB2885"/><stop offset="100%" stop-color="#C52679"/></linearGradient><linearGradient id="aK" gradientUnits="userSpaceOnUse" x1="352.287" y1="245.413" x2="329.113" y2="267.788" spreadMethod="pad"><stop offset="0%" stop-color="#F6ADC7"/><stop offset="7.843%" stop-color="#FCDEE2"/><stop offset="16.078%" stop-color="#FFF"/><stop offset="23.922%" stop-color="#FCDEE2"/><stop offset="41.961%" stop-color="#F7BCD1"/><stop offset="100%" stop-color="#F49DBF"/></linearGradient><linearGradient id="aL" gradientUnits="userSpaceOnUse" x1="347.238" y1="241.313" x2="323.363" y2="264.387" spreadMethod="pad"><stop offset="0%" stop-color="#F5A6C3"/><stop offset="7.843%" stop-color="#FBDCE0"/><stop offset="16.078%" stop-color="#FFF"/><stop offset="23.922%" stop-color="#FBDCE0"/><stop offset="41.961%" stop-color="#F7B6CD"/><stop offset="100%" stop-color="#F392B9"/></linearGradient><linearGradient id="aM" gradientUnits="userSpaceOnUse" x1="320.063" y1="259.412" x2="321.038" y2="270.488" spreadMethod="pad"><stop offset="0%" stop-color="#F38EB5"/><stop offset="100%" stop-color="#ED3491"/></linearGradient><linearGradient id="aN" gradientUnits="userSpaceOnUse" x1="325.55" y1="263.575" x2="317.85" y2="264.125" spreadMethod="pad"><stop offset="0%" stop-color="#F287B1"/><stop offset="100%" stop-color="#FFF"/></linearGradient><path fill="#FFF" fill-opacity="0" d="M0 320h284V0H0v320z" id="aO"/><path fill="url(#a)" d="M283.45 171.15q-2.4 0-4.4 1.7-2.4 2.5-3.95 3.95-7.85 7.6-12.2 22-3.7 12.25-4 25.9l-.1 86.9 10.45-6.4.05-79.5q.25-10.5 2.5-20.55 2.6-11.55 7.25-19.5 3.45-5.95 7.9-9.1 4.45-3.1 11.75-4.7-2.85-1.2-7.85-1.1-5.4.4-7.4.4z" id="aP"/><path fill="url(#b)" d="M360.2 231.3q0-8.35-19.7-14.3-19.7-5.9-47.35-5.9-27.75 0-47.4 5.9-19.7 5.95-19.7 14.3 0 8.4 19.7 14.35 19.65 5.9 47.4 5.9 27.7 0 47.35-5.9 19.7-5.95 19.7-14.35z" id="aQ"/><path fill="url(#c)" d="M317.85 230.65q0-12.9-7.05-23.75-7.15-11.05-16.35-11.3-9.2.25-16.4 11.3-7.05 10.85-7.05 23.75 0 12.45 7.3 19.75 6.6 6.6 16.15 6.6 9.5 0 16.1-6.6 7.3-7.3 7.3-19.75z" id="aR"/><path fill="url(#d)" d="M277.15 244.9q-.5 0-.8.4-.35.35-.35.85t.35.8q.3.35.8.35.55 0 .9-.35.35-.3.35-.8t-.35-.85q-.35-.4-.9-.4m-5.3-16.85q-.3-.35-.75-.4l-.1 2.45q1.15-.2 1.15-1.25 0-.5-.3-.8m5.3 5.65q-.5 0-.8.35-.35.35-.35.85t.35.8q.3.35.8.35.55 0 .9-.35.35-.3.35-.8 0-1.2-1.25-1.2m-.8-10.9q-.35.3-.35.8t.35.85q.3.4.8.4.55 0 .9-.4.35-.35.35-.85t-.35-.8q-.35-.35-.9-.35-.5 0-.8.35m.8-11.65q-.5 0-.8.4-.35.35-.35.85t.35.85q.3.35.8.35.55 0 .9-.35t.35-.85q0-.5-.35-.85-.35-.4-.9-.4m34.5 33.75q-.5 0-.85.4-.35.35-.35.85t.35.8q.35.35.85.35t.8-.35q.35-.3.35-.8t-.35-.85q-.3-.4-.8-.4m-5.6-4.5q-.5 0-.8.35-.35.3-.35.8t.35.85q.3.35.8.35.55 0 .85-.35.35-.3.35-.85 0-.5-.35-.8-.35-.35-.85-.35m5.6-6.7q-.5 0-.85.35t-.35.85q0 .5.35.8.35.35.85.35t.8-.35q.35-.3.35-.8t-.35-.85q-.3-.35-.8-.35m-4.75-4.25q-.3-.35-.85-.35-.5 0-.8.35-.35.35-.35.85t.35.8q.3.35.8.35t.85-.35q.35-.3.35-.8t-.35-.85m4.75-4.6q.5 0 .8-.4.35-.35.35-.85t-.35-.8q-.3-.35-.8-.35t-.85.35q-.35.3-.35.8t.35.85q.35.4.85.4m5.3 4.85q.35.4.85.4h.05q0-1.25-.15-2.45-.5.05-.8.4-.35.3-.35.8t.4.85m-16.8 16.1q-.5 0-.85.35-.4.35-.4.85t.4.85q.35.4.85.4t.85-.4q.35-.35.35-.85t-.35-.85q-.35-.35-.85-.35m-7-3.75q0 .5.4.85.35.35.85.35h.05q.5 0 .85-.35.4-.35.4-.85t-.4-.85q-.35-.4-.85-.4h-.05q-.5 0-.85.4-.4.35-.4.85m-9.65.35q.35-.3.35-.85 0-.5-.35-.8-.35-.35-.85-.35t-.8.35q-.35.3-.35.8t.35.85q.3.35.8.35.55 0 .85-.35m4.35 3.75q-.4.35-.4.85t.4.85q.35.4.85.4t.85-.4q.35-.35.35-.85t-.35-.85q-.35-.35-.85-.35t-.85.35m1.7-11.2q-.35-.4-.85-.4t-.85.4q-.4.35-.4.85t.4.85q.35.35.85.35t.85-.35q.35-.35.35-.85t-.35-.85m-6.05-3.85q.35-.3.35-.8t-.35-.85q-.3-.35-.85-.35-.5 0-.8.35-.35.35-.35.85t.35.8q.3.35.8.35t.85-.35m6.05-7.45q-.35-.35-.85-.35t-.85.35q-.4.4-.4.9t.4.8q.35.35.85.35t.85-.35q.35-.3.35-.8t-.35-.9m10.6 10.9q-.5 0-.85.4-.4.35-.4.85t.4.85q.35.35.85.35t.85-.35q.35-.35.35-.85t-.35-.85q-.35-.4-.85-.4m-5.75-2.6h.05q.5 0 .85-.35.4-.35.4-.85t-.4-.85q-.35-.4-.85-.4h-.05q-.5 0-.85.4-.4.35-.4.85t.4.85q.35.35.85.35m5.75-8.65q-.5 0-.85.35-.4.4-.4.9t.4.8q.35.35.85.35t.85-.35q.35-.3.35-.8t-.35-.9q-.35-.35-.85-.35m0-11.2q-.5 0-.85.35-.4.3-.4.8t.4.85q.35.35.85.35t.85-.35q.35-.35.35-.85t-.35-.8q-.35-.35-.85-.35m-7 7.35q0 .5.4.85.35.35.85.35h.05q.5 0 .85-.35.4-.35.4-.85t-.4-.8q-.35-.35-.85-.35h-.05q-.5 0-.85.35-.4.3-.4.8m-9.65.4q.35-.35.35-.85t-.35-.85q-.35-.35-.85-.35t-.8.35q-.35.35-.35.85t.35.85q.3.4.8.4t.85-.4m6.4-6.6q0-.5-.35-.8-.35-.35-.85-.35t-.85.35q-.4.3-.4.8t.4.85q.35.35.85.35t.85-.35q.35-.35.35-.85m-6.05-5.55q0-.5-.35-.85t-.85-.35q-.5 0-.8.35-.35.35-.35.85t.35.85q.3.35.8.35t.85-.35q.35-.35.35-.85m5.7-6.55q-.35-.35-.85-.35t-.85.35q-.4.35-.4.85t.4.85q.35.4.85.4t.85-.4q.35-.35.35-.85t-.35-.85m5.75 6.2q-.35-.35-.85-.35h-.05q-.5 0-.85.35-.4.3-.4.8t.4.85q.35.35.85.35h.05q.5 0 .85-.35.4-.35.4-.85t-.4-.8m4.85-6.55q-.5 0-.85.35-.4.35-.4.85t.4.85q.35.4.85.4t.85-.4q.35-.35.35-.85t-.35-.85q-.35-.35-.85-.35m5.9 17q-.5 0-.8.35-.35.35-.35.85t.35.85q.3.4.8.4t.85-.4q.35-.35.35-.85t-.35-.85q-.35-.35-.85-.35m4.75-4.55q.35.35.85.35t.8-.35q.35-.35.35-.85t-.35-.85q-.3-.4-.8-.4t-.85.4q-.35.35-.35.85t.35.85m-3.9-6.4q-.35-.35-.85-.35t-.8.35q-.35.35-.35.85t.35.85q.3.35.8.35t.85-.35q.35-.35.35-.85t-.35-.85z" id="aS"/><path fill="url(#e)" d="M294.45 195.6l-1.1.1q8.45 1 13.5 11.15 4.65 9.4 4.15 21.4-.55 12.45-6.6 19.95-6.9 8.6-18.8 7 11.15 4.65 21.25-1.85 11-7.1 11-22.7 0-12.9-7.05-23.75-7.15-11.05-16.35-11.3z" id="aT"/><path fill="#E8EDB0" d="M312.45 245.3q-.3-.4-.8-.4t-.85.4q-.35.35-.35.85t.35.8q.35.35.85.35t.8-.35q.35-.3.35-.8t-.35-.85m-.8-11.6q-.5 0-.85.35t-.35.85q0 .5.35.8.35.35.85.35t.8-.35q.35-.3.35-.8t-.35-.85q-.3-.35-.8-.35m6.15-5.7q-.1-.05-.1-.35-.5.05-.8.4-.35.3-.35.8t.4.85q.35.4.85.4h.05v-.5l-.05-.35V228m-6.15-5.55q-.4 0-.8.25 0 .05.15 1.9.25.25.65.25.5 0 .8-.4.35-.35.35-.85t-.35-.8q-.3-.35-.8-.35m-.85-9.2q.35.35.85.35t.8-.35q.35-.35.35-.85t-.35-.85q-.3-.4-.8-.4t-.85.4q-.35.35-.35.85t.35.85m-3.55-5.55q0-.7-.55-1l.55 1.15v-.15z" id="aU"/><path fill="url(#f)" d="M346.45 205.75q-7.9-4.3-19.45 1.55-11.3 5.75-17.65 16.65-6.05 10.55-3.45 20.4 2.4 8.8 10.45 13.5 8.1 4.65 16.9 2.3 9.8-2.6 15.9-13.15 6.35-10.95 5.7-23.6-.7-12.95-8.4-17.65z" id="aV"/><path fill="url(#g)" d="M325.35 257.45q3.35 1.2 5.9 1.65 1.95.3 3.95.45 1.55-.55 3.05-1.4-3.25.15-6.8-.4-3.15-.6-5.7-1.6-2.55-.95-5.6-2.65-5.55-3.2-9.5-7.9-3.8-4.6-5.35-9.7-.2 2.5-.1 3.7 2.05 4.45 5.65 8.3 3.75 4 8.6 6.8h.05q3.15 1.85 5.85 2.75m.4-13.55q3.05 1.75 5.8 2.75 3.15 1.1 5.9 1.6 5.7 1.05 10.95.05.6-.95.75-1.3l.25-.35q-5.55 1.3-11.7.2-3.1-.6-5.65-1.55-2.5-.85-5.65-2.6-6.5-3.75-10.7-9.5-4-5.5-4.9-11.45-.3.4-1.15 1.7 1.3 5.9 5.4 11.25 4.3 5.5 10.65 9.15l.05.05m18.25-7.85q-3.1-.55-5.7-1.55-3.35-1.35-5.6-2.7-5.75-3.25-9.7-8.1-3.8-4.65-5.35-9.9l-1.1 1.1q1.65 5.25 5.6 9.95 4.05 4.85 9.8 8.2 2.8 1.55 5.85 2.75 3.45 1.2 5.9 1.65 4.9.85 9.45.3l.35-1.45q-4.65.65-9.5-.25M338.95 221h-.05q-8.65-4.95-13-13.1l-1.2.65q4.55 8.55 13.55 13.6v.1q3.1 1.7 5.8 2.75 2.9 1 5.9 1.55 2.75.5 4.9.5v-1.35q-2.35-.1-4.6-.5-2.95-.55-5.7-1.5-3.35-1.35-5.6-2.7m11.35-6.9q2.65.9 2.95.95-.1-.45-.55-1.6-1.3-.4-1.85-.65-3.25-1.2-5.65-2.6l-.05-.05q-4.4-2.6-7.8-6-.8 0-1.7.25 4.05 4.3 8.85 6.95 2.75 1.65 5.8 2.75z" id="aW"/><path fill="url(#h)" d="M351.4 219.6q-.65 9.35-7 18.9-6.55 9.9-15.4 13.95-10.05 4.65-19.3-.45 7.3 9.4 19.05 8.85 12.75-.6 20.4-13.85 6.35-10.95 5.7-23.6-.7-12.95-8.4-17.65l-1-.45q6.65 4.2 5.95 14.3z" id="aX"/><path fill="url(#i)" d="M325.35 257.45q3.35 1.2 5.9 1.65 1.95.3 3.95.45 1.55-.55 3.05-1.4-3.25.15-6.8-.4-3.15-.6-5.7-1.6-3-1.25-3.8-1.65-2.55.15-2.65.15l.15.05h.05q3.15 1.85 5.85 2.75m28.15-21.1v-.05q-3.65.55-7.8 0l-.8 1.3q4 .55 8.25.15v-.25h.05v-.2l.05-.1v-.2q.1-.05.1-.15v-.05l.15-.45m1.35-9.3v-1.35q-2.2-.05-4.45-.45l-.35 1.3q2.75.5 4.8.5m-17.15 19.8l-.35-.05q-.3.35-1.35 1.15l1.45.3q5.7 1.05 10.95.05l.2-.35h.05l.1-.15.4-.8v-.05l.15-.2h.1v-.1q-5.55 1.3-11.7.2m15.55-31.95h-.05l-.05-.3v-.05l-.15-.3v-.05q-.1-.1-.1-.25l-.2-.4v-.1l-1.85-.65.35 1.6q1 .4 2.05.65v-.15z" id="aY"/><path fill="url(#j)" d="M331.5 213.55q5-4.8 12.15-5.85-17.3-.05-27.1 15.75-1.15 1.85-.75 3.6.4 1.6 1.8 2.3 3.6 1.8 5.95-3.5 3.55-8.05 7.95-12.3z" id="aZ"/><path fill="url(#k)" d="M323.95 224.85q-2.15-2.4-4.25-5.9l-.9 1.15q1.75 3.1 4.5 6.1l.25-.35.4-1m17.9-16.85l-.4-.3-2 .2.65.5 1.75-.4m-11.25 6.45q-.2-.2-2.4-2.85l-1.15.7q1.2 1.65 2.6 3.2l.95-1.05z" id="ba"/><path fill="url(#l)" d="M283.75 212.15q1.75-7.75 7.8-13.15-16.4 10.55-15.9 31.95.05 2.5 1.55 3.95 1.4 1.35 3.15 1.2 1.85-.2 2.85-1.9 1.15-1.95.6-5.2-1.6-9.95-.05-16.85z" id="bb"/><path fill="#FFF" d="M277.15 233.7q-.45 0-.7.2.65 1.05 1.75 1.65.2-.3.2-.65 0-1.2-1.25-1.2m1.25-10.1q0-.5-.35-.8-.35-.35-.9-.35-.8 0-1.05.75l-.1.55q.15 1.1 1.15 1.1.55 0 .9-.4.35-.35.35-.85m3.45-3.75q.3.4.8.4.15 0 .3-.1l.05-2.3-.35-.05q-.5 0-.8.35-.35.35-.35.85t.35.85m7.55-18.75q-.25-.25-.5-.25l-1.45 1.15q0 .5.45.95l1.5-1.85m-5.9 7.45q.35-.35.35-.85 0-.9-.85-1.15l-1.35 1.8q.3.55 1 .55.5 0 .85-.35m0 22.55q.35-.3.35-.8t-.35-.85q-.3-.35-.85-.35-.5 0-.8.35-.35.35-.35.85t.35.8q.3.35.8.35t.85-.35z" id="bc"/><path fill="url(#m)" d="M282.5 244.85q2.65-9.8-3.45-20.35-6.25-10.9-17.55-16.65-11.55-5.9-19.45-1.6-7.7 4.7-8.4 17.65-.7 12.65 5.6 23.6 6.1 10.55 15.9 13.15 8.8 2.35 16.9-2.3 8.1-4.7 10.45-13.5z" id="bd"/><path fill="url(#n)" d="M280.55 246.1q1.4-1.7 2.4-3.2.1-.6.35-3.3-1.4 2.7-3.8 5.6-2 2.3-4.2 4.1-2.4 2.1-5.05 3.55l-.05.05q-5.55 3.2-11.6 4.25-5.85 1.05-11-.15 1.65 1.25 3.1 1.9 10.25.9 20.2-4.75v-.1q2.6-1.4 5.35-3.65 2.1-1.75 4.3-4.3m-.7-20.25l-.95-1.65q-1.75 5.55-5.7 10.15-1.65 2.05-4.15 4.15-2.05 1.7-5.05 3.55h-.1q-6.45 3.75-13.45 4.55-6.8.75-12.45-1.45l.95 1.85q5.7 1.85 12.4.9 6.9-.95 13.3-4.65 2.1-1.15 5.3-3.65 2.3-1.95 4.35-4.3 3.85-4.6 5.55-9.45m2.6 6.7q-.15-.75-.65-2.15-1.7 4.95-5.4 9.4-1.55 1.8-4.2 4.1-2.35 1.95-5.1 3.55v.05q-6.45 3.7-13.45 4.5-6.75.75-12.35-1.4.75 1.15 1.6 2.05 5.65 1.55 12.05.6 6.7-1.05 12.8-4.6h.05q2.9-1.6 5.25-3.65 2.5-2.1 4.4-4.3 3.05-3.65 5-8.15m-30.7-27.85q-.55.65-1.45 1.25-2.75 2.3-5.1 3.6h-.05q-4.1 2.45-9.1 3.75l-.65 1.6q5.45-1.2 10.45-4.1l.05-.05q2.9-1.7 5.3-3.7 1.5-1.3 2.3-2.1l-1.75-.25m6.9 3.5l1.05-1.2q-.6-.35-1.4-.6l-.7.85q-1.85 2.3-4.2 4.2-1.95 1.7-5.05 3.5h-.05q-6.7 3.95-14.2 4.65l-.2 1.4q7.7-.6 15.1-4.8 2.85-1.65 5.25-3.7 2.15-1.7 4.4-4.3m17.95 12.55l-1-1.4q-1.7 5.2-5.5 9.6-1.6 1.95-4.15 4.15-2.75 2.15-5.1 3.55-6.25 3.55-12.95 4.45-6.55.85-12-1l.65 1.65q5.65 1.6 12.1.65 6.65-1 12.85-4.55h.05q3.3-2.05 5.25-3.7 2.25-1.8 4.4-4.25 3.75-4.6 5.4-9.15m-3.6-4.25l-1.1-1.1q-1.6 4.3-4.95 8.15-2 2.3-4.2 4.1-2.15 1.85-5 3.6h-.1q-5.7 3.3-11.85 4.3-6 1-11.25-.35.3 1 .35 1.5 5.45 1.2 11.5.15 6.25-1.05 12-4.4l.05-.05q2.9-1.7 5.25-3.65 2.4-1.95 4.35-4.35 3.1-3.5 4.95-7.9m-8.05 2.5q2.35-2.75 4.1-6.2l-1.1-.85q-1.75 3.35-4.1 6.2-1.45 1.8-4.15 4.1-2.55 2.1-5.15 3.5v.1q-10.25 5.85-20.8 4.4l.2 1.45q5.1.65 10.5-.5 5.65-1.2 10.75-4.2h.1q2.9-1.6 5.25-3.7 2.3-1.9 4.4-4.3m-.3-9.35l-1.15-.75q-1.25 2-2.75 3.75-1.85 2.2-4.15 4.2-2.15 1.75-5.15 3.5h-.05q-8.8 5.1-17.8 4.8l-.05 1.35q9.65.35 18.55-4.9h.1q2.6-1.55 5.25-3.7 2.65-2.25 4.3-4.3 1.85-2.2 2.9-3.95z" id="be"/><path fill="url(#o)" d="M269.3 224.4q5.3 10.65 4.45 20.35-1.05 11-10.05 16.45 11.8-1.6 17.2-12.05 5.85-11.4-1.85-24.65-6.25-10.9-17.55-16.65-11.55-5.9-19.45-1.6l-.95.65q6.95-3.65 15.35 2 7.75 5.25 12.85 15.5z" id="bf"/><path fill="url(#p)" d="M283.3 239.6q-1.4 2.7-3.8 5.6-2 2.3-4.2 4.1-1.25 1.1-3.3 2.55-.248.596-1.25 2.3h.15v-.1q2.6-1.4 5.35-3.65 2.1-1.75 4.3-4.3 1.4-1.7 2.4-3.2.1-.6.35-3.3m-3.75-14.25l-.65-1.15q-1.75 5.55-5.7 10.15l-.2.35.3 1.65 1-1.05q3.85-4.6 5.55-9.45-.2-.35-.25-.35v-.1l-.05-.05m2.9 7.2v-.1l-.65-2.05q-1.7 4.95-5.4 9.4l-2.55 2.7-.15 1.9q1.4-1.15 3.75-3.7 3.05-3.65 5-8.15m-28.95-27.6h-.25l-.65-.15h-.25v-.05h-.5l-.1-.05-1.45 1.25q.5.15 1.6.55l1.6-1.55m2.8 3.85l1.15.75 2.25-2.55-.3-.15h-.1l-.05-.1q-.15 0-.15-.05h-.05l-.3-.15q-.25 0-.35-.15h-.1l-2 2.4m19.3 10.65v-.1Q274 224 270.9 228l.6 1.5q3.25-4 5.1-8.75l-.15-.25v-.05h-.05v-.1h-.1l-.15-.2v-.05h-.05l-.1-.15-.05-.1-.35-.4m-3.6-4.05h-.1q-1.3 3.5-3.8 6.7l.7 1.35q2.6-3.15 4.2-6.95l-.15-.15v-.1h-.05l-.1-.1-.05-.1h-.1V216h-.05v-.1l-.15-.05v-.1h-.1q-.1-.2-.2-.25H272v-.1m-2.95-2.6l-.15-.15h-.1v-.05q-.05-.05-.2-.15l-.05-.05-.45-.3v-.1h-.05l-.1-.05q-1.15 2.4-3.15 5.05l.8 1.2q2.05-2.55 3.45-5.4m-5.5-3.8l-.05-.1q-1.35 2.1-2.65 3.6.35.4 1 1.05 1.65-1.95 2.8-3.9v-.1h-.1l-.4-.25h-.1q-.05-.1-.15-.1v-.05q-.05-.05-.35-.15z" id="bg"/><path fill="url(#q)" d="M247.95 243q3.3-2.2-.1-6.85-5.1-7.05-6.55-13-1.65-6.75.95-13.5-8.7 15.05.05 31.3 1.05 1.9 2.75 2.45 1.6.45 2.9-.4z" id="bh"/><path fill="#FFF" d="M237.95 224.9v1.45q2.35-.25 4.1-.7l-.45-1.3q-1.1.25-3.65.55m3.2-11.8l.45-1.75-.35.15q-.55 1.05-.85 1.9.5-.25.75-.3m-2.85 7.25q2.15-.55 2.35-.6l-.05-1.45-2 .55-.3 1.5m6.35 10.8l-.75-1.25q-2.3.5-5.45.6l.35 1.4q3.4-.2 5.85-.75m3.2 5l-.55-.85q-3.8.75-7.3.6l.6 1.45q3.85 0 7.55-.85 0-.05-.3-.35m.8 6.25q.55-.65.75-1.5-3.6.6-6.85.4.45.85 1.3 1.45 2.9 0 4.8-.35z" id="bi"/><path fill="#512628" d="M352.7 275.8q1.4-17.5 2.25-23.8l-61.6 7.3L231 252q.7 5.2 1.85 19.6 1.35 13.8 3.85 22.3.55 1.8 1.85 4.2 1.9 3.6 2.05 3.9 3.95 8.4 10.85 12.15 5.1 2.8 15.95 4.65 9.7 1.7 20.4 2.3 11.6.65 20.55-.2l3.3-.35q.45-.05 3.25-.55 1.15-.2 5.1-1.65 4.15-1.45 5-1.65 8-1.8 12.55-4.7 5.75-3.65 8.95-10.7 4.3-9.25 6.2-25.5z" id="bj"/><path fill="#8C3C29" d="M317.15 257.15l-19.55 2.3q4.05 3.2 10.9 8.25 4.15-3.25 10.8-8.95l-2.15-1.6z" id="bk"/><path fill="url(#r)" d="M267.3 258.75l-2.45-2.15-22.4-2.6q-.1 0-.5.3 6.3 5.9 13.9 12.45 3.35-2.3 11.45-8z" id="bl"/><path fill="#8C3C29" d="M269.3 257.1q6.75 5.7 12.9 10.6 5.45-4 10.4-7.85l-23.3-2.75z" id="bm"/><path fill="url(#s)" d="M240.95 255l-5.4-.55 2.6 2.45 2.8-1.9z" id="bn"/><path fill="url(#t)" d="M237.2 295.9l1.75-.95q-1.8-1.5-2.7-2.2l.95 3.15z" id="bo"/><path fill="url(#u)" d="M343.35 253.5l-.45.4q1.45.95 6.1 4.25 3.8 2.7 6.2 4.2l1.75-16.25-13.6 7.4z" id="bp"/><path fill="url(#v)" d="M349.95 294.05q.85-2.75 1.55-5.7l-4.65 3.9 3.1 1.8z" id="bq"/><path fill="url(#w)" d="M306.75 318.35q1.1-2.5.25-3-1-.6-5.75-.45-4.75.15-5.8-.5-2.65 1.9-3.8 2.15-.95.3-3.85.55-2.2.2-3.5 1-.4.25-.25 1.8.15 1.55-.25 1.8 10.95.7 22.8-.3-.9-.55.15-3.05z" id="br"/><path fill="url(#x)" d="M306.6 321.4q4.95-.5 7.65-.9 2.6-1.75 7.65-5.35l-2.4-1.4q-1.05-.6-1.95-3.45-.95-2.95-1.95-3.55-1-.6-4.1-.1-3.15.45-4.15-.15-1.6-1-2.3-1.55-1 .7-4.55.9-3.6.15-4.55.8-.95.7-1.3 3.2-.3 2.55-1.3 3.2 8.25 5.4 13.25 8.35z" id="bs"/><path fill="url(#y)" d="M299.1 296.7q-2.75-.3-3.65-.95l-2.5 1.75q-.9.6-4.45.65-3.55 0-4.5.65-.9.6-1 3-.15 2.4-1.1 3.05l-2.5 1.55q.75.5.75 3.5.05 3 .75 3.5 1.25.85 5.15.5 3.9-.3 5.15.5 7.85-5.1 15.8-10.8-1.05-.7-2.15-2.95-1.1-2.35-2.1-3-.9-.6-3.65-.95z" id="bt"/><path fill="url(#z)" d="M259.4 318q2.8.85 8 1.75 5.75.95 10.3 1.4-1.05-.7-.9-3.1.1-2.45-.95-3.2-.7-.5-4.35-.55-3.65-.05-4.4-.55-5.1 2.9-7.7 4.25z" id="bu"/><path fill="url(#A)" d="M283.8 321.7q5.55-3.35 9.55-5.95-8-5.05-15.95-10.7-4.8 3.05-12.1 7.4 4.85 3.6 12.4 8.7 2.15.25 6.1.55z" id="bv"/><path fill="url(#B)" d="M249.65 295.55q-.8-.7-4.1-.95t-4.15-1q-2.8 1.6-4.2 2.3 1.25 3.8 2.45 6.35 1.45 2.95 3.25 5.55l9.35-5.3q-1-.8-1.3-3.45-.35-2.7-1.3-3.5z" id="bw"/><path fill="url(#C)" d="M266.1 296.7q-6.2-4.7-14.5-11.6-4.6 2.9-11.85 7.15 8.1 6.8 14.25 11.55 8.3-4.75 12.1-7.1z" id="bx"/><path fill="url(#D)" d="M304.45 286.1q-5.45 4.25-11.1 8.2 5.4 3.9 15.85 10.75.9-.65 6.45-.4 5.55.3 6.45-.4 1-.75-.8-3.75-1.75-3.1-.8-3.8-7.7-4.85-16.05-10.6z" id="by"/><path fill="url(#E)" d="M343.4 256.8q-.3-.2-4.25-2.8l-19.55 2.3q8.85 6.3 13.8 9.6 6.9-6.1 10-9.1m1.45 16.5l8.4 5.2q.9-6.05 1.75-14.3l-.15-.1q-4 3.8-10 9.2z" id="bz"/><path fill="url(#F)" d="M330 296.25q-1-.6-3.8-.5-2.85.05-3.8-.5-9.05 6.95-15.15 11.15l4.55 2.8q3.1 2 7.7 4.55 8.1-5.8 14.9-11.25-1.05-.6-2.2-3.1-1.2-2.55-2.2-3.15z" id="bA"/><path fill="url(#G)" d="M347.75 294.95q-9.2-5.1-16.8-9.85-5.25 4.45-10.8 8.7 8.85 5.65 16.65 10.1 5.4-4.25 10.95-8.95z" id="bB"/><path fill="url(#H)" d="M231.6 264.3q.05.05.3 0 3.85-2.45 11.3-7.5l-4.1-3.8-9.45-6.9 1.95 18.2z" id="bC"/><path fill="url(#I)" d="M272.7 296.15q-3.45-.25-4.3-.9-8.15 5.05-16.85 9.95 3.65 2.95 11.35 8.65 9.85-5.8 16.7-10.25-1-.75-1.25-3.25-.3-2.55-1.3-3.3-.85-.65-4.35-.9z" id="bD"/><path fill="url(#J)" d="M267.25 277.6q-4-3.1-14-11.7-5.4 3.6-11.45 7.4 7.25 6.4 13.85 11.8 1.1-.65 5.5-.4 4.35.3 5.45-.45.85-.55.35-3.3t.3-3.35z" id="bE"/><path fill="url(#K)" d="M280.2 284.65q-1.15-.9-1.4-4.15-.25-3.25-1.4-4.1-.65-.55-4-.1-3.35.4-4-.15-7.4 5-16.05 10.4 1.65 1.4 10.85 8.7 7.35-4.6 16-10.6z" id="bF"/><path fill="url(#L)" d="M278.7 266.8q-5.25 3.85-11.2 7.85 6.55 5.45 14.65 11.45.95-.65 4.9-.45 3.85.2 4.8-.5.95-.65.75-3.45-.15-2.9.75-3.6-8.95-6.6-14.65-11.3z" id="bG"/><path fill="url(#M)" d="M280 287.6q.95.7 1.3 4.5.35 3.8 1.25 4.45.95.7 4.35-.4 3.45-1.05 4.4-.4 7.25-5.15 15.2-11.1-1.05-.7-1.25-3.55-.15-2.9-1.1-3.55-.9-.65-4.4-.45-3.5.2-4.35-.4-7.7 5.6-15.4 10.9z" id="bH"/><path fill="url(#N)" d="M278.05 286.1q-5.65 3.95-11.55 7.7 8.15 6.25 15.15 11.15l11.7-7.75q-7.85-5.4-15.3-11.1z" id="bI"/><path fill="url(#O)" d="M304.1 266.8q-8.55 6.75-10.75 8.35 6.85 5.2 15.2 10.95.9-.65 4.45-.6 3.55.1 4.4-.6.95-.75 1.05-3.6.1-2.95 1-3.7-8.95-5.95-15.35-10.8z" id="bJ"/><path fill="url(#P)" d="M332.75 283.65q-1-.6-1.8-3.15-.75-2.6-1.65-3.2-1-.6-4.05-.55-3 .05-4-.6-6.4 5.25-14.65 11.45 6.7 4.55 11.7 7.65 6.3-4.8 14.45-11.6z" id="bK"/><path fill="url(#Q)" d="M345.45 276.15q-7.3-4.45-15.95-10.2-5.5 4.85-10.45 8.7 7.7 5.25 15.95 10.45.9-.75 4.45-1.1 3.5-.4 4.4-1.2.85-.75.8-3.3 0-2.65.8-3.35z" id="bL"/><path fill="url(#R)" d="M232.05 267.8q.75 7.55 1.65 12.85 6.55-3.9 7.45-4.5-3.05-2.75-9.1-8.35z" id="bM"/><path fill="url(#S)" d="M355.05 263.95l-10.2 9.35 8.4 5.2q.65-4.35 1.8-14.55z" id="bN"/><path fill="url(#T)" d="M259.4 318q4.45-2.35 5.3-2.85-7.3-5.3-14.9-11.25-2.2 1.3-6.9 3.9 3.05 4 7.35 6.55 3.75 2.2 9.15 3.65z" id="bO"/><path fill="url(#U)" d="M255.35 264.45q-6.95-6.15-10-9-6.45 4.3-13.75 8.75l.45 3.6q2.45 2.35 7.55 6.95 7.55-4.75 15.75-10.3z" id="bP"/><path fill="url(#V)" d="M305.95 265.35q-4.15-3-8.45-6.45l-4.15.4-.75-.05q-4.65 3.6-12.05 9.05 3.45 2.85 10.8 8.4 3.75-2.8 14.6-11.35z" id="bQ"/><path fill="url(#W)" d="M343.2 274.75q2.65-2.35 11.85-10.8.1-1.4.15-2.05-6.8-4.4-10.15-6.55-7.75 7.15-13.35 12.05 6.65 4.4 11.5 7.35z" id="bR"/><path fill="url(#X)" d="M314.25 320.5l5.05-.75q5.8-1 10.5-2.45l-6.05-3.45q-3.5 2.55-9.5 6.65m35.7-26.45l-.65-.45q-4.4 3.8-14.15 11.6l7.4 4q2.35-2.7 4.4-6.95 1.5-3.2 3-8.2z" id="bS"/><path fill="url(#Y)" d="M329.8 317.3q-.5-.3-.55-1.75-.1-1.5-.6-1.8-.5-.25-2.45.05-1.95.35-2.45.05-3.5 2.55-9.5 6.65l5.05-.75q5.8-1 10.5-2.45z" id="bT"/><path fill="url(#Z)" d="M329.8 317.3q8.1-2.7 12.75-8.1-5.7-2.95-9.85-5.4-4.75 3.75-11.3 8.65l8.4 4.85z" id="bU"/><path fill="url(#aa)" d="M253.9 283.65q-1-.85-1.55-3.15-.6-2.35-1.55-3.2-.75-.7-3.7-1.3-2.9-.6-3.6-1.25l-9.8 5.9q1 6.4 2.55 12.1l1.1.85q8.15-4.6 16.55-9.95z" id="bV"/><path fill="url(#ab)" d="M280.7 265.35q-5.9-4.65-10.45-8.6-6.4 4.65-15.35 10.65l10.45 8.75q8.75-6 15.35-10.8z" id="bW"/><path fill="url(#ac)" d="M320.15 256.65q-6.75 5.9-14.05 11.65 4.65 3.5 11.15 7.85 8.15-6.6 14-11.7-7.5-5.2-11.1-7.8m23.2-3.15l-4.2.5 2.15 1.45 2.05-1.95z" id="bX"/><path fill="url(#ad)" d="M347.1 274.75q-8.6 7.5-13.85 11.8 4.9 3.05 12.05 7.05l6.2-5.25q.8-3.8 1.75-9.95l-6.15-3.65z" id="bY"/><path fill="url(#ae)" d="M251.6 285.1q-3.25 2.1-5.3 3.3 2.15 7.65 4.8 13.2 1.2 1 2.9 2.2l1.95-1.05q-1.65-7.8-1.95-15.7l-2.4-1.95z" id="bZ"/><path fill="url(#af)" d="M241.7 255.45l.05 2.3 1.45-.95-1.5-1.35z" id="ca"/><path fill="url(#ag)" d="M243.05 272.5q.15.7.3 2.15 5.3 4.65 10.5 9-.15-8.3.8-16.55-.95-.8-1.4-1.2-7.25 4.75-10.2 6.6z" id="cb"/><path fill="url(#ah)" d="M258.9 313.55q-.3-.8-1.15-3.55l-3.5-2.65q1.85 3 4.65 6.2z" id="cc"/><path fill="#CEB7B1" d="M252.25 302.5q-.8-.6-1.15-.9l.6 1.2.55-.3z" id="cd"/><path fill="#CEB7B1" d="M254 287.05l-.1-.85-.55.35.65.5z" id="ce"/><path fill="url(#ai)" d="M255 264.15l-9.65-8.7q-.95.55-3.6 2.3.35 8.35 1.3 14.75 5.7-3.55 11.85-7.75.1-.25.1-.6z" id="cf"/><path fill="url(#aj)" d="M253.85 283.75v-.1q-7.2-6.1-10.35-8.9l-.1.05q.95 6.65 2.9 13.6l7.55-4.65z" id="cg"/><path fill="url(#ak)" d="M257.75 310q-.95-3.15-1.8-7.25-.65.35-3.35 1.85l1.65 2.75 3.5 2.65z" id="ch"/><path fill="#773E3C" d="M327.8 267.55q17.35-2.9 27.7-8.25.9-3.75 1.35-5.85.8-3.8-.5-3.65l-63 9.65-63.05-9.65q.3 2.25.85 9.75 9.75 5.15 26.65 8 16.1 2.7 34.85 2.7 18.85.05 35.15-2.7z" id="ci"/><path fill="url(#al)" d="M360.9 247.15l1.5-14.45q-1.05 7.9-21.45 13.75-20.35 5.85-46.7 5.9h-2.15q-26.4-.05-46.75-5.9-20.45-5.85-21.45-13.75l1.45 14.15q.55 5.25 1.2 6.35.85 1.45 5.25 3.55 12.3 5.7 30.45 8.4 14.85 2.25 30.9 2.15 16.15.1 31.15-2.2 18.3-2.8 30.65-8.6 4.05-1.9 4.85-3.35.6-1 1.1-6z" id="cj"/><path fill="url(#am)" d="M354.95 262.15q.15-.25.5-.3l1.05-12.75q-8.35 5.65-25.75 9.25-16.8 3.5-35.95 3.8-23.3.3-45.15-5.4-24.266-6.339-25.75-15.8l1.45 11.55q.55 5.25 1.2 6.3.85 1.45 5.25 3.55 24.8 11.45 61.6 11.45 36.95 0 61.55-11.65z" id="ck"/><path fill="url(#an)" d="M225.6 246.55q-.133-.931-.25-2.05l-1.45-2q.276 2.1 1.7 4.05m129.35 7.5q.35-.15.5-.2l1.05-3.15q-8.4 5.75-25.75 9.3-16.9 3.5-35.95 3.7-23.25.35-45.15-5.35-19.084-4.946-24.05-11.8.438 3.424.95 4.25.9 1.5 5.25 3.5 24.8 11.5 61.6 11.45 36.9-.05 61.55-11.7z" id="cl"/><path fill="url(#ao)" d="M225.55 252.55q-.085-.902-.2-2l-1.45-2.05q.276 2.108 1.65 4.05m129.4 7.65l.5-.3 1.05-3.1q-8.4 5.7-25.75 9.3-16.85 3.5-35.95 3.75-23.3.3-45.15-5.4-19.093-4.988-24.1-11.9.486 3.47 1 4.3.85 1.45 5.25 3.55 24.8 11.55 61.6 11.5 36.9-.05 61.55-11.7z" id="cm"/><path fill="url(#ap)" d="M359.9 227.85q.95 6.6-4.4 10.9-6.55 5.3-23.55 8.6-17.3 3.4-38.8 3.4-23.55 0-41.7-3.95-17.95-3.95-22.6-9.95-1.75-2.3-1.95-5.2-.2-3 1.3-5.9-4.5 3.8-4.5 7.6 0 8.8 20.4 15.05t49.05 6.25q21.35 0 36.15-2.65 11.4-2.15 19.75-5.85 8.15-3.6 11.5-7.8 4.1-5.05-.65-10.5z" id="cn"/><path fill="url(#aq)" d="M317.4 188.4q-5.75-12.1-13.1-16.65-3.3-2.05-9.4-2.05-6.7.45-9.25.5 6.8 1.7 11.1 5.8 4.2 4 8.55 12.7 11.95 23.95 11.45 75.8 4.55-.45 11.4-1.5.45-50.9-10.75-74.6z" id="co"/><path fill="#DECEC8" d="M266.75 190.7q3.05-7.35 6.95-12 3.3-3.95 6.95-5.55 3.5-1.65 7.2-1.1 3.35.5 6.8 2.9 4.55 3.1 8.1 9.35v.05q1.5 2.85 2.85 6 .85 1.85 2.45 6.4 2.6 7.6 4.45 16.4 1.5 6.95 2.05 12.2.95 10.15 1.45 22.4.35 10.55.35 22.4h2q0-13.7-.35-22.5-.25-9.9-1.45-22.45-.5-5.2-2-12.4-1.9-8.9-4.55-16.6-1.35-3.85-2.5-6.55-1.9-4.2-2.9-6.05l-.05-.1q-3.45-6.4-8.6-10.05-3.9-2.7-7.85-3.2-4.35-.65-8.4 1.25-4.05 1.8-7.65 6.05-4.15 5-7.35 12.9-2.8 6.95-4.45 15l-.3 1.6 1.9 1q.15.1.65-3.35 1.65-7.6 4.25-14z" id="cp"/><path fill="url(#ar)" d="M231.05 245.9l.55-2.9q-6.085 1.356-.55 2.9m17.55 15.5q12.55-8.7 27.4-10.45l5.85-.55q-21.25 0-40.25-2.55-7.26-.998-10.55-1.95l-5.65 32q-.4 2 .05 5.45.5 3.6 1.55 6 .35.75.9.8.4.05.75-.25.3-.2.55-1.35.8-2.85 1.25-4.15 4.65-13.6 18.15-23z" id="cq"/><path fill="url(#as)" d="M248 258.9q15.353-9.448 33.85-8.4-18.627-1.564-23.5-2.45-13.3-2.4-23.65-8.6-6.35-3.8-6.35-8.9 0-4.75 5.4-8.5l.1-.65q-16.3 7.95-15.95 31.6.3 18.7 9.15 36.55.85-8.45 6.55-16.8 5.75-8.5 14.4-13.85z" id="cr"/><path fill="url(#at)" d="M352.55 240.55q-5.9 3.4-16.75 6.05 10.45-.9 18.2 4.65 8.55 6.2 10.6 18.3 3.35-12.15 3.1-21.45-.45-17.75-12.9-25.55l.05 1.4q5.2 4.5 4.15 9.15-.9 4.2-6.45 7.45z" id="cs"/><path fill="#F0A934" d="M363.7 249.4q.65-.65.65-1.1 0-.35-.3-.55-.15-.25-.55-.25-.2 0-.35.15-.25.2-.35.3l-.4 1.2q-.2.9-.75 2.1l-.75-2q-.2-.95-.4-1.3l-.3-.3-.45-.15q-.2 0-.55.25-.3.3-.3.55 0 .3.2.5.1.25.5.65l1.75 1.95q-1.1-.05-2.25-.35-.75-.2-1.15-.2-.45 0-.65.2-.3.3-.3.55 0 .45.3.65.25.25.65.25l1.25-.3q.9-.25 2.15-.35l-2.25 2.6q-.2.15-.2.5 0 .25.3.55.35.25.55.25.15 0 .45-.15l.3-.3.4-1.1q.35-1.35.75-2.2.7 1.75.75 2.2l.4 1.1q.1.1.35.3.15.15.35.15.4 0 .55-.25.3-.2.3-.55 0-.35-.15-.5L363 253q-.65-.75-1-1.15.85.05 2.15.35l1.2.3q.5 0 .65-.25.25-.15.25-.65 0-.3-.25-.55-.15-.2-.65-.2l-1.2.2q-1.15.3-2.15.35.85-1.15 1.7-2z" id="ct"/><path fill="url(#au)" d="M252.6 246.75q-4.3-1.15-6.25-1.85-9.75 4.2-13.8 15 3.65-6.65 8.9-9.85 4.65-2.8 11.15-3.3z" id="cu"/><path fill="url(#av)" d="M238.85 241.75l-3.2-1.7q-9.4 7.75-11.75 21 2.3-7.25 6.15-12.05 3.55-4.45 8.8-7.25z" id="cv"/><path fill="url(#aw)" d="M322.4 259.95q-13.35 7.45-17.15 19.55-3.2 10.25-1.45 32l5.55-10.35 6.05 8.35q-1.95-21.25 3.05-31.55 4.05-8.4 18.25-18.35l-14.3.35z" id="cw"/><path fill="url(#ax)" d="M327.2 264.5h-3q-8.35 6.55-11.1 17.55-2.15 8.55-1.3 22.4l1.95 2.75q-1.6-15.95 1.8-26.7 3.35-10.9 11.65-16z" id="cx"/><path fill="url(#ay)" d="M319.85 265.3l-3-.05q-8.9 6.5-11.35 18.9-1.75 8.9-.45 25.15l1.3-2.45q-1.45-16.6 2.05-26.85 3.3-9.8 11.45-14.7z" id="cy"/><path fill="url(#az)" d="M324.85 274.45q6 7.75 7.4 25.5l4.2-7.8 6.55 7.65q-1.55-18.1-6-26.05-5.25-9.4-18.3-13.5l-13 1.95q14.25 5.95 19.15 12.25z" id="cz"/><path fill="url(#aA)" d="M334.75 295.25q-1.2-11.5-4.45-18.25-4.1-8.65-12.6-12.8l-2.65.55q8.2 2.95 12.85 11.35 4.6 8.35 5.5 21.65l1.35-2.5z" id="cA"/><path fill="url(#aB)" d="M337.45 277.55q-4.05-9.8-13.05-13.75l-2.65.4q8.05 2.85 12.5 10.4 4.65 7.85 5.8 21.75l1.5 1.8q-1.2-13.5-4.1-20.6z" id="cB"/><path fill="url(#aC)" d="M299.65 244.65q-3.6-2.6-7.15-1.9-3.6.8-6.35 4.35l-7.05 9.55 13.55 12.6 25.25-2.1 1.4-6.75q-4.75.4-7.7-2.45-3.25-4.2-5.4-6.75-4-4.75-6.55-6.55z" id="cC"/><path fill="url(#aD)" d="M279.1 256.8q-2.3 2.8-.8 7.3 1.6 4.75 6.45 7.75 5.75 3.65 17 2.35 9.25-1.1 14.8-4l1.75-6q-6.95 3.15-14.25 1.2-6.45-1.75-12.6-7.25-3.2-2.8-6.8-3.2-3.65-.4-5.55 1.85z" id="cD"/><path fill="url(#aE)" d="M280.2 258.45q-1.6 2.15-.3 5.5 1.45 3.7 5.7 6.4 5.5 3.5 16.5 2.25 8.1-.9 15.45-3.65l-1.8-2.65q-6.8 2.25-12.7.8-5.65-1.45-11.55-6.55-3.75-3.3-7-3.65-2.8-.3-4.3 1.55z" id="cE"/><path fill="url(#aF)" d="M282.7 251.75l-1.8 2.45q1.8-1 3.6-.95 2.3.05 5.2 1.75 1.8 1.05 5 3.6t5.05 3.65q6.6 3.9 16.45 2.75l1.3-1.7q-9.3 1.3-15.8-2.05-2.25-1.15-5.55-3.65-4.4-3.3-5.8-4.2-3.6-2.3-7.65-1.65z" id="cF"/><path fill="url(#aG)" d="M288.9 244.05l-1.95 2.05q2.65-.75 3.75-.8 2.5-.1 5.6 1.45 3.85 1.9 9.4 9 4.95 6.3 9.15 7.25 2 .5 3.85.2l2.35-.05q-.91-.042-2.35-.7-1.9-.9-2.5-.95-3.3-.2-6.9-4.1-3.95-4.9-5.85-7.1-3.4-3.8-6.75-5.3-3.65-1.7-7.8-.95z" id="cG"/><path fill="url(#aH)" d="M344.65 240.55q-3.3-.05-6.2 2.85-2.1 2.1-4.95 7-2.5 5.15-3.85 7.05-2.25 3.1-6.7 3.45l2.4 6 23.4-2.15 10.35-13.65-8-7.6q-3.1-2.85-6.45-2.95z" id="cH"/><path fill="url(#aI)" d="M361 257.75q.65-4.35-1.9-6.55-2.05-1.7-5.3-.75t-5.7 4q-4.9 6.05-10.45 8.6-6.35 2.95-13.15 1.15l2.5 5.2q5.45 1.8 14.15 1.35 10.45-.6 15.2-4.85 3.9-3.55 4.65-8.15z" id="cI"/><path fill="url(#aJ)" d="M359.5 257.85q.65-3.3-1.2-4.95-1.6-1.5-4.1-.75-2.9.85-5.8 4.45-4.55 5.65-9.55 7.85-5.2 2.25-11.8 1.3l-1.15 2.7q7.15 1.3 14.75.85 10.25-.65 14.7-4.7 3.45-3.2 4.15-6.75z" id="cJ"/><path fill="url(#aK)" d="M353.65 248.85q1.6-.3 3.45.3l-2.1-1.9q-3.75 0-6.7 2.7-5.85 6.5-9.1 8.95-5.45 4.1-14.15 4.4l1.45 1.35q9.2-.6 14.6-5.2 3.1-2.6 8.05-8.2 2.4-1.95 4.5-2.4z" id="cK"/><path fill="url(#aL)" d="M350.2 242.7q-.65-.6-2.1-1.5-7.25-.15-12.25 7.95-2.7 5.1-4.25 7.45-2.65 4.15-5.6 4.8-.6.15-2.2 1.3-1.215.838-2.05 1.05l2.15-.4q1.9-.05 3.6-.8 3.65-1.5 7.15-8.05 3.95-7.3 7.2-9.7 2.6-1.9 4.85-2.25 1.2-.2 3.5.15z" id="cL"/><path fill="url(#aM)" d="M326.25 271.15q.95-.1 1.6-.85.65-.75.6-1.7l-.4-3.95q-.2-2.6-2.25-4.25-2.05-1.7-4.7-1.45l-2.1.15q-2.65.25-4.35 2.25-1.75 2-1.55 4.6l.35 3.95q.1 1 .85 1.6.75.6 1.7.5l10.25-.85z" id="cM"/><path fill="url(#aN)" d="M325.4 262.95q1.745 1.604 2 4l-.1-1.35q-.2-2.6-2.05-4.3-1.85-1.65-4.25-1.45l-1.8.1q-2.35.25-3.85 2.2-1.5 2-1.3 4.6l.1 1.45q-.09-2.478 1.35-4.35 1.5-2 3.85-2.2l1.8-.15q2.4-.2 4.25 1.45z" id="cN"/><path fill="#FDBD33" d="M250.7 252.4q0-.4-.25-.65-.45-.15-.65-.15l-1.2.25q-1.15.3-2.15.35 1.05-1.4 1.7-2 .65-.65.65-1.1 0-.4-.2-.6-.5-.2-.65-.2-.3 0-.35.15l-.4.3-.35 1.2q-.2.9-.8 2.05l-.7-1.95q-.25-1-.45-1.3l-.25-.35q-.15-.1-.4-.1-.15 0-.65.2-.2.3-.2.6 0 .35.15.5.05.15.5.6l.7.85q.15.1 1.05 1.15-1.05-.05-2.2-.35l-1.2-.25q-.4 0-.65.25-.2.2-.2.55 0 .45.2.65.25.15.65.15l1.2-.2q.65-.25 2.2-.35l-1.05 1.15q-.4.55-.7.75l-.5.65q-.15.15-.15.55 0 .25.2.55.35.2.65.2.25 0 .4-.15.15-.1.25-.35.2-.2.45-1 .35-1.35.7-2.25.75 1.75.8 2.2l.35 1.05q.35.35.4.35.1.15.35.15.35 0 .55-.2.3-.25.3-.55 0-.3-.15-.6l-.5-.6q-.55-.55-.7-.75l-1-1.15q.9.05 2.15.35l1.2.2q.45 0 .65-.15.25-.25.25-.65z" id="cO"/><path fill="#EE9D35" d="M230 265.35q0-.2-.3-.5-.4-.2-.55-.2-.3 0-.45.1-.15.05-.25.35-.25.35-.45 1.15-.1.4-.75 2.05-.45-.9-.7-2l-.45-1.2q-.2-.3-.35-.35-.05-.1-.35-.1-.35 0-.55.2-.3.2-.3.5t.15.6q.15.15.5.55.25.4.8.9.25.35.9 1.15l-2.15-.35q-.65-.3-1.2-.3-.45 0-.65.2-.25.25-.25.65 0 .45.25.6.2.2.65.2.5 0 1.3-.3 1.3-.3 2.05-.35l-.9 1.25q-.15.1-.8.75l-.5.6q-.15.3-.15.55 0 .4.3.5.15.25.55.25.3 0 .35-.1.15-.05.35-.35.2-.3.4-1.05l.75-2.2q.55 1.35.8 2.2.15.7.4 1.05.1.3.25.35.15.1.45.1.2 0 .55-.25.3-.2.3-.5t-.2-.55l-1.25-1.35q-.65-.75-1-1.25 1.9.3 2.25.45.75.2 1.15.2.45 0 .65-.2.3-.2.3-.6 0-.35-.3-.65-.2-.2-.65-.2-.5 0-1.15.3l-2.25.35 1.8-2.05q.65-.6.65-1.15z" id="cP"/><path fill="#FDBD33" d="M222.5 238q-.2.3-.2.5 0 .4.15.6.05.1.5.55l1.75 2.05q-1-.1-2.25-.4-.75-.25-1.15-.25-.45 0-.65.2t-.2.65q0 .45.2.6.3.2.65.2l1.2-.3q1.25-.3 2.2-.35l-1.75 2q-.2.25-.5.6-.15.2-.15.55 0 .2.2.5.4.25.65.25.3 0 .4-.1.15-.05.25-.35.25-.25.45-1.1l.7-2.15q.75 1.55.8 2.15l.35 1.1q.35.35.4.35.05.1.35.1t.55-.25q.3-.2.3-.5t-.15-.55l-1.2-1.4q-.55-.55-1-1.2 2.05.4 2.15.45l1.2.2q.35 0 .65-.2.25-.25.25-.6 0-.4-.25-.65-.2-.2-.65-.2-.4 0-1.2.25l-2.15.4q.6-.8 1.7-2.05.65-.6.65-1.15 0-.3-.3-.5-.2-.2-.55-.2l-.35.05-.4.4-.35 1.15q-.2.95-.8 2.05l-.7-2q-.25-1.05-.45-1.2-.1-.3-.25-.4l-.4-.05q-.3 0-.65.2z" id="cQ"/><path fill="#F3A935" d="M233.75 256q0-.5-.2-.55-.25-.25-.65-.25l-1.25.25q-1.05.3-2.15.35 1.35-1.6 1.8-2 .6-.75.6-1.1 0-.4-.25-.55-.35-.25-.65-.25-.2.1-.35.15l-.3.3-.4 1.2q-.1.45-.75 2.05-.35-.65-.75-1.95-.2-.95-.4-1.3l-.35-.3q-.15-.15-.35-.15-.35 0-.6.25-.25.15-.25.55 0 .35.15.5l.5.6q.1.2.75.85.85.95.95 1.15-1.1-.05-2.15-.35l-1.2-.25q-.5 0-.65.25-.25.25-.25.55 0 .4.25.65.1.15.65.15l1.2-.2q.65-.25 2.15-.35l-2.2 2.55q-.15.15-.15.5 0 .4.2.6.25.2.65.2.3 0 .35-.15.2-.05.35-.35l.4-1q.15-.8.75-2.25l.8 2.25q.1.55.35 1 .2.3.3.35.25.15.35.15.4 0 .65-.2.25-.25.25-.6t-.15-.5l-.5-.65-1.75-1.9q1.15.05 2.15.35l1.25.2q.5 0 .65-.15.2-.2.2-.65z" id="cR"/><path fill="#FDBD33" d="M364.65 233.85v.05q-.25.45-.45 1.25l-.7 2q-.55-1-.7-2l-.45-1.25-.35-.35-.35-.05q-.4 0-.6.2-.3.25-.3.5t.15.55l2.25 2.6q-1.1-.05-2.15-.35-1.2-.3-1.25-.3-.4 0-.65.25-.2.2-.2.65t.2.65l.65.1 1.3-.2q1.1-.35 2.1-.4l-.95 1.2-.8.8-.5.65q-.15.45-.15.5 0 .35.3.55.25.25.6.25l.35-.15.35-.35.35-1.1q.4-1.25.8-2.15l.8 2.15q.05.6.35 1.1.1.25.3.35l.35.15q.35 0 .65-.3.2-.2.2-.5 0-.35-.15-.6-.2-.3-.5-.55-.15-.25-.7-.8-.55-.55-1-1.2 1.45.15 2.2.4.15 0 .3.1-.3-.95-.35-1.25-1.3.3-2.15.35l1.55-1.85q-.3-.95-.7-1.65z" id="cS"/><path fill="#FFF" d="M231.4 245.05q.35.4.85.4t.85-.4q.35-.35.35-.85t-.35-.85q-.35-.35-.85-.35t-.85.35q-.4.35-.4.85t.4.85z" id="cT"/><path fill="#FFF" d="M237.1 252.3q.35.35.85.35t.85-.35q.35-.3.35-.8 0-.55-.35-.9t-.85-.35q-.5 0-.85.35-.4.35-.4.9 0 .5.4.8z" id="cU"/><path fill="#FFF" d="M234.35 262.4q0 1.25 1.2 1.25.5 0 .8-.35.35-.35.35-.9 0-.5-.35-.8-.3-.35-.8-.35t-.85.35q-.35.3-.35.8z" id="cV"/><path fill="#FFF" d="M221.5 263.05q.3.4.8.4.55 0 .9-.4.35-.35.35-.85t-.35-.85q-.35-.35-.9-.35-.5 0-.8.35-.35.35-.35.85t.35.85z" id="cW"/><path fill="#FFF" d="M220.65 252.4q.35.35.85.35t.8-.35q.35-.3.35-.8t-.35-.85q-.3-.35-.8-.35t-.85.35q-.35.35-.35.85t.35.8z" id="cX"/><path fill="#FFF" d="M224.75 233.9q.35.35.85.35t.8-.35q.35-.35.35-.85t-.35-.85q-.3-.4-.8-.4t-.85.4q-.35.35-.35.85t.35.85z" id="cY"/><path fill="#FFF" d="M254.8 251.7q.35.35.85.35t.85-.35q.35-.3.35-.8t-.35-.85q-.35-.35-.85-.35t-.85.35q-.4.35-.4.85t.4.8z" id="cZ"/><path fill="#FFF" d="M227.35 277.05q.35.35.85.35t.85-.35q.4-.35.4-.9 0-.5-.4-.8-.35-.35-.85-.35t-.85.35q-.35.3-.35.8 0 .55.35.9z" id="da"/><path fill="#FFF" d="M355.75 243.8q.35.35.85.35t.8-.35q.35-.3.35-.8t-.35-.85q-.3-.4-.8-.4t-.85.4q-.4.35-.4.85t.4.8z" id="db"/><path fill="#FFF" d="M366.15 244.05q-.35-.35-.85-.35t-.85.35q-.4.3-.4.8t.4.85q.35.4.85.4t.85-.4q.35-.35.35-.85t-.35-.8z" id="dc"/><path fill="#FFF" d="M363.3 259.6q0 .5.35.85.35.4.85.4t.8-.4q.35-.35.35-.85t-.35-.85q-.3-.35-.8-.35t-.85.35q-.35.35-.35.85z" id="dd"/></defs><use xlink:href="#aO"/><use xlink:href="#aP" transform="translate(-351.774 -243.587) scale(1.68643)"/><use xlink:href="#aQ" transform="translate(-351.774 -243.587) scale(1.68643)"/><use xlink:href="#aR" transform="translate(-351.774 -243.587) scale(1.68643)"/><use xlink:href="#aS" transform="translate(-351.774 -243.587) scale(1.68643)"/><use xlink:href="#aT" transform="translate(-351.774 -243.587) scale(1.68643)"/><use xlink:href="#aU" transform="translate(-351.774 -243.587) scale(1.68643)"/><use xlink:href="#aV" transform="translate(-351.774 -243.587) scale(1.68643)"/><use xlink:href="#aW" transform="translate(-351.774 -243.587) scale(1.68643)"/><use xlink:href="#aX" transform="translate(-351.774 -243.587) scale(1.68643)"/><use xlink:href="#aY" transform="translate(-351.774 -243.587) scale(1.68643)"/><use xlink:href="#aZ" transform="translate(-351.774 -243.587) scale(1.68643)"/><use xlink:href="#ba" transform="translate(-351.774 -243.587) scale(1.68643)"/><use xlink:href="#bb" transform="translate(-351.774 -243.587) scale(1.68643)"/><use xlink:href="#bc" transform="translate(-351.774 -243.587) scale(1.68643)"/><use xlink:href="#bd" transform="translate(-351.774 -243.587) scale(1.68643)"/><use xlink:href="#be" transform="translate(-351.774 -243.587) scale(1.68643)"/><use xlink:href="#bf" transform="translate(-351.774 -243.587) scale(1.68643)"/><use xlink:href="#bg" transform="translate(-351.774 -243.587) scale(1.68643)"/><use xlink:href="#bh" transform="translate(-351.774 -243.587) scale(1.68643)"/><use xlink:href="#bi" transform="translate(-351.774 -243.587) scale(1.68643)"/><use xlink:href="#bj" transform="translate(-351.774 -243.587) scale(1.68643)"/><use xlink:href="#bk" transform="translate(-351.774 -243.587) scale(1.68643)"/><use xlink:href="#bl" transform="translate(-351.774 -243.587) scale(1.68643)"/><use xlink:href="#bm" transform="translate(-351.774 -243.587) scale(1.68643)"/><use xlink:href="#bn" transform="translate(-351.774 -243.587) scale(1.68643)"/><use xlink:href="#bo" transform="translate(-351.774 -243.587) scale(1.68643)"/><use xlink:href="#bp" transform="translate(-351.774 -243.587) scale(1.68643)"/><use xlink:href="#bq" transform="translate(-351.774 -243.587) scale(1.68643)"/><use xlink:href="#br" transform="translate(-351.774 -243.587) scale(1.68643)"/><use xlink:href="#bs" transform="translate(-351.774 -243.587) scale(1.68643)"/><use xlink:href="#bt" transform="translate(-351.774 -243.587) scale(1.68643)"/><use xlink:href="#bu" transform="translate(-351.774 -243.587) scale(1.68643)"/><use xlink:href="#bv" transform="translate(-351.774 -243.587) scale(1.68643)"/><use xlink:href="#bw" transform="translate(-351.774 -243.587) scale(1.68643)"/><use xlink:href="#bx" transform="translate(-351.774 -243.587) scale(1.68643)"/><use xlink:href="#by" transform="translate(-351.774 -243.587) scale(1.68643)"/><use xlink:href="#bz" transform="translate(-351.774 -243.587) scale(1.68643)"/><use xlink:href="#bA" transform="translate(-351.774 -243.587) scale(1.68643)"/><use xlink:href="#bB" transform="translate(-351.774 -243.587) scale(1.68643)"/><use xlink:href="#bC" transform="translate(-351.774 -243.587) scale(1.68643)"/><use xlink:href="#bD" transform="translate(-351.774 -243.587) scale(1.68643)"/><use xlink:href="#bE" transform="translate(-351.774 -243.587) scale(1.68643)"/><use xlink:href="#bF" transform="translate(-351.774 -243.587) scale(1.68643)"/><use xlink:href="#bG" transform="translate(-351.774 -243.587) scale(1.68643)"/><use xlink:href="#bH" transform="translate(-351.774 -243.587) scale(1.68643)"/><use xlink:href="#bI" transform="translate(-351.774 -243.587) scale(1.68643)"/><use xlink:href="#bJ" transform="translate(-351.774 -243.587) scale(1.68643)"/><use xlink:href="#bK" transform="translate(-351.774 -243.587) scale(1.68643)"/><use xlink:href="#bL" transform="translate(-351.774 -243.587) scale(1.68643)"/><use xlink:href="#bM" transform="translate(-351.774 -243.587) scale(1.68643)"/><use xlink:href="#bN" transform="translate(-351.774 -243.587) scale(1.68643)"/><use xlink:href="#bO" transform="translate(-351.774 -243.587) scale(1.68643)"/><use xlink:href="#bP" transform="translate(-351.774 -243.587) scale(1.68643)"/><use xlink:href="#bQ" transform="translate(-351.774 -243.587) scale(1.68643)"/><use xlink:href="#bR" transform="translate(-351.774 -243.587) scale(1.68643)"/><use xlink:href="#bS" transform="translate(-351.774 -243.587) scale(1.68643)"/><use xlink:href="#bT" transform="translate(-351.774 -243.587) scale(1.68643)"/><use xlink:href="#bU" transform="translate(-351.774 -243.587) scale(1.68643)"/><use xlink:href="#bV" transform="translate(-351.774 -243.587) scale(1.68643)"/><use xlink:href="#bW" transform="translate(-351.774 -243.587) scale(1.68643)"/><use xlink:href="#bX" transform="translate(-351.774 -243.587) scale(1.68643)"/><use xlink:href="#bY" transform="translate(-351.774 -243.587) scale(1.68643)"/><use xlink:href="#bZ" transform="translate(-351.774 -243.587) scale(1.68643)"/><use xlink:href="#ca" transform="translate(-351.774 -243.587) scale(1.68643)"/><use xlink:href="#cb" transform="translate(-351.774 -243.587) scale(1.68643)"/><use xlink:href="#cc" transform="translate(-351.774 -243.587) scale(1.68643)"/><use xlink:href="#cd" transform="translate(-351.774 -243.587) scale(1.68643)"/><use xlink:href="#ce" transform="translate(-351.774 -243.587) scale(1.68643)"/><use xlink:href="#cf" transform="translate(-351.774 -243.587) scale(1.68643)"/><use xlink:href="#cg" transform="translate(-351.774 -243.587) scale(1.68643)"/><use xlink:href="#ch" transform="translate(-351.774 -243.587) scale(1.68643)"/><use xlink:href="#ci" transform="translate(-351.774 -243.587) scale(1.68643)"/><use xlink:href="#cj" transform="translate(-351.774 -243.587) scale(1.68643)"/><use xlink:href="#ck" transform="translate(-351.774 -243.587) scale(1.68643)"/><use xlink:href="#cl" transform="translate(-351.774 -243.587) scale(1.68643)"/><use xlink:href="#cm" transform="translate(-351.774 -243.587) scale(1.68643)"/><use xlink:href="#cn" transform="translate(-351.774 -243.587) scale(1.68643)"/><use xlink:href="#co" transform="translate(-351.774 -243.587) scale(1.68643)"/><use xlink:href="#cp" transform="translate(-351.774 -243.587) scale(1.68643)"/><use xlink:href="#cq" transform="translate(-351.774 -243.587) scale(1.68643)"/><use xlink:href="#cr" transform="translate(-351.774 -243.587) scale(1.68643)"/><use xlink:href="#cs" transform="translate(-351.774 -243.587) scale(1.68643)"/><use xlink:href="#ct" transform="translate(-351.774 -243.587) scale(1.68643)"/><use xlink:href="#cu" transform="translate(-351.774 -243.587) scale(1.68643)"/><use xlink:href="#cv" transform="translate(-351.774 -243.587) scale(1.68643)"/><use xlink:href="#cw" transform="translate(-351.774 -243.587) scale(1.68643)"/><use xlink:href="#cx" transform="translate(-351.774 -243.587) scale(1.68643)"/><use xlink:href="#cy" transform="translate(-351.774 -243.587) scale(1.68643)"/><use xlink:href="#cz" transform="translate(-351.774 -243.587) scale(1.68643)"/><use xlink:href="#cA" transform="translate(-351.774 -243.587) scale(1.68643)"/><use xlink:href="#cB" transform="translate(-351.774 -243.587) scale(1.68643)"/><use xlink:href="#cC" transform="translate(-351.774 -243.587) scale(1.68643)"/><use xlink:href="#cD" transform="translate(-351.774 -243.587) scale(1.68643)"/><use xlink:href="#cE" transform="translate(-351.774 -243.587) scale(1.68643)"/><use xlink:href="#cF" transform="translate(-351.774 -243.587) scale(1.68643)"/><use xlink:href="#cG" transform="translate(-351.774 -243.587) scale(1.68643)"/><use xlink:href="#cH" transform="translate(-351.774 -243.587) scale(1.68643)"/><use xlink:href="#cI" transform="translate(-351.774 -243.587) scale(1.68643)"/><use xlink:href="#cJ" transform="translate(-351.774 -243.587) scale(1.68643)"/><use xlink:href="#cK" transform="translate(-351.774 -243.587) scale(1.68643)"/><use xlink:href="#cL" transform="translate(-351.774 -243.587) scale(1.68643)"/><use xlink:href="#cM" transform="translate(-351.774 -243.587) scale(1.68643)"/><use xlink:href="#cN" transform="translate(-351.774 -243.587) scale(1.68643)"/><use xlink:href="#cO" transform="translate(-351.774 -243.587) scale(1.68643)"/><use xlink:href="#cP" transform="translate(-351.774 -243.587) scale(1.68643)"/><use xlink:href="#cQ" transform="translate(-351.774 -243.587) scale(1.68643)"/><use xlink:href="#cR" transform="translate(-351.774 -243.587) scale(1.68643)"/><use xlink:href="#cS" transform="translate(-351.774 -243.587) scale(1.68643)"/><use xlink:href="#cT" transform="translate(-351.774 -243.587) scale(1.68643)"/><use xlink:href="#cU" transform="translate(-351.774 -243.587) scale(1.68643)"/><use xlink:href="#cV" transform="translate(-351.774 -243.587) scale(1.68643)"/><use xlink:href="#cW" transform="translate(-351.774 -243.587) scale(1.68643)"/><use xlink:href="#cX" transform="translate(-351.774 -243.587) scale(1.68643)"/><use xlink:href="#cY" transform="translate(-351.774 -243.587) scale(1.68643)"/><use xlink:href="#cZ" transform="translate(-351.774 -243.587) scale(1.68643)"/><use xlink:href="#da" transform="translate(-351.774 -243.587) scale(1.68643)"/><use xlink:href="#db" transform="translate(-351.774 -243.587) scale(1.68643)"/><use xlink:href="#dc" transform="translate(-351.774 -243.587) scale(1.68643)"/><use xlink:href="#dd" transform="translate(-351.774 -243.587) scale(1.68643)"/></svg>