<svg xmlns="http://www.w3.org/2000/svg" xmlns:xlink="http://www.w3.org/1999/xlink" preserveAspectRatio="none" width="284" height="320"><defs><linearGradient id="a" gradientUnits="userSpaceOnUse" x1="425.475" y1="508.25" x2="545.125" y2="508.25" spreadMethod="pad"><stop offset="0%" stop-color="#E4F4FC"/><stop offset="100%" stop-color="#CDECFB"/></linearGradient><linearGradient id="b" gradientUnits="userSpaceOnUse" x1="425.475" y1="507.75" x2="545.125" y2="507.75" spreadMethod="pad"><stop offset="0%" stop-color="#E4F4FC"/><stop offset="100%" stop-color="#CDECFB"/></linearGradient><linearGradient id="c" gradientUnits="userSpaceOnUse" x1="425.475" y1="506.65" x2="545.125" y2="506.65" spreadMethod="pad"><stop offset="0%" stop-color="#E4F4FC"/><stop offset="100%" stop-color="#CDECFB"/></linearGradient><linearGradient id="d" gradientUnits="userSpaceOnUse" x1="425.475" y1="504.95" x2="545.125" y2="504.95" spreadMethod="pad"><stop offset="0%" stop-color="#E4F4FC"/><stop offset="100%" stop-color="#CDECFB"/></linearGradient><linearGradient id="e" gradientUnits="userSpaceOnUse" x1="425.475" y1="502.7" x2="545.125" y2="502.7" spreadMethod="pad"><stop offset="0%" stop-color="#E4F4FC"/><stop offset="100%" stop-color="#CDECFB"/></linearGradient><linearGradient id="f" gradientUnits="userSpaceOnUse" x1="425.475" y1="499.7" x2="545.125" y2="499.7" spreadMethod="pad"><stop offset="0%" stop-color="#E4F4FC"/><stop offset="100%" stop-color="#CDECFB"/></linearGradient><linearGradient id="g" gradientUnits="userSpaceOnUse" x1="425.475" y1="495.75" x2="545.125" y2="495.75" spreadMethod="pad"><stop offset="0%" stop-color="#E4F4FC"/><stop offset="100%" stop-color="#CDECFB"/></linearGradient><linearGradient id="h" gradientUnits="userSpaceOnUse" x1="425.5" y1="490.35" x2="545.8" y2="490.35" spreadMethod="pad"><stop offset="0%" stop-color="#E4F4FC"/><stop offset="100%" stop-color="#CDECFB"/></linearGradient><linearGradient id="i" gradientUnits="userSpaceOnUse" x1="424.5" y1="484" x2="546.4" y2="484" spreadMethod="pad"><stop offset="0%" stop-color="#E4F4FC"/><stop offset="100%" stop-color="#CDECFB"/></linearGradient><linearGradient id="j" gradientUnits="userSpaceOnUse" x1="425.475" y1="479.3" x2="545.125" y2="479.3" spreadMethod="pad"><stop offset="0%" stop-color="#E4F4FC"/><stop offset="100%" stop-color="#CDECFB"/></linearGradient><linearGradient id="k" gradientUnits="userSpaceOnUse" x1="425.475" y1="476" x2="545.125" y2="476" spreadMethod="pad"><stop offset="0%" stop-color="#E4F4FC"/><stop offset="100%" stop-color="#CDECFB"/></linearGradient><linearGradient id="l" gradientUnits="userSpaceOnUse" x1="425.475" y1="473.5" x2="545.125" y2="473.5" spreadMethod="pad"><stop offset="0%" stop-color="#E4F4FC"/><stop offset="100%" stop-color="#CDECFB"/></linearGradient><linearGradient id="m" gradientUnits="userSpaceOnUse" x1="425.488" y1="490.35" x2="545.712" y2="490.35" spreadMethod="pad"><stop offset="0%" stop-color="#E4F4FC"/><stop offset="100%" stop-color="#CDECFB"/></linearGradient><linearGradient id="n" gradientUnits="userSpaceOnUse" x1="424.512" y1="484" x2="546.388" y2="484" spreadMethod="pad"><stop offset="0%" stop-color="#E4F4FC"/><stop offset="100%" stop-color="#CDECFB"/></linearGradient><linearGradient id="o" gradientUnits="userSpaceOnUse" x1="425.475" y1="473.65" x2="545.125" y2="473.65" spreadMethod="pad"><stop offset="0%" stop-color="#E4F4FC"/><stop offset="100%" stop-color="#CDECFB"/></linearGradient><linearGradient id="p" gradientUnits="userSpaceOnUse" x1="438.475" y1="487.2" x2="540.925" y2="487.2" spreadMethod="pad"><stop offset="0%" stop-color="#CDECFB"/><stop offset="100%" stop-color="#9CDBF8"/></linearGradient><linearGradient id="q" gradientUnits="userSpaceOnUse" x1="436.487" y1="453.45" x2="516.913" y2="453.45" spreadMethod="pad"><stop offset="0%" stop-color="#C1A29B"/><stop offset="40%" stop-color="#A4776F"/><stop offset="100%" stop-color="#773E3C"/></linearGradient><linearGradient id="r" gradientUnits="userSpaceOnUse" x1="454.65" y1="428.55" x2="454.65" y2="473.15" spreadMethod="pad"><stop offset="0%" stop-color="#E4D7D3"/><stop offset="100%" stop-color="#C1A29B"/></linearGradient><linearGradient id="s" gradientUnits="userSpaceOnUse" x1="473.475" y1="457.35" x2="519.525" y2="457.35" spreadMethod="pad"><stop offset="0%" stop-color="#BD9A93"/><stop offset="100%" stop-color="#9B6B63"/></linearGradient><linearGradient id="t" gradientUnits="userSpaceOnUse" x1="436.5" y1="409.65" x2="536.6" y2="409.65" spreadMethod="pad"><stop offset="0%" stop-color="#BA9790"/><stop offset="21.176%" stop-color="#CEB5AF"/><stop offset="49.02%" stop-color="#A4776F"/><stop offset="100%" stop-color="#7F4643"/></linearGradient><linearGradient id="u" gradientUnits="userSpaceOnUse" x1="514.538" y1="414.325" x2="459.762" y2="388.775" spreadMethod="pad"><stop offset="0%" stop-color="#E4A533"/><stop offset="100%" stop-color="#FFCB31"/></linearGradient><linearGradient id="v" gradientUnits="userSpaceOnUse" x1="507.925" y1="419.138" x2="462.975" y2="380.063" spreadMethod="pad"><stop offset="0%" stop-color="#FFCB31"/><stop offset="100%" stop-color="#FFECAC"/></linearGradient><linearGradient id="w" gradientUnits="userSpaceOnUse" x1="471.012" y1="396.538" x2="465.488" y2="388.663" spreadMethod="pad"><stop offset="0%" stop-color="#62CCF4"/><stop offset="100%" stop-color="#9CDBF8"/></linearGradient><linearGradient id="x" gradientUnits="userSpaceOnUse" x1="466.45" y1="394.737" x2="465.85" y2="386.063" spreadMethod="pad"><stop offset="0%" stop-color="#00B4EF"/><stop offset="100%" stop-color="#B5E3F9"/></linearGradient><linearGradient id="y" gradientUnits="userSpaceOnUse" x1="461.288" y1="391.2" x2="468.813" y2="387.2" spreadMethod="pad"><stop offset="0%" stop-color="#BAE5FA"/><stop offset="100%" stop-color="#FFF"/></linearGradient><linearGradient id="z" gradientUnits="userSpaceOnUse" x1="451.225" y1="394.7" x2="491.875" y2="420.1" spreadMethod="pad"><stop offset="0%" stop-color="#FFF"/><stop offset="100%" stop-color="#FFE598"/></linearGradient><linearGradient id="A" gradientUnits="userSpaceOnUse" x1="524.487" y1="386.35" x2="488.613" y2="386.35" spreadMethod="pad"><stop offset="0%" stop-color="#FFCB31"/><stop offset="100%" stop-color="#F0B732"/></linearGradient><linearGradient id="B" gradientUnits="userSpaceOnUse" x1="465.838" y1="371.337" x2="520.363" y2="386.962" spreadMethod="pad"><stop offset="0%" stop-color="#FFF"/><stop offset="100%" stop-color="#FFDA71"/></linearGradient><linearGradient id="C" gradientUnits="userSpaceOnUse" x1="489.487" y1="374.25" x2="480.313" y2="374.25" spreadMethod="pad"><stop offset="0%" stop-color="#FFCB31"/><stop offset="100%" stop-color="#FFDA71"/></linearGradient><linearGradient id="D" gradientUnits="userSpaceOnUse" x1="484.05" y1="358.538" x2="484.05" y2="382.462" spreadMethod="pad"><stop offset="0%" stop-color="#FFDA71"/><stop offset="100%" stop-color="#FFF"/></linearGradient><radialGradient id="E" gradientUnits="userSpaceOnUse" cx="0" cy="0" r="15.625" fx="0" fy="0" gradientTransform="matrix(1 0 0 -1 486.5 351.5)" spreadMethod="pad"><stop offset="0%" stop-color="#F9C9D5"/><stop offset="100%" stop-color="#EF609F"/></radialGradient><linearGradient id="F" gradientUnits="userSpaceOnUse" x1="486.1" y1="354.512" x2="486.1" y2="358.588" spreadMethod="pad"><stop offset="0%" stop-color="#C1A29B"/><stop offset="100%" stop-color="#8E5A54"/></linearGradient><linearGradient id="G" gradientUnits="userSpaceOnUse" x1="440.65" y1="445.5" x2="440.65" y2="428.4" spreadMethod="pad"><stop offset="0%" stop-color="#FFCB31"/><stop offset="100%" stop-color="#FFECAC"/></linearGradient><linearGradient id="H" gradientUnits="userSpaceOnUse" x1="439.35" y1="437.55" x2="439.35" y2="446.05" spreadMethod="pad"><stop offset="0%" stop-color="#FFF"/><stop offset="100%" stop-color="#FFDA71"/></linearGradient><linearGradient id="I" gradientUnits="userSpaceOnUse" x1="522.5" y1="440.513" x2="522.5" y2="429.188" spreadMethod="pad"><stop offset="0%" stop-color="#FFCB31"/><stop offset="100%" stop-color="#FFECAC"/></linearGradient><linearGradient id="J" gradientUnits="userSpaceOnUse" x1="523.25" y1="435.55" x2="523.25" y2="441.15" spreadMethod="pad"><stop offset="0%" stop-color="#FFF"/><stop offset="100%" stop-color="#FFDA71"/></linearGradient><linearGradient id="K" gradientUnits="userSpaceOnUse" x1="453.275" y1="430.888" x2="448.525" y2="424.813" spreadMethod="pad"><stop offset="0%" stop-color="#FFCB31"/><stop offset="100%" stop-color="#FFECAC"/></linearGradient><linearGradient id="L" gradientUnits="userSpaceOnUse" x1="450.1" y1="427.525" x2="450.1" y2="432.875" spreadMethod="pad"><stop offset="0%" stop-color="#FFF"/><stop offset="100%" stop-color="#FFDA71"/></linearGradient><linearGradient id="M" gradientUnits="userSpaceOnUse" x1="509.213" y1="396.95" x2="499.488" y2="394.15" spreadMethod="pad"><stop offset="0%" stop-color="#F38EB5"/><stop offset="100%" stop-color="#EF609F"/></linearGradient><linearGradient id="N" gradientUnits="userSpaceOnUse" x1="503.625" y1="398.7" x2="503.075" y2="390.7" spreadMethod="pad"><stop offset="0%" stop-color="#DB2885"/><stop offset="100%" stop-color="#F393B8"/></linearGradient><linearGradient id="O" gradientUnits="userSpaceOnUse" x1="498.438" y1="395.513" x2="505.563" y2="392.188" spreadMethod="pad"><stop offset="0%" stop-color="#F6B1C8"/><stop offset="100%" stop-color="#FFF"/></linearGradient><linearGradient id="P" gradientUnits="userSpaceOnUse" x1="485.762" y1="404.375" x2="473.738" y2="403.325" spreadMethod="pad"><stop offset="0%" stop-color="#BACD41"/><stop offset="100%" stop-color="#D4E065"/></linearGradient><linearGradient id="Q" gradientUnits="userSpaceOnUse" x1="478.537" y1="408.063" x2="476.762" y2="397.938" spreadMethod="pad"><stop offset="0%" stop-color="#9CB841"/><stop offset="100%" stop-color="#D8E37A"/></linearGradient><linearGradient id="R" gradientUnits="userSpaceOnUse" x1="471.438" y1="403.475" x2="480.263" y2="399.725" spreadMethod="pad"><stop offset="0%" stop-color="#DEE68C"/><stop offset="100%" stop-color="#FFF"/></linearGradient><linearGradient id="S" gradientUnits="userSpaceOnUse" x1="496" y1="449.525" x2="496" y2="440.675" spreadMethod="pad"><stop offset="0%" stop-color="#85504B"/><stop offset="100%" stop-color="#7F4643"/></linearGradient><linearGradient id="T" gradientUnits="userSpaceOnUse" x1="503.7" y1="458.538" x2="503.7" y2="453.063" spreadMethod="pad"><stop offset="0%" stop-color="#7A423F"/><stop offset="100%" stop-color="#672C2F"/></linearGradient><linearGradient id="U" gradientUnits="userSpaceOnUse" x1="489.75" y1="467.5" x2="489.75" y2="462.7" spreadMethod="pad"><stop offset="0%" stop-color="#8B5650"/><stop offset="100%" stop-color="#773E3C"/></linearGradient><linearGradient id="V" gradientUnits="userSpaceOnUse" x1="494.6" y1="483.525" x2="494.6" y2="477.475" spreadMethod="pad"><stop offset="0%" stop-color="#85504B"/><stop offset="100%" stop-color="#7F4643"/></linearGradient><linearGradient id="W" gradientUnits="userSpaceOnUse" x1="507.15" y1="465.538" x2="507.15" y2="461.462" spreadMethod="pad"><stop offset="0%" stop-color="#773E3C"/><stop offset="100%" stop-color="#5C2A2C"/></linearGradient><linearGradient id="X" gradientUnits="userSpaceOnUse" x1="477.6" y1="459.537" x2="477.6" y2="455.762" spreadMethod="pad"><stop offset="0%" stop-color="#97665E"/><stop offset="100%" stop-color="#8B5650"/></linearGradient><linearGradient id="Y" gradientUnits="userSpaceOnUse" x1="467" y1="482.537" x2="467" y2="475.363" spreadMethod="pad"><stop offset="0%" stop-color="#A07169"/><stop offset="100%" stop-color="#8B5650"/></linearGradient><linearGradient id="Z" gradientUnits="userSpaceOnUse" x1="464" y1="460.512" x2="464" y2="457.488" spreadMethod="pad"><stop offset="0%" stop-color="#A07169"/><stop offset="100%" stop-color="#8B5650"/></linearGradient><linearGradient id="aa" gradientUnits="userSpaceOnUse" x1="471.7" y1="446.5" x2="471.7" y2="439.7" spreadMethod="pad"><stop offset="0%" stop-color="#9B6B63"/><stop offset="100%" stop-color="#8B5650"/></linearGradient><linearGradient id="ab" gradientUnits="userSpaceOnUse" x1="514.4" y1="445.525" x2="514.4" y2="440.875" spreadMethod="pad"><stop offset="0%" stop-color="#713636"/><stop offset="100%" stop-color="#502628"/></linearGradient><linearGradient id="ac" gradientUnits="userSpaceOnUse" x1="462.05" y1="467.512" x2="462.05" y2="462.088" spreadMethod="pad"><stop offset="0%" stop-color="#A07169"/><stop offset="100%" stop-color="#8B5650"/></linearGradient><linearGradient id="ad" gradientUnits="userSpaceOnUse" x1="448.3" y1="457.5" x2="448.3" y2="452.2" spreadMethod="pad"><stop offset="0%" stop-color="#AE857D"/><stop offset="100%" stop-color="#97665E"/></linearGradient><linearGradient id="ae" gradientUnits="userSpaceOnUse" x1="522.45" y1="465.537" x2="522.45" y2="460.262" spreadMethod="pad"><stop offset="0%" stop-color="#97665E"/><stop offset="100%" stop-color="#8B5751"/></linearGradient><path fill="#FFF" fill-opacity="0" d="M0 320h284V0H0v320z" id="af"/><path fill="url(#a)" d="M486.5 504.05h-.1q-2.25 0-4.05 1.15-1.85 1.2-1.85 3.05 0 1.9 1.85 3 1.8 1.15 4.15 1.15 2.35 0 4-1.15 1.9-1.15 1.9-3 0-1.8-1.9-3.05-1.65-1.15-4-1.15m0 1.6q1.85 0 3.05.8 1.15.75 1.15 1.8 0 .95-1.15 1.8-1.1.75-3.05.75-2 0-3.2-.75-1.15-.9-1.15-1.8 0-1 1.15-1.8 1.3-.8 3.1-.8h.1z" id="ag"/><path fill="url(#b)" d="M475.05 503.75q-2.2 0-3.9 1.1-1.75 1.05-1.9 2.9.15 1.8 1.9 2.95 1.75 1.05 3.9 1.05h.05q2.15 0 3.9-1.05 1.8-1.15 1.8-2.95 0-1.8-1.8-2.9-1.7-1.1-3.95-1.1m-3.05 2.4q1.3-.8 3.05-.8 1.9 0 3 .8 1.1.65 1.1 1.6 0 .95-1.1 1.65-1.05.75-2.95.75h-.05q-1.85 0-3.05-.75-1.1-.75-1.1-1.65 0-.9 1.1-1.6z" id="ah"/><path fill="url(#c)" d="M470.25 506.65q0-1.65-1.75-2.8-1.6-1-3.85-1-2.15 0-3.8 1-1.75 1.1-1.75 2.8 0 1.7 1.75 2.75 1.6 1.05 3.8 1.05 2.3 0 3.85-1.05 1.75-1.1 1.75-2.75m-1.65 0q0 .9-1 1.5-1.15.75-2.95.75-1.7 0-2.85-.75-1.1-.7-1.1-1.5t1.1-1.5q1.15-.75 2.85-.75 1.8 0 2.95.75 1 .6 1 1.5z" id="ai"/><path fill="url(#d)" d="M460.65 504.9q0-1.6-1.75-2.65-1.65-.95-3.65-.95h-.1q-1.9 0-3.65.95-1.75 1.05-1.75 2.65 0 1.65 1.75 2.7 1.65 1 3.75 1 1.9 0 3.65-1 1.75-1.05 1.75-2.7m-2.6-1.35q.9.75.9 1.35 0 .85-.9 1.4-1.3.7-2.8.7-1.65 0-2.9-.7-.95-.55-.95-1.4 0-.65 1-1.35.95-.65 2.75-.65h.1q1.7 0 2.8.65z" id="aj"/><path fill="url(#e)" d="M446.6 506.15q2.1 0 3.6-.95 1.7-1.05 1.7-2.5 0-1.55-1.7-2.6-1.35-.85-3.6-.85-2.3 0-3.6.85-1.75 1.15-1.75 2.6.15 1.45 1.75 2.5 1.45.95 3.6.95m0-5.4q1.4 0 2.7.65.95.55.95 1.3 0 .65-.95 1.2-1 .65-2.7.65-1.75 0-2.75-.65-.95-.55-.95-1.2 0-.75.95-1.3 1.3-.65 2.75-.65z" id="ak"/><path fill="url(#f)" d="M444.05 499.65q-.1-1.45-1.7-2.45-1.45-.85-3.45-.85h-.1q-1.85 0-3.45.85-1.65 1.05-1.65 2.45v.1q0 1.4 1.65 2.45 1.6.85 3.55.85 2 0 3.45-.85 1.6-1 1.7-2.45v-.1m-2.55-1.05q.9.4.9 1.05v.1q0 .55-.9 1.05-.95.65-2.6.65-1.75 0-2.7-.65-.85-.45-.85-1.05v-.1q0-.65.85-1.05.95-.65 2.6-.65h.1q1.65 0 2.6.65z" id="al"/><path fill="url(#g)" d="M432.25 492.6q-1.95 0-3.45.8-1.6.9-1.6 2.35 0 1.45 1.6 2.4 1.5.8 3.45.8 2.05 0 3.4-.8 1.65-1 1.65-2.4 0-1.45-1.65-2.35-1.35-.8-3.4-.8m0 1.6q1.6 0 2.55.55.85.45.85 1 0 .6-.85 1.05-.95.65-2.55.65-1.55 0-2.6-.65-.85-.5-.85-1.05 0-.5.85-1 1-.55 2.6-.55z" id="am"/><path fill="url(#h)" d="M423.05 490.35q0 .75.45 1.4 1.05 1.65 4.3 1.65 1.95 0 3.3-.8 1.6-.85 1.6-2.25 0-1.3-1.6-2.3-1.6-.75-3.3-.75-3.2 0-4.3 1.7-.45.7-.45 1.35m1.65 0q0-.25.15-.5.65-1 2.95-1 1.4 0 2.45.6.8.5.8.9 0 .45-.8.95-.7.4-2.45.6-2.25 0-2.95-1l-.15-.55z" id="an"/><path fill="url(#i)" d="M423.5 483.95q0 .85.5 1.4 1 1.55 4.15 1.55 2 0 3.15-.7 1.55-.9 1.7-2.25-.15-1.4-1.7-2.15-1.15-.7-3.15-.7-3.2 0-4.15 1.55-.5.55-.5 1.3m7.05-.8q.75.4.75.8 0 .45-.75.9-1.2.5-2.4.5-2.1 0-2.9-.95l-.1-.45.1-.4q.85-.95 2.9-.95 1.45 0 2.4.55z" id="ao"/><path fill="url(#j)" d="M435.5 481.35q1.6-.85 1.6-2.05 0-1.25-1.6-2.2-1.25-.6-3.15-.6-3 0-4.1 1.5-.45.55-.45 1.3 0 .7.45 1.2 1.25 1.6 4.1 1.6 1.75 0 3.15-.75m-6.05-2.05q0-.2.15-.45.65-.85 2.75-.85 1.45 0 2.35.5.75.35.75.8 0 .35-.75.7-.9.5-2.35.5-2.15 0-2.75-.85l-.15-.35z" id="ap"/><path fill="url(#k)" d="M437.6 478.7q1.85 0 3-.65 1.6-.65 1.6-2t-1.6-2q-1.35-.75-3-.75-2.9 0-4.05 1.5-.45.6-.45 1.25 0 .7.45 1.2 1.05 1.45 4.05 1.45m0-3.8q1.3 0 2.3.5.65.35.65.65 0 .35-.65.65-1 .5-2.3.5-2 0-2.7-.8l-.1-.35.1-.35q.7-.8 2.7-.8z" id="aq"/><path fill="url(#l)" d="M443.2 476.2h.05q2.05-.2 3.05-.6 1.55-.65 1.65-1.95 0-1.35-1.05-2.05-1.05-.8-3.65-.8-2.25 0-3.3 1.65-.35.6-.35 1.15 0 .65.3 1.15.9 1.45 3.3 1.45m0-1.6q-1.5 0-1.85-.65-.1-.05-.1-.3 0-.35.15-.5.65-.85 1.85-.85 1.95 0 2.7.5.35.25.35.85 0 .35-.7.5-.9.45-2.35.45h-.05z" id="ar"/><path fill="url(#b)" d="M501.4 504.85q-1.8-1.1-3.9-1.1h-.1q-2.1 0-3.95 1.1-1.8 1.2-1.8 2.9t1.9 2.95q1.75 1.05 3.85 1.05 2.15 0 4-1.05 1.8-1.15 1.8-2.95 0-1.8-1.8-2.9m-4 .5h.1q1.75 0 2.95.8 1.05.6 1.05 1.6t-1.05 1.65q-1.1.75-3.05.75-1.8 0-3-.75-1.1-.75-1.1-1.65 0-.9 1.1-1.6 1.3-.8 3-.8z" id="as"/><path fill="url(#c)" d="M507.85 502.85h-.05q-2.1 0-3.85 1-1.7 1.15-1.7 2.8 0 1.7 1.7 2.75t3.85 1.05h.05q2.15 0 3.85-1.05 1.7-1.05 1.7-2.75 0-1.65-1.7-2.8-1.75-1-3.85-1m0 1.55q1.65 0 2.9.75 1 .6 1 1.5t-1 1.5q-1.25.75-2.9.75h-.05q-1.65 0-2.9-.75-1-.6-1-1.5t1-1.5q1.25-.75 2.9-.75h.05z" id="at"/><path fill="url(#d)" d="M522.75 504.9q0-1.55-1.7-2.65-1.75-.95-3.75-.95t-3.75.95q-1.6 1.05-1.75 2.65 0 1.55 1.75 2.7 1.8 1 3.75 1t3.75-1q1.7-1.1 1.7-2.7m-5.45-2q1.8 0 2.8.65 1 .7 1 1.35 0 .85-1 1.4-1.2.7-2.8.7-1.55 0-2.8-.7-1-.55-1-1.4 0-.65 1-1.35 1-.65 2.8-.65z" id="au"/><path fill="url(#e)" d="M529.55 505.2q1.65-1.05 1.65-2.5 0-1.55-1.65-2.6-1.35-.85-3.6-.85-2.3 0-3.6.85-1.75 1.05-1.75 2.6 0 1.45 1.75 2.5 1.45.95 3.5.95h.1q2.1 0 3.6-.95m-.9-3.8q.9.65.9 1.3 0 .55-.9 1.2-1 .65-2.7.65h-.1q-1.7 0-2.65-.65-.95-.55-.95-1.2 0-.75.95-1.3 1.2-.65 2.75-.65 1.4 0 2.7.65z" id="av"/><path fill="url(#f)" d="M537.15 502.2q1.65-1.05 1.65-2.45v-.1q0-1.4-1.65-2.45-1.55-.85-3.5-.85t-3.55.85q-1.65 1.05-1.65 2.45v.1q0 1.4 1.65 2.45 1.6.85 3.55.85 1.95 0 3.5-.85m0-2.55v.1q0 .55-.85 1.05-.95.65-2.65.65-1.75 0-2.7-.65-.85-.5-.85-1.05v-.1q0-.6.85-1.05.95-.65 2.7-.65 1.7 0 2.65.65.85.45.85 1.05z" id="aw"/><path fill="url(#g)" d="M540.25 492.6q-2 0-3.35.8-1.7.9-1.7 2.35 0 1.45 1.7 2.4 1.35.8 3.35.8 2.05 0 3.4-.8 1.65-1 1.65-2.4 0-1.45-1.65-2.35-1.35-.8-3.4-.8m0 1.6q1.6 0 2.6.55.8.5.8 1 0 .55-.8 1.05-1.05.65-2.6.65t-2.6-.65q-.75-.45-.75-1.05 0-.55.75-1 1-.55 2.6-.55z" id="ax"/><path fill="url(#m)" d="M541.4 492.6q1.35.8 3.3.8 1.9 0 3.35-.8 1.65-.8 1.65-2.25 0-1.3-1.65-2.3-1.7-.75-3.35-.75-1.7 0-3.3.75-1.55.95-1.55 2.3 0 1.5 1.55 2.25m3.3-3.75l-3.3 1.5q0-.35.8-.9 1.1-.6 2.5-.6z" id="ay"/><path fill="url(#n)" d="M541.1 481.8q-1.55.85-1.55 2.15 0 1.2 1.55 2.25 1.4.7 3.25.7 1.95 0 3.25-.7 1.6-.95 1.6-2.25 0-1.35-1.6-2.15-1.3-.7-3.25-.7-1.85 0-3.25.7m.8 1.35q1-.55 2.45-.55l-3.15 1.35q0-.35.7-.8z" id="az"/><path fill="url(#j)" d="M540.2 476.5q-2 0-3.2.6-1.55.85-1.55 2.2 0 1.3 1.55 2.05 1.35.75 3.1.75h.1q1.75 0 3.1-.75 1.55-.75 1.55-2.05 0-1.35-1.55-2.2-1.2-.6-3.1-.6m-3.1 2.8q0-.45.7-.8 1-.5 2.4-.5l-3.1 1.3z" id="aA"/><path fill="url(#k)" d="M538.05 478.05q1.5-.65 1.5-2t-1.5-2q-1-.6-3.1-.75-1.75 0-3.1.75-1.55.65-1.55 2t1.55 2q1.15.65 3.1.65 1.95 0 3.1-.65m-3.1-3.15l-2.95 1.15q0-.35.65-.65.9-.5 2.3-.5z" id="aB"/><path fill="url(#o)" d="M525 473.65v.1q0 1.15 1.5 1.95 1.25.55 3.05.55 1.75 0 3-.55 1.5-.8 1.5-1.95v-.1q0-1.25-1.5-1.9-1.3-.65-3-.65-1.75 0-3.05.65-1.5.65-1.5 1.9m1.65 0q0-.25.65-.55.75-.45 2.25-.45l-2.9 1z" id="aC"/><path fill="url(#p)" d="M519.75 472.15q-8.85-2.9-14.8-3.95-7.6-1.3-18.7-1.3-24.55 0-41.95 5.95-17.45 5.95-17.45 14.35 0 8.45 17.45 14.35 17.4 5.95 41.95 5.95 22.9 0 39.9-5.25Q543 497 545.3 489.3q.3-1.1.3-2.1 0-6.6-25.85-15.05z" id="aD"/><path fill="#FFF" d="M439.15 478.8q-1.8 0-3.05.6-1.25.65-1.25 1.55 0 .85 1.25 1.5 1.3.65 3.05.65 1.8 0 3.1-.65 1.25-.65 1.25-1.5 0-.9-1.25-1.55-1.3-.6-3.1-.6z" id="aE"/><path fill="#FFF" d="M435.55 485.75q-1.8 0-3.05.65-1.25.6-1.25 1.55 0 .85 1.25 1.5 1.3.65 3.05.65 1.8 0 3.1-.65 1.25-.65 1.25-1.5 0-.95-1.25-1.55-1.3-.65-3.1-.65z" id="aF"/><path fill="#FFF" d="M440.95 492.6q-1.75 0-3.05.65-1.25.65-1.25 1.5 0 .95 1.25 1.55 1.25.65 3.05.65 1.8 0 3.1-.65 1.25-.6 1.25-1.55 0-.85-1.25-1.5-1.3-.65-3.1-.65z" id="aG"/><path fill="#FFF" d="M450.2 496.85q-1.8 0-3.05.65-1.3.6-1.3 1.5 0 .85 1.3 1.5 1.25.65 3.05.65 1.75 0 3.05-.65 1.25-.65 1.25-1.5 0-.9-1.25-1.5-1.3-.65-3.05-.65z" id="aH"/><path fill="#FFF" d="M461.25 499.6q-1.8 0-3.05.6-1.25.65-1.25 1.55 0 .85 1.25 1.5 1.3.65 3.05.65 1.8 0 3.1-.65 1.25-.65 1.25-1.5 0-.9-1.25-1.55-1.3-.6-3.1-.6z" id="aI"/><path fill="#FFF" d="M474 501.1q-1.75 0-3.05.65-1.25.65-1.25 1.5 0 .95 1.25 1.55 1.25.6 3.05.6 1.8 0 3.1-.6 1.25-.6 1.25-1.55 0-.85-1.25-1.5-1.3-.65-3.1-.65z" id="aJ"/><path fill="#FFF" d="M535.25 479.4q-1.25-.6-3.05-.6-1.8 0-3 .6-1.25.6-1.25 1.55 0 .9 1.25 1.5 1.2.65 3 .65 1.75 0 3.05-.65 1.25-.65 1.25-1.5 0-.9-1.25-1.55z" id="aK"/><path fill="#FFF" d="M538.9 486.4q-1.25-.65-3.05-.65-1.8 0-3.05.65-1.25.6-1.25 1.55 0 .85 1.25 1.5 1.3.65 3.05.65 1.8 0 3.05-.65 1.2-.6 1.2-1.5 0-.95-1.2-1.55z" id="aL"/><path fill="#FFF" d="M533.45 493.25q-1.3-.65-3.05-.65-1.8 0-3 .65-1.25.65-1.25 1.5 0 .95 1.25 1.55 1.2.65 3 .65t3.05-.65q1.25-.6 1.25-1.55 0-.85-1.25-1.5z" id="aM"/><path fill="#FFF" d="M524.25 497.5q-1.3-.65-3.05-.65-1.8 0-3.05.65-1.3.6-1.3 1.5 0 .85 1.3 1.5 1.25.65 3.05.65 1.75 0 3.05-.65 1.25-.65 1.25-1.5 0-.9-1.25-1.5z" id="aN"/><path fill="#FFF" d="M513.2 500.2q-1.25-.6-3.05-.6-1.8 0-3.05.6-1.25.65-1.25 1.55 0 .85 1.25 1.5 1.3.65 3.05.65 1.8 0 3.05-.65 1.2-.6 1.2-1.5 0-.95-1.2-1.55z" id="aO"/><path fill="#FFF" d="M500.4 501.75q-1.3-.65-3.05-.65-1.8 0-3.05.65-1.25.65-1.25 1.5 0 .95 1.25 1.55 1.25.6 3.05.6 1.8 0 3.05-.6 1.25-.6 1.25-1.55 0-.85-1.25-1.5z" id="aP"/><path fill="#FFF" d="M489.4 501.75q-1.3-.65-3.05-.65-1.8 0-3.05.65-1.3.65-1.3 1.5 0 .95 1.3 1.55 1.25.6 3.05.6 1.8 0 3.05-.6 1.25-.6 1.25-1.55 0-.85-1.25-1.5z" id="aQ"/><path fill="#FFF" d="M442.75 477.05q0 .95 1.3 1.55 1.25.6 3.05.6 1.8 0 3.05-.6 1.25-.6 1.25-1.55 0-.9-1.25-1.5-1.3-.65-3.05-.65-1.8 0-3.05.65-1.3.6-1.3 1.5z" id="aR"/><path fill="#FFF" d="M521.2 478.6q1.25.6 3.05.6 1.8 0 3.1-.6 1.25-.6 1.25-1.55 0-.9-1.25-1.5-1.3-.65-3.1-.65-1.75 0-3.05.65-1.25.6-1.25 1.5 0 .95 1.25 1.55z" id="aS"/><path fill="url(#q)" d="M512.25 490.8q10.55-4.25 13.4-10.8 1.1-2.05 2-10.1 1-10.95 1.6-17.4 2.4-26.1 6.85-36.65l-49.85-4.25h-.3l-49.75 4.25q4.4 10.45 5.95 35.95l.95 17.4q.55 8.25 1.55 10.75 2.35 6.55 14.15 10.9 11.85 4.4 27.3 4.4 15.1 0 26.15-4.45z" id="aT"/><path fill="url(#r)" d="M461.8 427.45l-14.55-6.35q3.15 11.55 4.05 17.6 2.95 19.8.35 43.75 12.25-26 10.15-55z" id="aU"/><path fill="url(#s)" d="M517.6 468.05q-.6 8.9-3.45 13.4-3.15 4.85-10.7 7.4-10.6 3.6-25.35 3.25-14.35-.3-25.7-4.15 6.3 3.65 13.35 5.3 8.3 2 20.35 2 13.3 0 25.7-4.25 12.9-4.45 15.55-10.55 1.3-2.4 2.6-25.25 1.35-24.7 4.85-35.75-7.8 11.9-11.2 20.45-5.05 12.55-6 28.15z" id="aV"/><path fill="url(#t)" d="M535.9 391.7q-8.8-8.35-49.8-8.55-40.9-.15-49.75 8.35-3.3 3.2-3.4 8.85 0 3.25.6 10.25 0 10.55 15.4 18.05 15.45 7.5 37.15 7.5t37.15-7.5q15.45-7.5 15.45-18.05.65-7 .6-10.2-.1-5.5-3.4-8.7z" id="aW"/><path fill="url(#u)" d="M469.85 374.6q-13.25 2.7-22.4 8.35-11.5 7.1-12.9 15.9-.25 1.5.9 2.6.7.65 2.65 2.1 1.25 1.2.6 3.25-1 3.5-1.05 4-.25 6.65 6.3 9.25 4.95 2 12 1.2 3.4-.4 5.65 1.1 1.2.75 3.5 3.45 4.6 5.45 11.8 5.45 3.85 0 7.35-1.25 1.3-.45 6.2-2.75 4.7-2.35 10.95-1.65 3.55.45 10.55 2 8.85 1.35 10.75-5.85.55-2.35 1.5-3.15 1.1-.85 2.6-.6 2.4.6 4.05-.55 1.7-1.2 1.4-3.6-.15-2 .65-2.4.5-.3 2.15-.35 2.8-.5 2.4-3.75-.25-1.75.6-3.4 1.2-1.8 1.25-2.45 2.75-10.65-10.7-18.95-12.75-7.9-32.75-9.6-12.8-1.1-26 1.65z" id="aX"/><path fill="url(#v)" d="M468.45 372.3q-13.3 2.7-22.45 8.35-11.5 7.1-12.9 15.9-.55 3.8 2.25 6.5 1.45 1.4 1.8 2.6.2.8.1 3.35-.3 6.65 5.75 9.05 4.45 1.75 11.5.9 3.4-.4 5.65 1.1 1.2.75 3.5 3.45 4.6 5.45 11.8 5.45 3.9 0 7.4-1.25 1.5-.5 6.15-2.75 4.75-2.35 10.95-1.6 3.6.4 10.55 1.95 8.85 1.35 10.75-5.8.65-2.45 1.5-3.2 1.1-.85 2.6-.6 2.45.6 4.05-.55 1.7-1.2 1.45-3.6-.2-2 .6-2.4.55-.3 2.2-.35 2.75-.55 2.35-3.75-.2-1.6.6-3.4 1.2-1.8 1.3-2.45 2.7-10.65-10.7-18.95-12.8-7.9-32.8-9.6-12.7-1.1-25.95 1.65z" id="aY"/><path fill="url(#w)" d="M466.9 385.2q-3.8 0-6.45 1.75-2.65 1.7-2.55 4.15.15 2.4 3 4.15 2.85 1.75 6.7 1.75 3.8 0 6.45-1.75 2.65-1.75 2.5-4.15-.2-2.45-3-4.15-2.85-1.75-6.65-1.75z" id="aZ"/><path fill="url(#x)" d="M466.9 385.2q-3.8 0-6.45 1.75-2.65 1.7-2.55 4.15.05 1.95 2.2 3.65 2.4 1 5.3 1 3.8 0 6.45-1.75 2.65-1.7 2.55-4.15-.25-2.1-2.25-3.65-2.5-1-5.25-1z" id="ba"/><path fill="url(#y)" d="M467.65 387.85q2.55-.5 5 .55-5.7-3.4-11.65-.35-1.6.8-.75 2.1.8 1.25 2.55 0 2.65-1.8 4.85-2.3z" id="bb"/><path fill="url(#z)" d="M441.4 390.65q-1.45 2.45-.55 4.45.55 1.35 2.55 2.9 2.25 1.7 2.4 2.8.1.9-1.3 3.6-.9 1.75-.85 3.4 0 1.5.7 2.45 1 1.5 3.5 1.85 2.05.3 4.7-.15 2.55-.35 7.6-1.3 4.05.05 5.5 4.5 1.75 5.25 6.5 6.1 3.5.65 9.5-1.1 6.35-1.85 9.25-2.35 4.55-.8 9.55-.35-7.8-2.8-17.2-1.65-2.8.2-4.25.15-1.9-.05-2.9-.65-1.55-.9-.95-2.5.7-1.85 4.2-4 2.65-1.6 2.15-3.85-.5-2.05-2.85-2.8-2.75-.8-8.15-.35-3.7.35-7.45 1.1-1.65.3-3.35.85-2.8.85-3.7 1-2.7.55-3.65-.25-.5-.45-.4-1.2.15-.9 1.2-1.85 2.05-1.85 2.3-3.3.25-1.3-.65-2.2-.95-1-2.9-1.25-1.85-.2-2.2-.3-4-.75-3.45-3.7.4-2.2 2.65-4.45t3.7-3.4q2.75-2.15 6.1-3.65-4.6 1.1-10.55 4.85-4.6 3.05-6.75 6.6z" id="bc"/><path fill="url(#A)" d="M485.75 381.45q-2.3.7-3.75 1.65-1.1.75-2 2.2-1.45 3.1 2 4.25 1.6.5 5.65.65l44.05 1.4v-8.5l-43.3-1.45q-.15 0-.65-.4-.3-.25-2 .2z" id="bd"/><path fill="url(#B)" d="M462.85 377.6q6.9-1.9 16.9-1.9 11.75-.05 21.55 2.8 9.45 2.8 16.2 8.5 4.3 3.55 6.95 4.8 2.5 1.2 4.05.6 2.15-.8 1.55-2.85-.8-2.75-7-6.8-5.85-3.9-14.45-6.2-9.1-2.5-19.3-2.65-15.45-.4-26.45 3.7z" id="be"/><path fill="url(#C)" d="M480.85 386.85q.1.6 1 1 1.8.95 4.25.95 2.3 0 4.05-.65 1.05-.4 1.2-1.2V359.7h-10.5v27.15z" id="bf"/><path fill="url(#D)" d="M485.4 360.2h-2.65l.75 24.35 1.9-24.35z" id="bg"/><path fill="#FFE598" d="M480.85 359.6q0 .55 1.5.9t3.75.35q2.2 0 3.7-.35 1.55-.35 1.55-.9t-1.55-.9q-1.55-.4-3.7-.4-2.2 0-3.75.4-1.5.35-1.5.9z" id="bh"/><path fill="#FFCB31" d="M482.75 359.4q0 .35 1.05.55 1 .25 2.55.25 1.45 0 2.45-.25 1.05-.2 1.05-.55 0-.35-1.05-.55-1-.25-2.45-.25-1.55 0-2.55.25-1.05.2-1.05.55z" id="bi"/><path fill="url(#E)" d="M483.15 337.9q1.65 2.3.1 5.4-2.35 3.55-3.35 5.25-1.4 2.35-1.4 4.75.05 3.1 2.95 4 1.3.4 2.5-.05 1.4-.5 1.95-1.9 1.25 2.05 3.45 2.1 1.9.05 3.25-1.3 2.8-2.75.8-8.05-1.8-4.65-5.35-7.65-2.3-1.85-4.9-2.55z" id="bj"/><path fill="url(#F)" d="M485.45 353v5.45q0 .65.65.65t.65-.65V353q0-.65-.65-.65t-.65.65z" id="bk"/><path fill="url(#G)" d="M443.4 431q-.15-3.65 1.15-4.35-4.6 2.25-7.3 8.25-2.9 6.5-.45 11.6 1.25 2.75 4.1 2.7 2.75-.05 4.05-2.75.8-1.75.6-4.1-.15-1.55-1.05-4.75-1-3.5-1.1-6.6z" id="bl"/><path fill="url(#H)" d="M437.65 439.1q-.65 1.4-.65 3.3 0 1.95.65 3.3.7 1.35 1.65 1.35 1 0 1.7-1.35.7-1.4.7-3.3t-.7-3.3q-.7-1.35-1.7-1.35-.95 0-1.65 1.35z" id="bm"/><path fill="url(#I)" d="M519.6 428.3q1.05.5.95 2.9-.1 2.1-.9 4.4-.65 2.1-.8 3.1-.2 1.55.45 2.7 1 1.8 3 1.9 2.05.05 3.05-1.75 1.15-1.9.65-4.8-.4-2.7-2.1-5.05-1.75-2.3-4.3-3.4z" id="bn"/><path fill="url(#J)" d="M521.95 440.85q.55.9 1.3.9t1.3-.9q.5-.85.5-2.1 0-1.3-.5-2.2-.55-.9-1.3-.9t-1.3.9q-.55.9-.55 2.2 0 1.25.55 2.1z" id="bo"/><path fill="url(#K)" d="M452.35 424.55q-.05-1.95.8-2.35-2.05.85-3.55 2.75-1.4 1.9-1.8 4.1-.3 2.35.6 4 .8 1.45 2.45 1.4 1.65-.1 2.5-1.55.5-.95.35-2.25-.1-.9-.65-2.55-.65-1.8-.7-3.55z" id="bp"/><path fill="url(#L)" d="M449.05 432.5q.45.7 1.05.7.65 0 1.1-.7.45-.75.45-1.8t-.45-1.75q-.45-.7-1.1-.7-.6 0-1.05.7-.45.7-.45 1.75t.45 1.8z" id="bq"/><path fill="url(#M)" d="M504.05 390.15q-3.5 0-5.9 1.6-2.4 1.6-2.3 3.8.1 2.2 2.7 3.8 2.65 1.6 6.15 1.6 3.5 0 5.9-1.6 2.4-1.6 2.3-3.8-.15-2.2-2.75-3.8-2.6-1.6-6.1-1.6z" id="br"/><path fill="url(#N)" d="M504.05 390.15q-3.5 0-5.9 1.6-2.4 1.6-2.3 3.8.05 1.7 2 3.3 2.3.95 4.85.95 3.5 0 5.9-1.6 2.4-1.6 2.3-3.8-.15-1.8-2.05-3.3-2.2-.95-4.8-.95z" id="bs"/><path fill="url(#O)" d="M500.3 394.7q4.85-3.4 9-1.6-5.05-3.1-10.65-.35-1.45.75-.7 1.9t2.35.05z" id="bt"/><path fill="url(#P)" d="M486.45 408.4q2.95-1.95 2.75-4.65-.15-2.7-3.3-4.65-3.15-1.9-7.4-1.9-4.3 0-7.2 1.9-2.9 1.9-2.8 4.65.15 2.7 3.35 4.65 3.15 1.9 7.4 1.9 4.3 0 7.2-1.9z" id="bu"/><path fill="url(#Q)" d="M478.5 397.2q-4.3 0-7.2 1.9-2.9 1.9-2.8 4.65.15 2.25 2.5 4.05 2.5 1.05 5.85 1.05 4.25 0 7.2-1.9t2.8-4.65q-.25-2.3-2.55-4-2.4-1.1-5.8-1.1z" id="bv"/><path fill="url(#R)" d="M479.35 400.15q2.75-.6 5.55.6-6.15-3.8-12.95-.45-1.75.9-.85 2.35.95 1.4 2.85.05 2.9-2.05 5.4-2.55z" id="bw"/><path fill="url(#S)" d="M496 440.9q-1.85 0-3.1 2-1.3 1.95-1.3 4.7 0 2.8 1.3 4.8 1.25 1.95 3.1 1.95t3.15-1.95q1.3-2 1.3-4.8 0-2.75-1.3-4.7-1.3-2-3.15-2z" id="bx"/><path fill="url(#T)" d="M501.75 459.55q.8 1.25 1.95 1.25 1.1 0 1.9-1.25.8-1.2.8-2.95 0-1.7-.8-2.9t-1.9-1.2q-1.15 0-1.95 1.2t-.8 2.9q0 1.75.8 2.95z" id="by"/><path fill="url(#U)" d="M488.05 468.9q.7 1.1 1.75 1.1 1 0 1.65-1.1.7-1.05.7-2.6 0-1.5-.7-2.5-.65-1.05-1.65-1.05-1.05 0-1.75 1.05-.7 1-.7 2.5 0 1.55.7 2.6z" id="bz"/><path fill="url(#V)" d="M492.45 485.15q.9 1.35 2.15 1.35t2.15-1.35q.9-1.35.9-3.2 0-1.95-.9-3.25-.9-1.35-2.15-1.35t-2.15 1.35q-.85 1.3-.85 3.25 0 1.9.85 3.2z" id="bA"/><path fill="url(#W)" d="M505.7 466.25q.65.95 1.5.95t1.45-.95q.6-.9.6-2.15 0-1.3-.6-2.2-.6-.9-1.45-.9t-1.5.9q-.6.9-.6 2.2 0 1.25.6 2.15z" id="bB"/><path fill="url(#X)" d="M476.25 460.55q.55.8 1.3.8.85 0 1.4-.8.55-.8.55-2t-.55-2.05q-.6-.85-1.4-.85-.75 0-1.3.85t-.55 2.05q0 1.2.55 2z" id="bC"/><path fill="url(#Y)" d="M464.5 484.8q1.05 1.6 2.55 1.6 1.45 0 2.5-1.6 1-1.6 1-3.85 0-2.3-1-3.85-1.05-1.55-2.5-1.55-1.55 0-2.55 1.55-1.05 1.55-1.05 3.85 0 2.25 1.05 3.85z" id="bD"/><path fill="url(#Z)" d="M462.95 461.2q.4.65 1.05.65.6 0 1.05-.65.45-.7.45-1.65 0-.9-.45-1.6-.45-.7-1.05-.7-.6 0-1.05.7-.45.7-.45 1.6 0 1 .45 1.65z" id="bE"/><path fill="url(#aa)" d="M469.35 441.4q-1 1.55-1 3.7 0 2.1 1 3.65.95 1.5 2.35 1.5 1.4 0 2.4-1.5 1-1.55 1-3.65 0-2.15-1-3.7-.95-1.5-2.4-1.5-1.4 0-2.35 1.5z" id="bF"/><path fill="url(#ab)" d="M512.75 441.6q-.65 1.05-.65 2.5t.65 2.45q.7 1.05 1.65 1.05t1.65-1.05q.65-1 .65-2.45 0-1.45-.65-2.5-.7-1.05-1.65-1.05t-1.65 1.05z" id="bG"/><path fill="url(#ac)" d="M460.15 469.35q.8 1.2 1.9 1.2 1.15 0 1.95-1.2t.8-2.9q0-1.75-.8-2.95-.8-1.2-1.95-1.2-1.1 0-1.9 1.2-.8 1.25-.8 2.95 0 1.7.8 2.9z" id="bH"/><path fill="url(#ad)" d="M446.45 458.6q.8 1.15 1.85 1.15 1.1 0 1.9-1.15.8-1.2.8-2.85 0-1.6-.8-2.8-.8-1.15-1.9-1.15-1.05 0-1.85 1.15-.8 1.2-.8 2.8 0 1.65.8 2.85z" id="bI"/><path fill="url(#ae)" d="M520.55 466.55q.75 1.15 1.85 1.15t1.9-1.15q.75-1.15.75-2.8 0-1.7-.75-2.85-.8-1.2-1.9-1.2-1.1 0-1.85 1.2-.75 1.15-.75 2.85 0 1.6.75 2.8z" id="bJ"/></defs><use xlink:href="#af"/><use xlink:href="#ag" transform="matrix(1.60606 0 0 1.60606 -638.995 -511.789)"/><use xlink:href="#ah" transform="matrix(1.60606 0 0 1.60606 -638.995 -511.789)"/><use xlink:href="#ai" transform="matrix(1.60606 0 0 1.60606 -638.995 -511.789)"/><use xlink:href="#aj" transform="matrix(1.60606 0 0 1.60606 -638.995 -511.789)"/><use xlink:href="#ak" transform="matrix(1.60606 0 0 1.60606 -638.995 -511.789)"/><use xlink:href="#al" transform="matrix(1.60606 0 0 1.60606 -638.995 -511.789)"/><use xlink:href="#am" transform="matrix(1.60606 0 0 1.60606 -638.995 -511.789)"/><use xlink:href="#an" transform="matrix(1.60606 0 0 1.60606 -638.995 -511.789)"/><use xlink:href="#ao" transform="matrix(1.60606 0 0 1.60606 -638.995 -511.789)"/><use xlink:href="#ap" transform="matrix(1.60606 0 0 1.60606 -638.995 -511.789)"/><use xlink:href="#aq" transform="matrix(1.60606 0 0 1.60606 -638.995 -511.789)"/><use xlink:href="#ar" transform="matrix(1.60606 0 0 1.60606 -638.995 -511.789)"/><use xlink:href="#as" transform="matrix(1.60606 0 0 1.60606 -638.995 -511.789)"/><use xlink:href="#at" transform="matrix(1.60606 0 0 1.60606 -638.995 -511.789)"/><use xlink:href="#au" transform="matrix(1.60606 0 0 1.60606 -638.995 -511.789)"/><use xlink:href="#av" transform="matrix(1.60606 0 0 1.60606 -638.995 -511.789)"/><use xlink:href="#aw" transform="matrix(1.60606 0 0 1.60606 -638.995 -511.789)"/><use xlink:href="#ax" transform="matrix(1.60606 0 0 1.60606 -638.995 -511.789)"/><use xlink:href="#ay" transform="matrix(1.60606 0 0 1.60606 -638.995 -511.789)"/><use xlink:href="#az" transform="matrix(1.60606 0 0 1.60606 -638.995 -511.789)"/><use xlink:href="#aA" transform="matrix(1.60606 0 0 1.60606 -638.995 -511.789)"/><use xlink:href="#aB" transform="matrix(1.60606 0 0 1.60606 -638.995 -511.789)"/><use xlink:href="#aC" transform="matrix(1.60606 0 0 1.60606 -638.995 -511.789)"/><use xlink:href="#aD" transform="matrix(1.60606 0 0 1.60606 -638.995 -511.789)"/><use xlink:href="#aE" transform="matrix(1.60606 0 0 1.60606 -638.995 -511.789)"/><use xlink:href="#aF" transform="matrix(1.60606 0 0 1.60606 -638.995 -511.789)"/><use xlink:href="#aG" transform="matrix(1.60606 0 0 1.60606 -638.995 -511.789)"/><use xlink:href="#aH" transform="matrix(1.60606 0 0 1.60606 -638.995 -511.789)"/><use xlink:href="#aI" transform="matrix(1.60606 0 0 1.60606 -638.995 -511.789)"/><use xlink:href="#aJ" transform="matrix(1.60606 0 0 1.60606 -638.995 -511.789)"/><use xlink:href="#aK" transform="matrix(1.60606 0 0 1.60606 -638.995 -511.789)"/><use xlink:href="#aL" transform="matrix(1.60606 0 0 1.60606 -638.995 -511.789)"/><use xlink:href="#aM" transform="matrix(1.60606 0 0 1.60606 -638.995 -511.789)"/><use xlink:href="#aN" transform="matrix(1.60606 0 0 1.60606 -638.995 -511.789)"/><use xlink:href="#aO" transform="matrix(1.60606 0 0 1.60606 -638.995 -511.789)"/><use xlink:href="#aP" transform="matrix(1.60606 0 0 1.60606 -638.995 -511.789)"/><use xlink:href="#aQ" transform="matrix(1.60606 0 0 1.60606 -638.995 -511.789)"/><use xlink:href="#aR" transform="matrix(1.60606 0 0 1.60606 -638.995 -511.789)"/><use xlink:href="#aS" transform="matrix(1.60606 0 0 1.60606 -638.995 -511.789)"/><use xlink:href="#aT" transform="matrix(1.60606 0 0 1.60606 -638.995 -511.789)"/><use xlink:href="#aU" transform="matrix(1.60606 0 0 1.60606 -638.995 -511.789)"/><use xlink:href="#aV" transform="matrix(1.60606 0 0 1.60606 -638.995 -511.789)"/><use xlink:href="#aW" transform="matrix(1.60606 0 0 1.60606 -638.995 -511.789)"/><use xlink:href="#aX" transform="matrix(1.60606 0 0 1.60606 -638.995 -511.789)"/><use xlink:href="#aY" transform="matrix(1.60606 0 0 1.60606 -638.995 -511.789)"/><use xlink:href="#aZ" transform="matrix(1.60606 0 0 1.60606 -638.995 -511.789)"/><use xlink:href="#ba" transform="matrix(1.60606 0 0 1.60606 -638.995 -511.789)"/><use xlink:href="#bb" transform="matrix(1.60606 0 0 1.60606 -638.995 -511.789)"/><use xlink:href="#bc" transform="matrix(1.60606 0 0 1.60606 -638.995 -511.789)"/><use xlink:href="#bd" transform="matrix(1.60606 0 0 1.60606 -638.995 -511.789)"/><use xlink:href="#be" transform="matrix(1.60606 0 0 1.60606 -638.995 -511.789)"/><use xlink:href="#bf" transform="matrix(1.60606 0 0 1.60606 -638.995 -511.789)"/><use xlink:href="#bg" transform="matrix(1.60606 0 0 1.60606 -638.995 -511.789)"/><use xlink:href="#bh" transform="matrix(1.60606 0 0 1.60606 -638.995 -511.789)"/><use xlink:href="#bi" transform="matrix(1.60606 0 0 1.60606 -638.995 -511.789)"/><use xlink:href="#bj" transform="matrix(1.60606 0 0 1.60606 -638.995 -511.789)"/><use xlink:href="#bk" transform="matrix(1.60606 0 0 1.60606 -638.995 -511.789)"/><use xlink:href="#bl" transform="matrix(1.60606 0 0 1.60606 -638.995 -511.789)"/><use xlink:href="#bm" transform="matrix(1.60606 0 0 1.60606 -638.995 -511.789)"/><use xlink:href="#bn" transform="matrix(1.60606 0 0 1.60606 -638.995 -511.789)"/><use xlink:href="#bo" transform="matrix(1.60606 0 0 1.60606 -638.995 -511.789)"/><use xlink:href="#bp" transform="matrix(1.60606 0 0 1.60606 -638.995 -511.789)"/><use xlink:href="#bq" transform="matrix(1.60606 0 0 1.60606 -638.995 -511.789)"/><use xlink:href="#br" transform="matrix(1.60606 0 0 1.60606 -638.995 -511.789)"/><use xlink:href="#bs" transform="matrix(1.60606 0 0 1.60606 -638.995 -511.789)"/><use xlink:href="#bt" transform="matrix(1.60606 0 0 1.60606 -638.995 -511.789)"/><use xlink:href="#bu" transform="matrix(1.60606 0 0 1.60606 -638.995 -511.789)"/><use xlink:href="#bv" transform="matrix(1.60606 0 0 1.60606 -638.995 -511.789)"/><use xlink:href="#bw" transform="matrix(1.60606 0 0 1.60606 -638.995 -511.789)"/><use xlink:href="#bx" transform="matrix(1.60606 0 0 1.60606 -638.995 -511.789)"/><use xlink:href="#by" transform="matrix(1.60606 0 0 1.60606 -638.995 -511.789)"/><use xlink:href="#bz" transform="matrix(1.60606 0 0 1.60606 -638.995 -511.789)"/><use xlink:href="#bA" transform="matrix(1.60606 0 0 1.60606 -638.995 -511.789)"/><use xlink:href="#bB" transform="matrix(1.60606 0 0 1.60606 -638.995 -511.789)"/><use xlink:href="#bC" transform="matrix(1.60606 0 0 1.60606 -638.995 -511.789)"/><use xlink:href="#bD" transform="matrix(1.60606 0 0 1.60606 -638.995 -511.789)"/><use xlink:href="#bE" transform="matrix(1.60606 0 0 1.60606 -638.995 -511.789)"/><use xlink:href="#bF" transform="matrix(1.60606 0 0 1.60606 -638.995 -511.789)"/><use xlink:href="#bG" transform="matrix(1.60606 0 0 1.60606 -638.995 -511.789)"/><use xlink:href="#bH" transform="matrix(1.60606 0 0 1.60606 -638.995 -511.789)"/><use xlink:href="#bI" transform="matrix(1.60606 0 0 1.60606 -638.995 -511.789)"/><use xlink:href="#bJ" transform="matrix(1.60606 0 0 1.60606 -638.995 -511.789)"/></svg>