<svg xmlns="http://www.w3.org/2000/svg" xmlns:xlink="http://www.w3.org/1999/xlink" preserveAspectRatio="none" width="284" height="320"><defs><linearGradient id="a" gradientUnits="userSpaceOnUse" x1="71.838" y1="461.238" x2="36.662" y2="430.662" spreadMethod="pad"><stop offset="0%" stop-color="#BACD41"/><stop offset="100%" stop-color="#E1E99E"/></linearGradient><linearGradient id="b" gradientUnits="userSpaceOnUse" x1="82.45" y1="454.125" x2="37.35" y2="412.075" spreadMethod="pad"><stop offset="0%" stop-color="#D4E065"/><stop offset="100%" stop-color="#F1F5D6"/></linearGradient><linearGradient id="c" gradientUnits="userSpaceOnUse" x1="87.813" y1="456.15" x2="56.287" y2="428.75" spreadMethod="pad"><stop offset="0%" stop-color="#BACD41"/><stop offset="100%" stop-color="#DEE68C"/></linearGradient><linearGradient id="d" gradientUnits="userSpaceOnUse" x1="85.713" y1="454.063" x2="60.788" y2="433.138" spreadMethod="pad"><stop offset="0%" stop-color="#D4E065"/><stop offset="41.176%" stop-color="#DEE68C"/><stop offset="100%" stop-color="#F1F5D6"/></linearGradient><linearGradient id="e" gradientUnits="userSpaceOnUse" x1="75.075" y1="452.337" x2="76.725" y2="458.063" spreadMethod="pad"><stop offset="0%" stop-color="#A4BE41"/><stop offset="100%" stop-color="#C3D364"/></linearGradient><linearGradient id="f" gradientUnits="userSpaceOnUse" x1="78.463" y1="457.563" x2="74.338" y2="452.638" spreadMethod="pad"><stop offset="0%" stop-color="#9CDBF8"/><stop offset="100%" stop-color="#CDECFB"/></linearGradient><linearGradient id="g" gradientUnits="userSpaceOnUse" x1="77.638" y1="456.363" x2="73.263" y2="451.137" spreadMethod="pad"><stop offset="0%" stop-color="#ECF7FD"/><stop offset="38.824%" stop-color="#CFEDFB"/><stop offset="100%" stop-color="#B2E3F9"/></linearGradient><linearGradient id="h" gradientUnits="userSpaceOnUse" x1="77.462" y1="456.512" x2="73.237" y2="451.088" spreadMethod="pad"><stop offset="0%" stop-color="#FFF"/><stop offset="38.824%" stop-color="#E1F3FC"/><stop offset="100%" stop-color="#CDECFB"/></linearGradient><linearGradient id="i" gradientUnits="userSpaceOnUse" x1="55.563" y1="438.213" x2="58.338" y2="447.887" spreadMethod="pad"><stop offset="0%" stop-color="#BACD41"/><stop offset="100%" stop-color="#D4E065"/></linearGradient><linearGradient id="j" gradientUnits="userSpaceOnUse" x1="61.1" y1="447" x2="54.3" y2="438.6" spreadMethod="pad"><stop offset="0%" stop-color="#9CDBF8"/><stop offset="100%" stop-color="#CDECFB"/></linearGradient><linearGradient id="k" gradientUnits="userSpaceOnUse" x1="59.725" y1="445.113" x2="52.675" y2="436.088" spreadMethod="pad"><stop offset="0%" stop-color="#E4F4FC"/><stop offset="38.824%" stop-color="#B5E3F9"/><stop offset="100%" stop-color="#82D4F6"/></linearGradient><linearGradient id="l" gradientUnits="userSpaceOnUse" x1="59.112" y1="444.75" x2="52.188" y2="435.55" spreadMethod="pad"><stop offset="0%" stop-color="#FFF"/><stop offset="38.824%" stop-color="#E1F3FC"/><stop offset="100%" stop-color="#B5E3F9"/></linearGradient><linearGradient id="m" gradientUnits="userSpaceOnUse" x1="156.862" y1="422.45" x2="181.537" y2="384.45" spreadMethod="pad"><stop offset="0%" stop-color="#82A43F"/><stop offset="100%" stop-color="#BACD41"/></linearGradient><linearGradient id="n" gradientUnits="userSpaceOnUse" x1="149.738" y1="407.663" x2="175.863" y2="368.938" spreadMethod="pad"><stop offset="0%" stop-color="#ACC341"/><stop offset="100%" stop-color="#D4E065"/></linearGradient><linearGradient id="o" gradientUnits="userSpaceOnUse" x1="140.625" y1="421.588" x2="164.275" y2="380.613" spreadMethod="pad"><stop offset="0%" stop-color="#9CB841"/><stop offset="100%" stop-color="#BACD41"/></linearGradient><linearGradient id="p" gradientUnits="userSpaceOnUse" x1="141.138" y1="419.65" x2="157.963" y2="393.75" spreadMethod="pad"><stop offset="0%" stop-color="#BACD41"/><stop offset="29.804%" stop-color="#CEDD51"/><stop offset="100%" stop-color="#E8EDB0"/></linearGradient><linearGradient id="q" gradientUnits="userSpaceOnUse" x1="114.487" y1="478.538" x2="95.112" y2="474.063" spreadMethod="pad"><stop offset="0%" stop-color="#F7B8CE"/><stop offset="100%" stop-color="#FFF"/></linearGradient><linearGradient id="r" gradientUnits="userSpaceOnUse" x1="107.45" y1="481.55" x2="85.55" y2="479.25" spreadMethod="pad"><stop offset="0%" stop-color="#F7B8CE"/><stop offset="100%" stop-color="#FFF"/></linearGradient><linearGradient id="s" gradientUnits="userSpaceOnUse" x1="110.313" y1="484.738" x2="87.988" y2="488.662" spreadMethod="pad"><stop offset="0%" stop-color="#F7B8CE"/><stop offset="100%" stop-color="#FFF"/></linearGradient><linearGradient id="t" gradientUnits="userSpaceOnUse" x1="126.463" y1="484.262" x2="149.838" y2="482.637" spreadMethod="pad"><stop offset="0%" stop-color="#F7B8CE"/><stop offset="100%" stop-color="#FFF"/></linearGradient><linearGradient id="u" gradientUnits="userSpaceOnUse" x1="130.488" y1="483.438" x2="111.112" y2="478.962" spreadMethod="pad"><stop offset="0%" stop-color="#F076A8"/><stop offset="100%" stop-color="#FFF"/></linearGradient><linearGradient id="v" gradientUnits="userSpaceOnUse" x1="124.45" y1="486.65" x2="102.55" y2="484.35" spreadMethod="pad"><stop offset="0%" stop-color="#F076A8"/><stop offset="100%" stop-color="#FFF"/></linearGradient><linearGradient id="w" gradientUnits="userSpaceOnUse" x1="127.313" y1="489.738" x2="104.988" y2="493.662" spreadMethod="pad"><stop offset="0%" stop-color="#F076A8"/><stop offset="100%" stop-color="#FFF"/></linearGradient><linearGradient id="x" gradientUnits="userSpaceOnUse" x1="142.463" y1="489.363" x2="165.838" y2="487.738" spreadMethod="pad"><stop offset="0%" stop-color="#F076A8"/><stop offset="100%" stop-color="#FFF"/></linearGradient><linearGradient id="y" gradientUnits="userSpaceOnUse" x1="139.975" y1="410.838" x2="78.025" y2="416.262" spreadMethod="pad"><stop offset="0%" stop-color="#FFCB31"/><stop offset="100%" stop-color="#FFECAC"/></linearGradient><linearGradient id="z" gradientUnits="userSpaceOnUse" x1="160.088" y1="442.587" x2="116.612" y2="422.313" spreadMethod="pad"><stop offset="0%" stop-color="#F0B732"/><stop offset="100%" stop-color="#FFCB31"/></linearGradient><linearGradient id="A" gradientUnits="userSpaceOnUse" x1="90.55" y1="408.425" x2="92.15" y2="439.175" spreadMethod="pad"><stop offset="0%" stop-color="#FFECAC"/><stop offset="100%" stop-color="#FFF2CF"/></linearGradient><linearGradient id="B" gradientUnits="userSpaceOnUse" x1="80.5" y1="386.9" x2="58.9" y2="386.9" spreadMethod="pad"><stop offset="0%" stop-color="#ED3E94"/><stop offset="100%" stop-color="#F6ABC5"/></linearGradient><linearGradient id="C" gradientUnits="userSpaceOnUse" x1="102.912" y1="356.363" x2="80.287" y2="374.037" spreadMethod="pad"><stop offset="0%" stop-color="#FFDA71"/><stop offset="100%" stop-color="#FFCF45"/></linearGradient><linearGradient id="D" gradientUnits="userSpaceOnUse" x1="120.888" y1="439.7" x2="153.213" y2="422.5" spreadMethod="pad"><stop offset="0%" stop-color="#FFECAC"/><stop offset="100%" stop-color="#FFD55B"/></linearGradient><linearGradient id="E" gradientUnits="userSpaceOnUse" x1="65.075" y1="388.212" x2="77.425" y2="380.788" spreadMethod="pad"><stop offset="0%" stop-color="#F6B1C8"/><stop offset="100%" stop-color="#F287B1"/></linearGradient><linearGradient id="F" gradientUnits="userSpaceOnUse" x1="63.075" y1="386.975" x2="70.225" y2="377.825" spreadMethod="pad"><stop offset="0%" stop-color="#F6B1C8"/><stop offset="100%" stop-color="#FFF"/></linearGradient><linearGradient id="G" gradientUnits="userSpaceOnUse" x1="99.313" y1="452.8" x2="105.787" y2="457.5" spreadMethod="pad"><stop offset="0%" stop-color="#FFE192"/><stop offset="100%" stop-color="#FFFBDE"/></linearGradient><linearGradient id="H" gradientUnits="userSpaceOnUse" x1="107.412" y1="450.613" x2="114.287" y2="454.588" spreadMethod="pad"><stop offset="0%" stop-color="#FFDE7C"/><stop offset="100%" stop-color="#FFFBD6"/></linearGradient><linearGradient id="I" gradientUnits="userSpaceOnUse" x1="108.225" y1="460.15" x2="115.775" y2="463.05" spreadMethod="pad"><stop offset="0%" stop-color="#FFDE7C"/><stop offset="100%" stop-color="#FFFBD6"/></linearGradient><linearGradient id="J" gradientUnits="userSpaceOnUse" x1="117.375" y1="457.275" x2="125.325" y2="458.525" spreadMethod="pad"><stop offset="0%" stop-color="#FFDE7C"/><stop offset="100%" stop-color="#FFFBD6"/></linearGradient><linearGradient id="K" gradientUnits="userSpaceOnUse" x1="122.5" y1="465.8" x2="130.5" y2="465.8" spreadMethod="pad"><stop offset="0%" stop-color="#FFDE7C"/><stop offset="100%" stop-color="#FFFBD6"/></linearGradient><linearGradient id="L" gradientUnits="userSpaceOnUse" x1="114.3" y1="447.05" x2="122" y2="449.25" spreadMethod="pad"><stop offset="0%" stop-color="#FFDE7C"/><stop offset="100%" stop-color="#FFFBD6"/></linearGradient><linearGradient id="M" gradientUnits="userSpaceOnUse" x1="131.512" y1="460.137" x2="139.488" y2="459.863" spreadMethod="pad"><stop offset="0%" stop-color="#FFDE7C"/><stop offset="100%" stop-color="#FFFBD6"/></linearGradient><linearGradient id="N" gradientUnits="userSpaceOnUse" x1="94" y1="371.525" x2="94" y2="380.375" spreadMethod="pad"><stop offset="0%" stop-color="#0076BB"/><stop offset="100%" stop-color="#9CDBF8"/></linearGradient><linearGradient id="O" gradientUnits="userSpaceOnUse" x1="97.487" y1="379.2" x2="91.013" y2="379.2" spreadMethod="pad"><stop offset="0%" stop-color="#9CDBF8"/><stop offset="49.02%" stop-color="#FFF"/><stop offset="100%" stop-color="#9CDBF8"/></linearGradient><linearGradient id="P" gradientUnits="userSpaceOnUse" x1="159.213" y1="473.125" x2="179.987" y2="448.375" spreadMethod="pad"><stop offset="0%" stop-color="#ACC341"/><stop offset="100%" stop-color="#BACD41"/></linearGradient><linearGradient id="Q" gradientUnits="userSpaceOnUse" x1="155.9" y1="462.412" x2="178" y2="436.988" spreadMethod="pad"><stop offset="0%" stop-color="#BACD41"/><stop offset="100%" stop-color="#E8EDB0"/></linearGradient><linearGradient id="R" gradientUnits="userSpaceOnUse" x1="148.287" y1="471.375" x2="169.213" y2="443.625" spreadMethod="pad"><stop offset="0%" stop-color="#ACC341"/><stop offset="100%" stop-color="#CBDB41"/></linearGradient><linearGradient id="S" gradientUnits="userSpaceOnUse" x1="148.875" y1="470.013" x2="163.425" y2="452.688" spreadMethod="pad"><stop offset="0%" stop-color="#D4E065"/><stop offset="29.804%" stop-color="#DEE68C"/><stop offset="100%" stop-color="#E8EDB0"/></linearGradient><linearGradient id="T" gradientUnits="userSpaceOnUse" x1="168.775" y1="452.325" x2="166.825" y2="459.575" spreadMethod="pad"><stop offset="0%" stop-color="#ACC341"/><stop offset="100%" stop-color="#BACD41"/></linearGradient><linearGradient id="U" gradientUnits="userSpaceOnUse" x1="164.475" y1="457.537" x2="169.225" y2="451.863" spreadMethod="pad"><stop offset="0%" stop-color="#9CDBF8"/><stop offset="100%" stop-color="#CDECFB"/></linearGradient><linearGradient id="V" gradientUnits="userSpaceOnUse" x1="165.725" y1="455.712" x2="170.775" y2="449.688" spreadMethod="pad"><stop offset="0%" stop-color="#E4F4FC"/><stop offset="38.824%" stop-color="#B5E3F9"/><stop offset="100%" stop-color="#62CCF4"/></linearGradient><linearGradient id="W" gradientUnits="userSpaceOnUse" x1="166.337" y1="455.425" x2="171.063" y2="449.375" spreadMethod="pad"><stop offset="0%" stop-color="#FFF"/><stop offset="38.824%" stop-color="#E4F4FC"/><stop offset="100%" stop-color="#B5E3F9"/></linearGradient><linearGradient id="X" gradientUnits="userSpaceOnUse" x1="141.738" y1="417.425" x2="142.363" y2="429.175" spreadMethod="pad"><stop offset="0%" stop-color="#FFECAC"/><stop offset="100%" stop-color="#FFF2CF"/></linearGradient><linearGradient id="Y" gradientUnits="userSpaceOnUse" x1="136.2" y1="419.237" x2="137.7" y2="433.563" spreadMethod="pad"><stop offset="0%" stop-color="#FFECB2"/><stop offset="100%" stop-color="#FFF2CF"/></linearGradient><linearGradient id="Z" gradientUnits="userSpaceOnUse" x1="120.5" y1="424.85" x2="137.2" y2="437.45" spreadMethod="pad"><stop offset="0%" stop-color="#FFF1C0"/><stop offset="100%" stop-color="#FFF2CF"/></linearGradient><path fill="#FFF" fill-opacity="0" d="M0 320h284V0H0v320z" id="aa"/><path fill="url(#a)" d="M60.1 433.35q-6.05-5.8-8.75-7.55-2.5-1.65-20.05-9.9 3.8 2.65 6 11.9.35 1.3 2.85 16.05 1.45 8.4 6.6 14.9 4.95 6.2 12.1 9.25 7.2 3.05 14.8 2.05 8.05-1.05 14.75-6.6.15-8-10.1-16.55-12.9-9.1-18.2-13.55z" id="ab"/><path fill="url(#b)" d="M86.5 432.7q-.4-2.4-2.7-6.15-2.4-3.9-5-6.25 1.35 3.15 1 4.9-1.95-3.45-5.85-5.9-3.9-2-4.65-2.45 2.55 3.2 2.9 4.9-7-4.4-20.25-4.6-7.15.05-10.6-.05-6.05-.1-10.05-1.05 3.45 2.8 6.85 10.85 3.4 8.1 6.95 11-.85.1-2.2-.5-1.35-.55-2.4-1.45 2.25 4.65 4.45 7.2 1.6 1.9 4.7 4.1-3.25-.1-5.1-1.75 2.5 4.25 5.5 6.55 3.2 2.45 7.3 3.05-1.6.9-1.95 1-1.15.4-3.1.35 5.35 3.1 8.2 4.2 3.3 1.25 6.45 1.05-1.05.55-2.9.95-2.25.45-2.6.6 3.55 1.55 6.35 1.95 3.8.55 7.75-.7-.4.8-2.45 1.6-2.3.8-2.95 1.1 2.9 1.3 8.35.1 4.9-1.05 8.75-3.35 2.8 1.2 4.85 8.65t1.1 12.75q.45-.15 1.3-.05.9.1 1.3.05.4-5.9-1.35-12.4-1.95-7.35-5.7-10.5 4.8-5.4 5.85-14 .95-7.85-1.55-10.5.35 2.95-1.7 5.75.6-4.75-1.3-10-1.6-4.55-3.7-6.25.5 1.85.15 5.25z" id="ac"/><path fill="url(#c)" d="M86.65 462.85q3.55-1.7 3.05-5.45-.45-3.45-1.6-6.25-.85-2.05-2.4-4.35-8.7-13.75-19.2-19.7-10.2-5.75-27.2-6.85 10.25 3.5 18.8 11.5 7 6.55 15.95 19.45.65.95 2.75 4.6 1.8 3.05 3.8 5.65 2.45 3.05 6.05 1.4z" id="ad"/><path fill="url(#d)" d="M85.35 459.85q.6 1.4 1.65 1.15 1.05-.25.5-1.75-5.55-15.25-19.55-26.5-13.85-11.1-28.65-12.5Q54.45 424 66 433.55q12.5 10.35 19.35 26.3z" id="ae"/><path fill="#E1E99E" d="M67.9 456.5q-5.35 1.25-11-.1 5.55 2.25 11.15 1.55 4.95-.65 9.45-3.45.95-.55.55-1.4-.45-.8-1.7-.1-4.5 2.55-8.45 3.5z" id="af"/><path fill="#EBF1C3" d="M59.4 441.05q-6.7.4-11.4-2.5 4.85 3.55 11.15 3.75 4.45.2 10.25-1.4 1-.25.85-1.15-.15-.9-1.6-.5-5.3 1.6-9.25 1.8z" id="ag"/><path fill="#D8E37A" d="M84.7 436.65q1.15 4.1.9 7.1-.2 2.55-1.55 5.3-.4.9.15 1.25.55.3.9-.3 1.6-2.75 1.45-6.45-.15-3.6-1.85-6.9z" id="ah"/><path fill="#E1E99E" d="M81.2 443.95q1.15-3.55.85-7.05-.4-4.2-2.8-7.45 3.35 6.5.7 13.9-.25.85.4 1.05.65.25.85-.45z" id="ai"/><path fill="#E8EDB0" d="M70.95 423.5q1.95 2.7 2.8 6.15.7 2.9.45 5.65-.05.85.35.85.35.05.5-.5.6-2.8-.6-6.35t-3.5-5.8z" id="aj"/><path fill="url(#e)" d="M72.75 450.75q-1.25 1-1.35 2.8-.05 1.85 1.15 3.4 1.25 1.6 3.05 2.05 1.75.45 3.05-.5 1.35-.95 1.4-2.8.1-1.85-1.15-3.4-1.25-1.55-3.05-2.05-1.8-.45-3.1.5z" id="ak"/><path fill="url(#f)" d="M72.75 450.4q-1.15.95-1.2 2.55-.1 1.65 1 3.1 1.15 1.4 2.75 1.75 1.6.4 2.7-.5 1.2-.85 1.25-2.5.1-1.6-1-3-1.15-1.45-2.75-1.85-1.65-.4-2.75.45z" id="al"/><path fill="url(#g)" d="M73 450.65q-1.1.75-1.15 2.1-.1 1.35.9 2.7.8 1.05 2.2 1.55 1.6.5 2.65-.3 1.1-.8 1.15-2.35 0-1.5-1-2.8-.95-1.25-2.35-1.5-1.35-.25-2.4.6z" id="am"/><path fill="url(#h)" d="M75.3 449.9q-1.5-.35-2.6.45t-1.1 2.3q-.05 1.55.95 2.85.9 1.2 2.4 1.6 1.7.45 2.85-.55-.95.45-2.45.05-1.9-.65-2.35-3.1-.3-1.55.65-2.4.9-.75 2.3-.45 1.1.1 1.9 1.15l-.1-.25q-1-1.3-2.45-1.65z" id="an"/><path fill="#FFF" d="M74.2 450.55q-.5.5.15 1.3.8.6 1.35.15.55-.55-.15-1.3-.75-.65-1.35-.15z" id="ao"/><path fill="#E8EDB0" d="M64.3 448.9q-6.1.7-12.65-1.6 12 5.9 23.25.3 1.1-.45.85-1.2-.3-.8-1.85-.15-5.8 2.2-9.6 2.65z" id="ap"/><path fill="url(#i)" d="M51.8 435.65q-2.2 1.55-2.35 4.6-.15 3.05 1.85 5.75t5 3.5q3.05.85 5.25-.75 2.2-1.55 2.4-4.6.15-3.05-1.85-5.75-2-2.75-5-3.55-3-.8-5.3.8z" id="aq"/><path fill="url(#j)" d="M51.8 435.1q-2 1.4-2.1 4.1-.15 2.7 1.7 5.15 1.75 2.45 4.45 3.15 2.65.75 4.65-.7 1.95-1.4 2.1-4.15.15-2.75-1.65-5.15-1.75-2.4-4.45-3.15-2.7-.7-4.7.75z" id="ar"/><path fill="url(#k)" d="M52.25 435.3q-1.85 1.3-2.05 3.55-.2 2.35 1.45 4.6 1.4 1.8 3.7 2.6 2.6 1 4.45-.3 1.85-1.35 1.95-3.85.15-2.55-1.5-4.8-1.65-2.2-3.9-2.65-2.25-.5-4.1.85z" id="as"/><path fill="url(#l)" d="M51.75 434.85q-1.85 1.3-1.95 3.9-.15 2.55 1.5 4.75 1.5 2.05 4 2.8 2.75.8 4.8-.85-1.9.95-4.05.05-3.1-1.25-3.9-5.3-.45-2.55 1.25-3.95 1.55-1.3 3.8-.8 1.8.3 3.25 2l-.2-.35q-1.7-2.25-4.15-2.9-2.5-.7-4.35.65z" id="at"/><path fill="#FFF" d="M54.35 435.3q-.45.4-.4 1 .05.6.6 1.1.5.55 1.15.65.65.1 1.1-.3.4-.4.3-1-.05-.65-.55-1.15-.5-.5-1.15-.6-.65-.05-1.05.3z" id="au"/><path fill="url(#m)" d="M179.85 369.65q-13.5 12.4-15.4 14.65-1.9 2.35-5.8 9.25-3.5 5.5-12.65 17.4-6.85 10.6-4.5 17.8 9.3 3.75 17.15 3.25 8.45-.6 13.85-6.15 4.5-4.6 6.6-12.45 2.15-8.15.6-15.9-1.45-7.45-1.55-15.35-.1-8.7 1.7-12.5z" id="av"/><path fill="url(#n)" d="M138.05 387q-1.95 3.25-3.1 6.4-1.4 3.7-1.15 5.8-.35-.9-.45-1.75-.05-.3-.1-1.85-1.45 2.15-1.65 6.75-.25 5.25 1.65 9.4-.55-.4-1.55-2.2-1.2-2.15-1.35-4-2.5 5.45.95 12.75 3.45 7.4 9.95 10.3 4.55 2.1 9.5 1.7 5.1-.45 8.25-3.35-1.8-.05-2.9-.15-2.1-.15-2.7-.7 3.9 0 7.25-1.55 2.5-1.15 5.2-3.5-.5-.05-2.55.15-1.75.2-2.85 0 2.95-.8 5.55-2.8 2.3-1.85 6.2-6.1-1.75.65-2.9.6-.45-.05-2.05-.45 6.8-3.25 8.9-12.2-.7 1.05-1.45 1.65-1 .75-2.7 1.3 2.2-2.85 3.15-5.05 1.25-2.95 2-7.8-1.95 2.8-3.65 3.1 2.4-3.6 3.2-11.9.85-8.25 3.2-11.8-3.35 1.95-8.85 3.8-6.55 2-9.8 3.1-12.2 4-17.3 10.05-.15-.8.55-2.75.15-.3 1.15-2.8-.55.6-3.55 3.5-2.85 3.35-3.6 7.1-.85-1.4-.45-4.75z" id="aw"/><path fill="url(#o)" d="M160.05 391.55q5.5-9.65 13.75-15.75-15.05 5.8-22.7 13.95-7.9 8.35-11.9 23.2-1.5 5.45-.55 10.7.6 3.55 4.3 4.05 3.65.5 5-3 1.05-2.8 1.85-6.1.9-3.85 1.25-5 4.5-14.1 9-22.05z" id="ax"/><path fill="url(#p)" d="M153.4 395.45q7.8-11.95 20.4-19.65-12.95 5.5-22.4 19.45-9.5 14.1-10.3 29.4-.05 1.55.95 1.5 1.05-.1 1.2-1.5 1.75-16.35 10.15-29.2z" id="ay"/><path fill="#CEDD51" d="M147.15 415.9q-1.4-.3-1.5.55-.15.85.85 1.15 4.85 1.25 9.5.45 5.25-.95 9.65-4.55-8.1 4.8-18.5 2.4z" id="az"/><path fill="#D4E065" d="M159.25 408.85q-3.6.65-9.5.25-1.6-.1-1.6.65-.05.8 1.1.9 11.7 1.85 21-6.8-5.25 3.95-11 5z" id="aA"/><path fill="#DEE68C" d="M161.5 400.35q-3.45.85-8.95 1.05-1.45 0-1.3.85.15.85 1.15.8 5.65-.25 9.65-1.65 5.6-1.95 9.05-6.5-3.45 3.95-9.6 5.45z" id="aB"/><path fill="#CEDD51" d="M138.5 410.15q-1.05-2.65-1.25-6.6-.55 3.4.3 6.7.95 3.4 3.1 5.4.5.45.9.05.4-.45-.25-1.15-1.9-2.15-2.8-4.4z" id="aC"/><path fill="#D4E065" d="M143.45 409.25q.55-.4 0-1.05-4.45-5.8-3.2-12.8-1.25 3.65-.45 7.55.7 3.3 2.75 6.15.35.55.9.15z" id="aD"/><path fill="#DEE68C" d="M145.25 394.05q-.2-3.4.8-6.35-1.5 2.7-1.6 6.25-.05 3.5 1.25 5.9.3.5.65.35.35-.15.05-.85-.95-2.4-1.15-5.3z" id="aE"/><path fill="#F7B8CE" d="M98.55 478.9q-1 .35-1.25 1.25-.2.95.4 1.75.7.9 2.15 1.05.35 0 5.75.3-1.05.05-2.15.25-2.15.35-2.75 1.4-.8 1.4.15 2.45.9.95 2.45.85 2.5-.2 8.95-1.9 6.05-1.6 7.9-1.6 1.25 0 3.3.4 1.15.25 3.55.8 1.1.25 3.4 1.1 2.05.6 3.55.15 3.1-.85 2.15-3.05-.3-.75-.85-1.2-.6-.45-1.3-.3-1.05.3-3.2-.15-2.2-.55-2.7-.7-2.15-.65-2.4-1.95-.05-.35.3-3.45.55-4 .4-7.8-.15-3.4-.9-7.75l-4.65 3.1q1.8 6.5.7 13.3-3.2.7-6.95-.3-3.8-1.35-5.3-1.7-3.85-1-4.6.5-.65 1.3-.05 2.25t2.3 1.25q-.65-.1-2.9-.2-2.2-.15-2.65-.2-1.7-.35-2.8.1z" id="aF"/><path fill="url(#q)" d="M107.85 475.75q-.95-.1-1.65.15-.7.2-.75.7-.05.5.55.95.6.5 1.45.6 1.2.2 3.15.1 2.2-.05 2.25-.5.1-.45-2-1.15-1.75-.65-3-.85z" id="aG"/><path fill="url(#r)" d="M101 479.65q-.9-.05-1.6.25-.7.35-.7.85-.1.45.55.85.6.4 1.5.4 1.2.1 3.15-.15 2.2-.25 2.25-.7.05-.45-2.1-1-1.85-.45-3.05-.5z" id="aH"/><path fill="url(#s)" d="M103.95 484.6q-.95.2-1.55.6-.6.45-.55.9.05.55.75.8.65.25 1.55.15 1.25-.15 3.05-.75 2.1-.7 2.05-1.2-.05-.45-2.2-.55-1.9-.1-3.1.05z" id="aI"/><path fill="url(#t)" d="M134.3 482.85q-.75-.3-1.65-.25-1.15.05-3 .55-2.15.5-2.15.95.05.45 2.25.75 1.9.25 3.15.2.9-.05 1.55-.45.6-.4.6-.9-.1-.5-.75-.85z" id="aJ"/><path fill="#FFDA71" d="M92.05 354.5q4.25 1.9 9 .1 5.1-1.95 4.6-6.85-.3 1.5-1.5 2.65-1.25 1.25-3 1.45 2-1.15 2.3-3.8.2-1.9-.35-3.25.15 3.55-3.8 6.4-2.95 2.15-7.25 3.3z" id="aK"/><path fill="#F076A8" d="M120.65 484.05q-2.2-.1-2.65-.25-1.65-.3-2.75.15-1 .4-1.25 1.3-.2.9.4 1.7.7.9 2.15 1.05.25.05 2.75.2 2.353.141 2.9.15-.984.006-2.05.2-2.15.4-2.75 1.4-.8 1.4.15 2.45.85.95 2.35.85 2.6-.15 9-1.9 6.1-1.6 7.95-1.6 1.25 0 3.25.4 1.15.25 3.6.8 4.15.95 6.95.2 3.1-.75 2.2-3.1-.35-.7-.9-1.1-.65-.45-1.35-.3-1.3.3-3.25.35-1.9.1-2.65-.15-2.15-.75-2.35-2.05-.05-.3.35-3.35.5-4.05.35-7.8-.15-3.35-.9-7.75l-4.65 3.1q1.7 6.05.7 13.25-3.2.65-6.95-.35-3.85-1.25-5.3-1.6-2.05-.5-3.05-.45-1.2.1-1.6.95-.65 1.25 0 2.2.6.9 2.3 1.3-.6-.1-2.95-.25z" id="aL"/><path fill="url(#u)" d="M124.55 480.85q-.95-.15-1.65.1-.65.2-.75.7-.1.55.5 1 .55.45 1.5.6 1.2.2 3.15.15 2.2-.05 2.25-.5.05-.5-2-1.25-1.85-.65-3-.8z" id="aM"/><path fill="url(#v)" d="M117.6 484.7q-.9-.05-1.55.25t-.75.8q-.05.55.6.95.65.35 1.6.45 1.2.05 3.1-.2 2.2-.3 2.2-.75.05-.45-2.1-.95-1.9-.5-3.1-.55z" id="aN"/><path fill="url(#w)" d="M120.55 489.75q-.9.1-1.5.55-.6.45-.55.95.05.5.75.75t1.6.1q1.2-.15 3.05-.75 2.1-.65 2.05-1.1-.05-.45-2.25-.55-1.9-.1-3.15.05z" id="aO"/><path fill="url(#x)" d="M150.95 487.95q-.65-.3-1.6-.25-1.35.1-3.05.55-2.15.5-2.1.95.05.45 2.25.7 1.9.25 3.15.2.9-.05 1.5-.45.65-.35.6-.85-.05-.55-.75-.85z" id="aP"/><path fill="url(#y)" d="M78.25 365.05q-4.55 5.25-5.8 11.95-1.3 6.7 1.05 13.25 2.5 6.95 8.5 12.3-6.25 16.6-3.45 31.25 2.6 13.6 12.5 23.2 9.65 9.3 23.9 12.65 14.65 3.45 30.7-.3 8.85-2.05 15.9-6.85 7.6-5.25 12.45-13.3 5.35-.35 8.85-2.45 3.95-2.35 4.9-6.55-4 1.5-7.15 1.45-3.45-.35-5.4-.55 5.25-.5 9.3-3.6 5.15-3.95 6.55-11.05-9.2 1.95-12.2 1.65-6.95-.8-10.4-8.65-3-7.15-10.2-14.1-8.95-8.65-20.9-12.95-3.95-1.4-5.55-6.6-1.25-6.25-2.25-8.95-3.4-9-7.8-13.8-5-5.45-13.35-7.9-3.45-1.05-8.35-.55-4.5.5-9.45 2.2-7.5 2.7-12.35 8.25z" id="aQ"/><path fill="url(#z)" d="M164.9 444.75q-.15-.3-1.05.35-1.3.95-2.8 1-5.6.15-16.2-10-1.4-1.3-.6-9.65.8-8.1-1.95-10.15-6-4.5-12.9-5.25-7.05-.75-10.7 3-7.45 7.65-2.9 18.05 3.9 8.9 13.2 14.4 5.65 3.5 13.1 5.45 7.65 1.85 16.35.55 10.55-1.55 6.45-7.75z" id="aR"/><path fill="url(#A)" d="M92.55 404.45q-4.2-.35-7.4-1.65-3.85 5-5.15 12.4-1.35 7.6.6 13.95.5 1.7 1.6 1.65 1.1-.05 1-1.9-.15-3.75-.05-5.7.15-2.3.75-4.9.3 8.85 1.15 13.05 1.35 6.95 5.2 11.95 2.65 3.1 4.25 1.95 1.05-.8-1.3-5.15-1.05-1.95-2-5.1-.8-3.05-1-3.65.95 1.75 2.9 5.5 1.75 3.1 3.3 4.7 2.7 2.85 5.85 2.7 3.3-.2 1.05-4.8-5-10.25-5.65-16.65-.4-4.25 1.1-18.05-3.85-.1-6.2-.3z" id="aS"/><path fill="#FFCB31" d="M114.6 357.6q6.2 4.9 6.05 11.85-.15 7.55-9 9.4-2.6.4-3.35.55-1.05.15-1.1.8-.15.65 1.6 1.5 2.75 1.3 4.2 2.45 2.5 2 3.05 5.15.45 2.75-.75 5.25-3.25 6.75-14.85 8.8-10.2 1.85-17.25-.8 10.4 6.7 25.3 6.9 18.3 0 29.55-7.05 3.75-2.4 3.1-4.4-.55-1.7-4.45-3.4-3.45-1.5-5.85-5.3-2.25-3.5-3.3-8.45-1.85-8.35-4.5-13.65-3.35-6.8-8.45-9.6z" id="aT"/><path fill="url(#B)" d="M77.15 384.15l-8.5-1.15-5.95 4.4q4.1.1 7.75 1.4 1.95.65 4.75 1.8 2.6.65 3.25-1.5.8-2.6 3.15-2.85l-4.45-2.1z" id="aU"/><path fill="url(#C)" d="M70.8 382.9q1.55.3 2.5.9.45.3.7.5 1.5.15 2.05-.45.75-.95 1.45-1.2 3.15 1.55 5.9 1.4 3.4-.4 4.7-2.75 1.35-2.35 0-5.6-1.75-4.45.45-7.65 1.95-2.8 6.75-4.2 1.7-.5 5-1.3 3.05-.75 4-1.05 2.3-.8 3.5-2.6 1.1-1.6 1.05-3.65-14.65-4.6-26.55 3.45-12.35 8.4-11.5 24.2z" id="aV"/><path fill="url(#D)" d="M166.1 433.05q-.35-1.35-3.55-2.1-3.6-.55-4.45-.75-5.15-1.2-8.6-7.55-4.3-7.8-7.2-9.95-5.8-4.35-12.7-4.5-6.75-.2-10.55 3.7-6.95 7.15-3.55 16.55 3 8.2 10.9 12.6 8 4.4 18.95 5.9 10.5 1.45 17.9-.5 2.4-.7 2.2-2.6-.4-1.4-2.2-1.8-.35-.1-4.95-.6-4.3-.45-7.25-1.35 8.55.95 11.8.95 2.4-.05 3.1-1.4.8-1.4-1.4-2.85-.8-.5-5.15-1.15-4.7-.65-5.65-1 3 .45 6.5.6 3.6.15 4.45-.15 1.6-.6 1.4-2.05z" id="aW"/><path fill="url(#E)" d="M75.3 377.7q-.45-1.75-2.1-2.65-2.7.8-5.8 3.35-3.65 3-5 6.4-.9 2.2-.2 2.55.35.2 2.5-.2 1.6-.3 4.8-1.05 2.75-.4 4.65-.25 3.6 0 5.1.4 3.6.95 3.8-.55.15-1.45-2.45-1.95-2.4-.45-3.9-1.9-1-.8-1.15-1.95l-.25-2.2z" id="aX"/><path fill="url(#F)" d="M65.5 381.4q-2.15 2.65-3.4 5.85.4.35 2.75-.05 1.1-3.15 3.25-5.95 2.25-2.95 5.15-4.85-4.4.85-7.75 5z" id="aY"/><path fill="#F06DA4" d="M71.05 382.35q3.15.7 2.65-2.65-.2 1.25-.85 1.5-.45.25-1.45 0-1.05-.15-1.1.4-.05.6.75.75z" id="aZ"/><path fill="url(#G)" d="M98.55 450.9q-.8.7-.55 2.2.3 1.55 1.55 3t2.7 2q1.45.5 2.25-.2.85-.65.55-2.2-.3-1.55-1.55-3-1.2-1.45-2.7-1.95-1.45-.55-2.25.15z" id="ba"/><path fill="url(#H)" d="M106.45 448.85q-.7.75-.25 2.25.45 1.5 1.85 2.75 1.4 1.35 2.9 1.75 1.5.35 2.3-.45.7-.75.2-2.25-.45-1.5-1.8-2.8-1.4-1.35-2.95-1.7-1.5-.35-2.25.45z" id="bb"/><path fill="url(#I)" d="M107.95 458.9q-.55.85.15 2.25.7 1.4 2.25 2.5t3.1 1.25q1.55.1 2.15-.75.6-.85-.05-2.25-.7-1.4-2.25-2.5t-3.1-1.25q-1.55-.15-2.25.75z" id="bc"/><path fill="url(#J)" d="M116.85 456.05q-.4 1 .55 2.25.9 1.2 2.65 2 1.8.75 3.35.55 1.55-.15 2-1.15.4-1-.55-2.25-.95-1.25-2.7-2-1.75-.75-3.3-.55-1.6.15-2 1.15z" id="bd"/><path fill="url(#K)" d="M121.95 466.9q1.15 1 3 1.45 1.9.4 3.4-.05 1.55-.45 1.75-1.45.2-1.05-.95-2.1-1.15-1.1-3.05-1.45-1.85-.4-3.35.05T121 464.8q-.2 1.05.95 2.1z" id="be"/><path fill="url(#L)" d="M114 445.9q-.5.9.35 2.2.8 1.35 2.5 2.3 1.6.95 3.2.95 1.55 0 2.05-.95.55-.9-.25-2.25-.8-1.3-2.5-2.25t-3.25-.95q-1.55 0-2.1.95z" id="bf"/><path fill="url(#M)" d="M130.1 459.2q-.2 1.1 1 2.1 1.2.95 3.1 1.3 1.9.4 3.35-.15 1.45-.5 1.6-1.6.25-1-1-2-1.2-1-3.1-1.4-1.9-.3-3.35.2-1.45.55-1.6 1.55z" id="bg"/><path fill="#F0B732" d="M94 368.1q-2.5 0-4.5 1.4t-2.75 3.6q-.55 1.9 1 2.2.75.2 1.35-.1.7-.4.85-1.4h8.1q.25 1 .95 1.4.6.3 1.25.1 1.75-.35 1-2.2-.75-2.2-2.7-3.6-2.05-1.4-4.55-1.4z" id="bh"/><path fill="#FFF" d="M94 369.4q-2.8 0-4.8 2-1.95 2-1.95 4.8t1.95 4.75q2 2 4.8 2t4.8-2q1.95-1.95 1.95-4.75t-1.95-4.8q-2-2-4.8-2z" id="bi"/><path fill="url(#N)" d="M97.7 372.55Q96.15 371 94 371q-2.1 0-3.65 1.55-1.55 1.5-1.55 3.65t1.55 3.65q1.55 1.5 3.65 1.5 2.15 0 3.7-1.5 1.5-1.5 1.5-3.65t-1.5-3.65z" id="bj"/><path fill="url(#O)" d="M90.55 379.2q1.35 1.6 3.45 1.6 2.15 0 3.45-1.6.75-.75.15-1.45-.65-.4-1.3.3-.95 1.1-2.3 1.1-1.4 0-2.25-1.1-.7-.7-1.35-.3-.55.65.15 1.45z" id="bk"/><path fill="#363435" d="M95.7 374.55q-.7-.65-1.7-.65t-1.65.65q-.7.7-.7 1.65 0 1 .7 1.65.7.7 1.65.7 1 0 1.7-.7t.7-1.65q0-.95-.7-1.65z" id="bl"/><path fill="#FFF" d="M92.25 376.55q0-.8-.7-.8t-.7.8q0 .7.7.7t.7-.7z" id="bm"/><path fill="#FFF" d="M97.2 373.4q-.45-.45-1.05-.45-.65 0-1.05.45-.45.4-.45 1.05 0 .6.45 1.05.4.4 1.05.4.6 0 1.05-.4.4-.45.4-1.05 0-.65-.4-1.05z" id="bn"/><path fill="url(#P)" d="M168.85 446.6q-1.65 1.5-5.1 6.2-3.05 3.7-10.75 11.5-6 7.1-4.9 12.55 10.7 6.05 20.75-.45 9.95-6.5 9.9-18.8-.25-7.6 0-11.4.35-6.65 2.65-8.9-10.95 7.8-12.55 9.3z" id="bo"/><path fill="url(#Q)" d="M181.4 437.45q-2.4 1.05-14 3.25-9.05 1.75-13.3 5.6 0-.6.5-1.8.45-1.05.9-1.85-.45.35-2.9 2.15-2.4 2.1-3.3 4.8-.5-1.2.15-3.5-1.5 1.9-2.65 4.9-1.1 2.8-1.15 4.5-.6-2.05-.55-3.5-1.2 1.4-1.75 4.7-.65 3.8.35 6.95-.5-.35-1.05-1.25-.75-1.25-.85-2.5-1.4 2.15.2 7.4 1.75 5.75 5.7 8.9-1.3 1.4-2.15 8.05-.85 6.7.1 8.45.3 0 .7-.1.35-.15.65-.15-1.1-1.8-.15-8.25.95-6.25 2.1-7.15 2.9 1.1 6.4 1.25 3.85.15 5.6-1.1-1.3-.25-2.1-.45-1.5-.3-1.85-.8 2.85.4 5.4-.4 1.9-.6 4.1-2.1-.3-.05-1.85-.1-1.3-.05-2.1-.35 2.15-.25 4.25-1.5 1.85-1.05 5.1-3.8-1.3.25-2.15.1-.05 0-1.45-.45 5.15-1.7 7.65-8.1-.7.75-1.25 1.05-.8.5-2.05.75 1.8-1.85 2.7-3.35 1.2-2 2.15-5.5-.55.7-1.4 1.25-.9.6-1.55.65 2.1-2.45 3.45-8.35 1.35-5.95 3.4-8.3z" id="bp"/><path fill="url(#R)" d="M165 451.45q4.85-6.5 11.45-10.2-11.5 2.85-17.8 8.05-6.55 5.35-10.8 15.8-1.6 3.95-1.35 7.8.1 2.6 2.7 3.3 2.65.7 3.9-1.65 1.1-2 2-4.35 1.05-2.85 1.35-3.5 4.55-9.85 8.55-15.25z" id="bq"/><path fill="url(#S)" d="M149.75 474.05q2.75-11.75 10.05-20.35 6.75-7.95 16.65-12.45-10 2.85-18.1 12.1-8.25 9.4-10.2 20.55-.15 1.05.6 1.1.8.05 1-.95z" id="br"/><path fill="#D8E37A" d="M159.55 469.35q-2.8-.1-6.2-1.35-1-.35-1.15.25-.15.55.55.9 7.65 3.05 14.35-1.25-3.75 1.65-7.55 1.45z" id="bs"/><path fill="#E1E99E" d="M171.25 461.35q-4.15 2.35-8.45 2.6-2.6.15-6.95-.65-1.1-.25-1.2.3-.1.55.7.8 8.5 2.35 15.9-3.05z" id="bt"/><path fill="#E8EDB0" d="M172.7 454.9q-2.85 2.55-7.45 3.1-2.7.35-6.6-.1-1.05-.1-1.05.55.05.6.75.65 9.45.85 14.35-4.2z" id="bu"/><path fill="#D8E37A" d="M147.65 463q-.55-2-.3-4.95-.75 2.45-.4 4.95.35 2.55 1.75 4.2.35.4.65.1.35-.3-.05-.85-1.2-1.75-1.65-3.45z" id="bv"/><path fill="#E1E99E" d="M151.4 462.1q-2.65-4.75-1.15-9.65-2.35 4.75.35 10.15.25.45.7.2.4-.2.1-.7z" id="bw"/><path fill="#E8EDB0" d="M154 451.9q.15-2.45 1.15-4.5-1.3 1.85-1.7 4.4-.35 2.55.4 4.35.15.4.4.35.3-.05.1-.6-.5-1.9-.35-4z" id="bx"/><path fill="url(#T)" d="M173.6 453.25q-.15-2.3-1.85-3.5-1.7-1.25-3.95-.7-2.2.55-3.75 2.6-1.45 2-1.3 4.3.15 2.3 1.8 3.45 1.7 1.25 3.95.7t3.75-2.55q1.45-2 1.35-4.3z" id="by"/><path fill="#CEDD51" d="M172.7 454.9q-3.55 3.1-9.3 3.2.35.55.75.95 5.05-.6 8.55-4.15z" id="bz"/><path fill="url(#U)" d="M172.5 452.15q-.1-1.85-1.45-2.9-1.45-1-3.25-.55-1.85.5-3.1 2.15-1.2 1.65-1.1 3.5.15 1.9 1.55 2.9 1.4 1 3.2.55 1.85-.5 3.05-2.15 1.25-1.6 1.1-3.5z" id="bA"/><path fill="url(#V)" d="M172.15 451.95q-.15-1.55-1.4-2.45-1.3-1-2.85-.7-1.6.25-2.7 1.75t-.95 3.25q.1 1.8 1.4 2.75 1.25.9 3.05.25 1.55-.55 2.5-1.8 1.1-1.5.95-3.05z" id="bB"/><path fill="url(#W)" d="M171.05 449.1q-1.3-.9-3-.45-1.7.4-2.85 1.9v.05q1.024-.96 2.1-1.1 1.55-.3 2.65.6 1.2.95.9 2.75-.55 2.85-2.6 3.55-1.55.6-2.9-.1 1.4 1.2 3.35.7 1.75-.45 2.8-1.85 1.1-1.5 1-3.3-.15-1.75-1.45-2.75z" id="bC"/><path fill="#FFF" d="M169.55 450.1q.05-.45-.25-.7-.3-.25-.75-.2-.5.05-.8.4-.35.35-.35.75-.05.45.25.7.25.25.75.2.45-.05.75-.4.35-.35.4-.75z" id="bD"/><path fill="url(#X)" d="M131.6 420.15q8.3 8.85 22.4 11.2-6.2-2-11.25-6-3.95-3.1-8.8-8.9-2-2.55-3.3-.65-1.3 1.85.95 4.35z" id="bE"/><path fill="url(#Y)" d="M124.05 423.7q10.7 10.4 28.05 12.15-7.75-2-14.15-6.5-5.15-3.6-11.35-10.35-2.65-2.9-4.05-.5-1.45 2.4 1.5 5.2z" id="bF"/><path fill="url(#Z)" d="M137.05 439.35q5.45 1.2 12.25.9-6.9-.7-13-3.75-4.85-2.4-11.05-7.45-2.65-2.15-3.6.05-.95 2.25 1.95 4.3 6 4.35 13.45 5.95z" id="bG"/></defs><use xlink:href="#aa"/><use xlink:href="#ab" transform="translate(-55.594 -584.875) scale(1.77777)"/><use xlink:href="#ac" transform="translate(-55.594 -584.875) scale(1.77777)"/><use xlink:href="#ad" transform="translate(-55.594 -584.875) scale(1.77777)"/><use xlink:href="#ae" transform="translate(-55.594 -584.875) scale(1.77777)"/><use xlink:href="#af" transform="translate(-55.594 -584.875) scale(1.77777)"/><use xlink:href="#ag" transform="translate(-55.594 -584.875) scale(1.77777)"/><use xlink:href="#ah" transform="translate(-55.594 -584.875) scale(1.77777)"/><use xlink:href="#ai" transform="translate(-55.594 -584.875) scale(1.77777)"/><use xlink:href="#aj" transform="translate(-55.594 -584.875) scale(1.77777)"/><use xlink:href="#ak" transform="translate(-55.594 -584.875) scale(1.77777)"/><use xlink:href="#al" transform="translate(-55.594 -584.875) scale(1.77777)"/><use xlink:href="#am" transform="translate(-55.594 -584.875) scale(1.77777)"/><use xlink:href="#an" transform="translate(-55.594 -584.875) scale(1.77777)"/><use xlink:href="#ao" transform="translate(-55.594 -584.875) scale(1.77777)"/><use xlink:href="#ap" transform="translate(-55.594 -584.875) scale(1.77777)"/><use xlink:href="#aq" transform="translate(-55.594 -584.875) scale(1.77777)"/><use xlink:href="#ar" transform="translate(-55.594 -584.875) scale(1.77777)"/><use xlink:href="#as" transform="translate(-55.594 -584.875) scale(1.77777)"/><use xlink:href="#at" transform="translate(-55.594 -584.875) scale(1.77777)"/><use xlink:href="#au" transform="translate(-55.594 -584.875) scale(1.77777)"/><use xlink:href="#av" transform="translate(-55.594 -584.875) scale(1.77777)"/><use xlink:href="#aw" transform="translate(-55.594 -584.875) scale(1.77777)"/><use xlink:href="#ax" transform="translate(-55.594 -584.875) scale(1.77777)"/><use xlink:href="#ay" transform="translate(-55.594 -584.875) scale(1.77777)"/><use xlink:href="#az" transform="translate(-55.594 -584.875) scale(1.77777)"/><use xlink:href="#aA" transform="translate(-55.594 -584.875) scale(1.77777)"/><use xlink:href="#aB" transform="translate(-55.594 -584.875) scale(1.77777)"/><use xlink:href="#aC" transform="translate(-55.594 -584.875) scale(1.77777)"/><use xlink:href="#aD" transform="translate(-55.594 -584.875) scale(1.77777)"/><use xlink:href="#aE" transform="translate(-55.594 -584.875) scale(1.77777)"/><use xlink:href="#aF" transform="translate(-55.594 -584.875) scale(1.77777)"/><use xlink:href="#aG" transform="translate(-55.594 -584.875) scale(1.77777)"/><use xlink:href="#aH" transform="translate(-55.594 -584.875) scale(1.77777)"/><use xlink:href="#aI" transform="translate(-55.594 -584.875) scale(1.77777)"/><use xlink:href="#aJ" transform="translate(-55.594 -584.875) scale(1.77777)"/><use xlink:href="#aK" transform="translate(-55.594 -584.875) scale(1.77777)"/><use xlink:href="#aL" transform="translate(-55.594 -584.875) scale(1.77777)"/><use xlink:href="#aM" transform="translate(-55.594 -584.875) scale(1.77777)"/><use xlink:href="#aN" transform="translate(-55.594 -584.875) scale(1.77777)"/><use xlink:href="#aO" transform="translate(-55.594 -584.875) scale(1.77777)"/><use xlink:href="#aP" transform="translate(-55.594 -584.875) scale(1.77777)"/><use xlink:href="#aQ" transform="translate(-55.594 -584.875) scale(1.77777)"/><use xlink:href="#aR" transform="translate(-55.594 -584.875) scale(1.77777)"/><use xlink:href="#aS" transform="translate(-55.594 -584.875) scale(1.77777)"/><use xlink:href="#aT" transform="translate(-55.594 -584.875) scale(1.77777)"/><use xlink:href="#aU" transform="translate(-55.594 -584.875) scale(1.77777)"/><use xlink:href="#aV" transform="translate(-55.594 -584.875) scale(1.77777)"/><use xlink:href="#aW" transform="translate(-55.594 -584.875) scale(1.77777)"/><use xlink:href="#aX" transform="translate(-55.594 -584.875) scale(1.77777)"/><use xlink:href="#aY" transform="translate(-55.594 -584.875) scale(1.77777)"/><use xlink:href="#aZ" transform="translate(-55.594 -584.875) scale(1.77777)"/><use xlink:href="#ba" transform="translate(-55.594 -584.875) scale(1.77777)"/><use xlink:href="#bb" transform="translate(-55.594 -584.875) scale(1.77777)"/><use xlink:href="#bc" transform="translate(-55.594 -584.875) scale(1.77777)"/><use xlink:href="#bd" transform="translate(-55.594 -584.875) scale(1.77777)"/><use xlink:href="#be" transform="translate(-55.594 -584.875) scale(1.77777)"/><use xlink:href="#bf" transform="translate(-55.594 -584.875) scale(1.77777)"/><use xlink:href="#bg" transform="translate(-55.594 -584.875) scale(1.77777)"/><use xlink:href="#bh" transform="translate(-55.594 -584.875) scale(1.77777)"/><use xlink:href="#bi" transform="translate(-55.594 -584.875) scale(1.77777)"/><use xlink:href="#bj" transform="translate(-55.594 -584.875) scale(1.77777)"/><use xlink:href="#bk" transform="translate(-55.594 -584.875) scale(1.77777)"/><use xlink:href="#bl" transform="translate(-55.594 -584.875) scale(1.77777)"/><use xlink:href="#bm" transform="translate(-55.594 -584.875) scale(1.77777)"/><use xlink:href="#bn" transform="translate(-55.594 -584.875) scale(1.77777)"/><use xlink:href="#bo" transform="translate(-55.594 -584.875) scale(1.77777)"/><use xlink:href="#bp" transform="translate(-55.594 -584.875) scale(1.77777)"/><use xlink:href="#bq" transform="translate(-55.594 -584.875) scale(1.77777)"/><use xlink:href="#br" transform="translate(-55.594 -584.875) scale(1.77777)"/><use xlink:href="#bs" transform="translate(-55.594 -584.875) scale(1.77777)"/><use xlink:href="#bt" transform="translate(-55.594 -584.875) scale(1.77777)"/><use xlink:href="#bu" transform="translate(-55.594 -584.875) scale(1.77777)"/><use xlink:href="#bv" transform="translate(-55.594 -584.875) scale(1.77777)"/><use xlink:href="#bw" transform="translate(-55.594 -584.875) scale(1.77777)"/><use xlink:href="#bx" transform="translate(-55.594 -584.875) scale(1.77777)"/><use xlink:href="#by" transform="translate(-55.594 -584.875) scale(1.77777)"/><use xlink:href="#bz" transform="translate(-55.594 -584.875) scale(1.77777)"/><use xlink:href="#bA" transform="translate(-55.594 -584.875) scale(1.77777)"/><use xlink:href="#bB" transform="translate(-55.594 -584.875) scale(1.77777)"/><use xlink:href="#bC" transform="translate(-55.594 -584.875) scale(1.77777)"/><use xlink:href="#bD" transform="translate(-55.594 -584.875) scale(1.77777)"/><use xlink:href="#bE" transform="translate(-55.594 -584.875) scale(1.77777)"/><use xlink:href="#bF" transform="translate(-55.594 -584.875) scale(1.77777)"/><use xlink:href="#bG" transform="translate(-55.594 -584.875) scale(1.77777)"/></svg>