<svg xmlns="http://www.w3.org/2000/svg" xmlns:xlink="http://www.w3.org/1999/xlink" preserveAspectRatio="none" width="284" height="320"><defs><linearGradient id="a" gradientUnits="userSpaceOnUse" x1="294.788" y1="646.962" x2="377.413" y2="575.137" spreadMethod="pad"><stop offset="0%" stop-color="#E1E99E"/><stop offset="100%" stop-color="#F1F5D6"/></linearGradient><linearGradient id="b" gradientUnits="userSpaceOnUse" x1="321.575" y1="628.975" x2="375.125" y2="573.525" spreadMethod="pad"><stop offset="0%" stop-color="#F1F5D6"/><stop offset="100%" stop-color="#FFF"/></linearGradient><linearGradient id="c" gradientUnits="userSpaceOnUse" x1="320.262" y1="622.688" x2="374.037" y2="567.013" spreadMethod="pad"><stop offset="0%" stop-color="#F1F5D6"/><stop offset="100%" stop-color="#FFF"/></linearGradient><linearGradient id="d" gradientUnits="userSpaceOnUse" x1="225.588" y1="548.513" x2="261.212" y2="552.888" spreadMethod="pad"><stop offset="0%" stop-color="#CDECFB"/><stop offset="100%" stop-color="#00B9F0"/></linearGradient><linearGradient id="e" gradientUnits="userSpaceOnUse" x1="234.487" y1="593.438" x2="272.212" y2="559.463" spreadMethod="pad"><stop offset="0%" stop-color="#9CDBF8"/><stop offset="38.039%" stop-color="#E4F4FC"/><stop offset="63.922%" stop-color="#CDECFB"/><stop offset="100%" stop-color="#3CC6F3"/></linearGradient><linearGradient id="f" gradientUnits="userSpaceOnUse" x1="239.75" y1="521.625" x2="264.25" y2="542.175" spreadMethod="pad"><stop offset="0%" stop-color="#CDECFB"/><stop offset="100%" stop-color="#FFF"/></linearGradient><linearGradient id="g" gradientUnits="userSpaceOnUse" x1="230.463" y1="548.688" x2="253.838" y2="552.813" spreadMethod="pad"><stop offset="0%" stop-color="#82D4F6"/><stop offset="100%" stop-color="#0099DA"/></linearGradient><linearGradient id="h" gradientUnits="userSpaceOnUse" x1="248.313" y1="531.663" x2="257.988" y2="544.038" spreadMethod="pad"><stop offset="0%" stop-color="#B5E3F9"/><stop offset="100%" stop-color="#E4F4FC"/></linearGradient><linearGradient id="i" gradientUnits="userSpaceOnUse" x1="307.425" y1="548.413" x2="276.275" y2="560.988" spreadMethod="pad"><stop offset="0%" stop-color="#D8E37A"/><stop offset="100%" stop-color="#00B4EF"/></linearGradient><linearGradient id="j" gradientUnits="userSpaceOnUse" x1="277.863" y1="563.113" x2="304.537" y2="545.788" spreadMethod="pad"><stop offset="0%" stop-color="#00A6E6"/><stop offset="100%" stop-color="#ACC341"/></linearGradient><linearGradient id="k" gradientUnits="userSpaceOnUse" x1="305.262" y1="540.125" x2="267.037" y2="546.175" spreadMethod="pad"><stop offset="0%" stop-color="#D8E37A"/><stop offset="100%" stop-color="#82D4F6"/></linearGradient><linearGradient id="l" gradientUnits="userSpaceOnUse" x1="267.15" y1="545.462" x2="295.05" y2="542.038" spreadMethod="pad"><stop offset="0%" stop-color="#00B4EF"/><stop offset="100%" stop-color="#BACD41"/></linearGradient><linearGradient id="m" gradientUnits="userSpaceOnUse" x1="263.65" y1="533.512" x2="263.65" y2="550.087" spreadMethod="pad"><stop offset="0%" stop-color="#B5E3F9"/><stop offset="100%" stop-color="#E4F4FC"/></linearGradient><linearGradient id="n" gradientUnits="userSpaceOnUse" x1="250.037" y1="569.825" x2="264.262" y2="560.575" spreadMethod="pad"><stop offset="0%" stop-color="#FFE085"/><stop offset="100%" stop-color="#FFCB31"/></linearGradient><linearGradient id="o" gradientUnits="userSpaceOnUse" x1="240.262" y1="583.137" x2="250.238" y2="574.462" spreadMethod="pad"><stop offset="0%" stop-color="#FFF1C0"/><stop offset="100%" stop-color="#FFF"/></linearGradient><linearGradient id="p" gradientUnits="userSpaceOnUse" x1="251.225" y1="575.188" x2="268.275" y2="564.112" spreadMethod="pad"><stop offset="0%" stop-color="#FFE085"/><stop offset="100%" stop-color="#FFCB31"/></linearGradient><linearGradient id="q" gradientUnits="userSpaceOnUse" x1="256.175" y1="578.063" x2="272.225" y2="567.638" spreadMethod="pad"><stop offset="0%" stop-color="#FFE085"/><stop offset="100%" stop-color="#FFCB31"/></linearGradient><linearGradient id="r" gradientUnits="userSpaceOnUse" x1="264.137" y1="529.588" x2="262.762" y2="545.313" spreadMethod="pad"><stop offset="0%" stop-color="#82D4F6"/><stop offset="100%" stop-color="#9CDBF8"/></linearGradient><linearGradient id="s" gradientUnits="userSpaceOnUse" x1="326.787" y1="538.012" x2="294.512" y2="559.788" spreadMethod="pad"><stop offset="0%" stop-color="#ACC341"/><stop offset="100%" stop-color="#D4E065"/></linearGradient><linearGradient id="t" gradientUnits="userSpaceOnUse" x1="288.563" y1="629.587" x2="338.938" y2="571.613" spreadMethod="pad"><stop offset="0%" stop-color="#E1E99E"/><stop offset="100%" stop-color="#F1F5D6"/></linearGradient><linearGradient id="u" gradientUnits="userSpaceOnUse" x1="305.85" y1="680.538" x2="311.95" y2="564.163" spreadMethod="pad"><stop offset="0%" stop-color="#008BCD"/><stop offset="100%" stop-color="#00B4EF"/></linearGradient><linearGradient id="v" gradientUnits="userSpaceOnUse" x1="306.75" y1="663.712" x2="314.35" y2="518.788" spreadMethod="pad"><stop offset="0%" stop-color="#0099DA"/><stop offset="29.804%" stop-color="#62CCF4"/><stop offset="65.882%" stop-color="#CDECFB"/><stop offset="100%" stop-color="#00AFEE"/></linearGradient><linearGradient id="w" gradientUnits="userSpaceOnUse" x1="299.85" y1="678.987" x2="311.45" y2="584.513" spreadMethod="pad"><stop offset="0%" stop-color="#00B9F0"/><stop offset="100%" stop-color="#FFF"/></linearGradient><linearGradient id="x" gradientUnits="userSpaceOnUse" x1="292.525" y1="609.688" x2="282.275" y2="598.313" spreadMethod="pad"><stop offset="0%" stop-color="#B5E3F9"/><stop offset="100%" stop-color="#62CCF4"/></linearGradient><linearGradient id="y" gradientUnits="userSpaceOnUse" x1="282.65" y1="559.512" x2="282.65" y2="607.087" spreadMethod="pad"><stop offset="0%" stop-color="#62CCF4"/><stop offset="58.824%" stop-color="#FFF"/><stop offset="100%" stop-color="#CDECFB"/></linearGradient><linearGradient id="z" gradientUnits="userSpaceOnUse" x1="294.538" y1="554.825" x2="284.462" y2="582.475" spreadMethod="pad"><stop offset="0%" stop-color="#008BCD"/><stop offset="100%" stop-color="#3CC6F3"/></linearGradient><linearGradient id="A" gradientUnits="userSpaceOnUse" x1="273.137" y1="601.65" x2="278.262" y2="572.55" spreadMethod="pad"><stop offset="0%" stop-color="#B5E3F9"/><stop offset="100%" stop-color="#62CCF4"/></linearGradient><linearGradient id="B" gradientUnits="userSpaceOnUse" x1="281.037" y1="558.388" x2="276.863" y2="567.313" spreadMethod="pad"><stop offset="0%" stop-color="#B5E3F9"/><stop offset="100%" stop-color="#FFF"/></linearGradient><linearGradient id="C" gradientUnits="userSpaceOnUse" x1="274.313" y1="565.25" x2="282.888" y2="557.25" spreadMethod="pad"><stop offset="0%" stop-color="#CDECFB"/><stop offset="100%" stop-color="#82D4F6"/></linearGradient><linearGradient id="D" gradientUnits="userSpaceOnUse" x1="287.4" y1="653.475" x2="337.9" y2="615.425" spreadMethod="pad"><stop offset="0%" stop-color="#ACC341"/><stop offset="100%" stop-color="#D8E37A"/></linearGradient><linearGradient id="E" gradientUnits="userSpaceOnUse" x1="291.138" y1="642.637" x2="329.563" y2="620.462" spreadMethod="pad"><stop offset="0%" stop-color="#C2D27B"/><stop offset="100%" stop-color="#E8EDB0"/></linearGradient><linearGradient id="F" gradientUnits="userSpaceOnUse" x1="291.025" y1="646.462" x2="329.875" y2="624.038" spreadMethod="pad"><stop offset="0%" stop-color="#C2D27B"/><stop offset="100%" stop-color="#E8EDB0"/></linearGradient><path fill="#FFF" fill-opacity="0" d="M0 0v320h284V0H0z" id="G"/><path fill="url(#a)" d="M287.95 676q-2.95-15.95 12-27.5 10.85-8.45 31.75-14.75 41.5-12.75 47.8-41.8 3.7-17.2-6.35-43.45 1.95 13.75-4.25 24.45-6.9 11.9-22.75 17.45-33 11.6-46.15 26.5-15.35 17.45-15.35 50.4l3.3 8.7z" id="H"/><path fill="url(#b)" d="M295.9 641.7q4.568-3.807 15-8.65 20.45-9.55 24.25-11.6 32.7-17.75 41.3-46.4-8.35 24.15-40.25 43.05-8.4 4.95-24.2 13.15-10.927 5.952-16.1 10.45z" id="I"/><path fill="url(#c)" d="M311.55 620.75q-9.93 7.68-13.7 17.3 3.731-8.831 13.4-15.35 3.85-2.6 23-12 15.5-7.7 23.9-15.55 12.1-11.3 17.15-28.4-4.55 14.2-16.55 24.65-7.8 6.85-23.9 15.5-17.45 9.35-23.3 13.85z" id="J"/><path fill="#D8E37A" d="M308.2 538.45l2.3 4.25h.1l-.75 4.4q13.05-6.3 22.25-5.3 11.8 1.25 15.65 14.4 2.75 9.3-1.3 19.8-1.25 2.9-2.2 4.5-4.25 7.85-13.4 15.8-5.15 4.45-15.8 11.85l-5.1 3.6q-6.85 4.95-11.9 10.1-12.9 13.35-15.4 27.65-3.1 17.05 9 33.75 7.1 9.95 8.25 8.85 1.15-1.1-5.75-10.65-11.25-15.7-8.5-31.45 2.45-13.45 14.65-26 5.3-5.35 11.45-9.8l5-3.5q10.7-7.35 16.25-12.2 9.45-8.2 14-16.45 1.3-2.45 2.3-5 2.25-5.65 2.6-11.65.35-5.75-1.05-10.75-2.6-8.9-10.85-13.8-6.9-4.05-17.1-4.95-4.05-.35-14.8-.35-9.25.05-14.25-.8 3.55 2.9 7.5 3.8 3.5.75 6.85-.1z" id="K"/><path fill="url(#d)" d="M233.4 538.75q-4.85 1.75-7.05 1.7-3.75 0-7.7-3.3.8 5.55 1.65 8.5 1.35 4.4 4 8.35 2 3 7.6 6.35 6.05 3.7 9.7 3.4 1.55-.1 5.45-1.75 3.1-1.35 6.15-.7 1.25 1.3 8.45-.2 7-1.4 8.55-2.9 2.1-2 .8-4.75-2.35-5.05-2.75-8.05-.5-3.6-6.05-5.1-6.8-1.05-9.45-1.55-6.55-1.2-9.6-1.35-5.2-.2-9.75 1.35z" id="L"/><path fill="url(#e)" d="M235.15 575.9q-4.15 10.35-.95 17.35-1.15 1.15-1.75 2.45-.85 2.25-.2 3.05.65.85 2.8-.45 1.5-.9 4.8-3.3 2.8-2 3.2-2.1 1.85-.45 9.6-1.05 6.1-.5 9.55-2.2 3.6-1.75 6.2-5.5 2.8-4.05 3.15-8.75 1.4-2.2 5.3-5.65 3.75-3.3 4.35-4.35 1.4-2.3.3-4.1-.55-.9-3.95-4.05-2.9-2.7-3.75-2.8-.7-.1-7.85 1.1-6.25.65-9.6 1.45-6.25 1.5-10.65 4.6-6.65 4.6-10.55 14.3z" id="M"/><path fill="url(#f)" d="M267 552.85q.592-.123-.15-.4l.15.4m-29.5-19.15q.75 4.6 2.3 7.3 5.5 8.15 17.3 9.65 2.95.3 6.8 1.1 2.18.431 2.95.7l-9.55-24.4q-.35-1.7-2.2-5.15-1.6-3.05-1.75-5.15-.2-3.25-.95-5.15-.9-2.25-2.3-2.05-1.9.2-3.7 3.2-2.05 3.25-2.05 7.2 0 3.05-.8 3.45-.75.35-4.45 1.9-2.55 1.55-1.6 7.4z" id="N"/><path fill="url(#g)" d="M241.05 551.95q-10.45-2.55-15.95-7.35 3.8 5.8 15.6 8.9 11.35 2.9 19.5.95.85-.25.65-1.1-.25-.85-1.1-.6-7.9 1.85-18.7-.8z" id="O"/><path fill="url(#h)" d="M250.55 535.8q-1.5-3.55-3.05-10.8-.5 6.25 1.8 11.9 2.1 5 5.6 8.4 3.25 3.15 5.25 2.6.75-.2.6-.85-.1-.65-1.15-1.25-1.65-.7-2.45-1.35-4.25-3.2-6.6-8.65z" id="P"/><path fill="url(#i)" d="M273.45 561q1.5-1.9 2.55-.75.65.7 1.7 3.7 2.4 6.85 5.4 6.05l-.1 1.6q5.8-10.15 10.5-15.15 6.7-7.1 15.4-9.55.4-.1 1.1-.25.55-.2.6-.75.15-4.4-10.2-2.85-11.2 2.6-12.85 2.9-1.5.3-8.05 2.3-6.05 1.85-9.15 2.25-4.7.6-5.45 3.45-.7 2.65 2.2 6.4 1.05 1.4 2.9 1.8 2.15.45 3.45-1.15z" id="Q"/><path fill="url(#j)" d="M277.05 561.65l4.1 2.9q4.5-7.7 12.5-12.95 7-3.65 6.8-3.65-13.2 3.25-23.4 13.7z" id="R"/><path fill="url(#k)" d="M318.65 541.35q2.3-.25 4.6-.85.35-.1 6.2-1.8-12.9-.85-23.05-.25-10.45.95-17.4 1.1-11.55.35-19.25-2.45 1.1 3.25-.8 5.85-1.55 2.3-1.3 5.65.15 2.5 1.25 5 .65 1.65 6.75.15 3.55-.9 10.25-3.25 12.35-4.35 17.2-5.8 9.05-2.7 15.55-3.35z" id="S"/><path fill="url(#l)" d="M303.3 541.05q-8.2 1.45-13.95 1.55-10.85.25-20.15-3.1l-1.45 10.9q8.35.35 18.4-2.25 10.3-2.65 17.15-7.1z" id="T"/><path fill="url(#m)" d="M255.35 539.3q.5 3.45 3.05 4.8.2.1 2.1.9 1.3.55 1.6 1.1 1.05 1.85 3.15 4.25 2.25 2.6 4 3.75-.9-2.25-.6-4.9.2-1.9 1.2-4.75 2.05-5.65 2.15-6.25.4-2.8-1.9-6.15-2.05-3.05-1.15-4.9 1.9-4.25 1.65-4.5-1.25-1.2-2.95.3-.85.8-1.65 1.85-4.2 1.05-6.4 2.55-3 2.05-3.8 5.6-.85 3.65-.45 6.35z" id="U"/><path fill="url(#n)" d="M265.6 560.5q-.35-.85-2.05-.15-8.8 3.3-12.35 7.55-1.45 1.8-.35 2.45 1.05.65 2.4-.55 2.8-2.35 5.15-3.85 1.35-.9 6.05-3.7 1.55-.95 1.15-1.75z" id="V"/><path fill="url(#o)" d="M242.85 576.35q-1.7.5-1.95 2l.05 1.15.35.95q-1.25 0-2.45 1.35-.2.35.1.65.3.2.55-.05 1.2-1.5 2.8-.95-.6.55-1 1.1-.35.6-.4 1-.15.55.05 1 .25.75 1.3 1 .4.2.5-.3.1-.15 0-.3-.15-.2-.35-.2-.55-.1-.65-.5-.1-.25 0-.55 0-.15.3-.75.65-1.05 1.45-1.05l1.35.05q.6-.05 1.2-.3 2.15-.6 3.45-1.65 1.75-1.3 2.45-3.6.15-.3-.25-.5-.45-.1-.5.2-.65 2.05-2.2 3.25-.95.8-3.2 1.55-.8.2-1.05.2-.7.05-1.35-.15l-.55-.2q-.3-.15-.65-.5l-.4-.9-.05-.05-.05-.45.05-.4q.1-.95 1.3-1.25.4-.1.3-.5-.1-.35-.5-.35z" id="W"/><path fill="url(#p)" d="M268.25 562.95q-.45-.85-2.4.15-2.8 1.3-6.35 3.9-3.7 2.65-5.15 4.45-1.5 1.5-2.5 2.95-1.1 1.5-.1 2.3.95.8 2.3-.6 3.9-4.1 5.6-5.7 2.75-2.55 7.2-5.5 1.8-1.15 1.4-1.95z" id="X"/><path fill="url(#q)" d="M271.05 564.9q-.4-.85-2 .3-2.9 2.1-6.15 5.75-3.45 3.85-4.75 6.55-.7 1.4-.6 2.25.1.8.75.9 1 .25 1.6-.6.05-.05 1.6-2.85 2.6-4.5 8.85-10.45 1.1-1.1.7-1.85z" id="Y"/><path fill="url(#r)" d="M259.95 535.7q-.5 2.9.15 6.45l.95 3.1q.75.3 1.05.85 1.3 2.1 3.9 5.05-1.55-3.05-2.25-4.6-1.25-2.65-1.7-4.85-1.25-6.1.2-9.55.7-1.7 3.2-4.05-4.55 2.35-5.5 7.6z" id="Z"/><path fill="url(#s)" d="M298.85 552.35q-1.55 2.9-1.9 6.5-.4 3.95 1.05 6.05-.2-3.15 1.55-6.7 1.5-3.2 4.05-5.75 3.75-3.9 10.5-7.3 3.8-1.9 10.6-4.8-9.6.3-14.95 2.4-7.05 2.75-10.9 9.6z" id="aa"/><path fill="#CBDB41" d="M283.8 531q2.25 3.9 7.15 6.4 6 3.1 13.3 2.2 11.25-1.4 22.55-1.3-5.4-1.6-12.6-1.9-8-.05-11.85-.25-8.95-.35-18.55-5.15z" id="ab"/><path fill="#FFF" d="M313.15 631.4q-2.45 0-4.2 1.25-1.75 1.2-1.75 2.95 0 1.75 1.75 2.95 1.75 1.2 4.2 1.2t4.2-1.2q1.8-1.25 1.8-2.95 0-1.7-1.8-2.95-1.75-1.25-4.2-1.25z" id="ac"/><path fill="#D8E37A" d="M343.7 587.2h-3.9q-5.9 7.3-16.4 15.05h5.05q9.65-7.5 15.25-15.05z" id="ad"/><path fill="#D8E37A" d="M295.05 628.05q7.75-9.4 23.8-21.55 12.7-9.6 18-21.25 6.15-13.6 3.25-31.5-2 11.75-6.7 18.85-3 4.55-12.45 13.55-10 9.45-12.45 11.9-6.8 6.75-11.3 12.15-12.45 15.2-15.15 32.9-1.85 11.8.6 20.6.55-6.1 3.6-16.4 3.95-13.55 8.8-19.25z" id="ae"/><path fill="url(#t)" d="M285.75 639.5q5-13.2 11.2-21.65 5.35-7.35 18.55-20.2 10.55-10.15 14.7-15.4 6.05-7.7 8.3-15.85-3.45 8.4-10.65 16.3-4.35 4.8-16.25 15.45-11.4 10.25-16.6 18.35-5.9 9.1-9.25 23z" id="af"/><path fill="url(#u)" d="M319.15 531q0-2.8-2.55-4.8t-6.1-2q-3.6 0-6.15 2-2.55 2-2.55 4.8v52.3h-42.4q-2 0-3.45 2.55-1.4 2.55-1.4 6.2 0 3.6 1.4 6.1 1.45 2.55 3.45 2.55h42.4v79.45q0 2.8 2.55 4.8t6.15 2q3.55 0 6.1-2t2.55-4.8V600.7h42.5q2 0 3.4-2.55t1.4-6.1q0-3.65-1.4-6.2-1.4-2.55-3.4-2.55h-42.5V531z" id="ag"/><path fill="#B5E3F9" d="M360 582.05q-3.5-.75-7.8.65-.5.15-.7.6-.25.45-.1.95.15.5.65.7.45.25.95.1 3.5-1.15 6.3-.6 2.45.45 4.05 2.1 2 2.3 2 5.5t-2 5.4q-1.6 1.65-4.05 2.1-2.8.55-6.3-.6-.5-.15-.95.1-.5.2-.65.7-.15.5.1.95.2.45.7.6 4.35 1.4 7.8.7 3.15-.65 5.15-2.9 2.75-3 2.75-7.05 0-4.15-2.75-7.15-2-2.2-5.15-2.85z" id="ah"/><path fill="#B5E3F9" d="M255.85 584.9q-2.65 2.85-2.65 7.15 0 4.2 2.65 7.05 4.55 4.9 12.95 2.2.5-.15.75-.6.25-.45.05-.95-.15-.5-.6-.7-.4-.25-.9-.1-3.6 1.15-6.4.6-2.45-.45-4.05-2.1-2-2.3-2-5.4 0-3.1 2-5.5 1.6-1.65 4.05-2.1 2.8-.55 6.4.6.5.15.9-.1.45-.2.6-.7.2-.5-.05-.95-.25-.45-.75-.6-4.3-1.4-7.75-.65-3.1.65-5.2 2.85z" id="ai"/><path fill="url(#v)" d="M298.35 540.9q-1.65 1.25-2 3.15-.4 2.15 1.05 4.15 1.8 2.55 6.5 6.05v31.15h-18.8q-3.3-4.5-6.05-6.55-2-1.45-4.15-1.05-1.9.35-3.15 2.05-1.25 1.65-1 3.6.25 2.15 2.25 3.6.9.75 2.35 1.45-7.6-2.5-11.95-2.5-2.9 0-4.65 1.9-1.55 1.65-1.55 4.1 0 2.45 1.55 4.15 1.75 1.85 4.65 1.85 4.35 0 11.95-2.5-1.25.65-2.35 1.45-2 1.45-2.25 3.6-.25 1.95 1 3.6 1.25 1.7 3.15 2.05 2.15.4 4.15-1.05 2.75-2.05 6.05-6.55h18.8v57.25q-4.55 3.35-6.5 6.05-1.45 2-1.05 4.1.35 1.95 2 3.15 1.65 1.25 3.55 1.05 2.15-.25 3.65-2.25.45-.6 1.5-2.4-2.6 7.55-2.6 11.95 0 2.95 1.9 4.65 1.7 1.6 4.15 1.6 2.4 0 4.1-1.6 1.9-1.7 1.9-4.65 0-4.3-2.55-11.95.6 1.1 1.45 2.4 1.5 2 3.65 2.25 1.95.2 3.6-1.05 1.65-1.2 2.05-3.15.4-2.1-1.1-4.1-2-2.75-6.55-6.05V598.6h18.85q3.5 4.65 6.05 6.55 2 1.45 4.15 1.05 1.9-.35 3.15-2.05 1.25-1.65 1-3.6-.25-2.15-2.25-3.6-1.1-.8-2.35-1.45 7.7 2.5 11.95 2.5 2.95 0 4.65-1.85 1.6-1.7 1.6-4.15t-1.6-4.1q-1.7-1.9-4.65-1.9-4.25 0-11.95 2.5 1.45-.7 2.35-1.45 2-1.45 2.25-3.6.25-1.95-1-3.6-1.25-1.7-3.15-2.05-2.15-.4-4.15 1.05-2.55 1.9-6.05 6.55h-18.85v-31.15q4.65-3.5 6.55-6.05 1.5-2 1.1-4.15-.4-1.9-2.05-3.15t-3.6-1q-2.15.25-3.65 2.25-.8 1.1-1.45 2.35 2.55-7.55 2.55-11.95 0-2.9-1.9-4.65-1.7-1.55-4.1-1.55-2.45 0-4.15 1.55-1.9 1.75-1.9 4.65 0 4.5 2.6 11.95-1.05-1.75-1.5-2.35-1.5-2-3.65-2.25-1.9-.25-3.55 1z" id="aj"/><path fill="#B5E3F9" d="M274.6 601.05q0 1.15.75 1.9.8.75 1.9.75 1.15 0 1.95-.75.8-.8.8-1.9 0-1.15-.8-1.95t-1.95-.8q-1.1 0-1.9.8-.75.8-.75 1.95m4.6-19.95q-.8-.8-1.95-.8-1.1 0-1.9.8-.75.75-.75 1.85 0 1.15.75 1.95.8.8 1.9.8 1.15 0 1.95-.8t.8-1.95q0-1.1-.8-1.85m-17.85 10.95q0 1.15.8 1.9.8.8 1.9.8 1.15 0 1.95-.8.8-.75.8-1.9t-.8-1.95q-.8-.8-1.95-.8t-1.9.8q-.8.8-.8 1.95z" id="ak"/><path fill="#9CDBF8" d="M299.3 530.1q-.8 3.9.7 8.75.15.55.65.85.5.25 1.05.05.55-.15.85-.65.3-.5.1-1.05-1.3-4-.7-7.15.5-2.8 2.45-4.6 2.5-2.25 6.1-2.25 3.6 0 6.05 2.25 4.25 3.95 1.75 11.75-.2.5.1 1.05.25.5.8.65.55.2 1.1-.05.5-.3.65-.85 1.6-4.85.8-8.75-.75-3.5-3.25-5.8-3.35-3.05-8-3.05-4.75 0-8 3.05-2.5 2.3-3.2 5.8z" id="al"/><path fill="#E4F4FC" d="M301.45 549.25q1.15 0 1.9-.8.8-.75.8-1.9t-.8-1.95q-.75-.8-1.9-.8-1.1 0-1.9.8-.8.8-.8 1.95 0 1.1.8 1.9.8.8 1.9.8m15.3-2.7q0 1.1.8 1.9.8.8 1.95.8t1.95-.8q.8-.8.8-1.9 0-1.15-.8-1.95t-1.95-.8q-1.15 0-1.95.8t-.8 1.95m-6.3-15.95q-1.15 0-1.95.8-.75.8-.75 1.95 0 1.1.75 1.85.8.8 1.95.8 1.1 0 1.9-.8.8-.75.8-1.85 0-1.15-.8-1.95t-1.9-.8z" id="am"/><path fill="url(#w)" d="M311.95 590.5q0-11.05-.4-27-.45-18.1-1.05-23.5-.65 5.35-1.1 23.5-.4 15.5-.4 27-18.85 0-31.75 1.55 13.5 1.45 31.75 1.45 0 14.9.4 41.4.5 32.65 1.1 37.8.55-5.15 1.05-37.8.4-27.35.4-41.4 18.4 0 31.8-1.45-12.8-1.55-31.8-1.55z" id="an"/><path fill="#3CC6F3" d="M301.15 672.1q-1.4 4.35-.65 7.85.7 3.1 2.9 5.1 2.9 2.75 7.1 2.75 4.05 0 7.05-2.75 2.25-2 2.9-5.1.75-3.5-.65-7.85-.15-.5-.6-.7-.4-.25-.9-.1-.55.15-.8.65-.25.45-.1.95 1.15 3.55.65 6.3-.45 2.5-2.15 4.05-2.1 2.05-5.4 2.05-3.3 0-5.4-2.05-3.75-3.4-1.6-10.35.2-.5-.05-.95-.2-.5-.7-.65-.5-.15-.95.1-.5.2-.65.7z" id="ao"/><path fill="#9CDBF8" d="M310.45 679.45q1.1 0 1.9-.8.8-.8.8-1.95 0-1.1-.8-1.85-.8-.8-1.9-.8-1.15 0-1.95.8-.75.75-.75 1.85 0 1.15.75 1.95.8.8 1.95.8m-10.9-14q.8.8 1.9.8 1.15 0 1.9-.8.8-.75.8-1.9t-.8-1.95q-.75-.8-1.9-.8-1.1 0-1.9.8-.8.8-.8 1.95 0 1.1.8 1.9m19.95-4.65q-1.15 0-1.95.8t-.8 1.95q0 1.1.8 1.9.8.8 1.95.8t1.95-.8q.8-.8.8-1.9 0-1.15-.8-1.95t-1.95-.8z" id="ap"/><path fill="#E4F4FC" d="M345.85 602.95q.8-.75.8-1.9t-.8-1.95q-.8-.8-1.95-.8-1.05 0-1.85.8t-.8 1.95q0 1.1.8 1.9.8.75 1.85.75 1.15 0 1.95-.75m14-10.9q0-1.15-.8-1.95t-1.9-.8q-1.15 0-1.9.8-.8.8-.8 1.95t.8 1.9q.8.8 1.9.8 1.1 0 1.9-.8.8-.8.8-1.9M343.9 580.3q-1.05 0-1.85.8-.8.75-.8 1.85 0 1.15.8 1.95t1.85.8q1.15 0 1.95-.8t.8-1.95q0-1.1-.8-1.85-.8-.8-1.95-.8z" id="aq"/><path fill="url(#x)" d="M293.15 611.75q-5.15-4.45-6.8-7.8-2.95-5.9-1.55-15.65-4.1 11.6-5.6 11.95-.65.2-1.2 1.25-.4.9-.45 1.65-.25 4.85 5.7 7.5 5.35 2.35 9.9 1.1z" id="ar"/><path fill="url(#y)" d="M281.25 560.95q.6.85.2 1.85 0 .05-1.35 2.25-1.55 2.6-7.5 8.25-4.9 4.65-6.9 10.3-2.85 8.35-.15 15.05 3.05 7.5 12.55 10.8 2.35 2.5 5.4 3.2 2.7.6 8.05.2 1.8-.15 1.6-1.15-.15-1-1.35-1.15-6.4-.8-8.1-2.75-2.9-3.15-1.7-10.45.4-2.65 2.55-5.85 2.25-3.35 2.7-5.5.5-2.35.25-5.25-.4-3.9-.25-6.3.2-5.45 3.3-10.7 2.65-4.6 7.2-8.65.5-1.7 1.1-2.75.95-1.65 2.15-3.25-5.2 2.7-10.8 6.05-5.7 3.45-8.95 5.8z" id="as"/><path fill="url(#z)" d="M298.85 552.35l1.15-1.85q-8.7 5.65-12.3 12.25-2.9 5.15-2.1 13.35 1 10.15.5 12.75 1.75-2.3 1.9-10 .1-8.65 1.05-11.15.85-2.15 3.4-5.65 2.6-3.6 5.05-5.95.65-2.45 1.35-3.75z" id="at"/><path fill="url(#A)" d="M281 569.7q-5.9 5.75-8.4 13.2-2.95 8.8.25 17.2-1.85-8.2.45-15.3 2.4-7.25 9.55-14.7.2-.45 0-.8-.15-.3-.55-.35-.35-.05-.75.15-.4.25-.55.6z" id="au"/><path fill="url(#B)" d="M280.65 554.1q-7.85 2.45-8.5 5.55-.3 1.65 1.4 3.6 1.25 1.35 6.2 6.25 2.35 2.35 3.25 2.1.7-.2.6-2.1-.2-2.5.85-4.9 1.1-2.5 3.1-4.05 1.7-1.4 1-3.1-.7-1.75-3.05-1 1.45-2.4-.95-2.75-1.85-.3-3.9.4z" id="av"/><path fill="url(#C)" d="M274.65 564.4l1.65 1.55q-.05-2.4 1.7-4.65 2.05-2.65 6.25-4.7-3.6.85-6.3 2.8-3.15 2.25-3.3 5z" id="aw"/><path fill="url(#D)" d="M307.3 637.4q11.5-7.25 16.35-12.15 8.35-8.3 11.45-20.15-1.928 6.634-12.1 13.9-5.4 3.85-17.05 10.1-7.5 4.05-9.8 5.55-4.75 3.15-7.3 6.65-6 8.45-3.1 26.1.3-11.05 6.75-18.55 4.05-4.7 14.8-11.45z" id="ax"/><path fill="url(#E)" d="M294.55 639.45q2.95-2.5 16.15-10.05 9.35-5.4 12.7-7.95 5.35-4.1 8.4-9.45-4.05 5.35-10.25 9.65-4.3 2.95-14 7.95-10.9 5.7-14.75 9.35-5.5 5.25-6.75 13.8 3.05-8.7 8.5-13.3z" id="ay"/><path fill="url(#F)" d="M310.5 633.15q9.1-5.9 12.5-8.75 5.2-4.45 8.25-9.95-4 5.6-10.1 10.25-4.25 3.25-13.75 8.9-10.75 6.45-14.55 10.35-5.45 5.6-6.6 14.05 3-8.75 8.4-13.75 2.8-2.55 15.85-11.1z" id="az"/></defs><use xlink:href="#G"/><use xlink:href="#H" transform="matrix(1.50124 0 0 1.50124 -307.645 -727.606)"/><use xlink:href="#I" transform="matrix(1.50124 0 0 1.50124 -307.645 -727.606)"/><use xlink:href="#J" transform="matrix(1.50124 0 0 1.50124 -307.645 -727.606)"/><use xlink:href="#K" transform="matrix(1.50124 0 0 1.50124 -307.645 -727.606)"/><use xlink:href="#L" transform="matrix(1.50124 0 0 1.50124 -307.645 -727.606)"/><use xlink:href="#M" transform="matrix(1.50124 0 0 1.50124 -307.645 -727.606)"/><use xlink:href="#N" transform="matrix(1.50124 0 0 1.50124 -307.645 -727.606)"/><use xlink:href="#O" transform="matrix(1.50124 0 0 1.50124 -307.645 -727.606)"/><use xlink:href="#P" transform="matrix(1.50124 0 0 1.50124 -307.645 -727.606)"/><use xlink:href="#Q" transform="matrix(1.50124 0 0 1.50124 -307.645 -727.606)"/><use xlink:href="#R" transform="matrix(1.50124 0 0 1.50124 -307.645 -727.606)"/><use xlink:href="#S" transform="matrix(1.50124 0 0 1.50124 -307.645 -727.606)"/><use xlink:href="#T" transform="matrix(1.50124 0 0 1.50124 -307.645 -727.606)"/><use xlink:href="#U" transform="matrix(1.50124 0 0 1.50124 -307.645 -727.606)"/><use xlink:href="#V" transform="matrix(1.50124 0 0 1.50124 -307.645 -727.606)"/><use xlink:href="#W" transform="matrix(1.50124 0 0 1.50124 -307.645 -727.606)"/><use xlink:href="#X" transform="matrix(1.50124 0 0 1.50124 -307.645 -727.606)"/><use xlink:href="#Y" transform="matrix(1.50124 0 0 1.50124 -307.645 -727.606)"/><use xlink:href="#Z" transform="matrix(1.50124 0 0 1.50124 -307.645 -727.606)"/><use xlink:href="#aa" transform="matrix(1.50124 0 0 1.50124 -307.645 -727.606)"/><use xlink:href="#ab" transform="matrix(1.50124 0 0 1.50124 -307.645 -727.606)"/><use xlink:href="#ac" transform="matrix(1.50124 0 0 1.50124 -307.645 -727.606)"/><use xlink:href="#ad" transform="matrix(1.50124 0 0 1.50124 -307.645 -727.606)"/><use xlink:href="#ae" transform="matrix(1.50124 0 0 1.50124 -307.645 -727.606)"/><use xlink:href="#af" transform="matrix(1.50124 0 0 1.50124 -307.645 -727.606)"/><use xlink:href="#ag" transform="matrix(1.50124 0 0 1.50124 -307.645 -727.606)"/><use xlink:href="#ah" transform="matrix(1.50124 0 0 1.50124 -307.645 -727.606)"/><use xlink:href="#ai" transform="matrix(1.50124 0 0 1.50124 -307.645 -727.606)"/><use xlink:href="#aj" transform="matrix(1.50124 0 0 1.50124 -307.645 -727.606)"/><use xlink:href="#ak" transform="matrix(1.50124 0 0 1.50124 -307.645 -727.606)"/><use xlink:href="#al" transform="matrix(1.50124 0 0 1.50124 -307.645 -727.606)"/><use xlink:href="#am" transform="matrix(1.50124 0 0 1.50124 -307.645 -727.606)"/><use xlink:href="#an" transform="matrix(1.50124 0 0 1.50124 -307.645 -727.606)"/><use xlink:href="#ao" transform="matrix(1.50124 0 0 1.50124 -307.645 -727.606)"/><use xlink:href="#ap" transform="matrix(1.50124 0 0 1.50124 -307.645 -727.606)"/><use xlink:href="#aq" transform="matrix(1.50124 0 0 1.50124 -307.645 -727.606)"/><use xlink:href="#ar" transform="matrix(1.50124 0 0 1.50124 -307.645 -727.606)"/><use xlink:href="#as" transform="matrix(1.50124 0 0 1.50124 -307.645 -727.606)"/><use xlink:href="#at" transform="matrix(1.50124 0 0 1.50124 -307.645 -727.606)"/><use xlink:href="#au" transform="matrix(1.50124 0 0 1.50124 -307.645 -727.606)"/><use xlink:href="#av" transform="matrix(1.50124 0 0 1.50124 -307.645 -727.606)"/><use xlink:href="#aw" transform="matrix(1.50124 0 0 1.50124 -307.645 -727.606)"/><use xlink:href="#ax" transform="matrix(1.50124 0 0 1.50124 -307.645 -727.606)"/><use xlink:href="#ay" transform="matrix(1.50124 0 0 1.50124 -307.645 -727.606)"/><use xlink:href="#az" transform="matrix(1.50124 0 0 1.50124 -307.645 -727.606)"/></svg>