<svg xmlns="http://www.w3.org/2000/svg" xmlns:xlink="http://www.w3.org/1999/xlink" preserveAspectRatio="none" width="284" height="320"><defs><linearGradient id="a" gradientUnits="userSpaceOnUse" x1="86.275" y1="627.087" x2="76.525" y2="657.113" spreadMethod="pad"><stop offset="0%" stop-color="#F7B6CA"/><stop offset="100%" stop-color="#E6288B"/></linearGradient><linearGradient id="b" gradientUnits="userSpaceOnUse" x1="84.713" y1="657.325" x2="90.188" y2="612.775" spreadMethod="pad"><stop offset="0%" stop-color="#F7B6CA"/><stop offset="100%" stop-color="#FBDCE0"/></linearGradient><linearGradient id="c" gradientUnits="userSpaceOnUse" x1="174.662" y1="663.388" x2="176.237" y2="641.013" spreadMethod="pad"><stop offset="0%" stop-color="#773E3C"/><stop offset="100%" stop-color="#8E5A54"/></linearGradient><linearGradient id="d" gradientUnits="userSpaceOnUse" x1="176.825" y1="659.462" x2="177.675" y2="647.337" spreadMethod="pad"><stop offset="0%" stop-color="#97665E"/><stop offset="100%" stop-color="#FFF"/></linearGradient><linearGradient id="e" gradientUnits="userSpaceOnUse" x1="147.175" y1="598.463" x2="75.225" y2="593.438" spreadMethod="pad"><stop offset="0%" stop-color="#7F4643"/><stop offset="100%" stop-color="#A4776F"/></linearGradient><linearGradient id="f" gradientUnits="userSpaceOnUse" x1="93.138" y1="569.45" x2="93.763" y2="551.65" spreadMethod="pad"><stop offset="0%" stop-color="#A97E75"/><stop offset="100%" stop-color="#FFF"/></linearGradient><linearGradient id="g" gradientUnits="userSpaceOnUse" x1="132.825" y1="541.112" x2="142.675" y2="519.987" spreadMethod="pad"><stop offset="0%" stop-color="#A97E75"/><stop offset="100%" stop-color="#FFF"/></linearGradient><linearGradient id="h" gradientUnits="userSpaceOnUse" x1="78.313" y1="575.813" x2="77.787" y2="585.987" spreadMethod="pad"><stop offset="0%" stop-color="#9B6B63"/><stop offset="100%" stop-color="#834B47"/></linearGradient><linearGradient id="i" gradientUnits="userSpaceOnUse" x1="80.838" y1="587.913" x2="81.563" y2="577.488" spreadMethod="pad"><stop offset="0%" stop-color="#622A2E"/><stop offset="100%" stop-color="#85504B"/></linearGradient><linearGradient id="j" gradientUnits="userSpaceOnUse" x1="82.662" y1="574.788" x2="82.037" y2="586.613" spreadMethod="pad"><stop offset="0%" stop-color="#C1A29B"/><stop offset="32.157%" stop-color="#A4776F"/><stop offset="100%" stop-color="#97665E"/></linearGradient><linearGradient id="k" gradientUnits="userSpaceOnUse" x1="102.775" y1="582.488" x2="103.425" y2="569.913" spreadMethod="pad"><stop offset="0%" stop-color="#9B6B63"/><stop offset="100%" stop-color="#D2BBB5"/></linearGradient><linearGradient id="l" gradientUnits="userSpaceOnUse" x1="77.65" y1="567.137" x2="75.35" y2="571.462" spreadMethod="pad"><stop offset="0%" stop-color="#8E5A54"/><stop offset="100%" stop-color="#A4776F"/></linearGradient><linearGradient id="m" gradientUnits="userSpaceOnUse" x1="75.288" y1="574.388" x2="75.612" y2="569.813" spreadMethod="pad"><stop offset="0%" stop-color="#B6928B"/><stop offset="100%" stop-color="#FFF"/></linearGradient><linearGradient id="n" gradientUnits="userSpaceOnUse" x1="129.4" y1="537.75" x2="148.9" y2="536.05" spreadMethod="pad"><stop offset="0%" stop-color="#8E5A54"/><stop offset="100%" stop-color="#E4D7D3"/></linearGradient><linearGradient id="o" gradientUnits="userSpaceOnUse" x1="104.737" y1="573.538" x2="105.663" y2="560.363" spreadMethod="pad"><stop offset="0%" stop-color="#8B5650"/><stop offset="100%" stop-color="#FFF"/></linearGradient><linearGradient id="p" gradientUnits="userSpaceOnUse" x1="111.35" y1="565.725" x2="105.65" y2="572.275" spreadMethod="pad"><stop offset="0%" stop-color="#915E57"/><stop offset="100%" stop-color="#7F4643"/></linearGradient><linearGradient id="q" gradientUnits="userSpaceOnUse" x1="129.488" y1="595.05" x2="93.013" y2="595.05" spreadMethod="pad"><stop offset="0%" stop-color="#622A2E"/><stop offset="100%" stop-color="#8E5A54"/></linearGradient><linearGradient id="r" gradientUnits="userSpaceOnUse" x1="89.513" y1="586.613" x2="79.087" y2="567.788" spreadMethod="pad"><stop offset="0%" stop-color="#A67971"/><stop offset="100%" stop-color="#FFF"/></linearGradient><linearGradient id="s" gradientUnits="userSpaceOnUse" x1="99.588" y1="561.775" x2="113.713" y2="562.525" spreadMethod="pad"><stop offset="0%" stop-color="#622A2E"/><stop offset="100%" stop-color="#85504B"/></linearGradient><linearGradient id="t" gradientUnits="userSpaceOnUse" x1="76.75" y1="593.438" x2="75.35" y2="586.862" spreadMethod="pad"><stop offset="0%" stop-color="#A67971"/><stop offset="100%" stop-color="#FFF"/></linearGradient><linearGradient id="u" gradientUnits="userSpaceOnUse" x1="147.675" y1="661.463" x2="149.525" y2="634.938" spreadMethod="pad"><stop offset="0%" stop-color="#95645C"/><stop offset="100%" stop-color="#A3776F"/></linearGradient><linearGradient id="v" gradientUnits="userSpaceOnUse" x1="118.175" y1="634.337" x2="119.925" y2="609.363" spreadMethod="pad"><stop offset="0%" stop-color="#9E6F67"/><stop offset="100%" stop-color="#FFF"/></linearGradient><linearGradient id="w" gradientUnits="userSpaceOnUse" x1="92" y1="669.388" x2="92.7" y2="659.313" spreadMethod="pad"><stop offset="0%" stop-color="#97665E"/><stop offset="100%" stop-color="#FFF"/></linearGradient><linearGradient id="x" gradientUnits="userSpaceOnUse" x1="126.538" y1="675.4" x2="127.362" y2="663.7" spreadMethod="pad"><stop offset="0%" stop-color="#97665E"/><stop offset="100%" stop-color="#FFF"/></linearGradient><linearGradient id="y" gradientUnits="userSpaceOnUse" x1="152.037" y1="629.563" x2="156.263" y2="569.037" spreadMethod="pad"><stop offset="0%" stop-color="#97665E"/><stop offset="100%" stop-color="#FFF"/></linearGradient><linearGradient id="z" gradientUnits="userSpaceOnUse" x1="110.063" y1="588.288" x2="99.137" y2="582.712" spreadMethod="pad"><stop offset="0%" stop-color="#9E6F66"/><stop offset="100%" stop-color="#BE9C94"/></linearGradient><linearGradient id="A" gradientUnits="userSpaceOnUse" x1="97.5" y1="585.475" x2="111.8" y2="585.225" spreadMethod="pad"><stop offset="0%" stop-color="#89564F"/><stop offset="100%" stop-color="#916059"/></linearGradient><linearGradient id="B" gradientUnits="userSpaceOnUse" x1="109.188" y1="594.913" x2="99.012" y2="587.788" spreadMethod="pad"><stop offset="0%" stop-color="#9E6F66"/><stop offset="100%" stop-color="#BE9C94"/></linearGradient><linearGradient id="C" gradientUnits="userSpaceOnUse" x1="97.275" y1="590.313" x2="111.225" y2="591.787" spreadMethod="pad"><stop offset="0%" stop-color="#89564F"/><stop offset="100%" stop-color="#916059"/></linearGradient><linearGradient id="D" gradientUnits="userSpaceOnUse" x1="106.275" y1="600.788" x2="97.325" y2="593.012" spreadMethod="pad"><stop offset="0%" stop-color="#9E6F66"/><stop offset="100%" stop-color="#BE9C94"/></linearGradient><linearGradient id="E" gradientUnits="userSpaceOnUse" x1="95.15" y1="595.237" x2="108.45" y2="598.063" spreadMethod="pad"><stop offset="0%" stop-color="#89564F"/><stop offset="100%" stop-color="#916059"/></linearGradient><linearGradient id="F" gradientUnits="userSpaceOnUse" x1="120.438" y1="586.688" x2="110.963" y2="585.513" spreadMethod="pad"><stop offset="0%" stop-color="#97665E"/><stop offset="100%" stop-color="#B8948C"/></linearGradient><linearGradient id="G" gradientUnits="userSpaceOnUse" x1="111.05" y1="587.95" x2="121.45" y2="583.95" spreadMethod="pad"><stop offset="0%" stop-color="#804A46"/><stop offset="100%" stop-color="#895650"/></linearGradient><linearGradient id="H" gradientUnits="userSpaceOnUse" x1="120.438" y1="593.875" x2="110.262" y2="592.625" spreadMethod="pad"><stop offset="0%" stop-color="#97665E"/><stop offset="100%" stop-color="#B8948C"/></linearGradient><linearGradient id="I" gradientUnits="userSpaceOnUse" x1="109.8" y1="595.35" x2="121" y2="591.05" spreadMethod="pad"><stop offset="0%" stop-color="#804A46"/><stop offset="100%" stop-color="#895650"/></linearGradient><linearGradient id="J" gradientUnits="userSpaceOnUse" x1="96.325" y1="612.95" x2="143.775" y2="598.45" spreadMethod="pad"><stop offset="0%" stop-color="#E6288B"/><stop offset="16.863%" stop-color="#FBDCE0"/><stop offset="36.863%" stop-color="#EE5299"/><stop offset="78.824%" stop-color="#CC267D"/><stop offset="100%" stop-color="#EE599C"/></linearGradient><linearGradient id="K" gradientUnits="userSpaceOnUse" x1="71.138" y1="620" x2="85.962" y2="610" spreadMethod="pad"><stop offset="0%" stop-color="#E6288B"/><stop offset="100%" stop-color="#F287B1"/></linearGradient><linearGradient id="L" gradientUnits="userSpaceOnUse" x1="87.95" y1="636.463" x2="89.85" y2="620.938" spreadMethod="pad"><stop offset="0%" stop-color="#EF609F"/><stop offset="100%" stop-color="#E02888"/></linearGradient><linearGradient id="M" gradientUnits="userSpaceOnUse" x1="86.263" y1="634.975" x2="83.538" y2="630.925" spreadMethod="pad"><stop offset="0%" stop-color="#F5A5C1"/><stop offset="100%" stop-color="#FFF"/></linearGradient><linearGradient id="N" gradientUnits="userSpaceOnUse" x1="77.85" y1="619.6" x2="75.55" y2="616.2" spreadMethod="pad"><stop offset="0%" stop-color="#F5A5C1"/><stop offset="100%" stop-color="#FFF"/></linearGradient><path fill="#FFF" fill-opacity="0" d="M0 320h284V0H0v320z" id="O"/><path fill="url(#a)" d="M96.6 612.7q2.48.554 3.3.6l-1.15-1.6q-1.075.46-2.15 1m0 0q-.24-.042-.5-.1-2.05-.45-3.7.05-3.8 1.05-7.75 4.35-3.9 3.25-6.25 7.35-2.55 4.5-1.9 11.5.85 8.45.2 11.1-.35 1.75-1.25 3.5-1 2-2.35 3 2.65-.75 4.6-3.45 1.55-2.2 2.35-5.25.55-2.55.3-8.55-.2-5.3 1.2-9.05 1.55-4.2 7-8.9 3.996-3.442 8.05-5.55z" id="P"/><path fill="url(#b)" d="M93.9 613.85q.295-.004.6 0l.3-.7q-.464.345-.9.7m0 0q-3.65.16-6.1 2.75-3.05 3.25-3.95 10.05-.65 4.25.6 11.3.55 2.9 2.25 9.55 1.05 6.15-1.2 11 2.65-3.85 2.95-5.05 1.15-4.5-.95-14.2-1.85-8.4-.15-14.9 1.652-6.425 6.55-10.5z" id="Q"/><path fill="url(#c)" d="M181.85 648.05q-4.9-2.7-10.45-.85-5.55 1.8-8.4 7.05-2.9 5.25-1.45 10.9 1.4 5.6 6.3 8.3 4.95 2.7 10.5.9 5.5-1.85 8.4-7.05 2.9-5.25 1.45-10.9t-6.35-8.35z" id="R"/><path fill="url(#d)" d="M177.45 649.8q-2.25-.2-4 1.65-1.75 1.8-1.9 4.5-.15 2.65 1.35 4.7 1.5 2 3.75 2.1 2.3.15 4.05-1.65 1.7-1.8 1.85-4.5.2-2.7-1.3-4.7t-3.8-2.1z" id="S"/><path fill="#773E3C" d="M165.95 546.15q5.85-11.5-.95-15.05-2.75-1.45-6.8-.95-4 .5-7.55 2.65-7.65 4.55-13.6 13.05-.85 1.2-7.55 12.7-3.95-1.5-5.7-2l-6.1 15.55 1.85 11.6q-.05-2.1 3.05-5.7 3.4-4 7.5-5.6 13-5.1 20.85-10.3 10.45-7 15-15.95z" id="T"/><path fill="#97665E" d="M147.55 515.05l-7.4 3.45q-.6.7-1.5 3.45-.85 2.45-2 3.35-1.45 1.25-4.6 3.65-2.6 2.25-3.8 4.4-3.7 6.8-5.3 14.05-2.1 9.35 1 14.4.5.9 2.15.45.05 0 3.9-1.45 5.95-2.25 11.65-7.5 5.85-5.45 9.2-12 8.2-16-3.3-26.25z" id="U"/><path fill="url(#e)" d="M80.5 562.8q-2 1.5-3.55 2-3.45 2.6-4.1 4.55-.85 2.7 1.95 6.7-.05.65-.85 3.75-.8 3.15-.85 3.75-.6 5.9 1.9 9.85 1.6 2.6 5.4 5.2 8.9 6.25 10.7 9.15 2.65 4.25.3 12.3-1.45 4.9-1.15 9.85.25 3.6 2.25 12.25 1.5 6.4.65 10.6-.8 3.65-3.8 6.9-3.7 4-4.5 5.7-1.3 2.75-1.05 5.45.25 3.1 2.65 5.4 3.9 3.7 13.1 3.4 9.65-.35 10.45-5.75 1.7 4.25 7.55 6.2 4.7 1.6 10.1 1.25 3.2-.25 8.7-1.3 2.85-.5 7.8-1.65 4.25-.75 7.9-.25 11 1.4 16.1-2.55 8.7-6.65 5.9-23.15-1.15-6.9-4.2-13.25-3-6.4-6.85-10.05-5.15-5-7.85-7.55-4.75-4.5-8.6-7.5-5.55-4.25-7.8-8.25-3.15-5.65-2.25-13.85.2-1.9.75-3.5.75-2.25.9-2.9 1.7-8 1.4-13.2-.55-7.95-5.25-17.6 5.65-3.9 8.35-6.6 5.15-5.05 7.35-11.4 2.1-6 2.1-11-.05-5.15-2.3-8.25-3.7-5.2-10.5-3.65-5.75 1.3-10.75 6.25-3.7 3.7-5.85 8.7-.8 1.8-2.8 8.3-.1.35-1 4.4-.5 2.4-1.3 3.65-2.25 3.45-10.55 4.7-4 .45-5.75.65-3.1.4-5.5 1.2-3.2 1.15-6.25 3.1-3.5 2.2-5.65 4.75-1.3 1.7-3.4 3.25z" id="V"/><path fill="url(#f)" d="M73.9 569.5q1.35 2.4 5.05 1.85 3.15-.5 6.6.35 3.75.9 5.95 3 10.15-1.05 14-1.6 4-.6 1.95-3.5-1.95-2.85-5.65-3.5-3.8-.65-4.55-2.7-.7-1.95 1.5-3.85 1.7-1.4 4.4-1.95 1.85-.4 5.2-.55 1.3-.05 3.25-.05 1.35-.1 1.5-.7.1-.7-.6-1.1-.8-.45-3.3-.9-5.5-.9-11.05.4-6.9 1.65-12.2 6.5-3.35 3.15-4.55 3.95-2.9 2-5.55 1.95-1.45 0-2 .75-.45.7.05 1.65z" id="W"/><path fill="url(#g)" d="M130.55 530.2q-3.6 5.5-4.35 11.1-1.15 7.65-.2 9.4.9 1.55 4.2-1.15 2.9-2.35 6.2-5.8 3-3.15 4.35-4.8 2.15-2.7 3.15-5.1 3-6.95 1.35-11-1.65-4.2-6.6-.95-4.6 3-8.1 8.3z" id="X"/><path fill="url(#h)" d="M75.25 571.8q-.15-.4-3.15 1.1-1.55 1.95-1.65 5.45-.1 3.15 1 5.65 1.15 2.6 2.75 2.45 1.85-.2 3.55-4.3.15-.3-.05 2-.25 2.95.45 3.05 7.65.95 7.45-3.55-.25-4.35-6.8-8.15-2.7-1.6-3.55-3.7z" id="Y"/><path fill="url(#i)" d="M76.2 573.45l-3.15 1.5q-.85 4.3.15 7.2.05.15.75 1.7.5 1.1.45 1.65-.1.8-1.65.4 1.35 1.2 2.7.1 3 3.8 8.25 3.4 5.15-.4 6.15-4-.65 0-4.8 1.25-3.85 1.15-5.15.7 6.35.15 5.65-4.15-.7-4.2-6.75-7.7-1.85-1.1-2.6-2.05m.25 11.3q.7-1.05 1.3-2.6.15-.4.05.9-.25 1.95-.15 2.85-.85-.6-1.05-1l-.15-.15z" id="Z"/><path fill="url(#j)" d="M76.3 574.1q-.75.5-2.25 1.45-1 5.1 1.45 8.75 2.35 3.5 6.55 4 2.25.25 4.25-.4 1.9-.65 3.15-2.05 1.4-1.6 1.55-4.5.1-3.1-1.45-5.25-2.75-3.65-10.6-3-1.2.1-2.65 1z" id="aa"/><path fill="url(#k)" d="M100.75 572.9q-2.6-1-3.5-.9-3.35.2-5.05 1.85-1.5 1.5-1.1 3.4.4 1.95 2.45 2.85 2.35 1.05 5.7.15 4.45-1.3 5.1-1.4 3.3-.65 6.15.1 3.2.75 4.1 0 1.7-1.7-3.05-4.05-.9-.45-2.8-.6-2.45-.1-3.75-.2-1.4-.05-4.25-1.2z" id="ab"/><path fill="url(#l)" d="M71.3 568.15q-.8 1.3-.55 3.05.2 1.55 1.15 3 1.25 1.85 3.2 1.95 1.65.05 3.35-1.05 2.95-2.1 1.25-5.15-2.3-4.1-1.95-5.5-2.6.75-3.65 1.25-1.75.8-2.8 2.45z" id="ac"/><path fill="url(#m)" d="M79.25 572.1q-.05-.35-.3-.6-.4-.25-1.5 0-1.6.45-3.1.1t-2.6-1.45q-.1 1.45.5 2.65.6 1.1 1.6 1.75 1.45.85 2.95.3 1.45-.55 2.3-2.05.2-.3.15-.7z" id="ad"/><path fill="url(#n)" d="M141.4 523.4q-5.75 3.05-10.3 11.4-3.95 7.25-5.25 14.9-.5 2.85 2.35 1.4 1.5-.75 6-4.15 8.45-6.35 10.6-16.5.8-4-.1-6.1-.95-2.2-3.3-.95z" id="ae"/><path fill="#622A2E" d="M97.1 573.75q2.4 2.15 6.25 2.15 3.45.1 5.8-1.45 2.4-1.55 2.5-4 .15-2.35-2.1-3.75-2.1-1.35-5.55-1.45-5.15-.25-7.7 2.55-2.65 2.85.8 5.95z" id="af"/><path fill="url(#o)" d="M105.3 564.4q-2.45-.2-4.35 1.2-1.9 1.35-2 3.4-.05 2.1 1.6 3.65 1.7 1.6 4.2 1.75 2.5.1 4.35-1.25 1.85-1.4 1.95-3.45.2-2.05-1.5-3.6-1.7-1.6-4.25-1.7z" id="ag"/><path fill="url(#p)" d="M108.85 565.55q1.5 1.7.65 3.6-.7 1.55-2.45 2.15-1.7.55-3.4 0-1.45-.4-1.95.6-.5.95.6 1.85.95.5 2.45.65 2.5.1 4.35-1.25 1.85-1.4 1.95-3.45.25-2.5-2.2-4.15z" id="ah"/><path fill="#C7ABA3" d="M107.5 573.05q1.2-.5 1.9-1.45-1.5 1.35-3.95 1.2-2.1-.15-3.5-1.45-1.45-1.3-1.4-3.05.15-1.2.8-2.05-1.3 1.25-1.45 2.7-.1 1.75 1.35 3.1 1.45 1.3 3.55 1.4 1.45.1 2.7-.4z" id="ai"/><path fill="#FFF" d="M104.75 565.1q-1.65-.1-2.9.65-.75.4-.95 1.15-.05.35.25.6.25.2.55.2.45 0 1.45-.85.35-.6 1.45-.8.85-.15.85-.6-.1-.35-.7-.35z" id="aj"/><path fill="#FFF" d="M78.1 572.1q-.3-.2-.7 0-.45.25-.8.35-.45.1-1.05 0-.65 0-.75.15-.1.15 0 .35.1.2.35.3.9.4 2.3.2.75-.1 1-.55.35-.6-.35-.8z" id="ak"/><path fill="url(#q)" d="M115.55 598.85q-11.95 6.15-26.25-1.2 4.6 3.6 11.2 5.05 6.45 1.4 12.5.15 6.45-1.25 10.2-5.15 4.15-4.3 4.05-11-2.9 7.6-11.7 12.15z" id="al"/><path fill="url(#r)" d="M79.95 575.9q-.6 1.5 1 2.3.8.4 2 .35.65 0 1.4-.1 4.05-.2 5.75 4-.25-5.4-4-7.5-1.95-1.05-3.75-.75-1.85.2-2.4 1.7z" id="am"/><path fill="url(#s)" d="M106.45 560.55q-3.15-.2-5.45.55-1.5.4-1.15 1.4.35 1.05 2.2.75l2.2-.45q3.85 0 5 .2 2.05.3 3.85 1.1 1.1-.75-.65-1.8-2.85-1.4-6-1.75z" id="an"/><path fill="url(#t)" d="M77.75 592q0-1.95-.65-3.2-.75-1.4-1.85-.95-1.1.45-.85 1.95.35 1.6 1.1 2.85.65 1 1.95 2.4.25-2.4.3-3.05z" id="ao"/><path fill="url(#u)" d="M138.85 656.6q1.85-10.05 9.95-13 6.85-2.5 16 .5-11.5-7.15-21.35-3.4-9.5 3.6-11.15 14.55-.6 3.9.15 6 .6 1.75 2 1.9 1.35.15 2.5-1.4 1.3-1.7 1.9-5.15z" id="ap"/><path fill="#622A2E" d="M145.8 637.85q5.1-.9 10.9.45 4.8 1.15 8.15 3.25-5.95-6.85-12.75-8.15-6.1-1.2-11.7 2.2-5.3 3.2-8.55 9.35-3.3 6.25-3.2 13.25 3.25-17.85 17.15-20.35z" id="aq"/><path fill="url(#v)" d="M130.5 617.9q-1.6-2.95-3.75-2.65-3.2 1.1-5.75 1.75-2.95.85-7.5 1.2-4.25.35-8.1.2-3.65-.1-3.75-.05-1.45.55-2.05 4.7-.4 3.5-.35 6 .2 3.7 1.2 5.95 1.25 2.7 4 4.25 6.45 3.6 10-3.3 1.3-2.35 2.75-7.55 1.3-4.65 5.1-5.7 3.6-.95 6.1 1.95 1.15 1.35 3.6 1.95 2.95.75 6.15-.2-4.55-2.75-7.65-8.5z" id="ar"/><path fill="url(#w)" d="M85.95 671.4q.25-3.8 4.15-5.55 2.95-1.35 5.9-1 1.4.15 2.1-.55.65-.65.15-1.55-.5-1-2.05-1.35-1.45-.35-3.35-.05-3.3.65-5.4 4.1-1.85 3.1-1.5 5.95z" id="as"/><path fill="url(#x)" d="M115.05 670.95q-1.25 1.75-1.2 3.3.05 1.3.95 1.75 1.05.5 2.75-.4 1.6-.9 2.9-2.65 2.35-3.25 8.05-4.65 4.1-1 11.45-1.3-19.35-3.8-24.9 3.95z" id="at"/><path fill="url(#y)" d="M139.95 580.55q.4-6.35-.75-11.05.55 6.55-1.8 17.25-2.25 10.15-1.55 14.7.9 6.25 7.65 12.75 3.8 3.6 11.4 9.6 5.45 4.9 8.45 8 4.6 4.75 6.6 8.2-2.4-8.3-9.35-16.45-1.95-2.2-14.4-14.5-4.65-4.6-5.9-7.25-1.65-3.6-1.3-10.35.75-7.25.95-10.9z" id="au"/><path fill="#773E3C" d="M109.75 674.25l2.25-5.45q1.45-2.85 3.4-3.95 2.85-1.6 10.3-1.8 3.184-.09 4.85 0-6.51-.58-13.9-8.7-3.05-3.6-3.8-4.4-1.1-1.15-.55.85 1.25 4.9.4 11.75-.8 6-2.95 11.7z" id="av"/><path fill="url(#z)" d="M97.8 586.2q.4 1.25 2.95 1.65 1.7.3 3.7.15 3.15-.2 5.95-1.5.9-.4 1.15-1.2.2-.7-.25-1.1-1.95 1.3-4 1.5-1.9.3-5 0l-2.1-.5q-.2-.05-.85-.45-.6-.35-.75-.35-.55.1-.8.65-.2.5 0 1.15z" id="aw"/><path fill="url(#A)" d="M98.95 586.2q2.65.9 5.5.75 3.25-.2 5.95-1.45 1.85-.9.8-1.8-1.85.7-3.9.9-2.85.4-5 0-1.15-.25-2.2-.4-1.85-.45-2.2.6-.4 1 1.05 1.4z" id="ax"/><path fill="url(#B)" d="M97.05 589.8q-.25.45-.15 1.1.4 2.1 6.3 2.65 3.1.25 6.15-.7.95-.3 1.25-1.1.3-.7-.1-1.1-2.1 1.05-4.1.95-2.85 0-5-.65l-2.05-.7q-.15-.05-.75-.6-.55-.45-.7-.4-.55.05-.85.55z" id="ay"/><path fill="url(#C)" d="M97.15 589.5q-.55.95.9 1.6 2.45 1.25 5.3 1.35 2.95.3 6.15-.7.95-.3 1.2-.8.2-.4-.2-.8-1.95.45-3.95.45-1.4 0-3.15-.3-1.6-.35-1.9-.4-.05 0-2-.75-1.85-.6-2.35.35z" id="az"/><path fill="url(#D)" d="M108.1 596.95q-2.05.8-4 .55-1.8-.25-4.75-1.15l-1.9-.95q-.15-.05-.65-.55t-.65-.5q-.55-.05-.9.4-.3.45-.25 1.1.15 1.25 2.45 2.2 1.5.65 3.4.95 2.95.55 5.95-.05 1-.2 1.35-.9.35-.65-.05-1.1z" id="aA"/><path fill="url(#E)" d="M107.05 597.95q.95-.2 1.25-.65.25-.4-.1-.8-1.95.2-3.9 0-1.35-.15-4.75-1.15l-1.85-.95q-1.7-.75-2.3.15-.55.85.7 1.6 2.65 1.5 4.95 1.85 3 .55 6-.05z" id="aB"/><path fill="url(#F)" d="M111.3 587q-.35.2-.4.7 0 .4.3.8 1.2 1.4 5.35-.5 2.35-1 4-2.75.55-.55.5-1.15-.05-.6-.55-.7-1 1.45-2.45 2.15-.95.5-2.25.95-1.2.4-1.4.45l-1.7.2q-.15 0-.75-.1-.55-.15-.65-.05z" id="aC"/><path fill="url(#G)" d="M112.1 588.2q2.2-.1 4.15-.9 2.35-1.15 3.95-2.75 1.15-1.2.15-1.5-1.2 1-2.6 1.7-1.8.95-3.75 1.4l-1.65.25q-1.45.2-1.45 1.05 0 .85 1.2.75z" id="aD"/><path fill="url(#H)" d="M120.35 592.3q.6-.6.55-1.25-.05-.65-.55-.75-1.15 1.5-2.65 2.3-1.4.8-3.95 1.55l-1.8.2q-.2 0-.8-.1-.55-.15-.65-.05-.45.25-.45.75-.05.45.3.85.75.9 2.85.45 1.4-.25 2.9-.95 2.55-1.15 4.25-3z" id="aE"/><path fill="url(#I)" d="M120.05 591.55q.65-.6.6-1.1-.05-.35-.5-.5-1.25 1.1-2.75 1.85-1.05.55-2.4 1-1.15.4-1.55.45-1 .15-1.8.3-1.6.25-1.6 1.15-.05.9 1.25.8 2.45-.15 4.5-1 2.4-1.1 4.25-2.95z" id="aF"/><path fill="#CC267D" d="M92.25 612.85q-.3.4-1.2.35 15.9 4.7 30.6 1.25Q140.5 610 139.3 592.6q-2.4 12.65-17.55 17.05-9.25 2.7-28.25 2.75-.9 0-1.25.45z" id="aG"/><path fill="url(#J)" d="M120.35 609.75q-8.85 2.3-29.25 2.15 16.05 4.65 30.5 1.4 18.8-4.25 17.55-21.6-2.6 13.8-18.8 18.05z" id="aH"/><path fill="url(#K)" d="M92.45 610.75q-.35-.4.05-.45-12.65-3.1-17.8-.05-1.25.75-2 2.15-.75 1.45-.8 3.2-.1 3.85 1.7 5.7 1.7 1.8 4.25 1.05 1.75-.4 3.45-1.95 1.95-1.95 3.15-2.9 3.2-2.35 4.25-3.1 2.6-1.75 4.6-2.5-2.5-.05-7.9 2.5-3.35 1.55-6.15 3.2-1.6 1-2.8.4-1.05-.55-1.25-2.05-.2-2.05 1.4-3.25 2.35-1.65 7.55-1.85 2.9-.1 8.2.2.4.05.1-.3z" id="aI"/><path fill="url(#L)" d="M88.3 618.1q1.827-2.518 3.85-4.4.024-.026.05-.05l-.05-1.4q-4.5 1.25-9.45 10.2-5.2 9.4-.95 12.65 2.55 1.95 6 2.3 4.4.55 7.15-1.65 3.05-2.45 2.25-7.3-.75-4.5-1.95-8.3-1.45-4.65-3.05-6.45.05.35 1.3 5.1 1.2 4.45 1.4 7.3.3 4.7-3.3 6.15-3.15 1.3-6.05-.45-1.95-1.15-1.75-3.55.1-1.5 1.2-4.15 1-2.85 3.35-6z" id="aJ"/><path fill="#EE599C" d="M92.15 609.75q-.95 0-1.6.8-.65.8-.7 2-.05 1.2.55 2.05.65.85 1.6.9.9 0 1.6-.8.7-.8.7-2 .05-1.2-.6-2.05-.65-.85-1.55-.9z" id="aK"/><path fill="url(#M)" d="M83.55 634.85q1.45.75 6.3.9-3.75-.5-5.8-1.85-2.3-1.6-2.65-4.55-.1 4.25 2.15 5.5z" id="aL"/><path fill="url(#N)" d="M75.6 620.55q2.4.8 5.35-1.65-3.15 1.9-5.2.85-2.05-1.1-2-4.75-.85 4.7 1.85 5.55z" id="aM"/></defs><use xlink:href="#O"/><use xlink:href="#P" transform="matrix(1.55263 0 0 1.55266 -59.133 -747.54)"/><use xlink:href="#Q" transform="matrix(1.55263 0 0 1.55266 -59.133 -747.54)"/><use xlink:href="#R" transform="matrix(1.55263 0 0 1.55266 -59.133 -747.54)"/><use xlink:href="#S" transform="matrix(1.55263 0 0 1.55266 -59.133 -747.54)"/><use xlink:href="#T" transform="matrix(1.55263 0 0 1.55266 -59.133 -747.54)"/><use xlink:href="#U" transform="matrix(1.55263 0 0 1.55266 -59.133 -747.54)"/><use xlink:href="#V" transform="matrix(1.55263 0 0 1.55266 -59.133 -747.54)"/><use xlink:href="#W" transform="matrix(1.55263 0 0 1.55266 -59.133 -747.54)"/><use xlink:href="#X" transform="matrix(1.55263 0 0 1.55266 -59.133 -747.54)"/><use xlink:href="#Y" transform="matrix(1.55263 0 0 1.55266 -59.133 -747.54)"/><use xlink:href="#Z" transform="matrix(1.55263 0 0 1.55266 -59.133 -747.54)"/><use xlink:href="#aa" transform="matrix(1.55263 0 0 1.55266 -59.133 -747.54)"/><use xlink:href="#ab" transform="matrix(1.55263 0 0 1.55266 -59.133 -747.54)"/><use xlink:href="#ac" transform="matrix(1.55263 0 0 1.55266 -59.133 -747.54)"/><use xlink:href="#ad" transform="matrix(1.55263 0 0 1.55266 -59.133 -747.54)"/><use xlink:href="#ae" transform="matrix(1.55263 0 0 1.55266 -59.133 -747.54)"/><use xlink:href="#af" transform="matrix(1.55263 0 0 1.55266 -59.133 -747.54)"/><use xlink:href="#ag" transform="matrix(1.55263 0 0 1.55266 -59.133 -747.54)"/><use xlink:href="#ah" transform="matrix(1.55263 0 0 1.55266 -59.133 -747.54)"/><use xlink:href="#ai" transform="matrix(1.55263 0 0 1.55266 -59.133 -747.54)"/><use xlink:href="#aj" transform="matrix(1.55263 0 0 1.55266 -59.133 -747.54)"/><use xlink:href="#ak" transform="matrix(1.55263 0 0 1.55266 -59.133 -747.54)"/><use xlink:href="#al" transform="matrix(1.55263 0 0 1.55266 -59.133 -747.54)"/><use xlink:href="#am" transform="matrix(1.55263 0 0 1.55266 -59.133 -747.54)"/><use xlink:href="#an" transform="matrix(1.55263 0 0 1.55266 -59.133 -747.54)"/><use xlink:href="#ao" transform="matrix(1.55263 0 0 1.55266 -59.133 -747.54)"/><use xlink:href="#ap" transform="matrix(1.55263 0 0 1.55266 -59.133 -747.54)"/><use xlink:href="#aq" transform="matrix(1.55263 0 0 1.55266 -59.133 -747.54)"/><use xlink:href="#ar" transform="matrix(1.55263 0 0 1.55266 -59.133 -747.54)"/><use xlink:href="#as" transform="matrix(1.55263 0 0 1.55266 -59.133 -747.54)"/><use xlink:href="#at" transform="matrix(1.55263 0 0 1.55266 -59.133 -747.54)"/><use xlink:href="#au" transform="matrix(1.55263 0 0 1.55266 -59.133 -747.54)"/><use xlink:href="#av" transform="matrix(1.55263 0 0 1.55266 -59.133 -747.54)"/><use xlink:href="#aw" transform="matrix(1.55263 0 0 1.55266 -59.133 -747.54)"/><use xlink:href="#ax" transform="matrix(1.55263 0 0 1.55266 -59.133 -747.54)"/><use xlink:href="#ay" transform="matrix(1.55263 0 0 1.55266 -59.133 -747.54)"/><use xlink:href="#az" transform="matrix(1.55263 0 0 1.55266 -59.133 -747.54)"/><use xlink:href="#aA" transform="matrix(1.55263 0 0 1.55266 -59.133 -747.54)"/><use xlink:href="#aB" transform="matrix(1.55263 0 0 1.55266 -59.133 -747.54)"/><use xlink:href="#aC" transform="matrix(1.55263 0 0 1.55266 -59.133 -747.54)"/><use xlink:href="#aD" transform="matrix(1.55263 0 0 1.55266 -59.133 -747.54)"/><use xlink:href="#aE" transform="matrix(1.55263 0 0 1.55266 -59.133 -747.54)"/><use xlink:href="#aF" transform="matrix(1.55263 0 0 1.55266 -59.133 -747.54)"/><use xlink:href="#aG" transform="matrix(1.55263 0 0 1.55266 -59.133 -747.54)"/><use xlink:href="#aH" transform="matrix(1.55263 0 0 1.55266 -59.133 -747.54)"/><use xlink:href="#aI" transform="matrix(1.55263 0 0 1.55266 -59.133 -747.54)"/><use xlink:href="#aJ" transform="matrix(1.55263 0 0 1.55266 -59.133 -747.54)"/><use xlink:href="#aK" transform="matrix(1.55263 0 0 1.55266 -59.133 -747.54)"/><use xlink:href="#aL" transform="matrix(1.55263 0 0 1.55266 -59.133 -747.54)"/><use xlink:href="#aM" transform="matrix(1.55263 0 0 1.55266 -59.133 -747.54)"/></svg>