<svg xmlns="http://www.w3.org/2000/svg" xmlns:xlink="http://www.w3.org/1999/xlink" preserveAspectRatio="none" width="284" height="320"><defs><linearGradient id="a" gradientUnits="userSpaceOnUse" x1="275.012" y1="451.888" x2="252.488" y2="477.813" spreadMethod="pad"><stop offset="0%" stop-color="#F38EB5"/><stop offset="100%" stop-color="#DC2886"/></linearGradient><linearGradient id="b" gradientUnits="userSpaceOnUse" x1="275.975" y1="408.7" x2="229.425" y2="377.3" spreadMethod="pad"><stop offset="0%" stop-color="#F393B8"/><stop offset="100%" stop-color="#E6288B"/></linearGradient><linearGradient id="c" gradientUnits="userSpaceOnUse" x1="279.413" y1="408.45" x2="299.288" y2="429.05" spreadMethod="pad"><stop offset="0%" stop-color="#F8C4D2"/><stop offset="100%" stop-color="#F287B1"/></linearGradient><linearGradient id="d" gradientUnits="userSpaceOnUse" x1="261" y1="382.538" x2="261" y2="402.962" spreadMethod="pad"><stop offset="0%" stop-color="#F287B1"/><stop offset="100%" stop-color="#ED3491"/></linearGradient><linearGradient id="e" gradientUnits="userSpaceOnUse" x1="261" y1="384.512" x2="261" y2="400.887" spreadMethod="pad"><stop offset="0%" stop-color="#9CDBF8"/><stop offset="100%" stop-color="#00A6E6"/></linearGradient><linearGradient id="f" gradientUnits="userSpaceOnUse" x1="255.088" y1="386.938" x2="264.512" y2="396.362" spreadMethod="pad"><stop offset="0%" stop-color="#CCDDE5"/><stop offset="100%" stop-color="#73B0C5"/></linearGradient><linearGradient id="g" gradientUnits="userSpaceOnUse" x1="261" y1="381.55" x2="261" y2="404.25" spreadMethod="pad"><stop offset="0%" stop-color="#FFF"/><stop offset="100%" stop-color="#FFF1C0"/></linearGradient><linearGradient id="h" gradientUnits="userSpaceOnUse" x1="261" y1="383.525" x2="261" y2="403.475" spreadMethod="pad"><stop offset="0%" stop-color="#F6ABC5"/><stop offset="100%" stop-color="#ED3491"/></linearGradient><linearGradient id="i" gradientUnits="userSpaceOnUse" x1="261.05" y1="389.525" x2="261.05" y2="396.375" spreadMethod="pad"><stop offset="0%" stop-color="#9CDBF8"/><stop offset="100%" stop-color="#00A6E6"/></linearGradient><linearGradient id="j" gradientUnits="userSpaceOnUse" x1="261" y1="382.538" x2="261" y2="404.163" spreadMethod="pad"><stop offset="0%" stop-color="#F6ABC5"/><stop offset="100%" stop-color="#ED3491"/></linearGradient><linearGradient id="k" gradientUnits="userSpaceOnUse" x1="261" y1="405.512" x2="261" y2="379.988" spreadMethod="pad"><stop offset="0%" stop-color="#FBDCE0"/><stop offset="100%" stop-color="#FFF"/></linearGradient><linearGradient id="l" gradientUnits="userSpaceOnUse" x1="261" y1="384.525" x2="261" y2="405.975" spreadMethod="pad"><stop offset="0%" stop-color="#FFE598"/><stop offset="100%" stop-color="#FFCB31"/></linearGradient><linearGradient id="m" gradientUnits="userSpaceOnUse" x1="270.625" y1="457.962" x2="300.975" y2="426.538" spreadMethod="pad"><stop offset="0%" stop-color="#F8C4D2"/><stop offset="100%" stop-color="#F287B1"/></linearGradient><linearGradient id="n" gradientUnits="userSpaceOnUse" x1="271" y1="448.525" x2="271" y2="466.175" spreadMethod="pad"><stop offset="0%" stop-color="#F287B1"/><stop offset="100%" stop-color="#ED3491"/></linearGradient><linearGradient id="o" gradientUnits="userSpaceOnUse" x1="271" y1="450.513" x2="271" y2="464.688" spreadMethod="pad"><stop offset="0%" stop-color="#9CDBF8"/><stop offset="100%" stop-color="#00A6E6"/></linearGradient><linearGradient id="p" gradientUnits="userSpaceOnUse" x1="265.425" y1="451.575" x2="273.575" y2="459.725" spreadMethod="pad"><stop offset="0%" stop-color="#CCDDE5"/><stop offset="100%" stop-color="#73B0C5"/></linearGradient><linearGradient id="q" gradientUnits="userSpaceOnUse" x1="271" y1="447.538" x2="271" y2="467.163" spreadMethod="pad"><stop offset="0%" stop-color="#FFF"/><stop offset="100%" stop-color="#FFF1C0"/></linearGradient><linearGradient id="r" gradientUnits="userSpaceOnUse" x1="271" y1="449.525" x2="271" y2="466.775" spreadMethod="pad"><stop offset="0%" stop-color="#F6ABC5"/><stop offset="100%" stop-color="#ED3491"/></linearGradient><linearGradient id="s" gradientUnits="userSpaceOnUse" x1="271" y1="454.538" x2="271" y2="460.462" spreadMethod="pad"><stop offset="0%" stop-color="#9CDBF8"/><stop offset="100%" stop-color="#00A6E6"/></linearGradient><linearGradient id="t" gradientUnits="userSpaceOnUse" x1="271" y1="448.55" x2="271" y2="467.25" spreadMethod="pad"><stop offset="0%" stop-color="#F6ABC5"/><stop offset="100%" stop-color="#ED3491"/></linearGradient><linearGradient id="u" gradientUnits="userSpaceOnUse" x1="271" y1="468.538" x2="271" y2="446.462" spreadMethod="pad"><stop offset="0%" stop-color="#FBDCE0"/><stop offset="100%" stop-color="#FFF"/></linearGradient><linearGradient id="v" gradientUnits="userSpaceOnUse" x1="271" y1="450.525" x2="271" y2="469.075" spreadMethod="pad"><stop offset="0%" stop-color="#FFE598"/><stop offset="100%" stop-color="#FFCB31"/></linearGradient><linearGradient id="w" gradientUnits="userSpaceOnUse" x1="339.162" y1="451.738" x2="362.137" y2="477.262" spreadMethod="pad"><stop offset="0%" stop-color="#F38EB5"/><stop offset="100%" stop-color="#DC2886"/></linearGradient><linearGradient id="x" gradientUnits="userSpaceOnUse" x1="338.55" y1="408.238" x2="385.65" y2="377.662" spreadMethod="pad"><stop offset="0%" stop-color="#F393B8"/><stop offset="100%" stop-color="#E6288B"/></linearGradient><linearGradient id="y" gradientUnits="userSpaceOnUse" x1="335.313" y1="408.138" x2="315.788" y2="429.063" spreadMethod="pad"><stop offset="0%" stop-color="#F8C4D2"/><stop offset="100%" stop-color="#F287B1"/></linearGradient><linearGradient id="z" gradientUnits="userSpaceOnUse" x1="353.45" y1="382.538" x2="353.45" y2="402.962" spreadMethod="pad"><stop offset="0%" stop-color="#F287B1"/><stop offset="100%" stop-color="#ED3491"/></linearGradient><linearGradient id="A" gradientUnits="userSpaceOnUse" x1="353.45" y1="384.512" x2="353.45" y2="400.887" spreadMethod="pad"><stop offset="0%" stop-color="#9CDBF8"/><stop offset="100%" stop-color="#00A6E6"/></linearGradient><linearGradient id="B" gradientUnits="userSpaceOnUse" x1="359.612" y1="386.688" x2="350.188" y2="396.112" spreadMethod="pad"><stop offset="0%" stop-color="#CCDDE5"/><stop offset="100%" stop-color="#73B0C5"/></linearGradient><linearGradient id="C" gradientUnits="userSpaceOnUse" x1="353.45" y1="381.55" x2="353.45" y2="404.25" spreadMethod="pad"><stop offset="0%" stop-color="#FFF"/><stop offset="100%" stop-color="#FFF1C0"/></linearGradient><linearGradient id="D" gradientUnits="userSpaceOnUse" x1="353.45" y1="383.525" x2="353.45" y2="403.475" spreadMethod="pad"><stop offset="0%" stop-color="#F6ABC5"/><stop offset="100%" stop-color="#ED3491"/></linearGradient><linearGradient id="E" gradientUnits="userSpaceOnUse" x1="353.45" y1="389.525" x2="353.45" y2="396.375" spreadMethod="pad"><stop offset="0%" stop-color="#9CDBF8"/><stop offset="100%" stop-color="#00A6E6"/></linearGradient><linearGradient id="F" gradientUnits="userSpaceOnUse" x1="353.45" y1="382.538" x2="353.45" y2="404.163" spreadMethod="pad"><stop offset="0%" stop-color="#F6ABC5"/><stop offset="100%" stop-color="#ED3491"/></linearGradient><linearGradient id="G" gradientUnits="userSpaceOnUse" x1="353.45" y1="405.512" x2="353.45" y2="379.988" spreadMethod="pad"><stop offset="0%" stop-color="#FBDCE0"/><stop offset="100%" stop-color="#FFF"/></linearGradient><linearGradient id="H" gradientUnits="userSpaceOnUse" x1="353.45" y1="384.525" x2="353.45" y2="405.975" spreadMethod="pad"><stop offset="0%" stop-color="#FFE598"/><stop offset="100%" stop-color="#FFCB31"/></linearGradient><linearGradient id="I" gradientUnits="userSpaceOnUse" x1="344.087" y1="458.425" x2="314.313" y2="426.475" spreadMethod="pad"><stop offset="0%" stop-color="#F8C4D2"/><stop offset="100%" stop-color="#F287B1"/></linearGradient><linearGradient id="J" gradientUnits="userSpaceOnUse" x1="343.45" y1="448.525" x2="343.45" y2="466.175" spreadMethod="pad"><stop offset="0%" stop-color="#F287B1"/><stop offset="100%" stop-color="#ED3491"/></linearGradient><linearGradient id="K" gradientUnits="userSpaceOnUse" x1="343.5" y1="450.513" x2="343.5" y2="464.688" spreadMethod="pad"><stop offset="0%" stop-color="#9CDBF8"/><stop offset="100%" stop-color="#00A6E6"/></linearGradient><linearGradient id="L" gradientUnits="userSpaceOnUse" x1="349.275" y1="451.325" x2="341.125" y2="459.475" spreadMethod="pad"><stop offset="0%" stop-color="#CCDDE5"/><stop offset="100%" stop-color="#73B0C5"/></linearGradient><linearGradient id="M" gradientUnits="userSpaceOnUse" x1="343.5" y1="447.538" x2="343.5" y2="467.163" spreadMethod="pad"><stop offset="0%" stop-color="#FFF"/><stop offset="100%" stop-color="#FFF1C0"/></linearGradient><linearGradient id="N" gradientUnits="userSpaceOnUse" x1="343.45" y1="449.525" x2="343.45" y2="466.775" spreadMethod="pad"><stop offset="0%" stop-color="#F6ABC5"/><stop offset="100%" stop-color="#ED3491"/></linearGradient><linearGradient id="O" gradientUnits="userSpaceOnUse" x1="343.45" y1="454.538" x2="343.45" y2="460.462" spreadMethod="pad"><stop offset="0%" stop-color="#9CDBF8"/><stop offset="100%" stop-color="#00A6E6"/></linearGradient><linearGradient id="P" gradientUnits="userSpaceOnUse" x1="343.5" y1="448.55" x2="343.5" y2="467.25" spreadMethod="pad"><stop offset="0%" stop-color="#F6ABC5"/><stop offset="100%" stop-color="#ED3491"/></linearGradient><linearGradient id="Q" gradientUnits="userSpaceOnUse" x1="343.5" y1="468.538" x2="343.5" y2="446.462" spreadMethod="pad"><stop offset="0%" stop-color="#FBDCE0"/><stop offset="100%" stop-color="#FFF"/></linearGradient><linearGradient id="R" gradientUnits="userSpaceOnUse" x1="343.45" y1="450.525" x2="343.45" y2="469.075" spreadMethod="pad"><stop offset="0%" stop-color="#FFE598"/><stop offset="100%" stop-color="#FFCB31"/></linearGradient><linearGradient id="S" gradientUnits="userSpaceOnUse" x1="307.2" y1="438.525" x2="307.2" y2="461.475" spreadMethod="pad"><stop offset="0%" stop-color="#C7ABA3"/><stop offset="100%" stop-color="#97665E"/></linearGradient><linearGradient id="T" gradientUnits="userSpaceOnUse" x1="306.25" y1="460.538" x2="306.25" y2="434.563" spreadMethod="pad"><stop offset="0%" stop-color="#AB827A"/><stop offset="100%" stop-color="#E6DFDB"/></linearGradient><linearGradient id="U" gradientUnits="userSpaceOnUse" x1="310.75" y1="416.525" x2="310.75" y2="413.475" spreadMethod="pad"><stop offset="0%" stop-color="#58282A"/><stop offset="100%" stop-color="#97665E"/></linearGradient><linearGradient id="V" gradientUnits="userSpaceOnUse" x1="303.65" y1="416.525" x2="303.65" y2="413.475" spreadMethod="pad"><stop offset="0%" stop-color="#58282A"/><stop offset="100%" stop-color="#97665E"/></linearGradient><linearGradient id="W" gradientUnits="userSpaceOnUse" x1="307.2" y1="417.512" x2="307.2" y2="411.887" spreadMethod="pad"><stop offset="0%" stop-color="#C7ABA3"/><stop offset="100%" stop-color="#9B6B63"/></linearGradient><linearGradient id="X" gradientUnits="userSpaceOnUse" x1="307.25" y1="418.537" x2="307.25" y2="435.363" spreadMethod="pad"><stop offset="0%" stop-color="#AE857D"/><stop offset="100%" stop-color="#97665E"/></linearGradient><linearGradient id="Y" gradientUnits="userSpaceOnUse" x1="303.65" y1="434.5" x2="303.65" y2="417.9" spreadMethod="pad"><stop offset="0%" stop-color="#A67971"/><stop offset="100%" stop-color="#E6DDDA"/></linearGradient><path fill="#FFF" fill-opacity="0" d="M0 320h284V0H0v320z" id="Z"/><path fill="url(#a)" d="M307.2 428.3l-4.7-1.15-21.5-.85q-17.1 0-24.7 3-12.1 4.7-15.15 18.9-1.4 6.55 1.05 14.6 2.6 8.5 8.2 14.1 10.2 10.3 21.05 11.2 9.75.8 18.35-5.85 8.05-6.2 12.75-16.85 4.75-10.75 4.3-21.95l.35-15.15z" id="aa"/><path fill="#F393B8" d="M307.2 428.4q-7.6-1.5-17.9-1.05-11.35.55-21.85 3.35-16.1 4.3-19.8 17.85-1.65 6 .05 12.15 1.8 6.3 6.7 11.25 9.95 10 21.9 9.5 12.3-.5 20.65-12.05 3.85-5.45 7.6-13.45 2.15-4.45 1.95-6.9-.25-3.05.25-4.6l.45-16.05z" id="ab"/><path fill="#D12780" d="M225.55 379.5q.15 7.55 1.75 15.2 1.7 8.2 4.75 15.05 5.5 12.1 14.9 15.6 5.65 2.1 19.35 1.9 23-.5 35.85 4.45.7.25-.45-1.25-1.4-1.85-.9-2.2 1.35-1.15 1.35-1.3-.4-1.85-1.15-5.35-5.75-27.25-19.2-43.3-14.55-17.3-36.95-20-10.75-1.25-15.5 4.85-4.1 5.25-3.8 16.35z" id="ac"/><path fill="url(#b)" d="M235.15 368.2q-3.8 4.85-3.5 15.05.45 15.45 6 27.85 4.95 10.75 12.9 14.25 5.95 2.55 16.6 1.8 12.05-.85 15.35-.9 11.2-.15 18.45 1.85 1.4-.65 1.6-1.2.25-.6-.7-4.85-5.25-24.95-18.05-39.85-13.65-15.95-34.35-18.4-9.95-1.15-14.3 4.4z" id="ad"/><path fill="#F393B8" d="M301.85 427.55q.763.6 1.4 1.25-.485-1.172-1.4-1.25m-1.7-1.15v.05q.2 1.4 1.25 1.15.24-.048.45-.05-.782-.59-1.7-1.15m-37.9-52.3q-1.75-.95-5.55 2.75-4.1 4.05-5.9 4-3.25-.15-3.8-.15-.7 0-.2.45 3.2 3 4.65 6.7.45 1.05-.2 2.1-.7 1.2-.15 2.95 2.2 7.4-1.6 10.8-5.15 4.45-3.65 10.25 1.55 5.95 8.8 6.75 13.7 1.5 31.6 2.1 8.893.735 13.9 3.6-1.86-12.313-13.55-28.75-12-16.9-24.35-23.55z" id="ae"/><path fill="url(#c)" d="M283.5 422.55q6.15 2.1 13.1 2.75 2.45.2 3.05-.2.9-.6-.1-2.75-1.85-3.7-2.8-6.65-.7-2.35-4.85-7.55-4.45-5.7-5.3-7.55-.25-.55-.85-.85-.6-.25-.5 0 1.95 7-1.95 12.3-3.6 4.95-9.95 5.55 4.3 3 10.15 4.95z" id="af"/><path fill="#F7B6CA" d="M241.9 378.35q-2.05 5.8-.75 13.05 1.45 7.75 6.15 13.3 4 4.75 10.3 6.7 6.2 1.95 11.85.35 4.65-1.4 7.5-5.05 3.15-4.1 3.15-9.95-.05-9.15-7.55-16.3-6.95-6.6-16.45-8.35-4.85-.9-8.45.4-4.25 1.5-5.75 5.85z" id="ag"/><path fill="#FBDCE0" d="M299.25 424.3q-.75.2-2.7.2-1.05 0-3.45-.3-5-.75-10.7-2.85-5.9-2.15-10.55-5.05-.65-.45-1 .2-.1.25-.05.55.05.3.3.4 4.7 3 10.8 5.2 5.8 2.1 10.95 2.9 2.1.4 3.7.4 1.5 0 3-.25.25-.05.45-.3.2-.3.15-.55-.2-.7-.9-.55z" id="ah"/><path fill="#FBDCE0" d="M299.7 424q-1.1-.3-1.85-.65l-2.6-1.15q-7.7-3.85-17.85-11.15-.5-.4-1 .1-.4.65.2 1.05 11.15 7.95 18 11.2 2.05 1.05 2.65 1.25.95.4 2.1.7.3.1.6-.05.2-.15.25-.45.1-.25-.1-.55-.15-.25-.4-.3z" id="ai"/><path fill="#FBDCE0" d="M300.2 424l-1.35-1.65q-.05-.05-1.8-2.05-7.75-8.6-15.55-14.9-.55-.45-1 .1-.4.45.15 1 8.05 6.55 15.3 14.75.55.5 1.9 2l1.2 1.6q.35.5 1 .15.55-.55.15-1z" id="aj"/><path fill="#FBDCE0" d="M298.65 418.1q-2.05-4.9-5.4-9.8-3.85-5.7-8.45-9.85-.5-.5-1 0-.15.2-.15.5t.2.5q4.5 4.05 8.25 9.6 3.25 4.75 5.3 9.55.1.3 1 3.1.4 1.25.6 2.45v.05q.1.7.8.6.75-.2.65-.8l-.65-2.7q-.55-1.8-1.15-3.2z" id="ak"/><path fill="#FFF" d="M238.9 393.55q-.8.8-.8 1.95t.8 1.9q.8.8 1.9.8 1.15 0 1.95-.8t.8-1.9q0-1.15-.8-1.95t-1.95-.8q-1.15 0-1.9.8z" id="al"/><path fill="#FDF2F3" d="M237.55 388.6q.75.75 1.8.75 1.1 0 1.9-.75.8-.75.8-1.85t-.8-1.85q-.8-.75-1.9-.75-1.05 0-1.8.75t-.75 1.85q0 1.1.75 1.85z" id="am"/><path fill="#FCEAEF" d="M239.25 380.35q.75.75 1.8.75 1 0 1.75-.75.75-.8.75-1.8t-.75-1.75q-.75-.7-1.75-.7-1.05 0-1.8.7-.75.75-.75 1.75t.75 1.8z" id="an"/><path fill="#FBE1E7" d="M244.55 374.4q.7.7 1.65.7 1.05 0 1.75-.7.65-.7.65-1.65 0-1-.65-1.7-.7-.7-1.75-.7-.95 0-1.65.7-.65.7-.65 1.7 0 .95.65 1.65z" id="ao"/><path fill="#FAD7E1" d="M252.15 372.95q.65.65 1.55.65t1.6-.65q.65-.65.65-1.6 0-.9-.65-1.55-.7-.65-1.6-.65-.9 0-1.55.65-.7.65-.7 1.55 0 .95.7 1.6z" id="ap"/><path fill="#F9CDD9" d="M259.35 374.2q.65.6 1.5.6t1.45-.6q.6-.6.6-1.45 0-.9-.6-1.5t-1.45-.6q-.85 0-1.5.6-.6.6-.6 1.5 0 .85.6 1.45z" id="aq"/><path fill="#F8C2D2" d="M265.75 377.1q.6.6 1.4.6.8 0 1.4-.6.55-.6.55-1.4 0-.8-.55-1.4-.55-.55-1.4-.55-.8 0-1.4.55-.6.6-.6 1.4 0 .8.6 1.4z" id="ar"/><path fill="#F7B6CA" d="M271.3 380.95q.5.5 1.25.5t1.35-.5q.55-.55.55-1.3t-.55-1.3q-.6-.6-1.35-.6-.75 0-1.25.6-.55.55-.55 1.3t.55 1.3z" id="as"/><path fill="url(#d)" d="M268.7 385.2q-3.2-3.15-7.65-3.15-4.5 0-7.7 3.15-3.15 3.2-3.15 7.65t3.15 7.65q3.2 3.15 7.7 3.15 4.45 0 7.65-3.15 3.1-3.2 3.1-7.65t-3.1-7.65m-1.95 1.95q2.35 2.35 2.35 5.75 0 3.35-2.35 5.65-2.4 2.4-5.75 2.4t-5.7-2.4q-2.4-2.3-2.4-5.65 0-3.4 2.4-5.75 2.35-2.4 5.7-2.4t5.75 2.4z" id="at"/><path fill="url(#e)" d="M255.15 387q-2.45 2.4-2.45 5.9 0 3.45 2.45 5.9t5.9 2.45q3.45 0 5.9-2.45t2.45-5.9q0-3.5-2.45-5.9-2.45-2.45-5.9-2.45t-5.9 2.45m2.8 2.8q1.25-1.3 3.05-1.3 1.8 0 3.05 1.3 1.3 1.25 1.3 3.05 0 1.8-1.3 3.05-1.25 1.3-3.05 1.3-1.8 0-3.05-1.3-1.3-1.25-1.3-3.05 0-1.8 1.3-3.05z" id="au"/><path fill="url(#f)" d="M261.35 392.9q1.8-1.85 2.85-3.25-1.45 1.2-3.15 2.95-1.95-1.95-3.25-2.95.65.85 2.95 3.25-2.1 2.1-2.95 3.15 1.5-1.15 3.25-2.9 1.5 1.55 3.15 2.9-1.3-1.6-2.85-3.15z" id="av"/><path fill="url(#g)" d="M256.7 382.75q-1.55-1.2-3.25-1.1-1.5.05-2.55 1.1-1.05 1.05-1.1 2.55-.1 1.7 1.1 3.25 1.25 1.75 4.05 2.5 3.05.8 4.1 1.85-1.05 1-4.1 1.8-2.75.75-4.05 2.5-1.2 1.55-1.1 3.2.05 1.5 1.1 2.55 1 1.1 2.55 1.15 1.65.1 3.25-1.05 1.7-1.3 2.5-4.1.8-3.05 1.85-4.1 1.05 1.05 1.8 4.1.7 2.8 2.45 4.1 1.6 1.15 3.25 1.05 1.6-.05 2.55-1.15 1.05-1.05 1.15-2.55.1-1.65-1.05-3.2-1.3-1.75-4.1-2.5-3.05-.75-4.1-1.8 1.05-1.05 4.1-1.85 2.8-.8 4.1-2.5 1.15-1.55 1.05-3.25-.1-1.5-1.15-2.55-1-1.05-2.55-1.1-1.7-.1-3.25 1.1-1.75 1.25-2.45 4.05-.75 3-1.8 4.05-1.05-1.05-1.85-4.05-.75-2.8-2.5-4.05z" id="aw"/><path fill="url(#h)" d="M253.85 400q-.45.85.2 1.6.65.75 1.5.45.5-.1.95-.6.5-.55.6-1.2.15-1.65.3-2.5.193-1.4.95-2.15-.755.707-2.25.9-1.7.15-2.45.25-1.4.35-1.8 1.55-.35.9.4 1.55.75.6 1.6.15m15.9-.15q.75-.65.45-1.55-.5-1.2-1.8-1.55-1.65-.1-2.45-.25-1.45-.2-2.25-.95.75.75 1 2.2.1.85.25 2.5.15.65.6 1.2.45.5.9.6.9.3 1.55-.45.6-.75.15-1.6.85.45 1.6-.15m-1.35-10.95q1.3-.15 1.8-1.5.3-.85-.45-1.5-.8-.65-1.6-.2.45-.85-.15-1.6-.65-.75-1.55-.45-1.2.5-1.5 1.9-.15.75-.25 2.4-.25 1.5-1 2.25.75-.7 2.25-.95.8-.1 2.45-.35m-16.15-3q-.75.65-.4 1.5.4 1.35 1.8 1.5.75.2 2.45.35 1.524.246 2.25.9-.753-.723-.95-2.2-.15-1.65-.3-2.4-.2-1.35-1.55-1.9-.85-.3-1.5.45-.65.8-.2 1.6-.8-.45-1.6.2z" id="ax"/><path fill="url(#i)" d="M261.35 392.9q2.75-2.95 3.15-3.45-1.2.9-3.45 3.05l-3.45-3.05 3.1 3.45q-2.1 2.1-3.1 3.45l3.45-3.2q2.25 2.25 3.45 3.2-.85-1.15-3.15-3.45z" id="ay"/><path fill="url(#j)" d="M253 400.9q-.5-.5-1.05 0-.45.45 0 1 .55.45 1.05 0 .45-.55 0-1m16.05 0q-.2.2-.2.5t.2.5q.45.45 1 0 .55-.55 0-1-.2-.2-.5-.2t-.5.2m1-17.1q-.55-.35-1 0-.2.25-.2.55 0 .3.2.45.45.55 1 0 .25-.15.25-.45 0-.3-.25-.55m-18.1 0q-.2.25-.2.55 0 .3.2.45.55.55 1.05 0 .2-.15.2-.45 0-.3-.2-.55-.5-.35-1.05 0z" id="az"/><path fill="url(#k)" d="M257.25 403.6q-.3-.3-.65 0-1.85 1.65-4.5.8l-.85-.45-.7-.55v-.1q-.9-.85-1.2-2.05-.3-1.15.05-2.3.05-.3.35-.9l.5-.75h.05q.3-.5-.05-.65-.4-.3-.65.05-.4.45-.65.95-.35.6-.45 1-.4 1.4-.05 2.8.4 1.45 1.45 2.5.45.55.9.8.95.5 1.05.5 2.9 1.05 5.4-1 .25-.35 0-.65m16.35-2.15q.35-1.4-.1-2.8-.05-.45-.45-1-.2-.5-.65-.95-.25-.3-.65-.05-.3.3 0 .65.35.35.5.75l.4.9q.7 2.6-1.15 4.35v.1q-.6.5-.75.55l-.85.45q-2.5.85-4.45-.8-.35-.3-.65 0-.25.4.05.65 1.1.95 2.6 1.25 1.45.25 2.8-.25l1-.5q.3-.2.9-.8 1.05-1.05 1.45-2.5m-8.15-19.3q.5-.4.8-.55l.85-.4q1.15-.3 2.35 0 1.2.3 2.05 1.15l.65.75.4.85q.9 2.6-.8 4.45-.25.3 0 .65.35.35.65 0 1-1.15 1.25-2.6.25-1.45-.3-2.8-.05-.3-.5-1-.15-.35-.7-.9-2.2-2.2-5.35-1.4l-1 .45q-.5.25-.95.65-.3.25-.05.65.25.3.65.05m-9.65-.55l.8.55q.4.3.65-.05.25-.3 0-.65h-.1q-.45-.45-.95-.65l-1-.45q-1.4-.4-2.8-.05-1.45.4-2.5 1.45-.25.2-.75.9l-.5 1q-.5 1.4-.25 2.8.25 1.5 1.2 2.6.35.35.65 0 .3-.25.05-.65-.8-.9-1-2.1-.2-1.2.2-2.35l.4-.85.65-.75q.85-.9 2.05-1.15 1.15-.3 2.3 0l.9.4z" id="aA"/><path fill="url(#l)" d="M262.25 400.8l-1.15-3.25h-.05l-1.15 3.25q-.8 2.25-.8 3.4 0 .8.55 1.35.6.6 1.45.6.8 0 1.4-.6.55-.55.55-1.35 0-1.15-.8-3.4m3.45-7.9v.05q.9.3 3.25 1.2 2.15.75 3.3.75.9 0 1.5-.55.55-.55.55-1.4 0-.85-.55-1.45-.6-.55-1.5-.55-1.1 0-3.3.8-3.15 1.1-3.25 1.15m-12.65-1.3q-2.2-.8-3.3-.8-.8 0-1.45.6-.6.6-.6 1.4 0 .8.6 1.4.6.55 1.45.55 1.15 0 3.3-.75 1.2-.4 3.25-1.2v-.05q-.1-.05-3.25-1.15m6.5-11.45q-.6.65-.6 1.45 0 1.1.8 3.3 1.1 3.15 1.15 3.25h.05q.8-2.05 1.2-3.25.75-2.15.75-3.3 0-.85-.55-1.45-.6-.6-1.4-.6-.8 0-1.4.6z" id="aB"/><path fill="url(#m)" d="M292.5 432.35q-4.6-.9-5.9-.95-8.35-.45-13.35.3-6.5.9-10.85 3.95 10.2 1 19.1 11.95 9.45 11.65 6.4 22.6-.05.25 1.1-.65 1.4-1.1 2.85-2.95 4.55-5.7 7.4-15.25.15-.5 1.9-7.1 1.2-4.55 2.25-6.8 1.5-3.4.1-4.3-1.05-.7-4.8-.3-2.4.2-6.2-.5z" id="aC"/><path fill="#FAD5DC" d="M301 433.3q-1.45-.75-3.95-1.45-1.95-.6-4.85-1.1-7.4-1.2-15.05-.35-8.7.95-15.4 4.45-.25.1-.35.4-.1.3.1.55.1.25.35.35.3.1.55-.05 6.55-3.35 14.95-4.25 7.45-.85 14.65.35 2.45.3 4.7 1 1.6.4 3.65 1.35.7.3.95-.35.15-.25.05-.55-.1-.25-.35-.35z" id="aD"/><path fill="#FAD5DC" d="M301 433.5h-.05q-1.55 0-2.95.2l-3.9.5q-6.25 1.2-12.55 3.45-7.6 2.65-13.65 6.3-.6.2-.3.9.3.65 1 .25 5.95-3.6 13.4-6.2 6.3-2.2 12.3-3.25 1.7-.35 3.75-.55 1.65-.15 2.9-.15h.05q.7 0 .7-.75 0-.7-.7-.7z" id="aE"/><path fill="#FAD5DC" d="M300.85 434.05q-1.45 1.45-5.75 4.5-2.15 1.55-9.3 6.4-4.9 3.25-11.8 8-.25.15-.3.45-.1.35.1.55.4.6 1 .15 6.2-4.3 11.8-8 12.4-8.35 15.2-11h.05q.2-.2.2-.55 0-.3-.2-.5t-.5-.2q-.35 0-.5.2z" id="aF"/><path fill="#FAD5DC" d="M300.95 434.7q-.25 1.65-.95 3.1-.8 1.85-1.8 3.7-2.85 4.95-7.75 10.5t-10.35 10q-.6.5-.1 1 .45.55 1 .1 5.55-4.5 10.55-10.2 4.95-5.65 7.85-10.7 1.25-2.3 1.9-3.8.75-1.85 1.05-3.4.15-.75-.55-.85-.3-.05-.55.1-.25.15-.3.45z" id="aG"/><path fill="#FAD5DC" d="M301.4 434.7q-.15.25-.1.5v.1q.15 1.65-.1 4.6-.25 2.85-.85 5.2-1.75 7.15-5.5 14.1-3.9 7.3-8.7 11.9-.4.5 0 1 .55.45 1.05 0 4.95-4.8 8.95-12.2 3.85-7.2 5.55-14.45.65-2.65.95-5.4.25-2.65 0-4.9 0-.3-.2-.5t-.5-.15q-.35 0-.55.2z" id="aH"/><path fill="#FFF" d="M249.9 451.8q.9.9 2.15.9t2.15-.9q.95-.85.95-2.1 0-1.3-.95-2.2-.9-.9-2.15-.9t-2.15.9q-.95.9-.95 2.2 0 1.25.95 2.1z" id="aI"/><path fill="#FDECF0" d="M253.35 458.85q-1.2 0-2 .8t-.8 2q0 1.15.8 1.95.8.85 2 .85 1.15 0 1.95-.85.85-.8.85-1.95 0-1.2-.85-2-.8-.8-1.95-.8z" id="aJ"/><path fill="#FBDDE4" d="M259.6 468.1q-1 0-1.75.75-.75.8-.75 1.8 0 1.1.75 1.85t1.75.75q1.1 0 1.85-.75t.75-1.85q0-1-.75-1.8-.75-.75-1.85-.75z" id="aK"/><path fill="#F9CAD7" d="M268.55 473.25q-.95 0-1.6.65-.7.7-.7 1.65 0 .9.7 1.6.65.7 1.6.7.95 0 1.65-.7.65-.7.65-1.6 0-.95-.65-1.65-.65-.65-1.65-.65z" id="aL"/><path fill="#F7B6CA" d="M276.5 477.8q.6.6 1.45.6t1.45-.6q.6-.55.6-1.4 0-.85-.6-1.5-.6-.6-1.45-.6t-1.45.6q-.55.65-.55 1.5t.55 1.4z" id="aM"/><path fill="url(#n)" d="M280.35 457.15q0-3.9-2.75-6.6-2.75-2.75-6.6-2.75-3.85 0-6.65 2.75-2.7 2.7-2.7 6.6 0 3.9 2.7 6.6 2.8 2.75 6.65 2.75 3.85 0 6.6-2.75 2.75-2.7 2.75-6.6m-4.4-5q2.05 2.1 2.05 5 0 2.95-2.05 5T271 464.2q-2.95 0-5-2.05t-2.05-5q0-2.9 2.05-5 2.05-2.05 5-2.05 2.9 0 4.95 2.05z" id="aN"/><path fill="url(#o)" d="M278.2 457.15q0-2.95-2.1-5.1-2.1-2.15-5.1-2.15-3 0-5.15 2.15-2.1 2.15-2.1 5.1 0 2.95 2.1 5.05 2.15 2.2 5.15 2.2 3 0 5.1-2.2 2.1-2.1 2.1-5.05m-4.55-2.7q1.15 1.15 1.15 2.7 0 1.6-1.15 2.7-1.1 1.1-2.65 1.1-1.55 0-2.7-1.1-1.1-1.1-1.1-2.7 0-1.55 1.1-2.7 1.15-1.1 2.7-1.1 1.55 0 2.65 1.1z" id="aO"/><path fill="url(#p)" d="M268.15 459.9q1.1-.75 2.85-2.5 1.4 1.5 2.8 2.5l-2.55-2.7q2.25-2.45 2.55-2.85-1.55 1.25-2.8 2.55-1.65-1.65-2.85-2.55l2.6 2.85q-.8.75-2.6 2.7z" id="aP"/><path fill="url(#q)" d="M276.25 455.55q2.4-.65 3.5-2.1 1.05-1.4 1-2.8-.1-1.35-1-2.25-.9-.9-2.2-.95-1.45-.1-2.85.95-1.5 1.1-2.15 3.5-.65 2.65-1.55 3.55-.9-.9-1.6-3.55-.65-2.4-2.15-3.5-1.35-1.05-2.8-.95-1.3.05-2.2.95-.9.9-.95 2.25-.05 1.4.9 2.8 1.15 1.45 3.55 2.1 2.6.65 3.5 1.55v.1q-.9.9-3.5 1.55-2.4.6-3.55 2.1-.95 1.4-.9 2.85.05 1.3.95 2.2.9.9 2.2 1 1.45.05 2.8-1 1.5-1.1 2.15-3.5.7-2.65 1.6-3.55.9.9 1.55 3.55.65 2.4 2.15 3.5 1.4 1.05 2.85 1 1.3-.1 2.2-1 .9-.9 1-2.2.05-1.45-1-2.85-1.1-1.5-3.5-2.1-2.65-.7-3.55-1.55v-.1q.9-.85 3.55-1.55z" id="aQ"/><path fill="url(#r)" d="M278.55 463.15q.65-.55.4-1.3-.45-1.05-1.55-1.35-1.4-.1-2.15-.2-1.3-.2-1.95-.8.65.65.85 1.9.1.7.2 2.1.1.6.55 1.05.4.45.85.55.75.25 1.3-.4.5-.65.1-1.35.8.35 1.4-.2m-10.95.35q.15-1.4.25-2.1.197-1.28.8-1.9-.62.603-1.9.8-1.5.1-2.1.2-1.3.3-1.6 1.35-.25.75.4 1.3t1.35.2q-.35.7.2 1.35.55.65 1.3.4.4-.1.8-.55.4-.5.5-1.05m-2.8-12.6q-.75-.3-1.35.25-.65.55-.4 1.3.3 1.05 1.6 1.35.6.1 2.1.2 1.28.197 1.9.75-.603-.57-.8-1.85-.1-1.5-.25-2.15-.1-.55-.5-1-.4-.45-.8-.55-.75-.25-1.3.4t-.2 1.3m12.25-1.3q-.55-.65-1.3-.4-.45.1-.85.55-.45.45-.55 1-.1.65-.2 2.15-.197 1.28-.85 1.85.67-.553 1.95-.75.75-.1 2.15-.2 1.1-.3 1.55-1.35.25-.8-.4-1.3-.6-.55-1.4-.25.4-.65-.1-1.3z" id="aR"/><path fill="url(#s)" d="M268.05 460.15q1.5-1.3 2.95-2.75 1.65 1.65 3 2.75-1.4-1.7-2.75-2.95 1.45-1.45 2.75-3.05-1.35 1.1-3 2.75-1.45-1.45-2.95-2.75.7 1 2.65 3.05-1.8 1.75-2.65 2.95z" id="aS"/><path fill="url(#t)" d="M277.95 464.1q-.2.15-.2.45 0 .25.2.4.4.35.9 0 .15-.15.15-.4 0-.3-.15-.45-.5-.5-.9 0m-13.9 0q-.15-.2-.4-.2-.3 0-.45.2-.2.15-.2.45 0 .25.2.4.15.15.45.15.25 0 .4-.15.2-.15.2-.4 0-.3-.2-.45m-.4-13.65q.25 0 .4-.25.2-.15.2-.4 0-.3-.2-.45-.15-.2-.4-.2-.3 0-.45.2-.2.15-.2.45 0 .25.2.4.15.25.45.25m15.2-1.1q-.5-.4-.9 0-.2.15-.2.45 0 .25.2.4.4.5.9 0 .15-.15.15-.4 0-.3-.15-.45z" id="aT"/><path fill="url(#u)" d="M280.25 461q.3.25.5.65l.3.7q.6 2.3-1 3.9l-.65.5q-.4.3-.7.35-1 .4-2.05.2-1.05-.2-1.85-.9-.1-.1-.3-.1-.15.05-.2.15-.3.3 0 .6.95.8 2.25 1 1.25.2 2.4-.2l.9-.45q.5-.3.8-.65.9-.9 1.2-2.15.35-1.25-.05-2.45l-.4-.85q-.35-.65-.5-.8l-.05-.1q-.25-.15-.5 0-.4.25-.1.6m-14.85 7.05q1.3-.2 2.25-1 .45-.25.1-.6-.3-.3-.6-.05-.8.7-1.85.9-1.05.2-2.05-.2l-.7-.35-.65-.5q-1.55-1.75-.95-3.9.15-.5.3-.7l.45-.65q.25-.35 0-.6-.35-.15-.6 0v.1q-.3.3-.55.8-.3.5-.35.85-.35 1.25-.05 2.45.3 1.25 1.2 2.15.35.4.75.65l.9.45q1.15.4 2.4.2m1.75-20.25v.1q.25.25.6-.1.1-.1.1-.25 0-.2-.2-.3l-.8-.6-.9-.35q-2.7-.65-4.6 1.25-.3.25-.6.75l-.45.9q-.95 2.6.8 4.65.25.25.6 0 .3-.2 0-.55-.7-.8-.85-1.85-.2-1.05.2-1.95.05-.35.35-.75.2-.4.5-.7.75-.75 1.8-1 1.05-.2 2 .05.4.05.8.3l.65.4m12.9.25q.5.5.6.7l.35.75q.7 2.1-.75 3.8-.3.4.1.55.25.25.5 0 .85-1 1.1-2.25.2-1.25-.25-2.4l-.45-.9-.6-.75q-1.85-1.95-4.65-1.25l-.85.35-.85.6q-.1.1-.1.3 0 .2.1.25.05.1.2.15.2.05.3-.05v-.1l.7-.4.75-.3q2.25-.6 3.8.95z" id="aU"/><path fill="url(#v)" d="M272.1 464.05q-.8-2.05-1.05-2.85-.25.8-1.05 2.85-.7 1.9-.7 2.85 0 .7.5 1.25.55.5 1.25.5t1.25-.5q.5-.55.5-1.25 0-.95-.7-2.85m-5.15-7q-1.8-.65-2.85-1-1.9-.65-2.9-.65-.7 0-1.2.5-.45.5-.45 1.2t.45 1.2q.5.45 1.2.45 1 .05 2.9-.6 1.05-.35 2.85-1.05v-.05m2.3-9.65q0 .9.7 2.85.85 2.5.95 2.85h.1q.1-.35 1-2.85.65-1.95.65-2.85 0-.7-.5-1.25-.55-.5-1.25-.5t-1.2.5q-.45.55-.45 1.25m13.25 9.8q0-.7-.5-1.2-.55-.5-1.25-.5-1 0-2.9.65-2 .8-2.75 1.05v.05q.75.25 2.75 1 1.9.65 2.9.65.7 0 1.25-.5.5-.5.5-1.2z" id="aV"/><path fill="url(#w)" d="M311.9 427.15l-4.7 1.15.35 15.15q-.45 11.2 4.3 21.95 4.75 10.65 12.8 16.85 8.6 6.65 18.3 5.85 10.9-.9 21.1-11.2 5.6-5.6 8.2-14.1 2.45-8.05 1.05-14.6-3.05-14.2-15.1-18.9-7.65-3-24.7-3l-21.6.85z" id="aW"/><path fill="#F393B8" d="M307.2 428.4l.45 16.05q.5 1.55.25 4.6-.2 2.45 1.95 6.9 4.05 8.4 7.65 13.45 8.35 11.55 20.65 12.05 12 .5 21.95-9.5 4.9-4.95 6.65-11.25 1.7-6.15.05-12.15Q363.1 435 347 430.7q-10.5-2.8-21.85-3.35-10.3-.45-17.95 1.05z" id="aX"/><path fill="#D12780" d="M387.2 394.7q1.55-7.55 1.7-15.2.35-11.1-3.75-16.35-4.75-6.1-15.55-4.85-22.35 2.7-36.9 20-13.5 16.05-19.25 43.3-.75 3.5-1.15 5.35 0 .15 1.3 1.3.45.35-.95 2.2-1.15 1.5-.4 1.25 12.9-4.95 35.9-4.45 13.7.2 19.35-1.9 9.45-3.5 14.95-15.6 3.1-6.8 4.75-15.05z" id="aY"/><path fill="url(#x)" d="M382.8 383.25q.3-10.2-3.5-15.05-4.35-5.55-14.3-4.4-20.65 2.45-34.35 18.4-12.8 14.9-18.15 39.85-.9 4.25-.65 4.85.25.55 1.7 1.2 7.25-2 18.45-1.85 3.25.05 15.3.9 10.7.75 16.65-1.8 8-3.5 12.85-14.25 5.65-12.45 6-27.85z" id="aZ"/><path fill="#F393B8" d="M312.95 427.6q1.1.25 1.3-1.15-.906.522-1.7 1.1.199.008.4.05m-1.8 1.2q.646-.652 1.4-1.25-.9.043-1.4 1.25m46.65-51.95q-3.8-3.7-5.6-2.75-12.35 6.65-24.35 23.55-11.7 16.45-13.6 28.8 5.043-2.913 14-3.65 1.5-.1 13.55-.7 10-.5 18.05-1.4 7.2-.8 8.75-6.75 1.5-5.8-3.65-10.25-3.8-3.4-1.6-10.8.55-1.75-.15-2.95-.65-1.05-.2-2.1 1.5-3.65 4.7-6.7.45-.45-.2-.45-1.8.1-3.85.15-1.75.05-5.85-4z" id="ba"/><path fill="url(#y)" d="M314.8 425.1q.6.4 3.05.2 14.05-1.3 23.25-7.7-6.35-.6-9.95-5.55-3.9-5.3-1.9-12.3.05-.25-.55 0-.6.3-.85.85-.85 1.85-5.3 7.55-4.15 5.2-4.85 7.55-.65 2.15-2.8 6.65-1 2.15-.1 2.75z" id="bb"/><path fill="#F7B6CA" d="M358.4 372.1q-9.55 1.75-16.45 8.35-7.55 7.15-7.6 16.3 0 5.85 3.15 9.95 2.85 3.65 7.5 5.05 5.65 1.6 11.85-.35 6.3-1.95 10.3-6.7 4.7-5.55 6.15-13.3 1.3-7.25-.75-13.05-1.5-4.35-5.7-5.85-3.65-1.3-8.45-.4z" id="bc"/><path fill="#FBDCE0" d="M314.85 425.7q1.5.25 3.05.25 1.6 0 3.7-.4 5.2-.75 11-2.9 6.1-2.2 10.8-5.2.25-.1.3-.4.1-.35-.05-.55-.4-.6-1.05-.2-4.6 2.9-10.55 5.05-5.65 2.1-10.65 2.85-2.5.3-3.5.3-2 0-2.8-.2-.25-.05-.55.1-.25.2-.3.45-.05.3.15.55.15.25.45.3z" id="bd"/><path fill="#FBDCE0" d="M315.05 425.35q1.45-.4 2.15-.7 1.25-.45 2.65-1.25 6.75-3.15 18-11.2.6-.35.25-1.05-.55-.55-1.05-.1-9.9 7.15-17.85 11.15l-2.5 1.15-2 .65q-.3.05-.45.3-.15.3-.05.55.05.25.3.45.3.15.55.05z" id="be"/><path fill="#FBDCE0" d="M317.4 420.3l-3.15 3.7h-.05q-.35.45.1 1 .65.35 1.05-.15.95-1.2 1.3-1.6l1.85-2q7.15-8.05 15.35-14.75.55-.5.15-1-.55-.55-1.05-.1-7.15 5.8-15.55 14.9z" id="bf"/><path fill="#FBDCE0" d="M321.2 408.3q-3.3 4.85-5.45 9.8-.4 1.15-1.15 3.2-.35 1.1-.65 2.7 0 .65.65.8.25.05.5-.15t.3-.45v-.05q.2-1.2.6-2.45.1-.35 1.05-3.1 2.05-4.8 5.3-9.55 3.75-5.55 8.25-9.6.25-.2.25-.5t-.2-.5q-.45-.55-1 0-4.55 4.1-8.45 9.85z" id="bg"/><path fill="#FFF" d="M371.7 393.55q-.8.8-.8 1.95 0 1.1.8 1.9.8.8 1.95.8t1.95-.8q.8-.8.8-1.9 0-1.15-.8-1.95t-1.95-.8q-1.15 0-1.95.8z" id="bh"/><path fill="#FDF2F3" d="M375.1 389.35q1.1 0 1.85-.75t.75-1.85q0-1.1-.75-1.85t-1.85-.75q-1.1 0-1.85.75-.8.75-.8 1.85t.8 1.85q.75.75 1.85.75z" id="bi"/><path fill="#FCEAEF" d="M373.45 381.1q1 0 1.75-.75.75-.8.75-1.8t-.75-1.75q-.75-.7-1.75-.7-1.05 0-1.75.7-.7.75-.7 1.75 0 1.05.7 1.8t1.75.75z" id="bj"/><path fill="#FBE1E7" d="M368.25 375.1q.95 0 1.65-.7.65-.7.65-1.65 0-1-.65-1.7-.7-.7-1.65-.7t-1.65.7q-.7.7-.7 1.7 0 .95.7 1.65t1.65.7z" id="bk"/><path fill="#FAD7E1" d="M360.75 373.6q.95 0 1.6-.65.65-.65.65-1.6 0-.9-.65-1.55t-1.6-.65q-.9 0-1.55.65t-.65 1.55q0 .95.65 1.6.65.65 1.55.65z" id="bl"/><path fill="#F9CDD9" d="M353.65 374.8q.85 0 1.45-.6t.6-1.45q0-.9-.6-1.5t-1.45-.6q-.85 0-1.5.6-.6.6-.6 1.5 0 .85.6 1.45.65.6 1.5.6z" id="bm"/><path fill="#F8C2D2" d="M347.3 377.7q.8 0 1.4-.6.6-.6.6-1.4 0-.8-.6-1.4-.55-.55-1.4-.55-.8 0-1.4.55-.55.6-.55 1.4 0 .8.55 1.4.6.6 1.4.6z" id="bn"/><path fill="#F7B6CA" d="M340.6 380.95q.55.5 1.3.5t1.3-.5q.55-.55.55-1.3t-.55-1.3q-.55-.6-1.3-.6t-1.3.6q-.55.55-.55 1.3t.55 1.3z" id="bo"/><path fill="url(#z)" d="M353.45 382.05q-4.45 0-7.65 3.15-3.15 3.2-3.15 7.65t3.15 7.65q3.2 3.15 7.65 3.15 4.5 0 7.65-3.15 3.15-3.2 3.15-7.65t-3.15-7.65q-3.15-3.15-7.65-3.15m-8.1 10.85q0-3.4 2.4-5.75 2.35-2.4 5.7-2.4t5.75 2.4q2.35 2.35 2.35 5.75 0 3.35-2.35 5.65-2.4 2.4-5.75 2.4t-5.7-2.4q-2.4-2.3-2.4-5.65z" id="bp"/><path fill="url(#A)" d="M353.45 384.55q-3.45 0-5.95 2.45-2.45 2.4-2.45 5.9 0 3.45 2.45 5.9 2.5 2.45 5.95 2.45 3.5 0 5.95-2.45t2.45-5.9q0-3.5-2.45-5.9-2.45-2.45-5.95-2.45m-4.35 8.3q0-1.8 1.3-3.05 1.25-1.3 3.05-1.3 1.8 0 3.05 1.3 1.3 1.25 1.3 3.05 0 1.8-1.3 3.05-1.25 1.3-3.05 1.3-1.8 0-3.05-1.3-1.3-1.25-1.3-3.05z" id="bq"/><path fill="url(#B)" d="M350.25 389.65q.45.6 2.9 3.25-2.25 2.35-2.9 3.15 1.15-.85 3.25-2.9 1.75 1.85 3.15 2.9-.95-1.15-2.85-3.15 2.15-2.35 2.85-3.25-.9.7-3.25 2.95-1.95-2.05-3.15-2.95z" id="br"/><path fill="url(#C)" d="M343.35 382.75q-1.05 1.05-1.1 2.55-.1 1.7 1.1 3.25 1.25 1.75 4.05 2.5 3.05.8 4.1 1.85-1.05 1-4.1 1.8-2.8.75-4.05 2.5-1.2 1.55-1.1 3.2.05 1.5 1.1 2.55 1 1.1 2.55 1.15 1.65.1 3.25-1.05 1.75-1.3 2.45-4.1.75-3.05 1.8-4.1h.1q1.05 1.05 1.8 4.1.7 2.8 2.45 4.1 1.6 1.15 3.25 1.05 1.55-.05 2.55-1.15 1.05-1.05 1.15-2.55.05-1.65-1.15-3.2-1.25-1.75-4.05-2.5-3.05-.8-4.05-1.8 1.05-1.05 4.05-1.85 2.8-.75 4.05-2.5 1.2-1.55 1.15-3.25-.1-1.5-1.15-2.55-1.05-1.05-2.55-1.1-1.7-.1-3.25 1.1-1.75 1.25-2.45 4.05-.75 3-1.8 4.05h-.1q-1.05-1.05-1.8-4.05-.7-2.8-2.45-4.05-1.55-1.2-3.25-1.1-1.5.05-2.55 1.1z" id="bs"/><path fill="url(#D)" d="M344.7 399.85q.75.6 1.6.15-.45.85.2 1.6.65.75 1.5.45.5-.1.95-.6.5-.55.6-1.2.15-1.65.25-2.5.246-1.427.9-2.2-.673.753-2.15.95-1.7.15-2.5.25-1.3.35-1.8 1.55-.3.9.45 1.55m17.5 0q.75-.65.45-1.55-.5-1.2-1.8-1.55-1.65-.1-2.5-.25-1.477-.197-2.2-.95.704.773.95 2.2.15.85.3 2.5.05.65.55 1.2.45.5.95.6.85.3 1.5-.45t.2-1.6q.85.45 1.6-.15m.45-12.45q.3-.85-.45-1.5-.8-.65-1.6-.2.45-.8-.2-1.6-.65-.75-1.5-.45-1.35.55-1.5 1.9-.15.75-.3 2.4-.25 1.5-.95 2.25.7-.7 2.2-.95.85-.1 2.5-.35 1.3-.15 1.8-1.5m-16.6 1.5q.8.2 2.5.35 1.5.25 2.2.95-.7-.75-.95-2.25-.1-1.65-.25-2.4-.2-1.35-1.55-1.9-.85-.3-1.5.45-.65.8-.2 1.6-.8-.45-1.6.2-.75.65-.45 1.5.5 1.35 1.8 1.5z" id="bt"/><path fill="url(#E)" d="M349.95 389.45l3.2 3.45q-1.85 1.85-3.2 3.45.7-.55 3.55-3.2 2.25 2.25 3.45 3.2-1.2-1.4-3.15-3.45l3.15-3.45q-.75.55-3.55 3.05-2.25-2.15-3.45-3.05z" id="bu"/><path fill="url(#F)" d="M345.45 400.9q-.5-.5-1.05 0-.45.45 0 1 .55.45 1.05 0 .45-.55 0-1m17.05 0q-.2-.2-.5-.2t-.5.2q-.2.2-.2.5t.2.5q.45.45 1 0 .55-.55 0-1m.25-16.55q0-.3-.25-.55-.55-.35-1 0-.2.25-.2.55 0 .3.2.45.45.55 1 0 .25-.15.25-.45m-17.3-.55q-.5-.35-1.05 0-.2.25-.2.55 0 .3.2.45.55.55 1.05 0 .2-.15.2-.45 0-.3-.2-.55z" id="bv"/><path fill="url(#G)" d="M349.05 403.6q-1.9 1.65-4.5.8l-.85-.45-.7-.55v-.1q-.9-.85-1.2-2.05-.3-1.15.05-2.3.05-.3.35-.9l.5-.75q.35-.4 0-.65-.4-.3-.65.05-.4.45-.65.95-.35.6-.45 1-.4 1.4-.05 2.8.4 1.45 1.45 2.5.45.55.9.8l1 .5q1.35.5 2.75.25 1.5-.3 2.6-1.25.3-.2.1-.65-.3-.3-.65 0m15.65-5.55l.4.9q.7 2.6-1.15 4.35v.1q-.6.5-.75.55l-.85.45q-2.6.9-4.45-.8-.35-.3-.65 0-.25.4.05.65 1.1.95 2.6 1.25 1.45.25 2.75-.25l1-.5q.35-.2.95-.8 1.05-1.05 1.4-2.5.35-1.4-.05-2.8-.05-.45-.45-1-.2-.5-.65-.95-.25-.3-.65-.05-.35.25 0 .65.35.35.5.75m-7.45-15.95q.25.3.65.05.3-.3.8-.55l.85-.4q1.15-.3 2.35 0 1.2.3 2.05 1.15.25.25.65.75l.4.85q.9 2.6-.8 4.45-.3.35 0 .65.35.35.65 0 .95-1.1 1.25-2.6.25-1.45-.3-2.8-.05-.3-.5-1-.25-.45-.7-.9-1.05-1.05-2.5-1.45-1.45-.35-2.85.05l-1 .45q-.5.25-.95.65-.3.25-.05.65m-14.9 1q.35-.5.65-.75.85-.9 2.05-1.15 1.15-.3 2.3 0l.9.4.8.55q.4.3.65-.05.2-.45-.1-.65-.45-.45-.95-.65l-1-.45q-1.4-.4-2.8-.05-1.45.4-2.5 1.45-.25.2-.75.9-.35.55-.5 1-.55 1.35-.25 2.8.25 1.5 1.2 2.6.35.35.65 0 .3-.3 0-.65-.8-.85-1-2.1-.2-1.2.2-2.35l.45-.85z" id="bw"/><path fill="url(#H)" d="M354.8 405.55q.55-.55.55-1.35 0-1.15-.8-3.4l-1.15-3.25h-.05l-1.15 3.25q-.8 2.25-.8 3.4 0 .8.55 1.35.6.6 1.45.6.8 0 1.4-.6m6.6-13.95q-3.15 1.1-3.25 1.15v.05q.9.3 3.25 1.2 2.15.75 3.3.75.9 0 1.5-.55.55-.55.55-1.4 0-.8-.55-1.4-.6-.6-1.5-.6-1.1 0-3.3.8m-5.9-10q0-.85-.55-1.45-.6-.6-1.45-.6-.8 0-1.4.6-.55.6-.55 1.45 0 1.1.8 3.3 1.1 3.15 1.15 3.25h.05q.05-.1 1.15-3.25.8-2.2.8-3.3m-13.3 9.35q-.85 0-1.45.55-.6.6-.6 1.45t.6 1.4q.6.55 1.45.55 1.15 0 3.3-.75 1.2-.4 3.25-1.2v-.05q-.1-.05-3.25-1.15-2.2-.8-3.3-.8z" id="bx"/><path fill="url(#I)" d="M321.95 432.35q-3.8.7-6.2.5-3.8-.4-4.85.3-1.4.9.1 4.3 1.05 2.25 2.25 6.8 1.65 6.45 1.85 7.1 2.9 9.55 7.5 15.25 2.3 2.85 3.95 3.6-3-10.95 6.45-22.6 8.9-10.95 19.05-11.95-4.3-3.05-10.8-3.95-5.05-.75-13.4-.3-1.3.05-5.9.95z" id="by"/><path fill="#FAD5DC" d="M314.05 434.55q1.9-.9 3.75-1.35 2.2-.7 4.75-1 7.15-1.2 14.55-.35 8.45.9 14.95 4.25.25.15.55.05.3-.1.4-.35.15-.25.05-.55-.1-.3-.35-.4-6.7-3.5-15.4-4.45-7.65-.85-15.05.35-2.9.5-4.85 1.1-2.55.7-3.95 1.45h-.05q-.25.1-.35.35-.1.3.05.55.3.65.95.35z" id="bz"/><path fill="#FAD5DC" d="M313.4 434.95h.05q1.25 0 2.9.15 2.2.2 3.8.55 6 1.05 12.35 3.25 7.4 2.6 13.35 6.2.7.4 1-.25.2-.25.1-.5-.1-.3-.35-.4-6.05-3.65-13.65-6.3-6.35-2.25-12.6-3.45l-3.85-.5q-1.55-.2-3.05-.2h-.05q-.75 0-.75.7 0 .3.25.55.2.2.5.2z" id="bA"/><path fill="#FAD5DC" d="M319.35 438.55q-4.35-3.05-5.75-4.5-.2-.2-.55-.2-.3 0-.45.2-.2.2-.2.5 0 .35.2.55 2.65 2.55 15.35 11 4.95 3.3 11.7 8 .6.4 1.05-.15.15-.25.1-.55-.1-.3-.35-.45-6.25-4.45-11.8-8-7.5-5.1-9.3-6.4z" id="bB"/><path fill="#FAD5DC" d="M312 435q.45 1.75 1.1 3.4.7 1.7 1.95 3.8 2.9 5 7.95 10.7 5 5.65 10.5 10.2.2.2.5.15.3 0 .5-.25.4-.5-.1-1-5.4-4.4-10.35-10-4.9-5.55-7.8-10.5-1-1.7-1.85-3.7-.75-1.7-.95-3.1-.05-.3-.25-.45-.25-.15-.6-.1-.7.1-.6.85z" id="bC"/><path fill="#FAD5DC" d="M311.75 435.15q-.2 2.25 0 4.9.3 2.55.9 5.4 1.7 7.2 5.65 14.45 4.05 7.4 9 12.2.45.45 1 0 .55-.55 0-1-4.85-4.65-8.75-11.9-3.8-7.05-5.5-14.1-.65-2.7-.9-5.2-.2-3.2-.05-4.6v-.1q.1-.7-.65-.7-.7-.1-.7.65z" id="bD"/><path fill="#FFF" d="M360.3 451.8q.85.9 2.1.9 1.3 0 2.2-.9.9-.85.9-2.1 0-1.3-.9-2.2-.9-.9-2.2-.9-1.25 0-2.1.9-.9.9-.9 2.2 0 1.25.9 2.1z" id="bE"/><path fill="#FDECF0" d="M363.15 459.65q-.85-.8-2.05-.8-1.15 0-1.95.8-.85.8-.85 2 0 1.15.85 1.95.85.85 1.95.85 1.2 0 2.05-.85.8-.8.8-1.95 0-1.2-.8-2z" id="bF"/><path fill="#FBDDE4" d="M356.65 468.85q-.75-.75-1.8-.75-1 0-1.75.75-.75.8-.75 1.8 0 1.1.75 1.85t1.75.75q1.1 0 1.8-.75.75-.75.75-1.85 0-1.05-.75-1.8z" id="bG"/><path fill="#F9CAD7" d="M347.55 473.9q-.7-.65-1.6-.65-.95 0-1.65.65-.65.7-.65 1.65 0 .9.65 1.6.7.7 1.65.7.9 0 1.6-.7.7-.7.7-1.6 0-.95-.7-1.65z" id="bH"/><path fill="#F7B6CA" d="M335.05 477.8q.6.6 1.45.6t1.45-.6q.55-.55.55-1.4 0-.85-.55-1.5-.6-.6-1.45-.6t-1.45.6q-.55.65-.55 1.5t.55 1.4z" id="bI"/><path fill="url(#J)" d="M350.1 463.75q2.7-2.7 2.7-6.6 0-3.9-2.7-6.6-2.75-2.75-6.6-2.75-3.85 0-6.65 2.75-2.75 2.7-2.75 6.6 0 3.9 2.75 6.6 2.8 2.75 6.65 2.75 3.85 0 6.6-2.75m-1.65-11.6q2.05 2.1 2.05 5 0 2.95-2.05 5t-4.95 2.05q-2.95 0-5-2.05-2-2.05-2-5 0-2.9 2-5 2.05-2.05 5-2.05 2.9 0 4.95 2.05z" id="bJ"/><path fill="url(#K)" d="M348.6 462.2q2.1-2.1 2.1-5.05 0-2.95-2.1-5.1-2.1-2.15-5.1-2.15-3 0-5.15 2.15-2.1 2.15-2.1 5.1 0 2.95 2.1 5.05 2.15 2.2 5.15 2.2 3 0 5.1-2.2m-2.45-7.75q1.1 1.15 1.1 2.7 0 1.6-1.1 2.7t-2.65 1.1q-1.6 0-2.7-1.1-1.05-1.1-1.05-2.7 0-1.55 1.05-2.7 1.1-1.1 2.7-1.1 1.55 0 2.65 1.1z" id="bK"/><path fill="url(#L)" d="M343.5 457.4q1.6 1.65 2.8 2.5-1.3-1.5-2.6-2.7 1.6-1.6 2.6-2.85-1.3.95-2.8 2.55-1.05-1.05-2.8-2.55.4.5 2.5 2.85-1.75 1.75-2.5 2.7 1.4-1.1 2.8-2.5z" id="bL"/><path fill="url(#M)" d="M347.25 448.4q-1.55 1.1-2.15 3.5-.7 2.65-1.6 3.55-.95-.95-1.6-3.55-.65-2.4-2.15-3.5-1.35-1.05-2.8-.95-1.35.05-2.25.95-.9.95-.95 2.25-.1 1.4.95 2.8 1.1 1.45 3.5 2.1 2.65.7 3.55 1.55v.1q-.9.85-3.55 1.55-2.4.6-3.5 2.1-1.05 1.4-.95 2.85.05 1.25.95 2.2.9.9 2.25 1 1.45.05 2.8-1 1.5-1.1 2.15-3.5.65-2.6 1.6-3.55.9.9 1.6 3.55.6 2.4 2.15 3.5 1.3 1.05 2.75 1 1.35-.1 2.25-1 .9-.95.95-2.2.1-1.45-.95-2.85-1.1-1.5-3.5-2.1-2.65-.7-3.55-1.55v-.1q.9-.9 3.55-1.55 2.4-.65 3.5-2.1 1.05-1.4.95-2.8-.05-1.3-.95-2.25-.9-.9-2.25-.95-1.45-.1-2.75.95z" id="bM"/><path fill="url(#N)" d="M340.1 463.5q.15-1.4.25-2.1.2-1.3.85-1.9-.7.6-2 .8-1.45.1-2.05.2-1.2.3-1.65 1.35-.2.75.45 1.3t1.35.2q-.4.7.15 1.35.55.65 1.35.4.4-.1.8-.55.4-.5.5-1.05m0-12.75q-.1-.55-.5-1-.4-.45-.8-.55-.8-.25-1.35.4-.55.6-.15 1.3-.7-.3-1.35.25-.65.55-.45 1.3.45 1.05 1.65 1.35.6.1 2.05.2 1.3.2 2 .8-.65-.6-.85-1.9-.1-1.5-.25-2.15m11.3 11.1q-.3-1.05-1.6-1.35-1.35-.1-2.05-.2-1.28-.197-1.95-.8.653.62.85 1.9.1.7.2 2.1.1.55.5 1.05.4.45.8.55.75.25 1.35-.4.55-.65.2-1.35.7.35 1.3-.2.65-.55.4-1.3m-1.7-10.95q.4-.65-.2-1.3-.6-.65-1.35-.4-.4.1-.8.55-.4.45-.5 1-.1.65-.2 2.15-.197 1.28-.85 1.85.67-.553 1.95-.75.7-.1 2.05-.2 1.3-.3 1.6-1.35.25-.75-.4-1.3-.6-.55-1.3-.25z" id="bN"/><path fill="url(#O)" d="M343.5 457.4q1.45 1.45 2.95 2.75-1-1.3-2.7-2.95 1.9-2 2.7-3.05-1.5 1.3-2.95 2.75-1.45-1.45-3.05-2.75.95 1.15 2.75 3.05-1.55 1.5-2.75 2.95 1.6-1.3 3.05-2.75z" id="bO"/><path fill="url(#P)" d="M336.75 464.55q0-.3-.2-.45-.2-.2-.45-.2t-.4.2q-.2.15-.2.45 0 .25.2.4.4.4.85 0 .2-.15.2-.4m-.2-14.35q.2-.15.2-.4 0-.3-.2-.45-.2-.2-.45-.2t-.4.2q-.2.15-.2.45 0 .25.2.4.15.25.4.25t.45-.25m13.7 14.35q0 .25.15.4.5.35.85 0 .25-.15.25-.4 0-.3-.25-.45-.35-.5-.85 0-.15.15-.15.45m1.25-14.75q0-.3-.25-.45-.35-.4-.85 0-.15.15-.15.45 0 .25.15.4.5.5.85 0 .25-.15.25-.4z" id="bP"/><path fill="url(#Q)" d="M333.4 462.35l.3-.7.5-.65q.3-.35-.1-.6-.2-.2-.5 0v.1q-.3.3-.55.8-.3.5-.35.85-.4 1.2-.1 2.45.35 1.25 1.25 2.15.35.45.8.65.35.3.85.45 1.15.4 2.45.2 1.25-.2 2.2-1 .35-.35.1-.6-.3-.3-.6-.05-.8.7-1.85.9-1.05.2-2-.2-.4-.1-.75-.35l-.65-.5q-1.55-1.65-1-3.9m6.25-14.55v.1q.25.25.6-.1.25-.2-.1-.55l-.75-.6-.95-.35q-1.25-.3-2.45 0-1.3.3-2.15 1.25-.15.1-.65.75l-.45.9q-.4 1.15-.2 2.4t1.05 2.25q.3.3.5 0 .4-.15.1-.55-1.5-1.7-.7-3.8.15-.5.35-.75l.55-.7q.75-.75 1.8-1 1.05-.2 2.05.05.4.1.7.3l.7.4m13.1 13.2q.35.3.45.65l.35.7q.55 2.2-1 3.9l-.65.5-.7.35q-2.15.8-3.9-.7-.25-.25-.6.05-.2.3.1.6.95.8 2.25 1 1.25.2 2.45-.2l.85-.45q.3-.15.8-.65 1.85-1.85 1.15-4.6l-.4-.85q-.1-.35-.55-.8v-.1q-.2-.15-.6 0-.15.25 0 .6m-.2-12.95q.3.3.5.7.3.4.35.75.4.9.2 1.95-.15 1.05-.85 1.85-.2.35 0 .55.4.25.6 0 .85-1 1.1-2.25.2-1.25-.25-2.4l-.4-.9-.65-.75q-1.95-1.95-4.65-1.25l-.9.35-.8.6q-.3.35-.1.55.35.35.6.1v-.1l.65-.4q.5-.25.8-.3 2.25-.6 3.8.95z" id="bQ"/><path fill="url(#R)" d="M339.4 457.2q-1.8-.65-2.8-1.05-1.9-.65-2.9-.65-.7 0-1.25.5-.5.5-.5 1.2t.5 1.2q.55.5 1.25.5 1 0 2.9-.65 1-.35 2.8-1v-.05m5.75 9.7q0-.95-.7-2.85-.8-2.05-1.05-2.85-.25.8-1.05 2.85-.65 1.85-.65 2.85 0 .7.5 1.25.5.5 1.2.5t1.25-.5q.5-.55.5-1.25m-.55-16.65q.7-1.9.7-2.85 0-.7-.5-1.25-.55-.5-1.25-.5t-1.2.5q-.5.55-.5 1.25 0 .95.65 2.85l1 2.85h.05q.7-1.85 1.05-2.85m10.35 6.85q0-.7-.5-1.2t-1.2-.5q-1 0-2.9.65-2 .8-2.75 1l-.1.05q.8.25 2.85 1.05 1.9.65 2.9.6.7 0 1.2-.45.5-.5.5-1.2z" id="bR"/><path fill="url(#S)" d="M309.8 435.85h-5.55q-2.55 15.05 0 27.25.65 3.45 2.8 3.45 1.9 0 2.75-3.45 3.2-13.2 0-27.25z" id="bS"/><path fill="url(#T)" d="M307.55 434.35l-1.7-.05q-1.3 7.75-.9 18t2.1 12.85q-1.4-2.55-.95-14.75.4-10.95 1.45-16.05z" id="bT"/><path fill="#AE857D" d="M309.55 413.9q.45-6.15-1.55-10.85v7.35l1.55 3.5z" id="bU"/><path fill="#AE857D" d="M306.4 403.05q-2 4.65-1.6 10.85l1.6-3.5v-7.35z" id="bV"/><path fill="#58282A" d="M309.15 416.8q.7.65 1.65.65 1 0 1.65-.65.65-.65.65-1.65 0-.95-.65-1.65-.65-.65-1.65-.65-.95 0-1.65.65-.65.7-.65 1.65 0 1 .65 1.65z" id="bW"/><path fill="url(#U)" d="M309.4 416.45q.6.55 1.4.55.75 0 1.3-.55.55-.5.55-1.3t-.55-1.35q-.55-.55-1.3-.55-.85 0-1.4.55-.55.55-.55 1.35t.55 1.3z" id="bX"/><path fill="#58282A" d="M302 416.8q.65.65 1.6.65 1 0 1.65-.65.65-.65.65-1.65 0-.95-.65-1.65-.65-.65-1.65-.65-.95 0-1.6.65-.7.7-.7 1.65t.7 1.65z" id="bY"/><path fill="url(#V)" d="M302.3 416.45q.55.55 1.3.55.85 0 1.4-.55.55-.5.55-1.3t-.55-1.35q-.55-.55-1.4-.55-.75 0-1.3.55-.6.55-.6 1.35t.6 1.3z" id="bZ"/><path fill="#AE857D" d="M302.25 414.55q0 .5.5.5.4 0 .4-.5t-.4-.5q-.5 0-.5.5z" id="ca"/><path fill="#AE857D" d="M311.25 414.55q0 .5.5.5.4 0 .4-.5t-.4-.5q-.5 0-.5.5z" id="cb"/><path fill="url(#W)" d="M310.65 412.55q0-1.05-.7-1.75-.75-.7-1.75-.7h-2q-1.05 0-1.75.7t-.7 1.75v5.4q0 1 .7 1.75.7.7 1.75.7h2q1 0 1.75-.7.7-.75.7-1.75v-5.4z" id="cc"/><path fill="#713636" d="M284.95 369.75l-.65.45 20.1 42.5.55-.45-20-42.5z" id="cd"/><path fill="#713636" d="M330.15 370.2l-.55-.45-20.15 42.5.55.45 20.15-42.5z" id="ce"/><path fill="#363435" d="M328.45 373.1q.05-.15 2.25-3.3 2.05-3 2.55-4.55.2-.8.15-1.6-.05-.9-.45-1.15-1.15-.8-2.3 1.85-.85 2.45-2.2 8.75z" id="cf"/><path fill="#363435" d="M281.05 363.65q0 .75.2 1.6.5 1.6 2.55 4.55 1.05 1.55 2.25 3.3-.25-.75-1.05-4.2-.7-3.2-1.2-4.55-.35-.95-.9-1.5-.75-.8-1.4-.35-.4.25-.45 1.15z" id="cg"/><path fill="url(#X)" d="M300.7 436.4q2.7 3.3 6.5 3.3 3.85 0 6.55-3.3 2.75-3.3 2.75-7.95t-2.75-7.9q-2.7-3.25-6.55-3.25-3.85 0-6.5 3.25-2.7 3.25-2.7 7.9t2.7 7.95z" id="ch"/><path fill="url(#Y)" d="M301.65 434.35q.5 1.25 1.4 2.3.95 1.05 1.55.95.6-.15.7-.3.4-.4-.1-1.45-1.1-1.9-1.55-3-1.65-3.9-1.1-8.15.7-5.05 4.5-6.85-5.35 1.5-6.5 7-1 4.6 1.1 9.5z" id="ci"/></defs><use xlink:href="#Z"/><use xlink:href="#aa" transform="matrix(1.73804 0 0 1.73808 -392.014 -575.457)"/><use xlink:href="#ab" transform="matrix(1.73804 0 0 1.73808 -392.014 -575.457)"/><use xlink:href="#ac" transform="matrix(1.73804 0 0 1.73808 -392.014 -575.457)"/><use xlink:href="#ad" transform="matrix(1.73804 0 0 1.73808 -392.014 -575.457)"/><use xlink:href="#ae" transform="matrix(1.73804 0 0 1.73808 -392.014 -575.457)"/><use xlink:href="#af" transform="matrix(1.73804 0 0 1.73808 -392.014 -575.457)"/><use xlink:href="#ag" transform="matrix(1.73804 0 0 1.73808 -392.014 -575.457)"/><use xlink:href="#ah" transform="matrix(1.73804 0 0 1.73808 -392.014 -575.457)"/><use xlink:href="#ai" transform="matrix(1.73804 0 0 1.73808 -392.014 -575.457)"/><use xlink:href="#aj" transform="matrix(1.73804 0 0 1.73808 -392.014 -575.457)"/><use xlink:href="#ak" transform="matrix(1.73804 0 0 1.73808 -392.014 -575.457)"/><use xlink:href="#al" transform="matrix(1.73804 0 0 1.73808 -392.014 -575.457)"/><use xlink:href="#am" transform="matrix(1.73804 0 0 1.73808 -392.014 -575.457)"/><use xlink:href="#an" transform="matrix(1.73804 0 0 1.73808 -392.014 -575.457)"/><use xlink:href="#ao" transform="matrix(1.73804 0 0 1.73808 -392.014 -575.457)"/><use xlink:href="#ap" transform="matrix(1.73804 0 0 1.73808 -392.014 -575.457)"/><use xlink:href="#aq" transform="matrix(1.73804 0 0 1.73808 -392.014 -575.457)"/><use xlink:href="#ar" transform="matrix(1.73804 0 0 1.73808 -392.014 -575.457)"/><use xlink:href="#as" transform="matrix(1.73804 0 0 1.73808 -392.014 -575.457)"/><use xlink:href="#at" transform="matrix(1.73804 0 0 1.73808 -392.014 -575.457)"/><use xlink:href="#au" transform="matrix(1.73804 0 0 1.73808 -392.014 -575.457)"/><use xlink:href="#av" transform="matrix(1.73804 0 0 1.73808 -392.014 -575.457)"/><use xlink:href="#aw" transform="matrix(1.73804 0 0 1.73808 -392.014 -575.457)"/><use xlink:href="#ax" transform="matrix(1.73804 0 0 1.73808 -392.014 -575.457)"/><use xlink:href="#ay" transform="matrix(1.73804 0 0 1.73808 -392.014 -575.457)"/><use xlink:href="#az" transform="matrix(1.73804 0 0 1.73808 -392.014 -575.457)"/><use xlink:href="#aA" transform="matrix(1.73804 0 0 1.73808 -392.014 -575.457)"/><use xlink:href="#aB" transform="matrix(1.73804 0 0 1.73808 -392.014 -575.457)"/><use xlink:href="#aC" transform="matrix(1.73804 0 0 1.73808 -392.014 -575.457)"/><use xlink:href="#aD" transform="matrix(1.73804 0 0 1.73808 -392.014 -575.457)"/><use xlink:href="#aE" transform="matrix(1.73804 0 0 1.73808 -392.014 -575.457)"/><use xlink:href="#aF" transform="matrix(1.73804 0 0 1.73808 -392.014 -575.457)"/><use xlink:href="#aG" transform="matrix(1.73804 0 0 1.73808 -392.014 -575.457)"/><use xlink:href="#aH" transform="matrix(1.73804 0 0 1.73808 -392.014 -575.457)"/><use xlink:href="#aI" transform="matrix(1.73804 0 0 1.73808 -392.014 -575.457)"/><use xlink:href="#aJ" transform="matrix(1.73804 0 0 1.73808 -392.014 -575.457)"/><use xlink:href="#aK" transform="matrix(1.73804 0 0 1.73808 -392.014 -575.457)"/><use xlink:href="#aL" transform="matrix(1.73804 0 0 1.73808 -392.014 -575.457)"/><use xlink:href="#aM" transform="matrix(1.73804 0 0 1.73808 -392.014 -575.457)"/><use xlink:href="#aN" transform="matrix(1.73804 0 0 1.73808 -392.014 -575.457)"/><use xlink:href="#aO" transform="matrix(1.73804 0 0 1.73808 -392.014 -575.457)"/><use xlink:href="#aP" transform="matrix(1.73804 0 0 1.73808 -392.014 -575.457)"/><use xlink:href="#aQ" transform="matrix(1.73804 0 0 1.73808 -392.014 -575.457)"/><use xlink:href="#aR" transform="matrix(1.73804 0 0 1.73808 -392.014 -575.457)"/><use xlink:href="#aS" transform="matrix(1.73804 0 0 1.73808 -392.014 -575.457)"/><use xlink:href="#aT" transform="matrix(1.73804 0 0 1.73808 -392.014 -575.457)"/><use xlink:href="#aU" transform="matrix(1.73804 0 0 1.73808 -392.014 -575.457)"/><use xlink:href="#aV" transform="matrix(1.73804 0 0 1.73808 -392.014 -575.457)"/><use xlink:href="#aW" transform="matrix(1.73804 0 0 1.73808 -392.014 -575.457)"/><use xlink:href="#aX" transform="matrix(1.73804 0 0 1.73808 -392.014 -575.457)"/><use xlink:href="#aY" transform="matrix(1.73804 0 0 1.73808 -392.014 -575.457)"/><use xlink:href="#aZ" transform="matrix(1.73804 0 0 1.73808 -392.014 -575.457)"/><use xlink:href="#ba" transform="matrix(1.73804 0 0 1.73808 -392.014 -575.457)"/><use xlink:href="#bb" transform="matrix(1.73804 0 0 1.73808 -392.014 -575.457)"/><use xlink:href="#bc" transform="matrix(1.73804 0 0 1.73808 -392.014 -575.457)"/><use xlink:href="#bd" transform="matrix(1.73804 0 0 1.73808 -392.014 -575.457)"/><use xlink:href="#be" transform="matrix(1.73804 0 0 1.73808 -392.014 -575.457)"/><use xlink:href="#bf" transform="matrix(1.73804 0 0 1.73808 -392.014 -575.457)"/><use xlink:href="#bg" transform="matrix(1.73804 0 0 1.73808 -392.014 -575.457)"/><use xlink:href="#bh" transform="matrix(1.73804 0 0 1.73808 -392.014 -575.457)"/><use xlink:href="#bi" transform="matrix(1.73804 0 0 1.73808 -392.014 -575.457)"/><use xlink:href="#bj" transform="matrix(1.73804 0 0 1.73808 -392.014 -575.457)"/><use xlink:href="#bk" transform="matrix(1.73804 0 0 1.73808 -392.014 -575.457)"/><use xlink:href="#bl" transform="matrix(1.73804 0 0 1.73808 -392.014 -575.457)"/><use xlink:href="#bm" transform="matrix(1.73804 0 0 1.73808 -392.014 -575.457)"/><use xlink:href="#bn" transform="matrix(1.73804 0 0 1.73808 -392.014 -575.457)"/><use xlink:href="#bo" transform="matrix(1.73804 0 0 1.73808 -392.014 -575.457)"/><use xlink:href="#bp" transform="matrix(1.73804 0 0 1.73808 -392.014 -575.457)"/><use xlink:href="#bq" transform="matrix(1.73804 0 0 1.73808 -392.014 -575.457)"/><use xlink:href="#br" transform="matrix(1.73804 0 0 1.73808 -392.014 -575.457)"/><use xlink:href="#bs" transform="matrix(1.73804 0 0 1.73808 -392.014 -575.457)"/><use xlink:href="#bt" transform="matrix(1.73804 0 0 1.73808 -392.014 -575.457)"/><use xlink:href="#bu" transform="matrix(1.73804 0 0 1.73808 -392.014 -575.457)"/><use xlink:href="#bv" transform="matrix(1.73804 0 0 1.73808 -392.014 -575.457)"/><use xlink:href="#bw" transform="matrix(1.73804 0 0 1.73808 -392.014 -575.457)"/><use xlink:href="#bx" transform="matrix(1.73804 0 0 1.73808 -392.014 -575.457)"/><use xlink:href="#by" transform="matrix(1.73804 0 0 1.73808 -392.014 -575.457)"/><use xlink:href="#bz" transform="matrix(1.73804 0 0 1.73808 -392.014 -575.457)"/><use xlink:href="#bA" transform="matrix(1.73804 0 0 1.73808 -392.014 -575.457)"/><use xlink:href="#bB" transform="matrix(1.73804 0 0 1.73808 -392.014 -575.457)"/><use xlink:href="#bC" transform="matrix(1.73804 0 0 1.73808 -392.014 -575.457)"/><use xlink:href="#bD" transform="matrix(1.73804 0 0 1.73808 -392.014 -575.457)"/><use xlink:href="#bE" transform="matrix(1.73804 0 0 1.73808 -392.014 -575.457)"/><use xlink:href="#bF" transform="matrix(1.73804 0 0 1.73808 -392.014 -575.457)"/><use xlink:href="#bG" transform="matrix(1.73804 0 0 1.73808 -392.014 -575.457)"/><use xlink:href="#bH" transform="matrix(1.73804 0 0 1.73808 -392.014 -575.457)"/><use xlink:href="#bI" transform="matrix(1.73804 0 0 1.73808 -392.014 -575.457)"/><use xlink:href="#bJ" transform="matrix(1.73804 0 0 1.73808 -392.014 -575.457)"/><use xlink:href="#bK" transform="matrix(1.73804 0 0 1.73808 -392.014 -575.457)"/><use xlink:href="#bL" transform="matrix(1.73804 0 0 1.73808 -392.014 -575.457)"/><use xlink:href="#bM" transform="matrix(1.73804 0 0 1.73808 -392.014 -575.457)"/><use xlink:href="#bN" transform="matrix(1.73804 0 0 1.73808 -392.014 -575.457)"/><use xlink:href="#bO" transform="matrix(1.73804 0 0 1.73808 -392.014 -575.457)"/><use xlink:href="#bP" transform="matrix(1.73804 0 0 1.73808 -392.014 -575.457)"/><use xlink:href="#bQ" transform="matrix(1.73804 0 0 1.73808 -392.014 -575.457)"/><use xlink:href="#bR" transform="matrix(1.73804 0 0 1.73808 -392.014 -575.457)"/><use xlink:href="#bS" transform="matrix(1.73804 0 0 1.73808 -392.014 -575.457)"/><use xlink:href="#bT" transform="matrix(1.73804 0 0 1.73808 -392.014 -575.457)"/><use xlink:href="#bU" transform="matrix(1.73804 0 0 1.73808 -392.014 -575.457)"/><use xlink:href="#bV" transform="matrix(1.73804 0 0 1.73808 -392.014 -575.457)"/><use xlink:href="#bW" transform="matrix(1.73804 0 0 1.73808 -392.014 -575.457)"/><use xlink:href="#bX" transform="matrix(1.73804 0 0 1.73808 -392.014 -575.457)"/><use xlink:href="#bY" transform="matrix(1.73804 0 0 1.73808 -392.014 -575.457)"/><use xlink:href="#bZ" transform="matrix(1.73804 0 0 1.73808 -392.014 -575.457)"/><use xlink:href="#ca" transform="matrix(1.73804 0 0 1.73808 -392.014 -575.457)"/><use xlink:href="#cb" transform="matrix(1.73804 0 0 1.73808 -392.014 -575.457)"/><use xlink:href="#cc" transform="matrix(1.73804 0 0 1.73808 -392.014 -575.457)"/><use xlink:href="#cd" transform="matrix(1.73804 0 0 1.73808 -392.014 -575.457)"/><use xlink:href="#ce" transform="matrix(1.73804 0 0 1.73808 -392.014 -575.457)"/><use xlink:href="#cf" transform="matrix(1.73804 0 0 1.73808 -392.014 -575.457)"/><use xlink:href="#cg" transform="matrix(1.73804 0 0 1.73808 -392.014 -575.457)"/><use xlink:href="#ch" transform="matrix(1.73804 0 0 1.73808 -392.014 -575.457)"/><use xlink:href="#ci" transform="matrix(1.73804 0 0 1.73808 -392.014 -575.457)"/></svg>