<svg xmlns="http://www.w3.org/2000/svg" xmlns:xlink="http://www.w3.org/1999/xlink" preserveAspectRatio="none" width="284" height="320"><defs><linearGradient id="a" gradientUnits="userSpaceOnUse" x1="561.462" y1="813.5" x2="620.637" y2="813.5" spreadMethod="pad"><stop offset="0%" stop-color="#8BB51C"/><stop offset="100%" stop-color="#578016"/></linearGradient><linearGradient id="b" gradientUnits="userSpaceOnUse" x1="547.487" y1="861.9" x2="637.513" y2="861.9" spreadMethod="pad"><stop offset="0%" stop-color="#FEEA7C"/><stop offset="100%" stop-color="#FECB16"/></linearGradient><linearGradient id="c" gradientUnits="userSpaceOnUse" x1="559.513" y1="764.2" x2="632.888" y2="764.2" spreadMethod="pad"><stop offset="0%" stop-color="#FEEA7C"/><stop offset="100%" stop-color="#FECB16"/></linearGradient><linearGradient id="d" gradientUnits="userSpaceOnUse" x1="633.463" y1="882.95" x2="544.438" y2="882.95" spreadMethod="pad"><stop offset="0%" stop-color="#0D2675"/><stop offset="100%" stop-color="#AAB3D5"/></linearGradient><linearGradient id="e" gradientUnits="userSpaceOnUse" x1="629.462" y1="742.6" x2="558.337" y2="742.6" spreadMethod="pad"><stop offset="0%" stop-color="#0D2675"/><stop offset="100%" stop-color="#AAB3D5"/></linearGradient><linearGradient id="f" gradientUnits="userSpaceOnUse" x1="560.488" y1="758.2" x2="635.212" y2="758.2" spreadMethod="pad"><stop offset="0%" stop-color="#FECB16"/><stop offset="100%" stop-color="#FD6F17"/></linearGradient><linearGradient id="g" gradientUnits="userSpaceOnUse" x1="545.475" y1="867.75" x2="639.625" y2="867.75" spreadMethod="pad"><stop offset="0%" stop-color="#FECB16"/><stop offset="100%" stop-color="#FD6F17"/></linearGradient><linearGradient id="h" gradientUnits="userSpaceOnUse" x1="641.475" y1="851.8" x2="539.225" y2="851.8" spreadMethod="pad"><stop offset="0%" stop-color="#B41001"/><stop offset="100%" stop-color="#FD330C"/></linearGradient><linearGradient id="i" gradientUnits="userSpaceOnUse" x1="637.475" y1="771.75" x2="551.125" y2="771.75" spreadMethod="pad"><stop offset="0%" stop-color="#B41001"/><stop offset="100%" stop-color="#FD330C"/></linearGradient><linearGradient id="j" gradientUnits="userSpaceOnUse" x1="575.475" y1="826.9" x2="631.425" y2="826.9" spreadMethod="pad"><stop offset="0%" stop-color="#FFF"/><stop offset="100%" stop-color="#FEF6B0"/></linearGradient><path fill="#FFF" fill-opacity="0" d="M0 320h284V0H0v320z" id="k"/><path fill="#7CA71A" d="M606.45 776q-1.65 0-3.8 2.15-2.4 2.35-3.8 2.7-20.85 5.15-34 19.05-12.75 13.4-13.5 29.65-.75 17.1 12.35 30.7 14.65 15.2 43.45 22.2 3.4.85-7.95 3.05-9.9 1.9-6.95 1.9 26.8 0 37.55-3.85 13.4-4.8 19.85-20 1.35-3.15 10.75-11.05 8.6-7.2 9.1-11.9 1.8-16.8-1.6-35.4-3.3-18-10.85-34.3-1.4-3-10.15-6.25-9.05-3.35-10.6-5.7-4.1-6.3-7.3-5.1-2.2.8-5.55 6.7-4.4 7.65-6.6 10.2-4.65 5.25-10.4 5.25z" id="l"/><path fill="#FEFECC" d="M580.8 872.8l12.75 2.3 26.05-1.65 42.85-6.65.95-1.95q3.15-7.15 5-16.75l-49.75 11.6-38.65-1.6-22.4-5.6q7.5 11.95 23.2 20.3z" id="m"/><path fill="#FEFECC" d="M655.95 768.6q-3.6-7.5-7.85-13.8l-.2-.3-19.1 4.55q-6.65 7.65-8.6 9.65-5.2 5.1-9.65 6.6l6.55.5 38.85-7.2z" id="n"/><path fill="#FD5111" d="M624.7 775.55q-9.018 0-15.2-.05 1.25-.95-1.75-.25-3.3.75-1.3.75.05 0 7.55 1.4 4.95.9 7.1-.95 1.762-.167 3.6-.9m32.5-4.3q-2.95-6.05-3.85-7.6-8.6 2.75-18 4.5-2.05 1.55-6.5 5.1-2.122 1.493-4.15 2.3h.2q7.15.1 13.2.6 9.25-1.85 19.1-4.9z" id="o"/><path fill="#FD5111" d="M555.15 848.1q2.6 5.4 7.2 10.7 26.35 6.6 53.45 4.35 27.35-2.25 52.25-13.25 1-5 1.5-10.1l-1.9 1q-25.75 12.3-55.5 14.2-29.5 1.9-57-6.9z" id="p"/><path fill="#5874B3" d="M567.5 884.55q2.1 2 6.8 6.3 4.55 4.25 8.3 8.65 9.2 2.1 19.65 2.1 22.55 0 38.2-9.55 14.2-8.7 21.85-24.75.2-.4-3.1-.9-3.25-.5-3.1-.9l-30.4 9.4-51-1.6-18.45-5.6q4.2 10.05 11.25 16.85z" id="q"/><path fill="#5874B3" d="M602.25 723.8q-6.4 0-12.9 2.25-4.2 1.5-4.1 4.55.05 1.85 2.45 6.75 2.55 5.35 3.05 8.55.8 5.25-2.2 9.8 6.3 1.7 6.75 3.75.2 1 9.2 1 24.25 0 44.2-4.8-9.55-14.75-21.1-23-12.4-8.85-25.35-8.85z" id="r"/><path fill="#FECB16" d="M558.85 751.25q-2.85 3.8-4.6 6.9 21.45 7 48 7 26.45 0 48-7-2.5-4.05-4.6-6.9-19.8 5.9-43.4 5.9-23.6 0-43.4-5.9z" id="s"/><path fill="#FECB16" d="M602.25 871.15q-16.9 0-32.35-3.2-14.85-3.05-26.35-8.65-3.2-1.55-5.5-3 1.9 6.45 4.2 11.25 12.05 5.5 27.25 8.5 15.7 3.05 32.75 3.05 17 0 32.7-3.05 15.2-3 27.2-8.5 2.45-4.95 3.95-10.15-4.85 2.9-12.05 5.35-4.9 1.65-12.8 3.65-18.3 4.75-39 4.75z" id="t"/><path fill="url(#a)" d="M599.85 750.5q-1.343.663-4.3 1.55-5.1 1.55-13.3 1.95-11.55.55-13.1.7-14.85 1.8-21.05 14.9-7.85 16.5-11.35 34.85-3.6 18.95-1.75 36.1.65 6.05 12.35 13.55 7.85 5 8.95 5.75 4.6 3.35 6.2 6.25 1.9 3.5 3.5 7.3.9 2.05 1.55 2.4.45.2 3.7.5 4.5.4 10.05 1.55l6.85-3.25q7.3.5 17.8 2 7.55 1.1 10.1.8 3.6-.45 5.85-3.6 2.05-2.9 5-11.15.8-2.15 8.15-5.8 7.1-3.55 7.65-6.55 2.9-16.85 1.75-36.7-1.2-19.9-6.2-37.8-1.15-4.1-8.1-9.25-7.45-5.5-8.8-8.3-1.05-2.3-9.55-.85-8.7 1.45-9.9-.25-2.35-3.35-2.2-5.65.034-.556.15-1m0 0q1.677-.764 1.05-1.2-.73.365-1.05 1.2z" id="u"/><path fill="#C2E32E" d="M567.05 771q5.25-20.15 13.8-32.65-18.65 22.7-27.7 48.25-8.7 24.55-6.8 46.75 1.95 22.5 14.4 37.45 13.15 15.8 35.75 20.15Q579 879 570.1 857.4q-7.85-19-8.2-43.35-.35-21.8 5.15-43.05z" id="v"/><path fill="url(#b)" d="M635.15 855.1l-16.5 4.6-38.65-1.6-35.65-9.45q.1.5-3.95.6-4.05.1-3.95.5.7 3.65 2 7.75.45 1.45 4.6 4.75 4.35 3.4 4.85 4.55l45.65 8.3 26.05-1.65 12.8-2.7q.2-.4 2.85-1.4 2.55-1 2.8-1.6l.65-1.85q1.15-3.1 2.15-7.1.2-.7-2.85-1.8-3.05-1.1-2.85-1.9z" id="w"/><path fill="#FEFECC" d="M578.05 872.3q-5.2-7.7-8.8-16.85l-19.5-4.9q3.25 10.2 9.35 18.2l18.95 3.55z" id="x"/><path fill="url(#c)" d="M557.85 752.6q-4.95 7.3-8.5 14.4l23.3 5.55 44.45 3.25 20.05-3.75q-1.8-6.25-5-13.8l-15.85 3.8-32.35-1.6-26.1-7.85z" id="y"/><path fill="#FEFECC" d="M571.6 756.75l-3.35-1.05q-4.65 7.55-7.85 13.9l6.65 1.6q2.05-8 4.55-14.45z" id="z"/><path fill="url(#d)" d="M634 876.15q.4-.6-2.9-1.95-3.4-1.4-3.05-2.15l-2.35 2.85-51-1.6-27.9-7.5q.2.5-2.35.75-2.45.3-2.25.75 6 12.55 16.05 20.6 10.85 8.75 25.95 11.9l.25.05q18.05 1.25 30.9-5.4 11.65-6 18.65-18.3z" id="A"/><path fill="#C5CBE2" d="M596.5 890.95q-10.2-6.9-17.7-17.5l-4.1-.15-15.05-3.9q13.25 17.05 36.85 21.55z" id="B"/><path fill="url(#e)" d="M558.75 751.3q-.4.55.85 1.9 1.2 1.35.8 1.95 9.85 2.65 22.05 4 11.2 1.3 22.05 1.3 9.15 0 13-.35.2 0 9.25-1.2-.25-.65 1.95-2t1.9-1.95q-3.2-6.85-6.8-12.05-6.35-9.05-14.25-13.95-9.75-6.1-18.6-3.4-8.85 2.75-17.2 9.55-8 6.45-15 16.2z" id="C"/><path fill="#C5CBE2" d="M567.4 757.15l3.8.65q4.5-11.95 9.65-19.45-7.65 9.45-13.45 18.8z" id="D"/><path fill="url(#f)" d="M558.85 751.25q-1.35 1.85-4.6 6.9 5.3 1.7 10.85 2.95.4.15 2.3-1.6t2.25-1.7q.35.1-.05 2.15-.4 2.05-.05 2.1 15.65 3.1 32.7 3.1 16.6 0 31.55-2.9-1.6-4.05-3.25-7.45-13.35 2.35-28.3 2.35-23.6 0-43.4-5.9z" id="E"/><path fill="url(#g)" d="M602.25 871.15q-13.65 0-26.65-2.1-1.65-.3-4 2.05-2.35 2.3-3.85 1.9-1.8-.45-5.85-4.25-4.15-3.95-5.65-4.4-6.35-1.95-12.7-5.05-2.55-1.2-5.45-2.95 1.7 6.05 4.25 11.2 12 5.5 27.2 8.5 15.7 3.05 32.7 3.05 16.6 0 31.75-2.85 2.45-4.3 4.25-9.1-17 4-36 4z" id="F"/><path fill="#FEEA7C" d="M582.3 878.05q-3.85-4.85-6.35-9-10.6-1.7-19.85-4.75 3.9 6.2 8.55 10.65 7.75 1.9 17.65 3.1z" id="G"/><path fill="#FEEA7C" d="M572.45 754.5l-3.05-.6q-3.25 5.15-4.35 7.2 1.5.4 4.65 1 .95-2.95 2.75-7.6z" id="H"/><path fill="#FFF" d="M554.65 782.5l-1.2 3.15 9.9 3.85.6-3.45-9.3-3.55z" id="I"/><path fill="#FFF" d="M548.2 804.6l13.65 5.25q.15-8.8.95-15.35l-10.95-4.2q-2.4 7.65-3.65 14.3z" id="J"/><path fill="url(#h)" d="M605.4 855.25q-19.1.4-37.65-3.7-1.5-.35-4.9 1-3.35 1.3-4.9.85-1.7-.5-4.7-3.7-3.1-3.3-4.7-3.9-5.1-1.8-11.8-5l-1.8-.85q.55 5.5 1.55 10 7.7 3.45 15.4 5.85 1.85.6 4.8-.45 3.1-1.05 4.85-.65 1.4.35 4.95 3.1 3.45 2.7 4.95 2.95 17.2 3.3 34.75 2.9 17.6-.45 34.55-4.55 1.1-4 2.05-9.15-18.2 4.9-37.4 5.3z" id="K"/><path fill="url(#i)" d="M565.45 770.1q-.463.548-.85.95.316.64.35 2.35 0 2.5.65 2.6 17.9 3.75 36.35 3.75 18.4.05 36.35-3.6-1.1-4.15-2.35-8.05-16.8 3.35-34.1 3.3-17.35-.05-34.1-3.45-.45-.05-2.3 2.15m-1.2.6q-.362-.099-1.5.75.134.797.4.85.303.038 1.45-1.25-.136-.3-.35-.35m-2.2-3.95q-5.75-1.4-11-3.05-2.3 4.35-3.75 7.55 6.75 2.1 11.1 3.2.6.15 2.95-1.85.803-.7 1.4-1.15-.127-.688-.15-1.95 0-2.65-.55-2.75z" id="L"/><path fill="#FE9016" d="M561.95 766.65q-2.5 4.6-3.85 7.7 4.45 1.1 7.7 1.75 1.3-5.5 2.1-8.05l-5.95-1.4z" id="M"/><path fill="#FE9016" d="M571.6 860.85q-1.9-4.1-3.7-9.3-10.25-2.35-19.5-5.75 1.25 5.1 3.3 9.95 9.25 3.05 19.9 5.1z" id="N"/><path fill="#FDE564" d="M608.05 829.1q2.25-5.4 2.25-12.05T608.05 805q-2.2-5.25-5.8-7.6-3.6 2.35-5.8 7.6-2.25 5.4-2.25 12.05t2.25 12.05q2.25 5.3 5.8 7.6 3.55-2.3 5.8-7.6z" id="O"/><path fill="url(#j)" d="M620.45 829.6q-.55-8.75 1.9-14.75 3.05-7.4 10.15-8.6-13.75-1.35-21.3 4-7 4.9-8.95 15.8-1.95-10.9-8.95-15.8-7.55-5.35-21.3-4 7.05 1.2 10.1 8.6 2.45 5.95 1.95 14.75-.55 8.55 5.25 13.65 5.15 4.55 12.95 4.55 7.75 0 12.95-4.55 5.8-5.1 5.25-13.65z" id="P"/><path fill="#B1B9D9" d="M585.4 803.75q1.2 1.2 2.9 1.2 1.65 0 2.9-1.2 1.2-1.2 1.2-2.9 0-1.65-1.2-2.85-1.25-1.25-2.9-1.25-1.7 0-2.9 1.25-1.2 1.2-1.2 2.85 0 1.7 1.2 2.9z" id="Q"/><path fill="#B1B9D9" d="M613.3 803.75q1.2 1.2 2.9 1.2t2.9-1.2q1.2-1.2 1.2-2.9 0-1.65-1.2-2.85-1.2-1.25-2.9-1.25t-2.9 1.25q-1.2 1.2-1.2 2.85 0 1.75 1.2 2.9z" id="R"/><path fill="#B1B9D9" d="M599.35 787.9q-1.2 1.2-1.2 2.9 0 1.65 1.2 2.85 1.2 1.15 2.9 1.15t2.9-1.15q1.2-1.2 1.2-2.85 0-1.7-1.2-2.9t-2.9-1.2q-1.7 0-2.9 1.2z" id="S"/></defs><use xlink:href="#k"/><use xlink:href="#l" transform="matrix(1.56392 0 0 1.56389 -799.78 -1096.993)"/><use xlink:href="#m" transform="matrix(1.56392 0 0 1.56389 -799.78 -1096.993)"/><use xlink:href="#n" transform="matrix(1.56392 0 0 1.56389 -799.78 -1096.993)"/><use xlink:href="#o" transform="matrix(1.56392 0 0 1.56389 -799.78 -1096.993)"/><use xlink:href="#p" transform="matrix(1.56392 0 0 1.56389 -799.78 -1096.993)"/><use xlink:href="#q" transform="matrix(1.56392 0 0 1.56389 -799.78 -1096.993)"/><use xlink:href="#r" transform="matrix(1.56392 0 0 1.56389 -799.78 -1096.993)"/><use xlink:href="#s" transform="matrix(1.56392 0 0 1.56389 -799.78 -1096.993)"/><use xlink:href="#t" transform="matrix(1.56392 0 0 1.56389 -799.78 -1096.993)"/><use xlink:href="#u" transform="matrix(1.56392 0 0 1.56389 -799.78 -1096.993)"/><use xlink:href="#v" transform="matrix(1.56392 0 0 1.56389 -799.78 -1096.993)"/><use xlink:href="#w" transform="matrix(1.56392 0 0 1.56389 -799.78 -1096.993)"/><use xlink:href="#x" transform="matrix(1.56392 0 0 1.56389 -799.78 -1096.993)"/><use xlink:href="#y" transform="matrix(1.56392 0 0 1.56389 -799.78 -1096.993)"/><use xlink:href="#z" transform="matrix(1.56392 0 0 1.56389 -799.78 -1096.993)"/><use xlink:href="#A" transform="matrix(1.56392 0 0 1.56389 -799.78 -1096.993)"/><use xlink:href="#B" transform="matrix(1.56392 0 0 1.56389 -799.78 -1096.993)"/><use xlink:href="#C" transform="matrix(1.56392 0 0 1.56389 -799.78 -1096.993)"/><use xlink:href="#D" transform="matrix(1.56392 0 0 1.56389 -799.78 -1096.993)"/><use xlink:href="#E" transform="matrix(1.56392 0 0 1.56389 -799.78 -1096.993)"/><use xlink:href="#F" transform="matrix(1.56392 0 0 1.56389 -799.78 -1096.993)"/><use xlink:href="#G" transform="matrix(1.56392 0 0 1.56389 -799.78 -1096.993)"/><use xlink:href="#H" transform="matrix(1.56392 0 0 1.56389 -799.78 -1096.993)"/><use xlink:href="#I" transform="matrix(1.56392 0 0 1.56389 -799.78 -1096.993)"/><use xlink:href="#J" transform="matrix(1.56392 0 0 1.56389 -799.78 -1096.993)"/><use xlink:href="#K" transform="matrix(1.56392 0 0 1.56389 -799.78 -1096.993)"/><use xlink:href="#L" transform="matrix(1.56392 0 0 1.56389 -799.78 -1096.993)"/><use xlink:href="#M" transform="matrix(1.56392 0 0 1.56389 -799.78 -1096.993)"/><use xlink:href="#N" transform="matrix(1.56392 0 0 1.56389 -799.78 -1096.993)"/><use xlink:href="#O" transform="matrix(1.56392 0 0 1.56389 -799.78 -1096.993)"/><use xlink:href="#P" transform="matrix(1.56392 0 0 1.56389 -799.78 -1096.993)"/><use xlink:href="#Q" transform="matrix(1.56392 0 0 1.56389 -799.78 -1096.993)"/><use xlink:href="#R" transform="matrix(1.56392 0 0 1.56389 -799.78 -1096.993)"/><use xlink:href="#S" transform="matrix(1.56392 0 0 1.56389 -799.78 -1096.993)"/></svg>