<svg xmlns="http://www.w3.org/2000/svg" xmlns:xlink="http://www.w3.org/1999/xlink" preserveAspectRatio="none" width="284" height="320"><defs><linearGradient id="a" gradientUnits="userSpaceOnUse" x1="434.15" y1="894.55" x2="434.15" y2="736.75" spreadMethod="pad"><stop offset="0%" stop-color="#FECB16"/><stop offset="100%" stop-color="#FE9016"/></linearGradient><linearGradient id="b" gradientUnits="userSpaceOnUse" x1="357.475" y1="805.05" x2="460.925" y2="805.05" spreadMethod="pad"><stop offset="0%" stop-color="#FECB16"/><stop offset="100%" stop-color="#FD6F17"/></linearGradient><linearGradient id="c" gradientUnits="userSpaceOnUse" x1="451.488" y1="856.5" x2="355.713" y2="856.5" spreadMethod="pad"><stop offset="0%" stop-color="#0D2675"/><stop offset="100%" stop-color="#AAB3D5"/></linearGradient><linearGradient id="d" gradientUnits="userSpaceOnUse" x1="445.488" y1="770.95" x2="369.412" y2="770.95" spreadMethod="pad"><stop offset="0%" stop-color="#0D2675"/><stop offset="100%" stop-color="#AAB3D5"/></linearGradient><linearGradient id="e" gradientUnits="userSpaceOnUse" x1="385.75" y1="872.5" x2="385.75" y2="760.4" spreadMethod="pad"><stop offset="0%" stop-color="#FDE564"/><stop offset="100%" stop-color="#FEFECC"/></linearGradient><linearGradient id="f" gradientUnits="userSpaceOnUse" x1="389.463" y1="742.6" x2="430.137" y2="742.6" spreadMethod="pad"><stop offset="0%" stop-color="#8BB51C"/><stop offset="100%" stop-color="#578016"/></linearGradient><linearGradient id="g" gradientUnits="userSpaceOnUse" x1="391.438" y1="758.238" x2="437.962" y2="757.462" spreadMethod="pad"><stop offset="0%" stop-color="#A50B01"/><stop offset="100%" stop-color="#650000"/></linearGradient><linearGradient id="h" gradientUnits="userSpaceOnUse" x1="378.487" y1="883.4" x2="430.313" y2="883.4" spreadMethod="pad"><stop offset="0%" stop-color="#8BB51C"/><stop offset="100%" stop-color="#578016"/></linearGradient><linearGradient id="i" gradientUnits="userSpaceOnUse" x1="381.4" y1="867.813" x2="440.1" y2="866.787" spreadMethod="pad"><stop offset="0%" stop-color="#A50B01"/><stop offset="100%" stop-color="#650000"/></linearGradient><linearGradient id="j" gradientUnits="userSpaceOnUse" x1="445.488" y1="819.1" x2="389.613" y2="819.1" spreadMethod="pad"><stop offset="0%" stop-color="#B41001"/><stop offset="100%" stop-color="#FD330C"/></linearGradient><path fill="#FFF" fill-opacity="0" d="M0 320h284V0H0v320z" id="k"/><path fill="url(#a)" d="M392.4 757.6q-.65 9.55 0 33.15.65 23.75-.15 35.9-.7 10.65-4.7 29.25-3.7 17.2-3.75 23.8-.05 10.95 6.6 16.05 7.7 5.85 26.3 5.85 39.1 0 56.5-27.8 15-24.05 10.25-61.1-4.45-34.9-23.1-61.1-19.7-27.8-43.65-27.8-12.35 0-18.25 9.45-4.95 7.95-6.05 24.35z" id="l"/><path fill="#5874B3" d="M438.5 869.75l-10.65-21.35-11.45 23.1-11.55-23.1-10.6 21.2L382 845.15l-9.3 18.55-12.75-25.45-3.7 14.75q.75 3 1.9 6.4 27.95 15.4 59.85 15.4 17.95 0 33.8-3.35 15.05-3.15 27.05-9.1 1.45-3.85 2.3-7.15l-8.35-16.75-12.75 25.5-9.3-18.65-12.25 24.45z" id="m"/><path fill="#5874B3" d="M366 762.85l9.5 18.95 9.25-18.5 11.2 22.45q9.3-18.55 10.1-20.25l10.75 21.45 10.65-21.45 10.05 20.15 11.25-22.45 9.3 18.5 9.35-18.8q-2.75-4.9-5.05-8.35-21.15 6.7-46.45 6.7-24.5 0-45.15-6.3-2.05 3.1-4.75 7.9z" id="n"/><path fill="#7CA71A" d="M477.85 864.85l-37.6 10.05-51.05-1.6-18.45-5.6q4.25 10 11.3 16.85 2.05 2 6.8 6.3 4.5 4.25 8.25 8.65 9.25 2.1 19.7 2.1 23.45 0 39.35-10.3 14.45-9.35 21.7-26.45z" id="o"/><path fill="#7CA71A" d="M403.9 726.05q-4.2 1.5-4.1 4.55.05 1.85 2.45 6.75 2.6 5.35 3.1 8.55.8 5.25-2.2 9.8 6.3 1.7 6.7 3.75.25 1 9.25 1 24.1 0 44.05-4.8-9.5-14.75-21.05-23-12.35-8.85-25.3-8.85-6.45 0-12.9 2.25z" id="p"/><path fill="#D82402" d="M399.05 756.8q-6.45-.6-15.25-3.25-2.2 3.1-4.55 6.9 9.85 3.2 17.3 4.05 5.85.65 20.15.65 26.5 0 47.95-7-2.1-3.5-4.6-6.9-19.8 5.9-43.35 5.9-13.55 0-17.65-.35z" id="q"/><path fill="#D82402" d="M476.6 867.55q2.3-4.7 4.25-11.25-2.35 1.55-5.55 3-10.1 4.95-23.6 8.1l-4.25 9q16.45-3.1 29.15-8.85z" id="r"/><path fill="url(#b)" d="M378.25 744.9q-12.05 14.15-19.85 34.4-7.8 20.2-9.2 41.1-1.55 22.05 4.5 39.55 4.45 12.75 19.4 18.2 5.6 2 15.05 3.9 5.45 1.1 17.25 3.35.1 0-5.95-5.4 7.6.5 19.15 1.45 8.7.55 13.25-.3 5.45-1.05 8.9-4.7 3.6-3.75 6.4-11.6.45-1.2 4.3-3.5 3.75-2.25 4.15-3.85 6.5-26.35 1.6-60.05-5.05-34.55-19.05-54.55-6.25-9-14.15-13.95-9.7-6.1-18.5-3.4-14.5 4.4-27.25 19.35z" id="s"/><path fill="url(#c)" d="M438.5 869.75l-10.65-21.35-11.45 23.1-11.55-23.1-10.6 21.2L382 845.15l-9.3 18.55-12.75-25.45L352 854.3l.2.85v.05q.5 1.9 1.8 5.5 11.95 6.6 28.3 10.3 16.9 3.8 35.7 3.8 16.9 0 32.75-3.15 1.15-2.45 2.4-5.75 1.95-5.7 2.85-10.1l-5.25-10.5-12.25 24.45z" id="t"/><path fill="url(#d)" d="M366 762.85l9.5 18.95 9.25-18.5 11.2 22.45q9.3-18.55 10.1-20.25l10.75 21.45 10.65-21.45 10.05 20.15 11.2-22.25q-1.3-3.3-2.05-4.95-14.85 2.8-30.75 2.8-24.5 0-45.15-6.3-2.05 3.1-4.75 7.9z" id="u"/><path fill="url(#e)" d="M381.55 771q5.25-20.15 13.75-32.65-18.65 22.7-27.7 48.25-8.7 24.55-6.75 46.75 1.95 22.5 14.4 37.45 13.15 15.8 35.75 20.15-17.5-11.95-26.4-33.55-7.85-19-8.25-43.35-.35-21.75 5.2-43.05z" id="v"/><path fill="#C5CBE2" d="M393 873q-7.85-11.25-12-25.85l-8.3 16.55-10.55-21.15q3.1 15.1 11.45 26.2 9.45 2.8 19.4 4.25z" id="w"/><path fill="url(#f)" d="M386.9 736.25q-8.55 7.35-15.9 18.45 21.8 5.75 48.1 5.75 14.1 0 27.7-1.8-4.05-9.35-8.55-15.75-6.35-9.05-14.2-13.95-9.7-6.1-18.5-3.4-9.65 2.95-18.65 10.7z" id="x"/><path fill="#DDF081" d="M381.95 757.15l3.8.65q4.25-11.45 9.65-19.45-7.45 9.05-13.45 18.8z" id="y"/><path fill="#E5E6F1" d="M372.2 775.15l3.3 6.65 6.85-13.7q1.65-5.65 3.05-9.6l-3.9-.75q-5.3 8.65-9.3 17.4z" id="z"/><path fill="url(#g)" d="M386.9 754.5q-.25-.05-1.3 1.05-1.1 1.1-1.35 1.05-.25-.05-.1-1.35.1-1.25-.15-1.35-5.9-1.25-10.7-2.65-1.7 2.3-4.55 6.9 5.55 1.75 10.9 2.95.35.15 2.1-1.9 1.8-2 2.2-1.95.3.05.05 2.4-.3 2.4.1 2.4 15.6 3.1 32.6 3.1 16.5 0 31.55-2.9-1.6-4.05-3.25-7.45-13.4 2.35-28.3 2.35-15.45 0-29.8-2.65z" id="A"/><path fill="url(#h)" d="M444.7 874.3q-3.925-1.04-3.9-1.75l-.55 2.35-51.05-1.6-20.15-5.6q.15.35-6.25-.4t-6.2-.35q5.9 12.65 16 20.85 10.9 8.8 26.1 12l.3.05q18 1.25 30.8-5.4 11.65-6 18.65-18.35.4-.65-3.75-1.8z" id="B"/><path fill="#C2E32E" d="M393.4 873.45l-4.2-.15-15.05-3.9q13.4 17.1 36.95 21.55-10.5-7.1-17.7-17.5z" id="C"/><path fill="url(#i)" d="M448.4 876.25q2.65-4.65 4.25-9.1-17.1 4-35.95 4-13.55 0-26.55-2.1-.4.1-4.4 1.95-2.65 1.2-4.45.8-1.8-.4-5.35-3.65-3.7-3.35-5.2-3.8-6.5-2-12.65-5.05-2.75-1.25-5.55-2.95 1.8 6.05 4.25 11.2 10.3 4.65 22.4 7.45 1.45.35 3.5-1.8t3.55-1.9q1.75.3 5.5 2.95 1.95 1.4 4.85 3.7 9.35 1.15 20.1 1.15 16.45 0 31.7-2.85z" id="D"/><path fill="#FD4810" d="M390.45 869.05q-10.55-1.7-19.9-4.75 3.9 6.2 8.55 10.65 8.1 1.95 17.75 3.1-3.6-4.35-6.4-9z" id="E"/><path fill="#FFF" d="M369.05 782.7l-1.25 3.25 10.05 3.9q.35-2.4.5-3.55l-9.3-3.6z" id="F"/><path fill="#FFF" d="M376.3 810.2q.15-8.15.95-15.4l-10.95-4.25q-2.25 6.8-3.75 14.35l13.75 5.3z" id="G"/><path fill="#FB854B" d="M386.95 754.5l-3-.6q-2.35 3.55-4.45 7.2 1.5.4 4.65 1 1.5-4.4 2.8-7.6z" id="H"/><path fill="#FEFECC" d="M432.05 808.3q4.75-2.3 6.6-4.15 1.3-1.35 1.3-3.2 0-1.9-1.3-3.2-1.35-1.35-3.2-1.35-1.9 0-3.2 1.35-1.8 1.85-4.1 6.65-1.25 2.6-3.4 7.2l.1.05q4.6-2.1 7.2-3.35z" id="I"/><path fill="#FFF" d="M409.5 811.6q-2.15-4.6-3.4-7.2-2.25-4.8-4.1-6.65-1.35-1.35-3.2-1.35-1.9 0-3.2 1.35-1.35 1.3-1.35 3.2 0 1.85 1.35 3.2 1.85 1.85 6.65 4.15 2.6 1.25 7.2 3.35l.05-.05z" id="J"/><path fill="#FEFECC" d="M432.05 829.95q-5.3-2.35-7.2-3.4l-.1.1q1.05 1.9 3.4 7.2 2.3 4.8 4.1 6.6 1.3 1.3 3.2 1.3 1.85 0 3.2-1.3 1.3-1.35 1.3-3.2 0-1.9-1.3-3.2-1.8-1.8-6.6-4.1z" id="K"/><path fill="#FFF" d="M406.1 833.85q2.35-5.3 3.4-7.2l-.05-.1q-1.9 1.05-7.2 3.4-4.8 2.3-6.65 4.1-1.35 1.3-1.35 3.2 0 1.85 1.35 3.2 1.3 1.3 3.2 1.3 1.85 0 3.2-1.3 1.85-1.8 4.1-6.6z" id="L"/><path fill="url(#j)" d="M433.25 811.75q-1.9 1.15-3.1 3.1h-9.2v-9.3q1.95-1.1 3.1-3.05 1.15-1.95 1.15-4.3 0-3.55-2.5-6.05t-6-2.5q-3.5 0-6 2.5-2.5 2.55-2.5 6.05 0 2.3 1.2 4.3 1.15 1.95 3.05 3.05v9.3h-9.3q-1.05-1.9-3.05-3.1-1.95-1.15-4.25-1.15-3.55 0-6.1 2.5-2.5 2.5-2.5 6 0 3.55 2.5 6.05 2.55 2.5 6.1 2.5 2.25 0 4.25-1.2 2-1.15 3.05-3.05h9.3v9.2q-1.9 1.15-3.05 3.1-1.2 2-1.2 4.35 0 3.5 2.5 5.95 2.5 2.5 6 2.5t6-2.5q2.5-2.45 2.5-5.95 0-2.35-1.15-4.35-1.15-1.95-3.1-3.1v-9.2h9.2q1.2 1.95 3.1 3.05 2 1.2 4.35 1.2 3.5 0 6-2.5t2.5-6.05q0-3.5-2.5-6t-6-2.5q-2.35 0-4.35 1.15z" id="M"/></defs><use xlink:href="#k"/><use xlink:href="#l" transform="matrix(1.55276 0 0 1.55275 -505.06 -1088.88)"/><use xlink:href="#m" transform="matrix(1.55276 0 0 1.55275 -505.06 -1088.88)"/><use xlink:href="#n" transform="matrix(1.55276 0 0 1.55275 -505.06 -1088.88)"/><use xlink:href="#o" transform="matrix(1.55276 0 0 1.55275 -505.06 -1088.88)"/><use xlink:href="#p" transform="matrix(1.55276 0 0 1.55275 -505.06 -1088.88)"/><use xlink:href="#q" transform="matrix(1.55276 0 0 1.55275 -505.06 -1088.88)"/><use xlink:href="#r" transform="matrix(1.55276 0 0 1.55275 -505.06 -1088.88)"/><use xlink:href="#s" transform="matrix(1.55276 0 0 1.55275 -505.06 -1088.88)"/><use xlink:href="#t" transform="matrix(1.55276 0 0 1.55275 -505.06 -1088.88)"/><use xlink:href="#u" transform="matrix(1.55276 0 0 1.55275 -505.06 -1088.88)"/><use xlink:href="#v" transform="matrix(1.55276 0 0 1.55275 -505.06 -1088.88)"/><use xlink:href="#w" transform="matrix(1.55276 0 0 1.55275 -505.06 -1088.88)"/><use xlink:href="#x" transform="matrix(1.55276 0 0 1.55275 -505.06 -1088.88)"/><use xlink:href="#y" transform="matrix(1.55276 0 0 1.55275 -505.06 -1088.88)"/><use xlink:href="#z" transform="matrix(1.55276 0 0 1.55275 -505.06 -1088.88)"/><use xlink:href="#A" transform="matrix(1.55276 0 0 1.55275 -505.06 -1088.88)"/><use xlink:href="#B" transform="matrix(1.55276 0 0 1.55275 -505.06 -1088.88)"/><use xlink:href="#C" transform="matrix(1.55276 0 0 1.55275 -505.06 -1088.88)"/><use xlink:href="#D" transform="matrix(1.55276 0 0 1.55275 -505.06 -1088.88)"/><use xlink:href="#E" transform="matrix(1.55276 0 0 1.55275 -505.06 -1088.88)"/><use xlink:href="#F" transform="matrix(1.55276 0 0 1.55275 -505.06 -1088.88)"/><use xlink:href="#G" transform="matrix(1.55276 0 0 1.55275 -505.06 -1088.88)"/><use xlink:href="#H" transform="matrix(1.55276 0 0 1.55275 -505.06 -1088.88)"/><use xlink:href="#I" transform="matrix(1.55276 0 0 1.55275 -505.06 -1088.88)"/><use xlink:href="#J" transform="matrix(1.55276 0 0 1.55275 -505.06 -1088.88)"/><use xlink:href="#K" transform="matrix(1.55276 0 0 1.55275 -505.06 -1088.88)"/><use xlink:href="#L" transform="matrix(1.55276 0 0 1.55275 -505.06 -1088.88)"/><use xlink:href="#M" transform="matrix(1.55276 0 0 1.55275 -505.06 -1088.88)"/></svg>