<svg xmlns="http://www.w3.org/2000/svg" xmlns:xlink="http://www.w3.org/1999/xlink" preserveAspectRatio="none" width="284" height="320"><defs><linearGradient id="a" gradientUnits="userSpaceOnUse" x1="239.6" y1="447.538" x2="239.6" y2="328.862" spreadMethod="pad"><stop offset="0%" stop-color="#FECB16"/><stop offset="100%" stop-color="#FE9016"/></linearGradient><linearGradient id="b" gradientUnits="userSpaceOnUse" x1="241.95" y1="438.512" x2="241.95" y2="411.588" spreadMethod="pad"><stop offset="0%" stop-color="#FF2A0B"/><stop offset="100%" stop-color="#D52102"/></linearGradient><linearGradient id="c" gradientUnits="userSpaceOnUse" x1="262.1" y1="339.537" x2="262.1" y2="318.262" spreadMethod="pad"><stop offset="0%" stop-color="#FF2A0B"/><stop offset="100%" stop-color="#D52102"/></linearGradient><linearGradient id="d" gradientUnits="userSpaceOnUse" x1="171.475" y1="378.65" x2="274.425" y2="378.65" spreadMethod="pad"><stop offset="0%" stop-color="#FECB16"/><stop offset="100%" stop-color="#FD6F17"/></linearGradient><linearGradient id="e" gradientUnits="userSpaceOnUse" x1="200.15" y1="437.5" x2="200.15" y2="325.4" spreadMethod="pad"><stop offset="0%" stop-color="#FDE564"/><stop offset="100%" stop-color="#FEFECC"/></linearGradient><linearGradient id="f" gradientUnits="userSpaceOnUse" x1="268.438" y1="427.05" x2="169.363" y2="427.05" spreadMethod="pad"><stop offset="0%" stop-color="#B41001"/><stop offset="100%" stop-color="#FD330C"/></linearGradient><linearGradient id="g" gradientUnits="userSpaceOnUse" x1="265.45" y1="329.4" x2="182.15" y2="329.4" spreadMethod="pad"><stop offset="0%" stop-color="#B41001"/><stop offset="100%" stop-color="#FD330C"/></linearGradient><linearGradient id="h" gradientUnits="userSpaceOnUse" x1="262.462" y1="448.1" x2="173.438" y2="448.1" spreadMethod="pad"><stop offset="0%" stop-color="#0D2675"/><stop offset="100%" stop-color="#AAB3D5"/></linearGradient><linearGradient id="i" gradientUnits="userSpaceOnUse" x1="258.462" y1="307.8" x2="187.338" y2="307.8" spreadMethod="pad"><stop offset="0%" stop-color="#0D2675"/><stop offset="100%" stop-color="#AAB3D5"/></linearGradient><linearGradient id="j" gradientUnits="userSpaceOnUse" x1="191.463" y1="323.35" x2="260.038" y2="323.35" spreadMethod="pad"><stop offset="0%" stop-color="#FEEA7C"/><stop offset="100%" stop-color="#FECB16"/></linearGradient><linearGradient id="k" gradientUnits="userSpaceOnUse" x1="177.475" y1="432.9" x2="263.825" y2="432.9" spreadMethod="pad"><stop offset="0%" stop-color="#FEEA7C"/><stop offset="100%" stop-color="#FECB16"/></linearGradient><linearGradient id="l" gradientUnits="userSpaceOnUse" x1="190.5" y1="417" x2="248.3" y2="417" spreadMethod="pad"><stop offset="0%" stop-color="#8BB51C"/><stop offset="100%" stop-color="#578016"/></linearGradient><linearGradient id="m" gradientUnits="userSpaceOnUse" x1="198.5" y1="336.85" x2="249.8" y2="336.85" spreadMethod="pad"><stop offset="0%" stop-color="#8BB51C"/><stop offset="100%" stop-color="#578016"/></linearGradient><linearGradient id="n" gradientUnits="userSpaceOnUse" x1="268.45" y1="381.55" x2="195.75" y2="381.55" spreadMethod="pad"><stop offset="0%" stop-color="#B41001"/><stop offset="100%" stop-color="#FD330C"/></linearGradient><linearGradient id="o" gradientUnits="userSpaceOnUse" x1="225.475" y1="381.6" x2="238.425" y2="381.6" spreadMethod="pad"><stop offset="0%" stop-color="#FEEA7C"/><stop offset="100%" stop-color="#FECB16"/></linearGradient><path fill="#FFF" fill-opacity="0" d="M0 320h284V0H0v320z" id="p"/><path fill="url(#a)" d="M235.35 341.15q-1.65 0-3.8 2.15-2.4 2.35-3.75 2.65-20.9 5.2-34.1 19.1-12.75 13.4-13.45 29.65-.8 17.1 12.35 30.7 14.65 15.25 43.45 22.25 3.45.85-7.95 3-9.85 1.85-6.95 1.85 26.85 0 37.55-3.8 13.4-4.8 19.85-20 1.35-3.05 10.8-11 8.55-7.2 9.05-11.95 1.8-16.8-1.6-35.4-3.3-17.95-10.85-34.25-1.4-3.05-10.1-6.3-9.1-3.35-10.65-5.7-4.1-6.25-7.3-5.1-2.15.8-5.55 6.75-4.35 7.6-6.6 10.15-4.6 5.25-10.4 5.25z" id="q"/><path fill="url(#b)" d="M291.35 432l.95-2q3.2-7.25 5.05-16.7l-49.75 11.6-38.7-1.6-22.4-5.6q7.45 11.85 23.2 20.3l12.75 2.3 26.05-1.65 42.85-6.65z" id="r"/><path fill="url(#c)" d="M277.05 319.95l-.25-.25-19.05 4.5q-6.75 7.8-8.65 9.65-5.2 5.15-9.75 6.65l6.65.5 38.85-7.2q-3.25-6.8-7.8-13.85z" id="s"/><path fill="#7CA71A" d="M257.8 338.4q-2.196 1.526-4.3 2.35h.3q7.15.1 13.2.6 9.7-1.95 19.1-4.95-2.45-5.15-3.8-7.55-8.65 2.75-18 4.5-2.1 1.55-6.5 5.05m-22.45 2.75q.1 0 7.55 1.4 5 .95 7.15-.9 1.695-.186 3.45-.9-8.89 0-15.05-.05 1.25-1-1.75-.3-3.35.75-1.35.75z" id="t"/><path fill="#7CA71A" d="M298.5 405l-1.95 1q-25.75 12.35-55.45 14.2-29.5 1.9-57-6.9 2.65 5.5 7.15 10.7 26.3 6.6 53.5 4.3 27.3-2.25 52.2-13.2.95-4.85 1.55-10.1z" id="u"/><path fill="#5874B3" d="M291.15 432.5q.2-.4-3.05-.9t-3.1-.9l-30.35 9.35-51.05-1.55-18.45-5.65q4.25 10.05 11.25 16.9 2.1 2 6.8 6.3 4.55 4.25 8.3 8.65 9.2 2.1 19.65 2.1 22.55 0 38.2-9.55 14.2-8.7 21.8-24.75z" id="v"/><path fill="#5874B3" d="M231.15 289q-6.4 0-12.9 2.25-4.2 1.5-4.1 4.55.05 1.85 2.45 6.75 2.6 5.35 3.1 8.55.8 5.25-2.2 9.8 6.3 1.7 6.7 3.75.2 1 9.2 1 23.55 0 44.2-4.8-9.5-14.75-21.1-23-12.4-8.85-25.35-8.85z" id="w"/><path fill="#FEEA7C" d="M187.75 316.35q-2.7 3.85-4.6 7 21.95 7 48 7 25.95 0 48.05-7-1.75-2.9-4.6-7-19.65 6-43.45 6-23.75 0-43.4-6z" id="x"/><path fill="#FEEA7C" d="M291.05 432.75q2.35-4.85 4-10.2-4.8 2.9-12.05 5.35-4.35 1.45-12.8 3.65-18.05 4.75-39.05 4.75-16.9 0-32.3-3.15-14.9-3.05-26.35-8.65-3.5-1.8-5.55-3 1.9 6.35 4.25 11.25 12.05 5.45 27.2 8.45 15.75 3.1 32.75 3.1t32.7-3.1q15.15-3 27.2-8.45z" id="y"/><path fill="url(#d)" d="M228.8 315.7q-1.351.65-4.35 1.55-5.1 1.55-13.3 1.95-11.55.55-13.1.7-14.85 1.8-21.05 14.9-7.85 16.5-11.35 34.85-3.6 18.95-1.75 36.1.65 6 12.35 13.5 7.8 5 8.95 5.8 4.6 3.35 6.2 6.25 1.9 3.45 3.5 7.3.9 2.05 1.55 2.35.4.2 3.7.5 4.45.35 10 1.5.15.05 6.9-3.15 7.3.5 17.8 2 7.6 1.05 10.15.75 3.6-.45 5.85-3.6 2-2.85 4.95-11.1.8-2.2 8.15-5.9 7.15-3.55 7.7-6.5 2.9-16.8 1.7-36.7-1.2-19.9-6.2-37.85-1.1-4-8.1-9.2-7.45-5.5-8.8-8.35-1.1-2.2-9.55-.8-8.7 1.5-9.9-.25-2.3-3.3-2.15-5.65.034-.536.15-.95m0 0q1.643-.77 1.05-1.2-.731.366-1.05 1.2z" id="z"/><path fill="url(#e)" d="M196 336.2q5.25-20.2 13.8-32.65-18.7 22.7-27.75 48.2-8.7 24.55-6.8 46.8 1.95 22.45 14.4 37.4 13.15 15.85 35.75 20.2-17.5-11.95-26.4-33.55-7.8-19-8.2-43.35-.35-21.8 5.2-43.05z" id="A"/><path fill="url(#f)" d="M264.05 420.25l-16.45 4.65-38.7-1.6-35.65-9.45q.1.45-3.95.55-4.05.05-3.95.55.5 2.5 1.95 7.75.45 1.35 4.65 4.7 4.35 3.4 4.85 4.6l45.65 8.3 26.05-1.65 12.75-2.7q.25-.5 2.85-1.5 2.65-1 2.85-1.5l.65-1.9q1.35-3.5 2.15-7.05.2-.75-2.8-1.85-3.1-1.1-2.9-1.9z" id="B"/><path fill="#FC8F38" d="M178.7 415.75q3.25 10.2 9.35 18.2l18.9 3.55q-5.4-8.15-8.75-16.85l-19.5-4.9z" id="C"/><path fill="url(#g)" d="M186.75 317.8q-4.65 6.9-8.5 14.4l23.3 5.55L246 341l20.1-3.75q-2.1-6.9-5.05-13.8l-15.85 3.8-32.35-1.6-26.1-7.85z" id="D"/><path fill="#FC9947" d="M197.2 320.9q-4.5 7.2-7.85 13.9l6.6 1.6q2.05-8.15 4.55-14.5l-3.3-1z" id="E"/><path fill="url(#h)" d="M262.9 441.35q.4-.65-2.9-2-3.4-1.35-3.05-2.1l-2.3 2.8-51.05-1.55-27.95-7.5q.25.5-2.25.75-2.5.3-2.3.75 6 12.55 16.05 20.6Q198 461.85 213.1 465l.3.05q18.05 1.2 30.85-5.4 11.65-6.05 18.65-18.3z" id="F"/><path fill="#C5CBE2" d="M207.7 438.55l-4.1-.05-15.05-4q13.25 17.15 36.85 21.65-10.25-7.05-17.7-17.6z" id="G"/><path fill="url(#i)" d="M238.45 294.15q-9.75-6.1-18.6-3.4-8.85 2.65-17.2 9.5-7.95 6.5-14.95 16.25-.4.55.8 1.9 1.2 1.4.85 1.95 9.85 2.6 22 4 11.25 1.3 22.05 1.3 9.2 0 13.05-.35.6-.05 9.2-1.3-.25-.6 1.95-1.95 2.25-1.4 1.95-2-3.45-7.05-6.85-11.95-6.35-9.05-14.25-13.95z" id="H"/><path fill="#CACFE4" d="M196.3 322.35l3.85.65q4.3-11.7 9.65-19.45-7.65 9.3-13.5 18.8z" id="I"/><path fill="url(#j)" d="M187.75 316.35q-2.25 3.2-4.6 7 5.3 1.7 10.85 2.95.4.1 2.3-1.65 1.85-1.7 2.25-1.65.35.1-.05 2.15-.4 2.05 0 2.1 15.6 3.1 32.65 3.1 16.6 0 31.55-2.9-1.4-3.65-3.25-7.5-13.55 2.4-28.3 2.4-23.75 0-43.4-6z" id="J"/><path fill="url(#k)" d="M262.9 441.35q2.45-4.15 4.25-9.05-16.7 4-36 4-14.25 0-26.65-2.15-1.6-.25-3.95 2.1-2.35 2.25-3.85 1.9-1.85-.4-5.9-4.2-4.2-3.95-5.65-4.4-7.3-2.4-12.65-5.05-3.45-1.75-5.5-3 1.65 5.8 4.25 11.25 12.1 5.5 27.25 8.45 15.7 3.1 32.65 3.1 16.85 0 31.75-2.95z" id="K"/><path fill="#FEFECC" d="M211.2 443.15q-3.75-4.6-6.3-8.9-10.45-1.7-19.9-4.75 3.95 6.2 8.6 10.65 8.65 2.05 17.6 3z" id="L"/><path fill="#FEFECC" d="M201.35 319.7l-3-.6q-2.95 4.55-4.4 7.2l4.65 1q1.4-4.1 2.75-7.6z" id="M"/><path fill="#FFF" d="M183.55 347.6q-1.1 2.95-1.2 3.25l9.95 3.85.55-3.5-9.3-3.6z" id="N"/><path fill="#FFF" d="M180.75 355.45q-2.2 7.1-3.65 14.3l13.65 5.3q.15-8.05.95-15.35l-10.95-4.25z" id="O"/><path fill="url(#l)" d="M269.7 424.3q.85-3.2 2-9.15-18.15 4.9-37.35 5.3-19.15.4-37.65-3.7-1.55-.35-4.95 1-3.35 1.3-4.85.85-1.75-.5-4.75-3.7-3.1-3.3-4.7-3.9-6.5-2.5-11.8-5l-1.8-.9q.55 5.45 1.6 10.05 7.45 3.35 15.4 5.85 1.8.6 4.8-.45 3.1-1.05 4.85-.65 1.45.35 4.95 3.1 3.4 2.65 4.9 2.95 17.15 3.3 34.75 2.85 17.55-.4 34.6-4.5z" id="P"/><path fill="url(#m)" d="M193.5 336.3q.317.62.35 2.25 0 2.55.65 2.65 18 3.7 36.4 3.75 18.5 0 36.35-3.65-1.1-3.95-2.4-8-16.85 3.3-34.1 3.3-17.35-.05-34.05-3.45-.45-.1-2.3 2.15-.482.57-.9 1m-1.85.3q.134.797.4.85.336.075 1.45-1.15-.124-.348-.35-.4-.36-.098-1.5.7m-11.7-7.75q-2.95 5.85-3.7 7.6 6.5 2.05 11.05 3.2.55.1 2.95-1.9.813-.691 1.4-1.15-.1-.658-.1-1.9-.05-2.65-.55-2.8-5.7-1.4-11.05-3.05z" id="Q"/><path fill="#DDF081" d="M194.75 341.3q1.15-5.05 2.05-8.15-2.75-.5-5.95-1.3-2.2 4.05-3.8 7.7 6.25 1.5 7.7 1.75z" id="R"/><path fill="#C2E32E" d="M200.5 426.05q-1.9-4.1-3.7-9.3-9.75-2.2-19.5-5.75 1.3 5.2 3.3 9.9 10.2 3.25 19.9 5.15z" id="S"/><path fill="url(#n)" d="M242.05 355.05l-4.6-7.65q-1.65 2.85-2.25 4.9-.65 2.1-.8 5.35 0 .05.4 5.15.2 2.9-1.05 5.05-.85 1.5-2.6 4.25-1.8-2.75-2.6-4.25-1.2-2.15-1-5.05.35-4.85.35-5.15-.2-3.25-.8-5.35-.6-2.05-2.2-4.9l-4.6 7.65-8.3-6.65 1.6 10.5-8.95.15q1.7 2.85 3.2 4.4 1.5 1.55 4.25 3.4.05 0 4.65 2.2 2.6 1.25 3.85 3.4.85 1.45 2.35 4.4-3.25.15-4.95.15-2.5 0-4.9-1.65-4.2-2.95-4.25-2.95-2.9-1.45-5.05-1.95-2.1-.5-5.4-.5l4.3 7.75-9.85 3.9 9.85 3.8-4.3 7.85q3.25 0 5.4-.5 2.1-.5 5.05-2 .2-.1 4.25-2.9 2.4-1.7 4.9-1.7 1.7 0 4.95.2-.8 1.4-2.35 4.35-1.25 2.15-3.85 3.4-4.5 2.15-4.65 2.25-2.75 1.8-4.25 3.35t-3.2 4.35l8.95.15-1.6 10.55 8.3-6.65 4.6 7.65q1.6-2.8 2.2-4.9.6-2.05.8-5.35 0-.3-.35-5.15-.2-2.9 1-5.05 1.8-2.9 2.6-4.25.8 1.35 2.6 4.25 1.25 2.15 1.05 5.05-.4 5.1-.4 5.15.15 3.25.8 5.35.6 2.1 2.25 4.9l4.6-7.65 8.25 6.65-1.55-10.55 8.85-.15q-1.55-2.75-3.15-4.35-1.45-1.5-4.2-3.35-.2-.15-4.65-2.25-2.65-1.25-3.9-3.4l-2.35-4.4q1.6 0 5-.15 2.45 0 4.9 1.7 3.9 2.75 4.25 2.9 2.9 1.5 5 2 2.15.5 5.4.45l-4.35-7.8 9.9-3.8-9.9-3.9 4.35-7.75q-3.3 0-5.4.5-2.1.5-5 1.95-.35.15-4.25 2.9-2.45 1.7-4.9 1.7-3.4-.15-5-.15 1.55-2.95 2.35-4.4 1.25-2.15 3.9-3.4 4.6-2.15 4.65-2.2 2.75-1.85 4.2-3.4 1.55-1.65 3.15-4.4l-8.85-.15 1.55-10.5-8.25 6.65z" id="T"/><path fill="url(#o)" d="M227.4 375.05q-2.7 1.55-3.5 4.6-.8 3 .7 5.7 1.55 2.7 4.6 3.5 3 .8 5.7-.75 2.7-1.6 3.5-4.6.8-3-.75-5.7-1.5-2.65-4.55-3.5-3.05-.8-5.7.75z" id="U"/></defs><use xlink:href="#p"/><use xlink:href="#q" transform="matrix(1.59732 0 0 1.59729 -227.113 -435.567)"/><use xlink:href="#r" transform="matrix(1.59732 0 0 1.59729 -227.113 -435.567)"/><use xlink:href="#s" transform="matrix(1.59732 0 0 1.59729 -227.113 -435.567)"/><use xlink:href="#t" transform="matrix(1.59732 0 0 1.59729 -227.113 -435.567)"/><use xlink:href="#u" transform="matrix(1.59732 0 0 1.59729 -227.113 -435.567)"/><use xlink:href="#v" transform="matrix(1.59732 0 0 1.59729 -227.113 -435.567)"/><use xlink:href="#w" transform="matrix(1.59732 0 0 1.59729 -227.113 -435.567)"/><use xlink:href="#x" transform="matrix(1.59732 0 0 1.59729 -227.113 -435.567)"/><use xlink:href="#y" transform="matrix(1.59732 0 0 1.59729 -227.113 -435.567)"/><use xlink:href="#z" transform="matrix(1.59732 0 0 1.59729 -227.113 -435.567)"/><use xlink:href="#A" transform="matrix(1.59732 0 0 1.59729 -227.113 -435.567)"/><use xlink:href="#B" transform="matrix(1.59732 0 0 1.59729 -227.113 -435.567)"/><use xlink:href="#C" transform="matrix(1.59732 0 0 1.59729 -227.113 -435.567)"/><use xlink:href="#D" transform="matrix(1.59732 0 0 1.59729 -227.113 -435.567)"/><use xlink:href="#E" transform="matrix(1.59732 0 0 1.59729 -227.113 -435.567)"/><use xlink:href="#F" transform="matrix(1.59732 0 0 1.59729 -227.113 -435.567)"/><use xlink:href="#G" transform="matrix(1.59732 0 0 1.59729 -227.113 -435.567)"/><use xlink:href="#H" transform="matrix(1.59732 0 0 1.59729 -227.113 -435.567)"/><use xlink:href="#I" transform="matrix(1.59732 0 0 1.59729 -227.113 -435.567)"/><use xlink:href="#J" transform="matrix(1.59732 0 0 1.59729 -227.113 -435.567)"/><use xlink:href="#K" transform="matrix(1.59732 0 0 1.59729 -227.113 -435.567)"/><use xlink:href="#L" transform="matrix(1.59732 0 0 1.59729 -227.113 -435.567)"/><use xlink:href="#M" transform="matrix(1.59732 0 0 1.59729 -227.113 -435.567)"/><use xlink:href="#N" transform="matrix(1.59732 0 0 1.59729 -227.113 -435.567)"/><use xlink:href="#O" transform="matrix(1.59732 0 0 1.59729 -227.113 -435.567)"/><use xlink:href="#P" transform="matrix(1.59732 0 0 1.59729 -227.113 -435.567)"/><use xlink:href="#Q" transform="matrix(1.59732 0 0 1.59729 -227.113 -435.567)"/><use xlink:href="#R" transform="matrix(1.59732 0 0 1.59729 -227.113 -435.567)"/><use xlink:href="#S" transform="matrix(1.59732 0 0 1.59729 -227.113 -435.567)"/><use xlink:href="#T" transform="matrix(1.59732 0 0 1.59729 -227.113 -435.567)"/><use xlink:href="#U" transform="matrix(1.59732 0 0 1.59729 -227.113 -435.567)"/></svg>