<svg xmlns="http://www.w3.org/2000/svg" xmlns:xlink="http://www.w3.org/1999/xlink" preserveAspectRatio="none" width="284" height="320"><defs><linearGradient id="a" gradientUnits="userSpaceOnUse" x1="239.6" y1="880.538" x2="239.6" y2="749.462" spreadMethod="pad"><stop offset="0%" stop-color="#FF2A0B"/><stop offset="100%" stop-color="#D52102"/></linearGradient><linearGradient id="b" gradientUnits="userSpaceOnUse" x1="272.45" y1="810.95" x2="167.75" y2="810.95" spreadMethod="pad"><stop offset="0%" stop-color="#B41001"/><stop offset="100%" stop-color="#FD330C"/></linearGradient><linearGradient id="c" gradientUnits="userSpaceOnUse" x1="200.15" y1="872.5" x2="200.15" y2="760.4" spreadMethod="pad"><stop offset="0%" stop-color="#FE9016"/><stop offset="100%" stop-color="#FDD391"/></linearGradient><linearGradient id="d" gradientUnits="userSpaceOnUse" x1="198.388" y1="882.225" x2="252.213" y2="881.275" spreadMethod="pad"><stop offset="0%" stop-color="#A50B01"/><stop offset="100%" stop-color="#7E0100"/></linearGradient><linearGradient id="e" gradientUnits="userSpaceOnUse" x1="208.438" y1="743.075" x2="251.462" y2="742.325" spreadMethod="pad"><stop offset="0%" stop-color="#A50B01"/><stop offset="100%" stop-color="#7E0100"/></linearGradient><linearGradient id="f" gradientUnits="userSpaceOnUse" x1="202.475" y1="758.2" x2="243.825" y2="758.2" spreadMethod="pad"><stop offset="0%" stop-color="#8BB51C"/><stop offset="100%" stop-color="#578016"/></linearGradient><linearGradient id="g" gradientUnits="userSpaceOnUse" x1="191.513" y1="867.75" x2="243.588" y2="867.75" spreadMethod="pad"><stop offset="0%" stop-color="#8BB51C"/><stop offset="100%" stop-color="#578016"/></linearGradient><linearGradient id="h" gradientUnits="userSpaceOnUse" x1="205.5" y1="818.15" x2="257.7" y2="818.15" spreadMethod="pad"><stop offset="0%" stop-color="#FFF"/><stop offset="100%" stop-color="#FEF6B0"/></linearGradient><linearGradient id="i" gradientUnits="userSpaceOnUse" x1="222.5" y1="818.65" x2="247.8" y2="818.65" spreadMethod="pad"><stop offset="0%" stop-color="#A6AED3"/><stop offset="100%" stop-color="#4C6BAD"/></linearGradient><path fill="#FFF" fill-opacity="0" d="M0 320h284V0H0v320z" id="j"/><path fill="url(#a)" d="M235.35 776q-1.65 0-3.8 2.15-2.4 2.35-3.75 2.7-20.9 5.15-34.1 19.05-12.75 13.4-13.45 29.65-.8 17.1 12.35 30.7 14.65 15.2 43.45 22.2 3.45.85-7.95 3.05-9.9 1.9-6.95 1.9 30.8 0 44.4-3.2 20.6-4.8 26.75-19.35 9.75-22.9 5.4-53.9-4.1-29.35-18.8-53.2-.35-.5-16.85 2-16.55 2.45-16.85 2-4-6.1-4.15-5.55-.1.5 1.3 5.8 3 14-7 14z" id="k"/><path fill="#B41001" d="M292.3 864.85l-37.65 10.05-51.15-1.6-18.35-5.6q4.25 10.05 11.25 16.85 2.1 2 6.8 6.3 4.55 4.25 8.3 8.65 9.2 2.1 19.65 2.1 23.45 0 39.4-10.3 14.45-9.35 21.75-26.45z" id="l"/><path fill="#B41001" d="M231.15 723.8q-6.4 0-12.9 2.25-4.2 1.5-4.1 4.55.05 1.85 2.45 6.75 2.6 5.35 3.1 8.55.8 5.25-2.2 9.8 6.3 1.7 6.7 3.75.2 1 9.2 1 24.25 0 44.2-4.8-9.6-14.75-21.1-23-12.4-8.85-25.35-8.85z" id="m"/><path fill="#7CA71A" d="M279.2 758.15q-2.1-3.45-4.6-6.9-7.55 2.2-15.8 3.6l3.05 7.65q9.4-1.75 17.35-4.35z" id="n"/><path fill="#7CA71A" d="M291.05 867.55q2.55-5.2 4.35-11.25-2.6 1.6-5.65 3-11.45 5.6-26.3 8.65-15.45 3.2-32.3 3.2-16.9 0-32.3-3.2-14.9-3.05-26.35-8.65-3.2-1.45-5.55-3 1.95 6.55 4.25 11.25 12 5.5 27.2 8.5 15.7 3.05 32.75 3.05 17 0 32.7-3.05 15.2-3 27.2-8.5z" id="o"/><path fill="url(#b)" d="M232.25 744.65q-1.33.824-5.25 2-4.3 1.3-11.3 1.3-8.05-.25-12-.15-14.4.35-20.2 9.7-13.4 21.75-18.15 48.65-4.95 28.15 1.75 50.65 32.45 24.75 63.75 20.85 9.2-1.1 21.35-5.4 11.65-4.1 14.65-4.35.45-1 .75-2 7.35-20.55 5.85-50.5-1.5-29.7-10.9-53.55-1.5-3.75-13.7-5.8-12.75-2.15-14.45-4.6-2.3-3.3-2.3-5.6 0-.69.15-1.2m0 0q.888-.493.65-.85-.444.278-.65.85z" id="p"/><path fill="url(#c)" d="M196 771q5.25-20.15 13.8-32.65-18.7 22.7-27.75 48.25-8.7 24.6-6.8 46.75 1.95 22.5 14.4 37.45 13.15 15.8 35.75 20.15Q207.9 879 199 857.4q-7.8-19-8.2-43.35-.35-21.75 5.2-43.05z" id="q"/><path fill="url(#d)" d="M262.9 876.15q.4-.65-1.15-2.15-1.6-1.55-1.3-2.2l-5.8 3.1-51.15-1.6-33.6-8.8q5.7 13.6 16.05 22.45 11.15 9.55 27.15 12.85l.3.05q18 1.25 30.85-5.4 11.65-6 18.65-18.3z" id="r"/><path fill="#FD4810" d="M225.4 890.95q-10.2-6.9-17.7-17.5l-4.2-.15-14.95-3.9q13.25 17.05 36.85 21.55z" id="s"/><path fill="url(#e)" d="M238.45 728.95q-9.75-6.1-18.6-3.4-9.6 3-18.6 10.7-8.65 7.4-15.9 18.45 9.9 2.6 24 4.25 13.25 1.5 24.05 1.5 6.9 0 10.55.05.8 0 6.75-.8-.25-.6 4.55-2.2 4.8-1.55 4.55-2.05-3.2-6.95-7.1-12.55-6.35-9.05-14.25-13.95z" id="t"/><path fill="#FF6507" d="M196.3 757.15l3.85.65q4.35-11.7 9.65-19.45-7.65 9.3-13.5 18.8z" id="u"/><path fill="url(#f)" d="M194 761.1q.4.15 1.95-1.15 1.6-1.3 1.95-1.2.35.1.25 1.65-.1 1.6.25 1.65 15.75 3.1 32.75 3.1 16.6 0 31.55-2.9-1.6-4.05-3.25-7.45-13.25 2.35-28.3 2.35-15.45 0-29.8-2.65l-2.35 2-.5-2.6q-6.1-1.3-10.75-2.65-1.35 1.85-4.6 6.9 5.3 1.7 10.85 2.95z" id="v"/><path fill="#FEB71F" d="M201.95 855.65q-1.9 0-3.3 1.4-1.4 1.35-1.4 3.3 0 1.95 1.4 3.3 1.4 1.35 3.3 1.35t3.3-1.35q1.35-1.35 1.35-3.3 0-1.95-1.35-3.3-1.4-1.4-3.3-1.4z" id="w"/><path fill="#FED024" d="M182.3 769.75q1.35 1.35 3.3 1.35 1.95 0 3.3-1.35 1.35-1.35 1.35-3.3 0-1.95-1.35-3.3-1.35-1.4-3.3-1.4-1.95 0-3.3 1.4-1.4 1.35-1.4 3.3 0 1.95 1.4 3.3z" id="x"/><path fill="#FEBE20" d="M200.35 765.35q-1.95 0-3.3 1.4-1.4 1.4-1.4 3.3 0 1.95 1.4 3.35 1.35 1.4 3.3 1.4 1.95 0 3.35-1.4 1.35-1.4 1.35-3.35 0-1.9-1.35-3.3-1.4-1.4-3.35-1.4z" id="y"/><path fill="#FEAC1D" d="M215.4 767.45q-1.95 0-3.35 1.4-1.4 1.4-1.4 3.35 0 1.9 1.4 3.3t3.35 1.4q1.9 0 3.3-1.4t1.4-3.3q0-1.95-1.4-3.35-1.4-1.4-3.3-1.4z" id="z"/><path fill="#FE9B1B" d="M230.5 768.15q-1.95 0-3.3 1.45-1.35 1.4-1.35 3.35 0 1.9 1.35 3.25 1.35 1.4 3.3 1.4 1.95 0 3.35-1.4 1.35-1.35 1.35-3.25 0-1.95-1.35-3.35-1.4-1.45-3.35-1.45z" id="A"/><path fill="#FE8918" d="M242.4 769q-1.35 1.35-1.35 3.3 0 1.9 1.35 3.3 1.35 1.35 3.3 1.35 1.9 0 3.3-1.35 1.4-1.4 1.4-3.3 0-1.95-1.4-3.3-1.4-1.4-3.3-1.4-1.95 0-3.3 1.4z" id="B"/><path fill="#FD7717" d="M260.75 765.65q-1.95 0-3.35 1.4-1.4 1.35-1.4 3.3 0 1.95 1.4 3.3 1.4 1.35 3.35 1.35 1.9 0 3.3-1.35t1.4-3.3q0-1.95-1.4-3.3-1.4-1.4-3.3-1.4z" id="C"/><path fill="#FEA216" d="M272.2 770.15q1.35 1.35 3.3 1.35 1.9 0 3.3-1.35 1.4-1.4 1.4-3.35 0-1.95-1.4-3.3-1.4-1.4-3.3-1.4-1.95 0-3.3 1.4-1.35 1.35-1.35 3.3 0 1.95 1.35 3.35z" id="D"/><path fill="#FED024" d="M170.25 855.25q1.35 1.35 3.3 1.35 1.95 0 3.35-1.35 1.35-1.4 1.35-3.35 0-1.95-1.35-3.3-1.4-1.35-3.35-1.35-1.95 0-3.3 1.35-1.35 1.35-1.35 3.3 0 1.95 1.35 3.35z" id="E"/><path fill="#FEF6B0" d="M187.55 852.25q-1.95 0-3.3 1.4-1.4 1.35-1.4 3.3 0 1.95 1.4 3.35 1.35 1.35 3.3 1.35 1.9 0 3.25-1.35 1.4-1.4 1.4-3.35 0-1.95-1.4-3.3-1.35-1.4-3.25-1.4z" id="F"/><path fill="#FEA71D" d="M216.7 857.5q-1.95 0-3.3 1.4-1.4 1.4-1.4 3.3 0 1.95 1.4 3.35 1.35 1.35 3.3 1.35 1.95 0 3.3-1.35 1.35-1.4 1.35-3.35 0-1.9-1.35-3.3t-3.3-1.4z" id="G"/><path fill="#FE9B1B" d="M231.5 858.15q-1.9 0-3.3 1.4-1.35 1.35-1.35 3.3 0 1.95 1.35 3.35 1.4 1.35 3.3 1.35 1.95 0 3.35-1.35 1.35-1.4 1.35-3.35 0-1.95-1.35-3.3-1.4-1.4-3.35-1.4z" id="H"/><path fill="#FE8E1A" d="M246.35 857.45q-1.95 0-3.3 1.4-1.35 1.4-1.35 3.35 0 1.95 1.35 3.3 1.35 1.4 3.3 1.4 1.9 0 3.3-1.4t1.4-3.3q0-1.95-1.4-3.35-1.4-1.4-3.3-1.4z" id="I"/><path fill="#FD8118" d="M261.05 855.5q-1.95 0-3.3 1.4-1.4 1.35-1.4 3.3 0 1.95 1.4 3.3 1.35 1.35 3.3 1.35 1.95 0 3.3-1.35 1.35-1.35 1.35-3.3 0-1.95-1.35-3.3-1.35-1.4-3.3-1.4z" id="J"/><path fill="#FEA216" d="M275.45 852.1q-1.9 0-3.3 1.4-1.4 1.35-1.4 3.3 0 1.9 1.4 3.3t3.3 1.4q1.95 0 3.35-1.4 1.4-1.4 1.4-3.3 0-1.95-1.4-3.3-1.4-1.4-3.35-1.4z" id="K"/><path fill="#FEA216" d="M286.1 854.95q1.35 1.35 3.3 1.35 1.9 0 3.3-1.35 1.4-1.4 1.4-3.35 0-1.9-1.4-3.3-1.4-1.35-3.3-1.35-1.95 0-3.3 1.35-1.35 1.4-1.35 3.3 0 1.95 1.35 3.35z" id="L"/><path fill="url(#g)" d="M262.9 876.25q2.45-4.3 4.25-9.1-17 4-36 4-13.7 0-27.05-2.2-1.3-.25-3.95.95-2.6 1.15-3.9.85-2-.4-5.45-3-3.7-2.75-5.2-3.25-6.9-2.2-13.1-5.2-2.55-1.15-5.5-2.95 1.6 5.65 4.25 11.2 10.6 4.8 22.55 7.45 1.25.3 3.75-1.2 2.6-1.5 3.9-1.3 1.45.3 4.55 2.8 3 2.45 4.55 2.65 10.2 1.15 20.6 1.15 16.6 0 31.75-2.85z" id="M"/><path fill="#C2E32E" d="M185 864.3q3.95 6.25 8.6 10.65 7.65 1.9 17.6 3.1-3.9-4.95-6.3-9-10.45-1.7-19.9-4.75z" id="N"/><path fill="#DDF081" d="M201.35 754.5l-3-.6q-2.95 4.55-4.4 7.2 1.5.4 4.65 1 1.4-4.1 2.75-7.6z" id="O"/><path fill="#FEF6B0" d="M198.65 863.65q1.4 1.35 3.3 1.35h.65q-2.1-3.85-3.85-8.1-1.5 1.4-1.5 3.45 0 1.95 1.4 3.3z" id="P"/><path fill="#FDE564" d="M195.9 771.5l1.3-4.9q-1.55 1.4-1.55 3.45 0 .7.25 1.45z" id="Q"/><path fill="#FFF" d="M183.55 782.5l-1.2 3.15 9.95 3.85.55-3.45-9.3-3.55z" id="R"/><path fill="#FFF" d="M177.1 804.6l13.65 5.25q.15-8.05.95-15.35l-10.95-4.2q-2.2 7-3.65 14.3z" id="S"/><path fill="url(#h)" d="M231.15 818.15v.05q-.75 2.5-3.35 9.35-3.5 9.15-3.5 13.5 0 1.85.95 3.4.95 1.55 2.55 2.5 1.55.85 3.35.85 2.8 0 4.8-1.95 2-2 2-4.8 0-3.95-2.7-11.6-3.2-8.2-4.1-11.3m-11.5 21.1l.15-.1q2-2 4.25-6.1 1.5-2.7 3.75-7.65 2.5-5.65 3.35-7.25-1.8 1-3.35 1.7l-8.15 3.7q-6.95 3.35-9.45 5.95-2 2.05-2 4.85t2 4.8q1.95 1.95 4.7 1.95 2.75.05 4.75-1.85m-11.4-27.9q-2.8 0-4.8 2-1.95 2-1.95 4.8t1.95 4.85q2 2 4.8 2 3.85 0 11.4-2.7l11.5-4.15q-2.1-.65-3.35-1.15-5.35-2.05-8.15-2.95-7.55-2.7-11.4-2.7m1.95-4.5q2.65 2.65 9.45 5.95l11.5 5.35q-1.1-2.05-3.35-7.2-4.7-10.45-8-13.75l-.15-.15q-2-1.9-4.75-1.85-2.75.05-4.7 2-2 2-2 4.8 0 2.85 2 4.85m37.1 34.35q2.8 0 4.8-2.05 2.05-2 2.05-4.8t-2.05-4.85q-2.7-2.7-10.4-6.45-3.9-1.75-5.7-2.55-3.2-1.45-4.85-2.35.2.35 4.75 10.15 3.25 6.95 5.8 9.95.25.25.85.9 1.95 2.05 4.75 2.05m11.55-27.85q-2.05-2-4.85-2-4.35 0-12.3 3.05-7.65 2.9-10.55 3.75 2.9.85 10.55 3.8Q249.9 825 254 825q2.8 0 4.85-2 2-2.05 2-4.85t-2-4.8m-6.75-6.5q2.05-2 2.05-4.85 0-2.8-2.05-4.8-2-2-4.8-2t-4.75 2l-.85.9q-2.55 3.05-5.8 9.9-4.7 10.05-4.75 10.15.45-.25 10.55-4.9 7.6-3.6 10.4-6.4m-16.15-16.35q-2-2-4.8-2-1.7 0-3.35.9-1.6.95-2.55 2.5-.95 1.55-.95 3.4 0 4.25 3.5 13.5 2.6 6.85 3.35 9.35 2.65-7.15 4.1-11.3 2.7-7.55 2.7-11.55 0-2.8-2-4.8z" id="T"/><path fill="url(#i)" d="M223.45 825.85q3 3 7.2 3t7.25-3q3-3 3-7.2t-3-7.2q-3.05-3.05-7.25-3.05t-7.2 3.05q-3 3-3 7.2t3 7.2z" id="U"/></defs><use xlink:href="#j"/><use xlink:href="#k" transform="matrix(1.57504 0 0 1.57501 -222.076 -1108.944)"/><use xlink:href="#l" transform="matrix(1.57504 0 0 1.57501 -222.076 -1108.944)"/><use xlink:href="#m" transform="matrix(1.57504 0 0 1.57501 -222.076 -1108.944)"/><use xlink:href="#n" transform="matrix(1.57504 0 0 1.57501 -222.076 -1108.944)"/><use xlink:href="#o" transform="matrix(1.57504 0 0 1.57501 -222.076 -1108.944)"/><use xlink:href="#p" transform="matrix(1.57504 0 0 1.57501 -222.076 -1108.944)"/><use xlink:href="#q" transform="matrix(1.57504 0 0 1.57501 -222.076 -1108.944)"/><use xlink:href="#r" transform="matrix(1.57504 0 0 1.57501 -222.076 -1108.944)"/><use xlink:href="#s" transform="matrix(1.57504 0 0 1.57501 -222.076 -1108.944)"/><use xlink:href="#t" transform="matrix(1.57504 0 0 1.57501 -222.076 -1108.944)"/><use xlink:href="#u" transform="matrix(1.57504 0 0 1.57501 -222.076 -1108.944)"/><use xlink:href="#v" transform="matrix(1.57504 0 0 1.57501 -222.076 -1108.944)"/><use xlink:href="#w" transform="matrix(1.57504 0 0 1.57501 -222.076 -1108.944)"/><use xlink:href="#x" transform="matrix(1.57504 0 0 1.57501 -222.076 -1108.944)"/><use xlink:href="#y" transform="matrix(1.57504 0 0 1.57501 -222.076 -1108.944)"/><use xlink:href="#z" transform="matrix(1.57504 0 0 1.57501 -222.076 -1108.944)"/><use xlink:href="#A" transform="matrix(1.57504 0 0 1.57501 -222.076 -1108.944)"/><use xlink:href="#B" transform="matrix(1.57504 0 0 1.57501 -222.076 -1108.944)"/><use xlink:href="#C" transform="matrix(1.57504 0 0 1.57501 -222.076 -1108.944)"/><use xlink:href="#D" transform="matrix(1.57504 0 0 1.57501 -222.076 -1108.944)"/><use xlink:href="#E" transform="matrix(1.57504 0 0 1.57501 -222.076 -1108.944)"/><use xlink:href="#F" transform="matrix(1.57504 0 0 1.57501 -222.076 -1108.944)"/><use xlink:href="#G" transform="matrix(1.57504 0 0 1.57501 -222.076 -1108.944)"/><use xlink:href="#H" transform="matrix(1.57504 0 0 1.57501 -222.076 -1108.944)"/><use xlink:href="#I" transform="matrix(1.57504 0 0 1.57501 -222.076 -1108.944)"/><use xlink:href="#J" transform="matrix(1.57504 0 0 1.57501 -222.076 -1108.944)"/><use xlink:href="#K" transform="matrix(1.57504 0 0 1.57501 -222.076 -1108.944)"/><use xlink:href="#L" transform="matrix(1.57504 0 0 1.57501 -222.076 -1108.944)"/><use xlink:href="#M" transform="matrix(1.57504 0 0 1.57501 -222.076 -1108.944)"/><use xlink:href="#N" transform="matrix(1.57504 0 0 1.57501 -222.076 -1108.944)"/><use xlink:href="#O" transform="matrix(1.57504 0 0 1.57501 -222.076 -1108.944)"/><use xlink:href="#P" transform="matrix(1.57504 0 0 1.57501 -222.076 -1108.944)"/><use xlink:href="#Q" transform="matrix(1.57504 0 0 1.57501 -222.076 -1108.944)"/><use xlink:href="#R" transform="matrix(1.57504 0 0 1.57501 -222.076 -1108.944)"/><use xlink:href="#S" transform="matrix(1.57504 0 0 1.57501 -222.076 -1108.944)"/><use xlink:href="#T" transform="matrix(1.57504 0 0 1.57501 -222.076 -1108.944)"/><use xlink:href="#U" transform="matrix(1.57504 0 0 1.57501 -222.076 -1108.944)"/></svg>