<svg xmlns="http://www.w3.org/2000/svg" xmlns:xlink="http://www.w3.org/1999/xlink" preserveAspectRatio="none" width="284" height="320"><defs><linearGradient id="a" gradientUnits="userSpaceOnUse" x1="233.2" y1="655.538" x2="233.2" y2="618.962" spreadMethod="pad"><stop offset="0%" stop-color="#FF2A0B"/><stop offset="100%" stop-color="#D52102"/></linearGradient><linearGradient id="b" gradientUnits="userSpaceOnUse" x1="231.2" y1="567.538" x2="231.2" y2="535.163" spreadMethod="pad"><stop offset="0%" stop-color="#FF2A0B"/><stop offset="100%" stop-color="#D52102"/></linearGradient><linearGradient id="c" gradientUnits="userSpaceOnUse" x1="238.8" y1="682.5" x2="238.8" y2="649.9" spreadMethod="pad"><stop offset="0%" stop-color="#FECB16"/><stop offset="100%" stop-color="#FE9016"/></linearGradient><linearGradient id="d" gradientUnits="userSpaceOnUse" x1="241.987" y1="528.1" x2="262.712" y2="565.5" spreadMethod="pad"><stop offset="0%" stop-color="#FECB16"/><stop offset="100%" stop-color="#FE9016"/></linearGradient><linearGradient id="e" gradientUnits="userSpaceOnUse" x1="190.463" y1="595.95" x2="249.638" y2="595.95" spreadMethod="pad"><stop offset="0%" stop-color="#8BB51C"/><stop offset="100%" stop-color="#578016"/></linearGradient><linearGradient id="f" gradientUnits="userSpaceOnUse" x1="269.475" y1="639.1" x2="170.725" y2="639.1" spreadMethod="pad"><stop offset="0%" stop-color="#B41001"/><stop offset="100%" stop-color="#FD330C"/></linearGradient><linearGradient id="g" gradientUnits="userSpaceOnUse" x1="262.462" y1="553.6" x2="184.037" y2="553.6" spreadMethod="pad"><stop offset="0%" stop-color="#B41001"/><stop offset="100%" stop-color="#FD330C"/></linearGradient><linearGradient id="h" gradientUnits="userSpaceOnUse" x1="191.462" y1="525.25" x2="261.438" y2="525.25" spreadMethod="pad"><stop offset="0%" stop-color="#FECB16"/><stop offset="100%" stop-color="#FD6F17"/></linearGradient><linearGradient id="i" gradientUnits="userSpaceOnUse" x1="261.475" y1="540.8" x2="182.925" y2="540.8" spreadMethod="pad"><stop offset="0%" stop-color="#0D2675"/><stop offset="100%" stop-color="#AAB3D5"/></linearGradient><linearGradient id="j" gradientUnits="userSpaceOnUse" x1="178.5" y1="665.95" x2="263.2" y2="665.95" spreadMethod="pad"><stop offset="0%" stop-color="#FECB16"/><stop offset="100%" stop-color="#FD6F17"/></linearGradient><linearGradient id="k" gradientUnits="userSpaceOnUse" x1="266.45" y1="650.25" x2="167.55" y2="650.25" spreadMethod="pad"><stop offset="0%" stop-color="#0D2675"/><stop offset="100%" stop-color="#AAB3D5"/></linearGradient><linearGradient id="l" gradientUnits="userSpaceOnUse" x1="205.475" y1="602.25" x2="263.125" y2="602.25" spreadMethod="pad"><stop offset="0%" stop-color="#FECB16"/><stop offset="100%" stop-color="#FD6F17"/></linearGradient><path fill="#FFF" fill-opacity="0" d="M0 320h284V0H0v320z" id="m"/><path fill="#7CA71A" d="M223.45 541.45q-1.7-1.4-5.25-6.4-2.35-3.2-4.15-2.7-2.45.65-6.7 7.5-12.15 19.55-9.6 51.5 1.85 23.85 11.75 53.25 2.1 6.25 3.25 13.15.7 4.45 1.75 5.2 1.2.9 6.85.65 12.15-.55 18.5-.55h22.65q10.05-.2 15.35-1.8 6.25-1.85 10.1-6.5 3.9-4.7 6.85-14 6.8-21.35 2.75-48.2-3.8-25.55-15.85-47.45-4.35-7.8-10-9.5-4.45-1.35-11.25 1.05-8.2 3.5-12.7 5.25-8.05 3.15-14.2 3.15-5.95 0-10.1-3.6z" id="n"/><path fill="url(#a)" d="M295.7 637.8l-8.45-16.8-12.65 25.5-9.4-18.65q-4 8.15-12.15 24.4-4.35-8.5-10.65-21.3l-11.6 23.1-11.5-23.1-10.65 21.25-12.2-24.5-9.3 18.6-12.7-25.5-3.75 14.75q1 3.9 1.95 6.4 27.75 15.4 59.8 15.4 18.05 0 33.85-3.35 15.05-3.15 27-9.1 1.3-3.55 2.4-7.1z" id="o"/><path fill="url(#b)" d="M180.5 545.4l9.4 19 9.3-18.5 11.25 22.4q5.8-11.75 10.05-20.15l10.75 21.45q4.1-8.4 10.7-21.45 4.15 8.4 10.1 20.15l11.2-22.45 9.25 18.5 9.4-18.8q-1.6-3.05-5-8.4-21.2 6.75-46.55 6.75-24.65 0-45.2-6.35-1.65 2.55-4.65 7.85z" id="p"/><path fill="url(#c)" d="M292.35 647.45l-37.65 10-51.1-1.6-18.35-5.6q4.2 10.05 11.25 16.85 2.1 2 6.8 6.3 4.55 4.25 8.3 8.65 8.85 2.1 19.65 2.1 23.4 0 39.35-10.3 14.45-9.3 21.75-26.4z" id="q"/><path fill="url(#d)" d="M231.25 506.45q-6.45 0-12.9 2.25-4.2 1.5-4.15 4.55.05 1.85 2.45 6.75 2.6 5.35 3.1 8.55.8 5.25-2.2 9.8 6.35 1.7 6.75 3.75.2 1 9.15 1 23.6 0 44.25-4.8-9.55-14.75-21.1-23-12.4-8.85-25.35-8.85z" id="r"/><path fill="#5874B3" d="M231.15 539.8q-13.45 0-17.7-.4-6.45-.6-15.2-3.2-2.1 2.95-4.6 6.9 9.9 3.15 17.35 4 5.95.7 20.15.7 25.95 0 48.05-7-1.75-2.9-4.6-7-19.65 6-43.45 6z" id="s"/><path fill="#5874B3" d="M295.3 638.85q-2.15 1.4-5.55 3.05-10.3 5.05-23.5 8.05l-4.25 9q16.15-2.95 29.05-8.85 2.75-5.65 4.25-11.25z" id="t"/><path fill="url(#e)" d="M238.3 534.4q-5.95-8.5-8.05-9.6-3.3-1.75-12.35 1-4.05 1.25-9.85 1.8-7.45.65-8.75.9-9.6 1.75-15.5 11.2-14.05 22.65-18.7 50.6-4.85 29.4 3.05 52.25 4.35 12.75 19.35 18.15 5.55 2 15.05 3.9 5.45 1.05 17.25 3.3l-5.9-5.4q7.6.5 19.2 1.5 8.7.55 13.25-.3 5.45-1.05 8.95-4.65 3.6-3.75 6.4-11.6.45-1.3 4.3-3.6 3.75-2.2 4.1-3.75 5.1-20.9 3-47.7-2.15-26.9-10.7-48.35-1.5-3.7-11.75-5.45-10.7-1.85-12.35-4.2z" id="u"/><path fill="url(#f)" d="M270.5 638.35l-5.3-10.5q-4 8.15-12.15 24.4-4.35-8.5-10.65-21.3l-11.6 23.1-11.5-23.1-10.65 21.25-12.2-24.5-9.3 18.6-12.7-25.5-8 16.05.2.85v.1q.65 2.4 1.75 5.45 12 6.6 28.35 10.3 16.9 3.8 35.7 3.8 17.15 0 32.85-3.25 1.5-3.15 2.3-5.65 1.65-4.4 2.9-10.1z" id="v"/><path fill="url(#g)" d="M180.5 545.5l9.4 18.9 9.3-18.5 11.25 22.4q5.8-11.75 10.05-20.15l10.75 21.45q4.1-8.4 10.7-21.45 4.15 8.4 10.1 20.15l11.1-22.25-1.95-4.95q-14.95 2.8-30.85 2.8-24.5 0-45.2-6.35-2 3.1-4.65 7.95z" id="w"/><path fill="#C2E32E" d="M196 553.65q5.25-20.2 13.8-32.65-18.7 22.7-27.75 48.2-8.7 24.55-6.8 46.75 1.95 22.45 14.4 37.4 13.15 15.8 35.75 20.15-17.5-11.95-26.4-33.55-7.8-19-8.2-43.3-.35-21.8 5.2-43z" id="x"/><path fill="#FB854B" d="M207.4 655.55q-7.85-11.5-11.95-25.85l-8.3 16.6-10.55-21.2q3.15 15.35 11.45 26.15 8.95 2.7 19.35 4.3z" id="y"/><path fill="url(#h)" d="M238.55 511.55q-9.75-6.1-18.6-3.35-9.6 2.95-18.65 10.65-8.6 7.4-15.85 18.4 21.6 5.85 48 5.85 14.2 0 27.9-1.8-3.95-9.05-8.6-15.75-6.3-9.05-14.2-14z" id="z"/><path fill="#FEEA7C" d="M196.4 539.8l3.75.65q4.35-11.7 9.7-19.45-7.25 8.75-13.45 18.8z" id="A"/><path fill="#FB854B" d="M199.85 541.15l-3.9-.8q-5.3 8.8-9.3 17.45l3.25 6.6 6.85-13.65q1.35-4.7 3.1-9.6z" id="B"/><path fill="url(#i)" d="M187.75 533.8q-2.25 3.2-4.6 7 5.3 1.7 10.85 2.95.4.1 2.2-1.95 1.75-2 2.15-1.95.35.1.05 2.45t.1 2.4q15.75 3.1 32.65 3.1 16.2 0 31.55-2.9-1.4-3.65-3.25-7.5-14 2.4-28.3 2.4-15.45 0-29.85-2.65-.25-.05-1.3 1.05-1.1 1.05-1.3 1-.25-.1-.15-1.35.15-1.3-.05-1.3-6.6-1.4-10.75-2.75z" id="C"/><path fill="url(#j)" d="M263 658.65q.35-.65-3.8-1.75-3.929-1.076-3.9-1.8l-.6 2.35-51.1-1.6-20.15-5.6q.15.4-6.25-.4-6.45-.8-6.25-.35 5.95 12.65 16.05 20.85 10.9 8.8 26.15 12l.3.05q34.5 2.4 49.55-23.75z" id="D"/><path fill="#FEEA7C" d="M225.5 673.5q-10.3-7-17.75-17.5l-4.15-.15-15-3.95q13.2 17.1 36.9 21.6z" id="E"/><path fill="url(#k)" d="M262.9 658.8q2.35-4.05 4.25-9.05-17.15 3.95-36 3.95-13.65 0-26.65-2.1-.25.1-4.3 1.95-2.65 1.2-4.45.8-1.8-.4-5.4-3.6-3.75-3.35-5.2-3.8-6.35-2-12.65-5.05-2.9-1.4-5.5-3.05 1.6 5.7 4.25 11.25 10.2 4.6 22.4 7.5 1.45.35 3.5-1.8 2.05-2.2 3.5-1.95 1.75.25 5.5 2.9 2 1.45 4.95 3.8 9.9 1.15 20.05 1.15 16.7 0 31.75-2.9z" id="F"/><path fill="#C5CBE2" d="M185 646.85q3.85 6.15 8.5 10.65 9.1 2.1 17.7 3.1-3.7-4.6-6.3-9-10.45-1.7-19.9-4.75z" id="G"/><path fill="#FFF" d="M183.5 565.35l-1.25 3.25 10.05 3.9q.35-2.8.5-3.55l-9.3-3.6z" id="H"/><path fill="#FFF" d="M180.7 573.2q-2.35 7.45-3.7 14.3l13.75 5.35q.15-7.85.9-15.4l-10.95-4.25z" id="I"/><path fill="#C5CBE2" d="M201.35 537.15l-3-.6q-2.65 4-4.4 7.2l4.65 1q1.55-4.6 2.75-7.6z" id="J"/><path fill="url(#l)" d="M202.45 579.7q-3.8 1.95-1.65 9.75 1.45 5.2 4.5 10.6 3.05 5.45 5.55 7.15 3.1 2 6.55 1.7-3.8 3.25-4.75 5.5-1.5 3.75 1.1 7.1 2.45 3.1 6.4 3.8 5.2.95 8.2-4.15 2.25-3.85 2.75-9.65l.05-2q0 1.3.1 2 .5 5.85 2.7 9.65 3 5.1 8.25 4.15 4-.7 6.4-3.8 2.6-3.35 1.05-7.1-.8-2.15-4.75-5.5 3.5.3 6.5-1.7 2.55-1.7 5.6-7.15 3.05-5.35 4.5-10.6 2.1-7.8-1.65-9.75-2.95-1.6-9.95.55-8.1 2.5-12.8 6.8-6.35 5.75-3.4 12.85.2.6-.95 2.8-1.15 2.3-1 2.95-.563 1.313-.6 3.4-.06-3.5-1.55-4.75l.35-.45q.35-.5-.55-1.95-.95-1.45-.75-2 2.95-7.1-3.35-12.85-4.75-4.3-12.85-6.8-7-2.15-10-.55z" id="K"/><path fill="#FFF" d="M222.25 574.6q-4.55-2.8-10.15-3-.7 0-.8.75 0 .6.8.8 5.15.15 9.4 2.7 4.4 2.65 6.7 7.2.95 1.8 1.45 3.9.6 1.85.7 4.45v.1q.2.7.8.7.35-.05.55-.3.25-.25.2-.5v-.05q-.1-2.05-.75-4.85-.55-2-1.65-4.15-2.55-4.95-7.25-7.75z" id="L"/><path fill="#FEF6B0" d="M231.9 591.5v-.1q.25-2.8.7-4.45.55-2.15 1.5-3.9 2.35-4.55 6.75-7.2 4.25-2.55 9.4-2.7.7-.15.7-.8 0-.75-.8-.75-5.55.2-10.1 3-4.75 2.85-7.3 7.75-.75 1.5-1.6 4.15-.55 2.25-.8 4.85v.05q0 .7.75.8.3 0 .55-.2.25-.25.25-.5z" id="M"/><path fill="#FFF" d="M228.65 610.65q1.05 3.35 2.5 3.35t2.45-3.35q1-3.35 1-8.1 0-4.8-1-8.1t-2.45-3.3q-1.45 0-2.5 3.3-1 3.3-1 8.1 0 4.75 1 8.1z" id="N"/></defs><use xlink:href="#m"/><use xlink:href="#n" transform="translate(-219.58 -758.468) scale(1.56465)"/><use xlink:href="#o" transform="translate(-219.58 -758.468) scale(1.56465)"/><use xlink:href="#p" transform="translate(-219.58 -758.468) scale(1.56465)"/><use xlink:href="#q" transform="translate(-219.58 -758.468) scale(1.56465)"/><use xlink:href="#r" transform="translate(-219.58 -758.468) scale(1.56465)"/><use xlink:href="#s" transform="translate(-219.58 -758.468) scale(1.56465)"/><use xlink:href="#t" transform="translate(-219.58 -758.468) scale(1.56465)"/><use xlink:href="#u" transform="translate(-219.58 -758.468) scale(1.56465)"/><use xlink:href="#v" transform="translate(-219.58 -758.468) scale(1.56465)"/><use xlink:href="#w" transform="translate(-219.58 -758.468) scale(1.56465)"/><use xlink:href="#x" transform="translate(-219.58 -758.468) scale(1.56465)"/><use xlink:href="#y" transform="translate(-219.58 -758.468) scale(1.56465)"/><use xlink:href="#z" transform="translate(-219.58 -758.468) scale(1.56465)"/><use xlink:href="#A" transform="translate(-219.58 -758.468) scale(1.56465)"/><use xlink:href="#B" transform="translate(-219.58 -758.468) scale(1.56465)"/><use xlink:href="#C" transform="translate(-219.58 -758.468) scale(1.56465)"/><use xlink:href="#D" transform="translate(-219.58 -758.468) scale(1.56465)"/><use xlink:href="#E" transform="translate(-219.58 -758.468) scale(1.56465)"/><use xlink:href="#F" transform="translate(-219.58 -758.468) scale(1.56465)"/><use xlink:href="#G" transform="translate(-219.58 -758.468) scale(1.56465)"/><use xlink:href="#H" transform="translate(-219.58 -758.468) scale(1.56465)"/><use xlink:href="#I" transform="translate(-219.58 -758.468) scale(1.56465)"/><use xlink:href="#J" transform="translate(-219.58 -758.468) scale(1.56465)"/><use xlink:href="#K" transform="translate(-219.58 -758.468) scale(1.56465)"/><use xlink:href="#L" transform="translate(-219.58 -758.468) scale(1.56465)"/><use xlink:href="#M" transform="translate(-219.58 -758.468) scale(1.56465)"/><use xlink:href="#N" transform="translate(-219.58 -758.468) scale(1.56465)"/></svg>