<svg xmlns="http://www.w3.org/2000/svg" xmlns:xlink="http://www.w3.org/1999/xlink" preserveAspectRatio="none" width="284" height="320"><defs><linearGradient id="a" gradientUnits="userSpaceOnUse" x1="610.7" y1="664.537" x2="610.7" y2="548.063" spreadMethod="pad"><stop offset="0%" stop-color="#FECB16"/><stop offset="100%" stop-color="#FE9016"/></linearGradient><linearGradient id="b" gradientUnits="userSpaceOnUse" x1="543.475" y1="593.55" x2="646.525" y2="593.55" spreadMethod="pad"><stop offset="0%" stop-color="#FECB16"/><stop offset="100%" stop-color="#FD6F17"/></linearGradient><linearGradient id="c" gradientUnits="userSpaceOnUse" x1="571.25" y1="654.5" x2="571.25" y2="542.4" spreadMethod="pad"><stop offset="0%" stop-color="#FDE564"/><stop offset="100%" stop-color="#FEFECC"/></linearGradient><linearGradient id="d" gradientUnits="userSpaceOnUse" x1="564.475" y1="664.85" x2="614.425" y2="664.85" spreadMethod="pad"><stop offset="0%" stop-color="#8BB51C"/><stop offset="100%" stop-color="#578016"/></linearGradient><linearGradient id="e" gradientUnits="userSpaceOnUse" x1="574.5" y1="525.25" x2="614.4" y2="525.25" spreadMethod="pad"><stop offset="0%" stop-color="#8BB51C"/><stop offset="100%" stop-color="#578016"/></linearGradient><linearGradient id="f" gradientUnits="userSpaceOnUse" x1="630.5" y1="540.8" x2="557.3" y2="540.8" spreadMethod="pad"><stop offset="0%" stop-color="#0D2675"/><stop offset="100%" stop-color="#AAB3D5"/></linearGradient><linearGradient id="g" gradientUnits="userSpaceOnUse" x1="634.45" y1="650.25" x2="528.25" y2="650.25" spreadMethod="pad"><stop offset="0%" stop-color="#0D2675"/><stop offset="100%" stop-color="#AAB3D5"/></linearGradient><linearGradient id="h" gradientUnits="userSpaceOnUse" x1="580.462" y1="593.4" x2="638.038" y2="593.4" spreadMethod="pad"><stop offset="0%" stop-color="#FFF"/><stop offset="100%" stop-color="#FEF6B0"/></linearGradient><linearGradient id="i" gradientUnits="userSpaceOnUse" x1="618.462" y1="604.1" x2="592.637" y2="604.1" spreadMethod="pad"><stop offset="0%" stop-color="#FDE564"/><stop offset="100%" stop-color="#FEFECC"/></linearGradient><linearGradient id="j" gradientUnits="userSpaceOnUse" x1="573.5" y1="576.763" x2="575" y2="576.737" spreadMethod="pad"><stop offset="0%" stop-color="#A50B01"/><stop offset="100%" stop-color="#7E0100"/></linearGradient><path fill="#FFF" fill-opacity="0" d="M0 320h284V0H0v320z" id="k"/><path fill="url(#a)" d="M668.8 593.55q-4.1-29.35-18.8-53.2-.35-.5-16.85 2-16.55 2.5-16.85 2.05-4-6.15-4.15-5.55-.15.45 1.3 5.75 3 14.05-7 14.05-1.65 0-3.8 2.15-2.4 2.35-3.8 2.7-20.85 5.15-34 19-12.75 13.4-13.5 29.6-.75 17.05 12.35 30.7 14.65 15.2 43.45 22.2 3.4.85-7.95 3-9.9 1.9-6.95 1.9 30.85 0 44.4-3.15 20.6-4.8 26.75-19.3 9.75-22.95 5.4-53.9z" id="l"/><path fill="#7CA71A" d="M567.5 667.1q2.1 2 6.8 6.3 4.55 4.25 8.3 8.65 8.85 2.1 19.65 2.1 23.45 0 39.35-10.3 14.45-9.3 21.8-26.4l-37.7 10-51-1.6-18.45-5.6q4.2 10.05 11.25 16.85z" id="m"/><path fill="#7CA71A" d="M602.25 506.45q-6.4 0-12.9 2.25-4.2 1.5-4.1 4.55.05 1.85 2.45 6.75 2.55 5.35 3.05 8.55.8 5.25-2.2 9.8 6.3 1.7 6.75 3.75.2 1 9.2 1 23.55 0 44.2-4.8-9.55-14.75-21.1-23-12.4-8.85-25.35-8.85z" id="n"/><path fill="#5874B3" d="M645.65 533.8q-7.6 2.3-15.75 3.7l3 7.6q9.3-1.75 17.35-4.3-2.35-3.8-4.6-7z" id="o"/><path fill="#5874B3" d="M666.5 638.85q-2.4 1.45-5.65 3.05-11.45 5.55-26.3 8.6-15.45 3.2-32.3 3.2-16.85 0-32.35-3.2-14.85-3.05-26.35-8.6-3.45-1.75-5.5-3.05 1.85 6.25 4.2 11.25 12.1 5.5 27.25 8.5 15.75 3.1 32.75 3.1t32.7-3.1q15.15-3 27.2-8.5 2.4-5 4.35-11.25z" id="p"/><path fill="url(#b)" d="M554.6 540.15q-13.4 21.75-18.15 48.6-4.95 28.05 1.7 50.6 32.5 24.75 63.8 20.85 9.2-1.1 21.35-5.4 11.65-4.1 14.65-4.35.15-.35.75-2 7.35-20.5 5.85-50.45-1.5-29.65-10.9-53.55-1.5-3.8-13.7-5.8-6.85-1.15-8.85-1.65-4.35-1.1-5.6-2.9-2.3-3.3-2.3-5.6-.023-.721.15-1.25-1.347.834-5.3 2.05-4.25 1.3-11.3 1.3-8.05-.25-12-.15-14.35.35-20.15 9.7z" id="q"/><path fill="#FD4810" d="M571.45 548q-1.95 0-3.3 1.4-1.4 1.35-1.4 3.3 0 1.9 1.4 3.3 1.35 1.35 3.3 1.35 1.95 0 3.3-1.35 1.35-1.4 1.35-3.3 0-1.95-1.35-3.3-1.35-1.4-3.3-1.4z" id="r"/><path fill="#FD4810" d="M586.5 550.1q-1.95 0-3.35 1.4-1.4 1.35-1.4 3.25 0 1.95 1.4 3.35 1.4 1.35 3.35 1.35 1.9 0 3.25-1.35 1.4-1.4 1.4-3.35 0-1.85-1.4-3.25-1.35-1.4-3.25-1.4z" id="s"/><path fill="#FD4810" d="M601.6 550.8q-1.95 0-3.3 1.4-1.4 1.4-1.4 3.3 0 1.95 1.4 3.3 1.35 1.35 3.3 1.35 1.95 0 3.35-1.35 1.35-1.35 1.35-3.3 0-1.9-1.35-3.3-1.4-1.4-3.35-1.4z" id="t"/><path fill="#FD4810" d="M616.8 550.25q-1.95 0-3.3 1.35-1.4 1.35-1.4 3.3 0 1.95 1.4 3.35 1.35 1.35 3.3 1.35 1.9 0 3.3-1.35 1.4-1.4 1.4-3.35 0-1.95-1.4-3.3-1.4-1.35-3.3-1.35z" id="u"/><path fill="#FD4810" d="M631.85 548.3q-1.95 0-3.35 1.35-1.4 1.35-1.4 3.3 0 1.9 1.4 3.3t3.35 1.4q1.9 0 3.25-1.4 1.4-1.4 1.4-3.3 0-1.95-1.4-3.3-1.35-1.35-3.25-1.35z" id="v"/><path fill="url(#c)" d="M567.05 553.65q5.25-20.2 13.8-32.65-18.65 22.7-27.7 48.2-8.7 24.55-6.8 46.75 1.95 22.45 14.4 37.4 13.15 15.8 35.75 20.15-17.5-11.95-26.4-33.55-7.85-19-8.2-43.3-.35-21.8 5.15-43z" id="w"/><path fill="url(#d)" d="M584.2 682.35l.25.05q18.05 1.25 30.9-5.35 11.6-6.05 18.65-18.3.4-.7-1.15-2.2-1.6-1.55-1.3-2.2l-5.85 3.1-51-1.6-33.7-8.8q5.7 13.6 16 22.45 11.2 9.55 27.2 12.85z" id="x"/><path fill="#C2E32E" d="M596.5 673.5q-10.2-6.9-17.7-17.5l-4.1-.15-15.05-3.95q13.2 17.1 36.85 21.6z" id="y"/><path fill="url(#e)" d="M621.75 542.3q-.2-.6 4.6-2.15 4.8-1.55 4.55-2.1-3.1-6.6-7.1-12.5-6.4-9.05-14.25-14-9.75-6.1-18.6-3.35-9.6 2.95-18.6 10.65-8.6 7.4-15.9 18.4 9.85 2.65 24 4.3 13.2 1.55 24.05 1.55 6.9 0 10.55.05.6-.05 6.7-.85z" id="z"/><path fill="#DDF081" d="M571.2 540.45q4.6-12.1 9.65-19.45-7.45 9.1-13.45 18.8l3.8.65z" id="A"/><path fill="url(#f)" d="M558.85 533.8q-2.25 3.2-4.6 7 5.3 1.7 10.85 2.95.35.1 1.95-1.2 1.55-1.3 1.95-1.25.35.1.25 1.7-.15 1.65.25 1.7 15.75 3.1 32.75 3.1 16.2 0 31.55-2.9-1.4-3.65-3.25-7.5-14.1 2.4-28.3 2.4-15.45 0-29.8-2.65l-2.4 2-.5-2.6q-6.25-1.35-10.7-2.75z" id="B"/><path fill="#FD4810" d="M573 638.2q-1.9 0-3.25 1.4-1.4 1.35-1.4 3.3 0 1.95 1.4 3.3 1.35 1.35 3.25 1.35 1.95 0 3.35-1.35 1.35-1.35 1.35-3.3 0-1.95-1.35-3.3-1.4-1.4-3.35-1.4z" id="C"/><path fill="#FD4810" d="M553.4 552.4q1.35 1.35 3.3 1.35 1.9 0 3.3-1.35 1.35-1.4 1.35-3.3 0-1.95-1.35-3.3-1.4-1.4-3.3-1.4-1.95 0-3.3 1.4-1.4 1.35-1.4 3.3 0 1.9 1.4 3.3z" id="D"/><path fill="#FD4810" d="M651.3 549.45q0-1.95-1.4-3.3-1.4-1.4-3.3-1.4-1.95 0-3.3 1.4-1.4 1.35-1.4 3.3 0 1.95 1.4 3.3 1.35 1.35 3.3 1.35 1.9 0 3.3-1.35t1.4-3.3z" id="E"/><path fill="#FD4810" d="M541.35 637.8q1.35 1.35 3.3 1.35 1.95 0 3.35-1.35 1.35-1.4 1.35-3.35 0-1.9-1.35-3.3-1.4-1.35-3.35-1.35-1.95 0-3.3 1.35-1.4 1.4-1.4 3.3 0 1.95 1.4 3.35z" id="F"/><path fill="#FCA54E" d="M558.6 634.85q-1.9 0-3.3 1.35-1.35 1.35-1.35 3.3 0 1.95 1.35 3.35 1.4 1.35 3.3 1.35t3.3-1.35q1.4-1.4 1.4-3.35 0-1.95-1.4-3.3-1.35-1.35-3.3-1.35z" id="G"/><path fill="#FD4810" d="M587.8 640.1q-1.95 0-3.3 1.35-1.4 1.35-1.4 3.3 0 1.95 1.4 3.35 1.35 1.35 3.3 1.35 1.9 0 3.3-1.35 1.35-1.4 1.35-3.35 0-1.95-1.35-3.3-1.4-1.35-3.3-1.35z" id="H"/><path fill="#FD4810" d="M602.6 640.75q-1.95 0-3.3 1.35-1.35 1.35-1.35 3.3 0 1.95 1.35 3.35 1.35 1.35 3.3 1.35 1.95 0 3.35-1.35 1.35-1.4 1.35-3.35 0-1.95-1.35-3.3-1.4-1.35-3.35-1.35z" id="I"/><path fill="#FD4810" d="M617.45 640q-1.95 0-3.3 1.4-1.4 1.4-1.4 3.3 0 1.95 1.4 3.3 1.35 1.35 3.3 1.35 1.9 0 3.25-1.35 1.4-1.35 1.4-3.3 0-1.9-1.4-3.3-1.35-1.4-3.25-1.4z" id="J"/><path fill="#FD4810" d="M632.15 638.05q-1.95 0-3.3 1.4-1.4 1.35-1.4 3.3 0 1.95 1.4 3.35 1.35 1.35 3.3 1.35 1.9 0 3.3-1.35 1.35-1.4 1.35-3.35 0-1.95-1.35-3.3-1.4-1.4-3.3-1.4z" id="K"/><path fill="#FD4810" d="M649.9 642.65q1.4-1.4 1.4-3.35 0-1.9-1.4-3.3-1.45-1.4-3.35-1.4-1.9 0-3.3 1.4t-1.4 3.3q0 1.95 1.4 3.35 1.4 1.4 3.3 1.4t3.35-1.4z" id="L"/><path fill="#FD4810" d="M657.2 637.5q1.35 1.35 3.3 1.35 1.9 0 3.3-1.35 1.4-1.4 1.4-3.3 0-1.95-1.4-3.3-1.4-1.4-3.3-1.4-1.95 0-3.3 1.4-1.4 1.35-1.4 3.3 0 1.9 1.4 3.3z" id="M"/><path fill="url(#g)" d="M602.25 653.7q-13.5 0-27.05-2.15-1.35-.25-4 .9-2.6 1.2-3.85.9-2-.45-5.45-3.05-3.7-2.75-5.2-3.25-7.3-2.3-13.15-5.15-2.9-1.45-5.45-3.05 1.7 6.05 4.25 11.25 10.05 4.55 22.55 7.5 1.25.3 3.75-1.2 2.55-1.55 3.85-1.35 1.45.3 4.55 2.8 3 2.4 4.6 2.6 10.4 1.25 20.6 1.25 16.7 0 31.75-2.9 2.35-4.05 4.25-9.05-17.15 3.95-36 3.95z" id="N"/><path fill="#B3B1D5" d="M582.3 660.6q-3.65-4.5-6.35-9-10.6-1.7-19.85-4.75 3.9 6.2 8.55 10.65 9 2.1 17.65 3.1z" id="O"/><path fill="#E5E6F1" d="M572.45 537.15q-.3-.1-3.05-.6-2.8 4.4-4.35 7.2l4.65 1q1.1-3.45 2.75-7.6z" id="P"/><path fill="#FCA54E" d="M569.85 639.45q-1.5 1.35-1.5 3.45 0 1.95 1.4 3.3 1.35 1.35 3.25 1.35l.65-.05q-1.8-3.3-3.8-8.05z" id="Q"/><path fill="#FCA54E" d="M566.75 552.7q0 .4.2 1.4l1.3-4.9q-1.5 1.5-1.5 3.5z" id="R"/><path fill="#FFF" d="M554.65 565.05l-1.2 3.25 9.9 3.8.6-3.45-9.3-3.6z" id="S"/><path fill="#FFF" d="M551.85 572.9q-2.4 7.7-3.65 14.25l13.65 5.35q.15-8.75.95-15.35l-10.95-4.25z" id="T"/><path fill="#FF3803" d="M610.15 632q.35-.6-.2-1.3-.55-.7-1.8-1-3.75-.7-3-4.25 1.7-4.4 1.65-6.55 0-.95-.6-1.7-.55-.65-1.35-.8-1-.15-1.65.7-.75.95-.6 3.1.45 3.9.4 4.4-.3 2.65-3.2 2.1-3.75-.8-6.35-1.8-1.6-.6-2.1 1t.95 1.95q1.2.4 1.15.85-.05.45-1.3.65-1.85.25-1.45 2 .4 1.75 2.7 1.05.75-.3 1 .2.2.5-.55 1-1.5.85-.5 2.3.95 1.35 2.55 0 .95-.85 2.75-2 1.95-1.25 2.15-1.4 1.95-1.45 3.25-1.4.65 0 2.5.9 2.9 1.5 3.6 0z" id="U"/><path fill="#FD4810" d="M582.15 584.2q-.2-.8-2.1-2.55-1.9-1.8-2.15-2.55-1.75-.1-3.55.8-1.6.8-2.7 2.1-1 1.1-.55 1.5.3.35 1.2.05 1.9-.65 5.05-.55 3.45.15 4.8 1.2z" id="V"/><path fill="#E22A05" d="M578.1 575.55q-.4-2.5-.45-3.7-2.6 3.9-8.8 4.1-1.25 0-1.55.6-.4.7 1.4 1.75 2.1 1.2 4.65 1.55 2.85.35 5.2-.6-.05-1.1-.45-3.7z" id="W"/><path fill="url(#h)" d="M600.8 581.9q.45-8.4-3.1-13.75-3.7-5.5-9.8-4.9-4.5.4-7.55 3.3-2.85 2.65-3.55 6.5-.7 3.9 1.2 7.35 2.05 3.7 6.6 5.6-7.6 10.5-5.4 21.35 2.4 11.6 15.15 15 6.15 1.65 13.9 1.15 13.35-.6 20.75-7.05 9.15-8 10.1-25.6.2-3.7-.6-3.45-.55.2-2.7 3.3-1.6 2.3-3.55 2.7-1.8.4-4.15-.7-3.85-1.85-8.75-2.45-4.9-.55-9.7.25-4.6.75-6.65-.85-2.45-1.9-2.2-7.75z" id="X"/><path fill="#5764A0" d="M581.75 575q.65.65 1.55.65.95 0 1.6-.65.7-.65.7-1.6 0-.9-.7-1.55-.65-.65-1.6-.65-.9 0-1.55.65t-.65 1.55q0 .95.65 1.6z" id="Y"/><path fill="#FFF" d="M582.25 573.65q.25.25.55.25.9 0 .9-.85t-.9-.85q-.3 0-.55.25-.3.25-.3.6t.3.6z" id="Z"/><path fill="url(#i)" d="M620.1 593.25q-.8-.8-2.1-.2-4.15 1.85-4.8 2.05-3.3 1-6.15.85-3.3-.1-6.6-1.75-5.1-2.55-8.2 1.7-3 4.15-.45 9 3.55 6.85 11.75 9.4 7.55 2.3 14.7-.05 2.55-.85 3.85-1.55 1.8-.9 3.35-2.3 2.1-1.75 1.15-3.35-1-1.5-4.25.05-4.95 2.25-7.95 2.4 5-1.8 6.85-2.6 2.05-.95 3.7-2.25 1.35-1.05 1.65-2.15.25-.95-.35-1.65-1.05-1.15-3.1.05-4.8 2.9-9.1 2.9 6.45-1.6 8.95-4.05 1.75-1.7.85-3.2-.9-1.5-2.65-.65-2.6 1.25-3.95 1.75-2.2.85-4.15 1.1.9-.35 3.75-1.4 2.5-1.05 3.25-2.1.85-1.25 0-2z" id="aa"/><path fill="#DA2207" d="M612.4 617.6q-1-.1-1.6.75-.75 1-.55 3.1.1 1.1.3 4.35-.3 2.65-3.2 2.1-2.8-.5-6.3-1.8-1.65-.6-2.15 1-.45 1.55 1 1.95 1.15.4 1.15.85-.05.5-1.3.7-1.85.2-1.45 1.95.35 1.75 2.65 1 .75-.25 1 .3.2.5-.55 1-1.45.85-.45 2.25.95 1.35 2.55-.05.95-.8 2.8-1.95 1.85-1.2 2.05-1.35 1.95-1.55 3.3-1.5.7.05 2.5 1 1.5.8 2.5.7.85-.1 1.1-.7.3-.65-.2-1.3-.6-.75-1.85-1-3.75-.7-2.95-4.25 1.7-4.4 1.6-6.55 0-1.05-.6-1.75-.55-.7-1.35-.8z" id="ab"/><path fill="url(#j)" d="M572.3 576.8q0 .55 1.35.55 1.3 0 1.3-.55 0-.25-.35-.45-.4-.2-.95-.2-.55 0-.95.2-.4.2-.4.45z" id="ac"/></defs><use xlink:href="#k"/><use xlink:href="#l" transform="matrix(1.54237 0 0 1.54237 -786.867 -744.185)"/><use xlink:href="#m" transform="matrix(1.54237 0 0 1.54237 -786.867 -744.185)"/><use xlink:href="#n" transform="matrix(1.54237 0 0 1.54237 -786.867 -744.185)"/><use xlink:href="#o" transform="matrix(1.54237 0 0 1.54237 -786.867 -744.185)"/><use xlink:href="#p" transform="matrix(1.54237 0 0 1.54237 -786.867 -744.185)"/><use xlink:href="#q" transform="matrix(1.54237 0 0 1.54237 -786.867 -744.185)"/><use xlink:href="#r" transform="matrix(1.54237 0 0 1.54237 -786.867 -744.185)"/><use xlink:href="#s" transform="matrix(1.54237 0 0 1.54237 -786.867 -744.185)"/><use xlink:href="#t" transform="matrix(1.54237 0 0 1.54237 -786.867 -744.185)"/><use xlink:href="#u" transform="matrix(1.54237 0 0 1.54237 -786.867 -744.185)"/><use xlink:href="#v" transform="matrix(1.54237 0 0 1.54237 -786.867 -744.185)"/><use xlink:href="#w" transform="matrix(1.54237 0 0 1.54237 -786.867 -744.185)"/><use xlink:href="#x" transform="matrix(1.54237 0 0 1.54237 -786.867 -744.185)"/><use xlink:href="#y" transform="matrix(1.54237 0 0 1.54237 -786.867 -744.185)"/><use xlink:href="#z" transform="matrix(1.54237 0 0 1.54237 -786.867 -744.185)"/><use xlink:href="#A" transform="matrix(1.54237 0 0 1.54237 -786.867 -744.185)"/><use xlink:href="#B" transform="matrix(1.54237 0 0 1.54237 -786.867 -744.185)"/><use xlink:href="#C" transform="matrix(1.54237 0 0 1.54237 -786.867 -744.185)"/><use xlink:href="#D" transform="matrix(1.54237 0 0 1.54237 -786.867 -744.185)"/><use xlink:href="#E" transform="matrix(1.54237 0 0 1.54237 -786.867 -744.185)"/><use xlink:href="#F" transform="matrix(1.54237 0 0 1.54237 -786.867 -744.185)"/><use xlink:href="#G" transform="matrix(1.54237 0 0 1.54237 -786.867 -744.185)"/><use xlink:href="#H" transform="matrix(1.54237 0 0 1.54237 -786.867 -744.185)"/><use xlink:href="#I" transform="matrix(1.54237 0 0 1.54237 -786.867 -744.185)"/><use xlink:href="#J" transform="matrix(1.54237 0 0 1.54237 -786.867 -744.185)"/><use xlink:href="#K" transform="matrix(1.54237 0 0 1.54237 -786.867 -744.185)"/><use xlink:href="#L" transform="matrix(1.54237 0 0 1.54237 -786.867 -744.185)"/><use xlink:href="#M" transform="matrix(1.54237 0 0 1.54237 -786.867 -744.185)"/><use xlink:href="#N" transform="matrix(1.54237 0 0 1.54237 -786.867 -744.185)"/><use xlink:href="#O" transform="matrix(1.54237 0 0 1.54237 -786.867 -744.185)"/><use xlink:href="#P" transform="matrix(1.54237 0 0 1.54237 -786.867 -744.185)"/><use xlink:href="#Q" transform="matrix(1.54237 0 0 1.54237 -786.867 -744.185)"/><use xlink:href="#R" transform="matrix(1.54237 0 0 1.54237 -786.867 -744.185)"/><use xlink:href="#S" transform="matrix(1.54237 0 0 1.54237 -786.867 -744.185)"/><use xlink:href="#T" transform="matrix(1.54237 0 0 1.54237 -786.867 -744.185)"/><use xlink:href="#U" transform="matrix(1.54237 0 0 1.54237 -786.867 -744.185)"/><use xlink:href="#V" transform="matrix(1.54237 0 0 1.54237 -786.867 -744.185)"/><use xlink:href="#W" transform="matrix(1.54237 0 0 1.54237 -786.867 -744.185)"/><use xlink:href="#X" transform="matrix(1.54237 0 0 1.54237 -786.867 -744.185)"/><use xlink:href="#Y" transform="matrix(1.54237 0 0 1.54237 -786.867 -744.185)"/><use xlink:href="#Z" transform="matrix(1.54237 0 0 1.54237 -786.867 -744.185)"/><use xlink:href="#aa" transform="matrix(1.54237 0 0 1.54237 -786.867 -744.185)"/><use xlink:href="#ab" transform="matrix(1.54237 0 0 1.54237 -786.867 -744.185)"/><use xlink:href="#ac" transform="matrix(1.54237 0 0 1.54237 -786.867 -744.185)"/></svg>