<svg xmlns="http://www.w3.org/2000/svg" xmlns:xlink="http://www.w3.org/1999/xlink" preserveAspectRatio="none" width="284" height="320"><defs><linearGradient id="a" gradientUnits="userSpaceOnUse" x1="425.15" y1="662.55" x2="425.15" y2="528.95" spreadMethod="pad"><stop offset="0%" stop-color="#FF2A0B"/><stop offset="100%" stop-color="#D52102"/></linearGradient><linearGradient id="b" gradientUnits="userSpaceOnUse" x1="458.5" y1="596.1" x2="353.8" y2="596.1" spreadMethod="pad"><stop offset="0%" stop-color="#B41001"/><stop offset="100%" stop-color="#FD330C"/></linearGradient><linearGradient id="c" gradientUnits="userSpaceOnUse" x1="385.75" y1="654.5" x2="385.75" y2="542.4" spreadMethod="pad"><stop offset="0%" stop-color="#FE9016"/><stop offset="100%" stop-color="#FDD391"/></linearGradient><linearGradient id="d" gradientUnits="userSpaceOnUse" x1="362.488" y1="644.45" x2="452.512" y2="644.45" spreadMethod="pad"><stop offset="0%" stop-color="#FEEA7C"/><stop offset="100%" stop-color="#FECB16"/></linearGradient><linearGradient id="e" gradientUnits="userSpaceOnUse" x1="374.462" y1="546.85" x2="447.837" y2="546.85" spreadMethod="pad"><stop offset="0%" stop-color="#FEEA7C"/><stop offset="100%" stop-color="#FECB16"/></linearGradient><linearGradient id="f" gradientUnits="userSpaceOnUse" x1="447.45" y1="665.5" x2="358.45" y2="665.5" spreadMethod="pad"><stop offset="0%" stop-color="#0D2675"/><stop offset="100%" stop-color="#AAB3D5"/></linearGradient><linearGradient id="g" gradientUnits="userSpaceOnUse" x1="444.462" y1="525.25" x2="373.337" y2="525.25" spreadMethod="pad"><stop offset="0%" stop-color="#0D2675"/><stop offset="100%" stop-color="#AAB3D5"/></linearGradient><linearGradient id="h" gradientUnits="userSpaceOnUse" x1="374.488" y1="540.8" x2="449.213" y2="540.8" spreadMethod="pad"><stop offset="0%" stop-color="#FECB16"/><stop offset="100%" stop-color="#FD6F17"/></linearGradient><linearGradient id="i" gradientUnits="userSpaceOnUse" x1="360.475" y1="650.25" x2="454.625" y2="650.25" spreadMethod="pad"><stop offset="0%" stop-color="#FECB16"/><stop offset="100%" stop-color="#FD6F17"/></linearGradient><linearGradient id="j" gradientUnits="userSpaceOnUse" x1="376.5" y1="634.35" x2="434.3" y2="634.35" spreadMethod="pad"><stop offset="0%" stop-color="#8BB51C"/><stop offset="100%" stop-color="#578016"/></linearGradient><linearGradient id="k" gradientUnits="userSpaceOnUse" x1="383.5" y1="554.35" x2="434.8" y2="554.35" spreadMethod="pad"><stop offset="0%" stop-color="#8BB51C"/><stop offset="100%" stop-color="#578016"/></linearGradient><linearGradient id="l" gradientUnits="userSpaceOnUse" x1="447.462" y1="599.5" x2="386.837" y2="599.5" spreadMethod="pad"><stop offset="0%" stop-color="#0D2675"/><stop offset="100%" stop-color="#7E92C3"/></linearGradient><linearGradient id="m" gradientUnits="userSpaceOnUse" x1="404.462" y1="598.55" x2="440.837" y2="598.55" spreadMethod="pad"><stop offset="0%" stop-color="#FECB16"/><stop offset="100%" stop-color="#FE951A"/></linearGradient><path fill="#FFF" fill-opacity="0" d="M0 320h284V0H0v320z" id="n"/><path fill="url(#a)" d="M443.45 536.5q-2.2.8-5.55 6.7-4.35 7.65-6.6 10.2-4.6 5.25-10.35 5.25-1.65 0-3.85 2.15-2.4 2.35-3.8 2.7-20.85 5.15-34 19-12.7 13.35-13.45 29.6-.8 17.05 12.35 30.7 14.6 15.2 43.35 22.2 3.4.85-7.95 3-9.85 1.9-6.9 1.9 26.8 0 37.5-3.8 13.4-4.8 19.9-19.95 1.35-3.15 10.75-11.1 8.55-7.2 9.05-11.9 1.8-16.8-1.6-35.35-3.3-17.95-10.85-34.25-1.35-3.05-10.1-6.25-9.1-3.4-10.6-5.7-4.1-6.3-7.3-5.1z" id="o"/><path fill="#FEFECC" d="M408.05 657.65l26-1.65 42.85-6.65.95-1.9q3.3-7.95 4.95-16.8l-49.75 11.6-38.6-1.6-22.4-5.6q7.75 12.1 23.25 20.3l12.75 2.3z" id="p"/><path fill="#FEFECC" d="M462.55 537.4q-.05-.2-.2-.25l-19.1 4.5q-6.7 7.7-8.65 9.65-5.25 5.15-9.7 6.65l6.55.5 38.9-7.2q-3.75-7.7-7.8-13.85z" id="q"/><path fill="#7CA71A" d="M439.05 558.2h.3q7.05.1 13.2.6 9.45-1.9 19-4.9-1.15-2.65-3.7-7.65-8.85 2.85-18 4.55-2.1 1.55-6.55 5.1-2.181 1.49-4.25 2.3m0 0q-8.953 0-15.15-.05 1.3-1-1.65-.3-3.3.8-1.3.8l7.45 1.4q4.95.9 7.1-.95 1.732-.187 3.55-.9z" id="r"/><path fill="#7CA71A" d="M483.95 622.35q-.55.4-1.95 1.05-25.65 12.3-55.35 14.15-29.45 1.85-56.95-6.9 2.65 5.7 7.2 10.75 26.3 6.55 53.4 4.3 27.35-2.25 52.15-13.25 1.05-5 1.5-10.1z" id="s"/><path fill="#5874B3" d="M454.9 674.6q14.2-8.7 21.8-24.7.2-.4-3.1-.9-3.25-.55-3.1-.9l-30.3 9.35-51.05-1.6-18.45-5.6q4.25 10 11.3 16.85 2.1 2 6.8 6.3 4.5 4.2 8.25 8.65 9 2.1 19.65 2.1 22.55 0 38.2-9.55z" id="t"/><path fill="#5874B3" d="M403.9 508.7q-4.2 1.5-4.15 4.55.05 1.85 2.45 6.75 2.6 5.35 3.1 8.55.8 5.25-2.2 9.8 6.25 1.7 6.7 3.75.2 1 9.2 1 23.55 0 44.05-4.8-9.5-14.75-21.05-23-12.35-8.85-25.3-8.85-6.35 0-12.8 2.25z" id="u"/><path fill="#FECB16" d="M373.3 533.8q-2.25 3.2-4.6 7 22.1 7 48 7 26 0 47.95-7-1.85-3.15-4.6-7-19.65 6-43.35 6-23.7 0-43.4-6z" id="v"/><path fill="#FECB16" d="M468.5 645.3q-4.75 1.55-12.75 3.65-18.55 4.75-39.05 4.75-16.85 0-32.25-3.2-14.85-3.05-26.35-8.6-3.1-1.5-5.55-3.05 1.6 5.6 4.25 11.25 12.05 5.5 27.2 8.5 15.7 3.1 32.7 3.1 17 0 32.7-3.1 15.15-3 27.2-8.5 2.45-5 3.95-10.15-4.8 2.85-12.05 5.35z" id="w"/><path fill="url(#b)" d="M414.35 533.1q1.647-.766 1.05-1.2-.723.395-1.05 1.2m-17.6 3.55q-11.55.55-13.1.7-14.85 1.8-21.1 14.9-7.8 16.55-11.3 34.8-3.6 18.95-1.8 36.05.7 6.05 12.4 13.55 7.85 5 8.95 5.8 4.6 3.3 6.15 6.2 1.9 3.5 3.5 7.3.9 2.1 1.55 2.4.4.25 3.7.5 4.5.4 10.05 1.55l6.9-3.25q7.25.5 17.75 2 7.55 1.1 10.1.8 3.6-.45 5.85-3.6 2.05-2.9 5-11.15.75-2.15 8.15-5.85 7.1-3.55 7.6-6.55 2.9-16.75 1.7-36.65-1.15-19.8-6.1-37.8-1.1-4-8.1-9.15-7.45-5.55-8.8-8.4-1.1-2.25-9.55-.8-8.7 1.45-9.85-.2-2.3-3.35-2.2-5.7.034-.548.15-1-1.322.685-4.25 1.6-5.15 1.55-13.35 1.95z" id="x"/><path fill="url(#c)" d="M381.55 553.65q5.25-20.2 13.75-32.65-18.65 22.7-27.7 48.2-8.65 24.55-6.75 46.75 1.95 22.45 14.4 37.4 13.15 15.8 35.75 20.15-17.5-11.95-26.4-33.55-7.85-19-8.25-43.3-.35-21.75 5.2-43z" id="y"/><path fill="url(#d)" d="M452.45 639.55q-3.05-1.15-2.9-1.9l-16.5 4.6-38.6-1.6-35.65-9.4q.1.45-3.95.5-4 .05-3.95.55 1.15 5.1 2 7.8.45 1.4 4.6 4.7 4.35 3.45 4.85 4.55l45.7 8.3 26-1.65 12.75-2.65q.25-.55 2.85-1.55t2.75-1.5q.15-.25.75-1.85 1.1-3.1 2.15-7.05.2-.8-2.85-1.85z" id="z"/><path fill="#FEFECC" d="M373.65 651.3l18.85 3.55q-5.2-7.8-8.7-16.85l-19.5-4.9q3.25 10.2 9.35 18.2z" id="A"/><path fill="url(#e)" d="M398.5 543.1l-26.15-7.85q-4.6 6.6-8.5 14.4l23.35 5.55 44.25 3.25 20.2-3.75q-2.55-7.95-5.05-13.85l-15.9 3.85-32.2-1.6z" id="B"/><path fill="#FEFECC" d="M386.1 539.35l-3.4-1q-4.3 6.9-7.85 13.9l6.65 1.6q1.7-6.75 4.6-14.5z" id="C"/><path fill="url(#f)" d="M442.5 654.65l-2.3 2.8-51.05-1.6-27.9-7.5q.25.5-2.25.8-2.5.3-2.25.75 5.9 12.5 15.95 20.6 10.85 8.75 25.95 11.85l.25.05q34.55 2.4 49.55-23.65.4-.7-2.95-2.05-3.3-1.35-3-2.05z" id="D"/><path fill="#C5CBE2" d="M393.3 656l-4.15-.15-15.05-3.95q13.3 17.1 36.9 21.6-10.25-7-17.7-17.5z" id="E"/><path fill="url(#g)" d="M388.25 517.7q-8 6.5-14.95 16.25-.4.55.8 1.9 1.15 1.3.75 1.9 9.85 2.65 22.05 4.05 11.15 1.3 22.1 1.3 9 0 13-.35 2.75-.25 9.2-1.25-.3-.65 1.95-2 2.2-1.35 1.9-1.95-3.05-6.6-6.9-12-6.25-9-14.15-14-9.7-6.1-18.5-3.35-8.85 2.7-17.25 9.5z" id="F"/><path fill="#C5CBE2" d="M385.7 540.45q4.3-11.55 9.6-19.45-7.45 9.1-13.45 18.8l3.85.65z" id="G"/><path fill="url(#h)" d="M373.35 533.8q-2.35 3.25-4.6 7 5.55 1.75 10.9 2.95.35.1 2.2-1.65 1.9-1.7 2.3-1.65.4.1-.05 2.15t-.1 2.1q15.75 3.1 32.7 3.1 16.2 0 31.55-2.9-1.4-3.65-3.25-7.5-14.15 2.4-28.3 2.4-23.7 0-43.35-6z" id="H"/><path fill="url(#i)" d="M448.45 658.8q2.5-4.45 4.25-9.05-17.3 3.95-36 3.95-13.55 0-26.55-2.1-1.65-.25-4 2.05t-3.85 1.9q-1.8-.45-5.85-4.25-4.2-3.85-5.7-4.35-6.45-2.05-12.65-5.05-3.1-1.5-5.55-3.05 1.75 6.05 4.25 11.25 12.05 5.5 27.2 8.5 15.7 3.1 32.7 3.1 16.55 0 31.75-2.9z" id="I"/><path fill="#FEEA7C" d="M390.45 651.6q-10.65-1.7-19.8-4.75 3.45 5.75 8.45 10.65 9.35 2.15 17.75 3.1-3.4-4.05-6.4-9z" id="J"/><path fill="#FEEA7C" d="M386.95 537.15l-3-.6q-2.1 3.05-4.45 7.2l4.65 1q1.6-4.75 2.8-7.6z" id="K"/><path fill="#FFF" d="M369.2 565.05q-.95 2.4-1.25 3.25l9.95 3.8.5-3.45-9.2-3.6z" id="L"/><path fill="#FFF" d="M376.4 592.5q0-6.75.85-15.35l-10.85-4.25q-2.4 7.3-3.75 14.25l13.75 5.35z" id="M"/><path fill="url(#j)" d="M455.25 641.65q1.2-4.8 1.9-9.15-18.15 4.95-37.3 5.35-19.1.4-37.55-3.75-1.5-.35-4.95 1-3.35 1.35-4.9.9-1.75-.55-4.75-3.75-3.1-3.3-4.7-3.9-5.6-2.05-11.75-4.95l-1.8-.95q.4 4.65 1.5 10.05 7.45 3.3 15.5 5.85 1.8.6 4.8-.45 3.1-1.05 4.85-.6 1.4.35 4.9 3.05 3.4 2.65 4.9 2.95 34.85 6.7 69.35-1.65z" id="N"/><path fill="url(#k)" d="M379.1 553.7q.3.653.3 2.3.05 2.55.65 2.65 36.25 7.5 72.75.1-.95-3.55-2.45-8-16.8 3.3-34.05 3.3-17.4-.05-34.1-3.45-.4-.05-2.25 2.15-.45.548-.85.95m-.35-.4q-.394-.066-1.55.75.134.797.4.85.378.076 1.5-1.2-.12-.347-.35-.4m-2.95 1.9q.808-.688 1.4-1.15-.1-.66-.1-1.9 0-2.65-.5-2.8-4.05-.95-11-3-1.4 2.45-3.85 7.55 6.55 2.05 11.2 3.15.5.15 2.85-1.85z" id="O"/><path fill="#C2E32E" d="M380.35 558.75q.5-2.4 2-8.15-2.5-.45-5.95-1.3l-3.85 7.7q2.6.65 7.8 1.75z" id="P"/><path fill="#C2E32E" d="M386.1 643.4q-2.15-4.55-3.65-9.3-10.65-2.4-19.55-5.75 1.4 5.45 3.25 9.95 9.25 3.05 19.95 5.1z" id="Q"/><path fill="url(#l)" d="M439.95 576.2q-9.65-9.65-23.25-9.65t-23.25 9.65q-9.65 9.65-9.65 23.2 0 13.65 9.65 23.35 9.65 9.65 23.25 9.65t23.25-9.65q9.65-9.7 9.65-23.35 0-13.55-9.65-23.2z" id="R"/><path fill="url(#m)" d="M416.7 569.9l-5.85 17.9-17.7-6.55 10.3 15.7-16.1 9.75 18.75 1.8-2.4 18.7 13-13.6 13.05 13.6-2.45-18.7 18.8-1.8-16.2-9.75 10.35-15.7-17.7 6.55-5.85-17.9z" id="S"/><path fill="#FEDD4C" d="M440.05 590.25q-1.55 0-2.75 1.15-1.15 1.2-1.15 2.75t1.15 2.7q1.15 1.1 2.75 1.1t2.75-1.1q1.1-1.1 1.1-2.7t-1.1-2.75q-1.15-1.15-2.75-1.15z" id="T"/><path fill="#FEFECC" d="M402.1 577.9q0 1.6 1.15 2.75 1.1 1.1 2.75 1.1 1.55 0 2.65-1.1 1.15-1.15 1.15-2.75 0-1.55-1.15-2.7-1.1-1.15-2.65-1.15-1.65 0-2.75 1.15-1.15 1.1-1.15 2.7z" id="U"/><path fill="#FEDD4C" d="M425.1 580.65q1.15 1.1 2.75 1.1t2.7-1.1q1.15-1.15 1.15-2.75 0-1.55-1.15-2.7-1.1-1.15-2.7-1.15t-2.75 1.15q-1.1 1.1-1.1 2.7t1.1 2.75z" id="V"/><path fill="#FEFECC" d="M393.3 590.25q-1.55 0-2.7 1.15-1.1 1.15-1.1 2.75t1.1 2.7q1.15 1.1 2.7 1.1 1.6 0 2.75-1.1t1.15-2.7q0-1.6-1.15-2.75t-2.75-1.15z" id="W"/><path fill="#FEDD4C" d="M432.45 617.15q1.1 1.1 2.7 1.1t2.75-1.1q1.15-1.1 1.15-2.7t-1.15-2.75q-1.15-1.15-2.75-1.15t-2.7 1.15q-1.15 1.15-1.15 2.75 0 1.55 1.15 2.7z" id="X"/><path fill="#FEFECC" d="M395.9 617.15q1.15 1.1 2.75 1.1 1.55 0 2.7-1.1 1.15-1.15 1.15-2.7 0-1.6-1.15-2.75t-2.7-1.15q-1.6 0-2.75 1.15t-1.15 2.75q0 1.6 1.15 2.7z" id="Y"/><path fill="#FEEC82" d="M414 626.1q1.15 1.15 2.7 1.15 1.6 0 2.75-1.15t1.15-2.7q0-1.65-1.15-2.75-1.15-1.15-2.75-1.15t-2.7 1.15q-1.1 1.1-1.1 2.75 0 1.55 1.1 2.7z" id="Z"/></defs><use xlink:href="#n"/><use xlink:href="#o" transform="matrix(1.5302 0 0 1.5302 -495.56 -731.868)"/><use xlink:href="#p" transform="matrix(1.5302 0 0 1.5302 -495.56 -731.868)"/><use xlink:href="#q" transform="matrix(1.5302 0 0 1.5302 -495.56 -731.868)"/><use xlink:href="#r" transform="matrix(1.5302 0 0 1.5302 -495.56 -731.868)"/><use xlink:href="#s" transform="matrix(1.5302 0 0 1.5302 -495.56 -731.868)"/><use xlink:href="#t" transform="matrix(1.5302 0 0 1.5302 -495.56 -731.868)"/><use xlink:href="#u" transform="matrix(1.5302 0 0 1.5302 -495.56 -731.868)"/><use xlink:href="#v" transform="matrix(1.5302 0 0 1.5302 -495.56 -731.868)"/><use xlink:href="#w" transform="matrix(1.5302 0 0 1.5302 -495.56 -731.868)"/><use xlink:href="#x" transform="matrix(1.5302 0 0 1.5302 -495.56 -731.868)"/><use xlink:href="#y" transform="matrix(1.5302 0 0 1.5302 -495.56 -731.868)"/><use xlink:href="#z" transform="matrix(1.5302 0 0 1.5302 -495.56 -731.868)"/><use xlink:href="#A" transform="matrix(1.5302 0 0 1.5302 -495.56 -731.868)"/><use xlink:href="#B" transform="matrix(1.5302 0 0 1.5302 -495.56 -731.868)"/><use xlink:href="#C" transform="matrix(1.5302 0 0 1.5302 -495.56 -731.868)"/><use xlink:href="#D" transform="matrix(1.5302 0 0 1.5302 -495.56 -731.868)"/><use xlink:href="#E" transform="matrix(1.5302 0 0 1.5302 -495.56 -731.868)"/><use xlink:href="#F" transform="matrix(1.5302 0 0 1.5302 -495.56 -731.868)"/><use xlink:href="#G" transform="matrix(1.5302 0 0 1.5302 -495.56 -731.868)"/><use xlink:href="#H" transform="matrix(1.5302 0 0 1.5302 -495.56 -731.868)"/><use xlink:href="#I" transform="matrix(1.5302 0 0 1.5302 -495.56 -731.868)"/><use xlink:href="#J" transform="matrix(1.5302 0 0 1.5302 -495.56 -731.868)"/><use xlink:href="#K" transform="matrix(1.5302 0 0 1.5302 -495.56 -731.868)"/><use xlink:href="#L" transform="matrix(1.5302 0 0 1.5302 -495.56 -731.868)"/><use xlink:href="#M" transform="matrix(1.5302 0 0 1.5302 -495.56 -731.868)"/><use xlink:href="#N" transform="matrix(1.5302 0 0 1.5302 -495.56 -731.868)"/><use xlink:href="#O" transform="matrix(1.5302 0 0 1.5302 -495.56 -731.868)"/><use xlink:href="#P" transform="matrix(1.5302 0 0 1.5302 -495.56 -731.868)"/><use xlink:href="#Q" transform="matrix(1.5302 0 0 1.5302 -495.56 -731.868)"/><use xlink:href="#R" transform="matrix(1.5302 0 0 1.5302 -495.56 -731.868)"/><use xlink:href="#S" transform="matrix(1.5302 0 0 1.5302 -495.56 -731.868)"/><use xlink:href="#T" transform="matrix(1.5302 0 0 1.5302 -495.56 -731.868)"/><use xlink:href="#U" transform="matrix(1.5302 0 0 1.5302 -495.56 -731.868)"/><use xlink:href="#V" transform="matrix(1.5302 0 0 1.5302 -495.56 -731.868)"/><use xlink:href="#W" transform="matrix(1.5302 0 0 1.5302 -495.56 -731.868)"/><use xlink:href="#X" transform="matrix(1.5302 0 0 1.5302 -495.56 -731.868)"/><use xlink:href="#Y" transform="matrix(1.5302 0 0 1.5302 -495.56 -731.868)"/><use xlink:href="#Z" transform="matrix(1.5302 0 0 1.5302 -495.56 -731.868)"/></svg>