<svg xmlns="http://www.w3.org/2000/svg" xmlns:xlink="http://www.w3.org/1999/xlink" preserveAspectRatio="none" width="284" height="320"><defs><linearGradient id="a" gradientUnits="userSpaceOnUse" x1="424.25" y1="464.5" x2="424.25" y2="427.8" spreadMethod="pad"><stop offset="0%" stop-color="#FF2A0B"/><stop offset="100%" stop-color="#D52102"/></linearGradient><linearGradient id="b" gradientUnits="userSpaceOnUse" x1="431.4" y1="323.5" x2="431.4" y2="286.9" spreadMethod="pad"><stop offset="0%" stop-color="#FF2A0B"/><stop offset="100%" stop-color="#D52102"/></linearGradient><linearGradient id="c" gradientUnits="userSpaceOnUse" x1="454.463" y1="322.788" x2="460.637" y2="333.913" spreadMethod="pad"><stop offset="0%" stop-color="#FECB16"/><stop offset="100%" stop-color="#FE9016"/></linearGradient><linearGradient id="d" gradientUnits="userSpaceOnUse" x1="423.462" y1="435.525" x2="446.337" y2="476.775" spreadMethod="pad"><stop offset="0%" stop-color="#FECB16"/><stop offset="100%" stop-color="#FE9016"/></linearGradient><linearGradient id="e" gradientUnits="userSpaceOnUse" x1="458.488" y1="376.15" x2="349.512" y2="376.15" spreadMethod="pad"><stop offset="0%" stop-color="#0D2675"/><stop offset="100%" stop-color="#AAB3D5"/></linearGradient><linearGradient id="f" gradientUnits="userSpaceOnUse" x1="355.5" y1="425.5" x2="451.1" y2="425.5" spreadMethod="pad"><stop offset="0%" stop-color="#BDE020"/><stop offset="100%" stop-color="#8BB51C"/></linearGradient><linearGradient id="g" gradientUnits="userSpaceOnUse" x1="355.475" y1="417.1" x2="451.425" y2="417.1" spreadMethod="pad"><stop offset="0%" stop-color="#BDE020"/><stop offset="100%" stop-color="#8BB51C"/></linearGradient><linearGradient id="h" gradientUnits="userSpaceOnUse" x1="355.5" y1="427.4" x2="451.1" y2="427.4" spreadMethod="pad"><stop offset="0%" stop-color="#BDE020"/><stop offset="100%" stop-color="#8BB51C"/></linearGradient><linearGradient id="i" gradientUnits="userSpaceOnUse" x1="355.5" y1="428.05" x2="451.1" y2="428.05" spreadMethod="pad"><stop offset="0%" stop-color="#BDE020"/><stop offset="100%" stop-color="#8BB51C"/></linearGradient><linearGradient id="j" gradientUnits="userSpaceOnUse" x1="355.5" y1="427.3" x2="451.1" y2="427.3" spreadMethod="pad"><stop offset="0%" stop-color="#BDE020"/><stop offset="100%" stop-color="#8BB51C"/></linearGradient><linearGradient id="k" gradientUnits="userSpaceOnUse" x1="355.463" y1="425.4" x2="451.238" y2="425.4" spreadMethod="pad"><stop offset="0%" stop-color="#BDE020"/><stop offset="100%" stop-color="#8BB51C"/></linearGradient><linearGradient id="l" gradientUnits="userSpaceOnUse" x1="385.75" y1="437.5" x2="385.75" y2="325.4" spreadMethod="pad"><stop offset="0%" stop-color="#D7DAEB"/><stop offset="100%" stop-color="#F1F1F7"/></linearGradient><linearGradient id="m" gradientUnits="userSpaceOnUse" x1="447.5" y1="447.45" x2="359.1" y2="447.45" spreadMethod="pad"><stop offset="0%" stop-color="#B41001"/><stop offset="100%" stop-color="#FD330C"/></linearGradient><linearGradient id="n" gradientUnits="userSpaceOnUse" x1="444.475" y1="307.8" x2="374.025" y2="307.8" spreadMethod="pad"><stop offset="0%" stop-color="#B41001"/><stop offset="100%" stop-color="#FD330C"/></linearGradient><linearGradient id="o" gradientUnits="userSpaceOnUse" x1="374.475" y1="323.35" x2="449.225" y2="323.35" spreadMethod="pad"><stop offset="0%" stop-color="#FECB16"/><stop offset="100%" stop-color="#FD6F17"/></linearGradient><linearGradient id="p" gradientUnits="userSpaceOnUse" x1="372.475" y1="335.25" x2="449.525" y2="335.25" spreadMethod="pad"><stop offset="0%" stop-color="#BDE020"/><stop offset="100%" stop-color="#7CA71A"/></linearGradient><linearGradient id="q" gradientUnits="userSpaceOnUse" x1="372.475" y1="337.3" x2="449.525" y2="337.3" spreadMethod="pad"><stop offset="0%" stop-color="#BDE020"/><stop offset="100%" stop-color="#7CA71A"/></linearGradient><linearGradient id="r" gradientUnits="userSpaceOnUse" x1="372.475" y1="338.05" x2="449.525" y2="338.05" spreadMethod="pad"><stop offset="0%" stop-color="#BDE020"/><stop offset="100%" stop-color="#7CA71A"/></linearGradient><linearGradient id="s" gradientUnits="userSpaceOnUse" x1="372.475" y1="337.45" x2="449.525" y2="337.45" spreadMethod="pad"><stop offset="0%" stop-color="#BDE020"/><stop offset="100%" stop-color="#7CA71A"/></linearGradient><linearGradient id="t" gradientUnits="userSpaceOnUse" x1="372.462" y1="335.5" x2="449.938" y2="335.5" spreadMethod="pad"><stop offset="0%" stop-color="#BDE020"/><stop offset="100%" stop-color="#7CA71A"/></linearGradient><linearGradient id="u" gradientUnits="userSpaceOnUse" x1="372.5" y1="331.65" x2="449.8" y2="331.65" spreadMethod="pad"><stop offset="0%" stop-color="#BDE020"/><stop offset="100%" stop-color="#7CA71A"/></linearGradient><linearGradient id="v" gradientUnits="userSpaceOnUse" x1="360.5" y1="432.9" x2="454.7" y2="432.9" spreadMethod="pad"><stop offset="0%" stop-color="#FECB16"/><stop offset="100%" stop-color="#FD6F17"/></linearGradient><linearGradient id="w" gradientUnits="userSpaceOnUse" x1="388.5" y1="382.35" x2="444.6" y2="382.35" spreadMethod="pad"><stop offset="0%" stop-color="#FFF"/><stop offset="100%" stop-color="#FEF6B0"/></linearGradient><path fill="#FFF" fill-opacity="0" d="M0 320h284V0H0v320z" id="x"/><path fill="#5874B3" d="M379.3 365.05q-12.7 13.4-13.45 29.65-.8 17.1 12.35 30.7 14.6 15.25 43.35 22.25 3.4.85-7.95 3-9.85 1.85-6.9 1.85 30.85 0 44.35-3.15 20.55-4.8 26.8-19.35 9.75-22.9 5.4-53.9-4.2-29.4-18.9-53.25-.25-.45-16.75 2.05-16.5 2.55-16.85 2.05-4-6.15-4.15-5.55-.1.45 1.3 5.75 3 14-6.95 14-1.65 0-3.85 2.15-2.4 2.35-3.8 2.65-20.85 5.2-34 19.1z" id="y"/><path fill="url(#a)" d="M477.85 430.05l-37.65 10-51.05-1.55-18.45-5.65q4.25 10.05 11.3 16.9 2.1 2 6.8 6.3 4.5 4.2 8.25 8.65 9.35 2.1 19.65 2.1 23.45 0 39.35-10.3 14.45-9.3 21.8-26.45z" id="z"/><path fill="url(#b)" d="M403.9 291.25q-4.2 1.5-4.15 4.55.05 1.85 2.45 6.75 2.6 5.35 3.1 8.55.8 5.25-2.2 9.8 6.25 1.7 6.7 3.75.2 1 9.2 1 23.55 0 44.05-4.8-9.5-14.75-21.05-23-12.35-8.85-25.3-8.85-6.35 0-12.8 2.25z" id="A"/><path fill="url(#c)" d="M464.65 323.35q-1.85-3.15-4.6-7-6.95 2.2-15.7 3.7l2.95 7.65q9.85-1.9 17.35-4.35z" id="B"/><path fill="url(#d)" d="M476.6 432.75q2.35-4.9 4.25-11.25-2.05 1.2-5.55 3-11.4 5.6-26.3 8.65-15.4 3.15-32.3 3.15t-32.25-3.15q-14.9-3.05-26.35-8.65l-5.55-3q1.6 5.6 4.25 11.25 12.05 5.45 27.2 8.45 15.7 3.1 32.7 3.1 17 0 32.7-3.1 15.15-3 27.2-8.45z" id="C"/><path fill="url(#e)" d="M417.75 309.85q.92-.521.7-.9-.47.304-.7.9m-16.5 3.3q-8.05-.25-12-.15-14.35.35-20.15 9.7-13.4 21.75-18.15 48.65Q346 399.5 352.7 422q32.45 24.7 63.7 20.85 9.2-1.15 21.35-5.4 11.65-4.1 14.65-4.35l.75-2.05q7.3-20.5 5.8-50.45-1.5-29.7-10.9-53.55-1.45-3.85-13.65-5.85-6.9-1.15-8.85-1.65-4.35-1.1-5.55-2.9-2.3-3.3-2.35-5.6-.022-.692.1-1.2-1.3.827-5.15 2-4.3 1.3-11.35 1.3z" id="D"/><path fill="#FDE564" d="M414.1 403q-4.15.25-7.1 2.5-2.9 2.25-2.9 5.2t2.9 4.85q2.95 1.95 7.1 1.7 4.15-.25 7.05-2.55 2.9-2.25 2.9-5.25 0-2.9-2.9-4.8T414.1 403z" id="E"/><path fill="url(#f)" d="M387.55 420.85q-1.95 0-3.3 1.35-1.4 1.4-1.4 3.3 0 1.95 1.4 3.35 1.35 1.35 3.3 1.35 1.95 0 3.35-1.35 1.35-1.4 1.35-3.35 0-1.9-1.35-3.3-1.4-1.35-3.35-1.35z" id="F"/><path fill="url(#g)" d="M355.85 420.45q1.35 1.35 3.25 1.35 1.95 0 3.35-1.35 1.35-1.4 1.35-3.35 0-1.95-1.35-3.3-1.4-1.4-3.35-1.4-1.9 0-3.25 1.4-1.4 1.35-1.4 3.3 0 1.95 1.4 3.35z" id="G"/><path fill="url(#h)" d="M405.55 430.75q1.35-1.4 1.35-3.35 0-1.95-1.35-3.3-1.35-1.4-3.3-1.4-1.95 0-3.3 1.4-1.4 1.35-1.4 3.3 0 1.95 1.4 3.35 1.35 1.35 3.3 1.35 1.95 0 3.3-1.35z" id="H"/><path fill="url(#i)" d="M417.05 423.35q-1.9 0-3.3 1.4-1.35 1.35-1.35 3.3 0 1.9 1.35 3.3 1.4 1.4 3.3 1.4 1.95 0 3.3-1.4 1.35-1.4 1.35-3.3 0-1.95-1.35-3.3-1.35-1.4-3.3-1.4z" id="I"/><path fill="url(#j)" d="M431.85 422.65q-1.95 0-3.3 1.35-1.4 1.4-1.4 3.3 0 1.95 1.4 3.35 1.35 1.35 3.3 1.35 1.9 0 3.3-1.35 1.35-1.4 1.35-3.35 0-1.9-1.35-3.3-1.4-1.35-3.3-1.35z" id="J"/><path fill="url(#k)" d="M446.5 430.05q1.95 0 3.35-1.35 1.4-1.4 1.4-3.3 0-1.95-1.4-3.3-1.4-1.4-3.35-1.4-1.9 0-3.25 1.4-1.4 1.35-1.4 3.3 0 1.9 1.4 3.3 1.35 1.35 3.25 1.35z" id="K"/><path fill="url(#l)" d="M381.55 336.2q5.25-20.2 13.75-32.65-18.65 22.7-27.7 48.2-8.65 24.6-6.75 46.8 1.95 22.45 14.4 37.4 13.15 15.85 35.75 20.2-17.5-11.95-26.4-33.55-7.85-19-8.25-43.35-.35-21.8 5.2-43.05z" id="L"/><path fill="url(#m)" d="M448.45 441.35q.4-.65-1.2-2.2-1.55-1.5-1.25-2.25l-5.8 3.15-51.05-1.55-33.7-8.8q5.75 13.6 16.1 22.4 11.15 9.55 27.1 12.9l.25.05q34.65 2.25 49.55-23.7z" id="M"/><path fill="#FF6507" d="M393.3 438.55l-4.15-.05-15.05-4q13.35 17.15 36.9 21.65-10.35-7.15-17.7-17.6z" id="N"/><path fill="url(#n)" d="M423.9 294.15q-9.65-6.1-18.5-3.4-9.6 2.95-18.6 10.65-8.55 7.4-15.9 18.45 9.9 2.65 23.95 4.25 13.2 1.55 24 1.55 6.85 0 10.45.05.55-.05 6.7-.9-.25-.55 4.6-2.1 4.75-1.6 4.55-2.1-3.15-6.7-7.15-12.5-6.25-9.05-14.1-13.95z" id="O"/><path fill="#FC8F38" d="M385.7 323q4.15-11.35 9.6-19.45-7.65 9.45-13.45 18.8l3.85.65z" id="P"/><path fill="url(#o)" d="M384.6 321.7l-.5-2.6q-6.6-1.4-10.75-2.75-2.35 3.25-4.6 7 5.55 1.75 10.9 2.95.35.1 1.95-1.2 1.55-1.3 1.9-1.25.4.15.25 1.75-.1 1.6.25 1.65 15.65 3.1 32.7 3.1 16.6 0 31.55-2.9-1.4-3.65-3.25-7.5-13.7 2.4-28.3 2.4-15.3 0-29.8-2.65l-2.3 2z" id="Q"/><path fill="url(#p)" d="M385.9 330.55q-1.95 0-3.3 1.4-1.4 1.35-1.4 3.3 0 1.95 1.4 3.3 1.35 1.35 3.3 1.35 1.95 0 3.3-1.35 1.35-1.35 1.35-3.3 0-1.95-1.35-3.3-1.35-1.4-3.3-1.4z" id="R"/><path fill="url(#q)" d="M400.95 332.65q-1.95 0-3.3 1.35-1.4 1.4-1.4 3.3 0 1.95 1.4 3.35 1.35 1.35 3.3 1.35 1.95 0 3.3-1.35 1.35-1.4 1.35-3.35 0-1.9-1.35-3.3-1.35-1.35-3.3-1.35z" id="S"/><path fill="url(#r)" d="M416.15 333.35q-1.95 0-3.35 1.4-1.4 1.35-1.4 3.3 0 1.95 1.4 3.35 1.4 1.35 3.35 1.35 1.9 0 3.25-1.35 1.4-1.4 1.4-3.35 0-1.95-1.4-3.3-1.35-1.4-3.25-1.4z" id="T"/><path fill="url(#s)" d="M431.2 332.8q-1.95 0-3.3 1.35-1.4 1.4-1.4 3.3 0 1.95 1.4 3.35 1.35 1.35 3.3 1.35 1.9 0 3.3-1.35 1.35-1.4 1.35-3.35 0-1.9-1.35-3.3-1.4-1.35-3.3-1.35z" id="U"/><path fill="url(#t)" d="M446.25 340.2q1.9 0 3.3-1.4 1.35-1.4 1.35-3.3t-1.35-3.35q-1.4-1.4-3.3-1.4-1.95 0-3.3 1.4-1.4 1.45-1.4 3.35 0 1.9 1.4 3.3 1.35 1.4 3.3 1.4z" id="V"/><path fill="url(#u)" d="M367.9 334.95q1.35 1.35 3.3 1.35 1.95 0 3.35-1.35 1.35-1.35 1.35-3.3 0-1.95-1.35-3.3-1.4-1.4-3.35-1.4-1.95 0-3.3 1.4-1.4 1.35-1.4 3.3 0 1.95 1.4 3.3z" id="W"/><path fill="#ADD11E" d="M457.7 335.35q1.35 1.35 3.3 1.35 1.95 0 3.3-1.35 1.35-1.4 1.35-3.35 0-1.95-1.35-3.3-1.35-1.4-3.3-1.4-1.95 0-3.3 1.4-1.4 1.35-1.4 3.3 0 1.95 1.4 3.35z" id="X"/><path fill="#E5F499" d="M373.1 417.45q-1.95 0-3.3 1.4-1.4 1.35-1.4 3.3 0 1.95 1.4 3.3 1.35 1.35 3.3 1.35 1.9 0 3.3-1.35 1.35-1.35 1.35-3.3 0-1.95-1.35-3.3-1.4-1.4-3.3-1.4z" id="Y"/><path fill="#ADD11E" d="M461 417.25q-1.95 0-3.3 1.4-1.4 1.35-1.4 3.25 0 1.95 1.4 3.35 1.35 1.35 3.3 1.35 1.95 0 3.3-1.35 1.35-1.4 1.35-3.35 0-1.9-1.35-3.25-1.35-1.4-3.3-1.4z" id="Z"/><path fill="#ADD11E" d="M471.6 420.15q1.35 1.35 3.3 1.35 1.95 0 3.3-1.35 1.35-1.4 1.35-3.35 0-1.95-1.35-3.3-1.35-1.35-3.3-1.35-1.95 0-3.3 1.35-1.4 1.35-1.4 3.3 0 1.95 1.4 3.35z" id="aa"/><path fill="url(#v)" d="M448.45 441.35q2.55-4.5 4.25-9.05-16.85 4-36 4-14.2 0-27-2.2-1.3-.2-3.95 1-2.6 1.15-3.9.85-2-.45-5.45-3-3.65-2.75-5.2-3.25-7.1-2.25-13.1-5.2-3.8-1.95-5.55-3 1.8 6.2 4.25 11.25 10.1 4.55 22.55 7.45 1.25.3 3.8-1.2 2.6-1.5 3.9-1.3 1.4.25 4.45 2.75 3 2.45 4.6 2.65 10 1.2 20.6 1.2 16.7 0 31.75-2.95z" id="ab"/><path fill="#FDE564" d="M390.45 434.25q-10.65-1.7-19.8-4.75 3.45 5.65 8.45 10.65 9.1 2.1 17.75 3-3.5-4.05-6.4-8.9z" id="ac"/><path fill="#FEF6B0" d="M386.95 319.7l-3-.6q-2.35 3.55-4.45 7.2l4.65 1q1.5-4.4 2.8-7.6z" id="ad"/><path fill="#E5F499" d="M387.55 430.2l.55-.05q-1.6-3.1-3.7-8.1-1.55 1.45-1.55 3.45 0 1.95 1.4 3.35 1.35 1.35 3.3 1.35z" id="ae"/><path fill="#E5F499" d="M381.45 336.6q.7-2.75 1.35-4.8-1.6 1.45-1.6 3.45 0 .6.25 1.35z" id="af"/><path fill="#FFF" d="M369.2 347.6q-.9 2.2-1.25 3.25l9.95 3.85.5-3.5-9.2-3.6z" id="ag"/><path fill="#FFF" d="M376.4 375.05q0-6.75.85-15.35l-10.85-4.25q-2.4 7.3-3.75 14.3l13.75 5.3z" id="ah"/><path fill="url(#w)" d="M402.65 362.8q-6.5.35-10.25 4.2-3.35 3.45-3.6 8.6-.25 4.95 2.45 9.05 2.9 4.45 7.9 5.8-3.3 9.8 3.75 13.25-.85 2.8-1.9 4.1-.75.95-3.6 3.7-2.65 2.7-.45 5.65 2.2 2.95 6 1.15 2.45-1.1 4.95-5.05 2.65-4.2 2.95-8.05.1-1.2.7-1.3.6-.1.9 1.1.35 1.5 1.15 2.55.6.85 2.3 2.35.3.25.9.55.25.25-.9.25-2.9.1-4.5.8-2.85 1.15-2.45 4 .4 2.9 3.65 3.35 2.25.25 7.7.1 7.35-.35 10.9-1.6 5.55-1.95 7.3-6.95 1.65 1.5 3.85 1.5 2.25 0 3.9-1.6t1.65-3.85q0-2.3-1.65-3.95-1.65-1.6-3.9-1.6-2 0-3.45 1.3-2.35-8.85-10.3-13.15-4.25-2.35-13.85-4.35 3.65-4.85 2.6-11.25-.95-5.4-3.45-6.9l10.1-3.5q3.45-1.2 4.7-3.4 1.05-1.9.2-3.95-.95-2.3-3.4-2.75-2.8-.5-5.85 2.1l-7.4 6.3q-2.2 1.9-2.75 1.55-.45-.45 1.6-2.3l6.45-5.85q2.85-2.5 2.45-5.25-.4-2.5-2.85-3.45-2-.8-4.15.3-2.3 1.2-3.85 4.1l-6.5 12.35z" id="ai"/><path fill="#7CA71A" d="M394.4 376.7q.55.6 1.35.6t1.4-.6q.55-.55.55-1.35t-.55-1.4q-.55-.55-1.4-.55-.8 0-1.35.55-.6.6-.6 1.4 0 .8.6 1.35z" id="aj"/><path fill="#7CA71A" d="M403.6 375.15q0 .85.6 1.45.65.6 1.5.6t1.5-.6q.6-.6.6-1.45 0-.9-.6-1.45-.6-.6-1.5-.6-.85 0-1.5.6-.6.55-.6 1.45z" id="ak"/><path fill="#FF4104" d="M398 384l-.75.7q1.35 1.45 3.2 1.45 2 0 3.25-1.65l-.8-.6q-.9 1.25-2.45 1.25-1.4 0-2.45-1.15z" id="al"/><path fill="#FF4104" d="M399.65 385.65h1v-2.95h-1v2.95z" id="am"/><path fill="#FFF" d="M394.55 375.15q0 .5.5.5.55 0 .55-.5 0-.6-.55-.6-.5 0-.5.6z" id="an"/><path fill="#FFF" d="M405.6 375q0-.6-.55-.6-.5 0-.5.6 0 .5.5.5.55 0 .55-.5z" id="ao"/><path fill="#FD4810" d="M407 360.5q1.15-1 4.4-3.45 2.9-2.35 4.1-3.9.8-1.05.85-2.2.1-1.15-.65-1.65-.7-.55-1.8-.2-1.1.4-1.95 1.4-1.2 1.55-2.7 4.9-.85 1.85-2.25 5.1z" id="ap"/><path fill="#FD4810" d="M425.55 358.7q.5-1.05.1-1.85-.5-.75-1.65-.85-1.2-.1-2.4.55-1.6.9-4.3 3.45-2.9 2.8-4.05 3.75v.05q1.45-.45 5.4-1.5 3.55-1 5.2-1.95 1.15-.65 1.7-1.65z" id="aq"/><path fill="#FD4810" d="M398.65 382.35q.65.5 1.5.5t1.5-.5q.6-.5.6-1.2 0-.65-.6-1.15-.65-.5-1.5-.5t-1.5.5q-.6.5-.6 1.15 0 .7.6 1.2z" id="ar"/><path fill="#FFF" d="M398.85 380.6q0 .45.85.45.8 0 .8-.45 0-.35-.8-.35-.85 0-.85.35z" id="as"/></defs><use xlink:href="#x"/><use xlink:href="#y" transform="matrix(1.60846 0 0 1.60843 -528.211 -441.836)"/><use xlink:href="#z" transform="matrix(1.60846 0 0 1.60843 -528.211 -441.836)"/><use xlink:href="#A" transform="matrix(1.60846 0 0 1.60843 -528.211 -441.836)"/><use xlink:href="#B" transform="matrix(1.60846 0 0 1.60843 -528.211 -441.836)"/><use xlink:href="#C" transform="matrix(1.60846 0 0 1.60843 -528.211 -441.836)"/><use xlink:href="#D" transform="matrix(1.60846 0 0 1.60843 -528.211 -441.836)"/><use xlink:href="#E" transform="matrix(1.60846 0 0 1.60843 -528.211 -441.836)"/><use xlink:href="#F" transform="matrix(1.60846 0 0 1.60843 -528.211 -441.836)"/><use xlink:href="#G" transform="matrix(1.60846 0 0 1.60843 -528.211 -441.836)"/><use xlink:href="#H" transform="matrix(1.60846 0 0 1.60843 -528.211 -441.836)"/><use xlink:href="#I" transform="matrix(1.60846 0 0 1.60843 -528.211 -441.836)"/><use xlink:href="#J" transform="matrix(1.60846 0 0 1.60843 -528.211 -441.836)"/><use xlink:href="#K" transform="matrix(1.60846 0 0 1.60843 -528.211 -441.836)"/><use xlink:href="#L" transform="matrix(1.60846 0 0 1.60843 -528.211 -441.836)"/><use xlink:href="#M" transform="matrix(1.60846 0 0 1.60843 -528.211 -441.836)"/><use xlink:href="#N" transform="matrix(1.60846 0 0 1.60843 -528.211 -441.836)"/><use xlink:href="#O" transform="matrix(1.60846 0 0 1.60843 -528.211 -441.836)"/><use xlink:href="#P" transform="matrix(1.60846 0 0 1.60843 -528.211 -441.836)"/><use xlink:href="#Q" transform="matrix(1.60846 0 0 1.60843 -528.211 -441.836)"/><use xlink:href="#R" transform="matrix(1.60846 0 0 1.60843 -528.211 -441.836)"/><use xlink:href="#S" transform="matrix(1.60846 0 0 1.60843 -528.211 -441.836)"/><use xlink:href="#T" transform="matrix(1.60846 0 0 1.60843 -528.211 -441.836)"/><use xlink:href="#U" transform="matrix(1.60846 0 0 1.60843 -528.211 -441.836)"/><use xlink:href="#V" transform="matrix(1.60846 0 0 1.60843 -528.211 -441.836)"/><use xlink:href="#W" transform="matrix(1.60846 0 0 1.60843 -528.211 -441.836)"/><use xlink:href="#X" transform="matrix(1.60846 0 0 1.60843 -528.211 -441.836)"/><use xlink:href="#Y" transform="matrix(1.60846 0 0 1.60843 -528.211 -441.836)"/><use xlink:href="#Z" transform="matrix(1.60846 0 0 1.60843 -528.211 -441.836)"/><use xlink:href="#aa" transform="matrix(1.60846 0 0 1.60843 -528.211 -441.836)"/><use xlink:href="#ab" transform="matrix(1.60846 0 0 1.60843 -528.211 -441.836)"/><use xlink:href="#ac" transform="matrix(1.60846 0 0 1.60843 -528.211 -441.836)"/><use xlink:href="#ad" transform="matrix(1.60846 0 0 1.60843 -528.211 -441.836)"/><use xlink:href="#ae" transform="matrix(1.60846 0 0 1.60843 -528.211 -441.836)"/><use xlink:href="#af" transform="matrix(1.60846 0 0 1.60843 -528.211 -441.836)"/><use xlink:href="#ag" transform="matrix(1.60846 0 0 1.60843 -528.211 -441.836)"/><use xlink:href="#ah" transform="matrix(1.60846 0 0 1.60843 -528.211 -441.836)"/><use xlink:href="#ai" transform="matrix(1.60846 0 0 1.60843 -528.211 -441.836)"/><use xlink:href="#aj" transform="matrix(1.60846 0 0 1.60843 -528.211 -441.836)"/><use xlink:href="#ak" transform="matrix(1.60846 0 0 1.60843 -528.211 -441.836)"/><use xlink:href="#al" transform="matrix(1.60846 0 0 1.60843 -528.211 -441.836)"/><use xlink:href="#am" transform="matrix(1.60846 0 0 1.60843 -528.211 -441.836)"/><use xlink:href="#an" transform="matrix(1.60846 0 0 1.60843 -528.211 -441.836)"/><use xlink:href="#ao" transform="matrix(1.60846 0 0 1.60843 -528.211 -441.836)"/><use xlink:href="#ap" transform="matrix(1.60846 0 0 1.60843 -528.211 -441.836)"/><use xlink:href="#aq" transform="matrix(1.60846 0 0 1.60843 -528.211 -441.836)"/><use xlink:href="#ar" transform="matrix(1.60846 0 0 1.60843 -528.211 -441.836)"/><use xlink:href="#as" transform="matrix(1.60846 0 0 1.60843 -528.211 -441.836)"/></svg>