<svg xmlns="http://www.w3.org/2000/svg" xmlns:xlink="http://www.w3.org/1999/xlink" preserveAspectRatio="none" width="284" height="320"><defs><linearGradient id="a" gradientUnits="userSpaceOnUse" x1="96.5" y1="668.05" x2="235" y2="668.05" spreadMethod="pad"><stop offset="0%" stop-color="#E7E8E9"/><stop offset="100%" stop-color="#FFF"/></linearGradient><linearGradient id="b" gradientUnits="userSpaceOnUse" x1="179.463" y1="568.35" x2="60.037" y2="568.35" spreadMethod="pad"><stop offset="0%" stop-color="#C7CDDC"/><stop offset="12.941%" stop-color="#ACB4C8"/><stop offset="78.039%" stop-color="#CDD2E0"/><stop offset="100%" stop-color="#C9CEDD"/></linearGradient><linearGradient id="c" gradientUnits="userSpaceOnUse" x1="120.7" y1="608.525" x2="120.7" y2="534.675" spreadMethod="pad"><stop offset="0%" stop-color="#CDD2E0"/><stop offset="36.863%" stop-color="#E7EAF0"/><stop offset="100%" stop-color="#DADEE8"/></linearGradient><linearGradient id="d" gradientUnits="userSpaceOnUse" x1="124.45" y1="573.3" x2="83.65" y2="573.3" spreadMethod="pad"><stop offset="0%" stop-color="#E7EAF0"/><stop offset="100%" stop-color="#FFF"/></linearGradient><linearGradient id="e" gradientUnits="userSpaceOnUse" x1="186.488" y1="652.75" x2="53.912" y2="652.75" spreadMethod="pad"><stop offset="0%" stop-color="#687996"/><stop offset="16.078%" stop-color="#4D5C76"/><stop offset="78.039%" stop-color="#B4BDD0"/><stop offset="100%" stop-color="#7B89A5"/></linearGradient><linearGradient id="f" gradientUnits="userSpaceOnUse" x1="184.475" y1="635.65" x2="53.225" y2="635.65" spreadMethod="pad"><stop offset="0%" stop-color="#B4BDD0"/><stop offset="12.941%" stop-color="#8C9AB3"/><stop offset="78.039%" stop-color="#DEE0EA"/><stop offset="100%" stop-color="#BAC2D3"/></linearGradient><linearGradient id="g" gradientUnits="userSpaceOnUse" x1="179.463" y1="650.25" x2="60.838" y2="650.25" spreadMethod="pad"><stop offset="0%" stop-color="#4A586F"/><stop offset="58.824%" stop-color="#7D8CA8"/><stop offset="100%" stop-color="#8C9AB3"/></linearGradient><linearGradient id="h" gradientUnits="userSpaceOnUse" x1="76.5" y1="651.6" x2="176" y2="651.6" spreadMethod="pad"><stop offset="0%" stop-color="#A8B2C7"/><stop offset="100%" stop-color="#72829E"/></linearGradient><linearGradient id="i" gradientUnits="userSpaceOnUse" x1="121.1" y1="647.512" x2="121.1" y2="652.788" spreadMethod="pad"><stop offset="0%" stop-color="#647794"/><stop offset="69.804%" stop-color="#4D5D76"/><stop offset="100%" stop-color="#647794"/></linearGradient><linearGradient id="j" gradientUnits="userSpaceOnUse" x1="80.85" y1="645.55" x2="80.85" y2="653.65" spreadMethod="pad"><stop offset="0%" stop-color="#F0F2F6"/><stop offset="100%" stop-color="#DADEE8"/></linearGradient><linearGradient id="k" gradientUnits="userSpaceOnUse" x1="91.1" y1="652.512" x2="91.1" y2="654.587" spreadMethod="pad"><stop offset="0%" stop-color="#B4BDD0"/><stop offset="100%" stop-color="#E7EAF0"/></linearGradient><linearGradient id="l" gradientUnits="userSpaceOnUse" x1="95.45" y1="647.325" x2="87.45" y2="647.175" spreadMethod="pad"><stop offset="0%" stop-color="#CDD2E0"/><stop offset="100%" stop-color="#FFF"/></linearGradient><linearGradient id="m" gradientUnits="userSpaceOnUse" x1="104.475" y1="647.7" x2="94.825" y2="647.7" spreadMethod="pad"><stop offset="0%" stop-color="#CDD2E0"/><stop offset="100%" stop-color="#FFF"/></linearGradient><linearGradient id="n" gradientUnits="userSpaceOnUse" x1="96.5" y1="653.1" x2="103.8" y2="653.1" spreadMethod="pad"><stop offset="0%" stop-color="#596B89"/><stop offset="100%" stop-color="#687996"/></linearGradient><linearGradient id="o" gradientUnits="userSpaceOnUse" x1="93.5" y1="650.275" x2="96.4" y2="650.325" spreadMethod="pad"><stop offset="0%" stop-color="#A8B2C7"/><stop offset="100%" stop-color="#CDD2E0"/></linearGradient><linearGradient id="p" gradientUnits="userSpaceOnUse" x1="161.35" y1="645.55" x2="161.35" y2="653.65" spreadMethod="pad"><stop offset="0%" stop-color="#DEE0EA"/><stop offset="100%" stop-color="#C9D0DE"/></linearGradient><linearGradient id="q" gradientUnits="userSpaceOnUse" x1="151.05" y1="652.512" x2="151.05" y2="654.587" spreadMethod="pad"><stop offset="0%" stop-color="#B4BDD0"/><stop offset="100%" stop-color="#E7EAF0"/></linearGradient><linearGradient id="r" gradientUnits="userSpaceOnUse" x1="146.5" y1="647.3" x2="154.5" y2="647.3" spreadMethod="pad"><stop offset="0%" stop-color="#CDD2E0"/><stop offset="100%" stop-color="#FFF"/></linearGradient><linearGradient id="s" gradientUnits="userSpaceOnUse" x1="137.463" y1="647.7" x2="146.838" y2="647.7" spreadMethod="pad"><stop offset="0%" stop-color="#CDD2E0"/><stop offset="100%" stop-color="#FFF"/></linearGradient><linearGradient id="t" gradientUnits="userSpaceOnUse" x1="146.45" y1="653.1" x2="139.15" y2="653.1" spreadMethod="pad"><stop offset="0%" stop-color="#596B89"/><stop offset="100%" stop-color="#687996"/></linearGradient><linearGradient id="u" gradientUnits="userSpaceOnUse" x1="148.45" y1="650.3" x2="145.55" y2="650.4" spreadMethod="pad"><stop offset="0%" stop-color="#A8B2C7"/><stop offset="100%" stop-color="#CDD2E0"/></linearGradient><linearGradient id="v" gradientUnits="userSpaceOnUse" x1="111.475" y1="648.35" x2="131.025" y2="648.35" spreadMethod="pad"><stop offset="0%" stop-color="#6D7D9A"/><stop offset="49.804%" stop-color="#939FB8"/><stop offset="100%" stop-color="#6D7D9A"/></linearGradient><linearGradient id="w" gradientUnits="userSpaceOnUse" x1="74.463" y1="610.3" x2="88.037" y2="610.3" spreadMethod="pad"><stop offset="0%" stop-color="#A6B0C6"/><stop offset="100%" stop-color="#8F9DB6"/></linearGradient><linearGradient id="x" gradientUnits="userSpaceOnUse" x1="72.5" y1="609.6" x2="86.4" y2="609.6" spreadMethod="pad"><stop offset="0%" stop-color="#C3CBDB"/><stop offset="100%" stop-color="#BCC3D5"/></linearGradient><linearGradient id="y" gradientUnits="userSpaceOnUse" x1="156.463" y1="610.3" x2="170.037" y2="610.3" spreadMethod="pad"><stop offset="0%" stop-color="#5D6F8D"/><stop offset="100%" stop-color="#586A88"/></linearGradient><linearGradient id="z" gradientUnits="userSpaceOnUse" x1="154.5" y1="609.6" x2="168.4" y2="609.6" spreadMethod="pad"><stop offset="0%" stop-color="#9CA8BF"/><stop offset="100%" stop-color="#8B98B2"/></linearGradient><linearGradient id="A" gradientUnits="userSpaceOnUse" x1="100.5" y1="662.25" x2="138.7" y2="662.25" spreadMethod="pad"><stop offset="0%" stop-color="#B4BDD0"/><stop offset="100%" stop-color="#8997B1"/></linearGradient><linearGradient id="B" gradientUnits="userSpaceOnUse" x1="110.475" y1="660.7" x2="137.325" y2="660.7" spreadMethod="pad"><stop offset="0%" stop-color="#8998B1"/><stop offset="100%" stop-color="#526684"/></linearGradient><linearGradient id="C" gradientUnits="userSpaceOnUse" x1="137.45" y1="626.5" x2="102.05" y2="626.5" spreadMethod="pad"><stop offset="0%" stop-color="#5D708E"/><stop offset="58.824%" stop-color="#7D8CA8"/><stop offset="100%" stop-color="#627391"/></linearGradient><linearGradient id="D" gradientUnits="userSpaceOnUse" x1="177.462" y1="627" x2="140.438" y2="627" spreadMethod="pad"><stop offset="0%" stop-color="#526684"/><stop offset="58.824%" stop-color="#637592"/><stop offset="100%" stop-color="#576987"/></linearGradient><linearGradient id="E" gradientUnits="userSpaceOnUse" x1="100.438" y1="626.3" x2="63.063" y2="626.3" spreadMethod="pad"><stop offset="0%" stop-color="#8896B1"/><stop offset="58.824%" stop-color="#9BA5BD"/><stop offset="100%" stop-color="#8896B1"/></linearGradient><linearGradient id="F" gradientUnits="userSpaceOnUse" x1="103.5" y1="629.15" x2="137.2" y2="629.15" spreadMethod="pad"><stop offset="0%" stop-color="#F89D56"/><stop offset="100%" stop-color="#E67934"/></linearGradient><linearGradient id="G" gradientUnits="userSpaceOnUse" x1="143.488" y1="629.15" x2="176.113" y2="629.15" spreadMethod="pad"><stop offset="0%" stop-color="#D86D33"/><stop offset="100%" stop-color="#A6442D"/></linearGradient><linearGradient id="H" gradientUnits="userSpaceOnUse" x1="65.5" y1="629.15" x2="98.7" y2="629.15" spreadMethod="pad"><stop offset="0%" stop-color="#FDD0AE"/><stop offset="100%" stop-color="#FAB27E"/></linearGradient><linearGradient id="I" gradientUnits="userSpaceOnUse" x1="120.7" y1="547.513" x2="120.7" y2="601.688" spreadMethod="pad"><stop offset="0%" stop-color="#C1C9D9"/><stop offset="63.922%" stop-color="#DADEE8"/><stop offset="100%" stop-color="#BEC5D6"/></linearGradient><linearGradient id="J" gradientUnits="userSpaceOnUse" x1="123.45" y1="530.8" x2="111.05" y2="530.8" spreadMethod="pad"><stop offset="0%" stop-color="#CDD2E0"/><stop offset="100%" stop-color="#FFF"/></linearGradient><linearGradient id="K" gradientUnits="userSpaceOnUse" x1="70.137" y1="622.037" x2="99.063" y2="641.563" spreadMethod="pad"><stop offset="0%" stop-color="#FEE5CD"/><stop offset="100%" stop-color="#FCC298"/></linearGradient><linearGradient id="L" gradientUnits="userSpaceOnUse" x1="107.475" y1="621.513" x2="136.525" y2="640.388" spreadMethod="pad"><stop offset="0%" stop-color="#FBB881"/><stop offset="100%" stop-color="#E67934"/></linearGradient><linearGradient id="M" gradientUnits="userSpaceOnUse" x1="145.338" y1="622.75" x2="175.463" y2="640.15" spreadMethod="pad"><stop offset="0%" stop-color="#F58735"/><stop offset="100%" stop-color="#BF5931"/></linearGradient><path fill="#FFF" fill-opacity="0" d="M284 0H0v320h284V0z" id="N"/><path fill="url(#a)" d="M75.8 655.85q-21.4 5.1-21.4 12.2 0 7.15 21.4 12.2 21.4 5.1 51.55 5.1 30.1 0 51.5-5.1 21.4-5.05 21.4-12.2 0-7.1-21.4-12.2-21.4-5.05-51.5-5.05-30.15 0-51.55 5.05z" id="O"/><path fill="url(#b)" d="M177.75 539.3q-2.85-2.85-6.85-2.85h-32.2V534q0-2.4-5.85-3.9-5.25-1.35-12.8-1.4-7.65-.05-12.85 1.25-5.85 1.45-5.85 4.05v2.45h-30.9q-3.95 0-6.8 2.85-2.85 2.85-2.85 6.85v52.15q0 4 2.85 6.85 2.8 2.8 6.8 2.8H170.9q4 0 6.85-2.8 2.8-2.85 2.8-6.85v-52.15q0-4-2.8-6.85z" id="P"/><path fill="url(#c)" d="M177.75 541q-2.85-2.8-6.85-2.8h-32.2v-2.45q0-1.25-.9-2.15-.85-.9-2.1-.9h-31.35q-1.25 0-2.1.9-.9.9-.9 2.15v2.45h-30.9q-4 0-6.8 2.8-2.85 2.85-2.85 6.85v52.1q0 4 2.85 6.9 2.85 2.85 6.8 2.85H170.9q4 0 6.85-2.85 2.8-2.9 2.8-6.9v-52.1q0-4-2.8-6.85z" id="Q"/><path fill="url(#d)" d="M169.8 547.2q-1.9-1.9-4.6-1.9H76.15q-2.7 0-4.6 1.9-1.9 1.9-1.9 4.6v42.95q0 2.7 1.9 4.6 1.9 1.9 4.6 1.9h89.05q2.7 0 4.6-1.9 1.9-1.9 1.9-4.6V551.8q0-2.7-1.9-4.6z" id="R"/><path fill="url(#e)" d="M81.9 672.05h76.7q15.7 0 22.05-5.75 5.75-5.2 5.45-16.95l-16-15.9H70.3l-15.9 15.9q-.4 11.75 5.4 16.95 6.35 5.75 22.1 5.75z" id="S"/><path fill="url(#f)" d="M69.8 609.25q-6.35 0-9.05 2.8-2.5 2.6-3.2 9.3-.25 2.45-1 7.25l-2 18.75q-.8 7.1 3.6 11.05 4.15 3.7 11.65 3.7h100.9q7.5 0 11.65-3.7 4.4-3.95 3.6-11.05l-2.9-26q-.65-6.7-3.2-9.3-2.7-2.8-9-2.8H69.8z" id="T"/><path fill="url(#g)" d="M63.75 644.1q-1 .8-1.2 2.95l-.6 6.45q-.1 1.45 1 2.5t2.6 1.05H175.8q1.5 0 2.6-1.05t.9-2.5l-.55-6.45q-.2-2.15-1.15-2.95-.75-.65-2.4-.65H66.15q-1.65 0-2.4.65z" id="U"/><path fill="url(#h)" d="M65.2 646.1q-1.55 0-2.65 1.25l-.6 6.15q-.1 1.45 1 2.5t2.6 1.05H175.8q1.5 0 2.6-1.05t.9-2.5l-.55-6.15q-1.1-1.25-2.65-1.25H65.2z" id="V"/><path fill="url(#i)" d="M106.4 646.9v7.2q7.15-.3 14.15-.3h1.05q7.05 0 14.15.3v-7.2q-7.2.3-14.55.3h-.25q-7.35 0-14.55-.3z" id="W"/><path fill="#CDD2E0" d="M91.25 650.5l-1.95-4.05q-2.5-3.4-6.3-3.65-2.85-.15-5.85.95-3.45 1.25-5.05 3.5-2.2 3.3 0 6.4 1.6 2.25 4.6 3.4h9.95q1.25-.75 2.65-2.6l1.95-3.95z" id="X"/><path fill="url(#j)" d="M90.6 649.15l-1.3-2.7q-2.5-3.4-6.3-3.65-2.85-.15-5.85.95-3.45 1.25-5.05 3.5-1.45 2.35-.9 4.4.55 2.3 4.75 3.45 3 .8 6.05.75 4.55-.25 7.6-4.4l1-2.3z" id="Y"/><path fill="#A8B2C7" d="M106.8 646.95q-3.1-.2-4.6-.25-1.05-.05-6.5-.65-4.1-.45-7.15-.45.55 2.95.55 4.9 0 1.95-.55 4.9 5.25-.1 13.65-1.1 1.45-.15 4.6-.25.25-1.9.25-3.55t-.25-3.55z" id="Z"/><path fill="url(#k)" d="M89.55 646.4q.4 2.5.4 4.1 0 1.65-.4 4.1l2.65-.05q.5-2.45.5-4.05 0-1.6-.5-4.05l-2.65-.05z" id="aa"/><path fill="url(#l)" d="M88.55 645.6l.15.95h4l4.75 2.35 9.6.1-.25-2.1-4.6-.2q-4.3-.45-6.5-.7-3.95-.4-7.15-.4z" id="ab"/><path fill="#7585A1" d="M88.7 654.45l-.15.95q5.25-.1 13.65-1.1 1.45-.15 4.6-.25l.25-2.05h-9.6l-4.75 2.45h-4z" id="ac"/><path fill="#FFF" d="M83.25 646.1q2.7.15 4.65 1.25-2.2-2.6-5.25-2.85-2.4-.1-5 .85-2.9 1-4.6 2.9 2.25-1.1 5.15-1.7 2.75-.55 5.05-.45z" id="ad"/><path fill="url(#m)" d="M92.35 646.25l3.9 2.15q.8.6 1.65.7.25.05 1.8.05h7.35l-.1-1.15h-8q-1.7 0-3.15-.5l-3.45-1.25z" id="ae"/><path fill="url(#n)" d="M96.25 652.25l-3.85 2.45 3.4-1.45q1.25-.5 3.25-.5h7.9q.1-.45.1-1.15h-7.3q-1.6 0-1.8.05-.85.1-1.7.6z" id="af"/><path fill="url(#o)" d="M92.85 647.2l.2 6.1q.55-.3 2.7-2.1 1.35-1.15-.65-2.45-1.3-.75-2.25-1.55z" id="ag"/><path fill="#BFC7D8" d="M152.85 646.45l-1.95 4.05 1.95 3.95q1.4 1.9 2.7 2.6h9.95q2.95-1.15 4.55-3.4 2.25-3.1 0-6.4-1.6-2.25-5.05-3.5-3-1.1-5.85-.95-3.8.25-6.3 3.65z" id="ah"/><path fill="url(#p)" d="M152.85 646.45l-1.3 2.7 1 2.3q3.05 4.15 7.6 4.4 3.05.05 6.05-.75 4.2-1.15 4.75-3.45.6-2.2-.9-4.4-1.6-2.25-5.05-3.5-3-1.1-5.85-.95-3.8.25-6.3 3.65z" id="ai"/><path fill="#A8B2C7" d="M153.1 650.5q0-1.95.5-4.9-3.05 0-7.1.45-5.5.6-6.55.65-3.1.2-4.6.25-.25 1.9-.25 3.55t.25 3.55q3.15.1 4.6.25 1.2.1 6.55.65 4.05.4 7.1.45-.5-2.95-.5-4.9z" id="aj"/><path fill="url(#q)" d="M152.2 650.5q0-1.6.4-4.1l-2.65.05q-.45 2.45-.45 4.05 0 1.6.45 4.05l2.65.05q-.4-2.45-.4-4.1z" id="ak"/><path fill="url(#r)" d="M153.5 646.55l.1-.95q-3.2 0-7.1.4-4.3.5-6.55.7l-4.6.2-.25 2.1 9.65-.1 4.7-2.35h4.05z" id="al"/><path fill="#7585A1" d="M153.6 655.4l-.1-.95h-4.05l-4.7-2.45h-9.65l.25 2.05q3.15.1 4.6.25 1.2.1 6.55.65 4.05.4 7.1.45z" id="am"/><path fill="#E7EAF0" d="M154.25 647.35q1.95-1.1 4.7-1.25 2.3-.1 5 .45 2.9.55 5.15 1.7-1.7-1.9-4.6-2.9-2.6-.95-5-.85-3.05.25-5.25 2.85z" id="an"/><path fill="url(#s)" d="M145.9 648.4l3.9-2.15-3.45 1.25q-1.45.5-3.15.5h-8q0 .75-.1 1.15h7.35q1.55 0 1.8-.05.85-.1 1.65-.7z" id="ao"/><path fill="url(#t)" d="M149.75 654.7l-3.85-2.45q-.85-.5-1.7-.6-.2-.05-1.8-.05h-7.3l.1 1.15h7.9q2 0 3.25.5l3.4 1.45z" id="ap"/><path fill="url(#u)" d="M149.1 653.3l.25-6.1q-1.15.9-2.3 1.55-.85.55-1.05 1.15-.25.7.5 1.3 1.7 1.6 2.6 2.1z" id="aq"/><path fill="url(#v)" d="M109.05 647.85q-.45 0-.45.5t.45.5h24.2q.45 0 .45-.5t-.45-.5h-24.2z" id="ar"/><path fill="url(#w)" d="M87.4 611.7q.8 0 1.3-.5.55-.55.55-1.3v-.5q-5.05-.5-10.95-.5-4 0-9.45.35v.65q0 .75.6 1.3.55.5 1.3.5H87.4z" id="as"/><path fill="url(#x)" d="M86 611.1q1.1 0 1.85-.45t.75-1.05q0-.65-.75-1.05-.75-.45-1.85-.45H72.35q-1.05 0-1.8.45-.75.4-.75 1.05 0 .6.75 1.05.75.45 1.8.45H86z" id="at"/><path fill="url(#y)" d="M160.8 608.9q-4.15 0-9.4.35v.65q0 .75.55 1.3.5.5 1.3.5h16.65q.75 0 1.3-.5.55-.55.55-1.3v-.6q-4.1-.4-10.95-.4z" id="au"/><path fill="url(#z)" d="M154.85 608.1q-1.1 0-1.85.45-.75.4-.75 1.05 0 .6.75 1.05.75.45 1.85.45h13.65q1.1 0 1.85-.45t.75-1.05q0-.65-.75-1.05-.75-.45-1.85-.45h-13.65z" id="av"/><path fill="url(#A)" d="M103.1 659.3q-1.25 0-2.15.85-.85.85-.85 2.1 0 1.2.85 2.05.9.9 2.15.9h34.3q1.2 0 2.1-.9.85-.9.85-2.05 0-1.25-.85-2.1-.9-.85-2.1-.85h-34.3z" id="aw"/><path fill="url(#B)" d="M103.1 659.3q-1.2 0-2.05.8-.85.8-.95 2h40.25q-.05-1.2-.9-2t-2.05-.8h-34.3z" id="ax"/><path fill="url(#C)" d="M134.25 638.55q1.4 0 2.4-.9t1-2.15v-17.9q0-1.3-1-2.2-1-.9-2.4-.9h-28.2q-1.45 0-2.4.9-1 .9-1 2.2v17.9q0 1.3 1 2.15 1 .9 2.4.9h28.2z" id="ay"/><path fill="url(#D)" d="M141 638.6q1 .9 2.4.9h30.25q1.4 0 2.45-.95 1.1-.95.9-2.15l-2.35-18.8q-.15-1.35-1.05-2.2-.95-.9-2.35-.9H143.4q-1.45 0-2.4.9-1 .9-1 2.2v18.8q0 1.3 1 2.2z" id="az"/><path fill="url(#E)" d="M99.25 615.4q-.95-.9-2.35-.9H69q-1.35 0-2.3.95-.9.85-1.05 2.15l-2.4 17.4q-.15 1.25.95 2.2 1.05.9 2.45.9H96.9q1.4 0 2.35-.9 1-.9 1-2.2v-17.4q0-1.3-1-2.2z" id="aA"/><path fill="url(#F)" d="M134.25 641.5q1.4 0 2.4-.8 1-.75 1-1.85v-19.4q0-1.05-1-1.85t-2.4-.8h-28.2q-1.4 0-2.4.8t-1 1.85v19.4q0 1.1 1 1.85 1 .8 2.4.8h28.2z" id="aB"/><path fill="url(#G)" d="M141 640.7q1 .8 2.4.8H174q1.45 0 2.45-.8 1.1-.8.95-1.85l-2.3-19.4q-.2-1.1-1.1-1.85-1-.8-2.3-.8h-28.3q-1.4 0-2.4.8t-1 1.85v19.4q0 1.1 1 1.85z" id="aC"/><path fill="url(#H)" d="M99.25 617.6q-.95-.8-2.35-.8H68.65q-1.35 0-2.35.8-.95.75-1.05 1.85l-2.35 19.4q-.15 1.05.9 1.85t2.5.8h30.6q1.4 0 2.35-.8 1-.75 1-1.85v-19.4q0-1.05-1-1.85z" id="aD"/><path fill="url(#I)" d="M169.8 549.1q-1.9-1.9-4.6-1.9H76.15q-2.7 0-4.6 1.9-1.9 1.85-1.9 4.55v43.05q0 2.65 1.9 4.6 1.9 1.9 4.6 1.9h89.05q2.7 0 4.6-1.9 1.9-1.95 1.9-4.6v-43.05q0-2.65-1.9-4.55z" id="aE"/><path fill="url(#J)" d="M124.3 531.45q2.55-.3 2.55-.6 0-.4-2.55-.65-2.6-.3-6.2-.3-3.5 0-6.1.3-2.5.25-2.5.65 0 .3 2.5.6 2.65.25 6.1.25 3.5 0 6.2-.25z" id="aF"/><path fill="url(#K)" d="M100.25 638.85v-18.6h-28.4q-1.4 0-2.35.8-.95.8-1.05 1.9L66.2 641.5h30.7q1.4 0 2.35-.8 1-.75 1-1.85z" id="aG"/><path fill="url(#L)" d="M134.25 641.5q1.4 0 2.4-.8 1-.75 1-1.85v-18.6h-28.1q-1.35 0-2.35.8-1.05.8-1.05 1.9v18.55h28.1z" id="aH"/><path fill="url(#M)" d="M143.6 622.95v18.55H174q1.45 0 2.45-.8 1.1-.8.95-1.85l-2.25-18.6H147q-1.4 0-2.4.8t-1 1.9z" id="aI"/><path fill="#FFF" d="M76.95 563.45l-.6 8.45-8.4.5 8.4.55.6 8.45.55-8.45 8.45-.55-8.45-.5-.55-8.45z" id="aJ"/><path fill="#FFF" d="M112.1 584.25l-.55 6.9-6.9.45 6.9.5.55 6.9.4-6.9 6.9-.5-6.9-.45-.4-6.9z" id="aK"/><path fill="#FFF" d="M74.8 617.75l-.4 6.05-5.95.35 5.95.45.4 5.95.4-5.95 6-.45-6-.35-.4-6.05z" id="aL"/><path fill="#FFF" d="M129.7 625.6l-.55 8.05-8 .5 8 .6.55 8 .6-8 8-.6-8-.5-.6-8.05z" id="aM"/><path fill="#FFF" d="M153.05 623.45l-.3 4.5-4.55.3 4.55.35.3 4.55.3-4.55 4.5-.35-4.5-.3-.3-4.5z" id="aN"/><path fill="#FFF" d="M164.8 617.4l-.4 5.8-5.8.35 5.8.45.4 5.75.4-5.75 5.85-.45-5.85-.35-.4-5.8z" id="aO"/></defs><use xlink:href="#N"/><use xlink:href="#O" transform="matrix(1.56367 0 0 1.56367 -57.086 -767.065)"/><use xlink:href="#P" transform="matrix(1.56367 0 0 1.56367 -57.086 -767.065)"/><use xlink:href="#Q" transform="matrix(1.56367 0 0 1.56367 -57.086 -767.065)"/><use xlink:href="#R" transform="matrix(1.56367 0 0 1.56367 -57.086 -767.065)"/><use xlink:href="#S" transform="matrix(1.56367 0 0 1.56367 -57.086 -767.065)"/><use xlink:href="#T" transform="matrix(1.56367 0 0 1.56367 -57.086 -767.065)"/><use xlink:href="#U" transform="matrix(1.56367 0 0 1.56367 -57.086 -767.065)"/><use xlink:href="#V" transform="matrix(1.56367 0 0 1.56367 -57.086 -767.065)"/><use xlink:href="#W" transform="matrix(1.56367 0 0 1.56367 -57.086 -767.065)"/><use xlink:href="#X" transform="matrix(1.56367 0 0 1.56367 -57.086 -767.065)"/><use xlink:href="#Y" transform="matrix(1.56367 0 0 1.56367 -57.086 -767.065)"/><use xlink:href="#Z" transform="matrix(1.56367 0 0 1.56367 -57.086 -767.065)"/><use xlink:href="#aa" transform="matrix(1.56367 0 0 1.56367 -57.086 -767.065)"/><use xlink:href="#ab" transform="matrix(1.56367 0 0 1.56367 -57.086 -767.065)"/><use xlink:href="#ac" transform="matrix(1.56367 0 0 1.56367 -57.086 -767.065)"/><use xlink:href="#ad" transform="matrix(1.56367 0 0 1.56367 -57.086 -767.065)"/><use xlink:href="#ae" transform="matrix(1.56367 0 0 1.56367 -57.086 -767.065)"/><use xlink:href="#af" transform="matrix(1.56367 0 0 1.56367 -57.086 -767.065)"/><use xlink:href="#ag" transform="matrix(1.56367 0 0 1.56367 -57.086 -767.065)"/><use xlink:href="#ah" transform="matrix(1.56367 0 0 1.56367 -57.086 -767.065)"/><use xlink:href="#ai" transform="matrix(1.56367 0 0 1.56367 -57.086 -767.065)"/><use xlink:href="#aj" transform="matrix(1.56367 0 0 1.56367 -57.086 -767.065)"/><use xlink:href="#ak" transform="matrix(1.56367 0 0 1.56367 -57.086 -767.065)"/><use xlink:href="#al" transform="matrix(1.56367 0 0 1.56367 -57.086 -767.065)"/><use xlink:href="#am" transform="matrix(1.56367 0 0 1.56367 -57.086 -767.065)"/><use xlink:href="#an" transform="matrix(1.56367 0 0 1.56367 -57.086 -767.065)"/><use xlink:href="#ao" transform="matrix(1.56367 0 0 1.56367 -57.086 -767.065)"/><use xlink:href="#ap" transform="matrix(1.56367 0 0 1.56367 -57.086 -767.065)"/><use xlink:href="#aq" transform="matrix(1.56367 0 0 1.56367 -57.086 -767.065)"/><use xlink:href="#ar" transform="matrix(1.56367 0 0 1.56367 -57.086 -767.065)"/><use xlink:href="#as" transform="matrix(1.56367 0 0 1.56367 -57.086 -767.065)"/><use xlink:href="#at" transform="matrix(1.56367 0 0 1.56367 -57.086 -767.065)"/><use xlink:href="#au" transform="matrix(1.56367 0 0 1.56367 -57.086 -767.065)"/><use xlink:href="#av" transform="matrix(1.56367 0 0 1.56367 -57.086 -767.065)"/><use xlink:href="#aw" transform="matrix(1.56367 0 0 1.56367 -57.086 -767.065)"/><use xlink:href="#ax" transform="matrix(1.56367 0 0 1.56367 -57.086 -767.065)"/><use xlink:href="#ay" transform="matrix(1.56367 0 0 1.56367 -57.086 -767.065)"/><use xlink:href="#az" transform="matrix(1.56367 0 0 1.56367 -57.086 -767.065)"/><use xlink:href="#aA" transform="matrix(1.56367 0 0 1.56367 -57.086 -767.065)"/><use xlink:href="#aB" transform="matrix(1.56367 0 0 1.56367 -57.086 -767.065)"/><use xlink:href="#aC" transform="matrix(1.56367 0 0 1.56367 -57.086 -767.065)"/><use xlink:href="#aD" transform="matrix(1.56367 0 0 1.56367 -57.086 -767.065)"/><use xlink:href="#aE" transform="matrix(1.56367 0 0 1.56367 -57.086 -767.065)"/><use xlink:href="#aF" transform="matrix(1.56367 0 0 1.56367 -57.086 -767.065)"/><use xlink:href="#aG" transform="matrix(1.56367 0 0 1.56367 -57.086 -767.065)"/><use xlink:href="#aH" transform="matrix(1.56367 0 0 1.56367 -57.086 -767.065)"/><use xlink:href="#aI" transform="matrix(1.56367 0 0 1.56367 -57.086 -767.065)"/><use xlink:href="#aJ" transform="matrix(1.56367 0 0 1.56367 -57.086 -767.065)"/><use xlink:href="#aK" transform="matrix(1.56367 0 0 1.56367 -57.086 -767.065)"/><use xlink:href="#aL" transform="matrix(1.56367 0 0 1.56367 -57.086 -767.065)"/><use xlink:href="#aM" transform="matrix(1.56367 0 0 1.56367 -57.086 -767.065)"/><use xlink:href="#aN" transform="matrix(1.56367 0 0 1.56367 -57.086 -767.065)"/><use xlink:href="#aO" transform="matrix(1.56367 0 0 1.56367 -57.086 -767.065)"/></svg>