<svg xmlns="http://www.w3.org/2000/svg" xmlns:xlink="http://www.w3.org/1999/xlink" preserveAspectRatio="none" width="284" height="320"><defs><linearGradient id="a" gradientUnits="userSpaceOnUse" x1="68.5" y1="304.95" x2="247.8" y2="304.95" spreadMethod="pad"><stop offset="0%" stop-color="#E7E8E9"/><stop offset="100%" stop-color="#FFF"/></linearGradient><linearGradient id="b" gradientUnits="userSpaceOnUse" x1="70.475" y1="301.75" x2="246.625" y2="301.75" spreadMethod="pad"><stop offset="0%" stop-color="#E7E8E9"/><stop offset="100%" stop-color="#FFF"/></linearGradient><linearGradient id="c" gradientUnits="userSpaceOnUse" x1="183.45" y1="270.85" x2="143.75" y2="270.85" spreadMethod="pad"><stop offset="0%" stop-color="#8C9AB3"/><stop offset="16.078%" stop-color="#647794"/><stop offset="78.039%" stop-color="#B4BDD0"/><stop offset="100%" stop-color="#596B89"/></linearGradient><linearGradient id="d" gradientUnits="userSpaceOnUse" x1="180.462" y1="225.5" x2="145.938" y2="225.5" spreadMethod="pad"><stop offset="0%" stop-color="#A8B2C7"/><stop offset="12.941%" stop-color="#7B89A5"/><stop offset="78.039%" stop-color="#DADEE8"/><stop offset="100%" stop-color="#AFB8CB"/></linearGradient><linearGradient id="e" gradientUnits="userSpaceOnUse" x1="163.1" y1="209.525" x2="163.1" y2="250.375" spreadMethod="pad"><stop offset="0%" stop-color="#687996"/><stop offset="100%" stop-color="#99A5BC"/></linearGradient><linearGradient id="f" gradientUnits="userSpaceOnUse" x1="154.4" y1="219.525" x2="154.4" y2="244.175" spreadMethod="pad"><stop offset="0%" stop-color="#FFF"/><stop offset="100%" stop-color="#CDD2E0"/></linearGradient><linearGradient id="g" gradientUnits="userSpaceOnUse" x1="154.475" y1="212.25" x2="173.325" y2="212.25" spreadMethod="pad"><stop offset="0%" stop-color="#B4BDD0"/><stop offset="100%" stop-color="#E2E5ED"/></linearGradient><linearGradient id="h" gradientUnits="userSpaceOnUse" x1="182.463" y1="237.35" x2="146.338" y2="237.35" spreadMethod="pad"><stop offset="0%" stop-color="#E7EAF0"/><stop offset="100%" stop-color="#BFC7D8"/></linearGradient><linearGradient id="i" gradientUnits="userSpaceOnUse" x1="182.463" y1="189.975" x2="145.037" y2="190.625" spreadMethod="pad"><stop offset="0%" stop-color="#B34E2F"/><stop offset="18.039%" stop-color="#95382B"/><stop offset="100%" stop-color="#B34E2F"/></linearGradient><linearGradient id="j" gradientUnits="userSpaceOnUse" x1="183.438" y1="164.713" x2="144.563" y2="165.388" spreadMethod="pad"><stop offset="0%" stop-color="#D86D33"/><stop offset="18.039%" stop-color="#A7523A"/><stop offset="100%" stop-color="#D86D33"/></linearGradient><linearGradient id="k" gradientUnits="userSpaceOnUse" x1="164.15" y1="184.55" x2="164.15" y2="214.65" spreadMethod="pad"><stop offset="0%" stop-color="#E67934"/><stop offset="83.137%" stop-color="#A6442D"/><stop offset="100%" stop-color="#D86D33"/></linearGradient><linearGradient id="l" gradientUnits="userSpaceOnUse" x1="160.6" y1="193.513" x2="160.6" y2="214.088" spreadMethod="pad"><stop offset="0%" stop-color="#ED954B"/><stop offset="83.137%" stop-color="#C67141"/><stop offset="100%" stop-color="#E58C49"/></linearGradient><linearGradient id="m" gradientUnits="userSpaceOnUse" x1="146.65" y1="196.55" x2="146.65" y2="213.45" spreadMethod="pad"><stop offset="0%" stop-color="#ED954B"/><stop offset="83.137%" stop-color="#C67141"/><stop offset="100%" stop-color="#E58C49"/></linearGradient><linearGradient id="n" gradientUnits="userSpaceOnUse" x1="176.7" y1="198.55" x2="176.7" y2="213.35" spreadMethod="pad"><stop offset="0%" stop-color="#ED954B"/><stop offset="83.137%" stop-color="#C67141"/><stop offset="100%" stop-color="#E58C49"/></linearGradient><linearGradient id="o" gradientUnits="userSpaceOnUse" x1="166.9" y1="196.538" x2="166.9" y2="214.063" spreadMethod="pad"><stop offset="0%" stop-color="#ED954B"/><stop offset="83.137%" stop-color="#C67141"/><stop offset="100%" stop-color="#E58C49"/></linearGradient><linearGradient id="p" gradientUnits="userSpaceOnUse" x1="183.462" y1="293.25" x2="142.938" y2="293.25" spreadMethod="pad"><stop offset="0%" stop-color="#C3CBDB"/><stop offset="16.078%" stop-color="#99A6BD"/><stop offset="69.02%" stop-color="#E2E5ED"/><stop offset="100%" stop-color="#B4BDD0"/></linearGradient><linearGradient id="q" gradientUnits="userSpaceOnUse" x1="184.425" y1="163.75" x2="149.775" y2="164.35" spreadMethod="pad"><stop offset="0%" stop-color="#BF5931"/><stop offset="18.039%" stop-color="#A7523A"/><stop offset="100%" stop-color="#BF5931"/></linearGradient><linearGradient id="r" gradientUnits="userSpaceOnUse" x1="150.475" y1="162.713" x2="169.525" y2="162.388" spreadMethod="pad"><stop offset="0%" stop-color="#F79343"/><stop offset="100%" stop-color="#D86D33"/></linearGradient><linearGradient id="s" gradientUnits="userSpaceOnUse" x1="152.475" y1="288.9" x2="46.025" y2="288.9" spreadMethod="pad"><stop offset="0%" stop-color="#687996"/><stop offset="16.078%" stop-color="#4D5C76"/><stop offset="78.039%" stop-color="#A8B2C7"/><stop offset="100%" stop-color="#596B89"/></linearGradient><linearGradient id="t" gradientUnits="userSpaceOnUse" x1="149.463" y1="257" x2="49.137" y2="257" spreadMethod="pad"><stop offset="0%" stop-color="#C7CDDC"/><stop offset="80%" stop-color="#FFF"/><stop offset="100%" stop-color="#DADEE8"/></linearGradient><linearGradient id="u" gradientUnits="userSpaceOnUse" x1="147.45" y1="239.5" x2="52.15" y2="239.5" spreadMethod="pad"><stop offset="0%" stop-color="#C7CDDC"/><stop offset="81.961%" stop-color="#FFF"/><stop offset="100%" stop-color="#DADEE8"/></linearGradient><linearGradient id="v" gradientUnits="userSpaceOnUse" x1="69.463" y1="239.1" x2="139.838" y2="239.1" spreadMethod="pad"><stop offset="0%" stop-color="#A8B2C7"/><stop offset="100%" stop-color="#CDD2E0"/></linearGradient><linearGradient id="w" gradientUnits="userSpaceOnUse" x1="150.475" y1="258.95" x2="49.325" y2="258.95" spreadMethod="pad"><stop offset="0%" stop-color="#BAC2D3"/><stop offset="12.941%" stop-color="#96A1BA"/><stop offset="80%" stop-color="#E7EAF0"/><stop offset="100%" stop-color="#BEC4D5"/></linearGradient><linearGradient id="x" gradientUnits="userSpaceOnUse" x1="152.463" y1="262" x2="47.237" y2="262" spreadMethod="pad"><stop offset="0%" stop-color="#B4BDD0"/><stop offset="12.941%" stop-color="#7B89A5"/><stop offset="78.039%" stop-color="#DADEE8"/><stop offset="100%" stop-color="#B4BDD0"/></linearGradient><linearGradient id="y" gradientUnits="userSpaceOnUse" x1="151.463" y1="261.25" x2="47.037" y2="261.25" spreadMethod="pad"><stop offset="0%" stop-color="#D1D5E2"/><stop offset="12.941%" stop-color="#A8B2C7"/><stop offset="78.824%" stop-color="#FFF"/><stop offset="100%" stop-color="#D6D9E5"/></linearGradient><linearGradient id="z" gradientUnits="userSpaceOnUse" x1="98.487" y1="256.65" x2="47.013" y2="256.65" spreadMethod="pad"><stop offset="0%" stop-color="#B4BDD0"/><stop offset="58.824%" stop-color="#DADEE8"/><stop offset="100%" stop-color="#B4BDD0"/></linearGradient><linearGradient id="A" gradientUnits="userSpaceOnUse" x1="98.475" y1="255.9" x2="47.225" y2="255.9" spreadMethod="pad"><stop offset="0%" stop-color="#CDD2E0"/><stop offset="58.039%" stop-color="#FFF"/><stop offset="100%" stop-color="#CDD2E0"/></linearGradient><radialGradient id="B" gradientUnits="userSpaceOnUse" cx="0" cy="0" r="13.3" fx="0" fy="0" gradientTransform="matrix(1 0 0 -1 98.5 226.5)" spreadMethod="pad"><stop offset="0%" stop-color="#F89D56"/><stop offset="100%" stop-color="#D86D33"/></radialGradient><radialGradient id="C" gradientUnits="userSpaceOnUse" cx="0" cy="0" r="13.8" fx="0" fy="0" gradientTransform="matrix(1 0 0 -1 112.5 228.55)" spreadMethod="pad"><stop offset="0%" stop-color="#FCC696"/><stop offset="100%" stop-color="#F58735"/></radialGradient><radialGradient id="D" gradientUnits="userSpaceOnUse" cx="0" cy="0" r="13.3" fx="0" fy="0" gradientTransform="matrix(1 0 0 -1 83.5 228.5)" spreadMethod="pad"><stop offset="0%" stop-color="#FCC696"/><stop offset="100%" stop-color="#F58735"/></radialGradient><radialGradient id="E" gradientUnits="userSpaceOnUse" cx="0" cy="0" r="13.525" fx="0" fy="0" gradientTransform="matrix(1 0 0 -1 96.45 234.5)" spreadMethod="pad"><stop offset="0%" stop-color="#F79343"/><stop offset="100%" stop-color="#BF5931"/></radialGradient><radialGradient id="F" gradientUnits="userSpaceOnUse" cx="0" cy="0" r="13.313" fx="0" fy="0" gradientTransform="matrix(1 0 0 -1 69.5 233.55)" spreadMethod="pad"><stop offset="0%" stop-color="#FBB881"/><stop offset="100%" stop-color="#E67934"/></radialGradient><radialGradient id="G" gradientUnits="userSpaceOnUse" cx="0" cy="0" r="13.3" fx="0" fy="0" gradientTransform="matrix(1 0 0 -1 84.45 242.5)" spreadMethod="pad"><stop offset="0%" stop-color="#F89D56"/><stop offset="100%" stop-color="#D86D33"/></radialGradient><radialGradient id="H" gradientUnits="userSpaceOnUse" cx="0" cy="0" r="13.075" fx="0" fy="0" gradientTransform="matrix(1 0 0 -1 127.5 232.5)" spreadMethod="pad"><stop offset="0%" stop-color="#FDD2AD"/><stop offset="100%" stop-color="#F79343"/></radialGradient><radialGradient id="I" gradientUnits="userSpaceOnUse" cx="0" cy="0" r="12.225" fx="0" fy="0" gradientTransform="matrix(1 0 0 -1 135.5 241.5)" spreadMethod="pad"><stop offset="0%" stop-color="#F89D56"/><stop offset="100%" stop-color="#D86D33"/></radialGradient><radialGradient id="J" gradientUnits="userSpaceOnUse" cx="0" cy="0" r="13.3" fx="0" fy="0" gradientTransform="matrix(1 0 0 -1 116.45 238.5)" spreadMethod="pad"><stop offset="0%" stop-color="#F89D56"/><stop offset="100%" stop-color="#D86D33"/></radialGradient><radialGradient id="K" gradientUnits="userSpaceOnUse" cx="0" cy="0" r="13.075" fx="0" fy="0" gradientTransform="matrix(1 0 0 -1 104.5 243.55)" spreadMethod="pad"><stop offset="0%" stop-color="#FDD2AD"/><stop offset="100%" stop-color="#F79343"/></radialGradient><radialGradient id="L" gradientUnits="userSpaceOnUse" cx="0" cy="0" r="13.313" fx="0" fy="0" gradientTransform="matrix(1 0 0 -1 93.45 250.55)" spreadMethod="pad"><stop offset="0%" stop-color="#FBB881"/><stop offset="100%" stop-color="#F58735"/></radialGradient><radialGradient id="M" gradientUnits="userSpaceOnUse" cx="0" cy="0" r="14.2" fx="0" fy="0" gradientTransform="matrix(1 0 0 -1 124.5 245.5)" spreadMethod="pad"><stop offset="0%" stop-color="#F79343"/><stop offset="100%" stop-color="#BF5931"/></radialGradient><radialGradient id="N" gradientUnits="userSpaceOnUse" cx="0" cy="0" r="11.963" fx="0" fy="0" gradientTransform="matrix(1 0 0 -1 117.5 250.5)" spreadMethod="pad"><stop offset="0%" stop-color="#FAAA6B"/><stop offset="100%" stop-color="#E67934"/></radialGradient><radialGradient id="O" gradientUnits="userSpaceOnUse" cx="0" cy="0" r="12.525" fx="0" fy="0" gradientTransform="matrix(1 0 0 -1 59.45 242.5)" spreadMethod="pad"><stop offset="0%" stop-color="#F89D56"/><stop offset="100%" stop-color="#D86D33"/></radialGradient><radialGradient id="P" gradientUnits="userSpaceOnUse" cx="0" cy="0" r="13.525" fx="0" fy="0" gradientTransform="matrix(1 0 0 -1 67.45 245.5)" spreadMethod="pad"><stop offset="0%" stop-color="#FDD2AD"/><stop offset="100%" stop-color="#F79343"/></radialGradient><radialGradient id="Q" gradientUnits="userSpaceOnUse" cx="0" cy="0" r="12.525" fx="0" fy="0" gradientTransform="matrix(1 0 0 -1 76.5 250.5)" spreadMethod="pad"><stop offset="0%" stop-color="#F79343"/><stop offset="100%" stop-color="#BF5931"/></radialGradient><radialGradient id="R" gradientUnits="userSpaceOnUse" cx="0" cy="0" r="11.3" fx="0" fy="0" gradientTransform="matrix(1 0 0 -1 104.5 253.5)" spreadMethod="pad"><stop offset="0%" stop-color="#F79343"/><stop offset="100%" stop-color="#BF5931"/></radialGradient><linearGradient id="S" gradientUnits="userSpaceOnUse" x1="152.475" y1="297.75" x2="46.025" y2="297.75" spreadMethod="pad"><stop offset="0%" stop-color="#BFC7D8"/><stop offset="16.078%" stop-color="#939FB8"/><stop offset="76.863%" stop-color="#E2E5ED"/><stop offset="100%" stop-color="#AFB8CB"/></linearGradient><linearGradient id="T" gradientUnits="userSpaceOnUse" x1="91.375" y1="246.588" x2="94.025" y2="250.513" spreadMethod="pad"><stop offset="0%" stop-color="#FCC696"/><stop offset="100%" stop-color="#FEE0C6"/></linearGradient><linearGradient id="U" gradientUnits="userSpaceOnUse" x1="102.875" y1="238.9" x2="104.825" y2="241.8" spreadMethod="pad"><stop offset="0%" stop-color="#FDCEA7"/><stop offset="100%" stop-color="#FEE5CE"/></linearGradient><linearGradient id="V" gradientUnits="userSpaceOnUse" x1="102.612" y1="251.425" x2="104.888" y2="254.775" spreadMethod="pad"><stop offset="0%" stop-color="#F79343"/><stop offset="100%" stop-color="#FBB881"/></linearGradient><linearGradient id="W" gradientUnits="userSpaceOnUse" x1="82.563" y1="238.513" x2="84.438" y2="241.287" spreadMethod="pad"><stop offset="0%" stop-color="#F7964A"/><stop offset="100%" stop-color="#FBB881"/></linearGradient><radialGradient id="X" gradientUnits="userSpaceOnUse" cx="0" cy="0" r="3.462" fx="0" fy="0" gradientTransform="matrix(1 0 0 -1 58.5 285.5)" spreadMethod="pad"><stop offset="0%" stop-color="#FFF"/><stop offset="100%" stop-color="#D3D8E5"/></radialGradient><radialGradient id="Y" gradientUnits="userSpaceOnUse" cx="0" cy="0" r="2.537" fx="0" fy="0" gradientTransform="matrix(1 0 0 -1 69.45 296.5)" spreadMethod="pad"><stop offset="0%" stop-color="#FFF"/><stop offset="100%" stop-color="#D3D8E5"/></radialGradient><radialGradient id="Z" gradientUnits="userSpaceOnUse" cx="0" cy="0" r="3.588" fx="0" fy="0" gradientTransform="matrix(1 0 0 -1 178.5 247.55)" spreadMethod="pad"><stop offset="0%" stop-color="#FFF"/><stop offset="100%" stop-color="#D3D8E5"/></radialGradient><path fill="#FFF" fill-opacity="0" d="M284 0H0v320h284V0z" id="aa"/><path fill="url(#a)" d="M149.7 285.6q-18.25-8.05-43.95-8.05-25.75 0-44.05 8.05-18.3 8.05-18.3 19.35 0 11.35 18.3 19.4 18.3 8.05 44.05 8.05 25.7 0 43.95-8.05 18.3-8.05 18.3-19.4 0-11.3-18.3-19.35z" id="ab"/><path fill="url(#b)" d="M136.85 301.75q0 6.4 11.35 11 11.4 4.6 27.3 4.6 15.95 0 27.3-4.6 11.35-4.6 11.35-11 0-6.45-11.35-11.05-11.35-4.6-27.3-4.6-15.95 0-27.3 4.6-11.35 4.6-11.35 11.05z" id="ac"/><path fill="url(#c)" d="M148.35 237.2l-5.3-.55v62.85q.15 2.05 6.05 3.75 6.2 1.8 14.25 1.8 8 0 14.2-1.8 5.9-1.7 6-3.75v-62.85l-7.25.7-10.45.25-17.5-.4z" id="ad"/><path fill="url(#d)" d="M146 211.6V238l15.25 1.45L180.6 238v-26.2l-6.15 2.1-8.95.55-15-.9-4.5-1.95z" id="ae"/><path fill="url(#e)" d="M158.95 213.9v25.6h8.35v-25.55l-1.35.45-7-.5z" id="af"/><path fill="url(#f)" d="M149.45 213.1v25.35l9.95.95v-25.5l-8.35-.35-1.6-.45z" id="ag"/><path fill="url(#g)" d="M152.95 212.95q-4.35-.75-4.35-1.45 0-.45.35-.6.25-.1 1.05-.3l-.05-.9q-2.6.65-2.9.75-1.05.4-1.05 1.2 0 1.05 5.1 2.1 5.55 1.1 12.3 1.1 6.8 0 12.3-1.1 5.05-1.05 5.05-2.1 0-.8-1.05-1.2-.3-.1-2.9-.75v.9q1.35.4 1.35.9 0 .95-4.3 1.6-4.35.65-10.45.65-5.7 0-10.45-.8z" id="ah"/><path fill="url(#h)" d="M151.3 238.15q-5.05-.75-5.3-1.8v-1.8q-2.95.95-2.95 1.9 0 1.5 5.95 2.6 5.95 1.05 14.35 1.05 8.35 0 14.35-1.05 5.95-1.1 5.95-2.6 0-.95-3.05-1.9v1.8q-.2 1.05-5.2 1.8-5.05.75-12.05.75-7 0-12.05-.75z" id="ai"/><path fill="url(#i)" d="M187.2 189.5q1.45-9.2 1-22.2l-24.8 2.1-24.85-2.1q-.35 13.25 1.05 22.25 1.9 12.4 7.45 20.3 1.6 2.2 2.45 2.55 1.75.6 5.45.95 3.9.4 8.45.4 8.5 0 13.1-1.15.75-.15 1.65-.8.45-.4 1.55-1.95 5.55-8 7.5-20.35z" id="aj"/><path fill="url(#j)" d="M163.4 169.9q16.35 0 17.5-.05 7.35-.35 7.3-2.35 0-1.7-4-3.7-4.15-2.1-10.2-3.35-2.1-.4-5.1-.5-1-.05-5.5-.05-7.25 0-13.6 1.45-5.9 1.35-9 3.45-2.25 1.5-2.25 2.7 0 2 7.3 2.35 1.15.05 17.55.05z" id="ak"/><path fill="url(#k)" d="M167.1 213.7l1.3-.1q3.2-11 3.15-24.4-1.1 14.75-4.45 24.5m-3.6.05h1.85q-5.3-14.9-3.95-42.7-2.65 25.1 2.1 42.7m4.95-.15l1.65-.05.15-.1h.05l1.8-.15q6.35-13.15 5.85-33.25-1 21.15-7.2 32.05 4.8-16.55 3.7-40.35-.2 27.65-6 41.85m-8.85.1l1.65.05Q156.1 201.5 155 178.9q-.35 20.15 4.6 34.8m-11.8-37.2q-.35 11.15 1.65 20.55 1.9 9.1 5.7 15.6l.05.25h.05q.1.15.3.5l2.9.2q-1.2-1.4-2.4-3.15-5.55-14.3-6.45-39.9-.45 18.25 2.8 32.4-3.85-10.35-4.6-26.45m-4.6-3q-.35 12.75 2.25 23.15 2.5 10 7.4 16.45l1.65.2q-4.55-5.1-6.95-12.1-3.55-10.2-4.35-27.7m40 21.3q2.25-10.75 1.9-23.45-.8 16.65-3.75 27.45-2.3 8.5-6.2 14.1l1.35-.3q.1 0 .15-.1 4.35-7.35 6.55-17.7z" id="al"/><path fill="url(#l)" d="M159.25 202.5q.75 4.95 2.65 11.25h1.1q-1.85-4.15-2.85-9.55-1.3-7.25-1.9-19.95-.15 10.6 1 18.25z" id="am"/><path fill="url(#m)" d="M149.6 212.4l1.7.4q-3.35-3.95-4.95-7.45-2.65-5.9-4.4-16.8 1.25 14.4 7.65 23.85z" id="an"/><path fill="url(#n)" d="M173.2 213.15l1-.1q4.9-8.85 6-21.1-1.45 8.6-3.35 13.95-1.5 4.25-3.65 7.25z" id="ao"/><path fill="url(#o)" d="M165.95 213.7h.5q2.05-11.8 1.2-25.15.15 15.55-1.7 25.15z" id="ap"/><path fill="url(#p)" d="M149.85 290.85q-5.6-1.4-6.8-2.65v5.85q1.2 1.25 6.8 2.65 6.6 1.6 13.55 1.6 7.2 0 13.3-1.35 5.5-1.2 6.85-2.65v-5.8q-1.35 1.45-6.85 2.65-6.05 1.3-13.3 1.3-6.95 0-13.55-1.6z" id="aq"/><path fill="#AFB8CB" d="M156.35 291.95v5.95q2.7.3 7.05.3h.25v-5.75h-.25q-1.4 0-7.05-.5z" id="ar"/><path fill="#FFF" d="M156.7 292q-3.85-.3-8.6-1.3v5.8q5.45 1.15 8.6 1.4V292z" id="as"/><path fill="url(#q)" d="M168.75 168.25q5.6 0 14.9.05 3-.05 3.65-1.2.7-1.2-2.05-2.8-4.2-2.5-11.4-3.85-4.1-.85-10.45-.85-5.6 0-12.9 1.65-3.85 1.5-4.8 2.1-1.75 1-1.75 2.5 0 1.55 7.25 2.05 5.05.35 17.55.35z" id="at"/><path fill="url(#r)" d="M174.3 160.55q-5.65-1.1-10.9-1.1-7.25 0-13.85 1.75-5.85 1.5-9.05 3.75-.1 1 .65.95.8-.05 1.95-1.25.4-.35 1.45 0 .55.15 1.65.55 1.3.4 2.95 0 .6-.1 1.45-1.15.9-1.1 1.65-1.35.5-.15 1.45.65.8.65 1.45 0 .7-.7 1.9-.45 2.15.4 2.2.4 1.15 0 1.55-1 .4-1.15.75-1.25 1-.2 2.2.2 1.4.45 1.9.45.2 0 2.1-.95 1.45-.75 2.5-.05.65.4 1.65.55 1.1.1 1.75-.2.45-.2.65-.5z" id="au"/><path fill="url(#s)" d="M154.05 295.1v-38.95H45.4v38.95q.35 11.05 16.2 18.8 15.9 7.8 38.15 7.8t38.15-7.8q15.9-7.75 16.15-18.8z" id="av"/><path fill="url(#t)" d="M138.1 276q15.95-7.9 15.95-19.05 0-11.1-15.95-19-15.9-7.85-38.35-7.85-22.5 0-38.4 7.85-15.95 7.85-15.95 19T61.35 276q15.95 7.9 38.4 7.9t38.35-7.9z" id="aw"/><path fill="url(#u)" d="M151.3 239.5q0-10.05-15.1-17.2-15.2-7.2-36.45-7.2-21.3 0-36.45 7.2-15.15 7.15-15.15 17.2 0 10.05 15.15 17.25 15.15 7.2 36.45 7.2 21.25 0 36.45-7.2 15.1-7.2 15.1-17.25z" id="ax"/><path fill="url(#v)" d="M147.8 239.1q0-9.05-14.1-15.4-14.1-6.4-33.95-6.4-19.9 0-34 6.4-14.1 6.35-14.1 15.4 0 9 14.1 15.4 14.15 6.4 34 6.4t33.95-6.4q14.1-6.4 14.1-15.4z" id="ay"/><path fill="#CC6332" d="M131.3 248.45v7.05q3.9-1.4 7.65-3.75v-3.3h-7.65z" id="az"/><path fill="url(#w)" d="M48.15 238.45v1.05l.05-1.05h-.05m87.9 34q15.05-7.1 15.25-17.1v-15.6q-.186 9.889-15.1 17-15.2 7.2-36.45 7.2-21.3 0-36.45-7.2-14.963-7.111-15.15-17v15.6q.25 10 15.35 17.1 15.1 7.05 36.25 7.05 21.2 0 36.3-7.05z" id="aA"/><path fill="url(#x)" d="M99.7 273.1h-2.4q-10 0-19-1.75-8.8-1.65-15.45-4.75-8.3-3.85-11.75-8.95-1.55-2.45-1.7-2.75-1.4-2.75-1.25-5.15-3 5.5 2.6 11.85 4.3 4.85 10.8 7.8 7 3.25 16.1 5 9.35 1.85 19.65 1.85 1.65 0 2.45-.1 15.6-.3 28.8-4.55 12.85-4.1 19.45-10.7 1.8-1.8 3.1-4.1 1.05-2 1.2-4.7.2-2.95-.9-4.35-.4 2.1-1.1 3.9-.35.95-1 2.35-1.15 2.3-3.55 4.7-6.25 6.15-18.45 10.05-12.6 4-27.6 4.35z" id="aB"/><path fill="url(#y)" d="M99.7 273.1h-2.4q-10 0-19-1.75-8.8-1.65-15.45-4.75-8.3-3.85-11.75-8.95-1.55-2.45-1.7-2.75-1.4-2.75-1.25-5.15-.65 1.25-.8 2.1 0 4.65 5.15 9.65 4.1 3.95 9.1 6.3 7 3.3 16 5.15 9.3 1.85 19.55 1.85l2.45-.05q15.45-.35 28.55-4.65 12.7-4.2 19.3-10.9 1.7-1.85 3.05-4.2.7-1.25 1.05-3.15.35-1.85.2-3.55l-.35-.55q-.4 2.1-1.1 3.9-.35.95-1 2.35-1.15 2.3-3.55 4.7-6.25 6.15-18.45 10.05-12.6 4-27.6 4.35z" id="aC"/><path fill="url(#z)" d="M95 269.85q1.5 0 2.5-.45.95-.45 1.1-1-.25-.5-1.5-.85-1.3-.4-3-.4-16.55-.25-31.25-6.95-8.35-3.95-11.75-8.95-1.65-2.6-1.7-2.7-1.4-2.75-1.25-5.15-3 5.45 2.6 11.8 4.3 4.85 10.8 7.85 6.5 3.05 15.1 4.8 8.7 1.8 18.35 2z" id="aD"/><path fill="url(#A)" d="M98.6 268.4q-1.2-1.45-3.25-1.75h-.85q-9.1-.2-17.45-1.9-8-1.7-14.2-4.55-8.35-3.95-11.75-8.95-1.65-2.6-1.7-2.7-1.4-2.75-1.25-5.15-.55 1.05-.8 2.05 0 4.65 5.15 9.65 4.1 3.95 9.1 6.3 7 3.3 16 5.15 9.3 1.85 19.55 1.85h1.45z" id="aE"/><path fill="url(#B)" d="M100.65 219.85q-3.75 0-6.4 2.65-2.7 2.65-2.7 6.45 0 3.7 2.7 6.35 2.65 2.65 6.4 2.65 3.7 0 6.35-2.65 2.65-2.65 2.65-6.35 0-3.8-2.65-6.45-2.65-2.65-6.35-2.65z" id="aF"/><path fill="url(#C)" d="M121.95 237.85q2.75-2.8 2.75-6.7 0-3.85-2.75-6.6-2.8-2.75-6.65-2.75-3.85 0-6.65 2.75-2.75 2.75-2.75 6.6 0 3.9 2.75 6.7 2.8 2.75 6.65 2.75 3.85 0 6.65-2.75z" id="aG"/><path fill="url(#D)" d="M85.7 239.95q3.75 0 6.4-2.65 2.6-2.65 2.6-6.35 0-3.7-2.6-6.4-2.65-2.65-6.4-2.65-3.75 0-6.4 2.65-2.65 2.7-2.65 6.4t2.65 6.35q2.65 2.65 6.4 2.65z" id="aH"/><path fill="url(#E)" d="M99.2 228.3q-3.8 0-6.5 2.7-2.75 2.7-2.75 6.5t2.75 6.5q2.7 2.75 6.5 2.75t6.45-2.75q2.7-2.7 2.7-6.5t-2.7-6.5q-2.65-2.7-6.45-2.7z" id="aI"/><path fill="url(#F)" d="M71.45 226.9q-3.75 0-6.45 2.7-2.75 2.75-2.75 6.55T65 242.6q2.7 2.7 6.45 2.7 3.8 0 6.45-2.7 2.7-2.65 2.7-6.45 0-3.8-2.7-6.55-2.65-2.7-6.45-2.7z" id="aJ"/><path fill="url(#G)" d="M95.5 245q0-3.75-2.65-6.4-2.65-2.7-6.4-2.7-3.7 0-6.35 2.7-2.65 2.7-2.65 6.4t2.65 6.35q2.65 2.65 6.35 2.65 3.8 0 6.4-2.65 2.65-2.6 2.65-6.35z" id="aK"/><path fill="url(#H)" d="M129.55 226.55q-3.65 0-6.25 2.65t-2.6 6.3q0 3.65 2.6 6.25t6.25 2.6q3.7 0 6.3-2.6 2.6-2.6 2.6-6.25 0-3.7-2.6-6.3-2.65-2.65-6.3-2.65z" id="aL"/><path fill="url(#I)" d="M137.5 235.9q-3.45 0-5.9 2.45t-2.45 5.85q0 3.45 2.45 5.9t5.9 2.45h.05q5.5-3.2 8.1-7l.1-1.35q0-3.4-2.4-5.85-2.45-2.45-5.85-2.45z" id="aM"/><path fill="url(#J)" d="M125.1 247.1q2.65-2.65 2.65-6.4 0-3.75-2.65-6.35-2.65-2.65-6.4-2.65-3.7 0-6.4 2.65-2.65 2.6-2.65 6.35 0 3.75 2.65 6.4 2.7 2.65 6.4 2.65t6.4-2.65z" id="aN"/><path fill="url(#K)" d="M106.95 237.1q-3.65 0-6.25 2.6t-2.6 6.25q0 3.7 2.6 6.3 2.6 2.6 6.25 2.6 3.7 0 6.3-2.6 2.65-2.65 2.65-6.3t-2.65-6.25q-2.6-2.6-6.3-2.6z" id="aO"/><path fill="url(#L)" d="M89 247.7q-2.9 2.95-2.9 7.1 0 3.15 1.65 5.45 5.5.65 12 .65l4.2-.05q2.1-2.65 2.1-6.05 0-4.15-2.95-7.1-2.95-2.9-7.1-2.9-4.1 0-7 2.9z" id="aP"/><path fill="url(#M)" d="M133.75 241.2q-2.85-2.85-6.85-2.85-3.95 0-6.8 2.85-2.85 2.85-2.85 6.8 0 3.55 2.3 6.3 2.3 2.7 5.75 3.3 5.55-1.7 9-3.4 2.25-2.55 2.25-6.2 0-4-2.8-6.8z" id="aQ"/><path fill="url(#N)" d="M112.85 247.95q-2.65 2.7-2.65 6.4 0 3.25 2.1 5.85 8.65-1.15 15.7-3.45.25-1.25.25-2.4 0-3.7-2.6-6.4-2.65-2.65-6.4-2.65-3.75 0-6.4 2.65z" id="aR"/><path fill="url(#O)" d="M61.55 236q-3.45 0-5.95 2.4-2.45 2.35-2.65 5.8 2.75 4.95 9.65 8.7 3.15-.35 5.3-2.75 2.15-2.45 2.15-5.65 0-3.5-2.5-6t-6-2.5z" id="aS"/><path fill="url(#P)" d="M70.3 238.45q-3.8 0-6.5 2.7t-2.7 6.5q0 3.05 1.8 5.4 4 2.25 8.7 3.75 3.4-.5 5.65-3.1 2.3-2.6 2.3-6.05 0-3.8-2.7-6.5t-6.55-2.7z" id="aT"/><path fill="url(#Q)" d="M87.25 260.2q1.3-2.35 1.3-4.85 0-3.95-2.85-6.8-2.8-2.85-6.8-2.85t-6.85 2.85q-2.8 2.8-2.8 6.8v.6q7.75 2.85 18 4.25z" id="aU"/><path fill="url(#R)" d="M106.8 249.6q-3.8 0-6.55 2.75-2.7 2.7-2.7 6.55 0 1.15.2 2h2q9 0 16.35-1.3l.1-.7q0-3.8-2.75-6.55-2.8-2.75-6.65-2.75z" id="aV"/><path fill="url(#S)" d="M154.05 292.45V280.7q-.25 11.5-16.15 19.65-15.9 8.15-38.15 8.15t-38.15-8.15q-15.85-8.1-16.2-19.65v11.75q4.05 9.65 19.15 15.95 15.35 6.35 35.2 6.35t35.2-6.35q15.15-6.3 19.1-15.95z" id="aW"/><path fill="#B4BDD0" d="M78.3 306.2q-4-.95-7.25-1.95v6.5q3 .9 7.25 1.85v-6.4z" id="aX"/><path fill="#FFF" d="M62.85 307.65q4.05 1.75 8.6 3.15v-6.4q-5-1.6-8.6-3.45v6.7z" id="aY"/><path fill="url(#T)" d="M95.35 247q-.35-.65-1.4-.65-1.05 0-2.2.65-1.1.7-1.6 1.55-.55.95-.2 1.55.4.65 1.45.65 1.05 0 2.15-.65 1.15-.65 1.65-1.55.55-.85.15-1.55z" id="aZ"/><path fill="url(#U)" d="M103.15 239.15q-.8.5-1.2 1.15-.35.65-.1 1.15.25.5 1.05.5.75 0 1.6-.5.8-.5 1.2-1.15.35-.65.1-1.15-.25-.5-1-.5-.8 0-1.65.5z" id="ba"/><path fill="url(#V)" d="M102.85 251.55q-.95.5-1.45 1.35-.45.75-.15 1.3.35.55 1.25.55t1.85-.55q.95-.5 1.4-1.3.45-.8.2-1.35-.35-.5-1.25-.5t-1.85.5z" id="bb"/><path fill="url(#W)" d="M82.55 238.3q-.8.5-1.15 1.15-.4.65-.15 1.1.25.5 1 .5t1.55-.5q.8-.45 1.2-1.1.35-.65.1-1.15-.3-.4-1.05-.4t-1.5.4z" id="bc"/><path fill="#F89D56" d="M143.05 169.45q-.35 0-.65.25-.25.3-.25.65 0 .4.25.65.3.25.65.25.4 0 .65-.25t.25-.65q0-.35-.25-.65-.25-.25-.65-.25z" id="bd"/><path fill="#FCC696" d="M145 164.55q-.4 0-.65.25-.3.3-.3.65 0 .35.3.65.25.25.65.25.3 0 .6-.25.25-.3.25-.65 0-.35-.25-.65-.3-.25-.6-.25z" id="be"/><path fill="#FCC696" d="M146.2 163.7q-.85 0-.85.85 0 .4.25.7.25.25.6.25.4 0 .65-.25.3-.3.3-.7 0-.35-.3-.6-.25-.25-.65-.25z" id="bf"/><path fill="#FCC696" d="M143.7 163.85q-.35 0-.65.3-.3.3-.3.65 0 .3.3.6.3.25.65.25.35 0 .6-.25.25-.3.25-.6 0-.4-.25-.65-.25-.3-.6-.3z" id="bg"/><path fill="#FCC696" d="M141.25 165.95q-.9 0-.9.85 0 .4.25.65.3.3.65.3.35 0 .65-.3.25-.25.25-.65 0-.85-.9-.85z" id="bh"/><path fill="#FCC696" d="M140.85 168.75q-.35 0-.6.3-.25.25-.25.65 0 .85.85.85.95 0 .95-.85 0-.4-.25-.65-.3-.3-.7-.3z" id="bi"/><path fill="#FCC696" d="M143.4 166.9q-.95 0-.95.85 0 .4.3.65.3.3.65.3.4 0 .65-.3.3-.25.3-.65 0-.35-.3-.6-.25-.25-.65-.25z" id="bj"/><path fill="#FCC696" d="M147 167.1q-.85 0-.85.95 0 .85.85.85.4 0 .65-.25.3-.25.3-.6 0-.4-.3-.7-.25-.25-.65-.25z" id="bk"/><path fill="#FCC696" d="M148.35 165.2q-.35 0-.6.3-.25.25-.25.65 0 .85.85.85.4 0 .65-.25.3-.25.3-.6t-.3-.65q-.25-.3-.65-.3z" id="bl"/><path fill="#FCC696" d="M148.6 162.4q-.95 0-.95.9 0 .35.3.65.25.25.65.25.85 0 .85-.9t-.85-.9z" id="bm"/><path fill="#FCC696" d="M151.25 162.2q-.35 0-.65.3-.3.3-.3.65 0 .35.3.6.25.25.65.25.85 0 .85-.85 0-.4-.25-.65-.25-.3-.6-.3z" id="bn"/><path fill="#FCC696" d="M150.4 163.9q-.4 0-.7.3-.25.25-.25.65t.25.65q.3.25.7.25.85 0 .85-.9 0-.4-.25-.65-.25-.3-.6-.3z" id="bo"/><path fill="#FCC696" d="M154.4 164.3q-.35 0-.65.25-.25.25-.25.6 0 .4.25.65.3.3.65.3.35 0 .6-.3.25-.25.25-.65 0-.35-.25-.6t-.6-.25z" id="bp"/><path fill="#FCC696" d="M153.9 162.4q-.95 0-.95.9 0 .35.3.65.25.25.65.25.85 0 .85-.9t-.85-.9z" id="bq"/><path fill="#FCC696" d="M160.1 162.9q-.8 0-.8.75 0 .3.25.55.2.25.55.25.35 0 .55-.25.25-.25.25-.55 0-.75-.8-.75z" id="br"/><path fill="#FCC696" d="M156.8 161.35q-.35 0-.65.25-.25.3-.25.65 0 .4.25.65.3.25.65.25.4 0 .65-.25t.25-.65q0-.35-.25-.65-.25-.25-.65-.25z" id="bs"/><path fill="#FCC696" d="M159.25 159.9q-.35 0-.65.25-.3.25-.3.6 0 .4.3.65.3.3.65.3.35 0 .6-.3.25-.25.25-.65 0-.85-.85-.85z" id="bt"/><path fill="#FCC696" d="M154.4 160.7q-.25 0-.5.2-.2.25-.2.5 0 .35.2.55.25.25.5.25.8 0 .8-.8 0-.25-.25-.5-.2-.2-.55-.2z" id="bu"/><path fill="#FCC696" d="M163.5 160.95q-.35 0-.6.3-.3.3-.3.65 0 .35.3.65.25.3.6.3t.65-.3q.25-.25.25-.65t-.25-.65q-.3-.3-.65-.3z" id="bv"/><path fill="#FCC696" d="M167.25 160.75q-.65 0-.65.65t.65.65q.6 0 .6-.65t-.6-.65z" id="bw"/><path fill="#FCC696" d="M142.95 170.9q-.35 0-.65.3-.25.25-.25.65 0 .85.9.85t.9-.85q0-.4-.25-.65-.3-.3-.65-.3z" id="bx"/><path fill="#F89D56" d="M149.95 165.35q-.35 0-.65.3-.3.3-.3.65 0 .4.3.65.3.3.65.3.35 0 .6-.3.25-.25.25-.65t-.25-.65q-.25-.3-.6-.3z" id="by"/><path fill="#F89D56" d="M157.65 162.35q-.85 0-.85.95 0 .85.85.85.95 0 .95-.85 0-.4-.3-.7-.25-.25-.65-.25z" id="bz"/><path fill="#F89D56" d="M164.8 160.55q-.95 0-.95.95 0 .85.95.85.85 0 .85-.85 0-.95-.85-.95z" id="bA"/><path fill="#F89D56" d="M170.85 161.5q-.95 0-.95.85 0 .4.25.65.3.3.7.3.35 0 .65-.3.25-.25.25-.65 0-.85-.9-.85z" id="bB"/><path fill="#F89D56" d="M142.6 164.85q-.85 0-.85.9t.85.9q.4 0 .65-.25.3-.3.3-.65 0-.9-.95-.9z" id="bC"/><path fill="#F89D56" d="M146.9 162.5q-.3 0-.55.25-.3.25-.3.6t.3.55q.25.25.55.25.8 0 .8-.8 0-.35-.25-.6-.2-.25-.55-.25z" id="bD"/><path fill="#F89D56" d="M152.4 161.5q-.95 0-.95.85 0 .4.3.65.3.3.65.3.4 0 .65-.3.3-.25.3-.65 0-.35-.3-.6-.25-.25-.65-.25z" id="bE"/><path fill="#F89D56" d="M161.4 160.55q-.4 0-.65.25-.3.3-.3.7 0 .35.3.6.25.25.65.25.85 0 .85-.85 0-.95-.85-.95z" id="bF"/><path fill="#F89D56" d="M141.1 173.85q-.65 0-.65.65t.65.65q.25 0 .5-.2.2-.2.2-.45t-.2-.45q-.25-.2-.5-.2z" id="bG"/><path fill="#FCC696" d="M174.3 161.55q-.65 0-.65.65 0 .55.65.55t.65-.55q0-.65-.65-.65z" id="bH"/><path fill="#FCC696" d="M171.6 160.9q-.65 0-.65.65t.65.65q.65 0 .65-.65t-.65-.65z" id="bI"/><path fill="#FEE0C6" d="M162.7 162.5q-.65 0-.65.65t.65.65q.65 0 .65-.65t-.65-.65z" id="bJ"/><path fill="#FEE0C6" d="M152.2 164.05q-.65 0-.65.65t.65.65q.65 0 .65-.65t-.65-.65z" id="bK"/><path fill="#FEE0C6" d="M145.2 165.95q-.65 0-.65.65t.65.65q.65 0 .65-.65t-.65-.65z" id="bL"/><path fill="#FEE0C6" d="M141.15 176.65q-.65 0-.65.65t.65.65q.65 0 .65-.65t-.65-.65z" id="bM"/><path fill="#FEE0C6" d="M140.3 170.1q-.65 0-.65.65 0 .25.2.4.2.2.45.2t.45-.2q.2-.15.2-.4 0-.65-.65-.65z" id="bN"/><path fill="#FEE0C6" d="M140.5 167.15q-.65 0-.65.65t.65.65q.65 0 .65-.65t-.65-.65z" id="bO"/><path fill="#FEE0C6" d="M150.1 161.9q-.65 0-.65.65t.65.65q.65 0 .65-.65t-.65-.65z" id="bP"/><path fill="#FEE0C6" d="M156.05 160.75q-.65 0-.65.65t.65.65q.65 0 .65-.65t-.65-.65z" id="bQ"/><path fill="#FEE0C6" d="M162.7 160.2q-.65 0-.65.65t.65.65q.65 0 .65-.65t-.65-.65z" id="bR"/><path fill="#FCC696" d="M152.2 167.9q-.65 0-.65.65 0 .7.65.7.7 0 .7-.7 0-.65-.7-.65z" id="bS"/><path fill="#F89D56" d="M156.95 166q-.75 0-.75.8 0 .7.75.7t.75-.7q0-.35-.2-.55-.25-.25-.55-.25z" id="bT"/><path fill="#F89D56" d="M161.45 166q-.5 0-.5.6 0 .5.5.5.6 0 .6-.5 0-.2-.2-.4-.15-.2-.4-.2z" id="bU"/><path fill="#F89D56" d="M167.65 163.8q-.5 0-.5.55 0 .5.5.5t.5-.5q0-.55-.5-.55z" id="bV"/><path fill="#F89D56" d="M147.45 170.85q-.6 0-.6.5t.6.5q.5 0 .5-.5t-.5-.5z" id="bW"/><path fill="#F79343" d="M165.55 166.8q-.3 0-.5.25-.25.2-.25.55 0 .35.25.55.2.25.5.25.8 0 .8-.8t-.8-.8z" id="bX"/><path fill="#F79343" d="M172.5 165.5q-.65 0-.65.6 0 .55.65.55.55 0 .55-.55 0-.6-.55-.6z" id="bY"/><path fill="#F79343" d="M178.55 164.3q-.6 0-.6.55 0 .6.6.6.2 0 .35-.2.2-.2.2-.4 0-.55-.55-.55z" id="bZ"/><path fill="url(#X)" d="M58.3 277.05l-.5 7.6-7.7.5 7.7.6.5 7.65.5-7.65 7.65-.6-7.65-.5-.5-7.6z" id="ca"/><path fill="url(#Y)" d="M69 290.7l-.35 5.55-5.6.45 5.6.35.35 5.6.45-5.6 5.55-.35-5.55-.45-.45-5.55z" id="cb"/><path fill="url(#Z)" d="M178.05 238.65l-.6 7.95-7.9.55 7.9.5.6 8 .5-8 7.9-.5-7.9-.55-.5-7.95z" id="cc"/><path fill="#FFF" d="M90.85 238.95l-.5 7.9-7.95.6 7.95.5.5 7.9.55-7.9 7.95-.5-7.95-.6-.55-7.9z" id="cd"/><path fill="#FFF" d="M97.45 223.1l-.4 6.5-6.5.4 6.5.45.4 6.5.45-6.5 6.45-.45-6.45-.4-.45-6.5z" id="ce"/><path fill="#FFF" d="M110.8 237.5l-.4 4.45-4.45.4 4.45.25.4 4.5.25-4.5 4.5-.25-4.5-.4-.25-4.45z" id="cf"/></defs><use xlink:href="#aa"/><use xlink:href="#ab" transform="matrix(1.38522 0 0 1.38525 -36.369 -159.629)"/><use xlink:href="#ac" transform="matrix(1.38522 0 0 1.38525 -36.369 -159.629)"/><use xlink:href="#ad" transform="matrix(1.38522 0 0 1.38525 -36.369 -159.629)"/><use xlink:href="#ae" transform="matrix(1.38522 0 0 1.38525 -36.369 -159.629)"/><use xlink:href="#af" transform="matrix(1.38522 0 0 1.38525 -36.369 -159.629)"/><use xlink:href="#ag" transform="matrix(1.38522 0 0 1.38525 -36.369 -159.629)"/><use xlink:href="#ah" transform="matrix(1.38522 0 0 1.38525 -36.369 -159.629)"/><use xlink:href="#ai" transform="matrix(1.38522 0 0 1.38525 -36.369 -159.629)"/><use xlink:href="#aj" transform="matrix(1.38522 0 0 1.38525 -36.369 -159.629)"/><use xlink:href="#ak" transform="matrix(1.38522 0 0 1.38525 -36.369 -159.629)"/><use xlink:href="#al" transform="matrix(1.38522 0 0 1.38525 -36.369 -159.629)"/><use xlink:href="#am" transform="matrix(1.38522 0 0 1.38525 -36.369 -159.629)"/><use xlink:href="#an" transform="matrix(1.38522 0 0 1.38525 -36.369 -159.629)"/><use xlink:href="#ao" transform="matrix(1.38522 0 0 1.38525 -36.369 -159.629)"/><use xlink:href="#ap" transform="matrix(1.38522 0 0 1.38525 -36.369 -159.629)"/><use xlink:href="#aq" transform="matrix(1.38522 0 0 1.38525 -36.369 -159.629)"/><use xlink:href="#ar" transform="matrix(1.38522 0 0 1.38525 -36.369 -159.629)"/><use xlink:href="#as" transform="matrix(1.38522 0 0 1.38525 -36.369 -159.629)"/><use xlink:href="#at" transform="matrix(1.38522 0 0 1.38525 -36.369 -159.629)"/><use xlink:href="#au" transform="matrix(1.38522 0 0 1.38525 -36.369 -159.629)"/><use xlink:href="#av" transform="matrix(1.38522 0 0 1.38525 -36.369 -159.629)"/><use xlink:href="#aw" transform="matrix(1.38522 0 0 1.38525 -36.369 -159.629)"/><use xlink:href="#ax" transform="matrix(1.38522 0 0 1.38525 -36.369 -159.629)"/><use xlink:href="#ay" transform="matrix(1.38522 0 0 1.38525 -36.369 -159.629)"/><use xlink:href="#az" transform="matrix(1.38522 0 0 1.38525 -36.369 -159.629)"/><use xlink:href="#aA" transform="matrix(1.38522 0 0 1.38525 -36.369 -159.629)"/><use xlink:href="#aB" transform="matrix(1.38522 0 0 1.38525 -36.369 -159.629)"/><use xlink:href="#aC" transform="matrix(1.38522 0 0 1.38525 -36.369 -159.629)"/><use xlink:href="#aD" transform="matrix(1.38522 0 0 1.38525 -36.369 -159.629)"/><use xlink:href="#aE" transform="matrix(1.38522 0 0 1.38525 -36.369 -159.629)"/><use xlink:href="#aF" transform="matrix(1.38522 0 0 1.38525 -36.369 -159.629)"/><use xlink:href="#aG" transform="matrix(1.38522 0 0 1.38525 -36.369 -159.629)"/><use xlink:href="#aH" transform="matrix(1.38522 0 0 1.38525 -36.369 -159.629)"/><use xlink:href="#aI" transform="matrix(1.38522 0 0 1.38525 -36.369 -159.629)"/><use xlink:href="#aJ" transform="matrix(1.38522 0 0 1.38525 -36.369 -159.629)"/><use xlink:href="#aK" transform="matrix(1.38522 0 0 1.38525 -36.369 -159.629)"/><use xlink:href="#aL" transform="matrix(1.38522 0 0 1.38525 -36.369 -159.629)"/><use xlink:href="#aM" transform="matrix(1.38522 0 0 1.38525 -36.369 -159.629)"/><use xlink:href="#aN" transform="matrix(1.38522 0 0 1.38525 -36.369 -159.629)"/><use xlink:href="#aO" transform="matrix(1.38522 0 0 1.38525 -36.369 -159.629)"/><use xlink:href="#aP" transform="matrix(1.38522 0 0 1.38525 -36.369 -159.629)"/><use xlink:href="#aQ" transform="matrix(1.38522 0 0 1.38525 -36.369 -159.629)"/><use xlink:href="#aR" transform="matrix(1.38522 0 0 1.38525 -36.369 -159.629)"/><use xlink:href="#aS" transform="matrix(1.38522 0 0 1.38525 -36.369 -159.629)"/><use xlink:href="#aT" transform="matrix(1.38522 0 0 1.38525 -36.369 -159.629)"/><use xlink:href="#aU" transform="matrix(1.38522 0 0 1.38525 -36.369 -159.629)"/><use xlink:href="#aV" transform="matrix(1.38522 0 0 1.38525 -36.369 -159.629)"/><use xlink:href="#aW" transform="matrix(1.38522 0 0 1.38525 -36.369 -159.629)"/><use xlink:href="#aX" transform="matrix(1.38522 0 0 1.38525 -36.369 -159.629)"/><use xlink:href="#aY" transform="matrix(1.38522 0 0 1.38525 -36.369 -159.629)"/><use xlink:href="#aZ" transform="matrix(1.38522 0 0 1.38525 -36.369 -159.629)"/><use xlink:href="#ba" transform="matrix(1.38522 0 0 1.38525 -36.369 -159.629)"/><use xlink:href="#bb" transform="matrix(1.38522 0 0 1.38525 -36.369 -159.629)"/><use xlink:href="#bc" transform="matrix(1.38522 0 0 1.38525 -36.369 -159.629)"/><use xlink:href="#bd" transform="matrix(1.38522 0 0 1.38525 -36.369 -159.629)"/><use xlink:href="#be" transform="matrix(1.38522 0 0 1.38525 -36.369 -159.629)"/><use xlink:href="#bf" transform="matrix(1.38522 0 0 1.38525 -36.369 -159.629)"/><use xlink:href="#bg" transform="matrix(1.38522 0 0 1.38525 -36.369 -159.629)"/><use xlink:href="#bh" transform="matrix(1.38522 0 0 1.38525 -36.369 -159.629)"/><use xlink:href="#bi" transform="matrix(1.38522 0 0 1.38525 -36.369 -159.629)"/><use xlink:href="#bj" transform="matrix(1.38522 0 0 1.38525 -36.369 -159.629)"/><use xlink:href="#bk" transform="matrix(1.38522 0 0 1.38525 -36.369 -159.629)"/><use xlink:href="#bl" transform="matrix(1.38522 0 0 1.38525 -36.369 -159.629)"/><use xlink:href="#bm" transform="matrix(1.38522 0 0 1.38525 -36.369 -159.629)"/><use xlink:href="#bn" transform="matrix(1.38522 0 0 1.38525 -36.369 -159.629)"/><use xlink:href="#bo" transform="matrix(1.38522 0 0 1.38525 -36.369 -159.629)"/><use xlink:href="#bp" transform="matrix(1.38522 0 0 1.38525 -36.369 -159.629)"/><use xlink:href="#bq" transform="matrix(1.38522 0 0 1.38525 -36.369 -159.629)"/><use xlink:href="#br" transform="matrix(1.38522 0 0 1.38525 -36.369 -159.629)"/><use xlink:href="#bs" transform="matrix(1.38522 0 0 1.38525 -36.369 -159.629)"/><use xlink:href="#bt" transform="matrix(1.38522 0 0 1.38525 -36.369 -159.629)"/><use xlink:href="#bu" transform="matrix(1.38522 0 0 1.38525 -36.369 -159.629)"/><use xlink:href="#bv" transform="matrix(1.38522 0 0 1.38525 -36.369 -159.629)"/><use xlink:href="#bw" transform="matrix(1.38522 0 0 1.38525 -36.369 -159.629)"/><use xlink:href="#bx" transform="matrix(1.38522 0 0 1.38525 -36.369 -159.629)"/><use xlink:href="#by" transform="matrix(1.38522 0 0 1.38525 -36.369 -159.629)"/><use xlink:href="#bz" transform="matrix(1.38522 0 0 1.38525 -36.369 -159.629)"/><use xlink:href="#bA" transform="matrix(1.38522 0 0 1.38525 -36.369 -159.629)"/><use xlink:href="#bB" transform="matrix(1.38522 0 0 1.38525 -36.369 -159.629)"/><use xlink:href="#bC" transform="matrix(1.38522 0 0 1.38525 -36.369 -159.629)"/><use xlink:href="#bD" transform="matrix(1.38522 0 0 1.38525 -36.369 -159.629)"/><use xlink:href="#bE" transform="matrix(1.38522 0 0 1.38525 -36.369 -159.629)"/><use xlink:href="#bF" transform="matrix(1.38522 0 0 1.38525 -36.369 -159.629)"/><use xlink:href="#bG" transform="matrix(1.38522 0 0 1.38525 -36.369 -159.629)"/><use xlink:href="#bH" transform="matrix(1.38522 0 0 1.38525 -36.369 -159.629)"/><use xlink:href="#bI" transform="matrix(1.38522 0 0 1.38525 -36.369 -159.629)"/><use xlink:href="#bJ" transform="matrix(1.38522 0 0 1.38525 -36.369 -159.629)"/><use xlink:href="#bK" transform="matrix(1.38522 0 0 1.38525 -36.369 -159.629)"/><use xlink:href="#bL" transform="matrix(1.38522 0 0 1.38525 -36.369 -159.629)"/><use xlink:href="#bM" transform="matrix(1.38522 0 0 1.38525 -36.369 -159.629)"/><use xlink:href="#bN" transform="matrix(1.38522 0 0 1.38525 -36.369 -159.629)"/><use xlink:href="#bO" transform="matrix(1.38522 0 0 1.38525 -36.369 -159.629)"/><use xlink:href="#bP" transform="matrix(1.38522 0 0 1.38525 -36.369 -159.629)"/><use xlink:href="#bQ" transform="matrix(1.38522 0 0 1.38525 -36.369 -159.629)"/><use xlink:href="#bR" transform="matrix(1.38522 0 0 1.38525 -36.369 -159.629)"/><use xlink:href="#bS" transform="matrix(1.38522 0 0 1.38525 -36.369 -159.629)"/><use xlink:href="#bT" transform="matrix(1.38522 0 0 1.38525 -36.369 -159.629)"/><use xlink:href="#bU" transform="matrix(1.38522 0 0 1.38525 -36.369 -159.629)"/><use xlink:href="#bV" transform="matrix(1.38522 0 0 1.38525 -36.369 -159.629)"/><use xlink:href="#bW" transform="matrix(1.38522 0 0 1.38525 -36.369 -159.629)"/><use xlink:href="#bX" transform="matrix(1.38522 0 0 1.38525 -36.369 -159.629)"/><use xlink:href="#bY" transform="matrix(1.38522 0 0 1.38525 -36.369 -159.629)"/><use xlink:href="#bZ" transform="matrix(1.38522 0 0 1.38525 -36.369 -159.629)"/><use xlink:href="#ca" transform="matrix(1.38522 0 0 1.38525 -36.369 -159.629)"/><use xlink:href="#cb" transform="matrix(1.38522 0 0 1.38525 -36.369 -159.629)"/><use xlink:href="#cc" transform="matrix(1.38522 0 0 1.38525 -36.369 -159.629)"/><use xlink:href="#cd" transform="matrix(1.38522 0 0 1.38525 -36.369 -159.629)"/><use xlink:href="#ce" transform="matrix(1.38522 0 0 1.38525 -36.369 -159.629)"/><use xlink:href="#cf" transform="matrix(1.38522 0 0 1.38525 -36.369 -159.629)"/></svg>