<svg xmlns="http://www.w3.org/2000/svg" xmlns:xlink="http://www.w3.org/1999/xlink" preserveAspectRatio="none" width="284" height="320"><defs><linearGradient id="a" gradientUnits="userSpaceOnUse" x1="248.5" y1="668.2" x2="350.8" y2="668.2" spreadMethod="pad"><stop offset="0%" stop-color="#E7E8E9"/><stop offset="100%" stop-color="#FFF"/></linearGradient><linearGradient id="b" gradientUnits="userSpaceOnUse" x1="275.45" y1="628.85" x2="244.45" y2="628.85" spreadMethod="pad"><stop offset="0%" stop-color="#BFC7D8"/><stop offset="61.176%" stop-color="#E7EAF0"/><stop offset="100%" stop-color="#DADEE8"/></linearGradient><linearGradient id="c" gradientUnits="userSpaceOnUse" x1="298.45" y1="624.6" x2="243.35" y2="624.6" spreadMethod="pad"><stop offset="0%" stop-color="#FCC696"/><stop offset="16.078%" stop-color="#F89D56"/><stop offset="78.039%" stop-color="#FEE0C6"/><stop offset="100%" stop-color="#FBB881"/></linearGradient><linearGradient id="d" gradientUnits="userSpaceOnUse" x1="302.462" y1="579.6" x2="239.938" y2="579.6" spreadMethod="pad"><stop offset="0%" stop-color="#A8B2C7"/><stop offset="12.941%" stop-color="#7B89A5"/><stop offset="78.039%" stop-color="#DADEE8"/><stop offset="100%" stop-color="#AFB8CB"/></linearGradient><linearGradient id="e" gradientUnits="userSpaceOnUse" x1="268.55" y1="588.525" x2="268.55" y2="579.575" spreadMethod="pad"><stop offset="0%" stop-color="#939FB8"/><stop offset="100%" stop-color="#647794"/></linearGradient><linearGradient id="f" gradientUnits="userSpaceOnUse" x1="257" y1="579.525" x2="257" y2="588.075" spreadMethod="pad"><stop offset="0%" stop-color="#FFF"/><stop offset="100%" stop-color="#DADEE8"/></linearGradient><linearGradient id="g" gradientUnits="userSpaceOnUse" x1="252.487" y1="570.95" x2="295.313" y2="570.95" spreadMethod="pad"><stop offset="0%" stop-color="#E2E5ED"/><stop offset="100%" stop-color="#BFC7D8"/></linearGradient><linearGradient id="h" gradientUnits="userSpaceOnUse" x1="295.475" y1="560.3" x2="246.725" y2="560.3" spreadMethod="pad"><stop offset="0%" stop-color="#B4BDD0"/><stop offset="16.078%" stop-color="#8C9AB3"/><stop offset="74.118%" stop-color="#E7EAF0"/><stop offset="100%" stop-color="#8B97B1"/></linearGradient><linearGradient id="i" gradientUnits="userSpaceOnUse" x1="258.475" y1="545.5" x2="286.925" y2="545.5" spreadMethod="pad"><stop offset="0%" stop-color="#E2E5ED"/><stop offset="100%" stop-color="#BFC7D8"/></linearGradient><linearGradient id="j" gradientUnits="userSpaceOnUse" x1="288.475" y1="536.15" x2="251.225" y2="536.15" spreadMethod="pad"><stop offset="0%" stop-color="#A8B2C7"/><stop offset="12.941%" stop-color="#7B89A5"/><stop offset="78.039%" stop-color="#DADEE8"/><stop offset="100%" stop-color="#AFB8CB"/></linearGradient><linearGradient id="k" gradientUnits="userSpaceOnUse" x1="256.462" y1="526.4" x2="279.038" y2="526.4" spreadMethod="pad"><stop offset="0%" stop-color="#E7EAF0"/><stop offset="100%" stop-color="#B4BDD0"/></linearGradient><linearGradient id="l" gradientUnits="userSpaceOnUse" x1="258.688" y1="544.625" x2="251.512" y2="536.075" spreadMethod="pad"><stop offset="0%" stop-color="#E67934"/><stop offset="100%" stop-color="#FBB881"/></linearGradient><linearGradient id="m" gradientUnits="userSpaceOnUse" x1="253.575" y1="548.388" x2="254.725" y2="541.112" spreadMethod="pad"><stop offset="0%" stop-color="#FCC696"/><stop offset="100%" stop-color="#FFF"/></linearGradient><linearGradient id="n" gradientUnits="userSpaceOnUse" x1="274.488" y1="666.8" x2="246.613" y2="666.8" spreadMethod="pad"><stop offset="0%" stop-color="#CBD2DF"/><stop offset="69.02%" stop-color="#FFF"/><stop offset="100%" stop-color="#F0F2F6"/></linearGradient><radialGradient id="o" gradientUnits="userSpaceOnUse" cx="0" cy="0" r="3.075" fx="0" fy="0" gradientTransform="matrix(1 0 0 -1 284.5 558.5)" spreadMethod="pad"><stop offset="0%" stop-color="#FFF"/><stop offset="100%" stop-color="#D3D8E5"/></radialGradient><radialGradient id="p" gradientUnits="userSpaceOnUse" cx="0" cy="0" r="2.313" fx="0" fy="0" gradientTransform="matrix(1 0 0 -1 265.5 542.5)" spreadMethod="pad"><stop offset="0%" stop-color="#FFF"/><stop offset="100%" stop-color="#D3D8E5"/></radialGradient><path fill="#FFF" fill-opacity="0" d="M284 0H0v320h284V0z" id="q"/><path fill="url(#a)" d="M280.5 654.05q-19.4 0-33.15 4.15-13.8 4.1-13.8 10 0 5.85 13.8 10.05 13.75 4.15 33.15 4.15t33.15-4.15q13.8-4.2 13.8-10.05 0-5.9-13.8-10-13.75-4.15-33.15-4.15z" id="r"/><path fill="url(#b)" d="M274.1 587.8l-25.8-2.1-8.15-2.6V666q.2 3.4 9.35 5.95 9.3 2.6 22 2.6 12.6 0 21.9-2.6 9.1-2.55 9.25-5.95v-82.9l-10.95 2.8-17.6 1.9z" id="s"/><path fill="url(#c)" d="M273.8 587.65l-23.2-2-7.25-2.55v75.1q.15 3.3 8.4 5.6 8.15 2.25 19.75 2.25 11.5 0 19.7-2.25 8.2-2.3 8.3-5.6v-75.1l-9.85 2.75-15.85 1.8z" id="t"/><path fill="url(#d)" d="M240.1 570.8v12q0 2.35 9.2 4 9.25 1.65 22.2 1.65 12.9 0 22.1-1.65 9.15-1.65 9.15-4v-12l-54.45.3-8.2-.3z" id="u"/><path fill="url(#e)" d="M274.15 571.25l-11.15-.1v17.05q4.5.25 8.5.25 1.8 0 2.65-.1v-17.1z" id="v"/><path fill="url(#f)" d="M250.4 586.95q5.8.95 13.25 1.25v-17.05l-13.25-.05v15.85z" id="w"/><path fill="url(#g)" d="M271.5 564.7q-13 0-22.15 1.85-9.2 1.8-9.2 4.4 0 2.6 9.2 4.4 9.15 1.85 22.15 1.85 12.9 0 22.05-1.85 9.1-1.8 9.1-4.4 0-2.6-9.1-4.4-9.15-1.85-22.05-1.85z" id="x"/><path fill="url(#h)" d="M271.5 549.65q-8.85 0-14.35-1.1-4.9-1-6.4-2.75 0 3.45-2.1 12.3-2.1 8.85-2.1 12.2 0 1.85 7.3 3.15 7.35 1.3 17.65 1.3 10.25 0 17.5-1.3 7.3-1.3 7.3-3.15 0-3.35-2.05-12.2t-2.05-12.3q-1.55 1.75-6.45 2.75-5.5 1.1-14.25 1.1z" id="y"/><path fill="url(#i)" d="M271.5 540.7q-8.6 0-14.7 1.4t-6.1 3.4q0 1.95 6.1 3.4 6.15 1.4 14.7 1.4 8.55 0 14.65-1.4 6.05-1.45 6.05-3.4 0-2-6.05-3.4t-14.65-1.4z" id="z"/><path fill="#596B89" d="M271.5 541.55q-7.45 0-12.7 1.1-5.25 1.1-5.25 2.65 0 .7 1.1 1.3 1.4.8 6.6.15 7.35-.95 10.45-.95 3.15 0 10.55.9 5 .6 6.3-.25.8-.55.8-1.15 0-1.55-5.25-2.65-5.25-1.1-12.6-1.1z" id="A"/><path fill="url(#j)" d="M287.65 540.25q-.55-3.8-1.1-6.25-1.15-5.1-3-7.1-2.1-2.25-7.15-3.1-5.2-.85-10.55-.6-5.1.2-9.65 1.35-3 .85-3.65 2.1-.65 1.3 1.15 2.95 3.2 3 2.6 7.85-.4 2.85-1.65 9.15 1.9 1.1 6.45 1.8 4.65.7 10.4.7 5.9 0 10.65-.75 4.65-.75 6.4-1.9-.55-4.05-.9-6.2z" id="B"/><path fill="url(#k)" d="M268.25 523.85q-5.4 0-9.25.75-3.85.75-3.85 1.85 0 1 3.85 1.75t9.25.75q5.4 0 9.3-.75 3.85-.75 3.85-1.75 0-1.1-3.85-1.85t-9.3-.75z" id="C"/><path fill="#596B89" d="M258.5 528.8q-1.15-.15-1.95.05t-.9.7q-.05.5.65.95.75.45 1.85.6 1.1.2 1.95 0 .8-.2.85-.7.1-.5-.65-.95-.7-.45-1.8-.65z" id="D"/><path fill="url(#l)" d="M257.65 532.35q.95-2.75-.5-2.6-2.7.9-5.3 4.55-2.3 3.3-2.75 5.9-.55 3.15.15 5.7.65 2.45 2.2 3.5 1.9 1.3 3.75.05 2-1.4 2.05-5.1 0-1.45-.2-4.1-.25-2.65-.25-3.45 0-2.15.85-4.45z" id="E"/><path fill="url(#m)" d="M254.7 541.55q-.55-.05-1.15.95-.6 1.05-.85 2.5-.25 1.55-.05 2.7.25 1.15.85 1.2.55.1 1.15-.85.6-1.05.8-2.55.25-1.5.05-2.65-.2-1.2-.8-1.3z" id="F"/><path fill="url(#n)" d="M243.35 661.6v2.6q.15 3.25 8.4 5.55t19.75 2.3q11.45 0 19.7-2.3 8.2-2.3 8.3-5.55v-2.6q-.1 3.25-8.3 5.55-8.25 2.3-19.7 2.3-11.5 0-19.75-2.3t-8.4-5.55z" id="G"/><path fill="url(#o)" d="M284.95 551.35l-.5 6.85-6.75.45 6.75.4.5 6.85.45-6.85 6.75-.4-6.75-.45-.45-6.85z" id="H"/><path fill="url(#p)" d="M265.45 537.4l-.3 5.1-5.2.35 5.2.35.3 5.15.35-5.15 5.1-.35-5.1-.35-.35-5.1z" id="I"/><path fill="#FFF" d="M254 596.45l.8 11.15.7-11.15 11.15-.75-11.15-.8-.7-11.05-.75 11.05-11.15.8 11.1.75z" id="J"/><path fill="#FFF" d="M268.25 602.1l-.45 6.2-6.2.45 6.2.4.45 6.2.45-6.2 6.1-.4-6.1-.45-.45-6.2z" id="K"/></defs><use xlink:href="#q"/><use xlink:href="#r" transform="matrix(1.66914 0 0 1.66913 -326.229 -827.055)"/><use xlink:href="#s" transform="matrix(1.66914 0 0 1.66913 -326.229 -827.055)"/><use xlink:href="#t" transform="matrix(1.66914 0 0 1.66913 -326.229 -827.055)"/><use xlink:href="#u" transform="matrix(1.66914 0 0 1.66913 -326.229 -827.055)"/><use xlink:href="#v" transform="matrix(1.66914 0 0 1.66913 -326.229 -827.055)"/><use xlink:href="#w" transform="matrix(1.66914 0 0 1.66913 -326.229 -827.055)"/><use xlink:href="#x" transform="matrix(1.66914 0 0 1.66913 -326.229 -827.055)"/><use xlink:href="#y" transform="matrix(1.66914 0 0 1.66913 -326.229 -827.055)"/><use xlink:href="#z" transform="matrix(1.66914 0 0 1.66913 -326.229 -827.055)"/><use xlink:href="#A" transform="matrix(1.66914 0 0 1.66913 -326.229 -827.055)"/><use xlink:href="#B" transform="matrix(1.66914 0 0 1.66913 -326.229 -827.055)"/><use xlink:href="#C" transform="matrix(1.66914 0 0 1.66913 -326.229 -827.055)"/><use xlink:href="#D" transform="matrix(1.66914 0 0 1.66913 -326.229 -827.055)"/><use xlink:href="#E" transform="matrix(1.66914 0 0 1.66913 -326.229 -827.055)"/><use xlink:href="#F" transform="matrix(1.66914 0 0 1.66913 -326.229 -827.055)"/><use xlink:href="#G" transform="matrix(1.66914 0 0 1.66913 -326.229 -827.055)"/><use xlink:href="#H" transform="matrix(1.66914 0 0 1.66913 -326.229 -827.055)"/><use xlink:href="#I" transform="matrix(1.66914 0 0 1.66913 -326.229 -827.055)"/><use xlink:href="#J" transform="matrix(1.66914 0 0 1.66913 -326.229 -827.055)"/><use xlink:href="#K" transform="matrix(1.66914 0 0 1.66913 -326.229 -827.055)"/></svg>