<svg xmlns="http://www.w3.org/2000/svg" xmlns:xlink="http://www.w3.org/1999/xlink" preserveAspectRatio="none" width="284" height="320"><defs><linearGradient id="a" gradientUnits="userSpaceOnUse" x1="354.15" y1="441.425" x2="393.35" y2="464.975" spreadMethod="pad"><stop offset="0%" stop-color="#7E272A"/><stop offset="40%" stop-color="#DE323C"/><stop offset="65.098%" stop-color="#F6917D"/><stop offset="80%" stop-color="#EE333F"/><stop offset="100%" stop-color="#EE333F"/></linearGradient><linearGradient id="b" gradientUnits="userSpaceOnUse" x1="278.287" y1="440.787" x2="239.512" y2="465.012" spreadMethod="pad"><stop offset="0%" stop-color="#7E272A"/><stop offset="40%" stop-color="#DE323C"/><stop offset="65.098%" stop-color="#F6917D"/><stop offset="80%" stop-color="#EE333F"/><stop offset="100%" stop-color="#EE333F"/></linearGradient><linearGradient id="c" gradientUnits="userSpaceOnUse" x1="365.875" y1="381.688" x2="338.825" y2="407.813" spreadMethod="pad"><stop offset="0%" stop-color="#C22F38"/><stop offset="100%" stop-color="#7E272A"/></linearGradient><linearGradient id="d" gradientUnits="userSpaceOnUse" x1="329.887" y1="405.912" x2="360.912" y2="374.887" spreadMethod="pad"><stop offset="0%" stop-color="#A82C32"/><stop offset="45.098%" stop-color="#C22F38"/><stop offset="61.176%" stop-color="#EF4A47"/><stop offset="74.902%" stop-color="#F8A38E"/><stop offset="100%" stop-color="#EF4A47"/></linearGradient><linearGradient id="e" gradientUnits="userSpaceOnUse" x1="328.6" y1="394.675" x2="355.7" y2="371.925" spreadMethod="pad"><stop offset="0%" stop-color="#EF4A47"/><stop offset="45.098%" stop-color="#F9B4A0"/><stop offset="74.902%" stop-color="#FFF"/><stop offset="100%" stop-color="#FDD8CB"/></linearGradient><linearGradient id="f" gradientUnits="userSpaceOnUse" x1="340.762" y1="406.863" x2="367.838" y2="384.137" spreadMethod="pad"><stop offset="0%" stop-color="#EF4A47"/><stop offset="45.098%" stop-color="#F9B4A0"/><stop offset="74.902%" stop-color="#FFF"/><stop offset="100%" stop-color="#FDD8CB"/></linearGradient><linearGradient id="g" gradientUnits="userSpaceOnUse" x1="357.175" y1="476.25" x2="331.525" y2="448.75" spreadMethod="pad"><stop offset="0%" stop-color="#C22F38"/><stop offset="100%" stop-color="#7E272A"/></linearGradient><linearGradient id="h" gradientUnits="userSpaceOnUse" x1="330.813" y1="436.225" x2="361.388" y2="470.175" spreadMethod="pad"><stop offset="0%" stop-color="#A82C32"/><stop offset="45.098%" stop-color="#C22F38"/><stop offset="61.176%" stop-color="#EF4A47"/><stop offset="74.902%" stop-color="#F8A38E"/><stop offset="100%" stop-color="#EF4A47"/></linearGradient><linearGradient id="i" gradientUnits="userSpaceOnUse" x1="344.875" y1="439.175" x2="368.325" y2="464.325" spreadMethod="pad"><stop offset="0%" stop-color="#EF4A47"/><stop offset="45.098%" stop-color="#F9B4A0"/><stop offset="74.902%" stop-color="#FFF"/><stop offset="100%" stop-color="#FDD8CB"/></linearGradient><linearGradient id="j" gradientUnits="userSpaceOnUse" x1="332.025" y1="450.963" x2="355.975" y2="475.738" spreadMethod="pad"><stop offset="0%" stop-color="#EF4A47"/><stop offset="45.098%" stop-color="#F9B4A0"/><stop offset="74.902%" stop-color="#FFF"/><stop offset="100%" stop-color="#FDD8CB"/></linearGradient><linearGradient id="k" gradientUnits="userSpaceOnUse" x1="381.45" y1="429.2" x2="341.25" y2="429.2" spreadMethod="pad"><stop offset="0%" stop-color="#CF303A"/><stop offset="100%" stop-color="#A12B31"/></linearGradient><linearGradient id="l" gradientUnits="userSpaceOnUse" x1="337.462" y1="421.4" x2="380.538" y2="421.4" spreadMethod="pad"><stop offset="0%" stop-color="#C22F38"/><stop offset="45.098%" stop-color="#EE333F"/><stop offset="74.902%" stop-color="#FBC6B4"/><stop offset="100%" stop-color="#EF4A47"/></linearGradient><linearGradient id="m" gradientUnits="userSpaceOnUse" x1="340.462" y1="412.95" x2="381.938" y2="412.95" spreadMethod="pad"><stop offset="0%" stop-color="#EF4A47"/><stop offset="45.098%" stop-color="#F9B4A0"/><stop offset="74.902%" stop-color="#FFF"/><stop offset="100%" stop-color="#FDD8CB"/></linearGradient><linearGradient id="n" gradientUnits="userSpaceOnUse" x1="340.462" y1="430.2" x2="381.938" y2="430.2" spreadMethod="pad"><stop offset="0%" stop-color="#EF4A47"/><stop offset="45.098%" stop-color="#F9B4A0"/><stop offset="74.902%" stop-color="#FFF"/><stop offset="100%" stop-color="#FDD8CB"/></linearGradient><linearGradient id="o" gradientUnits="userSpaceOnUse" x1="266.55" y1="382.025" x2="294.05" y2="407.675" spreadMethod="pad"><stop offset="0%" stop-color="#C22F38"/><stop offset="100%" stop-color="#7E272A"/></linearGradient><linearGradient id="p" gradientUnits="userSpaceOnUse" x1="303.012" y1="406.012" x2="271.988" y2="374.988" spreadMethod="pad"><stop offset="0%" stop-color="#A82C32"/><stop offset="45.098%" stop-color="#C22F38"/><stop offset="61.176%" stop-color="#EF4A47"/><stop offset="74.902%" stop-color="#F8A38E"/><stop offset="100%" stop-color="#EF4A47"/></linearGradient><linearGradient id="q" gradientUnits="userSpaceOnUse" x1="304.25" y1="394.8" x2="277.55" y2="371.6" spreadMethod="pad"><stop offset="0%" stop-color="#EF4A47"/><stop offset="45.098%" stop-color="#F9B4A0"/><stop offset="74.902%" stop-color="#FFF"/><stop offset="100%" stop-color="#FDD8CB"/></linearGradient><linearGradient id="r" gradientUnits="userSpaceOnUse" x1="292.037" y1="407" x2="265.363" y2="383.8" spreadMethod="pad"><stop offset="0%" stop-color="#EF4A47"/><stop offset="45.098%" stop-color="#F9B4A0"/><stop offset="74.902%" stop-color="#FFF"/><stop offset="100%" stop-color="#FDD8CB"/></linearGradient><linearGradient id="s" gradientUnits="userSpaceOnUse" x1="275.387" y1="475.675" x2="301.512" y2="448.625" spreadMethod="pad"><stop offset="0%" stop-color="#C22F38"/><stop offset="100%" stop-color="#7E272A"/></linearGradient><linearGradient id="t" gradientUnits="userSpaceOnUse" x1="301.438" y1="436.5" x2="271.462" y2="471" spreadMethod="pad"><stop offset="0%" stop-color="#A82C32"/><stop offset="45.098%" stop-color="#C22F38"/><stop offset="61.176%" stop-color="#EF4A47"/><stop offset="74.902%" stop-color="#F8A38E"/><stop offset="100%" stop-color="#EF4A47"/></linearGradient><linearGradient id="u" gradientUnits="userSpaceOnUse" x1="287.962" y1="439.063" x2="264.938" y2="464.638" spreadMethod="pad"><stop offset="0%" stop-color="#EF4A47"/><stop offset="45.098%" stop-color="#F9B4A0"/><stop offset="74.902%" stop-color="#FFF"/><stop offset="100%" stop-color="#FDD8CB"/></linearGradient><linearGradient id="v" gradientUnits="userSpaceOnUse" x1="300.8" y1="450.837" x2="277.3" y2="476.063" spreadMethod="pad"><stop offset="0%" stop-color="#EF4A47"/><stop offset="45.098%" stop-color="#F9B4A0"/><stop offset="74.902%" stop-color="#FFF"/><stop offset="100%" stop-color="#FDD8CB"/></linearGradient><linearGradient id="w" gradientUnits="userSpaceOnUse" x1="251.488" y1="429.2" x2="291.713" y2="429.2" spreadMethod="pad"><stop offset="0%" stop-color="#CF303A"/><stop offset="100%" stop-color="#A12B31"/></linearGradient><linearGradient id="x" gradientUnits="userSpaceOnUse" x1="295.488" y1="421.4" x2="252.412" y2="421.4" spreadMethod="pad"><stop offset="0%" stop-color="#C22F38"/><stop offset="45.098%" stop-color="#EE333F"/><stop offset="74.902%" stop-color="#FBC6B4"/><stop offset="100%" stop-color="#EF4A47"/></linearGradient><linearGradient id="y" gradientUnits="userSpaceOnUse" x1="291.488" y1="412.95" x2="250.012" y2="412.95" spreadMethod="pad"><stop offset="0%" stop-color="#EF4A47"/><stop offset="45.098%" stop-color="#F9B4A0"/><stop offset="74.902%" stop-color="#FFF"/><stop offset="100%" stop-color="#FDD8CB"/></linearGradient><linearGradient id="z" gradientUnits="userSpaceOnUse" x1="291.475" y1="430.2" x2="250.025" y2="430.2" spreadMethod="pad"><stop offset="0%" stop-color="#EF4A47"/><stop offset="45.098%" stop-color="#F9B4A0"/><stop offset="74.902%" stop-color="#FFF"/><stop offset="100%" stop-color="#FDD8CB"/></linearGradient><linearGradient id="A" gradientUnits="userSpaceOnUse" x1="316.4" y1="450.55" x2="316.4" y2="487.05" spreadMethod="pad"><stop offset="0%" stop-color="#C22F38"/><stop offset="45.098%" stop-color="#EE333F"/><stop offset="74.902%" stop-color="#FBC6B4"/><stop offset="100%" stop-color="#EF4A47"/></linearGradient><linearGradient id="B" gradientUnits="userSpaceOnUse" x1="305.45" y1="454.525" x2="305.45" y2="485.775" spreadMethod="pad"><stop offset="0%" stop-color="#EF4A47"/><stop offset="45.098%" stop-color="#F9B4A0"/><stop offset="74.902%" stop-color="#FFF"/><stop offset="100%" stop-color="#FDD8CB"/></linearGradient><linearGradient id="C" gradientUnits="userSpaceOnUse" x1="327.3" y1="454.525" x2="327.3" y2="485.775" spreadMethod="pad"><stop offset="0%" stop-color="#EF4A47"/><stop offset="45.098%" stop-color="#F9B4A0"/><stop offset="74.902%" stop-color="#FFF"/><stop offset="100%" stop-color="#FDD8CB"/></linearGradient><linearGradient id="D" gradientUnits="userSpaceOnUse" x1="316.4" y1="398.5" x2="316.4" y2="362" spreadMethod="pad"><stop offset="0%" stop-color="#C22F38"/><stop offset="45.098%" stop-color="#EE333F"/><stop offset="74.902%" stop-color="#FBC6B4"/><stop offset="100%" stop-color="#EF4A47"/></linearGradient><linearGradient id="E" gradientUnits="userSpaceOnUse" x1="305.45" y1="393.525" x2="305.45" y2="362.275" spreadMethod="pad"><stop offset="0%" stop-color="#EF4A47"/><stop offset="45.098%" stop-color="#F9B4A0"/><stop offset="74.902%" stop-color="#FFF"/><stop offset="100%" stop-color="#FDD8CB"/></linearGradient><linearGradient id="F" gradientUnits="userSpaceOnUse" x1="327.3" y1="393.525" x2="327.3" y2="362.275" spreadMethod="pad"><stop offset="0%" stop-color="#EF4A47"/><stop offset="45.098%" stop-color="#F9B4A0"/><stop offset="74.902%" stop-color="#FFF"/><stop offset="100%" stop-color="#FDD8CB"/></linearGradient><linearGradient id="G" gradientUnits="userSpaceOnUse" x1="294.087" y1="450.213" x2="308.313" y2="435.488" spreadMethod="pad"><stop offset="0%" stop-color="#C22F38"/><stop offset="100%" stop-color="#7E272A"/></linearGradient><linearGradient id="H" gradientUnits="userSpaceOnUse" x1="307.35" y1="430.4" x2="290.45" y2="447.3" spreadMethod="pad"><stop offset="0%" stop-color="#A82C32"/><stop offset="45.098%" stop-color="#E4323D"/><stop offset="74.902%" stop-color="#F8A38E"/><stop offset="100%" stop-color="#EF4A47"/></linearGradient><linearGradient id="I" gradientUnits="userSpaceOnUse" x1="301.275" y1="431.325" x2="288.025" y2="444.575" spreadMethod="pad"><stop offset="0%" stop-color="#F2705F"/><stop offset="45.098%" stop-color="#FDD8CB"/><stop offset="74.902%" stop-color="#FFF"/><stop offset="100%" stop-color="#FDD8CB"/></linearGradient><linearGradient id="J" gradientUnits="userSpaceOnUse" x1="307.45" y1="437.5" x2="294.15" y2="450.8" spreadMethod="pad"><stop offset="0%" stop-color="#F2705F"/><stop offset="45.098%" stop-color="#FDD8CB"/><stop offset="74.902%" stop-color="#FFF"/><stop offset="100%" stop-color="#FDD8CB"/></linearGradient><linearGradient id="K" gradientUnits="userSpaceOnUse" x1="337.637" y1="450.588" x2="323.662" y2="435.613" spreadMethod="pad"><stop offset="0%" stop-color="#C22F38"/><stop offset="100%" stop-color="#7E272A"/></linearGradient><linearGradient id="L" gradientUnits="userSpaceOnUse" x1="324.4" y1="430.55" x2="341.6" y2="447.15" spreadMethod="pad"><stop offset="0%" stop-color="#A82C32"/><stop offset="45.098%" stop-color="#E4323D"/><stop offset="74.902%" stop-color="#F8A38E"/><stop offset="100%" stop-color="#EF4A47"/></linearGradient><linearGradient id="M" gradientUnits="userSpaceOnUse" x1="330.613" y1="431.438" x2="344.088" y2="444.462" spreadMethod="pad"><stop offset="0%" stop-color="#F2705F"/><stop offset="45.098%" stop-color="#FDD8CB"/><stop offset="74.902%" stop-color="#FFF"/><stop offset="100%" stop-color="#FDD8CB"/></linearGradient><linearGradient id="N" gradientUnits="userSpaceOnUse" x1="324.425" y1="437.563" x2="337.975" y2="450.638" spreadMethod="pad"><stop offset="0%" stop-color="#F2705F"/><stop offset="45.098%" stop-color="#FDD8CB"/><stop offset="74.902%" stop-color="#FFF"/><stop offset="100%" stop-color="#FDD8CB"/></linearGradient><linearGradient id="O" gradientUnits="userSpaceOnUse" x1="290.212" y1="403.613" x2="305.188" y2="417.588" spreadMethod="pad"><stop offset="0%" stop-color="#C22F38"/><stop offset="100%" stop-color="#7E272A"/></linearGradient><linearGradient id="P" gradientUnits="userSpaceOnUse" x1="310.3" y1="416.7" x2="293.4" y2="399.8" spreadMethod="pad"><stop offset="0%" stop-color="#A82C32"/><stop offset="45.098%" stop-color="#E4323D"/><stop offset="74.902%" stop-color="#F8A38E"/><stop offset="100%" stop-color="#EF4A47"/></linearGradient><linearGradient id="Q" gradientUnits="userSpaceOnUse" x1="309.325" y1="410.625" x2="296.075" y2="397.375" spreadMethod="pad"><stop offset="0%" stop-color="#F2705F"/><stop offset="45.098%" stop-color="#FDD8CB"/><stop offset="74.902%" stop-color="#FFF"/><stop offset="100%" stop-color="#FDD8CB"/></linearGradient><linearGradient id="R" gradientUnits="userSpaceOnUse" x1="303.25" y1="416.75" x2="289.95" y2="403.45" spreadMethod="pad"><stop offset="0%" stop-color="#F2705F"/><stop offset="45.098%" stop-color="#FDD8CB"/><stop offset="74.902%" stop-color="#FFF"/><stop offset="100%" stop-color="#FDD8CB"/></linearGradient><linearGradient id="S" gradientUnits="userSpaceOnUse" x1="341.313" y1="403.238" x2="326.587" y2="417.463" spreadMethod="pad"><stop offset="0%" stop-color="#C22F38"/><stop offset="100%" stop-color="#7E272A"/></linearGradient><linearGradient id="T" gradientUnits="userSpaceOnUse" x1="321.5" y1="416.6" x2="338.1" y2="399.4" spreadMethod="pad"><stop offset="0%" stop-color="#A82C32"/><stop offset="45.098%" stop-color="#E4323D"/><stop offset="74.902%" stop-color="#F8A38E"/><stop offset="100%" stop-color="#EF4A47"/></linearGradient><linearGradient id="U" gradientUnits="userSpaceOnUse" x1="321.938" y1="410.938" x2="334.962" y2="397.462" spreadMethod="pad"><stop offset="0%" stop-color="#F2705F"/><stop offset="45.098%" stop-color="#FDD8CB"/><stop offset="74.902%" stop-color="#FFF"/><stop offset="100%" stop-color="#FDD8CB"/></linearGradient><linearGradient id="V" gradientUnits="userSpaceOnUse" x1="328.512" y1="416.575" x2="341.588" y2="403.025" spreadMethod="pad"><stop offset="0%" stop-color="#F2705F"/><stop offset="45.098%" stop-color="#FDD8CB"/><stop offset="74.902%" stop-color="#FFF"/><stop offset="100%" stop-color="#FDD8CB"/></linearGradient><linearGradient id="W" gradientUnits="userSpaceOnUse" x1="316.4" y1="430.538" x2="316.4" y2="415.663" spreadMethod="pad"><stop offset="0%" stop-color="#D6313B"/><stop offset="27.843%" stop-color="#EE333F"/><stop offset="70.98%" stop-color="#F6917D"/><stop offset="100%" stop-color="#EF4A47"/></linearGradient><linearGradient id="X" gradientUnits="userSpaceOnUse" x1="310.65" y1="430.5" x2="310.65" y2="417" spreadMethod="pad"><stop offset="0%" stop-color="#EF4A47"/><stop offset="45.098%" stop-color="#F9B4A0"/><stop offset="74.902%" stop-color="#FFF"/><stop offset="100%" stop-color="#FDD8CB"/></linearGradient><linearGradient id="Y" gradientUnits="userSpaceOnUse" x1="322.1" y1="430.5" x2="322.1" y2="417" spreadMethod="pad"><stop offset="0%" stop-color="#EF4A47"/><stop offset="45.098%" stop-color="#F9B4A0"/><stop offset="74.902%" stop-color="#FFF"/><stop offset="100%" stop-color="#FDD8CB"/></linearGradient><path fill="#FFF" fill-opacity="0" d="M284 0H0v320h284V0z" id="Z"/><path fill="url(#a)" d="M344.55 429.05l-5.45 10.55 45.65 34.7-2.7-16.2 15.95-4.8-53.45-24.25z" id="aa"/><path fill="url(#b)" d="M293.8 439.6l-5.55-10.55-53.4 24.25 15.9 4.8-2.65 16.2 45.7-34.7z" id="ab"/><path fill="url(#c)" d="M361.7 379.35q-3.75 10.8-12.1 14.6-2.3 1.05-9.4 3.4-7.35 2.4-12.55 4.7l10.45 16.3.4-.4q2.65.25 9-4 6-4 12.25-9.85 6.55-6.15 9.85-11.05 3.7-5.5 1.75-7.45l-9.65-6.25z" id="ac"/><path fill="url(#d)" d="M353.7 368.7q-1.9-.85-5.1.55-10 4.25-16.15 11.7-5.45 6.55-11.55 20.3L339 419.4l.5-.45q4-8.8 7.85-14.65 3.9-5.85 8.75-10.35 3.75-3.35 8.75-6.2 5.331-3.02 6.55-2.05l-13.3-13.25q-3.1-3.2-4.4-3.75z" id="ad"/><path fill="url(#e)" d="M354.95 369.35q-2.75.5-4.05 1.05-10.15 4.45-16.45 12-5.6 6.7-11.85 20.55l2.65 2.7q6.3-13.95 11.85-20.6 6.3-7.55 16.45-11.95 1.7-.65 4.1-1.1l-.15-.15q-2.15-2.15-2.55-2.5z" id="ae"/><path fill="url(#f)" d="M369.1 383.4l-2.65-2.7q-11.1 4.05-19.75 14.6-6.05 7.35-12.05 19.7l2.65 2.65q13.25-28.45 31.8-34.25z" id="af"/><path fill="url(#g)" d="M320.45 447.6l.5.5q-.25 2.65 4 9 3.95 5.95 9.8 12.25 6.15 6.55 11 9.85 5.55 3.7 7.45 1.75l6.35-9.65q-10.85-3.8-14.65-12.1-1.05-2.3-3.4-9.4-2.35-7.3-4.7-12.55l-16.35 10.35z" id="ag"/><path fill="url(#h)" d="M319.45 448.6l.5.45q8.75 3.95 14.6 7.85 5.9 3.95 10.3 8.8 3.4 3.7 6.25 8.7 3.041 5.287 2.05 6.55l13.3-13.25q3.15-3.2 3.7-4.4.8-1.9-.55-5.1-4.25-10.05-11.7-16.25-6.5-5.4-20.25-11.5l-18.2 18.15z" id="ah"/><path fill="url(#i)" d="M335.9 432.2l-2.65 2.65q13.95 6.3 20.55 11.8 7.55 6.3 11.95 16.45.3.7 1.15 4.15l.15-.15q1.8-1.8 2.45-2.6-.5-2.9-1.1-4.1-4.4-10.15-11.95-16.4-6.65-5.55-20.55-11.8z" id="ai"/><path fill="url(#j)" d="M323.85 444.2l-2.7 2.7q28.55 13.2 34.3 31.8l2.65-2.75q-4.05-11.05-14.55-19.7-7.45-6.15-19.7-12.05z" id="aj"/><path fill="url(#k)" d="M381.15 436.35l-2.4-11.3q-10.35 5-18.95 1.85-2.3-.9-9-4.25-6.8-3.45-12.2-5.5L334.4 436h.65q1.7 2.05 9.2 3.55 7.05 1.4 15.65 1.65 8.95.3 14.75-.8 6.5-1.3 6.5-4.05z" id="ak"/><path fill="url(#l)" d="M380.65 412q-.8-1.9-4.05-3.2-10.05-4.1-19.75-3.2-8.35.8-22.45 6.15l-11 14.1 11 11.55h.65q9-3.4 15.9-4.8t13.5-1.1q4.95.2 10.6 1.75 5.957 1.62 6.1 3.25v-18.75q0-4.45-.5-5.75z" id="al"/><path fill="url(#m)" d="M381.05 413.35q-2.25-1.6-3.65-2.1-10.3-4.1-20.15-3.2-8.55.8-22.85 6.15v3.8q14.25-5.4 22.85-6.2 9.85-.85 20.15 3.2 1.05.4 3.75 2.15v-.2q0-2.6-.1-3.6z" id="am"/><path fill="url(#n)" d="M381.15 433.2v-3.75q-10.75-4.95-24.3-3.65-9.55.9-22.45 5.4v3.75q29.6-10.8 46.75-1.75z" id="an"/><path fill="url(#o)" d="M271.1 379.35l-9.6 6.25q-1.95 1.95 1.75 7.45 3.3 4.9 9.85 11.05 6.25 5.85 12.25 9.85 6.35 4.25 8.95 4l.5.4 10.3-16.3q-5.2-2.3-12.5-4.7-7.1-2.35-9.35-3.4-8.35-3.8-12.15-14.6z" id="ao"/><path fill="url(#p)" d="M279.1 368.7q-1.2.55-4.4 3.75l-13.25 13.25q1.25-.98 6.55 2.05 4.95 2.8 8.75 6.2 4.9 4.55 8.75 10.35 3.95 5.95 7.8 14.65l.5.45 18.1-18.15q-6.15-13.75-11.55-20.3-6.2-7.45-16.1-11.7-3.2-1.4-5.15-.55z" id="ap"/><path fill="url(#q)" d="M282 370.4q-1.55-.55-4.1-1.05-.55.45-2.6 2.5l-.15.15q2.4.45 4.2 1.1 10.05 4.4 16.35 11.95 5.5 6.65 11.8 20.6l2.65-2.7q-6.25-13.9-11.75-20.55-6.3-7.6-16.4-12z" id="aq"/><path fill="url(#r)" d="M266.35 380.7l-2.65 2.7q18.5 5.75 31.85 34.25l2.55-2.65q-5.9-12.3-11.95-19.7-8.65-10.55-19.8-14.6z" id="ar"/><path fill="url(#s)" d="M273.3 471.3l6.3 9.65q1.95 1.95 7.45-1.75 4.85-3.3 11-9.85 5.85-6.3 9.85-12.25 4.2-6.35 4-9l.4-.5-16.25-10.35q-2.3 5.2-4.7 12.55-2.35 7.1-3.4 9.4-3.8 8.3-14.65 12.1z" id="as"/><path fill="url(#t)" d="M263.2 458.2q-1.35 3.2-.5 5.1.55 1.2 3.75 4.4l13.25 13.25q-.99-1.266 2.05-6.55 2.85-5 6.2-8.7 4.45-4.9 10.25-8.8 5.85-3.9 14.6-7.85l.5-.45-18.15-18.15q-13.7 6.1-20.2 11.5-7.45 6.2-11.75 16.25z" id="at"/><path fill="url(#u)" d="M299.5 434.85l-2.6-2.65q-13.9 6.25-20.5 11.8-7.55 6.25-11.95 16.4-.55 1.2-1.1 4.1.8.95 2.5 2.6l.15.15q.55-3.05 1.1-4.15 4.4-10.15 11.95-16.45 6.55-5.5 20.45-11.8z" id="au"/><path fill="url(#v)" d="M274.7 475.95l2.7 2.75q5.75-18.5 34.2-31.8l-2.7-2.7q-12.2 5.95-19.6 12.05-10.55 8.65-14.6 19.7z" id="av"/><path fill="url(#w)" d="M288.6 439.55q7.45-1.5 9.15-3.55h.6l-4.1-18.85q-5.4 2.05-12.25 5.5-6.7 3.35-9 4.25-8.6 3.15-18.95-1.85l-2.3 11.3q-.05 2.75 6.45 4.05 5.8 1.1 14.75.8 8.6-.25 15.65-1.65z" id="aw"/><path fill="url(#x)" d="M297.75 437.4h.6l11.1-12.4-11.1-13.25q-14.05-5.35-22.4-6.15-9.7-.9-19.75 3.2-3.2 1.3-3.95 3.2-.5 1.25-.5 5.75v18.7q.187-1.605 6.05-3.2 5.65-1.55 10.6-1.75 6.55-.3 13.5 1.1 6.9 1.4 15.85 4.8z" id="ax"/><path fill="url(#y)" d="M298.35 418v-3.8q-14.3-5.35-22.8-6.15-9.85-.9-20.1 3.2-1.35.55-3.6 2.1-.1.65-.1 3.6v.2q2.35-1.65 3.7-2.15 10.3-4.05 20.1-3.2 8.6.8 22.8 6.2z" id="ay"/><path fill="url(#z)" d="M298.35 434.95v-3.75q-12.8-4.5-22.35-5.4-13.55-1.3-24.25 3.65v3.75q17.05-9.05 46.6 1.75z" id="az"/><path fill="url(#A)" d="M316.05 428.9l-11.6 12.75q-.1.15-1.6 1.15-.85.55-.85 1.4v3.85q-1.15 1.35-1.9 6.6-.75 5.3-.75 12.2 0 7.55.4 11.05 1.1 9.1 4.7 9.1h23.85q3.6 0 4.7-9.1.4-3.5.4-11.05 0-6.9-.75-12.2-.75-5.25-1.9-6.6v-3.85q0-.85-.85-1.4-1.5-1-1.6-1.15l-12.25-12.75z" id="aA"/><path fill="url(#B)" d="M308.25 441.65h-3.5q-1.85 13.65-2.05 23.45-.25 12.4 2.05 21.9h3.5q-4-17.85 0-45.35z" id="aB"/><path fill="url(#C)" d="M328 441.65h-3.45q4.05 27.05 0 45.35H328q2.3-9.5 2.05-21.9-.2-9.8-2.05-23.45z" id="aC"/><path fill="url(#D)" d="M333 370.6q-1.1-9.1-4.7-9.1h-23.85q-3.6 0-4.7 9.1-.4 3.4-.4 11 0 6.85.75 12.15.75 5.25 1.9 6.6v3.85q0 .85.85 1.45 1.45.95 1.6 1.15l11.6 12.8 12.25-12.8q.15-.2 1.6-1.15.85-.6.85-1.45v-3.85q1.15-1.35 1.9-6.6.75-5.3.75-12.15 0-7.6-.4-11z" id="aD"/><path fill="url(#E)" d="M308.25 361.5h-3.5q-2.3 9.4-2.05 21.85.2 9.75 2.05 23.45h3.5q-4-27.55 0-45.3z" id="aE"/><path fill="url(#F)" d="M328 361.5h-3.45q4.05 18.15 0 45.3H328q1.85-13.7 2.05-23.45.25-12.45-2.05-21.85z" id="aF"/><path fill="url(#G)" d="M316.05 432.5l-1.95 2.35-8.9-5.7q-2.3 5.25-4.4 12-2.05 4.55-7.95 6.6l3.45 5.25q2.15 2.3 11.4-7.3 9.2-9.6 8.35-13.2z" id="aG"/><path fill="url(#H)" d="M287.4 440.55q-.75 1.75-.3 2.8.3.75 2 2.45l7.25 7.25q-.582-.67 1.1-3.6 1.5-2.7 3.35-4.8 3.8-4.2 11.3-8 1.4-.6 2-.95 1.1-.55 1.65-1.4 1.05-1.65.3-3.9-.75-2.2-2.65-3.75-1.7-1.35-4-1.6-2.25-.3-4.65.45-7.45 3.3-11 6.25-4 3.35-6.35 8.8z" id="aH"/><path fill="url(#I)" d="M288.05 441.85q-.35.75-.65 2.25l1.35 1.35.15.05q.25-1.55.6-2.2 3.15-7 10.4-11.75 4.45-2.95 12.05-5.75-1-.75-3.05-.85-8.65 4-12.15 6.45-6 4.25-8.7 10.45z" id="aI"/><path fill="url(#J)" d="M316.05 430.55q-6.75 3.25-12.3 7.35-7.5 5.2-10.1 12.35l1.45 1.55q2.15-7.15 10.1-12.55 6.25-4.35 11.15-6.6.1-1.2-.3-2.1z" id="aJ"/><path fill="url(#K)" d="M318 435.2l-1.95-2.35q-.85 3.6 8.4 13.2 9.2 9.55 11.4 7.3l3.45-5.25q-5.85-2.05-7.95-6.6-2.1-6.75-4.45-11.95l-8.9 5.65z" id="aK"/><path fill="url(#L)" d="M318 436.15q.05 0 2 .95 7.2 3.45 11.3 8 1.85 1.9 3.45 4.75 1.64 2.859 1.1 3.5l7.2-7.2q1.75-1.75 2-2.4.5-1-.25-2.75-2.35-5.5-6.4-8.85-3.55-2.95-11.05-6.3-2.4-.75-4.65-.45-2.25.25-3.9 1.6-1.95 1.6-2.7 3.75-.75 2.25.3 3.9.55.85 1.6 1.5z" id="aL"/><path fill="url(#M)" d="M323.25 425.35q-2.05 0-3.1.85 7.7 2.85 12.15 5.75 7.25 4.7 10.4 11.7.15.35.65 2.3l.05-.05q.25-.3 1.4-1.45-.55-2.05-.65-2.25-2.7-6.25-8.7-10.45-3.55-2.5-12.2-6.4z" id="aM"/><path fill="url(#N)" d="M316.05 430.95q-.4 1.25-.2 2.05 4.65 2.1 11.05 6.6 8.1 5.65 10.15 12.55l1.55-1.45q-2.75-7.25-10.25-12.45-5.95-4.25-12.3-7.3z" id="aN"/><path fill="url(#O)" d="M293.1 402.15l-5.25 3.5q-2.25 2.25 7.3 11.4 9.5 9.15 13.1 8.4l-2.35-2.05 5.6-8.75q-9-3.1-11.9-4.45-4.5-2.1-6.5-8.05z" id="aO"/><path fill="url(#P)" d="M315.25 414.15q-3.35-7.5-6.3-11.05-3.4-4.05-8.8-6.4-1.7-.75-2.7-.3-.7.3-2.4 2.05l-7.3 7.25q.679-.576 3.6 1.1 2.75 1.6 4.75 3.45 4.5 4.15 7.95 11.3.35.65.95 1.9.55 1.05 1.4 1.6 1.65 1.05 3.95.3 2.2-.75 3.7-2.65 2.75-3.35 1.2-8.55z" id="aP"/><path fill="url(#Q)" d="M315.75 418.3q-3.8-8.55-6.35-12.2-4.25-6-10.5-8.75-1-.4-2.15-.6l-1.5 1.45q1.65.25 2.25.6 6.95 3.15 11.7 10.45 2.85 4.45 5.7 12.15.75-1.1.85-3.1z" id="aQ"/><path fill="url(#R)" d="M310.15 425.35q-2.85-5.8-7.25-12.25-5.4-7.5-12.4-10.15l-1.45 1.45q6.8 2.15 12.45 10.25 4.35 6.05 6.65 11 .9.2 2-.3z" id="aR"/><path fill="url(#S)" d="M343.85 405.65l-5.25-3.5q-2.1 5.95-6.65 8.05-6.7 2.1-11.95 4.45l5.7 8.75-2.4 2.05q3.6.75 13.2-8.4t7.35-11.4z" id="aS"/><path fill="url(#T)" d="M317.5 422.7q1.55 1.9 3.75 2.65 2.25.75 3.85-.3.85-.55 1.45-1.6.65-1.25 1-1.9 3.5-7.3 8-11.3 1.95-1.85 4.75-3.45 2.814-1.66 3.5-1.15l-7.15-7.2q-1.7-1.75-2.4-2.05-1.05-.45-2.8.3-5.45 2.35-8.85 6.4-2.95 3.6-6.25 11.05-.75 2.4-.45 4.6.25 2.3 1.6 3.95z" id="aT"/><path fill="url(#U)" d="M316.7 421.4q2.85-7.7 5.7-12.15 4.75-7.3 11.7-10.45.75-.35 2.35-.6l-.15-.05q-.5-.6-1.4-1.4-1.2.2-2.2.6-6.25 2.75-10.5 8.75-2.5 3.5-6.45 12.2.2 2.1.95 3.1z" id="aU"/><path fill="url(#V)" d="M321.4 425.35q1.15.5 2.05.3 2.3-4.95 6.65-11 5.4-7.95 12.5-10.25l-1.4-1.45q-7.1 2.65-12.5 10.15-4.3 6.3-7.3 12.25z" id="aV"/><path fill="url(#W)" d="M309.8 415.8q-1.1 0-1.85.75t-.75 1.8v13.2q0 1.1.75 1.85t1.85.75h13.15q1.1 0 1.9-.75.8-.75.8-1.85v-13.2q0-1.05-.8-1.8t-1.9-.75H309.8z" id="aW"/><path fill="url(#X)" d="M311.5 415.8h-1.7v18.35h1.7V415.8z" id="aX"/><path fill="url(#Y)" d="M322.95 415.8h-1.7v18.35h1.7V415.8z" id="aY"/></defs><use xlink:href="#Z"/><use xlink:href="#aa" transform="matrix(1.74072 0 0 1.74072 -408.759 -568.471)"/><use xlink:href="#ab" transform="matrix(1.74072 0 0 1.74072 -408.759 -568.471)"/><use xlink:href="#ac" transform="matrix(1.74072 0 0 1.74072 -408.759 -568.471)"/><use xlink:href="#ad" transform="matrix(1.74072 0 0 1.74072 -408.759 -568.471)"/><use xlink:href="#ae" transform="matrix(1.74072 0 0 1.74072 -408.759 -568.471)"/><use xlink:href="#af" transform="matrix(1.74072 0 0 1.74072 -408.759 -568.471)"/><use xlink:href="#ag" transform="matrix(1.74072 0 0 1.74072 -408.759 -568.471)"/><use xlink:href="#ah" transform="matrix(1.74072 0 0 1.74072 -408.759 -568.471)"/><use xlink:href="#ai" transform="matrix(1.74072 0 0 1.74072 -408.759 -568.471)"/><use xlink:href="#aj" transform="matrix(1.74072 0 0 1.74072 -408.759 -568.471)"/><use xlink:href="#ak" transform="matrix(1.74072 0 0 1.74072 -408.759 -568.471)"/><use xlink:href="#al" transform="matrix(1.74072 0 0 1.74072 -408.759 -568.471)"/><use xlink:href="#am" transform="matrix(1.74072 0 0 1.74072 -408.759 -568.471)"/><use xlink:href="#an" transform="matrix(1.74072 0 0 1.74072 -408.759 -568.471)"/><use xlink:href="#ao" transform="matrix(1.74072 0 0 1.74072 -408.759 -568.471)"/><use xlink:href="#ap" transform="matrix(1.74072 0 0 1.74072 -408.759 -568.471)"/><use xlink:href="#aq" transform="matrix(1.74072 0 0 1.74072 -408.759 -568.471)"/><use xlink:href="#ar" transform="matrix(1.74072 0 0 1.74072 -408.759 -568.471)"/><use xlink:href="#as" transform="matrix(1.74072 0 0 1.74072 -408.759 -568.471)"/><use xlink:href="#at" transform="matrix(1.74072 0 0 1.74072 -408.759 -568.471)"/><use xlink:href="#au" transform="matrix(1.74072 0 0 1.74072 -408.759 -568.471)"/><use xlink:href="#av" transform="matrix(1.74072 0 0 1.74072 -408.759 -568.471)"/><use xlink:href="#aw" transform="matrix(1.74072 0 0 1.74072 -408.759 -568.471)"/><use xlink:href="#ax" transform="matrix(1.74072 0 0 1.74072 -408.759 -568.471)"/><use xlink:href="#ay" transform="matrix(1.74072 0 0 1.74072 -408.759 -568.471)"/><use xlink:href="#az" transform="matrix(1.74072 0 0 1.74072 -408.759 -568.471)"/><use xlink:href="#aA" transform="matrix(1.74072 0 0 1.74072 -408.759 -568.471)"/><use xlink:href="#aB" transform="matrix(1.74072 0 0 1.74072 -408.759 -568.471)"/><use xlink:href="#aC" transform="matrix(1.74072 0 0 1.74072 -408.759 -568.471)"/><use xlink:href="#aD" transform="matrix(1.74072 0 0 1.74072 -408.759 -568.471)"/><use xlink:href="#aE" transform="matrix(1.74072 0 0 1.74072 -408.759 -568.471)"/><use xlink:href="#aF" transform="matrix(1.74072 0 0 1.74072 -408.759 -568.471)"/><use xlink:href="#aG" transform="matrix(1.74072 0 0 1.74072 -408.759 -568.471)"/><use xlink:href="#aH" transform="matrix(1.74072 0 0 1.74072 -408.759 -568.471)"/><use xlink:href="#aI" transform="matrix(1.74072 0 0 1.74072 -408.759 -568.471)"/><use xlink:href="#aJ" transform="matrix(1.74072 0 0 1.74072 -408.759 -568.471)"/><use xlink:href="#aK" transform="matrix(1.74072 0 0 1.74072 -408.759 -568.471)"/><use xlink:href="#aL" transform="matrix(1.74072 0 0 1.74072 -408.759 -568.471)"/><use xlink:href="#aM" transform="matrix(1.74072 0 0 1.74072 -408.759 -568.471)"/><use xlink:href="#aN" transform="matrix(1.74072 0 0 1.74072 -408.759 -568.471)"/><use xlink:href="#aO" transform="matrix(1.74072 0 0 1.74072 -408.759 -568.471)"/><use xlink:href="#aP" transform="matrix(1.74072 0 0 1.74072 -408.759 -568.471)"/><use xlink:href="#aQ" transform="matrix(1.74072 0 0 1.74072 -408.759 -568.471)"/><use xlink:href="#aR" transform="matrix(1.74072 0 0 1.74072 -408.759 -568.471)"/><use xlink:href="#aS" transform="matrix(1.74072 0 0 1.74072 -408.759 -568.471)"/><use xlink:href="#aT" transform="matrix(1.74072 0 0 1.74072 -408.759 -568.471)"/><use xlink:href="#aU" transform="matrix(1.74072 0 0 1.74072 -408.759 -568.471)"/><use xlink:href="#aV" transform="matrix(1.74072 0 0 1.74072 -408.759 -568.471)"/><use xlink:href="#aW" transform="matrix(1.74072 0 0 1.74072 -408.759 -568.471)"/><use xlink:href="#aX" transform="matrix(1.74072 0 0 1.74072 -408.759 -568.471)"/><use xlink:href="#aY" transform="matrix(1.74072 0 0 1.74072 -408.759 -568.471)"/></svg>