<svg xmlns="http://www.w3.org/2000/svg" xmlns:xlink="http://www.w3.org/1999/xlink" preserveAspectRatio="none" width="284" height="320"><defs><linearGradient id="a" gradientUnits="userSpaceOnUse" x1="243.5" y1="269.6" x2="293.7" y2="269.6" spreadMethod="pad"><stop offset="0%" stop-color="#AB5C2D"/><stop offset="100%" stop-color="#B0612E"/></linearGradient><linearGradient id="b" gradientUnits="userSpaceOnUse" x1="253.275" y1="267.2" x2="224.725" y2="265.7" spreadMethod="pad"><stop offset="0%" stop-color="#AD5D2E"/><stop offset="100%" stop-color="#E2BA9A"/></linearGradient><linearGradient id="c" gradientUnits="userSpaceOnUse" x1="327.663" y1="285.15" x2="331.438" y2="315.95" spreadMethod="pad"><stop offset="0%" stop-color="#6E2D24"/><stop offset="100%" stop-color="#9C4C2B"/></linearGradient><linearGradient id="d" gradientUnits="userSpaceOnUse" x1="338.038" y1="223.875" x2="288.462" y2="236.225" spreadMethod="pad"><stop offset="0%" stop-color="#E7E8E9"/><stop offset="100%" stop-color="#D2D4D5"/></linearGradient><linearGradient id="e" gradientUnits="userSpaceOnUse" x1="252.563" y1="282.075" x2="267.138" y2="300.725" spreadMethod="pad"><stop offset="0%" stop-color="#EE3338"/><stop offset="100%" stop-color="#C93039"/></linearGradient><linearGradient id="f" gradientUnits="userSpaceOnUse" x1="261.2" y1="281.538" x2="261.2" y2="268.063" spreadMethod="pad"><stop offset="0%" stop-color="#F47D62"/><stop offset="100%" stop-color="#FFF"/></linearGradient><linearGradient id="g" gradientUnits="userSpaceOnUse" x1="276.338" y1="207.475" x2="274.262" y2="211.925" spreadMethod="pad"><stop offset="0%" stop-color="#C6E09E"/><stop offset="100%" stop-color="#69BE62"/></linearGradient><linearGradient id="h" gradientUnits="userSpaceOnUse" x1="276.5" y1="207.563" x2="275.6" y2="209.438" spreadMethod="pad"><stop offset="0%" stop-color="#FFF"/><stop offset="100%" stop-color="#A6D282"/></linearGradient><linearGradient id="i" gradientUnits="userSpaceOnUse" x1="291.637" y1="214.575" x2="289.463" y2="219.225" spreadMethod="pad"><stop offset="0%" stop-color="#C6E09E"/><stop offset="100%" stop-color="#69BE62"/></linearGradient><linearGradient id="j" gradientUnits="userSpaceOnUse" x1="291.75" y1="214.638" x2="290.85" y2="216.463" spreadMethod="pad"><stop offset="0%" stop-color="#FFF"/><stop offset="100%" stop-color="#A6D282"/></linearGradient><linearGradient id="k" gradientUnits="userSpaceOnUse" x1="306.787" y1="221.675" x2="304.613" y2="226.325" spreadMethod="pad"><stop offset="0%" stop-color="#C6E09E"/><stop offset="100%" stop-color="#69BE62"/></linearGradient><linearGradient id="l" gradientUnits="userSpaceOnUse" x1="307.15" y1="221.338" x2="306.25" y2="223.162" spreadMethod="pad"><stop offset="0%" stop-color="#FFF"/><stop offset="100%" stop-color="#A6D282"/></linearGradient><linearGradient id="m" gradientUnits="userSpaceOnUse" x1="322.188" y1="228.425" x2="320.013" y2="233.075" spreadMethod="pad"><stop offset="0%" stop-color="#C6E09E"/><stop offset="100%" stop-color="#69BE62"/></linearGradient><linearGradient id="n" gradientUnits="userSpaceOnUse" x1="322.4" y1="228.488" x2="321.5" y2="230.313" spreadMethod="pad"><stop offset="0%" stop-color="#FFF"/><stop offset="100%" stop-color="#A6D282"/></linearGradient><linearGradient id="o" gradientUnits="userSpaceOnUse" x1="337.438" y1="235.525" x2="335.263" y2="240.175" spreadMethod="pad"><stop offset="0%" stop-color="#C6E09E"/><stop offset="100%" stop-color="#69BE62"/></linearGradient><linearGradient id="p" gradientUnits="userSpaceOnUse" x1="337.6" y1="235.588" x2="336.7" y2="237.412" spreadMethod="pad"><stop offset="0%" stop-color="#FFF"/><stop offset="100%" stop-color="#A6D282"/></linearGradient><linearGradient id="q" gradientUnits="userSpaceOnUse" x1="352.688" y1="242.625" x2="350.612" y2="247.075" spreadMethod="pad"><stop offset="0%" stop-color="#C6E09E"/><stop offset="100%" stop-color="#69BE62"/></linearGradient><linearGradient id="r" gradientUnits="userSpaceOnUse" x1="352.85" y1="242.713" x2="351.95" y2="244.588" spreadMethod="pad"><stop offset="0%" stop-color="#FFF"/><stop offset="100%" stop-color="#A6D282"/></linearGradient><linearGradient id="s" gradientUnits="userSpaceOnUse" x1="299.188" y1="200.425" x2="297.013" y2="205.075" spreadMethod="pad"><stop offset="0%" stop-color="#C6E09E"/><stop offset="100%" stop-color="#69BE62"/></linearGradient><linearGradient id="t" gradientUnits="userSpaceOnUse" x1="299.35" y1="200.488" x2="298.45" y2="202.313" spreadMethod="pad"><stop offset="0%" stop-color="#FFF"/><stop offset="100%" stop-color="#A6D282"/></linearGradient><linearGradient id="u" gradientUnits="userSpaceOnUse" x1="314.438" y1="207.525" x2="312.263" y2="212.175" spreadMethod="pad"><stop offset="0%" stop-color="#C6E09E"/><stop offset="100%" stop-color="#69BE62"/></linearGradient><linearGradient id="v" gradientUnits="userSpaceOnUse" x1="314.6" y1="207.588" x2="313.7" y2="209.412" spreadMethod="pad"><stop offset="0%" stop-color="#FFF"/><stop offset="100%" stop-color="#A6D282"/></linearGradient><linearGradient id="w" gradientUnits="userSpaceOnUse" x1="329.688" y1="214.625" x2="327.513" y2="219.275" spreadMethod="pad"><stop offset="0%" stop-color="#C6E09E"/><stop offset="100%" stop-color="#69BE62"/></linearGradient><linearGradient id="x" gradientUnits="userSpaceOnUse" x1="329.85" y1="214.688" x2="328.95" y2="216.512" spreadMethod="pad"><stop offset="0%" stop-color="#FFF"/><stop offset="100%" stop-color="#A6D282"/></linearGradient><linearGradient id="y" gradientUnits="userSpaceOnUse" x1="345.087" y1="221.375" x2="342.913" y2="226.025" spreadMethod="pad"><stop offset="0%" stop-color="#C6E09E"/><stop offset="100%" stop-color="#69BE62"/></linearGradient><linearGradient id="z" gradientUnits="userSpaceOnUse" x1="345.25" y1="221.438" x2="344.35" y2="223.262" spreadMethod="pad"><stop offset="0%" stop-color="#FFF"/><stop offset="100%" stop-color="#A6D282"/></linearGradient><linearGradient id="A" gradientUnits="userSpaceOnUse" x1="358.275" y1="229.45" x2="356.425" y2="233.45" spreadMethod="pad"><stop offset="0%" stop-color="#C6E09E"/><stop offset="100%" stop-color="#69BE62"/></linearGradient><linearGradient id="B" gradientUnits="userSpaceOnUse" x1="358.337" y1="229.463" x2="357.563" y2="231.138" spreadMethod="pad"><stop offset="0%" stop-color="#FFF"/><stop offset="100%" stop-color="#A6D282"/></linearGradient><linearGradient id="C" gradientUnits="userSpaceOnUse" x1="297.487" y1="235.525" x2="295.313" y2="240.175" spreadMethod="pad"><stop offset="0%" stop-color="#C6E09E"/><stop offset="100%" stop-color="#69BE62"/></linearGradient><linearGradient id="D" gradientUnits="userSpaceOnUse" x1="297.65" y1="235.588" x2="296.75" y2="237.412" spreadMethod="pad"><stop offset="0%" stop-color="#FFF"/><stop offset="100%" stop-color="#A6D282"/></linearGradient><linearGradient id="E" gradientUnits="userSpaceOnUse" x1="312.688" y1="242.625" x2="310.513" y2="247.275" spreadMethod="pad"><stop offset="0%" stop-color="#C6E09E"/><stop offset="100%" stop-color="#69BE62"/></linearGradient><linearGradient id="F" gradientUnits="userSpaceOnUse" x1="312.8" y1="242.688" x2="311.9" y2="244.512" spreadMethod="pad"><stop offset="0%" stop-color="#FFF"/><stop offset="100%" stop-color="#A6D282"/></linearGradient><linearGradient id="G" gradientUnits="userSpaceOnUse" x1="328.087" y1="249.375" x2="325.913" y2="254.025" spreadMethod="pad"><stop offset="0%" stop-color="#C6E09E"/><stop offset="100%" stop-color="#69BE62"/></linearGradient><linearGradient id="H" gradientUnits="userSpaceOnUse" x1="328.25" y1="249.438" x2="327.35" y2="251.262" spreadMethod="pad"><stop offset="0%" stop-color="#FFF"/><stop offset="100%" stop-color="#A6D282"/></linearGradient><linearGradient id="I" gradientUnits="userSpaceOnUse" x1="322.938" y1="194.275" x2="320.763" y2="198.925" spreadMethod="pad"><stop offset="0%" stop-color="#C6E09E"/><stop offset="100%" stop-color="#69BE62"/></linearGradient><linearGradient id="J" gradientUnits="userSpaceOnUse" x1="323.1" y1="194.338" x2="322.2" y2="196.162" spreadMethod="pad"><stop offset="0%" stop-color="#FFF"/><stop offset="100%" stop-color="#A6D282"/></linearGradient><linearGradient id="K" gradientUnits="userSpaceOnUse" x1="338.188" y1="201.375" x2="336.013" y2="206.025" spreadMethod="pad"><stop offset="0%" stop-color="#C6E09E"/><stop offset="100%" stop-color="#69BE62"/></linearGradient><linearGradient id="L" gradientUnits="userSpaceOnUse" x1="338.3" y1="201.438" x2="337.4" y2="203.262" spreadMethod="pad"><stop offset="0%" stop-color="#FFF"/><stop offset="100%" stop-color="#A6D282"/></linearGradient><linearGradient id="M" gradientUnits="userSpaceOnUse" x1="304.737" y1="256.625" x2="302.563" y2="261.275" spreadMethod="pad"><stop offset="0%" stop-color="#C6E09E"/><stop offset="100%" stop-color="#69BE62"/></linearGradient><linearGradient id="N" gradientUnits="userSpaceOnUse" x1="304.5" y1="257.537" x2="303.6" y2="259.363" spreadMethod="pad"><stop offset="0%" stop-color="#FFF"/><stop offset="100%" stop-color="#A6D282"/></linearGradient><linearGradient id="O" gradientUnits="userSpaceOnUse" x1="270.15" y1="253.763" x2="258.25" y2="243.037" spreadMethod="pad"><stop offset="0%" stop-color="#00964D"/><stop offset="100%" stop-color="#69BE62"/></linearGradient><linearGradient id="P" gradientUnits="userSpaceOnUse" x1="266.513" y1="251.475" x2="260.688" y2="242.525" spreadMethod="pad"><stop offset="0%" stop-color="#00964D"/><stop offset="49.804%" stop-color="#81C56D"/><stop offset="100%" stop-color="#FFF"/></linearGradient><linearGradient id="Q" gradientUnits="userSpaceOnUse" x1="260.837" y1="215.038" x2="238.963" y2="244.063" spreadMethod="pad"><stop offset="0%" stop-color="#E7E8E9"/><stop offset="100%" stop-color="#FFF"/></linearGradient><linearGradient id="R" gradientUnits="userSpaceOnUse" x1="272.463" y1="228.525" x2="292.238" y2="258.975" spreadMethod="pad"><stop offset="0%" stop-color="#E7E8E9"/><stop offset="100%" stop-color="#FFF"/></linearGradient><linearGradient id="S" gradientUnits="userSpaceOnUse" x1="306.762" y1="282.488" x2="325.637" y2="296.713" spreadMethod="pad"><stop offset="0%" stop-color="#DBDCDD"/><stop offset="100%" stop-color="#B8BABC"/></linearGradient><linearGradient id="T" gradientUnits="userSpaceOnUse" x1="312.513" y1="287.475" x2="309.688" y2="284.925" spreadMethod="pad"><stop offset="0%" stop-color="#A82C32"/><stop offset="54.902%" stop-color="#E4323D"/><stop offset="100%" stop-color="#F2705F"/></linearGradient><linearGradient id="U" gradientUnits="userSpaceOnUse" x1="321.913" y1="285.025" x2="319.087" y2="282.475" spreadMethod="pad"><stop offset="0%" stop-color="#A82C32"/><stop offset="54.902%" stop-color="#E4323D"/><stop offset="100%" stop-color="#F2705F"/></linearGradient><linearGradient id="V" gradientUnits="userSpaceOnUse" x1="312.663" y1="296.275" x2="309.837" y2="293.725" spreadMethod="pad"><stop offset="0%" stop-color="#A82C32"/><stop offset="54.902%" stop-color="#E4323D"/><stop offset="100%" stop-color="#F2705F"/></linearGradient><linearGradient id="W" gradientUnits="userSpaceOnUse" x1="321.563" y1="293.425" x2="318.737" y2="290.875" spreadMethod="pad"><stop offset="0%" stop-color="#A82C32"/><stop offset="54.902%" stop-color="#E4323D"/><stop offset="100%" stop-color="#F2705F"/></linearGradient><linearGradient id="X" gradientUnits="userSpaceOnUse" x1="336.1" y1="274.025" x2="354.1" y2="287.575" spreadMethod="pad"><stop offset="0%" stop-color="#DBDCDD"/><stop offset="100%" stop-color="#B8BABC"/></linearGradient><linearGradient id="Y" gradientUnits="userSpaceOnUse" x1="341.9" y1="279.063" x2="339.2" y2="276.638" spreadMethod="pad"><stop offset="0%" stop-color="#A82C32"/><stop offset="54.902%" stop-color="#E4323D"/><stop offset="100%" stop-color="#F2705F"/></linearGradient><linearGradient id="Z" gradientUnits="userSpaceOnUse" x1="350" y1="275.962" x2="347.3" y2="273.538" spreadMethod="pad"><stop offset="0%" stop-color="#A82C32"/><stop offset="54.902%" stop-color="#E4323D"/><stop offset="100%" stop-color="#F2705F"/></linearGradient><linearGradient id="aa" gradientUnits="userSpaceOnUse" x1="341.75" y1="287.212" x2="339.05" y2="284.788" spreadMethod="pad"><stop offset="0%" stop-color="#A82C32"/><stop offset="54.902%" stop-color="#E4323D"/><stop offset="100%" stop-color="#F2705F"/></linearGradient><linearGradient id="ab" gradientUnits="userSpaceOnUse" x1="349.85" y1="284.112" x2="347.15" y2="281.688" spreadMethod="pad"><stop offset="0%" stop-color="#A82C32"/><stop offset="54.902%" stop-color="#E4323D"/><stop offset="100%" stop-color="#F2705F"/></linearGradient><linearGradient id="ac" gradientUnits="userSpaceOnUse" x1="283.225" y1="314.738" x2="286.175" y2="318.262" spreadMethod="pad"><stop offset="0%" stop-color="#BBDA8D"/><stop offset="100%" stop-color="#17A652"/></linearGradient><linearGradient id="ad" gradientUnits="userSpaceOnUse" x1="282.3" y1="313.7" x2="284.1" y2="316" spreadMethod="pad"><stop offset="0%" stop-color="#FFF"/><stop offset="100%" stop-color="#BBDA8D"/></linearGradient><linearGradient id="ae" gradientUnits="userSpaceOnUse" x1="282.475" y1="301.525" x2="285.025" y2="304.575" spreadMethod="pad"><stop offset="0%" stop-color="#BBDA8D"/><stop offset="100%" stop-color="#17A652"/></linearGradient><linearGradient id="af" gradientUnits="userSpaceOnUse" x1="282.387" y1="301.612" x2="284.012" y2="303.688" spreadMethod="pad"><stop offset="0%" stop-color="#FFF"/><stop offset="100%" stop-color="#BBDA8D"/></linearGradient><linearGradient id="ag" gradientUnits="userSpaceOnUse" x1="282.575" y1="289.425" x2="285.125" y2="292.475" spreadMethod="pad"><stop offset="0%" stop-color="#BBDA8D"/><stop offset="100%" stop-color="#17A652"/></linearGradient><linearGradient id="ah" gradientUnits="userSpaceOnUse" x1="281.988" y1="288.912" x2="283.613" y2="290.988" spreadMethod="pad"><stop offset="0%" stop-color="#FFF"/><stop offset="100%" stop-color="#BBDA8D"/></linearGradient><linearGradient id="ai" gradientUnits="userSpaceOnUse" x1="282.625" y1="277.375" x2="285.175" y2="280.425" spreadMethod="pad"><stop offset="0%" stop-color="#BBDA8D"/><stop offset="100%" stop-color="#17A652"/></linearGradient><linearGradient id="aj" gradientUnits="userSpaceOnUse" x1="281.688" y1="276.362" x2="283.313" y2="278.438" spreadMethod="pad"><stop offset="0%" stop-color="#FFF"/><stop offset="100%" stop-color="#BBDA8D"/></linearGradient><linearGradient id="ak" gradientUnits="userSpaceOnUse" x1="280.675" y1="265.325" x2="283.225" y2="268.375" spreadMethod="pad"><stop offset="0%" stop-color="#BBDA8D"/><stop offset="100%" stop-color="#17A652"/></linearGradient><linearGradient id="al" gradientUnits="userSpaceOnUse" x1="280.137" y1="264.762" x2="281.762" y2="266.838" spreadMethod="pad"><stop offset="0%" stop-color="#FFF"/><stop offset="100%" stop-color="#BBDA8D"/></linearGradient><linearGradient id="am" gradientUnits="userSpaceOnUse" x1="276.125" y1="254.838" x2="279.075" y2="258.363" spreadMethod="pad"><stop offset="0%" stop-color="#BBDA8D"/><stop offset="100%" stop-color="#17A652"/></linearGradient><linearGradient id="an" gradientUnits="userSpaceOnUse" x1="275.15" y1="253.8" x2="276.95" y2="256.1" spreadMethod="pad"><stop offset="0%" stop-color="#FFF"/><stop offset="100%" stop-color="#BBDA8D"/></linearGradient><linearGradient id="ao" gradientUnits="userSpaceOnUse" x1="250.375" y1="248.613" x2="253.125" y2="251.887" spreadMethod="pad"><stop offset="0%" stop-color="#C6E09E"/><stop offset="100%" stop-color="#2DB455"/></linearGradient><linearGradient id="ap" gradientUnits="userSpaceOnUse" x1="249" y1="246.912" x2="250.7" y2="249.088" spreadMethod="pad"><stop offset="0%" stop-color="#FFF"/><stop offset="100%" stop-color="#C2DFA9"/></linearGradient><linearGradient id="aq" gradientUnits="userSpaceOnUse" x1="243.675" y1="255.35" x2="246.025" y2="258.15" spreadMethod="pad"><stop offset="0%" stop-color="#C6E09E"/><stop offset="100%" stop-color="#2DB455"/></linearGradient><linearGradient id="ar" gradientUnits="userSpaceOnUse" x1="243.2" y1="254.75" x2="244.7" y2="256.65" spreadMethod="pad"><stop offset="0%" stop-color="#FFF"/><stop offset="100%" stop-color="#C2DFA9"/></linearGradient><linearGradient id="as" gradientUnits="userSpaceOnUse" x1="240.438" y1="264.563" x2="242.762" y2="267.337" spreadMethod="pad"><stop offset="0%" stop-color="#C6E09E"/><stop offset="100%" stop-color="#2DB455"/></linearGradient><linearGradient id="at" gradientUnits="userSpaceOnUse" x1="240.462" y1="264.55" x2="241.938" y2="266.45" spreadMethod="pad"><stop offset="0%" stop-color="#FFF"/><stop offset="100%" stop-color="#C2DFA9"/></linearGradient><linearGradient id="au" gradientUnits="userSpaceOnUse" x1="240.5" y1="275.525" x2="242.8" y2="278.275" spreadMethod="pad"><stop offset="0%" stop-color="#C6E09E"/><stop offset="100%" stop-color="#2DB455"/></linearGradient><linearGradient id="av" gradientUnits="userSpaceOnUse" x1="239.625" y1="274.413" x2="241.075" y2="276.288" spreadMethod="pad"><stop offset="0%" stop-color="#FFF"/><stop offset="100%" stop-color="#C2DFA9"/></linearGradient><linearGradient id="aw" gradientUnits="userSpaceOnUse" x1="240.263" y1="285.7" x2="242.537" y2="288.4" spreadMethod="pad"><stop offset="0%" stop-color="#C6E09E"/><stop offset="100%" stop-color="#2DB455"/></linearGradient><linearGradient id="ax" gradientUnits="userSpaceOnUse" x1="239.375" y1="284.625" x2="240.825" y2="286.475" spreadMethod="pad"><stop offset="0%" stop-color="#FFF"/><stop offset="100%" stop-color="#C2DFA9"/></linearGradient><linearGradient id="ay" gradientUnits="userSpaceOnUse" x1="240.363" y1="296.662" x2="242.938" y2="299.738" spreadMethod="pad"><stop offset="0%" stop-color="#C6E09E"/><stop offset="100%" stop-color="#2DB455"/></linearGradient><linearGradient id="az" gradientUnits="userSpaceOnUse" x1="239.513" y1="295.538" x2="241.088" y2="297.563" spreadMethod="pad"><stop offset="0%" stop-color="#FFF"/><stop offset="100%" stop-color="#C2DFA9"/></linearGradient><path fill="#FFF" fill-opacity="0" d="M284 0H0v320h284V0z" id="aA"/><path fill="url(#a)" d="M293.25 260.75l-30.2-48.85-28.3 43.4V283q0 3.9-.1 9.55.1 4.2 1.1 6.55 2 4.95 13.25 10.7 7.3 2.95 26.3 11.35 15.45 6.6 18.95 6.15l-1-66.55z" id="aB"/><path fill="url(#b)" d="M243.05 295.45q.1-3.05 0-9.9-.1-7.95-.1-11.25.1-8.25.55-11.2.45-2.8 2.2-6.2l12.45-22.7-15.75 20.15q-3 3.85-3.65 5.8-.6 1.8-.6 6.9 0 2.75-.3 7.95-.35 5.25-.35 7.8 0 2.65.15 10.95 0 4.35 2.1 5.7 1.1.7 1.95 0 1.05-.9 1.35-4z" id="aC"/><path fill="#91412A" d="M265.7 267.55q.75.25 2.05 1.05 1.2.8 1.85 1.55 2.45 2.45 3.8 6.2 1.45 4 1.4 8.9l-6.9 32.85 10.85 4.3v-37.25q.1-5.6-1.65-10.4-1.6-4.45-4.6-7.5-1.35-1.25-2.55-2-1.25-.9-2.65-1.4l-.05-.05q-2.45-.95-4.85-.9-3.25 0-5.95 2.05-2.75 2.05-4.2 5.6-1.5 3.85-1.5 9.15l1.3 26.7q0 .85.6 1.4.65.55 1.5.5.8-.1 1.35-.65.55-.65.5-1.45l-1.3-26.7q0-4.35 1.3-7.5 1.05-2.55 2.75-3.9 1.45-1.1 3.65-1.2 1.65 0 3.3.65z" id="aD"/><path fill="#91412A" d="M261.25 242.85l-4.65-.1q-.4 0-.65.35-.3.3-.3.8 0 .55.2.9l3.3 4.35-.9 5.15q0 .55.35 1 .35.5.85.55.55.15 1.8-.5l2.8-1.05 2.8 2.15q1.3 1.05 1.75 1.15.55.1.9-.2.4-.35.4-.95l-.65-5.4 2.9-2.55q.1-.2.55-.55.3-.3.3-.8 0-1-.95-1.5l-.7-.2-3.9-1.45-2-5.2q-.35-.65-.95-.85-.65-.15-1 .5l-2.25 4.4z" id="aE"/><path fill="url(#c)" d="M362.05 282.3v-33.05L292.7 261.9l1.4 65.6q3.55.05 8.75-1.1 4.8-1.1 9.6-2.9l31.25-10.75q12.35-4.3 15.35-9.15 3-4.95 3-21.3z" id="aG"/><path fill="url(#d)" d="M360.2 232.1l-17.65-26.4q-3.45-5.55-4.85-7.6-2.25-3.3-4.25-4.65-4.4-2.95-16.25-.5l-55.15 11.35 37.5 67.6 54.1-15.3q10.1-2.55 11.3-9.1 1.05-5.7-4.75-15.4z" id="aH"/><path fill="#EBECED" d="M286.6 248.5l5.1 9.15 22.5 10.15 9.25-2.65-36.85-16.65z" id="aI"/><path fill="#EBECED" d="M338.6 260.85l9.3-2.6-74.6-33.65 5.1 9.1 60.2 27.15z" id="aJ"/><path fill="#EBECED" d="M361.35 253.2q2.75-2.2 3.5-5.25l-98.6-44.5-4.2.85 3.05 5.5 96.25 43.4z" id="aK"/><path fill="#EBECED" d="M362.15 235.65l-6-9.6-62.55-28.2-10.45 2.15 79 35.65z" id="aL"/><path fill="#EBECED" d="M345.55 210.2l-6.25-9.65-18.35-8.25q-2 .25-3.75.65l-6.75 1.45 35.1 15.8z" id="aM"/><path fill="#EBECED" d="M350.85 218.05l-3.75-5.65-34.35 55.85 8.85-2.5 29.25-47.7z" id="aN"/><path fill="#EBECED" d="M340.9 203.1q-3.25-5.15-3.75-5.85L295.7 264.8l3.35 6.25 41.85-67.95z" id="aO"/><path fill="#EBECED" d="M286.55 248.45l3.5 6.2 38.6-62.85q-3-.2-7.65.5l-34.45 56.15z" id="aP"/><path fill="#EBECED" d="M307.5 194.95l-8.35 1.75-21.7 35.35 3.45 6.25 26.6-43.35z" id="aQ"/><path fill="#EBECED" d="M268.3 215.6l3.45 6.3 13.85-22.4-8.45 1.7-8.85 14.4z" id="aR"/><path fill="#EBECED" d="M360.2 232.1l-2.7-3.95-20.35 33.1 8.9-2.5 15.2-24.75-1.05-1.9z" id="aS"/><path fill="#E7E8E9" d="M268.95 206.35q-1.5-2.55-4.6-2.7-3.05-.1-4.8 2.25l-30.4 42.1q-1.35 1.95-1 4.3.4 2.3 2.3 3.65 1.85 1.35 4.2.95 2.3-.35 3.65-2.25l25.35-35.05 29.45 50.15q1.15 2 3.4 2.6 2.2.6 4.2-.55 2.05-1.2 2.65-3.45.55-2.25-.6-4.35l-33.8-57.65z" id="aT"/><path fill="url(#e)" d="M261.7 266.9l-10 4.75.25 37.45 19.25 7.95.55-38.15-10.05-12z" id="aU"/><path fill="url(#f)" d="M255.2 282.8l.45-2.65q.2-3.45 2.4-5.2 2.05-1.6 4.6-1 1.55.3 2.75 1.4 1.25 1.1 1.85 2.75-.35-2.35-1.9-4.05-1.45-1.65-3.5-2.05-2.6-.55-4.55 1-2.1 1.75-2.1 5.2v4.6z" id="aW"/><path fill="#1FAA53" d="M275.95 206.9q-1.1-.65-2.1-.15-.95.45-1.35 1.75-.35 1.3.15 2.7.5 1.4 1.55 1.95 1.1.65 2.15.2 1-.45 1.35-1.75.4-1.3-.15-2.7-.5-1.35-1.6-2z" id="aX"/><path fill="url(#g)" d="M276.15 206.75q-1-.55-1.85-.1-.9.45-1.25 1.65-.3 1.2.15 2.4.45 1.25 1.4 1.8.9.55 1.8.15.85-.45 1.2-1.65.35-1.15-.1-2.4-.4-1.25-1.35-1.85z" id="aY"/><path fill="url(#h)" d="M275.5 207.2q-.35 0-.45.35-.1.4.1.95.65 1.2 1.45 1.2.4 0 .5-.35.1-.3-.15-.85-.2-.55-.65-.95-.45-.35-.8-.35z" id="aZ"/><path fill="#1FAA53" d="M291.3 213.95q-1.1-.65-2.15-.15-1 .45-1.4 1.75-.35 1.3.2 2.65.5 1.35 1.55 2.05 1.05.65 2.1.15 1.05-.45 1.4-1.75.35-1.3-.15-2.65-.5-1.35-1.55-2.05z" id="ba"/><path fill="url(#i)" d="M291.45 213.8q-1-.55-1.9-.1-.9.45-1.2 1.65-.35 1.15.1 2.4.45 1.25 1.4 1.75.9.6 1.85.2.9-.45 1.25-1.65.3-1.15-.15-2.4-.45-1.25-1.35-1.85z" id="bb"/><path fill="url(#j)" d="M290.8 214.25q-.4 0-.5.4-.1.35.1.85.7 1.25 1.55 1.25.3 0 .4-.35.05-.35-.15-.85t-.6-.9q-.4-.4-.8-.4z" id="bc"/><path fill="#1FAA53" d="M306.5 221q-1.1-.65-2.1-.15-1.05.45-1.4 1.75-.35 1.3.15 2.65.5 1.35 1.6 2.05 1.1.65 2.1.2 1-.5 1.35-1.8.35-1.3-.15-2.65-.5-1.35-1.55-2.05z" id="bd"/><path fill="url(#k)" d="M306.6 220.9q-.9-.6-1.85-.15-.9.45-1.25 1.65-.3 1.15.15 2.4.45 1.25 1.4 1.75.95.6 1.85.15.9-.45 1.25-1.65.3-1.15-.15-2.35-.45-1.3-1.4-1.8z" id="be"/><path fill="url(#l)" d="M305.95 221.3q-.4 0-.45.4-.1.35.2.85.2.55.6.9.45.4.8.4.4 0 .5-.4.05-.35-.2-.85-.55-1.3-1.45-1.3z" id="bf"/><path fill="#1FAA53" d="M321.75 228.1q-1.1-.65-2.1-.2-1.05.45-1.35 1.75-.35 1.3.1 2.7.5 1.35 1.6 2 1.1.65 2.1.2 1-.5 1.35-1.8.4-1.3-.1-2.65-.5-1.35-1.6-2z" id="bg"/><path fill="url(#m)" d="M321.9 227.95q-.9-.6-1.85-.15-.85.4-1.25 1.55-.35 1.2.1 2.45.45 1.3 1.4 1.8 1 .55 1.85.15.9-.45 1.25-1.65t-.1-2.4q-.45-1.25-1.4-1.75z" id="bh"/><path fill="url(#n)" d="M321.25 228.35q-.8 0-.3 1.25.25.55.65.9.45.4.8.4.4 0 .45-.4.1-.4-.15-.9t-.65-.85q-.45-.4-.8-.4z" id="bi"/><path fill="#1FAA53" d="M337 235.05q-1.1-.6-2.1-.15-1 .45-1.35 1.75-.35 1.25.15 2.7.5 1.4 1.55 2.05 1.1.6 2.15.15 1-.45 1.35-1.75.4-1.3-.15-2.7-.5-1.4-1.6-2.05z" id="bj"/><path fill="url(#o)" d="M337.15 234.9q-.95-.55-1.8-.1-.9.45-1.25 1.65-.3 1.15.15 2.4.4 1.25 1.3 1.85 1 .55 1.9.1.9-.45 1.2-1.65.35-1.15-.1-2.4-.45-1.25-1.4-1.85z" id="bk"/><path fill="url(#p)" d="M336.5 235.4q-.35-.05-.45.35-.05.35.15.9.25.5.65.85.45.35.8.35.4 0 .5-.35.1-.3-.15-.85-.6-1.25-1.5-1.25z" id="bl"/><path fill="#1FAA53" d="M352.25 242.1q-1.05-.65-2.05-.15-1 .45-1.4 1.75-.3 1.35.2 2.65.5 1.4 1.55 2.05 1.1.65 2.1.15 1-.45 1.35-1.75.35-1.3-.15-2.65-.5-1.35-1.6-2.05z" id="bm"/><path fill="url(#q)" d="M352.5 241.95q-1-.55-1.9-.1-.9.45-1.2 1.65-.35 1.15.1 2.4.45 1.25 1.4 1.85.9.55 1.8.1.9-.45 1.2-1.65.35-1.15-.1-2.4-.4-1.25-1.3-1.85z" id="bn"/><path fill="url(#r)" d="M351.85 242.4q-.35 0-.45.4-.1.35.1.9.65 1.2 1.4 1.2.35 0 .5-.35.1-.35-.15-.85-.65-1.3-1.4-1.3z" id="bo"/><path fill="#1FAA53" d="M298.7 200.15q-1-.65-2.05-.15-1.05.45-1.4 1.75-.35 1.25.2 2.65.5 1.35 1.5 2 1.05.65 2.05.2 1.05-.5 1.45-1.8.3-1.25-.2-2.65-.55-1.35-1.55-2z" id="bp"/><path fill="url(#s)" d="M298.85 200q-.95-.6-1.8-.15-.9.45-1.25 1.6-.3 1.2.15 2.45.45 1.25 1.4 1.8.9.55 1.75.1.9-.45 1.25-1.65.35-1.15-.15-2.4-.45-1.2-1.35-1.75z" id="bq"/><path fill="url(#t)" d="M298.2 200.45q-.35 0-.45.35-.05.35.15.85.25.55.65.9.45.4.8.4.35 0 .4-.4.1-.35-.1-.9-.55-1.2-1.45-1.2z" id="br"/><path fill="#1FAA53" d="M313.95 207.15q-1.1-.6-2.1-.15-1 .45-1.35 1.7-.35 1.3.15 2.7.5 1.4 1.6 2.05 1.1.6 2.1.15 1-.45 1.35-1.7.3-1.35-.2-2.7-.5-1.4-1.55-2.05z" id="bs"/><path fill="url(#u)" d="M314.1 207q-.9-.55-1.85-.15-.9.45-1.25 1.65-.3 1.2.15 2.45.45 1.2 1.35 1.8 1 .55 1.9.1.9-.45 1.2-1.6.35-1.2-.1-2.45-.45-1.25-1.4-1.8z" id="bt"/><path fill="url(#v)" d="M313.45 207.5q-.35-.05-.45.3-.1.4.15.9t.65.85q.45.4.8.4.4.05.45-.3.1-.4-.15-.95-.25-.5-.65-.85-.45-.35-.8-.35z" id="bu"/><path fill="#1FAA53" d="M329.25 214.2q-1.1-.65-2.1-.2-1.05.45-1.4 1.75-.35 1.3.15 2.7.5 1.35 1.6 2 1.1.65 2.1.2 1-.5 1.35-1.8.35-1.25-.15-2.65-.5-1.35-1.55-2z" id="bv"/><path fill="url(#w)" d="M329.35 214.05q-.9-.55-1.8-.15-.85.45-1.2 1.65t.05 2.45q.45 1.2 1.4 1.8 1 .55 1.85.1.9-.45 1.25-1.6.3-1.2-.15-2.4-.45-1.25-1.4-1.85z" id="bw"/><path fill="url(#x)" d="M328.7 214.45q-.3 0-.4.4-.05.4.15.9t.6.85q.45.4.85.4.85 0 .25-1.25-.2-.55-.6-.9-.45-.4-.85-.4z" id="bx"/><path fill="#1FAA53" d="M344.5 221.25q-1.05-.65-2.1-.2-.95.45-1.35 1.75-.35 1.3.1 2.7.5 1.35 1.6 2 1.1.65 2.1.2 1.05-.5 1.35-1.8.4-1.3-.1-2.65-.5-1.35-1.6-2z" id="by"/><path fill="url(#y)" d="M344.65 221.1q-.95-.55-1.8-.15-.9.45-1.25 1.65-.3 1.2.15 2.4.4 1.25 1.3 1.8.95.55 1.85.1.9-.4 1.25-1.55.35-1.2-.1-2.45-.45-1.3-1.4-1.8z" id="bz"/><path fill="url(#z)" d="M344 221.5q-.35 0-.45.4-.05.35.15.85.25.55.65.9.45.4.8.4.35 0 .5-.4.1-.35-.15-.85-.65-1.3-1.5-1.3z" id="bA"/><path fill="#1FAA53" d="M357.9 228.95q-.95-.55-1.9-.15-.9.45-1.2 1.6-.35 1.15.1 2.4.5 1.25 1.45 1.75.95.6 1.9.2.9-.4 1.2-1.55.35-1.2-.1-2.4-.45-1.25-1.45-1.85z" id="bB"/><path fill="url(#A)" d="M358.05 228.85q-.8-.5-1.65-.1-.8.4-1.1 1.4-.25 1.1.1 2.2.4 1.1 1.25 1.65.85.5 1.65.1.85-.4 1.1-1.5.25-1.05-.1-2.15-.4-1.1-1.25-1.6z" id="bC"/><path fill="url(#B)" d="M357.45 229.25q-.75 0-.3 1.15.55 1.05 1.3 1.05.35 0 .45-.3.1-.35-.15-.75-.15-.45-.55-.8-.4-.35-.75-.35z" id="bD"/><path fill="#1FAA53" d="M297.2 234.85q-1.1-.65-2.1-.15-1.05.45-1.35 1.75-.4 1.3.1 2.65.5 1.4 1.6 2 1.1.65 2.05.2 1-.5 1.35-1.8.3-1.3-.15-2.65-.5-1.35-1.5-2z" id="bE"/><path fill="url(#C)" d="M297.35 234.7q-.95-.55-1.85-.1-.95.45-1.25 1.6-.35 1.2.1 2.45.45 1.2 1.4 1.8 1 .55 1.85.15.85-.45 1.15-1.65.35-1.15-.1-2.4-.4-1.25-1.3-1.85z" id="bF"/><path fill="url(#D)" d="M296.7 235.15q-.4 0-.45.35-.1.4.15.95.25.5.65.85.45.35.8.35.3 0 .4-.35.05-.35-.2-.85-.15-.55-.55-.95-.4-.35-.8-.35z" id="bG"/><path fill="#1FAA53" d="M312.4 241.9q-1.1-.65-2.1-.15-1.05.45-1.4 1.75-.35 1.25.15 2.65.5 1.35 1.6 2 1.1.65 2.1.2.95-.45 1.35-1.75.35-1.3-.15-2.7-.5-1.35-1.55-2z" id="bH"/><path fill="url(#E)" d="M312.5 241.75q-.9-.5-1.8-.1-.85.45-1.25 1.6-.35 1.2.1 2.45.45 1.2 1.4 1.75.95.6 1.85.2.9-.45 1.25-1.65.3-1.2-.15-2.45-.45-1.25-1.4-1.8z" id="bI"/><path fill="url(#F)" d="M311.9 242.2q-.4 0-.5.35-.05.35.2.85.5 1.3 1.45 1.3.4 0 .45-.35.1-.35-.2-.85-.2-.55-.6-.95-.4-.35-.8-.35z" id="bJ"/><path fill="#1FAA53" d="M327.65 248.95q-1.1-.65-2.1-.15-.95.45-1.35 1.75-.35 1.25.15 2.65.5 1.35 1.55 2 1.1.65 2.1.2 1.05-.45 1.35-1.75.4-1.3-.1-2.7-.5-1.35-1.6-2z" id="bK"/><path fill="url(#G)" d="M327.8 248.8q-.9-.6-1.8-.15-.9.45-1.25 1.65-.3 1.15.15 2.4.4 1.3 1.3 1.8.95.6 1.85.15.9-.45 1.25-1.65.35-1.15-.1-2.4-.45-1.25-1.4-1.8z" id="bL"/><path fill="url(#H)" d="M327.15 249.25q-.35 0-.45.35-.05.35.15.85.2.55.65.95.4.35.8.35.35 0 .5-.35.1-.35-.15-.85-.6-1.3-1.5-1.3z" id="bM"/><path fill="#1FAA53" d="M324.25 198.35q.35-1.3-.15-2.7-.5-1.35-1.55-2-1.1-.65-2.1-.15-1 .45-1.4 1.75-.3 1.3.2 2.65.5 1.4 1.55 2 1.1.65 2.1.2 1.05-.45 1.35-1.75z" id="bN"/><path fill="url(#I)" d="M324.2 197.75q.3-1.15-.1-2.4-.45-1.25-1.35-1.85-1-.55-1.85-.1-.9.45-1.25 1.65-.35 1.15.1 2.4.45 1.25 1.4 1.85.95.55 1.85.1.85-.45 1.2-1.65z" id="bO"/><path fill="url(#J)" d="M322.1 193.95q-.35 0-.45.35-.1.4.1.95.65 1.2 1.45 1.2.4 0 .5-.35.1-.3-.15-.85-.2-.55-.65-.95-.45-.35-.8-.35z" id="bP"/><path fill="#1FAA53" d="M337.85 200.7q-1.05-.65-2.1-.15-1.05.45-1.4 1.75-.35 1.3.2 2.65.5 1.35 1.5 2.05 1.1.65 2.15.2 1.05-.5 1.4-1.8.35-1.3-.2-2.65-.5-1.35-1.55-2.05z" id="bQ"/><path fill="url(#K)" d="M338 200.55q-1-.55-1.85-.1-.9.45-1.25 1.65-.3 1.2.15 2.4.45 1.25 1.4 1.75.9.6 1.85.15.9-.45 1.2-1.6.35-1.15-.1-2.4-.45-1.3-1.4-1.85z" id="bR"/><path fill="url(#L)" d="M337.35 201q-.35 0-.45.4-.15.35.1.85.65 1.25 1.5 1.25.35 0 .45-.35.1-.35-.15-.85-.25-.55-.65-.9-.45-.4-.8-.4z" id="bS"/><path fill="#1FAA53" d="M304.1 256.5q-1-.65-2.05-.15-1.05.45-1.4 1.75-.35 1.3.15 2.65.5 1.4 1.55 2.05 1.1.65 2.15.15 1-.45 1.4-1.75.35-1.3-.2-2.65-.5-1.35-1.6-2.05z" id="bT"/><path fill="url(#M)" d="M304.3 256.35q-.95-.55-1.85-.1-.9.45-1.25 1.65-.3 1.15.15 2.4.45 1.25 1.4 1.75.9.6 1.8.15.9-.4 1.3-1.6.3-1.15-.15-2.4-.45-1.3-1.4-1.85z" id="bU"/><path fill="url(#N)" d="M303.65 256.8q-.35 0-.45.4-.15.35.1.85.65 1.25 1.5 1.25.35 0 .45-.35.1-.35-.15-.85-.25-.55-.65-.9-.45-.4-.8-.4z" id="bV"/><path fill="url(#O)" d="M262.55 237l-2.3 4.4-4.6-.1q-.9.15-1 1.2 0 .35.25.85l3.25 4.4-.85 5.1q0 .55.35 1 .3.5.8.6.6.1 1.85-.55l2.85-1.05 2.7 2.15q1.2 1.1 1.8 1.15.5.1.9-.2.35-.35.4-.95l-.65-5.3 2.9-2.6.55-.6q.25-.25.25-.7.1-1.05-.9-1.6l-.7-.2-3.9-1.45-2-5.2q-.3-.65-1-.8-.65-.1-.95.45z" id="bW"/><path fill="url(#P)" d="M262.05 244.05l-2.25-.05q-.5.1-.5.55l.15.45 1.6 2.1-.45 2.3v.15q0 .65.6.75.15.05.85-.2l1.35-.5 1.3 1q.6.5.9.6.25.05.45-.15t.2-.45l-.1-.15-.3-2.45 1.45-1.2.3-.3.05-.35q0-.55-.4-.7l-.3-.15-1.95-.65-.95-2.55q-.1-.3-.5-.4-.35 0-.4.25l-.25.3-.85 1.8z" id="bY"/><path fill="#FFF" d="M250.4 280.3q.05-3.55 1.15-6.4 1.15-2.95 3.25-4.7 3.4-2.9 7.5-2.1 4.6.9 7.9 6.2-2.5-5.25-6.4-7-3.3-1.5-6.8-.3-3.55 1.35-5.4 5.1-1.9 3.95-1.2 9.2z" id="bZ"/><path fill="url(#Q)" d="M232.6 248.65q-2.1 3.25-.05 4.3 2.05 1.05 4.1-2.05l26.6-39.45-30.65 37.2z" id="ca"/><path fill="url(#R)" d="M298.3 269q2.1-.85.35-4.2l-26.15-40.55 21.95 42.35q1.75 3.3 3.85 2.4z" id="cb"/><path fill="#7F3127" d="M325.65 294.6v-14.25q0-1.8-1.25-2.7-1.2-.85-2.95-.35l-13.8 4.4q-1.75.55-3 2.25-1.2 1.65-1.2 3.45v14.25q0 1.8 1.2 2.7 1.25.9 3 .35l13.8-4.4q1.75-.55 2.95-2.25 1.25-1.65 1.25-3.45z" id="cc"/><path fill="url(#S)" d="M326.25 296.5q1.3-1.7 1.3-3.6v-15q0-1.85-1.3-2.75-1.35-.95-3.2-.35l-15 4.6q-1.85.55-3.2 2.3-1.35 1.75-1.35 3.6v15q0 1.85 1.35 2.75 1.35.95 3.2.35l15-4.6q1.85-.55 3.2-2.3z" id="ce"/><path fill="url(#T)" d="M309.55 283.6q-.6.15-1.05.75-.45.6-.45 1.25v2.95q0 .65.45.95.4.3 1.05.15l2.95-.95q.7-.25 1.15-.8.45-.55.45-1.2v-2.95q0-.7-.45-1-.5-.3-1.15-.1l-2.95.95z" id="cf"/><path fill="url(#U)" d="M318.55 280.8q-.65.2-1.05.8-.45.55-.45 1.2v2.95q0 .65.45.95.4.35 1.05.15l2.95-.9q.65-.2 1.15-.8.45-.6.45-1.2v-3.05q0-.55-.45-.85-.5-.35-1.15-.15l-2.95.9z" id="cg"/><path fill="url(#V)" d="M308.5 293.05q-.45.6-.45 1.2v3q0 .6.45.9.4.35 1.05.15l2.95-.9q.65-.2 1.15-.75.45-.6.45-1.25v-2.95q0-.65-.45-.95-.5-.35-1.15-.15l-2.95.9q-.6.2-1.05.8z" id="ch"/><path fill="url(#W)" d="M323.1 289.65q0-.65-.45-.95-.45-.3-1.15-.15l-2.95.95q-.65.25-1.05.8-.45.55-.45 1.2v2.95q0 .65.45 1 .45.3 1.05.1l2.95-.95q.65-.15 1.15-.75.45-.6.45-1.25v-2.95z" id="ci"/><path fill="#FFF" d="M309.35 281.1q.05-.05 3.3-1.9-3.05.75-4.6 1.7-1.55.95-2.2 2.55-.65 1.45-.7 4.05 0 2.05.4 6.1.25-5.45.3-5.85.35-2.95 1.5-4.75.6-.95 2-1.9z" id="cj"/><path fill="#7F3127" d="M353.05 269.5q-1.2-.85-2.85-.3l-13.15 4.15q-1.65.55-2.8 2.1-1.2 1.6-1.2 3.3v13.6q0 1.75 1.2 2.6 1.15.85 2.8.3l13.15-4.15q1.65-.55 2.85-2.1 1.15-1.6 1.15-3.3v-13.65q0-1.75-1.15-2.55z" id="ck"/><path fill="url(#X)" d="M354.75 267.1q-1.3-.9-3.05-.35l-14.25 4.4q-1.8.5-3.05 2.2-1.3 1.7-1.3 3.45V291q0 1.8 1.3 2.7 1.25.9 3.05.35l14.25-4.4q1.75-.55 3.05-2.2Q356 285.8 356 284v-14.25q0-1.75-1.25-2.65z" id="cm"/><path fill="url(#Y)" d="M342.7 274.35q-.4-.25-1-.05l-2.8.85q-.6.2-1.05.75-.5.55-.5 1.15v2.8q0 .65.5.95.45.3 1.05.1l2.8-.85q.6-.2 1-.8.4-.55.4-1.15v-2.8q0-.65-.4-.95z" id="cn"/><path fill="url(#Z)" d="M351.3 271.75q-.4-.3-1.05-.1l-2.8.85q-.6.15-1 .75-.45.55-.45 1.2v2.8q0 .6.45.9.4.3 1 .1l2.8-.85q.65-.25 1.05-.75.45-.55.45-1.2v-2.8q0-.6-.45-.9z" id="co"/><path fill="url(#aa)" d="M338.9 283.45q-.6.15-1.05.7-.5.55-.5 1.15v2.85q0 .6.5.9.45.3 1.05.15l2.8-.95q.6-.15 1-.7.4-.55.4-1.15v-2.8q0-.65-.4-.95-.4-.3-1-.15l-2.8.95z" id="cp"/><path fill="url(#ab)" d="M346.45 281.5q-.45.6-.45 1.25v2.8q0 .55.45.85.4.3 1 .15l2.8-.85q.65-.2 1.05-.8.45-.6.45-1.15v-2.85q0-.55-.45-.85-.4-.35-1.05-.15l-2.8.9q-.6.15-1 .7z" id="cq"/><path fill="#FFF" d="M338.7 272.8q.9-.55 3.15-1.8-2.9.7-4.4 1.6-1.55.9-2.2 2.4-.6 1.35-.6 3.85 0 2 .4 5.8.2-4.8.25-5.55.3-2.75 1.4-4.5.6-.9 2-1.8z" id="cr"/><path fill="#91412A" d="M288.05 313.55q-.85-1.75-2.45-2.1-1.65-.4-3.05.85-1.35 1.2-1.7 3.3-.3 2.1.55 3.85.95 1.75 2.55 2.15 1.6.4 2.95-.85 1.4-1.2 1.7-3.3.35-2.15-.55-3.9z" id="cs"/><path fill="url(#ac)" d="M286.9 313.3q-.75-1.5-2.1-1.85-1.4-.35-2.6.65-1.15 1.05-1.4 2.8-.25 1.8.55 3.3.75 1.55 2.1 1.9 1.35.35 2.5-.65 1.2-1 1.45-2.8.25-1.8-.5-3.35z" id="ct"/><path fill="url(#ad)" d="M284 314.1q.25-.75 0-1.2-.25-.45-.8-.35-1.1.25-1.65 2.05-.15.8.1 1.25.2.45.7.35.55-.1 1.05-.7.45-.6.6-1.4z" id="cu"/><path fill="#91412A" d="M288.05 301.35q-.85-1.75-2.45-2.15-1.65-.35-3.05.9-1.35 1.15-1.7 3.25-.3 2.1.55 3.85.95 1.8 2.55 2.15 1.6.4 2.95-.85 1.4-1.2 1.7-3.3.35-2.1-.55-3.85z" id="cv"/><path fill="url(#ae)" d="M286.9 301.1q-.75-1.55-2.1-1.9-1.4-.35-2.6.65-1.15 1.05-1.4 2.85t.55 3.3q.75 1.5 2.1 1.85 1.4.35 2.5-.65 1.2-1 1.45-2.8.25-1.8-.5-3.3z" id="cw"/><path fill="url(#af)" d="M284 301.9q.25-.8 0-1.25-.25-.45-.8-.35-.5.1-.95.7-.45.6-.7 1.4-.15.75.1 1.2.2.45.7.35.55-.05 1.05-.65.45-.6.6-1.4z" id="cx"/><path fill="#91412A" d="M280.85 291.15q-.3 2.1.55 3.9.95 1.75 2.55 2.1 1.6.35 2.95-.9 1.4-1.15 1.7-3.25.35-2.1-.55-3.85-.85-1.8-2.45-2.15-1.6-.4-3.05.85-1.35 1.25-1.7 3.3z" id="cy"/><path fill="url(#ag)" d="M281.35 293.75q.75 1.5 2.1 1.9 1.4.35 2.5-.7 1.2-1 1.45-2.8.25-1.8-.5-3.3-.75-1.5-2.1-1.9-1.4-.35-2.6.65-1.15 1.05-1.4 2.85t.55 3.3z" id="cz"/><path fill="url(#ah)" d="M282.35 291.8q.55-.1 1.05-.75.45-.6.6-1.4.25-.75 0-1.25-.25-.45-.8-.35-.5.1-.95.75-.45.6-.7 1.35-.15.8.1 1.3.2.45.7.35z" id="cA"/><path fill="#91412A" d="M280.8 278.9q-.3 2.1.55 3.9.9 1.75 2.5 2.1 1.6.4 2.95-.8 1.4-1.25 1.75-3.35.35-2.1-.6-3.85-.85-1.75-2.45-2.1-1.6-.4-3 .8-1.35 1.25-1.7 3.3z" id="cB"/><path fill="url(#ai)" d="M281.25 281.55q.8 1.55 2.15 1.9 1.35.3 2.5-.7 1.15-1.05 1.45-2.85.25-1.8-.55-3.3-.75-1.5-2.1-1.85-1.4-.35-2.55.65-1.1 1-1.4 2.85-.25 1.8.5 3.3z" id="cC"/><path fill="url(#aj)" d="M282.3 279.55q.55-.1 1-.7.45-.6.65-1.4.2-.8 0-1.25-.25-.5-.8-.4-.5.1-.95.75-.45.6-.65 1.4-.2.75 0 1.25.25.45.75.35z" id="cD"/><path fill="#91412A" d="M279.4 270.7q.95 1.8 2.55 2.15 1.6.4 2.9-.85 1.4-1.2 1.75-3.3.35-2.1-.5-3.85-.95-1.75-2.5-2.15-1.6-.4-2.95.85-1.4 1.2-1.75 3.3-.35 2.1.5 3.85z" id="cE"/><path fill="url(#ak)" d="M282.75 262.7q-1.35-.35-2.5.65-1.15 1.05-1.4 2.85-.3 1.75.5 3.3.75 1.5 2.1 1.85 1.4.35 2.5-.65 1.15-1 1.45-2.8.25-1.8-.55-3.3-.75-1.55-2.1-1.9z" id="cF"/><path fill="url(#al)" d="M282 264.15q-.25-.45-.75-.35-.5.1-1 .7-.45.6-.65 1.4-.2.75.05 1.2.2.5.7.45.55-.1 1-.75.5-.65.65-1.45.2-.75 0-1.2z" id="cG"/><path fill="#91412A" d="M278.55 251.7q-1.65-.4-3.05.8-1.35 1.25-1.7 3.3-.3 2.1.55 3.9.95 1.7 2.55 2.1 1.6.35 2.95-.8 1.4-1.25 1.7-3.35.35-2.1-.55-3.85-.85-1.75-2.45-2.1z" id="cH"/><path fill="url(#am)" d="M277.75 251.65q-1.4-.35-2.6.6-1.1 1.05-1.35 2.85-.25 1.75.5 3.35.75 1.55 2.1 1.85 1.35.35 2.5-.7 1.2-1 1.45-2.8.25-1.8-.5-3.3-.75-1.5-2.1-1.85z" id="cI"/><path fill="url(#an)" d="M276.95 253.1q-.25-.5-.8-.4-.5.1-.95.75-.45.6-.7 1.4-.15.75.1 1.25.2.45.7.35.55-.1 1-.75.5-.6.65-1.35.25-.8 0-1.25z" id="cJ"/><path fill="#91412A" d="M252.4 245.35q-1.4-.4-2.6.8-1.25 1.2-1.55 3.25-.3 2 .5 3.65.8 1.7 2.2 2.05 1.4.35 2.6-.8 1.25-1.2 1.55-3.25.3-2-.45-3.7-.85-1.65-2.25-2z" id="cK"/><path fill="url(#ao)" d="M251.7 245.35q-1.25-.35-2.25.6-.95 1-1.2 2.75-.25 1.7.4 3.15.7 1.45 1.9 1.8 1.2.35 2.2-.6 1.05-1 1.3-2.7.2-1.75-.5-3.2-.65-1.45-1.85-1.8z" id="cL"/><path fill="url(#ap)" d="M251 246.7q-.2-.45-.6-.35-.45.1-.9.75-.45.55-.65 1.3-.15.75.1 1.2.2.45.65.35.4-.1.85-.7.4-.6.6-1.3.15-.75-.05-1.25z" id="cM"/><path fill="#91412A" d="M246.3 252.85q-1.45-.4-2.6.8-1.2 1.15-1.5 3.15-.3 2.05.5 3.7.75 1.65 2.15 2 1.4.35 2.6-.8 1.15-1.2 1.45-3.2.3-1.95-.45-3.65-.75-1.65-2.15-2z" id="cN"/><path fill="url(#aq)" d="M245.55 252.8q-1.2-.35-2.2.6-.95.95-1.2 2.7-.25 1.75.4 3.15.7 1.45 1.9 1.8 1.15.35 2.2-.65 1-.95 1.2-2.7.25-1.7-.4-3.15-.7-1.4-1.9-1.75z" id="cO"/><path fill="url(#ar)" d="M244.9 254.2q-.2-.45-.65-.35-.5.1-.9.7-.4.55-.5 1.3-.2.7 0 1.15.2.5.65.4.4-.1.85-.7.4-.6.55-1.35.2-.7 0-1.15z" id="cP"/><path fill="#91412A" d="M245.4 264.35q-.75-1.65-2.15-2-1.4-.35-2.6.8-1.15 1.15-1.45 3.1-.3 2 .45 3.65.75 1.6 2.15 2 1.45.35 2.6-.75 1.2-1.2 1.5-3.2.3-2-.5-3.6z" id="cQ"/><path fill="url(#as)" d="M244.8 267.2q.25-1.65-.4-3.1-.65-1.4-1.85-1.75-1.15-.3-2.15.65-1 .9-1.2 2.6-.25 1.7.4 3.15t1.8 1.75q1.2.35 2.2-.65.95-.95 1.2-2.65z" id="cR"/><path fill="url(#at)" d="M241.85 263.7q-.2-.45-.6-.35-.45.1-.85.7-.45.55-.6 1.3-.15.7.05 1.15.25.45.65.4.45-.1.85-.7.45-.65.55-1.35.15-.7-.05-1.15z" id="cS"/><path fill="#91412A" d="M245.3 278.2q.3-2-.45-3.6t-2.1-1.95q-1.4-.35-2.6.8-1.15 1.15-1.45 3.05-.3 1.95.45 3.55.75 1.6 2.15 2 1.4.35 2.55-.75 1.15-1.15 1.45-3.1z" id="cT"/><path fill="url(#au)" d="M244.25 277.45q.25-1.65-.4-3.1-.65-1.4-1.85-1.7-1.15-.35-2.15.55-.95 1-1.2 2.65-.2 1.7.45 3.05.65 1.4 1.8 1.75 1.15.35 2.15-.6t1.2-2.6z" id="cU"/><path fill="url(#av)" d="M241.35 273.95q-.2-.4-.6-.3-.45.1-.85.65-.45.6-.6 1.3-.1.7.1 1.15.2.4.6.3.95-.15 1.4-1.95.15-.7-.05-1.15z" id="cV"/><path fill="#91412A" d="M245.25 288.65q.3-1.9-.4-3.5-.75-1.6-2.1-1.95-1.35-.35-2.5.75-1.2 1.15-1.5 3.05-.3 1.95.5 3.55.75 1.65 2.1 2 1.35.35 2.5-.8t1.4-3.1z" id="cW"/><path fill="url(#aw)" d="M244.25 287.95q.25-1.65-.4-3.05t-1.85-1.75q-1.15-.3-2.15.65-.9.95-1.1 2.6-.25 1.65.4 3 .65 1.45 1.8 1.75 1.15.35 2.1-.65.95-.9 1.2-2.55z" id="cX"/><path fill="url(#ax)" d="M241.35 284.5q-.2-.45-.6-.35-.95.25-1.4 1.95-.15.7.05 1.15.2.45.6.35.45-.05.85-.65.45-.55.55-1.25.15-.7-.05-1.2z" id="cY"/><path fill="#91412A" d="M242.7 294.1q-1.3-.35-2.45.7-1.15 1.15-1.45 3.05-.25 1.85.45 3.45.75 1.6 2.1 1.95 1.3.35 2.5-.75 1.15-1.15 1.4-3 .3-1.9-.5-3.55-.75-1.55-2.05-1.85z" id="cZ"/><path fill="url(#ay)" d="M242 294.05q-1.15-.3-2.05.65-.95.9-1.2 2.5t.4 3q.65 1.35 1.8 1.7 1.15.3 2.1-.6.95-.9 1.2-2.55.2-1.65-.5-3-.6-1.4-1.75-1.7z" id="da"/><path fill="url(#az)" d="M241.35 295.35q-.2-.4-.6-.3-.35.1-.8.65-.4.55-.6 1.2-.15 1.65.65 1.5.45-.05.85-.65.45-.55.55-1.25.15-.7-.05-1.15z" id="db"/><path id="aF" stroke="#91412A" stroke-width="4" stroke-linejoin="round" stroke-linecap="round" fill="none" d="M261.25 242.85l2.25-4.4q.35-.65 1-.5.6.2.95.85l2 5.2 3.9 1.45.7.2q.95.5.95 1.5 0 .5-.3.8-.45.35-.55.55l-2.9 2.55.65 5.4q0 .6-.4.95-.35.3-.9.2-.45-.1-1.75-1.15l-2.8-2.15-2.8 1.05q-1.25.65-1.8.5-.5-.05-.85-.55-.35-.45-.35-1l.9-5.15-3.3-4.35q-.2-.35-.2-.9 0-.5.3-.8.25-.35.65-.35l4.65.1z"/><path id="aV" stroke="#E7E8E9" stroke-width="6.2" stroke-linejoin="round" stroke-linecap="round" fill="none" d="M272.9 286.25V317l-22.75-9.65V282.3q0-8.7 3.95-13.05 3.65-3.95 8.45-2.5 4.6 1.3 7.5 6.6 2.95 5.45 2.85 12.9z"/><path id="bX" stroke="#E7E8E9" stroke-width="2.8" stroke-linejoin="round" stroke-linecap="round" fill="none" d="M262.55 237q.3-.55.95-.45.7.15 1 .8l2 5.2 3.9 1.45.7.2q1 .55.9 1.6 0 .45-.25.7l-.55.6-2.9 2.6.65 5.3q-.05.6-.4.95-.4.3-.9.2-.6-.05-1.8-1.15l-2.7-2.15-2.85 1.05q-1.25.65-1.85.55-.5-.1-.8-.6-.35-.45-.35-1l.85-5.1-3.25-4.4q-.25-.5-.25-.85.1-1.05 1-1.2l4.6.1 2.3-4.4z"/><path id="cd" stroke="#5D2822" stroke-width="4" stroke-linejoin="round" stroke-linecap="round" fill="none" d="M325.65 294.6q0 1.8-1.25 3.45-1.2 1.7-2.95 2.25l-13.8 4.4q-1.75.55-3-.35-1.2-.9-1.2-2.7V287.4q0-1.8 1.2-3.45 1.25-1.7 3-2.25l13.8-4.4q1.75-.5 2.95.35 1.25.9 1.25 2.7v14.25z"/><path id="cl" stroke="#5D2822" stroke-width="4" stroke-linejoin="round" stroke-linecap="round" fill="none" d="M353.05 269.5q1.15.8 1.15 2.55v13.65q0 1.7-1.15 3.3-1.2 1.55-2.85 2.1l-13.15 4.15q-1.65.55-2.8-.3-1.2-.85-1.2-2.6v-13.6q0-1.7 1.2-3.3 1.15-1.55 2.8-2.1l13.15-4.15q1.65-.55 2.85.3z"/></defs><use xlink:href="#aA"/><use xlink:href="#aB" transform="matrix(1.8379 0 0 1.83784 -403.073 -304.007)"/><use xlink:href="#aC" transform="matrix(1.8379 0 0 1.83784 -403.073 -304.007)"/><use xlink:href="#aD" transform="matrix(1.8379 0 0 1.83784 -403.073 -304.007)"/><g transform="matrix(1.8379 0 0 1.83784 -403.073 -304.007)"><use xlink:href="#aE"/><use xlink:href="#aF"/></g><use xlink:href="#aG" transform="matrix(1.8379 0 0 1.83784 -403.073 -304.007)"/><use xlink:href="#aH" transform="matrix(1.8379 0 0 1.83784 -403.073 -304.007)"/><use xlink:href="#aI" transform="matrix(1.8379 0 0 1.83784 -403.073 -304.007)"/><use xlink:href="#aJ" transform="matrix(1.8379 0 0 1.83784 -403.073 -304.007)"/><use xlink:href="#aK" transform="matrix(1.8379 0 0 1.83784 -403.073 -304.007)"/><use xlink:href="#aL" transform="matrix(1.8379 0 0 1.83784 -403.073 -304.007)"/><use xlink:href="#aM" transform="matrix(1.8379 0 0 1.83784 -403.073 -304.007)"/><use xlink:href="#aN" transform="matrix(1.8379 0 0 1.83784 -403.073 -304.007)"/><use xlink:href="#aO" transform="matrix(1.8379 0 0 1.83784 -403.073 -304.007)"/><use xlink:href="#aP" transform="matrix(1.8379 0 0 1.83784 -403.073 -304.007)"/><use xlink:href="#aQ" transform="matrix(1.8379 0 0 1.83784 -403.073 -304.007)"/><use xlink:href="#aR" transform="matrix(1.8379 0 0 1.83784 -403.073 -304.007)"/><use xlink:href="#aS" transform="matrix(1.8379 0 0 1.83784 -403.073 -304.007)"/><use xlink:href="#aT" transform="matrix(1.8379 0 0 1.83784 -403.073 -304.007)"/><use xlink:href="#aU" transform="matrix(1.8379 0 0 1.83784 -403.073 -304.007)"/><use xlink:href="#aV" transform="matrix(1.8379 0 0 1.83784 -403.073 -304.007)"/><use xlink:href="#aW" transform="matrix(1.8379 0 0 1.83784 -403.073 -304.007)"/><use xlink:href="#aX" transform="matrix(1.8379 0 0 1.83784 -403.073 -304.007)"/><use xlink:href="#aY" transform="matrix(1.8379 0 0 1.83784 -403.073 -304.007)"/><use xlink:href="#aZ" transform="matrix(1.8379 0 0 1.83784 -403.073 -304.007)"/><use xlink:href="#ba" transform="matrix(1.8379 0 0 1.83784 -403.073 -304.007)"/><use xlink:href="#bb" transform="matrix(1.8379 0 0 1.83784 -403.073 -304.007)"/><use xlink:href="#bc" transform="matrix(1.8379 0 0 1.83784 -403.073 -304.007)"/><use xlink:href="#bd" transform="matrix(1.8379 0 0 1.83784 -403.073 -304.007)"/><use xlink:href="#be" transform="matrix(1.8379 0 0 1.83784 -403.073 -304.007)"/><use xlink:href="#bf" transform="matrix(1.8379 0 0 1.83784 -403.073 -304.007)"/><use xlink:href="#bg" transform="matrix(1.8379 0 0 1.83784 -403.073 -304.007)"/><use xlink:href="#bh" transform="matrix(1.8379 0 0 1.83784 -403.073 -304.007)"/><use xlink:href="#bi" transform="matrix(1.8379 0 0 1.83784 -403.073 -304.007)"/><use xlink:href="#bj" transform="matrix(1.8379 0 0 1.83784 -403.073 -304.007)"/><use xlink:href="#bk" transform="matrix(1.8379 0 0 1.83784 -403.073 -304.007)"/><use xlink:href="#bl" transform="matrix(1.8379 0 0 1.83784 -403.073 -304.007)"/><use xlink:href="#bm" transform="matrix(1.8379 0 0 1.83784 -403.073 -304.007)"/><use xlink:href="#bn" transform="matrix(1.8379 0 0 1.83784 -403.073 -304.007)"/><use xlink:href="#bo" transform="matrix(1.8379 0 0 1.83784 -403.073 -304.007)"/><use xlink:href="#bp" transform="matrix(1.8379 0 0 1.83784 -403.073 -304.007)"/><use xlink:href="#bq" transform="matrix(1.8379 0 0 1.83784 -403.073 -304.007)"/><use xlink:href="#br" transform="matrix(1.8379 0 0 1.83784 -403.073 -304.007)"/><use xlink:href="#bs" transform="matrix(1.8379 0 0 1.83784 -403.073 -304.007)"/><use xlink:href="#bt" transform="matrix(1.8379 0 0 1.83784 -403.073 -304.007)"/><use xlink:href="#bu" transform="matrix(1.8379 0 0 1.83784 -403.073 -304.007)"/><use xlink:href="#bv" transform="matrix(1.8379 0 0 1.83784 -403.073 -304.007)"/><use xlink:href="#bw" transform="matrix(1.8379 0 0 1.83784 -403.073 -304.007)"/><use xlink:href="#bx" transform="matrix(1.8379 0 0 1.83784 -403.073 -304.007)"/><use xlink:href="#by" transform="matrix(1.8379 0 0 1.83784 -403.073 -304.007)"/><use xlink:href="#bz" transform="matrix(1.8379 0 0 1.83784 -403.073 -304.007)"/><use xlink:href="#bA" transform="matrix(1.8379 0 0 1.83784 -403.073 -304.007)"/><use xlink:href="#bB" transform="matrix(1.8379 0 0 1.83784 -403.073 -304.007)"/><use xlink:href="#bC" transform="matrix(1.8379 0 0 1.83784 -403.073 -304.007)"/><use xlink:href="#bD" transform="matrix(1.8379 0 0 1.83784 -403.073 -304.007)"/><use xlink:href="#bE" transform="matrix(1.8379 0 0 1.83784 -403.073 -304.007)"/><use xlink:href="#bF" transform="matrix(1.8379 0 0 1.83784 -403.073 -304.007)"/><use xlink:href="#bG" transform="matrix(1.8379 0 0 1.83784 -403.073 -304.007)"/><use xlink:href="#bH" transform="matrix(1.8379 0 0 1.83784 -403.073 -304.007)"/><use xlink:href="#bI" transform="matrix(1.8379 0 0 1.83784 -403.073 -304.007)"/><use xlink:href="#bJ" transform="matrix(1.8379 0 0 1.83784 -403.073 -304.007)"/><use xlink:href="#bK" transform="matrix(1.8379 0 0 1.83784 -403.073 -304.007)"/><use xlink:href="#bL" transform="matrix(1.8379 0 0 1.83784 -403.073 -304.007)"/><use xlink:href="#bM" transform="matrix(1.8379 0 0 1.83784 -403.073 -304.007)"/><use xlink:href="#bN" transform="matrix(1.8379 0 0 1.83784 -403.073 -304.007)"/><use xlink:href="#bO" transform="matrix(1.8379 0 0 1.83784 -403.073 -304.007)"/><use xlink:href="#bP" transform="matrix(1.8379 0 0 1.83784 -403.073 -304.007)"/><use xlink:href="#bQ" transform="matrix(1.8379 0 0 1.83784 -403.073 -304.007)"/><use xlink:href="#bR" transform="matrix(1.8379 0 0 1.83784 -403.073 -304.007)"/><use xlink:href="#bS" transform="matrix(1.8379 0 0 1.83784 -403.073 -304.007)"/><use xlink:href="#bT" transform="matrix(1.8379 0 0 1.83784 -403.073 -304.007)"/><use xlink:href="#bU" transform="matrix(1.8379 0 0 1.83784 -403.073 -304.007)"/><use xlink:href="#bV" transform="matrix(1.8379 0 0 1.83784 -403.073 -304.007)"/><g transform="matrix(1.8379 0 0 1.83784 -403.073 -304.007)"><use xlink:href="#bW"/><use xlink:href="#bX"/></g><use xlink:href="#bY" transform="matrix(1.8379 0 0 1.83784 -403.073 -304.007)"/><use xlink:href="#bZ" transform="matrix(1.8379 0 0 1.83784 -403.073 -304.007)"/><use xlink:href="#ca" transform="matrix(1.8379 0 0 1.83784 -403.073 -304.007)"/><use xlink:href="#cb" transform="matrix(1.8379 0 0 1.83784 -403.073 -304.007)"/><g transform="matrix(1.8379 0 0 1.83784 -403.073 -304.007)"><use xlink:href="#cc"/><use xlink:href="#cd"/></g><use xlink:href="#ce" transform="matrix(1.8379 0 0 1.83784 -403.073 -304.007)"/><use xlink:href="#cf" transform="matrix(1.8379 0 0 1.83784 -403.073 -304.007)"/><use xlink:href="#cg" transform="matrix(1.8379 0 0 1.83784 -403.073 -304.007)"/><use xlink:href="#ch" transform="matrix(1.8379 0 0 1.83784 -403.073 -304.007)"/><use xlink:href="#ci" transform="matrix(1.8379 0 0 1.83784 -403.073 -304.007)"/><use xlink:href="#cj" transform="matrix(1.8379 0 0 1.83784 -403.073 -304.007)"/><g transform="matrix(1.8379 0 0 1.83784 -403.073 -304.007)"><use xlink:href="#ck"/><use xlink:href="#cl"/></g><use xlink:href="#cm" transform="matrix(1.8379 0 0 1.83784 -403.073 -304.007)"/><use xlink:href="#cn" transform="matrix(1.8379 0 0 1.83784 -403.073 -304.007)"/><use xlink:href="#co" transform="matrix(1.8379 0 0 1.83784 -403.073 -304.007)"/><use xlink:href="#cp" transform="matrix(1.8379 0 0 1.83784 -403.073 -304.007)"/><use xlink:href="#cq" transform="matrix(1.8379 0 0 1.83784 -403.073 -304.007)"/><use xlink:href="#cr" transform="matrix(1.8379 0 0 1.83784 -403.073 -304.007)"/><use xlink:href="#cs" transform="matrix(1.8379 0 0 1.83784 -403.073 -304.007)"/><use xlink:href="#ct" transform="matrix(1.8379 0 0 1.83784 -403.073 -304.007)"/><use xlink:href="#cu" transform="matrix(1.8379 0 0 1.83784 -403.073 -304.007)"/><use xlink:href="#cv" transform="matrix(1.8379 0 0 1.83784 -403.073 -304.007)"/><use xlink:href="#cw" transform="matrix(1.8379 0 0 1.83784 -403.073 -304.007)"/><use xlink:href="#cx" transform="matrix(1.8379 0 0 1.83784 -403.073 -304.007)"/><use xlink:href="#cy" transform="matrix(1.8379 0 0 1.83784 -403.073 -304.007)"/><use xlink:href="#cz" transform="matrix(1.8379 0 0 1.83784 -403.073 -304.007)"/><use xlink:href="#cA" transform="matrix(1.8379 0 0 1.83784 -403.073 -304.007)"/><use xlink:href="#cB" transform="matrix(1.8379 0 0 1.83784 -403.073 -304.007)"/><use xlink:href="#cC" transform="matrix(1.8379 0 0 1.83784 -403.073 -304.007)"/><use xlink:href="#cD" transform="matrix(1.8379 0 0 1.83784 -403.073 -304.007)"/><use xlink:href="#cE" transform="matrix(1.8379 0 0 1.83784 -403.073 -304.007)"/><use xlink:href="#cF" transform="matrix(1.8379 0 0 1.83784 -403.073 -304.007)"/><use xlink:href="#cG" transform="matrix(1.8379 0 0 1.83784 -403.073 -304.007)"/><use xlink:href="#cH" transform="matrix(1.8379 0 0 1.83784 -403.073 -304.007)"/><use xlink:href="#cI" transform="matrix(1.8379 0 0 1.83784 -403.073 -304.007)"/><use xlink:href="#cJ" transform="matrix(1.8379 0 0 1.83784 -403.073 -304.007)"/><use xlink:href="#cK" transform="matrix(1.8379 0 0 1.83784 -403.073 -304.007)"/><use xlink:href="#cL" transform="matrix(1.8379 0 0 1.83784 -403.073 -304.007)"/><use xlink:href="#cM" transform="matrix(1.8379 0 0 1.83784 -403.073 -304.007)"/><use xlink:href="#cN" transform="matrix(1.8379 0 0 1.83784 -403.073 -304.007)"/><use xlink:href="#cO" transform="matrix(1.8379 0 0 1.83784 -403.073 -304.007)"/><use xlink:href="#cP" transform="matrix(1.8379 0 0 1.83784 -403.073 -304.007)"/><use xlink:href="#cQ" transform="matrix(1.8379 0 0 1.83784 -403.073 -304.007)"/><use xlink:href="#cR" transform="matrix(1.8379 0 0 1.83784 -403.073 -304.007)"/><use xlink:href="#cS" transform="matrix(1.8379 0 0 1.83784 -403.073 -304.007)"/><use xlink:href="#cT" transform="matrix(1.8379 0 0 1.83784 -403.073 -304.007)"/><use xlink:href="#cU" transform="matrix(1.8379 0 0 1.83784 -403.073 -304.007)"/><use xlink:href="#cV" transform="matrix(1.8379 0 0 1.83784 -403.073 -304.007)"/><use xlink:href="#cW" transform="matrix(1.8379 0 0 1.83784 -403.073 -304.007)"/><use xlink:href="#cX" transform="matrix(1.8379 0 0 1.83784 -403.073 -304.007)"/><use xlink:href="#cY" transform="matrix(1.8379 0 0 1.83784 -403.073 -304.007)"/><use xlink:href="#cZ" transform="matrix(1.8379 0 0 1.83784 -403.073 -304.007)"/><use xlink:href="#da" transform="matrix(1.8379 0 0 1.83784 -403.073 -304.007)"/><use xlink:href="#db" transform="matrix(1.8379 0 0 1.83784 -403.073 -304.007)"/></svg>