<svg xmlns="http://www.w3.org/2000/svg" xmlns:xlink="http://www.w3.org/1999/xlink" preserveAspectRatio="none" width="284" height="320"><defs><linearGradient id="a" gradientUnits="userSpaceOnUse" x1="122.5" y1="601.1" x2="183.4" y2="601.1" spreadMethod="pad"><stop offset="0%" stop-color="#AE5E2D"/><stop offset="100%" stop-color="#AE5E2D"/></linearGradient><linearGradient id="b" gradientUnits="userSpaceOnUse" x1="108.475" y1="529.7" x2="168.525" y2="529.7" spreadMethod="pad"><stop offset="0%" stop-color="#D99630"/><stop offset="100%" stop-color="#B86A2F"/></linearGradient><linearGradient id="c" gradientUnits="userSpaceOnUse" x1="113.362" y1="514.962" x2="139.637" y2="530.137" spreadMethod="pad"><stop offset="0%" stop-color="#F1B82D"/><stop offset="100%" stop-color="#CE8730"/></linearGradient><linearGradient id="d" gradientUnits="userSpaceOnUse" x1="82.475" y1="599.55" x2="194.525" y2="599.55" spreadMethod="pad"><stop offset="0%" stop-color="#D99630"/><stop offset="100%" stop-color="#B86A2F"/></linearGradient><linearGradient id="e" gradientUnits="userSpaceOnUse" x1="113.637" y1="627.463" x2="101.063" y2="636.938" spreadMethod="pad"><stop offset="0%" stop-color="#CC8430"/><stop offset="100%" stop-color="#E5A62F"/></linearGradient><linearGradient id="f" gradientUnits="userSpaceOnUse" x1="125.35" y1="521.65" x2="130.45" y2="526.75" spreadMethod="pad"><stop offset="0%" stop-color="#FFF"/><stop offset="100%" stop-color="#D2D4D5"/></linearGradient><linearGradient id="g" gradientUnits="userSpaceOnUse" x1="146" y1="522" x2="151.1" y2="527.1" spreadMethod="pad"><stop offset="0%" stop-color="#FFF"/><stop offset="100%" stop-color="#D2D4D5"/></linearGradient><linearGradient id="h" gradientUnits="userSpaceOnUse" x1="134.212" y1="533.075" x2="139.688" y2="539.825" spreadMethod="pad"><stop offset="0%" stop-color="#F9B4A0"/><stop offset="32.941%" stop-color="#FFF"/><stop offset="100%" stop-color="#F8A38E"/></linearGradient><linearGradient id="i" gradientUnits="userSpaceOnUse" x1="135.663" y1="583.387" x2="142.938" y2="590.413" spreadMethod="pad"><stop offset="0%" stop-color="#EF4A47"/><stop offset="100%" stop-color="#CF303A"/></linearGradient><linearGradient id="j" gradientUnits="userSpaceOnUse" x1="136" y1="584.05" x2="139.1" y2="587.05" spreadMethod="pad"><stop offset="0%" stop-color="#FBC6B4"/><stop offset="100%" stop-color="#EE333F"/></linearGradient><linearGradient id="k" gradientUnits="userSpaceOnUse" x1="135.613" y1="600.438" x2="142.887" y2="607.463" spreadMethod="pad"><stop offset="0%" stop-color="#EF4A47"/><stop offset="100%" stop-color="#CF303A"/></linearGradient><linearGradient id="l" gradientUnits="userSpaceOnUse" x1="135.95" y1="601.1" x2="139.05" y2="604.1" spreadMethod="pad"><stop offset="0%" stop-color="#FBC6B4"/><stop offset="100%" stop-color="#EE333F"/></linearGradient><linearGradient id="m" gradientUnits="userSpaceOnUse" x1="88.525" y1="558.15" x2="128.475" y2="563.05" spreadMethod="pad"><stop offset="0%" stop-color="#F1B82D"/><stop offset="100%" stop-color="#CE8730"/></linearGradient><linearGradient id="n" gradientUnits="userSpaceOnUse" x1="189.375" y1="558" x2="149.525" y2="563.6" spreadMethod="pad"><stop offset="0%" stop-color="#CE8730"/><stop offset="100%" stop-color="#CE8730"/></linearGradient><linearGradient id="o" gradientUnits="userSpaceOnUse" x1="104.05" y1="557.512" x2="104.05" y2="580.288" spreadMethod="pad"><stop offset="0%" stop-color="#FFF"/><stop offset="100%" stop-color="#E1E2E3"/></linearGradient><linearGradient id="p" gradientUnits="userSpaceOnUse" x1="173.7" y1="557.512" x2="173.7" y2="580.288" spreadMethod="pad"><stop offset="0%" stop-color="#FFF"/><stop offset="100%" stop-color="#E1E2E3"/></linearGradient><linearGradient id="q" gradientUnits="userSpaceOnUse" x1="101.725" y1="623.863" x2="123.175" y2="632.538" spreadMethod="pad"><stop offset="0%" stop-color="#FFF"/><stop offset="100%" stop-color="#D6D8D9"/></linearGradient><linearGradient id="r" gradientUnits="userSpaceOnUse" x1="160.063" y1="631.125" x2="177.438" y2="620.675" spreadMethod="pad"><stop offset="0%" stop-color="#FFF"/><stop offset="100%" stop-color="#E1E2E3"/></linearGradient><linearGradient id="s" gradientUnits="userSpaceOnUse" x1="125.487" y1="569.75" x2="154.412" y2="569.75" spreadMethod="pad"><stop offset="0%" stop-color="#A6D282"/><stop offset="100%" stop-color="#2DB455"/></linearGradient><linearGradient id="t" gradientUnits="userSpaceOnUse" x1="129.525" y1="566.938" x2="128.075" y2="563.662" spreadMethod="pad"><stop offset="0%" stop-color="#D0E5B0"/><stop offset="100%" stop-color="#FFF"/></linearGradient><path fill="#FFF" fill-opacity="0" d="M284 0H0v320h284V0z" id="u"/><path fill="#AE5E2D" d="M161.5 508.65q-8.5-8.35-20.55-8.35-12 0-20.5 8.35t-8.5 20.1q0 11.7 8.5 20.05 8.5 8.3 20.5 8.3 12.05 0 20.55-8.3 8.55-8.35 8.55-20.05 0-11.75-8.55-20.1z" id="v"/><path fill="url(#a)" d="M164.7 592.55q0-2.6 7.65-4.7l11.75-3.15q6.65-1.8 10.05-7.75 3.45-5.9 1.65-12.55-.9-3.2-3.4-6.35-2.4-3-5.25-4.6-2.6-1.5-5.55-1.6-2.55-.15-6.1.8-22.2 6-34.45 5.95-11.85-.05-34.6-5.95-6.7-1.8-13.6 2-6.95 3.8-8.7 10.4-1.8 6.6 2.35 12.95 4.1 6.3 11.2 8.05 3.85 1 11.85 3.3 3.4.9 6.3 1.45 1.25.75 1.25 5.4 0 3.6-8.25 13.85-4.4 5.45-11.6 14.05-4 5.55-2.9 12.3 1.05 6.75 6.65 10.8 5.55 4.05 12.3 2.95 6.75-1.05 10.8-6.65l11.4-15.75q2.85-3.75 5.45-3.25 2.65-.45 5.55 3.25l11.35 15.75q4 5.6 10.8 6.65 6.75 1.1 12.35-2.95 5.65-4.1 7.1-11.25 1.5-7.35-2.5-12.8-10.4-15-16.3-22.9-4.6-6.35-4.6-7.7z" id="w"/><path fill="url(#b)" d="M160.4 508.25q-8.95-8.95-21.55-8.95-12.55 0-21.5 8.95-8.95 8.9-8.95 21.45 0 12.55 8.95 21.5t21.5 8.95q12.6 0 21.55-8.95 8.9-8.95 8.9-21.5t-8.9-21.45z" id="x"/><path fill="url(#c)" d="M123.9 513.85q7.7-7.7 18.55-7.7 7.55 0 13.85 3.95-3.5-3.15-7.95-4.85-4.55-1.75-9.5-1.75-10.85 0-18.55 7.65-7.7 7.7-7.7 18.55 0 6.95 3.4 12.9 3.3 5.8 9.05 9.4-4.15-3.7-6.45-8.65-2.4-5.2-2.4-10.95 0-10.85 7.7-18.55z" id="y"/><path fill="#925029" d="M125.65 535.85q-.4.9-.25 2.1.65 3.65 2.95 6.55 2.25 2.85 5.6 4.25 1.5.6 2.7.9 1.25.25 2.95.25 5.1 0 9-3.2 1.85-1.45 3.1-3.5.75-1.1 1.25-2.5.55-1.6.75-2.75v-.05q.05-.4 0-.75v-.05q-.1-.8-.7-1.4-.55-.6-1.4-.75-1.1-.15-1.95.45-.85.6-1.05 1.65v.05q-.1.65-.5 1.75-.55 1.15-.8 1.55-1.2 2-3.25 3.15-2.1 1.2-4.45 1.2-.9 0-1.9-.25-1.5-.4-1.7-.5-2.35-1-3.7-2.95-.9-1.25-1.95-4.15-.75-2.5-3.25-2.25-1 .15-1.45 1.2z" id="z"/><path fill="url(#d)" d="M162.35 591.95q.05-3.7 7.9-5.8l11.65-3.1q6.65-1.8 10.1-7.75 3.45-5.9 1.65-12.55-1.8-6.65-7.75-10.1-5.9-3.45-12.55-1.65-22.2 5.95-34.5 5.9-11.8-.05-34.5-5.9-6.6-1.8-12.55 1.65-5.95 3.45-7.75 10.1-1.75 6.65 1.7 12.55 3.4 5.95 10.05 7.75l11.65 3.1q7.9 2.1 7.95 5.8.05 2.45-4.75 9l-15.5 21.4q-4.05 5.55-2.95 12.35 1.05 6.8 6.65 10.85 5.55 4 12.35 2.9 6.75-1.1 10.8-6.65l11.4-15.7q2.85-3.85 5.45-3.3 2.6-.55 5.5 3.3l11.35 15.7q4.05 5.55 10.85 6.65 6.8 1.1 12.35-2.9 5.55-4.05 6.65-10.85 1.05-6.8-3-12.35-10.3-14.25-15.45-21.4-4.75-6.6-4.75-9z" id="A"/><path fill="#925029" d="M148.8 562.1q-1.1.85-3.15 2.7l-5.15 4.25-5.1-4.25q-3.7-2.95-6.05-2.95-4.35 0-4.8 5.15-.05.55-.6 3.8-.4 2.4-.35 3.9.1 2.7 1.45 4.3 1.55 1.8 4.3 1.8 2.45 0 6.05-2.95l5.1-4.15 5.15 4.15q1.5 1.25 3.1 2.1 1.75.85 2.95.85 4.9 0 5.15-6.05.25-5.65 0-7.85-.3-2.95-.95-4.1-1.15-1.95-4.15-2.15-1.05-.1-2.95 1.45z" id="B"/><path fill="url(#e)" d="M100.25 620.4l-2 2.65q-3.25 4.55-2.35 10.1.85 5.55 5.35 8.8 4.55 3.25 10.05 2.45 5.55-.85 8.85-5.4l1.2-1.75q-3.5 2.95-8.1 3.15-4.65.2-8.45-2.55-4.1-2.95-5.25-7.95-1.1-4.9 1.2-9.35l-.5-.15z" id="C"/><path fill="#CE8730" d="M156.35 637.25l1.25 1.75q3.25 4.5 8.8 5.4 5.5.8 10.05-2.45 4.55-3.25 5.4-8.8.85-5.55-2.4-10.1l-2.15-2.95-.5.15q2.5 4.45 1.4 9.5-1.1 5.1-5.3 8.1-3.8 2.75-8.45 2.55-4.6-.2-8.1-3.15z" id="D"/><path fill="#925029" d="M157.7 638.15q1.65-.3 2.55-1.55 1.75-2.95 4.7-5.45 2.6-2.25 6.75-4.65l3.15-1.5q2.9-1.05 3.25-1.15 1.4-.4 1.85-1.7.4-1.25-.2-2.4-.4-.8-1.35-1.25-.9-.45-1.9-.4-.1.05.1.5t.15.45l-.1.05q-1.8.5-3.8 1.4-2.35 1-3.55 1.7-4.3 2.4-8 5.9-3.45 3.3-5.75 7-.35.6-.95 1.25-.25.5.45.95.95 1.1 2.65.85z" id="E"/><path fill="#AE5E2D" d="M122.95 639q.85-.6 1.15-1.6.3-1.05-.15-2.15-3.6-6.3-13.75-12.25-1.85-1.1-3.6-1.85-1.75-.85-3.75-1.45-2.9-1-3.45.55-.4 1.65.35 2.95.55.9 2.2 1.55.95.35 2.65.9 1.4.65 3.1 1.65 7.5 4.45 11.15 10.65.7 1.2 1.95 1.45 1.1.2 2.15-.4z" id="F"/><path fill="#925029" d="M129.8 519.9q-2.15-.4-3.9.8-1.8 1.25-2.25 3.3-.4 2.05.75 3.8t3.25 2.1q2.1.4 3.85-.85 1.8-1.2 2.25-3.25.45-2.05-.7-3.8t-3.25-2.1z" id="G"/><path fill="url(#f)" d="M128.95 520.4q-1.65-.35-3.05.55-1.4 1-1.75 2.65-.35 1.7.6 3.15 1 1.4 2.65 1.7 1.65.3 3.05-.65 1.4-.9 1.7-2.6.35-1.65-.55-3.1-.95-1.4-2.65-1.7z" id="H"/><path fill="#FFF" d="M126.8 522.2q-.55-.1-1.05.2-.4.25-.5.85-.1.55.15.95.35.5.9.6.55.1.95-.25.45-.25.55-.8.1-.55-.15-1-.35-.5-.85-.55z" id="I"/><path fill="#925029" d="M150.1 519.9q-2.1-.4-3.9.8-1.8 1.25-2.25 3.3-.45 2.1.75 3.8 1.15 1.75 3.25 2.1 2.1.4 3.85-.85 1.8-1.2 2.25-3.25.45-2.05-.7-3.8t-3.25-2.1z" id="J"/><path fill="url(#g)" d="M149.25 520.4q-1.7-.35-3.1.55-1.45 1-1.75 2.65-.3 1.7.65 3.15.9 1.4 2.6 1.7 1.7.3 3.1-.65 1.4-.9 1.7-2.6.35-1.65-.55-3.1-.95-1.4-2.65-1.7z" id="K"/><path fill="#FFF" d="M147.05 522.2q-.55-.1-1 .2-.4.25-.5.85-.1.55.15.95.35.5.85.6.5.1 1-.25.45-.25.55-.8.1-.55-.15-1-.35-.45-.9-.55z" id="L"/><path fill="#EE3338" d="M125.1 537.15q.65 3.55 2.9 6.4 2.2 2.8 5.4 4.15 1.5.6 2.65.8 1.2.25 2.8.25 5.55 0 9.45-3.65 1.25-1.15 2.35-2.8.85-1.4 1.15-2.45.55-1.05.8-2.6v-.8q-.35-1.55-1.8-1.7-.85-.2-1.55.3-.7.5-.95 1.35v.05q-.15.8-.5 1.85-.5 1.2-.8 1.7-1.35 2.05-3.45 3.2-2.2 1.25-4.7 1.25-.75 0-1.95-.2-.55-.1-1.8-.5-2.25-1-3.75-2.9-1.55-1.95-1.9-4.4-.2-.85-.95-1.35-.75-.55-1.6-.35-.85.1-1.4.8-.5.75-.4 1.6z" id="M"/><path fill="url(#h)" d="M149.65 536.25q0 4.4-3.05 7.2-2.8 2.55-6.9 2.8-4.1.25-7.25-2-3.45-2.5-4.2-7.2-.15-.95-.9-.85-.75.15-.6 1.1.95 5.1 4.85 7.75 3.5 2.35 7.95 2 4.45-.35 7.3-3.15 3.15-3 2.8-7.65z" id="N"/><path fill="#925029" d="M141.6 581.4q-2.65-.45-4.9 1.05-2.25 1.55-2.85 4.15-.55 2.6.9 4.8 1.45 2.15 4.1 2.6 2.65.5 4.9-1.05 2.3-1.5 2.85-4.1.55-2.6-.9-4.8-1.45-2.15-4.1-2.65z" id="O"/><path fill="url(#i)" d="M140.55 581.35q-2.35-.45-4.35.9-1.95 1.35-2.4 3.7-.45 2.35.9 4.3 1.3 2 3.65 2.45 2.35.45 4.35-.9 1.9-1.35 2.4-3.7.45-2.35-.85-4.25-1.35-2-3.7-2.5z" id="P"/><path fill="url(#j)" d="M139.25 583.25q-.4-.6-1.25-.45-.85.1-1.7.95-.85.8-1.2 1.8-.3.95.1 1.6.45.6 1.3.5.85-.15 1.65-.95.8-.8 1.15-1.8.3-1-.05-1.65z" id="Q"/><path fill="#925029" d="M141.6 598.5q-2.65-.5-4.9 1-2.25 1.55-2.85 4.15-.55 2.65.9 4.8 1.45 2.15 4.1 2.65 2.65.45 4.9-1.05 2.3-1.55 2.85-4.15.55-2.6-.9-4.8-1.45-2.15-4.1-2.6z" id="R"/><path fill="url(#k)" d="M140.55 598.5q-2.35-.45-4.35.9-1.95 1.3-2.4 3.6-.45 2.35.9 4.35 1.3 1.95 3.65 2.45 2.35.45 4.35-.85 1.95-1.35 2.4-3.7.45-2.35-.85-4.35-1.35-1.95-3.7-2.4z" id="S"/><path fill="url(#l)" d="M139.25 600.4q-.4-.6-1.25-.5-.85.15-1.7.95-.85.8-1.2 1.85-.3.95.1 1.6.45.6 1.3.5.85-.2 1.65-1 .8-.8 1.15-1.85.3-.95-.05-1.55z" id="T"/><path fill="url(#m)" d="M87.1 563.9q2.85-3.3 5.5-4.65 3.4-1.7 9.05-1.85 2.5-.1 11.55.8 5.15.5 15.6 1.6-10.85-2.85-15.7-3.95-8.4-1.9-12.1-1.9-5.35 0-8.75 2.8-2.65 2.15-5.15 7.15z" id="U"/><path fill="url(#n)" d="M185.1 559.25q2.7 1.35 5.55 4.65-2.5-5-5.15-7.15-3.4-2.8-8.7-2.8-3.75 0-12.15 1.9-4.8 1.1-15.7 3.95 4.65-.45 15.55-1.6 9.05-.9 11.6-.8 5.6.15 9 1.85z" id="V"/><path fill="#925029" d="M174.05 556.4v-.1q.1-1-.6-1.75-.65-.75-1.7-.8-1-.1-1.8.55t-.85 1.65v.1q-.1 3.15-.05 4 .05 1.15.35 4 .75 4.95 2.7 9.55 1.85 4.4 4.5 7.8.6.8 1.6.95 1.05.15 1.85-.45.8-.7.95-1.7.15-1.05-.5-1.85-4.9-6.35-6.15-15.05-.25-1.4-.35-3.45-.05-.85.05-3.45z" id="W"/><path fill="#B86A2F" d="M108.05 554.75q-1 .1-1.7.9-.65.75-.6 1.75v.1q.2 1.45.05 3.45 0 1.25-.3 3.45-1.1 8.55-6 15.1-.65.8-.55 1.8.15 1 .95 1.65.85.65 1.85.55 1-.15 1.7-.95 5.65-7.7 6.95-17.45.4-2.15.4-4 .1-2.25-.1-4.05-.1-1-.85-1.7-.8-.65-1.8-.6z" id="X"/><path fill="url(#o)" d="M104.75 556.25q.1 2.3.05 3.55 0 2-.2 3.45-1.1 8.65-5.85 15.2-.6.8-.45 1.8.15 1.05.95 1.65.8.6 1.85.45 1-.15 1.6-.95 2.55-3.45 4.3-7.9 1.85-4.65 2.5-9.6.25-1.75.25-4.05.1-1.25-.1-4.05-.1-1-.9-1.65-.75-.65-1.8-.55-1 .1-1.65.9-.65.75-.55 1.75z" id="Y"/><path fill="url(#p)" d="M172.9 559.8q-.05-1.65.1-3.55.1-1-.55-1.75-.65-.8-1.7-.9-.95-.1-1.75.55t-.9 1.65q-.25 2.5-.15 4.05 0 2.35.3 4.05.6 4.9 2.45 9.6 1.75 4.45 4.3 7.9.6.8 1.65.95 1 .15 1.8-.45t.95-1.65q.15-1-.45-1.8-4.7-6.45-5.8-15.2-.25-1.85-.25-3.45z" id="Z"/><path fill="url(#q)" d="M122.85 637.55q.9-.55 1.15-1.55.2-1-.35-1.9-2.2-3.6-5.7-6.95-3.6-3.45-7.95-5.9-2.75-1.45-3.6-1.8-1.45-.55-3.85-1.35-1-.25-1.9.2-.9.5-1.15 1.55-.35.95.15 1.85.5.9 1.5 1.15 2.25.75 3.3 1.25l3.1 1.5q3.75 2.1 6.95 5.1 3 2.85 4.9 6 .55.9 1.55 1.15 1 .25 1.9-.3z" id="aa"/><path fill="url(#r)" d="M157.15 637.85q1-.25 1.5-1.15 4.4-7 11.9-11.1l3.1-1.5q1.25-.6 3.3-1.25 1-.25 1.5-1.15.5-.9.15-1.85-.25-1.05-1.15-1.55-.9-.45-1.95-.2-2.8.95-3.8 1.35-1.4.6-3.6 1.8-4.3 2.45-7.95 5.9-3.5 3.35-5.75 6.95-.5.9-.3 1.9.25 1 1.1 1.55.95.55 1.95.3z" id="ab"/><path fill="#FFF" d="M101.5 580.3q3.8-5.35 5.3-12.05 1.5-6.5.6-13 .05 6.85-1.65 12.5-1.85 6.05-5.85 11.4-.2.35-.15.75.05.4.35.6.35.3.75.2.4-.05.65-.4z" id="ac"/><path fill="#FFF" d="M170.85 568.25q1.5 6.7 5.25 12.05.65.85 1.35.2.35-.2.4-.6.1-.4-.2-.75-3.95-5.4-5.8-11.4-1.7-5.7-1.6-12.5-.9 6.5.6 13z" id="ad"/><path fill="#FFF" d="M121.7 635.65q.35-.2.45-.6.1-.4-.15-.75-3.8-5.4-9.45-9.15-5.65-3.7-12.05-5.05 12.9 4.55 19.85 15.3.25.3.65.4.4.05.7-.15z" id="ae"/><path fill="#FFF" d="M175.35 619.95q-6.2 2.3-11.25 6.9-4.95 4.5-7.9 10.35 3.85-5.65 8.5-9.35 4.9-3.9 11.3-6.1.4-.05.55-.45.2-.35.05-.75-.1-.4-.5-.55-.4-.2-.75-.05z" id="af"/><path fill="url(#s)" d="M150.6 560.3q-2.4 0-6 2.95l-5.15 4.25-5.15-4.25q-3.5-2.95-5.95-2.95-2.5 0-3.65 1.45-1 1.2-1.2 3.65-.3 3.2-.05 7.75.05 2.85 1 4.3 1.2 1.75 3.9 1.75 2.45 0 5.95-2.95l5.15-4.15 5.15 4.15q3.6 2.95 6 2.95 2.7 0 3.9-1.75.9-1.45 1-4.3.1-5.95-.1-7.75-.35-5.1-4.8-5.1z" id="ag"/><path fill="url(#t)" d="M128.3 565.05q1.7-1.05 4.15.5 1.6 1 4.75 3.1-1-1.1-4.7-4.35-2.25-1.9-4.45-.8-2.2 1.1-2.45 4.35-.15 2.1-.15 3.05.05 1.05.3 3.05-.05-2.2.35-4.65.45-3.2 2.2-4.25z" id="ah"/><path fill="#A6D282" d="M153.2 567.85q-.25-3.25-2.5-4.35-2.2-1.1-4.45.8-3.4 3-4.65 4.35 3.1-2.1 4.65-3.1 2.5-1.5 4.25-.5 1.7 1.05 2.2 4.25.35 3 .35 4.65.25-2 .3-3.05 0-.95-.15-3.05z" id="ai"/></defs><use xlink:href="#u"/><use xlink:href="#v" transform="matrix(1.70714 0 0 1.7071 -96.86 -805.359)"/><use xlink:href="#w" transform="matrix(1.70714 0 0 1.7071 -96.86 -805.359)"/><use xlink:href="#x" transform="matrix(1.70714 0 0 1.7071 -96.86 -805.359)"/><use xlink:href="#y" transform="matrix(1.70714 0 0 1.7071 -96.86 -805.359)"/><use xlink:href="#z" transform="matrix(1.70714 0 0 1.7071 -96.86 -805.359)"/><use xlink:href="#A" transform="matrix(1.70714 0 0 1.7071 -96.86 -805.359)"/><use xlink:href="#B" transform="matrix(1.70714 0 0 1.7071 -96.86 -805.359)"/><use xlink:href="#C" transform="matrix(1.70714 0 0 1.7071 -96.86 -805.359)"/><use xlink:href="#D" transform="matrix(1.70714 0 0 1.7071 -96.86 -805.359)"/><use xlink:href="#E" transform="matrix(1.70714 0 0 1.7071 -96.86 -805.359)"/><use xlink:href="#F" transform="matrix(1.70714 0 0 1.7071 -96.86 -805.359)"/><use xlink:href="#G" transform="matrix(1.70714 0 0 1.7071 -96.86 -805.359)"/><use xlink:href="#H" transform="matrix(1.70714 0 0 1.7071 -96.86 -805.359)"/><use xlink:href="#I" transform="matrix(1.70714 0 0 1.7071 -96.86 -805.359)"/><use xlink:href="#J" transform="matrix(1.70714 0 0 1.7071 -96.86 -805.359)"/><use xlink:href="#K" transform="matrix(1.70714 0 0 1.7071 -96.86 -805.359)"/><use xlink:href="#L" transform="matrix(1.70714 0 0 1.7071 -96.86 -805.359)"/><use xlink:href="#M" transform="matrix(1.70714 0 0 1.7071 -96.86 -805.359)"/><use xlink:href="#N" transform="matrix(1.70714 0 0 1.7071 -96.86 -805.359)"/><use xlink:href="#O" transform="matrix(1.70714 0 0 1.7071 -96.86 -805.359)"/><use xlink:href="#P" transform="matrix(1.70714 0 0 1.7071 -96.86 -805.359)"/><use xlink:href="#Q" transform="matrix(1.70714 0 0 1.7071 -96.86 -805.359)"/><use xlink:href="#R" transform="matrix(1.70714 0 0 1.7071 -96.86 -805.359)"/><use xlink:href="#S" transform="matrix(1.70714 0 0 1.7071 -96.86 -805.359)"/><use xlink:href="#T" transform="matrix(1.70714 0 0 1.7071 -96.86 -805.359)"/><use xlink:href="#U" transform="matrix(1.70714 0 0 1.7071 -96.86 -805.359)"/><use xlink:href="#V" transform="matrix(1.70714 0 0 1.7071 -96.86 -805.359)"/><use xlink:href="#W" transform="matrix(1.70714 0 0 1.7071 -96.86 -805.359)"/><use xlink:href="#X" transform="matrix(1.70714 0 0 1.7071 -96.86 -805.359)"/><use xlink:href="#Y" transform="matrix(1.70714 0 0 1.7071 -96.86 -805.359)"/><use xlink:href="#Z" transform="matrix(1.70714 0 0 1.7071 -96.86 -805.359)"/><use xlink:href="#aa" transform="matrix(1.70714 0 0 1.7071 -96.86 -805.359)"/><use xlink:href="#ab" transform="matrix(1.70714 0 0 1.7071 -96.86 -805.359)"/><use xlink:href="#ac" transform="matrix(1.70714 0 0 1.7071 -96.86 -805.359)"/><use xlink:href="#ad" transform="matrix(1.70714 0 0 1.7071 -96.86 -805.359)"/><use xlink:href="#ae" transform="matrix(1.70714 0 0 1.7071 -96.86 -805.359)"/><use xlink:href="#af" transform="matrix(1.70714 0 0 1.7071 -96.86 -805.359)"/><use xlink:href="#ag" transform="matrix(1.70714 0 0 1.7071 -96.86 -805.359)"/><use xlink:href="#ah" transform="matrix(1.70714 0 0 1.7071 -96.86 -805.359)"/><use xlink:href="#ai" transform="matrix(1.70714 0 0 1.7071 -96.86 -805.359)"/></svg>