<svg xmlns="http://www.w3.org/2000/svg" xmlns:xlink="http://www.w3.org/1999/xlink" preserveAspectRatio="none" width="284" height="320"><defs><linearGradient id="a" gradientUnits="userSpaceOnUse" x1="303.05" y1="231.538" x2="303.05" y2="324.163" spreadMethod="pad"><stop offset="0%" stop-color="#F1B82D"/><stop offset="100%" stop-color="#FFD040"/></linearGradient><radialGradient id="b" gradientUnits="userSpaceOnUse" cx="0" cy="0" r="89.863" fx="0" fy="0" gradientTransform="matrix(1 0 0 -1 280.45 258.55)" spreadMethod="pad"><stop offset="0%" stop-color="#FFF"/><stop offset="23.922%" stop-color="#FFE697"/><stop offset="49.804%" stop-color="#FFCC2A"/><stop offset="100%" stop-color="#D99630"/></radialGradient><linearGradient id="c" gradientUnits="userSpaceOnUse" x1="280.5" y1="233.35" x2="315" y2="233.35" spreadMethod="pad"><stop offset="0%" stop-color="#FFEDAC"/><stop offset="100%" stop-color="#FFF"/></linearGradient><linearGradient id="d" gradientUnits="userSpaceOnUse" x1="329.313" y1="237.412" x2="256.087" y2="233.588" spreadMethod="pad"><stop offset="0%" stop-color="#D99630"/><stop offset="61.961%" stop-color="#FFCC2A"/><stop offset="100%" stop-color="#F1B82D"/></linearGradient><linearGradient id="e" gradientUnits="userSpaceOnUse" x1="332.263" y1="274.3" x2="244.338" y2="269.7" spreadMethod="pad"><stop offset="0%" stop-color="#D99630"/><stop offset="61.961%" stop-color="#FFCC2A"/><stop offset="100%" stop-color="#F1B82D"/></linearGradient><linearGradient id="f" gradientUnits="userSpaceOnUse" x1="281.825" y1="304.512" x2="285.375" y2="236.787" spreadMethod="pad"><stop offset="0%" stop-color="#FFE697"/><stop offset="100%" stop-color="#FFF"/></linearGradient><linearGradient id="g" gradientUnits="userSpaceOnUse" x1="276.487" y1="218.4" x2="339.313" y2="218.4" spreadMethod="pad"><stop offset="0%" stop-color="#CE8730"/><stop offset="100%" stop-color="#E5A62F"/></linearGradient><linearGradient id="h" gradientUnits="userSpaceOnUse" x1="303.3" y1="232.5" x2="303.3" y2="210.3" spreadMethod="pad"><stop offset="0%" stop-color="#FFF"/><stop offset="100%" stop-color="#FFF2C0"/></linearGradient><linearGradient id="i" gradientUnits="userSpaceOnUse" x1="298.488" y1="218.4" x2="312.512" y2="218.4" spreadMethod="pad"><stop offset="0%" stop-color="#F1B82D"/><stop offset="100%" stop-color="#FFD758"/></linearGradient><linearGradient id="j" gradientUnits="userSpaceOnUse" x1="311.45" y1="217.3" x2="296.55" y2="217.3" spreadMethod="pad"><stop offset="0%" stop-color="#FFEDAC"/><stop offset="100%" stop-color="#FFCC2A"/></linearGradient><linearGradient id="k" gradientUnits="userSpaceOnUse" x1="300.475" y1="220.5" x2="310.325" y2="220.5" spreadMethod="pad"><stop offset="0%" stop-color="#B86A2F"/><stop offset="100%" stop-color="#E5A62F"/></linearGradient><linearGradient id="l" gradientUnits="userSpaceOnUse" x1="303.25" y1="214.5" x2="303.25" y2="196.1" spreadMethod="pad"><stop offset="0%" stop-color="#F68D37"/><stop offset="25.882%" stop-color="#FCB852"/><stop offset="100%" stop-color="#EE3338"/></linearGradient><linearGradient id="m" gradientUnits="userSpaceOnUse" x1="315.3" y1="308.175" x2="251.5" y2="303.725" spreadMethod="pad"><stop offset="0%" stop-color="#D79330"/><stop offset="61.961%" stop-color="#E8AA2F"/><stop offset="100%" stop-color="#DE9E30"/></linearGradient><path fill="#FFF" fill-opacity="0" d="M284 0H0v320h284V0z" id="n"/><path fill="#FFF" d="M326.2 224.35q9.5-9.5 9.5-22.9 0-13.4-9.5-22.9-9.55-9.5-22.95-9.5-13.35 0-22.85 9.5-9.5 9.5-9.5 22.9 0 13.4 9.5 22.9 9.5 9.55 22.85 9.55 13.4 0 22.95-9.55z" id="o"/><path fill="#FFFFFD" d="M326.05 224.25q9.5-9.45 9.5-22.8 0-13.3-9.45-22.8-9.45-9.45-22.85-9.45-13.3 0-22.75 9.45t-9.45 22.75q0 13.35 9.45 22.85 9.45 9.5 22.7 9.5 13.4 0 22.85-9.5z" id="p"/><path fill="#FFFEFC" d="M325.95 224.15q9.45-9.4 9.45-22.7 0-13.25-9.4-22.65-9.45-9.45-22.75-9.45-13.2 0-22.6 9.4-9.4 9.4-9.45 22.65 0 13.3 9.4 22.75t22.6 9.45q13.3 0 22.75-9.45z" id="q"/><path fill="#FFFEFA" d="M325.85 224.05q9.35-9.4 9.4-22.6 0-13.15-9.35-22.55-9.4-9.35-22.65-9.4-13.15 0-22.5 9.35t-9.35 22.55q-.05 13.2 9.3 22.6 9.35 9.4 22.5 9.45 13.25 0 22.65-9.4z" id="r"/><path fill="#FFFDF9" d="M325.7 223.95q9.35-9.3 9.35-22.45.05-13.15-9.25-22.45-9.35-9.35-22.5-9.4-13.1 0-22.4 9.3-9.35 9.35-9.35 22.45-.05 13.15 9.25 22.5t22.4 9.35q13.15.05 22.5-9.3z" id="s"/><path fill="#FFFDF8" d="M325.6 223.85q9.3-9.3 9.3-22.35.05-13.05-9.2-22.35-9.3-9.3-22.4-9.3-13-.05-22.3 9.2-9.25 9.25-9.3 22.35-.05 13.05 9.2 22.4 9.25 9.3 22.25 9.3 13.1.05 22.45-9.25z" id="t"/><path fill="#FFFDF7" d="M325.45 223.75q9.25-9.2 9.3-22.25.05-13-9.2-22.2-9.2-9.25-22.25-9.3-12.95-.05-22.15 9.15-9.25 9.25-9.3 22.2-.05 13 9.15 22.3 9.2 9.25 22.15 9.3 13.05.05 22.3-9.2z" id="u"/><path fill="#FFFCF6" d="M325.35 223.65q9.2-9.2 9.25-22.15.05-12.9-9.1-22.1-9.2-9.2-22.2-9.25-12.85-.05-22.05 9.1-9.2 9.15-9.25 22.1-.05 12.95 9.15 22.2 9.15 9.2 22 9.25 12.95.05 22.2-9.15z" id="v"/><path fill="#FFFCF5" d="M325.25 223.55q9.15-9.15 9.2-22 .05-12.85-9.1-22.05-9.1-9.15-22-9.2-12.8-.05-21.95 9.1-9.15 9.1-9.25 21.95-.05 12.85 9.05 22.05 9.15 9.2 21.95 9.25 12.9.05 22.1-9.1z" id="w"/><path fill="#FFFCF4" d="M325.1 223.45q9.1-9.1 9.15-21.9.1-12.8-9-21.9-9.05-9.1-21.9-9.2-12.75-.05-21.85 9-9.1 9.1-9.15 21.9-.05 12.8 9 21.95 9.05 9.15 21.8 9.2 12.8.05 21.95-9.05z" id="x"/><path fill="#FFFBF3" d="M325 223.35q9.05-9.05 9.1-21.8.1-12.7-8.95-21.8-9-9.05-21.8-9.1-12.7-.05-21.75 8.95t-9.1 21.7q-.05 12.75 8.95 21.85 8.95 9.1 21.65 9.15 12.8.1 21.9-8.95z" id="y"/><path fill="#FFFBF2" d="M324.85 223.25q9.05-9 9.1-21.7.1-12.65-8.9-21.65-8.95-9.05-21.7-9.1-12.6-.05-21.6 8.9-9 8.95-9.1 21.6-.05 12.7 8.9 21.75 8.95 9.05 21.55 9.1 12.7.1 21.75-8.9z" id="z"/><path fill="#FFFBF1" d="M324.75 223.15q9-8.95 9.05-21.55.1-12.6-8.85-21.6-8.9-9-21.55-9.05-12.55-.05-21.55 8.85-8.95 8.9-9.05 21.5-.05 12.6 8.85 21.6 8.9 9.05 21.45 9.1 12.6.1 21.65-8.85z" id="A"/><path fill="#FFFBF0" d="M324.6 223.05q9-8.9 9.05-21.45.1-12.55-8.8-21.45-8.85-8.95-21.45-9.05-12.5-.05-21.45 8.8-8.9 8.85-9 21.4-.05 12.55 8.8 21.5 8.85 9 21.35 9.05 12.55.1 21.5-8.8z" id="B"/><path fill="#FFFAF0" d="M324.5 222.9q8.95-8.8 9-21.3.1-12.45-8.75-21.35-8.85-8.9-21.35-9-12.4-.05-21.3 8.75t-8.95 21.25q-.05 12.5 8.7 21.45 8.8 8.95 21.2 9 12.5.05 21.45-8.8z" id="C"/><path fill="#FFFAEF" d="M324.35 222.8q8.9-8.8 8.95-21.2.1-12.4-8.65-21.25t-21.25-8.95q-12.35-.05-21.2 8.7-8.8 8.75-8.9 21.15-.05 12.4 8.65 21.3 8.75 8.9 21.1 8.95 12.45.1 21.3-8.7z" id="D"/><path fill="#FFFAEE" d="M324.25 222.7q8.85-8.7 8.9-21.05.1-12.35-8.6-21.15-8.75-8.8-21.1-8.9-12.3-.1-21.1 8.6t-8.9 21.05q-.05 12.35 8.6 21.2 8.7 8.85 21 8.9 12.35.1 21.2-8.65z" id="E"/><path fill="#FFFAED" d="M324.15 222.6q8.8-8.7 8.85-20.95.1-12.3-8.55-21.05-8.7-8.75-21-8.85-12.25-.1-21 8.55t-8.85 20.95q-.05 12.25 8.6 21.05 8.65 8.85 20.85 8.9 12.3.1 21.1-8.6z" id="F"/><path fill="#FFF9EC" d="M324 222.5q8.75-8.6 8.85-20.85.1-12.2-8.55-20.95-8.6-8.7-20.85-8.8-12.15-.1-20.85 8.5-8.75 8.6-8.85 20.8-.05 12.2 8.5 21 8.6 8.75 20.75 8.85 12.25.1 21-8.55z" id="G"/><path fill="#FFF9EB" d="M332.7 201.65q.1-12.15-8.45-20.8-8.6-8.7-20.8-8.8-12.1-.05-20.75 8.45-8.7 8.55-8.8 20.7-.05 12.15 8.5 20.85 8.5 8.75 20.6 8.85 12.2.1 20.9-8.5t8.8-20.75z" id="H"/><path fill="#FFF9EB" d="M332.5 201.7q.1-12.1-8.4-20.75t-20.6-8.75q-12.05-.05-20.7 8.45-8.6 8.5-8.7 20.55-.1 12.1 8.4 20.75 8.45 8.7 20.5 8.8 12.1.1 20.75-8.45 8.7-8.5 8.75-20.6z" id="I"/><path fill="#FFF9EA" d="M332.35 201.7q.1-12-8.35-20.6-8.45-8.65-20.5-8.75-11.95-.05-20.55 8.35-8.6 8.5-8.7 20.5-.1 12 8.35 20.65 8.45 8.65 20.4 8.7 12.05.1 20.65-8.35 8.6-8.5 8.7-20.5z" id="J"/><path fill="#FFF8E9" d="M323.9 181.2q-8.4-8.55-20.4-8.65-11.9-.1-20.45 8.3-8.55 8.4-8.65 20.3-.1 11.95 8.3 20.55 8.35 8.6 20.25 8.7 12 .1 20.55-8.3 8.6-8.45 8.7-20.4.1-11.95-8.3-20.5z" id="K"/><path fill="#FFF8E8" d="M323.8 181.35q-8.35-8.55-20.3-8.65-11.8-.1-20.3 8.25-8.55 8.35-8.65 20.2-.1 11.9 8.25 20.45 8.35 8.55 20.15 8.65 11.9.1 20.45-8.25 8.55-8.4 8.65-20.3.1-11.85-8.25-20.35z" id="L"/><path fill="#FFF8E7" d="M323.7 181.45q-8.3-8.5-20.15-8.6-11.75-.1-20.25 8.2-8.45 8.3-8.6 20.1-.1 11.8 8.2 20.35 8.3 8.5 20.05 8.6 11.85.1 20.35-8.2 8.5-8.35 8.6-20.15.1-11.8-8.2-20.3z" id="M"/><path fill="#FFF8E6" d="M323.6 181.6q-8.3-8.45-20.05-8.6-11.7-.1-20.1 8.15-8.45 8.25-8.6 20-.1 11.75 8.15 20.2t19.95 8.6q11.75.1 20.2-8.15 8.45-8.3 8.6-20.05.1-11.75-8.15-20.15z" id="N"/><path fill="#FFF7E5" d="M303.55 173.15q-11.65-.1-20 8.1-8.4 8.2-8.5 19.85-.15 11.7 8.05 20.1 8.15 8.45 19.8 8.55 11.75.15 20.15-8.05 8.4-8.25 8.5-19.95.15-11.65-8.05-20.05-8.2-8.4-19.95-8.55z" id="O"/><path fill="#FFF7E5" d="M303.55 173.35q-11.55-.15-19.85 8-8.35 8.15-8.5 19.75-.15 11.6 8 20t19.7 8.5q11.65.15 20.05-8.05 8.35-8.15 8.45-19.8.15-11.6-8-19.95-8.2-8.35-19.85-8.45z" id="P"/><path fill="#FFF7E4" d="M303.6 173.5q-11.5-.15-19.8 7.95t-8.45 19.65q-.15 11.55 7.95 19.9 8.1 8.3 19.6 8.45 11.6.15 19.9-7.95 8.3-8.15 8.45-19.7.15-11.55-7.95-19.85-8.1-8.35-19.7-8.45z" id="Q"/><path fill="#FFF7E3" d="M303.6 173.65q-11.45-.15-19.7 7.9t-8.4 19.55q-.15 11.45 7.9 19.75t19.5 8.45q11.5.15 19.8-7.95 8.25-8.05 8.4-19.55.15-11.5-7.9-19.75-8.1-8.25-19.6-8.4z" id="R"/><path fill="#FFF6E2" d="M303.6 173.8q-11.35-.15-19.6 7.85-8.2 8-8.35 19.4-.15 11.45 7.85 19.7t19.4 8.4q11.45.15 19.65-7.9 8.25-8 8.4-19.45.15-11.4-7.85-19.6-8.05-8.25-19.5-8.4z" id="S"/><path fill="#FFF6E1" d="M303.6 173.95q-11.3-.15-19.45 7.8-8.15 7.95-8.35 19.3-.15 11.35 7.8 19.55 7.95 8.2 19.25 8.35 11.4.2 19.6-7.8 8.15-7.95 8.3-19.35.2-11.35-7.8-19.5-7.95-8.2-19.35-8.35z" id="T"/><path fill="#FFF6E1" d="M303.65 174.1q-11.25-.15-19.35 7.75-8.15 7.9-8.3 19.2-.2 11.3 7.7 19.45 7.9 8.15 19.15 8.3 11.3.2 19.45-7.75 8.15-7.9 8.3-19.2.2-11.3-7.7-19.4-7.9-8.15-19.25-8.35z" id="U"/><path fill="#FFF6E0" d="M303.65 174.3q-11.2-.2-19.25 7.65-8.1 7.85-8.25 19.1-.2 11.2 7.65 19.35 7.9 8.1 19.05 8.25 11.25.2 19.35-7.7 8.1-7.9 8.25-19.1.2-11.2-7.7-19.3-7.85-8.1-19.1-8.25z" id="V"/><path fill="#FFF6DF" d="M303.65 174.45q-11.1-.2-19.15 7.6-8 7.8-8.2 18.95-.2 11.15 7.6 19.25 7.8 8.05 18.95 8.25 11.15.15 19.2-7.65 8.05-7.8 8.25-19 .2-11.15-7.6-19.2-7.85-8.05-19.05-8.2z" id="W"/><path fill="#FFF5DE" d="M303.65 174.6q-11.05-.2-19 7.55-8 7.75-8.2 18.85-.2 11.1 7.55 19.15 7.75 8 18.8 8.2 11.15.15 19.15-7.6 8-7.8 8.2-18.9.2-11.05-7.6-19.05-7.75-8-18.9-8.2z" id="X"/><path fill="#FFF5DD" d="M303.7 174.75q-11-.2-18.95 7.5Q276.8 190 276.6 201q-.2 11.05 7.5 19 7.7 8 18.7 8.2 11.05.15 19.05-7.55 7.95-7.7 8.15-18.75.2-11.05-7.5-19-7.75-7.95-18.8-8.15z" id="Y"/><path fill="#FFF5DD" d="M303.7 174.9q-10.9-.2-18.8 7.45T276.75 201q-.2 10.95 7.5 18.9 7.65 7.9 18.55 8.1 11 .2 18.9-7.5 7.9-7.65 8.1-18.6.25-10.95-7.45-18.9-7.65-7.9-18.65-8.1z" id="Z"/><path fill="#FFF5DC" d="M303.7 175.05q-10.85-.2-18.7 7.4-7.85 7.65-8.05 18.5-.2 10.9 7.4 18.8 7.55 7.9 18.45 8.1 10.9.2 18.8-7.4 7.85-7.65 8.05-18.55.25-10.85-7.4-18.75-7.6-7.85-18.55-8.1z" id="aa"/><path fill="#FFF4DB" d="M303.7 175.25q-10.75-.2-18.6 7.3-7.8 7.55-8 18.4-.2 10.85 7.35 18.7t18.3 8.05q10.85.2 18.7-7.4 7.85-7.55 8.05-18.4.2-10.8-7.35-18.65-7.6-7.8-18.45-8z" id="ab"/><path fill="#FFF4DA" d="M303.75 175.4q-10.7-.2-18.5 7.3-7.75 7.5-8 18.25-.2 10.75 7.3 18.55 7.5 7.85 18.2 8.05 10.8.2 18.6-7.3 7.8-7.55 8-18.3.2-10.75-7.3-18.55-7.5-7.8-18.3-8z" id="ac"/><path fill="#FFF4D9" d="M303.75 175.55q-10.65-.2-18.4 7.25-7.7 7.45-7.95 18.15-.2 10.7 7.25 18.45 7.45 7.8 18.1 8 10.7.2 18.5-7.3 7.75-7.45 7.95-18.15.2-10.7-7.25-18.45-7.5-7.75-18.2-7.95z" id="ad"/><path fill="#FFF4D9" d="M303.75 175.7q-10.6-.2-18.25 7.2-7.7 7.4-7.95 18-.2 10.65 7.2 18.4 7.4 7.7 18 7.9 10.65.25 18.35-7.2 7.7-7.4 7.9-18.05.25-10.6-7.15-18.3-7.4-7.7-18.1-7.95z" id="ae"/><path fill="#FFF4D8" d="M303.75 175.85q-10.5-.2-18.15 7.15-7.65 7.35-7.9 17.9-.2 10.6 7.15 18.25 7.35 7.7 17.85 7.9 10.6.25 18.25-7.15 7.7-7.35 7.9-17.95.25-10.55-7.15-18.2-7.35-7.65-17.95-7.9z" id="af"/><path fill="#FFF3D7" d="M303.8 176q-10.45-.2-18.05 7.1-7.6 7.3-7.85 17.8-.2 10.5 7.05 18.15 7.3 7.65 17.75 7.85 10.55.25 18.15-7.1 7.65-7.3 7.85-17.8.25-10.5-7.05-18.15-7.3-7.6-17.85-7.85z" id="ag"/><path fill="#FFF3D6" d="M303.8 176.2q-10.4-.2-17.95 7-7.55 7.25-7.8 17.7-.2 10.45 7 18.05 7.25 7.6 17.65 7.8 10.45.25 18.05-7.05 7.6-7.25 7.8-17.7.25-10.45-7.05-18-7.25-7.55-17.7-7.8z" id="ah"/><path fill="#FFF3D6" d="M303.8 176.35q-10.3-.2-17.85 6.95-7.5 7.2-7.75 17.55-.2 10.4 6.95 17.95 7.2 7.6 17.55 7.8 10.4.25 17.95-7 7.55-7.2 7.75-17.6.25-10.35-6.95-17.9-7.25-7.5-17.65-7.75z" id="ai"/><path fill="#FFF3D5" d="M303.8 176.5q-10.25-.2-17.7 6.9-7.5 7.15-7.75 17.45-.2 10.3 6.9 17.85 7.15 7.5 17.4 7.75 10.35.25 17.85-6.95 7.5-7.15 7.75-17.5.25-10.3-6.95-17.75-7.15-7.5-17.5-7.75z" id="aj"/><path fill="#FFF3D4" d="M303.85 176.65q-10.2-.2-17.65 6.85-7.45 7.1-7.7 17.35-.2 10.25 6.85 17.7 7.1 7.5 17.3 7.7 10.25.25 17.75-6.85 7.45-7.1 7.65-17.35.25-10.25-6.85-17.7-7.1-7.45-17.35-7.7z" id="ak"/><path fill="#FFF2D3" d="M303.85 176.8q-10.15-.2-17.55 6.8-7.4 7.05-7.65 17.25-.2 10.15 6.85 17.6 7.05 7.45 17.15 7.65 10.2.25 17.6-6.8 7.45-7.1 7.65-17.25.25-10.15-6.8-17.55-7.05-7.45-17.25-7.7z" id="al"/><path fill="#FFF2D2" d="M303.85 177q-10.05-.25-17.4 6.75-7.35 6.95-7.6 17.05-.25 10.15 6.75 17.5 6.95 7.4 17.05 7.65 10.1.25 17.5-6.75 7.35-7 7.6-17.15.25-10.1-6.75-17.45t-17.15-7.6z" id="am"/><path fill="#FFF2D2" d="M303.85 177.15q-10-.25-17.3 6.65-7.3 6.95-7.55 17t6.7 17.4q6.9 7.35 16.9 7.6 10.1.25 17.4-6.7 7.35-7 7.6-17.05.25-10-6.7-17.3-6.95-7.35-17.05-7.6z" id="an"/><path fill="#FFF2D1" d="M303.9 177.3q-9.95-.25-17.2 6.65-7.3 6.9-7.55 16.85-.25 10 6.65 17.3 6.85 7.3 16.8 7.55 10 .25 17.3-6.65 7.3-6.9 7.55-16.9.25-10-6.65-17.25-6.9-7.3-16.9-7.55z" id="ao"/><path fill="#FFF2D0" d="M303.9 177.45q-9.85-.25-17.1 6.6-7.2 6.8-7.5 16.75-.25 9.9 6.6 17.15 6.85 7.25 16.7 7.5 9.9.3 17.15-6.55 7.25-6.9 7.5-16.8.3-9.9-6.55-17.15-6.85-7.25-16.8-7.5z" id="ap"/><path fill="#FFF2CF" d="M303.9 177.6q-9.8-.25-16.95 6.55-7.2 6.8-7.5 16.6-.25 9.85 6.55 17.1 6.8 7.2 16.6 7.45 9.85.3 17.05-6.5 7.2-6.85 7.45-16.7.3-9.85-6.5-17.05-6.8-7.15-16.7-7.45z" id="aq"/><path fill="#FFF1CF" d="M303.9 177.75q-9.7-.25-16.85 6.5-7.15 6.75-7.45 16.5-.25 9.8 6.5 16.95 6.75 7.2 16.45 7.45 9.85.25 17-6.5t7.4-16.55q.3-9.8-6.45-16.9-6.75-7.15-16.6-7.45z" id="ar"/><path fill="#FFF1CE" d="M303.95 177.95q-9.7-.3-16.8 6.4-7.05 6.7-7.35 16.4-.3 9.7 6.4 16.85 6.65 7.1 16.35 7.4 9.75.25 16.85-6.45 7.1-6.7 7.4-16.4.3-9.75-6.4-16.85-6.7-7.1-16.45-7.35z" id="as"/><path fill="#FFF1CD" d="M303.95 178.1q-9.65-.3-16.65 6.35-7.05 6.65-7.35 16.3-.3 9.65 6.35 16.7 6.65 7.1 16.25 7.4 9.65.25 16.75-6.4 7.05-6.65 7.35-16.3.3-9.65-6.35-16.75-6.65-7.05-16.35-7.3z" id="at"/><path fill="#FFF1CC" d="M303.95 178.25q-9.55-.3-16.55 6.3t-7.3 16.15q-.3 9.6 6.3 16.65 6.6 7.05 16.15 7.35 9.6.25 16.6-6.35 7.05-6.6 7.3-16.2.35-9.6-6.25-16.6-6.6-7-16.25-7.3z" id="au"/><path fill="#FFF1CB" d="M303.95 178.4q-9.5-.3-16.45 6.25-6.95 6.55-7.25 16.05-.3 9.5 6.25 16.5t16.05 7.3q9.5.3 16.5-6.25 6.95-6.55 7.25-16.1.35-9.5-6.2-16.5-6.6-6.95-16.15-7.25z" id="av"/><path fill="#FFF0CB" d="M304 178.55q-9.45-.3-16.35 6.2-6.9 6.5-7.25 15.95-.3 9.45 6.2 16.4 6.5 6.95 15.9 7.25 9.5.3 16.4-6.2 6.95-6.5 7.25-15.95.35-9.5-6.15-16.4-6.5-6.95-16-7.25z" id="aw"/><path fill="#FFF0CA" d="M304 178.75q-9.35-.35-16.25 6.1-6.85 6.45-7.2 15.85-.3 9.4 6.15 16.3t15.8 7.2q9.4.3 16.3-6.15t7.2-15.85q.35-9.4-6.1-16.3-6.5-6.85-15.9-7.15z" id="ax"/><path fill="#FFF0C9" d="M304 178.9q-9.3-.35-16.1 6.05-6.85 6.4-7.15 15.7-.35 9.35 6.05 16.2 6.4 6.85 15.7 7.2 9.35.3 16.2-6.1 6.8-6.4 7.15-15.75.35-9.35-6.05-16.15-6.4-6.85-15.8-7.15z" id="ay"/><path fill="#FFF0C8" d="M304 179.05q-9.2-.35-16 6-6.75 6.35-7.1 15.6-.35 9.25 6 16.1 6.35 6.8 15.6 7.15 9.25.3 16.05-6.05 6.8-6.4 7.15-15.65.3-9.25-6.05-16.05-6.35-6.8-15.65-7.1z" id="az"/><path fill="#FFF0C8" d="M304.05 179.2q-9.2-.35-15.9 5.95-6.75 6.3-7.1 15.5-.35 9.2 5.95 15.95 6.3 6.8 15.45 7.1 9.2.35 16-5.95 6.75-6.3 7.05-15.5.35-9.2-5.95-15.95-6.25-6.75-15.5-7.1z" id="aA"/><path fill="#FFEFC7" d="M304.05 179.35q-9.1-.35-15.8 5.9-6.7 6.25-7.05 15.4-.35 9.1 5.9 15.85 6.3 6.75 15.35 7.05 9.15.35 15.85-5.9 6.7-6.25 7.05-15.4.35-9.15-5.9-15.85-6.25-6.7-15.4-7.05z" id="aB"/><path fill="#FFEFC6" d="M304.05 179.5q-9.05-.3-15.7 5.9-6.6 6.15-7 15.2-.35 9.05 5.85 15.75 6.2 6.7 15.25 7.05 9.05.35 15.75-5.85 6.65-6.2 7-15.3.35-9.1-5.85-15.75-6.2-6.65-15.3-7z" id="aC"/><path fill="#FFEFC5" d="M304.05 179.7q-8.95-.35-15.55 5.8-6.6 6.1-7 15.1-.3 9 5.85 15.65 6.15 6.65 15.1 7 9 .35 15.65-5.85 6.6-6.15 6.95-15.15.35-9-5.8-15.6-6.15-6.6-15.2-6.95z" id="aD"/><path fill="#FFEFC5" d="M304.05 179.85q-8.9-.35-15.45 5.75-6.55 6.1-6.9 15-.35 8.95 5.75 15.55 6.05 6.6 14.95 6.95 8.95.35 15.55-5.75 6.6-6.1 6.95-15.05.35-8.95-5.75-15.55-6.1-6.55-15.1-6.9z" id="aE"/><path fill="#FFEFC4" d="M304.1 180q-8.85-.35-15.35 5.7-6.5 6-6.9 14.9-.35 8.85 5.7 15.4 6.05 6.6 14.85 6.95 8.9.35 15.45-5.75 6.5-6.05 6.85-14.9.4-8.9-5.65-15.4-6.05-6.55-14.95-6.9z" id="aF"/><path fill="#FFEEC3" d="M304.1 180.15q-8.75-.35-15.25 5.65-6.45 5.95-6.85 14.75-.35 8.8 5.65 15.35 6 6.5 14.75 6.85 8.8.4 15.3-5.65 6.5-6 6.85-14.8.4-8.8-5.6-15.3t-14.85-6.85z" id="aG"/><path fill="#FFEEC2" d="M304.1 180.3q-8.7-.35-15.15 5.6-6.4 5.9-6.8 14.65-.35 8.75 5.6 15.25 5.95 6.45 14.65 6.8 8.75.4 15.2-5.6 6.45-5.95 6.8-14.7.4-8.75-5.55-15.2-5.95-6.4-14.75-6.8z" id="aH"/><path fill="#FFEEC1" d="M304.1 180.45q-8.6-.35-15 5.55-6.4 5.9-6.8 14.55-.35 8.65 5.55 15.1 5.9 6.45 14.5 6.8 8.7.4 15.1-5.55 6.45-5.9 6.8-14.55.4-8.7-5.5-15.1t-14.65-6.8z" id="aI"/><path fill="#FFEEC1" d="M304.15 180.65q-8.6-.35-14.95 5.45-6.3 5.85-6.7 14.45-.35 8.6 5.45 15 5.85 6.4 14.4 6.75 8.6.4 15-5.5 6.4-5.85 6.75-14.45.4-8.65-5.45-15-5.9-6.35-14.5-6.7z" id="aJ"/><path fill="#FFEEC0" d="M304.15 180.8q-8.5-.35-14.8 5.4-6.3 5.8-6.7 14.3-.35 8.55 5.4 14.9 5.8 6.4 14.3 6.75 8.55.4 14.9-5.45 6.35-5.8 6.7-14.35.4-8.55-5.45-14.85-5.8-6.3-14.35-6.7z" id="aK"/><path fill="#FFEEBF" d="M304.15 180.95q-8.45-.35-14.7 5.35-6.25 5.75-6.65 14.2-.35 8.5 5.35 14.8 5.75 6.3 14.2 6.65 8.45.4 14.75-5.35 6.3-5.75 6.65-14.25.4-8.45-5.35-14.75-5.75-6.25-14.25-6.65z" id="aL"/><path fill="#FFEDBE" d="M304.15 181.1q-8.35-.35-14.55 5.3-6.25 5.7-6.65 14.1-.35 8.4 5.3 14.65 5.7 6.3 14.05 6.65 8.45.4 14.7-5.3t6.6-14.1q.4-8.45-5.3-14.7-5.7-6.2-14.15-6.6z" id="aM"/><path fill="#FFEDBD" d="M304.2 181.25q-8.35-.35-14.5 5.25-6.2 5.65-6.6 14-.35 8.35 5.25 14.55 5.65 6.25 13.95 6.6 8.35.4 14.55-5.25 6.25-5.65 6.6-14 .4-8.35-5.25-14.55-5.65-6.2-14-6.6z" id="aN"/><path fill="#FFEDBD" d="M304.2 181.45q-8.25-.4-14.4 5.15-6.15 5.6-6.55 13.85-.35 8.3 5.2 14.45 5.6 6.2 13.85 6.6 8.3.4 14.45-5.2 6.15-5.6 6.55-13.9.4-8.3-5.2-14.45-5.6-6.1-13.9-6.5z" id="aO"/><path fill="#FFEDBC" d="M304.2 181.6q-8.15-.4-14.25 5.1-6.1 5.55-6.5 13.75-.4 8.2 5.15 14.35 5.5 6.15 13.7 6.55 8.2.4 14.35-5.2 6.1-5.55 6.5-13.75.4-8.2-5.15-14.3-5.55-6.1-13.8-6.5z" id="aP"/><path fill="#FFEDBB" d="M304.2 181.75q-8.1-.4-14.15 5.1-6.05 5.45-6.45 13.6-.4 8.15 5.05 14.25 5.5 6.1 13.6 6.45 8.2.4 14.25-5.05 6.1-5.5 6.45-13.65.45-8.15-5.05-14.25-5.5-6.05-13.7-6.45z" id="aQ"/><path fill="#FFECBA" d="M304.25 181.9q-8.05-.4-14.05 5-6.05 5.45-6.45 13.55-.4 8.05 5.05 14.1 5.4 6.05 13.45 6.45 8.1.4 14.1-5.05 6.05-5.45 6.45-13.5.45-8.1-5-14.1-5.45-6.05-13.55-6.45z" id="aR"/><path fill="#FFECBA" d="M304.25 182.05q-8-.4-13.95 5-5.95 5.35-6.4 13.35-.4 8.05 5 14.05 5.35 6 13.35 6.4 8.05.4 14-5 6-5.35 6.4-13.4.45-8-4.95-14t-13.45-6.4z" id="aS"/><path fill="#FFECB9" d="M304.25 182.2q-7.9-.4-13.85 4.9-5.9 5.35-6.35 13.3-.4 7.95 4.95 13.9 5.35 6 13.25 6.4 7.95.4 13.9-4.95 5.95-5.35 6.35-13.3.45-7.95-4.9-13.85-5.35-5.95-13.35-6.4z" id="aT"/><path fill="#FFECB8" d="M304.25 182.4q-7.85-.45-13.7 4.85-5.9 5.25-6.35 13.15-.4 7.9 4.9 13.8 5.3 5.9 13.15 6.35 7.9.4 13.75-4.9 5.9-5.3 6.35-13.2.45-7.85-4.85-13.75-5.35-5.9-13.25-6.3z" id="aU"/><path fill="#FFECB7" d="M304.3 182.55q-7.8-.45-13.6 4.8-5.85 5.2-6.3 13.05-.45 7.8 4.8 13.7 5.25 5.85 13 6.3 7.85.4 13.7-4.85t6.3-13.05q.45-7.85-4.8-13.7t-13.1-6.25z" id="aV"/><path fill="#FFEBB6" d="M304.3 182.7q-7.7-.45-13.5 4.75-5.8 5.15-6.25 12.9-.45 7.75 4.75 13.6t12.9 6.25q7.75.45 13.6-4.75 5.8-5.2 6.2-12.95.5-7.75-4.7-13.55-5.25-5.85-13-6.25z" id="aW"/><path fill="#FFEBB6" d="M304.3 182.85q-7.65-.45-13.4 4.7-5.75 5.1-6.2 12.8-.45 7.7 4.7 13.5t12.8 6.2q7.7.45 13.45-4.7 5.8-5.15 6.2-12.85.45-7.7-4.7-13.45-5.15-5.75-12.85-6.2z" id="aX"/><path fill="#FFEBB5" d="M304.3 183q-7.55-.45-13.3 4.65-5.7 5.1-6.15 12.7-.45 7.6 4.65 13.35 5.1 5.75 12.7 6.2 7.6.45 13.35-4.65 5.7-5.1 6.15-12.75.45-7.6-4.65-13.35-5.1-5.7-12.75-6.15z" id="aY"/><path fill="#FFEBB4" d="M304.35 183.15q-7.55-.4-13.2 4.6-5.65 5.05-6.15 12.6-.45 7.55 4.6 13.25t12.55 6.15q7.55.45 13.25-4.6t6.15-12.6q.45-7.6-4.6-13.25-5.05-5.7-12.6-6.15z" id="aZ"/><path fill="#FFEBB3" d="M304.35 183.35q-7.45-.45-13.1 4.55-5.6 4.95-6.1 12.45-.45 7.45 4.55 13.15 5 5.65 12.45 6.1 7.5.45 13.15-4.55t6.1-12.5q.45-7.5-4.55-13.1-5-5.65-12.5-6.1z" id="ba"/><path fill="#FFEAB2" d="M304.35 183.5q-7.4-.45-12.95 4.45-5.6 4.95-6.05 12.35-.5 7.4 4.45 13.05 4.95 5.6 12.35 6.05 7.4.5 13-4.45t6.05-12.4q.5-7.45-4.45-13-4.95-5.6-12.4-6.05z" id="bb"/><path fill="#FFEAB2" d="M304.35 183.65q-7.3-.45-12.85 4.45-5.5 4.85-6 12.2t4.4 12.95q4.9 5.55 12.25 6 7.35.5 12.9-4.4 5.55-4.9 6-12.3.5-7.35-4.4-12.9-4.9-5.55-12.3-6z" id="bc"/><path fill="#FFEAB1" d="M304.4 183.8q-7.3-.45-12.75 4.35-5.5 4.85-6 12.15-.5 7.25 4.35 12.8 4.85 5.55 12.1 6 7.3.5 12.85-4.35 5.5-4.85 5.95-12.15.5-7.3-4.35-12.8-4.85-5.5-12.15-6z" id="bd"/><path fill="#FFEAB0" d="M304.4 183.95q-7.2-.45-12.65 4.35-5.45 4.75-5.95 12-.5 7.2 4.3 12.7 4.8 5.45 12 5.95 7.25.5 12.7-4.3 5.45-4.8 5.95-12.05.5-7.25-4.3-12.7-4.8-5.45-12.05-5.95z" id="be"/><path fill="#FFEAAF" d="M304.4 184.15q-7.1-.5-12.5 4.25-5.4 4.7-5.95 11.85-.5 7.15 4.25 12.6 4.75 5.45 11.9 5.95 7.15.45 12.6-4.3 5.4-4.75 5.9-11.9t-4.25-12.6q-4.75-5.4-11.95-5.85z" id="bf"/><path fill="#FFEAAF" d="M304.4 184.3q-7.05-.5-12.4 4.2-5.35 4.65-5.9 11.75-.45 7.1 4.25 12.5t11.75 5.9q7.1.45 12.5-4.25 5.35-4.7 5.85-11.8.5-7.1-4.2-12.45t-11.85-5.85z" id="bg"/><path fill="#FFE9AE" d="M304.45 184.45q-7-.5-12.35 4.15-5.3 4.6-5.8 11.65-.5 7 4.15 12.35t11.6 5.85q7.05.5 12.4-4.15 5.3-4.65 5.8-11.65.55-7.05-4.1-12.4-4.65-5.3-11.7-5.8z" id="bh"/><path fill="#FFE9AD" d="M304.45 184.6q-6.95-.5-12.2 4.1-5.25 4.6-5.8 11.55-.5 6.95 4.1 12.25 4.55 5.3 11.5 5.8 7 .5 12.25-4.1 5.3-4.6 5.8-11.55.55-6.95-4.05-12.25t-11.6-5.8z" id="bi"/><path fill="#FFE9AC" d="M304.45 184.75q-6.85-.5-12.1 4.05-5.2 4.5-5.75 11.4-.5 6.9 4.05 12.2 4.55 5.25 11.4 5.75 6.9.5 12.15-4.05t5.75-11.45q.55-6.9-4-12.15t-11.5-5.75z" id="bj"/><path fill="#FFE9AB" d="M304.45 184.9q-6.8-.5-12 4-5.15 4.5-5.7 11.3-.5 6.85 4 12.05 4.5 5.25 11.3 5.75 6.85.5 12.05-4 5.2-4.5 5.7-11.35.55-6.8-4-12-4.5-5.2-11.35-5.75z" id="bk"/><path fill="#FFE9AB" d="M304.5 185.1q-6.75-.5-11.9 3.9t-5.7 11.2q-.5 6.75 3.95 11.95 4.45 5.2 11.15 5.7 6.8.5 11.95-3.95 5.2-4.45 5.7-11.2.5-6.8-3.95-11.95-4.4-5.15-11.2-5.65z" id="bl"/><path fill="#FFE8AA" d="M304.5 185.25q-6.7-.5-11.8 3.85-5.1 4.4-5.65 11.1-.5 6.7 3.9 11.8 4.4 5.15 11.05 5.65 6.75.5 11.85-3.85 5.05-4.4 5.6-11.1.55-6.7-3.85-11.85-4.4-5.1-11.1-5.6z" id="bm"/><path fill="#FFE8A9" d="M304.5 185.4q-6.6-.5-11.65 3.8-5.05 4.3-5.6 10.95-.55 6.65 3.8 11.75t10.95 5.6q6.65.55 11.75-3.8 5.05-4.35 5.55-11 .55-6.65-3.8-11.7-4.35-5.05-11-5.6z" id="bn"/><path fill="#FFE8A8" d="M304.5 185.55q-6.55-.5-11.55 3.75-5 4.3-5.55 10.85-.55 6.55 3.75 11.6 4.3 5.1 10.85 5.6 6.6.55 11.6-3.8 5.05-4.25 5.55-10.85.55-6.55-3.75-11.6-4.3-5-10.9-5.55z" id="bo"/><path fill="#FFE8A8" d="M304.55 185.7q-6.5-.5-11.5 3.7-4.95 4.25-5.5 10.75-.55 6.5 3.7 11.5 4.25 5.05 10.75 5.55 6.5.55 11.5-3.7 4.95-4.25 5.5-10.75.55-6.55-3.7-11.5-4.25-5-10.75-5.55z" id="bp"/><path fill="#FFE8A7" d="M304.55 185.85q-6.4-.5-11.35 3.65-4.95 4.2-5.5 10.65-.5 6.4 3.65 11.4 4.2 5 10.6 5.5 6.45.5 11.4-3.7 4.95-4.15 5.5-10.6.55-6.45-3.65-11.4t-10.65-5.5z" id="bq"/><path fill="#FFE8A6" d="M304.55 186.05q-6.35-.55-11.25 3.55-4.9 4.15-5.45 10.5-.5 6.35 3.6 11.3 4.15 4.95 10.5 5.5 6.4.55 11.3-3.6t5.4-10.55q.55-6.4-3.55-11.25-4.15-4.9-10.55-5.45z" id="br"/><path fill="#FFE7A5" d="M304.55 186.2q-6.25-.55-11.1 3.5-4.9 4.1-5.45 10.4-.5 6.3 3.55 11.2 4.1 4.9 10.4 5.4 6.3.55 11.15-3.55 4.85-4.1 5.4-10.4.55-6.3-3.5-11.15-4.1-4.85-10.45-5.4z" id="bs"/><path fill="#FFE7A5" d="M304.6 186.35q-6.25-.55-11.05 3.45-4.8 4.05-5.35 10.3-.55 6.25 3.5 11.1t10.25 5.35q6.25.55 11.05-3.5 4.8-4 5.35-10.25.55-6.25-3.45-11.05-4.05-4.85-10.3-5.4z" id="bt"/><path fill="#FFE7A4" d="M304.6 186.5q-6.15-.55-10.9 3.45-4.8 3.95-5.35 10.15-.55 6.15 3.4 10.95 4 4.8 10.15 5.35 6.2.55 11-3.45 4.75-4 5.3-10.15.55-6.2-3.4-10.95-4-4.8-10.2-5.35z" id="bu"/><path fill="#FFE7A3" d="M304.6 186.65q-6.1-.55-10.8 3.35-4.75 3.95-5.3 10.05-.55 6.1 3.4 10.9 3.9 4.75 10 5.3 6.15.55 10.85-3.4 4.7-3.9 5.3-10.05.55-6.1-3.35-10.85-3.95-4.75-10.1-5.3z" id="bv"/><path fill="#FFE7A2" d="M304.6 186.85q-6-.6-10.65 3.3-4.7 3.85-5.3 9.9-.55 6.05 3.35 10.75 3.85 4.75 9.9 5.3 6.05.55 10.75-3.35 4.65-3.9 5.25-9.95.55-6.05-3.35-10.7-3.9-4.7-9.95-5.25z" id="bw"/><path fill="#FFE6A1" d="M304.65 187q-5.95-.55-10.6 3.25-4.65 3.8-5.25 9.8-.55 5.95 3.3 10.65 3.85 4.65 9.8 5.2 6 .6 10.6-3.25 4.65-3.8 5.2-9.8.6-6-3.2-10.65-3.85-4.65-9.85-5.2z" id="bx"/><path fill="#FFE6A1" d="M304.65 187.15q-5.9-.55-10.5 3.2-4.6 3.8-5.2 9.7-.55 5.9 3.25 10.5 3.75 4.65 9.65 5.2 5.95.6 10.55-3.2 4.6-3.8 5.15-9.7.6-5.9-3.2-10.55-3.75-4.6-9.7-5.15z" id="by"/><path fill="#FFE6A0" d="M304.65 187.3q-5.85-.55-10.35 3.15-4.6 3.7-5.15 9.55-.6 5.85 3.15 10.45t9.55 5.15q5.85.6 10.4-3.15 4.55-3.75 5.15-9.6.6-5.85-3.15-10.4-3.7-4.6-9.6-5.15z" id="bz"/><path fill="#FFE69F" d="M304.65 187.45q-5.75-.55-10.25 3.1-4.5 3.7-5.1 9.45-.6 5.8 3.1 10.3 3.7 4.55 9.45 5.15 5.8.55 10.3-3.15 4.5-3.65 5.1-9.45.6-5.75-3.1-10.3-3.7-4.5-9.5-5.1z" id="bA"/><path fill="#FFE69E" d="M304.7 187.6q-5.7-.55-10.15 3.05-4.5 3.65-5.1 9.35-.6 5.7 3.05 10.2 3.65 4.5 9.35 5.1 5.75.55 10.2-3.05 4.45-3.65 5.05-9.35.6-5.75-3.05-10.2-3.6-4.5-9.35-5.1z" id="bB"/><path fill="#FFE69E" d="M304.7 187.8q-5.65-.6-10.05 2.95-4.45 3.6-5.05 9.25-.6 5.65 3 10.1 3.6 4.45 9.2 5.05 5.7.55 10.1-3.05 4.4-3.55 5-9.2.65-5.65-2.95-10.1-3.6-4.45-9.25-5z" id="bC"/><path fill="#FFE59D" d="M304.7 187.95q-5.55-.6-9.95 2.9-4.35 3.5-5 9.1-.6 5.6 2.95 10 3.55 4.4 9.1 5 5.6.6 10-2.95 4.35-3.5 4.95-9.1.65-5.6-2.9-9.95-3.55-4.4-9.15-5z" id="bD"/><path fill="#FFE59C" d="M304.7 188.1q-5.5-.6-9.8 2.85-4.35 3.5-5 9-.6 5.5 2.9 9.9 3.5 4.35 9 4.95 5.55.6 9.9-2.9 4.3-3.5 4.9-9 .65-5.5-2.85-9.85t-9.05-4.95z" id="bE"/><path fill="#FFE59B" d="M304.75 188.25q-5.45-.6-9.75 2.85-4.3 3.4-4.9 8.85-.65 5.45 2.8 9.75 3.45 4.35 8.9 4.95 5.45.6 9.75-2.85 4.25-3.4 4.9-8.85.65-5.45-2.8-9.8-3.45-4.3-8.9-4.9z" id="bF"/><path fill="#FFE59B" d="M304.75 188.4q-5.35-.6-9.6 2.8-4.25 3.35-4.9 8.75-.65 5.35 2.75 9.65 3.4 4.25 8.75 4.9 5.4.6 9.7-2.8 4.2-3.35 4.85-8.75.65-5.4-2.75-9.65t-8.8-4.9z" id="bG"/><path fill="#FFE59A" d="M304.75 188.55q-5.3-.6-9.5 2.7-4.2 3.35-4.85 8.65-.65 5.3 2.7 9.55 3.35 4.25 8.65 4.9 5.35.6 9.55-2.75 4.2-3.3 4.85-8.65.65-5.3-2.7-9.55-3.35-4.2-8.7-4.85z" id="bH"/><path fill="#FFE499" d="M304.75 188.75q-5.2-.65-9.4 2.65-4.15 3.25-4.8 8.5-.65 5.25 2.65 9.45 3.3 4.2 8.55 4.8 5.25.65 9.45-2.65 4.1-3.3 4.75-8.55.65-5.25-2.65-9.4-3.25-4.2-8.55-4.8z" id="bI"/><path fill="#FFE498" d="M304.8 188.9q-5.15-.65-9.3 2.6-4.1 3.2-4.8 8.4-.65 5.15 2.6 9.3t8.45 4.8q5.2.65 9.3-2.6 4.1-3.2 4.75-8.4.65-5.2-2.6-9.35-3.2-4.1-8.4-4.75z" id="bJ"/><path fill="#FFE498" d="M304.8 189.05q-5.1-.65-9.2 2.55-4.05 3.15-4.75 8.3-.65 5.1 2.55 9.2 3.2 4.1 8.3 4.75 5.15.65 9.25-2.55 4.05-3.2 4.7-8.3.65-5.15-2.55-9.2-3.15-4.1-8.3-4.75z" id="bK"/><path fill="#FFE497" d="M304.8 189.2q-5-.65-9.05 2.5-4.05 3.15-4.7 8.15-.65 5.05 2.5 9.15 3.1 4.05 8.15 4.7 5.1.65 9.1-2.5 4-3.1 4.7-8.2.65-5.05-2.5-9.1t-8.2-4.7z" id="bL"/><path fill="#FFE496" d="M304.8 189.35q-4.95-.65-8.95 2.45-4 3.05-4.65 8.05-.65 5 2.4 9.05 3.1 4 8.1 4.65 5 .65 9-2.45 3.95-3.1 4.65-8.1.65-5-2.45-9-3.1-3.95-8.1-4.65z" id="bM"/><path fill="#FFE495" d="M304.85 189.5q-4.9-.65-8.85 2.4-3.95 3.05-4.65 7.95-.65 4.9 2.4 8.9t7.95 4.65q4.95.65 8.9-2.4 3.9-3.05 4.55-7.95.7-4.95-2.35-8.9t-7.95-4.65z" id="bN"/><path fill="#FFE395" d="M304.85 189.7q-4.85-.65-8.75 2.3-3.9 3-4.6 7.85-.65 4.85 2.3 8.8 3 3.9 7.85 4.55 4.9.65 8.8-2.3 3.85-3 4.55-7.85.7-4.9-2.3-8.8-3-3.9-7.85-4.55z" id="bO"/><path fill="#FFE394" d="M304.85 189.85q-4.75-.65-8.65 2.25-3.85 2.95-4.55 7.7-.65 4.8 2.3 8.7 2.95 3.9 7.7 4.55 4.85.65 8.7-2.25 3.8-2.95 4.5-7.75.7-4.8-2.25-8.7-2.95-3.85-7.75-4.5z" id="bP"/><path fill="#FFE393" d="M304.85 190q-4.7-.65-8.5 2.2-3.8 2.9-4.5 7.6-.7 4.7 2.2 8.6 2.85 3.85 7.6 4.5 4.75.65 8.55-2.2 3.8-2.9 4.5-7.65.7-4.75-2.2-8.55-2.9-3.8-7.65-4.5z" id="bQ"/><path fill="#FFE392" d="M304.9 190.15q-4.65-.65-8.45 2.15-3.75 2.85-4.45 7.5-.7 4.65 2.15 8.45 2.85 3.85 7.5 4.5 4.65.65 8.45-2.15 3.75-2.85 4.45-7.5.7-4.7-2.15-8.5-2.85-3.75-7.5-4.45z" id="bR"/><path fill="#FFE392" d="M304.9 190.3q-4.6-.65-8.3 2.1-3.75 2.8-4.45 7.4-.7 4.6 2.1 8.35 2.8 3.8 7.4 4.45 4.6.65 8.35-2.1 3.7-2.8 4.4-7.4.7-4.6-2.1-8.35t-7.4-4.45z" id="bS"/><path fill="#FFE291" d="M304.9 190.5q-4.5-.7-8.2 2-3.7 2.75-4.4 7.25-.7 4.55 2.05 8.25t7.25 4.4q4.55.7 8.25-2 3.65-2.75 4.35-7.3.7-4.55-2-8.25-2.75-3.65-7.3-4.35z" id="bT"/><path fill="#FFE290" d="M304.9 190.65q-4.45-.65-8.1 2-3.65 2.65-4.35 7.1-.7 4.45 2 8.15 2.7 3.65 7.15 4.35 4.5.65 8.1-2 3.65-2.65 4.35-7.15.7-4.45-1.95-8.1-2.7-3.65-7.2-4.35z" id="bU"/><path fill="#FFE28F" d="M304.95 190.8q-4.4-.65-8 1.95-3.65 2.6-4.35 7-.65 4.4 1.95 8.05 2.65 3.65 7.05 4.3 4.4.7 8-1.95 3.6-2.6 4.3-7 .7-4.4-1.9-8.05-2.65-3.6-7.05-4.3z" id="bV"/><path fill="#FFE28F" d="M304.95 190.95q-4.3-.65-7.85 1.9-3.6 2.55-4.3 6.9-.7 4.3 1.9 7.9 2.6 3.6 6.9 4.3 4.35.7 7.9-1.9 3.55-2.6 4.25-6.9.7-4.35-1.85-7.9-2.6-3.6-6.95-4.3z" id="bW"/><path fill="#FFE28E" d="M304.95 191.1q-4.25-.65-7.75 1.85-3.55 2.5-4.25 6.75-.7 4.25 1.85 7.85 2.5 3.55 6.75 4.25 4.3.7 7.85-1.85 3.5-2.5 4.2-6.8.7-4.25-1.85-7.8-2.5-3.55-6.8-4.25z" id="bX"/><path fill="#FFE28D" d="M304.95 191.25q-4.15-.7-7.65 1.8-3.5 2.45-4.2 6.65-.7 4.2 1.8 7.7 2.5 3.55 6.65 4.2 4.25.7 7.7-1.75 3.45-2.5 4.15-6.7.75-4.2-1.75-7.7-2.45-3.5-6.7-4.2z" id="bY"/><path fill="#FFE18C" d="M305 191.45q-4.15-.7-7.6 1.7-3.45 2.45-4.15 6.55-.7 4.15 1.75 7.6 2.45 3.45 6.55 4.15 4.15.7 7.6-1.7 3.4-2.4 4.1-6.55.75-4.15-1.7-7.6-2.4-3.45-6.55-4.15z" id="bZ"/><path fill="#FFE18C" d="M305 191.6q-4.05-.7-7.45 1.65-3.4 2.35-4.15 6.45-.7 4.05 1.7 7.45 2.4 3.45 6.45 4.15 4.1.7 7.45-1.65 3.4-2.4 4.1-6.45.75-4.1-1.65-7.5-2.35-3.4-6.45-4.1z" id="ca"/><path fill="#FFE18B" d="M305 191.75q-3.95-.7-7.35 1.6-3.35 2.35-4.1 6.3-.7 4 1.65 7.4 2.35 3.4 6.3 4.1 4.05.7 7.4-1.6 3.3-2.35 4.05-6.35.75-4-1.6-7.35-2.35-3.4-6.35-4.1z" id="cb"/><path fill="#FFE18A" d="M305 191.9q-3.9-.7-7.2 1.55-3.35 2.3-4.05 6.2-.75 3.95 1.55 7.25 2.3 3.35 6.2 4.1 3.95.7 7.25-1.55 3.3-2.3 4.05-6.25t-1.55-7.25q-2.3-3.35-6.25-4.05z" id="cc"/><path fill="#FFE18A" d="M305.05 192.05q-3.85-.7-7.15 1.5-3.25 2.25-4 6.1-.75 3.85 1.5 7.15 2.25 3.3 6.1 4.05 3.9.7 7.15-1.5 3.25-2.25 4-6.1.75-3.9-1.5-7.15-2.2-3.3-6.1-4.05z" id="cd"/><path fill="#FFE089" d="M305.05 192.25q-3.8-.75-7 1.4-3.25 2.2-4 6t1.45 7.05q2.2 3.25 6 3.95 3.8.75 7-1.45 3.2-2.15 3.95-5.95.75-3.85-1.4-7.05-2.2-3.25-6-3.95z" id="ce"/><path fill="#FFE088" d="M305.05 192.4q-3.7-.75-6.9 1.35-3.2 2.15-3.95 5.85-.75 3.75 1.4 6.95t5.85 3.95q3.8.75 6.95-1.35 3.15-2.15 3.9-5.9.75-3.75-1.35-6.95-2.15-3.2-5.9-3.9z" id="cf"/><path fill="#FFE087" d="M305.05 192.55q-3.65-.75-6.75 1.3-3.15 2.1-3.95 5.75-.75 3.65 1.35 6.85 2.1 3.15 5.75 3.9 3.7.75 6.85-1.35 3.1-2.05 3.85-5.75t-1.3-6.8q-2.1-3.15-5.8-3.9z" id="cg"/><path fill="#FFE087" d="M305.1 192.7q-3.6-.75-6.7 1.3-3.1 2-3.9 5.6-.75 3.6 1.3 6.75 2.05 3.1 5.65 3.85 3.65.75 6.7-1.25 3.05-2.05 3.85-5.65.75-3.65-1.25-6.75-2.05-3.1-5.65-3.85z" id="ch"/><path fill="#FFE086" d="M305.1 192.85q-3.55-.75-6.6 1.2-3.05 2-3.8 5.55-.8 3.5 1.2 6.6 2 3.1 5.55 3.85t6.6-1.25q3-1.95 3.8-5.5.75-3.55-1.2-6.65-2-3.05-5.55-3.8z" id="ci"/><path fill="#FFE085" d="M305.1 193q-3.45-.75-6.45 1.2-3 1.9-3.8 5.35-.8 3.5 1.15 6.5 1.95 3.05 5.4 3.8 3.5.8 6.5-1.15 3-1.9 3.75-5.4.8-3.5-1.15-6.5-1.9-3-5.4-3.8z" id="cj"/><path fill="#FFDF84" d="M305.1 193.2q-3.4-.8-6.35 1.1-2.95 1.85-3.75 5.25-.8 3.4 1.1 6.4 1.9 3 5.3 3.75 3.45.8 6.4-1.1 2.9-1.85 3.7-5.3.8-3.4-1.1-6.4-1.85-2.95-5.3-3.7z" id="ck"/><path fill="#FFDF84" d="M305.15 193.35q-3.35-.8-6.25 1.05-2.95 1.8-3.75 5.15-.8 3.35 1.05 6.3 1.85 2.95 5.2 3.7 3.35.8 6.25-1.05 2.9-1.8 3.7-5.15.8-3.35-1.05-6.3-1.8-2.95-5.15-3.7z" id="cl"/><path fill="#FFDF83" d="M305.15 193.5q-3.25-.8-6.15 1-2.9 1.75-3.7 5.05-.8 3.25 1.05 6.15 1.8 2.9 5.05 3.7 3.3.8 6.15-1 2.85-1.75 3.65-5.05.8-3.3-1-6.2-1.75-2.85-5.05-3.65z" id="cm"/><path fill="#FFDF82" d="M305.15 193.65q-3.2-.8-6.05.95-2.8 1.7-3.65 4.9-.8 3.2.95 6.1 1.75 2.85 5 3.65 3.2.8 6.05-.95 2.75-1.7 3.6-4.95.8-3.2-.95-6.05-1.7-2.85-4.95-3.65z" id="cn"/><path fill="#FFDF81" d="M305.15 193.8q-3.1-.8-5.9.9-2.8 1.65-3.6 4.8-.8 3.15.9 6 1.7 2.8 4.8 3.6 3.2.75 5.95-.9 2.8-1.7 3.6-4.85.8-3.15-.9-5.95-1.65-2.8-4.85-3.6z" id="co"/><path fill="#FFDF81" d="M305.15 193.95q-3.05-.8-5.8.85t-3.55 4.7q-.8 3.05.85 5.85 1.6 2.75 4.7 3.55 3.1.8 5.85-.8 2.7-1.6 3.5-4.7.85-3.1-.8-5.9-1.65-2.75-4.75-3.55z" id="cp"/><path fill="#FFDE80" d="M305.2 194.15q-3-.8-5.7.75t-3.55 4.6q-.8 3 .8 5.75 1.6 2.7 4.6 3.5 3.05.8 5.7-.8 2.65-1.55 3.5-4.55.85-3.05-.75-5.75-1.55-2.7-4.6-3.5z" id="cq"/><path fill="#FFDE7F" d="M305.2 194.3q-2.9-.8-5.6.7-2.65 1.5-3.5 4.45-.8 2.95.75 5.65t4.5 3.5q2.95.8 5.6-.7 2.65-1.55 3.45-4.5.85-2.95-.7-5.65-1.55-2.65-4.5-3.45z" id="cr"/><path fill="#FFDE7E" d="M305.2 194.45q-2.85-.8-5.5.65-2.65 1.5-3.45 4.35-.8 2.85.7 5.55 1.5 2.6 4.35 3.45 2.9.8 5.55-.7 2.6-1.45 3.4-4.35.85-2.9-.65-5.5-1.5-2.65-4.4-3.45z" id="cs"/><path fill="#FFDE7D" d="M305.2 194.6q-2.8-.8-5.35.65-2.6 1.4-3.45 4.2-.8 2.8.65 5.4 1.45 2.6 4.25 3.45 2.85.8 5.4-.6 2.55-1.45 3.4-4.25.85-2.85-.6-5.45-1.45-2.55-4.3-3.4z" id="ct"/><path fill="#FFDE7D" d="M305.25 194.75q-2.8-.8-5.3.55-2.55 1.4-3.35 4.15-.85 2.75.55 5.3t4.15 3.35q2.75.8 5.3-.55 2.45-1.35 3.3-4.1.85-2.75-.5-5.3t-4.15-3.4z" id="cu"/><path fill="#FFDE7C" d="M305.25 194.95q-2.7-.8-5.2.5-2.45 1.3-3.3 3.95-.85 2.7.5 5.2t4.05 3.35q2.7.85 5.15-.5 2.5-1.3 3.3-4 .85-2.7-.45-5.2-1.35-2.5-4.05-3.3z" id="cv"/><path fill="#FFDD7B" d="M305.25 195.1q-2.6-.8-5.05.45-2.45 1.25-3.3 3.85-.85 2.6.45 5.1 1.3 2.45 3.9 3.3 2.65.85 5.1-.45 2.4-1.25 3.25-3.9.85-2.6-.4-5.05-1.3-2.45-3.95-3.3z" id="cw"/><path fill="#FFDD7A" d="M305.25 195.25q-2.55-.8-4.95.4-2.4 1.2-3.25 3.75-.85 2.55.4 5 1.25 2.4 3.8 3.25 2.6.8 4.95-.4 2.4-1.2 3.25-3.75.85-2.6-.35-5-1.25-2.4-3.85-3.25z" id="cx"/><path fill="#FFDD7A" d="M305.3 195.4q-2.5-.85-4.85.35-2.4 1.15-3.25 3.65-.85 2.45.35 4.85 1.2 2.4 3.7 3.25 2.5.8 4.85-.35 2.35-1.15 3.2-3.65.85-2.5-.3-4.9-1.2-2.35-3.7-3.2z" id="cy"/><path fill="#FFDD79" d="M305.3 195.55q-2.45-.8-4.75.3-2.35 1.1-3.2 3.5-.8 2.45.3 4.8 1.15 2.35 3.6 3.2 2.45.85 4.75-.3 2.3-1.1 3.1-3.55.9-2.45-.25-4.75-1.1-2.35-3.55-3.2z" id="cz"/><path fill="#FFDD78" d="M305.3 195.7q-2.35-.85-4.6.25-2.3 1.05-3.15 3.4-.85 2.35.25 4.65 1.05 2.3 3.4 3.15 2.4.85 4.65-.2 2.25-1.1 3.1-3.45.9-2.35-.2-4.65-1.05-2.3-3.45-3.15z" id="cA"/><path fill="#FD7" d="M305.3 195.9q-2.3-.85-4.5.15-2.25 1-3.1 3.3-.85 2.3.2 4.55 1 2.25 3.3 3.1 2.35.85 4.55-.15 2.2-1 3.05-3.35.85-2.3-.15-4.55-1.05-2.25-3.35-3.05z" id="cB"/><path fill="#FFDC76" d="M305.35 196.05q-2.25-.85-4.45.1t-3.05 3.2q-.85 2.2.15 4.45 1 2.2 3.2 3.05 2.25.85 4.4-.1 2.2-1 3.05-3.2.85-2.25-.1-4.45-1-2.2-3.2-3.05z" id="cC"/><path fill="#FFDC76" d="M305.35 196.2q-2.15-.85-4.3.05T298 199.3q-.85 2.2.1 4.35.95 2.2 3.1 3.05 2.15.85 4.3-.05 2.1-.9 3-3.1.85-2.2-.05-4.35-.95-2.15-3.1-3z" id="cD"/><path fill="#FFDC75" d="M305.35 196.35q-2.1-.85-4.2 0t-3 2.95q-.85 2.1.05 4.25t2.95 3q2.15.85 4.2 0 2.1-.9 3-3 .85-2.1 0-4.2-.9-2.15-3-3z" id="cE"/><path fill="#FFDC74" d="M305.35 196.5q-2.05-.85-4.1-.05-2.05.8-2.95 2.85-.85 2.05 0 4.1.85 2.1 2.85 2.95 2.05.9 4.1.1 2.05-.85 2.9-2.9.9-2.05.1-4.1-.85-2.1-2.9-2.95z" id="cF"/><path fill="#FFDC73" d="M305.4 196.65q-2-.85-4-.1t-2.9 2.75q-.9 1.95-.1 4t2.75 2.9q2 .9 3.95.15 2-.8 2.9-2.75.9-2 .15-4-.8-2.05-2.75-2.95z" id="cG"/><path fill="#FFDB72" d="M305.4 196.85q-1.9-.9-3.9-.2-1.95.7-2.85 2.65-.9 1.9-.15 3.9t2.65 2.85q1.9.9 3.85.2 1.95-.75 2.85-2.65.9-1.9.2-3.9-.75-2-2.65-2.85z" id="cH"/><path fill="#FFDB71" d="M305.4 197q-1.85-.9-3.75-.25-1.95.65-2.85 2.5-.9 1.85-.2 3.8.7 1.95 2.5 2.85 1.9.85 3.8.2 1.9-.65 2.8-2.5.9-1.85.2-3.8-.65-1.95-2.5-2.8z" id="cI"/><path fill="#FFDB71" d="M305.4 197.15q-1.75-.9-3.65-.3-1.85.6-2.8 2.4-.9 1.75-.25 3.7.65 1.9 2.4 2.8 1.8.85 3.65.25 1.85-.65 2.8-2.4.9-1.75.3-3.65-.65-1.9-2.45-2.8z" id="cJ"/><path fill="#FFDB70" d="M305.45 197.3q-1.75-.9-3.55-.35-1.85.6-2.8 2.3-.9 1.7-.3 3.55.6 1.9 2.3 2.8 1.75.85 3.55.3 1.8-.55 2.7-2.25.95-1.7.35-3.6-.55-1.85-2.25-2.75z" id="cK"/><path fill="#FFDB6F" d="M305.45 197.45q-1.65-.9-3.45-.4-1.8.5-2.75 2.2-.9 1.6-.35 3.45.55 1.8 2.2 2.7 1.65.9 3.45.4 1.75-.55 2.65-2.15.95-1.65.4-3.45-.5-1.85-2.15-2.75z" id="cL"/><path fill="#FFDB6E" d="M305.45 197.65q-1.55-.95-3.3-.5-1.75.45-2.7 2.05-.95 1.55-.45 3.35.5 1.8 2.05 2.7 1.6.9 3.35.45 1.7-.45 2.65-2.05.95-1.55.45-3.35-.45-1.75-2.05-2.65z" id="cM"/><path fill="#FFDA6D" d="M305.45 197.8q-1.5-.95-3.2-.55-1.7.4-2.65 1.95-.95 1.5-.5 3.25.45 1.75 1.95 2.65 1.55.9 3.25.5 1.65-.45 2.6-1.95.95-1.5.5-3.2-.4-1.75-1.95-2.65z" id="cN"/><path fill="#FFDA6C" d="M305.5 197.95q-1.45-.95-3.15-.55-1.65.35-2.6 1.8-.95 1.4-.55 3.1.4 1.7 1.85 2.65 1.45.9 3.1.55 1.65-.35 2.6-1.8.95-1.45.55-3.15-.35-1.7-1.8-2.6z" id="cO"/><path fill="#FFDA6B" d="M307.2 200.7q-.3-1.65-1.7-2.6-1.4-.95-3-.65-1.65.35-2.6 1.75-.95 1.35-.6 3t1.75 2.6q1.4.9 3 .6 1.6-.35 2.55-1.7.95-1.4.6-3z" id="cP"/><path fill="#FFDA6B" d="M307.1 200.8q-.3-1.6-1.6-2.55-1.3-.9-2.9-.65-1.6.25-2.55 1.55-.95 1.3-.6 2.95.3 1.6 1.6 2.5 1.3.95 2.85.7 1.55-.3 2.5-1.6t.7-2.9z" id="cQ"/><path fill="#FFDA6A" d="M307 200.9q-.2-1.55-1.5-2.5-1.25-.9-2.8-.7-1.55.2-2.5 1.45t-.7 2.8q.25 1.55 1.5 2.5t2.8.7q1.5-.2 2.45-1.45 1-1.25.75-2.8z" id="cR"/><path fill="#FFDA69" d="M306.9 201.05q-.2-1.5-1.35-2.45-1.2-.95-2.7-.8-1.5.15-2.45 1.35-.95 1.15-.75 2.7.15 1.5 1.35 2.45 1.2.95 2.7.8 1.45-.2 2.4-1.35.95-1.2.8-2.7z" id="cS"/><path fill="#FFD968" d="M306.8 201.15q-.1-1.45-1.25-2.4t-2.55-.85q-1.5.1-2.45 1.25-.95 1.1-.8 2.6.1 1.45 1.25 2.4 1.1.95 2.55.8 1.4-.1 2.4-1.2.95-1.1.85-2.6z" id="cT"/><path fill="#FFD967" d="M303.1 198q-1.45.05-2.4 1.1t-.85 2.5q.1 1.45 1.15 2.4 1.05.95 2.45.85 1.4-.05 2.35-1.1.95-1.05.9-2.5-.1-1.4-1.15-2.35-1.05-.95-2.45-.9z" id="cU"/><path fill="#FFD966" d="M303.2 198.1q-1.35 0-2.35 1-.95.95-.9 2.35 0 1.4 1 2.35 1 .95 2.35.95t2.3-1q1-.95 1-2.35-.05-1.4-1.05-2.35-1-.95-2.35-.95z" id="cV"/><path fill="#FFD965" d="M303.35 198.2q-1.35-.05-2.35.9-.95.9-.95 2.25t.9 2.3q.95.95 2.25 1 1.25.05 2.25-.85 1-.95 1.05-2.3 0-1.3-.9-2.3-.95-.95-2.25-1z" id="cW"/><path fill="#FFD964" d="M303.45 198.3q-1.3-.1-2.3.8-.95.85-1 2.15-.05 1.3.8 2.25.85.95 2.1 1.05 1.25.1 2.25-.75t1.1-2.15q.05-1.3-.8-2.3-.9-.95-2.15-1.05z" id="cX"/><path fill="#FFD963" d="M303.6 198.4q-1.25-.15-2.25.65-.95.8-1.1 2.05-.1 1.25.7 2.25.8 1 2 1.1 1.25.15 2.2-.65 1-.8 1.15-2.05.1-1.25-.7-2.2-.8-1-2-1.15z" id="cY"/><path fill="#FFD862" d="M303.7 198.5q-1.2-.2-2.2.55-.95.7-1.15 1.95-.15 1.2.55 2.2.75.95 1.95 1.15 1.15.15 2.15-.55 1-.7 1.2-1.9.15-1.2-.6-2.2-.7-1-1.9-1.2z" id="cZ"/><path fill="#FFD862" d="M303.8 198.65q-1.15-.25-2.15.4-.95.65-1.2 1.85-.2 1.15.45 2.15.7 1 1.8 1.2 1.15.25 2.15-.4t1.25-1.85q.2-1.15-.45-2.15-.7-1-1.85-1.2z" id="da"/><path fill="#FFD861" d="M303.95 198.7q-1.1-.25-2.15.35-.95.55-1.25 1.7-.25 1.1.35 2.1t1.7 1.3q1.05.25 2.05-.3 1.05-.6 1.35-1.75.25-1.1-.35-2.1t-1.7-1.3z" id="db"/><path fill="#FFD860" d="M304.05 198.85q-1.05-.35-2.1.15-.95.5-1.25 1.65-.35 1.05.2 2.05.55 1 1.6 1.35 1.05.3 2-.2 1.05-.5 1.35-1.6.35-1.05-.2-2.1-.55-1-1.6-1.3z" id="dc"/><path fill="#FFD85F" d="M304.2 198.95q-1.05-.4-2.05.05-1 .45-1.4 1.5-.35 1.05.1 2.05.5 1 1.5 1.35 1 .4 2-.05 1.05-.45 1.4-1.5.4-1-.1-2-.45-1-1.45-1.4z" id="dd"/><path fill="#FFD85E" d="M304.3 199.05q-.95-.45-2-.05-1 .35-1.4 1.4-.45 1-.05 2t1.4 1.45q.95.4 1.95.05 1.05-.4 1.45-1.4.45-1 .05-2t-1.4-1.45z" id="de"/><path fill="#FFD75D" d="M304.45 199.15q-.95-.5-2-.15-1 .3-1.45 1.25-.5 1-.15 2t1.25 1.45q.95.5 1.95.2 1.05-.35 1.5-1.3.5-.95.15-1.95t-1.25-1.5z" id="df"/><path fill="#FFD75C" d="M304.55 199.25q-.9-.55-1.95-.3-1 .25-1.5 1.2-.5.9-.25 1.9.25 1 1.15 1.55.9.55 1.85.3 1.05-.25 1.6-1.15.5-.9.25-1.95-.25-1-1.15-1.55z" id="dg"/><path fill="#FFD75B" d="M304.7 199.35q-.85-.6-1.95-.4-1 .2-1.55 1.05-.6.9-.4 1.9.25 1.05 1.05 1.6.85.6 1.85.4 1.1-.2 1.65-1.05.6-.85.35-1.9-.2-1-1-1.6z" id="dh"/><path fill="#FFD75A" d="M304.8 199.45q-.85-.65-1.9-.5-1 .1-1.6.95-.6.8-.5 1.85.15 1 .95 1.65.8.65 1.8.55 1.05-.15 1.7-1 .6-.8.5-1.85-.15-1.05-.95-1.65z" id="di"/><path fill="#FFD759" d="M304.9 199.55q-.75-.65-1.8-.6-1.05.05-1.7.85-.65.75-.6 1.8.1 1.05.85 1.7.75.75 1.75.65 1.1-.05 1.75-.85.7-.75.6-1.8-.05-1.05-.85-1.75z" id="dj"/><path fill="#FFD758" d="M301.5 203.2q.7.75 1.75.75t1.8-.75q.7-.7.7-1.75t-.7-1.8q-.7-.75-1.8-.75-1.05 0-1.75.75t-.7 1.8q0 1.05.7 1.75z" id="dk"/><path fill="url(#a)" d="M365 263.05q0-25.65-18.2-43.85Q328.6 201 303 201q-25.55 0-43.7 18.2-18.2 18.2-18.2 43.85 0 25.6 18.2 43.8 18.15 18.2 43.7 18.2 25.6 0 43.8-18.2 18.2-18.2 18.2-43.8z" id="dl"/><path fill="#E5A62F" d="M326.25 246.4q10.5-2.65 17.6-7.3 2.95-2 4.9-3.95.9-.9 1.05-1.15 1.7-1.85 2.4-3.35.8-1.6 1-3.95-2-2.8-4.25-5.25 2.1 5.6-1.45 9.85l-1.2 1.3q-1.85 1.75-4.4 3.55-6.65 4.4-16.65 6.9-10.35 2.6-22 2.6-13.1 0-24.15-3.25-3.05-.85-5-1.6-5.95-2.25-10.2-5.25-4.35-3.05-6.45-6.55l-.2-.85q-.4-1.35-.4-2.65 0-2.45 1.25-5.05-2.65 2.7-4.75 5.7 0 1.4.4 2.85l.15.75.25.55v.1h.05l.05.2v.05q4.85 8.2 18.6 13.5 2.6.95 5.25 1.7 11.35 3.3 25.15 3.3 12.2 0 23-2.75z" id="dm"/><path fill="#ECB22E" d="M359.75 268.75q-9.85 6.7-24.45 10.55-15.1 3.95-32.05 3.95-18.9 0-35-4.85-2.65-.7-7.35-2.45-12.3-4.75-19.8-11.8.05 5.35 1.2 11.15 11.2 9.35 27.5 14.3 15.35 4.7 32.75 4.7 17.15 0 32.7-4.5 16.1-4.65 27.25-13.25.25-.25 1.3-.95 1.15-5.8 1.2-11-2.75 2.5-5.25 4.15m2.45-19.5q-8.1 9.65-24.5 15.25-15.65 5.3-34.2 5.4-18.95.1-34.65-5.25-17.05-5.8-25.9-16.75-1.35 5.45-1.8 11.2 7.05 7.95 20.95 13.4 3.6 1.35 7 2.4 15.9 4.65 34.15 4.65 16.5 0 31.1-3.8 14.1-3.65 23.55-10.1 3.75-2.65 6.15-5.1l.9-.95q-.4-6.1-1.75-11.5l-1 1.15z" id="dn"/><path fill="url(#b)" d="M346.2 238.25q-5.7-10.95-17.7-19.1-11.15-7.5-16.85-10.3-10.1-4.95-19.2-4.95-5.55 0-10.95 1-17.9 6.75-29.05 22.45-11.35 16.05-11.35 35.7 0 20.5 12.25 36.95 12 16.15 31.1 22.2 4.1.55 8 .55 24.45 0 41.9-17.45 17.4-17.45 17.4-41.95 0-14.35-5.55-25.1z" id="do"/><path fill="url(#c)" d="M319.35 234.25q-7.5 2.2-16.1 2.2-8.55 0-16.05-2.2-7.3-2.15-11.6-5.75 3.65 4.35 11.05 6.95 7.55 2.7 16.6 2.7 9.1 0 16.7-2.7 7.4-2.6 11.1-6.95-4.45 3.65-11.7 5.75z" id="dp"/><path fill="url(#d)" d="M345.85 237.65q-.7-1.45-1.8-3.1-.85.8-2.15 1.6-6.65 4.4-16.65 6.9-10.35 2.6-22 2.6-13.1 0-24.15-3.25-3.05-.85-5-1.6-10.4-3.9-15.3-9.85-1.1-1.35-1.5-2.5-.45-1.2-.45-2.95 0-2.45 1.25-5.05l-.5.55h-.1l-.7.9-.1.05-.6.8-.1.05q-.5.5-.7.8 0 .1-.1.1l-.65.85h-.05l-.65.85q0 .1-.1.1l-.4.65q.1 2.35.75 3.9.55 1.5 2.1 3.35 5.3 6.4 16.65 10.75 2.6.95 5.25 1.7 11.35 3.3 25.15 3.3 12.2 0 23-2.75 10.5-2.65 17.6-7.3l2-1.45z" id="dq"/><path fill="url(#e)" d="M347.5 285.3q2.1-5 3.35-11.55-9.6 4.5-21.65 6.95-12.5 2.55-25.95 2.55-18.9 0-35-4.85-2.65-.7-7.35-2.45-12.3-4.75-19.8-11.8v1.35l.05.3v1.25q.1.25.1.9l.2 1.75q0 .5.1.8l.25 2.3q.15.45.15.85.1.15.1.45.15.6.15.7l.1.5q19.2 16.05 50.45 18.6 30.1 2.45 54.75-8.6m4.05-27.2q-10.8 6.55-26.2 9.6-15.15 3-30.95 1.9-16.4-1.15-29.5-6.4-14.2-5.7-21.95-15.3v.05q-.6 2.3-1.15 5.75l-.05.2v.25q-.15.5-.15.55l-.05.65q0 .4-.1.6l-.05 1.2q-.1.25-.1.75l-.05.4q0 .5-.1.8 7.05 7.95 20.95 13.4 3.6 1.35 7 2.4 15.9 4.65 34.15 4.65 13.85 0 26.55-2.75 12.25-2.6 21.7-7.4.25-2.5.25-6.05 0-2.9-.2-5.25z" id="dr"/><path fill="url(#f)" d="M310.2 216.4q4.35 0 6.8-1.4.6-.35 5.1 2.5-7.25-7.15-8.6-7.7-1.5-.6-12.35-.6-21.75 0-37.25 15.55-15.55 15.5-15.55 37.4 0 13.8 6.75 25.8 6.6 11.65 17.9 18.8-7.4-7.3-11.45-16.8-4.2-9.85-4.2-20.6 0-21.9 15.55-37.4 15.5-15.55 37.3-15.55z" id="ds"/><path fill="url(#g)" d="M335.65 218.35q0-6.2-9.55-10.65-9.65-4.45-23.1-4.45-13.4 0-22.95 4.45-9.55 4.45-9.55 10.65 0 6.25 9.55 10.75 9.55 4.45 22.95 4.45 13.5 0 23.1-4.45 9.55-4.5 9.55-10.75z" id="dt"/><path fill="url(#h)" d="M332.3 223.9q.45-1.25.45-2.5 0-5.95-8.65-10.15t-20.85-4.2q-12.15 0-20.75 4.2-8.65 4.2-8.65 10.15 0 1.25.45 2.5 2.75 4.55 10.7 7.45 8.05 2.9 18.25 2.9t18.3-2.9q8-2.9 10.75-7.45z" id="du"/><path fill="#FFEDAC" d="M295.45 222.85q3.25 1.55 7.8 1.55 4.65 0 7.95-1.55 3.25-1.55 3.25-3.85 0-2.2-3.25-3.8-3.3-1.6-7.95-1.6-4.55 0-7.8 1.6-3.3 1.6-3.3 3.8 0 2.25 3.3 3.85z" id="dv"/><path fill="url(#i)" d="M296.25 221.85q2.95 1.4 7 1.4 4.15 0 7.1-1.4 2.9-1.4 2.9-3.4 0-2.05-2.9-3.45-2.95-1.45-7.1-1.45-4.05 0-7 1.45t-2.95 3.45q0 2 2.95 3.4z" id="dw"/><path fill="url(#j)" d="M311.35 218.2q0-1.5-2.35-2.55-2.35-1.05-5.75-1.05-3.35 0-5.75 1.05-2.35 1.05-2.35 2.55 0 .95 1.05 1.75.4-1.25 2.4-2.1 2-.85 4.65-.85 2.65 0 4.75.85 2 .85 2.45 2.1.9-.7.9-1.75z" id="dx"/><path fill="url(#k)" d="M309.15 222.3q.7-.7.7-1.4 0-1.3-1.95-2.25-1.9-.95-4.65-.95-2.7 0-4.6.95-1.9.95-1.9 2.25 0 .75.75 1.4 2.45.95 5.75.95t5.9-.95z" id="dy"/><path fill="url(#l)" d="M303.15 188.7q-.4 0-1.15 1.85-3.25 8.05-3.75 15.2-.15 4.1 1.1 6.7 1.35 2.8 3.9 2.8 2.6 0 3.95-2.8 1.3-2.65 1-6.7-.35-6.95-3.9-15.2-.75-1.85-1.15-1.85z" id="dz"/><path fill="#7A2629" d="M303.25 209.2q-.6 0-.6.75v9.25q0 .75.6.75.65 0 .65-.75v-9.25q0-.75-.65-.75z" id="dA"/><path fill="#F1B82D" d="M357.4 292.8q-.9 1.2-1.55 1.8-2.3 2.7-5.4 4.9-8.25 6.15-20.5 9.65-12.7 3.65-27.05 3.65-13.8 0-25.3-3.15-4.3-1.1-7.2-2.25-13.65-4.85-20.95-13.25 3.55 6 8.55 11.4 5 3 11.2 5.25 3.75 1.35 7.45 2.3 12.55 3.3 26.25 3.3 13.25 0 25.3-3.05 11.6-2.95 20.3-8.25 5.2-5.55 8.9-12.3z" id="dB"/><path fill="#FFE284" d="M265.7 240.9q1.3-2 2.05-2.95-5.9-3.15-9.1-7.15-1.25 1.7-2.05 3.05 3.35 3.8 9.1 7.05z" id="dC"/><path fill="#FFDB6F" d="M260.1 286.1q-1.95-5.95-2.45-11.5-4.55-2-8.7-4.45 1 6.35 3.4 12.05 3.7 2.15 7.75 3.9m-2.75-16.75q0-4.5.8-9.3-5.35-2.9-9.2-6.15-.6 4.65-.6 8.25 0 2.2.1 3.3 3.8 2.65 8.9 5.05v-1.15z" id="dD"/><path fill="url(#m)" d="M302.9 316.4q9.8 0 19.25-1.8 3.9-2.15 7.95-5.45-12.75 3.65-27.2 3.65-13.8 0-25.3-3.15-4.3-1.1-7.2-2.25-13.65-4.85-20.95-13.25 1.15 1.95 2.8 4.35l.15.15.5.8.15.1q0 .1.15.25l.35.55.3.3.7.95q.25.2.5.55l.3.45.45.5q.3.3.35.45l.45.4q.05.15.4.5l1 1.1q5 3 11.2 5.25 3.75 1.35 7.45 2.3 12.55 3.3 26.25 3.3z" id="dE"/></defs><use xlink:href="#n"/><use xlink:href="#o" transform="translate(-386.43 -262.804) scale(1.74359)"/><use xlink:href="#p" transform="translate(-386.43 -262.804) scale(1.74359)"/><use xlink:href="#q" transform="translate(-386.43 -262.804) scale(1.74359)"/><use xlink:href="#r" transform="translate(-386.43 -262.804) scale(1.74359)"/><use xlink:href="#s" transform="translate(-386.43 -262.804) scale(1.74359)"/><use xlink:href="#t" transform="translate(-386.43 -262.804) scale(1.74359)"/><use xlink:href="#u" transform="translate(-386.43 -262.804) scale(1.74359)"/><use xlink:href="#v" transform="translate(-386.43 -262.804) scale(1.74359)"/><use xlink:href="#w" transform="translate(-386.43 -262.804) scale(1.74359)"/><use xlink:href="#x" transform="translate(-386.43 -262.804) scale(1.74359)"/><use xlink:href="#y" transform="translate(-386.43 -262.804) scale(1.74359)"/><use xlink:href="#z" transform="translate(-386.43 -262.804) scale(1.74359)"/><use xlink:href="#A" transform="translate(-386.43 -262.804) scale(1.74359)"/><use xlink:href="#B" transform="translate(-386.43 -262.804) scale(1.74359)"/><use xlink:href="#C" transform="translate(-386.43 -262.804) scale(1.74359)"/><use xlink:href="#D" transform="translate(-386.43 -262.804) scale(1.74359)"/><use xlink:href="#E" transform="translate(-386.43 -262.804) scale(1.74359)"/><use xlink:href="#F" transform="translate(-386.43 -262.804) scale(1.74359)"/><use xlink:href="#G" transform="translate(-386.43 -262.804) scale(1.74359)"/><use xlink:href="#H" transform="translate(-386.43 -262.804) scale(1.74359)"/><use xlink:href="#I" transform="translate(-386.43 -262.804) scale(1.74359)"/><use xlink:href="#J" transform="translate(-386.43 -262.804) scale(1.74359)"/><use xlink:href="#K" transform="translate(-386.43 -262.804) scale(1.74359)"/><use xlink:href="#L" transform="translate(-386.43 -262.804) scale(1.74359)"/><use xlink:href="#M" transform="translate(-386.43 -262.804) scale(1.74359)"/><use xlink:href="#N" transform="translate(-386.43 -262.804) scale(1.74359)"/><use xlink:href="#O" transform="translate(-386.43 -262.804) scale(1.74359)"/><use xlink:href="#P" transform="translate(-386.43 -262.804) scale(1.74359)"/><use xlink:href="#Q" transform="translate(-386.43 -262.804) scale(1.74359)"/><use xlink:href="#R" transform="translate(-386.43 -262.804) scale(1.74359)"/><use xlink:href="#S" transform="translate(-386.43 -262.804) scale(1.74359)"/><use xlink:href="#T" transform="translate(-386.43 -262.804) scale(1.74359)"/><use xlink:href="#U" transform="translate(-386.43 -262.804) scale(1.74359)"/><use xlink:href="#V" transform="translate(-386.43 -262.804) scale(1.74359)"/><use xlink:href="#W" transform="translate(-386.43 -262.804) scale(1.74359)"/><use xlink:href="#X" transform="translate(-386.43 -262.804) scale(1.74359)"/><use xlink:href="#Y" transform="translate(-386.43 -262.804) scale(1.74359)"/><use xlink:href="#Z" transform="translate(-386.43 -262.804) scale(1.74359)"/><use xlink:href="#aa" transform="translate(-386.43 -262.804) scale(1.74359)"/><use xlink:href="#ab" transform="translate(-386.43 -262.804) scale(1.74359)"/><use xlink:href="#ac" transform="translate(-386.43 -262.804) scale(1.74359)"/><use xlink:href="#ad" transform="translate(-386.43 -262.804) scale(1.74359)"/><use xlink:href="#ae" transform="translate(-386.43 -262.804) scale(1.74359)"/><use xlink:href="#af" transform="translate(-386.43 -262.804) scale(1.74359)"/><use xlink:href="#ag" transform="translate(-386.43 -262.804) scale(1.74359)"/><use xlink:href="#ah" transform="translate(-386.43 -262.804) scale(1.74359)"/><use xlink:href="#ai" transform="translate(-386.43 -262.804) scale(1.74359)"/><use xlink:href="#aj" transform="translate(-386.43 -262.804) scale(1.74359)"/><use xlink:href="#ak" transform="translate(-386.43 -262.804) scale(1.74359)"/><use xlink:href="#al" transform="translate(-386.43 -262.804) scale(1.74359)"/><use xlink:href="#am" transform="translate(-386.43 -262.804) scale(1.74359)"/><use xlink:href="#an" transform="translate(-386.43 -262.804) scale(1.74359)"/><use xlink:href="#ao" transform="translate(-386.43 -262.804) scale(1.74359)"/><use xlink:href="#ap" transform="translate(-386.43 -262.804) scale(1.74359)"/><use xlink:href="#aq" transform="translate(-386.43 -262.804) scale(1.74359)"/><use xlink:href="#ar" transform="translate(-386.43 -262.804) scale(1.74359)"/><use xlink:href="#as" transform="translate(-386.43 -262.804) scale(1.74359)"/><use xlink:href="#at" transform="translate(-386.43 -262.804) scale(1.74359)"/><use xlink:href="#au" transform="translate(-386.43 -262.804) scale(1.74359)"/><use xlink:href="#av" transform="translate(-386.43 -262.804) scale(1.74359)"/><use xlink:href="#aw" transform="translate(-386.43 -262.804) scale(1.74359)"/><use xlink:href="#ax" transform="translate(-386.43 -262.804) scale(1.74359)"/><use xlink:href="#ay" transform="translate(-386.43 -262.804) scale(1.74359)"/><use xlink:href="#az" transform="translate(-386.43 -262.804) scale(1.74359)"/><use xlink:href="#aA" transform="translate(-386.43 -262.804) scale(1.74359)"/><use xlink:href="#aB" transform="translate(-386.43 -262.804) scale(1.74359)"/><use xlink:href="#aC" transform="translate(-386.43 -262.804) scale(1.74359)"/><use xlink:href="#aD" transform="translate(-386.43 -262.804) scale(1.74359)"/><use xlink:href="#aE" transform="translate(-386.43 -262.804) scale(1.74359)"/><use xlink:href="#aF" transform="translate(-386.43 -262.804) scale(1.74359)"/><use xlink:href="#aG" transform="translate(-386.43 -262.804) scale(1.74359)"/><use xlink:href="#aH" transform="translate(-386.43 -262.804) scale(1.74359)"/><use xlink:href="#aI" transform="translate(-386.43 -262.804) scale(1.74359)"/><use xlink:href="#aJ" transform="translate(-386.43 -262.804) scale(1.74359)"/><use xlink:href="#aK" transform="translate(-386.43 -262.804) scale(1.74359)"/><use xlink:href="#aL" transform="translate(-386.43 -262.804) scale(1.74359)"/><use xlink:href="#aM" transform="translate(-386.43 -262.804) scale(1.74359)"/><use xlink:href="#aN" transform="translate(-386.43 -262.804) scale(1.74359)"/><use xlink:href="#aO" transform="translate(-386.43 -262.804) scale(1.74359)"/><use xlink:href="#aP" transform="translate(-386.43 -262.804) scale(1.74359)"/><use xlink:href="#aQ" transform="translate(-386.43 -262.804) scale(1.74359)"/><use xlink:href="#aR" transform="translate(-386.43 -262.804) scale(1.74359)"/><use xlink:href="#aS" transform="translate(-386.43 -262.804) scale(1.74359)"/><use xlink:href="#aT" transform="translate(-386.43 -262.804) scale(1.74359)"/><use xlink:href="#aU" transform="translate(-386.43 -262.804) scale(1.74359)"/><use xlink:href="#aV" transform="translate(-386.43 -262.804) scale(1.74359)"/><use xlink:href="#aW" transform="translate(-386.43 -262.804) scale(1.74359)"/><use xlink:href="#aX" transform="translate(-386.43 -262.804) scale(1.74359)"/><use xlink:href="#aY" transform="translate(-386.43 -262.804) scale(1.74359)"/><use xlink:href="#aZ" transform="translate(-386.43 -262.804) scale(1.74359)"/><use xlink:href="#ba" transform="translate(-386.43 -262.804) scale(1.74359)"/><use xlink:href="#bb" transform="translate(-386.43 -262.804) scale(1.74359)"/><use xlink:href="#bc" transform="translate(-386.43 -262.804) scale(1.74359)"/><use xlink:href="#bd" transform="translate(-386.43 -262.804) scale(1.74359)"/><use xlink:href="#be" transform="translate(-386.43 -262.804) scale(1.74359)"/><use xlink:href="#bf" transform="translate(-386.43 -262.804) scale(1.74359)"/><use xlink:href="#bg" transform="translate(-386.43 -262.804) scale(1.74359)"/><use xlink:href="#bh" transform="translate(-386.43 -262.804) scale(1.74359)"/><use xlink:href="#bi" transform="translate(-386.43 -262.804) scale(1.74359)"/><use xlink:href="#bj" transform="translate(-386.43 -262.804) scale(1.74359)"/><use xlink:href="#bk" transform="translate(-386.43 -262.804) scale(1.74359)"/><use xlink:href="#bl" transform="translate(-386.43 -262.804) scale(1.74359)"/><use xlink:href="#bm" transform="translate(-386.43 -262.804) scale(1.74359)"/><use xlink:href="#bn" transform="translate(-386.43 -262.804) scale(1.74359)"/><use xlink:href="#bo" transform="translate(-386.43 -262.804) scale(1.74359)"/><use xlink:href="#bp" transform="translate(-386.43 -262.804) scale(1.74359)"/><use xlink:href="#bq" transform="translate(-386.43 -262.804) scale(1.74359)"/><use xlink:href="#br" transform="translate(-386.43 -262.804) scale(1.74359)"/><use xlink:href="#bs" transform="translate(-386.43 -262.804) scale(1.74359)"/><use xlink:href="#bt" transform="translate(-386.43 -262.804) scale(1.74359)"/><use xlink:href="#bu" transform="translate(-386.43 -262.804) scale(1.74359)"/><use xlink:href="#bv" transform="translate(-386.43 -262.804) scale(1.74359)"/><use xlink:href="#bw" transform="translate(-386.43 -262.804) scale(1.74359)"/><use xlink:href="#bx" transform="translate(-386.43 -262.804) scale(1.74359)"/><use xlink:href="#by" transform="translate(-386.43 -262.804) scale(1.74359)"/><use xlink:href="#bz" transform="translate(-386.43 -262.804) scale(1.74359)"/><use xlink:href="#bA" transform="translate(-386.43 -262.804) scale(1.74359)"/><use xlink:href="#bB" transform="translate(-386.43 -262.804) scale(1.74359)"/><use xlink:href="#bC" transform="translate(-386.43 -262.804) scale(1.74359)"/><use xlink:href="#bD" transform="translate(-386.43 -262.804) scale(1.74359)"/><use xlink:href="#bE" transform="translate(-386.43 -262.804) scale(1.74359)"/><use xlink:href="#bF" transform="translate(-386.43 -262.804) scale(1.74359)"/><use xlink:href="#bG" transform="translate(-386.43 -262.804) scale(1.74359)"/><use xlink:href="#bH" transform="translate(-386.43 -262.804) scale(1.74359)"/><use xlink:href="#bI" transform="translate(-386.43 -262.804) scale(1.74359)"/><use xlink:href="#bJ" transform="translate(-386.43 -262.804) scale(1.74359)"/><use xlink:href="#bK" transform="translate(-386.43 -262.804) scale(1.74359)"/><use xlink:href="#bL" transform="translate(-386.43 -262.804) scale(1.74359)"/><use xlink:href="#bM" transform="translate(-386.43 -262.804) scale(1.74359)"/><use xlink:href="#bN" transform="translate(-386.43 -262.804) scale(1.74359)"/><use xlink:href="#bO" transform="translate(-386.43 -262.804) scale(1.74359)"/><use xlink:href="#bP" transform="translate(-386.43 -262.804) scale(1.74359)"/><use xlink:href="#bQ" transform="translate(-386.43 -262.804) scale(1.74359)"/><use xlink:href="#bR" transform="translate(-386.43 -262.804) scale(1.74359)"/><use xlink:href="#bS" transform="translate(-386.43 -262.804) scale(1.74359)"/><use xlink:href="#bT" transform="translate(-386.43 -262.804) scale(1.74359)"/><use xlink:href="#bU" transform="translate(-386.43 -262.804) scale(1.74359)"/><use xlink:href="#bV" transform="translate(-386.43 -262.804) scale(1.74359)"/><use xlink:href="#bW" transform="translate(-386.43 -262.804) scale(1.74359)"/><use xlink:href="#bX" transform="translate(-386.43 -262.804) scale(1.74359)"/><use xlink:href="#bY" transform="translate(-386.43 -262.804) scale(1.74359)"/><use xlink:href="#bZ" transform="translate(-386.43 -262.804) scale(1.74359)"/><use xlink:href="#ca" transform="translate(-386.43 -262.804) scale(1.74359)"/><use xlink:href="#cb" transform="translate(-386.43 -262.804) scale(1.74359)"/><use xlink:href="#cc" transform="translate(-386.43 -262.804) scale(1.74359)"/><use xlink:href="#cd" transform="translate(-386.43 -262.804) scale(1.74359)"/><use xlink:href="#ce" transform="translate(-386.43 -262.804) scale(1.74359)"/><use xlink:href="#cf" transform="translate(-386.43 -262.804) scale(1.74359)"/><use xlink:href="#cg" transform="translate(-386.43 -262.804) scale(1.74359)"/><use xlink:href="#ch" transform="translate(-386.43 -262.804) scale(1.74359)"/><use xlink:href="#ci" transform="translate(-386.43 -262.804) scale(1.74359)"/><use xlink:href="#cj" transform="translate(-386.43 -262.804) scale(1.74359)"/><use xlink:href="#ck" transform="translate(-386.43 -262.804) scale(1.74359)"/><use xlink:href="#cl" transform="translate(-386.43 -262.804) scale(1.74359)"/><use xlink:href="#cm" transform="translate(-386.43 -262.804) scale(1.74359)"/><use xlink:href="#cn" transform="translate(-386.43 -262.804) scale(1.74359)"/><use xlink:href="#co" transform="translate(-386.43 -262.804) scale(1.74359)"/><use xlink:href="#cp" transform="translate(-386.43 -262.804) scale(1.74359)"/><use xlink:href="#cq" transform="translate(-386.43 -262.804) scale(1.74359)"/><use xlink:href="#cr" transform="translate(-386.43 -262.804) scale(1.74359)"/><use xlink:href="#cs" transform="translate(-386.43 -262.804) scale(1.74359)"/><use xlink:href="#ct" transform="translate(-386.43 -262.804) scale(1.74359)"/><use xlink:href="#cu" transform="translate(-386.43 -262.804) scale(1.74359)"/><use xlink:href="#cv" transform="translate(-386.43 -262.804) scale(1.74359)"/><use xlink:href="#cw" transform="translate(-386.43 -262.804) scale(1.74359)"/><use xlink:href="#cx" transform="translate(-386.43 -262.804) scale(1.74359)"/><use xlink:href="#cy" transform="translate(-386.43 -262.804) scale(1.74359)"/><use xlink:href="#cz" transform="translate(-386.43 -262.804) scale(1.74359)"/><use xlink:href="#cA" transform="translate(-386.43 -262.804) scale(1.74359)"/><use xlink:href="#cB" transform="translate(-386.43 -262.804) scale(1.74359)"/><use xlink:href="#cC" transform="translate(-386.43 -262.804) scale(1.74359)"/><use xlink:href="#cD" transform="translate(-386.43 -262.804) scale(1.74359)"/><use xlink:href="#cE" transform="translate(-386.43 -262.804) scale(1.74359)"/><use xlink:href="#cF" transform="translate(-386.43 -262.804) scale(1.74359)"/><use xlink:href="#cG" transform="translate(-386.43 -262.804) scale(1.74359)"/><use xlink:href="#cH" transform="translate(-386.43 -262.804) scale(1.74359)"/><use xlink:href="#cI" transform="translate(-386.43 -262.804) scale(1.74359)"/><use xlink:href="#cJ" transform="translate(-386.43 -262.804) scale(1.74359)"/><use xlink:href="#cK" transform="translate(-386.43 -262.804) scale(1.74359)"/><use xlink:href="#cL" transform="translate(-386.43 -262.804) scale(1.74359)"/><use xlink:href="#cM" transform="translate(-386.43 -262.804) scale(1.74359)"/><use xlink:href="#cN" transform="translate(-386.43 -262.804) scale(1.74359)"/><use xlink:href="#cO" transform="translate(-386.43 -262.804) scale(1.74359)"/><use xlink:href="#cP" transform="translate(-386.43 -262.804) scale(1.74359)"/><use xlink:href="#cQ" transform="translate(-386.43 -262.804) scale(1.74359)"/><use xlink:href="#cR" transform="translate(-386.43 -262.804) scale(1.74359)"/><use xlink:href="#cS" transform="translate(-386.43 -262.804) scale(1.74359)"/><use xlink:href="#cT" transform="translate(-386.43 -262.804) scale(1.74359)"/><use xlink:href="#cU" transform="translate(-386.43 -262.804) scale(1.74359)"/><use xlink:href="#cV" transform="translate(-386.43 -262.804) scale(1.74359)"/><use xlink:href="#cW" transform="translate(-386.43 -262.804) scale(1.74359)"/><use xlink:href="#cX" transform="translate(-386.43 -262.804) scale(1.74359)"/><use xlink:href="#cY" transform="translate(-386.43 -262.804) scale(1.74359)"/><use xlink:href="#cZ" transform="translate(-386.43 -262.804) scale(1.74359)"/><use xlink:href="#da" transform="translate(-386.43 -262.804) scale(1.74359)"/><use xlink:href="#db" transform="translate(-386.43 -262.804) scale(1.74359)"/><use xlink:href="#dc" transform="translate(-386.43 -262.804) scale(1.74359)"/><use xlink:href="#dd" transform="translate(-386.43 -262.804) scale(1.74359)"/><use xlink:href="#de" transform="translate(-386.43 -262.804) scale(1.74359)"/><use xlink:href="#df" transform="translate(-386.43 -262.804) scale(1.74359)"/><use xlink:href="#dg" transform="translate(-386.43 -262.804) scale(1.74359)"/><use xlink:href="#dh" transform="translate(-386.43 -262.804) scale(1.74359)"/><use xlink:href="#di" transform="translate(-386.43 -262.804) scale(1.74359)"/><use xlink:href="#dj" transform="translate(-386.43 -262.804) scale(1.74359)"/><use xlink:href="#dk" transform="translate(-386.43 -262.804) scale(1.74359)"/><use xlink:href="#dl" transform="translate(-386.43 -262.804) scale(1.74359)"/><use xlink:href="#dm" transform="translate(-386.43 -262.804) scale(1.74359)"/><use xlink:href="#dn" transform="translate(-386.43 -262.804) scale(1.74359)"/><use xlink:href="#do" transform="translate(-386.43 -262.804) scale(1.74359)"/><use xlink:href="#dp" transform="translate(-386.43 -262.804) scale(1.74359)"/><use xlink:href="#dq" transform="translate(-386.43 -262.804) scale(1.74359)"/><use xlink:href="#dr" transform="translate(-386.43 -262.804) scale(1.74359)"/><use xlink:href="#ds" transform="translate(-386.43 -262.804) scale(1.74359)"/><use xlink:href="#dt" transform="translate(-386.43 -262.804) scale(1.74359)"/><use xlink:href="#du" transform="translate(-386.43 -262.804) scale(1.74359)"/><use xlink:href="#dv" transform="translate(-386.43 -262.804) scale(1.74359)"/><use xlink:href="#dw" transform="translate(-386.43 -262.804) scale(1.74359)"/><use xlink:href="#dx" transform="translate(-386.43 -262.804) scale(1.74359)"/><use xlink:href="#dy" transform="translate(-386.43 -262.804) scale(1.74359)"/><use xlink:href="#dz" transform="translate(-386.43 -262.804) scale(1.74359)"/><use xlink:href="#dA" transform="translate(-386.43 -262.804) scale(1.74359)"/><use xlink:href="#dB" transform="translate(-386.43 -262.804) scale(1.74359)"/><use xlink:href="#dC" transform="translate(-386.43 -262.804) scale(1.74359)"/><use xlink:href="#dD" transform="translate(-386.43 -262.804) scale(1.74359)"/><use xlink:href="#dE" transform="translate(-386.43 -262.804) scale(1.74359)"/></svg>