<svg xmlns="http://www.w3.org/2000/svg" xmlns:xlink="http://www.w3.org/1999/xlink" preserveAspectRatio="none" width="284" height="320"><defs><radialGradient id="a" gradientUnits="userSpaceOnUse" cx="0" cy="0" r="78.1" fx="0" fy="0" gradientTransform="matrix(1 0 0 -1 478.65 -622.1)" spreadMethod="pad"><stop offset="0%" stop-color="#FFF"/><stop offset="0%" stop-color="#FFFEFD"/><stop offset="2.745%" stop-color="#FCDDC4"/><stop offset="5.098%" stop-color="#F9BF91"/><stop offset="7.843%" stop-color="#F7A666"/><stop offset="10.588%" stop-color="#F59243"/><stop offset="13.333%" stop-color="#F48228"/><stop offset="15.686%" stop-color="#F37714"/><stop offset="18.431%" stop-color="#F27009"/><stop offset="21.569%" stop-color="#F26E05"/><stop offset="49.412%" stop-color="#D55400"/><stop offset="63.529%" stop-color="#C13A01"/><stop offset="75.294%" stop-color="#AD2002"/><stop offset="100%" stop-color="#540402"/></radialGradient><radialGradient id="b" gradientUnits="userSpaceOnUse" cx="0" cy="0" r="53.369" fx="0" fy="0" gradientTransform="scale(1 -1) rotate(-45 968.99 -285.869)" spreadMethod="pad"><stop offset="0%" stop-color="#FFF"/><stop offset="0%" stop-color="#FFFEFD"/><stop offset="1.176%" stop-color="#FCDDC4"/><stop offset="2.353%" stop-color="#F9BF91"/><stop offset="3.529%" stop-color="#F7A666"/><stop offset="4.706%" stop-color="#F59243"/><stop offset="5.882%" stop-color="#F48228"/><stop offset="7.059%" stop-color="#F37714"/><stop offset="8.235%" stop-color="#F27009"/><stop offset="9.412%" stop-color="#F26E05"/><stop offset="13.333%" stop-color="#EF6B04"/><stop offset="43.529%" stop-color="#DC5A01"/><stop offset="64.706%" stop-color="#D55400"/><stop offset="64.706%" stop-color="#D55400" stop-opacity="0"/><stop offset="100%" stop-opacity="0"/></radialGradient><radialGradient id="c" gradientUnits="userSpaceOnUse" cx="0" cy="0" r="53.369" fx="0" fy="0" gradientTransform="scale(1 -1) rotate(-45 968.99 -285.869)" spreadMethod="pad"><stop offset="0%" stop-opacity="0"/><stop offset="64.706%" stop-color="#D55400" stop-opacity="0"/><stop offset="64.706%" stop-color="#D55400"/><stop offset="73.333%" stop-color="#C13A01"/><stop offset="80.784%" stop-color="#AD2002"/><stop offset="100%" stop-color="#540402"/></radialGradient><radialGradient id="d" gradientUnits="userSpaceOnUse" cx="0" cy="0" r="55.525" fx="0" fy="0" gradientTransform="matrix(1 0 0 -1 490.5 -598.1)" spreadMethod="pad"><stop offset="0%" stop-color="#FFF"/><stop offset="100%" stop-color="#858585"/></radialGradient><radialGradient id="e" gradientUnits="userSpaceOnUse" cx="0" cy="0" r="87.805" fx="0" fy="0" gradientTransform="scale(1 -1) rotate(-45 956.96 -299.336)" spreadMethod="pad"><stop offset="0%" stop-color="#FFF"/><stop offset="100%" stop-color="#858585"/></radialGradient><radialGradient id="f" gradientUnits="userSpaceOnUse" cx="0" cy="0" r="59.185" fx="0" fy="0" gradientTransform="rotate(45 951.755 299.23) scale(1 -.93369)" spreadMethod="pad"><stop offset="0%" stop-color="#FFF"/><stop offset="0%" stop-color="#FFFEFD"/><stop offset="2.745%" stop-color="#FCDDC4"/><stop offset="5.098%" stop-color="#F9BF91"/><stop offset="7.843%" stop-color="#F7A666"/><stop offset="10.588%" stop-color="#F59243"/><stop offset="13.333%" stop-color="#F48228"/><stop offset="15.686%" stop-color="#F37714"/><stop offset="18.431%" stop-color="#F27009"/><stop offset="21.569%" stop-color="#F26E05"/><stop offset="49.412%" stop-color="#D55400"/><stop offset="63.529%" stop-color="#C13A01"/><stop offset="75.294%" stop-color="#AD2002"/><stop offset="100%" stop-color="#540402"/></radialGradient><linearGradient id="g" gradientUnits="userSpaceOnUse" x1="518.025" y1="-600.025" x2="518.475" y2="-600.475" spreadMethod="pad"><stop offset="1.569%" stop-color="#5D5C60"/><stop offset="12.549%" stop-color="#8A898C"/><stop offset="26.275%" stop-color="#BCBCBD"/><stop offset="38.431%" stop-color="#E1E0E1"/><stop offset="48.235%" stop-color="#F7F7F7"/><stop offset="54.51%" stop-color="#FFF"/><stop offset="62.745%" stop-color="#FCFCFC"/><stop offset="69.804%" stop-color="#F1F1F1"/><stop offset="72.941%" stop-color="#E9E9E9"/><stop offset="100%" stop-color="#797A7D"/></linearGradient><linearGradient id="h" gradientUnits="userSpaceOnUse" x1="521.025" y1="-601.325" x2="521.475" y2="-601.775" spreadMethod="pad"><stop offset="1.569%" stop-color="#5D5C60"/><stop offset="12.549%" stop-color="#8A898C"/><stop offset="26.275%" stop-color="#BCBCBD"/><stop offset="38.431%" stop-color="#E1E0E1"/><stop offset="48.235%" stop-color="#F7F7F7"/><stop offset="54.51%" stop-color="#FFF"/><stop offset="62.745%" stop-color="#FCFCFC"/><stop offset="69.804%" stop-color="#F1F1F1"/><stop offset="72.941%" stop-color="#E9E9E9"/><stop offset="100%" stop-color="#797A7D"/></linearGradient><linearGradient id="i" gradientUnits="userSpaceOnUse" x1="524.375" y1="-602.975" x2="524.825" y2="-603.425" spreadMethod="pad"><stop offset="1.569%" stop-color="#5D5C60"/><stop offset="12.549%" stop-color="#8A898C"/><stop offset="26.275%" stop-color="#BCBCBD"/><stop offset="38.431%" stop-color="#E1E0E1"/><stop offset="48.235%" stop-color="#F7F7F7"/><stop offset="54.51%" stop-color="#FFF"/><stop offset="62.745%" stop-color="#FCFCFC"/><stop offset="69.804%" stop-color="#F1F1F1"/><stop offset="72.941%" stop-color="#E9E9E9"/><stop offset="100%" stop-color="#797A7D"/></linearGradient><linearGradient id="j" gradientUnits="userSpaceOnUse" x1="527.725" y1="-604.225" x2="528.175" y2="-604.675" spreadMethod="pad"><stop offset="1.569%" stop-color="#5D5C60"/><stop offset="12.549%" stop-color="#8A898C"/><stop offset="26.275%" stop-color="#BCBCBD"/><stop offset="38.431%" stop-color="#E1E0E1"/><stop offset="48.235%" stop-color="#F7F7F7"/><stop offset="54.51%" stop-color="#FFF"/><stop offset="62.745%" stop-color="#FCFCFC"/><stop offset="69.804%" stop-color="#F1F1F1"/><stop offset="72.941%" stop-color="#E9E9E9"/><stop offset="100%" stop-color="#797A7D"/></linearGradient><radialGradient id="k" gradientUnits="userSpaceOnUse" cx="0" cy="0" r="85.277" fx="0" fy="0" gradientTransform="rotate(45 1030.246 353.692) scale(1 -.73425)" spreadMethod="pad"><stop offset="0%" stop-color="#FFF"/><stop offset="1.176%" stop-color="#FDFBF7"/><stop offset="8.627%" stop-color="#F1E3CC"/><stop offset="15.686%" stop-color="#E8D1AA"/><stop offset="22.353%" stop-color="#E1C491"/><stop offset="28.627%" stop-color="#DDBC82"/><stop offset="33.333%" stop-color="#DCB97D"/><stop offset="100%" stop-color="#965625"/></radialGradient><radialGradient id="l" gradientUnits="userSpaceOnUse" cx="0" cy="0" r="32.05" fx="0" fy="0" gradientTransform="rotate(45 993.902 335.088) scale(1 -.73414)" spreadMethod="pad"><stop offset="0%" stop-color="#FFF"/><stop offset="1.176%" stop-color="#FDFBF7"/><stop offset="8.627%" stop-color="#F1E3CC"/><stop offset="15.686%" stop-color="#E8D1AA"/><stop offset="22.353%" stop-color="#E1C491"/><stop offset="28.627%" stop-color="#DDBC82"/><stop offset="33.333%" stop-color="#DCB97D"/><stop offset="100%" stop-color="#965625"/></radialGradient><radialGradient id="m" gradientUnits="userSpaceOnUse" cx="0" cy="0" r="75.448" fx="0" fy="0" gradientTransform="rotate(45 988.084 288.778) scale(1 -.5806)" spreadMethod="pad"><stop offset="0%" stop-color="#FFF"/><stop offset="1.176%" stop-color="#FDFBF7"/><stop offset="8.627%" stop-color="#F1E3CC"/><stop offset="15.686%" stop-color="#E8D1AA"/><stop offset="22.353%" stop-color="#E1C491"/><stop offset="28.627%" stop-color="#DDBC82"/><stop offset="33.333%" stop-color="#DCB97D"/><stop offset="100%" stop-color="#965625"/></radialGradient><radialGradient id="n" gradientUnits="userSpaceOnUse" cx="0" cy="0" r="18.084" fx="0" fy="0" gradientTransform="scale(1 -1) rotate(-45 981.856 -328.198)" spreadMethod="pad"><stop offset="0%" stop-color="#FFF"/><stop offset="25.098%" stop-color="#FFF"/><stop offset="100%" stop-color="#AFB0B2"/></radialGradient><radialGradient id="o" gradientUnits="userSpaceOnUse" cx="0" cy="0" r="145.805" fx="0" fy="0" gradientTransform="matrix(.7072 .70702 .43791 -.43791 495.4 -602.35)" spreadMethod="pad"><stop offset="0%" stop-color="#FFF"/><stop offset="1.176%" stop-color="#FDFBF7"/><stop offset="8.627%" stop-color="#F1E3CC"/><stop offset="15.686%" stop-color="#E8D1AA"/><stop offset="22.353%" stop-color="#E1C491"/><stop offset="28.627%" stop-color="#DDBC82"/><stop offset="33.333%" stop-color="#DCB97D"/><stop offset="100%" stop-color="#965625"/></radialGradient><radialGradient id="p" gradientUnits="userSpaceOnUse" cx="0" cy="0" r="10.288" fx="0" fy="0" gradientTransform="rotate(45 937.504 301.527) scale(1 -.91409)" spreadMethod="pad"><stop offset="0%" stop-color="#FFF"/><stop offset="100%" stop-color="#858585"/></radialGradient><radialGradient id="q" gradientUnits="userSpaceOnUse" cx="0" cy="0" r="15.733" fx="0" fy="0" gradientTransform="rotate(45 931.293 310.604) scale(1 -.77978)" spreadMethod="pad"><stop offset="0%" stop-color="#FFF"/><stop offset="100%" stop-color="#858585"/></radialGradient><radialGradient id="r" gradientUnits="userSpaceOnUse" cx="0" cy="0" r="9.67" fx="0" fy="0" gradientTransform="scale(1 -1) rotate(-45 989.286 -326.676)" spreadMethod="pad"><stop offset="0%" stop-color="#FFF"/><stop offset="100%" stop-color="#0A0E17"/></radialGradient><radialGradient id="s" gradientUnits="userSpaceOnUse" cx="0" cy="0" r="9.67" fx="0" fy="0" gradientTransform="scale(1 -1) rotate(-45 992.356 -329.647)" spreadMethod="pad"><stop offset="0%" stop-color="#FFF"/><stop offset="100%" stop-color="#0A0E17"/></radialGradient><radialGradient id="t" gradientUnits="userSpaceOnUse" cx="0" cy="0" r="9.67" fx="0" fy="0" gradientTransform="scale(1 -1) rotate(-45 995.781 -332.966)" spreadMethod="pad"><stop offset="0%" stop-color="#FFF"/><stop offset="100%" stop-color="#0A0E17"/></radialGradient><radialGradient id="u" gradientUnits="userSpaceOnUse" cx="0" cy="0" r="9.67" fx="0" fy="0" gradientTransform="scale(1 -1) rotate(-45 999.117 -335.898)" spreadMethod="pad"><stop offset="0%" stop-color="#FFF"/><stop offset="100%" stop-color="#0A0E17"/></radialGradient><radialGradient id="v" gradientUnits="userSpaceOnUse" cx="0" cy="0" r="20.683" fx="0" fy="0" gradientTransform="scale(1 -1) rotate(-45 1002.691 -325.578)" spreadMethod="pad"><stop offset="0%" stop-color="#FFF"/><stop offset="25.098%" stop-color="#FFF"/><stop offset="100%" stop-color="#AFB0B2"/></radialGradient><radialGradient id="w" gradientUnits="userSpaceOnUse" cx="0" cy="0" r="20.683" fx="0" fy="0" gradientTransform="scale(1 -1) rotate(-45 1006.347 -328.943)" spreadMethod="pad"><stop offset="0%" stop-color="#FFF"/><stop offset="25.098%" stop-color="#FFF"/><stop offset="100%" stop-color="#AFB0B2"/></radialGradient><radialGradient id="x" gradientUnits="userSpaceOnUse" cx="0" cy="0" r="20.701" fx="0" fy="0" gradientTransform="scale(1 -1) rotate(-45 1009.602 -332.19)" spreadMethod="pad"><stop offset="0%" stop-color="#FFF"/><stop offset="25.098%" stop-color="#FFF"/><stop offset="100%" stop-color="#AFB0B2"/></radialGradient><radialGradient id="y" gradientUnits="userSpaceOnUse" cx="0" cy="0" r="20.701" fx="0" fy="0" gradientTransform="scale(1 -1) rotate(-45 999.757 -322.763)" spreadMethod="pad"><stop offset="0%" stop-color="#FFF"/><stop offset="25.098%" stop-color="#FFF"/><stop offset="100%" stop-color="#AFB0B2"/></radialGradient><radialGradient id="z" gradientUnits="userSpaceOnUse" cx="0" cy="0" r="5.542" fx="0" fy="0" gradientTransform="matrix(.69917 .71496 .76909 -.78713 522.85 -604.85)" spreadMethod="pad"><stop offset="0%" stop-color="#FFF"/><stop offset="25.098%" stop-color="#FFF"/><stop offset="100%" stop-color="#AFB0B2"/></radialGradient><radialGradient id="A" gradientUnits="userSpaceOnUse" cx="0" cy="0" r="5.542" fx="0" fy="0" gradientTransform="matrix(.69917 .71496 .77134 -.78938 519.45 -603.3)" spreadMethod="pad"><stop offset="0%" stop-color="#FFF"/><stop offset="25.098%" stop-color="#FFF"/><stop offset="100%" stop-color="#AFB0B2"/></radialGradient><radialGradient id="B" gradientUnits="userSpaceOnUse" cx="0" cy="0" r="5.542" fx="0" fy="0" gradientTransform="matrix(.69917 .71496 .77134 -.78938 516.55 -602.05)" spreadMethod="pad"><stop offset="0%" stop-color="#FFF"/><stop offset="25.098%" stop-color="#FFF"/><stop offset="100%" stop-color="#AFB0B2"/></radialGradient><radialGradient id="C" gradientUnits="userSpaceOnUse" cx="0" cy="0" r="5.542" fx="0" fy="0" gradientTransform="matrix(.69917 .71496 .77134 -.78938 526.1 -606.2)" spreadMethod="pad"><stop offset="0%" stop-color="#FFF"/><stop offset="25.098%" stop-color="#FFF"/><stop offset="100%" stop-color="#AFB0B2"/></radialGradient><radialGradient id="D" gradientUnits="userSpaceOnUse" cx="0" cy="0" r="26.976" fx="0" fy="0" gradientTransform="scale(1 -1) rotate(-45 984.375 -310.891)" spreadMethod="pad"><stop offset="0%" stop-color="#FFF"/><stop offset="100%" stop-color="#0A0E17"/></radialGradient><radialGradient id="E" gradientUnits="userSpaceOnUse" cx="0" cy="0" r="26.994" fx="0" fy="0" gradientTransform="scale(1 -1) rotate(-45 980.765 -309.346)" spreadMethod="pad"><stop offset="0%" stop-color="#FFF"/><stop offset="100%" stop-color="#0A0E17"/></radialGradient><radialGradient id="F" gradientUnits="userSpaceOnUse" cx="0" cy="0" r="26.994" fx="0" fy="0" gradientTransform="scale(1 -1) rotate(-45 977.12 -307.886)" spreadMethod="pad"><stop offset="0%" stop-color="#FFF"/><stop offset="100%" stop-color="#0A0E17"/></radialGradient><radialGradient id="G" gradientUnits="userSpaceOnUse" cx="0" cy="0" r="26.994" fx="0" fy="0" gradientTransform="scale(1 -1) rotate(-45 973.51 -306.34)" spreadMethod="pad"><stop offset="0%" stop-color="#FFF"/><stop offset="100%" stop-color="#0A0E17"/></radialGradient><radialGradient id="H" gradientUnits="userSpaceOnUse" cx="0" cy="0" r="26.994" fx="0" fy="0" gradientTransform="scale(1 -1) rotate(-45 969.925 -304.856)" spreadMethod="pad"><stop offset="0%" stop-color="#FFF"/><stop offset="100%" stop-color="#0A0E17"/></radialGradient><radialGradient id="I" gradientUnits="userSpaceOnUse" cx="0" cy="0" r="26.976" fx="0" fy="0" gradientTransform="scale(1 -1) rotate(-45 966.254 -303.336)" spreadMethod="pad"><stop offset="0%" stop-color="#FFF"/><stop offset="100%" stop-color="#0A0E17"/></radialGradient><radialGradient id="J" gradientUnits="userSpaceOnUse" cx="0" cy="0" r="26.994" fx="0" fy="0" gradientTransform="scale(1 -1) rotate(-45 962.67 -301.85)" spreadMethod="pad"><stop offset="0%" stop-color="#FFF"/><stop offset="100%" stop-color="#0A0E17"/></radialGradient><radialGradient id="K" gradientUnits="userSpaceOnUse" cx="0" cy="0" r="26.976" fx="0" fy="0" gradientTransform="scale(1 -1) rotate(-45 959.024 -300.39)" spreadMethod="pad"><stop offset="0%" stop-color="#FFF"/><stop offset="100%" stop-color="#0A0E17"/></radialGradient><radialGradient id="L" gradientUnits="userSpaceOnUse" cx="0" cy="0" r="26.994" fx="0" fy="0" gradientTransform="scale(1 -1) rotate(-45 956.61 -299.34)" spreadMethod="pad"><stop offset="0%" stop-color="#FFF"/><stop offset="100%" stop-color="#0A0E17"/></radialGradient><radialGradient id="M" gradientUnits="userSpaceOnUse" cx="0" cy="0" r="26.976" fx="0" fy="0" gradientTransform="scale(1 -1) rotate(-45 954.22 -298.35)" spreadMethod="pad"><stop offset="0%" stop-color="#FFF"/><stop offset="100%" stop-color="#0A0E17"/></radialGradient><radialGradient id="N" gradientUnits="userSpaceOnUse" cx="0" cy="0" r="26.994" fx="0" fy="0" gradientTransform="scale(1 -1) rotate(-45 951.769 -297.386)" spreadMethod="pad"><stop offset="0%" stop-color="#FFF"/><stop offset="100%" stop-color="#0A0E17"/></radialGradient><radialGradient id="O" gradientUnits="userSpaceOnUse" cx="0" cy="0" r="36.77" fx="0" fy="0" gradientTransform="scale(1 -1) rotate(-45 952.243 -291.532)" spreadMethod="pad"><stop offset="0%" stop-color="#FFF"/><stop offset="100%" stop-color="#0A0E17"/></radialGradient><radialGradient id="P" gradientUnits="userSpaceOnUse" cx="0" cy="0" r="36.752" fx="0" fy="0" gradientTransform="scale(1 -1) rotate(-45 946.269 -289.057)" spreadMethod="pad"><stop offset="0%" stop-color="#FFF"/><stop offset="100%" stop-color="#0A0E17"/></radialGradient><radialGradient id="Q" gradientUnits="userSpaceOnUse" cx="0" cy="0" r="375.35" fx="0" fy="0" gradientTransform="scale(1 -1) rotate(-45 1213.539 -422.514)" spreadMethod="pad"><stop offset="0%" stop-color="#FFF"/><stop offset="25.098%" stop-color="#FFF"/><stop offset="100%" stop-color="#AFB0B2"/></radialGradient><radialGradient id="R" gradientUnits="userSpaceOnUse" cx="0" cy="0" r="375.332" fx="0" fy="0" gradientTransform="rotate(45 1232.012 432.116) scale(1 -1.0666)" spreadMethod="pad"><stop offset="0%" stop-color="#FFF"/><stop offset="25.098%" stop-color="#FFF"/><stop offset="100%" stop-color="#AFB0B2"/></radialGradient><radialGradient id="S" gradientUnits="userSpaceOnUse" cx="0" cy="0" r="375.368" fx="0" fy="0" gradientTransform="rotate(45 1252.473 442.591) scale(1 -1.13987)" spreadMethod="pad"><stop offset="0%" stop-color="#FFF"/><stop offset="25.098%" stop-color="#FFF"/><stop offset="100%" stop-color="#AFB0B2"/></radialGradient><radialGradient id="T" gradientUnits="userSpaceOnUse" cx="0" cy="0" r="375.35" fx="0" fy="0" gradientTransform="rotate(45 1270.83 451.745) scale(1 -1.20482)" spreadMethod="pad"><stop offset="0%" stop-color="#FFF"/><stop offset="25.098%" stop-color="#FFF"/><stop offset="100%" stop-color="#AFB0B2"/></radialGradient><path fill="#FFF" fill-opacity="0" d="M284 320V0H0v320h284z" id="U"/><path fill="url(#a)" d="M483.85-576.75q-.8.35-3.1 1.25-2.8 1.1-3.95 1.7-2.25 1.1-3.6 2.45-7.9 7.9 2.35 18.95l.6.55q6.6 6.15 11.3 6.15 3.25 0 5.95-2.7 2.05-2.05 3.35-4.65.75-1.45 1.65-4.2 1.1-3.3 2.2-4.4.8-.8 4-2.35 2.8-1.35 3.5-2.05l.1-.1q2.7-2.7 1.55-5.3-.4-.95-1.45-.95-.5 0-2.1.7l-.4.2q-1.6.7-2.35.7-.7 0-1.2-.5-.95-.95-.9-2.35.05-.95.75-3.05.6-1.7.7-2.45.15-1.3-.65-2.1l-.65-.6-1.25.85q-.65.3-1.2.3-.85 0-1.35-1.05-.4-.85.1-2 .25-.7 1.15-2.05.75-1.2.9-1.6.35-.8.2-1.45-.2-.75-.9-1.1-1-.55-2.05-.55-2.15 0-4.55 2-1.65 1.4-2.5 2.75-.3.45-1.2 2.6-1.5 3.65-2.65 4.85-.8.8-2.35 1.55z" id="V"/><path fill="url(#b)" d="M476.8-552.6q4.75 4.45 8.25 5.5 4.3 1.35 7.65-2 2.85-2.85 4.45-7.45 1.6-4.65 2.75-5.8 1-1 3.9-2.4 2.95-1.4 3.55-2 1.05-1.05 1.35-1.6.75-1.3.15-2.7-.25-.6-2.95.6-2.95 1.3-4.35-.15-1.9-1.9-.65-5.55 1.25-3.7.55-4.4-.8.6-1.75.8-1.95.4-2.9-1.55-.85-1.75 1.1-4.7 1.65-2.6.75-3.1-2-1.1-4.7.8-2 1.35-3.05 3.05-.15.25-1.7 3.75-1.2 2.8-2.3 3.9-1.35 1.35-6.2 3.2-4.9 1.85-6.8 3.75-7.15 7.25 2.35 17.5h-.05l.6.6v-.05z" id="W"/><path fill="url(#c)" d="M476.8-552.6q4.75 4.45 8.25 5.5 4.3 1.35 7.65-2 2.85-2.85 4.45-7.45 1.6-4.65 2.75-5.8 1-1 3.9-2.4 2.95-1.4 3.55-2 1.05-1.05 1.35-1.6.75-1.3.15-2.7-.25-.6-2.95.6-2.95 1.3-4.35-.15-1.9-1.9-.65-5.55 1.25-3.7.55-4.4-.8.6-1.75.8-1.95.4-2.9-1.55-.85-1.75 1.1-4.7 1.65-2.6.75-3.1-2-1.1-4.7.8-2 1.35-3.05 3.05-.15.25-1.7 3.75-1.2 2.8-2.3 3.9-1.35 1.35-6.2 3.2-4.9 1.85-6.8 3.75-7.15 7.25 2.35 17.5h-.05l.6.6v-.05z" id="X"/><path fill="url(#d)" d="M483.25-569.7q-1.35 1.35-1.25 3 .05 1.25.8 2.2 4.25 3.85 5.3 5.1l.4.5q.95 1.1 1.3 1.8.55 1.2.55 3.05-.05 2.35.75 3.15.45.45 1.1.45.45 0 1.05-.25 1.3-.6 2.9-4.8l.55-1.4q1.55-4.25 2.3-5.35.8-1.15 4.55-2.8l1.3-.6q1.85-.85 2.85-2.6.85-1.55.55-2.2-.15-.45-.6-.45-.15 0-.8.4l-1.6 1q-.65.35-1.45.35-.85 0-1.7-.4-.75-.35-1-.65-2.05-2-3.3-6.15v-.1q-.5-1.55-.7-2.05-.5-.95-1.15-1.05h-.1q-.85 0-2.25 2.3l-.6.95q-1.05 1.55-4.3 3.3l-.8.35q-2.8 1.1-4.65 2.95z" id="Y"/><path fill="url(#e)" d="M483.6-569.35q-1.4 1.4-1.05 3.1l.6 1.4q4.25 3.85 5.3 5.15 1.35 1.6 1.6 2.05.8 1.4.8 3.6-.05 3.95 2.2 2.85 1.1-.45 2.65-4.5.35-.9 1.3-3.5.95-2.35 1.6-3.3.65-.95 2.4-1.9.35-.2 3.6-1.7 1.7-.75 2.65-2.4.75-1.35.55-1.75-.1-.2-.45 0-1.45.9-1.85 1.15-1.3.8-2.95.25-1.15-.35-1.8-1-2.25-2.15-3.4-6.35-.75-2.75-1.45-2.85-.45-.05-1.15 1-.9 1.35-1.35 2-1.05 1.65-4.45 3.5-1.25.5-2.2.95-1.75.85-3.15 2.25z" id="Z"/><path fill="url(#f)" d="M477.05-552.05q-10.033-10.917-2.9-18.05 1.9-1.9 6.9-3.65 4.95-1.75 6.3-3.1 1.1-1.1 2.3-3.95 1.4-3.5 1.6-3.8.95-1.65 2.9-2.95 2.6-1.85 4.7-.9-.05-.35-.45-.65-2.1-1.2-4.85.65-2.05 1.35-3.05 3.05-.2.3-1.65 3.85-1.15 2.85-2.25 3.95-1.35 1.35-6.3 3.1-5 1.75-6.9 3.65-7.2 7.2 3 18.15v.05l.65.6z" id="aa"/><path fill="url(#g)" d="M519-599.05l.45-.5-1.9-1.9-.45.5 1.9 1.9z" id="ab"/><path fill="url(#h)" d="M522-600.35l.45-.45-1.9-1.95-.5.5 1.95 1.9z" id="ac"/><path fill="url(#i)" d="M525.35-602l.45-.45-1.9-1.9-.45.45 1.9 1.9z" id="ad"/><path fill="url(#j)" d="M528.7-603.25l.45-.45-1.9-1.95-.5.5 1.95 1.9z" id="ae"/><path fill="url(#k)" d="M518.65-599.95q-.95.35-.8 1.15l.65 2.35q.75 1.15 2.05 2.55.85-.7 2.4-.45.75.15 1.35.4.5.2 1.2.7.6.3 1.1-.2.65-.65 1.4-2.25.75-1.65.8-2.5.1-1.2.85-1.2 1.6.4 2.2.4 1.1.05 1.8-.65.65-.65.65-1.65.05-1.3-1.05-2.4-1.05-1.05-2.55-1.1l-1.3.15q-9.45 4.2-10.75 4.7z" id="af"/><path fill="url(#l)" d="M518.3-598q.05-.5.85-.85l11-5 1-.15q1.2-.05 2.15.5-1-.85-2.35-.9l-1.2.15q-9.45 4.2-10.75 4.7-.95.35-.8 1.15l.1.4z" id="ag"/><path fill="url(#m)" d="M521.65-594.35L518-598l-22.7 21.85q-.55.5 0 1.05l3.6 3.6q.4.4.8.2.2-.05.3-.25l21.65-22.8z" id="ah"/><path fill="url(#n)" d="M521.4-594.15q.15-.15 0-.4l-3.05-3.05q-.2-.2-.4 0-.15.25 0 .4l3.05 3.05q.2.3.4 0z" id="ai"/><path fill="url(#o)" d="M518.5-597.4l-.35-.35L495.7-576q-.5.45-.1.95.05-.3.25-.5l22.65-21.85z" id="aj"/><path fill="url(#p)" d="M484.95-565.1q-.7-.7-1.45-.05l-1.6 1.6q-.3.3-.25.75 0 .4.3.7l4.85 4.85q.3.3.75.35.4 0 .7-.3l1.6-1.6q.3-.25.3-.7-.05-.4-.35-.75l-4.85-4.85z" id="ak"/><path fill="url(#q)" d="M484.85-564.35q-.25-.25-.6-.3-.4-.05-.6.15l-1.15 1.2q-.55.55.15 1.15l4.2 4.25q.25.25.6.3.35.05.55-.15l1.2-1.2q.2-.2.15-.6-.05-.35-.3-.6l-4.2-4.2z" id="al"/><path fill="url(#r)" d="M520.25-598.1q.35-.35 0-.7t-.7 0q-.35.35 0 .7t.7 0z" id="am"/><path fill="url(#s)" d="M523.25-599.35q.4-.35 0-.75-.35-.35-.7 0-.35.4 0 .75.35.25.7 0z" id="an"/><path fill="url(#t)" d="M525.9-601.55q-.35.35 0 .7t.7 0q.35-.35 0-.7t-.7 0z" id="ao"/><path fill="url(#u)" d="M529.7-602.35q.35-.35 0-.7t-.7 0q-.35.35 0 .7t.7 0z" id="ap"/><path fill="url(#v)" d="M520.9-601.8q.75-.85.25-1.45-.25-.25-.7-.15-.4.05-.75.4-.35.35-.4.75-.1.45.15.7.6.5 1.45-.25z" id="aq"/><path fill="url(#w)" d="M524.35-603.45q.35-.35.4-.75.1-.4-.15-.65t-.7-.15q-.4.05-.75.4-.35.35-.4.75-.1.4.15.65.6.6 1.45-.25z" id="ar"/><path fill="url(#x)" d="M526.4-605.95q-.35.35-.4.75-.1.45.15.7.6.5 1.45-.25.35-.35.4-.75.1-.45-.15-.7-.25-.25-.7-.15-.4.05-.75.4z" id="as"/><path fill="url(#y)" d="M518.05-600.55q.8-.9.25-1.45-.5-.6-1.45.25-.35.35-.4.75-.1.45.15.7.25.25.7.15.4-.05.75-.4z" id="at"/><path fill="url(#z)" d="M523.05-603.1q-.25-.55.35-1.25.65-.65 1.2-.35l-.05-.1q-.2-.2-.55-.15-.4.1-.75.45t-.4.75q-.1.35.1.6l.1.05z" id="au"/><path fill="url(#A)" d="M519.65-601.5q-.3-.6.35-1.25.7-.7 1.2-.35l-.05-.1q-.2-.2-.55-.15-.4.1-.75.45t-.4.75q-.1.35.1.6l.1.05z" id="av"/><path fill="url(#B)" d="M516.75-600.25q-.35-.55.35-1.25t1.2-.35l-.05-.1q-.5-.5-1.3.3-.35.35-.45.75-.05.4.15.6l.1.05z" id="aw"/><path fill="url(#C)" d="M526.25-604.45l.1.05q-.35-.55.35-1.25.25-.3.6-.4.35-.1.6.05l-.05-.1q-.2-.2-.6-.15-.4.1-.75.45t-.4.75q-.1.35.15.6z" id="ax"/><path fill="url(#D)" d="M516.25-595.05q-.15-.1-.25 0t0 .25l3 3q.1.1.25 0 .1-.15 0-.25l-3-3z" id="ay"/><path fill="url(#E)" d="M517.1-589.7q.15-.1 0-.25l-3-3q-.1-.1-.2 0-.15.15 0 .25l3 3q.1.1.2 0z" id="az"/><path fill="url(#F)" d="M515-587.6q.1-.1 0-.2l-3-3q-.1-.25-.25 0-.1.1 0 .2l3 3q.15.15.25 0z" id="aA"/><path fill="url(#G)" d="M512.9-585.45q.1-.1 0-.25l-3.05-3q-.1-.1-.2 0-.25.15 0 .25l3 3q.1.1.25 0z" id="aB"/><path fill="url(#H)" d="M510.75-583.35q.1-.1 0-.2l-3-3q-.1-.15-.25 0-.1.1 0 .2l3 3q.15.15.25 0z" id="aC"/><path fill="url(#I)" d="M508.65-581.2q.1-.15 0-.25l-3-3q-.15-.1-.25 0t0 .25l3 3q.1.1.25 0z" id="aD"/><path fill="url(#J)" d="M506.5-579.1q.15-.1 0-.25l-3-3q-.1-.1-.25 0-.1.15 0 .25l3.05 3q.1.2.2 0z" id="aE"/><path fill="url(#K)" d="M504.4-576.95q.1-.15 0-.25l-3-3q-.15-.1-.25 0t0 .25l3 3q.1.1.25 0z" id="aF"/><path fill="url(#L)" d="M503-575.55q.1-.1 0-.25l-3.05-3q-.1-.1-.2 0-.25.15 0 .25l3 3q.1.1.25 0z" id="aG"/><path fill="url(#M)" d="M501.55-574.15q.15-.1 0-.25l-3-3q-.1-.1-.25 0-.1.15 0 .25l3.05 3q.1.1.2 0z" id="aH"/><path fill="url(#N)" d="M500.15-572.75q.1-.1 0-.2l-3-3q-.1-.25-.25 0-.1.1 0 .2l3 3q.15.15.25 0z" id="aI"/><path fill="url(#O)" d="M491.4-570.95q0 .35.25.55l3.05 3.05q.55.55 1.1 0 .25-.2.25-.55 0-.3-.25-.55l-3.05-3.05q-.2-.25-.55-.25-.3 0-.55.25-.25.25-.25.55z" id="aJ"/><path fill="url(#P)" d="M492.3-563.8q.25-.2.25-.55 0-.3-.25-.55l-3.1-3.1q-.2-.2-.55-.2-.3 0-.55.2-.55.6 0 1.15l3.05 3.05q.55.55 1.15 0z" id="aK"/><path fill="url(#Q)" d="M519.85-598.2l-.25-.2-34.55 34.5.25.25 34.55-34.55z" id="aL"/><path fill="url(#R)" d="M523-599.5l-.2-.2-36.85 36.8.25.25L523-599.5z" id="aM"/><path fill="url(#S)" d="M526.5-600.95l-.25-.25-39.35 39.35.2.25 39.4-39.35z" id="aN"/><path fill="url(#T)" d="M529.55-602.5l-.25-.2-41.6 41.6.25.2 41.6-41.6z" id="aO"/></defs><use xlink:href="#U"/><use xlink:href="#V" transform="matrix(3.9358 0 0 3.93591 -1833.588 2459.438)"/><use xlink:href="#W" transform="matrix(3.9358 0 0 3.93591 -1833.588 2459.438)"/><use xlink:href="#X" transform="matrix(3.9358 0 0 3.93591 -1833.588 2459.438)"/><use xlink:href="#Y" transform="matrix(3.9358 0 0 3.93591 -1833.588 2459.438)"/><use xlink:href="#Z" transform="matrix(3.9358 0 0 3.93591 -1833.588 2459.438)"/><use xlink:href="#aa" transform="matrix(3.9358 0 0 3.93591 -1833.588 2459.438)"/><use xlink:href="#ab" transform="matrix(3.9358 0 0 3.93591 -1833.588 2459.438)"/><use xlink:href="#ac" transform="matrix(3.9358 0 0 3.93591 -1833.588 2459.438)"/><use xlink:href="#ad" transform="matrix(3.9358 0 0 3.93591 -1833.588 2459.438)"/><use xlink:href="#ae" transform="matrix(3.9358 0 0 3.93591 -1833.588 2459.438)"/><use xlink:href="#af" transform="matrix(3.9358 0 0 3.93591 -1833.588 2459.438)"/><use xlink:href="#ag" transform="matrix(3.9358 0 0 3.93591 -1833.588 2459.438)"/><use xlink:href="#ah" transform="matrix(3.9358 0 0 3.93591 -1833.588 2459.438)"/><use xlink:href="#ai" transform="matrix(3.9358 0 0 3.93591 -1833.588 2459.438)"/><use xlink:href="#aj" transform="matrix(3.9358 0 0 3.93591 -1833.588 2459.438)"/><use xlink:href="#ak" transform="matrix(3.9358 0 0 3.93591 -1833.588 2459.438)"/><use xlink:href="#al" transform="matrix(3.9358 0 0 3.93591 -1833.588 2459.438)"/><use xlink:href="#am" transform="matrix(3.9358 0 0 3.93591 -1833.588 2459.438)"/><use xlink:href="#an" transform="matrix(3.9358 0 0 3.93591 -1833.588 2459.438)"/><use xlink:href="#ao" transform="matrix(3.9358 0 0 3.93591 -1833.588 2459.438)"/><use xlink:href="#ap" transform="matrix(3.9358 0 0 3.93591 -1833.588 2459.438)"/><use xlink:href="#aq" transform="matrix(3.9358 0 0 3.93591 -1833.588 2459.438)"/><use xlink:href="#ar" transform="matrix(3.9358 0 0 3.93591 -1833.588 2459.438)"/><use xlink:href="#as" transform="matrix(3.9358 0 0 3.93591 -1833.588 2459.438)"/><use xlink:href="#at" transform="matrix(3.9358 0 0 3.93591 -1833.588 2459.438)"/><use xlink:href="#au" transform="matrix(3.9358 0 0 3.93591 -1833.588 2459.438)"/><use xlink:href="#av" transform="matrix(3.9358 0 0 3.93591 -1833.588 2459.438)"/><use xlink:href="#aw" transform="matrix(3.9358 0 0 3.93591 -1833.588 2459.438)"/><use xlink:href="#ax" transform="matrix(3.9358 0 0 3.93591 -1833.588 2459.438)"/><use xlink:href="#ay" transform="matrix(3.9358 0 0 3.93591 -1833.588 2459.438)"/><use xlink:href="#az" transform="matrix(3.9358 0 0 3.93591 -1833.588 2459.438)"/><use xlink:href="#aA" transform="matrix(3.9358 0 0 3.93591 -1833.588 2459.438)"/><use xlink:href="#aB" transform="matrix(3.9358 0 0 3.93591 -1833.588 2459.438)"/><use xlink:href="#aC" transform="matrix(3.9358 0 0 3.93591 -1833.588 2459.438)"/><use xlink:href="#aD" transform="matrix(3.9358 0 0 3.93591 -1833.588 2459.438)"/><use xlink:href="#aE" transform="matrix(3.9358 0 0 3.93591 -1833.588 2459.438)"/><use xlink:href="#aF" transform="matrix(3.9358 0 0 3.93591 -1833.588 2459.438)"/><use xlink:href="#aG" transform="matrix(3.9358 0 0 3.93591 -1833.588 2459.438)"/><use xlink:href="#aH" transform="matrix(3.9358 0 0 3.93591 -1833.588 2459.438)"/><use xlink:href="#aI" transform="matrix(3.9358 0 0 3.93591 -1833.588 2459.438)"/><use xlink:href="#aJ" transform="matrix(3.9358 0 0 3.93591 -1833.588 2459.438)"/><use xlink:href="#aK" transform="matrix(3.9358 0 0 3.93591 -1833.588 2459.438)"/><use xlink:href="#aL" transform="matrix(3.9358 0 0 3.93591 -1833.588 2459.438)"/><use xlink:href="#aM" transform="matrix(3.9358 0 0 3.93591 -1833.588 2459.438)"/><use xlink:href="#aN" transform="matrix(3.9358 0 0 3.93591 -1833.588 2459.438)"/><use xlink:href="#aO" transform="matrix(3.9358 0 0 3.93591 -1833.588 2459.438)"/></svg>