<svg xmlns="http://www.w3.org/2000/svg" xmlns:xlink="http://www.w3.org/1999/xlink" preserveAspectRatio="none" width="284" height="320"><defs><linearGradient id="a" gradientUnits="userSpaceOnUse" x1="353.3" y1="119.525" x2="213.9" y2="304.875" spreadMethod="pad"><stop offset="0%" stop-color="#FFF1D6"/><stop offset="21.176%" stop-color="#D9B779"/><stop offset="40%" stop-color="#FFE2AD"/><stop offset="63.137%" stop-color="#E6BA6C"/><stop offset="76.471%" stop-color="#D4AC66"/><stop offset="88.627%" stop-color="#DABB82"/><stop offset="100%" stop-color="#A66923"/></linearGradient><linearGradient id="b" gradientUnits="userSpaceOnUse" x1="231.35" y1="173.975" x2="198.45" y2="222.725" spreadMethod="pad"><stop offset="0%" stop-color="#FFCE75"/><stop offset="50.196%" stop-color="#FFECC8"/><stop offset="100%" stop-color="#FFB736"/></linearGradient><linearGradient id="c" gradientUnits="userSpaceOnUse" x1="275.188" y1="313.012" x2="295.612" y2="91.887" spreadMethod="pad"><stop offset="0%" stop-color="#FFF0D4"/><stop offset="21.176%" stop-color="#D9B779"/><stop offset="40%" stop-color="#FFE2AD"/><stop offset="63.137%" stop-color="#E6BA6C"/><stop offset="76.471%" stop-color="#D4AC66"/><stop offset="88.627%" stop-color="#DABB82"/><stop offset="100%" stop-color="#A66923"/></linearGradient><linearGradient id="d" gradientUnits="userSpaceOnUse" x1="240.463" y1="142.488" x2="210.338" y2="184.512" spreadMethod="pad"><stop offset="0%" stop-color="#FFF1D6"/><stop offset="38.824%" stop-color="#FFE5B5"/><stop offset="69.804%" stop-color="#F2D399"/><stop offset="100%" stop-color="#E0BD7D"/></linearGradient><linearGradient id="e" gradientUnits="userSpaceOnUse" x1="235" y1="304.575" x2="364.7" y2="184.125" spreadMethod="pad"><stop offset="0%" stop-color="#FFF1D6"/><stop offset="21.176%" stop-color="#D9B779"/><stop offset="40%" stop-color="#FFE2AD"/><stop offset="63.137%" stop-color="#E6BA6C"/><stop offset="67.451%" stop-color="#AB791F"/><stop offset="76.471%" stop-color="#D4AC66"/><stop offset="88.627%" stop-color="#DABB82"/><stop offset="100%" stop-color="#A66923"/></linearGradient><linearGradient id="f" gradientUnits="userSpaceOnUse" x1="249.938" y1="128.1" x2="202.363" y2="227.2" spreadMethod="pad"><stop offset="0%" stop-color="#D9B779"/><stop offset="49.412%" stop-color="#966408"/><stop offset="76.863%" stop-color="#A2721B"/><stop offset="89.804%" stop-color="#D4B06F"/></linearGradient><linearGradient id="g" gradientUnits="userSpaceOnUse" x1="230.363" y1="305.5" x2="279.938" y2="305.5" spreadMethod="pad"><stop offset="0%" stop-color="#FFF1D6"/><stop offset="100%" stop-color="#FFE2AD"/></linearGradient><linearGradient id="h" gradientUnits="userSpaceOnUse" x1="302.3" y1="290" x2="315.8" y2="290" spreadMethod="pad"><stop offset="0%" stop-color="#FFF1D6"/><stop offset="100%" stop-color="#FFE2AD"/></linearGradient><linearGradient id="i" gradientUnits="userSpaceOnUse" x1="339.625" y1="255.05" x2="358.275" y2="255.05" spreadMethod="pad"><stop offset="0%" stop-color="#D9B779"/><stop offset="67.451%" stop-color="#AB791F"/><stop offset="100%" stop-color="#A66923"/></linearGradient><linearGradient id="j" gradientUnits="userSpaceOnUse" x1="368.75" y1="210.912" x2="347.35" y2="191.888" spreadMethod="pad"><stop offset="0%" stop-color="#D9B779"/><stop offset="67.451%" stop-color="#AB791F"/><stop offset="100%" stop-color="#A66923"/></linearGradient><linearGradient id="k" gradientUnits="userSpaceOnUse" x1="375.325" y1="191.375" x2="338.875" y2="282.525" spreadMethod="pad"><stop offset="0%" stop-color="#D9B779"/><stop offset="67.451%" stop-color="#AB791F"/><stop offset="100%" stop-color="#A66923"/></linearGradient><linearGradient id="l" gradientUnits="userSpaceOnUse" x1="208.537" y1="181.162" x2="185.862" y2="268.137" spreadMethod="pad"><stop offset="0%" stop-color="#D9B779"/><stop offset="55.686%" stop-color="#AB791F"/><stop offset="81.961%" stop-color="#D6B373"/></linearGradient><linearGradient id="m" gradientUnits="userSpaceOnUse" x1="284.6" y1="119.95" x2="366.4" y2="159.15" spreadMethod="pad"><stop offset="0%" stop-color="#FFF1D6"/><stop offset="100%" stop-color="#FFE2AD"/></linearGradient><linearGradient id="n" gradientUnits="userSpaceOnUse" x1="293.162" y1="137.55" x2="358.238" y2="137.55" spreadMethod="pad"><stop offset="0%" stop-color="#D9B779"/><stop offset="49.412%" stop-color="#966408"/><stop offset="76.863%" stop-color="#A2721B"/><stop offset="89.804%" stop-color="#D4B06F"/></linearGradient><linearGradient id="o" gradientUnits="userSpaceOnUse" x1="354.087" y1="138.938" x2="381.313" y2="197.462" spreadMethod="pad"><stop offset="0%" stop-color="#FFF1D6"/><stop offset="100%" stop-color="#FFE2AD"/></linearGradient><path fill="#FFF" fill-opacity="0" d="M284 0H0v320h284V0z" id="p"/><path fill="url(#a)" d="M350.5 135.8q-9.6-6.95-24.75-11.85-14.8-4.8-31.3-6.5l-.55-.05q.35-2.6-.05-5.2-.75-5.2-4.35-5.1-4.05.1-16.55 8.6-14.55 9.85-20 11.95-3.3 1.3-7.3-2.35-3.75-3.4-6.1-1.85-2.65 1.8-1.35 5.7 1.35 4.2-.2 5.85-17.5 18.4-31.4 37.05-26.95 36.35-23.35 74.95 1.65 17.8 10 33.1 8.4 15.35 22.45 26.15 16.1 12.4 36.4 14.1 18.3 1.5 38.35-5.8 18.45-6.75 35.5-19.8 16.35-12.55 27.75-28 26.55-35.9 25.95-72.9-.35-17.85-7.55-32.6-7.5-15.25-21.6-25.45m8.65 64.7q-1.1 29.5-23.3 59.75-9.3 12.65-23.3 23.1-13.8 10.25-29.05 16.05-15.75 6.05-29.65 6-14.9-.1-25.15-7.25-21.25-14.9-21-44.7.3-29.85 22.1-60.3 9.4-13.1 24.9-23.65 14.5-9.8 31.25-15.4 16.45-5.45 30.6-5.3 14.75.1 23.1 6.45 20.6 15.7 19.5 45.25z" id="q"/><path fill="url(#b)" d="M235.35 168.65l-3.6 2q-4.25 3.3-7.1 5.55-5.45 4.35-8.35 8.05-9.6 12.35-14.45 26.7-2.9 8.65-6.95 29.55.75-2.35 1.95-7.65 4.3-17.8 14.2-34.9 10.8-18.7 24.3-29.3z" id="r"/><path fill="url(#c)" d="M371.05 191.75q-2.15-26.8-18.5-41.55-16.2-14.6-44.15-15.65-10.8-.4-11.55-7.85-.1-1.3.2-5.5.25-2.85-.6-3.45-3.85-2.7-13.85 3.5-5.35 3.5-7.75 5.1-4.25 2.8-6.25 3.45-7.95 2.75-15.05 2.9-4.65.15-6.05 1.85-2.85 3.55-2.15 6.35.35 1.3 2.85 4.4 2.1 2.6 1.95 4.7-.3 3.05-4.85 7.2-26.45 24.1-39.5 50.45-15.1 30.5-8 56.95 4.85 18.05 15.75 29.95 10.4 11.35 25.35 16.1 14.6 4.6 31.9 2.35 17.4-2.35 35.35-11.4 30.95-15.7 49.35-47.3 18.1-31.1 15.55-62.55m-30.85-37q2.45 1.85 5.15 4.55 20.4 17.65 20.5 47.95.15 30.9-21.2 59.9-9.35 12.65-24.15 22.95-14.45 10.05-30.75 15.55-16.85 5.65-31.8 5.15-16.05-.55-27.05-8.25-9.95-6.95-15.6-17.45-5.45-10.15-6.5-22.75-2.05-15.8 3.35-33.7 5.55-18.4 18.15-36 9.4-13.15 24.95-23.7 14.5-9.8 31.2-15.35 16.5-5.5 30.65-5.35 14.75.15 23.1 6.5z" id="s"/><path fill="url(#d)" d="M241.65 135.75q-1.7-.65-5.6 3.15-1.25 1.3-5 5.7-8.75 10.3-10.5 12.4-5.75 7.05-9.75 12.85-8.6 12.7-10.05 15.3-6.1 11.05-3.8 16.75 3.55.85 7.25-4.2.8-1.1 4.55-8 2.45-6.2 4.75-11.55 4.45-10.45 12.05-21.65 5.6-8.25 16.25-9.2 5.05-.5 5.35-.6 1.65-.55.35-2.9l-5.85-8.05z" id="t"/><path fill="url(#e)" d="M344.65 267.15q21.35-29 21.2-59.9-.1-30.3-20.5-47.95 16.5 16.8 14.05 44.5-2.4 27.85-23 55.95-9.3 12.65-23.3 23.05-13.8 10.25-29.05 16.1-15.8 6-29.65 5.95-14.95-.05-25.15-7.2-8.7-6.05-13.9-15.25-5.1-8.9-6.55-20.05 1.05 12.6 6.5 22.75 5.65 10.5 15.6 17.45 11 7.7 27.05 8.25 14.95.5 31.8-5.15 16.3-5.5 30.75-15.55 14.8-10.3 24.15-22.95z" id="u"/><path fill="url(#f)" d="M238.1 124.35l-1 1q-.4.8.6 3.95 1.05 3.3.7 4.8-.7 2.6 5.3 7.6 5.9 4.95 5.15 7.4-1.4 4.6-9.45 13.6-9.1 9.5-11.7 12.5-15.3 17.55-23.85 35.4-10.35 21.45-8.15 38.4-.2-2.2.9-8.4 1.5-8.8 4.75-18.05 9.85-28.15 31.6-49.15 8.4-8.1 11.05-10.8 6.2-6.35 8.15-9.6 1.65-2.8-1.45-10.65-3.75-8.1-4.4-9.65-1.45-.65-3.2-2-3.45-2.65-5-6.35z" id="v"/><path fill="#A6874E" d="M290 119l-2.75.5q3.35 8.95.25 16.2-2.7 6.4-9.3 9.4-6.4 2.95-12.7 1-6.85-2.1-9.9-9.05 3.4 8.9 11.3 10.85 7 1.7 14.45-2.45 7.35-4.1 10.15-11.15 3.15-7.8-1.5-15.3z" id="w"/><path fill="url(#g)" d="M230.35 300.85l4.75 3.35q6.2 3.6 13.5 4.95 11.65 2.2 25.5-.25 3.25-.55 4.5-1.2 1.85-.95 1.1-2.55-.85-1.65-2.45-2.05-1.45-.4-4 .15-15.35 3.45-24 2.5-8.9-1-18.9-4.9z" id="x"/><path fill="url(#h)" d="M314.85 282.55q-8 6.2-12.55 8.2 2.25.1 3.95 2.35 1.75 2.3.6 4.35 1.1-.65 4.45-2.6 2.95-1.9 3.95-3.25.95-1.3 0-4.15-1.1-3.15-.4-4.9z" id="y"/><path fill="url(#i)" d="M358.25 242q-1.05 2.2-6.4 3-5.55.85-7.05 3.2-4.1 6.6-5.2 8l1.05.65q1.2.9 2 2.1 2.5 3.8-.2 9.15 4-4.05 8.8-12.4 3.85-6.6 7-13.7z" id="z"/><path fill="url(#j)" d="M360.95 184.85l-4.1-7.3q2.95 10.7 3.1 19.8.3 6.25-.8 13.25-1.15 7.35-3.3 11.6 3.2-4.7 5.6-9.2 3.45-6.45 3.5-9.45.1-9.5-4-18.7z" id="A"/><path fill="url(#k)" d="M368.7 235.55q5.8-14.7 6.45-23.85.15-2.45.1-3-.15-1.35-1.25-1.65-2.1-.45-3.15 3.35-.6 2.15-1.25 6.7-2.5 12.55-6.75 22.75-3.1 7.45-8.4 16.35-7.95 13.35-18.8 24-5.55 5.45-10.95 10 4.6-2.6 11-7.95 12.75-10.6 21.7-24.05 5.9-8.85 11.3-22.65z" id="B"/><path fill="url(#l)" d="M200.8 183.75q3-5.85 5.6-10.35-7.55 9.15-16.65 31.55-3.35 8.1-2.75 16.85.45 7.35 3.9 16.85 1.05 2.9 2.75 14.3 1.45 9.9 4.85 16.3-3.6-10.65-3.9-19.4-.2-4.25.7-9.85.05-.3.6-2.8.4-1.8.35-2.9-.15-2.95-2.1-8.8-2.1-6.3-2.45-8.65-.55-4-.25-7.5.3-3.2 1.45-7.4 1.9-6.55 7.9-18.2z" id="C"/><path fill="#D9B779" d="M218.3 290.35l3.2 4.8q4.6 5.6 11.6 9.4 10 5.4 23.25 6.45-13.5-2.95-20.45-6.25-10.2-4.85-17.6-14.4z" id="D"/><path fill="url(#m)" d="M328.05 139.55q7.05 1.1 10.3 2.5 9.65 4.05 16.95 11.4 6.55 6.6 12.05 16.8-7.05-19.85-23.55-31.65-9.4-6.7-22.05-9.9-3-.8-23.2-4.25l-.9 2.65q2.7 7.65 18 10.55 4.1.75 12.4 1.9z" id="E"/><path fill="url(#n)" d="M341.15 141.85q-4.75-2.65-14.05-4.9-5.2-1.2-9.65-1.9-5.75-.9-7.85-1.35-4.15-.9-6.85-2.25-1.95-1-3-3.7-.4-1-1.25-4.9-.65-2.9-1.55-3.9-1.25-1.45-3.8-.7.55 2.7 1.3 8.75 1.2 5.1 4.75 6.85 1.05.5 3.9 1.2 1.6.4 4.65 1.1 2.4.65 14.95 2.8 12.65 2.45 18.35 5.05 7.55 3.45 13.15 8.65 2.8 2.55 4.05 4.45-1.3-2.1-4.1-5.05-5.55-5.95-13-10.2z" id="F"/><path fill="#F2D399" d="M292.35 108.4q-2.85-.6-3.7 1.2-.45 2.35-.85 3.15-.7 1.45-.35 4.35.35 3.1 1.7 2.65 1.35-.45 2.3 3.4.95 3.7.65 7.15-.4 4.7-4.45 9.8-3.748 4.696-7.9 6.15 4.157-1.319 7.5-4.3 3.9-3.5 5.25-8.05 1.2-3.95.45-9.5-.7-5-.2-5.8.7-1.05 1.95-1.1 1.7-.05 2.9 2.4-1.2-4.35-1.9-6.1-1.3-3.25-3.35-5.4z" id="G"/><path fill="#8A7041" d="M286.9 140.55q2.95-3.6 4.1-9.9.95-5.1-1.25-13.1-2.5-9.25-7.1-9.3l-8.8 5.65q-10.3 1.75-15.65 3.2-9.6 2.6-13.6 7.9 3.5 2.25 7.2 7.3 2.1 2.85 6.1 8.7 3.55 4.7 6.8 6.45 4.25 2.25 9.45.65 8.75-2.65 12.75-7.55z" id="H"/><path fill="#E31614" d="M289.85 127.25q2.2-8.35.1-15.45-2.55-8.6-10.4-3.9-8.7 5.2-15.85 7.6-8.2 2.7-17.1 2.7l-4.55-.85q1.55 9.75 12.2 19 10.45 9 20.55 9.9 4.95.45 9.7-6.95 3.7-5.65 5.35-12.05z" id="I"/><path fill="#FF1916" d="M290.75 116l-1.55-7.4-5.85-5.85-5.85-1.95h-6.45l-4.85 2.55-3.7 4.7-4.7-1.2-5.25.2-5.65 1.95-3.9 4.1-.95 4.25 1.35 4.9 3.3 3.7 6.4 5.05 6.85 4.1 8.35 2.55 8.2.6 3.5-1.2 6.05-5.65 3.5-6.8 1.2-8.6z" id="J"/><path fill="#FF1916" d="M287.9 127.45q4.2-8.2 1.85-16.25-1.05-3.65-4.75-6.4-3.45-2.55-7.95-3.35-4.65-.8-8.45.75-4.2 1.7-6.1 5.85-11-3.3-17.25 2.4-6.45 5.8.1 14.75 4.55 6.3 14.65 10.2 9.9 3.75 16.4 2.05 7.3-1.95 11.5-10z" id="K"/><path fill="#FF706B" d="M250.75 122.1q3 3.3 10.65 6.7 8.55 3.75 12.95 2.6 5.1-1.3 8.4-8.9 3-7 1.75-11.05-1.8-6-9.7-7.4-8.1-1.4-11 5-8.4-2.5-13.5 2.1-5.25 4.75.45 10.95z" id="L"/><path fill="#F2D399" d="M253.45 133.4l-1.2.25q1.4.9 2.25 2.8 4.7 10.2 12.25 12.25 3.75 1.05 6.5 0-7.75 1-13.55-5.7-1.9-2.15-3.85-5.5-2.35-4.05-2.4-4.1z" id="M"/><path fill="#D9B779" d="M255.5 137.55q-.9-2-1.65-3-1.25-1.75-2.7-.95-1.25.7-1.05 2.95.15 1.95 1 3.25 1.05 1.6 2.7 2.85 2.2 1.65 3.25.35.65-.85-.15-2.8-.25-.55-1.4-2.65z" id="N"/><path fill="#F2D399" d="M237.3 126q1.9 1.75 4.35 4.25 4.05 4 4.95 5.4 2.1 3.4 3.75 7.3 2.7 6.5 1.8 10.05 1.95-3.25-.5-9.3-2.45-6.15-1.65-7.6.65-1.15 2.05-1.45 1.4-.3 2.3.45l.45.45-.7-1.25q-.6-1.2-.95-1.55-1.25-1.9-2.7-3.35-1.85-1.6-3.05-2.65-1.3-1.25-2.4-2.15-2.15-1.65-3.65-1.75-1.75-.05-3.3 1.2-1.5 1.3-.75 1.95z" id="O"/><path fill="url(#o)" d="M363.75 148.2q-1.05-1.15-1.4-1.4-.7-.55-1.35-.15-1.2.8.15 3 .8 1.25 2.65 3.6 4.9 6.85 7.9 13.5 2.15 4.8 4.05 11.4 2.8 9.85 3 19.8.1 5.1-.15 9.75.8-3.4 1.15-8.85.65-10.9-1.75-21.25-1.55-6.75-5.7-15.6-4.45-9.4-8.55-13.8z" id="P"/><path fill="#C51A21" d="M259.95 135.1l-7.6-4.25 5.1 7.85 5.4 3.65-2.9-7.25z" id="Q"/><path fill="#EE170D" d="M261.7 136.3l-1.75-1.2 2.9 7.25 2.4 1.15-3.55-7.2z" id="R"/><path fill="#FF5049" d="M248.05 115.65l.4-2.15-5.45-.4-.95 4.25 6-1.7z" id="S"/><path fill="#FF5049" d="M283.7 110l5.5-1.4-5.85-5.85-3.35 3.35 3.7 3.9z" id="T"/><path fill="#FF5049" d="M277.5 100.8h-6.45l.2 3.35 4.85.35 1.4-3.7z" id="U"/><path fill="#FF5049" d="M276.5 138.25l3.5-1.2-4.45-6.2-1.2.55 2.15 6.85z" id="V"/><path fill="#FF5049" d="M265.45 137.4l-5.5-2.3 2.9 7.25 5.5 2.6-2.9-7.55z" id="W"/><path fill="#FF5049" d="M250.2 121.45l-2.15-3.85-1.95 3.5 4.1.35z" id="X"/><path fill="#FF5049" d="M290.35 121.1l-5.85-4.1-1.55 4.3 7.4-.2z" id="Y"/><path fill="#FF5049" d="M286.25 130.45l1.95-3.15-5.45-4.85-.8 2.35 4.3 5.65z" id="Z"/><path fill="#BA0600" d="M280 137.05l-3.5 1.2.2 7.8 2.15-1 1.15-8z" id="aa"/><path fill="#C90700" d="M280 137.05l-1.15 8 1.15-.6 2.95-10.1-2.95 2.7z" id="ab"/><path fill="#FFA8A8" d="M259.4 128.2l5.85 2.3 10.3-6.5 7.4-2.7 1.55-4.3-8 3.1-17.1 8.1z" id="ac"/><path fill="#FF8A8A" d="M284.5 117l.25-4.7-30.3 12.7 4.95 3.2 25.1-11.2z" id="ad"/><path fill="#B30200" d="M289.2 108.6l-5.5 1.4 1.05 2.3 6 3.7-1.55-7.4z" id="ae"/><path fill="#B30200" d="M290.8 117.05l-5.5 21.2 4.55-10.4.95-10.8z" id="af"/><path fill="#F66" d="M254.25 129.5l-5.65-2.1 3.75 3.4 7.55 4.05-1.3-5.55-2.25-.2-2.1.4z" id="ag"/><path fill="#F66" d="M265.25 130.5l-5.7-2.45.4 7.05 5.6 2.05-.3-6.65z" id="ah"/><path fill="#D60700" d="M282.95 134.35l-5.6-3.85 4.55 4.9 1.05-1.05z" id="ai"/><path fill="#D60700" d="M283.6 130.5l2.65-.05-4.3-5.65-2.9 3.6 4.55 2.1z" id="aj"/><path fill="#FF837D" d="M289.5 121l-4.35.4 2.8 5.3 1.55-5.7z" id="ak"/><path fill="#FFA8A8" d="M280.4 106.45l-9.45 8.35 12.75-4.8-3.3-3.55z" id="al"/><path fill="#FFA3A3" d="M250.2 121.45l.55.65 3.7 2.9 5.2 3.2L279 115l-12.25 1.1-16.55 5.35z" id="am"/><path fill="#FFB5B5" d="M253.1 131l6.85 4.1 5.05 2.15 12 1.2.65-.5-3.3-6.55.95 5.15-4.65 1.15-5.2-.95-1.15-5.3-1.3 4.35-2.95-1.05-6.95-3.75z" id="an"/><path fill="#D60700" d="M249.7 122.75l-5.45.35 3.75 3.8 4.55-3.25-2.85-.9z" id="ao"/><path fill="#FFB5B5" d="M256.3 129.1l-2.1.4 5.1 2.75-.75-2.95-2.25-.2z" id="ap"/><path fill="#FFB5B5" d="M244.25 123.1l5.45-.35-7.75-4.95 2.3 5.3z" id="aq"/><path fill="#A10200" d="M249.7 111.35l-3.7 2 2.45.15 1.25-2.15z" id="ar"/><path fill="#A10200" d="M283.35 102.75l-7.25 1.75 3.9 1.6 3.35-3.35z" id="as"/><path fill="#A10200" d="M289.5 121l1.3-3.95-6.3-.05 5 4z" id="at"/><path fill="#FF5049" d="M284.5 117l4.25-.15-1.9-3.2-2.1-1.35-.25 4.7z" id="au"/><path fill="#FF837D" d="M283.7 110l3.7-1.1-7.4-2.8 3.7 3.9z" id="av"/><path fill="#A10200" d="M263.3 109.6l-.8-1.55-4.7-1.2.05 1.55 5.45 1.2z" id="aw"/><path fill="#FF837D" d="M252.55 107.05L246.9 109l6.05.45-.4-2.4z" id="ax"/><path fill="#FF837D" d="M262.45 107.95l.85 1.7 1.55-2.35 2.1-1.8-.75-2.15-2.7 2.85-1.05 1.75z" id="ay"/><path fill="#FF837D" d="M274.8 146.25l1.9-.2-.2-7.8-5.95-.2 4.25 8.2z" id="az"/><path fill="#FF837D" d="M270 131.65l-4.75-1.15.2 6.25 5.1 1.3-.55-6.4z" id="aA"/><path fill="#FF8F8F" d="M248.05 117.6l1.65 3.6 26.4-16.7-4.85-.35-7.95 5.45-15.25 8z" id="aB"/><path fill="#D60700" d="M255.25 126.15l-1 2.4 3.15-1.15-2.15-1.25z" id="aC"/><path fill="#FF1300" d="M257.4 127.4l2.55 7.7-.55-6.9-2-.8z" id="aD"/><path fill="#F8B7A3" d="M248.05 117.6v-1.95l-6 1.7 6 .25z" id="aE"/><path fill="#FF928A" d="M265.25 130.5l4.75 1.15 9.05-3.25 2.9-3.6 1-3.5-17.7 9.2z" id="aF"/><path fill="#FFFBFF" d="M240.2 123.65l.55-.7q-4.65 1.65-3.35 3.6 0 .05 3.65 2.9 2.4 1.9 3.65 3.2 1.8 1.9 2.75 3.95.35-1.5 3.15-3.35-9.35-4.1-10.55-7.6-.35-1.1.15-2z" id="aG"/><path fill="#FFE0E0" d="M276.4 137.45l-4.9-5.6 4.15 6.1-6.05 4.7 6.4-4.15 4.95 6.15-4.15-6.55 5.65-4.6-6.05 3.95z" id="aH"/><path fill="#FFE0E0" d="M265.55 136.85l-.55-2.95.2 2.95-3.05.4 3.05-.15.45 3.15-.1-3.1 2.9-.45-2.9.15z" id="aI"/></defs><use xlink:href="#p"/><use xlink:href="#q" transform="matrix(1.14789 0 0 1.14778 -180.991 -53.746)"/><use xlink:href="#r" transform="matrix(1.14789 0 0 1.14778 -180.991 -53.746)"/><use xlink:href="#s" transform="matrix(1.14789 0 0 1.14778 -180.991 -53.746)"/><use xlink:href="#t" transform="matrix(1.14789 0 0 1.14778 -180.991 -53.746)"/><use xlink:href="#u" transform="matrix(1.14789 0 0 1.14778 -180.991 -53.746)"/><use xlink:href="#v" transform="matrix(1.14789 0 0 1.14778 -180.991 -53.746)"/><use xlink:href="#w" transform="matrix(1.14789 0 0 1.14778 -180.991 -53.746)"/><use xlink:href="#x" transform="matrix(1.14789 0 0 1.14778 -180.991 -53.746)"/><use xlink:href="#y" transform="matrix(1.14789 0 0 1.14778 -180.991 -53.746)"/><use xlink:href="#z" transform="matrix(1.14789 0 0 1.14778 -180.991 -53.746)"/><use xlink:href="#A" transform="matrix(1.14789 0 0 1.14778 -180.991 -53.746)"/><use xlink:href="#B" transform="matrix(1.14789 0 0 1.14778 -180.991 -53.746)"/><use xlink:href="#C" transform="matrix(1.14789 0 0 1.14778 -180.991 -53.746)"/><use xlink:href="#D" transform="matrix(1.14789 0 0 1.14778 -180.991 -53.746)"/><use xlink:href="#E" transform="matrix(1.14789 0 0 1.14778 -180.991 -53.746)"/><use xlink:href="#F" transform="matrix(1.14789 0 0 1.14778 -180.991 -53.746)"/><use xlink:href="#G" transform="matrix(1.14789 0 0 1.14778 -180.991 -53.746)"/><use xlink:href="#H" transform="matrix(1.14789 0 0 1.14778 -180.991 -53.746)"/><use xlink:href="#I" transform="matrix(1.14789 0 0 1.14778 -180.991 -53.746)"/><use xlink:href="#J" transform="matrix(1.14789 0 0 1.14778 -180.991 -53.746)"/><use xlink:href="#K" transform="matrix(1.14789 0 0 1.14778 -180.991 -53.746)"/><use xlink:href="#L" transform="matrix(1.14789 0 0 1.14778 -180.991 -53.746)"/><use xlink:href="#M" transform="matrix(1.14789 0 0 1.14778 -180.991 -53.746)"/><use xlink:href="#N" transform="matrix(1.14789 0 0 1.14778 -180.991 -53.746)"/><use xlink:href="#O" transform="matrix(1.14789 0 0 1.14778 -180.991 -53.746)"/><use xlink:href="#P" transform="matrix(1.14789 0 0 1.14778 -180.991 -53.746)"/><use xlink:href="#Q" transform="matrix(1.14789 0 0 1.14778 -180.991 -53.746)"/><use xlink:href="#R" transform="matrix(1.14789 0 0 1.14778 -180.991 -53.746)"/><use xlink:href="#S" transform="matrix(1.14789 0 0 1.14778 -180.991 -53.746)"/><use xlink:href="#T" transform="matrix(1.14789 0 0 1.14778 -180.991 -53.746)"/><use xlink:href="#U" transform="matrix(1.14789 0 0 1.14778 -180.991 -53.746)"/><use xlink:href="#V" transform="matrix(1.14789 0 0 1.14778 -180.991 -53.746)"/><use xlink:href="#W" transform="matrix(1.14789 0 0 1.14778 -180.991 -53.746)"/><use xlink:href="#X" transform="matrix(1.14789 0 0 1.14778 -180.991 -53.746)"/><use xlink:href="#Y" transform="matrix(1.14789 0 0 1.14778 -180.991 -53.746)"/><use xlink:href="#Z" transform="matrix(1.14789 0 0 1.14778 -180.991 -53.746)"/><use xlink:href="#aa" transform="matrix(1.14789 0 0 1.14778 -180.991 -53.746)"/><use xlink:href="#ab" transform="matrix(1.14789 0 0 1.14778 -180.991 -53.746)"/><use xlink:href="#ac" transform="matrix(1.14789 0 0 1.14778 -180.991 -53.746)"/><use xlink:href="#ad" transform="matrix(1.14789 0 0 1.14778 -180.991 -53.746)"/><use xlink:href="#ae" transform="matrix(1.14789 0 0 1.14778 -180.991 -53.746)"/><use xlink:href="#af" transform="matrix(1.14789 0 0 1.14778 -180.991 -53.746)"/><use xlink:href="#ag" transform="matrix(1.14789 0 0 1.14778 -180.991 -53.746)"/><use xlink:href="#ah" transform="matrix(1.14789 0 0 1.14778 -180.991 -53.746)"/><use xlink:href="#ai" transform="matrix(1.14789 0 0 1.14778 -180.991 -53.746)"/><use xlink:href="#aj" transform="matrix(1.14789 0 0 1.14778 -180.991 -53.746)"/><use xlink:href="#ak" transform="matrix(1.14789 0 0 1.14778 -180.991 -53.746)"/><use xlink:href="#al" transform="matrix(1.14789 0 0 1.14778 -180.991 -53.746)"/><use xlink:href="#am" transform="matrix(1.14789 0 0 1.14778 -180.991 -53.746)"/><use xlink:href="#an" transform="matrix(1.14789 0 0 1.14778 -180.991 -53.746)"/><use xlink:href="#ao" transform="matrix(1.14789 0 0 1.14778 -180.991 -53.746)"/><use xlink:href="#ap" transform="matrix(1.14789 0 0 1.14778 -180.991 -53.746)"/><use xlink:href="#aq" transform="matrix(1.14789 0 0 1.14778 -180.991 -53.746)"/><use xlink:href="#ar" transform="matrix(1.14789 0 0 1.14778 -180.991 -53.746)"/><use xlink:href="#as" transform="matrix(1.14789 0 0 1.14778 -180.991 -53.746)"/><use xlink:href="#at" transform="matrix(1.14789 0 0 1.14778 -180.991 -53.746)"/><use xlink:href="#au" transform="matrix(1.14789 0 0 1.14778 -180.991 -53.746)"/><use xlink:href="#av" transform="matrix(1.14789 0 0 1.14778 -180.991 -53.746)"/><use xlink:href="#aw" transform="matrix(1.14789 0 0 1.14778 -180.991 -53.746)"/><use xlink:href="#ax" transform="matrix(1.14789 0 0 1.14778 -180.991 -53.746)"/><use xlink:href="#ay" transform="matrix(1.14789 0 0 1.14778 -180.991 -53.746)"/><use xlink:href="#az" transform="matrix(1.14789 0 0 1.14778 -180.991 -53.746)"/><use xlink:href="#aA" transform="matrix(1.14789 0 0 1.14778 -180.991 -53.746)"/><use xlink:href="#aB" transform="matrix(1.14789 0 0 1.14778 -180.991 -53.746)"/><use xlink:href="#aC" transform="matrix(1.14789 0 0 1.14778 -180.991 -53.746)"/><use xlink:href="#aD" transform="matrix(1.14789 0 0 1.14778 -180.991 -53.746)"/><use xlink:href="#aE" transform="matrix(1.14789 0 0 1.14778 -180.991 -53.746)"/><use xlink:href="#aF" transform="matrix(1.14789 0 0 1.14778 -180.991 -53.746)"/><use xlink:href="#aG" transform="matrix(1.14789 0 0 1.14778 -180.991 -53.746)"/><use xlink:href="#aH" transform="matrix(1.14789 0 0 1.14778 -180.991 -53.746)"/><use xlink:href="#aI" transform="matrix(1.14789 0 0 1.14778 -180.991 -53.746)"/></svg>