<svg xmlns="http://www.w3.org/2000/svg" xmlns:xlink="http://www.w3.org/1999/xlink" preserveAspectRatio="none" width="284" height="320"><defs><radialGradient id="a" gradientUnits="userSpaceOnUse" cx="0" cy="0" r="172.125" fx="0" fy="0" gradientTransform="matrix(1 0 0 -1 42.6 367.35)" spreadMethod="pad"><stop offset="9.02%" stop-color="#EDCB6B"/><stop offset="74.902%" stop-color="#995200"/><stop offset="100%" stop-color="#7A4200"/></radialGradient><linearGradient id="b" gradientUnits="userSpaceOnUse" x1="150.975" y1="358.413" x2="59.725" y2="536.188" spreadMethod="pad"><stop offset="8.235%" stop-color="#E3D472"/><stop offset="21.176%" stop-color="#DCC152"/><stop offset="43.529%" stop-color="#FFFEC7"/><stop offset="65.098%" stop-color="#B5882B"/><stop offset="91.373%" stop-color="#9A7A37"/><stop offset="100%" stop-color="#B99A42"/></linearGradient><linearGradient id="c" gradientUnits="userSpaceOnUse" x1="40.313" y1="358.813" x2="10.487" y2="420.388" spreadMethod="pad"><stop offset="0%" stop-color="#DCC152"/><stop offset="37.255%" stop-color="#FFFEC7"/><stop offset="54.902%" stop-color="#FCF9C0"/><stop offset="100%" stop-color="#D1AC4E"/></linearGradient><linearGradient id="d" gradientUnits="userSpaceOnUse" x1="237.262" y1="476.925" x2="35.137" y2="393.775" spreadMethod="pad"><stop offset="0%" stop-color="#EDCB6B"/><stop offset="100%" stop-color="#7A4200"/></linearGradient><radialGradient id="e" gradientUnits="userSpaceOnUse" cx="0" cy="0" r="165.767" fx="-1.918" fy="10.223" gradientTransform="scale(-1 1) rotate(79.376 -272.841 156.978)" spreadMethod="pad"><stop offset="0%" stop-color="#FC9F99"/><stop offset="58.824%" stop-color="#E60202"/><stop offset="100%" stop-color="#BB0202"/></radialGradient><linearGradient id="f" gradientUnits="userSpaceOnUse" x1="176.625" y1="440.688" x2="178.875" y2="466.813" spreadMethod="pad"><stop offset="0%" stop-color="#DE1C1B"/><stop offset="100%" stop-color="#DF0C0C"/></linearGradient><radialGradient id="g" gradientUnits="userSpaceOnUse" cx="0" cy="0" r="131.788" fx="0" fy="0" gradientTransform="matrix(1 0 0 -1 109.7 429.55)" spreadMethod="pad"><stop offset="0%" stop-color="#E60202"/><stop offset="100%" stop-color="#960202"/></radialGradient><radialGradient id="h" gradientUnits="userSpaceOnUse" cx="0" cy="0" r="21.3" fx="0" fy="0" gradientTransform="matrix(1 0 0 -1 165.25 474.85)" spreadMethod="pad"><stop offset="0%" stop-color="#D10202"/><stop offset="100%" stop-color="#D10D0D"/></radialGradient><radialGradient id="i" gradientUnits="userSpaceOnUse" cx="0" cy="0" r="238.375" fx="0" fy="0" gradientTransform="matrix(1 0 0 -1 56.75 389.45)" spreadMethod="pad"><stop offset="0%" stop-color="#FC9F99"/><stop offset="58.824%" stop-color="#E60202"/><stop offset="100%" stop-color="#BB0202"/></radialGradient><radialGradient id="j" gradientUnits="userSpaceOnUse" cx="0" cy="0" r="84.275" fx="0" fy="0" gradientTransform="matrix(1 0 0 -1 141.25 384.5)" spreadMethod="pad"><stop offset="0%" stop-color="#FF5757"/><stop offset="100%" stop-color="#EA1E1D"/></radialGradient><radialGradient id="k" gradientUnits="userSpaceOnUse" cx="0" cy="0" r="131.775" fx="0" fy="0" gradientTransform="matrix(1 0 0 -1 109.7 429.55)" spreadMethod="pad"><stop offset="0%" stop-color="#E60202"/><stop offset="100%" stop-color="#960202"/></radialGradient><radialGradient id="l" gradientUnits="userSpaceOnUse" cx="0" cy="0" r="118.838" fx="0" fy="0" gradientTransform="matrix(1 0 0 -1 63.75 383.6)" spreadMethod="pad"><stop offset="0%" stop-color="#FF7E7A"/><stop offset="100%" stop-color="#EA201F"/></radialGradient><radialGradient id="m" gradientUnits="userSpaceOnUse" cx="0" cy="0" r="76.3" fx="0" fy="0" gradientTransform="matrix(1 0 0 -1 65.1 403.45)" spreadMethod="pad"><stop offset="0%" stop-color="#FF9892"/><stop offset="100%" stop-color="#EF403E"/></radialGradient><radialGradient id="n" gradientUnits="userSpaceOnUse" cx="0" cy="0" r="70.45" fx="0" fy="0" gradientTransform="matrix(1 0 0 -1 54.75 388.55)" spreadMethod="pad"><stop offset="0%" stop-color="#FBBAB4"/><stop offset="75.686%" stop-color="#F98B86"/></radialGradient><path fill="#F6C" d="M284 320V0H0v320h284z" id="o"/><path fill="url(#a)" d="M33.05 363.5q-8.45 6-14.6 14.6-6.05 8.45-9.25 18.5-3.25 10.2-3.25 21v2q.45 15.45 7.55 29.8 7.55 15.25 21.6 26.95 9 7.45 21.25 14.7 4.1 2.4 20.75 11.45 19.25 8.5 33 22.1 6.85 6.8 9.85 11.9 2.9-4.85 9.75-11.6 13.7-13.4 33.35-22.55 17.55-9.15 21.25-11.25 12.55-7.2 21.6-14.75 14.25-11.85 21.8-27.35 7.1-14.55 7.35-30.15v-.95l.05-.2-.05-.2q0-10.75-3.25-20.9-3.2-10.05-9.25-18.5-5.85-8.15-13.8-14.05Q200.5 358 190.8 355l-3.9-1.05q-8.05-1.9-16-1.9-20.75.05-39.4 12.1-5.4 3.4-11 8.25-5.55-4.85-11-8.25-18.65-12.05-39.35-12.1-9 0-18 2.4-10.35 2.8-19.1 9.05m-11.3 16.95q5.75-8.05 13.65-13.65 8.2-5.8 17.8-8.4 8.4-2.3 16.95-2.3 19.45.05 37.15 11.45 6.25 3.95 11.85 9.1l1.35 1.25 1.35-1.25q5.6-5.15 11.85-9.1 17.7-11.4 37.2-11.45 7.55 0 14.95 1.8l-1.9 7.15 3.9 1.05 1.9-7.15q9 2.75 16.65 8.45 7.35 5.45 12.85 13.05 5.65 7.95 8.7 17.35 3.05 9.6 3.05 19.7v1.1q-.2 14.75-6.9 28.55-7.2 14.75-20.8 26.1-8.8 7.3-21 14.3-4.25 2.4-21.15 11.2-12.1 6.25-19.05 10.85-9.35 6.15-15.15 12.85l-7 7.95-7.15-7.85q-5.85-6.55-15.05-12.7-6.85-4.6-18.7-10.95-16.15-8.65-20.65-11.35-11.95-7.05-20.7-14.35-13.8-11.5-20.95-26.45-6.75-14-6.75-28.95v-.75q.1-10 3.15-19.45 3-9.25 8.6-17.15m48.4-9.45q-6.65 0-13.1 1.75-7.05 1.9-13 6.15-5.85 4.15-10.2 10.2-3.95 5.55-6.25 12.1-2.35 6.65-2.7 13.75v.65l.05.1-.1 2.1q.1 11.7 5.3 22.55 5.7 11.9 17.1 21.45 7.65 6.45 18.7 12.95 4.95 2.9 20.15 11.05 10.9 5.9 16.75 9.65 9.05 5.7 15.55 11.65l1.4 1.3 1.35-1.3q6.65-6.15 15.95-11.95 6.25-3.9 17.25-9.6 16-8.3 20.55-10.9 11.25-6.45 18.85-12.85 10.95-9.2 16.65-20.55 5.25-10.35 5.7-21.6h.05v-4.1h-.05q-.3-7.25-2.65-14.1-2.3-6.7-6.3-12.35-8.2-11.4-20.85-15.65l.05-.05-2.4-.65Q177.5 371 170.9 371q-15.1 0-29.2 9.1-8.9 5.65-15.55 13.4l-5.65 6.55-5.65-6.55q-6.65-7.75-15.55-13.4-14.1-9.1-29.15-9.1m-12.05 5.65q5.9-1.6 12-1.6 13.8.05 27.05 8.45 8.1 5.2 14.65 12.65l8.7 10.1 8.7-10.1q6.6-7.5 14.7-12.65 13.15-8.4 27-8.45 5.95 0 11.8 1.55l.2.05q12.85 3.45 20.95 14.85 3.95 5.45 6.1 12.1 2.15 6.8 2.15 13.95v.05q-.1 10.9-4.85 20.9-5.3 11.1-16.1 20.2-7.3 6.1-18.3 12.4-4.65 2.65-20.4 10.85-10.65 5.55-16.75 9.3-9.2 5.65-15.95 11.65-6.6-5.8-15.5-11.35-5.8-3.65-16.25-9.3-15-8.05-19.95-11-10.85-6.35-18.2-12.55-10.75-9.1-16.05-20.1-4.8-9.9-4.9-20.75l.15-3.2-.05-.1q.85-12.9 8.15-23.05 8.1-11.4 20.95-14.85z" id="p"/><path fill="url(#b)" d="M34.2 365.15Q26.05 371 20.1 379.3q-5.85 8.2-9 17.95-3.15 9.9-3.15 20.35v.1q0 15.4 6.95 29.9 7.35 15.4 21.5 27.2 8.85 7.4 20.95 14.55 4.4 2.55 20.75 11.35 20.9 10.05 33.45 22.4 6.3 6.2 8.4 10.35 2.95-5 9.7-11.65 13.5-13.2 32.45-21.25 17.25-9 21.2-11.25 12.4-7.1 21.3-14.5 13.95-11.65 21.3-26.75 6.95-14.25 7.15-29.45v-1.1q-.05-10.45-3.2-20.3-3.1-9.75-8.95-17.9-5.95-8.3-14.1-14.15-8.5-6.05-18.45-8.75-8.7-2.3-17.45-2.3-20.1.05-38.3 11.75-6.55 4.2-12.1 9.3-5.55-5.1-12.1-9.3-18.2-11.7-38.25-11.75-8.8 0-17.5 2.3-9.95 2.7-18.45 8.75m11 15.4q5.65-4.05 12.35-5.85 6.3-1.7 12.55-1.7 14.6.05 28.1 8.8 8.4 5.3 15.15 13.05l7.15 8.3 7.15-8.3q6.65-7.65 15.15-13.05 13.5-8.75 28.1-8.8 6.25 0 12.55 1.7 6.7 1.8 12.35 5.85 5.55 4 9.7 9.75 4.15 5.75 6.35 12.7 2.25 7.1 2.25 14.6v.05q-.05 11.35-5 21.75-5.5 11.5-16.65 20.85-7.45 6.25-18.55 12.6-5.05 2.9-20.5 10.9-11.15 5.8-17.4 9.65-9.45 5.9-16.2 12.2-6.7-6.1-15.85-11.9-6.05-3.8-16.9-9.65Q72 476 67 473q-10.9-6.45-18.45-12.75-11.1-9.3-16.6-20.8Q27 429.1 26.9 417.8l.1-2.65-.05-.05q.35-6.85 2.55-13.25 2.2-6.3 6-11.55 4.15-5.75 9.7-9.75z" id="q"/><path fill="url(#c)" d="M26 378.65q-1.8-3.75 4.25-9.6 4.75-4.55 12.6-9-13.7 6.55-22.75 19.25-5.85 8.2-9 17.95-3.15 9.9-3.15 20.35l.05 1.95q.6-2.05 1.9-3.15 1.45-1.25 3.25-.8 2.55.6 3.65 3.05.9 1.95 1.9 8.2-1.1-10.5 2.65-23.9 4.05-14.55 11.4-22.4-1.3.6-2.75.6-2.8 0-4-2.5z" id="r"/><path fill="#FFFEE0" d="M13 392.15q0 2.45 2.15 3.5 3.6 1.7 5.55.65 1.65-.95 3.9-5.4 2.1-3.15 2.55-4.75.75-2.9-2.65-4.8-3.25-1.8-6.5 1.1-2.8 4.4-5 9.7z" id="s"/><path fill="url(#d)" d="M70.1 363.55q-7.5 0-15 2-16.8 4.55-27.3 19.25-10.4 14.5-10.4 32.8 0 13.35 5.95 25.85 6.45 13.5 19.1 24.05 8.2 6.85 19.75 13.65 4.65 2.75 20.4 11.2 25.3 13.65 35.75 25.2l1.5 1.7 1.5-1.7q10.45-11.95 36.4-25.45 16.35-8.45 20.85-11.05 11.75-6.7 19.95-13.55 12.65-10.55 19.1-24.05 5.95-12.5 5.95-25.85 0-18.3-10.4-32.8-10.5-14.7-27.3-19.25-7.5-2-15-2-17.25.05-33.2 10.25-9.8 6.25-17.2 14.85-7.4-8.6-17.2-14.85-15.95-10.2-33.2-10.25z" id="t"/><path fill="#960202" d="M55.65 367.5q-13.6 3.65-23.2 14.65Q23.1 392.9 20.4 407.4q-2.85 15.15 2.55 29.9 5.95 16.2 20.8 28.65 8 6.75 19.45 13.45 4.4 2.6 20.35 11.15 25.5 13.75 36.3 25.65 10.9-12.35 37-25.9 16.55-8.6 20.75-11 11.65-6.65 19.65-13.35 14.85-12.45 20.8-28.65 5.4-14.75 2.6-29.9-2.7-14.5-12.1-25.25-9.6-11-23.2-14.65-24.25-6.45-46.95 8.3-11.4 7.4-17.9 16.05-6.5-8.65-17.85-16.05-22.75-14.75-47-8.3z" id="u"/><path fill="url(#e)" d="M55.65 367.5q-13.6 3.65-23.2 14.65Q23.1 392.9 20.4 407.4q-2.85 15.15 2.55 29.9 5.95 16.2 20.8 28.65 8 6.75 19.45 13.45 4.4 2.6 20.35 11.15 25.5 13.75 36.3 25.65 10.9-12.35 37-25.9 16.55-8.6 20.75-11 11.65-6.65 19.65-13.35 14.85-12.45 20.8-28.65 5.4-14.75 2.6-29.9-2.7-14.5-12.1-25.25-9.6-11-23.2-14.65-24.25-6.45-46.95 8.3-11.4 7.4-17.9 16.05-6.5-8.65-17.85-16.05-22.75-14.75-47-8.3z" id="v"/><path fill="url(#f)" d="M200.9 440.2q-.6.95-1.5 2-2.5 3.1-7.85 6.85-5.5 3.9-12.95 7.75-9.35 14.95-22.65 26.95 10.55-4.4 20.3-10.35 16.8-14.85 24.65-33.2z" id="w"/><path fill="url(#g)" d="M155.95 483.75q-6.8 6.1-12.75 9.7 18.05-6.85 33.05-20.05-9.75 5.95-20.3 10.35z" id="x"/><path fill="url(#h)" d="M155.95 483.75q-6.8 6.1-12.75 9.7 18.05-6.85 33.05-20.05-9.75 5.95-20.3 10.35z" id="y"/><path fill="url(#i)" d="M140.25 389.6q8.6-4.35 16.45-5.65 25.15-4.25 33.25 23.1 3.35 11.25-.2 24.9-3.1 12.05-11.15 24.85 7.45-3.85 12.95-7.75 5.35-3.75 7.85-6.85.9-1.05 1.5-2 6.8-15.85 5.35-31.05-1.3-13.1-9.3-21.7-7.5-8.05-18.9-10.35-11.4-2.25-23.1 1.8-12.4 4.35-21.75 14.75l7.05-4.05z" id="z"/><path fill="url(#j)" d="M140.25 389.6q8.6-4.35 16.45-5.65 25.15-4.25 33.25 23.1 3.35 11.25-.2 24.9-3.1 12.05-11.15 24.85 7.45-3.85 12.95-7.75 5.35-3.75 7.85-6.85.9-1.05 1.5-2 6.8-15.85 5.35-31.05-1.3-13.1-9.3-21.7-7.5-8.05-18.9-10.35-11.4-2.25-23.1 1.8-12.4 4.35-21.75 14.75l7.05-4.05z" id="A"/><path fill="url(#i)" d="M133.2 393.65q9.35-10.4 21.75-14.75 11.7-4.05 23.1-1.8 11.4 2.3 18.9 10.35 8 8.6 9.3 21.7 1.45 15.2-5.35 31.05 7.55-10.1 9.55-20.95 1.8-10.2-1.45-19.55-3.15-9.1-10.45-15.7-7.45-6.7-17.6-9.4-21.35-5.7-43.05 9.7-10.85 7.7-17.4 16.55-10.15 17.75-12.95 38.15-2.4 17.5.7 35.75 18.4-.05 38.35-5.55 17.1-4.7 32-12.4 8.05-12.8 11.15-24.85 3.55-13.65.2-24.9-8.1-27.35-33.25-23.1-7.85 1.3-16.45 5.65l-7.05 4.05z" id="B"/><path fill="url(#k)" d="M183.95 367.2q8.95 2.45 17.05 9.45 8.55 7.35 13.25 17.3 11.55 24.25-4.5 49.15-4.95 7.7-13.6 15.55-8.75 7.95-19.9 14.75-15 13.2-33.05 20.05 5.95-3.6 12.75-9.7-21.85 9.15-42.9 10.15 2.95 8.5 6.6 15.45-9.9-8.85-22.35-16-7-.8-13.85-2.85 12.6 6.85 19.5 11.45 10.15 6.8 16.9 14.25 10.9-12.35 37-25.9 16.55-8.6 20.75-11 11.65-6.65 19.65-13.35 14.85-12.45 20.8-28.65 5.4-14.75 2.6-29.9-2.7-14.5-12.1-25.25-9.6-11-23.2-14.65l-1.4-.3z" id="C"/><path fill="url(#l)" d="M70.1 370.05q-12.45-.05-23.15 5.25-10.2 5.1-14.75 12.8-9.85 16.8-8.8 32.45 1.65 26.2 32.25 49.15 7.75 5.8 20.3 12.35Q95 492 97.3 493.35q7.05.9 15.75.55-3.2-9.65-4.8-19.15-21.7.1-39-7.6Q49.5 458.4 36.5 439.9q-7.1-10.1-8.2-21.1-1-10.1 3.15-19.55 3.9-9 11.55-15.55 7.65-6.55 17.15-9.1 21.35-5.7 43 9.7 10.8 7.7 17.35 16.55-10-15.95-24.1-23.85-12.35-6.95-26.3-6.95z" id="D"/><path fill="url(#g)" d="M113.05 493.9q-8.7.35-15.75-.55 12.45 7.15 22.35 16-3.65-6.95-6.6-15.45z" id="E"/><path fill="#CC0D0C" d="M113.05 493.9q-8.7.35-15.75-.55 12.45 7.15 22.35 16-3.65-6.95-6.6-15.45z" id="F"/><path fill="url(#i)" d="M60.15 374.6q-9.5 2.55-17.15 9.1-7.65 6.55-11.55 15.55-4.15 9.45-3.15 19.55 1.1 11 8.2 21.1 13 18.5 32.75 27.25 17.3 7.7 39 7.6-3.1-18.25-.7-35.75 2.8-20.4 12.95-38.15-6.55-8.85-17.35-16.55-21.65-15.4-43-9.7z" id="G"/><path fill="url(#m)" d="M60.15 374.6q-9.5 2.55-17.15 9.1-7.65 6.55-11.55 15.55-4.15 9.45-3.15 19.55 1.1 11 8.2 21.1 13 18.5 32.75 27.25 17.3 7.7 39 7.6-3.1-18.25-.7-35.75 2.8-20.4 12.95-38.15-6.55-8.85-17.35-16.55-21.65-15.4-43-9.7z" id="H"/><path fill="url(#n)" d="M65.15 375.45q-8.15 1.8-14.8 6.05-17.45 11.05-16.9 32.95.65 25.4 24.9 42.7 8.9 6.35 19.3 10.25 8.8 3.35 14.25 3.5-15.3-4.75-27.55-16.65-17.2-16.6-18.75-40.45-1-15.55 8.95-27.45 9.85-11.75 23.2-11.75-5.5-.7-12.6.85z" id="I"/><path fill="#FFFEC7" d="M188.7 473.7q-7.25 4.65-19.75 11.65-11.6 6.85-25.15 13.9-8.229 4.985-18.45 14.6 7.57-6.734 17.8-12.8 17.45-9.35 27.15-14.8 18.45-10.25 28.15-18.2 12.25-10 17.35-21.25-.05-.05-2.75 4.45-3.75 5.6-8.8 10.55-5.55 5.45-15.55 11.9z" id="J"/><path fill="#FFFEC7" d="M23.95 375.65q4.5-5.15 9.2-8.75 1.95-1.5 7.75-5.3 6.05-3.1 8.95-4.2 6.15-2.25 13.9-3.05-23.55.9-41.25 20.8-8.85 10.25-12.2 23-2.112 8.045-2.25 18.9.244-5.26 1.65-12.25 3.6-17.6 14.25-29.15z" id="K"/></defs><use xlink:href="#o"/><use xlink:href="#p" transform="matrix(1.04735 0 0 1.04716 15.7 -274.9)"/><use xlink:href="#q" transform="matrix(1.04735 0 0 1.04716 15.7 -274.9)"/><use xlink:href="#r" transform="matrix(1.04735 0 0 1.04716 15.7 -274.9)"/><use xlink:href="#s" transform="matrix(1.04735 0 0 1.04716 15.7 -274.9)"/><use xlink:href="#t" transform="matrix(1.04735 0 0 1.04716 15.7 -274.9)"/><use xlink:href="#u" transform="matrix(1.04735 0 0 1.04716 15.7 -274.9)"/><use xlink:href="#v" transform="matrix(1.04735 0 0 1.04716 15.7 -274.9)"/><use xlink:href="#w" transform="matrix(1.04735 0 0 1.04716 15.7 -274.9)"/><use xlink:href="#x" transform="matrix(1.04735 0 0 1.04716 15.7 -274.9)"/><use xlink:href="#y" transform="matrix(1.04735 0 0 1.04716 15.7 -274.9)"/><use xlink:href="#z" transform="matrix(1.04735 0 0 1.04716 15.7 -274.9)"/><use xlink:href="#A" transform="matrix(1.04735 0 0 1.04716 15.7 -274.9)"/><use xlink:href="#B" transform="matrix(1.04735 0 0 1.04716 15.7 -274.9)"/><use xlink:href="#C" transform="matrix(1.04735 0 0 1.04716 15.7 -274.9)"/><use xlink:href="#D" transform="matrix(1.04735 0 0 1.04716 15.7 -274.9)"/><use xlink:href="#E" transform="matrix(1.04735 0 0 1.04716 15.7 -274.9)"/><use xlink:href="#F" transform="matrix(1.04735 0 0 1.04716 15.7 -274.9)"/><use xlink:href="#G" transform="matrix(1.04735 0 0 1.04716 15.7 -274.9)"/><use xlink:href="#H" transform="matrix(1.04735 0 0 1.04716 15.7 -274.9)"/><use xlink:href="#I" transform="matrix(1.04735 0 0 1.04716 15.7 -274.9)"/><use xlink:href="#J" transform="matrix(1.04735 0 0 1.04716 15.7 -274.9)"/><use xlink:href="#K" transform="matrix(1.04735 0 0 1.04716 15.7 -274.9)"/></svg>