<svg xmlns="http://www.w3.org/2000/svg" xmlns:xlink="http://www.w3.org/1999/xlink" preserveAspectRatio="none" width="284" height="320"><defs><radialGradient id="a" gradientUnits="userSpaceOnUse" cx="0" cy="0" r="261.6" fx="0" fy="0" gradientTransform="translate(211.05 224.05)" spreadMethod="pad"><stop offset="74.51%" stop-opacity="0"/><stop offset="100%" stop-opacity=".8"/></radialGradient><radialGradient id="b" gradientUnits="userSpaceOnUse" cx="0" cy="0" r="369.838" fx="0" fy="0" gradientTransform="translate(185.25 122)" spreadMethod="pad"><stop offset="0%" stop-color="#FFF"/><stop offset="41.176%" stop-color="#FFF" stop-opacity="0"/><stop offset="42.745%" stop-color="#FFF" stop-opacity="0"/></radialGradient><path fill="#FFF" fill-opacity="0" d="M284 0H0v320h284V0z" id="c"/><g id="d"><path fill="#FFF" d="M468 234q0-96.95-68.55-165.5Q330.95 0 234 0 137.05 0 68.5 68.5 0 137.05 0 234t68.5 165.45Q137.05 468 234 468t165.45-68.55Q468 330.95 468 234m-48 1.05q.018 77.871-55.1 132.9-55.004 55.093-132.9 55.1-77.859-.007-132.95-55.1Q44.02 312.921 44 235.05q.02-77.884 55.05-133Q154.141 47.032 232 47q77.896.032 132.9 55.05 55.118 55.116 55.1 133M191 359.5q0 15.55 10.95 26.5 11 11 26.55 11t26.5-11q11-10.95 11-26.5t-11-26.55Q244.05 322 228.5 322t-26.55 10.95Q191 343.95 191 359.5m140.3-152.75q9.103-17.347 9.1-36.2.004-45.243-35.3-72.45-25.927-20.06-68.3-20.05-54.255-.003-80.45 28.95-26.393 28.68-30.3 75.95l75.25 10.6q2.623-25.809 11.7-36.2 8.947-10.345 22.7-10.35 12.818.003 19.2 6.75 6.154 6.688 6.15 18.85.001 12.162-15.7 26.65-29.446 27.924-37.8 38.9-8.55 11.018-12.85 24.55-4.25 13.228-4.25 34.6v8.45h73.75q.023-17.232 5.2-27.8 5.044-10.903 24.65-28.6 28.149-25.148 37.25-42.6z"/><path fill="#2A3FAA" d="M364.9 367.95q55.118-55.029 55.1-132.9.018-77.884-55.1-133Q309.896 47.032 232 47q-77.859.032-132.95 55.05-55.03 55.116-55.05 133 .02 77.871 55.05 132.9 55.091 55.093 132.95 55.1 77.896-.007 132.9-55.1m-24.5-197.4q.003 18.853-9.1 36.2-9.101 17.452-37.25 42.6-19.606 17.697-24.65 28.6-5.177 10.568-5.2 27.8h-73.75v-8.45q0-21.372 4.25-34.6 4.3-13.532 12.85-24.55 8.354-10.976 37.8-38.9 15.701-14.488 15.7-26.65.004-12.162-6.15-18.85-6.382-6.747-19.2-6.75-13.753.005-22.7 10.35-9.077 10.391-11.7 36.2l-75.25-10.6q3.907-47.27 30.3-75.95 26.195-28.953 80.45-28.95 42.373-.01 68.3 20.05 35.304 27.207 35.3 72.45M201.95 386Q191 375.05 191 359.5t10.95-26.55q11-10.95 26.55-10.95t26.5 10.95q11 11 11 26.55T255 386q-10.95 11-26.5 11t-26.55-11z"/></g><path fill="url(#a)" d="M468 234q0-96.95-68.55-165.5Q330.95 0 234 0 137.05 0 68.5 68.5 0 137.05 0 234t68.5 165.45Q137.05 468 234 468t165.45-68.55Q468 330.95 468 234z" id="e"/><path fill="url(#b)" d="M410.4 367.35q27.14-27.124 45.8-57.8Q468 274.242 468 234q0-96.95-68.55-165.5Q330.95 0 234 0 137.05 0 68.5 68.5 0 137.05 0 234t68.5 165.45q31.184 31.184 68.25 48.15 30.81 6.5 64.3 6.5 122.65 0 209.35-86.75z" id="f"/></defs><use xlink:href="#c"/><use xlink:href="#d" transform="matrix(.51578 0 0 .51578 20.65 56)"/><use xlink:href="#e" transform="matrix(.51578 0 0 .51578 20.65 56)"/><use xlink:href="#f" transform="matrix(.51578 0 0 .51578 20.65 56)"/></svg>