<svg xmlns="http://www.w3.org/2000/svg" xmlns:xlink="http://www.w3.org/1999/xlink" preserveAspectRatio="none" width="284" height="320"><defs><linearGradient id="a" gradientUnits="userSpaceOnUse" x1="-479.425" y1="522.125" x2="-424.675" y2="560.475" spreadMethod="pad"><stop offset="0%" stop-color="#B6E640"/><stop offset="100%" stop-color="#D5F19B"/></linearGradient><linearGradient id="b" gradientUnits="userSpaceOnUse" x1="-495.2" y1="536.15" x2="-434.2" y2="575.75" spreadMethod="pad"><stop offset="0%" stop-color="#A1D530"/><stop offset="100%" stop-color="#C2EA6C"/></linearGradient><linearGradient id="c" gradientUnits="userSpaceOnUse" x1="-490.25" y1="549.763" x2="-416.75" y2="572.237" spreadMethod="pad"><stop offset="0%" stop-color="#C8EE75"/><stop offset="100%" stop-color="#E3F6C0"/></linearGradient><linearGradient id="d" gradientUnits="userSpaceOnUse" x1="-483.863" y1="547.587" x2="-451.037" y2="557.613" spreadMethod="pad"><stop offset="0%" stop-color="#DDF4AD"/><stop offset="100%" stop-color="#F2F9E6"/></linearGradient><linearGradient id="e" gradientUnits="userSpaceOnUse" x1="-473.75" y1="547.288" x2="-441.25" y2="557.212" spreadMethod="pad"><stop offset="0%" stop-color="#DDF4AD"/><stop offset="100%" stop-color="#F2F9E6"/></linearGradient><linearGradient id="f" gradientUnits="userSpaceOnUse" x1="-462.525" y1="548.55" x2="-434.075" y2="557.25" spreadMethod="pad"><stop offset="0%" stop-color="#DDF4AD"/><stop offset="100%" stop-color="#F2F9E6"/></linearGradient><linearGradient id="g" gradientUnits="userSpaceOnUse" x1="-492.925" y1="548.625" x2="-462.675" y2="557.875" spreadMethod="pad"><stop offset="0%" stop-color="#DDF4AD"/><stop offset="100%" stop-color="#F2F9E6"/></linearGradient><linearGradient id="h" gradientUnits="userSpaceOnUse" x1="-448.787" y1="550.462" x2="-428.613" y2="556.637" spreadMethod="pad"><stop offset="0%" stop-color="#DDF4AD"/><stop offset="100%" stop-color="#F2F9E6"/></linearGradient><linearGradient id="i" gradientUnits="userSpaceOnUse" x1="-516.775" y1="676.825" x2="-528.325" y2="456.175" spreadMethod="pad"><stop offset="0%" stop-color="#99CE2F"/><stop offset="100%" stop-color="#B9E942"/></linearGradient><linearGradient id="j" gradientUnits="userSpaceOnUse" x1="-495.388" y1="584.6" x2="-505.313" y2="655.3" spreadMethod="pad"><stop offset="0%" stop-color="#A6DA30"/><stop offset="100%" stop-color="#D5F394"/></linearGradient><linearGradient id="k" gradientUnits="userSpaceOnUse" x1="-542.938" y1="531.625" x2="-589.963" y2="632.475" spreadMethod="pad"><stop offset="0%" stop-color="#B9E942"/><stop offset="100%" stop-color="#70A92A"/></linearGradient><linearGradient id="l" gradientUnits="userSpaceOnUse" x1="-553.175" y1="546.875" x2="-578.325" y2="549.525" spreadMethod="pad"><stop offset="0%" stop-color="#C7EF6A"/><stop offset="100%" stop-color="#B9E942"/></linearGradient><linearGradient id="m" gradientUnits="userSpaceOnUse" x1="-552.113" y1="556.95" x2="-577.788" y2="559.65" spreadMethod="pad"><stop offset="0%" stop-color="#C7EF6A"/><stop offset="100%" stop-color="#B9E942"/></linearGradient><linearGradient id="n" gradientUnits="userSpaceOnUse" x1="-550.938" y1="568.038" x2="-575.963" y2="570.663" spreadMethod="pad"><stop offset="0%" stop-color="#C7EF6A"/><stop offset="100%" stop-color="#B9E942"/></linearGradient><linearGradient id="o" gradientUnits="userSpaceOnUse" x1="-549.625" y1="580.688" x2="-574.575" y2="583.313" spreadMethod="pad"><stop offset="0%" stop-color="#AFDD50"/><stop offset="100%" stop-color="#A7DA3A"/></linearGradient><linearGradient id="p" gradientUnits="userSpaceOnUse" x1="-521.388" y1="546.288" x2="-574.612" y2="605.413" spreadMethod="pad"><stop offset="0%" stop-color="#D5F394"/><stop offset="100%" stop-color="#99CE2F"/></linearGradient><linearGradient id="q" gradientUnits="userSpaceOnUse" x1="-525.55" y1="556.788" x2="-590.95" y2="626.913" spreadMethod="pad"><stop offset="0%" stop-color="#A6DA30"/><stop offset="100%" stop-color="#649E28"/></linearGradient><linearGradient id="r" gradientUnits="userSpaceOnUse" x1="-519.85" y1="615.35" x2="-549.55" y2="574.45" spreadMethod="pad"><stop offset="0%" stop-color="#99CE2F"/><stop offset="100%" stop-color="#C7EF6A"/></linearGradient><linearGradient id="s" gradientUnits="userSpaceOnUse" x1="-516.6" y1="585.45" x2="-527.7" y2="570.15" spreadMethod="pad"><stop offset="0%" stop-color="#C7EF6A"/><stop offset="100%" stop-color="#E5F8BE"/></linearGradient><linearGradient id="t" gradientUnits="userSpaceOnUse" x1="-530.425" y1="588.6" x2="-540.375" y2="574.9" spreadMethod="pad"><stop offset="0%" stop-color="#C7EF6A"/><stop offset="100%" stop-color="#E5F8BE"/></linearGradient><linearGradient id="u" gradientUnits="userSpaceOnUse" x1="-543.688" y1="594.05" x2="-552.912" y2="581.35" spreadMethod="pad"><stop offset="0%" stop-color="#C7EF6A"/><stop offset="100%" stop-color="#E5F8BE"/></linearGradient><linearGradient id="v" gradientUnits="userSpaceOnUse" x1="-502.15" y1="581.4" x2="-514.35" y2="564.6" spreadMethod="pad"><stop offset="0%" stop-color="#C7EF6A"/><stop offset="100%" stop-color="#E5F8BE"/></linearGradient><linearGradient id="w" gradientUnits="userSpaceOnUse" x1="-558.625" y1="601.875" x2="-565.775" y2="587.225" spreadMethod="pad"><stop offset="0%" stop-color="#C7EF6A"/><stop offset="100%" stop-color="#E5F8BE"/></linearGradient><linearGradient id="x" gradientUnits="userSpaceOnUse" x1="-578.9" y1="568.3" x2="-581.2" y2="584.6" spreadMethod="pad"><stop offset="0%" stop-color="#A6DA30"/><stop offset="100%" stop-color="#7DB52C"/></linearGradient><linearGradient id="y" gradientUnits="userSpaceOnUse" x1="-574.412" y1="568.913" x2="-576.688" y2="585.087" spreadMethod="pad"><stop offset="0%" stop-color="#A6DA30"/><stop offset="100%" stop-color="#7DB52C"/></linearGradient><linearGradient id="z" gradientUnits="userSpaceOnUse" x1="-570.612" y1="569.462" x2="-572.888" y2="585.637" spreadMethod="pad"><stop offset="0%" stop-color="#A6DA30"/><stop offset="100%" stop-color="#7DB52C"/></linearGradient><linearGradient id="A" gradientUnits="userSpaceOnUse" x1="-575.7" y1="564.913" x2="-586.4" y2="572.988" spreadMethod="pad"><stop offset="0%" stop-color="#A6DA30"/><stop offset="100%" stop-color="#B9E942"/></linearGradient><linearGradient id="B" gradientUnits="userSpaceOnUse" x1="-584.125" y1="570.038" x2="-567.575" y2="558.863" spreadMethod="pad"><stop offset="0%" stop-color="#E5F8BE"/><stop offset="38.824%" stop-color="#B9E942"/><stop offset="100%" stop-color="#99CE2F"/></linearGradient><linearGradient id="C" gradientUnits="userSpaceOnUse" x1="-583.05" y1="570.138" x2="-566.85" y2="558.362" spreadMethod="pad"><stop offset="0%" stop-color="#EDFAD3"/><stop offset="38.824%" stop-color="#CFF27F"/><stop offset="100%" stop-color="#B9E942"/></linearGradient><linearGradient id="D" gradientUnits="userSpaceOnUse" x1="-528.725" y1="564.213" x2="-534.375" y2="571.188" spreadMethod="pad"><stop offset="0%" stop-color="#A6DA30"/><stop offset="100%" stop-color="#B9E942"/></linearGradient><linearGradient id="E" gradientUnits="userSpaceOnUse" x1="-533.763" y1="569.363" x2="-524.737" y2="559.337" spreadMethod="pad"><stop offset="0%" stop-color="#E5F8BE"/><stop offset="38.824%" stop-color="#B9E942"/><stop offset="100%" stop-color="#99CE2F"/></linearGradient><linearGradient id="F" gradientUnits="userSpaceOnUse" x1="-532.962" y1="569.163" x2="-524.538" y2="559.137" spreadMethod="pad"><stop offset="0%" stop-color="#EDFAD3"/><stop offset="38.824%" stop-color="#CFF27F"/><stop offset="100%" stop-color="#B9E942"/></linearGradient><linearGradient id="G" gradientUnits="userSpaceOnUse" x1="-518.7" y1="294.063" x2="-518.7" y2="444.038" spreadMethod="pad"><stop offset="0%" stop-color="#FBCFE5"/><stop offset="100%" stop-color="#EB3B9A"/></linearGradient><linearGradient id="H" gradientUnits="userSpaceOnUse" x1="-603.75" y1="441.313" x2="-590.85" y2="422.188" spreadMethod="pad"><stop offset="0%" stop-color="#EB3B9A"/><stop offset="100%" stop-color="#D82786"/></linearGradient><linearGradient id="I" gradientUnits="userSpaceOnUse" x1="-507.25" y1="308.6" x2="-525.85" y2="298.7" spreadMethod="pad"><stop offset="0%" stop-color="#F587C0"/><stop offset="100%" stop-color="#FBCFE5"/></linearGradient><linearGradient id="J" gradientUnits="userSpaceOnUse" x1="-599.063" y1="486.75" x2="-564.737" y2="457.95" spreadMethod="pad"><stop offset="0%" stop-color="#F587C0"/><stop offset="45.882%" stop-color="#EE53A6"/><stop offset="100%" stop-color="#D82786"/></linearGradient><linearGradient id="K" gradientUnits="userSpaceOnUse" x1="-575.45" y1="428.35" x2="-568.05" y2="452.55" spreadMethod="pad"><stop offset="0%" stop-color="#EC4EA4"/><stop offset="100%" stop-color="#F9B8D9"/></linearGradient><linearGradient id="L" gradientUnits="userSpaceOnUse" x1="-567.962" y1="484.65" x2="-542.738" y2="476.45" spreadMethod="pad"><stop offset="0%" stop-color="#F7A0CC"/><stop offset="100%" stop-color="#EB3B9A"/></linearGradient><linearGradient id="M" gradientUnits="userSpaceOnUse" x1="-458.2" y1="332.212" x2="-486.6" y2="343.688" spreadMethod="pad"><stop offset="0%" stop-color="#EB3B9A"/><stop offset="100%" stop-color="#FBCFE5"/></linearGradient><linearGradient id="N" gradientUnits="userSpaceOnUse" x1="-546.35" y1="346.213" x2="-533.75" y2="324.387" spreadMethod="pad"><stop offset="0%" stop-color="#FBCFE5"/><stop offset="100%" stop-color="#F16CB2"/></linearGradient><linearGradient id="O" gradientUnits="userSpaceOnUse" x1="-467.688" y1="365.175" x2="-454.913" y2="396.825" spreadMethod="pad"><stop offset="0%" stop-color="#F58CC2"/><stop offset="100%" stop-color="#FBC1DD"/></linearGradient><linearGradient id="P" gradientUnits="userSpaceOnUse" x1="-488.025" y1="421.05" x2="-462.475" y2="400.35" spreadMethod="pad"><stop offset="0%" stop-color="#F587C0"/><stop offset="100%" stop-color="#F587C0"/></linearGradient><linearGradient id="Q" gradientUnits="userSpaceOnUse" x1="-497.012" y1="421.588" x2="-479.988" y2="455.012" spreadMethod="pad"><stop offset="0%" stop-color="#EE53A6"/><stop offset="100%" stop-color="#FBC1DD"/></linearGradient><linearGradient id="R" gradientUnits="userSpaceOnUse" x1="-530.137" y1="458.725" x2="-517.462" y2="435.875" spreadMethod="pad"><stop offset="0%" stop-color="#F587C0"/><stop offset="100%" stop-color="#EB3B9A"/></linearGradient><linearGradient id="S" gradientUnits="userSpaceOnUse" x1="-527.325" y1="420.25" x2="-528.675" y2="445.95" spreadMethod="pad"><stop offset="0%" stop-color="#E2298B"/><stop offset="100%" stop-color="#EF7AB7"/></linearGradient><linearGradient id="T" gradientUnits="userSpaceOnUse" x1="-516.313" y1="352.575" x2="-526.088" y2="375.625" spreadMethod="pad"><stop offset="0%" stop-color="#F16CB2"/><stop offset="100%" stop-color="#E72A8D"/></linearGradient><linearGradient id="U" gradientUnits="userSpaceOnUse" x1="-510.15" y1="401.387" x2="-510.15" y2="379.113" spreadMethod="pad"><stop offset="0%" stop-color="#F7AAD2"/><stop offset="100%" stop-color="#EE53A6"/></linearGradient><linearGradient id="V" gradientUnits="userSpaceOnUse" x1="-533.688" y1="417.25" x2="-531.213" y2="393.75" spreadMethod="pad"><stop offset="0%" stop-color="#FBCFE5"/><stop offset="100%" stop-color="#F7A0CC"/></linearGradient><linearGradient id="W" gradientUnits="userSpaceOnUse" x1="-557.6" y1="383.238" x2="-540.9" y2="367.662" spreadMethod="pad"><stop offset="0%" stop-color="#FBCFE5"/><stop offset="100%" stop-color="#F16CB2"/></linearGradient><linearGradient id="X" gradientUnits="userSpaceOnUse" x1="-463.313" y1="356.025" x2="-448.987" y2="391.475" spreadMethod="pad"><stop offset="0%" stop-color="#F7A0CC"/><stop offset="100%" stop-color="#FEE9F3"/></linearGradient><linearGradient id="Y" gradientUnits="userSpaceOnUse" x1="-453.738" y1="362.337" x2="-440.863" y2="385.563" spreadMethod="pad"><stop offset="0%" stop-color="#FBCFE5"/><stop offset="100%" stop-color="#FEFEFE"/></linearGradient><linearGradient id="Z" gradientUnits="userSpaceOnUse" x1="-462.063" y1="360.05" x2="-454.538" y2="380.75" spreadMethod="pad"><stop offset="0%" stop-color="#F587C0"/><stop offset="100%" stop-color="#F9B8D9"/></linearGradient><linearGradient id="aa" gradientUnits="userSpaceOnUse" x1="-468.063" y1="361.138" x2="-452.938" y2="383.563" spreadMethod="pad"><stop offset="0%" stop-color="#F587C0"/><stop offset="100%" stop-color="#F9B8D9"/></linearGradient><linearGradient id="ab" gradientUnits="userSpaceOnUse" x1="-481.063" y1="350.825" x2="-470.337" y2="376.075" spreadMethod="pad"><stop offset="0%" stop-color="#FBCFE5"/><stop offset="100%" stop-color="#FEFEFE"/></linearGradient><linearGradient id="ac" gradientUnits="userSpaceOnUse" x1="-585.262" y1="421.3" x2="-568.837" y2="398.7" spreadMethod="pad"><stop offset="0%" stop-color="#F378B8"/><stop offset="100%" stop-color="#EE53A6"/></linearGradient><linearGradient id="ad" gradientUnits="userSpaceOnUse" x1="-534.337" y1="319.863" x2="-503.262" y2="316.037" spreadMethod="pad"><stop offset="0%" stop-color="#FEFEFE"/><stop offset="100%" stop-color="#F9B8D9"/></linearGradient><linearGradient id="ae" gradientUnits="userSpaceOnUse" x1="-501.6" y1="316.175" x2="-484.9" y2="287.225" spreadMethod="pad"><stop offset="0%" stop-color="#F7AAD2"/><stop offset="45.098%" stop-color="#FBCFE5"/><stop offset="100%" stop-color="#FEFEFE"/></linearGradient><linearGradient id="af" gradientUnits="userSpaceOnUse" x1="-498.663" y1="314.725" x2="-471.038" y2="323.175" spreadMethod="pad"><stop offset="0%" stop-color="#FBCFE5"/><stop offset="32.157%" stop-color="#FBCFE5"/><stop offset="100%" stop-color="#FEFEFE"/></linearGradient><linearGradient id="ag" gradientUnits="userSpaceOnUse" x1="-596.975" y1="330.15" x2="-566.325" y2="331.75" spreadMethod="pad"><stop offset="0%" stop-color="#FBCFE5"/><stop offset="100%" stop-color="#F9B8D9"/></linearGradient><linearGradient id="ah" gradientUnits="userSpaceOnUse" x1="-583.888" y1="335.087" x2="-566.612" y2="331.413" spreadMethod="pad"><stop offset="0%" stop-color="#F9B8D9"/><stop offset="100%" stop-color="#F587C0"/></linearGradient><linearGradient id="ai" gradientUnits="userSpaceOnUse" x1="-587.487" y1="326.275" x2="-564.112" y2="328.725" spreadMethod="pad"><stop offset="0%" stop-color="#F9B8D9"/><stop offset="100%" stop-color="#F587C0"/></linearGradient><linearGradient id="aj" gradientUnits="userSpaceOnUse" x1="-558.563" y1="321.137" x2="-556.537" y2="297.863" spreadMethod="pad"><stop offset="0%" stop-color="#FBCFE5"/><stop offset="100%" stop-color="#FEFEFE"/></linearGradient><linearGradient id="ak" gradientUnits="userSpaceOnUse" x1="-576.262" y1="368.012" x2="-612.538" y2="376.387" spreadMethod="pad"><stop offset="0%" stop-color="#F7A0CC"/><stop offset="100%" stop-color="#FEE9F3"/></linearGradient><linearGradient id="al" gradientUnits="userSpaceOnUse" x1="-571.8" y1="356.163" x2="-564.8" y2="335.837" spreadMethod="pad"><stop offset="0%" stop-color="#FBCFE5"/><stop offset="100%" stop-color="#F587C0"/></linearGradient><linearGradient id="am" gradientUnits="userSpaceOnUse" x1="-545.95" y1="367.975" x2="-542.55" y2="348.625" spreadMethod="pad"><stop offset="0%" stop-color="#FEE9F3"/><stop offset="100%" stop-color="#F9B8D9"/></linearGradient><linearGradient id="an" gradientUnits="userSpaceOnUse" x1="-541" y1="346.925" x2="-543.3" y2="347.075" spreadMethod="pad"><stop offset="0%" stop-color="#F3D72A"/><stop offset="100%" stop-color="#EBC226"/></linearGradient><linearGradient id="ao" gradientUnits="userSpaceOnUse" x1="-543.238" y1="345.063" x2="-544.663" y2="349.438" spreadMethod="pad"><stop offset="0%" stop-color="#F4F5A6"/><stop offset="100%" stop-color="#F3D72A"/></linearGradient><linearGradient id="ap" gradientUnits="userSpaceOnUse" x1="-599.85" y1="294.15" x2="-599.85" y2="322.85" spreadMethod="pad"><stop offset="0%" stop-color="#FEE9F3"/><stop offset="100%" stop-color="#F587C0"/></linearGradient><linearGradient id="aq" gradientUnits="userSpaceOnUse" x1="-635" y1="326.95" x2="-601" y2="327.55" spreadMethod="pad"><stop offset="0%" stop-color="#FEE9F3"/><stop offset="100%" stop-color="#F9B8D9"/></linearGradient><linearGradient id="ar" gradientUnits="userSpaceOnUse" x1="-548.85" y1="246.7" x2="-542.05" y2="285.2" spreadMethod="pad"><stop offset="0%" stop-color="#FBCFE5"/><stop offset="100%" stop-color="#FEFEFE"/></linearGradient><linearGradient id="as" gradientUnits="userSpaceOnUse" x1="-543.412" y1="276.675" x2="-565.188" y2="266.525" spreadMethod="pad"><stop offset="0%" stop-color="#F587C0"/><stop offset="100%" stop-color="#FBCFE5"/></linearGradient><linearGradient id="at" gradientUnits="userSpaceOnUse" x1="-529.237" y1="306.95" x2="-539.763" y2="279.55" spreadMethod="pad"><stop offset="0%" stop-color="#FEFEFE"/><stop offset="100%" stop-color="#FBCFE5"/></linearGradient><linearGradient id="au" gradientUnits="userSpaceOnUse" x1="-546.95" y1="276.275" x2="-575.35" y2="290.125" spreadMethod="pad"><stop offset="0%" stop-color="#FBCFE5"/><stop offset="100%" stop-color="#FEFEFE"/></linearGradient><linearGradient id="av" gradientUnits="userSpaceOnUse" x1="-406.712" y1="373.725" x2="-419.587" y2="398.975" spreadMethod="pad"><stop offset="0%" stop-color="#F9B8D9"/><stop offset="100%" stop-color="#F587C0"/></linearGradient><linearGradient id="aw" gradientUnits="userSpaceOnUse" x1="-404.863" y1="378.725" x2="-423.738" y2="403.775" spreadMethod="pad"><stop offset="0%" stop-color="#EE53A6"/><stop offset="100%" stop-color="#F587C0"/></linearGradient><linearGradient id="ax" gradientUnits="userSpaceOnUse" x1="-425.438" y1="407.175" x2="-422.663" y2="439.025" spreadMethod="pad"><stop offset="0%" stop-color="#EE53A6"/><stop offset="100%" stop-color="#F7A0CC"/></linearGradient><linearGradient id="ay" gradientUnits="userSpaceOnUse" x1="-486.25" y1="482.9" x2="-483.65" y2="512.5" spreadMethod="pad"><stop offset="0%" stop-color="#EB3B9A"/><stop offset="100%" stop-color="#F9B8D9"/></linearGradient><linearGradient id="az" gradientUnits="userSpaceOnUse" x1="-499.275" y1="462.888" x2="-460.525" y2="458.813" spreadMethod="pad"><stop offset="0%" stop-color="#EE53A6"/><stop offset="100%" stop-color="#F7A0CC"/></linearGradient><linearGradient id="aA" gradientUnits="userSpaceOnUse" x1="-450.375" y1="335.175" x2="-440.925" y2="357.425" spreadMethod="pad"><stop offset="0%" stop-color="#FBCFE5"/><stop offset="100%" stop-color="#FEFEFE"/></linearGradient><linearGradient id="aB" gradientUnits="userSpaceOnUse" x1="-378.762" y1="372.05" x2="-402.838" y2="366.05" spreadMethod="pad"><stop offset="0%" stop-color="#F9B8D9"/><stop offset="100%" stop-color="#F7A0CC"/></linearGradient><linearGradient id="aC" gradientUnits="userSpaceOnUse" x1="-611.888" y1="408.3" x2="-634.313" y2="424.6" spreadMethod="pad"><stop offset="0%" stop-color="#F16CB2"/><stop offset="100%" stop-color="#FEE9F3"/></linearGradient><linearGradient id="aD" gradientUnits="userSpaceOnUse" x1="-614.063" y1="396.925" x2="-637.537" y2="391.075" spreadMethod="pad"><stop offset="0%" stop-color="#F587C0"/><stop offset="100%" stop-color="#F9B8D9"/></linearGradient><linearGradient id="aE" gradientUnits="userSpaceOnUse" x1="-533.825" y1="388.012" x2="-530.775" y2="388.887" spreadMethod="pad"><stop offset="0%" stop-color="#F3D72A"/><stop offset="100%" stop-color="#EBC226"/></linearGradient><linearGradient id="aF" gradientUnits="userSpaceOnUse" x1="-529.625" y1="386.1" x2="-528.775" y2="393" spreadMethod="pad"><stop offset="0%" stop-color="#F4F5A6"/><stop offset="100%" stop-color="#F3D72A"/></linearGradient><linearGradient id="aG" gradientUnits="userSpaceOnUse" x1="-464.225" y1="356.462" x2="-466.175" y2="357.438" spreadMethod="pad"><stop offset="0%" stop-color="#F3D72A"/><stop offset="100%" stop-color="#EBC226"/></linearGradient><linearGradient id="aH" gradientUnits="userSpaceOnUse" x1="-467.563" y1="356.162" x2="-467.237" y2="360.738" spreadMethod="pad"><stop offset="0%" stop-color="#F4F5A6"/><stop offset="100%" stop-color="#F3D72A"/></linearGradient><linearGradient id="aI" gradientUnits="userSpaceOnUse" x1="-561.975" y1="328.887" x2="-565.625" y2="331.012" spreadMethod="pad"><stop offset="0%" stop-color="#F3D72A"/><stop offset="100%" stop-color="#EBC226"/></linearGradient><linearGradient id="aJ" gradientUnits="userSpaceOnUse" x1="-567.737" y1="328.2" x2="-566.763" y2="336.1" spreadMethod="pad"><stop offset="0%" stop-color="#F4F5A6"/><stop offset="100%" stop-color="#F3D72A"/></linearGradient><linearGradient id="aK" gradientUnits="userSpaceOnUse" x1="-480.113" y1="331.762" x2="-489.287" y2="309.037" spreadMethod="pad"><stop offset="0%" stop-color="#FBCFE5"/><stop offset="100%" stop-color="#FEFEFE"/></linearGradient><linearGradient id="aL" gradientUnits="userSpaceOnUse" x1="-462.85" y1="325.313" x2="-470.35" y2="333.087" spreadMethod="pad"><stop offset="0%" stop-color="#F4F5A6"/><stop offset="100%" stop-color="#F3D72A"/></linearGradient><linearGradient id="aM" gradientUnits="userSpaceOnUse" x1="-417.9" y1="406.188" x2="-422.3" y2="406.413" spreadMethod="pad"><stop offset="0%" stop-color="#F3D72A"/><stop offset="100%" stop-color="#EBC226"/></linearGradient><linearGradient id="aN" gradientUnits="userSpaceOnUse" x1="-423.375" y1="401.988" x2="-426.525" y2="411.113" spreadMethod="pad"><stop offset="0%" stop-color="#F4F5A6"/><stop offset="100%" stop-color="#F3D72A"/></linearGradient><linearGradient id="aO" gradientUnits="userSpaceOnUse" x1="-615.425" y1="353.7" x2="-663.175" y2="366.5" spreadMethod="pad"><stop offset="0%" stop-color="#F587C0"/><stop offset="100%" stop-color="#E72A8D"/></linearGradient><linearGradient id="aP" gradientUnits="userSpaceOnUse" x1="-614.8" y1="359.688" x2="-661.9" y2="372.313" spreadMethod="pad"><stop offset="0%" stop-color="#F587C0"/><stop offset="100%" stop-color="#E72A8D"/></linearGradient><linearGradient id="aQ" gradientUnits="userSpaceOnUse" x1="-617.013" y1="347.637" x2="-664.888" y2="360.463" spreadMethod="pad"><stop offset="0%" stop-color="#F587C0"/><stop offset="100%" stop-color="#E72A8D"/></linearGradient><linearGradient id="aR" gradientUnits="userSpaceOnUse" x1="-566.3" y1="396.2" x2="-570.4" y2="398.3" spreadMethod="pad"><stop offset="0%" stop-color="#F3D72A"/><stop offset="100%" stop-color="#EBC226"/></linearGradient><linearGradient id="aS" gradientUnits="userSpaceOnUse" x1="-572.288" y1="394.15" x2="-571.613" y2="403.75" spreadMethod="pad"><stop offset="0%" stop-color="#F4F5A6"/><stop offset="100%" stop-color="#F3D72A"/></linearGradient><linearGradient id="aT" gradientUnits="userSpaceOnUse" x1="-536.875" y1="274.6" x2="-541.325" y2="274.9" spreadMethod="pad"><stop offset="0%" stop-color="#F3D72A"/><stop offset="100%" stop-color="#EBC226"/></linearGradient><linearGradient id="aU" gradientUnits="userSpaceOnUse" x1="-542.025" y1="271.125" x2="-544.775" y2="279.575" spreadMethod="pad"><stop offset="0%" stop-color="#F4F5A6"/><stop offset="100%" stop-color="#F3D72A"/></linearGradient><linearGradient id="aV" gradientUnits="userSpaceOnUse" x1="-531.212" y1="399.063" x2="-523.087" y2="415.737" spreadMethod="pad"><stop offset="0%" stop-color="#FBCDE4"/><stop offset="100%" stop-color="#FEE9F3"/></linearGradient><linearGradient id="aW" gradientUnits="userSpaceOnUse" x1="-467.525" y1="294.462" x2="-448.675" y2="268.538" spreadMethod="pad"><stop offset="0%" stop-color="#FEE9F3"/><stop offset="100%" stop-color="#FBCFE5"/></linearGradient><linearGradient id="aX" gradientUnits="userSpaceOnUse" x1="-557.7" y1="287.988" x2="-579.9" y2="278.113" spreadMethod="pad"><stop offset="0%" stop-color="#FBCFE5"/><stop offset="100%" stop-color="#FEFEFE"/></linearGradient><linearGradient id="aY" gradientUnits="userSpaceOnUse" x1="-505.188" y1="347.712" x2="-507.813" y2="349.688" spreadMethod="pad"><stop offset="0%" stop-color="#F3D72A"/><stop offset="100%" stop-color="#EBC226"/></linearGradient><linearGradient id="aZ" gradientUnits="userSpaceOnUse" x1="-509.438" y1="347.237" x2="-507.862" y2="354.063" spreadMethod="pad"><stop offset="0%" stop-color="#F4F5A6"/><stop offset="100%" stop-color="#F3D72A"/></linearGradient><linearGradient id="ba" gradientUnits="userSpaceOnUse" x1="-439.65" y1="322.6" x2="-431.75" y2="332.7" spreadMethod="pad"><stop offset="0%" stop-color="#EE53A6"/><stop offset="100%" stop-color="#F7A0CC"/></linearGradient><linearGradient id="bb" gradientUnits="userSpaceOnUse" x1="-439.775" y1="320.663" x2="-431.025" y2="324.938" spreadMethod="pad"><stop offset="0%" stop-color="#F587C0"/><stop offset="100%" stop-color="#F9B8D9"/></linearGradient><linearGradient id="bc" gradientUnits="userSpaceOnUse" x1="-434.188" y1="325.337" x2="-445.212" y2="315.063" spreadMethod="pad"><stop offset="0%" stop-color="#FEE9F3"/><stop offset="38.824%" stop-color="#FBCFE5"/><stop offset="100%" stop-color="#F7A8D1"/></linearGradient><linearGradient id="bd" gradientUnits="userSpaceOnUse" x1="-435.025" y1="325.137" x2="-445.875" y2="314.662" spreadMethod="pad"><stop offset="0%" stop-color="#FEFEFE"/><stop offset="38.824%" stop-color="#FEE9F3"/><stop offset="100%" stop-color="#F9BEDC"/></linearGradient><linearGradient id="be" gradientUnits="userSpaceOnUse" x1="-597.788" y1="370.262" x2="-602.512" y2="376.537" spreadMethod="pad"><stop offset="0%" stop-color="#F599C9"/><stop offset="100%" stop-color="#F7C6E0"/></linearGradient><linearGradient id="bf" gradientUnits="userSpaceOnUse" x1="-597.513" y1="369.137" x2="-602.688" y2="371.762" spreadMethod="pad"><stop offset="0%" stop-color="#F587C0"/><stop offset="100%" stop-color="#F9B8D9"/></linearGradient><linearGradient id="bg" gradientUnits="userSpaceOnUse" x1="-601.1" y1="372.075" x2="-594.4" y2="366.025" spreadMethod="pad"><stop offset="0%" stop-color="#FEE9F3"/><stop offset="38.824%" stop-color="#FBCFE5"/><stop offset="100%" stop-color="#F7A8D1"/></linearGradient><linearGradient id="bh" gradientUnits="userSpaceOnUse" x1="-600.388" y1="371.725" x2="-593.813" y2="365.575" spreadMethod="pad"><stop offset="0%" stop-color="#FEFEFE"/><stop offset="38.824%" stop-color="#FEEDF5"/><stop offset="100%" stop-color="#F9CFE5"/></linearGradient><path fill="#FFF" fill-opacity="0" d="M0 320h284V0H0v320z" id="bi"/><path fill="url(#a)" d="M-446.4 519.15q-13.4-6.25-28.1-4.25-14.3 1.9-26.05 11.05-.65 2.9-1.25 7.65 11.7-3 26.75.1 13.95 2.9 28.05 10.45 13.8 7.4 24.2 17.25 10.75 10.2 15.05 20.5.1.1.5.3-3.9-24.75-14.85-41.35-9.9-15-24.3-21.7z" id="bj"/><path fill="url(#b)" d="M-448.75 540.2q-13.7-7.4-27.35-10.15-14.6-2.9-26.35.05-2.45 24.9 13.15 36.4 16.8 12.4 49.35 4.3 6.4-1.6 14.35.65 6.95 1.95 16.25 7.2-4.85-10.9-15.6-21.25-10.35-10-23.8-17.2z" id="bk"/><path fill="url(#c)" d="M-447 544.15q-14.1-7.55-28.05-10.45-15.05-3.1-26.75-.1-2.45 24.7 13.1 35.9 16.7 12.05 49.35 3.9 6.25-1.6 14.8.95 7.2 2.2 16.8 7.55-4.3-10.3-15.05-20.5-10.4-9.85-24.2-17.25z" id="bl"/><path fill="url(#d)" d="M-472.65 534.25l-1.5-.3q-3.2 10.8.9 20.2 3.4 7.9 13.45 17.5-9.15-9.7-12.1-16.85-3.95-9.45-.75-20.55z" id="bm"/><path fill="url(#e)" d="M-463.4 536.95l-1.45-.5q-1 8.75 3.25 16.8 3.6 6.8 12.3 15.1-7.9-8.45-11-14.6-4.1-8-3.1-16.8z" id="bn"/><path fill="url(#f)" d="M-453.9 540.8l-1.5-.75q.05 7.35 4.75 14 3.85 5.45 12.6 12.65-8.1-7.45-11.3-12.1-4.5-6.6-4.55-13.8z" id="bo"/><path fill="url(#g)" d="M-481.65 532.65l-1.85-.2q-4.35 12.05-.85 22.55 2.9 8.8 12.65 19.55-8.75-10.9-11.25-18.85-3.35-10.65 1.3-23.05z" id="bp"/><path fill="url(#h)" d="M-444.1 545.8l-1.3-.75q1.15 5.05 5.2 9.5 3.35 3.75 9.7 8-5.65-4.2-8.6-7.6-3.75-4.3-5-9.15z" id="bq"/><path fill="#B9E942" d="M-499.8 535.65l-2.65-9.35-12.15-9.4-2.15 3.45 16.95 15.3z" id="br"/><path fill="#DEF6A9" d="M-514.55 516.95q-.85-.45-1.95 1.3-.35.75-.35 1.45t.35.85q.4.25.95-.15.6-.4.95-1.15.4-.75.4-1.4 0-.7-.35-.9z" id="bs"/><path fill="#B9E942" d="M-496.2 625.9l-1.55 10.9 16.7-19.75-2.9-3.55-12.25 12.4z" id="bt"/><path fill="#DEF6A9" d="M-482.9 613.7q-.7-.35-1.1-.1-.4.25-.25 1.05.1.8.6 1.55.6.75 1.25 1.1.7.35 1.05.05.45-.25.3-1-.1-.75-.65-1.55-.5-.75-1.2-1.1z" id="bu"/><path fill="url(#i)" d="M-540.45 390.95l-21.2 1.3q12.85 7.1 26.4 36.45 13.35 29.05 22.55 69.2 9.75 42.75 11.4 84.25 1.8 46.4-7.1 81.85l11.5-.7q6.2-28.6 5.55-67.5-.6-36.75-7.15-76.35-6.4-39.1-17.2-72.55-11.2-34.6-24.75-55.95z" id="bv"/><path fill="url(#j)" d="M-494.45 575l-4.9-2.4q1.95 21.8 1.5 42.45-.5 19.95-3.3 42.75 5.05-21.2 6.35-42.05.95-14.6.35-40.75z" id="bw"/><path fill="#70A92A" d="M-502.8 661.2q-2.4.1-4 .9-1.65.85-1.6 1.9.05 1.1 1.75 1.75 1.75.65 4.15.55 2.4-.1 4-.9 1.7-.8 1.6-1.9-.05-1.05-1.8-1.75-1.75-.65-4.1-.55z" id="bx"/><path fill="url(#k)" d="M-597.9 572.4q-.45 10.3 2.9 18.45.6 1.35 3.2 6.8 2.1 4.35 3.25 7.7 5.9 17.65 4.9 34.25l7.2-19.6 42.85-46.3 24.9-30.7q-9.7-10.1-24.95-13.1-14.4-2.85-29 1.45-14.95 4.4-24.35 14.65-10.3 11.2-10.9 26.4z" id="by"/><path fill="url(#l)" d="M-526.55 544.25v-.1q-.1-.05-.1-.25-17.05-6.6-32.65-2.5-12.9 3.4-29.45 15.85 16.75-11.3 28.3-14.25 15.7-4 33.55 2.6.1.1.5.1v-.1q-.1-.95-.15-1.35z" id="bz"/><path fill="url(#m)" d="M-536.95 554.6l-.05-1.05-.05-.15q-13.75-3.8-26.35-.05-10.4 3.1-23.8 12.85 13.55-8.95 22.9-11.7 12.7-3.7 26.95.1.25.15.5 0h-.1z" id="bA"/><path fill="url(#n)" d="M-568.95 565.45q-7.9 3.45-18.1 12.5 10.3-8.4 17.4-11.4 9.65-4.15 20.5-2.35h.35v-.1q-.1-.5-.15-.7v-.25q-10.4-1.85-20 2.3z" id="bB"/><path fill="url(#o)" d="M-569.75 578.35q-7.95 3.45-18.1 12.45 10.35-8.4 17.4-11.4 9.6-4.1 20.5-2.35h.3V577q0-.5-.1-.8v-.15q-10.4-1.85-20 2.3z" id="bC"/><path fill="url(#p)" d="M-510.35 541.35q-2.65-2.4-5-3.95-23 4.4-44.35 35-9.1 13.05-15.6 27.95-6.3 14.6-8.5 27.2l.3 5.75 5.6-15.3 42.85-46.35 24.7-30.3z" id="bD"/><path fill="url(#q)" d="M-508.7 543q-1.9-2.1-5.05-4.45-23 4.2-45 35.15-9.3 12.95-16.05 27.8-6.55 14.4-9 26.5.45 5.85.15 11.6l7.2-19.6 42.85-46.3 24.9-30.7z" id="bE"/><path fill="url(#r)" d="M-532.9 550.9q-13.1 9.55-25.05 26.6-10.85 15.55-17.95 32.95-6.9 17.05-7.45 29.2 5.25-19.1 32.5-26 8.6-2.15 21.3-3.5 14.4-1.5 15.8-1.75 16.3-3.15 25.75-17.4 8.8-13.3 7.15-28.35-.9-8.75-7.3-15-6.65-6.45-16-6.95-13.95-.65-28.75 10.2z" id="bF"/><path fill="#A6DA30" d="M-528 547.6l-1.75 1.1q12 12.2 12.4 26.4.3 10.65-6.7 28.45 8.35-18.15 8.1-30.05-.25-14.2-12.05-25.9z" id="bG"/><path fill="#A6DA30" d="M-538 554.9l-1.6 1.45q8.05 10.85 7.45 23.6-.4 9.7-6.65 25.55 7.4-16.2 8.05-27.05.75-12.9-7.25-23.55z" id="bH"/><path fill="#A6DA30" d="M-547.45 564.25l-1.5 1.65q5.7 9.75 3.75 21.1-1.4 8.1-8.5 22.85 8.25-14.95 10-24.35 2.1-11.55-3.75-21.25z" id="bI"/><path fill="#A6DA30" d="M-515.75 542.15l-2.75.85q13.7 12.6 15.3 27.65 1.2 11.15-4.55 29.7 7-18.9 5.95-31.25-1.25-14.75-13.95-26.95z" id="bJ"/><path fill="#A6DA30" d="M-556.8 576l-1.5 2q2.15 8.65-1.45 18.2-2.7 7.2-10.25 18.1 8.65-11.1 11.85-19.5 3.8-9.9 1.35-18.8z" id="bK"/><path fill="url(#s)" d="M-514.3 573q-.15-14.65-12.1-26.3-.6.25-1.8 1 12.15 12.25 12.45 26.85.2 10.75-6.9 28.95 8.45-18.4 8.35-30.5z" id="bL"/><path fill="url(#t)" d="M-536.55 553.75q-1.25 1-1.6 1.35 8.25 10.95 7.6 24.2-.5 9.95-6.9 26.05 7.55-16.45 8.25-27.6.85-13.3-7.35-24z" id="bM"/><path fill="url(#u)" d="M-546.2 562.9l-1.55 1.65q5.8 9.8 3.85 21.75-1.45 8.9-8.45 23.45 8.2-14.85 9.95-25 2.1-12.15-3.8-21.85z" id="bN"/><path fill="url(#v)" d="M-516 542.2h-.05l.3.45q13 12.75 14.25 27.8.95 11-4.9 29.8 7.05-18.95 6.1-31.4-1.15-15-13.8-27.15-.15 0-.3.1h-.05l-1.55.4z" id="bO"/><path fill="url(#w)" d="M-555.85 574.6q-1.25 1.85-1.4 2.05 2.65 9-.9 18.9-2.65 7.35-10.45 18.7 8.95-11.65 12.05-20.2 3.75-10.2.7-19.45z" id="bP"/><path fill="#7DB52C" d="M-579.85 582.25q5.9.25 10.95-3.6 5.05-3.8 6.3-9.55 1.25-5.75-2-9.9-3.25-4.2-9.15-4.45-5.85-.25-10.9 3.6-5 3.8-6.3 9.55-1.3 5.75 1.95 9.9 3.25 4.2 9.15 4.45z" id="bQ"/><path fill="url(#x)" d="M-568.6 555.95l-.85-.35q-8.15 3.55-17.75 10.6 10.95-7.3 18.6-10.25z" id="bR"/><path fill="url(#y)" d="M-575 568.65q-5.4 3.35-12.05 9.3 6.9-5.7 11.95-8.65 6.4-3.8 12.7-5.05l-.25-.85q-6.05 1.4-12.35 5.25z" id="bS"/><path fill="url(#z)" d="M-569.2 578.85l.3-.2q.2-.1 1.35-1.15-4.5 1.6-9.05 4.55l1.45-.3q2.9-1.7 5.95-2.9z" id="bT"/><path fill="url(#A)" d="M-578.55 576.5q4.8.2 8.95-2.95 4.15-3.2 5.2-7.85 1.05-4.7-1.6-8.15-2.7-3.45-7.55-3.65-4.85-.2-8.95 2.95-4.15 3.1-5.2 7.8-1.05 4.7 1.65 8.15 2.65 3.45 7.5 3.7z" id="bU"/><path fill="url(#B)" d="M-577.05 574.3q4.3-.2 7.35-2.55 3.8-2.9 4.6-6.85.75-3.95-1.7-7.15-2.55-3.25-6.45-3.65-4.05-.4-7.8 2.45-3.85 2.95-4.85 7.3-.95 4.35 1.5 7.55 2.45 3.15 7.35 2.9z" id="bV"/><path fill="url(#C)" d="M-572.75 553.8q-4.45-.15-8.3 2.75l-.6.5q3.25-2.1 6.5-1.7 4 .4 5.95 3.4 2.15 3.2.15 7.35-1.35 2.9-3.6 4.7-2.45 1.95-5.3 2.15-4.15.3-6.85-2.15 2.55 3.9 7.65 3.95 4.55.1 8.05-2.6 3.8-2.9 4.8-7.3.95-4.45-1.55-7.65-2.45-3.2-6.9-3.4z" id="bW"/><path fill="#FEFEFE" d="M-570.2 558.45q.4-1.05-.15-1.85-.5-.85-1.7-1.05-1.15-.15-2.2.4-1.05.6-1.45 1.65-.35 1.05.2 1.9.55.85 1.65 1.05 1.15.2 2.2-.4 1.05-.65 1.45-1.7z" id="bX"/><path fill="#99CE2F" d="M-531.85 576.4q1.95.25 4-.35 2.75-.75 5.4-3.8 2.55-3.3 2.35-7.3-.25-3.9-3.1-6.15-2.75-2.15-6.35-1.35-3.55.85-6.25 4.15-2.6 3.3-2.5 7.2.1 3.9 2.9 6.1 1.5 1.2 3.55 1.5z" id="bY"/><path fill="#B4E732" d="M-533.05 559.05q-1.35 1.15-1.65 1.4 4.05 7.3 4.2 16.05.9-.1 1.4-.15.25-9.4-3.95-17.3z" id="bZ"/><path fill="#7DB52C" d="M-535.8 561.6l-.25.35q3.45 6.6 3.95 14.4l1.35.15q.15-8.65-3.8-16.2-1.05 1.05-1.25 1.3z" id="ca"/><path fill="url(#D)" d="M-534.35 571.15q2.3 1.85 5.5 1.2 3.15-.65 5.3-3.35 2.15-2.75 2.1-5.95-.1-3.2-2.35-5-2.3-1.85-5.5-1.2-3.2.7-5.35 3.45-2.15 2.7-2.05 5.9.1 3.2 2.35 4.95z" id="cb"/><path fill="url(#E)" d="M-533.45 569.95q2.1 1.7 5.2.75 2.8-.8 4.35-2.85 2-2.55 1.85-5.2-.15-2.7-2.3-4.3-2.15-1.7-4.75-1.35-2.65.4-4.65 2.85-2 2.55-1.9 5.5.05 3 2.2 4.6z" id="cc"/><path fill="url(#F)" d="M-533.85 569.65q2.35 2.15 5.65 1.4 2.9-.7 4.75-3 2-2.5 1.9-5.55-.1-3.05-2.2-4.65-2.1-1.7-5.05-1.1-2.9.6-4.95 3.1-.074.111-.15.2 1.794-1.709 3.8-1.9 2.65-.4 4.4 1.2 1.9 1.7 1.3 4.75-.4 2.05-1.6 3.65-1.25 1.65-3.1 2.25-2.6.9-4.75-.35z" id="cd"/><path fill="#FEFEFE" d="M-528.4 561.25q.75-.05 1.35-.6.6-.6.65-1.3.1-.7-.4-1.2-.45-.5-1.2-.4-.75.05-1.35.6-.6.6-.7 1.3-.1.7.4 1.2t1.25.4z" id="ce"/><path fill="#F7A0CC" d="M-609 414.9q-1.4-.05-8.1-5.35-6.6-5.25-11.5-5.15-6.85.1-10.2 4-1.75 2.05-4.6 9.2-.4.95-1.15 1.85-.4.5-1.3 1.45-1.9 2-1.5 3.75.35 1.65 2.5 2.65.9.4 2 1.1 11.15 8 20.8 5.65 11.15-2.7 13.05-19.15z" id="cf"/><path fill="#F587C0" d="M-396.3 416.6q-1.6-3.75-7.9-3.45-3.45.15-9.45 1.05-19.7 0-41.25 11.95-23.95 13.3-30.4 32.1-2 5.7-1.9 10.85.1 3.1.55 10.75 0 2.95 2.3 5.25t2.3 3.35q.9 0 1.9.8.85.75 1.4 1.8-.6 0-.85 1-.3 1.1.15 2.95 7.6 4.85 11.7 4.55 3.15-.25 8.7-4.7 3.25-2.65 4.25-6.35 1.05-4.05-1.05-7.9 1.8 0 3 1.8.75 1.1 2.3 3.95 3.8 5.6 13.25 5.25 1.4-7.05-2.5-12.1-.3-.4-2.85-3.15-1.4-1.5-1.4-2.4 3.35 3.7 8.05 5.9 5.35 2.5 7.6.15 2.8-2.9 4.3-4.55 2.6-3 3.6-5.5 2.85-6.95-5.5-13.1-3.65-1.9-7.45-4.35-7.65-5-5.5-7.75 1.65-2.15 9.65-.95 12.2 1.85 13.25 1.85 15.65.45 20.75-6.35 5.4-7.2-1-22.7z" id="cg"/><path fill="#FEE9F3" d="M-565.95 272.6q.25-1.05-.15-2.7-7-4.5-10.85-4.2-2.9.2-8 4.3-3 2.5-3.9 5.9-1 3.75.95 7.35-1.65 0-2.8-1.65-.65-1-2.1-3.65-3.5-5.25-12.25-4.95-1.3 6.55 2.3 11.2.35.45 2.65 2.9 1.25 1.4 1.25 2.2-3.05-3.4-7.4-5.45-4.95-2.35-7-.1-6.45 7.05-7.35 9.25-2.65 6.4 5.05 12.1-2.6 0-11.3-.45-3.45-.15-4.1.8-.55.8-.1 5.1.65 6.95.65 12.65 0 3.95 4.8 5.35 2.65.75 7.95.75 22.55 0 33.5-3.4 17.9-5.6 23.45-22.05 1.9-5.25 1.8-10-.55-5.8-.55-10.05 0-2.7-2.1-4.8-2.15-2.1-2.15-3.05-.8 0-1.7-.75-.85-.7-1.35-1.7.55 0 .8-.9z" id="ch"/><path fill="#F7A0CC" d="M-537.7 477.7q-1.15 1.15-7.15 1.9-6.9.85-10.1 2.35.7-5.2-1.15-10.85-.9.8-7 1.35-6 .55-9.25 3.55-4.5 4.2-5.55 8.8-.55 2.5-.2 8.75.05 1.2-.65 3.65-.65 2.45.15 3.4.75.85 2.5.2 6.05-2.2 8.55-3.6 4.05-2.25 7.15-6.15-2.4 6.7-2.65 9.45-.25 3.05 1.65 4.95 3.85 3.75 10.7 5 6.95 1.3 10.6-1.3 1.9-1.3 2.4-5.65.25-5.35.4-7.95.15-2.35 1.1-5 1.05-2.65 1.4-3.85 1.1-4.2-2.9-9z" id="ci"/><path fill="url(#G)" d="M-561.2 286.55q-.9 2.35-1.2 2.35-.6 0-5.25.55-1.1.5-4.25 3.65-1.6 1.6-2.65 4.4-1.05 2.9-1.05 5.6l-.5.5q-8.4 0-12.1.6-1.8.4-6.05 5.05-4.45 4.8-4.45 7.05l-2.15 1q-.85.45-3.9 2.7-3.25 2.35-3.95 3.1-1.2.8-1.25.85-.1.1-.85 1.25 0 .5-.4 1.25-.55.85-1.2.85h-5.8q-1.3 0-3.85-.1-2.2 0-3.5.6-2.2-1.2-5.65-2.5-4.25-1.5-5.5-2.1-5.75-2.7-6.5-1.7-.55.7 1.15 6.3 1.75 6.15 3.1 8.75 2.3 4.45 5.45 4.45-7.05 1.4-13.75 8.45-5.4 5.75-9.35 13.65 2.5 5 7.9 8.2 4.844 2.858 10.4 3.4-12.493-.872-15.5 4.6-2.2 4.25-1.3 11.15.9 6.5 3.75 10.7 1.8 2.6 6.15 2.65 3.95.05 6.45-1.75-1.05 5.45 2.45 9 3.6 3.6 9.6 2.7 1.2-.15 2 .25 1 .65 1.8 1.15l1.5 2.1q1.7 2.2 1.55 6.9-.1 4.9-2.55 5.8-11.2 4.25-11.95 10.9-.6 5.45 5.35 10.7 4.5 4.05 7.95 3.45 3.75-.65 8.1-7.15-5.2 8.9-6.8 14.2-1.9 6.45-.1 12.35 4.2-1.65 6.6-2.55 4.35-1.7 5.55-3.55-.85 3-1 5-.25 2.7.5 5 3.4-.9 8.25.5 4.5 1.3 9.6-.5l4.75-.5 2.1-.6h1.05q.55 0 2.65-.8 2.1-.8 2.6-.8 2.45-.65 5.9-.85 2.05-.15 6.2-.15h9.5q.85 0 6.1-2.25 5.05-2.15 6.5-1.9 2.1.55 3.2.55 1 0 2.35.7.35.15 2.4 1.4 2.75 1.65 4.65 2.6.2.1 2.2 1.35 1.65 1 2.55 1.3 0 2.15-.6 11.4-.2 8.85 1.7 11.7 2.5 0 5.1-.95 2.65-1 4.35-2.7-6 7.3-1.65 11.85 3.6 3.75 11.35 3.85 5.9 0 8.35-2.3 3.1-3 1.25-10.25 2.9 1.5 4.5 1.85 1.3.25 5.15.25.4-1.15 4.5-11.4 2.15-5.4 2.8-8.7 1.55-8.2-3.65-21.5-1-2.65 2.3-4.75 3.1-1.95 4.75-1.1 4.45 2.4 6.8 3.45 4.2 1.85 4.8.65.95 5.4 1.85 7.85 1.4 3.85 3.7 4.6 5.9 2.1 10.2-3.9 3.68-5.073 3.7-11.1.029 2.055 1.85 5.55 1.7 3.25 3.4 4.95 1.75 1.75 4.15 1.6 2.4-.2 4.25-2.15.8-.9 1.25-1.5.9-1 1.5-1.35 1.1-.7 3.25-1.55 2.05-.8 2.95-1.4 2.8-1.9 2.25-4.7-.5-2.35-2.95-4.3-1.65-1.4-4.75-3.25-2.8-1.75-3-1.95 2.5.5 10.3 4.15 6.9 3.2 10.25 3.2 0-13.95-1.55-18.4-3.35-9.45-15.3-9.45 2.4-2.95 5.3-4.95 3.05-1.8 4.3-2.55 3.95-2.4 3.95-8.4 0-1.15 6.8-3.45 7.3-2.55 7.35-2.6 2.85.7 5.8 1.35 5.9 1.3 8.75-1.25 2.8-2.5 3.4-8 .7-5.95-2.6-8.6-1.75-1.3-4.75-1.7-3.25-.4-6.9.3 2.4-1.7 5.4-2.25 3.75-.45 6.2-.9 0-2.95-2.4-7.1-2.6-4.5-5.05-4.5 5-5.9 5.75-12.1.65-5.55-2.25-10.05-2.8-4.35-7.85-6.1-5.2-1.8-10.9-.1 2.05-1 4.25-3.2 2.15-2.15 3.15-4.2 1.6-2.85 1.5-5.95-.1-3.2-2.05-5.1-.2-.2-.3-2.75-.1-2.45-.7-2.7-2.05-.85-5.8-4.95-2.7-2.95-7.2-2.6-1.4.15-3.5 1.35-1.3.8-4.6 3 5.75-5.6 8-11.95 1.85-5.15.9-8.95-1.1-4.4-5.75-4.85-3.8-.3-7.9 1.85-3.85 2.05-5.8 5 1.2-4.05 1.5-7.95.25-3.55-.4-5.75-.45-1.6-4.5-1.05-2.15.25-6.35 1.4-3.3.85-9.15 6.7 1.1-8.6-2.25-12.6-3.2-3.85-11-3.85 2.1-3.9 1.6-6.05-.2-.9-2.7-4.5-3.4-4.9-7.85-9.5-7.2-7.2-13.55-6.35-6.7.9-10 10.75 0-5.75-3.25-7.85-3.5-2.25-9.1.85-2.35 1.2-2.75 4.4-.4 3.1.95 8.45h-7.95l-1.55.5h-.5q-.55 0-2.15.25-1.6.25-2.1.25-1.85 1.35-8 6-5.85 4-8.8 4h-3.75q-1.6 0-4.45 1.2-1.55.65-4.45 1.95-1.9.45-3.7 1.85-2.1 1.65-2.1 3.4l-.85 2.4z" id="cj"/><path fill="#F587C0" d="M-486.05 333.65q-3.6-2.65-7.85-1.5-3.3.9-7.3 4.2-1.35 1.1-2.95 3.25-1.7 2.15-2.4 3.7-.3.55-.65 1.6l-.55 1.7q.1.2.7 1.95.35.9.8 1.35 2.45 2.45 9.75 3.05 7.05.6 9.7-1.1 2-1.4 2.95-5.15.8-3 .65-6.1 0-1-1-3.55-1.05-2.7-1.85-3.4z" id="ck"/><path fill="#F7A0CC" d="M-503.45 368.7q.25 3.95 2.8 8.25 5.8 9.65 15.55 11.75 4.65 1.05 8.85-7 4.1-7.85 4.1-16.75l-12.1-7.25q-5.15 0-10.05 1.15-5.1 1.2-6.9 3-2.55 2.6-2.25 6.85z" id="cl"/><path fill="#F16AB1" d="M-445.4 436.05q6.15.7 5.15-4.5-.1-.4.1-5.6.15-5.5.15-5.85 0-4.55-.2-6.25-.4-2.7-2.5-5.7-7.25-10.4-21.1-9l.75 1.4q-.4.3-2 .65-1.5.35-2.2 1-1.55 1.45-.7 3.9.55 1.45 2.25 4.95.85 2.35.05 5.3-.45 1.65-1.4 4.8-1.05 5.45 7.8 9.9 8.75 4.35 13.85 5z" id="cm"/><path fill="#EE53A6" d="M-464.2 403.1l-1.5 1.45q8.05 3.2 12.15 7.95 4.9 5.65 5.9 15.15-.05-12-5.15-18.05-3.75-4.45-11.4-6.5z" id="cn"/><path fill="url(#H)" d="M-578.65 415.1q-3.05-8.6-2.65-10.05-16.35-2.95-22.4 7.9-5.25 9.3-1.05 23.35.2.6.45 2.45.3 2.55 1.8 3.4 1.6.95 4-.45 1.25-.65 1.9-.95 1.15-.55 2.15-.65 7.65-.75 10.2-2 4.75-2.35 7-9.5 1.6-5.05-1.4-13.5z" id="co"/><path fill="#F9B8D9" d="M-535.15 265.15q-5.55 6-5.3 11.25 11.15-2.3 16.7-5.5 7.65-4.4 8.85-12.3l.3-1.3q.5-1.35-.15-1.75-.7-.45-2.45.4-2.05.9-2.65 1-9 1.35-15.3 8.2z" id="cp"/><path fill="url(#I)" d="M-528.65 291.15q-5.75 1.15-6.4 2.15-.55.8-.3 7 .2 4.65 1.1 7.3 1.25 3.6 4.45 6.5 16.6.9 25.55 1.3l5.85-16.95q-4.6-5.4-9.25-7.55-5.85-2.75-13.3-1.25l-7.7 1.5z" id="cq"/><path fill="url(#J)" d="M-564.05 479.65q10-11.8 2.95-33.6-1.3.85-13.45 4.4-11.85 3.45-16.5 6.95-6.4 4.75-6.45 11.95 0 1.55 2.2 12.25.2 1.45-.45 4.45-.6 2.95.8 4.15 1.3 1.15 3.95.45 1.65-.35 2.65-.4 16.35-1.25 24.3-10.6z" id="cr"/><path fill="url(#K)" d="M-568.1 416.6q-.6.95-7.8 7.05-7 6-9.15 9.8-2.85 5.15-.7 10.05.45 1.05 5.2 7.65.6.9 1.05 3.25.45 2.15 1.8 2.5 1.25.35 2.9-.85 1-.75 1.65-1.1 10.75-5.8 13.35-14.6 3.2-11.05-8.3-23.75z" id="cs"/><path fill="#F9B8D9" d="M-598.05 327.25q-1.8-1.55-5.15-.3-3.4 1.25-6.4 4.65-2.9 3.45-3.7 6.95-.8 3.55 1 5.1 1.85 1.6 5.2.3 3.4-1.3 6.3-4.7 2.95-3.4 3.8-6.95.8-3.5-1.05-5.05z" id="ct"/><path fill="#F16CB2" d="M-536.15 474.9q1.15.35 4.95 6.4 3.75 5.95 7.8 6.85 5.65 1.35 9.7-1.35 2.2-1.5 6.8-7.1.6-.75 1.55-1.35 1.05-.65 1.55-1 2.15-1.35 2.45-2.95.25-1.55-1.15-2.9-.75-.55-1.3-1.35-6.6-9.3-15.3-9.25-10.1.05-17.05 14z" id="cu"/><path fill="#EB3B9A" d="M-533.9 473.05q-.15 1-4.3 4.75-4.15 3.65-4.5 7.3-.55 5.15 1.8 8.6 1.15 1.75 5.7 5.55.75.55 2 2.6 1.15 1.85 2.35 2 1.15.1 2.05-1.3.4-.7.95-1.2 6.35-6.4 5.6-14.15-.85-8.9-11.65-14.15z" id="cv"/><path fill="url(#L)" d="M-537.55 469.5q-2.3-1.8-3.9-2.65-7-3.85-13.25-2-5.95 1.8-10.1 8.3-2.05 3.05-4 6.3-1.9 2.9-.45 5.2 1.15 1.85 4.95 3.8 3.4 1.7 7.65 2.75 4.5 1.05 8.9 1.05 7.8 0 9.7-3.05.5-.85 1.1-3.05.55-2.2 1.3-3.35-.75-.15 1.1-2.9 2.2-3 2.6-3.65l-1.4-3.65q-1.15-.75-4.2-3.1z" id="cw"/><path fill="url(#M)" d="M-490.4 330.5q-1.55 2.05-3.45 8.75-.35 1.35-2.1 3.3-1.6 1.95-1.05 3.55.55 1.5 2.85 2.3 1.35.5 2.15.95 12.15 6.75 21.5 3.95 10.8-3.2 10.75-18.6-1.4.05-8.75-4.5-7.25-4.45-12.15-4.05-6.85.55-9.75 4.35z" id="cx"/><path fill="#FBCFE5" d="M-467.9 332.5q7.45 2.35 13.55 1.3 5.85-1.05 8.55-4.85 4.55-6.4 2.35-15.75-.9-3.9-2.75-6.1-2-2.4-4.25-1.85-1.1.3-2.15.4-2.35.2-8.45.45-5.55.65-8.85 3.35-4.25 3.45-3.4 10.55.8 6.6 5.4 12.5z" id="cy"/><path fill="url(#N)" d="M-537.5 345.35q3.35-1.65 4.6-2.15 7.9-3.35 8.9-8.95 1.05-5.9-6.4-11.35-2.1-1.55-4.85-4.1-2.3-1.5-5.55.15-12.1 6-12.95 14.3-.85 8.5 10.65 14.7 2.2-.9 5.6-2.6z" id="cz"/><path fill="url(#O)" d="M-466.15 362.65l.35 1.35q-.4.2-1.85.15-1.35 0-2.1.4-1.65.95-1.4 3.25.15 1.35.9 4.7.25 2.25-1.05 4.65-.7 1.35-2.2 3.85-2.05 4.55 4.75 10.25 6.7 5.55 10.95 7.15 5.15 1.95 5.4-2.75 0-.45 1.2-4.9 1.3-4.55 1.4-5 .9-3.95 1.05-5.5.25-2.45-1-5.5-4.1-10.45-16.4-12.1z" id="cA"/><path fill="url(#P)" d="M-471.9 398q-7.7 1.25-10.55 2.6-5.25 2.45-9.2 9-2.8 4.75-1.85 12.15.95 7.5.2 8.85 15.45 1.45 24-8.75 7.4-8.8 6.6-21.2 0-1.15.15-2.15.3-2.25-.95-2.9-1.35-.75-4.1.6-.65.35-2 1.05-1.25.55-2.3.75z" id="cB"/><path fill="url(#Q)" d="M-484.75 457.2q1.9.2 3.1-1.5.7-1 1.45-1.55 9.65-7.95 7.3-18.35-2.65-11.75-20.75-18.35-.15 1.2-6.05 6.6-5.75 5.3-6.05 9.9-.4 6.45 3.65 10.65 2.15 2.25 9.8 6.9 1.55.9 3.45 3.25 2.1 2.3 4.1 2.45z" id="cC"/><path fill="#EB3B9A" d="M-483.95 411.25q-.6-.35-1.9-1.05-1.15-.75-1.85-1.55-5.15-5.9-7.75-7.45-4.85-2.9-12.3-1.6-5.35.9-10.85 7.05-1.35 1.55-3.75 4.3-1.9 2-3.3 2.3 7.25 14.75 20.15 14.95 11.15.2 20.7-9.4.35-.4 1.8-1.5 1.95-1.35 1.8-2.95-.15-1.7-2.75-3.1z" id="cD"/><path fill="url(#R)" d="M-541.8 447.25q-4.5 5.7-2.8 12 .3 1.05 4.8 10.25.6 1.25.7 4.05.2 2.7 1.7 3.45 1.45.7 3.55-.5.85-.5 2.25-1.1 14.1-4.9 18.85-15.05 6-12.7-5.45-30.25-.95 1.1-10.7 7.1-9.6 5.85-12.9 10.05z" id="cE"/><path fill="url(#S)" d="M-518.3 416.2q-1.25-.25-5.8-1.55-4.35-1.1-6.3-1.1h-4.15q-.85 0-3.35.55-2.55.55-4.55.55-5.9 0-8.45 4.15-2.1 3.35-2.1 10 0 1.95-.8 6.05-.75 4-1.25 5.05-1.15 2.45.3 3.5.95.7 2.85.7h14.7q5.35 0 8.15-1.35 3.95-1.9 3.95-6.6 1.1 2.8 6.05 3.5 3.15.4 9.2-.05 3.55-.3 6.35.3 1.85.35 2.05-.55 1.75-8-3.65-14.95-5.15-6.6-13.2-8.2z" id="cF"/><path fill="url(#T)" d="M-531.95 362l-1.15 26.05q2.4-1.2 6.15-4 4.1-3.2 5.95-4.55 4.95-3.5 8.1-7.05 4.7-5.25 4.25-9.45-.45-4.5-6.85-8.1-6.15-3.45-10.9-2.6-2.9.55-4.5 3.75-1.45 2.9-1.05 5.95z" id="cG"/><path fill="url(#U)" d="M-531.45 386.1l1.5.3q0 .7-.65 2.85-.65 2.05-.55 3.45.15 3.15 2.45 4.85 1.05.8 5.15 2.45 3.5 1.5 5.3 2.2 3.15 1.2 5.45 1.55 8.15 1.2 12.85-2.7 3.3-2.75 6.3-9.95.45-1.05 1.35-2 .1-.1 1.6-1.45 2.2-2.05 1.8-4.25-.4-2.05-2.9-3.7-1.4-.9-2.3-1.7-9.65-8.8-17-9-13-.2-20.35 17.1z" id="cH"/><path fill="url(#V)" d="M-528.85 389.6l-3.1-.4q-1.25 2.95-5.5 3.1-2.45.15-7.75-.35-6.05 0-7.5 5.45-1.35 5.2 2.3 8.75 2.7 2.6 4.7 5.5 2.75 3.85 3.3 7.1.8 4.2 3.35 5.65 2.7 1.55 6.1-.7 3.6-2.65 5.15-3.5 2.5-1.3 6.8-1.3 6.3 0 8.55-5.4 2.3-5.55-2.6-10.1-2.2-2-8.55-5.25-5.25-3.4-5.25-8.55z" id="cI"/><path fill="#F587C0" d="M-529.45 390.5l-1.95-.7q-3.35 5.05-4.85 13.05-1.4 7.65-.7 16.05 1.8-18.55 7.5-28.4z" id="cJ"/><path fill="#F587C0" d="M-530.25 391.9l-1.5 1q2.15 5.55 5.7 9.55 4.75 5.4 11.45 7.5-6-2.55-10.25-7.75-3.7-4.6-5.4-10.3z" id="cK"/><path fill="#F587C0" d="M-531.05 392.6l-.9-1.15q-3.15 4.3-7.7 6.4-4.95 2.2-10.6 1.25 5.95 1.8 11.5-.65 4.1-1.8 7.7-5.85z" id="cL"/><path fill="url(#W)" d="M-528.4 364.45q-2.95-5.05-11.25-5.05-10.7 0-16.15-3-3.55-1.8-5.95-.3-2.35 1.45-2.1 5.1 2.5 7.85.95 14.85-1.8 7.8 2.85 12.65 5.2 5.4 15.55 3.05 3.3-1.3 5-1.8 2.9-.9 6.15.55l2.85-1.4q-2.05-2.05-.45-6.15 2.55-5.2 3.4-8.4 1.5-6.1-.85-10.1z" id="cM"/><path fill="#F16CB2" d="M-533.75 389.6l.35-1.55q-7.6-.85-14.2-4.25-7.15-3.75-11.5-9.85 3.75 6.8 11.7 11 5.9 3.15 13.65 4.65z" id="cN"/><path fill="#F16CB2" d="M-532.8 390.65h1.5q-.6-19.35-13.9-28.2 5.8 5.65 9.05 13.45 3.05 7.2 3.35 14.75z" id="cO"/><path fill="#F16CB2" d="M-533.1 389.35l1.45-1.35q-7.15-4.05-14.4-12.2-4.75-5.35-11.55-14.95 10.95 19.35 24.5 28.5z" id="cP"/><path fill="#EE53A6" d="M-529.15 388.05l.45 1.95q5.95-3.3 14.85-4.25 6.05-.65 15.6-.25-18.5-2.85-30.9 2.55z" id="cQ"/><path fill="#EE53A6" d="M-529.6 386.65l1 1.55q2.3-5.2 7.95-8.8 4.7-2.95 12.75-5.35-7.8 1.5-13 4.4-5.6 3.15-8.7 8.2z" id="cR"/><path fill="#EE53A6" d="M-528.45 389.1l-.65 1.4q6.3 7.2 20.05 7.6-7.1-.9-11.45-2.75-5.25-2.2-7.95-6.25z" id="cS"/><path fill="url(#X)" d="M-461.2 353.95l.45 1.5q-.45.2-2.15.2-1.6 0-2.45.45-1.5.9-4.3 1.85-1.95 1.05-1.7 3.55.2 1.55-.55 6.5-.7 4.55-.15 6.4 2.2 7.75 9.8 12.15 5.45 3.2 12.15 3.95 1.15.2 3.4 1.8 2.15 1.5 3.45.45 1.25-.95 1.35-3.75 0-1.15.3-2.65 2.1-11.65-.6-18.35-4.75-12.3-19-14.05z" id="cT"/><path fill="url(#Y)" d="M-453.05 366.85q.1 3.05 4.1 10.4 4.35 8.1 4.95 10.75 1.9-8.65-.25-15.65-1.4-4.45-3.85-6.95-2-2.1-3.6-1.2-1.4.75-1.35 2.65z" id="cU"/><path fill="url(#Z)" d="M-464.05 358.05l-1.45.95q5.15 4.2 7.75 8.25 3.45 5.25 4.25 12.55-.15-7.5-3.75-13.2-2.05-3.3-6.8-8.55z" id="cV"/><path fill="url(#aa)" d="M-466 357.7l-2.05.65q1.15 4.1 3.4 12.95 3 7.8 10.15 13.4-6.45-6.2-9.1-13.4-2.05-5.5-2.4-13.6z" id="cW"/><path fill="#F9B8D9" d="M-449 340.2q-5.3-4.8-9.7-4.9-4.65-.1-7.4 5.05-1.7 3.25-2.4 7.55-.35 2.15-.8 7.75.3.3 1.8 1.35.95.6.55.9 3.5 3.25 6.15 4.25 4.1 1.45 9.2-.6 2.8-1.1 5.1-3.1 2.2-1.95 3.55-4.35 1.55-2.75 1.45-4.7-.05-2.4-2.5-4.55l-5-4.65z" id="cX"/><path fill="url(#ab)" d="M-487.75 359.1q0 3.25 1.65 5.85 1.3 2.05 4.1 4.2 2.55 1.95 5.3 3.05 2.95 1.2 5.45 1.2 3.75 0 4.25-2.35.2-1.05-.6-5.35-.3-2.05-.15-4.6.3-3.8.3-4.65-3.5-6.65-9.45-11.35-5.3-4.3-8.15-2.2-2.7 1.95-2.7 9.25v6.95z" id="cY"/><path fill="url(#ac)" d="M-564.5 410.55q1.25-4.9.4-8.6-.9-3.95-3.85-5.3-3.85-1.8-9 .45-2.8 1.2-9.3 5.65-5.25 3.6-6.2 9.55-.75 4.5.95 12.05.3 1.4-.3 3.75-2 7.45 3.5 5.95 3.15-.9 12.2-6.65 8.8-5.7 11.6-16.85z" id="cZ"/><path fill="#F58CC2" d="M-568.9 392.75q-14.2-9.55-24.9-4.5-7.5 3.55-12.45 13.7-4.25 8.5-3.35 11.2.8 2.6 5.15-2.1 3.7-3.85 6.25-3.75 3.05.2 6.7.7 6.5.8 12.3-2.5 6.9-3.95 10.3-12.75z" id="da"/><path fill="url(#ad)" d="M-509.45 325.55q6.2-1.85 6.05-11-2.95-.6-8.9-2.55-5.4-1.75-8-2.15-8.35-1.3-11.75 6.7-2.8 6.7-1.2 7.55.7.35 3.4.5 3.9.2 6.25.55 10.5 1.5 14.15.4z" id="db"/><path fill="url(#ae)" d="M-486.75 287.85q-1.25.35-2.15.45-6.1.45-8.2.85-5 .9-7 2.95-3.6 3.75-3.2 10.8.3 5.75 3.15 12.25 1-.7 9.3-1 8.15-.3 11.55-3 4.8-3.85 4.65-8.1-.1-2.25-2.75-8.2-.4-.85-.4-1.8v-1.7q0-2.2-1.4-3.15-1.35-.85-3.55-.35z" id="dc"/><path fill="url(#af)" d="M-489.35 311.45q-6.65.25-11.35 2.05-4.7 1.8-4.7 4.1 0 2.25 4.7 3.7 4.75 1.45 11.35 1.2 9.1.25 12.65.35 6 .1 6-1.75 0-2.55-6-6.1-6.5-3.8-12.65-3.55z" id="dd"/><path fill="url(#ag)" d="M-567.4 327.25q-.4-5.55-1.2-8.5-1.45-5.55-4.85-7-4.2-1.85-10 3.6-7.45 6.95-12.65 8.35-3.3 1.1-4.35 3.75-1.1 2.65.65 5.2 5 4.15 6.95 10.5 2 7.05 7.3 7.6 5.9.65 12.25-7.9 1.8-3.15 2.75-4.6 1.7-2.6 4.6-3.7l1.45-3q-2.3-.2-2.9-4.3z" id="de"/><path fill="url(#ah)" d="M-567.9 334.15l-.4-2.3q-.35 0-5.1-.35-3.2-.2-5.35.1-6.3.85-11.1 6.8 5.2-5.05 11.05-5.75 4.4-.5 10.9 1.5z" id="df"/><path fill="url(#ai)" d="M-567.55 332l.5-3.05q-14.35-10.6-29.65-1.05 8.65-4 16.25-2.4 5.7 1.25 12.9 6.5z" id="dg"/><path fill="url(#aj)" d="M-570.65 308.15q-1.85 5.3.75 13 2.15 6.4 6.6 12.7.65-1.05 7.7-3.7 6.95-2.6 9-6.6 2.95-5.6 1.45-10.35-.8-2.6-5.05-8.45-.55-.75-.9-1.85-.3-1.2-.5-1.8-.75-2.55-2.25-3.15-1.4-.6-3.15.6-.65.6-1.75 1.05-4.85 2.1-6.8 3.25-4 2.45-5.1 5.3z" id="dh"/><path fill="url(#ak)" d="M-608.85 368.05q-3.2 5.5-2.35 7.85.25.7 2.8 2.4 6.75 2.4 10.75 7.6 4.7 5.9 10.35 4.65 6.3-1.4 9.7-11.55.65-3.55 1.05-5.3.8-3 3.4-5l.35-3.25q-2.4.6-4.45-3.1-4.15-7.35-4.3-7.6-5.25-7.05-14.4-1.05-7.5 4.95-12.9 14.35z" id="di"/><path fill="#FBCFE5" d="M-579.45 366.8q-.7-1-1.85-.05-.5.4-1.25 2.15-.95 2.25-1.7 3.35-2.3 3.45-5.85 6.1-2.6 2-2.75 3.4-.2 1.95 2.45 3.5 2.25 1.25 3.95 1.25 3.9 0 6.15-6.5 1.6-4.65 1.6-8.7 0-3.4-.75-4.5z" id="dj"/><path fill="url(#al)" d="M-574.15 371.2q1.55-.95 3.1-3.45 2.75-4.2 4.05-8.85 1.55-5.6-.05-9.05-1.9-4.3-1-8.65.85-4.4 4.4-8.3.9-1-.85.05-.85.5-1.95 1.2-5.65 3.65-7.65 12.4-1 4.55-1.55 10.05-1.15 2.9-1.7 6.5-.65 4.25.15 6.6.95 2.8 3.05 1.5z" id="dk"/><path fill="url(#am)" d="M-549.35 354.1q-5.15 5.9-1.75 9.5 3.6 3.9 5.75 3.9 1.85 0 4.25-2.8 1-1.2 3.25-4.65 1.65-2.7 1.9-3.7.4-1.7-.75-3.9-1.8-3.75-4.25-6.3-1.7 1.85-8.4 7.95z" id="dl"/><path fill="#FBCFE5" d="M-553.25 340.75q-6.45-3.8-11.7-.7-1.45.8-2 2.05-.45.95-.45 2.75 0 1.95 1.1 4.55.9 2.2 2.25 4.05 2.55 3.4 4.7 3.9 1.6.35 6.5-.8.6-.15 2.05-1 1.3-.8 1.9-.8l6.5-6.8q-3.7-1.8-10.85-7.2z" id="dm"/><path fill="#F9B8D9" d="M-521.75 346.1q2.95-2 3.95-2.75 3-2.25-.1-3.45-2.1-.8-5.05-.8-3.75 0-6.6.8-2.85.8-6.1 2.8-4.3 2.65-7.1 5.5 4.9 5.6 7.4 5.85 3 .3 9.6-5.1 1.35-1.1 4-2.85z" id="dn"/><path fill="url(#an)" d="M-541.5 345q-.65-.6-1.25-.4-.6.15-.8.95-.15.8.2 1.85.35 1 1.05 1.6.65.55 1.25.4.6-.15.75-1 .15-.8-.15-1.8-.4-1-1.05-1.6z" id="do"/><path fill="#F3DB36" d="M-541.45 345.95q-.45-.85-.95-.8-.45.25-.2 1.15.35.9.9.8.5-.25.25-1.15z" id="dp"/><path fill="url(#ao)" d="M-543.2 344.6q-.65-.2-1.25.45-.65.65-.9 1.7-.25 1-.05 1.85.25.8.85.95.6.1 1.25-.5.65-.65.9-1.65.25-1.05.05-1.9-.25-.8-.85-.9z" id="dq"/><path fill="#FEFEFE" d="M-543.65 345.1q-.55-.15-.85.85-.25 1.05.3 1.15.55.1.85-.85.25-1.05-.3-1.15z" id="dr"/><path fill="url(#ap)" d="M-596.9 294.35q-1.55-.05-3.1 1.75-1.5 1.95-2.65 2.55-5.8 3.35-7.45 5.1-3.05 3.35-2.8 9.15.15 4.15 4.95 9 4.9 5 5 6.1 6.25-3.55 10.55-8.05 5.15-5.45 5.6-10.6.15-2.75-2.25-6.35-1.1-1.6-4.4-5.35-.2-.2-1.1-1.55-.95-1.7-2.35-1.75z" id="ds"/><path fill="url(#aq)" d="M-631.3 330.1q7.8 6.3 16.45 4.25 6.2-1.45 15.15-8.35-4.65-5.05-13.4-6.2-10-1.25-16.7 4.75-.65.55-2.6 1.25-1.75.65-1.8 1.6-.05.95 1.45 1.75 1.2.75 1.45.95z" id="dt"/><path fill="url(#ar)" d="M-544.35 247.3q-.95-1.65-2.25-1.55-1.25.05-2.45 1.7-.3.55-1.2 1.45-8.55 8.6-5.65 16.9 2.15 6 11.7 13.9 6.8-5.15 8.25-14 1.6-10.1-6.65-15.95-.6-.4-1.05-1.15-.25-.4-.7-1.3z" id="du"/><path fill="url(#as)" d="M-564.15 273.65q5.5 3.15 16.7 5.5.25-5.25-5.25-11.25-6.3-6.85-15.25-8.2-.5-.05-2.75-1-1.75-.85-2.45-.4-.65.4-.15 1.75.2.5.3 1.3 1.2 7.9 8.85 12.3z" id="dv"/><path fill="url(#at)" d="M-534.25 276.85q-7.9-2.35-8.75-3.35-4.35 5.55-6.15 11.05-2.2 6.75.35 11.3 1.4 2.5 6 4.65 2.3 1.05 7.75 2.9.85.3 2 .95 2 1.05 3.5.55 1.55-.55 2.15-2.75.4-1.5.4-1.6.3-.9.85-1.6 4.1-5.1 4.75-7.25 1.25-4.1-2.4-9.05-2.65-3.45-10.45-5.8z" id="dw"/><path fill="url(#au)" d="M-546.55 282.95q1.15-1.35 1.55-2-3.1-3.85-4.25-5-2.7-2.6-6.1-3.8-5.4-2-10.8.95-5.1 2.75-9.3 9.4-2.35 3.9-4.05 6.4-1.85 3.05-.9 4.8.75 1.4 3.75 2.35 2.55.85 6 .9 3.65 0 7.3-.95 6.85-1.7 11.1-5.3 2.65-2.25 5.45-6.75-.55 0 .25-1z" id="dx"/><path fill="#F16CB2" d="M-401.1 422.05q2.3-.9 7.4-4.75.9-.7 3.35-1.5 2.35-.9 2.7-2.1.3-1.1-1.15-2.15-.9-.6-1.4-1.15-6.75-7.35-16.05-7.85-10.75-.65-18.45 9.2 1.15.3 5.05 5.05 3.85 4.65 8.15 5.6 6 1.35 10.4-.35z" id="dy"/><path fill="url(#av)" d="M-406.45 371.15q-.65.45-1.8.95-1.9.8-6.9 2.6-4.55 2.15-7.45 5.75-3.75 4.75-3.7 12.05.05 6.85 3.25 11.85 5.75.7 10.8-1.95 4.8-2.55 7.35-7.3 4.25-7.85 3.35-17.2-.35-3.9-1.65-5.85-1.4-2-3.25-.9z" id="dz"/><path fill="url(#aw)" d="M-408.35 377.35q-1 8.9-5.15 15.4-3.1 4.85-9.4 10.1l3.35 1.15q6.05-7.75 7.5-10.5 3.6-6.8 3.7-16.15z" id="dA"/><path fill="url(#ax)" d="M-425.55 407.3q-.15 1-4.3 4.75-4.15 3.7-4.5 7.35-.5 5.15 1.8 8.55 1.2 1.75 5.7 5.5.6.45 1.15 1.3.35.45.9 1.35 1.15 1.8 2.35 1.95 1.1.1 2-1.25.7-.95.95-1.2 6.3-6.45 5.6-14.15-.8-8.9-11.65-14.15z" id="dB"/><path fill="url(#ay)" d="M-483.6 475.9q-.85-.1-2.15.4-1.3.5-1.7.45l-.25-1.35q-7.95 4.35-9.95 11.4-2.2 7.5 3.05 16.05.25.35 3.1 4.15 2.7 3.7 2.9 4.1 1.85 4.35 6.05.65 3.45-3.05 7.6-10.65 4.25-7.65.75-11.15-2.3-1.8-3.45-2.8-2.05-1.8-2.6-3.95-.55-3.45-.9-4.8-.6-2.2-2.45-2.5z" id="dC"/><path fill="url(#az)" d="M-481.35 476.25q8.2 1.1 12.85-2.4 3.3-2.45 6.3-8.95.5-.95 1.4-1.8 1.05-.95 1.55-1.4 2.2-1.75 1.8-3.7-.4-1.85-2.85-3.35-.8-.4-2.35-1.55-4-3.35-8-5.45-4.95-2.6-8.95-2.7-8.5-.05-14.5 6.35-6.15 6.6-5.6 15.05.2 2.85 2.5 4.35 1.05.75 5.15 2.2 3.95 1.55 5.25 2 3.1 1 5.45 1.35z" id="dD"/><path fill="url(#aA)" d="M-431 346.3q-2.25-7-8.6-10.35-9.05-4.75-25.25-1.25 1 5.95 6.75 9.45 4.75 2.9 11.25 3.45 3.5.25 6.6.65 2.7.4 5.15 3.3 3 3.55 4.45 2.1 1.55-1.5-.35-7.35z" id="dE"/><path fill="url(#aB)" d="M-397.5 372.65q6.7 4.4 14.45 2.4.9-.15 1.3-.25 1.45-.1 1.6-.75.2-.7-1.2-1.8-1.45-1.15-1.85-1.8-4.3-6.65-12.85-9.05-7.5-2.15-12.3.05 6 8.05 10.85 11.2z" id="dF"/><path fill="url(#aC)" d="M-611.45 408.8q-4.25-2-11.05.45-7.75 2.8-12 9.7-.25.5-.8 1.05-.3.3-.9.85-1.25 1.2-1.15 1.9.1.6 1.35.65.8.1 1.2.25 9.75 2.05 16.35-2.7 6.1-4.35 7-12.15z" id="dG"/><path fill="url(#aD)" d="M-615.3 394.15q-2.6-4.25-7.9-7.4-5.3-3.1-10.2-3.3-4.95-.2-6.65 2.65-1.65 2.85.9 7.05 2.55 4.25 7.9 7.4 5.3 3.1 10.25 3.35 4.9.2 6.6-2.65 1.7-2.85-.9-7.1z" id="dH"/><path fill="url(#aE)" d="M-529.95 385.25q-.7-.4-1.8.25-1.05.7-1.85 2.05-.8 1.4-.85 2.7 0 1.3.7 1.7.75.45 1.85-.25 1.05-.65 1.9-2.05.75-1.4.8-2.65 0-1.3-.75-1.75z" id="dI"/><path fill="#F3DB36" d="M-530.65 386.05q-.7-.35-1.45.95-.65 1.35 0 1.65.25.15.7-.1.4-.25.75-.75.65-1.4 0-1.75z" id="dJ"/><path fill="url(#aF)" d="M-527.8 386.55q-.65-1.15-1.5-1.15t-1.45 1.15q-.55 1.15-.55 2.75.05 1.65.65 2.75.65 1.15 1.5 1.05.85 0 1.45-1.1.55-1.15.55-2.8-.05-1.55-.65-2.65z" id="dK"/><path fill="#FEFEFE" d="M-528.3 386.8q-.25-.45-.65-.45-.3 0-.55.45-.25.5-.25 1.1.2 1.55.9 1.55.35 0 .6-.5.25-.45.2-1.1 0-.65-.25-1.05z" id="dL"/><path fill="url(#aG)" d="M-466.2 355.25q-.8-.35-1.25 0-.45.35-.25 1.2.15.85.85 1.65.65.8 1.5 1.15.8.35 1.2-.05.45-.35.25-1.15-.15-.85-.8-1.65-.7-.85-1.5-1.15z" id="dM"/><path fill="#F3DB36" d="M-466.4 355.75q-.3-.15-.45 0-.2.1-.1.45.05.3.3.6.25.35.6.45.3.15.45 0 .45-.35-.2-1.1-.25-.3-.6-.4z" id="dN"/><path fill="url(#aH)" d="M-467.8 355.45q-.6.1-.9.9-.3.8-.1 1.85.2 1.1.7 1.75.55.7 1.1.6.55-.1.8-.9.3-.85.1-1.9-.15-1-.65-1.7-.55-.7-1.05-.6z" id="dO"/><path fill="#FEFEFE" d="M-467.95 356.1q-.55.1-.45 1.1.3 1.05.75.9.2-.05.35-.35.1-.3 0-.7-.15-1.05-.65-.95z" id="dP"/><path fill="#F3DB36" d="M-500.85 312.65q-.2-1.2-.95-1.55-.75-.35-1.7.35-.9.75-1.4 2.1-.5 1.35-.3 2.55.25 1.2 1.05 1.55.75.35 1.65-.4.85-.7 1.35-2.05.5-1.4.3-2.55z" id="dQ"/><path fill="#F2EC78" d="M-501.65 313.7q.35-1.35-.3-1.65-.7-.25-1.15 1-.2.5-.15.95.1.45.4.65.7.15 1.2-.95z" id="dR"/><path fill="#F4F5A6" d="M-502.3 310.65q-.5-.65-1.7-.5-1.2.15-2.4.95-1.2.85-1.65 1.95-.4 1.05.15 1.7.5.65 1.7.55 1.2-.15 2.4-.95 1.15-.85 1.6-1.9.4-1.1-.1-1.8z" id="dS"/><path fill="#FEFEFE" d="M-503.25 310.9q-.2-.25-.65-.2-.5.05-1 .4-.4.35-.6.75-.15.45.05.7.4.55 1.65-.2 1.05-.85.55-1.45z" id="dT"/><path fill="url(#aI)" d="M-567.4 327q-.8.7-.45 2.15.35 1.5 1.6 2.75 1.35 1.35 2.85 1.75 1.5.45 2.35-.3.8-.7.45-2.15-.35-1.4-1.65-2.75-1.3-1.3-2.8-1.7-1.5-.45-2.35.25z" id="dU"/><path fill="#F3DB36" d="M-565.4 327.6q-.55-.15-.9.15-.35.25-.2.8.15.55.65 1.05.5.55 1.1.7.55.15.9-.1.35-.3.2-.85-.15-.55-.65-1.05-.55-.55-1.1-.7z" id="dV"/><path fill="url(#aJ)" d="M-568.1 327.35q-1 .3-1.55 1.75-.5 1.45-.2 3.25.35 1.85 1.35 2.95.95 1.1 2.05.85 1-.25 1.55-1.7.5-1.5.2-3.25-.35-1.85-1.3-2.95-1-1.15-2.1-.9z" id="dW"/><path fill="#FEFEFE" d="M-568.4 328.6q-.4.05-.6.65-.2.6-.05 1.3.1.7.5 1.15.4.45.8.35.95-.25.7-2-.05-.7-.5-1.15-.4-.4-.85-.3z" id="dX"/><path fill="url(#aK)" d="M-496.6 326.7q2.6.55 5.65 2.1 4.35 2.15 5.35 2.55 7.25 2.85 19.5 1.15 1.4-1.2-2.4-3.6-3.7-2.35-9.4-4.1-6.35-1.9-11.15-1.7-5.7.25-7.55 3.6z" id="dY"/><path fill="#F3EF8F" d="M-459.65 326.8q-.7-1.95-2.05-2.1-1.35-.2-2.55 1.45-1.2 1.65-1.6 4.2-.35 2.5.4 4.4.7 1.95 2.05 2.15 1.35.15 2.55-1.5 1.15-1.65 1.55-4.15.4-2.5-.35-4.45z" id="dZ"/><path fill="#FEFEFE" d="M-460.8 327.25q-.25-.75-.8-.8-.55-.1-1 .55-.45.6-.6 1.6-.15 1 .1 1.7.3.75.85.8.5.1.95-.55.45-.6.6-1.6.2-.95-.1-1.7z" id="ea"/><path fill="url(#aL)" d="M-462.65 324.3q-1-.9-2.9-.1t-3.5 2.8q-1.6 1.95-2 3.95-.35 2.05.65 2.9 1.1.85 2.95.05 1.9-.8 3.55-2.8 1.55-1.95 1.95-3.9.4-2.05-.7-2.9z" id="eb"/><path fill="#FEFEFE" d="M-464.05 325.05q-.4-.3-1.1 0-.8.3-1.45 1.1-.65.8-.8 1.6-.15.8.25 1.15.45.3 1.15 0 .8-.3 1.45-1.1.65-.8.8-1.6.1-.8-.3-1.15z" id="ec"/><path fill="url(#aM)" d="M-420.3 402.15q-1.3-1.3-2.45-1-1.1.4-1.45 2.15-.35 1.75.3 3.9.65 2.2 1.9 3.45 1.3 1.3 2.45.9 1.15-.35 1.5-2.1.35-1.8-.3-3.9-.65-2.1-1.95-3.4z" id="ed"/><path fill="#F3DB36" d="M-421.05 402.9q-.45-.5-.95-.35-.45.1-.6.8-.1.65.15 1.5t.75 1.35q.5.45.9.35.5-.15.65-.8.1-.7-.15-1.55-.25-.85-.75-1.3z" id="ee"/><path fill="url(#aN)" d="M-423.6 401.25q-1.1-.35-2.35 1-1.2 1.4-1.75 3.55t-.1 3.9q.4 1.8 1.6 2.05 1.15.25 2.35-1.05 1.25-1.35 1.75-3.55.55-2.2.15-3.9-.45-1.75-1.65-2z" id="ef"/><path fill="#FEFEFE" d="M-424.45 402.4q-.45-.1-.9.4-.45.55-.7 1.4-.25.85-.05 1.55.15.75.65.8.5.1.95-.4.45-.55.7-1.4.2-.9 0-1.55-.15-.7-.65-.8z" id="eg"/><path fill="#FEE9F3" d="M-539.6 315.1q-.1-2.45-2.85-1.7-2.45.65-5.65 3.55-2.65 2.4-4.45 5-.8 1.25-5.45 6.8-4.6 5.9-6.3 10.15 1.15-.9 2.95-2.15 3.65-2.45 8-3.85 3.75-1.2 7.5-5.3 3.45-3.75 5.2-8 1.15-2.8 1.05-4.5z" id="eh"/><path fill="url(#aO)" d="M-619.95 356.75l-.3-1.5q-7.4.55-16.05 2.4-8.8 1.85-16.7 4.65 20.05-5.6 33.05-5.55z" id="ei"/><path fill="url(#aP)" d="M-622.7 356.6l-1.4-.85q-5.55 3-9.15 6.6-4.8 4.85-5.4 10.15 1.3-4.9 6-9.3 4.15-3.9 9.95-6.6z" id="ej"/><path fill="url(#aQ)" d="M-622.9 356.45l.7-.9q-6-.45-10.5-2.7-4.9-2.4-6.85-6.4 1.2 4.5 6.6 7.2 4.05 2 10.05 2.8z" id="ek"/><path fill="url(#aR)" d="M-569.4 393.1q-1.65-.7-2.6.1-.9.75-.55 2.5.4 1.75 1.8 3.45 1.5 1.75 3.1 2.45 1.65.65 2.55-.15.95-.75.6-2.5t-1.8-3.45q-1.45-1.75-3.1-2.4z" id="el"/><path fill="#F3DB36" d="M-569.8 394.05q-.65-.25-.95.05-.35.3-.25 1 .1.65.65 1.3.6.7 1.25.95t1 0q.4-.35.25-1-.15-.7-.75-1.35-.55-.65-1.2-.95z" id="em"/><path fill="url(#aS)" d="M-572.8 393.55q-1.15.15-1.75 1.85-.6 1.7-.25 3.9t1.4 3.65q1.1 1.5 2.25 1.25 1.2-.15 1.8-1.85.65-1.7.25-3.9-.35-2.25-1.4-3.65-1.1-1.45-2.3-1.25z" id="en"/><path fill="#FEFEFE" d="M-573.05 394.9q-.5.1-.75.75-.25.7-.15 1.55.2.9.65 1.45.45.6.9.5.45-.05.7-.75.25-.7.05-1.55-.1-.85-.55-1.45-.45-.6-.85-.5z" id="eo"/><path fill="url(#aT)" d="M-538.6 270.95q-1.3-1.15-2.45-.8-1.15.25-1.5 1.85-.35 1.6.35 3.55.7 1.9 2 3.05t2.4.8q1.15-.3 1.5-1.9.35-1.6-.35-3.5-.65-1.9-1.95-3.05z" id="ep"/><path fill="#F3DB36" d="M-539.35 271.6q-.55-.4-.95-.3-.45.15-.6.8-.1.6.15 1.35.25.75.75 1.2.5.4 1 .3.4-.15.55-.75.1-.65-.15-1.4-.25-.75-.75-1.2z" id="eq"/><path fill="url(#aU)" d="M-541.9 270.15q-1.2-.3-2.4.95-1.2 1.2-1.75 3.15t-.1 3.55q.5 1.6 1.65 1.85 1.2.25 2.4-.95 1.15-1.25 1.7-3.25.55-1.9.1-3.5-.45-1.55-1.6-1.8z" id="er"/><path fill="#FEFEFE" d="M-542.75 271.15q-.5-.05-.95.4-.5.5-.7 1.25-.2.8-.05 1.45.2.6.7.7.45.1.9-.35.5-.5.65-1.3.25-.75.1-1.4-.15-.65-.65-.75z" id="es"/><path fill="url(#aV)" d="M-525.55 415.55q1.4 0 3.3-1.05 2.25-1.3 2.1-2.95-.15-1.2-2.35-2.9-3.05-2.25-5-5.15-.65-.95-1.4-2.8-.65-1.5-1.05-1.85-.95-.8-1.55.05-.7.95-.7 3.8 0 3.45 1.4 7.35 1.9 5.5 5.25 5.5z" id="et"/><path fill="url(#aW)" d="M-452.05 294.65q8.15-7.75 5.65-24.95-.1-.55.05-1.85.25-2.05-.65-2.45-.95-.45-2.9 1.15-.45.35-1.45 1.25-.95.75-1.55.8-16.1 1.85-20.9 13.55-1.95 4.7-1.5 10.05.4 5 2.65 8.9 14-.25 20.6-6.45z" id="eu"/><path fill="url(#aX)" d="M-559.3 290.95q8.5-2.2 11.85-11.6-2.55 4.3-6 6.1-2.15 1.15-6.4 1.85-4.45.7-6.5 1.65-3.6 1.65-6.35 5.6 2.3-1.5 6.35-2.3 4.7-.7 7.05-1.3z" id="ev"/><path fill="#F16CB2" d="M-614.4 465.65q3.2-3.5 4.65-5.5 5.25-7.35 1.75-19.5.8 6.1-.7 10.1-.95 2.5-3.8 5.7-3.05 3.45-4.05 5.65-1.8 3.9-1.4 9.8.85-3 3.55-6.25z" id="ew"/><path fill="#F587C0" d="M-425.05 342.8q7.8 1.95 13.65-3.25 4.7-4.15 8.7-13.6-5.25 9.1-10.8 12.9-4.45 3.05-11.55 3.95z" id="ex"/><path fill="#FBCFE5" d="M-452.05 273.5q-9.2 4.35-13.2 9.2-4.95 6.1-2.65 13.8.55-7.05 3.45-11.7 3.55-5.7 12.4-11.3z" id="ey"/><path fill="url(#aY)" d="M-507.6 345.75q-1.3-.3-1.9.35-.55.65-.05 1.85.45 1.25 1.65 2.3 1.25 1.1 2.55 1.4 1.3.3 1.85-.35.55-.65.1-1.9-.45-1.2-1.7-2.3-1.2-1.1-2.5-1.35z" id="ez"/><path fill="#F3DB36" d="M-506.85 347.05q-.5-.45-.95-.55-.45-.1-.7.15-.25.25-.05.7.15.5.65.9.45.45 1 .55.5.1.7-.1.25-.25.05-.75t-.7-.9z" id="eA"/><path fill="url(#aZ)" d="M-511.05 348q-.25 1.25.25 2.85.5 1.55 1.45 2.5.95.9 1.8.65.85-.3 1.05-1.6.25-1.25-.25-2.85-.55-1.6-1.5-2.45-.95-.9-1.75-.65-.85.25-1.05 1.55z" id="eB"/><path fill="#FEFEFE" d="M-510.05 347.45q-.75.25-.4 1.8.25.6.6 1 .4.35.7.25.35-.1.45-.65.1-.5-.1-1.1-.2-.65-.55-1-.4-.4-.7-.3z" id="eC"/><path fill="url(#ba)" d="M-437.65 334.85q5.2.65 8.3-2.3 3-2.85 1.95-8.05-.9-4.8-4.5-8.35-3.35-3.3-7.4-3.5-4.05-.25-7.2 2.75-3.15 3.05-3 7.55.1 4.55 3.45 7.9 3.4 3.4 8.4 4z" id="eD"/><path fill="url(#bb)" d="M-439.45 329.8q3.85.2 6.5-2.35 2.6-2.55 2.5-6.3-.1-3.8-2.85-6.6-2.8-2.8-6.65-3-3.9-.15-6.55 2.35-2.6 2.55-2.5 6.35.1 3.8 2.85 6.55 2.8 2.8 6.7 3z" id="eE"/><path fill="url(#bc)" d="M-440.3 328q3.8.5 6.2-1.85 2.45-2.3 2.35-5.8-.1-3.5-2.65-6.1-2.55-2.55-5.8-2.5-3.15.05-5.65 2.45-2.45 2.35-2.5 5.5 0 3.15 2.55 5.75 2.1 2.1 5.5 2.55z" id="eF"/><path fill="url(#bd)" d="M-434.4 314.25q-2.6-2.6-6.15-2.75-3.6-.15-6 2.2-2.45 2.35-2.4 5.85.1 3.55 2.65 6.15 2.35 2.35 6 2.6 4.05.3 6.7-2.6-2.65 1.8-5.75 1.3-2.2-.35-3.85-2.1-1.5-1.6-2.2-4-.95-3.4 1.25-5.8 2.05-2.2 5.3-2.25 2.485 0 4.6 1.65-.12-.128-.15-.25z" id="eG"/><path fill="#FEE9F3" d="M-443.25 313.85q-.45.75-.15 1.5.35.75 1.2 1.15.85.4 1.8.15.95-.25 1.4-1 .4-.7.05-1.5-.3-.8-1.2-1.2-.85-.35-1.75-.1-.95.3-1.35 1z" id="eH"/><path fill="url(#be)" d="M-591.65 370.4q.05-2.75-1.85-4.6-1.95-1.85-4.4-1.75-2.5.15-4.55 2.2-2.15 2.25-2.7 5.1-.65 3.15 1.2 4.9 1.85 1.8 5 1.4 3.1-.4 5.15-2.45 2.05-2.05 2.15-4.8z" id="eI"/><path fill="url(#bf)" d="M-592 368.95q.05-2.25-1.5-3.85-1.55-1.5-3.9-1.35-2.3.1-3.95 1.8-1.65 1.65-1.75 3.9-.05 2.25 1.5 3.8 1.6 1.5 3.9 1.35 2.3-.1 3.95-1.8 1.7-1.6 1.75-3.85z" id="eJ"/><path fill="url(#bg)" d="M-592.4 368.55q0-1.9-1.5-3.3-1.45-1.4-3.35-1.4-1.95 0-3.45 1.45-1.55 1.6-1.6 3.65-.1 2.1 1.35 3.5 1.45 1.4 3.75 1.05 2-.25 3.25-1.5 1.55-1.55 1.55-3.45z" id="eK"/><path fill="url(#bh)" d="M-592.05 368.5q.05-2.15-1.4-3.55t-3.6-1.25q-2.1.1-3.65 1.6l-.25.3q1.35-1.15 2.9-1.15 1.95.1 3.15 1.4 1.3 1.45.75 3.5-.35 1.4-1.25 2.35-1 1.05-2.35 1.25-1.9.3-3.4-.8 1.6 1.8 4 1.6 2.15-.15 3.55-1.6 1.5-1.5 1.55-3.65z" id="eL"/><path fill="#FEE9F3" d="M-595.4 366q.2-.45-.05-.9-.25-.4-.8-.55-.55-.15-1.1.05-.5.2-.65.7-.2.45 0 .9.25.4.85.55.55.15 1.05-.05.55-.2.7-.7z" id="eM"/></defs><use xlink:href="#bi"/><use xlink:href="#bj" transform="matrix(.61345 0 0 .61345 459.99 -90.755)"/><use xlink:href="#bk" transform="matrix(.61345 0 0 .61345 459.99 -90.755)"/><use xlink:href="#bl" transform="matrix(.61345 0 0 .61345 459.99 -90.755)"/><use xlink:href="#bm" transform="matrix(.61345 0 0 .61345 459.99 -90.755)"/><use xlink:href="#bn" transform="matrix(.61345 0 0 .61345 459.99 -90.755)"/><use xlink:href="#bo" transform="matrix(.61345 0 0 .61345 459.99 -90.755)"/><use xlink:href="#bp" transform="matrix(.61345 0 0 .61345 459.99 -90.755)"/><use xlink:href="#bq" transform="matrix(.61345 0 0 .61345 459.99 -90.755)"/><use xlink:href="#br" transform="matrix(.61345 0 0 .61345 459.99 -90.755)"/><use xlink:href="#bs" transform="matrix(.61345 0 0 .61345 459.99 -90.755)"/><use xlink:href="#bt" transform="matrix(.61345 0 0 .61345 459.99 -90.755)"/><use xlink:href="#bu" transform="matrix(.61345 0 0 .61345 459.99 -90.755)"/><use xlink:href="#bv" transform="matrix(.61345 0 0 .61345 459.99 -90.755)"/><use xlink:href="#bw" transform="matrix(.61345 0 0 .61345 459.99 -90.755)"/><use xlink:href="#bx" transform="matrix(.61345 0 0 .61345 459.99 -90.755)"/><use xlink:href="#by" transform="matrix(.61345 0 0 .61345 459.99 -90.755)"/><use xlink:href="#bz" transform="matrix(.61345 0 0 .61345 459.99 -90.755)"/><use xlink:href="#bA" transform="matrix(.61345 0 0 .61345 459.99 -90.755)"/><use xlink:href="#bB" transform="matrix(.61345 0 0 .61345 459.99 -90.755)"/><use xlink:href="#bC" transform="matrix(.61345 0 0 .61345 459.99 -90.755)"/><use xlink:href="#bD" transform="matrix(.61345 0 0 .61345 459.99 -90.755)"/><use xlink:href="#bE" transform="matrix(.61345 0 0 .61345 459.99 -90.755)"/><use xlink:href="#bF" transform="matrix(.61345 0 0 .61345 459.99 -90.755)"/><use xlink:href="#bG" transform="matrix(.61345 0 0 .61345 459.99 -90.755)"/><use xlink:href="#bH" transform="matrix(.61345 0 0 .61345 459.99 -90.755)"/><use xlink:href="#bI" transform="matrix(.61345 0 0 .61345 459.99 -90.755)"/><use xlink:href="#bJ" transform="matrix(.61345 0 0 .61345 459.99 -90.755)"/><use xlink:href="#bK" transform="matrix(.61345 0 0 .61345 459.99 -90.755)"/><use xlink:href="#bL" transform="matrix(.61345 0 0 .61345 459.99 -90.755)"/><use xlink:href="#bM" transform="matrix(.61345 0 0 .61345 459.99 -90.755)"/><use xlink:href="#bN" transform="matrix(.61345 0 0 .61345 459.99 -90.755)"/><use xlink:href="#bO" transform="matrix(.61345 0 0 .61345 459.99 -90.755)"/><use xlink:href="#bP" transform="matrix(.61345 0 0 .61345 459.99 -90.755)"/><use xlink:href="#bQ" transform="matrix(.61345 0 0 .61345 459.99 -90.755)"/><use xlink:href="#bR" transform="matrix(.61345 0 0 .61345 459.99 -90.755)"/><use xlink:href="#bS" transform="matrix(.61345 0 0 .61345 459.99 -90.755)"/><use xlink:href="#bT" transform="matrix(.61345 0 0 .61345 459.99 -90.755)"/><use xlink:href="#bU" transform="matrix(.61345 0 0 .61345 459.99 -90.755)"/><use xlink:href="#bV" transform="matrix(.61345 0 0 .61345 459.99 -90.755)"/><use xlink:href="#bW" transform="matrix(.61345 0 0 .61345 459.99 -90.755)"/><use xlink:href="#bX" transform="matrix(.61345 0 0 .61345 459.99 -90.755)"/><use xlink:href="#bY" transform="matrix(.61345 0 0 .61345 459.99 -90.755)"/><use xlink:href="#bZ" transform="matrix(.61345 0 0 .61345 459.99 -90.755)"/><use xlink:href="#ca" transform="matrix(.61345 0 0 .61345 459.99 -90.755)"/><use xlink:href="#cb" transform="matrix(.61345 0 0 .61345 459.99 -90.755)"/><use xlink:href="#cc" transform="matrix(.61345 0 0 .61345 459.99 -90.755)"/><use xlink:href="#cd" transform="matrix(.61345 0 0 .61345 459.99 -90.755)"/><use xlink:href="#ce" transform="matrix(.61345 0 0 .61345 459.99 -90.755)"/><use xlink:href="#cf" transform="matrix(.61345 0 0 .61345 459.99 -90.755)"/><use xlink:href="#cg" transform="matrix(.61345 0 0 .61345 459.99 -90.755)"/><use xlink:href="#ch" transform="matrix(.61345 0 0 .61345 459.99 -90.755)"/><use xlink:href="#ci" transform="matrix(.61345 0 0 .61345 459.99 -90.755)"/><use xlink:href="#cj" transform="matrix(.61345 0 0 .61345 459.99 -90.755)"/><use xlink:href="#ck" transform="matrix(.61345 0 0 .61345 459.99 -90.755)"/><use xlink:href="#cl" transform="matrix(.61345 0 0 .61345 459.99 -90.755)"/><use xlink:href="#cm" transform="matrix(.61345 0 0 .61345 459.99 -90.755)"/><use xlink:href="#cn" transform="matrix(.61345 0 0 .61345 459.99 -90.755)"/><use xlink:href="#co" transform="matrix(.61345 0 0 .61345 459.99 -90.755)"/><use xlink:href="#cp" transform="matrix(.61345 0 0 .61345 459.99 -90.755)"/><use xlink:href="#cq" transform="matrix(.61345 0 0 .61345 459.99 -90.755)"/><use xlink:href="#cr" transform="matrix(.61345 0 0 .61345 459.99 -90.755)"/><use xlink:href="#cs" transform="matrix(.61345 0 0 .61345 459.99 -90.755)"/><use xlink:href="#ct" transform="matrix(.61345 0 0 .61345 459.99 -90.755)"/><use xlink:href="#cu" transform="matrix(.61345 0 0 .61345 459.99 -90.755)"/><use xlink:href="#cv" transform="matrix(.61345 0 0 .61345 459.99 -90.755)"/><use xlink:href="#cw" transform="matrix(.61345 0 0 .61345 459.99 -90.755)"/><use xlink:href="#cx" transform="matrix(.61345 0 0 .61345 459.99 -90.755)"/><use xlink:href="#cy" transform="matrix(.61345 0 0 .61345 459.99 -90.755)"/><use xlink:href="#cz" transform="matrix(.61345 0 0 .61345 459.99 -90.755)"/><use xlink:href="#cA" transform="matrix(.61345 0 0 .61345 459.99 -90.755)"/><use xlink:href="#cB" transform="matrix(.61345 0 0 .61345 459.99 -90.755)"/><use xlink:href="#cC" transform="matrix(.61345 0 0 .61345 459.99 -90.755)"/><use xlink:href="#cD" transform="matrix(.61345 0 0 .61345 459.99 -90.755)"/><use xlink:href="#cE" transform="matrix(.61345 0 0 .61345 459.99 -90.755)"/><use xlink:href="#cF" transform="matrix(.61345 0 0 .61345 459.99 -90.755)"/><use xlink:href="#cG" transform="matrix(.61345 0 0 .61345 459.99 -90.755)"/><use xlink:href="#cH" transform="matrix(.61345 0 0 .61345 459.99 -90.755)"/><use xlink:href="#cI" transform="matrix(.61345 0 0 .61345 459.99 -90.755)"/><use xlink:href="#cJ" transform="matrix(.61345 0 0 .61345 459.99 -90.755)"/><use xlink:href="#cK" transform="matrix(.61345 0 0 .61345 459.99 -90.755)"/><use xlink:href="#cL" transform="matrix(.61345 0 0 .61345 459.99 -90.755)"/><use xlink:href="#cM" transform="matrix(.61345 0 0 .61345 459.99 -90.755)"/><use xlink:href="#cN" transform="matrix(.61345 0 0 .61345 459.99 -90.755)"/><use xlink:href="#cO" transform="matrix(.61345 0 0 .61345 459.99 -90.755)"/><use xlink:href="#cP" transform="matrix(.61345 0 0 .61345 459.99 -90.755)"/><use xlink:href="#cQ" transform="matrix(.61345 0 0 .61345 459.99 -90.755)"/><use xlink:href="#cR" transform="matrix(.61345 0 0 .61345 459.99 -90.755)"/><use xlink:href="#cS" transform="matrix(.61345 0 0 .61345 459.99 -90.755)"/><use xlink:href="#cT" transform="matrix(.61345 0 0 .61345 459.99 -90.755)"/><use xlink:href="#cU" transform="matrix(.61345 0 0 .61345 459.99 -90.755)"/><use xlink:href="#cV" transform="matrix(.61345 0 0 .61345 459.99 -90.755)"/><use xlink:href="#cW" transform="matrix(.61345 0 0 .61345 459.99 -90.755)"/><use xlink:href="#cX" transform="matrix(.61345 0 0 .61345 459.99 -90.755)"/><use xlink:href="#cY" transform="matrix(.61345 0 0 .61345 459.99 -90.755)"/><use xlink:href="#cZ" transform="matrix(.61345 0 0 .61345 459.99 -90.755)"/><use xlink:href="#da" transform="matrix(.61345 0 0 .61345 459.99 -90.755)"/><use xlink:href="#db" transform="matrix(.61345 0 0 .61345 459.99 -90.755)"/><use xlink:href="#dc" transform="matrix(.61345 0 0 .61345 459.99 -90.755)"/><use xlink:href="#dd" transform="matrix(.61345 0 0 .61345 459.99 -90.755)"/><use xlink:href="#de" transform="matrix(.61345 0 0 .61345 459.99 -90.755)"/><use xlink:href="#df" transform="matrix(.61345 0 0 .61345 459.99 -90.755)"/><use xlink:href="#dg" transform="matrix(.61345 0 0 .61345 459.99 -90.755)"/><use xlink:href="#dh" transform="matrix(.61345 0 0 .61345 459.99 -90.755)"/><use xlink:href="#di" transform="matrix(.61345 0 0 .61345 459.99 -90.755)"/><use xlink:href="#dj" transform="matrix(.61345 0 0 .61345 459.99 -90.755)"/><use xlink:href="#dk" transform="matrix(.61345 0 0 .61345 459.99 -90.755)"/><use xlink:href="#dl" transform="matrix(.61345 0 0 .61345 459.99 -90.755)"/><use xlink:href="#dm" transform="matrix(.61345 0 0 .61345 459.99 -90.755)"/><use xlink:href="#dn" transform="matrix(.61345 0 0 .61345 459.99 -90.755)"/><use xlink:href="#do" transform="matrix(.61345 0 0 .61345 459.99 -90.755)"/><use xlink:href="#dp" transform="matrix(.61345 0 0 .61345 459.99 -90.755)"/><use xlink:href="#dq" transform="matrix(.61345 0 0 .61345 459.99 -90.755)"/><use xlink:href="#dr" transform="matrix(.61345 0 0 .61345 459.99 -90.755)"/><use xlink:href="#ds" transform="matrix(.61345 0 0 .61345 459.99 -90.755)"/><use xlink:href="#dt" transform="matrix(.61345 0 0 .61345 459.99 -90.755)"/><use xlink:href="#du" transform="matrix(.61345 0 0 .61345 459.99 -90.755)"/><use xlink:href="#dv" transform="matrix(.61345 0 0 .61345 459.99 -90.755)"/><use xlink:href="#dw" transform="matrix(.61345 0 0 .61345 459.99 -90.755)"/><use xlink:href="#dx" transform="matrix(.61345 0 0 .61345 459.99 -90.755)"/><use xlink:href="#dy" transform="matrix(.61345 0 0 .61345 459.99 -90.755)"/><use xlink:href="#dz" transform="matrix(.61345 0 0 .61345 459.99 -90.755)"/><use xlink:href="#dA" transform="matrix(.61345 0 0 .61345 459.99 -90.755)"/><use xlink:href="#dB" transform="matrix(.61345 0 0 .61345 459.99 -90.755)"/><use xlink:href="#dC" transform="matrix(.61345 0 0 .61345 459.99 -90.755)"/><use xlink:href="#dD" transform="matrix(.61345 0 0 .61345 459.99 -90.755)"/><use xlink:href="#dE" transform="matrix(.61345 0 0 .61345 459.99 -90.755)"/><use xlink:href="#dF" transform="matrix(.61345 0 0 .61345 459.99 -90.755)"/><use xlink:href="#dG" transform="matrix(.61345 0 0 .61345 459.99 -90.755)"/><use xlink:href="#dH" transform="matrix(.61345 0 0 .61345 459.99 -90.755)"/><use xlink:href="#dI" transform="matrix(.61345 0 0 .61345 459.99 -90.755)"/><use xlink:href="#dJ" transform="matrix(.61345 0 0 .61345 459.99 -90.755)"/><use xlink:href="#dK" transform="matrix(.61345 0 0 .61345 459.99 -90.755)"/><use xlink:href="#dL" transform="matrix(.61345 0 0 .61345 459.99 -90.755)"/><use xlink:href="#dM" transform="matrix(.61345 0 0 .61345 459.99 -90.755)"/><use xlink:href="#dN" transform="matrix(.61345 0 0 .61345 459.99 -90.755)"/><use xlink:href="#dO" transform="matrix(.61345 0 0 .61345 459.99 -90.755)"/><use xlink:href="#dP" transform="matrix(.61345 0 0 .61345 459.99 -90.755)"/><use xlink:href="#dQ" transform="matrix(.61345 0 0 .61345 459.99 -90.755)"/><use xlink:href="#dR" transform="matrix(.61345 0 0 .61345 459.99 -90.755)"/><use xlink:href="#dS" transform="matrix(.61345 0 0 .61345 459.99 -90.755)"/><use xlink:href="#dT" transform="matrix(.61345 0 0 .61345 459.99 -90.755)"/><use xlink:href="#dU" transform="matrix(.61345 0 0 .61345 459.99 -90.755)"/><use xlink:href="#dV" transform="matrix(.61345 0 0 .61345 459.99 -90.755)"/><use xlink:href="#dW" transform="matrix(.61345 0 0 .61345 459.99 -90.755)"/><use xlink:href="#dX" transform="matrix(.61345 0 0 .61345 459.99 -90.755)"/><use xlink:href="#dY" transform="matrix(.61345 0 0 .61345 459.99 -90.755)"/><use xlink:href="#dZ" transform="matrix(.61345 0 0 .61345 459.99 -90.755)"/><use xlink:href="#ea" transform="matrix(.61345 0 0 .61345 459.99 -90.755)"/><use xlink:href="#eb" transform="matrix(.61345 0 0 .61345 459.99 -90.755)"/><use xlink:href="#ec" transform="matrix(.61345 0 0 .61345 459.99 -90.755)"/><use xlink:href="#ed" transform="matrix(.61345 0 0 .61345 459.99 -90.755)"/><use xlink:href="#ee" transform="matrix(.61345 0 0 .61345 459.99 -90.755)"/><use xlink:href="#ef" transform="matrix(.61345 0 0 .61345 459.99 -90.755)"/><use xlink:href="#eg" transform="matrix(.61345 0 0 .61345 459.99 -90.755)"/><use xlink:href="#eh" transform="matrix(.61345 0 0 .61345 459.99 -90.755)"/><use xlink:href="#ei" transform="matrix(.61345 0 0 .61345 459.99 -90.755)"/><use xlink:href="#ej" transform="matrix(.61345 0 0 .61345 459.99 -90.755)"/><use xlink:href="#ek" transform="matrix(.61345 0 0 .61345 459.99 -90.755)"/><use xlink:href="#el" transform="matrix(.61345 0 0 .61345 459.99 -90.755)"/><use xlink:href="#em" transform="matrix(.61345 0 0 .61345 459.99 -90.755)"/><use xlink:href="#en" transform="matrix(.61345 0 0 .61345 459.99 -90.755)"/><use xlink:href="#eo" transform="matrix(.61345 0 0 .61345 459.99 -90.755)"/><use xlink:href="#ep" transform="matrix(.61345 0 0 .61345 459.99 -90.755)"/><use xlink:href="#eq" transform="matrix(.61345 0 0 .61345 459.99 -90.755)"/><use xlink:href="#er" transform="matrix(.61345 0 0 .61345 459.99 -90.755)"/><use xlink:href="#es" transform="matrix(.61345 0 0 .61345 459.99 -90.755)"/><use xlink:href="#et" transform="matrix(.61345 0 0 .61345 459.99 -90.755)"/><use xlink:href="#eu" transform="matrix(.61345 0 0 .61345 459.99 -90.755)"/><use xlink:href="#ev" transform="matrix(.61345 0 0 .61345 459.99 -90.755)"/><use xlink:href="#ew" transform="matrix(.61345 0 0 .61345 459.99 -90.755)"/><use xlink:href="#ex" transform="matrix(.61345 0 0 .61345 459.99 -90.755)"/><use xlink:href="#ey" transform="matrix(.61345 0 0 .61345 459.99 -90.755)"/><use xlink:href="#ez" transform="matrix(.61345 0 0 .61345 459.99 -90.755)"/><use xlink:href="#eA" transform="matrix(.61345 0 0 .61345 459.99 -90.755)"/><use xlink:href="#eB" transform="matrix(.61345 0 0 .61345 459.99 -90.755)"/><use xlink:href="#eC" transform="matrix(.61345 0 0 .61345 459.99 -90.755)"/><use xlink:href="#eD" transform="matrix(.61345 0 0 .61345 459.99 -90.755)"/><use xlink:href="#eE" transform="matrix(.61345 0 0 .61345 459.99 -90.755)"/><use xlink:href="#eF" transform="matrix(.61345 0 0 .61345 459.99 -90.755)"/><use xlink:href="#eG" transform="matrix(.61345 0 0 .61345 459.99 -90.755)"/><use xlink:href="#eH" transform="matrix(.61345 0 0 .61345 459.99 -90.755)"/><use xlink:href="#eI" transform="matrix(.61345 0 0 .61345 459.99 -90.755)"/><use xlink:href="#eJ" transform="matrix(.61345 0 0 .61345 459.99 -90.755)"/><use xlink:href="#eK" transform="matrix(.61345 0 0 .61345 459.99 -90.755)"/><use xlink:href="#eL" transform="matrix(.61345 0 0 .61345 459.99 -90.755)"/><use xlink:href="#eM" transform="matrix(.61345 0 0 .61345 459.99 -90.755)"/></svg>