<svg xmlns="http://www.w3.org/2000/svg" xmlns:xlink="http://www.w3.org/1999/xlink" preserveAspectRatio="none" width="284" height="320"><defs><linearGradient id="a" gradientUnits="userSpaceOnUse" x1="328.475" y1="577.85" x2="279.325" y2="577.85" spreadMethod="pad"><stop offset="0%" stop-color="#F1B82D"/><stop offset="100%" stop-color="#FFE697"/></linearGradient><linearGradient id="b" gradientUnits="userSpaceOnUse" x1="358.475" y1="560.85" x2="237.725" y2="560.85" spreadMethod="pad"><stop offset="0%" stop-color="#E5A62F"/><stop offset="100%" stop-color="#FFD758"/></linearGradient><linearGradient id="c" gradientUnits="userSpaceOnUse" x1="347.45" y1="581.4" x2="254.25" y2="581.4" spreadMethod="pad"><stop offset="0%" stop-color="#E5A62F"/><stop offset="100%" stop-color="#FFD758"/></linearGradient><linearGradient id="d" gradientUnits="userSpaceOnUse" x1="347.45" y1="594.65" x2="254.25" y2="594.65" spreadMethod="pad"><stop offset="0%" stop-color="#E5A62F"/><stop offset="100%" stop-color="#FFD758"/></linearGradient><linearGradient id="e" gradientUnits="userSpaceOnUse" x1="347.45" y1="600.45" x2="254.25" y2="600.45" spreadMethod="pad"><stop offset="0%" stop-color="#E5A62F"/><stop offset="100%" stop-color="#FFD758"/></linearGradient><linearGradient id="f" gradientUnits="userSpaceOnUse" x1="347.45" y1="607.4" x2="254.25" y2="607.4" spreadMethod="pad"><stop offset="0%" stop-color="#E5A62F"/><stop offset="100%" stop-color="#FFD758"/></linearGradient><linearGradient id="g" gradientUnits="userSpaceOnUse" x1="348.475" y1="589.1" x2="254.125" y2="589.1" spreadMethod="pad"><stop offset="0%" stop-color="#E5A62F"/><stop offset="100%" stop-color="#FFD758"/></linearGradient><linearGradient id="h" gradientUnits="userSpaceOnUse" x1="347.45" y1="577.6" x2="254.25" y2="577.6" spreadMethod="pad"><stop offset="0%" stop-color="#E5A62F"/><stop offset="100%" stop-color="#FFD758"/></linearGradient><linearGradient id="i" gradientUnits="userSpaceOnUse" x1="347.45" y1="586.7" x2="254.25" y2="586.7" spreadMethod="pad"><stop offset="0%" stop-color="#E5A62F"/><stop offset="100%" stop-color="#FFD758"/></linearGradient><linearGradient id="j" gradientUnits="userSpaceOnUse" x1="347.45" y1="578.85" x2="254.25" y2="578.85" spreadMethod="pad"><stop offset="0%" stop-color="#E5A62F"/><stop offset="100%" stop-color="#FFD758"/></linearGradient><linearGradient id="k" gradientUnits="userSpaceOnUse" x1="347.45" y1="570.5" x2="254.25" y2="570.5" spreadMethod="pad"><stop offset="0%" stop-color="#E5A62F"/><stop offset="100%" stop-color="#FFD758"/></linearGradient><linearGradient id="l" gradientUnits="userSpaceOnUse" x1="348.488" y1="581.3" x2="253.412" y2="581.3" spreadMethod="pad"><stop offset="0%" stop-color="#E5A62F"/><stop offset="100%" stop-color="#FFD758"/></linearGradient><linearGradient id="m" gradientUnits="userSpaceOnUse" x1="347.45" y1="594.2" x2="254.25" y2="594.2" spreadMethod="pad"><stop offset="0%" stop-color="#E5A62F"/><stop offset="100%" stop-color="#FFD758"/></linearGradient><linearGradient id="n" gradientUnits="userSpaceOnUse" x1="347.45" y1="591.8" x2="254.25" y2="591.8" spreadMethod="pad"><stop offset="0%" stop-color="#E5A62F"/><stop offset="100%" stop-color="#FFD758"/></linearGradient><linearGradient id="o" gradientUnits="userSpaceOnUse" x1="347.45" y1="585.05" x2="254.25" y2="585.05" spreadMethod="pad"><stop offset="0%" stop-color="#E5A62F"/><stop offset="100%" stop-color="#FFD758"/></linearGradient><linearGradient id="p" gradientUnits="userSpaceOnUse" x1="347.45" y1="572" x2="254.25" y2="572" spreadMethod="pad"><stop offset="0%" stop-color="#E5A62F"/><stop offset="100%" stop-color="#FFD758"/></linearGradient><linearGradient id="q" gradientUnits="userSpaceOnUse" x1="347.45" y1="567.9" x2="254.25" y2="567.9" spreadMethod="pad"><stop offset="0%" stop-color="#E5A62F"/><stop offset="100%" stop-color="#FFD758"/></linearGradient><linearGradient id="r" gradientUnits="userSpaceOnUse" x1="347.45" y1="564.8" x2="254.25" y2="564.8" spreadMethod="pad"><stop offset="0%" stop-color="#E5A62F"/><stop offset="100%" stop-color="#FFD758"/></linearGradient><linearGradient id="s" gradientUnits="userSpaceOnUse" x1="347.45" y1="561.35" x2="254.25" y2="561.35" spreadMethod="pad"><stop offset="0%" stop-color="#E5A62F"/><stop offset="100%" stop-color="#FFD758"/></linearGradient><linearGradient id="t" gradientUnits="userSpaceOnUse" x1="348.488" y1="559.2" x2="254.613" y2="559.2" spreadMethod="pad"><stop offset="0%" stop-color="#E5A62F"/><stop offset="100%" stop-color="#FFD758"/></linearGradient><linearGradient id="u" gradientUnits="userSpaceOnUse" x1="347.488" y1="565.35" x2="254.213" y2="565.35" spreadMethod="pad"><stop offset="0%" stop-color="#E5A62F"/><stop offset="100%" stop-color="#FFD758"/></linearGradient><linearGradient id="v" gradientUnits="userSpaceOnUse" x1="348.462" y1="562.4" x2="254.337" y2="562.4" spreadMethod="pad"><stop offset="0%" stop-color="#E5A62F"/><stop offset="100%" stop-color="#FFD758"/></linearGradient><linearGradient id="w" gradientUnits="userSpaceOnUse" x1="348.5" y1="555.15" x2="253.6" y2="555.15" spreadMethod="pad"><stop offset="0%" stop-color="#E5A62F"/><stop offset="100%" stop-color="#FFD758"/></linearGradient><linearGradient id="x" gradientUnits="userSpaceOnUse" x1="347.45" y1="556.05" x2="254.25" y2="556.05" spreadMethod="pad"><stop offset="0%" stop-color="#E5A62F"/><stop offset="100%" stop-color="#FFD758"/></linearGradient><linearGradient id="y" gradientUnits="userSpaceOnUse" x1="347.45" y1="561.8" x2="254.25" y2="561.8" spreadMethod="pad"><stop offset="0%" stop-color="#E5A62F"/><stop offset="100%" stop-color="#FFD758"/></linearGradient><linearGradient id="z" gradientUnits="userSpaceOnUse" x1="347.45" y1="565.75" x2="254.25" y2="565.75" spreadMethod="pad"><stop offset="0%" stop-color="#E5A62F"/><stop offset="100%" stop-color="#FFD758"/></linearGradient><linearGradient id="A" gradientUnits="userSpaceOnUse" x1="347.45" y1="577.3" x2="254.25" y2="577.3" spreadMethod="pad"><stop offset="0%" stop-color="#E5A62F"/><stop offset="100%" stop-color="#FFD758"/></linearGradient><linearGradient id="B" gradientUnits="userSpaceOnUse" x1="347.45" y1="571.85" x2="254.25" y2="571.85" spreadMethod="pad"><stop offset="0%" stop-color="#E5A62F"/><stop offset="100%" stop-color="#FFD758"/></linearGradient><linearGradient id="C" gradientUnits="userSpaceOnUse" x1="347.45" y1="581.2" x2="254.25" y2="581.2" spreadMethod="pad"><stop offset="0%" stop-color="#E5A62F"/><stop offset="100%" stop-color="#FFD758"/></linearGradient><linearGradient id="D" gradientUnits="userSpaceOnUse" x1="347.45" y1="595.65" x2="254.25" y2="595.65" spreadMethod="pad"><stop offset="0%" stop-color="#E5A62F"/><stop offset="100%" stop-color="#FFD758"/></linearGradient><linearGradient id="E" gradientUnits="userSpaceOnUse" x1="347.45" y1="588.65" x2="254.25" y2="588.65" spreadMethod="pad"><stop offset="0%" stop-color="#E5A62F"/><stop offset="100%" stop-color="#FFD758"/></linearGradient><linearGradient id="F" gradientUnits="userSpaceOnUse" x1="347.45" y1="585.35" x2="254.25" y2="585.35" spreadMethod="pad"><stop offset="0%" stop-color="#E5A62F"/><stop offset="100%" stop-color="#FFD758"/></linearGradient><linearGradient id="G" gradientUnits="userSpaceOnUse" x1="347.45" y1="577.8" x2="254.25" y2="577.8" spreadMethod="pad"><stop offset="0%" stop-color="#E5A62F"/><stop offset="100%" stop-color="#FFD758"/></linearGradient><linearGradient id="H" gradientUnits="userSpaceOnUse" x1="347.45" y1="569.7" x2="254.25" y2="569.7" spreadMethod="pad"><stop offset="0%" stop-color="#E5A62F"/><stop offset="100%" stop-color="#FFD758"/></linearGradient><linearGradient id="I" gradientUnits="userSpaceOnUse" x1="347.45" y1="563.8" x2="254.25" y2="563.8" spreadMethod="pad"><stop offset="0%" stop-color="#E5A62F"/><stop offset="100%" stop-color="#FFD758"/></linearGradient><linearGradient id="J" gradientUnits="userSpaceOnUse" x1="347.45" y1="559.15" x2="254.25" y2="559.15" spreadMethod="pad"><stop offset="0%" stop-color="#E5A62F"/><stop offset="100%" stop-color="#FFD758"/></linearGradient><linearGradient id="K" gradientUnits="userSpaceOnUse" x1="347.45" y1="564.1" x2="254.25" y2="564.1" spreadMethod="pad"><stop offset="0%" stop-color="#E5A62F"/><stop offset="100%" stop-color="#FFD758"/></linearGradient><linearGradient id="L" gradientUnits="userSpaceOnUse" x1="347.45" y1="571.95" x2="254.25" y2="571.95" spreadMethod="pad"><stop offset="0%" stop-color="#E5A62F"/><stop offset="100%" stop-color="#FFD758"/></linearGradient><linearGradient id="M" gradientUnits="userSpaceOnUse" x1="347.45" y1="602.55" x2="254.25" y2="602.55" spreadMethod="pad"><stop offset="0%" stop-color="#E5A62F"/><stop offset="100%" stop-color="#FFD758"/></linearGradient><linearGradient id="N" gradientUnits="userSpaceOnUse" x1="347.45" y1="595.4" x2="254.25" y2="595.4" spreadMethod="pad"><stop offset="0%" stop-color="#E5A62F"/><stop offset="100%" stop-color="#FFD758"/></linearGradient><linearGradient id="O" gradientUnits="userSpaceOnUse" x1="347.45" y1="590.45" x2="254.25" y2="590.45" spreadMethod="pad"><stop offset="0%" stop-color="#E5A62F"/><stop offset="100%" stop-color="#FFD758"/></linearGradient><linearGradient id="P" gradientUnits="userSpaceOnUse" x1="347.45" y1="576.6" x2="254.25" y2="576.6" spreadMethod="pad"><stop offset="0%" stop-color="#E5A62F"/><stop offset="100%" stop-color="#FFD758"/></linearGradient><linearGradient id="Q" gradientUnits="userSpaceOnUse" x1="347.45" y1="568.25" x2="254.25" y2="568.25" spreadMethod="pad"><stop offset="0%" stop-color="#E5A62F"/><stop offset="100%" stop-color="#FFD758"/></linearGradient><linearGradient id="R" gradientUnits="userSpaceOnUse" x1="347.45" y1="560.6" x2="254.25" y2="560.6" spreadMethod="pad"><stop offset="0%" stop-color="#E5A62F"/><stop offset="100%" stop-color="#FFD758"/></linearGradient><linearGradient id="S" gradientUnits="userSpaceOnUse" x1="347.45" y1="556.6" x2="254.25" y2="556.6" spreadMethod="pad"><stop offset="0%" stop-color="#E5A62F"/><stop offset="100%" stop-color="#FFD758"/></linearGradient><linearGradient id="T" gradientUnits="userSpaceOnUse" x1="347.45" y1="555.35" x2="254.25" y2="555.35" spreadMethod="pad"><stop offset="0%" stop-color="#E5A62F"/><stop offset="100%" stop-color="#FFD758"/></linearGradient><linearGradient id="U" gradientUnits="userSpaceOnUse" x1="347.45" y1="553.45" x2="254.25" y2="553.45" spreadMethod="pad"><stop offset="0%" stop-color="#E5A62F"/><stop offset="100%" stop-color="#FFD758"/></linearGradient><linearGradient id="V" gradientUnits="userSpaceOnUse" x1="347.45" y1="581.9" x2="254.25" y2="581.9" spreadMethod="pad"><stop offset="0%" stop-color="#E5A62F"/><stop offset="100%" stop-color="#FFD758"/></linearGradient><linearGradient id="W" gradientUnits="userSpaceOnUse" x1="347.463" y1="575.75" x2="254.238" y2="575.75" spreadMethod="pad"><stop offset="0%" stop-color="#E5A62F"/><stop offset="100%" stop-color="#FFD758"/></linearGradient><linearGradient id="X" gradientUnits="userSpaceOnUse" x1="347.45" y1="574" x2="254.25" y2="574" spreadMethod="pad"><stop offset="0%" stop-color="#E5A62F"/><stop offset="100%" stop-color="#FFD758"/></linearGradient><linearGradient id="Y" gradientUnits="userSpaceOnUse" x1="347.45" y1="585.55" x2="254.25" y2="585.55" spreadMethod="pad"><stop offset="0%" stop-color="#E5A62F"/><stop offset="100%" stop-color="#FFD758"/></linearGradient><linearGradient id="Z" gradientUnits="userSpaceOnUse" x1="347.45" y1="575.6" x2="254.25" y2="575.6" spreadMethod="pad"><stop offset="0%" stop-color="#E5A62F"/><stop offset="100%" stop-color="#FFD758"/></linearGradient><linearGradient id="aa" gradientUnits="userSpaceOnUse" x1="347.45" y1="568.2" x2="254.25" y2="568.2" spreadMethod="pad"><stop offset="0%" stop-color="#E5A62F"/><stop offset="100%" stop-color="#FFD758"/></linearGradient><linearGradient id="ab" gradientUnits="userSpaceOnUse" x1="347.45" y1="562.45" x2="254.25" y2="562.45" spreadMethod="pad"><stop offset="0%" stop-color="#E5A62F"/><stop offset="100%" stop-color="#FFD758"/></linearGradient><linearGradient id="ac" gradientUnits="userSpaceOnUse" x1="347.45" y1="556" x2="254.25" y2="556" spreadMethod="pad"><stop offset="0%" stop-color="#E5A62F"/><stop offset="100%" stop-color="#FFD758"/></linearGradient><linearGradient id="ad" gradientUnits="userSpaceOnUse" x1="347.45" y1="590.75" x2="254.25" y2="590.75" spreadMethod="pad"><stop offset="0%" stop-color="#E5A62F"/><stop offset="100%" stop-color="#FFD758"/></linearGradient><linearGradient id="ae" gradientUnits="userSpaceOnUse" x1="347.45" y1="596.75" x2="254.25" y2="596.75" spreadMethod="pad"><stop offset="0%" stop-color="#E5A62F"/><stop offset="100%" stop-color="#FFD758"/></linearGradient><linearGradient id="af" gradientUnits="userSpaceOnUse" x1="347.45" y1="600.6" x2="254.25" y2="600.6" spreadMethod="pad"><stop offset="0%" stop-color="#E5A62F"/><stop offset="100%" stop-color="#FFD758"/></linearGradient><linearGradient id="ag" gradientUnits="userSpaceOnUse" x1="347.45" y1="606.1" x2="254.25" y2="606.1" spreadMethod="pad"><stop offset="0%" stop-color="#E5A62F"/><stop offset="100%" stop-color="#FFD758"/></linearGradient><linearGradient id="ah" gradientUnits="userSpaceOnUse" x1="348.475" y1="593.75" x2="254.525" y2="593.75" spreadMethod="pad"><stop offset="0%" stop-color="#E5A62F"/><stop offset="100%" stop-color="#FFD758"/></linearGradient><linearGradient id="ai" gradientUnits="userSpaceOnUse" x1="347.45" y1="601.55" x2="254.25" y2="601.55" spreadMethod="pad"><stop offset="0%" stop-color="#E5A62F"/><stop offset="100%" stop-color="#FFD758"/></linearGradient><linearGradient id="aj" gradientUnits="userSpaceOnUse" x1="348.488" y1="587.15" x2="253.713" y2="587.15" spreadMethod="pad"><stop offset="0%" stop-color="#E5A62F"/><stop offset="100%" stop-color="#FFD758"/></linearGradient><linearGradient id="ak" gradientUnits="userSpaceOnUse" x1="301.65" y1="527.337" x2="317.35" y2="534.663" spreadMethod="pad"><stop offset="0%" stop-color="#F1B82D"/><stop offset="100%" stop-color="#CE8730"/></linearGradient><linearGradient id="al" gradientUnits="userSpaceOnUse" x1="378.6" y1="523.313" x2="364.8" y2="532.987" spreadMethod="pad"><stop offset="0%" stop-color="#F1B82D"/><stop offset="100%" stop-color="#CE8730"/></linearGradient><linearGradient id="am" gradientUnits="userSpaceOnUse" x1="319.475" y1="554" x2="358.425" y2="554" spreadMethod="pad"><stop offset="0%" stop-color="#FFEDAC"/><stop offset="100%" stop-color="#FFD040"/></linearGradient><linearGradient id="an" gradientUnits="userSpaceOnUse" x1="379.313" y1="590.537" x2="362.087" y2="603.063" spreadMethod="pad"><stop offset="0%" stop-color="#A6D282"/><stop offset="100%" stop-color="#2DB455"/></linearGradient><linearGradient id="ao" gradientUnits="userSpaceOnUse" x1="341.6" y1="564.688" x2="343.3" y2="584.112" spreadMethod="pad"><stop offset="0%" stop-color="#FFD040"/><stop offset="100%" stop-color="#FFCC2A"/></linearGradient><linearGradient id="ap" gradientUnits="userSpaceOnUse" x1="337.587" y1="548.575" x2="318.212" y2="548.925" spreadMethod="pad"><stop offset="0%" stop-color="#FFEDAC"/><stop offset="100%" stop-color="#FFFCD6"/></linearGradient><linearGradient id="aq" gradientUnits="userSpaceOnUse" x1="326.638" y1="552.512" x2="326.563" y2="548.288" spreadMethod="pad"><stop offset="0%" stop-color="#B86A2F"/><stop offset="100%" stop-color="#9B552B"/></linearGradient><linearGradient id="ar" gradientUnits="userSpaceOnUse" x1="356.188" y1="551.512" x2="356.112" y2="547.288" spreadMethod="pad"><stop offset="0%" stop-color="#B86A2F"/><stop offset="100%" stop-color="#9B552B"/></linearGradient><path fill="#FFF" fill-opacity="0" d="M284 0H0v320h284V0z" id="as"/><path fill="#FFD758" d="M304.05 583.95q-.25-5.1-3.5-8.3-3.3-3.25-8-2.8-5.2.45-10.25 5.45-11.45 11.3-10.75 31.65.1 4.05.95 11.1.4 6.1-1.3 10.75-2.1 5.5-1.6 8.4.3 1.4 2.25 3.3 1.75 1.65 1.65 3.4-.2 4.65-.15 4.95.75 2.6 5.35 3.45 11.55 2.15 11.9-5.7.15-3.25-3.05-12.05-2.5-6.55-2.55-14.35-.05-8.95 3.6-13.75.75-.95 6-7 4.55-5.2 6.1-7.6 3.6-5.4 3.35-10.9z" id="at"/><path fill="#F1B82D" d="M281.35 647.25q-4.65-.05-8.2-2.1.45.8.35 1.75-.2 4.65-.15 4.95.75 2.6 5.35 3.45 14.3 2.7 11.45-10-4.1 2.05-8.8 1.95z" id="au"/><path fill="#FFCC2A" d="M346 586.9q-3.4-4.25-12.3-.2-6.3 2.35-5.9 7.6.2 3.15 3.6 9.4 1.4 2.65 3.6 6.15 1.5 2.65 1.2 4.35-.95 7.1 1.45 11.05 1.85 3 1.35 9.35-.45 6.25-2.5 9.05-2.55 3.55-2.05 6.85.55 3.65 4.85 4.8 2.95.75 5.55.1 2.8-.7 4.05-2.9 2.2-3.85 1.6-12.65-.95-13.9-.95-14.35.35-3.6.5-6.25.3-4.95-.65-7.9-1.85-5.55-1.4-14.15.5-7.25-2-10.3z" id="av"/><path fill="#F1B82D" d="M342.9 646.45q-4-.1-7-1.85-2.05 3.4-1.35 6.35.8 3.3 4.75 4.35 2.95.75 5.55.1 2.8-.7 4.05-2.9 1.45-2.5 1.7-7.4-3.7 1.5-7.7 1.35z" id="aw"/><path fill="url(#a)" d="M260.65 547.35q-5.9 2.9-13.2 10-1.75 1.7-3.2 4.4-1.6 3-1.7 5.3-.1 2.6 1.75 3.45 2.1.9 5.8-1.05.9-.45 1.9-1.6 2-2.3 2.25-2.55-5.7 11.65-5.65 23.6.05 13.15 8.4 12.15.65-.05 3.05.25 2.6.15 4.9-.85 5.05-2.2 9.5-2.3 8.45-.1 16.9 6.25 6.5 4.95 16.55 7.05 10 2.05 19.5.45 10.25-1.7 16.4-7.25 6.9-6.3 7.15-16.3.15-3.75-.55-9.6-.7-6.2-.7-7.5l.6-12.1q-.95 0-6.1-6.5-5.4-6.85-6.9-7.55-1.5-.55-8.85.95-8.2 1.7-9.6 1.7-5.5 0-21.2-2.7-14.1-2.45-21.4-1.7-9.6 1.05-15.6 4z" id="ax"/><path fill="#FFE697" d="M282.8 585.45q-.25-5.1-3.5-8.3-3.3-3.25-8.05-2.8-5.25.45-10.3 5.45-11.3 11.25-10.8 31.7.15 4.05 1 11.1.4 6.05-1.25 10.7-2.05 5.55-1.6 8.4.25 1.4 2.2 3.3 1.8 1.7 1.7 3.5-.2 4.6-.15 4.85.7 2.6 5.3 3.5 11.6 2.2 11.9-5.7.15-3.55-3.1-12.1-2.4-6.6-2.45-14.3 0-8.95 3.6-13.7.95-1.25 6-7.1 4.55-5.3 6.1-7.6 3.6-5.4 3.4-10.9z" id="ay"/><path fill="#FFCC2A" d="M268.8 646.85q-4.05 2-8.75 1.95-4.65-.1-8.2-2.1.35.7.35 1.8-.2 4.6-.15 4.85.7 2.6 5.3 3.5 8.1 1.55 10.75-1.9 2-2.65.7-8.1z" id="az"/><path fill="url(#b)" d="M322.05 557.05q.35.9.35 1.65 0 1.6-1.1 2.65-1.05 1.1-2.65 1.1-1.5 0-2.6-1.1-1.15-1.1-1.15-2.65 0-.9.45-1.65-1.25 1.25-1.25 3.1 0 1.9 1.3 3.2 1.35 1.35 3.25 1.35t3.2-1.35q1.35-1.3 1.35-3.2 0-1.8-1.15-3.1z" id="aA"/><path fill="url(#c)" d="M322.8 582q-1.3 1.3-3.15 1.3-1.85 0-3.2-1.3t-1.35-3.15q0-1.2.5-2-1.4 1.5-1.4 3.65 0 2.3 1.6 3.9t3.85 1.6q2.3 0 3.85-1.6 1.6-1.6 1.6-3.9 0-2.1-1.4-3.65.4.9.4 2 0 1.85-1.3 3.15z" id="aB"/><path fill="url(#d)" d="M334.4 590q.45 1 .45 2.05 0 1.85-1.3 3.15-1.3 1.35-3.15 1.35-1.9 0-3.25-1.35-1.3-1.3-1.3-3.15 0-1.1.5-2.05-1.45 1.6-1.45 3.75 0 2.3 1.6 3.9t3.9 1.6q2.25 0 3.85-1.6t1.6-3.9q0-1.95-1.45-3.75z" id="aC"/><path fill="url(#e)" d="M313 600.9q-1 .95-2.35.95-1.4 0-2.4-.95-1-1-1-2.4 0-.75.4-1.4-1.1 1.2-1.1 2.7 0 1.7 1.2 2.85 1.2 1.2 2.9 1.2 1.65 0 2.85-1.2 1.2-1.2 1.2-2.85 0-1.5-1.1-2.7.35.7.35 1.4 0 1.4-.95 2.4z" id="aD"/><path fill="url(#f)" d="M314.25 605.3q.2.35.2.9 0 .85-.6 1.5-.6.6-1.45.6t-1.5-.6q-.6-.65-.6-1.5.15-.65.2-.9-.65.95-.65 1.7 0 1.05.75 1.8t1.8.75q1 0 1.75-.75t.75-1.8q0-1-.65-1.7z" id="aE"/><path fill="url(#g)" d="M262.2 584.75q.45.9.45 1.9 0 1.75-1.25 3.05-1.25 1.25-3 1.25-1.8 0-3-1.25-1.25-1.25-1.25-3.05 0-1.1.4-1.9-1.35 1.5-1.35 3.55 0 2.15 1.5 3.65 1.55 1.55 3.7 1.55 2.15 0 3.65-1.55 1.5-1.5 1.5-3.65 0-2.05-1.35-3.55z" id="aF"/><path fill="url(#h)" d="M258.9 580.45q1.5 1.5 3.65 1.5 2.2 0 3.7-1.5t1.5-3.7q0-2-1.4-3.5.45.85.45 1.95 0 1.75-1.2 3-1.25 1.25-3.05 1.25-1.75 0-3-1.25t-1.25-3q0-1.1.45-1.95-1.4 1.5-1.4 3.5 0 2.15 1.55 3.7z" id="aG"/><path fill="url(#i)" d="M272.65 583.05q.35.9.35 1.55 0 1.45-1.05 2.55-1.1 1.05-2.55 1.05-1.45 0-2.55-1.05-1.05-1.1-1.05-2.55 0-.65.35-1.55-1.15 1.3-1.15 2.95 0 1.75 1.3 3.1 1.3 1.3 3.1 1.3 1.75 0 3.1-1.3 1.3-1.35 1.3-3.1 0-1.65-1.15-2.95z" id="aH"/><path fill="url(#j)" d="M274.6 576.4q.25.4.25 1.1 0 1-.7 1.65-.65.7-1.65.7-1.05 0-1.75-.7-.7-.65-.7-1.65 0-.5.3-1.1-.8.8-.8 1.95 0 1.25.85 2.1.85.85 2.1.85 1.2 0 2.05-.85.8-.85.8-2.1 0-1.2-.75-1.95z" id="aI"/><path fill="url(#k)" d="M261.05 568.05q.2.4.2 1.1 0 1-.7 1.65-.65.7-1.65.7-1 0-1.7-.7t-.7-1.65q0-.5.2-1.1-.7.9-.7 1.95 0 1.2.85 2.1.85.85 2.05.85 1.15 0 2-.85.85-.9.85-2.1 0-1.15-.7-1.95z" id="aJ"/><path fill="url(#l)" d="M255.8 578.85q.3.6.3 1.1 0 1-.7 1.65-.75.7-1.75.7t-1.7-.7q-.7-.7-.7-1.65 0-.75.3-1.1-.8.8-.8 1.95 0 1.2.85 2.1.85.85 2.05.85 1.25 0 2.1-.85.85-.9.85-2.1 0-1.15-.8-1.95z" id="aK"/><path fill="url(#m)" d="M269.75 591.75q.2.4.2 1.1 0 1-.7 1.65-.65.7-1.65.7-1 0-1.7-.7t-.7-1.65q0-.6.25-1.1-.8.9-.8 1.95 0 1.2.9 2.1.85.85 2.05.85 1.2 0 2.05-.85.85-.9.85-2.1 0-1.1-.75-1.95z" id="aL"/><path fill="url(#n)" d="M273.45 591.25q0 1.5 1.1 2.6 1.05 1.05 2.55 1.05 1.5 0 2.6-1.05 1.05-1.1 1.05-2.6 0-1.6-1-2.5.35.55.35 1.35 0 1.25-.9 2.1-.85.9-2.1.9t-2.1-.9q-.9-.85-.9-2.1 0-.85.25-1.35-.9 1-.9 2.5z" id="aM"/><path fill="url(#o)" d="M283 583.1q0 1.45-1 2.4-.95 1-2.4 1-1.35 0-2.35-1t-1-2.4q0-.6.35-1.5-1.1 1.35-1.1 2.8 0 1.7 1.25 2.9 1.2 1.2 2.85 1.2 1.75 0 2.95-1.2 1.25-1.2 1.25-2.9 0-1.45-1.1-2.8.3.6.3 1.5z" id="aN"/><path fill="url(#p)" d="M278.45 569.8q0 1.6-1.1 2.75t-2.7 1.15q-1.6 0-2.75-1.15t-1.15-2.75q0-.9.45-1.65-1.25 1.25-1.25 3.1 0 1.9 1.4 3.3 1.35 1.35 3.3 1.35 1.95 0 3.35-1.35 1.35-1.4 1.35-3.3 0-1.75-1.25-3.1.35.9.35 1.65z" id="aO"/><path fill="url(#q)" d="M269.45 564.7q.3.5.3 1.35 0 1.35-.9 2.25-.9.9-2.25.9-1.3 0-2.2-.9-.9-.9-.9-2.25 0-.85.3-1.35-1.05.95-1.05 2.55 0 1.6 1.15 2.7 1.15 1.15 2.7 1.15 1.6 0 2.75-1.15 1.15-1.1 1.15-2.7t-1.05-2.55z" id="aP"/><path fill="url(#r)" d="M256.1 564.3q0 1.25.85 2.1.8.85 2 .85 1.25 0 2.1-.85.85-.85.85-2.1 0-1.05-.8-1.95.3.8.3 1.1 0 1-.7 1.7-.75.7-1.75.7-.95 0-1.65-.7t-.7-1.7q0-.6.25-1.1-.75.85-.75 1.95z" id="aQ"/><path fill="url(#s)" d="M266.1 559.35q.2.4.2.85 0 .8-.6 1.45-.6.6-1.4.6-.8 0-1.4-.6-.55-.6-.55-1.45 0-.45.2-.85-.65.65-.65 1.65 0 1 .7 1.7.75.7 1.7.7 1 0 1.75-.7.7-.7.7-1.7 0-.8-.65-1.65z" id="aR"/><path fill="url(#t)" d="M258.6 557.2q.2.8.2.85 0 .8-.6 1.4-.6.55-1.4.55-.85 0-1.4-.55-.6-.6-.6-1.4 0-.6.2-.85-.65.75-.65 1.55 0 1.05.75 1.75.7.7 1.7.7t1.65-.7q.7-.7.7-1.75 0-.9-.55-1.55z" id="aS"/><path fill="url(#u)" d="M245.4 567.05q.9.95 2.2.95 1.3 0 2.2-.95.95-.95.95-2.25 0-1.1-.85-2.05.25.45.25 1.15 0 1.05-.75 1.85-.75.75-1.8.75-1.1 0-1.85-.75-.75-.8-.75-1.85 0-.25.25-1.15-.75.85-.75 2.05 0 1.3.9 2.25z" id="aT"/><path fill="url(#v)" d="M252.55 560.7q.2.35.2.75 0 .65-.5 1.15-.5.5-1.2.5-.65 0-1.15-.5-.5-.45-.5-1.15 0-.4.2-.75-.6.7-.6 1.4 0 .8.6 1.4.65.6 1.45.6.85 0 1.45-.6t.6-1.4q0-.75-.55-1.4z" id="aU"/><path fill="url(#w)" d="M254.9 555.8q-.7 0-1.15-.45-.5-.5-.5-1.2 0-.1.15-.7-.5.6-.5 1.35 0 .8.6 1.45.6.6 1.4.6.9 0 1.5-.6.55-.6.55-1.45t-.5-1.35q.15.2.15.7 0 .7-.5 1.2-.5.45-1.2.45z" id="aV"/><path fill="url(#x)" d="M268.05 553.8q.2.6.2.95 0 .9-.65 1.55t-1.6.65q-.9 0-1.55-.65t-.65-1.55q0-.55.25-.95-.7.65-.7 1.8 0 1.1.75 1.85.8.8 1.9.8 1.1 0 1.9-.8.8-.75.8-1.85 0-1.05-.65-1.8z" id="aW"/><path fill="url(#y)" d="M272.55 563.1q-1.25 0-2.1-.9-.9-.9-.9-2.15 0-.45.3-1.35-.95 1.05-.95 2.5 0 1.55 1.1 2.6 1.05 1.1 2.55 1.1 1.55 0 2.6-1.1 1.1-1.05 1.1-2.6 0-1.4-.95-2.5.3.7.3 1.35 0 1.25-.9 2.15-.9.9-2.15.9z" id="aX"/><path fill="url(#z)" d="M276.8 565.25q0 1.25.85 2.15.85.9 2.1.9t2.15-.9q.9-.9.9-2.15 0-1.1-.8-2 .3.7.3 1.05 0 1.05-.75 1.8t-1.8.75q-1 0-1.75-.75-.7-.75-.7-1.8 0-.5.3-1.05-.8.9-.8 2z" id="aY"/><path fill="url(#A)" d="M283.35 577.6q-.75.75-1.8.75-1 0-1.7-.75-.75-.75-.75-1.75 0-.55.3-1.1-.8.8-.8 2 0 1.3.85 2.15.85.9 2.1.9t2.15-.9q.9-.9.9-2.15 0-1.2-.8-2 .3.55.3 1.1 0 1-.75 1.75z" id="aZ"/><path fill="url(#B)" d="M281.95 572.2q-.9-.85-.9-2.1 0-.7.3-1.4-.95 1.05-.95 2.55 0 1.55 1.1 2.6 1.1 1.1 2.65 1.1 1.55 0 2.65-1.1 1.1-1.05 1.1-2.6t-1-2.55q.35.6.35 1.4 0 1.25-.95 2.1-.9.9-2.15.9t-2.2-.9z" id="ba"/><path fill="url(#C)" d="M290.55 578.15q.3.5.3 1.3 0 1.25-.9 2.1-.85.9-2.1.9-1.2 0-2.1-.9-.9-.85-.9-2.1 0-.7.3-1.3-.9 1.05-.9 2.45 0 1.5 1.05 2.6 1.1 1.05 2.55 1.05 1.5 0 2.6-1.05 1.05-1.1 1.05-2.6 0-1.4-.95-2.45z" id="bb"/><path fill="url(#D)" d="M282.35 593.9q0-.7.35-1.3-1 1-1 2.45 0 1.55 1.1 2.6 1.05 1.1 2.6 1.1 1.5 0 2.6-1.1 1.05-1.05 1.05-2.6 0-1.45-1-2.45.35.6.35 1.3 0 1.25-.9 2.15-.85.9-2.1.9t-2.15-.9q-.9-.9-.9-2.15z" id="bc"/><path fill="url(#E)" d="M291 585.35q.35.7.35 1.45 0 1.35-.95 2.3-.95.9-2.3.9-1.35 0-2.3-.9-.95-.95-.95-2.3 0-.8.4-1.45-1.1 1.2-1.1 2.65 0 1.6 1.15 2.8 1.2 1.15 2.8 1.15 1.6 0 2.8-1.15 1.2-1.2 1.2-2.8 0-1.45-1.1-2.65z" id="bd"/><path fill="url(#D)" d="M296.9 592.4q.35.8.35 1.35 0 1.35-.95 2.3-1 .95-2.3.95-1.35 0-2.25-.95-.95-.95-.95-2.3 0-.8.25-1.35-1 1-1 2.6 0 1.65 1.15 2.8t2.8 1.15q1.65 0 2.8-1.15 1.1-1.15 1.1-2.8 0-1.6-1-2.6z" id="be"/><path fill="url(#F)" d="M302.45 582.8q0 1.8-1.25 3.1-1.3 1.25-3.1 1.25-1.65 0-2.9-1.25-1.25-1.3-1.25-3.1 0-1 .45-1.85-1.4 1.5-1.4 3.55 0 2.15 1.5 3.7 1.5 1.55 3.6 1.55 2.2 0 3.75-1.55 1.55-1.55 1.55-3.7 0-2.05-1.4-3.55.45.85.45 1.85z" id="bf"/><path fill="url(#G)" d="M298.05 574.75q.3.7.3 1.3 0 1.25-.85 2.15-.85.9-2.05.9-1.25 0-2.1-.9-.9-.9-.9-2.15 0-.15.25-1.3-.9 1.05-.9 2.45 0 1.5 1.1 2.6 1.05 1.1 2.55 1.1 1.45 0 2.5-1.1t1.05-2.6q0-1.4-.95-2.45z" id="bg"/><path fill="url(#H)" d="M294.25 567.55q.05.3.2.95 0 .85-.65 1.5-.65.6-1.5.6t-1.5-.6q-.6-.65-.6-1.5 0-.55.2-.95-.65.75-.65 1.75t.75 1.75q.75.75 1.8.75 1.1 0 1.85-.75t.75-1.75q0-.9-.65-1.75z" id="bh"/><path fill="url(#I)" d="M289.9 561.65q.25.5.25.95 0 .85-.6 1.5-.65.6-1.5.6t-1.5-.6q-.6-.65-.6-1.5 0-.35.2-.95-.7.8-.7 1.75 0 1.05.75 1.8t1.85.75q1 0 1.75-.75t.75-1.8q0-1.1-.65-1.75z" id="bi"/><path fill="url(#J)" d="M281.9 560.55q-1.35 0-2.3-.95-1-1-1-2.35 0-.65.35-1.45-1 1.15-1 2.7 0 1.65 1.15 2.85 1.15 1.15 2.8 1.15t2.85-1.15q1.15-1.2 1.15-2.85 0-1.5-1.05-2.7.3.55.3 1.45 0 1.35-.95 2.35-.95.95-2.3.95z" id="bj"/><path fill="url(#K)" d="M293.1 564.45q-.8-.8-.8-1.95 0-.65.3-1.15-.9.9-.9 2.15 0 1.35.95 2.35t2.3 1q1.35 0 2.25-1 .9-1 .9-2.35 0-1.3-.7-2.15.2.55.2 1.15 0 1.15-.75 1.95-.75.75-1.9.75-1.1 0-1.85-.75z" id="bk"/><path fill="url(#L)" d="M299.7 569.95q.2.35.2.9 0 .8-.55 1.4-.6.55-1.35.55-.85 0-1.45-.55-.6-.6-.6-1.4 0-.25.25-.9-.6.6-.6 1.65 0 .95.7 1.65t1.7.7q.9 0 1.6-.7.7-.7.7-1.65t-.6-1.65z" id="bl"/><path fill="url(#M)" d="M304.95 599q.35.65.35 1.55 0 1.45-1 2.45-1 1-2.45 1-1.45 0-2.45-1-1-1-1-2.45 0-.75.35-1.55-1.05 1.15-1.05 2.85 0 1.75 1.2 3 1.25 1.25 2.95 1.25 1.75 0 2.95-1.25 1.25-1.25 1.25-3t-1.1-2.85z" id="bm"/><path fill="url(#N)" d="M304.05 594.2q0 .85-.65 1.5-.7.65-1.6.65-.85 0-1.5-.65t-.65-1.5q0-.6.2-1-.7.8-.7 1.8 0 1.1.8 1.9.75.75 1.85.75 1.15 0 1.9-.75t.75-1.9q0-1.1-.65-1.8.25.5.25 1z" id="bn"/><path fill="url(#O)" d="M304.55 592.5q1.05 1.05 2.55 1.05 1.55 0 2.65-1.05 1.1-1.1 1.1-2.6 0-1.4-1-2.55.35.8.35 1.4 0 1.25-.9 2.1-.9.9-2.2.9-1.25 0-2.1-.9-.9-.85-.9-2.1 0-.6.35-1.4-1 1.15-1 2.55 0 1.5 1.1 2.6z" id="bo"/><path fill="url(#P)" d="M301.4 577.95q.75.75 1.85.75 1 0 1.75-.75t.75-1.75q0-.9-.65-1.75.2.6.2.95 0 .85-.6 1.5-.6.6-1.45.6t-1.5-.6q-.6-.65-.6-1.5 0-.55.2-.95-.7.8-.7 1.75 0 1 .75 1.75z" id="bp"/><path fill="url(#Q)" d="M308.85 564.3q.35.9.35 1.75 0 1.6-1.1 2.75-1.15 1.15-2.7 1.15-1.6 0-2.75-1.15t-1.15-2.75q0-.85.35-1.75-1.2 1.55-1.2 3.2 0 1.95 1.4 3.3 1.4 1.35 3.35 1.35 1.9 0 3.25-1.35 1.4-1.35 1.4-3.3 0-1.65-1.2-3.2z" id="bq"/><path fill="url(#R)" d="M303.15 558.5q.25.65.25.9 0 .85-.6 1.5-.65.6-1.5.6t-1.5-.6q-.6-.65-.6-1.5 0-.55.2-.9-.65.8-.65 1.7 0 1.05.75 1.8t1.8.75q1 0 1.75-.75t.75-1.8q0-.75-.65-1.7z" id="br"/><path fill="url(#S)" d="M297.2 553.25q.35.7.35 1.5 0 1.35-.95 2.35-1 .95-2.35.95t-2.35-.95q-1-1-1-2.35 0-.85.4-1.5-1.1 1.2-1.1 2.7 0 1.7 1.2 2.85 1.15 1.2 2.85 1.2 1.65 0 2.8-1.2 1.15-1.15 1.15-2.85 0-1.6-1-2.7z" id="bs"/><path fill="url(#T)" d="M275.85 553q.25.6.25 1 0 1-.65 1.65-.65.65-1.65.65-.95 0-1.6-.65-.65-.7-.65-1.65 0-.3.2-1-.7.9-.7 1.9 0 1.15.8 1.95.8.85 1.95.85t1.95-.85q.85-.8.85-1.95 0-1.05-.75-1.9z" id="bt"/><path fill="url(#U)" d="M282.85 554.45q-.9 0-1.6-.7-.7-.7-.7-1.6 0-.4.3-1-.75.85-.75 1.85 0 1.15.8 1.95.85.8 1.95.8 1.15 0 1.95-.8t.8-1.95q0-1.15-.75-1.85.3.6.3 1 0 .9-.7 1.6-.65.7-1.6.7z" id="bu"/><path fill="url(#V)" d="M311.65 578.3q.35.7.35 1.55 0 1.45-1 2.5-1.05 1.05-2.5 1.05t-2.45-1.05q-1-1.05-1-2.5 0-.95.35-1.55-1.15 1.3-1.15 2.85 0 1.8 1.25 3.1 1.25 1.25 3 1.25t3.05-1.25q1.25-1.3 1.25-3.1 0-1.6-1.15-2.85z" id="bv"/><path fill="url(#W)" d="M311.75 573.7q.2.35.2.9 0 .85-.55 1.45-.6.6-1.45.6t-1.5-.6q-.6-.6-.6-1.45 0-.55.2-.9-.65.65-.65 1.7 0 1 .75 1.75.75.7 1.8.7 1 0 1.75-.7.75-.75.75-1.75t-.7-1.7z" id="bw"/><path fill="url(#X)" d="M319.95 571.1q.35.6.35 1.2 0 1.2-.85 2.05-.85.85-2.05.85-1.25 0-2.1-.85-.85-.85-.85-2.05 0-.65.4-1.2-.95.85-.95 2.35 0 1.4 1.05 2.45 1 1 2.45 1 1.45 0 2.45-1 1.05-1.05 1.05-2.45 0-1.4-.95-2.35z" id="bx"/><path fill="url(#Y)" d="M332.2 582.45q.25.45.25 1.3 0 1.3-.9 2.2-.85.9-2.1.9t-2.15-.9q-.9-.9-.9-2.2 0-.75.3-1.3-.95 1.1-.95 2.45 0 1.55 1.1 2.65 1.1 1.1 2.6 1.1t2.6-1.1q1.05-1.1 1.05-2.65 0-1.4-.9-2.45z" id="by"/><path fill="url(#Z)" d="M323.95 575.9q-.65-.6-.65-1.5 0-.5.25-1-.75.85-.75 1.8 0 1.1.8 1.85.8.8 1.9.8 1.05 0 1.85-.8.8-.75.8-1.85 0-.9-.7-1.8.2.6.2 1 0 .85-.6 1.5-.65.65-1.55.65t-1.55-.65z" id="bz"/><path fill="url(#aa)" d="M315.9 565.95q.2.4.2.95 0 .95-.65 1.6-.65.65-1.5.65-.9 0-1.55-.65t-.65-1.6q0-.55.2-.95-.7.85-.7 1.8 0 1.1.8 1.9.8.8 1.9.8 1.1 0 1.9-.8.8-.8.8-1.9 0-.9-.75-1.8z" id="bA"/><path fill="url(#ab)" d="M310.95 559.95q.3.4.3 1.05 0 1-.7 1.75-.75.7-1.75.7-1.05 0-1.8-.7-.75-.75-.75-1.75 0-.55.3-1.05-.8.8-.8 2 0 1.25.9 2.1.9.9 2.15.9t2.1-.9q.85-.85.85-2.1 0-1.2-.8-2z" id="bB"/><path fill="url(#ac)" d="M310.8 553.3q.2.45.2 1.15 0 1.1-.75 1.9-.75.75-1.85.75-1.05 0-1.85-.75-.8-.8-.8-1.9 0-.45.3-1.15-.85 1-.85 2.15 0 1.35.95 2.3.9.95 2.25.95 1.3 0 2.25-.95t.95-2.3q0-1.2-.8-2.15z" id="bC"/><path fill="url(#ad)" d="M336.5 590.15q0 1.55 1.1 2.6 1.05 1.1 2.55 1.1 1.55 0 2.6-1.1 1.1-1.05 1.1-2.6 0-1.45-.95-2.5.3.7.3 1.35 0 1.25-.9 2.15-.9.9-2.15.9t-2.1-.9q-.9-.9-.9-2.15 0-.8.3-1.35-.95 1.05-.95 2.5z" id="bD"/><path fill="url(#ae)" d="M340.95 594.7q.25.5.25.85 0 .85-.6 1.45t-1.45.6q-.8 0-1.4-.6-.6-.6-.6-1.45 0-.45.2-.85-.65.85-.65 1.65 0 1.05.75 1.75.7.7 1.7.7 1.05 0 1.75-.7t.7-1.75q0-1-.65-1.65z" id="bE"/><path fill="url(#af)" d="M336.5 599.1q.15.6.15.65 0 .65-.45 1.05-.4.45-1.05.45-.6 0-1-.45-.45-.4-.45-1.05 0-.35.15-.65-.5.6-.5 1.2 0 .75.55 1.3.55.5 1.25.5.75 0 1.3-.5.5-.55.5-1.3 0-.65-.45-1.2z" id="bF"/><path fill="url(#ag)" d="M334.9 604.05q.25.5.25.9 0 .85-.6 1.45-.6.55-1.45.55-.8 0-1.4-.55-.6-.6-.6-1.45 0-.5.2-.9-.65.85-.65 1.65 0 1.05.75 1.75.7.7 1.7.7 1.05 0 1.75-.7t.7-1.75q0-1-.65-1.65z" id="bG"/><path fill="url(#ah)" d="M347.75 592.25q.2.25.2.65 0 .6-.45 1.05-.45.4-1.05.4-.6 0-1.05-.4-.5-.45-.5-1.05 0-.3.25-.65-.5.5-.5 1.25 0 .7.55 1.25.5.55 1.25.55t1.3-.55q.5-.55.5-1.25 0-.65-.5-1.25z" id="bH"/><path fill="url(#ai)" d="M344.25 599.6q.25.35.25.85 0 .75-.55 1.35-.6.55-1.4.55-.75 0-1.3-.55-.55-.6-.55-1.35l.1-.85q-.55.7-.55 1.6 0 1 .65 1.65.7.65 1.65.65 1 0 1.65-.65.7-.7.7-1.65t-.65-1.6z" id="bI"/><path fill="url(#aj)" d="M349.15 585.65q.15.3.15.65 0 .55-.45 1.05-.45.45-1.05.45-.6 0-1-.45-.45-.45-.45-1.05 0-.45.15-.65-.5.6-.5 1.2 0 .75.55 1.3.5.5 1.25.5t1.3-.5q.5-.55.5-1.3 0-.65-.45-1.2z" id="bJ"/><path fill="#FFDB6F" d="M318.7 627.6q1.8 3.05 1.2 9.4-.55 6.15-2.7 8.95-2.65 3.55-2.2 6.85.5 3.65 4.8 4.9 2.85.85 5.45.25 2.8-.6 4.1-2.75 2.3-3.85 1.9-12.7-.65-14.2-.65-14.3.5-3.65.7-6.3.35-4.95-.55-7.9-1.8-6.05-1-14.1.65-7.25-1.8-10.4-3.4-4.35-12.35-.5-6.3 2.25-6.05 7.5.15 3 3.4 9.45 1.4 2.65 3.5 6.25 1.4 2.6 1.1 4.4-1.1 7.15 1.15 11z" id="bK"/><path fill="#F1B82D" d="M323.8 648.15q-3.9-.15-6.9-1.75-2.4 3.45-1.85 6.65.6 3.5 4.75 4.65 2.85.85 5.45.25 2.8-.6 4.1-2.75 1.7-2.95 1.95-8.3-3.6 1.4-7.5 1.25z" id="bL"/><path fill="#FFEDAC" d="M285.95 550.45q19.35-.05 29.95 3.55-13.4-6.85-32.05-7.15-20-.25-25.45 8.3 7.05-4.7 27.55-4.7z" id="bM"/><path fill="#FFDB6F" d="M317.35 543q1.05-1.45 3-3.45 3.1-3.05 4.6-5.2 2.4-3.45 2.1-6.3 1.05-.05-1.3-1.65-2.5-1.65-6.6-3.5-11.5-5.15-21.9-5.75-4.95-.3-5.65 0-1.5.7-.4 4.75 2.1 7.35 9.25 13.25 6.35 5.25 14.15 7.55 2.3.7 2.75.3z" id="bN"/><path fill="url(#ak)" d="M303.25 535.05q6.1 4.05 14.9 7 .95-1.3 2.2-2.5 4.3-4.15 5.8-7.15-2.3-2.25-9.5-5.65-9.05-4.25-16.75-5.2-4.05-.7-5.25-.65-1.85.1-1.2 2.45 1.8 6.4 9.8 11.7z" id="bO"/><path fill="#FFDB6F" d="M365.45 540.75q.5.35 2.75-.5 7.6-2.85 13.55-8.55 6.75-6.45 8.25-13.9.8-4.15-.75-4.75-.8-.3-5.65.45-10.35 1.4-21.4 7.4-4 2.1-6.4 4-2.25 1.7-1.25 1.7-.05 2.8 2.7 6.1 1.5 1.85 4.95 4.85 2.1 1.85 3.25 3.2z" id="bP"/><path fill="url(#al)" d="M364.6 539.9q8.6-3.65 14.35-8.15 7.65-5.9 8.95-12.35.5-2.4-1.4-2.35-3.1.65-5.3 1.05-7.55 1.5-16.25 6.45-7 3.95-9.1 6.35 1.75 2.85 6.35 6.65.6.55 2.4 2.35z" id="bQ"/><path fill="url(#am)" d="M318.65 546.7q-.15 1.6-.45 4.95-.25 2.95-.05 5.4.45 6.1 4.85 11.4 5.7 6.8 6.9 9.7 1.95 4.9 5.9 7.1 3.15 1.8 7.25 1.7 4.05-.2 7.05-2.2 3.8-2.55 5.35-7.6 1-3.05 6.15-10.2 4-5.6 4-11.7 0-2.4-.45-5.4-.6-3.35-.85-4.9 5.75-5.5 1.25-12.95-4.35-7.15-13.95-9.8-3.95-1.1-9.45-1.1-5.3.05-9.6 1-10.6 2.45-15.55 10.7-5.1 8.4 1.65 13.9z" id="bR"/><path fill="#FFE284" d="M342.75 579.85q-2.05.1-3.45 1.45-1.4 1.35-1.35 3.1.1 1.8 1.6 3 1.55 1.2 3.55 1.1 2.05-.05 3.5-1.35 1.4-1.3 1.35-3.1-.1-1.85-1.6-3.05-1.5-1.2-3.6-1.15z" id="bS"/><path fill="url(#an)" d="M357.5 577.9q-6.5 1.7-11.3 6.7 3.4 3.1 6.05 6.55 4.3 5.65 4.05 9.55 1.95-5.4-1.95-11.25 4.15 2.7 6.25 7.55 1.9 4.5 1.4 9.2 2.45-4.4 2-8.7-.3-2.75-1.75-5.1 2.9 3.05 4.1 7.45 1.05 3.95.55 7.9 2.25-3.9 2.4-6.75.1-2.3-1.25-4.95 2.15 3 2.3 7.3.2 3.65-1 6.4 2-2.25 2.7-4.2.9-2.45.1-5.1 1.9 2.8 1.85 6.35-.05 3.25-1.65 6.1 3.7-3.95 3.15-8.6 2 4.1 1.45 8.5-.25 2.2-.9 3.5 1.75-1.85 2.5-4.75.8-3.15-.15-6 1.5 2.1 2.2 4.75.75 2.8.45 5.65 1.15-3.5 1.2-3.85.3-2.2-.8-5.8 1.15 1.1 2.5 4.65 1.4 3.75 1.2 5.8.95-3.3.45-6.15-.4-2.25-1.85-4.95 2.4 2.3 4.15 5.4-.5-2.55-1.65-4.5-.9-1.45-2.65-3.15 1.25.3 2.5 1.2 1.55 1.15 3.7 3.65-1.5-4-4.55-6.2-2.15-1.6-4.55-1.95 5-.55 10.35 2.45-2.35-2.3-5.35-3.8-3.3-1.65-8.1-2.75 2.85-.3 4.45-.15.95.05 4.7.8-3.4-2.5-8.1-3.65-3.65-.9-6.35-.75 3.8-.85 7.9-.2 4.2.65 7.85 2.7-3.35-3.45-9.15-5.3-5.85-1.85-11.35-1.1 5.2-1.2 7-1.25 4.55-.25 10.25 1.85-6.15-3.55-9.9-4.2-3.5-.6-8.9.8 2.1-1.5 5.05-2.15 3.3-.7 6.4 0-3.95-1.4-7-1.5-2.95-.05-6 1.05 4.75-3.25 12.85-2.45-4.3-1.55-8.65-1.5-4.25 0-9.1 1.5-2.1.75-4.5 2.2 3.15-2.8 5.8-3.95 2.7-1.1 6.55-1.25-4.65-1-9.9.4z" id="bT"/><path fill="#CE8730" d="M347.3 585.05q8.05.8 15.8 5.05 6.05 3.3 14.3 10.3-6.55-7.15-14.05-11.5-7.8-4.6-15.45-5.35l-.6 1.5z" id="bU"/><path fill="#CE8730" d="M348.6 585.2l-.1-1.6q-3.05-.3-7.4 0-5.2.4-8.2 1.6-.75.35-.95.55-.2.2-.15.55.6.85 1.45.5 2.3-1.05 8.2-1.55 5.25-.4 7.15-.05z" id="bV"/><path fill="url(#ao)" d="M348.65 569q-.75-.85-2.35-2-2.9-2.1-4.15-2.05-1.2.1-4.05 2.55-1.25 1-1.55 1.35-.7.7-1.15 1.75-1.1 2.95-1 6.4.1 3.65 1.65 5.45 1.8 2.15 6.9 2 5.1-.2 6.75-2.5 1.2-1.65 1.25-4.65.05-2.8-.9-5.55-.55-1.75-1.4-2.75z" id="bW"/><path fill="#E5A62F" d="M345 581q1.45-2.7 4.05-3.7 1.45-.6.4-1.75-.95-1-2.75.95-1.25 1.3-1.7 4.5z" id="bX"/><path fill="#E5A62F" d="M336.35 577.8q2.6.8 4.35 3.35-.65-3.1-2.1-4.4-1.9-1.75-2.75-.65-.95 1.15.5 1.7z" id="bY"/><path fill="#FFE697" d="M362.8 541.55q3.6-5.05-.8-7.05-1.85-.8-6.5.3-3.9.9-5.75 1.95-3.85 2.05-5.05 7.6-.8 3.7-.5 10.25.2 4.15.7 5.4 1.15 2.8 4.4.45 1.15-.8 2.35-3.8 1.4-3.55 2.05-4.45 1.8-2.35 5.15-6.15 3.65-4.15 3.95-4.5z" id="bZ"/><path fill="url(#ap)" d="M320.15 536.1q-4.35 2.35-.3 7.05.2.25 4.3 4.2 3.6 3.55 5.6 5.8.75.85 2.4 4.25 1.4 2.9 2.55 3.6 3.45 2.1 4.4-.75.45-1.4.3-5.45-.15-6.55-1.25-10.25-1.6-5.4-5.6-7.15-1.9-.9-5.9-1.55-4.75-.7-6.5.25z" id="ca"/><path fill="#925029" d="M320.5 548.3q.727 1.612 2.9 2.55.7.3 2.2.9 1.25.6 1.85 1.5.2.3.2 1.15.05.75.3 1 3.25-1.95 2-4.75-.35-.85-1.5-1.85-1.3-1.1-1.9-1.7-.4-.35-.9-1.35-.35 1.15.85 2.15-1.45-.85-2.1-2.5-.25 1.2 1 2.8-1.4-.5-2.95-2.25.15 1.5 1.65 2.6-1.3-.25-2.45-1.45.15 1.3 1.4 2.25-.35.25-1.4-.3-.981-.467-1.15-.75z" id="cb"/><path fill="#D99630" d="M323.3 548.9q-1.25 1.25-1.05 3.2.2 1.9 1.7 3.45 1.6 1.5 3.5 1.7 1.95.2 3.2-1.05 1.25-1.25 1-3.2-.2-1.95-1.7-3.45-1.5-1.5-3.45-1.7-1.95-.2-3.2 1.05z" id="cc"/><path fill="url(#aq)" d="M323.7 549.35q-1.05 1-.85 2.6.15 1.6 1.4 2.8 1.2 1.25 2.8 1.4 1.6.15 2.6-.85t.85-2.6q-.15-1.6-1.4-2.85-1.25-1.2-2.85-1.35-1.6-.2-2.55.85z" id="cd"/><path fill="#373535" d="M325.9 554.1q.45.65 1.15.65t1.15-.65q.45-.65.45-1.65 0-1-.45-1.7-.5-.7-1.15-.7-.65 0-1.15.7-.5.7-.5 1.7 0 .95.5 1.65z" id="ce"/><path fill="#FFF" d="M324.65 551.95q.35.35.75.35.5 0 .8-.35.35-.3.35-.8 0-.45-.35-.75-.3-.35-.8-.35-.4 0-.75.35-.3.3-.3.75 0 .5.3.8z" id="cf"/><path fill="#F6BF2D" d="M336.65 524.65q.3.55.3 1.2 0 1.2-.8 2.05-.85.8-2.05.8-1.15 0-1.95-.8-.85-.85-.85-2.05 0-.5.3-1.2-.85.85-.85 2.3 0 1.4 1 2.4.95 1 2.35 1 1.45 0 2.45-1 1.05-1 1.05-2.4 0-1.35-.95-2.3z" id="cg"/><path fill="#F6BF2D" d="M344.1 531.05q-.65.65-1.6.65-1 0-1.65-.65-.7-.7-.7-1.65 0-.5.25-1-.75.85-.75 1.85 0 1.2.85 2 .8.8 2 .8 1.15 0 2-.8.8-.8.8-2 0-1-.75-1.85.25.5.25 1 0 .95-.7 1.65z" id="ch"/><path fill="#F6BF2D" d="M344 523.4q.2.4.2.95 0 .85-.6 1.4-.65.6-1.5.6-.8 0-1.4-.6-.6-.6-.6-1.4 0-.55.2-.95-.65.75-.65 1.7 0 1.05.7 1.8.75.7 1.75.7 1.05 0 1.8-.7.75-.75.75-1.8 0-.85-.65-1.7z" id="ci"/><path fill="#F6BF2D" d="M346.95 526.75q0 1.05.7 1.8.7.7 1.75.7 1 0 1.75-.7.75-.75.75-1.8 0-.9-.65-1.65.25.4.25.9 0 .85-.6 1.45-.65.6-1.5.6-.8 0-1.45-.6-.6-.6-.6-1.45 0-.5.25-.9-.65.6-.65 1.65z" id="cj"/><path fill="#925029" d="M359.45 550.3q2.174-.84 2.85-2.5-.114.282-1.05.75-1.05.55-1.4.3 1.2-.9 1.35-2.25-.95 1.2-2.45 1.45.65-.45 1.15-1.2.45-.75.5-1.4-1.55 1.75-2.95 2.25 1.25-1.6 1-2.8-.65 1.65-2.1 2.5 1.2-1 .9-2.15-.75 1.2-.95 1.35-.55.6-1.9 1.7-1.15 1-1.5 1.85-1.25 2.8 2.05 4.75.25-.25.25-1.05.05-.8.25-1.1.6-.95 1.85-1.55 0-.05 2.15-.9z" id="ck"/><path fill="#D99630" d="M360.6 551.6q.2-1.95-1.05-3.2-1.25-1.25-3.15-1.05-1.95.2-3.5 1.7-1.5 1.5-1.7 3.45-.2 1.9 1 3.2 1.25 1.25 3.2 1.05 2-.2 3.5-1.7 1.5-1.55 1.7-3.45z" id="cl"/><path fill="url(#ar)" d="M360.05 551.45q.15-1.6-.85-2.6-.95-1.05-2.55-.85-1.6.15-2.85 1.35-1.25 1.25-1.4 2.85-.2 1.6.8 2.6t2.6.85q1.65-.15 2.9-1.4 1.2-1.2 1.35-2.8z" id="cm"/><path fill="#373535" d="M355.1 553.4q.5.7 1.2.7.65 0 1.1-.7.5-.7.5-1.6 0-.95-.5-1.7-.45-.7-1.1-.7-.7 0-1.2.7-.45.7-.45 1.7 0 .9.45 1.6z" id="cn"/><path fill="#FFF" d="M354.2 551.85q.3.35.75.35.5 0 .8-.35.35-.3.35-.8 0-.4-.35-.75-.3-.3-.8-.3-.45 0-.75.3-.35.35-.35.75 0 .5.35.8z" id="co"/><path fill="#FFEDAC" d="M322.25 628.4Q321 625.05 321 621q0-4.05 1.25-7.45-1.45.95-2.35 2.95-.9 2.05-.9 4.5t.9 4.45q.9 2 2.35 2.95z" id="cp"/><path fill="#FFDB6F" d="M341.05 625.75q-1.15-3-1.15-7.05 0-4.1 1.15-7.1-1.45.85-2.3 2.8-.9 1.95-.9 4.3 0 2.35.9 4.3.85 1.9 2.3 2.75z" id="cq"/><path fill="#FFE697" d="M276.3 622.8q-1-2.55-1-6.2 0-3.6 1-6.3-1.25.85-1.95 2.5-.8 1.75-.8 3.8 0 2 .8 3.7.75 1.7 1.95 2.5z" id="cr"/><path fill="#FFFCD6" d="M255.05 622.55q-1-2.6-1-6.25t1-6.2q-1.2.75-1.95 2.45-.75 1.7-.75 3.75t.75 3.8q.75 1.65 1.95 2.45z" id="cs"/></defs><use xlink:href="#as"/><use xlink:href="#at" transform="matrix(1.77414 0 0 1.77414 -420.018 -868.895)"/><use xlink:href="#au" transform="matrix(1.77414 0 0 1.77414 -420.018 -868.895)"/><use xlink:href="#av" transform="matrix(1.77414 0 0 1.77414 -420.018 -868.895)"/><use xlink:href="#aw" transform="matrix(1.77414 0 0 1.77414 -420.018 -868.895)"/><use xlink:href="#ax" transform="matrix(1.77414 0 0 1.77414 -420.018 -868.895)"/><use xlink:href="#ay" transform="matrix(1.77414 0 0 1.77414 -420.018 -868.895)"/><use xlink:href="#az" transform="matrix(1.77414 0 0 1.77414 -420.018 -868.895)"/><use xlink:href="#aA" transform="matrix(1.77414 0 0 1.77414 -420.018 -868.895)"/><use xlink:href="#aB" transform="matrix(1.77414 0 0 1.77414 -420.018 -868.895)"/><use xlink:href="#aC" transform="matrix(1.77414 0 0 1.77414 -420.018 -868.895)"/><use xlink:href="#aD" transform="matrix(1.77414 0 0 1.77414 -420.018 -868.895)"/><use xlink:href="#aE" transform="matrix(1.77414 0 0 1.77414 -420.018 -868.895)"/><use xlink:href="#aF" transform="matrix(1.77414 0 0 1.77414 -420.018 -868.895)"/><use xlink:href="#aG" transform="matrix(1.77414 0 0 1.77414 -420.018 -868.895)"/><use xlink:href="#aH" transform="matrix(1.77414 0 0 1.77414 -420.018 -868.895)"/><use xlink:href="#aI" transform="matrix(1.77414 0 0 1.77414 -420.018 -868.895)"/><use xlink:href="#aJ" transform="matrix(1.77414 0 0 1.77414 -420.018 -868.895)"/><use xlink:href="#aK" transform="matrix(1.77414 0 0 1.77414 -420.018 -868.895)"/><use xlink:href="#aL" transform="matrix(1.77414 0 0 1.77414 -420.018 -868.895)"/><use xlink:href="#aM" transform="matrix(1.77414 0 0 1.77414 -420.018 -868.895)"/><use xlink:href="#aN" transform="matrix(1.77414 0 0 1.77414 -420.018 -868.895)"/><use xlink:href="#aO" transform="matrix(1.77414 0 0 1.77414 -420.018 -868.895)"/><use xlink:href="#aP" transform="matrix(1.77414 0 0 1.77414 -420.018 -868.895)"/><use xlink:href="#aQ" transform="matrix(1.77414 0 0 1.77414 -420.018 -868.895)"/><use xlink:href="#aR" transform="matrix(1.77414 0 0 1.77414 -420.018 -868.895)"/><use xlink:href="#aS" transform="matrix(1.77414 0 0 1.77414 -420.018 -868.895)"/><use xlink:href="#aT" transform="matrix(1.77414 0 0 1.77414 -420.018 -868.895)"/><use xlink:href="#aU" transform="matrix(1.77414 0 0 1.77414 -420.018 -868.895)"/><use xlink:href="#aV" transform="matrix(1.77414 0 0 1.77414 -420.018 -868.895)"/><use xlink:href="#aW" transform="matrix(1.77414 0 0 1.77414 -420.018 -868.895)"/><use xlink:href="#aX" transform="matrix(1.77414 0 0 1.77414 -420.018 -868.895)"/><use xlink:href="#aY" transform="matrix(1.77414 0 0 1.77414 -420.018 -868.895)"/><use xlink:href="#aZ" transform="matrix(1.77414 0 0 1.77414 -420.018 -868.895)"/><use xlink:href="#ba" transform="matrix(1.77414 0 0 1.77414 -420.018 -868.895)"/><use xlink:href="#bb" transform="matrix(1.77414 0 0 1.77414 -420.018 -868.895)"/><use xlink:href="#bc" transform="matrix(1.77414 0 0 1.77414 -420.018 -868.895)"/><use xlink:href="#bd" transform="matrix(1.77414 0 0 1.77414 -420.018 -868.895)"/><use xlink:href="#be" transform="matrix(1.77414 0 0 1.77414 -420.018 -868.895)"/><use xlink:href="#bf" transform="matrix(1.77414 0 0 1.77414 -420.018 -868.895)"/><use xlink:href="#bg" transform="matrix(1.77414 0 0 1.77414 -420.018 -868.895)"/><use xlink:href="#bh" transform="matrix(1.77414 0 0 1.77414 -420.018 -868.895)"/><use xlink:href="#bi" transform="matrix(1.77414 0 0 1.77414 -420.018 -868.895)"/><use xlink:href="#bj" transform="matrix(1.77414 0 0 1.77414 -420.018 -868.895)"/><use xlink:href="#bk" transform="matrix(1.77414 0 0 1.77414 -420.018 -868.895)"/><use xlink:href="#bl" transform="matrix(1.77414 0 0 1.77414 -420.018 -868.895)"/><use xlink:href="#bm" transform="matrix(1.77414 0 0 1.77414 -420.018 -868.895)"/><use xlink:href="#bn" transform="matrix(1.77414 0 0 1.77414 -420.018 -868.895)"/><use xlink:href="#bo" transform="matrix(1.77414 0 0 1.77414 -420.018 -868.895)"/><use xlink:href="#bp" transform="matrix(1.77414 0 0 1.77414 -420.018 -868.895)"/><use xlink:href="#bq" transform="matrix(1.77414 0 0 1.77414 -420.018 -868.895)"/><use xlink:href="#br" transform="matrix(1.77414 0 0 1.77414 -420.018 -868.895)"/><use xlink:href="#bs" transform="matrix(1.77414 0 0 1.77414 -420.018 -868.895)"/><use xlink:href="#bt" transform="matrix(1.77414 0 0 1.77414 -420.018 -868.895)"/><use xlink:href="#bu" transform="matrix(1.77414 0 0 1.77414 -420.018 -868.895)"/><use xlink:href="#bv" transform="matrix(1.77414 0 0 1.77414 -420.018 -868.895)"/><use xlink:href="#bw" transform="matrix(1.77414 0 0 1.77414 -420.018 -868.895)"/><use xlink:href="#bx" transform="matrix(1.77414 0 0 1.77414 -420.018 -868.895)"/><use xlink:href="#by" transform="matrix(1.77414 0 0 1.77414 -420.018 -868.895)"/><use xlink:href="#bz" transform="matrix(1.77414 0 0 1.77414 -420.018 -868.895)"/><use xlink:href="#bA" transform="matrix(1.77414 0 0 1.77414 -420.018 -868.895)"/><use xlink:href="#bB" transform="matrix(1.77414 0 0 1.77414 -420.018 -868.895)"/><use xlink:href="#bC" transform="matrix(1.77414 0 0 1.77414 -420.018 -868.895)"/><use xlink:href="#bD" transform="matrix(1.77414 0 0 1.77414 -420.018 -868.895)"/><use xlink:href="#bE" transform="matrix(1.77414 0 0 1.77414 -420.018 -868.895)"/><use xlink:href="#bF" transform="matrix(1.77414 0 0 1.77414 -420.018 -868.895)"/><use xlink:href="#bG" transform="matrix(1.77414 0 0 1.77414 -420.018 -868.895)"/><use xlink:href="#bH" transform="matrix(1.77414 0 0 1.77414 -420.018 -868.895)"/><use xlink:href="#bI" transform="matrix(1.77414 0 0 1.77414 -420.018 -868.895)"/><use xlink:href="#bJ" transform="matrix(1.77414 0 0 1.77414 -420.018 -868.895)"/><use xlink:href="#bK" transform="matrix(1.77414 0 0 1.77414 -420.018 -868.895)"/><use xlink:href="#bL" transform="matrix(1.77414 0 0 1.77414 -420.018 -868.895)"/><use xlink:href="#bM" transform="matrix(1.77414 0 0 1.77414 -420.018 -868.895)"/><use xlink:href="#bN" transform="matrix(1.77414 0 0 1.77414 -420.018 -868.895)"/><use xlink:href="#bO" transform="matrix(1.77414 0 0 1.77414 -420.018 -868.895)"/><use xlink:href="#bP" transform="matrix(1.77414 0 0 1.77414 -420.018 -868.895)"/><use xlink:href="#bQ" transform="matrix(1.77414 0 0 1.77414 -420.018 -868.895)"/><use xlink:href="#bR" transform="matrix(1.77414 0 0 1.77414 -420.018 -868.895)"/><use xlink:href="#bS" transform="matrix(1.77414 0 0 1.77414 -420.018 -868.895)"/><use xlink:href="#bT" transform="matrix(1.77414 0 0 1.77414 -420.018 -868.895)"/><use xlink:href="#bU" transform="matrix(1.77414 0 0 1.77414 -420.018 -868.895)"/><use xlink:href="#bV" transform="matrix(1.77414 0 0 1.77414 -420.018 -868.895)"/><use xlink:href="#bW" transform="matrix(1.77414 0 0 1.77414 -420.018 -868.895)"/><use xlink:href="#bX" transform="matrix(1.77414 0 0 1.77414 -420.018 -868.895)"/><use xlink:href="#bY" transform="matrix(1.77414 0 0 1.77414 -420.018 -868.895)"/><use xlink:href="#bZ" transform="matrix(1.77414 0 0 1.77414 -420.018 -868.895)"/><use xlink:href="#ca" transform="matrix(1.77414 0 0 1.77414 -420.018 -868.895)"/><use xlink:href="#cb" transform="matrix(1.77414 0 0 1.77414 -420.018 -868.895)"/><use xlink:href="#cc" transform="matrix(1.77414 0 0 1.77414 -420.018 -868.895)"/><use xlink:href="#cd" transform="matrix(1.77414 0 0 1.77414 -420.018 -868.895)"/><use xlink:href="#ce" transform="matrix(1.77414 0 0 1.77414 -420.018 -868.895)"/><use xlink:href="#cf" transform="matrix(1.77414 0 0 1.77414 -420.018 -868.895)"/><use xlink:href="#cg" transform="matrix(1.77414 0 0 1.77414 -420.018 -868.895)"/><use xlink:href="#ch" transform="matrix(1.77414 0 0 1.77414 -420.018 -868.895)"/><use xlink:href="#ci" transform="matrix(1.77414 0 0 1.77414 -420.018 -868.895)"/><use xlink:href="#cj" transform="matrix(1.77414 0 0 1.77414 -420.018 -868.895)"/><use xlink:href="#ck" transform="matrix(1.77414 0 0 1.77414 -420.018 -868.895)"/><use xlink:href="#cl" transform="matrix(1.77414 0 0 1.77414 -420.018 -868.895)"/><use xlink:href="#cm" transform="matrix(1.77414 0 0 1.77414 -420.018 -868.895)"/><use xlink:href="#cn" transform="matrix(1.77414 0 0 1.77414 -420.018 -868.895)"/><use xlink:href="#co" transform="matrix(1.77414 0 0 1.77414 -420.018 -868.895)"/><use xlink:href="#cp" transform="matrix(1.77414 0 0 1.77414 -420.018 -868.895)"/><use xlink:href="#cq" transform="matrix(1.77414 0 0 1.77414 -420.018 -868.895)"/><use xlink:href="#cr" transform="matrix(1.77414 0 0 1.77414 -420.018 -868.895)"/><use xlink:href="#cs" transform="matrix(1.77414 0 0 1.77414 -420.018 -868.895)"/></svg>