<svg xmlns="http://www.w3.org/2000/svg" xmlns:xlink="http://www.w3.org/1999/xlink" preserveAspectRatio="none" width="284" height="320"><defs><linearGradient id="a" gradientUnits="userSpaceOnUse" x1="145.45" y1="321.65" x2="113.85" y2="321.65" spreadMethod="pad"><stop offset="0%" stop-color="#E6AC1B"/><stop offset="100%" stop-color="#F8D723"/></linearGradient><linearGradient id="b" gradientUnits="userSpaceOnUse" x1="133.688" y1="292.275" x2="124.313" y2="297.925" spreadMethod="pad"><stop offset="0%" stop-color="#E6AC1B"/><stop offset="100%" stop-color="#F8D723"/></linearGradient><linearGradient id="c" gradientUnits="userSpaceOnUse" x1="133.138" y1="296.45" x2="126.163" y2="292.25" spreadMethod="pad"><stop offset="0%" stop-color="#DD9817"/><stop offset="100%" stop-color="#F8D723"/></linearGradient><linearGradient id="d" gradientUnits="userSpaceOnUse" x1="132.475" y1="238.1" x2="120.625" y2="238.1" spreadMethod="pad"><stop offset="0%" stop-color="#E6AC1B"/><stop offset="100%" stop-color="#F8D723"/></linearGradient><linearGradient id="e" gradientUnits="userSpaceOnUse" x1="124.5" y1="276.85" x2="133.5" y2="276.85" spreadMethod="pad"><stop offset="0%" stop-color="#E6AC1B"/><stop offset="100%" stop-color="#CA7410"/></linearGradient><linearGradient id="f" gradientUnits="userSpaceOnUse" x1="123.962" y1="248.537" x2="123.237" y2="269.363" spreadMethod="pad"><stop offset="0%" stop-color="#F7EB79"/><stop offset="100%" stop-color="#FFF"/></linearGradient><linearGradient id="g" gradientUnits="userSpaceOnUse" x1="126.25" y1="292.838" x2="123.85" y2="291.262" spreadMethod="pad"><stop offset="0%" stop-color="#F7EB79"/><stop offset="100%" stop-color="#FFF"/></linearGradient><linearGradient id="h" gradientUnits="userSpaceOnUse" x1="111.65" y1="337.538" x2="111.65" y2="315.063" spreadMethod="pad"><stop offset="0%" stop-color="#F7EB79"/><stop offset="100%" stop-color="#FFF"/></linearGradient><linearGradient id="i" gradientUnits="userSpaceOnUse" x1="132.988" y1="182.55" x2="125.013" y2="187.15" spreadMethod="pad"><stop offset="0%" stop-color="#F8D723"/><stop offset="100%" stop-color="#F7E560"/></linearGradient><linearGradient id="j" gradientUnits="userSpaceOnUse" x1="131.988" y1="185.662" x2="126.113" y2="182.138" spreadMethod="pad"><stop offset="0%" stop-color="#EFC21F"/><stop offset="100%" stop-color="#F7E148"/></linearGradient><linearGradient id="k" gradientUnits="userSpaceOnUse" x1="126.813" y1="182.95" x2="124.787" y2="181.65" spreadMethod="pad"><stop offset="0%" stop-color="#F8F5A8"/><stop offset="100%" stop-color="#FFF"/></linearGradient><linearGradient id="l" gradientUnits="userSpaceOnUse" x1="56.513" y1="303.15" x2="88.487" y2="303.15" spreadMethod="pad"><stop offset="0%" stop-color="#F8D723"/><stop offset="100%" stop-color="#D48614"/></linearGradient><linearGradient id="m" gradientUnits="userSpaceOnUse" x1="86.838" y1="316.762" x2="98.662" y2="298.537" spreadMethod="pad"><stop offset="0%" stop-color="#DD9817"/><stop offset="100%" stop-color="#EFC21F"/></linearGradient><linearGradient id="n" gradientUnits="userSpaceOnUse" x1="78.45" y1="281.525" x2="78.45" y2="297.275" spreadMethod="pad"><stop offset="0%" stop-color="#F7DB31"/><stop offset="100%" stop-color="#FBFFD7"/></linearGradient><linearGradient id="o" gradientUnits="userSpaceOnUse" x1="70.475" y1="288.1" x2="101.925" y2="288.1" spreadMethod="pad"><stop offset="0%" stop-color="#CA7410"/><stop offset="100%" stop-color="#E6AC1B"/></linearGradient><linearGradient id="p" gradientUnits="userSpaceOnUse" x1="158.512" y1="303.15" x2="190.488" y2="303.15" spreadMethod="pad"><stop offset="0%" stop-color="#F8D723"/><stop offset="100%" stop-color="#D48614"/></linearGradient><linearGradient id="q" gradientUnits="userSpaceOnUse" x1="188.838" y1="316.762" x2="200.662" y2="298.537" spreadMethod="pad"><stop offset="0%" stop-color="#DD9817"/><stop offset="100%" stop-color="#EFC21F"/></linearGradient><linearGradient id="r" gradientUnits="userSpaceOnUse" x1="180.45" y1="281.525" x2="180.45" y2="297.275" spreadMethod="pad"><stop offset="0%" stop-color="#F7DB31"/><stop offset="100%" stop-color="#FBFFD7"/></linearGradient><linearGradient id="s" gradientUnits="userSpaceOnUse" x1="172.475" y1="288.1" x2="203.925" y2="288.1" spreadMethod="pad"><stop offset="0%" stop-color="#CA7410"/><stop offset="100%" stop-color="#E6AC1B"/></linearGradient><linearGradient id="t" gradientUnits="userSpaceOnUse" x1="62.463" y1="213.1" x2="195.138" y2="213.1" spreadMethod="pad"><stop offset="0%" stop-color="#EFC21F"/><stop offset="18.824%" stop-color="#DD9817"/><stop offset="49.804%" stop-color="#DD9817"/><stop offset="78.824%" stop-color="#DD9817"/><stop offset="100%" stop-color="#EFC21F"/></linearGradient><linearGradient id="u" gradientUnits="userSpaceOnUse" x1="62.487" y1="210.5" x2="195.212" y2="210.5" spreadMethod="pad"><stop offset="0%" stop-color="#F8D723"/><stop offset="18.824%" stop-color="#E6AC1B"/><stop offset="49.804%" stop-color="#F7DB31"/><stop offset="78.824%" stop-color="#E6AC1B"/><stop offset="100%" stop-color="#F8D723"/></linearGradient><linearGradient id="v" gradientUnits="userSpaceOnUse" x1="131.662" y1="208.375" x2="126.737" y2="211.225" spreadMethod="pad"><stop offset="0%" stop-color="#EFC21F"/><stop offset="100%" stop-color="#F7E148"/></linearGradient><linearGradient id="w" gradientUnits="userSpaceOnUse" x1="130.662" y1="210.188" x2="127.037" y2="208.012" spreadMethod="pad"><stop offset="0%" stop-color="#E6AC1B"/><stop offset="100%" stop-color="#F8D723"/></linearGradient><linearGradient id="x" gradientUnits="userSpaceOnUse" x1="128.262" y1="208.813" x2="126.837" y2="207.887" spreadMethod="pad"><stop offset="0%" stop-color="#F7EB79"/><stop offset="100%" stop-color="#FFF"/></linearGradient><linearGradient id="y" gradientUnits="userSpaceOnUse" x1="126.5" y1="284.6" x2="135.9" y2="284.6" spreadMethod="pad"><stop offset="0%" stop-color="#EFC21F"/><stop offset="100%" stop-color="#CA7410"/></linearGradient><linearGradient id="z" gradientUnits="userSpaceOnUse" x1="132.45" y1="283.8" x2="126.65" y2="283.8" spreadMethod="pad"><stop offset="0%" stop-color="#E6AC1B"/><stop offset="100%" stop-color="#F8D723"/></linearGradient><linearGradient id="A" gradientUnits="userSpaceOnUse" x1="128.463" y1="283.5" x2="124.638" y2="283.5" spreadMethod="pad"><stop offset="0%" stop-color="#F7EB79"/><stop offset="100%" stop-color="#FFF"/></linearGradient><linearGradient id="B" gradientUnits="userSpaceOnUse" x1="126.5" y1="305" x2="135.9" y2="305" spreadMethod="pad"><stop offset="0%" stop-color="#EFC21F"/><stop offset="100%" stop-color="#CA7410"/></linearGradient><linearGradient id="C" gradientUnits="userSpaceOnUse" x1="132.45" y1="304.2" x2="126.65" y2="304.2" spreadMethod="pad"><stop offset="0%" stop-color="#E6AC1B"/><stop offset="100%" stop-color="#F8D723"/></linearGradient><linearGradient id="D" gradientUnits="userSpaceOnUse" x1="128.463" y1="303.95" x2="124.638" y2="303.95" spreadMethod="pad"><stop offset="0%" stop-color="#F7EB79"/><stop offset="100%" stop-color="#FFF"/></linearGradient><linearGradient id="E" gradientUnits="userSpaceOnUse" x1="123.463" y1="193.35" x2="135.037" y2="193.35" spreadMethod="pad"><stop offset="0%" stop-color="#EFC21F"/><stop offset="100%" stop-color="#CA7410"/></linearGradient><linearGradient id="F" gradientUnits="userSpaceOnUse" x1="132.45" y1="192.55" x2="126.65" y2="192.55" spreadMethod="pad"><stop offset="0%" stop-color="#EFC21F"/><stop offset="100%" stop-color="#F7DB31"/></linearGradient><linearGradient id="G" gradientUnits="userSpaceOnUse" x1="128.463" y1="192.3" x2="124.438" y2="192.3" spreadMethod="pad"><stop offset="0%" stop-color="#F7EB79"/><stop offset="100%" stop-color="#FFF"/></linearGradient><linearGradient id="H" gradientUnits="userSpaceOnUse" x1="110.487" y1="338.45" x2="163.713" y2="338.45" spreadMethod="pad"><stop offset="0%" stop-color="#EFC21F"/><stop offset="100%" stop-color="#CA7410"/></linearGradient><linearGradient id="I" gradientUnits="userSpaceOnUse" x1="78.45" y1="215.512" x2="78.45" y2="222.887" spreadMethod="pad"><stop offset="0%" stop-color="#F7EB79"/><stop offset="100%" stop-color="#EFC21F"/></linearGradient><linearGradient id="J" gradientUnits="userSpaceOnUse" x1="180.55" y1="215.512" x2="180.55" y2="222.887" spreadMethod="pad"><stop offset="0%" stop-color="#F7EB79"/><stop offset="100%" stop-color="#EFC21F"/></linearGradient><path fill="#FFF" fill-opacity="0" d="M284 320V0H0v320h284z" id="K"/><path fill="url(#a)" d="M133.95 303.15l-4.5.8-4.5-.8q-1.25 7.25-6.5 11.2-3.1 2.3-10.65 4.95-7.2 2.55-9.9 4.9-4.4 3.75-4.4 10.95v.05q0 2.05 10.55 3.45 10.6 1.45 25.4 1.45 14.85 0 25.4-1.45 10.5-1.4 10.5-3.45v-.05q0-7.2-4.35-10.95-2.7-2.35-9.9-4.9-7.55-2.65-10.6-4.95-5.25-3.95-6.55-11.2z" id="L"/><path fill="#EFC21F" d="M131.6 303.7q1.25 8.1 5.5 12.45 2.55 2.65 8.55 5.45 5.85 2.75 8 5.15 3.6 3.95 3.85 11.5 7.85-1.45 7.85-3.05v-.05q0-7.2-4.35-10.95-2.7-2.35-9.9-4.9-7.55-2.65-10.6-4.95-5.25-3.95-6.55-11.2l-3.3.6.95-.05z" id="M"/><path fill="url(#b)" d="M129.45 286.25q-3.55 0-6.05 2.5-2.55 2.5-2.55 6.05t2.55 6.05q2.55 2.55 6.05 2.55 3.55 0 6.05-2.55 2.5-2.5 2.5-6.05t-2.5-6.05q-2.5-2.5-6.05-2.5z" id="N"/><path fill="url(#c)" d="M129.45 286.25q-3.55 0-6.05 2.5-2.55 2.5-2.55 6.05 0 2.05 1.1 4.1 2.4 2.05 5.3 2.05 3.35 0 5.75-2.4t2.4-5.75q0-3.45-2.6-5.9-1.45-.65-3.35-.65z" id="O"/><path fill="url(#d)" d="M133.95 192.85h-9q0 20.65-.45 30.15-.85 17.45-3.7 29.9-1.7 7.65-1.95 11.1-.45 6.15 1.8 10.15.85 1.5 2.9 4.45 1.6 2.65 1.4 4.7h9q-.2-2.05 1.4-4.7 2.05-2.95 2.85-4.45 2.3-4 1.9-10.15-.25-3.55-1.95-11.1-2.85-12.45-3.75-29.9-.45-9.5-.45-30.15z" id="P"/><path fill="#EFC21F" d="M133.95 191.35l-2.65 3.9q-.1 33.4 3.25 59.6 1 7.75 1.1 9.5.2 5.2-1.35 9.45-.45 1.35-1.55 4.3-.95 2.8-1.5 5.2h2.7q-.2-2.05 1.4-4.7 2.05-2.95 2.85-4.45 2.3-4 1.9-10.15-.25-3.55-1.95-11.1-2.8-12.1-3.7-30.45-.5-10.45-.5-31.1z" id="Q"/><path fill="url(#e)" d="M119.2 270.4q.6 2.25 1.45 3.75t2.9 4.45q1.6 2.65 1.4 4.7h9q-.2-2.05 1.4-4.7 2.05-2.95 2.85-4.45.9-1.55 1.45-3.5-2.2 4-10.35 3.95-8.1-.1-10.1-4.2z" id="R"/><path fill="#DD9817" d="M139.15 272.2l.05-.2v-.1l.25-.5v-.1l.1-.55q-1.304 2.178-5.3 3.25-.45 1.35-1.55 4.25-.9 2.65-1.45 5.05h2.7q-.2-2.05 1.4-4.7 2.05-2.95 2.85-4.45l.1-.05.05-.15.1-.1v-.05l.1-.3q.1-.05.1-.15v-.05h.05v-.15l.1-.05.05-.15v-.15h.1v-.15l.05-.1v-.05l.1-.05v-.15h.05v-.1z" id="S"/><path fill="url(#f)" d="M126.35 233.2q-.5 3.65-2.45 14.1-2.2 11.55-2.9 16-.75 5.2 1.75 5.75 1.1.3 1.95-.35 1.2-.9 1.2-3.4l.15-16.35q.1-9.75.3-15.75z" id="T"/><path fill="url(#g)" d="M126.9 289.8q-.5-.45-1.4-.05-.9.4-1.6 1.4-.75 1-.9 2-.1 1 .45 1.4.55.4 1.45-.05.9-.45 1.6-1.4.75-.95.85-1.95.1-.95-.45-1.35z" id="U"/><path fill="url(#h)" d="M112.95 328.5q5.45-4.55 7.95-7.25 4.3-4.75 4.3-11.75-1.2 4.4-4.8 7.35-2.8 2.3-8.2 4.55-7.6 3-10.15 5.6-3.4 3.4-3.95 10.6 3.85.95 10.8 1.65 0-3.1 1.2-6.1 1.1-2.65 2.85-4.65z" id="V"/><path fill="url(#i)" d="M124.35 189.7q2.1 2.1 5.1 2.1 2.95 0 5.1-2.1 2.1-2.15 2.1-5.1 0-2.95-2.1-5.1-2.15-2.1-5.1-2.1-3 0-5.1 2.1-2.1 2.15-2.1 5.1 0 2.95 2.1 5.1z" id="W"/><path fill="url(#j)" d="M129.45 177.4q-3 0-5.1 2.1-2.1 2.15-2.1 5.1 0 1.8.9 3.45 1.8 1.7 4.5 1.7 2.8 0 4.75-2 2-2 2-4.8 0-3-2.1-5-1.35-.55-2.85-.55z" id="X"/><path fill="url(#k)" d="M127.35 180.35q-.5-.35-1.25 0t-1.35 1.2q-.6.85-.7 1.65-.15.85.35 1.15.4.35 1.15 0 .8-.35 1.45-1.2.55-.8.65-1.65.1-.85-.3-1.15z" id="Y"/><path fill="#F7EB79" d="M80.95 262.05q0-1-.75-1.75t-1.75-.75q-1 0-1.75.75t-.75 1.75v2.15q0 1.1.75 1.8.75.75 1.75.75 1.05 0 1.75-.75.75-.7.75-1.8v-2.15m-1.7-.5q.3.3.3.75v1.7q0 .45-.3.8-.35.3-.8.3-.45 0-.75-.3-.35-.35-.35-.8v-1.7q0-.45.35-.75.3-.3.75-.3t.8.3z" id="Z"/><path fill="#F7EB79" d="M79.95 265.6q-.7-.05-.65-.85l-.8.7-.9-.7q.05.8-.65.85-.62.095-.85-.45.58 1.6 2.35 1.6 1.8 0 2.4-1.65-.25.6-.9.5z" id="aa"/><path fill="#F7EB79" d="M76.1 261.2q.23-.548.85-.5.7.05.65.85l.9-.7.8.7q-.05-.8.65-.85.65-.05.9.55-.6-1.7-2.4-1.7-1.77 0-2.35 1.65z" id="ab"/><path fill="#F7EB79" d="M78.45 276.3q-1 0-1.75.75t-.75 1.8V281q0 1 .75 1.75t1.75.75q1 0 1.75-.75t.75-1.75v-2.15q0-1.05-.75-1.8-.7-.75-1.75-.75m0 1.65q.45 0 .8.35.3.35.3.75v1.75q0 .4-.3.7-.35.3-.8.3-.45 0-.75-.3-.35-.3-.35-.7v-1.75q0-.4.35-.75.3-.35.75-.35z" id="ac"/><path fill="#F7EB79" d="M76.1 281.85q.591 1.7 2.35 1.7 1.8 0 2.4-1.75-.25.65-.9.6-.7-.1-.65-.9l-.8.7-.9-.7q.05.8-.65.9-.61.047-.85-.55z" id="ad"/><path fill="#F7EB79" d="M78.5 277.6l.8.75q-.05-.8.65-.9.65-.05.9.5-.6-1.65-2.4-1.65-1.8 0-2.35 1.65.2-.55.85-.5.7.1.65.9l.9-.75z" id="ae"/><path fill="#F7EB79" d="M76.7 268.65q-.75.75-.75 1.75v2.25q0 1 .75 1.75t1.75.75q1 0 1.75-.75t.75-1.75v-2.25q0-1-.75-1.75-.75-.7-1.75-.7t-1.75.7m.65 2.05q0-.4.35-.75.3-.35.75-.35t.8.35q.3.35.3.75v1.65q0 .45-.3.8-.35.3-.8.3-.45 0-.75-.3-.35-.35-.35-.8v-1.65z" id="af"/><path fill="#F7EB79" d="M78.5 269.2l.8.8q-.05-.8.65-.9.65-.05.9.5-.6-1.65-2.4-1.65-1.8 0-2.35 1.65.2-.55.85-.5.7.1.65.9l.9-.8z" id="ag"/><path fill="#F7EB79" d="M79.3 273.1l-.8.75-.9-.75q.05.8-.65.85-.62.095-.85-.45.58 1.6 2.35 1.6 1.8 0 2.4-1.65-.25.6-.9.5-.7-.05-.65-.85z" id="ah"/><path fill="#F7EB79" d="M78.45 251.2q-1.05 0-1.75.7-.75.75-.75 1.8v2.15q0 1.05.75 1.8t1.75.75q1 0 1.75-.75t.75-1.8v-2.15q0-1.05-.75-1.8-.7-.7-1.75-.7m0 1.65q.45 0 .8.3.3.35.3.75v1.75q0 .45-.3.75-.35.25-.8.25-1.1 0-1.1-1v-1.75q0-.4.35-.75.3-.3.75-.3z" id="ai"/><path fill="#F7EB79" d="M78.45 251.15q-1.775 0-2.35 1.65.225-.546.85-.45.7.05.65.85l.9-.7.8.7q-.05-.8.65-.85.65-.1.9.5-.6-1.7-2.4-1.7z" id="aj"/><path fill="#F7EB79" d="M76.1 256.7q.591 1.7 2.35 1.7 1.8 0 2.4-1.75-.25.65-.9.6-.7-.1-.65-.9l-.8.75-.9-.75q.05.8-.65.9-.61.047-.85-.55z" id="ak"/><path fill="#F7EB79" d="M78.45 242.85q-1 0-1.75.7t-.75 1.75v2.2q0 1.05.75 1.8t1.75.75q1 0 1.75-.75t.75-1.8v-2.2q0-1.05-.75-1.75-.7-.7-1.75-.7m-1.1 4.4v-1.7q0-.4.35-.75.3-.3.75-.3t.8.3q.3.35.3.75v1.7q0 .4-.3.75-.35.3-.8.3-.45 0-.75-.3-.35-.35-.35-.75z" id="al"/><path fill="#F7EB79" d="M79.3 247.95l-.8.8-.9-.8q.05.8-.65.9-.62.048-.85-.5.58 1.65 2.35 1.65 1.8 0 2.4-1.7-.25.6-.9.55-.7-.1-.65-.9z" id="am"/><path fill="#F7EB79" d="M78.45 242.8q-1.77 0-2.35 1.65.23-.548.85-.5.7.1.65.9l.9-.8.8.8q-.05-.8.65-.9.65-.05.9.55-.6-1.7-2.4-1.7z" id="an"/><path fill="#F7EB79" d="M78.45 226.05q-1 0-1.75.75t-.75 1.8v2.15q0 1 .75 1.75t1.75.75q1 0 1.75-.75t.75-1.75v-2.15q0-1.05-.75-1.8t-1.75-.75m0 1.65q.45 0 .8.35.3.3.3.75v1.7q0 .45-.3.75-.35.3-.8.3-.45 0-.75-.3-.35-.3-.35-.75v-1.7q0-.45.35-.75.3-.35.75-.35z" id="ao"/><path fill="#F7EB79" d="M76.1 231.55q.555 1.75 2.35 1.75 1.8 0 2.4-1.75-.25.6-.9.55-.7-.05-.65-.85l-.8.7-.9-.7q.05.8-.65.85-.645.05-.85-.55z" id="ap"/><path fill="#F7EB79" d="M78.45 226.05q-1.77 0-2.35 1.6.23-.545.85-.45.7.05.65.9l.9-.75.8.75q-.05-.85.65-.9.65-.1.9.5-.6-1.65-2.4-1.65z" id="aq"/><path fill="#F7EB79" d="M80.95 236.95q0-1.05-.75-1.8t-1.75-.75q-1 0-1.75.75t-.75 1.8v2.15q0 1.05.75 1.8.7.7 1.75.7t1.75-.7q.75-.75.75-1.8v-2.15m-1.7-.5q.3.25.3.7v1.75q0 .4-.3.75-.35.3-.8.3-.45 0-.75-.3-.35-.35-.35-.75v-1.75q0-1 1.1-1 .45 0 .8.3z" id="ar"/><path fill="#F7EB79" d="M76.15 236.05q.205-.546.8-.5.7.1.65.9l.9-.75.8.75q-.05-.8.65-.9.65-.05.9.6-.6-1.7-2.4-1.7-1.743 0-2.3 1.6z" id="as"/><path fill="#F7EB79" d="M79.95 240.5q-.7-.1-.65-.9l-.8.7-.9-.7q.05.8-.65.9-.62.048-.85-.5.58 1.65 2.35 1.65 1.8 0 2.4-1.7-.25.6-.9.55z" id="at"/><path fill="#F7EB79" d="M80.95 287.2q0-1.05-.75-1.8t-1.75-.75q-1 0-1.75.75t-.75 1.8v2.15q0 1.05.75 1.8.7.7 1.75.7t1.75-.7q.75-.75.75-1.8v-2.15m-1.7-.5q.3.3.3.7v1.75q0 .4-.3.75-.35.3-.8.3-.45 0-.75-.3-.35-.35-.35-.75v-1.75q0-.4.35-.7.3-.3.75-.3t.8.3z" id="au"/><path fill="#F7EB79" d="M78.5 285.95l.8.75q-.05-.8.65-.9.65-.05.9.6-.6-1.7-2.4-1.7-1.743 0-2.3 1.6.205-.546.8-.5.7.1.65.9l.9-.75z" id="av"/><path fill="#F7EB79" d="M79.95 290.75q-.7-.1-.65-.9l-.8.7-.9-.7q.05.8-.65.9-.62.048-.85-.5.58 1.65 2.35 1.65 1.8 0 2.4-1.7-.25.6-.9.55z" id="aw"/><path fill="#F7EB79" d="M78.45 293.1q-1 0-1.75.7t-.75 1.75v2.2q0 1.05.75 1.8t1.75.75q1 0 1.75-.75t.75-1.8v-2.2q0-1.05-.75-1.75-.7-.7-1.75-.7m0 1.65q.45 0 .8.35.3.3.3.75v1.65q0 .4-.3.75-.35.3-.8.3-.45 0-.75-.3-.35-.35-.35-.75v-1.65q0-.45.35-.75.3-.35.75-.35z" id="ax"/><path fill="#F7EB79" d="M79.3 298.2l-.8.8-.9-.8q.05.8-.65.9-.62.048-.85-.5.58 1.65 2.35 1.65 1.8 0 2.4-1.7-.25.6-.9.55-.7-.1-.65-.9z" id="ay"/><path fill="#F7EB79" d="M76.1 294.7q.225-.546.85-.45.7.05.65.85l.9-.8.8.8q-.05-.8.65-.85.65-.1.9.5-.6-1.7-2.4-1.7-1.775 0-2.35 1.65z" id="az"/><path fill="#F7EB79" d="M78.45 301.45q-1.05 0-1.75.7-.75.75-.75 1.8v2.2q0 1 .75 1.75t1.75.75q1 0 1.75-.75t.75-1.75v-2.2q0-1.05-.75-1.8-.7-.7-1.75-.7m1.1 2.75v1.7q0 .45-.3.75-.35.25-.8.25-1.1 0-1.1-1v-1.7q0-.45.35-.75.3-.35.75-.35t.8.35q.3.3.3.75z" id="aA"/><path fill="#F7EB79" d="M79.95 302.6q.65-.1.9.5-.6-1.7-2.4-1.7-1.775 0-2.35 1.65.225-.546.85-.45.7.05.65.85l.9-.7.8.7q-.05-.8.65-.85z" id="aB"/><path fill="#F7EB79" d="M76.1 306.95q.591 1.7 2.35 1.7 1.8 0 2.4-1.75-.25.65-.9.6-.7-.05-.65-.85l-.8.7-.9-.7q.05.8-.65.85-.61.047-.85-.55z" id="aC"/><path fill="#F8F5A8" d="M77.6 278.35q0 .85.85.85t.85-.85v-5.25q0-.9-.85-.9t-.85.9v5.25z" id="aD"/><path fill="#F8F5A8" d="M77.6 286.75q0 .85.85.85t.85-.85v-5.3q0-.35-.25-.6-.25-.3-.6-.3t-.6.3q-.25.25-.25.6v5.3z" id="aE"/><path fill="#F8F5A8" d="M77.6 270q0 .85.85.85t.85-.85v-5.25q0-.9-.85-.9t-.85.9V270z" id="aF"/><path fill="#F8F5A8" d="M77.85 262.25q.25.25.6.25t.6-.25q.25-.3.25-.6v-5.35q0-.85-.85-.85t-.85.85v5.35q0 .3.25.6z" id="aG"/><path fill="#F8F5A8" d="M77.6 253.2q0 .85.85.85t.85-.85v-5.25q0-.85-.85-.85t-.85.85v5.25z" id="aH"/><path fill="#F8F5A8" d="M77.6 244.85q0 .85.85.85t.85-.85v-5.25q0-.85-.85-.85t-.85.85v5.25z" id="aI"/><path fill="#F8F5A8" d="M77.6 236.5q0 .85.85.85t.85-.85v-5.35q0-.3-.25-.55-.25-.3-.6-.3t-.6.3q-.25.25-.25.55v5.35z" id="aJ"/><path fill="#F7EB79" d="M77.6 295.1q0 .85.85.85t.85-.85v-5.25q0-.85-.85-.85t-.85.85v5.25z" id="aK"/><path fill="#F7EB79" d="M77.6 303.45q0 .85.85.85t.85-.85v-5.25q0-.85-.85-.85t-.85.85v5.25z" id="aL"/><path fill="url(#l)" d="M56.9 309.15q9.2 8.35 21.55 8.35 12.35 0 21.55-8.35 9.15-8.25 10.5-20.4H46.4q1.35 12.15 10.5 20.4z" id="aM"/><path fill="#F7E560" d="M50.5 288.25h-1.8q1.45 11.3 9.55 19 8.1 7.7 18.85 7.9-4.25-.6-8.75-3.75-9.05-6.3-9.05-19.1l-8.8-4.05z" id="aN"/><path fill="url(#m)" d="M110.5 288.75h-2.1l-10.1 4.35q0 10.25-6.4 17.05-5.95 6.3-15.05 7.3l1.6.05q12.35 0 21.55-8.35 9.15-8.25 10.5-20.4z" id="aO"/><path fill="url(#n)" d="M110.4 288.65q0-3.8-9.35-6.5-9.4-2.75-22.6-2.75-13.2 0-22.6 2.75-9.35 2.7-9.35 6.5t9.35 6.5q9.35 2.7 22.6 2.7 13.25 0 22.6-2.7 9.35-2.7 9.35-6.5z" id="aP"/><path fill="url(#o)" d="M106.9 288.05q0-2.95-8.35-5.05-8.35-2.1-20.1-2.1-11.7 0-20.05 2.1-8.4 2.1-8.4 5.05 0 2.95 8.4 5.1 8.35 2.1 20.05 2.1 11.75 0 20.1-2.1 8.35-2.15 8.35-5.1z" id="aQ"/><path fill="#EFC21F" d="M67.5 263.85q.25-1-.25-1.85-.5-.9-1.45-1.15-1.05-.25-1.95.25-.9.45-1.15 1.45l-.6 2.2q-.25.95.25 1.85.55.95 1.55 1.2t1.85-.3q.9-.5 1.2-1.5l.55-2.15m-1.55-.85q.2.35.1.8l-.4 1.55q-.1.45-.5.7-.4.2-.8.1-.95-.25-.75-1.3l.45-1.65q.1-.4.5-.6.35-.2.8-.1.4.1.6.5z" id="aR"/><path fill="#E6AC1B" d="M65.5 262.05l.55.95q.2-.8.85-.7.6.15.7.75-.1-1.75-1.85-2.25-1.75-.45-2.7 1.05.4-.5 1-.3.6.25.35 1l1.1-.5z" id="aS"/><path fill="#E6AC1B" d="M65.25 266.1l-1 .5-.7-1q-.1.8-.75.7-.65-.15-.75-.8.1 1.8 1.85 2.3 1.7.45 2.75-1.05-.4.55-1.05.3-.65-.2-.35-.95z" id="aT"/><path fill="#EFC21F" d="M68.2 244.9q-.95.5-1.2 1.55l-.5 2.05q-.25 1.05.25 1.95.5.9 1.5 1.15 1 .3 1.9-.2.9-.55 1.15-1.6l.6-2.05q.25-1.05-.3-1.95-.5-.9-1.5-1.15-1-.25-1.9.25m.65 1.5q.4-.2.8-.1 1 .25.75 1.3l-.45 1.65q-.1.4-.5.6-.35.2-.8.1-.4-.1-.6-.5-.2-.35-.1-.8l.4-1.65q.1-.4.5-.6z" id="aU"/><path fill="#E6AC1B" d="M69.8 245.85l.6.95q.15-.8.8-.65.65.1.7.7-.1-1.75-1.85-2.2-1.7-.45-2.7 1 .4-.5 1-.3.65.25.4 1l1.05-.5z" id="aV"/><path fill="#E6AC1B" d="M69.6 249.9l-1 .5-.65-.95q-.2.8-.85.7-.65-.15-.75-.85.1 1.85 1.85 2.3 1.75.45 2.75-1.05-.4.55-1.05.3-.6-.2-.3-.95z" id="aW"/><path fill="#EFC21F" d="M67.95 252.75q-1.05-.25-1.95.25-.9.5-1.15 1.5l-.6 2.15q-.25.95.3 1.85.5.9 1.5 1.2 1 .25 1.9-.25.95-.55 1.2-1.5l.5-2.15q.3-1-.2-1.9-.55-.9-1.5-1.15m-.45 1.6q.95.25.75 1.3l-.45 1.65q-.25.95-1.3.75-.45-.1-.65-.5-.15-.35-.05-.8l.4-1.6q.1-.45.5-.7.4-.2.8-.1z" id="aX"/><path fill="#E6AC1B" d="M67.45 257.95l-1 .5-.75-.95q-.1.85-.75.75-.6-.15-.75-.8.1 1.8 1.85 2.25 1.75.45 2.75-1-.4.5-1.05.25-.6-.25-.3-1z" id="aY"/><path fill="#E6AC1B" d="M67.65 254l.6.95q.15-.8.8-.7.6.1.7.75-.1-1.75-1.85-2.25t-2.7 1.05q.4-.55 1-.35.65.2.35 1l1.1-.45z" id="aZ"/><path fill="#EFC21F" d="M63.6 268.9q-1-.25-1.9.25-.9.55-1.2 1.55l-.55 2.1q-.25 1 .25 1.9.55.9 1.55 1.2 1 .25 1.85-.25.9-.55 1.15-1.55l.6-2.1q.25-1-.25-1.9-.5-.95-1.5-1.2m-1.7 2.4q.1-.4.5-.65.35-.2.8-.1.4.1.6.5.2.4.1.8l-.4 1.65q-.25.95-1.3.75-.45-.1-.65-.5-.25-.4-.1-.8l.45-1.65z" id="ba"/><path fill="#E6AC1B" d="M63.1 274.15l-1 .5-.7-.9q-.2.75-.85.65-.6-.1-.7-.75.1 1.8 1.85 2.25 1.75.45 2.8-1-.4.5-1.05.25-.65-.2-.35-1z" id="bb"/><path fill="#E6AC1B" d="M60.9 269.95q.378-.49.95-.3.65.25.4 1l1.1-.45.55.85q.15-.75.8-.65.65.15.7.8-.1-1.85-1.8-2.3-1.672-.443-2.7 1.05z" id="bc"/><path fill="#EFC21F" d="M58.05 282.8q.5.9 1.55 1.15.95.25 1.85-.25.9-.5 1.15-1.5l.6-2.15q.25-.95-.25-1.85-.5-.9-1.5-1.15-1-.25-1.9.25-.95.5-1.2 1.45l-.55 2.15q-.25 1 .25 1.9m1.95-.45q-.4-.15-.65-.55-.2-.35-.1-.75l.5-1.65q.05-.4.45-.65.35-.25.75-.15.45.1.7.5.2.4.1.8l-.45 1.65q-.1.45-.5.7-.35.2-.8.1z" id="bd"/><path fill="#E6AC1B" d="M61.1 278.25l.65.95q.15-.8.8-.7.65.15.7.75-.1-1.75-1.85-2.25-1.75-.45-2.7 1.05.35-.5 1-.3.65.25.4 1l1-.5z" id="be"/><path fill="#E6AC1B" d="M57.7 281.7q.1 1.8 1.85 2.3 1.729.445 2.65-1.05-.321.542-.95.3-.6-.25-.3-1.05l-1 .55-.7-.95q-.15.8-.85.7-.6-.15-.7-.8z" id="bf"/><path fill="#EFC21F" d="M55.2 293.45q-.9.5-1.15 1.5l-.6 2.1q-.25 1 .25 1.95.5.9 1.5 1.15 1 .25 1.95-.25.9-.55 1.15-1.55l.55-2.1q.3-1-.2-1.9-.55-.95-1.6-1.2-.95-.25-1.85.3m2.1 1.85q.25.4.15.8l-.55 1.65q-.05.45-.45.65-.35.2-.75.1-.45-.1-.7-.5-.2-.4-.1-.8l.45-1.65q.1-.4.5-.6.35-.2.8-.15.4.1.65.5z" id="bg"/><path fill="#E6AC1B" d="M56.8 294.45l.65.95q.05-.8.75-.7.65.05.75.75-.1-1.75-1.85-2.25-1.75-.45-2.75 1.05.4-.55 1.05-.35.6.2.3 1l1.1-.45z" id="bh"/><path fill="#E6AC1B" d="M56.55 298.4l-.9.15-.75-.55q-.15.8-.8.7-.65-.15-.7-.8.1 1.8 1.85 2.25 1.7.45 2.7-1-.4.55-1 .3-.65-.25-.4-1.05z" id="bi"/><path fill="#EFC21F" d="M57.35 285.35q-.9.55-1.15 1.55l-.55 2.1q-.3 1 .25 1.95.5.9 1.55 1.15.95.25 1.85-.25.9-.55 1.15-1.55l.6-2.1q.25-1-.25-1.9-.55-.95-1.55-1.2t-1.9.25m1.45 1.4q.4.1.65.5t.15.8l-.45 1.65q-.15.4-.55.6-.35.25-.75.15t-.65-.5q-.25-.4-.15-.8l.45-1.65q.1-.45.5-.65t.8-.1z" id="bj"/><path fill="#E6AC1B" d="M57.05 289.85q-.15.8-.8.7-.6-.15-.7-.75.1 1.75 1.85 2.25 1.728.444 2.65-1-.323.493-.95.3-.65-.2-.4-1l-.9.5-.75-1z" id="bk"/><path fill="#E6AC1B" d="M59.6 287.25q.15-.8.8-.7.65.15.7.8-.1-1.8-1.85-2.25-1.64-.434-2.65.9.363-.426.95-.2.6.25.3 1.05l1.1-.55.65.95z" id="bl"/><path fill="#EFC21F" d="M70.35 236.8q-.9.55-1.1 1.5l-.6 2.15q-.25 1 .25 1.9.55.9 1.5 1.15 1 .25 1.9-.25.9-.5 1.2-1.5l.55-2.15q.25-1-.25-1.85-.5-.9-1.55-1.2-1-.25-1.9.25m.45 5.1q-.4-.1-.6-.5-.2-.35-.1-.8l.45-1.65q.1-.45.5-.65.35-.25.8-.05.4.05.6.45.2.35.1.75l-.45 1.65q-.1.45-.5.7-.35.2-.8.1z" id="bm"/><path fill="#E6AC1B" d="M71.75 241.75l-1 .5-.65-.95q-.15.85-.8.75-.65-.15-.7-.8.05 1.8 1.8 2.3 1.75.45 2.7-1.05-.4.55-1 .3-.6-.25-.35-1.05z" id="bn"/><path fill="#E6AC1B" d="M71.95 237.8l.6.95q.15-.8.8-.7.7.1.8.75-.1-1.75-1.9-2.25-1.8-.5-2.75 1.05.45-.5 1.05-.3.65.2.35 1l1.05-.5z" id="bo"/><path fill="#EFC21F" d="M74.4 228.45q-.95-.25-1.85.3-.9.5-1.15 1.5l-.6 2.05q-.25 1.05.25 1.95.5.9 1.5 1.15 1 .3 1.95-.2.9-.55 1.15-1.6l.55-2.05q.3-1-.2-1.9-.55-.95-1.6-1.2m.25 2.15q.2.35.05.8l-.45 1.65q-.05.4-.45.6-.4.2-.8.1t-.6-.5q-.25-.35-.15-.8l.45-1.55q.1-.45.5-.7.35-.2.8-.1.45.1.65.5z" id="bp"/><path fill="#E6AC1B" d="M74.15 229.75l.65.9q.05-.8.75-.7.65.15.75.8-.1-1.8-1.85-2.25-1.75-.5-2.75 1 .4-.5 1.05-.3.6.2.3.95l1.1-.4z" id="bq"/><path fill="#E6AC1B" d="M73.9 233.7l-1 .5-.65-.95q-.15.8-.8.7-.65-.1-.7-.75.1 1.75 1.85 2.2 1.7.45 2.7-1-.4.5-1 .3-.65-.25-.4-1z" id="br"/><path fill="#EFC21F" d="M76.6 220.35q-1-.25-1.9.25-.9.55-1.15 1.55l-.55 2.1q-.3 1.05.2 1.95.5.9 1.5 1.15 1.05.25 1.95-.25.9-.55 1.15-1.55l.6-2.1q.25-1-.25-1.9-.55-.9-1.55-1.2m-.45 1.7q.4.1.65.45.25.4.15.8l-.5 1.7q-.1.4-.5.6-.4.2-.75.1-.4-.1-.65-.5-.25-.35-.15-.8l.45-1.65q.25-.95 1.3-.7z" id="bs"/><path fill="#E6AC1B" d="M76.1 225.65l-1.05.5-.65-1q-.15.8-.8.7-.6-.1-.7-.8.1 1.8 1.85 2.3 1.75.45 2.7-1.05-.4.5-1 .3-.65-.2-.35-.95z" id="bt"/><path fill="#E6AC1B" d="M76.3 221.6l.65.95q.1-.8.75-.7.65.1.75.75-.1-1.75-1.85-2.2-1.75-.45-2.75 1 .4-.55 1.05-.3.6.2.3 1l1.1-.5z" id="bu"/><path fill="#F7E560" d="M69 248.8q-.35-.1-.7.1-.3.15-.35.5l-1.4 5.1q-.2.85.6 1.1.95.1 1.1-.65l1.35-5.15q.1-.3-.05-.6-.2-.3-.55-.4z" id="bv"/><path fill="#F7E560" d="M70.1 241.3l-1.35 5.05q-.1.4.05.7.15.35.5.4.35.1.7-.05.35-.2.4-.55l1.35-5.1q.1-.35-.05-.65-.2-.3-.5-.4-.85-.25-1.1.6z" id="bw"/><path fill="#F7E560" d="M66.8 256.9q-.35-.1-.65.05-.3.2-.35.55-.15.45-1.4 5.05-.25.8.6 1.1.75.25 1.05-.6l1.4-5.1q.1-.35-.1-.65-.15-.3-.55-.4z" id="bx"/><path fill="#F7E560" d="M64.65 264.95q-.85-.2-1.1.65l-1.3 5.1q-.1.35.1.65.15.3.5.35.75.25 1.05-.55.95-3.4 1.35-5.15.1-.3-.05-.6-.2-.35-.55-.45z" id="by"/><path fill="#F7E560" d="M60 278.75q-.1.8.65 1.1.35.1.65-.1.35-.15.45-.55l1.35-5.05q.1-.4-.1-.7-.2-.3-.55-.35-.3-.1-.6.05-.35.15-.45.5l-1.4 5.1z" id="bz"/><path fill="#F7E560" d="M59.25 281.8l-1.4 5.05q-.1.85.65 1.05.35.1.65-.05.35-.2.45-.5.5-2.1 1.35-5.15.1-.3-.1-.6-.2-.35-.55-.45-.35-.1-.65.1-.3.2-.4.55z" id="bA"/><path fill="#F7E560" d="M58.15 289.2q-.85-.1-1.1.65l-1.35 5.1q-.1.35.1.65.2.35.55.45.85.1 1.1-.65l1.35-5.1q.1-.85-.65-1.1z" id="bB"/><path fill="#F7E560" d="M73.35 232.6q-.8-.25-1.1.6l-1.35 5.1q-.25.85.65 1.1.3.1.65-.1.3-.2.35-.55l1.35-5.05q.25-.8-.55-1.1z" id="bC"/><path fill="#F7E560" d="M76.15 225.55q.05-.3-.15-.65-.2-.35-.5-.4-.85-.15-1.1.65l-1.35 5.1q-.1.3.1.6.2.35.55.45.35.1.65-.1.35-.2.45-.55l1.35-5.1z" id="bD"/><path fill="#EFC21F" d="M91.1 260.85q-.95.25-1.45 1.15-.5.9-.25 1.85l.55 2.15q.3 1 1.2 1.5.9.55 1.85.3 1-.25 1.55-1.2.5-.9.25-1.85l-.6-2.2q-.25-1-1.15-1.45-.9-.5-1.95-.25m-.25 2.95q-.1-.45.1-.8.2-.4.6-.5 1.05-.25 1.3.7l.5 1.65q.1.45-.1.8-.25.4-.7.5-.4.1-.8-.1-.4-.25-.5-.7l-.4-1.55z" id="bE"/><path fill="#E6AC1B" d="M89.3 263.05q.1-.6.7-.75.7-.1.85.7l.55-.95 1.1.5q-.25-.75.4-1 .618-.19.9.25-.928-1.443-2.65-1-1.75.5-1.85 2.25z" id="bF"/><path fill="#E6AC1B" d="M92.65 266.6l-1-.5q.3.75-.35.95-.562.234-.9-.25.988 1.44 2.65 1 1.7-.5 1.8-2.3-.05.65-.7.8-.65.1-.8-.7l-.7 1z" id="bG"/><path fill="#EFC21F" d="M89.9 246.45q-.25-1.05-1.15-1.55-.9-.5-1.95-.25-1 .25-1.5 1.15-.5.9-.2 1.95l.5 2.05q.25 1.05 1.2 1.6.9.5 1.9.2.95-.25 1.5-1.15.55-.9.3-1.95l-.6-2.05m-2.65-.15q.4-.1.8.1t.5.6l.4 1.65q.25 1.05-.7 1.3-.45.1-.8-.1-.4-.2-.5-.6l-.45-1.65q-.25-1.05.75-1.3z" id="bH"/><path fill="#E6AC1B" d="M86.5 246.8l.6-.95 1.05.5q-.25-.75.4-1 .6-.2 1 .3-1-1.45-2.7-1-1.75.45-1.85 2.2.1-.6.7-.7.65-.1.8.65z" id="bI"/><path fill="#E6AC1B" d="M88.3 250.4l-1-.5q.3.75-.3.95-.65.25-1.05-.3 1 1.5 2.75 1.05 1.75-.45 1.85-2.3-.1.7-.75.85-.65.1-.75-.7l-.75.95z" id="bJ"/><path fill="#EFC21F" d="M92.65 256.65l-.6-2.15q-.25-1-1.15-1.5-.9-.5-1.95-.25-.95.25-1.5 1.15-.5.9-.2 1.9l.55 2.15q.25 1 1.15 1.5.95.5 1.9.25 1-.3 1.55-1.2.5-.85.25-1.85m-3.85-1.8q.2-.4.6-.5.4-.1.8.1.4.25.5.7l.4 1.6q.1.45-.05.8-.2.4-.65.5-1.05.2-1.3-.75l-.4-1.65q-.1-.4.1-.8z" id="bK"/><path fill="#E6AC1B" d="M90.5 258.45l-1.05-.5q.3.75-.3 1-.65.25-1.05-.25 1 1.45 2.75 1 1.75-.45 1.85-2.25-.1.65-.75.8-.65.1-.75-.75l-.7.95z" id="bL"/><path fill="#E6AC1B" d="M88.7 254.95l.55-.95 1.1.45q-.3-.8.35-1 .6-.2 1 .35-.95-1.55-2.7-1.05-1.75.5-1.85 2.25.1-.65.7-.75.65-.1.85.7z" id="bM"/><path fill="#EFC21F" d="M95.2 269.15q-.9-.5-1.9-.25-1 .25-1.5 1.2-.5.9-.25 1.9l.6 2.1q.25 1 1.15 1.55.85.5 1.85.25 1-.3 1.55-1.2.5-.9.25-1.9l-.55-2.1q-.3-1-1.2-1.55m-.65 1.5q.35.25.45.65l.5 1.65q.1.4-.1.8-.25.4-.7.5-1.1.2-1.25-.75l-.45-1.65q-.1-.4.1-.8.25-.4.7-.5.4-.1.75.1z" id="bN"/><path fill="#E6AC1B" d="M97.05 273.65q-.1.65-.7.75-.65.1-.85-.65l-.7.9-.95-.5q.25.75-.4 1-.581.242-.95-.25 1.018 1.445 2.7 1 1.75-.45 1.85-2.25z" id="bO"/><path fill="#E6AC1B" d="M93 271.05l.65-.85 1.05.45q-.3-.75.35-1 .581-.194.9.3-.92-1.495-2.65-1.05-1.7.45-1.8 2.3.05-.65.7-.8.65-.1.8.65z" id="bP"/><path fill="#EFC21F" d="M95.5 277.05q-1 .25-1.55 1.15-.5.85-.25 1.85l.6 2.15q.25 1 1.15 1.5.9.5 1.85.25 1.05-.25 1.6-1.15.5-.9.2-1.9l-.55-2.15q-.25-.95-1.15-1.45-.9-.5-1.9-.25m-.25 2.05q.25-.4.7-.5.4-.1.8.15t.5.65l.45 1.65q.1.4-.15.75-.25.4-.65.55-.4.1-.75-.1-.4-.25-.55-.7l-.45-1.65q-.1-.4.1-.8z" id="bQ"/><path fill="#E6AC1B" d="M95.15 279.2l.65-.95 1.1.5q-.3-.75.3-1 .65-.2 1.05.3-1-1.5-2.75-1.05-1.75.5-1.85 2.25.05-.6.7-.75.65-.1.8.7z" id="bR"/><path fill="#E6AC1B" d="M96.95 282.75l-.95-.55q.3.8-.35 1.05-.6.25-1-.3 1 1.5 2.7 1.05 1.75-.5 1.85-2.3-.1.65-.7.8-.65.1-.8-.7l-.75.95z" id="bS"/><path fill="#E6AC1B" d="M102.85 294.95q-.25-1-1.15-1.5-.9-.55-1.85-.3-1.05.25-1.55 1.2-.5.9-.25 1.9l.55 2.1q.25 1 1.2 1.55.9.5 1.9.25 1-.25 1.5-1.15.5-.95.25-1.95l-.6-2.1m-3.3 1.15q-.15-.4.05-.8.25-.4.65-.5.45-.05.8.15.4.2.5.6l.45 1.65q.1.4-.1.8-.25.4-.65.5-.4.1-.8-.1t-.45-.65l-.45-1.65z" id="bT"/><path fill="#DD9817" d="M99.5 295.4l.7-.15 1-.35q-.3-.8.3-1 .65-.2 1.05.35-1-1.5-2.75-1.05-1.75.5-1.85 2.25.1-.7.8-.75.65-.1.75.7z" id="bU"/><path fill="#DD9817" d="M101.25 298.55l-.9-.15q.25.8-.35 1.05-.6.2-1.05-.3 1 1.45 2.7 1 1.75-.45 1.85-2.25-.05.65-.7.8-.65.1-.8-.7l-.75.55z" id="bV"/><path fill="#EFC21F" d="M100.7 286.9q-.25-1-1.15-1.55-.9-.5-1.85-.25-1.05.25-1.6 1.2-.5.9-.25 1.9l.6 2.1q.25 1 1.2 1.55.9.5 1.9.25 1-.25 1.5-1.15.5-.95.2-1.95l-.55-2.1m-3.25.35q.25-.4.65-.5 1.05-.25 1.3.75l.45 1.65q.1.4-.15.8t-.65.5q-.4.1-.75-.15-.4-.25-.5-.6l-.5-1.65q-.1-.4.15-.8z" id="bW"/><path fill="#E6AC1B" d="M99.2 290.85l-1-.5q.25.8-.4 1-.6.2-1-.35.95 1.5 2.7 1.05 1.75-.5 1.85-2.25-.1.6-.7.75-.65.1-.8-.7l-.65 1z" id="bX"/><path fill="#E6AC1B" d="M97.3 287.25l.65-.95 1.1.55q-.3-.8.3-1.05.65-.25 1.05.3-1-1.45-2.75-1-1.75.45-1.85 2.25.1-.65.75-.8.65-.1.75.7z" id="bY"/><path fill="#EFC21F" d="M87.75 238.3q-.25-1-1.15-1.5-.95-.5-1.95-.25-.95.3-1.5 1.2-.5.9-.3 1.85l.55 2.15q.3 1 1.2 1.5.9.5 1.9.25 1-.25 1.5-1.15.5-.9.25-1.9l-.5-2.15m-1.4.65l.45 1.65q.25 1.05-.7 1.3-.45.1-.8-.1-.4-.25-.5-.7l-.45-1.65q-.1-.4.1-.75.2-.4.65-.45.4-.2.8.05.4.2.45.65z" id="bZ"/><path fill="#E6AC1B" d="M86.15 242.25l-1-.5q.3.8-.3 1.05-.65.25-1.05-.3 1 1.5 2.75 1.05 1.75-.5 1.85-2.3-.1.65-.8.8-.65.1-.8-.75l-.65.95z" id="ca"/><path fill="#E6AC1B" d="M84.35 238.75l.6-.95 1.05.5q-.25-.8.35-1 .6-.2 1.05.3-.95-1.55-2.7-1.05-1.75.5-1.85 2.25.05-.65.7-.75.65-.1.8.7z" id="cb"/><path fill="#EFC21F" d="M84.4 228.75q-.95-.55-1.9-.3-1.05.25-1.55 1.2-.55.9-.25 1.9l.55 2.05q.25 1.05 1.2 1.6.9.5 1.9.2 1-.25 1.5-1.15.5-.9.25-1.95l-.6-2.05q-.2-1-1.1-1.5m-.7 1.45q.4.25.5.7l.45 1.55q.1.45-.1.8-.25.4-.65.5-.4.1-.8-.1-.35-.2-.45-.6l-.45-1.65q-.1-.45.1-.8.2-.4.6-.5.45-.1.8.1z" id="cc"/><path fill="#E6AC1B" d="M82.2 230.65l.55-.9 1.1.4q-.3-.75.3-.95.65-.2 1.05.3-.95-1.5-2.75-1-1.75.45-1.85 2.25.1-.65.8-.8.65-.1.8.7z" id="cd"/><path fill="#E6AC1B" d="M84 234.2l-1-.5q.25.75-.4 1-.6.2-1-.3 1 1.45 2.75 1 1.8-.45 1.9-2.2-.1.65-.8.75-.65.1-.8-.7l-.65.95z" id="ce"/><path fill="#EFC21F" d="M83.35 222.15q-.25-1-1.15-1.55-.9-.5-1.9-.25-1 .3-1.55 1.2-.5.9-.25 1.9l.6 2.1q.25 1 1.2 1.55.9.5 1.9.25 1-.25 1.5-1.15.5-.9.2-1.95l-.55-2.1m-1 3.05q-.2.4-.6.5-.4.1-.8-.1t-.5-.6l-.4-1.7q-.2-.4.05-.8.25-.35.65-.45 1.05-.25 1.3.7l.45 1.65q.1.45-.15.8z" id="cf"/><path fill="#E6AC1B" d="M82.5 225.15l-.65 1-1-.5q.25.75-.4.95-.6.2-1-.3 1 1.5 2.7 1.05 1.75-.5 1.85-2.3-.1.7-.7.8-.65.1-.8-.7z" id="cg"/><path fill="#E6AC1B" d="M81.7 222.1q-.3-.8.3-1 .65-.25 1.05.3-1-1.45-2.75-1-1.75.45-1.85 2.2.1-.65.75-.75.65-.1.75.7l.65-.95 1.1.5z" id="ch"/><path fill="#F7E560" d="M88.6 248.9q-.3-.2-.65-.1-.35.1-.55.4-.2.3-.1.6l1.4 5.15q.15.75 1.05.65.35-.1.55-.45.15-.3.05-.65l-1.4-5.1q-.05-.35-.35-.5z" id="ci"/><path fill="#F7E560" d="M86.8 241.3q-.05-.35-.35-.55-.35-.15-.75-.05-.3.1-.5.4-.15.3-.05.65l1.35 5.1q.1.35.4.55.35.15.7.05.35-.05.5-.4.15-.3.05-.7l-1.35-5.05z" id="cj"/><path fill="#F7E560" d="M90.75 256.95q-.3-.15-.65-.05-.4.1-.55.4-.2.3-.1.65l1.4 5.1q.3.85 1.05.6.85-.3.6-1.1l-1.3-5.05q-.1-.35-.45-.55z" id="ck"/><path fill="#F7E560" d="M92.25 264.95q-.35.1-.55.45-.15.3-.05.6.4 1.75 1.35 5.15.1.3.45.5.3.15.65.05.3-.05.5-.35t.1-.65l-1.35-5.1q-.25-.85-1.1-.65z" id="cl"/><path fill="#F7E560" d="M95.05 273.15q-.3-.15-.6-.05-.35.05-.55.35-.2.3-.1.7.5 1.65 1.35 5.05.1.4.45.55.3.2.65.1.75-.2.65-1.1l-1.4-5.1q-.1-.35-.45-.5z" id="cm"/><path fill="#F7E560" d="M97.25 281.25q-.3-.2-.65-.1-.35.1-.55.45-.15.3-.1.6.85 3.05 1.35 5.15.1.3.45.5.3.15.65.05.9-.25.65-1.05l-1.35-5.05q-.1-.35-.45-.55z" id="cn"/><path fill="#F7E560" d="M99.85 289.85q-.25-.75-1.1-.65-.75.25-.65 1.1l1.4 5.1q.15.75 1.05.65.4-.1.55-.45.2-.3.1-.65l-1.35-5.1z" id="co"/><path fill="#F7E560" d="M84.65 233.2q-.3-.85-1.1-.6-.8.3-.55 1.1l1.35 5.05q.15.85 1.1.65.8-.3.55-1.1l-1.35-5.1z" id="cp"/><path fill="#F7E560" d="M82.5 225.15q-.25-.8-1.1-.65-.35.05-.5.4-.15.35-.05.65l1.35 5.1q.05.35.35.55.3.2.65.1.35-.1.55-.45.2-.3.1-.6l-1.35-5.1z" id="cq"/><path fill="#F7EB79" d="M182.9 264.2v-2.15q0-1-.7-1.75t-1.7-.75q-1.05 0-1.8.75t-.75 1.75v2.15q0 1.1.75 1.8.7.75 1.8.75 1 0 1.7-.75.7-.7.7-1.8m-2.4-2.95q.4 0 .7.3.3.3.3.75v1.7q0 .45-.3.8-.3.3-.7.3-.5 0-.8-.3-.3-.35-.3-.8v-1.7q0-1.05 1.1-1.05z" id="cr"/><path fill="#F7EB79" d="M181.35 264.75l-.85.7-.95-.7q.1.8-.55.85-.65.1-.9-.5.55 1.65 2.35 1.65t2.35-1.65q-.25.6-.9.5-.65-.05-.55-.85z" id="cs"/><path fill="#F7EB79" d="M180.5 260.85l.85.7q-.1-.8.55-.85.65-.05.9.55-.55-1.7-2.35-1.7t-2.35 1.7q.25-.6.9-.55.65.05.55.85l.95-.7z" id="ct"/><path fill="#F7EB79" d="M180.5 276.3q-1.1 0-1.8.75-.75.7-.75 1.8V281q0 1.05.75 1.75.75.75 1.8.75 1 0 1.7-.75t.7-1.75v-2.15q0-1.1-.7-1.8-.7-.75-1.7-.75m0 1.65q.4 0 .7.35.3.35.3.75v1.75q0 .4-.3.7-.3.3-.7.3-.5 0-.8-.3-.3-.3-.3-.7v-1.75q0-.45.3-.75.35-.35.8-.35z" id="cu"/><path fill="#F7EB79" d="M181.35 281.5l-.85.7-.95-.7q.1.8-.55.9-.65.05-.9-.6.55 1.75 2.35 1.75t2.35-1.75q-.25.65-.9.6-.65-.1-.55-.9z" id="cv"/><path fill="#F7EB79" d="M180.5 277.6l.85.75q-.1-.8.55-.9.65-.05.9.5-.55-1.65-2.35-1.65t-2.35 1.65q.25-.55.9-.5.65.1.55.9l.95-.75z" id="cw"/><path fill="#F7EB79" d="M178.7 268.65q-.75.75-.75 1.75v2.25q0 1.05.75 1.75.75.75 1.8.75 1 0 1.7-.75t.7-1.75v-2.25q0-1-.7-1.75-.7-.7-1.7-.7-1.1 0-1.8.7m.7 2.05q0-.45.3-.75.35-.35.8-.35.4 0 .7.35.3.35.3.75v1.65q0 .45-.3.8-.3.3-.7.3-.5 0-.8-.3-.3-.35-.3-.8v-1.65z" id="cx"/><path fill="#F7EB79" d="M180.5 269.2l.85.8q-.1-.8.55-.9.65-.05.9.5-.55-1.65-2.35-1.65t-2.35 1.65q.25-.55.9-.5.65.1.55.9l.95-.8z" id="cy"/><path fill="#F7EB79" d="M181.35 273.1l-.85.75-.95-.75q.1.8-.55.85-.65.1-.9-.5.55 1.65 2.35 1.65t2.35-1.65q-.25.6-.9.5-.65-.05-.55-.85z" id="cz"/><path fill="#F7EB79" d="M182.9 255.85v-2.15q0-1.1-.7-1.8t-1.7-.7q-1.1 0-1.8.7-.75.7-.75 1.8v2.15q0 1.05.75 1.8.7.75 1.8.75 1 0 1.7-.75t.7-1.8m-3.2-2.7q.35-.3.8-.3.4 0 .7.3.3.35.3.75v1.75q0 1-1 1-1.1 0-1.1-1v-1.75q0-.4.3-.75z" id="cA"/><path fill="#F7EB79" d="M180.5 252.5l.85.7q-.1-.8.55-.85.65-.1.9.5-.55-1.7-2.35-1.7t-2.35 1.7q.25-.6.9-.5.65.05.55.85l.95-.7z" id="cB"/><path fill="#F7EB79" d="M181.35 256.35l-.85.75-.95-.75q.1.8-.55.9-.65.05-.9-.6.55 1.75 2.35 1.75t2.35-1.75q-.25.65-.9.6-.65-.1-.55-.9z" id="cC"/><path fill="#F7EB79" d="M182.2 243.55q-.7-.7-1.7-.7-1.1 0-1.8.7-.75.7-.75 1.75v2.2q0 1.05.75 1.8.7.75 1.8.75 1 0 1.7-.75t.7-1.8v-2.2q0-1.05-.7-1.75m-2.8 2q0-.4.3-.75.35-.3.8-.3.4 0 .7.3.3.35.3.75v1.7q0 .4-.3.75-.3.3-.7.3-.45 0-.8-.3-.3-.3-.3-.75v-1.7z" id="cD"/><path fill="#F7EB79" d="M181.35 247.95l-.85.8-.95-.8q.1.8-.55.9-.65.05-.9-.55.55 1.7 2.35 1.7t2.35-1.7q-.25.6-.9.55-.65-.1-.55-.9z" id="cE"/><path fill="#F7EB79" d="M180.5 244.05l.85.8q-.1-.8.55-.9.65-.05.9.55-.55-1.7-2.35-1.7t-2.35 1.7q.25-.6.9-.55.65.1.55.9l.95-.8z" id="cF"/><path fill="#F7EB79" d="M180.5 226.05q-1.1 0-1.8.75-.75.75-.75 1.8v2.15q0 1.05.75 1.75.75.75 1.8.75 1 0 1.7-.75t.7-1.75v-2.15q0-1.05-.7-1.8t-1.7-.75m-1.1 2.75q0-.45.3-.75.3-.35.8-.35.4 0 .7.35.3.3.3.75v1.7q0 .45-.3.75t-.7.3q-1.1 0-1.1-1.05v-1.7z" id="cG"/><path fill="#F7EB79" d="M181.35 231.25l-.85.7-.95-.7q.1.8-.55.85-.65.05-.9-.55.55 1.75 2.35 1.75t2.35-1.75q-.25.6-.9.55-.65-.05-.55-.85z" id="cH"/><path fill="#F7EB79" d="M180.5 227.35l.85.75q-.1-.85.55-.9.65-.1.9.5-.55-1.65-2.35-1.65t-2.35 1.65q.25-.6.9-.5.65.05.55.9l.95-.75z" id="cI"/><path fill="#F7EB79" d="M178.7 235.15q-.75.75-.75 1.8v2.15q0 1.1.75 1.8.7.7 1.8.7 1 0 1.7-.7t.7-1.8v-2.15q0-1.05-.7-1.8t-1.7-.75q-1.1 0-1.8.75m1.8 1q1 0 1 1v1.75q0 .4-.3.75-.3.3-.7.3-.45 0-.8-.3-.3-.3-.3-.75v-1.75q0-1 1.1-1z" id="cJ"/><path fill="#F7EB79" d="M180.5 235.7l.85.75q-.1-.8.55-.9.65-.05.9.6-.55-1.7-2.35-1.7t-2.35 1.7q.25-.65.9-.6.65.1.55.9l.95-.75z" id="cK"/><path fill="#F7EB79" d="M181.35 239.6l-.85.7-.95-.7q.1.8-.55.9-.65.05-.9-.55.55 1.7 2.35 1.7t2.35-1.7q-.25.6-.9.55-.65-.1-.55-.9z" id="cL"/><path fill="#F7EB79" d="M182.2 285.4q-.7-.75-1.7-.75-1.1 0-1.8.75-.75.75-.75 1.8v2.15q0 1.1.75 1.8.7.7 1.8.7 1 0 1.7-.7t.7-1.8v-2.15q0-1.05-.7-1.8m-1 1.3q.3.3.3.7v1.75q0 .4-.3.75-.3.3-.7.3-.45 0-.8-.3-.3-.3-.3-.75v-1.75q0-.4.3-.7.3-.3.8-.3.4 0 .7.3z" id="cM"/><path fill="#F7EB79" d="M180.5 285.95l.85.75q-.1-.8.55-.9.65-.05.9.6-.55-1.7-2.35-1.7t-2.35 1.7q.25-.65.9-.6.65.1.55.9l.95-.75z" id="cN"/><path fill="#F7EB79" d="M181.35 289.85l-.85.7-.95-.7q.1.8-.55.9-.65.05-.9-.55.55 1.7 2.35 1.7t2.35-1.7q-.25.6-.9.55-.65-.1-.55-.9z" id="cO"/><path fill="#F7EB79" d="M180.5 293.1q-1.1 0-1.8.7-.75.7-.75 1.75v2.2q0 1.05.75 1.8.7.75 1.8.75 1 0 1.7-.75t.7-1.8v-2.2q0-1.05-.7-1.75t-1.7-.7m0 1.65q.4 0 .7.35.3.3.3.75v1.65q0 .4-.3.75-.3.3-.7.3-.45 0-.8-.3-.3-.3-.3-.75v-1.65q0-.45.3-.75.3-.35.8-.35z" id="cP"/><path fill="#F7EB79" d="M181.35 298.2l-.85.8-.95-.8q.1.8-.55.9-.65.05-.9-.55.55 1.7 2.35 1.7t2.35-1.7q-.25.6-.9.55-.65-.1-.55-.9z" id="cQ"/><path fill="#F7EB79" d="M180.5 294.3l.85.8q-.1-.8.55-.85.65-.1.9.5-.55-1.7-2.35-1.7t-2.35 1.7q.25-.6.9-.5.65.05.55.85l.95-.8z" id="cR"/><path fill="#F7EB79" d="M182.9 306.15v-2.2q0-1.1-.7-1.8t-1.7-.7q-1.1 0-1.8.7-.75.7-.75 1.8v2.2q0 1.05.75 1.75.75.75 1.8.75 1 0 1.7-.75t.7-1.75m-1.4-1.95v1.7q0 1-1 1-1.1 0-1.1-1v-1.7q0-.45.3-.75.3-.35.8-.35.4 0 .7.35.3.3.3.75z" id="cS"/><path fill="#F7EB79" d="M180.5 302.75l.85.7q-.1-.8.55-.85.65-.1.9.5-.55-1.7-2.35-1.7t-2.35 1.7q.25-.6.9-.5.65.05.55.85l.95-.7z" id="cT"/><path fill="#F7EB79" d="M181.35 306.65l-.85.7-.95-.7q.1.8-.55.85-.65.05-.9-.6.55 1.75 2.35 1.75t2.35-1.75q-.25.65-.9.6-.65-.05-.55-.85z" id="cU"/><path fill="#F8F5A8" d="M179.55 278.35q0 .85.95.85.3 0 .6-.25.25-.25.25-.6v-5.25q0-.4-.25-.65-.3-.25-.6-.25-.95 0-.95.9v5.25z" id="cV"/><path fill="#F8F5A8" d="M179.8 280.85q-.25.25-.25.6v5.3q0 .35.25.6.3.25.7.25.3 0 .6-.25.25-.25.25-.6v-5.3q0-.35-.25-.6-.3-.3-.6-.3-.4 0-.7.3z" id="cW"/><path fill="#F8F5A8" d="M179.55 270q0 .85.95.85.3 0 .6-.25.25-.25.25-.6v-5.25q0-.4-.25-.65-.3-.25-.6-.25-.95 0-.95.9V270z" id="cX"/><path fill="#F8F5A8" d="M179.8 255.7q-.25.25-.25.6v5.35q0 .3.25.6.3.25.7.25.3 0 .6-.25.25-.3.25-.6v-5.35q0-.35-.25-.6-.3-.25-.6-.25-.4 0-.7.25z" id="cY"/><path fill="#F8F5A8" d="M181.1 247.35q-.3-.25-.6-.25-.95 0-.95.85v5.25q0 .85.95.85.3 0 .6-.25.25-.25.25-.6v-5.25q0-.35-.25-.6z" id="cZ"/><path fill="#F8F5A8" d="M179.55 244.85q0 .85.95.85.3 0 .6-.25.25-.25.25-.6v-5.25q0-.35-.25-.6-.3-.25-.6-.25-.95 0-.95.85v5.25z" id="da"/><path fill="#F8F5A8" d="M179.8 230.6q-.25.25-.25.55v5.35q0 .35.25.6.3.25.7.25.3 0 .6-.25.25-.25.25-.6v-5.35q0-.3-.25-.55-.3-.3-.6-.3-.4 0-.7.3z" id="db"/><path fill="#F7EB79" d="M179.55 295.1q0 .85.95.85.3 0 .6-.25.25-.25.25-.6v-5.25q0-.35-.25-.6-.3-.25-.6-.25-.95 0-.95.85v5.25z" id="dc"/><path fill="#F7EB79" d="M179.55 303.45q0 .85.95.85.3 0 .6-.25.25-.25.25-.6v-5.25q0-.35-.25-.6-.3-.25-.6-.25-.95 0-.95.85v5.25z" id="dd"/><path fill="url(#p)" d="M148.45 288.75q1.3 12.15 10.45 20.4 9.2 8.35 21.6 8.35 12.3 0 21.5-8.35 9.15-8.25 10.45-20.4h-64z" id="de"/><path fill="#F7E560" d="M152.45 288.25h-1.7q1.4 11.3 9.45 19 8.1 7.7 18.85 7.9-4.2-.6-8.7-3.75-9.1-6.35-9.05-19.1l-8.85-4.05z" id="df"/><path fill="url(#q)" d="M212.45 288.75h-2l-10.1 4.35q0 10.25-6.4 17.05-5.95 6.3-15.05 7.3l1.6.05q12.3 0 21.5-8.35 9.15-8.25 10.45-20.4z" id="dg"/><path fill="url(#r)" d="M148.45 288.65q0 3.8 9.4 6.5t22.65 2.7q13.2 0 22.55-2.7 9.4-2.7 9.4-6.5t-9.4-6.5q-9.4-2.75-22.55-2.75-13.2 0-22.65 2.75-9.4 2.7-9.4 6.5z" id="dh"/><path fill="url(#s)" d="M152.05 288.05q0 2.95 8.35 5.1 8.35 2.1 20.1 2.1 11.7 0 20.05-2.1 8.3-2.15 8.3-5.1 0-2.95-8.3-5.05-8.35-2.1-20.05-2.1-11.8 0-20.1 2.1-8.35 2.1-8.35 5.05z" id="di"/><path fill="#EFC21F" d="M169.3 262q-.55-.9-1.55-1.15-1-.25-1.9.25-.9.5-1.15 1.45l-.55 2.2q-.3.95.2 1.85.55.95 1.5 1.2 1.05.25 1.95-.3.9-.5 1.15-1.5l.6-2.15q.25-1-.25-1.85m-2 .5q.45.1.65.5.25.35.05.8l-.4 1.55q-.1.45-.5.7-.4.2-.8.1t-.6-.5q-.2-.35-.15-.8l.45-1.65q.1-.4.5-.6.35-.2.8-.1z" id="dj"/><path fill="#E6AC1B" d="M167.45 262.05l.65.95q.1-.8.75-.7.65.15.75.75-.1-1.75-1.85-2.25-1.75-.45-2.75 1.05.4-.5 1.05-.3.6.25.3 1l1.1-.5z" id="dk"/><path fill="#E6AC1B" d="M167.25 266.1l-1.05.5-.65-1q-.15.8-.8.7-.6-.15-.7-.8.1 1.8 1.85 2.3 1.75.45 2.7-1.05-.4.55-1 .3-.65-.2-.35-.95z" id="dl"/><path fill="#EFC21F" d="M170.2 244.9q-.9.5-1.15 1.55l-.6 2.05q-.25 1.05.25 1.95.55.9 1.55 1.15 1 .3 1.85-.2.9-.55 1.15-1.6l.6-2.05q.25-1.05-.25-1.95-.55-.9-1.55-1.15-1-.25-1.85.25m1.4 1.4q.45.1.7.5.2.35.1.8l-.4 1.65q-.1.4-.5.6-.4.2-.8.1-.45-.1-.7-.5-.2-.35-.1-.8l.4-1.65q.5-.95 1.3-.7z" id="dm"/><path fill="#E6AC1B" d="M170.7 246.35l1.05-.5.65.95q.2-.8.85-.65.6.1.65.7-.05-1.75-1.8-2.2-1.636-.433-2.65.9.363-.424.9-.2.65.25.35 1z" id="dn"/><path fill="#E6AC1B" d="M168.4 249.3q.11 1.853 1.8 2.3 1.59.42 2.55-.9-.28.35-.8.15-.65-.2-.4-.95l-.95.5-.7-.95q-.15.8-.8.7-.64-.148-.7-.85z" id="do"/><path fill="#EFC21F" d="M169.9 252.75q-.95-.25-1.85.25-.9.5-1.2 1.5l-.55 2.15q-.25 1 .25 1.85.5.9 1.45 1.2 1.05.25 1.95-.25.9-.5 1.15-1.5l.6-2.15q.25-1-.25-1.9-.55-.95-1.55-1.15m.25 2.1q.2.4.1.8l-.5 1.65q-.25.95-1.25.75-.4-.1-.65-.5-.2-.4-.1-.8l.4-1.6q.1-.45.5-.7.4-.2.8-.1.45.1.7.5z" id="dp"/><path fill="#E6AC1B" d="M169.4 257.95l-.95.5-.7-.95q-.15.85-.85.75-.6-.15-.7-.8.1 1.8 1.85 2.25 1.7.45 2.7-1-.4.5-1 .25-.6-.2-.35-1z" id="dq"/><path fill="#E6AC1B" d="M169.6 254l.65.95q.1-.8.8-.7.65.1.7.75-.1-1.75-1.85-2.25-1.75-.45-2.75 1.05.4-.55 1.05-.35.6.2.3 1l1.1-.45z" id="dr"/><path fill="#EFC21F" d="M167.35 272q.3-1-.2-1.9-.55-.95-1.6-1.2-1-.25-1.85.25-.9.55-1.15 1.55l-.6 2.1q-.25 1 .25 1.9.5.9 1.5 1.2 1 .25 1.95-.25.9-.55 1.15-1.55l.55-2.1m-3.5-.7q.1-.4.5-.65.35-.2.8-.1.4.1.6.5.2.4.1.8l-.4 1.65q-.25.95-1.3.75-.4-.1-.6-.5-.25-.4-.15-.8l.45-1.65z" id="ds"/><path fill="#E6AC1B" d="M165.05 274.15l-1 .5-.65-.9q-.15.75-.8.65-.65-.1-.7-.75.1 1.8 1.85 2.25 1.7.45 2.7-1-.4.5-1 .25-.65-.2-.4-1z" id="dt"/><path fill="#E6AC1B" d="M165.3 270.2l.55.85q.2-.75.85-.65.65.15.75.8-.1-1.85-1.85-2.3-1.75-.45-2.75 1.1.4-.55 1.05-.35.6.2.3 1l1.1-.45z" id="du"/><path fill="#EFC21F" d="M160.05 282.8q.55.9 1.5 1.15 1 .25 1.9-.25.9-.5 1.2-1.5l.55-2.15q.25-.95-.3-1.85-.5-.9-1.5-1.15-1-.25-1.9.25-.9.5-1.2 1.45l-.5 2.15q-.25 1 .25 1.9m1.2-1.75l.45-1.65q.1-.4.5-.65.35-.2.8-.15.4.1.6.5.2.4.1.8l-.45 1.65q-.1.45-.5.7-.35.2-.8.1-.4-.15-.6-.55-.2-.35-.1-.75z" id="dv"/><path fill="#E6AC1B" d="M160.7 278.05q.4-.5 1-.3.6.25.35 1l1.05-.5.6.95q.15-.8.8-.7.7.15.8.75-.1-1.75-1.9-2.25-1.75-.45-2.7 1.05z" id="dw"/><path fill="#E6AC1B" d="M161.9 282.75l-.65-.95q-.15.8-.8.7-.7-.15-.8-.8.1 1.8 1.9 2.3 1.75.45 2.7-1.05-.4.55-1 .3-.6-.25-.35-1.05l-1 .55z" id="dx"/><path fill="#EFC21F" d="M157.15 293.45q-.9.5-1.15 1.5l-.6 2.1q-.25 1 .25 1.95.55.9 1.55 1.15 1 .25 1.9-.25.95-.55 1.15-1.55l.55-2.1q.3-1-.2-1.9-.5-.95-1.5-1.2-1.05-.25-1.95.3m2.1 1.85q.25.4.15.8l-.45 1.65q-.1.45-.5.65-.35.2-.8.1-.4-.1-.6-.5-.2-.4-.1-.8l.4-1.65q.1-.35.5-.6.4-.2.8-.15.4.1.6.5z" id="dy"/><path fill="#E6AC1B" d="M158.8 294.45l.6.95q.15-.8.8-.7.6.05.7.75-.1-1.75-1.85-2.25-1.75-.45-2.7 1.05.4-.55 1-.35.65.2.35 1l1.1-.45z" id="dz"/><path fill="#E6AC1B" d="M158.6 298.4l-1 .5-.75-.9q-.1.8-.75.7-.65-.15-.75-.8.1 1.8 1.85 2.25 1.75.45 2.75-1-.4.55-1.05.3-.6-.25-.3-1.05z" id="dA"/><path fill="#EFC21F" d="M159.35 285.35q-.95.55-1.2 1.55l-.55 2.1q-.2 1 .3 1.95.55.9 1.5 1.15 1 .25 1.9-.25.9-.55 1.2-1.55l.5-2.1q.25-1-.25-1.9-.5-.95-1.5-1.2t-1.9.25m1.45 1.4q.45.1.65.5t.1.8l-.45 1.65q-.25.9-1.3.75-.4-.1-.6-.5-.2-.4-.1-.8l.4-1.65q.1-.45.5-.65t.8-.1z" id="dB"/><path fill="#E6AC1B" d="M160.75 290.35l-1 .5-.65-1q-.15.8-.85.7-.6-.1-.75-.75.1 1.75 1.85 2.25 1.75.45 2.75-1.05-.4.55-1.05.35-.6-.2-.3-1z" id="dC"/><path fill="#E6AC1B" d="M160.95 286.3l.6.95q.15-.8.8-.7.65.15.7.8-.1-1.8-1.85-2.25-1.7-.45-2.7 1 .4-.5 1-.3.65.25.4 1.05l1.05-.55z" id="dD"/><path fill="#EFC21F" d="M171.2 238.3l-.6 2.15q-.25 1 .25 1.9.55.9 1.55 1.15 1 .25 1.9-.25.9-.5 1.15-1.5l.55-2.15q.25-.95-.25-1.85-.45-.9-1.45-1.2-1.05-.25-1.95.25-.9.5-1.15 1.5m1.85 0q.35-.25.75-.05.4.1.65.45.2.35.1.75l-.4 1.65q-.1.45-.5.7-.4.2-.8.1-.45-.1-.7-.5-.2-.35-.1-.8l.5-1.65q.1-.45.5-.65z" id="dE"/><path fill="#E6AC1B" d="M172.05 241.3q-.15.85-.8.75-.65-.15-.7-.8.1 1.8 1.85 2.3 1.729.445 2.65-1.05-.321.542-.95.3-.6-.25-.3-1.05l-1.05.5-.7-.95z" id="dF"/><path fill="#E6AC1B" d="M173.9 237.8l.65.95q.2-.8.85-.7.6.1.7.75-.1-1.75-1.85-2.25-1.73-.495-2.7 1 .37-.492 1-.25.6.2.35 1l1-.5z" id="dG"/><path fill="#EFC21F" d="M176.45 228.45q-1-.25-1.9.3-.95.5-1.2 1.5l-.6 2.05q-.25 1.05.25 1.95.55.9 1.55 1.15 1 .3 1.9-.2.9-.55 1.15-1.6l.55-2.05q.3-.95-.2-1.9t-1.5-1.2m.15 2.15q.25.35.15.8l-.45 1.65q-.25.95-1.3.7-.45-.1-.65-.5-.25-.35-.05-.8l.4-1.55q.1-.45.5-.7.4-.2.8-.1t.6.5z" id="dH"/><path fill="#E6AC1B" d="M176.15 229.75l.6.9q.15-.8.8-.7.6.15.7.8-.1-1.8-1.85-2.25-1.7-.5-2.7 1 .4-.5 1-.3.65.2.4.95l1.05-.4z" id="dI"/><path fill="#E6AC1B" d="M175.95 233.7l-1 .5-.75-.95q-.15.8-.8.7-.65-.1-.7-.75.1 1.75 1.85 2.2 1.75.45 2.75-1-.4.55-1.05.3-.6-.25-.3-1z" id="dJ"/><path fill="#EFC21F" d="M178.6 220.35q-1-.25-1.9.25-.95.55-1.2 1.55l-.55 2.1q-.3 1.05.25 1.95.5.9 1.55 1.15 1 .25 1.9-.25.9-.55 1.1-1.55l.6-2.1q.25-1-.25-1.9-.5-.9-1.5-1.2m-.45 1.7q.4.1.65.45.2.4.1.8l-.45 1.7q-.1.4-.5.6-.35.2-.8.1-.4-.1-.6-.5-.2-.35-.1-.8l.4-1.65q.1-.45.5-.65.35-.15.8-.05z" id="dK"/><path fill="#E6AC1B" d="M178.1 225.65l-1 .5-.75-1q-.05.8-.75.7-.65-.1-.75-.8.1 1.8 1.85 2.3 1.75.45 2.75-1.05-.4.5-1.05.3-.6-.2-.3-.95z" id="dL"/><path fill="#E6AC1B" d="M178.3 221.6l.6.95q.15-.8.8-.7.65.1.7.75-.1-1.75-1.85-2.2-1.7-.45-2.7 1 .4-.5 1-.3.65.2.4 1l1.05-.5z" id="dM"/><path fill="#F7E560" d="M170.95 248.8q-.3-.1-.6.1-.35.15-.45.5l-1.4 5.1q-.1.9.65 1.1.9.1 1.1-.65l1.35-5.15q.2-.85-.65-1z" id="dN"/><path fill="#F7E560" d="M173.15 240.7q-.35-.1-.65.05-.35.2-.45.55l-1.35 5.05q-.2.95.65 1.1.3.1.6-.05.35-.2.45-.55l1.4-5.1q.1-.9-.65-1.05z" id="dO"/><path fill="#F7E560" d="M168.8 256.9q-.9-.25-1.05.6l-1.4 5.05q-.25.85.65 1.1.35.1.65-.05.35-.2.45-.55.7-2.9 1.35-5.1.15-.85-.65-1.05z" id="dP"/><path fill="#F7E560" d="M167.25 266q.1-.3-.1-.6-.15-.35-.5-.45-.85-.15-1.1.65l-1.35 5.1q-.1.35.1.65.2.3.55.35.35.1.65-.05.35-.2.45-.5l1.3-5.15z" id="dQ"/><path fill="#F7E560" d="M165 273.45q-.2-.3-.5-.35-.85-.25-1.1.55l-1.35 5.1q-.1.35.1.65.2.35.55.45.3.1.65-.1.3-.2.35-.55.65-2.05 1.35-5.05.1-.35-.05-.7z" id="dR"/><path fill="#F7E560" d="M161.65 281.25q-.35.2-.4.55-.7 2.4-1.35 5.05-.25.75.55 1.05.35.1.7-.05.3-.2.4-.5.85-3 1.35-5.15.1-.3-.05-.6-.2-.35-.5-.45-.4-.1-.7.1z" id="dS"/><path fill="#F7E560" d="M160.15 289.2q-.95-.1-1.05.65l-1.4 5.1q-.2.85.6 1.1.85.1 1.1-.65l1.35-5.1q.1-.35-.05-.65-.2-.35-.55-.45z" id="dT"/><path fill="#F7E560" d="M175.3 232.6q-.35-.1-.65.1-.35.15-.45.5l-1.35 5.1q-.15.85.65 1.1.9.2 1.05-.65l1.4-5.05q.25-.85-.65-1.1z" id="dU"/><path fill="#F7E560" d="M178.1 225.55q.1-.3-.1-.65-.2-.3-.55-.4-.35-.05-.65.1-.35.2-.45.55l-1.25 5.1q-.1.3.05.6.15.35.5.45.85.15 1.1-.65l1.35-5.1z" id="dV"/><path fill="#EFC21F" d="M191.6 262q-.5.85-.25 1.85l.55 2.15q.3 1 1.2 1.5.9.55 1.9.3.95-.25 1.5-1.2.5-.9.25-1.85l-.6-2.2q-.25-.95-1.15-1.45-.85-.5-1.85-.25T191.6 262m2 .5q.4-.1.8.1t.45.6l.45 1.65q.1.45-.1.8-.2.4-.6.5-.45.1-.8-.1-.4-.25-.5-.7l-.45-1.55q-.25-1.05.75-1.3z" id="dW"/><path fill="#E6AC1B" d="M192.85 263l.6-.95 1.05.5q-.3-.75.35-1 .65-.2 1.05.3-1.05-1.5-2.8-1.05-1.75.5-1.85 2.25.15-.6.8-.75.65-.1.8.7z" id="dX"/><path fill="#E6AC1B" d="M194.65 266.6l-1-.5q.25.75-.35.95-.6.2-1-.3 1 1.5 2.7 1.05 1.75-.5 1.8-2.3-.05.65-.7.8-.65.1-.8-.7l-.65 1z" id="dY"/><path fill="#EFC21F" d="M191.85 246.45q-.25-1.05-1.15-1.55-.9-.5-1.85-.25-1.05.25-1.55 1.15-.55.9-.25 1.95l.55 2.05q.25 1.05 1.2 1.6.9.5 1.9.2 1-.25 1.5-1.15.5-.9.25-1.95l-.6-2.05m-3.25.35q.25-.4.65-.5.4-.1.8.1.4.25.5.6l.45 1.65q.1.45-.15.8-.2.4-.65.5-.35.1-.75-.1t-.55-.6l-.45-1.65q-.1-.45.15-.8z" id="dZ"/><path fill="#E6AC1B" d="M188.45 246.8l.65-.95 1.1.5q-.3-.75.3-1 .65-.2 1.05.3-1-1.45-2.75-1-1.75.45-1.85 2.2.1-.6.75-.7.65-.15.75.65z" id="ea"/><path fill="#E6AC1B" d="M190.25 250.4l-.9-.5q.25.75-.4.95-.6.2-1-.3 1 1.5 2.7 1.05 1.74-.447 1.85-2.3-.06.702-.7.85-.65.1-.8-.7l-.75.95z" id="eb"/><path fill="#EFC21F" d="M194 254.5q-.25-1-1.15-1.5-.9-.5-1.85-.25-1.05.2-1.55 1.15-.5.9-.25 1.9l.55 2.15q.25 1 1.2 1.5.9.5 1.9.25 1-.3 1.5-1.2.5-.9.25-1.85l-.6-2.15m-.95 3.05q-.2.4-.6.5-1.15.2-1.3-.75l-.5-1.65q-.1-.4.1-.8.25-.4.65-.5.45-.1.8.1.4.25.5.7l.45 1.6q.1.4-.1.8z" id="ec"/><path fill="#E6AC1B" d="M192.5 258.45l-1-.5q.25.8-.35 1-.6.25-1.05-.25 1 1.45 2.7 1 1.75-.45 1.85-2.25-.05.65-.7.8-.65.1-.8-.75l-.65.95z" id="ed"/><path fill="#E6AC1B" d="M190.65 254.95l.6-.95 1.1.45q-.3-.8.3-1 .65-.2 1.05.35-1-1.5-2.75-1.05-1.75.5-1.85 2.25.1-.65.8-.75.65-.1.75.7z" id="ee"/><path fill="#EFC21F" d="M197.2 269.15q-.9-.5-1.9-.25-1 .25-1.55 1.2-.5.9-.25 1.9l.6 2.1q.25 1 1.15 1.55.9.5 1.95.25 1-.3 1.45-1.2.5-.9.25-1.9l-.5-2.1q-.25-1-1.2-1.55m-.65 1.5q.4.25.5.65l.4 1.65q.1.4-.1.8t-.6.5q-1.05.2-1.3-.75l-.45-1.65q-.1-.4.1-.8t.65-.5q.4-.1.8.1z" id="ef"/><path fill="#E6AC1B" d="M196.8 274.65l-1-.5q.25.8-.35 1-.6.25-1-.25 1 1.45 2.75 1 1.75-.45 1.85-2.25-.1.65-.75.75-.65.1-.85-.65l-.65.9z" id="eg"/><path fill="#E6AC1B" d="M195 271.05l.6-.85 1.1.45q-.3-.8.35-1 .6-.2 1 .35-1-1.55-2.75-1.1-1.75.45-1.85 2.3.1-.65.75-.8.65-.1.8.65z" id="eh"/><path fill="#EFC21F" d="M199.4 277.3q-.9-.5-1.95-.25-.95.25-1.5 1.15-.5.85-.3 1.85l.6 2.15q.25 1 1.15 1.5.9.5 1.95.25.95-.25 1.5-1.15.55-.9.3-1.9l-.6-2.15q-.25-1-1.15-1.45m-2.2 2.6q-.1-.4.05-.8.2-.4.65-.5 1.05-.15 1.3.8l.45 1.65q.2 1-.75 1.3-.4.1-.8-.1-.4-.25-.5-.7l-.4-1.65z" id="ei"/><path fill="#E6AC1B" d="M197.2 279.2l.55-.95 1.1.5q-.25-.75.35-1 .6-.2 1 .3-.95-1.5-2.7-1.05-1.75.5-1.85 2.25.1-.6.7-.75.7-.1.85.7z" id="ej"/><path fill="#E6AC1B" d="M199 282.75l-1.05-.55q.3.8-.3 1.05-.65.25-1.05-.3 1 1.5 2.75 1.05 1.75-.5 1.85-2.3-.1.65-.75.8-.65.1-.8-.7l-.65.95z" id="ek"/><path fill="#E6AC1B" d="M201.8 293.15q-1 .25-1.5 1.2-.5.9-.25 1.9l.6 2.1q.25 1 1.15 1.55.85.5 1.85.25 1.05-.25 1.55-1.15.5-.9.25-1.95l-.55-2.1q-.3-1-1.2-1.5-.9-.55-1.9-.3m-.3 2.95q-.1-.4.1-.8t.6-.5q.45-.05.8.15.4.2.5.6l.45 1.65q.15.4-.05.8-.25.4-.65.5-.45.1-.8-.1-.4-.2-.5-.65l-.45-1.65z" id="el"/><path fill="#DD9817" d="M201.85 293.2q-1.74.497-1.85 2.2.06-.65.7-.7.65-.1.8.7l.65-.15 1-.35q-.25-.8.35-1 .6-.2 1 .35-.95-1.5-2.65-1.05z" id="em"/><path fill="#DD9817" d="M204 298l-.75.55-.95-.15q.3.8-.35 1.05-.6.25-1.05-.3 1.05 1.45 2.8 1 1.75-.45 1.85-2.25-.1.65-.75.8-.7.1-.8-.7z" id="en"/><path fill="#EFC21F" d="M199.65 285.1q-1 .25-1.5 1.2-.5.9-.25 1.9l.5 2.1q.25 1 1.2 1.55.9.5 1.9.25 1-.25 1.55-1.15.5-.95.25-1.95l-.6-2.1q-.25-1-1.15-1.55-.9-.5-1.9-.25m.4 1.65q1.05-.25 1.3.75l.45 1.65q.1.4-.1.8t-.65.5q-.4.1-.8-.15-.4-.2-.5-.6l-.4-1.65q-.1-.4.1-.8t.6-.5z" id="eo"/><path fill="#E6AC1B" d="M201.15 290.85l-1-.5q.3.8-.35 1-.65.2-1.05-.35 1.05 1.5 2.8 1.05 1.75-.5 1.8-2.25-.1.6-.75.75-.65.1-.75-.7l-.7 1z" id="ep"/><path fill="#E6AC1B" d="M199.35 287.25l.55-.95 1.1.55q-.25-.8.35-1.05.6-.2 1 .3-1-1.45-2.7-1-1.7.45-1.8 2.25.05-.65.7-.8.6-.1.8.7z" id="eq"/><path fill="#EFC21F" d="M189.7 238.3q-.25-.95-1.15-1.5-.9-.5-1.9-.25-1 .3-1.55 1.2-.5.9-.25 1.85l.6 2.15q.25 1 1.15 1.5.9.5 1.85.25 1.05-.25 1.6-1.15.5-.9.2-1.9l-.55-2.15m-1.3.65l.45 1.65q.15 1.05-.8 1.3-.4.1-.8-.1-.4-.25-.5-.7l-.45-1.65q-.1-.4.1-.75.25-.35.7-.45.35-.2.75.05.4.2.55.65z" id="er"/><path fill="#E6AC1B" d="M186.8 242.8q-.597.23-.95-.25 1 1.437 2.65 1 1.75-.5 1.85-2.3-.1.65-.7.8-.65.1-.8-.75l-.75.95-.95-.5q.3.8-.35 1.05z" id="es"/><path fill="#E6AC1B" d="M188.05 238.3q-.3-.75.3-1 .63-.242.95.25-.92-1.495-2.65-1-1.75.5-1.85 2.25.05-.65.7-.75.65-.1.8.7l.65-.95 1.1.5z" id="et"/><path fill="#EFC21F" d="M186.35 228.75q-.9-.55-1.9-.3-.95.25-1.5 1.2-.5.9-.25 1.9l.6 2.05q.25 1.05 1.15 1.6.85.5 1.85.2 1.05-.25 1.55-1.15.5-.9.25-1.95l-.55-2.05q-.3-1-1.2-1.5m-1.4 1.35q.4-.1.75.1.35.25.45.7l.5 1.55q.1.45-.1.8-.25.4-.7.5-.4.1-.8-.1-.35-.2-.45-.6l-.45-1.65q-.1-.45.1-.8.25-.4.7-.5z" id="eu"/><path fill="#E6AC1B" d="M183.35 229.95q.65-.1.8.7l.65-.9 1 .4q-.25-.75.4-.95.549-.211.85.15-.942-1.324-2.6-.85-1.7.45-1.8 2.25.05-.65.7-.8z" id="ev"/><path fill="#E6AC1B" d="M185.95 234.2l-1-.5q.3.75-.35 1-.536.223-.9-.2 1.015 1.333 2.65.9 1.75-.45 1.85-2.2-.1.65-.7.75-.65.1-.85-.7l-.7.95z" id="ew"/><path fill="#EFC21F" d="M184.2 220.6q-.9-.5-1.95-.25-.95.3-1.45 1.2-.5.9-.25 1.9l.55 2.1q.3 1 1.2 1.55.9.5 1.85.25 1-.25 1.55-1.15.5-.9.25-1.95l-.6-2.1q-.25-1-1.15-1.55m-.2 2.15l.45 1.65q.15.45-.05.8-.25.4-.7.5-.4.1-.8-.1t-.5-.6l-.4-1.7q-.1-.4.1-.8.2-.35.6-.45 1.05-.25 1.3.7z" id="ex"/><path fill="#E6AC1B" d="M182.8 225.65q.3.75-.35.95-.65.2-1.05-.3 1.05 1.5 2.75 1.05 1.74-.497 1.85-2.3-.06.702-.7.8-.7.1-.8-.7l-.7 1-1-.5z" id="ey"/><path fill="#E6AC1B" d="M182 222.55l.55-.95 1.1.5q-.25-.8.35-1 .6-.2 1 .3-1-1.45-2.7-1-1.7.45-1.8 2.2.05-.65.7-.75.6-.1.8.7z" id="ez"/><path fill="#F7E560" d="M190.55 248.9q-.3-.2-.65-.1-.3.1-.5.4-.2.3-.15.6l1.4 5.15q.15.75 1.05.65.4-.1.55-.45.2-.3.1-.65l-1.35-5.1q-.1-.35-.45-.5z" id="eA"/><path fill="#F7E560" d="M188.4 240.75q-.3-.15-.65-.05-.75.15-.65 1.05l1.35 5.1q.1.35.45.55.3.15.65.05.75-.15.65-1.1l-1.35-5.05q-.1-.35-.45-.55z" id="eB"/><path fill="#F7E560" d="M193.15 257.5q-.25-.85-1.1-.6-.3.1-.5.4-.15.3-.05.65l1.3 5.1q.1.35.45.55.3.15.6.05.9-.25.65-1.1l-1.35-5.05z" id="eC"/><path fill="#F7E560" d="M194.25 264.95q-.35.1-.5.45-.2.3-.1.6l1.35 5.15q.1.3.4.5.3.15.65.05.35-.05.55-.35.2-.3.1-.65l-1.4-5.1q-.25-.8-1.05-.65z" id="eD"/><path fill="#F7E560" d="M197.1 273.15q-.3-.15-.7-.05-.35.05-.5.35-.2.35-.1.7l1.4 5.05q.05.35.35.55.3.2.7.1.35-.1.55-.45.15-.3.05-.65l-1.4-5.1q-.05-.35-.35-.5z" id="eE"/><path fill="#F7E560" d="M199.25 281.25q-.3-.2-.7-.1-.35.1-.5.45-.2.3-.1.6l1.4 5.15q.3.8 1.05.55.85-.3.6-1.05-1.25-4.7-1.35-5.05-.05-.35-.4-.55z" id="eF"/><path fill="#F7E560" d="M201.4 289.35q-.3-.2-.6-.15-.4.1-.6.45-.15.3-.05.65l1.35 5.1q.25.75 1.1.65.3-.1.5-.45.15-.3.05-.65l-1.35-5.1q-.05-.3-.4-.5z" id="eG"/><path fill="#F7E560" d="M186.2 232.7q-.3-.2-.6-.1-.9.25-.65 1.1l1.35 5.05q.25.85 1.1.65.75-.25.65-1.1l-1.4-5.1q-.1-.35-.45-.5z" id="eH"/><path fill="#F7E560" d="M184.05 224.6q-.3-.15-.6-.1-.4.05-.6.4-.15.35-.05.65l1.35 5.1q.25.8 1.1.65.3-.1.5-.45.2-.3.1-.6l-1.35-5.1q-.1-.35-.45-.55z" id="eI"/><path fill="url(#t)" d="M146.2 200.7q-9.15-.4-16.75 5.15-7.6-5.55-16.8-5.15-8.5.4-15.75 5.7-8.3 6.15-13.3 7.5-7.95 2.05-14.35-4.35-2.55-2.5-4.8-2.35-1.95.15-2.5 1.95-.45 1.85.9 4.6 1.55 3.2 4.65 5.2 7.7 5 17.05 3.15 7.45-1.3 12.9-5.1 6.8-4.65 13.25-4.5 5.05.1 9.1 2.6 4.6 2.85 7.4 8.6.85 2 2.25 1.85 1.35.15 2.2-1.85 2.8-5.75 7.45-8.6 4.05-2.5 9.05-2.6 6.45-.15 13.25 4.5 5.4 3.75 12.9 5.1 9.35 1.85 17.05-3.15 3.1-2 4.65-5.2 1.35-2.75.9-4.6-.55-1.8-2.5-1.95-2.2-.15-4.7 2.35-6.5 6.4-14.45 4.35-4.95-1.3-13.3-7.5-7.25-5.3-15.75-5.7z" id="eJ"/><path fill="url(#u)" d="M146.2 198.8q-9.15-.4-16.75 5.15-7.65-5.55-16.8-5.15-8.55.4-15.75 5.75-9.35 6.95-13.3 8.35-8 2.9-14.35-3.45-2.55-2.55-4.8-2.45-1.95.1-2.5 1.9-.45 1.8.8 3.85 1.4 2.25 4.55 4.3 7.3 4.75 16.15 3.4 7.45-1.1 14.8-6.2 6.45-4.4 14.8-3.6 9.9.95 14.8 9.8.95 1.8 1.65 1.8.55 0 1.6-1.8 4.8-8.85 14.75-9.8 8.4-.8 14.85 3.6 7.25 5.1 14.75 6.2 8.85 1.35 16.2-3.4 3.2-2.05 4.55-4.3 1.2-2.1.7-3.85t-2.45-1.9q-2.25-.1-4.75 2.45-6.3 6.35-14.35 3.45-3.95-1.4-13.3-8.35-7.3-5.35-15.85-5.75z" id="eK"/><path fill="#DD9817" d="M126.1 214.25q1.4 1.5 3.35 1.5 2 0 3.35-1.5 1.4-1.5 1.4-3.6t-1.4-3.6q-1.35-1.5-3.35-1.5-1.95 0-3.35 1.5-1.4 1.5-1.4 3.6t1.4 3.6z" id="eL"/><path fill="url(#v)" d="M126.2 212.85q1.3 1.35 3.15 1.35 1.85 0 3.15-1.35 1.3-1.3 1.3-3.15 0-1.85-1.3-3.15-1.3-1.3-3.15-1.3-1.85 0-3.15 1.3-1.3 1.3-1.3 3.15 0 1.85 1.3 3.15z" id="eM"/><path fill="url(#w)" d="M129.35 205.25q-1.85 0-3.15 1.3-1.3 1.3-1.3 3.15 0 1.2.55 2.2 1.25 1 2.75 1 1.75 0 2.95-1.25 1.25-1.2 1.25-2.95 0-1.7-1.3-3.1-.85-.35-1.75-.35z" id="eN"/><path fill="url(#x)" d="M128.25 206.75q-.3-.25-.8 0t-.95.8q-.45.6-.5 1.15-.05.6.25.85.35.25.85 0 .55-.25.95-.85.45-.6.5-1.15.05-.55-.3-.8z" id="eO"/><path fill="url(#y)" d="M136.2 284.6q0-1-.7-1.7-.75-.75-1.75-.75h-8.65q-.95 0-1.65.75-.7.7-.7 1.7t.7 1.7q.7.75 1.65.75h8.65q1 0 1.75-.75.7-.7.7-1.7z" id="eP"/><path fill="url(#z)" d="M125.1 282.15q-.75 0-1.4.45-.6.5-.85 1.2.25.7.85 1.2.65.45 1.4.45h8.65q1.7 0 2.3-1.65-.6-1.65-2.3-1.65h-8.65z" id="eQ"/><path fill="url(#A)" d="M128.9 283.5q0-.25-.65-.45-.7-.2-1.65-.2-.9 0-1.55.2t-.65.45q0 .65 2.2.65 2.3 0 2.3-.65z" id="eR"/><path fill="url(#B)" d="M133.75 307.4q1 0 1.75-.7.7-.65.7-1.65 0-1-.7-1.75-.75-.7-1.75-.7h-8.65q-.95 0-1.65.7-.7.75-.7 1.75t.7 1.65q.7.7 1.65.7h8.65z" id="eS"/><path fill="url(#C)" d="M125.1 302.6q-.75 0-1.4.45-.65.45-.85 1.2.2.7.85 1.15.65.45 1.4.45h8.65q1.7 0 2.3-1.6-.6-1.65-2.3-1.65h-8.65z" id="eT"/><path fill="url(#D)" d="M128.9 303.95q0-.25-.65-.45-.7-.2-1.65-.2-.9 0-1.55.2t-.65.45q0 .25.65.45t1.55.2q2.3 0 2.3-.65z" id="eU"/><path fill="url(#E)" d="M125.1 190.9q-.95 0-1.65.7-.7.75-.7 1.75t.7 1.7q.7.7 1.65.7h8.65q1 0 1.75-.7.7-.7.7-1.7t-.7-1.75q-.75-.7-1.75-.7h-8.65z" id="eV"/><path fill="url(#F)" d="M125.1 190.9q-.75 0-1.4.5-.6.5-.85 1.2.25.7.85 1.1.65.45 1.4.45h8.65q1.7 0 2.3-1.55-.6-1.7-2.3-1.7h-8.65z" id="eW"/><path fill="url(#G)" d="M128.9 192.3q0-.25-.65-.45-.7-.2-1.65-.2-.9 0-1.55.2t-.65.45q0 .25.65.45t1.55.2q2.3 0 2.3-.65z" id="eX"/><path fill="url(#H)" d="M129.45 343.35q9.45 0 17.65-.85 8.1-.8 13.3-2.3 2.25-.6 3.65-1.25 1.9-.85 2.75-1.6l.15-.1q.65-.65.6-1.55 0-.85-.6-1.5-.6-.6-1.45-.6-.85-.05-1.5.55-.5.35-1.65.85-1.25.65-3.05 1.1-5.05 1.4-12.7 2.2-8 .8-17.15.8-9.1 0-17.15-.8-7.7-.8-12.7-2.2-1.8-.45-3-1.1-1.05-.4-1.65-.85-.65-.6-1.5-.55-.85 0-1.45.6-.65.65-.65 1.5 0 .9.65 1.55l.15.1q1 .85 2.7 1.6 1.3.6 3.7 1.25 5.2 1.5 13.25 2.3 8.15.85 17.65.85z" id="eY"/><path fill="url(#I)" d="M78.45 213.15q-.45 0-.75.3-.35.3-.35.8v7.85q0 .5.35.8.3.3.75.3t.8-.3q.3-.3.3-.8v-7.85q0-.5-.3-.8-.35-.3-.8-.3z" id="eZ"/><path fill="url(#J)" d="M180.55 213.15q-.45 0-.75.3-.35.3-.35.8v7.85q0 .5.35.8.3.3.75.3t.75-.3q.35-.35.35-.8v-7.85q0-.45-.35-.8-.3-.3-.75-.3z" id="fa"/><path fill="#C0610D" d="M95.5 293.8q-2.4-1.75-6.85-2.85-4.7-1.1-10.2-1.1-5.5 0-10.15 1.1-4.5 1.1-6.85 2.85 7.25 1.45 17 1.45 9.8 0 17.05-1.45z" id="fb"/><path fill="#C0610D" d="M197.45 293.8q-2.3-1.75-6.8-2.85-4.65-1.1-10.15-1.1-5.6 0-10.25 1.1-4.5 1.1-6.85 2.85 7.25 1.45 17.1 1.45 9.7 0 16.95-1.45z" id="fc"/></defs><use xlink:href="#K"/><use xlink:href="#L" transform="matrix(1.5292 0 0 1.5292 -55.855 -213.081)"/><use xlink:href="#M" transform="matrix(1.5292 0 0 1.5292 -55.855 -213.081)"/><use xlink:href="#N" transform="matrix(1.5292 0 0 1.5292 -55.855 -213.081)"/><use xlink:href="#O" transform="matrix(1.5292 0 0 1.5292 -55.855 -213.081)"/><use xlink:href="#P" transform="matrix(1.5292 0 0 1.5292 -55.855 -213.081)"/><use xlink:href="#Q" transform="matrix(1.5292 0 0 1.5292 -55.855 -213.081)"/><use xlink:href="#R" transform="matrix(1.5292 0 0 1.5292 -55.855 -213.081)"/><use xlink:href="#S" transform="matrix(1.5292 0 0 1.5292 -55.855 -213.081)"/><use xlink:href="#T" transform="matrix(1.5292 0 0 1.5292 -55.855 -213.081)"/><use xlink:href="#U" transform="matrix(1.5292 0 0 1.5292 -55.855 -213.081)"/><use xlink:href="#V" transform="matrix(1.5292 0 0 1.5292 -55.855 -213.081)"/><use xlink:href="#W" transform="matrix(1.5292 0 0 1.5292 -55.855 -213.081)"/><use xlink:href="#X" transform="matrix(1.5292 0 0 1.5292 -55.855 -213.081)"/><use xlink:href="#Y" transform="matrix(1.5292 0 0 1.5292 -55.855 -213.081)"/><use xlink:href="#Z" transform="matrix(1.5292 0 0 1.5292 -55.855 -213.081)"/><use xlink:href="#aa" transform="matrix(1.5292 0 0 1.5292 -55.855 -213.081)"/><use xlink:href="#ab" transform="matrix(1.5292 0 0 1.5292 -55.855 -213.081)"/><use xlink:href="#ac" transform="matrix(1.5292 0 0 1.5292 -55.855 -213.081)"/><use xlink:href="#ad" transform="matrix(1.5292 0 0 1.5292 -55.855 -213.081)"/><use xlink:href="#ae" transform="matrix(1.5292 0 0 1.5292 -55.855 -213.081)"/><use xlink:href="#af" transform="matrix(1.5292 0 0 1.5292 -55.855 -213.081)"/><use xlink:href="#ag" transform="matrix(1.5292 0 0 1.5292 -55.855 -213.081)"/><use xlink:href="#ah" transform="matrix(1.5292 0 0 1.5292 -55.855 -213.081)"/><use xlink:href="#ai" transform="matrix(1.5292 0 0 1.5292 -55.855 -213.081)"/><use xlink:href="#aj" transform="matrix(1.5292 0 0 1.5292 -55.855 -213.081)"/><use xlink:href="#ak" transform="matrix(1.5292 0 0 1.5292 -55.855 -213.081)"/><use xlink:href="#al" transform="matrix(1.5292 0 0 1.5292 -55.855 -213.081)"/><use xlink:href="#am" transform="matrix(1.5292 0 0 1.5292 -55.855 -213.081)"/><use xlink:href="#an" transform="matrix(1.5292 0 0 1.5292 -55.855 -213.081)"/><use xlink:href="#ao" transform="matrix(1.5292 0 0 1.5292 -55.855 -213.081)"/><use xlink:href="#ap" transform="matrix(1.5292 0 0 1.5292 -55.855 -213.081)"/><use xlink:href="#aq" transform="matrix(1.5292 0 0 1.5292 -55.855 -213.081)"/><use xlink:href="#ar" transform="matrix(1.5292 0 0 1.5292 -55.855 -213.081)"/><use xlink:href="#as" transform="matrix(1.5292 0 0 1.5292 -55.855 -213.081)"/><use xlink:href="#at" transform="matrix(1.5292 0 0 1.5292 -55.855 -213.081)"/><use xlink:href="#au" transform="matrix(1.5292 0 0 1.5292 -55.855 -213.081)"/><use xlink:href="#av" transform="matrix(1.5292 0 0 1.5292 -55.855 -213.081)"/><use xlink:href="#aw" transform="matrix(1.5292 0 0 1.5292 -55.855 -213.081)"/><use xlink:href="#ax" transform="matrix(1.5292 0 0 1.5292 -55.855 -213.081)"/><use xlink:href="#ay" transform="matrix(1.5292 0 0 1.5292 -55.855 -213.081)"/><use xlink:href="#az" transform="matrix(1.5292 0 0 1.5292 -55.855 -213.081)"/><use xlink:href="#aA" transform="matrix(1.5292 0 0 1.5292 -55.855 -213.081)"/><use xlink:href="#aB" transform="matrix(1.5292 0 0 1.5292 -55.855 -213.081)"/><use xlink:href="#aC" transform="matrix(1.5292 0 0 1.5292 -55.855 -213.081)"/><use xlink:href="#aD" transform="matrix(1.5292 0 0 1.5292 -55.855 -213.081)"/><use xlink:href="#aE" transform="matrix(1.5292 0 0 1.5292 -55.855 -213.081)"/><use xlink:href="#aF" transform="matrix(1.5292 0 0 1.5292 -55.855 -213.081)"/><use xlink:href="#aG" transform="matrix(1.5292 0 0 1.5292 -55.855 -213.081)"/><use xlink:href="#aH" transform="matrix(1.5292 0 0 1.5292 -55.855 -213.081)"/><use xlink:href="#aI" transform="matrix(1.5292 0 0 1.5292 -55.855 -213.081)"/><use xlink:href="#aJ" transform="matrix(1.5292 0 0 1.5292 -55.855 -213.081)"/><use xlink:href="#aK" transform="matrix(1.5292 0 0 1.5292 -55.855 -213.081)"/><use xlink:href="#aL" transform="matrix(1.5292 0 0 1.5292 -55.855 -213.081)"/><use xlink:href="#aM" transform="matrix(1.5292 0 0 1.5292 -55.855 -213.081)"/><use xlink:href="#aN" transform="matrix(1.5292 0 0 1.5292 -55.855 -213.081)"/><use xlink:href="#aO" transform="matrix(1.5292 0 0 1.5292 -55.855 -213.081)"/><use xlink:href="#aP" transform="matrix(1.5292 0 0 1.5292 -55.855 -213.081)"/><use xlink:href="#aQ" transform="matrix(1.5292 0 0 1.5292 -55.855 -213.081)"/><use xlink:href="#aR" transform="matrix(1.5292 0 0 1.5292 -55.855 -213.081)"/><use xlink:href="#aS" transform="matrix(1.5292 0 0 1.5292 -55.855 -213.081)"/><use xlink:href="#aT" transform="matrix(1.5292 0 0 1.5292 -55.855 -213.081)"/><use xlink:href="#aU" transform="matrix(1.5292 0 0 1.5292 -55.855 -213.081)"/><use xlink:href="#aV" transform="matrix(1.5292 0 0 1.5292 -55.855 -213.081)"/><use xlink:href="#aW" transform="matrix(1.5292 0 0 1.5292 -55.855 -213.081)"/><use xlink:href="#aX" transform="matrix(1.5292 0 0 1.5292 -55.855 -213.081)"/><use xlink:href="#aY" transform="matrix(1.5292 0 0 1.5292 -55.855 -213.081)"/><use xlink:href="#aZ" transform="matrix(1.5292 0 0 1.5292 -55.855 -213.081)"/><use xlink:href="#ba" transform="matrix(1.5292 0 0 1.5292 -55.855 -213.081)"/><use xlink:href="#bb" transform="matrix(1.5292 0 0 1.5292 -55.855 -213.081)"/><use xlink:href="#bc" transform="matrix(1.5292 0 0 1.5292 -55.855 -213.081)"/><use xlink:href="#bd" transform="matrix(1.5292 0 0 1.5292 -55.855 -213.081)"/><use xlink:href="#be" transform="matrix(1.5292 0 0 1.5292 -55.855 -213.081)"/><use xlink:href="#bf" transform="matrix(1.5292 0 0 1.5292 -55.855 -213.081)"/><use xlink:href="#bg" transform="matrix(1.5292 0 0 1.5292 -55.855 -213.081)"/><use xlink:href="#bh" transform="matrix(1.5292 0 0 1.5292 -55.855 -213.081)"/><use xlink:href="#bi" transform="matrix(1.5292 0 0 1.5292 -55.855 -213.081)"/><use xlink:href="#bj" transform="matrix(1.5292 0 0 1.5292 -55.855 -213.081)"/><use xlink:href="#bk" transform="matrix(1.5292 0 0 1.5292 -55.855 -213.081)"/><use xlink:href="#bl" transform="matrix(1.5292 0 0 1.5292 -55.855 -213.081)"/><use xlink:href="#bm" transform="matrix(1.5292 0 0 1.5292 -55.855 -213.081)"/><use xlink:href="#bn" transform="matrix(1.5292 0 0 1.5292 -55.855 -213.081)"/><use xlink:href="#bo" transform="matrix(1.5292 0 0 1.5292 -55.855 -213.081)"/><use xlink:href="#bp" transform="matrix(1.5292 0 0 1.5292 -55.855 -213.081)"/><use xlink:href="#bq" transform="matrix(1.5292 0 0 1.5292 -55.855 -213.081)"/><use xlink:href="#br" transform="matrix(1.5292 0 0 1.5292 -55.855 -213.081)"/><use xlink:href="#bs" transform="matrix(1.5292 0 0 1.5292 -55.855 -213.081)"/><use xlink:href="#bt" transform="matrix(1.5292 0 0 1.5292 -55.855 -213.081)"/><use xlink:href="#bu" transform="matrix(1.5292 0 0 1.5292 -55.855 -213.081)"/><use xlink:href="#bv" transform="matrix(1.5292 0 0 1.5292 -55.855 -213.081)"/><use xlink:href="#bw" transform="matrix(1.5292 0 0 1.5292 -55.855 -213.081)"/><use xlink:href="#bx" transform="matrix(1.5292 0 0 1.5292 -55.855 -213.081)"/><use xlink:href="#by" transform="matrix(1.5292 0 0 1.5292 -55.855 -213.081)"/><use xlink:href="#bz" transform="matrix(1.5292 0 0 1.5292 -55.855 -213.081)"/><use xlink:href="#bA" transform="matrix(1.5292 0 0 1.5292 -55.855 -213.081)"/><use xlink:href="#bB" transform="matrix(1.5292 0 0 1.5292 -55.855 -213.081)"/><use xlink:href="#bC" transform="matrix(1.5292 0 0 1.5292 -55.855 -213.081)"/><use xlink:href="#bD" transform="matrix(1.5292 0 0 1.5292 -55.855 -213.081)"/><use xlink:href="#bE" transform="matrix(1.5292 0 0 1.5292 -55.855 -213.081)"/><use xlink:href="#bF" transform="matrix(1.5292 0 0 1.5292 -55.855 -213.081)"/><use xlink:href="#bG" transform="matrix(1.5292 0 0 1.5292 -55.855 -213.081)"/><use xlink:href="#bH" transform="matrix(1.5292 0 0 1.5292 -55.855 -213.081)"/><use xlink:href="#bI" transform="matrix(1.5292 0 0 1.5292 -55.855 -213.081)"/><use xlink:href="#bJ" transform="matrix(1.5292 0 0 1.5292 -55.855 -213.081)"/><use xlink:href="#bK" transform="matrix(1.5292 0 0 1.5292 -55.855 -213.081)"/><use xlink:href="#bL" transform="matrix(1.5292 0 0 1.5292 -55.855 -213.081)"/><use xlink:href="#bM" transform="matrix(1.5292 0 0 1.5292 -55.855 -213.081)"/><use xlink:href="#bN" transform="matrix(1.5292 0 0 1.5292 -55.855 -213.081)"/><use xlink:href="#bO" transform="matrix(1.5292 0 0 1.5292 -55.855 -213.081)"/><use xlink:href="#bP" transform="matrix(1.5292 0 0 1.5292 -55.855 -213.081)"/><use xlink:href="#bQ" transform="matrix(1.5292 0 0 1.5292 -55.855 -213.081)"/><use xlink:href="#bR" transform="matrix(1.5292 0 0 1.5292 -55.855 -213.081)"/><use xlink:href="#bS" transform="matrix(1.5292 0 0 1.5292 -55.855 -213.081)"/><use xlink:href="#bT" transform="matrix(1.5292 0 0 1.5292 -55.855 -213.081)"/><use xlink:href="#bU" transform="matrix(1.5292 0 0 1.5292 -55.855 -213.081)"/><use xlink:href="#bV" transform="matrix(1.5292 0 0 1.5292 -55.855 -213.081)"/><use xlink:href="#bW" transform="matrix(1.5292 0 0 1.5292 -55.855 -213.081)"/><use xlink:href="#bX" transform="matrix(1.5292 0 0 1.5292 -55.855 -213.081)"/><use xlink:href="#bY" transform="matrix(1.5292 0 0 1.5292 -55.855 -213.081)"/><use xlink:href="#bZ" transform="matrix(1.5292 0 0 1.5292 -55.855 -213.081)"/><use xlink:href="#ca" transform="matrix(1.5292 0 0 1.5292 -55.855 -213.081)"/><use xlink:href="#cb" transform="matrix(1.5292 0 0 1.5292 -55.855 -213.081)"/><use xlink:href="#cc" transform="matrix(1.5292 0 0 1.5292 -55.855 -213.081)"/><use xlink:href="#cd" transform="matrix(1.5292 0 0 1.5292 -55.855 -213.081)"/><use xlink:href="#ce" transform="matrix(1.5292 0 0 1.5292 -55.855 -213.081)"/><use xlink:href="#cf" transform="matrix(1.5292 0 0 1.5292 -55.855 -213.081)"/><use xlink:href="#cg" transform="matrix(1.5292 0 0 1.5292 -55.855 -213.081)"/><use xlink:href="#ch" transform="matrix(1.5292 0 0 1.5292 -55.855 -213.081)"/><use xlink:href="#ci" transform="matrix(1.5292 0 0 1.5292 -55.855 -213.081)"/><use xlink:href="#cj" transform="matrix(1.5292 0 0 1.5292 -55.855 -213.081)"/><use xlink:href="#ck" transform="matrix(1.5292 0 0 1.5292 -55.855 -213.081)"/><use xlink:href="#cl" transform="matrix(1.5292 0 0 1.5292 -55.855 -213.081)"/><use xlink:href="#cm" transform="matrix(1.5292 0 0 1.5292 -55.855 -213.081)"/><use xlink:href="#cn" transform="matrix(1.5292 0 0 1.5292 -55.855 -213.081)"/><use xlink:href="#co" transform="matrix(1.5292 0 0 1.5292 -55.855 -213.081)"/><use xlink:href="#cp" transform="matrix(1.5292 0 0 1.5292 -55.855 -213.081)"/><use xlink:href="#cq" transform="matrix(1.5292 0 0 1.5292 -55.855 -213.081)"/><use xlink:href="#cr" transform="matrix(1.5292 0 0 1.5292 -55.855 -213.081)"/><use xlink:href="#cs" transform="matrix(1.5292 0 0 1.5292 -55.855 -213.081)"/><use xlink:href="#ct" transform="matrix(1.5292 0 0 1.5292 -55.855 -213.081)"/><use xlink:href="#cu" transform="matrix(1.5292 0 0 1.5292 -55.855 -213.081)"/><use xlink:href="#cv" transform="matrix(1.5292 0 0 1.5292 -55.855 -213.081)"/><use xlink:href="#cw" transform="matrix(1.5292 0 0 1.5292 -55.855 -213.081)"/><use xlink:href="#cx" transform="matrix(1.5292 0 0 1.5292 -55.855 -213.081)"/><use xlink:href="#cy" transform="matrix(1.5292 0 0 1.5292 -55.855 -213.081)"/><use xlink:href="#cz" transform="matrix(1.5292 0 0 1.5292 -55.855 -213.081)"/><use xlink:href="#cA" transform="matrix(1.5292 0 0 1.5292 -55.855 -213.081)"/><use xlink:href="#cB" transform="matrix(1.5292 0 0 1.5292 -55.855 -213.081)"/><use xlink:href="#cC" transform="matrix(1.5292 0 0 1.5292 -55.855 -213.081)"/><use xlink:href="#cD" transform="matrix(1.5292 0 0 1.5292 -55.855 -213.081)"/><use xlink:href="#cE" transform="matrix(1.5292 0 0 1.5292 -55.855 -213.081)"/><use xlink:href="#cF" transform="matrix(1.5292 0 0 1.5292 -55.855 -213.081)"/><use xlink:href="#cG" transform="matrix(1.5292 0 0 1.5292 -55.855 -213.081)"/><use xlink:href="#cH" transform="matrix(1.5292 0 0 1.5292 -55.855 -213.081)"/><use xlink:href="#cI" transform="matrix(1.5292 0 0 1.5292 -55.855 -213.081)"/><use xlink:href="#cJ" transform="matrix(1.5292 0 0 1.5292 -55.855 -213.081)"/><use xlink:href="#cK" transform="matrix(1.5292 0 0 1.5292 -55.855 -213.081)"/><use xlink:href="#cL" transform="matrix(1.5292 0 0 1.5292 -55.855 -213.081)"/><use xlink:href="#cM" transform="matrix(1.5292 0 0 1.5292 -55.855 -213.081)"/><use xlink:href="#cN" transform="matrix(1.5292 0 0 1.5292 -55.855 -213.081)"/><use xlink:href="#cO" transform="matrix(1.5292 0 0 1.5292 -55.855 -213.081)"/><use xlink:href="#cP" transform="matrix(1.5292 0 0 1.5292 -55.855 -213.081)"/><use xlink:href="#cQ" transform="matrix(1.5292 0 0 1.5292 -55.855 -213.081)"/><use xlink:href="#cR" transform="matrix(1.5292 0 0 1.5292 -55.855 -213.081)"/><use xlink:href="#cS" transform="matrix(1.5292 0 0 1.5292 -55.855 -213.081)"/><use xlink:href="#cT" transform="matrix(1.5292 0 0 1.5292 -55.855 -213.081)"/><use xlink:href="#cU" transform="matrix(1.5292 0 0 1.5292 -55.855 -213.081)"/><use xlink:href="#cV" transform="matrix(1.5292 0 0 1.5292 -55.855 -213.081)"/><use xlink:href="#cW" transform="matrix(1.5292 0 0 1.5292 -55.855 -213.081)"/><use xlink:href="#cX" transform="matrix(1.5292 0 0 1.5292 -55.855 -213.081)"/><use xlink:href="#cY" transform="matrix(1.5292 0 0 1.5292 -55.855 -213.081)"/><use xlink:href="#cZ" transform="matrix(1.5292 0 0 1.5292 -55.855 -213.081)"/><use xlink:href="#da" transform="matrix(1.5292 0 0 1.5292 -55.855 -213.081)"/><use xlink:href="#db" transform="matrix(1.5292 0 0 1.5292 -55.855 -213.081)"/><use xlink:href="#dc" transform="matrix(1.5292 0 0 1.5292 -55.855 -213.081)"/><use xlink:href="#dd" transform="matrix(1.5292 0 0 1.5292 -55.855 -213.081)"/><use xlink:href="#de" transform="matrix(1.5292 0 0 1.5292 -55.855 -213.081)"/><use xlink:href="#df" transform="matrix(1.5292 0 0 1.5292 -55.855 -213.081)"/><use xlink:href="#dg" transform="matrix(1.5292 0 0 1.5292 -55.855 -213.081)"/><use xlink:href="#dh" transform="matrix(1.5292 0 0 1.5292 -55.855 -213.081)"/><use xlink:href="#di" transform="matrix(1.5292 0 0 1.5292 -55.855 -213.081)"/><use xlink:href="#dj" transform="matrix(1.5292 0 0 1.5292 -55.855 -213.081)"/><use xlink:href="#dk" transform="matrix(1.5292 0 0 1.5292 -55.855 -213.081)"/><use xlink:href="#dl" transform="matrix(1.5292 0 0 1.5292 -55.855 -213.081)"/><use xlink:href="#dm" transform="matrix(1.5292 0 0 1.5292 -55.855 -213.081)"/><use xlink:href="#dn" transform="matrix(1.5292 0 0 1.5292 -55.855 -213.081)"/><use xlink:href="#do" transform="matrix(1.5292 0 0 1.5292 -55.855 -213.081)"/><use xlink:href="#dp" transform="matrix(1.5292 0 0 1.5292 -55.855 -213.081)"/><use xlink:href="#dq" transform="matrix(1.5292 0 0 1.5292 -55.855 -213.081)"/><use xlink:href="#dr" transform="matrix(1.5292 0 0 1.5292 -55.855 -213.081)"/><use xlink:href="#ds" transform="matrix(1.5292 0 0 1.5292 -55.855 -213.081)"/><use xlink:href="#dt" transform="matrix(1.5292 0 0 1.5292 -55.855 -213.081)"/><use xlink:href="#du" transform="matrix(1.5292 0 0 1.5292 -55.855 -213.081)"/><use xlink:href="#dv" transform="matrix(1.5292 0 0 1.5292 -55.855 -213.081)"/><use xlink:href="#dw" transform="matrix(1.5292 0 0 1.5292 -55.855 -213.081)"/><use xlink:href="#dx" transform="matrix(1.5292 0 0 1.5292 -55.855 -213.081)"/><use xlink:href="#dy" transform="matrix(1.5292 0 0 1.5292 -55.855 -213.081)"/><use xlink:href="#dz" transform="matrix(1.5292 0 0 1.5292 -55.855 -213.081)"/><use xlink:href="#dA" transform="matrix(1.5292 0 0 1.5292 -55.855 -213.081)"/><use xlink:href="#dB" transform="matrix(1.5292 0 0 1.5292 -55.855 -213.081)"/><use xlink:href="#dC" transform="matrix(1.5292 0 0 1.5292 -55.855 -213.081)"/><use xlink:href="#dD" transform="matrix(1.5292 0 0 1.5292 -55.855 -213.081)"/><use xlink:href="#dE" transform="matrix(1.5292 0 0 1.5292 -55.855 -213.081)"/><use xlink:href="#dF" transform="matrix(1.5292 0 0 1.5292 -55.855 -213.081)"/><use xlink:href="#dG" transform="matrix(1.5292 0 0 1.5292 -55.855 -213.081)"/><use xlink:href="#dH" transform="matrix(1.5292 0 0 1.5292 -55.855 -213.081)"/><use xlink:href="#dI" transform="matrix(1.5292 0 0 1.5292 -55.855 -213.081)"/><use xlink:href="#dJ" transform="matrix(1.5292 0 0 1.5292 -55.855 -213.081)"/><use xlink:href="#dK" transform="matrix(1.5292 0 0 1.5292 -55.855 -213.081)"/><use xlink:href="#dL" transform="matrix(1.5292 0 0 1.5292 -55.855 -213.081)"/><use xlink:href="#dM" transform="matrix(1.5292 0 0 1.5292 -55.855 -213.081)"/><use xlink:href="#dN" transform="matrix(1.5292 0 0 1.5292 -55.855 -213.081)"/><use xlink:href="#dO" transform="matrix(1.5292 0 0 1.5292 -55.855 -213.081)"/><use xlink:href="#dP" transform="matrix(1.5292 0 0 1.5292 -55.855 -213.081)"/><use xlink:href="#dQ" transform="matrix(1.5292 0 0 1.5292 -55.855 -213.081)"/><use xlink:href="#dR" transform="matrix(1.5292 0 0 1.5292 -55.855 -213.081)"/><use xlink:href="#dS" transform="matrix(1.5292 0 0 1.5292 -55.855 -213.081)"/><use xlink:href="#dT" transform="matrix(1.5292 0 0 1.5292 -55.855 -213.081)"/><use xlink:href="#dU" transform="matrix(1.5292 0 0 1.5292 -55.855 -213.081)"/><use xlink:href="#dV" transform="matrix(1.5292 0 0 1.5292 -55.855 -213.081)"/><use xlink:href="#dW" transform="matrix(1.5292 0 0 1.5292 -55.855 -213.081)"/><use xlink:href="#dX" transform="matrix(1.5292 0 0 1.5292 -55.855 -213.081)"/><use xlink:href="#dY" transform="matrix(1.5292 0 0 1.5292 -55.855 -213.081)"/><use xlink:href="#dZ" transform="matrix(1.5292 0 0 1.5292 -55.855 -213.081)"/><use xlink:href="#ea" transform="matrix(1.5292 0 0 1.5292 -55.855 -213.081)"/><use xlink:href="#eb" transform="matrix(1.5292 0 0 1.5292 -55.855 -213.081)"/><use xlink:href="#ec" transform="matrix(1.5292 0 0 1.5292 -55.855 -213.081)"/><use xlink:href="#ed" transform="matrix(1.5292 0 0 1.5292 -55.855 -213.081)"/><use xlink:href="#ee" transform="matrix(1.5292 0 0 1.5292 -55.855 -213.081)"/><use xlink:href="#ef" transform="matrix(1.5292 0 0 1.5292 -55.855 -213.081)"/><use xlink:href="#eg" transform="matrix(1.5292 0 0 1.5292 -55.855 -213.081)"/><use xlink:href="#eh" transform="matrix(1.5292 0 0 1.5292 -55.855 -213.081)"/><use xlink:href="#ei" transform="matrix(1.5292 0 0 1.5292 -55.855 -213.081)"/><use xlink:href="#ej" transform="matrix(1.5292 0 0 1.5292 -55.855 -213.081)"/><use xlink:href="#ek" transform="matrix(1.5292 0 0 1.5292 -55.855 -213.081)"/><use xlink:href="#el" transform="matrix(1.5292 0 0 1.5292 -55.855 -213.081)"/><use xlink:href="#em" transform="matrix(1.5292 0 0 1.5292 -55.855 -213.081)"/><use xlink:href="#en" transform="matrix(1.5292 0 0 1.5292 -55.855 -213.081)"/><use xlink:href="#eo" transform="matrix(1.5292 0 0 1.5292 -55.855 -213.081)"/><use xlink:href="#ep" transform="matrix(1.5292 0 0 1.5292 -55.855 -213.081)"/><use xlink:href="#eq" transform="matrix(1.5292 0 0 1.5292 -55.855 -213.081)"/><use xlink:href="#er" transform="matrix(1.5292 0 0 1.5292 -55.855 -213.081)"/><use xlink:href="#es" transform="matrix(1.5292 0 0 1.5292 -55.855 -213.081)"/><use xlink:href="#et" transform="matrix(1.5292 0 0 1.5292 -55.855 -213.081)"/><use xlink:href="#eu" transform="matrix(1.5292 0 0 1.5292 -55.855 -213.081)"/><use xlink:href="#ev" transform="matrix(1.5292 0 0 1.5292 -55.855 -213.081)"/><use xlink:href="#ew" transform="matrix(1.5292 0 0 1.5292 -55.855 -213.081)"/><use xlink:href="#ex" transform="matrix(1.5292 0 0 1.5292 -55.855 -213.081)"/><use xlink:href="#ey" transform="matrix(1.5292 0 0 1.5292 -55.855 -213.081)"/><use xlink:href="#ez" transform="matrix(1.5292 0 0 1.5292 -55.855 -213.081)"/><use xlink:href="#eA" transform="matrix(1.5292 0 0 1.5292 -55.855 -213.081)"/><use xlink:href="#eB" transform="matrix(1.5292 0 0 1.5292 -55.855 -213.081)"/><use xlink:href="#eC" transform="matrix(1.5292 0 0 1.5292 -55.855 -213.081)"/><use xlink:href="#eD" transform="matrix(1.5292 0 0 1.5292 -55.855 -213.081)"/><use xlink:href="#eE" transform="matrix(1.5292 0 0 1.5292 -55.855 -213.081)"/><use xlink:href="#eF" transform="matrix(1.5292 0 0 1.5292 -55.855 -213.081)"/><use xlink:href="#eG" transform="matrix(1.5292 0 0 1.5292 -55.855 -213.081)"/><use xlink:href="#eH" transform="matrix(1.5292 0 0 1.5292 -55.855 -213.081)"/><use xlink:href="#eI" transform="matrix(1.5292 0 0 1.5292 -55.855 -213.081)"/><use xlink:href="#eJ" transform="matrix(1.5292 0 0 1.5292 -55.855 -213.081)"/><use xlink:href="#eK" transform="matrix(1.5292 0 0 1.5292 -55.855 -213.081)"/><use xlink:href="#eL" transform="matrix(1.5292 0 0 1.5292 -55.855 -213.081)"/><use xlink:href="#eM" transform="matrix(1.5292 0 0 1.5292 -55.855 -213.081)"/><use xlink:href="#eN" transform="matrix(1.5292 0 0 1.5292 -55.855 -213.081)"/><use xlink:href="#eO" transform="matrix(1.5292 0 0 1.5292 -55.855 -213.081)"/><use xlink:href="#eP" transform="matrix(1.5292 0 0 1.5292 -55.855 -213.081)"/><use xlink:href="#eQ" transform="matrix(1.5292 0 0 1.5292 -55.855 -213.081)"/><use xlink:href="#eR" transform="matrix(1.5292 0 0 1.5292 -55.855 -213.081)"/><use xlink:href="#eS" transform="matrix(1.5292 0 0 1.5292 -55.855 -213.081)"/><use xlink:href="#eT" transform="matrix(1.5292 0 0 1.5292 -55.855 -213.081)"/><use xlink:href="#eU" transform="matrix(1.5292 0 0 1.5292 -55.855 -213.081)"/><use xlink:href="#eV" transform="matrix(1.5292 0 0 1.5292 -55.855 -213.081)"/><use xlink:href="#eW" transform="matrix(1.5292 0 0 1.5292 -55.855 -213.081)"/><use xlink:href="#eX" transform="matrix(1.5292 0 0 1.5292 -55.855 -213.081)"/><use xlink:href="#eY" transform="matrix(1.5292 0 0 1.5292 -55.855 -213.081)"/><use xlink:href="#eZ" transform="matrix(1.5292 0 0 1.5292 -55.855 -213.081)"/><use xlink:href="#fa" transform="matrix(1.5292 0 0 1.5292 -55.855 -213.081)"/><use xlink:href="#fb" transform="matrix(1.5292 0 0 1.5292 -55.855 -213.081)"/><use xlink:href="#fc" transform="matrix(1.5292 0 0 1.5292 -55.855 -213.081)"/></svg>