<svg xmlns="http://www.w3.org/2000/svg" xmlns:xlink="http://www.w3.org/1999/xlink" preserveAspectRatio="none" width="284" height="320"><defs><linearGradient id="a" gradientUnits="userSpaceOnUse" x1="461.188" y1="320.587" x2="541.513" y2="349.813" spreadMethod="pad"><stop offset="0%" stop-color="#E7E8E9"/><stop offset="100%" stop-color="#FFF"/></linearGradient><linearGradient id="b" gradientUnits="userSpaceOnUse" x1="470.575" y1="294.775" x2="550.125" y2="323.725" spreadMethod="pad"><stop offset="0%" stop-color="#E7E8E9"/><stop offset="100%" stop-color="#FFF"/></linearGradient><linearGradient id="c" gradientUnits="userSpaceOnUse" x1="500.488" y1="266.9" x2="460.512" y2="266.9" spreadMethod="pad"><stop offset="0%" stop-color="#B4BDD0"/><stop offset="16.078%" stop-color="#8C9AB3"/><stop offset="78.039%" stop-color="#E7EAF0"/><stop offset="100%" stop-color="#8B97B1"/></linearGradient><linearGradient id="d" gradientUnits="userSpaceOnUse" x1="480.45" y1="224.5" x2="480.45" y2="211.2" spreadMethod="pad"><stop offset="0%" stop-color="#CBD0DE"/><stop offset="100%" stop-color="#BEC5D6"/></linearGradient><linearGradient id="e" gradientUnits="userSpaceOnUse" x1="480.45" y1="216.55" x2="480.45" y2="222.55" spreadMethod="pad"><stop offset="0%" stop-color="#BAC2D3"/><stop offset="100%" stop-color="#AFB8CB"/></linearGradient><linearGradient id="f" gradientUnits="userSpaceOnUse" x1="470.475" y1="276.8" x2="431.725" y2="276.8" spreadMethod="pad"><stop offset="0%" stop-color="#687996"/><stop offset="16.078%" stop-color="#4D5C76"/><stop offset="78.039%" stop-color="#8391AC"/><stop offset="100%" stop-color="#596B89"/></linearGradient><linearGradient id="g" gradientUnits="userSpaceOnUse" x1="464.45" y1="192.1" x2="438.05" y2="192.1" spreadMethod="pad"><stop offset="0%" stop-color="#E67934"/><stop offset="16.078%" stop-color="#A6442D"/><stop offset="69.804%" stop-color="#D86D33"/><stop offset="100%" stop-color="#E67934"/></linearGradient><linearGradient id="h" gradientUnits="userSpaceOnUse" x1="467.45" y1="241.2" x2="433.75" y2="241.2" spreadMethod="pad"><stop offset="0%" stop-color="#A8B2C7"/><stop offset="12.941%" stop-color="#7B89A5"/><stop offset="78.039%" stop-color="#DADEE8"/><stop offset="100%" stop-color="#AFB8CB"/></linearGradient><linearGradient id="i" gradientUnits="userSpaceOnUse" x1="451.1" y1="233.538" x2="451.1" y2="273.563" spreadMethod="pad"><stop offset="0%" stop-color="#687996"/><stop offset="100%" stop-color="#99A5BC"/></linearGradient><linearGradient id="j" gradientUnits="userSpaceOnUse" x1="442.6" y1="243.513" x2="442.6" y2="267.288" spreadMethod="pad"><stop offset="0%" stop-color="#FFF"/><stop offset="100%" stop-color="#CDD2E0"/></linearGradient><linearGradient id="k" gradientUnits="userSpaceOnUse" x1="445.9" y1="214.525" x2="445.9" y2="184.575" spreadMethod="pad"><stop offset="0%" stop-color="#FFF"/><stop offset="100%" stop-color="#FBB881"/></linearGradient><linearGradient id="l" gradientUnits="userSpaceOnUse" x1="451.4" y1="187.525" x2="451.4" y2="164.375" spreadMethod="pad"><stop offset="0%" stop-color="#F58735"/><stop offset="100%" stop-color="#CC6332"/></linearGradient><linearGradient id="m" gradientUnits="userSpaceOnUse" x1="442.5" y1="215" x2="460.9" y2="215" spreadMethod="pad"><stop offset="0%" stop-color="#B4BDD0"/><stop offset="100%" stop-color="#E2E5ED"/></linearGradient><linearGradient id="n" gradientUnits="userSpaceOnUse" x1="469.488" y1="265.75" x2="434.213" y2="265.75" spreadMethod="pad"><stop offset="0%" stop-color="#FFF"/><stop offset="100%" stop-color="#BFC7D8"/></linearGradient><linearGradient id="o" gradientUnits="userSpaceOnUse" x1="473.488" y1="299.6" x2="428.412" y2="299.6" spreadMethod="pad"><stop offset="0%" stop-color="#687996"/><stop offset="16.078%" stop-color="#4D5C76"/><stop offset="78.039%" stop-color="#A8B2C7"/><stop offset="100%" stop-color="#596B89"/></linearGradient><linearGradient id="p" gradientUnits="userSpaceOnUse" x1="472.462" y1="274.95" x2="431.438" y2="274.95" spreadMethod="pad"><stop offset="0%" stop-color="#D3D8E5"/><stop offset="100%" stop-color="#B4BDD0"/></linearGradient><linearGradient id="q" gradientUnits="userSpaceOnUse" x1="473.475" y1="312.3" x2="427.625" y2="312.3" spreadMethod="pad"><stop offset="0%" stop-color="#BFC7D8"/><stop offset="12.941%" stop-color="#939FB8"/><stop offset="69.02%" stop-color="#E2E5ED"/><stop offset="100%" stop-color="#AFB8CB"/></linearGradient><radialGradient id="r" gradientUnits="userSpaceOnUse" cx="0" cy="0" r="5.163" fx="0" fy="0" gradientTransform="matrix(1 0 0 -1 439.45 283.5)" spreadMethod="pad"><stop offset="0%" stop-color="#FFF"/><stop offset="100%" stop-color="#D3D8E5"/></radialGradient><radialGradient id="s" gradientUnits="userSpaceOnUse" cx="0" cy="0" r="2" fx="0" fy="0" gradientTransform="matrix(1 0 0 -1 449.5 292.5)" spreadMethod="pad"><stop offset="0%" stop-color="#FFF"/><stop offset="100%" stop-color="#D3D8E5"/></radialGradient><radialGradient id="t" gradientUnits="userSpaceOnUse" cx="0" cy="0" r="3.512" fx="0" fy="0" gradientTransform="matrix(1 0 0 -1 490.5 232.55)" spreadMethod="pad"><stop offset="0%" stop-color="#FFF"/><stop offset="100%" stop-color="#D3D8E5"/></radialGradient><path fill="#FFF" fill-opacity="0" d="M284 0H0v320h284V0z" id="u"/><path fill="url(#a)" d="M438.3 315.55q-13.1 3.4-13.1 8.2 0 4.75 13.1 8.15 13.15 3.4 31.55 3.4 18.45 0 31.6-3.4 13.1-3.4 13.1-8.15 0-4.8-13.1-8.2-13.15-3.4-31.6-3.4-18.45 0-31.55 3.4z" id="v"/><path fill="url(#b)" d="M478.25 300.9q-13.1 3.35-13.1 8.2 0 4.75 13.1 8.1 13.1 3.4 31.55 3.4 18.4 0 31.55-3.4 13.1-3.35 13.1-8.1 0-4.8-13.1-8.2-13.1-3.4-31.55-3.4-18.5 0-31.55 3.4z" id="w"/><path fill="url(#c)" d="M460.05 309.65q.15 1.85 6.1 3.1 5.95 1.3 14.3 1.3 8.3 0 14.25-1.3 5.95-1.25 6.1-3.1v-89.9h-40.75v89.9z" id="x"/><path fill="url(#d)" d="M480.45 215.7q-8.4 0-14.4 1.15-6 1.2-6 2.8 0 1.6 6 2.8 6 1.15 14.4 1.15t14.4-1.15q5.95-1.2 5.95-2.8 0-1.6-5.95-2.8-6-1.15-14.4-1.15z" id="y"/><path fill="url(#e)" d="M480.45 216.4q-6.9 0-11.75.85-4.9.85-4.9 2.1 0 1.2 4.9 2.05 4.9.85 11.75.85t11.7-.85q4.9-.85 4.9-2.05 0-1.25-4.9-2.1-4.85-.85-11.7-.85z" id="z"/><path fill="url(#f)" d="M431.55 265.15v23.35h39.6v-23.35l-7.15.65-10.15.2-17.15-.35-5.15-.5z" id="A"/><path fill="#373535" d="M451.4 216.5q5.95 0 10.25-.65 4.25-.65 4.25-1.55 0-.85-4.25-1.5-4.3-.65-10.25-.65t-10.2.65q-4.25.65-4.25 1.5 0 .9 4.25 1.55 4.2.65 10.2.65z" id="B"/><path fill="url(#g)" d="M441.45 172.6q-1.55 3.95-2.35 13-1.55 18-.5 33.35h25.55q1.15-14.7-.45-33.05-.8-9.25-2.3-13.15-2.9-7.45-10-7.45-7.05 0-9.95 7.3z" id="D"/><path fill="#FBB881" d="M442.1 171.15q-1.25 2.9-1.25 6 0 3.9 1.85 7.2 1.75 3.15 4.45 4.65v-20.75h10.25q-1.25-1.6-2.8-2.5-1.4-.45-3.2-.45-6.3 0-9.3 5.85z" id="E"/><path fill="url(#h)" d="M468.25 214.55l-6.1 2.1-8.65.55-14.6-.95-4.5-1.7v51.9l14.85 1.45 19-1.45v-51.9z" id="F"/><path fill="url(#i)" d="M453.95 217.05l-6.95-.4v51.3h8.25V216.7l-1.3.35z" id="G"/><path fill="url(#j)" d="M439.3 216.25l-1.55-.4v51.05l9.7.85v-51.1l-8.15-.4z" id="H"/><path fill="url(#k)" d="M448.15 177.75h-4.5v38.65l4.5.6v-39.25z" id="I"/><path fill="url(#l)" d="M444.65 167.05q-3.05 3.85-3.05 8.95 0 5.15 3.05 9 2.95 3.7 6.75 3.7t6.8-3.7q3-3.85 3-9t-3-8.95q-3-3.7-6.8-3.7t-6.75 3.7z" id="J"/><path fill="#FFF" d="M444.05 172.4l-.35 4.75-4.75.4 4.75.25.35 4.85.3-4.85 4.75-.25-4.75-.4-.3-4.75z" id="K"/><path fill="url(#m)" d="M464.5 212.5v.9q1.4.45 1.4.9 0 .9-4.25 1.55-4.3.65-10.25.65-5.6 0-10.2-.8-4.25-.75-4.25-1.4 0-.45.35-.6.25-.1 1-.3v-.9q-2.55.65-2.85.75-1.05.4-1.05 1.2 0 1 5 2 5.35 1.05 12 1.05t12-1.05q4.95-1 4.95-2 0-.8-1-1.2-.3-.1-2.85-.75z" id="L"/><path fill="url(#n)" d="M439.55 266.55q-4.9-.7-5.15-1.7v-1.8q-2.85.95-2.85 1.9 0 1.45 5.8 2.5 5.75 1 14 1t14-1q5.8-1.05 5.8-2.5 0-.95-2.9-1.9v1.8q-.25 1-5.15 1.7-4.95.7-11.75.7t-11.8-.7z" id="M"/><path fill="url(#o)" d="M434.25 276.1l-5.95-1.85V319q.1 2.5 6.85 4.25t16.2 1.75q9.45 0 16.15-1.75 6.7-1.75 6.8-4.25v-44.75l-8.15 2-12.85 1.35-19.05-1.5z" id="N"/><path fill="url(#p)" d="M437.7 275.9q-5.75-.85-6-2.05v-2.05q-3.4 1-3.4 2.15 0 1.7 6.75 2.95 6.75 1.2 16.3 1.2 9.5 0 16.25-1.2 6.8-1.25 6.8-2.95 0-1.1-3.4-2.15v2.05q-.25 1.2-6 2.05-5.7.8-13.65.8t-13.65-.8z" id="O"/><path fill="url(#q)" d="M474.3 313.7v-6.55q-.6 1.6-7.2 2.75-6.65 1.1-15.75 1.1-8.55 0-15.8-1.35-6.55-1.3-7.25-2.6v6.55q.7 1.3 7.25 2.55 7.25 1.4 15.8 1.4 9.1 0 15.75-1.1 6.6-1.15 7.2-2.75z" id="P"/><path fill="#AFB8CB" d="M451.65 311h-.3q-4.5 0-7.95-.35v6.55q3.45.35 7.95.35h.3V311z" id="Q"/><path fill="#FFF" d="M443.85 317.3v-6.55q-5.7-.45-9.7-1.4v6.5q3.8.8 9.7 1.45z" id="R"/><path fill="url(#r)" d="M439.1 271.15l-.65 11.5-11.5.65 11.5.65.65 11.5.65-11.5 11.5-.65-11.5-.65-.65-11.5z" id="S"/><path fill="url(#s)" d="M449.55 287.75l-.35 4.5-4.4.25 4.4.3.35 4.45.3-4.45 4.35-.3-4.35-.25-.3-4.5z" id="T"/><path fill="url(#t)" d="M490.85 224.25l-.55 7.8-7.8.5 7.8.55.55 7.7.5-7.7 7.8-.55-7.8-.5-.5-7.8z" id="U"/><path id="C" stroke="#373535" stroke-width=".2" stroke-linejoin="miter" stroke-linecap="butt" stroke-miterlimit="4" fill="none" d="M451.4 216.5q-6 0-10.2-.65-4.25-.65-4.25-1.55 0-.85 4.25-1.5t10.2-.65q5.95 0 10.25.65 4.25.65 4.25 1.5 0 .9-4.25 1.55-4.3.65-10.25.65z"/></defs><use xlink:href="#u"/><use xlink:href="#v" transform="matrix(1.46536 0 0 1.4654 -575.722 -185.272)"/><use xlink:href="#w" transform="matrix(1.46536 0 0 1.4654 -575.722 -185.272)"/><use xlink:href="#x" transform="matrix(1.46536 0 0 1.4654 -575.722 -185.272)"/><use xlink:href="#y" transform="matrix(1.46536 0 0 1.4654 -575.722 -185.272)"/><use xlink:href="#z" transform="matrix(1.46536 0 0 1.4654 -575.722 -185.272)"/><use xlink:href="#A" transform="matrix(1.46536 0 0 1.4654 -575.722 -185.272)"/><g transform="matrix(1.46536 0 0 1.4654 -575.722 -185.272)"><use xlink:href="#B"/><use xlink:href="#C"/></g><use xlink:href="#D" transform="matrix(1.46536 0 0 1.4654 -575.722 -185.272)"/><use xlink:href="#E" transform="matrix(1.46536 0 0 1.4654 -575.722 -185.272)"/><use xlink:href="#F" transform="matrix(1.46536 0 0 1.4654 -575.722 -185.272)"/><use xlink:href="#G" transform="matrix(1.46536 0 0 1.4654 -575.722 -185.272)"/><use xlink:href="#H" transform="matrix(1.46536 0 0 1.4654 -575.722 -185.272)"/><use xlink:href="#I" transform="matrix(1.46536 0 0 1.4654 -575.722 -185.272)"/><use xlink:href="#J" transform="matrix(1.46536 0 0 1.4654 -575.722 -185.272)"/><use xlink:href="#K" transform="matrix(1.46536 0 0 1.4654 -575.722 -185.272)"/><use xlink:href="#L" transform="matrix(1.46536 0 0 1.4654 -575.722 -185.272)"/><use xlink:href="#M" transform="matrix(1.46536 0 0 1.4654 -575.722 -185.272)"/><use xlink:href="#N" transform="matrix(1.46536 0 0 1.4654 -575.722 -185.272)"/><use xlink:href="#O" transform="matrix(1.46536 0 0 1.4654 -575.722 -185.272)"/><use xlink:href="#P" transform="matrix(1.46536 0 0 1.4654 -575.722 -185.272)"/><use xlink:href="#Q" transform="matrix(1.46536 0 0 1.4654 -575.722 -185.272)"/><use xlink:href="#R" transform="matrix(1.46536 0 0 1.4654 -575.722 -185.272)"/><use xlink:href="#S" transform="matrix(1.46536 0 0 1.4654 -575.722 -185.272)"/><use xlink:href="#T" transform="matrix(1.46536 0 0 1.4654 -575.722 -185.272)"/><use xlink:href="#U" transform="matrix(1.46536 0 0 1.4654 -575.722 -185.272)"/></svg>