<svg xmlns="http://www.w3.org/2000/svg" xmlns:xlink="http://www.w3.org/1999/xlink" preserveAspectRatio="none" width="284" height="320"><defs><linearGradient id="a" gradientUnits="userSpaceOnUse" x1="344.325" y1="297.075" x2="328.175" y2="236.825" spreadMethod="pad"><stop offset="0%" stop-color="#0092D5"/><stop offset="100%" stop-color="#00A0E1"/></linearGradient><linearGradient id="b" gradientUnits="userSpaceOnUse" x1="342.975" y1="234.588" x2="345.725" y2="273.913" spreadMethod="pad"><stop offset="0%" stop-color="#83D4F7"/><stop offset="100%" stop-color="#00BAF2"/></linearGradient><linearGradient id="c" gradientUnits="userSpaceOnUse" x1="294.988" y1="299.75" x2="320.113" y2="328.65" spreadMethod="pad"><stop offset="0%" stop-color="#0084C9"/><stop offset="100%" stop-color="#1362AD"/></linearGradient><linearGradient id="d" gradientUnits="userSpaceOnUse" x1="285.275" y1="289.712" x2="272.925" y2="278.587" spreadMethod="pad"><stop offset="0%" stop-color="#00B0F0"/><stop offset="100%" stop-color="#9DDCF9"/></linearGradient><linearGradient id="e" gradientUnits="userSpaceOnUse" x1="266.95" y1="295.262" x2="303.15" y2="326.738" spreadMethod="pad"><stop offset="0%" stop-color="#0076BD"/><stop offset="100%" stop-color="#1E4B82"/></linearGradient><linearGradient id="f" gradientUnits="userSpaceOnUse" x1="296.287" y1="269.25" x2="334.613" y2="302.55" spreadMethod="pad"><stop offset="0%" stop-color="#83D4F7"/><stop offset="100%" stop-color="#00B5F1"/></linearGradient><linearGradient id="g" gradientUnits="userSpaceOnUse" x1="304.962" y1="260.4" x2="342.337" y2="292.9" spreadMethod="pad"><stop offset="0%" stop-color="#83D4F7"/><stop offset="100%" stop-color="#00B5F1"/></linearGradient><linearGradient id="h" gradientUnits="userSpaceOnUse" x1="298.825" y1="267.512" x2="336.175" y2="299.988" spreadMethod="pad"><stop offset="0%" stop-color="#83D4F7"/><stop offset="100%" stop-color="#00B5F1"/></linearGradient><linearGradient id="i" gradientUnits="userSpaceOnUse" x1="306.563" y1="258.6" x2="343.938" y2="291.1" spreadMethod="pad"><stop offset="0%" stop-color="#83D4F7"/><stop offset="100%" stop-color="#00B5F1"/></linearGradient><linearGradient id="j" gradientUnits="userSpaceOnUse" x1="303.15" y1="261.387" x2="341.25" y2="294.512" spreadMethod="pad"><stop offset="0%" stop-color="#83D4F7"/><stop offset="100%" stop-color="#00B5F1"/></linearGradient><linearGradient id="k" gradientUnits="userSpaceOnUse" x1="312.837" y1="251.35" x2="350.563" y2="284.15" spreadMethod="pad"><stop offset="0%" stop-color="#83D4F7"/><stop offset="100%" stop-color="#00B5F1"/></linearGradient><linearGradient id="l" gradientUnits="userSpaceOnUse" x1="323.462" y1="239.125" x2="361.038" y2="271.775" spreadMethod="pad"><stop offset="0%" stop-color="#83D4F7"/><stop offset="100%" stop-color="#00B5F1"/></linearGradient><linearGradient id="m" gradientUnits="userSpaceOnUse" x1="336.512" y1="224.1" x2="374.588" y2="257.2" spreadMethod="pad"><stop offset="0%" stop-color="#83D4F7"/><stop offset="100%" stop-color="#00B5F1"/></linearGradient><linearGradient id="n" gradientUnits="userSpaceOnUse" x1="347.3" y1="210.55" x2="385.6" y2="243.85" spreadMethod="pad"><stop offset="0%" stop-color="#83D4F7"/><stop offset="100%" stop-color="#00B5F1"/></linearGradient><linearGradient id="o" gradientUnits="userSpaceOnUse" x1="340.137" y1="219.963" x2="377.963" y2="252.838" spreadMethod="pad"><stop offset="0%" stop-color="#83D4F7"/><stop offset="100%" stop-color="#00B5F1"/></linearGradient><linearGradient id="p" gradientUnits="userSpaceOnUse" x1="345.988" y1="211.1" x2="384.412" y2="244.5" spreadMethod="pad"><stop offset="0%" stop-color="#83D4F7"/><stop offset="100%" stop-color="#00B5F1"/></linearGradient><linearGradient id="q" gradientUnits="userSpaceOnUse" x1="349.888" y1="208.762" x2="387.813" y2="241.738" spreadMethod="pad"><stop offset="0%" stop-color="#83D4F7"/><stop offset="100%" stop-color="#00B5F1"/></linearGradient><linearGradient id="r" gradientUnits="userSpaceOnUse" x1="340.475" y1="217.45" x2="379.125" y2="251.05" spreadMethod="pad"><stop offset="0%" stop-color="#83D4F7"/><stop offset="100%" stop-color="#00B5F1"/></linearGradient><linearGradient id="s" gradientUnits="userSpaceOnUse" x1="337.625" y1="220.713" x2="376.475" y2="254.487" spreadMethod="pad"><stop offset="0%" stop-color="#83D4F7"/><stop offset="100%" stop-color="#00B5F1"/></linearGradient><linearGradient id="t" gradientUnits="userSpaceOnUse" x1="326.438" y1="235.75" x2="364.063" y2="268.45" spreadMethod="pad"><stop offset="0%" stop-color="#83D4F7"/><stop offset="100%" stop-color="#00B5F1"/></linearGradient><linearGradient id="u" gradientUnits="userSpaceOnUse" x1="312.8" y1="250.287" x2="351" y2="283.512" spreadMethod="pad"><stop offset="0%" stop-color="#83D4F7"/><stop offset="100%" stop-color="#00B5F1"/></linearGradient><linearGradient id="v" gradientUnits="userSpaceOnUse" x1="296" y1="270.762" x2="333.7" y2="303.537" spreadMethod="pad"><stop offset="0%" stop-color="#83D4F7"/><stop offset="100%" stop-color="#00B5F1"/></linearGradient><linearGradient id="w" gradientUnits="userSpaceOnUse" x1="310.637" y1="280.212" x2="272.262" y2="210.987" spreadMethod="pad"><stop offset="0%" stop-color="#00B5F1"/><stop offset="100%" stop-color="#9DDCF9"/></linearGradient><linearGradient id="x" gradientUnits="userSpaceOnUse" x1="295.988" y1="221.637" x2="305.613" y2="257.563" spreadMethod="pad"><stop offset="0%" stop-color="#D5EFFC"/><stop offset="100%" stop-color="#9ADBF9"/></linearGradient><linearGradient id="y" gradientUnits="userSpaceOnUse" x1="250.15" y1="287.013" x2="293.75" y2="312.188" spreadMethod="pad"><stop offset="0%" stop-color="#00BAF2"/><stop offset="100%" stop-color="#009ADC"/></linearGradient><linearGradient id="z" gradientUnits="userSpaceOnUse" x1="290.275" y1="310.9" x2="239.325" y2="280.1" spreadMethod="pad"><stop offset="0%" stop-color="#00BBF2"/><stop offset="100%" stop-color="#ADE1FA"/></linearGradient><linearGradient id="A" gradientUnits="userSpaceOnUse" x1="291.025" y1="309.65" x2="240.075" y2="278.85" spreadMethod="pad"><stop offset="0%" stop-color="#00BBF2"/><stop offset="100%" stop-color="#ADE1FA"/></linearGradient><linearGradient id="B" gradientUnits="userSpaceOnUse" x1="291.175" y1="309.45" x2="240.225" y2="278.65" spreadMethod="pad"><stop offset="0%" stop-color="#00BBF2"/><stop offset="100%" stop-color="#ADE1FA"/></linearGradient><linearGradient id="C" gradientUnits="userSpaceOnUse" x1="290.725" y1="310.1" x2="239.775" y2="279.3" spreadMethod="pad"><stop offset="0%" stop-color="#00BBF2"/><stop offset="100%" stop-color="#ADE1FA"/></linearGradient><linearGradient id="D" gradientUnits="userSpaceOnUse" x1="234.025" y1="295.675" x2="275.675" y2="319.725" spreadMethod="pad"><stop offset="0%" stop-color="#0076BD"/><stop offset="100%" stop-color="#1E4B82"/></linearGradient><linearGradient id="E" gradientUnits="userSpaceOnUse" x1="256.675" y1="264.063" x2="300.425" y2="289.337" spreadMethod="pad"><stop offset="0%" stop-color="#CDECFC"/><stop offset="100%" stop-color="#9DDCF9"/></linearGradient><linearGradient id="F" gradientUnits="userSpaceOnUse" x1="263.65" y1="253.713" x2="306.55" y2="278.488" spreadMethod="pad"><stop offset="0%" stop-color="#CDECFC"/><stop offset="100%" stop-color="#9DDCF9"/></linearGradient><linearGradient id="G" gradientUnits="userSpaceOnUse" x1="259" y1="261.713" x2="301.9" y2="286.488" spreadMethod="pad"><stop offset="0%" stop-color="#CDECFC"/><stop offset="100%" stop-color="#9DDCF9"/></linearGradient><linearGradient id="H" gradientUnits="userSpaceOnUse" x1="264.962" y1="251.425" x2="307.837" y2="276.175" spreadMethod="pad"><stop offset="0%" stop-color="#CDECFC"/><stop offset="100%" stop-color="#9DDCF9"/></linearGradient><linearGradient id="I" gradientUnits="userSpaceOnUse" x1="262.838" y1="255.075" x2="305.863" y2="279.925" spreadMethod="pad"><stop offset="0%" stop-color="#CDECFC"/><stop offset="100%" stop-color="#9DDCF9"/></linearGradient><linearGradient id="J" gradientUnits="userSpaceOnUse" x1="269.825" y1="243.063" x2="312.775" y2="267.837" spreadMethod="pad"><stop offset="0%" stop-color="#CDECFC"/><stop offset="100%" stop-color="#9DDCF9"/></linearGradient><linearGradient id="K" gradientUnits="userSpaceOnUse" x1="277.988" y1="228.887" x2="321.512" y2="254.012" spreadMethod="pad"><stop offset="0%" stop-color="#CDECFC"/><stop offset="100%" stop-color="#9DDCF9"/></linearGradient><linearGradient id="L" gradientUnits="userSpaceOnUse" x1="287.9" y1="211.713" x2="330.8" y2="236.487" spreadMethod="pad"><stop offset="0%" stop-color="#CDECFC"/><stop offset="100%" stop-color="#9DDCF9"/></linearGradient><linearGradient id="M" gradientUnits="userSpaceOnUse" x1="296.5" y1="196.8" x2="339.6" y2="221.7" spreadMethod="pad"><stop offset="0%" stop-color="#CDECFC"/><stop offset="100%" stop-color="#9DDCF9"/></linearGradient><linearGradient id="N" gradientUnits="userSpaceOnUse" x1="289.825" y1="206.625" x2="333.875" y2="232.075" spreadMethod="pad"><stop offset="0%" stop-color="#CDECFC"/><stop offset="100%" stop-color="#9DDCF9"/></linearGradient><linearGradient id="O" gradientUnits="userSpaceOnUse" x1="295.775" y1="198.05" x2="339.225" y2="223.15" spreadMethod="pad"><stop offset="0%" stop-color="#CDECFC"/><stop offset="100%" stop-color="#9DDCF9"/></linearGradient><linearGradient id="P" gradientUnits="userSpaceOnUse" x1="297.1" y1="193.963" x2="341.4" y2="219.537" spreadMethod="pad"><stop offset="0%" stop-color="#CDECFC"/><stop offset="100%" stop-color="#9DDCF9"/></linearGradient><linearGradient id="Q" gradientUnits="userSpaceOnUse" x1="290.75" y1="205.012" x2="334.85" y2="230.488" spreadMethod="pad"><stop offset="0%" stop-color="#CDECFC"/><stop offset="100%" stop-color="#9DDCF9"/></linearGradient><linearGradient id="R" gradientUnits="userSpaceOnUse" x1="289.287" y1="209.238" x2="332.613" y2="234.262" spreadMethod="pad"><stop offset="0%" stop-color="#CDECFC"/><stop offset="100%" stop-color="#9DDCF9"/></linearGradient><linearGradient id="S" gradientUnits="userSpaceOnUse" x1="279.213" y1="224.987" x2="322.887" y2="250.213" spreadMethod="pad"><stop offset="0%" stop-color="#CDECFC"/><stop offset="100%" stop-color="#9DDCF9"/></linearGradient><linearGradient id="T" gradientUnits="userSpaceOnUse" x1="270.025" y1="242.637" x2="313.175" y2="267.563" spreadMethod="pad"><stop offset="0%" stop-color="#CDECFC"/><stop offset="100%" stop-color="#9DDCF9"/></linearGradient><linearGradient id="U" gradientUnits="userSpaceOnUse" x1="256.95" y1="265.275" x2="300.15" y2="290.225" spreadMethod="pad"><stop offset="0%" stop-color="#CDECFC"/><stop offset="100%" stop-color="#9DDCF9"/></linearGradient><path fill="#FFF" fill-opacity="0" d="M284 0H0v320h284V0z" id="V"/><path fill="url(#a)" d="M386.3 235.2q-2.2-8.3-8.35-14.65-6.15-6.4-14.35-8.8-8.75-2.6-17.55.25-9.2 3.05-18.2 13.3-6.664 7.559-12.6 18.25 2.05-4.319 3.15-10.65 1.45-8.05.45-13.75-.7-4.05-4-6.3-2.9-1.9-5.95-1.5-3.3.45-5.75 3.95-2.3 3.2-3.1 7.75-1 5.7-1.8 15.75-.7 9.4-1.6 13.65-2.9 14.25-16.3 24.45l45.3 40.45q7.95-14.25 15.3-20.4 4.75-4 17.5-12.2 21.65-15.85 27.25-32.35 2.9-8.45.6-17.2z" id="W"/><path fill="url(#b)" d="M336.2 233.65q-.35.65-.15 1.35l.45 1.3-.65-.3q-.65-.4-1.35-.15-.75.25-1.1.95-.35.65-.1 1.35.25.7.9 1l3.9 1.95.4 1.25-2.85-1.45q-.65-.35-1.35-.1-.7.25-1.1.9-.35.65-.1 1.35.25.7.9 1l6.1 3.1.65 2-1.1.95-.85 1.25-2-.45-3.75-5.7q-.45-.65-1.15-.75-.7-.15-1.4.25-.55.4-.75 1.1-.15.75.25 1.35l1.75 2.75-1.25-.3-2.35-3.6q-.35-.65-1.1-.8-.75-.15-1.35.25-.65.4-.8 1.15-.2.7.2 1.35l.45.65-1.35-.3q-.7-.15-1.35.25-.65.45-.75 1.15-.15.75.25 1.35.4.6 1.1.8l1.4.3-.65.35q-.6.45-.75 1.15-.2.75.25 1.35.45.6 1.15.8.75.15 1.35-.3l3.6-2.35 1.25.2-2.7 1.8q-.65.35-.75 1.1-.15.75.25 1.4.4.6 1.1.75.75.15 1.35-.25l5.7-3.7 2.1.4q.05 1.35.9 2.75l-1.4 1.6-6.8.35q-.75.05-1.25.6-.5.6-.45 1.35.05.75.6 1.2.55.5 1.35.45l3.15-.15-.8.95-4.4.2q-.75.05-1.2.6-.5.6-.45 1.35 0 .7.55 1.2t1.35.45h.7l-.85 1q-.55.55-.5 1.3.05.75.65 1.25.55.45 1.25.45.75-.05 1.25-.6l.95-1v.7q.05.75.6 1.25.55.55 1.35.45.75-.05 1.2-.6.5-.55.45-1.3l-.25-4.35.8-.95.2 3.25q.1.75.6 1.2.55.5 1.3.45.75-.05 1.25-.6.55-.55.5-1.25l-.45-6.85 1.45-1.6q1.15.6 2.65.6h.15l.7 2.1-3.1 6.05q-.3.65-.05 1.35.2.7.85 1 .7.4 1.45.15.7-.2 1-.95l1.45-2.8.35 1.15-1.95 3.9q-.3.65-.05 1.35.2.75.85 1.1.65.35 1.4.1.7-.25 1.05-.9l.3-.7.4 1.35q.3.7.95 1.05.7.35 1.4.1.7-.25 1-.9.35-.7.15-1.4l-.45-1.3.65.3q.7.35 1.4.15.7-.25 1.05-.95.3-.65.05-1.35-.2-.7-.85-1l-3.9-2.05-.4-1.15 2.85 1.45q.65.35 1.35.1.7-.25 1.1-.9.35-.65.1-1.35-.25-.7-.9-1.1l-6.1-3-.65-2.05q.6-.4 1.1-1 .6-.6.85-1.15l2.1.45 3.65 5.7q.45.6 1.15.75.75.15 1.35-.25.65-.45.8-1.15.15-.7-.25-1.4l-1.75-2.65 1.2.3 2.4 3.6q.35.65 1.1.8.75.1 1.35-.3.65-.35.8-1.1.15-.75-.25-1.35l-.4-.65 1.35.3q.7.15 1.35-.25.65-.45.75-1.15.15-.75-.2-1.35-.4-.65-1.15-.8l-1.4-.3.65-.4q.6-.4.8-1.1.15-.75-.3-1.35-.4-.65-1.15-.8-.7-.15-1.35.3l-3.6 2.35-1.25-.3 2.7-1.7q.65-.45.8-1.15.1-.7-.3-1.4-.4-.55-1.1-.7-.75-.15-1.35.2l-5.7 3.75-2.1-.4q-.05-1.35-.9-2.75l1.4-1.6 6.8-.4q.75 0 1.25-.55.55-.6.45-1.35-.05-.75-.6-1.2-.55-.5-1.35-.5l-3.15.2.85-.95 4.35-.2q.75-.05 1.2-.65.5-.55.45-1.3 0-.75-.55-1.25-.55-.45-1.35-.4h-.7l.85-1q.55-.55.5-1.3-.05-.75-.65-1.25-.55-.55-1.25-.5-.75.05-1.25.65l-.95 1v-.7q-.05-.75-.6-1.25-.6-.55-1.35-.5-.75.1-1.2.65-.5.55-.45 1.25l.25 4.4-.8.9-.25-3.2q-.05-.8-.55-1.25-.55-.5-1.3-.45-.75.1-1.25.6-.55.55-.5 1.3l.45 6.75-1.45 1.6q-1.45-.6-2.65-.6h-.15l-.7-2 3.1-6.05q.3-.65.05-1.35-.2-.7-.85-1.1-.75-.3-1.45-.05-.75.25-1 .85l-1.45 2.9-.35-1.15 1.95-3.9q.3-.7.05-1.4-.2-.7-.85-1.05-.65-.35-1.35-.1-.7.25-1.1.9l-.3.7-.45-1.35q-.25-.7-.9-1.05-.7-.3-1.4-.1-.65.25-1 .95m8.15 17.95q1.05 0 1.8.75t.85 1.8q0 1.1-.65 1.95-.75.85-1.85.85h-.15q-1.1 0-1.8-.65-.75-.75-.85-1.8 0-1.25.65-1.95.7-.8 1.85-.95h.15z" id="X"/><path fill="#9DDCF9" d="M296.05 259.75l-.1.1h-2v1h1.95l.15-.1h.55l.15-.05h.35l.15-.1h.35l.1-.05h.05l-.15-.95h-.4l-.1.1h-.35l-.15.05h-.55m9.25-2v-.1l-.5-.85v.1h-.1l-.1.05-.05.05-.15.1-.1.05h-.05l-.15.1-.15.15h-.15l-.05.05-.1.05h-.15l-.05.1-.05.05h-.15l-.1.1-.15.05-.05.1h-.05l-.15.05h-.1l-.15.1-.05.05h-.15l-.15.15H302l-.05.05h-.15l-.1.1-.1.05h-.1l-.05.1h-.15l-.1.05h-.15l-.05.1h-.15l-.05.05h-.15l-.1.05h-.1v.1l.25.95h.1l.05-.1h.15l.05-.05h.15l.1-.1.15-.05h.05l.15-.1h.15l.05-.05.15-.1h.1l.15-.05h.05l.15-.05.05-.1h.15l.1-.05.15-.1h.05l.15-.05.05-.1h.1l.15-.05.05-.05h.15l.05-.1.15-.05.1-.1h.15l.05-.05.05-.1.15-.05h.1l.15-.1.05-.05.15-.05h.05l.1-.1.15-.05.05-.1.1-.05h.1m5.3-5.85l-.1.15-.05.1-.1.05v.05l-.05.1-.1.05-.05.1-.1.05-.05.1-.05.05-.1.05-.05.1-.1.05-.05.15-.15.15-.05.1-.1.05-.15.05-.05.1-.1.05-.05.1-.1.05-.05.1-.05.05-.1.05-.05.1-.1.05-.05.1-.1.05-.15.1-.05.05-.05.1-.1.05-.3.3-.1.05-.25.25h-.05l-.1.05.6.8.05-.1.15-.05.1-.05.05-.1.15-.15.15-.05.05-.1.1-.05.05-.1.2-.1.45-.45.15-.1.05-.05.1-.05.05-.1.1-.05.05-.1.1-.05.05-.1.05-.15.1-.05.15-.05.05-.1.1-.05.05-.1.1-.05.05-.1.05-.05.1-.05.05-.15.45-.45.05-.15.1-.05.05-.1-.7-.65h-.1l-.05.1-.05.05m4.9-6.7l-.95-.2q-.85 2.5-2.05 4.4l.8.5q1.55-2.4 2.2-4.7z" id="Y"/><path fill="url(#c)" d="M332.65 315.15q-.1-1.35-1.1-2.4-23.15-25.9-48.2-43.15-1.2-.8-2.55-.75-1.4.05-2.35 1.05L263 287.25q-.95 1.1-.9 2.6 0 1.55 1.15 2.3 13.1 8.9 26.2 20.7 12.4 11.15 22.05 22.35.9 1.05 2.45.95 1.45-.15 2.45-1.25l15.4-17.35q.95-1 .85-2.4z" id="Z"/><path fill="#00A7E7" d="M309.2 325.85l-.35-.45-.35-.35-.45-.4-.15-.25-.2-.15-.2-.2-.15-.2-.25-.15-.2-.2-.15-.25-.2-.2-.2-.15v-.05l-.75.7h.1l.35.45.8.75.15.15.35.45.2.2.2.15.15.2.25.25.2.15.55.65.15.15.75-.65-.15-.25-.2-.2-.25-.15m5.25 5.55l-.35-.35-.35-.45-.2-.2-.15-.25-.25-.1-.35-.45-.35-.35-.2-.25-.25-.2-.1-.2-.75.7.6.6.15.2.35.35.35.45.2.2.25.15.1.2.25.25.15.2.35.35.35.45.3.3.7-.75-.4-.4-.15-.25-.25-.2m-19.05-19.25l-.45-.35-.05-.15-.75.8.15.1.35.35.45.35.8.8.2.15.35.35.25.2.2.25.45.35.15.2.2.15.15.15.55-.7-.05-.15-.25-.25-.1-.15-.45-.35-.15-.2-.2-.2-.25-.15-.2-.25-.55-.55-.25-.15-.4-.45-.15-.15m-7.05-5l.15.2.2.15.4.4.25.15.2.25.65.5.15.2.45.35.2.25.65.5.15.2.15.15.7-.8-.15-.15-.2-.15-.2-.2-.25-.15-.2-.2-.45-.35-.15-.25-.2-.15-.2-.2-.25-.15-.2-.2-.65-.5-.2-.25-.15-.1-.2-.25-.1-.05-.7.7.15.1m-3.4-4.2l-.65-.55-.45-.3-.2-.2-.2-.15-.25-.25-.2-.15-.2-.2-.65.8.2.15.2.2.25.15.2.2.2.15.25.25.2.1.2.25.25.15.2.2.65.5.2.2.25.15.2.25.35.25.65-.7-.2-.15-.15-.2-.65-.5-.2-.25-.25-.15-.2-.2m19.1 17.55l-.25-.1-.15-.25-.2-.2-.2-.15-.35-.45-.45-.35-.15-.2-.2-.2-.25-.15-.15-.25-.2-.2-.45-.35-.1-.2-.25-.15-.05-.1-.75.75.1.05.45.35.1.25.25.15.55.55.25.2.2.25.55.55.25.15.35.45.2.15.15.2.2.15.65-.75-.1-.15m-26.95-23.95l-.6-.45-.55.8.05.1.75.5.2.2.65.5.2.2.45.3.2.2.25.15.2.25.65.5.2.2h.1l.65-.8h-.1l-.2-.2-1.3-1-.2-.25-.25-.1-.25-.25-.25-.15-.2-.2-.45-.3-.2-.2m-5.35-4.2l-.5-.25-.2-.25-.45-.25-.2-.25-.2-.15-.6.8.15.15.75.5.2.25.2.1.2.25.25.15.3.1.2.25.85.65.2.2.25.15.4.3.6-.8-.15-.15-.45-.3-.2-.2-.3-.15-.2-.2-.45-.3-.2-.2-.2-.15-.25-.25m-6.65-4.85l-1.4-.95-.55.8.2.15.2.1.3.25.45.3.2.2.2.15.3.15.2.2.45.3.2.2.3.15.85.65.15.05.6-.8-.35-.2-.9-.7-.5-.3-.2-.2-.45-.3-.25-.2z" id="aa"/><path fill="#00A7E7" d="M316 300.85l-.45-.4-.7.7.4.45.25.15.1.2.25.2.2.25.2.1.15.25.45.35.35.45.8.75.2.25.15.15.7-.75-.2-.15-.15-.2-.2-.2-.2-.15-.15-.2-.45-.45-.2-.15-.35-.45-.25-.1-.15-.25-.4-.4-.25-.15-.1-.25m-6.05-5.8l-.25-.15-.65.7.25.25.2.1.15.25.2.2.65.5.15.25.2.2.25.15 1 1 .2.15.15.2.2.2.75-.7-.25-.2-.2-.25-.2-.15-.15-.2-.2-.2-.25-.15-.2-.2-.15-.25-.45-.35-.2-.2-.2-.15-.35-.45-.25-.15-.4-.4m-6.65-4.6l.2.1.25.25.2.15.6.55.2.25.2.1.25.25.2.15.2.2.25.15.2.2.15.2.2.15.2.25.25.1v.1l.7-.8h-.05l-.25-.15-.15-.2-.2-.2-.2-.15-.2-.25-.25-.1-.4-.45-.25-.15-.15-.2-.2-.15-.2-.25-.25-.1-.4-.45-.25-.15-.35-.35-.65.7.15.25m-1.8-2.9l-.05-.05-.25-.15-.15-.25-.2-.15-.2-.2-.65-.5-.2-.2-.25-.15-.2-.2-.2-.15-.25-.25-.2-.15-.2-.2-.25-.15-.5-.5-.65.8.15.15.45.3.55.55.25.15.2.2.2.15.25.25.2.1.2.25.25.15.2.2.45.35.1.15.25.2h.05l.65-.7m-12.45-10.1l-.15-.05-.2-.15-.2-.2-.25-.15-.65-.5-.3-.15-.2-.15-.2-.2-.65-.45-.2-.2-.3-.15-.45-.3-.3-.3-.55.9.05.05 1.6 1.1.2.2.25.15.9.65.25.15.2.2.45.3.15.15.55-.9m6.35 5l-.3-.3-1.3-1-.2-.25-.25-.1-.2-.15-.2-.25-.25-.1-.2-.15-.2-.25-.85-.55-.6.8.15.05.65.5.2.2.45.3.2.25.45.25.2.25.2.15.25.1.2.25.85.65.15.05.6-.7m-17.6-11.6l.3.15.65.5.3.15.2.15.25.1.7.55.45.25 1.35.95.55-.85-.2-.1-.2-.2-.3-.15-.65-.45-.2-.2-.3-.15-.2-.15-.25-.1-.7-.55-1.15-.7-.6.8m46.7 38.8l-.25-.2-.35-.35-.35-.45-.25-.2-.2-.25-.55-.55-.15-.25-.45-.35-.15-.2-.2-.2-.35-.45-.1-.05-.7.7.05.05.15.25.25.15.2.2.55.65.6.55.15.25.8.8.1.2.25.2.3.3.7-.65-.05-.15m5.25 5.85l-.25-.25-.15-.2-.2-.2-.15-.25-.4-.4-.15-.25-.25-.2-.55-.55-.15-.25-.2-.2-.15-.2-.5-.5-.8.65.15.1.35.45.2.15.35.45.25.2.5.65.2.2.2.15.15.2.25.25.15.2.2.2.15.25.2.2.1.05.7-.7h-.05l-.15-.2z" id="ab"/><path fill="url(#d)" d="M277.05 277.6q-.5.15-.4.75l.15.35-.2-.1q-.15-.1-.4 0-.25.05-.35.25-.2.55.25.8l1.2.55.15.35-.85-.4q-.5-.25-.8.25-.3.45.3.75l1.85.95.25.65-.4.25-.25.35-.65-.1-1.15-1.75q-.25-.55-.75-.15-.5.25-.2.75l.55.85-.35-.1-.8-1.15q-.05-.15-.3-.2-.25-.05-.4.05-.5.25-.2.8l.15.15-.45-.05q-.2-.05-.4.05-.2.15-.25.35-.05.25.1.45.15.2.35.2l.4.15-.2.1q-.4.4-.15.75.3.6.8.15l1.05-.7.45.05-.85.6q-.4.3-.15.8.3.4.8.15l1.7-1.15.65.1q.25.7.3.8l-.45.5-2.05.15q-.6 0-.6.6.2.55.65.5h.95l-.25.3-1.35.05q-.2 0-.4.2-.15.2-.1.4 0 .2.2.35.2.2.4.15h.2l-.3.35q-.35.35.1.8.4.3.75-.1l.3-.35v.3q0 .5.6.5.2 0 .35-.2.2-.2.2-.4l-.15-1.35.3-.3.1 1q0 .55.55.55.25 0 .4-.2.15-.2.1-.4l-.05-2.1.4-.5q.4.15.8.15h.1l.2.65-.3.5-.65 1.35q-.25.55.25.8.15.15.4 0 .25-.1.35-.25l.45-.9.05.35-.55 1.25q-.2.4.2.7.55.3.8-.2l.1-.2.1.4q.25.5.75.4.45-.2.35-.75l-.15-.45.2.15q.6.2.75-.25.25-.5-.2-.75l-1.25-.65-.05-.35.85.45q.45.25.7-.25.1-.2.05-.45t-.25-.3l-1.85-.95-.25-.65.3-.3q.1-.05.3-.35l.65.15 1.15 1.8q.35.35.8.15.4-.4.1-.8l-.5-.85.4.1.7 1.1q.3.45.8.2.5-.35.15-.8l-.15-.2.4.1q.65.1.65-.45.2-.55-.4-.65l-.35-.05.1-.15q.5-.25.25-.8-.5-.4-.8-.15l-1.15.7-.35-.05.8-.5q.5-.4.2-.8-.15-.2-.4-.25-.25-.05-.4.1l-1.8 1.15-.65-.15q0-.5-.3-.85l.45-.5 2.15-.05q.5-.15.5-.65 0-.2-.2-.4-.15-.15-.35-.15l-1 .1.25-.3 1.3-.05q.6-.15.6-.65t-.6-.5h-.3l.3-.3q.2-.15.2-.4t-.2-.4q-.45-.3-.8 0l-.25.35v-.2q-.15-.6-.65-.6-.5.15-.5.65l.05 1.3-.3.3v-.95q-.1-.55-.65-.55-.5.1-.5.55l.15 2.2-.45.5q-.4-.25-.85-.25h-.05l-.15-.65.2-.5.75-1.35q.2-.55-.3-.7-.15-.1-.45-.1l-.3.3-.4.95-.15-.45.55-1.15q.3-.55-.2-.8-.45-.2-.7.3l-.15.2-.15-.45q-.1-.45-.7-.35m1.4 6.8q0-.35.25-.6.25-.3.55-.3.35 0 .6.25t.25.55q0 .4-.2.6-.25.25-.55.25h-.1q-.3 0-.5-.2-.3-.2-.3-.55z" id="ac"/><path fill="#009ADC" d="M289.75 290.5q-.4-.3-.7.2-.25.45.2.8l1.95.95.15.55q-.05.15-.3.4-.15.05-.25.35l-.65-.15q-.95-1.4-1.15-1.8-.3-.4-.8-.15-.4.25-.15.8l.55.8q-.25 0-.4-.1l-.75-1.05q-.25-.45-.75-.25-.45.45-.15.8l.15.25q-.15-.1-.45-.1-.55-.1-.65.45-.15.45.45.65l.4.05q-.05.1-.2.15-.5.25-.15.8.35.45.7.15l1.15-.75q.3 0 .4.1l-.8.5q-.45.3-.15.8.1.2.35.25.2.05.35-.1l1.8-1.15.65.1q0 .3.3.9-.35.4-.45.5l-2.15.05q-.5.15-.5.65t.6.5l1-.05-.25.3-1.35.05q-.55 0-.55.6.1.55.65.55h.2l-.3.3q-.4.4.1.8.4.4.75-.1l.3-.3v.25q0 .25.2.4.2.15.4.1.6 0 .5-.6 0-.85-.1-1.3l.3-.25.05.9q0 .6.6.6.5-.15.5-.65l-.15-2.1.5-.5q.35.2.8.2h.1l.2.6-1 1.95q-.2.45.3.7.1.1.4.1l.3-.3.5-.95.05.35-.55 1.25q-.3.55.2.8t.8-.3l.05-.2.15.4q.2.55.75.35.45-.05.35-.7l-.15-.35.2.05q.45.2.75-.2.25-.5-.2-.8-1.2-.55-1.25-.55-.1-.35-.15-.4l.95.45q.4.3.7-.3.25-.4-.2-.7l-1.95-.95q-.15-.6-.15-.65l.3-.3q.2-.25.3-.35l.65.1q.35.65 1.15 1.8.3.5.8.15.35-.25.1-.8l-.55-.8.45.05.7 1.15q.3.45.7.15.4-.25.15-.8l-.15-.2.45.15q.5.1.65-.45.1-.6-.45-.7-.25 0-.4-.1l.2-.1q.55-.25.15-.75-.25-.5-.75-.2l-1.05.8q-.15-.1-.35-.1.05-.05.8-.55.5-.3.1-.8-.05-.15-.3-.2-.25-.05-.4.05-1.2.8-1.8 1.15-.35 0-.65-.15 0-.3-.3-.8l.45-.5 2.15-.15q.5 0 .5-.55 0-.6-.55-.6-.4.1-1 .1l.2-.3 1.35-.05q.25 0 .4-.2.2-.15.2-.4-.2-.55-.65-.5h-.25q.25-.2.3-.35.45-.45-.05-.8-.4-.35-.8.05l-.3.3v-.2q0-.5-.55-.5-.5 0-.5.55l.05 1.4-.3.25-.05-1q0-.6-.6-.5-.5 0-.5.6 0 .7.15 2.05-.2.3-.5.55-.2-.15-.8-.15h-.05l-.25-.65.3-.5q.3-.7.75-1.4.2-.55-.3-.8-.2-.05-.45 0-.1 0-.3.3-.15.55-.5.85l-.05-.35.55-1.2q.25-.5-.2-.75-.6-.2-.8.25l-.05.2-.15-.45q-.2-.45-.75-.35-.45.25-.35.75.15.15.15.4-.15-.05-.2-.15-.5-.25-.75.3-.2.55.25.7l1.2.65q.05.05.15.4l-.95-.45m2.7 3.3h.05q.2 0 .6.25.2.15.2.55.1.35-.15.6t-.55.25h-.1q-.3 0-.55-.2-.2-.2-.3-.55 0-.4.2-.6.5-.3.6-.3z" id="ad"/><path fill="#009ADC" d="M309.25 300.4q-.25 0-.4.2l-.3.25v-.2q0-.2-.2-.4-.15-.15-.35-.1-.6 0-.6.6.1.4.1 1.35l-.25.3-.05-1.05q0-.2-.2-.35-.2-.2-.4-.15-.2 0-.35.2-.2.2-.15.4l.1 2.1-.45.5q-.5-.25-.8-.25h-.05q-.1-.1-.2-.55.1-.35.25-.5l.65-1.45q.35-.45-.2-.7-.2-.15-.45 0t-.35.2l-.45.95-.1-.4.65-1.2q.2-.6-.3-.7-.5-.3-.75.2-.05.15-.15.2l-.05-.4q-.25-.5-.7-.4-.55.3-.4.75 0 .1.15.4l-.2-.1q-.5-.25-.8.25-.25.5.3.75l1.2.65.1.35-.85-.5q-.6-.2-.75.3-.25.45.2.7l1.9 1 .2.6-.35.35-.2.35-.65-.15q-.35-.4-1.15-1.8-.5-.4-.8-.15-.5.25-.15.8l.5.8q-.2 0-.35-.1l-.75-1.15q-.4-.4-.75-.1-.55.35-.15.75l.05.25q-.15-.1-.35-.1-.65-.1-.65.45-.1.5.35.65l.45.05-.15.15q-.5.25-.2.8.4.4.75.15l1.2-.8q.05.05.35.15l-.9.5q-.35.25-.1.8.4.4.75.15.6-.35 1.8-1.15.6.1.65.15 0 .4.3.85l-.5.5-2.1.05q-.55.25-.5.6 0 .55.6.55l1-.05-.3.3-1.35.05q-.5 0-.5.6 0 .55.55.55l.25-.05-.25.35q-.15.15-.15.4t.15.4q.45.35.8-.1l.3-.25v.2q.1.6.65.5.5 0 .5-.55-.1-.45-.1-1.4l.25-.3.05 1.05q0 .2.2.35.2.2.4.2.55-.1.55-.65l-.15-2.1.45-.5q.5.25.85.25l.25.55-.25.6q-.45.7-.7 1.35-.1.15-.05.4.1.2.25.3.25.15.5 0 .2 0 .3-.2l.45-.95.15.4-.65 1.2q-.25.5.25.8.5.25.75-.3.05-.15.15-.2 0 .25.15.4.1.5.6.4.25-.1.35-.3.15-.25.05-.45 0-.1-.15-.4l.2.1q.5.25.8-.25.3-.45-.3-.75l-1.15-.65q-.15-.15-.15-.35l.9.5q.45.25.75-.25.25-.45-.25-.75l-1.9-1-.2-.6q.15-.05.35-.25l.2-.45.65.15q.45.55 1.25 1.8.35.45.7.15.45-.2.25-.8-.5-.6-.6-.8l.35.1.8 1.15q.3.4.7.1.5-.35.25-.75-.15-.15-.15-.25l.45.15q.5 0 .65-.4.05-.55-.45-.75l-.45-.05q.1 0 .25-.15.4-.3.1-.75-.05-.2-.3-.25-.25-.05-.45.05l-1.15.8-.4-.05.9-.6q.35-.25.1-.8-.1-.15-.3-.2-.25-.05-.45.05l-1.75 1.15q-.45-.05-.65-.15l-.3-.85.45-.45q1.4-.1 2.1-.1.25 0 .4-.2.15-.15.1-.4 0-.55-.6-.55-.25.05-1 .05l.3-.3 1.35-.05q.5 0 .5-.6 0-.2-.15-.35-.2-.2-.4-.2l-.2.05.25-.35q.35-.3-.05-.8-.15-.15-.4-.1m-4.35 4.55h.05q.25 0 .5.25.3.2.3.55 0 .4-.2.6-.2.3-.6.3-.3 0-.55-.25-.3-.3-.3-.55 0-.4.2-.6.3-.3.6-.3z" id="ae"/><path fill="#00A0E1" d="M311.65 315.2q-.25-.5-.8-.15-.35.25-.15.7l.15.25-.4-.1q-.55-.1-.65.45-.15.45.4.65l.45.05-.2.15q-.55.3-.15.8.35.45.7.15l1.15-.7.35.05-.75.5q-.25.15-.3.4-.05.25.15.4.1.2.35.25.2.05.35-.1l1.8-1.15.65.15q0 .25.3.85l-.45.5-2.15.15q-.5 0-.5.55 0 .5.55.5l1.05-.05-.25.3-1.35.05q-.6.2-.6.65.15.5.65.5h.25l-.3.3q-.15.15-.15.4t.2.4q.45.35.8 0l.3-.35v.2q0 .6.6.6.5-.2.5-.65l-.1-1.3.3-.3.05.95q0 .55.6.55.5 0 .5-.55l-.15-2.2.5-.5q.35.25.8.25h.05l.25.65-1 1.85q-.25.5.25.7.15.1.45.1l.3-.3.5-.85.05.35-.55 1.15q-.3.55.2.8t.8-.3l.05-.15.15.4q.25.6.75.35.45-.2.35-.75l-.15-.35.2.1q.5.15.75-.25.25-.55-.25-.8l-1.2-.55-.15-.35.95.4q.4.3.7-.25.25-.4-.2-.75L318 320l-.2-.65.35-.25.3-.35.6.1 1.2 1.75q.05.2.3.25.25.05.45-.1.45-.25.15-.75l-.55-.85.4.1.75 1.15q.25.35.8.1.4-.2.15-.75l-.15-.15.4.05q.2.05.4-.05.2-.15.25-.35.05-.2-.05-.4-.15-.2-.35-.25l-.45-.15.2-.1q.5-.35.15-.8-.3-.5-.8-.1l-1.05.7-.35-.05.75-.6q.6-.3.15-.8-.3-.45-.7-.15l-1.8 1.15-.65-.15q0-.35-.3-.75l.45-.5 2.15-.15q.5 0 .5-.6 0-.2-.2-.4-.15-.15-.35-.1h-1.05l.25-.3 1.35-.05q.25 0 .4-.2.2-.15.2-.4-.2-.55-.65-.5h-.25l.3-.35q.4-.35-.05-.8-.5-.3-.8.1l-.3.35v-.3q0-.5-.6-.5-.2 0-.35.2-.2.2-.15.4l.1 1.35-.3.3-.05-1.05q0-.5-.6-.5-.5 0-.5.6l.15 2.1-.5.5q-.35-.15-.8-.15h-.05l-.25-.65 1-1.9q.25-.45-.25-.75-.2-.15-.45 0-.05.05-.3.25l-.5.9-.05-.4.55-1.2q.25-.55-.2-.7-.55-.3-.8.2l-.05.2-.15-.4q-.15-.5-.75-.4-.45.25-.35.75l.15.4-.2-.05q-.5-.25-.75.2-.25.5.25.75l1.2.65.15.35-.95-.45q-.4-.3-.7.25-.1.2-.05.45.1.2.25.3l1.95.95.15.65-.3.3q-.1.05-.3.35l-.65-.15-1.15-1.8q-.1-.15-.3-.2-.25-.05-.45.05-.35.35-.15.8l.55.85-.4-.1-.75-1.1m5 1.7h.05q.2 0 .55.25.25.25.25.55.1.4-.15.6-.3.3-.6.3h-.05q-.35 0-.6-.25l-.25-.55q0-.25.2-.6.1-.1.6-.3z" id="af"/><path fill="url(#e)" d="M270.95 296.4q-7.75-6.1-8.3-5.45-.55.6 6.4 7.6 6.9 6.95 17.25 16.2 10.3 9.15 18.05 15.3 7.7 6.1 8.25 5.5.6-.55-6.35-7.55-6.95-7.05-17.25-16.25-10.3-9.25-18.05-15.35z" id="ag"/><path fill="url(#f)" d="M301.6 271q-.7-.6-1.6-.55-.95.05-1.5.7-.55.65-.5 1.6.05.9.7 1.5.65.55 1.55.5.9-.05 1.45-.75.6-.65.55-1.5 0-.9-.65-1.5z" id="ah"/><path fill="url(#g)" d="M315.4 266.6q-.7-.6-1.6-.5-.9.05-1.5.7-.6.65-.55 1.55.05.9.75 1.5.65.6 1.55.55.9-.05 1.5-.7.6-.65.55-1.55-.05-.9-.7-1.55z" id="ai"/><path fill="url(#h)" d="M317.4 280.8q-.65-.6-1.5-.55-.9.05-1.5.75-.6.65-.55 1.55.05.9.7 1.45.7.6 1.6.55.9 0 1.5-.65.6-.7.55-1.6-.1-.95-.8-1.5z" id="aj"/><path fill="url(#i)" d="M329.3 275.5q-.65-.55-1.55-.5-.9 0-1.5.65-.55.7-.5 1.55 0 .9.65 1.5.7.6 1.6.55.9-.05 1.5-.7.6-.65.55-1.55-.05-.9-.75-1.5z" id="ak"/><path fill="url(#j)" d="M339.15 289.85q-.65-.6-1.5-.55-.9.05-1.5.7-.6.7-.55 1.6.05.9.7 1.5.65.6 1.5.55.9-.05 1.5-.75t.55-1.55q-.05-.9-.7-1.5z" id="al"/><path fill="url(#k)" d="M349.3 280.2q-.65-.6-1.5-.55-.9.05-1.5.75t-.55 1.55q.05.9.7 1.5.65.6 1.6.55.9-.05 1.5-.7.55-.7.5-1.6-.1-.9-.75-1.5z" id="am"/><path fill="url(#l)" d="M364.15 271.65q-.65-.6-1.55-.55-.9.05-1.5.7-.55.7-.5 1.6 0 .9.65 1.5.7.55 1.6.5.9-.1 1.5-.75t.55-1.5q-.05-.9-.75-1.5z" id="an"/><path fill="url(#m)" d="M374.95 254.65q-.65-.6-1.55-.55-.9.05-1.5.7-.55.7-.5 1.6 0 .9.65 1.5.7.6 1.55.55.9-.1 1.5-.8.6-.65.55-1.5-.05-.9-.7-1.5z" id="ao"/><path fill="url(#n)" d="M381.5 237.45q-.65-.6-1.55-.55-.9.05-1.45.75-.6.65-.55 1.55 0 .9.65 1.5.7.55 1.6.55.9-.05 1.5-.7.6-.7.55-1.6-.05-.9-.75-1.5z" id="ap"/><path fill="url(#o)" d="M370.35 243.35q-.7-.6-1.6-.55-.9.05-1.5.7-.6.7-.55 1.6.05.9.75 1.5.65.55 1.55.5.9-.05 1.5-.75.55-.65.55-1.5-.05-.9-.7-1.5z" id="aq"/><path fill="url(#p)" d="M369.7 228.85q-.65-.55-1.55-.5-.9.05-1.5.75-.55.65-.5 1.5 0 .9.65 1.5.7.6 1.6.55.9-.05 1.5-.7.6-.7.55-1.6-.05-.9-.75-1.5z" id="ar"/><path fill="url(#q)" d="M361.4 215.9q-.65-.6-1.5-.55-.9.1-1.5.8-.6.65-.55 1.5.05.9.7 1.5.65.6 1.5.55.9-.05 1.5-.7.6-.7.55-1.6-.05-.9-.7-1.5z" id="as"/><path fill="url(#r)" d="M352.25 224.85q-.65-.6-1.55-.55-.95.05-1.55.75-.55.65-.5 1.55.1.9.75 1.5.65.55 1.5.55.9-.05 1.5-.7.6-.7.55-1.6-.05-.9-.7-1.5z" id="at"/><path fill="url(#s)" d="M341.1 220.9q-.65-.6-1.5-.55-.9 0-1.5.65-.6.7-.55 1.6.05.9.7 1.5.65.6 1.5.55.9-.05 1.5-.75.6-.65.55-1.55-.05-.9-.7-1.45z" id="au"/><path fill="url(#t)" d="M328.65 234.75q-.65-.55-1.55-.5-.9.05-1.45.75-.6.65-.55 1.5 0 .9.65 1.5.7.6 1.6.55.9-.05 1.5-.7.6-.7.55-1.6-.05-.9-.75-1.5z" id="av"/><path fill="url(#u)" d="M319.2 253q-.65-.6-1.5-.55-.9.05-1.5.7-.6.65-.55 1.6.05.9.7 1.5.65.55 1.5.5.9-.05 1.5-.75.6-.65.55-1.5-.05-.9-.7-1.5z" id="aw"/><path fill="url(#v)" d="M326.2 294.15q-.7-.55-1.6-.5-.9 0-1.5.65t-.55 1.55q.05.9.75 1.5.65.6 1.55.55.9-.05 1.5-.7.6-.65.55-1.55-.05-.9-.7-1.5z" id="ax"/><path fill="url(#w)" d="M338.15 212.7q-3.8-7.65-11.1-12.65-7.35-5.05-15.8-5.75-9.1-.7-17.1 3.85-8.5 4.8-15.25 16.65-4.928 8.657-8.55 20.3 1.086-4.64.9-10.9-.2-8.2-2.35-13.6-1.5-3.8-5.15-5.35-3.2-1.3-6.1-.3-3.15 1.15-4.85 5-1.6 3.55-1.5 8.2.15 5.85 1.4 15.85 1.15 9.4 1.15 13.7-.05 14.55-11.1 27.25l52.55 30.55q4.9-15.65 10.9-23.2 2.05-2.65 6.35-6.95 5.45-5.45 8.25-8.55 18-19.7 20.25-37.05 1.15-8.9-2.9-17.05z" id="ay"/><path fill="url(#x)" d="M305.7 220.9q-.4.65-.25 1.35l1.15 4.25-.65 1.05-.75-3.05q-.2-.8-.9-1.15-.65-.4-1.35-.15-.7.2-1.1.8-.35.65-.2 1.4l1.75 6.55-1.05 1.8-1.5-.15q-.7 0-1.35.25l-1.1-1.9 1.75-6.55q.2-.75-.15-1.4-.35-.6-1.1-.8-.65-.25-1.3.15t-.85 1.15l-.8 3-.65-1.1 1.15-4.15q.2-.7-.2-1.35-.4-.65-1.1-.9-.7-.15-1.3.2-.7.4-.9 1.1l-.15.75-.7-1.25q-.4-.65-1.1-.85-.7-.15-1.35.2-.65.35-.85 1.1-.2.7.2 1.35l.65 1.25-.75-.25q-.7-.15-1.35.2-.65.4-.8 1.1-.2.7.15 1.35.35.65 1.05.9l4.25 1.05.6 1.1-3.1-.8q-.7-.2-1.35.15-.65.4-.8 1.1-.2.75.15 1.4.35.6 1.05.8l6.65 1.8 1 1.8-.85 1.15q-.35.6-.6 1.4h-2.1l-4.8-4.85q-.55-.5-1.3-.5t-1.3.5q-.5.55-.5 1.3t.5 1.25l2.3 2.3h-1.2l-3.1-3.1q-.55-.55-1.3-.55t-1.3.55q-.5.55-.5 1.25 0 .75.5 1.25l.55.6H280q-.7 0-1.25.55-.55.5-.55 1.25 0 .65.55 1.2.55.55 1.25.6h1.4l-.55.5q-.55.55-.55 1.25 0 .75.55 1.25.55.55 1.3.55t1.3-.55l3-3h1.3l-2.3 2.2q-.5.55-.5 1.3 0 .8.5 1.3.55.5 1.25.5.75 0 1.25-.5l4.85-4.8h2.15q.5 1.45 1.45 2.5l-1.1 1.8-6.55 1.8q-.75.15-1.1.8-.4.65-.2 1.35.25.75.85 1.15.65.35 1.4.15l3.1-.8-.65 1.05-4.2 1.15q-.75.2-1.1.8-.35.65-.15 1.4.15.7.8 1.1.65.35 1.35.15l.7-.15-.65 1.15q-.35.65-.2 1.4.2.75.85 1.1.65.35 1.35.15.7-.2 1.1-.85l.7-1.15.15.7q.2.7.9 1.1.65.35 1.35.2.7-.2 1.1-.9.35-.65.2-1.35l-1.15-4.15.65-1.1.8 3.1q.2.7.8 1.1.65.35 1.35.15.7-.2 1.1-.85.35-.6.2-1.3l-1.8-6.65 1.05-1.8q.5.15 1.45.15.8 0 1.45-.15l1.1 1.9-1.8 6.55q-.2.7.2 1.3.4.65 1.1.85.65.2 1.35-.15.6-.4.85-1.1l.8-3.1.65 1.1-1.15 4.15q-.2.75.15 1.4.4.6 1.15.85.7.25 1.35-.15.65-.4.8-1.15l.2-.7.75 1.2q.35.65 1.1.85.65.2 1.35-.2.65-.4.85-1.05.15-.75-.2-1.4l-.75-1.2.75.2q.75.25 1.4-.15.65-.4.8-1.15.25-.7-.15-1.35-.35-.65-1.05-.8l-4.25-1.15-.6-1.1 3.1.9q.7.15 1.35-.25.65-.35.8-1.05.25-.7-.15-1.35-.35-.65-1.05-.9l-6.6-1.7-1.05-1.9.9-1.15q.45-1 .55-1.35h2.1l4.8 4.8q.55.55 1.3.55t1.25-.55q.55-.5.55-1.25 0-.7-.55-1.25l-2.25-2.25h1.25l3.1 3.05q.5.5 1.25.55.75 0 1.25-.5.55-.5.55-1.3 0-.75-.55-1.3l-.5-.5h1.35q.75 0 1.3-.5.5-.55.5-1.3t-.5-1.25q-.55-.55-1.3-.55h-1.35l.55-.55q.5-.5.5-1.25t-.5-1.3q-.5-.5-1.25-.5t-1.3.5l-3.1 3.1h-1.25l2.3-2.3q.5-.55.55-1.25 0-.75-.55-1.25-.5-.55-1.3-.55-.75 0-1.3.55l-4.8 4.75h-2.1q-.45-1.4-1.45-2.45l1.1-1.9 6.55-1.7q.7-.2 1.1-.85.35-.65.2-1.4-.2-.7-.85-1.1-.65-.35-1.4-.2l-3.1.85.65-1.05 4.2-1.15q.75-.2 1.15-.85.4-.6.15-1.3-.2-.8-.85-1.15-.65-.4-1.4-.15l-.7.2.7-1.2q.35-.65.2-1.35-.2-.7-.85-1.1-.65-.4-1.35-.2-.75.2-1.1.85l-.7 1.2-.15-.7q-.2-.8-.9-1.15-.65-.4-1.35-.15-.65.15-1.05.8m-2.25 18.35q.35 1.1-.3 2-.55 1-1.55 1.25l-.75.05q-.75 0-1.3-.35-.95-.5-1.2-1.6-.4-1.05.2-2 .7-1 1.65-1.3l.65-.1q.7 0 1.4.4.95.5 1.2 1.65z" id="az"/><path fill="#B6E4FA" d="M255.8 254.65h-.1l-.15.05h-.1l-.1.1h-.15l-.05.05H255l-.1.1h-.1l-.1.05h-.15l-.05.1h-.15l-.1.05H254l-.1.05h-.15l-.05.1h-.3l-.05.05h-.25l-.1.1h-.25l-.15.05.25.95h.2l.15-.1h.2l.15-.05h.2l.15-.05h.15l.1-.1h.1l.15-.05h.25l.05-.1h.15l.15-.05h.05l.15-.1h.15l.1-.05h.1l.1-.05.15-.1h.15l.05-.05h.15l.05-.1h.15l.1-.05h.15l-.4-.95h-.1l-.1.05h-.05l-.15.1m7.6-3.55v-.05l-.65-.75h-.05l-.05.1-.1.05-.05.1-.1.05-.05.1-.1.05-.15.1-.35.35-.15.05-.05.1-.15.15-.15.05-.3.3-.1.05-.15.15-.15.1h-.1l-.05.05-.1.05-.1.1-.1.05-.05.1-.1.05-.15.1h-.05l-.05.05-.15.05-.15.15-.15.1h-.1l-.05.05-.15.1-.05.05h-.1l.5.85h.1l.05-.05.15-.1.1-.05.05-.05h.15l.05-.1.15-.05.15-.15.15-.1.05-.05.1-.05.15-.1h.05l.15-.05.05-.1.1-.05.15-.1.2-.2.15-.05.05-.1.1-.05.15-.1.2-.2.15-.05.05-.1.1-.05.05-.1.15-.05.15-.15.05-.1.15-.05.1-.05.05-.1.1-.05.05-.1.15-.05.05-.1m4.05-6.8v.05l-.05.15-.1.05v.1l-.05.05-.1.15-.05.05v.1l-.1.05-.05.15-.1.1v.05l-.1.2-.1.1v.05l-.05.1-.1.05-.05.15-.15.15v.05l-.05.15-.3.3v.15l-.1.05-.05.1-.1.05-.05.1-.05.15-.1.05-.2.2v.15l-.15.15-.05.1-.1.05-.05.05-.1.15h-.05l.8.65v-.05l.05-.1.2-.2.1-.15.2-.2.1-.15.05-.05.05-.1.1-.05.05-.1.1-.15.2-.2.05-.15v-.05l.1-.1.05-.15.1-.05.15-.15.05-.15.1-.05v-.1l.05-.05.05-.15.1-.05.05-.1v-.15l.1-.05.05-.1.1-.15.05-.05v-.05l.1-.1.05-.15.05-.05v-.1l.1-.15.05-.05.1-.05v-.15h.05l-.95-.5v.05l-.05.1m3.4-7.45l-1-.05q-.2 2.25-1.1 4.65l.95.4q.9-2.2 1.15-5z" id="aA"/><path fill="url(#y)" d="M227.45 291.25q.35 1.45 1.65 2.05 14.65 6.1 29.85 15 14.4 8.45 26.15 17.5 1.1.85 2.55.4 1.4-.45 2.1-1.7l11.6-20.1q.7-1.2.3-2.55-.35-1.3-1.5-2.15-28.2-21.05-55.9-32.45-1.4-.6-2.7-.3-1.35.3-2.05 1.5l-11.65 20.1q-.75 1.25-.4 2.7z" id="aB"/><path fill="#9DDCF9" d="M254.4 300.6l-.4-.3-.3-.1-.5-.25-.2-.15-.75-.45-.3-.05-.2-.15-.3-.15-.4-.3-.3-.15-.2-.05-.3-.15-.2-.15-.55.85.8.45.25.05.2.15.3.15.2.15.3.15.2.15.2.05.3.15.95.6.3.15.2.05.2.15.5-.85m4.2 2.3l-.3-.1-.45-.3-.25-.1-.5-.3-.1-.1-.5.9.15.05 1.15.75.3.1.2.1.2.15.55.25.2.15.3.15.4.3.3.15.45.3.2.05.5-.85-.95-.5-.4-.3-.3-.15-.7-.45-.25-.1-.2-.15m19.45 12.1l-.5-.3-.6.8.1.05.65.45.4.3.3.1.2.25.45.25 1.6 1.1.4.3.6-.8-.25-.15-.2-.2-.2-.15-.3-.15-.65-.45-.2-.1-.25-.25-.2-.15-.5-.25-.65-.45-.2-.2m-6.5-4.2l-.65-.45-.15-.05-.5.85h.1l1.35.95.3.15.4.3.75.4.4.3.9.6.55-.8-.4-.3-.45-.3-.3-.15-.2-.15-.2-.2-.45-.3-.75-.4-.4-.3-.3-.15m-7.5-4.65l-.15-.1-.5.85.6.4.3.1.4.3.3.15.65.45.5.25.2.15.75.45.4.3.25.05.5-.8-.15-.15-.3-.1-.4-.3-.55-.3-.6-.45-.3-.1-.45-.3-.3-.15-.4-.3-.5-.3-.25-.1m20.45 13.35l-.2-.15-.2-.1-.6.75.45.3.2.2.3.15.4.3.25.15.2.2 2.25 1.6h.05l.6-.8-.1-.05-.9-.6-.9-.65-.2-.2-.45-.3-.85-.65-.3-.15m-46.8-27.55l-.5-.2-1.05-.55-.25-.05-.2-.15-.45.95.25.05.25.15.5.2.25.15.3.1.2.15.5.25.3.1.2.15.3.15.2.05.6.3.2.05.3.15.15.15.4-.95-.15-.05-.5-.3-.25-.05-.8-.45-.25-.05-.5-.3m-7.75-3.55l-.5-.25-.3-.1-.2-.15-.3-.15-.3-.05-.35.95.2.05.3.15.3.05.2.15.5.25.6.2.2.15.3.15.2.05.6.3.2.05.5.25.3.1.15.1.4-.95h-.15l-.5-.3-.25-.05-.55-.3-.25-.05-.5-.3-.3-.05-.2-.15-.3-.1m14.8 7.05l-.2-.15-.3-.1-.5-.25-.2-.15-.3-.1-.2-.1-.15-.05-.45.85.15.05.5.3.5.2.5.3.25.1.2.15.3.1.2.15.3.1.2.15 1.3.65v.05l.5-.95h-.05l-.2-.15-.3-.1-.25-.15-.25-.1-.5-.3-.55-.2-.2-.15-.3-.15z" id="aC"/><path fill="#9DDCF9" d="M299.15 302.95l-.1-.05-.85-.65-.35-.35-.25-.15-.5-.4-.2-.1-.45-.3-.2-.2-.45-.3-.2-.25-.3-.1-.15-.1-.55.8.15.05.2.25.2.15.3.1.25.15.2.25.2.15.2.1.25.25.2.15.2.1.3.25.45.3.2.1.15.25.45.3.05.05.6-.8m-10.95-6.75l.2.2.2.15.75.45.2.2.45.3.9.65.45.25.2.25.55.25.1.1.6-.8-.15-.05-.5-.4-.2-.1-.45-.3-.2-.2-.75-.45-.2-.15-.2-.2-.45-.3-.3-.15-.2-.2-.45-.3-.05-.1-.6.9h.1m-5.5-4.85l-.2-.15-.45-.25-.05-.1-.5.9.5.25.2.25.25.1.2.15.3.15 2 1.4.3.1.2.15.15.15.55-.8-.1-.15-.3-.1-.25-.15-.2-.25-.5-.25-1.8-1.25-.3-.15m-3.75-1.3l.55-.75-.25-.15-.2-.25-1.25-.7-.4-.3-.3-.15-.2-.15-.25-.1-.2-.15-.3-.15-.4-.3-.3-.15-.2-.15-.55.9.25.1.2.15.3.15.4.3.55.3.2.15.5.25.65.45.3.15.4.3.25.1.25.15m-10.65-7.55l-.5.85.75.45.2.15.3.15.2.15.2.05.3.15.65.45.5.25.2.15.55.3.2.15.3.15.5-.85-.3-.15-.2-.15-.75-.45-.2-.15-.5-.25-.2-.15-.55-.25-.2-.15-.3-.1-.4-.3-.3-.15-.45-.3m-5.4-2.95l-.4-.3-.3-.05-.2-.15-.3-.15-.2-.15-.25-.05-.4.85 1.35.75.3.1.2.15.3.15.4.3.3.05.2.15.3.15.45.3.3.15.2.05.05.1.5-.9-.05-.05-.3-.15-.2-.05-.2-.15-.3-.15-.2-.15-.55-.3-.2-.15-.3-.05-.2-.15-.3-.15m-4.3-2.3h-.1l-.75-.45-.25-.05-.2-.15-.3-.15-.2-.05-.3-.15-.2-.15-.3-.15-.2-.05-.3-.15-.2-.15-.3-.1-.75-.4-.1-.1-.45.95.15.1.2.1.3.1.2.15.3.15.2.05.3.15.2.15.3.15.25.05.2.15.3.15.2.05.3.15.2.15.3.15.2.05.3.15.05.1.45-.95m-10.9-5.2l-.25-.15-.25-.05-.25-.15h-.1l-.4.85.05.1.3.05.2.15.3.15.3.1.2.1.3.1.2.15.3.15.2.05.3.15.2.05.3.15.2.15.3.1.2.1.3.1.2.15.15.05.45-.9-.15-.1-.2-.05-.3-.15-.3-.1-.2-.15-.3-.1-.5-.25-.2-.15-.3-.05-.2-.15-.3-.05-.2-.15-.55-.25m-3.65-1.55l-.45-.25-.25-.05-.25-.15-.25-.05-.55-.25-.25-.15-.25-.05-.25-.15-.3-.05-.2-.15-.3-.1-.25-.15-.25-.05-.3-.15-.2-.05-.3-.15-.35.95.2.1.3.1.25.15.25.05.5.25.3.05.25.15.25.05.5.25.55.2.25.15.25.05.25.15.3.1.2.1.35-.9z" id="aD"/><path fill="url(#z)" d="M243.85 277.2q-.55.1-.45.7l.6 2-.4.6h-.85l-.35-.6.55-2q.2-.6-.4-.7-.55-.2-.65.4l-.3.95-.15-.3.35-1.35q.2-.55-.4-.65-.55-.2-.65.35l-.1.2-.2-.35q-.35-.45-.8-.2-.45.3-.2.8l.2.35-.2-.1q-.55-.1-.65.45-.1.2 0 .4t.35.25l1.3.35.2.4-.9-.3q-.55-.15-.75.4-.1.55.35.65l2.1.6.3.55-.45.8h-.65l-1.5-1.5q-.35-.35-.8 0-.35.35 0 .8l.75.7h-.4l-1-1q-.35-.35-.8 0-.15.15-.15.4t.15.4l.25.2h-.45q-.55 0-.55.5 0 .6.55.6h.45l-.25.15q-.3.4 0 .8.45.45.8.05l1-1h.4l-.75.7q-.35.45 0 .8.45.35.8 0l1.5-1.5h.65q.15.4.45.8l-.3.55-2.1.6q-.45.1-.35.65.2.55.65.4l1-.25-.2.35-1.3.35q-.55.1-.45.65.2.55.75.45l.2-.1-.2.35q-.25.5.2.8.15.1.4.05t.35-.25l.2-.35.05.2q.2.55.75.35.45-.05.35-.65l-.35-1.3.2-.35.3.95q.1.6.65.4.25-.05.35-.25.15-.2.05-.45l-.55-2 .35-.6.45.1.4-.1.4.6-.6 2q-.1.6.45.7.5.2.65-.4l.25-.95.15.35-.25 1.3q-.1.2 0 .4t.35.25q.4.25.7-.35v-.2l.2.35q.4.45.8.2.5-.25.25-.8l-.25-.35.25.1q.45.1.7-.45.1-.55-.45-.65l-1.3-.35-.2-.35 1 .25q.55.2.65-.4.2-.55-.35-.65l-2.1-.6-.25-.55.2-.4h.05q.05 0 .15-.4h.65l1.5 1.5q.45.35.8 0 .45-.35 0-.8l-.7-.65h.4l.95.95q.15.15.4.15t.4-.15q.15-.15.15-.4t-.15-.4l-.15-.15h.45q.5 0 .5-.55 0-.6-.5-.6h-.45l.15-.15q.35-.35 0-.8-.15-.15-.4-.15t-.4.15l-.95.95h-.4l.7-.7q.45-.45 0-.8-.35-.35-.8 0l-1.5 1.5h-.65q-.05-.4-.4-.8l.25-.55 2.1-.5q.5-.25.35-.75-.05-.2-.25-.3-.2-.15-.4-.05l-1 .25.2-.4 1.3-.25q.55-.2.45-.75-.05-.2-.25-.35-.25-.1-.45 0h-.25l.25-.35q.25-.5-.25-.75-.15-.15-.35-.05-.2.05-.35.2l-.2.45-.1-.3q-.1-.5-.7-.35-.55.1-.35.65l.35 1.35-.25.3-.25-.95q-.2-.6-.65-.4m-.65 4.35q.1 0 .4.15.2.1.4.5.1.4-.1.6-.25.3-.5.45h-.2q-.3 0-.45-.1l-.35-.5q-.15-.35.05-.65.25-.3.5-.45h.25z" id="aE"/><path fill="url(#A)" d="M254.45 284.1q-.05.2.05.35l.2.45q-.05-.1-.2-.1-.5-.1-.75.35-.1.55.45.75l1.3.35.2.3-1-.25q-.5-.1-.65.4-.05.2.05.45.1.2.3.25.95.2 2.1.6l.3.55-.2.35q-.15.1-.25.4h-.65l-1.5-1.55q-.35-.35-.8 0-.35.45 0 .8l.75.75h-.45l-.95-.95q-.35-.35-.8 0-.35.35 0 .8.15.1.15.15h-.4q-.5 0-.5.55 0 .6.5.6h.4l-.15.1q-.35.45 0 .8.45.45.8 0 .65-.65.95-.9h.45q-.5.4-.75.7-.15.15-.15.4t.15.4q.45.35.8 0l1.5-1.5h.65q.2.5.45.75l-.3.6-2.1.5q-.2.05-.3.3-.1.2-.05.4.15.5.65.4l1-.25-.2.3q-.9.3-1.3.35-.5.2-.45.75.2.45.75.35.15 0 .2-.1l-.2.45q-.1.15-.05.4t.25.3q.15.1.4.05t.35-.25l.2-.35.05.2q.2.55.75.45.45-.2.35-.75l-.35-1.25.2-.4q.05.4.3 1.05.1.45.65.35.55-.2.4-.65l-.55-2.1.35-.55.85.05.4.5q-.15.45-.6 2.1-.1.5.45.65.4.25.65-.35.05-.3.25-.95l.15.3q-.05.5-.35 1.25-.05.6.45.75.5.1.65-.45l.05-.2.2.45q.15.15.35.2.3.1.45-.1.45-.15.25-.7-.2-.35-.25-.35h.25q.4.25.65-.35.15-.45-.4-.75-.4-.05-1.3-.35l-.2-.3.95.25q.6.15.7-.4.2-.45-.35-.7l-2.1-.5-.25-.6.4-.75h.65l1.5 1.5q.45.35.8 0 .15-.15.15-.4t-.15-.4l-.7-.7h.35l1 .9q.15.2.4.2t.4-.2q.35-.35 0-.8l-.2-.1h.4q.6 0 .6-.6 0-.5-.6-.5h-.4l.2-.2q.35-.45 0-.8-.15-.15-.4-.15t-.4.15l-1 1-.35-.05.7-.65q.35-.45 0-.8-.35-.45-.8 0l-1.5 1.45h-.65q-.05-.4-.4-.75l.25-.55 2.1-.6q.55-.1.35-.65-.1-.55-.65-.45l-1 .3.2-.35 1.3-.35q.55-.15.45-.65-.05-.25-.25-.35-.25-.15-.45-.1l-.25.1.25-.4q.2-.5-.25-.75-.45-.35-.7.2l-.2.35q-.1-.05-.1-.2-.05-.2-.25-.35-.25-.15-.45-.1-.5.25-.35.75.05.4.35 1.3l-.25.35q-.1-.6-.25-1-.15-.5-.65-.4-.55.2-.45.65.45 1.65.6 2.1l-.4.6q-.15-.1-.4-.1-.3 0-.45.1-.2-.45-.35-.6l.55-2.1q.2-.5-.4-.65-.55-.1-.65.4-.1.35-.3 1l-.15-.35.3-1.3q.25-.5-.35-.75-.5-.1-.75.45v.2l-.2-.35q-.3-.45-.8-.2-.2.1-.25.35m4.2 5.05q.35.35.4.5.05.25-.1.65-.25.35-.5.35l-.2.05q-.2 0-.45-.15-.25-.05-.35-.5-.15-.3.05-.65l.5-.35h.25q.25 0 .4.1z" id="aF"/><path fill="url(#B)" d="M267.25 296.75q-.45-.35-.8 0-.35.45 0 .8l.2.15h-.4q-.6 0-.6.6 0 .5.6.5h.4l-.2.2q-.35.35 0 .8.35.35.8 0l1-.95h.35l-.7.65q-.2.15-.2.4t.2.4q.35.35.8 0l1.5-1.45h.65q.05.35.4.7-.05.25-.25.6l-2.1.6q-.2.05-.3.25-.15.15-.05.35.1.65.65.45.45-.05 1-.3l-.25.4-1.25.35q-.25.05-.35.25-.15.2-.1.4.05.25.3.35.2.15.4.05l.25-.05q-.2.35-.25.35-.25.55.25.8.45.25.7-.2l.2-.4q.1.1.1.25.05.2.25.35.25.1.45.05.5-.25.35-.7l-.25-1.3.1-.35q.1.35.3 1 .15.5.65.35.55-.1.45-.65l-.6-2.05q.1-.1.35-.6l.45.05.45-.05q.15.2.35.6l-.6 2.05q-.1.55.45.65.55.2.65-.35l.3-1 .2.35q-.3.95-.35 1.3-.1.65.35.7.5.2.75-.4l.05-.25.15.4q.35.45.8.2.2-.1.25-.35.05-.2-.05-.35l-.2-.45.2.05q.25.1.45 0 .2-.15.25-.35.1-.2-.05-.45-.1-.2-.35-.25l-1.3-.35-.2-.3 1 .2q.45.2.65-.35.1-.6-.4-.7-1.35-.4-2.05-.6l-.3-.5q.1-.3.3-.35v-.1l.15-.35h.65l1.5 1.5q.35.45.8 0 .35-.35 0-.8-.6-.6-.75-.7h.45l.95.95q.4.4.75 0 .45-.45 0-.8l-.1-.15h.4q.5 0 .5-.55 0-.6-.5-.6h-.4l.1-.15q.45-.35 0-.8-.35-.35-.75 0l-.95.95h-.45q.15-.1.75-.7.3-.35 0-.8-.45-.45-.8 0l-1.5 1.5h-.65q-.15-.4-.45-.8l.35-.55q.65-.15 2-.5.25-.1.35-.3.15-.25.05-.45-.15-.45-.65-.35l-.95.2q0-.15.15-.25l1.3-.4q.6-.1.4-.7-.1-.5-.7-.35l-.2.05.2-.4q.3-.45-.2-.75-.45-.3-.75.2l-.2.4-.05-.25q-.2-.55-.75-.4-.45.1-.35.7l.35 1.3-.2.35-.2-1q-.25-.5-.75-.35-.25.05-.35.25-.1.2 0 .4l.5 2.1-.35.55-.45-.05-.45.05q-.25-.45-.35-.55.35-1.4.6-2.1.1-.55-.35-.65-.6-.15-.75.35-.05.5-.3.95l-.1-.3q.05-.35.35-1.3.1-.6-.45-.7-.5-.15-.65.4l-.05.25-.25-.4q-.05-.2-.3-.25-.25-.05-.45.05-.55.25-.25.75l.25.35h-.25q-.45-.2-.65.35-.1.6.4.7l1.25.4.25.25-.95-.2q-.6-.25-.7.35-.2.6.4.75.65.1 2.05.5l.25.55-.4.8h-.65l-1.5-1.5q-.45-.45-.8 0-.45.35 0 .8l.7.7h-.35l-1-.95m6.25 1.3q.1.4-.05.65-.2.3-.55.35h-.2l-.45-.05-.35-.5q-.05-.3.1-.65.2-.3.5-.35l.2-.1.45.15q.35.25.35.5z" id="aG"/><path fill="url(#C)" d="M289.2 302.1v-.2q-.3-.6-.7-.45-.2.05-.35.3-.15.2-.1.4l.35 1.3-.15.35-.3-1q-.05-.45-.65-.35-.6.1-.4.65l.55 2.1-.35.55-.4-.05-.55.05-.25-.55.55-2.1q.05-.2-.05-.4-.15-.2-.35-.25-.55-.1-.65.35l-.3.95-.25-.3.4-1.3q.1-.6-.4-.7-.55-.2-.7.45l-.05.2-.25-.35q-.1-.2-.35-.3-.2-.05-.35.05-.5.25-.2.75l.2.35h-.2q-.2-.1-.45 0-.2.1-.3.35-.1.6.45.75l1.3.35.15.25-.95-.2q-.2-.1-.4.05-.2.1-.25.3-.25.45.35.75l2 .5.4.55q-.1.15-.3.4-.15.15-.15.4h-.65l-1.5-1.5q-.15-.15-.4-.15t-.4.15q-.15.15-.15.4t.15.4l.7.7h-.4l-.95-.9q-.35-.45-.8 0-.35.4 0 .75l.15.15h-.45q-.55 0-.55.6 0 .2.2.35.15.15.35.15h.45l-.15.2q-.15.15-.15.4t.15.4q.45.35.8 0l.95-.95h.4l-.7.65q-.35.45 0 .8.15.15.4.15t.4-.15l1.5-1.45h.65q.05.35.45.75l-.4.55-2 .6q-.6.1-.4.65.1.6.7.4l.95-.25-.15.35-1.4.35q-.45.1-.35.65.15.55.65.45l.25-.1-.25.35q-.25.5.25.8.5.3.75-.2l.25-.35.05.2q.2.55.65.45.55-.25.45-.75l-.4-1.3.25-.35.2 1q.2.55.75.35.45-.1.35-.65l-.5-2.05.25-.6q.15.1.55.1.25 0 .4-.1l.3.6-.5 2.05q-.2.55.35.65.6.2.7-.35l.25-1 .2.35-.35 1.3q-.2.6.45.75.5.1.6-.45l.1-.2.2.35q.25.5.8.2.45-.35.2-.7l-.25-.45.25.1q.55.1.65-.4.1-.2 0-.4-.15-.25-.35-.3l-1.3-.35-.2-.3.95.2q.2.1.45 0 .2-.15.25-.35.1-.6-.45-.7l-2-.6-.35-.5.5-.8h.65l1.5 1.55q.3.3.8 0 .35-.45 0-.8l-.7-.75h.35l.95.95q.4.4.75 0 .2-.15.2-.4t-.2-.4l-.15-.15h.45q.2 0 .4-.2.2-.15.2-.35 0-.2-.2-.4-.15-.2-.4-.2h-.45l.25-.15q.4-.35 0-.75-.5-.4-.8 0l-1 .9h-.35l.7-.7q.3-.3 0-.8-.15-.15-.4-.15t-.4.15l-1.5 1.5h-.65l-.5-.8.35-.55 2-.5q.55-.15.45-.75-.1-.45-.7-.35l-.95.2.2-.25 1.3-.35q.6-.2.35-.75-.1-.55-.65-.35l-.2.05.2-.4q.3-.5-.2-.75-.4-.2-.8.25l-.2.35m-3.3 5.75q-.15-.35.05-.65.15-.25.5-.35l.25-.1.35.15q.35.25.4.5.05.15-.05.65l-.5.4h-.2q-.3 0-.45-.1-.35-.25-.35-.5z" id="aH"/><path fill="url(#D)" d="M237.45 295.95q-8.8-4.4-9.25-3.7-.4.7 7.8 6.15 8.25 5.45 20.2 12.4 12.3 7.05 20.8 11.35 8.8 4.45 9.25 3.7.4-.7-7.8-6.15-8.3-5.5-20.2-12.35-12-6.95-20.8-11.4z" id="aI"/><path fill="url(#E)" d="M262.4 264.85q-.75-.5-1.6-.25-.9.25-1.35 1.05-.4.75-.2 1.6.2.9 1 1.35.75.45 1.6.2.85-.2 1.35-1 .45-.8.2-1.65-.25-.85-1-1.3z" id="aJ"/><path fill="url(#F)" d="M275.1 257.8q-.8-.5-1.7-.25-.85.25-1.25 1.05-.5.75-.25 1.6.2.85 1 1.35.8.45 1.65.2.85-.25 1.3-1 .45-.75.25-1.6-.25-.9-1-1.35z" id="aK"/><path fill="url(#G)" d="M279.9 271.3q-.75-.5-1.6-.25-.85.2-1.35 1-.4.8-.2 1.65.25.8 1 1.3.8.45 1.65.25.85-.25 1.3-1 .5-.8.25-1.7-.2-.85-1.05-1.25z" id="aL"/><path fill="url(#H)" d="M290.5 263.65q-.75-.45-1.65-.2-.9.25-1.3 1-.45.8-.2 1.65.2.85 1 1.3.75.5 1.65.25.85-.25 1.3-1.05.4-.75.2-1.6-.25-.85-1-1.35z" id="aM"/><path fill="url(#I)" d="M302.95 275.75q-.75-.45-1.65-.2-.9.2-1.3 1-.45.75-.2 1.65.25.85 1 1.3.75.4 1.65.2.85-.25 1.3-1 .45-.8.2-1.65-.2-.9-1-1.3z" id="aN"/><path fill="url(#J)" d="M311 264.3q-.8-.45-1.65-.2-.85.25-1.3 1-.5.75-.25 1.65.2.85 1 1.3.8.4 1.65.2.85-.25 1.3-1 .5-.75.25-1.65-.25-.9-1-1.3z" id="aO"/><path fill="url(#K)" d="M324.55 255.8q.5-.75.25-1.6-.2-.85-1.05-1.35-.75-.45-1.6-.2-.85.25-1.35 1-.4.75-.2 1.65.25.85 1 1.3.85.4 1.65.2.85-.2 1.3-1z" id="aP"/><path fill="url(#L)" d="M330.95 234.05q-.8-.4-1.65-.2-.85.25-1.3 1-.5.75-.25 1.65.2.85.95 1.3.8.4 1.7.2.85-.25 1.35-1 .4-.75.2-1.6-.25-.9-1-1.35z" id="aQ"/><path fill="url(#M)" d="M333.9 215.9q-.75-.4-1.6-.2-.9.25-1.35 1-.4.75-.2 1.65.25.9 1 1.3.75.45 1.65.2.85-.25 1.3-1 .4-.75.2-1.6-.25-.9-1-1.35z" id="aR"/><path fill="url(#N)" d="M324.9 226.85q.45-.75.2-1.6-.25-.85-1-1.35-.75-.45-1.6-.2-.9.25-1.35 1-.4.8-.2 1.65.25.85 1 1.3.75.5 1.65.25.9-.25 1.3-1.05z" id="aS"/><path fill="url(#O)" d="M320.6 209.85q-.75-.4-1.6-.2-.85.25-1.35 1-.45.85-.2 1.7.2.85 1 1.25.75.5 1.65.25.85-.2 1.3-.95.4-.85.2-1.7t-1-1.35z" id="aT"/><path fill="url(#P)" d="M309.85 198.85q-.75-.45-1.6-.2-.9.25-1.35 1-.4.8-.2 1.65.25.85 1 1.3.75.5 1.65.25.85-.25 1.3-1.05.45-.75.2-1.6-.25-.85-1-1.35z" id="aU"/><path fill="url(#Q)" d="M302.75 209.45q-.8-.45-1.7-.2-.85.2-1.25.95-.5.8-.25 1.65.2.9 1 1.3.8.45 1.65.25.85-.2 1.3-1 .45-.8.25-1.6-.25-.85-1-1.35z" id="aV"/><path fill="url(#R)" d="M291.05 207.75q-.75-.4-1.6-.2-.9.25-1.35 1-.4.75-.2 1.65.25.9 1 1.3.75.45 1.6.25.85-.2 1.35-1 .45-.8.2-1.65-.2-.9-1-1.35z" id="aW"/><path fill="url(#S)" d="M281.7 223.95q-.75-.5-1.65-.25-.85.25-1.3 1-.5.8-.25 1.65.25.85 1.05 1.3.75.5 1.6.25.85-.2 1.35-1 .45-.8.2-1.65-.25-.85-1-1.3z" id="aX"/><path fill="url(#T)" d="M276.1 243.65q-.8-.45-1.7-.2-.85.2-1.25.95-.5.8-.25 1.65.25.9 1.05 1.3.75.45 1.6.25.85-.2 1.35-1 .4-.8.2-1.6-.25-.85-1-1.35z" id="aY"/><path fill="url(#U)" d="M291.2 282.6q-.8-.45-1.65-.2-.85.2-1.3.95-.5.8-.25 1.65.25.9 1.05 1.3.75.45 1.6.25.85-.25 1.35-1 .45-.8.2-1.65-.25-.9-1-1.3z" id="aZ"/></defs><use xlink:href="#V"/><use xlink:href="#W" transform="matrix(1.77554 0 0 1.77551 -403.67 -300.805)"/><use xlink:href="#X" transform="matrix(1.77554 0 0 1.77551 -403.67 -300.805)"/><use xlink:href="#Y" transform="matrix(1.77554 0 0 1.77551 -403.67 -300.805)"/><use xlink:href="#Z" transform="matrix(1.77554 0 0 1.77551 -403.67 -300.805)"/><use xlink:href="#aa" transform="matrix(1.77554 0 0 1.77551 -403.67 -300.805)"/><use xlink:href="#ab" transform="matrix(1.77554 0 0 1.77551 -403.67 -300.805)"/><use xlink:href="#ac" transform="matrix(1.77554 0 0 1.77551 -403.67 -300.805)"/><use xlink:href="#ad" transform="matrix(1.77554 0 0 1.77551 -403.67 -300.805)"/><use xlink:href="#ae" transform="matrix(1.77554 0 0 1.77551 -403.67 -300.805)"/><use xlink:href="#af" transform="matrix(1.77554 0 0 1.77551 -403.67 -300.805)"/><use xlink:href="#ag" transform="matrix(1.77554 0 0 1.77551 -403.67 -300.805)"/><use xlink:href="#ah" transform="matrix(1.77554 0 0 1.77551 -403.67 -300.805)"/><use xlink:href="#ai" transform="matrix(1.77554 0 0 1.77551 -403.67 -300.805)"/><use xlink:href="#aj" transform="matrix(1.77554 0 0 1.77551 -403.67 -300.805)"/><use xlink:href="#ak" transform="matrix(1.77554 0 0 1.77551 -403.67 -300.805)"/><use xlink:href="#al" transform="matrix(1.77554 0 0 1.77551 -403.67 -300.805)"/><use xlink:href="#am" transform="matrix(1.77554 0 0 1.77551 -403.67 -300.805)"/><use xlink:href="#an" transform="matrix(1.77554 0 0 1.77551 -403.67 -300.805)"/><use xlink:href="#ao" transform="matrix(1.77554 0 0 1.77551 -403.67 -300.805)"/><use xlink:href="#ap" transform="matrix(1.77554 0 0 1.77551 -403.67 -300.805)"/><use xlink:href="#aq" transform="matrix(1.77554 0 0 1.77551 -403.67 -300.805)"/><use xlink:href="#ar" transform="matrix(1.77554 0 0 1.77551 -403.67 -300.805)"/><use xlink:href="#as" transform="matrix(1.77554 0 0 1.77551 -403.67 -300.805)"/><use xlink:href="#at" transform="matrix(1.77554 0 0 1.77551 -403.67 -300.805)"/><use xlink:href="#au" transform="matrix(1.77554 0 0 1.77551 -403.67 -300.805)"/><use xlink:href="#av" transform="matrix(1.77554 0 0 1.77551 -403.67 -300.805)"/><use xlink:href="#aw" transform="matrix(1.77554 0 0 1.77551 -403.67 -300.805)"/><use xlink:href="#ax" transform="matrix(1.77554 0 0 1.77551 -403.67 -300.805)"/><use xlink:href="#ay" transform="matrix(1.77554 0 0 1.77551 -403.67 -300.805)"/><use xlink:href="#az" transform="matrix(1.77554 0 0 1.77551 -403.67 -300.805)"/><use xlink:href="#aA" transform="matrix(1.77554 0 0 1.77551 -403.67 -300.805)"/><use xlink:href="#aB" transform="matrix(1.77554 0 0 1.77551 -403.67 -300.805)"/><use xlink:href="#aC" transform="matrix(1.77554 0 0 1.77551 -403.67 -300.805)"/><use xlink:href="#aD" transform="matrix(1.77554 0 0 1.77551 -403.67 -300.805)"/><use xlink:href="#aE" transform="matrix(1.77554 0 0 1.77551 -403.67 -300.805)"/><use xlink:href="#aF" transform="matrix(1.77554 0 0 1.77551 -403.67 -300.805)"/><use xlink:href="#aG" transform="matrix(1.77554 0 0 1.77551 -403.67 -300.805)"/><use xlink:href="#aH" transform="matrix(1.77554 0 0 1.77551 -403.67 -300.805)"/><use xlink:href="#aI" transform="matrix(1.77554 0 0 1.77551 -403.67 -300.805)"/><use xlink:href="#aJ" transform="matrix(1.77554 0 0 1.77551 -403.67 -300.805)"/><use xlink:href="#aK" transform="matrix(1.77554 0 0 1.77551 -403.67 -300.805)"/><use xlink:href="#aL" transform="matrix(1.77554 0 0 1.77551 -403.67 -300.805)"/><use xlink:href="#aM" transform="matrix(1.77554 0 0 1.77551 -403.67 -300.805)"/><use xlink:href="#aN" transform="matrix(1.77554 0 0 1.77551 -403.67 -300.805)"/><use xlink:href="#aO" transform="matrix(1.77554 0 0 1.77551 -403.67 -300.805)"/><use xlink:href="#aP" transform="matrix(1.77554 0 0 1.77551 -403.67 -300.805)"/><use xlink:href="#aQ" transform="matrix(1.77554 0 0 1.77551 -403.67 -300.805)"/><use xlink:href="#aR" transform="matrix(1.77554 0 0 1.77551 -403.67 -300.805)"/><use xlink:href="#aS" transform="matrix(1.77554 0 0 1.77551 -403.67 -300.805)"/><use xlink:href="#aT" transform="matrix(1.77554 0 0 1.77551 -403.67 -300.805)"/><use xlink:href="#aU" transform="matrix(1.77554 0 0 1.77551 -403.67 -300.805)"/><use xlink:href="#aV" transform="matrix(1.77554 0 0 1.77551 -403.67 -300.805)"/><use xlink:href="#aW" transform="matrix(1.77554 0 0 1.77551 -403.67 -300.805)"/><use xlink:href="#aX" transform="matrix(1.77554 0 0 1.77551 -403.67 -300.805)"/><use xlink:href="#aY" transform="matrix(1.77554 0 0 1.77551 -403.67 -300.805)"/><use xlink:href="#aZ" transform="matrix(1.77554 0 0 1.77551 -403.67 -300.805)"/></svg>