<svg xmlns="http://www.w3.org/2000/svg" xmlns:xlink="http://www.w3.org/1999/xlink" preserveAspectRatio="none" width="284" height="320"><defs><linearGradient id="a" gradientUnits="userSpaceOnUse" x1="291.15" y1="180.525" x2="291.15" y2="204.075" spreadMethod="pad"><stop offset="0%" stop-color="#CDECFC"/><stop offset="100%" stop-color="#9DDCF9"/></linearGradient><linearGradient id="b" gradientUnits="userSpaceOnUse" x1="308" y1="294.538" x2="308" y2="201.662" spreadMethod="pad"><stop offset="0%" stop-color="#CDECFC"/><stop offset="100%" stop-color="#CDECFC"/></linearGradient><linearGradient id="c" gradientUnits="userSpaceOnUse" x1="308" y1="236.512" x2="308" y2="294.988" spreadMethod="pad"><stop offset="0%" stop-color="#CDECFC"/><stop offset="100%" stop-color="#83D4F7"/></linearGradient><linearGradient id="d" gradientUnits="userSpaceOnUse" x1="308" y1="282.55" x2="308" y2="317.95" spreadMethod="pad"><stop offset="0%" stop-color="#CDECFC"/><stop offset="100%" stop-color="#63CDF6"/></linearGradient><linearGradient id="e" gradientUnits="userSpaceOnUse" x1="307.488" y1="243.912" x2="326.012" y2="275.988" spreadMethod="pad"><stop offset="0%" stop-color="#CDECFC"/><stop offset="100%" stop-color="#FFF"/></linearGradient><linearGradient id="f" gradientUnits="userSpaceOnUse" x1="306.913" y1="260.512" x2="307.788" y2="235.588" spreadMethod="pad"><stop offset="0%" stop-color="#00B0F0"/><stop offset="100%" stop-color="#83D4F7"/></linearGradient><linearGradient id="g" gradientUnits="userSpaceOnUse" x1="293.487" y1="279.05" x2="281.313" y2="279.05" spreadMethod="pad"><stop offset="0%" stop-color="#3CBCED"/><stop offset="100%" stop-color="#83D4F7"/></linearGradient><linearGradient id="h" gradientUnits="userSpaceOnUse" x1="288.4" y1="282.5" x2="288.4" y2="273.2" spreadMethod="pad"><stop offset="0%" stop-color="#EAF7FE"/><stop offset="100%" stop-color="#CDECFC"/></linearGradient><linearGradient id="i" gradientUnits="userSpaceOnUse" x1="313.487" y1="279.05" x2="301.313" y2="279.05" spreadMethod="pad"><stop offset="0%" stop-color="#3CBCED"/><stop offset="100%" stop-color="#83D4F7"/></linearGradient><linearGradient id="j" gradientUnits="userSpaceOnUse" x1="308" y1="282.5" x2="308" y2="273.2" spreadMethod="pad"><stop offset="0%" stop-color="#EAF7FE"/><stop offset="100%" stop-color="#CDECFC"/></linearGradient><linearGradient id="k" gradientUnits="userSpaceOnUse" x1="332.487" y1="279.05" x2="320.313" y2="279.05" spreadMethod="pad"><stop offset="0%" stop-color="#3CBCED"/><stop offset="100%" stop-color="#83D4F7"/></linearGradient><linearGradient id="l" gradientUnits="userSpaceOnUse" x1="327.65" y1="282.5" x2="327.65" y2="273.2" spreadMethod="pad"><stop offset="0%" stop-color="#EAF7FE"/><stop offset="100%" stop-color="#CDECFC"/></linearGradient><linearGradient id="m" gradientUnits="userSpaceOnUse" x1="299.6" y1="210.512" x2="299.6" y2="214.488" spreadMethod="pad"><stop offset="0%" stop-color="#63CDF6"/><stop offset="100%" stop-color="#B6E4FA"/></linearGradient><linearGradient id="n" gradientUnits="userSpaceOnUse" x1="308" y1="210.512" x2="308" y2="214.488" spreadMethod="pad"><stop offset="0%" stop-color="#63CDF6"/><stop offset="100%" stop-color="#B6E4FA"/></linearGradient><linearGradient id="o" gradientUnits="userSpaceOnUse" x1="316.45" y1="210.512" x2="316.45" y2="214.488" spreadMethod="pad"><stop offset="0%" stop-color="#63CDF6"/><stop offset="100%" stop-color="#B6E4FA"/></linearGradient><linearGradient id="p" gradientUnits="userSpaceOnUse" x1="341.125" y1="239.087" x2="333.175" y2="245.313" spreadMethod="pad"><stop offset="0%" stop-color="#E2F4FD"/><stop offset="100%" stop-color="#FFF"/></linearGradient><linearGradient id="q" gradientUnits="userSpaceOnUse" x1="361.35" y1="217.537" x2="361.35" y2="177.162" spreadMethod="pad"><stop offset="0%" stop-color="#E5F5FD"/><stop offset="100%" stop-color="#B6E4FA"/></linearGradient><linearGradient id="r" gradientUnits="userSpaceOnUse" x1="362.65" y1="238.538" x2="362.65" y2="209.063" spreadMethod="pad"><stop offset="0%" stop-color="#E5F5FD"/><stop offset="100%" stop-color="#FFF"/></linearGradient><linearGradient id="s" gradientUnits="userSpaceOnUse" x1="361.6" y1="195.512" x2="361.6" y2="209.488" spreadMethod="pad"><stop offset="0%" stop-color="#00B0F0"/><stop offset="100%" stop-color="#B6E4FA"/></linearGradient><linearGradient id="t" gradientUnits="userSpaceOnUse" x1="361.65" y1="195.512" x2="361.65" y2="209.488" spreadMethod="pad"><stop offset="0%" stop-color="#00B0F0"/><stop offset="100%" stop-color="#B6E4FA"/></linearGradient><linearGradient id="u" gradientUnits="userSpaceOnUse" x1="353.55" y1="195.512" x2="353.55" y2="209.488" spreadMethod="pad"><stop offset="0%" stop-color="#00B0F0"/><stop offset="100%" stop-color="#B6E4FA"/></linearGradient><linearGradient id="v" gradientUnits="userSpaceOnUse" x1="340.55" y1="195.512" x2="340.55" y2="209.488" spreadMethod="pad"><stop offset="0%" stop-color="#00B0F0"/><stop offset="100%" stop-color="#B6E4FA"/></linearGradient><linearGradient id="w" gradientUnits="userSpaceOnUse" x1="362.05" y1="219.537" x2="362.05" y2="230.162" spreadMethod="pad"><stop offset="0%" stop-color="#86D5F7"/><stop offset="100%" stop-color="#DAF1FD"/></linearGradient><linearGradient id="x" gradientUnits="userSpaceOnUse" x1="367.8" y1="219.537" x2="367.8" y2="230.162" spreadMethod="pad"><stop offset="0%" stop-color="#86D5F7"/><stop offset="100%" stop-color="#DAF1FD"/></linearGradient><linearGradient id="y" gradientUnits="userSpaceOnUse" x1="352.85" y1="219.537" x2="352.85" y2="230.162" spreadMethod="pad"><stop offset="0%" stop-color="#86D5F7"/><stop offset="100%" stop-color="#DAF1FD"/></linearGradient><linearGradient id="z" gradientUnits="userSpaceOnUse" x1="388.05" y1="201.162" x2="388.05" y2="216.338" spreadMethod="pad"><stop offset="0%" stop-color="#00C0F3"/><stop offset="100%" stop-color="#C8EBFB"/></linearGradient><linearGradient id="A" gradientUnits="userSpaceOnUse" x1="395.05" y1="201.162" x2="395.05" y2="216.338" spreadMethod="pad"><stop offset="0%" stop-color="#00C0F3"/><stop offset="100%" stop-color="#C8EBFB"/></linearGradient><linearGradient id="B" gradientUnits="userSpaceOnUse" x1="376.75" y1="201.162" x2="376.75" y2="216.338" spreadMethod="pad"><stop offset="0%" stop-color="#00C0F3"/><stop offset="100%" stop-color="#C8EBFB"/></linearGradient><linearGradient id="C" gradientUnits="userSpaceOnUse" x1="293.487" y1="295.2" x2="281.313" y2="295.2" spreadMethod="pad"><stop offset="0%" stop-color="#3CBCED"/><stop offset="100%" stop-color="#83D4F7"/></linearGradient><linearGradient id="D" gradientUnits="userSpaceOnUse" x1="288.4" y1="299.5" x2="288.4" y2="290.2" spreadMethod="pad"><stop offset="0%" stop-color="#EAF7FE"/><stop offset="100%" stop-color="#CDECFC"/></linearGradient><linearGradient id="E" gradientUnits="userSpaceOnUse" x1="313.487" y1="295.2" x2="301.313" y2="295.2" spreadMethod="pad"><stop offset="0%" stop-color="#3CBCED"/><stop offset="100%" stop-color="#83D4F7"/></linearGradient><linearGradient id="F" gradientUnits="userSpaceOnUse" x1="308" y1="299.5" x2="308" y2="290.2" spreadMethod="pad"><stop offset="0%" stop-color="#EAF7FE"/><stop offset="100%" stop-color="#CDECFC"/></linearGradient><linearGradient id="G" gradientUnits="userSpaceOnUse" x1="332.487" y1="295.2" x2="320.313" y2="295.2" spreadMethod="pad"><stop offset="0%" stop-color="#3CBCED"/><stop offset="100%" stop-color="#83D4F7"/></linearGradient><linearGradient id="H" gradientUnits="userSpaceOnUse" x1="327.65" y1="299.5" x2="327.65" y2="290.2" spreadMethod="pad"><stop offset="0%" stop-color="#EAF7FE"/><stop offset="100%" stop-color="#CDECFC"/></linearGradient><linearGradient id="I" gradientUnits="userSpaceOnUse" x1="288.4" y1="315.5" x2="288.4" y2="306.2" spreadMethod="pad"><stop offset="0%" stop-color="#EAF7FE"/><stop offset="100%" stop-color="#CDECFC"/></linearGradient><linearGradient id="J" gradientUnits="userSpaceOnUse" x1="308" y1="315.5" x2="308" y2="306.2" spreadMethod="pad"><stop offset="0%" stop-color="#EAF7FE"/><stop offset="100%" stop-color="#CDECFC"/></linearGradient><linearGradient id="K" gradientUnits="userSpaceOnUse" x1="327.65" y1="315.5" x2="327.65" y2="306.2" spreadMethod="pad"><stop offset="0%" stop-color="#EAF7FE"/><stop offset="100%" stop-color="#CDECFC"/></linearGradient><path fill="#FFF" fill-opacity="0" d="M284 0H0v320h284V0z" id="L"/><path fill="url(#a)" d="M291.2 179.55q-3.6 0-6.15 2.6-2.6 2.55-2.6 6.2v40.4q0 3.6 2.6 6.15 2.55 2.55 6.15 2.55 3.55 0 6.1-2.55t2.55-6.15v-40.4q0-3.65-2.55-6.2-2.55-2.6-6.1-2.6z" id="M"/><path fill="url(#b)" d="M348.7 206.9q-4.5-4.55-10.9-4.55h-59.55q-6.4 0-10.95 4.55-4.55 4.6-4.55 11v76.15q0 18.15 13.3 30.9 13.25 12.7 31.95 12.7 18.75 0 32-12.7 13.25-12.75 13.25-30.9V217.9q0-6.4-4.55-11z" id="N"/><path fill="url(#c)" d="M344.8 210.9q-4.15-4.15-9.9-4.15h-53.7q-5.8 0-9.95 4.15-4.1 4.1-4.1 9.9v68.7q0 16.45 12 28.15Q291.1 329.3 308 329.3q16.75 0 28.85-11.7 12.25-11.9 12.05-28.6v-68.2q0-5.8-4.1-9.9z" id="O"/><path fill="#0092D5" d="M338.3 226.65q0-1.6-.45-2.95-3-4.1-7.55-4.1h-44.55q-4 0-6.85 2.8-2.8 2.85-2.8 6.85v25.95q0 4.5 4.25 6.1 2.6 1 7.9 1h40.4q4.15 0 6.85-2.5 2.8-2.65 2.8-7.15v-26z" id="P"/><path fill="url(#d)" d="M348.9 291.8v-17.85q-21.9-1.75-42.2 1.9-23.5 4.15-39.55 14.8v1.7q0 16.4 12 28.1Q291.1 332.1 308 332.1q16.75 0 28.85-11.7 12.25-11.85 12.05-28.6z" id="Q"/><path fill="url(#e)" d="M339.95 233.7q0-3.95-2.8-6.8-2.85-2.85-6.85-2.85h-44.55q-4 0-6.85 2.85-2.8 2.85-2.8 6.8V256q0 3.95 2.8 6.8 2.85 2.85 6.85 2.85h44.55q4 0 6.85-2.85 2.8-2.85 2.8-6.8v-22.3z" id="R"/><path fill="#00B0F0" d="M338.3 229.35q0-1.55-.45-2.85-2.9-4.1-7.55-4.1h-44.55q-4 0-6.85 2.8-2.8 2.85-2.8 6.85V256q0 4.5 4.25 6.05 2.5.95 7.9.95h40.4q4.15 0 6.85-2.5 2.8-2.65 2.8-7.15v-24z" id="S"/><path fill="url(#f)" d="M328.65 263q4.15 0 6.85-2.5 2.8-2.65 2.8-7.15v-14.1q-17.3-3.1-32.7-1-19.2 2.6-29.5 12.95v4.8q0 4.5 4.25 6.05 2.5.95 7.9.95h40.4z" id="T"/><path fill="#9DDCF9" d="M367.95 230.65l-29.85 5-12.1 16.1 27.05-11.5 14.9-9.6z" id="U"/><path fill="#9DDCF9" d="M362.7 180.55q-18.7 0-32 9.45-13.3 9.5-13.3 22.8 0 13.35 13.3 22.8 13.3 9.45 32 9.45 18.75 0 32.05-9.45Q408 226.15 408 212.8q0-13.3-13.25-22.8-13.3-9.45-32.05-9.45z" id="V"/><path fill="url(#g)" d="M283.4 273.75q-2.05 2.2-2.05 5.3 0 3.1 2.05 5.3 2.1 2.2 5 2.2t5-2.2q2.05-2.2 2.05-5.3 0-3.1-2.05-5.3-2.1-2.2-5-2.2t-5 2.2z" id="W"/><path fill="url(#h)" d="M293.3 273.05q-2.05-2-4.9-2-2.85 0-4.85 2-2.05 2.05-2.05 4.85 0 2.85 2.05 4.9 2 2 4.85 2 2.85 0 4.9-2 2-2.05 2-4.9 0-2.8-2-4.85z" id="X"/><path fill="#FFF" d="M288.4 272.15q-1.4 0-2.4.45-1.05.5-1.05 1.15 0 .65 1.05 1.1 1 .45 2.4.45 1.45 0 2.5-.45t1.05-1.1q0-.65-1.05-1.15-1.05-.45-2.5-.45z" id="Y"/><path fill="url(#i)" d="M308 286.55q2.9 0 5-2.2 2.05-2.2 2.05-5.3 0-3.1-2.05-5.3-2.1-2.2-5-2.2t-5 2.2q-2.05 2.2-2.05 5.3 0 3.1 2.05 5.3 2.1 2.2 5 2.2z" id="Z"/><path fill="url(#j)" d="M312.9 273.05q-2.05-2-4.9-2-2.9 0-4.9 2-2.05 2.05-2.05 4.85 0 2.85 2.05 4.9 2 2 4.9 2 2.85 0 4.9-2 2-2.05 2-4.9 0-2.8-2-4.85z" id="aa"/><path fill="#FFF" d="M308 272.15q-1.45 0-2.45.45-1 .5-1 1.15 0 .65 1 1.1 1.05.45 2.45.45 1.45 0 2.5-.45 1-.45 1-1.1 0-.65-1-1.15-1.05-.45-2.5-.45z" id="ab"/><path fill="url(#k)" d="M327.65 286.55q2.9 0 5-2.2 2.05-2.2 2.05-5.3 0-3.1-2.05-5.3-2.1-2.2-5-2.2t-5 2.2q-2.05 2.2-2.05 5.3 0 3.1 2.05 5.3 2.1 2.2 5 2.2z" id="ac"/><path fill="url(#l)" d="M332.55 273.05q-2.05-2-4.9-2-2.85 0-4.85 2-2.05 2.05-2.05 4.85 0 2.85 2.05 4.9 2 2 4.85 2 2.85 0 4.9-2 2-2.05 2-4.9 0-2.8-2-4.85z" id="ad"/><path fill="#FFF" d="M327.65 272.15q-1.45 0-2.45.45-1 .5-1 1.15 0 .65 1 1.1 1.05.45 2.45.45 1.45 0 2.45-.45 1-.45 1-1.1 0-.65-1-1.15-1-.45-2.45-.45z" id="ae"/><path fill="#FFF" d="M299.55 208.9q-1.1 0-1.9.85-.8.85-.8 2.05 0 1.2.8 2.05.8.85 1.9.85 1.2 0 2-.85t.8-2.05q0-1.2-.8-2.05-.8-.85-2-.85z" id="af"/><path fill="url(#m)" d="M299.55 210q-1.1 0-1.85.75-.75.8-.75 1.9 0 1.1.75 1.85t1.85.75q1.1 0 1.9-.75.8-.75.8-1.85t-.8-1.9q-.8-.75-1.9-.75z" id="ag"/><path fill="#FFF" d="M310 209.75q-.85-.85-2-.85-1.2 0-2 .85t-.8 2.05q0 1.2.8 2.05.8.85 2 .85 1.15 0 2-.85.8-.85.8-2.05 0-1.2-.8-2.05z" id="ah"/><path fill="url(#n)" d="M309.85 210.75q-.75-.75-1.85-.75t-1.85.75q-.75.8-.75 1.9 0 1.1.75 1.85t1.85.75q1.1 0 1.85-.75.8-.75.8-1.85t-.8-1.9z" id="ai"/><path fill="#FFF" d="M316.4 208.9q-1.15 0-2 .85-.8.85-.8 2.05 0 1.2.8 2.05.85.85 2 .85 1.2 0 2-.85t.8-2.05q0-1.2-.8-2.05-.8-.85-2-.85z" id="aj"/><path fill="url(#o)" d="M316.4 210q-1.1 0-1.85.75-.75.8-.75 1.9 0 1.1.75 1.85t1.85.75q1.1 0 1.85-.75.8-.75.8-1.85t-.8-1.9q-.75-.75-1.85-.75z" id="ak"/><path fill="url(#p)" d="M366.6 228.35l-29.9 5-10.65 18.4 40.55-23.4z" id="al"/><path fill="url(#q)" d="M361.35 178.25q-18.75 0-32 9.45-13.3 9.5-13.3 22.8 0 13.35 13.3 22.8 13.25 9.45 32 9.45 18.7 0 32-9.45t13.3-22.8q0-13.3-13.3-22.8-13.3-9.45-32-9.45z" id="am"/><path fill="url(#r)" d="M406.65 210.5q0-1.2-.25-2.8-23.5-4.15-45.2-1.7-26.6 2.95-42.5 15.45 4.8 9.45 16.35 15.3 11.8 6 26.3 6 18.7 0 32-9.45t13.3-22.8z" id="an"/><path fill="url(#s)" d="M361.7 194.75q-2 0-2 1.45 0 .35.35 2.7.3 2.8.3 2.85 0 .7-.4 1.65-.25 1.4-.25 1.65 0 1.5 2 1.5 1.8 0 1.8-1.3 0-.9-.35-1.65-.45-.95-.45-1.8 0-.9.45-2.95.35-2.55.35-2.8 0-1.3-1.8-1.3z" id="ao"/><path fill="url(#t)" d="M363.7 209.8q0-.8-.65-1.3-.5-.45-1.35-.45-.75 0-1.45.45-.65.55-.65 1.3 0 .65.65 1.2.7.45 1.4.45.8 0 1.4-.45.65-.35.65-1.2z" id="ap"/><path fill="url(#u)" d="M357.75 200.85q-1.15-1.35-3.25-1.8l-.85-.05q-2.5 0-4.25 1.85-.9.9-1.45 2.45-.3 1-.3 2 0 .7.3 1.9.4 1.2 1.45 2.45 1.75 1.8 4.25 1.8.55 0 .85-.1 1.7-.15 3.25-1.7 1.65-1.8 1.65-4.4 0-2.6-1.65-4.4m-.85 5.2q-.15 1.7-.6 2.5-.7 1.25-1.8 1.25-1.3 0-1.8-1.25-.6-1.05-.65-2.5 0-1.7.6-2.65.6-1.3 1.85-1.3t1.85 1.3q.55.95.55 2.65z" id="aq"/><path fill="url(#v)" d="M334.2 194.45q-1.35.45-1.35 1.65 0 1.15.9 3.25 1 2.45 1 3.6 0 1.05-.9 3.4-1 2.3-1 3.15 0 1.1 1.35 1.5 1.45.45 2.3.45.8 0 1.5-.35.8-.5.8-1.3 0-.65-.5-1.65-.45-1.1-.45-1.65 0-1.05 1.55-1.7 1.05-.5 2.35-.5 1.05 0 2 .5 1.15.65 1.15 1.7 0 .75-1.25 1.65-1.25.85-1.25 1.65 0 .8.8 1.3.8.35 1.5.35.9 0 2.25-.45.85-.3 1-.55.3-.2.3-.75 0-.4-.3-1.15l-.65-1.5q-1-2-1-3.15 0-1.2.95-4.2.4-1.15.7-2.35.2-.85.2-1.55 0-.5-.2-.75-.3-.4-1-.6-1.4-.45-2.3-.45-.85 0-1.45.4-.7.4-.7 1.15 0 .7 1.15 2.7 1.15 2.15 1.15 2.75 0 1.05-1.1 1.6-.95.55-1.95.55-1.1 0-2.35-.8-1.55-.75-1.55-1.8 0-.65.4-2.5.4-1.75.4-2.5 0-.8-.7-1.15-.6-.4-1.45-.4t-2.3.45z" id="ar"/><path fill="url(#w)" d="M366.25 227.15q0-1.7-1.15-3.1-.9-1.05-2.4-1.3l-.55-.05q-1.85 0-3.05 1.25-.65.8-1 1.75-.2.65-.2 1.45 0 .8.2 1.35.25.8 1 1.75 1.3 1.3 3.05 1.3l.55-.1q1.35-.2 2.3-1.3 1.25-1.35 1.25-3m-5.2.55q-.05-1.15.35-1.95.5-.9 1.3-.9h.1q.85 0 1.25.9t.4 1.95q-.2 1.35-.45 1.75-.45.85-1.2.85h-.1q-.75 0-1.3-.85-.35-.8-.35-1.75z" id="as"/><path fill="url(#x)" d="M369.25 230.3q0-.55-.4-.85-.35-.35-1.05-.35-.65 0-1 .35-.4.25-.4.85t.4.85q.35.3 1 .3.7 0 1.05-.3.4-.3.4-.85z" id="at"/><path fill="url(#y)" d="M348.4 219.45q-1.05.3-1.05 1.15 0 .6.75 2.35.65 1.8.65 2.55 0 .75-.65 2.35t-.65 2.25q0 .9.95 1.05 1.05.4 1.65.4.4 0 1-.3.55-.3.55-.95 0-.45-.35-1.15-.3-.75-.3-1.2 0-.6 1.1-1.15.95-.4 1.65-.4.75 0 1.45.4.8.5.8 1.15 0 .6-.9 1.2-.85.55-.85 1.15 0 .65.5.95.7.3 1.1.3.4 0 1.6-.3.45-.2.7-.45.2-.2.2-.55 0-.35-.2-.8-.3-.65-.5-1.1-.65-1.25-.65-2.2 0-1.05.65-2.95.5-1.6.5-1.7.15-.5.15-1.05 0-.45-.15-.6l-.7-.4q-.8-.3-1.7-.3-.55 0-.9.2-.6.45-.6.9 0 .5.85 1.9.8 1.4.8 1.95 0 .7-.8 1.15-.65.4-1.35.4-.55 0-1.65-.6-1.1-.55-1.1-1.2 0-.65.3-1.8.3-1.6.3-1.8 0-.5-.5-.9-.4-.2-1-.2-.85 0-1.65.3z" id="au"/><path fill="url(#x)" d="M368.85 222.55q.25-1.2.25-1.95 0-.95-1.3-.95-1.35 0-1.35 1.1l.45 3.85q0 .5-.25 1.15-.2.6-.2 1.15 0 1.2 1.35 1.2 1.3 0 1.3-1.05 0-.6-.25-1.15-.3-.8-.3-1.3 0-.05.3-2.05z" id="av"/><path fill="url(#z)" d="M388.85 205.6q-.3-.05-.8-.05-2.2 0-3.65 1.6-.7.7-1.25 2.15-.2.65-.2 1.7 0 1 .2 1.65.5 1.3 1.3 2.1 1.45 1.6 3.6 1.6.5 0 .8-.1 1.55-.15 2.8-1.5 1.5-1.55 1.5-3.8 0-2.2-1.5-3.8-1.15-1.3-2.8-1.55m0 2.6q1.15 0 1.65 1.15.45 1 .45 2.3-.15 1.4-.5 2.15-.6 1.1-1.6 1.1-1.1 0-1.6-1.1-.5-.9-.5-2.15 0-1.3.45-2.3.6-1.15 1.65-1.15z" id="aw"/><path fill="url(#A)" d="M396.85 214.9q0-.75-.5-1.1-.65-.4-1.25-.4t-1.2.35q-.6.45-.6 1.15 0 .75.6 1 .55.45 1.15.45.7 0 1.2-.45.6-.25.6-1z" id="ax"/><path fill="url(#B)" d="M383.15 204.1q.2-.8.2-1.35 0-.4-.2-.65-.15-.25-.85-.5-1.2-.45-2.05-.45-.6 0-1.2.35-.55.35-.55 1 0 .8.9 2.4 1 1.55 1 2.35 0 .9-.9 1.4-.7.5-1.65.5-.8 0-2.1-.65-1.3-.75-1.3-1.6 0-1 .3-2.15.35-1.4.35-2.25 0-.55-.6-1-.6-.35-1.2-.35-.85 0-2.05.45-1.2.3-1.2 1.4 0 .85.85 2.85.8 2.15.8 3.05 0 .95-.8 3.05-.85 2-.85 2.65 0 1 1.2 1.4 1.4.35 1.95.35.6 0 1.4-.35.65-.4.65-1.1 0-.55-.45-1.45-.35-.65-.35-1.45 0-.85 1.3-1.4 1.05-.45 2.1-.45.95 0 1.7.45 1 .55 1 1.4 0 .7-1.05 1.45-1.1.75-1.1 1.45 0 .75.65 1.1.6.35 1.3.35.65 0 1.95-.35.65-.25.85-.5.3-.2.3-.65 0-.35-.3-1.05l-.55-1.3q-.9-1.7-.9-2.7 0-1.2.9-3.7l.55-2z" id="ay"/><path fill="url(#A)" d="M396.7 202.95q0-1.15-1.6-1.15-1.7 0-1.7 1.3 0 .9.25 2.35l.25 2.45q0 .55-.25 1.45-.25.65-.25 1.45 0 1.3 1.7 1.3 1.6 0 1.6-1.15 0-.4-.35-1.45-.4-.8-.4-1.6 0-.6.4-2.5.35-2.2.35-2.45z" id="az"/><path fill="#E5F5FD" d="M291.2 182.05q-1.85 0-3.15.6-1.3.6-1.3 1.45t1.3 1.45q1.25.55 3.15.55 1.85 0 3.1-.55 1.3-.6 1.3-1.45t-1.3-1.45q-1.25-.6-3.1-.6z" id="aA"/><path fill="#FFF" d="M307.2 227.15q-1.5 6-2.95 8.55-1.45 2.55-5.9 6.8 5.9-1.7 8.85-1.7 2.9 0 8.8 1.7-4.45-4.25-5.9-6.8-1.45-2.5-2.9-8.55z" id="aB"/><path fill="#FFF" d="M307.2 229.65q-1.85 7.2-3.6 10.3-1.8 3.1-7.05 8.2 7.05-2 10.6-2 3.6 0 10.7 2-5.35-5.1-7.1-8.2-1.8-3.1-3.55-10.3z" id="aC"/><path fill="#FFF" d="M307.2 233.35q-2.1 8.4-4.2 12.1-2.05 3.55-8.35 9.7 8.35-2.45 12.5-2.45 4.2 0 12.55 2.45-6.3-6.15-8.35-9.7-2.1-3.65-4.15-12.1z" id="aD"/><path fill="#FFF" d="M305.95 249.55V256h2.4v-6.45h-2.4z" id="aE"/><path fill="url(#C)" d="M283.4 289.95q-2.05 2.2-2.05 5.3 0 3.1 2.05 5.25 2.1 2.15 5 2.15 2.95 0 5-2.15t2.05-5.25q0-3.1-2.05-5.3-2.05-2.2-5-2.2-2.9 0-5 2.2z" id="aF"/><path fill="url(#D)" d="M293.3 289.25q-2.05-2.05-4.9-2.05-2.85 0-4.85 2.05-2.05 2-2.05 4.85 0 2.85 2.05 4.9 2 2 4.85 2 2.85 0 4.9-2 2-2.05 2-4.9 0-2.85-2-4.85z" id="aG"/><path fill="#FFF" d="M288.4 288.35q-1.4 0-2.4.45-1.05.4-1.05 1.05 0 .7 1.05 1.15 1 .45 2.4.45 1.5 0 2.5-.45 1.05-.45 1.05-1.15 0-.65-1.05-1.05-1.05-.45-2.5-.45z" id="aH"/><path fill="url(#E)" d="M315.05 295.25q0-3.1-2.05-5.3-2.05-2.2-5-2.2-2.9 0-5 2.2-2.05 2.2-2.05 5.3 0 3.1 2.05 5.25 2.1 2.15 5 2.15 2.95 0 5-2.15t2.05-5.25z" id="aI"/><path fill="url(#F)" d="M312.9 289.25q-2.05-2.05-4.9-2.05-2.9 0-4.9 2.05-2.05 2-2.05 4.85 0 2.85 2.05 4.9 2 2 4.9 2 2.85 0 4.9-2 2-2.05 2-4.9 0-2.85-2-4.85z" id="aJ"/><path fill="#FFF" d="M308 288.35q-1.45 0-2.45.45-1 .4-1 1.05 0 .7 1 1.15 1 .45 2.45.45 1.5 0 2.5-.45t1-1.15q0-.65-1-1.05-1.05-.45-2.5-.45z" id="aK"/><path fill="url(#G)" d="M334.7 295.25q0-3.1-2.05-5.3-2.05-2.2-5-2.2-2.9 0-5 2.2-2.05 2.2-2.05 5.3 0 3.1 2.05 5.25 2.1 2.15 5 2.15 2.95 0 5-2.15t2.05-5.25z" id="aL"/><path fill="url(#H)" d="M332.55 289.25q-2.05-2.05-4.9-2.05-2.85 0-4.85 2.05-2.05 2-2.05 4.85 0 2.85 2.05 4.9 2 2 4.85 2 2.85 0 4.9-2 2-2.05 2-4.9 0-2.85-2-4.85z" id="aM"/><path fill="#FFF" d="M327.65 288.35q-1.45 0-2.45.45-1 .4-1 1.05 0 .7 1 1.15 1 .45 2.45.45 1.5 0 2.45-.45 1-.45 1-1.15 0-.65-1-1.05-1-.45-2.45-.45z" id="aN"/><path fill="#00B0F0" d="M288.4 318.85q2.9 0 5-2.2 2.05-2.15 2.05-5.25t-2.05-5.3q-2.1-2.2-5-2.2t-5 2.2q-2.05 2.2-2.05 5.3 0 3.1 2.05 5.25 2.1 2.2 5 2.2z" id="aO"/><path fill="url(#I)" d="M293.3 305.45q-2.05-2.05-4.9-2.05-2.85 0-4.85 2.05-2.05 2-2.05 4.85 0 2.8 2.05 4.85 2 2 4.85 2 2.85 0 4.9-2 2-2.05 2-4.85 0-2.85-2-4.85z" id="aP"/><path fill="#FFF" d="M288.4 304.45q-1.4 0-2.4.5-1.05.45-1.05 1.1 0 .65 1.05 1.1 1 .5 2.4.5 1.45 0 2.5-.5 1.05-.45 1.05-1.1 0-.65-1.05-1.1-1.05-.5-2.5-.5z" id="aQ"/><path fill="#00B0F0" d="M308 318.85q2.9 0 5-2.2 2.05-2.15 2.05-5.25t-2.05-5.3q-2.1-2.2-5-2.2t-5 2.2q-2.05 2.2-2.05 5.3 0 3.1 2.05 5.25 2.1 2.2 5 2.2z" id="aR"/><path fill="url(#J)" d="M312.9 305.45q-2.05-2.05-4.9-2.05-2.9 0-4.9 2.05-2.05 2-2.05 4.85 0 2.8 2.05 4.85 2 2 4.9 2 2.85 0 4.9-2 2-2.05 2-4.85 0-2.85-2-4.85z" id="aS"/><path fill="#FFF" d="M308 304.45q-1.4 0-2.45.5-1 .45-1 1.1 0 .65 1 1.1 1.05.5 2.45.5 1.45 0 2.5-.5 1-.45 1-1.1 0-.65-1-1.1-1.05-.5-2.5-.5z" id="aT"/><path fill="#00B0F0" d="M327.65 318.85q2.9 0 5-2.2 2.05-2.15 2.05-5.25t-2.05-5.3q-2.1-2.2-5-2.2t-5 2.2q-2.05 2.2-2.05 5.3 0 3.1 2.05 5.25 2.1 2.2 5 2.2z" id="aU"/><path fill="url(#K)" d="M332.55 305.45q-2.05-2.05-4.9-2.05-2.85 0-4.85 2.05-2.05 2-2.05 4.85 0 2.8 2.05 4.85 2 2 4.85 2 2.85 0 4.9-2 2-2.05 2-4.85 0-2.85-2-4.85z" id="aV"/><path fill="#FFF" d="M327.65 304.45q-1.4 0-2.45.5-1 .45-1 1.1 0 .65 1 1.1 1.05.5 2.45.5 1.45 0 2.45-.5 1-.45 1-1.1 0-.65-1-1.1-1-.5-2.45-.5z" id="aW"/></defs><use xlink:href="#L"/><use xlink:href="#M" transform="matrix(1.63744 0 0 1.63744 -407.036 -243.323)"/><use xlink:href="#N" transform="matrix(1.63744 0 0 1.63744 -407.036 -243.323)"/><use xlink:href="#O" transform="matrix(1.63744 0 0 1.63744 -407.036 -243.323)"/><use xlink:href="#P" transform="matrix(1.63744 0 0 1.63744 -407.036 -243.323)"/><use xlink:href="#Q" transform="matrix(1.63744 0 0 1.63744 -407.036 -243.323)"/><use xlink:href="#R" transform="matrix(1.63744 0 0 1.63744 -407.036 -243.323)"/><use xlink:href="#S" transform="matrix(1.63744 0 0 1.63744 -407.036 -243.323)"/><use xlink:href="#T" transform="matrix(1.63744 0 0 1.63744 -407.036 -243.323)"/><use xlink:href="#U" transform="matrix(1.63744 0 0 1.63744 -407.036 -243.323)"/><use xlink:href="#V" transform="matrix(1.63744 0 0 1.63744 -407.036 -243.323)"/><use xlink:href="#W" transform="matrix(1.63744 0 0 1.63744 -407.036 -243.323)"/><use xlink:href="#X" transform="matrix(1.63744 0 0 1.63744 -407.036 -243.323)"/><use xlink:href="#Y" transform="matrix(1.63744 0 0 1.63744 -407.036 -243.323)"/><use xlink:href="#Z" transform="matrix(1.63744 0 0 1.63744 -407.036 -243.323)"/><use xlink:href="#aa" transform="matrix(1.63744 0 0 1.63744 -407.036 -243.323)"/><use xlink:href="#ab" transform="matrix(1.63744 0 0 1.63744 -407.036 -243.323)"/><use xlink:href="#ac" transform="matrix(1.63744 0 0 1.63744 -407.036 -243.323)"/><use xlink:href="#ad" transform="matrix(1.63744 0 0 1.63744 -407.036 -243.323)"/><use xlink:href="#ae" transform="matrix(1.63744 0 0 1.63744 -407.036 -243.323)"/><use xlink:href="#af" transform="matrix(1.63744 0 0 1.63744 -407.036 -243.323)"/><use xlink:href="#ag" transform="matrix(1.63744 0 0 1.63744 -407.036 -243.323)"/><use xlink:href="#ah" transform="matrix(1.63744 0 0 1.63744 -407.036 -243.323)"/><use xlink:href="#ai" transform="matrix(1.63744 0 0 1.63744 -407.036 -243.323)"/><use xlink:href="#aj" transform="matrix(1.63744 0 0 1.63744 -407.036 -243.323)"/><use xlink:href="#ak" transform="matrix(1.63744 0 0 1.63744 -407.036 -243.323)"/><use xlink:href="#al" transform="matrix(1.63744 0 0 1.63744 -407.036 -243.323)"/><use xlink:href="#am" transform="matrix(1.63744 0 0 1.63744 -407.036 -243.323)"/><use xlink:href="#an" transform="matrix(1.63744 0 0 1.63744 -407.036 -243.323)"/><use xlink:href="#ao" transform="matrix(1.63744 0 0 1.63744 -407.036 -243.323)"/><use xlink:href="#ap" transform="matrix(1.63744 0 0 1.63744 -407.036 -243.323)"/><use xlink:href="#aq" transform="matrix(1.63744 0 0 1.63744 -407.036 -243.323)"/><use xlink:href="#ar" transform="matrix(1.63744 0 0 1.63744 -407.036 -243.323)"/><use xlink:href="#as" transform="matrix(1.63744 0 0 1.63744 -407.036 -243.323)"/><use xlink:href="#at" transform="matrix(1.63744 0 0 1.63744 -407.036 -243.323)"/><use xlink:href="#au" transform="matrix(1.63744 0 0 1.63744 -407.036 -243.323)"/><use xlink:href="#av" transform="matrix(1.63744 0 0 1.63744 -407.036 -243.323)"/><use xlink:href="#aw" transform="matrix(1.63744 0 0 1.63744 -407.036 -243.323)"/><use xlink:href="#ax" transform="matrix(1.63744 0 0 1.63744 -407.036 -243.323)"/><use xlink:href="#ay" transform="matrix(1.63744 0 0 1.63744 -407.036 -243.323)"/><use xlink:href="#az" transform="matrix(1.63744 0 0 1.63744 -407.036 -243.323)"/><use xlink:href="#aA" transform="matrix(1.63744 0 0 1.63744 -407.036 -243.323)"/><use xlink:href="#aB" transform="matrix(1.63744 0 0 1.63744 -407.036 -243.323)"/><use xlink:href="#aC" transform="matrix(1.63744 0 0 1.63744 -407.036 -243.323)"/><use xlink:href="#aD" transform="matrix(1.63744 0 0 1.63744 -407.036 -243.323)"/><use xlink:href="#aE" transform="matrix(1.63744 0 0 1.63744 -407.036 -243.323)"/><use xlink:href="#aF" transform="matrix(1.63744 0 0 1.63744 -407.036 -243.323)"/><use xlink:href="#aG" transform="matrix(1.63744 0 0 1.63744 -407.036 -243.323)"/><use xlink:href="#aH" transform="matrix(1.63744 0 0 1.63744 -407.036 -243.323)"/><use xlink:href="#aI" transform="matrix(1.63744 0 0 1.63744 -407.036 -243.323)"/><use xlink:href="#aJ" transform="matrix(1.63744 0 0 1.63744 -407.036 -243.323)"/><use xlink:href="#aK" transform="matrix(1.63744 0 0 1.63744 -407.036 -243.323)"/><use xlink:href="#aL" transform="matrix(1.63744 0 0 1.63744 -407.036 -243.323)"/><use xlink:href="#aM" transform="matrix(1.63744 0 0 1.63744 -407.036 -243.323)"/><use xlink:href="#aN" transform="matrix(1.63744 0 0 1.63744 -407.036 -243.323)"/><use xlink:href="#aO" transform="matrix(1.63744 0 0 1.63744 -407.036 -243.323)"/><use xlink:href="#aP" transform="matrix(1.63744 0 0 1.63744 -407.036 -243.323)"/><use xlink:href="#aQ" transform="matrix(1.63744 0 0 1.63744 -407.036 -243.323)"/><use xlink:href="#aR" transform="matrix(1.63744 0 0 1.63744 -407.036 -243.323)"/><use xlink:href="#aS" transform="matrix(1.63744 0 0 1.63744 -407.036 -243.323)"/><use xlink:href="#aT" transform="matrix(1.63744 0 0 1.63744 -407.036 -243.323)"/><use xlink:href="#aU" transform="matrix(1.63744 0 0 1.63744 -407.036 -243.323)"/><use xlink:href="#aV" transform="matrix(1.63744 0 0 1.63744 -407.036 -243.323)"/><use xlink:href="#aW" transform="matrix(1.63744 0 0 1.63744 -407.036 -243.323)"/></svg>