<svg xmlns="http://www.w3.org/2000/svg" xmlns:xlink="http://www.w3.org/1999/xlink" preserveAspectRatio="none" width="284" height="320"><defs><radialGradient id="a" gradientUnits="userSpaceOnUse" cx="0" cy="0" r="26.325" fx="0" fy="0" gradientTransform="matrix(1 0 0 1.2659 23 29.25)" spreadMethod="pad"><stop offset="78.039%" stop-color="#FFF"/><stop offset="100%" stop-color="#CCC"/></radialGradient><linearGradient id="b" gradientUnits="userSpaceOnUse" x1="614.9" y1="558" x2="614.9" y2="595.5" spreadMethod="pad"><stop offset="0%" stop-color="#FFF"/><stop offset="4.314%" stop-color="#FCF5FC"/><stop offset="16.863%" stop-color="#F5D9F3"/><stop offset="43.137%" stop-color="#C78DC3"/><stop offset="67.059%" stop-color="#9A4395"/><stop offset="70.98%" stop-color="#92408D"/><stop offset="77.255%" stop-color="#7C3678"/><stop offset="85.098%" stop-color="#592756"/><stop offset="93.725%" stop-color="#281227"/><stop offset="100%"/></linearGradient><linearGradient id="c" gradientUnits="userSpaceOnUse" x1="626.6" y1="581.188" x2="626.6" y2="581.813" spreadMethod="pad"><stop offset="0%" stop-color="#FFF"/><stop offset="18.431%" stop-color="#F8E6F7"/><stop offset="31.765%" stop-color="#F5D9F3"/><stop offset="75.686%" stop-color="#9A4395"/><stop offset="100%" stop-color="#411D6E"/></linearGradient><linearGradient id="d" gradientUnits="userSpaceOnUse" x1="626.6" y1="584.138" x2="626.6" y2="632.563" spreadMethod="pad"><stop offset="0%" stop-color="#FFF"/><stop offset="18.431%" stop-color="#F8E6F7"/><stop offset="31.765%" stop-color="#F5D9F3"/><stop offset="75.686%" stop-color="#9A4395"/><stop offset="100%" stop-color="#411D6E"/></linearGradient><linearGradient id="e" gradientUnits="userSpaceOnUse" x1="626.6" y1="584.125" x2="626.6" y2="632.575" spreadMethod="pad"><stop offset="0%" stop-color="#FFF"/><stop offset="18.431%" stop-color="#F8E6F7"/><stop offset="31.765%" stop-color="#F5D9F3"/><stop offset="75.686%" stop-color="#9A4395"/><stop offset="100%" stop-color="#411D6E"/></linearGradient><linearGradient id="f" gradientUnits="userSpaceOnUse" x1="624.5" y1="584.125" x2="624.5" y2="632.575" spreadMethod="pad"><stop offset="0%" stop-color="#FFF"/><stop offset="18.431%" stop-color="#F8E6F7"/><stop offset="31.765%" stop-color="#F5D9F3"/><stop offset="75.686%" stop-color="#9A4395"/><stop offset="100%" stop-color="#411D6E"/></linearGradient><linearGradient id="g" gradientUnits="userSpaceOnUse" x1="624.5" y1="584.138" x2="624.5" y2="632.563" spreadMethod="pad"><stop offset="0%" stop-color="#FFF"/><stop offset="18.431%" stop-color="#F8E6F7"/><stop offset="31.765%" stop-color="#F5D9F3"/><stop offset="75.686%" stop-color="#9A4395"/><stop offset="100%" stop-color="#411D6E"/></linearGradient><linearGradient id="h" gradientUnits="userSpaceOnUse" x1="620.95" y1="584.138" x2="620.95" y2="632.563" spreadMethod="pad"><stop offset="0%" stop-color="#FFF"/><stop offset="18.431%" stop-color="#F8E6F7"/><stop offset="31.765%" stop-color="#F5D9F3"/><stop offset="75.686%" stop-color="#9A4395"/><stop offset="100%" stop-color="#411D6E"/></linearGradient><linearGradient id="i" gradientUnits="userSpaceOnUse" x1="620.95" y1="584.125" x2="620.95" y2="632.575" spreadMethod="pad"><stop offset="0%" stop-color="#FFF"/><stop offset="18.431%" stop-color="#F8E6F7"/><stop offset="31.765%" stop-color="#F5D9F3"/><stop offset="75.686%" stop-color="#9A4395"/><stop offset="100%" stop-color="#411D6E"/></linearGradient><linearGradient id="j" gradientUnits="userSpaceOnUse" x1="618.95" y1="584.125" x2="618.95" y2="632.575" spreadMethod="pad"><stop offset="0%" stop-color="#FFF"/><stop offset="18.431%" stop-color="#F8E6F7"/><stop offset="31.765%" stop-color="#F5D9F3"/><stop offset="75.686%" stop-color="#9A4395"/><stop offset="100%" stop-color="#411D6E"/></linearGradient><linearGradient id="k" gradientUnits="userSpaceOnUse" x1="618.95" y1="584.138" x2="618.95" y2="632.563" spreadMethod="pad"><stop offset="0%" stop-color="#FFF"/><stop offset="18.431%" stop-color="#F8E6F7"/><stop offset="31.765%" stop-color="#F5D9F3"/><stop offset="75.686%" stop-color="#9A4395"/><stop offset="100%" stop-color="#411D6E"/></linearGradient><linearGradient id="l" gradientUnits="userSpaceOnUse" x1="622.9" y1="584.125" x2="622.9" y2="632.575" spreadMethod="pad"><stop offset="0%" stop-color="#FFF"/><stop offset="18.431%" stop-color="#F8E6F7"/><stop offset="31.765%" stop-color="#F5D9F3"/><stop offset="75.686%" stop-color="#9A4395"/><stop offset="100%" stop-color="#411D6E"/></linearGradient><linearGradient id="m" gradientUnits="userSpaceOnUse" x1="622.9" y1="584.138" x2="622.9" y2="632.563" spreadMethod="pad"><stop offset="0%" stop-color="#FFF"/><stop offset="18.431%" stop-color="#F8E6F7"/><stop offset="31.765%" stop-color="#F5D9F3"/><stop offset="75.686%" stop-color="#9A4395"/><stop offset="100%" stop-color="#411D6E"/></linearGradient><linearGradient id="n" gradientUnits="userSpaceOnUse" x1="628.35" y1="584.138" x2="628.35" y2="632.563" spreadMethod="pad"><stop offset="0%" stop-color="#FFF"/><stop offset="18.431%" stop-color="#F8E6F7"/><stop offset="31.765%" stop-color="#F5D9F3"/><stop offset="75.686%" stop-color="#9A4395"/><stop offset="100%" stop-color="#411D6E"/></linearGradient><linearGradient id="o" gradientUnits="userSpaceOnUse" x1="628.35" y1="584.125" x2="628.35" y2="632.575" spreadMethod="pad"><stop offset="0%" stop-color="#FFF"/><stop offset="18.431%" stop-color="#F8E6F7"/><stop offset="31.765%" stop-color="#F5D9F3"/><stop offset="75.686%" stop-color="#9A4395"/><stop offset="100%" stop-color="#411D6E"/></linearGradient><linearGradient id="p" gradientUnits="userSpaceOnUse" x1="630.05" y1="584.125" x2="630.05" y2="632.575" spreadMethod="pad"><stop offset="0%" stop-color="#FFF"/><stop offset="18.431%" stop-color="#F8E6F7"/><stop offset="31.765%" stop-color="#F5D9F3"/><stop offset="75.686%" stop-color="#9A4395"/><stop offset="100%" stop-color="#411D6E"/></linearGradient><linearGradient id="q" gradientUnits="userSpaceOnUse" x1="630.05" y1="584.138" x2="630.05" y2="632.563" spreadMethod="pad"><stop offset="0%" stop-color="#FFF"/><stop offset="18.431%" stop-color="#F8E6F7"/><stop offset="31.765%" stop-color="#F5D9F3"/><stop offset="75.686%" stop-color="#9A4395"/><stop offset="100%" stop-color="#411D6E"/></linearGradient><linearGradient id="r" gradientUnits="userSpaceOnUse" x1="606.3" y1="575.288" x2="606.3" y2="575.913" spreadMethod="pad"><stop offset="0%" stop-color="#FFF"/><stop offset="18.431%" stop-color="#F8E6F7"/><stop offset="31.765%" stop-color="#F5D9F3"/><stop offset="75.686%" stop-color="#9A4395"/><stop offset="100%" stop-color="#411D6E"/></linearGradient><linearGradient id="s" gradientUnits="userSpaceOnUse" x1="606.3" y1="576.138" x2="606.3" y2="576.763" spreadMethod="pad"><stop offset="0%" stop-color="#FFF"/><stop offset="18.431%" stop-color="#F8E6F7"/><stop offset="31.765%" stop-color="#F5D9F3"/><stop offset="75.686%" stop-color="#9A4395"/><stop offset="100%" stop-color="#411D6E"/></linearGradient><linearGradient id="t" gradientUnits="userSpaceOnUse" x1="606.3" y1="576.987" x2="606.3" y2="577.612" spreadMethod="pad"><stop offset="0%" stop-color="#FFF"/><stop offset="18.431%" stop-color="#F8E6F7"/><stop offset="31.765%" stop-color="#F5D9F3"/><stop offset="75.686%" stop-color="#9A4395"/><stop offset="100%" stop-color="#411D6E"/></linearGradient><linearGradient id="u" gradientUnits="userSpaceOnUse" x1="606.3" y1="577.837" x2="606.3" y2="578.462" spreadMethod="pad"><stop offset="0%" stop-color="#FFF"/><stop offset="18.431%" stop-color="#F8E6F7"/><stop offset="31.765%" stop-color="#F5D9F3"/><stop offset="75.686%" stop-color="#9A4395"/><stop offset="100%" stop-color="#411D6E"/></linearGradient><linearGradient id="v" gradientUnits="userSpaceOnUse" x1="606.3" y1="578.638" x2="606.3" y2="579.263" spreadMethod="pad"><stop offset="0%" stop-color="#FFF"/><stop offset="18.431%" stop-color="#F8E6F7"/><stop offset="31.765%" stop-color="#F5D9F3"/><stop offset="75.686%" stop-color="#9A4395"/><stop offset="100%" stop-color="#411D6E"/></linearGradient><linearGradient id="w" gradientUnits="userSpaceOnUse" x1="606.3" y1="579.487" x2="606.3" y2="580.112" spreadMethod="pad"><stop offset="0%" stop-color="#FFF"/><stop offset="18.431%" stop-color="#F8E6F7"/><stop offset="31.765%" stop-color="#F5D9F3"/><stop offset="75.686%" stop-color="#9A4395"/><stop offset="100%" stop-color="#411D6E"/></linearGradient><linearGradient id="x" gradientUnits="userSpaceOnUse" x1="606.3" y1="580.337" x2="606.3" y2="580.962" spreadMethod="pad"><stop offset="0%" stop-color="#FFF"/><stop offset="18.431%" stop-color="#F8E6F7"/><stop offset="31.765%" stop-color="#F5D9F3"/><stop offset="75.686%" stop-color="#9A4395"/><stop offset="100%" stop-color="#411D6E"/></linearGradient><linearGradient id="y" gradientUnits="userSpaceOnUse" x1="606.3" y1="581.188" x2="606.3" y2="581.813" spreadMethod="pad"><stop offset="0%" stop-color="#FFF"/><stop offset="18.431%" stop-color="#F8E6F7"/><stop offset="31.765%" stop-color="#F5D9F3"/><stop offset="75.686%" stop-color="#9A4395"/><stop offset="100%" stop-color="#411D6E"/></linearGradient><linearGradient id="z" gradientUnits="userSpaceOnUse" x1="606.3" y1="584.138" x2="606.3" y2="632.563" spreadMethod="pad"><stop offset="0%" stop-color="#FFF"/><stop offset="18.431%" stop-color="#F8E6F7"/><stop offset="31.765%" stop-color="#F5D9F3"/><stop offset="75.686%" stop-color="#9A4395"/><stop offset="100%" stop-color="#411D6E"/></linearGradient><linearGradient id="A" gradientUnits="userSpaceOnUse" x1="606.3" y1="584.125" x2="606.3" y2="632.575" spreadMethod="pad"><stop offset="0%" stop-color="#FFF"/><stop offset="18.431%" stop-color="#F8E6F7"/><stop offset="31.765%" stop-color="#F5D9F3"/><stop offset="75.686%" stop-color="#9A4395"/><stop offset="100%" stop-color="#411D6E"/></linearGradient><linearGradient id="B" gradientUnits="userSpaceOnUse" x1="604.4" y1="580.337" x2="604.4" y2="580.962" spreadMethod="pad"><stop offset="0%" stop-color="#FFF"/><stop offset="18.431%" stop-color="#F8E6F7"/><stop offset="31.765%" stop-color="#F5D9F3"/><stop offset="75.686%" stop-color="#9A4395"/><stop offset="100%" stop-color="#411D6E"/></linearGradient><linearGradient id="C" gradientUnits="userSpaceOnUse" x1="604.4" y1="581.188" x2="604.4" y2="581.813" spreadMethod="pad"><stop offset="0%" stop-color="#FFF"/><stop offset="18.431%" stop-color="#F8E6F7"/><stop offset="31.765%" stop-color="#F5D9F3"/><stop offset="75.686%" stop-color="#9A4395"/><stop offset="100%" stop-color="#411D6E"/></linearGradient><linearGradient id="D" gradientUnits="userSpaceOnUse" x1="604.4" y1="584.138" x2="604.4" y2="632.563" spreadMethod="pad"><stop offset="0%" stop-color="#FFF"/><stop offset="18.431%" stop-color="#F8E6F7"/><stop offset="31.765%" stop-color="#F5D9F3"/><stop offset="75.686%" stop-color="#9A4395"/><stop offset="100%" stop-color="#411D6E"/></linearGradient><linearGradient id="E" gradientUnits="userSpaceOnUse" x1="604.4" y1="584.125" x2="604.4" y2="632.575" spreadMethod="pad"><stop offset="0%" stop-color="#FFF"/><stop offset="18.431%" stop-color="#F8E6F7"/><stop offset="31.765%" stop-color="#F5D9F3"/><stop offset="75.686%" stop-color="#9A4395"/><stop offset="100%" stop-color="#411D6E"/></linearGradient><linearGradient id="F" gradientUnits="userSpaceOnUse" x1="599.8" y1="584.125" x2="599.8" y2="632.575" spreadMethod="pad"><stop offset="0%" stop-color="#FFF"/><stop offset="18.431%" stop-color="#F8E6F7"/><stop offset="31.765%" stop-color="#F5D9F3"/><stop offset="75.686%" stop-color="#9A4395"/><stop offset="100%" stop-color="#411D6E"/></linearGradient><linearGradient id="G" gradientUnits="userSpaceOnUse" x1="599.8" y1="584.138" x2="599.8" y2="632.563" spreadMethod="pad"><stop offset="0%" stop-color="#FFF"/><stop offset="18.431%" stop-color="#F8E6F7"/><stop offset="31.765%" stop-color="#F5D9F3"/><stop offset="75.686%" stop-color="#9A4395"/><stop offset="100%" stop-color="#411D6E"/></linearGradient><linearGradient id="H" gradientUnits="userSpaceOnUse" x1="602.3" y1="584.125" x2="602.3" y2="632.575" spreadMethod="pad"><stop offset="0%" stop-color="#FFF"/><stop offset="18.431%" stop-color="#F8E6F7"/><stop offset="31.765%" stop-color="#F5D9F3"/><stop offset="75.686%" stop-color="#9A4395"/><stop offset="100%" stop-color="#411D6E"/></linearGradient><linearGradient id="I" gradientUnits="userSpaceOnUse" x1="602.3" y1="584.138" x2="602.3" y2="632.563" spreadMethod="pad"><stop offset="0%" stop-color="#FFF"/><stop offset="18.431%" stop-color="#F8E6F7"/><stop offset="31.765%" stop-color="#F5D9F3"/><stop offset="75.686%" stop-color="#9A4395"/><stop offset="100%" stop-color="#411D6E"/></linearGradient><linearGradient id="J" gradientUnits="userSpaceOnUse" x1="608.4" y1="584.138" x2="608.4" y2="632.563" spreadMethod="pad"><stop offset="0%" stop-color="#FFF"/><stop offset="18.431%" stop-color="#F8E6F7"/><stop offset="31.765%" stop-color="#F5D9F3"/><stop offset="75.686%" stop-color="#9A4395"/><stop offset="100%" stop-color="#411D6E"/></linearGradient><linearGradient id="K" gradientUnits="userSpaceOnUse" x1="608.4" y1="584.125" x2="608.4" y2="632.575" spreadMethod="pad"><stop offset="0%" stop-color="#FFF"/><stop offset="18.431%" stop-color="#F8E6F7"/><stop offset="31.765%" stop-color="#F5D9F3"/><stop offset="75.686%" stop-color="#9A4395"/><stop offset="100%" stop-color="#411D6E"/></linearGradient><linearGradient id="L" gradientUnits="userSpaceOnUse" x1="610.55" y1="584.138" x2="610.55" y2="632.563" spreadMethod="pad"><stop offset="0%" stop-color="#FFF"/><stop offset="18.431%" stop-color="#F8E6F7"/><stop offset="31.765%" stop-color="#F5D9F3"/><stop offset="75.686%" stop-color="#9A4395"/><stop offset="100%" stop-color="#411D6E"/></linearGradient><linearGradient id="M" gradientUnits="userSpaceOnUse" x1="610.55" y1="584.125" x2="610.55" y2="632.575" spreadMethod="pad"><stop offset="0%" stop-color="#FFF"/><stop offset="18.431%" stop-color="#F8E6F7"/><stop offset="31.765%" stop-color="#F5D9F3"/><stop offset="75.686%" stop-color="#9A4395"/><stop offset="100%" stop-color="#411D6E"/></linearGradient><linearGradient id="N" gradientUnits="userSpaceOnUse" x1="612.95" y1="584.125" x2="612.95" y2="632.575" spreadMethod="pad"><stop offset="0%" stop-color="#FFF"/><stop offset="18.431%" stop-color="#F8E6F7"/><stop offset="31.765%" stop-color="#F5D9F3"/><stop offset="75.686%" stop-color="#9A4395"/><stop offset="100%" stop-color="#411D6E"/></linearGradient><linearGradient id="O" gradientUnits="userSpaceOnUse" x1="612.95" y1="584.138" x2="612.95" y2="632.563" spreadMethod="pad"><stop offset="0%" stop-color="#FFF"/><stop offset="18.431%" stop-color="#F8E6F7"/><stop offset="31.765%" stop-color="#F5D9F3"/><stop offset="75.686%" stop-color="#9A4395"/><stop offset="100%" stop-color="#411D6E"/></linearGradient><linearGradient id="P" gradientUnits="userSpaceOnUse" x1="614.95" y1="580.337" x2="614.95" y2="580.962" spreadMethod="pad"><stop offset="0%" stop-color="#FFF"/><stop offset="18.431%" stop-color="#F8E6F7"/><stop offset="31.765%" stop-color="#F5D9F3"/><stop offset="75.686%" stop-color="#9A4395"/><stop offset="100%" stop-color="#411D6E"/></linearGradient><linearGradient id="Q" gradientUnits="userSpaceOnUse" x1="614.95" y1="581.188" x2="614.95" y2="581.813" spreadMethod="pad"><stop offset="0%" stop-color="#FFF"/><stop offset="18.431%" stop-color="#F8E6F7"/><stop offset="31.765%" stop-color="#F5D9F3"/><stop offset="75.686%" stop-color="#9A4395"/><stop offset="100%" stop-color="#411D6E"/></linearGradient><linearGradient id="R" gradientUnits="userSpaceOnUse" x1="614.95" y1="584.138" x2="614.95" y2="632.563" spreadMethod="pad"><stop offset="0%" stop-color="#FFF"/><stop offset="18.431%" stop-color="#F8E6F7"/><stop offset="31.765%" stop-color="#F5D9F3"/><stop offset="75.686%" stop-color="#9A4395"/><stop offset="100%" stop-color="#411D6E"/></linearGradient><linearGradient id="S" gradientUnits="userSpaceOnUse" x1="614.95" y1="584.125" x2="614.95" y2="632.575" spreadMethod="pad"><stop offset="0%" stop-color="#FFF"/><stop offset="18.431%" stop-color="#F8E6F7"/><stop offset="31.765%" stop-color="#F5D9F3"/><stop offset="75.686%" stop-color="#9A4395"/><stop offset="100%" stop-color="#411D6E"/></linearGradient><linearGradient id="T" gradientUnits="userSpaceOnUse" x1="617.25" y1="584.125" x2="617.25" y2="632.575" spreadMethod="pad"><stop offset="0%" stop-color="#FFF"/><stop offset="18.431%" stop-color="#F8E6F7"/><stop offset="31.765%" stop-color="#F5D9F3"/><stop offset="75.686%" stop-color="#9A4395"/><stop offset="100%" stop-color="#411D6E"/></linearGradient><linearGradient id="U" gradientUnits="userSpaceOnUse" x1="617.25" y1="584.138" x2="617.25" y2="632.563" spreadMethod="pad"><stop offset="0%" stop-color="#FFF"/><stop offset="18.431%" stop-color="#F8E6F7"/><stop offset="31.765%" stop-color="#F5D9F3"/><stop offset="75.686%" stop-color="#9A4395"/><stop offset="100%" stop-color="#411D6E"/></linearGradient><radialGradient id="V" gradientUnits="userSpaceOnUse" cx="0" cy="0" r="63.1" fx="0" fy="0" gradientTransform="matrix(1 0 0 -1 611.6 574.75)" spreadMethod="pad"><stop offset="0%" stop-color="#FFF"/><stop offset="25.098%" stop-color="#FFF"/><stop offset="100%" stop-color="#AFB0B2"/></radialGradient><radialGradient id="W" gradientUnits="userSpaceOnUse" cx="0" cy="0" r="37.125" fx="0" fy="0" gradientTransform="matrix(1 0 0 -1 611.65 590.75)" spreadMethod="pad"><stop offset="0%" stop-color="#FFF"/><stop offset="25.098%" stop-color="#FFF"/><stop offset="100%" stop-color="#AFB0B2"/></radialGradient><radialGradient id="X" gradientUnits="userSpaceOnUse" cx="0" cy="0" r="37.487" fx="0" fy="0" gradientTransform="matrix(1 0 0 -1 609.6 581.45)" spreadMethod="pad"><stop offset="0%" stop-color="#FFF"/><stop offset="25.098%" stop-color="#FFF"/><stop offset="100%" stop-color="#AFB0B2"/></radialGradient><radialGradient id="Y" gradientUnits="userSpaceOnUse" cx="0" cy="0" r="17.85" fx="0" fy="0" gradientTransform="matrix(1 0 0 -1 613.75 600.8)" spreadMethod="pad"><stop offset="0%" stop-color="#FFF"/><stop offset="25.098%" stop-color="#FFF"/><stop offset="100%" stop-color="#AFB0B2"/></radialGradient><radialGradient id="Z" gradientUnits="userSpaceOnUse" cx="0" cy="0" r="6.513" fx="0" fy="0" gradientTransform="matrix(0 1 1 0 623.3 605.7)" spreadMethod="pad"><stop offset="0%" stop-color="#FFF"/><stop offset="100%" stop-color="#000003"/></radialGradient><radialGradient id="aa" gradientUnits="userSpaceOnUse" cx="0" cy="0" r="6.513" fx="0" fy="0" gradientTransform="matrix(0 1 1 0 621.45 605.7)" spreadMethod="pad"><stop offset="0%" stop-color="#FFF"/><stop offset="100%" stop-color="#000003"/></radialGradient><radialGradient id="ab" gradientUnits="userSpaceOnUse" cx="0" cy="0" r="5.625" fx="0" fy="0" gradientTransform="matrix(1 0 0 -1 623.95 605.6)" spreadMethod="pad"><stop offset="0%" stop-color="#FFF"/><stop offset="100%" stop-color="#000003"/></radialGradient><radialGradient id="ac" gradientUnits="userSpaceOnUse" cx="0" cy="0" r="6.513" fx="0" fy="0" gradientTransform="rotate(90 -.1 605.6)" spreadMethod="pad"><stop offset="0%" stop-color="#FFF"/><stop offset="100%" stop-color="#000003"/></radialGradient><radialGradient id="ad" gradientUnits="userSpaceOnUse" cx="0" cy="0" r="6.513" fx="0" fy="0" gradientTransform="rotate(90 .825 606.525)" spreadMethod="pad"><stop offset="0%" stop-color="#FFF"/><stop offset="100%" stop-color="#000003"/></radialGradient><radialGradient id="ae" gradientUnits="userSpaceOnUse" cx="0" cy="0" r="5.625" fx="0" fy="0" gradientTransform="rotate(180 302.4 302.8)" spreadMethod="pad"><stop offset="0%" stop-color="#FFF"/><stop offset="100%" stop-color="#000003"/></radialGradient><radialGradient id="af" gradientUnits="userSpaceOnUse" cx="0" cy="0" r="6.513" fx="0" fy="0" gradientTransform="rotate(-90 615.825 1.675)" spreadMethod="pad"><stop offset="0%" stop-color="#FFF"/><stop offset="100%" stop-color="#000003"/></radialGradient><radialGradient id="ag" gradientUnits="userSpaceOnUse" cx="0" cy="0" r="5.625" fx="0" fy="0" gradientTransform="translate(615.7 617.65)" spreadMethod="pad"><stop offset="0%" stop-color="#FFF"/><stop offset="100%" stop-color="#000003"/></radialGradient><radialGradient id="ah" gradientUnits="userSpaceOnUse" cx="0" cy="0" r="5.625" fx="0" fy="0" gradientTransform="translate(614.8 617.65)" spreadMethod="pad"><stop offset="0%" stop-color="#FFF"/><stop offset="100%" stop-color="#000003"/></radialGradient><radialGradient id="ai" gradientUnits="userSpaceOnUse" cx="0" cy="0" r="5.538" fx="0" fy="0" gradientTransform="matrix(1 0 0 -1.42664 614.25 597.4)" spreadMethod="pad"><stop offset="0%" stop-color="#FFF"/><stop offset="100%" stop-color="#060606"/></radialGradient><radialGradient id="aj" gradientUnits="userSpaceOnUse" cx="0" cy="0" r="5.538" fx="0" fy="0" gradientTransform="matrix(1 0 0 -1.42664 614.2 597.4)" spreadMethod="pad"><stop offset="0%" stop-color="#FFF"/><stop offset="100%" stop-color="#060606"/></radialGradient><path fill="#FFF" fill-opacity="0" d="M284 0H0v320h284V0z" id="ak"/><path fill="url(#a)" d="M46 14q0-5.8-4.1-9.9Q37.8 0 32 0H14Q8.2 0 4.1 4.1 0 8.2 0 14v30.5q0 5.8 4.1 9.9 4.1 4.1 9.9 4.1h18q5.8 0 9.9-4.1 4.1-4.1 4.1-9.9V14z" id="al"/><path fill="url(#b)" d="M601.25 570.9q-1.15 0-2 .75-.8.75-.8 1.85v17.4q0 1.05.8 1.85.85.75 2 .75h27.35q1.15 0 2-.75.8-.8.8-1.85v-17.4q0-1.1-.8-1.85-.85-.75-2-.75h-27.35z" id="am"/><path fill="url(#c)" d="M626.95 581.5q0-.35-.35-.35-.3 0-.3.35 0 .3.3.3.35 0 .35-.3z" id="an"/><path fill="url(#d)" d="M626.95 582.35q0-.35-.35-.35-.3 0-.3.35 0 .3.3.3.35 0 .35-.3z" id="ao"/><path fill="url(#d)" d="M626.95 583.15q0-.3-.35-.3-.3 0-.3.3 0 .35.3.35.35 0 .35-.35z" id="ap"/><path fill="url(#d)" d="M626.95 584q0-.3-.35-.3-.3 0-.3.3 0 .35.3.35.35 0 .35-.35z" id="aq"/><path fill="url(#e)" d="M626.95 584.85q0-.3-.35-.3-.3 0-.3.3 0 .35.3.35.35 0 .35-.35z" id="ar"/><path fill="url(#d)" d="M626.95 585.7q0-.35-.35-.35-.3 0-.3.35t.3.35q.35 0 .35-.35z" id="as"/><path fill="url(#e)" d="M626.95 586.55q0-.35-.35-.35-.3 0-.3.35 0 .3.3.3.35 0 .35-.3z" id="at"/><path fill="url(#d)" d="M626.95 587.4q0-.35-.35-.35-.3 0-.3.35 0 .3.3.3.35 0 .35-.3z" id="au"/><path fill="url(#e)" d="M626.95 588.2q0-.3-.35-.3-.3 0-.3.3 0 .35.3.35.35 0 .35-.35z" id="av"/><path fill="url(#d)" d="M626.95 589.05q0-.3-.35-.3-.3 0-.3.3 0 .35.3.35.35 0 .35-.35z" id="aw"/><path fill="url(#f)" d="M624.85 584.85q0-.3-.35-.3t-.35.3q0 .35.35.35t.35-.35z" id="ax"/><path fill="url(#g)" d="M624.85 585.7q0-.35-.35-.35t-.35.35q0 .35.35.35t.35-.35z" id="ay"/><path fill="url(#f)" d="M624.85 586.55q0-.35-.35-.35t-.35.35q0 .3.35.3t.35-.3z" id="az"/><path fill="url(#g)" d="M624.85 587.4q0-.35-.35-.35t-.35.35q0 .3.35.3t.35-.3z" id="aA"/><path fill="url(#f)" d="M624.85 588.2q0-.3-.35-.3t-.35.3q0 .35.35.35t.35-.35z" id="aB"/><path fill="url(#g)" d="M624.85 589.05q0-.3-.35-.3t-.35.3q0 .35.35.35t.35-.35z" id="aC"/><path fill="url(#h)" d="M621.25 583.15q0-.3-.3-.3-.35 0-.35.3 0 .35.35.35.3 0 .3-.35z" id="aD"/><path fill="url(#h)" d="M621.25 584q0-.3-.3-.3-.35 0-.35.3 0 .35.35.35.3 0 .3-.35z" id="aE"/><path fill="url(#i)" d="M621.25 584.85q0-.3-.3-.3-.35 0-.35.3 0 .35.35.35.3 0 .3-.35z" id="aF"/><path fill="url(#h)" d="M621.25 585.7q0-.35-.3-.35-.35 0-.35.35t.35.35q.3 0 .3-.35z" id="aG"/><path fill="url(#i)" d="M621.25 586.55q0-.35-.3-.35-.35 0-.35.35 0 .3.35.3.3 0 .3-.3z" id="aH"/><path fill="url(#h)" d="M621.25 587.4q0-.35-.3-.35-.35 0-.35.35 0 .3.35.3.3 0 .3-.3z" id="aI"/><path fill="url(#i)" d="M621.25 588.2q0-.3-.3-.3-.35 0-.35.3 0 .35.35.35.3 0 .3-.35z" id="aJ"/><path fill="url(#h)" d="M621.25 589.05q0-.3-.3-.3-.35 0-.35.3 0 .35.35.35.3 0 .3-.35z" id="aK"/><path fill="url(#j)" d="M619.3 584.85q0-.3-.35-.3t-.35.3q0 .35.35.35t.35-.35z" id="aL"/><path fill="url(#k)" d="M619.3 585.7q0-.35-.35-.35t-.35.35q0 .35.35.35t.35-.35z" id="aM"/><path fill="url(#j)" d="M619.3 586.55q0-.35-.35-.35t-.35.35q0 .3.35.3t.35-.3z" id="aN"/><path fill="url(#k)" d="M619.3 587.4q0-.35-.35-.35t-.35.35q0 .3.35.3t.35-.3z" id="aO"/><path fill="url(#j)" d="M619.3 588.2q0-.3-.35-.3t-.35.3q0 .35.35.35t.35-.35z" id="aP"/><path fill="url(#k)" d="M619.3 589.05q0-.3-.35-.3t-.35.3q0 .35.35.35t.35-.35z" id="aQ"/><path fill="url(#l)" d="M623.25 588.2q0-.3-.35-.3t-.35.3q0 .35.35.35t.35-.35z" id="aR"/><path fill="url(#m)" d="M623.25 589.05q0-.3-.35-.3t-.35.3q0 .35.35.35t.35-.35z" id="aS"/><path fill="url(#n)" d="M628.35 582q-.3 0-.3.35 0 .3.3.3.35 0 .35-.3 0-.35-.35-.35z" id="aT"/><path fill="url(#n)" d="M628.35 582.85q-.3 0-.3.3 0 .35.3.35.35 0 .35-.35 0-.3-.35-.3z" id="aU"/><path fill="url(#n)" d="M628.35 583.7q-.3 0-.3.3 0 .35.3.35.35 0 .35-.35 0-.3-.35-.3z" id="aV"/><path fill="url(#o)" d="M628.35 584.55q-.3 0-.3.3 0 .35.3.35.35 0 .35-.35 0-.3-.35-.3z" id="aW"/><path fill="url(#n)" d="M628.35 585.35q-.3 0-.3.35t.3.35q.35 0 .35-.35t-.35-.35z" id="aX"/><path fill="url(#o)" d="M628.35 586.2q-.3 0-.3.35 0 .3.3.3.35 0 .35-.3 0-.35-.35-.35z" id="aY"/><path fill="url(#n)" d="M628.35 587.05q-.3 0-.3.35 0 .3.3.3.35 0 .35-.3 0-.35-.35-.35z" id="aZ"/><path fill="url(#o)" d="M628.35 587.9q-.3 0-.3.3 0 .35.3.35.35 0 .35-.35 0-.3-.35-.3z" id="ba"/><path fill="url(#n)" d="M628.35 588.75q-.3 0-.3.3 0 .35.3.35.35 0 .35-.35 0-.3-.35-.3z" id="bb"/><path fill="url(#p)" d="M630.05 587.9q-.35 0-.35.3 0 .35.35.35t.35-.35q0-.3-.35-.3z" id="bc"/><path fill="url(#q)" d="M630.05 588.75q-.35 0-.35.3 0 .35.35.35t.35-.35q0-.3-.35-.3z" id="bd"/><path fill="url(#r)" d="M606.65 575.6q0-.3-.35-.3t-.35.3q0 .35.35.35t.35-.35z" id="be"/><path fill="url(#s)" d="M606.65 576.45q0-.35-.35-.35t-.35.35q0 .3.35.3t.35-.3z" id="bf"/><path fill="url(#t)" d="M606.65 577.3q0-.35-.35-.35t-.35.35q0 .3.35.3t.35-.3z" id="bg"/><path fill="url(#u)" d="M606.65 578.15q0-.35-.35-.35t-.35.35q0 .3.35.3t.35-.3z" id="bh"/><path fill="url(#v)" d="M606.65 578.95q0-.3-.35-.3t-.35.3q0 .35.35.35t.35-.35z" id="bi"/><path fill="url(#w)" d="M606.65 579.8q0-.3-.35-.3t-.35.3q0 .35.35.35t.35-.35z" id="bj"/><path fill="url(#x)" d="M606.65 580.65q0-.35-.35-.35t-.35.35q0 .35.35.35t.35-.35z" id="bk"/><path fill="url(#y)" d="M606.65 581.5q0-.35-.35-.35t-.35.35q0 .3.35.3t.35-.3z" id="bl"/><path fill="url(#z)" d="M606.65 582.35q0-.35-.35-.35t-.35.35q0 .3.35.3t.35-.3z" id="bm"/><path fill="url(#z)" d="M606.65 583.15q0-.3-.35-.3t-.35.3q0 .35.35.35t.35-.35z" id="bn"/><path fill="url(#z)" d="M606.65 584q0-.3-.35-.3t-.35.3q0 .35.35.35t.35-.35z" id="bo"/><path fill="url(#A)" d="M606.65 584.85q0-.3-.35-.3t-.35.3q0 .35.35.35t.35-.35z" id="bp"/><path fill="url(#z)" d="M606.65 585.7q0-.35-.35-.35t-.35.35q0 .35.35.35t.35-.35z" id="bq"/><path fill="url(#A)" d="M606.65 586.55q0-.35-.35-.35t-.35.35q0 .3.35.3t.35-.3z" id="br"/><path fill="url(#z)" d="M606.65 587.4q0-.35-.35-.35t-.35.35q0 .3.35.3t.35-.3z" id="bs"/><path fill="url(#A)" d="M606.65 588.2q0-.3-.35-.3t-.35.3q0 .35.35.35t.35-.35z" id="bt"/><path fill="url(#z)" d="M606.65 589.05q0-.3-.35-.3t-.35.3q0 .35.35.35t.35-.35z" id="bu"/><path fill="url(#B)" d="M604.75 580.65q0-.35-.35-.35-.3 0-.3.35t.3.35q.35 0 .35-.35z" id="bv"/><path fill="url(#C)" d="M604.75 581.5q0-.35-.35-.35-.3 0-.3.35 0 .3.3.3.35 0 .35-.3z" id="bw"/><path fill="url(#D)" d="M604.75 582.35q0-.35-.35-.35-.3 0-.3.35 0 .3.3.3.35 0 .35-.3z" id="bx"/><path fill="url(#D)" d="M604.75 583.15q0-.3-.35-.3-.3 0-.3.3 0 .35.3.35.35 0 .35-.35z" id="by"/><path fill="url(#D)" d="M604.75 584q0-.3-.35-.3-.3 0-.3.3 0 .35.3.35.35 0 .35-.35z" id="bz"/><path fill="url(#E)" d="M604.75 584.85q0-.3-.35-.3-.3 0-.3.3 0 .35.3.35.35 0 .35-.35z" id="bA"/><path fill="url(#D)" d="M604.75 585.7q0-.35-.35-.35-.3 0-.3.35t.3.35q.35 0 .35-.35z" id="bB"/><path fill="url(#E)" d="M604.75 586.55q0-.35-.35-.35-.3 0-.3.35 0 .3.3.3.35 0 .35-.3z" id="bC"/><path fill="url(#D)" d="M604.75 587.4q0-.35-.35-.35-.3 0-.3.35 0 .3.3.3.35 0 .35-.3z" id="bD"/><path fill="url(#E)" d="M604.75 588.2q0-.3-.35-.3-.3 0-.3.3 0 .35.3.35.35 0 .35-.35z" id="bE"/><path fill="url(#D)" d="M604.75 589.05q0-.3-.35-.3-.3 0-.3.3 0 .35.3.35.35 0 .35-.35z" id="bF"/><path fill="url(#F)" d="M600.15 586.55q0-.35-.35-.35t-.35.35q0 .3.35.3t.35-.3z" id="bG"/><path fill="url(#G)" d="M600.15 587.4q0-.35-.35-.35t-.35.35q0 .3.35.3t.35-.3z" id="bH"/><path fill="url(#F)" d="M600.15 588.2q0-.3-.35-.3t-.35.3q0 .35.35.35t.35-.35z" id="bI"/><path fill="url(#G)" d="M600.15 589.05q0-.3-.35-.3t-.35.3q0 .35.35.35t.35-.35z" id="bJ"/><path fill="url(#H)" d="M602.65 588.2q0-.3-.35-.3t-.35.3q0 .35.35.35t.35-.35z" id="bK"/><path fill="url(#I)" d="M602.65 589.05q0-.3-.35-.3t-.35.3q0 .35.35.35t.35-.35z" id="bL"/><path fill="url(#J)" d="M608.4 582.85q-.35 0-.35.3 0 .35.35.35t.35-.35q0-.3-.35-.3z" id="bM"/><path fill="url(#J)" d="M608.4 583.7q-.35 0-.35.3 0 .35.35.35t.35-.35q0-.3-.35-.3z" id="bN"/><path fill="url(#K)" d="M608.4 584.55q-.35 0-.35.3 0 .35.35.35t.35-.35q0-.3-.35-.3z" id="bO"/><path fill="url(#J)" d="M608.4 585.35q-.35 0-.35.35t.35.35q.35 0 .35-.35t-.35-.35z" id="bP"/><path fill="url(#K)" d="M608.4 586.2q-.35 0-.35.35 0 .3.35.3t.35-.3q0-.35-.35-.35z" id="bQ"/><path fill="url(#J)" d="M608.4 587.05q-.35 0-.35.35 0 .3.35.3t.35-.3q0-.35-.35-.35z" id="bR"/><path fill="url(#K)" d="M608.4 587.9q-.35 0-.35.3 0 .35.35.35t.35-.35q0-.3-.35-.3z" id="bS"/><path fill="url(#J)" d="M608.4 588.75q-.35 0-.35.3 0 .35.35.35t.35-.35q0-.3-.35-.3z" id="bT"/><path fill="url(#L)" d="M610.55 585.35q-.35 0-.35.35t.35.35q.3 0 .3-.35t-.3-.35z" id="bU"/><path fill="url(#M)" d="M610.55 586.2q-.35 0-.35.35 0 .3.35.3.3 0 .3-.3 0-.35-.3-.35z" id="bV"/><path fill="url(#L)" d="M610.55 587.05q-.35 0-.35.35 0 .3.35.3.3 0 .3-.3 0-.35-.3-.35z" id="bW"/><path fill="url(#M)" d="M610.55 587.9q-.35 0-.35.3 0 .35.35.35.3 0 .3-.35 0-.3-.3-.3z" id="bX"/><path fill="url(#L)" d="M610.55 588.75q-.35 0-.35.3 0 .35.35.35.3 0 .3-.35 0-.3-.3-.3z" id="bY"/><path fill="url(#N)" d="M612.95 586.2q-.35 0-.35.35 0 .3.35.3t.35-.3q0-.35-.35-.35z" id="bZ"/><path fill="url(#O)" d="M612.95 587.05q-.35 0-.35.35 0 .3.35.3t.35-.3q0-.35-.35-.35z" id="ca"/><path fill="url(#P)" d="M614.95 580.3q-.35 0-.35.35t.35.35q.35 0 .35-.35t-.35-.35z" id="cb"/><path fill="url(#Q)" d="M614.95 581.15q-.35 0-.35.35 0 .3.35.3t.35-.3q0-.35-.35-.35z" id="cc"/><path fill="url(#R)" d="M614.95 582q-.35 0-.35.35 0 .3.35.3t.35-.3q0-.35-.35-.35z" id="cd"/><path fill="url(#R)" d="M614.95 582.85q-.35 0-.35.3 0 .35.35.35t.35-.35q0-.3-.35-.3z" id="ce"/><path fill="url(#R)" d="M614.95 583.7q-.35 0-.35.3 0 .35.35.35t.35-.35q0-.3-.35-.3z" id="cf"/><path fill="url(#S)" d="M614.95 584.55q-.35 0-.35.3 0 .35.35.35t.35-.35q0-.3-.35-.3z" id="cg"/><path fill="url(#R)" d="M614.95 585.35q-.35 0-.35.35t.35.35q.35 0 .35-.35t-.35-.35z" id="ch"/><path fill="url(#S)" d="M614.95 586.2q-.35 0-.35.35 0 .3.35.3t.35-.3q0-.35-.35-.35z" id="ci"/><path fill="url(#R)" d="M614.95 587.05q-.35 0-.35.35 0 .3.35.3t.35-.3q0-.35-.35-.35z" id="cj"/><path fill="url(#S)" d="M614.95 587.9q-.35 0-.35.3 0 .35.35.35t.35-.35q0-.3-.35-.3z" id="ck"/><path fill="url(#R)" d="M614.95 588.75q-.35 0-.35.3 0 .35.35.35t.35-.35q0-.3-.35-.3z" id="cl"/><path fill="url(#T)" d="M617.2 586.2q-.3 0-.3.35 0 .3.3.3.35 0 .35-.3 0-.35-.35-.35z" id="cm"/><path fill="url(#U)" d="M617.2 587.05q-.3 0-.3.35 0 .3.3.3.35 0 .35-.3 0-.35-.35-.35z" id="cn"/><path fill="url(#T)" d="M617.2 587.9q-.3 0-.3.3 0 .35.3.35.35 0 .35-.35 0-.3-.35-.3z" id="co"/><path fill="url(#U)" d="M617.2 588.75q-.3 0-.3.3 0 .35.3.35.35 0 .35-.35 0-.3-.35-.3z" id="cp"/><path fill="url(#N)" d="M612.95 587.9q-.35 0-.35.3 0 .35.35.35t.35-.35q0-.3-.35-.3z" id="cq"/><path fill="url(#O)" d="M612.95 588.75q-.35 0-.35.3 0 .35.35.35t.35-.35q0-.3-.35-.3z" id="cr"/><path fill="url(#V)" d="M614.4 618.8q4.55 0 7.75-3.2t3.2-7.75q0-4.5-3.2-7.7t-7.75-3.2q-4.55 0-7.75 3.2t-3.2 7.7q0 4.55 3.2 7.75t7.75 3.2z" id="cs"/><path fill="url(#W)" d="M624.75 607.85q0-4.25-3.05-7.3-3-3.05-7.3-3.05-4.25 0-7.3 3.05t-3.05 7.3q0 4.3 3.05 7.35 3 3.05 7.3 3.05t7.3-3.05q3.05-3.05 3.05-7.35z" id="ct"/><path fill="url(#X)" d="M619.4 607.85q0-2.05-1.45-3.55-1.5-1.45-3.55-1.45t-3.55 1.45q-1.45 1.5-1.45 3.55 0 2.1 1.45 3.55 1.5 1.45 3.55 1.45t3.55-1.45q1.45-1.45 1.45-3.55z" id="cu"/><path fill="url(#Y)" d="M614.4 612.3q1.85 0 3.15-1.3 1.3-1.3 1.3-3.15 0-1.85-1.3-3.1-1.3-1.3-3.15-1.3-1.85 0-3.15 1.3-1.3 1.25-1.3 3.1t1.3 3.15q1.3 1.3 3.15 1.3z" id="cv"/><path fill="url(#Z)" d="M623.75 607.85l-1.65-1q-.1 0-.1.1v1.9q0 .1.1.05l1.65-.95q.2-.1 0-.1z" id="cw"/><path fill="url(#aa)" d="M621.9 607.85l-1.7-1q-.1 0-.1.1v1.9q0 .15.15.05l1.65-.95q.2-.1 0-.1z" id="cx"/><path fill="url(#ab)" d="M624.1 608.9v-1.95l-.05-.1h-.15l-.05.1v1.95l.05.05h.15l.05-.05z" id="cy"/><path fill="url(#ac)" d="M606.7 606.85l-1.65 1q-.2 0 0 .1l1.65.95q.1.05.1-.05v-1.9q0-.1-.1-.1z" id="cz"/><path fill="url(#ad)" d="M608.7 606.95q0-.1-.1-.1l-1.7 1q-.2 0 0 .1l1.65.95q.15.1.15-.05v-1.9z" id="cA"/><path fill="url(#ae)" d="M604.7 606.95v1.95l.05.05h.15l.05-.05v-1.95l-.05-.1h-.15l-.05.1z" id="cB"/><path fill="url(#af)" d="M612.95 616.35l1.65-.95q.1-.05 0-.15l-1.65-.95q-.15-.05-.15.1v1.9q0 .15.15.05z" id="cC"/><path fill="url(#ag)" d="M615.85 616.3v-1.95l-.1-.05h-.1l-.1.05v1.95l.1.1h.1l.1-.1z" id="cD"/><path fill="url(#ah)" d="M614.95 616.3v-1.95l-.05-.05h-.15l-.05.05v1.95l.05.1h.15l.05-.1z" id="cE"/><path fill="url(#ai)" d="M613.15 599.95h-.35l-.2.85-.15-.85h-.4v1.4h.25v-1.05l.2 1.05h.25l.2-1.05v1.05h.2v-1.4z" id="cF"/><path fill="url(#aj)" d="M614.2 599.95h-.85v1.4h.85v-.3h-.55v-.3h.5v-.25h-.5v-.25h.55v-.3z" id="cG"/><path fill="url(#aj)" d="M614.65 599.95h-.3v1.4h.3v-.75l.35.75h.3v-1.4h-.3v.8l-.35-.8z" id="cH"/><path fill="url(#aj)" d="M615.8 599.95h-.3v1.1l.1.15.1.1.3.1.2-.05q.1-.1.1-.15l.1-.15.05-.25v-.85h-.3v.85l-.05.2-.15.05-.1-.05-.05-.2v-.85z" id="cI"/></defs><use xlink:href="#ak"/><use xlink:href="#al" transform="matrix(4.43207 0 0 4.43214 40.4 47.7)"/><use xlink:href="#am" transform="matrix(4.43207 0 0 4.43214 -2581.39 -2456.461)"/><use xlink:href="#an" transform="matrix(4.43207 0 0 4.43214 -2581.39 -2456.461)"/><use xlink:href="#ao" transform="matrix(4.43207 0 0 4.43214 -2581.39 -2456.461)"/><use xlink:href="#ap" transform="matrix(4.43207 0 0 4.43214 -2581.39 -2456.461)"/><use xlink:href="#aq" transform="matrix(4.43207 0 0 4.43214 -2581.39 -2456.461)"/><use xlink:href="#ar" transform="matrix(4.43207 0 0 4.43214 -2581.39 -2456.461)"/><use xlink:href="#as" transform="matrix(4.43207 0 0 4.43214 -2581.39 -2456.461)"/><use xlink:href="#at" transform="matrix(4.43207 0 0 4.43214 -2581.39 -2456.461)"/><use xlink:href="#au" transform="matrix(4.43207 0 0 4.43214 -2581.39 -2456.461)"/><use xlink:href="#av" transform="matrix(4.43207 0 0 4.43214 -2581.39 -2456.461)"/><use xlink:href="#aw" transform="matrix(4.43207 0 0 4.43214 -2581.39 -2456.461)"/><use xlink:href="#ax" transform="matrix(4.43207 0 0 4.43214 -2581.39 -2456.461)"/><use xlink:href="#ay" transform="matrix(4.43207 0 0 4.43214 -2581.39 -2456.461)"/><use xlink:href="#az" transform="matrix(4.43207 0 0 4.43214 -2581.39 -2456.461)"/><use xlink:href="#aA" transform="matrix(4.43207 0 0 4.43214 -2581.39 -2456.461)"/><use xlink:href="#aB" transform="matrix(4.43207 0 0 4.43214 -2581.39 -2456.461)"/><use xlink:href="#aC" transform="matrix(4.43207 0 0 4.43214 -2581.39 -2456.461)"/><use xlink:href="#aD" transform="matrix(4.43207 0 0 4.43214 -2581.39 -2456.461)"/><use xlink:href="#aE" transform="matrix(4.43207 0 0 4.43214 -2581.39 -2456.461)"/><use xlink:href="#aF" transform="matrix(4.43207 0 0 4.43214 -2581.39 -2456.461)"/><use xlink:href="#aG" transform="matrix(4.43207 0 0 4.43214 -2581.39 -2456.461)"/><use xlink:href="#aH" transform="matrix(4.43207 0 0 4.43214 -2581.39 -2456.461)"/><use xlink:href="#aI" transform="matrix(4.43207 0 0 4.43214 -2581.39 -2456.461)"/><use xlink:href="#aJ" transform="matrix(4.43207 0 0 4.43214 -2581.39 -2456.461)"/><use xlink:href="#aK" transform="matrix(4.43207 0 0 4.43214 -2581.39 -2456.461)"/><use xlink:href="#aL" transform="matrix(4.43207 0 0 4.43214 -2581.39 -2456.461)"/><use xlink:href="#aM" transform="matrix(4.43207 0 0 4.43214 -2581.39 -2456.461)"/><use xlink:href="#aN" transform="matrix(4.43207 0 0 4.43214 -2581.39 -2456.461)"/><use xlink:href="#aO" transform="matrix(4.43207 0 0 4.43214 -2581.39 -2456.461)"/><use xlink:href="#aP" transform="matrix(4.43207 0 0 4.43214 -2581.39 -2456.461)"/><use xlink:href="#aQ" transform="matrix(4.43207 0 0 4.43214 -2581.39 -2456.461)"/><use xlink:href="#aR" transform="matrix(4.43207 0 0 4.43214 -2581.39 -2456.461)"/><use xlink:href="#aS" transform="matrix(4.43207 0 0 4.43214 -2581.39 -2456.461)"/><use xlink:href="#aT" transform="matrix(4.43207 0 0 4.43214 -2581.39 -2456.461)"/><use xlink:href="#aU" transform="matrix(4.43207 0 0 4.43214 -2581.39 -2456.461)"/><use xlink:href="#aV" transform="matrix(4.43207 0 0 4.43214 -2581.39 -2456.461)"/><use xlink:href="#aW" transform="matrix(4.43207 0 0 4.43214 -2581.39 -2456.461)"/><use xlink:href="#aX" transform="matrix(4.43207 0 0 4.43214 -2581.39 -2456.461)"/><use xlink:href="#aY" transform="matrix(4.43207 0 0 4.43214 -2581.39 -2456.461)"/><use xlink:href="#aZ" transform="matrix(4.43207 0 0 4.43214 -2581.39 -2456.461)"/><use xlink:href="#ba" transform="matrix(4.43207 0 0 4.43214 -2581.39 -2456.461)"/><use xlink:href="#bb" transform="matrix(4.43207 0 0 4.43214 -2581.39 -2456.461)"/><use xlink:href="#bc" transform="matrix(4.43207 0 0 4.43214 -2581.39 -2456.461)"/><use xlink:href="#bd" transform="matrix(4.43207 0 0 4.43214 -2581.39 -2456.461)"/><use xlink:href="#be" transform="matrix(4.43207 0 0 4.43214 -2581.39 -2456.461)"/><use xlink:href="#bf" transform="matrix(4.43207 0 0 4.43214 -2581.39 -2456.461)"/><use xlink:href="#bg" transform="matrix(4.43207 0 0 4.43214 -2581.39 -2456.461)"/><use xlink:href="#bh" transform="matrix(4.43207 0 0 4.43214 -2581.39 -2456.461)"/><use xlink:href="#bi" transform="matrix(4.43207 0 0 4.43214 -2581.39 -2456.461)"/><use xlink:href="#bj" transform="matrix(4.43207 0 0 4.43214 -2581.39 -2456.461)"/><use xlink:href="#bk" transform="matrix(4.43207 0 0 4.43214 -2581.39 -2456.461)"/><use xlink:href="#bl" transform="matrix(4.43207 0 0 4.43214 -2581.39 -2456.461)"/><use xlink:href="#bm" transform="matrix(4.43207 0 0 4.43214 -2581.39 -2456.461)"/><use xlink:href="#bn" transform="matrix(4.43207 0 0 4.43214 -2581.39 -2456.461)"/><use xlink:href="#bo" transform="matrix(4.43207 0 0 4.43214 -2581.39 -2456.461)"/><use xlink:href="#bp" transform="matrix(4.43207 0 0 4.43214 -2581.39 -2456.461)"/><use xlink:href="#bq" transform="matrix(4.43207 0 0 4.43214 -2581.39 -2456.461)"/><use xlink:href="#br" transform="matrix(4.43207 0 0 4.43214 -2581.39 -2456.461)"/><use xlink:href="#bs" transform="matrix(4.43207 0 0 4.43214 -2581.39 -2456.461)"/><use xlink:href="#bt" transform="matrix(4.43207 0 0 4.43214 -2581.39 -2456.461)"/><use xlink:href="#bu" transform="matrix(4.43207 0 0 4.43214 -2581.39 -2456.461)"/><use xlink:href="#bv" transform="matrix(4.43207 0 0 4.43214 -2581.39 -2456.461)"/><use xlink:href="#bw" transform="matrix(4.43207 0 0 4.43214 -2581.39 -2456.461)"/><use xlink:href="#bx" transform="matrix(4.43207 0 0 4.43214 -2581.39 -2456.461)"/><use xlink:href="#by" transform="matrix(4.43207 0 0 4.43214 -2581.39 -2456.461)"/><use xlink:href="#bz" transform="matrix(4.43207 0 0 4.43214 -2581.39 -2456.461)"/><use xlink:href="#bA" transform="matrix(4.43207 0 0 4.43214 -2581.39 -2456.461)"/><use xlink:href="#bB" transform="matrix(4.43207 0 0 4.43214 -2581.39 -2456.461)"/><use xlink:href="#bC" transform="matrix(4.43207 0 0 4.43214 -2581.39 -2456.461)"/><use xlink:href="#bD" transform="matrix(4.43207 0 0 4.43214 -2581.39 -2456.461)"/><use xlink:href="#bE" transform="matrix(4.43207 0 0 4.43214 -2581.39 -2456.461)"/><use xlink:href="#bF" transform="matrix(4.43207 0 0 4.43214 -2581.39 -2456.461)"/><use xlink:href="#bG" transform="matrix(4.43207 0 0 4.43214 -2581.39 -2456.461)"/><use xlink:href="#bH" transform="matrix(4.43207 0 0 4.43214 -2581.39 -2456.461)"/><use xlink:href="#bI" transform="matrix(4.43207 0 0 4.43214 -2581.39 -2456.461)"/><use xlink:href="#bJ" transform="matrix(4.43207 0 0 4.43214 -2581.39 -2456.461)"/><use xlink:href="#bK" transform="matrix(4.43207 0 0 4.43214 -2581.39 -2456.461)"/><use xlink:href="#bL" transform="matrix(4.43207 0 0 4.43214 -2581.39 -2456.461)"/><use xlink:href="#bM" transform="matrix(4.43207 0 0 4.43214 -2581.39 -2456.461)"/><use xlink:href="#bN" transform="matrix(4.43207 0 0 4.43214 -2581.39 -2456.461)"/><use xlink:href="#bO" transform="matrix(4.43207 0 0 4.43214 -2581.39 -2456.461)"/><use xlink:href="#bP" transform="matrix(4.43207 0 0 4.43214 -2581.39 -2456.461)"/><use xlink:href="#bQ" transform="matrix(4.43207 0 0 4.43214 -2581.39 -2456.461)"/><use xlink:href="#bR" transform="matrix(4.43207 0 0 4.43214 -2581.39 -2456.461)"/><use xlink:href="#bS" transform="matrix(4.43207 0 0 4.43214 -2581.39 -2456.461)"/><use xlink:href="#bT" transform="matrix(4.43207 0 0 4.43214 -2581.39 -2456.461)"/><use xlink:href="#bU" transform="matrix(4.43207 0 0 4.43214 -2581.39 -2456.461)"/><use xlink:href="#bV" transform="matrix(4.43207 0 0 4.43214 -2581.39 -2456.461)"/><use xlink:href="#bW" transform="matrix(4.43207 0 0 4.43214 -2581.39 -2456.461)"/><use xlink:href="#bX" transform="matrix(4.43207 0 0 4.43214 -2581.39 -2456.461)"/><use xlink:href="#bY" transform="matrix(4.43207 0 0 4.43214 -2581.39 -2456.461)"/><use xlink:href="#bZ" transform="matrix(4.43207 0 0 4.43214 -2581.39 -2456.461)"/><use xlink:href="#ca" transform="matrix(4.43207 0 0 4.43214 -2581.39 -2456.461)"/><use xlink:href="#cb" transform="matrix(4.43207 0 0 4.43214 -2581.39 -2456.461)"/><use xlink:href="#cc" transform="matrix(4.43207 0 0 4.43214 -2581.39 -2456.461)"/><use xlink:href="#cd" transform="matrix(4.43207 0 0 4.43214 -2581.39 -2456.461)"/><use xlink:href="#ce" transform="matrix(4.43207 0 0 4.43214 -2581.39 -2456.461)"/><use xlink:href="#cf" transform="matrix(4.43207 0 0 4.43214 -2581.39 -2456.461)"/><use xlink:href="#cg" transform="matrix(4.43207 0 0 4.43214 -2581.39 -2456.461)"/><use xlink:href="#ch" transform="matrix(4.43207 0 0 4.43214 -2581.39 -2456.461)"/><use xlink:href="#ci" transform="matrix(4.43207 0 0 4.43214 -2581.39 -2456.461)"/><use xlink:href="#cj" transform="matrix(4.43207 0 0 4.43214 -2581.39 -2456.461)"/><use xlink:href="#ck" transform="matrix(4.43207 0 0 4.43214 -2581.39 -2456.461)"/><use xlink:href="#cl" transform="matrix(4.43207 0 0 4.43214 -2581.39 -2456.461)"/><use xlink:href="#cm" transform="matrix(4.43207 0 0 4.43214 -2581.39 -2456.461)"/><use xlink:href="#cn" transform="matrix(4.43207 0 0 4.43214 -2581.39 -2456.461)"/><use xlink:href="#co" transform="matrix(4.43207 0 0 4.43214 -2581.39 -2456.461)"/><use xlink:href="#cp" transform="matrix(4.43207 0 0 4.43214 -2581.39 -2456.461)"/><use xlink:href="#cq" transform="matrix(4.43207 0 0 4.43214 -2581.39 -2456.461)"/><use xlink:href="#cr" transform="matrix(4.43207 0 0 4.43214 -2581.39 -2456.461)"/><use xlink:href="#cs" transform="matrix(4.43207 0 0 4.43214 -2581.39 -2456.461)"/><use xlink:href="#ct" transform="matrix(4.43207 0 0 4.43214 -2581.39 -2456.461)"/><use xlink:href="#cu" transform="matrix(4.43207 0 0 4.43214 -2581.39 -2456.461)"/><use xlink:href="#cv" transform="matrix(4.43207 0 0 4.43214 -2581.39 -2456.461)"/><use xlink:href="#cw" transform="matrix(4.43207 0 0 4.43214 -2581.39 -2456.461)"/><use xlink:href="#cx" transform="matrix(4.43207 0 0 4.43214 -2581.39 -2456.461)"/><use xlink:href="#cy" transform="matrix(4.43207 0 0 4.43214 -2581.39 -2456.461)"/><use xlink:href="#cz" transform="matrix(4.43207 0 0 4.43214 -2581.39 -2456.461)"/><use xlink:href="#cA" transform="matrix(4.43207 0 0 4.43214 -2581.39 -2456.461)"/><use xlink:href="#cB" transform="matrix(4.43207 0 0 4.43214 -2581.39 -2456.461)"/><use xlink:href="#cC" transform="matrix(4.43207 0 0 4.43214 -2581.39 -2456.461)"/><use xlink:href="#cD" transform="matrix(4.43207 0 0 4.43214 -2581.39 -2456.461)"/><use xlink:href="#cE" transform="matrix(4.43207 0 0 4.43214 -2581.39 -2456.461)"/><use xlink:href="#cF" transform="matrix(4.43207 0 0 4.43214 -2581.39 -2456.461)"/><use xlink:href="#cG" transform="matrix(4.43207 0 0 4.43214 -2581.39 -2456.461)"/><use xlink:href="#cH" transform="matrix(4.43207 0 0 4.43214 -2581.39 -2456.461)"/><use xlink:href="#cI" transform="matrix(4.43207 0 0 4.43214 -2581.39 -2456.461)"/></svg>