<svg xmlns="http://www.w3.org/2000/svg" xmlns:xlink="http://www.w3.org/1999/xlink" preserveAspectRatio="none" width="284" height="320"><defs><linearGradient id="a" gradientUnits="userSpaceOnUse" x1="93.538" y1="485.113" x2="183.563" y2="517.888" spreadMethod="pad"><stop offset="0%" stop-color="#E7E8E9"/><stop offset="100%" stop-color="#FFF"/></linearGradient><linearGradient id="b" gradientUnits="userSpaceOnUse" x1="95.487" y1="496.2" x2="118.712" y2="496.2" spreadMethod="pad"><stop offset="0%" stop-color="#E2E5ED"/><stop offset="100%" stop-color="#A8B2C7"/></linearGradient><linearGradient id="c" gradientUnits="userSpaceOnUse" x1="120.487" y1="452.95" x2="80.212" y2="452.95" spreadMethod="pad"><stop offset="0%" stop-color="#BFC7D8"/><stop offset="61.176%" stop-color="#E7EAF0"/><stop offset="100%" stop-color="#DADEE8"/></linearGradient><linearGradient id="d" gradientUnits="userSpaceOnUse" x1="138.55" y1="459.55" x2="138.55" y2="492.55" spreadMethod="pad"><stop offset="0%" stop-color="#DADEE8"/><stop offset="100%" stop-color="#D3D8E5"/></linearGradient><linearGradient id="e" gradientUnits="userSpaceOnUse" x1="124.488" y1="452.4" x2="83.912" y2="452.4" spreadMethod="pad"><stop offset="0%" stop-color="#B34E2F"/><stop offset="65.882%" stop-color="#F89D56"/><stop offset="100%" stop-color="#F58735"/></linearGradient><linearGradient id="f" gradientUnits="userSpaceOnUse" x1="115.45" y1="440.512" x2="115.45" y2="456.488" spreadMethod="pad"><stop offset="0%" stop-color="#CE6432"/><stop offset="100%" stop-color="#A6442D"/></linearGradient><linearGradient id="g" gradientUnits="userSpaceOnUse" x1="101.5" y1="461.55" x2="101.5" y2="484.45" spreadMethod="pad"><stop offset="0%" stop-color="#FBB881"/><stop offset="100%" stop-color="#F89D56"/></linearGradient><linearGradient id="h" gradientUnits="userSpaceOnUse" x1="137.463" y1="428.3" x2="86.037" y2="428.3" spreadMethod="pad"><stop offset="0%" stop-color="#E9823C"/><stop offset="78.039%" stop-color="#FCC698"/><stop offset="100%" stop-color="#F9A564"/></linearGradient><linearGradient id="i" gradientUnits="userSpaceOnUse" x1="115.4" y1="418.525" x2="115.4" y2="439.875" spreadMethod="pad"><stop offset="0%" stop-color="#F3A569"/><stop offset="100%" stop-color="#E67934"/></linearGradient><linearGradient id="j" gradientUnits="userSpaceOnUse" x1="87.325" y1="433.887" x2="103.275" y2="421.412" spreadMethod="pad"><stop offset="0%" stop-color="#FEE0C6"/><stop offset="100%" stop-color="#FCC696"/></linearGradient><linearGradient id="k" gradientUnits="userSpaceOnUse" x1="136.75" y1="452.525" x2="136.75" y2="487.975" spreadMethod="pad"><stop offset="0%" stop-color="#CC6332"/><stop offset="100%" stop-color="#B34E2F"/></linearGradient><linearGradient id="l" gradientUnits="userSpaceOnUse" x1="142.5" y1="426.95" x2="127.4" y2="426.95" spreadMethod="pad"><stop offset="0%" stop-color="#EB965B"/><stop offset="100%" stop-color="#FBB47D"/></linearGradient><linearGradient id="m" gradientUnits="userSpaceOnUse" x1="108.45" y1="418.188" x2="129.35" y2="417.813" spreadMethod="pad"><stop offset="0%" stop-color="#BF5931"/><stop offset="100%" stop-color="#D86D33"/></linearGradient><linearGradient id="n" gradientUnits="userSpaceOnUse" x1="135.475" y1="383.1" x2="94.325" y2="383.1" spreadMethod="pad"><stop offset="0%" stop-color="#A8B2C7"/><stop offset="12.941%" stop-color="#7B89A5"/><stop offset="78.039%" stop-color="#DADEE8"/><stop offset="100%" stop-color="#AFB8CB"/></linearGradient><linearGradient id="o" gradientUnits="userSpaceOnUse" x1="101.462" y1="350.15" x2="128.637" y2="350.15" spreadMethod="pad"><stop offset="0%" stop-color="#B4BDD0"/><stop offset="100%" stop-color="#8C9AB3"/></linearGradient><linearGradient id="p" gradientUnits="userSpaceOnUse" x1="115.15" y1="367.512" x2="115.15" y2="411.088" spreadMethod="pad"><stop offset="0%" stop-color="#687996"/><stop offset="100%" stop-color="#99A5BC"/></linearGradient><linearGradient id="q" gradientUnits="userSpaceOnUse" x1="104.85" y1="373.512" x2="104.85" y2="411.787" spreadMethod="pad"><stop offset="0%" stop-color="#FFF"/><stop offset="100%" stop-color="#CDD2E0"/></linearGradient><linearGradient id="r" gradientUnits="userSpaceOnUse" x1="102.462" y1="347.4" x2="130.737" y2="347.4" spreadMethod="pad"><stop offset="0%" stop-color="#E2E5ED"/><stop offset="100%" stop-color="#BFC7D8"/></linearGradient><linearGradient id="s" gradientUnits="userSpaceOnUse" x1="130.475" y1="500.15" x2="96.225" y2="500.15" spreadMethod="pad"><stop offset="0%" stop-color="#C7CDDC"/><stop offset="78.039%" stop-color="#FFF"/><stop offset="100%" stop-color="#E2E5ED"/></linearGradient><linearGradient id="t" gradientUnits="userSpaceOnUse" x1="129.463" y1="435.6" x2="89.938" y2="434.9" spreadMethod="pad"><stop offset="0%" stop-color="#FBB47D"/><stop offset="78.039%" stop-color="#FFF"/><stop offset="100%" stop-color="#FDD2AF"/></linearGradient><linearGradient id="u" gradientUnits="userSpaceOnUse" x1="128.475" y1="483.6" x2="103.525" y2="483.6" spreadMethod="pad"><stop offset="0%" stop-color="#BF5931"/><stop offset="100%" stop-color="#F29F5F"/></linearGradient><linearGradient id="v" gradientUnits="userSpaceOnUse" x1="149.563" y1="507.825" x2="142.438" y2="507.575" spreadMethod="pad"><stop offset="0%" stop-color="#B34E2F"/><stop offset="100%" stop-color="#E67934"/></linearGradient><linearGradient id="w" gradientUnits="userSpaceOnUse" x1="180.85" y1="495.488" x2="152.85" y2="494.512" spreadMethod="pad"><stop offset="0%" stop-color="#B34E2F"/><stop offset="100%" stop-color="#E67934"/></linearGradient><linearGradient id="x" gradientUnits="userSpaceOnUse" x1="168.15" y1="502.538" x2="168.15" y2="482.962" spreadMethod="pad"><stop offset="0%" stop-color="#F58735"/><stop offset="100%" stop-color="#CC6332"/></linearGradient><linearGradient id="y" gradientUnits="userSpaceOnUse" x1="181.387" y1="503.25" x2="152.512" y2="504.25" spreadMethod="pad"><stop offset="0%" stop-color="#F89D56"/><stop offset="100%" stop-color="#FDD2AD"/></linearGradient><linearGradient id="z" gradientUnits="userSpaceOnUse" x1="148.4" y1="493.463" x2="140.6" y2="493.738" spreadMethod="pad"><stop offset="0%" stop-color="#F89D56"/><stop offset="100%" stop-color="#FDD2AD"/></linearGradient><linearGradient id="A" gradientUnits="userSpaceOnUse" x1="193.412" y1="492.213" x2="185.388" y2="492.488" spreadMethod="pad"><stop offset="0%" stop-color="#F89D56"/><stop offset="100%" stop-color="#FDD2AD"/></linearGradient><linearGradient id="B" gradientUnits="userSpaceOnUse" x1="175.6" y1="501.525" x2="175.6" y2="497.575" spreadMethod="pad"><stop offset="0%" stop-color="#F89D56"/><stop offset="100%" stop-color="#FDD2AD"/></linearGradient><linearGradient id="C" gradientUnits="userSpaceOnUse" x1="163.05" y1="484.538" x2="163.05" y2="481.962" spreadMethod="pad"><stop offset="0%" stop-color="#D26733"/><stop offset="100%" stop-color="#E67934"/></linearGradient><linearGradient id="D" gradientUnits="userSpaceOnUse" x1="150.4" y1="506.813" x2="139.4" y2="507.188" spreadMethod="pad"><stop offset="0%" stop-color="#F89D56"/><stop offset="100%" stop-color="#FDD2AD"/></linearGradient><linearGradient id="E" gradientUnits="userSpaceOnUse" x1="146.4" y1="507.512" x2="146.4" y2="503.588" spreadMethod="pad"><stop offset="0%" stop-color="#F58735"/><stop offset="100%" stop-color="#CC6332"/></linearGradient><linearGradient id="F" gradientUnits="userSpaceOnUse" x1="143.8" y1="507.5" x2="143.8" y2="506.1" spreadMethod="pad"><stop offset="0%" stop-color="#FAAE71"/><stop offset="100%" stop-color="#FEDABB"/></linearGradient><radialGradient id="G" gradientUnits="userSpaceOnUse" cx="0" cy="0" r="2.862" fx="0" fy="0" gradientTransform="matrix(1 0 0 -1 115.5 374.55)" spreadMethod="pad"><stop offset="0%" stop-color="#FFF"/><stop offset="100%" stop-color="#D3D8E5"/></radialGradient><radialGradient id="H" gradientUnits="userSpaceOnUse" cx="0" cy="0" r="3.775" fx="0" fy="0" gradientTransform="matrix(1 0 0 -1 125.5 361.55)" spreadMethod="pad"><stop offset="0%" stop-color="#FFF"/><stop offset="100%" stop-color="#D3D8E5"/></radialGradient><path fill="#FFF" fill-opacity="0" d="M284 0H0v320h284V0z" id="I"/><path fill="url(#a)" d="M172.35 510.65q14.7-4.05 14.7-9.7 0-5.65-14.7-9.65-14.65-4-35.35-4-20.7 0-35.35 4-14.7 4-14.7 9.65t14.7 9.7q14.65 4 35.35 4 20.65 0 35.35-4z" id="J"/><path fill="url(#b)" d="M137.7 488.2H93.2v10.65q0 1.25 6.55 3.15 7.5 2.2 15.7 2.2t15.7-2.2q6.55-1.9 6.55-3.15V488.2z" id="K"/><path fill="#C3CBDB" d="M137.7 488.2h-10q0 6.4.7 14.55 4-.95 6.75-2.15 2.55-1.15 2.55-1.75V488.2z" id="L"/><path fill="url(#c)" d="M153.1 426.55q-6.75-13.55-22.95-13.7-2.05-.05-7.05-.8-4.8-.75-7.7-.75-2.9 0-7.7.75-5.05.75-7.05.8-16.2.15-22.95 13.7-6.75 13.55 1.1 30.2 5.35 11.2 6 12.55 2.95 6.8 4.75 13.95 1.25 4.8 4.75 7.3 2.75 1.85 7.9 2.9 6.05 1.15 13.2 1.15 7.1 0 13.15-1.15 5.25-1.05 7.95-2.9 3.5-2.45 4.75-7.3 1.85-7.2 4.75-13.95.8-1.8 5.95-12.55 7.95-16.65 1.15-30.2z" id="M"/><path fill="url(#d)" d="M153.1 426.55q-6.75-13.55-22.95-13.7-1.55 0-3.3-.25L121 415q15.45 5.8 16.8 20.55.95 10.05-4.75 23.65-6.6 15.7-5.15 34.35l.65-.1q5.25-1.05 7.95-2.9 3.5-2.45 4.75-7.3 1.85-7.2 4.75-13.95.8-1.8 5.95-12.55 7.95-16.65 1.15-30.2z" id="N"/><path fill="url(#e)" d="M149.6 428.4q-6.15-12.3-20.8-12.4-1.85-.05-6.4-.7-4.35-.65-7-.65-2.65 0-7 .65-4.55.65-6.4.7-14.65.1-20.8 12.4-6.15 12.35 1.05 27.4 4.6 9.5 5.4 11.4 2.6 6.1 4.25 12.6 1.15 4.4 4.35 6.65 2.45 1.7 7.2 2.65 5.4 1.05 11.95 1.05 6.55 0 11.95-1.05 4.75-.95 7.2-2.65 3.15-2.25 4.3-6.65 1.65-6.5 4.35-12.6.6-1.45 5.4-11.4 7.15-15.1 1-27.4z" id="O"/><path fill="url(#f)" d="M117.25 422.7h-3.65v34.9q-2.9 5.7-2.9 17.95 2.7 1.4 5.3 1.35 2.5-.05 4.2-1.35 0-12.3-2.95-17.95v-34.9z" id="P"/><path fill="url(#g)" d="M111 416.5q-4.45.5-6.25.5-5.35.1-11.75 3.9-6.55 3.85-8.95 8.65-2.65 5.2-2.2 11.95.45 6.75 4 14.15 3.75 7.65 5.7 12.6 2.9 7.45 4.2 14.25.5 2.6 4.5 3-2.05-9.4-4-15.45-2.9-7.75-4.3-11.6-2.5-6.85-2.85-12.05-.35-5.3-.25-8 .25-4.05 1.55-7.15 2.65-5.85 9.05-9.55 6.25-3.65 13.35-3.75 1.6 0 4.05-.65 2.85-.8 4.35-1-1.9-.25-3.45-.25-2.45 0-6.75.45z" id="Q"/><path fill="url(#h)" d="M137.05 437.65q9-3.2 9-7.7 0-4.75-9-9.3-9.65-4.85-21.65-4.85-12 0-21.65 4.85-9.05 4.55-9.05 9.3 0 4.5 9.05 7.7 9 3.2 21.65 3.2 12.65 0 21.65-3.2z" id="R"/><path fill="url(#i)" d="M117.25 440.75V417.2h-3.65v23.65h1.8q1.3 0 1.85-.1z" id="S"/><path fill="url(#j)" d="M112.8 417.95q1.6 0 4.05-.65 2.85-.8 4.35-1-1.9-.25-3.45-.25-2.45 0-6.75.45-4.45.5-6.25.5h-1.4q-6.85 1.55-12.95 5.55-2.45 1.75-4.4 4.05-1.3 1.95-1.3 3.35 0 3.05 4.5 5.65.25-1.8 1.2-4.35 2.65-5.85 9.05-9.55 6.25-3.65 13.35-3.75z" id="T"/><path fill="url(#k)" d="M149.6 428.4q-6.15-12.3-20.8-12.4-1.55-.05-7.6-.85 15.25 5.85 16.6 20.55.9 10.1-4.75 23.5-5.7 13.65-5.35 29.8 4.5-.9 6.95-2.65 3.1-2.25 4.2-6.55 1.65-6.5 4.35-12.6.6-1.45 5.4-11.4 7.15-15.1 1-27.4z" id="U"/><path fill="url(#l)" d="M124.45 416.55q13 6.5 13.45 20.75 3.85-1.4 5.95-3.3 2.2-1.9 2.2-4.05 0-3.75-6.1-7.65-6.35-4.1-15.5-5.75z" id="V"/><path fill="url(#m)" d="M96.65 416q1.8 1.8 7.45 3.3 5.8 1.5 12.2 1.8 16.4.75 19.7-6.55L96.65 416z" id="W"/><path fill="url(#n)" d="M118.05 350.7l-17.8-1.15-5.4-2.1v66.75l-.05.3q0 1.75 6.05 3 6.1 1.25 14.6 1.25t14.6-1.25q6-1.25 6-3v-67.05l-7.4 2.5-10.6.75z" id="X"/><path fill="url(#o)" d="M118.05 350.7l-17.8-1.15-5-1.95q-.2.15-.4.55v.6q.55 1.7 6.5 2.8 5.95 1.15 14.1 1.15 8.2 0 14.15-1.15 5.95-1.1 6.45-2.8v-.6q-.05-.1-.35-.55l-7.05 2.35-10.6.75z" id="Y"/><path fill="url(#p)" d="M120.15 350.55l-1.5.05-.1.1-.05-.1-.45.1-7.85-.5v68.4q4.95.15 5.25.15.2 0 4.7-.15v-68.05z" id="Z"/><path fill="url(#q)" d="M110.8 350.2l-10.05-.65h-.5l-1.35-.6V417q4.4 1.2 11.9 1.6v-68.4z" id="aa"/><path fill="#596B89" d="M120.15 352.55v-2l-1.5.05-.1.1-.05-.1-.45.1-7.85-.5v2.35q2.5.15 5.25.15 2.45 0 4.7-.15z" id="ab"/><path fill="#CDD2E0" d="M110.8 350.2l-10.05-.65h-.5l-1.35-.6V351q4.85 1.25 11.9 1.55v-2.35z" id="ac"/><path fill="url(#r)" d="M115.45 343.15q-8.55 0-14.6 1.25-6.05 1.2-6.05 3 0 1.75 6.05 3 6.1 1.25 14.6 1.25t14.6-1.25q6-1.25 6-3 0-1.8-6-3-6-1.25-14.6-1.25z" id="ad"/><path fill="url(#s)" d="M128 501.1q5.5-1.25 7.85-3.25-18.45 5.2-40.85 0 2.45 2 7.95 3.25 5.65 1.3 12.5 1.3t12.55-1.3z" id="ae"/><path fill="url(#t)" d="M112.15 436q-12.75-.5-23.6-3.9 8.25 5.7 24.2 5.95 13.45.2 22.95-2.95-14.25 1.25-23.55.9z" id="af"/><path fill="#FFF" d="M118.2 350.1q-7.1 0-12.1-.9-5.05-.95-5.05-2.25 0-1.45 5.65-2.4-8.4 1-8.4 2.85 0 1.3 5.05 2.25 5.1.95 12.1.95 7.45 0 12.45-1.05-4.25.55-9.7.55z" id="ag"/><path fill="url(#u)" d="M115.4 480q-6.25 0-10.7 1.05-4.45 1.1-4.45 2.55 0 1.45 4.45 2.55 4.45 1.05 10.7 1.05 6.25 0 10.7-1.05 4.4-1.1 4.4-2.55 0-1.45-4.4-2.55-4.45-1.05-10.7-1.05z" id="ah"/><path fill="#B34E2F" d="M112.3 469q-.1 2.55.2 4.4.3 1.8.85 1.8.6 0 1.05-1.8.45-1.75.55-4.4.1-2.5-.25-4.35-.35-1.85-.9-1.85t-1 1.85q-.45 1.85-.5 4.35z" id="ai"/><path fill="url(#v)" d="M146.4 504.7q-2.2 0-4.05.55-1.85.55-2.65 1.4-.2.35-.2 1.1 0 1.25 2.05 2.1 2 .9 4.85.9 2.9 0 4.9-.9 2.05-.85 2.05-2.1 0-1.1-.25-1.3-1.25-1.75-6.7-1.75z" id="aj"/><path fill="url(#w)" d="M181.2 489.1q-1.9-.4-4.1-2.75-2.2-2.4-7.3-3.4-6.05-1.25-12-.35-6.7.95-8.2 4.25l-.9 1.75q-.9.85-3.3.55-2-.2-3.25.9-1.15 1-1.05 2.55 0 1.5 1 2.5 1.15 1.2 3.1 1.05 1.45-.15 3.5-.5 1.4 0 2 .75.4.55.45 1.7.1 3.05 1.55 4.9 1.6 2.05 5.1 3.15 6.85 2.2 16.9 1.4 9.1-.7 12.45-2.85 2.4-1.5 2.55-3.6.1-2.15-2.1-3-1.55-.65-2.25-1.5-1.05-1.3 1.05-2.35.9-.45 2.6-.4.5 0 3 .25 2.25.2 2.9-.7.4-.5.25-1.6-.4-2.2-5.05-2.6-1.25-.1-3.85-.1-4.2.2-5.05 0z" id="ak"/><path fill="url(#x)" d="M177.1 485.25q-2.25-2.35-7.3-3.35-6-1.3-12-.4-6.7 1-8.2 4.25-.8 1.7-.9 1.8-.9.85-3.3.6-2-.25-3.25.85-1.15 1-1.05 2.6 0 1.45 1 2.45 1.15 1.15 3.1 1 .8-.05 2-.25 1.1-.25 1.5-.25 1.4 0 2 .75.4.6.45 1.75.1 3.05 1.55 4.9 1.6 2 5.1 3.1 6.85 2.25 16.9 1.45 9.15-.7 12.45-2.9 2.4-1.5 2.55-3.6.1-2.1-2.1-3-1.55-.65-2.25-1.45-1.05-1.3 1.05-2.35.9-.5 2.6-.4.95.05 3 .25 3.6.25 3.15-2.25-.35-2.2-5.05-2.65-1.6-.2-3.85-.1-4.2.15-5.05-.05-1.9-.4-4.1-2.75z" id="al"/><path fill="url(#y)" d="M174.95 503.65q-5.4.45-10.25-.1-5.15-.7-8.7-2.25-1.1-.35-1.95-.05-.75.15-.8.7-.15.6.95 1.4 1.6 1.15 3.6 1.7 6.85 2.25 16.9 1.45 9.15-.7 12.45-2.9 2.3-1.35 2.55-3.35l-.35-.15q-1.15-.45-2.6.2-1.85 1.1-3.25 1.65-3.05 1.25-8.55 1.7z" id="am"/><path fill="url(#z)" d="M146.5 493.05q-4.55.6-5.4-1.8v.35q0 1.45 1 2.45 1.15 1.15 3.1 1 .8-.05 2-.25 1.1-.25 1.5-.25 1.75 0 2.25 1.3v-.45q-.25-2.95-4.45-2.35z" id="an"/><path fill="url(#A)" d="M185 494.35l.1.05q.2-.65 1.3-1.2.9-.5 2.6-.4.95.05 3 .25 3.6.25 3.15-2.25l-.2-.55q.1 1-1.95 1-4.5 0-5.1.1-2.9.55-2.9 3z" id="ao"/><path fill="url(#B)" d="M175.6 498.35q-2.5 0-4.25.6-1.75.55-1.75 1.3t1.75 1.3q1.75.55 4.25.55 2.45 0 4.25-.55 1.8-.55 1.8-1.3t-1.8-1.3q-1.8-.6-4.25-.6z" id="ap"/><path fill="url(#C)" d="M163.05 485.5q6.55 0 10.95.75l.05-.35q0-1.45-3.2-2.45-3.2-1-7.8-1-4.55 0-7.75 1-3.25 1-3.25 2.45l.05.35q4.6-.75 10.95-.75z" id="aq"/><path fill="url(#D)" d="M146.4 503.9q-2.85 0-4.85.9-2.05.9-2.05 2.15t2.05 2.15q2 .85 4.85.85 2.9 0 4.9-.85 2.05-.9 2.05-2.15t-2.05-2.15q-2.05-.9-4.9-.9z" id="ar"/><path fill="url(#E)" d="M152.95 506.05q-1.25-2.15-6.35-2.2-5.15-.1-6.75 2.2.5 1.1 2.25 1.8 1.85.75 4.3.75 2.5 0 4.35-.75 1.8-.7 2.2-1.8z" id="as"/><path fill="url(#F)" d="M143.85 506.15q-.9 0-1.55.2t-.65.45q0 .7 2.2.7 2.05 0 2.05-.7 0-.25-.6-.45t-1.45-.2z" id="at"/><path fill="url(#G)" d="M115.9 367.85l-.45 6.3-6.35.45 6.35.45.45 6.3.4-6.3 6.35-.45-6.35-.45-.4-6.3z" id="au"/><path fill="url(#H)" d="M125.2 352.65l-.6 8.35-8.35.55 8.35.6.6 8.35.55-8.35 8.35-.6-8.35-.55-.55-8.35z" id="av"/><path fill="#FFF" d="M98.1 449.85l-6.55.4 6.55.45.5 6.55.45-6.55 6.55-.45-6.55-.4-.45-6.55-.5 6.55z" id="aw"/><path fill="#FFF" d="M104.8 454.75l-.3 3.5-3.5.3 3.5.2.3 3.55.2-3.55 3.6-.2-3.6-.3-.2-3.5z" id="ax"/><path fill="#FFF" d="M172.1 482.9l-.4 5.8-5.85.45 5.85.35.4 5.9.4-5.9 5.9-.35-5.9-.45-.4-5.8z" id="ay"/><path fill="#FFF" d="M162.05 497.15l.3 4.15.25-4.15 4.2-.3-4.2-.3-.25-4.25-.3 4.25-4.2.3 4.2.3z" id="az"/></defs><use xlink:href="#I"/><use xlink:href="#J" transform="matrix(1.53479 0 0 1.53476 -64.945 -478.553)"/><use xlink:href="#K" transform="matrix(1.53479 0 0 1.53476 -64.945 -478.553)"/><use xlink:href="#L" transform="matrix(1.53479 0 0 1.53476 -64.945 -478.553)"/><use xlink:href="#M" transform="matrix(1.53479 0 0 1.53476 -64.945 -478.553)"/><use xlink:href="#N" transform="matrix(1.53479 0 0 1.53476 -64.945 -478.553)"/><use xlink:href="#O" transform="matrix(1.53479 0 0 1.53476 -64.945 -478.553)"/><use xlink:href="#P" transform="matrix(1.53479 0 0 1.53476 -64.945 -478.553)"/><use xlink:href="#Q" transform="matrix(1.53479 0 0 1.53476 -64.945 -478.553)"/><use xlink:href="#R" transform="matrix(1.53479 0 0 1.53476 -64.945 -478.553)"/><use xlink:href="#S" transform="matrix(1.53479 0 0 1.53476 -64.945 -478.553)"/><use xlink:href="#T" transform="matrix(1.53479 0 0 1.53476 -64.945 -478.553)"/><use xlink:href="#U" transform="matrix(1.53479 0 0 1.53476 -64.945 -478.553)"/><use xlink:href="#V" transform="matrix(1.53479 0 0 1.53476 -64.945 -478.553)"/><use xlink:href="#W" transform="matrix(1.53479 0 0 1.53476 -64.945 -478.553)"/><use xlink:href="#X" transform="matrix(1.53479 0 0 1.53476 -64.945 -478.553)"/><use xlink:href="#Y" transform="matrix(1.53479 0 0 1.53476 -64.945 -478.553)"/><use xlink:href="#Z" transform="matrix(1.53479 0 0 1.53476 -64.945 -478.553)"/><use xlink:href="#aa" transform="matrix(1.53479 0 0 1.53476 -64.945 -478.553)"/><use xlink:href="#ab" transform="matrix(1.53479 0 0 1.53476 -64.945 -478.553)"/><use xlink:href="#ac" transform="matrix(1.53479 0 0 1.53476 -64.945 -478.553)"/><use xlink:href="#ad" transform="matrix(1.53479 0 0 1.53476 -64.945 -478.553)"/><use xlink:href="#ae" transform="matrix(1.53479 0 0 1.53476 -64.945 -478.553)"/><use xlink:href="#af" transform="matrix(1.53479 0 0 1.53476 -64.945 -478.553)"/><use xlink:href="#ag" transform="matrix(1.53479 0 0 1.53476 -64.945 -478.553)"/><use xlink:href="#ah" transform="matrix(1.53479 0 0 1.53476 -64.945 -478.553)"/><use xlink:href="#ai" transform="matrix(1.53479 0 0 1.53476 -64.945 -478.553)"/><use xlink:href="#aj" transform="matrix(1.53479 0 0 1.53476 -64.945 -478.553)"/><use xlink:href="#ak" transform="matrix(1.53479 0 0 1.53476 -64.945 -478.553)"/><use xlink:href="#al" transform="matrix(1.53479 0 0 1.53476 -64.945 -478.553)"/><use xlink:href="#am" transform="matrix(1.53479 0 0 1.53476 -64.945 -478.553)"/><use xlink:href="#an" transform="matrix(1.53479 0 0 1.53476 -64.945 -478.553)"/><use xlink:href="#ao" transform="matrix(1.53479 0 0 1.53476 -64.945 -478.553)"/><use xlink:href="#ap" transform="matrix(1.53479 0 0 1.53476 -64.945 -478.553)"/><use xlink:href="#aq" transform="matrix(1.53479 0 0 1.53476 -64.945 -478.553)"/><use xlink:href="#ar" transform="matrix(1.53479 0 0 1.53476 -64.945 -478.553)"/><use xlink:href="#as" transform="matrix(1.53479 0 0 1.53476 -64.945 -478.553)"/><use xlink:href="#at" transform="matrix(1.53479 0 0 1.53476 -64.945 -478.553)"/><use xlink:href="#au" transform="matrix(1.53479 0 0 1.53476 -64.945 -478.553)"/><use xlink:href="#av" transform="matrix(1.53479 0 0 1.53476 -64.945 -478.553)"/><use xlink:href="#aw" transform="matrix(1.53479 0 0 1.53476 -64.945 -478.553)"/><use xlink:href="#ax" transform="matrix(1.53479 0 0 1.53476 -64.945 -478.553)"/><use xlink:href="#ay" transform="matrix(1.53479 0 0 1.53476 -64.945 -478.553)"/><use xlink:href="#az" transform="matrix(1.53479 0 0 1.53476 -64.945 -478.553)"/></svg>