<svg xmlns="http://www.w3.org/2000/svg" xmlns:xlink="http://www.w3.org/1999/xlink" preserveAspectRatio="none" width="284" height="320"><defs><radialGradient id="a" gradientUnits="userSpaceOnUse" cx="0" cy="0" r="1935.088" fx="0" fy="0" gradientTransform="matrix(1 0 0 -1 625.35 389.85)" spreadMethod="pad"><stop offset=".392%" stop-color="#FEFEFE"/><stop offset="40.392%" stop-color="#8ACBE1"/><stop offset="99.608%" stop-color="#4EB3D3"/></radialGradient><radialGradient id="b" gradientUnits="userSpaceOnUse" cx="0" cy="0" r="1921.6" fx="0" fy="0" gradientTransform="matrix(1 0 0 -1 618 389.85)" spreadMethod="pad"><stop offset=".392%" stop-color="#FEFEFE"/><stop offset="30.98%" stop-color="#A0D4E6"/><stop offset="99.608%" stop-color="#7CC5DE"/></radialGradient><radialGradient id="c" gradientUnits="userSpaceOnUse" cx="0" cy="0" r="1699.975" fx="0" fy="0" gradientTransform="matrix(1 0 0 -1 566.95 389.85)" spreadMethod="pad"><stop offset=".392%" stop-color="#FEFEFE"/><stop offset="34.902%" stop-color="#A0D4E6"/><stop offset="99.608%" stop-color="#7CC5DE"/></radialGradient><radialGradient id="d" gradientUnits="userSpaceOnUse" cx="0" cy="0" r="1554.65" fx="0" fy="0" gradientTransform="matrix(1 0 0 -1 553.35 389.85)" spreadMethod="pad"><stop offset=".392%" stop-color="#FEFEFE"/><stop offset="41.961%" stop-color="#A0D4E6"/><stop offset="54.902%" stop-color="#9ED3E6"/><stop offset="99.608%" stop-color="#7CC5DE"/></radialGradient><radialGradient id="e" gradientUnits="userSpaceOnUse" cx="0" cy="0" r="1257.05" fx="0" fy="0" gradientTransform="matrix(1 0 0 -.98246 539.95 403.75)" spreadMethod="pad"><stop offset=".392%" stop-color="#FEFEFE"/><stop offset="58.824%" stop-color="#A0D4E6"/><stop offset="99.608%" stop-color="#7CC5DE"/></radialGradient><radialGradient id="f" gradientUnits="userSpaceOnUse" cx="0" cy="0" r="491.188" fx="0" fy="0" gradientTransform="matrix(1 0 0 -1 654.65 382.95)" spreadMethod="pad"><stop offset="0%" stop-color="#FEFEFE"/><stop offset="99.608%" stop-color="#85C9E0"/></radialGradient><radialGradient id="g" gradientUnits="userSpaceOnUse" cx="0" cy="0" r="845.475" fx="0" fy="0" gradientTransform="matrix(1 0 0 -1 659.9 395.65)" spreadMethod="pad"><stop offset="0%" stop-color="#FEFEFE"/><stop offset="99.608%" stop-color="#85C9E0"/></radialGradient><radialGradient id="h" gradientUnits="userSpaceOnUse" cx="0" cy="0" r="9.668" fx="0" fy="0" gradientTransform="matrix(.48356 -.87531 .51459 .28186 -1.35 4.3)" spreadMethod="pad"><stop offset="0%" stop-opacity=".412"/><stop offset="100%" stop-color="#013198" stop-opacity="0"/></radialGradient><radialGradient id="i" gradientUnits="userSpaceOnUse" cx="0" cy="0" r="5.021" fx="0" fy="0" gradientTransform="matrix(.77672 -.62984 .4008 .49292 -2.6 -4.35)" spreadMethod="pad"><stop offset="0%" stop-opacity=".424"/><stop offset="100%" stop-color="#013198" stop-opacity="0"/></radialGradient><path fill="url(#a)" d="M1069.3 757.15V0H0v757.15h1069.3z" id="j"/><path fill="url(#b)" d="M1033.9 60.05q7.95-28.65 2.2-60.05h-871q-23.85 39-39.95 65.8-30.3 50.45-51.5 92.85Q9.35 287.3 0 396.55v73.25q6.55 71.75 39.35 134.65Q89.5 700.6 130 757.15h738.85q1.75-17.15 4.75-25.25 3.75-10.15 11.1-12.3 8.9-2.6 27.55-6.1 16.85-4.2 28.75-13.4 33.55-25.85 57.4-113.1 31.35-114.85 44.65-185.4 16.05-85.2 13.25-141.35-2.05-41.05-9.15-73.75-3.05-14.1-12.4-44.9-6.55-21.6-7.2-35.65-.95-19.5 6.35-45.9z" id="k"/><path fill="url(#c)" d="M899.6 170.6q6.7-18 12-37.05 9.9-35.7-5.65-73.3Q890.4 22.5 856.3 0h-92.5Q650.15.1 498.55 0H234.7q-6.5 15-9.65 34.45-1.7 10.7-3.95 28.7-1.1 6.2-11.45 23.9-15.1 24.8-25 41-41.6 68.4-64.9 121.95-81.3 186.8-10.4 322.65 42.25 80.95 76 127.1 27.75 37.95 53.8 57.4H771.2q3-14.25 4.8-33 1.6-19.85 2.45-28.15 1.4-13.9 3.8-20.45 3.05-8.25 9-10 7.15-2.1 24-4.55 15.8-3.1 26.15-10.15Q872 630 882.95 558.6q5.75-37.7 2.9-79.05-1.95-28.6-9.4-69.85-9-50.2-10.45-61.6-4-32-.25-54.1 10.1-59.45 22.85-94.75 7.2-18.6 11-28.65z" id="l"/><path fill="url(#d)" d="M832.15 183.4q7.6-27.35-3.4-56.45-11-29-35.95-47.8-26.95-20.3-61.45-21.3-38.9-1.1-80 23.1-18.35-14.5-47-31.9Q547 14.3 495.55 0h-113.6Q311.9 25.7 288.9 66.7q-8 14.3-11.45 32.65-1.85 10.2-3.85 27.1-.9 5.05-9.25 19.35-12.25 20.05-20.2 33.15-33.7 55.3-52.55 98.65-65.75 151.1-8.4 261 32.45 62.2 58.65 98.9 21.95 30.75 42.15 47.1 12.9 10.4 33.45 20.2 22 10.45 32.6 18.25 21.45 15.75 69.8 34.1h260.1Q700.6 739 711.1 713.1q7.65-19 10.7-45.25 2.05-26.85 3.5-36.4 2.35-15.6 9.5-17.7 5.8-1.7 19.45-3.7 12.75-2.5 21.15-8.2 24.7-16.85 33.55-74.65 4.7-30.5 2.4-63.9-1.6-23.15-7.6-56.5-7.35-40.7-8.5-49.85-3.25-25.85-.2-43.75 8.15-48.1 18.5-76.6 5.85-15.05 8.9-23.2 5.4-14.55 9.7-30z" id="m"/><path fill="url(#e)" d="M723.55 152.7q-20.7-15.55-47.1-16.35-29.85-.85-61.35 17.7-7.4-5.85-19.85-14.15-24.9-16.55-50.1-28.8Q464.4 72 410.7 91.2q-55.15 19.75-73.3 51.5-6.3 11.1-9 25.3-1.45 7.9-3 20.95-.7 3.85-7.1 14.8-9.35 15.4-15.5 25.45-25.8 42.45-40.25 75.65-50.4 115.9-6.45 200.15 24.9 47.7 44.95 75.8 16.85 23.6 32.35 36.1 9.9 8 25.65 15.5 16.85 8 25 14 25 18.4 89.3 38.4 26.65 8.3 49.15 13.15 22.95 4.95 32.15 4.3 6.25-.45 15.4.9 8.55 1.3 13.5.65 16.5-2 49.3-27.75 17.65-13.85 26.7-34.2 6.7-15.1 9.3-35.85 1.75-21.5 2.8-29.2 1.8-12.55 7.4-14.2 4.45-1.3 14.9-2.85 9.75-1.9 16.2-6.3 19-12.9 25.75-57.2 3.6-23.4 1.85-49-1.25-17.75-5.85-43.35-5.6-31.15-6.5-38.2-2.45-19.85-.15-33.55 6.25-36.9 14.2-58.75 4.45-11.55 6.8-17.8 4.15-11.15 7.45-23 5.85-20.95-2.6-43.25-8.4-22.25-27.55-36.65z" id="n"/><path fill="url(#f)" d="M395.95 0H257.4l403.1 396.05L395.95 0m-132.7 757.15h135.2l262.05-361.1-397.25 361.1M0 315v136.15l660.5-55.1L0 315m506.5 442.15h81.6l72.4-361.1-154 361.1m-506.5 0h19.7l640.8-361.1L0 606.05v151.1M17.4 0H0v157.45l660.5 238.6L17.4 0M597 0h-87.55L660.5 396.05 597 0m397.65 0h-120.1L660.5 396.05 994.65 0m74.65 729.5V608.3L660.5 396.05l408.8 333.45m0-227.2v-86.25l-408.8-20 408.8 106.25M837.9 757.15h104l-281.4-361.1 177.4 361.1m-167.75 0h75.7l-85.35-361.1 9.65 361.1M770.5 0h-84l-26 396.05L770.5 0m298.8 323.45v-91.2l-408.8 163.8 408.8-72.6m0-210.5V0h-32.5L660.5 396.05l408.8-283.1z" id="o"/><path fill="url(#g)" d="M0 384.95l.2 13.65 660.15-2.55L0 384.95m535.8 372.2h16.95l107.75-360.9-124.7 360.9m-268.4 0h33.05L660.4 396.2l-393 360.95m-200.7 0h55.4l538.3-361-593.7 361M0 639.95v14.65l660.3-258.45L0 639.95m0-141.9v30.8L660.3 396.1 0 498.05m0-403.6v32.05l660.3 269.45L0 94.45M542.55 0H524l136.4 395.95L542.55 0m526.75 498.3V491l-306.7-70.35 306.7 77.65m0-81.45v-9.1L660.6 396l408.7 20.85m-130.75 340.3h27.9L660.55 396.1l278 361.05m-218.85 0h16.7l-75.85-360.9 59.15 360.9M674.2 0h-16.85l3.1 395.9L674.2 0m218.25 0h-8.6l-166.7 297.5L892.45 0m176.85 250.4v-20L660.75 395.95 1069.3 250.4z" id="p"/><path fill="#F90" d="M7.3 5.8q.997-.993 1-2.4-.003-1.407-1-2.4-.993-.996-2.4-1-1.407.004-2.4 1-.998.993-1 2.4.002 1.407 1 2.4.993.984 2.4.95-1.661.183-3.2 2.35-1.762 2.507-1.7 5.75.025 1.063 5.15 1.15 5.116.083 5.05-.95-.189-3.326-1.75-5.85-1.453-2.424-3.3-2.45 1.254-.06 2.15-.95z" id="q"/><g id="r"><path fill="url(#h)" d="M-4.05-2.2h-.05q-1.65.15-3.2 2.35Q-9.05 2.6-9 5.9q.05 1 5.15 1.1 5.1.1 5.05-.95Q1 2.7-.5.25-2-2.2-3.8-2.2h-.25M-6.8 5.4q.3-4.25 2.7-5.8-2.4 1.55-2.7 5.8z"/><path fill="url(#i)" d="M-1.7-8q-1-1-2.4-1t-2.4 1q-1 1-1 2.4t1 2.4q1 1 2.4 1h.3q1.2-.1 2.1-1 1-1 1-2.4t-1-2.4m-4.1 2.45q.2-1.3 1.3-1.85-1.1.55-1.3 1.85z"/></g><path id="s" stroke="#FFF" stroke-width="1" stroke-linejoin="round" stroke-linecap="round" fill="none" d="M-5.8-5.55q.2-1.3 1.3-1.85M-6.8 5.4q.3-4.25 2.7-5.8"/></defs><use xlink:href="#j" transform="matrix(0 .29926 -.3751 0 284 0)"/><use xlink:href="#k" transform="matrix(0 .29926 -.3751 0 284 0)"/><use xlink:href="#l" transform="matrix(0 .29926 -.3751 0 284 0)"/><use xlink:href="#m" transform="matrix(0 .29926 -.3751 0 284 0)"/><use xlink:href="#n" transform="matrix(0 .29926 -.3751 0 284 0)"/><use xlink:href="#o" transform="matrix(0 .29926 -.3751 0 284 0)"/><use xlink:href="#p" transform="matrix(0 .29926 -.3751 0 284 0)"/><g><use xlink:href="#q" transform="matrix(16.24632 0 0 16.24603 59.85 48.45)"/><g transform="matrix(16.24632 0 0 16.24603 206.067 194.664)"><use xlink:href="#r"/><use xlink:href="#s"/></g></g></svg>