<svg xmlns="http://www.w3.org/2000/svg" xmlns:xlink="http://www.w3.org/1999/xlink" preserveAspectRatio="none" width="284" height="320"><defs><linearGradient id="a" gradientUnits="userSpaceOnUse" x1="169.925" y1="465.575" x2="190.375" y2="462.325" spreadMethod="pad"><stop offset="0%" stop-color="#00C0F3"/><stop offset="100%" stop-color="#0092D5"/></linearGradient><linearGradient id="b" gradientUnits="userSpaceOnUse" x1="166.838" y1="446.012" x2="187.263" y2="442.787" spreadMethod="pad"><stop offset="0%" stop-color="#00C0F3"/><stop offset="100%" stop-color="#0092D5"/></linearGradient><linearGradient id="c" gradientUnits="userSpaceOnUse" x1="165.625" y1="438.525" x2="186.075" y2="435.275" spreadMethod="pad"><stop offset="0%" stop-color="#00C0F3"/><stop offset="100%" stop-color="#0092D5"/></linearGradient><linearGradient id="d" gradientUnits="userSpaceOnUse" x1="164.275" y1="430.025" x2="184.725" y2="426.775" spreadMethod="pad"><stop offset="0%" stop-color="#00C0F3"/><stop offset="100%" stop-color="#0092D5"/></linearGradient><linearGradient id="e" gradientUnits="userSpaceOnUse" x1="184.438" y1="413.525" x2="159.563" y2="432.275" spreadMethod="pad"><stop offset="0%" stop-color="#00B5F1"/><stop offset="69.804%" stop-color="#CDECFC"/><stop offset="100%" stop-color="#83D4F7"/></linearGradient><linearGradient id="f" gradientUnits="userSpaceOnUse" x1="188.175" y1="444.512" x2="167.625" y2="459.988" spreadMethod="pad"><stop offset="0%" stop-color="#00B5F1"/><stop offset="69.804%" stop-color="#CDECFC"/><stop offset="100%" stop-color="#83D4F7"/></linearGradient><linearGradient id="g" gradientUnits="userSpaceOnUse" x1="193.525" y1="459.588" x2="164.975" y2="481.113" spreadMethod="pad"><stop offset="0%" stop-color="#00B5F1"/><stop offset="69.804%" stop-color="#CDECFC"/><stop offset="100%" stop-color="#83D4F7"/></linearGradient><linearGradient id="h" gradientUnits="userSpaceOnUse" x1="135.95" y1="469.55" x2="135.95" y2="496.75" spreadMethod="pad"><stop offset="0%" stop-color="#A6572D"/><stop offset="100%" stop-color="#D9A780"/></linearGradient><linearGradient id="i" gradientUnits="userSpaceOnUse" x1="136" y1="478.55" x2="136" y2="492.65" spreadMethod="pad"><stop offset="0%" stop-color="#A6572D"/><stop offset="100%" stop-color="#E2BA9A"/></linearGradient><linearGradient id="j" gradientUnits="userSpaceOnUse" x1="127.9" y1="475.512" x2="127.9" y2="489.287" spreadMethod="pad"><stop offset="0%" stop-color="#A6572D"/><stop offset="100%" stop-color="#E2BA9A"/></linearGradient><linearGradient id="k" gradientUnits="userSpaceOnUse" x1="144.05" y1="475.512" x2="144.05" y2="489.287" spreadMethod="pad"><stop offset="0%" stop-color="#A6572D"/><stop offset="100%" stop-color="#E2BA9A"/></linearGradient><linearGradient id="l" gradientUnits="userSpaceOnUse" x1="119.8" y1="469.55" x2="119.8" y2="483.65" spreadMethod="pad"><stop offset="0%" stop-color="#A6572D"/><stop offset="100%" stop-color="#E2BA9A"/></linearGradient><linearGradient id="m" gradientUnits="userSpaceOnUse" x1="111.7" y1="463.538" x2="111.7" y2="477.563" spreadMethod="pad"><stop offset="0%" stop-color="#A6572D"/><stop offset="100%" stop-color="#E2BA9A"/></linearGradient><linearGradient id="n" gradientUnits="userSpaceOnUse" x1="136" y1="471.55" x2="136" y2="485.65" spreadMethod="pad"><stop offset="0%" stop-color="#A6572D"/><stop offset="100%" stop-color="#E2BA9A"/></linearGradient><linearGradient id="o" gradientUnits="userSpaceOnUse" x1="152.1" y1="469.525" x2="152.1" y2="483.175" spreadMethod="pad"><stop offset="0%" stop-color="#A6572D"/><stop offset="100%" stop-color="#D9A780"/></linearGradient><linearGradient id="p" gradientUnits="userSpaceOnUse" x1="160.15" y1="463.525" x2="160.15" y2="477.175" spreadMethod="pad"><stop offset="0%" stop-color="#A6572D"/><stop offset="100%" stop-color="#CD905F"/></linearGradient><linearGradient id="q" gradientUnits="userSpaceOnUse" x1="127.9" y1="463.55" x2="127.9" y2="477.65" spreadMethod="pad"><stop offset="0%" stop-color="#A6572D"/><stop offset="100%" stop-color="#E2BA9A"/></linearGradient><linearGradient id="r" gradientUnits="userSpaceOnUse" x1="144.05" y1="463.525" x2="144.05" y2="477.175" spreadMethod="pad"><stop offset="0%" stop-color="#A6572D"/><stop offset="100%" stop-color="#DDAF8C"/></linearGradient><linearGradient id="s" gradientUnits="userSpaceOnUse" x1="105.45" y1="453.525" x2="105.45" y2="466.975" spreadMethod="pad"><stop offset="0%" stop-color="#A6572D"/><stop offset="100%" stop-color="#E2BA9A"/></linearGradient><linearGradient id="t" gradientUnits="userSpaceOnUse" x1="119.8" y1="453.55" x2="119.8" y2="467.65" spreadMethod="pad"><stop offset="0%" stop-color="#A6572D"/><stop offset="100%" stop-color="#E2BA9A"/></linearGradient><linearGradient id="u" gradientUnits="userSpaceOnUse" x1="136" y1="453.55" x2="136" y2="467.65" spreadMethod="pad"><stop offset="0%" stop-color="#A6572D"/><stop offset="100%" stop-color="#E2BA9A"/></linearGradient><linearGradient id="v" gradientUnits="userSpaceOnUse" x1="152.1" y1="453.525" x2="152.1" y2="467.175" spreadMethod="pad"><stop offset="0%" stop-color="#A6572D"/><stop offset="100%" stop-color="#D49D74"/></linearGradient><linearGradient id="w" gradientUnits="userSpaceOnUse" x1="166.5" y1="453.538" x2="166.5" y2="466.962" spreadMethod="pad"><stop offset="0%" stop-color="#A6572D"/><stop offset="100%" stop-color="#C6814C"/></linearGradient><linearGradient id="x" gradientUnits="userSpaceOnUse" x1="160.15" y1="442.525" x2="160.15" y2="456.175" spreadMethod="pad"><stop offset="0%" stop-color="#A6572D"/><stop offset="100%" stop-color="#C6814C"/></linearGradient><linearGradient id="y" gradientUnits="userSpaceOnUse" x1="144.05" y1="442.525" x2="144.05" y2="456.175" spreadMethod="pad"><stop offset="0%" stop-color="#A6572D"/><stop offset="100%" stop-color="#DDAF8C"/></linearGradient><linearGradient id="z" gradientUnits="userSpaceOnUse" x1="127.9" y1="442.55" x2="127.9" y2="456.65" spreadMethod="pad"><stop offset="0%" stop-color="#A6572D"/><stop offset="100%" stop-color="#E2BA9A"/></linearGradient><linearGradient id="A" gradientUnits="userSpaceOnUse" x1="111.7" y1="442.55" x2="111.7" y2="456.65" spreadMethod="pad"><stop offset="0%" stop-color="#A6572D"/><stop offset="100%" stop-color="#E2BA9A"/></linearGradient><linearGradient id="B" gradientUnits="userSpaceOnUse" x1="167.85" y1="431.55" x2="167.85" y2="445.55" spreadMethod="pad"><stop offset="0%" stop-color="#A6572D"/><stop offset="100%" stop-color="#C6814C"/></linearGradient><linearGradient id="C" gradientUnits="userSpaceOnUse" x1="152.1" y1="431.55" x2="152.1" y2="445.55" spreadMethod="pad"><stop offset="0%" stop-color="#A6572D"/><stop offset="100%" stop-color="#D49D74"/></linearGradient><linearGradient id="D" gradientUnits="userSpaceOnUse" x1="136" y1="431.55" x2="136" y2="445.65" spreadMethod="pad"><stop offset="0%" stop-color="#A6572D"/><stop offset="100%" stop-color="#E2BA9A"/></linearGradient><linearGradient id="E" gradientUnits="userSpaceOnUse" x1="119.8" y1="431.55" x2="119.8" y2="445.65" spreadMethod="pad"><stop offset="0%" stop-color="#A6572D"/><stop offset="100%" stop-color="#E2BA9A"/></linearGradient><linearGradient id="F" gradientUnits="userSpaceOnUse" x1="104" y1="431.55" x2="104" y2="445.55" spreadMethod="pad"><stop offset="0%" stop-color="#A6572D"/><stop offset="100%" stop-color="#E2BA9A"/></linearGradient><linearGradient id="G" gradientUnits="userSpaceOnUse" x1="160.15" y1="419.525" x2="160.15" y2="433.175" spreadMethod="pad"><stop offset="0%" stop-color="#A6572D"/><stop offset="100%" stop-color="#C6814C"/></linearGradient><linearGradient id="H" gradientUnits="userSpaceOnUse" x1="144.05" y1="419.525" x2="144.05" y2="433.175" spreadMethod="pad"><stop offset="0%" stop-color="#A6572D"/><stop offset="100%" stop-color="#DDAF8C"/></linearGradient><linearGradient id="I" gradientUnits="userSpaceOnUse" x1="127.9" y1="419.55" x2="127.9" y2="433.65" spreadMethod="pad"><stop offset="0%" stop-color="#A6572D"/><stop offset="100%" stop-color="#E2BA9A"/></linearGradient><linearGradient id="J" gradientUnits="userSpaceOnUse" x1="111.7" y1="419.55" x2="111.7" y2="433.65" spreadMethod="pad"><stop offset="0%" stop-color="#A6572D"/><stop offset="100%" stop-color="#E2BA9A"/></linearGradient><linearGradient id="K" gradientUnits="userSpaceOnUse" x1="167.1" y1="408.55" x2="167.1" y2="422.55" spreadMethod="pad"><stop offset="0%" stop-color="#A6572D"/><stop offset="100%" stop-color="#C6814C"/></linearGradient><linearGradient id="L" gradientUnits="userSpaceOnUse" x1="152.1" y1="408.55" x2="152.1" y2="422.55" spreadMethod="pad"><stop offset="0%" stop-color="#A6572D"/><stop offset="100%" stop-color="#D49D74"/></linearGradient><linearGradient id="M" gradientUnits="userSpaceOnUse" x1="136" y1="408.55" x2="136" y2="422.65" spreadMethod="pad"><stop offset="0%" stop-color="#A6572D"/><stop offset="100%" stop-color="#E2BA9A"/></linearGradient><linearGradient id="N" gradientUnits="userSpaceOnUse" x1="119.8" y1="408.55" x2="119.8" y2="422.65" spreadMethod="pad"><stop offset="0%" stop-color="#A6572D"/><stop offset="100%" stop-color="#E2BA9A"/></linearGradient><linearGradient id="O" gradientUnits="userSpaceOnUse" x1="104.8" y1="408.55" x2="104.8" y2="422.65" spreadMethod="pad"><stop offset="0%" stop-color="#A6572D"/><stop offset="100%" stop-color="#E2BA9A"/></linearGradient><linearGradient id="P" gradientUnits="userSpaceOnUse" x1="159.75" y1="397.525" x2="159.75" y2="411.175" spreadMethod="pad"><stop offset="0%" stop-color="#A6572D"/><stop offset="100%" stop-color="#C6814C"/></linearGradient><linearGradient id="Q" gradientUnits="userSpaceOnUse" x1="144.05" y1="397.525" x2="144.05" y2="411.175" spreadMethod="pad"><stop offset="0%" stop-color="#A6572D"/><stop offset="100%" stop-color="#D49D74"/></linearGradient><linearGradient id="R" gradientUnits="userSpaceOnUse" x1="127.9" y1="397.525" x2="127.9" y2="411.175" spreadMethod="pad"><stop offset="0%" stop-color="#A6572D"/><stop offset="100%" stop-color="#D49D74"/></linearGradient><linearGradient id="S" gradientUnits="userSpaceOnUse" x1="112.1" y1="397.525" x2="112.1" y2="411.175" spreadMethod="pad"><stop offset="0%" stop-color="#A6572D"/><stop offset="100%" stop-color="#D49D74"/></linearGradient><linearGradient id="T" gradientUnits="userSpaceOnUse" x1="151.4" y1="388.512" x2="151.4" y2="399.988" spreadMethod="pad"><stop offset="0%" stop-color="#A6572D"/><stop offset="100%" stop-color="#D49D74"/></linearGradient><linearGradient id="U" gradientUnits="userSpaceOnUse" x1="135.95" y1="387.55" x2="135.95" y2="399.85" spreadMethod="pad"><stop offset="0%" stop-color="#A6572D"/><stop offset="100%" stop-color="#D49D74"/></linearGradient><linearGradient id="V" gradientUnits="userSpaceOnUse" x1="120.55" y1="388.512" x2="120.55" y2="399.988" spreadMethod="pad"><stop offset="0%" stop-color="#A6572D"/><stop offset="100%" stop-color="#D49D74"/></linearGradient><linearGradient id="W" gradientUnits="userSpaceOnUse" x1="93.1" y1="464.9" x2="86.6" y2="458.4" spreadMethod="pad"><stop offset="0%" stop-color="#FFCC2A"/><stop offset="100%" stop-color="#FFFCD6"/></linearGradient><linearGradient id="X" gradientUnits="userSpaceOnUse" x1="110.287" y1="450.5" x2="110.213" y2="446.9" spreadMethod="pad"><stop offset="0%" stop-color="#FFF"/><stop offset="100%" stop-color="#E2BA9A"/></linearGradient><linearGradient id="Y" gradientUnits="userSpaceOnUse" x1="118.237" y1="461.5" x2="118.163" y2="457.9" spreadMethod="pad"><stop offset="0%" stop-color="#FFF"/><stop offset="100%" stop-color="#E2BA9A"/></linearGradient><linearGradient id="Z" gradientUnits="userSpaceOnUse" x1="126.087" y1="450.55" x2="126.013" y2="446.95" spreadMethod="pad"><stop offset="0%" stop-color="#F3E3D9"/><stop offset="100%" stop-color="#E2BA9A"/></linearGradient><linearGradient id="aa" gradientUnits="userSpaceOnUse" x1="118.237" y1="439.5" x2="118.163" y2="435.9" spreadMethod="pad"><stop offset="0%" stop-color="#F3E3D9"/><stop offset="100%" stop-color="#E2BA9A"/></linearGradient><linearGradient id="ab" gradientUnits="userSpaceOnUse" x1="109.887" y1="428.5" x2="109.813" y2="424.9" spreadMethod="pad"><stop offset="0%" stop-color="#F3E3D9"/><stop offset="100%" stop-color="#E2BA9A"/></linearGradient><linearGradient id="ac" gradientUnits="userSpaceOnUse" x1="103.537" y1="459.5" x2="103.463" y2="455.9" spreadMethod="pad"><stop offset="0%" stop-color="#EFD8C6"/><stop offset="100%" stop-color="#DDB190"/></linearGradient><linearGradient id="ad" gradientUnits="userSpaceOnUse" x1="110.387" y1="470.5" x2="110.313" y2="466.9" spreadMethod="pad"><stop offset="0%" stop-color="#EFD8C6"/><stop offset="100%" stop-color="#DDB190"/></linearGradient><linearGradient id="ae" gradientUnits="userSpaceOnUse" x1="118.188" y1="476.55" x2="118.113" y2="472.95" spreadMethod="pad"><stop offset="0%" stop-color="#EFD8C6"/><stop offset="100%" stop-color="#DDB190"/></linearGradient><linearGradient id="af" gradientUnits="userSpaceOnUse" x1="125.987" y1="470.5" x2="125.913" y2="466.9" spreadMethod="pad"><stop offset="0%" stop-color="#EFD8C6"/><stop offset="100%" stop-color="#DDB190"/></linearGradient><linearGradient id="ag" gradientUnits="userSpaceOnUse" x1="105.112" y1="421.225" x2="87.788" y2="418.175" spreadMethod="pad"><stop offset="0%" stop-color="#00C0F3"/><stop offset="100%" stop-color="#0092D5"/></linearGradient><linearGradient id="ah" gradientUnits="userSpaceOnUse" x1="109.112" y1="398.425" x2="91.788" y2="395.375" spreadMethod="pad"><stop offset="0%" stop-color="#00C0F3"/><stop offset="100%" stop-color="#0092D5"/></linearGradient><linearGradient id="ai" gradientUnits="userSpaceOnUse" x1="108.025" y1="404.825" x2="90.675" y2="401.775" spreadMethod="pad"><stop offset="0%" stop-color="#00C0F3"/><stop offset="100%" stop-color="#0092D5"/></linearGradient><linearGradient id="aj" gradientUnits="userSpaceOnUse" x1="128.3" y1="373.213" x2="159.1" y2="345.488" spreadMethod="pad"><stop offset="0%" stop-color="#26AD54"/><stop offset="100%" stop-color="#BBDA8D"/></linearGradient><linearGradient id="ak" gradientUnits="userSpaceOnUse" x1="206.938" y1="402.45" x2="228.063" y2="419.55" spreadMethod="pad"><stop offset="0%" stop-color="#26AD54"/><stop offset="100%" stop-color="#BBDA8D"/></linearGradient><linearGradient id="al" gradientUnits="userSpaceOnUse" x1="175.087" y1="405.8" x2="178.313" y2="436.5" spreadMethod="pad"><stop offset="0%" stop-color="#69BE62"/><stop offset="100%" stop-color="#D0E5B0"/></linearGradient><linearGradient id="am" gradientUnits="userSpaceOnUse" x1="188.65" y1="367.538" x2="188.65" y2="390.563" spreadMethod="pad"><stop offset="0%" stop-color="#69BE62"/><stop offset="100%" stop-color="#D0E5B0"/></linearGradient><linearGradient id="an" gradientUnits="userSpaceOnUse" x1="85.438" y1="376.775" x2="145.363" y2="375.725" spreadMethod="pad"><stop offset="0%" stop-color="#DDAF8C"/><stop offset="100%" stop-color="#FFF"/></linearGradient><linearGradient id="ao" gradientUnits="userSpaceOnUse" x1="92.275" y1="376.912" x2="113.725" y2="392.488" spreadMethod="pad"><stop offset="0%" stop-color="#00B5F1"/><stop offset="69.804%" stop-color="#CDECFC"/><stop offset="100%" stop-color="#83D4F7"/></linearGradient><linearGradient id="ap" gradientUnits="userSpaceOnUse" x1="89.688" y1="403.512" x2="107.412" y2="416.387" spreadMethod="pad"><stop offset="0%" stop-color="#00B5F1"/><stop offset="69.804%" stop-color="#CDECFC"/><stop offset="100%" stop-color="#83D4F7"/></linearGradient><linearGradient id="aq" gradientUnits="userSpaceOnUse" x1="83.138" y1="417.275" x2="108.263" y2="435.525" spreadMethod="pad"><stop offset="0%" stop-color="#00B5F1"/><stop offset="69.804%" stop-color="#CDECFC"/><stop offset="100%" stop-color="#83D4F7"/></linearGradient><linearGradient id="ar" gradientUnits="userSpaceOnUse" x1="224.575" y1="386.3" x2="219.625" y2="380.8" spreadMethod="pad"><stop offset="0%" stop-color="#63CDF6"/><stop offset="100%" stop-color="#E5F5FD"/></linearGradient><linearGradient id="as" gradientUnits="userSpaceOnUse" x1="80.638" y1="404.4" x2="74.263" y2="396.8" spreadMethod="pad"><stop offset="0%" stop-color="#F8A38E"/><stop offset="100%" stop-color="#FEEAE2"/></linearGradient><linearGradient id="at" gradientUnits="userSpaceOnUse" x1="127.05" y1="425.95" x2="120.55" y2="419.45" spreadMethod="pad"><stop offset="0%" stop-color="#FFCC2A"/><stop offset="100%" stop-color="#FFFCD6"/></linearGradient><linearGradient id="au" gradientUnits="userSpaceOnUse" x1="85.637" y1="448.362" x2="82.063" y2="443.938" spreadMethod="pad"><stop offset="0%" stop-color="#81C56D"/><stop offset="100%" stop-color="#E6F1D5"/></linearGradient><linearGradient id="av" gradientUnits="userSpaceOnUse" x1="200.075" y1="431.925" x2="193.425" y2="425.275" spreadMethod="pad"><stop offset="0%" stop-color="#FFCC2A"/><stop offset="100%" stop-color="#FFFCD6"/></linearGradient><linearGradient id="aw" gradientUnits="userSpaceOnUse" x1="187.675" y1="399.375" x2="182.525" y2="393.225" spreadMethod="pad"><stop offset="0%" stop-color="#EF4A47"/><stop offset="100%" stop-color="#F9B4A0"/></linearGradient><linearGradient id="ax" gradientUnits="userSpaceOnUse" x1="173.3" y1="401.7" x2="169.5" y2="397.9" spreadMethod="pad"><stop offset="0%" stop-color="#FFCC2A"/><stop offset="100%" stop-color="#FFFCD6"/></linearGradient><linearGradient id="ay" gradientUnits="userSpaceOnUse" x1="187.138" y1="366.887" x2="181.662" y2="361.412" spreadMethod="pad"><stop offset="0%" stop-color="#FFCC2A"/><stop offset="100%" stop-color="#FFFCD6"/></linearGradient><linearGradient id="az" gradientUnits="userSpaceOnUse" x1="197.587" y1="449.425" x2="194.313" y2="445.375" spreadMethod="pad"><stop offset="0%" stop-color="#81C56D"/><stop offset="100%" stop-color="#E6F1D5"/></linearGradient><linearGradient id="aA" gradientUnits="userSpaceOnUse" x1="130.262" y1="407.688" x2="127.137" y2="403.813" spreadMethod="pad"><stop offset="0%" stop-color="#81C56D"/><stop offset="100%" stop-color="#E6F1D5"/></linearGradient><path fill="#FFF" fill-opacity="0" d="M284 0H0v320h284V0z" id="aB"/><path fill="url(#a)" d="M187.8 443.3q-.4.5-2.2 2.15-1.6 1.45-1.65 1.7-2.9-.55-6.3.05-3.35.55-6.45 2.15-3.45 1.75-5.6 4.4-2.35 2.9-2.7 6.3-.1 1.75.75 3.2.9 1.3 2.35 2.05 2.5.2 5.2-.65 4.85-1.55 9.35-6.75.4-.45 5.4-7.35 4.1 1.7 5.75 4.35 1.8 2.9 1 7.7-.45.7-1.5 5.6-1 4.5-2 5.25-13.7 9.8-14.55 10.8-.85 1 12.15-8.35 3.75-2.75 5.9-6.25 2.55-3.85 2.75-8.1V460q-.25-3.6-2.1-6.8 0 .1-.15-.2-.85-1.5-2.45-2.7-.5-.45-2.7-1.85.3-2 0-4.45l-.25-.7m-6.1 10.65q-1 2.75-2.15 3.65-1.65 1.4-4 2.65-2.45 1.25-4.35 1.75-1.75.5-2.55 0-2-1.05-1.3-3.25.6-2 3.35-4.6l.5-.5q4.95-4.4 12-3.9-.15.3-1.5 4.2z" id="aC"/><path fill="url(#b)" d="M188.05 442.8q-.05-.4-.9-.6l.65 1.1.25-.5z" id="aD"/><path fill="url(#c)" d="M167.6 443.65q1.55-.4 3.6-1.45 4.25-2.3 8.75-7.4 5.05 1.95 5.3 6.25 0 .55.65.8.1.05 1.25.35l-.2-.45q-.3-1.05-.05-1.85l.25-.6q-1.75-4-5.25-5.8.55-.9.45-2.3-.25-1.55-.3-2.35l-1.5 5.1q-.35 1-.75-.45-.45-1.65-1.1-.65-3.9-.75-7.5.05-4.35.95-7.65 3.75-2.3 1.9-2.45 3.6v.25q0 .1.15.55.45.3 1.3.8.75.45 1.15.95.9.85 1.5 1.05.8.2 2.4-.2m-2.1-1.9q1.9-3.35 5.7-5.15 2.45-1.25 5.6-1.3 1.55-.05-.55 1.75-1.85 1.6-5.05 3.45-3.1 1.75-4.55 1.9-1.45.3-1.55.3-.5-.05.4-.95z" id="aE"/><path fill="url(#d)" d="M183.05 425.55v-.2q-.2.75-.8 2.25-.2.55-.2 1.25 1-3 1-3.3z" id="aF"/><path fill="url(#e)" d="M168.15 404.4q5.05 1.05 7.9 5.6 2.55 4.15 2.65 10.05.15 5.75-2.05 10.75-2.3 5.35-6.35 7.75-3.1 1.8-4.95 2.4-2.95 1-4.25-.2 1.6 3.55 4.1 4.2 2.4.7 5.85-.75 3.05-1.3 6.25-3.95 6.8-5.7 8.75-15.2 2-9.6-2.4-16.45-5.05-8.1-15.5-4.2z" id="aG"/><path fill="url(#f)" d="M184.7 457.05q3-4.25 3.5-10.3.6-7.1-3.55-11.1 1.05 4.75-.25 10-1.25 5.2-4.35 9.1-1.9 2.35-6.5 5.1-2.65 1.5-5.75 2.2-3.6.75-4.95-.4.6 1.55 1.6 2.8 1.15 1.5 2.4 1.85 4.25 1.15 9.5-1.7 4.95-2.7 8.35-7.55z" id="aH"/><path fill="url(#g)" d="M195.3 458.35q-.6-4.35-3.3-6.95 2.5 6.3-.25 13.05-2.45 6.05-8.4 10.75-5.75 4.6-12.25 5.95-6.9 1.45-11.85-1.45l-10.45-1.3 6.9 6.5q4.05 2.9 10.1 2.9 5.8.05 11.8-2.5 13.7-5.9 17-18.25 1.25-4.7.7-8.7z" id="aI"/><path fill="url(#h)" d="M175.1 440.65q2.55-22.55-6.3-37.25-10.2-16.9-32.8-16.9-22.6 0-32.85 16.9-8.85 14.7-6.3 37.25 2.45 21.3 13.25 37.2 11.55 16.9 25.9 16.9 14.3 0 25.8-16.9 10.85-15.9 13.3-37.2z" id="aJ"/><path fill="url(#i)" d="M136 493.75q.35 0 1.35-.5 0-1.25 1.8-2.8 3.5-3.1 4.9-11.6-3.75-1.9-8.05-1.8-4.4-.1-8.1 1.8 1.3 8.45 4.85 11.6 1.85 1.55 1.85 2.8 1.05.5 1.4.5z" id="aK"/><path fill="url(#j)" d="M126.55 490.45q1 .5 1.35.5.3 0 1.4-.5-.1-1.2 1.8-2.8 3.5-3.1 4.9-11.55-3.7-1.85-8.1-1.85-4.45 0-8.1 1.85 1.4 8.45 4.9 11.55 1.85 1.55 1.85 2.8z" id="aL"/><path fill="url(#k)" d="M144.05 490.95q.35 0 1.35-.5 0-1.25 1.8-2.8 3.7-3.2 4.9-11.55-3.7-1.85-8.05-1.85-4.5 0-8.05 1.85 1.2 8.35 4.85 11.55 1.85 1.65 1.85 2.8 1 .5 1.35.5z" id="aM"/><path fill="url(#l)" d="M118.4 484.4q1.1.5 1.4.5.35 0 1.35-.5 0-1.2 1.85-2.75 3.55-3.2 4.9-11.6-3.75-1.9-8.1-1.8-4.35-.1-8.1 1.8 1.35 8.4 4.9 11.6 1.9 1.65 1.8 2.75z" id="aN"/><path fill="url(#m)" d="M103.95 465.7q3.35 7.45 7.5 13.15.45.1 1.65-.45 0-1.15 1.85-2.8 3.6-3.1 4.85-11.6-3.85-1.85-8.1-1.8-4.15-.05-8.05 1.8.05.6.3 1.7z" id="aO"/><path fill="url(#n)" d="M136 486.5q.35 0 1.35-.5 0-1.2 1.8-2.75 3.5-3.15 4.9-11.6-3.7-1.85-8.05-1.85-4.45 0-8.1 1.85 1.25 8.35 4.85 11.6 1.85 1.55 1.85 2.75 1.05.5 1.4.5z" id="aP"/><path fill="url(#o)" d="M150.75 484.4q1 .5 1.35.5.35 0 1.4-.5 0-1.25 1.75-2.75 3.75-3.3 4.9-11.6-3.7-1.9-8.05-1.8-4.45-.1-8.05 1.8 1.15 8.3 4.9 11.6 1.8 1.7 1.8 2.75z" id="aQ"/><path fill="url(#p)" d="M167.95 465.7l.3-1.7q-3.9-1.85-8.1-1.8-4.15-.05-8.05 1.8 1.3 8.5 4.9 11.6 1.8 1.7 1.8 2.8 1.2.55 1.65.45 4.25-5.7 7.5-13.15z" id="aR"/><path fill="url(#q)" d="M127.9 478.9q.3 0 1.4-.5-.1-1.1 1.8-2.8 3.5-3.05 4.9-11.6-3.9-1.85-8.1-1.8-4.25-.05-8.1 1.8 1.4 8.55 4.9 11.6 1.85 1.65 1.85 2.8 1 .5 1.35.5z" id="aS"/><path fill="url(#r)" d="M142.7 478.4q1 .5 1.35.5.35 0 1.35-.5 0-1.2 1.8-2.8 3.75-3.15 4.9-11.6-3.9-1.85-8.05-1.8-4.3-.1-8.05 1.8 1.15 8.45 4.85 11.6 1.85 1.75 1.85 2.8z" id="aT"/><path fill="url(#s)" d="M99.2 452.95q2.5 9.6 5.45 15.8l.35-.1q0-1.15 1.9-2.85 3.65-3.15 4.8-11.55-3.75-1.95-8.05-1.8-2.55 0-4.45.5z" id="aU"/><path fill="url(#t)" d="M119.8 469.15q.35 0 1.35-.5 0-1.2 1.85-2.85 3.5-3.05 4.9-11.55-3.9-1.95-8.1-1.8-4.2-.15-8.1 1.8 1.4 8.5 4.9 11.55.95.85 1.3 1.35.55.75.5 1.5 1.1.5 1.4.5z" id="aV"/><path fill="url(#u)" d="M134.6 468.65q1.05.5 1.4.5.35 0 1.35-.5 0-1.25 1.8-2.85 3.5-3.05 4.9-11.55-3.9-1.95-8.05-1.8-4.25-.15-8.1 1.8 1.3 8.45 4.85 11.55 1.85 1.65 1.85 2.85z" id="aW"/><path fill="url(#v)" d="M160.15 454.25q-3.85-1.95-8.05-1.8-4.3-.15-8.05 1.8 1.15 8.4 4.9 11.55.95.95 1.25 1.35.55.75.55 1.5 1 .5 1.35.5.35 0 1.4-.5 0-1.25 1.75-2.85 3.75-3.15 4.9-11.55z" id="aX"/><path fill="url(#w)" d="M166.85 468.65l.45.1q3.5-7.4 5.55-15.8-1.85-.5-4.6-.5-4.2-.15-8.1 1.8 1.3 8.45 4.9 11.55 1.8 1.7 1.8 2.85z" id="aY"/><path fill="url(#x)" d="M163.35 454.45q3.6-3.15 4.9-11.5-3.8-1.9-8.1-1.9-4.25 0-8.05 1.9 1.3 8.35 4.9 11.5 1.8 1.6 1.8 2.8 1 .5 1.35.5.35 0 1.4-.5 0-1.2 1.8-2.8z" id="aZ"/><path fill="url(#y)" d="M144.05 441.05q-4.4 0-8.05 1.9 1.2 8.3 4.85 11.5 1.85 1.65 1.85 2.8 1 .5 1.35.5.35 0 1.35-.5 0-1.25 1.8-2.8 3.7-3.2 4.9-11.5-3.8-1.9-8.05-1.9z" id="ba"/><path fill="url(#z)" d="M136 442.95q-3.8-1.9-8.1-1.9-4.35 0-8.1 1.9 1.4 8.4 4.9 11.5 1.85 1.55 1.85 2.8 1 .5 1.35.5.3 0 1.4-.5-.1-1.2 1.8-2.8 3.5-3.1 4.9-11.5z" id="bb"/><path fill="url(#A)" d="M111.7 441.05q-4.25 0-8.05 1.9 1.4 8.4 4.9 11.5 1.8 1.55 1.8 2.8 1 .5 1.35.5.35 0 1.4-.5 0-1.25 1.85-2.8 3.55-3.15 4.85-11.5-3.75-1.9-8.1-1.9z" id="bc"/><path fill="url(#B)" d="M175.6 431.2q-3.6-1.5-7.35-1.45-4.35-.1-8.1 1.8 1.25 8.4 4.9 11.6 1.8 1.6 1.8 2.75 1.05.45 1.4.45.35 0 1.35-.45 0-1.15 1.8-2.75 2.85-2.5 4.1-7.55.1-1.55.1-4.4z" id="bd"/><path fill="url(#C)" d="M155.25 443.15q3.75-3.25 4.9-11.6-3.7-1.9-8.05-1.8-4.45-.1-8.05 1.8 1.15 8.35 4.9 11.6 1.8 1.7 1.8 2.75 1 .45 1.35.45.35 0 1.4-.45 0-1.25 1.75-2.75z" id="be"/><path fill="url(#D)" d="M127.9 431.55q1.25 8.35 4.85 11.6 1.85 1.55 1.85 2.75 1.05.45 1.4.45.35 0 1.35-.45 0-1.2 1.8-2.75 3.5-3.15 4.9-11.6-3.75-1.9-8.05-1.8-4.4-.1-8.1 1.8z" id="bf"/><path fill="url(#E)" d="M123 443.15q3.5-3.15 4.9-11.6-3.75-1.9-8.1-1.8-4.35-.1-8.1 1.8 1.4 8.45 4.9 11.6 1.9 1.6 1.8 2.75 1.1.45 1.4.45.35 0 1.35-.45 0-1.2 1.85-2.75z" id="bg"/><path fill="url(#F)" d="M96.4 435.6q1.35 5.05 4.1 7.55 1.8 1.55 1.8 2.75 1 .45 1.35.45.35 0 1.35-.45 0-1.15 1.9-2.75 3.65-3.3 4.8-11.6-3.6-1.9-8.05-1.8-3.7-.05-7.35 1.45 0 2.85.1 4.4z" id="bh"/><path fill="url(#G)" d="M163.35 431.75q3.6-3.1 4.9-11.5-3.9-1.95-8.1-1.8-4.15-.15-8.05 1.8 1.3 8.4 4.9 11.5 1.8 1.7 1.8 2.8 1 .5 1.35.5.35 0 1.4-.5 0-1.1 1.8-2.8z" id="bi"/><path fill="url(#H)" d="M144.05 435.05q.35 0 1.35-.5 0-1.2 1.8-2.8 3.7-3.15 4.9-11.5-3.9-1.95-8.05-1.8-4.3-.15-8.05 1.8 1.2 8.35 4.85 11.5 1.85 1.75 1.85 2.8 1 .5 1.35.5z" id="bj"/><path fill="url(#I)" d="M126.55 434.55q1 .5 1.35.5.3 0 1.4-.5-.1-1.1 1.8-2.8 3.5-3.05 4.9-11.5-3.9-1.95-8.1-1.8-4.25-.15-8.1 1.8 1.4 8.45 4.9 11.5 1.85 1.65 1.85 2.8z" id="bk"/><path fill="url(#J)" d="M111.7 435.05q.35 0 1.4-.5 0-1.15 1.85-2.8 3.55-3.1 4.85-11.5-3.85-1.95-8.1-1.8-4.15-.15-8.05 1.8 1.4 8.45 4.9 11.5 1.8 1.6 1.8 2.8 1 .5 1.35.5z" id="bl"/><path fill="url(#K)" d="M166.85 423.2q1.05.5 1.4.5.35 0 1.35-.5 0-1.15 1.8-2.75 1.55-1.35 2.6-3.45-1.2-5.15-3.25-9.8-1.65-.15-2.5-.15-4.3 0-8.1 1.9 1.3 8.4 4.9 11.5 1.8 1.6 1.8 2.75z" id="bm"/><path fill="url(#L)" d="M160.15 408.95q-3.75-1.9-8.05-1.9-4.4 0-8.05 1.9 1.2 8.35 4.9 11.5.95.9 1.25 1.3.55.7.55 1.45 1 .5 1.35.5.35 0 1.4-.5 0-1.25 1.75-2.75 3.7-3.15 4.9-11.5z" id="bn"/><path fill="url(#M)" d="M134.6 423.2q1.05.5 1.4.5.35 0 1.35-.5 0-1.2 1.8-2.75 3.5-3.05 4.9-11.5-3.8-1.9-8.05-1.9-4.35 0-8.1 1.9 1.3 8.4 4.85 11.5 1.85 1.55 1.85 2.75z" id="bo"/><path fill="url(#N)" d="M123 420.45q3.5-3.05 4.9-11.5-3.8-1.9-8.1-1.9t-8.1 1.9q1.4 8.45 4.9 11.5.95.8 1.3 1.3.55.7.5 1.45 1.1.5 1.4.5.35 0 1.35-.5 0-1.2 1.85-2.75z" id="bp"/><path fill="url(#O)" d="M106.9 420.45q3.6-3.15 4.8-11.5-3.65-1.9-8.05-1.9-.05 0-2.45.15-2 4.2-3.3 9.8 1.05 2.1 2.6 3.45 1.8 1.55 1.8 2.75 1 .5 1.35.5.35 0 1.35-.5 0-1.15 1.9-2.75z" id="bq"/><path fill="url(#P)" d="M162.6 395.85q-1.3-.15-2.45-.1-4.3-.05-8.05 1.8 1.25 8.4 4.9 11.6 1.8 1.6 1.8 2.75 1 .5 1.35.5.35 0 1.4-.5 0-1.15 1.8-2.75 2.75-2.35 4.1-7.7-1.9-2.8-4.85-5.6z" id="br"/><path fill="url(#Q)" d="M144.05 412.4q.35 0 1.35-.5 0-1.2 1.8-2.75 3.75-3.25 4.9-11.6-3.75-1.9-8.05-1.8-4.45-.1-8.05 1.8 1.15 8.3 4.85 11.6 1.85 1.65 1.85 2.75 1 .5 1.35.5z" id="bs"/><path fill="url(#R)" d="M126.55 411.9q1 .5 1.35.5.3 0 1.4-.5-.1-1.1 1.8-2.75 3.5-3.15 4.9-11.6-3.75-1.9-8.1-1.8-4.4-.1-8.1 1.8 1.4 8.45 4.9 11.6 1.85 1.55 1.85 2.75z" id="bt"/><path fill="url(#S)" d="M111.7 395.75q-1.05-.05-2.35.1-2.4 2.15-4.9 5.6 1.25 5.25 4.1 7.7 1.8 1.55 1.8 2.75 1 .5 1.35.5.35 0 1.4-.5 0-1.2 1.85-2.75 3.6-3.25 4.85-11.6-3.7-1.9-8.1-1.8z" id="bu"/><path fill="url(#T)" d="M158.6 392.95q-6.2-4.2-14.4-5.6 1.35 7.75 4.75 10.7.95.95 1.25 1.35.55.75.55 1.5 1 .45 1.35.45.35 0 1.4-.45 0-1.25 1.75-2.85 2.1-1.8 3.35-5.1z" id="bv"/><path fill="url(#U)" d="M143.9 387.25q-3.95-.55-7.9-.55-4.05 0-8 .55 1.3 7.8 4.75 10.8 1.85 1.65 1.85 2.85 1.05.45 1.4.45.35 0 1.35-.45 0-1.25 1.8-2.85 3.45-3 4.75-10.8z" id="bw"/><path fill="url(#V)" d="M127.75 387.35q-8.25 1.4-14.45 5.6 1.4 3.4 3.3 5.1.95.85 1.3 1.35.55.75.5 1.5 1.1.45 1.4.45.35 0 1.35-.45 0-1.2 1.85-2.85 3.45-3 4.75-10.7z" id="bx"/><path fill="#9C4C2B" d="M140.85 372.2H131l.45.6q2.6 2.15 2.85 7.3.35 5.8-5.25 5.8-6.15 0-9.2 3.8 5-1.15 8.3-1 5.35.15 7.85 3.3 1.35-2.5 7.15-2.9 4.7-.35 8.9.6-2.9-3.8-9.25-3.8-5.55 0-5.2-5.8.25-5.2 2.85-7.3.65-.6.4-.6z" id="by"/><path fill="url(#W)" d="M89.9 457.3q-1.8 0-3.1 1.3-1.3 1.25-1.3 3.05 0 1.85 1.3 3.1 1.3 1.3 3.1 1.3 1.75 0 3.05-1.3 1.25-1.25 1.25-3.1 0-1.8-1.25-3.05-1.3-1.3-3.05-1.3z" id="bz"/><path fill="url(#X)" d="M111.65 449.1q0-.85-.4-1.45-.4-.55-1-.55-.55 0-.95.55-.4.6-.4 1.45 0 .8.4 1.45.4.6.95.6.6 0 1-.6t.4-1.45z" id="bA"/><path fill="url(#Y)" d="M119.55 460.2q0-.8-.4-1.4-.4-.6-.95-.6-.6 0-.95.6-.4.55-.4 1.4 0 .85.4 1.45.35.55.95.55.55 0 .95-.55.4-.6.4-1.45z" id="bB"/><path fill="url(#Z)" d="M127.4 448.6q0-.8-.35-1.4-.4-.6-1-.6-.55 0-.95.6-.4.6-.4 1.4 0 .85.4 1.45t.95.6q.6 0 1-.6.35-.55.35-1.45z" id="bC"/><path fill="url(#aa)" d="M119.55 437.5q0-.85-.4-1.45-.4-.55-.95-.55-.6 0-.95.55-.4.6-.4 1.45t.4 1.45q.35.6.95.6.55 0 .95-.6.4-.65.4-1.45z" id="bD"/><path fill="url(#ab)" d="M111.2 426.45q0-.85-.4-1.5-.4-.6-.95-.6-.6 0-.95.6-.4.6-.4 1.5 0 .8.4 1.4.35.6.95.6.55 0 .95-.6.4-.6.4-1.4z" id="bE"/><path fill="url(#ac)" d="M104.85 458.2q0-.85-.35-1.45-.4-.6-1-.6-.55 0-.95.6-.4.65-.4 1.45 0 .85.4 1.45.4.55.95.55.6 0 1-.55.35-.6.35-1.45z" id="bF"/><path fill="url(#ad)" d="M111.7 469.2q0-.85-.35-1.4-.4-.6-1-.6-.55 0-.95.6-.4.6-.4 1.4 0 .85.4 1.45.4.55.95.55.6 0 1-.55.35-.6.35-1.45z" id="bG"/><path fill="url(#ae)" d="M119.55 475.1q0-.8-.4-1.4-.45-.6-1.05-.6-.5 0-.95.6-.4.6-.4 1.4 0 .85.4 1.45.4.55.95.55.6 0 1.05-.55.4-.6.4-1.45z" id="bH"/><path fill="url(#af)" d="M127.35 468.75q0-.8-.4-1.4-.45-.6-1-.6t-.95.6q-.4.6-.4 1.4 0 .9.4 1.5t.95.6q.55 0 1-.6.4-.6.4-1.5z" id="bI"/><path fill="url(#ag)" d="M108.5 411q-1.8-2.25-4.8-3.8-2.6-1.3-5.45-1.8-2.95-.5-5.35 0 0-.25-1.4-1.45-1.55-1.4-1.9-1.85-.2.4-.2.6-.2 2.25.05 3.8-1.8 1.15-2.35 1.6-1.35 1.05-2.1 2.3l-.15.2q-1.6 2.85-1.7 5.75v1.25q.05 3.55 2.3 6.8 1.95 3.1 5.05 5.4 11 7.9 10.3 7.05-.75-.85-12.35-9.2-.9-.65-1.7-4.4-.95-4.15-1.3-4.75-.7-4.05.85-6.55 1.4-2.2 4.9-3.65 4.05 5.65 4.6 6.3 3.8 4.4 7.9 5.7 2.2.7 4.5.5 1.3-.6 2-1.8.7-1.05.6-2.65-.3-2.9-2.3-5.35m-1.5 4.25q.6 1.9-1.1 2.75-.6.4-2.2 0t-3.65-1.5q-2.05-1.1-3.4-2.25-.95-.8-1.8-3.15-1.2-3.25-1.35-3.55 6.1-.3 10.2 3.4l.45.35q2.3 2.15 2.85 3.95z" id="bJ"/><path fill="url(#ah)" d="M94.25 391.75q-.15 1.2.35 2-2.9 1.55-4.5 4.95l.25.5q.2.7 0 1.6l-.15.35q.85-.2 1-.25.55-.25.55-.65.25-3.65 4.55-5.4 3.95 4.45 7.4 6.3 1.5.85 3.1 1.25 1.4.35 2.05.15.55-.15 1.3-.9.4-.4 1-.75.9-.55 1.05-.65.1-.4.15-.5v-.25q-.05-1.25-2.1-3.1-2.9-2.4-6.55-3.15-3-.65-6.3-.1-.6-.85-1 .6-.3 1.25-.6.45-.25-.5-1.35-4.5 0 .05-.2 2.05m14.65 9.8q-.8-.1-1.3-.15-1.3-.2-3.9-1.65-2.65-1.55-4.25-2.95-1.8-1.5-.5-1.45 2.9.1 4.75 1.05 3.25 1.45 4.85 4.4.75.75.35.75z" id="bK"/><path fill="url(#ai)" d="M90.2 401.15q-.75.2-.8.5-.05.1.2.45.05-.15.6-.95z" id="bL"/><path fill="url(#aj)" d="M161.6 345.8q-1.3-1.5-3.95-1.9l-4.1 3.9 2.3-3.95q-1.1 0-1.95.2l-5.4 7.45 2.4-6.85-2.25.7-5.05 9.75 1.6-8.3q-7.7 4-12.5 9.35-6.3 7.1-5.95 15.05 5.2 3.5 11.45 1.8 4.15-1.1 10.15-5.25 3.9-2.65 5.45-4.2 1.5-1.7 2.55-2.9l-8.85-.75 11.25-2.15 1.3-1.8-7.6.45 8.95-3.05.7-1.8-4.6 1.1 5-2.75q.4-2.5-.9-4.1z" id="bM"/><path fill="#CD905F" d="M128.25 371.8l.4 4.15q9.3-12.15 24.1-22.1-7.8 4-13.15 7.75-6.65 4.7-11.35 10.2z" id="bN"/><path fill="url(#ak)" d="M195.25 382.05q-13.5-5.55-18.15-.05-4.45 5.3 5.45 15.2 5.4 5.4 16.7 13.95 5.15 4.3 7.1 5.55 1.3.8 3.8 1.95l-1.75-10.3 5.75 12.35q1.4.65 2.6 1l-2.65-8.45 6.2 9.45q1.05.25 2.3.35l-2.6-4.9 4.7 4.95q3.1-.05 4.65-1.85 1.55-1.85 1.15-4.9l-5.8-3.8 5.4 1.7-.8-2.2-10.45-4.5 8.8 1.25-1.45-2.4-13.2-3.6 10.45-.05q-1.55-2.25-2.55-3.35-1.55-1.7-6.75-6.1-8.25-6.9-18.9-11.25z" id="bO"/><path fill="url(#al)" d="M180.15 387.75q-7.05-7.2-16.5-8.75-4.1 6.45-2.45 21.85 1.1 10.55 3.95 20.05l6.55-9.6-4.75 14.4q.55 1.45 1.3 2.95l4.4-8.9-2.35 12.5q1.65 2.2 1.7 2.25l1.65-6.1v7.85q2.85 2.35 5.4 2.15 2.55-.2 4.75-3.1l-1.8-7.65 3 5.7q.4-.6 1.15-2.45L181 419l6.3 8q.4-1.35.65-3.15l-8.05-13.25 8.7 8.3q.45-3.1.45-4.8.05-2.6-.85-10.25-1.05-9-8.05-16.1z" id="bP"/><path fill="url(#am)" d="M199.5 355.65l-10.4 10.4 5.35-9.95q-11.4 2.05-19.7 6.95-10.9 6.5-13.65 16.8 1.9 2.4 6.75 4 1.65.5 7.3 1.75 4.2.95 7.6.45 1.85-.25 7.3-1.95 6.1-1.85 8.7-3.2 2.6-1.55 4.5-2.7l-11.1-4.45 15.2 1.8q1.25-.9 2.35-1.9l-9.8-2.45 12.7-.2q1.45-1.85 1.55-2l-6.25-.45 7.4-1.5q1.45-3.15.55-5.65-.95-2.4-4.25-3.95l-6.8 3.25 4.45-4.05-2.55-.55-9.9 7.25 5.8-7.7h-3.1z" id="bQ"/><path fill="#CD905F" d="M77.15 375.1l1.1 10.1q4.85-1.3 13.2-3.2 9.15-2.05 13-2.65 31.8-4.85 61.15 4.2 23.15 7.1 48.5 24.45-26.3-22.1-50.3-31.55-29.3-11.5-61.15-6.95-3.65.55-12.6 2.55-8.1 1.8-12.9 3.05z" id="bR"/><path fill="url(#an)" d="M76 377.75l2.45 3.85q10.7-5.85 33.5-7.9 24.6-2.25 38.65 3-9.45-5.1-29.2-5.15-21.6-.1-45.4 6.2z" id="bS"/><path fill="#CD905F" d="M176.45 383.95l-4.25-2.5q5.25 17.1 4.6 38 1.5-9.9 1.55-17.75.1-9.5-1.9-17.75z" id="bT"/><path fill="#CD905F" d="M169.6 378.85l-1 4.95q15.2-10.75 35.9-16.85-10.4 1.8-18 4.25-9.45 3-16.9 7.65z" id="bU"/><path fill="#AB5C2D" d="M77 375.05q-1.15.15-1.85 1.7-.65 1.6-.45 3.7.25 2.05 1.3 3.4t2.25 1.2q1.15-.1 1.85-1.7.7-1.6.45-3.65-.25-2.1-1.3-3.45-1.05-1.4-2.25-1.2z" id="bV"/><path fill="url(#ao)" d="M106.3 369q-8.75-3.4-13.15 3.5-3.75 5.8-2 14.05 1.65 8.15 7.4 12.95 2.6 2.25 5.3 3.4 2.9 1.15 5 .65 2.2-.65 3.45-3.6-1.15 1.05-4 .4-2.45-.6-4.6-1.9-2.5-1.5-4.75-4.35-2.1-2.9-3.15-6.5-1.05-3.6-.85-6.95.3-4.4 3.15-7.5 3-3.3 8.2-4.15z" id="bW"/><path fill="url(#ap)" d="M89.25 405.05q.4 5.1 2.95 8.7 2.9 4.15 7.15 6.4 4.45 2.4 8.05 1.45 1.95-.4 3.45-3.85-1.15.95-4.2.3-2.7-.6-4.95-1.9-3.85-2.3-5.45-4.35-2.65-3.25-3.75-7.7-1.15-4.5-.25-8.55-3.5 3.45-3 9.5z" id="bX"/><path fill="url(#aq)" d="M86 409q-2.25 2.2-2.75 5.9-.5 3.4.55 7.3 2.9 10.55 14.5 15.55 11.3 4.9 18.6-.35l-4.55-1.25 1.5-3.1q-4.2 2.45-10.05 1.2-5.5-1.15-10.4-5.05-5.05-4-7.15-9.15-2.35-5.7-.25-11.05z" id="bY"/><path fill="url(#ar)" d="M221.85 378.9q-1.8 0-3.05 1.3-1.3 1.25-1.3 3.1t1.3 3.15q1.25 1.3 3.05 1.3 1.85 0 3.15-1.3 1.35-1.3 1.35-3.15 0-1.85-1.35-3.1-1.3-1.3-3.15-1.3z" id="bZ"/><path fill="url(#as)" d="M81.25 404.6q1.15-1.2 1.15-2.85 0-1.7-1.15-2.85-1.2-1.2-2.85-1.2-1.7 0-2.85 1.2-1.2 1.15-1.2 2.85 0 1.65 1.2 2.85 1.15 1.15 2.85 1.15 1.65 0 2.85-1.15z" id="ca"/><path fill="url(#at)" d="M123.95 427.15q1.8 0 3.05-1.25 1.25-1.3 1.25-3.05 0-1.75-1.25-3t-3.05-1.25q-1.75 0-3.05 1.25-1.25 1.25-1.25 3t1.25 3.05q1.3 1.25 3.05 1.25z" id="cb"/><path fill="url(#au)" d="M83.7 442.95q-1.3 0-2.2.9-.9.9-.9 2.15 0 1.3.9 2.2.9.9 2.2.9 1.3 0 2.2-.9.9-.9.9-2.2 0-1.3-.9-2.15-.9-.9-2.2-.9z" id="cc"/><path fill="url(#av)" d="M197.05 424.5q-1.85 0-3.1 1.3-1.3 1.25-1.3 3.1t1.3 3.15q1.25 1.3 3.1 1.3t3.15-1.3q1.3-1.3 1.3-3.15 0-1.85-1.3-3.1-1.3-1.3-3.15-1.3z" id="cd"/><path fill="url(#aw)" d="M186.1 394.2q-1.35 0-2.3 1-.95.95-.95 2.3 0 1.3.95 2.25.95 1 2.3 1 1.35 0 2.3-1 .95-.95.95-2.25 0-1.35-.95-2.3-.95-1-2.3-1z" id="ce"/><path fill="url(#ax)" d="M171.55 397.4q-1.05 0-1.8.75-.7.75-.7 1.8 0 1.1.7 1.85t1.8.75q1 0 1.75-.75t.75-1.85q0-1.05-.75-1.8t-1.75-.75z" id="cf"/><path fill="url(#ay)" d="M185.15 361.2q-1.5 0-2.55 1.1-1.1 1.05-1.1 2.6 0 1.5 1.1 2.6 1.05 1.05 2.55 1.05 1.5 0 2.55-1.05 1.05-1.1 1.05-2.6 0-1.55-1.05-2.6-1.05-1.1-2.55-1.1z" id="cg"/><path fill="url(#az)" d="M196.05 444.6q-1.2 0-2.05.85-.85.8-.85 1.95t.85 2q.85.85 2.05.85 1.15 0 1.95-.85.85-.85.85-2 0-1.1-.85-1.95-.8-.85-1.95-.85z" id="ch"/><path fill="url(#aA)" d="M128.9 403.3q-1.05 0-1.85.8-.8.85-.8 1.95t.8 1.9q.8.8 1.85.8 1.15 0 1.95-.8t.8-1.9q0-1.15-.8-1.95t-1.95-.8z" id="ci"/></defs><use xlink:href="#aB"/><use xlink:href="#aC" transform="matrix(1.8176 0 0 1.81757 -135.088 -592.07)"/><use xlink:href="#aD" transform="matrix(1.8176 0 0 1.81757 -135.088 -592.07)"/><use xlink:href="#aE" transform="matrix(1.8176 0 0 1.81757 -135.088 -592.07)"/><use xlink:href="#aF" transform="matrix(1.8176 0 0 1.81757 -135.088 -592.07)"/><use xlink:href="#aG" transform="matrix(1.8176 0 0 1.81757 -135.088 -592.07)"/><use xlink:href="#aH" transform="matrix(1.8176 0 0 1.81757 -135.088 -592.07)"/><use xlink:href="#aI" transform="matrix(1.8176 0 0 1.81757 -135.088 -592.07)"/><use xlink:href="#aJ" transform="matrix(1.8176 0 0 1.81757 -135.088 -592.07)"/><use xlink:href="#aK" transform="matrix(1.8176 0 0 1.81757 -135.088 -592.07)"/><use xlink:href="#aL" transform="matrix(1.8176 0 0 1.81757 -135.088 -592.07)"/><use xlink:href="#aM" transform="matrix(1.8176 0 0 1.81757 -135.088 -592.07)"/><use xlink:href="#aN" transform="matrix(1.8176 0 0 1.81757 -135.088 -592.07)"/><use xlink:href="#aO" transform="matrix(1.8176 0 0 1.81757 -135.088 -592.07)"/><use xlink:href="#aP" transform="matrix(1.8176 0 0 1.81757 -135.088 -592.07)"/><use xlink:href="#aQ" transform="matrix(1.8176 0 0 1.81757 -135.088 -592.07)"/><use xlink:href="#aR" transform="matrix(1.8176 0 0 1.81757 -135.088 -592.07)"/><use xlink:href="#aS" transform="matrix(1.8176 0 0 1.81757 -135.088 -592.07)"/><use xlink:href="#aT" transform="matrix(1.8176 0 0 1.81757 -135.088 -592.07)"/><use xlink:href="#aU" transform="matrix(1.8176 0 0 1.81757 -135.088 -592.07)"/><use xlink:href="#aV" transform="matrix(1.8176 0 0 1.81757 -135.088 -592.07)"/><use xlink:href="#aW" transform="matrix(1.8176 0 0 1.81757 -135.088 -592.07)"/><use xlink:href="#aX" transform="matrix(1.8176 0 0 1.81757 -135.088 -592.07)"/><use xlink:href="#aY" transform="matrix(1.8176 0 0 1.81757 -135.088 -592.07)"/><use xlink:href="#aZ" transform="matrix(1.8176 0 0 1.81757 -135.088 -592.07)"/><use xlink:href="#ba" transform="matrix(1.8176 0 0 1.81757 -135.088 -592.07)"/><use xlink:href="#bb" transform="matrix(1.8176 0 0 1.81757 -135.088 -592.07)"/><use xlink:href="#bc" transform="matrix(1.8176 0 0 1.81757 -135.088 -592.07)"/><use xlink:href="#bd" transform="matrix(1.8176 0 0 1.81757 -135.088 -592.07)"/><use xlink:href="#be" transform="matrix(1.8176 0 0 1.81757 -135.088 -592.07)"/><use xlink:href="#bf" transform="matrix(1.8176 0 0 1.81757 -135.088 -592.07)"/><use xlink:href="#bg" transform="matrix(1.8176 0 0 1.81757 -135.088 -592.07)"/><use xlink:href="#bh" transform="matrix(1.8176 0 0 1.81757 -135.088 -592.07)"/><use xlink:href="#bi" transform="matrix(1.8176 0 0 1.81757 -135.088 -592.07)"/><use xlink:href="#bj" transform="matrix(1.8176 0 0 1.81757 -135.088 -592.07)"/><use xlink:href="#bk" transform="matrix(1.8176 0 0 1.81757 -135.088 -592.07)"/><use xlink:href="#bl" transform="matrix(1.8176 0 0 1.81757 -135.088 -592.07)"/><use xlink:href="#bm" transform="matrix(1.8176 0 0 1.81757 -135.088 -592.07)"/><use xlink:href="#bn" transform="matrix(1.8176 0 0 1.81757 -135.088 -592.07)"/><use xlink:href="#bo" transform="matrix(1.8176 0 0 1.81757 -135.088 -592.07)"/><use xlink:href="#bp" transform="matrix(1.8176 0 0 1.81757 -135.088 -592.07)"/><use xlink:href="#bq" transform="matrix(1.8176 0 0 1.81757 -135.088 -592.07)"/><use xlink:href="#br" transform="matrix(1.8176 0 0 1.81757 -135.088 -592.07)"/><use xlink:href="#bs" transform="matrix(1.8176 0 0 1.81757 -135.088 -592.07)"/><use xlink:href="#bt" transform="matrix(1.8176 0 0 1.81757 -135.088 -592.07)"/><use xlink:href="#bu" transform="matrix(1.8176 0 0 1.81757 -135.088 -592.07)"/><use xlink:href="#bv" transform="matrix(1.8176 0 0 1.81757 -135.088 -592.07)"/><use xlink:href="#bw" transform="matrix(1.8176 0 0 1.81757 -135.088 -592.07)"/><use xlink:href="#bx" transform="matrix(1.8176 0 0 1.81757 -135.088 -592.07)"/><use xlink:href="#by" transform="matrix(1.8176 0 0 1.81757 -135.088 -592.07)"/><use xlink:href="#bz" transform="matrix(1.8176 0 0 1.81757 -135.088 -592.07)"/><use xlink:href="#bA" transform="matrix(1.8176 0 0 1.81757 -135.088 -592.07)"/><use xlink:href="#bB" transform="matrix(1.8176 0 0 1.81757 -135.088 -592.07)"/><use xlink:href="#bC" transform="matrix(1.8176 0 0 1.81757 -135.088 -592.07)"/><use xlink:href="#bD" transform="matrix(1.8176 0 0 1.81757 -135.088 -592.07)"/><use xlink:href="#bE" transform="matrix(1.8176 0 0 1.81757 -135.088 -592.07)"/><use xlink:href="#bF" transform="matrix(1.8176 0 0 1.81757 -135.088 -592.07)"/><use xlink:href="#bG" transform="matrix(1.8176 0 0 1.81757 -135.088 -592.07)"/><use xlink:href="#bH" transform="matrix(1.8176 0 0 1.81757 -135.088 -592.07)"/><use xlink:href="#bI" transform="matrix(1.8176 0 0 1.81757 -135.088 -592.07)"/><use xlink:href="#bJ" transform="matrix(1.8176 0 0 1.81757 -135.088 -592.07)"/><use xlink:href="#bK" transform="matrix(1.8176 0 0 1.81757 -135.088 -592.07)"/><use xlink:href="#bL" transform="matrix(1.8176 0 0 1.81757 -135.088 -592.07)"/><use xlink:href="#bM" transform="matrix(1.8176 0 0 1.81757 -135.088 -592.07)"/><use xlink:href="#bN" transform="matrix(1.8176 0 0 1.81757 -135.088 -592.07)"/><use xlink:href="#bO" transform="matrix(1.8176 0 0 1.81757 -135.088 -592.07)"/><use xlink:href="#bP" transform="matrix(1.8176 0 0 1.81757 -135.088 -592.07)"/><use xlink:href="#bQ" transform="matrix(1.8176 0 0 1.81757 -135.088 -592.07)"/><use xlink:href="#bR" transform="matrix(1.8176 0 0 1.81757 -135.088 -592.07)"/><use xlink:href="#bS" transform="matrix(1.8176 0 0 1.81757 -135.088 -592.07)"/><use xlink:href="#bT" transform="matrix(1.8176 0 0 1.81757 -135.088 -592.07)"/><use xlink:href="#bU" transform="matrix(1.8176 0 0 1.81757 -135.088 -592.07)"/><use xlink:href="#bV" transform="matrix(1.8176 0 0 1.81757 -135.088 -592.07)"/><use xlink:href="#bW" transform="matrix(1.8176 0 0 1.81757 -135.088 -592.07)"/><use xlink:href="#bX" transform="matrix(1.8176 0 0 1.81757 -135.088 -592.07)"/><use xlink:href="#bY" transform="matrix(1.8176 0 0 1.81757 -135.088 -592.07)"/><use xlink:href="#bZ" transform="matrix(1.8176 0 0 1.81757 -135.088 -592.07)"/><use xlink:href="#ca" transform="matrix(1.8176 0 0 1.81757 -135.088 -592.07)"/><use xlink:href="#cb" transform="matrix(1.8176 0 0 1.81757 -135.088 -592.07)"/><use xlink:href="#cc" transform="matrix(1.8176 0 0 1.81757 -135.088 -592.07)"/><use xlink:href="#cd" transform="matrix(1.8176 0 0 1.81757 -135.088 -592.07)"/><use xlink:href="#ce" transform="matrix(1.8176 0 0 1.81757 -135.088 -592.07)"/><use xlink:href="#cf" transform="matrix(1.8176 0 0 1.81757 -135.088 -592.07)"/><use xlink:href="#cg" transform="matrix(1.8176 0 0 1.81757 -135.088 -592.07)"/><use xlink:href="#ch" transform="matrix(1.8176 0 0 1.81757 -135.088 -592.07)"/><use xlink:href="#ci" transform="matrix(1.8176 0 0 1.81757 -135.088 -592.07)"/></svg>