<svg xmlns="http://www.w3.org/2000/svg" xmlns:xlink="http://www.w3.org/1999/xlink" preserveAspectRatio="none" width="284" height="320"><defs><linearGradient id="a" gradientUnits="userSpaceOnUse" x1="493.087" y1="462.113" x2="452.413" y2="440.488" spreadMethod="pad"><stop offset="0%" stop-color="#FBD7AB"/><stop offset="34.118%" stop-color="#FDF3E5"/><stop offset="61.176%" stop-color="#FCE5C7"/><stop offset="100%" stop-color="#FBD7AB"/></linearGradient><linearGradient id="b" gradientUnits="userSpaceOnUse" x1="532.487" y1="485.25" x2="499.612" y2="485.25" spreadMethod="pad"><stop offset="0%" stop-color="#FF7F15"/><stop offset="100%" stop-color="#FCE5C7"/></linearGradient><linearGradient id="c" gradientUnits="userSpaceOnUse" x1="494.475" y1="484.95" x2="500.425" y2="484.95" spreadMethod="pad"><stop offset="0%" stop-color="#FE861D"/><stop offset="100%" stop-color="#FCA64F"/></linearGradient><linearGradient id="d" gradientUnits="userSpaceOnUse" x1="498.488" y1="484.9" x2="500.113" y2="484.9" spreadMethod="pad"><stop offset="0%" stop-color="#FBAC5D"/><stop offset="100%" stop-color="#FBC489"/></linearGradient><linearGradient id="e" gradientUnits="userSpaceOnUse" x1="493.475" y1="491.55" x2="499.425" y2="491.55" spreadMethod="pad"><stop offset="0%" stop-color="#FE861D"/><stop offset="100%" stop-color="#FCA64F"/></linearGradient><linearGradient id="f" gradientUnits="userSpaceOnUse" x1="497.488" y1="491.5" x2="499.113" y2="491.5" spreadMethod="pad"><stop offset="0%" stop-color="#FBAC5D"/><stop offset="100%" stop-color="#FBC489"/></linearGradient><linearGradient id="g" gradientUnits="userSpaceOnUse" x1="490.475" y1="498.2" x2="496.425" y2="498.2" spreadMethod="pad"><stop offset="0%" stop-color="#FE861D"/><stop offset="100%" stop-color="#FCA64F"/></linearGradient><linearGradient id="h" gradientUnits="userSpaceOnUse" x1="493.488" y1="498.2" x2="495.113" y2="498.2" spreadMethod="pad"><stop offset="0%" stop-color="#FBAC5D"/><stop offset="100%" stop-color="#FBC489"/></linearGradient><linearGradient id="i" gradientUnits="userSpaceOnUse" x1="493.475" y1="478.3" x2="499.425" y2="478.3" spreadMethod="pad"><stop offset="0%" stop-color="#FE861D"/><stop offset="100%" stop-color="#FCA64F"/></linearGradient><linearGradient id="j" gradientUnits="userSpaceOnUse" x1="497.488" y1="478.3" x2="499.113" y2="478.3" spreadMethod="pad"><stop offset="0%" stop-color="#FBAC5D"/><stop offset="100%" stop-color="#FBC489"/></linearGradient><linearGradient id="k" gradientUnits="userSpaceOnUse" x1="490.475" y1="471.7" x2="496.425" y2="471.7" spreadMethod="pad"><stop offset="0%" stop-color="#FE861D"/><stop offset="100%" stop-color="#FCA64F"/></linearGradient><linearGradient id="l" gradientUnits="userSpaceOnUse" x1="493.488" y1="471.65" x2="495.113" y2="471.65" spreadMethod="pad"><stop offset="0%" stop-color="#FBAC5D"/><stop offset="100%" stop-color="#FBC489"/></linearGradient><linearGradient id="m" gradientUnits="userSpaceOnUse" x1="485.462" y1="484.95" x2="493.538" y2="484.95" spreadMethod="pad"><stop offset="0%" stop-color="#FE861E"/><stop offset="100%" stop-color="#FBAA57"/></linearGradient><linearGradient id="n" gradientUnits="userSpaceOnUse" x1="491.488" y1="484.95" x2="493.713" y2="484.95" spreadMethod="pad"><stop offset="0%" stop-color="#FBB367"/><stop offset="100%" stop-color="#FBCD96"/></linearGradient><linearGradient id="o" gradientUnits="userSpaceOnUse" x1="485.462" y1="493.95" x2="493.538" y2="493.95" spreadMethod="pad"><stop offset="0%" stop-color="#FE861E"/><stop offset="100%" stop-color="#FBAA57"/></linearGradient><linearGradient id="p" gradientUnits="userSpaceOnUse" x1="490.488" y1="493.95" x2="492.713" y2="493.95" spreadMethod="pad"><stop offset="0%" stop-color="#FBB367"/><stop offset="100%" stop-color="#FBCD96"/></linearGradient><linearGradient id="q" gradientUnits="userSpaceOnUse" x1="482.462" y1="502.95" x2="490.538" y2="502.95" spreadMethod="pad"><stop offset="0%" stop-color="#FE861E"/><stop offset="100%" stop-color="#FBAA57"/></linearGradient><linearGradient id="r" gradientUnits="userSpaceOnUse" x1="487.488" y1="502.95" x2="489.713" y2="502.95" spreadMethod="pad"><stop offset="0%" stop-color="#FBB367"/><stop offset="100%" stop-color="#FBCD96"/></linearGradient><linearGradient id="s" gradientUnits="userSpaceOnUse" x1="485.462" y1="475.95" x2="493.538" y2="475.95" spreadMethod="pad"><stop offset="0%" stop-color="#FE861E"/><stop offset="100%" stop-color="#FBAA57"/></linearGradient><linearGradient id="t" gradientUnits="userSpaceOnUse" x1="490.488" y1="475.95" x2="492.713" y2="475.95" spreadMethod="pad"><stop offset="0%" stop-color="#FBB367"/><stop offset="100%" stop-color="#FBCD96"/></linearGradient><linearGradient id="u" gradientUnits="userSpaceOnUse" x1="482.462" y1="466.95" x2="490.538" y2="466.95" spreadMethod="pad"><stop offset="0%" stop-color="#FE861E"/><stop offset="100%" stop-color="#FBAA57"/></linearGradient><linearGradient id="v" gradientUnits="userSpaceOnUse" x1="487.488" y1="466.95" x2="489.713" y2="466.95" spreadMethod="pad"><stop offset="0%" stop-color="#FBB367"/><stop offset="100%" stop-color="#FBCD96"/></linearGradient><linearGradient id="w" gradientUnits="userSpaceOnUse" x1="476.488" y1="484.95" x2="486.713" y2="484.95" spreadMethod="pad"><stop offset="0%" stop-color="#FE8A22"/><stop offset="100%" stop-color="#FBBC76"/></linearGradient><linearGradient id="x" gradientUnits="userSpaceOnUse" x1="483.5" y1="484.9" x2="486.3" y2="484.9" spreadMethod="pad"><stop offset="0%" stop-color="#FBC68B"/><stop offset="100%" stop-color="#FCE7CE"/></linearGradient><linearGradient id="y" gradientUnits="userSpaceOnUse" x1="475.488" y1="496.3" x2="485.713" y2="496.3" spreadMethod="pad"><stop offset="0%" stop-color="#FE8A22"/><stop offset="100%" stop-color="#FBBC76"/></linearGradient><linearGradient id="z" gradientUnits="userSpaceOnUse" x1="482.5" y1="496.3" x2="485.3" y2="496.3" spreadMethod="pad"><stop offset="0%" stop-color="#FBC68B"/><stop offset="100%" stop-color="#FCE7CE"/></linearGradient><linearGradient id="A" gradientUnits="userSpaceOnUse" x1="471.488" y1="507.6" x2="481.713" y2="507.6" spreadMethod="pad"><stop offset="0%" stop-color="#FE8A22"/><stop offset="100%" stop-color="#FBBC76"/></linearGradient><linearGradient id="B" gradientUnits="userSpaceOnUse" x1="478.5" y1="507.65" x2="481.3" y2="507.65" spreadMethod="pad"><stop offset="0%" stop-color="#FBC68B"/><stop offset="100%" stop-color="#FCE7CE"/></linearGradient><linearGradient id="C" gradientUnits="userSpaceOnUse" x1="475.488" y1="473.55" x2="485.713" y2="473.55" spreadMethod="pad"><stop offset="0%" stop-color="#FE8A22"/><stop offset="100%" stop-color="#FBBC76"/></linearGradient><linearGradient id="D" gradientUnits="userSpaceOnUse" x1="482.5" y1="473.55" x2="485.3" y2="473.55" spreadMethod="pad"><stop offset="0%" stop-color="#FBC68B"/><stop offset="100%" stop-color="#FCE7CE"/></linearGradient><linearGradient id="E" gradientUnits="userSpaceOnUse" x1="471.488" y1="462.2" x2="481.713" y2="462.2" spreadMethod="pad"><stop offset="0%" stop-color="#FE8A22"/><stop offset="100%" stop-color="#FBBC76"/></linearGradient><linearGradient id="F" gradientUnits="userSpaceOnUse" x1="478.5" y1="462.2" x2="481.3" y2="462.2" spreadMethod="pad"><stop offset="0%" stop-color="#FBC68B"/><stop offset="100%" stop-color="#FCE7CE"/></linearGradient><linearGradient id="G" gradientUnits="userSpaceOnUse" x1="464.5" y1="484.95" x2="476.3" y2="484.95" spreadMethod="pad"><stop offset="0%" stop-color="#FD8F26"/><stop offset="100%" stop-color="#FBCA91"/></linearGradient><linearGradient id="H" gradientUnits="userSpaceOnUse" x1="472.488" y1="484.95" x2="475.713" y2="484.95" spreadMethod="pad"><stop offset="0%" stop-color="#FBD7AB"/><stop offset="100%" stop-color="#FFF"/></linearGradient><linearGradient id="I" gradientUnits="userSpaceOnUse" x1="463.5" y1="498.05" x2="475.3" y2="498.05" spreadMethod="pad"><stop offset="0%" stop-color="#FD8F26"/><stop offset="100%" stop-color="#FBCA91"/></linearGradient><linearGradient id="J" gradientUnits="userSpaceOnUse" x1="471.488" y1="498.05" x2="474.713" y2="498.05" spreadMethod="pad"><stop offset="0%" stop-color="#FBD7AB"/><stop offset="100%" stop-color="#FFF"/></linearGradient><linearGradient id="K" gradientUnits="userSpaceOnUse" x1="459.5" y1="511.15" x2="471.3" y2="511.15" spreadMethod="pad"><stop offset="0%" stop-color="#FD8F26"/><stop offset="100%" stop-color="#FBCA91"/></linearGradient><linearGradient id="L" gradientUnits="userSpaceOnUse" x1="467.488" y1="511.15" x2="470.713" y2="511.15" spreadMethod="pad"><stop offset="0%" stop-color="#FBD7AB"/><stop offset="100%" stop-color="#FFF"/></linearGradient><linearGradient id="M" gradientUnits="userSpaceOnUse" x1="463.5" y1="471.85" x2="475.3" y2="471.85" spreadMethod="pad"><stop offset="0%" stop-color="#FD8F26"/><stop offset="100%" stop-color="#FBCA91"/></linearGradient><linearGradient id="N" gradientUnits="userSpaceOnUse" x1="471.488" y1="471.85" x2="474.713" y2="471.85" spreadMethod="pad"><stop offset="0%" stop-color="#FBD7AB"/><stop offset="100%" stop-color="#FFF"/></linearGradient><linearGradient id="O" gradientUnits="userSpaceOnUse" x1="459.5" y1="458.7" x2="471.3" y2="458.7" spreadMethod="pad"><stop offset="0%" stop-color="#FD8F26"/><stop offset="100%" stop-color="#FBCA91"/></linearGradient><linearGradient id="P" gradientUnits="userSpaceOnUse" x1="467.488" y1="458.75" x2="470.713" y2="458.75" spreadMethod="pad"><stop offset="0%" stop-color="#FBD7AB"/><stop offset="100%" stop-color="#FFF"/></linearGradient><linearGradient id="Q" gradientUnits="userSpaceOnUse" x1="446.15" y1="511.875" x2="448.95" y2="458.425" spreadMethod="pad"><stop offset="0%" stop-color="#E5600F"/><stop offset="100%" stop-color="#FF7F15"/></linearGradient><linearGradient id="R" gradientUnits="userSpaceOnUse" x1="432.987" y1="478.8" x2="451.813" y2="502.9" spreadMethod="pad"><stop offset="0%" stop-color="#FD8F26"/><stop offset="100%" stop-color="#FBAC59"/></linearGradient><linearGradient id="S" gradientUnits="userSpaceOnUse" x1="439.688" y1="485.963" x2="456.913" y2="507.238" spreadMethod="pad"><stop offset="0%" stop-color="#FD9836"/><stop offset="100%" stop-color="#FBD3A4"/></linearGradient><linearGradient id="T" gradientUnits="userSpaceOnUse" x1="433.013" y1="467.738" x2="456.188" y2="454.363" spreadMethod="pad"><stop offset="0%" stop-color="#FBCA91"/><stop offset="100%" stop-color="#FC9D3F"/></linearGradient><linearGradient id="U" gradientUnits="userSpaceOnUse" x1="416.762" y1="476.788" x2="410.637" y2="491.212" spreadMethod="pad"><stop offset="0%" stop-color="#FCE5C7"/><stop offset="100%" stop-color="#FFF"/></linearGradient><linearGradient id="V" gradientUnits="userSpaceOnUse" x1="437.475" y1="474.45" x2="417.025" y2="474.45" spreadMethod="pad"><stop offset="0%" stop-color="#AA4208"/><stop offset="100%" stop-color="#E5600F"/></linearGradient><linearGradient id="W" gradientUnits="userSpaceOnUse" x1="427.65" y1="474.55" x2="427.65" y2="483.45" spreadMethod="pad"><stop offset="0%" stop-color="#222"/><stop offset="100%" stop-color="silver"/></linearGradient><linearGradient id="X" gradientUnits="userSpaceOnUse" x1="424.5" y1="481.9" x2="431" y2="481.9" spreadMethod="pad"><stop offset="0%" stop-color="silver"/><stop offset="49.02%" stop-color="#EBEBEB"/><stop offset="100%" stop-color="silver"/></linearGradient><linearGradient id="Y" gradientUnits="userSpaceOnUse" x1="411.762" y1="496" x2="419.738" y2="493.7" spreadMethod="pad"><stop offset="0%" stop-color="#FF7F15"/><stop offset="100%" stop-color="#E5600F"/></linearGradient><linearGradient id="Z" gradientUnits="userSpaceOnUse" x1="408.55" y1="501.45" x2="410.05" y2="496.55" spreadMethod="pad"><stop offset="0%" stop-color="#FBD7AB"/><stop offset="100%" stop-color="#FF7F15"/></linearGradient><linearGradient id="aa" gradientUnits="userSpaceOnUse" x1="401.5" y1="490.35" x2="414.9" y2="493.45" spreadMethod="pad"><stop offset="0%" stop-color="#FF7F15"/><stop offset="67.059%" stop-color="#ED6811"/><stop offset="100%" stop-color="#D9540D"/></linearGradient><linearGradient id="ab" gradientUnits="userSpaceOnUse" x1="407.363" y1="492.75" x2="402.238" y2="490.35" spreadMethod="pad"><stop offset="0%" stop-color="#FD8F26"/><stop offset="100%" stop-color="#FBD7AB"/></linearGradient><linearGradient id="ac" gradientUnits="userSpaceOnUse" x1="452.563" y1="525.475" x2="467.837" y2="531.325" spreadMethod="pad"><stop offset="0%" stop-color="#FBBC76"/><stop offset="100%" stop-color="#FF7F15"/></linearGradient><linearGradient id="ad" gradientUnits="userSpaceOnUse" x1="440.425" y1="528.413" x2="481.475" y2="507.488" spreadMethod="pad"><stop offset="0%" stop-color="#FBD7AB"/><stop offset="34.118%" stop-color="#FDF3E5"/><stop offset="61.176%" stop-color="#FCE5C7"/><stop offset="100%" stop-color="#FBD7AB"/></linearGradient><linearGradient id="ae" gradientUnits="userSpaceOnUse" x1="401.462" y1="552.1" x2="434.337" y2="552.1" spreadMethod="pad"><stop offset="0%" stop-color="#FF7F15"/><stop offset="100%" stop-color="#FCE5C7"/></linearGradient><linearGradient id="af" gradientUnits="userSpaceOnUse" x1="439.475" y1="551.75" x2="433.525" y2="551.75" spreadMethod="pad"><stop offset="0%" stop-color="#FE861D"/><stop offset="100%" stop-color="#FCA64F"/></linearGradient><linearGradient id="ag" gradientUnits="userSpaceOnUse" x1="435.462" y1="551.7" x2="433.837" y2="551.7" spreadMethod="pad"><stop offset="0%" stop-color="#FBAC5D"/><stop offset="100%" stop-color="#FBC489"/></linearGradient><linearGradient id="ah" gradientUnits="userSpaceOnUse" x1="440.475" y1="558.4" x2="434.525" y2="558.4" spreadMethod="pad"><stop offset="0%" stop-color="#FE861D"/><stop offset="100%" stop-color="#FCA64F"/></linearGradient><linearGradient id="ai" gradientUnits="userSpaceOnUse" x1="436.462" y1="558.35" x2="434.837" y2="558.35" spreadMethod="pad"><stop offset="0%" stop-color="#FBAC5D"/><stop offset="100%" stop-color="#FBC489"/></linearGradient><linearGradient id="aj" gradientUnits="userSpaceOnUse" x1="444.475" y1="565" x2="438.525" y2="565" spreadMethod="pad"><stop offset="0%" stop-color="#FE861D"/><stop offset="100%" stop-color="#FCA64F"/></linearGradient><linearGradient id="ak" gradientUnits="userSpaceOnUse" x1="440.462" y1="565" x2="438.837" y2="565" spreadMethod="pad"><stop offset="0%" stop-color="#FBAC5D"/><stop offset="100%" stop-color="#FBC489"/></linearGradient><linearGradient id="al" gradientUnits="userSpaceOnUse" x1="440.475" y1="545.15" x2="434.525" y2="545.15" spreadMethod="pad"><stop offset="0%" stop-color="#FE861D"/><stop offset="100%" stop-color="#FCA64F"/></linearGradient><linearGradient id="am" gradientUnits="userSpaceOnUse" x1="436.462" y1="545.1" x2="434.837" y2="545.1" spreadMethod="pad"><stop offset="0%" stop-color="#FBAC5D"/><stop offset="100%" stop-color="#FBC489"/></linearGradient><linearGradient id="an" gradientUnits="userSpaceOnUse" x1="444.475" y1="538.5" x2="438.525" y2="538.5" spreadMethod="pad"><stop offset="0%" stop-color="#FE861D"/><stop offset="100%" stop-color="#FCA64F"/></linearGradient><linearGradient id="ao" gradientUnits="userSpaceOnUse" x1="440.462" y1="538.45" x2="438.837" y2="538.45" spreadMethod="pad"><stop offset="0%" stop-color="#FBAC5D"/><stop offset="100%" stop-color="#FBC489"/></linearGradient><linearGradient id="ap" gradientUnits="userSpaceOnUse" x1="448.488" y1="551.75" x2="440.412" y2="551.75" spreadMethod="pad"><stop offset="0%" stop-color="#FE861E"/><stop offset="100%" stop-color="#FBAA57"/></linearGradient><linearGradient id="aq" gradientUnits="userSpaceOnUse" x1="442.463" y1="551.75" x2="440.238" y2="551.75" spreadMethod="pad"><stop offset="0%" stop-color="#FBB367"/><stop offset="100%" stop-color="#FBCD96"/></linearGradient><linearGradient id="ar" gradientUnits="userSpaceOnUse" x1="449.488" y1="560.75" x2="441.412" y2="560.75" spreadMethod="pad"><stop offset="0%" stop-color="#FE861E"/><stop offset="100%" stop-color="#FBAA57"/></linearGradient><linearGradient id="as" gradientUnits="userSpaceOnUse" x1="443.463" y1="560.75" x2="441.238" y2="560.75" spreadMethod="pad"><stop offset="0%" stop-color="#FBB367"/><stop offset="100%" stop-color="#FBCD96"/></linearGradient><linearGradient id="at" gradientUnits="userSpaceOnUse" x1="451.488" y1="569.75" x2="443.412" y2="569.75" spreadMethod="pad"><stop offset="0%" stop-color="#FE861E"/><stop offset="100%" stop-color="#FBAA57"/></linearGradient><linearGradient id="au" gradientUnits="userSpaceOnUse" x1="446.463" y1="569.75" x2="444.238" y2="569.75" spreadMethod="pad"><stop offset="0%" stop-color="#FBB367"/><stop offset="100%" stop-color="#FBCD96"/></linearGradient><linearGradient id="av" gradientUnits="userSpaceOnUse" x1="449.488" y1="542.75" x2="441.412" y2="542.75" spreadMethod="pad"><stop offset="0%" stop-color="#FE861E"/><stop offset="100%" stop-color="#FBAA57"/></linearGradient><linearGradient id="aw" gradientUnits="userSpaceOnUse" x1="443.463" y1="542.75" x2="441.238" y2="542.75" spreadMethod="pad"><stop offset="0%" stop-color="#FBB367"/><stop offset="100%" stop-color="#FBCD96"/></linearGradient><linearGradient id="ax" gradientUnits="userSpaceOnUse" x1="451.488" y1="533.75" x2="443.412" y2="533.75" spreadMethod="pad"><stop offset="0%" stop-color="#FE861E"/><stop offset="100%" stop-color="#FBAA57"/></linearGradient><linearGradient id="ay" gradientUnits="userSpaceOnUse" x1="446.463" y1="533.75" x2="444.238" y2="533.75" spreadMethod="pad"><stop offset="0%" stop-color="#FBB367"/><stop offset="100%" stop-color="#FBCD96"/></linearGradient><linearGradient id="az" gradientUnits="userSpaceOnUse" x1="457.463" y1="551.75" x2="447.238" y2="551.75" spreadMethod="pad"><stop offset="0%" stop-color="#FE8A22"/><stop offset="100%" stop-color="#FBBC76"/></linearGradient><linearGradient id="aA" gradientUnits="userSpaceOnUse" x1="451.45" y1="551.7" x2="448.65" y2="551.7" spreadMethod="pad"><stop offset="0%" stop-color="#FBC68B"/><stop offset="100%" stop-color="#FCE7CE"/></linearGradient><linearGradient id="aB" gradientUnits="userSpaceOnUse" x1="458.463" y1="563.1" x2="448.238" y2="563.1" spreadMethod="pad"><stop offset="0%" stop-color="#FE8A22"/><stop offset="100%" stop-color="#FBBC76"/></linearGradient><linearGradient id="aC" gradientUnits="userSpaceOnUse" x1="452.45" y1="563.1" x2="449.65" y2="563.1" spreadMethod="pad"><stop offset="0%" stop-color="#FBC68B"/><stop offset="100%" stop-color="#FCE7CE"/></linearGradient><linearGradient id="aD" gradientUnits="userSpaceOnUse" x1="462.463" y1="574.45" x2="452.238" y2="574.45" spreadMethod="pad"><stop offset="0%" stop-color="#FE8A22"/><stop offset="100%" stop-color="#FBBC76"/></linearGradient><linearGradient id="aE" gradientUnits="userSpaceOnUse" x1="455.45" y1="574.45" x2="452.65" y2="574.45" spreadMethod="pad"><stop offset="0%" stop-color="#FBC68B"/><stop offset="100%" stop-color="#FCE7CE"/></linearGradient><linearGradient id="aF" gradientUnits="userSpaceOnUse" x1="458.463" y1="540.4" x2="448.238" y2="540.4" spreadMethod="pad"><stop offset="0%" stop-color="#FE8A22"/><stop offset="100%" stop-color="#FBBC76"/></linearGradient><linearGradient id="aG" gradientUnits="userSpaceOnUse" x1="452.45" y1="540.4" x2="449.65" y2="540.4" spreadMethod="pad"><stop offset="0%" stop-color="#FBC68B"/><stop offset="100%" stop-color="#FCE7CE"/></linearGradient><linearGradient id="aH" gradientUnits="userSpaceOnUse" x1="462.463" y1="529" x2="452.238" y2="529" spreadMethod="pad"><stop offset="0%" stop-color="#FE8A22"/><stop offset="100%" stop-color="#FBBC76"/></linearGradient><linearGradient id="aI" gradientUnits="userSpaceOnUse" x1="455.45" y1="529.05" x2="452.65" y2="529.05" spreadMethod="pad"><stop offset="0%" stop-color="#FBC68B"/><stop offset="100%" stop-color="#FCE7CE"/></linearGradient><linearGradient id="aJ" gradientUnits="userSpaceOnUse" x1="469.45" y1="551.75" x2="457.65" y2="551.75" spreadMethod="pad"><stop offset="0%" stop-color="#FD8F26"/><stop offset="100%" stop-color="#FBCA91"/></linearGradient><linearGradient id="aK" gradientUnits="userSpaceOnUse" x1="461.463" y1="551.75" x2="458.238" y2="551.75" spreadMethod="pad"><stop offset="0%" stop-color="#FBD7AB"/><stop offset="100%" stop-color="#FFF"/></linearGradient><linearGradient id="aL" gradientUnits="userSpaceOnUse" x1="471.45" y1="564.85" x2="459.65" y2="564.85" spreadMethod="pad"><stop offset="0%" stop-color="#FD8F26"/><stop offset="100%" stop-color="#FBCA91"/></linearGradient><linearGradient id="aM" gradientUnits="userSpaceOnUse" x1="463.463" y1="564.85" x2="460.238" y2="564.85" spreadMethod="pad"><stop offset="0%" stop-color="#FBD7AB"/><stop offset="100%" stop-color="#FFF"/></linearGradient><linearGradient id="aN" gradientUnits="userSpaceOnUse" x1="475.45" y1="577.95" x2="463.65" y2="577.95" spreadMethod="pad"><stop offset="0%" stop-color="#FD8F26"/><stop offset="100%" stop-color="#FBCA91"/></linearGradient><linearGradient id="aO" gradientUnits="userSpaceOnUse" x1="467.463" y1="577.95" x2="464.238" y2="577.95" spreadMethod="pad"><stop offset="0%" stop-color="#FBD7AB"/><stop offset="100%" stop-color="#FFF"/></linearGradient><linearGradient id="aP" gradientUnits="userSpaceOnUse" x1="471.45" y1="538.65" x2="459.65" y2="538.65" spreadMethod="pad"><stop offset="0%" stop-color="#FD8F26"/><stop offset="100%" stop-color="#FBCA91"/></linearGradient><linearGradient id="aQ" gradientUnits="userSpaceOnUse" x1="463.463" y1="538.65" x2="460.238" y2="538.65" spreadMethod="pad"><stop offset="0%" stop-color="#FBD7AB"/><stop offset="100%" stop-color="#FFF"/></linearGradient><linearGradient id="aR" gradientUnits="userSpaceOnUse" x1="475.45" y1="525.5" x2="463.65" y2="525.5" spreadMethod="pad"><stop offset="0%" stop-color="#FD8F26"/><stop offset="100%" stop-color="#FBCA91"/></linearGradient><linearGradient id="aS" gradientUnits="userSpaceOnUse" x1="467.463" y1="525.55" x2="464.238" y2="525.55" spreadMethod="pad"><stop offset="0%" stop-color="#FBD7AB"/><stop offset="100%" stop-color="#FFF"/></linearGradient><linearGradient id="aT" gradientUnits="userSpaceOnUse" x1="487.587" y1="579.1" x2="485.712" y2="525.6" spreadMethod="pad"><stop offset="0%" stop-color="#E5600F"/><stop offset="100%" stop-color="#FF7F15"/></linearGradient><linearGradient id="aU" gradientUnits="userSpaceOnUse" x1="501" y1="545.938" x2="482.6" y2="570.362" spreadMethod="pad"><stop offset="0%" stop-color="#FD8F26"/><stop offset="100%" stop-color="#FBAC59"/></linearGradient><linearGradient id="aV" gradientUnits="userSpaceOnUse" x1="494.375" y1="553.112" x2="477.525" y2="574.688" spreadMethod="pad"><stop offset="0%" stop-color="#FC9D3F"/><stop offset="100%" stop-color="#FCE5C7"/></linearGradient><linearGradient id="aW" gradientUnits="userSpaceOnUse" x1="500.563" y1="534.338" x2="477.638" y2="520.563" spreadMethod="pad"><stop offset="0%" stop-color="#FBCA91"/><stop offset="100%" stop-color="#FC9D3F"/></linearGradient><linearGradient id="aX" gradientUnits="userSpaceOnUse" x1="517.413" y1="543.688" x2="523.788" y2="558.013" spreadMethod="pad"><stop offset="0%" stop-color="#FCE5C7"/><stop offset="100%" stop-color="#FFF"/></linearGradient><linearGradient id="aY" gradientUnits="userSpaceOnUse" x1="496.475" y1="541.25" x2="516.925" y2="541.25" spreadMethod="pad"><stop offset="0%" stop-color="#AA4208"/><stop offset="100%" stop-color="#E5600F"/></linearGradient><linearGradient id="aZ" gradientUnits="userSpaceOnUse" x1="506.55" y1="541.55" x2="506.55" y2="550.45" spreadMethod="pad"><stop offset="0%" stop-color="#222"/><stop offset="100%" stop-color="silver"/></linearGradient><linearGradient id="ba" gradientUnits="userSpaceOnUse" x1="509.45" y1="548.75" x2="502.95" y2="548.75" spreadMethod="pad"><stop offset="0%" stop-color="silver"/><stop offset="49.02%" stop-color="#EBEBEB"/><stop offset="100%" stop-color="silver"/></linearGradient><linearGradient id="bb" gradientUnits="userSpaceOnUse" x1="523.212" y1="562.962" x2="515.288" y2="560.538" spreadMethod="pad"><stop offset="0%" stop-color="#FF7F15"/><stop offset="100%" stop-color="#E5600F"/></linearGradient><linearGradient id="bc" gradientUnits="userSpaceOnUse" x1="525.313" y1="567.413" x2="523.888" y2="562.488" spreadMethod="pad"><stop offset="0%" stop-color="#FBD7AB"/><stop offset="100%" stop-color="#FF7F15"/></linearGradient><linearGradient id="bd" gradientUnits="userSpaceOnUse" x1="533.275" y1="556.837" x2="519.925" y2="560.163" spreadMethod="pad"><stop offset="0%" stop-color="#FF7F15"/><stop offset="67.059%" stop-color="#ED6811"/><stop offset="100%" stop-color="#D9540D"/></linearGradient><linearGradient id="be" gradientUnits="userSpaceOnUse" x1="462.613" y1="597.7" x2="483.988" y2="583.8" spreadMethod="pad"><stop offset="0%" stop-color="#FCE5C7"/><stop offset="100%" stop-color="#FBCA91"/></linearGradient><linearGradient id="bf" gradientUnits="userSpaceOnUse" x1="527.375" y1="559.3" x2="532.525" y2="557" spreadMethod="pad"><stop offset="0%" stop-color="#FD8F26"/><stop offset="100%" stop-color="#FBD7AB"/></linearGradient><linearGradient id="bg" gradientUnits="userSpaceOnUse" x1="481.337" y1="592.425" x2="466.063" y2="598.275" spreadMethod="pad"><stop offset="0%" stop-color="#FBBC76"/><stop offset="100%" stop-color="#FF7F15"/></linearGradient><linearGradient id="bh" gradientUnits="userSpaceOnUse" x1="479.75" y1="587.25" x2="464.85" y2="591.25" spreadMethod="pad"><stop offset="0%" stop-color="#FBBC76"/><stop offset="100%" stop-color="#FF7F15"/></linearGradient><path fill="#FFF" fill-opacity="0" d="M284 0H0v320h284V0z" id="bi"/><path fill="#FCE5C7" d="M516.75 459q-.35-.3-4.35 3.85-3.9 4.05-9.7 14.25-4.25 7.4-6.3 6.8-2.9 1.6-3 4.25h-.1v2.1q0 .05.1 0 0 .5.45.1.8-.75 2.2 0 2.3 7.75 8.05 16.85 13.2 20.85 37.55 15.3-4.65-1.35-7-6.7-.1-.2-3.3-10.8-2.1-6.9-5.55-10.35-4.8-4.8-13.85-5.45 3.35-.25 2.6-.35-2.5-.2-4.6-.5-9.55-1.5-7.55-5.7 5.5-11.75 21.1-21.7-4.7 0-6.75-1.95z" id="bj"/><path fill="url(#a)" d="M487.7 473.3q0-.5 1.05-1.1 1.1-.65 1.3-1.35 2.1 1.5 4.85-5.65 2.75-7.25.65-11.35-8.9.6-15.45-4.35-7.05-5.3-6.5-13.85.15-2.55-.2-4.55-.45-2.85-1.95-5.95-.65 3.85-4.45 6.65-2.7 1.95-7.95 3.95-8.55 3.25-14.2 7.9-6.3 5.2-10 12.95l52.85 16.7z" id="bk"/><path fill="#FBBC76" d="M465.25 439.35q4.05-2.25 5.25-6-1.35 2.6-4.3 4.2-.85.45-6 2.45-8.9 3.45-13.45 11.15-1.3 2.15-.65 2.2l3.95.15.05-1.15q1.1-2.85 3.15-5.15 1.45-1.6 4.05-3.5 2.8-2 7.95-4.35z" id="bl"/><path fill="#FBBC76" d="M471.35 440.85q-1 2.15-3.3 3.5-.65.4-4.8 2.2-7.1 3.1-10.55 9.5-.9 1.8-.45 1.8h3.2v-.95q.75-2.4 2.4-4.3 1.1-1.25 3.15-2.9 2.2-1.7 6.3-3.8 3.2-1.95 4.05-5.05z" id="bm"/><path fill="#FBBC76" d="M470.05 451.5q3.1-1.9 3.95-4.9-1 2.1-3.25 3.4-.65.4-4.65 2.15-6.9 3-10.2 9.2-.3.5-.5 1.05-.3.75.05.75h3.1v-.95q.7-2.25 2.3-4.1 1.05-1.3 3.1-2.95 2.15-1.65 6.1-3.65z" id="bn"/><path fill="url(#b)" d="M526 450.55q-8.3 2.9-13.6 8.45-3.9 4.05-9.7 14.2-4.25 7.35-6.3 6.75-2.9 1.6-3 4.25h-.1v2.15h.1q.1 2.6 3 4.25 2.05-.6 6.3 6.8 5.8 10.15 9.7 14.2 5.3 5.5 13.6 8.35 7.55 2.6 16.15 2.6-4.7-1.35-7.1-7.3-.1-.25-3.45-12.15-2.2-7.85-5.75-11.75-4.85-5.4-13.9-6.1 9.05-.65 13.9-6.05 3.55-3.9 5.75-11.75 3.35-11.9 3.45-12.15 2.4-6 7.1-7.35-8.6 0-16.15 2.6z" id="bo"/><path fill="#FBCA91" d="M502.15 491.1q0-14.05-14.1-24.05-14.15-9.95-34.05-9.95t-34 9.95q-14.1 10-14.1 24.05 0 14.2 14.1 24.95Q434.35 527 454 527t34.05-10.95q14.1-10.75 14.1-24.95z" id="bp"/><path fill="#FD8F26" d="M502.15 485.25q0-14-12.65-24-12.6-9.95-30.4-9.95-17.8 0-30.45 9.95-12.6 9.95-12.6 24t12.6 24.05q12.65 9.95 30.45 9.95 17.8 0 30.4-9.95 12.65-10 12.65-24.05z" id="bq"/><path fill="url(#c)" d="M490.15 481.95v6h7.9q1.25 0 2.15-.9.9-.9.9-2.15t-.9-2.1q-.9-.85-2.15-.85h-7.9z" id="br"/><path fill="url(#d)" d="M497.9 482.6q1.05.85 1.05 2.25 0 1.35-1.05 2.35 2.25-.25 2.25-2.35t-2.25-2.25z" id="bs"/><path fill="url(#e)" d="M488.85 488.55v6h7.9q1.25 0 2.1-.9.85-.85.85-2.15 0-1.25-.85-2.1-.85-.85-2.1-.85h-7.9z" id="bt"/><path fill="url(#f)" d="M497.65 491.65q-.05 1.3-1 2.2 2.2-.1 2.2-2.2t-2.2-2.45q1 1.05 1 2.45z" id="bu"/><path fill="url(#g)" d="M493.45 501.15q1.25 0 2.15-.9.9-.85.9-2.1 0-1.2-.9-2.05-.9-.9-2.15-.9h-7.9v5.95h7.9z" id="bv"/><path fill="url(#h)" d="M493.4 495.85q1 .9 1 2.25t-1 2.4q2.15-.3 2.15-2.4t-2.15-2.25z" id="bw"/><path fill="url(#i)" d="M488.85 475.3v6h7.9q1.25 0 2.1-.9.85-.85.85-2.1 0-1.3-.85-2.15-.85-.85-2.1-.85h-7.9z" id="bx"/><path fill="url(#j)" d="M497.65 478.35q-.05 1.35-1 2.25 2.2-.1 2.2-2.2t-2.2-2.45q1 1.05 1 2.4z" id="by"/><path fill="url(#k)" d="M493.45 474.7q1.25 0 2.15-.9.9-.9.9-2.15t-.9-2.1q-.9-.85-2.15-.85h-7.9v6h7.9z" id="bz"/><path fill="url(#l)" d="M493.4 469.35q1 .85 1 2.25 0 1.35-1 2.35 2.15-.25 2.15-2.35 0-2.15-2.15-2.25z" id="bA"/><path fill="url(#m)" d="M490.65 489q1.7 0 2.9-1.2t1.2-2.9q0-1.7-1.2-2.85-1.2-1.2-2.9-1.2H479.9V489h10.75z" id="bB"/><path fill="url(#n)" d="M490.5 481.8q1.35 1.2 1.35 3.05 0 1.8-1.35 3.2 2.95-.4 2.95-3.25t-2.95-3z" id="bC"/><path fill="url(#o)" d="M492.65 491.05q-1.2-1.2-2.85-1.2H479V498h10.8q1.65 0 2.85-1.2 1.15-1.2 1.15-2.9t-1.15-2.85z" id="bD"/><path fill="url(#p)" d="M489.65 490.8q1.35 1.4 1.3 3.25 0 1.8-1.3 3 2.95-.15 2.95-3t-2.95-3.25z" id="bE"/><path fill="url(#q)" d="M487.05 507q1.7 0 2.9-1.2t1.2-2.9q0-1.7-1.2-2.85-1.2-1.2-2.9-1.2H476.3V507h10.75z" id="bF"/><path fill="url(#r)" d="M486.9 499.8q1.35 1.2 1.35 3.05 0 1.8-1.35 3.2 2.95-.4 2.95-3.25t-2.95-3z" id="bG"/><path fill="url(#s)" d="M492.65 473.05q-1.2-1.2-2.85-1.2H479V480h10.8q1.65 0 2.85-1.2 1.15-1.2 1.15-2.9t-1.15-2.85z" id="bH"/><path fill="url(#t)" d="M490.95 476.05q0 1.8-1.3 3 2.95-.15 2.95-3t-2.95-3.25q1.35 1.4 1.3 3.25z" id="bI"/><path fill="url(#u)" d="M487.05 471q1.7 0 2.9-1.2t1.2-2.9q0-1.7-1.2-2.85-1.2-1.2-2.9-1.2H476.3V471h10.75z" id="bJ"/><path fill="url(#v)" d="M486.9 463.8q1.35 1.2 1.35 3.05 0 1.8-1.35 3.2 2.95-.35 2.95-3.25 0-2.85-2.95-3z" id="bK"/><path fill="url(#w)" d="M486 488.6q1.5-1.55 1.5-3.7 0-2.1-1.5-3.6t-3.65-1.5h-13.6v10.3h13.6q2.15 0 3.65-1.5z" id="bL"/><path fill="url(#x)" d="M482.15 480.95q1.7 1.5 1.7 3.8 0 2.35-1.7 4.1 3.7-.5 3.7-4.1 0-3.55-3.7-3.8z" id="bM"/><path fill="url(#y)" d="M481.2 491.15h-13.6v10.25h13.6q2.15 0 3.65-1.5t1.5-3.6q0-2.15-1.5-3.65t-3.65-1.5z" id="bN"/><path fill="url(#z)" d="M482.7 496.4q0 2.3-1.7 3.85 3.7-.2 3.7-3.85 0-3.6-3.7-4.1 1.7 1.8 1.7 4.1z" id="bO"/><path fill="url(#A)" d="M464.25 502.45v10.3h13.5q2.15 0 3.7-1.5 1.5-1.5 1.5-3.6t-1.5-3.65q-1.55-1.55-3.7-1.55h-13.5z" id="bP"/><path fill="url(#B)" d="M477.55 503.7q1.75 1.5 1.75 3.8 0 2.35-1.75 4.1 3.8-.5 3.8-4.1 0-3.55-3.8-3.8z" id="bQ"/><path fill="url(#C)" d="M467.6 468.4v10.3h13.6q2.15 0 3.65-1.5t1.5-3.6q0-2.15-1.5-3.7-1.5-1.5-3.65-1.5h-13.6z" id="bR"/><path fill="url(#D)" d="M482.7 473.7q0 2.35-1.7 3.85 3.7-.25 3.7-3.85t-3.7-4.15q1.7 1.85 1.7 4.15z" id="bS"/><path fill="url(#E)" d="M464.25 457.05v10.3h13.5q2.15 0 3.7-1.5 1.5-1.5 1.5-3.65t-1.5-3.65q-1.55-1.5-3.7-1.5h-13.5z" id="bT"/><path fill="url(#F)" d="M477.55 458.25q1.75 1.55 1.75 3.85t-1.75 4.1q3.8-.55 3.8-4.15 0-3.55-3.8-3.8z" id="bU"/><path fill="url(#G)" d="M455.6 479v11.9h15.7q2.4 0 4.15-1.75 1.75-1.8 1.75-4.25t-1.75-4.15Q473.7 479 471.3 479h-15.7z" id="bV"/><path fill="url(#H)" d="M471.05 480.35q1.95 1.75 1.95 4.4 0 2.7-1.95 4.75 4.35-.6 4.35-4.7 0-4.15-4.35-4.45z" id="bW"/><path fill="url(#I)" d="M470 492.1h-15.7V504H470q2.45 0 4.15-1.75 1.75-1.75 1.75-4.25 0-2.45-1.75-4.15-1.7-1.75-4.15-1.75z" id="bX"/><path fill="url(#J)" d="M471.65 498.2q0 2.65-1.95 4.4 4.3-.25 4.3-4.4t-4.3-4.75q2 2.05 1.95 4.75z" id="bY"/><path fill="url(#K)" d="M450.35 505.2v11.9h15.7q2.4 0 4.15-1.75 1.75-1.75 1.75-4.15 0-2.5-1.75-4.25t-4.15-1.75h-15.7z" id="bZ"/><path fill="url(#L)" d="M465.8 506.55q1.95 1.75 1.95 4.45t-1.95 4.7q4.3-.55 4.3-4.7t-4.3-4.45z" id="ca"/><path fill="url(#M)" d="M454.3 465.9v11.85H470q2.45 0 4.15-1.75 1.75-1.75 1.75-4.2t-1.75-4.15q-1.7-1.75-4.15-1.75h-15.7z" id="cb"/><path fill="url(#N)" d="M471.65 472q0 2.65-1.95 4.4 4.3-.25 4.3-4.4t-4.3-4.75q2 2.05 1.95 4.75z" id="cc"/><path fill="url(#O)" d="M450.35 452.8v11.8h15.7q2.4 0 4.15-1.75 1.75-1.7 1.75-4.15t-1.75-4.15q-1.75-1.75-4.15-1.75h-15.7z" id="cd"/><path fill="url(#P)" d="M465.8 454.15q1.95 1.75 1.95 4.4 0 2.65-1.95 4.75 4.3-.6 4.3-4.75t-4.3-4.4z" id="ce"/><path fill="url(#Q)" d="M428.9 471.05q-1.25 3.1-1.2 7.1.05 2.3.3 7.1 0 9.45 5.85 20.85 6.75 13.25 14.75 11.65 9.75-1.9 14.9-11.9 4.6-8.95 4.15-21.2-.45-12.1-5.55-21.15-5.5-9.8-14.2-11.5-15.8 10.75-19 19.05z" id="cf"/><path fill="url(#R)" d="M444.65 452.2q-14.45 3.15-23.95 11.7-9.5 8.5-15.5 23.75-1.1 2.75-.55 4 .4.9 2.25 4.35 2.2 5.55 9 11.35 6.75 5.75 15 9.1 8.85 3.65 16.05 3 8.15-.75 12.3-6.95 6.55-9.8 4.55-29.5-1.85-18.35-8.5-27.55-2.4-3.25-4.5-3.8-1.65-.4-6.15.55z" id="cg"/><path fill="#FBAC59" d="M421.95 511.45q-3.65-2.95-4.75-8.35-1-5.05.75-8.7l-9.95.7-.8 1.6q1.7 3.8 5.65 7.75 3.9 3.85 9.1 7z" id="ch"/><path fill="url(#S)" d="M459.6 482.5q-1.2-13.7-6.7-25.45 6.6 26.85.2 41.15-7.8 17.4-33.35 8.35 8.65 5.8 18.5 7.1 12.3 1.6 17.2-6.45 5.55-9.1 4.15-24.7z" id="ci"/><path fill="url(#T)" d="M443.65 450.65q-14.15 3.05-23.85 12.45-9.2 8.9-15.35 24.55-.9 2.45-.35 3.75l7.5 1.15q0-9.25 4.8-16.3 5.55-8.15 14.3-6.85 2.45.4 8.2 1.3 5.1.65 8.6.5 4.75-.15 7.55-2.4 3.25-2.6 2.5-7.35-.3-1.75-1.15-3.8-.9-2.2-1.9-3.5-2.4-3.3-4.55-3.95-1.85-.55-6.3.45z" id="cj"/><path fill="url(#U)" d="M411.7 492q-.027.197-.05.4-.15 1.8.2.7.271-.86-.15-1.1m-2.65-.6q-.1 1.1.95.85 1.5-.35 1.6-.3.053.02.1.05.624-5.14 2.5-9.95 2.65-6.75 7.05-10.55-4.35 2.1-8.2 9.25-3.3 6.05-4 10.65z" id="ck"/><path fill="#FF7F15" d="M434.4 472.15q-2.8-2.8-6.75-2.8t-6.75 2.8q-2.85 2.75-2.85 6.7t2.85 6.75q2.8 2.85 6.75 2.85t6.75-2.85q2.85-2.8 2.85-6.75t-2.85-6.7z" id="cl"/><path fill="url(#V)" d="M421.35 471.35q-2.75 1.9-3.85 5-.85 2.5 1.45 3.1 1 .2 1.8-.25 1-.55 1.3-1.95h11.2q.35 1.4 1.3 1.95.8.45 1.8.25 2.3-.6 1.45-3.1-1-3.05-3.8-5-2.85-2-6.35-2-3.5 0-6.3 2z" id="cm"/><path d="M432.5 474.8l1.35 2.95q3.05-.7 4.1-2.95.9-1.95 0-4.45.2 3.1-1.8 4.3-1.75 1.1-3.65.15z" id="cn"/><path d="M431.6 473.45l1.25 2.5q2.5-.55 3.4-2.55.85-1.95-.4-3.85.75 2.6-.9 3.75-1.55 1.1-3.35.15z" id="co"/><path fill="#FFF" d="M432.5 474.05q-2.05-1.95-4.85-1.95t-4.85 1.95q-2 2-2 4.8 0 2.85 2 4.85 2.05 2 4.85 2t4.85-2q2-2 2-4.85 0-2.8-2-4.8z" id="cp"/><path fill="url(#W)" d="M427.65 473.65q-2.15 0-3.7 1.55-1.5 1.55-1.5 3.65 0 2.2 1.5 3.7 1.55 1.5 3.7 1.5 2.2 0 3.7-1.5t1.5-3.7q0-2.1-1.5-3.65-1.55-1.55-3.7-1.55z" id="cq"/><path fill="url(#X)" d="M423.8 481.15q0 .45.3.8 1.5 1.6 3.55 1.6 2.1 0 3.45-1.6.35-.35.4-.8.05-.4-.25-.65-.6-.6-1.3.3-.95 1.1-2.3 1.1-1.35 0-2.3-1.1-.35-.45-.75-.5-.4-.05-.55.2-.25.25-.25.65z" id="cr"/><path d="M427.65 476.55q-1 0-1.7.65-.7.7-.7 1.65 0 1 .7 1.7.75.7 1.7.7 1 0 1.7-.7t.7-1.7q0-.95-.7-1.65-.7-.65-1.7-.65z" id="cs"/><path fill="#FFF" d="M430.1 478.4q-.25 0-.5.25-.2.25-.2.55 0 .25.2.5.25.25.5.25.35 0 .55-.25.25-.2.25-.5t-.25-.55q-.2-.25-.55-.25z" id="ct"/><path fill="#FFF" d="M425.5 475.6q-.6 0-1 .45-.45.4-.45 1.05 0 .6.45 1.05.4.4 1 .4.65 0 1.05-.4.45-.45.45-1.05 0-.65-.45-1.05-.4-.45-1.05-.45z" id="cu"/><path fill="url(#Y)" d="M420 490.35q-2.8 5.7-13.75 3.1-1.35-.35-2.45.65-1.35 1.2-1.15 3.15.2 1.85 1.65 2.9 1.25.9 3.05 1 4.45.35 8.2-3.05 3.55-3.2 4.45-7.75z" id="cv"/><path fill="url(#Z)" d="M407.9 494.45q-.373-.174-1.25-.4-.95-.25-1.75.55-1.25 1.25-.8 2.9.4 1.6 2 2 2.15.65 4.6-.15 2.1-.7 4-2.4 1.5-1.4 2.3-3.2.2-.5-4.15-.85-4.4-.4-4.3-.95-.848 1.807-.65 2.5z" id="cw"/><path fill="url(#aa)" d="M414.2 491.85q-2.1-.65-6.05-3.35-2.3-1.55-4.3-1.5-1.95.05-3.05 1.55-1 1.6-.35 3.35.7 2.35 4.1 3.35 2.45.75 5.55.65 3.1-.05 5.55-1.1 2.75-1.25 3.85-3.5.25-.5.3-.95-2.1 2.55-5.6 1.5z" id="cx"/><path fill="#FFF" d="M407.65 496.85q-.75 0-1.25.35-.55.3-.55.75 0 .5.55.8.5.35 1.25.35.7 0 1.2-.35.5-.3.5-.8 0-.45-.5-.75-.5-.35-1.2-.35z" id="cy"/><path fill="#F36F12" d="M419.3 489.5q-.35.2-.35.65-.05.45.2.95.25.5.65.8.4.3.7.15.35-.2.4-.65.05-.5-.25-1.05-.65-1.15-1.35-.85z" id="cz"/><path fill="url(#ab)" d="M406.4 493.7q.9-.25 1.25-1 .3-.75-.15-1.5-.5-.85-1.8-1.4-1.45-.6-2.45-.4-.95.15-1.25.9-.35.7.15 1.55.55.95 1.95 1.55 1.25.55 2.3.3z" id="cA"/><path fill="#FF7F15" d="M521.85 475.05q-4.05 4.6-8.15 7.6 5.75-2.15 10.15-7.35 4.45-5.3 5.95-11.95-3.2 6.2-7.95 11.7z" id="cB"/><path fill="#FF7F15" d="M513.95 463.3q-6.55 7.4-8.45 16.2 3-7 9.25-14.25 6.45-7.5 14-12.55-8.45 3.35-14.8 10.6z" id="cC"/><path fill="#FF7F15" d="M517.95 468.9q-5.7 6.95-9.75 13.25 5.1-4.5 11-11.6 6.05-7.25 11.05-14.9-6.15 5.8-12.3 13.25z" id="cD"/><path fill="#FF7F15" d="M521.85 495.5q4.75 5.45 7.95 11.65-1.5-6.65-5.95-11.9-4.4-5.15-10.15-7.3 4.15 3 8.15 7.55z" id="cE"/><path fill="#FF7F15" d="M513.95 507.2q6.35 7.25 14.8 10.6-7.55-5.05-14-12.55Q508.5 498 505.5 491q1.9 8.8 8.45 16.2z" id="cF"/><path fill="#FF7F15" d="M517.95 501.65q6.1 7.35 12.3 13.2-5-7.6-11.05-14.85-5.9-7.1-11-11.65 4 6.3 9.75 13.3z" id="cG"/><path fill="url(#ac)" d="M457.4 529.6q6.35 2.35 13.1.45-6.65.05-13.05-2.45-6.25-2.4-10.15-6.35 3.65 5.95 10.1 8.35z" id="cH"/><path fill="#FCE5C7" d="M399.6 582.6q-2.3 5.35-6.95 6.7 24.3 5.55 37.5-15.25 5.7-9 8-16.85 1.4-.8 2.25-.05.4.4.45-.1h.05v-2.1h-.05q-.1-1.25-.65-2.15-.7-1.15-2.4-2.1-2 .6-6.2-6.8-5.8-10.15-9.7-14.2-2.85-3-3.4-3.55-.65-.6-1-.3-2.1 1.9-6.75 1.9 15.7 10.15 21.15 21.65 1.95 4.2-7.65 5.75-3.95.45-4.6.55-.75.1 2.6.35-9.05.65-13.85 5.45-3.45 3.45-5.55 10.35-3.2 10.65-3.25 10.75z" id="cI"/><path fill="url(#ad)" d="M499.35 523.4q-3.7-7.75-10-12.95-5.6-4.65-14.2-7.9-5.25-2-7.9-3.95-3.85-2.8-4.45-6.65-1.5 3.1-1.95 5.95-.3 1.95-.15 4.55.5 8.55-6.55 13.85-6.55 4.95-15.5 4.4-2.05 4.1.7 11.35 2.7 7.15 4.8 5.65.2.7 1.3 1.3 1.05.6 1.05 1.1l52.85-16.7z" id="cJ"/><path fill="#FBBC76" d="M488.15 520.2q.35-.05 0-.95-.25-.75-.65-1.3-4.55-7.7-13.45-11.15-5.2-2-6.05-2.45-2.95-1.6-4.3-4.2 1.25 3.75 5.3 6 2.35 1.35 7.95 4.4 2.6 1.9 4.05 3.5 2.1 2.25 3.15 5.1v1.15l4-.1z" id="cK"/><path fill="#FBBC76" d="M466.95 512.7q1.85 1.15 6.3 3.8 2.05 1.7 3.15 2.95 1.6 1.9 2.35 4.25v.95h3.2q.3 0 .05-.75-.4-.8-.5-1.05-3.45-6.4-10.5-9.5-4.15-1.8-4.8-2.2-2.35-1.35-3.35-3.5.9 3.05 4.1 5.05z" id="cL"/><path fill="#FBBC76" d="M460.2 513.4q.9 3 4 4.9 1.85 1.15 6.15 3.7 2 1.6 3.05 2.9 1.55 1.85 2.3 4.15v.9h3.15q.25 0 0-.75-.2-.6-.5-1.05Q475 522 468.15 519q-4.05-1.8-4.7-2.15-2.25-1.35-3.25-3.45z" id="cM"/><path fill="url(#ae)" d="M399.15 522.1q.1.25 3.45 12.2 2.2 7.85 5.75 11.75 4.85 5.4 13.9 6.05-9.05.65-13.9 6.05-3.55 3.9-5.75 11.75-3.35 11.9-3.45 12.15-2.4 5.95-7.05 7.3 8.6 0 16.1-2.55 8.35-2.85 13.7-8.35 3.85-4.05 9.7-14.25 4.2-7.4 6.2-6.8 1.7-.95 2.4-2.1.55-.9.65-2.15h.05V551h-.05q-.2-2.65-3.05-4.25-2 .6-6.2-6.75-5.85-10.15-9.7-14.2-5.35-5.55-13.7-8.4-7.5-2.6-16.1-2.6 4.65 1.35 7.05 7.3z" id="cN"/><path fill="#FBCA91" d="M528.3 557.9q0-14-14.1-24-14.15-9.95-34-9.95t-34 9.95q-14.1 10-14.1 24 0 14.25 14.1 25 14.35 10.95 34 10.95t34-10.95q14.1-10.75 14.1-25z" id="cO"/><path fill="#FD8F26" d="M505.55 576.1q12.6-9.95 12.6-24t-12.6-24.05q-12.65-9.95-30.45-9.95-17.8 0-30.4 9.95-12.6 10-12.6 24.05t12.6 24q12.65 9.95 30.4 9.95 17.8 0 30.45-9.95z" id="cP"/><path fill="url(#af)" d="M444.05 554.75v-6h-7.9q-1.25 0-2.1.85-.85.85-.85 2.1t.85 2.15q.85.9 2.1.9h7.9z" id="cQ"/><path fill="url(#ag)" d="M435.3 551.65q0-1.35 1-2.25-2.2.2-2.2 2.25 0 2.1 2.2 2.35-1.05-1-1-2.35z" id="cR"/><path fill="url(#ah)" d="M445.45 561.35v-5.95h-8q-1.25 0-2.1.85-.85.85-.85 2.1t.85 2.1q.85.9 2.1.9h8z" id="cS"/><path fill="url(#ai)" d="M437.6 560.65q-1-.9-1-2.2-.05-1.35 1-2.4-2.15.3-2.15 2.4t2.15 2.2z" id="cT"/><path fill="url(#aj)" d="M438.65 567.1q.85.9 2.1.9h7.95v-6h-7.95q-1.25 0-2.1.85-.9.85-.9 2.1t.9 2.15z" id="cU"/><path fill="url(#ak)" d="M439.9 564.95q0-1.35 1-2.3-2.2.2-2.2 2.3 0 2.05 2.2 2.4-1-1.1-1-2.4z" id="cV"/><path fill="url(#al)" d="M445.45 542.15h-8q-1.25 0-2.1.85-.85.85-.85 2.1t.85 2.1q.85.9 2.1.9h8v-5.95z" id="cW"/><path fill="url(#am)" d="M437.6 547.4q-1-.9-1-2.2-.05-1.4 1-2.4-2.15.3-2.15 2.4t2.15 2.2z" id="cX"/><path fill="url(#an)" d="M448.7 541.5v-6h-7.95q-1.25 0-2.1.85-.9.85-.9 2.1t.9 2.15q.85.9 2.1.9h7.95z" id="cY"/><path fill="url(#ao)" d="M439.9 538.4q0-1.4 1-2.25-2.2.1-2.2 2.25 0 2.1 2.2 2.35-1-1-1-2.35z" id="cZ"/><path fill="url(#ap)" d="M440.7 554.6q1.2 1.2 2.85 1.2h10.75v-8.1h-10.75q-1.65 0-2.85 1.2-1.25 1.15-1.25 2.8 0 1.7 1.25 2.9z" id="da"/><path fill="url(#aq)" d="M442.35 551.65q0-1.85 1.35-3.05-2.95.2-2.95 3 0 2.85 2.95 3.3-1.35-1.4-1.35-3.25z" id="db"/><path fill="url(#ar)" d="M444.45 556.7q-1.7 0-2.85 1.2-1.2 1.15-1.2 2.8 0 1.7 1.2 2.9 1.15 1.2 2.85 1.2h10.8v-8.1h-10.8z" id="dc"/><path fill="url(#as)" d="M444.65 563.9q-1.35-1.2-1.4-3.05 0-1.85 1.4-3.25-2.95.4-2.95 3.25t2.95 3.05z" id="dd"/><path fill="url(#at)" d="M443.05 569.7q0 1.7 1.25 2.9 1.2 1.2 2.85 1.2h10.75v-8.1h-10.75q-1.65 0-2.85 1.2-1.25 1.15-1.25 2.8z" id="de"/><path fill="url(#au)" d="M446 569.65q0-1.85 1.3-3.05-2.95.2-2.95 3 0 2.85 2.95 3.3-1.35-1.4-1.3-3.25z" id="df"/><path fill="url(#av)" d="M444.45 538.7q-1.7 0-2.85 1.2-1.2 1.15-1.2 2.8 0 1.7 1.2 2.9 1.15 1.2 2.85 1.2h10.8v-8.1h-10.8z" id="dg"/><path fill="url(#aw)" d="M443.25 542.85q0-1.85 1.4-3.25-2.95.4-2.95 3.25t2.95 3.05q-1.35-1.2-1.4-3.05z" id="dh"/><path fill="url(#ax)" d="M457.9 537.8v-8.1h-10.75q-1.65 0-2.85 1.2-1.25 1.15-1.25 2.8 0 1.7 1.25 2.9 1.2 1.2 2.85 1.2h10.75z" id="di"/><path fill="url(#ay)" d="M446 533.65q0-1.85 1.3-3.05-2.95.2-2.95 3.05 0 2.9 2.95 3.25-1.35-1.4-1.3-3.25z" id="dj"/><path fill="url(#az)" d="M465.45 556.9v-10.3H451.9q-2.15 0-3.65 1.5t-1.5 3.6q0 2.15 1.5 3.7 1.5 1.5 3.65 1.5h13.55z" id="dk"/><path fill="url(#aA)" d="M450.45 551.6q0-2.35 1.7-3.85-3.8.25-3.8 3.85t3.8 4.1q-1.7-1.8-1.7-4.1z" id="dl"/><path fill="url(#aB)" d="M466.6 568.2V558h-13.55q-2.15 0-3.65 1.5t-1.5 3.6q0 2.1 1.5 3.6t3.65 1.5h13.55z" id="dm"/><path fill="url(#aC)" d="M453.2 567.05q-1.65-1.5-1.65-3.8 0-2.35 1.65-4.1-3.7.5-3.7 4.1 0 3.6 3.7 3.8z" id="dn"/><path fill="url(#aD)" d="M470.05 579.6v-10.3h-13.6q-2.1 0-3.6 1.55-1.5 1.5-1.5 3.6 0 2.15 1.5 3.65t3.6 1.5h13.6z" id="do"/><path fill="url(#aE)" d="M454.95 574.35q.05-2.35 1.7-3.85-3.75.25-3.75 3.8 0 3.6 3.75 4.15-1.7-1.8-1.7-4.1z" id="dp"/><path fill="url(#aF)" d="M466.6 535.25h-13.55q-2.15 0-3.65 1.5t-1.5 3.65q0 2.1 1.5 3.6t3.65 1.5h13.55v-10.25z" id="dq"/><path fill="url(#aG)" d="M453.2 544.35q-1.65-1.5-1.65-3.8t1.65-4.15q-3.7.55-3.7 4.1 0 3.6 3.7 3.85z" id="dr"/><path fill="url(#aH)" d="M470.05 534.15v-10.3h-13.6q-2.1 0-3.6 1.5-1.5 1.55-1.5 3.7 0 2.1 1.5 3.6t3.6 1.5h13.6z" id="ds"/><path fill="url(#aI)" d="M454.95 528.85q.05-2.3 1.7-3.75-3.75.2-3.75 3.8 0 3.6 3.75 4.1-1.7-1.8-1.7-4.15z" id="dt"/><path fill="url(#aJ)" d="M478.65 557.7v-11.9h-15.7q-2.45 0-4.15 1.75-1.75 1.75-1.75 4.15 0 2.5 1.75 4.25 1.7 1.75 4.15 1.75h15.7z" id="du"/><path fill="url(#aK)" d="M461.25 551.6q0-2.65 1.95-4.4-4.3.25-4.3 4.4t4.3 4.7q-1.95-2-1.95-4.7z" id="dv"/><path fill="url(#aL)" d="M480 570.8v-11.9h-15.7q-2.45 0-4.25 1.75-1.75 1.75-1.75 4.15 0 2.5 1.75 4.25t4.25 1.75H480z" id="dw"/><path fill="url(#aM)" d="M464.5 569.45q-1.95-1.75-1.95-4.45-.05-2.7 1.95-4.7-4.3.6-4.3 4.75 0 4.1 4.3 4.4z" id="dx"/><path fill="url(#aN)" d="M483.9 583.9V572h-15.7q-2.45 0-4.15 1.75-1.75 1.8-1.75 4.25t1.75 4.15q1.7 1.75 4.15 1.75h15.7z" id="dy"/><path fill="url(#aO)" d="M466.5 577.8q.05-2.65 2-4.4-4.35.25-4.35 4.4t4.35 4.75q-2-2.05-2-4.75z" id="dz"/><path fill="url(#aP)" d="M480 532.7h-15.7q-2.45 0-4.25 1.75-1.75 1.7-1.75 4.15t1.75 4.2q1.8 1.8 4.25 1.8H480v-11.9z" id="dA"/><path fill="url(#aQ)" d="M464.5 543.2q-1.95-1.75-1.95-4.4-.05-2.7 1.95-4.7-4.3.55-4.3 4.7t4.3 4.4z" id="dB"/><path fill="url(#aR)" d="M483.9 531.4v-11.8h-15.7q-2.45 0-4.15 1.75-1.75 1.7-1.75 4.15t1.75 4.15q1.7 1.75 4.15 1.75h15.7z" id="dC"/><path fill="url(#aS)" d="M466.5 525.35q.05-2.6 2-4.4-4.35.25-4.35 4.4t4.35 4.75q-2-2.1-2-4.75z" id="dD"/><path fill="url(#aT)" d="M505.35 537.85q-3.25-8.3-19-19.05-8.7 1.7-14.2 11.65-5.1 9.15-5.55 21.4-.45 12.45 4.15 21.6 5.15 10.1 14.85 12.05 8 1.6 14.75-12.1 5.85-11.8 5.85-21.3.25-4.8.3-7.1.05-4-1.15-7.15z" id="dE"/><path fill="url(#aU)" d="M513.6 530.7q-9.5-8.55-23.95-11.65-4.55-1-6.2-.6-2.1.5-4.45 3.8-6.7 9.2-8.6 26.9-2 19.05 4.55 28.9 4.2 6.25 12.35 7.15 7.2.85 16.05-2.55 8.25-3.1 14.95-8.65 6.85-5.6 9-11.2 1.9-3.4 2.3-4.3.6-1.25-.55-4.05-6-15.25-15.45-23.75z" id="dF"/><path fill="#FBAC59" d="M517.05 569.9q-1.1 5.4-4.8 8.4 5.2-3.2 9.1-7.05 3.95-3.95 5.65-7.75l-.7-1.55-10-.75q1.75 3.7.75 8.7z" id="dG"/><path fill="url(#aV)" d="M496 580.5q9.8-1.3 18.5-7.1-25.55 9.05-33.4-8.4-6.4-14.3.2-41.15-5.5 11.8-6.7 25.5-1.35 15.6 4.25 24.7 4.85 8.05 17.15 6.45z" id="dH"/><path fill="url(#aW)" d="M514.4 529.9q-9.65-9.4-23.8-12.45-4.45-1-6.3-.45-2.15.6-4.6 3.95-1 1.35-1.85 3.5-.9 2.1-1.15 3.8-.75 4.75 2.5 7.4 2.7 2.2 7.55 2.4 3.4.15 8.6-.55 2.9-.4 8.2-1.25 8.7-1.3 14.3 6.8 4.85 7.05 4.85 16.3l7.4-1.15q.65-1.25-.35-3.75-6.15-15.65-15.35-24.55z" id="dI"/><path fill="url(#aX)" d="M522.5 558.8q.047-.029.1-.05.05 0 1.65.35 1.1.2.9-.9-.7-4.65-3.95-10.65-3.85-7.15-8.15-9.25 4.3 3.8 6.95 10.55 1.877 4.86 2.5 9.95m0 0q-.373.25-.15 1.1.35 1.1.2-.7-.023-.2-.05-.4z" id="dJ"/><path fill="#FF7F15" d="M506.55 536.15q-3.95 0-6.75 2.8-2.8 2.75-2.8 6.7t2.8 6.8q2.8 2.8 6.75 2.8t6.75-2.8q2.85-2.85 2.85-6.8 0-3.95-2.85-6.7-2.8-2.8-6.75-2.8z" id="dK"/><path fill="url(#aY)" d="M500.95 544.1h11.3q.3 1.35 1.3 1.9.85.5 1.8.25 2.2-.6 1.35-3.1-1-3.05-3.8-5-2.8-2-6.25-2h-.1q-3.5 0-6.3 2-2.75 1.9-3.85 5-.75 2.5 1.45 3.1.95.25 1.8-.25 1-.55 1.3-1.9z" id="dL"/><path d="M496.35 537.1q-.95 2.5 0 4.55 1 2.25 4 2.95l1.4-2.95q-1.95.9-3.65-.15-2-1.25-1.75-4.4z" id="dM"/><path d="M501.4 542.8l1.2-2.55q-1.8.95-3.35-.1-1.65-1.15-.9-3.75-1.2 1.9-.35 3.8.9 2 3.4 2.6z" id="dN"/><path fill="#FFF" d="M506.55 538.9q-2.8 0-4.85 2-2 2-2 4.75 0 2.8 2 4.85 2.05 2 4.85 2t4.85-2q2-2.05 2-4.85 0-2.75-2-4.75-2.05-2-4.85-2z" id="dO"/><path fill="url(#aZ)" d="M510.25 542.05q-1.55-1.55-3.7-1.55-2.15 0-3.65 1.55-1.5 1.5-1.5 3.6 0 2.15 1.5 3.7 1.5 1.5 3.65 1.5 2.2 0 3.7-1.5t1.5-3.7q0-2.1-1.5-3.6z" id="dP"/><path fill="url(#ba)" d="M510.25 547.3q-.7-.6-1.4.3-.95 1.1-2.3 1.1-1.35 0-2.2-1.1-.75-.85-1.4-.3-.6.5.15 1.45 1.45 1.6 3.45 1.6 2.1 0 3.55-1.6.3-.35.3-.8.05-.4-.15-.65z" id="dQ"/><path d="M508.25 544q-.7-.7-1.7-.7-.95 0-1.65.7t-.7 1.65q0 1 .7 1.7t1.65.7q1 0 1.7-.7t.7-1.7q0-.95-.7-1.65z" id="dR"/><path fill="#FFF" d="M504.85 546.05q0-.8-.75-.8-.7 0-.7.8 0 .7.7.7.75 0 .75-.7z" id="dS"/><path fill="#FFF" d="M509.8 542.9q-.5-.45-1.1-.45-.6 0-1.05.45-.45.45-.45 1.05 0 .6.45 1.05.5.4 1.05.4.6 0 1.1-.4.45-.45.45-1.05 0-.6-.45-1.05z" id="dT"/><path fill="url(#bb)" d="M514.2 557.2q.9 4.5 4.5 7.7 3.75 3.4 8.25 3.1 1.75-.15 2.95-1 1.5-1.05 1.65-2.95.2-1.85-1.1-3.1-1.15-1.05-2.5-.65-4.65 1.05-7.6.75-4.4-.5-6.15-3.85z" id="dU"/><path fill="url(#bc)" d="M526.05 561.7q.79-.469-.4-2.95.1.55-4.3.95-4.35.35-4.15.85 1 1.8 2.3 3.2 1.9 1.7 4.05 2.45 2.4.8 4.55.15 1.65-.45 2.05-2.05.45-1.65-.85-2.85-.65-.85-1.7-.6l-1.55.85z" id="dV"/><path fill="url(#bd)" d="M526.05 555.3q-3.95 2.7-6.05 3.35-3.5 1.05-5.6-1.45.2.75.3.9 1.15 2.25 3.9 3.5 2.4 1.05 5.55 1.15 3.15.05 5.55-.65 3.4-1.05 4.15-3.4.5-1.75-.45-3.3-1-1.55-3-1.6-1.95 0-4.35 1.5z" id="dW"/><path fill="#FFF" d="M524.85 564.75q0 .5.5.8.55.35 1.25.35.75 0 1.3-.35.5-.3.5-.8 0-.45-.5-.75-.55-.35-1.3-.35-.7 0-1.25.35-.5.3-.5.75z" id="dX"/><path fill="url(#be)" d="M488.75 590.75q1.35-4.5-1-7.35-3.05-3.75-12-1.95-3.25.7-10.6 3.5-6.85 2.65-10.2 3.15 4.85.7 5.05 3.95.1 1.6-1.1 2.9-1.15 1.3-2.8 1.5 4.8 0 4.45 3.15-.3 3.1-4.25 4.4 7.2 1.7 15.2 0 8.45-1.85 13.3-6.65 2.85-2.7 3.95-6.6z" id="dY"/><path fill="#F36F12" d="M515.15 557.9q.45-1.2-.25-1.6-.25-.15-.65.15-.45.25-.7.75-.2.5-.15 1 .05.5.3.65.3.15.75-.1.4-.3.7-.85z" id="dZ"/><path fill="url(#bf)" d="M531 556.2q-1-.2-2.5.4-1.3.55-1.8 1.45-.45.75-.1 1.45.35.75 1.25 1 1 .25 2.25-.3 1.45-.6 2-1.55.5-.8.15-1.55-.3-.75-1.25-.9z" id="ea"/><path fill="#FF7F15" d="M420.5 549.5q-4.1-3-8.1-7.65-4.75-5.45-8-11.65 1.5 6.6 5.95 11.9 4.4 5.2 10.15 7.4z" id="eb"/><path fill="#FF7F15" d="M420.3 530.15q-6.4-7.25-14.8-10.6 7.5 5 13.95 12.5 6.25 7.25 9.3 14.25-1.9-8.75-8.45-16.15z" id="ec"/><path fill="#FF7F15" d="M426 549q-3.95-6.25-9.75-13.3-6.1-7.35-12.3-13.2 5 7.6 11.1 14.85 5.9 7.1 10.95 11.65z" id="ed"/><path fill="#FF7F15" d="M412.4 562.35q4-4.6 8.1-7.6-5.75 2.1-10.15 7.3-4.45 5.3-5.95 11.9 3.25-6.2 8-11.6z" id="ee"/><path fill="#FF7F15" d="M405.5 584.6q8.4-3.3 14.8-10.55 6.55-7.45 8.45-16.2-3.05 7-9.3 14.25-6.45 7.5-13.95 12.5z" id="ef"/><path fill="#FF7F15" d="M416.25 568.45q5.8-7 9.75-13.3-5.05 4.6-10.95 11.65-6.05 7.25-11.1 14.85 6.2-5.8 12.3-13.2z" id="eg"/><path fill="url(#bg)" d="M463.8 596.85q6.7 1.95 13-.4 6.45-2.4 10.1-8.35-3.9 3.95-10.15 6.35-6.4 2.5-12.95 2.4z" id="eh"/><path fill="url(#bh)" d="M462.8 589.75q5.9 2.4 11.9.9 6.2-1.5 10.05-6.6-4 3.2-9.9 4.8-6.1 1.65-12.05.9z" id="ei"/></defs><use xlink:href="#bi"/><use xlink:href="#bj" transform="matrix(1.5801 0 0 1.5801 -596.005 -638.727)"/><use xlink:href="#bk" transform="matrix(1.5801 0 0 1.5801 -596.005 -638.727)"/><use xlink:href="#bl" transform="matrix(1.5801 0 0 1.5801 -596.005 -638.727)"/><use xlink:href="#bm" transform="matrix(1.5801 0 0 1.5801 -596.005 -638.727)"/><use xlink:href="#bn" transform="matrix(1.5801 0 0 1.5801 -596.005 -638.727)"/><use xlink:href="#bo" transform="matrix(1.5801 0 0 1.5801 -596.005 -638.727)"/><use xlink:href="#bp" transform="matrix(1.5801 0 0 1.5801 -596.005 -638.727)"/><use xlink:href="#bq" transform="matrix(1.5801 0 0 1.5801 -596.005 -638.727)"/><use xlink:href="#br" transform="matrix(1.5801 0 0 1.5801 -596.005 -638.727)"/><use xlink:href="#bs" transform="matrix(1.5801 0 0 1.5801 -596.005 -638.727)"/><use xlink:href="#bt" transform="matrix(1.5801 0 0 1.5801 -596.005 -638.727)"/><use xlink:href="#bu" transform="matrix(1.5801 0 0 1.5801 -596.005 -638.727)"/><use xlink:href="#bv" transform="matrix(1.5801 0 0 1.5801 -596.005 -638.727)"/><use xlink:href="#bw" transform="matrix(1.5801 0 0 1.5801 -596.005 -638.727)"/><use xlink:href="#bx" transform="matrix(1.5801 0 0 1.5801 -596.005 -638.727)"/><use xlink:href="#by" transform="matrix(1.5801 0 0 1.5801 -596.005 -638.727)"/><use xlink:href="#bz" transform="matrix(1.5801 0 0 1.5801 -596.005 -638.727)"/><use xlink:href="#bA" transform="matrix(1.5801 0 0 1.5801 -596.005 -638.727)"/><use xlink:href="#bB" transform="matrix(1.5801 0 0 1.5801 -596.005 -638.727)"/><use xlink:href="#bC" transform="matrix(1.5801 0 0 1.5801 -596.005 -638.727)"/><use xlink:href="#bD" transform="matrix(1.5801 0 0 1.5801 -596.005 -638.727)"/><use xlink:href="#bE" transform="matrix(1.5801 0 0 1.5801 -596.005 -638.727)"/><use xlink:href="#bF" transform="matrix(1.5801 0 0 1.5801 -596.005 -638.727)"/><use xlink:href="#bG" transform="matrix(1.5801 0 0 1.5801 -596.005 -638.727)"/><use xlink:href="#bH" transform="matrix(1.5801 0 0 1.5801 -596.005 -638.727)"/><use xlink:href="#bI" transform="matrix(1.5801 0 0 1.5801 -596.005 -638.727)"/><use xlink:href="#bJ" transform="matrix(1.5801 0 0 1.5801 -596.005 -638.727)"/><use xlink:href="#bK" transform="matrix(1.5801 0 0 1.5801 -596.005 -638.727)"/><use xlink:href="#bL" transform="matrix(1.5801 0 0 1.5801 -596.005 -638.727)"/><use xlink:href="#bM" transform="matrix(1.5801 0 0 1.5801 -596.005 -638.727)"/><use xlink:href="#bN" transform="matrix(1.5801 0 0 1.5801 -596.005 -638.727)"/><use xlink:href="#bO" transform="matrix(1.5801 0 0 1.5801 -596.005 -638.727)"/><use xlink:href="#bP" transform="matrix(1.5801 0 0 1.5801 -596.005 -638.727)"/><use xlink:href="#bQ" transform="matrix(1.5801 0 0 1.5801 -596.005 -638.727)"/><use xlink:href="#bR" transform="matrix(1.5801 0 0 1.5801 -596.005 -638.727)"/><use xlink:href="#bS" transform="matrix(1.5801 0 0 1.5801 -596.005 -638.727)"/><use xlink:href="#bT" transform="matrix(1.5801 0 0 1.5801 -596.005 -638.727)"/><use xlink:href="#bU" transform="matrix(1.5801 0 0 1.5801 -596.005 -638.727)"/><use xlink:href="#bV" transform="matrix(1.5801 0 0 1.5801 -596.005 -638.727)"/><use xlink:href="#bW" transform="matrix(1.5801 0 0 1.5801 -596.005 -638.727)"/><use xlink:href="#bX" transform="matrix(1.5801 0 0 1.5801 -596.005 -638.727)"/><use xlink:href="#bY" transform="matrix(1.5801 0 0 1.5801 -596.005 -638.727)"/><use xlink:href="#bZ" transform="matrix(1.5801 0 0 1.5801 -596.005 -638.727)"/><use xlink:href="#ca" transform="matrix(1.5801 0 0 1.5801 -596.005 -638.727)"/><use xlink:href="#cb" transform="matrix(1.5801 0 0 1.5801 -596.005 -638.727)"/><use xlink:href="#cc" transform="matrix(1.5801 0 0 1.5801 -596.005 -638.727)"/><use xlink:href="#cd" transform="matrix(1.5801 0 0 1.5801 -596.005 -638.727)"/><use xlink:href="#ce" transform="matrix(1.5801 0 0 1.5801 -596.005 -638.727)"/><use xlink:href="#cf" transform="matrix(1.5801 0 0 1.5801 -596.005 -638.727)"/><use xlink:href="#cg" transform="matrix(1.5801 0 0 1.5801 -596.005 -638.727)"/><use xlink:href="#ch" transform="matrix(1.5801 0 0 1.5801 -596.005 -638.727)"/><use xlink:href="#ci" transform="matrix(1.5801 0 0 1.5801 -596.005 -638.727)"/><use xlink:href="#cj" transform="matrix(1.5801 0 0 1.5801 -596.005 -638.727)"/><use xlink:href="#ck" transform="matrix(1.5801 0 0 1.5801 -596.005 -638.727)"/><use xlink:href="#cl" transform="matrix(1.5801 0 0 1.5801 -596.005 -638.727)"/><use xlink:href="#cm" transform="matrix(1.5801 0 0 1.5801 -596.005 -638.727)"/><use xlink:href="#cn" transform="matrix(1.5801 0 0 1.5801 -596.005 -638.727)"/><use xlink:href="#co" transform="matrix(1.5801 0 0 1.5801 -596.005 -638.727)"/><use xlink:href="#cp" transform="matrix(1.5801 0 0 1.5801 -596.005 -638.727)"/><use xlink:href="#cq" transform="matrix(1.5801 0 0 1.5801 -596.005 -638.727)"/><use xlink:href="#cr" transform="matrix(1.5801 0 0 1.5801 -596.005 -638.727)"/><use xlink:href="#cs" transform="matrix(1.5801 0 0 1.5801 -596.005 -638.727)"/><use xlink:href="#ct" transform="matrix(1.5801 0 0 1.5801 -596.005 -638.727)"/><use xlink:href="#cu" transform="matrix(1.5801 0 0 1.5801 -596.005 -638.727)"/><use xlink:href="#cv" transform="matrix(1.5801 0 0 1.5801 -596.005 -638.727)"/><use xlink:href="#cw" transform="matrix(1.5801 0 0 1.5801 -596.005 -638.727)"/><use xlink:href="#cx" transform="matrix(1.5801 0 0 1.5801 -596.005 -638.727)"/><use xlink:href="#cy" transform="matrix(1.5801 0 0 1.5801 -596.005 -638.727)"/><use xlink:href="#cz" transform="matrix(1.5801 0 0 1.5801 -596.005 -638.727)"/><use xlink:href="#cA" transform="matrix(1.5801 0 0 1.5801 -596.005 -638.727)"/><use xlink:href="#cB" transform="matrix(1.5801 0 0 1.5801 -596.005 -638.727)"/><use xlink:href="#cC" transform="matrix(1.5801 0 0 1.5801 -596.005 -638.727)"/><use xlink:href="#cD" transform="matrix(1.5801 0 0 1.5801 -596.005 -638.727)"/><use xlink:href="#cE" transform="matrix(1.5801 0 0 1.5801 -596.005 -638.727)"/><use xlink:href="#cF" transform="matrix(1.5801 0 0 1.5801 -596.005 -638.727)"/><use xlink:href="#cG" transform="matrix(1.5801 0 0 1.5801 -596.005 -638.727)"/><use xlink:href="#cH" transform="matrix(1.5801 0 0 1.5801 -596.005 -638.727)"/><use xlink:href="#cI" transform="matrix(1.5801 0 0 1.5801 -596.005 -638.727)"/><use xlink:href="#cJ" transform="matrix(1.5801 0 0 1.5801 -596.005 -638.727)"/><use xlink:href="#cK" transform="matrix(1.5801 0 0 1.5801 -596.005 -638.727)"/><use xlink:href="#cL" transform="matrix(1.5801 0 0 1.5801 -596.005 -638.727)"/><use xlink:href="#cM" transform="matrix(1.5801 0 0 1.5801 -596.005 -638.727)"/><use xlink:href="#cN" transform="matrix(1.5801 0 0 1.5801 -596.005 -638.727)"/><use xlink:href="#cO" transform="matrix(1.5801 0 0 1.5801 -596.005 -638.727)"/><use xlink:href="#cP" transform="matrix(1.5801 0 0 1.5801 -596.005 -638.727)"/><use xlink:href="#cQ" transform="matrix(1.5801 0 0 1.5801 -596.005 -638.727)"/><use xlink:href="#cR" transform="matrix(1.5801 0 0 1.5801 -596.005 -638.727)"/><use xlink:href="#cS" transform="matrix(1.5801 0 0 1.5801 -596.005 -638.727)"/><use xlink:href="#cT" transform="matrix(1.5801 0 0 1.5801 -596.005 -638.727)"/><use xlink:href="#cU" transform="matrix(1.5801 0 0 1.5801 -596.005 -638.727)"/><use xlink:href="#cV" transform="matrix(1.5801 0 0 1.5801 -596.005 -638.727)"/><use xlink:href="#cW" transform="matrix(1.5801 0 0 1.5801 -596.005 -638.727)"/><use xlink:href="#cX" transform="matrix(1.5801 0 0 1.5801 -596.005 -638.727)"/><use xlink:href="#cY" transform="matrix(1.5801 0 0 1.5801 -596.005 -638.727)"/><use xlink:href="#cZ" transform="matrix(1.5801 0 0 1.5801 -596.005 -638.727)"/><use xlink:href="#da" transform="matrix(1.5801 0 0 1.5801 -596.005 -638.727)"/><use xlink:href="#db" transform="matrix(1.5801 0 0 1.5801 -596.005 -638.727)"/><use xlink:href="#dc" transform="matrix(1.5801 0 0 1.5801 -596.005 -638.727)"/><use xlink:href="#dd" transform="matrix(1.5801 0 0 1.5801 -596.005 -638.727)"/><use xlink:href="#de" transform="matrix(1.5801 0 0 1.5801 -596.005 -638.727)"/><use xlink:href="#df" transform="matrix(1.5801 0 0 1.5801 -596.005 -638.727)"/><use xlink:href="#dg" transform="matrix(1.5801 0 0 1.5801 -596.005 -638.727)"/><use xlink:href="#dh" transform="matrix(1.5801 0 0 1.5801 -596.005 -638.727)"/><use xlink:href="#di" transform="matrix(1.5801 0 0 1.5801 -596.005 -638.727)"/><use xlink:href="#dj" transform="matrix(1.5801 0 0 1.5801 -596.005 -638.727)"/><use xlink:href="#dk" transform="matrix(1.5801 0 0 1.5801 -596.005 -638.727)"/><use xlink:href="#dl" transform="matrix(1.5801 0 0 1.5801 -596.005 -638.727)"/><use xlink:href="#dm" transform="matrix(1.5801 0 0 1.5801 -596.005 -638.727)"/><use xlink:href="#dn" transform="matrix(1.5801 0 0 1.5801 -596.005 -638.727)"/><use xlink:href="#do" transform="matrix(1.5801 0 0 1.5801 -596.005 -638.727)"/><use xlink:href="#dp" transform="matrix(1.5801 0 0 1.5801 -596.005 -638.727)"/><use xlink:href="#dq" transform="matrix(1.5801 0 0 1.5801 -596.005 -638.727)"/><use xlink:href="#dr" transform="matrix(1.5801 0 0 1.5801 -596.005 -638.727)"/><use xlink:href="#ds" transform="matrix(1.5801 0 0 1.5801 -596.005 -638.727)"/><use xlink:href="#dt" transform="matrix(1.5801 0 0 1.5801 -596.005 -638.727)"/><use xlink:href="#du" transform="matrix(1.5801 0 0 1.5801 -596.005 -638.727)"/><use xlink:href="#dv" transform="matrix(1.5801 0 0 1.5801 -596.005 -638.727)"/><use xlink:href="#dw" transform="matrix(1.5801 0 0 1.5801 -596.005 -638.727)"/><use xlink:href="#dx" transform="matrix(1.5801 0 0 1.5801 -596.005 -638.727)"/><use xlink:href="#dy" transform="matrix(1.5801 0 0 1.5801 -596.005 -638.727)"/><use xlink:href="#dz" transform="matrix(1.5801 0 0 1.5801 -596.005 -638.727)"/><use xlink:href="#dA" transform="matrix(1.5801 0 0 1.5801 -596.005 -638.727)"/><use xlink:href="#dB" transform="matrix(1.5801 0 0 1.5801 -596.005 -638.727)"/><use xlink:href="#dC" transform="matrix(1.5801 0 0 1.5801 -596.005 -638.727)"/><use xlink:href="#dD" transform="matrix(1.5801 0 0 1.5801 -596.005 -638.727)"/><use xlink:href="#dE" transform="matrix(1.5801 0 0 1.5801 -596.005 -638.727)"/><use xlink:href="#dF" transform="matrix(1.5801 0 0 1.5801 -596.005 -638.727)"/><use xlink:href="#dG" transform="matrix(1.5801 0 0 1.5801 -596.005 -638.727)"/><use xlink:href="#dH" transform="matrix(1.5801 0 0 1.5801 -596.005 -638.727)"/><use xlink:href="#dI" transform="matrix(1.5801 0 0 1.5801 -596.005 -638.727)"/><use xlink:href="#dJ" transform="matrix(1.5801 0 0 1.5801 -596.005 -638.727)"/><use xlink:href="#dK" transform="matrix(1.5801 0 0 1.5801 -596.005 -638.727)"/><use xlink:href="#dL" transform="matrix(1.5801 0 0 1.5801 -596.005 -638.727)"/><use xlink:href="#dM" transform="matrix(1.5801 0 0 1.5801 -596.005 -638.727)"/><use xlink:href="#dN" transform="matrix(1.5801 0 0 1.5801 -596.005 -638.727)"/><use xlink:href="#dO" transform="matrix(1.5801 0 0 1.5801 -596.005 -638.727)"/><use xlink:href="#dP" transform="matrix(1.5801 0 0 1.5801 -596.005 -638.727)"/><use xlink:href="#dQ" transform="matrix(1.5801 0 0 1.5801 -596.005 -638.727)"/><use xlink:href="#dR" transform="matrix(1.5801 0 0 1.5801 -596.005 -638.727)"/><use xlink:href="#dS" transform="matrix(1.5801 0 0 1.5801 -596.005 -638.727)"/><use xlink:href="#dT" transform="matrix(1.5801 0 0 1.5801 -596.005 -638.727)"/><use xlink:href="#dU" transform="matrix(1.5801 0 0 1.5801 -596.005 -638.727)"/><use xlink:href="#dV" transform="matrix(1.5801 0 0 1.5801 -596.005 -638.727)"/><use xlink:href="#dW" transform="matrix(1.5801 0 0 1.5801 -596.005 -638.727)"/><use xlink:href="#dX" transform="matrix(1.5801 0 0 1.5801 -596.005 -638.727)"/><use xlink:href="#dY" transform="matrix(1.5801 0 0 1.5801 -596.005 -638.727)"/><use xlink:href="#dZ" transform="matrix(1.5801 0 0 1.5801 -596.005 -638.727)"/><use xlink:href="#ea" transform="matrix(1.5801 0 0 1.5801 -596.005 -638.727)"/><use xlink:href="#eb" transform="matrix(1.5801 0 0 1.5801 -596.005 -638.727)"/><use xlink:href="#ec" transform="matrix(1.5801 0 0 1.5801 -596.005 -638.727)"/><use xlink:href="#ed" transform="matrix(1.5801 0 0 1.5801 -596.005 -638.727)"/><use xlink:href="#ee" transform="matrix(1.5801 0 0 1.5801 -596.005 -638.727)"/><use xlink:href="#ef" transform="matrix(1.5801 0 0 1.5801 -596.005 -638.727)"/><use xlink:href="#eg" transform="matrix(1.5801 0 0 1.5801 -596.005 -638.727)"/><use xlink:href="#eh" transform="matrix(1.5801 0 0 1.5801 -596.005 -638.727)"/><use xlink:href="#ei" transform="matrix(1.5801 0 0 1.5801 -596.005 -638.727)"/></svg>