<svg xmlns="http://www.w3.org/2000/svg" xmlns:xlink="http://www.w3.org/1999/xlink" preserveAspectRatio="none" width="284" height="320"><defs><linearGradient id="a" gradientUnits="userSpaceOnUse" x1="523.2" y1="663.55" x2="523.2" y2="695.15" spreadMethod="pad"><stop offset="0%" stop-color="#616264"/><stop offset="100%" stop-color="#363435"/></linearGradient><linearGradient id="b" gradientUnits="userSpaceOnUse" x1="513.225" y1="675.825" x2="525.575" y2="688.175" spreadMethod="pad"><stop offset="0%" stop-color="#AFB1B3"/><stop offset="100%" stop-color="#6D6E70"/></linearGradient><linearGradient id="c" gradientUnits="userSpaceOnUse" x1="622.35" y1="663.55" x2="622.35" y2="695.15" spreadMethod="pad"><stop offset="0%" stop-color="#5A5A5C"/><stop offset="100%" stop-color="#363435"/></linearGradient><linearGradient id="d" gradientUnits="userSpaceOnUse" x1="632.525" y1="675.625" x2="620.175" y2="687.975" spreadMethod="pad"><stop offset="0%" stop-color="#AFB1B3"/><stop offset="100%" stop-color="#6D6E70"/></linearGradient><linearGradient id="e" gradientUnits="userSpaceOnUse" x1="572.8" y1="721.55" x2="572.8" y2="689.25" spreadMethod="pad"><stop offset="0%" stop-color="#D2D3D5"/><stop offset="100%" stop-color="#E6E7E8"/></linearGradient><linearGradient id="f" gradientUnits="userSpaceOnUse" x1="600.1" y1="710.512" x2="600.1" y2="732.288" spreadMethod="pad"><stop offset="0%" stop-color="#5F6062"/><stop offset="100%" stop-color="#848688"/></linearGradient><linearGradient id="g" gradientUnits="userSpaceOnUse" x1="545.55" y1="710.512" x2="545.55" y2="732.288" spreadMethod="pad"><stop offset="0%" stop-color="#5F6062"/><stop offset="100%" stop-color="#848688"/></linearGradient><linearGradient id="h" gradientUnits="userSpaceOnUse" x1="572.8" y1="764.512" x2="572.8" y2="723.288" spreadMethod="pad"><stop offset="0%" stop-color="#D2D3D5"/><stop offset="100%" stop-color="#E8E9EA"/></linearGradient><linearGradient id="i" gradientUnits="userSpaceOnUse" x1="572.8" y1="733.5" x2="572.8" y2="721.7" spreadMethod="pad"><stop offset="0%" stop-color="#E6E7E8"/><stop offset="100%" stop-color="#FFF"/></linearGradient><linearGradient id="j" gradientUnits="userSpaceOnUse" x1="572.8" y1="729.4" x2="572.8" y2="737.1" spreadMethod="pad"><stop offset="0%" stop-color="#5C5C5E"/><stop offset="100%" stop-color="#363435"/></linearGradient><linearGradient id="k" gradientUnits="userSpaceOnUse" x1="572.8" y1="735.5" x2="572.8" y2="727.8" spreadMethod="pad"><stop offset="0%" stop-color="#3D3B3C"/><stop offset="100%" stop-color="#848688"/></linearGradient><linearGradient id="l" gradientUnits="userSpaceOnUse" x1="564.387" y1="730.35" x2="571.413" y2="730.35" spreadMethod="pad"><stop offset="0%" stop-color="#FFF"/><stop offset="100%" stop-color="#E9E0DD"/></linearGradient><linearGradient id="m" gradientUnits="userSpaceOnUse" x1="579.638" y1="731.725" x2="572.862" y2="738.275" spreadMethod="pad"><stop offset="0%" stop-color="#949699"/><stop offset="100%" stop-color="#5A5A5C"/></linearGradient><linearGradient id="n" gradientUnits="userSpaceOnUse" x1="572.8" y1="698.512" x2="572.8" y2="674.788" spreadMethod="pad"><stop offset="0%" stop-color="#E6E7E8"/><stop offset="100%" stop-color="#FFF"/></linearGradient><linearGradient id="o" gradientUnits="userSpaceOnUse" x1="598.7" y1="705.513" x2="598.7" y2="718.688" spreadMethod="pad"><stop offset="0%" stop-color="#363435"/><stop offset="100%" stop-color="#96989A"/></linearGradient><linearGradient id="p" gradientUnits="userSpaceOnUse" x1="603.762" y1="715.8" x2="593.538" y2="715.8" spreadMethod="pad"><stop offset="0%" stop-color="#96989A"/><stop offset="49.02%" stop-color="#BDBFC1"/><stop offset="100%" stop-color="#96989A"/></linearGradient><linearGradient id="q" gradientUnits="userSpaceOnUse" x1="546.9" y1="705.513" x2="546.9" y2="718.688" spreadMethod="pad"><stop offset="0%" stop-color="#363435"/><stop offset="100%" stop-color="#96989A"/></linearGradient><linearGradient id="r" gradientUnits="userSpaceOnUse" x1="551.725" y1="715.8" x2="541.475" y2="715.8" spreadMethod="pad"><stop offset="0%" stop-color="#96989A"/><stop offset="49.02%" stop-color="#BDBFC1"/><stop offset="100%" stop-color="#96989A"/></linearGradient><linearGradient id="s" gradientUnits="userSpaceOnUse" x1="572.8" y1="785.338" x2="572.8" y2="843.563" spreadMethod="pad"><stop offset="0%" stop-color="#E691BC"/><stop offset="100%" stop-color="#D82D8E"/></linearGradient><linearGradient id="t" gradientUnits="userSpaceOnUse" x1="573.15" y1="881.475" x2="573.15" y2="779.825" spreadMethod="pad"><stop offset="0%" stop-color="#C82C87"/><stop offset="36.078%" stop-color="#DB589E"/><stop offset="100%" stop-color="#EEBAD5"/></linearGradient><linearGradient id="u" gradientUnits="userSpaceOnUse" x1="573.15" y1="849.512" x2="573.15" y2="769.788" spreadMethod="pad"><stop offset="0%" stop-color="#DE65A4"/><stop offset="43.922%" stop-color="#EAA5C8"/><stop offset="100%" stop-color="#FCE9F1"/></linearGradient><linearGradient id="v" gradientUnits="userSpaceOnUse" x1="543.412" y1="766.288" x2="490.187" y2="821.413" spreadMethod="pad"><stop offset="0%" stop-color="#FFF"/><stop offset="41.961%" stop-color="#FFF"/><stop offset="100%" stop-color="#EEBAD5"/></linearGradient><linearGradient id="w" gradientUnits="userSpaceOnUse" x1="573.15" y1="906.5" x2="573.15" y2="882.1" spreadMethod="pad"><stop offset="0%" stop-color="#EEBAD5"/><stop offset="100%" stop-color="#DB4C99"/></linearGradient><linearGradient id="x" gradientUnits="userSpaceOnUse" x1="513.125" y1="849.762" x2="521.375" y2="885.538" spreadMethod="pad"><stop offset="0%" stop-color="#727476"/><stop offset="100%" stop-color="#363435"/></linearGradient><linearGradient id="y" gradientUnits="userSpaceOnUse" x1="520.375" y1="876.975" x2="514.825" y2="858.825" spreadMethod="pad"><stop offset="0%" stop-color="#7B7D7F"/><stop offset="100%" stop-color="#B7B9BB"/></linearGradient><linearGradient id="z" gradientUnits="userSpaceOnUse" x1="499.05" y1="853.8" x2="505.85" y2="861.9" spreadMethod="pad"><stop offset="0%" stop-color="#B1B3B5"/><stop offset="100%" stop-color="#7D7F81"/></linearGradient><linearGradient id="A" gradientUnits="userSpaceOnUse" x1="509.137" y1="846.488" x2="512.362" y2="854.913" spreadMethod="pad"><stop offset="0%" stop-color="#B1B3B5"/><stop offset="100%" stop-color="#7D7F81"/></linearGradient><linearGradient id="B" gradientUnits="userSpaceOnUse" x1="520.05" y1="846.637" x2="523.15" y2="855.163" spreadMethod="pad"><stop offset="0%" stop-color="#B1B3B5"/><stop offset="100%" stop-color="#7D7F81"/></linearGradient><linearGradient id="C" gradientUnits="userSpaceOnUse" x1="509.988" y1="865.913" x2="527.712" y2="860.488" spreadMethod="pad"><stop offset="0%" stop-color="#C7C9CB"/><stop offset="100%" stop-color="#FFF"/></linearGradient><linearGradient id="D" gradientUnits="userSpaceOnUse" x1="483.75" y1="758.3" x2="503.55" y2="775.5" spreadMethod="pad"><stop offset="0%" stop-color="#363435"/><stop offset="100%" stop-color="#727476"/></linearGradient><linearGradient id="E" gradientUnits="userSpaceOnUse" x1="510.113" y1="765.975" x2="491.088" y2="748.225" spreadMethod="pad"><stop offset="0%" stop-color="#848688"/><stop offset="100%" stop-color="#A9ABAD"/></linearGradient><linearGradient id="F" gradientUnits="userSpaceOnUse" x1="661.85" y1="757.925" x2="642.35" y2="775.475" spreadMethod="pad"><stop offset="0%" stop-color="#363435"/><stop offset="100%" stop-color="#727476"/></linearGradient><linearGradient id="G" gradientUnits="userSpaceOnUse" x1="633.65" y1="767.425" x2="655.55" y2="748.375" spreadMethod="pad"><stop offset="0%" stop-color="#848688"/><stop offset="100%" stop-color="#A9ABAD"/></linearGradient><linearGradient id="H" gradientUnits="userSpaceOnUse" x1="632.225" y1="849.725" x2="624.575" y2="885.675" spreadMethod="pad"><stop offset="0%" stop-color="#727476"/><stop offset="100%" stop-color="#363435"/></linearGradient><linearGradient id="I" gradientUnits="userSpaceOnUse" x1="625.063" y1="877.087" x2="630.938" y2="859.012" spreadMethod="pad"><stop offset="0%" stop-color="#7B7D7F"/><stop offset="100%" stop-color="#B7B9BB"/></linearGradient><linearGradient id="J" gradientUnits="userSpaceOnUse" x1="646.163" y1="854.113" x2="639.538" y2="862.288" spreadMethod="pad"><stop offset="0%" stop-color="#B1B3B5"/><stop offset="100%" stop-color="#7D7F81"/></linearGradient><linearGradient id="K" gradientUnits="userSpaceOnUse" x1="636.288" y1="846.675" x2="633.212" y2="855.125" spreadMethod="pad"><stop offset="0%" stop-color="#B1B3B5"/><stop offset="100%" stop-color="#7D7F81"/></linearGradient><linearGradient id="L" gradientUnits="userSpaceOnUse" x1="625.425" y1="846.825" x2="622.475" y2="855.375" spreadMethod="pad"><stop offset="0%" stop-color="#B1B3B5"/><stop offset="100%" stop-color="#7D7F81"/></linearGradient><linearGradient id="M" gradientUnits="userSpaceOnUse" x1="635.962" y1="866.063" x2="618.337" y2="860.338" spreadMethod="pad"><stop offset="0%" stop-color="#C7C9CB"/><stop offset="100%" stop-color="#FFF"/></linearGradient><path fill="#FFF" fill-opacity="0" d="M284 0H0v320h284V0z" id="N"/><path fill="#BDBFC1" d="M619.85 885.1q19.55-9.45 19.55-22.75 0-13.35-19.55-22.8-19.5-9.45-47.05-9.45-27.55 0-47.05 9.45-19.55 9.45-19.55 22.8 0 13.3 19.55 22.75t47.05 9.45q27.5 0 47.05-9.45z" id="O"/><path fill="url(#a)" d="M504.15 666.7q-7.9 7.9-7.9 19.05 0 11.1 7.9 19.05 7.95 7.95 19.05 7.95 11.1 0 19-7.95t7.9-19.05q0-11.15-7.9-19.05-7.85-7.9-19-7.9t-19.05 7.9z" id="P"/><path fill="url(#b)" d="M509.25 671.9q-5.8 5.75-5.8 13.85 0 8.15 5.8 13.9 5.8 5.8 13.95 5.8 8.15 0 13.9-5.8 5.75-5.75 5.75-13.9 0-8.1-5.75-13.85-5.75-5.8-13.9-5.8t-13.95 5.8z" id="Q"/><path fill="#D2D3D5" d="M523.2 669.45q-6.75 0-11.5 4.8-4.8 4.8-4.8 11.5 0 3.5 1.45 6.7 1.4 3.05 3.9 5.3-2.95-4.15-2.95-9.3 0-6.7 4.75-11.45 4.75-4.75 11.45-4.75 3.25 0 6.3 1.35 2.95 1.25 5.2 3.55-2.2-3.5-5.75-5.55-3.75-2.15-8.05-2.15z" id="R"/><path fill="url(#c)" d="M603.35 666.7q-7.95 7.95-7.95 19.05 0 11.1 7.95 19.05 7.95 7.95 19.05 7.95 11.15 0 19.05-7.95t7.9-19.05q0-11.15-7.9-19.05t-19.05-7.9q-11.1 0-19.05 7.9z" id="S"/><path fill="url(#d)" d="M622.4 666.1q-8.15 0-13.9 5.8-5.8 5.75-5.8 13.85 0 8.15 5.8 13.9 5.75 5.8 13.9 5.8t13.9-5.8q5.75-5.75 5.75-13.9 0-8.1-5.75-13.85-5.75-5.8-13.9-5.8z" id="T"/><path fill="#D2D3D5" d="M613.55 673.6q3.1-1.35 6.4-1.35 6.65 0 11.4 4.75 4.75 4.8 4.75 11.45 0 5.15-2.95 9.3 2.55-2.25 3.95-5.3 1.45-3.2 1.45-6.7 0-6.7-4.8-11.5t-11.55-4.8q-4.3 0-8.05 2.15-3.6 2.05-5.8 5.55 2.25-2.3 5.2-3.55z" id="U"/><path fill="url(#e)" d="M613.15 677.9q-15.05-9.65-40.35-9.75-54.25.15-60.9 43.95-2.4 15.5 2.05 29.8 4.75 15.2 15.75 23.4 8.45 6.35 19.9 9.75 11 3.3 23.2 3.4 12.1-.1 23.15-3.4 11.55-3.4 20-9.75 10.95-8.2 15.7-23.4 4.45-14.3 2.05-29.8-3.5-23.2-20.55-34.2z" id="V"/><path fill="url(#f)" d="M612.75 727.5q4.1-5.25 3.25-12.55-.85-7.3-6.05-12.45-5.2-5.2-11.8-5.2-6.6 0-10.7 5.2-4.05 5.15-3.25 12.45.8 7.3 6.05 12.55 5.25 5.2 11.85 5.2 6.55 0 10.65-5.2z" id="W"/><path fill="url(#g)" d="M558.2 702.5q-4.1-5.2-10.65-5.2-6.6 0-11.85 5.2-5.25 5.15-6.1 12.45-.8 7.3 3.3 12.55 4.1 5.2 10.65 5.2 6.6 0 11.85-5.2 5.3-5.25 6.1-12.55.85-7.25-3.3-12.45z" id="X"/><path fill="#363435" d="M608.15 710.65q1.15.65 2.45.3 3.05-.65 1.95-4.2-1.4-4.2-5.2-6.85-3.85-2.7-8.65-2.7h-.05q-4.75 0-8.6 2.7-3.75 2.65-5.15 6.85-.55 1.5-.2 2.6.45 1.25 2.05 1.6 1.35.35 2.5-.3 1.3-.75 1.75-2.65h15.45q.4 1.85 1.7 2.65z" id="Y"/><path fill="#363435" d="M546.95 697.2h-.05q-4.8 0-8.65 2.7-3.75 2.65-5.2 6.85-.55 1.5-.15 2.6.45 1.25 2.05 1.6 1.35.35 2.5-.3 1.35-.8 1.75-2.65h15.4q.45 1.9 1.75 2.65 1.15.65 2.5.3 1.6-.35 2.05-1.6.35-1.1-.2-2.6-1.4-4.2-5.15-6.85-3.85-2.7-8.6-2.7z" id="Z"/><path fill="url(#h)" d="M554.3 721.75q-8.8 7-9.15 19.55-.35 11.85 6.9 18.8 6.7 6.4 20.75 6.4 14 0 20.75-6.4 7.25-6.9 6.9-18.8-.35-12.5-9.15-19.55-8.1-6.35-18.5-6.35t-18.5 6.35z" id="aa"/><path fill="url(#i)" d="M556.4 726.5q0 3.4 4.85 5.8 4.8 2.45 11.55 2.45 6.75 0 11.6-2.45 4.8-2.4 4.8-5.8t-4.8-5.85q-4.85-2.45-11.6-2.45t-11.55 2.45q-4.85 2.45-4.85 5.85z" id="ab"/><path fill="#A9ABAD" d="M574.05 740.4q0-.45-.35-.8-.3-.3-.75-.3-1.1 0-1.1 1.1v9.9q0 .45.3.8.3.3.8.3.4 0 .75-.3.35-.35.35-.8v-9.9z" id="ac"/><path fill="#A9ABAD" d="M566.4 747.8q-2.1-1.3-3.25-3.1-.25-.35-.7-.45-.4-.1-.8.1-.4.25-.45.7-.1.45.15.8 1.55 2.35 3.9 3.8.3.15.95.5 2.95 1.7 6.6 1.7 5.2 0 9-3.25.95-.85 1.35-1.3l1.1-1.45q.25-.35.15-.8-.05-.45-.45-.7-.35-.2-.8-.15-.45.1-.7.45v.05l-.95 1.15q-.35.45-1.05 1.1-3.25 2.7-7.65 2.7-3 0-5.6-1.35l-.8-.5z" id="ad"/><path fill="url(#j)" d="M560.8 732.7q.45 3.25 2.5 5.4 1.6 1.6 4.2 2.5 2.5.85 5.3.8 2.85.05 5.3-.8 2.6-.9 4.2-2.5 2.05-2.15 2.5-5.4.4-3.4-1.4-5.05-1.75-1.6-6.55-1.95-4.25-.3-8.45 0-4.5.35-6.2 1.95-1.8 1.65-1.4 5.05z" id="ae"/><path fill="url(#k)" d="M563 732.75q.3 2.45 2.05 4.05 2.65 2.5 7.75 2.5 5.15 0 7.8-2.5 1.7-1.6 2.05-4.05.35-2.55-1.2-3.8-1.5-1.2-5.35-1.45-3.6-.25-6.9.05-3.7.25-5.05 1.4-1.5 1.25-1.15 3.8z" id="af"/><path fill="url(#l)" d="M566.95 728.85q-1.9.25-2.15 1-.45 1.2 1 1.75 1.15.45 2.75.3 1.55-.15 2.25-.75.7-.7.35-1.65-.5-.95-4.2-.65z" id="ag"/><path fill="url(#m)" d="M573.25 739.35q1.55.05 2.3-.1 2.05-.4 3.5-1.6 1.6-1.35 2.1-3.45.35-1.25.25-2.3-.15-1.1-.7-1.55-.6-.5-1.3-.1-.85.5-1.15 1.9-.4 2.05-1.7 2.9-1.05.65-2.9.7-.4.05-1.55-.05-1-.05-1.6.05-1.6.25-1.55 1.6.1 1.4 1.7 1.75 1.1.2 2.6.25z" id="ah"/><path fill="url(#n)" d="M592.8 676.95q-8.3-3.75-20-3.75t-20 3.75q-8.3 3.75-8.3 9 0 5.3 8.3 9 8.3 3.75 20 3.75 11.75 0 20-3.75 8.3-3.7 8.3-9 0-5.25-8.3-9z" id="ai"/><path fill="#363435" d="M607.85 712q4.5-1.05 6.05-4.35 1.35-2.95 0-6.7.35 4.55-2.6 6.4-2.6 1.65-5.45.35l2 4.3z" id="aj"/><path fill="#363435" d="M611.4 705.5q1.3-2.85-.5-5.65 1.1 3.85-1.35 5.55-2.25 1.55-5 .15l1.8 3.75q3.75-.9 5.05-3.8z" id="ak"/><path fill="#FFF" d="M591.6 718.4q2.95 2.95 7.1 2.95 4.15 0 7.1-2.95 2.95-2.95 2.95-7.1 0-4.15-2.95-7.1-2.95-2.9-7.1-2.9-4.15 0-7.1 2.9-2.95 2.95-2.95 7.1 0 4.15 2.95 7.1z" id="al"/><path fill="url(#o)" d="M593.3 716.75q2.25 2.25 5.4 2.25 3.2 0 5.45-2.25 2.3-2.25 2.3-5.45t-2.3-5.45q-2.25-2.25-5.45-2.25-3.15 0-5.4 2.25-2.3 2.25-2.3 5.45t2.3 5.45z" id="am"/><path fill="url(#p)" d="M593 714.6q.05.65.55 1.25 2 2.35 5.15 2.35 3.05 0 5.15-2.35.5-.6.55-1.25.05-.6-.35-.95-1-.75-1.95.45-1.35 1.6-3.4 1.6t-3.35-1.6q-1.05-1.25-2.05-.45-.35.35-.3.95z" id="an"/><path fill="#363435" d="M596.25 713.8q1 1 2.45 1 1.45 0 2.45-1 1.05-1.05 1.05-2.5t-1.05-2.5q-1-1.05-2.45-1.05-1.45 0-2.45 1.05-1.05 1.05-1.05 2.5t1.05 2.5z" id="ao"/><path fill="#FFF" d="M601.55 712.55q.35.35.75.35.5 0 .85-.35t.35-.75q0-.5-.35-.8-.35-.35-.85-.35-.4 0-.75.35-.3.3-.3.8 0 .4.3.75z" id="ap"/><path fill="#FFF" d="M594 710.25q.65.6 1.55.6t1.5-.6q.65-.65.65-1.55t-.65-1.55q-.65-.7-1.5-.7-.9 0-1.55.7-.7.65-.7 1.55t.7 1.55z" id="aq"/><path fill="#363435" d="M537.75 712l2-4.3q-2.85 1.3-5.45-.35-2.95-1.85-2.6-6.4-1.35 3.75.05 6.7 1.5 3.3 6 4.35z" id="ar"/><path fill="#363435" d="M539.25 709.3l1.75-3.75q-2.7 1.4-4.95-.15-2.45-1.7-1.35-5.55-1.8 2.8-.5 5.65 1.3 2.9 5.05 3.8z" id="as"/><path fill="#FFF" d="M539.8 718.4q2.95 2.95 7.1 2.95 4.15 0 7.1-2.95 2.95-2.95 2.95-7.1 0-4.15-2.95-7.1-2.95-2.9-7.1-2.9-4.15 0-7.1 2.9-2.95 2.95-2.95 7.1 0 4.15 2.95 7.1z" id="at"/><path fill="url(#q)" d="M541.45 716.75q2.25 2.25 5.45 2.25t5.45-2.25q2.25-2.25 2.25-5.45t-2.25-5.45q-2.25-2.25-5.45-2.25t-5.45 2.25q-2.25 2.25-2.25 5.45t2.25 5.45z" id="au"/><path fill="url(#r)" d="M552.05 715.85q.5-.6.55-1.25.1-.6-.3-.95-1-.8-2.05.45-1.2 1.6-3.35 1.6-2.1 0-3.4-1.6-.45-.65-1.1-.7-.55-.05-.85.25-.4.35-.35.95.05.65.5 1.25 2.2 2.35 5.2 2.35 3.15 0 5.15-2.35z" id="av"/><path fill="#363435" d="M544.45 713.8q1 1 2.45 1 1.45 0 2.5-1 1-1.05 1-2.5t-1-2.5q-1.05-1.05-2.5-1.05t-2.45 1.05q-1 1.05-1 2.5t1 2.5z" id="aw"/><path fill="#FFF" d="M549.5 712.55q.3.35.75.35t.8-.35q.3-.35.3-.75 0-.5-.3-.8-.35-.35-.8-.35-1.05 0-1.05 1.15 0 .45.3.75z" id="ax"/><path fill="#FFF" d="M542.2 710.25q.65.6 1.6.6.9 0 1.55-.6t.65-1.55q0-.9-.65-1.55-.65-.7-1.55-.7-.95 0-1.6.7-.65.65-.65 1.55 0 .95.65 1.55z" id="ay"/><path fill="url(#s)" d="M524.1 745.8q-11.05 1.1-20.25 6.6-19.75 11.8-23 36.35-2.5 18.95 8.75 38.2 8.9 15.3 24.45 27.85 6.75 5.4 18.3 12.9 12.85 8.35 17.15 11.55 18.25 13.7 23.3 31.9 5.05-18.2 23.3-31.9 4.3-3.2 17.15-11.55 11.55-7.5 18.3-12.9 15.55-12.55 24.5-27.85 11.2-19.25 8.7-38.2-3.2-24.5-23-36.35-9.2-5.5-20.25-6.6-11.3-1.15-22.8 2.55-8.25 2.65-14.8 7.6-6.9 5.25-11.1 12.5-4.2-7.25-11.1-12.5-6.55-4.95-14.8-7.6-11.45-3.7-22.8-2.55m-37.25 44.4q2.85-21.65 20.25-32.15 17.15-10.4 37.9-3.75 7.5 2.45 13.35 7 6.2 4.85 9.7 11.5 1.2 2.2 2.1 4.9l2.65 7.7 2.65-7.7q.95-2.7 2.1-4.9 3.55-6.7 9.7-11.5 5.8-4.55 13.35-7 20.7-6.65 37.9 3.75 17.45 10.5 20.25 32.15 3.25 24.45-12.6 45.15-6.25 8.2-16.5 17.15-6 5.25-19.1 15.4-19.45 14.9-20.9 16.15-11.95 10.2-16.85 19.55-4.9-9.35-16.85-19.55-1.15-1-20.85-16.15-13.15-10.15-19.15-15.4-10.2-8.95-16.5-17.15-15.8-20.7-12.6-45.15z" id="az"/><path fill="url(#t)" d="M662.7 791q-1.35-11.95-7.05-21.25-6.2-10.05-16.75-15.6-8.4-4.4-18.55-5.2-9.95-.75-19.4 2.15-21.25 6.55-27.8 25.55-6.55-19-27.8-25.55-9.5-2.9-19.45-2.15-10.15.8-18.55 5.2-10.5 5.55-16.75 15.6-5.7 9.3-7 21.25-1.25 11.4 1.75 23 3.05 11.65 9.7 20.85 8.25 11.3 23.65 24.05 8.8 7.3 26.55 20.95 13.25 10.75 16.6 14.2 8.1 8.35 11.3 18.65 3.2-10.3 11.25-18.65 3.4-3.55 16.65-14.2 17.75-13.65 26.5-20.95 15.4-12.75 23.65-24.05 6.7-9.2 9.7-20.85 3.05-11.6 1.8-23z" id="aA"/><path fill="url(#u)" d="M520.6 756.75q-11 2.2-18.55 9.25-7.5 7-9.8 17.25-2.5 11.35 1.7 25.15 5.75 18.65 29.25 30.4 21.8 10.9 49.95 11.95 28.1-1.05 49.9-11.95 23.5-11.75 29.25-30.4 4.2-13.8 1.7-25.15-2.3-10.25-9.75-17.25-7.55-7.05-18.55-9.25-10.85-2.2-21.6.9-11.35 3.3-19.3 11.6-8.75 9.2-11.65 22.9-2.9-13.7-11.65-22.9-8-8.3-19.3-11.6-10.8-3.1-21.6-.9z" id="aB"/><path fill="url(#v)" d="M516.7 763.65q-14.55 5.85-18.55 20.95-3.75 13.9 2.95 27.65-5.3-14.15.3-26.45 5-11.15 16.8-16.9 11.65-5.75 23.8-3.3 13.3 2.7 21.35 14.4-7.55-12.75-19.7-17.3-12.75-4.8-26.95.95z" id="aC"/><path fill="url(#w)" d="M587 882.45q6.35-6.15 16.4-13.9-30.39 22.217-59.3.95 9.2 7.184 15.2 12.95 8.45 8.2 13.85 16.6 5.35-8.4 13.85-16.6z" id="aD"/><path fill="#363435" d="M518.8 836.85q-10.95-3.25-19.9 2.85-8.75 5.9-9.45 16.15-.3 4.25.4 8.3.75 4.45 2.9 9.6 3.25 7.95 10.9 13.25 8.25 5.65 16.45 4.35 10.5-1.65 15.45-10.1 5.5-9.4 1.2-23.6-2.55-8.55-7.4-13.95-4.55-5.05-10.55-6.85z" id="aE"/><path fill="url(#x)" d="M495.7 869.6q3.4 12.2 11.85 17.75 7.6 5.05 16.05 2.95 8.4-2.05 12.5-9.9 4.55-8.7 1.35-20.85-2.9-11-11.2-15.85-7.45-4.35-15.95-2.25-8.55 2.1-12.85 9.3-4.8 8-1.75 18.85z" id="aF"/><path fill="#363435" d="M507.8 873.5q1.75 5.7 6 8.35 3.85 2.35 8.05 1.4 4.25-.95 6.2-4.65 2.2-4.05.45-9.75-1.7-5.7-5.95-8.3-3.85-2.4-8.05-1.45-4.2.95-6.2 4.65-2.25 4.05-.5 9.75z" id="aG"/><path fill="#4C4B4D" d="M498.85 861q2.45 4.4 6.4 2.75 1.6-.7 2.1-2.25.6-1.75-.55-3.85-2.45-4.45-6.4-2.8-1.65.65-2.15 2.25-.55 1.8.6 3.9z" id="aH"/><path fill="#4C4B4D" d="M506.55 852q.85 5.05 5.15 4.75 1.75-.15 2.7-1.5 1.1-1.5.65-3.85-.85-4.95-5.1-4.65-1.75.1-2.7 1.4-1.1 1.5-.7 3.85z" id="aI"/><path fill="#4C4B4D" d="M522.2 856.95q4.2-1 3.5-6-.3-2.4-1.75-3.5-1.3-1-2.95-.6-4.15.95-3.55 6 .3 2.35 1.75 3.45 1.35 1 3 .65z" id="aJ"/><path fill="url(#y)" d="M508 872.2q1.7 5.6 5.9 8.2 3.8 2.3 7.95 1.4 4.15-.95 6.1-4.55 2.2-4.05.5-9.65-1.7-5.65-5.9-8.2-3.8-2.35-7.95-1.4-4.2.9-6.15 4.55-2.2 4-.45 9.65z" id="aK"/><path fill="url(#z)" d="M498.85 859.9q2.45 4.45 6.35 2.8 1.6-.7 2.1-2.25.55-1.75-.6-3.85-2.45-4.5-6.4-2.85-1.6.7-2.05 2.3-.55 1.75.6 3.85z" id="aL"/><path fill="url(#A)" d="M506.5 850.9q.85 5.05 5.15 4.75 1.7-.15 2.7-1.5 1.1-1.45.65-3.85-.85-4.95-5.1-4.65-1.75.1-2.7 1.45-1.1 1.45-.7 3.8z" id="aM"/><path fill="url(#B)" d="M522.15 855.85q4.15-.9 3.55-5.95-.3-2.4-1.75-3.5-1.35-1-3-.65-4.2.95-3.6 6 .3 2.35 1.75 3.5 1.35 1 3.05.6z" id="aN"/><path fill="url(#C)" d="M508.65 870.65q.35-6.05 6-8.3 5.5-2.25 10.55 1.1-4.9-5.5-11.15-3.05-6.4 2.5-5.4 10.25z" id="aO"/><path fill="#5F6062" d="M505.4 840.7q9.25-3.6 16.8.2-7.75-5.35-17.3-1.85-9.95 3.6-11.35 13.45 2.45-8.2 11.85-11.8z" id="aP"/><path fill="url(#D)" d="M479 757.9q-4.6 6.65-4.85 14.15-.25 8.25 5.2 13.1 6.35 5.65 14.85 3.5 7.6-1.9 13.85-9 6.2-7.05 7.2-14.9 1.1-8.7-5.1-14.2-7.1-6.3-16.55-3.6-8.85 2.5-14.6 10.95z" id="aQ"/><path fill="url(#E)" d="M507.15 753.2q-3.75-3.3-8.65-3.25-4.4.05-9 2.8 7.9-1.9 13.95 3.35 4.1 3.55 5.25 8.5 1.15 4.9-1 9.2l.6-.75q3.9-4.3 3.55-10.15-.35-5.8-4.7-9.7z" id="aR"/><path fill="url(#F)" d="M666.6 757.9q-5.75-8.45-14.6-10.95-9.45-2.7-16.55 3.6-6.2 5.5-5.1 14.2 1 7.85 7.2 14.9 6.25 7.1 13.85 9 8.5 2.15 14.8-3.5 5.5-4.85 5.25-13.1-.25-7.5-4.85-14.15z" id="aS"/><path fill="url(#G)" d="M647.1 749.95q-4.9-.05-8.65 3.25-4.35 3.9-4.7 9.7-.3 5.85 3.55 10.15l.6.75q-2.1-4.3-1-9.2 1.15-4.95 5.25-8.5 6.05-5.25 13.9-3.35-4.55-2.75-8.95-2.8z" id="aT"/><path fill="#363435" d="M646.75 839.7q-9-6.1-19.95-2.85-6 1.8-10.55 6.85-4.8 5.4-7.4 13.95-4.25 14.2 1.25 23.6 4.9 8.45 15.4 10.1 8.25 1.3 16.45-4.35 7.65-5.3 10.9-13.25 2.15-5.15 2.9-9.6.75-4.05.45-8.3-.75-10.25-9.45-16.15z" id="aU"/><path fill="url(#H)" d="M622 890.3q8.45 2.1 16.05-2.95 8.45-5.55 11.85-17.75 3.05-10.85-1.75-18.85-4.3-7.2-12.8-9.3-8.55-2.1-16 2.25-8.3 4.85-11.2 15.85-3.2 12.1 1.35 20.85 4.1 7.85 12.5 9.9z" id="aV"/><path fill="#363435" d="M631.75 881.85q4.3-2.65 6.05-8.35 1.75-5.7-.5-9.75-1.95-3.7-6.2-4.65-4.2-.95-8.05 1.45-4.3 2.6-6.05 8.3-1.75 5.7.5 9.75 2 3.7 6.2 4.65 4.25.95 8.05-1.4z" id="aW"/><path fill="#4C4B4D" d="M640.35 863.75q3.9 1.7 6.35-2.75 1.15-2.1.6-3.9-.5-1.6-2.1-2.25-3.95-1.65-6.35 2.8-1.15 2.1-.6 3.85.5 1.55 2.1 2.25z" id="aX"/><path fill="#4C4B4D" d="M633.9 856.75q4.3.3 5.15-4.75.4-2.35-.7-3.85-.95-1.3-2.7-1.4-4.25-.3-5.1 4.65-.45 2.35.65 3.85.95 1.35 2.7 1.5z" id="aY"/><path fill="#4C4B4D" d="M619.8 850.95q-.55 5.05 3.6 6 1.7.35 3-.65 1.5-1.05 1.75-3.45.6-5.05-3.55-6-1.65-.4-3 .6-1.5 1.1-1.8 3.5z" id="aZ"/><path fill="url(#I)" d="M631.7 880.4q4.2-2.6 5.9-8.2 1.7-5.65-.45-9.65-2-3.65-6.15-4.55-4.15-.95-7.95 1.4-4.2 2.55-5.9 8.2-1.75 5.6.45 9.65 1.95 3.6 6.15 4.55 4.15.9 7.95-1.4z" id="ba"/><path fill="url(#J)" d="M640.4 862.7q3.9 1.65 6.35-2.8 1.15-2.1.6-3.85-.5-1.6-2.1-2.3-3.9-1.65-6.35 2.85-1.15 2.1-.6 3.85.5 1.55 2.1 2.25z" id="bb"/><path fill="url(#K)" d="M633.95 855.65q4.3.3 5.15-4.75.4-2.35-.7-3.8-.95-1.35-2.7-1.45-4.25-.3-5.15 4.65-.4 2.35.7 3.85 1 1.35 2.7 1.5z" id="bc"/><path fill="url(#L)" d="M619.9 849.9q-.6 5.05 3.6 5.95 1.65.4 3-.6 1.45-1.1 1.75-3.5.6-5.05-3.55-6-1.7-.35-3.05.65-1.45 1.1-1.75 3.5z" id="bd"/><path fill="url(#M)" d="M630.9 862.35q5.7 2.25 6 8.3 1.05-7.75-5.4-10.25-6.3-2.45-11.1 3.05 4.95-3.35 10.5-1.1z" id="be"/><path fill="#5F6062" d="M623.4 840.9q7.55-3.8 16.8-.2 9.4 3.6 11.9 11.8-1.4-9.85-11.35-13.45-9.6-3.5-17.35 1.85z" id="bf"/></defs><use xlink:href="#N"/><use xlink:href="#O" transform="matrix(.99226 0 0 .99226 -426.332 -591.753)"/><use xlink:href="#P" transform="matrix(.99226 0 0 .99226 -426.332 -591.753)"/><use xlink:href="#Q" transform="matrix(.99226 0 0 .99226 -426.332 -591.753)"/><use xlink:href="#R" transform="matrix(.99226 0 0 .99226 -426.332 -591.753)"/><use xlink:href="#S" transform="matrix(.99226 0 0 .99226 -426.332 -591.753)"/><use xlink:href="#T" transform="matrix(.99226 0 0 .99226 -426.332 -591.753)"/><use xlink:href="#U" transform="matrix(.99226 0 0 .99226 -426.332 -591.753)"/><use xlink:href="#V" transform="matrix(.99226 0 0 .99226 -426.332 -591.753)"/><use xlink:href="#W" transform="matrix(.99226 0 0 .99226 -426.332 -591.753)"/><use xlink:href="#X" transform="matrix(.99226 0 0 .99226 -426.332 -591.753)"/><use xlink:href="#Y" transform="matrix(.99226 0 0 .99226 -426.332 -591.753)"/><use xlink:href="#Z" transform="matrix(.99226 0 0 .99226 -426.332 -591.753)"/><use xlink:href="#aa" transform="matrix(.99226 0 0 .99226 -426.332 -591.753)"/><use xlink:href="#ab" transform="matrix(.99226 0 0 .99226 -426.332 -591.753)"/><use xlink:href="#ac" transform="matrix(.99226 0 0 .99226 -426.332 -591.753)"/><use xlink:href="#ad" transform="matrix(.99226 0 0 .99226 -426.332 -591.753)"/><use xlink:href="#ae" transform="matrix(.99226 0 0 .99226 -426.332 -591.753)"/><use xlink:href="#af" transform="matrix(.99226 0 0 .99226 -426.332 -591.753)"/><use xlink:href="#ag" transform="matrix(.99226 0 0 .99226 -426.332 -591.753)"/><use xlink:href="#ah" transform="matrix(.99226 0 0 .99226 -426.332 -591.753)"/><use xlink:href="#ai" transform="matrix(.99226 0 0 .99226 -426.332 -591.753)"/><use xlink:href="#aj" transform="matrix(.99226 0 0 .99226 -426.332 -591.753)"/><use xlink:href="#ak" transform="matrix(.99226 0 0 .99226 -426.332 -591.753)"/><use xlink:href="#al" transform="matrix(.99226 0 0 .99226 -426.332 -591.753)"/><use xlink:href="#am" transform="matrix(.99226 0 0 .99226 -426.332 -591.753)"/><use xlink:href="#an" transform="matrix(.99226 0 0 .99226 -426.332 -591.753)"/><use xlink:href="#ao" transform="matrix(.99226 0 0 .99226 -426.332 -591.753)"/><use xlink:href="#ap" transform="matrix(.99226 0 0 .99226 -426.332 -591.753)"/><use xlink:href="#aq" transform="matrix(.99226 0 0 .99226 -426.332 -591.753)"/><use xlink:href="#ar" transform="matrix(.99226 0 0 .99226 -426.332 -591.753)"/><use xlink:href="#as" transform="matrix(.99226 0 0 .99226 -426.332 -591.753)"/><use xlink:href="#at" transform="matrix(.99226 0 0 .99226 -426.332 -591.753)"/><use xlink:href="#au" transform="matrix(.99226 0 0 .99226 -426.332 -591.753)"/><use xlink:href="#av" transform="matrix(.99226 0 0 .99226 -426.332 -591.753)"/><use xlink:href="#aw" transform="matrix(.99226 0 0 .99226 -426.332 -591.753)"/><use xlink:href="#ax" transform="matrix(.99226 0 0 .99226 -426.332 -591.753)"/><use xlink:href="#ay" transform="matrix(.99226 0 0 .99226 -426.332 -591.753)"/><use xlink:href="#az" transform="matrix(.99226 0 0 .99226 -426.332 -591.753)"/><use xlink:href="#aA" transform="matrix(.99226 0 0 .99226 -426.332 -591.753)"/><use xlink:href="#aB" transform="matrix(.99226 0 0 .99226 -426.332 -591.753)"/><use xlink:href="#aC" transform="matrix(.99226 0 0 .99226 -426.332 -591.753)"/><use xlink:href="#aD" transform="matrix(.99226 0 0 .99226 -426.332 -591.753)"/><use xlink:href="#aE" transform="matrix(.99226 0 0 .99226 -426.332 -591.753)"/><use xlink:href="#aF" transform="matrix(.99226 0 0 .99226 -426.332 -591.753)"/><use xlink:href="#aG" transform="matrix(.99226 0 0 .99226 -426.332 -591.753)"/><use xlink:href="#aH" transform="matrix(.99226 0 0 .99226 -426.332 -591.753)"/><use xlink:href="#aI" transform="matrix(.99226 0 0 .99226 -426.332 -591.753)"/><use xlink:href="#aJ" transform="matrix(.99226 0 0 .99226 -426.332 -591.753)"/><use xlink:href="#aK" transform="matrix(.99226 0 0 .99226 -426.332 -591.753)"/><use xlink:href="#aL" transform="matrix(.99226 0 0 .99226 -426.332 -591.753)"/><use xlink:href="#aM" transform="matrix(.99226 0 0 .99226 -426.332 -591.753)"/><use xlink:href="#aN" transform="matrix(.99226 0 0 .99226 -426.332 -591.753)"/><use xlink:href="#aO" transform="matrix(.99226 0 0 .99226 -426.332 -591.753)"/><use xlink:href="#aP" transform="matrix(.99226 0 0 .99226 -426.332 -591.753)"/><use xlink:href="#aQ" transform="matrix(.99226 0 0 .99226 -426.332 -591.753)"/><use xlink:href="#aR" transform="matrix(.99226 0 0 .99226 -426.332 -591.753)"/><use xlink:href="#aS" transform="matrix(.99226 0 0 .99226 -426.332 -591.753)"/><use xlink:href="#aT" transform="matrix(.99226 0 0 .99226 -426.332 -591.753)"/><use xlink:href="#aU" transform="matrix(.99226 0 0 .99226 -426.332 -591.753)"/><use xlink:href="#aV" transform="matrix(.99226 0 0 .99226 -426.332 -591.753)"/><use xlink:href="#aW" transform="matrix(.99226 0 0 .99226 -426.332 -591.753)"/><use xlink:href="#aX" transform="matrix(.99226 0 0 .99226 -426.332 -591.753)"/><use xlink:href="#aY" transform="matrix(.99226 0 0 .99226 -426.332 -591.753)"/><use xlink:href="#aZ" transform="matrix(.99226 0 0 .99226 -426.332 -591.753)"/><use xlink:href="#ba" transform="matrix(.99226 0 0 .99226 -426.332 -591.753)"/><use xlink:href="#bb" transform="matrix(.99226 0 0 .99226 -426.332 -591.753)"/><use xlink:href="#bc" transform="matrix(.99226 0 0 .99226 -426.332 -591.753)"/><use xlink:href="#bd" transform="matrix(.99226 0 0 .99226 -426.332 -591.753)"/><use xlink:href="#be" transform="matrix(.99226 0 0 .99226 -426.332 -591.753)"/><use xlink:href="#bf" transform="matrix(.99226 0 0 .99226 -426.332 -591.753)"/></svg>