<svg xmlns="http://www.w3.org/2000/svg" xmlns:xlink="http://www.w3.org/1999/xlink" preserveAspectRatio="none" width="284" height="320"><defs><linearGradient id="a" gradientUnits="userSpaceOnUse" x1="686.15" y1="334.462" x2="686.15" y2="365.538" spreadMethod="pad"><stop offset="0%" stop-color="#EBB132"/><stop offset="30.98%" stop-color="#E6A833"/><stop offset="65.098%" stop-color="#D99632"/><stop offset="100%" stop-color="#CE8A32"/></linearGradient><linearGradient id="b" gradientUnits="userSpaceOnUse" x1="680.2" y1="362.512" x2="680.2" y2="340.387" spreadMethod="pad"><stop offset="0%" stop-color="#E6A833"/><stop offset="100%" stop-color="#FFDC77"/></linearGradient><linearGradient id="c" gradientUnits="userSpaceOnUse" x1="544.962" y1="384.4" x2="527.637" y2="407.4" spreadMethod="pad"><stop offset="0%" stop-color="#E29E63"/><stop offset="100%" stop-color="#E5A76F"/></linearGradient><linearGradient id="d" gradientUnits="userSpaceOnUse" x1="553.625" y1="394.313" x2="536.275" y2="414.987" spreadMethod="pad"><stop offset="0%" stop-color="#E29B5F"/><stop offset="100%" stop-color="#E5A76F"/></linearGradient><linearGradient id="e" gradientUnits="userSpaceOnUse" x1="566.2" y1="394.512" x2="566.2" y2="420.787" spreadMethod="pad"><stop offset="0%" stop-color="#E29B5F"/><stop offset="100%" stop-color="#E5A56C"/></linearGradient><linearGradient id="f" gradientUnits="userSpaceOnUse" x1="568.75" y1="281.525" x2="568.75" y2="412.075" spreadMethod="pad"><stop offset="0%" stop-color="#E4A833"/><stop offset="30.98%" stop-color="#DB9A32"/><stop offset="65.098%" stop-color="#C77F31"/><stop offset="100%" stop-color="#B66D2F"/></linearGradient><linearGradient id="g" gradientUnits="userSpaceOnUse" x1="568.75" y1="283.513" x2="568.75" y2="366.688" spreadMethod="pad"><stop offset="0%" stop-color="#D49232"/><stop offset="30.98%" stop-color="#CB8631"/><stop offset="65.098%" stop-color="#BA7130"/><stop offset="100%" stop-color="#A05D2C"/></linearGradient><linearGradient id="h" gradientUnits="userSpaceOnUse" x1="592.538" y1="384.6" x2="610.262" y2="407.3" spreadMethod="pad"><stop offset="0%" stop-color="#E29E63"/><stop offset="100%" stop-color="#E5A76F"/></linearGradient><linearGradient id="i" gradientUnits="userSpaceOnUse" x1="583.5" y1="394.025" x2="601.2" y2="414.375" spreadMethod="pad"><stop offset="0%" stop-color="#E29B5F"/><stop offset="100%" stop-color="#E5A76F"/></linearGradient><linearGradient id="j" gradientUnits="userSpaceOnUse" x1="571.35" y1="394.512" x2="571.35" y2="420.787" spreadMethod="pad"><stop offset="0%" stop-color="#E29B5F"/><stop offset="100%" stop-color="#E5A56C"/></linearGradient><linearGradient id="k" gradientUnits="userSpaceOnUse" x1="536.712" y1="371.262" x2="508.087" y2="397.037" spreadMethod="pad"><stop offset="0%" stop-color="#E5A56C"/><stop offset="100%" stop-color="#EFC292"/></linearGradient><linearGradient id="l" gradientUnits="userSpaceOnUse" x1="600.462" y1="370.813" x2="629.538" y2="396.087" spreadMethod="pad"><stop offset="0%" stop-color="#E5A56C"/><stop offset="100%" stop-color="#EFC292"/></linearGradient><linearGradient id="m" gradientUnits="userSpaceOnUse" x1="527.388" y1="322.7" x2="507.613" y2="301.5" spreadMethod="pad"><stop offset="0%" stop-color="#F0B732"/><stop offset="100%" stop-color="#FFDE81"/></linearGradient><linearGradient id="n" gradientUnits="userSpaceOnUse" x1="513.712" y1="307.313" x2="525.488" y2="320.388" spreadMethod="pad"><stop offset="0%" stop-color="#FFF0C5"/><stop offset="100%" stop-color="#FFDF83"/></linearGradient><linearGradient id="o" gradientUnits="userSpaceOnUse" x1="609.425" y1="322.625" x2="629.575" y2="301.775" spreadMethod="pad"><stop offset="0%" stop-color="#F0B732"/><stop offset="100%" stop-color="#FFDE81"/></linearGradient><linearGradient id="p" gradientUnits="userSpaceOnUse" x1="622.975" y1="307.113" x2="611.425" y2="320.387" spreadMethod="pad"><stop offset="0%" stop-color="#FFF0C5"/><stop offset="100%" stop-color="#FFDF83"/></linearGradient><linearGradient id="q" gradientUnits="userSpaceOnUse" x1="568.45" y1="386.512" x2="568.45" y2="312.488" spreadMethod="pad"><stop offset="0%" stop-color="#DD9C33"/><stop offset="65.882%" stop-color="#F5BE32"/><stop offset="100%" stop-color="#FFD65F"/></linearGradient><linearGradient id="r" gradientUnits="userSpaceOnUse" x1="568.75" y1="310.538" x2="568.75" y2="336.962" spreadMethod="pad"><stop offset="0%" stop-color="#E9AC33"/><stop offset="100%" stop-color="#CB8332"/></linearGradient><linearGradient id="s" gradientUnits="userSpaceOnUse" x1="568.45" y1="313.525" x2="568.45" y2="328.975" spreadMethod="pad"><stop offset="0%" stop-color="#FFF0CE"/><stop offset="100%" stop-color="#FFD979"/></linearGradient><linearGradient id="t" gradientUnits="userSpaceOnUse" x1="568.75" y1="389.525" x2="568.75" y2="351.175" spreadMethod="pad"><stop offset="0%" stop-color="#F0B732"/><stop offset="41.176%" stop-color="#FFD65F"/><stop offset="100%" stop-color="#FFE8A2"/></linearGradient><linearGradient id="u" gradientUnits="userSpaceOnUse" x1="568.75" y1="372.512" x2="568.75" y2="364.588" spreadMethod="pad"><stop offset="0%" stop-color="#A8622D"/><stop offset="20%" stop-color="#CF8832"/><stop offset="52.941%" stop-color="#CF8832"/><stop offset="100%" stop-color="#A05D2C"/></linearGradient><linearGradient id="v" gradientUnits="userSpaceOnUse" x1="568.75" y1="371.537" x2="568.75" y2="364.762" spreadMethod="pad"><stop offset="0%" stop-color="#A8622D"/><stop offset="100%" stop-color="#834827"/></linearGradient><linearGradient id="w" gradientUnits="userSpaceOnUse" x1="594.85" y1="340.538" x2="594.85" y2="353.962" spreadMethod="pad"><stop offset="0%" stop-color="#6E3A24"/><stop offset="100%" stop-color="#C98031"/></linearGradient><linearGradient id="x" gradientUnits="userSpaceOnUse" x1="599.762" y1="351.35" x2="589.337" y2="351.35" spreadMethod="pad"><stop offset="0%" stop-color="#C47B31"/><stop offset="49.02%" stop-color="#F8C332"/><stop offset="100%" stop-color="#C47B31"/></linearGradient><linearGradient id="y" gradientUnits="userSpaceOnUse" x1="542.05" y1="340.538" x2="542.05" y2="353.962" spreadMethod="pad"><stop offset="0%" stop-color="#6E3A24"/><stop offset="100%" stop-color="#C98031"/></linearGradient><linearGradient id="z" gradientUnits="userSpaceOnUse" x1="546.75" y1="351.35" x2="536.35" y2="351.35" spreadMethod="pad"><stop offset="0%" stop-color="#C47B31"/><stop offset="49.02%" stop-color="#F8C332"/><stop offset="100%" stop-color="#C47B31"/></linearGradient><linearGradient id="A" gradientUnits="userSpaceOnUse" x1="568.75" y1="313.55" x2="568.75" y2="333.95" spreadMethod="pad"><stop offset="0%" stop-color="#FCDA81"/><stop offset="43.922%" stop-color="#FBC532"/><stop offset="100%" stop-color="#F0B732"/></linearGradient><linearGradient id="B" gradientUnits="userSpaceOnUse" x1="568.45" y1="414.337" x2="568.45" y2="472.563" spreadMethod="pad"><stop offset="0%" stop-color="#E691BC"/><stop offset="100%" stop-color="#D82D8E"/></linearGradient><linearGradient id="C" gradientUnits="userSpaceOnUse" x1="568.75" y1="510.475" x2="568.75" y2="408.825" spreadMethod="pad"><stop offset="0%" stop-color="#C82C87"/><stop offset="36.078%" stop-color="#DB589E"/><stop offset="100%" stop-color="#EEBAD5"/></linearGradient><linearGradient id="D" gradientUnits="userSpaceOnUse" x1="568.75" y1="478.512" x2="568.75" y2="398.787" spreadMethod="pad"><stop offset="0%" stop-color="#DE65A4"/><stop offset="43.922%" stop-color="#EAA5C8"/><stop offset="100%" stop-color="#FCE9F1"/></linearGradient><linearGradient id="E" gradientUnits="userSpaceOnUse" x1="539.425" y1="395.288" x2="486.175" y2="450.413" spreadMethod="pad"><stop offset="0%" stop-color="#FFF"/><stop offset="41.961%" stop-color="#FFF"/><stop offset="100%" stop-color="#EEBAD5"/></linearGradient><linearGradient id="F" gradientUnits="userSpaceOnUse" x1="568.75" y1="535.5" x2="568.75" y2="511.1" spreadMethod="pad"><stop offset="0%" stop-color="#EEBAD5"/><stop offset="100%" stop-color="#DB4C99"/></linearGradient><linearGradient id="G" gradientUnits="userSpaceOnUse" x1="479.35" y1="387.637" x2="499.15" y2="404.863" spreadMethod="pad"><stop offset="0%" stop-color="#E4A533"/><stop offset="100%" stop-color="#F0B732"/></linearGradient><linearGradient id="H" gradientUnits="userSpaceOnUse" x1="494.175" y1="382.45" x2="508.525" y2="399.55" spreadMethod="pad"><stop offset="0%" stop-color="#FFCF45"/><stop offset="100%" stop-color="#F0B732"/></linearGradient><linearGradient id="I" gradientUnits="userSpaceOnUse" x1="657.4" y1="387.425" x2="637.9" y2="404.975" spreadMethod="pad"><stop offset="0%" stop-color="#E4A533"/><stop offset="100%" stop-color="#F0B732"/></linearGradient><linearGradient id="J" gradientUnits="userSpaceOnUse" x1="647.525" y1="379.612" x2="630.875" y2="395.688" spreadMethod="pad"><stop offset="0%" stop-color="#FFCF45"/><stop offset="100%" stop-color="#F0B732"/></linearGradient><linearGradient id="K" gradientUnits="userSpaceOnUse" x1="510.837" y1="476.837" x2="519.663" y2="515.063" spreadMethod="pad"><stop offset="0%" stop-color="#F0B732"/><stop offset="100%" stop-color="#D89533"/></linearGradient><linearGradient id="L" gradientUnits="userSpaceOnUse" x1="517.85" y1="486.8" x2="514.35" y2="508.9" spreadMethod="pad"><stop offset="0%" stop-color="#FFE085"/><stop offset="100%" stop-color="#FFCB31"/></linearGradient><linearGradient id="M" gradientUnits="userSpaceOnUse" x1="496.3" y1="481.238" x2="502.4" y2="488.762" spreadMethod="pad"><stop offset="0%" stop-color="#FFE085"/><stop offset="100%" stop-color="#FFCB31"/></linearGradient><linearGradient id="N" gradientUnits="userSpaceOnUse" x1="506.5" y1="472.375" x2="509.9" y2="482.225" spreadMethod="pad"><stop offset="0%" stop-color="#FFE085"/><stop offset="100%" stop-color="#FFCB31"/></linearGradient><linearGradient id="O" gradientUnits="userSpaceOnUse" x1="520.35" y1="472.938" x2="518.75" y2="482.962" spreadMethod="pad"><stop offset="0%" stop-color="#FFE085"/><stop offset="100%" stop-color="#FFCB31"/></linearGradient><linearGradient id="P" gradientUnits="userSpaceOnUse" x1="519.362" y1="488.35" x2="505.438" y2="495.45" spreadMethod="pad"><stop offset="0%" stop-color="#FFF"/><stop offset="100%" stop-color="#FFECAC"/></linearGradient><linearGradient id="Q" gradientUnits="userSpaceOnUse" x1="626.425" y1="476.813" x2="618.275" y2="515.188" spreadMethod="pad"><stop offset="0%" stop-color="#F0B732"/><stop offset="100%" stop-color="#D89533"/></linearGradient><linearGradient id="R" gradientUnits="userSpaceOnUse" x1="619.462" y1="486.637" x2="623.337" y2="508.662" spreadMethod="pad"><stop offset="0%" stop-color="#FFE085"/><stop offset="100%" stop-color="#FFCB31"/></linearGradient><linearGradient id="S" gradientUnits="userSpaceOnUse" x1="641.325" y1="481" x2="635.375" y2="488.6" spreadMethod="pad"><stop offset="0%" stop-color="#FFE085"/><stop offset="100%" stop-color="#FFCB31"/></linearGradient><linearGradient id="T" gradientUnits="userSpaceOnUse" x1="631.012" y1="472.25" x2="627.788" y2="482.15" spreadMethod="pad"><stop offset="0%" stop-color="#FFE085"/><stop offset="100%" stop-color="#FFCB31"/></linearGradient><linearGradient id="U" gradientUnits="userSpaceOnUse" x1="617.188" y1="473.287" x2="618.912" y2="483.012" spreadMethod="pad"><stop offset="0%" stop-color="#FFE085"/><stop offset="100%" stop-color="#FFCB31"/></linearGradient><linearGradient id="V" gradientUnits="userSpaceOnUse" x1="617.675" y1="488.125" x2="631.725" y2="494.975" spreadMethod="pad"><stop offset="0%" stop-color="#FFF"/><stop offset="100%" stop-color="#FFECAC"/></linearGradient><path fill="#FFF" fill-opacity="0" d="M0 0v320h284V0H0z" id="W"/><path fill="#FFCF47" d="M682.55 347.1q-7.2 9.45-6.2 27.95.35 6.6 1.7 15.45.8 5.05 2.75 15.25 2 10.2 2.45 19.5.45 9.55-1 17.1-.4 1.85-.6 2.4-1.7 6.45-5.4 11.55-3.6 4.95-8.7 8.05-5.15 3.15-11.3 4.15-6.3 1.05-13.05-.3l-2.45-.55q-10.35-2.8-16.6-9.85-1.1-1.1-2.3-2.85-1.05-1.6-1.8-3.05l-.1-.1-10.2 4.95.05.1q1.15 2.35 2.7 4.45 1 1.7 3.15 4.1 8.65 9.6 22.25 13.25l3.1.75q8.85 1.75 17.25.3 8.2-1.4 15.2-5.65t11.95-10.95q5-6.8 7.3-15.45l.7-3.05q1.8-8.8 1.3-19.85-.5-9.95-2.75-21.2-3.8-19.35-4.25-29-.7-14.6 3.85-20.45l-9-7z" id="X"/><path fill="url(#a)" d="M701.7 340.3q-2.4-6.25-8.5-8.45-3.55-1.3-7.6-.9-4 .4-7.45 2.4-9.65 5.65-8.7 19.1.65 10.1 6.6 21.4 4-2.7 11.95.05 1-5.1 4.4-8.85 1.7-1.85 4.7-4.8 2.4-2.55 3.65-4.95 1.75-3.1 2.15-6.7.4-4.25-1.2-8.3z" id="Y"/><path fill="#FFE38D" d="M680.35 459.35q10.85-7.85 10.45-35.95-.4-26-9.15-47.9 5.8 21.7 6.85 44.2 1.4 29.65-8.15 39.65z" id="Z"/><path fill="url(#b)" d="M685.95 343.6q-.5-2.5-2.9-3.55-2.6-1.1-4.95.75-2.7 2.1-3.55 7.25-.7 4.2 1.05 10.6 1.65 6.05 4.2 9.85-1.8-4.15-.35-9.35 1.2-4.15 4.25-8.45 2.9-4.05 2.25-7.1z" id="aa"/><path fill="url(#c)" d="M556.05 379l-11.7-7.25q-7.9 9-9.3 18.8-.9 6.3 1.05 19.35.05-12.55 5.85-21 5.45-8 14.1-9.9z" id="ab"/><path fill="url(#d)" d="M564.6 384.75l-12.4-5.9q-6.8 9.95-7.05 19.75-.2 6.45 3.25 19.15-1.4-12.4 3.4-21.55 4.45-8.55 12.8-11.45z" id="ac"/><path fill="url(#e)" d="M575.1 384.15l-12.95-4.35q-5.65 10.65-4.75 20.45.6 6.35 5.55 18.6-2.85-12.2.8-21.8 3.4-9.05 11.35-12.9z" id="ad"/><path fill="url(#f)" d="M493.2 423q-.543 3.458-.05 6 .75 3.75 3.55 2.15-2.464.569-3.5-8.15m156.35-6.8q-.13-.608-.65-1.25-.584 1.38-1.95 1.05 2.85 1.65 2.6.2m6.75-100.1q-1.1-5.35-4.75-10.6-4-5.8-9.9-9.6-14.65-9.4-34.05-2.65 3.75-6.1 11-8.9 6.85-2.7 14.1-1.45-11.3-7.15-22.7-5.25-10.6 1.8-18.25 10.7-.35-5.5 5.65-12 5.5-5.95 10.55-7.3-12-.5-18.85 2.8-6.7 3.15-10.85 11.05-.15-1.35.5-5.05 1.45-7.8 6.3-13.15-5.7 2-10.55 7.6-3.35 3.85-5.75 8.65-2.3-4.75-5.7-8.65-4.85-5.6-10.55-7.6 4.85 5.35 6.25 13.15.7 3.7.5 5.05-4.15-7.9-10.8-11.05-6.85-3.3-18.85-2.8 5.05 1.35 10.55 7.3 6 6.5 5.65 12-7.65-8.9-18.2-10.7-11.45-1.9-22.75 5.25 7.2-1.25 14.1 1.45 7.25 2.8 11 8.9-19.4-6.75-34.05 2.65-5.9 3.8-9.9 9.6-3.65 5.25-4.8 10.6 2.5-5.65 11.85-8.5 9.8-2.95 20.15-.5-13.1.2-23.8 13.6-10.6 13.3-8.95 27.05 4.6-9.4 10.35-13.4 4.5-3.15 11.95-4.2-7.9 3.55-14.4 17.45-6.7 14.4-3.75 23.85 1.8-7.3 8.2-13.25 6.3-5.85 11.9-5.75-9.95 9.35-13.4 18.6-3.9 10.5-1 24 1.5-3.5 1.95 1.4.15 2 .3 13.3.092 8.21.65 13.25.21-1.068.5-2.25 1.2-5.05 3.25-6.6 2.45-1.9 4.7 2.65 1.75-10.95 5.15-16.5 2.95-4.85 9-8.35-3.05 3.75-3.35 13.9-.35 11.45 3.75 22.25 1.85-10.15 5.5-15.35 2.8-4.05 9.25-7.95-4.75 10.65 2.6 28.15.4-1.05 14.8 4.55 7.7 3 20.4 8.25 4.1-1.6 20.45-8.25 14.4-5.6 14.8-4.55 7.35-17.45 2.55-28.15 6.45 3.9 9.25 7.95 3.65 5.2 5.45 15.35 4.15-10.8 3.85-22.25-.3-10.1-3.35-13.9 6.05 3.55 9 8.35 3.4 5.6 5.1 16.5 2.25-4.45 5.65-5.05 2.7-.45 5.4 1.45 1.329.905 2 1.75 1.196-2.823-.85-12.75-1.45-6.5-1.8-8.1-.45-2.35 1 .95 2.9-13.5-1-24-3.45-9.25-13.4-18.6 5.6-.1 11.9 5.75 6.4 5.95 8.2 13.25 2.95-9.45-3.75-23.85-6.5-13.9-14.4-17.45 7.45 1.05 11.95 4.2 5.7 4 10.3 13.4 1.65-13.75-8.95-27.05-10.65-13.4-23.75-13.6 10.35-2.45 20.15.5 9.35 2.85 11.8 8.5z" id="ae"/><path fill="url(#g)" d="M599.85 358.35q1.819-.692 3.7-1.15l1.95-3.55q2.907 1.414 5.5 2.9 4.204.216 8.65 1.6 12.1 3.75 21.9 15.6-5.9-12.8-12.85-18.9-8.35-7.45-24.45-11.6l-4.4 15.1m3.7-1.15l-5.35 9.8q9.6-1.45 20 4.9 11.5 7.1 17.3 20.45-3.35-14.35-8.55-21.85-5.415-7.781-15.95-13.95-3.83-.144-7.45.65m29.4-41.65q-9.3-3.8-23.05-1.9l-.4 12.95-.2-.1-3.4 15.45q9-4.1 19.75-1.55 12.45 2.85 23.05 14-6.7-12.15-13.7-17.7-8.55-6.75-23.9-9.8 6.95-5.5 16.75-5.3 10.5.25 21 7.15-7.25-9.65-15.9-13.2m-23.5 1.95q-.5-8.75 8.1-13.85 9.15-5.45 22.65-2.4-10.4-5.8-21.45-4.15-12.2 1.8-18.9 12.3l9.6 8.1m-98.85 53q-5.2 7.5-8.55 21.85 5.8-13.35 17.3-20.45 10.4-6.35 19.95-4.9l-5.3-9.75q-3.628-.836-7.45-.7-10.536 6.17-15.95 13.95m-1.8-15.65q-6.9 6.1-12.8 18.9 9.7-11.85 21.9-15.6 4.442-1.39 8.65-1.6 2.592-1.485 5.5-2.9l1.95 3.6q1.851.416 3.65 1.1l-4.4-15.1q-16.05 4.15-24.45 11.6m22.75-12.9l-3.3-15.45q-.1.1-.25.1l-.35-12.95q-13.75-1.9-23.05 1.9-8.65 3.55-15.9 13.2 10.55-6.9 21-7.15 9.8-.2 16.75 5.3-15.35 3.05-23.9 9.8-7 5.55-13.7 17.7 10.55-11.1 23-14 10.75-2.55 19.7 1.55m-3.45-24.45l9.55-8.1q-6.7-10.5-18.85-12.3-11.05-1.65-21.45 4.15 13.5-3.05 22.65 2.4 8.6 5.1 8.1 13.85m72.15-21.45q3.8-10.5 13.65-14.75-19.5 2.3-25.9 27.2l12 5.35q-3.25-8.25.25-17.8m-60.45-6.8q-6.5-6.8-16.15-7.95 9.85 4.3 13.65 14.75 3.45 9.55.2 17.8l12.05-5.35q-.204-.788-.45-1.55v-.05q-3.176-11.199-9.3-17.65m46.25.9q1.75-11.25 9.95-17.1-7.85 3.6-12.4 10.3-5 7.25-6.5 18.85-3.5-5.85-3.45-13.35.05-8.55 4.9-17.5-3.75 4.05-5.85 7.15-2.6 3.75-3.95 7.5-1.35-3.75-3.9-7.5-2.15-3.1-5.85-7.15 4.8 9 4.9 17.5.05 7.55-3.5 13.35-1.5-11.6-6.45-18.85-4.55-6.7-12.4-10.3 8.15 5.85 9.9 17.1 1.547 9.979-2.35 16.75v.05l8.75-1.25 9.7 1.05.05.2 1.15-.1 1.15.1q0-.15.1-.2l9.7-1.05 8.65 1.25q-3.85-6.8-2.3-16.8z" id="af"/><path fill="url(#h)" d="M593.2 371.75L581.5 379q8.65 1.9 14.1 9.9 5.8 8.45 5.85 21 1.95-13.05 1.05-19.35-1.4-9.8-9.3-18.8z" id="ag"/><path fill="url(#i)" d="M585.35 378.85l-12.4 5.9q8.35 2.9 12.85 11.45 4.75 9.15 3.35 21.55 3.45-12.7 3.3-19.15-.3-9.8-7.1-19.75z" id="ah"/><path fill="url(#j)" d="M575.4 379.8l-12.95 4.35q7.95 3.85 11.35 12.9 3.65 9.6.75 21.8 5-12.2 5.6-18.6.9-9.8-4.75-20.45z" id="ai"/><path fill="#FFDA71" d="M635.1 489.75q0-13.35-19.55-22.8-19.6-9.45-47.15-9.45-27.5 0-47.05 9.45-19.55 9.45-19.55 22.8 0 13.3 19.55 22.75 19.6 9.5 47.05 9.5 27.55 0 47.15-9.5 19.55-9.45 19.55-22.75z" id="aj"/><path fill="url(#k)" d="M551.05 370.65l-10.95-13.1q-12.9 7.65-18.3 18.7-3.5 7.1-6.3 23.35 4.9-14.8 15.1-22.65 9.55-7.35 20.45-6.3z" id="ak"/><path fill="url(#l)" d="M597.45 357.55l-10.95 13.1q10.9-1.05 20.45 6.3 10.2 7.85 15.05 22.65-2.7-16.2-6.25-23.35-5.4-11.05-18.3-18.7z" id="al"/><path fill="url(#m)" d="M534.95 319.75q1.55-1.35 6.8-2.55 3.75-.85 2.9-3-4.3-10.5-13.45-15.25-8.2-4.3-15.7-2.1-8.4 2.45-11.85 9.15-3.15 6.1-1.5 13.85 1.6 7.5 6.95 13.4 5.65 6.25 13.3 7.95 1.3.3 2-4.1.9-5.5 1.9-6.95 4.6-6.85 8.65-10.4z" id="am"/><path fill="url(#n)" d="M538.15 316.8q-2-6.85-8.35-11.2t-11.95-2.85q-6.4 1.7-8.65 6.5-2 4.3-.3 9.95 1.6 5.35 5.75 9.6 4.35 4.45 9.6 5.5.55-.6 1.05-1.95.5-1.5 1-2.2 4.6-6.85 8.65-10.4 2.35-2.05 3.2-2.95z" id="an"/><path fill="#FFF" d="M515.2 324.75q-3.1-5.6-1.85-10.45 1.35-5.45 7.85-7.2 2.35-.6 5.05.1 2.6.65 5.1 2.35-2.75-2.65-5.95-3.85-3.4-1.3-6.25-.55-7.1 1.95-7.8 8.3-.6 5.65 3.85 11.3z" id="ao"/><path fill="url(#o)" d="M634.7 319.85q1.65-7.75-1.45-13.85-3.45-6.7-11.85-9.15-7.5-2.2-15.7 2.1-9.15 4.75-13.45 15.25-.85 2.15 2.9 3 5.25 1.2 6.8 2.55 4.25 3.8 8.65 10.4 1 1.4 1.9 6.95.7 4.4 2 4.1 7.6-1.7 13.25-7.95 5.3-5.9 6.95-13.4z" id="ap"/><path fill="url(#p)" d="M627.65 309.25q-2.2-4.8-8.6-6.5-5.65-1.5-11.95 2.85-6.35 4.35-8.4 11.2.85.85 3.25 2.95 4.25 3.8 8.65 10.4.5.7 1 2.2.45 1.35.95 1.95 5.25-1.05 9.65-5.5 4.15-4.25 5.75-9.6 1.7-5.6-.3-9.95z" id="aq"/><path fill="#FFF" d="M623.55 314.3q1.25 4.85-1.85 10.45 4.4-5.65 3.8-11.3-.7-6.35-7.75-8.3-2.85-.75-6.25.55-3.2 1.2-5.95 3.85 2.5-1.7 5.1-2.35 2.7-.7 5-.1 6.55 1.75 7.9 7.2z" id="ar"/><path fill="url(#q)" d="M510.1 351.35q-2.25 15.6 2 29.85 4.5 15.15 15 23.35 8.1 6.45 19.15 9.85 10.55 3.3 22.15 3.35 11.65-.05 22.25-3.35 11-3.4 19.15-9.85 10.5-8.2 15.05-23.35 4.2-14.25 1.95-29.85-3.45-23.55-19.7-35.85-15.05-11.35-38.7-11.45-23.55.1-38.6 11.45-16.25 12.3-19.7 35.85z" id="as"/><path fill="url(#r)" d="M565.6 312.55q-1.25 3.1-.5 6.95.4 2.25 1.75 6.75 1.3 5.65 1.9 12.6.7-7.15 1.95-12.6 1.3-4.5 1.75-6.75.75-3.85-.5-6.95-.45-1.05-1.75-3.45-1-1.75-1.45-3.4-.45 1.65-1.4 3.4-1.35 2.45-1.75 3.45z" id="at"/><path fill="url(#s)" d="M540.1 321.85q0 5.3 8.3 9 8.3 3.75 20 3.75 11.75 0 20.05-3.75 8.35-3.7 8.35-9 0-5.25-8.35-9-8.3-3.75-20.05-3.75-11.65 0-20 3.75-8.3 3.75-8.3 9z" id="au"/><path fill="#FFF7CD" d="M586.65 320.7q-3.4.45-4.8 3.2-1.35 2.6.15 4.8 2.25 3.25 6.95 2.3 2.25-.4 6.35-1.2 3.4-.65 5.75-1.35 2.85-.85 2.45-4-.45-3.3-4.15-3.75-7.3-.8-12.7 0m-30.95 3.2q-1.4-2.75-4.8-3.2-5.35-.8-12.75 0-3.65.45-4.1 3.75-.4 3.15 2.45 4 2.35.7 5.8 1.35 2 .4 6.3 1.2 4.7.95 6.9-2.3 1.55-2.2.2-4.8z" id="av"/><path fill="url(#t)" d="M561.7 340.6q-3.2 1.5-3.75 4.35-.85 5.4-4.4 11.25-4.25 6.3-6.1 9.35-2.75 4.55-1.95 9.85.8 5.65 5.35 8.3 2.6 1.5 2.65 2.85.05 2.75.75 4.25 2.15 4.9 14.55 4.9 12.35 0 14.5-4.9.65-1.45.75-4.25.05-1.35 2.7-2.85 4.5-2.65 5.35-8.3.75-5.3-2-9.85-4.1-6.05-6.1-9.35-3.55-5.85-4.45-11.25-.5-2.85-3.7-4.35-2.9-1.35-7.1-1.25-4.2-.1-7.05 1.25z" id="aw"/><path fill="#E4A533" d="M561.45 382.2q0 1.4 2.15 2.6 2.25 1.25 5.15 1.25 2.95 0 5.2-1.25 2.15-1.2 2.15-2.6 0-.85-1.05-1.5-.65-.4-2.6-1.25-.35-.15-1.7-1.3-1.1-.95-2-.95-1 0-2.3 1.1-1.7 1.5-1.95 1.6-1.6.75-2.15 1.05-.9.55-.9 1.25z" id="ax"/><path fill="#D89533" d="M549.6 368.5q-.5 1.95-.55 2.65-.45 3.65 1.35 6.7 2 3.05 5.5 4.2 1.55.4 2.5.5h.15q4.05.5 7.2-1.5 3.45-2.15 3.95-6.05v-.15q0-.4-.25-.65-.25-.3-.6-.3-.4-.05-.65.2-.3.25-.35.6v.05q-.35 3-3.05 4.7-2.6 1.6-6.05 1.3h-.15q-1.2-.15-2.15-.45-2.95-.95-4.45-3.45-1.45-2.3-1.15-5.55.05-.45.5-2.2.25-.9-.6-1.2-.9-.2-1.15.6z" id="ay"/><path fill="#D89533" d="M588.5 371.15q-.05-.9-.6-2.65-.05-.35-.4-.5-.35-.2-.75-.1-.8.3-.55 1.2.45 1.75.5 2.2.3 3.25-1.15 5.55-1.45 2.5-4.45 3.45-.95.3-2.2.45h-.05q-3.5.3-6.1-1.3-2.75-1.75-3.05-4.7v-.05q-.05-.35-.35-.6-.25-.25-.65-.2-.35 0-.6.3-.25.25-.25.65v.15q.5 3.9 3.95 6.05 3.15 2 7.2 1.5h.15q.95-.1 2.5-.5 3.5-1.15 5.5-4.2 1.8-3.05 1.35-6.7z" id="az"/><path fill="#EDB233" d="M556.35 363.45q.8 2.25 4.55 2.8l7.95.45 7.75-.45q3.8-.55 4.6-2.8.7-1.85-.4-6.4-1.55-6.8-4.3-9.4-2.55-2.4-7.5-2.5-5.35-.05-7.9 2.35-2.7 2.5-4.35 9.55-1.1 4.55-.4 6.4z" id="aA"/><path fill="#FFE596" d="M562.6 362.05q-2.55.75-2.55 1.85t2.55 1.9q2.55.75 6.15.75 3.65 0 6.2-.75 2.55-.8 2.55-1.9 0-1.1-2.55-1.85-2.55-.8-6.2-.8-3.6 0-6.15.8z" id="aB"/><path fill="#C47B31" d="M555.75 362.45q-.1.35.15 1.6.4 2.45 1.8 4.15 1.15 1.5 2.85 1.9 1 .25 3.3.5 1.75.3 3.1 2.7l2.4-2.15-1.75-5.75-.25-.2-4.9-1.75-.9 1.5q-.85.5-1.8.35-.85-.2-1.5-.75-.45-.4-.8-1.2-.4-.9-.7-1.25-.3-.4-.6-.3-.35.1-.4.65z" id="aC"/><path fill="#7C4326" d="M565.45 371.3q.05 0 .15.2.75.65 1.35 1.8l.8-.7.45-5.2-.3-1.05-3.4-2.15-1.2-.45-1.8 1.45q.85-.3 1.45.15.5.45.55 1.3.2 1.75.4 2.4.45 1.5 1.55 2.25z" id="aD"/><path fill="#C47B31" d="M575.95 364.95l-.85-1.5-4.9 1.75-.3.2-1.7 5.75 2.35 2.15q1.4-2.4 3.1-2.7 1.3-.25 3.35-.5 1.7-.4 2.85-1.9 1.3-1.55 1.8-4.15.2-1.1.15-1.6-.05-.55-.4-.65-.3-.1-.6.3-.25.35-.7 1.25-.35.8-.8 1.2-.65.55-1.5.75-1 .15-1.85-.35z" id="aE"/><path fill="#7C4326" d="M573.7 369.05q.15-.5.35-2.4.05-.85.55-1.3.55-.45 1.45-.15l-1.8-1.45-1.25.45-3.35 2.15-.3 1.05.45 5.2.75.7q1.15-1.6 1.4-1.8.1-.2.15-.2 1.15-.75 1.6-2.25z" id="aF"/><path fill="#E6A833" d="M578.4 374.6q-.8-.1-1 .8-.05.4.2.65.25.3.6.35.35 0 .65-.2.3-.25.35-.55.05-.35-.15-.65-.25-.3-.65-.4z" id="aG"/><path fill="#E6A833" d="M575.95 370.95q-.8-.1-1 .8-.05.4.2.65.25.3.6.35.9 0 1-.8.1-.4-.15-.7-.25-.3-.65-.3z" id="aH"/><path fill="#E6A833" d="M580.85 370.95q-.8-.1-1 .8-.05.4.2.65.25.3.6.35.9 0 1-.8.1-.35-.15-.7-.25-.3-.65-.3z" id="aI"/><path fill="#E6A833" d="M560.15 375.4q-.15-.9-1.05-.8-.4.1-.6.4-.2.3-.15.65.1.75 1 .75.9-.1.8-1z" id="aJ"/><path fill="#E6A833" d="M562.6 371.75q-.15-.9-1.05-.8-.35 0-.6.3-.2.3-.15.7.1.8 1 .8.9-.1.8-1z" id="aK"/><path fill="#E6A833" d="M557.7 371.75q-.15-.9-1-.8-.8 0-.8 1 .1.8 1 .8.35-.05.6-.35.25-.25.2-.65z" id="aL"/><path fill="url(#u)" d="M559.95 364.35q.25 1.55 2.15.55 1.15-.65 2.4-.05 1.65.95 2.1 3.5.3 1.9-.05 4.25l2.2 4.1 2.25-4.1q-.35-2.35-.05-4.25.4-2.55 2.05-3.5 1.3-.6 2.45.05 1.9 1 2.15-.55.2-1.5-2.35-1.7-1.25-.1-2.35.25-1.25.55-2.1.8-2.1.35-3.95 0-1.55-.55-2.2-.8-1.1-.35-2.35-.25-2.55.2-2.35 1.7z" id="aM"/><path fill="#A8622D" d="M566.55 372.55v.05l2.2 4.1 2.25-4.1v-.05q-.85.25-2.25.25-1.3 0-2.2-.25z" id="aN"/><path fill="url(#v)" d="M568.5 363.95v10h.55v-10h-.55z" id="aO"/><path fill="#C27831" d="M586.65 335.15q-3.55 2.5-4.9 6.5-.55 1.4-.15 2.45.4 1.2 1.95 1.6 1.2.3 2.3-.3 1.25-.75 1.65-2.55h14.6q.4 1.8 1.7 2.55 1.05.6 2.35.3 2.85-.8 1.8-4.05-1.35-4-4.95-6.5-3.65-2.6-8.15-2.6h-.1q-4.45 0-8.1 2.6z" id="aP"/><path fill="#C27831" d="M542.05 332.55H542q-4.5 0-8.1 2.6-3.6 2.5-4.95 6.5-1.25 3.25 1.8 4.05 1.25.3 2.3-.3 1.25-.75 1.65-2.55h14.65q.4 1.8 1.65 2.55 1.05.6 2.35.3 1.5-.4 1.95-1.6.35-1.05-.15-2.45-1.35-4-4.9-6.5-3.65-2.6-8.2-2.6z" id="aQ"/><path fill="#363435" d="M610.3 342q1.4-3.05 0-6.85.35 4.7-2.65 6.6-2.6 1.65-5.55.25l2.1 4.4q4.55-1.05 6.1-4.4z" id="aR"/><path fill="#363435" d="M600.8 339.85l1.8 3.8q3.8-.85 5.15-3.85 1.35-2.9-.55-5.8 1.1 3.95-1.4 5.7-2.25 1.55-5 .15z" id="aS"/><path fill="#FFF" d="M594.85 336.6q-4.25 0-7.25 3t-3 7.25q0 4.2 3 7.2t7.25 3q4.2 0 7.2-3t3-7.2q0-4.25-3-7.25t-7.2-3z" id="aT"/><path fill="url(#w)" d="M594.85 339q-3.25 0-5.55 2.3t-2.3 5.55q0 3.25 2.3 5.5t5.55 2.25q3.25 0 5.55-2.25 2.3-2.3 2.3-5.5 0-3.25-2.3-5.55t-5.55-2.3z" id="aU"/><path fill="url(#x)" d="M600.1 351.35q.5-.5.55-1.15.05-.6-.35-1-.4-.3-.9-.25-.6.05-1.1.7-1.4 1.65-3.45 1.65-2.2 0-3.45-1.65-1.05-1.25-2.05-.45-.4.4-.35 1 .05.65.6 1.15 1.9 2.45 5.25 2.45 3.2 0 5.25-2.45z" id="aV"/><path fill="#363435" d="M594.85 343.25q-1.5 0-2.55 1.05-1.05 1.05-1.05 2.55 0 1.45 1.05 2.45 1.1 1.05 2.55 1.05 1.45 0 2.5-1.05 1-1 1-2.45 0-1.55-1-2.55-1.05-1.05-2.5-1.05z" id="aW"/><path fill="#FFF" d="M597.8 348.05q.3.35.8.35.4 0 .75-.35.3-.3.3-.8 0-.4-.3-.75-.35-.3-.75-.3-.5 0-.8.3-.35.35-.35.75 0 .5.35.8z" id="aX"/><path fill="#FFF" d="M590 345.75q.65.65 1.6.65.9 0 1.6-.65.65-.65.65-1.6 0-.95-.65-1.65-.7-.65-1.6-.65-.95 0-1.6.65-.65.7-.65 1.65t.65 1.6z" id="aY"/><path fill="#363435" d="M532.7 346.4l2.1-4.4q-2.95 1.4-5.55-.25-3-1.9-2.65-6.6-1.4 3.8-.05 6.85 1.55 3.35 6.15 4.4z" id="aZ"/><path fill="#363435" d="M534.3 343.65l1.8-3.8q-2.75 1.4-5.05-.15-2.55-1.75-1.35-5.7-1.9 2.9-.55 5.8 1.35 3 5.15 3.85z" id="ba"/><path fill="#FFF" d="M542.05 336.6q-4.2 0-7.2 3t-3 7.25q0 4.2 3 7.2t7.2 3q4.25 0 7.25-3t3-7.2q0-4.25-3-7.25t-7.25-3z" id="bb"/><path fill="url(#y)" d="M542.05 339q-3.25 0-5.55 2.3t-2.3 5.55q0 3.2 2.3 5.5 2.3 2.25 5.55 2.25t5.55-2.25q2.3-2.25 2.3-5.5t-2.3-5.55q-2.3-2.3-5.55-2.3z" id="bc"/><path fill="url(#z)" d="M547.3 351.35q.5-.5.55-1.15.1-.6-.3-1-1-.8-2.05.45-1.4 1.65-3.45 1.65-2.05 0-3.45-1.65-.55-.65-1.15-.7-.5-.05-.85.25-.4.4-.35 1 .05.65.55 1.15 2.05 2.45 5.25 2.45t5.25-2.45z" id="bd"/><path fill="#363435" d="M542.05 343.25q-1.5 0-2.55 1.05-1.05 1.05-1.05 2.55 0 1.45 1.05 2.45 1.1 1.05 2.55 1.05 1.45 0 2.5-1.05 1.05-1 1.05-2.45 0-1.5-1.05-2.55-1-1.05-2.5-1.05z" id="be"/><path fill="#FFF" d="M544.7 348.05q.3.35.8.35.45 0 .8-.35.3-.3.3-.8 0-.4-.3-.75-.35-.3-.8-.3-.5 0-.8.3-.35.35-.35.75 0 .5.35.8z" id="bf"/><path fill="#FFF" d="M537.3 345.75q.65.65 1.6.65.9 0 1.55-.65t.65-1.6q0-.95-.65-1.65-.65-.65-1.55-.65-.95 0-1.6.65-.65.7-.65 1.65t.65 1.6z" id="bg"/><path fill="url(#A)" d="M565.6 312.55q-1.25 3.1-.5 6.95.4 2.25 1.75 6.75.95 4.4 1.4 8.35h1q.75-5.55 1.45-8.35 1.3-4.5 1.75-6.75.75-3.85-.5-6.95-.7-1.7-1.75-3.45h-2.85q-1.1 1.85-1.75 3.45z" id="bh"/><path fill="url(#B)" d="M651.7 456.3q11.2-19.25 8.75-38.2-3.25-24.55-23-36.35-19.5-11.65-43.1-4.05-8.25 2.65-14.8 7.6-6.95 5.25-11.15 12.5-4.15-7.25-11.05-12.5-6.55-4.95-14.8-7.6-23.6-7.6-43.1 4.05-19.75 11.8-23 36.35-2.45 18.95 8.75 38.2 9 15.35 24.55 27.9 6.75 5.4 18.25 12.9 12.85 8.3 17.15 11.55 18.3 13.7 23.25 31.85 5.05-18.15 23.35-31.85 4.3-3.2 17.15-11.55 11.5-7.5 18.25-12.9 15.55-12.55 24.55-27.9m-111.1-72.6q7.55 2.4 13.4 6.95 6.2 4.85 9.65 11.55 1.05 1.85 2.15 4.9l2.6 7.65 2.7-7.65q.75-2.45 2.05-4.9 3.55-6.7 9.75-11.55 5.8-4.55 13.35-6.95 20.75-6.65 37.95 3.7 17.45 10.55 20.25 32.2 3.15 24.45-12.65 45.1-6.3 8.2-16.5 17.15-6 5.25-19.15 15.4-19.45 15-20.9 16.2-11.9 10.25-16.85 19.55-4.9-9.35-16.8-19.55-1.5-1.3-20.85-16.2-13.15-10.15-19.15-15.4-10.2-8.95-16.5-17.15-15.8-20.65-12.65-45.1 2.85-21.65 20.25-32.2 17.2-10.35 37.9-3.7z" id="bi"/><path fill="url(#C)" d="M658.3 420.35q-1.3-11.9-7.05-21.25-6.2-10.05-16.75-15.55-8.35-4.4-18.5-5.2-10-.75-19.45 2.15-21.25 6.5-27.8 25.5-6.55-19-27.8-25.5-9.45-2.9-19.45-2.15-10.15.8-18.55 5.2-10.5 5.5-16.7 15.55-5.75 9.35-7.05 21.25-1.25 11.4 1.75 23Q484 455 490.7 464.2q8.25 11.3 23.65 24.05 8.8 7.3 26.55 20.95 13.35 10.85 16.6 14.2 8.1 8.4 11.25 18.6 3.2-10.2 11.3-18.6 3.25-3.35 16.6-14.2 8.5-6.9 26.55-20.95 15.35-12.7 23.6-24.05 6.7-9.2 9.75-20.85 3-11.6 1.75-23z" id="bj"/><path fill="url(#D)" d="M516.25 386.05q-11 2.25-18.55 9.3-7.55 7-9.8 17.25-2.55 11.35 1.75 25.15 5.7 18.65 29.2 30.45 21.85 10.95 49.9 11.9 28.05-.95 49.9-11.9 23.5-11.8 29.25-30.45 4.25-13.8 1.75-25.15-2.3-10.25-9.8-17.25-7.55-7.05-18.55-9.3-10.8-2.2-21.55.95-11.35 3.25-19.35 11.6-8.75 9.2-11.65 22.9-2.9-13.7-11.65-22.9-7.95-8.35-19.3-11.6-10.75-3.15-21.55-.95z" id="bk"/><path fill="url(#E)" d="M539.3 392.05q-12.75-4.8-26.9.95-14.6 5.85-18.65 20.95-3.7 13.9 3 27.65-5.25-14.15.3-26.4 5.05-11.15 16.8-16.95 11.65-5.75 23.8-3.3 13.3 2.65 21.4 14.35-7.6-12.7-19.75-17.25z" id="bl"/><path fill="url(#F)" d="M539.8 498.85q9.334 7.372 15.1 12.95 8.5 8.25 13.85 16.6 5.35-8.35 13.85-16.6 6.15-5.9 16.4-13.9-30.378 22.306-59.2.95z" id="bm"/><path fill="url(#G)" d="M505.75 379.95q-7-6.3-16.45-3.65-8.85 2.45-14.7 10.9-4.5 6.7-4.75 14.25-.25 8.25 5.2 13.05 6.35 5.65 14.8 3.55 7.6-1.9 13.85-9 6.15-7.05 7.15-14.9 1.1-8.7-5.1-14.2z" id="bn"/><path fill="url(#H)" d="M502.8 382.6q-3.75-3.35-8.65-3.25-4.45.05-8.95 2.85 7.9-1.95 13.95 3.3 4.05 3.45 5.2 8.45 1.15 4.9-.95 9.2l.55-.65q3.85-4.4 3.55-10.2-.35-5.85-4.7-9.7z" id="bo"/><path fill="url(#I)" d="M661.85 414.5q5.45-4.8 5.2-13.05-.2-7.55-4.75-14.25-5.85-8.45-14.7-10.9-9.5-2.65-16.55 3.65-6.15 5.5-5.05 14.2 1 7.85 7.2 14.9 6.25 7.1 13.85 9 8.45 2.1 14.8-3.55z" id="bp"/><path fill="url(#J)" d="M642.75 379.35q-4.9-.1-8.65 3.25-4.35 3.85-4.7 9.7-.35 5.8 3.5 10.2l.6.65q-2.1-4.3-1-9.2 1.15-5 5.25-8.45 6.05-5.25 13.95-3.3-4.5-2.8-8.95-2.85z" id="bq"/><path fill="#CD8632" d="M516.7 462.55q-11.65-3.55-21.25 2.95-9.35 6.3-10.15 17.25-.25 4.6.5 8.9.8 4.75 3.05 10.25 3.5 8.45 11.7 14.15 8.8 6.05 17.55 4.65 11.2-1.8 16.45-10.8 5.9-10.05 1.3-25.2-2.75-9.15-7.9-14.9-4.8-5.35-11.25-7.25z" id="br"/><path fill="url(#K)" d="M524.7 469.8q-7.95-4.65-17.05-2.4-9.1 2.25-13.7 9.95-5.1 8.6-1.85 20.15 3.6 13 12.6 18.95 8.15 5.35 17.1 3.15 9-2.2 13.4-10.6 4.85-9.3 1.45-22.25-3.1-11.8-11.95-16.95z" id="bs"/><path fill="#AD5D2E" d="M520.75 487.75q-4.1-2.5-8.65-1.5-4.5 1.05-6.6 4.95-2.35 4.4-.5 10.45 1.85 6.1 6.4 8.9 4.1 2.5 8.6 1.5 4.5-1.05 6.65-4.95 2.35-4.35.5-10.45t-6.4-8.9z" id="bt"/><path fill="#C27831" d="M495.5 488.25q2.6 4.75 6.8 2.95 1.7-.7 2.25-2.4.55-1.85-.65-4.1-1.25-2.25-3.3-3-1.85-.7-3.55 0-1.7.75-2.2 2.4-.6 1.9.65 4.15z" id="bu"/><path fill="#CD8632" d="M503.7 478.65q.45 2.55 2.1 3.95 1.5 1.25 3.35 1.1 1.85-.1 2.9-1.5 1.15-1.6.7-4.1-.4-2.55-2.1-3.9-1.5-1.25-3.35-1.15-1.85.1-2.9 1.55-1.15 1.55-.7 4.05z" id="bv"/><path fill="#C27831" d="M520.3 484q4.5-1 3.85-6.4-.3-2.55-1.9-3.75-1.4-1.05-3.2-.65-4.45 1-3.8 6.4.3 2.55 1.85 3.7 1.4 1.1 3.2.7z" id="bw"/><path fill="url(#L)" d="M520.7 486.55q-4.05-2.5-8.5-1.5-4.4 1-6.5 4.85-2.35 4.35-.5 10.35t6.35 8.75q4.05 2.5 8.45 1.5 4.45-1 6.5-4.85 2.35-4.35.5-10.35-1.8-6-6.3-8.75z" id="bx"/><path fill="url(#M)" d="M495.4 487.1q2.6 4.75 6.8 2.95 1.75-.7 2.25-2.4.6-1.85-.6-4.1-1.25-2.25-3.3-3-1.85-.7-3.55 0-1.7.75-2.25 2.4-.55 1.9.65 4.15z" id="by"/><path fill="url(#N)" d="M503.6 477.5q.95 5.35 5.45 5.05 1.85-.1 2.9-1.5 1.2-1.6.75-4.1-.45-2.55-2.15-3.9-1.5-1.25-3.35-1.15-1.85.1-2.9 1.55-1.15 1.55-.7 4.05z" id="bz"/><path fill="url(#O)" d="M523.15 480.75q1.2-1.8.9-4.3-.3-2.55-1.85-3.75-1.4-1.05-3.2-.65-4.45 1-3.8 6.4.3 2.5 1.85 3.7 1.4 1.05 3.2.65 1.8-.45 2.9-2.05z" id="bA"/><path fill="url(#P)" d="M512.3 489.7q5.95-2.35 11.25 1.2-2.45-2.75-5.8-3.6-3.15-.8-6.1.35-6.85 2.65-5.75 10.9.35-6.4 6.4-8.85z" id="bB"/><path fill="#D89533" d="M489.8 479.25q2.6-8.75 12.65-12.65 9.85-3.85 17.95.25-8.25-5.7-18.55-1.95-10.6 3.85-12.05 14.35z" id="bC"/><path fill="#CD8632" d="M651.75 491.65q.75-4.35.4-8.9-.75-10.95-10.05-17.25-9.6-6.5-21.25-2.95-6.45 1.9-11.25 7.25-5.15 5.75-7.9 14.9-4.6 15.15 1.3 25.2 5.25 9 16.45 10.8 8.75 1.4 17.55-4.65 8.2-5.7 11.7-14.15 2.25-5.5 3.05-10.25z" id="bD"/><path fill="url(#Q)" d="M629.9 467.4q-9.1-2.25-17.05 2.4-8.85 5.15-11.95 16.95-3.4 12.95 1.45 22.25 4.4 8.4 13.4 10.6 8.95 2.2 17.1-3.15 9-5.95 12.6-18.95 3.25-11.55-1.85-20.15-4.6-7.7-13.7-9.95z" id="bE"/><path fill="#AD5D2E" d="M625.4 486.25q-4.5-1-8.6 1.5-4.55 2.8-6.4 8.9-1.85 6.05.5 10.45 2.15 3.9 6.65 4.95 4.5 1 8.6-1.5 4.55-2.8 6.4-8.9 1.85-6.05-.5-10.45-2.15-3.9-6.65-4.95z" id="bF"/><path fill="#C27831" d="M635.25 491.2q4.2 1.8 6.8-2.95 1.2-2.25.65-4.15-.55-1.65-2.25-2.4-4.15-1.75-6.8 3-1.2 2.25-.65 4.1.55 1.7 2.25 2.4z" id="bG"/><path fill="#CD8632" d="M628.4 483.7q4.55.3 5.45-5.05.45-2.5-.7-4.05-1.05-1.45-2.9-1.55-1.85-.1-3.35 1.15-1.65 1.35-2.1 3.9-.45 2.5.7 4.1 1.05 1.4 2.9 1.5z" id="bH"/><path fill="#C27831" d="M613.4 477.6q-.3 2.55.9 4.35 1.1 1.65 2.9 2.05 1.8.4 3.2-.7 1.55-1.15 1.85-3.7.3-2.55-.9-4.35-1.05-1.65-2.85-2.05-1.8-.4-3.25.65-1.55 1.2-1.85 3.75z" id="bI"/><path fill="url(#R)" d="M625.3 485.05q-4.45-1-8.45 1.5-4.5 2.75-6.3 8.75-1.85 6 .5 10.35 2.05 3.85 6.5 4.85 4.45 1 8.45-1.5 4.5-2.75 6.35-8.75 1.85-6-.5-10.35-2.1-3.85-6.55-4.85z" id="bJ"/><path fill="url(#S)" d="M635.35 490.05q4.2 1.8 6.8-2.95 1.2-2.25.6-4.15-.5-1.65-2.25-2.4-4.2-1.75-6.8 3-1.2 2.25-.6 4.1.5 1.7 2.25 2.4z" id="bK"/><path fill="url(#T)" d="M628.5 482.55q4.5.3 5.45-5.05.45-2.5-.75-4.05-1.05-1.45-2.9-1.55-4.5-.3-5.45 5.05-.4 2.5.75 4.1 1.05 1.4 2.9 1.5z" id="bL"/><path fill="url(#U)" d="M613.5 476.45q-.3 2.5.9 4.3 1.05 1.6 2.85 2.05 1.8.4 3.25-.65 1.55-1.2 1.85-3.7.3-2.55-.9-4.35-1.1-1.65-2.9-2.05-1.8-.4-3.2.65-1.55 1.2-1.85 3.75z" id="bM"/><path fill="url(#V)" d="M614 490.9q5.3-3.55 11.25-1.2 6.05 2.45 6.4 8.85 1.1-8.25-5.75-10.9-2.95-1.15-6.1-.35-3.35.85-5.8 3.6z" id="bN"/><path fill="#D89533" d="M635.1 466.6q10.05 3.9 12.65 12.65-1.45-10.5-12.05-14.35-10.25-3.75-18.55 1.95 8.1-4.1 17.95-.25z" id="bO"/></defs><use xlink:href="#W"/><use xlink:href="#X" transform="matrix(.86559 0 0 .86557 -353.545 -153.216)"/><use xlink:href="#Y" transform="matrix(.86559 0 0 .86557 -353.545 -153.216)"/><use xlink:href="#Z" transform="matrix(.86559 0 0 .86557 -353.545 -153.216)"/><use xlink:href="#aa" transform="matrix(.86559 0 0 .86557 -353.545 -153.216)"/><use xlink:href="#ab" transform="matrix(.86559 0 0 .86557 -353.545 -153.216)"/><use xlink:href="#ac" transform="matrix(.86559 0 0 .86557 -353.545 -153.216)"/><use xlink:href="#ad" transform="matrix(.86559 0 0 .86557 -353.545 -153.216)"/><use xlink:href="#ae" transform="matrix(.86559 0 0 .86557 -353.545 -153.216)"/><use xlink:href="#af" transform="matrix(.86559 0 0 .86557 -353.545 -153.216)"/><use xlink:href="#ag" transform="matrix(.86559 0 0 .86557 -353.545 -153.216)"/><use xlink:href="#ah" transform="matrix(.86559 0 0 .86557 -353.545 -153.216)"/><use xlink:href="#ai" transform="matrix(.86559 0 0 .86557 -353.545 -153.216)"/><use xlink:href="#aj" transform="matrix(.86559 0 0 .86557 -353.545 -153.216)"/><use xlink:href="#ak" transform="matrix(.86559 0 0 .86557 -353.545 -153.216)"/><use xlink:href="#al" transform="matrix(.86559 0 0 .86557 -353.545 -153.216)"/><use xlink:href="#am" transform="matrix(.86559 0 0 .86557 -353.545 -153.216)"/><use xlink:href="#an" transform="matrix(.86559 0 0 .86557 -353.545 -153.216)"/><use xlink:href="#ao" transform="matrix(.86559 0 0 .86557 -353.545 -153.216)"/><use xlink:href="#ap" transform="matrix(.86559 0 0 .86557 -353.545 -153.216)"/><use xlink:href="#aq" transform="matrix(.86559 0 0 .86557 -353.545 -153.216)"/><use xlink:href="#ar" transform="matrix(.86559 0 0 .86557 -353.545 -153.216)"/><use xlink:href="#as" transform="matrix(.86559 0 0 .86557 -353.545 -153.216)"/><use xlink:href="#at" transform="matrix(.86559 0 0 .86557 -353.545 -153.216)"/><use xlink:href="#au" transform="matrix(.86559 0 0 .86557 -353.545 -153.216)"/><use xlink:href="#av" transform="matrix(.86559 0 0 .86557 -353.545 -153.216)"/><use xlink:href="#aw" transform="matrix(.86559 0 0 .86557 -353.545 -153.216)"/><use xlink:href="#ax" transform="matrix(.86559 0 0 .86557 -353.545 -153.216)"/><use xlink:href="#ay" transform="matrix(.86559 0 0 .86557 -353.545 -153.216)"/><use xlink:href="#az" transform="matrix(.86559 0 0 .86557 -353.545 -153.216)"/><use xlink:href="#aA" transform="matrix(.86559 0 0 .86557 -353.545 -153.216)"/><use xlink:href="#aB" transform="matrix(.86559 0 0 .86557 -353.545 -153.216)"/><use xlink:href="#aC" transform="matrix(.86559 0 0 .86557 -353.545 -153.216)"/><use xlink:href="#aD" transform="matrix(.86559 0 0 .86557 -353.545 -153.216)"/><use xlink:href="#aE" transform="matrix(.86559 0 0 .86557 -353.545 -153.216)"/><use xlink:href="#aF" transform="matrix(.86559 0 0 .86557 -353.545 -153.216)"/><use xlink:href="#aG" transform="matrix(.86559 0 0 .86557 -353.545 -153.216)"/><use xlink:href="#aH" transform="matrix(.86559 0 0 .86557 -353.545 -153.216)"/><use xlink:href="#aI" transform="matrix(.86559 0 0 .86557 -353.545 -153.216)"/><use xlink:href="#aJ" transform="matrix(.86559 0 0 .86557 -353.545 -153.216)"/><use xlink:href="#aK" transform="matrix(.86559 0 0 .86557 -353.545 -153.216)"/><use xlink:href="#aL" transform="matrix(.86559 0 0 .86557 -353.545 -153.216)"/><use xlink:href="#aM" transform="matrix(.86559 0 0 .86557 -353.545 -153.216)"/><use xlink:href="#aN" transform="matrix(.86559 0 0 .86557 -353.545 -153.216)"/><use xlink:href="#aO" transform="matrix(.86559 0 0 .86557 -353.545 -153.216)"/><use xlink:href="#aP" transform="matrix(.86559 0 0 .86557 -353.545 -153.216)"/><use xlink:href="#aQ" transform="matrix(.86559 0 0 .86557 -353.545 -153.216)"/><use xlink:href="#aR" transform="matrix(.86559 0 0 .86557 -353.545 -153.216)"/><use xlink:href="#aS" transform="matrix(.86559 0 0 .86557 -353.545 -153.216)"/><use xlink:href="#aT" transform="matrix(.86559 0 0 .86557 -353.545 -153.216)"/><use xlink:href="#aU" transform="matrix(.86559 0 0 .86557 -353.545 -153.216)"/><use xlink:href="#aV" transform="matrix(.86559 0 0 .86557 -353.545 -153.216)"/><use xlink:href="#aW" transform="matrix(.86559 0 0 .86557 -353.545 -153.216)"/><use xlink:href="#aX" transform="matrix(.86559 0 0 .86557 -353.545 -153.216)"/><use xlink:href="#aY" transform="matrix(.86559 0 0 .86557 -353.545 -153.216)"/><use xlink:href="#aZ" transform="matrix(.86559 0 0 .86557 -353.545 -153.216)"/><use xlink:href="#ba" transform="matrix(.86559 0 0 .86557 -353.545 -153.216)"/><use xlink:href="#bb" transform="matrix(.86559 0 0 .86557 -353.545 -153.216)"/><use xlink:href="#bc" transform="matrix(.86559 0 0 .86557 -353.545 -153.216)"/><use xlink:href="#bd" transform="matrix(.86559 0 0 .86557 -353.545 -153.216)"/><use xlink:href="#be" transform="matrix(.86559 0 0 .86557 -353.545 -153.216)"/><use xlink:href="#bf" transform="matrix(.86559 0 0 .86557 -353.545 -153.216)"/><use xlink:href="#bg" transform="matrix(.86559 0 0 .86557 -353.545 -153.216)"/><use xlink:href="#bh" transform="matrix(.86559 0 0 .86557 -353.545 -153.216)"/><use xlink:href="#bi" transform="matrix(.86559 0 0 .86557 -353.545 -153.216)"/><use xlink:href="#bj" transform="matrix(.86559 0 0 .86557 -353.545 -153.216)"/><use xlink:href="#bk" transform="matrix(.86559 0 0 .86557 -353.545 -153.216)"/><use xlink:href="#bl" transform="matrix(.86559 0 0 .86557 -353.545 -153.216)"/><use xlink:href="#bm" transform="matrix(.86559 0 0 .86557 -353.545 -153.216)"/><use xlink:href="#bn" transform="matrix(.86559 0 0 .86557 -353.545 -153.216)"/><use xlink:href="#bo" transform="matrix(.86559 0 0 .86557 -353.545 -153.216)"/><use xlink:href="#bp" transform="matrix(.86559 0 0 .86557 -353.545 -153.216)"/><use xlink:href="#bq" transform="matrix(.86559 0 0 .86557 -353.545 -153.216)"/><use xlink:href="#br" transform="matrix(.86559 0 0 .86557 -353.545 -153.216)"/><use xlink:href="#bs" transform="matrix(.86559 0 0 .86557 -353.545 -153.216)"/><use xlink:href="#bt" transform="matrix(.86559 0 0 .86557 -353.545 -153.216)"/><use xlink:href="#bu" transform="matrix(.86559 0 0 .86557 -353.545 -153.216)"/><use xlink:href="#bv" transform="matrix(.86559 0 0 .86557 -353.545 -153.216)"/><use xlink:href="#bw" transform="matrix(.86559 0 0 .86557 -353.545 -153.216)"/><use xlink:href="#bx" transform="matrix(.86559 0 0 .86557 -353.545 -153.216)"/><use xlink:href="#by" transform="matrix(.86559 0 0 .86557 -353.545 -153.216)"/><use xlink:href="#bz" transform="matrix(.86559 0 0 .86557 -353.545 -153.216)"/><use xlink:href="#bA" transform="matrix(.86559 0 0 .86557 -353.545 -153.216)"/><use xlink:href="#bB" transform="matrix(.86559 0 0 .86557 -353.545 -153.216)"/><use xlink:href="#bC" transform="matrix(.86559 0 0 .86557 -353.545 -153.216)"/><use xlink:href="#bD" transform="matrix(.86559 0 0 .86557 -353.545 -153.216)"/><use xlink:href="#bE" transform="matrix(.86559 0 0 .86557 -353.545 -153.216)"/><use xlink:href="#bF" transform="matrix(.86559 0 0 .86557 -353.545 -153.216)"/><use xlink:href="#bG" transform="matrix(.86559 0 0 .86557 -353.545 -153.216)"/><use xlink:href="#bH" transform="matrix(.86559 0 0 .86557 -353.545 -153.216)"/><use xlink:href="#bI" transform="matrix(.86559 0 0 .86557 -353.545 -153.216)"/><use xlink:href="#bJ" transform="matrix(.86559 0 0 .86557 -353.545 -153.216)"/><use xlink:href="#bK" transform="matrix(.86559 0 0 .86557 -353.545 -153.216)"/><use xlink:href="#bL" transform="matrix(.86559 0 0 .86557 -353.545 -153.216)"/><use xlink:href="#bM" transform="matrix(.86559 0 0 .86557 -353.545 -153.216)"/><use xlink:href="#bN" transform="matrix(.86559 0 0 .86557 -353.545 -153.216)"/><use xlink:href="#bO" transform="matrix(.86559 0 0 .86557 -353.545 -153.216)"/></svg>