<svg xmlns="http://www.w3.org/2000/svg" xmlns:xlink="http://www.w3.org/1999/xlink" preserveAspectRatio="none" width="284" height="320"><defs><linearGradient id="a" gradientUnits="userSpaceOnUse" x1="485" y1="507.538" x2="485" y2="530.962" spreadMethod="pad"><stop offset="0%" stop-color="#F0B732"/><stop offset="100%" stop-color="#CD8632"/></linearGradient><linearGradient id="b" gradientUnits="userSpaceOnUse" x1="435.55" y1="484.55" x2="435.55" y2="534.35" spreadMethod="pad"><stop offset="0%" stop-color="#E4A533"/><stop offset="100%" stop-color="#AD5D2E"/></linearGradient><linearGradient id="c" gradientUnits="userSpaceOnUse" x1="444.675" y1="483.188" x2="424.225" y2="529.112" spreadMethod="pad"><stop offset="0%" stop-color="#F0B732"/><stop offset="100%" stop-color="#CD8632"/></linearGradient><linearGradient id="d" gradientUnits="userSpaceOnUse" x1="534.45" y1="484.55" x2="534.45" y2="534.35" spreadMethod="pad"><stop offset="0%" stop-color="#E4A533"/><stop offset="100%" stop-color="#AD5D2E"/></linearGradient><linearGradient id="e" gradientUnits="userSpaceOnUse" x1="524.975" y1="483.262" x2="546.225" y2="528.837" spreadMethod="pad"><stop offset="0%" stop-color="#F0B732"/><stop offset="100%" stop-color="#CD8632"/></linearGradient><linearGradient id="f" gradientUnits="userSpaceOnUse" x1="485" y1="546.525" x2="485" y2="517.575" spreadMethod="pad"><stop offset="0%" stop-color="#FFF1C0"/><stop offset="100%" stop-color="#FFF"/></linearGradient><linearGradient id="g" gradientUnits="userSpaceOnUse" x1="485" y1="517.513" x2="485" y2="527.688" spreadMethod="pad"><stop offset="0%" stop-color="#A4776F"/><stop offset="100%" stop-color="#773E3C"/></linearGradient><linearGradient id="h" gradientUnits="userSpaceOnUse" x1="485" y1="524.5" x2="485" y2="517.2" spreadMethod="pad"><stop offset="0%" stop-color="#8B5650"/><stop offset="100%" stop-color="#D2BBB5"/></linearGradient><linearGradient id="i" gradientUnits="userSpaceOnUse" x1="479.463" y1="519.1" x2="485.637" y2="519.1" spreadMethod="pad"><stop offset="0%" stop-color="#FFF"/><stop offset="100%" stop-color="#E9E0DD"/></linearGradient><linearGradient id="j" gradientUnits="userSpaceOnUse" x1="491.25" y1="520.313" x2="485.25" y2="526.088" spreadMethod="pad"><stop offset="0%" stop-color="#CEB4AE"/><stop offset="100%" stop-color="#925F59"/></linearGradient><linearGradient id="k" gradientUnits="userSpaceOnUse" x1="485" y1="494.513" x2="485" y2="479.188" spreadMethod="pad"><stop offset="0%" stop-color="#F2BA32"/><stop offset="100%" stop-color="#FFDA71"/></linearGradient><linearGradient id="l" gradientUnits="userSpaceOnUse" x1="475.213" y1="497.375" x2="454.488" y2="499.925" spreadMethod="pad"><stop offset="0%" stop-color="#D89533"/><stop offset="100%" stop-color="#E4A533"/></linearGradient><linearGradient id="m" gradientUnits="userSpaceOnUse" x1="494.725" y1="497.463" x2="515.475" y2="499.637" spreadMethod="pad"><stop offset="0%" stop-color="#D89533"/><stop offset="100%" stop-color="#E4A533"/></linearGradient><linearGradient id="n" gradientUnits="userSpaceOnUse" x1="485" y1="556.538" x2="485" y2="597.363" spreadMethod="pad"><stop offset="0%" stop-color="#E691BC"/><stop offset="100%" stop-color="#D82D8E"/></linearGradient><linearGradient id="o" gradientUnits="userSpaceOnUse" x1="485.2" y1="624.513" x2="485.2" y2="553.188" spreadMethod="pad"><stop offset="0%" stop-color="#C82C87"/><stop offset="36.078%" stop-color="#DB589E"/><stop offset="100%" stop-color="#EEBAD5"/></linearGradient><linearGradient id="p" gradientUnits="userSpaceOnUse" x1="485.2" y1="601.537" x2="485.2" y2="545.563" spreadMethod="pad"><stop offset="0%" stop-color="#DE65A4"/><stop offset="43.922%" stop-color="#EAA5C8"/><stop offset="100%" stop-color="#FCE9F1"/></linearGradient><linearGradient id="q" gradientUnits="userSpaceOnUse" x1="464.475" y1="543.413" x2="427.125" y2="582.087" spreadMethod="pad"><stop offset="0%" stop-color="#FFF"/><stop offset="41.961%" stop-color="#FFF"/><stop offset="100%" stop-color="#EEBAD5"/></linearGradient><linearGradient id="r" gradientUnits="userSpaceOnUse" x1="485.25" y1="641.513" x2="485.25" y2="624.388" spreadMethod="pad"><stop offset="0%" stop-color="#EEBAD5"/><stop offset="100%" stop-color="#DB4C99"/></linearGradient><linearGradient id="s" gradientUnits="userSpaceOnUse" x1="503.2" y1="503.525" x2="503.2" y2="512.775" spreadMethod="pad"><stop offset="0%" stop-color="#672C2F"/><stop offset="100%" stop-color="#A07169"/></linearGradient><linearGradient id="t" gradientUnits="userSpaceOnUse" x1="506.475" y1="511.05" x2="499.725" y2="511.05" spreadMethod="pad"><stop offset="0%" stop-color="#BD9A93"/><stop offset="49.02%" stop-color="#E4D7D3"/><stop offset="100%" stop-color="#BD9A93"/></linearGradient><linearGradient id="u" gradientUnits="userSpaceOnUse" x1="466.8" y1="503.525" x2="466.8" y2="512.775" spreadMethod="pad"><stop offset="0%" stop-color="#672C2F"/><stop offset="100%" stop-color="#A07169"/></linearGradient><linearGradient id="v" gradientUnits="userSpaceOnUse" x1="470.475" y1="511.05" x2="463.725" y2="511.05" spreadMethod="pad"><stop offset="0%" stop-color="#BD9A93"/><stop offset="49.02%" stop-color="#E4D7D3"/><stop offset="100%" stop-color="#BD9A93"/></linearGradient><linearGradient id="w" gradientUnits="userSpaceOnUse" x1="422.262" y1="537.762" x2="436.137" y2="549.837" spreadMethod="pad"><stop offset="0%" stop-color="#E4A533"/><stop offset="100%" stop-color="#F0B732"/></linearGradient><linearGradient id="x" gradientUnits="userSpaceOnUse" x1="432.662" y1="534.063" x2="442.738" y2="546.037" spreadMethod="pad"><stop offset="0%" stop-color="#FFCF45"/><stop offset="100%" stop-color="#F0B732"/></linearGradient><linearGradient id="y" gradientUnits="userSpaceOnUse" x1="547.538" y1="537.65" x2="533.863" y2="549.95" spreadMethod="pad"><stop offset="0%" stop-color="#E4A533"/><stop offset="100%" stop-color="#F0B732"/></linearGradient><linearGradient id="z" gradientUnits="userSpaceOnUse" x1="540.35" y1="532.4" x2="528.65" y2="543.7" spreadMethod="pad"><stop offset="0%" stop-color="#FFCF45"/><stop offset="100%" stop-color="#F0B732"/></linearGradient><linearGradient id="A" gradientUnits="userSpaceOnUse" x1="444.45" y1="600.438" x2="450.65" y2="627.263" spreadMethod="pad"><stop offset="0%" stop-color="#F0B732"/><stop offset="100%" stop-color="#D89533"/></linearGradient><linearGradient id="B" gradientUnits="userSpaceOnUse" x1="449.375" y1="608.05" x2="446.925" y2="623.55" spreadMethod="pad"><stop offset="0%" stop-color="#FFE085"/><stop offset="100%" stop-color="#FFCB31"/></linearGradient><linearGradient id="C" gradientUnits="userSpaceOnUse" x1="434.725" y1="604.15" x2="438.875" y2="609.25" spreadMethod="pad"><stop offset="0%" stop-color="#FFE085"/><stop offset="100%" stop-color="#FFCB31"/></linearGradient><linearGradient id="D" gradientUnits="userSpaceOnUse" x1="441.537" y1="597.538" x2="443.863" y2="604.262" spreadMethod="pad"><stop offset="0%" stop-color="#FFE085"/><stop offset="100%" stop-color="#FFCB31"/></linearGradient><linearGradient id="E" gradientUnits="userSpaceOnUse" x1="451.275" y1="597.325" x2="450.225" y2="603.975" spreadMethod="pad"><stop offset="0%" stop-color="#FFE085"/><stop offset="100%" stop-color="#FFCB31"/></linearGradient><linearGradient id="F" gradientUnits="userSpaceOnUse" x1="450.537" y1="608.613" x2="440.762" y2="613.587" spreadMethod="pad"><stop offset="0%" stop-color="#FFF"/><stop offset="100%" stop-color="#FFECAC"/></linearGradient><linearGradient id="G" gradientUnits="userSpaceOnUse" x1="525.762" y1="600.438" x2="520.038" y2="627.362" spreadMethod="pad"><stop offset="0%" stop-color="#F0B732"/><stop offset="100%" stop-color="#D89533"/></linearGradient><linearGradient id="H" gradientUnits="userSpaceOnUse" x1="520.938" y1="607.925" x2="523.662" y2="623.375" spreadMethod="pad"><stop offset="0%" stop-color="#FFE085"/><stop offset="100%" stop-color="#FFCB31"/></linearGradient><linearGradient id="I" gradientUnits="userSpaceOnUse" x1="535.875" y1="603.863" x2="531.825" y2="609.038" spreadMethod="pad"><stop offset="0%" stop-color="#FFE085"/><stop offset="100%" stop-color="#FFCB31"/></linearGradient><linearGradient id="J" gradientUnits="userSpaceOnUse" x1="528.95" y1="597.362" x2="526.75" y2="604.138" spreadMethod="pad"><stop offset="0%" stop-color="#FFE085"/><stop offset="100%" stop-color="#FFCB31"/></linearGradient><linearGradient id="K" gradientUnits="userSpaceOnUse" x1="519.063" y1="597.237" x2="520.237" y2="603.862" spreadMethod="pad"><stop offset="0%" stop-color="#FFE085"/><stop offset="100%" stop-color="#FFCB31"/></linearGradient><linearGradient id="L" gradientUnits="userSpaceOnUse" x1="519.513" y1="608.45" x2="529.388" y2="613.25" spreadMethod="pad"><stop offset="0%" stop-color="#FFF"/><stop offset="100%" stop-color="#FFECAC"/></linearGradient><linearGradient id="M" gradientUnits="userSpaceOnUse" x1="479.85" y1="527.212" x2="476.65" y2="522.988" spreadMethod="pad"><stop offset="0%" stop-color="#622A2E"/><stop offset="100%" stop-color="#2B1E1E"/></linearGradient><linearGradient id="N" gradientUnits="userSpaceOnUse" x1="490.125" y1="527.25" x2="493.275" y2="523.05" spreadMethod="pad"><stop offset="0%" stop-color="#622A2E"/><stop offset="100%" stop-color="#2B1E1E"/></linearGradient><path fill="#FFF" fill-opacity="0" d="M284 0H0v320h284V0z" id="O"/><path fill="#FFDA71" d="M484.95 586.95q-19.3 0-33 6.65t-13.7 16q0 9.35 13.7 15.95 13.7 6.65 33 6.65 19.35 0 33.1-6.65 13.7-6.6 13.7-15.95t-13.7-16q-13.75-6.65-33.1-6.65z" id="P"/><path fill="url(#a)" d="M501.25 553.65q8.1-2.4 14-6.85 7.75-5.75 11.05-16.45 3.15-10 1.45-20.9-2.55-16.8-14.45-26.05-11.3-8.8-28.35-8.8-16.95 0-28.3 8.8-11.9 9.3-14.45 26.05-1.65 10.9 1.45 20.9 3.35 10.7 11 16.45 6 4.45 14.05 6.85 7.8 2.3 16.25 2.4 8.55-.1 16.3-2.4z" id="Q"/><path fill="url(#b)" d="M436.35 485.5q-1.75 2.35-5.05 8.45-3 5.6-5.15 8.15-.6.75-7.05 6.95-4.3 4.1-5.65 7.7-1.9 4.95-.15 10.15 1.95 5.85 7.95 9.55 10.25 6.35 23.3 4.4 4.95-.7 8.45-3.7 3.75-3.35 2.1-6.75-3.55-7.05-3.9-19.95-.4-15.35 5.7-23.4 2.5-3.3 1.35-5.65-1-1.95-4.05-2.75-5.55-1.45-10.4.7-4.3 1.9-7.45 6.15z" id="R"/><path fill="url(#c)" d="M438.95 494.45q1.65-4.95 3.3-7.6 4.2-6.65 13.85-6.2-6.6-1.25-10.8 1.15-5.2 3-8.95 12.45-2.4 6-4.05 8.6-2.55 4.05-7.6 8.35-6.35 5.2-7.3 11.25-1.15 7.15 6.3 12.4-4-4.25-3.35-9.05.55-4 4.05-7.7 4.15-3.35 6.25-5.35 3.8-3.6 5.35-8.55 2-6.85 2.95-9.75z" id="S"/><path fill="url(#d)" d="M515.7 478.65q-3.05.8-3.95 2.75-1.15 2.35 1.35 5.65 6.1 8 5.65 23.4-.35 12.8-3.85 19.95-1.75 3.4 2.05 6.75 3.45 3 8.5 3.7 13 2 23.3-4.4 5.95-3.7 7.95-9.55 1.75-5.25-.15-10.15-1.35-3.6-5.65-7.7-6.45-6.2-7.05-6.95-2.2-2.6-5.2-8.15-3.3-6.15-5-8.45-3.15-4.25-7.45-6.15-4.95-2.15-10.5-.7z" id="T"/><path fill="url(#e)" d="M524.7 481.8q-4.2-2.4-10.8-1.15 9.65-.45 13.8 6.2 1.65 2.65 3.25 7.6.95 2.9 2.95 9.75 1.6 4.95 5.4 8.55 2.15 2 6.2 5.35 3.6 3.65 4.15 7.7.65 4.8-3.35 9.05 7.45-5.25 6.25-12.4-.95-6-7.25-11.25-5.05-4.3-7.6-8.35-1.65-2.6-4.05-8.6-3.75-9.45-8.95-12.45z" id="U"/><path fill="url(#f)" d="M504.4 529.95q-.25-8.8-6.4-13.75-5.65-4.45-13-4.45t-13 4.45q-6.15 4.95-6.4 13.75-.25 8.3 4.8 13.2 4.75 4.45 14.6 4.45t14.6-4.45q5.1-4.9 4.8-13.2z" id="V"/><path fill="#F0D49A" d="M488.65 536.1q1.6-.85 2.35-2.25l-3.75-1.35-2.45-3.05-2.3 2.95-3.6 1.15q.7 1.55 2.4 2.45 1.7.95 3.75.95 1.95 0 3.6-.85z" id="W"/><path fill="#BD9A93" d="M484.3 527.25q-.05 2.65-1.65 4.15-1.25 1-2.85 1.25-1.6.3-3.5-.35-3.45-1.1-5.1-4.65-.35-.65-.95-.35-.25.1-.35.4-.1.3 0 .55 1.85 4 5.9 5.4 2.1.75 4.2.45 2.25-.4 3.6-1.7 2.1-2 2.1-5.15 0-.25-.2-.5t-.45-.25q-.75 0-.75.75z" id="X"/><path fill="#BD9A93" d="M500.1 528.25q.1-.25 0-.55-.1-.3-.4-.4-.6-.35-.9.35-1.6 3.55-5.1 4.65-1.9.65-3.5.35-1.6-.25-2.85-1.25-1.55-1.4-1.65-4.15 0-.75-.75-.75-.25 0-.45.25-.25.25-.2.5 0 3.3 2.1 5.15 1.35 1.3 3.6 1.7 2 .3 4.2-.45 4.1-1.4 5.9-5.4z" id="Y"/><path fill="url(#g)" d="M491.1 526.65q.05-1.55.4-1.95.2-.15 1.6.15 1.35.25 1.5 0 1.1-1.85.95-4-.15-2.2-1.6-3.55-1.45-1.3-4.2-1.8-1.75-.3-4.7-.3h-.1q-2.95 0-4.65.3-2.8.5-4.25 1.8-1.45 1.35-1.6 3.55-.15 2.15.95 4 .15.25 1.15.05 1.05-.25 1.2-.05.35.35.8 1.85.4 1.25 1.1 1.55 2.45 1 5.35 1 2.9 0 5.35-1 .7-.25.75-1.6z" id="Z"/><path fill="#512628" d="M484.95 523.05q-.4 0-.7.3-.3.25-.3.65v5.2h1.95V524q0-.35-.3-.65-.25-.3-.65-.3z" id="aa"/><path fill="url(#h)" d="M493.4 519.85q-.95-2.4-4.55-3.05-3.8-.7-7.65 0-3.55.65-4.6 3.05-1.1 2.45 1.25 5.3 2.25 2.7 7.15 2.7t7.1-2.7q2.35-2.9 1.3-5.3z" id="ab"/><path fill="url(#i)" d="M481.05 517.75q-1.65.05-2 .85-.3 1.1.95 1.6 1.05.4 2.55.25 1.4-.15 2-.65.7-.7.35-1.5-.45-.85-3.85-.55z" id="ac"/><path fill="url(#j)" d="M491 518.95q-.75.45-1 1.8-.35 1.9-1.55 2.65-.95.6-2.6.65-1.95-.2-2.95-.05-1.45.25-1.4 1.5.05 1.2 1.5 1.5.95.3 2.4.3 1.35.05 2.1-.15 1.85-.3 3.15-1.4 1.5-1.2 1.95-3.1.6-2.65-.35-3.55-.65-.5-1.25-.15z" id="ad"/><path fill="url(#k)" d="M504.9 487.7q0-3.65-5.85-6.3-5.9-2.6-14.1-2.6t-14.05 2.6q-5.8 2.6-5.8 6.3 0 3.75 5.8 6.4 5.85 2.6 14.05 2.6 8.25 0 14.1-2.6 5.85-2.65 5.85-6.4z" id="ae"/><path fill="url(#l)" d="M472.75 492.25q-2.1-.25-7 .35-5.7.7-8.8 2.45-2.9 1.65-2.45 3.55 1.1 4.5 16.35 5.1 4.45.15 6.45-2.55 1.85-2.4.75-5.25-1.15-3.2-5.3-3.65z" id="af"/><path fill="url(#m)" d="M504.25 492.6q-4.9-.6-6.95-.35-4.2.45-5.35 3.65-1.1 2.85.7 5.25 2 2.7 6.4 2.55 15.3-.6 16.45-5.1.45-1.9-2.45-3.55-3.1-1.75-8.8-2.45z" id="ag"/><path fill="#C27831" d="M512.25 504.35q-.9-2.75-3.4-4.45-2.5-1.8-5.65-1.8-3.15 0-5.65 1.8-2.45 1.7-3.45 4.45-.65 2.2 1.3 2.75.85.2 1.6-.2.9-.5 1.15-1.75h10.05q.3 1.25 1.15 1.75.75.4 1.6.2 2-.55 1.3-2.75z" id="ah"/><path fill="#C27831" d="M466.8 498.1h-.05q-3.1 0-5.6 1.8-2.5 1.7-3.4 4.45-.35.95-.1 1.65.3.8 1.3 1.1.95.2 1.65-.2.9-.5 1.2-1.75h10.05q.25 1.25 1.15 1.75.75.4 1.6.2 2.05-.55 1.2-2.75-.9-2.75-3.35-4.45-2.55-1.8-5.65-1.8z" id="ai"/><path fill="url(#n)" d="M503.2 530.9q-5.8 1.85-10.4 5.35-4.9 3.7-7.85 8.75-2.9-5.1-7.75-8.75-4.6-3.5-10.4-5.35-16.55-5.25-30.25 2.9-13.9 8.3-16.15 25.5-1.75 13.3 6.15 26.8 6.3 10.8 17.25 19.6 4.7 3.8 12.8 9.05 9 5.9 12 8.1 12.85 9.65 16.35 22.4 3.5-12.75 16.35-22.4 3.05-2.25 12.05-8.1 8.1-5.25 12.85-9.05 10.95-8.8 17.25-19.6 7.9-13.5 6.15-26.8-2.3-17.2-16.2-25.5-13.65-8.15-30.2-2.9m-8.05 9.1q4.1-3.2 9.4-4.9 14.55-4.7 26.6 2.6 12.25 7.4 14.2 22.65 2.25 17.15-8.85 31.65-6.6 8.65-25.05 22.85-13.7 10.55-14.65 11.4-8.4 7.15-11.85 13.75-3.4-6.6-11.75-13.75-1.05-.9-14.65-11.4-18.45-14.2-25.05-22.85-11.1-14.5-8.85-31.65 1.95-15.25 14.2-22.65 12.05-7.3 26.6-2.6 5.3 1.7 9.4 4.9 4.3 3.4 6.8 8.1.85 1.4 1.5 3.4l1.8 5.4 1.9-5.4q.7-2 1.5-3.4 2.5-4.7 6.8-8.1z" id="aj"/><path fill="url(#o)" d="M540.05 591.7q9.95-13.7 8.05-30.8-2-18.15-16.7-25.9-12.35-6.5-26.65-2.15-14.9 4.6-19.5 17.95-4.6-13.35-19.55-17.95-14.3-4.35-26.65 2.15-14.7 7.75-16.7 25.9-1.9 17.1 8.05 30.8 5.8 7.9 16.6 16.85 6.15 5.15 18.65 14.75 9.35 7.6 11.7 10 5.65 5.85 7.9 13 2.25-7.15 7.9-13 2.25-2.35 11.7-10 12.45-9.6 18.6-14.75 10.85-8.95 16.6-16.85z" id="ak"/><path fill="url(#p)" d="M522.15 536.8q-7.6-1.55-15.15.65-7.95 2.3-13.55 8.15-6.15 6.45-8.2 16.05-2.05-9.6-8.2-16.05-5.6-5.85-13.55-8.15-7.6-2.2-15.2-.65-7.7 1.55-13 6.5-5.25 4.95-6.85 12.15-1.75 7.95 1.2 17.65 4 13.1 20.5 21.35 15.35 7.7 35.1 8.4 19.7-.7 35-8.4 16.5-8.25 20.5-21.35 3-9.7 1.25-17.65-1.6-7.2-6.85-12.15-5.3-4.95-13-6.5z" id="al"/><path fill="url(#q)" d="M464.55 540.95q-8.95-3.35-18.9.7-10.25 4.1-13.1 14.7-2.6 9.8 2.1 19.4-3.7-9.9.2-18.55 3.5-7.8 11.8-11.85 8.2-4.05 16.75-2.3 9.3 1.85 15 10.1-5.35-8.95-13.85-12.2z" id="am"/><path fill="url(#r)" d="M464.45 615.7q6.884 5.428 11.05 9.4 6 5.8 9.75 11.65 3.7-5.9 9.7-11.65 4.35-4.15 11.55-9.75-21.61 15.726-42.05.35z" id="an"/><path fill="#363435" d="M508.15 504.55l1.5 3.1q3.15-.8 4.2-3.1.95-2.1 0-4.65.25 3.2-1.85 4.45-1.8 1.15-3.85.2z" id="ao"/><path fill="#363435" d="M507.3 503.1l1.3 2.6q2.6-.6 3.5-2.6.9-2-.35-4 .75 2.7-1 3.9-1.6 1.05-3.45.1z" id="ap"/><path fill="#FFF" d="M498.2 512.85q2.1 2.1 5 2.1t4.95-2.1q2.1-2.1 2.1-5t-2.1-4.95q-2.05-2.1-4.95-2.1-2.9 0-5 2.1-2.1 2.05-2.1 4.95 0 2.95 2.1 5z" id="aq"/><path fill="url(#s)" d="M499.4 511.7q1.55 1.55 3.8 1.55t3.8-1.55q1.6-1.6 1.6-3.85 0-2.2-1.6-3.8-1.6-1.6-3.8-1.6-2.2 0-3.8 1.6-1.6 1.6-1.6 3.8 0 2.25 1.6 3.85z" id="ar"/><path fill="url(#t)" d="M506.8 511.05q.35-.35.4-.8 0-.4-.3-.65-.2-.25-.6-.2-.4.05-.75.5-.9 1.05-2.35 1.05-1.45 0-2.4-1.05-.8-.95-1.35-.3-.3.25-.3.65.05.45.45.8 1.4 1.65 3.6 1.65 2.1 0 3.6-1.65z" id="as"/><path fill="#363435" d="M501.45 509.6q.7.7 1.75.7 1 0 1.75-.7.7-.7.7-1.75 0-1-.7-1.7-.75-.75-1.75-.75-1.05 0-1.75.75-.7.7-.7 1.7 0 1.05.7 1.75z" id="at"/><path fill="#FFF" d="M505.25 508.8q.2.2.5.2.75 0 .75-.75 0-.8-.75-.8t-.75.8q0 .3.25.55z" id="au"/><path fill="#FFF" d="M499.9 507.15q.4.45 1.05.45t1.1-.45q.5-.45.5-1.1 0-.65-.5-1.1-.45-.45-1.1-.45-.65 0-1.05.45-.45.45-.45 1.1 0 .65.45 1.1z" id="av"/><path fill="#363435" d="M460.35 507.65l1.45-3.1q-2 .95-3.85-.2-2.05-1.25-1.8-4.45-.95 2.55 0 4.65 1.05 2.3 4.2 3.1z" id="aw"/><path fill="#363435" d="M461.4 505.7l1.25-2.6q-1.9.95-3.45-.1-1.7-1.2-.95-3.9-1.25 2-.4 4 .9 2 3.55 2.6z" id="ax"/><path fill="#FFF" d="M461.85 512.85q2.05 2.1 4.95 2.1 2.95 0 5-2.1 2.1-2.05 2.1-5 0-2.9-2.1-4.95-2.1-2.1-5-2.1t-4.95 2.1q-2.1 2.05-2.1 4.95 0 2.9 2.1 5z" id="ay"/><path fill="url(#u)" d="M463 511.7q1.55 1.55 3.8 1.55t3.8-1.55q1.6-1.6 1.6-3.85 0-2.2-1.6-3.8-1.6-1.6-3.8-1.6-2.25 0-3.8 1.6-1.6 1.6-1.6 3.8 0 2.3 1.6 3.85z" id="az"/><path fill="url(#v)" d="M466.8 512.7q2.2 0 3.6-1.65.35-.35.4-.8.05-.4-.25-.65-.65-.65-1.35.3-.95 1.05-2.4 1.05t-2.35-1.05q-.85-.95-1.4-.3-.3.25-.25.65 0 .45.35.8 1.55 1.65 3.65 1.65z" id="aA"/><path fill="#363435" d="M465.05 509.6q.75.7 1.75.7t1.7-.7q.75-.7.75-1.75 0-.95-.75-1.7-.7-.75-1.7-.75t-1.75.75q-.7.7-.7 1.7 0 1.05.7 1.75z" id="aB"/><path fill="#FFF" d="M468.4 508.25q0 .75.8.75.25 0 .5-.2.2-.25.2-.55 0-.35-.2-.55-.25-.25-.5-.25-.8 0-.8.8z" id="aC"/><path fill="#FFF" d="M463.55 507.15q.45.45 1.05.45.65 0 1.1-.45.45-.45.45-1.1 0-.65-.45-1.1-.45-.45-1.1-.45-.6 0-1.05.45-.5.45-.5 1.1 0 .65.5 1.1z" id="aD"/><path fill="url(#w)" d="M440.95 532.5q-4.95-4.45-11.6-2.6-6.2 1.75-10.25 7.7-3.25 4.7-3.4 10-.2 5.8 3.65 9.15 4.45 4 10.45 2.5 5.35-1.35 9.7-6.35 4.35-4.95 5.05-10.45.8-6.1-3.6-9.95z" id="aE"/><path fill="url(#x)" d="M438.9 534.35q-2.65-2.35-6.05-2.3-3.1.05-6.35 1.95 5.45-1.3 9.8 2.4 2.9 2.45 3.7 5.95.8 3.4-.7 6.4l.4-.5q2.65-3 2.45-7.1-.25-4.1-3.25-6.8z" id="aF"/><path fill="url(#y)" d="M540.6 529.9q-6.7-1.85-11.65 2.6-4.35 3.85-3.55 9.95.7 5.5 5.1 10.45 4.35 5 9.7 6.35 6 1.5 10.45-2.5 3.8-3.4 3.6-9.15-.15-5.3-3.35-10-4.1-5.95-10.3-7.7z" id="aG"/><path fill="url(#z)" d="M537.15 532.05q-3.4-.05-6.05 2.3-3.05 2.7-3.3 6.8t2.45 7.1l.45.5q-1.5-3-.7-6.4.8-3.5 3.65-5.95 4.3-3.75 9.85-2.4-3.25-1.9-6.35-1.95z" id="aH"/><path fill="#CD8632" d="M448.7 590.45q-8.2-2.5-14.95 2.1-6.55 4.45-7.1 12.15-.45 6.15 2.45 13.4 2.45 6 8.2 9.95 6.15 4.25 12.3 3.3 7.9-1.3 11.6-7.6 4.15-7.05.95-17.65-1.9-6.4-5.55-10.5-3.4-3.75-7.9-5.15z" id="aI"/><path fill="url(#A)" d="M452.3 630.6q6.3-1.6 9.35-7.45 3.45-6.55 1-15.65-2.2-8.3-8.4-11.9-5.6-3.3-12-1.7-6.4 1.6-9.6 7-3.6 6.05-1.35 14.2 2.6 9.1 8.95 13.3 5.7 3.75 12.05 2.2z" id="aJ"/><path fill="#AD5D2E" d="M451 625.25q3.15-.7 4.65-3.45 1.65-3.1.35-7.35-1.35-4.25-4.55-6.25-2.9-1.75-6.05-1.05t-4.65 3.45q-1.65 3.05-.35 7.35 1.35 4.3 4.55 6.25 2.9 1.75 6.05 1.05z" id="aK"/><path fill="#C27831" d="M433.75 608.5q1.85 3.35 4.8 2.15 2.95-1.2 1.15-4.55-1.85-3.35-4.8-2.15-3 1.2-1.15 4.55z" id="aL"/><path fill="#CD8632" d="M439.45 601.85q.7 3.75 3.9 3.5t2.5-3.95q-.65-3.8-3.85-3.55t-2.55 4z" id="aM"/><path fill="#C27831" d="M451.2 605.55q3.15-.7 2.65-4.5-.4-3.8-3.55-3.05-3.15.7-2.65 4.5.45 3.75 3.55 3.05z" id="aN"/><path fill="url(#B)" d="M450.95 624.15q3.15-.7 4.65-3.45 1.65-3 .35-7.2-1.3-4.2-4.45-6.15-2.85-1.75-6-1.05-3.1.7-4.6 3.4-1.6 3.05-.35 7.25 1.3 4.25 4.45 6.15 2.85 1.75 5.95 1.05z" id="aO"/><path fill="url(#C)" d="M433.7 607.75q1.85 3.35 4.8 2.1 2.95-1.25 1.1-4.55-1.85-3.35-4.8-2.15-2.95 1.25-1.1 4.6z" id="aP"/><path fill="url(#D)" d="M439.45 601.05q.65 3.7 3.85 3.5 3.25-.25 2.55-3.95-.65-3.8-3.85-3.55-3.2.2-2.55 4z" id="aQ"/><path fill="url(#E)" d="M451.15 604.7q3.15-.65 2.7-4.45-.5-3.8-3.6-3.1-3.1.65-2.65 4.45.4 3.8 3.55 3.1z" id="aR"/><path fill="url(#F)" d="M445.6 609.6q4.15-1.7 7.9.8-3.65-4.1-8.35-2.25-4.8 1.85-4.05 7.65.2-4.5 4.5-6.2z" id="aS"/><path fill="#D89533" d="M438.65 593.3q6.9-2.65 12.55.2-5.75-4-12.95-1.35-7.45 2.7-8.5 10.05 1.85-6.15 8.9-8.9z" id="aT"/><path fill="#CD8632" d="M536.7 592.55q-6.75-4.6-14.85-2.1-9.65 2.95-13.55 15.65-3.2 10.65.95 17.65 3.65 6.3 11.55 7.6 6.15.95 12.35-3.3 5.75-3.95 8.2-9.95 2.85-7.05 2.45-13.4-.6-7.7-7.1-12.15z" id="aU"/><path fill="url(#G)" d="M530.2 628.4q6.35-4.15 8.9-13.3 2.25-8.15-1.3-14.2-3.25-5.4-9.6-7-6.4-1.6-12 1.7-6.2 3.6-8.4 11.9-2.45 9.1 1 15.65 3.05 5.85 9.4 7.45 6.3 1.55 12-2.2z" id="aV"/><path fill="#AD5D2E" d="M530.05 617.95q1.3-4.3-.4-7.35-1.45-2.75-4.65-3.45-3.15-.7-6 1.05-3.2 2-4.5 6.25-1.35 4.25.35 7.35 1.45 2.75 4.65 3.45 3.15.7 6.05-1.05 3.2-1.95 4.5-6.25z" id="aW"/><path fill="#C27831" d="M531.95 610.65q2.95 1.2 4.8-2.15 1.75-3.35-1.2-4.55-2.95-1.2-4.7 2.15-1.85 3.35 1.1 4.55z" id="aX"/><path fill="#CD8632" d="M527.1 605.35q3.2.25 3.85-3.5.7-3.75-2.5-4t-3.9 3.55q-.65 3.7 2.55 3.95z" id="aY"/><path fill="#C27831" d="M516.55 601.05q-.4 3.8 2.7 4.5 3.1.7 3.6-3.05.4-3.8-2.7-4.5-3.15-.75-3.6 3.05z" id="aZ"/><path fill="url(#H)" d="M529.9 616.95q1.3-4.2-.35-7.25-1.5-2.7-4.6-3.4-3.15-.7-6 1.05-3.1 1.95-4.4 6.15-1.3 4.2.35 7.2 1.45 2.75 4.55 3.45 3.15.7 6-1.05 3.15-1.9 4.45-6.15z" id="ba"/><path fill="url(#I)" d="M531.95 609.85q2.95 1.25 4.8-2.1 1.85-3.35-1.15-4.6-2.95-1.25-4.75 2.15-1.85 3.3 1.1 4.55z" id="bb"/><path fill="url(#J)" d="M527.15 604.55q3.15.2 3.8-3.5.7-3.8-2.5-4-3.15-.25-3.8 3.55-.7 3.7 2.5 3.95z" id="bc"/><path fill="url(#K)" d="M516.65 600.25q-.5 3.8 2.65 4.45 3.1.7 3.55-3.1.5-3.8-2.65-4.45-3.15-.7-3.55 3.1z" id="bd"/><path fill="url(#L)" d="M517 610.4q3.75-2.5 7.9-.8 4.3 1.7 4.5 6.2.75-5.8-4.05-7.65-4.75-1.85-8.35 2.25z" id="be"/><path fill="#D89533" d="M519.25 593.5q5.65-2.85 12.6-.2 7.05 2.75 8.85 8.9-1.05-7.35-8.45-10.05-7.2-2.65-13 1.35z" id="bf"/><path fill="#713636" d="M483.95 524v3.8q1 .15 1.95 0V524q0-.35-.3-.65-.25-.3-.65-.3t-.7.3q-.3.25-.3.65z" id="bg"/><path fill="url(#M)" d="M478.05 523.05q-1.85 0-2.75 1.75.5.8 1.1 1.35 1.15 1.3 3.4 2.15 1.15-.9 1.15-2.35 0-1.2-.85-2.05-.85-.85-2.05-.85z" id="bh"/><path fill="url(#N)" d="M491.95 523.05q-1.2 0-2.05.85-.9.85-.9 2.05 0 1.4 1.15 2.35 2.3-.85 3.45-2.15.6-.55 1.1-1.35-.85-1.75-2.75-1.75z" id="bi"/></defs><use xlink:href="#O"/><use xlink:href="#P" transform="matrix(1.47945 0 0 1.47942 -575.448 -645.08)"/><use xlink:href="#Q" transform="matrix(1.47945 0 0 1.47942 -575.448 -645.08)"/><use xlink:href="#R" transform="matrix(1.47945 0 0 1.47942 -575.448 -645.08)"/><use xlink:href="#S" transform="matrix(1.47945 0 0 1.47942 -575.448 -645.08)"/><use xlink:href="#T" transform="matrix(1.47945 0 0 1.47942 -575.448 -645.08)"/><use xlink:href="#U" transform="matrix(1.47945 0 0 1.47942 -575.448 -645.08)"/><use xlink:href="#V" transform="matrix(1.47945 0 0 1.47942 -575.448 -645.08)"/><use xlink:href="#W" transform="matrix(1.47945 0 0 1.47942 -575.448 -645.08)"/><use xlink:href="#X" transform="matrix(1.47945 0 0 1.47942 -575.448 -645.08)"/><use xlink:href="#Y" transform="matrix(1.47945 0 0 1.47942 -575.448 -645.08)"/><use xlink:href="#Z" transform="matrix(1.47945 0 0 1.47942 -575.448 -645.08)"/><use xlink:href="#aa" transform="matrix(1.47945 0 0 1.47942 -575.448 -645.08)"/><use xlink:href="#ab" transform="matrix(1.47945 0 0 1.47942 -575.448 -645.08)"/><use xlink:href="#ac" transform="matrix(1.47945 0 0 1.47942 -575.448 -645.08)"/><use xlink:href="#ad" transform="matrix(1.47945 0 0 1.47942 -575.448 -645.08)"/><use xlink:href="#ae" transform="matrix(1.47945 0 0 1.47942 -575.448 -645.08)"/><use xlink:href="#af" transform="matrix(1.47945 0 0 1.47942 -575.448 -645.08)"/><use xlink:href="#ag" transform="matrix(1.47945 0 0 1.47942 -575.448 -645.08)"/><use xlink:href="#ah" transform="matrix(1.47945 0 0 1.47942 -575.448 -645.08)"/><use xlink:href="#ai" transform="matrix(1.47945 0 0 1.47942 -575.448 -645.08)"/><use xlink:href="#aj" transform="matrix(1.47945 0 0 1.47942 -575.448 -645.08)"/><use xlink:href="#ak" transform="matrix(1.47945 0 0 1.47942 -575.448 -645.08)"/><use xlink:href="#al" transform="matrix(1.47945 0 0 1.47942 -575.448 -645.08)"/><use xlink:href="#am" transform="matrix(1.47945 0 0 1.47942 -575.448 -645.08)"/><use xlink:href="#an" transform="matrix(1.47945 0 0 1.47942 -575.448 -645.08)"/><use xlink:href="#ao" transform="matrix(1.47945 0 0 1.47942 -575.448 -645.08)"/><use xlink:href="#ap" transform="matrix(1.47945 0 0 1.47942 -575.448 -645.08)"/><use xlink:href="#aq" transform="matrix(1.47945 0 0 1.47942 -575.448 -645.08)"/><use xlink:href="#ar" transform="matrix(1.47945 0 0 1.47942 -575.448 -645.08)"/><use xlink:href="#as" transform="matrix(1.47945 0 0 1.47942 -575.448 -645.08)"/><use xlink:href="#at" transform="matrix(1.47945 0 0 1.47942 -575.448 -645.08)"/><use xlink:href="#au" transform="matrix(1.47945 0 0 1.47942 -575.448 -645.08)"/><use xlink:href="#av" transform="matrix(1.47945 0 0 1.47942 -575.448 -645.08)"/><use xlink:href="#aw" transform="matrix(1.47945 0 0 1.47942 -575.448 -645.08)"/><use xlink:href="#ax" transform="matrix(1.47945 0 0 1.47942 -575.448 -645.08)"/><use xlink:href="#ay" transform="matrix(1.47945 0 0 1.47942 -575.448 -645.08)"/><use xlink:href="#az" transform="matrix(1.47945 0 0 1.47942 -575.448 -645.08)"/><use xlink:href="#aA" transform="matrix(1.47945 0 0 1.47942 -575.448 -645.08)"/><use xlink:href="#aB" transform="matrix(1.47945 0 0 1.47942 -575.448 -645.08)"/><use xlink:href="#aC" transform="matrix(1.47945 0 0 1.47942 -575.448 -645.08)"/><use xlink:href="#aD" transform="matrix(1.47945 0 0 1.47942 -575.448 -645.08)"/><use xlink:href="#aE" transform="matrix(1.47945 0 0 1.47942 -575.448 -645.08)"/><use xlink:href="#aF" transform="matrix(1.47945 0 0 1.47942 -575.448 -645.08)"/><use xlink:href="#aG" transform="matrix(1.47945 0 0 1.47942 -575.448 -645.08)"/><use xlink:href="#aH" transform="matrix(1.47945 0 0 1.47942 -575.448 -645.08)"/><use xlink:href="#aI" transform="matrix(1.47945 0 0 1.47942 -575.448 -645.08)"/><use xlink:href="#aJ" transform="matrix(1.47945 0 0 1.47942 -575.448 -645.08)"/><use xlink:href="#aK" transform="matrix(1.47945 0 0 1.47942 -575.448 -645.08)"/><use xlink:href="#aL" transform="matrix(1.47945 0 0 1.47942 -575.448 -645.08)"/><use xlink:href="#aM" transform="matrix(1.47945 0 0 1.47942 -575.448 -645.08)"/><use xlink:href="#aN" transform="matrix(1.47945 0 0 1.47942 -575.448 -645.08)"/><use xlink:href="#aO" transform="matrix(1.47945 0 0 1.47942 -575.448 -645.08)"/><use xlink:href="#aP" transform="matrix(1.47945 0 0 1.47942 -575.448 -645.08)"/><use xlink:href="#aQ" transform="matrix(1.47945 0 0 1.47942 -575.448 -645.08)"/><use xlink:href="#aR" transform="matrix(1.47945 0 0 1.47942 -575.448 -645.08)"/><use xlink:href="#aS" transform="matrix(1.47945 0 0 1.47942 -575.448 -645.08)"/><use xlink:href="#aT" transform="matrix(1.47945 0 0 1.47942 -575.448 -645.08)"/><use xlink:href="#aU" transform="matrix(1.47945 0 0 1.47942 -575.448 -645.08)"/><use xlink:href="#aV" transform="matrix(1.47945 0 0 1.47942 -575.448 -645.08)"/><use xlink:href="#aW" transform="matrix(1.47945 0 0 1.47942 -575.448 -645.08)"/><use xlink:href="#aX" transform="matrix(1.47945 0 0 1.47942 -575.448 -645.08)"/><use xlink:href="#aY" transform="matrix(1.47945 0 0 1.47942 -575.448 -645.08)"/><use xlink:href="#aZ" transform="matrix(1.47945 0 0 1.47942 -575.448 -645.08)"/><use xlink:href="#ba" transform="matrix(1.47945 0 0 1.47942 -575.448 -645.08)"/><use xlink:href="#bb" transform="matrix(1.47945 0 0 1.47942 -575.448 -645.08)"/><use xlink:href="#bc" transform="matrix(1.47945 0 0 1.47942 -575.448 -645.08)"/><use xlink:href="#bd" transform="matrix(1.47945 0 0 1.47942 -575.448 -645.08)"/><use xlink:href="#be" transform="matrix(1.47945 0 0 1.47942 -575.448 -645.08)"/><use xlink:href="#bf" transform="matrix(1.47945 0 0 1.47942 -575.448 -645.08)"/><use xlink:href="#bg" transform="matrix(1.47945 0 0 1.47942 -575.448 -645.08)"/><use xlink:href="#bh" transform="matrix(1.47945 0 0 1.47942 -575.448 -645.08)"/><use xlink:href="#bi" transform="matrix(1.47945 0 0 1.47942 -575.448 -645.08)"/></svg>