<svg xmlns="http://www.w3.org/2000/svg" xmlns:xlink="http://www.w3.org/1999/xlink" preserveAspectRatio="none" width="284" height="320"><defs><linearGradient id="a" gradientUnits="userSpaceOnUse" x1="254.275" y1="218.725" x2="272.825" y2="237.275" spreadMethod="pad"><stop offset="0%" stop-color="#A67D74"/><stop offset="100%" stop-color="#804A46"/></linearGradient><linearGradient id="b" gradientUnits="userSpaceOnUse" x1="259.313" y1="223.713" x2="267.987" y2="232.388" spreadMethod="pad"><stop offset="0%" stop-color="#E4D7D3"/><stop offset="100%" stop-color="#D2BBB5"/></linearGradient><linearGradient id="c" gradientUnits="userSpaceOnUse" x1="257.163" y1="234.15" x2="269.938" y2="220.45" spreadMethod="pad"><stop offset="0%" stop-color="#FEF3EC"/><stop offset="100%" stop-color="#FFF"/></linearGradient><linearGradient id="d" gradientUnits="userSpaceOnUse" x1="348.225" y1="218.275" x2="329.675" y2="236.825" spreadMethod="pad"><stop offset="0%" stop-color="#A67D74"/><stop offset="100%" stop-color="#804A46"/></linearGradient><linearGradient id="e" gradientUnits="userSpaceOnUse" x1="342.737" y1="223.762" x2="334.063" y2="232.438" spreadMethod="pad"><stop offset="0%" stop-color="#E4D7D3"/><stop offset="100%" stop-color="#D2BBB5"/></linearGradient><linearGradient id="f" gradientUnits="userSpaceOnUse" x1="345.912" y1="235.013" x2="331.988" y2="220.588" spreadMethod="pad"><stop offset="0%" stop-color="#FEF3EC"/><stop offset="100%" stop-color="#FFF"/></linearGradient><linearGradient id="g" gradientUnits="userSpaceOnUse" x1="301.05" y1="255.537" x2="301.05" y2="232.862" spreadMethod="pad"><stop offset="0%" stop-color="#8E5A54"/><stop offset="100%" stop-color="#C1A29B"/></linearGradient><linearGradient id="h" gradientUnits="userSpaceOnUse" x1="301.05" y1="286.525" x2="301.05" y2="257.575" spreadMethod="pad"><stop offset="0%" stop-color="#D8C5BF"/><stop offset="100%" stop-color="#FEF3EC"/></linearGradient><linearGradient id="i" gradientUnits="userSpaceOnUse" x1="301.05" y1="264.5" x2="301.05" y2="256.2" spreadMethod="pad"><stop offset="0%" stop-color="#F3E9E3"/><stop offset="100%" stop-color="#FFF"/></linearGradient><linearGradient id="j" gradientUnits="userSpaceOnUse" x1="301.05" y1="260.525" x2="301.05" y2="268.375" spreadMethod="pad"><stop offset="0%" stop-color="#8E5A54"/><stop offset="100%" stop-color="#502628"/></linearGradient><linearGradient id="k" gradientUnits="userSpaceOnUse" x1="301.05" y1="265.512" x2="301.05" y2="259.887" spreadMethod="pad"><stop offset="0%" stop-color="#672C2F"/><stop offset="100%" stop-color="#D2BBB5"/></linearGradient><linearGradient id="l" gradientUnits="userSpaceOnUse" x1="296.475" y1="261.95" x2="301.225" y2="261.95" spreadMethod="pad"><stop offset="0%" stop-color="#FFF"/><stop offset="100%" stop-color="#E9E0DD"/></linearGradient><linearGradient id="m" gradientUnits="userSpaceOnUse" x1="305.863" y1="262.912" x2="301.238" y2="267.387" spreadMethod="pad"><stop offset="0%" stop-color="#CEB4AE"/><stop offset="100%" stop-color="#925F59"/></linearGradient><linearGradient id="n" gradientUnits="userSpaceOnUse" x1="301.05" y1="239.525" x2="301.05" y2="222.875" spreadMethod="pad"><stop offset="0%" stop-color="#B18B83"/><stop offset="100%" stop-color="#DECEC8"/></linearGradient><linearGradient id="o" gradientUnits="userSpaceOnUse" x1="301.05" y1="296.537" x2="301.05" y2="337.363" spreadMethod="pad"><stop offset="0%" stop-color="#E691BC"/><stop offset="100%" stop-color="#D82D8E"/></linearGradient><linearGradient id="p" gradientUnits="userSpaceOnUse" x1="301.25" y1="364.513" x2="301.25" y2="293.188" spreadMethod="pad"><stop offset="0%" stop-color="#C82C87"/><stop offset="36.078%" stop-color="#DB589E"/><stop offset="100%" stop-color="#EEBAD5"/></linearGradient><linearGradient id="q" gradientUnits="userSpaceOnUse" x1="301.25" y1="341.538" x2="301.25" y2="285.563" spreadMethod="pad"><stop offset="0%" stop-color="#DE65A4"/><stop offset="43.922%" stop-color="#EAA5C8"/><stop offset="100%" stop-color="#FCE9F1"/></linearGradient><linearGradient id="r" gradientUnits="userSpaceOnUse" x1="280.375" y1="283.313" x2="243.025" y2="321.987" spreadMethod="pad"><stop offset="0%" stop-color="#FFF"/><stop offset="41.961%" stop-color="#FFF"/><stop offset="100%" stop-color="#EEBAD5"/></linearGradient><linearGradient id="s" gradientUnits="userSpaceOnUse" x1="301.25" y1="381.512" x2="301.25" y2="364.387" spreadMethod="pad"><stop offset="0%" stop-color="#EEBAD5"/><stop offset="100%" stop-color="#DB4C99"/></linearGradient><linearGradient id="t" gradientUnits="userSpaceOnUse" x1="342.587" y1="342.387" x2="337.212" y2="367.613" spreadMethod="pad"><stop offset="0%" stop-color="#AE857D"/><stop offset="100%" stop-color="#773E3C"/></linearGradient><linearGradient id="u" gradientUnits="userSpaceOnUse" x1="337.65" y1="361.275" x2="341.75" y2="348.625" spreadMethod="pad"><stop offset="0%" stop-color="#B6928B"/><stop offset="100%" stop-color="#DECEC8"/></linearGradient><linearGradient id="v" gradientUnits="userSpaceOnUse" x1="352.613" y1="344.813" x2="348.088" y2="350.388" spreadMethod="pad"><stop offset="0%" stop-color="#E4D7D3"/><stop offset="100%" stop-color="#C7ABA3"/></linearGradient><linearGradient id="w" gradientUnits="userSpaceOnUse" x1="345.638" y1="339.275" x2="343.563" y2="345.625" spreadMethod="pad"><stop offset="0%" stop-color="#E4D7D3"/><stop offset="100%" stop-color="#C7ABA3"/></linearGradient><linearGradient id="x" gradientUnits="userSpaceOnUse" x1="336.488" y1="339.525" x2="337.512" y2="345.275" spreadMethod="pad"><stop offset="0%" stop-color="#E4D7D3"/><stop offset="100%" stop-color="#C7ABA3"/></linearGradient><linearGradient id="y" gradientUnits="userSpaceOnUse" x1="336.488" y1="349.5" x2="345.713" y2="354" spreadMethod="pad"><stop offset="0%" stop-color="#FFF"/><stop offset="100%" stop-color="#E4D7D3"/></linearGradient><linearGradient id="z" gradientUnits="userSpaceOnUse" x1="259.35" y1="342.475" x2="265.15" y2="367.625" spreadMethod="pad"><stop offset="0%" stop-color="#AE857D"/><stop offset="100%" stop-color="#773E3C"/></linearGradient><linearGradient id="A" gradientUnits="userSpaceOnUse" x1="264.4" y1="361.262" x2="260.5" y2="348.537" spreadMethod="pad"><stop offset="0%" stop-color="#B6928B"/><stop offset="100%" stop-color="#DECEC8"/></linearGradient><linearGradient id="B" gradientUnits="userSpaceOnUse" x1="249.8" y1="345.3" x2="254.4" y2="350.8" spreadMethod="pad"><stop offset="0%" stop-color="#E4D7D3"/><stop offset="100%" stop-color="#C7ABA3"/></linearGradient><linearGradient id="C" gradientUnits="userSpaceOnUse" x1="256.513" y1="339.55" x2="258.688" y2="345.85" spreadMethod="pad"><stop offset="0%" stop-color="#E4D7D3"/><stop offset="100%" stop-color="#C7ABA3"/></linearGradient><linearGradient id="D" gradientUnits="userSpaceOnUse" x1="265.563" y1="339.55" x2="264.638" y2="345.35" spreadMethod="pad"><stop offset="0%" stop-color="#E4D7D3"/><stop offset="100%" stop-color="#C7ABA3"/></linearGradient><linearGradient id="E" gradientUnits="userSpaceOnUse" x1="265.475" y1="349.513" x2="256.325" y2="354.188" spreadMethod="pad"><stop offset="0%" stop-color="#FFF"/><stop offset="100%" stop-color="#E4D7D3"/></linearGradient><linearGradient id="F" gradientUnits="userSpaceOnUse" x1="238.463" y1="277.563" x2="252.338" y2="289.638" spreadMethod="pad"><stop offset="0%" stop-color="#844F49"/><stop offset="100%" stop-color="#9E7169"/></linearGradient><linearGradient id="G" gradientUnits="userSpaceOnUse" x1="257.038" y1="282.988" x2="243.662" y2="270.512" spreadMethod="pad"><stop offset="0%" stop-color="#A98179"/><stop offset="100%" stop-color="#DECEC8"/></linearGradient><linearGradient id="H" gradientUnits="userSpaceOnUse" x1="363.438" y1="277.5" x2="349.763" y2="289.8" spreadMethod="pad"><stop offset="0%" stop-color="#844F49"/><stop offset="100%" stop-color="#9E7169"/></linearGradient><linearGradient id="I" gradientUnits="userSpaceOnUse" x1="344.012" y1="283.837" x2="359.387" y2="270.462" spreadMethod="pad"><stop offset="0%" stop-color="#A98179"/><stop offset="100%" stop-color="#DECEC8"/></linearGradient><linearGradient id="J" gradientUnits="userSpaceOnUse" x1="319.2" y1="244.525" x2="319.2" y2="253.775" spreadMethod="pad"><stop offset="0%" stop-color="#672C2F"/><stop offset="100%" stop-color="#A07169"/></linearGradient><linearGradient id="K" gradientUnits="userSpaceOnUse" x1="322.475" y1="251.75" x2="315.725" y2="251.75" spreadMethod="pad"><stop offset="0%" stop-color="#BD9A93"/><stop offset="49.02%" stop-color="#E4D7D3"/><stop offset="100%" stop-color="#BD9A93"/></linearGradient><linearGradient id="L" gradientUnits="userSpaceOnUse" x1="282.85" y1="244.525" x2="282.85" y2="253.775" spreadMethod="pad"><stop offset="0%" stop-color="#672C2F"/><stop offset="100%" stop-color="#A07169"/></linearGradient><linearGradient id="M" gradientUnits="userSpaceOnUse" x1="286.475" y1="251.75" x2="279.725" y2="251.75" spreadMethod="pad"><stop offset="0%" stop-color="#BD9A93"/><stop offset="49.02%" stop-color="#E4D7D3"/><stop offset="100%" stop-color="#BD9A93"/></linearGradient><path fill="#FFF" fill-opacity="0" d="M284 0H0v320h284V0z" id="N"/><path fill="#C1A29B" d="M334.1 366.65q13.7-6.6 13.7-15.95t-13.7-16Q320.35 328 301 328q-19.25 0-33 6.7-13.75 6.65-13.75 16T268 366.65q13.7 6.65 33 6.65 19.35 0 33.1-6.65z" id="O"/><path fill="url(#a)" d="M247.3 230.65q0 7.85 5.55 13.4 5.55 5.55 13.4 5.55 7.8 0 13.35-5.55t5.55-13.4q0-7.8-5.55-13.35t-13.35-5.55q-7.85 0-13.4 5.55-5.55 5.55-5.55 13.35z" id="P"/><path fill="url(#b)" d="M256.45 240.45q4.05 4.05 9.8 4.05 5.7 0 9.75-4.05 4.05-4.1 4.05-9.8 0-5.7-4.05-9.75t-9.75-4.05q-5.75 0-9.8 4.05-4.05 4.05-4.05 9.75t4.05 9.8z" id="Q"/><path fill="url(#c)" d="M271.9 220.7q-2.65-1.5-5.65-1.5-4.7 0-8.1 3.35-3.35 3.4-3.35 8.1 0 4.9 3.7 8.45-2-3.05-2-6.55 0-4.7 3.35-8t8.05-3.3q4.6 0 8.05 3.35-1.55-2.45-4.05-3.9z" id="R"/><path fill="url(#d)" d="M349.25 217.3q-5.55-5.55-13.4-5.55-7.85 0-13.4 5.55-5.55 5.55-5.55 13.35 0 7.85 5.55 13.4 5.55 5.55 13.4 5.55 7.85 0 13.4-5.55 5.55-5.55 5.55-13.4 0-7.8-5.55-13.35z" id="S"/><path fill="url(#e)" d="M326.1 240.45q4.05 4.05 9.75 4.05 5.75 0 9.8-4.05 4.05-4.1 4.05-9.8 0-5.7-4.05-9.75t-9.8-4.05q-5.75 0-9.75 4.05-4.05 4.05-4.05 9.75t4.05 9.8z" id="T"/><path fill="url(#f)" d="M343.8 222.55q-3.35-3.35-8.1-3.35-3 0-5.65 1.5-2.5 1.45-4.05 3.9 3.35-3.35 8.1-3.35t8.05 3.3q3.35 3.3 3.35 8 0 3.5-2.1 6.55 3.75-3.4 3.75-8.45 0-4.75-3.35-8.1z" id="U"/><path fill="url(#g)" d="M331.3 286.55q7.7-5.8 11-16.5 3.1-10 1.45-20.9-4.6-30.75-42.75-30.85-37.95.1-42.7 30.85-1.65 10.85 1.5 20.9 3.3 10.7 10.95 16.5 6 4.45 14.05 6.85 7.8 2.3 16.2 2.35 8.5-.05 16.3-2.35 8.05-2.4 14-6.85z" id="V"/><path fill="#915E57" d="M328.95 245.35q-1.05-2.95-3.7-4.8-2.7-1.9-6.05-1.9h-.05q-3.3 0-6 1.9-2.65 1.85-3.65 4.8-.85 2.45 1.3 3.05.95.2 1.8-.25.9-.55 1.2-1.85h10.8q.3 1.3 1.25 1.85.8.45 1.7.25 2.15-.55 1.4-3.05z" id="W"/><path fill="#915E57" d="M292.6 245.35q-1-2.95-3.6-4.8-2.7-1.9-6.05-1.9h-.1q-3.35 0-6.05 1.9-2.6 1.85-3.65 4.8-.85 2.45 1.35 3.05.95.2 1.75-.25.9-.55 1.2-1.85h10.9q.25 1.3 1.2 1.85.8.45 1.75.25 2.05-.6 1.3-3.05z" id="X"/><path fill="url(#h)" d="M301.05 251.45q-7.25 0-12.95 4.5-6.2 4.85-6.45 13.75-.25 8.3 4.9 13.15 4.7 4.5 14.5 4.5t14.5-4.5q5.2-4.85 4.9-13.15-.25-8.9-6.4-13.75-5.75-4.5-13-4.5z" id="Y"/><path fill="url(#i)" d="M292.95 263.35q3.4 1.75 8.05 1.75 4.75 0 8.15-1.75 3.35-1.7 3.35-4.1 0-2.35-3.35-4.1-3.4-1.75-8.15-1.75-4.65 0-8.05 1.75-3.4 1.75-3.4 4.1 0 2.35 3.4 4.1z" id="Z"/><path fill="#97665E" d="M301.85 268.95q0-.25-.25-.5-.2-.2-.55-.2-.25 0-.5.2-.2.25-.2.5v7q0 .35.2.55.25.25.5.25.8 0 .8-.8v-7z" id="aa"/><path fill="#97665E" d="M308.85 271.8q-.5-.35-1.1.2-.1.3-.65.85-.5.5-.7.75-2.3 1.9-5.4 1.9-2.1 0-3.9-.9l-.5-.35q-1.5-1-2.3-2.25-.15-.25-.45-.3-.35-.1-.6.1-.6.4-.25 1.05 1.1 1.6 2.75 2.65l.65.4q1.95 1.15 4.6 1.15 3.6 0 6.35-2.25l.9-.95q.45-.35.8-1 .45-.6-.2-1.05z" id="ab"/><path fill="url(#j)" d="M301.05 269.75q4.3 0 6.6-2.35 1.45-1.45 1.5-3.5.1-2.1-1.25-3.35-1.8-1.6-6.9-1.6-5 0-6.85 1.6-1.25 1.25-1.2 3.35.1 2.1 1.5 3.5 2.3 2.35 6.6 2.35z" id="ac"/><path fill="url(#k)" d="M301.05 268.7q3.7 0 5.5-2.1 1.75-2.2.95-4.05-.8-1.85-3.55-2.35-2.9-.55-5.85 0-2.75.5-3.5 2.35-.8 1.85 1 4.05 1.75 2.1 5.45 2.1z" id="ad"/><path fill="url(#l)" d="M298.05 260.9q-1.25.15-1.5.65-.3.8.7 1.25.75.3 1.85.2 1.1-.1 1.55-.5.55-.55.3-1.15-.4-.75-2.9-.45z" id="ae"/><path fill="url(#m)" d="M305.65 261.9q-.55.3-.75 1.3-.3 1.45-1.25 2.1-.7.45-2 .5-1.5-.15-2.25-.05-1.1.2-1.05 1.15.05.95 1.15 1.2 1.75.35 3.45.1 3.3-.75 3.95-3.55.5-1.95-.35-2.65-.4-.4-.9-.1z" id="af"/><path fill="url(#n)" d="M287.05 237.1q5.8 2.65 13.95 2.65 8.2 0 14.05-2.65 5.85-2.6 5.85-6.3 0-3.7-5.85-6.35-5.85-2.65-14.05-2.65-8.15 0-13.95 2.65-5.85 2.65-5.85 6.35 0 3.7 5.85 6.3z" id="ag"/><path fill="url(#o)" d="M342.25 345.45q10.95-8.85 17.25-19.6 7.9-13.55 6.1-26.85-2.25-17.2-16.15-25.5-13.7-8.15-30.25-2.85-5.75 1.8-10.35 5.3-4.9 3.7-7.85 8.8-2.9-5.1-7.7-8.8-4.6-3.5-10.45-5.3-16.55-5.3-30.2 2.85-13.9 8.3-16.15 25.5-1.75 13.3 6.15 26.85 6.25 10.7 17.15 19.6 4.7 3.75 12.85 9.05 9 5.75 12.05 8.1 12.85 9.6 16.3 22.35 3.55-12.75 16.35-22.35 3.05-2.3 12.05-8.1 8.15-5.25 12.85-9.05m19.15-45.35q2.25 17.1-8.85 31.65-6.6 8.55-25.05 22.85-13.75 10.6-14.65 11.35-8.4 7.2-11.85 13.75-3.4-6.55-11.75-13.75-.5-.4-14.65-11.35-18.45-14.25-25-22.85-11.15-14.55-8.95-31.65 2.05-15.25 14.3-22.7 12.05-7.3 26.6-2.6 5.35 1.75 9.4 4.95 4.35 3.4 6.8 8.1.6 1.15 1.4 3.35l1.85 5.4 1.9-5.4q.55-1.65 1.4-3.35 2.45-4.7 6.85-8.1 4.05-3.2 9.35-4.95 14.6-4.7 26.7 2.6 12.25 7.45 14.2 22.7z" id="ah"/><path fill="url(#p)" d="M356.1 331.4q9.9-13.7 8.05-30.8-2-18.15-16.7-25.85-12.35-6.5-26.7-2.15-14.95 4.6-19.55 17.9-4.55-13.3-19.4-17.9-14.3-4.35-26.65 2.15-14.75 7.7-16.75 25.85-1.9 17.1 8.1 30.8 5.8 7.9 16.6 16.9 6.2 5.1 18.6 14.7 9.4 7.65 11.7 10 5.65 5.85 7.8 13.05 2.3-7.2 7.95-13.05 2.25-2.35 11.65-10 12.5-9.6 18.65-14.7 10.8-8.95 16.65-16.9z" id="ai"/><path fill="url(#q)" d="M358.05 295.15q-1.6-7.2-6.85-12.15-5.3-4.95-13-6.5-7.65-1.55-15.2.65-8 2.3-13.6 8.15-6.15 6.45-8.2 16.05-2-9.6-8.15-16.05-5.55-5.85-13.5-8.15-7.55-2.2-15.15-.65-7.7 1.55-13 6.5t-6.9 12.15q-1.75 7.95 1.2 17.65 4.05 13.1 20.55 21.4 15.3 7.7 34.95 8.35 19.75-.65 35.1-8.35 16.5-8.25 20.5-21.4 3-9.65 1.25-17.65z" id="aj"/><path fill="url(#r)" d="M280.6 280.7q-8.95-3.4-18.9.65-10.25 4.1-13.05 14.7-2.6 9.8 2.1 19.45-3.7-9.95.2-18.55 3.5-7.8 11.75-11.85 8.2-4.05 16.75-2.3 9.3 1.85 15 10.1-5.35-9-13.85-12.2z" id="ak"/><path fill="url(#s)" d="M310.95 364.85q4.4-4.25 11.5-9.75-21.28 15.508-41.5.65 6.522 5.116 10.6 9.1 5.95 5.75 9.65 11.6 3.8-5.85 9.75-11.6z" id="al"/><path fill="#773E3C" d="M352.95 334.75q-6.35-4.25-14-2-4.25 1.3-7.4 4.85-3.4 3.75-5.2 9.8-3 9.95.85 16.6 3.45 5.9 10.8 7.05 5.8.95 11.55-3.05 5.4-3.7 7.7-9.3 2.75-6.75 2.3-12.6-.5-7.2-6.6-11.35z" id="am"/><path fill="url(#t)" d="M344.95 336q-6-1.45-11.25 1.6-5.8 3.4-7.85 11.15-2.25 8.5.95 14.65 2.85 5.5 8.75 6.95 5.95 1.45 11.25-2.05 5.95-3.95 8.35-12.5 2.15-7.6-1.2-13.25-3.05-5.05-9-6.55z" id="an"/><path fill="#5A282B" d="M342.45 364.4q3-1.85 4.2-5.85 1.2-4-.35-6.9-1.4-2.55-4.35-3.25-2.95-.65-5.65 1-3 1.85-4.2 5.85-1.2 4 .35 6.85 1.4 2.6 4.35 3.3 2.95.65 5.65-1z" id="ao"/><path fill="#97665E" d="M348.4 351.65q2.75 1.2 4.5-1.9 1.75-3.1-1.05-4.3-2.75-1.2-4.5 1.95-1.7 3.1 1.05 4.25z" id="ap"/><path fill="#97665E" d="M345.15 339.7q-3-.2-3.6 3.3-.6 3.5 2.4 3.7 2.95.2 3.55-3.3.7-3.5-2.35-3.7z" id="aq"/><path fill="#97665E" d="M339.9 344q.4-3.55-2.5-4.2-2.9-.65-3.35 2.9-.4 3.55 2.55 4.2 2.95.65 3.3-2.9z" id="ar"/><path fill="url(#u)" d="M342.35 363.35q2.95-1.8 4.15-5.75 1.2-3.95-.3-6.8-1.4-2.55-4.3-3.2-2.9-.65-5.55 1-2.95 1.8-4.15 5.75-1.25 3.95.3 6.8 1.35 2.55 4.25 3.2 2.95.65 5.6-1z" id="as"/><path fill="url(#v)" d="M348.5 350.95q2.8 1.15 4.5-2 1.65-3.1-1.1-4.25t-4.45 1.95q-1.7 3.15 1.05 4.3z" id="at"/><path fill="url(#w)" d="M343.95 346q3 .25 3.65-3.3.6-3.5-2.4-3.75-3-.2-3.6 3.3-.65 3.55 2.35 3.75z" id="au"/><path fill="url(#x)" d="M334.1 341.9q-.4 3.55 2.5 4.25 2.95.65 3.35-2.85.45-3.6-2.5-4.25-2.95-.65-3.35 2.85z" id="av"/><path fill="url(#y)" d="M341.85 350.7q4 1.6 4.2 5.8.7-5.45-3.8-7.15-4.4-1.75-7.85 2.15 3.55-2.4 7.45-.8z" id="aw"/><path fill="#925F59" d="M348.35 335.45q6.6 2.55 8.3 8.35-.95-6.9-7.9-9.45-6.75-2.45-12.2 1.3 5.3-2.7 11.8-.2z" id="ax"/><path fill="#773E3C" d="M263.15 332.75q-7.65-2.25-13.95 2-6.15 4.15-6.65 11.35-.45 6 2.3 12.6 2.25 5.6 7.65 9.3 5.75 4 11.55 3.05 7.35-1.15 10.85-7.05 3.9-6.65.85-16.6-1.75-6-5.15-9.8-3.2-3.55-7.45-4.85z" id="ay"/><path fill="url(#z)" d="M268.4 337.6q-5.2-3.05-11.2-1.6-6 1.5-9 6.55-3.35 5.65-1.25 13.25 2.4 8.55 8.35 12.5 5.3 3.5 11.25 2.05 5.9-1.45 8.8-6.95 3.2-6.15.95-14.65-2.05-7.75-7.9-11.15z" id="az"/><path fill="#5A282B" d="M255.45 358.55q1.2 4 4.2 5.85 2.7 1.65 5.65 1 3-.7 4.4-3.3 1.55-2.85.35-6.85-1.2-4-4.25-5.85-2.7-1.65-5.65-1-3 .7-4.4 3.25-1.55 2.9-.3 6.9z" id="aA"/><path fill="#97665E" d="M249.15 349.75q1.75 3.1 4.5 1.9 2.75-1.15 1.05-4.25-1.7-3.15-4.5-1.95t-1.05 4.3z" id="aB"/><path fill="#97665E" d="M260.55 343q-.6-3.5-3.6-3.3-3 .2-2.4 3.7.6 3.5 3.6 3.3 3.05-.2 2.4-3.7z" id="aC"/><path fill="#97665E" d="M264.7 339.8q-2.95.65-2.5 4.2.4 3.55 3.35 2.9 2.9-.65 2.5-4.2-.45-3.55-3.35-2.9z" id="aD"/><path fill="url(#A)" d="M255.55 357.6q1.2 3.95 4.15 5.75 2.7 1.65 5.6 1 2.95-.65 4.3-3.2 1.55-2.85.35-6.8-1.2-3.95-4.2-5.75-2.65-1.65-5.55-1-2.9.65-4.3 3.2-1.55 2.85-.35 6.8z" id="aE"/><path fill="url(#B)" d="M249.15 348.95q1.7 3.15 4.45 2 2.8-1.15 1.05-4.3-1.7-3.1-4.45-1.95-2.75 1.15-1.05 4.25z" id="aF"/><path fill="url(#C)" d="M254.5 342.7q.65 3.55 3.65 3.3 3-.2 2.4-3.75-.65-3.5-3.65-3.3-3 .25-2.4 3.75z" id="aG"/><path fill="url(#D)" d="M265.5 346.15q2.95-.7 2.55-4.25-.45-3.5-3.4-2.85-2.9.65-2.55 4.25.45 3.5 3.4 2.85z" id="aH"/><path fill="url(#E)" d="M256.1 356.5q.2-4.2 4.15-5.8 3.85-1.6 7.4.8-3.4-3.9-7.85-2.15-4.45 1.7-3.7 7.15z" id="aI"/><path fill="#925F59" d="M245.4 343.8q1.75-5.8 8.4-8.35 6.45-2.5 11.8.2-5.5-3.75-12.25-1.3-6.95 2.55-7.95 9.45z" id="aJ"/><path fill="url(#F)" d="M257.1 272.2q-5-4.45-11.65-2.55-6.2 1.75-10.25 7.65-3.2 4.75-3.35 10-.2 5.85 3.65 9.2 4.45 3.95 10.4 2.45 5.35-1.35 9.75-6.3 4.35-4.95 5.05-10.5.75-6.1-3.6-9.95z" id="aK"/><path fill="url(#G)" d="M255 274.1q-2.65-2.4-6.05-2.35-3.1.05-6.35 2 5.55-1.35 9.8 2.35 2.85 2.45 3.65 5.95.8 3.45-.7 6.45l.45-.5q2.7-3.05 2.45-7.1-.2-4.1-3.25-6.8z" id="aL"/><path fill="url(#H)" d="M356.6 269.65q-6.65-1.9-11.6 2.55-4.35 3.85-3.55 9.95.7 5.55 5.05 10.5t9.7 6.3q5.95 1.5 10.4-2.45 3.85-3.4 3.7-9.2-.2-5.3-3.4-10-4.1-5.9-10.3-7.65z" id="aM"/><path fill="url(#I)" d="M353.2 271.75q-3.4-.05-6.05 2.35-3.05 2.7-3.3 6.8-.25 4.05 2.45 7.1l.4.5q-1.45-3.05-.65-6.45.8-3.5 3.65-5.95 4.3-3.7 9.75-2.35-3.2-1.95-6.25-2z" id="aN"/><path fill="#363435" d="M329.9 246.05q.95-2.1 0-4.75.25 3.25-1.85 4.55-1.85 1.15-3.85.15l1.45 3.1q3.15-.7 4.25-3.05z" id="aO"/><path fill="#363435" d="M324.55 247.15q2.65-.6 3.6-2.6.9-2-.35-4 .75 2.7-1 3.9-1.6 1.05-3.5.1l1.25 2.6z" id="aP"/><path fill="#FFF" d="M324.2 253.6q2.05-2.05 2.05-5 0-2.9-2.05-5-2.05-2.05-5-2.05-2.9 0-4.95 2.05-2.1 2.1-2.1 5t2.1 5q2.05 2.05 4.95 2.05 2.95 0 5-2.05z" id="aQ"/><path fill="url(#J)" d="M319.2 243.2q-2.25 0-3.8 1.6-1.6 1.6-1.6 3.8 0 2.2 1.6 3.8 1.55 1.6 3.8 1.6 2.2 0 3.8-1.6 1.6-1.6 1.6-3.8 0-2.2-1.6-3.8-1.6-1.6-3.8-1.6z" id="aR"/><path fill="url(#K)" d="M319.2 253.4q2.2 0 3.6-1.65.35-.35.4-.8 0-.45-.25-.7-.7-.55-1.35.3-1 1.15-2.4 1.15-1.45 0-2.35-1.15-.7-.8-1.45-.3-.25.25-.2.7 0 .45.35.8 1.55 1.65 3.65 1.65z" id="aS"/><path fill="#363435" d="M319.2 246.15q-1 0-1.75.7-.7.75-.7 1.75t.7 1.75q.75.7 1.75.7 1.05 0 1.75-.7.7-.75.7-1.75t-.7-1.75q-.7-.7-1.75-.7z" id="aT"/><path fill="#FFF" d="M321.2 249.45q.25.25.55.25.3 0 .55-.25.25-.25.25-.5 0-.35-.25-.55-.25-.25-.55-.25-.75 0-.75.8 0 .3.2.5z" id="aU"/><path fill="#FFF" d="M315.85 245.7q-.45.45-.45 1.05 0 .65.45 1.1.5.45 1.15.45.65 0 1.05-.45.45-.45.45-1.1 0-.6-.45-1.05-.4-.5-1.05-.5t-1.15.5z" id="aV"/><path fill="#363435" d="M272.2 241.3q-.95 2.65.05 4.75 1.05 2.35 4.2 3.05l1.45-3.1q-2.05 1-3.9-.15-2.05-1.3-1.8-4.55z" id="aW"/><path fill="#363435" d="M277.55 247.15l1.2-2.6q-1.9.95-3.45-.1-1.75-1.2-.95-3.9-1.25 2-.35 4t3.55 2.6z" id="aX"/><path fill="#FFF" d="M282.85 241.55q-2.9 0-5 2.05-2.05 2.1-2.05 5 0 2.95 2.05 5 2.1 2.05 5 2.05 2.95 0 5-2.05t2.05-5q0-2.9-2.05-5-2.05-2.05-5-2.05z" id="aY"/><path fill="url(#L)" d="M282.85 243.2q-2.2 0-3.8 1.6-1.6 1.6-1.6 3.8 0 2.2 1.6 3.8 1.6 1.6 3.8 1.6 2.25 0 3.85-1.6 1.55-1.55 1.55-3.8t-1.55-3.8q-1.6-1.6-3.85-1.6z" id="aZ"/><path fill="url(#M)" d="M279.25 251.75q1.4 1.65 3.7 1.65 2.1 0 3.6-1.65.75-.9.15-1.5-.75-.5-1.4.3-.9 1.15-2.35 1.15-1.55 0-2.45-1.15-.65-.8-1.4-.3-.6.6.15 1.5z" id="ba"/><path fill="#363435" d="M282.85 246.15q-1 0-1.7.7-.75.75-.75 1.75t.75 1.75q.7.7 1.7.7 1.05 0 1.8-.7.75-.75.75-1.75t-.75-1.75q-.75-.7-1.8-.7z" id="bb"/><path fill="#FFF" d="M284.7 249.45q.25.25.55.25.3 0 .55-.25.25-.25.25-.5 0-.35-.25-.55-.25-.25-.55-.25-.75 0-.75.8 0 .3.2.5z" id="bc"/><path fill="#FFF" d="M279.65 245.7q-.45.45-.45 1.05 0 .65.45 1.1.4.45 1.05.45t1.1-.45q.5-.45.5-1.1 0-.6-.5-1.05-.45-.5-1.1-.5-.6 0-1.05.5z" id="bd"/></defs><use xlink:href="#N"/><use xlink:href="#O" transform="matrix(1.5374 0 0 1.5374 -320.846 -279.394)"/><use xlink:href="#P" transform="matrix(1.5374 0 0 1.5374 -320.846 -279.394)"/><use xlink:href="#Q" transform="matrix(1.5374 0 0 1.5374 -320.846 -279.394)"/><use xlink:href="#R" transform="matrix(1.5374 0 0 1.5374 -320.846 -279.394)"/><use xlink:href="#S" transform="matrix(1.5374 0 0 1.5374 -320.846 -279.394)"/><use xlink:href="#T" transform="matrix(1.5374 0 0 1.5374 -320.846 -279.394)"/><use xlink:href="#U" transform="matrix(1.5374 0 0 1.5374 -320.846 -279.394)"/><use xlink:href="#V" transform="matrix(1.5374 0 0 1.5374 -320.846 -279.394)"/><use xlink:href="#W" transform="matrix(1.5374 0 0 1.5374 -320.846 -279.394)"/><use xlink:href="#X" transform="matrix(1.5374 0 0 1.5374 -320.846 -279.394)"/><use xlink:href="#Y" transform="matrix(1.5374 0 0 1.5374 -320.846 -279.394)"/><use xlink:href="#Z" transform="matrix(1.5374 0 0 1.5374 -320.846 -279.394)"/><use xlink:href="#aa" transform="matrix(1.5374 0 0 1.5374 -320.846 -279.394)"/><use xlink:href="#ab" transform="matrix(1.5374 0 0 1.5374 -320.846 -279.394)"/><use xlink:href="#ac" transform="matrix(1.5374 0 0 1.5374 -320.846 -279.394)"/><use xlink:href="#ad" transform="matrix(1.5374 0 0 1.5374 -320.846 -279.394)"/><use xlink:href="#ae" transform="matrix(1.5374 0 0 1.5374 -320.846 -279.394)"/><use xlink:href="#af" transform="matrix(1.5374 0 0 1.5374 -320.846 -279.394)"/><use xlink:href="#ag" transform="matrix(1.5374 0 0 1.5374 -320.846 -279.394)"/><use xlink:href="#ah" transform="matrix(1.5374 0 0 1.5374 -320.846 -279.394)"/><use xlink:href="#ai" transform="matrix(1.5374 0 0 1.5374 -320.846 -279.394)"/><use xlink:href="#aj" transform="matrix(1.5374 0 0 1.5374 -320.846 -279.394)"/><use xlink:href="#ak" transform="matrix(1.5374 0 0 1.5374 -320.846 -279.394)"/><use xlink:href="#al" transform="matrix(1.5374 0 0 1.5374 -320.846 -279.394)"/><use xlink:href="#am" transform="matrix(1.5374 0 0 1.5374 -320.846 -279.394)"/><use xlink:href="#an" transform="matrix(1.5374 0 0 1.5374 -320.846 -279.394)"/><use xlink:href="#ao" transform="matrix(1.5374 0 0 1.5374 -320.846 -279.394)"/><use xlink:href="#ap" transform="matrix(1.5374 0 0 1.5374 -320.846 -279.394)"/><use xlink:href="#aq" transform="matrix(1.5374 0 0 1.5374 -320.846 -279.394)"/><use xlink:href="#ar" transform="matrix(1.5374 0 0 1.5374 -320.846 -279.394)"/><use xlink:href="#as" transform="matrix(1.5374 0 0 1.5374 -320.846 -279.394)"/><use xlink:href="#at" transform="matrix(1.5374 0 0 1.5374 -320.846 -279.394)"/><use xlink:href="#au" transform="matrix(1.5374 0 0 1.5374 -320.846 -279.394)"/><use xlink:href="#av" transform="matrix(1.5374 0 0 1.5374 -320.846 -279.394)"/><use xlink:href="#aw" transform="matrix(1.5374 0 0 1.5374 -320.846 -279.394)"/><use xlink:href="#ax" transform="matrix(1.5374 0 0 1.5374 -320.846 -279.394)"/><use xlink:href="#ay" transform="matrix(1.5374 0 0 1.5374 -320.846 -279.394)"/><use xlink:href="#az" transform="matrix(1.5374 0 0 1.5374 -320.846 -279.394)"/><use xlink:href="#aA" transform="matrix(1.5374 0 0 1.5374 -320.846 -279.394)"/><use xlink:href="#aB" transform="matrix(1.5374 0 0 1.5374 -320.846 -279.394)"/><use xlink:href="#aC" transform="matrix(1.5374 0 0 1.5374 -320.846 -279.394)"/><use xlink:href="#aD" transform="matrix(1.5374 0 0 1.5374 -320.846 -279.394)"/><use xlink:href="#aE" transform="matrix(1.5374 0 0 1.5374 -320.846 -279.394)"/><use xlink:href="#aF" transform="matrix(1.5374 0 0 1.5374 -320.846 -279.394)"/><use xlink:href="#aG" transform="matrix(1.5374 0 0 1.5374 -320.846 -279.394)"/><use xlink:href="#aH" transform="matrix(1.5374 0 0 1.5374 -320.846 -279.394)"/><use xlink:href="#aI" transform="matrix(1.5374 0 0 1.5374 -320.846 -279.394)"/><use xlink:href="#aJ" transform="matrix(1.5374 0 0 1.5374 -320.846 -279.394)"/><use xlink:href="#aK" transform="matrix(1.5374 0 0 1.5374 -320.846 -279.394)"/><use xlink:href="#aL" transform="matrix(1.5374 0 0 1.5374 -320.846 -279.394)"/><use xlink:href="#aM" transform="matrix(1.5374 0 0 1.5374 -320.846 -279.394)"/><use xlink:href="#aN" transform="matrix(1.5374 0 0 1.5374 -320.846 -279.394)"/><use xlink:href="#aO" transform="matrix(1.5374 0 0 1.5374 -320.846 -279.394)"/><use xlink:href="#aP" transform="matrix(1.5374 0 0 1.5374 -320.846 -279.394)"/><use xlink:href="#aQ" transform="matrix(1.5374 0 0 1.5374 -320.846 -279.394)"/><use xlink:href="#aR" transform="matrix(1.5374 0 0 1.5374 -320.846 -279.394)"/><use xlink:href="#aS" transform="matrix(1.5374 0 0 1.5374 -320.846 -279.394)"/><use xlink:href="#aT" transform="matrix(1.5374 0 0 1.5374 -320.846 -279.394)"/><use xlink:href="#aU" transform="matrix(1.5374 0 0 1.5374 -320.846 -279.394)"/><use xlink:href="#aV" transform="matrix(1.5374 0 0 1.5374 -320.846 -279.394)"/><use xlink:href="#aW" transform="matrix(1.5374 0 0 1.5374 -320.846 -279.394)"/><use xlink:href="#aX" transform="matrix(1.5374 0 0 1.5374 -320.846 -279.394)"/><use xlink:href="#aY" transform="matrix(1.5374 0 0 1.5374 -320.846 -279.394)"/><use xlink:href="#aZ" transform="matrix(1.5374 0 0 1.5374 -320.846 -279.394)"/><use xlink:href="#ba" transform="matrix(1.5374 0 0 1.5374 -320.846 -279.394)"/><use xlink:href="#bb" transform="matrix(1.5374 0 0 1.5374 -320.846 -279.394)"/><use xlink:href="#bc" transform="matrix(1.5374 0 0 1.5374 -320.846 -279.394)"/><use xlink:href="#bd" transform="matrix(1.5374 0 0 1.5374 -320.846 -279.394)"/></svg>