<svg xmlns="http://www.w3.org/2000/svg" xmlns:xlink="http://www.w3.org/1999/xlink" preserveAspectRatio="none" width="284" height="320"><defs><linearGradient id="a" gradientUnits="userSpaceOnUse" x1="787.3" y1="685.35" x2="750.6" y2="653.45" spreadMethod="pad"><stop offset="0%" stop-color="#BF5831"/><stop offset="100%" stop-color="#F48637"/></linearGradient><linearGradient id="b" gradientUnits="userSpaceOnUse" x1="780.388" y1="682.612" x2="752.612" y2="661.688" spreadMethod="pad"><stop offset="0%" stop-color="#D76C34"/><stop offset="40%" stop-color="#F69245"/><stop offset="100%" stop-color="#FCC597"/></linearGradient><linearGradient id="c" gradientUnits="userSpaceOnUse" x1="750.237" y1="656.85" x2="771.263" y2="676.45" spreadMethod="pad"><stop offset="0%" stop-color="#FFF"/><stop offset="100%" stop-color="#FAB781"/></linearGradient><linearGradient id="d" gradientUnits="userSpaceOnUse" x1="882.212" y1="684.938" x2="919.488" y2="653.662" spreadMethod="pad"><stop offset="0%" stop-color="#BF5831"/><stop offset="100%" stop-color="#F48637"/></linearGradient><linearGradient id="e" gradientUnits="userSpaceOnUse" x1="888.638" y1="682.725" x2="916.763" y2="662.275" spreadMethod="pad"><stop offset="0%" stop-color="#D76C34"/><stop offset="40%" stop-color="#F69245"/><stop offset="100%" stop-color="#FCC597"/></linearGradient><linearGradient id="f" gradientUnits="userSpaceOnUse" x1="919.237" y1="656.325" x2="898.563" y2="676.275" spreadMethod="pad"><stop offset="0%" stop-color="#FFF"/><stop offset="100%" stop-color="#FAB781"/></linearGradient><linearGradient id="g" gradientUnits="userSpaceOnUse" x1="834.75" y1="696.55" x2="834.75" y2="745.25" spreadMethod="pad"><stop offset="0%" stop-color="#F69245"/><stop offset="100%" stop-color="#F48637"/></linearGradient><linearGradient id="h" gradientUnits="userSpaceOnUse" x1="796.6" y1="638.538" x2="796.6" y2="660.762" spreadMethod="pad"><stop offset="0%" stop-color="#FCC597"/><stop offset="100%" stop-color="#D76C34"/></linearGradient><linearGradient id="i" gradientUnits="userSpaceOnUse" x1="781.35" y1="624.575" x2="781.35" y2="613.125" spreadMethod="pad"><stop offset="0%" stop-color="#FCC597"/><stop offset="100%" stop-color="#FFF"/></linearGradient><linearGradient id="j" gradientUnits="userSpaceOnUse" x1="798.2" y1="627.563" x2="798.2" y2="616.638" spreadMethod="pad"><stop offset="0%" stop-color="#FCC597"/><stop offset="100%" stop-color="#FFF"/></linearGradient><linearGradient id="k" gradientUnits="userSpaceOnUse" x1="803.6" y1="639.575" x2="803.6" y2="633.225" spreadMethod="pad"><stop offset="0%" stop-color="#FCC597"/><stop offset="100%" stop-color="#FFF"/></linearGradient><linearGradient id="l" gradientUnits="userSpaceOnUse" x1="873" y1="638.538" x2="873" y2="660.762" spreadMethod="pad"><stop offset="0%" stop-color="#FCC597"/><stop offset="100%" stop-color="#D76C34"/></linearGradient><linearGradient id="m" gradientUnits="userSpaceOnUse" x1="888.2" y1="624.575" x2="888.2" y2="613.125" spreadMethod="pad"><stop offset="0%" stop-color="#FCC597"/><stop offset="100%" stop-color="#FFF"/></linearGradient><linearGradient id="n" gradientUnits="userSpaceOnUse" x1="871.35" y1="627.563" x2="871.35" y2="616.638" spreadMethod="pad"><stop offset="0%" stop-color="#FCC597"/><stop offset="100%" stop-color="#FFF"/></linearGradient><linearGradient id="o" gradientUnits="userSpaceOnUse" x1="865.95" y1="639.575" x2="865.95" y2="633.225" spreadMethod="pad"><stop offset="0%" stop-color="#FCC597"/><stop offset="100%" stop-color="#FFF"/></linearGradient><linearGradient id="p" gradientUnits="userSpaceOnUse" x1="834.8" y1="702.538" x2="834.8" y2="676.863" spreadMethod="pad"><stop offset="0%" stop-color="#D76C34"/><stop offset="100%" stop-color="#F69245"/></linearGradient><linearGradient id="q" gradientUnits="userSpaceOnUse" x1="834.15" y1="691.525" x2="834.15" y2="665.975" spreadMethod="pad"><stop offset="0%" stop-color="#F48637"/><stop offset="36.078%" stop-color="#F69245"/><stop offset="100%" stop-color="#FDE0C5"/></linearGradient><linearGradient id="r" gradientUnits="userSpaceOnUse" x1="834.75" y1="705.525" x2="834.75" y2="740.875" spreadMethod="pad"><stop offset="0%" stop-color="#F9A96C"/><stop offset="100%" stop-color="#FDE0C5"/></linearGradient><linearGradient id="s" gradientUnits="userSpaceOnUse" x1="835" y1="741.45" x2="835" y2="751.15" spreadMethod="pad"><stop offset="0%" stop-color="#9C412D"/><stop offset="100%" stop-color="#762F29"/></linearGradient><linearGradient id="t" gradientUnits="userSpaceOnUse" x1="826.425" y1="731.45" x2="848.175" y2="731.45" spreadMethod="pad"><stop offset="0%" stop-color="#E57835"/><stop offset="100%" stop-color="#D76C34"/></linearGradient><linearGradient id="u" gradientUnits="userSpaceOnUse" x1="832.475" y1="731" x2="825.225" y2="731" spreadMethod="pad"><stop offset="0%" stop-color="#FDE9E1"/><stop offset="100%" stop-color="#FFF"/></linearGradient><linearGradient id="v" gradientUnits="userSpaceOnUse" x1="835" y1="785.338" x2="835" y2="843.563" spreadMethod="pad"><stop offset="0%" stop-color="#E691BC"/><stop offset="100%" stop-color="#D82D8E"/></linearGradient><linearGradient id="w" gradientUnits="userSpaceOnUse" x1="835.35" y1="881.475" x2="835.35" y2="779.825" spreadMethod="pad"><stop offset="0%" stop-color="#C82C87"/><stop offset="36.078%" stop-color="#DB589E"/><stop offset="100%" stop-color="#EEBAD5"/></linearGradient><linearGradient id="x" gradientUnits="userSpaceOnUse" x1="835.35" y1="849.512" x2="835.35" y2="769.788" spreadMethod="pad"><stop offset="0%" stop-color="#DE65A4"/><stop offset="43.922%" stop-color="#EAA5C8"/><stop offset="100%" stop-color="#FCE9F1"/></linearGradient><linearGradient id="y" gradientUnits="userSpaceOnUse" x1="805.563" y1="766.388" x2="752.338" y2="821.513" spreadMethod="pad"><stop offset="0%" stop-color="#FFF"/><stop offset="41.961%" stop-color="#FFF"/><stop offset="100%" stop-color="#EEBAD5"/></linearGradient><linearGradient id="z" gradientUnits="userSpaceOnUse" x1="835.35" y1="906.5" x2="835.35" y2="882.1" spreadMethod="pad"><stop offset="0%" stop-color="#EEBAD5"/><stop offset="100%" stop-color="#DB4C99"/></linearGradient><linearGradient id="A" gradientUnits="userSpaceOnUse" x1="861.2" y1="708.537" x2="861.2" y2="722.563" spreadMethod="pad"><stop offset="0%" stop-color="#5E2A28"/><stop offset="100%" stop-color="#8F3529"/></linearGradient><linearGradient id="B" gradientUnits="userSpaceOnUse" x1="866.85" y1="720" x2="855.95" y2="720" spreadMethod="pad"><stop offset="0%" stop-color="#A1412D"/><stop offset="49.02%" stop-color="#CF6433"/><stop offset="100%" stop-color="#A1412D"/></linearGradient><linearGradient id="C" gradientUnits="userSpaceOnUse" x1="808.3" y1="708.537" x2="808.3" y2="722.563" spreadMethod="pad"><stop offset="0%" stop-color="#5E2A28"/><stop offset="100%" stop-color="#8F3529"/></linearGradient><linearGradient id="D" gradientUnits="userSpaceOnUse" x1="813.8" y1="720" x2="802.9" y2="720" spreadMethod="pad"><stop offset="0%" stop-color="#A1412D"/><stop offset="49.02%" stop-color="#CF6433"/><stop offset="100%" stop-color="#A1412D"/></linearGradient><linearGradient id="E" gradientUnits="userSpaceOnUse" x1="892.762" y1="763.5" x2="922.837" y2="782.3" spreadMethod="pad"><stop offset="0%" stop-color="#CB6333"/><stop offset="100%" stop-color="#8F3529"/></linearGradient><linearGradient id="F" gradientUnits="userSpaceOnUse" x1="929.9" y1="765.563" x2="904.1" y2="751.838" spreadMethod="pad"><stop offset="0%" stop-color="#CB6333"/><stop offset="100%" stop-color="#F69245"/></linearGradient><linearGradient id="G" gradientUnits="userSpaceOnUse" x1="894.788" y1="766.425" x2="893.613" y2="779.975" spreadMethod="pad"><stop offset="0%" stop-color="#CB6333"/><stop offset="100%" stop-color="#F69245"/></linearGradient><linearGradient id="H" gradientUnits="userSpaceOnUse" x1="780.2" y1="763.55" x2="750.5" y2="782.85" spreadMethod="pad"><stop offset="0%" stop-color="#CB6333"/><stop offset="100%" stop-color="#8F3529"/></linearGradient><linearGradient id="I" gradientUnits="userSpaceOnUse" x1="743.875" y1="765.238" x2="769.925" y2="751.962" spreadMethod="pad"><stop offset="0%" stop-color="#CB6333"/><stop offset="100%" stop-color="#F69245"/></linearGradient><linearGradient id="J" gradientUnits="userSpaceOnUse" x1="778.788" y1="766.438" x2="780.212" y2="779.963" spreadMethod="pad"><stop offset="0%" stop-color="#CB6333"/><stop offset="100%" stop-color="#F69245"/></linearGradient><linearGradient id="K" gradientUnits="userSpaceOnUse" x1="780.7" y1="889.55" x2="780.7" y2="845.55" spreadMethod="pad"><stop offset="0%" stop-color="#CB6333"/><stop offset="100%" stop-color="#F69245"/></linearGradient><linearGradient id="L" gradientUnits="userSpaceOnUse" x1="889.25" y1="889.55" x2="889.25" y2="845.55" spreadMethod="pad"><stop offset="0%" stop-color="#CB6333"/><stop offset="100%" stop-color="#F69245"/></linearGradient><path fill="#FFF" fill-opacity="0" d="M284 0H0v320h284V0z" id="M"/><path fill="url(#a)" d="M806.15 676.5q-.094.248-.2.5.683-.178.2-.5M748 675.1q5.6 11.25 14.6 16.55 5.6 3.3 10.65 3.95 2.45.35 7.25-.1 3.6-.35 5.5.55 2.75 1.35 5.45 6.1 3.15 5.55 6.35 7.3 4.5 2.5 9.85-1.75 1.9-1.5 1.65-5.4-.15-2.55-1.65-8.3-3.075-12.205-1.7-17-.337.129-1.05.2-2.1.15-4.55-.5-7.25-2.1-8.65-9.45-2.05-10.95-12.9-16.65-8.25-4.3-20.6-5.25-7.1-.55-10.65 2.25-3.1 2.5-3.8 7.95-1.1 8.8 4.25 19.55z" id="N"/><path fill="url(#b)" d="M753.4 678.95q4.55 6.75 10.85 10.45 6.45 3.8 12.6 2.9 4.65-.7 7.1-.15 4.7.95 11.55 5.95l1.3-9.85q-7.45-2-10.1-6.85-.5-.85-3.1-9.85-1.8-6.35-5.6-9.85-3-2.75-10.3-6-7.25-3.2-12.65-3.45-6.35-.3-7.5 3.9-1.4 5.1.2 11.1 1.55 5.75 5.65 11.7z" id="O"/><path fill="url(#c)" d="M752.75 661.05q1.55-5.65 12.1-2.55 8.55 2.55 13.8 6.65-3.6-3.5-8.9-6.25-5.1-2.65-9.9-3.6-3.9-.85-6.4-.2-2.85.7-3.55 3.2-1.2 4.45.25 9.8 1.35 5.05 4.95 10.35 2.4 3.45 5.4 6.15-1.25-1.4-2.6-3.4-3.6-5.2-4.95-10.3-1.4-5.3-.2-9.85z" id="P"/><path fill="url(#d)" d="M863.55 677q-.054-.255-.15-.5-.444.317.15.5m43.5 14.65q8.95-5.3 14.55-16.55 5.35-10.8 4.2-19.55-.7-5.45-3.8-7.95-3.55-2.8-10.65-2.25-12.35.95-20.55 5.25-10.85 5.7-12.95 16.65-1.35 7.35-8.65 9.45-2.45.65-4.55.5-.714-.073-1.1-.2 1.477 4.787-1.6 17-1.5 5.8-1.65 8.3-.3 3.9 1.65 5.4 5.35 4.25 9.85 1.75 3.15-1.75 6.35-7.3 2.75-4.75 5.5-6.1 1.9-.9 5.5-.55 4.8.45 7.25.1 5.05-.65 10.65-3.95z" id="Q"/><path fill="url(#e)" d="M892.75 692.3q6.15.9 12.6-2.9 6.25-3.7 10.8-10.45 4.1-5.9 5.65-11.7 1.65-6 .25-11.1-1.15-4.2-7.5-3.9-5.45.25-12.65 3.45-7.35 3.3-10.35 6-3.8 3.5-5.6 9.85-.5 1.75-1.3 5.15-.8 2.9-1.75 4.7-2.7 4.85-10.15 6.85l1.3 9.85q6.85-5 11.55-5.95 2.45-.55 7.15.15z" id="R"/><path fill="url(#f)" d="M919.45 668.1q1.45-5.35.2-9.8-1.3-4.85-9.95-3-4.75.95-9.9 3.6-5.25 2.75-8.9 6.25 5.4-4.15 13.85-6.65 10.6-3.1 12.15 2.55 1.2 4.5-.25 9.85-1.4 5.05-4.95 10.3-1.55 2.15-2.65 3.4 2.85-2.5 5.4-6.15 3.6-5.3 5-10.35z" id="S"/><path fill="url(#g)" d="M799.95 758.25q4.85 4.8 9.5 16.55 2.5 6.3 9.85 9.9 6.8 3.35 15.45 3.35 8.65.05 15.45-3.25 7.4-3.6 9.9-10 4.65-11.75 9.5-16.55 19.2-19.05 20.45-40.2 1.05-19.1-6.1-32.05-8.7-15.75-28.9-20.85-8.9-2.2-20.25-2.05-11.55-.15-20.3 2.05-20.3 5.1-28.95 20.85-7.15 12.95-6.05 32.05 1.2 21.1 20.45 40.2z" id="T"/><path fill="url(#h)" d="M801.7 617.85q-.9-.65-1.95-.9-2.45-.2-4.25 1.7-.9.85-1.5 2l-1.1 2.35q-1.15 3.05-1.6 7.05-.4 3.7-.1 6.3l-.95-1.5-.1-.1q-.4-.65-1.05-2.1-.5-1.1-.85-2.45-.9-3.05-1.3-6.75-.4-3.1-.25-5.1.15-2.65-2.15-4.35-.85-.65-2.15-.9-1.2-.15-2.45.25-2.7 1-3.45 4.25-.5 1.8-.5 3.6-.15 1.6.2 3.75 1.4 8.9 9.8 19.4 3.15 3.9 9.2 9.55 6.35 5.9 8.55 9.45 3.55 5.7 3.55 13.65v1.8l9.45-2 .15-1q.85-5.95-.5-11.75-1.2-4.4-3.7-8.1-1.35-2.1-2.85-3.9-1.95-2.35-2.65-3.7-1.05-2.1-1.1-4.65-.1-1.15.15-2.8.1-.95.7-3.2.3-1.1.3-1.6v-.05q0-1.15-.6-1.8-.45-.7-1-1-.95-.5-1.85-.3-.9.15-1.45.65-.85.6-1.75 1.95l-.05.05q-.65 1.1-.95 2.4l.15-3.25q.75-5.7 3.1-10.5 1.25-2.4.3-4.6-.7-1.35-1.45-1.8z" id="U"/><path fill="url(#i)" d="M782.25 614.95q-1.1-.35-2.15.9-1.05 1.25-1.45 3.3-.35 2.1.15 3.8.55 1.7 1.65 2 1.15.35 2.2-.9 1.05-1.25 1.4-3.35.35-2-.15-3.7-.55-1.7-1.65-2.05z" id="V"/><path fill="url(#j)" d="M799.8 618.85q-1.15-.2-2.4 1-1.25 1.25-1.9 3.25-.7 1.95-.4 3.55.35 1.6 1.5 1.85t2.4-1q1.3-1.25 1.95-3.25.7-1.95.35-3.55-.35-1.6-1.5-1.85z" id="W"/><path fill="url(#k)" d="M804.7 634.7q-.65-.2-1.4.5-.8.65-1.3 1.8-.45 1.15-.35 2.1.15.95.85 1.15.65.2 1.45-.5.75-.65 1.25-1.8.45-1.2.35-2.1-.15-.95-.85-1.15z" id="X"/><path fill="#B34E2F" d="M809.95 660.9q-10.3 3.8-8.9 8.25.65 2.15 4.2 2.65 3.55.5 7.9-.85 4.35-1.35 6.95-3.75 2.6-2.45 1.95-4.5-.7-2.35-3.5-3-3.3-.7-8.6 1.2z" id="Y"/><path fill="url(#l)" d="M893.65 621.2q-.15-2.05-.6-3.6-.75-3.25-3.45-4.25-1.25-.4-2.45-.25-1.35.3-2.15.9-2.3 1.7-2.15 4.35.15 2-.25 5.1-.4 3.7-1.3 6.75-.2.95-.85 2.45-.65 1.45-1.05 2.1l-.1.1-.95 1.5q.3-2.6-.1-6.3-.45-4-1.6-7.05-.5-1.4-1.1-2.35-.55-1.1-1.45-2h-.05q-1.8-1.9-4.25-1.7-1.05.25-1.95.9-.8.6-1.45 1.8-.95 2.2.3 4.6 2.35 4.8 3.1 10.5.15 1 .15 1.95v1.3q-.3-1.3-.95-2.4l-.05-.05q-.55-1.1-1.65-1.95-.7-.45-1.55-.65-.85-.2-1.85.3-.55.3-1 1-.6.65-.6 1.8v.05l.3 1.6q.55 1.8.7 3.2.25 1.65.15 2.8-.05 2.55-1.1 4.65-.7 1.35-2.65 3.7-1.8 2.25-2.85 3.9-2.5 3.7-3.7 8.1-1.35 5.8-.5 11.75l.15 1 9.45 2V677q0-7.95 3.55-13.65 2.2-3.55 8.55-9.45 6.05-5.65 9.2-9.55 8.4-10.5 9.8-19.4.3-1.95.3-3.75z" id="Z"/><path fill="url(#m)" d="M889.5 615.85q-1.05-1.25-2.15-.9-1.1.35-1.65 2.05-.55 1.65-.2 3.7.35 2.1 1.45 3.35 1.05 1.25 2.15.9 1.15-.3 1.65-2 .55-1.7.15-3.8-.35-2.05-1.4-3.3z" id="aa"/><path fill="url(#n)" d="M872.15 619.85q-1.25-1.2-2.4-1-1.15.25-1.5 1.85-.35 1.6.35 3.55.7 2 1.95 3.25 1.3 1.25 2.4 1 1.15-.25 1.5-1.85.35-1.6-.35-3.55-.65-2-1.95-3.25z" id="ab"/><path fill="url(#o)" d="M866.3 635.2q-.8-.7-1.45-.5-.65.2-.8 1.15-.15.95.3 2.1.5 1.15 1.3 1.8.75.7 1.4.5.7-.2.85-1.15.1-.95-.35-2.1-.5-1.15-1.25-1.8z" id="ac"/><path fill="#B34E2F" d="M847.5 662.7q-.65 2.05 1.95 4.5 2.6 2.4 6.95 3.75 4.4 1.35 7.95.85 3.5-.5 4.15-2.65 1.4-4.45-8.9-8.25-5.3-1.9-8.6-1.2-2.8.65-3.5 3z" id="ad"/><path fill="url(#p)" d="M788.35 681.2q-2.2 2.95-2.3 6.65-.05 3.7 2.05 6.75 5 7.3 16.85 4.8 10.8-2.1 16.95 2.8 7.95 6.25 7.45 23.3-.4 14.25-5.35 25.2l10.8 2.8 10.8-2.8q-4.85-10.95-5.25-25.2-.5-17.05 7.3-23.3 6.3-4.9 17.05-2.8 11.8 2.5 16.8-4.8 2.05-3.05 2-6.75-.1-3.7-2.3-6.65-7.4-9.95-20.2-15.4-12.1-5.1-26.2-5.1-14.15 0-26.2 5.1-12.85 5.45-20.25 15.4z" id="ae"/><path fill="url(#q)" d="M815.8 686.5q7.65 3.6 18.45 3.6 10.7 0 18.35-3.6 7.65-3.6 7.65-8.7 0-5.05-7.65-8.65-7.65-3.6-18.35-3.6-10.8 0-18.45 3.6-7.7 3.6-7.7 8.65 0 5.1 7.7 8.7z" id="af"/><path fill="url(#r)" d="M834.8 699.2q-2.95.15-4.4 2.35-1.45 2.2-2.3 7.8-1 6.4-1.7 8.9-1.3 4.55-3.9 7.95-4.4 5.6-5.6 8.2-2.2 4.8-1.2 10.95 1 6 4.4 9.95 5.3 6.05 14.7 6.05 9.25 0 14.65-6.05 3.4-3.95 4.35-9.95 1-6.15-1.2-10.95-1.3-2.75-5.6-8.2-2.6-3.4-3.9-7.95-.8-2.75-1.65-8.9-.85-5.65-2.3-7.8-1.4-2.2-4.35-2.35z" id="ag"/><path fill="#D76C34" d="M836.95 743.55h-4q-8.3-.2-8.3 8.35 0 3.4 3.05 5.85 3.05 2.45 7.35 2.5 4.25-.05 7.25-2.5t3-5.85q0-8.6-8.35-8.35z" id="ah"/><path fill="#AB472E" d="M818.4 735.9q-.2 2.95.75 6.45.9 3.25 2.5 6 3.6 6.4 13.35 6.4 9.7 0 13.35-6.4 1.75-3.15 2.65-7.05 2.3-9.35-4.3-12.5-2.05-1-5.75-.7l-6.05.45q-4-.3-6.05-.45-3.65-.25-5.7.75-4.35 2.15-4.75 7.05z" id="ai"/><path fill="url(#s)" d="M839.7 741.75q.65-3.85 2.6-6.1-5.1-3.45-7.25-1.7-2.2-1.75-7.3 1.7 1.95 2.25 2.6 6.1.65 4.1-.95 6.4-1.15 1.75-3.1 2.15-2.05.45-3.95-.9 4 5.35 12.65 5.35t12.65-5.35q-1.95 1.35-3.95.9-1.85-.4-3.05-2.15-1.6-2.3-.95-6.4z" id="aj"/><path fill="url(#t)" d="M821.75 732.35q.45 1.8 2.25 2.4 3.5 1.3 11.05 1.3 7.5 0 10.9-1.3 1.8-.6 2.3-2.4.45-1.75-.6-3.15-3.85-2.25-12.6-2.35-8.9.1-12.7 2.35-1.05 1.4-.6 3.15z" id="ak"/><path fill="url(#u)" d="M829.35 729.2q-2 0-3.35.55-1.4.5-1.4 1.25 0 .7 1.4 1.25t3.35.55q1.95 0 3.35-.55 1.4-.55 1.4-1.25 0-.75-1.4-1.25-1.4-.55-3.35-.55z" id="al"/><path fill="#F69245" d="M821.8 735.35q0-1.2-.9-1.25-.9-.05-1.15 1-.5 1.95-.1 4.15.5 2.45 1.9 3.85 1.55 1.55 4.05 1.65 2.65.05 3.6-1.8.75-1.4-2.25-2.55-1.55-.8-2.5-1.1-1.1-.3-1.85-1.3-.8-1.1-.8-2.65z" id="am"/><path fill="#5E2A28" d="M821.8 735.9q-.15 2.8 1 4.7.85 1.45 2.6 2.15 1.65.7 3.6.6l.2-.4q.4-1-.15-1.95-.5-1-1.65-1.4-1.9-.35-2.8-.65-2.55-.6-2.8-3.05z" id="an"/><path fill="#F69245" d="M849.1 734.1q-.9.05-.9 1.25 0 1.65-.85 3.15-.8 1.5-1.9 1.8-.4.1-1 .1-.6-.05-1.05.1-1.65.7-2.05 1-.9.65-.5 1.45.95 1.85 3.55 1.8 2.5-.1 4-1.65 1.45-1.4 1.9-3.85.45-2.15-.1-4.15-.2-1.05-1.1-1z" id="ao"/><path fill="#5E2A28" d="M847.2 740.6q1.1-1.75 1-4.7-.25 2.45-2.8 3.05-1.95.35-2.8.65-1.1.45-1.6 1.4-.55.95-.15 1.95l.25.4q1.85.1 3.5-.6 1.75-.75 2.6-2.15z" id="ap"/><path fill="#F69245" d="M882.35 839.1q-19.55-9.45-46.95-9.45-27.55 0-47.15 9.45-19.55 9.5-19.55 22.8 0 13.35 19.55 22.8 19.6 9.45 47.15 9.45 27.45 0 46.95-9.45 19.55-9.45 19.55-22.8 0-13.3-19.55-22.8z" id="aq"/><path fill="url(#v)" d="M766.1 752.4q-19.8 11.85-23 36.35-2.55 18.95 8.7 38.2 8.95 15.35 24.55 27.85 6.75 5.45 18.25 12.9 12.95 8.4 17.15 11.55 18.3 13.7 23.3 31.9 5-18.2 23.25-31.9 4.25-3.15 17.15-11.55 11.5-7.45 18.25-12.9 15.5-12.5 24.5-27.85 11.2-19.25 8.75-38.2-3.2-24.55-22.95-36.35-9.25-5.5-20.25-6.6-11.35-1.15-22.85 2.55-8.25 2.65-14.8 7.6-6.85 5.2-11.05 12.5-4.25-7.3-11.1-12.5-6.55-5-14.85-7.6-11.45-3.7-22.8-2.55-11 1.1-20.2 6.6m-17.05 37.8q2.85-21.65 20.25-32.15 17.2-10.4 37.95-3.75 7.55 2.45 13.35 7 6.15 4.85 9.65 11.5 1.35 2.55 2.1 4.9l2.7 7.7 2.65-7.7q.75-2.35 2.1-4.9 3.45-6.65 9.65-11.5 5.8-4.55 13.35-7 20.75-6.65 37.95 3.75 17.4 10.55 20.15 32.15 3.25 24.45-12.6 45.15-6.25 8.2-16.5 17.15-6.05 5.3-19.1 15.4-19.2 14.7-20.85 16.15-11.9 10.2-16.8 19.55-4.9-9.35-16.85-19.55-1.15-1-20.85-16.15-13.05-10.1-19.15-15.4-10.25-8.95-16.5-17.15-15.85-20.7-12.65-45.15z" id="ar"/><path fill="url(#w)" d="M752.85 769.75q-5.75 9.3-7.05 21.25-1.25 11.4 1.8 23 3.05 11.65 9.75 20.85 8.25 11.3 23.65 24.05 8.75 7.3 26.5 20.95 13.35 10.8 16.65 14.2 8.05 8.35 11.25 18.65 3.15-10.3 11.2-18.65 3.25-3.35 16.6-14.2 8.5-6.9 26.5-20.95 15.4-12.75 23.65-24.05 6.7-9.2 9.75-20.85 3-11.6 1.75-23-1.3-11.95-7.05-21.25-6.2-10.05-16.75-15.6-8.35-4.4-18.5-5.2-10-.75-19.45 2.15-21.25 6.55-27.7 25.55-6.6-19-27.85-25.55-9.45-2.9-19.4-2.15-10.15.8-18.55 5.2-10.55 5.55-16.75 15.6z" id="as"/><path fill="url(#x)" d="M764.3 766q-7.5 7-9.8 17.25-2.5 11.35 1.75 25.15 5.7 18.65 29.2 30.4 21.8 10.9 49.95 11.95 28.05-1.05 49.8-11.95 23.5-11.75 29.25-30.4 4.25-13.8 1.7-25.15Q913.9 773 906.4 766q-7.55-7.05-18.55-9.25-10.85-2.2-21.6.9-11.3 3.3-19.25 11.6-8.75 9.2-11.6 22.9-2.9-13.7-11.7-22.9-7.95-8.3-19.3-11.6-10.8-3.1-21.6-.9-10.95 2.2-18.5 9.25z" id="at"/><path fill="url(#y)" d="M805.9 762.7q-12.7-4.8-26.9.95-14.6 5.85-18.65 20.95-3.75 13.9 2.95 27.65-5.25-14.15.3-26.45 5.05-11.15 16.85-16.9 11.65-5.75 23.8-3.3 13.3 2.7 21.4 14.4-7.6-12.75-19.75-17.3z" id="au"/><path fill="url(#z)" d="M849.15 882.45q6.3-6.1 16.4-13.9-30.336 22.263-59.15.95 9.244 7.231 15.15 12.95 8.5 8.2 13.85 16.6 5.3-8.4 13.75-16.6z" id="av"/><path fill="#BF5831" d="M872.7 714.25q2.85-.8 1.8-4.1-1.35-4.05-4.95-6.6-3.7-2.55-8.3-2.55h-.1q-4.6 0-8.25 2.55-3.65 2.55-5 6.6-1.05 3.3 1.8 4.1 1.3.3 2.45-.35 1.25-.75 1.65-2.55h14.8q.4 1.8 1.7 2.55 1.1.65 2.4.35z" id="aw"/><path fill="#363435" d="M868.7 710.05l2.25 4.65q4.75-1.1 6.4-4.6 1.45-3.2 0-7.15.35 4.9-2.8 6.85-2.75 1.7-5.85.25z" id="ax"/><path fill="#363435" d="M867.45 707.85l1.85 3.95q4-.9 5.4-4 1.35-3-.6-6 1.2 4.1-1.45 5.9-2.35 1.6-5.2.15z" id="ay"/><path fill="#FFF" d="M853.65 722.75q3.15 3.15 7.5 3.15 4.45 0 7.6-3.15 3.15-3.1 3.15-7.5t-3.15-7.6q-3.15-3.15-7.6-3.15-4.35 0-7.5 3.15-3.15 3.2-3.15 7.6 0 4.4 3.15 7.5z" id="az"/><path fill="url(#A)" d="M855.45 721q2.35 2.4 5.7 2.4 3.4 0 5.8-2.4t2.4-5.75q0-3.4-2.4-5.8t-5.8-2.4q-3.35 0-5.7 2.4-2.4 2.4-2.4 5.8 0 3.35 2.4 5.75z" id="aA"/><path fill="url(#B)" d="M861.15 722.5q3.3 0 5.55-2.5.5-.6.55-1.25.05-.65-.4-1-1-.75-2.1.45-1.5 1.75-3.6 1.75-2 0-3.6-1.75-.55-.7-1.15-.75-.55 0-.9.3-.45.35-.4 1 .05.65.6 1.25 2.25 2.5 5.45 2.5z" id="aB"/><path fill="#363435" d="M858.6 717.85q1.05 1.1 2.55 1.1 1.55 0 2.65-1.1 1.1-1.1 1.1-2.6 0-1.55-1.1-2.65-1.05-1.1-2.65-1.1-1.5 0-2.55 1.1-1.1 1.1-1.1 2.65 0 1.5 1.1 2.6z" id="aC"/><path fill="#FFF" d="M864.25 716.55q.3.35.8.35t.85-.35q.35-.3.35-.8t-.35-.85q-.35-.35-.85-.35t-.8.35q-.35.35-.35.85t.35.8z" id="aD"/><path fill="#FFF" d="M856.2 714.1q.65.65 1.65.65 1 0 1.65-.65.65-.65.65-1.65 0-1-.65-1.7-.7-.7-1.65-.7t-1.65.7q-.7.7-.7 1.7 0 .95.7 1.65z" id="aE"/><path fill="#BF5831" d="M808.3 701h-.05q-4.6 0-8.25 2.55-3.65 2.55-5 6.6-.5 1.4-.15 2.45.45 1.25 1.95 1.65 1.3.3 2.4-.35 1.3-.75 1.7-2.55h14.85q.4 1.8 1.65 2.55 1.05.65 2.35.35 1.6-.4 2-1.65.35-1.05-.2-2.45-1.35-4.05-4.95-6.6-3.7-2.55-8.3-2.55z" id="aF"/><path fill="#363435" d="M798.5 714.7l2.25-4.65q-3.1 1.45-5.85-.25-3.1-1.95-2.7-6.85-1.45 3.95 0 7.15 1.6 3.5 6.3 4.6z" id="aG"/><path fill="#363435" d="M800.2 711.8l1.85-3.95q-2.85 1.45-5.25-.15-2.6-1.8-1.45-5.9-1.9 3-.55 6 1.45 3.1 5.4 4z" id="aH"/><path fill="#FFF" d="M800.75 722.75q3.15 3.15 7.55 3.15t7.5-3.15q3.15-3.1 3.15-7.5t-3.15-7.6q-3.1-3.15-7.5-3.15t-7.55 3.15q-3.1 3.15-3.1 7.6 0 4.4 3.1 7.5z" id="aI"/><path fill="url(#C)" d="M802.5 721q2.45 2.4 5.8 2.4 3.35 0 5.75-2.4t2.4-5.75q0-3.4-2.4-5.8-2.35-2.4-5.75-2.4t-5.8 2.4q-2.4 2.4-2.4 5.8 0 3.35 2.4 5.75z" id="aJ"/><path fill="url(#D)" d="M802.75 720q2.35 2.5 5.55 2.5 3.35 0 5.5-2.5.5-.6.55-1.25.05-.65-.35-1-1.05-.85-2.1.45-1.5 1.75-3.6 1.75-2 0-3.6-1.75-.55-.7-1.15-.75-.55 0-.9.3-.45.35-.4 1 0 .65.5 1.25z" id="aK"/><path fill="#363435" d="M805.65 717.85q1.1 1.1 2.65 1.1 1.55 0 2.6-1.1 1.1-1.1 1.1-2.6 0-1.55-1.1-2.65-1.05-1.1-2.6-1.1t-2.65 1.1q-1.1 1.1-1.1 2.65 0 1.5 1.1 2.6z" id="aL"/><path fill="#FFF" d="M811.05 716.55q.3.35.8.35t.85-.35q.35-.3.35-.8t-.35-.85q-.35-.35-.85-.35t-.8.35q-.35.35-.35.85t.35.8z" id="aM"/><path fill="#FFF" d="M803.35 714.1q.65.65 1.65.65 1 0 1.65-.65.65-.65.65-1.65 0-1-.65-1.7-.7-.7-1.65-.7t-1.65.7q-.7.7-.7 1.7 0 .95.7 1.65z" id="aN"/><path fill="#FCC597" d="M864.7 691.65q-2.2-.45-5 .15-2.75.55-4.5 1.9-1.8 1.3-1.5 2.55.25 1.25 2.4 1.7 2.15.45 4.9-.1 2.85-.6 4.6-1.9 1.75-1.3 1.45-2.6-.2-1.25-2.35-1.7z" id="aO"/><path fill="#FCC597" d="M809.75 691.8q-2.75-.6-4.9-.15-2.2.45-2.45 1.7-.25 1.3 1.55 2.6 1.75 1.3 4.5 1.9 2.8.55 4.95.1 2.15-.45 2.4-1.7t-1.5-2.55q-1.8-1.35-4.55-1.9z" id="aP"/><path fill="url(#E)" d="M918.2 760.5q.7-1.5-.25-2.05-6.05-4.45-8.5-5.95-4.05-2.45-7.6.1-4 2.9-8.4 7.9-2.2 2.55-6.6 8.25-7.7 10.25 8.2 13.6l4.8.85 2.4 4.85q2.5 5.1 6.1 6.5 4.35 1.65 8.2-3.4 4.45-5.85 6.25-8.6 3.7-5.6 5.4-10.2 1.3-3.55-2.35-5.1-6.05-2.55-7.75-4.4-.65-.7.1-2.35z" id="aQ"/><path fill="url(#F)" d="M925.9 754.5q-2.45-2.55-4.9-3.9-9.15-5.3-19.5 2.25 2.95 7.05 10.85 13 3.95 3 8.15 4.8 4 1.75 7.55 2.15 4.3-11.2-2.15-18.3z" id="aR"/><path fill="url(#G)" d="M889.4 772.4q-.85 2.5.05 3.2 1 .7 3.15-.8 2.15-1.45 4.3-4.25 2.1-2.8 2.95-5.3.85-2.5-.1-3.2-.95-.7-3.15.8-2.15 1.45-4.25 4.25t-2.95 5.3z" id="aS"/><path fill="url(#H)" d="M755.7 758.45q-.9.55-.25 2.05.7 1.6 0 2.35-1.65 1.85-7.7 4.4-3.65 1.6-2.35 5.1 1.75 4.6 5.45 10.2 1.8 2.7 6.25 8.6 3.8 5.05 8.15 3.4 3.6-1.4 6.15-6.5l2.35-4.85 4.85-.85q15.95-3.3 8.1-13.6-3.85-5.2-6.55-8.25-4.35-5-8.35-7.9-3.6-2.55-7.65-.1-5.05 4-8.45 5.95z" id="aT"/><path fill="url(#I)" d="M752.65 750.6q-2.6 1.45-4.9 3.9-6.5 7.15-2.2 18.3 7.6-.8 15.7-6.95 7.9-5.95 10.85-13-10.3-7.6-19.45-2.25z" id="aU"/><path fill="url(#J)" d="M773.9 762.05q-.9.7-.05 3.2t2.95 5.3q2.1 2.8 4.25 4.25 2.15 1.5 3.05.8.95-.7.15-3.2-.85-2.45-2.95-5.3-2.15-2.8-4.3-4.25-2.2-1.5-3.1-.8z" id="aV"/><path fill="#F8A666" d="M788.7 735q.7.7 1.7.7t1.75-.7q.7-.75.7-1.75 0-.95-.7-1.65-.75-.7-1.75-.7t-1.7.7q-.7.7-.7 1.65 0 1 .7 1.75z" id="aW"/><path fill="#F8A666" d="M792.85 741.45q.75.75 1.8.75 1.1 0 1.8-.75t.7-1.8q0-1.1-.7-1.8t-1.8-.7q-1.05 0-1.8.7-.75.75-.75 1.8t.75 1.8z" id="aX"/><path fill="#F8A666" d="M795.5 735.3q.7.7 1.65.7 1 0 1.7-.7t.7-1.7q0-1-.7-1.75-.7-.7-1.7-.7-.95 0-1.65.7-.7.75-.7 1.75t.7 1.7z" id="aY"/><path fill="#F8A666" d="M879.3 735q.7.7 1.65.7 1.05 0 1.75-.7.7-.75.7-1.75t-.7-1.65q-.7-.7-1.75-.7-.95 0-1.65.7t-.7 1.65q0 1 .7 1.75z" id="aZ"/><path fill="#F8A666" d="M874.95 741.45q.75.75 1.75.75 1.05 0 1.8-.75t.75-1.8q0-1.05-.75-1.8-.75-.7-1.8-.7t-1.75.7q-.75.75-.75 1.8t.75 1.8z" id="ba"/><path fill="#F8A666" d="M872.5 735.3q.75.7 1.7.7t1.65-.7q.7-.7.7-1.7t-.7-1.75q-.65-.7-1.65-.7-1 0-1.7.7-.7.75-.7 1.75t.7 1.7z" id="bb"/><path fill="#BF5831" d="M751.65 854.95q-.35 4.55.4 8.9.8 4.7 3.05 10.25 3.55 8.5 11.7 14.15 8.8 6 17.55 4.65 11.2-1.8 16.45-10.8 5.9-10.1 1.3-25.15-2.7-9.15-7.85-14.95-4.8-5.35-11.3-7.3-11.6-3.5-21.2 3-9.35 6.3-10.1 17.25z" id="bc"/><path fill="url(#K)" d="M760.2 849.55q-5.1 8.55-1.85 20.15 3.6 13 12.65 18.95 8.1 5.35 17.1 3.15 9-2.2 13.4-10.6 4.85-9.3 1.4-22.25-3.1-11.75-11.95-16.95-7.95-4.65-17.05-2.4-9.1 2.25-13.7 9.95z" id="bd"/><path fill="#D76C34" d="M756.05 851.4q2.6-8.75 12.65-12.65 9.85-3.8 17.95.25-8.3-5.7-18.55-1.95-10.6 3.9-12.05 14.35z" id="be"/><path fill="#BF5831" d="M917.95 863.85q.75-4.35.45-8.9-.75-10.95-10.1-17.25-9.6-6.5-21.2-3-6.5 1.95-11.3 7.3-5.15 5.75-7.95 14.95-4.55 15.05 1.35 25.15 5.25 9 16.45 10.8 8.75 1.35 17.55-4.65 8.2-5.7 11.7-14.15 2.2-5.55 3.05-10.25z" id="bf"/><path fill="url(#L)" d="M899 888.65q9-5.95 12.65-18.95 3.25-11.6-1.85-20.15-4.6-7.7-13.7-9.95-9.15-2.25-17.1 2.4-8.85 5.2-11.95 16.95-3.4 12.95 1.45 22.25 4.4 8.4 13.4 10.6 9 2.2 17.1-3.15z" id="bg"/><path fill="#D76C34" d="M901.3 838.75q10.05 3.9 12.7 12.65-1.55-10.45-12.1-14.35-10.25-3.7-18.5 1.95 8.05-4.05 17.9-.25z" id="bh"/><path fill="#FAB781" d="M774.5 846.05q9.85-3.85 17.9.25-8.25-5.7-18.5-1.95-10.55 3.85-12.1 14.35 2.65-8.75 12.7-12.65z" id="bi"/><path fill="#FAB781" d="M896.2 846.2q10.05 3.85 12.65 12.6-1.5-10.5-12.05-14.35-10.25-3.7-18.55 2 8.05-4.1 17.95-.25z" id="bj"/></defs><use xlink:href="#M"/><use xlink:href="#N" transform="translate(-616.806 -513.294) scale(.9075)"/><use xlink:href="#O" transform="translate(-616.806 -513.294) scale(.9075)"/><use xlink:href="#P" transform="translate(-616.806 -513.294) scale(.9075)"/><use xlink:href="#Q" transform="translate(-616.806 -513.294) scale(.9075)"/><use xlink:href="#R" transform="translate(-616.806 -513.294) scale(.9075)"/><use xlink:href="#S" transform="translate(-616.806 -513.294) scale(.9075)"/><use xlink:href="#T" transform="translate(-616.806 -513.294) scale(.9075)"/><use xlink:href="#U" transform="translate(-616.806 -513.294) scale(.9075)"/><use xlink:href="#V" transform="translate(-616.806 -513.294) scale(.9075)"/><use xlink:href="#W" transform="translate(-616.806 -513.294) scale(.9075)"/><use xlink:href="#X" transform="translate(-616.806 -513.294) scale(.9075)"/><use xlink:href="#Y" transform="translate(-616.806 -513.294) scale(.9075)"/><use xlink:href="#Z" transform="translate(-616.806 -513.294) scale(.9075)"/><use xlink:href="#aa" transform="translate(-616.806 -513.294) scale(.9075)"/><use xlink:href="#ab" transform="translate(-616.806 -513.294) scale(.9075)"/><use xlink:href="#ac" transform="translate(-616.806 -513.294) scale(.9075)"/><use xlink:href="#ad" transform="translate(-616.806 -513.294) scale(.9075)"/><use xlink:href="#ae" transform="translate(-616.806 -513.294) scale(.9075)"/><use xlink:href="#af" transform="translate(-616.806 -513.294) scale(.9075)"/><use xlink:href="#ag" transform="translate(-616.806 -513.294) scale(.9075)"/><use xlink:href="#ah" transform="translate(-616.806 -513.294) scale(.9075)"/><use xlink:href="#ai" transform="translate(-616.806 -513.294) scale(.9075)"/><use xlink:href="#aj" transform="translate(-616.806 -513.294) scale(.9075)"/><use xlink:href="#ak" transform="translate(-616.806 -513.294) scale(.9075)"/><use xlink:href="#al" transform="translate(-616.806 -513.294) scale(.9075)"/><use xlink:href="#am" transform="translate(-616.806 -513.294) scale(.9075)"/><use xlink:href="#an" transform="translate(-616.806 -513.294) scale(.9075)"/><use xlink:href="#ao" transform="translate(-616.806 -513.294) scale(.9075)"/><use xlink:href="#ap" transform="translate(-616.806 -513.294) scale(.9075)"/><use xlink:href="#aq" transform="translate(-616.806 -513.294) scale(.9075)"/><use xlink:href="#ar" transform="translate(-616.806 -513.294) scale(.9075)"/><use xlink:href="#as" transform="translate(-616.806 -513.294) scale(.9075)"/><use xlink:href="#at" transform="translate(-616.806 -513.294) scale(.9075)"/><use xlink:href="#au" transform="translate(-616.806 -513.294) scale(.9075)"/><use xlink:href="#av" transform="translate(-616.806 -513.294) scale(.9075)"/><use xlink:href="#aw" transform="translate(-616.806 -513.294) scale(.9075)"/><use xlink:href="#ax" transform="translate(-616.806 -513.294) scale(.9075)"/><use xlink:href="#ay" transform="translate(-616.806 -513.294) scale(.9075)"/><use xlink:href="#az" transform="translate(-616.806 -513.294) scale(.9075)"/><use xlink:href="#aA" transform="translate(-616.806 -513.294) scale(.9075)"/><use xlink:href="#aB" transform="translate(-616.806 -513.294) scale(.9075)"/><use xlink:href="#aC" transform="translate(-616.806 -513.294) scale(.9075)"/><use xlink:href="#aD" transform="translate(-616.806 -513.294) scale(.9075)"/><use xlink:href="#aE" transform="translate(-616.806 -513.294) scale(.9075)"/><use xlink:href="#aF" transform="translate(-616.806 -513.294) scale(.9075)"/><use xlink:href="#aG" transform="translate(-616.806 -513.294) scale(.9075)"/><use xlink:href="#aH" transform="translate(-616.806 -513.294) scale(.9075)"/><use xlink:href="#aI" transform="translate(-616.806 -513.294) scale(.9075)"/><use xlink:href="#aJ" transform="translate(-616.806 -513.294) scale(.9075)"/><use xlink:href="#aK" transform="translate(-616.806 -513.294) scale(.9075)"/><use xlink:href="#aL" transform="translate(-616.806 -513.294) scale(.9075)"/><use xlink:href="#aM" transform="translate(-616.806 -513.294) scale(.9075)"/><use xlink:href="#aN" transform="translate(-616.806 -513.294) scale(.9075)"/><use xlink:href="#aO" transform="translate(-616.806 -513.294) scale(.9075)"/><use xlink:href="#aP" transform="translate(-616.806 -513.294) scale(.9075)"/><use xlink:href="#aQ" transform="translate(-616.806 -513.294) scale(.9075)"/><use xlink:href="#aR" transform="translate(-616.806 -513.294) scale(.9075)"/><use xlink:href="#aS" transform="translate(-616.806 -513.294) scale(.9075)"/><use xlink:href="#aT" transform="translate(-616.806 -513.294) scale(.9075)"/><use xlink:href="#aU" transform="translate(-616.806 -513.294) scale(.9075)"/><use xlink:href="#aV" transform="translate(-616.806 -513.294) scale(.9075)"/><use xlink:href="#aW" transform="translate(-616.806 -513.294) scale(.9075)"/><use xlink:href="#aX" transform="translate(-616.806 -513.294) scale(.9075)"/><use xlink:href="#aY" transform="translate(-616.806 -513.294) scale(.9075)"/><use xlink:href="#aZ" transform="translate(-616.806 -513.294) scale(.9075)"/><use xlink:href="#ba" transform="translate(-616.806 -513.294) scale(.9075)"/><use xlink:href="#bb" transform="translate(-616.806 -513.294) scale(.9075)"/><use xlink:href="#bc" transform="translate(-616.806 -513.294) scale(.9075)"/><use xlink:href="#bd" transform="translate(-616.806 -513.294) scale(.9075)"/><use xlink:href="#be" transform="translate(-616.806 -513.294) scale(.9075)"/><use xlink:href="#bf" transform="translate(-616.806 -513.294) scale(.9075)"/><use xlink:href="#bg" transform="translate(-616.806 -513.294) scale(.9075)"/><use xlink:href="#bh" transform="translate(-616.806 -513.294) scale(.9075)"/><use xlink:href="#bi" transform="translate(-616.806 -513.294) scale(.9075)"/><use xlink:href="#bj" transform="translate(-616.806 -513.294) scale(.9075)"/></svg>