<svg xmlns="http://www.w3.org/2000/svg" xmlns:xlink="http://www.w3.org/1999/xlink" preserveAspectRatio="none" width="284" height="320"><defs><linearGradient id="a" gradientUnits="userSpaceOnUse" x1="1059.012" y1="300.375" x2="1033.188" y2="322.825" spreadMethod="pad"><stop offset="0%" stop-color="#F5917C"/><stop offset="100%" stop-color="#F9B9A8"/></linearGradient><linearGradient id="b" gradientUnits="userSpaceOnUse" x1="1068.55" y1="320.425" x2="1050.05" y2="297.575" spreadMethod="pad"><stop offset="0%" stop-color="#F37963"/><stop offset="100%" stop-color="#ED3337"/></linearGradient><linearGradient id="c" gradientUnits="userSpaceOnUse" x1="1032.65" y1="295.462" x2="1054.05" y2="341.337" spreadMethod="pad"><stop offset="0%" stop-color="#F8B3A0"/><stop offset="100%" stop-color="#FFF"/></linearGradient><linearGradient id="d" gradientUnits="userSpaceOnUse" x1="1157.75" y1="300.363" x2="1183.95" y2="322.338" spreadMethod="pad"><stop offset="0%" stop-color="#F5917C"/><stop offset="100%" stop-color="#F9B9A8"/></linearGradient><linearGradient id="e" gradientUnits="userSpaceOnUse" x1="1148.412" y1="320.4" x2="1167.287" y2="297.9" spreadMethod="pad"><stop offset="0%" stop-color="#F3806B"/><stop offset="100%" stop-color="#ED3337"/></linearGradient><linearGradient id="f" gradientUnits="userSpaceOnUse" x1="1183.7" y1="295.175" x2="1163.1" y2="341.425" spreadMethod="pad"><stop offset="0%" stop-color="#F8B3A0"/><stop offset="100%" stop-color="#FFF"/></linearGradient><linearGradient id="g" gradientUnits="userSpaceOnUse" x1="1108.5" y1="370.5" x2="1108.5" y2="321.1" spreadMethod="pad"><stop offset="0%" stop-color="#F7A690"/><stop offset="45.882%" stop-color="#FAC5B4"/><stop offset="100%" stop-color="#FCD7CA"/></linearGradient><linearGradient id="h" gradientUnits="userSpaceOnUse" x1="1108.5" y1="326.513" x2="1108.5" y2="304.188" spreadMethod="pad"><stop offset="0%" stop-color="#FCD7CA"/><stop offset="100%" stop-color="#FEEDE5"/></linearGradient><linearGradient id="i" gradientUnits="userSpaceOnUse" x1="1122.463" y1="360.1" x2="1094.537" y2="360.1" spreadMethod="pad"><stop offset="0%" stop-color="#FBCBBB"/><stop offset="100%" stop-color="#FDE5DD"/></linearGradient><linearGradient id="j" gradientUnits="userSpaceOnUse" x1="1108.5" y1="369.512" x2="1108.5" y2="352.287" spreadMethod="pad"><stop offset="0%" stop-color="#F69985"/><stop offset="100%" stop-color="#F16656"/></linearGradient><linearGradient id="k" gradientUnits="userSpaceOnUse" x1="1099.25" y1="368.75" x2="1099.25" y2="361.05" spreadMethod="pad"><stop offset="0%" stop-color="#EF4A47"/><stop offset="100%" stop-color="#C92F38"/></linearGradient><linearGradient id="l" gradientUnits="userSpaceOnUse" x1="1117.75" y1="368.75" x2="1117.75" y2="361.05" spreadMethod="pad"><stop offset="0%" stop-color="#EF4A47"/><stop offset="100%" stop-color="#C92F38"/></linearGradient><linearGradient id="m" gradientUnits="userSpaceOnUse" x1="1134.4" y1="337.55" x2="1134.4" y2="350.75" spreadMethod="pad"><stop offset="0%" stop-color="#672C2F"/><stop offset="100%" stop-color="#A07169"/></linearGradient><linearGradient id="n" gradientUnits="userSpaceOnUse" x1="1139.825" y1="348.65" x2="1129.575" y2="348.65" spreadMethod="pad"><stop offset="0%" stop-color="#BD9A93"/><stop offset="49.02%" stop-color="#E4D7D3"/><stop offset="100%" stop-color="#BD9A93"/></linearGradient><linearGradient id="o" gradientUnits="userSpaceOnUse" x1="1082.6" y1="337.55" x2="1082.6" y2="350.75" spreadMethod="pad"><stop offset="0%" stop-color="#672C2F"/><stop offset="100%" stop-color="#A07169"/></linearGradient><linearGradient id="p" gradientUnits="userSpaceOnUse" x1="1087.763" y1="348.65" x2="1077.538" y2="348.65" spreadMethod="pad"><stop offset="0%" stop-color="#BD9A93"/><stop offset="49.02%" stop-color="#E4D7D3"/><stop offset="100%" stop-color="#BD9A93"/></linearGradient><linearGradient id="q" gradientUnits="userSpaceOnUse" x1="1108.5" y1="414.337" x2="1108.5" y2="472.563" spreadMethod="pad"><stop offset="0%" stop-color="#E691BC"/><stop offset="100%" stop-color="#D82D8E"/></linearGradient><linearGradient id="r" gradientUnits="userSpaceOnUse" x1="1108.85" y1="511.475" x2="1108.85" y2="409.825" spreadMethod="pad"><stop offset="0%" stop-color="#C82C87"/><stop offset="36.078%" stop-color="#DB589E"/><stop offset="100%" stop-color="#EEBAD5"/></linearGradient><linearGradient id="s" gradientUnits="userSpaceOnUse" x1="1108.85" y1="479.512" x2="1108.85" y2="399.787" spreadMethod="pad"><stop offset="0%" stop-color="#DE65A4"/><stop offset="43.922%" stop-color="#EAA5C8"/><stop offset="100%" stop-color="#FCE9F1"/></linearGradient><linearGradient id="t" gradientUnits="userSpaceOnUse" x1="1079.675" y1="395.488" x2="1026.425" y2="450.613" spreadMethod="pad"><stop offset="0%" stop-color="#FFF"/><stop offset="41.961%" stop-color="#FFF"/><stop offset="100%" stop-color="#EEBAD5"/></linearGradient><linearGradient id="u" gradientUnits="userSpaceOnUse" x1="1019.2" y1="387.8" x2="1039" y2="405" spreadMethod="pad"><stop offset="0%" stop-color="#F7A28D"/><stop offset="100%" stop-color="#FAC5B4"/></linearGradient><linearGradient id="v" gradientUnits="userSpaceOnUse" x1="1046.063" y1="396.025" x2="1027.037" y2="378.275" spreadMethod="pad"><stop offset="0%" stop-color="#FCD7CA"/><stop offset="100%" stop-color="#FFF"/></linearGradient><linearGradient id="w" gradientUnits="userSpaceOnUse" x1="1197.6" y1="387.675" x2="1178.1" y2="405.225" spreadMethod="pad"><stop offset="0%" stop-color="#F7A28D"/><stop offset="100%" stop-color="#FAC5B4"/></linearGradient><linearGradient id="x" gradientUnits="userSpaceOnUse" x1="1171.325" y1="395.512" x2="1190.675" y2="378.088" spreadMethod="pad"><stop offset="0%" stop-color="#FCD7CA"/><stop offset="100%" stop-color="#FFF"/></linearGradient><linearGradient id="y" gradientUnits="userSpaceOnUse" x1="1049.95" y1="481.012" x2="1059.95" y2="518.288" spreadMethod="pad"><stop offset="0%" stop-color="#FAC5B4"/><stop offset="100%" stop-color="#F69781"/></linearGradient><linearGradient id="z" gradientUnits="userSpaceOnUse" x1="1168.675" y1="478.2" x2="1155.325" y2="519.3" spreadMethod="pad"><stop offset="0%" stop-color="#FAC5B4"/><stop offset="100%" stop-color="#F69781"/></linearGradient><linearGradient id="A" gradientUnits="userSpaceOnUse" x1="1108.85" y1="535.5" x2="1108.85" y2="511.1" spreadMethod="pad"><stop offset="0%" stop-color="#EEBAD5"/><stop offset="100%" stop-color="#DB4C99"/></linearGradient><path fill="#FFF" fill-opacity="0" d="M284 0H0v320h284V0z" id="B"/><path fill="#FAC5B4" d="M1214.95 469q.1-1.05-.65-1.85-.75-.75-1.8-.8-6.35-.25-10.55 1.1l-2.25-.65q-3.9-.8-8.1-.35-4.55.5-8.9 2.5-.35.15-2.2 1.15-1 .55-1.25 1.5-.3 1 .25 1.95.55 1 1.5 1.25 1 .3 1.95-.25l1.85-.95q5.45-2.45 10.75-2.15-2.4 2.95-2.4 7.55 0 1.2.3 2.25.7 3.05 3.4 4.9 2.35 1.5 5.4 1.5 1.6 0 2.7-.3 1.6-.5 2.05-.7 2.8-1.3 4.15-3.65 1.6-2.75.8-6.35-.3-1.1-.8-2.25l-.35-.65q-.7-1.25-1.75-2.3h3.25q1.1.1 1.85-.65.75-.7.8-1.8m-8.2 11.4q-.55 1-1.85 1.55-.8.3-1.15.45-.75.15-1.5.15-1.65 0-2.55-.7-1.05-.65-1.3-1.8-.15-.9-.15-1.05 0-4.35 3.75-6.15 3.2 1.35 4.35 3.45l.15.25.5 1.3q.3 1.6-.25 2.55z" id="C"/><path fill="#FAC5B4" d="M1175.1 491.7q0-13.35-19.55-22.8-19.5-9.45-47.05-9.45-27.55 0-47.1 9.45-19.5 9.45-19.5 22.8 0 13.3 19.5 22.75 19.55 9.5 47.1 9.5 27.5 0 47.05-9.5 19.55-9.45 19.55-22.75z" id="D"/><path fill="url(#a)" d="M1036.9 281.4q-6.85-9.3-7.9 14.8-.85 21.25 7 33.35 10.3 15.85 32.15 5.85 7.4-3.4 8.25-8.5.75-4.55-3.65-10.95-3.75-5.45-15.45-14.25-12.2-9.2-20.4-20.3z" id="E"/><path fill="url(#b)" d="M1042.6 287.45q-3.45-3.05-6.6-7 5.8 9.1 10.2 14.15 3.35 3.8 11.3 10.95 3.7 3.45 5.55 6.8 2.15 3.85 1.15 6.45-.2.65-1.6 2.85-1.75 2.75-.85 4.95 1 2.4 4.7 2.1 2.9-.25 4.85-2.5 2.35-2.65 2.4-7.4.05-10.2-9.35-15.9-5.6-3-8.45-4.6-5.15-2.95-8.1-6.1-.75-.8-5.2-4.75z" id="F"/><path fill="#FAC5B4" d="M1031.75 280.1q1.95-3.1 5.15 1.3 7.1 9.55 15.8 16.65 4.7 3.9 12.75 10.05 4.8 4.3 7.8 10.95 3.4 7.7.9 12.3.15 0 .2-.15 9.85-6.3 5.25-16.8-3.8-8.6-13.45-14.6-7.95-4.4-12.8-7.25-8.9-5.25-16.15-11.8-1.95-1.75-3.2-1.95-1.4-.3-2.25 1.3z" id="G"/><path fill="url(#c)" d="M1033.2 299q.45 10.35 2.55 18.3 6 23.05 23.15 17.15-10.95 1.4-18.2-13.9-6.55-13.85-7.3-34.35-.55 5.1-.2 12.8z" id="H"/><path fill="url(#d)" d="M1187.95 296.2q-.5-12.85-2.75-16.2-1.95-2.9-5.15 1.4-8.15 11.1-20.35 20.3-11.8 8.85-15.5 14.25-4.4 6.4-3.65 10.95.85 5.1 8.25 8.5 21.9 10 32.2-5.85 7.85-12.1 6.95-33.35z" id="I"/><path fill="url(#e)" d="M1174.45 287.45q-4.5 4-5.2 4.75-2.95 3.15-8.1 6.1-5.85 3-8.5 4.6-9.4 5.7-9.3 15.9 0 4.75 2.35 7.4 1.95 2.25 4.9 2.5 3.65.3 4.65-2.1.85-2.2-.9-4.95-1.35-2.2-1.6-2.85-.95-2.6 1.2-6.45 1.85-3.4 5.5-6.8 8-7.2 11.3-10.95 4.5-5.1 10.25-14.15-3.15 3.95-6.55 7z" id="J"/><path fill="#FAC5B4" d="M1180.05 281.4q3.15-4.4 5.2-1.3-1.45-2.9-5.4.65-7.35 6.6-16.2 11.8-9.1 4.95-12.85 7.25-9.65 6-13.45 14.6-4.6 10.5 5.25 16.8.15.15.3.15-2.5-4.6.9-12.3 2.95-6.7 7.75-10.95 3.8-3.4 12.8-10.05 8.65-7.1 15.7-16.65z" id="K"/><path fill="url(#f)" d="M1181.3 317.3q2.05-7.95 2.55-18.3.3-7.65-.2-12.8-.8 20.55-7.35 34.35-7.25 15.3-18.2 13.9 17.15 5.9 23.2-17.15z" id="L"/><path fill="url(#g)" d="M1050.15 344.65q-2.25 15.6 2 29.85 4.5 15.2 15 23.45 8.1 6.35 19.1 9.8 10.65 3.25 22.25 3.3 11.65-.05 22.25-3.3 10.95-3.45 19.15-9.8 10.45-8.25 15-23.45 4.25-14.25 2-29.85-3.45-23.55-19.7-35.85-15.05-11.35-38.7-11.45-23.6.1-38.65 11.45-16.25 12.3-19.7 35.85z" id="M"/><path fill="url(#h)" d="M1128.5 306.15q-8.3-3.75-20-3.75-11.65 0-20 3.75-8.3 3.75-8.3 9 0 5.3 8.3 9 8.3 3.75 20 3.75t20-3.75q8.3-3.7 8.3-9 0-5.25-8.3-9z" id="N"/><path fill="#F8B3A0" d="M1083.55 320.35q-3.2.25-5.45 1.7-2.3 1.45-2.3 3.25 0 1.85 2.3 2.9 2.25 1.05 5.45.75 3.25-.25 5.55-1.7 2.25-1.45 2.25-3.3 0-1.8-2.25-2.85-2.3-1.1-5.55-.75z" id="O"/><path fill="#F8B3A0" d="M1127.9 327.25q2.3 1.45 5.5 1.7 3.25.3 5.5-.75t2.25-2.9q0-1.8-2.25-3.25t-5.5-1.7q-3.2-.35-5.5.75-2.3 1.05-2.3 2.85 0 1.85 2.3 3.3z" id="P"/><path fill="#F7A28D" d="M1101.3 347.05q-3.15 2.05-4.5 5.4 1.95-2.4 5-3.75 3.15-1.45 6.7-1.45 3.6 0 6.75 1.45 3 1.35 4.95 3.75-1.35-3.35-4.55-5.4-3.2-2.15-7.15-2.15t-7.2 2.15z" id="Q"/><path fill="url(#i)" d="M1089.1 366.9q.3 3.7 3.05 5.35 2.45 1.45 7.05 1.35 1.75 0 4.75-.65 2.85-.6 4.55-.55 1.7-.05 4.5.55 3 .65 4.85.65 4.55.1 6.95-1.35 2.75-1.65 3.05-5.35-.2-3.35-.85-5.15-1.1-3.05-4.05-5.8-.7-.6-1.55-1.75-.9-1.3-1.35-1.9-3.25-4.15-7.95-5.25-1.7-.45-3.6-.45-1.85 0-3.6.45-4.8 1.1-7.95 5.25-.9 1.25-1.35 1.9-.85 1.15-1.5 1.75-3 2.8-4.1 5.8-.65 1.75-.9 5.15z" id="R"/><path fill="#F3816C" d="M1099.3 384q3.85 4 9.2 4 5.4 0 9.2-4 3.8-4 3.8-9.65t-3.8-9.6q-3.8-4-9.2-4-5.35 0-9.2 4-3.8 4-3.8 9.6 0 5.65 3.8 9.65z" id="S"/><path fill="#C92F38" d="M1101.8 379.85q2.75 3.4 6.7 3.4t6.7-3.4q2.8-3.45 2.8-8.25 0-4.75-2.8-8.2-2.75-3.4-6.7-3.4t-6.7 3.4q-2.8 3.45-2.8 8.2 0 4.8 2.8 8.25z" id="T"/><path fill="#F16855" d="M1089.4 364.55q-.35 1.35-.35 3.45-.1 4.4 2.7 7.55 2.9 3.25 7.35 3.2 1.8-.05 4.85-.7 2.8-.55 4.55-.55 1.7 0 4.55.55 2.95.65 4.8.7 4.5.05 7.4-3.2 2.8-3.1 2.75-7.55 0-1.7-.45-3.45-.3-1.2-4.35.35-4.45 1.65-5.7.65-1.2-.95-2.15-1.15-1-.25-1.95-1-2.4-2-3.15-2.55-1.1-.85-1.75-.7-.65-.15-1.7.7-1.7 1.4-3.2 2.55-1 .75-1.95 1-.9.2-2.1 1.15-1.25 1-5.75-.65-4.1-1.55-4.4-.35z" id="U"/><path fill="url(#j)" d="M1089.05 366.9q.4 4.1 3.1 6.8 2.85 2.8 6.95 2.7 1.85 0 4.85-.65 2.85-.55 4.55-.55 1.7 0 4.55.55 2.95.65 4.8.65 4.2.1 7.05-2.7 2.7-2.7 3-6.8-.3-5.45-4.8-9.05-1.2-.95-2.9-2.85-1.8-1.95-2.7-2.7-3.65-2.85-9-2.85-5.3 0-9 2.85-.95.8-2.75 2.7-1.7 1.9-2.9 2.85-4.3 3.55-4.8 9.05z" id="V"/><path fill="#FDE9E1" d="M1101.35 361.6q-1.25-.8-2.95-.2-1.65.65-2.65 2.35-1 1.6-.75 3.4.25 1.75 1.6 2.5 1.35.8 3 .2 1.6-.65 2.6-2.3 1.05-1.65.8-3.4-.3-1.8-1.65-2.55z" id="W"/><path fill="url(#k)" d="M1101.5 360.85q-1.25-.7-2.8-.1-1.6.6-2.55 2.15-.9 1.6-.65 3.25.2 1.65 1.45 2.4 1.3.7 2.85.15 1.55-.6 2.5-2.15.9-1.6.65-3.25-.2-1.65-1.45-2.45z" id="X"/><path fill="#FDE9E1" d="M1118.6 361.4q-1.65-.6-3 .2-1.35.75-1.6 2.55-.25 1.75.75 3.4t2.6 2.3q1.65.6 3-.2 1.35-.75 1.6-2.5t-.7-3.4q-1-1.7-2.65-2.35z" id="Y"/><path fill="url(#l)" d="M1118.3 360.75q-1.55-.6-2.85.1-1.25.8-1.45 2.45-.25 1.65.7 3.25.9 1.55 2.5 2.15 1.55.55 2.8-.15 1.25-.75 1.45-2.4.25-1.65-.65-3.25-.95-1.55-2.5-2.15z" id="Z"/><path fill="#F8B3A0" d="M1113.45 381.55q-2.25-1.95-4.95-1.95-2.8 0-4.9 1.95 2.35 1.7 4.9 1.7 2.6 0 4.95-1.7z" id="aa"/><path fill="#F3816C" d="M1126.35 332.75q-3.5 2.45-4.85 6.4-1.05 3.15 1.8 3.95 1.25.3 2.3-.3 1.25-.75 1.6-2.5h14.4q.35 1.75 1.6 2.5 1.05.6 2.3.3 2.85-.8 1.8-3.95-1.35-3.95-4.85-6.4-3.55-2.5-8.05-2.5h-.05q-4.45 0-8 2.5z" id="ab"/><path fill="#F3816C" d="M1093.7 343.1q1.5-.4 1.9-1.6.35-1-.15-2.35-1.3-3.95-4.8-6.4-3.6-2.5-8-2.5h-.1q-4.4 0-8 2.5-3.5 2.45-4.85 6.4-1.15 3.15 1.8 3.95 1.2.3 2.3-.3 1.25-.75 1.65-2.5h14.3q.4 1.75 1.65 2.5 1.05.6 2.3.3z" id="ac"/><path fill="#363435" d="M1141.55 339.5l2 4.3q4.5-1.05 6.05-4.35 1.4-3 0-6.65.35 4.5-2.6 6.35-2.6 1.65-5.45.35z" id="ad"/><path fill="#363435" d="M1140.3 337.4l1.75 3.65q3.75-.85 5.05-3.75 1.3-2.85-.55-5.65 1.1 3.85-1.3 5.55-2.25 1.55-4.95.2z" id="ae"/><path fill="#FFF" d="M1127.25 337.05q-2.95 2.95-2.95 7.1 0 4.15 2.95 7.15 3 2.95 7.15 2.95t7.1-2.95q2.9-3 2.9-7.15t-2.9-7.1q-2.95-2.9-7.1-2.9-4.15 0-7.15 2.9z" id="af"/><path fill="url(#m)" d="M1128.95 338.7q-2.25 2.25-2.25 5.45t2.25 5.45q2.25 2.25 5.45 2.25t5.45-2.25q2.25-2.25 2.25-5.45t-2.25-5.45q-2.25-2.25-5.45-2.25t-5.45 2.25z" id="ag"/><path fill="url(#n)" d="M1129 346.55q-.4.4-.35 1 .05.65.55 1.15 2.05 2.4 5.2 2.4 3.05 0 5.2-2.4.5-.5.5-1.15.05-.6-.35-1-.35-.3-.85-.25-.6.05-1.1.65-1.2 1.6-3.4 1.6t-3.4-1.6q-1-1.2-2-.4z" id="ah"/><path fill="#363435" d="M1131.9 341.7q-1 1-1 2.45 0 1.45 1 2.5 1.05 1.05 2.5 1.05t2.5-1.05q1.05-1.05 1.05-2.5t-1.05-2.45q-1.05-1-2.5-1t-2.5 1z" id="ai"/><path fill="#FFF" d="M1137.25 345.45q.35.3.8.3.45 0 .8-.3.3-.35.3-.8 0-1.05-1.1-1.05-.45 0-.8.3-.35.3-.35.75t.35.8z" id="aj"/><path fill="#FFF" d="M1129.65 343.1q.65.65 1.6.65.9 0 1.55-.65.6-.6.6-1.55 0-.9-.6-1.55-.65-.65-1.55-.65-.95 0-1.6.65-.65.65-.65 1.55 0 .95.65 1.55z" id="ak"/><path fill="#363435" d="M1073.4 343.8l2.1-4.3q-2.95 1.3-5.55-.35-2.95-1.8-2.6-6.35-1.35 3.65.05 6.65 1.55 3.3 6 4.35z" id="al"/><path fill="#363435" d="M1074.95 341.05l1.8-3.65q-2.7 1.35-4.95-.2-2.5-1.7-1.4-5.55-1.85 2.8-.55 5.65 1.3 2.9 5.1 3.75z" id="am"/><path fill="#FFF" d="M1075.5 337.05q-2.95 2.95-2.95 7.1 0 4.15 2.95 7.15 2.95 2.95 7.05 2.95 4.15 0 7.15-2.95 2.95-3 2.95-7.15t-2.95-7.1q-3-2.9-7.15-2.9-4.1 0-7.05 2.9z" id="an"/><path fill="url(#o)" d="M1077.2 338.7q-2.25 2.25-2.25 5.45t2.25 5.45q2.25 2.25 5.35 2.25 3.2 0 5.45-2.25t2.25-5.45q0-3.2-2.25-5.45t-5.45-2.25q-3.1 0-5.35 2.25z" id="ao"/><path fill="url(#p)" d="M1077.45 348.7q2.05 2.4 5.1 2.4 3.15 0 5.2-2.4.5-.5.55-1.15.05-.6-.35-1-.35-.3-.85-.25-.6.05-1.15.65-1.2 1.6-3.4 1.6-2.05 0-3.35-1.6-.5-.6-1.1-.65-.5-.05-.85.25-.4.4-.35 1 .05.65.55 1.15z" id="ap"/><path fill="#363435" d="M1080.15 341.7q-1.05 1-1.05 2.45 0 1.45 1.05 2.5 1 1.05 2.4 1.05 1.45 0 2.5-1.05t1.05-2.5q0-1.45-1.05-2.45-1.05-1-2.5-1-1.4 0-2.4 1z" id="aq"/><path fill="#FFF" d="M1085.2 345.45q.3.3.75.3.5 0 .8-.3.3-.35.3-.8 0-1.05-1.1-1.05t-1.1 1.05q0 .45.35.8z" id="ar"/><path fill="#FFF" d="M1077.95 343.1q.6.65 1.5.65.95 0 1.6-.65.65-.6.65-1.55 0-.9-.65-1.55t-1.6-.65q-.9 0-1.5.65-.65.65-.65 1.55 0 .95.65 1.55z" id="as"/><path fill="url(#q)" d="M1082.55 378.1q-11.45-3.7-22.8-2.55-11 1.1-20.2 6.6-19.8 11.85-23 36.4-2.55 18.9 8.7 38.15 9 15.4 24.55 27.85 6.75 5.45 18.25 12.95 12.95 8.4 17.15 11.55 18.3 13.7 23.3 31.9 5-18.2 23.3-31.9 4.25-3.2 17.15-11.55 11.55-7.5 18.3-12.95 15.5-12.45 24.5-27.85 11.2-19.25 8.75-38.15-3.2-24.6-23-36.4-9.2-5.5-20.25-6.6-11.35-1.15-22.85 2.55-8.25 2.7-14.8 7.65-6.9 5.25-11.1 12.5-4.25-7.3-11.1-12.5-6.55-5-14.85-7.65m-1.85 5.95q7.5 2.45 13.35 7 6.15 4.85 9.7 11.5 1.3 2.65 2.05 4.9l2.7 7.7 2.65-7.7q.8-2.45 2.1-4.9 3.5-6.65 9.7-11.5 5.85-4.55 13.4-7 20.7-6.65 37.9 3.75 17.4 10.5 20.2 32.2 3.2 24.4-12.65 45.1-6.25 8.2-16.5 17.15-6.05 5.3-19.1 15.4-19.9 15.4-20.85 16.2-11.9 10.2-16.85 19.55-4.9-9.35-16.85-19.55-1.05-.95-20.9-16.2-13.05-10.1-19.1-15.4-10.25-8.95-16.5-17.15-15.85-20.7-12.65-45.1 2.85-21.7 20.3-32.2 17.2-10.4 37.9-3.75z" id="at"/><path fill="url(#r)" d="M1081 380.9q-9.45-2.9-19.4-2.15-10.15.75-18.55 5.15-10.55 5.55-16.75 15.65-5.75 9.3-7.05 21.25-1.25 11.4 1.8 22.95 3.05 11.65 9.75 20.85 8.25 11.35 23.65 24.1 8.8 7.25 26.55 20.9 13.35 10.9 16.55 14.25 8.1 8.35 11.3 18.6 3.15-10.25 11.25-18.6 3.2-3.35 16.6-14.25 8.5-6.9 26.55-20.9 15.4-12.75 23.65-24.1 6.7-9.2 9.75-20.85 3-11.55 1.75-22.95-1.3-11.95-7.05-21.25-6.2-10.1-16.75-15.65-8.35-4.4-18.5-5.15-10-.75-19.45 2.15-21.25 6.55-27.8 25.55-6.6-19-27.85-25.55z" id="au"/><path fill="url(#s)" d="M1077.85 387.4q-10.75-3.1-21.55-.9-11 2.25-18.5 9.3-7.5 6.95-9.8 17.25-2.55 11.35 1.7 25.15 5.7 18.65 29.2 30.4 21.8 10.9 49.95 11.95 28.1-1.05 49.9-11.95 23.5-11.8 29.2-30.4 4.25-13.85 1.75-25.15-2.3-10.3-9.8-17.25-7.55-7.05-18.55-9.3-10.8-2.2-21.55.9-11.35 3.3-19.3 11.65-8.75 9.2-11.65 22.85-2.9-13.65-11.7-22.85-7.95-8.35-19.3-11.65z" id="av"/><path fill="url(#t)" d="M1079.35 392.45q-12.7-4.8-26.9.9-14.6 5.9-18.65 21-3.75 13.95 2.95 27.65-5.25-14.15.3-26.45 5.05-11.1 16.85-16.9 11.65-5.7 23.8-3.25 13.3 2.65 21.4 14.35-7.6-12.75-19.75-17.3z" id="aw"/><path fill="url(#u)" d="M1045.85 380.3q-7.1-6.25-16.55-3.6-8.85 2.5-14.65 10.95-4.55 6.7-4.8 14.2-.2 8.25 5.25 13.1 6.3 5.65 14.8 3.5 7.6-1.95 13.85-9.05 6.2-7.05 7.2-14.9 1.1-8.7-5.1-14.2z" id="ax"/><path fill="url(#v)" d="M1042.8 382.95q-3.7-3.3-8.55-3.2-4.45.05-9 2.8 7.85-1.9 13.9 3.3 4.05 3.55 5.2 8.55 1.15 4.9-.95 9.1l.55-.65q3.9-4.3 3.55-10.15-.3-5.85-4.7-9.75z" id="ay"/><path fill="url(#w)" d="M1171.1 380.3q-6.2 5.5-5.05 14.2 1 7.85 7.2 14.9 6.2 7.1 13.85 9.05 8.5 2.15 14.85-3.5 5.4-4.9 5.15-13.1-.2-7.5-4.8-14.2-5.75-8.45-14.6-10.95-9.5-2.65-16.6 3.6z" id="az"/><path fill="url(#x)" d="M1174.15 382.95q-4.35 3.9-4.7 9.75-.35 5.85 3.55 10.15l.55.65q-2.1-4.2-.95-9.1 1.15-5 5.2-8.55 6.1-5.2 14-3.3-4.6-2.75-9-2.8-4.9-.1-8.65 3.2z" id="aA"/><path fill="#F5917C" d="M1073.2 487.6q-2.55-8.35-7.25-13.6-4.4-4.9-10.3-6.7-10.65-3.25-19.4 2.7-8.45 5.75-9.2 15.8-.25 4.15.4 8.1.75 4.3 2.75 9.3 3.2 7.8 10.7 12.95 8 5.55 16.05 4.25 10.2-1.65 15.05-9.85 5.35-9.15 1.2-22.95z" id="aB"/><path fill="url(#y)" d="M1073.85 489.45q-2.85-10.75-10.9-15.45-7.25-4.25-15.6-2.2-8.3 2.05-12.5 9.1-4.65 7.8-1.7 18.35 3.35 11.85 11.55 17.3 7.45 4.85 15.65 2.85 8.2-2 12.2-9.65 4.45-8.5 1.3-20.3z" id="aC"/><path fill="#F8B3A0" d="M1031.1 482.55q2.35-8 11.55-11.55 9-3.5 16.35.25-7.55-5.2-16.9-1.75-9.65 3.5-11 13.05z" id="aD"/><path fill="#F5917C" d="M1151.05 474q-4.7 5.2-7.2 13.6-4.15 13.8 1.2 22.95 4.8 8.2 15.05 9.85 7.95 1.3 15.95-4.25 7.5-5.15 10.7-12.95 2.05-5.05 2.8-9.3.7-4 .35-8.1-.65-10-9.15-15.8-8.8-5.95-19.4-2.7-5.95 1.8-10.3 6.7z" id="aE"/><path fill="url(#z)" d="M1154.05 474q-8.1 4.7-10.95 15.45-3.15 11.8 1.3 20.3 4 7.65 12.25 9.65 8.2 2 15.6-2.85 8.25-5.45 11.55-17.3 2.95-10.55-1.7-18.35-4.2-7.05-12.5-9.1t-15.55 2.2z" id="aF"/><path fill="#F8B3A0" d="M1158 471.25q7.35-3.75 16.4-.25 9.15 3.55 11.55 11.55-1.35-9.55-11-13.05-9.4-3.45-16.95 1.75z" id="aG"/><path fill="#FFF" d="M1035.25 491.6q2.65-8.75 12.7-12.6 9.9-3.85 17.9.25-8.2-5.7-18.5-1.95-10.55 3.9-12.1 14.3z" id="aH"/><path fill="#FFF" d="M1151.75 479.45q8.1-4.15 17.95-.3 10.05 3.9 12.65 12.7-1.45-10.5-12.05-14.35-10.3-3.8-18.55 1.95z" id="aI"/><path fill="url(#A)" d="M1108.85 528.4q5.35-8.35 13.85-16.6 6.2-6 16.4-13.9-30.38 22.258-59.25.95 9.338 7.325 15.15 12.95 8.5 8.25 13.85 16.6z" id="aJ"/></defs><use xlink:href="#B"/><use xlink:href="#C" transform="translate(-955.066 -214.968) scale(.98625)"/><use xlink:href="#D" transform="translate(-955.066 -214.968) scale(.98625)"/><use xlink:href="#E" transform="translate(-955.066 -214.968) scale(.98625)"/><use xlink:href="#F" transform="translate(-955.066 -214.968) scale(.98625)"/><use xlink:href="#G" transform="translate(-955.066 -214.968) scale(.98625)"/><use xlink:href="#H" transform="translate(-955.066 -214.968) scale(.98625)"/><use xlink:href="#I" transform="translate(-955.066 -214.968) scale(.98625)"/><use xlink:href="#J" transform="translate(-955.066 -214.968) scale(.98625)"/><use xlink:href="#K" transform="translate(-955.066 -214.968) scale(.98625)"/><use xlink:href="#L" transform="translate(-955.066 -214.968) scale(.98625)"/><use xlink:href="#M" transform="translate(-955.066 -214.968) scale(.98625)"/><use xlink:href="#N" transform="translate(-955.066 -214.968) scale(.98625)"/><use xlink:href="#O" transform="translate(-955.066 -214.968) scale(.98625)"/><use xlink:href="#P" transform="translate(-955.066 -214.968) scale(.98625)"/><use xlink:href="#Q" transform="translate(-955.066 -214.968) scale(.98625)"/><use xlink:href="#R" transform="translate(-955.066 -214.968) scale(.98625)"/><use xlink:href="#S" transform="translate(-955.066 -214.968) scale(.98625)"/><use xlink:href="#T" transform="translate(-955.066 -214.968) scale(.98625)"/><use xlink:href="#U" transform="translate(-955.066 -214.968) scale(.98625)"/><use xlink:href="#V" transform="translate(-955.066 -214.968) scale(.98625)"/><use xlink:href="#W" transform="translate(-955.066 -214.968) scale(.98625)"/><use xlink:href="#X" transform="translate(-955.066 -214.968) scale(.98625)"/><use xlink:href="#Y" transform="translate(-955.066 -214.968) scale(.98625)"/><use xlink:href="#Z" transform="translate(-955.066 -214.968) scale(.98625)"/><use xlink:href="#aa" transform="translate(-955.066 -214.968) scale(.98625)"/><use xlink:href="#ab" transform="translate(-955.066 -214.968) scale(.98625)"/><use xlink:href="#ac" transform="translate(-955.066 -214.968) scale(.98625)"/><use xlink:href="#ad" transform="translate(-955.066 -214.968) scale(.98625)"/><use xlink:href="#ae" transform="translate(-955.066 -214.968) scale(.98625)"/><use xlink:href="#af" transform="translate(-955.066 -214.968) scale(.98625)"/><use xlink:href="#ag" transform="translate(-955.066 -214.968) scale(.98625)"/><use xlink:href="#ah" transform="translate(-955.066 -214.968) scale(.98625)"/><use xlink:href="#ai" transform="translate(-955.066 -214.968) scale(.98625)"/><use xlink:href="#aj" transform="translate(-955.066 -214.968) scale(.98625)"/><use xlink:href="#ak" transform="translate(-955.066 -214.968) scale(.98625)"/><use xlink:href="#al" transform="translate(-955.066 -214.968) scale(.98625)"/><use xlink:href="#am" transform="translate(-955.066 -214.968) scale(.98625)"/><use xlink:href="#an" transform="translate(-955.066 -214.968) scale(.98625)"/><use xlink:href="#ao" transform="translate(-955.066 -214.968) scale(.98625)"/><use xlink:href="#ap" transform="translate(-955.066 -214.968) scale(.98625)"/><use xlink:href="#aq" transform="translate(-955.066 -214.968) scale(.98625)"/><use xlink:href="#ar" transform="translate(-955.066 -214.968) scale(.98625)"/><use xlink:href="#as" transform="translate(-955.066 -214.968) scale(.98625)"/><use xlink:href="#at" transform="translate(-955.066 -214.968) scale(.98625)"/><use xlink:href="#au" transform="translate(-955.066 -214.968) scale(.98625)"/><use xlink:href="#av" transform="translate(-955.066 -214.968) scale(.98625)"/><use xlink:href="#aw" transform="translate(-955.066 -214.968) scale(.98625)"/><use xlink:href="#ax" transform="translate(-955.066 -214.968) scale(.98625)"/><use xlink:href="#ay" transform="translate(-955.066 -214.968) scale(.98625)"/><use xlink:href="#az" transform="translate(-955.066 -214.968) scale(.98625)"/><use xlink:href="#aA" transform="translate(-955.066 -214.968) scale(.98625)"/><use xlink:href="#aB" transform="translate(-955.066 -214.968) scale(.98625)"/><use xlink:href="#aC" transform="translate(-955.066 -214.968) scale(.98625)"/><use xlink:href="#aD" transform="translate(-955.066 -214.968) scale(.98625)"/><use xlink:href="#aE" transform="translate(-955.066 -214.968) scale(.98625)"/><use xlink:href="#aF" transform="translate(-955.066 -214.968) scale(.98625)"/><use xlink:href="#aG" transform="translate(-955.066 -214.968) scale(.98625)"/><use xlink:href="#aH" transform="translate(-955.066 -214.968) scale(.98625)"/><use xlink:href="#aI" transform="translate(-955.066 -214.968) scale(.98625)"/><use xlink:href="#aJ" transform="translate(-955.066 -214.968) scale(.98625)"/></svg>