<svg xmlns="http://www.w3.org/2000/svg" xmlns:xlink="http://www.w3.org/1999/xlink" preserveAspectRatio="none" width="284" height="320"><defs><linearGradient id="a" gradientUnits="userSpaceOnUse" x1="57.65" y1="486.525" x2="57.65" y2="526.875" spreadMethod="pad"><stop offset="0%" stop-color="#0098D9"/><stop offset="100%" stop-color="#0070A9"/></linearGradient><linearGradient id="b" gradientUnits="userSpaceOnUse" x1="50.338" y1="492.462" x2="61.563" y2="534.337" spreadMethod="pad"><stop offset="0%" stop-color="#C3E1F5"/><stop offset="100%" stop-color="#6CBCE8"/></linearGradient><linearGradient id="c" gradientUnits="userSpaceOnUse" x1="53.85" y1="487.55" x2="53.85" y2="529.55" spreadMethod="pad"><stop offset="0%" stop-color="#45B0E3"/><stop offset="100%" stop-color="#008ECD"/></linearGradient><linearGradient id="d" gradientUnits="userSpaceOnUse" x1="159.9" y1="486.525" x2="159.9" y2="526.875" spreadMethod="pad"><stop offset="0%" stop-color="#0098D9"/><stop offset="100%" stop-color="#0070A9"/></linearGradient><linearGradient id="e" gradientUnits="userSpaceOnUse" x1="166.9" y1="492.163" x2="156.4" y2="534.238" spreadMethod="pad"><stop offset="0%" stop-color="#C3E1F5"/><stop offset="100%" stop-color="#6CBCE8"/></linearGradient><linearGradient id="f" gradientUnits="userSpaceOnUse" x1="163.75" y1="487.55" x2="163.75" y2="529.55" spreadMethod="pad"><stop offset="0%" stop-color="#45B0E3"/><stop offset="100%" stop-color="#008ECD"/></linearGradient><linearGradient id="g" gradientUnits="userSpaceOnUse" x1="108.8" y1="527.5" x2="108.8" y2="492.8" spreadMethod="pad"><stop offset="0%" stop-color="#0098D9"/><stop offset="45.882%" stop-color="#45B0E3"/><stop offset="100%" stop-color="#8AC6EC"/></linearGradient><linearGradient id="h" gradientUnits="userSpaceOnUse" x1="108.8" y1="496.537" x2="108.8" y2="480.863" spreadMethod="pad"><stop offset="0%" stop-color="#8AC6EC"/><stop offset="100%" stop-color="#C3E1F5"/></linearGradient><linearGradient id="i" gradientUnits="userSpaceOnUse" x1="108.8" y1="556.55" x2="108.8" y2="597.35" spreadMethod="pad"><stop offset="0%" stop-color="#E691BC"/><stop offset="100%" stop-color="#D82D8E"/></linearGradient><linearGradient id="j" gradientUnits="userSpaceOnUse" x1="109" y1="624.513" x2="109" y2="553.188" spreadMethod="pad"><stop offset="0%" stop-color="#C82C87"/><stop offset="36.078%" stop-color="#DB589E"/><stop offset="100%" stop-color="#EEBAD5"/></linearGradient><linearGradient id="k" gradientUnits="userSpaceOnUse" x1="109" y1="601.537" x2="109" y2="545.563" spreadMethod="pad"><stop offset="0%" stop-color="#DE65A4"/><stop offset="43.922%" stop-color="#EAA5C8"/><stop offset="100%" stop-color="#FCE9F1"/></linearGradient><linearGradient id="l" gradientUnits="userSpaceOnUse" x1="88.325" y1="543.263" x2="50.975" y2="581.938" spreadMethod="pad"><stop offset="0%" stop-color="#FFF"/><stop offset="41.961%" stop-color="#FFF"/><stop offset="100%" stop-color="#EEBAD5"/></linearGradient><linearGradient id="m" gradientUnits="userSpaceOnUse" x1="109.05" y1="641.513" x2="109.05" y2="624.388" spreadMethod="pad"><stop offset="0%" stop-color="#EEBAD5"/><stop offset="100%" stop-color="#DB4C99"/></linearGradient><linearGradient id="n" gradientUnits="userSpaceOnUse" x1="46.263" y1="537.762" x2="60.138" y2="549.837" spreadMethod="pad"><stop offset="0%" stop-color="#A6D4F1"/><stop offset="100%" stop-color="#C3E1F5"/></linearGradient><linearGradient id="o" gradientUnits="userSpaceOnUse" x1="64.838" y1="543.237" x2="51.462" y2="530.763" spreadMethod="pad"><stop offset="0%" stop-color="#C3E1F5"/><stop offset="100%" stop-color="#E1F3FC"/></linearGradient><linearGradient id="p" gradientUnits="userSpaceOnUse" x1="128.15" y1="505.537" x2="128.15" y2="515.762" spreadMethod="pad"><stop offset="0%" stop-color="#0098D9"/><stop offset="100%" stop-color="#C3E1F5"/></linearGradient><linearGradient id="q" gradientUnits="userSpaceOnUse" x1="131.488" y1="513.65" x2="124.013" y2="513.65" spreadMethod="pad"><stop offset="0%" stop-color="#C3E1F5"/><stop offset="49.02%" stop-color="#FFF"/><stop offset="100%" stop-color="#C3E1F5"/></linearGradient><linearGradient id="r" gradientUnits="userSpaceOnUse" x1="89.4" y1="505.537" x2="89.4" y2="515.762" spreadMethod="pad"><stop offset="0%" stop-color="#0098D9"/><stop offset="100%" stop-color="#C3E1F5"/></linearGradient><linearGradient id="s" gradientUnits="userSpaceOnUse" x1="93.487" y1="513.65" x2="86.013" y2="513.65" spreadMethod="pad"><stop offset="0%" stop-color="#C3E1F5"/><stop offset="49.02%" stop-color="#FFF"/><stop offset="100%" stop-color="#C3E1F5"/></linearGradient><linearGradient id="t" gradientUnits="userSpaceOnUse" x1="69.325" y1="603.175" x2="76.275" y2="629.125" spreadMethod="pad"><stop offset="0%" stop-color="#C3E1F5"/><stop offset="100%" stop-color="#6CBCE8"/></linearGradient><linearGradient id="u" gradientUnits="userSpaceOnUse" x1="148.6" y1="603.063" x2="142.1" y2="629.138" spreadMethod="pad"><stop offset="0%" stop-color="#C3E1F5"/><stop offset="100%" stop-color="#6CBCE8"/></linearGradient><linearGradient id="v" gradientUnits="userSpaceOnUse" x1="171.388" y1="537.45" x2="157.713" y2="549.75" spreadMethod="pad"><stop offset="0%" stop-color="#A6D4F1"/><stop offset="100%" stop-color="#C3E1F5"/></linearGradient><linearGradient id="w" gradientUnits="userSpaceOnUse" x1="152.912" y1="543.012" x2="166.487" y2="530.788" spreadMethod="pad"><stop offset="0%" stop-color="#C3E1F5"/><stop offset="100%" stop-color="#E1F3FC"/></linearGradient><linearGradient id="x" gradientUnits="userSpaceOnUse" x1="108.8" y1="537.513" x2="108.8" y2="514.688" spreadMethod="pad"><stop offset="0%" stop-color="#45B0E3"/><stop offset="100%" stop-color="#8AC6EC"/></linearGradient><linearGradient id="y" gradientUnits="userSpaceOnUse" x1="41.712" y1="476.488" x2="53.288" y2="526.612" spreadMethod="pad"><stop offset="0%" stop-color="#FFF"/><stop offset="100%" stop-color="#A6D4F1"/></linearGradient><linearGradient id="z" gradientUnits="userSpaceOnUse" x1="175.2" y1="476.487" x2="164.5" y2="526.813" spreadMethod="pad"><stop offset="0%" stop-color="#FFF"/><stop offset="100%" stop-color="#A6D4F1"/></linearGradient><path fill="#FFF" fill-opacity="0" d="M284 0H0v320h284V0z" id="A"/><path fill="#C3E1F5" d="M106.3 468.1l-1.45.4q-.7.35-1.15.8-1 1.05-1.05 2.2-.15 1.25.35 2.4.4 1.05 1.45 2.2 1.95 1.95 4.8 2.25.8.1.8-.6.05-.3-.1-.5-.2-.25-.45-.25-2.5-.35-4.05-1.9-.9-.95-1.15-1.7-.3-.9-.3-1.75.2-.9.75-1.35.1-.25.7-.45.05-.05 1-.3l1.6-.05q0 1.1.55 2.1.65 1.15 1.6 1.7 1.1.75 2.3.75.7 0 1.15-.45.65-.55.75-1.1.1-.65 0-1.2-.25-1-.9-1.45-1.25-1-3.75-1.5l.3-.5 1.1-.95q.4-.35 1.3-.7 3.25-1.3 8.5.35.65.25.9-.5.2-.6-.5-.9-5.6-1.7-9.4-.25-.9.3-1.6.85-.75.45-1.35 1.2l-.45.6-.3.55q-1-.1-1.95 0m6.35 2.9q.3.2.3.6l.05.55-.2.35q-.1.1-.3.1-.95 0-1.5-.45-.65-.4-1.15-1.2-.35-.8-.35-1.25 2 .4 3.15 1.3z" id="B"/><path fill="#C3E1F5" d="M141.85 593.6q-13.75-6.65-33.1-6.65-19.3 0-33 6.65t-13.7 16q0 9.35 13.7 15.95 13.7 6.65 33 6.65 19.35 0 33.1-6.65 13.7-6.6 13.7-15.95t-13.7-16z" id="C"/><path fill="url(#a)" d="M36.25 480.6q-1.55 1.3.5 4.6 3.5 5.8 4.05 7.25 2.2 5.9 5.35 11.8 1.7 4.75.1 13.55-1.25 6.95.85 11.15 2.5 5 9.4 5.5 6.8.5 12.3-3.05 5-3.25 7.95-9.15 2.85-5.6 3-11.9.2-6.45-2.6-11.4-2.3-5.3-7.25-10.5-5.35-5.7-11.6-8.75-5.55-2.75-11.45-2.7-6.4.1-10.6 3.6z" id="D"/><path fill="url(#b)" d="M33.45 485.2q-.6 3.15.95 7.25 2.2 5.9 5.35 11.8 1.7 4.75.1 13.55-1.25 6.95.85 11.15 2.5 5 9.4 5.5 6.75.5 12.3-3.05 5.05-3.25 8.1-9.2 2.95-5.65 3.15-11.95.25-6.45-2.55-11.4-1.45-4.8-5.5-9.55-4-4.75-9.15-7.85-12.15-7.35-20.35-.85-2.15 1.7-2.65 4.6z" id="E"/><path fill="url(#c)" d="M36.1 480.6q-1.35 1.1-2.05 2.65 4.05-3.55 9.6-1.8 5 1.65 8.65 6.55 7.4 9.85 7.6 23.85.15 14.65-8.8 16.75-4.1 1.05-7.35-.85-3.8-2.15-4.25-7.3-.55 5.9 1.75 9.45 2.65 4.1 8.85 4.55 6.75.5 12.3-3.05 5.05-3.25 8.1-9.2 2.95-5.65 3.15-11.95.25-6.45-2.55-11.4-1.45-4.8-5.5-9.55-4-4.75-9.15-7.85-12.15-7.35-20.35-.85z" id="F"/><path fill="url(#d)" d="M176.8 492.45q.55-1.5 4.05-7.25 2-3.3.4-4.6-4.1-3.5-10.55-3.6-5.9-.05-11.4 2.7-6.25 3.05-11.6 8.75-5 5.2-7.25 10.5-2.8 4.95-2.65 11.4.15 6.3 3 11.9 3 5.9 8 9.15 5.5 3.55 12.3 3.05 6.85-.5 9.35-5.5 2.05-4.2.9-11.15-1.6-8.8.1-13.55 3.15-5.9 5.35-11.8z" id="G"/><path fill="url(#e)" d="M183.2 492.45q1.55-4.1.95-7.25-.5-2.9-2.65-4.6-8.2-6.5-20.35.85-5.15 3.1-9.15 7.85-4.05 4.75-5.5 9.55-2.8 4.95-2.55 11.4.2 6.3 3.15 11.95 3.05 5.95 8.1 9.2 5.55 3.55 12.3 3.05 6.9-.5 9.4-5.5 2.1-4.2.85-11.15-1.6-8.8.1-13.55 3.15-5.9 5.35-11.8z" id="H"/><path fill="url(#f)" d="M165.3 488q3.65-4.9 8.65-6.55 5.5-1.75 9.6 1.8-.7-1.55-2.05-2.65-8.2-6.5-20.35.85-5.15 3.1-9.15 7.85-4.05 4.75-5.5 9.55-2.8 4.95-2.55 11.4.2 6.3 3.15 11.95 3.05 5.95 8.1 9.2 5.55 3.55 12.3 3.05 6.2-.45 8.85-4.55 2.3-3.55 1.75-9.45-.45 5.15-4.25 7.3-3.3 1.9-7.4.85-9-2.1-8.8-16.75.2-14 7.65-23.85z" id="I"/><path fill="url(#g)" d="M108.75 476.05q-16.55.05-27.1 8.05-11.4 8.6-13.85 25.2-1.55 10.9 1.4 20.95 3.2 10.7 10.55 16.45 5.65 4.45 13.45 6.85 7.4 2.3 15.55 2.4 8.25-.1 15.65-2.4 7.8-2.4 13.45-6.85 7.35-5.75 10.55-16.45 2.95-10.05 1.4-20.95-2.45-16.6-13.9-25.2-10.6-8-27.15-8.05z" id="J"/><path fill="#0098D9" d="M138.3 506.35q-1.1-3.05-3.85-4.95-2.75-1.95-6.25-1.95h-.05q-3.5 0-6.25 1.95-2.75 1.9-3.85 4.95-.35 1.05-.05 1.85.35.95 1.5 1.25.95.25 1.8-.25.95-.55 1.3-1.9h11.2q.3 1.35 1.25 1.9.85.5 1.8.25 2.2-.6 1.45-3.1z" id="K"/><path fill="#0098D9" d="M79.3 506.35q-.75 2.5 1.4 3.1.95.25 1.8-.25 1-.55 1.3-1.9H95q.3 1.35 1.3 1.9.85.5 1.8.25 1.15-.3 1.5-1.25.3-.8-.1-1.85-1.05-3.05-3.8-4.95-2.75-1.95-6.25-1.95h-.05q-3.5 0-6.3 1.95-2.75 1.9-3.8 4.95z" id="L"/><path fill="url(#h)" d="M88.9 488.55q0 3.7 5.8 6.3 5.85 2.65 14.05 2.65 8.2 0 14.1-2.65 5.85-2.6 5.85-6.3 0-3.7-5.85-6.3-5.85-2.6-14.1-2.6t-14.05 2.6q-5.8 2.6-5.8 6.3z" id="M"/><path fill="url(#i)" d="M167.25 586q7.9-13.5 6.15-26.8-2.3-17.25-16.2-25.55-13.65-8.15-30.2-2.9-5.8 1.9-10.4 5.4-4.9 3.7-7.85 8.75-2.9-5.05-7.75-8.75-4.6-3.5-10.4-5.4-16.55-5.3-30.25 2.9-13.9 8.3-16.15 25.55-1.75 13.3 6.15 26.8 6.3 10.75 17.25 19.55 4.7 3.8 12.8 9.1 9.05 5.9 12 8.1 12.85 9.65 16.35 22.4 3.5-12.75 16.35-22.4 3.05-2.25 12.05-8.1 8.1-5.3 12.85-9.1 10.95-8.8 17.25-19.55M57.3 591.9q-11.1-14.5-8.85-31.7 1.95-15.2 14.2-22.6 12.05-7.3 26.6-2.6 5.3 1.65 9.4 4.9 4.3 3.35 6.8 8.05.9 1.7 1.5 3.5l1.8 5.4 1.9-5.4q.6-1.8 1.5-3.5 2.5-4.7 6.8-8.05 4.15-3.25 9.4-4.9 14.55-4.7 26.6 2.6 12.25 7.4 14.2 22.6 2.25 17.2-8.85 31.7-6.65 8.7-25.05 22.8-13.7 10.55-14.65 11.4-8.4 7.15-11.85 13.75-3.4-6.6-11.75-13.75-1.05-.9-14.65-11.4-18.4-14.1-25.05-22.8z" id="N"/><path fill="url(#j)" d="M163.85 591.55q9.95-13.7 8.05-30.8-2-18.15-16.7-25.9-12.35-6.5-26.65-2.1-14.9 4.6-19.5 17.95-4.6-13.35-19.55-17.95-14.3-4.4-26.65 2.1-14.7 7.75-16.7 25.9-1.9 17.1 8.05 30.8 5.8 7.95 16.6 16.9 6.15 5.1 18.65 14.7 9.35 7.6 11.7 10 5.65 5.85 7.9 13.05 2.25-7.2 7.9-13.05 2.25-2.35 11.7-10 12.45-9.6 18.6-14.7 10.85-9 16.6-16.9z" id="O"/><path fill="url(#k)" d="M164.55 573.05q3-9.75 1.25-17.75-1.6-7.2-6.85-12.15-5.3-4.9-13-6.5-7.6-1.5-15.15.7-7.95 2.3-13.55 8.15-6.15 6.45-8.2 16-2.05-9.55-8.2-16-5.6-5.85-13.55-8.15-7.6-2.2-15.2-.7-7.7 1.6-13 6.5-5.25 4.95-6.85 12.15-1.75 8 1.2 17.75 4 13.05 20.5 21.3 15.35 7.7 35.1 8.4 19.7-.7 35-8.4 16.5-8.25 20.5-21.3z" id="P"/><path fill="#0098D9" d="M103.2 571.55q2.3 1.1 5.55 1.1t5.55-1.1q2.3-1.15 2.3-2.75t-2.3-2.7q-2.3-1.15-5.55-1.15-3.2 0-5.55 1.15-2.3 1.15-2.3 2.7 0 1.6 2.3 2.75z" id="Q"/><path fill="url(#l)" d="M56.35 556.25q-2.6 9.8 2.1 19.35-3.7-9.9.2-18.55 3.5-7.8 11.8-11.85 8.2-4.05 16.75-2.3 9.3 1.85 15 10.1-5.35-8.95-13.85-12.15-8.95-3.35-18.9.65-10.25 4.15-13.1 14.75z" id="R"/><path fill="url(#m)" d="M88.25 615.55q6.884 5.428 11.05 9.4 6 5.8 9.75 11.65 3.7-5.9 9.7-11.65 4.35-4.15 11.55-9.75-21.61 15.776-42.05.35z" id="S"/><path fill="url(#n)" d="M64.75 532.35q-4.95-4.4-11.6-2.55-6.2 1.75-10.25 7.65-3.25 4.7-3.4 10-.2 5.8 3.65 9.15 4.45 4 10.45 2.5 5.35-1.35 9.7-6.3 4.35-4.95 5.05-10.45.8-6.1-3.6-10z" id="T"/><path fill="url(#o)" d="M62.7 534.2q-2.65-2.3-6.05-2.25-3.15.05-6.35 2 5.55-1.35 9.8 2.3 2.9 2.45 3.7 5.95.8 3.45-.7 6.4l.4-.4q2.7-3.05 2.45-7.2-.25-4.1-3.25-6.8z" id="U"/><path fill="#363435" d="M133.7 506.65l1.55 3.4q3.55-.8 4.75-3.4 1.05-2.3-.05-5.2.3 3.5-2 4.95-2.05 1.3-4.25.25z" id="V"/><path fill="#363435" d="M132.75 505l1.35 2.85q2.9-.6 3.95-2.9 1-2.2-.4-4.35.85 2.95-1.1 4.3-1.75 1.2-3.8.1z" id="W"/><path fill="#FFF" d="M122.65 515.7q2.3 2.3 5.55 2.3 3.2 0 5.5-2.3t2.3-5.55q0-3.15-2.3-5.45-2.3-2.3-5.5-2.3t-5.55 2.3q-2.3 2.3-2.3 5.45 0 3.25 2.3 5.55z" id="X"/><path fill="url(#p)" d="M124 514.4q1.7 1.75 4.2 1.75 2.45 0 4.15-1.75 1.75-1.75 1.75-4.25 0-2.4-1.75-4.15-1.7-1.8-4.15-1.8T124 506q-1.75 1.75-1.75 4.15 0 2.5 1.75 4.25z" id="Y"/><path fill="url(#q)" d="M130.8 512.4q-1.15 1.25-2.65 1.25-1.45 0-2.6-1.25-.4-.5-.9-.55-.4-.05-.6.2-.35.25-.3.75.05.45.4.9 1.5 1.8 4 1.8 2.6 0 4-1.8.9-1.05.15-1.65-.25-.25-.65-.2-.45.05-.85.55z" id="Z"/><path fill="#363435" d="M126.25 512.1q.8.8 1.95.8 1.1 0 1.85-.8.8-.8.8-1.95 0-1.05-.8-1.85-.75-.8-1.85-.8t-1.95.8q-.8.8-.8 1.85 0 1.15.8 1.95z" id="aa"/><path fill="#FFF" d="M130.15 510.55q0 .85.85.85t.85-.85q0-.35-.25-.55-.25-.25-.6-.25-.85 0-.85.8z" id="ab"/><path fill="#FFF" d="M124.5 509.4q.5.5 1.2.5t1.2-.5q.5-.55.5-1.25t-.5-1.2q-.5-.5-1.2-.5t-1.2.5q-.45.5-.45 1.2t.45 1.25z" id="ac"/><path fill="#363435" d="M77.65 501.45q-1.1 2.9-.05 5.2 1.2 2.6 4.65 3.4l1.65-3.4q-2.2 1.05-4.25-.25-2.25-1.45-2-4.95z" id="ad"/><path fill="#363435" d="M79.95 500.6q-1.4 2.15-.4 4.35 1.05 2.3 3.95 2.9l1.35-2.85q-2.05 1.1-3.8-.1-1.95-1.35-1.1-4.3z" id="ae"/><path fill="#FFF" d="M83.9 515.7q2.3 2.3 5.5 2.3 3.25 0 5.5-2.3t2.25-5.55q0-3.15-2.25-5.45-2.3-2.3-5.5-2.3t-5.5 2.3q-2.3 2.3-2.3 5.45 0 3.25 2.3 5.55z" id="af"/><path fill="url(#r)" d="M85.2 514.4q1.75 1.75 4.2 1.75 2.5 0 4.2-1.75 1.75-1.75 1.75-4.25 0-2.4-1.75-4.15-1.75-1.8-4.2-1.8t-4.2 1.8q-1.8 1.75-1.8 4.15 0 2.5 1.8 4.25z" id="ag"/><path fill="url(#s)" d="M85.45 513.7q1.4 1.8 3.95 1.8 2.4 0 4.05-1.8.4-.45.4-.9.05-.5-.3-.75-.2-.25-.6-.2-.5.05-.9.55-1.15 1.25-2.65 1.25-1.45 0-2.6-1.25-.4-.5-.85-.55-.4-.05-.65.2-.35.25-.3.75.05.45.45.9z" id="ah"/><path fill="#363435" d="M87.5 512.1q.8.8 1.9.8 1.15 0 1.95-.8t.8-1.95q0-1.05-.8-1.85-.85-.8-1.95-.8t-1.9.8q-.75.8-.75 1.85 0 1.15.75 1.95z" id="ai"/><path fill="#FFF" d="M91.2 510.55q0 .85.85.85.8 0 .8-.85 0-.8-.8-.8-.85 0-.85.8z" id="aj"/><path fill="#FFF" d="M85.8 509.4q.5.5 1.2.5t1.25-.5q.5-.55.5-1.25t-.5-1.2q-.55-.5-1.25-.5t-1.2.5q-.5.5-.5 1.2t.5 1.25z" id="ak"/><path fill="#6CBCE8" d="M80.15 591.8q-5.45-3.3-15.4-.75-8.6 2.15-12.35 8.15-4 6.55-.15 14.6 4.95 10.15 12.35 13.95 6.35 3.35 12.9 1.3 5.65-1.8 8.2-7.85 2.55-5.95 1.6-14.7-1.2-11.05-7.15-14.7z" id="al"/><path fill="url(#t)" d="M86 621.85q2.3-5.4 1.45-13.25-1.1-9.9-6.45-13.2-4.9-3-13.85-.7-7.8 1.95-11.2 7.35-3.6 5.85-.1 13.1 4.45 9.15 11.1 12.65 5.8 2.95 11.65 1.1 5.1-1.6 7.4-7.05z" id="am"/><path fill="#A6D4F1" d="M60.65 598q-5 3.3-6.05 7.65 1.85 1.45 4 1.35 2-.05 3.1-1.3 1.05-1.25.8-3.25-.3-2-1.85-4.45z" id="an"/><path fill="#A6D4F1" d="M70.75 594.5q-.65.1-1.65.4-1.15.4-1.65.5-3.95 1-5.9 2.25 2.55 4.9 6.8 3.55 3.4-1.2 2.4-6.7z" id="ao"/><path fill="#A6D4F1" d="M76.75 594.4q-1.95-.2-5.05.15.4 4.7 3.5 5.35 1.8.3 3.3-.7 1.7-1.1 2.4-3.55-1.75-1.05-4.15-1.25z" id="ap"/><path fill="#A6D4F1" d="M64.4 593.95q8.65-3.2 16.2-1.2-7.75-3-16.85.2-9.35 3.3-10.15 10.1 1.9-5.8 10.8-9.1z" id="aq"/><path fill="#E1F3FC" d="M60.4 597.6q-4.85 3.3-5.9 7.9 3.35 1.85 5.95-.45 2.7-2.35.6-6.45l-.65-1z" id="ar"/><path fill="#E1F3FC" d="M70.7 594q-2.15.3-3.55.7-3.15.75-6 2.4 2.25 4 6.25 2.95 4.05-1 3.3-6.05z" id="as"/><path fill="#E1F3FC" d="M75.8 598.8q3.65.25 5.15-3.45-3.65-2.2-9.4-1.5.5 4.65 4.25 4.95z" id="at"/><path fill="#6CBCE8" d="M153.25 591.05q-9.95-2.5-15.35.75-5.95 3.65-7.2 14.7-.9 8.7 1.65 14.7 2.6 6.05 8.15 7.85 6.55 2.05 12.95-1.3 7.4-3.85 12.35-13.95 3.9-8.05-.15-14.6-3.75-6-12.4-8.15z" id="au"/><path fill="url(#u)" d="M139.45 628.9q5.85 1.85 11.65-1.1 6.65-3.5 11.1-12.65 3.5-7.25-.1-13.1-3.35-5.4-11.15-7.35-9-2.3-13.9.7-5.35 3.3-6.45 13.2-.85 7.85 1.45 13.25 2.35 5.45 7.4 7.05z" id="av"/><path fill="#A6D4F1" d="M156.35 605.7q1.15 1.25 3.1 1.3 2.1.1 4.05-1.35-1.2-4.4-6.15-7.65-1.55 2.45-1.85 4.45-.25 2 .85 3.25z" id="aw"/><path fill="#A6D4F1" d="M148.9 594.9q-1-.3-1.6-.4-1.05 5.45 2.35 6.7 4.3 1.4 6.85-3.55-2.1-1.3-5.9-2.25-.55-.1-1.7-.5z" id="ax"/><path fill="#A6D4F1" d="M146.4 594.55q-3.1-.35-5.05-.15-2.45.2-4.2 1.25.7 2.45 2.4 3.55 1.45 1 3.25.7 3.05-.65 3.6-5.35z" id="ay"/><path fill="#A6D4F1" d="M137.4 592.75q7.55-2 16.3 1.2 8.85 3.3 10.7 9.1-.75-6.8-10.1-10.1-9.05-3.2-16.9-.2z" id="az"/><path fill="#E1F3FC" d="M157 598.6q-2.1 4.05.6 6.45 2.65 2.3 5.95.45-1.15-4.7-5.9-7.9l-.65 1z" id="aA"/><path fill="#E1F3FC" d="M150.95 594.7q-1.65-.45-3.6-.7-.7 5.05 3.3 6.05 4 1.05 6.2-2.95-2.95-1.7-5.9-2.4z" id="aB"/><path fill="#E1F3FC" d="M137.05 595.35q1.55 3.7 5.2 3.45 3.7-.3 4.25-4.95-5.75-.7-9.45 1.5z" id="aC"/><path fill="url(#v)" d="M174.7 537.45q-4.05-5.9-10.3-7.65-6.7-1.85-11.65 2.55-4.35 3.9-3.55 10 .7 5.5 5.1 10.45 4.35 4.95 9.7 6.3 6 1.5 10.45-2.5 3.8-3.4 3.6-9.15-.15-5.3-3.35-10z" id="aD"/><path fill="url(#w)" d="M160.95 531.95q-3.4-.05-6.05 2.25-3.05 2.7-3.3 6.8t2.45 7.2l.45.4q-1.5-2.95-.7-6.4.8-3.5 3.65-5.95 4.25-3.65 9.85-2.3-3.2-1.95-6.35-2z" id="aE"/><path fill="url(#x)" d="M97.1 523.1q-3.9 8.15 3.55 20.9 4.1 7.1 4.35 11.65.25 4.8-3.5 10.95-1.35 2.3-.15 3.1 1.05.7 2.75-1 .7-.65 1.95-1.1 1.4-.45 2.7-.35 1.35-.1 2.75.35 1.3.45 1.95 1.1 1.8 1.7 2.75 1 1.25-.8-.1-3.1-3.75-6.15-3.5-10.95.25-4.55 4.35-11.65 7.4-12.75 3.5-20.9-3.3-7-11.7-7-8.35 0-11.65 7z" id="aF"/><path fill="#0078B2" d="M105.5 570.65q1.4.65 3.25.65 1.95 0 3.35-.65 1.35-.65 1.35-1.5 0-.95-1.35-1.6-1.4-.65-3.35-.65-1.9 0-3.25.65t-1.35 1.6q0 .85 1.35 1.5z" id="aG"/><path fill="#A6D4F1" d="M118.9 524.95q-4.05-5.45-10.1-5.45t-10.1 5.45q4.2-3.75 10.05-3.75 5.95 0 10.15 3.75z" id="aH"/><path fill="#00A8E0" d="M108.75 520.45q-2.9 0-5.55 1.2-2.6 1.2-4.5 3.3 4.45-3.05 10.1-3.05 5.7 0 10.1 3.05-4.1-4.5-10.15-4.5z" id="aI"/><path fill="#A6D4F1" d="M117.55 531.1q-3.55-4.8-8.75-4.8t-8.75 4.8q3.85-3.2 8.7-3.2 4.95 0 8.8 3.2z" id="aJ"/><path fill="#00A3DE" d="M108.75 527.3q-5.2 0-8.7 3.8 3.8-2.5 8.75-2.5t8.75 2.5q-1.65-1.8-3.9-2.8-2.35-1-4.9-1z" id="aK"/><path fill="#A6D4F1" d="M116.2 537.25q-3.05-4.05-7.4-4.05-4.35 0-7.4 4.05 3.3-2.65 7.35-2.65 4.15 0 7.45 2.65z" id="aL"/><path fill="#009FDC" d="M108.75 534.1q-4.3 0-7.35 3.2 3.15-2.1 7.4-2.1t7.4 2.1q-3.05-3.2-7.45-3.2z" id="aM"/><path fill="#A6D4F1" d="M114.75 543.45q-2.45-3.35-5.95-3.35-3.45 0-5.95 3.35 2.45-2.15 5.9-2.15t6 2.15z" id="aN"/><path fill="#009BDA" d="M108.75 540.85q-3.55 0-5.9 2.65 2.45-1.6 5.95-1.6t5.95 1.6q-2.35-2.65-6-2.65z" id="aO"/><path fill="#A6D4F1" d="M113.35 549.65q-2-2.65-4.55-2.65t-4.55 2.65q1.95-1.7 4.5-1.7 2.6 0 4.6 1.7z" id="aP"/><path fill="#0098D9" d="M108.75 547.7q-2.6 0-4.5 2 1.75-1.2 4.55-1.2t4.55 1.2q-1.9-2-4.6-2z" id="aQ"/><path fill="url(#y)" d="M44 485.95q3.35 2.5 6 7.3 3.35 6.15 4.25 15.9.35 4.5.1 7.25-.4 4.25-2.25 6.65-2.9 3.85-8.15 1.65 3.65 2.5 7 1.95 3.4-.7 5.2-4.65 1.9-4.35 1.7-10.45-.1-5.05-1.6-10.45-2.4-8.85-7.1-13.6-5.65-5.85-13.25-3.9 4.35-.5 8.1 2.35z" id="aR"/><path fill="url(#z)" d="M173.55 485.95q3.8-2.85 8.15-2.35-7.6-1.95-13.25 3.9-4.7 4.75-7.15 13.6-1.45 5.45-1.55 10.45-.15 6.1 1.7 10.45 1.85 4 5.2 4.65 3.3.6 7-1.95-2.55 1.1-4.7.65-2.1-.45-3.45-2.3-1.85-2.4-2.25-6.65-.25-2.75.1-7.25.9-9.75 4.25-15.9 2.55-4.8 5.95-7.3z" id="aS"/></defs><use xlink:href="#A"/><use xlink:href="#B" transform="matrix(1.49576 0 0 1.49577 -20.709 -648.413)"/><use xlink:href="#C" transform="matrix(1.49576 0 0 1.49577 -20.709 -648.413)"/><use xlink:href="#D" transform="matrix(1.49576 0 0 1.49577 -20.709 -648.413)"/><use xlink:href="#E" transform="matrix(1.49576 0 0 1.49577 -20.709 -648.413)"/><use xlink:href="#F" transform="matrix(1.49576 0 0 1.49577 -20.709 -648.413)"/><use xlink:href="#G" transform="matrix(1.49576 0 0 1.49577 -20.709 -648.413)"/><use xlink:href="#H" transform="matrix(1.49576 0 0 1.49577 -20.709 -648.413)"/><use xlink:href="#I" transform="matrix(1.49576 0 0 1.49577 -20.709 -648.413)"/><use xlink:href="#J" transform="matrix(1.49576 0 0 1.49577 -20.709 -648.413)"/><use xlink:href="#K" transform="matrix(1.49576 0 0 1.49577 -20.709 -648.413)"/><use xlink:href="#L" transform="matrix(1.49576 0 0 1.49577 -20.709 -648.413)"/><use xlink:href="#M" transform="matrix(1.49576 0 0 1.49577 -20.709 -648.413)"/><use xlink:href="#N" transform="matrix(1.49576 0 0 1.49577 -20.709 -648.413)"/><use xlink:href="#O" transform="matrix(1.49576 0 0 1.49577 -20.709 -648.413)"/><use xlink:href="#P" transform="matrix(1.49576 0 0 1.49577 -20.709 -648.413)"/><use xlink:href="#Q" transform="matrix(1.49576 0 0 1.49577 -20.709 -648.413)"/><use xlink:href="#R" transform="matrix(1.49576 0 0 1.49577 -20.709 -648.413)"/><use xlink:href="#S" transform="matrix(1.49576 0 0 1.49577 -20.709 -648.413)"/><use xlink:href="#T" transform="matrix(1.49576 0 0 1.49577 -20.709 -648.413)"/><use xlink:href="#U" transform="matrix(1.49576 0 0 1.49577 -20.709 -648.413)"/><use xlink:href="#V" transform="matrix(1.49576 0 0 1.49577 -20.709 -648.413)"/><use xlink:href="#W" transform="matrix(1.49576 0 0 1.49577 -20.709 -648.413)"/><use xlink:href="#X" transform="matrix(1.49576 0 0 1.49577 -20.709 -648.413)"/><use xlink:href="#Y" transform="matrix(1.49576 0 0 1.49577 -20.709 -648.413)"/><use xlink:href="#Z" transform="matrix(1.49576 0 0 1.49577 -20.709 -648.413)"/><use xlink:href="#aa" transform="matrix(1.49576 0 0 1.49577 -20.709 -648.413)"/><use xlink:href="#ab" transform="matrix(1.49576 0 0 1.49577 -20.709 -648.413)"/><use xlink:href="#ac" transform="matrix(1.49576 0 0 1.49577 -20.709 -648.413)"/><use xlink:href="#ad" transform="matrix(1.49576 0 0 1.49577 -20.709 -648.413)"/><use xlink:href="#ae" transform="matrix(1.49576 0 0 1.49577 -20.709 -648.413)"/><use xlink:href="#af" transform="matrix(1.49576 0 0 1.49577 -20.709 -648.413)"/><use xlink:href="#ag" transform="matrix(1.49576 0 0 1.49577 -20.709 -648.413)"/><use xlink:href="#ah" transform="matrix(1.49576 0 0 1.49577 -20.709 -648.413)"/><use xlink:href="#ai" transform="matrix(1.49576 0 0 1.49577 -20.709 -648.413)"/><use xlink:href="#aj" transform="matrix(1.49576 0 0 1.49577 -20.709 -648.413)"/><use xlink:href="#ak" transform="matrix(1.49576 0 0 1.49577 -20.709 -648.413)"/><use xlink:href="#al" transform="matrix(1.49576 0 0 1.49577 -20.709 -648.413)"/><use xlink:href="#am" transform="matrix(1.49576 0 0 1.49577 -20.709 -648.413)"/><use xlink:href="#an" transform="matrix(1.49576 0 0 1.49577 -20.709 -648.413)"/><use xlink:href="#ao" transform="matrix(1.49576 0 0 1.49577 -20.709 -648.413)"/><use xlink:href="#ap" transform="matrix(1.49576 0 0 1.49577 -20.709 -648.413)"/><use xlink:href="#aq" transform="matrix(1.49576 0 0 1.49577 -20.709 -648.413)"/><use xlink:href="#ar" transform="matrix(1.49576 0 0 1.49577 -20.709 -648.413)"/><use xlink:href="#as" transform="matrix(1.49576 0 0 1.49577 -20.709 -648.413)"/><use xlink:href="#at" transform="matrix(1.49576 0 0 1.49577 -20.709 -648.413)"/><use xlink:href="#au" transform="matrix(1.49576 0 0 1.49577 -20.709 -648.413)"/><use xlink:href="#av" transform="matrix(1.49576 0 0 1.49577 -20.709 -648.413)"/><use xlink:href="#aw" transform="matrix(1.49576 0 0 1.49577 -20.709 -648.413)"/><use xlink:href="#ax" transform="matrix(1.49576 0 0 1.49577 -20.709 -648.413)"/><use xlink:href="#ay" transform="matrix(1.49576 0 0 1.49577 -20.709 -648.413)"/><use xlink:href="#az" transform="matrix(1.49576 0 0 1.49577 -20.709 -648.413)"/><use xlink:href="#aA" transform="matrix(1.49576 0 0 1.49577 -20.709 -648.413)"/><use xlink:href="#aB" transform="matrix(1.49576 0 0 1.49577 -20.709 -648.413)"/><use xlink:href="#aC" transform="matrix(1.49576 0 0 1.49577 -20.709 -648.413)"/><use xlink:href="#aD" transform="matrix(1.49576 0 0 1.49577 -20.709 -648.413)"/><use xlink:href="#aE" transform="matrix(1.49576 0 0 1.49577 -20.709 -648.413)"/><use xlink:href="#aF" transform="matrix(1.49576 0 0 1.49577 -20.709 -648.413)"/><use xlink:href="#aG" transform="matrix(1.49576 0 0 1.49577 -20.709 -648.413)"/><use xlink:href="#aH" transform="matrix(1.49576 0 0 1.49577 -20.709 -648.413)"/><use xlink:href="#aI" transform="matrix(1.49576 0 0 1.49577 -20.709 -648.413)"/><use xlink:href="#aJ" transform="matrix(1.49576 0 0 1.49577 -20.709 -648.413)"/><use xlink:href="#aK" transform="matrix(1.49576 0 0 1.49577 -20.709 -648.413)"/><use xlink:href="#aL" transform="matrix(1.49576 0 0 1.49577 -20.709 -648.413)"/><use xlink:href="#aM" transform="matrix(1.49576 0 0 1.49577 -20.709 -648.413)"/><use xlink:href="#aN" transform="matrix(1.49576 0 0 1.49577 -20.709 -648.413)"/><use xlink:href="#aO" transform="matrix(1.49576 0 0 1.49577 -20.709 -648.413)"/><use xlink:href="#aP" transform="matrix(1.49576 0 0 1.49577 -20.709 -648.413)"/><use xlink:href="#aQ" transform="matrix(1.49576 0 0 1.49577 -20.709 -648.413)"/><use xlink:href="#aR" transform="matrix(1.49576 0 0 1.49577 -20.709 -648.413)"/><use xlink:href="#aS" transform="matrix(1.49576 0 0 1.49577 -20.709 -648.413)"/></svg>