<svg xmlns="http://www.w3.org/2000/svg" xmlns:xlink="http://www.w3.org/1999/xlink" preserveAspectRatio="none" width="284" height="320"><defs><linearGradient id="a" gradientUnits="userSpaceOnUse" x1="442.35" y1="227.75" x2="452.85" y2="240.25" spreadMethod="pad"><stop offset="0%" stop-color="#B8B4D9"/><stop offset="100%" stop-color="#7B75B4"/></linearGradient><linearGradient id="b" gradientUnits="userSpaceOnUse" x1="452.05" y1="232.863" x2="441.45" y2="222.637" spreadMethod="pad"><stop offset="0%" stop-color="#F2CFE2"/><stop offset="100%" stop-color="#EEBAD5"/></linearGradient><linearGradient id="c" gradientUnits="userSpaceOnUse" x1="435.262" y1="231.588" x2="421.137" y2="261.913" spreadMethod="pad"><stop offset="0%" stop-color="#C8C5E2"/><stop offset="100%" stop-color="#9E98C9"/></linearGradient><linearGradient id="d" gradientUnits="userSpaceOnUse" x1="413.575" y1="254.7" x2="437.525" y2="213.2" spreadMethod="pad"><stop offset="0%" stop-color="#C8C5E2"/><stop offset="100%" stop-color="#E0DFEF"/></linearGradient><linearGradient id="e" gradientUnits="userSpaceOnUse" x1="526.862" y1="227.813" x2="516.938" y2="240.988" spreadMethod="pad"><stop offset="0%" stop-color="#B8B4D9"/><stop offset="100%" stop-color="#7B75B4"/></linearGradient><linearGradient id="f" gradientUnits="userSpaceOnUse" x1="518.363" y1="232.388" x2="530.837" y2="219.912" spreadMethod="pad"><stop offset="0%" stop-color="#F2CFE2"/><stop offset="100%" stop-color="#EEBAD5"/></linearGradient><linearGradient id="g" gradientUnits="userSpaceOnUse" x1="534.962" y1="231.713" x2="549.637" y2="261.788" spreadMethod="pad"><stop offset="0%" stop-color="#C8C5E2"/><stop offset="100%" stop-color="#9E98C9"/></linearGradient><linearGradient id="h" gradientUnits="userSpaceOnUse" x1="555.862" y1="255.063" x2="532.638" y2="213.137" spreadMethod="pad"><stop offset="0%" stop-color="#C8C5E2"/><stop offset="100%" stop-color="#E0DFEF"/></linearGradient><linearGradient id="i" gradientUnits="userSpaceOnUse" x1="485" y1="267.5" x2="485" y2="232.8" spreadMethod="pad"><stop offset="0%" stop-color="#9C96C8"/><stop offset="45.882%" stop-color="#BFBBDD"/><stop offset="100%" stop-color="#CFCDE6"/></linearGradient><linearGradient id="j" gradientUnits="userSpaceOnUse" x1="485" y1="283.512" x2="485" y2="262.287" spreadMethod="pad"><stop offset="0%" stop-color="#DEDCEE"/><stop offset="100%" stop-color="#FFF"/></linearGradient><linearGradient id="k" gradientUnits="userSpaceOnUse" x1="485" y1="236.537" x2="485" y2="220.862" spreadMethod="pad"><stop offset="0%" stop-color="#CFCDE6"/><stop offset="100%" stop-color="#E6E4F2"/></linearGradient><linearGradient id="l" gradientUnits="userSpaceOnUse" x1="485" y1="296.537" x2="485" y2="337.363" spreadMethod="pad"><stop offset="0%" stop-color="#E691BC"/><stop offset="100%" stop-color="#D82D8E"/></linearGradient><linearGradient id="m" gradientUnits="userSpaceOnUse" x1="485.2" y1="364.513" x2="485.2" y2="293.188" spreadMethod="pad"><stop offset="0%" stop-color="#C82C87"/><stop offset="36.078%" stop-color="#DB589E"/><stop offset="100%" stop-color="#EEBAD5"/></linearGradient><linearGradient id="n" gradientUnits="userSpaceOnUse" x1="485.2" y1="341.538" x2="485.2" y2="285.563" spreadMethod="pad"><stop offset="0%" stop-color="#DE65A4"/><stop offset="43.922%" stop-color="#EAA5C8"/><stop offset="100%" stop-color="#FCE9F1"/></linearGradient><linearGradient id="o" gradientUnits="userSpaceOnUse" x1="464.475" y1="283.413" x2="427.125" y2="322.087" spreadMethod="pad"><stop offset="0%" stop-color="#FFF"/><stop offset="41.961%" stop-color="#FFF"/><stop offset="100%" stop-color="#EEBAD5"/></linearGradient><linearGradient id="p" gradientUnits="userSpaceOnUse" x1="485.25" y1="381.512" x2="485.25" y2="364.387" spreadMethod="pad"><stop offset="0%" stop-color="#EEBAD5"/><stop offset="100%" stop-color="#DB4C99"/></linearGradient><linearGradient id="q" gradientUnits="userSpaceOnUse" x1="422.262" y1="277.762" x2="436.137" y2="289.838" spreadMethod="pad"><stop offset="0%" stop-color="#BAB7D8"/><stop offset="100%" stop-color="#D2CFE7"/></linearGradient><linearGradient id="r" gradientUnits="userSpaceOnUse" x1="440.837" y1="283.188" x2="427.462" y2="270.712" spreadMethod="pad"><stop offset="0%" stop-color="#D9D7EB"/><stop offset="100%" stop-color="#EDECF6"/></linearGradient><linearGradient id="s" gradientUnits="userSpaceOnUse" x1="502.05" y1="245.537" x2="502.05" y2="255.763" spreadMethod="pad"><stop offset="0%" stop-color="#5E5BA4"/><stop offset="100%" stop-color="#C6C3E0"/></linearGradient><linearGradient id="t" gradientUnits="userSpaceOnUse" x1="505.488" y1="253.8" x2="498.012" y2="253.8" spreadMethod="pad"><stop offset="0%" stop-color="#C6C3E0"/><stop offset="49.02%" stop-color="#DEDCEE"/><stop offset="100%" stop-color="#C6C3E0"/></linearGradient><linearGradient id="u" gradientUnits="userSpaceOnUse" x1="467.95" y1="245.537" x2="467.95" y2="255.763" spreadMethod="pad"><stop offset="0%" stop-color="#5E5BA4"/><stop offset="100%" stop-color="#C6C3E0"/></linearGradient><linearGradient id="v" gradientUnits="userSpaceOnUse" x1="471.488" y1="253.8" x2="464.012" y2="253.8" spreadMethod="pad"><stop offset="0%" stop-color="#C6C3E0"/><stop offset="49.02%" stop-color="#DEDCEE"/><stop offset="100%" stop-color="#C6C3E0"/></linearGradient><linearGradient id="w" gradientUnits="userSpaceOnUse" x1="485.05" y1="262.55" x2="485.05" y2="268.85" spreadMethod="pad"><stop offset="0%" stop-color="#EEBAD5"/><stop offset="100%" stop-color="#D82D8E"/></linearGradient><linearGradient id="x" gradientUnits="userSpaceOnUse" x1="485.05" y1="266.5" x2="485.05" y2="262" spreadMethod="pad"><stop offset="0%" stop-color="#E17BAF"/><stop offset="100%" stop-color="#FCE9F1"/></linearGradient><linearGradient id="y" gradientUnits="userSpaceOnUse" x1="481.463" y1="263.7" x2="485.637" y2="263.7" spreadMethod="pad"><stop offset="0%" stop-color="#FFF"/><stop offset="100%" stop-color="#FCE9F1"/></linearGradient><linearGradient id="z" gradientUnits="userSpaceOnUse" x1="487.887" y1="264.95" x2="485.613" y2="267.15" spreadMethod="pad"><stop offset="0%" stop-color="#FCE9F1"/><stop offset="100%" stop-color="#EEBAD5"/></linearGradient><linearGradient id="A" gradientUnits="userSpaceOnUse" x1="547.587" y1="277.65" x2="533.913" y2="289.95" spreadMethod="pad"><stop offset="0%" stop-color="#BAB7D8"/><stop offset="100%" stop-color="#D2CFE7"/></linearGradient><linearGradient id="B" gradientUnits="userSpaceOnUse" x1="529.112" y1="283.213" x2="542.688" y2="270.988" spreadMethod="pad"><stop offset="0%" stop-color="#D9D7EB"/><stop offset="100%" stop-color="#EDECF6"/></linearGradient><linearGradient id="C" gradientUnits="userSpaceOnUse" x1="475.3" y1="235.7" x2="465.7" y2="237.4" spreadMethod="pad"><stop offset="0%" stop-color="#E6E4F2"/><stop offset="100%" stop-color="#E0DFEF"/></linearGradient><linearGradient id="D" gradientUnits="userSpaceOnUse" x1="494.587" y1="235.788" x2="504.212" y2="237.313" spreadMethod="pad"><stop offset="0%" stop-color="#E6E4F2"/><stop offset="100%" stop-color="#E0DFEF"/></linearGradient><linearGradient id="E" gradientUnits="userSpaceOnUse" x1="443.788" y1="342.813" x2="450.813" y2="368.987" spreadMethod="pad"><stop offset="0%" stop-color="#D2CFE7"/><stop offset="100%" stop-color="#9A94C6"/></linearGradient><linearGradient id="F" gradientUnits="userSpaceOnUse" x1="445.113" y1="350.025" x2="450.387" y2="363.775" spreadMethod="pad"><stop offset="0%" stop-color="#FCE9F1"/><stop offset="100%" stop-color="#EAA5C8"/></linearGradient><linearGradient id="G" gradientUnits="userSpaceOnUse" x1="434.613" y1="345.425" x2="439.088" y2="350.775" spreadMethod="pad"><stop offset="0%" stop-color="#FCE9F1"/><stop offset="100%" stop-color="#EEBAD5"/></linearGradient><linearGradient id="H" gradientUnits="userSpaceOnUse" x1="441.425" y1="340.563" x2="443.575" y2="346.138" spreadMethod="pad"><stop offset="0%" stop-color="#FCE9F1"/><stop offset="100%" stop-color="#EEBAD5"/></linearGradient><linearGradient id="I" gradientUnits="userSpaceOnUse" x1="448.875" y1="340.788" x2="451.025" y2="346.413" spreadMethod="pad"><stop offset="0%" stop-color="#FCE9F1"/><stop offset="100%" stop-color="#EEBAD5"/></linearGradient><linearGradient id="J" gradientUnits="userSpaceOnUse" x1="449.35" y1="350.275" x2="440.45" y2="354.825" spreadMethod="pad"><stop offset="0%" stop-color="#FFF"/><stop offset="100%" stop-color="#FCE9F1"/></linearGradient><linearGradient id="K" gradientUnits="userSpaceOnUse" x1="527.275" y1="341.1" x2="517.925" y2="369.9" spreadMethod="pad"><stop offset="0%" stop-color="#D2CFE7"/><stop offset="100%" stop-color="#9A94C6"/></linearGradient><linearGradient id="L" gradientUnits="userSpaceOnUse" x1="524.713" y1="349.987" x2="519.688" y2="363.813" spreadMethod="pad"><stop offset="0%" stop-color="#FCE9F1"/><stop offset="100%" stop-color="#EAA5C8"/></linearGradient><linearGradient id="M" gradientUnits="userSpaceOnUse" x1="535.3" y1="345.388" x2="530.9" y2="350.813" spreadMethod="pad"><stop offset="0%" stop-color="#FCE9F1"/><stop offset="100%" stop-color="#EEBAD5"/></linearGradient><linearGradient id="N" gradientUnits="userSpaceOnUse" x1="528.475" y1="340.538" x2="526.425" y2="346.163" spreadMethod="pad"><stop offset="0%" stop-color="#FCE9F1"/><stop offset="100%" stop-color="#EEBAD5"/></linearGradient><linearGradient id="O" gradientUnits="userSpaceOnUse" x1="521.075" y1="340.775" x2="519.025" y2="346.425" spreadMethod="pad"><stop offset="0%" stop-color="#FCE9F1"/><stop offset="100%" stop-color="#EEBAD5"/></linearGradient><linearGradient id="P" gradientUnits="userSpaceOnUse" x1="520.6" y1="350.262" x2="529.6" y2="354.637" spreadMethod="pad"><stop offset="0%" stop-color="#FFF"/><stop offset="100%" stop-color="#FCE9F1"/></linearGradient><path fill="#FFF" fill-opacity="0" d="M284 0H0v320h284V0z" id="Q"/><path fill="#CAC8E3" d="M484.95 328q-19.3 0-33 6.7-13.7 6.65-13.7 16t13.7 15.95q13.7 6.65 33 6.65 19.35 0 33.1-6.65 13.7-6.6 13.7-15.95t-13.7-16q-13.75-6.7-33.1-6.7z" id="R"/><path fill="url(#a)" d="M437.15 210.75l-3 18.6q-.75 4.75 4.55 11.8 4.7 6.3 9.05 8.45l11-20.25-21.6-18.6z" id="S"/><path fill="url(#b)" d="M450.4 246.3l11-20.3-21.6-18.6-3 18.6q-.75 4.75 4.55 11.85 4.75 6.3 9.05 8.45z" id="T"/><path fill="#BAB7DA" d="M452.7 232.45l8.85-4.5q-13.5-20.95-26.65-23l-.25.3 2 21.25q1.3-5.2 1.3-10.8 4.75 1.55 8.9 6.35 3.9 4.6 5.85 10.4z" id="U"/><path fill="url(#c)" d="M455.35 231.05l8.9-4.75q-16.3-26.1-31.6-23.9-13.55 1.95-20.9 23.8-3.7 10.95-4.25 28.25-.25 7.05 1 8.25 1.25 1.1 5.2-1.95 12.25-9.35 18.85-19.8 8-12.7 8-27.35 4.8 1.65 8.95 6.65 3.9 4.75 5.85 10.8z" id="V"/><path fill="url(#d)" d="M435.35 206.9q-2.3 16.4-10.45 30.7-4.377 7.758-13.2 18.35.479-.404 3.3-2.55 5.25-4 9.2-8.65 13.6-16.05 11.15-37.85z" id="W"/><path fill="url(#e)" d="M535.85 229.35l-3-18.6-21.7 18.6 11.05 20.25q4.35-2.15 9.1-8.45 5.3-7.05 4.55-11.8z" id="X"/><path fill="url(#f)" d="M533.2 226l-3-18.6-21.6 18.6 10.9 20.3q4.4-2.15 9.15-8.45 5.3-7.05 4.55-11.85z" id="Y"/><path fill="#BAB7DA" d="M531.7 215.7q0 5.7 1.2 10.8l2.05-21.25-.3-.3q-13.05 2.05-26.65 23l8.85 4.5q2-5.85 5.9-10.4 4.15-4.85 8.95-6.35z" id="Z"/><path fill="url(#g)" d="M529.45 213.6q0 14.65 8 27.35 6.6 10.4 18.8 19.8 4 3.05 5.2 1.95 1.3-1.2 1.05-8.25-.3-8.35-1.1-14.35-1.05-7.7-3.2-13.9-7.4-21.85-20.9-23.8-15.25-2.2-31.55 23.9l8.9 4.75q1.95-6.05 5.85-10.8 4.15-5 8.95-6.65z" id="aa"/><path fill="url(#h)" d="M545.1 237.6q-8.15-14.3-10.45-30.7-2.45 21.8 11.15 37.85 3.95 4.65 9.2 8.65 2.818 2.143 3.3 2.55-8.824-10.592-13.2-18.35z" id="ab"/><path fill="url(#i)" d="M484.95 216.2q-16.55 0-27.1 8-11.4 8.65-13.85 25.25-1.55 10.9 1.4 20.9 3.2 10.7 10.55 16.5 5.7 4.45 13.45 6.85 7.45 2.25 15.55 2.35 8.2-.1 15.6-2.35 7.8-2.4 13.5-6.85 7.35-5.8 10.55-16.5 2.95-10 1.4-20.9-2.45-16.6-13.85-25.25-10.6-8-27.2-8z" id="ac"/><path fill="#A7A2CF" d="M502.05 239.9q-3.4 0-6.1 1.9-2.65 1.85-3.65 4.8-.75 2.45 1.3 3 .95.25 1.8-.2.95-.55 1.25-1.9h10.8q.3 1.3 1.2 1.9.8.45 1.75.2 2.2-.6 1.35-3-1-2.95-3.65-4.8-2.7-1.9-6.05-1.9z" id="ad"/><path fill="#A7A2CF" d="M467.95 239.9h-.05q-3.3 0-6 1.9-2.65 1.85-3.65 4.8-.85 2.4 1.3 3 .95.25 1.8-.2.9-.55 1.2-1.9h10.8q.3 1.3 1.25 1.9.8.45 1.7.2 2.15-.55 1.4-3-1.05-2.95-3.7-4.8-2.7-1.9-6.05-1.9z" id="ae"/><path fill="url(#j)" d="M474.3 261.7q-5.15 3.75-5.25 10.1-.25 6.1 3.95 9.65 3.9 3.25 12 3.25t12-3.25q4.2-3.55 3.95-9.65-.25-6.45-5.25-10.1-4.7-3.3-10.7-3.3-6 0-10.7 3.3z" id="af"/><path fill="#EEBAD5" d="M481.95 273.85q-.15.6-.15 1.25 0 1.5.95 2.65.95 1.1 2.2 1.1 1.35 0 2.3-1.1.95-1.15.95-2.65 0-.65-.15-1.25h-6.1z" id="ag"/><path fill="#E691BC" d="M485.85 266.4q0-.3-.25-.55-.2-.25-.5-.25t-.55.25q-.25.2-.25.55v6.95q0 .75.8.75.3 0 .5-.2.25-.25.25-.55v-6.95z" id="ah"/><path fill="#E691BC" d="M476.85 269.65q-.1.35.1.55.95 1.6 2.7 2.65l.7.45q2.2 1.15 4.6 1.15 3.7 0 6.4-2.3.8-.75.9-.95l.8-1q.15-.25.1-.55-.1-.3-.35-.45-.65-.45-1 .2l-1.45 1.6q-2.45 1.95-5.4 1.95-1.95 0-3.95-1.05l-.5-.25q-1.5-1.05-2.3-2.25-.15-.25-.45-.3-.3-.1-.55.1-.25.15-.35.45z" id="ai"/><path fill="url(#k)" d="M470.9 235q5.85 2.65 14.05 2.65 8.2 0 14.1-2.65 5.85-2.6 5.85-6.25 0-3.75-5.85-6.35-5.85-2.65-14.1-2.65-8.2 0-14.05 2.65-5.8 2.6-5.8 6.35 0 3.65 5.8 6.25z" id="aj"/><path fill="url(#l)" d="M484.95 285.05q-2.9-5.1-7.75-8.8-4.6-3.5-10.4-5.35-16.55-5.25-30.25 2.9-13.9 8.3-16.15 25.5-1.75 13.3 6.15 26.85 6.3 10.75 17.25 19.6 4.7 3.8 12.8 9.05 9 5.85 12 8.1 12.85 9.6 16.35 22.35 3.5-12.75 16.35-22.35 3.05-2.3 12.05-8.1 8.15-5.25 12.85-9.05 10.95-8.85 17.25-19.6 7.9-13.55 6.15-26.85-2.3-17.2-16.2-25.5-13.65-8.15-30.2-2.9-5.8 1.85-10.4 5.35-4.9 3.7-7.85 8.8m-1.8 6.45l1.8 5.4 1.9-5.4q.65-1.9 1.5-3.35 2.5-4.75 6.8-8.15 4.1-3.2 9.4-4.9 14.55-4.7 26.6 2.6 12.25 7.4 14.2 22.65 2.25 17.2-8.85 31.7-6.65 8.7-25.05 22.8-13.7 10.55-14.65 11.4-8.4 7.15-11.85 13.75-3.4-6.6-11.75-13.75-1.05-.9-14.65-11.4-18.4-14.1-25.05-22.8-11.1-14.5-8.85-31.7 1.95-15.25 14.2-22.65 12.05-7.3 26.6-2.6 5.3 1.7 9.4 4.9 4.3 3.4 6.8 8.15.85 1.45 1.5 3.35z" id="ak"/><path fill="url(#m)" d="M485.25 290.8q-4.6-13.3-19.55-17.9-14.3-4.4-26.65 2.1-14.7 7.75-16.7 25.9-1.9 17.1 8.05 30.8 5.8 7.9 16.6 16.85 6.15 5.15 18.65 14.75 9.35 7.6 11.7 10 5.65 5.85 7.9 13.05 2.25-7.2 7.9-13.05 2.25-2.35 11.7-10 5.95-4.85 18.6-14.75 10.85-8.95 16.6-16.85 9.95-13.7 8.05-30.8-2-18.15-16.7-25.9-12.35-6.5-26.65-2.1-14.9 4.6-19.5 17.9z" id="al"/><path fill="url(#n)" d="M435.3 283.3q-5.25 4.95-6.85 12.15-1.75 7.95 1.2 17.65 4 13.1 20.5 21.4 15.35 7.7 35.1 8.35 19.7-.65 35-8.35 16.5-8.3 20.5-21.4 3-9.7 1.25-17.65-1.6-7.2-6.85-12.15-5.3-4.95-13-6.5-7.6-1.55-15.15.6-7.95 2.35-13.55 8.2-6.15 6.45-8.2 16.05-2.05-9.6-8.2-16.05-5.6-5.85-13.55-8.2-7.6-2.15-15.2-.6-7.7 1.55-13 6.5z" id="am"/><path fill="url(#o)" d="M478.4 293.15q-5.35-8.95-13.85-12.2-8.95-3.35-18.9.7-10.25 4.1-13.1 14.7-2.6 9.8 2.1 19.4-3.7-9.9.2-18.55 3.5-7.75 11.8-11.85 8.2-4 16.75-2.3 9.3 1.9 15 10.1z" id="an"/><path fill="url(#p)" d="M464.9 356.05q6.569 5.206 10.6 9.05 6 5.8 9.75 11.65 3.7-5.9 9.7-11.65 4.35-4.15 11.55-9.75-21.42 15.601-41.6.7z" id="ao"/><path fill="url(#q)" d="M440.95 272.5q-4.95-4.45-11.6-2.55-6.2 1.75-10.25 7.65-3.25 4.7-3.4 10-.2 5.8 3.65 9.15 4.45 4 10.45 2.5 5.35-1.35 9.7-6.35 4.35-4.95 5.05-10.45.8-6.1-3.6-9.95z" id="ap"/><path fill="url(#r)" d="M438.9 274.35q-2.65-2.35-6.05-2.35-3.1.05-6.35 2 5.45-1.3 9.8 2.4 2.9 2.45 3.7 5.95.8 3.4-.7 6.4l.4-.5q2.65-3 2.45-7.1-.25-4.1-3.25-6.8z" id="aq"/><path fill="#363435" d="M513.85 246.55q1.05-2.3 0-5.15.25 3.55-2.05 4.95-2 1.3-4.25.25l1.6 3.35q3.5-.8 4.7-3.4z" id="ar"/><path fill="#363435" d="M511.9 244.9q1-2.2-.45-4.35.9 2.95-1 4.25-1.75 1.2-3.9.1l1.4 2.9q2.9-.6 3.95-2.9z" id="as"/><path fill="#FFF" d="M502.05 242.55q-3.25 0-5.55 2.25-2.25 2.25-2.25 5.5t2.25 5.55q2.3 2.25 5.55 2.25t5.5-2.25q2.25-2.3 2.25-5.55 0-3.2-2.25-5.5-2.25-2.25-5.5-2.25z" id="at"/><path fill="url(#s)" d="M502.05 244.35q-2.5 0-4.25 1.75-1.75 1.7-1.75 4.2t1.75 4.25q1.75 1.75 4.25 1.75t4.2-1.75q1.75-1.75 1.75-4.25 0-2.45-1.75-4.2-1.7-1.75-4.2-1.75z" id="au"/><path fill="url(#t)" d="M502.05 255.65q2.35 0 4-1.8.8-1 .15-1.65-.75-.65-1.6.3-.8 1.2-2.55 1.2-1.7 0-2.7-1.2-.75-1.05-1.5-.3-.65.65.15 1.65 1.65 1.8 4.05 1.8z" id="av"/><path fill="#363435" d="M500.1 252.25q.8.8 1.95.8t1.9-.8q.8-.8.8-1.95 0-1.1-.8-1.9-.75-.8-1.9-.8t-1.95.8q-.8.75-.8 1.9t.8 1.95z" id="aw"/><path fill="#FFF" d="M504.25 251.3q.25.25.6.25.85 0 .85-.85 0-.35-.25-.6-.25-.3-.6-.3t-.6.3q-.3.25-.3.6t.3.6z" id="ax"/><path fill="#FFF" d="M499.6 246.6q-.7 0-1.25.5-.5.5-.5 1.2t.5 1.2q.55.45 1.25.45t1.15-.45q.5-.5.5-1.2t-.5-1.2q-.45-.5-1.15-.5z" id="ay"/><path fill="#363435" d="M456.15 241.4q-1.05 2.85.05 5.15 1.2 2.6 4.65 3.4l1.6-3.35q-2.25 1.05-4.25-.25-2.3-1.4-2.05-4.95z" id="az"/><path fill="#363435" d="M458.55 240.55q-1.45 2.15-.45 4.35 1.05 2.25 3.9 2.9l1.45-2.9q-2.15 1.1-3.85-.1-1.9-1.3-1.05-4.25z" id="aA"/><path fill="#FFF" d="M467.95 242.55q-3.2 0-5.5 2.25-2.25 2.3-2.25 5.5 0 3.25 2.25 5.55 2.25 2.25 5.5 2.25 3.2 0 5.5-2.25 2.3-2.3 2.3-5.55 0-3.2-2.3-5.5-2.3-2.25-5.5-2.25z" id="aB"/><path fill="url(#u)" d="M467.95 244.35q-2.45 0-4.2 1.75t-1.75 4.2q0 2.5 1.75 4.25 1.7 1.75 4.2 1.75t4.25-1.75q1.75-1.75 1.75-4.25t-1.75-4.2q-1.75-1.75-4.25-1.75z" id="aC"/><path fill="url(#v)" d="M463.95 253.85q1.65 1.8 4 1.8 2.4 0 4.05-1.8.8-1 .15-1.65-.75-.65-1.6.3-.8 1.2-2.6 1.2-1.65 0-2.65-1.2-.7-.95-1.5-.3-.65.65.15 1.65z" id="aD"/><path fill="#363435" d="M466.05 252.25q.75.8 1.9.8t1.95-.8q.8-.8.8-1.95t-.8-1.9q-.8-.8-1.95-.8-1.1 0-1.9.8-.8.8-.8 1.9 0 1.15.8 1.95z" id="aE"/><path fill="#FFF" d="M470 251.3q.25.25.55.25.9 0 .9-.85 0-.35-.25-.6-.3-.3-.65-.3-.3 0-.55.3-.3.25-.3.6t.3.6z" id="aF"/><path fill="#FFF" d="M465.5 246.6q-.7 0-1.15.5-.5.5-.5 1.2t.5 1.2q.45.45 1.15.45.8 0 1.25-.45.5-.5.5-1.2t-.5-1.2q-.45-.5-1.25-.5z" id="aG"/><path fill="url(#w)" d="M485.1 261.05q-3.05 0-4.75.45-1.3.35-1.6 1.35-.3 1 .45 2.1.8 1.3 2.4 2.8 1.45 1.35 3 2.3.4.25.5.25.1 0 .45-.25 1.55-.95 3-2.3 1.6-1.5 2.4-2.8.75-1.1.45-2.1t-1.6-1.35q-1.7-.45-4.7-.45z" id="aH"/><path fill="url(#x)" d="M485.1 261.95q-2.3 0-3.6.35-1 .25-1.2 1-.25.75.35 1.55 1.15 2 4.05 3.9.3.25.4.25.05 0 .35-.25 2.9-1.9 4.05-3.9.55-.8.35-1.55-.2-.75-1.2-1-1.3-.35-3.55-.35z" id="aI"/><path fill="url(#y)" d="M482.35 262.8q-1.25.1-1.35.55-.25.65.65 1.1.7.25 1.7.15.95-.05 1.35-.45.5-.4.2-1-.3-.65-2.55-.35z" id="aJ"/><path fill="url(#z)" d="M484.55 267.9q.4.35.85 0 3.35-2.35 3.65-4.45-.9 1.45-4.15 3.65-.8.5-.35.8z" id="aK"/><path fill="url(#A)" d="M540.6 269.95q-6.7-1.9-11.65 2.55-4.35 3.85-3.55 9.95.7 5.5 5.1 10.45 4.35 5 9.7 6.35 6 1.5 10.45-2.5 3.8-3.4 3.6-9.15-.15-5.3-3.35-10-4.1-5.9-10.3-7.65z" id="aL"/><path fill="url(#B)" d="M537.15 272q-3.4 0-6.05 2.35-3.05 2.7-3.3 6.8t2.45 7.1l.45.5q-1.5-3-.7-6.4.8-3.5 3.65-5.95 4.3-3.75 9.85-2.4-3.25-1.95-6.35-2z" id="aM"/><path fill="url(#C)" d="M470.55 233.5q-2.25.2-3.85 1.25-1.6 1-1.6 2.25 0 1.3 1.6 2.05 1.6.8 3.85.55 2.3-.2 3.9-1.25t1.6-2.3q0-1.25-1.6-2t-3.9-.55z" id="aN"/><path fill="url(#D)" d="M503.3 234.75q-1.6-1.05-3.85-1.25-2.3-.2-3.9.55t-1.6 2q0 1.25 1.6 2.3 1.6 1.05 3.9 1.25 2.25.25 3.85-.55 1.6-.75 1.6-2.05 0-1.25-1.6-2.25z" id="aO"/><path fill="#8D87BF" d="M455.1 338.25q-3.05-3.45-7.2-4.7-7.45-2.3-13.6 1.9-6 4.05-6.5 11.05-.45 5.85 2.25 12.35 2.25 5.4 7.5 9 5.6 3.9 11.2 3 7.2-1.1 10.6-6.9 3.75-6.45.85-16.15-1.8-5.85-5.1-9.55z" id="aP"/><path fill="url(#E)" d="M442.05 336.7q-5.85 1.45-8.75 6.4-3.3 5.5-1.2 12.9 2.3 8.35 8.1 12.15 5.2 3.4 11 2 5.75-1.4 8.55-6.8 3.15-5.95.95-14.25-2-7.55-7.7-10.85-5.1-3-10.95-1.55z" id="aQ"/><path fill="#807AB7" d="M440.4 358.6q1.15 3.9 4.1 5.7 2.6 1.65 5.5 1 2.9-.65 4.25-3.15 1.55-2.8.35-6.7-1.2-3.9-4.15-5.7-2.6-1.6-5.5-.95-2.9.65-4.25 3.15-1.5 2.75-.3 6.65z" id="aR"/><path fill="#9A94C6" d="M434.25 350.05q1.7 3.05 4.4 1.95 2.7-1.15 1.05-4.2-1.7-3.05-4.4-1.95-2.7 1.15-1.05 4.2z" id="aS"/><path fill="#9A94C6" d="M445.35 343.5q-.6-3.4-3.5-3.2-2.9.2-2.3 3.6.55 3.4 3.5 3.25 2.9-.2 2.3-3.65z" id="aT"/><path fill="#9A94C6" d="M449.4 340.4q-2.9.65-2.45 4.1.4 3.45 3.25 2.8 2.85-.65 2.45-4.1-.35-3.45-3.25-2.8z" id="aU"/><path fill="url(#F)" d="M440.45 357.75q1.2 3.85 4.05 5.6 2.6 1.6 5.45.95 2.85-.65 4.2-3.1 1.5-2.75.35-6.6-1.15-3.85-4.05-5.65-2.6-1.6-5.45-.95-2.85.65-4.2 3.15-1.5 2.75-.35 6.6z" id="aV"/><path fill="url(#G)" d="M434.2 349.3q1.7 3.05 4.4 1.95 2.7-1.15 1-4.25-1.7-3-4.4-1.9-2.7 1.15-1 4.2z" id="aW"/><path fill="url(#H)" d="M439.45 343.2q.6 3.45 3.55 3.25 2.9-.2 2.3-3.7-.6-3.4-3.5-3.2-2.95.2-2.35 3.65z" id="aX"/><path fill="url(#I)" d="M449.35 339.7q-2.85.6-2.45 4.1.4 3.45 3.25 2.8 2.9-.65 2.5-4.1-.45-3.45-3.3-2.8z" id="aY"/><path fill="url(#J)" d="M440.95 356.65q.2-4.1 4.1-5.65 3.8-1.5 7.2.75-3.3-3.75-7.6-2.05-4.35 1.65-3.7 6.95z" id="aZ"/><path fill="#B0ABD4" d="M430.6 344.3q1.7-5.65 8.15-8.15 6.35-2.45 11.5.15-5.3-3.65-11.9-1.25-6.8 2.5-7.75 9.25z" id="ba"/><path fill="#8D87BF" d="M522.1 333.55q-4.1 1.25-7.2 4.7-3.3 3.7-5.1 9.55-2.95 9.7.85 16.15 3.4 5.8 10.55 6.9 5.6.9 11.25-3 5.25-3.6 7.5-9 2.7-6.75 2.25-12.35-.5-7-6.5-11.05-6.15-4.15-13.6-1.9z" id="bb"/><path fill="url(#K)" d="M536.65 343.1q-2.95-4.95-8.75-6.4-5.85-1.45-10.95 1.55-5.65 3.3-7.65 10.85-2.2 8.3.95 14.25 2.8 5.4 8.55 6.8 5.8 1.4 11-2 5.8-3.8 8.1-12.15 2.05-7.4-1.25-12.9z" id="bc"/><path fill="#807AB7" d="M519.95 365.3q2.9.65 5.55-1 2.9-1.8 4.1-5.7 1.2-3.9-.3-6.65-1.35-2.5-4.25-3.15-2.9-.65-5.5.95-2.95 1.8-4.15 5.7-1.2 3.9.35 6.7 1.35 2.5 4.2 3.15z" id="bd"/><path fill="#9A94C6" d="M531.35 352q2.7 1.1 4.35-1.95 1.7-3.05-1-4.2-2.7-1.1-4.4 1.95-1.65 3.05 1.05 4.2z" id="be"/><path fill="#9A94C6" d="M530.45 343.9q.6-3.4-2.3-3.6-2.9-.2-3.5 3.2-.6 3.45 2.3 3.65 2.95.15 3.5-3.25z" id="bf"/><path fill="#9A94C6" d="M523.05 344.5q.4-3.45-2.5-4.1-2.85-.65-3.25 2.8-.35 3.45 2.5 4.1 2.85.65 3.25-2.8z" id="bg"/><path fill="url(#L)" d="M520 364.3q2.85.65 5.4-.95 2.9-1.75 4.05-5.6 1.15-3.85-.3-6.6-1.35-2.5-4.2-3.15-2.85-.6-5.4.95-2.9 1.8-4.05 5.65-1.15 3.85.3 6.6 1.35 2.45 4.2 3.1z" id="bh"/><path fill="url(#M)" d="M531.4 351.25q2.65 1.1 4.3-1.95 1.7-3.05-1-4.2-2.7-1.1-4.3 1.9-1.7 3.1 1 4.25z" id="bi"/><path fill="url(#N)" d="M526.95 346.45q2.95.2 3.5-3.25.65-3.45-2.25-3.65-2.9-.2-3.55 3.2-.6 3.5 2.3 3.7z" id="bj"/><path fill="url(#O)" d="M523.05 343.8q.45-3.5-2.4-4.1-2.85-.65-3.3 2.8-.4 3.45 2.45 4.1 2.9.65 3.25-2.8z" id="bk"/><path fill="url(#P)" d="M517.7 351.75q3.45-2.25 7.25-.75 3.9 1.55 4.1 5.65.65-5.3-3.7-6.95-4.3-1.7-7.65 2.05z" id="bl"/><path fill="#B0ABD4" d="M531.25 336.15q6.45 2.5 8.15 8.15-1-6.75-7.75-9.25-6.6-2.4-11.9 1.25 5.15-2.6 11.5-.15z" id="bm"/></defs><use xlink:href="#Q"/><use xlink:href="#R" transform="matrix(1.36899 0 0 1.36899 -521.894 -214.828)"/><use xlink:href="#S" transform="matrix(1.36899 0 0 1.36899 -521.894 -214.828)"/><use xlink:href="#T" transform="matrix(1.36899 0 0 1.36899 -521.894 -214.828)"/><use xlink:href="#U" transform="matrix(1.36899 0 0 1.36899 -521.894 -214.828)"/><use xlink:href="#V" transform="matrix(1.36899 0 0 1.36899 -521.894 -214.828)"/><use xlink:href="#W" transform="matrix(1.36899 0 0 1.36899 -521.894 -214.828)"/><use xlink:href="#X" transform="matrix(1.36899 0 0 1.36899 -521.894 -214.828)"/><use xlink:href="#Y" transform="matrix(1.36899 0 0 1.36899 -521.894 -214.828)"/><use xlink:href="#Z" transform="matrix(1.36899 0 0 1.36899 -521.894 -214.828)"/><use xlink:href="#aa" transform="matrix(1.36899 0 0 1.36899 -521.894 -214.828)"/><use xlink:href="#ab" transform="matrix(1.36899 0 0 1.36899 -521.894 -214.828)"/><use xlink:href="#ac" transform="matrix(1.36899 0 0 1.36899 -521.894 -214.828)"/><use xlink:href="#ad" transform="matrix(1.36899 0 0 1.36899 -521.894 -214.828)"/><use xlink:href="#ae" transform="matrix(1.36899 0 0 1.36899 -521.894 -214.828)"/><use xlink:href="#af" transform="matrix(1.36899 0 0 1.36899 -521.894 -214.828)"/><use xlink:href="#ag" transform="matrix(1.36899 0 0 1.36899 -521.894 -214.828)"/><use xlink:href="#ah" transform="matrix(1.36899 0 0 1.36899 -521.894 -214.828)"/><use xlink:href="#ai" transform="matrix(1.36899 0 0 1.36899 -521.894 -214.828)"/><use xlink:href="#aj" transform="matrix(1.36899 0 0 1.36899 -521.894 -214.828)"/><use xlink:href="#ak" transform="matrix(1.36899 0 0 1.36899 -521.894 -214.828)"/><use xlink:href="#al" transform="matrix(1.36899 0 0 1.36899 -521.894 -214.828)"/><use xlink:href="#am" transform="matrix(1.36899 0 0 1.36899 -521.894 -214.828)"/><use xlink:href="#an" transform="matrix(1.36899 0 0 1.36899 -521.894 -214.828)"/><use xlink:href="#ao" transform="matrix(1.36899 0 0 1.36899 -521.894 -214.828)"/><use xlink:href="#ap" transform="matrix(1.36899 0 0 1.36899 -521.894 -214.828)"/><use xlink:href="#aq" transform="matrix(1.36899 0 0 1.36899 -521.894 -214.828)"/><use xlink:href="#ar" transform="matrix(1.36899 0 0 1.36899 -521.894 -214.828)"/><use xlink:href="#as" transform="matrix(1.36899 0 0 1.36899 -521.894 -214.828)"/><use xlink:href="#at" transform="matrix(1.36899 0 0 1.36899 -521.894 -214.828)"/><use xlink:href="#au" transform="matrix(1.36899 0 0 1.36899 -521.894 -214.828)"/><use xlink:href="#av" transform="matrix(1.36899 0 0 1.36899 -521.894 -214.828)"/><use xlink:href="#aw" transform="matrix(1.36899 0 0 1.36899 -521.894 -214.828)"/><use xlink:href="#ax" transform="matrix(1.36899 0 0 1.36899 -521.894 -214.828)"/><use xlink:href="#ay" transform="matrix(1.36899 0 0 1.36899 -521.894 -214.828)"/><use xlink:href="#az" transform="matrix(1.36899 0 0 1.36899 -521.894 -214.828)"/><use xlink:href="#aA" transform="matrix(1.36899 0 0 1.36899 -521.894 -214.828)"/><use xlink:href="#aB" transform="matrix(1.36899 0 0 1.36899 -521.894 -214.828)"/><use xlink:href="#aC" transform="matrix(1.36899 0 0 1.36899 -521.894 -214.828)"/><use xlink:href="#aD" transform="matrix(1.36899 0 0 1.36899 -521.894 -214.828)"/><use xlink:href="#aE" transform="matrix(1.36899 0 0 1.36899 -521.894 -214.828)"/><use xlink:href="#aF" transform="matrix(1.36899 0 0 1.36899 -521.894 -214.828)"/><use xlink:href="#aG" transform="matrix(1.36899 0 0 1.36899 -521.894 -214.828)"/><use xlink:href="#aH" transform="matrix(1.36899 0 0 1.36899 -521.894 -214.828)"/><use xlink:href="#aI" transform="matrix(1.36899 0 0 1.36899 -521.894 -214.828)"/><use xlink:href="#aJ" transform="matrix(1.36899 0 0 1.36899 -521.894 -214.828)"/><use xlink:href="#aK" transform="matrix(1.36899 0 0 1.36899 -521.894 -214.828)"/><use xlink:href="#aL" transform="matrix(1.36899 0 0 1.36899 -521.894 -214.828)"/><use xlink:href="#aM" transform="matrix(1.36899 0 0 1.36899 -521.894 -214.828)"/><use xlink:href="#aN" transform="matrix(1.36899 0 0 1.36899 -521.894 -214.828)"/><use xlink:href="#aO" transform="matrix(1.36899 0 0 1.36899 -521.894 -214.828)"/><use xlink:href="#aP" transform="matrix(1.36899 0 0 1.36899 -521.894 -214.828)"/><use xlink:href="#aQ" transform="matrix(1.36899 0 0 1.36899 -521.894 -214.828)"/><use xlink:href="#aR" transform="matrix(1.36899 0 0 1.36899 -521.894 -214.828)"/><use xlink:href="#aS" transform="matrix(1.36899 0 0 1.36899 -521.894 -214.828)"/><use xlink:href="#aT" transform="matrix(1.36899 0 0 1.36899 -521.894 -214.828)"/><use xlink:href="#aU" transform="matrix(1.36899 0 0 1.36899 -521.894 -214.828)"/><use xlink:href="#aV" transform="matrix(1.36899 0 0 1.36899 -521.894 -214.828)"/><use xlink:href="#aW" transform="matrix(1.36899 0 0 1.36899 -521.894 -214.828)"/><use xlink:href="#aX" transform="matrix(1.36899 0 0 1.36899 -521.894 -214.828)"/><use xlink:href="#aY" transform="matrix(1.36899 0 0 1.36899 -521.894 -214.828)"/><use xlink:href="#aZ" transform="matrix(1.36899 0 0 1.36899 -521.894 -214.828)"/><use xlink:href="#ba" transform="matrix(1.36899 0 0 1.36899 -521.894 -214.828)"/><use xlink:href="#bb" transform="matrix(1.36899 0 0 1.36899 -521.894 -214.828)"/><use xlink:href="#bc" transform="matrix(1.36899 0 0 1.36899 -521.894 -214.828)"/><use xlink:href="#bd" transform="matrix(1.36899 0 0 1.36899 -521.894 -214.828)"/><use xlink:href="#be" transform="matrix(1.36899 0 0 1.36899 -521.894 -214.828)"/><use xlink:href="#bf" transform="matrix(1.36899 0 0 1.36899 -521.894 -214.828)"/><use xlink:href="#bg" transform="matrix(1.36899 0 0 1.36899 -521.894 -214.828)"/><use xlink:href="#bh" transform="matrix(1.36899 0 0 1.36899 -521.894 -214.828)"/><use xlink:href="#bi" transform="matrix(1.36899 0 0 1.36899 -521.894 -214.828)"/><use xlink:href="#bj" transform="matrix(1.36899 0 0 1.36899 -521.894 -214.828)"/><use xlink:href="#bk" transform="matrix(1.36899 0 0 1.36899 -521.894 -214.828)"/><use xlink:href="#bl" transform="matrix(1.36899 0 0 1.36899 -521.894 -214.828)"/><use xlink:href="#bm" transform="matrix(1.36899 0 0 1.36899 -521.894 -214.828)"/></svg>