<svg xmlns="http://www.w3.org/2000/svg" xmlns:xlink="http://www.w3.org/1999/xlink" preserveAspectRatio="none" width="284" height="320"><defs><linearGradient id="a" gradientUnits="userSpaceOnUse" x1="794.1" y1="293.538" x2="794.1" y2="337.063" spreadMethod="pad"><stop offset="0%" stop-color="#CEB4AE"/><stop offset="100%" stop-color="#AE857D"/></linearGradient><linearGradient id="b" gradientUnits="userSpaceOnUse" x1="795.763" y1="315.188" x2="774.237" y2="288.612" spreadMethod="pad"><stop offset="0%" stop-color="#F2CFE2"/><stop offset="100%" stop-color="#FFF"/></linearGradient><linearGradient id="c" gradientUnits="userSpaceOnUse" x1="903.2" y1="293.538" x2="903.2" y2="337.063" spreadMethod="pad"><stop offset="0%" stop-color="#CEB4AE"/><stop offset="100%" stop-color="#AE857D"/></linearGradient><linearGradient id="d" gradientUnits="userSpaceOnUse" x1="901.375" y1="315.325" x2="923.325" y2="289.175" spreadMethod="pad"><stop offset="0%" stop-color="#F2CFE2"/><stop offset="100%" stop-color="#FFF"/></linearGradient><linearGradient id="e" gradientUnits="userSpaceOnUse" x1="848.65" y1="351.512" x2="848.65" y2="315.287" spreadMethod="pad"><stop offset="0%" stop-color="#AB827A"/><stop offset="100%" stop-color="#D0B9B3"/></linearGradient><linearGradient id="f" gradientUnits="userSpaceOnUse" x1="848.5" y1="376.513" x2="848.5" y2="382.188" spreadMethod="pad"><stop offset="0%" stop-color="#C7ABA3"/><stop offset="100%" stop-color="#A97E75"/></linearGradient><linearGradient id="g" gradientUnits="userSpaceOnUse" x1="848.65" y1="324.513" x2="848.65" y2="297.688" spreadMethod="pad"><stop offset="0%" stop-color="#C7ABA3"/><stop offset="100%" stop-color="#E6E2E1"/></linearGradient><linearGradient id="h" gradientUnits="userSpaceOnUse" x1="848.65" y1="338.55" x2="848.65" y2="351.35" spreadMethod="pad"><stop offset="0%" stop-color="#925F59"/><stop offset="100%" stop-color="#6D3233"/></linearGradient><linearGradient id="i" gradientUnits="userSpaceOnUse" x1="848.65" y1="359.613" x2="848.65" y2="368.387" spreadMethod="pad"><stop offset="0%" stop-color="#532729"/><stop offset="100%" stop-color="#502628"/></linearGradient><linearGradient id="j" gradientUnits="userSpaceOnUse" x1="848.65" y1="365.713" x2="848.65" y2="359.488" spreadMethod="pad"><stop offset="0%" stop-color="#602A2D"/><stop offset="100%" stop-color="#97665E"/></linearGradient><linearGradient id="k" gradientUnits="userSpaceOnUse" x1="853.663" y1="362.8" x2="849.238" y2="365.9" spreadMethod="pad"><stop offset="0%" stop-color="#9D7068"/><stop offset="100%" stop-color="#773E3C"/></linearGradient><linearGradient id="l" gradientUnits="userSpaceOnUse" x1="819.35" y1="345.538" x2="819.35" y2="327.563" spreadMethod="pad"><stop offset="0%" stop-color="#C1A29B"/><stop offset="100%" stop-color="#E0D3CF"/></linearGradient><linearGradient id="m" gradientUnits="userSpaceOnUse" x1="877.9" y1="345.538" x2="877.9" y2="327.563" spreadMethod="pad"><stop offset="0%" stop-color="#C1A29B"/><stop offset="100%" stop-color="#E0D3CF"/></linearGradient><linearGradient id="n" gradientUnits="userSpaceOnUse" x1="848.65" y1="414.337" x2="848.65" y2="472.563" spreadMethod="pad"><stop offset="0%" stop-color="#E691BC"/><stop offset="100%" stop-color="#D82D8E"/></linearGradient><linearGradient id="o" gradientUnits="userSpaceOnUse" x1="848.95" y1="510.475" x2="848.95" y2="408.825" spreadMethod="pad"><stop offset="0%" stop-color="#C82C87"/><stop offset="36.078%" stop-color="#DB589E"/><stop offset="100%" stop-color="#EEBAD5"/></linearGradient><linearGradient id="p" gradientUnits="userSpaceOnUse" x1="849" y1="478.512" x2="849" y2="398.787" spreadMethod="pad"><stop offset="0%" stop-color="#DE65A4"/><stop offset="43.922%" stop-color="#EAA5C8"/><stop offset="100%" stop-color="#FCE9F1"/></linearGradient><linearGradient id="q" gradientUnits="userSpaceOnUse" x1="819.575" y1="395.387" x2="766.325" y2="450.512" spreadMethod="pad"><stop offset="0%" stop-color="#FFF"/><stop offset="41.961%" stop-color="#FFF"/><stop offset="100%" stop-color="#EEBAD5"/></linearGradient><linearGradient id="r" gradientUnits="userSpaceOnUse" x1="848.95" y1="535.5" x2="848.95" y2="511.1" spreadMethod="pad"><stop offset="0%" stop-color="#EEBAD5"/><stop offset="100%" stop-color="#DB4C99"/></linearGradient><linearGradient id="s" gradientUnits="userSpaceOnUse" x1="907.862" y1="479.688" x2="900.237" y2="515.612" spreadMethod="pad"><stop offset="0%" stop-color="#C7ACA5"/><stop offset="100%" stop-color="#A0736C"/></linearGradient><linearGradient id="t" gradientUnits="userSpaceOnUse" x1="906.6" y1="489.875" x2="899.2" y2="510.225" spreadMethod="pad"><stop offset="0%" stop-color="#FCE9F1"/><stop offset="100%" stop-color="#EAA5C8"/></linearGradient><linearGradient id="u" gradientUnits="userSpaceOnUse" x1="922.263" y1="483.113" x2="915.638" y2="491.287" spreadMethod="pad"><stop offset="0%" stop-color="#FCE9F1"/><stop offset="100%" stop-color="#EEBAD5"/></linearGradient><linearGradient id="v" gradientUnits="userSpaceOnUse" x1="911.888" y1="476.575" x2="908.813" y2="485.025" spreadMethod="pad"><stop offset="0%" stop-color="#FCE9F1"/><stop offset="100%" stop-color="#EEBAD5"/></linearGradient><linearGradient id="w" gradientUnits="userSpaceOnUse" x1="901.113" y1="476.725" x2="898.087" y2="485.075" spreadMethod="pad"><stop offset="0%" stop-color="#FCE9F1"/><stop offset="100%" stop-color="#EEBAD5"/></linearGradient><linearGradient id="x" gradientUnits="userSpaceOnUse" x1="789.175" y1="479.762" x2="797.425" y2="515.538" spreadMethod="pad"><stop offset="0%" stop-color="#C1A49E"/><stop offset="100%" stop-color="#986961"/></linearGradient><linearGradient id="y" gradientUnits="userSpaceOnUse" x1="790.612" y1="490.188" x2="798.388" y2="510.413" spreadMethod="pad"><stop offset="0%" stop-color="#FCE9F1"/><stop offset="100%" stop-color="#EAA5C8"/></linearGradient><linearGradient id="z" gradientUnits="userSpaceOnUse" x1="774.8" y1="483" x2="781.6" y2="491.1" spreadMethod="pad"><stop offset="0%" stop-color="#FCE9F1"/><stop offset="100%" stop-color="#EEBAD5"/></linearGradient><linearGradient id="A" gradientUnits="userSpaceOnUse" x1="785.288" y1="476.488" x2="788.512" y2="484.912" spreadMethod="pad"><stop offset="0%" stop-color="#FCE9F1"/><stop offset="100%" stop-color="#EEBAD5"/></linearGradient><linearGradient id="B" gradientUnits="userSpaceOnUse" x1="796.05" y1="476.65" x2="799.25" y2="484.95" spreadMethod="pad"><stop offset="0%" stop-color="#FCE9F1"/><stop offset="100%" stop-color="#EEBAD5"/></linearGradient><linearGradient id="C" gradientUnits="userSpaceOnUse" x1="760" y1="387.988" x2="779.8" y2="405.213" spreadMethod="pad"><stop offset="0%" stop-color="#A37770"/><stop offset="100%" stop-color="#B8968E"/></linearGradient><linearGradient id="D" gradientUnits="userSpaceOnUse" x1="786.363" y1="395.725" x2="767.337" y2="377.975" spreadMethod="pad"><stop offset="0%" stop-color="#C0A19A"/><stop offset="100%" stop-color="#E4D9D6"/></linearGradient><linearGradient id="E" gradientUnits="userSpaceOnUse" x1="937.45" y1="387.475" x2="917.95" y2="405.025" spreadMethod="pad"><stop offset="0%" stop-color="#A37770"/><stop offset="100%" stop-color="#B8968E"/></linearGradient><linearGradient id="F" gradientUnits="userSpaceOnUse" x1="909.75" y1="396.525" x2="931.65" y2="377.475" spreadMethod="pad"><stop offset="0%" stop-color="#C0A19A"/><stop offset="100%" stop-color="#E4D9D6"/></linearGradient><path fill="#FFF" fill-opacity="0" d="M284 0H0v320h284V0z" id="G"/><path fill="url(#a)" d="M797.25 283.25q-6.8-2.55-12.6-2.2-6.75.4-11.55 4.7-5.5 5.05-7.25 13.5-1.95 9.3 1.35 20.05 4.9 16 16.5 19.7 8.8 2.85 18.85-1.6 10.3-4.6 15.15-9.7 7.1-7.5 4.75-17.6-2-8.65-9.3-16.25-7.05-7.35-15.9-10.6z" id="H"/><path fill="url(#b)" d="M797.95 291.1q-5.8-2.75-10.95-2.75-6.05.05-10.15 4.05-4 3.85-5 10.25-1.1 6.9 1.75 14.5 4.15 11.15 12.55 14.1 6.6 2.35 13.75-.75 7.7-3.45 11.25-7.2 5.25-5.55 3.5-13-1.35-5.75-6-11.1-4.6-5.2-10.7-8.1z" id="I"/><path fill="#FFF" d="M797.1 294.35q-3.95-2.15-8.1-2.15-6.45 0-10.3 4.85-3.85 4.9-2.8 11.75.55 3.6 2.45 6.8 1.8 3.15 4.55 5.45-3.55-4.35-4.25-9.45-1.1-6.8 2.75-11.65 3.85-4.8 10.3-4.8 6.55 0 11.85 4.9-2.7-3.6-6.45-5.7z" id="J"/><path fill="url(#c)" d="M912.65 281.05q-5.8-.35-12.6 2.2-8.85 3.25-15.9 10.6-7.3 7.6-9.3 16.25-2.35 10.1 4.75 17.6 4.85 5.15 15.2 9.7 10 4.45 18.8 1.6 11.6-3.7 16.45-19.7 3.35-10.7 1.4-20.05-1.75-8.45-7.3-13.5-4.8-4.3-11.5-4.7z" id="K"/><path fill="url(#d)" d="M910.3 288.35q-5.15 0-11 2.75-6.05 2.9-10.65 8.1-4.7 5.35-6.05 11.1-1.7 7.45 3.55 13 3.55 3.75 11.25 7.2 7.15 3.1 13.75.75 8.35-2.95 12.5-14.1 2.85-7.6 1.75-14.5-1-6.4-5-10.25-4.05-4-10.1-4.05z" id="L"/><path fill="#FFF" d="M908.25 292.55q-4.1 0-8.05 2.15-3.8 2.1-6.5 5.7 5.3-4.9 11.9-4.9 6.45 0 10.25 4.8 3.85 4.85 2.75 11.7-.75 5.15-4.25 9.4 2.75-2.3 4.6-5.45 1.9-3.25 2.4-6.8 1.1-6.85-2.75-11.7-3.85-4.9-10.35-4.9z" id="M"/><path fill="url(#e)" d="M789.85 371.9q4.7 15.25 15.65 23.45 4.85 3.6 10.8 6.35 8.15 7.25 14.7 10.2 7.55 3.45 17.65 3.55 10.05-.1 17.65-3.55 6.5-2.95 14.65-10.2 5.95-2.75 10.8-6.35 10.95-8.2 15.7-23.45 4.4-14.25 2.05-29.8-3.6-23.6-21.75-37.9-16.65-13.15-38.8-13.7-22.4-.6-38.95 12.05-18.35 14-22.2 39.55-2.4 15.55 2.05 29.8z" id="N"/><path fill="#D2BBB5" d="M850 371.85q-1.15.15-1.5.1-.75-.05-1.3 0-1 .1-1.8 1.1-.65.75-2.4 1.05-1.75.3-3.1-.15-.25 1-.25 1.45 0 .3.05 1.4.1 4.3 2.8 6.7 2.45 2.15 6 2.05 3.6.1 6.05-2.05 2.75-2.4 2.85-6.7.05-1.1.05-1.4 0-.5-.3-1.45-.35.6-2.5.1-2.1-.5-2.7-1.25-.8-.95-1.95-.95z" id="O"/><path fill="url(#f)" d="M842.35 374.7q-.05 2.3.5 4.15 1.3 3.65 5.55 3.7 4.2 0 5.65-3.55.7-1.95.55-4.3 0-.7-1.35-1.25-1.5-.55-1.65-1.2-.1-.5-.4-.4-.3.2-.6-.25-1-1.5-2.2-1.65-.3-.05-.35 0-.05.05-.65 1.05-.25.4-1.35.9-.95.45-1.1 1-.15.65-1.45.85-1.15.25-1.15.95z" id="P"/><path fill="url(#g)" d="M877.3 310.85q0-6-8.4-10.2-8.4-4.2-20.25-4.2t-20.25 4.2q-8.4 4.2-8.4 10.2 0 5.95 8.4 10.15 8.4 4.25 20.25 4.25 11.8 0 20.25-4.25 8.4-4.2 8.4-10.15z" id="Q"/><path fill="#773E3C" d="M849.5 368.05v-.15q.1-.8-.8-1-.35-.05-.65.25-.3.25-.35.65v.05q-.45 3-3.1 4.7-2.4 1.45-5.95 1.3 0-.1-.15-.1-1.25-.1-2.2-.45l-1.8-.75q-2.05-1.25-3-3.4-1-2.15-.7-4.7 0-.8-.9-1-.8-.1-1 .8-.3 3.15.95 5.75 1.2 2.6 3.75 4.1 1 .65 2.15.95.8.3 2.5.6h.25q4 .3 7.05-1.55 3.5-2.1 3.95-6.05z" id="R"/><path fill="#773E3C" d="M847.7 367.9v.15q.45 3.95 3.95 6.05 3.05 1.85 7.2 1.55h.15q1.8-.3 2.5-.6 1.1-.25 2.2-.95 2.5-1.5 3.75-4.1 1.25-2.6.9-5.75-.05-.35-.35-.6-.25-.25-.65-.2-.85.15-.85 1 .25 2.55-.7 4.7-1 2.15-3.05 3.4l-1.8.75q-1 .4-2.15.45-.15 0-.15.1-3.55.15-6.05-1.3-2.65-1.7-3.1-4.7v-.05q0-.35-.3-.65-.3-.3-.7-.25-.9.2-.8 1z" id="S"/><path fill="#512628" d="M848.65 326.1q-5.25 0-9 6.3t-3.75 15.1q0 4.55 1.15 8.7h23.2q1.15-4.45 1.15-8.7 0-8.8-3.75-15.1-3.8-6.3-9-6.3z" id="T"/><path fill="url(#h)" d="M848.65 330.9q-5.25 0-9 6.3-3.75 6.25-3.75 15.1 0 4.65 1.15 8.7h23.2q1.15-4.35 1.15-8.7 0-8.85-3.75-15.1-3.75-6.3-9-6.3z" id="U"/><path fill="url(#i)" d="M848.55 356.75q-5.65 0-8.7 1.25-4.65 2-2.15 4.65 1.5 1.7 4.45 3.7 2.7 1.85 5.55 3.25.7.3.9.3.2 0 .9-.3 2.95-1.45 5.65-3.25 3-2 4.45-3.7 2.65-2.8-2.2-4.65-3.2-1.25-8.85-1.25z" id="V"/><path fill="url(#j)" d="M848.6 358.65q-4.25 0-6.6.4-1.9.35-2.3 1.4-.35 1 .65 2.15 2.45 2.75 7.55 5.2.55.25.7.25.15 0 .7-.25 5.35-2.55 7.6-5.2 1.1-1.15.7-2.15-.45-1.05-2.35-1.4-2.35-.4-6.65-.4z" id="W"/><path fill="#B6928B" d="M843.5 359.7q-2.1.15-2.5.8-.45 1.15 1.25 1.45 1.25.4 3.1.3 1.75-.15 2.5-.65.95-.65.5-1.3-.3-.4-1.8-.6-1.35-.1-3.05 0z" id="X"/><path fill="url(#k)" d="M847.6 366.65q.75.45 1.7 0 6.2-3.3 6.8-6-2 2.2-7.75 4.9-1.55.7-.75 1.1z" id="Y"/><path fill="#AE857D" d="M854.25 338.3q2.55 1.75 4.55 4.95-1.65-4.5-4.3-7.1-2.7-2.7-5.85-2.7-3.2 0-5.9 2.7-2.6 2.6-4.25 7.1 4.2-6.8 10.15-6.8 2.9 0 5.6 1.85z" id="Z"/><path fill="#E4D7D3" d="M820.15 322.4q.95.9 2.2.9 1.3 0 2.2-.9.9-.9.9-2.15 0-1.3-.9-2.2-.9-.9-2.2-.9-1.25 0-2.2.9-.9.95-.9 2.2 0 1.25.9 2.15z" id="aa"/><path fill="#E4D7D3" d="M872.7 322.4q.95.9 2.2.9 1.3 0 2.2-.9.9-.9.9-2.15 0-1.3-.9-2.2-.9-.9-2.2-.9-1.25 0-2.2.9-.9.95-.9 2.2 0 1.25.9 2.15z" id="ab"/><path fill="url(#l)" d="M819.4 326q-4.95 0-8.45 3.55-3.55 3.5-3.55 8.5 0 4.95 3.55 8.5 3.5 3.5 8.45 3.5 4.9 0 8.45-3.5 3.5-3.55 3.5-8.5 0-5-3.5-8.5-3.55-3.55-8.45-3.55z" id="ac"/><path fill="#FEF3EC" d="M820.35 333.65q-3.5-.95-6.95.4-3.4 1.35-5.35 4.35 4.85-.7 10.85.85 5.65 1.65 9.8 4.9-.25-3.65-2.5-6.55-2.3-2.95-5.85-3.95z" id="ad"/><path fill="#FEF3EC" d="M808.75 336.4q-.8.8-1.3 1.65-.25.35-.05.75.25.4.7.35 3.65-.45 7.4.1l1.6.4q.35.05 1.6.35 3.9 1.05 7.25 3.1l2.3 1.55q.35.35.8.1.45-.2.35-.65-.15-2.75-1.5-5.2-1.3-2.35-3.45-4-.75-.6-1.9-1.1-.65-.4-2-.8-2.7-.75-5.45-.2-2.6.55-4.85 2.15l-1.5 1.45m.8 1.15l.2-.25 1.35-1.2q1.95-1.4 4.3-1.9 2.4-.45 4.7.15h.1q.55.15 1.8.75.75.3 1.6.95 3.25 2.35 4.15 6.55l-1.05-.75q-3.45-2.05-7.65-3.25l-1.65-.4q-1.35-.25-1.65-.3-3.05-.5-6.2-.35z" id="ae"/><path fill="#512628" d="M820.75 332.3q-3.65-.95-7.2.4-3.45 1.35-5.45 4.35 5.05-.7 11.15.85 6.1 1.7 10.1 4.9-.25-3.7-2.6-6.55-2.35-2.95-6-3.95z" id="af"/><path fill="url(#m)" d="M869.4 329.55q-3.5 3.5-3.5 8.5 0 4.95 3.5 8.5 3.55 3.5 8.45 3.5 5 0 8.5-3.5 3.55-3.55 3.55-8.5 0-5-3.55-8.5-3.5-3.55-8.5-3.55-4.9 0-8.45 3.55z" id="ag"/><path fill="#FEF3EC" d="M883.9 334.05q-3.45-1.35-6.95-.4-3.55 1-5.85 3.95t-2.5 6.55q4.05-3.25 9.75-4.9 6-1.55 10.9-.85-2-3-5.35-4.35z" id="ah"/><path fill="#FEF3EC" d="M868.25 344.75q.45.25.75-.1l2.3-1.55q3.35-2.1 7.3-3.1h.05q1-.3 1.5-.35l1.6-.4q3.75-.55 7.4-.1.45.05.7-.35.3-.35.05-.75h-.1q-.6-1-1.3-1.65-.3-.35-1.5-1.45-2.2-1.6-4.85-2.15-2.75-.55-5.45.2-1.35.4-2 .8-1.15.55-1.85 1.1-2.2 1.65-3.5 4-1.35 2.45-1.5 5.2-.05.4.4.65m2.35-2.9l-1.1.75q1-4.2 4.2-6.55.9-.7 1.55-.95 1.15-.55 1.8-.75h.1q2.35-.65 4.75-.15 2.35.5 4.25 1.9.5.35 1.35 1.2l.25.25q-3.15-.15-6.2.35-.25 0-1.65.3l-1.65.4q-4.2 1.2-7.65 3.25z" id="ai"/><path fill="#512628" d="M883.7 332.7q-3.55-1.35-7.2-.4-3.65 1-6 3.95-2.3 2.85-2.55 6.55 4.05-3.2 10.05-4.9 6.1-1.55 11.15-.85-2-3-5.45-4.35z" id="aj"/><path fill="#A07169" d="M820.05 334.25q-1.4-.35-2.85-.1-1.25.25-1.4.6-.05.25 1.05.5.7.15 2.7.55 1.1.25 2.75.75 1.1.3 1.2.05.1-.35-.9-1.1-1.15-.9-2.55-1.25z" id="ak"/><path fill="#A07169" d="M880.15 334.15q-1.4-.25-2.85.1-1.45.35-2.55 1.25-1 .75-.9 1.1.05.25 1.2-.05.7-.2 2.65-.75 1.05-.25 2.7-.55 1.15-.25 1.05-.5-.05-.35-1.3-.6z" id="al"/><path fill="#D4BFB9" d="M915.25 491.7q0-13.35-19.55-22.8-19.55-9.45-47.05-9.45-27.5 0-47.05 9.45-19.55 9.45-19.55 22.8 0 13.3 19.55 22.75 19.6 9.5 47.05 9.5 27.45 0 47.05-9.5 19.55-9.45 19.55-22.75z" id="am"/><path fill="url(#n)" d="M799.95 375.15q-11.05 1.1-20.25 6.6-19.8 11.85-23 36.35-2.45 18.95 8.75 38.2 8.95 15.35 24.5 27.9 6.75 5.4 18.25 12.9 12.85 8.35 17.15 11.55 18.3 13.7 23.3 31.85 5-18.15 23.25-31.85 4.3-3.25 17.15-11.55 11.5-7.5 18.25-12.9 15.55-12.55 24.55-27.9 11.2-19.25 8.75-38.2-3.25-24.55-23-36.35-9.25-5.5-20.25-6.6Q886 374 874.5 377.7q-8.25 2.65-14.8 7.6-6.95 5.25-11.05 12.5-4.25-7.3-11.1-12.5-6.55-4.95-14.75-7.6-11.5-3.7-22.85-2.55m20.9 8.55q7.55 2.4 13.4 6.95 6.2 4.85 9.65 11.55 1.3 2.45 2.05 4.9l2.7 7.65 2.6-7.65q1.2-3.3 2.15-4.9 3.45-6.7 9.65-11.55 5.85-4.55 13.4-6.95 20.7-6.65 37.9 3.7 17.45 10.55 20.25 32.2 3.15 24.45-12.65 45.1-6.3 8.2-16.5 17.15-6 5.25-19.15 15.4-19.35 14.9-20.85 16.2-11.9 10.25-16.8 19.55-4.9-9.3-16.8-19.55-1.2-1-20.85-16.2-13.15-10.15-19.15-15.4-10.25-8.95-16.55-17.15-15.8-20.65-12.65-45.1 2.85-21.65 20.3-32.2 17.2-10.35 37.9-3.7z" id="an"/><path fill="url(#o)" d="M801.75 378.35q-10.15.8-18.5 5.2-10.55 5.5-16.75 15.55-5.75 9.35-7.05 21.25-1.25 11.4 1.75 23 3.05 11.65 9.75 20.85 8.25 11.3 23.65 24.05 8.8 7.3 26.55 20.95 13.2 10.75 16.55 14.2 8.05 8.4 11.2 18.6 3.2-10.2 11.3-18.6 3.25-3.35 16.6-14.2 8.5-6.9 26.55-20.95 15.35-12.7 23.6-24.05 6.7-9.2 9.75-20.85 3.05-11.55 1.8-23-1.35-11.9-7.05-21.25-6.2-10.05-16.7-15.55-8.4-4.4-18.6-5.2-9.95-.75-19.45 2.15-21.25 6.5-27.8 25.5-6.45-19-27.7-25.5-9.45-2.9-19.45-2.15z" id="ao"/><path fill="url(#p)" d="M796.5 386.05q-11 2.25-18.55 9.3-7.5 7-9.8 17.25-2.55 11.3 1.7 25.15 5.75 18.65 29.25 30.45 21.8 10.95 49.8 11.9 28.05-.95 49.95-11.9 23.5-11.8 29.2-30.45 4.3-13.8 1.75-25.15-2.3-10.2-9.8-17.25-7.55-7.05-18.55-9.3-10.8-2.2-21.55.95-11.35 3.25-19.3 11.6-8.8 9.2-11.7 22.9-2.85-13.7-11.6-22.9-7.9-8.35-19.25-11.6-10.75-3.15-21.55-.95z" id="ap"/><path fill="url(#q)" d="M819.5 392.05q-12.75-4.8-26.9.95-14.55 5.85-18.6 20.95-3.75 13.95 3 27.65-5.3-14.15.3-26.4 5-11.15 16.75-16.95 11.65-5.75 23.85-3.3 13.25 2.65 21.35 14.35-7.6-12.7-19.75-17.25z" id="aq"/><path fill="url(#r)" d="M862.75 511.8q6.15-5.9 16.4-13.9-30.28 22.257-59.15.95 9.337 7.372 15.15 12.95 8.5 8.25 13.75 16.6 5.35-8.35 13.85-16.6z" id="ar"/><path fill="#986961" d="M922.5 469q-8.95-6.05-19.85-2.8-6.1 1.85-10.55 6.9-4.85 5.35-7.45 13.9-4.3 14.2 1.25 23.6 4.95 8.45 15.45 10.1 8.15 1.3 16.4-4.35 7.7-5.3 10.95-13.3 2.1-5.15 2.85-9.55.75-4.05.45-8.3-.75-10.3-9.5-16.2z" id="as"/><path fill="url(#s)" d="M911.1 470.8q-8.5-2.1-15.95 2.25-8.3 4.9-11.25 15.9-3.2 12.1 1.35 20.8 4.15 7.85 12.55 9.95 8.45 2.05 16.05-2.95 8.45-5.55 11.85-17.7 3.05-10.85-1.75-18.9-4.3-7.25-12.85-9.35z" id="at"/><path fill="#794743" d="M906.9 488.45q-4.2-.95-8.05 1.4-4.25 2.6-6 8.3-1.75 5.7.5 9.8 2 3.7 6.2 4.65 4.2.95 8.05-1.4 4.25-2.65 6-8.35 1.75-5.7-.45-9.75-2-3.7-6.25-4.65z" id="au"/><path fill="#AB827A" d="M916.1 493.1q3.95 1.65 6.4-2.8 1.15-2.1.6-3.85-.5-1.55-2.1-2.2-3.9-1.65-6.35 2.75-1.15 2.1-.6 3.85.45 1.55 2.05 2.25z" id="av"/><path fill="#AB827A" d="M909.7 486.05q4.25.3 5.1-4.65.45-2.35-.65-3.85-.95-1.35-2.7-1.45-4.3-.3-5.15 4.65-.4 2.35.7 3.85.95 1.35 2.7 1.45z" id="aw"/><path fill="#AB827A" d="M895.65 480.3q-.6 5.05 3.6 6 1.65.4 3-.6 1.45-1.1 1.75-3.5.6-5-3.55-5.95-1.7-.4-3.05.6-1.45 1.1-1.75 3.45z" id="ax"/><path fill="url(#t)" d="M906.8 487.35q-4.15-.95-7.95 1.4-4.2 2.55-5.95 8.2-1.7 5.6.5 9.65 2 3.6 6.15 4.55 4.15.9 7.95-1.4 4.2-2.6 5.95-8.2 1.7-5.6-.5-9.65-1.95-3.6-6.15-4.55z" id="ay"/><path fill="url(#u)" d="M916.2 492.05q3.95 1.65 6.4-2.8 1.15-2.1.55-3.85-.5-1.55-2.1-2.2-3.95-1.65-6.4 2.75-1.15 2.1-.6 3.85.55 1.55 2.15 2.25z" id="az"/><path fill="url(#v)" d="M909.75 485q4.25.3 5.15-4.7.45-2.35-.65-3.85-1-1.35-2.7-1.45-4.3-.3-5.15 4.65-.4 2.35.65 3.85 1 1.35 2.7 1.5z" id="aA"/><path fill="url(#w)" d="M895.7 479.25q-.55 5.05 3.6 6 1.65.4 3-.65 1.45-1.1 1.75-3.5.6-5-3.55-5.95-1.7-.35-3.05.6-1.45 1.15-1.75 3.5z" id="aB"/><path fill="#FFF" d="M896.25 492.75q5-3.3 10.5-1.1 5.7 2.3 5.95 8.3 1.05-7.7-5.35-10.2-6.3-2.45-11.1 3z" id="aC"/><path fill="#AE867E" d="M916 470q9.4 3.7 11.85 11.9-1.4-9.85-11.3-13.45-9.55-3.55-17.35 1.8 7.55-3.8 16.8-.25z" id="aD"/><path fill="#986961" d="M811.4 510.6q5.55-9.4 1.25-23.6-2.6-8.55-7.45-13.9-4.5-5-10.55-6.9-10.9-3.25-19.9 2.8-8.75 5.9-9.5 16.2-.25 4.2.45 8.3.8 4.4 2.85 9.55 3.3 8 11 13.3 8.2 5.65 16.4 4.35 10.5-1.65 15.45-10.1z" id="aE"/><path fill="url(#x)" d="M812 509.75q4.6-8.7 1.35-20.8-2.9-11-11.2-15.9-7.45-4.35-15.95-2.25-8.55 2.1-12.85 9.35-4.8 8.05-1.75 18.9 3.4 12.15 11.85 17.7 7.6 5 16 2.95 8.45-2.1 12.55-9.95z" id="aF"/><path fill="#794743" d="M798.45 489.85q-3.85-2.35-8.05-1.4-4.2.95-6.2 4.65-2.25 4.05-.5 9.75t6 8.35q3.8 2.35 8.05 1.4 4.2-.95 6.2-4.65 2.2-4.1.5-9.8-1.75-5.7-6-8.3z" id="aG"/><path fill="#AB827A" d="M774.75 490.3q2.45 4.45 6.4 2.8 1.6-.7 2.05-2.25.55-1.75-.6-3.85-2.45-4.4-6.35-2.75-1.6.65-2.1 2.2-.55 1.75.6 3.85z" id="aH"/><path fill="#AB827A" d="M782.45 481.4q.85 4.95 5.1 4.65 1.75-.1 2.7-1.45 1.1-1.5.7-3.85-.85-4.95-5.15-4.65-1.7.1-2.7 1.45-1.05 1.5-.65 3.85z" id="aI"/><path fill="#AB827A" d="M798.05 486.3q4.15-.95 3.55-6-.25-2.35-1.75-3.45-1.3-1-3-.6-4.15.95-3.6 5.95.3 2.4 1.75 3.5 1.35 1 3.05.6z" id="aJ"/><path fill="url(#y)" d="M798.4 488.75q-3.8-2.35-7.95-1.4-4.15.95-6.15 4.55-2.15 4.05-.45 9.65 1.75 5.6 5.95 8.2 3.8 2.3 7.95 1.4 4.15-.95 6.15-4.55 2.15-4.05.45-9.65-1.75-5.65-5.95-8.2z" id="aK"/><path fill="url(#z)" d="M774.7 489.25q2.45 4.45 6.4 2.8 1.6-.7 2.1-2.25.55-1.75-.6-3.85-2.45-4.4-6.4-2.75-1.6.65-2.1 2.2-.55 1.75.6 3.85z" id="aL"/><path fill="url(#A)" d="M782.4 480.3q.85 5 5.1 4.7 1.75-.15 2.7-1.5 1.1-1.5.7-3.85-.85-4.95-5.1-4.65-1.75.1-2.7 1.45-1.1 1.5-.7 3.85z" id="aM"/><path fill="url(#B)" d="M798 485.25q4.15-.95 3.55-6-.3-2.35-1.75-3.5-1.35-.95-3-.6-4.2.95-3.55 5.95.3 2.4 1.75 3.5 1.3 1.05 3 .65z" id="aN"/><path fill="#FFF" d="M790.55 491.65q5.5-2.2 10.55 1.1-4.85-5.45-11.2-3-6.4 2.5-5.35 10.2.35-6 6-8.3z" id="aO"/><path fill="#AE867E" d="M781.3 470q9.2-3.55 16.8.25-7.8-5.35-17.4-1.8-9.9 3.6-11.25 13.45 2.45-8.2 11.85-11.9z" id="aP"/><path fill="url(#C)" d="M786 379.95q-7.05-6.3-16.5-3.65-8.85 2.45-14.7 10.9-4.5 6.7-4.75 14.25-.25 8.25 5.2 13.05 6.35 5.65 14.85 3.55 7.6-1.9 13.8-9 6.2-7.05 7.2-14.9 1.1-8.7-5.1-14.2z" id="aQ"/><path fill="url(#D)" d="M783.05 382.6q-3.75-3.35-8.65-3.25-4.45.05-9 2.85 7.95-1.95 13.95 3.3 4.1 3.45 5.25 8.45 1.15 4.9-1 9.2l.6-.65q3.85-4.4 3.5-10.2-.35-5.85-4.65-9.7z" id="aR"/><path fill="url(#E)" d="M927.75 376.3q-9.45-2.65-16.5 3.65-6.2 5.5-5.05 14.2 1 7.85 7.15 14.9 6.25 7.1 13.85 9 8.45 2.1 14.8-3.55 5.45-4.8 5.2-13.05-.2-7.55-4.75-14.25-5.85-8.45-14.7-10.9z" id="aS"/><path fill="url(#F)" d="M922.9 379.35q-4.9-.1-8.65 3.25-4.35 3.85-4.7 9.7-.35 5.8 3.5 10.2l.6.65q-2.1-4.3-.95-9.2 1.15-5 5.2-8.45 6.05-5.25 13.95-3.3-4.5-2.8-8.95-2.85z" id="aT"/></defs><use xlink:href="#G"/><use xlink:href="#H" transform="matrix(.98836 0 0 .98836 -696.718 -220.728)"/><use xlink:href="#I" transform="matrix(.98836 0 0 .98836 -696.718 -220.728)"/><use xlink:href="#J" transform="matrix(.98836 0 0 .98836 -696.718 -220.728)"/><use xlink:href="#K" transform="matrix(.98836 0 0 .98836 -696.718 -220.728)"/><use xlink:href="#L" transform="matrix(.98836 0 0 .98836 -696.718 -220.728)"/><use xlink:href="#M" transform="matrix(.98836 0 0 .98836 -696.718 -220.728)"/><use xlink:href="#N" transform="matrix(.98836 0 0 .98836 -696.718 -220.728)"/><use xlink:href="#O" transform="matrix(.98836 0 0 .98836 -696.718 -220.728)"/><use xlink:href="#P" transform="matrix(.98836 0 0 .98836 -696.718 -220.728)"/><use xlink:href="#Q" transform="matrix(.98836 0 0 .98836 -696.718 -220.728)"/><use xlink:href="#R" transform="matrix(.98836 0 0 .98836 -696.718 -220.728)"/><use xlink:href="#S" transform="matrix(.98836 0 0 .98836 -696.718 -220.728)"/><use xlink:href="#T" transform="matrix(.98836 0 0 .98836 -696.718 -220.728)"/><use xlink:href="#U" transform="matrix(.98836 0 0 .98836 -696.718 -220.728)"/><use xlink:href="#V" transform="matrix(.98836 0 0 .98836 -696.718 -220.728)"/><use xlink:href="#W" transform="matrix(.98836 0 0 .98836 -696.718 -220.728)"/><use xlink:href="#X" transform="matrix(.98836 0 0 .98836 -696.718 -220.728)"/><use xlink:href="#Y" transform="matrix(.98836 0 0 .98836 -696.718 -220.728)"/><use xlink:href="#Z" transform="matrix(.98836 0 0 .98836 -696.718 -220.728)"/><use xlink:href="#aa" transform="matrix(.98836 0 0 .98836 -696.718 -220.728)"/><use xlink:href="#ab" transform="matrix(.98836 0 0 .98836 -696.718 -220.728)"/><use xlink:href="#ac" transform="matrix(.98836 0 0 .98836 -696.718 -220.728)"/><use xlink:href="#ad" transform="matrix(.98836 0 0 .98836 -696.718 -220.728)"/><use xlink:href="#ae" transform="matrix(.98836 0 0 .98836 -696.718 -220.728)"/><use xlink:href="#af" transform="matrix(.98836 0 0 .98836 -696.718 -220.728)"/><use xlink:href="#ag" transform="matrix(.98836 0 0 .98836 -696.718 -220.728)"/><use xlink:href="#ah" transform="matrix(.98836 0 0 .98836 -696.718 -220.728)"/><use xlink:href="#ai" transform="matrix(.98836 0 0 .98836 -696.718 -220.728)"/><use xlink:href="#aj" transform="matrix(.98836 0 0 .98836 -696.718 -220.728)"/><use xlink:href="#ak" transform="matrix(.98836 0 0 .98836 -696.718 -220.728)"/><use xlink:href="#al" transform="matrix(.98836 0 0 .98836 -696.718 -220.728)"/><use xlink:href="#am" transform="matrix(.98836 0 0 .98836 -696.718 -220.728)"/><use xlink:href="#an" transform="matrix(.98836 0 0 .98836 -696.718 -220.728)"/><use xlink:href="#ao" transform="matrix(.98836 0 0 .98836 -696.718 -220.728)"/><use xlink:href="#ap" transform="matrix(.98836 0 0 .98836 -696.718 -220.728)"/><use xlink:href="#aq" transform="matrix(.98836 0 0 .98836 -696.718 -220.728)"/><use xlink:href="#ar" transform="matrix(.98836 0 0 .98836 -696.718 -220.728)"/><use xlink:href="#as" transform="matrix(.98836 0 0 .98836 -696.718 -220.728)"/><use xlink:href="#at" transform="matrix(.98836 0 0 .98836 -696.718 -220.728)"/><use xlink:href="#au" transform="matrix(.98836 0 0 .98836 -696.718 -220.728)"/><use xlink:href="#av" transform="matrix(.98836 0 0 .98836 -696.718 -220.728)"/><use xlink:href="#aw" transform="matrix(.98836 0 0 .98836 -696.718 -220.728)"/><use xlink:href="#ax" transform="matrix(.98836 0 0 .98836 -696.718 -220.728)"/><use xlink:href="#ay" transform="matrix(.98836 0 0 .98836 -696.718 -220.728)"/><use xlink:href="#az" transform="matrix(.98836 0 0 .98836 -696.718 -220.728)"/><use xlink:href="#aA" transform="matrix(.98836 0 0 .98836 -696.718 -220.728)"/><use xlink:href="#aB" transform="matrix(.98836 0 0 .98836 -696.718 -220.728)"/><use xlink:href="#aC" transform="matrix(.98836 0 0 .98836 -696.718 -220.728)"/><use xlink:href="#aD" transform="matrix(.98836 0 0 .98836 -696.718 -220.728)"/><use xlink:href="#aE" transform="matrix(.98836 0 0 .98836 -696.718 -220.728)"/><use xlink:href="#aF" transform="matrix(.98836 0 0 .98836 -696.718 -220.728)"/><use xlink:href="#aG" transform="matrix(.98836 0 0 .98836 -696.718 -220.728)"/><use xlink:href="#aH" transform="matrix(.98836 0 0 .98836 -696.718 -220.728)"/><use xlink:href="#aI" transform="matrix(.98836 0 0 .98836 -696.718 -220.728)"/><use xlink:href="#aJ" transform="matrix(.98836 0 0 .98836 -696.718 -220.728)"/><use xlink:href="#aK" transform="matrix(.98836 0 0 .98836 -696.718 -220.728)"/><use xlink:href="#aL" transform="matrix(.98836 0 0 .98836 -696.718 -220.728)"/><use xlink:href="#aM" transform="matrix(.98836 0 0 .98836 -696.718 -220.728)"/><use xlink:href="#aN" transform="matrix(.98836 0 0 .98836 -696.718 -220.728)"/><use xlink:href="#aO" transform="matrix(.98836 0 0 .98836 -696.718 -220.728)"/><use xlink:href="#aP" transform="matrix(.98836 0 0 .98836 -696.718 -220.728)"/><use xlink:href="#aQ" transform="matrix(.98836 0 0 .98836 -696.718 -220.728)"/><use xlink:href="#aR" transform="matrix(.98836 0 0 .98836 -696.718 -220.728)"/><use xlink:href="#aS" transform="matrix(.98836 0 0 .98836 -696.718 -220.728)"/><use xlink:href="#aT" transform="matrix(.98836 0 0 .98836 -696.718 -220.728)"/></svg>