<svg xmlns="http://www.w3.org/2000/svg" xmlns:xlink="http://www.w3.org/1999/xlink" preserveAspectRatio="none" width="284" height="320"><defs><linearGradient id="a" gradientUnits="userSpaceOnUse" x1="-561.188" y1="-447.762" x2="-551.912" y2="-463.838" spreadMethod="pad"><stop offset="0%" stop-color="#99CE2F"/><stop offset="100%" stop-color="#B9E942"/></linearGradient><linearGradient id="b" gradientUnits="userSpaceOnUse" x1="-558.3" y1="-451.887" x2="-551.3" y2="-464.512" spreadMethod="pad"><stop offset="0%" stop-color="#7DB52C"/><stop offset="43.922%" stop-color="#A6DA30"/><stop offset="100%" stop-color="#B9E942"/></linearGradient><linearGradient id="c" gradientUnits="userSpaceOnUse" x1="-548.213" y1="-451.575" x2="-562.688" y2="-468.825" spreadMethod="pad"><stop offset="0%" stop-color="#B9E942"/><stop offset="100%" stop-color="#FEFEFE"/></linearGradient><linearGradient id="d" gradientUnits="userSpaceOnUse" x1="-545.25" y1="-465.625" x2="-555.75" y2="-444.075" spreadMethod="pad"><stop offset="0%" stop-color="#CFF27F"/><stop offset="100%" stop-color="#B9E942"/></linearGradient><linearGradient id="e" gradientUnits="userSpaceOnUse" x1="-548.613" y1="-467.738" x2="-559.288" y2="-445.863" spreadMethod="pad"><stop offset="0%" stop-color="#CFF27F"/><stop offset="100%" stop-color="#B9E942"/></linearGradient><linearGradient id="f" gradientUnits="userSpaceOnUse" x1="-547.962" y1="-466.537" x2="-558.337" y2="-445.262" spreadMethod="pad"><stop offset="0%" stop-color="#CFF27F"/><stop offset="100%" stop-color="#B9E942"/></linearGradient><linearGradient id="g" gradientUnits="userSpaceOnUse" x1="-551.788" y1="-468.587" x2="-562.212" y2="-447.212" spreadMethod="pad"><stop offset="0%" stop-color="#CFF27F"/><stop offset="100%" stop-color="#B9E942"/></linearGradient><linearGradient id="h" gradientUnits="userSpaceOnUse" x1="-549.587" y1="-467.5" x2="-560.012" y2="-446.1" spreadMethod="pad"><stop offset="0%" stop-color="#CFF27F"/><stop offset="100%" stop-color="#B9E942"/></linearGradient><linearGradient id="i" gradientUnits="userSpaceOnUse" x1="-553.988" y1="-470.3" x2="-564.913" y2="-447.9" spreadMethod="pad"><stop offset="0%" stop-color="#CFF27F"/><stop offset="100%" stop-color="#B9E942"/></linearGradient><linearGradient id="j" gradientUnits="userSpaceOnUse" x1="-555.738" y1="-471.412" x2="-566.663" y2="-448.988" spreadMethod="pad"><stop offset="0%" stop-color="#CFF27F"/><stop offset="100%" stop-color="#B9E942"/></linearGradient><linearGradient id="k" gradientUnits="userSpaceOnUse" x1="-557.95" y1="-472.525" x2="-569.05" y2="-449.775" spreadMethod="pad"><stop offset="0%" stop-color="#CFF27F"/><stop offset="100%" stop-color="#B9E942"/></linearGradient><linearGradient id="l" gradientUnits="userSpaceOnUse" x1="-558.85" y1="-472.763" x2="-569.75" y2="-450.438" spreadMethod="pad"><stop offset="0%" stop-color="#CFF27F"/><stop offset="100%" stop-color="#B9E942"/></linearGradient><linearGradient id="m" gradientUnits="userSpaceOnUse" x1="-560.813" y1="-473.662" x2="-571.787" y2="-451.137" spreadMethod="pad"><stop offset="0%" stop-color="#CFF27F"/><stop offset="100%" stop-color="#B9E942"/></linearGradient><linearGradient id="n" gradientUnits="userSpaceOnUse" x1="-557.063" y1="-470.738" x2="-567.737" y2="-448.863" spreadMethod="pad"><stop offset="0%" stop-color="#CFF27F"/><stop offset="100%" stop-color="#B9E942"/></linearGradient><linearGradient id="o" gradientUnits="userSpaceOnUse" x1="-566.913" y1="-474.525" x2="-578.087" y2="-454.375" spreadMethod="pad"><stop offset="0%" stop-color="#CFF27F"/><stop offset="100%" stop-color="#B9E942"/></linearGradient><linearGradient id="p" gradientUnits="userSpaceOnUse" x1="-563.188" y1="-471.65" x2="-576.112" y2="-450.15" spreadMethod="pad"><stop offset="0%" stop-color="#CFF27F"/><stop offset="100%" stop-color="#B9E942"/></linearGradient><linearGradient id="q" gradientUnits="userSpaceOnUse" x1="-557.138" y1="-470.025" x2="-567.263" y2="-449.275" spreadMethod="pad"><stop offset="0%" stop-color="#CFF27F"/><stop offset="100%" stop-color="#B9E942"/></linearGradient><linearGradient id="r" gradientUnits="userSpaceOnUse" x1="-545.775" y1="-465.813" x2="-556.525" y2="-443.788" spreadMethod="pad"><stop offset="0%" stop-color="#CFF27F"/><stop offset="100%" stop-color="#B9E942"/></linearGradient><linearGradient id="s" gradientUnits="userSpaceOnUse" x1="-544.813" y1="-462.025" x2="-560.588" y2="-434.675" spreadMethod="pad"><stop offset="0%" stop-color="#CFF27F"/><stop offset="100%" stop-color="#B9E942"/></linearGradient><linearGradient id="t" gradientUnits="userSpaceOnUse" x1="-547.3" y1="-462.2" x2="-558.5" y2="-442.8" spreadMethod="pad"><stop offset="0%" stop-color="#CFF27F"/><stop offset="100%" stop-color="#B9E942"/></linearGradient><linearGradient id="u" gradientUnits="userSpaceOnUse" x1="-556.188" y1="-468.2" x2="-567.912" y2="-447.9" spreadMethod="pad"><stop offset="0%" stop-color="#CFF27F"/><stop offset="100%" stop-color="#B9E942"/></linearGradient><linearGradient id="v" gradientUnits="userSpaceOnUse" x1="-551.462" y1="-468.337" x2="-567.837" y2="-439.962" spreadMethod="pad"><stop offset="0%" stop-color="#CFF27F"/><stop offset="100%" stop-color="#B9E942"/></linearGradient><linearGradient id="w" gradientUnits="userSpaceOnUse" x1="-539.95" y1="-458.95" x2="-551.25" y2="-439.35" spreadMethod="pad"><stop offset="0%" stop-color="#CFF27F"/><stop offset="100%" stop-color="#B9E942"/></linearGradient><linearGradient id="x" gradientUnits="userSpaceOnUse" x1="-556.05" y1="-467.575" x2="-567.85" y2="-447.125" spreadMethod="pad"><stop offset="0%" stop-color="#CFF27F"/><stop offset="100%" stop-color="#B9E942"/></linearGradient><linearGradient id="y" gradientUnits="userSpaceOnUse" x1="-579.663" y1="-408.375" x2="-516.637" y2="-343.125" spreadMethod="pad"><stop offset="0%" stop-color="#B4E732"/><stop offset="100%" stop-color="#89C12D"/></linearGradient><linearGradient id="z" gradientUnits="userSpaceOnUse" x1="-593.725" y1="-428.163" x2="-515.375" y2="-347.038" spreadMethod="pad"><stop offset="0%" stop-color="#A6DA30"/><stop offset="100%" stop-color="#70A92A"/></linearGradient><linearGradient id="A" gradientUnits="userSpaceOnUse" x1="-563.65" y1="-383.1" x2="-602.15" y2="-389.2" spreadMethod="pad"><stop offset="0%" stop-color="#B9E942"/><stop offset="100%" stop-color="#DEF6A9"/></linearGradient><linearGradient id="B" gradientUnits="userSpaceOnUse" x1="-581.225" y1="-396.3" x2="-612.875" y2="-432.7" spreadMethod="pad"><stop offset="0%" stop-color="#B9E942"/><stop offset="100%" stop-color="#DEF6A9"/></linearGradient><linearGradient id="C" gradientUnits="userSpaceOnUse" x1="-576.95" y1="-365.95" x2="-536.25" y2="-365.25" spreadMethod="pad"><stop offset="0%" stop-color="#CFF27F"/><stop offset="100%" stop-color="#A6DA30"/></linearGradient><linearGradient id="D" gradientUnits="userSpaceOnUse" x1="-388.8" y1="-472.887" x2="-395.8" y2="-501.012" spreadMethod="pad"><stop offset="0%" stop-color="#99CE2F"/><stop offset="100%" stop-color="#B9E942"/></linearGradient><linearGradient id="E" gradientUnits="userSpaceOnUse" x1="-391.338" y1="-480.012" x2="-396.363" y2="-501.787" spreadMethod="pad"><stop offset="0%" stop-color="#7DB52C"/><stop offset="43.922%" stop-color="#A6DA30"/><stop offset="100%" stop-color="#B9E942"/></linearGradient><linearGradient id="F" gradientUnits="userSpaceOnUse" x1="-406.463" y1="-484" x2="-377.238" y2="-503.7" spreadMethod="pad"><stop offset="0%" stop-color="#B9E942"/><stop offset="100%" stop-color="#FEFEFE"/></linearGradient><linearGradient id="G" gradientUnits="userSpaceOnUse" x1="-406.012" y1="-505.3" x2="-398.287" y2="-469" spreadMethod="pad"><stop offset="0%" stop-color="#CFF27F"/><stop offset="100%" stop-color="#B9E942"/></linearGradient><linearGradient id="H" gradientUnits="userSpaceOnUse" x1="-400.025" y1="-506.55" x2="-392.375" y2="-470.55" spreadMethod="pad"><stop offset="0%" stop-color="#CFF27F"/><stop offset="100%" stop-color="#B9E942"/></linearGradient><linearGradient id="I" gradientUnits="userSpaceOnUse" x1="-401.55" y1="-505.963" x2="-393.85" y2="-469.738" spreadMethod="pad"><stop offset="0%" stop-color="#CFF27F"/><stop offset="100%" stop-color="#B9E942"/></linearGradient><linearGradient id="J" gradientUnits="userSpaceOnUse" x1="-395.05" y1="-507.463" x2="-387.35" y2="-471.238" spreadMethod="pad"><stop offset="0%" stop-color="#CFF27F"/><stop offset="100%" stop-color="#B9E942"/></linearGradient><linearGradient id="K" gradientUnits="userSpaceOnUse" x1="-398.512" y1="-505.887" x2="-390.988" y2="-470.512" spreadMethod="pad"><stop offset="0%" stop-color="#CFF27F"/><stop offset="100%" stop-color="#B9E942"/></linearGradient><linearGradient id="L" gradientUnits="userSpaceOnUse" x1="-390.938" y1="-509.225" x2="-382.962" y2="-471.675" spreadMethod="pad"><stop offset="0%" stop-color="#CFF27F"/><stop offset="100%" stop-color="#B9E942"/></linearGradient><linearGradient id="M" gradientUnits="userSpaceOnUse" x1="-388.063" y1="-510.413" x2="-380.038" y2="-472.688" spreadMethod="pad"><stop offset="0%" stop-color="#CFF27F"/><stop offset="100%" stop-color="#B9E942"/></linearGradient><linearGradient id="N" gradientUnits="userSpaceOnUse" x1="-384.063" y1="-510.725" x2="-376.038" y2="-472.975" spreadMethod="pad"><stop offset="0%" stop-color="#CFF27F"/><stop offset="100%" stop-color="#B9E942"/></linearGradient><linearGradient id="O" gradientUnits="userSpaceOnUse" x1="-382.5" y1="-511.037" x2="-374.5" y2="-473.363" spreadMethod="pad"><stop offset="0%" stop-color="#CFF27F"/><stop offset="100%" stop-color="#B9E942"/></linearGradient><linearGradient id="P" gradientUnits="userSpaceOnUse" x1="-379.35" y1="-511.737" x2="-371.45" y2="-474.563" spreadMethod="pad"><stop offset="0%" stop-color="#CFF27F"/><stop offset="100%" stop-color="#B9E942"/></linearGradient><linearGradient id="Q" gradientUnits="userSpaceOnUse" x1="-385.95" y1="-508.775" x2="-378.15" y2="-472.125" spreadMethod="pad"><stop offset="0%" stop-color="#CFF27F"/><stop offset="100%" stop-color="#B9E942"/></linearGradient><linearGradient id="R" gradientUnits="userSpaceOnUse" x1="-369.175" y1="-510.175" x2="-360.025" y2="-476.025" spreadMethod="pad"><stop offset="0%" stop-color="#CFF27F"/><stop offset="100%" stop-color="#B9E942"/></linearGradient><linearGradient id="S" gradientUnits="userSpaceOnUse" x1="-375.875" y1="-508.238" x2="-365.025" y2="-470.363" spreadMethod="pad"><stop offset="0%" stop-color="#CFF27F"/><stop offset="100%" stop-color="#B9E942"/></linearGradient><linearGradient id="T" gradientUnits="userSpaceOnUse" x1="-386.05" y1="-507.825" x2="-378.45" y2="-472.075" spreadMethod="pad"><stop offset="0%" stop-color="#CFF27F"/><stop offset="100%" stop-color="#B9E942"/></linearGradient><linearGradient id="U" gradientUnits="userSpaceOnUse" x1="-404.875" y1="-505.688" x2="-396.825" y2="-467.813" spreadMethod="pad"><stop offset="0%" stop-color="#CFF27F"/><stop offset="100%" stop-color="#B9E942"/></linearGradient><linearGradient id="V" gradientUnits="userSpaceOnUse" x1="-407.137" y1="-499.7" x2="-393.863" y2="-453.4" spreadMethod="pad"><stop offset="0%" stop-color="#CFF27F"/><stop offset="100%" stop-color="#B9E942"/></linearGradient><linearGradient id="W" gradientUnits="userSpaceOnUse" x1="-403.5" y1="-499.225" x2="-393.9" y2="-465.775" spreadMethod="pad"><stop offset="0%" stop-color="#CFF27F"/><stop offset="100%" stop-color="#B9E942"/></linearGradient><linearGradient id="X" gradientUnits="userSpaceOnUse" x1="-387.525" y1="-504.888" x2="-377.475" y2="-469.813" spreadMethod="pad"><stop offset="0%" stop-color="#CFF27F"/><stop offset="100%" stop-color="#B9E942"/></linearGradient><linearGradient id="Y" gradientUnits="userSpaceOnUse" x1="-394.975" y1="-507.313" x2="-380.925" y2="-458.288" spreadMethod="pad"><stop offset="0%" stop-color="#CFF27F"/><stop offset="100%" stop-color="#B9E942"/></linearGradient><linearGradient id="Z" gradientUnits="userSpaceOnUse" x1="-415.588" y1="-495.712" x2="-406.113" y2="-462.688" spreadMethod="pad"><stop offset="0%" stop-color="#CFF27F"/><stop offset="100%" stop-color="#B9E942"/></linearGradient><linearGradient id="aa" gradientUnits="userSpaceOnUse" x1="-388.188" y1="-504" x2="-378.112" y2="-468.9" spreadMethod="pad"><stop offset="0%" stop-color="#CFF27F"/><stop offset="100%" stop-color="#B9E942"/></linearGradient><linearGradient id="ab" gradientUnits="userSpaceOnUse" x1="-456.375" y1="-363.675" x2="-491.825" y2="-333.925" spreadMethod="pad"><stop offset="0%" stop-color="#B4E732"/><stop offset="100%" stop-color="#89C12D"/></linearGradient><linearGradient id="ac" gradientUnits="userSpaceOnUse" x1="-445.637" y1="-372" x2="-491.262" y2="-333.7" spreadMethod="pad"><stop offset="0%" stop-color="#A6DA30"/><stop offset="100%" stop-color="#70A92A"/></linearGradient><linearGradient id="ad" gradientUnits="userSpaceOnUse" x1="-462.05" y1="-347.063" x2="-442.35" y2="-347.737" spreadMethod="pad"><stop offset="0%" stop-color="#B9E942"/><stop offset="100%" stop-color="#DEF6A9"/></linearGradient><linearGradient id="ae" gradientUnits="userSpaceOnUse" x1="-453.975" y1="-355.912" x2="-435.225" y2="-373.387" spreadMethod="pad"><stop offset="0%" stop-color="#B9E942"/><stop offset="100%" stop-color="#DEF6A9"/></linearGradient><linearGradient id="af" gradientUnits="userSpaceOnUse" x1="-454.7" y1="-333.925" x2="-475.2" y2="-336.075" spreadMethod="pad"><stop offset="0%" stop-color="#CFF27F"/><stop offset="100%" stop-color="#A6DA30"/></linearGradient><linearGradient id="ag" gradientUnits="userSpaceOnUse" x1="-622.675" y1="-704.275" x2="-458.425" y2="-637.925" spreadMethod="pad"><stop offset="0%" stop-color="#FB8E72"/><stop offset="100%" stop-color="#FD643D"/></linearGradient><linearGradient id="ah" gradientUnits="userSpaceOnUse" x1="-614.263" y1="-696.088" x2="-588.438" y2="-677.313" spreadMethod="pad"><stop offset="0%" stop-color="#FD643D"/><stop offset="100%" stop-color="#FB8E72"/></linearGradient><linearGradient id="ai" gradientUnits="userSpaceOnUse" x1="-580.7" y1="-677.813" x2="-600.3" y2="-702.888" spreadMethod="pad"><stop offset="0%" stop-color="#FB8E72"/><stop offset="100%" stop-color="#FBD6C6"/></linearGradient><linearGradient id="aj" gradientUnits="userSpaceOnUse" x1="-549.4" y1="-732.675" x2="-571.6" y2="-689.125" spreadMethod="pad"><stop offset="0%" stop-color="#FE3709"/><stop offset="100%" stop-color="#FB8C71"/></linearGradient><linearGradient id="ak" gradientUnits="userSpaceOnUse" x1="-459.238" y1="-735.738" x2="-489.162" y2="-689.663" spreadMethod="pad"><stop offset="0%" stop-color="#FE3709"/><stop offset="100%" stop-color="#FD6449"/></linearGradient><linearGradient id="al" gradientUnits="userSpaceOnUse" x1="-632.563" y1="-606.55" x2="-606.237" y2="-623.65" spreadMethod="pad"><stop offset="0%" stop-color="#FD643D"/><stop offset="100%" stop-color="#FE3709"/></linearGradient><linearGradient id="am" gradientUnits="userSpaceOnUse" x1="-456.812" y1="-722.462" x2="-582.287" y2="-729.038" spreadMethod="pad"><stop offset="0%" stop-color="#FC8160"/><stop offset="47.059%" stop-color="#FAB296"/><stop offset="100%" stop-color="#FB997A"/></linearGradient><linearGradient id="an" gradientUnits="userSpaceOnUse" x1="-627.575" y1="-539.8" x2="-455.725" y2="-533.8" spreadMethod="pad"><stop offset="0%" stop-color="#FE5138"/><stop offset="65.882%" stop-color="#FE3709"/><stop offset="100%" stop-color="#D52D13"/></linearGradient><linearGradient id="ao" gradientUnits="userSpaceOnUse" x1="-498.413" y1="-478.913" x2="-463.788" y2="-483.788" spreadMethod="pad"><stop offset="0%" stop-color="#FE5138"/><stop offset="100%" stop-color="#FEFEFE"/></linearGradient><linearGradient id="ap" gradientUnits="userSpaceOnUse" x1="-613.425" y1="-570.288" x2="-645.075" y2="-557.512" spreadMethod="pad"><stop offset="0%" stop-color="#FD6442"/><stop offset="100%" stop-color="#FB9D83"/></linearGradient><linearGradient id="aq" gradientUnits="userSpaceOnUse" x1="-572.675" y1="-528.738" x2="-589.125" y2="-489.963" spreadMethod="pad"><stop offset="0%" stop-color="#FE533A"/><stop offset="100%" stop-color="#FB9277"/></linearGradient><linearGradient id="ar" gradientUnits="userSpaceOnUse" x1="-542.775" y1="-481.725" x2="-537.225" y2="-526.875" spreadMethod="pad"><stop offset="0%" stop-color="#E1300B"/><stop offset="100%" stop-color="#FE411A"/></linearGradient><linearGradient id="as" gradientUnits="userSpaceOnUse" x1="-445.237" y1="-500.15" x2="-454.563" y2="-530.65" spreadMethod="pad"><stop offset="0%" stop-color="#A8240F"/><stop offset="100%" stop-color="#D52D13"/></linearGradient><linearGradient id="at" gradientUnits="userSpaceOnUse" x1="-450.8" y1="-484" x2="-462.6" y2="-522.6" spreadMethod="pad"><stop offset="0%" stop-color="#A8240F"/><stop offset="100%" stop-color="#D52D13"/></linearGradient><linearGradient id="au" gradientUnits="userSpaceOnUse" x1="-469.725" y1="-473.575" x2="-473.275" y2="-524.525" spreadMethod="pad"><stop offset="0%" stop-color="#FD6449"/><stop offset="100%" stop-color="#FE3709"/></linearGradient><linearGradient id="av" gradientUnits="userSpaceOnUse" x1="-481.163" y1="-550.913" x2="-557.738" y2="-538.788" spreadMethod="pad"><stop offset="0%" stop-color="#BF290E"/><stop offset="100%" stop-color="#F23411"/></linearGradient><linearGradient id="aw" gradientUnits="userSpaceOnUse" x1="-417.763" y1="-562.5" x2="-408.938" y2="-646.4" spreadMethod="pad"><stop offset="0%" stop-color="#AB240D"/><stop offset="100%" stop-color="#DA2E10"/></linearGradient><linearGradient id="ax" gradientUnits="userSpaceOnUse" x1="-401.25" y1="-588.038" x2="-378.05" y2="-582.262" spreadMethod="pad"><stop offset="0%" stop-color="#D12D0F"/><stop offset="100%" stop-color="#FE3709"/></linearGradient><linearGradient id="ay" gradientUnits="userSpaceOnUse" x1="-485.463" y1="-561.012" x2="-464.137" y2="-616.587" spreadMethod="pad"><stop offset="0%" stop-color="#FE411A"/><stop offset="100%" stop-color="#E93212"/></linearGradient><linearGradient id="az" gradientUnits="userSpaceOnUse" x1="-472.125" y1="-563.825" x2="-477.675" y2="-643.075" spreadMethod="pad"><stop offset="0%" stop-color="#F83513"/><stop offset="100%" stop-color="#CA2B0F"/></linearGradient><linearGradient id="aA" gradientUnits="userSpaceOnUse" x1="-467.6" y1="-572.9" x2="-453" y2="-552.8" spreadMethod="pad"><stop offset="0%" stop-color="#FE370F"/><stop offset="100%" stop-color="#FC8360"/></linearGradient><linearGradient id="aB" gradientUnits="userSpaceOnUse" x1="-462.825" y1="-565.15" x2="-457.275" y2="-536.65" spreadMethod="pad"><stop offset="0%" stop-color="#E03014"/><stop offset="100%" stop-color="#FE3709"/></linearGradient><linearGradient id="aC" gradientUnits="userSpaceOnUse" x1="-418.588" y1="-598.75" x2="-460.512" y2="-614.85" spreadMethod="pad"><stop offset="0%" stop-color="#FE532C"/><stop offset="45.098%" stop-color="#FE3709"/><stop offset="100%" stop-color="#E03014"/></linearGradient><linearGradient id="aD" gradientUnits="userSpaceOnUse" x1="-487.15" y1="-636.025" x2="-448.45" y2="-665.175" spreadMethod="pad"><stop offset="0%" stop-color="#BB280E"/><stop offset="100%" stop-color="#DC2F11"/></linearGradient><linearGradient id="aE" gradientUnits="userSpaceOnUse" x1="-604.163" y1="-504.925" x2="-600.137" y2="-530.275" spreadMethod="pad"><stop offset="0%" stop-color="#E1300B"/><stop offset="100%" stop-color="#FE411A"/></linearGradient><linearGradient id="aF" gradientUnits="userSpaceOnUse" x1="-576.675" y1="-486.1" x2="-573.225" y2="-514.3" spreadMethod="pad"><stop offset="0%" stop-color="#E1300B"/><stop offset="100%" stop-color="#FE411A"/></linearGradient><linearGradient id="aG" gradientUnits="userSpaceOnUse" x1="-560.375" y1="-553.725" x2="-547.125" y2="-611.175" spreadMethod="pad"><stop offset="0%" stop-color="#FE532C"/><stop offset="100%" stop-color="#FE3709"/></linearGradient><linearGradient id="aH" gradientUnits="userSpaceOnUse" x1="-519.387" y1="-581.925" x2="-521.913" y2="-552.975" spreadMethod="pad"><stop offset="0%" stop-color="#EC3207"/><stop offset="100%" stop-color="#F83508"/></linearGradient><linearGradient id="aI" gradientUnits="userSpaceOnUse" x1="-580.563" y1="-599.425" x2="-629.138" y2="-584.575" spreadMethod="pad"><stop offset="0%" stop-color="#FE532C"/><stop offset="100%" stop-color="#FBC9B5"/></linearGradient><linearGradient id="aJ" gradientUnits="userSpaceOnUse" x1="-640.875" y1="-570.925" x2="-615.725" y2="-508.675" spreadMethod="pad"><stop offset="0%" stop-color="#FBBBA4"/><stop offset="100%" stop-color="#FE411A"/></linearGradient><linearGradient id="aK" gradientUnits="userSpaceOnUse" x1="-610.5" y1="-648.375" x2="-601.2" y2="-559.825" spreadMethod="pad"><stop offset="0%" stop-color="#FC8163"/><stop offset="63.922%" stop-color="#FBC9B3"/><stop offset="100%" stop-color="#FBAC93"/></linearGradient><linearGradient id="aL" gradientUnits="userSpaceOnUse" x1="-555.188" y1="-583.563" x2="-597.313" y2="-559.237" spreadMethod="pad"><stop offset="0%" stop-color="#FE5333"/><stop offset="100%" stop-color="#FBC1AC"/></linearGradient><linearGradient id="aM" gradientUnits="userSpaceOnUse" x1="-549.225" y1="-563.163" x2="-559.975" y2="-530.038" spreadMethod="pad"><stop offset="0%" stop-color="#FD6442"/><stop offset="100%" stop-color="#FB8E72"/></linearGradient><linearGradient id="aN" gradientUnits="userSpaceOnUse" x1="-558.438" y1="-569.237" x2="-584.862" y2="-541.862" spreadMethod="pad"><stop offset="0%" stop-color="#FE5333"/><stop offset="100%" stop-color="#FBC1AC"/></linearGradient><linearGradient id="aO" gradientUnits="userSpaceOnUse" x1="-533.588" y1="-639.775" x2="-550.313" y2="-666.525" spreadMethod="pad"><stop offset="0%" stop-color="#F0330E"/><stop offset="100%" stop-color="#E5310D"/></linearGradient><radialGradient id="aP" gradientUnits="userSpaceOnUse" cx="0" cy="0" r="53.8" fx="0" fy="0" gradientTransform="matrix(1 0 0 -1 -515 -608.9)" spreadMethod="pad"><stop offset="0%" stop-color="#8C1E0B"/><stop offset="100%" stop-color="#DA2E0F"/></radialGradient><linearGradient id="aQ" gradientUnits="userSpaceOnUse" x1="-485.5" y1="-598.337" x2="-439.7" y2="-566.262" spreadMethod="pad"><stop offset="0%" stop-color="#A4230C"/><stop offset="38.824%" stop-color="#D42D0B"/><stop offset="100%" stop-color="#F23407"/></linearGradient><linearGradient id="aR" gradientUnits="userSpaceOnUse" x1="-545.962" y1="-625.9" x2="-578.837" y2="-628.2" spreadMethod="pad"><stop offset="0%" stop-color="#71180B"/><stop offset="100%" stop-color="#D52D10"/></linearGradient><linearGradient id="aS" gradientUnits="userSpaceOnUse" x1="-541.712" y1="-612.013" x2="-578.887" y2="-598.487" spreadMethod="pad"><stop offset="0%" stop-color="#71180B"/><stop offset="100%" stop-color="#E93212"/></linearGradient><linearGradient id="aT" gradientUnits="userSpaceOnUse" x1="-543.438" y1="-601.95" x2="-581.063" y2="-588.25" spreadMethod="pad"><stop offset="0%" stop-color="#831C0C"/><stop offset="100%" stop-color="#E93211"/></linearGradient><linearGradient id="aU" gradientUnits="userSpaceOnUse" x1="-490.237" y1="-620.862" x2="-537.063" y2="-592.737" spreadMethod="pad"><stop offset="0%" stop-color="#1C0500"/><stop offset="100%" stop-color="#5A1703"/></linearGradient><linearGradient id="aV" gradientUnits="userSpaceOnUse" x1="-491.6" y1="-566.688" x2="-481.6" y2="-537.612" spreadMethod="pad"><stop offset="0%" stop-color="#FE370F"/><stop offset="100%" stop-color="#FC8360"/></linearGradient><linearGradient id="aW" gradientUnits="userSpaceOnUse" x1="-464.387" y1="-564.575" x2="-457.613" y2="-551.825" spreadMethod="pad"><stop offset="0%" stop-color="#FD6449"/><stop offset="100%" stop-color="#FBB49C"/></linearGradient><linearGradient id="aX" gradientUnits="userSpaceOnUse" x1="-458.763" y1="-555.413" x2="-468.938" y2="-573.788" spreadMethod="pad"><stop offset="0%" stop-color="#FBDACC"/><stop offset="38.824%" stop-color="#FB8C71"/><stop offset="100%" stop-color="#FE3709"/></linearGradient><linearGradient id="aY" gradientUnits="userSpaceOnUse" x1="-459.9" y1="-555.938" x2="-469.5" y2="-574.763" spreadMethod="pad"><stop offset="0%" stop-color="#FCECE4"/><stop offset="38.824%" stop-color="#FBB49C"/><stop offset="100%" stop-color="#FB8C71"/></linearGradient><linearGradient id="aZ" gradientUnits="userSpaceOnUse" x1="-487.313" y1="-508.587" x2="-484.587" y2="-496.813" spreadMethod="pad"><stop offset="0%" stop-color="#C62A10"/><stop offset="100%" stop-color="#DE2F13"/></linearGradient><linearGradient id="ba" gradientUnits="userSpaceOnUse" x1="-486.875" y1="-507.575" x2="-484.625" y2="-501.425" spreadMethod="pad"><stop offset="0%" stop-color="#FD5E43"/><stop offset="100%" stop-color="#FBA68A"/></linearGradient><linearGradient id="bb" gradientUnits="userSpaceOnUse" x1="-484.863" y1="-502.938" x2="-488.238" y2="-511.763" spreadMethod="pad"><stop offset="0%" stop-color="#FBDECE"/><stop offset="38.824%" stop-color="#FB9477"/><stop offset="100%" stop-color="#FE3F24"/></linearGradient><linearGradient id="bc" gradientUnits="userSpaceOnUse" x1="-485.225" y1="-502.825" x2="-488.275" y2="-511.675" spreadMethod="pad"><stop offset="0%" stop-color="#FCEADF"/><stop offset="38.824%" stop-color="#FBB79D"/><stop offset="100%" stop-color="#FB9477"/></linearGradient><linearGradient id="bd" gradientUnits="userSpaceOnUse" x1="-603.237" y1="-544.688" x2="-618.362" y2="-524.612" spreadMethod="pad"><stop offset="0%" stop-color="#EB3210"/><stop offset="100%" stop-color="#FE411A"/></linearGradient><linearGradient id="be" gradientUnits="userSpaceOnUse" x1="-618.013" y1="-534.762" x2="-603.487" y2="-543.837" spreadMethod="pad"><stop offset="0%" stop-color="#FBC7B2"/><stop offset="38.824%" stop-color="#FD6449"/><stop offset="100%" stop-color="#F73516"/></linearGradient><linearGradient id="bf" gradientUnits="userSpaceOnUse" x1="-617.038" y1="-534.875" x2="-602.663" y2="-544.225" spreadMethod="pad"><stop offset="0%" stop-color="#FEFEFE"/><stop offset="38.824%" stop-color="#FBA186"/><stop offset="100%" stop-color="#FE5138"/></linearGradient><linearGradient id="bg" gradientUnits="userSpaceOnUse" x1="-510.863" y1="-620.875" x2="-511.238" y2="-599.225" spreadMethod="pad"><stop offset="0%" stop-color="#F3D72A"/><stop offset="100%" stop-color="#70A92A"/></linearGradient><linearGradient id="bh" gradientUnits="userSpaceOnUse" x1="-518.375" y1="-602.188" x2="-517.425" y2="-629.612" spreadMethod="pad"><stop offset="0%" stop-color="#A3440D"/><stop offset="100%" stop-color="#EBC226"/></linearGradient><linearGradient id="bi" gradientUnits="userSpaceOnUse" x1="-504.488" y1="-601.7" x2="-503.512" y2="-629.5" spreadMethod="pad"><stop offset="0%" stop-color="#A3440D"/><stop offset="100%" stop-color="#EBC226"/></linearGradient><linearGradient id="bj" gradientUnits="userSpaceOnUse" x1="-511.375" y1="-601.938" x2="-510.425" y2="-628.963" spreadMethod="pad"><stop offset="0%" stop-color="#A3440D"/><stop offset="100%" stop-color="#EBC226"/></linearGradient><linearGradient id="bk" gradientUnits="userSpaceOnUse" x1="-520.4" y1="-601.213" x2="-519.4" y2="-630.188" spreadMethod="pad"><stop offset="0%" stop-color="#A3440D"/><stop offset="100%" stop-color="#EBC226"/></linearGradient><linearGradient id="bl" gradientUnits="userSpaceOnUse" x1="-502.462" y1="-600.587" x2="-501.438" y2="-630.012" spreadMethod="pad"><stop offset="0%" stop-color="#A3440D"/><stop offset="100%" stop-color="#EBC226"/></linearGradient><linearGradient id="bm" gradientUnits="userSpaceOnUse" x1="-519.487" y1="-602.2" x2="-518.513" y2="-630.1" spreadMethod="pad"><stop offset="0%" stop-color="#A3440D"/><stop offset="100%" stop-color="#EBC226"/></linearGradient><linearGradient id="bn" gradientUnits="userSpaceOnUse" x1="-503.338" y1="-601.6" x2="-502.363" y2="-629.4" spreadMethod="pad"><stop offset="0%" stop-color="#A3440D"/><stop offset="100%" stop-color="#EBC226"/></linearGradient><linearGradient id="bo" gradientUnits="userSpaceOnUse" x1="-510.663" y1="-622.95" x2="-510.438" y2="-629.55" spreadMethod="pad"><stop offset="0%" stop-color="#F2E661"/><stop offset="100%" stop-color="#FEFEFE"/></linearGradient><path fill="#FFF" fill-opacity="0" d="M284 0H0v320h284V0z" id="bp"/><path fill="#C7EF6A" d="M-521.3-412.25q-15.85-30.4-44.85-51.05l-1.15 1.65q28.6 20.35 44.3 50.4 15.65 30.1 19.8 72.8l1.95-.2q-4.2-43.15-20.05-73.6z" id="bq"/><path fill="url(#a)" d="M-572.65-459.25l1.15.55q.2 1.3.85 2.95h-.85l1.1.5q.9 2.1 2.45 3.8l-.85.2 1.2.25 1.45 1.5q5 4.5 12.45 6.4 7.4 1.85 9.95-.7 1.45-1.45 1.15-4.85-.3-3.3-2.05-7.1l-.5-2.35-.2.8q-1.15-2.3-2.65-4.25l-.45-2.15-.3 1.15q-1-1.2-2.3-2.35-4.65-4.25-10.55-4.65-5.35-.4-8 2.35-1.25 1.25-1.8 3.35t-.25 4.55l-1 .05z" id="br"/><path fill="url(#b)" d="M-568.3-468.25q-1.7 3.95-.05 8.6 1.55 4.35 5.55 8.15 8.95 8.55 19.4 7.2 1.05-1.65.7-4.85-.4-3.05-1.95-6.6l-.5-2.35-.2.8q-1.15-2.3-2.65-4.25l-.45-2.15-.3 1.15q-1-1.2-2.3-2.35-4.15-3.75-9.4-4.55-4.7-.7-7.85 1.2z" id="bs"/><path fill="url(#c)" d="M-552.05-461.05q5.9 5.5 8.5 13.5-.3-8.15-6.55-14.75-7.55-7.95-18.45-4.9 9.25-.55 16.5 6.15z" id="bt"/><path fill="url(#d)" d="M-554.4-443.95q.55.05.85-.35.3-.35.2-.75-.1-.7-1.15-.35l-3.3 1.2 3.4.25z" id="bu"/><path fill="url(#e)" d="M-557.75-445.9q-.1-.6-.85-.35l-2.6 1 2.6.2q.45 0 .7-.3.25-.25.15-.55z" id="bv"/><path fill="url(#f)" d="M-556.6-446.7q.45.05.7-.25.25-.25.2-.6-.2-.55-.95-.3l-2.55.95 2.6.2z" id="bw"/><path fill="url(#g)" d="M-561.05-446.65q.6 0 .9-.35.35-.35.25-.8-.25-.65-1.2-.4l-3.5 1.3 3.55.25z" id="bx"/><path fill="#A6DA30" d="M-561.05-448.85q.4 0 .65-.3.2-.25.15-.55-.15-.55-.85-.3l-2.6.9 2.65.25z" id="by"/><path fill="url(#h)" d="M-557.75-448.95q.35 0 .6-.25.2-.2.15-.45-.15-.4-.75-.3l-2.15.8 2.15.2z" id="bz"/><path fill="url(#i)" d="M-562.65-450.75q.35.05.6-.15.2-.2.15-.5 0-.45-.65-.25l-2.25.55 2.15.35z" id="bA"/><path fill="url(#j)" d="M-565.35-449.3q.45.05.75-.2.25-.25.15-.6 0-.6-.85-.4l-2.8.8 2.75.4z" id="bB"/><path fill="url(#k)" d="M-566.9-452.45q.3.05.55-.15.2-.2.2-.45 0-.45-.65-.35l-2 .45 1.9.5z" id="bC"/><path fill="url(#l)" d="M-568.9-454.9l1.85.55q.3.1.55-.1.2-.15.2-.4 0-.4-.6-.35l-2 .3z" id="bD"/><path fill="url(#m)" d="M-569.55-453.3q.45.15.8-.15.3-.25.3-.6 0-.7-.9-.55l-2.95.4 2.75.9z" id="bE"/><path fill="#B4E732" d="M-569.7-457.05q.45.15.8-.1.3-.2.3-.55 0-.6-.8-.6l-2.8.35 2.5.9z" id="bF"/><path fill="#A6DA30" d="M-559.4-452.65q1.05.3 1.25-.8 0-.3-.3-.45-.25-.2-.65-.15l-3.15.5 2.85.9z" id="bG"/><path fill="url(#n)" d="M-563.4-455.35q.45.2.8 0 .35-.25.4-.65.1-.65-.8-.65l-3.1.1 2.7 1.2z" id="bH"/><path fill="#A6DA30" d="M-569.6-460.8l2.55 1.8q.45.3.85.1.45-.2.55-.6.25-.75-.75-.9l-3.2-.4z" id="bI"/><path fill="#B4E732" d="M-571.2-462.45q.4.25.8.1.4-.2.5-.55.2-.6-.75-.8l-2.95-.4 2.4 1.65z" id="bJ"/><path fill="url(#o)" d="M-571.05-465.9q.25.25.55.2.3-.05.45-.35.25-.4-.35-.65l-1.95-.8 1.3 1.6z" id="bK"/><path fill="url(#p)" d="M-564.3-469.5q.15.75.9.35.4-.3.05-.8l-1.1-1.75.15 2.2z" id="bL"/><path fill="#DEF6A9" d="M-561.75-468.45q0 .55.4.75.35.2.75 0 .7-.45.35-1.2l-1.45-2.8-.05 3.25z" id="bM"/><path fill="#A6DA30" d="M-548.6-443.55q.55-.15.75-.6.15-.4-.1-.75-.5-.5-1.3.05l-2.75 2.35 3.4-1.05z" id="bN"/><path fill="url(#q)" d="M-562.65-457.2q.7.3.9-.45.05-.4-.5-.5h-2.1l1.7.95z" id="bO"/><path fill="url(#r)" d="M-552.7-449.85q.8.1.8-.65 0-.5-.75-.3l-2.15.45 2.1.5z" id="bP"/><path fill="#B4E732" d="M-565-465.2q.05.3.3.35.2 0 .4-.15.4-.3-.05-.65l-1.25-1.15.6 1.6z" id="bQ"/><path fill="url(#s)" d="M-546.25-457.1q.4-.35.3-1l-.65-3.45-1 3.55q-.25 1.15.5 1.15.5.05.85-.25z" id="bR"/><path fill="#DEF6A9" d="M-548.15-453.95q.35-.35.3-.9l-.6-3.1-.95 3.2q-.25 1 .5 1.05.4.1.75-.25z" id="bS"/><path fill="#DEF6A9" d="M-550.6-459.15q.25-.25.2-.65l-.4-2.5-.75 2.5q-.25.75.35.85.35.1.6-.2z" id="bT"/><path fill="url(#t)" d="M-549.8-456.4q.25-.2.2-.5l-.45-2.1-.55 2.1q-.25.6.3.7.3 0 .5-.2z" id="bU"/><path fill="#DEF6A9" d="M-550.85-463.45q.25-.35.15-.75l-.7-2.6-.6 2.75q-.1.75.55.85.35 0 .6-.25z" id="bV"/><path fill="url(#u)" d="M-555.35-467q.25-.35.05-.8l-1.15-2.5-.15 2.8q0 .9.65.8.35 0 .6-.3z" id="bW"/><path fill="url(#v)" d="M-555-459.4q.25-.4.05-.85l-1.2-2.7-.2 3.05q0 .9.7.9.4-.1.65-.4z" id="bX"/><path fill="#B9E942" d="M-561.1-463.45q.1-.4-.25-.75l-2.05-1.95.85 2.75q.25.8.9.5.4-.15.55-.55z" id="bY"/><path fill="url(#w)" d="M-544.5-450.05q.3-.2.35-.55v-2.35l-1.05 2.2q-.35.7.2.8.25.1.5-.1z" id="bZ"/><path fill="url(#x)" d="M-558.2-461.8q.15-.25-.05-.5l-1.15-1.6.3 1.95q0 .6.5.5.3-.1.4-.35z" id="ca"/><path fill="#CFF27F" d="M-534.8-434.25q.55-.5.4-1.3l-1.1-4.8-1.3 4.95q-.35 1.45.8 1.6.7.05 1.2-.45z" id="cb"/><path fill="#CFF27F" d="M-524.8-418.2q.55-.55.4-1.3l-1.1-4.8-1.3 4.95q-.35 1.45.8 1.6.65.05 1.2-.45z" id="cc"/><path fill="#CFF27F" d="M-532.45-425.4q.7.45 1.45.25.65-.2.9-.8.2-.5-.15-.9t-1-.55l-5.15-1 3.95 3z" id="cd"/><path fill="url(#y)" d="M-613.15-400.4q-6.5-2.95-14.2-7.55 14.3 15.95 27.9 23.95 15.8 9.3 35.1 10.8-4.4 2.75-17.35.8-13.8-2-25.05-7.9 10.8 12.8 28.7 19.55 15.75 5.9 32.85 5.8 15.25-.15 22.15 1.95 11.8 3.65 17.15 15.5 3.15-24.7-6.15-47.65-9-22.2-26.8-36.35 5.65 8.9 6.2 18.4.35 6.7-1.9 14.3.7-10.85-13.2-30.95-12.65-18.3-24.65-27.5 2.45 2.75 5.65 7.75 4.45 6.9 6.55 12.75 3.5 9.5 2.3 14.1-1.25 5.05-7.7-1.5-8.25-8.5-20.55-26.7-11.85-17.55-13.05-22.4-1.45 6 4.4 23.35 5.5 16.55 9.2 20.25-18.15-12.85-35.2-35.4-21.85-28.9-32.05-62.7 4.1 39.35 16.35 67.05 16.6 37.45 48.8 56.8-13.2-.95-25.45-6.5z" id="ce"/><path fill="url(#z)" d="M-611.95-434.6q-8.02-7.99-13.9-16.1 11.606 16.99 26.65 30.5 13.75 12.35 35.95 25.95 26.2 16.05 32.05 20.5Q-515.7-362-509-348q-5.5-16.55-28.45-33.3-7.55-5.55-21.85-14.55-17.5-11-23.3-14.9-16.75-11.25-29.35-23.85z" id="cf"/><path fill="url(#A)" d="M-596.05-386.5q7.1 4.3 13.95 6.2 17.35 4.75 22.15-8.15-7.65 2.7-20 1.65-14.95-1.3-26.75-8.05 4.1 4.4 10.65 8.35z" id="cg"/><path fill="url(#B)" d="M-619-435.1q2.25 5.8 7.25 13.1 5.35 7.8 11.55 13.8 15.65 15.25 26.2 9.8-9.05-3.45-21.2-12.7-14.7-11.2-23.8-24z" id="ch"/><path fill="url(#C)" d="M-560.25-359.6q20.35 2.45 22.25-12-7.75 4.05-21.6 4.75-16.8.85-31.55-4.6 5.65 4.1 13.95 7.35 8.9 3.55 16.95 4.5z" id="ci"/><path fill="#A6DA30" d="M-498.9-632.55l-8.3-2.2q-10.75 38.3-9.35 90.95.85 30.95 8 91l1.05 9.35q4.85 40.45 4.65 64-.3 42.45-13.7 61.35h13.4q12.15-18.6 10.65-62.05-.55-15.15-2.8-35.15-1.25-11.05-3.6-29.1l-1.1-9.35q-7.1-59.2-7.95-89.75-1.4-51.8 9.05-89.05z" id="cj"/><path fill="#C1ED55" d="M-406-481.65q-22.1 11.2-38 25.6-15.95 14.4-26.35 32.5-10.35 18.05-15.4 40.15-5.1 22.15-5.1 49.25h4q0-26.55 4.95-48.2 4.95-21.65 15.05-39.25 10.1-17.55 25.6-31.55 15.5-14 37.05-24.95l-1.8-3.55z" id="ck"/><path fill="url(#D)" d="M-367.85-498.55q-2.85-5.1-11.05-6.65-9-1.65-17.85 2.85-2.3 1.2-4.4 2.75l.1-1.9-1.6 3.05q-3.15 2.35-5.75 5.3v-1.35l-1.75 3.3q-4.15 5.15-5.95 9.9-1.85 5-.3 7.75 2.7 4.75 14.6 4.9 12.05.1 21.35-4.7 1.7-.85 2.8-1.65l1.85.15-1.15-.65q3.05-2.1 5.25-4.75l1.8-.3-1.2-.4q1.25-1.6 2.5-4.05l1.95-.3-1.6-.5q1.55-3.55 1.65-6.95.1-3.4-1.25-5.8z" id="cl"/><path fill="url(#E)" d="M-369.4-500.55q-4.05-4.05-11.35-4.9-8.2-.9-16 3.1-2.3 1.2-4.4 2.75v-1.9l-1.5 3.05q-3.15 2.35-5.75 5.3v-1.35l-1.75 3.3q-3.8 4.7-5.6 9.15-1.9 4.65-1 7.55 7.25 2.95 16.15 1.95 8.4-.95 15.95-5.05 7.55-4.1 11.7-10 4.45-6.35 3.55-12.95z" id="cm"/><path fill="url(#F)" d="M-396.8-496.15q13.65-7.25 27.25-2.8-15.05-8.75-29.7.15-5.8 3.55-10.25 9.2-4.1 5.2-5.7 10.3 7.25-10.9 18.4-16.85z" id="cn"/><path fill="url(#G)" d="M-401.6-470.45q.35.7 1.2.85l5.15.95-4.45-3.1q-.6-.4-1.15-.35-.5.05-.7.5-.35.55-.05 1.15z" id="co"/><path fill="url(#H)" d="M-394.65-470.3q.3.55.95.65l4 .75-3.45-2.4q-.4-.35-.85-.35-.4.05-.6.4-.3.4-.05.95z" id="cp"/><path fill="url(#I)" d="M-396.95-473.5q.25.5.9.65l4.05.75-3.45-2.45q-1.05-.55-1.5.15-.25.4 0 .9z" id="cq"/><path fill="url(#J)" d="M-390.55-471.95q.35.75 1.2.9l5.35.95-4.6-3.15q-.6-.45-1.15-.45-.55 0-.8.5-.3.6 0 1.25z" id="cr"/><path fill="#A6DA30" d="M-389.25-475.05q.25.55.85.7l4.05.7-3.45-2.45q-1-.6-1.45.15-.25.4 0 .9z" id="cs"/><path fill="url(#K)" d="M-394.1-476.35q.2.45.75.55l3.3.6-2.9-2.05q-.9-.45-1.2.1-.15.4.05.8z" id="ct"/><path fill="url(#L)" d="M-386.05-477q.25.45.8.5l3.35.3-3.05-1.75q-.35-.2-.7-.15-.35.05-.45.35-.15.35.05.75z" id="cu"/><path fill="url(#M)" d="M-382.8-473.85q.3.55 1.05.6l4.25.35-3.85-2.25q-1.2-.65-1.5.3-.25.5.05 1z" id="cv"/><path fill="url(#N)" d="M-378.95-477.9q.3.4.8.4l3.1.05-2.9-1.45q-.9-.35-1.1.3-.1.35.1.7z" id="cw"/><path fill="url(#O)" d="M-377.9-480.55q.3.35.75.35l3.1-.1-2.95-1.25q-.9-.35-1.05.3-.1.35.15.7z" id="cx"/><path fill="url(#P)" d="M-374.9-478.15q.35.5 1.1.5l4.4-.25-4.25-1.75q-1.25-.55-1.5.4-.1.6.25 1.1z" id="cy"/><path fill="#B4E732" d="M-373.1-483.7q.35.5 1.05.5l4.2-.35-4.05-1.6q-1.2-.3-1.45.5-.1.5.25.95z" id="cz"/><path fill="#A6DA30" d="M-390.55-481.2q.45.55 1.2.5l4.7-.2-4.45-1.95q-.6-.25-1.1-.1-.5.15-.55.6-.2.6.2 1.15z" id="cA"/><path fill="url(#Q)" d="M-383.35-483.45q.45.5 1.2.4l4.5-.8-4.55-1.35q-.6-.2-1.05 0-.4.2-.45.7-.1.6.35 1.05z" id="cB"/><path fill="#A6DA30" d="M-376.55-487.35q.6.45 1.4.2l4.6-1.75-5.1-.65q-.6-.05-1 .25-.45.3-.45.85 0 .65.55 1.1z" id="cC"/><path fill="#B4E732" d="M-368.75-490.9q.55.4 1.25.2l4.25-1.55-4.6-.6q-1.4-.1-1.4.95 0 .65.5 1z" id="cD"/><path fill="url(#R)" d="M-367.2-495.9q.45.2.9-.05l2.6-1.95-3.25.45q-.9.1-.8.95.1.4.55.6z" id="cE"/><path fill="url(#S)" d="M-375.6-503.45q.45-.05.65-.55l1.15-3.2-2.45 2.2q-.6.65-.05 1.2.3.35.7.35z" id="cF"/><path fill="#DEF6A9" d="M-380.05-502.4q.7-.15.95-.95l1.15-5-3.25 3.7q-.9 1.15 0 1.95.55.4 1.15.3z" id="cG"/><path fill="#A6DA30" d="M-410.15-472.45q.05.75.8 1.2l4.7 2.8-3.2-4.45q-.4-.55-.95-.75-.5-.15-.9.1-.5.4-.45 1.1z" id="cH"/><path fill="url(#T)" d="M-383.4-486.45q.35.3.85.2l3-.7-3.15-.8q-.95-.1-1 .6 0 .4.3.7z" id="cI"/><path fill="url(#U)" d="M-401.3-479.6q.25.45.8.5l3.3.05-3.05-1.55q-1-.55-1.15.2-.15.45.1.8z" id="cJ"/><path fill="#B4E732" d="M-376.25-496.95q.4.05.65-.3l1.45-2.25-2.3 1.25q-.3.15-.4.45-.1.25.05.5.15.3.55.35z" id="cK"/><path fill="url(#V)" d="M-407.25-494.1q-.35.85.1 1.55.35.7 1.1.8 1.2.1 1.3-1.55l-.05-5.65-2.45 4.85z" id="cL"/><path fill="#DEF6A9" d="M-405.65-488.45q-.4.75 0 1.4.4.6 1.05.7 1.15.1 1.15-1.4l-.05-5.15-2.15 4.45z" id="cM"/><path fill="#DEF6A9" d="M-399.85-495q-.25.6.05 1.1.3.45.8.55.95.1.95-1.1l-.05-4-1.75 3.45z" id="cN"/><path fill="url(#W)" d="M-402.15-491q-.2.55.05.95.25.35.7.45.65.1.75-.9l-.05-3.45-1.45 2.95z" id="cO"/><path fill="#DEF6A9" d="M-397.55-501.4q-.3.55 0 1.15.25.55.75.65.95.15 1.15-1.1l.25-4.25-2.15 3.55z" id="cP"/><path fill="url(#X)" d="M-389.1-505q-.45.55-.25 1.15.2.55.75.75.45.2.85-.1.35-.25.45-.8l.9-4.35-2.7 3.35z" id="cQ"/><path fill="url(#Y)" d="M-392.8-493.8q-.5.65-.25 1.3.25.55.85.8.5.15.85-.1.4-.3.5-.9l1-4.7-2.95 3.6z" id="cR"/><path fill="#B9E942" d="M-381.55-497.25q-.6.35-.6 1.05 0 .6.45.95.4.35.85.25.5-.1.8-.6l2.45-3.65-3.95 2z" id="cS"/><path fill="url(#Z)" d="M-413-483.65q-.15.65.2 1.05.3.4.8.4.4-.05.55-.35.2-.35.1-.85l-.65-3.75-1 3.5z" id="cT"/><path fill="url(#aa)" d="M-384.65-497.6l-2.4 1.95q-.35.35-.25.8.1.4.5.65.65.35 1-.5l1.15-2.9z" id="cU"/><path fill="#CFF27F" d="M-467.8-420.2q1 .6 2.15.05l7-3.5-8.2.05q-1.1.1-1.65.6-.65.5-.45 1.3.15 1 1.15 1.5z" id="cV"/><path fill="#CFF27F" d="M-448.9-446.35q.6.3 1.25-.05l4.1-2.05-4.8.1q-1.35 0-1.25 1.1.15.6.7.9z" id="cW"/><path fill="#A6DA30" d="M-481-396.8l-2.45-5.1-.2 5.9q0 .75.35 1.2.35.45 1 .35.75-.1 1.2-.75.45-.75.1-1.6z" id="cX"/><path fill="#CFF27F" d="M-484.9-366.5q.75-.15 1.1-.95l1.9-4.6-4 3.45q-1.1 1-.2 1.8.5.45 1.2.3z" id="cY"/><path fill="url(#ab)" d="M-430-359.6q-1.5.85-7.15 4.3-6.15 3-12.9 2.85 16.2-11.2 24.2-35.55 5.9-18.15 7.45-44.45-4.75 22.3-15.55 40.6-8.4 14.25-17.5 21.85 1.85-2.3 4.45-13.15 2.75-11.4 1.95-15.6-.6 3.3-6.4 14.45-6.05 11.6-10.1 16.8-3.2 4.1-3.9.6-.65-3.2 1.05-9.45 1-3.85 3.1-8.25 1.7-3.45 2.8-4.85-6 5.55-12.2 17.15-6.85 12.75-6.4 20.15-1.2-5.45-1.1-9.85.15-6.45 2.9-12.05-8.9 8.5-13.5 23.95-4.75 16-2.85 32.85 4.05-7.35 9.7-10 4.5-2.05 10.75-1.35 8.8 1 16.7-2 9.05-3.45 14.4-11.5-5.7 3.35-12.7 3.95-6.6.5-8.9-1.65 9.9.1 17.8-5.2 6.9-4.65 13.9-14.6z" id="cZ"/><path fill="url(#ac)" d="M-431.05-389.15q-2.976 5.39-7.15 10.6-6.25 7.75-14.65 14.45-2.95 2.3-11.7 8.7-7.15 5.2-10.9 8.5-11.5 9.95-14.1 20.85 3.25-9.05 11-16.1 2.9-2.65 16.05-11.95 11.15-7.9 18-15.5 7.671-8.438 13.45-19.55z" id="da"/><path fill="url(#ad)" d="M-453.85-348.05q-6.3 0-10.2-2.3 2.55 8.95 11.35 6.75 7.5-1.9 12.3-8.35-5.9 3.9-13.45 3.9z" id="db"/><path fill="url(#ae)" d="M-443.8-361.35q6.6-8 9.2-17.1-4.45 8.05-11.8 14.8-6.05 5.5-10.6 7.4 5.4 4.3 13.2-5.1z" id="dc"/><path fill="url(#af)" d="M-475.1-340.3q1.2 9.9 11.55 9.5 8.8-.4 15.55-6.15-7.45 2.8-16 1.2-7.1-1.35-11.1-4.55z" id="dd"/><path fill="#A6DA30" d="M-501.15-457.35q1.25-.25 1.8-1.35l3.05-7.3-6.35 5.4q-.8.65-.9 1.4-.15.8.55 1.35.7.7 1.85.5z" id="de"/><path fill="#A6DA30" d="M-508.85-452.15q.55.85 1.6.85.95-.05 1.5-.75.5-.55.3-1.2-.15-.65-.8-1.1l-5.6-3.3 3 5.5z" id="df"/><path fill="#CFF27F" d="M-500.85-447.35q-.75.75-.9 1.5-.1.8.55 1.3.8.65 1.9.45 1.2-.2 1.75-1.4l3.1-7.15-6.4 5.3z" id="dg"/><path fill="#CFF27F" d="M-507.75-432.15q.45.95 1.45 1.15.85.2 1.55-.35.5-.45.4-1.1-.1-.65-.75-1.2l-5.2-4.35 2.55 5.85z" id="dh"/><path fill="#A6DA30" d="M-506.45-423.25q.55.9 1.55.85.95-.05 1.5-.75.55-.55.4-1.2-.15-.6-.9-1.05l-5.6-3.35 3.05 5.5z" id="di"/><path fill="#A6DA30" d="M-500.55-396.95q-.15-.65-.9-1.1l-5.6-3.3 3.1 5.5q.55.85 1.55.8.9 0 1.55-.65.5-.6.3-1.25z" id="dj"/><path fill="#99CE2F" d="M-497.25-421.95q1-.15 1.45-1.15l2.55-5.95-5.3 4.45q-.65.55-.75 1.2-.15.7.45 1.1.65.55 1.6.35z" id="dk"/><path fill="#A6DA30" d="M-500.2-349.7q1.05 0 1.65-.9l3.75-5.45-6.15 3.4q-1.7 1.1-.75 2.2.55.7 1.5.75z" id="dl"/><path fill="#70A92A" d="M-514.25-316.75q1.9.65 4.6.65 2.7 0 4.65-.65 1.9-.7 1.9-1.65 0-.9-1.9-1.55-1.95-.7-4.65-.7t-4.6.7q-1.95.65-1.95 1.55 0 .95 1.95 1.65z" id="dm"/><path fill="#CFF27F" d="M-494.05-385.35q1-.2 1.45-1.15l2.55-5.9-5.25 4.4q-.6.6-.7 1.2-.1.65.4 1.1.65.55 1.55.35z" id="dn"/><path fill="url(#ag)" d="M-454.85-732.7q-10.6-5.55-15.2-1.85-4 3.3-6.95 1.55-1.55-.95-3.2-3.45-1-1.05-1.65-3.85-.5-1.95-3.25-3.1-6.6-2.6-16.8-3.35-11-.85-17.15 1.4-1.65.6-2.9 2.35-1.25 2.2-1.95 3.25-2.5 3.95-7.55 3.3-2.8-.3-6.2-1.8-6.9-3.05-15.75-2.1-6.5.7-14.85 3.8-28.15 10.4-40.9 29.3-2.2 3.2-1.6 6.5.55 3.15.1 3.7-.95 1.15-2.05 1.1-.6 0-2.1-.15-3.2.25-8.15 8.25-3.65 6.05-4.95 9.5-2 5.35-1.9 11.85.1 5-3.5 7.4-2.55 1.7-8.45 2.7-7.8 1.25-9.65 1.85-5.05 1.6-7 5.05-1.65 3.05-1.5 6.1.15 3.6 2.8 5.9 2.05 1.6 2.3 4.2.1.85-1.2 2.85-1.25 2.05-.75 3.85.45 1.6 2.55 3.7 5.5 5.85 18.15 8.95 11.5 2.8 26 2.75 14.05-.05 25.7-2.8 12.2-2.8 17.25-7.6l38.1-5.15q6.55-.85 27 1.1 18.05 1.7 24.95-.7 2.7-.95 21.05-6.45 17.4-5.25 30.6-9.95 19.15-6.8 27.25-10.85 13.4-6.85 7.8-10.75-3.85-2.7-6.55-7.7-.2-.3-3.9-8.6-2.2-4.85-4.6-6.9-3.2-2.75-8.55-2.5-6.2.35-8.95-1.2-1.55-.85-3.15-2.75-2.6-1.95-2.85-4.25-.25-2.35 1.75-6.85.85-1.85-.7-2.95-.45-.3-3.95-1.75-.95-.4-1.45-1.35-.1-.25-.55-1.8-.45-1.7-1.35-2.65-.65-.75-1.9-1.3-.5-.2-1.55-.65-.95-.4-1.65-1.1-.65-.6-1.2-1.7-.35-.6-.95-1.95-2.6-5.3-12.45-10.4z" id="do"/><path fill="url(#ah)" d="M-610.45-697.5q0 .25-.2.45-1.05 1.25-2.8 1-2-.35-3.7.9 13.5 11.4 23.85 18.35 12.7 8.55 24.2 13.1-26.35-16.5-41.35-33.8z" id="dp"/><path fill="url(#ai)" d="M-609.15-707.25q-1.4 2.1-1.65 3.85 20.2 25.4 39.6 35.8-1.35-1.3 2.65-2.35 3.85-1 2.15-2.25-22.15-16.55-35.05-44.35-4.45 4.45-7.7 9.3z" id="dq"/><path fill="url(#aj)" d="M-568.9-736.3q-5.7 2.15-9.55 4.05 14 34.65 31.75 50.9-8.1-13.4-13.2-25.05-6.7-15.5-9-29.9z" id="dr"/><path fill="url(#ak)" d="M-470.05-734.55q-1.05.85-1.95 1.35-4.05 18.1-9.2 31.15-6 15.25-14.1 25.25 11.95-8.3 23.35-23.2 9.55-12.55 19.7-31.25-5.25-3.2-9.85-4.25-5.3-1.25-7.95.95z" id="ds"/><path fill="url(#al)" d="M-647.4-618q1.85.8 8.9 3.4 17.65 5 40.45 2.8 22.95-2.2 30.95-9.8l13.6-1.85 1.15-1.45q-8.6 1.65-26.35 1.15-15.4-.45-23.4 2.3-1.3.45-4.05-17.8-2.7-17.7-3.35-16.75-8.15 12.25-9.4 26.6-.3 6.15-.4 8-.2 2.95-1.35 3-20.7.6-34.5-5.5.75.9.95 1 2.45 2.7 6.8 4.9z" id="dt"/><path fill="url(#am)" d="M-480-722.45q1.9-.05 6.15-.4 4.15-.4 6.45-.45 6.55-.35 12.4 2.55 6.9 3.4 11 10.55-4.85-14.15-21.85-15.65-4.35-.4-12.15-.35-6.05-.25-7.75-2.25-1.5-1.75-3.25-5.85-2.05-3.35-6.45-3.8-10-.95-11.45-.95-8.7-.1-9.1 3.15-.85 7.75-10.6 6.2-5.1-.85-12.55-4-12.25-3.7-28.5 3.05-13.15 5.45-24.05 15.15 8.25-5.75 19.85-10.2 17-6.5 26.85-2.9l13.7 5.15q4.9 1.8 9.95.55 6.15-1.55 10.05-7.35 1.45-2.25 8.25-2.2 7.4 0 9.95 4.3 3.05 5.1 5.85 5.8.25.05 7.25-.1z" id="du"/><path fill="url(#an)" d="M-625.8-607.5q-15.35 1.4-22 7.15-4.9 4.15-5.65 9.75-.7 5.25 2.25 10.9 1.75 3.25 2.3 4.45 1.15 2.5 1.4 4.55.4 3.45-.55 5.5-.45.95-2.1 2.7-2.7 2.85-.6 9.15.75 2.2 3.3 5.25 2.6 3.25 3.4 5.2 1.15 2.95 1.05 8.25-.15 5.05 1.6 8.95 2.6 5.75 8 11.45 4.75 4.95 11 9.25 2.75 1.85 5.6.8 2.8-1 4.05-.1 1.25.85 2.75 3.6 1.65 3.35 2.5 4.8 1.35 2.2 3.7 3.6 1.8 1.05 4.95 1.95 3.4 1.05 6.85.8 3.7-.5 5.7-.55 2.75-.15 4 .3 1.95.7 2.05 2.85.2 2.9 2.45 4.4 3.9 2.65 15.15 3.95 3.95.5 7.35-1.25 3.35-2.2 4.6-3.05 1.85-1.1 4.8-.3 2.35.65 4.5 2.15 2.6 1.45 3.75 2.2 2 1.35 1.95 2.75-.1 7.8 16.2 9.4 14.35 1.45 24.1-1.95 7.3-2.5 9.85-2.9 5.1-.8 12.65.6 5.35 1 9.15-1.2 4.5-2.6 4-8.6 7.7.9 14.4-1.05 7.3-2.15 4.75-5.8-5.3-7.5-.75-12.45 2.35-2.55 12.85-7.7 7.95-3.9 9.4-11.15 1.4-6.8-3.35-13.75-8.7-12.6-28.6-26.2-19.85-13.55-31.15-14.7-15.65-1.55-43.45-10.1-27.85-8.55-42.45-10-4.35-.4-18.35-7.1-13.6-6.45-13.85-7.6-1.4.05-12.3.25-8.05.1-13.2.6z" id="dv"/><path fill="url(#ao)" d="M-523.95-477.25q4.8 2.4 9.65 3.05 6.45.9 13.05-.15 2.2-.3 11.05-2.4 13.55-3.25 25.25.6-9.4-4.8-18.05-5.4-7.4-.55-16.9 1.9-10 2.55-16.1 2.35-7.6-.25-14.65-4.55 2.5 2.5 6.7 4.6z" id="dw"/><path fill="#FE3709" d="M-597.9-595.15q-2.1-1.85-3.35-5.9-11.35-.25-20.7 3.35-6.65 2.6-17 9.45 17.3-7.95 41.05-6.9z" id="dx"/><path fill="url(#ap)" d="M-627.4-563.55q10.55-4.6 23.75-7.3-24.05-.3-47.85 10.3-.85 2.4.75 7.2.55 1.6 1.65 3.2 9.65-8.15 21.7-13.4z" id="dy"/><path fill="url(#aq)" d="M-582.25-517.05q-3.15 5.5-6.9 13.5-4.15 9.15-6.45 13.95 2.1.25 4.85-.1 3.55-.4 4.45-.4 2.15-.2 3.5.15 3.1-12.1 10.15-28.8 6.7-15.9 13.25-27.15-14.2 13.7-22.85 28.85z" id="dz"/><path fill="url(#ar)" d="M-533.9-531l-6.55-.15-10.35 48.4.1-.15q1.85-1.1 4.8-.3 2.35.65 4.5 2.15 2.25 1.55 6.05 5.25l1.45-55.2z" id="dA"/><path fill="url(#as)" d="M-448.25-520.35q-4.65-5.15-14.75-12.3 13.5 13.3 20.1 34.9 1.2-2.6 4.7-4.9-3.4-10.4-10.05-17.7z" id="dB"/><path fill="url(#at)" d="M-452.8-508.55q-6.8-12.35-15.25-20.15 5.35 9.05 7.65 22.1 1.95 10.9 1.95 26 4.6.3 9.25-.4 4.85-.75 7.3-2.25-5.1-14.85-10.9-25.3z" id="dC"/><path fill="url(#au)" d="M-476.65-523.65q3.5 13 3.15 24.9-.15 6.45-2.8 26 .25.25.35 1.3 2.8.45 3.05.5 2.6.5 5.2.1 2.8-.4 4.7-1.75-1-16.05-3.35-25.75-3-12.15-10.3-25.3z" id="dD"/><path fill="url(#av)" d="M-516-591.8q-3.6 6.15-9.75 21.15-6.4 15.6-9.25 20.8-5.15 9.3-9.5 8.85-4.65-.45-9.05 1-6.95 2.3-7.95 2.5-1.65.25-8.65 2.85-7 2.55-7.65 2.65 3.8.35 8.8 3.2.05.05 8.8 5.65 11.2 7.15 18.65 4.75 2.8-.9 7.25-.05 1.55.3 8.25 2.15 10.85 3 15.75-.1 5.45-3.45 10.45-4.4 3.05-.55 8.55-.35 5.6.2 8.95-.35 5.6-.95 11.8-4.35 6.35-3.45 7.7-3.95 4.45-1.8 8.65-1.05 10.65 1.85 26.3 21.5 2.9 3.6 6.3 3.6 3.1.05 5.55-2.8 2.45-2.85 3-7.15.65-4.65-1.35-9.25-3.3-7.7-11.55-12.45-1.65-.95-4.45-2.2-1.15-.55-.1-.5-.5-.6-3.3-6.05-1.85-3.7-5.85-5.25-4.35-1.7-13.8-10.2-.1-.05-18.35-17.25-24.8-23.35-33.25-22.95-5.25.25-10.95 10z" id="dE"/><path fill="url(#aw)" d="M-440.3-630.65q.05 3.7 3.1 6.05 4.55 3.45 5.7 5.15 2.2 3.35 1.8 4.3-.25.75-2.5.4-4.35-.75-4.6-.75-2.95-.25-4.5.95-2.7 2.1-2.85 4.75-.05.6.7 4.9 1.25 7.05-6.8 13.35-5.75 4.45-2.35 14.1 1.7 4.8 9.3 17.5 6.25 10.5 6.15 14.3-.2 5.7-11.85 4.55l33.25 32.25q2.8 2.7 6 1.15 2.05-.95 4.65-4.1 2.1-2.65 2.4-3.3.75-1.85-.65-3.8-2.5-3.65-2.65-6.5-.2-3.1 2.15-6.9.15-.25 1.35-5.05 1-3.8 2.35-4.15 1.35-.35 4.05-.95 2.6-.5 3.7-.85 4.35-1.35 2.7-6.4-.45-1.35-1.4-3.95-.55-2.1.2-3.15.75-1 3.2-2 2.85-1.2 4.2-2.3 2.3-1.85 3.4-4.6 1.2-3-.25-4.75-1.6-2-.6-4 .55-1.2 2.45-3.45 1.5-2.1.95-3.85-.8-2.45-5.3-5.35 3.7.5 5.65-5.4 1.95-5.85-.55-8.85-3.1-3.75-1-13.7 1.05-4.9 1.1-6.8 0-3.35-1.95-4.9-1.2-.95-1.7-2.6-.5-1.6-.2-3.2.5-2.55-2.75-4.35-.75-.4-1.7-.9-.45-.35.5-.55 1.5-.3 1.9-1.2.25-.5.65-1.9.8-1.75.15-2.7-.85-1.3-4.4-1.55-8.05-.55-16.5 1.95-.05.05-18.45 3.75-18.3 4.65-18.2 9.35z" id="dF"/><path fill="url(#ax)" d="M-382.85-587.1q.9.1 1.65-.15l-33.85-7.55q-2.3 3.5-4.15 5.6l40.9 11.1q1.35-2 .7-3.75-.85-2.35-5.25-5.25z" id="dG"/><path fill="#D62E0E" d="M-391.05-553.65q-.6-2.1.15-3.15l-27.15-15.6q-.8.65-1.25.9-3.6 2.95-5.9 6.3l26.8 23.25q4.25-.85 6-1.35 4.35-1.35 2.7-6.4-.4-1.35-1.35-3.95z" id="dH"/><path fill="url(#ay)" d="M-434.9-685.8q-6.25-5.3-9.35-6.65-5.6-2.45-11.25.45-2.9 1.45-5.9 3.95-3 2.75-4.5 3.9-5.1 4.05-12.2 3.15-1.05-.1-7.1-2.85-4.95-2.25-11.05-1.6-6.15.7-7.95 9.55-.6 4.15-.85 5.55-.35 2.2-1.15 1.55-2.9-2.35-5.65-.65-2 1.15-3.4 3.95-1.75 3.4-1.55 8.7.65 6.5.8 10.15-.25-1.85-2.45 7.8-2 8.75-2.5 12.3-.55 3.85 1.85 11.25 2.45 7.45 1.85 11.85-.3 2.15 1 3.7.65.75 3.4 2.75 5.8 4.25 7.55 10.85 3.3 13.75 5.15 21.3 3.35 13.75 6 20.75.4 1.05 2.05 7.8 1.15 4.7 2.35 5.5 5.35 3.7 17.95 1.7 4.95-.8 7.45-2.15 2.7-1.45.85-2.65-1.65-1.05-1.3-1.95.25-.75 2.1-1.55 5.45-2.6 9.6-3.1.2-.05.6-.35.4-.25.6-.25l3.8.3q10.2.65 15.05-1.5 3.85-1.75 5.85-6.15 1.2-2.6 3.5-8.95 2.75-5.8 8-9.9 4.95-3.85 4.95-6.6-.05-2-2.85-4-3.7-2.65-4-3.1-1.35-1.75 1.35-3.85 5.1-3.9 10.15-15.1 5.9-13.1 1.7-19.5-1.95-3-.15-7.85 2.45-6.45 2.4-8.75-.1-4.75-2.3-6.7-1.1-.95-2.1-1 .9-.25 1.25-.3-1.4-1.6-1.6-3.55-.1-1 0-2.35-.2-1.55-1.35-2.25-1-.6-1.95-.35-4.8 1.25-7.45.7-2.2-.45-3.15-2.35-1.9-3.65 2-10.5 1.75-3.2-.85-8.85-2.9-6.3-9.3-9.6-.3-.15-2.9-1.05-2-.7-3.05-1.6z" id="dI"/><path fill="#CD2C0D" d="M-463.35-686.3q-3.75 3.3-5.95 4.3-3.65 1.65-8.8 1-.55 0-1.1-.2l-15.2 27.95h5.5l25.55-33.05z" id="dJ"/><path fill="url(#az)" d="M-510.7-618.8q-.123-1.48-.25-2.9-2.452-4.912-5.05-8.55-8.05-11.6 1.9 15.4 3.4 9.25 6.3 16 2.9 6.7.75.35-2.55-7.6-3.65-20.3m38.3-28.35q-3.9-4.85-8.1-6.45-2.15-.8-9.35-1.7-4.2-.6-10.05 3.2-5.1 3.3-8.1 7.4l-2.6 5.1q-1.015 7.196-.35 17.9.419.76.8 1.55 5.45 11.25 8.35 24.5.3 1.4-1.6 3.35-2 2-1.8 3.6 1.5 11.5 4.5 23.75 2.95 12.1 3.95 11.2 6.8-5.95 7.4-6.45 4.45-3.35 7.65-3.15 1.1.1 1.9 1.5.85 1.95 1.4 3.1 2.1 4.55 6.35 5.15 8 1.1 11.95-1.65 3.2-2.2 4.65-7.7.85-3.3 2.1-10.9 1.5-6.9 4.4-11.1 1.05-1.4 3.75-3.75 4.7-4.05 5-4.3 6.35-5.9 7.15-11.25 1.1-7.6-2.45-15.75-4-9.15-11.05-10.1-11.7-1.5-16.25-5.3-1.9-1.55-4.35-4.8-5.05-6.7-5.25-6.95z" id="dK"/><path fill="url(#aA)" d="M-484.85-583.5q16.2 9.1 24.35 17.05 10.6 10.3 16.3 25.8 3.35.05 6.35-.35-6.1-15.3-16.8-24.8-10.2-9.05-30.2-17.7z" id="dL"/><path fill="url(#aB)" d="M-443.7-550.25q.75-5.7-1.8-11-3.35-6.8-10.1-9.5-6.8-2.7-13.05.3-6.3 3-8.35 10-2.1 7 1.25 13.75 1.8 3.7 4.85 6.35 2.95 2.55 6.6 3.65 6.75-2.55 8-2.9 4.65-1.45 8.2-1.2 3.65-3.85 4.4-9.45z" id="dM"/><path fill="#FE3717" d="M-466.15-571.4q6.75 5.35 11.6 11.6 5.2 6.8 8.9 15.6 2.1-3.75 2.1-8.25-6.85-11.35-19.2-19.55-1.65.15-3.4.6z" id="dN"/><path fill="url(#aC)" d="M-476.75-610.5q3.7 1.7 5.35 1.8 16.3 1.15 30.45 6.95 14.15 5.8 25.65 16.1 2.7-2.8 5.5-7 3.75-5.85 5.15-11.15-16.75-10.3-37.85-12.35-20.1-1.95-39.65 3.9 1.75.05 5.4 1.75z" id="dO"/><path fill="url(#aD)" d="M-431.45-667.25q-22.4 4.65-34.8 9.7-17.9 7.3-35.45 22 1.5 6.5-.25 11.5 14.35-16.85 34.75-28.45 16.25-9.25 35.75-14.75z" id="dP"/><path fill="url(#aE)" d="M-617.55-503.95q1.7-.6 2.45-.75 1.3-.35 2.35.4 1.3.85 2.75 3.6 9.15-17.5 23.7-33.4-19.1 12.4-31.25 30.15z" id="dQ"/><path fill="url(#aF)" d="M-580.55-488.3q.3.7.3 1.35.1 1.6.6 2.5.85 1.5 3.2 2.6l7.65-34.4-11.75 27.95z" id="dR"/><path fill="url(#aG)" d="M-591.8-674.3q-2.25 5.7-4.1 8.85-6.8 11.65-7.15 33.85.8 23.25 0 30.8-.85 7.6 1.3 18.1 2.15 10.5 6.6 20.75 10.6 24.1 25.9 30.95 12.8 5.65 16.75 6.7 10.45 2.85 13.35-2.75.75-1.45 1.4-.9.35.25 1.45 2.15 2.55 4.5 5.8 4.6 3.85 0 9.75-1.3 2.3-.5 3.15-1.95.1-.1.85-2.35.75-2.15 6.95.55 1.25.55 2.8-.85.9-.75 2.25-2.4 3.55-3.35 4.05-9.85.25-3.4-.6-12.7-1.05-10.25-2.55-22.85-1.4-11.75-2.1-16.15-.45-2.75-.15-12.75.25-7.9-1.65-11.9-.65-1.3-2.7-11.95-1.95-9.8-2-9.35-2-6-4.25-19.85-2.6-11.95-8-16.45-6.25-5.3-12.15-3.95-1.5.35-4 1.2-2 .55-3.3-.2-1.6-.9-3.5-5.05-1.75-3.85-3.8-4.45-6.65-1.9-17.35-.8-3.3.4-7.8 2.45-6.75 3.1-8.35 3.7-4.55 1.65-6.85 6.1z" id="dS"/><path fill="url(#aH)" d="M-508.05-593.7q-5.7 1.55-15.15.25-8.75 15.4-7.45 30.9.85 10.8 8.4 30.15-2.15-13.5.7-27.7 3.35-16.75 13.5-33.6z" id="dT"/><path fill="url(#aI)" d="M-593.75-663.75q4.75-8.55 14.55-16.5 4.4-3.55 9.6-6.35-11.7 1.9-18.1 4.4-9.1 3.55-11.1 9.2-.3.85.5 2.6.9 2.1.95 2.8.25 3.15-9.05 3.6-2.1.1-3 2.95-.65 3.55-1.25 4.9-3.4 7.7-4.45 16.4-1 8.4.2 16.85 1.25 9.8 1.4 10.15 1.45 4.8 6.6 5.55-4.05 2.35-5.25 5.85-.8 4.2-1.4 6.55-1.6 6.7-1.7 10.95-.1 4.95 1.55 10.8 3.05 10.6 6.95 16.55 5.1 7.7 10 4.1 3.15-2.3 3.3-.1.05.95-1.1 6.1-1.4 6.7 3.25 10.05 3.25 2.3 12.55 4.35 3.5.75 14.45 4.8 8.55 3.15 14.85 3.4-15.25-8.4-28.75-28.35-14.3-21.1-11.35-34.35 1.3-5.65 1.7-9.65.45-3.9-1-8.9-.9-3.2-3.4-9.2-.55-1.3 2.4-1.45.7-.05 9.45.1 7.9 0 14.6-.9-6.55-.15-14.3-1.65-8-1.55-11.9-3.5-6.65-3.2-7.3-17.6-.5-13.75 5.55-24.5z" id="dU"/><path fill="url(#aJ)" d="M-640.4-583.15q-2.7-4.95-2.9-8.15-.4-4.95 3.65-10.5-6.25 3.8-7.9 10.05-1.55 6.15 1.85 12.55 1.8 3.5 2.2 4.5 1.15 2.6 1.45 4.6.3 3.15-.35 4.95-3 8.05-3.1 9.15-.3 3.9 3.9 9.1 2 2.4 2.95 4.6 1.2 2.95 1.05 8.15-.15 5.05 1.6 8.95 2.05 4.55 6.65 9.2 5 5 10.55 7.6-9.3-6.05-12.15-12.9-1.9-4.45-1.8-13.1 0-5.7-1.15-9-1.2-3.5-5.25-9.35-1.5-2.05-.85-5.85.45-2.45 2.2-6.95 1.7-4.35.75-9.05-.7-3.65-3.35-8.55z" id="dV"/><path fill="#FBD6C6" d="M-637.75-565.8l-5.1 1.75q-2 5.25-2.2 5.85-.75 2.7-.15 4.95 2.6-1.95 5-3.45.1-2.95 2.4-8.85l.05-.25z" id="dW"/><path fill="url(#aK)" d="M-608.75-641.1q-.7 9.75.9 17.5 1.4 6.95 1.65 8.8.75 5.7-.15 9.35-4.25 17.4-4 25 .45 13 10.15 24.8-5.7-7.35-6.25-17.45-.65-11.5 5.65-24.45 2.65-5.3 1.5-11.55-.55-2.7-3.95-12.2-3.15-8.65-3.95-15.45-1.25-10.15 1.35-21.4-2.3 8.3-2.9 17.05z" id="dX"/><path fill="#FE3709" d="M-515.7-527.85q1.55-.3 5.9 1.6 1.25.55 2.8-.85.9-.75 2.25-2.4.7-.6 1.6-1.75-5.4-22.2-15.7-35.2 5.85 14.8 3.15 38.6z" id="dY"/><path fill="url(#aL)" d="M-596.75-552.4q1.7-1.2 2.5-1.2 15.5-12.8 21.15-16.6 10.25-6.8 23.7-11.35-17.45 1.9-31.15 7.25-9.55 3.75-28.25 14.25 6.15 11.95 12.05 7.65z" id="dZ"/><path fill="url(#aM)" d="M-538.8-546q1.9-8.7 5.75-18.05-5.55 8.6-8 14.2-3.8 8.7-3.85 16.6 0 3.2-4.2 2.9-1.1-.05-9.55-1.9-5.3-1.1-8.75-1.45-5-.55-10.4-.2 1.2 0 6.9 1.25 6.3 1.35 11.1 2.8 11.4 3.6 14.75 3.9 1.05.1 2.15-.75 1-.85 1.2-.8 1.6-12.45 2.9-18.5z" id="ea"/><path fill="url(#aN)" d="M-594.1-539.6q1.05 2.2 4.05 4.05.6-.7 1.15-.7 7.95-11.7 18.7-20.75 6.7-5.6 22.7-16.25-15.1 6.85-26.05 15.1-7.9 6-20.55 18.55z" id="eb"/><path fill="url(#aO)" d="M-568.8-686.55q-3.2.4-6.5 1.9 12.85 5.55 26.05 21.1 6.95 8.2 22.85 31.45l2.85-7.05q-1.8-10.2-8.75-20.3-3.95-5.7-11.85-15.5-2.15-3.15-3.5-6.4-.9-1.85-1.55-2.7-1-1.3-2.25-1.7-6.65-1.9-17.35-.8z" id="ec"/><path fill="url(#aP)" d="M-482-646.55q-1.35-2.7-2.65-3.35-2.55-1.25-5.45-.65-2.2.45-3.05 1.3-2.8 2.8-5.7 2.15-1.65-.4-4.55-2.65-1.7-1.4-2.7-1.55-.9-.1-2.9.7-1.9.85-3.65 1.1-2.15.35-2.9-.55-5.9-7.05-12.25-7.3-5.35-.25-9.5 4.1-1.6 1.75-4.3 7.35-2.35 4.9-5.1 6.9-1.35.95-7 2.5-5.75 1.65-8 3.05-5.45 3.35-5.75 9.15-.2 4.55 2.65 9.75.85 1.6 3 3.95 1.8 2.05 2.4 3.65.95 2.5.05 5.25-1.45 3.15-2.15 4.8-2.85 7.1 1.55 11.1 3.75 3.45 11.2 3.6 5.55.1 7 1.8 1.35 1.6 2.1 4.4.65 3.35 1 5.05 1.3 6.15 5.9 7.9 4 1.5 8.15.3 2.25-.7 6.3-3.05 2.75-1.65 4.15-1.1 2 1.35 4.3 2.25 4.4 1.9 7.9-1.2 1.45-1.3 5.05-6.65 3-4.6 7.9-4.9 1.5-.05 5.45.85 3.5.8 5.6.45 6.25-1.05 8.9-5.4 3.2-5.2-.05-13.65-3-7.9 1.45-11.5 1.25-1 3.85-3.1 2.1-2.1 2.4-5.3.35-2.8-3.25-5.7-3.55-2.85-3.4-3.95.15-1.4 1.05-3.35 1.3-2.8 1.4-3.1 1.1-3-.95-5.55-1.75-2.1-5.1-3.4-.6-.25-3.85-1.05-2.4-.6-3.75-1.55-1.3-.95-2.75-3.85z" id="ed"/><path fill="url(#aQ)" d="M-503.35-604q-4.1 3.5-7.35 4.8 30.8 6.35 51.9 17.55 20.75 10.95 30.9 25.95-6.85-21.15-21.8-33.95-16.85-14.45-47.1-21.3-2.75 3.65-6.55 6.95z" id="ee"/><path fill="url(#aR)" d="M-530.65-618q-1.1-1.4.3-3.05 1.8-2.1 1.65-3.55-17.8-7.2-35.45-9.3-14.95-1.75-31.55 0 29.35.9 65.05 15.9z" id="ef"/><path fill="url(#aS)" d="M-568.35-611.3q-10.45 2.85-26.6 10.8 14.85-5.95 29.95-8.05 18.75-2.6 36.7 1-3.8-2.25-6.35-7.1-18.75-.7-33.7 3.35z" id="eg"/><path fill="url(#aT)" d="M-531.3-598.85q-3.5-2.5-6.15-8.7-17.95 1.15-32.15 8.15-10 4.95-25.3 17.2 26.4-14.95 63.6-16.65z" id="eh"/><path fill="url(#aU)" d="M-482.75-640q-.8-1.25-2.2-.8-.75.3-1.95.85-.9.4-1.35-.05-1.15-1.15-1.95-.6-1.3.8-3.6 5.5-.45 1-1.65 1.15-1.1.2-1.95-.5-2.25-1.9 1.15-6 2.45-2.9.8-4.8-1.5-1.75-4.05-1.1-2.2.5-3.25 2.75-.3.6-.65 1.9-.4 1.3-.65 1.9-.7 1.85-1.75 1.65-1.5-.1-1.55-2.25 0-2.6-.7-3.2-.85-.7-1.8-.15-1.05.6-1.5 2.6-.4 1.8-2.45 1.6-2.05-.25-1.4-2.85.5-2.1.5-3.1.05-1.55-.9-1.65 0-.3-1.35-.05-1.35.2-1.4.85-2.75-1.35-4.25-.3-1.2.85-1.45 2.9-.05.7.25 2.1.3 1.45.25 2.2-.2 4.5-3.75 1.45-2.8-2.25-5.9-1.55-3.4.75-3.2 4.95.1 2.95 3.8 4.75 4.85 2.1 2.85 4.3-1.8 2.1-5.65-.05-2.85-1.7-4.35-1.8-1.9-.15-4.6 1.55-2.8 1.75-2.5 5.4.3 3.55 3.2 5.05 2.4 1.2 2.65 2.45.25 1.45-2.1 3.25-3.05 2.4-2.8 4.85.2 2.1 2.5 3.2 1.3.7 3.35.6 2.45-.25 3.55-.4 3.3-.4 4.7 1.45 1.45 1.8.1 4.1-.7 1.25-3.05 3.55-3.6 3.45-1.85 7.75 1.7 4.2 6.1 4.1 6.25 0 8.35-5.75.95-2.6 3.6-2.2 2.25.4 3.85 2.3 2.05 2.4 2.1 2.5 1.1 1.1 2.65 1.75 2.5 1.1 4.7.9 4.4-.15 6.35-3.5.45-.9.35-3.4-.1-2.35 1.9-2.9 1.95-.55 3.35 1.45 1.5 2.55 2.25 3.7 1.3 2 3.15 3.1 5.6 3.25 9.9-.45 4.3-3.75.6-9.2-1.3-1.95-4.15-3.25-1.75-.8-4.9-1.65-2.9-.8-4.25-2.85-1.45-2.2-.35-4.7.65-1.65 2.4-2.25 1.85-.7 3.8.15 1.45.9 2.45 1.45 1.9 1.05 3.05.9 1.45-.25 1.85-.4.95-.4 1.35-1.45 1.05-2.6-1.25-4.25-.4-.35-1.8-.65-2.3-.45-3.1-.7-2.05-.65-.7-2.85 1.4-2.25 4.6-1.9 0-.1 1.25.05 1.6.2 2.45.05 2.45-.5 2.7-2.55.15-1.5-.5-1.95-.4-.4-2.1-1-1-.6 1.05-1.65.95-.5 2.75-1.25 1.4-.75 2-2.1.6-1.5-.15-2.55-.85-1.15-3.05-1.2-.6-1.4-2.2-1.4-1.35 0-2.85.9-.8.55-1.6 1.45-.75 1-1.1 1.3l-3.1 2.8q-2.75 2.45-6.4 1.45-2.35-.75-3.25-2.1-1.2-1.8.35-4.25 1-1.55 2.9-2.6 1.05-.6 3.45-1.7 2.4-1.3 3.1-2.55.7-1.3-.05-2.55z" id="ei"/><path fill="#1C0500" d="M-483.6-603.1q-1.15-.1-2.1.4-.95.45-1.05 1.25-.05.9.75 1.55.8.7 2 .8 1.25.1 2.15-.4.9-.5 1-1.3.1-.85-.7-1.5-.75-.7-2.05-.8z" id="ej"/><path fill="#1C0500" d="M-495.55-582.55q-.4-.75-1.05-1.15-.7-.35-1.25-.1-.6.2-.75.95-.15.75.25 1.5.35.8 1.1 1.2.65.35 1.2.1.6-.25.75-1 .15-.7-.25-1.5z" id="ek"/><path fill="#1C0500" d="M-472.85-614.65q-1.5-.2-2.65.45-1.15.6-1.25 1.6-.15 1.05.85 1.85.95.8 2.5.95 1.5.2 2.6-.4 1.15-.65 1.25-1.65.1-1.05-.85-1.85t-2.45-.95z" id="el"/><path fill="#791F05" d="M-479.35-639.25q-1.4.5-2.15 1.55t-.4 2q.3.95 1.55 1.3 1.25.35 2.7-.15 1.4-.5 2.2-1.5.75-1.05.35-1.95-.3-.95-1.55-1.3-1.25-.35-2.7.05z" id="em"/><path fill="#7E290B" d="M-502.95-587.75q-.5-1.1-1.4-1.6-.95-.55-1.75-.2-.8.35-1.05 1.4-.2 1.05.3 2.15.55 1.05 1.5 1.55t1.75.15q.8-.3 1-1.35.2-1-.35-2.1z" id="en"/><path fill="#7E290B" d="M-488.9-592.2q-.7-.65-1.6-.8-.85-.15-1.35.35-.5.5-.35 1.3.15.85.85 1.5.75.7 1.6.85.85.15 1.4-.35.5-.55.35-1.35-.15-.8-.9-1.5z" id="eo"/><path fill="#72230B" d="M-492.95-599.9q-.9-.9-2.05-1.1-1.15-.15-1.8.45-.65.65-.45 1.75.2 1.05 1.15 2 .9.85 2.05 1.05 1.2.15 1.85-.5.65-.6.45-1.7-.25-1.1-1.2-1.95z" id="ep"/><path fill="#7E290B" d="M-477.05-629.7q-.9.55-1.2 1.45-.3.9.15 1.5.4.55 1.35.55.95 0 1.9-.55.9-.6 1.2-1.45.3-.85-.15-1.45-.4-.65-1.35-.65-.95 0-1.9.6z" id="eq"/><path fill="#7E290B" d="M-527.3-588.9q-.75-.55-1.8-.15-1.1.35-1.85 1.4-.8 1-.85 2.15 0 1.1.75 1.65.8.5 1.9.15 1.05-.35 1.85-1.4.8-1.05.8-2.15 0-1.1-.8-1.65z" id="er"/><path fill="#4D1303" d="M-517.4-583.5q.55-1.2.3-2.3-.25-1.15-1.2-1.5-.9-.35-1.9.2-1 .6-1.55 1.85-.55 1.2-.3 2.35.3 1.15 1.2 1.5.85.4 1.9-.25 1-.6 1.55-1.85z" id="es"/><path fill="#5A1703" d="M-537.05-591.2q.75-.7.9-1.5.15-.8-.35-1.3-.45-.55-1.35-.4-.8.1-1.6.75-.7.65-.9 1.5-.15.8.3 1.3.5.5 1.35.4.85-.1 1.65-.75z" id="et"/><path fill="#5A1703" d="M-549.05-608.75q1.8-.3 2.9-1.3 1.1-1.05.95-2.25-.2-1.25-1.6-1.9-1.4-.65-3.15-.4-1.8.25-2.9 1.3-1.15 1.05-1 2.2.2 1.25 1.65 1.95 1.35.65 3.15.4z" id="eu"/><path fill="#791F05" d="M-547.15-596.75q-1.6.85-2.35 2.15-.75 1.35-.15 2.45.55 1.15 2.1 1.4 1.6.2 3.2-.6 1.7-.75 2.45-2.1.75-1.35.15-2.45t-2.15-1.35q-1.55-.25-3.25.5z" id="ev"/><path fill="#791F05" d="M-508.55-577.65q-.25-1.65-1.3-2.65-1.05-1.05-2.25-.9-1.15.25-1.85 1.5-.65 1.3-.35 2.8.2 1.65 1.2 2.7 1.05 1 2.25.85 1.15-.15 1.85-1.4.7-1.3.45-2.9z" id="ew"/><path fill="#A3440D" d="M-532.9-602.8q1.1-.1 1.85-.75.7-.6.6-1.35-.1-.75-.95-1.2-.85-.4-1.95-.3-1.05.15-1.8.75-.7.65-.65 1.35.1.75.95 1.2.85.45 1.95.3z" id="ex"/><path fill="#72230B" d="M-540.65-618.05q1.8.7 3.5.35 1.7-.4 2.25-1.65.5-1.25-.45-2.65t-2.8-2.1q-1.85-.7-3.5-.3-1.65.35-2.2 1.6-.5 1.25.45 2.65t2.75 2.1z" id="ey"/><path fill="#5C1709" d="M-475.75-596.75q-.65-.35-1.35-.3-.7.1-.95.5-.25.5.05 1.1.25.6.95.95.65.35 1.35.3.7-.1 1-.6.25-.45-.05-1.05-.3-.55-1-.9z" id="ez"/><path fill="#5A1703" d="M-532.05-641.3q.65.5 1.35.55.7 0 1.05-.4.35-.45.15-1.1-.2-.65-.8-1.1-.65-.5-1.35-.5-.7-.05-1.05.35-.35.45-.15 1.1.2.65.8 1.1z" id="eA"/><path fill="url(#aV)" d="M-483.45-528.9q4.5.5 9.75.25l-19.65-34.85 9.9 34.6z" id="eB"/><path fill="url(#aW)" d="M-470.35-576q-4.75 2.2-6.3 7.2-1.6 5 .9 9.9 2.55 4.85 7.75 6.8 5.25 1.95 10-.2 4.75-2.2 6.3-7.2 1.6-5.05-.9-9.9-2.55-4.9-7.75-6.85-5.15-1.9-10 .25z" id="eC"/><path fill="url(#aX)" d="M-469.6-575.45q-4.45 2.05-5.9 6.2-1.45 4.2.85 8.65 1.9 3.65 6.3 5.75 5 2.35 9.4.35 4.45-2 5.9-6.6 1.45-4.65-.95-9.15-2.3-4.45-6.75-5.85-4.35-1.4-8.85.65z" id="eD"/><path fill="url(#aY)" d="M-454-570.25q-2.35-4.55-7.1-6.35-4.8-1.75-9.25.25-4.4 2-5.9 6.7-1.55 4.7.8 9.25 2.2 4.1 7 6 5.4 2.15 10.3-.45-4.15 1.2-8.45-.85-2.9-1.45-4.35-4.45-1.35-2.8-1.1-6.2.25-4.9 4.35-7.1 3.8-2 8.25-.6 3.6 1.1 5.8 4.45-.05-.25-.35-.65z" id="eE"/><path fill="#FEFEFE" d="M-465.85-574.7q-.95.8-.85 1.95.1 1.15 1.1 2.05 1.05.85 2.45.95 1.35.05 2.25-.7.95-.8.85-1.95-.1-1.15-1.15-2.05-1-.85-2.4-.95-1.35-.05-2.25.7z" id="eF"/><path fill="url(#aZ)" d="M-488.9-512.15q-2.5.85-3.55 3.35-1.1 2.55-.15 5.45 1 2.85 3.45 4.35 2.45 1.5 5 .7 2.5-.8 3.55-3.3 1.05-2.55.1-5.45-1-2.85-3.4-4.35-2.45-1.5-5-.75z" id="eG"/><path fill="url(#ba)" d="M-488.6-512.7q-2.05.65-2.95 2.75-.9 2.1-.1 4.45.85 2.3 2.85 3.5 2.05 1.25 4.05.65 2.05-.65 2.95-2.75.9-2.1.1-4.45t-2.85-3.55q-2-1.2-4.05-.6z" id="eH"/><path fill="url(#bb)" d="M-488.35-512.45q-1.9.6-2.65 2.35-.8 1.8-.15 3.95.65 1.75 2.35 2.95 1.9 1.35 3.8.75 1.85-.5 2.7-2.45.8-1.95.1-4.15-.75-2.1-2.5-3.05-1.7-.9-3.65-.35z" id="eI"/><path fill="url(#bc)" d="M-488.6-512.85q-1.9.5-2.75 2.55-.85 1.95-.15 4.15.7 1.95 2.6 3.15 2.1 1.3 4.25.5-1.9.2-3.45-1-1.15-.85-1.55-2.25-.4-1.3-.1-2.8.35-2.15 2.1-2.8 1.6-.65 3.35.2 1.45.75 2.15 2.45l-.05-.35q-.75-2.15-2.65-3.3-1.85-1.1-3.75-.5z" id="eJ"/><path fill="#FCEADF" d="M-487.8-511.55q-.4.25-.45.8 0 .5.35.9.4.5.95.6.55.15.9-.15.45-.25.45-.8.05-.5-.35-.95-.35-.5-.9-.6-.55-.1-.95.2z" id="eK"/><path fill="url(#bd)" d="M-620.6-528.55q2.75 3.8 7.9 4.25 5.15.45 9.65-2.7 4.55-3.2 5.8-8.15 1.3-4.95-1.4-8.75-2.75-3.85-7.85-4.3-5.15-.5-9.7 2.7-4.55 3.2-5.8 8.15-1.3 4.95 1.4 8.8z" id="eL"/><path fill="#FD6449" d="M-608.15-548.3q-4.2-.35-7.9 2.15-3.75 2.55-4.85 6.45-1.05 3.95 1.15 6.9t6.45 3.3q4.25.35 7.95-2.15 3.75-2.55 4.85-6.45 1.05-3.9-1.15-6.9-2.3-2.95-6.5-3.3z" id="eM"/><path fill="url(#be)" d="M-607.9-548.1q-3.55-.45-6.95 1.85-3.45 2.3-4.45 5.9-.95 3.6 1.1 6.4 2.05 2.7 6.3 2.65 3.75 0 6.55-1.85 3.4-2.3 4.2-5.6.85-3.3-1.25-6.1-2.05-2.8-5.5-3.25z" id="eN"/><path fill="url(#bf)" d="M-601.5-545.25q-2.05-2.75-6-3.05-3.9-.3-7.35 2.05l-.5.35q2.8-1.55 5.7-1.25 3.55.5 5.15 3.1 1.8 2.75-.1 6.15-1.3 2.35-3.35 3.85-2.2 1.55-4.7 1.6-3.7.1-5.95-2.1 2.15 3.4 6.6 3.65 3.95.2 7.1-1.9 3.45-2.3 4.45-6 1-3.65-1.05-6.45z" id="eO"/><path fill="#FBC7B2" d="M-604.3-544.85q-.5-.7-1.5-.8-1.1-.15-2 .4-.9.55-1.2 1.4-.3.9.2 1.6.5.7 1.5.85.95.1 1.9-.4.9-.55 1.25-1.45.35-.9-.15-1.6z" id="eP"/><path fill="#CFF27F" d="M-499.2-340.15q1-.2 1.45-1.2l2.45-6.05-5.25 4.5q-.7.6-.75 1.3-.1.65.45 1.1.7.55 1.65.35z" id="eQ"/><path fill="#CFF27F" d="M-504.25-403.35q.45.95 1.45 1.15.95.2 1.6-.35.6-.45.45-1.1-.1-.65-.75-1.3l-5.25-4.45 2.5 6.05z" id="eR"/><path fill="#A6DA30" d="M-508.65-446.5q.65.9 1.65.95.85.05 1.45-.55.5-.55.3-1.2-.2-.65-.95-1.05l-5.75-3.55 3.3 5.4z" id="eS"/><path fill="url(#bg)" d="M-523.3-603.85q4.8 4.95 11.8 5.15 6.95.25 12.1-4.4 5.2-4.6 5.4-11.35.25-6.7-4.55-11.65-4.8-4.9-11.8-5.15-7-.2-12.15 4.4-5.15 4.6-5.45 11.3-.2 6.75 4.65 11.7z" id="eT"/><path fill="url(#bh)" d="M-525.05-610q-.15 4.6 1.85 7.45 2 2.9 6.35 4.3-3.9-5.05-3.65-11.6.15-4.95 2.9-9.2 2.65-4.1 7-6.35-6.05 1.15-10.1 5.4-4.15 4.35-4.35 10z" id="eU"/><path fill="url(#bi)" d="M-506.35-597.9q8.8-2.25 9.1-11.25.2-5.65-3.6-10.2-3.75-4.55-9.75-6.05 4.2 2.55 6.6 6.75 2.4 4.4 2.2 9.4-.2 6.45-4.55 11.35z" id="eV"/><path fill="url(#bj)" d="M-514.25-609.85q-.5 13 2.65 13.1 3.1.1 3.6-12.9.35-8.6-2.6-15.6-3.35 6.7-3.65 15.4z" id="eW"/><path fill="url(#bk)" d="M-528.85-614.9q-.2 2.9.8 6.15.15-4.6 2.5-8.5 2.45-4.15 6.55-6.3 3.95-2.1 8.4-1.8-5.65-2.3-11.45.5-6.35 3-6.8 9.95z" id="eX"/><path fill="url(#bl)" d="M-499.15-624.15q-5.6-3.15-11.45-1.2 4.5-.05 8.35 2.3 3.85 2.4 6.05 6.7 2 3.9 1.9 8.65 1.2-3.35 1.2-6.1.05-6.95-6.05-10.35z" id="eY"/><path fill="url(#bm)" d="M-526.8-623.95l.25-.25q3.3-2.75 7.65-3.05 4.3-.25 8.3 1.85-3-3.5-7.8-3.45-5.35.05-8.4 4.9z" id="eZ"/><path fill="url(#bn)" d="M-502.5-628.35q-4.8-.35-8.1 2.95 4.25-1.85 8.45-1.3 4.35.55 7.4 3.55l.25.2q-2.7-5.05-8-5.4z" id="fa"/><path fill="url(#bo)" d="M-510.45-629.5q-3.3-.1-5.75.85-2.35.9-2.45 2.3-.05 1.4 2.3 2.5 2.35 1.1 5.7 1.2 3.3.1 5.75-.85 2.4-.95 2.45-2.35 0-1.4-2.3-2.45-2.35-1.1-5.7-1.2z" id="fb"/><path fill="#A6DA30" d="M-496.95-609.9q-2.6 2.7-6.25 4.15-3.9 1.55-8.1 1.35-4.3-.15-8-1.9-3.55-1.65-5.95-4.5 1.65 4.1 5.35 6.65 3.75 2.65 8.45 2.8 4.7.15 8.7-2.25 3.85-2.35 5.8-6.3z" id="fc"/><path fill="#F3D72A" d="M-515.75-623.6l1.7.5q1.35-1.15 3.45-2.3-2.85.55-5.15 1.8z" id="fd"/><path fill="#F3D72A" d="M-507.25-622.9l1.8-.4q-2.35-1.4-5.15-2.1 1.5.85 3.35 2.5z" id="fe"/><path fill="#F3D72A" d="M-511.75-622.75l2.1.1q-.55-1.75-.95-2.6l-1.15 2.5z" id="ff"/><path fill="#F3D72A" d="M-510.6-625.35q-3.6-1.55-7.95-.65.05.85 1.3 1.6 3.35-1.25 6.65-.95z" id="fg"/><path fill="#F3D72A" d="M-502.5-625.5q-4.4-1.1-8.1.15 3.4-.05 6.65 1.4 1.1-.7 1.45-1.55z" id="fh"/><path fill="#F3D72A" d="M-510.6-625.4q-2.15-2.55-5.75-3.25-1.35.55-1.95 1.4 3.95-.15 7.7 1.85z" id="fi"/><path fill="#F3D72A" d="M-504.6-628.3q-3.45.45-6 2.9 3.9-1.75 7.85-1.35-.5-.8-1.85-1.55z" id="fj"/><path fill="#DA991E" d="M-519.8-604q-.35-1.2-.55-2.85-2.9-1.6-4.65-3.7l-.05.25q1.75 3.85 5.25 6.3z" id="fk"/><path fill="#DA991E" d="M-497.25-609.4v-.25q-2.1 2.15-4.9 3.4-.2 1.15-.8 2.75 3.75-2.2 5.7-5.9z" id="fl"/><path fill="#DA991E" d="M-508.9-601.45q.25-1.1.5-3.05-.95.1-2.9.1-1.35 0-2.95-.25.05.7.3 3 1.3.3 2.5.3 1.1.05 2.55-.1z" id="fm"/><path fill="#C27527" d="M-510.5-627.7q-1.5-.05-2.6.5t-1.1 1.3q0 .8 1.05 1.4 1.05.65 2.55.7 1.45.05 2.55-.5 1.1-.55 1.15-1.4 0-.8-1.05-1.4-1.05-.6-2.55-.6z" id="fn"/></defs><use xlink:href="#bp"/><use xlink:href="#bq" transform="translate(443.546 504.333) scale(.5894)"/><use xlink:href="#br" transform="translate(443.546 504.333) scale(.5894)"/><use xlink:href="#bs" transform="translate(443.546 504.333) scale(.5894)"/><use xlink:href="#bt" transform="translate(443.546 504.333) scale(.5894)"/><use xlink:href="#bu" transform="translate(443.546 504.333) scale(.5894)"/><use xlink:href="#bv" transform="translate(443.546 504.333) scale(.5894)"/><use xlink:href="#bw" transform="translate(443.546 504.333) scale(.5894)"/><use xlink:href="#bx" transform="translate(443.546 504.333) scale(.5894)"/><use xlink:href="#by" transform="translate(443.546 504.333) scale(.5894)"/><use xlink:href="#bz" transform="translate(443.546 504.333) scale(.5894)"/><use xlink:href="#bA" transform="translate(443.546 504.333) scale(.5894)"/><use xlink:href="#bB" transform="translate(443.546 504.333) scale(.5894)"/><use xlink:href="#bC" transform="translate(443.546 504.333) scale(.5894)"/><use xlink:href="#bD" transform="translate(443.546 504.333) scale(.5894)"/><use xlink:href="#bE" transform="translate(443.546 504.333) scale(.5894)"/><use xlink:href="#bF" transform="translate(443.546 504.333) scale(.5894)"/><use xlink:href="#bG" transform="translate(443.546 504.333) scale(.5894)"/><use xlink:href="#bH" transform="translate(443.546 504.333) scale(.5894)"/><use xlink:href="#bI" transform="translate(443.546 504.333) scale(.5894)"/><use xlink:href="#bJ" transform="translate(443.546 504.333) scale(.5894)"/><use xlink:href="#bK" transform="translate(443.546 504.333) scale(.5894)"/><use xlink:href="#bL" transform="translate(443.546 504.333) scale(.5894)"/><use xlink:href="#bM" transform="translate(443.546 504.333) scale(.5894)"/><use xlink:href="#bN" transform="translate(443.546 504.333) scale(.5894)"/><use xlink:href="#bO" transform="translate(443.546 504.333) scale(.5894)"/><use xlink:href="#bP" transform="translate(443.546 504.333) scale(.5894)"/><use xlink:href="#bQ" transform="translate(443.546 504.333) scale(.5894)"/><use xlink:href="#bR" transform="translate(443.546 504.333) scale(.5894)"/><use xlink:href="#bS" transform="translate(443.546 504.333) scale(.5894)"/><use xlink:href="#bT" transform="translate(443.546 504.333) scale(.5894)"/><use xlink:href="#bU" transform="translate(443.546 504.333) scale(.5894)"/><use xlink:href="#bV" transform="translate(443.546 504.333) scale(.5894)"/><use xlink:href="#bW" transform="translate(443.546 504.333) scale(.5894)"/><use xlink:href="#bX" transform="translate(443.546 504.333) scale(.5894)"/><use xlink:href="#bY" transform="translate(443.546 504.333) scale(.5894)"/><use xlink:href="#bZ" transform="translate(443.546 504.333) scale(.5894)"/><use xlink:href="#ca" transform="translate(443.546 504.333) scale(.5894)"/><use xlink:href="#cb" transform="translate(443.546 504.333) scale(.5894)"/><use xlink:href="#cc" transform="translate(443.546 504.333) scale(.5894)"/><use xlink:href="#cd" transform="translate(443.546 504.333) scale(.5894)"/><use xlink:href="#ce" transform="translate(443.546 504.333) scale(.5894)"/><use xlink:href="#cf" transform="translate(443.546 504.333) scale(.5894)"/><use xlink:href="#cg" transform="translate(443.546 504.333) scale(.5894)"/><use xlink:href="#ch" transform="translate(443.546 504.333) scale(.5894)"/><use xlink:href="#ci" transform="translate(443.546 504.333) scale(.5894)"/><use xlink:href="#cj" transform="translate(443.546 504.333) scale(.5894)"/><use xlink:href="#ck" transform="translate(443.546 504.333) scale(.5894)"/><use xlink:href="#cl" transform="translate(443.546 504.333) scale(.5894)"/><use xlink:href="#cm" transform="translate(443.546 504.333) scale(.5894)"/><use xlink:href="#cn" transform="translate(443.546 504.333) scale(.5894)"/><use xlink:href="#co" transform="translate(443.546 504.333) scale(.5894)"/><use xlink:href="#cp" transform="translate(443.546 504.333) scale(.5894)"/><use xlink:href="#cq" transform="translate(443.546 504.333) scale(.5894)"/><use xlink:href="#cr" transform="translate(443.546 504.333) scale(.5894)"/><use xlink:href="#cs" transform="translate(443.546 504.333) scale(.5894)"/><use xlink:href="#ct" transform="translate(443.546 504.333) scale(.5894)"/><use xlink:href="#cu" transform="translate(443.546 504.333) scale(.5894)"/><use xlink:href="#cv" transform="translate(443.546 504.333) scale(.5894)"/><use xlink:href="#cw" transform="translate(443.546 504.333) scale(.5894)"/><use xlink:href="#cx" transform="translate(443.546 504.333) scale(.5894)"/><use xlink:href="#cy" transform="translate(443.546 504.333) scale(.5894)"/><use xlink:href="#cz" transform="translate(443.546 504.333) scale(.5894)"/><use xlink:href="#cA" transform="translate(443.546 504.333) scale(.5894)"/><use xlink:href="#cB" transform="translate(443.546 504.333) scale(.5894)"/><use xlink:href="#cC" transform="translate(443.546 504.333) scale(.5894)"/><use xlink:href="#cD" transform="translate(443.546 504.333) scale(.5894)"/><use xlink:href="#cE" transform="translate(443.546 504.333) scale(.5894)"/><use xlink:href="#cF" transform="translate(443.546 504.333) scale(.5894)"/><use xlink:href="#cG" transform="translate(443.546 504.333) scale(.5894)"/><use xlink:href="#cH" transform="translate(443.546 504.333) scale(.5894)"/><use xlink:href="#cI" transform="translate(443.546 504.333) scale(.5894)"/><use xlink:href="#cJ" transform="translate(443.546 504.333) scale(.5894)"/><use xlink:href="#cK" transform="translate(443.546 504.333) scale(.5894)"/><use xlink:href="#cL" transform="translate(443.546 504.333) scale(.5894)"/><use xlink:href="#cM" transform="translate(443.546 504.333) scale(.5894)"/><use xlink:href="#cN" transform="translate(443.546 504.333) scale(.5894)"/><use xlink:href="#cO" transform="translate(443.546 504.333) scale(.5894)"/><use xlink:href="#cP" transform="translate(443.546 504.333) scale(.5894)"/><use xlink:href="#cQ" transform="translate(443.546 504.333) scale(.5894)"/><use xlink:href="#cR" transform="translate(443.546 504.333) scale(.5894)"/><use xlink:href="#cS" transform="translate(443.546 504.333) scale(.5894)"/><use xlink:href="#cT" transform="translate(443.546 504.333) scale(.5894)"/><use xlink:href="#cU" transform="translate(443.546 504.333) scale(.5894)"/><use xlink:href="#cV" transform="translate(443.546 504.333) scale(.5894)"/><use xlink:href="#cW" transform="translate(443.546 504.333) scale(.5894)"/><use xlink:href="#cX" transform="translate(443.546 504.333) scale(.5894)"/><use xlink:href="#cY" transform="translate(443.546 504.333) scale(.5894)"/><use xlink:href="#cZ" transform="translate(443.546 504.333) scale(.5894)"/><use xlink:href="#da" transform="translate(443.546 504.333) scale(.5894)"/><use xlink:href="#db" transform="translate(443.546 504.333) scale(.5894)"/><use xlink:href="#dc" transform="translate(443.546 504.333) scale(.5894)"/><use xlink:href="#dd" transform="translate(443.546 504.333) scale(.5894)"/><use xlink:href="#de" transform="translate(443.546 504.333) scale(.5894)"/><use xlink:href="#df" transform="translate(443.546 504.333) scale(.5894)"/><use xlink:href="#dg" transform="translate(443.546 504.333) scale(.5894)"/><use xlink:href="#dh" transform="translate(443.546 504.333) scale(.5894)"/><use xlink:href="#di" transform="translate(443.546 504.333) scale(.5894)"/><use xlink:href="#dj" transform="translate(443.546 504.333) scale(.5894)"/><use xlink:href="#dk" transform="translate(443.546 504.333) scale(.5894)"/><use xlink:href="#dl" transform="translate(443.546 504.333) scale(.5894)"/><use xlink:href="#dm" transform="translate(443.546 504.333) scale(.5894)"/><use xlink:href="#dn" transform="translate(443.546 504.333) scale(.5894)"/><use xlink:href="#do" transform="translate(443.546 504.333) scale(.5894)"/><use xlink:href="#dp" transform="translate(443.546 504.333) scale(.5894)"/><use xlink:href="#dq" transform="translate(443.546 504.333) scale(.5894)"/><use xlink:href="#dr" transform="translate(443.546 504.333) scale(.5894)"/><use xlink:href="#ds" transform="translate(443.546 504.333) scale(.5894)"/><use xlink:href="#dt" transform="translate(443.546 504.333) scale(.5894)"/><use xlink:href="#du" transform="translate(443.546 504.333) scale(.5894)"/><use xlink:href="#dv" transform="translate(443.546 504.333) scale(.5894)"/><use xlink:href="#dw" transform="translate(443.546 504.333) scale(.5894)"/><use xlink:href="#dx" transform="translate(443.546 504.333) scale(.5894)"/><use xlink:href="#dy" transform="translate(443.546 504.333) scale(.5894)"/><use xlink:href="#dz" transform="translate(443.546 504.333) scale(.5894)"/><use xlink:href="#dA" transform="translate(443.546 504.333) scale(.5894)"/><use xlink:href="#dB" transform="translate(443.546 504.333) scale(.5894)"/><use xlink:href="#dC" transform="translate(443.546 504.333) scale(.5894)"/><use xlink:href="#dD" transform="translate(443.546 504.333) scale(.5894)"/><use xlink:href="#dE" transform="translate(443.546 504.333) scale(.5894)"/><use xlink:href="#dF" transform="translate(443.546 504.333) scale(.5894)"/><use xlink:href="#dG" transform="translate(443.546 504.333) scale(.5894)"/><use xlink:href="#dH" transform="translate(443.546 504.333) scale(.5894)"/><use xlink:href="#dI" transform="translate(443.546 504.333) scale(.5894)"/><use xlink:href="#dJ" transform="translate(443.546 504.333) scale(.5894)"/><use xlink:href="#dK" transform="translate(443.546 504.333) scale(.5894)"/><use xlink:href="#dL" transform="translate(443.546 504.333) scale(.5894)"/><use xlink:href="#dM" transform="translate(443.546 504.333) scale(.5894)"/><use xlink:href="#dN" transform="translate(443.546 504.333) scale(.5894)"/><use xlink:href="#dO" transform="translate(443.546 504.333) scale(.5894)"/><use xlink:href="#dP" transform="translate(443.546 504.333) scale(.5894)"/><use xlink:href="#dQ" transform="translate(443.546 504.333) scale(.5894)"/><use xlink:href="#dR" transform="translate(443.546 504.333) scale(.5894)"/><use xlink:href="#dS" transform="translate(443.546 504.333) scale(.5894)"/><use xlink:href="#dT" transform="translate(443.546 504.333) scale(.5894)"/><use xlink:href="#dU" transform="translate(443.546 504.333) scale(.5894)"/><use xlink:href="#dV" transform="translate(443.546 504.333) scale(.5894)"/><use xlink:href="#dW" transform="translate(443.546 504.333) scale(.5894)"/><use xlink:href="#dX" transform="translate(443.546 504.333) scale(.5894)"/><use xlink:href="#dY" transform="translate(443.546 504.333) scale(.5894)"/><use xlink:href="#dZ" transform="translate(443.546 504.333) scale(.5894)"/><use xlink:href="#ea" transform="translate(443.546 504.333) scale(.5894)"/><use xlink:href="#eb" transform="translate(443.546 504.333) scale(.5894)"/><use xlink:href="#ec" transform="translate(443.546 504.333) scale(.5894)"/><use xlink:href="#ed" transform="translate(443.546 504.333) scale(.5894)"/><use xlink:href="#ee" transform="translate(443.546 504.333) scale(.5894)"/><use xlink:href="#ef" transform="translate(443.546 504.333) scale(.5894)"/><use xlink:href="#eg" transform="translate(443.546 504.333) scale(.5894)"/><use xlink:href="#eh" transform="translate(443.546 504.333) scale(.5894)"/><use xlink:href="#ei" transform="translate(443.546 504.333) scale(.5894)"/><use xlink:href="#ej" transform="translate(443.546 504.333) scale(.5894)"/><use xlink:href="#ek" transform="translate(443.546 504.333) scale(.5894)"/><use xlink:href="#el" transform="translate(443.546 504.333) scale(.5894)"/><use xlink:href="#em" transform="translate(443.546 504.333) scale(.5894)"/><use xlink:href="#en" transform="translate(443.546 504.333) scale(.5894)"/><use xlink:href="#eo" transform="translate(443.546 504.333) scale(.5894)"/><use xlink:href="#ep" transform="translate(443.546 504.333) scale(.5894)"/><use xlink:href="#eq" transform="translate(443.546 504.333) scale(.5894)"/><use xlink:href="#er" transform="translate(443.546 504.333) scale(.5894)"/><use xlink:href="#es" transform="translate(443.546 504.333) scale(.5894)"/><use xlink:href="#et" transform="translate(443.546 504.333) scale(.5894)"/><use xlink:href="#eu" transform="translate(443.546 504.333) scale(.5894)"/><use xlink:href="#ev" transform="translate(443.546 504.333) scale(.5894)"/><use xlink:href="#ew" transform="translate(443.546 504.333) scale(.5894)"/><use xlink:href="#ex" transform="translate(443.546 504.333) scale(.5894)"/><use xlink:href="#ey" transform="translate(443.546 504.333) scale(.5894)"/><use xlink:href="#ez" transform="translate(443.546 504.333) scale(.5894)"/><use xlink:href="#eA" transform="translate(443.546 504.333) scale(.5894)"/><use xlink:href="#eB" transform="translate(443.546 504.333) scale(.5894)"/><use xlink:href="#eC" transform="translate(443.546 504.333) scale(.5894)"/><use xlink:href="#eD" transform="translate(443.546 504.333) scale(.5894)"/><use xlink:href="#eE" transform="translate(443.546 504.333) scale(.5894)"/><use xlink:href="#eF" transform="translate(443.546 504.333) scale(.5894)"/><use xlink:href="#eG" transform="translate(443.546 504.333) scale(.5894)"/><use xlink:href="#eH" transform="translate(443.546 504.333) scale(.5894)"/><use xlink:href="#eI" transform="translate(443.546 504.333) scale(.5894)"/><use xlink:href="#eJ" transform="translate(443.546 504.333) scale(.5894)"/><use xlink:href="#eK" transform="translate(443.546 504.333) scale(.5894)"/><use xlink:href="#eL" transform="translate(443.546 504.333) scale(.5894)"/><use xlink:href="#eM" transform="translate(443.546 504.333) scale(.5894)"/><use xlink:href="#eN" transform="translate(443.546 504.333) scale(.5894)"/><use xlink:href="#eO" transform="translate(443.546 504.333) scale(.5894)"/><use xlink:href="#eP" transform="translate(443.546 504.333) scale(.5894)"/><use xlink:href="#eQ" transform="translate(443.546 504.333) scale(.5894)"/><use xlink:href="#eR" transform="translate(443.546 504.333) scale(.5894)"/><use xlink:href="#eS" transform="translate(443.546 504.333) scale(.5894)"/><use xlink:href="#eT" transform="translate(443.546 504.333) scale(.5894)"/><use xlink:href="#eU" transform="translate(443.546 504.333) scale(.5894)"/><use xlink:href="#eV" transform="translate(443.546 504.333) scale(.5894)"/><use xlink:href="#eW" transform="translate(443.546 504.333) scale(.5894)"/><use xlink:href="#eX" transform="translate(443.546 504.333) scale(.5894)"/><use xlink:href="#eY" transform="translate(443.546 504.333) scale(.5894)"/><use xlink:href="#eZ" transform="translate(443.546 504.333) scale(.5894)"/><use xlink:href="#fa" transform="translate(443.546 504.333) scale(.5894)"/><use xlink:href="#fb" transform="translate(443.546 504.333) scale(.5894)"/><use xlink:href="#fc" transform="translate(443.546 504.333) scale(.5894)"/><use xlink:href="#fd" transform="translate(443.546 504.333) scale(.5894)"/><use xlink:href="#fe" transform="translate(443.546 504.333) scale(.5894)"/><use xlink:href="#ff" transform="translate(443.546 504.333) scale(.5894)"/><use xlink:href="#fg" transform="translate(443.546 504.333) scale(.5894)"/><use xlink:href="#fh" transform="translate(443.546 504.333) scale(.5894)"/><use xlink:href="#fi" transform="translate(443.546 504.333) scale(.5894)"/><use xlink:href="#fj" transform="translate(443.546 504.333) scale(.5894)"/><use xlink:href="#fk" transform="translate(443.546 504.333) scale(.5894)"/><use xlink:href="#fl" transform="translate(443.546 504.333) scale(.5894)"/><use xlink:href="#fm" transform="translate(443.546 504.333) scale(.5894)"/><use xlink:href="#fn" transform="translate(443.546 504.333) scale(.5894)"/></svg>