<svg xmlns="http://www.w3.org/2000/svg" xmlns:xlink="http://www.w3.org/1999/xlink" preserveAspectRatio="none" width="284" height="320"><defs><linearGradient id="a" gradientUnits="userSpaceOnUse" x1="329.462" y1="305" x2="423.038" y2="305" spreadMethod="pad"><stop offset="0%" stop-color="#E7E8E9"/><stop offset="100%" stop-color="#FFF"/></linearGradient><linearGradient id="b" gradientUnits="userSpaceOnUse" x1="327.488" y1="296.6" x2="425.613" y2="296.6" spreadMethod="pad"><stop offset="0%" stop-color="#E7E8E9"/><stop offset="100%" stop-color="#FFF"/></linearGradient><linearGradient id="c" gradientUnits="userSpaceOnUse" x1="350.5" y1="284.9" x2="234.5" y2="284.9" spreadMethod="pad"><stop offset="0%" stop-color="#687996"/><stop offset="16.078%" stop-color="#4D5C76"/><stop offset="78.039%" stop-color="#B4BDD0"/><stop offset="100%" stop-color="#7B89A5"/></linearGradient><linearGradient id="d" gradientUnits="userSpaceOnUse" x1="345.438" y1="206.9" x2="236.563" y2="206.9" spreadMethod="pad"><stop offset="0%" stop-color="#BAC2D3"/><stop offset="12.941%" stop-color="#96A1BA"/><stop offset="78.039%" stop-color="#E0E2EB"/><stop offset="100%" stop-color="#BEC4D5"/></linearGradient><linearGradient id="e" gradientUnits="userSpaceOnUse" x1="254.888" y1="228.55" x2="328.713" y2="192.55" spreadMethod="pad"><stop offset="0%" stop-color="#A8B2C7"/><stop offset="100%" stop-color="#7585A1"/></linearGradient><linearGradient id="f" gradientUnits="userSpaceOnUse" x1="268.488" y1="209.2" x2="327.412" y2="209.2" spreadMethod="pad"><stop offset="0%" stop-color="#6D7D9A"/><stop offset="100%" stop-color="#51627D"/></linearGradient><linearGradient id="g" gradientUnits="userSpaceOnUse" x1="292.4" y1="240.525" x2="292.4" y2="181.775" spreadMethod="pad"><stop offset="0%" stop-color="#CDD2E0"/><stop offset="36.863%" stop-color="#DADEE8"/><stop offset="100%" stop-color="#FFF"/></linearGradient><linearGradient id="h" gradientUnits="userSpaceOnUse" x1="276.475" y1="307.05" x2="307.725" y2="307.05" spreadMethod="pad"><stop offset="0%" stop-color="#B4BDD0"/><stop offset="100%" stop-color="#8997B1"/></linearGradient><linearGradient id="i" gradientUnits="userSpaceOnUse" x1="349.487" y1="278.4" x2="233.812" y2="278.4" spreadMethod="pad"><stop offset="0%" stop-color="#A8B2C7"/><stop offset="12.941%" stop-color="#7B89A5"/><stop offset="78.039%" stop-color="#DADEE8"/><stop offset="100%" stop-color="#AFB8CB"/></linearGradient><linearGradient id="j" gradientUnits="userSpaceOnUse" x1="288.462" y1="251.1" x2="302.038" y2="251.1" spreadMethod="pad"><stop offset="0%" stop-color="#8998B1"/><stop offset="100%" stop-color="#526684"/></linearGradient><linearGradient id="k" gradientUnits="userSpaceOnUse" x1="327.45" y1="275.6" x2="258.05" y2="275.6" spreadMethod="pad"><stop offset="0%" stop-color="#596B89"/><stop offset="100%" stop-color="#BAC2D3"/></linearGradient><linearGradient id="l" gradientUnits="userSpaceOnUse" x1="286.5" y1="250.4" x2="300.4" y2="250.4" spreadMethod="pad"><stop offset="0%" stop-color="#A8B2C7"/><stop offset="100%" stop-color="#939FB8"/></linearGradient><linearGradient id="m" gradientUnits="userSpaceOnUse" x1="266.475" y1="278" x2="312.925" y2="278" spreadMethod="pad"><stop offset="0%" stop-color="#FDD9BF"/><stop offset="100%" stop-color="#FBB786"/></linearGradient><linearGradient id="n" gradientUnits="userSpaceOnUse" x1="282.475" y1="289.225" x2="311.425" y2="285.675" spreadMethod="pad"><stop offset="0%" stop-color="#FAB182"/><stop offset="100%" stop-color="#F89E5F"/></linearGradient><linearGradient id="o" gradientUnits="userSpaceOnUse" x1="255.863" y1="288.137" x2="304.738" y2="262.162" spreadMethod="pad"><stop offset="0%" stop-color="#FEE7D4"/><stop offset="38.039%" stop-color="#FFF4ED"/><stop offset="100%" stop-color="#FCCBAA"/></linearGradient><linearGradient id="p" gradientUnits="userSpaceOnUse" x1="306.712" y1="298.85" x2="240.287" y2="273.35" spreadMethod="pad"><stop offset="0%" stop-color="#A8B2C7"/><stop offset="32.157%" stop-color="#CDD2E0"/><stop offset="65.098%" stop-color="#FFF"/><stop offset="100%" stop-color="#D3D8E5"/></linearGradient><linearGradient id="q" gradientUnits="userSpaceOnUse" x1="377.162" y1="292.913" x2="309.738" y2="269.688" spreadMethod="pad"><stop offset="0%" stop-color="#FEDFCA"/><stop offset="14.902%" stop-color="#FCCBAA"/><stop offset="80%" stop-color="#FEE9DB"/><stop offset="100%" stop-color="#FEDFCA"/></linearGradient><linearGradient id="r" gradientUnits="userSpaceOnUse" x1="315.825" y1="257.013" x2="379.175" y2="290.688" spreadMethod="pad"><stop offset="0%" stop-color="#FFF4ED"/><stop offset="100%" stop-color="#FEE7D4"/></linearGradient><linearGradient id="s" gradientUnits="userSpaceOnUse" x1="314.313" y1="261.613" x2="313.087" y2="260.088" spreadMethod="pad"><stop offset="0%" stop-color="#FEE7D4"/><stop offset="100%" stop-color="#FFF4ED"/></linearGradient><linearGradient id="t" gradientUnits="userSpaceOnUse" x1="319.387" y1="269.563" x2="317.912" y2="267.737" spreadMethod="pad"><stop offset="0%" stop-color="#FEE7D4"/><stop offset="100%" stop-color="#FFF4ED"/></linearGradient><linearGradient id="u" gradientUnits="userSpaceOnUse" x1="314.163" y1="266.762" x2="312.938" y2="265.238" spreadMethod="pad"><stop offset="0%" stop-color="#FEE7D4"/><stop offset="100%" stop-color="#FFF4ED"/></linearGradient><linearGradient id="v" gradientUnits="userSpaceOnUse" x1="324.262" y1="278.688" x2="322.738" y2="276.813" spreadMethod="pad"><stop offset="0%" stop-color="#FEE1CC"/><stop offset="100%" stop-color="#FEE9DB"/></linearGradient><linearGradient id="w" gradientUnits="userSpaceOnUse" x1="327.262" y1="260.688" x2="325.738" y2="258.813" spreadMethod="pad"><stop offset="0%" stop-color="#FEE7D4"/><stop offset="100%" stop-color="#FFF4ED"/></linearGradient><linearGradient id="x" gradientUnits="userSpaceOnUse" x1="336.538" y1="273.463" x2="335.063" y2="271.637" spreadMethod="pad"><stop offset="0%" stop-color="#FEE1CC"/><stop offset="100%" stop-color="#FEE9DB"/></linearGradient><linearGradient id="y" gradientUnits="userSpaceOnUse" x1="339.363" y1="290.587" x2="337.838" y2="288.712" spreadMethod="pad"><stop offset="0%" stop-color="#FEE1CC"/><stop offset="100%" stop-color="#FEE9DB"/></linearGradient><linearGradient id="z" gradientUnits="userSpaceOnUse" x1="354.387" y1="287.613" x2="352.912" y2="285.787" spreadMethod="pad"><stop offset="0%" stop-color="#FDD5B8"/><stop offset="100%" stop-color="#FEE7D4"/></linearGradient><linearGradient id="A" gradientUnits="userSpaceOnUse" x1="349.675" y1="277.387" x2="348.725" y2="276.213" spreadMethod="pad"><stop offset="0%" stop-color="#FDD5B8"/><stop offset="100%" stop-color="#FEE7D4"/></linearGradient><linearGradient id="B" gradientUnits="userSpaceOnUse" x1="361.575" y1="273.438" x2="360.625" y2="272.263" spreadMethod="pad"><stop offset="0%" stop-color="#FDD5B8"/><stop offset="100%" stop-color="#FEE7D4"/></linearGradient><linearGradient id="C" gradientUnits="userSpaceOnUse" x1="371.012" y1="288.875" x2="369.588" y2="287.125" spreadMethod="pad"><stop offset="0%" stop-color="#FDD5B8"/><stop offset="100%" stop-color="#FEE7D4"/></linearGradient><linearGradient id="D" gradientUnits="userSpaceOnUse" x1="363.988" y1="282.888" x2="363.512" y2="282.313" spreadMethod="pad"><stop offset="0%" stop-color="#FDD5B8"/><stop offset="100%" stop-color="#FEE7D4"/></linearGradient><linearGradient id="E" gradientUnits="userSpaceOnUse" x1="361.962" y1="292.938" x2="360.438" y2="291.063" spreadMethod="pad"><stop offset="0%" stop-color="#FDD7B9"/><stop offset="100%" stop-color="#FEE7D4"/></linearGradient><linearGradient id="F" gradientUnits="userSpaceOnUse" x1="374.262" y1="282.688" x2="372.738" y2="280.813" spreadMethod="pad"><stop offset="0%" stop-color="#FDD7B9"/><stop offset="100%" stop-color="#FEE7D4"/></linearGradient><linearGradient id="G" gradientUnits="userSpaceOnUse" x1="353.35" y1="263.625" x2="352.25" y2="262.275" spreadMethod="pad"><stop offset="0%" stop-color="#FDD5B8"/><stop offset="100%" stop-color="#FEE7D4"/></linearGradient><linearGradient id="H" gradientUnits="userSpaceOnUse" x1="371.1" y1="269.775" x2="370" y2="268.425" spreadMethod="pad"><stop offset="0%" stop-color="#FDD5B8"/><stop offset="100%" stop-color="#FEE7D4"/></linearGradient><linearGradient id="I" gradientUnits="userSpaceOnUse" x1="381.188" y1="278.75" x2="379.413" y2="276.55" spreadMethod="pad"><stop offset="0%" stop-color="#FDD7B9"/><stop offset="100%" stop-color="#FEE7D4"/></linearGradient><linearGradient id="J" gradientUnits="userSpaceOnUse" x1="342.85" y1="264.012" x2="341.05" y2="261.787" spreadMethod="pad"><stop offset="0%" stop-color="#FEE1CC"/><stop offset="100%" stop-color="#FEE9DB"/></linearGradient><linearGradient id="K" gradientUnits="userSpaceOnUse" x1="329.012" y1="269.9" x2="327.088" y2="267.5" spreadMethod="pad"><stop offset="0%" stop-color="#FEE7D4"/><stop offset="100%" stop-color="#FFF2E8"/></linearGradient><linearGradient id="L" gradientUnits="userSpaceOnUse" x1="335.262" y1="255.7" x2="333.338" y2="253.3" spreadMethod="pad"><stop offset="0%" stop-color="#FEE7D4"/><stop offset="100%" stop-color="#FFF2E8"/></linearGradient><linearGradient id="M" gradientUnits="userSpaceOnUse" x1="367.837" y1="262" x2="366.462" y2="260.3" spreadMethod="pad"><stop offset="0%" stop-color="#FDD5B8"/><stop offset="100%" stop-color="#FEE7D4"/></linearGradient><linearGradient id="N" gradientUnits="userSpaceOnUse" x1="299.45" y1="168.75" x2="283.95" y2="168.75" spreadMethod="pad"><stop offset="0%" stop-color="#6E7F9C"/><stop offset="100%" stop-color="#7B89A5"/></linearGradient><linearGradient id="O" gradientUnits="userSpaceOnUse" x1="292.45" y1="237.525" x2="292.45" y2="216.675" spreadMethod="pad"><stop offset="0%" stop-color="#FFF"/><stop offset="100%" stop-color="#DADEE8"/></linearGradient><linearGradient id="P" gradientUnits="userSpaceOnUse" x1="284.488" y1="305.8" x2="306.412" y2="305.8" spreadMethod="pad"><stop offset="0%" stop-color="#8998B1"/><stop offset="100%" stop-color="#526684"/></linearGradient><radialGradient id="Q" gradientUnits="userSpaceOnUse" cx="0" cy="0" r="3.4" fx="0" fy="0" gradientTransform="matrix(1 0 0 -1 276.5 178.55)" spreadMethod="pad"><stop offset="0%" stop-color="#FFF"/><stop offset="100%" stop-color="#D3D8E5"/></radialGradient><radialGradient id="R" gradientUnits="userSpaceOnUse" cx="0" cy="0" r="2.35" fx="0" fy="0" gradientTransform="matrix(1 0 0 -1 291.5 175.55)" spreadMethod="pad"><stop offset="0%" stop-color="#FFF"/><stop offset="100%" stop-color="#D3D8E5"/></radialGradient><path fill="#FFF" fill-opacity="0" d="M284 0H0v320h284V0z" id="S"/><path fill="url(#a)" d="M361.7 287.5q-15.4 0-26.35 5.1-10.95 5.15-10.95 12.45 0 7.25 10.95 12.35 10.95 5.15 26.35 5.15 15.4 0 26.3-5.15 10.9-5.1 10.9-12.35 0-7.3-10.9-12.45-10.9-5.1-26.3-5.1z" id="T"/><path fill="url(#b)" d="M370.55 296.6q0-11-19.15-18.85-19.15-7.85-46.1-7.85-26.85 0-46 7.85t-19.15 18.85q0 11 19.15 18.85 19.1 7.8 46 7.8 26.95 0 46.1-7.8 19.15-7.85 19.15-18.85z" id="U"/><path fill="url(#c)" d="M346.35 294.75q2.75-4.2 3.7-9.15 1.1-5.45-.3-10.35-2.8-9.95-20.05-15.55-15.5-5.05-37.05-5.05h-.2q-21.65 0-37.15 5.05-17.2 5.55-20.05 15.55-1.4 4.9-.3 10.35 1 4.95 3.7 9.15 3.95 6.1 11.4 10.6 6.15 3.75 14.15 6.1 13.05 3.75 28.25 3.75h.2q15.1 0 28.15-3.75 8.05-2.35 14.2-6.1 7.45-4.5 11.35-10.6z" id="V"/><path fill="url(#d)" d="M330.75 236.4q16.05-12.2 16.05-29.5 0-17.2-16.05-29.5-16-12.25-38.55-12.25-22.55 0-38.55 12.25-16 12.25-16 29.5 0 17.3 16 29.5 15.95 12.25 38.55 12.25 22.55 0 38.55-12.25z" id="W"/><path fill="url(#e)" d="M331.4 239.25q16.2-12.05 16.2-28.95 0-14.95-12.95-26.4-12.8-11.25-32.15-14 .1-.8-.3-1.45-.4-.75-1.2-.95-8.55-1.9-17.15 0-1.6.4-1.5 2.4-19.35 2.75-32.1 14-12.95 11.45-12.95 26.4 0 16.9 16.2 28.95 16.15 12 38.95 12 22.75 0 38.95-12z" id="X"/><path fill="url(#f)" d="M321.25 187.75q-11.95-8.9-28.8-8.9t-28.85 8.9q-12 8.9-12 21.45 0 12.55 12 21.45 12 8.95 28.85 8.95t28.8-8.95q11.95-8.9 11.95-21.45 0-12.55-11.95-21.45z" id="Y"/><path fill="url(#g)" d="M321.25 189.8q-11.95-8.9-28.8-8.9-16.9 0-28.85 8.9-12 8.9-12 21.45 0 12.55 12 21.45 12 8.9 28.85 8.9t28.8-8.9q11.95-8.9 11.95-21.45 0-12.55-11.95-21.45z" id="Z"/><path fill="url(#h)" d="M306.5 308.55q2.55-.4 2.35-2.35-.15-1.95-2.35-1.75-14 1.7-28.05 0-2.25-.2-2.4 1.75-.2 1.95 2.4 2.35 14.1 2.2 28.05 0z" id="aa"/><path fill="url(#i)" d="M350.4 278.4q0-11.9-17-20.3t-40.95-8.4q-23.95 0-40.95 8.4-17 8.4-17 20.3t17 20.3q17 8.45 40.95 8.45 23.95 0 40.95-8.45 17-8.4 17-20.3z" id="ab"/><path fill="url(#j)" d="M283.1 250.05v.65q0 .75.5 1.3.5.5 1.25.5h16.6q.8 0 1.3-.5.55-.55.55-1.3v-.5q-4.35-.5-10.85-.5-5.15 0-9.35.35z" id="ac"/><path fill="url(#k)" d="M324.6 290.35q13.35-6.1 13.35-14.75t-13.35-14.75q-13.35-6.15-32.15-6.15-18.8 0-32.15 6.15-13.35 6.1-13.35 14.75t13.35 14.75q13.35 6.15 32.15 6.15 18.8 0 32.15-6.15z" id="ad"/><path fill="url(#l)" d="M300.15 251.9q1 0 1.75-.45t.75-1.05q0-.65-.75-1.05-.7-.45-1.75-.45h-13.6q-1.1 0-1.85.45-.75.4-.75 1.05 0 .6.75 1.05.75.45 1.85.45h13.6z" id="ae"/><path fill="url(#m)" d="M324.6 292.6q13.35-6.1 13.35-14.65 0-8.5-13.35-14.5-13.35-6.05-32.15-6.05-18.8 0-32.15 6.05-13.35 6-13.35 14.5 0 8.55 13.35 14.65 13.35 6.05 32.15 6.05 18.8 0 32.15-6.05z" id="af"/><path fill="#FAB182" d="M336.2 272.35q-.3-.4-.35-.55-2.9-3.55-8.05-6.8-6.35-3.55-15.5-5.55-9.4-2.05-19.85-2.05-11.7 0-21.95 2.5l.35.05q16.25-3.3 34.25-.4 20.05 3.15 31.1 12.8z" id="ag"/><path fill="url(#n)" d="M303.75 295q-3.05 1.15-11.1 1.7-15.8 1.05-32.4-4.2 6.3 2.95 14.5 4.5 8.4 1.65 17.7 1.65 15.5 0 27.8-4.35 12.05-4.3 16.05-11l-30.55-8.3q-.3 1.55 1.05 5.3 1.75 4.85 2.05 6.4 1.05 6-5.1 8.3z" id="ah"/><path fill="url(#o)" d="M262.8 265.05q-11.5 5.25-11.5 12.65 0 5.8 7.5 10.55-3.45-3.45-3.45-7.4 0-7.4 11.45-12.65 11.5-5.3 27.65-5.3 9.45 0 17.9 2.05 8.15 2 13.55 5.4-4.65-4.7-14.15-7.55-9.7-2.95-21.35-2.95-16.15 0-27.6 5.2z" id="ai"/><path fill="url(#p)" d="M258.85 293.8q-14.2-7.05-14.2-16.9 0-7.75 9.2-14.05-5.4 3.2-8.3 7.05-3 4-3 8.3 0 9.85 14.15 16.9 14.15 7.05 34.1 7.05 11.8 0 22.25-2.7 10.1-2.65 16.85-7.2-6.85 3.95-16.3 6.2-9.85 2.35-20.65 2.35-19.95 0-34.1-7z" id="aj"/><path fill="url(#q)" d="M350.85 260.2q-14.75-3.55-24.05-3.85-11.95-.35-17.5 4.4-1.6 1.4-2.75 6.05-.65 2.5-1.45 6.65-2.2 9.3 8.1 18.3 10.1 8.8 26.9 12.85 16.85 4.1 29.85.85 13.3-3.35 15.5-12.7 1.1-3.7 1.7-6.3 1.2-4.85.85-6.3-1.85-7.25-12.8-12.35-7.9-3.7-24.35-7.6z" id="ak"/><path fill="url(#r)" d="M387.7 283.5q2.25-9.45-7.9-19-10.2-9.55-26.8-13.55t-30-.1q-13.4 3.9-15.65 13.35-2.3 9.45 7.85 19 10.2 9.6 26.75 13.55 16.65 4 30.05.15 13.4-3.9 15.7-13.4z" id="al"/><path fill="url(#s)" d="M313.7 259.85q-1.4-.25-1.55.4-.1.25.25.6t.9.5q1.4.3 1.55-.45.1-.7-1.15-1.05z" id="am"/><path fill="url(#t)" d="M318.7 267.7q-.6-.2-1.15-.05-.55.15-.65.45-.1.4.3.75.45.4 1.15.55.65.15 1.15 0 .55-.15.65-.5.1-.35-.3-.7-.45-.35-1.15-.5z" id="an"/><path fill="url(#u)" d="M313.25 264.75q-1.4-.3-1.5.35-.05.3.25.6.35.35.9.45.55.2 1 .05.4-.1.5-.4.1-.35-.25-.65-.35-.3-.9-.4z" id="ao"/><path fill="url(#v)" d="M324.65 278.8q.55-.15.6-.45.1-.35-.3-.75t-1.1-.65q-.7-.15-1.25 0-.6.15-.7.5-.05.4.35.75.45.4 1.15.55.7.2 1.25.05z" id="ap"/><path fill="url(#w)" d="M326.55 258.6q-.65-.2-1.25-.05-.6.15-.7.5-.05.4.35.8.45.4 1.1.55.7.15 1.3 0 .55-.15.65-.5.1-.35-.35-.75-.4-.4-1.1-.55z" id="aq"/><path fill="url(#x)" d="M335.9 271.55q-.7-.15-1.2 0-.55.15-.65.5-.05.35.4.75.4.35 1.05.5.65.15 1.2 0 .55-.1.6-.45.1-.35-.3-.75-.4-.35-1.1-.55z" id="ar"/><path fill="url(#y)" d="M339 289.05q-.7-.15-1.25 0t-.6.5q-.1.4.3.75.45.4 1.15.55.65.2 1.25.05.6-.15.7-.55.1-.85-1.55-1.3z" id="as"/><path fill="url(#z)" d="M353.5 285.4q-.7-.2-1.25-.05-.55.15-.65.45-.05.4.35.75.4.4 1.1.55.65.2 1.2.05.55-.15.6-.55.1-.3-.3-.65-.4-.4-1.05-.55z" id="at"/><path fill="url(#A)" d="M349.4 276.3q-1.05-.25-1.15.3-.2.55.85.8t1.15-.3q.25-.5-.85-.8z" id="au"/><path fill="url(#B)" d="M361 272.05q-1.05-.25-1.15.3-.15.5.9.8 1.05.25 1.15-.3.15-.5-.9-.8z" id="av"/><path fill="url(#C)" d="M370.2 286.85q-.6-.2-1.15-.05-.5.15-.6.45-.25.8 1.4 1.25.65.15 1.15 0 .5-.1.55-.45.1-.35-.3-.7t-1.05-.5z" id="aw"/><path fill="url(#D)" d="M363.8 282.3q-.55-.2-.65.15 0 .3.5.4.55.2.55-.1.05-.1-.05-.25-.15-.15-.35-.2z" id="ax"/><path fill="url(#E)" d="M361.2 290.8q-.7-.2-1.25-.05-.55.15-.65.55-.05.35.35.75.4.35 1.1.55.7.15 1.3 0 .55-.15.65-.5.1-.35-.35-.75-.45-.4-1.15-.55z" id="ay"/><path fill="url(#F)" d="M374 281.2q-.7-.15-1.25 0-.6.15-.7.5-.05.4.4.75.45.4 1.15.55.65.2 1.25.05.55-.15.6-.55.1-.35-.3-.75-.45-.35-1.15-.55z" id="az"/><path fill="url(#G)" d="M353.05 262.5q-.45-.15-.9-.05-.4.1-.45.35-.15.55 1.05 1 .5.1.9 0 .45-.1.5-.35.1-.7-1.1-.95z" id="aA"/><path fill="url(#H)" d="M370.7 268.45q-.5-.1-.9 0t-.45.4q-.15.6 1.05.9 1.2.3 1.4-.35.05-.25-.25-.55-.35-.3-.85-.4z" id="aB"/><path fill="url(#I)" d="M380.15 276.1q-.8-.2-1.5-.05-.65.2-.75.65-.1.4.4.85.5.4 1.35.65.8.2 1.45.05.65-.2.75-.65.1-.4-.4-.85-.5-.4-1.3-.65z" id="aC"/><path fill="url(#J)" d="M342.2 261.85q-.85-.2-1.5-.05-.65.2-.75.6-.1.45.4.9t1.35.65q.8.2 1.45 0 .65-.15.75-.6.1-.4-.4-.9-.5-.45-1.3-.6z" id="aD"/><path fill="url(#K)" d="M328.3 267.55q-.85-.2-1.55-.05-.75.2-.85.6-.1.5.45 1 .55.45 1.45.65.85.2 1.55.05.7-.2.8-.6.1-.5-.4-.95-.55-.5-1.45-.7z" id="aE"/><path fill="url(#L)" d="M334.4 253.15q-.85-.2-1.55-.05-.7.2-.8.7-.2.45.4.95.5.45 1.4.7.9.25 1.6.05.75-.2.85-.7.1-.45-.45-.95-.6-.5-1.45-.7z" id="aF"/><path fill="url(#M)" d="M367.15 260.2q-.55-.2-1.05-.05-.55.15-.65.45-.1.35.3.7.45.4 1.05.45.65.2 1.15.05.5-.15.6-.45.05-.35-.35-.7-.4-.35-1.05-.45z" id="aG"/><path fill="url(#N)" d="M284.55 169.15q.1.9 1.2.8 6.75-.75 13.4 0 1.05.1 1.15-.8.05-.95-1.15-1.1-6.7-1.15-13.4 0-1.25.15-1.2 1.1z" id="aH"/><path fill="url(#O)" d="M292.45 238q12.95 0 23.05-6.1 9.95-6 12.65-15.15H256.7q2.75 9.15 12.7 15.15 10.1 6.1 23.05 6.1z" id="aI"/><path fill="url(#P)" d="M308.85 306.05q-.1-.75-.7-1.2-.7-.5-1.65-.4-14 1.7-28.05 0-.95-.1-1.6.4-.65.45-.75 1.2 8.1 1.1 16.35 1.1 8.15 0 16.4-1.1z" id="aJ"/><path fill="url(#Q)" d="M276.4 170.7l-.55 7.5-7.55.5 7.55.5.55 7.55.5-7.55 7.45-.5-7.45-.5-.5-7.5z" id="aK"/><path fill="url(#R)" d="M291.05 169.75l-.25 5.2-5.3.35 5.3.35.25 5.2.4-5.2 5.15-.35-5.15-.35-.4-5.2z" id="aL"/><path fill="#FFF" d="M265.3 273.75l-.5 7.7-7.8.55 7.8.5.5 7.8.5-7.8 7.75-.5-7.75-.55-.5-7.7z" id="aM"/></defs><use xlink:href="#S"/><use xlink:href="#T" transform="matrix(1.61343 0 0 1.61343 -368.87 -223.909)"/><use xlink:href="#U" transform="matrix(1.61343 0 0 1.61343 -368.87 -223.909)"/><use xlink:href="#V" transform="matrix(1.61343 0 0 1.61343 -368.87 -223.909)"/><use xlink:href="#W" transform="matrix(1.61343 0 0 1.61343 -368.87 -223.909)"/><use xlink:href="#X" transform="matrix(1.61343 0 0 1.61343 -368.87 -223.909)"/><use xlink:href="#Y" transform="matrix(1.61343 0 0 1.61343 -368.87 -223.909)"/><use xlink:href="#Z" transform="matrix(1.61343 0 0 1.61343 -368.87 -223.909)"/><use xlink:href="#aa" transform="matrix(1.61343 0 0 1.61343 -368.87 -223.909)"/><use xlink:href="#ab" transform="matrix(1.61343 0 0 1.61343 -368.87 -223.909)"/><use xlink:href="#ac" transform="matrix(1.61343 0 0 1.61343 -368.87 -223.909)"/><use xlink:href="#ad" transform="matrix(1.61343 0 0 1.61343 -368.87 -223.909)"/><use xlink:href="#ae" transform="matrix(1.61343 0 0 1.61343 -368.87 -223.909)"/><use xlink:href="#af" transform="matrix(1.61343 0 0 1.61343 -368.87 -223.909)"/><use xlink:href="#ag" transform="matrix(1.61343 0 0 1.61343 -368.87 -223.909)"/><use xlink:href="#ah" transform="matrix(1.61343 0 0 1.61343 -368.87 -223.909)"/><use xlink:href="#ai" transform="matrix(1.61343 0 0 1.61343 -368.87 -223.909)"/><use xlink:href="#aj" transform="matrix(1.61343 0 0 1.61343 -368.87 -223.909)"/><use xlink:href="#ak" transform="matrix(1.61343 0 0 1.61343 -368.87 -223.909)"/><use xlink:href="#al" transform="matrix(1.61343 0 0 1.61343 -368.87 -223.909)"/><use xlink:href="#am" transform="matrix(1.61343 0 0 1.61343 -368.87 -223.909)"/><use xlink:href="#an" transform="matrix(1.61343 0 0 1.61343 -368.87 -223.909)"/><use xlink:href="#ao" transform="matrix(1.61343 0 0 1.61343 -368.87 -223.909)"/><use xlink:href="#ap" transform="matrix(1.61343 0 0 1.61343 -368.87 -223.909)"/><use xlink:href="#aq" transform="matrix(1.61343 0 0 1.61343 -368.87 -223.909)"/><use xlink:href="#ar" transform="matrix(1.61343 0 0 1.61343 -368.87 -223.909)"/><use xlink:href="#as" transform="matrix(1.61343 0 0 1.61343 -368.87 -223.909)"/><use xlink:href="#at" transform="matrix(1.61343 0 0 1.61343 -368.87 -223.909)"/><use xlink:href="#au" transform="matrix(1.61343 0 0 1.61343 -368.87 -223.909)"/><use xlink:href="#av" transform="matrix(1.61343 0 0 1.61343 -368.87 -223.909)"/><use xlink:href="#aw" transform="matrix(1.61343 0 0 1.61343 -368.87 -223.909)"/><use xlink:href="#ax" transform="matrix(1.61343 0 0 1.61343 -368.87 -223.909)"/><use xlink:href="#ay" transform="matrix(1.61343 0 0 1.61343 -368.87 -223.909)"/><use xlink:href="#az" transform="matrix(1.61343 0 0 1.61343 -368.87 -223.909)"/><use xlink:href="#aA" transform="matrix(1.61343 0 0 1.61343 -368.87 -223.909)"/><use xlink:href="#aB" transform="matrix(1.61343 0 0 1.61343 -368.87 -223.909)"/><use xlink:href="#aC" transform="matrix(1.61343 0 0 1.61343 -368.87 -223.909)"/><use xlink:href="#aD" transform="matrix(1.61343 0 0 1.61343 -368.87 -223.909)"/><use xlink:href="#aE" transform="matrix(1.61343 0 0 1.61343 -368.87 -223.909)"/><use xlink:href="#aF" transform="matrix(1.61343 0 0 1.61343 -368.87 -223.909)"/><use xlink:href="#aG" transform="matrix(1.61343 0 0 1.61343 -368.87 -223.909)"/><use xlink:href="#aH" transform="matrix(1.61343 0 0 1.61343 -368.87 -223.909)"/><use xlink:href="#aI" transform="matrix(1.61343 0 0 1.61343 -368.87 -223.909)"/><use xlink:href="#aJ" transform="matrix(1.61343 0 0 1.61343 -368.87 -223.909)"/><use xlink:href="#aK" transform="matrix(1.61343 0 0 1.61343 -368.87 -223.909)"/><use xlink:href="#aL" transform="matrix(1.61343 0 0 1.61343 -368.87 -223.909)"/><use xlink:href="#aM" transform="matrix(1.61343 0 0 1.61343 -368.87 -223.909)"/></svg>