<svg xmlns="http://www.w3.org/2000/svg" xmlns:xlink="http://www.w3.org/1999/xlink" preserveAspectRatio="none" width="284" height="320"><defs><linearGradient id="a" gradientUnits="userSpaceOnUse" x1="381.3" y1="2323.15" x2="381.3" y2="2201.05" spreadMethod="pad"><stop offset="0%" stop-color="#C79F53"/><stop offset="19.608%" stop-color="#CEA65D"/><stop offset="56.471%" stop-color="#E0BC78"/><stop offset="100%" stop-color="#FFDFA1"/></linearGradient><linearGradient id="b" gradientUnits="userSpaceOnUse" x1="354.35" y1="2451.175" x2="354.35" y2="2230.825" spreadMethod="pad"><stop offset="0%" stop-color="#8B7045"/><stop offset="21.176%" stop-color="#9A7B49"/><stop offset="70.98%" stop-color="#BA9450"/><stop offset="100%" stop-color="#C79F53"/></linearGradient><linearGradient id="c" gradientUnits="userSpaceOnUse" x1="292.35" y1="2187.425" x2="292.35" y2="2344.675" spreadMethod="pad"><stop offset="0%" stop-color="#554434"/><stop offset="10.98%" stop-color="#594735"/><stop offset="27.843%" stop-color="#655039"/><stop offset="48.235%" stop-color="#7A6140"/><stop offset="61.961%" stop-color="#8B7045"/><stop offset="100%" stop-color="#C79F53"/></linearGradient><linearGradient id="d" gradientUnits="userSpaceOnUse" x1="351.4" y1="2670.513" x2="351.4" y2="2322.287" spreadMethod="pad"><stop offset="0%" stop-color="#FED090"/><stop offset="1.961%" stop-color="#FEC77E"/><stop offset="5.098%" stop-color="#FCB862"/><stop offset="8.235%" stop-color="#FBAD4B"/><stop offset="11.373%" stop-color="#FAA63C"/><stop offset="14.51%" stop-color="#F9A135"/><stop offset="17.647%" stop-color="#F9A033"/><stop offset="65.098%" stop-color="#E77035"/><stop offset="72.157%" stop-color="#E06D35"/><stop offset="79.608%" stop-color="#CF6536"/><stop offset="87.059%" stop-color="#B55835"/><stop offset="94.51%" stop-color="#954933"/><stop offset="100%" stop-color="#7C3D30"/></linearGradient><linearGradient id="e" gradientUnits="userSpaceOnUse" x1="506.65" y1="2671.287" x2="506.65" y2="2333.213" spreadMethod="pad"><stop offset="0%" stop-color="#FFECB4"/><stop offset=".784%" stop-color="#FFE5A6"/><stop offset="3.922%" stop-color="#FFD282"/><stop offset="6.667%" stop-color="#FEC363"/><stop offset="9.412%" stop-color="#FCB74B"/><stop offset="12.157%" stop-color="#FBAF3C"/><stop offset="14.902%" stop-color="#FBAA34"/><stop offset="17.647%" stop-color="#FAA832"/><stop offset="65.098%" stop-color="#ED7C37"/><stop offset="71.765%" stop-color="#E67837"/><stop offset="78.431%" stop-color="#D66E37"/><stop offset="85.49%" stop-color="#BE6136"/><stop offset="92.941%" stop-color="#A05034"/><stop offset="92.941%" stop-color="#A05034" stop-opacity="0"/><stop offset="100%" stop-opacity="0"/></linearGradient><linearGradient id="f" gradientUnits="userSpaceOnUse" x1="506.65" y1="2671.287" x2="506.65" y2="2333.213" spreadMethod="pad"><stop offset="0%" stop-opacity="0"/><stop offset="92.941%" stop-color="#A05034" stop-opacity="0"/><stop offset="92.941%" stop-color="#A05034"/><stop offset="100%" stop-color="#7D3E30"/><stop offset="100%" stop-color="#7C3D30"/></linearGradient><linearGradient id="g" gradientUnits="userSpaceOnUse" x1="453.75" y1="2671.425" x2="453.75" y2="2327.675" spreadMethod="pad"><stop offset="0%" stop-color="#FFECB4"/><stop offset=".784%" stop-color="#FFE5A6"/><stop offset="3.922%" stop-color="#FFD282"/><stop offset="6.667%" stop-color="#FEC363"/><stop offset="9.412%" stop-color="#FCB74B"/><stop offset="12.157%" stop-color="#FBAF3C"/><stop offset="14.902%" stop-color="#FBAA34"/><stop offset="17.647%" stop-color="#FAA832"/><stop offset="65.098%" stop-color="#ED7C37"/><stop offset="71.765%" stop-color="#E67837"/><stop offset="78.431%" stop-color="#D66E37"/><stop offset="85.49%" stop-color="#BE6136"/><stop offset="92.941%" stop-color="#A05034"/><stop offset="92.941%" stop-color="#A05034" stop-opacity="0"/><stop offset="100%" stop-opacity="0"/></linearGradient><linearGradient id="h" gradientUnits="userSpaceOnUse" x1="453.75" y1="2671.425" x2="453.75" y2="2327.675" spreadMethod="pad"><stop offset="0%" stop-opacity="0"/><stop offset="92.941%" stop-color="#A05034" stop-opacity="0"/><stop offset="92.941%" stop-color="#A05034"/><stop offset="100%" stop-color="#7D3E30"/><stop offset="100%" stop-color="#7C3D30"/></linearGradient><linearGradient id="i" gradientUnits="userSpaceOnUse" x1="384.55" y1="2671.275" x2="384.55" y2="2337.625" spreadMethod="pad"><stop offset="0%" stop-color="#FFECB4"/><stop offset=".784%" stop-color="#FFE5A6"/><stop offset="3.922%" stop-color="#FFD282"/><stop offset="6.667%" stop-color="#FEC363"/><stop offset="9.412%" stop-color="#FCB74B"/><stop offset="12.157%" stop-color="#FBAF3C"/><stop offset="14.902%" stop-color="#FBAA34"/><stop offset="17.647%" stop-color="#FAA832"/><stop offset="65.098%" stop-color="#ED7C37"/><stop offset="71.765%" stop-color="#E67837"/><stop offset="78.431%" stop-color="#D66E37"/><stop offset="85.49%" stop-color="#BE6136"/><stop offset="92.941%" stop-color="#A05034"/><stop offset="92.941%" stop-color="#A05034" stop-opacity="0"/><stop offset="100%" stop-opacity="0"/></linearGradient><linearGradient id="j" gradientUnits="userSpaceOnUse" x1="384.55" y1="2671.275" x2="384.55" y2="2337.625" spreadMethod="pad"><stop offset="0%" stop-opacity="0"/><stop offset="92.941%" stop-color="#A05034" stop-opacity="0"/><stop offset="92.941%" stop-color="#A05034"/><stop offset="100%" stop-color="#7D3E30"/><stop offset="100%" stop-color="#7C3D30"/></linearGradient><linearGradient id="k" gradientUnits="userSpaceOnUse" x1="318.75" y1="2671.287" x2="318.75" y2="2333.213" spreadMethod="pad"><stop offset="0%" stop-color="#FFECB4"/><stop offset=".784%" stop-color="#FFE5A6"/><stop offset="3.922%" stop-color="#FFD282"/><stop offset="6.667%" stop-color="#FEC363"/><stop offset="9.412%" stop-color="#FCB74B"/><stop offset="12.157%" stop-color="#FBAF3C"/><stop offset="14.902%" stop-color="#FBAA34"/><stop offset="17.647%" stop-color="#FAA832"/><stop offset="65.098%" stop-color="#ED7C37"/><stop offset="71.765%" stop-color="#E67837"/><stop offset="78.431%" stop-color="#D66E37"/><stop offset="85.49%" stop-color="#BE6136"/><stop offset="92.941%" stop-color="#A05034"/><stop offset="92.941%" stop-color="#A05034" stop-opacity="0"/><stop offset="100%" stop-opacity="0"/></linearGradient><linearGradient id="l" gradientUnits="userSpaceOnUse" x1="318.75" y1="2671.287" x2="318.75" y2="2333.213" spreadMethod="pad"><stop offset="0%" stop-opacity="0"/><stop offset="92.941%" stop-color="#A05034" stop-opacity="0"/><stop offset="92.941%" stop-color="#A05034"/><stop offset="100%" stop-color="#7D3E30"/><stop offset="100%" stop-color="#7C3D30"/></linearGradient><linearGradient id="m" gradientUnits="userSpaceOnUse" x1="236.4" y1="2671.287" x2="236.4" y2="2333.213" spreadMethod="pad"><stop offset="0%" stop-color="#FFECB4"/><stop offset=".784%" stop-color="#FFE5A6"/><stop offset="3.922%" stop-color="#FFD282"/><stop offset="6.667%" stop-color="#FEC363"/><stop offset="9.412%" stop-color="#FCB74B"/><stop offset="12.157%" stop-color="#FBAF3C"/><stop offset="14.902%" stop-color="#FBAA34"/><stop offset="17.647%" stop-color="#FAA832"/><stop offset="65.098%" stop-color="#ED7C37"/><stop offset="71.765%" stop-color="#E67837"/><stop offset="78.431%" stop-color="#D66E37"/><stop offset="85.49%" stop-color="#BE6136"/><stop offset="92.941%" stop-color="#A05034"/><stop offset="92.941%" stop-color="#A05034" stop-opacity="0"/><stop offset="100%" stop-opacity="0"/></linearGradient><linearGradient id="n" gradientUnits="userSpaceOnUse" x1="236.4" y1="2671.287" x2="236.4" y2="2333.213" spreadMethod="pad"><stop offset="0%" stop-opacity="0"/><stop offset="92.941%" stop-color="#A05034" stop-opacity="0"/><stop offset="92.941%" stop-color="#A05034"/><stop offset="100%" stop-color="#7D3E30"/><stop offset="100%" stop-color="#7C3D30"/></linearGradient><linearGradient id="o" gradientUnits="userSpaceOnUse" x1="174.05" y1="2671.287" x2="174.05" y2="2333.213" spreadMethod="pad"><stop offset="0%" stop-color="#FFECB4"/><stop offset=".784%" stop-color="#FFE5A6"/><stop offset="3.922%" stop-color="#FFD282"/><stop offset="6.667%" stop-color="#FEC363"/><stop offset="9.412%" stop-color="#FCB74B"/><stop offset="12.157%" stop-color="#FBAF3C"/><stop offset="14.902%" stop-color="#FBAA34"/><stop offset="17.647%" stop-color="#FAA832"/><stop offset="65.098%" stop-color="#ED7C37"/><stop offset="71.765%" stop-color="#E67837"/><stop offset="78.431%" stop-color="#D66E37"/><stop offset="85.49%" stop-color="#BE6136"/><stop offset="92.941%" stop-color="#A05034"/><stop offset="92.941%" stop-color="#A05034" stop-opacity="0"/><stop offset="100%" stop-opacity="0"/></linearGradient><linearGradient id="p" gradientUnits="userSpaceOnUse" x1="174.05" y1="2671.287" x2="174.05" y2="2333.213" spreadMethod="pad"><stop offset="0%" stop-opacity="0"/><stop offset="92.941%" stop-color="#A05034" stop-opacity="0"/><stop offset="92.941%" stop-color="#A05034"/><stop offset="100%" stop-color="#7D3E30"/><stop offset="100%" stop-color="#7C3D30"/></linearGradient><linearGradient id="q" gradientUnits="userSpaceOnUse" x1="358.85" y1="2648.625" x2="358.85" y2="2672.875" spreadMethod="pad"><stop offset="0%" stop-color="#7C3D30"/><stop offset="100%" stop-color="#8C4334"/></linearGradient><linearGradient id="r" gradientUnits="userSpaceOnUse" x1="349" y1="2648.625" x2="349" y2="2672.875" spreadMethod="pad"><stop offset="0%" stop-color="#7C3D30"/><stop offset="100%" stop-color="#8C4334"/></linearGradient><linearGradient id="s" gradientUnits="userSpaceOnUse" x1="500.2" y1="2648.625" x2="500.2" y2="2672.875" spreadMethod="pad"><stop offset="0%" stop-color="#7C3D30"/><stop offset="100%" stop-color="#8C4334"/></linearGradient><linearGradient id="t" gradientUnits="userSpaceOnUse" x1="472.9" y1="2462.162" x2="472.9" y2="2582.237" spreadMethod="pad"><stop offset="0%" stop-color="#492A24"/><stop offset="19.608%" stop-color="#4B2B24"/><stop offset="39.608%" stop-color="#522D26"/><stop offset="60.392%" stop-color="#5C3128"/><stop offset="80.784%" stop-color="#6A372C"/><stop offset="100%" stop-color="#7C3D30"/></linearGradient><linearGradient id="u" gradientUnits="userSpaceOnUse" x1="336.7" y1="2465.863" x2="336.7" y2="2585.938" spreadMethod="pad"><stop offset="0%" stop-color="#492A24"/><stop offset="19.608%" stop-color="#4B2B24"/><stop offset="39.608%" stop-color="#522D26"/><stop offset="60.392%" stop-color="#5C3128"/><stop offset="80.784%" stop-color="#6A372C"/><stop offset="100%" stop-color="#7C3D30"/></linearGradient><linearGradient id="v" gradientUnits="userSpaceOnUse" x1="487.55" y1="2428.287" x2="487.55" y2="2472.112" spreadMethod="pad"><stop offset="0%" stop-color="#B8682F"/><stop offset="11.765%" stop-color="#C17131"/><stop offset="70.588%" stop-color="#E9A348"/><stop offset="100%" stop-color="#FDBC56"/></linearGradient><linearGradient id="w" gradientUnits="userSpaceOnUse" x1="354.3" y1="2428.287" x2="354.3" y2="2472.112" spreadMethod="pad"><stop offset="0%" stop-color="#B8682F"/><stop offset="11.765%" stop-color="#C17131"/><stop offset="70.588%" stop-color="#E9A348"/><stop offset="100%" stop-color="#FDBC56"/></linearGradient><linearGradient id="x" gradientUnits="userSpaceOnUse" x1="380.35" y1="2485.638" x2="380.35" y2="2608.662" spreadMethod="pad"><stop offset="0%" stop-color="#B8682F"/><stop offset="11.765%" stop-color="#C17131"/><stop offset="70.588%" stop-color="#E9A348"/><stop offset="100%" stop-color="#FDBC56"/></linearGradient><linearGradient id="y" gradientUnits="userSpaceOnUse" x1="374.8" y1="2458.925" x2="374.8" y2="2591.875" spreadMethod="pad"><stop offset="0%" stop-color="#492A24"/><stop offset="19.608%" stop-color="#4B2B24"/><stop offset="39.608%" stop-color="#522D26"/><stop offset="60.392%" stop-color="#5C3128"/><stop offset="80.784%" stop-color="#6A372C"/><stop offset="100%" stop-color="#7C3D30"/></linearGradient><path fill="#FFF" fill-opacity="0" d="M284 320V0H0v320h284z" id="z"/><path fill="url(#a)" d="M338.6 2191.85l-5.85-6.45 29.75 107.25 16.55 31.45 10.9 3.7 39.85-5.65-2.1-3.65q-4.9-.9-13.6-8-17.8-14.5-28.4-42.85-10.7-28.5-32.9-58.2-6.9-9.3-14.2-17.6z" id="A"/><path fill="url(#b)" d="M318.75 2185.4v21.25l14 25.9 1.1 22.65 3.1 1.4-14.05 49.65-4.15 15.9 11.5 7.05 17.1 3.8 42.6-5.2-1.35-3.7q-5.7-27.85-15.55-59.15-19.65-62.55-40.3-79.55h-14z" id="B"/><path fill="url(#c)" d="M323.9 2191.15l-5.15-5.75-2.8 3.65q-3.3 4.35-5.55 8.2-7.2 12.3-1.55 14.25 7.6 2.7 12.2 12.45 5.65 11.9 8.15 36.2 2.4 22.8-12.45 36.1-10.35 9.3-23.35 10.9-6.8.85-33.25 8.7l-25.15 7.7 19 23 76.25-17.35q4.3-4.8 8.85-15.35 9.1-21.15 10.5-50 1.45-28.85-14.55-56.55-5-8.65-11.15-16.15z" id="C"/><path fill="url(#d)" d="M239.7 2326.2q-1.95-1.2-4.7-2.65-53.65 13.4-95.75 67.7-36.25 46.8-17.85 124.35 11.65 48.9 42.35 101.95l6.15 10.35q6.05 9.85 16.2 18.95 7.7 6.35 15.9 9.1 4.1 1.35 6.65 1.45 2.8 4.2 7.85 7.75 3.35 2.4 9.65 5.65 4.7 2.1 10.9 3.5 3.3.75 8.6 1.95 10.15 3.1 27.95-1.5 8.9-2.3 15.75-5.25l2.3 2.3q3.05 2.7 7.1 4.8 12.85 6.75 30.2 4.8 17.4-1.95 25.75-4.8 4.2-1.4 4.9-2.45l5.8 2.35q8.95 2.65 24.85 4.35 15.9 1.7 28.15-4.55 6.15-3.1 9.1-6.6 23.15 6.1 41.25.15 9.05-2.95 13.45-7.15l2.4.15q3.1.05 6.6-.5 11.25-1.8 22.4-8.85 35.55-22.55 56.5-89.35l1.65-5.35q22.65-75.85 12.85-126.75-10.95-56.8-63.5-87.85-19.3-11.4-42.55-18.2-17.8-5.2-33.9-6.8-11.85-1.15-35.05-.3-6.55.35-11.4 1.25-7.55 1.45-9.6 3.95-5.05-1.05-11.65-1.85-13.2-1.55-20.8-.1-7.6 1.45-17.5 4.4l-8.4 2.65q-1.95-2.5-6.1-4.45-8.3-3.8-19.2-.75-14 3.9-14.8 4.95-1.75-2.9-5.7-5.3-7.05-4.3-17.9-4.35-4.75.15-8.65.5-7.85.95-13.8 3.8l-4.4 2.6z" id="D"/><path fill="url(#e)" d="M444.65 2319.2q-7.5-.7-18.85-.7 18.85 9 26.35 15.35 6.1 5.2 29.3 31.05 27.3 30.45 36.35 75.85 7.2 36.05 2.6 79.85-3.25 30.75-11.85 62.2-4.2 15.35-7 22.75l-15.1 57.25q18.35-.75 36.35-16.15 29.3-25 47.3-82.5l1.65-5.35q22.65-75.85 12.85-126.75-10.95-56.8-63.5-87.85-19.3-11.4-42.55-18.2-17.8-5.2-33.9-6.8z" id="E"/><path fill="url(#f)" d="M444.65 2319.2q-7.5-.7-18.85-.7 18.85 9 26.35 15.35 6.1 5.2 29.3 31.05 27.3 30.45 36.35 75.85 7.2 36.05 2.6 79.85-3.25 30.75-11.85 62.2-4.2 15.35-7 22.75l-15.1 57.25q18.35-.75 36.35-16.15 29.3-25 47.3-82.5l1.65-5.35q22.65-75.85 12.85-126.75-10.95-56.8-63.5-87.85-19.3-11.4-42.55-18.2-17.8-5.2-33.9-6.8z" id="F"/><path fill="url(#g)" d="M396.75 2327.75q-7.1 5.1-2.5 13.8 40.6 75.4 45.9 149.55 6.2 87.65-4.85 137.95-2.95 13.2-6.5 24.8-1.8 5.8-3 8.95h29.8l27.4-8.4 18.55-48.85q6.65-32.25 10.6-71.3 7.95-78.1-5.5-112.1-15-38.05-42.5-69.55-12.5-14.3-23.9-22.35-11.8-8.35-19.85-8.1-16.65.55-23.65 5.6z" id="G"/><path fill="url(#h)" d="M396.75 2327.75q-7.1 5.1-2.5 13.8 40.6 75.4 45.9 149.55 6.2 87.65-4.85 137.95-2.95 13.2-6.5 24.8-1.8 5.8-3 8.95h29.8l27.4-8.4 18.55-48.85q6.65-32.25 10.6-71.3 7.95-78.1-5.5-112.1-15-38.05-42.5-69.55-12.5-14.3-23.9-22.35-11.8-8.35-19.85-8.1-16.65.55-23.65 5.6z" id="H"/><path fill="url(#i)" d="M351.35 2327.15q-14.35 3.2-17.95 16.55-1.8 6.75 2 44.65 1.85 18.2 9.55 83.5 7.15 60.25 10.1 92.55 4.55 48.8 3.7 71.85l-1.1 32.7H404l24.6-14.55 6.7-25.35q1.95-41.1.5-90.2-2.95-98.2-20.1-138.35-20.35-47.6-27.3-59.5-4.05-6.95-7.6-9.85-2.9-2.35-7.4-3.4-12.15-2.8-22.05-.6z" id="I"/><path fill="url(#j)" d="M351.35 2327.15q-14.35 3.2-17.95 16.55-1.8 6.75 2 44.65 1.85 18.2 9.55 83.5 7.15 60.25 10.1 92.55 4.55 48.8 3.7 71.85l-1.1 32.7H404l24.6-14.55 6.7-25.35q1.95-41.1.5-90.2-2.95-98.2-20.1-138.35-20.35-47.6-27.3-59.5-4.05-6.95-7.6-9.85-2.9-2.35-7.4-3.4-12.15-2.8-22.05-.6z" id="J"/><path fill="url(#k)" d="M313.8 2327.8q-11.2-.05-20.35 7.2-11.6 9.15-16.4 28.05-4.7 18.6.75 129.2 2.1 42.6 4.95 82.3 2.8 38.4 4.6 51.35 2.75 19.85 5.95 29.35.75 2.2 1.75 4.6.55 1.55.45 2.95-.2 2.9 12.65 6.95 6.45 2 12.9 3.45l41.45-18.8-3.75-18.15q-7.45-53.05-15.25-111.7-15.55-117.25-17-145.15-.9-19.95-1.25-26.9-.55-11.15-1.35-15.6-1-5.4-3.25-7.3-2.1-1.8-6.85-1.8z" id="K"/><path fill="url(#l)" d="M313.8 2327.8q-11.2-.05-20.35 7.2-11.6 9.15-16.4 28.05-4.7 18.6.75 129.2 2.1 42.6 4.95 82.3 2.8 38.4 4.6 51.35 2.75 19.85 5.95 29.35.75 2.2 1.75 4.6.55 1.55.45 2.95-.2 2.9 12.65 6.95 6.45 2 12.9 3.45l41.45-18.8-3.75-18.15q-7.45-53.05-15.25-111.7-15.55-117.25-17-145.15-.9-19.95-1.25-26.9-.55-11.15-1.35-15.6-1-5.4-3.25-7.3-2.1-1.8-6.85-1.8z" id="L"/><path fill="url(#m)" d="M264.35 2322.7q-4.85-.55-9.65 1.55-13.95 6.05-31.5 35.6-11.1 18.75-20.1 45-10.1 29.6-15 62.1-12.2 80.4 10.05 153.5l18.8 33.95 32.05 8.4 30.7-3.75 9.25-11.3-1.6-21.85q-5.05-34.8-10.1-77.35-10.05-85.1-9.85-123.75.25-40.8 4.3-60.85 2.25-11.15 8-22.1 3.65-7.05.25-12.4-2.95-4.65-9-5.45-3.9-1-6.6-1.3z" id="M"/><path fill="url(#n)" d="M264.35 2322.7q-4.85-.55-9.65 1.55-13.95 6.05-31.5 35.6-11.1 18.75-20.1 45-10.1 29.6-15 62.1-12.2 80.4 10.05 153.5l18.8 33.95 32.05 8.4 30.7-3.75 9.25-11.3-1.6-21.85q-5.05-34.8-10.1-77.35-10.05-85.1-9.85-123.75.25-40.8 4.3-60.85 2.25-11.15 8-22.1 3.65-7.05.25-12.4-2.95-4.65-9-5.45-3.9-1-6.6-1.3z" id="N"/><path fill="url(#o)" d="M210.1 2363.85q5.2-10.45 12.7-21.65 7.3-10.9 9-14.4.9-1.95 1.05-3.7-52.35 13.9-93.6 67.15-36.25 46.8-17.85 124.35 11.65 48.9 42.35 101.95l6.15 10.35q6.05 9.85 16.2 18.95 3.45 2.85 7.15 5.05l7.25-4.15 10.55-4.05-12.9-23.25q-8.75-14.35-15.25-41.3-13-53.9-1.65-117 11.3-63 28.85-98.3z" id="O"/><path fill="url(#p)" d="M210.1 2363.85q5.2-10.45 12.7-21.65 7.3-10.9 9-14.4.9-1.95 1.05-3.7-52.35 13.9-93.6 67.15-36.25 46.8-17.85 124.35 11.65 48.9 42.35 101.95l6.15 10.35q6.05 9.85 16.2 18.95 3.45 2.85 7.15 5.05l7.25-4.15 10.55-4.05-12.9-23.25q-8.75-14.35-15.25-41.3-13-53.9-1.65-117 11.3-63 28.85-98.3z" id="P"/><path fill="url(#q)" d="M358.9 2632.4l-.1 1.05q-.1 1.35-.05 2.8.2-1.45.2-2.8l-.05-1.05z" id="Q"/><path fill="url(#r)" d="M435.2 2649q-2.8-7.15-.55-17.45-3.3 11.6-10.9 20.1-12.35 13.8-32.3 13.4-18.8-.4-27.05-11.45-5.35-7.1-5.65-17.35-1 7.3-6.5 12.7-8.2 8.05-24.95 10.1-21.55 2.65-32.9-15-3.55-5.5-5.65-12.4l-1.4-5.75q1.1 16.15-11.5 21.25-9.25 3.7-33.85 3-17.6-.45-32.5-15.15-4.65-4.55-8.45-10l-2.9-4.55q9.3 20.05-3.8 21.9-4.1.6-9.95-.7l-5.05-1.4q3.25 3.45 6.75 6.6 7.7 6.35 15.9 9.1 4.1 1.35 6.65 1.45 2.8 4.2 7.85 7.75 3.35 2.4 9.65 5.65 4.7 2.1 10.9 3.5 3.3.75 8.6 1.95 10.15 3.1 27.95-1.5 8.9-2.3 15.75-5.25l2.3 2.3q3.05 2.7 7.1 4.8 12.85 6.75 30.2 4.8 17.4-1.95 25.75-4.8 4.2-1.4 4.9-2.45l5.8 2.35q8.95 2.65 24.85 4.35 15.9 1.7 28.15-4.55 6.15-3.1 9.1-6.6 23.15 6.1 41.25.15 9.05-2.95 13.45-7.15l2.85.15q3.7 0 7.8-.8 13.2-2.6 25.8-12.05-20.2 7.75-23.2-7.8-2-10.2 3.4-28.55-6 16.2-14.45 27.4-12.6 16.7-28 18-16.75 1.4-21.2-10.05z" id="R"/><path fill="url(#s)" d="M498.85 2613.65q1.15-3.05 2.05-5.85l.65-2.25-.8 2.25q-1 2.85-1.9 5.85z" id="S"/><path fill="url(#t)" d="M489.45 2426.45q12.4 4.45 19.3 8.5-.1-14.55-4.7-29.75-9.15-30.35-31.55-33.35-22.4-2.95-31.2 19.9-4.4 11.45-4.3 23.5 27.6 2.2 52.45 11.2z" id="T"/><path fill="url(#u)" d="M370 2414.55q2.55-12.35.2-24.75-4.75-24.75-29.4-24.75-24.6 0-34.05 26.9-4.75 13.45-4.55 26.9l21.5-3.1q25.65-2.75 46.3-1.2z" id="U"/><path fill="url(#v)" d="M472.5 2371.85q-2.85-.4-6.2-.3 15.8 4.05 23.35 25.35 4.8 13.6 5.6 31.75 8.75 3.5 13.5 6.3-.1-14.55-4.7-29.75-9.15-30.35-31.55-33.35z" id="V"/><path fill="url(#w)" d="M340.8 2365.05q-1.75 0-3.4.15 15.1 3.25 20.15 21.7 3.15 11.65 1.95 27.15 5.6.1 10.5.5 2.55-12.35.2-24.75-4.75-24.75-29.4-24.75z" id="W"/><path fill="url(#x)" d="M514.55 2571.7q1.2-2.95 1.95-4.1 17.25-38.15 15.9-61-2-33.85-45.2-27.45-22.5 3.3-47.4-.4Q421.25 2476 395 2468q-29.45-9.5-44.4-13.75-25.85-7.35-46.05-9.3-22.7-2.2-39.75 8-15.45 9.15-24.85 27.35-8.65 16.75-10.95 38.2-2.2 20.55 1.9 40.35 4 19.65 15.4 33.5l3.05 3.45q9.35 9.6 21.2 13.75 18.45 6.45 38.1-2.85 27.45-13 64.05-13.7 34.4-.7 56.95 9.25 18.3 8.1 40.35 3.6 22.65-4.6 35.95-20 4.55-5.9 8.6-14.15z" id="X"/><path fill="url(#y)" d="M496.25 2563.55q.95-2.3 1.75-3.5 15.6-32.25 14.4-51.55-1.75-28.55-40.9-23.2-20.35 2.8-42.9-.3-16.8-2.35-40.55-9.1-26.65-8.05-40.2-11.65-23.4-6.2-41.7-7.85-20.5-1.85-36 6.75-13.95 7.75-22.45 23.15-7.85 14.1-9.95 32.25-2 17.35 1.7 34.1 3.75 16.75 14 28.35l2.75 2.9q8.5 8.15 19.15 11.6 16.7 5.5 34.5-2.4 24.9-10.95 58-11.6 31.1-.55 51.55 7.85 16.55 6.85 36.55 3.05 20.5-3.9 32.55-16.9 3.95-4.8 7.75-11.95z" id="Y"/></defs><use xlink:href="#z"/><use xlink:href="#A" transform="matrix(.54892 0 0 .54892 -50.936 -1154.86)"/><use xlink:href="#B" transform="matrix(.54892 0 0 .54892 -50.936 -1154.86)"/><use xlink:href="#C" transform="matrix(.54892 0 0 .54892 -50.936 -1154.86)"/><use xlink:href="#D" transform="matrix(.54892 0 0 .54892 -50.936 -1154.86)"/><use xlink:href="#E" transform="matrix(.54892 0 0 .54892 -50.936 -1154.86)"/><use xlink:href="#F" transform="matrix(.54892 0 0 .54892 -50.936 -1154.86)"/><use xlink:href="#G" transform="matrix(.54892 0 0 .54892 -50.936 -1154.86)"/><use xlink:href="#H" transform="matrix(.54892 0 0 .54892 -50.936 -1154.86)"/><use xlink:href="#I" transform="matrix(.54892 0 0 .54892 -50.936 -1154.86)"/><use xlink:href="#J" transform="matrix(.54892 0 0 .54892 -50.936 -1154.86)"/><use xlink:href="#K" transform="matrix(.54892 0 0 .54892 -50.936 -1154.86)"/><use xlink:href="#L" transform="matrix(.54892 0 0 .54892 -50.936 -1154.86)"/><use xlink:href="#M" transform="matrix(.54892 0 0 .54892 -50.936 -1154.86)"/><use xlink:href="#N" transform="matrix(.54892 0 0 .54892 -50.936 -1154.86)"/><use xlink:href="#O" transform="matrix(.54892 0 0 .54892 -50.936 -1154.86)"/><use xlink:href="#P" transform="matrix(.54892 0 0 .54892 -50.936 -1154.86)"/><use xlink:href="#Q" transform="matrix(.54892 0 0 .54892 -50.936 -1154.86)"/><use xlink:href="#R" transform="matrix(.54892 0 0 .54892 -50.936 -1154.86)"/><use xlink:href="#S" transform="matrix(.54892 0 0 .54892 -50.936 -1154.86)"/><use xlink:href="#T" transform="matrix(.54892 0 0 .54892 -50.936 -1154.86)"/><use xlink:href="#U" transform="matrix(.54892 0 0 .54892 -50.936 -1154.86)"/><use xlink:href="#V" transform="matrix(.54892 0 0 .54892 -50.936 -1154.86)"/><use xlink:href="#W" transform="matrix(.54892 0 0 .54892 -50.936 -1154.86)"/><use xlink:href="#X" transform="matrix(.54892 0 0 .54892 -50.936 -1154.86)"/><use xlink:href="#Y" transform="matrix(.54892 0 0 .54892 -50.936 -1154.86)"/></svg>