<svg xmlns="http://www.w3.org/2000/svg" xmlns:xlink="http://www.w3.org/1999/xlink" preserveAspectRatio="none" width="284" height="320"><defs><linearGradient id="a" gradientUnits="userSpaceOnUse" x1="1048.5" y1="2683.287" x2="1048.5" y2="2293.013" spreadMethod="pad"><stop offset="0%" stop-color="#FED090"/><stop offset="1.961%" stop-color="#FEC77E"/><stop offset="5.098%" stop-color="#FCB862"/><stop offset="8.235%" stop-color="#FBAD4B"/><stop offset="11.373%" stop-color="#FAA63C"/><stop offset="14.51%" stop-color="#F9A135"/><stop offset="17.647%" stop-color="#F9A033"/><stop offset="65.098%" stop-color="#E77035"/><stop offset="72.157%" stop-color="#E06D35"/><stop offset="79.608%" stop-color="#CF6536"/><stop offset="87.059%" stop-color="#B55835"/><stop offset="94.51%" stop-color="#954933"/><stop offset="100%" stop-color="#7C3D30"/></linearGradient><linearGradient id="b" gradientUnits="userSpaceOnUse" x1="1214.4" y1="2672.8" x2="1214.4" y2="2297.5" spreadMethod="pad"><stop offset="0%" stop-color="#FFECB4"/><stop offset=".784%" stop-color="#FFE5A6"/><stop offset="3.922%" stop-color="#FFD282"/><stop offset="6.667%" stop-color="#FEC363"/><stop offset="9.412%" stop-color="#FCB74B"/><stop offset="12.157%" stop-color="#FBAF3C"/><stop offset="14.902%" stop-color="#FBAA34"/><stop offset="17.647%" stop-color="#FAA832"/><stop offset="65.098%" stop-color="#ED7C37"/><stop offset="71.765%" stop-color="#E67837"/><stop offset="78.431%" stop-color="#D66E37"/><stop offset="85.49%" stop-color="#BE6136"/><stop offset="92.941%" stop-color="#A05034"/><stop offset="92.941%" stop-color="#A05034" stop-opacity="0"/><stop offset="100%" stop-opacity="0"/></linearGradient><linearGradient id="c" gradientUnits="userSpaceOnUse" x1="1214.4" y1="2672.8" x2="1214.4" y2="2297.5" spreadMethod="pad"><stop offset="0%" stop-opacity="0"/><stop offset="92.941%" stop-color="#A05034" stop-opacity="0"/><stop offset="92.941%" stop-color="#A05034"/><stop offset="100%" stop-color="#7D3E30"/><stop offset="100%" stop-color="#7C3D30"/></linearGradient><linearGradient id="d" gradientUnits="userSpaceOnUse" x1="1166.15" y1="2672.7" x2="1166.15" y2="2293.4" spreadMethod="pad"><stop offset="0%" stop-color="#FFECB4"/><stop offset=".784%" stop-color="#FFE5A6"/><stop offset="3.922%" stop-color="#FFD282"/><stop offset="6.667%" stop-color="#FEC363"/><stop offset="9.412%" stop-color="#FCB74B"/><stop offset="12.157%" stop-color="#FBAF3C"/><stop offset="14.902%" stop-color="#FBAA34"/><stop offset="17.647%" stop-color="#FAA832"/><stop offset="65.098%" stop-color="#ED7C37"/><stop offset="71.765%" stop-color="#E67837"/><stop offset="78.431%" stop-color="#D66E37"/><stop offset="85.49%" stop-color="#BE6136"/><stop offset="92.941%" stop-color="#A05034"/><stop offset="92.941%" stop-color="#A05034" stop-opacity="0"/><stop offset="100%" stop-opacity="0"/></linearGradient><linearGradient id="e" gradientUnits="userSpaceOnUse" x1="1166.15" y1="2672.7" x2="1166.15" y2="2293.4" spreadMethod="pad"><stop offset="0%" stop-opacity="0"/><stop offset="92.941%" stop-color="#A05034" stop-opacity="0"/><stop offset="92.941%" stop-color="#A05034"/><stop offset="100%" stop-color="#7D3E30"/><stop offset="100%" stop-color="#7C3D30"/></linearGradient><linearGradient id="f" gradientUnits="userSpaceOnUse" x1="1090.65" y1="2672.738" x2="1090.65" y2="2293.363" spreadMethod="pad"><stop offset="0%" stop-color="#FFECB4"/><stop offset=".784%" stop-color="#FFE5A6"/><stop offset="3.922%" stop-color="#FFD282"/><stop offset="6.667%" stop-color="#FEC363"/><stop offset="9.412%" stop-color="#FCB74B"/><stop offset="12.157%" stop-color="#FBAF3C"/><stop offset="14.902%" stop-color="#FBAA34"/><stop offset="17.647%" stop-color="#FAA832"/><stop offset="65.098%" stop-color="#ED7C37"/><stop offset="71.765%" stop-color="#E67837"/><stop offset="78.431%" stop-color="#D66E37"/><stop offset="85.49%" stop-color="#BE6136"/><stop offset="92.941%" stop-color="#A05034"/><stop offset="92.941%" stop-color="#A05034" stop-opacity="0"/><stop offset="100%" stop-opacity="0"/></linearGradient><linearGradient id="g" gradientUnits="userSpaceOnUse" x1="1090.65" y1="2672.738" x2="1090.65" y2="2293.363" spreadMethod="pad"><stop offset="0%" stop-opacity="0"/><stop offset="92.941%" stop-color="#A05034" stop-opacity="0"/><stop offset="92.941%" stop-color="#A05034"/><stop offset="100%" stop-color="#7D3E30"/><stop offset="100%" stop-color="#7C3D30"/></linearGradient><linearGradient id="h" gradientUnits="userSpaceOnUse" x1="1013.4" y1="2672.8" x2="1013.4" y2="2298.8" spreadMethod="pad"><stop offset="0%" stop-color="#FFECB4"/><stop offset=".784%" stop-color="#FFE5A6"/><stop offset="3.922%" stop-color="#FFD282"/><stop offset="6.667%" stop-color="#FEC363"/><stop offset="9.412%" stop-color="#FCB74B"/><stop offset="12.157%" stop-color="#FBAF3C"/><stop offset="14.902%" stop-color="#FBAA34"/><stop offset="17.647%" stop-color="#FAA832"/><stop offset="65.098%" stop-color="#ED7C37"/><stop offset="71.765%" stop-color="#E67837"/><stop offset="78.431%" stop-color="#D66E37"/><stop offset="85.49%" stop-color="#BE6136"/><stop offset="92.941%" stop-color="#A05034"/><stop offset="92.941%" stop-color="#A05034" stop-opacity="0"/><stop offset="100%" stop-opacity="0"/></linearGradient><linearGradient id="i" gradientUnits="userSpaceOnUse" x1="1013.4" y1="2672.8" x2="1013.4" y2="2298.8" spreadMethod="pad"><stop offset="0%" stop-opacity="0"/><stop offset="92.941%" stop-color="#A05034" stop-opacity="0"/><stop offset="92.941%" stop-color="#A05034"/><stop offset="100%" stop-color="#7D3E30"/><stop offset="100%" stop-color="#7C3D30"/></linearGradient><linearGradient id="j" gradientUnits="userSpaceOnUse" x1="927.1" y1="2672.763" x2="927.1" y2="2294.037" spreadMethod="pad"><stop offset="0%" stop-color="#FFECB4"/><stop offset=".784%" stop-color="#FFE5A6"/><stop offset="3.922%" stop-color="#FFD282"/><stop offset="6.667%" stop-color="#FEC363"/><stop offset="9.412%" stop-color="#FCB74B"/><stop offset="12.157%" stop-color="#FBAF3C"/><stop offset="14.902%" stop-color="#FBAA34"/><stop offset="17.647%" stop-color="#FAA832"/><stop offset="65.098%" stop-color="#ED7C37"/><stop offset="71.765%" stop-color="#E67837"/><stop offset="78.431%" stop-color="#D66E37"/><stop offset="85.49%" stop-color="#BE6136"/><stop offset="92.941%" stop-color="#A05034"/><stop offset="92.941%" stop-color="#A05034" stop-opacity="0"/><stop offset="100%" stop-opacity="0"/></linearGradient><linearGradient id="k" gradientUnits="userSpaceOnUse" x1="927.1" y1="2672.763" x2="927.1" y2="2294.037" spreadMethod="pad"><stop offset="0%" stop-opacity="0"/><stop offset="92.941%" stop-color="#A05034" stop-opacity="0"/><stop offset="92.941%" stop-color="#A05034"/><stop offset="100%" stop-color="#7D3E30"/><stop offset="100%" stop-color="#7C3D30"/></linearGradient><linearGradient id="l" gradientUnits="userSpaceOnUse" x1="868.9" y1="2672.238" x2="868.9" y2="2296.762" spreadMethod="pad"><stop offset="0%" stop-color="#FFECB4"/><stop offset=".784%" stop-color="#FFE5A6"/><stop offset="3.922%" stop-color="#FFD282"/><stop offset="6.667%" stop-color="#FEC363"/><stop offset="9.412%" stop-color="#FCB74B"/><stop offset="12.157%" stop-color="#FBAF3C"/><stop offset="14.902%" stop-color="#FBAA34"/><stop offset="17.647%" stop-color="#FAA832"/><stop offset="65.098%" stop-color="#ED7C37"/><stop offset="71.765%" stop-color="#E67837"/><stop offset="78.431%" stop-color="#D66E37"/><stop offset="85.49%" stop-color="#BE6136"/><stop offset="92.941%" stop-color="#A05034"/><stop offset="92.941%" stop-color="#A05034" stop-opacity="0"/><stop offset="100%" stop-opacity="0"/></linearGradient><linearGradient id="m" gradientUnits="userSpaceOnUse" x1="868.9" y1="2672.238" x2="868.9" y2="2296.762" spreadMethod="pad"><stop offset="0%" stop-opacity="0"/><stop offset="92.941%" stop-color="#A05034" stop-opacity="0"/><stop offset="92.941%" stop-color="#A05034"/><stop offset="100%" stop-color="#7D3E30"/><stop offset="100%" stop-color="#7C3D30"/></linearGradient><linearGradient id="n" gradientUnits="userSpaceOnUse" x1="1050.287" y1="2264.037" x2="990.512" y2="2286.162" spreadMethod="pad"><stop offset="0%" stop-color="#AA8949"/><stop offset="19.216%" stop-color="#AC8B4C"/><stop offset="38.824%" stop-color="#B59454"/><stop offset="59.216%" stop-color="#C4A364"/><stop offset="79.216%" stop-color="#DABA7C"/><stop offset="99.608%" stop-color="#FFDEA0"/><stop offset="100%" stop-color="#FFDFA1"/></linearGradient><linearGradient id="o" gradientUnits="userSpaceOnUse" x1="1059" y1="2232.7" x2="1022.8" y2="2298.1" spreadMethod="pad"><stop offset="0%" stop-color="#554434"/><stop offset="9.02%" stop-color="#6E573C"/><stop offset="19.216%" stop-color="#8B6D44"/><stop offset="29.412%" stop-color="#A4814B"/><stop offset="39.216%" stop-color="#B7914F"/><stop offset="49.412%" stop-color="#C39B52"/><stop offset="58.824%" stop-color="#C79F53"/><stop offset="65.49%" stop-color="#CBA359"/><stop offset="76.471%" stop-color="#D7B16A"/><stop offset="90.588%" stop-color="#ECC987"/><stop offset="100%" stop-color="#FFDFA1"/></linearGradient><linearGradient id="p" gradientUnits="userSpaceOnUse" x1="1074.05" y1="2216.1" x2="1074.05" y2="2329.9" spreadMethod="pad"><stop offset="0%" stop-color="#AA8949"/><stop offset="19.216%" stop-color="#AC8B4C"/><stop offset="38.824%" stop-color="#B59454"/><stop offset="59.216%" stop-color="#C4A364"/><stop offset="79.216%" stop-color="#DABA7C"/><stop offset="99.608%" stop-color="#FFDEA0"/><stop offset="100%" stop-color="#FFDFA1"/></linearGradient><linearGradient id="q" gradientUnits="userSpaceOnUse" x1="1062.9" y1="2212.537" x2="1062.9" y2="2236.963" spreadMethod="pad"><stop offset="0%" stop-color="#E8C482"/><stop offset="39.216%" stop-color="#D2B378"/><stop offset="73.725%" stop-color="#C6AA72"/><stop offset="100%" stop-color="#C2A670"/></linearGradient><linearGradient id="r" gradientUnits="userSpaceOnUse" x1="1051" y1="2652.125" x2="1051" y2="2685.075" spreadMethod="pad"><stop offset="0%" stop-color="#7C3D30"/><stop offset="100%" stop-color="#7C3D30"/></linearGradient><linearGradient id="s" gradientUnits="userSpaceOnUse" x1="1055.95" y1="2485.5" x2="1055.95" y2="2612.4" spreadMethod="pad"><stop offset="0%" stop-color="#492A24"/><stop offset="19.608%" stop-color="#4B2B24"/><stop offset="39.608%" stop-color="#522D26"/><stop offset="60.392%" stop-color="#5C3128"/><stop offset="80.784%" stop-color="#6A372C"/><stop offset="100%" stop-color="#7C3D30"/></linearGradient><linearGradient id="t" gradientUnits="userSpaceOnUse" x1="1062.25" y1="2523.263" x2="1062.25" y2="2650.338" spreadMethod="pad"><stop offset="0%" stop-color="#492A24"/><stop offset="19.608%" stop-color="#4B2B24"/><stop offset="39.608%" stop-color="#522D26"/><stop offset="60.392%" stop-color="#5C3128"/><stop offset="80.784%" stop-color="#6A372C"/><stop offset="100%" stop-color="#7C3D30"/></linearGradient><linearGradient id="u" gradientUnits="userSpaceOnUse" x1="1048.4" y1="2454.963" x2="1048.4" y2="2493.638" spreadMethod="pad"><stop offset="0%" stop-color="#B8682F"/><stop offset="11.765%" stop-color="#C17131"/><stop offset="70.588%" stop-color="#E9A348"/><stop offset="100%" stop-color="#FDBC56"/></linearGradient><linearGradient id="v" gradientUnits="userSpaceOnUse" x1="983.862" y1="2553.25" x2="1000.737" y2="2699.85" spreadMethod="pad"><stop offset="0%" stop-color="#492A24"/><stop offset="19.608%" stop-color="#4B2B24"/><stop offset="39.608%" stop-color="#522D26"/><stop offset="60.392%" stop-color="#5C3128"/><stop offset="80.784%" stop-color="#6A372C"/><stop offset="100%" stop-color="#7C3D30"/></linearGradient><linearGradient id="w" gradientUnits="userSpaceOnUse" x1="1129.575" y1="2562.2" x2="1110.525" y2="2722.6" spreadMethod="pad"><stop offset="0%" stop-color="#492A24"/><stop offset="19.608%" stop-color="#4B2B24"/><stop offset="39.608%" stop-color="#522D26"/><stop offset="60.392%" stop-color="#5C3128"/><stop offset="80.784%" stop-color="#6A372C"/><stop offset="100%" stop-color="#7C3D30"/></linearGradient><linearGradient id="x" gradientUnits="userSpaceOnUse" x1="1164.95" y1="2362.175" x2="1142.15" y2="2439.925" spreadMethod="pad"><stop offset="0%" stop-color="#B8682F"/><stop offset="11.765%" stop-color="#C17131"/><stop offset="70.588%" stop-color="#E9A348"/><stop offset="100%" stop-color="#FDBC56"/></linearGradient><linearGradient id="y" gradientUnits="userSpaceOnUse" x1="961.625" y1="2359.575" x2="970.575" y2="2437.425" spreadMethod="pad"><stop offset="0%" stop-color="#B8682F"/><stop offset="11.765%" stop-color="#C17131"/><stop offset="70.588%" stop-color="#E9A348"/><stop offset="100%" stop-color="#FDBC56"/></linearGradient><linearGradient id="z" gradientUnits="userSpaceOnUse" x1="1067.9" y1="2470.113" x2="1067.9" y2="2604.988" spreadMethod="pad"><stop offset="0%" stop-color="#B8682F"/><stop offset="11.765%" stop-color="#C17131"/><stop offset="70.588%" stop-color="#E9A348"/><stop offset="100%" stop-color="#FDBC56"/></linearGradient><linearGradient id="A" gradientUnits="userSpaceOnUse" x1="1114.1" y1="2539.85" x2="1114.1" y2="2607.45" spreadMethod="pad"><stop offset="0%" stop-color="#B8682F"/><stop offset="11.765%" stop-color="#C17131"/><stop offset="70.588%" stop-color="#E9A348"/><stop offset="100%" stop-color="#FDBC56"/></linearGradient><linearGradient id="B" gradientUnits="userSpaceOnUse" x1="1194.8" y1="2478.725" x2="1194.8" y2="2602.075" spreadMethod="pad"><stop offset="0%" stop-color="#B8682F"/><stop offset="11.765%" stop-color="#C17131"/><stop offset="70.588%" stop-color="#E9A348"/><stop offset="100%" stop-color="#FDBC56"/></linearGradient><linearGradient id="C" gradientUnits="userSpaceOnUse" x1="929" y1="2482.638" x2="929" y2="2602.963" spreadMethod="pad"><stop offset="0%" stop-color="#B8682F"/><stop offset="11.765%" stop-color="#C17131"/><stop offset="70.588%" stop-color="#E9A348"/><stop offset="100%" stop-color="#FDBC56"/></linearGradient><linearGradient id="D" gradientUnits="userSpaceOnUse" x1="1093.45" y1="2611.575" x2="1093.45" y2="2719.425" spreadMethod="pad"><stop offset="0%" stop-color="#B8682F"/><stop offset="11.765%" stop-color="#C17131"/><stop offset="70.588%" stop-color="#E9A348"/><stop offset="100%" stop-color="#FDBC56"/></linearGradient><linearGradient id="E" gradientUnits="userSpaceOnUse" x1="1028.4" y1="2613.862" x2="1028.4" y2="2734.838" spreadMethod="pad"><stop offset="0%" stop-color="#B8682F"/><stop offset="11.765%" stop-color="#C17131"/><stop offset="70.588%" stop-color="#E9A348"/><stop offset="100%" stop-color="#FDBC56"/></linearGradient><path fill="#FFF" fill-opacity="0" d="M284 320V0H0v320h284z" id="F"/><path fill="url(#a)" d="M843.3 2337.45q-10.15 13.95-16.5 30.15-3.2 8.3-4.65 14.8-21.25 98.5 24.2 194.15 15.3 32.1 36.8 60.8 13.45 18.05 25.5 30 11.3 11.25 38.3 11.35 13.5.05 24.75-2.15l28.4 6.9q17.75 4.3 36.3-2.25 9.3-3.25 15-7.4 18.25 8.85 44.5 7.2 13.1-.8 22.55-3.4 35.5 12.55 60.8 2.4 12.65-5.05 18.2-12.65 8.05-10.95 19.15-29.05 22.2-36.25 37.5-72.15 21.45-50.25 26.15-92.7 5.85-53.05-15.05-90.8-25.85-46.75-62.95-70.05-27.5-17.25-61.05-21.4-13-7.45-29.3-5.3-5.1.7-9.9 2.25l-3.8 1.45q-10.2-1.75-44.6.2l-32 2.2q-.244-.15-2.6-.85-7.35-2.3-32.9-9.05-18.55-4.9-33.55-2.35-10.6 1.8-18.4 7.05-58.85 6.85-90.85 50.65z" id="G"/><path fill="url(#b)" d="M1147.25 2292.05q20.4 13.4 36.85 33.85 23.35 29 35.2 68.2 16.4 54.25-15.25 161.25-15.85 53.45-34.95 96.1l-18.2 32.9q20.65.95 35.65-7.95 4.7-2.75 8.25-6.2l2.65-2.85q8.05-10.95 19.15-29.05 22.2-36.25 37.5-72.15 21.45-50.25 26.15-92.7 5.85-53.05-15.05-90.8-43.45-78.5-117.95-90.6z" id="H"/><path fill="url(#c)" d="M1147.25 2292.05q20.4 13.4 36.85 33.85 23.35 29 35.2 68.2 16.4 54.25-15.25 161.25-15.85 53.45-34.95 96.1l-18.2 32.9q20.65.95 35.65-7.95 4.7-2.75 8.25-6.2l2.65-2.85q8.05-10.95 19.15-29.05 22.2-36.25 37.5-72.15 21.45-50.25 26.15-92.7 5.85-53.05-15.05-90.8-43.45-78.5-117.95-90.6z" id="I"/><path fill="url(#d)" d="M1120.2 2287.1q-6.75-.45-4.2 15.25 1.3 8.15 10.05 41.2 9.15 34.5 13.2 57.5 6.35 35.6 5.3 64-2.05 53.35-8.2 118.9-3.1 32.75-5.8 54.85l-12.1 23.65 13.9 14.35 14.9 1.2 15.6-5.75 6.25-20.8q17.35-46.45 31.15-101.95 27.65-111 10.1-156.4-19.15-49.55-48.1-79.75-11.85-12.35-23.45-19.35-10.6-6.4-18.6-6.9z" id="J"/><path fill="url(#e)" d="M1120.2 2287.1q-6.75-.45-4.2 15.25 1.3 8.15 10.05 41.2 9.15 34.5 13.2 57.5 6.35 35.6 5.3 64-2.05 53.35-8.2 118.9-3.1 32.75-5.8 54.85l-12.1 23.65 13.9 14.35 14.9 1.2 15.6-5.75 6.25-20.8q17.35-46.45 31.15-101.95 27.65-111 10.1-156.4-19.15-49.55-48.1-79.75-11.85-12.35-23.45-19.35-10.6-6.4-18.6-6.9z" id="K"/><path fill="url(#f)" d="M1044 2314.95q-.55 2.85 5.05 35.6 7.75 45.2 11.75 76.45 15.65 120.95 2.5 200.2l-6.3 29.4 15.25 19.25h20.65l16.15-8.25 13.85-11 7.65-17.8q2.9-42.8 4.95-91.75 4-97.85-.45-128.55-7.3-49.75-14.5-81.95-10.05-45.15-17.8-45.2-11-.05-32.9 7.55-24.35 8.45-25.85 16.05z" id="L"/><path fill="url(#g)" d="M1044 2314.95q-.55 2.85 5.05 35.6 7.75 45.2 11.75 76.45 15.65 120.95 2.5 200.2l-6.3 29.4 15.25 19.25h20.65l16.15-8.25 13.85-11 7.65-17.8q2.9-42.8 4.95-91.75 4-97.85-.45-128.55-7.3-49.75-14.5-81.95-10.05-45.15-17.8-45.2-11-.05-32.9 7.55-24.35 8.45-25.85 16.05z" id="M"/><path fill="url(#h)" d="M1040 2325.55q-6.85-19.3-27-25.3-7.05-2.1-14.25-2.1-6 0-8.1 1.1-3.3 1.75-8.15 13.35-7.2 17.45-11.9 47.3-14.15 90.35-.55 260.7l8.05 44.9 35.6 12.5 34.8-12.5 9.65-14.05 5.15-24.25q-9.5-204.25-12.35-241.2-2-25.95-4.55-38.65-1.7-8.5-6.4-21.8z" id="N"/><path fill="url(#i)" d="M1040 2325.55q-6.85-19.3-27-25.3-7.05-2.1-14.25-2.1-6 0-8.1 1.1-3.3 1.75-8.15 13.35-7.2 17.45-11.9 47.3-14.15 90.35-.55 260.7l8.05 44.9 35.6 12.5 34.8-12.5 9.65-14.05 5.15-24.25q-9.5-204.25-12.35-241.2-2-25.95-4.55-38.65-1.7-8.5-6.4-21.8z" id="O"/><path fill="url(#j)" d="M953.55 2282.2q-27.75 1.55-45.35 38.9-8.9 18.85-17.3 56-8.05 35.65-13.3 77.4-5.45 42.95-6.1 78.55-.75 38.8 4.4 59.5 8.95 35.95 26.45 58.6 8.75 11.3 15.7 15.4l45.8 5.7 11.75-20.8-5.55-30.85q-4.9-32.85-8.7-76.7-7.6-87.7-2.05-142.6 4.85-47.9 16.7-83.85 4.8-13.7 5.95-17.8 1.7-6.05-.25-8.4-2.55-3-9.55-5.85-9.15-3.75-18.6-3.2z" id="P"/><path fill="url(#k)" d="M953.55 2282.2q-27.75 1.55-45.35 38.9-8.9 18.85-17.3 56-8.05 35.65-13.3 77.4-5.45 42.95-6.1 78.55-.75 38.8 4.4 59.5 8.95 35.95 26.45 58.6 8.75 11.3 15.7 15.4l45.8 5.7 11.75-20.8-5.55-30.85q-4.9-32.85-8.7-76.7-7.6-87.7-2.05-142.6 4.85-47.9 16.7-83.85 4.8-13.7 5.95-17.8 1.7-6.05-.25-8.4-2.55-3-9.55-5.85-9.15-3.75-18.6-3.2z" id="Q"/><path fill="url(#l)" d="M832.35 2355.35q-4.7 9.15-7.8 18.5-1.15 3.6-2.4 8.55-16.05 74.4 6.4 148.3 16.15 53.1 50.2 100.7l1.9-4.25-5.5-35.2q.95 3.7.85-3.05-.05-.6-.9-22.75-1.85-47.1-.6-85.15 4.6-139.6 47.8-192.4-25.95 5-46.4 18.1-14.15 10.45-26.25 24.55-9.6 11.25-17.3 24.1z" id="R"/><path fill="url(#m)" d="M849.65 2331.25q-9.6 11.25-17.3 24.1-4.7 9.15-7.8 18.5-1.15 3.6-2.4 8.55-16.05 74.4 6.4 148.3 16.15 53.1 50.2 100.7l1.9-4.25-5.5-35.2q.95 3.7.85-3.05-.05-.6-.9-22.75-1.85-47.1-.6-85.15 4.6-139.6 47.8-192.4-25.95 5-46.4 18.1-14.15 10.45-26.25 24.55z" id="S"/><path fill="url(#n)" d="M1052.4 2251.4q-9.6 9.35-40.05 20.65-9.5 3.55-20 6.85l-8.55 2.6q3.3 2.3 4.7 6.65.7 2.2.7 3.9l20.75-5 19.15-1.8q9.7-12.2 17.45-22.5 15.5-20.65 5.85-11.35z" id="T"/><path fill="url(#o)" d="M1078.7 2238.9l-15.4-10.9-11.55 3.35q5.3 21.15-28.1 43.05-16.7 10.95-34.45 17.65 19.45-4.8 37.2 4.7 8.85 4.75 13.85 10.45l27.4-23.45 11.05-44.85z" id="U"/><path fill="url(#p)" d="M1078.25 2217.85l-4.2-6.2q.15 4.9-5.3 11.1-2.7 3.1-5.45 5.25 13.9 18.15-3.2 50.5-8.5 16.15-19.85 28.7 18.45-10.95 44.85-15.85 13.25-2.45 22.75-2.75-4.85-25.8-19.8-53.95-4.7-8.8-9.8-16.8z" id="V"/><path fill="url(#q)" d="M1056.05 2216.45q-1.45 2.8-3.05 9.15-.75 3.15-1.25 5.75l16.25 5.7 6.05-25.4q-3.9.1-8.15.75-8.4 1.25-9.85 4.05z" id="W"/><path fill="url(#r)" d="M1063.3 2627.2l-3.3 7.55q-4.45 9-9.8 16.2-17.3 23.05-38 19.4-20.75-3.65-33.5-27.05-4-7.3-6.75-15.75l-1.9-6.95.5 8.35q.05 9.75-2.4 16.9-7.85 22.85-37.55 10.75-11.9-4.8-21.6-12.2-1.05 10.45-9.25 13.45 4.6 5.2 8.9 9.5 11.3 11.25 38.3 11.35 13.5.05 24.75-2.15l28.4 6.9q17.75 4.3 36.3-2.25 9.3-3.25 15-7.4 18.25 8.85 44.5 7.2 13.1-.8 22.55-3.4 35.5 12.55 60.8 2.4 12.65-5.05 18.2-12.65 1.8-2.4 4.8-6.8-11.85 6.8-21.95 9.05-20.15 4.55-11.2-18.15-12.1 12.25-22.95 16.8-21.75 9.1-15.6-29.45l-10.25 10.75q-12.35 11.75-22.7 16.9-14.5 7.2-23.05.2-10.65-8.8-11.25-39.45z" id="X"/><path fill="url(#s)" d="M1163.55 2545l12.7 25.65q36.65-32.5 46.65-68.45 3.1-11.25 3.2-21.5l-.55-8q-18.3 11.55-41.4 20.5-32.65 12.65-70.35 18.15l-5.15 26.1h-77.9l-1.05-22.95q-45.45-2.9-87.4-15.4-30.45-9.05-56.5-22.35l.1 6.65q.4 8.25 1.95 16.7 4.95 26.85 19.5 44.9 2.2 2.6 5.1 5.75l1.3 1.4q19.05 20.25 42.45 33.85l16.05-25.8 47.75 13.55 7.55 35.85q14.4 1.8 29.1 1.8 21.15 0 40.5-3.65l2.8-32.65 63.6-30.1z" id="Y"/><path fill="url(#t)" d="M1027.7 2453.4l33.95 44.6 35.2-38.75-69.15-5.85z" id="Z"/><path fill="url(#u)" d="M1042.25 2454.65l-14.55-1.25 33.95 44.6 7.45-8.15-26.85-35.2z" id="aa"/><path fill="url(#v)" d="M915 2425.3l108.4.2-48.3-78.7-60.1 78.5z" id="ab"/><path fill="url(#w)" d="M1095.65 2422.2l99.6 12.95-36.45-79.3-63.15 66.35z" id="ac"/><path fill="url(#x)" d="M1158.8 2355.85l-6.15 6.45 28.2 60.55-76.7-9.55-8.5 8.9 99.6 12.95-36.45-79.3z" id="ad"/><path fill="url(#y)" d="M979.6 2353.35l-4.5-6.55-60.1 78.5 108.4.2-5.75-9.35-86.2.4 48.15-63.2z" id="ae"/><path fill="url(#z)" d="M1163.55 2545l-20.6-6.4-52.55 26.05-3.4 27.45-50.15 1.15-6.9-32.05-40.35-12.6-17.35 11.6 47.75 13.55 7.55 35.85q14.4 1.8 29.1 1.8 21.15 0 40.5-3.65l2.8-32.65 63.6-30.1z" id="af"/><path fill="url(#A)" d="M1119.55 2510.45l-5.75.9-5.15 26.1 6.35-12.7 4.55-14.3z" id="ag"/><path fill="url(#B)" d="M1225.55 2472.8v-.1q-6.65 4.15-11.65 6.8l.15 10.15q-.8 12.35-5.55 23.25-3 5.6-5.55 10.1-5.55 8-.6.95l.1-.15q-15 25.25-31.25 36.65l5.05 10.2q34.55-30.6 45.45-64.5 6-18.6 3.95-32.75l-.1-.6z" id="ah"/><path fill="url(#C)" d="M885.8 2476.75l.4 11.15 2.1 14.45 3.1 12.05 4.2 11.15 2.75 5.6q.15.4.6 1.15l4.15 6.95.1.1q2.35 3.4 4.15 5.65 2.2 2.6 5.1 5.75l1.3 1.4q19.05 20.25 42.45 33.85l7.9-12.7q-5.35-4.25-13.35-11.5-15.95-14.45-29.1-29.25l-1-1.2h-.05l-4.4-5.15q-9.6-12.3-13.8-28.7-1.35-5.1-1.95-10l-.35-3.9q-7.95-3.6-14.3-6.85z" id="ai"/><path fill="url(#D)" d="M1097.15 2607.75l2.8-32.65-9.55-10.45-3.4 27.45 10.15 15.65z" id="aj"/><path fill="url(#E)" d="M1029.95 2561.2l-9.95 12.55 7.55 35.85 9.3-16.35-6.9-32.05z" id="ak"/></defs><use xlink:href="#F"/><use xlink:href="#G" transform="translate(-452.508 -1207.326) scale(.56703)"/><use xlink:href="#H" transform="translate(-452.508 -1207.326) scale(.56703)"/><use xlink:href="#I" transform="translate(-452.508 -1207.326) scale(.56703)"/><use xlink:href="#J" transform="translate(-452.508 -1207.326) scale(.56703)"/><use xlink:href="#K" transform="translate(-452.508 -1207.326) scale(.56703)"/><use xlink:href="#L" transform="translate(-452.508 -1207.326) scale(.56703)"/><use xlink:href="#M" transform="translate(-452.508 -1207.326) scale(.56703)"/><use xlink:href="#N" transform="translate(-452.508 -1207.326) scale(.56703)"/><use xlink:href="#O" transform="translate(-452.508 -1207.326) scale(.56703)"/><use xlink:href="#P" transform="translate(-452.508 -1207.326) scale(.56703)"/><use xlink:href="#Q" transform="translate(-452.508 -1207.326) scale(.56703)"/><use xlink:href="#R" transform="translate(-452.508 -1207.326) scale(.56703)"/><use xlink:href="#S" transform="translate(-452.508 -1207.326) scale(.56703)"/><use xlink:href="#T" transform="translate(-452.508 -1207.326) scale(.56703)"/><use xlink:href="#U" transform="translate(-452.508 -1207.326) scale(.56703)"/><use xlink:href="#V" transform="translate(-452.508 -1207.326) scale(.56703)"/><use xlink:href="#W" transform="translate(-452.508 -1207.326) scale(.56703)"/><use xlink:href="#X" transform="translate(-452.508 -1207.326) scale(.56703)"/><use xlink:href="#Y" transform="translate(-452.508 -1207.326) scale(.56703)"/><use xlink:href="#Z" transform="translate(-452.508 -1207.326) scale(.56703)"/><use xlink:href="#aa" transform="translate(-452.508 -1207.326) scale(.56703)"/><use xlink:href="#ab" transform="translate(-452.508 -1207.326) scale(.56703)"/><use xlink:href="#ac" transform="translate(-452.508 -1207.326) scale(.56703)"/><use xlink:href="#ad" transform="translate(-452.508 -1207.326) scale(.56703)"/><use xlink:href="#ae" transform="translate(-452.508 -1207.326) scale(.56703)"/><use xlink:href="#af" transform="translate(-452.508 -1207.326) scale(.56703)"/><use xlink:href="#ag" transform="translate(-452.508 -1207.326) scale(.56703)"/><use xlink:href="#ah" transform="translate(-452.508 -1207.326) scale(.56703)"/><use xlink:href="#ai" transform="translate(-452.508 -1207.326) scale(.56703)"/><use xlink:href="#aj" transform="translate(-452.508 -1207.326) scale(.56703)"/><use xlink:href="#ak" transform="translate(-452.508 -1207.326) scale(.56703)"/></svg>