<svg xmlns="http://www.w3.org/2000/svg" xmlns:xlink="http://www.w3.org/1999/xlink" preserveAspectRatio="none" width="284" height="320"><defs><linearGradient id="a" gradientUnits="userSpaceOnUse" x1="1742.95" y1="1986.65" x2="1742.95" y2="1605.95" spreadMethod="pad"><stop offset="0%" stop-color="#FED090"/><stop offset="1.961%" stop-color="#FEC77E"/><stop offset="5.098%" stop-color="#FCB862"/><stop offset="8.235%" stop-color="#FBAD4B"/><stop offset="11.373%" stop-color="#FAA63C"/><stop offset="14.51%" stop-color="#F9A135"/><stop offset="17.647%" stop-color="#F9A033"/><stop offset="65.098%" stop-color="#E77035"/><stop offset="72.157%" stop-color="#E06D35"/><stop offset="79.608%" stop-color="#CF6536"/><stop offset="87.059%" stop-color="#B55835"/><stop offset="94.51%" stop-color="#954933"/><stop offset="100%" stop-color="#7C3D30"/></linearGradient><linearGradient id="b" gradientUnits="userSpaceOnUse" x1="1763.7" y1="1978.925" x2="1763.7" y2="1615.575" spreadMethod="pad"><stop offset="0%" stop-color="#FFECB4"/><stop offset=".784%" stop-color="#FFE5A6"/><stop offset="3.922%" stop-color="#FFD282"/><stop offset="6.667%" stop-color="#FEC363"/><stop offset="9.412%" stop-color="#FCB74B"/><stop offset="12.157%" stop-color="#FBAF3C"/><stop offset="14.902%" stop-color="#FBAA34"/><stop offset="17.647%" stop-color="#FAA832"/><stop offset="65.098%" stop-color="#ED7C37"/><stop offset="71.765%" stop-color="#E67837"/><stop offset="78.431%" stop-color="#D66E37"/><stop offset="85.49%" stop-color="#BE6136"/><stop offset="92.941%" stop-color="#A05034"/><stop offset="92.941%" stop-color="#A05034" stop-opacity="0"/><stop offset="100%" stop-opacity="0"/></linearGradient><linearGradient id="c" gradientUnits="userSpaceOnUse" x1="1763.7" y1="1978.925" x2="1763.7" y2="1615.575" spreadMethod="pad"><stop offset="0%" stop-opacity="0"/><stop offset="92.941%" stop-color="#A05034" stop-opacity="0"/><stop offset="92.941%" stop-color="#A05034"/><stop offset="100%" stop-color="#7D3E30"/><stop offset="100%" stop-color="#7C3D30"/></linearGradient><linearGradient id="d" gradientUnits="userSpaceOnUse" x1="1853.35" y1="1976.713" x2="1853.35" y2="1609.188" spreadMethod="pad"><stop offset="0%" stop-color="#FFECB4"/><stop offset=".784%" stop-color="#FFE5A6"/><stop offset="3.922%" stop-color="#FFD282"/><stop offset="6.667%" stop-color="#FEC363"/><stop offset="9.412%" stop-color="#FCB74B"/><stop offset="12.157%" stop-color="#FBAF3C"/><stop offset="14.902%" stop-color="#FBAA34"/><stop offset="17.647%" stop-color="#FAA832"/><stop offset="65.098%" stop-color="#ED7C37"/><stop offset="71.765%" stop-color="#E67837"/><stop offset="78.431%" stop-color="#D66E37"/><stop offset="85.49%" stop-color="#BE6136"/><stop offset="92.941%" stop-color="#A05034"/><stop offset="92.941%" stop-color="#A05034" stop-opacity="0"/><stop offset="100%" stop-opacity="0"/></linearGradient><linearGradient id="e" gradientUnits="userSpaceOnUse" x1="1853.35" y1="1976.713" x2="1853.35" y2="1609.188" spreadMethod="pad"><stop offset="0%" stop-opacity="0"/><stop offset="92.941%" stop-color="#A05034" stop-opacity="0"/><stop offset="92.941%" stop-color="#A05034"/><stop offset="100%" stop-color="#7D3E30"/><stop offset="100%" stop-color="#7C3D30"/></linearGradient><linearGradient id="f" gradientUnits="userSpaceOnUse" x1="1903.35" y1="1970.975" x2="1903.35" y2="1601.325" spreadMethod="pad"><stop offset="0%" stop-color="#FFECB4"/><stop offset=".784%" stop-color="#FFE5A6"/><stop offset="3.922%" stop-color="#FFD282"/><stop offset="6.667%" stop-color="#FEC363"/><stop offset="9.412%" stop-color="#FCB74B"/><stop offset="12.157%" stop-color="#FBAF3C"/><stop offset="14.902%" stop-color="#FBAA34"/><stop offset="17.647%" stop-color="#FAA832"/><stop offset="65.098%" stop-color="#ED7C37"/><stop offset="71.765%" stop-color="#E67837"/><stop offset="78.431%" stop-color="#D66E37"/><stop offset="85.49%" stop-color="#BE6136"/><stop offset="92.941%" stop-color="#A05034"/><stop offset="92.941%" stop-color="#A05034" stop-opacity="0"/><stop offset="100%" stop-opacity="0"/></linearGradient><linearGradient id="g" gradientUnits="userSpaceOnUse" x1="1903.35" y1="1970.975" x2="1903.35" y2="1601.325" spreadMethod="pad"><stop offset="0%" stop-opacity="0"/><stop offset="92.941%" stop-color="#A05034" stop-opacity="0"/><stop offset="92.941%" stop-color="#A05034"/><stop offset="100%" stop-color="#7D3E30"/><stop offset="100%" stop-color="#7C3D30"/></linearGradient><linearGradient id="h" gradientUnits="userSpaceOnUse" x1="1964.5" y1="1978.925" x2="1964.5" y2="1615.575" spreadMethod="pad"><stop offset="0%" stop-color="#FFECB4"/><stop offset=".784%" stop-color="#FFE5A6"/><stop offset="3.922%" stop-color="#FFD282"/><stop offset="6.667%" stop-color="#FEC363"/><stop offset="9.412%" stop-color="#FCB74B"/><stop offset="12.157%" stop-color="#FBAF3C"/><stop offset="14.902%" stop-color="#FBAA34"/><stop offset="17.647%" stop-color="#FAA832"/><stop offset="65.098%" stop-color="#ED7C37"/><stop offset="71.765%" stop-color="#E67837"/><stop offset="78.431%" stop-color="#D66E37"/><stop offset="85.49%" stop-color="#BE6136"/><stop offset="92.941%" stop-color="#A05034"/><stop offset="92.941%" stop-color="#A05034" stop-opacity="0"/><stop offset="100%" stop-opacity="0"/></linearGradient><linearGradient id="i" gradientUnits="userSpaceOnUse" x1="1964.5" y1="1978.925" x2="1964.5" y2="1615.575" spreadMethod="pad"><stop offset="0%" stop-opacity="0"/><stop offset="92.941%" stop-color="#A05034" stop-opacity="0"/><stop offset="92.941%" stop-color="#A05034"/><stop offset="100%" stop-color="#7D3E30"/><stop offset="100%" stop-color="#7C3D30"/></linearGradient><linearGradient id="j" gradientUnits="userSpaceOnUse" x1="1668.95" y1="1975.813" x2="1668.95" y2="1612.588" spreadMethod="pad"><stop offset="0%" stop-color="#FFECB4"/><stop offset=".784%" stop-color="#FFE5A6"/><stop offset="3.922%" stop-color="#FFD282"/><stop offset="6.667%" stop-color="#FEC363"/><stop offset="9.412%" stop-color="#FCB74B"/><stop offset="12.157%" stop-color="#FBAF3C"/><stop offset="14.902%" stop-color="#FBAA34"/><stop offset="17.647%" stop-color="#FAA832"/><stop offset="65.098%" stop-color="#ED7C37"/><stop offset="71.765%" stop-color="#E67837"/><stop offset="78.431%" stop-color="#D66E37"/><stop offset="85.49%" stop-color="#BE6136"/><stop offset="92.941%" stop-color="#A05034"/><stop offset="92.941%" stop-color="#A05034" stop-opacity="0"/><stop offset="100%" stop-opacity="0"/></linearGradient><linearGradient id="k" gradientUnits="userSpaceOnUse" x1="1668.95" y1="1975.813" x2="1668.95" y2="1612.588" spreadMethod="pad"><stop offset="0%" stop-opacity="0"/><stop offset="92.941%" stop-color="#A05034" stop-opacity="0"/><stop offset="92.941%" stop-color="#A05034"/><stop offset="100%" stop-color="#7D3E30"/><stop offset="100%" stop-color="#7C3D30"/></linearGradient><linearGradient id="l" gradientUnits="userSpaceOnUse" x1="1604.8" y1="1981.125" x2="1604.8" y2="1602.375" spreadMethod="pad"><stop offset="0%" stop-color="#FFECB4"/><stop offset=".784%" stop-color="#FFE5A6"/><stop offset="3.922%" stop-color="#FFD282"/><stop offset="6.667%" stop-color="#FEC363"/><stop offset="9.412%" stop-color="#FCB74B"/><stop offset="12.157%" stop-color="#FBAF3C"/><stop offset="14.902%" stop-color="#FBAA34"/><stop offset="17.647%" stop-color="#FAA832"/><stop offset="65.098%" stop-color="#ED7C37"/><stop offset="71.765%" stop-color="#E67837"/><stop offset="78.431%" stop-color="#D66E37"/><stop offset="85.49%" stop-color="#BE6136"/><stop offset="92.941%" stop-color="#A05034"/><stop offset="92.941%" stop-color="#A05034" stop-opacity="0"/><stop offset="100%" stop-opacity="0"/></linearGradient><linearGradient id="m" gradientUnits="userSpaceOnUse" x1="1604.8" y1="1981.125" x2="1604.8" y2="1602.375" spreadMethod="pad"><stop offset="0%" stop-opacity="0"/><stop offset="92.941%" stop-color="#A05034" stop-opacity="0"/><stop offset="92.941%" stop-color="#A05034"/><stop offset="100%" stop-color="#7D3E30"/><stop offset="100%" stop-color="#7C3D30"/></linearGradient><linearGradient id="n" gradientUnits="userSpaceOnUse" x1="1561.15" y1="1981.125" x2="1561.15" y2="1602.375" spreadMethod="pad"><stop offset="0%" stop-color="#FFECB4"/><stop offset=".784%" stop-color="#FFE5A6"/><stop offset="3.922%" stop-color="#FFD282"/><stop offset="6.667%" stop-color="#FEC363"/><stop offset="9.412%" stop-color="#FCB74B"/><stop offset="12.157%" stop-color="#FBAF3C"/><stop offset="14.902%" stop-color="#FBAA34"/><stop offset="17.647%" stop-color="#FAA832"/><stop offset="65.098%" stop-color="#ED7C37"/><stop offset="71.765%" stop-color="#E67837"/><stop offset="78.431%" stop-color="#D66E37"/><stop offset="85.49%" stop-color="#BE6136"/><stop offset="92.941%" stop-color="#A05034"/><stop offset="92.941%" stop-color="#A05034" stop-opacity="0"/><stop offset="100%" stop-opacity="0"/></linearGradient><linearGradient id="o" gradientUnits="userSpaceOnUse" x1="1561.15" y1="1981.125" x2="1561.15" y2="1602.375" spreadMethod="pad"><stop offset="0%" stop-opacity="0"/><stop offset="92.941%" stop-color="#A05034" stop-opacity="0"/><stop offset="92.941%" stop-color="#A05034"/><stop offset="100%" stop-color="#7D3E30"/><stop offset="100%" stop-color="#7C3D30"/></linearGradient><linearGradient id="p" gradientUnits="userSpaceOnUse" x1="1744.05" y1="1634.975" x2="1744.05" y2="1503.025" spreadMethod="pad"><stop offset="54.118%" stop-color="#C79F53"/><stop offset="62.745%" stop-color="#C9A156"/><stop offset="71.765%" stop-color="#CFA75E"/><stop offset="81.176%" stop-color="#D9B36D"/><stop offset="90.588%" stop-color="#E8C582"/><stop offset="100%" stop-color="#FFDEA0"/><stop offset="100%" stop-color="#FFDFA1"/></linearGradient><linearGradient id="q" gradientUnits="userSpaceOnUse" x1="1712.15" y1="1610.475" x2="1712.15" y2="1503.025" spreadMethod="pad"><stop offset="0%" stop-color="#C79F53"/><stop offset="19.216%" stop-color="#C9A156"/><stop offset="38.824%" stop-color="#CFA75E"/><stop offset="59.216%" stop-color="#D9B36D"/><stop offset="79.216%" stop-color="#E8C582"/><stop offset="99.608%" stop-color="#FFDEA0"/><stop offset="100%" stop-color="#FFDFA1"/></linearGradient><linearGradient id="r" gradientUnits="userSpaceOnUse" x1="1787.55" y1="1469.563" x2="1787.55" y2="1604.738" spreadMethod="pad"><stop offset="0%" stop-color="#554434"/><stop offset="10.98%" stop-color="#594735"/><stop offset="27.843%" stop-color="#655039"/><stop offset="48.235%" stop-color="#7A6140"/><stop offset="61.961%" stop-color="#8B7045"/><stop offset="100%" stop-color="#C79F53"/></linearGradient><linearGradient id="s" gradientUnits="userSpaceOnUse" x1="1733.05" y1="1953.362" x2="1733.05" y2="1986.538" spreadMethod="pad"><stop offset="0%" stop-color="#7C3D30"/><stop offset="100%" stop-color="#7C3D30"/></linearGradient><linearGradient id="t" gradientUnits="userSpaceOnUse" x1="1761.95" y1="1748.987" x2="1761.95" y2="1938.612" spreadMethod="pad"><stop offset="0%" stop-color="#B8682F"/><stop offset="11.765%" stop-color="#C17131"/><stop offset="70.588%" stop-color="#E9A348"/><stop offset="100%" stop-color="#FDBC56"/></linearGradient><linearGradient id="u" gradientUnits="userSpaceOnUse" x1="1762.05" y1="1752.625" x2="1762.05" y2="1924.275" spreadMethod="pad"><stop offset="0%" stop-color="#492A24"/><stop offset="19.608%" stop-color="#4B2B24"/><stop offset="39.608%" stop-color="#522D26"/><stop offset="60.392%" stop-color="#5C3128"/><stop offset="80.784%" stop-color="#6A372C"/><stop offset="100%" stop-color="#7C3D30"/></linearGradient><linearGradient id="v" gradientUnits="userSpaceOnUse" x1="1766.3" y1="1848.3" x2="1766.3" y2="1913.7" spreadMethod="pad"><stop offset="0%" stop-color="#B8682F"/><stop offset="11.765%" stop-color="#C17131"/><stop offset="70.588%" stop-color="#E9A348"/><stop offset="100%" stop-color="#FDBC56"/></linearGradient><linearGradient id="w" gradientUnits="userSpaceOnUse" x1="1692.25" y1="1756.425" x2="1692.25" y2="1900.675" spreadMethod="pad"><stop offset="0%" stop-color="#492A24"/><stop offset="19.608%" stop-color="#4B2B24"/><stop offset="39.608%" stop-color="#522D26"/><stop offset="60.392%" stop-color="#5C3128"/><stop offset="80.784%" stop-color="#6A372C"/><stop offset="100%" stop-color="#7C3D30"/></linearGradient><linearGradient id="x" gradientUnits="userSpaceOnUse" x1="1840.35" y1="1756.425" x2="1840.35" y2="1900.675" spreadMethod="pad"><stop offset="0%" stop-color="#492A24"/><stop offset="19.608%" stop-color="#4B2B24"/><stop offset="39.608%" stop-color="#522D26"/><stop offset="60.392%" stop-color="#5C3128"/><stop offset="80.784%" stop-color="#6A372C"/><stop offset="100%" stop-color="#7C3D30"/></linearGradient><linearGradient id="y" gradientUnits="userSpaceOnUse" x1="1696" y1="1712.625" x2="1694" y2="1720.575" spreadMethod="pad"><stop offset="0%" stop-color="#B8682F"/><stop offset="11.765%" stop-color="#C17131"/><stop offset="70.588%" stop-color="#E9A348"/><stop offset="100%" stop-color="#FDBC56"/></linearGradient><linearGradient id="z" gradientUnits="userSpaceOnUse" x1="1845.825" y1="1697.025" x2="1843.175" y2="1706.975" spreadMethod="pad"><stop offset="0%" stop-color="#B8682F"/><stop offset="11.765%" stop-color="#C17131"/><stop offset="70.588%" stop-color="#E9A348"/><stop offset="100%" stop-color="#FDBC56"/></linearGradient><path fill="#FFF" fill-opacity="0" d="M284 320V0H0v320h284z" id="A"/><path fill="url(#a)" d="M1985.85 1772.6q-.85-31.25-9.6-61.5-8.7-30.15-23.65-53.95-15.5-24.65-35.2-38.3-21.05-14.55-44.25-14.55-19.85 0-36.6 1.1-15.35 1.3-20.75 1.6-8.45.55-14.95-.5-7.35-1.15-19.3-5.2-21.3-7.3-63.95-3.85-15.05 1.2-29.8 3.55-12.2 1.9-16.7 3.3-2.7.85-9.75-.75-10.4-2.25-15.7-2.8-25.45-2.6-56.45 11.05-24.4 10.8-41.65 25.3l-14.05 15.2-2 1.8q-2.55 2.45-5.25 6-8.7 11.25-15.8 28.6-19.6 50.5-2.35 126.65 19.5 86.35 59.7 129.5 24.9 26.7 55.2 34.25 8.95 2.25 36.7 4.45 27.35 2.15 60.4 3.3 81.3 2.85 110.25-2.45l8.35-.5q10.35-1 20.55-3.45 32.65-7.9 51.45-27.6 30.3-31.8 49.7-70.7 26.95-54.05 25.45-109.55z" id="B"/><path fill="url(#b)" d="M1811 1626.5q-3.75-5.45-10.7-8.05-6.75-2.55-18.95-3.3-10.15-.65-30.2-.3-30.7.55-41.55 7.65-3.4 2.2-4.4 4.8-.5 1.3-.35 2.15-.5 73.8 4.9 197.65 2.65 61.95 5.45 109.1l6.85 36.05 25.7 12.9h16.65l17.1-4.05 15.6-7.7 8.05-29.2q17.35-175.8 17.5-244.5 0-24.85-2.2-39.5-2.85-13.2-4.05-19.1-1.95-9.55-5.4-14.6z" id="C"/><path fill="url(#c)" d="M1811 1626.5q-3.75-5.45-10.7-8.05-6.75-2.55-18.95-3.3-10.15-.65-30.2-.3-30.7.55-41.55 7.65-3.4 2.2-4.4 4.8-.5 1.3-.35 2.15-.5 73.8 4.9 197.65 2.65 61.95 5.45 109.1l6.85 36.05 25.7 12.9h16.65l17.1-4.05 15.6-7.7 8.05-29.2q17.35-175.8 17.5-244.5 0-24.85-2.2-39.5-2.85-13.2-4.05-19.1-1.95-9.55-5.4-14.6z" id="D"/><path fill="url(#d)" d="M1893.3 1638.8q-6.85-11.45-17.3-18.55-5.95-4.05-17.1-8.65-15-6.2-27.9-2.5-9.2 2.65-12.6 7.65-.9 1.3.55 4.95.9 2.35 4.1 9.1 7.35 16.3 9.25 32.1 2.05 16.8-1.25 65.25-5.3 77.75-5.3 78.1-1.25 28.25-11.05 85.95-4.9 28.8-9.55 52l-6.4 28.05 6.4 12.9 31.4-3.75 24.05-13.75q3.15-4.85 7.25-11.8 8.2-13.8 12.8-24.1 5.9-13.3 12.7-61.8 7.5-53.8 13.5-133.55 4.95-66.7-13.55-97.6z" id="E"/><path fill="url(#e)" d="M1893.3 1638.8q-6.85-11.45-17.3-18.55-5.95-4.05-17.1-8.65-15-6.2-27.9-2.5-9.2 2.65-12.6 7.65-.9 1.3.55 4.95.9 2.35 4.1 9.1 7.35 16.3 9.25 32.1 2.05 16.8-1.25 65.25-5.3 77.75-5.3 78.1-1.25 28.25-11.05 85.95-4.9 28.8-9.55 52l-6.4 28.05 6.4 12.9 31.4-3.75 24.05-13.75q3.15-4.85 7.25-11.8 8.2-13.8 12.8-24.1 5.9-13.3 12.7-61.8 7.5-53.8 13.5-133.55 4.95-66.7-13.55-97.6z" id="F"/><path fill="url(#f)" d="M1944.75 1880.7q2.25-14.9 8.65-66.7 10.4-83.7-3.3-140.5-4.3-17.75-10.45-30.7l-5.35-9.35q-3.5-3.2-7.6-7.3-20.55-18-43.9-21.15v-.05l-1.1-.1q-4.4-.55-8.55-.55-12.05 0-24.3.45 1.1 1.45 12.8 3.4 37.05 6.45 49.6 47.15 6.25 20.35 5.1 39.4 1.05 96.95-17.25 176.7-9.1 39.9-18.45 60.35l-12.8 24.15v22.15h.05q26.75-8.35 42.8-25.2 13-13.6 24.6-29.55 5.2-14.95 9.45-42.6z" id="G"/><path fill="url(#g)" d="M1944.75 1880.7q2.25-14.9 8.65-66.7 10.4-83.7-3.3-140.5-4.3-17.75-10.45-30.7l-5.35-9.35q-3.5-3.2-7.6-7.3-20.55-18-43.9-21.15v-.05l-1.1-.1q-4.4-.55-8.55-.55-12.05 0-24.3.45 1.1 1.45 12.8 3.4 37.05 6.45 49.6 47.15 6.25 20.35 5.1 39.4 1.05 96.95-17.25 176.7-9.1 39.9-18.45 60.35l-12.8 24.15v22.15h.05q26.75-8.35 42.8-25.2 13-13.6 24.6-29.55 5.2-14.95 9.45-42.6z" id="H"/><path fill="url(#h)" d="M1985.85 1772.6q-.9-33.4-10.8-65.55-9.9-32.1-26.7-56.3 21.85 38.5 15.8 129.6-2.4 35.4-8.75 73.4-5.5 33.1-12.25 58.25 19-30.1 30.05-62.5 13.65-39.9 12.65-76.9z" id="I"/><path fill="url(#i)" d="M1985.85 1772.6q-.9-33.4-10.8-65.55-9.9-32.1-26.7-56.3 21.85 38.5 15.8 129.6-2.4 35.4-8.75 73.4-5.5 33.1-12.25 58.25 19-30.1 30.05-62.5 13.65-39.9 12.65-76.9z" id="J"/><path fill="url(#j)" d="M1687.2 1617.8q-10.4-4-16.35-5.25-10.5-2.25-20.85 2.2-7.65 3.25-12.05 6.25-6.35 4.3-10.5 10.6-10.25 15.45-10.15 48.1.2 51.9 10.95 132.45 12.35 92.5 28.85 135.75l11.45 25.95 21.55 8.2h25.1l5.35-14.85-5.35-31q-7.4-41.3-13.55-100.4-12.4-118.25-6.35-207.4.6-1.9-.15-4.15-1.45-4.55-7.95-6.45z" id="K"/><path fill="url(#k)" d="M1687.2 1617.8q-10.4-4-16.35-5.25-10.5-2.25-20.85 2.2-7.65 3.25-12.05 6.25-6.35 4.3-10.5 10.6-10.25 15.45-10.15 48.1.2 51.9 10.95 132.45 12.35 92.5 28.85 135.75l11.45 25.95 21.55 8.2h25.1l5.35-14.85-5.35-31q-7.4-41.3-13.55-100.4-12.4-118.25-6.35-207.4.6-1.9-.15-4.15-1.45-4.55-7.95-6.45z" id="L"/><path fill="url(#l)" d="M1650 1609.65l2.45-.55q2.6-.75 3.7-1.7 3.5-2.95-9.95-6.6-25.65-2.8-57 11-24.4 10.8-41.65 25.3-5.15 10.4-7.05 32-1.85 21.95-1.2 65.3.15 10.85 2.7 32.6 1.95 17.1 4.55 34.2l.5 3.1q7.05 44.7 16 71.7 11.75 35.45 33.05 63.65l14.5 20.1 19.35 14.85h40.6l-13.45-26.7q-11.8-30.3-23.8-77.7-23.95-94.75-24.9-180.2-1.05-18.15 3.6-37.25 9.3-38.25 38-43.1z" id="M"/><path fill="url(#m)" d="M1650 1609.65l2.45-.55q2.6-.75 3.7-1.7 3.5-2.95-9.95-6.6-25.65-2.8-57 11-24.4 10.8-41.65 25.3-5.15 10.4-7.05 32-1.85 21.95-1.2 65.3.15 10.85 2.7 32.6 1.95 17.1 4.55 34.2l.5 3.1q7.05 44.7 16 71.7 11.75 35.45 33.05 63.65l14.5 20.1 19.35 14.85h40.6l-13.45-26.7q-11.8-30.3-23.8-77.7-23.95-94.75-24.9-180.2-1.05-18.15 3.6-37.25 9.3-38.25 38-43.1z" id="N"/><path fill="url(#n)" d="M1531.1 1680.45q.55-11 1.55-20.7l.85-7.45-2 1.8q-2.55 2.45-5.25 6-8.7 11.25-15.8 28.6-19.6 50.5-2.35 126.65 19.35 85.65 59.05 128.85 24.85 26.95 55.15 34.75-10.6-17.8-26.2-39.3-54.1-74.4-63.75-188.3-3.05-35.6-1.25-70.9z" id="O"/><path fill="url(#o)" d="M1531.1 1680.45q.55-11 1.55-20.7l.85-7.45-2 1.8q-2.55 2.45-5.25 6-8.7 11.25-15.8 28.6-19.6 50.5-2.35 126.65 19.35 85.65 59.05 128.85 24.85 26.95 55.15 34.75-10.6-17.8-26.2-39.3-54.1-74.4-63.75-188.3-3.05-35.6-1.25-70.9z" id="P"/><path fill="url(#p)" d="M1761.85 1502q-6.4-.95-12.4-.65l-4.75.45q-5.25.6-12.35 7.05-14.2 12.9-23.4 42.25-4.95 15.75-11.2 29.05l-1.95 4q-5 9.15-18.2 16.95-7.55 4.45-14.6 6.9l-.4.15 6.05 1.4q6.65 1.55 9.8 2.45 1.2.25 10.05 2.85 9.05 2.55 12.25 2.55 2.05 0 6.9-.95 7.75-1.5 21.85-3.15 15.8-1.85 44.1-1.1 14.15.35 25.15 1.1l9.75 2.5 5.45-4q6.45-4.25 11.5-5.55-6.8-.1-13.95-1.15-14.3-2.1-16-6.7-2.75-8.6-10.35-22.5-6.1-11.1-6.35-16.55-.35-8.05 9.75-24.8 5.1-8.4 10.2-15.15-16.5-14.3-36.9-17.4z" id="Q"/><path fill="url(#q)" d="M1761.65 1501.95q-6.3-.95-12.25-.65l-4.7.5q-5.25.6-12.35 7.05-14.2 12.9-23.4 42.25-4.95 15.75-11.2 29.05l-1.95 4q-5 9.15-18.2 16.95-7.55 4.45-14.6 6.9l-.4.15 6.05 1.4q6.65 1.55 9.8 2.45 1.1.2 9.2 2.6 8.4 2.4 12 2.75 7.35-7.3 12.6-16.75 8.1-14.65 8.9-30.9.85-17.45 17.35-40.65 9.95-14.05 23.15-27.1z" id="R"/><path fill="url(#r)" d="M1781.45 1508q-9.15 13.15-16.3 24.6-11 17.75-14.2 26.7-4.35 12.15 5.55 25.05 8.6 11.2 20.15 15.1 8.2 2.7 20.85 9.8 6.3 3.55 11 6.55l5.45-4q6.45-4.25 11.5-5.55-6.8-.1-13.95-1.15-14.3-2.1-16-6.7-2.75-8.6-10.35-22.5-6.1-11.1-6.35-16.55-.35-8.05 9.75-24.8 5.1-8.4 10.2-15.15-8.2-7.1-17.3-11.4z" id="S"/><path fill="url(#s)" d="M1657.1 1947.9q3.85 9.1 2.4 14.55-2 7.55-14.2 6.7-17.3-1.2-34.95-15.45-5.55-4.5-10.45-9.7l-3.8-4.35q12.75 23.9-10.55 12.2-7.3-3.65-17.35-10.45-8.55-6.05-8.6-6.1 16.35 20.6 35.9 32.35 13.25 7.9 27.5 11.45 8.95 2.25 36.7 4.45 27.35 2.15 60.4 3.3 81.3 2.85 110.25-2.45l7.65-.45q9.55-.85 19.05-3 30.5-6.9 49.45-24.05-35.6 20.6-35.45 2.25.097-9.784 9-26.35-7.514 13.012-17.7 24.35-19.2 21.3-38.05 23.75-18.75 2.4-21.25-14.8-1.427-9.548 1.95-21.55-3.578 11.606-11.4 21.15-14.15 17.3-35.55 17.1-19.15-.2-31.35-18.5-7.8-11.65-11.5-28.1 2.3 14.2-.05 24.25-3.65 15.5-18 16.3-13 .7-24.95-9.8-8.25-7.3-15.1-19.05z" id="T"/><path fill="url(#t)" d="M1923.65 1754.9l.25-6.35q-40.35 10.35-84.75 17.85l2.35 18.15q2.35 19.5 2.35 26.25 0 4.25-4.65 10.2-5 6.4-13.2 11.85-20.8 13.8-47.1 12.35-2.75-1.7-5.5-5.25-5.45-7.05-5.25-16 .15-8.95 2.5-29.5l2.35-18.75q-61.7 6.95-123.5 8.2-19.35.4-36.35.15l-13.15-.3q4.45 43.85 21.95 78 17.2 33.7 45 54 28.25 20.65 64 25 37.25 4.55 78.85-9.1 38.9-12.75 65.55-44.25 21.35-25.2 33.95-61.2 8.95-25.7 12.7-54.25 1.15-8.9 1.65-17.05z" id="U"/><path fill="url(#u)" d="M1911.55 1779.25q2.75-15.35 3.2-28.4-36.05 8.9-75.6 15.55l2.35 18.15q2.35 19.5 2.35 26.25 0 4.25-4.65 10.2-5 6.4-13.2 11.85-20.8 13.8-47.1 12.35-2.75-1.7-5.5-5.25-5.45-7.05-5.25-16 .15-8.95 2.5-29.5l2.35-18.75q-50.8 5.75-102.5 7.6-32.95 1.2-61.15.7 4.5 40.75 21.1 71.4 16.25 30 42.55 47.4 26.35 17.4 60.15 20.25 34.75 2.9 73.95-9.95 62.75-20.55 90.6-86.5 9.35-22.05 13.85-47.35z" id="V"/><path fill="url(#v)" d="M1773 1775.7l-13.8 1.45-3.3 14.1q-3.05 16.85-1.9 30.3t13.15 19.9q6 3.25 11.75 3.75-2.75-1.7-5.5-5.25-5.45-7.05-5.25-16 .15-8.95 2.5-29.5l2.35-18.75z" id="W"/><path fill="url(#w)" d="M1659.2 1699.05q-8.7 15.3-13.9 28.45 28 4.9 63.75 2.95 17.9-1 30.15-2.95-5.95-15.6-25.95-44.25l-18.8-25.55q-17.8 10.8-35.25 41.35z" id="X"/><path fill="url(#x)" d="M1856 1681.5q-17-19.7-26.75-31.85-5.5 12.6-16.7 37.5-9.45 21.5-14.15 35.8 18.95-.85 41.45-3.9 18.3-2.45 42.45-6.95-4.05-4.8-26.3-30.6z" id="Y"/><path fill="url(#y)" d="M1694.45 1657.7q-4.35 2.55-9.25 7 16.05 21.6 21.5 29.5 13.8 20.1 18 31.1-9.4 1-23.95 1.5-29.05 1.05-54.6-1.35l-.85 2.05q28 4.9 63.75 2.95 17.9-1 30.15-2.95-5.95-15.6-25.95-44.25l-18.8-25.55z" id="Z"/><path fill="url(#z)" d="M1856 1681.5q-17-19.7-26.75-31.85l-4.95 11.2q6.9 8.2 21.75 25.4 14.75 17.1 20.7 24.15-25.15 4.65-67 8.65l-1.35 3.9q18.95-.85 41.45-3.9 18.3-2.45 42.45-6.95-4.05-4.8-26.3-30.6z" id="aa"/></defs><use xlink:href="#A"/><use xlink:href="#B" transform="translate(-783.654 -741.491) scale(.53105)"/><use xlink:href="#C" transform="translate(-783.654 -741.491) scale(.53105)"/><use xlink:href="#D" transform="translate(-783.654 -741.491) scale(.53105)"/><use xlink:href="#E" transform="translate(-783.654 -741.491) scale(.53105)"/><use xlink:href="#F" transform="translate(-783.654 -741.491) scale(.53105)"/><use xlink:href="#G" transform="translate(-783.654 -741.491) scale(.53105)"/><use xlink:href="#H" transform="translate(-783.654 -741.491) scale(.53105)"/><use xlink:href="#I" transform="translate(-783.654 -741.491) scale(.53105)"/><use xlink:href="#J" transform="translate(-783.654 -741.491) scale(.53105)"/><use xlink:href="#K" transform="translate(-783.654 -741.491) scale(.53105)"/><use xlink:href="#L" transform="translate(-783.654 -741.491) scale(.53105)"/><use xlink:href="#M" transform="translate(-783.654 -741.491) scale(.53105)"/><use xlink:href="#N" transform="translate(-783.654 -741.491) scale(.53105)"/><use xlink:href="#O" transform="translate(-783.654 -741.491) scale(.53105)"/><use xlink:href="#P" transform="translate(-783.654 -741.491) scale(.53105)"/><use xlink:href="#Q" transform="translate(-783.654 -741.491) scale(.53105)"/><use xlink:href="#R" transform="translate(-783.654 -741.491) scale(.53105)"/><use xlink:href="#S" transform="translate(-783.654 -741.491) scale(.53105)"/><use xlink:href="#T" transform="translate(-783.654 -741.491) scale(.53105)"/><use xlink:href="#U" transform="translate(-783.654 -741.491) scale(.53105)"/><use xlink:href="#V" transform="translate(-783.654 -741.491) scale(.53105)"/><use xlink:href="#W" transform="translate(-783.654 -741.491) scale(.53105)"/><use xlink:href="#X" transform="translate(-783.654 -741.491) scale(.53105)"/><use xlink:href="#Y" transform="translate(-783.654 -741.491) scale(.53105)"/><use xlink:href="#Z" transform="translate(-783.654 -741.491) scale(.53105)"/><use xlink:href="#aa" transform="translate(-783.654 -741.491) scale(.53105)"/></svg>