<svg xmlns="http://www.w3.org/2000/svg" xmlns:xlink="http://www.w3.org/1999/xlink" preserveAspectRatio="none" width="284" height="320"><defs><linearGradient id="a" gradientUnits="userSpaceOnUse" x1="1709.775" y1="2190.775" x2="1720.925" y2="2327.725" spreadMethod="pad"><stop offset="14.118%" stop-color="#554434"/><stop offset="22.353%" stop-color="#594735"/><stop offset="35.294%" stop-color="#655039"/><stop offset="51.373%" stop-color="#7A6140"/><stop offset="61.961%" stop-color="#8B7045"/><stop offset="100%" stop-color="#C79F53"/></linearGradient><linearGradient id="b" gradientUnits="userSpaceOnUse" x1="1736.5" y1="2241.987" x2="1779.8" y2="2341.412" spreadMethod="pad"><stop offset="0%" stop-color="#8B7045"/><stop offset="100%" stop-color="#D1B06E"/></linearGradient><linearGradient id="c" gradientUnits="userSpaceOnUse" x1="1665.738" y1="2234.563" x2="1705.563" y2="2326.038" spreadMethod="pad"><stop offset="0%" stop-color="#554434"/><stop offset="10.98%" stop-color="#594735"/><stop offset="27.843%" stop-color="#655039"/><stop offset="48.235%" stop-color="#7A6140"/><stop offset="61.961%" stop-color="#8B7045"/><stop offset="100%" stop-color="#C79F53"/></linearGradient><linearGradient id="d" gradientUnits="userSpaceOnUse" x1="1709.463" y1="2246.35" x2="1727.037" y2="2246.35" spreadMethod="pad"><stop offset="0%" stop-color="#8B7045"/><stop offset="100%" stop-color="#C79F53"/></linearGradient><linearGradient id="e" gradientUnits="userSpaceOnUse" x1="1695.4" y1="2238.95" x2="1781.1" y2="2238.95" spreadMethod="pad"><stop offset="0%" stop-color="#8B7045"/><stop offset="100%" stop-color="#C79F53"/></linearGradient><linearGradient id="f" gradientUnits="userSpaceOnUse" x1="1742.95" y1="2671.2" x2="1742.95" y2="2325.4" spreadMethod="pad"><stop offset="0%" stop-color="#FED090"/><stop offset="1.961%" stop-color="#FEC77E"/><stop offset="5.098%" stop-color="#FCB862"/><stop offset="8.235%" stop-color="#FBAD4B"/><stop offset="11.373%" stop-color="#FAA63C"/><stop offset="14.51%" stop-color="#F9A135"/><stop offset="17.647%" stop-color="#F9A033"/><stop offset="65.098%" stop-color="#E77035"/><stop offset="72.157%" stop-color="#E06D35"/><stop offset="79.608%" stop-color="#CF6536"/><stop offset="87.059%" stop-color="#B55835"/><stop offset="94.51%" stop-color="#954933"/><stop offset="100%" stop-color="#7C3D30"/></linearGradient><linearGradient id="g" gradientUnits="userSpaceOnUse" x1="1905.05" y1="2671.45" x2="1905.05" y2="2336.25" spreadMethod="pad"><stop offset="0%" stop-color="#FFECB4"/><stop offset=".784%" stop-color="#FFE5A6"/><stop offset="3.922%" stop-color="#FFD282"/><stop offset="6.667%" stop-color="#FEC363"/><stop offset="9.412%" stop-color="#FCB74B"/><stop offset="12.157%" stop-color="#FBAF3C"/><stop offset="14.902%" stop-color="#FBAA34"/><stop offset="17.647%" stop-color="#FAA832"/><stop offset="65.098%" stop-color="#ED7C37"/><stop offset="71.765%" stop-color="#E67837"/><stop offset="78.431%" stop-color="#D66E37"/><stop offset="85.49%" stop-color="#BE6136"/><stop offset="92.941%" stop-color="#A05034"/><stop offset="92.941%" stop-color="#A05034" stop-opacity="0"/><stop offset="100%" stop-opacity="0"/></linearGradient><linearGradient id="h" gradientUnits="userSpaceOnUse" x1="1905.05" y1="2671.45" x2="1905.05" y2="2336.25" spreadMethod="pad"><stop offset="0%" stop-opacity="0"/><stop offset="92.941%" stop-color="#A05034" stop-opacity="0"/><stop offset="92.941%" stop-color="#A05034"/><stop offset="100%" stop-color="#7D3E30"/><stop offset="100%" stop-color="#7C3D30"/></linearGradient><linearGradient id="i" gradientUnits="userSpaceOnUse" x1="1849.5" y1="2671.6" x2="1849.5" y2="2330.9" spreadMethod="pad"><stop offset="0%" stop-color="#FFECB4"/><stop offset=".784%" stop-color="#FFE5A6"/><stop offset="3.922%" stop-color="#FFD282"/><stop offset="6.667%" stop-color="#FEC363"/><stop offset="9.412%" stop-color="#FCB74B"/><stop offset="12.157%" stop-color="#FBAF3C"/><stop offset="14.902%" stop-color="#FBAA34"/><stop offset="17.647%" stop-color="#FAA832"/><stop offset="65.098%" stop-color="#ED7C37"/><stop offset="71.765%" stop-color="#E67837"/><stop offset="78.431%" stop-color="#D66E37"/><stop offset="85.49%" stop-color="#BE6136"/><stop offset="92.941%" stop-color="#A05034"/><stop offset="92.941%" stop-color="#A05034" stop-opacity="0"/><stop offset="100%" stop-opacity="0"/></linearGradient><linearGradient id="j" gradientUnits="userSpaceOnUse" x1="1849.5" y1="2671.6" x2="1849.5" y2="2330.9" spreadMethod="pad"><stop offset="0%" stop-opacity="0"/><stop offset="92.941%" stop-color="#A05034" stop-opacity="0"/><stop offset="92.941%" stop-color="#A05034"/><stop offset="100%" stop-color="#7D3E30"/><stop offset="100%" stop-color="#7C3D30"/></linearGradient><linearGradient id="k" gradientUnits="userSpaceOnUse" x1="1776.3" y1="2671.575" x2="1776.3" y2="2340.825" spreadMethod="pad"><stop offset="0%" stop-color="#FFECB4"/><stop offset=".784%" stop-color="#FFE5A6"/><stop offset="3.922%" stop-color="#FFD282"/><stop offset="6.667%" stop-color="#FEC363"/><stop offset="9.412%" stop-color="#FCB74B"/><stop offset="12.157%" stop-color="#FBAF3C"/><stop offset="14.902%" stop-color="#FBAA34"/><stop offset="17.647%" stop-color="#FAA832"/><stop offset="65.098%" stop-color="#ED7C37"/><stop offset="71.765%" stop-color="#E67837"/><stop offset="78.431%" stop-color="#D66E37"/><stop offset="85.49%" stop-color="#BE6136"/><stop offset="92.941%" stop-color="#A05034"/><stop offset="92.941%" stop-color="#A05034" stop-opacity="0"/><stop offset="100%" stop-opacity="0"/></linearGradient><linearGradient id="l" gradientUnits="userSpaceOnUse" x1="1776.3" y1="2671.575" x2="1776.3" y2="2340.825" spreadMethod="pad"><stop offset="0%" stop-opacity="0"/><stop offset="92.941%" stop-color="#A05034" stop-opacity="0"/><stop offset="92.941%" stop-color="#A05034"/><stop offset="100%" stop-color="#7D3E30"/><stop offset="100%" stop-color="#7C3D30"/></linearGradient><linearGradient id="m" gradientUnits="userSpaceOnUse" x1="1708.7" y1="2671.763" x2="1708.7" y2="2336.537" spreadMethod="pad"><stop offset="0%" stop-color="#FFECB4"/><stop offset=".784%" stop-color="#FFE5A6"/><stop offset="3.922%" stop-color="#FFD282"/><stop offset="6.667%" stop-color="#FEC363"/><stop offset="9.412%" stop-color="#FCB74B"/><stop offset="12.157%" stop-color="#FBAF3C"/><stop offset="14.902%" stop-color="#FBAA34"/><stop offset="17.647%" stop-color="#FAA832"/><stop offset="65.098%" stop-color="#ED7C37"/><stop offset="71.765%" stop-color="#E67837"/><stop offset="78.431%" stop-color="#D66E37"/><stop offset="85.49%" stop-color="#BE6136"/><stop offset="92.941%" stop-color="#A05034"/><stop offset="92.941%" stop-color="#A05034" stop-opacity="0"/><stop offset="100%" stop-opacity="0"/></linearGradient><linearGradient id="n" gradientUnits="userSpaceOnUse" x1="1708.7" y1="2671.763" x2="1708.7" y2="2336.537" spreadMethod="pad"><stop offset="0%" stop-opacity="0"/><stop offset="92.941%" stop-color="#A05034" stop-opacity="0"/><stop offset="92.941%" stop-color="#A05034"/><stop offset="100%" stop-color="#7D3E30"/><stop offset="100%" stop-color="#7C3D30"/></linearGradient><linearGradient id="o" gradientUnits="userSpaceOnUse" x1="1629.5" y1="2671.438" x2="1629.5" y2="2336.363" spreadMethod="pad"><stop offset="0%" stop-color="#FFECB4"/><stop offset=".784%" stop-color="#FFE5A6"/><stop offset="3.922%" stop-color="#FFD282"/><stop offset="6.667%" stop-color="#FEC363"/><stop offset="9.412%" stop-color="#FCB74B"/><stop offset="12.157%" stop-color="#FBAF3C"/><stop offset="14.902%" stop-color="#FBAA34"/><stop offset="17.647%" stop-color="#FAA832"/><stop offset="65.098%" stop-color="#ED7C37"/><stop offset="71.765%" stop-color="#E67837"/><stop offset="78.431%" stop-color="#D66E37"/><stop offset="85.49%" stop-color="#BE6136"/><stop offset="92.941%" stop-color="#A05034"/><stop offset="92.941%" stop-color="#A05034" stop-opacity="0"/><stop offset="100%" stop-opacity="0"/></linearGradient><linearGradient id="p" gradientUnits="userSpaceOnUse" x1="1629.5" y1="2671.438" x2="1629.5" y2="2336.363" spreadMethod="pad"><stop offset="0%" stop-opacity="0"/><stop offset="92.941%" stop-color="#A05034" stop-opacity="0"/><stop offset="92.941%" stop-color="#A05034"/><stop offset="100%" stop-color="#7D3E30"/><stop offset="100%" stop-color="#7C3D30"/></linearGradient><linearGradient id="q" gradientUnits="userSpaceOnUse" x1="1557.45" y1="2671.088" x2="1557.45" y2="2336.412" spreadMethod="pad"><stop offset="0%" stop-color="#FFECB4"/><stop offset=".784%" stop-color="#FFE5A6"/><stop offset="3.922%" stop-color="#FFD282"/><stop offset="6.667%" stop-color="#FEC363"/><stop offset="9.412%" stop-color="#FCB74B"/><stop offset="12.157%" stop-color="#FBAF3C"/><stop offset="14.902%" stop-color="#FBAA34"/><stop offset="17.647%" stop-color="#FAA832"/><stop offset="65.098%" stop-color="#ED7C37"/><stop offset="71.765%" stop-color="#E67837"/><stop offset="78.431%" stop-color="#D66E37"/><stop offset="85.49%" stop-color="#BE6136"/><stop offset="92.941%" stop-color="#A05034"/><stop offset="92.941%" stop-color="#A05034" stop-opacity="0"/><stop offset="100%" stop-opacity="0"/></linearGradient><linearGradient id="r" gradientUnits="userSpaceOnUse" x1="1557.45" y1="2671.088" x2="1557.45" y2="2336.412" spreadMethod="pad"><stop offset="0%" stop-opacity="0"/><stop offset="92.941%" stop-color="#A05034" stop-opacity="0"/><stop offset="92.941%" stop-color="#A05034"/><stop offset="100%" stop-color="#7D3E30"/><stop offset="100%" stop-color="#7C3D30"/></linearGradient><linearGradient id="s" gradientUnits="userSpaceOnUse" x1="1736.15" y1="2647.975" x2="1736.15" y2="2673.125" spreadMethod="pad"><stop offset="0%" stop-color="#7C3D30"/><stop offset="100%" stop-color="#8C4334"/></linearGradient><linearGradient id="t" gradientUnits="userSpaceOnUse" x1="1737.063" y1="2202.137" x2="1755.838" y2="2245.262" spreadMethod="pad"><stop offset="0%" stop-color="#C79F53"/><stop offset="19.216%" stop-color="#C9A156"/><stop offset="38.824%" stop-color="#CFA75E"/><stop offset="59.216%" stop-color="#D9B36D"/><stop offset="79.216%" stop-color="#E8C582"/><stop offset="99.608%" stop-color="#FFDEA0"/><stop offset="100%" stop-color="#FFDFA1"/></linearGradient><linearGradient id="u" gradientUnits="userSpaceOnUse" x1="1763.625" y1="2226.45" x2="1773.975" y2="2250.25" spreadMethod="pad"><stop offset="0%" stop-color="#554434"/><stop offset="17.647%" stop-color="#594735"/><stop offset="45.098%" stop-color="#655039"/><stop offset="78.039%" stop-color="#7A6140"/><stop offset="100%" stop-color="#8B7045"/></linearGradient><linearGradient id="v" gradientUnits="userSpaceOnUse" x1="1858.4" y1="2399.975" x2="1858.4" y2="2594.125" spreadMethod="pad"><stop offset="0%" stop-color="#492A24"/><stop offset="19.608%" stop-color="#4B2B24"/><stop offset="39.608%" stop-color="#522D26"/><stop offset="60.392%" stop-color="#5C3128"/><stop offset="80.784%" stop-color="#6A372C"/><stop offset="100%" stop-color="#7C3D30"/></linearGradient><linearGradient id="w" gradientUnits="userSpaceOnUse" x1="1697.2" y1="2371.513" x2="1714.2" y2="2679.287" spreadMethod="pad"><stop offset="0%" stop-color="#492A24"/><stop offset="19.608%" stop-color="#4B2B24"/><stop offset="39.608%" stop-color="#522D26"/><stop offset="60.392%" stop-color="#5C3128"/><stop offset="80.784%" stop-color="#6A372C"/><stop offset="100%" stop-color="#7C3D30"/></linearGradient><linearGradient id="x" gradientUnits="userSpaceOnUse" x1="1802.8" y1="2451.375" x2="1802.8" y2="2600.425" spreadMethod="pad"><stop offset="0%" stop-color="#492A24"/><stop offset="19.608%" stop-color="#4B2B24"/><stop offset="39.608%" stop-color="#522D26"/><stop offset="60.392%" stop-color="#5C3128"/><stop offset="80.784%" stop-color="#6A372C"/><stop offset="100%" stop-color="#7C3D30"/></linearGradient><linearGradient id="y" gradientUnits="userSpaceOnUse" x1="1762.65" y1="2476.6" x2="1762.65" y2="2995" spreadMethod="pad"><stop offset="0%" stop-color="#492A24"/><stop offset="19.608%" stop-color="#4B2B24"/><stop offset="39.608%" stop-color="#522D26"/><stop offset="60.392%" stop-color="#5C3128"/><stop offset="80.784%" stop-color="#6A372C"/><stop offset="100%" stop-color="#7C3D30"/></linearGradient><linearGradient id="z" gradientUnits="userSpaceOnUse" x1="1811.95" y1="2468.162" x2="1811.95" y2="2513.237" spreadMethod="pad"><stop offset="0%" stop-color="#B8682F"/><stop offset="11.765%" stop-color="#C17131"/><stop offset="70.588%" stop-color="#E9A348"/><stop offset="100%" stop-color="#FDBC56"/></linearGradient><linearGradient id="A" gradientUnits="userSpaceOnUse" x1="1874.5" y1="2346.162" x2="1874.5" y2="2443.537" spreadMethod="pad"><stop offset="0%" stop-color="#B8682F"/><stop offset="11.765%" stop-color="#C17131"/><stop offset="70.588%" stop-color="#E9A348"/><stop offset="100%" stop-color="#FDBC56"/></linearGradient><linearGradient id="B" gradientUnits="userSpaceOnUse" x1="1716.65" y1="2397.475" x2="1716.65" y2="2449.825" spreadMethod="pad"><stop offset="0%" stop-color="#B8682F"/><stop offset="11.765%" stop-color="#C17131"/><stop offset="70.588%" stop-color="#E9A348"/><stop offset="100%" stop-color="#FDBC56"/></linearGradient><linearGradient id="C" gradientUnits="userSpaceOnUse" x1="1762.65" y1="2497.55" x2="1762.65" y2="2585.45" spreadMethod="pad"><stop offset="0%" stop-color="#B8682F"/><stop offset="11.765%" stop-color="#C17131"/><stop offset="70.588%" stop-color="#E9A348"/><stop offset="100%" stop-color="#FDBC56"/></linearGradient><linearGradient id="D" gradientUnits="userSpaceOnUse" x1="1851.35" y1="2548.475" x2="1851.35" y2="2583.725" spreadMethod="pad"><stop offset="0%" stop-color="#B8682F"/><stop offset="11.765%" stop-color="#C17131"/><stop offset="70.588%" stop-color="#E9A348"/><stop offset="100%" stop-color="#FDBC56"/></linearGradient><linearGradient id="E" gradientUnits="userSpaceOnUse" x1="1763.2" y1="2548.475" x2="1763.2" y2="2583.725" spreadMethod="pad"><stop offset="0%" stop-color="#B8682F"/><stop offset="11.765%" stop-color="#C17131"/><stop offset="70.588%" stop-color="#E9A348"/><stop offset="100%" stop-color="#FDBC56"/></linearGradient><linearGradient id="F" gradientUnits="userSpaceOnUse" x1="1641.15" y1="2548.475" x2="1641.15" y2="2583.725" spreadMethod="pad"><stop offset="0%" stop-color="#B8682F"/><stop offset="11.765%" stop-color="#C17131"/><stop offset="70.588%" stop-color="#E9A348"/><stop offset="100%" stop-color="#FDBC56"/></linearGradient><path fill="#FFF" fill-opacity="0" d="M284 320V0H0v320h284z" id="G"/><path fill="url(#a)" d="M1775.5 2224.05q-13-7.65-26.2-11.15-42.3-11.15-70.8 23.55-14.8 18.05-20.05 32.35-2.2 6.05-4.05 19.75-1.3 9.7-6.55 16.3-7.25 9.25-27.45 22l4.4 9.35 85.6 7.1q85.85 6.85 87.35 5.3 2.35-2.5 23.15-26.95-16.6-5.4-35.35-11.95-37.45-13.1-48.15-18.65-14.5-7.6-27.5-21.45-14.45-15.4-11.45-23.7 1.55-4.35 10-6.9 8.05-2.45 18.1-2.05 10.65.4 18 3.9 8.45 4 9.8 11l8.35.5q8.8-.05 11.2-2.5 2.45-2.45 7.45-10.9l4.5-7.95q-3.85-3.15-10.35-6.95z" id="H"/><path fill="url(#b)" d="M1700.15 2256.4q-4.6 4.4-1.15 13.45 2.95 7.75 13.2 21.7 8.9 12.1 40.15 25.2 15.6 6.55 29.45 10.65l5.9 6.15 30.8-9.05 2.4-2.85q-16.6-5.4-35.35-11.95-37.45-13.1-48.15-18.65-10.3-5.4-21.15-15.25-11.65-10.55-16.1-19.4z" id="I"/><path fill="url(#c)" d="M1714.7 2237.6q8.25-1.3 16.65-.3 9.1 1.1 15.05 4.5 6.75 3.9 7.95 10.05l-2.7-16.4-54.2-15.95q-10.1 6.2-18.95 16.95-14.8 18.05-20.05 32.35-2.2 6.05-4.05 19.75-1.3 9.7-6.55 16.3-7.25 9.25-27.45 22l4.4 9.35 48 4.05 5.55-7.9q-1.3-5.8-2.25-14.2-1.95-16.75-.2-29.65v-.05q.2-1.75.6-3.7 4.15-23.35 15.2-35.45 3.45-3.75 7.15-5.95l3.05-1.45q4.5-3.05 12.8-4.3z" id="J"/><path fill="url(#d)" d="M1725.55 2252.15q.3-1.1-1.85-2.75-2.2-1.6-9.45-7.5l-6.8-5.6-5.45 1.35 18.65 18.75 1.85-.4q1.85-.65 2-1.75.85-1.4 1.05-2.1z" id="K"/><path fill="url(#e)" d="M1702 2237.65q14.95-4.4 29.45-1.4 7.3 1.5 11.55 3.9 9.9 4 11.35 11.7l4.45.35q5.2.3 8.85-.15l6.25-28.95q-21.95-12.45-42.75-12.85-30.7-.55-52.65 26.2-14.3 17.35-19.65 31.2 14.6-16.7 30.65-25l2.85.1q3.65.35 7.4 1.4 12.05 3.25 20.9 12.25l2.5-4.05q-2.8-2.8-6.85-6.05-8.1-6.5-14.3-8.65z" id="L"/><path fill="url(#f)" d="M1653.55 2322.45q-4.9.15-9.05.5-8.3 1.05-14.55 3.9l-4.6 2.7q-2.05-1.25-4.95-2.7-32.15 7.75-49.15 16.2-28.75 14.25-51.4 42.65-37.8 47.4-13.85 126.95 8.5 28.15 24.8 60.2 8.95 17.65 24.6 43.95.85 1.25 1.65 2.75l4.85 7.8q6.3 10.05 17 19.35 8.15 6.5 16.75 9.3 4.3 1.4 6.95 1.5 2.9 4.25 8.2 7.9 3.55 2.45 10.15 5.8 4.95 2.15 11.5 3.55 9 2 9.05 2 10.65 3.15 28.35-1.55 8.85-2.35 15.55-5.35l1.15 2.35q1.8 2.75 4.8 4.9 9.55 6.85 27.8 4.9 18.25-2 27.05-4.9 4.4-1.45 5.15-2.5l6.05 2.4q9.45 2.75 26.15 4.45 16.7 1.75 27.6-4.65 3.4-2 5.8-4.55l1.75-2.2q24.3 6.2 40.9.15 8.3-3 11.7-7.3l2.2.15q2.8.05 6.05-.55 10.35-1.8 20.8-9 33.4-23.05 55.4-91.25l1.7-5.45q3.8-12.4 11.5-31.5 9.2-22.95 11.55-29.65 5.75-16.25 7.65-28.85 2.25-15.35-.5-29.15-11.5-58-66.65-89.75-20.25-11.65-44.7-18.6-18.7-5.35-35.6-6.95-12.5-1.15-36.85-.3-6.8.35-12 1.3-7.9 1.45-10.05 4.05-5.3-1.1-12.25-1.9-13.85-1.6-21.85-.1-8 1.45-18.4 4.45l-8.8 2.7q-2.05-2.55-6.4-4.5-8.7-3.9-20.2-.8-14.7 4-15.55 5.1-1.85-3-6-5.45-7.4-4.4-18.8-4.45z" id="M"/><path fill="url(#g)" d="M1840.7 2322.35q-7.9-.7-19.8-.7 19.8 9.2 27.65 15.7 6.5 5.3 30.8 31.7 28.65 31.1 36.8 75.85 6.45 35.55-.35 78.05-4.75 29.95-15.45 59.95-5.25 14.75-8.75 21.65l-15.9 58.45q17.55-.7 34.3-16.5 26.65-25.15 45.75-84.25l1.7-5.45q3.8-12.4 11.5-31.5 9.2-22.95 11.55-29.65 5.75-16.25 7.65-28.85 2.25-15.35-.5-29.15-11.5-58-66.65-89.75-20.25-11.65-44.7-18.6-18.7-5.35-35.6-6.95z" id="N"/><path fill="url(#h)" d="M1840.7 2322.35q-7.9-.7-19.8-.7 19.8 9.2 27.65 15.7 6.5 5.3 30.8 31.7 28.65 31.1 36.8 75.85 6.45 35.55-.35 78.05-4.75 29.95-15.45 59.95-5.25 14.75-8.75 21.65l-15.9 58.45q17.55-.7 34.3-16.5 26.65-25.15 45.75-84.25l1.7-5.45q3.8-12.4 11.5-31.5 9.2-22.95 11.55-29.65 5.75-16.25 7.65-28.85 2.25-15.35-.5-29.15-11.5-58-66.65-89.75-20.25-11.65-44.7-18.6-18.7-5.35-35.6-6.95z" id="O"/><path fill="url(#i)" d="M1790.4 2331.1q-7.5 5.2-2.65 14.05 12.05 21.95 24.4 56.55 20.15 56.35 23.8 106.5 3.7 50.3-.5 81.55-1.45 10.75-4.25 21.95-1.5 6.15-4.3 16.85-3.1 13.45-6.85 25.3-1.85 5.95-3.1 9.15h31.3l23.9-8.6 19.45-49.85q9.2-30.35 15.6-67.65 12.75-74.65-1.4-109.4-15.75-38.85-44.65-71.05-13.1-14.6-25.05-22.8-12.45-8.5-20.9-8.25-17.5.55-24.8 5.7z" id="P"/><path fill="url(#j)" d="M1790.4 2331.1q-7.5 5.2-2.65 14.05 12.05 21.95 24.4 56.55 20.15 56.35 23.8 106.5 3.7 50.3-.5 81.55-1.45 10.75-4.25 21.95-1.5 6.15-4.3 16.85-3.1 13.45-6.85 25.3-1.85 5.95-3.1 9.15h31.3l23.9-8.6 19.45-49.85q9.2-30.35 15.6-67.65 12.75-74.65-1.4-109.4-15.75-38.85-44.65-71.05-13.1-14.6-25.05-22.8-12.45-8.5-20.9-8.25-17.5.55-24.8 5.7z" id="Q"/><path fill="url(#k)" d="M1765.85 2331.1q-12.75-2.85-23.2-.65-15.05 3.25-18.85 16.9-1.9 6.85 2.1 44 1.9 17.3 10.05 81.75 7.5 58.9 10.65 91.05 4.75 48.2 3.85 71.75l-1.15 33.4h38.8l31.8-14.9 7-25.85q3.05-39.4 2.5-87-1.15-95.2-19.1-136.15-21.35-48.6-28.7-60.75-4.25-7.1-8-10.1-3-2.4-7.75-3.45z" id="R"/><path fill="url(#l)" d="M1765.85 2331.1q-12.75-2.85-23.2-.65-15.05 3.25-18.85 16.9-1.9 6.85 2.1 44 1.9 17.3 10.05 81.75 7.5 58.9 10.65 91.05 4.75 48.2 3.85 71.75l-1.15 33.4h38.8l31.8-14.9 7-25.85q3.05-39.4 2.5-87-1.15-95.2-19.1-136.15-21.35-48.6-28.7-60.75-4.25-7.1-8-10.1-3-2.4-7.75-3.45z" id="S"/><path fill="url(#m)" d="M1681.8 2338.5q-12.15 9.35-17.2 28.65-4.8 18.4 4.75 126.85 7.65 87.15 13.95 131.35 2.9 20.3 6.25 29.95.8 2.25 1.85 4.65.6 1.65.5 3.05-.2 2.95 9.3 7.1 4.8 2.05 9.6 3.55l43.55-19.25-3.9-18.5q-7.85-51.6-16.05-108.95-16.3-114.65-17.85-143.1-.95-20.35-1.3-27.45-.55-11.4-1.45-16-1-5.45-3.4-7.45-2.2-1.85-7.2-1.85-11.75 0-21.4 7.4z" id="T"/><path fill="url(#n)" d="M1681.8 2338.5q-12.15 9.35-17.2 28.65-4.8 18.4 4.75 126.85 7.65 87.15 13.95 131.35 2.9 20.3 6.25 29.95.8 2.25 1.85 4.65.6 1.65.5 3.05-.2 2.95 9.3 7.1 4.8 2.05 9.6 3.55l43.55-19.25-3.9-18.5q-7.85-51.6-16.05-108.95-16.3-114.65-17.85-143.1-.95-20.35-1.3-27.45-.55-11.4-1.45-16-1-5.45-3.4-7.45-2.2-1.85-7.2-1.85-11.75 0-21.4 7.4z" id="U"/><path fill="url(#o)" d="M1667.4 2345.45q3.9-7.15.3-12.6-3.15-4.8-9.5-5.6-4.1-1-6.9-1.3-5.15-.55-10.15 1.55-14.7 6.2-33.1 36.35-11.4 18.7-19.6 44.35-8.9 28.1-12.4 59.9-8.25 75.7 15.5 151.65l19.75 34.65 33.7 8.6 30.25-3.8 9.7-11.6-1.65-22.25q-7.3-33-14.55-73.9-14.5-81.8-14.25-121.25.25-41.65 4.5-62.15 2.35-11.35 8.4-22.6z" id="V"/><path fill="url(#p)" d="M1667.4 2345.45q3.9-7.15.3-12.6-3.15-4.8-9.5-5.6-4.1-1-6.9-1.3-5.15-.55-10.15 1.55-14.7 6.2-33.1 36.35-11.4 18.7-19.6 44.35-8.9 28.1-12.4 59.9-8.25 75.7 15.5 151.65l19.75 34.65 33.7 8.6 30.25-3.8 9.7-11.6-1.65-22.25q-7.3-33-14.55-73.9-14.5-81.8-14.25-121.25.25-41.65 4.5-62.15 2.35-11.35 8.4-22.6z" id="W"/><path fill="url(#q)" d="M1591 2372.6q6.15-12.2 15.45-25.35 9.05-12.9 10.65-16.15.9-1.95 1.05-3.7-31.75 8.15-48.15 16.4-28.05 14.2-50.15 41.9-37.8 47.4-13.85 126.95 8.5 28.15 24.8 60.2 8.95 17.65 24.6 43.95.85 1.25 1.65 2.75l4.85 7.8q6.3 10.05 17 19.35 3.6 2.9 7.5 5.15l7.65-4.25 11.05-4.1-13.55-23.75q-8.5-18.85-16.25-45.9-15.4-54.15-11.35-95.25 6.45-65.2 27.05-106z" id="X"/><path fill="url(#r)" d="M1591 2372.6q6.15-12.2 15.45-25.35 9.05-12.9 10.65-16.15.9-1.95 1.05-3.7-31.75 8.15-48.15 16.4-28.05 14.2-50.15 41.9-37.8 47.4-13.85 126.95 8.5 28.15 24.8 60.2 8.95 17.65 24.6 43.95.85 1.25 1.65 2.75l4.85 7.8q6.3 10.05 17 19.35 3.6 2.9 7.5 5.15l7.65-4.25 11.05-4.1-13.55-23.75q-8.5-18.85-16.25-45.9-15.4-54.15-11.35-95.25 6.45-65.2 27.05-106z" id="Y"/><path fill="url(#s)" d="M1756.35 2655.6q-5.6-7.8-5.9-19.05-1.1 8.05-6.85 13.95-8.6 8.85-26.2 11.1-18.7 2.4-27.55-10.65-5.65-8.4-6.45-21.3-.45 14.85-12.7 19.45-9.15 3.45-33.1 2.7-18.5-.55-34.1-16.6-4.9-5.05-8.9-11.05l-3.05-4.95q8.75 19.8-1.6 23.5-6.1 2.15-16.7-1.3 2.4 2.45 5.65 5.3 8.15 6.5 16.75 9.3 4.3 1.4 6.95 1.5 2.9 4.25 8.2 7.9 3.55 2.45 10.15 5.8 4.95 2.15 11.5 3.55 9 2 9.05 2 10.65 3.15 28.35-1.55 8.85-2.35 15.55-5.35l1.15 2.35q1.8 2.75 4.8 4.9 9.55 6.85 27.8 4.9 18.25-2 27.05-4.9 4.4-1.45 5.15-2.5l6.05 2.4q9.45 2.75 26.15 4.45 16.7 1.75 27.6-4.65 3.4-2 5.8-4.55l1.75-2.2q24.3 6.2 40.9.15 8.3-3 11.7-7.3l2.1.15q2.7.05 5.75-.45 9.85-1.65 19.9-8.25-13.3 1-14.3-15.05-.7-10.85 4.05-27.55-7.75 21.75-12.75 30.05-11.05 18.4-26.95 19.8-17.65 1.55-22.3-11.1-2.9-7.85-.55-19.1-4.05 14.65-9.45 22.05-11.2 15.15-32 14.7-19.75-.45-28.45-12.55z" id="Z"/><path fill="url(#t)" d="M1747.3 2218q9.8 3.85 15.3 8.55l22.8 5.8.45-1.35q-10-8.1-24.95-14.2-29.85-12.15-54.5-1.95 21.35-4.5 40.9 3.15z" id="aa"/><path fill="url(#u)" d="M1762.7 2252.35q8.8-.05 11.2-2.5 2.45-2.45 7.45-10.9l4.5-7.95-23.25-4.45-8.25 25.3 8.35.5z" id="ab"/><path fill="url(#v)" d="M1906.85 2419.8q2.15-7.75 1.95-16.75l-.7-7.45q-24.2 9.2-48.85 18.25-49.2 18.05-51.25 17.25l3.4 3.2q4.6 3.8 10.9 6.75 20 9.35 48.75 6.45 28.75-2.9 35.8-27.7z" id="ac"/><path fill="url(#w)" d="M1767.3 2431.85l1.1-2.6-138.9-51.3 4.65 12.5q6.25 14.9 14.45 26.95 26.15 38.65 61.65 34.55 35.55-4.1 50.4-13.8 4.65-3.05 6.65-6.3z" id="ad"/><path fill="url(#x)" d="M1831.7 2478.45l-35.2-30.45-22.6 40.35 57.8-9.9z" id="ae"/><path fill="url(#y)" d="M1839.3 2509.45l-53 40.95-40.15-47.6-68.95 42.9-72.15-80.8 52.35 140.3 88.75-35.5 57.9 35.5 41.4-42.8 48.2 13.65 26.6-89.8-53.8 46.6-27.15-23.4z" id="af"/><path fill="url(#z)" d="M1796.5 2448l-4.3 7.65 25.35 25.2 14.15-2.4-35.2-30.45z" id="ag"/><path fill="url(#A)" d="M1908.8 2403.05l-.7-7.45-13 4.9q2.5 16.85-5.5 28.55-12.65 18.55-49.45 17.55 14.4 2.6 30.9.9 28.75-2.9 35.8-27.7 2.15-7.75 1.95-16.75z" id="ah"/><path fill="url(#B)" d="M1767.3 2431.85l1.1-2.6-14.05-5.2q-3.9 5.45-11.3 9.8-9.5 5.65-23.3 8.45-13.25 2.75-29.25.65-13.9-1.85-25.65-6.55 20.65 18.35 45.4 15.55 35.55-4.1 50.4-13.8 4.65-3.05 6.65-6.3z" id="ai"/><path fill="url(#C)" d="M1902.75 2501.45l-21.15 65-52.15-9.9-31.35 40-55.1-38.75-84.75 37.05-43-118.55-10.2-11.4 52.35 140.3 88.75-35.5 57.9 35.5 41.4-42.8 48.2 13.65 26.6-89.8-17.5 15.2z" id="aj"/><path fill="url(#D)" d="M1839.3 2509.45l-3.1 2.4 8.4 11.1 21.85 9.9-27.15-23.4z" id="ak"/><path fill="url(#E)" d="M1746.15 2502.8l-6.05 3.75 24.85 31.05 21.35 12.8-40.15-47.6z" id="al"/><path fill="url(#F)" d="M1663.05 2538.45l14.15 7.25-72.15-80.8 58 73.55z" id="am"/></defs><use xlink:href="#G"/><use xlink:href="#H" transform="matrix(.55984 0 0 .55984 -833.77 -1184.52)"/><use xlink:href="#I" transform="matrix(.55984 0 0 .55984 -833.77 -1184.52)"/><use xlink:href="#J" transform="matrix(.55984 0 0 .55984 -833.77 -1184.52)"/><use xlink:href="#K" transform="matrix(.55984 0 0 .55984 -833.77 -1184.52)"/><use xlink:href="#L" transform="matrix(.55984 0 0 .55984 -833.77 -1184.52)"/><use xlink:href="#M" transform="matrix(.55984 0 0 .55984 -833.77 -1184.52)"/><use xlink:href="#N" transform="matrix(.55984 0 0 .55984 -833.77 -1184.52)"/><use xlink:href="#O" transform="matrix(.55984 0 0 .55984 -833.77 -1184.52)"/><use xlink:href="#P" transform="matrix(.55984 0 0 .55984 -833.77 -1184.52)"/><use xlink:href="#Q" transform="matrix(.55984 0 0 .55984 -833.77 -1184.52)"/><use xlink:href="#R" transform="matrix(.55984 0 0 .55984 -833.77 -1184.52)"/><use xlink:href="#S" transform="matrix(.55984 0 0 .55984 -833.77 -1184.52)"/><use xlink:href="#T" transform="matrix(.55984 0 0 .55984 -833.77 -1184.52)"/><use xlink:href="#U" transform="matrix(.55984 0 0 .55984 -833.77 -1184.52)"/><use xlink:href="#V" transform="matrix(.55984 0 0 .55984 -833.77 -1184.52)"/><use xlink:href="#W" transform="matrix(.55984 0 0 .55984 -833.77 -1184.52)"/><use xlink:href="#X" transform="matrix(.55984 0 0 .55984 -833.77 -1184.52)"/><use xlink:href="#Y" transform="matrix(.55984 0 0 .55984 -833.77 -1184.52)"/><use xlink:href="#Z" transform="matrix(.55984 0 0 .55984 -833.77 -1184.52)"/><use xlink:href="#aa" transform="matrix(.55984 0 0 .55984 -833.77 -1184.52)"/><use xlink:href="#ab" transform="matrix(.55984 0 0 .55984 -833.77 -1184.52)"/><use xlink:href="#ac" transform="matrix(.55984 0 0 .55984 -833.77 -1184.52)"/><use xlink:href="#ad" transform="matrix(.55984 0 0 .55984 -833.77 -1184.52)"/><use xlink:href="#ae" transform="matrix(.55984 0 0 .55984 -833.77 -1184.52)"/><use xlink:href="#af" transform="matrix(.55984 0 0 .55984 -833.77 -1184.52)"/><use xlink:href="#ag" transform="matrix(.55984 0 0 .55984 -833.77 -1184.52)"/><use xlink:href="#ah" transform="matrix(.55984 0 0 .55984 -833.77 -1184.52)"/><use xlink:href="#ai" transform="matrix(.55984 0 0 .55984 -833.77 -1184.52)"/><use xlink:href="#aj" transform="matrix(.55984 0 0 .55984 -833.77 -1184.52)"/><use xlink:href="#ak" transform="matrix(.55984 0 0 .55984 -833.77 -1184.52)"/><use xlink:href="#al" transform="matrix(.55984 0 0 .55984 -833.77 -1184.52)"/><use xlink:href="#am" transform="matrix(.55984 0 0 .55984 -833.77 -1184.52)"/></svg>