<svg xmlns="http://www.w3.org/2000/svg" xmlns:xlink="http://www.w3.org/1999/xlink" preserveAspectRatio="none" width="284" height="320"><defs><linearGradient id="a" gradientUnits="userSpaceOnUse" x1="912.688" y1="907.15" x2="1204.813" y2="907.15" spreadMethod="pad"><stop offset="0%" stop-color="#B96E2E"/><stop offset="8.235%" stop-color="#C1732F"/><stop offset="34.902%" stop-color="#D77F32"/><stop offset="49.804%" stop-color="#E08333"/><stop offset="100%" stop-color="#B96E2E"/></linearGradient><linearGradient id="b" gradientUnits="userSpaceOnUse" x1="1048.5" y1="901.9" x2="1048.5" y2="1260" spreadMethod="pad"><stop offset="0%" stop-color="#FED090"/><stop offset="1.961%" stop-color="#FEC77E"/><stop offset="5.098%" stop-color="#FCB862"/><stop offset="8.235%" stop-color="#FBAD4B"/><stop offset="11.373%" stop-color="#FAA63C"/><stop offset="14.51%" stop-color="#F9A135"/><stop offset="17.647%" stop-color="#F9A033"/><stop offset="65.098%" stop-color="#E77035"/><stop offset="72.157%" stop-color="#E06D35"/><stop offset="79.608%" stop-color="#CF6536"/><stop offset="87.059%" stop-color="#B55835"/><stop offset="94.51%" stop-color="#954933"/><stop offset="100%" stop-color="#7C3D30"/></linearGradient><linearGradient id="c" gradientUnits="userSpaceOnUse" x1="905" y1="905.375" x2="905" y2="1242.625" spreadMethod="pad"><stop offset="0%" stop-color="#FFECB4"/><stop offset=".784%" stop-color="#FFE5A6"/><stop offset="3.922%" stop-color="#FFD282"/><stop offset="6.667%" stop-color="#FEC363"/><stop offset="9.412%" stop-color="#FCB74B"/><stop offset="12.157%" stop-color="#FBAF3C"/><stop offset="14.902%" stop-color="#FBAA34"/><stop offset="17.647%" stop-color="#FAA832"/><stop offset="65.098%" stop-color="#ED7C37"/><stop offset="71.765%" stop-color="#E67837"/><stop offset="78.431%" stop-color="#D66E37"/><stop offset="85.49%" stop-color="#BE6136"/><stop offset="92.941%" stop-color="#A05034"/><stop offset="92.941%" stop-color="#A05034" stop-opacity="0"/><stop offset="100%" stop-opacity="0"/></linearGradient><linearGradient id="d" gradientUnits="userSpaceOnUse" x1="905" y1="905.375" x2="905" y2="1242.625" spreadMethod="pad"><stop offset="0%" stop-opacity="0"/><stop offset="92.941%" stop-color="#A05034" stop-opacity="0"/><stop offset="92.941%" stop-color="#A05034"/><stop offset="100%" stop-color="#7D3E30"/><stop offset="100%" stop-color="#7C3D30"/></linearGradient><linearGradient id="e" gradientUnits="userSpaceOnUse" x1="850.25" y1="906.6" x2="850.25" y2="1235.4" spreadMethod="pad"><stop offset="0%" stop-color="#FFECB4"/><stop offset=".784%" stop-color="#FFE5A6"/><stop offset="3.922%" stop-color="#FFD282"/><stop offset="6.667%" stop-color="#FEC363"/><stop offset="9.412%" stop-color="#FCB74B"/><stop offset="12.157%" stop-color="#FBAF3C"/><stop offset="14.902%" stop-color="#FBAA34"/><stop offset="17.647%" stop-color="#FAA832"/><stop offset="65.098%" stop-color="#ED7C37"/><stop offset="71.765%" stop-color="#E67837"/><stop offset="78.431%" stop-color="#D66E37"/><stop offset="85.49%" stop-color="#BE6136"/><stop offset="92.941%" stop-color="#A05034"/><stop offset="92.941%" stop-color="#A05034" stop-opacity="0"/><stop offset="100%" stop-opacity="0"/></linearGradient><linearGradient id="f" gradientUnits="userSpaceOnUse" x1="850.25" y1="906.6" x2="850.25" y2="1235.4" spreadMethod="pad"><stop offset="0%" stop-opacity="0"/><stop offset="92.941%" stop-color="#A05034" stop-opacity="0"/><stop offset="92.941%" stop-color="#A05034"/><stop offset="100%" stop-color="#7D3E30"/><stop offset="100%" stop-color="#7C3D30"/></linearGradient><linearGradient id="g" gradientUnits="userSpaceOnUse" x1="1027.55" y1="728.075" x2="1027.55" y2="847.225" spreadMethod="pad"><stop offset="3.137%" stop-color="#8B7045"/><stop offset="100%" stop-color="#C79F53"/></linearGradient><linearGradient id="h" gradientUnits="userSpaceOnUse" x1="987.1" y1="769.137" x2="997.9" y2="847.663" spreadMethod="pad"><stop offset="54.118%" stop-color="#C79F53"/><stop offset="62.745%" stop-color="#C9A156"/><stop offset="71.765%" stop-color="#CFA75E"/><stop offset="81.176%" stop-color="#D9B36D"/><stop offset="90.588%" stop-color="#E8C582"/><stop offset="100%" stop-color="#FFDEA0"/><stop offset="100%" stop-color="#FFDFA1"/></linearGradient><linearGradient id="i" gradientUnits="userSpaceOnUse" x1="971.6" y1="919.325" x2="971.6" y2="1247.075" spreadMethod="pad"><stop offset="0%" stop-color="#FFECB4"/><stop offset=".784%" stop-color="#FFE5A6"/><stop offset="3.922%" stop-color="#FFD282"/><stop offset="6.667%" stop-color="#FEC363"/><stop offset="9.412%" stop-color="#FCB74B"/><stop offset="12.157%" stop-color="#FBAF3C"/><stop offset="14.902%" stop-color="#FBAA34"/><stop offset="17.647%" stop-color="#FAA832"/><stop offset="65.098%" stop-color="#ED7C37"/><stop offset="71.765%" stop-color="#E67837"/><stop offset="78.431%" stop-color="#D66E37"/><stop offset="85.49%" stop-color="#BE6136"/><stop offset="92.941%" stop-color="#A05034"/><stop offset="92.941%" stop-color="#A05034" stop-opacity="0"/><stop offset="100%" stop-opacity="0"/></linearGradient><linearGradient id="j" gradientUnits="userSpaceOnUse" x1="971.6" y1="919.325" x2="971.6" y2="1247.075" spreadMethod="pad"><stop offset="0%" stop-opacity="0"/><stop offset="92.941%" stop-color="#A05034" stop-opacity="0"/><stop offset="92.941%" stop-color="#A05034"/><stop offset="100%" stop-color="#7D3E30"/><stop offset="100%" stop-color="#7C3D30"/></linearGradient><linearGradient id="k" gradientUnits="userSpaceOnUse" x1="957.025" y1="857.663" x2="957.475" y2="846.837" spreadMethod="pad"><stop offset="0%" stop-color="#FDBC56"/><stop offset="20%" stop-color="#FDBF5E"/><stop offset="60.784%" stop-color="#FEC468"/><stop offset="100%" stop-color="#FEC56C"/></linearGradient><linearGradient id="l" gradientUnits="userSpaceOnUse" x1="1046.925" y1="850.613" x2="1045.075" y2="837.087" spreadMethod="pad"><stop offset="0%" stop-color="#FDBC56"/><stop offset="20%" stop-color="#FDBF5E"/><stop offset="60.784%" stop-color="#FEC468"/><stop offset="100%" stop-color="#FEC56C"/></linearGradient><linearGradient id="m" gradientUnits="userSpaceOnUse" x1="1058.15" y1="921.6" x2="1058.15" y2="1242.8" spreadMethod="pad"><stop offset="0%" stop-color="#FFECB4"/><stop offset=".784%" stop-color="#FFE5A6"/><stop offset="3.922%" stop-color="#FFD282"/><stop offset="6.667%" stop-color="#FEC363"/><stop offset="9.412%" stop-color="#FCB74B"/><stop offset="12.157%" stop-color="#FBAF3C"/><stop offset="14.902%" stop-color="#FBAA34"/><stop offset="17.647%" stop-color="#FAA832"/><stop offset="65.098%" stop-color="#ED7C37"/><stop offset="71.765%" stop-color="#E67837"/><stop offset="78.431%" stop-color="#D66E37"/><stop offset="85.49%" stop-color="#BE6136"/><stop offset="92.941%" stop-color="#A05034"/><stop offset="92.941%" stop-color="#A05034" stop-opacity="0"/><stop offset="100%" stop-opacity="0"/></linearGradient><linearGradient id="n" gradientUnits="userSpaceOnUse" x1="1058.15" y1="921.6" x2="1058.15" y2="1242.8" spreadMethod="pad"><stop offset="0%" stop-opacity="0"/><stop offset="92.941%" stop-color="#A05034" stop-opacity="0"/><stop offset="92.941%" stop-color="#A05034"/><stop offset="100%" stop-color="#7D3E30"/><stop offset="100%" stop-color="#7C3D30"/></linearGradient><linearGradient id="o" gradientUnits="userSpaceOnUse" x1="1134.35" y1="836.387" x2="1128.05" y2="828.712" spreadMethod="pad"><stop offset="0%" stop-color="#FDBC56"/><stop offset="20%" stop-color="#FDBF5E"/><stop offset="60.784%" stop-color="#FEC468"/><stop offset="100%" stop-color="#FEC56C"/></linearGradient><linearGradient id="p" gradientUnits="userSpaceOnUse" x1="1163.05" y1="920.088" x2="1163.05" y2="1243.213" spreadMethod="pad"><stop offset="0%" stop-color="#FFECB4"/><stop offset=".784%" stop-color="#FFE5A6"/><stop offset="3.922%" stop-color="#FFD282"/><stop offset="6.667%" stop-color="#FEC363"/><stop offset="9.412%" stop-color="#FCB74B"/><stop offset="12.157%" stop-color="#FBAF3C"/><stop offset="14.902%" stop-color="#FBAA34"/><stop offset="17.647%" stop-color="#FAA832"/><stop offset="65.098%" stop-color="#ED7C37"/><stop offset="71.765%" stop-color="#E67837"/><stop offset="78.431%" stop-color="#D66E37"/><stop offset="85.49%" stop-color="#BE6136"/><stop offset="92.941%" stop-color="#A05034"/><stop offset="92.941%" stop-color="#A05034" stop-opacity="0"/><stop offset="100%" stop-opacity="0"/></linearGradient><linearGradient id="q" gradientUnits="userSpaceOnUse" x1="1163.05" y1="920.088" x2="1163.05" y2="1243.213" spreadMethod="pad"><stop offset="0%" stop-opacity="0"/><stop offset="92.941%" stop-color="#A05034" stop-opacity="0"/><stop offset="92.941%" stop-color="#A05034"/><stop offset="100%" stop-color="#7D3E30"/><stop offset="100%" stop-color="#7C3D30"/></linearGradient><linearGradient id="r" gradientUnits="userSpaceOnUse" x1="1179.637" y1="823.775" x2="1139.563" y2="815.225" spreadMethod="pad"><stop offset="0%" stop-color="#FDBC56"/><stop offset="20%" stop-color="#FDBF5E"/><stop offset="60.784%" stop-color="#FEC468"/><stop offset="100%" stop-color="#FEC56C"/></linearGradient><linearGradient id="s" gradientUnits="userSpaceOnUse" x1="1048.1" y1="877.737" x2="1048.1" y2="929.763" spreadMethod="pad"><stop offset="0%" stop-color="#B8682F"/><stop offset="11.765%" stop-color="#C17131"/><stop offset="70.588%" stop-color="#E9A348"/><stop offset="100%" stop-color="#FDBC56"/></linearGradient><linearGradient id="t" gradientUnits="userSpaceOnUse" x1="1227.8" y1="910.038" x2="1227.8" y2="1242.363" spreadMethod="pad"><stop offset="0%" stop-color="#FFECB4"/><stop offset=".784%" stop-color="#FFE5A6"/><stop offset="3.922%" stop-color="#FFD282"/><stop offset="6.667%" stop-color="#FEC363"/><stop offset="9.412%" stop-color="#FCB74B"/><stop offset="12.157%" stop-color="#FBAF3C"/><stop offset="14.902%" stop-color="#FBAA34"/><stop offset="17.647%" stop-color="#FAA832"/><stop offset="65.098%" stop-color="#ED7C37"/><stop offset="71.765%" stop-color="#E67837"/><stop offset="78.431%" stop-color="#D66E37"/><stop offset="85.49%" stop-color="#BE6136"/><stop offset="92.941%" stop-color="#A05034"/><stop offset="92.941%" stop-color="#A05034" stop-opacity="0"/><stop offset="100%" stop-opacity="0"/></linearGradient><linearGradient id="u" gradientUnits="userSpaceOnUse" x1="1227.8" y1="910.038" x2="1227.8" y2="1242.363" spreadMethod="pad"><stop offset="0%" stop-opacity="0"/><stop offset="92.941%" stop-color="#A05034" stop-opacity="0"/><stop offset="92.941%" stop-color="#A05034"/><stop offset="100%" stop-color="#7D3E30"/><stop offset="100%" stop-color="#7C3D30"/></linearGradient><linearGradient id="v" gradientUnits="userSpaceOnUse" x1="1044.75" y1="1271.563" x2="1044.75" y2="1221.738" spreadMethod="pad"><stop offset="0%" stop-color="#7C3D30"/><stop offset="100%" stop-color="#8C4334"/></linearGradient><linearGradient id="w" gradientUnits="userSpaceOnUse" x1="1086.6" y1="728.275" x2="1086.6" y2="837.125" spreadMethod="pad"><stop offset="0%" stop-color="#C79F53"/><stop offset="19.216%" stop-color="#C9A156"/><stop offset="38.824%" stop-color="#CFA75E"/><stop offset="59.216%" stop-color="#D9B36D"/><stop offset="79.216%" stop-color="#E8C582"/><stop offset="99.608%" stop-color="#FFDEA0"/><stop offset="100%" stop-color="#FFDFA1"/></linearGradient><linearGradient id="x" gradientUnits="userSpaceOnUse" x1="1031.262" y1="735.663" x2="1033.438" y2="734.538" spreadMethod="pad"><stop offset="0%" stop-color="#E8C482"/><stop offset="100%" stop-color="#F7D697"/></linearGradient><linearGradient id="y" gradientUnits="userSpaceOnUse" x1="1029.05" y1="728.075" x2="1029.05" y2="847.225" spreadMethod="pad"><stop offset="3.137%" stop-color="#8B7045"/><stop offset="100%" stop-color="#C79F53"/></linearGradient><linearGradient id="z" gradientUnits="userSpaceOnUse" x1="1030.313" y1="733.813" x2="1032.488" y2="732.688" spreadMethod="pad"><stop offset="0%" stop-color="#E8C482"/><stop offset="100%" stop-color="#F7D697"/></linearGradient><linearGradient id="A" gradientUnits="userSpaceOnUse" x1="1031.525" y1="733.712" x2="1033.875" y2="732.488" spreadMethod="pad"><stop offset="0%" stop-color="#E8C482"/><stop offset="100%" stop-color="#F7D697"/></linearGradient><linearGradient id="B" gradientUnits="userSpaceOnUse" x1="998.688" y1="999.313" x2="992.513" y2="1048.588" spreadMethod="pad"><stop offset="0%" stop-color="#B8682F"/><stop offset="11.765%" stop-color="#C17131"/><stop offset="70.588%" stop-color="#E9A348"/><stop offset="100%" stop-color="#FDBC56"/></linearGradient><linearGradient id="C" gradientUnits="userSpaceOnUse" x1="1014.05" y1="1013.212" x2="1014.05" y2="1027.388" spreadMethod="pad"><stop offset="0%" stop-color="#B8682F"/><stop offset="11.765%" stop-color="#C17131"/><stop offset="70.588%" stop-color="#E9A348"/><stop offset="100%" stop-color="#FDBC56"/></linearGradient><linearGradient id="D" gradientUnits="userSpaceOnUse" x1="1120.088" y1="1001.288" x2="1131.213" y2="1049.713" spreadMethod="pad"><stop offset="0%" stop-color="#B8682F"/><stop offset="11.765%" stop-color="#C17131"/><stop offset="70.588%" stop-color="#E9A348"/><stop offset="100%" stop-color="#FDBC56"/></linearGradient><linearGradient id="E" gradientUnits="userSpaceOnUse" x1="1150.7" y1="1001.238" x2="1150.7" y2="1034.463" spreadMethod="pad"><stop offset="0%" stop-color="#B8682F"/><stop offset="11.765%" stop-color="#C17131"/><stop offset="70.588%" stop-color="#E9A348"/><stop offset="100%" stop-color="#FDBC56"/></linearGradient><linearGradient id="F" gradientUnits="userSpaceOnUse" x1="1074.05" y1="1070.313" x2="1074.05" y2="1213.088" spreadMethod="pad"><stop offset="0%" stop-color="#492A24"/><stop offset="26.275%" stop-color="#4A2B24"/><stop offset="45.49%" stop-color="#4F2C25"/><stop offset="61.961%" stop-color="#572F27"/><stop offset="77.255%" stop-color="#62342A"/><stop offset="91.373%" stop-color="#70392D"/><stop offset="100%" stop-color="#7C3D30"/></linearGradient><linearGradient id="G" gradientUnits="userSpaceOnUse" x1="1087.65" y1="1167.95" x2="1087.65" y2="1210.45" spreadMethod="pad"><stop offset="0%" stop-color="#B8682F"/><stop offset="11.765%" stop-color="#C17131"/><stop offset="70.588%" stop-color="#E9A348"/><stop offset="100%" stop-color="#FDBC56"/></linearGradient><path fill="#FFF" fill-opacity="0" d="M284 320V0H0v320h284z" id="H"/><path fill="#492A24" d="M1200.65 939.6l12.15-29.6q-13.3-4-36.2-7.5-45.8-6.9-93.65-4.1-11.95-2.4-28-4.2-32.05-3.65-52.5-.7-80 6-93.4 6.6-8.4.35 17.25 37.15 12.8 18.4 27.3 36.7l247.05-34.35z" id="I"/><path fill="url(#a)" d="M1212.8 909.1q-13.3-4-36.2-7.5-45.8-6.9-93.65-4.1-11.95-2.4-28-4.2-32.05-3.65-52.5-.7-80 6-93.4 6.6-2.1.05-2.05 5.7.1 5.45 1.95 9.6 21.5-1.25 91.85-8.45 21.05-3 54 1.2 16.5 2.05 28.8 4.75 39.95-2.35 79.65 2.55 23.85 2.95 46.5 8.45l3.05-13.9z" id="J"/><path fill="#FAA942" d="M1199.3 816.9q-20.3-3.15-42.9-2.5-23.25.65-45.75 5.25-14.85 3.05-34.5 5.25-25.1 2.45-40.85 4-64.85 6.45-138.35 19.6 3.35 8.4 27.7 13.25 21.55 4.35 55.65 5.3 31.45.85 63.7-1.3 32.1-2.2 51.8-6.5 23.1-5.05 62.1-22.55 3.4-1.5 41.4-19.8z" id="K"/><path fill="url(#b)" d="M1212.8 909.1q-9.35 3.05-23.25 5.55-19 3.45-44.1 5.4-21.95 1.75-58.6 2-40.95.3-77.35-1.55-96.4-4.95-100.45-21.3l-13.45.55q-25.85 1.15-45.4 16.75-18.05 14.4-29.55 40.2-10.75 24.2-14.7 55.9-3.75 30.5-.8 63.85 2.9 33.1 12 63.95 9.35 31.7 23.85 56.3 15.4 26 34.75 40.85 20.85 16 44.6 17.65 81.95 5.7 178.2 3.45 48.15-1.15 79.85-3.45 11.75-.7 20.85-4.6 11.7-5.05 22.3-16.5 25.65-27.7 50.4-99.35 26.7-77.3 19.8-132.8-6.5-52.75-41.85-76.3-14.7-9.8-37.1-16.55z" id="L"/><path fill="url(#c)" d="M877.15 913.5q-6.85 8.95-13.5 28.95-8.9 26.75-11.5 59.3-7.5 93.15 38.2 199.65l5.15 34.4 47.6 13.2 15.85-15.25-8.15-22.6q-11.95-24.65-23.4-61.7-22.95-74.15-20.45-136.15 2.25-55 9.55-89.45 2.65-12.5 2.75-13.5.15-3.1-2.85-4.45-9.95-4.4-18-4.15-12.6.45-21.25 11.75z" id="M"/><path fill="url(#d)" d="M877.15 913.5q-6.85 8.95-13.5 28.95-8.9 26.75-11.5 59.3-7.5 93.15 38.2 199.65l5.15 34.4 47.6 13.2 15.85-15.25-8.15-22.6q-11.95-24.65-23.4-61.7-22.95-74.15-20.45-136.15 2.25-55 9.55-89.45 2.65-12.5 2.75-13.5.15-3.1-2.85-4.45-9.95-4.4-18-4.15-12.6.45-21.25 11.75z" id="N"/><path fill="url(#e)" d="M875.25 903.25q-36.95 11.4-55.85 56.5-17.2 40.95-15.4 98.2 1.8 55.75 20.65 104.6 20 51.75 52.1 75.75l10.15-1.9 9.75-14.95-6.3-20.05q-12.9-16.65-25.15-45.55-24.55-57.75-21.3-119.05 2.8-53.35 10.6-86.2 7.65-31.85 20.75-47.35z" id="O"/><path fill="url(#f)" d="M875.25 903.25q-36.95 11.4-55.85 56.5-17.2 40.95-15.4 98.2 1.8 55.75 20.65 104.6 20 51.75 52.1 75.75l10.15-1.9 9.75-14.95-6.3-20.05q-12.9-16.65-25.15-45.55-24.55-57.75-21.3-119.05 2.8-53.35 10.6-86.2 7.65-31.85 20.75-47.35z" id="P"/><path fill="url(#g)" d="M1031.9 730.85l-5.65 7.25q4.2 1.95 8.35 8.55 2.75 4.35 5 9.9l.9 2.4v.05q.9 2.6 1.5 5.8 3.5 20.15-20.4 39.15-16.6 13.15-35.25 19.45-8.95 3.05-27.75 13.35l-16.95 9.65q9.05-2.3 21.4-4 6.2-.9 10.6-1.3 15.2-.25 21.45 3.5 3.15 1.9 3.2 3.8 6.4-7.35 33.05-13.15 13.3-2.9 25.35-4.35 18.45-2.7 31.95 2.05 6.7 2.4 9.75 5.3-1.05-5.2 6.85-8.6 4-1.7 8.15-2.4-19.3-2.4-30.05-14.55-11.95-13.5-18.2-43.55-3.45-16.75-13.05-26.75-8.15-8.45-20.2-11.55z" id="Q"/><path fill="url(#h)" d="M1041.65 763.2l.35 1.6q3.5 20.15-20.4 39.15-16.6 13.15-35.25 19.45-8.95 3.05-27.75 13.35l-16.95 9.65q9.05-2.3 21.4-4 6.2-.9 10.6-1.3 15.2-.25 21.45 3.5 3.15 1.9 3.2 3.8.35-4.25 2.3-9.2 3.95-9.95 12.1-13.65 4.8-2.15 11.05-10.15 6.05-7.65 11.05-17.65 5.25-10.5 7.25-19.35 2.2-9.85-.35-15.1l-.05-.1z" id="R"/><path fill="url(#i)" d="M1000.1 953.85q.4-16.6 2-33.75-45.3-2.65-69.4-8.4-10.75 5.55-14.55 42.75-3.5 34.15-.25 84.55 3.15 49.95 11.65 95.75 9.1 49.2 21.25 76.4l12.35 34.4 43.15 5.75 20.55-8.6-5.3-33.15q-3.7-18.8-8.05-50.45-8.7-63.3-11.9-127.45-2.3-45.5-1.5-77.8z" id="S"/><path fill="url(#j)" d="M1000.1 953.85q.4-16.6 2-33.75-45.3-2.65-69.4-8.4-10.75 5.55-14.55 42.75-3.5 34.15-.25 84.55 3.15 49.95 11.65 95.75 9.1 49.2 21.25 76.4l12.35 34.4 43.15 5.75 20.55-8.6-5.3-33.15q-3.7-18.8-8.05-50.45-8.7-63.3-11.9-127.45-2.3-45.5-1.5-77.8z" id="T"/><path fill="url(#k)" d="M991.55 850.7q-.3-1.7-1.15-2.05-1.8-.8-7.85-1.45-7.5-.8-15.9-.5-24.25.9-43.4 10.3l-1.1.65q24.5 2.35 69.85-1.15-.2-4.45-.45-5.8z" id="U"/><path fill="url(#l)" d="M1092 840.15q-5.6-6.25-27.95-5.4-20.9.85-40.45 6.75-11.2 3.35-16 6-6 3.3-8.15 8.4 46.2-4 94.8-11.7-1.1-2.85-2.25-4.05z" id="V"/><path fill="url(#m)" d="M1009.55 920.5q-2.4 4.05-3 10.9-.6 6.55.2 17.65 1.15 16.05 4.35 119.75 4.1 104.2 10.45 140.75 6.55 37.55 41.55 43.4 10.95 1.85 23.4.3 6.25-.8 10.3-1.95l9.15-8.6 4.05-31.4q-.3-38.05-.95-81.25-1.3-86.4-3.1-112.2-1.25-18-.05-56 1-32-.85-40.05-49.1 1.05-95.5-1.3z" id="W"/><path fill="url(#n)" d="M1009.55 920.5q-2.4 4.05-3 10.9-.6 6.55.2 17.65 1.15 16.05 4.35 119.75 4.1 104.2 10.45 140.75 6.55 37.55 41.55 43.4 10.95 1.85 23.4.3 6.25-.8 10.3-1.95l9.15-8.6 4.05-31.4q-.3-38.05-.95-81.25-1.3-86.4-3.1-112.2-1.25-18-.05-56 1-32-.85-40.05-49.1 1.05-95.5-1.3z" id="X"/><path fill="url(#o)" d="M1134 836.95q12.95-2.85 24.6-5.95-6.8-1.25-13.85-1-15.15.55-20.75 1.9-9.95 2.4-14.05 9.65 15-2.6 24.05-4.6z" id="Y"/><path fill="url(#p)" d="M1170.6 917.5q-11.1 1.45-25.15 2.55-10.05.85-24.5 1.3-6.4 8.55-6.4 27.7 0 8.45.95 38.4 1.05 32.45 1.25 55.95.75 81.8-6.3 164.65l-4.5 31.75 14.95 11.5 28.1-3.45 19.5-13.2 14.9-33.25q10.6-38.15 20.45-83.5 19.6-90.8 15.65-127-3.5-32.35-18.6-51.8-12.05-15.55-30.3-21.6z" id="Z"/><path fill="url(#q)" d="M1170.6 917.5q-11.1 1.45-25.15 2.55-10.05.85-24.5 1.3-6.4 8.55-6.4 27.7 0 8.45.95 38.4 1.05 32.45 1.25 55.95.75 81.8-6.3 164.65l-4.5 31.75 14.95 11.5 28.1-3.45 19.5-13.2 14.9-33.25q10.6-38.15 20.45-83.5 19.6-90.8 15.65-127-3.5-32.35-18.6-51.8-12.05-15.55-30.3-21.6z" id="aa"/><path fill="url(#r)" d="M1199.3 816.9q-19.95-3.1-42.05-2.5-22.8.55-44.9 4.95 1.25 1.85 7.05 2.4 2.8.3 13.95.5 24 .5 38.65 4.9 17.1-5.3 27.3-10.25z" id="ab"/><path fill="url(#s)" d="M1199.3 816.9q-3.15-.4-14.5 3.9-11.4 4.35-13.9 6.95-2.1 2.2-7.4 2.95l-4.9.3q-10.4 1.6-21.65 3.7-22.55 4.25-27 6.85-4.45 2.65-10.5 2.9l-5.2-.25q-28.6 1.9-60.75 6.1-28.55 3.75-34.05 5.6-3.85 1.3-6.05 1.05l-1.4-.45q-7.4-2-34.15-1.2-24.1.7-35.7 2.35-8.05 1.2-17.45-3.85-2.9-1.6-5.65-3.6l-2.1-1.7 21.6 26.05 5.95 1.55q8.6 1.7 21.45 2.35 41.3 2 110.5-7.55t102.95-17.65q16.9-4.05 19.9-6.2l20-30.15z" id="ac"/><path fill="url(#t)" d="M1212.8 909.1q-10.75 3.5-28.35 6.45 34.8 15.9 40.8 56.45 8.95 60.95-15.55 151.25-12.25 45.2-26.3 78.15l-20.95 54.75q10.25-.55 15.95-.95 11.75-.7 20.85-4.6 11.7-5.05 22.3-16.5 25.65-27.7 50.4-99.35 26.7-77.3 19.8-132.8-6.5-52.75-41.85-76.3-14.7-9.8-37.1-16.55z" id="ad"/><path fill="url(#u)" d="M1212.8 909.1q-10.75 3.5-28.35 6.45 34.8 15.9 40.8 56.45 8.95 60.95-15.55 151.25-12.25 45.2-26.3 78.15l-20.95 54.75q10.25-.55 15.95-.95 11.75-.7 20.85-4.6 11.7-5.05 22.3-16.5 25.65-27.7 50.4-99.35 26.7-77.3 19.8-132.8-6.5-52.75-41.85-76.3-14.7-9.8-37.1-16.55z" id="ae"/><path fill="url(#v)" d="M952.15 1216.2q1.2 6.05.45 10.95-2.25 15.7-22.7 14.3-20.45-1.35-32.05-20.85-3.6-6.1-5.9-13.25l-1.6-5.95.8 7.7q.4 8.7-1.85 13.8-7.1 16.25-37.5-9.95 20.2 26.75 44.85 36.7l8.1 3.55q11.1 4.2 25.9 7.75 47.3 11.3 114.1 11.3 77.45 0 112.5-6.35 19.5-3.55 33.5-9.85 13.6-6.05 24.55-15.85 2.4-2.1 4.5-4.25l.05-.05q9.05-9.3 17.85-23.6-8 7.9-18.15 15.45-20.25 15.1-31 13.7-10.75-1.35-9-20.85.5-6.05 2.25-13.25l1.6-5.95q-4.15 9.5-12.05 19.25-15.75 19.5-34.4 20.95-16.15 1.2-22.7-12.85-4-8.6-3.8-20.7-1.05 11.7-8.7 20.2-12.45 13.8-39.1 13.4-8.65-.45-18.1-4.65-18.9-8.5-23-27.45 1.9 12.2-2 20.95-6.45 14.45-27.4 13.55-5.75-.2-13.8-4.4-16.1-8.45-27.55-28.5l1.35 5.05z" id="af"/><path fill="url(#w)" d="M1030.45 731.2q7.85 3.35 13.4 10.3 8.15 10.2 9.55 26.4 1.8 21.2 11.85 38.9 9.5 16.75 24 26.4 3.95 1.45 6.95 3.4 1.5.95 2.2 1.65 7.2-8.3 26.6-10.45 9.7-1.1 17.95-.55-25.3-3.15-44.85-14.55-27.2-15.9-32.95-43.55-3.6-17.35-13.75-27.45-8.55-8.5-21.1-11.25l.15.75z" id="ag"/><path fill="url(#x)" d="M1026.2 738.05l-.7.9.75-.85-.05-.05z" id="ah"/><path fill="url(#y)" d="M1026.25 738.1l2.1-2.75-2.15 2.7.05.05z" id="ai"/><path fill="url(#z)" d="M1026.25 738.1l2.1-2.75-2.15 2.7.05.05z" id="aj"/><path fill="url(#A)" d="M1024.6 732.8l.15 2.7q.4 2.7 1.5 2.6l5.45-.7q5.5-1 5.6-2.25.15-1.3.1-2.05l-.1-.5q-4.25-1.75-7-2.15-1.75-.2-3.9 1.05l-1.8 1.3z" id="ak"/><path fill="#492A24" d="M1004.45 958.5q-9.6 4.95-13.95 16.8-7.85 21.45-8.95 39.3-1.25 20.2 8.1 20.75l22.55.95q23.4.05 27.7-4.35 2.55-2.6 4.25-13 1.65-10.1 1.7-22.3.05-13.05-1.85-22.35-2.15-10.6-6.35-13.25-1.85-1.1-3.35-1.8.3 3.25-.15 8.35-.2 2.45-1.05 9.05-.95 7.6-10.15 9.9-8.9 2.25-16.1-2.3-4.65-2.9-4.5-12.1.1-5.95 2.1-13.65z" id="al"/><path fill="url(#B)" d="M994 968.15q0 5.15.55 7.4.95 3.65 7.8 7.1 3.4 1.75 6.65 2.75-1.3-.6-2.15-1.15-4.65-2.9-4.5-12.1.1-5.95 2.1-13.65-6.4 3.3-10.45 9.65z" id="am"/><path fill="url(#C)" d="M1034.4 961l-.15 5.25q4 11.3 1.9 33.5-1.85 20.3-5.2 24.5-2.8 3.5-15.55 4.8-8.7.85-16.3.5-2.4-.1-8.2-.75-6.85-.7-8.6-1.25 1.85 7.45 7.35 7.8l22.55.95q23.4.05 27.7-4.35 2.55-2.6 4.25-13 1.65-10.1 1.7-22.3.05-13.05-1.85-22.35-2.15-10.6-6.35-13.25-1.85-1.1-3.35-1.8l.1 1.75z" id="an"/><path fill="#492A24" d="M1140.85 972q2.5 8.55-3.2 16-5.5 7.1-12.35 6.2-5.45-.7-9.85-9.25l-3.35-8.4q-1.3 8.85-1.55 22.4-.3 16.55 7 26.5 9.5 12.95 30.6 12.25 22.55-.7 27.4-18.3 4.5-16.35-6.9-44.55-7.5-18.6-22.9-21.6-9.85-1.95-21.1 2.5 5.7 2.1 10 6.2 4.55 4.4 6.2 10.05z" id="ao"/><path fill="url(#D)" d="M1115.45 984.95l-3.35-8.4q-.9 6.05-1.3 14.3 3.95 2.85 9.6 3.4 2.85.25 4.9-.05-5.45-.7-9.85-9.25z" id="ap"/><path fill="url(#E)" d="M1152.65 967.35q1.45 2.5 4.35 8.15 6.15 10.9 6.95 26.7.8 17.4-6.9 23.6-5.55 4.5-15.2 6.45-8.5 1.65-16 .7 8.8 5.15 22.3 4.75 22.55-.7 27.4-18.3 4.5-16.35-6.9-44.55-7.5-18.6-22.9-21.6-9.85-1.95-21.1 2.5 1.4.55 2.45 1.05 14.3-1.7 20.7 4.05 2.45 2.25 4.85 6.5z" id="aq"/><path fill="url(#F)" d="M1118.15 1077.65q-13.4-6.45-27-6.45-38.2 0-58.25 6.15-32.5 10.05-42.65 38.7-4.05 11.5-2.35 27.1 1.65 14.8 8.2 30.4 6.5 15.55 16.35 28.25 10.3 13.35 22.15 20.75 15.9 7.4 41.3 3.4 12.85-2 23.75-6 22.5-8.6 37.2-21 19.75-16.8 22.9-38.75 2.7-19.05-2.45-36.2-4.75-15.8-15.5-28.15-10.1-11.65-23.65-18.2z" id="ar"/><path fill="url(#G)" d="M1143.7 1107.85q4.7 14.1 4.7 30.15 0 14.95-3.85 25.15-1.3 3.45-3.4 7.15-1.1 1.95-3 5.25l-3.75 5.25q-9.7 11.8-36.95 22.85-25.85 10.55-39.15 9.8-5.3-.3-12.8-.15-6.5.15-9.35-.15-8.8-.85-21.45-8.5 9.2 11.2 19.85 17.9 15.9 7.45 41.3 3.45 12.9-2.05 23.8-6.05 22.5-8.6 37.2-21 19.75-16.8 22.9-38.75 3.25-22.85-4.75-42.75-7.3-18.05-22.3-30.4 6.85 8.25 11 20.8z" id="as"/></defs><use xlink:href="#H"/><use xlink:href="#I" transform="matrix(.50284 0 0 .50284 -385.256 -324.473)"/><use xlink:href="#J" transform="matrix(.50284 0 0 .50284 -385.256 -324.473)"/><use xlink:href="#K" transform="matrix(.50284 0 0 .50284 -385.256 -324.473)"/><use xlink:href="#L" transform="matrix(.50284 0 0 .50284 -385.256 -324.473)"/><use xlink:href="#M" transform="matrix(.50284 0 0 .50284 -385.256 -324.473)"/><use xlink:href="#N" transform="matrix(.50284 0 0 .50284 -385.256 -324.473)"/><use xlink:href="#O" transform="matrix(.50284 0 0 .50284 -385.256 -324.473)"/><use xlink:href="#P" transform="matrix(.50284 0 0 .50284 -385.256 -324.473)"/><use xlink:href="#Q" transform="matrix(.50284 0 0 .50284 -385.256 -324.473)"/><use xlink:href="#R" transform="matrix(.50284 0 0 .50284 -385.256 -324.473)"/><use xlink:href="#S" transform="matrix(.50284 0 0 .50284 -385.256 -324.473)"/><use xlink:href="#T" transform="matrix(.50284 0 0 .50284 -385.256 -324.473)"/><use xlink:href="#U" transform="matrix(.50284 0 0 .50284 -385.256 -324.473)"/><use xlink:href="#V" transform="matrix(.50284 0 0 .50284 -385.256 -324.473)"/><use xlink:href="#W" transform="matrix(.50284 0 0 .50284 -385.256 -324.473)"/><use xlink:href="#X" transform="matrix(.50284 0 0 .50284 -385.256 -324.473)"/><use xlink:href="#Y" transform="matrix(.50284 0 0 .50284 -385.256 -324.473)"/><use xlink:href="#Z" transform="matrix(.50284 0 0 .50284 -385.256 -324.473)"/><use xlink:href="#aa" transform="matrix(.50284 0 0 .50284 -385.256 -324.473)"/><use xlink:href="#ab" transform="matrix(.50284 0 0 .50284 -385.256 -324.473)"/><use xlink:href="#ac" transform="matrix(.50284 0 0 .50284 -385.256 -324.473)"/><use xlink:href="#ad" transform="matrix(.50284 0 0 .50284 -385.256 -324.473)"/><use xlink:href="#ae" transform="matrix(.50284 0 0 .50284 -385.256 -324.473)"/><use xlink:href="#af" transform="matrix(.50284 0 0 .50284 -385.256 -324.473)"/><use xlink:href="#ag" transform="matrix(.50284 0 0 .50284 -385.256 -324.473)"/><use xlink:href="#ah" transform="matrix(.50284 0 0 .50284 -385.256 -324.473)"/><use xlink:href="#ai" transform="matrix(.50284 0 0 .50284 -385.256 -324.473)"/><use xlink:href="#aj" transform="matrix(.50284 0 0 .50284 -385.256 -324.473)"/><use xlink:href="#ak" transform="matrix(.50284 0 0 .50284 -385.256 -324.473)"/><use xlink:href="#al" transform="matrix(.50284 0 0 .50284 -385.256 -324.473)"/><use xlink:href="#am" transform="matrix(.50284 0 0 .50284 -385.256 -324.473)"/><use xlink:href="#an" transform="matrix(.50284 0 0 .50284 -385.256 -324.473)"/><use xlink:href="#ao" transform="matrix(.50284 0 0 .50284 -385.256 -324.473)"/><use xlink:href="#ap" transform="matrix(.50284 0 0 .50284 -385.256 -324.473)"/><use xlink:href="#aq" transform="matrix(.50284 0 0 .50284 -385.256 -324.473)"/><use xlink:href="#ar" transform="matrix(.50284 0 0 .50284 -385.256 -324.473)"/><use xlink:href="#as" transform="matrix(.50284 0 0 .50284 -385.256 -324.473)"/></svg>