<svg xmlns="http://www.w3.org/2000/svg" xmlns:xlink="http://www.w3.org/1999/xlink" preserveAspectRatio="none" width="284" height="320"><defs><linearGradient id="a" gradientUnits="userSpaceOnUse" x1="2446.15" y1="813.575" x2="2462.85" y2="814.925" spreadMethod="pad"><stop offset="0%" stop-color="#E8C482"/><stop offset="100%" stop-color="#F7D697"/></linearGradient><linearGradient id="b" gradientUnits="userSpaceOnUse" x1="2451.4" y1="1274.5" x2="2451.4" y2="888.4" spreadMethod="pad"><stop offset="0%" stop-color="#FED090"/><stop offset="1.961%" stop-color="#FEC77E"/><stop offset="5.098%" stop-color="#FCB862"/><stop offset="8.235%" stop-color="#FBAD4B"/><stop offset="11.373%" stop-color="#FAA63C"/><stop offset="14.51%" stop-color="#F9A135"/><stop offset="17.647%" stop-color="#F9A033"/><stop offset="65.098%" stop-color="#E77035"/><stop offset="72.157%" stop-color="#E06D35"/><stop offset="79.608%" stop-color="#CF6536"/><stop offset="87.059%" stop-color="#B55835"/><stop offset="94.51%" stop-color="#954933"/><stop offset="100%" stop-color="#7C3D30"/></linearGradient><linearGradient id="c" gradientUnits="userSpaceOnUse" x1="2287.65" y1="1261.4" x2="2287.65" y2="893.5" spreadMethod="pad"><stop offset="0%" stop-color="#FFECB4"/><stop offset=".784%" stop-color="#FFE5A6"/><stop offset="3.922%" stop-color="#FFD282"/><stop offset="6.667%" stop-color="#FEC363"/><stop offset="9.412%" stop-color="#FCB74B"/><stop offset="12.157%" stop-color="#FBAF3C"/><stop offset="14.902%" stop-color="#FBAA34"/><stop offset="17.647%" stop-color="#FAA832"/><stop offset="65.098%" stop-color="#ED7C37"/><stop offset="71.765%" stop-color="#E67837"/><stop offset="78.431%" stop-color="#D66E37"/><stop offset="85.49%" stop-color="#BE6136"/><stop offset="92.941%" stop-color="#A05034"/><stop offset="92.941%" stop-color="#A05034" stop-opacity="0"/><stop offset="100%" stop-opacity="0"/></linearGradient><linearGradient id="d" gradientUnits="userSpaceOnUse" x1="2287.65" y1="1261.4" x2="2287.65" y2="893.5" spreadMethod="pad"><stop offset="0%" stop-opacity="0"/><stop offset="92.941%" stop-color="#A05034" stop-opacity="0"/><stop offset="92.941%" stop-color="#A05034"/><stop offset="100%" stop-color="#7D3E30"/><stop offset="100%" stop-color="#7C3D30"/></linearGradient><linearGradient id="e" gradientUnits="userSpaceOnUse" x1="2335.05" y1="1261.4" x2="2335.05" y2="893.5" spreadMethod="pad"><stop offset="0%" stop-color="#FFECB4"/><stop offset=".784%" stop-color="#FFE5A6"/><stop offset="3.922%" stop-color="#FFD282"/><stop offset="6.667%" stop-color="#FEC363"/><stop offset="9.412%" stop-color="#FCB74B"/><stop offset="12.157%" stop-color="#FBAF3C"/><stop offset="14.902%" stop-color="#FBAA34"/><stop offset="17.647%" stop-color="#FAA832"/><stop offset="65.098%" stop-color="#ED7C37"/><stop offset="71.765%" stop-color="#E67837"/><stop offset="78.431%" stop-color="#D66E37"/><stop offset="85.49%" stop-color="#BE6136"/><stop offset="92.941%" stop-color="#A05034"/><stop offset="92.941%" stop-color="#A05034" stop-opacity="0"/><stop offset="100%" stop-opacity="0"/></linearGradient><linearGradient id="f" gradientUnits="userSpaceOnUse" x1="2335.05" y1="1261.4" x2="2335.05" y2="893.5" spreadMethod="pad"><stop offset="0%" stop-opacity="0"/><stop offset="92.941%" stop-color="#A05034" stop-opacity="0"/><stop offset="92.941%" stop-color="#A05034"/><stop offset="100%" stop-color="#7D3E30"/><stop offset="100%" stop-color="#7C3D30"/></linearGradient><linearGradient id="g" gradientUnits="userSpaceOnUse" x1="2441.6" y1="1261.4" x2="2441.6" y2="893.5" spreadMethod="pad"><stop offset="0%" stop-color="#FFECB4"/><stop offset=".784%" stop-color="#FFE5A6"/><stop offset="3.922%" stop-color="#FFD282"/><stop offset="6.667%" stop-color="#FEC363"/><stop offset="9.412%" stop-color="#FCB74B"/><stop offset="12.157%" stop-color="#FBAF3C"/><stop offset="14.902%" stop-color="#FBAA34"/><stop offset="17.647%" stop-color="#FAA832"/><stop offset="65.098%" stop-color="#ED7C37"/><stop offset="71.765%" stop-color="#E67837"/><stop offset="78.431%" stop-color="#D66E37"/><stop offset="85.49%" stop-color="#BE6136"/><stop offset="92.941%" stop-color="#A05034"/><stop offset="92.941%" stop-color="#A05034" stop-opacity="0"/><stop offset="100%" stop-opacity="0"/></linearGradient><linearGradient id="h" gradientUnits="userSpaceOnUse" x1="2441.6" y1="1261.4" x2="2441.6" y2="893.5" spreadMethod="pad"><stop offset="0%" stop-opacity="0"/><stop offset="92.941%" stop-color="#A05034" stop-opacity="0"/><stop offset="92.941%" stop-color="#A05034"/><stop offset="100%" stop-color="#7D3E30"/><stop offset="100%" stop-color="#7C3D30"/></linearGradient><linearGradient id="i" gradientUnits="userSpaceOnUse" x1="2529.5" y1="1261.438" x2="2529.5" y2="897.563" spreadMethod="pad"><stop offset="0%" stop-color="#FFECB4"/><stop offset=".784%" stop-color="#FFE5A6"/><stop offset="3.922%" stop-color="#FFD282"/><stop offset="6.667%" stop-color="#FEC363"/><stop offset="9.412%" stop-color="#FCB74B"/><stop offset="12.157%" stop-color="#FBAF3C"/><stop offset="14.902%" stop-color="#FBAA34"/><stop offset="17.647%" stop-color="#FAA832"/><stop offset="65.098%" stop-color="#ED7C37"/><stop offset="71.765%" stop-color="#E67837"/><stop offset="78.431%" stop-color="#D66E37"/><stop offset="85.49%" stop-color="#BE6136"/><stop offset="92.941%" stop-color="#A05034"/><stop offset="92.941%" stop-color="#A05034" stop-opacity="0"/><stop offset="100%" stop-opacity="0"/></linearGradient><linearGradient id="j" gradientUnits="userSpaceOnUse" x1="2529.5" y1="1261.438" x2="2529.5" y2="897.563" spreadMethod="pad"><stop offset="0%" stop-opacity="0"/><stop offset="92.941%" stop-color="#A05034" stop-opacity="0"/><stop offset="92.941%" stop-color="#A05034"/><stop offset="100%" stop-color="#7D3E30"/><stop offset="100%" stop-color="#7C3D30"/></linearGradient><linearGradient id="k" gradientUnits="userSpaceOnUse" x1="2597.1" y1="1261.4" x2="2597.1" y2="893.5" spreadMethod="pad"><stop offset="0%" stop-color="#FFECB4"/><stop offset=".784%" stop-color="#FFE5A6"/><stop offset="3.922%" stop-color="#FFD282"/><stop offset="6.667%" stop-color="#FEC363"/><stop offset="9.412%" stop-color="#FCB74B"/><stop offset="12.157%" stop-color="#FBAF3C"/><stop offset="14.902%" stop-color="#FBAA34"/><stop offset="17.647%" stop-color="#FAA832"/><stop offset="65.098%" stop-color="#ED7C37"/><stop offset="71.765%" stop-color="#E67837"/><stop offset="78.431%" stop-color="#D66E37"/><stop offset="85.49%" stop-color="#BE6136"/><stop offset="92.941%" stop-color="#A05034"/><stop offset="92.941%" stop-color="#A05034" stop-opacity="0"/><stop offset="100%" stop-opacity="0"/></linearGradient><linearGradient id="l" gradientUnits="userSpaceOnUse" x1="2597.1" y1="1261.4" x2="2597.1" y2="893.5" spreadMethod="pad"><stop offset="0%" stop-opacity="0"/><stop offset="92.941%" stop-color="#A05034" stop-opacity="0"/><stop offset="92.941%" stop-color="#A05034"/><stop offset="100%" stop-color="#7D3E30"/><stop offset="100%" stop-color="#7C3D30"/></linearGradient><linearGradient id="m" gradientUnits="userSpaceOnUse" x1="2652.7" y1="1261.4" x2="2652.7" y2="893.5" spreadMethod="pad"><stop offset="0%" stop-color="#FFECB4"/><stop offset=".784%" stop-color="#FFE5A6"/><stop offset="3.922%" stop-color="#FFD282"/><stop offset="6.667%" stop-color="#FEC363"/><stop offset="9.412%" stop-color="#FCB74B"/><stop offset="12.157%" stop-color="#FBAF3C"/><stop offset="14.902%" stop-color="#FBAA34"/><stop offset="17.647%" stop-color="#FAA832"/><stop offset="65.098%" stop-color="#ED7C37"/><stop offset="71.765%" stop-color="#E67837"/><stop offset="78.431%" stop-color="#D66E37"/><stop offset="85.49%" stop-color="#BE6136"/><stop offset="92.941%" stop-color="#A05034"/><stop offset="92.941%" stop-color="#A05034" stop-opacity="0"/><stop offset="100%" stop-opacity="0"/></linearGradient><linearGradient id="n" gradientUnits="userSpaceOnUse" x1="2652.7" y1="1261.4" x2="2652.7" y2="893.5" spreadMethod="pad"><stop offset="0%" stop-opacity="0"/><stop offset="92.941%" stop-color="#A05034" stop-opacity="0"/><stop offset="92.941%" stop-color="#A05034"/><stop offset="100%" stop-color="#7D3E30"/><stop offset="100%" stop-color="#7C3D30"/></linearGradient><linearGradient id="o" gradientUnits="userSpaceOnUse" x1="2455.2" y1="1229.25" x2="2455.2" y2="1273.15" spreadMethod="pad"><stop offset="0%" stop-color="#7C3D30"/><stop offset="100%" stop-color="#8C4334"/></linearGradient><linearGradient id="p" gradientUnits="userSpaceOnUse" x1="2499.15" y1="805.788" x2="2499.15" y2="896.712" spreadMethod="pad"><stop offset="0%" stop-color="#C79F53"/><stop offset="19.216%" stop-color="#C9A156"/><stop offset="38.824%" stop-color="#CFA75E"/><stop offset="59.216%" stop-color="#D9B36D"/><stop offset="79.216%" stop-color="#E8C582"/><stop offset="99.608%" stop-color="#FFDEA0"/><stop offset="100%" stop-color="#FFDFA1"/></linearGradient><linearGradient id="q" gradientUnits="userSpaceOnUse" x1="2430.3" y1="794.412" x2="2430.3" y2="890.188" spreadMethod="pad"><stop offset="0%" stop-color="#554434"/><stop offset="16.863%" stop-color="#6A543B"/><stop offset="35.686%" stop-color="#826842"/><stop offset="45.882%" stop-color="#8B7045"/><stop offset="100%" stop-color="#D7AF66"/></linearGradient><linearGradient id="r" gradientUnits="userSpaceOnUse" x1="2534.463" y1="1049.85" x2="2519.537" y2="1217.75" spreadMethod="pad"><stop offset="0%" stop-color="#492A24"/><stop offset="19.608%" stop-color="#4B2B24"/><stop offset="39.608%" stop-color="#522D26"/><stop offset="60.392%" stop-color="#5C3128"/><stop offset="80.784%" stop-color="#6A372C"/><stop offset="100%" stop-color="#7C3D30"/></linearGradient><linearGradient id="s" gradientUnits="userSpaceOnUse" x1="2383.963" y1="1036.45" x2="2369.037" y2="1204.35" spreadMethod="pad"><stop offset="0%" stop-color="#492A24"/><stop offset="19.608%" stop-color="#4B2B24"/><stop offset="39.608%" stop-color="#522D26"/><stop offset="60.392%" stop-color="#5C3128"/><stop offset="80.784%" stop-color="#6A372C"/><stop offset="100%" stop-color="#7C3D30"/></linearGradient><linearGradient id="t" gradientUnits="userSpaceOnUse" x1="2460.838" y1="1072.487" x2="2460.162" y2="1081.112" spreadMethod="pad"><stop offset="0%" stop-color="#B8682F"/><stop offset="11.765%" stop-color="#C17131"/><stop offset="70.588%" stop-color="#E9A348"/><stop offset="100%" stop-color="#FDBC56"/></linearGradient><linearGradient id="u" gradientUnits="userSpaceOnUse" x1="2462.75" y1="1052.163" x2="2462.75" y2="1160.237" spreadMethod="pad"><stop offset="0%" stop-color="#492A24"/><stop offset="19.608%" stop-color="#4B2B24"/><stop offset="39.608%" stop-color="#522D26"/><stop offset="60.392%" stop-color="#5C3128"/><stop offset="80.784%" stop-color="#6A372C"/><stop offset="100%" stop-color="#7C3D30"/></linearGradient><linearGradient id="v" gradientUnits="userSpaceOnUse" x1="2461.7" y1="1045.075" x2="2461.7" y2="1213.625" spreadMethod="pad"><stop offset="0%" stop-color="#492A24"/><stop offset="19.608%" stop-color="#4B2B24"/><stop offset="39.608%" stop-color="#522D26"/><stop offset="60.392%" stop-color="#5C3128"/><stop offset="80.784%" stop-color="#6A372C"/><stop offset="100%" stop-color="#7C3D30"/></linearGradient><linearGradient id="w" gradientUnits="userSpaceOnUse" x1="2542.775" y1="998.038" x2="2540.125" y2="1006.663" spreadMethod="pad"><stop offset="0%" stop-color="#B8682F"/><stop offset="11.765%" stop-color="#C17131"/><stop offset="70.588%" stop-color="#E9A348"/><stop offset="100%" stop-color="#FDBC56"/></linearGradient><linearGradient id="x" gradientUnits="userSpaceOnUse" x1="2379.662" y1="985.15" x2="2383.638" y2="995.75" spreadMethod="pad"><stop offset="0%" stop-color="#B8682F"/><stop offset="11.765%" stop-color="#C17131"/><stop offset="70.588%" stop-color="#E9A348"/><stop offset="100%" stop-color="#FDBC56"/></linearGradient><linearGradient id="y" gradientUnits="userSpaceOnUse" x1="2311.8" y1="1054.388" x2="2311.8" y2="1168.612" spreadMethod="pad"><stop offset="0%" stop-color="#B8682F"/><stop offset="11.765%" stop-color="#C17131"/><stop offset="70.588%" stop-color="#E9A348"/><stop offset="100%" stop-color="#FDBC56"/></linearGradient><linearGradient id="z" gradientUnits="userSpaceOnUse" x1="2476.25" y1="1054.388" x2="2476.25" y2="1168.612" spreadMethod="pad"><stop offset="0%" stop-color="#B8682F"/><stop offset="11.765%" stop-color="#C17131"/><stop offset="70.588%" stop-color="#E9A348"/><stop offset="100%" stop-color="#FDBC56"/></linearGradient><linearGradient id="A" gradientUnits="userSpaceOnUse" x1="2512.025" y1="1183.238" x2="2509.475" y2="1222.563" spreadMethod="pad"><stop offset="0%" stop-color="#B8682F"/><stop offset="11.765%" stop-color="#C17131"/><stop offset="70.588%" stop-color="#E9A348"/><stop offset="100%" stop-color="#FDBC56"/></linearGradient><linearGradient id="B" gradientUnits="userSpaceOnUse" x1="2391.375" y1="1175.388" x2="2388.825" y2="1214.712" spreadMethod="pad"><stop offset="0%" stop-color="#B8682F"/><stop offset="11.765%" stop-color="#C17131"/><stop offset="70.588%" stop-color="#E9A348"/><stop offset="100%" stop-color="#FDBC56"/></linearGradient><linearGradient id="C" gradientUnits="userSpaceOnUse" x1="2341.55" y1="1235.638" x2="2341.55" y2="1302.462" spreadMethod="pad"><stop offset="0%" stop-color="#AA7039"/><stop offset="100%" stop-color="#DEA962"/></linearGradient><linearGradient id="D" gradientUnits="userSpaceOnUse" x1="2543.15" y1="1235.638" x2="2543.15" y2="1302.462" spreadMethod="pad"><stop offset="0%" stop-color="#AA7039"/><stop offset="100%" stop-color="#DEA962"/></linearGradient><linearGradient id="E" gradientUnits="userSpaceOnUse" x1="2521" y1="1235.638" x2="2521" y2="1302.462" spreadMethod="pad"><stop offset="0%" stop-color="#AA7039"/><stop offset="100%" stop-color="#DEA962"/></linearGradient><linearGradient id="F" gradientUnits="userSpaceOnUse" x1="2444.85" y1="1235.638" x2="2444.85" y2="1302.462" spreadMethod="pad"><stop offset="0%" stop-color="#AA7039"/><stop offset="100%" stop-color="#DEA962"/></linearGradient><path fill="#FFF" fill-opacity="0" d="M284 320V0H0v320h284z" id="G"/><path fill="url(#a)" d="M2455.85 821.05l9.9-13.4q-3.6-2.65-8.45-5.2-9.65-5.15-15.7-4.85-9.45.45-16.1 2.5-8.75 2.75-8.5 7.55.25 4.45 11.25 13.25 5.45 4.35 10.9 7.85l16.7-7.7z" id="H"/><path fill="url(#b)" d="M2652.75 904.15q-19.85-16.8-46.1-18.05-83-3.95-152.3-1.3-30.85 1.4-43.6 1.8-20.95.6-36.65-.5-36.5-2.6-71.55 5.2-34.4 7.7-55.65 22.7-35.9 25.4-42.55 82.25-7 59.85 20.15 143.25 25.1 77.25 51.2 107.1 10.75 12.35 22.65 17.8 9.2 4.2 21.15 4.9l22.2 1.4q28.3 1.55 58.9 2.3 97.7 2.5 180.95-3.7 24.1-1.8 45.3-19 19.65-16 35.25-44.05 14.75-26.5 24.2-60.7 9.25-33.25 12.2-68.95 3-35.95-.85-68.8-4-34.2-14.9-60.3-11.65-27.8-30-43.35z" id="I"/><path fill="url(#c)" d="M2271.9 963.95q6.9-49.8 52.5-65.35 10.7-3.65 31.65-7.15 14.9-2.45 16.3-5.45-36.1-2.3-70.55 5.5-33.9 7.7-54.9 22.5-35.9 25.4-42.55 82.25-7 59.85 20.15 143.25 25.1 77.25 51.2 107.1 10.75 12.35 22.65 17.8 9.2 4.2 21.15 4.9l4.2.3q5.5.4 11.95.75l-21.25-59.05q-14.25-35.55-26.7-84.25-24.9-97.4-15.8-163.1z" id="J"/><path fill="url(#d)" d="M2271.9 963.95q6.9-49.8 52.5-65.35 10.7-3.65 31.65-7.15 14.9-2.45 16.3-5.45-36.1-2.3-70.55 5.5-33.9 7.7-54.9 22.5-35.9 25.4-42.55 82.25-7 59.85 20.15 143.25 25.1 77.25 51.2 107.1 10.75 12.35 22.65 17.8 9.2 4.2 21.15 4.9l4.2.3q5.5.4 11.95.75l-21.25-59.05q-14.25-35.55-26.7-84.25-24.9-97.4-15.8-163.1z" id="K"/><path fill="url(#e)" d="M2341.2 902.15q-22.15 2.35-38.05 18.6-21.1 21.6-25.4 63.6-4 39.05 15.95 136.9 9.95 48.95 20.7 90.05l15.15 35.85 19.8 14.25 28.55 3.7 15.15-12.35-4.55-34.25q-7.2-89.35-6.45-177.55.25-25.45 1.3-60.3.95-32.2.95-41.4 0-28.55-12.8-35.5-5.25-2.8-13.75-2.85-4.55-.05-16.55 1.25z" id="L"/><path fill="url(#f)" d="M2341.2 902.15q-22.15 2.35-38.05 18.6-21.1 21.6-25.4 63.6-4 39.05 15.95 136.9 9.95 48.95 20.7 90.05l15.15 35.85 19.8 14.25 28.55 3.7 15.15-12.35-4.55-34.25q-7.2-89.35-6.45-177.55.25-25.45 1.3-60.3.95-32.2.95-41.4 0-28.55-12.8-35.5-5.25-2.8-13.75-2.85-4.55-.05-16.55 1.25z" id="M"/><path fill="url(#g)" d="M2493.8 939.25q.9-13.35 0-20.7-.9-7.75-4.1-12-3.05-4.05-9.35-6.35-5-1.8-15.7-3.6-20.5-3.45-41.6-1.25-22.6 2.35-27.4 9.9-3.7 5.8-2.7 41.35 1.3 48.45.1 66.85-1.8 27.8-3.15 120.95-.65 46.6-.95 87.6l4.1 33.85 9.3 9.25 10.45 2.1q12.65 1.65 23.8-.3 35.55-6.3 42.15-46.8 6.45-39.4 10.6-151.75 3.3-111.8 4.45-129.1z" id="N"/><path fill="url(#h)" d="M2493.8 939.25q.9-13.35 0-20.7-.9-7.75-4.1-12-3.05-4.05-9.35-6.35-5-1.8-15.7-3.6-20.5-3.45-41.6-1.25-22.6 2.35-27.4 9.9-3.7 5.8-2.7 41.35 1.3 48.45.1 66.85-1.8 27.8-3.15 120.95-.65 46.6-.95 87.6l4.1 33.85 9.3 9.25 10.45 2.1q12.65 1.65 23.8-.3 35.55-6.3 42.15-46.8 6.45-39.4 10.6-151.75 3.3-111.8 4.45-129.1z" id="O"/><path fill="url(#i)" d="M2506.75 896.7q-6 1.55-7.7 2.7-1.05.7-.75 5.55.25 3.55 1.4 18.25 2.4 40.15-.65 105.1-3.3 69.15-12.1 137.4-4.45 34.1-8.2 54.4l-5.35 35.75 20.85 9.25 43.8-6.2 12.55-37.1q12.5-29.7 21.8-83.6 8.65-50.35 11.75-104.7 3.15-54.95-.7-91.35-4.25-39.65-15.7-43.7-20.55-7.2-45.05-4.6-8.55.9-15.95 2.85z" id="P"/><path fill="url(#j)" d="M2506.75 896.7q-6 1.55-7.7 2.7-1.05.7-.75 5.55.25 3.55 1.4 18.25 2.4 40.15-.65 105.1-3.3 69.15-12.1 137.4-4.45 34.1-8.2 54.4l-5.35 35.75 20.85 9.25 43.8-6.2 12.55-37.1q12.5-29.7 21.8-83.6 8.65-50.35 11.75-104.7 3.15-54.95-.7-91.35-4.25-39.65-15.7-43.7-20.55-7.2-45.05-4.6-8.55.9-15.95 2.85z" id="Q"/><path fill="url(#k)" d="M2639.1 932.1q-6.75-21.55-13.7-31.2-8.8-12.15-21.55-12.6-8.1-.3-18.3 4.4-3.05 1.45-2.85 4.8.05 1.05 2.75 14.55 7.4 37.15 9.65 96.45 2.55 66.85-20.7 146.75-11.65 39.95-23.8 66.55l-8.25 24.4 16.1 16.45 48.3-14.25 5.25-37.1q46.4-114.8 38.8-215.25-2.65-35.1-11.7-63.95z" id="R"/><path fill="url(#l)" d="M2639.1 932.1q-6.75-21.55-13.7-31.2-8.8-12.15-21.55-12.6-8.1-.3-18.3 4.4-3.05 1.45-2.85 4.8.05 1.05 2.75 14.55 7.4 37.15 9.65 96.45 2.55 66.85-20.7 146.75-11.65 39.95-23.8 66.55l-8.25 24.4 16.1 16.45 48.3-14.25 5.25-37.1q46.4-114.8 38.8-215.25-2.65-35.1-11.7-63.95z" id="S"/><path fill="url(#m)" d="M2684.05 950.75q-19.2-48.65-56.75-60.9 13.35 16.7 21.05 51.1 7.95 35.3 10.8 92.9 3.3 66.1-21.6 128.4-12.45 31.15-25.55 49.05l-6.4 21.65 9.9 16.1 10.3 2.05q32.6-25.9 52.9-81.7 19.15-52.65 20.95-112.8 1.8-61.65-15.6-105.85z" id="T"/><path fill="url(#n)" d="M2684.05 950.75q-19.2-48.65-56.75-60.9 13.35 16.7 21.05 51.1 7.95 35.3 10.8 92.9 3.3 66.1-21.6 128.4-12.45 31.15-25.55 49.05l-6.4 21.65 9.9 16.1 10.3 2.05q32.6-25.9 52.9-81.7 19.15-52.65 20.95-112.8 1.8-61.65-15.6-105.85z" id="U"/><path fill="url(#o)" d="M2613.05 1234.5q-2.25-5.5-1.9-14.9l.85-8.3q-1.75 10.2-7.65 20.7-11.8 21-32.55 22.5-20.75 1.5-23.05-15.45-.7-5.3.5-11.8l1.35-5.45q-11.65 21.65-27.95 30.75-5.1 2.85-10.05 4.1l-3.95.65q-21.3 1-27.85-14.6-4-9.45-2.05-22.6-4.15 20.45-23.35 29.6-6 2.85-12.8 4.25l-5.6.8q-27.05.4-39.65-14.45-7.75-9.15-8.85-21.8.2 13.05-3.85 22.35-6.65 15.1-23.05 13.8-18.95-1.55-34.95-22.6-5-6.55-9.15-14.3l-3.1-6.45 1.65 6.4q1.75 7.75 2.3 14.3 1.75 21-9.15 22.5-10.95 1.5-31.5-14.8-6.4-5.1-13.05-11.4l-5.35-5.25q15.15 26.3 31.55 37.15 12.25 8.1 28.65 9.1l22.2 1.4q28.3 1.55 58.9 2.3 97.7 2.5 180.95-3.7 20.05-1.5 38.15-13.7 17-11.5 31.4-31.85-30.85 28.25-38.05 10.75z" id="V"/><path fill="url(#p)" d="M2533.45 881.5q-11.35-2.7-21.25-3.15-12.95-.55-29.15-18.6-6.5-7.25-11.4-15.15-4.7-7.65-5.9-12.65-2.4-7.35-1.45-16.55l1.45-7.75q-3.1 4.2-11.55 5.4l-7.85.35-11.2 11 11.2 53.95 45.15 21.6q10.15-10.65 35.15-11.55 16.45-.6 36.55 3l-16.05-5.85q-6.4-2.3-13.7-4.05z" id="W"/><path fill="url(#q)" d="M2451.85 841.15q-3.5-10.3-4.85-20.05l-.65-7.7q-9.6 0-20.45-2.85l-8.9-2.9.3 5.45q.25 6.7.05 13.25-.7 20.95-5.75 32.05-5.1 11.1-24.3 24.75-5.95 4.25-12.65 8.3l-5.5 3.15q5.1-.15 10.95 3.05 2.95 1.6 4.85 3.25l3.6-1.65q4.75-1.95 10.4-3.65 18.05-5.35 38.35-5.75 20.3-.45 39.3 4.8 9.5 2.6 14.9 5.3-28.5-25.85-39.65-58.8z" id="X"/><path fill="url(#r)" d="M2526.05 950.8q-16.25 33.1-16.9 34.5-9.1 19.3-13.9 33.3 18.2-.15 41.5-2.25 15.95-1.5 43.1-4.85-36.7-40.5-53.8-60.7z" id="Y"/><path fill="url(#s)" d="M2419.1 981.4q-8-25.25-12.05-38.1-10.65 10.95-32 31.45-22.65 21.7-31.05 30.2 45.9 10.2 84.4 12.75-2.8-14.85-9.3-36.3z" id="Z"/><path fill="url(#t)" d="M2449.55 1060.2q-11.5 11.45-17.25 18.2 24.45 5.65 55.45 8.45-2.9-7.7-9.3-22.2-7.45-17.05-10.05-23.4-3.75 4-18.85 18.95z" id="aa"/><path fill="url(#u)" d="M2445.35 1074.05q5.8 1.3 17.25 2.9 10.05 1.35 17.6 2.05-1.3-3.35-6.35-14.35-5.3-11.45-6.7-14.9-4.05 4.25-11.25 12.3-6.85 7.65-10.55 12z" id="ab"/><path fill="url(#v)" d="M2619.55 1085.6q3.5-17.25 4.55-34.6l.4-13.85q-4.05 5.1-13.25 13.7-18.45 17.15-44.35 34.65l5.75 22.45-46.2 24.55-10.65-23.65q-16.1 4.35-19 5-11.45 2.65-20.75 3.15l-12.95 26.5-49.55-7.4-2.8-26.3q-.65-.2-6.9-.95t-6.9-.95l-12.7 12.55-20.85-13.45-2.45-19.1q-32.7-21.7-48.35-49.45-4.85-8.7-7.45-16.9l-1.6-6.5-2.1 12.05q-2.2 15.25-2.55 31-1.1 50.4 16.65 87.2l12.4-2.15 9.3 10.3-4.8 16.85q5.15 7.15 8.7 10.85 3.9 4.1 10.8 9.35l1.15.9q15.15 10.65 35.2 18.4 10 3.85 17 5.6 15.9 4 33.6 5.5l9.3-17.05 67.9-8.25 10.7 17.4q10.9-4.3 21.35-10.7l-1.25-24.15 17.6-12.9 12.95 9.85q30.95-34.2 42.1-89.5z" id="ac"/><path fill="url(#w)" d="M2526.05 950.8l-3.8 8.05 39.55 49-64.5 5.05-2.05 5.7q18.2-.15 41.5-2.25 15.95-1.5 43.1-4.85-36.7-40.5-53.8-60.7z" id="ad"/><path fill="url(#x)" d="M2409.15 949.95l-2.1-6.65q-10.65 10.95-32 31.45-22.65 21.7-31.05 30.2 45.9 10.2 84.4 12.75l-1.15-5.7-7.8-.5-60.75-10.55 50.45-51z" id="ae"/><path fill="url(#y)" d="M2303.55 1015.05l-2.1 12.05q-2.2 15.25-2.55 31-1.1 50.4 16.65 87.2l9.2-1.6q-5.3-15.25-9.5-36.1-8.4-41.75-2.95-69.7-4.3-7.8-6.95-16.1l-1.8-6.75z" id="af"/><path fill="url(#z)" d="M2619.55 1085.6q3.5-17.25 4.55-34.6l.4-13.85q-5.05 6.1-13.35 13.8-2.2 18.75-3.15 25.15-2.45 16.2-6.15 29.45-10.05 36.2-32.05 60.5l-12.8-9-18.65 13.2-.15 24.3-14.3 4-8.7-15.85-64.4 7-11.05 17.55-26.3-4.6q-9.2-1.55-20.65-5.15-22.85-7.2-33.9-17.45l-12.05-10.1 3.75-20.45-8.3-8.7-14.35 2.35 9.3 10.3-4.8 16.85q5.35 7.4 9.05 11.2 4.05 4.2 11.6 9.9 15.15 10.65 35.2 18.4 10 3.85 17 5.6 15.9 4 33.6 5.5l9.3-17.05 67.9-8.25 10.7 17.4q10.9-4.3 21.35-10.7l-1.25-24.15 17.6-12.9 12.95 9.85q30.95-34.2 42.1-89.5z" id="ag"/><path fill="url(#A)" d="M2505.5 1111.65l5.3 13.15 15.65 7.7-10.65-23.65-10.3 2.8z" id="ah"/><path fill="url(#B)" d="M2406.3 1109.15l-12.25-2.2-9.8 13.5 15.15-3.45 6.9-7.85z" id="ai"/><path fill="url(#C)" d="M2332.45 1170.3l14.4-.35 3.75-20.45-13.35 3.95-4.8 16.85z" id="aj"/><path fill="url(#D)" d="M2546.9 1178.15l-8.55-7.9-.15 24.3 9.95 7.75-1.25-24.15z" id="ak"/><path fill="url(#E)" d="M2526.8 1213l-2.9-14.45-8.7-15.85.9 12.9 10.7 17.4z" id="al"/><path fill="url(#F)" d="M2450.8 1189.7l-11.05 17.55-.85 13.65 9.3-17.05 2.6-14.15z" id="am"/></defs><use xlink:href="#G"/><use xlink:href="#H" transform="translate(-1207.545 -392.146) scale(.55052)"/><use xlink:href="#I" transform="translate(-1207.545 -392.146) scale(.55052)"/><use xlink:href="#J" transform="translate(-1207.545 -392.146) scale(.55052)"/><use xlink:href="#K" transform="translate(-1207.545 -392.146) scale(.55052)"/><use xlink:href="#L" transform="translate(-1207.545 -392.146) scale(.55052)"/><use xlink:href="#M" transform="translate(-1207.545 -392.146) scale(.55052)"/><use xlink:href="#N" transform="translate(-1207.545 -392.146) scale(.55052)"/><use xlink:href="#O" transform="translate(-1207.545 -392.146) scale(.55052)"/><use xlink:href="#P" transform="translate(-1207.545 -392.146) scale(.55052)"/><use xlink:href="#Q" transform="translate(-1207.545 -392.146) scale(.55052)"/><use xlink:href="#R" transform="translate(-1207.545 -392.146) scale(.55052)"/><use xlink:href="#S" transform="translate(-1207.545 -392.146) scale(.55052)"/><use xlink:href="#T" transform="translate(-1207.545 -392.146) scale(.55052)"/><use xlink:href="#U" transform="translate(-1207.545 -392.146) scale(.55052)"/><use xlink:href="#V" transform="translate(-1207.545 -392.146) scale(.55052)"/><use xlink:href="#W" transform="translate(-1207.545 -392.146) scale(.55052)"/><use xlink:href="#X" transform="translate(-1207.545 -392.146) scale(.55052)"/><use xlink:href="#Y" transform="translate(-1207.545 -392.146) scale(.55052)"/><use xlink:href="#Z" transform="translate(-1207.545 -392.146) scale(.55052)"/><use xlink:href="#aa" transform="translate(-1207.545 -392.146) scale(.55052)"/><use xlink:href="#ab" transform="translate(-1207.545 -392.146) scale(.55052)"/><use xlink:href="#ac" transform="translate(-1207.545 -392.146) scale(.55052)"/><use xlink:href="#ad" transform="translate(-1207.545 -392.146) scale(.55052)"/><use xlink:href="#ae" transform="translate(-1207.545 -392.146) scale(.55052)"/><use xlink:href="#af" transform="translate(-1207.545 -392.146) scale(.55052)"/><use xlink:href="#ag" transform="translate(-1207.545 -392.146) scale(.55052)"/><use xlink:href="#ah" transform="translate(-1207.545 -392.146) scale(.55052)"/><use xlink:href="#ai" transform="translate(-1207.545 -392.146) scale(.55052)"/><use xlink:href="#aj" transform="translate(-1207.545 -392.146) scale(.55052)"/><use xlink:href="#ak" transform="translate(-1207.545 -392.146) scale(.55052)"/><use xlink:href="#al" transform="translate(-1207.545 -392.146) scale(.55052)"/><use xlink:href="#am" transform="translate(-1207.545 -392.146) scale(.55052)"/></svg>