<svg xmlns="http://www.w3.org/2000/svg" xmlns:xlink="http://www.w3.org/1999/xlink" preserveAspectRatio="none" width="284" height="320"><defs><linearGradient id="a" gradientUnits="userSpaceOnUse" x1="2451.4" y1="1665.263" x2="2451.4" y2="1985.237" spreadMethod="pad"><stop offset="0%" stop-color="#FED090"/><stop offset="1.961%" stop-color="#FEC77E"/><stop offset="5.098%" stop-color="#FCB862"/><stop offset="8.235%" stop-color="#FBAD4B"/><stop offset="11.373%" stop-color="#FAA63C"/><stop offset="14.51%" stop-color="#F9A135"/><stop offset="17.647%" stop-color="#F9A033"/><stop offset="65.098%" stop-color="#E77035"/><stop offset="72.157%" stop-color="#E06D35"/><stop offset="79.608%" stop-color="#CF6536"/><stop offset="87.059%" stop-color="#B55835"/><stop offset="94.51%" stop-color="#954933"/><stop offset="100%" stop-color="#7C3D30"/></linearGradient><linearGradient id="b" gradientUnits="userSpaceOnUse" x1="2430.65" y1="1673.362" x2="2430.65" y2="1978.737" spreadMethod="pad"><stop offset="0%" stop-color="#FFECB4"/><stop offset=".784%" stop-color="#FFE5A6"/><stop offset="3.922%" stop-color="#FFD282"/><stop offset="6.667%" stop-color="#FEC363"/><stop offset="9.412%" stop-color="#FCB74B"/><stop offset="12.157%" stop-color="#FBAF3C"/><stop offset="14.902%" stop-color="#FBAA34"/><stop offset="17.647%" stop-color="#FAA832"/><stop offset="65.098%" stop-color="#ED7C37"/><stop offset="71.765%" stop-color="#E67837"/><stop offset="78.431%" stop-color="#D66E37"/><stop offset="85.49%" stop-color="#BE6136"/><stop offset="92.941%" stop-color="#A05034"/><stop offset="92.941%" stop-color="#A05034" stop-opacity="0"/><stop offset="100%" stop-opacity="0"/></linearGradient><linearGradient id="c" gradientUnits="userSpaceOnUse" x1="2430.65" y1="1673.362" x2="2430.65" y2="1978.737" spreadMethod="pad"><stop offset="0%" stop-opacity="0"/><stop offset="92.941%" stop-color="#A05034" stop-opacity="0"/><stop offset="92.941%" stop-color="#A05034"/><stop offset="100%" stop-color="#7D3E30"/><stop offset="100%" stop-color="#7C3D30"/></linearGradient><linearGradient id="d" gradientUnits="userSpaceOnUse" x1="2341" y1="1668" x2="2341" y2="1976.9" spreadMethod="pad"><stop offset="0%" stop-color="#FFECB4"/><stop offset=".784%" stop-color="#FFE5A6"/><stop offset="3.922%" stop-color="#FFD282"/><stop offset="6.667%" stop-color="#FEC363"/><stop offset="9.412%" stop-color="#FCB74B"/><stop offset="12.157%" stop-color="#FBAF3C"/><stop offset="14.902%" stop-color="#FBAA34"/><stop offset="17.647%" stop-color="#FAA832"/><stop offset="65.098%" stop-color="#ED7C37"/><stop offset="71.765%" stop-color="#E67837"/><stop offset="78.431%" stop-color="#D66E37"/><stop offset="85.49%" stop-color="#BE6136"/><stop offset="92.941%" stop-color="#A05034"/><stop offset="92.941%" stop-color="#A05034" stop-opacity="0"/><stop offset="100%" stop-opacity="0"/></linearGradient><linearGradient id="e" gradientUnits="userSpaceOnUse" x1="2341" y1="1668" x2="2341" y2="1976.9" spreadMethod="pad"><stop offset="0%" stop-opacity="0"/><stop offset="92.941%" stop-color="#A05034" stop-opacity="0"/><stop offset="92.941%" stop-color="#A05034"/><stop offset="100%" stop-color="#7D3E30"/><stop offset="100%" stop-color="#7C3D30"/></linearGradient><linearGradient id="f" gradientUnits="userSpaceOnUse" x1="2291.05" y1="1661.412" x2="2291.05" y2="1972.088" spreadMethod="pad"><stop offset="0%" stop-color="#FFECB4"/><stop offset=".784%" stop-color="#FFE5A6"/><stop offset="3.922%" stop-color="#FFD282"/><stop offset="6.667%" stop-color="#FEC363"/><stop offset="9.412%" stop-color="#FCB74B"/><stop offset="12.157%" stop-color="#FBAF3C"/><stop offset="14.902%" stop-color="#FBAA34"/><stop offset="17.647%" stop-color="#FAA832"/><stop offset="65.098%" stop-color="#ED7C37"/><stop offset="71.765%" stop-color="#E67837"/><stop offset="78.431%" stop-color="#D66E37"/><stop offset="85.49%" stop-color="#BE6136"/><stop offset="92.941%" stop-color="#A05034"/><stop offset="92.941%" stop-color="#A05034" stop-opacity="0"/><stop offset="100%" stop-opacity="0"/></linearGradient><linearGradient id="g" gradientUnits="userSpaceOnUse" x1="2291.05" y1="1661.412" x2="2291.05" y2="1972.088" spreadMethod="pad"><stop offset="0%" stop-opacity="0"/><stop offset="92.941%" stop-color="#A05034" stop-opacity="0"/><stop offset="92.941%" stop-color="#A05034"/><stop offset="100%" stop-color="#7D3E30"/><stop offset="100%" stop-color="#7C3D30"/></linearGradient><linearGradient id="h" gradientUnits="userSpaceOnUse" x1="2229.85" y1="1673.362" x2="2229.85" y2="1978.737" spreadMethod="pad"><stop offset="0%" stop-color="#FFECB4"/><stop offset=".784%" stop-color="#FFE5A6"/><stop offset="3.922%" stop-color="#FFD282"/><stop offset="6.667%" stop-color="#FEC363"/><stop offset="9.412%" stop-color="#FCB74B"/><stop offset="12.157%" stop-color="#FBAF3C"/><stop offset="14.902%" stop-color="#FBAA34"/><stop offset="17.647%" stop-color="#FAA832"/><stop offset="65.098%" stop-color="#ED7C37"/><stop offset="71.765%" stop-color="#E67837"/><stop offset="78.431%" stop-color="#D66E37"/><stop offset="85.49%" stop-color="#BE6136"/><stop offset="92.941%" stop-color="#A05034"/><stop offset="92.941%" stop-color="#A05034" stop-opacity="0"/><stop offset="100%" stop-opacity="0"/></linearGradient><linearGradient id="i" gradientUnits="userSpaceOnUse" x1="2229.85" y1="1673.362" x2="2229.85" y2="1978.737" spreadMethod="pad"><stop offset="0%" stop-opacity="0"/><stop offset="92.941%" stop-color="#A05034" stop-opacity="0"/><stop offset="92.941%" stop-color="#A05034"/><stop offset="100%" stop-color="#7D3E30"/><stop offset="100%" stop-color="#7C3D30"/></linearGradient><linearGradient id="j" gradientUnits="userSpaceOnUse" x1="2525.4" y1="1670.85" x2="2525.4" y2="1976.15" spreadMethod="pad"><stop offset="0%" stop-color="#FFECB4"/><stop offset=".784%" stop-color="#FFE5A6"/><stop offset="3.922%" stop-color="#FFD282"/><stop offset="6.667%" stop-color="#FEC363"/><stop offset="9.412%" stop-color="#FCB74B"/><stop offset="12.157%" stop-color="#FBAF3C"/><stop offset="14.902%" stop-color="#FBAA34"/><stop offset="17.647%" stop-color="#FAA832"/><stop offset="65.098%" stop-color="#ED7C37"/><stop offset="71.765%" stop-color="#E67837"/><stop offset="78.431%" stop-color="#D66E37"/><stop offset="85.49%" stop-color="#BE6136"/><stop offset="92.941%" stop-color="#A05034"/><stop offset="92.941%" stop-color="#A05034" stop-opacity="0"/><stop offset="100%" stop-opacity="0"/></linearGradient><linearGradient id="k" gradientUnits="userSpaceOnUse" x1="2525.4" y1="1670.85" x2="2525.4" y2="1976.15" spreadMethod="pad"><stop offset="0%" stop-opacity="0"/><stop offset="92.941%" stop-color="#A05034" stop-opacity="0"/><stop offset="92.941%" stop-color="#A05034"/><stop offset="100%" stop-color="#7D3E30"/><stop offset="100%" stop-color="#7C3D30"/></linearGradient><linearGradient id="l" gradientUnits="userSpaceOnUse" x1="2589.55" y1="1662.287" x2="2589.55" y2="1980.613" spreadMethod="pad"><stop offset="0%" stop-color="#FFECB4"/><stop offset=".784%" stop-color="#FFE5A6"/><stop offset="3.922%" stop-color="#FFD282"/><stop offset="6.667%" stop-color="#FEC363"/><stop offset="9.412%" stop-color="#FCB74B"/><stop offset="12.157%" stop-color="#FBAF3C"/><stop offset="14.902%" stop-color="#FBAA34"/><stop offset="17.647%" stop-color="#FAA832"/><stop offset="65.098%" stop-color="#ED7C37"/><stop offset="71.765%" stop-color="#E67837"/><stop offset="78.431%" stop-color="#D66E37"/><stop offset="85.49%" stop-color="#BE6136"/><stop offset="92.941%" stop-color="#A05034"/><stop offset="92.941%" stop-color="#A05034" stop-opacity="0"/><stop offset="100%" stop-opacity="0"/></linearGradient><linearGradient id="m" gradientUnits="userSpaceOnUse" x1="2589.55" y1="1662.287" x2="2589.55" y2="1980.613" spreadMethod="pad"><stop offset="0%" stop-opacity="0"/><stop offset="92.941%" stop-color="#A05034" stop-opacity="0"/><stop offset="92.941%" stop-color="#A05034"/><stop offset="100%" stop-color="#7D3E30"/><stop offset="100%" stop-color="#7C3D30"/></linearGradient><linearGradient id="n" gradientUnits="userSpaceOnUse" x1="2633.2" y1="1662.287" x2="2633.2" y2="1980.613" spreadMethod="pad"><stop offset="0%" stop-color="#FFECB4"/><stop offset=".784%" stop-color="#FFE5A6"/><stop offset="3.922%" stop-color="#FFD282"/><stop offset="6.667%" stop-color="#FEC363"/><stop offset="9.412%" stop-color="#FCB74B"/><stop offset="12.157%" stop-color="#FBAF3C"/><stop offset="14.902%" stop-color="#FBAA34"/><stop offset="17.647%" stop-color="#FAA832"/><stop offset="65.098%" stop-color="#ED7C37"/><stop offset="71.765%" stop-color="#E67837"/><stop offset="78.431%" stop-color="#D66E37"/><stop offset="85.49%" stop-color="#BE6136"/><stop offset="92.941%" stop-color="#A05034"/><stop offset="92.941%" stop-color="#A05034" stop-opacity="0"/><stop offset="100%" stop-opacity="0"/></linearGradient><linearGradient id="o" gradientUnits="userSpaceOnUse" x1="2633.2" y1="1662.287" x2="2633.2" y2="1980.613" spreadMethod="pad"><stop offset="0%" stop-opacity="0"/><stop offset="92.941%" stop-color="#A05034" stop-opacity="0"/><stop offset="92.941%" stop-color="#A05034"/><stop offset="100%" stop-color="#7D3E30"/><stop offset="100%" stop-color="#7C3D30"/></linearGradient><linearGradient id="p" gradientUnits="userSpaceOnUse" x1="2450.3" y1="1488" x2="2450.3" y2="1622.8" spreadMethod="pad"><stop offset="0%" stop-color="#554434"/><stop offset="10.98%" stop-color="#594735"/><stop offset="27.843%" stop-color="#655039"/><stop offset="48.235%" stop-color="#7A6140"/><stop offset="61.961%" stop-color="#8B7045"/><stop offset="100%" stop-color="#C79F53"/></linearGradient><linearGradient id="q" gradientUnits="userSpaceOnUse" x1="2485.15" y1="1498.65" x2="2485.15" y2="1664.25" spreadMethod="pad"><stop offset="0%" stop-color="#C79F53"/><stop offset="19.216%" stop-color="#C9A156"/><stop offset="38.824%" stop-color="#CFA75E"/><stop offset="59.216%" stop-color="#D9B36D"/><stop offset="79.216%" stop-color="#E8C582"/><stop offset="99.608%" stop-color="#FFDEA0"/><stop offset="100%" stop-color="#FFDFA1"/></linearGradient><linearGradient id="r" gradientUnits="userSpaceOnUse" x1="2373.575" y1="1528.375" x2="2436.925" y2="1654.725" spreadMethod="pad"><stop offset="0%" stop-color="#554434"/><stop offset="10.98%" stop-color="#594735"/><stop offset="27.843%" stop-color="#655039"/><stop offset="48.235%" stop-color="#7A6140"/><stop offset="61.961%" stop-color="#8B7045"/><stop offset="100%" stop-color="#C79F53"/></linearGradient><linearGradient id="s" gradientUnits="userSpaceOnUse" x1="2461.3" y1="1985.025" x2="2461.3" y2="1952.475" spreadMethod="pad"><stop offset="0%" stop-color="#7C3D30"/><stop offset="100%" stop-color="#7C3D30"/></linearGradient><linearGradient id="t" gradientUnits="userSpaceOnUse" x1="2445.963" y1="1501.188" x2="2454.138" y2="1496.912" spreadMethod="pad"><stop offset="0%" stop-color="#E8C482"/><stop offset="100%" stop-color="#F7D697"/></linearGradient><linearGradient id="u" gradientUnits="userSpaceOnUse" x1="2325.85" y1="1891.737" x2="2325.85" y2="1810.163" spreadMethod="pad"><stop offset="0%" stop-color="#492A24"/><stop offset="19.608%" stop-color="#4B2B24"/><stop offset="39.608%" stop-color="#522D26"/><stop offset="60.392%" stop-color="#5C3128"/><stop offset="80.784%" stop-color="#6A372C"/><stop offset="100%" stop-color="#7C3D30"/></linearGradient><linearGradient id="v" gradientUnits="userSpaceOnUse" x1="2500.825" y1="1921.138" x2="2504.975" y2="1846.163" spreadMethod="pad"><stop offset="0%" stop-color="#492A24"/><stop offset="19.608%" stop-color="#4B2B24"/><stop offset="39.608%" stop-color="#522D26"/><stop offset="60.392%" stop-color="#5C3128"/><stop offset="80.784%" stop-color="#6A372C"/><stop offset="100%" stop-color="#7C3D30"/></linearGradient><linearGradient id="w" gradientUnits="userSpaceOnUse" x1="2306.75" y1="1751.15" x2="2306.75" y2="1804.35" spreadMethod="pad"><stop offset="0%" stop-color="#B8682F"/><stop offset="11.765%" stop-color="#C17131"/><stop offset="70.588%" stop-color="#E9A348"/><stop offset="100%" stop-color="#FDBC56"/></linearGradient><linearGradient id="x" gradientUnits="userSpaceOnUse" x1="2489.05" y1="1782.138" x2="2489.05" y2="1811.362" spreadMethod="pad"><stop offset="0%" stop-color="#B8682F"/><stop offset="11.765%" stop-color="#C17131"/><stop offset="70.588%" stop-color="#E9A348"/><stop offset="100%" stop-color="#FDBC56"/></linearGradient><linearGradient id="y" gradientUnits="userSpaceOnUse" x1="2417.4" y1="1851.825" x2="2417.4" y2="1903.775" spreadMethod="pad"><stop offset="0%" stop-color="#492A24"/><stop offset="19.608%" stop-color="#4B2B24"/><stop offset="39.608%" stop-color="#522D26"/><stop offset="60.392%" stop-color="#5C3128"/><stop offset="80.784%" stop-color="#6A372C"/><stop offset="100%" stop-color="#7C3D30"/></linearGradient><linearGradient id="z" gradientUnits="userSpaceOnUse" x1="2408.638" y1="1861.587" x2="2410.463" y2="1886.513" spreadMethod="pad"><stop offset="0%" stop-color="#B8682F"/><stop offset="11.765%" stop-color="#C17131"/><stop offset="70.588%" stop-color="#E9A348"/><stop offset="100%" stop-color="#FDBC56"/></linearGradient><path fill="#FFF" fill-opacity="0" d="M284 320V0H0v320h284z" id="A"/><path fill="url(#a)" d="M2660.85 1704.25l-14-12.8q-17.3-12.2-41.7-21.25-31-11.5-56.45-9.3-5.35.45-15.7 2.35-7.05 1.35-9.75.65-4.5-1.15-16.7-2.8-14.7-1.95-29.8-2.95-42.6-2.9-63.95 3.2-11.95 3.45-19.3 4.4-6.45.85-14.95.45-11.75-.85-20.75-1.35-16.75-.95-36.6-.95-23.2 0-44.2 12.25-19.7 11.45-35.25 32.15-14.95 20-23.65 45.35-8.75 25.45-9.6 51.7-1.5 46.65 25.45 92.1 19.4 32.6 49.7 59.4 18.8 16.55 51.45 23.2 16.35 3.3 28.9 3.3 28.95 4.45 110.25 2.05 76.8-2.25 97.1-6.5 30.35-6.35 55.25-28.8 40.2-36.2 59.7-108.8 17.2-64.1-2.4-106.45-7.05-14.6-15.75-24.05-2.75-2.95-5.3-5.05l-2-1.5z" id="B"/><path fill="url(#b)" d="M2484.8 1679.15q-10.9-5.9-41.6-6.35-37.9-.6-49.15 3-6.95 2.15-10.7 6.75-3.45 4.25-5.4 12.25-1.2 4.95-4.05 16.05-2.2 12.35-2.15 33.2.1 57.75 17.45 205.55l8.05 24.5 15.65 6.5 17.05 3.4h16.65l25.7-10.85 6.85-30.3q2.8-39.65 5.5-91.7 5.35-104.1 4.9-166.15.7-2.85-4.75-5.85z" id="C"/><path fill="url(#c)" d="M2484.8 1679.15q-10.9-5.9-41.6-6.35-37.9-.6-49.15 3-6.95 2.15-10.7 6.75-3.45 4.25-5.4 12.25-1.2 4.95-4.05 16.05-2.2 12.35-2.15 33.2.1 57.75 17.45 205.55l8.05 24.5 15.65 6.5 17.05 3.4h16.65l25.7-10.85 6.85-30.3q2.8-39.65 5.5-91.7 5.35-104.1 4.9-166.15.7-2.85-4.75-5.85z" id="D"/><path fill="url(#d)" d="M2375.95 1674.35q-3.4-4.2-12.55-6.4-12.9-3.15-27.9 2.1-11.15 3.85-17.1 7.25-10.5 6-17.35 15.6-18.5 25.95-13.55 82 5.95 67 13.5 112.25 6.8 40.8 12.75 51.95 4.6 8.65 12.75 20.3 4.1 5.8 7.25 9.9l24.05 11.55 31.4 3.15 6.4-10.85-6.4-23.55q-4.65-19.5-9.55-43.75-9.8-48.5-11.05-72.25-.6-11.4-2.35-31.55-2.9-33.5-2.95-34.1-3.3-40.65-1.25-54.8 1.9-13.3 9.25-26.95 1.7-3.2 4.1-7.65 1.45-3.1.55-4.2z" id="E"/><path fill="url(#e)" d="M2375.95 1674.35q-3.4-4.2-12.55-6.4-12.9-3.15-27.9 2.1-11.15 3.85-17.1 7.25-10.5 6-17.35 15.6-18.5 25.95-13.55 82 5.95 67 13.5 112.25 6.8 40.8 12.75 51.95 4.6 8.65 12.75 20.3 4.1 5.8 7.25 9.9l24.05 11.55 31.4 3.15 6.4-10.85-6.4-23.55q-4.65-19.5-9.55-43.75-9.8-48.5-11.05-72.25-.6-11.4-2.35-31.55-2.9-33.5-2.95-34.1-3.3-40.65-1.25-54.8 1.9-13.3 9.25-26.95 1.7-3.2 4.1-7.65 1.45-3.1.55-4.2z" id="F"/><path fill="url(#f)" d="M2312.65 1664.35l-1.1.1q-23.35 2.7-43.9 17.8-2.55 2.15-5.3 4.35l-2.3 1.8q-2.25 2.45-5.3 7.9-6.2 10.85-10.45 25.75-13.7 47.75-3.35 118.1 6.4 43.5 8.7 56.05 4.2 23.25 9.4 35.8 11.8 13.6 24.6 24.85 16.15 14.2 42.8 21.15h.05v-18.6l-12.75-20.3q-9.35-17.2-18.5-50.7-18.3-67.05-17.25-148.5-.3-4 .2-10.15 1-12.3 4.9-23 12.55-34.2 49.6-39.6 11.7-1.65 12.85-2.85-10.95-.4-24.35-.4-4.35 0-8.55.45z" id="G"/><path fill="url(#g)" d="M2312.65 1664.35l-1.1.1q-23.35 2.7-43.9 17.8-2.55 2.15-5.3 4.35l-2.3 1.8q-2.25 2.45-5.3 7.9-6.2 10.85-10.45 25.75-13.7 47.75-3.35 118.1 6.4 43.5 8.7 56.05 4.2 23.25 9.4 35.8 11.8 13.6 24.6 24.85 16.15 14.2 42.8 21.15h.05v-18.6l-12.75-20.3q-9.35-17.2-18.5-50.7-18.3-67.05-17.25-148.5-.3-4 .2-10.15 1-12.3 4.9-23 12.55-34.2 49.6-39.6 11.7-1.65 12.85-2.85-10.95-.4-24.35-.4-4.35 0-8.55.45z" id="H"/><path fill="url(#h)" d="M2246 1702.95q-16.8 20.3-26.7 47.3-9.85 26.95-10.8 55.1-1 31.1 12.65 64.65 11.05 27.2 30.1 52.55-6.75-21.15-12.3-48.95-6.35-31.95-8.7-61.75-6.1-76.55 15.75-108.9z" id="I"/><path fill="url(#i)" d="M2246 1702.95q-16.8 20.3-26.7 47.3-9.85 26.95-10.8 55.1-1 31.1 12.65 64.65 11.05 27.2 30.1 52.55-6.75-21.15-12.3-48.95-6.35-31.95-8.7-61.75-6.1-76.55 15.75-108.9z" id="J"/><path fill="url(#j)" d="M2544.35 1672.65q-10.35-3.75-20.8-1.85-3.4.6-8.5 2.15-6.05 1.85-7.9 2.3-6.5 1.55-7.95 5.4-.7 1.9-.15 3.5 6.05 74.95-6.35 174.3-6.15 49.7-13.55 84.4l-5.35 26.05 5.35 12.45h25.1l21.55-6.85 11.45-21.85q16.5-36.35 28.85-114.05 10.75-67.7 10.95-111.35.15-27.4-10.15-40.4-6.65-8.45-22.55-14.2z" id="K"/><path fill="url(#k)" d="M2544.35 1672.65q-10.35-3.75-20.8-1.85-3.4.6-8.5 2.15-6.05 1.85-7.9 2.3-6.5 1.55-7.95 5.4-.7 1.9-.15 3.5 6.05 74.95-6.35 174.3-6.15 49.7-13.55 84.4l-5.35 26.05 5.35 12.45h25.1l21.55-6.85 11.45-21.85q16.5-36.35 28.85-114.05 10.75-67.7 10.95-111.35.15-27.4-10.15-40.4-6.65-8.45-22.55-14.2z" id="L"/><path fill="url(#l)" d="M2653.85 1718.35q-1.9-18.2-7.05-26.9-17.2-12.2-41.65-21.25-31.45-11.65-57-9.25-13.45 3.05-9.95 5.55 1.75 1.25 6.15 1.9 28.7 4.05 38 36.2 4.7 16.1 3.6 31.35-.9 71.8-24.9 151.4-12 39.85-23.8 65.3l-13.4 22.5h40.55l19.35-12.5 14.55-16.9q21.25-23.75 33-53.5 8.95-22.7 16-60.25l.5-2.6q2.55-13.95 4.6-28.75 2.5-18.2 2.65-27.4.65-36.45-1.2-54.9z" id="M"/><path fill="url(#m)" d="M2653.85 1718.35q-1.9-18.2-7.05-26.9-17.2-12.2-41.65-21.25-31.45-11.65-57-9.25-13.45 3.05-9.95 5.55 1.75 1.25 6.15 1.9 28.7 4.05 38 36.2 4.7 16.1 3.6 31.35-.9 71.8-24.9 151.4-12 39.85-23.8 65.3l-13.4 22.5h40.55l19.35-12.5 14.55-16.9q21.25-23.75 33-53.5 8.95-22.7 16-60.25l.5-2.6q2.55-13.95 4.6-28.75 2.5-18.2 2.65-27.4.65-36.45-1.2-54.9z" id="N"/><path fill="url(#n)" d="M2661.7 1710.5q1 8.15 1.55 17.4 1.8 29.7-1.25 59.6-9.65 95.75-63.7 158.25-15.6 18-26.25 33 30.3-6.55 55.15-29.2 39.7-36.25 59.1-108.25 17.2-64.1-2.4-106.45-7.05-14.6-15.75-24.05-2.75-2.95-5.3-5.05l-2-1.5.85 6.25z" id="O"/><path fill="url(#o)" d="M2661.7 1710.5q1 8.15 1.55 17.4 1.8 29.7-1.25 59.6-9.65 95.75-63.7 158.25-15.6 18-26.25 33 30.3-6.55 55.15-29.2 39.7-36.25 59.1-108.25 17.2-64.1-2.4-106.45-7.05-14.6-15.75-24.05-2.75-2.95-5.3-5.05l-2-1.5.85 6.25z" id="P"/><path fill="url(#p)" d="M2459.5 1490.8q-3.2-1.1-9.75.2-13.05 2.6-29.55 14.6 5.75 109.65 5.2 120.5-.15 2.9-3.55 6.65-1.8 2-7.7 7.25-12.2 10.85-15.25 18.9l-.05.05q-1.7 3.85-16 5.6l-13.95 1q5.05 1.05 11.5 4.65 3.25 1.8 5.45 3.35l9.75-2.1 25.15-.9q28.3-.65 44.1.9 14.2 1.4 21.85 2.65 4.9.8 6.9.8 3.25 0 12.25-2.1 4.65-1.1 10.05-2.45 5.05-1.2 15.85-3.2l-.4-.15q-7.25-2.2-14.6-5.8-13.15-6.55-18.2-14.25l-1.95-3.35q-1.95-3.5-10.55-54.45-8.8-52.35-10.5-56.9-9.15-24.65-13.5-35.5l-2.55-5.95z" id="Q"/><path fill="url(#q)" d="M2455.1 1495.95q-10.2.05-16.5.85 23.55 19.5 30.1 63.3 2.25 15.15 3.15 38.15.5 12.7 1.35 36.55.8 13.65 8.9 25.95 5.3 8.05 12.6 14.1 3.6-.25 12.05-2.3 4.25-1 9.15-2.2 5.05-1.2 15.85-3.2l-.4-.15q-7.25-2.2-14.6-5.8-13.15-6.55-18.2-14.25l-1.95-3.35q-2-3.6-10.65-54.4-9-52.75-10.4-56.95-5.3-16.05-6.6-27.1-.4-3.05-1.05-4.35-.8-1.6-3.85-4.75-3.85-.15-8.95-.1z" id="R"/><path fill="url(#r)" d="M2427.45 1503.95q-4.05-.65-7.25 1.65 5.75 109.65 5.2 120.5-.15 2.9-3.55 6.65-1.8 2-7.7 7.25-12.2 10.85-15.25 18.9l-.05.05q-1.7 3.85-16 5.6l-13.95 1q5.05 1.05 11.5 4.65 3.25 1.8 5.45 3.35l11-5.5q12.65-5.95 20.85-8.25 11.5-3.2 20.15-12.65 9.95-10.85 5.6-21.05-1.6-3.8-2.4-22.7-.25-6.6-1.05-39.35-1.25-55.2-5.45-60.25-2.35.9-7.1.15z" id="S"/><path fill="url(#s)" d="M2608.8 1950.9q-23.3 11.5-10.5-11.95-5.4 6.8-14.25 13.8-17.7 14-34.95 15.2-12.25.8-14.25-6.6-1.45-5.35 2.4-14.3-6.85 11.55-15.1 18.7-11.9 10.3-24.9 9.6-14.35-.75-18-16-2.35-9.75-.1-23.8-3.7 16.15-11.5 27.6-12.2 17.95-31.35 18.15-21.4.2-35.5-16.75-7.85-9.4-11.6-21.1 3.55 11.9 2.15 21.5-2.55 16.9-21.3 14.5-18.85-2.4-38-23.35-10.185-11.098-17.7-23.85 8.902 16.26 8.95 25.85.15 18.05-35.45-2.2 18.95 16.85 49.45 23.6 15.25 3.35 26.7 3.35 28.95 5.2 110.25 2.45 33.05-1.15 60.4-3.25 27.75-2.15 36.7-4.35 14.25-3.5 27.5-11.3 19.55-11.5 35.9-31.7-14.25 10.45-25.95 16.2z" id="T"/><path fill="url(#t)" d="M2420.2 1505.6l6.75 4.1q7.3 4.1 9.85 4.05 2.85-.05 14.45-5.1 12.3-5.4 16.05-8.9-3.15-4.7-5.45-6.8-1.25-.95-1.9-1.65l-.45-.5q-3.2-1.1-9.75.2-13.05 2.6-29.55 14.6z" id="U"/><path fill="url(#u)" d="M2368.7 1802.15q11.9-5.9 16.95-12.55-2.45 1.05-60.85-21.75l-57.95-23.05-.8 9.4q-.3 11.4 2.3 21.2 8.35 31.3 42.45 34.95 34.1 3.65 57.9-8.2z" id="V"/><path fill="url(#v)" d="M2569.8 1772.35q9.7-15.25 17.15-34.1l5.5-15.75-164.85 64.8 1.3 3.3q2.4 4.05 7.9 7.9 17.65 12.25 59.8 17.45 42.15 5.2 73.2-43.6z" id="W"/><path fill="url(#w)" d="M2310.8 1810.35q19.7 2.1 36.65-1.15-43.6 1.25-58.7-22.2-9.45-14.75-6.5-36l-15.4-6.2-.8 9.4q-.3 11.4 2.3 21.2 8.35 31.3 42.45 34.95z" id="X"/><path fill="url(#x)" d="M2427.6 1787.3l1.3 3.3q2.4 4.05 7.9 7.9 17.65 12.25 59.8 17.45 29.35 3.6 53.85-19.65-13.9 6-30.4 8.3-18.95 2.65-34.7-.8-16.4-3.55-27.65-10.65-8.8-5.55-13.45-12.4l-16.65 6.55z" id="Y"/><path fill="url(#y)" d="M2360.85 1864.65q2.25 2.5 5.2 4.95 9.35 7.85 22.1 12.4 8.8 2.65 16.25 4.05l1.4.25q33.25 6 50.55-10 6.05-5.65 11.4-15.2 2.95-5.35 7.8-15.1l-116.35 16.65 1.65 2z" id="Z"/><path fill="url(#z)" d="M2360.85 1864.65q2.25 2.5 5.2 5 9.4 7.85 22.15 12.35 8.85 2.65 15.8 4l1.75.3q19.75 3.6 33.65-.45 11.55-3.35 19.65-12.25-15.3 3.4-27.4 3.45-15 .05-36.15-8.45-6.6-2.7-13.05-5.9l-5.1-2.65-18.15 2.6 1.65 2z" id="aa"/></defs><use xlink:href="#A"/><use xlink:href="#B" transform="matrix(.5268 0 0 .5268 -1149.373 -731.682)"/><use xlink:href="#C" transform="matrix(.5268 0 0 .5268 -1149.373 -731.682)"/><use xlink:href="#D" transform="matrix(.5268 0 0 .5268 -1149.373 -731.682)"/><use xlink:href="#E" transform="matrix(.5268 0 0 .5268 -1149.373 -731.682)"/><use xlink:href="#F" transform="matrix(.5268 0 0 .5268 -1149.373 -731.682)"/><use xlink:href="#G" transform="matrix(.5268 0 0 .5268 -1149.373 -731.682)"/><use xlink:href="#H" transform="matrix(.5268 0 0 .5268 -1149.373 -731.682)"/><use xlink:href="#I" transform="matrix(.5268 0 0 .5268 -1149.373 -731.682)"/><use xlink:href="#J" transform="matrix(.5268 0 0 .5268 -1149.373 -731.682)"/><use xlink:href="#K" transform="matrix(.5268 0 0 .5268 -1149.373 -731.682)"/><use xlink:href="#L" transform="matrix(.5268 0 0 .5268 -1149.373 -731.682)"/><use xlink:href="#M" transform="matrix(.5268 0 0 .5268 -1149.373 -731.682)"/><use xlink:href="#N" transform="matrix(.5268 0 0 .5268 -1149.373 -731.682)"/><use xlink:href="#O" transform="matrix(.5268 0 0 .5268 -1149.373 -731.682)"/><use xlink:href="#P" transform="matrix(.5268 0 0 .5268 -1149.373 -731.682)"/><use xlink:href="#Q" transform="matrix(.5268 0 0 .5268 -1149.373 -731.682)"/><use xlink:href="#R" transform="matrix(.5268 0 0 .5268 -1149.373 -731.682)"/><use xlink:href="#S" transform="matrix(.5268 0 0 .5268 -1149.373 -731.682)"/><use xlink:href="#T" transform="matrix(.5268 0 0 .5268 -1149.373 -731.682)"/><use xlink:href="#U" transform="matrix(.5268 0 0 .5268 -1149.373 -731.682)"/><use xlink:href="#V" transform="matrix(.5268 0 0 .5268 -1149.373 -731.682)"/><use xlink:href="#W" transform="matrix(.5268 0 0 .5268 -1149.373 -731.682)"/><use xlink:href="#X" transform="matrix(.5268 0 0 .5268 -1149.373 -731.682)"/><use xlink:href="#Y" transform="matrix(.5268 0 0 .5268 -1149.373 -731.682)"/><use xlink:href="#Z" transform="matrix(.5268 0 0 .5268 -1149.373 -731.682)"/><use xlink:href="#aa" transform="matrix(.5268 0 0 .5268 -1149.373 -731.682)"/></svg>