<svg xmlns="http://www.w3.org/2000/svg" xmlns:xlink="http://www.w3.org/1999/xlink" preserveAspectRatio="none" width="284" height="320"><defs><linearGradient id="a" gradientUnits="userSpaceOnUse" x1="351.4" y1="933.588" x2="351.4" y2="1264.713" spreadMethod="pad"><stop offset="0%" stop-color="#FED090"/><stop offset="1.961%" stop-color="#FEC77E"/><stop offset="5.098%" stop-color="#FCB862"/><stop offset="8.235%" stop-color="#FBAD4B"/><stop offset="11.373%" stop-color="#FAA63C"/><stop offset="14.51%" stop-color="#F9A135"/><stop offset="17.647%" stop-color="#F9A033"/><stop offset="65.098%" stop-color="#E77035"/><stop offset="72.157%" stop-color="#E06D35"/><stop offset="79.608%" stop-color="#CF6536"/><stop offset="87.059%" stop-color="#B55835"/><stop offset="94.51%" stop-color="#954933"/><stop offset="100%" stop-color="#7C3D30"/></linearGradient><linearGradient id="b" gradientUnits="userSpaceOnUse" x1="189.35" y1="943.963" x2="189.35" y2="1264.938" spreadMethod="pad"><stop offset="0%" stop-color="#FFECB4"/><stop offset=".784%" stop-color="#FFE5A6"/><stop offset="3.922%" stop-color="#FFD282"/><stop offset="6.667%" stop-color="#FEC363"/><stop offset="9.412%" stop-color="#FCB74B"/><stop offset="12.157%" stop-color="#FBAF3C"/><stop offset="14.902%" stop-color="#FBAA34"/><stop offset="17.647%" stop-color="#FAA832"/><stop offset="65.098%" stop-color="#ED7C37"/><stop offset="71.765%" stop-color="#E67837"/><stop offset="78.431%" stop-color="#D66E37"/><stop offset="85.49%" stop-color="#BE6136"/><stop offset="92.941%" stop-color="#A05034"/><stop offset="92.941%" stop-color="#A05034" stop-opacity="0"/><stop offset="100%" stop-opacity="0"/></linearGradient><linearGradient id="c" gradientUnits="userSpaceOnUse" x1="189.35" y1="943.963" x2="189.35" y2="1264.938" spreadMethod="pad"><stop offset="0%" stop-opacity="0"/><stop offset="92.941%" stop-color="#A05034" stop-opacity="0"/><stop offset="92.941%" stop-color="#A05034"/><stop offset="100%" stop-color="#7D3E30"/><stop offset="100%" stop-color="#7C3D30"/></linearGradient><linearGradient id="d" gradientUnits="userSpaceOnUse" x1="244.85" y1="938.825" x2="244.85" y2="1265.075" spreadMethod="pad"><stop offset="0%" stop-color="#FFECB4"/><stop offset=".784%" stop-color="#FFE5A6"/><stop offset="3.922%" stop-color="#FFD282"/><stop offset="6.667%" stop-color="#FEC363"/><stop offset="9.412%" stop-color="#FCB74B"/><stop offset="12.157%" stop-color="#FBAF3C"/><stop offset="14.902%" stop-color="#FBAA34"/><stop offset="17.647%" stop-color="#FAA832"/><stop offset="65.098%" stop-color="#ED7C37"/><stop offset="71.765%" stop-color="#E67837"/><stop offset="78.431%" stop-color="#D66E37"/><stop offset="85.49%" stop-color="#BE6136"/><stop offset="92.941%" stop-color="#A05034"/><stop offset="92.941%" stop-color="#A05034" stop-opacity="0"/><stop offset="100%" stop-opacity="0"/></linearGradient><linearGradient id="e" gradientUnits="userSpaceOnUse" x1="244.85" y1="938.825" x2="244.85" y2="1265.075" spreadMethod="pad"><stop offset="0%" stop-opacity="0"/><stop offset="92.941%" stop-color="#A05034" stop-opacity="0"/><stop offset="92.941%" stop-color="#A05034"/><stop offset="100%" stop-color="#7D3E30"/><stop offset="100%" stop-color="#7C3D30"/></linearGradient><linearGradient id="f" gradientUnits="userSpaceOnUse" x1="318.1" y1="948.388" x2="318.1" y2="1265.112" spreadMethod="pad"><stop offset="0%" stop-color="#FFECB4"/><stop offset=".784%" stop-color="#FFE5A6"/><stop offset="3.922%" stop-color="#FFD282"/><stop offset="6.667%" stop-color="#FEC363"/><stop offset="9.412%" stop-color="#FCB74B"/><stop offset="12.157%" stop-color="#FBAF3C"/><stop offset="14.902%" stop-color="#FBAA34"/><stop offset="17.647%" stop-color="#FAA832"/><stop offset="65.098%" stop-color="#ED7C37"/><stop offset="71.765%" stop-color="#E67837"/><stop offset="78.431%" stop-color="#D66E37"/><stop offset="85.49%" stop-color="#BE6136"/><stop offset="92.941%" stop-color="#A05034"/><stop offset="92.941%" stop-color="#A05034" stop-opacity="0"/><stop offset="100%" stop-opacity="0"/></linearGradient><linearGradient id="g" gradientUnits="userSpaceOnUse" x1="318.1" y1="948.388" x2="318.1" y2="1265.112" spreadMethod="pad"><stop offset="0%" stop-opacity="0"/><stop offset="92.941%" stop-color="#A05034" stop-opacity="0"/><stop offset="92.941%" stop-color="#A05034"/><stop offset="100%" stop-color="#7D3E30"/><stop offset="100%" stop-color="#7C3D30"/></linearGradient><linearGradient id="h" gradientUnits="userSpaceOnUse" x1="385.65" y1="944.25" x2="385.65" y2="1265.25" spreadMethod="pad"><stop offset="0%" stop-color="#FFECB4"/><stop offset=".784%" stop-color="#FFE5A6"/><stop offset="3.922%" stop-color="#FFD282"/><stop offset="6.667%" stop-color="#FEC363"/><stop offset="9.412%" stop-color="#FCB74B"/><stop offset="12.157%" stop-color="#FBAF3C"/><stop offset="14.902%" stop-color="#FBAA34"/><stop offset="17.647%" stop-color="#FAA832"/><stop offset="65.098%" stop-color="#ED7C37"/><stop offset="71.765%" stop-color="#E67837"/><stop offset="78.431%" stop-color="#D66E37"/><stop offset="85.49%" stop-color="#BE6136"/><stop offset="92.941%" stop-color="#A05034"/><stop offset="92.941%" stop-color="#A05034" stop-opacity="0"/><stop offset="100%" stop-opacity="0"/></linearGradient><linearGradient id="i" gradientUnits="userSpaceOnUse" x1="385.65" y1="944.25" x2="385.65" y2="1265.25" spreadMethod="pad"><stop offset="0%" stop-opacity="0"/><stop offset="92.941%" stop-color="#A05034" stop-opacity="0"/><stop offset="92.941%" stop-color="#A05034"/><stop offset="100%" stop-color="#7D3E30"/><stop offset="100%" stop-color="#7C3D30"/></linearGradient><linearGradient id="j" gradientUnits="userSpaceOnUse" x1="464.9" y1="944.075" x2="464.9" y2="1264.925" spreadMethod="pad"><stop offset="0%" stop-color="#FFECB4"/><stop offset=".784%" stop-color="#FFE5A6"/><stop offset="3.922%" stop-color="#FFD282"/><stop offset="6.667%" stop-color="#FEC363"/><stop offset="9.412%" stop-color="#FCB74B"/><stop offset="12.157%" stop-color="#FBAF3C"/><stop offset="14.902%" stop-color="#FBAA34"/><stop offset="17.647%" stop-color="#FAA832"/><stop offset="65.098%" stop-color="#ED7C37"/><stop offset="71.765%" stop-color="#E67837"/><stop offset="78.431%" stop-color="#D66E37"/><stop offset="85.49%" stop-color="#BE6136"/><stop offset="92.941%" stop-color="#A05034"/><stop offset="92.941%" stop-color="#A05034" stop-opacity="0"/><stop offset="100%" stop-opacity="0"/></linearGradient><linearGradient id="k" gradientUnits="userSpaceOnUse" x1="464.9" y1="944.075" x2="464.9" y2="1264.925" spreadMethod="pad"><stop offset="0%" stop-opacity="0"/><stop offset="92.941%" stop-color="#A05034" stop-opacity="0"/><stop offset="92.941%" stop-color="#A05034"/><stop offset="100%" stop-color="#7D3E30"/><stop offset="100%" stop-color="#7C3D30"/></linearGradient><linearGradient id="l" gradientUnits="userSpaceOnUse" x1="536.9" y1="944.112" x2="536.9" y2="1264.587" spreadMethod="pad"><stop offset="0%" stop-color="#FFECB4"/><stop offset=".784%" stop-color="#FFE5A6"/><stop offset="3.922%" stop-color="#FFD282"/><stop offset="6.667%" stop-color="#FEC363"/><stop offset="9.412%" stop-color="#FCB74B"/><stop offset="12.157%" stop-color="#FBAF3C"/><stop offset="14.902%" stop-color="#FBAA34"/><stop offset="17.647%" stop-color="#FAA832"/><stop offset="65.098%" stop-color="#ED7C37"/><stop offset="71.765%" stop-color="#E67837"/><stop offset="78.431%" stop-color="#D66E37"/><stop offset="85.49%" stop-color="#BE6136"/><stop offset="92.941%" stop-color="#A05034"/><stop offset="92.941%" stop-color="#A05034" stop-opacity="0"/><stop offset="100%" stop-opacity="0"/></linearGradient><linearGradient id="m" gradientUnits="userSpaceOnUse" x1="536.9" y1="944.112" x2="536.9" y2="1264.587" spreadMethod="pad"><stop offset="0%" stop-opacity="0"/><stop offset="92.941%" stop-color="#A05034" stop-opacity="0"/><stop offset="92.941%" stop-color="#A05034"/><stop offset="100%" stop-color="#7D3E30"/><stop offset="100%" stop-color="#7C3D30"/></linearGradient><linearGradient id="n" gradientUnits="userSpaceOnUse" x1="358.25" y1="1266.587" x2="358.25" y2="1242.513" spreadMethod="pad"><stop offset="0%" stop-color="#7C3D30"/><stop offset="100%" stop-color="#8C4334"/></linearGradient><linearGradient id="o" gradientUnits="userSpaceOnUse" x1="317.15" y1="799.887" x2="317.15" y2="936.212" spreadMethod="pad"><stop offset="0%" stop-color="#8B7045"/><stop offset="100%" stop-color="#D1B06E"/></linearGradient><linearGradient id="p" gradientUnits="userSpaceOnUse" x1="363.75" y1="809.875" x2="363.75" y2="940.725" spreadMethod="pad"><stop offset="0%" stop-color="#8B7045"/><stop offset="100%" stop-color="#C79F53"/></linearGradient><linearGradient id="q" gradientUnits="userSpaceOnUse" x1="423.45" y1="777.85" x2="423.45" y2="945.85" spreadMethod="pad"><stop offset="0%" stop-color="#554434"/><stop offset="10.98%" stop-color="#594735"/><stop offset="27.843%" stop-color="#655039"/><stop offset="48.235%" stop-color="#7A6140"/><stop offset="61.961%" stop-color="#8B7045"/><stop offset="100%" stop-color="#C79F53"/></linearGradient><linearGradient id="r" gradientUnits="userSpaceOnUse" x1="373.275" y1="801.413" x2="381.625" y2="802.988" spreadMethod="pad"><stop offset="0%" stop-color="#E8C482"/><stop offset="100%" stop-color="#F7D697"/></linearGradient><linearGradient id="s" gradientUnits="userSpaceOnUse" x1="364.5" y1="1062.213" x2="364.5" y2="1203.088" spreadMethod="pad"><stop offset="0%" stop-color="#492A24"/><stop offset="26.275%" stop-color="#4A2B24"/><stop offset="45.49%" stop-color="#4F2C25"/><stop offset="61.961%" stop-color="#572F27"/><stop offset="77.255%" stop-color="#62342A"/><stop offset="91.373%" stop-color="#70392D"/><stop offset="100%" stop-color="#7C3D30"/></linearGradient><linearGradient id="t" gradientUnits="userSpaceOnUse" x1="305.813" y1="1038.212" x2="315.188" y2="1121.888" spreadMethod="pad"><stop offset="0%" stop-color="#B8682F"/><stop offset="11.765%" stop-color="#C17131"/><stop offset="70.588%" stop-color="#E9A348"/><stop offset="100%" stop-color="#FDBC56"/></linearGradient><linearGradient id="u" gradientUnits="userSpaceOnUse" x1="301.75" y1="1037.575" x2="301.75" y2="1104.725" spreadMethod="pad"><stop offset="0%" stop-color="#492A24"/><stop offset="26.275%" stop-color="#4A2B24"/><stop offset="45.49%" stop-color="#4F2C25"/><stop offset="61.961%" stop-color="#572F27"/><stop offset="77.255%" stop-color="#62342A"/><stop offset="91.373%" stop-color="#70392D"/><stop offset="100%" stop-color="#7C3D30"/></linearGradient><linearGradient id="v" gradientUnits="userSpaceOnUse" x1="300.55" y1="954.475" x2="378.15" y2="987.125" spreadMethod="pad"><stop offset="0%" stop-color="#492A24"/><stop offset="26.275%" stop-color="#4A2B24"/><stop offset="45.49%" stop-color="#4F2C25"/><stop offset="61.961%" stop-color="#572F27"/><stop offset="77.255%" stop-color="#62342A"/><stop offset="91.373%" stop-color="#70392D"/><stop offset="100%" stop-color="#7C3D30"/></linearGradient><linearGradient id="w" gradientUnits="userSpaceOnUse" x1="429.75" y1="1032.225" x2="429.75" y2="1085.375" spreadMethod="pad"><stop offset="0%" stop-color="#B8682F"/><stop offset="11.765%" stop-color="#C17131"/><stop offset="70.588%" stop-color="#E9A348"/><stop offset="100%" stop-color="#FDBC56"/></linearGradient><linearGradient id="x" gradientUnits="userSpaceOnUse" x1="400.3" y1="1038.65" x2="400.3" y2="1205.15" spreadMethod="pad"><stop offset="0%" stop-color="#B8682F"/><stop offset="11.765%" stop-color="#C17131"/><stop offset="70.588%" stop-color="#E9A348"/><stop offset="100%" stop-color="#FDBC56"/></linearGradient><linearGradient id="y" gradientUnits="userSpaceOnUse" x1="223.8" y1="1058.538" x2="223.8" y2="1194.862" spreadMethod="pad"><stop offset="0%" stop-color="#B8682F"/><stop offset="11.765%" stop-color="#C17131"/><stop offset="70.588%" stop-color="#E9A348"/><stop offset="100%" stop-color="#FDBC56"/></linearGradient><linearGradient id="z" gradientUnits="userSpaceOnUse" x1="456" y1="1117.112" x2="456" y2="1170.987" spreadMethod="pad"><stop offset="0%" stop-color="#B8682F"/><stop offset="11.765%" stop-color="#C17131"/><stop offset="70.588%" stop-color="#E9A348"/><stop offset="100%" stop-color="#FDBC56"/></linearGradient><linearGradient id="A" gradientUnits="userSpaceOnUse" x1="363.9" y1="1117.112" x2="363.9" y2="1170.987" spreadMethod="pad"><stop offset="0%" stop-color="#B8682F"/><stop offset="11.765%" stop-color="#C17131"/><stop offset="70.588%" stop-color="#E9A348"/><stop offset="100%" stop-color="#FDBC56"/></linearGradient><linearGradient id="B" gradientUnits="userSpaceOnUse" x1="272.55" y1="1117.112" x2="272.55" y2="1170.987" spreadMethod="pad"><stop offset="0%" stop-color="#B8682F"/><stop offset="11.765%" stop-color="#C17131"/><stop offset="70.588%" stop-color="#E9A348"/><stop offset="100%" stop-color="#FDBC56"/></linearGradient><path fill="#FFF" fill-opacity="0" d="M284 320V0H0v320h284z" id="C"/><path fill="url(#a)" d="M373.9 940.45q-3.6-1.15-8.8-2.6-10.45-2.85-18.4-4.25-8-1.45-21.85.1l-12.25 1.8q-2.15-2.5-10.1-3.9-5.3-.9-11.95-1.2-24.4-.85-36.85.3-16.9 1.55-35.6 6.65-24.45 6.65-44.7 17.8-55.2 30.35-66.7 85.9-4.8 23.2 7.15 55.6 2.4 6.5 11.6 28.4 7.65 18.3 11.45 30.15l1.75 5.2q22 65.3 55.45 87.35 10.4 6.9 20.75 8.65 5.15.85 8.25.35l2.75 2.4q3.75 2.8 8.95 4.6 16.55 5.8 40.85-.15l1.75 2.1q2.4 2.45 5.8 4.35 10.95 6.15 27.65 4.5 16.7-1.65 26.15-4.25 4.7-1.3 6.05-2.3l.95.65q1.45.85 4.2 1.75 8.8 2.75 27.05 4.65 18.2 1.9 27.8-4.7 3-2.05 4.8-4.7l1.15-2.25 4.45 1.7q5.6 2 11.15 3.45 17.7 4.5 28.3 1.5.05 0 9.05-1.9 6.5-1.4 11.45-3.45 6.5-3.1 10.15-5.5 5.3-3.5 8.25-7.6l6.95-1.45q8.6-2.7 16.75-8.9 10.5-8.7 17-18.5l4.8-7.45q.95-1.7 1.65-2.65 15.65-25.1 24.65-42.1 16.3-30.7 24.75-57.65 24-76.2-13.8-121.6-22.65-27.15-51.4-40.85-17.05-8.1-49.2-15.5l-4.95 2.6q-1.45-1.2-4.6-2.55-6.25-2.8-14.55-3.75-4.15-.35-9.05-.5-11.4.05-18.8 4.25-4.15 2.4-6 5.25-.95-1.1-15.55-4.9-11.45-2.95-20.15.75-2.75 1.2-4.85 2.9-1.05.85-1.55 1.45z" id="D"/><path fill="url(#b)" d="M218.1 937.35q-24.45 6.65-44.7 17.8-55.2 30.35-66.7 85.9-4.8 23.2 7.15 55.6 2.4 6.5 11.6 28.4 7.65 18.3 11.45 30.15l1.75 5.2q19.05 56.6 45.7 80.7 16.75 15.1 34.3 15.8l-15.9-56q-3.45-6.6-8.7-20.7-10.7-28.75-15.5-57.45-6.75-40.65-.3-74.75 8.15-42.85 36.8-72.6 24.35-25.3 30.8-30.35 7.85-6.25 27.65-15.05-11.9 0-19.8.7-16.9 1.55-35.6 6.65z" id="E"/><path fill="url(#c)" d="M218.1 937.35q-24.45 6.65-44.7 17.8-55.2 30.35-66.7 85.9-4.8 23.2 7.15 55.6 2.4 6.5 11.6 28.4 7.65 18.3 11.45 30.15l1.75 5.2q19.05 56.6 45.7 80.7 16.75 15.1 34.3 15.8l-15.9-56q-3.45-6.6-8.7-20.7-10.7-28.75-15.5-57.45-6.75-40.65-.3-74.75 8.15-42.85 36.8-72.6 24.35-25.3 30.8-30.35 7.85-6.25 27.65-15.05-11.9 0-19.8.7-16.9 1.55-35.6 6.65z" id="F"/><path fill="url(#d)" d="M306.6 952.55q4.9-8.5-2.6-13.5-7.35-4.9-24.85-5.45-8.45-.25-20.85 7.9-11.95 7.85-25.05 21.85-28.9 30.8-44.7 68-14.1 33.3-1.35 104.75 6.35 35.75 15.55 64.8l19.5 47.75 23.9 8.25h31.3q-1.25-3.1-3.15-8.75-3.75-11.35-6.8-24.3-2.8-10.25-4.3-16.15-2.8-10.7-4.25-21-4.2-29.9-.5-78.1 3.65-47.95 23.8-101.95 12.25-33 24.35-54.1z" id="G"/><path fill="url(#e)" d="M306.6 952.55q4.9-8.5-2.6-13.5-7.35-4.9-24.85-5.45-8.45-.25-20.85 7.9-11.95 7.85-25.05 21.85-28.9 30.8-44.7 68-14.1 33.3-1.35 104.75 6.35 35.75 15.55 64.8l19.5 47.75 23.9 8.25h31.3q-1.25-3.1-3.15-8.75-3.75-11.35-6.8-24.3-2.8-10.25-4.3-16.15-2.8-10.7-4.25-21-4.2-29.9-.5-78.1 3.65-47.95 23.8-101.95 12.25-33 24.35-54.1z" id="H"/><path fill="url(#f)" d="M351.75 938.45q-10.4-2.1-23.2.6-4.75 1-7.75 3.35-3.7 2.8-8 9.6-7.35 11.65-28.7 58.2-17.95 39.25-19.1 130.4-.55 45.55 2.5 83.25l7 24.8 31.75 14.25h38.8l-1.1-32q-1.4-35.9 14.5-155.85 8.15-61.7 10.05-78.3 4-35.5 2.1-42.1-3.8-13.1-18.85-16.2z" id="I"/><path fill="url(#g)" d="M351.75 938.45q-10.4-2.1-23.2.6-4.75 1-7.75 3.35-3.7 2.8-8 9.6-7.35 11.65-28.7 58.2-17.95 39.25-19.1 130.4-.55 45.55 2.5 83.25l7 24.8 31.75 14.25h38.8l-1.1-32q-1.4-35.9 14.5-155.85 8.15-61.7 10.05-78.3 4-35.5 2.1-42.1-3.8-13.1-18.85-16.2z" id="J"/><path fill="url(#h)" d="M384 940.85q-2.4 1.9-3.4 7.1-.9 4.4-1.45 15.3-.35 6.8-1.3 26.3-1.55 27.3-17.9 137.05-8.15 54.9-16 104.3l-3.95 17.75 43.55 18.4 9.6-3.4q9.55-3.95 9.35-6.75-.1-1.35.5-2.9 1-2.3 1.8-4.5 3.35-9.3 6.25-28.7 6.25-41.65 14-125.75 9.5-103.85 4.7-121.5-5.05-18.45-17.2-27.45-9.6-7.05-21.35-7.05-5 0-7.2 1.8z" id="K"/><path fill="url(#i)" d="M384 940.85q-2.4 1.9-3.4 7.1-.9 4.4-1.45 15.3-.35 6.8-1.3 26.3-1.55 27.3-17.9 137.05-8.15 54.9-16 104.3l-3.95 17.75 43.55 18.4 9.6-3.4q9.55-3.95 9.35-6.75-.1-1.35.5-2.9 1-2.3 1.8-4.5 3.35-9.3 6.25-28.7 6.25-41.65 14-125.75 9.5-103.85 4.7-121.5-5.05-18.45-17.2-27.45-9.6-7.05-21.35-7.05-5 0-7.2 1.8z" id="L"/><path fill="url(#j)" d="M443.1 934.1q-5.05 1.05-6.9 1.25-6.35.8-9.45 5.35-3.65 5.2.25 12.1 6.05 10.75 8.4 21.65 4.25 19.65 4.5 59.5.25 37.8-14.25 116.1-7.3 39.15-14.6 70.75l-1.65 21.35 9.7 11.1 30.3 3.65 33.7-8.25 19.7-33.2q23.8-72.7 15.5-145.2-3.45-30.45-12.4-57.35-8.15-24.6-19.55-42.5-18.4-28.85-33.1-34.8-5.05-2-10.15-1.5z" id="M"/><path fill="url(#k)" d="M443.1 934.1q-5.05 1.05-6.9 1.25-6.35.8-9.45 5.35-3.65 5.2.25 12.1 6.05 10.75 8.4 21.65 4.25 19.65 4.5 59.5.25 37.8-14.25 116.1-7.3 39.15-14.6 70.75l-1.65 21.35 9.7 11.1 30.3 3.65 33.7-8.25 19.7-33.2q23.8-72.7 15.5-145.2-3.45-30.45-12.4-57.35-8.15-24.6-19.55-42.5-18.4-28.85-33.1-34.8-5.05-2-10.15-1.5z" id="N"/><path fill="url(#l)" d="M487.95 952.95q9.5 11.05 15.45 20.9 20.6 34.5 27.05 96.6 4.05 39.4-11.4 96.15-7.7 28.35-16.25 48.85l-13.5 22.75 11.05 3.95 7.6 4.05q3.85-2.1 7.55-4.95 10.5-8.7 17-18.5l4.8-7.45q.95-1.7 1.65-2.65 15.65-25.1 24.65-42.1 16.3-30.7 24.75-57.65 24-76.2-13.8-121.6-22.05-26.5-50.15-40.05-16.4-7.9-48.2-15.75.15 1.7 1.1 3.55 1.95 3.8 10.65 13.9z" id="O"/><path fill="url(#m)" d="M487.95 952.95q9.5 11.05 15.45 20.9 20.6 34.5 27.05 96.6 4.05 39.4-11.4 96.15-7.7 28.35-16.25 48.85l-13.5 22.75 11.05 3.95 7.6 4.05q3.85-2.1 7.55-4.95 10.5-8.7 17-18.5l4.8-7.45q.95-1.7 1.65-2.65 15.65-25.1 24.65-42.1 16.3-30.7 24.75-57.65 24-76.2-13.8-121.6-22.05-26.5-50.15-40.05-16.4-7.9-48.2-15.75.15 1.7 1.1 3.55 1.95 3.8 10.65 13.9z" id="P"/><path fill="url(#n)" d="M277.4 1265.7q2.4 2.45 5.8 4.35 10.95 6.15 27.65 4.5 16.7-1.65 26.15-4.25 4.7-1.3 6.05-2.3l.95.65q1.45.85 4.2 1.75 8.8 2.75 27.05 4.65 18.2 1.9 27.8-4.7 3-2.05 4.8-4.7l1.15-2.25 4.45 1.7q5.6 2 11.15 3.45 17.7 4.5 28.3 1.5.05 0 9.05-1.9 6.5-1.4 11.45-3.45 6.5-3.1 10.15-5.5 5.3-3.5 8.25-7.6l6.95-1.45q8.6-2.7 16.75-8.9 2.6-2.15 5.6-5.05-10.6 3.3-16.7 1.2-10.35-3.55-1.6-22.45l-3.05 4.75q-4 5.75-8.85 10.55-15.65 15.4-34.1 15.9-23.95.7-33.1-2.55-12.25-4.4-12.7-18.65-.85 12.4-6.5 20.35-8.8 12.5-27.5 10.2-17.6-2.15-26.2-10.6-5.8-5.7-6.85-13.35-.3 10.75-5.9 18.25-8.7 11.6-28.45 12-20.85.45-31.95-14.05-5.45-7.1-9.5-21.15 2.3 10.85-.55 18.3-4.65 12.1-22.3 10.6-15.9-1.3-26.95-18.9-5-7.9-12.75-28.8 4.75 16 4.05 26.35-1 15.4-14.3 14.45 10.05 6.3 19.9 7.85 4.95.8 7.85.3l2.75 2.4q3.75 2.8 8.95 4.6 16.55 5.8 40.85-.15l1.75 2.1z" id="Q"/><path fill="url(#o)" d="M360.8 835.45l-6.4-25.4-15.25-16.25Q348 815 349.9 841.75q1.7 24.9-2.9 49.75-3.7 19.85-38.95 31.15-11.05 3.55-23.9 5.8L273.5 930q13.1.9 26.9 3.8 6.9 1.5 11.2 2.75l14.75-4.55 15.75-9.3 16.25-24.05 2.45-63.2z" id="R"/><path fill="url(#p)" d="M376.55 830.9l1.45-22.8-23.6 1.95 2.95 26.25q2.45 30.65 0 52.45-2.45 21.85-24.35 37-10.95 7.6-21.4 10.8 26.65-6.2 47.2-.1 10.3 3.1 15.25 7.4 5.85-10.15 24.45-7.8 9.3 1.2 17.4 4.4l-19.7-24.65-14.25-35.9-4.95-17.7-.45-31.3z" id="S"/><path fill="url(#q)" d="M374.95 817.9q-1.45 8.9-1.9 18.4-1.35 30.35 8.2 55.05 9.55 24.75 23.05 39.4 6.75 7.35 11.6 9.7 1.4-1.1 3.9-2.45 5.05-2.75 10.75-4.25 18.2-4.75 35.95 4.9l7.45-3.7q-6.15-.3-15.25-2.25-18.2-3.9-32.8-12-46.85-26-40.7-84.7 1.6-15.75 7.75-25.45 2-3.2 4.7-6.05 2.7-2.6 3.5-3.55l-24.85 9.95-1.35 7z" id="T"/><path fill="url(#r)" d="M374.05 787.9q-5.2-.6-20.6 2.6l-14.3 3.3 4.5 6.85q5.55 7.25 10.75 9.4 6.6 2.75 11.25 3.65 5.1.95 8.55-.15 4.8-1.55 26.95-12.6-4.65-3-10.4-6.15-11.45-6.25-16.7-6.9z" id="U"/><path fill="url(#s)" d="M403.45 1118.4l-34.1-55.05-45.05 60.55-35.25-63.45-38.5 50.4-31.5-55.5q-13.95 31.9-13.55 64.8.3 25.35 9 49.8l17.35 34.05 45.25-49.7 39 58.1 49.8-49.35 39.15 53.25 41.4-55.95 40 37.5q3.4-2.95 8.1-9.15 9.45-12.4 16.15-28.8 21.45-52.45 7.25-125.1L476 1100.9l-32.85-44.7-39.7 62.2z" id="V"/><path fill="url(#t)" d="M334.1 1021.4q10.2-15.2-1.55-24.25-7.4-5.7-17.55-10.3-10.9-4.95-20.75-6.65-24.6-4.25-28.7 12.95-2.15 9 4.4 19.15 5.8 9.05 16.55 16.3 10.3 7.05 20.05 9 10.35 2.1 14.95-2.8 7.45-5.8 12.6-13.4z" id="W"/><path fill="url(#u)" d="M337.95 1013.65q-1.45-3.9-5.4-6.95-7.35-5.7-17.5-10.3-10.8-4.9-20.65-6.65-24.5-4.25-28.8 12.75 1.9 8.1 9.4 16.3 6.85 7.45 16.35 12.85 9.35 5.3 17.45 6.35 8.7 1.1 12.7-3.2 3.25-2.5 6.95-6.45 7.4-7.8 9.5-14.7z" id="X"/><path fill="url(#v)" d="M422.2 985.5q-5.55 2-9.65 3.75-.45.35-3 1.35-3.25 1.5-5.05 2.5-8.45 5.4-10 16.2-.75 5.4.15 9.75 2.4 7.95 6 13 4.65 6.65 10.9 7.75 6 1.1 14.15-1.9 8-2.9 15.7-8.95 17.95-13.9 21.75-32.2 3.4-16.55-13.85-16.85-10.55-.15-27.1 5.6z" id="Y"/><path fill="url(#w)" d="M422.2 985.5q-5.55 2-9.65 3.75-.45.35-3 1.35-3.25 1.5-5.05 2.5-6.15 3.9-8.7 10.85 1.5-1.3 2.95-2.25 2.6-1.35 5.05-2.5 2.55-1 3-1.35 5.45-2.25 9.65-3.7 16.4-5.8 27.1-5.6 17.25.25 13.85 16.8-1.25 6.15-4.65 12.5 8.1-10.15 10.4-21.1 3.4-16.55-13.85-16.85-10.55-.15-27.1 5.6z" id="Z"/><path fill="url(#x)" d="M479.6 1182.8l-33.8-34.8-40.85 49.85-38-49.85-50.85 47.55-30.4-47.55-8.6 6.3 39 58.1 49.8-49.35 39.15 53.25 41.4-55.95 40 37.5q3.4-2.95 8.1-9.15 9.45-12.4 16.15-28.8 21.45-52.45 7.25-125.1l-7.25 11.45q3.95 28.25.3 57-6 46.95-31.4 79.55z" id="aa"/><path fill="url(#y)" d="M224.2 1064.45l-5.15-9.1q-13.95 31.9-13.55 64.8.3 25.35 9 49.8l17.35 34.05 10.3-11.35q-12.2-17.95-18.2-42.9-9.4-39.4.25-85.3z" id="ab"/><path fill="url(#z)" d="M443.15 1056.2l-7.15 11.25 20.55 24.65 19.45 8.8-32.85-44.7z" id="ac"/><path fill="url(#A)" d="M382.95 1104.7l20.5 13.7-34.1-55.05-45.05 60.55 12.75-5.5 29.9-39.85 16 26.15z" id="ad"/><path fill="url(#B)" d="M294.55 1070.3l-5.5-9.85-38.5 50.4 22.9-9.95 21.1-30.6z" id="ae"/></defs><use xlink:href="#C"/><use xlink:href="#D" transform="matrix(.53992 0 0 .53992 -47.803 -373.997)"/><use xlink:href="#E" transform="matrix(.53992 0 0 .53992 -47.803 -373.997)"/><use xlink:href="#F" transform="matrix(.53992 0 0 .53992 -47.803 -373.997)"/><use xlink:href="#G" transform="matrix(.53992 0 0 .53992 -47.803 -373.997)"/><use xlink:href="#H" transform="matrix(.53992 0 0 .53992 -47.803 -373.997)"/><use xlink:href="#I" transform="matrix(.53992 0 0 .53992 -47.803 -373.997)"/><use xlink:href="#J" transform="matrix(.53992 0 0 .53992 -47.803 -373.997)"/><use xlink:href="#K" transform="matrix(.53992 0 0 .53992 -47.803 -373.997)"/><use xlink:href="#L" transform="matrix(.53992 0 0 .53992 -47.803 -373.997)"/><use xlink:href="#M" transform="matrix(.53992 0 0 .53992 -47.803 -373.997)"/><use xlink:href="#N" transform="matrix(.53992 0 0 .53992 -47.803 -373.997)"/><use xlink:href="#O" transform="matrix(.53992 0 0 .53992 -47.803 -373.997)"/><use xlink:href="#P" transform="matrix(.53992 0 0 .53992 -47.803 -373.997)"/><use xlink:href="#Q" transform="matrix(.53992 0 0 .53992 -47.803 -373.997)"/><use xlink:href="#R" transform="matrix(.53992 0 0 .53992 -47.803 -373.997)"/><use xlink:href="#S" transform="matrix(.53992 0 0 .53992 -47.803 -373.997)"/><use xlink:href="#T" transform="matrix(.53992 0 0 .53992 -47.803 -373.997)"/><use xlink:href="#U" transform="matrix(.53992 0 0 .53992 -47.803 -373.997)"/><use xlink:href="#V" transform="matrix(.53992 0 0 .53992 -47.803 -373.997)"/><use xlink:href="#W" transform="matrix(.53992 0 0 .53992 -47.803 -373.997)"/><use xlink:href="#X" transform="matrix(.53992 0 0 .53992 -47.803 -373.997)"/><use xlink:href="#Y" transform="matrix(.53992 0 0 .53992 -47.803 -373.997)"/><use xlink:href="#Z" transform="matrix(.53992 0 0 .53992 -47.803 -373.997)"/><use xlink:href="#aa" transform="matrix(.53992 0 0 .53992 -47.803 -373.997)"/><use xlink:href="#ab" transform="matrix(.53992 0 0 .53992 -47.803 -373.997)"/><use xlink:href="#ac" transform="matrix(.53992 0 0 .53992 -47.803 -373.997)"/><use xlink:href="#ad" transform="matrix(.53992 0 0 .53992 -47.803 -373.997)"/><use xlink:href="#ae" transform="matrix(.53992 0 0 .53992 -47.803 -373.997)"/></svg>