<svg xmlns="http://www.w3.org/2000/svg" xmlns:xlink="http://www.w3.org/1999/xlink" preserveAspectRatio="none" width="284" height="320"><defs><linearGradient id="a" gradientUnits="userSpaceOnUse" x1="357.625" y1="1510.625" x2="342.275" y2="1509.375" spreadMethod="pad"><stop offset="0%" stop-color="#E8C482"/><stop offset="100%" stop-color="#F7D697"/></linearGradient><linearGradient id="b" gradientUnits="userSpaceOnUse" x1="351.4" y1="1586.688" x2="351.4" y2="1985.213" spreadMethod="pad"><stop offset="0%" stop-color="#FED090"/><stop offset="1.961%" stop-color="#FEC77E"/><stop offset="5.098%" stop-color="#FCB862"/><stop offset="8.235%" stop-color="#FBAD4B"/><stop offset="11.373%" stop-color="#FAA63C"/><stop offset="14.51%" stop-color="#F9A135"/><stop offset="17.647%" stop-color="#F9A033"/><stop offset="65.098%" stop-color="#E77035"/><stop offset="72.157%" stop-color="#E06D35"/><stop offset="79.608%" stop-color="#CF6536"/><stop offset="87.059%" stop-color="#B55835"/><stop offset="94.51%" stop-color="#954933"/><stop offset="100%" stop-color="#7C3D30"/></linearGradient><linearGradient id="c" gradientUnits="userSpaceOnUse" x1="501.45" y1="1591.925" x2="501.45" y2="1971.675" spreadMethod="pad"><stop offset="0%" stop-color="#FFECB4"/><stop offset=".784%" stop-color="#FFE5A6"/><stop offset="3.922%" stop-color="#FFD282"/><stop offset="6.667%" stop-color="#FEC363"/><stop offset="9.412%" stop-color="#FCB74B"/><stop offset="12.157%" stop-color="#FBAF3C"/><stop offset="14.902%" stop-color="#FBAA34"/><stop offset="17.647%" stop-color="#FAA832"/><stop offset="65.098%" stop-color="#ED7C37"/><stop offset="71.765%" stop-color="#E67837"/><stop offset="78.431%" stop-color="#D66E37"/><stop offset="85.49%" stop-color="#BE6136"/><stop offset="92.941%" stop-color="#A05034"/><stop offset="92.941%" stop-color="#A05034" stop-opacity="0"/><stop offset="100%" stop-opacity="0"/></linearGradient><linearGradient id="d" gradientUnits="userSpaceOnUse" x1="501.45" y1="1591.925" x2="501.45" y2="1971.675" spreadMethod="pad"><stop offset="0%" stop-opacity="0"/><stop offset="92.941%" stop-color="#A05034" stop-opacity="0"/><stop offset="92.941%" stop-color="#A05034"/><stop offset="100%" stop-color="#7D3E30"/><stop offset="100%" stop-color="#7C3D30"/></linearGradient><linearGradient id="e" gradientUnits="userSpaceOnUse" x1="453.7" y1="1591.925" x2="453.7" y2="1971.675" spreadMethod="pad"><stop offset="0%" stop-color="#FFECB4"/><stop offset=".784%" stop-color="#FFE5A6"/><stop offset="3.922%" stop-color="#FFD282"/><stop offset="6.667%" stop-color="#FEC363"/><stop offset="9.412%" stop-color="#FCB74B"/><stop offset="12.157%" stop-color="#FBAF3C"/><stop offset="14.902%" stop-color="#FBAA34"/><stop offset="17.647%" stop-color="#FAA832"/><stop offset="65.098%" stop-color="#ED7C37"/><stop offset="71.765%" stop-color="#E67837"/><stop offset="78.431%" stop-color="#D66E37"/><stop offset="85.49%" stop-color="#BE6136"/><stop offset="92.941%" stop-color="#A05034"/><stop offset="92.941%" stop-color="#A05034" stop-opacity="0"/><stop offset="100%" stop-opacity="0"/></linearGradient><linearGradient id="f" gradientUnits="userSpaceOnUse" x1="453.7" y1="1591.925" x2="453.7" y2="1971.675" spreadMethod="pad"><stop offset="0%" stop-opacity="0"/><stop offset="92.941%" stop-color="#A05034" stop-opacity="0"/><stop offset="92.941%" stop-color="#A05034"/><stop offset="100%" stop-color="#7D3E30"/><stop offset="100%" stop-color="#7C3D30"/></linearGradient><linearGradient id="g" gradientUnits="userSpaceOnUse" x1="360.1" y1="1591.925" x2="360.1" y2="1971.675" spreadMethod="pad"><stop offset="0%" stop-color="#FFECB4"/><stop offset=".784%" stop-color="#FFE5A6"/><stop offset="3.922%" stop-color="#FFD282"/><stop offset="6.667%" stop-color="#FEC363"/><stop offset="9.412%" stop-color="#FCB74B"/><stop offset="12.157%" stop-color="#FBAF3C"/><stop offset="14.902%" stop-color="#FBAA34"/><stop offset="17.647%" stop-color="#FAA832"/><stop offset="65.098%" stop-color="#ED7C37"/><stop offset="71.765%" stop-color="#E67837"/><stop offset="78.431%" stop-color="#D66E37"/><stop offset="85.49%" stop-color="#BE6136"/><stop offset="92.941%" stop-color="#A05034"/><stop offset="92.941%" stop-color="#A05034" stop-opacity="0"/><stop offset="100%" stop-opacity="0"/></linearGradient><linearGradient id="h" gradientUnits="userSpaceOnUse" x1="360.1" y1="1591.925" x2="360.1" y2="1971.675" spreadMethod="pad"><stop offset="0%" stop-opacity="0"/><stop offset="92.941%" stop-color="#A05034" stop-opacity="0"/><stop offset="92.941%" stop-color="#A05034"/><stop offset="100%" stop-color="#7D3E30"/><stop offset="100%" stop-color="#7C3D30"/></linearGradient><linearGradient id="i" gradientUnits="userSpaceOnUse" x1="279.05" y1="1596.113" x2="279.05" y2="1971.688" spreadMethod="pad"><stop offset="0%" stop-color="#FFECB4"/><stop offset=".784%" stop-color="#FFE5A6"/><stop offset="3.922%" stop-color="#FFD282"/><stop offset="6.667%" stop-color="#FEC363"/><stop offset="9.412%" stop-color="#FCB74B"/><stop offset="12.157%" stop-color="#FBAF3C"/><stop offset="14.902%" stop-color="#FBAA34"/><stop offset="17.647%" stop-color="#FAA832"/><stop offset="65.098%" stop-color="#ED7C37"/><stop offset="71.765%" stop-color="#E67837"/><stop offset="78.431%" stop-color="#D66E37"/><stop offset="85.49%" stop-color="#BE6136"/><stop offset="92.941%" stop-color="#A05034"/><stop offset="92.941%" stop-color="#A05034" stop-opacity="0"/><stop offset="100%" stop-opacity="0"/></linearGradient><linearGradient id="j" gradientUnits="userSpaceOnUse" x1="279.05" y1="1596.113" x2="279.05" y2="1971.688" spreadMethod="pad"><stop offset="0%" stop-opacity="0"/><stop offset="92.941%" stop-color="#A05034" stop-opacity="0"/><stop offset="92.941%" stop-color="#A05034"/><stop offset="100%" stop-color="#7D3E30"/><stop offset="100%" stop-color="#7C3D30"/></linearGradient><linearGradient id="k" gradientUnits="userSpaceOnUse" x1="218.85" y1="1591.925" x2="218.85" y2="1971.675" spreadMethod="pad"><stop offset="0%" stop-color="#FFECB4"/><stop offset=".784%" stop-color="#FFE5A6"/><stop offset="3.922%" stop-color="#FFD282"/><stop offset="6.667%" stop-color="#FEC363"/><stop offset="9.412%" stop-color="#FCB74B"/><stop offset="12.157%" stop-color="#FBAF3C"/><stop offset="14.902%" stop-color="#FBAA34"/><stop offset="17.647%" stop-color="#FAA832"/><stop offset="65.098%" stop-color="#ED7C37"/><stop offset="71.765%" stop-color="#E67837"/><stop offset="78.431%" stop-color="#D66E37"/><stop offset="85.49%" stop-color="#BE6136"/><stop offset="92.941%" stop-color="#A05034"/><stop offset="92.941%" stop-color="#A05034" stop-opacity="0"/><stop offset="100%" stop-opacity="0"/></linearGradient><linearGradient id="l" gradientUnits="userSpaceOnUse" x1="218.85" y1="1591.925" x2="218.85" y2="1971.675" spreadMethod="pad"><stop offset="0%" stop-opacity="0"/><stop offset="92.941%" stop-color="#A05034" stop-opacity="0"/><stop offset="92.941%" stop-color="#A05034"/><stop offset="100%" stop-color="#7D3E30"/><stop offset="100%" stop-color="#7C3D30"/></linearGradient><linearGradient id="m" gradientUnits="userSpaceOnUse" x1="167.75" y1="1591.925" x2="167.75" y2="1971.675" spreadMethod="pad"><stop offset="0%" stop-color="#FFECB4"/><stop offset=".784%" stop-color="#FFE5A6"/><stop offset="3.922%" stop-color="#FFD282"/><stop offset="6.667%" stop-color="#FEC363"/><stop offset="9.412%" stop-color="#FCB74B"/><stop offset="12.157%" stop-color="#FBAF3C"/><stop offset="14.902%" stop-color="#FBAA34"/><stop offset="17.647%" stop-color="#FAA832"/><stop offset="65.098%" stop-color="#ED7C37"/><stop offset="71.765%" stop-color="#E67837"/><stop offset="78.431%" stop-color="#D66E37"/><stop offset="85.49%" stop-color="#BE6136"/><stop offset="92.941%" stop-color="#A05034"/><stop offset="92.941%" stop-color="#A05034" stop-opacity="0"/><stop offset="100%" stop-opacity="0"/></linearGradient><linearGradient id="n" gradientUnits="userSpaceOnUse" x1="167.75" y1="1591.925" x2="167.75" y2="1971.675" spreadMethod="pad"><stop offset="0%" stop-opacity="0"/><stop offset="92.941%" stop-color="#A05034" stop-opacity="0"/><stop offset="92.941%" stop-color="#A05034"/><stop offset="100%" stop-color="#7D3E30"/><stop offset="100%" stop-color="#7C3D30"/></linearGradient><linearGradient id="o" gradientUnits="userSpaceOnUse" x1="339.45" y1="1983.8" x2="339.45" y2="1938.5" spreadMethod="pad"><stop offset="0%" stop-color="#7C3D30"/><stop offset="100%" stop-color="#8C4334"/></linearGradient><linearGradient id="p" gradientUnits="userSpaceOnUse" x1="308.85" y1="1595.237" x2="308.85" y2="1501.362" spreadMethod="pad"><stop offset="0%" stop-color="#C79F53"/><stop offset="19.216%" stop-color="#C9A156"/><stop offset="38.824%" stop-color="#CFA75E"/><stop offset="59.216%" stop-color="#D9B36D"/><stop offset="79.216%" stop-color="#E8C582"/><stop offset="99.608%" stop-color="#FFDEA0"/><stop offset="100%" stop-color="#FFDFA1"/></linearGradient><linearGradient id="q" gradientUnits="userSpaceOnUse" x1="372.15" y1="1511.412" x2="372.15" y2="1625.188" spreadMethod="pad"><stop offset="0%" stop-color="#C79F53"/><stop offset="19.216%" stop-color="#C9A156"/><stop offset="38.824%" stop-color="#CFA75E"/><stop offset="59.216%" stop-color="#D9B36D"/><stop offset="79.216%" stop-color="#E8C582"/><stop offset="99.608%" stop-color="#FFDEA0"/><stop offset="100%" stop-color="#FFDFA1"/></linearGradient><linearGradient id="r" gradientUnits="userSpaceOnUse" x1="384.1" y1="1470.063" x2="384.1" y2="1537.938" spreadMethod="pad"><stop offset="0%" stop-color="#554434"/><stop offset="10.98%" stop-color="#594735"/><stop offset="27.843%" stop-color="#655039"/><stop offset="48.235%" stop-color="#7A6140"/><stop offset="61.961%" stop-color="#8B7045"/><stop offset="100%" stop-color="#C79F53"/></linearGradient><linearGradient id="s" gradientUnits="userSpaceOnUse" x1="440.65" y1="1637.8" x2="440.65" y2="1714.4" spreadMethod="pad"><stop offset="0%" stop-color="#492A24"/><stop offset="19.608%" stop-color="#4B2B24"/><stop offset="39.608%" stop-color="#522D26"/><stop offset="60.392%" stop-color="#5C3128"/><stop offset="80.784%" stop-color="#6A372C"/><stop offset="100%" stop-color="#7C3D30"/></linearGradient><linearGradient id="t" gradientUnits="userSpaceOnUse" x1="282.1" y1="1640.15" x2="282.1" y2="1716.75" spreadMethod="pad"><stop offset="0%" stop-color="#492A24"/><stop offset="19.608%" stop-color="#4B2B24"/><stop offset="39.608%" stop-color="#522D26"/><stop offset="60.392%" stop-color="#5C3128"/><stop offset="80.784%" stop-color="#6A372C"/><stop offset="100%" stop-color="#7C3D30"/></linearGradient><linearGradient id="u" gradientUnits="userSpaceOnUse" x1="440.65" y1="1682.3" x2="440.65" y2="1703.7" spreadMethod="pad"><stop offset="0%" stop-color="#B8682F"/><stop offset="11.765%" stop-color="#C17131"/><stop offset="70.588%" stop-color="#E9A348"/><stop offset="100%" stop-color="#FDBC56"/></linearGradient><linearGradient id="v" gradientUnits="userSpaceOnUse" x1="282.1" y1="1686.25" x2="282.1" y2="1707.65" spreadMethod="pad"><stop offset="0%" stop-color="#B8682F"/><stop offset="11.765%" stop-color="#C17131"/><stop offset="70.588%" stop-color="#E9A348"/><stop offset="100%" stop-color="#FDBC56"/></linearGradient><linearGradient id="w" gradientUnits="userSpaceOnUse" x1="363.75" y1="1718.575" x2="363.75" y2="1857.825" spreadMethod="pad"><stop offset="0%" stop-color="#492A24"/><stop offset="19.608%" stop-color="#4B2B24"/><stop offset="39.608%" stop-color="#522D26"/><stop offset="60.392%" stop-color="#5C3128"/><stop offset="80.784%" stop-color="#6A372C"/><stop offset="100%" stop-color="#7C3D30"/></linearGradient><linearGradient id="x" gradientUnits="userSpaceOnUse" x1="368.775" y1="1759.287" x2="378.125" y2="1828.313" spreadMethod="pad"><stop offset="0%" stop-color="#B8682F"/><stop offset="11.765%" stop-color="#C17131"/><stop offset="70.588%" stop-color="#E9A348"/><stop offset="100%" stop-color="#FDBC56"/></linearGradient><path fill="#FFF" fill-opacity="0" d="M284 320V0H0v320h284z" id="y"/><path fill="url(#a)" d="M374.1 1517q10.05-9.05 10.3-13.7.25-4.95-7.85-7.75-6-2.1-14.8-2.6-5.55-.3-14.4 5-4.45 2.65-7.75 5.35l9.1 13.85 15.35 7.95q5-3.6 10.05-8.1z" id="z"/><path fill="url(#b)" d="M566.45 1647.7q-9.5-21.75-25.7-34.6-19.5-15.5-51.15-23.4-32.2-8.05-65.75-5.4-14.45 1.15-33.7.5-24.5-1.15-40.05-1.85-63.75-2.75-140.05 1.35-24.15 1.3-42.35 18.65-16.9 16.05-27.6 44.75-10 26.85-13.7 62.2-3.55 33.9-.8 71.05 2.75 36.85 11.25 71.15 8.7 35.3 22.25 62.65 14.35 28.95 32.4 45.45 19.45 17.8 41.65 19.65 76.55 6.4 158.5 3.85 41-1.3 66.65-3.85 15.35-1.05 34.05-24.15 27.35-33.8 57.2-109.85 32.4-82.55 28.4-146.5-1.8-29.45-11.5-51.65z" id="A"/><path fill="url(#c)" d="M540.75 1613.1q-19.3-15.3-50.45-23.2-31.7-8.1-64.85-5.7 1.3 3.1 15 5.65 19.25 3.55 29.05 7.35 41.9 16 48.25 67.45 8.4 67.8-22.35 168.35-15.4 50.25-32.45 86.95l-19.55 61 14.9-1.1q15.95-1.1 35.05-24.15 28.2-34.15 56.2-109.85 31.05-83.9 27.55-146.8-3.25-59.7-36.35-85.95z" id="B"/><path fill="url(#d)" d="M540.75 1613.1q-19.3-15.3-50.45-23.2-31.7-8.1-64.85-5.7 1.3 3.1 15 5.65 19.25 3.55 29.05 7.35 41.9 16 48.25 67.45 8.4 67.8-22.35 168.35-15.4 50.25-32.45 86.95l-19.55 61 14.9-1.1q15.95-1.1 35.05-24.15 28.2-34.15 56.2-109.85 31.05-83.9 27.55-146.8-3.25-59.7-36.35-85.95z" id="C"/><path fill="url(#e)" d="M512.4 1685.75q-3.95-43.4-23.35-65.7-14.6-16.75-35-19.2-11-1.3-15.2-1.3-7.85.05-12.6 3-11.8 7.15-11.8 36.6 0 69.25-15.65 288.2l-4.2 35.4 13.95 12.75 22.25-3.85L449 1957l13.95-37.05q13.85-42.45 26.95-92.95 26.2-100.95 22.5-141.25z" id="D"/><path fill="url(#f)" d="M512.4 1685.75q-3.95-43.4-23.35-65.7-14.6-16.75-35-19.2-11-1.3-15.2-1.3-7.85.05-12.6 3-11.8 7.15-11.8 36.6 0 69.25-15.65 288.2l-4.2 35.4 13.95 12.75 22.25-3.85L449 1957l13.95-37.05q13.85-42.45 26.95-92.95 26.2-100.95 22.5-141.25z" id="E"/><path fill="url(#g)" d="M404 1604.05q-4.4-7.75-25.2-10.2-19.35-2.25-38.25 1.3-9.85 1.85-14.4 3.7-5.8 2.35-8.6 6.55-5.3 7.9-3.75 33.75 1.1 17.9 2.1 133.3 1.95 116.3 7.8 156.6 6.1 41.8 34.85 48.3 8.95 2.05 19.15.3 5.05-.85 8.35-2.15l8.55-9.6 3.75-34.9q2.7-42.3 5.05-90.4 4.7-96.15 3-124.85-1.1-18.9.1-69 .9-36.7-2.5-42.7z" id="F"/><path fill="url(#h)" d="M404 1604.05q-4.4-7.75-25.2-10.2-19.35-2.25-38.25 1.3-9.85 1.85-14.4 3.7-5.8 2.35-8.6 6.55-5.3 7.9-3.75 33.75 1.1 17.9 2.1 133.3 1.95 116.3 7.8 156.6 6.1 41.8 34.85 48.3 8.95 2.05 19.15.3 5.05-.85 8.35-2.15l8.55-9.6 3.75-34.9q2.7-42.3 5.05-90.4 4.7-96.15 3-124.85-1.1-18.9.1-69 .9-36.7-2.5-42.7z" id="G"/><path fill="url(#i)" d="M301.9 1595.2q-6.8-2-14.65-2.95-22.55-2.7-41.4 4.75-10.55 4.2-14.45 45.15-3.55 37.55-.7 94.3 2.9 56.15 10.85 108.05 8.55 55.7 20.05 86.3l11.55 38.3 36.3 6.4 19.15-9.6-4.9-36.85q-2.45-20.95-5.55-56.15-6.15-70.45-9.15-141.85-2.85-67.1-.6-108.45 1.05-15.2 1.25-18.85.35-5-.65-5.75-1.55-1.15-7.1-2.8z" id="H"/><path fill="url(#j)" d="M301.9 1595.2q-6.8-2-14.65-2.95-22.55-2.7-41.4 4.75-10.55 4.2-14.45 45.15-3.55 37.55-.7 94.3 2.9 56.15 10.85 108.05 8.55 55.7 20.05 86.3l11.55 38.3 36.3 6.4 19.15-9.6-4.9-36.85q-2.45-20.95-5.55-56.15-6.15-70.45-9.15-141.85-2.85-67.1-.6-108.45 1.05-15.2 1.25-18.85.35-5-.65-5.75-1.55-1.15-7.1-2.8z" id="I"/><path fill="url(#k)" d="M229.45 1591.1q-9.3-4.85-16.8-4.55-11.75.45-19.8 13-6.4 9.95-12.6 32.2-8.3 29.8-10.75 66-7 103.7 35.65 222.2l4.8 38.3 44.45 14.7 14.75-16.95-7.55-25.2q-11.15-27.45-21.9-68.65-21.4-82.5-19.05-151.5 2.1-61.2 8.9-99.55 2.5-13.95 2.55-15 .15-3.5-2.65-5z" id="J"/><path fill="url(#l)" d="M229.45 1591.1q-9.3-4.85-16.8-4.55-11.75.45-19.8 13-6.4 9.95-12.6 32.2-8.3 29.8-10.75 66-7 103.7 35.65 222.2l4.8 38.3 44.45 14.7 14.75-16.95-7.55-25.2q-11.15-27.45-21.9-68.65-21.4-82.5-19.05-151.5 2.1-61.2 8.9-99.55 2.5-13.95 2.55-15 .15-3.5-2.65-5z" id="K"/><path fill="url(#m)" d="M171.7 1640.9q7.1-35.55 19.35-52.75-34.5 12.65-52.1 62.85-16.05 45.65-14.35 109.3 1.65 62.05 19.25 116.4 18.65 57.65 48.6 84.35l9.5-2.15 9.1-16.6-5.9-22.35q-12.05-18.5-23.5-50.65-22.9-64.3-19.85-132.5 2.65-59.45 9.9-95.9z" id="L"/><path fill="url(#n)" d="M171.7 1640.9q7.1-35.55 19.35-52.75-34.5 12.65-52.1 62.85-16.05 45.65-14.35 109.3 1.65 62.05 19.25 116.4 18.65 57.65 48.6 84.35l9.5-2.15 9.1-16.6-5.9-22.35q-12.05-18.5-23.5-50.65-22.9-64.3-19.85-132.5 2.65-59.45 9.9-95.9z" id="M"/><path fill="url(#o)" d="M362.05 1964.8q-8.05-.5-16.9-5.2-17.65-9.4-21.45-30.55 1.75 13.65-1.9 23.35-6 16.05-25.55 15.05-4.35-.2-10.9-4.9-13.05-9.4-23.75-31.75l1.25 5.65q1.1 6.7.45 12.15-2.15 17.5-21.2 15.95-19.1-1.55-29.95-23.2-3.35-6.8-5.5-14.8l-1.5-6.6.75 8.6q.35 9.7-1.7 15.35-6.6 18.1-35-11.1 13.25 21 28.85 32.9 16.65 12.6 35.1 14.15 76.55 6.4 158.5 3.85 41-1.3 66.65-3.85 14.25-.95 24.35-9.4 12.85-10.7 27-38.35l-4.3 5.45Q500 1944 494.7 1949.3q-16.9 16.8-26.95 15.25-10.05-1.55-8.4-23.2.5-6.8 2.1-14.8l1.5-6.6-2.25 6.65q-3.05 8-7.05 14.8-12.75 21.75-30.15 23.3-15.05 1.35-21.15-14.25-3.75-9.6-3.55-23.1-.2 2.35-.65 9.9-.85 7.35-3.55 12.6-7.95 15.35-32.55 14.95z" id="N"/><path fill="url(#p)" d="M277.4 1579.6q-6.6 1.75-12.65 4.15l-14.75 6q18.55-3.65 33.6-3.05 23 .9 32.35 11.85l41.45-22.25 10.3-55.65-10.3-11.4q-3.3.25-7.2-.35-7.75-1.25-10.6-5.6l1.3 8q.9 9.5-1.3 17.1-1.1 5.15-5.45 13.05-4.45 8.15-10.45 15.65-14.9 18.65-26.8 19.2-9.05.45-19.5 3.3z" id="O"/><path fill="url(#q)" d="M384.4 1503.3q-3.2 1.5-8.2 3-10 2.95-18.8 2.95l-.6 7.95q-1.2 10.05-4.4 20.7-10.25 33.95-36.45 60.65l3.6-1.7q4.65-2.1 10.1-3.75 17.4-5.4 36.05-4.95 18.7.45 35.3 5.95 8.3 2.8 12.85 5.45 1.75-1.65 4.45-3.3 5.4-3.3 10.05-3.2-7.85-4.75-16.7-11.8-17.6-14.1-22.3-25.55-4.65-11.45-5.25-33.05l.3-19.35z" id="P"/><path fill="url(#r)" d="M375.85 1512.45q.35 7.4 1.6 14.55 3.95 22.9 15 34.5h.05q-1.9-2.8-3.15-5.8-4.65-11.45-5.25-33.05l.3-19.35q-3.45 1.6-8.7 3.15l.15 6z" id="Q"/><path fill="url(#s)" d="M485.05 1696.7l-33.95-59.2-54.85 80.55 88.8-21.35z" id="R"/><path fill="url(#t)" d="M267.8 1639.85l-36.5 62.55 101.6 17.95-65.1-80.5z" id="S"/><path fill="url(#u)" d="M451.1 1637.5l-6.55 11.55 25.05 44.05-69.5 19.25-3.85 5.7 88.8-21.35-33.95-59.2z" id="T"/><path fill="url(#v)" d="M332.9 1720.35l-6.2-7.65-78.05-14.4 28.15-47.3-9-11.15-36.5 62.55 101.6 17.95z" id="U"/><path fill="url(#w)" d="M532.1 1726.1l-15.4 10.9q-19.55 12.9-40.15 22.6-13.25 5.15-34.1 10.9-41.7 11.6-79.8 14.9l-.2-.4q-7.45.55-16.65.95l-.2.55q-38.45 1.35-68.25-7-35.35-9.9-57.6-33.2-7.9-8.6-16.9-19.3l-7.45-8.95 10.25 31.2q12.2 36.45 21.8 62.95 6.05 16.65 20.8 29.25 15.9 13.55 38.5 19.25 54.15 13.6 125.4-20.7 38.85-18.65 60.35-31.8 21.5-13.15 32.9-25.2 10.2-10.75 16.3-25.15 3.25-7.75 10.4-31.75z" id="V"/><path fill="url(#x)" d="M532.1 1726.1l-4.05 3.05q-5.25 3.85-11.35 7.85-2 16.15-12.45 31.9-16 24.2-48.55 40.85-29.3 15-49.75 23.55-28.3 11.85-51.6 16.9-58.1 12.65-97.15-14.8-4.35-2.75-11.2-15.3-13.7-25-26.25-73.8-7.9-8.6-16.9-19.3l-7.45-8.95 10.25 31.2q12.2 36.45 21.8 62.95 6.05 16.65 20.8 29.25 15.9 13.55 38.5 19.25 54.15 13.6 125.4-20.7 38.85-18.65 60.35-31.8 21.5-13.15 32.9-25.2 10.2-10.75 16.3-25.15 3.25-7.75 10.4-31.75z" id="W"/></defs><use xlink:href="#y"/><use xlink:href="#z" transform="matrix(.53288 0 0 .53288 -45.29 -747.567)"/><use xlink:href="#A" transform="matrix(.53288 0 0 .53288 -45.29 -747.567)"/><use xlink:href="#B" transform="matrix(.53288 0 0 .53288 -45.29 -747.567)"/><use xlink:href="#C" transform="matrix(.53288 0 0 .53288 -45.29 -747.567)"/><use xlink:href="#D" transform="matrix(.53288 0 0 .53288 -45.29 -747.567)"/><use xlink:href="#E" transform="matrix(.53288 0 0 .53288 -45.29 -747.567)"/><use xlink:href="#F" transform="matrix(.53288 0 0 .53288 -45.29 -747.567)"/><use xlink:href="#G" transform="matrix(.53288 0 0 .53288 -45.29 -747.567)"/><use xlink:href="#H" transform="matrix(.53288 0 0 .53288 -45.29 -747.567)"/><use xlink:href="#I" transform="matrix(.53288 0 0 .53288 -45.29 -747.567)"/><use xlink:href="#J" transform="matrix(.53288 0 0 .53288 -45.29 -747.567)"/><use xlink:href="#K" transform="matrix(.53288 0 0 .53288 -45.29 -747.567)"/><use xlink:href="#L" transform="matrix(.53288 0 0 .53288 -45.29 -747.567)"/><use xlink:href="#M" transform="matrix(.53288 0 0 .53288 -45.29 -747.567)"/><use xlink:href="#N" transform="matrix(.53288 0 0 .53288 -45.29 -747.567)"/><use xlink:href="#O" transform="matrix(.53288 0 0 .53288 -45.29 -747.567)"/><use xlink:href="#P" transform="matrix(.53288 0 0 .53288 -45.29 -747.567)"/><use xlink:href="#Q" transform="matrix(.53288 0 0 .53288 -45.29 -747.567)"/><use xlink:href="#R" transform="matrix(.53288 0 0 .53288 -45.29 -747.567)"/><use xlink:href="#S" transform="matrix(.53288 0 0 .53288 -45.29 -747.567)"/><use xlink:href="#T" transform="matrix(.53288 0 0 .53288 -45.29 -747.567)"/><use xlink:href="#U" transform="matrix(.53288 0 0 .53288 -45.29 -747.567)"/><use xlink:href="#V" transform="matrix(.53288 0 0 .53288 -45.29 -747.567)"/><use xlink:href="#W" transform="matrix(.53288 0 0 .53288 -45.29 -747.567)"/></svg>