<svg xmlns="http://www.w3.org/2000/svg" xmlns:xlink="http://www.w3.org/1999/xlink" preserveAspectRatio="none" width="284" height="320"><defs><linearGradient id="a" gradientUnits="userSpaceOnUse" x1="2447.075" y1="2202.325" x2="2461.325" y2="2203.475" spreadMethod="pad"><stop offset="0%" stop-color="#E8C482"/><stop offset="100%" stop-color="#F7D697"/></linearGradient><linearGradient id="b" gradientUnits="userSpaceOnUse" x1="2451.4" y1="2279.65" x2="2451.4" y2="2678.15" spreadMethod="pad"><stop offset="0%" stop-color="#FED090"/><stop offset="1.961%" stop-color="#FEC77E"/><stop offset="5.098%" stop-color="#FCB862"/><stop offset="8.235%" stop-color="#FBAD4B"/><stop offset="11.373%" stop-color="#FAA63C"/><stop offset="14.51%" stop-color="#F9A135"/><stop offset="17.647%" stop-color="#F9A033"/><stop offset="65.098%" stop-color="#E77035"/><stop offset="72.157%" stop-color="#E06D35"/><stop offset="79.608%" stop-color="#CF6536"/><stop offset="87.059%" stop-color="#B55835"/><stop offset="94.51%" stop-color="#954933"/><stop offset="100%" stop-color="#7C3D30"/></linearGradient><linearGradient id="c" gradientUnits="userSpaceOnUse" x1="2347.55" y1="2288.6" x2="2347.55" y2="2663.1" spreadMethod="pad"><stop offset="0%" stop-color="#FFECB4"/><stop offset=".784%" stop-color="#FFE5A6"/><stop offset="3.922%" stop-color="#FFD282"/><stop offset="6.667%" stop-color="#FEC363"/><stop offset="9.412%" stop-color="#FCB74B"/><stop offset="12.157%" stop-color="#FBAF3C"/><stop offset="14.902%" stop-color="#FBAA34"/><stop offset="17.647%" stop-color="#FAA832"/><stop offset="65.098%" stop-color="#ED7C37"/><stop offset="71.765%" stop-color="#E67837"/><stop offset="78.431%" stop-color="#D66E37"/><stop offset="85.49%" stop-color="#BE6136"/><stop offset="92.941%" stop-color="#A05034"/><stop offset="92.941%" stop-color="#A05034" stop-opacity="0"/><stop offset="100%" stop-opacity="0"/></linearGradient><linearGradient id="d" gradientUnits="userSpaceOnUse" x1="2347.55" y1="2288.6" x2="2347.55" y2="2663.1" spreadMethod="pad"><stop offset="0%" stop-opacity="0"/><stop offset="92.941%" stop-color="#A05034" stop-opacity="0"/><stop offset="92.941%" stop-color="#A05034"/><stop offset="100%" stop-color="#7D3E30"/><stop offset="100%" stop-color="#7C3D30"/></linearGradient><linearGradient id="e" gradientUnits="userSpaceOnUse" x1="2442.7" y1="2288.6" x2="2442.7" y2="2663.1" spreadMethod="pad"><stop offset="0%" stop-color="#FFECB4"/><stop offset=".784%" stop-color="#FFE5A6"/><stop offset="3.922%" stop-color="#FFD282"/><stop offset="6.667%" stop-color="#FEC363"/><stop offset="9.412%" stop-color="#FCB74B"/><stop offset="12.157%" stop-color="#FBAF3C"/><stop offset="14.902%" stop-color="#FBAA34"/><stop offset="17.647%" stop-color="#FAA832"/><stop offset="65.098%" stop-color="#ED7C37"/><stop offset="71.765%" stop-color="#E67837"/><stop offset="78.431%" stop-color="#D66E37"/><stop offset="85.49%" stop-color="#BE6136"/><stop offset="92.941%" stop-color="#A05034"/><stop offset="92.941%" stop-color="#A05034" stop-opacity="0"/><stop offset="100%" stop-opacity="0"/></linearGradient><linearGradient id="f" gradientUnits="userSpaceOnUse" x1="2442.7" y1="2288.6" x2="2442.7" y2="2663.1" spreadMethod="pad"><stop offset="0%" stop-opacity="0"/><stop offset="92.941%" stop-color="#A05034" stop-opacity="0"/><stop offset="92.941%" stop-color="#A05034"/><stop offset="100%" stop-color="#7D3E30"/><stop offset="100%" stop-color="#7C3D30"/></linearGradient><linearGradient id="g" gradientUnits="userSpaceOnUse" x1="2521.45" y1="2288.6" x2="2521.45" y2="2663.1" spreadMethod="pad"><stop offset="0%" stop-color="#FFECB4"/><stop offset=".784%" stop-color="#FFE5A6"/><stop offset="3.922%" stop-color="#FFD282"/><stop offset="6.667%" stop-color="#FEC363"/><stop offset="9.412%" stop-color="#FCB74B"/><stop offset="12.157%" stop-color="#FBAF3C"/><stop offset="14.902%" stop-color="#FBAA34"/><stop offset="17.647%" stop-color="#FAA832"/><stop offset="65.098%" stop-color="#ED7C37"/><stop offset="71.765%" stop-color="#E67837"/><stop offset="78.431%" stop-color="#D66E37"/><stop offset="85.49%" stop-color="#BE6136"/><stop offset="92.941%" stop-color="#A05034"/><stop offset="92.941%" stop-color="#A05034" stop-opacity="0"/><stop offset="100%" stop-opacity="0"/></linearGradient><linearGradient id="h" gradientUnits="userSpaceOnUse" x1="2521.45" y1="2288.6" x2="2521.45" y2="2663.1" spreadMethod="pad"><stop offset="0%" stop-opacity="0"/><stop offset="92.941%" stop-color="#A05034" stop-opacity="0"/><stop offset="92.941%" stop-color="#A05034"/><stop offset="100%" stop-color="#7D3E30"/><stop offset="100%" stop-color="#7C3D30"/></linearGradient><linearGradient id="i" gradientUnits="userSpaceOnUse" x1="2492.4" y1="2194.325" x2="2492.4" y2="2288.175" spreadMethod="pad"><stop offset="0%" stop-color="#C79F53"/><stop offset="19.216%" stop-color="#C9A156"/><stop offset="38.824%" stop-color="#CFA75E"/><stop offset="59.216%" stop-color="#D9B36D"/><stop offset="79.216%" stop-color="#E8C582"/><stop offset="99.608%" stop-color="#FFDEA0"/><stop offset="100%" stop-color="#FFDFA1"/></linearGradient><linearGradient id="j" gradientUnits="userSpaceOnUse" x1="2433.6" y1="2182.575" x2="2433.6" y2="2281.425" spreadMethod="pad"><stop offset="0%" stop-color="#554434"/><stop offset="16.863%" stop-color="#6A543B"/><stop offset="35.686%" stop-color="#826842"/><stop offset="45.882%" stop-color="#8B7045"/><stop offset="100%" stop-color="#D7AF66"/></linearGradient><linearGradient id="k" gradientUnits="userSpaceOnUse" x1="2307.5" y1="2288.6" x2="2307.5" y2="2663.1" spreadMethod="pad"><stop offset="0%" stop-color="#FFECB4"/><stop offset=".784%" stop-color="#FFE5A6"/><stop offset="3.922%" stop-color="#FFD282"/><stop offset="6.667%" stop-color="#FEC363"/><stop offset="9.412%" stop-color="#FCB74B"/><stop offset="12.157%" stop-color="#FBAF3C"/><stop offset="14.902%" stop-color="#FBAA34"/><stop offset="17.647%" stop-color="#FAA832"/><stop offset="65.098%" stop-color="#ED7C37"/><stop offset="71.765%" stop-color="#E67837"/><stop offset="78.431%" stop-color="#D66E37"/><stop offset="85.49%" stop-color="#BE6136"/><stop offset="92.941%" stop-color="#A05034"/><stop offset="92.941%" stop-color="#A05034" stop-opacity="0"/><stop offset="100%" stop-opacity="0"/></linearGradient><linearGradient id="l" gradientUnits="userSpaceOnUse" x1="2307.5" y1="2288.6" x2="2307.5" y2="2663.1" spreadMethod="pad"><stop offset="0%" stop-opacity="0"/><stop offset="92.941%" stop-color="#A05034" stop-opacity="0"/><stop offset="92.941%" stop-color="#A05034"/><stop offset="100%" stop-color="#7D3E30"/><stop offset="100%" stop-color="#7C3D30"/></linearGradient><linearGradient id="m" gradientUnits="userSpaceOnUse" x1="2583.55" y1="2288.6" x2="2583.55" y2="2663.1" spreadMethod="pad"><stop offset="0%" stop-color="#FFECB4"/><stop offset=".784%" stop-color="#FFE5A6"/><stop offset="3.922%" stop-color="#FFD282"/><stop offset="6.667%" stop-color="#FEC363"/><stop offset="9.412%" stop-color="#FCB74B"/><stop offset="12.157%" stop-color="#FBAF3C"/><stop offset="14.902%" stop-color="#FBAA34"/><stop offset="17.647%" stop-color="#FAA832"/><stop offset="65.098%" stop-color="#ED7C37"/><stop offset="71.765%" stop-color="#E67837"/><stop offset="78.431%" stop-color="#D66E37"/><stop offset="85.49%" stop-color="#BE6136"/><stop offset="92.941%" stop-color="#A05034"/><stop offset="92.941%" stop-color="#A05034" stop-opacity="0"/><stop offset="100%" stop-opacity="0"/></linearGradient><linearGradient id="n" gradientUnits="userSpaceOnUse" x1="2583.55" y1="2288.6" x2="2583.55" y2="2663.1" spreadMethod="pad"><stop offset="0%" stop-opacity="0"/><stop offset="92.941%" stop-color="#A05034" stop-opacity="0"/><stop offset="92.941%" stop-color="#A05034"/><stop offset="100%" stop-color="#7D3E30"/><stop offset="100%" stop-color="#7C3D30"/></linearGradient><linearGradient id="o" gradientUnits="userSpaceOnUse" x1="2625.55" y1="2288.6" x2="2625.55" y2="2663.1" spreadMethod="pad"><stop offset="0%" stop-color="#FFECB4"/><stop offset=".784%" stop-color="#FFE5A6"/><stop offset="3.922%" stop-color="#FFD282"/><stop offset="6.667%" stop-color="#FEC363"/><stop offset="9.412%" stop-color="#FCB74B"/><stop offset="12.157%" stop-color="#FBAF3C"/><stop offset="14.902%" stop-color="#FBAA34"/><stop offset="17.647%" stop-color="#FAA832"/><stop offset="65.098%" stop-color="#ED7C37"/><stop offset="71.765%" stop-color="#E67837"/><stop offset="78.431%" stop-color="#D66E37"/><stop offset="85.49%" stop-color="#BE6136"/><stop offset="92.941%" stop-color="#A05034"/><stop offset="92.941%" stop-color="#A05034" stop-opacity="0"/><stop offset="100%" stop-opacity="0"/></linearGradient><linearGradient id="p" gradientUnits="userSpaceOnUse" x1="2625.55" y1="2288.6" x2="2625.55" y2="2663.1" spreadMethod="pad"><stop offset="0%" stop-opacity="0"/><stop offset="92.941%" stop-color="#A05034" stop-opacity="0"/><stop offset="92.941%" stop-color="#A05034"/><stop offset="100%" stop-color="#7D3E30"/><stop offset="100%" stop-color="#7C3D30"/></linearGradient><linearGradient id="q" gradientUnits="userSpaceOnUse" x1="2452.15" y1="2676.762" x2="2452.15" y2="2634.137" spreadMethod="pad"><stop offset="0%" stop-color="#7C3D30"/><stop offset="100%" stop-color="#8C4334"/></linearGradient><linearGradient id="r" gradientUnits="userSpaceOnUse" x1="2531.3" y1="2352.85" x2="2531.3" y2="2413.45" spreadMethod="pad"><stop offset="0%" stop-color="#B8682F"/><stop offset="11.765%" stop-color="#C17131"/><stop offset="70.588%" stop-color="#E9A348"/><stop offset="100%" stop-color="#FDBC56"/></linearGradient><linearGradient id="s" gradientUnits="userSpaceOnUse" x1="2531.3" y1="2278.713" x2="2531.3" y2="2171.487" spreadMethod="pad"><stop offset="0%" stop-color="#492A24"/><stop offset="19.608%" stop-color="#4B2B24"/><stop offset="39.608%" stop-color="#522D26"/><stop offset="60.392%" stop-color="#5C3128"/><stop offset="80.784%" stop-color="#6A372C"/><stop offset="100%" stop-color="#7C3D30"/></linearGradient><linearGradient id="t" gradientUnits="userSpaceOnUse" x1="2394.35" y1="2352.85" x2="2394.35" y2="2413.45" spreadMethod="pad"><stop offset="0%" stop-color="#B8682F"/><stop offset="11.765%" stop-color="#C17131"/><stop offset="70.588%" stop-color="#E9A348"/><stop offset="100%" stop-color="#FDBC56"/></linearGradient><linearGradient id="u" gradientUnits="userSpaceOnUse" x1="2394.35" y1="2273.425" x2="2394.35" y2="2162.575" spreadMethod="pad"><stop offset="0%" stop-color="#492A24"/><stop offset="19.608%" stop-color="#4B2B24"/><stop offset="39.608%" stop-color="#522D26"/><stop offset="60.392%" stop-color="#5C3128"/><stop offset="80.784%" stop-color="#6A372C"/><stop offset="100%" stop-color="#7C3D30"/></linearGradient><linearGradient id="v" gradientUnits="userSpaceOnUse" x1="2462.112" y1="2447.088" x2="2451.787" y2="2611.112" spreadMethod="pad"><stop offset="0%" stop-color="#492A24"/><stop offset="19.608%" stop-color="#4B2B24"/><stop offset="39.608%" stop-color="#522D26"/><stop offset="60.392%" stop-color="#5C3128"/><stop offset="80.784%" stop-color="#6A372C"/><stop offset="100%" stop-color="#7C3D30"/></linearGradient><linearGradient id="w" gradientUnits="userSpaceOnUse" x1="2461.613" y1="2455.725" x2="2453.688" y2="2581.375" spreadMethod="pad"><stop offset="0%" stop-color="#B8682F"/><stop offset="11.765%" stop-color="#C17131"/><stop offset="70.588%" stop-color="#E9A348"/><stop offset="100%" stop-color="#FDBC56"/></linearGradient><linearGradient id="x" gradientUnits="userSpaceOnUse" x1="2499.5" y1="2513.325" x2="2499.5" y2="2551.875" spreadMethod="pad"><stop offset="0%" stop-color="#B8682F"/><stop offset="11.765%" stop-color="#C17131"/><stop offset="70.588%" stop-color="#E9A348"/><stop offset="100%" stop-color="#FDBC56"/></linearGradient><linearGradient id="y" gradientUnits="userSpaceOnUse" x1="2422.4" y1="2513.325" x2="2422.4" y2="2551.875" spreadMethod="pad"><stop offset="0%" stop-color="#B8682F"/><stop offset="11.765%" stop-color="#C17131"/><stop offset="70.588%" stop-color="#E9A348"/><stop offset="100%" stop-color="#FDBC56"/></linearGradient><path fill="#FFF" fill-opacity="0" d="M284 320V0H0v320h284z" id="z"/><path fill="url(#a)" d="M2429.5 2188.5q-7.5 2.8-7.25 7.75.2 4.65 9.55 13.7 4.7 4.5 9.3 8.1l14.3-7.95 8.45-13.85q-3.1-2.7-7.2-5.35-8.25-5.3-13.4-5-8.15.5-13.75 2.6z" id="A"/><path fill="url(#b)" d="M2645.15 2358.85q-14.55-34.05-39.95-55.65-18.15-15.45-39.95-23.1-6.8-2.4-13.2-3.75l-5-.85q-51.4-1.8-101.95.85-26.2 1.35-31.75 1.5-15.45.45-27.8-.6l-1.5-.1q-22.75 0-45.75 7.35-25.35 8.15-45.55 23.75-22.7 17.5-36.05 42.5-15 28.05-17.25 63.75-.25 30.2 5.65 66.15 20.95 98.35 70.65 153.3 18.35 20.3 38.15 31.65 16.1 9.3 27.45 9.95l.65.05q15.45.8 23.1-3.1 3.85-1.95 4.6-4.05l12.55 4.35q14.5 4.4 24.2 4.5 9.75.1 17.85-3.35 4-1.75 6.1-3.5 1.8 4.65 19 4.9 8.6.1 16.85-.7 7.05 0 24.6-6.75 23.55-9.05 45-24.2 64.05-45.3 81.45-124.45 4.8-29 6-58.05v-.1q0-59.7-18.15-102.25z" id="B"/><path fill="url(#c)" d="M2367.85 2292.85q-4.1 0-14.8 1.35-19.8 2.6-34 20.15-18.85 23.3-22.7 68.65-3.6 42.15 14.2 147.8 8.95 52.8 18.55 97.2l9.55 27.35q12.6 9.7 24.75 15.15 10.45 4.65 17.95 5.05l.65.05q8.8.4 15.05-.65l2.3-2.25-4.1-36.95q-6.4-96.4-5.7-191.65.2-27.25 1.15-65.1.85-34.75.85-44.75 0-30.8-11.45-38.3-4.65-3.05-12.25-3.1z" id="C"/><path fill="url(#d)" d="M2367.85 2292.85q-4.1 0-14.8 1.35-19.8 2.6-34 20.15-18.85 23.3-22.7 68.65-3.6 42.15 14.2 147.8 8.95 52.8 18.55 97.2l9.55 27.35q12.6 9.7 24.75 15.15 10.45 4.65 17.95 5.05l.65.05q8.8.4 15.05-.65l2.3-2.25-4.1-36.95q-6.4-96.4-5.7-191.65.2-27.25 1.15-65.1.85-34.75.85-44.75 0-30.8-11.45-38.3-4.65-3.05-12.25-3.1z" id="D"/><path fill="url(#e)" d="M2426.15 2286.9q-20.2 2.55-24.5 10.65-3.25 6.25-2.4 44.65 1.2 52.25.1 72.2-1.6 30.05-2.8 130.55-.6 50.3-.85 94.55l3.5 35.05q5.65-1.3 8.65-3.8l1.85-2.3 12.55 4.35q14.5 4.4 24.2 4.5 7.4.05 14.15-2 11.95-13.15 15.3-37.8 5.75-42.6 9.5-163.8 2.9-120.75 3.9-139.45 1.5-27-3.6-35.25-2.75-4.4-8.4-6.85-4.45-1.95-14-3.9-18.35-3.7-37.15-1.35z" id="E"/><path fill="url(#f)" d="M2426.15 2286.9q-20.2 2.55-24.5 10.65-3.25 6.25-2.4 44.65 1.2 52.25.1 72.2-1.6 30.05-2.8 130.55-.6 50.3-.85 94.55l3.5 35.05q5.65-1.3 8.65-3.8l1.85-2.3 12.55 4.35q14.5 4.4 24.2 4.5 7.4.05 14.15-2 11.95-13.15 15.3-37.8 5.75-42.6 9.5-163.8 2.9-120.75 3.9-139.45 1.5-27-3.6-35.25-2.75-4.4-8.4-6.85-4.45-1.95-14-3.9-18.35-3.7-37.15-1.35z" id="F"/><path fill="url(#g)" d="M2493.35 2297.25q.2 3.85 1.2 19.7 2.2 43.35-.55 113.45-2.95 74.7-10.8 148.35-3.95 36.85-7.3 58.75l-4.3 34.5q4.2 3.35 19.85 3.35 7.8 0 14.8-.7 2.7 0 9.15-1.65 7.8-2.05 16.8-5.6l7.85-28.05q11.2-32.05 19.45-90.3 7.75-54.35 10.55-113 2.8-59.4-.65-98.65-3.8-42.85-14.05-47.2-18.35-7.8-40.25-5-7.6 1-14.25 3.1-5.35 1.7-6.85 2.95-.95.8-.65 6z" id="G"/><path fill="url(#h)" d="M2493.35 2297.25q.2 3.85 1.2 19.7 2.2 43.35-.55 113.45-2.95 74.7-10.8 148.35-3.95 36.85-7.3 58.75l-4.3 34.5q4.2 3.35 19.85 3.35 7.8 0 14.8-.7 2.7 0 9.15-1.65 7.8-2.05 16.8-5.6l7.85-28.05q11.2-32.05 19.45-90.3 7.75-54.35 10.55-113 2.8-59.4-.65-98.65-3.8-42.85-14.05-47.2-18.35-7.8-40.25-5-7.6 1-14.25 3.1-5.35 1.7-6.85 2.95-.95.8-.65 6z" id="H"/><path fill="url(#i)" d="M2533.35 2276.7q-5.6-2.4-11.7-4.15-9.7-2.85-18.15-3.3-11.05-.6-24.9-19.2-5.55-7.5-9.7-15.65-4-7.9-5.05-13.05-2.05-7.6-1.2-17.1l1.2-8q-2.65 4.35-9.85 5.6l-6.7.35-9.6 11.4 9.6 55.65 38.5 22.25q8.7-10.95 30.05-11.85 14-.6 31.2 3.05-4.8-2.05-11.95-5.25h-.05l-1.7-.75z" id="I"/><path fill="url(#j)" d="M2429.85 2199.25l-7.6-3 .3 19.35q-.6 21.6-4.95 33.05-4.35 11.45-20.7 25.55-5.1 4.4-10.8 8.55l-4.7 3.25q4.3-.15 9.3 3.15 2.5 1.65 4.15 3.35l3.1-1.7q4.05-2 8.85-3.75 15.45-5.5 32.75-5.95 17.4-.45 33.55 4.95 8.1 2.7 12.7 5.45-24.3-26.7-33.85-60.65-2.95-10.6-4.1-20.7l-.55-7.95q-8.2 0-17.45-2.95z" id="J"/><path fill="url(#k)" d="M2324.9 2299.75q8.8-7.65 19.7-10.95 2.65-.85 13.4-2.7 7.85-1.4 12.65-3.45 5.75-2.5 4.8-5.25-22.45 1.4-44.1 9.5-23.95 8.95-42.7 24.65-45.1 37.65-49.2 102.95-.25 30.2 5.65 66.15 13.85 65.05 41 112.1 21.85 37.85 50.1 60.65l-9.45-36.7q-11.75-35.7-22.05-83-20.55-94.55-13.35-152.35 7.4-58.9 33.55-81.6z" id="K"/><path fill="url(#l)" d="M2324.9 2299.75q8.8-7.65 19.7-10.95 2.65-.85 13.4-2.7 7.85-1.4 12.65-3.45 5.75-2.5 4.8-5.25-22.45 1.4-44.1 9.5-23.95 8.95-42.7 24.65-45.1 37.65-49.2 102.95-.25 30.2 5.65 66.15 13.85 65.05 41 112.1 21.85 37.85 50.1 60.65l-9.45-36.7q-11.75-35.7-22.05-83-20.55-94.55-13.35-152.35 7.4-58.9 33.55-81.6z" id="L"/><path fill="url(#m)" d="M2626.15 2504.45q11-57.75 6.55-111.2-3.55-43.3-16.75-79.8-17.5-18.6-40.15-29.05-13.65-6.3-26.3-8.55-1.65 3.25-.55 4.5.8.9 3.65 1.2 8.25.95 12.3 5.55 2 2.3 2.35 4.4 21.65 119 1.25 239.5-6.4 37.65-16.2 70.95-4.9 16.65-8.55 25.75l-10.65 31.85 5.45-.75q6.7-1.15 13.2-3.15 20.8-6.55 31.45-19.55 13.2-16.05 21.9-42.15 9.4-28.25 21.05-89.5z" id="M"/><path fill="url(#n)" d="M2626.15 2504.45q11-57.75 6.55-111.2-3.55-43.3-16.75-79.8-17.5-18.6-40.15-29.05-13.65-6.3-26.3-8.55-1.65 3.25-.55 4.5.8.9 3.65 1.2 8.25.95 12.3 5.55 2 2.3 2.35 4.4 21.65 119 1.25 239.5-6.4 37.65-16.2 70.95-4.9 16.65-8.55 25.75l-10.65 31.85 5.45-.75q6.7-1.15 13.2-3.15 20.8-6.55 31.45-19.55 13.2-16.05 21.9-42.15 9.4-28.25 21.05-89.5z" id="N"/><path fill="url(#o)" d="M2663.3 2461.2v-.1q0-44.65-10.2-79.85-8.8-30.3-25-53 15.6 49.55 12.85 111.15-4.25 95.2-53.2 195.25 24.35-20.05 41.15-46.1 20-31 28.4-69.3 4.8-29 6-58.05z" id="O"/><path fill="url(#p)" d="M2663.3 2461.2v-.1q0-44.65-10.2-79.85-8.8-30.3-25-53 15.6 49.55 12.85 111.15-4.25 95.2-53.2 195.25 24.35-20.05 41.15-46.1 20-31 28.4-69.3 4.8-29 6-58.05z" id="P"/><path fill="url(#q)" d="M2395.8 2635.65q-.25 4.95-1.75 8.95-4.8 12.9-20.65 11.85-15.8-1-32.8-20.45-5.35-6.1-10.1-13.3l-3.75-6 .25 3.25q.15 3.9-.25 7.15-1.2 10.5-7.15 11 17.45 18.2 35.9 28.45 15.15 8.4 25.85 9l.65.05q15.45.8 23.1-3.1 3.85-1.95 4.6-4.05l12.55 4.35q14.5 4.4 24.2 4.5 9.75.1 17.85-3.35 4-1.75 6.1-3.5 1.8 4.65 19 4.9 8.6.1 16.85-.7 8.2 0 28.1-8.1 27-11 50.35-29.45l-1.5-1q-11.8 6-22.65 7.95-21.7 3.85-16.8-16.35l-1.65 4.85q-2.35 5.8-6 10.5-11.7 14.95-31.65 13.15-14.95-1.35-21.2-15.1-4.35-9.5-4.15-23.6-1.9 14.45-7.8 24.1-8.55 13.95-24.1 14.8-20.65 1.15-38.15-11.75-5.45-4.05-9.95-8.95l-3.4-4.15.1 4.1z" id="Q"/><path fill="url(#r)" d="M2549.25 2357.65q-8.75-6.1-13.85-6.55-5.4-.5-15.8 3.7-11.45 4.7-19.5 11.8-9.8 8.6-10.85 18-1.3 11.35 10.3 22.5 20.9 20.15 45.35 12.1 12.2-4.05 20.25-12.1 9.15-6.65 8.25-16.6-.75-8.45-8.4-18.1-6.55-8.3-15.75-14.75z" id="R"/><path fill="url(#s)" d="M2544.15 2365.75q-6.25-4.35-9.9-4.7-3.9-.35-11.3 2.65-8.25 3.4-14 8.45-7 6.2-7.8 12.95-.9 8.1 7.4 16.1 14.95 14.4 32.45 8.65 8.75-2.9 14.5-8.65 6.55-4.75 5.9-11.9-.5-6.05-6-12.95-4.7-5.95-11.25-10.6z" id="S"/><path fill="url(#t)" d="M2360.75 2353.55q-6.35 8.75-9.75 19.4-3.4 10.85-2.45 19.5 1 9.45 7.1 13.5l5.8 4.85q7.4 5.4 15.7 8.1 26.45 8.65 51.35-12.95 13.9-12.1 11.5-26.35-2-12.2-15.05-23.45-11.8-10.15-26.6-14.95-15-4.85-23.05-.85-7.85 3.9-14.55 13.2z" id="T"/><path fill="url(#u)" d="M2369.45 2360.4q-4.7 6.5-7.15 14.4-2.55 8-1.85 14.4.8 7 5.3 10l4.25 3.6q5.5 4 11.65 6 19.55 6.35 37.95-9.6 10.3-8.95 8.55-19.5-1.5-9.05-11.15-17.35-8.75-7.55-19.7-11.05-11.1-3.6-17.05-.65-5.8 2.9-10.8 9.75z" id="U"/><path fill="url(#v)" d="M2607.3 2454.25l.9-5.95q-28.55 13.45-59.3 21.55l-29.35 43.75-27.9-33.9q-28.55 2.45-57.9.15L2402 2516.2l-22.3-44.6q-24.75-5.65-46.8-14.1l-17.15-7.3.1 5.95q.3 7.6 1.5 15.75 3.75 26.05 14.8 47.65 15.4 30.25 43.05 47.4 34.55 21.45 86.4 21 45.3-.4 78.5-22.3 26.55-17.55 44.25-47.95 12.6-21.75 19.5-47.75 2.15-8.15 3.45-15.7z" id="V"/><path fill="url(#w)" d="M2607.3 2454.25l.9-5.95q-8.9 4.2-17.2 7.5-10.7 43.95-34.6 73.65-35.95 44.6-94.8 45.55-68.55 1.1-102.8-44.15-22.4-29.65-27.25-73.85-6.35-2.45-11.7-4.9l-4.1-1.9.1 5.95q.3 7.6 1.5 15.75 3.75 26.05 14.8 47.65 15.4 30.25 43.05 47.4 34.55 21.45 86.4 21 45.3-.4 78.5-22.3 26.55-17.55 44.25-47.95 12.6-21.75 19.5-47.75 2.15-8.15 3.45-15.7z" id="W"/><path fill="url(#x)" d="M2491.65 2479.7q-5.45.45-12.15.8l19.4 24.85 20.65 8.25-27.9-33.9z" id="X"/><path fill="url(#y)" d="M2442.75 2480.45l-9-.6-31.75 36.35 18.05-8.8 22.7-26.95z" id="Y"/></defs><use xlink:href="#z"/><use xlink:href="#A" transform="translate(-1185.03 -1137.29) scale(.54135)"/><use xlink:href="#B" transform="translate(-1185.03 -1137.29) scale(.54135)"/><use xlink:href="#C" transform="translate(-1185.03 -1137.29) scale(.54135)"/><use xlink:href="#D" transform="translate(-1185.03 -1137.29) scale(.54135)"/><use xlink:href="#E" transform="translate(-1185.03 -1137.29) scale(.54135)"/><use xlink:href="#F" transform="translate(-1185.03 -1137.29) scale(.54135)"/><use xlink:href="#G" transform="translate(-1185.03 -1137.29) scale(.54135)"/><use xlink:href="#H" transform="translate(-1185.03 -1137.29) scale(.54135)"/><use xlink:href="#I" transform="translate(-1185.03 -1137.29) scale(.54135)"/><use xlink:href="#J" transform="translate(-1185.03 -1137.29) scale(.54135)"/><use xlink:href="#K" transform="translate(-1185.03 -1137.29) scale(.54135)"/><use xlink:href="#L" transform="translate(-1185.03 -1137.29) scale(.54135)"/><use xlink:href="#M" transform="translate(-1185.03 -1137.29) scale(.54135)"/><use xlink:href="#N" transform="translate(-1185.03 -1137.29) scale(.54135)"/><use xlink:href="#O" transform="translate(-1185.03 -1137.29) scale(.54135)"/><use xlink:href="#P" transform="translate(-1185.03 -1137.29) scale(.54135)"/><use xlink:href="#Q" transform="translate(-1185.03 -1137.29) scale(.54135)"/><use xlink:href="#R" transform="translate(-1185.03 -1137.29) scale(.54135)"/><use xlink:href="#S" transform="translate(-1185.03 -1137.29) scale(.54135)"/><use xlink:href="#T" transform="translate(-1185.03 -1137.29) scale(.54135)"/><use xlink:href="#U" transform="translate(-1185.03 -1137.29) scale(.54135)"/><use xlink:href="#V" transform="translate(-1185.03 -1137.29) scale(.54135)"/><use xlink:href="#W" transform="translate(-1185.03 -1137.29) scale(.54135)"/><use xlink:href="#X" transform="translate(-1185.03 -1137.29) scale(.54135)"/><use xlink:href="#Y" transform="translate(-1185.03 -1137.29) scale(.54135)"/></svg>