<svg xmlns="http://www.w3.org/2000/svg" xmlns:xlink="http://www.w3.org/1999/xlink" preserveAspectRatio="none" width="284" height="320"><defs><radialGradient id="a" gradientUnits="userSpaceOnUse" cx="0" cy="0" r="9.668" fx="0" fy="0" gradientTransform="matrix(.48356 -.87531 .51459 .28186 -1.35 4.3)" spreadMethod="pad"><stop offset="0%" stop-opacity=".412"/><stop offset="100%" stop-color="#013198" stop-opacity="0"/></radialGradient><radialGradient id="b" gradientUnits="userSpaceOnUse" cx="0" cy="0" r="5.021" fx="0" fy="0" gradientTransform="matrix(.77672 -.62984 .4008 .49292 -2.6 -4.35)" spreadMethod="pad"><stop offset="0%" stop-opacity=".424"/><stop offset="100%" stop-color="#013198" stop-opacity="0"/></radialGradient><path fill="#FFF" fill-opacity="0" d="M0 0v320h284V0H0z" id="c"/><path fill="purple" d="M8.3 3.4q-.003-1.407-1-2.4-.993-.996-2.4-1-1.407.004-2.4 1-.998.993-1 2.4.002 1.407 1 2.4.993.984 2.4.95-1.661.183-3.2 2.35-1.762 2.507-1.7 5.75.025 1.063 5.15 1.15 5.116.083 5.05-.95-.189-3.326-1.75-5.85-1.453-2.424-3.3-2.45 1.254-.06 2.15-.95.997-.993 1-2.4z" id="d"/><g id="e"><path fill="url(#a)" d="M-4.05-2.2h-.05q-1.65.15-3.2 2.35Q-9.05 2.6-9 5.9q.05 1 5.15 1.1 5.1.1 5.05-.95Q1 2.7-.5.25-2-2.2-3.8-2.2h-.25M-6.8 5.4q.3-4.25 2.7-5.8-2.4 1.55-2.7 5.8z"/><path fill="url(#b)" d="M-1.7-8q-1-1-2.4-1t-2.4 1q-1 1-1 2.4t1 2.4q1 1 2.4 1h.3q1.2-.1 2.1-1 1-1 1-2.4t-1-2.4m-4.1 2.45q.2-1.3 1.3-1.85-1.1.55-1.3 1.85z"/></g><path id="f" stroke="#FFF" stroke-width="1" stroke-linejoin="round" stroke-linecap="round" fill="none" d="M-5.8-5.55q.2-1.3 1.3-1.85M-6.8 5.4q.3-4.25 2.7-5.8"/></defs><use xlink:href="#c"/><use xlink:href="#d" transform="matrix(16.97273 0 0 16.97216 55.85 44.65)"/><g transform="matrix(16.97273 0 0 16.97216 208.605 197.4)"><use xlink:href="#e"/><use xlink:href="#f"/></g></svg>