<svg xmlns="http://www.w3.org/2000/svg" xmlns:xlink="http://www.w3.org/1999/xlink" preserveAspectRatio="none" width="284" height="320"><defs><linearGradient id="a" gradientUnits="userSpaceOnUse" x1="134.75" y1="644.362" x2="134.75" y2="593.438" spreadMethod="pad"><stop offset="0%" stop-color="#E9BC25"/><stop offset="100%" stop-color="#F2DF43"/></linearGradient><linearGradient id="b" gradientUnits="userSpaceOnUse" x1="135.25" y1="628.125" x2="135.25" y2="694.975" spreadMethod="pad"><stop offset="0%" stop-color="#FE3709"/><stop offset="74.902%" stop-color="#CA2B0E"/><stop offset="100%" stop-color="#C2290E"/></linearGradient><linearGradient id="c" gradientUnits="userSpaceOnUse" x1="135.6" y1="718.288" x2="135.6" y2="632.712" spreadMethod="pad"><stop offset="0%" stop-color="#C12911"/><stop offset="36.078%" stop-color="#EC320C"/><stop offset="69.02%" stop-color="#FE3709"/><stop offset="100%" stop-color="#FD714B"/></linearGradient><linearGradient id="d" gradientUnits="userSpaceOnUse" x1="135.6" y1="699.313" x2="135.6" y2="628.287" spreadMethod="pad"><stop offset="0%" stop-color="#E9320C"/><stop offset="27.843%" stop-color="#FE3709"/><stop offset="49.804%" stop-color="#FD643D"/><stop offset="100%" stop-color="#FBD4BF"/></linearGradient><linearGradient id="e" gradientUnits="userSpaceOnUse" x1="107.362" y1="624" x2="55.237" y2="672.6" spreadMethod="pad"><stop offset="0%" stop-color="#FEFEFE"/><stop offset="41.961%" stop-color="#FBDECE"/><stop offset="100%" stop-color="#FC7C56"/></linearGradient><linearGradient id="f" gradientUnits="userSpaceOnUse" x1="135.6" y1="749.313" x2="135.6" y2="728.787" spreadMethod="pad"><stop offset="0%" stop-color="#FE3C13"/><stop offset="100%" stop-color="#E7310D"/></linearGradient><linearGradient id="g" gradientUnits="userSpaceOnUse" x1="134.8" y1="699.362" x2="134.8" y2="769.737" spreadMethod="pad"><stop offset="0%" stop-color="#F2E65B"/><stop offset="100%" stop-color="#EECA27"/></linearGradient><linearGradient id="h" gradientUnits="userSpaceOnUse" x1="134.75" y1="750.325" x2="134.75" y2="789.675" spreadMethod="pad"><stop offset="0%" stop-color="#F3EF8D"/><stop offset="100%" stop-color="#EECA27"/></linearGradient><linearGradient id="i" gradientUnits="userSpaceOnUse" x1="134.75" y1="739.313" x2="134.75" y2="783.588" spreadMethod="pad"><stop offset="0%" stop-color="#FEFEFE"/><stop offset="100%" stop-color="#F2E65B"/></linearGradient><linearGradient id="j" gradientUnits="userSpaceOnUse" x1="231.263" y1="667.625" x2="171.838" y2="719.275" spreadMethod="pad"><stop offset="0%" stop-color="#F3EF8D"/><stop offset="100%" stop-color="#FEFEFE"/></linearGradient><linearGradient id="k" gradientUnits="userSpaceOnUse" x1="37.9" y1="667.275" x2="99.7" y2="719.125" spreadMethod="pad"><stop offset="0%" stop-color="#F3EF8D"/><stop offset="100%" stop-color="#FEFEFE"/></linearGradient><linearGradient id="l" gradientUnits="userSpaceOnUse" x1="152.425" y1="740.425" x2="168.575" y2="775.075" spreadMethod="pad"><stop offset="0%" stop-color="#C12911"/><stop offset="100%" stop-color="#FE3709"/></linearGradient><linearGradient id="m" gradientUnits="userSpaceOnUse" x1="144.388" y1="731.712" x2="161.412" y2="754.288" spreadMethod="pad"><stop offset="0%" stop-color="#911F0E"/><stop offset="100%" stop-color="#D92E13"/></linearGradient><linearGradient id="n" gradientUnits="userSpaceOnUse" x1="96.375" y1="722.7" x2="125.025" y2="724.2" spreadMethod="pad"><stop offset="0%" stop-color="#FE4027"/><stop offset="100%" stop-color="#F13416"/></linearGradient><linearGradient id="o" gradientUnits="userSpaceOnUse" x1="101.875" y1="720.15" x2="121.825" y2="720.15" spreadMethod="pad"><stop offset="0%" stop-color="#FE3709"/><stop offset="100%" stop-color="#D12C12"/></linearGradient><linearGradient id="p" gradientUnits="userSpaceOnUse" x1="106.837" y1="727.35" x2="123.763" y2="727.65" spreadMethod="pad"><stop offset="0%" stop-color="#FE3709"/><stop offset="100%" stop-color="#D12C12"/></linearGradient><linearGradient id="q" gradientUnits="userSpaceOnUse" x1="124.563" y1="731.5" x2="105.537" y2="767.3" spreadMethod="pad"><stop offset="0%" stop-color="#B82710"/><stop offset="100%" stop-color="#FE3709"/></linearGradient><linearGradient id="r" gradientUnits="userSpaceOnUse" x1="119.375" y1="760.8" x2="126.225" y2="740.9" spreadMethod="pad"><stop offset="0%" stop-color="#EB320D"/><stop offset="100%" stop-color="#911F0E"/></linearGradient><linearGradient id="s" gradientUnits="userSpaceOnUse" x1="172.213" y1="722.8" x2="143.588" y2="724.8" spreadMethod="pad"><stop offset="0%" stop-color="#FE4027"/><stop offset="100%" stop-color="#F13416"/></linearGradient><linearGradient id="t" gradientUnits="userSpaceOnUse" x1="166.825" y1="719.775" x2="146.875" y2="720.125" spreadMethod="pad"><stop offset="0%" stop-color="#FE3709"/><stop offset="100%" stop-color="#D12C12"/></linearGradient><linearGradient id="u" gradientUnits="userSpaceOnUse" x1="161.863" y1="727.15" x2="144.938" y2="727.75" spreadMethod="pad"><stop offset="0%" stop-color="#FE3709"/><stop offset="100%" stop-color="#D12C12"/></linearGradient><linearGradient id="v" gradientUnits="userSpaceOnUse" x1="137.563" y1="729.125" x2="131.538" y2="716.775" spreadMethod="pad"><stop offset="0%" stop-color="#DDA21F"/><stop offset="61.961%" stop-color="#EFFE7E"/><stop offset="100%" stop-color="#F3D72A"/></linearGradient><linearGradient id="w" gradientUnits="userSpaceOnUse" x1="93.85" y1="709.438" x2="108.65" y2="726.463" spreadMethod="pad"><stop offset="0%" stop-color="#FEFEFE"/><stop offset="100%" stop-color="#FE3717"/></linearGradient><linearGradient id="x" gradientUnits="userSpaceOnUse" x1="174.7" y1="719.725" x2="148.7" y2="728.175" spreadMethod="pad"><stop offset="0%" stop-color="#FB8C71"/><stop offset="100%" stop-color="#FE3717"/></linearGradient><linearGradient id="y" gradientUnits="userSpaceOnUse" x1="142.125" y1="741.188" x2="160.475" y2="771.713" spreadMethod="pad"><stop offset="0%" stop-color="#E93215"/><stop offset="100%" stop-color="#FE3717"/></linearGradient><path fill="#FFF" fill-opacity="0" d="M0 320h284V0H0v320z" id="z"/><path fill="#E9BC25" d="M143.1 588.75q-3.5-2.6-8.5-2.6-4.95 0-8.5 2.6L38.05 654.1l95.55 13.15 98.05-13.15-88.55-65.35z" id="A"/><path fill="url(#a)" d="M141.8 596.15q-2.9-2.1-7.05-2.1-4.1 0-7.05 2.1L54.9 650.2h159.7l-72.8-54.05z" id="B"/><path fill="#E9BC25" d="M134.75 748.5q5.45 0 8.6-3.25l88.2-91.15H38l88.25 91.15q3.1 3.25 8.5 3.25z" id="C"/><path fill="url(#b)" d="M159.75 606.1q-7.8 2.5-14 7.2-6.55 4.9-10.5 11.7-3.95-6.8-10.5-11.7-6.15-4.7-13.95-7.2-22.25-7.15-40.65 3.85-18.75 11.1-21.8 34.25-2.3 17.95 8.3 36.1 8.5 14.55 23.2 26.35 6.35 5.15 17.25 12.2 12.15 7.9 16.15 10.9 17.3 12.95 22 30.1 4.75-17.2 22.05-30.1 4.05-3.05 16.2-10.9 10.9-7.1 17.3-12.2 14.7-11.85 23.15-26.35 10.6-18.2 8.2-36.1-3.05-23.15-21.75-34.25-18.4-11-40.65-3.85m-10.8 12.2q5.5-4.25 12.6-6.55 19.55-6.3 35.8 3.5 16.5 9.95 19.15 30.35 3 23.1-11.9 42.6-8.95 11.75-33.7 30.75-18.85 14.55-19.7 15.3-11.25 9.65-15.95 18.5-4.6-8.85-15.9-18.5-.7-.65-19.7-15.3Q74.9 699.85 66 688.2q-15-19.5-11.95-42.6 2.7-20.4 19.15-30.35 16.25-9.8 35.8-3.5 7.15 2.3 12.65 6.55 5.85 4.55 9.15 10.85 1.5 3.1 2 4.65l2.45 7.25 2.55-7.25q.8-2.5 2-4.65 3.3-6.3 9.15-10.85z" id="D"/><path fill="url(#c)" d="M161.85 608.7q-20.1 6.15-26.3 24.05-6.15-17.9-26.25-24.05-8.95-2.75-18.35-2-9.6.75-17.55 4.9-9.95 5.2-15.8 14.7-5.4 8.8-6.65 20.1-1.15 10.8 1.7 21.7 2.85 11 9.2 19.7 7.8 10.7 22.3 22.7 8.3 6.9 25.1 19.75 12.7 10.35 15.7 13.45 7.6 7.9 10.6 17.6 3-9.65 10.65-17.6 2.9-2.95 15.7-13.45 16.8-12.85 25.1-19.75 14.55-12 22.35-22.7 6.3-8.7 9.2-19.7 2.85-10.95 1.65-21.7-2.7-24.45-22.45-34.8-7.9-4.15-17.5-4.9-9.45-.75-18.4 2z" id="E"/><path fill="url(#d)" d="M106.3 614.85q-10.15-2.95-20.35-.85-10.4 2.1-17.5 8.7-7.1 6.55-9.3 16.3-2.35 10.7 1.65 23.8 5.45 17.6 27.65 28.75 20.55 10.3 47.1 11.3 26.6-1 47.2-11.3 22.15-11.15 27.6-28.75 4.05-13.1 1.65-23.8-2.15-9.7-9.25-16.3-7.1-6.6-17.5-8.7-10.2-2.1-20.4.85-10.7 3.1-18.25 11-8.3 8.65-11.05 21.55-2.75-12.9-11-21.55-7.55-7.9-18.25-11z" id="F"/><path fill="url(#e)" d="M107.75 619.65q-12.05-4.55-25.4.85-13.8 5.55-17.6 19.8-3.5 13.15 2.85 26.1-5-13.35.25-24.95 4.75-10.5 15.85-15.95 11-5.4 22.5-3.1 12.55 2.5 20.2 13.55-7.2-12-18.65-16.3z" id="G"/><path fill="url(#f)" d="M108.2 720.5q8.769 6.856 14.3 12.2 8.05 7.75 13.05 15.7 5.05-7.95 13.1-15.7 5.9-5.65 15.5-13.1-28.671 20.99-55.95.9z" id="H"/><path fill="url(#g)" d="M38 654.1h-.1v136.95h193.75V654.1h-.1l-88.2 82.65q-3.3 3.1-8.55 3.1-5.3 0-8.55-3.1L38 654.1z" id="I"/><path fill="#E9BC25" d="M37.9 790.95v.1H65l61.4-50.55-1-8.45q-1.85-.25-2.8-.45-1.75-.3-2.5-1l-9.6-8.75-72.6 69.1z" id="J"/><path fill="#E9BC25" d="M145.7 730.55l-1.05 8.35 59.9 52.15h27.1v-.1l-72.1-69.4-9 8.35q-.7.65-2.25.6-2.05-.1-2.6.05z" id="K"/><path fill="url(#h)" d="M143.35 721.4q-3.55-2.75-8.55-2.75-5 0-8.55 2.75L38 791.05h193.55l-88.2-69.65z" id="L"/><path fill="url(#i)" d="M55.35 785.2h1.85l68.8-43.3q3.6-2.3 8.75-2.3t8.8 2.3l68.75 43.3h1.9l-72.45-57.15q-2.85-2.3-6.95-2.3-4.15 0-7 2.3L55.35 785.2z" id="M"/><path fill="url(#j)" d="M231.65 662.2h-.1l-61.3 57.5 61.4-47.25V662.2z" id="N"/><path fill="url(#k)" d="M38 662.2h-.1v10.25l61.45 47.25L38 662.2z" id="O"/><path fill="url(#l)" d="M136.15 726.95q-.2 1.05-.7.2-.4-.7-.4.25-.55 17.05 7.65 33.25 5.45 10.75 18.2 26.4l4.6-16.3 20.15-.25q-5.75-7.45-12.6-16.95-8.05-11.2-8.55-11.85-3.9-5.3-12.7-9.95-9-4.8-15.65-4.8z" id="P"/><path fill="url(#m)" d="M137.55 729.25q2.25 1.7 7.1 7.7 4.8 5.95 8.4 11.45 2.45 3.8 5.05 5.4 2.3 1.45 3.75.75 1.4-.7 1.05-3-.4-2.55-2.95-5.8-3.65-4.65-10.05-10.15-5.1-4.4-9.3-7.2-.55-.35-1.65.25-1.15.65-1.4.6z" id="Q"/><path fill="url(#n)" d="M125.9 731.9q10.8-5.9 7.8-9.25l-1.25-3.4q-3.95-2.95-5.75-4.2-7.45-5.35-15.8-8.6-9.4-3.7-17.6-3.7-3.6.1-5.65 1.6-2.35 1.75-2.8 5.6-.75 6.35-.9 10.1-.25 6.2.5 13.25.85 7.8 4.3 8.75 1.85.5 12.15-1.5 14.15-2.7 25-8.65z" id="R"/><path fill="url(#o)" d="M134.35 723.55q-3-2.75-11.15-4.9-9-2.45-16.8-1.8-3 .3-3.05 2.3-.05 2 2.3 1.7 5.95-.6 15.05.1 9.9.8 13.65 2.6z" id="S"/><path fill="url(#p)" d="M122.65 726.8q8.2-1.95 11.75-1.45-3.15-1.45-10.25-1.05-7.95.35-14 2.95-2.35.95-1.9 2.6.45 1.65 2.3.85 4.55-2.1 12.1-3.9z" id="T"/><path fill="url(#q)" d="M134.7 727.2q-.45.8-.65-.25-6.55 0-15.4 4.65-8.6 4.55-12.4 9.75-2.05 2.85-8.4 11.65-6.5 8.95-12.35 16.55l19.8.25 5.35 15.95q14.45-19.35 17.95-26.4 6.9-13.85 6.45-31.95 0-.9-.35-.2z" id="U"/><path fill="url(#r)" d="M129.8 739.4q3.25-9.1 5.55-11.6-.25.15-.7-.3-.45-.45-.9.1-3.75 3.7-8.65 11.25-5.35 8.15-7.85 14.8-1.1 2.9-.4 5.2.65 2.1 2.35 2.65 1.75.55 3.35-.9 1.9-1.7 2.7-5.45 1.65-7.6 4.55-15.75z" id="V"/><path fill="#E7310E" d="M126.15 740.6q5.65-11 8.4-13.05-.25.1-.65-.3-.35-.35-.95-.15-4.5 1.35-11.6 9.55-6.9 7.95-9.25 14-1 2.4 2.65 4.65 3.7 2.3 4.4.4 2.2-5.9 7-15.1z" id="W"/><path fill="url(#s)" d="M135.05 722.65q-3.05 3.35 7.8 9.25 10.85 5.95 24.95 8.65 10.35 2 12.25 1.5 3.45-.95 4.25-8.75.75-7 .5-13.25-.1-3.4-.85-10.1-.55-3.85-2.9-5.6-2-1.5-5.6-1.6-8.2 0-17.6 3.7-8.35 3.25-15.8 8.6l-5.8 4.2-1.2 3.4z" id="X"/><path fill="url(#t)" d="M134.4 723.55q3.75-1.8 13.7-2.6 9.05-.7 15.05-.1 2.3.3 2.25-1.7-.1-2-3.05-2.3-7.8-.65-16.8 1.8-8.15 2.15-11.15 4.9z" id="Y"/><path fill="url(#u)" d="M134.4 725.35q3.5-.5 11.65 1.45 7.55 1.8 12.2 3.9 1.8.8 2.25-.85.45-1.65-1.85-2.6-6.1-2.6-14-2.95-7.15-.4-10.25 1.05z" id="Z"/><path fill="url(#v)" d="M137.45 717.35h-5.3q-.65 0-1.1.5-.45.45-.45 1.1v8.95q0 .65.45 1.1.45.45 1.1.45h5.3q.65 0 1.1-.45.45-.45.45-1.1v-8.95q0-.65-.45-1.1-.45-.5-1.1-.5z" id="aa"/><path fill="url(#w)" d="M98.5 707.15q-4.5-.45-6.6 1-2.1 1.45-2.8 5.4-1.3 8.25-.5 18.65 1.8-19.75 11.4-20.35 4.15-.35 11.1.8 9.45 1.55 15.15 5.25-3.6-4.2-12.85-7.4-7.65-2.65-14.9-3.35z" id="ab"/><path fill="url(#x)" d="M143.85 718.45q5.6-3.65 15.15-5.95 7.7-1.8 11.2-1.6 3.8.25 5.75 2.25 1.6 1.65 2.3 5.15.9 4.9 1.05 5.85.65 3.75 1.05 8.2.85-10.3-.45-18.05-.65-3.9-2.7-5.25-2.05-1.4-6.45-.95-6.9.65-14.4 3.2-9 3.1-12.5 7.15z" id="ac"/><path fill="url(#y)" d="M142.5 749.2q3.9 9.05 12.7 21.45 4.2 5.9 7.35 10.6l2.8-10.1q-9.25-9.8-16.55-19.65-8.95-12.05-10.35-18.2.55 7.85 4.05 15.9z" id="ad"/></defs><use xlink:href="#z"/><use xlink:href="#A" transform="matrix(1.4658 0 0 1.36845 -55.504 -763.32)"/><use xlink:href="#B" transform="matrix(1.4658 0 0 1.36845 -55.504 -763.32)"/><use xlink:href="#C" transform="matrix(1.4658 0 0 1.36845 -55.504 -763.32)"/><use xlink:href="#D" transform="matrix(1.4658 0 0 1.36845 -55.504 -763.32)"/><use xlink:href="#E" transform="matrix(1.4658 0 0 1.36845 -55.504 -763.32)"/><use xlink:href="#F" transform="matrix(1.4658 0 0 1.36845 -55.504 -763.32)"/><use xlink:href="#G" transform="matrix(1.4658 0 0 1.36845 -55.504 -763.32)"/><use xlink:href="#H" transform="matrix(1.4658 0 0 1.36845 -55.504 -763.32)"/><use xlink:href="#I" transform="matrix(1.4658 0 0 1.36845 -55.504 -763.32)"/><use xlink:href="#J" transform="matrix(1.4658 0 0 1.36845 -55.504 -763.32)"/><use xlink:href="#K" transform="matrix(1.4658 0 0 1.36845 -55.504 -763.32)"/><use xlink:href="#L" transform="matrix(1.4658 0 0 1.36845 -55.504 -763.32)"/><use xlink:href="#M" transform="matrix(1.4658 0 0 1.36845 -55.504 -763.32)"/><use xlink:href="#N" transform="matrix(1.4658 0 0 1.36845 -55.504 -763.32)"/><use xlink:href="#O" transform="matrix(1.4658 0 0 1.36845 -55.504 -763.32)"/><use xlink:href="#P" transform="matrix(1.4658 0 0 1.36845 -55.504 -763.32)"/><use xlink:href="#Q" transform="matrix(1.4658 0 0 1.36845 -55.504 -763.32)"/><use xlink:href="#R" transform="matrix(1.4658 0 0 1.36845 -55.504 -763.32)"/><use xlink:href="#S" transform="matrix(1.4658 0 0 1.36845 -55.504 -763.32)"/><use xlink:href="#T" transform="matrix(1.4658 0 0 1.36845 -55.504 -763.32)"/><use xlink:href="#U" transform="matrix(1.4658 0 0 1.36845 -55.504 -763.32)"/><use xlink:href="#V" transform="matrix(1.4658 0 0 1.36845 -55.504 -763.32)"/><use xlink:href="#W" transform="matrix(1.4658 0 0 1.36845 -55.504 -763.32)"/><use xlink:href="#X" transform="matrix(1.4658 0 0 1.36845 -55.504 -763.32)"/><use xlink:href="#Y" transform="matrix(1.4658 0 0 1.36845 -55.504 -763.32)"/><use xlink:href="#Z" transform="matrix(1.4658 0 0 1.36845 -55.504 -763.32)"/><use xlink:href="#aa" transform="matrix(1.4658 0 0 1.36845 -55.504 -763.32)"/><use xlink:href="#ab" transform="matrix(1.4658 0 0 1.36845 -55.504 -763.32)"/><use xlink:href="#ac" transform="matrix(1.4658 0 0 1.36845 -55.504 -763.32)"/><use xlink:href="#ad" transform="matrix(1.4658 0 0 1.36845 -55.504 -763.32)"/></svg>