<svg xmlns="http://www.w3.org/2000/svg" xmlns:xlink="http://www.w3.org/1999/xlink" preserveAspectRatio="none" width="284" height="320"><defs><linearGradient id="a" gradientUnits="userSpaceOnUse" x1="669.887" y1="37.438" x2="647.413" y2="46.063" spreadMethod="pad"><stop offset="0%" stop-color="#F2DF43"/><stop offset="100%" stop-color="#FEFEFE"/></linearGradient><linearGradient id="b" gradientUnits="userSpaceOnUse" x1="670.887" y1="20.35" x2="650.413" y2="23.95" spreadMethod="pad"><stop offset="0%" stop-color="#F2DF43"/><stop offset="100%" stop-color="#FEFEFE"/></linearGradient><linearGradient id="c" gradientUnits="userSpaceOnUse" x1="678.438" y1="52.663" x2="661.362" y2="62.538" spreadMethod="pad"><stop offset="0%" stop-color="#F2DF43"/><stop offset="100%" stop-color="#FEFEFE"/></linearGradient><linearGradient id="d" gradientUnits="userSpaceOnUse" x1="688.95" y1="66.487" x2="675.75" y2="75.712" spreadMethod="pad"><stop offset="0%" stop-color="#F2DF43"/><stop offset="100%" stop-color="#FEFEFE"/></linearGradient><linearGradient id="e" gradientUnits="userSpaceOnUse" x1="706.05" y1="49.413" x2="706.05" y2="25.587" spreadMethod="pad"><stop offset="0%" stop-color="#F0CF28"/><stop offset="100%" stop-color="#F3EF8D"/></linearGradient><linearGradient id="f" gradientUnits="userSpaceOnUse" x1="683.537" y1="36.25" x2="654.063" y2="39.35" spreadMethod="pad"><stop offset="0%" stop-color="#F2DF43"/><stop offset="100%" stop-color="#E6B524"/></linearGradient><linearGradient id="g" gradientUnits="userSpaceOnUse" x1="689.45" y1="52.262" x2="665.05" y2="54.837" spreadMethod="pad"><stop offset="0%" stop-color="#F2DF43"/><stop offset="100%" stop-color="#E6B524"/></linearGradient><linearGradient id="h" gradientUnits="userSpaceOnUse" x1="697.45" y1="66.3" x2="677.45" y2="68.4" spreadMethod="pad"><stop offset="0%" stop-color="#F2DF43"/><stop offset="100%" stop-color="#E6B524"/></linearGradient><linearGradient id="i" gradientUnits="userSpaceOnUse" x1="683.8" y1="20.9" x2="654.2" y2="24" spreadMethod="pad"><stop offset="0%" stop-color="#F2DF43"/><stop offset="100%" stop-color="#E6B524"/></linearGradient><linearGradient id="j" gradientUnits="userSpaceOnUse" x1="866.925" y1="39.337" x2="884.275" y2="46.363" spreadMethod="pad"><stop offset="0%" stop-color="#F2DF43"/><stop offset="100%" stop-color="#FEFEFE"/></linearGradient><linearGradient id="k" gradientUnits="userSpaceOnUse" x1="862.938" y1="20.1" x2="883.763" y2="25.3" spreadMethod="pad"><stop offset="0%" stop-color="#F2DF43"/><stop offset="100%" stop-color="#FEFEFE"/></linearGradient><linearGradient id="l" gradientUnits="userSpaceOnUse" x1="854.425" y1="53.125" x2="870.175" y2="62.975" spreadMethod="pad"><stop offset="0%" stop-color="#F2DF43"/><stop offset="100%" stop-color="#FEFEFE"/></linearGradient><linearGradient id="m" gradientUnits="userSpaceOnUse" x1="843.45" y1="67.037" x2="855.75" y2="75.662" spreadMethod="pad"><stop offset="0%" stop-color="#F2DF43"/><stop offset="100%" stop-color="#FEFEFE"/></linearGradient><linearGradient id="n" gradientUnits="userSpaceOnUse" x1="825.5" y1="49.413" x2="825.5" y2="25.587" spreadMethod="pad"><stop offset="0%" stop-color="#F0CF28"/><stop offset="100%" stop-color="#F3EF8D"/></linearGradient><linearGradient id="o" gradientUnits="userSpaceOnUse" x1="848.137" y1="36.512" x2="877.663" y2="39.087" spreadMethod="pad"><stop offset="0%" stop-color="#F2DF43"/><stop offset="100%" stop-color="#E6B524"/></linearGradient><linearGradient id="p" gradientUnits="userSpaceOnUse" x1="842.238" y1="52.487" x2="866.663" y2="54.612" spreadMethod="pad"><stop offset="0%" stop-color="#F2DF43"/><stop offset="100%" stop-color="#E6B524"/></linearGradient><linearGradient id="q" gradientUnits="userSpaceOnUse" x1="834.237" y1="66.525" x2="854.263" y2="68.275" spreadMethod="pad"><stop offset="0%" stop-color="#F2DF43"/><stop offset="100%" stop-color="#E6B524"/></linearGradient><linearGradient id="r" gradientUnits="userSpaceOnUse" x1="847.925" y1="21.05" x2="877.575" y2="23.65" spreadMethod="pad"><stop offset="0%" stop-color="#F2DF43"/><stop offset="100%" stop-color="#E6B524"/></linearGradient><linearGradient id="s" gradientUnits="userSpaceOnUse" x1="830.825" y1="78.463" x2="848.775" y2="97.037" spreadMethod="pad"><stop offset="0%" stop-color="#FEC2D7"/><stop offset="100%" stop-color="#FEFEFE"/></linearGradient><linearGradient id="t" gradientUnits="userSpaceOnUse" x1="824.813" y1="73.438" x2="840.487" y2="87.563" spreadMethod="pad"><stop offset="0%" stop-color="#FEC2D7"/><stop offset="100%" stop-color="#FE8ABE"/></linearGradient><linearGradient id="u" gradientUnits="userSpaceOnUse" x1="701.2" y1="77.813" x2="683.6" y2="96.688" spreadMethod="pad"><stop offset="0%" stop-color="#FEC2D7"/><stop offset="100%" stop-color="#FEFEFE"/></linearGradient><linearGradient id="v" gradientUnits="userSpaceOnUse" x1="706.862" y1="73.35" x2="691.438" y2="87.75" spreadMethod="pad"><stop offset="0%" stop-color="#FEC2D7"/><stop offset="100%" stop-color="#FE8ABE"/></linearGradient><linearGradient id="w" gradientUnits="userSpaceOnUse" x1="766.3" y1="62.363" x2="766.3" y2="91.938" spreadMethod="pad"><stop offset="0%" stop-color="#F8D6A9"/><stop offset="100%" stop-color="#F9AD59"/></linearGradient><linearGradient id="x" gradientUnits="userSpaceOnUse" x1="765.3" y1="69.388" x2="765.3" y2="57.912" spreadMethod="pad"><stop offset="0%" stop-color="#F8D6A9"/><stop offset="100%" stop-color="#F9AD59"/></linearGradient><linearGradient id="y" gradientUnits="userSpaceOnUse" x1="766.35" y1="135.388" x2="766.35" y2="90.413" spreadMethod="pad"><stop offset="0%" stop-color="#FE66AC"/><stop offset="100%" stop-color="#FE91C0"/></linearGradient><linearGradient id="z" gradientUnits="userSpaceOnUse" x1="775.862" y1="81.375" x2="781.237" y2="61.325" spreadMethod="pad"><stop offset="0%" stop-color="#FE91C0"/><stop offset="100%" stop-color="#F9D7E9"/></linearGradient><linearGradient id="A" gradientUnits="userSpaceOnUse" x1="765.8" y1="4.412" x2="765.8" y2="24.188" spreadMethod="pad"><stop offset="0%" stop-color="#F2EC78"/><stop offset="100%" stop-color="#F3D72A"/></linearGradient><linearGradient id="B" gradientUnits="userSpaceOnUse" x1="820.4" y1="17.363" x2="820.4" y2="4.537" spreadMethod="pad"><stop offset="0%" stop-color="#F3EA76"/><stop offset="100%" stop-color="#FEFEFE"/></linearGradient><linearGradient id="C" gradientUnits="userSpaceOnUse" x1="711.75" y1="17.363" x2="711.75" y2="4.537" spreadMethod="pad"><stop offset="0%" stop-color="#F3EA76"/><stop offset="100%" stop-color="#FEFEFE"/></linearGradient><linearGradient id="D" gradientUnits="userSpaceOnUse" x1="703.888" y1="10.8" x2="716.813" y2="10.8" spreadMethod="pad"><stop offset="0%" stop-color="#FAE4C5"/><stop offset="100%" stop-color="#F8D6A9"/></linearGradient><linearGradient id="E" gradientUnits="userSpaceOnUse" x1="713.15" y1="14.387" x2="713.15" y2="4.512" spreadMethod="pad"><stop offset="0%" stop-color="#F8CA8F"/><stop offset="100%" stop-color="#F8BB75"/></linearGradient><linearGradient id="F" gradientUnits="userSpaceOnUse" x1="826.862" y1="10.8" x2="813.938" y2="10.8" spreadMethod="pad"><stop offset="0%" stop-color="#FAE4C5"/><stop offset="100%" stop-color="#F8D6A9"/></linearGradient><linearGradient id="G" gradientUnits="userSpaceOnUse" x1="818.4" y1="14.387" x2="818.4" y2="4.512" spreadMethod="pad"><stop offset="0%" stop-color="#F8CA8F"/><stop offset="100%" stop-color="#F8BB75"/></linearGradient><linearGradient id="H" gradientUnits="userSpaceOnUse" x1="765.75" y1="-23.65" x2="765.75" y2="59.65" spreadMethod="pad"><stop offset="0%" stop-color="#F8BB75"/><stop offset="16.078%" stop-color="#F8CE9A"/><stop offset="27.843%" stop-color="#FAE4C5"/><stop offset="85.882%" stop-color="#FAE4C5"/><stop offset="100%" stop-color="#F8CA8F"/></linearGradient><linearGradient id="I" gradientUnits="userSpaceOnUse" x1="765.8" y1="60.2" x2="765.8" y2="117" spreadMethod="pad"><stop offset="0%" stop-color="#FE3709"/><stop offset="74.902%" stop-color="#CA2B0E"/><stop offset="100%" stop-color="#C2290E"/></linearGradient><linearGradient id="J" gradientUnits="userSpaceOnUse" x1="766.05" y1="149.338" x2="766.05" y2="64.262" spreadMethod="pad"><stop offset="0%" stop-color="#D82E0D"/><stop offset="36.078%" stop-color="#EC320C"/><stop offset="69.02%" stop-color="#FE3709"/><stop offset="100%" stop-color="#FD714B"/></linearGradient><linearGradient id="K" gradientUnits="userSpaceOnUse" x1="766" y1="122.35" x2="766" y2="58.35" spreadMethod="pad"><stop offset="0%" stop-color="#F0330C"/><stop offset="27.843%" stop-color="#FE3709"/><stop offset="49.804%" stop-color="#FE532C"/><stop offset="100%" stop-color="#FAC3A9"/></linearGradient><linearGradient id="L" gradientUnits="userSpaceOnUse" x1="741.95" y1="56.6" x2="697.65" y2="97.9" spreadMethod="pad"><stop offset="0%" stop-color="#FEFEFE"/><stop offset="41.961%" stop-color="#FBDECE"/><stop offset="100%" stop-color="#FC7C56"/></linearGradient><linearGradient id="M" gradientUnits="userSpaceOnUse" x1="766.05" y1="162.363" x2="766.05" y2="144.938" spreadMethod="pad"><stop offset="0%" stop-color="#FE3C13"/><stop offset="100%" stop-color="#E7310D"/></linearGradient><linearGradient id="N" gradientUnits="userSpaceOnUse" x1="763.5" y1="-58.575" x2="763.5" y2="-20.225" spreadMethod="pad"><stop offset="0%" stop-color="#A3440D"/><stop offset="100%" stop-color="#671D0A"/></linearGradient><linearGradient id="O" gradientUnits="userSpaceOnUse" x1="761.875" y1="39.55" x2="771.325" y2="39.55" spreadMethod="pad"><stop offset="0%" stop-color="#FBA186"/><stop offset="100%" stop-color="#FE4027"/></linearGradient><linearGradient id="P" gradientUnits="userSpaceOnUse" x1="772.95" y1="12.963" x2="760.75" y2="11.237" spreadMethod="pad"><stop offset="0%" stop-color="#F8CA8F"/><stop offset="100%" stop-color="#FBF2E3"/></linearGradient><linearGradient id="Q" gradientUnits="userSpaceOnUse" x1="766.2" y1="22.375" x2="766.2" y2="25.625" spreadMethod="pad"><stop offset="0%" stop-color="#FAE4C5"/><stop offset="100%" stop-color="#F8CA8F"/></linearGradient><linearGradient id="R" gradientUnits="userSpaceOnUse" x1="766.988" y1="34.45" x2="763.212" y2="38.65" spreadMethod="pad"><stop offset="0%" stop-color="#FBA186"/><stop offset="100%" stop-color="#FBC7B2"/></linearGradient><linearGradient id="S" gradientUnits="userSpaceOnUse" x1="766.15" y1="32.462" x2="766.15" y2="27.538" spreadMethod="pad"><stop offset="0%" stop-color="#FBA186"/><stop offset="100%" stop-color="#FD6449"/></linearGradient><linearGradient id="T" gradientUnits="userSpaceOnUse" x1="739.8" y1="-4.6" x2="739.8" y2="9.7" spreadMethod="pad"><stop offset="0%" stop-color="#72230B"/><stop offset="100%" stop-color="#BE6B1B"/></linearGradient><linearGradient id="U" gradientUnits="userSpaceOnUse" x1="734.538" y1="6.8" x2="745.663" y2="6.8" spreadMethod="pad"><stop offset="0%" stop-color="#C57E35"/><stop offset="49.02%" stop-color="#DCB489"/><stop offset="100%" stop-color="#C57E35"/></linearGradient><linearGradient id="V" gradientUnits="userSpaceOnUse" x1="791.95" y1="-4.6" x2="791.95" y2="9.7" spreadMethod="pad"><stop offset="0%" stop-color="#72230B"/><stop offset="100%" stop-color="#BE6B1B"/></linearGradient><linearGradient id="W" gradientUnits="userSpaceOnUse" x1="786.538" y1="6.8" x2="797.663" y2="6.8" spreadMethod="pad"><stop offset="0%" stop-color="#C57E35"/><stop offset="49.02%" stop-color="#DCB489"/><stop offset="100%" stop-color="#C57E35"/></linearGradient><linearGradient id="X" gradientUnits="userSpaceOnUse" x1="759.888" y1="39.363" x2="764.513" y2="41.038" spreadMethod="pad"><stop offset="0%" stop-color="#FEFEFE"/><stop offset="100%" stop-color="#FBC7B2"/></linearGradient><linearGradient id="Y" gradientUnits="userSpaceOnUse" x1="762.888" y1="49.25" x2="771.013" y2="49.25" spreadMethod="pad"><stop offset="0%" stop-color="#FBF2E3"/><stop offset="100%" stop-color="#FAE4C5"/></linearGradient><linearGradient id="Z" gradientUnits="userSpaceOnUse" x1="702.45" y1="-59.7" x2="702.45" y2="-94" spreadMethod="pad"><stop offset="0%" stop-color="#BD6413"/><stop offset="100%" stop-color="#FEFEFE"/></linearGradient><linearGradient id="aa" gradientUnits="userSpaceOnUse" x1="719.1" y1="-60.65" x2="719.1" y2="-94.05" spreadMethod="pad"><stop offset="0%" stop-color="#BD6413"/><stop offset="100%" stop-color="#FEFEFE"/></linearGradient><linearGradient id="ab" gradientUnits="userSpaceOnUse" x1="741.75" y1="-60.575" x2="741.75" y2="-94.025" spreadMethod="pad"><stop offset="0%" stop-color="#BD6413"/><stop offset="100%" stop-color="#FEFEFE"/></linearGradient><linearGradient id="ac" gradientUnits="userSpaceOnUse" x1="729" y1="-60.662" x2="729" y2="-94.338" spreadMethod="pad"><stop offset="0%" stop-color="#BD6413"/><stop offset="100%" stop-color="#FEFEFE"/></linearGradient><linearGradient id="ad" gradientUnits="userSpaceOnUse" x1="753.5" y1="-60.625" x2="753.5" y2="-93.975" spreadMethod="pad"><stop offset="0%" stop-color="#BD6413"/><stop offset="100%" stop-color="#FEFEFE"/></linearGradient><linearGradient id="ae" gradientUnits="userSpaceOnUse" x1="805.15" y1="-60.662" x2="805.15" y2="-94.338" spreadMethod="pad"><stop offset="0%" stop-color="#BD6413"/><stop offset="100%" stop-color="#FEFEFE"/></linearGradient><linearGradient id="af" gradientUnits="userSpaceOnUse" x1="780.6" y1="-60.625" x2="780.6" y2="-93.975" spreadMethod="pad"><stop offset="0%" stop-color="#BD6413"/><stop offset="100%" stop-color="#FEFEFE"/></linearGradient><linearGradient id="ag" gradientUnits="userSpaceOnUse" x1="827.65" y1="-59.7" x2="827.65" y2="-94" spreadMethod="pad"><stop offset="0%" stop-color="#BD6413"/><stop offset="100%" stop-color="#FEFEFE"/></linearGradient><linearGradient id="ah" gradientUnits="userSpaceOnUse" x1="811.05" y1="-60.65" x2="811.05" y2="-94.05" spreadMethod="pad"><stop offset="0%" stop-color="#BD6413"/><stop offset="100%" stop-color="#FEFEFE"/></linearGradient><linearGradient id="ai" gradientUnits="userSpaceOnUse" x1="788.35" y1="-60.575" x2="788.35" y2="-94.025" spreadMethod="pad"><stop offset="0%" stop-color="#BD6413"/><stop offset="100%" stop-color="#FEFEFE"/></linearGradient><linearGradient id="aj" gradientUnits="userSpaceOnUse" x1="765" y1="-60.625" x2="765" y2="-93.975" spreadMethod="pad"><stop offset="0%" stop-color="#BD6413"/><stop offset="100%" stop-color="#FEFEFE"/></linearGradient><path fill="#FFF" fill-opacity="0" d="M0 320h284V0H0v320z" id="ak"/><path fill="#F2DF43" d="M717.05 36.2Q705.9 21.8 689 15.7q-11.45-4.05-23.65-2.5-5.6.75-9.25 1.95-4.6 1.5-8 4.3-3.2 2.75-2.2 6.7 1.2 4.35 7.55 4.55 3 .15 8.75-.55 4.15-.5 7.15-1.05-8.85 2.65-10.25 3.15-5.75 2.2-11.75 6.35-5.5 3.85-3.4 8.25 2.1 4.35 9.05 4.3 7.25-.1 15.45-2.9 4.3-1.45 9.25-3.65-5.3 2.6-8.6 4.5-6.1 3.45-10.1 7.5-3.95 4.1-1.55 7.75 2.4 3.7 9.05 2.75 3-.4 10.1-3.75 3.703-1.755 6-3.1-2.354 1.688-4.5 3.55-1.25 1.15-4.65 4.45-4.25 4.3-1.85 8.25 2.35 3.8 7.7 3.2 8.35-.95 16.35-7.35-6.1 6.15-6.55 6.55-2.85 3.15-3.55 5.35-1.8 5.55.75 7.85 2.2 2 7.25 1.3 6-.8 13.85-4.7 7.3-3.6 10.05-6.6l10.8-11.9q.85-18.35-11.2-34z" id="al"/><path fill="url(#a)" d="M665.8 35.4q-3.95 0-8.7 1.75-4.7 1.8-7.4 4.35t-1.85 4.3q.85 1.85 4.85 1.85 3.95 0 8.65-1.75 4.75-1.8 7.45-4.35t1.85-4.4q-.85-1.75-4.85-1.75z" id="am"/><path fill="url(#b)" d="M665.9 17.75q-3.55-.4-7.85.7-4.35 1.1-6.95 2.95-2.6 1.9-1.95 3.55.65 1.6 4.15 2 3.55.35 7.85-.75 4.3-1.05 6.95-2.95 2.65-1.9 2-3.5-.7-1.6-4.2-2z" id="an"/><path fill="url(#c)" d="M675.15 51.25q-3.35.45-7.15 2.55-3.8 2.2-5.85 4.75-2.05 2.6-1.15 4.05.95 1.5 4.3 1.05 3.35-.45 7.15-2.6 3.8-2.1 5.8-4.65 2.05-2.6 1.1-4.1-.85-1.5-4.2-1.05z" id="ao"/><path fill="url(#d)" d="M688.1 64.5q-3.15.4-6.7 2.4-3.55 2-5.5 4.45-1.9 2.45-1.05 3.85.85 1.4 4 .95 3.1-.4 6.65-2.4 3.55-2 5.5-4.45 1.9-2.4 1.05-3.85-.85-1.4-3.95-.95z" id="ap"/><path fill="#EECA27" d="M692.55 17.15q-.8.85-1.6 2.15-6.05 10.05-1.3 24.9 4.8 14.8 17.6 25.6 6.35 5.4 13.65 8.5l7.35-8.1q.8-17.35-10.05-32.4-9.95-13.9-25.65-20.65z" id="aq"/><path fill="url(#e)" d="M693 23.85q-2.7 2-1.45 9.4 1.4 8.5 7.6 16.9 5.95 8.1 12.55 10.1 5.05 1.45 8.15-.75 2.3-1.75-.1-9.45-2.5-7.95-7.85-14.7-5.4-6.65-11.1-10-5.5-3.25-7.8-1.5z" id="ar"/><path fill="url(#f)" d="M653.15 43.3l30.25-7.85-.95-2.95-29.3 10.8z" id="as"/><path fill="url(#g)" d="M664.95 60.85l23.7-12.1-1.35-2.3-22.35 14.4z" id="at"/><path fill="url(#h)" d="M697 63.15l-1.15-1.85-18.15 12.3L697 63.15z" id="au"/><path fill="url(#i)" d="M652.6 23.7q18.3-4.45 31.4-.2l-.1-2.6q-15.2-3.35-31.3 2.8z" id="av"/><path fill="#F2DF43" d="M883.4 19.45q-3.4-2.8-8-4.3-3.6-1.2-9.2-1.95-12.05-1.5-23.7 2.5-16.85 6.1-27.95 20.5-12.05 15.65-11.25 34l10.85 11.9q2.7 2.95 10 6.6Q832 92.6 838 93.4q5.05.7 7.3-1.3 2.6-2.3.75-7.85-.75-2.2-3.6-5.35l-6.55-6.55q8 6.4 16.35 7.35 5.35.6 7.7-3.2 2.45-3.95-1.85-8.25-3.25-3.2-4.7-4.45-2.186-1.925-4.65-3.65 2.366 1.369 6.2 3.2 7.15 3.35 10.2 3.75 6.6.95 9.05-2.75 2.35-3.65-1.65-7.75-4-4.05-10.1-7.5-6.35-3.25-8.6-4.5 1.65.6 9.3 3.65 8.2 2.8 15.35 2.9 7.05.05 9.15-4.3 2.1-4.4-3.45-8.25-6.05-4.15-11.75-6.35-1.4-.5-10.2-3.15 2.9.55 7.1 1.05 5.75.7 8.75.55 6.4-.2 7.55-4.55 1.05-4-2.25-6.7z" id="aw"/><path fill="url(#j)" d="M874.5 37.15q-4.75-1.75-8.75-1.75-3.95 0-4.85 1.75-.85 1.85 1.85 4.4 2.7 2.55 7.4 4.35 4.8 1.75 8.75 1.75t4.8-1.85q.95-1.75-1.8-4.3-2.7-2.55-7.4-4.35z" id="ax"/><path fill="url(#k)" d="M873.5 18.45q-4.35-1.1-7.9-.7-3.5.4-4.15 2-.6 1.6 2 3.5 2.65 1.9 6.95 2.95 4.3 1.1 7.85.75 3.5-.4 4.15-2 .65-1.65-1.95-3.55-2.6-1.85-6.95-2.95z" id="ay"/><path fill="url(#l)" d="M863.55 53.8q-3.8-2.1-7.1-2.55-3.35-.45-4.3 1.05-.9 1.5 1.15 4.1 2.05 2.55 5.85 4.65 3.75 2.15 7.15 2.6 3.3.45 4.25-1.05.9-1.45-1.15-4.05-2.05-2.6-5.85-4.75z" id="az"/><path fill="url(#m)" d="M850.25 66.9q-3.6-2-6.75-2.4-3.15-.45-4 .95-.85 1.45 1.05 3.85 1.95 2.45 5.5 4.45t6.75 2.4q3.15.45 4-.95.85-1.4-1.05-3.85-1.95-2.45-5.5-4.45z" id="aA"/><path fill="#EECA27" d="M841.9 44.2q4.75-14.85-1.3-24.9-.45-.7-1.55-2.15-15.7 6.75-25.7 20.65-10.85 15.05-10.05 32.4l7.35 8.1q7.3-3.1 13.65-8.5 12.8-10.8 17.6-25.6z" id="aB"/><path fill="url(#n)" d="M840 33.25q1.25-7.35-1.35-9.4-2.35-1.75-7.85 1.5-5.75 3.35-11.1 10-5.4 6.75-7.85 14.7-2.4 7.7-.05 9.45 3 2.25 8.05.75 6.6-2 12.6-10.1 6.1-8.4 7.55-16.9z" id="aC"/><path fill="url(#o)" d="M849.1 32.5l-.95 2.95 30.25 7.85-29.3-10.8z" id="aD"/><path fill="url(#p)" d="M844.25 46.45l-1.35 2.3 23.65 12.1-22.3-14.4z" id="aE"/><path fill="url(#q)" d="M835.75 61.3l-1.15 1.85 19.3 10.45-18.15-12.3z" id="aF"/><path fill="url(#r)" d="M847.7 20.9l-.15 2.6q13.1-4.25 31.5.2-16.25-6.15-31.35-2.8z" id="aG"/><path fill="url(#s)" d="M838.5 80.2q-3.35-2.9-6.7-4.15-3.35-1.25-4.7-.05-1.35 1.15.1 4.05 1.45 2.85 4.8 5.8 3.35 2.9 6.7 4.15 3.35 1.25 4.7.1 1.35-1.2-.1-4.1-1.45-2.85-4.8-5.8z" id="aH"/><path fill="url(#t)" d="M823.5 73.75l16.6 14.4-15.05-16-1.55 1.6z" id="aI"/><path fill="url(#u)" d="M688.3 86q-1.45 2.9-.15 4.1 1.35 1.15 4.7-.1 3.35-1.2 6.7-4.15 3.4-2.95 4.8-5.8 1.45-2.9.1-4.05-1.35-1.2-4.7.05t-6.7 4.15q-3.35 2.9-4.75 5.8z" id="aJ"/><path fill="url(#v)" d="M691.45 88.15l16.6-14.4-1.55-1.6-15.05 16z" id="aK"/><path fill="url(#w)" d="M736.85 96l27.9.8 29.75-.8 1.8-31.45-21.4-4.35-10.15.35-10.15-.35-18.35 4.35.6 31.45z" id="aL"/><path fill="#FA9E40" d="M751.55 87.4q.75.75 1.75.75 1.1 0 1.85-.75t.75-1.8q0-1.05-.75-1.8t-1.85-.75q-1 0-1.75.75t-.75 1.8q0 1.05.75 1.8z" id="aM"/><path fill="#FE74B3" d="M738.15 97.1q-.6.4-.05.4 7.1 0 17.95-9.8 8.527-7.692 13.05-15.05-3.407 4.808-13.25 10.45-11 6.2-19.45 8.05-1.6.35-.75 1.05 1.3 1 .4 2.15-.65.85.75 1.4.7.3 1.9.65.25.25-.55.7z" id="aN"/><path fill="#F8D6A9" d="M727.25 121.3q-2.15 1.05-2.25 2.9-.45 9.95-1.25 19.25-1.25 13.8-2.9 18.4l2.85-1.9 28.4 1.9q-.9-5-.8-18.4.15-12.65.95-19.25.25-1.85-1.35-2.9-1.4-.9-3.65-.9h-15.8q-2.35 0-4.2.9z" id="aO"/><path fill="#F8CA8F" d="M752.15 134.35l-3.85-2.2-1.55 7.6v21.7l6.15.4q-.55-2.85-.75-12-.15-8 0-15.5z" id="aP"/><path fill="#F3EF8D" d="M724.8 134.35q-.5-.5-1.15 0-.6.65 0 1.25l25 22.6q.65.55 1.2-.05.5-.7-.05-1.25l-25-22.55z" id="aQ"/><path fill="#F3EF8D" d="M726.75 154.45q-.35.15-.4.5-.05.4.2.65.45.6 1.2.2l20.9-15.45q.6-.5.15-1.15-.2-.35-.55-.4-.35-.05-.6.2l-20.9 15.45z" id="aR"/><path fill="#C0E5F0" d="M746.75 136.65V139l5.35-3.55.05-4.2-1.8-1-2.35.1-1.25 6.3z" id="aS"/><path fill="#F3D72A" d="M727.2 154.4q-4.55 2.2-6.65 6.2-1.65 3.15.3 5.4 1.8 2.05 5.2 2.05h21.15q3.35 0 5.15-2.05 2-2.25.3-5.4-2.1-4-6.65-6.2-4.25-2.1-9.4-2.1t-9.4 2.1z" id="aT"/><path fill="#F8D6A9" d="M800.9 120.4h-15.85q-2.25 0-3.6.9-1.6 1.05-1.35 2.9.8 6.6.95 19.25.1 13.4-.8 18.4l28.45-1.9 2.8 1.9q-2.5-6.9-4.2-37.65-.1-1.85-2.2-2.9-1.85-.9-4.2-.9z" id="aU"/><path fill="#F8CA8F" d="M808.5 142.25q-.8-8.75-1.2-18.05-.05-1.7-1.9-2.75-1.55-.85-3.75-1 .9 24.2 3.2 39.7l3.85-.2 1 .7h1.35q-1.45-5.35-2.55-18.4z" id="aV"/><path fill="#F3EF8D" d="M808.9 135.6q.6-.5.05-1.25-.2-.2-.55-.2-.4-.05-.65.2L782.4 156.9q-.55.6-.05 1.25.6.6 1.2.05l25.35-22.6z" id="aW"/><path fill="#F3EF8D" d="M784.65 139l-1 1.35 20.85 15.45 1-1.35L784.65 139z" id="aX"/><path fill="#F3D72A" d="M811.5 166q2.05-2.25.35-5.4-2.1-4-6.7-6.2-4.25-2.1-9.4-2.1-5.2 0-9.45 2.1-4.55 2.2-6.65 6.2-1.65 3.15.35 5.4 1.85 2.05 5.15 2.05h21.15q3.35 0 5.2-2.05z" id="aY"/><path fill="url(#x)" d="M753.15 57.6q0 3.55 2.55 6.1t6.1 2.55h7q3.55 0 6.1-2.55t2.55-6.1v-8.7h-24.3v8.7z" id="aZ"/><path fill="url(#y)" d="M770 145.65q1.7-11.8 1.5-24.2-.3-17.75-4.65-31.45.95 13.4-1 30.6-1.8 16-4.7 23.9 1.45.55 4.45.6 3 .05 4.4.55z" id="ba"/><path fill="url(#z)" d="M772.25 82.9q2 .2 6.75 1-1.1-3.2-.3-8.9.75-5.4 2.7-9.85 1.2-2.7-.1-2.95t-3 2.2q-4.6 6.65-6.05 18.5z" id="bb"/><path fill="#FE66AC" d="M794.5 95.9l.2-3.85q-4.3-2.3-7.25-5.7-3.55-4.05-4.45-8.95.8 7 4.35 11.85 2.4 3.25 7.15 6.65z" id="bc"/><path fill="url(#A)" d="M724.85-28.1q-2.7 2.75-2.7 6.6 0 3.3 2 5.75l-.05.05q-2.55-2.15-5.9-2.15-3.85 0-6.65 2.75-2.75 2.75-2.75 6.55 0 2.7 1.5 5 1.4 2.2 3.7 3.4l-.05.25q-7.85 2.45-9 8.9-1.1 5.95 3.8 9.95 4.4 3.55 9.6 2.25 6.25-1.6 10.75-10.05 1.65 4.7 5.6 6.8 3.25 1.75 7.1 1.3 4.85-.55 7.9-4.35 2.8-3.478 2.55-7.8.47 3.547 2.95 5.85 2.6 2.45 6.05 2.35 8.45-.25 10.05-10.25.9-5.85-.7-15.05 2.3 10.85 4.05 15.35 2.1 5.3 5.75 8.15 2.5 1.95 5.6 2.25 3 .25 5.4-1.1 5.65-3.25 2.65-11.05 2.2 4.95 4.05 8 2.25 3.75 4.8 6.05 5.9 5.35 13.65 4.75 8.45-.7 10.05-8.65.7-3.55-1.1-7.05-1.95-3.85-6.4-6.4 2.35-1.15 3.8-3.4 1.5-2.3 1.5-5 0-3.85-2.75-6.65-2.7-2.75-6.55-2.75-3 0-5.5 1.8v-.05q2.25-2.55 2.25-6.05 0-3.8-2.75-6.55-2.7-2.75-6.55-2.75-2.6 0-4.8 1.3-2.15 1.3-3.4 3.45.5-1.5.5-3 0-3.9-2.7-6.6-2.75-2.75-6.65-2.75-3.35 0-5.95 2.2-2.55 2.1-3.2 5.35h-.05l.05-.45q0-3.9-2.75-6.6-2.75-2.75-6.6-2.75-3.85 0-6.55 2.75-2.75 2.7-2.75 6.6v.65h-.05q-.7-3.15-3.2-5.25-2.6-2.15-5.95-2.15-3.8 0-6.55 2.75T739.2-29q0 1.7.5 3l-.05.1q-1.2-2.25-3.4-3.55-2.2-1.35-4.8-1.35-3.85 0-6.6 2.7z" id="bd"/><path fill="url(#B)" d="M824.6 11.6q0-2.65-1.9-4.55t-4.5-1.9q-1.2 0-2.05.35 1.95.65 3.15 2.3 1.25 1.7 1.25 3.8 0 2.1-1.25 3.8-1.2 1.65-3.15 2.35.75.25 2.05.25 2.65 0 4.5-1.85 1.9-1.9 1.9-4.55z" id="be"/><path fill="url(#C)" d="M713.95 5.15q-2.65 0-4.55 1.9t-1.9 4.55q0 2.65 1.9 4.55 1.9 1.85 4.55 1.85 1.25 0 2.05-.25-1.95-.7-3.2-2.35-1.25-1.75-1.25-3.8 0-2.1 1.25-3.8 1.25-1.65 3.2-2.3-.9-.35-2.05-.35z" id="bf"/><path fill="#7E290B" d="M723.1-58.45q-4.8 0-8.2 3.45-3.4 3.4-3.4 8.2 0 4.1 2.5 7.15l-.05.05q-3.3-2.65-7.35-2.65-4.8 0-8.25 3.45-3.45 3.4-3.45 8.2 0 3.35 1.85 6.2 1.75 2.75 4.65 4.2-.1.3-.15.35-9.75 3.05-11.2 11.05-1.3 7.45 4.8 12.4 5.4 4.45 11.95 2.8 7.75-1.95 13.4-12.45 2.05 5.85 6.9 8.45 4 2.1 8.85 1.6 6-.7 9.9-5.4 3.52-4.332 3.25-9.7.556 4.377 3.65 7.25Q756-.8 760.25-.9q10.5-.3 12.5-12.75 1.2-7.45-.8-18.8 2.85 13.55 5.05 19.1 2.6 6.65 7.15 10.1 3.1 2.45 7 2.8 3.7.35 6.65-1.3 7.1-4.05 3.3-13.7 2.75 6.05 5.05 9.9 2.9 4.65 6.05 7.6 7.35 6.6 17.05 5.85 10.45-.8 12.4-10.7.9-4.45-1.3-8.85-2.45-4.85-8-8 2.95-1.4 4.8-4.2 1.85-2.9 1.85-6.3 0-4.8-3.4-8.2-3.45-3.4-8.25-3.4-3.7 0-6.8 2.15h-.05q2.8-3.2 2.8-7.55 0-4.8-3.4-8.2-3.4-3.45-8.2-3.45-3.15 0-5.95 1.65-2.65 1.6-4.2 4.3h-.05q.65-1.95.65-3.8 0-4.8-3.4-8.2-3.4-3.4-8.2-3.4-4.25 0-7.5 2.7-3.2 2.7-3.95 6.75h-.1v-.6q0-4.8-3.35-8.2-3.4-3.45-8.2-3.45-4.85 0-8.25 3.45-3.45 3.4-3.45 8.2l.1.9h-.1q-.8-4-4-6.65-3.2-2.65-7.35-2.65-4.8 0-8.25 3.45-3.45 3.4-3.45 8.2 0 1.55.65 3.8h-.05q-1.5-2.75-4.15-4.4-2.8-1.7-6.05-1.7z" id="bg"/><path fill="#5C1709" d="M824.1-20.35l-6.85-12.75-6.85 13.7-6.85 35.6q2.85.5 10.7 3.65 7.05 2.25 9.5-.75-5.15.35-5.7-3.65-.55-4 3.9-8.45 1.55.35 3.7 1.2 1.7.55 2.9-.2-8.05 0-8.85-10.05-.75-9.2 4.4-18.3z" id="bh"/><path fill="#5C1709" d="M714.95-34.1l-8.3 13q5.95 5.7 4.95 16.05-1.05 10.5-8.4 11.1 1 .65 1.15 1 0 .05 1.95-.35 5.45 5.55 6.2 6.95 1.4 2.55-3.3 2.3 2.75 3.4 9.8 4.95 6.2 1.3 11.05.5l-8.25-41.9-6.85-13.6z" id="bi"/><path fill="#9A3A0B" d="M836.55-10.6q-2.5-2.55-6.05-2.55-1.3 0-2.75.4 2.6.85 4.25 3.1t1.65 5.05q0 2.85-1.65 5.1-1.65 2.2-4.25 3.05 1.5.5 2.75.5 3.55 0 6.05-2.55t2.5-6.1q0-3.5-2.5-6z" id="bj"/><path fill="#9A3A0B" d="M702.2-13.75q-3.55 0-6.05 2.5-2.5 2.55-2.5 6.1t2.5 6.05q2.5 2.5 6.05 2.5 1.4 0 2.75-.45-2.6-.85-4.2-3.05-1.65-2.25-1.65-5.05t1.65-5.05q1.6-2.25 4.2-3.1-1.35-.45-2.75-.45z" id="bk"/><path fill="url(#D)" d="M717.15-.15Q713-2.65 708.9-1.2q-4.15 1.4-5.85 5.9-1.75 4.55-.05 9.5 1.75 4.95 5.85 7.5 4.15 2.5 8.25 1.05 4.15-1.4 5.9-5.9 1.7-4.5 0-9.5-1.75-4.95-5.85-7.5z" id="bl"/><path fill="url(#E)" d="M710.85 3.45q-2.4.85-3.4 3.4-.95 2.6 0 5.5 1 2.85 3.35 4.25 2.35 1.45 4.7.6 2.4-.8 3.4-3.35 1-2.6 0-5.4-.95-2.85-3.35-4.35-2.35-1.45-4.7-.65z" id="bm"/><path fill="url(#F)" d="M822.7-1.2q-4.1-1.45-8.25 1.05-4.15 2.55-5.85 7.5-1.7 5 0 9.5t5.85 5.9q4.1 1.45 8.25-1.05 4.15-2.55 5.85-7.5 1.75-4.95 0-9.5-1.7-4.5-5.85-5.9z" id="bn"/><path fill="url(#G)" d="M824.1 6.85q-.95-2.55-3.3-3.4-2.4-.8-4.75.65-2.4 1.45-3.35 4.35-.95 2.8.05 5.4.95 2.55 3.3 3.35 2.35.85 4.7-.6 2.4-1.4 3.35-4.25.95-2.9 0-5.5z" id="bo"/><path fill="url(#H)" d="M716.8-29.7q-.8 2.95-.6 13.65.2 11.55-.2 14.25-2.35 15.85-.15 25.3 2.65 11.4 13 21 7.45 6.95 16.9 10.8 9.65 3.9 20 3.95 10.35-.05 20.05-3.95 9.45-3.85 16.9-10.8 10.35-9.6 13-21 2.2-9.45-.2-25.3-.4-2.65-.15-14.25.2-10.7-.6-13.65-4.75-17-17.5-25-11.9-7.55-31.5-7.65-19.55.1-31.45 7.65-12.75 8.05-17.5 25z" id="bp"/><path fill="url(#I)" d="M839.65 73.75q-2.65-19.7-18.5-29.2-15.65-9.35-34.55-3.3-6.6 2.1-11.9 6.15-5.55 4.2-8.95 10-3.35-5.8-8.9-10-5.3-4.05-11.9-6.15-18.9-6.05-34.5 3.3-15.9 9.5-18.5 29.2-2 15.2 7 30.65 7.15 12.3 19.65 22.35 5.45 4.4 14.7 10.4 10.4 6.75 13.75 9.25 14.7 11 18.7 25.6 4.05-14.6 18.75-25.6 3.35-2.5 13.75-9.25 9.25-6 14.7-10.4 12.45-10.05 19.65-22.35 9-15.45 7.05-30.65m-21.1-24.65q13.95 8.4 16.25 25.8 2.55 19.6-10.15 36.2-7.5 9.85-28.55 26.15-15.1 11.5-16.8 13-9.55 8.2-13.55 15.75-3.9-7.55-13.5-15.75-.6-.55-16.7-13-21.1-16.2-28.65-26.15-12.75-16.55-10.2-36.2Q699 57.5 713 49.1q13.8-8.35 30.45-3 6 1.9 10.7 5.6 4.95 3.85 7.8 9.25 1.05 1.95 1.75 3.95l2.05 6.1 2.2-6.1q.5-1.85 1.65-3.95 2.8-5.35 7.75-9.25 4.75-3.7 10.75-5.6 16.65-5.35 30.45 3z" id="bq"/><path fill="url(#J)" d="M836.55 94q2.4-9.3 1.4-18.45-2.3-20.75-19.1-29.6-14.15-7.4-30.5-2.4-17.1 5.2-22.3 20.45-5.25-15.25-22.35-20.45-16.35-5-30.5 2.4-16.75 8.85-19.05 29.6-1 9.15 1.4 18.45 2.45 9.35 7.8 16.75 6.65 9.05 19.05 19.3 7.05 5.8 21.25 16.75 10.75 8.75 13.35 11.45 6.5 6.7 9.05 14.9 2.55-8.2 9.05-14.9 2.6-2.7 13.35-11.45 6.8-5.5 21.3-16.75 12.35-10.25 18.95-19.3 5.4-7.4 7.85-16.75z" id="br"/><path fill="url(#K)" d="M829.55 89.5q3.4-11.05 1.4-20.15-1.85-8.3-7.85-13.9-6.05-5.65-14.9-7.45-8.65-1.75-17.3.75-9.1 2.6-15.5 9.3-7 7.4-9.35 18.35-2.35-10.95-9.4-18.35-6.35-6.7-15.45-9.3-8.65-2.5-17.35-.75-8.8 1.8-14.9 7.45-6 5.6-7.85 13.9-2 9.1 1.4 20.15 4.6 14.95 23.5 24.45 17.5 8.75 40.05 9.55 22.55-.8 40.05-9.55 18.85-9.5 23.45-24.45z" id="bs"/><path fill="url(#L)" d="M758.2 66.7q-6.05-10.25-15.8-13.9-10.2-3.85-21.65.7-11.65 4.75-14.9 16.9-3.05 11.2 2.4 22.15-4.25-11.35.2-21.2 4.05-8.9 13.5-13.55 9.35-4.65 19.1-2.65Q751.7 57.3 758.2 66.7z" id="bt"/><path fill="url(#M)" d="M754.9 148.95q6.85 6.6 11.15 13.35 4.25-6.75 11.1-13.35 4.85-4.7 13.15-11.2-24.312 17.904-47.5.75 7.506 5.95 12.1 10.45z" id="bu"/><path fill="#A74A0E" d="M702.9-43.7q-4.3 3.7-3.25 4.2-.05.1-1.3-.05-1.25-.2-1.35-.2-4.8 1.55-7.65 4.45-2.7 2.75-3.15 6.25-1.2 9.65 6.4 14.65 7.3 4.8 15.5 1.4 6-2.55 11-12.05 2.15 6.1 7 8.7 4 2.15 8.95 1.6 6.05-.7 9.75-5.5 3.364-4.41 3-9.95.62 4.466 4.05 7.45 3.6 3.15 8 2.95 8.25-.25 11-8 1.9-5.4 1.25-15.4 1.55 9.05 4 14.3 3.75 8.1 10.2 10 6.95 2.05 12.2-2.3 5.7-4.75 3.15-13.4 3.6 8 5 10.65 3 5.55 6.05 8.35 7.4 6.65 17.25 5.45 10.55-1.3 12.55-11.5.95-4.75-1.05-9.5-2.35-5.4-7.85-8.6-3.6 1.35-9.65 3.15-12.6 3.75-12.6.35 0-29.8-18.2-37.45-14.7-6.15-39.7 2.3-19.15 6.5-38.65 19.1-7.45 4.8-11.9 8.6z" id="bv"/><path fill="#FBF2E3" d="M764.7 25.35q.65.6 1.5.6.8 0 1.4-.6.6-.55.6-1.35 0-.75-.6-1.3-.6-.6-1.4-.6-.85 0-1.5.6-.6.55-.6 1.3 0 .8.6 1.35z" id="bw"/><path fill="url(#N)" d="M719.75-82.65q-4.9 0-8.45 3.5-3.5 3.5-3.5 8.4 0 4 2.6 7.35l-.05.05q-3.3-2.75-7.5-2.75-4.9 0-8.4 3.5t-3.5 8.4q0 3.45 1.85 6.35 1.75 2.8 4.7 4.3l-.05.35q-10.05 3.1-11.5 11.35-1.35 7.6 4.85 12.7 5.6 4.55 12.25 2.85 7.95-2 13.7-12.75 2.05 6 7.05 8.65 4.15 2.15 9.15 1.6 6.1-.7 10.05-5.5 3.625-4.44 3.3-9.95.597 4.475 3.75 7.45 3.35 3.1 7.65 3 10.8-.3 12.8-13.05 1.25-7.7-.85-19.2 2.95 13.95 5.2 19.6 2.65 6.75 7.25 10.35 3.2 2.45 7.2 2.8 3.8.35 6.85-1.35 7.25-4.15 3.4-14.05 2.75 6.15 5.15 10.15 2.95 4.8 6.15 7.75 7.45 6.75 17.4 6Q839-15.6 841-25.75q.9-4.6-1.4-9.05-2.5-4.9-8.15-8.15 3.05-1.5 4.9-4.3 1.85-2.95 1.85-6.45 0-4.9-3.45-8.4-3.5-3.5-8.45-3.5-3.65 0-6.9 2.25h-.05q2.85-3.3 2.85-7.75 0-4.9-3.45-8.4-3.5-3.5-8.4-3.5-3.3 0-6.1 1.7-2.75 1.6-4.3 4.4l-.05-.05q.65-1.65.65-3.8 0-4.9-3.5-8.4t-8.4-3.5q-4.3 0-7.6 2.8-3.3 2.75-4.05 6.85h-.05v-.65q0-4.9-3.5-8.4t-8.4-3.5q-4.9 0-8.4 3.5t-3.5 8.4v.95h-.05q-.85-4.1-4.05-6.75-3.3-2.75-7.55-2.75-4.9 0-8.4 3.5-3.45 3.5-3.45 8.35 0 2.2.65 3.95h-.1q-1.55-2.8-4.3-4.5-2.85-1.75-6.15-1.75z" id="bx"/><path fill="#FBF2E3" d="M762.75 16.35q-3.65 0-7.05 3.2-3.8 3.6-3.75 8.75.05 4.8 3 5.5 1.75.4 6.2-.15 3.1 0 4.25-2.1.95-1.75.95-6.2 0-5.75-.2-6.55-.55-2.45-3.4-2.45z" id="by"/><path fill="#FBF2E3" d="M773.85 40.4q.55-1.35.5-6.2-.05-1.95-3.3-.35-4.8 2.35-6.95 2.4-2.2.05-6.7-2.15-3-1.45-2.95.5 0 3.55 2.55 6.45 3.35 3.7 9.4 3.25 6-.4 7.45-3.9z" id="bz"/><path fill="url(#O)" d="M776 35.35q0-1.75-3.05-.4-4.85 2.1-6.75 2.3-1.9-.2-6.75-2.3-3.05-1.35-3.1.4-.1 3.15 2.1 5.9 2.7 3.45 7.75 3.6 4.95-.15 7.7-3.6 2.15-2.75 2.1-5.9z" id="bA"/><path fill="#FAE4C5" d="M745.35 17.55q-3.65-3.65-8.8-3.65t-8.8 3.65q-3.65 3.65-3.65 8.8t3.65 8.8q3.65 3.65 8.8 3.65t8.8-3.65q3.65-3.65 3.65-8.8t-3.65-8.8z" id="bB"/><path fill="#FAE3C4" d="M745.15 17.75q-3.55-3.55-8.6-3.55t-8.6 3.55q-3.6 3.55-3.6 8.6t3.6 8.6q3.6 3.6 8.6 3.6t8.6-3.6q3.55-3.55 3.55-8.6t-3.55-8.6z" id="bC"/><path fill="#FAE3C3" d="M744.95 17.95q-3.5-3.5-8.4-3.5t-8.45 3.5q-3.5 3.45-3.5 8.4 0 4.9 3.5 8.45 3.55 3.5 8.45 3.5 4.9 0 8.4-3.5 3.5-3.55 3.5-8.45 0-4.95-3.5-8.4z" id="bD"/><path fill="#FAE2C2" d="M744.8 18.1q-3.45-3.4-8.25-3.4t-8.2 3.4q-3.45 3.4-3.45 8.25 0 4.8 3.45 8.25 3.4 3.4 8.2 3.4 4.8 0 8.25-3.4 3.4-3.45 3.4-8.25 0-4.85-3.4-8.25z" id="bE"/><path fill="#FAE1C1" d="M744.55 18.3q-3.3-3.3-8-3.3t-8.05 3.3q-3.35 3.35-3.35 8.05 0 4.7 3.35 8.05 3.35 3.35 8.05 3.35 4.7 0 8-3.35 3.35-3.35 3.35-8.05 0-4.7-3.35-8.05z" id="bF"/><path fill="#FAE0C0" d="M744.4 18.5q-3.25-3.25-7.85-3.25t-7.85 3.25q-3.25 3.25-3.25 7.85t3.25 7.85q3.3 3.25 7.85 3.25 4.6 0 7.85-3.25t3.25-7.85q0-4.6-3.25-7.85z" id="bG"/><path fill="#F9E0BF" d="M744.2 18.7q-3.15-3.15-7.65-3.15-4.45 0-7.65 3.15t-3.2 7.65q0 4.45 3.2 7.65t7.65 3.2q4.45 0 7.65-3.2t3.2-7.65q0-4.5-3.2-7.65z" id="bH"/><path fill="#F9DFBE" d="M729.1 33.85q3.1 3.1 7.45 3.1t7.45-3.1q3.1-3.15 3.1-7.5 0-4.4-3.1-7.45-3.1-3.1-7.45-3.1t-7.45 3.1q-3.15 3.1-3.15 7.45t3.15 7.5z" id="bI"/><path fill="#F9DEBD" d="M729.3 33.6q3 3.05 7.25 3.05t7.25-3.05q3.05-3 3.05-7.25t-3.05-7.3q-3-3-7.25-3t-7.25 3q-3.05 3.05-3.05 7.3t3.05 7.25z" id="bJ"/><path fill="#F9DDBC" d="M729.45 33.45q3 2.95 7.1 2.95t7.05-2.95q2.95-2.95 2.95-7.1 0-4.15-2.95-7.1-2.9-2.9-7.05-2.9t-7.1 2.9q-2.95 2.95-2.95 7.1 0 4.15 2.95 7.1z" id="bK"/><path fill="#F9DCBB" d="M729.65 33.25q2.9 2.85 6.9 2.85t6.9-2.85q2.85-2.9 2.85-6.9 0-4.05-2.85-6.9-2.9-2.85-6.9-2.85t-6.9 2.85q-2.85 2.85-2.85 6.9 0 4 2.85 6.9z" id="bL"/><path fill="#F9DCBA" d="M729.85 33.05q2.8 2.8 6.7 2.8 3.9 0 6.7-2.8 2.8-2.8 2.8-6.7 0-3.9-2.8-6.7-2.8-2.75-6.7-2.75-3.9 0-6.7 2.75-2.8 2.8-2.8 6.7 0 3.9 2.8 6.7z" id="bM"/><path fill="#F9DBB9" d="M730.05 32.85q2.7 2.75 6.5 2.75t6.5-2.75q2.7-2.7 2.7-6.5t-2.7-6.5q-2.7-2.7-6.5-2.7t-6.5 2.7q-2.75 2.7-2.75 6.5t2.75 6.5z" id="bN"/><path fill="#F9DAB8" d="M730.25 32.65q2.65 2.65 6.3 2.65 3.7 0 6.3-2.65 2.65-2.6 2.65-6.3 0-3.7-2.65-6.35-2.6-2.6-6.3-2.6-3.7 0-6.3 2.6-2.65 2.65-2.65 6.35 0 3.7 2.65 6.3z" id="bO"/><path fill="#F9D9B7" d="M730.4 32.5q2.6 2.55 6.15 2.55 3.55 0 6.1-2.55 2.55-2.6 2.55-6.15 0-3.6-2.55-6.1-2.55-2.55-6.1-2.55t-6.15 2.55q-2.55 2.5-2.55 6.1 0 3.55 2.55 6.15z" id="bP"/><path fill="#F9D8B6" d="M730.65 32.3q2.45 2.45 5.9 2.45t5.95-2.45q2.45-2.5 2.45-5.95 0-3.5-2.45-5.95-2.5-2.45-5.95-2.45t-5.9 2.45q-2.5 2.45-2.5 5.95 0 3.45 2.5 5.95z" id="bQ"/><path fill="#F9D8B5" d="M730.8 32.1q2.4 2.4 5.75 2.4t5.75-2.4q2.4-2.4 2.4-5.75t-2.4-5.75q-2.4-2.35-5.75-2.35t-5.75 2.35q-2.4 2.4-2.4 5.75t2.4 5.75z" id="bR"/><path fill="#F9D7B4" d="M731 31.95q2.3 2.3 5.55 2.3t5.55-2.3q2.3-2.35 2.3-5.6 0-3.25-2.3-5.55t-5.55-2.3q-3.25 0-5.55 2.3-2.35 2.3-2.35 5.55t2.35 5.6z" id="bS"/><path fill="#F9D6B3" d="M731.2 31.75q2.25 2.2 5.35 2.2 3.1 0 5.35-2.2 2.25-2.25 2.25-5.4 0-3.15-2.25-5.35-2.25-2.25-5.35-2.25-3.1 0-5.35 2.25-2.25 2.2-2.25 5.35 0 3.15 2.25 5.4z" id="bT"/><path fill="#F9D5B2" d="M731.4 31.55q2.15 2.15 5.15 2.15 3 0 5.15-2.15 2.15-2.15 2.15-5.2 0-3.05-2.15-5.15-2.15-2.15-5.15-2.15-3 0-5.15 2.15-2.2 2.15-2.2 5.15 0 3.05 2.2 5.2z" id="bU"/><path fill="#F9D5B1" d="M731.6 31.35q2.05 2.05 4.95 2.05 2.9 0 4.95-2.05 2.1-2.1 2.1-5t-2.1-5q-2.05-2.05-4.95-2.05-2.9 0-4.95 2.05-2.1 2.1-2.1 5t2.1 5z" id="bV"/><path fill="#F9D4B1" d="M731.75 31.15q2 2 4.8 2t4.8-2q2-2 2-4.8t-2-4.8q-2-1.95-4.8-1.95t-4.8 1.95q-2 2-2 4.8t2 4.8z" id="bW"/><path fill="#F9D3B0" d="M731.95 31q1.9 1.9 4.6 1.9 2.65 0 4.6-1.9 1.9-1.95 1.9-4.65t-1.9-4.6q-1.95-1.9-4.6-1.9-2.7 0-4.6 1.9-1.95 1.9-1.95 4.6 0 2.7 1.95 4.65z" id="bX"/><path fill="#F9D2AF" d="M732.15 30.75q1.8 1.85 4.4 1.85 2.55 0 4.4-1.85 1.85-1.8 1.85-4.4 0-2.6-1.85-4.4-1.85-1.85-4.4-1.85-2.6 0-4.4 1.85-1.85 1.8-1.85 4.4 0 2.6 1.85 4.4z" id="bY"/><path fill="#F9D1AE" d="M732.3 30.6q1.8 1.75 4.25 1.75t4.2-1.75q1.75-1.8 1.75-4.25t-1.75-4.2q-1.75-1.75-4.2-1.75-2.5 0-4.25 1.75t-1.75 4.2q0 2.5 1.75 4.25z" id="bZ"/><path fill="#F9D1AD" d="M732.5 30.4q1.7 1.65 4.05 1.65 2.35 0 4-1.65 1.7-1.7 1.7-4.05 0-2.35-1.7-4.05-1.65-1.65-4-1.65t-4.05 1.65q-1.65 1.7-1.65 4.05 0 2.35 1.65 4.05z" id="ca"/><path fill="#F9D0AC" d="M732.7 30.2q1.6 1.6 3.85 1.6 2.2 0 3.8-1.6 1.6-1.6 1.6-3.85t-1.6-3.8q-1.6-1.6-3.8-1.6-2.25 0-3.85 1.6-1.6 1.55-1.6 3.8t1.6 3.85z" id="cb"/><path fill="#F9CFAB" d="M732.9 30q1.5 1.55 3.65 1.55 2.1 0 3.65-1.55 1.5-1.5 1.5-3.65t-1.5-3.65q-1.55-1.5-3.65-1.5-2.15 0-3.65 1.5-1.55 1.5-1.55 3.65T732.9 30z" id="cc"/><path fill="#F9CEAA" d="M733.1 29.8q1.45 1.45 3.45 1.45T740 29.8q1.45-1.45 1.45-3.45T740 22.9q-1.45-1.45-3.45-1.45t-3.45 1.45q-1.45 1.45-1.45 3.45 0 2.05 1.45 3.45z" id="cd"/><path fill="#F9CDA9" d="M733.25 29.65q1.4 1.35 3.3 1.35t3.25-1.35q1.35-1.4 1.35-3.3t-1.35-3.25q-1.35-1.35-3.25-1.35t-3.3 1.35q-1.35 1.35-1.35 3.25t1.35 3.3z" id="ce"/><path fill="#F9CDA8" d="M733.5 29.45q1.25 1.25 3.05 1.25 1.75 0 3.05-1.25 1.3-1.3 1.3-3.1t-1.3-3.05q-1.3-1.3-3.05-1.3-1.8 0-3.05 1.3-1.3 1.25-1.3 3.05 0 1.8 1.3 3.1z" id="cf"/><path fill="#F9CCA7" d="M733.65 29.25q1.2 1.2 2.9 1.2 1.65 0 2.9-1.2 1.2-1.2 1.2-2.9 0-1.65-1.2-2.85-1.25-1.2-2.9-1.2-1.7 0-2.9 1.2-1.2 1.15-1.2 2.85 0 1.7 1.2 2.9z" id="cg"/><path fill="#F9CBA6" d="M733.85 29.05q1.15 1.15 2.7 1.15 1.55 0 2.65-1.15 1.15-1.15 1.15-2.7 0-1.55-1.15-2.7-1.1-1.1-2.65-1.1-1.6 0-2.7 1.1-1.15 1.15-1.15 2.7 0 1.6 1.15 2.7z" id="ch"/><path fill="#F9CAA5" d="M734.05 28.85q1.05 1.05 2.5 1.05t2.5-1.05q1.05-1.05 1.05-2.5t-1.05-2.5q-1.05-1.05-2.5-1.05t-2.5 1.05Q733 24.9 733 26.35t1.05 2.5z" id="ci"/><path fill="#F9C9A4" d="M734.25 28.7q.95.95 2.3.95 1.3 0 2.3-.95.95-1 .95-2.35t-.95-2.3q-1-.95-2.3-.95-1.35 0-2.3.95-1 .95-1 2.3 0 1.35 1 2.35z" id="cj"/><path fill="#F9C9A3" d="M734.45 28.45q.85.9 2.1.9 1.2 0 2.1-.9.9-.85.9-2.1t-.9-2.1q-.9-.9-2.1-.9-1.25 0-2.1.9-.9.85-.9 2.1t.9 2.1z" id="ck"/><path fill="#FAC8A2" d="M734.6 28.3q.85.8 1.95.8t1.9-.8q.85-.85.85-1.95t-.85-1.9q-.8-.8-1.9-.8-1.15 0-1.95.8t-.8 1.9q0 1.15.8 1.95z" id="cl"/><path fill="#FAC7A2" d="M734.8 28.1q.75.75 1.75.75t1.7-.75q.75-.75.75-1.75 0-.95-.75-1.7-.7-.75-1.7-.75t-1.75.75q-.75.7-.75 1.7t.75 1.75z" id="cm"/><path fill="#FAC6A1" d="M735 27.9q.65.65 1.55.65.85 0 1.55-.65.65-.65.65-1.55 0-.85-.65-1.55-.7-.65-1.55-.65-.9 0-1.55.65-.65.7-.65 1.55 0 .9.65 1.55z" id="cn"/><path fill="#FAC5A0" d="M735.2 27.7q.55.6 1.35.6.75 0 1.35-.6.55-.55.55-1.35 0-.75-.55-1.3-.6-.6-1.35-.6-.8 0-1.35.6-.6.55-.6 1.3 0 .8.6 1.35z" id="co"/><path fill="#FAC59F" d="M735.4 27.5q.5.5 1.15.5.65 0 1.15-.5.5-.5.5-1.15 0-.65-.5-1.15-.5-.5-1.15-.5-.65 0-1.15.5-.5.5-.5 1.15 0 .7.5 1.15z" id="cp"/><path fill="#FAC49E" d="M735.55 27.35q.45.4 1 .4t.95-.4q.45-.45.45-1 0-.5-.45-.95-.4-.4-.95-.4-.55 0-1 .4-.4.4-.4.95 0 .55.4 1z" id="cq"/><path fill="#FAC39D" d="M735.75 27.15q.35.35.8.35.45 0 .8-.35.3-.35.3-.8 0-.4-.3-.75-.35-.35-.8-.35-.45 0-.8.35-.35.35-.35.75 0 .45.35.8z" id="cr"/><path fill="#FAC29C" d="M735.95 26.95q.25.25.6.25t.6-.25q.25-.25.25-.6 0-.3-.25-.55-.25-.3-.6-.3t-.6.3q-.25.25-.25.55 0 .35.25.6z" id="cs"/><path fill="#FAC19B" d="M736.15 26.75q.2.2.4.2.55 0 .55-.6 0-.2-.15-.35-.2-.2-.4-.2t-.4.2q-.2.15-.2.35 0 .25.2.4z" id="ct"/><path fill="#FAE4C5" d="M787 35.15q3.65 3.65 8.8 3.65t8.85-3.65q3.65-3.65 3.65-8.8t-3.65-8.8Q801 13.9 795.8 13.9q-5.15 0-8.8 3.65-3.65 3.65-3.65 8.8t3.65 8.8z" id="cu"/><path fill="#FAE3C4" d="M787.2 34.95q3.6 3.6 8.6 3.6 5.05 0 8.65-3.6 3.6-3.55 3.6-8.6t-3.6-8.6q-3.6-3.55-8.65-3.55-5.05 0-8.6 3.55-3.6 3.55-3.6 8.6t3.6 8.6z" id="cv"/><path fill="#FAE3C3" d="M787.4 34.8q3.5 3.5 8.4 3.5 4.95 0 8.5-3.5 3.5-3.55 3.5-8.45 0-4.95-3.5-8.4-3.55-3.5-8.5-3.5-4.9 0-8.4 3.5-3.5 3.45-3.5 8.4 0 4.9 3.5 8.45z" id="cw"/><path fill="#FAE2C2" d="M787.6 34.6q3.4 3.4 8.2 3.4 4.85 0 8.25-3.4 3.45-3.45 3.45-8.25 0-4.85-3.45-8.25-3.4-3.4-8.25-3.4-4.8 0-8.2 3.4-3.45 3.4-3.45 8.25 0 4.8 3.45 8.25z" id="cx"/><path fill="#FAE1C1" d="M787.8 34.4q3.3 3.35 8 3.35t8.1-3.35q3.35-3.35 3.35-8.05 0-4.7-3.35-8.05-3.35-3.3-8.1-3.3-4.7 0-8 3.3-3.35 3.35-3.35 8.05 0 4.7 3.35 8.05z" id="cy"/><path fill="#FAE0C0" d="M787.95 34.2q3.3 3.25 7.85 3.25 4.6 0 7.9-3.25 3.25-3.25 3.25-7.85t-3.25-7.85q-3.3-3.25-7.9-3.25-4.6 0-7.85 3.25t-3.25 7.85q0 4.6 3.25 7.85z" id="cz"/><path fill="#F9E0BF" d="M788.15 34q3.2 3.2 7.65 3.2 4.5 0 7.7-3.2t3.2-7.65q0-4.5-3.2-7.65-3.2-3.15-7.7-3.15-4.45 0-7.65 3.15t-3.2 7.65q0 4.45 3.2 7.65z" id="cA"/><path fill="#F9DFBE" d="M788.35 33.85q3.1 3.1 7.45 3.1 4.4 0 7.5-3.1 3.1-3.15 3.1-7.5 0-4.4-3.1-7.45-3.1-3.1-7.5-3.1-4.35 0-7.45 3.1-3.1 3.05-3.1 7.45 0 4.35 3.1 7.5z" id="cB"/><path fill="#F9DEBD" d="M788.55 33.6q3 3.05 7.25 3.05t7.3-3.05q3.05-3 3.05-7.25t-3.05-7.3q-3-3-7.3-3-4.25 0-7.25 3-3.05 3.05-3.05 7.3t3.05 7.25z" id="cC"/><path fill="#F9DDBC" d="M788.75 33.45q2.95 2.95 7.05 2.95 4.15 0 7.15-2.95 2.95-2.95 2.95-7.1 0-4.15-2.95-7.1-3-2.9-7.15-2.9t-7.05 2.9q-2.95 2.95-2.95 7.1 0 4.15 2.95 7.1z" id="cD"/><path fill="#F9DCBB" d="M788.9 33.25q2.9 2.85 6.9 2.85 4.05 0 6.95-2.85 2.85-2.9 2.85-6.9 0-4.05-2.85-6.9-2.9-2.85-6.95-2.85-4 0-6.9 2.85-2.85 2.85-2.85 6.9 0 4 2.85 6.9z" id="cE"/><path fill="#F9DCBA" d="M789.15 33.05q2.75 2.8 6.65 2.8 3.95 0 6.75-2.8t2.8-6.7q0-3.95-2.8-6.7t-6.75-2.75q-3.9 0-6.65 2.75-2.8 2.75-2.8 6.7 0 3.9 2.8 6.7z" id="cF"/><path fill="#F9DBB9" d="M789.3 32.85q2.7 2.75 6.5 2.75t6.55-2.75q2.7-2.7 2.7-6.5t-2.7-6.5q-2.7-2.7-6.55-2.7-3.8 0-6.5 2.7t-2.7 6.5q0 3.8 2.7 6.5z" id="cG"/><path fill="#F9DAB8" d="M789.5 32.65q2.65 2.65 6.3 2.65 3.7 0 6.35-2.65 2.65-2.6 2.65-6.3 0-3.7-2.65-6.35-2.65-2.6-6.35-2.6-3.7 0-6.3 2.6-2.65 2.65-2.65 6.35 0 3.7 2.65 6.3z" id="cH"/><path fill="#F9D9B7" d="M789.7 32.5q2.55 2.55 6.1 2.55 3.6 0 6.15-2.55 2.55-2.6 2.55-6.15 0-3.6-2.55-6.1-2.55-2.55-6.15-2.55-3.55 0-6.1 2.55-2.55 2.5-2.55 6.1 0 3.55 2.55 6.15z" id="cI"/><path fill="#F9D8B6" d="M789.9 32.3q2.45 2.45 5.9 2.45 3.5 0 5.95-2.45 2.5-2.5 2.5-5.95 0-3.5-2.5-5.95-2.45-2.45-5.95-2.45-3.45 0-5.9 2.45-2.5 2.45-2.5 5.95 0 3.45 2.5 5.95z" id="cJ"/><path fill="#F9D8B5" d="M790.1 32.1q2.35 2.4 5.7 2.4t5.8-2.4q2.4-2.4 2.4-5.75t-2.4-5.75q-2.4-2.35-5.8-2.35-3.35 0-5.7 2.35-2.4 2.4-2.4 5.75t2.4 5.75z" id="cK"/><path fill="#F9D7B4" d="M790.25 31.95q2.3 2.3 5.55 2.3 3.3 0 5.6-2.3 2.3-2.35 2.3-5.6 0-3.25-2.3-5.55t-5.6-2.3q-3.25 0-5.55 2.3t-2.3 5.55q0 3.25 2.3 5.6z" id="cL"/><path fill="#F9D6B3" d="M790.45 31.75q2.25 2.2 5.35 2.2 3.2 0 5.4-2.2 2.25-2.25 2.25-5.4 0-3.15-2.25-5.35-2.2-2.25-5.4-2.25-3.1 0-5.35 2.25-2.2 2.2-2.2 5.35 0 3.15 2.2 5.4z" id="cM"/><path fill="#F9D5B2" d="M790.65 31.55q2.15 2.15 5.15 2.15 3.05 0 5.2-2.15 2.15-2.15 2.15-5.2 0-3.05-2.15-5.15-2.15-2.15-5.2-2.15-3 0-5.15 2.15-2.15 2.1-2.15 5.15 0 3.05 2.15 5.2z" id="cN"/><path fill="#F9D5B1" d="M790.85 31.35q2.05 2.05 4.95 2.05 2.95 0 5.05-2.05 2.05-2.05 2.05-5t-2.05-5q-2.1-2.05-5.05-2.05-2.9 0-4.95 2.05-2.1 2.1-2.1 5t2.1 5z" id="cO"/><path fill="#F9D4B1" d="M791.05 31.15q1.95 2 4.75 2 2.85 0 4.85-2 1.95-2 1.95-4.8t-1.95-4.8q-2-1.95-4.85-1.95-2.8 0-4.75 1.95-2 2-2 4.8t2 4.8z" id="cP"/><path fill="#F9D3B0" d="M791.2 31q1.95 1.9 4.6 1.9 2.75 0 4.65-1.9 1.9-1.95 1.9-4.65t-1.9-4.6q-1.9-1.9-4.65-1.9-2.65 0-4.6 1.9-1.9 1.9-1.9 4.6 0 2.7 1.9 4.65z" id="cQ"/><path fill="#F9D2AF" d="M791.45 30.75q1.8 1.85 4.35 1.85 2.6 0 4.45-1.85 1.85-1.8 1.85-4.4 0-2.6-1.85-4.4-1.85-1.85-4.45-1.85-2.55 0-4.35 1.85-1.85 1.8-1.85 4.4 0 2.6 1.85 4.4z" id="cR"/><path fill="#F9D1AE" d="M791.6 30.6q1.75 1.75 4.2 1.75 2.5 0 4.25-1.75t1.75-4.25q0-2.5-1.75-4.2-1.75-1.75-4.25-1.75-2.45 0-4.2 1.75t-1.75 4.2q0 2.45 1.75 4.25z" id="cS"/><path fill="#F9D1AD" d="M791.8 30.4q1.65 1.65 4 1.65 2.4 0 4.1-1.65 1.65-1.7 1.65-4.05 0-2.35-1.65-4.05-1.7-1.65-4.1-1.65-2.35 0-4 1.65-1.65 1.7-1.65 4.05 0 2.35 1.65 4.05z" id="cT"/><path fill="#F9D0AC" d="M792 30.2q1.6 1.6 3.8 1.6 2.3 0 3.85-1.6 1.6-1.6 1.6-3.85t-1.6-3.8q-1.55-1.6-3.85-1.6-2.2 0-3.8 1.6-1.6 1.55-1.6 3.8t1.6 3.85z" id="cU"/><path fill="#F9CFAB" d="M792.2 30q1.5 1.55 3.6 1.55 2.15 0 3.7-1.55 1.5-1.5 1.5-3.65t-1.5-3.65q-1.55-1.5-3.7-1.5-2.1 0-3.6 1.5-1.55 1.5-1.55 3.65T792.2 30z" id="cV"/><path fill="#F9CEAA" d="M792.35 29.8q1.45 1.45 3.45 1.45 2.05 0 3.5-1.45 1.4-1.4 1.4-3.45 0-2.05-1.4-3.45-1.45-1.45-3.5-1.45-2 0-3.45 1.45-1.4 1.4-1.4 3.45 0 2.05 1.4 3.45z" id="cW"/><path fill="#F9CDA9" d="M792.55 29.65Q793.9 31 795.8 31q1.95 0 3.3-1.35 1.35-1.4 1.35-3.3t-1.35-3.25q-1.35-1.35-3.3-1.35-1.9 0-3.25 1.35t-1.35 3.25q0 1.9 1.35 3.3z" id="cX"/><path fill="#F9CDA8" d="M792.75 29.45q1.25 1.25 3.05 1.25 1.85 0 3.1-1.25 1.25-1.3 1.25-3.1t-1.25-3.05q-1.25-1.3-3.1-1.3-1.8 0-3.05 1.3-1.25 1.25-1.25 3.05 0 1.8 1.25 3.1z" id="cY"/><path fill="#F9CCA7" d="M792.95 29.25q1.15 1.2 2.85 1.2 1.7 0 2.9-1.2t1.2-2.9q0-1.7-1.2-2.85-1.2-1.2-2.9-1.2t-2.85 1.2q-1.2 1.15-1.2 2.85 0 1.7 1.2 2.9z" id="cZ"/><path fill="#F9CBA6" d="M793.15 29.05q1.1 1.15 2.65 1.15 1.6 0 2.75-1.15 1.1-1.1 1.1-2.7t-1.1-2.7q-1.15-1.1-2.75-1.1-1.55 0-2.65 1.1-1.1 1.1-1.1 2.7t1.1 2.7z" id="da"/><path fill="#F9CAA5" d="M793.3 28.85q1.05 1.05 2.5 1.05 1.5 0 2.55-1.05 1-1.05 1-2.5t-1-2.5q-1.05-1.05-2.55-1.05-1.45 0-2.5 1.05-1 1.05-1 2.5t1 2.5z" id="db"/><path fill="#F9C9A4" d="M793.5 28.7q.95.95 2.3.95 1.4 0 2.35-.95.95-1 .95-2.35t-.95-2.3q-.95-.95-2.35-.95-1.35 0-2.3.95-.95.95-.95 2.3 0 1.35.95 2.35z" id="dc"/><path fill="#F9C9A3" d="M793.7 28.45q.85.9 2.1.9t2.15-.9q.85-.85.85-2.1t-.85-2.1q-.9-.9-2.15-.9t-2.1.9q-.85.85-.85 2.1t.85 2.1z" id="dd"/><path fill="#FAC8A2" d="M793.9 28.3q.8.8 1.9.8 1.15 0 1.95-.8t.8-1.95q0-1.15-.8-1.9-.8-.8-1.95-.8-1.1 0-1.9.8-.8.8-.8 1.9 0 1.15.8 1.95z" id="de"/><path fill="#FAC7A2" d="M794.1 28.1q.7.75 1.7.75 1.05 0 1.75-.75.7-.7.7-1.75 0-1-.7-1.7-.7-.75-1.75-.75-1 0-1.7.75-.7.7-.7 1.7t.7 1.75z" id="df"/><path fill="#FAC6A1" d="M794.3 27.9q.6.65 1.5.65.95 0 1.55-.65.65-.65.65-1.55t-.65-1.55q-.65-.65-1.55-.65t-1.5.65q-.65.7-.65 1.55 0 .9.65 1.55z" id="dg"/><path fill="#FAC5A0" d="M794.5 27.7q.5.6 1.3.6t1.4-.6q.55-.55.55-1.35 0-.75-.55-1.3-.6-.6-1.4-.6-.75 0-1.3.6-.55.55-.55 1.3 0 .8.55 1.35z" id="dh"/><path fill="#FAC59F" d="M794.65 27.5q.5.5 1.15.5.7 0 1.2-.5.45-.45.45-1.15 0-.65-.45-1.15-.5-.5-1.2-.5-.65 0-1.15.5-.45.5-.45 1.15 0 .7.45 1.15z" id="di"/><path fill="#FAC49E" d="M794.85 27.35q.4.4.95.4.6 0 1-.4.4-.45.4-1t-.4-.95q-.4-.4-1-.4-.55 0-.95.4-.35.4-.35.95 0 .55.35 1z" id="dj"/><path fill="#FAC39D" d="M795.05 27.15q.3.35.75.35.5 0 .8-.35.3-.35.3-.8 0-.45-.3-.75-.35-.35-.8-.35-.45 0-.75.35t-.3.75q0 .45.3.8z" id="dk"/><path fill="#FAC29C" d="M795.25 26.95q.2.25.55.25.35 0 .6-.25t.25-.6q0-.3-.25-.55-.25-.3-.6-.3-.3 0-.55.3-.25.25-.25.55 0 .35.25.6z" id="dl"/><path fill="#FAC19B" d="M795.3 26.35q0 .6.5.6.55 0 .55-.6 0-.55-.55-.55-.5 0-.5.55z" id="dm"/><path fill="url(#P)" d="M772.7 19.8q1.9-1.15 1.95-3.85.1-4.2-2.7-8.65-2.9-4.7-6.1-4.7-3.15.05-5.8 4.9-2.6 4.7-2.25 8.8.15 2.7 2.1 3.8 1.95 1.05 6.45.95 4.45-.1 6.35-1.25z" id="dn"/><path fill="#F8BB75" d="M772.75 19.65q1.5-.8 1.5-1.75-.05-.85-1.05-1.45-1.25-.8-2.9-1.05-2.1-.9-4.15-1-1.2-.05-2.45.45-1.15.5-1.45.55-1.4.25-2.55.8-1.45.7-1.55 1.6-.35 3.25 8.15 3.25 4.35-.15 6.45-1.4z" id="do"/><path fill="#F17216" d="M761.9 16.8q-.75.25-1.25.9-.45.7-.35 1.4.1.7.75 1 .6.25 1.35 0 .75-.2 1.2-.9.45-.7.35-1.4-.05-.7-.7-1-.6-.25-1.35 0z" id="dp"/><path fill="#F17216" d="M771.65 17.65q-.5-.65-1.25-.95-.85-.2-1.4.1-.55.3-.65 1-.1.7.4 1.4.5.65 1.25.9.8.25 1.4-.05.6-.35.65-1.05.1-.65-.4-1.35z" id="dq"/><path fill="#F8BB75" d="M780.9 30.85q-.6-.65-1.4-.6-.75 0-1.25.75t-.45 1.7q.05.95.6 1.65.6.65 1.35.6.75 0 1.3-.75.5-.7.5-1.7-.05-1-.65-1.65z" id="dr"/><path fill="url(#Q)" d="M765.35 25.3q.35.5.85.5t.85-.5q.4-.55.4-1.3 0-.7-.4-1.25-.35-.5-.85-.5t-.85.5Q765 23.3 765 24q0 .75.35 1.3z" id="ds"/><path fill="#F8BB75" d="M752.8 30.25q-.75-.05-1.35.6-.6.7-.6 1.65-.05 1 .5 1.7.5.75 1.25.75.75.05 1.35-.6.6-.7.6-1.65.05-1-.5-1.7-.5-.75-1.25-.75z" id="dt"/><path fill="url(#R)" d="M774.25 39.75q2.25-2.7 2.2-5.8-.05-1.8-3.25-.45-5.05 2.1-7 2.25-1.95-.15-7-2.25-3.25-1.35-3.3.45 0 3.1 2.25 5.8 2.85 3.4 8.05 3.6 5.25-.2 8.05-3.6z" id="du"/><path fill="#FEFEFE" d="M771.05 36.9q2.15-1.25 2.65-2.95-3.65-2.7-6.8-2.45l-.7.05-.7-.05q-3.35-.3-6.8 2.45.5 1.7 2.65 2.95 2.15 1.2 4.85 1.35 2.7-.15 4.85-1.35z" id="dv"/><path fill="url(#S)" d="M769.9 32.55q2.15 1.1 3.5 1.3 3.15.45 4.9.05 1.75-.35-.3-.85-1.6-.4-2.85-1.95-1.85-2.25-1.95-2.35-3.1-2.65-6.85-1.25h-.3q-3.75-1.4-6.85 1.25-.15.1-2 2.35-1.25 1.55-2.9 1.95-2 .5-.25.85 1.8.4 4.95-.05 1.4-.2 3.5-1.3 1.8-.95 3.55-.95h.25q1.8 0 3.6.95z" id="dw"/><path fill="#FE3717" d="M766.2 34.85q-4.05-.05-7.5-.9.95 4.7 7.5 4.7t7.5-4.7q-3.6.85-7.5.9z" id="dx"/><path fill="#B25610" d="M699.6-39.45q-3.95 0-6.8 2.85-2.85 2.85-2.85 6.8 0 3.95 2.85 6.8 2.85 2.85 6.8 2.85 1.45 0 3.05-.5-2.9-1-4.7-3.45-1.85-2.55-1.85-5.7 0-3.15 1.85-5.7 1.8-2.5 4.7-3.45-1.35-.5-3.05-.5z" id="dy"/><path fill="#E36313" d="M733.3-1.95h13.05q.35 1.6 1.5 2.25 1 .55 2.1.3 1.35-.35 1.75-1.4.3-.95-.2-2.2-1.15-3.55-4.35-5.8-3.25-2.25-7.3-2.25h-.05q-4 0-7.25 2.25T728.1-3q-1 2.95 1.6 3.6 1.15.25 2.1-.3 1.15-.65 1.5-2.25z" id="dz"/><path d="M723.35-11.8q-1.5 4 0 7.25Q725-.95 729.9.15l2.25-4.65q-3.2 1.4-6-.35-3.2-2-2.8-6.95z" id="dA"/><path d="M726.6-13q-1.9 3.05-.5 6.15 1.4 3.15 5.45 4.05l1.9-4.05q-2.9 1.55-5.35-.1-2.65-1.8-1.5-6.05z" id="dB"/><path fill="#FEFEFE" d="M739.85-9q-4.55 0-7.75 3.2t-3.2 7.75q0 4.5 3.2 7.75 3.2 3.2 7.75 3.2 4.5 0 7.75-3.2 3.2-3.25 3.2-7.75 0-4.55-3.2-7.75-3.25-3.2-7.75-3.2z" id="dC"/><path fill="url(#T)" d="M739.85-6.4q-3.45 0-5.9 2.45t-2.45 5.9q0 3.4 2.45 5.85 2.45 2.45 5.9 2.45 3.4 0 5.85-2.45 2.45-2.45 2.45-5.85 0-3.45-2.45-5.9t-5.85-2.45z" id="dD"/><path fill="url(#U)" d="M739.85 9.35q3.3 0 5.55-2.5.55-.65.6-1.3.05-.65-.4-1-.35-.4-.9-.3-.65.05-1.2.75-1.45 1.7-3.65 1.7-2.25 0-3.65-1.7-.6-.7-1.25-.75-.55-.1-.95.3-.4.35-.35 1 .05.7.6 1.3 2.25 2.5 5.6 2.5z" id="dE"/><path d="M739.85-1.85q-1.55 0-2.7 1.1-1.1 1.15-1.1 2.7 0 1.55 1.1 2.65 1.1 1.1 2.7 1.1t2.65-1.1q1.1-1.05 1.1-2.65 0-1.6-1.1-2.7t-2.65-1.1z" id="dF"/><path fill="#FEFEFE" d="M742.95 3.25q.35.35.85.35t.8-.35q.35-.3.35-.8t-.35-.85q-.3-.35-.8-.35t-.85.35q-.35.35-.35.85t.35.8z" id="dG"/><path fill="#FEFEFE" d="M734.7-2.6q-.7.75-.7 1.7 0 1 .7 1.7.7.65 1.7.65t1.65-.65q.7-.7.7-1.7t-.7-1.7q-.7-.7-1.65-.7t-1.7.7z" id="dH"/><path fill="#E36313" d="M784.65-8.8q-3.2 2.25-4.4 5.8-.5 1.25-.15 2.2.4 1.05 1.75 1.4 1.15.25 2.1-.3 1.1-.65 1.5-2.25h13q.35 1.6 1.5 2.25.95.55 2.1.3 1.35-.35 1.75-1.4.3-.95-.15-2.2-1.2-3.55-4.4-5.8T792-11.05h-.1q-4.05 0-7.25 2.25z" id="dI"/><path d="M808.4-4.55q1.5-3.25 0-7.25.4 4.95-2.8 6.95-2.8 1.8-5.9.35l2.2 4.65q4.85-1.1 6.5-4.7z" id="dJ"/><path d="M798.3-6.85l1.95 4.05q4.05-.9 5.45-4.05 1.4-3.1-.55-6.15 1.15 4.25-1.5 6.05-2.45 1.65-5.35.1z" id="dK"/><path fill="#FEFEFE" d="M792-9q-4.55 0-7.8 3.2t-3.25 7.75q0 4.5 3.25 7.75 3.25 3.2 7.8 3.2 4.45 0 7.7-3.2 3.2-3.25 3.2-7.75t-3.2-7.75Q796.5-9 792-9z" id="dL"/><path fill="url(#V)" d="M792-6.4q-3.5 0-5.9 2.45-2.45 2.45-2.45 5.9t2.45 5.85q2.45 2.45 5.9 2.45 3.4 0 5.8-2.45 2.45-2.45 2.45-5.85 0-3.45-2.45-5.9-2.4-2.45-5.8-2.45z" id="dM"/><path fill="url(#W)" d="M791.9 9.35q3.35 0 5.6-2.5.55-.6.6-1.3.05-.65-.35-1-.4-.4-.9-.3-.65.05-1.25.75-1.45 1.7-3.7 1.7-2.2 0-3.65-1.7-.55-.7-1.2-.75-.5-.1-.9.3-.45.35-.4 1 .05.65.6 1.3 2.35 2.5 5.55 2.5z" id="dN"/><path d="M792-1.85q-1.6 0-2.7 1.1-1.15 1.15-1.15 2.7 0 1.55 1.15 2.65 1.1 1.1 2.7 1.1 1.55 0 2.6-1.1 1.1-1.1 1.1-2.65 0-1.55-1.1-2.7-1.05-1.1-2.6-1.1z" id="dO"/><path fill="#FEFEFE" d="M795.05 3.25q.3.35.8.35.55 0 .9-.35.35-.3.35-.8t-.35-.85q-.35-.35-.9-.35-.5 0-.8.35-.35.35-.35.85t.35.8z" id="dP"/><path fill="#FEFEFE" d="M786.8-2.6q-.65.7-.65 1.7t.65 1.7q.7.65 1.7.65t1.7-.65q.7-.7.7-1.7 0-.95-.7-1.7-.7-.7-1.7-.7t-1.7.7z" id="dQ"/><path fill="url(#X)" d="M762.95 39.05q-.9-.25-1.7-.1-.8.15-.95.65-.15.55.4 1.15.55.6 1.45.9.95.3 1.8.1.8-.15.95-.7.15-.55-.4-1.1-.6-.6-1.55-.9z" id="dR"/><path fill="#B25610" d="M838.35-29.3q0-4.7-3.35-8-3.35-3.35-8.05-3.35-2.1 0-3.6.55 3.45 1.15 5.6 4.05 2.2 3 2.2 6.75t-2.2 6.75q-2.15 2.9-5.6 4.05 1.9.6 3.6.6 4.75 0 8.05-3.35 3.35-3.3 3.35-8.05z" id="dS"/><path fill="#F8BB75" d="M739.2 17.7q.3.4.8.4t.8-.4q.35-.35.35-.85 0-.45-.35-.8-.35-.35-.8-.35-.45 0-.8.35-.35.35-.35.8 0 .5.35.85z" id="dT"/><path fill="#F8BB75" d="M733.2 17.7q.3.4.8.4t.85-.4q.4-.35.4-.85 0-.4-.4-.8-.35-.35-.85-.35-.45 0-.8.35-.35.35-.35.8 0 .5.35.85z" id="dU"/><path fill="#F8BB75" d="M745.1 17.7q.35.4.85.4.45 0 .8-.4.35-.35.35-.85 0-.4-.35-.8-.35-.35-.8-.35-.45 0-.85.35-.35.4-.35.8 0 .5.35.85z" id="dV"/><path fill="#F8BB75" d="M736.15 22.25q.3.35.8.35t.8-.35q.35-.3.35-.8t-.35-.85q-.3-.35-.8-.35t-.8.35q-.35.35-.35.85t.35.8z" id="dW"/><path fill="#F8BB75" d="M742.2 22.25q.3.35.8.35t.8-.35q.35-.3.35-.8t-.35-.85q-.3-.35-.8-.35t-.8.35q-.35.35-.35.85t.35.8z" id="dX"/><path fill="#F8BB75" d="M790.75 17.7q.3.4.8.4t.85-.4q.35-.35.35-.85 0-.4-.35-.8-.35-.35-.85-.35-.45 0-.8.35-.35.35-.35.8 0 .5.35.85z" id="dY"/><path fill="#F8BB75" d="M796.7 17.7q.35.4.8.4.5 0 .8-.4.35-.35.35-.85 0-.45-.35-.8-.35-.35-.8-.35-.45 0-.8.35-.35.4-.35.8 0 .5.35.85z" id="dZ"/><path fill="#F8BB75" d="M784.85 17.7q.3.4.8.4t.8-.4q.35-.35.35-.85 0-.45-.35-.8-.35-.35-.8-.35-.45 0-.8.35-.35.35-.35.8 0 .5.35.85z" id="ea"/><path fill="#F8BB75" d="M793.75 22.25q.35.35.8.35.5 0 .85-.35.4-.3.4-.8t-.4-.85q-.35-.35-.85-.35-.4 0-.8.35-.35.4-.35.85 0 .45.35.8z" id="eb"/><path fill="#F8BB75" d="M787.7 22.25q.35.35.8.35.5 0 .8-.35.35-.3.35-.8t-.35-.85q-.3-.35-.8-.35-.45 0-.8.35-.35.35-.35.85t.35.8z" id="ec"/><path fill="url(#Y)" d="M762.7 46.95q-1.3.95-1.3 2.3 0 1.3 1.3 2.25t3.05.95q1.85 0 3.1-.95 1.3-.95 1.3-2.25 0-1.35-1.3-2.3-1.25-.95-3.1-.95-1.75 0-3.05.95z" id="ed"/><path fill="url(#Z)" d="M708.25-62q-3.2-1.9-6.8-1.05-3.65.9-5.6 4.05-1.95 3.1-1.1 6.75.85 3.6 4.05 5.6 1.15.7 2.65 1.1-1.8-2.2-2.05-5.05-.2-2.95 1.3-5.4 1.5-2.5 4.25-3.6 2.65-1.1 5.45-.45-.75-.95-2.15-1.95z" id="ee"/><path fill="url(#aa)" d="M726.05-76.15q-2.3-2.75-5.8-3.1-3.55-.35-6.3 1.95-2.75 2.2-3.15 5.75-.35 3.55 1.9 6.35 1.05 1.2 2.1 1.8-1-2.55-.3-5.25t2.9-4.5q2.2-1.75 4.95-1.9 2.75-.1 5.05 1.35-.3-.95-1.35-2.45z" id="ef"/><path fill="url(#ab)" d="M750.35-80.4q.15-1.35-.35-2.75-1-3.4-4.15-5.15-3.15-1.7-6.55-.7-3.4 1.05-5.1 4.2-1.7 3.15-.7 6.55.45 1.35 1.25 2.5.1-2.75 1.75-4.95 1.7-2.2 4.35-3 2.65-.8 5.35.15 2.6.9 4.15 3.15z" id="eg"/><path fill="#B25610" d="M720.85-34.25q-.75 4.3 1.7 7.85t6.7 4.3q4.3.75 7.85-1.75 3.6-2.5 4.35-6.75.3-1.65.05-3.35-1.6 2.9-4.6 4.4-3.05 1.5-6.4.9-3.4-.65-5.75-3.1-2.35-2.4-2.85-5.65-.85 1.5-1.05 3.15z" id="eh"/><path fill="#B25610" d="M750.4-30.5q1.95 2.8 5.2 3.35 5.45 1.05 9.2-2.95 4.85-5.2 3.55-17.35-.95 9.35-5.25 13.15-3.1 2.7-6.85 2-2.55-.45-4.25-2.35-1.65-1.8-2.05-4.35-.65 1-.9 2.45-.55 3.3 1.35 6.05z" id="ei"/><path fill="url(#ac)" d="M723.8-66.45q-2.75 2.3-3.1 5.85-.35 3.5 1.85 6.25.85 1.05 2.1 1.9-1-2.6-.3-5.25.7-2.7 2.9-4.5 2.2-1.75 5-1.9 2.75-.15 5.1 1.25-.75-1.6-1.45-2.35-2.2-2.75-5.8-3.15-3.55-.35-6.3 1.9z" id="ej"/><path fill="url(#ad)" d="M745.45-64.2q.75-2.65 2.9-4.4 2.2-1.75 5.05-1.85 2.75-.2 5.1 1.4 2.3 1.5 3.3 4.05.4-1.3.3-2.75-.15-3.55-2.8-5.95-2.65-2.4-6.2-2.25-3.55.15-5.95 2.8-2.45 2.65-2.25 6.2.05 1.05.55 2.75z" id="ek"/><path fill="url(#ae)" d="M804-68.35q-3.55.4-5.75 3.15-.85.95-1.45 2.35 2.35-1.4 5.1-1.25 2.8.15 5 1.9 2.2 1.8 2.85 4.5.7 2.65-.3 5.25 1.25-.85 2.1-1.9 2.2-2.75 1.9-6.25-.35-3.55-3.1-5.85-2.8-2.25-6.35-1.9z" id="el"/><path fill="url(#af)" d="M774.85-73.7q-2.65 2.4-2.8 5.95-.1 1.15.25 2.75 1-2.55 3.3-4.05 2.35-1.6 5.15-1.4 2.8.1 5 1.85 2.15 1.75 2.9 4.4.5-1.4.5-2.75.25-3.55-2.2-6.2-2.4-2.65-5.9-2.8-3.55-.15-6.2 2.25z" id="em"/><path fill="url(#ag)" d="M828.7-63.05q-3.65-.85-6.75 1.05-1.15.75-2.25 1.95 2.8-.65 5.45.45 2.75 1.1 4.25 3.6 1.55 2.45 1.35 5.4-.25 2.85-2.05 5.05 1.55-.45 2.65-1.1 3.15-2 4-5.6.85-3.65-1.1-6.75-1.95-3.15-5.55-4.05z" id="en"/><path fill="url(#ah)" d="M809.9-79.25q-3.55.35-5.8 3.1-.95 1.25-1.4 2.45 2.3-1.45 5.1-1.35 2.8.15 5 1.9 2.1 1.8 2.8 4.5.7 2.7-.2 5.25 1-.65 2-1.8 2.25-2.8 1.9-6.35-.3-3.55-3.05-5.75-2.8-2.3-6.35-1.95z" id="eo"/><path fill="url(#ai)" d="M793.65-80.7q1.7 2.2 1.8 4.95.8-1.1 1.15-2.5 1-3.4-.7-6.55-1.65-3.15-5.05-4.2-3.4-1-6.55.7-3.2 1.75-4.2 5.15-.35 1-.35 2.75 1.6-2.25 4.2-3.15 2.65-.95 5.3-.15 2.7.8 4.4 3z" id="ep"/><path fill="url(#aj)" d="M773.6-83.95q.2-3.55-2.2-6.2-2.45-2.6-6-2.8-3.5-.15-6.15 2.25-2.65 2.4-2.85 5.95 0 1.55.35 2.75 1-2.5 3.3-4 2.35-1.55 5.15-1.45 2.8.1 5 1.9 2.15 1.75 2.85 4.35.55-1.35.55-2.75z" id="eq"/><path fill="#FAE4C5" d="M680.7 85.95q0 4.6 2.15 7.75 2.6 3.7 9.3 4.55 6.6.85 10.55-1.9 2.2-1.55 3.15-6.1.95-4.4.25-8.9-.5-2.8-5.25-3.7-1.35-.25-9.1-.8 1.6-2.35 1.9-5.35.35-3.35-1.2-5.55-.9-1.3-2-.9-1.05.35-1.2 1.65-.05.7-.2 2.35-.2 1.55-.9 2.6-.8 1.3-2.55 3.05-1.75 1.8-2.65 3.2-2.2 3.5-2.25 8.05z" id="er"/><path fill="#F8CA8F" d="M701.9 83.35q2.95.45 2.75 2.55-.1 1.25-2.85 1.55-3.3.15-4.5.4 1.2.35 4.65.3 2.9.3 2.7 2.35-.2 1.7-3.55 1.85-3.7-.1-4.45.2 3.35.2 4.75.75 1.15.55 1.25 1.6.2 1.8-2.7 2.7 1.6-.45 2.75-1.25 2.2-1.55 3.2-5.9 1-4.25.25-8.65-.25-1.85-1.5-2.85 1.1 1.9-.45 2.95-.6.45-2.45.65-1.1.15-5.05.35 1.5.35 5.2.45z" id="es"/><path fill="#F8D6A9" d="M685 77.75q-2.85.95-3.75 4-1.55 5.1.35 9.5 2 4.6 7 6.2 2.1-.6 3-2.8.5-1.25.85-4.3.65-5.95.55-8.25-.15-2.55-2.25-3.7-2.95-1.55-5.75-.65z" id="et"/><path fill="#FAE4C5" d="M843.15 71.65q-.65-1.05-.85-2.6-.1-1.65-.2-2.35-.1-1.3-1.2-1.65-1.1-.4-2 .9-1.5 2.2-1.15 5.55.3 2.95 1.8 5.35-7.7.55-9 .8-4.75.9-5.25 3.7-.7 4.55.2 8.9.95 4.6 3.2 6.1 3.95 2.75 10.55 1.9 6.7-.85 9.3-4.55 2.15-3.1 2.1-7.75-.05-4.55-2.2-8.05-.95-1.45-2.65-3.2-1.8-1.8-2.65-3.05z" id="eu"/><path fill="#F8CA8F" d="M826.75 85.9q-.2-2.1 2.7-2.55 1.65-.2 5.2-.45-3.95-.2-5.05-.35-1.8-.2-2.5-.65-1.45-1.1-.35-2.95-1.2.95-1.6 2.85-.65 4.45.3 8.65 1 4.35 3.25 5.9 1.1.8 2.65 1.25-2.75-.9-2.65-2.7.1-1.05 1.3-1.6 1.4-.55 4.75-.75-2.7-.1-4.5-.2-3.4-.15-3.5-1.85-.2-2.05 2.65-2.35 1.6-.15 4.7-.3-3-.2-4.5-.4-2.75-.3-2.85-1.55z" id="ev"/><path fill="#F8D6A9" d="M846.4 77.75q-2.8-.9-5.8.65-2 1.1-2.25 3.7-.15 2.65.55 8.25.3 2.9.9 4.3.9 2.2 2.95 2.8 5-1.6 7-6.2 1.95-4.4.4-9.5-.9-3.05-3.75-4z" id="ew"/><path fill="#F3EE82" d="M737.05 154.8q-3.4 0-5.9.85-2.5.8-2.9 2.05 3.55-.65 8.8-.65 5.25 0 8.85.65-.45-1.25-2.95-2.05-2.5-.85-5.9-.85z" id="ex"/><path fill="#F3EE82" d="M796.1 154.8q-3.4 0-5.95.85-2.5.8-2.9 2.05 3.45-.65 8.85-.65 5.2 0 8.75.65-.35-1.25-2.85-2.05-2.55-.85-5.9-.85z" id="ey"/></defs><use xlink:href="#ak"/><use xlink:href="#al" transform="matrix(1.00342 0 0 1.0034 -626.449 142.075)"/><use xlink:href="#am" transform="matrix(1.00342 0 0 1.0034 -626.449 142.075)"/><use xlink:href="#an" transform="matrix(1.00342 0 0 1.0034 -626.449 142.075)"/><use xlink:href="#ao" transform="matrix(1.00342 0 0 1.0034 -626.449 142.075)"/><use xlink:href="#ap" transform="matrix(1.00342 0 0 1.0034 -626.449 142.075)"/><use xlink:href="#aq" transform="matrix(1.00342 0 0 1.0034 -626.449 142.075)"/><use xlink:href="#ar" transform="matrix(1.00342 0 0 1.0034 -626.449 142.075)"/><use xlink:href="#as" transform="matrix(1.00342 0 0 1.0034 -626.449 142.075)"/><use xlink:href="#at" transform="matrix(1.00342 0 0 1.0034 -626.449 142.075)"/><use xlink:href="#au" transform="matrix(1.00342 0 0 1.0034 -626.449 142.075)"/><use xlink:href="#av" transform="matrix(1.00342 0 0 1.0034 -626.449 142.075)"/><use xlink:href="#aw" transform="matrix(1.00342 0 0 1.0034 -626.449 142.075)"/><use xlink:href="#ax" transform="matrix(1.00342 0 0 1.0034 -626.449 142.075)"/><use xlink:href="#ay" transform="matrix(1.00342 0 0 1.0034 -626.449 142.075)"/><use xlink:href="#az" transform="matrix(1.00342 0 0 1.0034 -626.449 142.075)"/><use xlink:href="#aA" transform="matrix(1.00342 0 0 1.0034 -626.449 142.075)"/><use xlink:href="#aB" transform="matrix(1.00342 0 0 1.0034 -626.449 142.075)"/><use xlink:href="#aC" transform="matrix(1.00342 0 0 1.0034 -626.449 142.075)"/><use xlink:href="#aD" transform="matrix(1.00342 0 0 1.0034 -626.449 142.075)"/><use xlink:href="#aE" transform="matrix(1.00342 0 0 1.0034 -626.449 142.075)"/><use xlink:href="#aF" transform="matrix(1.00342 0 0 1.0034 -626.449 142.075)"/><use xlink:href="#aG" transform="matrix(1.00342 0 0 1.0034 -626.449 142.075)"/><use xlink:href="#aH" transform="matrix(1.00342 0 0 1.0034 -626.449 142.075)"/><use xlink:href="#aI" transform="matrix(1.00342 0 0 1.0034 -626.449 142.075)"/><use xlink:href="#aJ" transform="matrix(1.00342 0 0 1.0034 -626.449 142.075)"/><use xlink:href="#aK" transform="matrix(1.00342 0 0 1.0034 -626.449 142.075)"/><use xlink:href="#aL" transform="matrix(1.00342 0 0 1.0034 -626.449 142.075)"/><use xlink:href="#aM" transform="matrix(1.00342 0 0 1.0034 -626.449 142.075)"/><use xlink:href="#aN" transform="matrix(1.00342 0 0 1.0034 -626.449 142.075)"/><use xlink:href="#aO" transform="matrix(1.00342 0 0 1.0034 -626.449 142.075)"/><use xlink:href="#aP" transform="matrix(1.00342 0 0 1.0034 -626.449 142.075)"/><use xlink:href="#aQ" transform="matrix(1.00342 0 0 1.0034 -626.449 142.075)"/><use xlink:href="#aR" transform="matrix(1.00342 0 0 1.0034 -626.449 142.075)"/><use xlink:href="#aS" transform="matrix(1.00342 0 0 1.0034 -626.449 142.075)"/><use xlink:href="#aT" transform="matrix(1.00342 0 0 1.0034 -626.449 142.075)"/><use xlink:href="#aU" transform="matrix(1.00342 0 0 1.0034 -626.449 142.075)"/><use xlink:href="#aV" transform="matrix(1.00342 0 0 1.0034 -626.449 142.075)"/><use xlink:href="#aW" transform="matrix(1.00342 0 0 1.0034 -626.449 142.075)"/><use xlink:href="#aX" transform="matrix(1.00342 0 0 1.0034 -626.449 142.075)"/><use xlink:href="#aY" transform="matrix(1.00342 0 0 1.0034 -626.449 142.075)"/><use xlink:href="#aZ" transform="matrix(1.00342 0 0 1.0034 -626.449 142.075)"/><use xlink:href="#ba" transform="matrix(1.00342 0 0 1.0034 -626.449 142.075)"/><use xlink:href="#bb" transform="matrix(1.00342 0 0 1.0034 -626.449 142.075)"/><use xlink:href="#bc" transform="matrix(1.00342 0 0 1.0034 -626.449 142.075)"/><use xlink:href="#bd" transform="matrix(1.00342 0 0 1.0034 -626.449 142.075)"/><use xlink:href="#be" transform="matrix(1.00342 0 0 1.0034 -626.449 142.075)"/><use xlink:href="#bf" transform="matrix(1.00342 0 0 1.0034 -626.449 142.075)"/><use xlink:href="#bg" transform="matrix(1.00342 0 0 1.0034 -626.449 142.075)"/><use xlink:href="#bh" transform="matrix(1.00342 0 0 1.0034 -626.449 142.075)"/><use xlink:href="#bi" transform="matrix(1.00342 0 0 1.0034 -626.449 142.075)"/><use xlink:href="#bj" transform="matrix(1.00342 0 0 1.0034 -626.449 142.075)"/><use xlink:href="#bk" transform="matrix(1.00342 0 0 1.0034 -626.449 142.075)"/><use xlink:href="#bl" transform="matrix(1.00342 0 0 1.0034 -626.449 142.075)"/><use xlink:href="#bm" transform="matrix(1.00342 0 0 1.0034 -626.449 142.075)"/><use xlink:href="#bn" transform="matrix(1.00342 0 0 1.0034 -626.449 142.075)"/><use xlink:href="#bo" transform="matrix(1.00342 0 0 1.0034 -626.449 142.075)"/><use xlink:href="#bp" transform="matrix(1.00342 0 0 1.0034 -626.449 142.075)"/><use xlink:href="#bq" transform="matrix(1.00342 0 0 1.0034 -626.449 142.075)"/><use xlink:href="#br" transform="matrix(1.00342 0 0 1.0034 -626.449 142.075)"/><use xlink:href="#bs" transform="matrix(1.00342 0 0 1.0034 -626.449 142.075)"/><use xlink:href="#bt" transform="matrix(1.00342 0 0 1.0034 -626.449 142.075)"/><use xlink:href="#bu" transform="matrix(1.00342 0 0 1.0034 -626.449 142.075)"/><use xlink:href="#bv" transform="matrix(1.00342 0 0 1.0034 -626.449 142.075)"/><use xlink:href="#bw" transform="matrix(1.00342 0 0 1.0034 -626.449 142.075)"/><use xlink:href="#bx" transform="matrix(1.00342 0 0 1.0034 -626.449 142.075)"/><use xlink:href="#by" transform="matrix(1.00342 0 0 1.0034 -626.449 142.075)"/><use xlink:href="#bz" transform="matrix(1.00342 0 0 1.0034 -626.449 142.075)"/><use xlink:href="#bA" transform="matrix(1.00342 0 0 1.0034 -626.449 142.075)"/><use xlink:href="#bB" transform="matrix(1.00342 0 0 1.0034 -626.449 142.075)"/><use xlink:href="#bC" transform="matrix(1.00342 0 0 1.0034 -626.449 142.075)"/><use xlink:href="#bD" transform="matrix(1.00342 0 0 1.0034 -626.449 142.075)"/><use xlink:href="#bE" transform="matrix(1.00342 0 0 1.0034 -626.449 142.075)"/><use xlink:href="#bF" transform="matrix(1.00342 0 0 1.0034 -626.449 142.075)"/><use xlink:href="#bG" transform="matrix(1.00342 0 0 1.0034 -626.449 142.075)"/><use xlink:href="#bH" transform="matrix(1.00342 0 0 1.0034 -626.449 142.075)"/><use xlink:href="#bI" transform="matrix(1.00342 0 0 1.0034 -626.449 142.075)"/><use xlink:href="#bJ" transform="matrix(1.00342 0 0 1.0034 -626.449 142.075)"/><use xlink:href="#bK" transform="matrix(1.00342 0 0 1.0034 -626.449 142.075)"/><use xlink:href="#bL" transform="matrix(1.00342 0 0 1.0034 -626.449 142.075)"/><use xlink:href="#bM" transform="matrix(1.00342 0 0 1.0034 -626.449 142.075)"/><use xlink:href="#bN" transform="matrix(1.00342 0 0 1.0034 -626.449 142.075)"/><use xlink:href="#bO" transform="matrix(1.00342 0 0 1.0034 -626.449 142.075)"/><use xlink:href="#bP" transform="matrix(1.00342 0 0 1.0034 -626.449 142.075)"/><use xlink:href="#bQ" transform="matrix(1.00342 0 0 1.0034 -626.449 142.075)"/><use xlink:href="#bR" transform="matrix(1.00342 0 0 1.0034 -626.449 142.075)"/><use xlink:href="#bS" transform="matrix(1.00342 0 0 1.0034 -626.449 142.075)"/><use xlink:href="#bT" transform="matrix(1.00342 0 0 1.0034 -626.449 142.075)"/><use xlink:href="#bU" transform="matrix(1.00342 0 0 1.0034 -626.449 142.075)"/><use xlink:href="#bV" transform="matrix(1.00342 0 0 1.0034 -626.449 142.075)"/><use xlink:href="#bW" transform="matrix(1.00342 0 0 1.0034 -626.449 142.075)"/><use xlink:href="#bX" transform="matrix(1.00342 0 0 1.0034 -626.449 142.075)"/><use xlink:href="#bY" transform="matrix(1.00342 0 0 1.0034 -626.449 142.075)"/><use xlink:href="#bZ" transform="matrix(1.00342 0 0 1.0034 -626.449 142.075)"/><use xlink:href="#ca" transform="matrix(1.00342 0 0 1.0034 -626.449 142.075)"/><use xlink:href="#cb" transform="matrix(1.00342 0 0 1.0034 -626.449 142.075)"/><use xlink:href="#cc" transform="matrix(1.00342 0 0 1.0034 -626.449 142.075)"/><use xlink:href="#cd" transform="matrix(1.00342 0 0 1.0034 -626.449 142.075)"/><use xlink:href="#ce" transform="matrix(1.00342 0 0 1.0034 -626.449 142.075)"/><use xlink:href="#cf" transform="matrix(1.00342 0 0 1.0034 -626.449 142.075)"/><use xlink:href="#cg" transform="matrix(1.00342 0 0 1.0034 -626.449 142.075)"/><use xlink:href="#ch" transform="matrix(1.00342 0 0 1.0034 -626.449 142.075)"/><use xlink:href="#ci" transform="matrix(1.00342 0 0 1.0034 -626.449 142.075)"/><use xlink:href="#cj" transform="matrix(1.00342 0 0 1.0034 -626.449 142.075)"/><use xlink:href="#ck" transform="matrix(1.00342 0 0 1.0034 -626.449 142.075)"/><use xlink:href="#cl" transform="matrix(1.00342 0 0 1.0034 -626.449 142.075)"/><use xlink:href="#cm" transform="matrix(1.00342 0 0 1.0034 -626.449 142.075)"/><use xlink:href="#cn" transform="matrix(1.00342 0 0 1.0034 -626.449 142.075)"/><use xlink:href="#co" transform="matrix(1.00342 0 0 1.0034 -626.449 142.075)"/><use xlink:href="#cp" transform="matrix(1.00342 0 0 1.0034 -626.449 142.075)"/><use xlink:href="#cq" transform="matrix(1.00342 0 0 1.0034 -626.449 142.075)"/><use xlink:href="#cr" transform="matrix(1.00342 0 0 1.0034 -626.449 142.075)"/><use xlink:href="#cs" transform="matrix(1.00342 0 0 1.0034 -626.449 142.075)"/><use xlink:href="#ct" transform="matrix(1.00342 0 0 1.0034 -626.449 142.075)"/><use xlink:href="#cu" transform="matrix(1.00342 0 0 1.0034 -626.449 142.075)"/><use xlink:href="#cv" transform="matrix(1.00342 0 0 1.0034 -626.449 142.075)"/><use xlink:href="#cw" transform="matrix(1.00342 0 0 1.0034 -626.449 142.075)"/><use xlink:href="#cx" transform="matrix(1.00342 0 0 1.0034 -626.449 142.075)"/><use xlink:href="#cy" transform="matrix(1.00342 0 0 1.0034 -626.449 142.075)"/><use xlink:href="#cz" transform="matrix(1.00342 0 0 1.0034 -626.449 142.075)"/><use xlink:href="#cA" transform="matrix(1.00342 0 0 1.0034 -626.449 142.075)"/><use xlink:href="#cB" transform="matrix(1.00342 0 0 1.0034 -626.449 142.075)"/><use xlink:href="#cC" transform="matrix(1.00342 0 0 1.0034 -626.449 142.075)"/><use xlink:href="#cD" transform="matrix(1.00342 0 0 1.0034 -626.449 142.075)"/><use xlink:href="#cE" transform="matrix(1.00342 0 0 1.0034 -626.449 142.075)"/><use xlink:href="#cF" transform="matrix(1.00342 0 0 1.0034 -626.449 142.075)"/><use xlink:href="#cG" transform="matrix(1.00342 0 0 1.0034 -626.449 142.075)"/><use xlink:href="#cH" transform="matrix(1.00342 0 0 1.0034 -626.449 142.075)"/><use xlink:href="#cI" transform="matrix(1.00342 0 0 1.0034 -626.449 142.075)"/><use xlink:href="#cJ" transform="matrix(1.00342 0 0 1.0034 -626.449 142.075)"/><use xlink:href="#cK" transform="matrix(1.00342 0 0 1.0034 -626.449 142.075)"/><use xlink:href="#cL" transform="matrix(1.00342 0 0 1.0034 -626.449 142.075)"/><use xlink:href="#cM" transform="matrix(1.00342 0 0 1.0034 -626.449 142.075)"/><use xlink:href="#cN" transform="matrix(1.00342 0 0 1.0034 -626.449 142.075)"/><use xlink:href="#cO" transform="matrix(1.00342 0 0 1.0034 -626.449 142.075)"/><use xlink:href="#cP" transform="matrix(1.00342 0 0 1.0034 -626.449 142.075)"/><use xlink:href="#cQ" transform="matrix(1.00342 0 0 1.0034 -626.449 142.075)"/><use xlink:href="#cR" transform="matrix(1.00342 0 0 1.0034 -626.449 142.075)"/><use xlink:href="#cS" transform="matrix(1.00342 0 0 1.0034 -626.449 142.075)"/><use xlink:href="#cT" transform="matrix(1.00342 0 0 1.0034 -626.449 142.075)"/><use xlink:href="#cU" transform="matrix(1.00342 0 0 1.0034 -626.449 142.075)"/><use xlink:href="#cV" transform="matrix(1.00342 0 0 1.0034 -626.449 142.075)"/><use xlink:href="#cW" transform="matrix(1.00342 0 0 1.0034 -626.449 142.075)"/><use xlink:href="#cX" transform="matrix(1.00342 0 0 1.0034 -626.449 142.075)"/><use xlink:href="#cY" transform="matrix(1.00342 0 0 1.0034 -626.449 142.075)"/><use xlink:href="#cZ" transform="matrix(1.00342 0 0 1.0034 -626.449 142.075)"/><use xlink:href="#da" transform="matrix(1.00342 0 0 1.0034 -626.449 142.075)"/><use xlink:href="#db" transform="matrix(1.00342 0 0 1.0034 -626.449 142.075)"/><use xlink:href="#dc" transform="matrix(1.00342 0 0 1.0034 -626.449 142.075)"/><use xlink:href="#dd" transform="matrix(1.00342 0 0 1.0034 -626.449 142.075)"/><use xlink:href="#de" transform="matrix(1.00342 0 0 1.0034 -626.449 142.075)"/><use xlink:href="#df" transform="matrix(1.00342 0 0 1.0034 -626.449 142.075)"/><use xlink:href="#dg" transform="matrix(1.00342 0 0 1.0034 -626.449 142.075)"/><use xlink:href="#dh" transform="matrix(1.00342 0 0 1.0034 -626.449 142.075)"/><use xlink:href="#di" transform="matrix(1.00342 0 0 1.0034 -626.449 142.075)"/><use xlink:href="#dj" transform="matrix(1.00342 0 0 1.0034 -626.449 142.075)"/><use xlink:href="#dk" transform="matrix(1.00342 0 0 1.0034 -626.449 142.075)"/><use xlink:href="#dl" transform="matrix(1.00342 0 0 1.0034 -626.449 142.075)"/><use xlink:href="#dm" transform="matrix(1.00342 0 0 1.0034 -626.449 142.075)"/><use xlink:href="#dn" transform="matrix(1.00342 0 0 1.0034 -626.449 142.075)"/><use xlink:href="#do" transform="matrix(1.00342 0 0 1.0034 -626.449 142.075)"/><use xlink:href="#dp" transform="matrix(1.00342 0 0 1.0034 -626.449 142.075)"/><use xlink:href="#dq" transform="matrix(1.00342 0 0 1.0034 -626.449 142.075)"/><use xlink:href="#dr" transform="matrix(1.00342 0 0 1.0034 -626.449 142.075)"/><use xlink:href="#ds" transform="matrix(1.00342 0 0 1.0034 -626.449 142.075)"/><use xlink:href="#dt" transform="matrix(1.00342 0 0 1.0034 -626.449 142.075)"/><use xlink:href="#du" transform="matrix(1.00342 0 0 1.0034 -626.449 142.075)"/><use xlink:href="#dv" transform="matrix(1.00342 0 0 1.0034 -626.449 142.075)"/><use xlink:href="#dw" transform="matrix(1.00342 0 0 1.0034 -626.449 142.075)"/><use xlink:href="#dx" transform="matrix(1.00342 0 0 1.0034 -626.449 142.075)"/><use xlink:href="#dy" transform="matrix(1.00342 0 0 1.0034 -626.449 142.075)"/><use xlink:href="#dz" transform="matrix(1.00342 0 0 1.0034 -626.449 142.075)"/><use xlink:href="#dA" transform="matrix(1.00342 0 0 1.0034 -626.449 142.075)"/><use xlink:href="#dB" transform="matrix(1.00342 0 0 1.0034 -626.449 142.075)"/><use xlink:href="#dC" transform="matrix(1.00342 0 0 1.0034 -626.449 142.075)"/><use xlink:href="#dD" transform="matrix(1.00342 0 0 1.0034 -626.449 142.075)"/><use xlink:href="#dE" transform="matrix(1.00342 0 0 1.0034 -626.449 142.075)"/><use xlink:href="#dF" transform="matrix(1.00342 0 0 1.0034 -626.449 142.075)"/><use xlink:href="#dG" transform="matrix(1.00342 0 0 1.0034 -626.449 142.075)"/><use xlink:href="#dH" transform="matrix(1.00342 0 0 1.0034 -626.449 142.075)"/><use xlink:href="#dI" transform="matrix(1.00342 0 0 1.0034 -626.449 142.075)"/><use xlink:href="#dJ" transform="matrix(1.00342 0 0 1.0034 -626.449 142.075)"/><use xlink:href="#dK" transform="matrix(1.00342 0 0 1.0034 -626.449 142.075)"/><use xlink:href="#dL" transform="matrix(1.00342 0 0 1.0034 -626.449 142.075)"/><use xlink:href="#dM" transform="matrix(1.00342 0 0 1.0034 -626.449 142.075)"/><use xlink:href="#dN" transform="matrix(1.00342 0 0 1.0034 -626.449 142.075)"/><use xlink:href="#dO" transform="matrix(1.00342 0 0 1.0034 -626.449 142.075)"/><use xlink:href="#dP" transform="matrix(1.00342 0 0 1.0034 -626.449 142.075)"/><use xlink:href="#dQ" transform="matrix(1.00342 0 0 1.0034 -626.449 142.075)"/><use xlink:href="#dR" transform="matrix(1.00342 0 0 1.0034 -626.449 142.075)"/><use xlink:href="#dS" transform="matrix(1.00342 0 0 1.0034 -626.449 142.075)"/><use xlink:href="#dT" transform="matrix(1.00342 0 0 1.0034 -626.449 142.075)"/><use xlink:href="#dU" transform="matrix(1.00342 0 0 1.0034 -626.449 142.075)"/><use xlink:href="#dV" transform="matrix(1.00342 0 0 1.0034 -626.449 142.075)"/><use xlink:href="#dW" transform="matrix(1.00342 0 0 1.0034 -626.449 142.075)"/><use xlink:href="#dX" transform="matrix(1.00342 0 0 1.0034 -626.449 142.075)"/><use xlink:href="#dY" transform="matrix(1.00342 0 0 1.0034 -626.449 142.075)"/><use xlink:href="#dZ" transform="matrix(1.00342 0 0 1.0034 -626.449 142.075)"/><use xlink:href="#ea" transform="matrix(1.00342 0 0 1.0034 -626.449 142.075)"/><use xlink:href="#eb" transform="matrix(1.00342 0 0 1.0034 -626.449 142.075)"/><use xlink:href="#ec" transform="matrix(1.00342 0 0 1.0034 -626.449 142.075)"/><use xlink:href="#ed" transform="matrix(1.00342 0 0 1.0034 -626.449 142.075)"/><use xlink:href="#ee" transform="matrix(1.00342 0 0 1.0034 -626.449 142.075)"/><use xlink:href="#ef" transform="matrix(1.00342 0 0 1.0034 -626.449 142.075)"/><use xlink:href="#eg" transform="matrix(1.00342 0 0 1.0034 -626.449 142.075)"/><use xlink:href="#eh" transform="matrix(1.00342 0 0 1.0034 -626.449 142.075)"/><use xlink:href="#ei" transform="matrix(1.00342 0 0 1.0034 -626.449 142.075)"/><use xlink:href="#ej" transform="matrix(1.00342 0 0 1.0034 -626.449 142.075)"/><use xlink:href="#ek" transform="matrix(1.00342 0 0 1.0034 -626.449 142.075)"/><use xlink:href="#el" transform="matrix(1.00342 0 0 1.0034 -626.449 142.075)"/><use xlink:href="#em" transform="matrix(1.00342 0 0 1.0034 -626.449 142.075)"/><use xlink:href="#en" transform="matrix(1.00342 0 0 1.0034 -626.449 142.075)"/><use xlink:href="#eo" transform="matrix(1.00342 0 0 1.0034 -626.449 142.075)"/><use xlink:href="#ep" transform="matrix(1.00342 0 0 1.0034 -626.449 142.075)"/><use xlink:href="#eq" transform="matrix(1.00342 0 0 1.0034 -626.449 142.075)"/><use xlink:href="#er" transform="matrix(1.00342 0 0 1.0034 -626.449 142.075)"/><use xlink:href="#es" transform="matrix(1.00342 0 0 1.0034 -626.449 142.075)"/><use xlink:href="#et" transform="matrix(1.00342 0 0 1.0034 -626.449 142.075)"/><use xlink:href="#eu" transform="matrix(1.00342 0 0 1.0034 -626.449 142.075)"/><use xlink:href="#ev" transform="matrix(1.00342 0 0 1.0034 -626.449 142.075)"/><use xlink:href="#ew" transform="matrix(1.00342 0 0 1.0034 -626.449 142.075)"/><use xlink:href="#ex" transform="matrix(1.00342 0 0 1.0034 -626.449 142.075)"/><use xlink:href="#ey" transform="matrix(1.00342 0 0 1.0034 -626.449 142.075)"/></svg>