<svg xmlns="http://www.w3.org/2000/svg" xmlns:xlink="http://www.w3.org/1999/xlink" preserveAspectRatio="none" width="284" height="320"><defs><linearGradient id="a" gradientUnits="userSpaceOnUse" x1="445.4" y1="-349.613" x2="445.4" y2="-303.287" spreadMethod="pad"><stop offset="0%" stop-color="#FB9D83"/><stop offset="100%" stop-color="#FBB49C"/></linearGradient><linearGradient id="b" gradientUnits="userSpaceOnUse" x1="405.75" y1="-261.637" x2="405.75" y2="-167.762" spreadMethod="pad"><stop offset="0%" stop-color="#E03014"/><stop offset="100%" stop-color="#FE3709"/></linearGradient><linearGradient id="c" gradientUnits="userSpaceOnUse" x1="439.2" y1="-166.487" x2="439.2" y2="-257.212" spreadMethod="pad"><stop offset="0%" stop-color="#FE5138"/><stop offset="100%" stop-color="#FE3709"/></linearGradient><linearGradient id="d" gradientUnits="userSpaceOnUse" x1="407.8" y1="-166.6" x2="407.8" y2="-257.4" spreadMethod="pad"><stop offset="0%" stop-color="#FE5138"/><stop offset="100%" stop-color="#FE3709"/></linearGradient><linearGradient id="e" gradientUnits="userSpaceOnUse" x1="410.75" y1="-166.413" x2="410.75" y2="-257.188" spreadMethod="pad"><stop offset="0%" stop-color="#FE5138"/><stop offset="100%" stop-color="#FE3709"/></linearGradient><linearGradient id="f" gradientUnits="userSpaceOnUse" x1="428.4" y1="-166.25" x2="428.4" y2="-257.05" spreadMethod="pad"><stop offset="0%" stop-color="#FE5138"/><stop offset="100%" stop-color="#FE3709"/></linearGradient><linearGradient id="g" gradientUnits="userSpaceOnUse" x1="372.45" y1="-166.475" x2="372.45" y2="-257.225" spreadMethod="pad"><stop offset="0%" stop-color="#FE5138"/><stop offset="100%" stop-color="#FE3709"/></linearGradient><linearGradient id="h" gradientUnits="userSpaceOnUse" x1="371.75" y1="-166.313" x2="371.75" y2="-257.087" spreadMethod="pad"><stop offset="0%" stop-color="#FE5138"/><stop offset="100%" stop-color="#FE3709"/></linearGradient><linearGradient id="i" gradientUnits="userSpaceOnUse" x1="404.45" y1="-166.438" x2="404.45" y2="-256.863" spreadMethod="pad"><stop offset="0%" stop-color="#FE5138"/><stop offset="100%" stop-color="#FE3709"/></linearGradient><linearGradient id="j" gradientUnits="userSpaceOnUse" x1="365.05" y1="-165.15" x2="365.05" y2="-258.35" spreadMethod="pad"><stop offset="0%" stop-color="#FE5138"/><stop offset="100%" stop-color="#FE3709"/></linearGradient><linearGradient id="k" gradientUnits="userSpaceOnUse" x1="434.45" y1="-166.388" x2="434.45" y2="-257.213" spreadMethod="pad"><stop offset="0%" stop-color="#FE5138"/><stop offset="100%" stop-color="#FE3709"/></linearGradient><linearGradient id="l" gradientUnits="userSpaceOnUse" x1="422.35" y1="-166.3" x2="422.35" y2="-256.9" spreadMethod="pad"><stop offset="0%" stop-color="#FE5138"/><stop offset="100%" stop-color="#FE3709"/></linearGradient><linearGradient id="m" gradientUnits="userSpaceOnUse" x1="358.6" y1="-164.925" x2="358.6" y2="-257.275" spreadMethod="pad"><stop offset="0%" stop-color="#FE5138"/><stop offset="100%" stop-color="#FE3709"/></linearGradient><linearGradient id="n" gradientUnits="userSpaceOnUse" x1="351.9" y1="-166.2" x2="351.9" y2="-256.9" spreadMethod="pad"><stop offset="0%" stop-color="#FE5138"/><stop offset="100%" stop-color="#FE3709"/></linearGradient><linearGradient id="o" gradientUnits="userSpaceOnUse" x1="350.1" y1="-166.625" x2="350.1" y2="-256.875" spreadMethod="pad"><stop offset="0%" stop-color="#FE5138"/><stop offset="100%" stop-color="#FE3709"/></linearGradient><linearGradient id="p" gradientUnits="userSpaceOnUse" x1="374" y1="-166.588" x2="374" y2="-257.513" spreadMethod="pad"><stop offset="0%" stop-color="#FE5138"/><stop offset="100%" stop-color="#FE3709"/></linearGradient><linearGradient id="q" gradientUnits="userSpaceOnUse" x1="426.35" y1="-165.688" x2="426.35" y2="-258.413" spreadMethod="pad"><stop offset="0%" stop-color="#FE5138"/><stop offset="100%" stop-color="#FE3709"/></linearGradient><linearGradient id="r" gradientUnits="userSpaceOnUse" x1="495.1" y1="-242.6" x2="495.1" y2="-156.4" spreadMethod="pad"><stop offset="0%" stop-color="#C12911"/><stop offset="100%" stop-color="#E03014"/></linearGradient><linearGradient id="s" gradientUnits="userSpaceOnUse" x1="491.7" y1="-253.963" x2="491.7" y2="-167.338" spreadMethod="pad"><stop offset="0%" stop-color="#D52D12"/><stop offset="100%" stop-color="#E93215"/></linearGradient><linearGradient id="t" gradientUnits="userSpaceOnUse" x1="489.3" y1="-253.637" x2="489.3" y2="-167.563" spreadMethod="pad"><stop offset="0%" stop-color="#D52D12"/><stop offset="100%" stop-color="#E93215"/></linearGradient><linearGradient id="u" gradientUnits="userSpaceOnUse" x1="463.6" y1="-254.063" x2="463.6" y2="-167.438" spreadMethod="pad"><stop offset="0%" stop-color="#D52D12"/><stop offset="100%" stop-color="#E93215"/></linearGradient><linearGradient id="v" gradientUnits="userSpaceOnUse" x1="515.05" y1="-254" x2="515.05" y2="-167.4" spreadMethod="pad"><stop offset="0%" stop-color="#D52D12"/><stop offset="100%" stop-color="#E93215"/></linearGradient><linearGradient id="w" gradientUnits="userSpaceOnUse" x1="521.75" y1="-253.813" x2="521.75" y2="-167.188" spreadMethod="pad"><stop offset="0%" stop-color="#D52D12"/><stop offset="100%" stop-color="#E93215"/></linearGradient><linearGradient id="x" gradientUnits="userSpaceOnUse" x1="464.35" y1="-254.238" x2="464.35" y2="-167.563" spreadMethod="pad"><stop offset="0%" stop-color="#D52D12"/><stop offset="100%" stop-color="#E93215"/></linearGradient><linearGradient id="y" gradientUnits="userSpaceOnUse" x1="472.75" y1="-253.838" x2="472.75" y2="-167.263" spreadMethod="pad"><stop offset="0%" stop-color="#D52D12"/><stop offset="100%" stop-color="#E93215"/></linearGradient><linearGradient id="z" gradientUnits="userSpaceOnUse" x1="452.15" y1="-253.925" x2="452.15" y2="-167.275" spreadMethod="pad"><stop offset="0%" stop-color="#D52D12"/><stop offset="100%" stop-color="#E93215"/></linearGradient><linearGradient id="A" gradientUnits="userSpaceOnUse" x1="513.95" y1="-253.637" x2="513.95" y2="-167.563" spreadMethod="pad"><stop offset="0%" stop-color="#D52D12"/><stop offset="100%" stop-color="#E93215"/></linearGradient><linearGradient id="B" gradientUnits="userSpaceOnUse" x1="483.9" y1="-254.625" x2="483.9" y2="-167.175" spreadMethod="pad"><stop offset="0%" stop-color="#D52D12"/><stop offset="100%" stop-color="#E93215"/></linearGradient><linearGradient id="C" gradientUnits="userSpaceOnUse" x1="535.15" y1="-254.613" x2="535.15" y2="-166.188" spreadMethod="pad"><stop offset="0%" stop-color="#D52D12"/><stop offset="100%" stop-color="#E93215"/></linearGradient><linearGradient id="D" gradientUnits="userSpaceOnUse" x1="535.7" y1="-253.65" x2="535.7" y2="-166.55" spreadMethod="pad"><stop offset="0%" stop-color="#D52D12"/><stop offset="100%" stop-color="#E93215"/></linearGradient><linearGradient id="E" gradientUnits="userSpaceOnUse" x1="538.35" y1="-253.637" x2="538.35" y2="-167.563" spreadMethod="pad"><stop offset="0%" stop-color="#D52D12"/><stop offset="100%" stop-color="#E93215"/></linearGradient><linearGradient id="F" gradientUnits="userSpaceOnUse" x1="536.1" y1="-253.625" x2="536.1" y2="-167.575" spreadMethod="pad"><stop offset="0%" stop-color="#D52D12"/><stop offset="100%" stop-color="#E93215"/></linearGradient><linearGradient id="G" gradientUnits="userSpaceOnUse" x1="346.613" y1="-303.963" x2="444.588" y2="-270.238" spreadMethod="pad"><stop offset="0%" stop-color="#FE4027"/><stop offset="100%" stop-color="#FC855F"/></linearGradient><linearGradient id="H" gradientUnits="userSpaceOnUse" x1="394.25" y1="-241.6" x2="394.25" y2="-168.4" spreadMethod="pad"><stop offset="0%" stop-color="#EBC226"/><stop offset="100%" stop-color="#F2EC78"/></linearGradient><linearGradient id="I" gradientUnits="userSpaceOnUse" x1="388.75" y1="-176.613" x2="388.75" y2="-304.887" spreadMethod="pad"><stop offset="0%" stop-color="#F6F9BD"/><stop offset="100%" stop-color="#F3D72A"/></linearGradient><linearGradient id="J" gradientUnits="userSpaceOnUse" x1="399.8" y1="-172.625" x2="399.8" y2="-301.175" spreadMethod="pad"><stop offset="0%" stop-color="#F6F9BD"/><stop offset="100%" stop-color="#F3D72A"/></linearGradient><linearGradient id="K" gradientUnits="userSpaceOnUse" x1="368.725" y1="-315.237" x2="443.375" y2="-285.063" spreadMethod="pad"><stop offset="0%" stop-color="#FE5537"/><stop offset="100%" stop-color="#FBD4BF"/></linearGradient><linearGradient id="L" gradientUnits="userSpaceOnUse" x1="356.612" y1="-269.325" x2="324.688" y2="-298.075" spreadMethod="pad"><stop offset="0%" stop-color="#FEFEFE"/><stop offset="100%" stop-color="#EFEFEF"/></linearGradient><linearGradient id="M" gradientUnits="userSpaceOnUse" x1="549.825" y1="-307.025" x2="446.675" y2="-269.475" spreadMethod="pad"><stop offset="0%" stop-color="#E93215"/><stop offset="41.176%" stop-color="#FE3709"/><stop offset="100%" stop-color="#FE5138"/></linearGradient><linearGradient id="N" gradientUnits="userSpaceOnUse" x1="448.35" y1="-285.688" x2="526.65" y2="-318.913" spreadMethod="pad"><stop offset="0%" stop-color="#FC8163"/><stop offset="100%" stop-color="#FE3709"/></linearGradient><linearGradient id="O" gradientUnits="userSpaceOnUse" x1="496.4" y1="-257.625" x2="496.4" y2="-170.075" spreadMethod="pad"><stop offset="0%" stop-color="#D0871A"/><stop offset="100%" stop-color="#DA991E"/></linearGradient><linearGradient id="P" gradientUnits="userSpaceOnUse" x1="501.95" y1="-181.638" x2="501.95" y2="-309.463" spreadMethod="pad"><stop offset="0%" stop-color="#E3AC22"/><stop offset="100%" stop-color="#DA991E"/></linearGradient><linearGradient id="Q" gradientUnits="userSpaceOnUse" x1="490.9" y1="-177.638" x2="490.9" y2="-305.463" spreadMethod="pad"><stop offset="0%" stop-color="#E3AC22"/><stop offset="100%" stop-color="#DA991E"/></linearGradient><linearGradient id="R" gradientUnits="userSpaceOnUse" x1="376.738" y1="-365.35" x2="436.762" y2="-318.45" spreadMethod="pad"><stop offset="0%" stop-color="#F3DB36"/><stop offset="7.843%" stop-color="#F2E661"/><stop offset="16.078%" stop-color="#F3EF8F"/><stop offset="23.922%" stop-color="#F2E661"/><stop offset="41.961%" stop-color="#F3D72A"/><stop offset="100%" stop-color="#E3AC22"/></linearGradient><linearGradient id="S" gradientUnits="userSpaceOnUse" x1="518.888" y1="-255.012" x2="469.113" y2="-316.488" spreadMethod="pad"><stop offset="0%" stop-color="#E3AC22"/><stop offset="45.882%" stop-color="#F3DB36"/><stop offset="67.059%" stop-color="#F3EF8F"/><stop offset="100%" stop-color="#F3D72A"/></linearGradient><linearGradient id="T" gradientUnits="userSpaceOnUse" x1="466.363" y1="-309.55" x2="505.838" y2="-241.15" spreadMethod="pad"><stop offset="0%" stop-color="#F3EE82"/><stop offset="23.137%" stop-color="#FEFEFE"/><stop offset="56.078%" stop-color="#F2E24F"/><stop offset="100%" stop-color="#EBC226"/></linearGradient><linearGradient id="U" gradientUnits="userSpaceOnUse" x1="485.137" y1="-314" x2="523.862" y2="-246.9" spreadMethod="pad"><stop offset="0%" stop-color="#F3EE82"/><stop offset="23.137%" stop-color="#FEFEFE"/><stop offset="56.078%" stop-color="#F2E24F"/><stop offset="100%" stop-color="#EBC226"/></linearGradient><linearGradient id="V" gradientUnits="userSpaceOnUse" x1="406.3" y1="-323.637" x2="406.3" y2="-259.662" spreadMethod="pad"><stop offset="0%" stop-color="#EBC226"/><stop offset="20%" stop-color="#F2E24B"/><stop offset="41.176%" stop-color="#F3EF8F"/><stop offset="76.863%" stop-color="#F0CF28"/><stop offset="100%" stop-color="#EBC226"/></linearGradient><linearGradient id="W" gradientUnits="userSpaceOnUse" x1="413.4" y1="-327.7" x2="413.4" y2="-248.9" spreadMethod="pad"><stop offset="0%" stop-color="#F3D72A"/><stop offset="23.137%" stop-color="#F4F5A6"/><stop offset="45.098%" stop-color="#FEFEFE"/><stop offset="72.157%" stop-color="#F2E868"/><stop offset="100%" stop-color="#F3DB38"/></linearGradient><linearGradient id="X" gradientUnits="userSpaceOnUse" x1="394.65" y1="-332.675" x2="394.65" y2="-254.725" spreadMethod="pad"><stop offset="0%" stop-color="#F3D72A"/><stop offset="23.137%" stop-color="#F4F5A6"/><stop offset="45.098%" stop-color="#FEFEFE"/><stop offset="72.157%" stop-color="#F2E868"/><stop offset="100%" stop-color="#F3DB38"/></linearGradient><linearGradient id="Y" gradientUnits="userSpaceOnUse" x1="427.2" y1="-318.8" x2="365.9" y2="-339.9" spreadMethod="pad"><stop offset="0%" stop-color="#E3AC22"/><stop offset="100%" stop-color="#EBC226"/></linearGradient><linearGradient id="Z" gradientUnits="userSpaceOnUse" x1="366.425" y1="-344.737" x2="424.675" y2="-315.063" spreadMethod="pad"><stop offset="0%" stop-color="#BD6413"/><stop offset="38.039%" stop-color="#DA991E"/><stop offset="100%" stop-color="#C77517"/></linearGradient><linearGradient id="aa" gradientUnits="userSpaceOnUse" x1="376.025" y1="-367.012" x2="422.475" y2="-329.387" spreadMethod="pad"><stop offset="0%" stop-color="#F4F5A6"/><stop offset="20%" stop-color="#FEFEFE"/><stop offset="41.961%" stop-color="#F6F9BD"/><stop offset="100%" stop-color="#F3DB36"/></linearGradient><linearGradient id="ab" gradientUnits="userSpaceOnUse" x1="385.938" y1="-376.925" x2="435.263" y2="-336.975" spreadMethod="pad"><stop offset="0%" stop-color="#F4F5A6"/><stop offset="20%" stop-color="#FEFEFE"/><stop offset="41.961%" stop-color="#F6F9BD"/><stop offset="100%" stop-color="#F3DB36"/></linearGradient><linearGradient id="ac" gradientUnits="userSpaceOnUse" x1="513.85" y1="-365.725" x2="454.65" y2="-317.775" spreadMethod="pad"><stop offset="0%" stop-color="#F3DB36"/><stop offset="7.843%" stop-color="#F2E661"/><stop offset="16.078%" stop-color="#F3EF8F"/><stop offset="23.922%" stop-color="#F2E661"/><stop offset="41.961%" stop-color="#F3D72A"/><stop offset="100%" stop-color="#E3AC22"/></linearGradient><linearGradient id="ad" gradientUnits="userSpaceOnUse" x1="463.225" y1="-319.588" x2="524.875" y2="-339.613" spreadMethod="pad"><stop offset="0%" stop-color="#E3AC22"/><stop offset="100%" stop-color="#EBC226"/></linearGradient><linearGradient id="ae" gradientUnits="userSpaceOnUse" x1="524.063" y1="-345.45" x2="466.337" y2="-314.75" spreadMethod="pad"><stop offset="0%" stop-color="#BD6413"/><stop offset="38.039%" stop-color="#DA991E"/><stop offset="100%" stop-color="#C77517"/></linearGradient><linearGradient id="af" gradientUnits="userSpaceOnUse" x1="514.35" y1="-367.462" x2="468.55" y2="-329.038" spreadMethod="pad"><stop offset="0%" stop-color="#F4F5A6"/><stop offset="20%" stop-color="#FEFEFE"/><stop offset="41.961%" stop-color="#F6F9BD"/><stop offset="100%" stop-color="#F3DB36"/></linearGradient><linearGradient id="ag" gradientUnits="userSpaceOnUse" x1="504.712" y1="-377" x2="456.087" y2="-336.2" spreadMethod="pad"><stop offset="0%" stop-color="#F4F5A6"/><stop offset="20%" stop-color="#FEFEFE"/><stop offset="41.961%" stop-color="#F6F9BD"/><stop offset="100%" stop-color="#F3DB36"/></linearGradient><linearGradient id="ah" gradientUnits="userSpaceOnUse" x1="445.4" y1="-338.625" x2="445.4" y2="-316.675" spreadMethod="pad"><stop offset="0%" stop-color="#F3DB36"/><stop offset="100%" stop-color="#E3AC22"/></linearGradient><linearGradient id="ai" gradientUnits="userSpaceOnUse" x1="455.85" y1="-330.7" x2="440.65" y2="-330.7" spreadMethod="pad"><stop offset="0%" stop-color="#F4E987"/><stop offset="100%" stop-color="#FEFEFE"/></linearGradient><path fill="#FFF" fill-opacity="0" d="M0 320h284V0H0v320z" id="aj"/><path fill="url(#a)" d="M445.45-354.65L342.2-329.3 445.15-290l103.45-39.3-103.15-25.35z" id="ak"/><path fill="url(#b)" d="M465.75-231.75L445.35-290l-99.55-36.35v138.3l99.55 40.6 20.4-84.3z" id="al"/><path fill="url(#c)" d="M447.55-175.85q3.4-1.25 4.45-3.9.9-2.4-.25-5.05-1.3-2.85-4.35-4.2-3.15-1.45-7.85-2.8-5.45-1.5-8.2-2.3-1.95 5.35-2.85 8-1.6 4.6-2.3 8.05-.65 3.25.95 5.95 1.5 2.5 3.95 3.15 2.8.7 5.75-1.4 3.2-2.2 3.7-5.9 3.35 1.7 7 .4z" id="am"/><path fill="url(#d)" d="M407.4-172.3l9.6 2.7q1.1-3.15 3.3-9.4 1.9-5.45 2.7-9.4.75-3.85-1.1-7-1.75-2.95-4.6-3.65-3.25-.9-6.75 1.6-3.75 2.6-4.35 6.95-3.9-2-8.2-.5-4.05 1.45-5.2 4.6-1.05 2.85.3 5.9 1.5 3.3 5.1 4.9 3.7 1.65 9.2 3.3z" id="an"/><path fill="url(#e)" d="M398.9-210.05q2.15 5.85 3.15 8.8 3.05-.85 9.05-2.5 5.1-1.55 8.7-3.1 3.4-1.55 4.8-4.65 1.3-2.9.3-5.55-1.1-3-4.9-4.35-4.05-1.45-7.75.45-.55-4.1-4.1-6.55-3.25-2.3-6.35-1.5-2.75.7-4.35 3.45-1.75 2.95-1.05 6.55.7 3.8 2.5 8.95z" id="ao"/><path fill="url(#f)" d="M430.4-242.2q-2.7 1.9-3.15 5.05-2.85-1.45-5.95-.3-2.9 1-3.8 3.3-.8 2.05.25 4.3 1.05 2.45 3.65 3.55 2.75 1.25 6.7 2.4 2.35.7 7 1.95.8-2.25 2.4-6.8 1.4-3.95 1.95-6.8.55-2.85-.8-5.15-1.25-2.15-3.35-2.65-2.35-.65-4.9 1.15z" id="ap"/><path fill="url(#g)" d="M358.7-213.25q-1.8 3.1-1.1 6.85.8 3.9 2.6 9.2 2.2 6.1 3.25 9.15 3.15-.9 9.35-2.6 5.35-1.6 9-3.25 3.5-1.55 5-4.8 1.35-3 .3-5.75-1.2-3.1-5.1-4.5-4.2-1.5-8 .45-.6-4.2-4.2-6.75-3.4-2.4-6.6-1.6-2.85.75-4.5 3.6z" id="aq"/><path fill="url(#h)" d="M362.7-229.4q-.65 1.7.2 3.55.9 2 3.05 2.95 2.3 1 5.6 2 1.9.55 5.8 1.6.65-1.85 2-5.65 1.15-3.25 1.6-5.65.45-2.35-.65-4.25-1.05-1.75-2.85-2.25-1.9-.5-4.05 1-2.25 1.6-2.6 4.2-2.3-1.25-4.95-.3-2.4.9-3.15 2.8z" id="ar"/><path fill="url(#i)" d="M401.6-251q-2.1.1-3.55 1.5-1.35 1.25-1.4 2.85 0 1.85 1.7 3.4 1.8 1.6 4.2 1.4-.55 2.35.75 4.4 1.25 1.95 3.05 2.15 1.6.25 3.1-.85 1.6-1.2 2-3.3.4-2.2.6-5.25.1-1.8.2-5.4-3.6-.4-5.35-.6-3.15-.35-5.3-.3z" id="as"/><path fill="url(#j)" d="M377.9-251.95q1.85-5.5 2.65-9.6.85-3.95-1.05-7.15-1.75-3-4.75-3.75-3.3-.85-6.85 1.65-3.85 2.7-4.45 7.1-3.95-2.05-8.35-.5-4.15 1.5-5.35 4.75-1.1 2.8.35 5.95 1.55 3.4 5.2 5.05 3.85 1.7 9.4 3.35 3.25.95 9.75 2.75l3.45-9.6z" id="at"/><path fill="url(#k)" d="M429.55-214.4q-1.45.4-2.35 1.9-.95 1.65-.55 3.55.4 2.1 1.35 4.85 1.2 3.2 1.75 4.8 4.45-1.25 4.9-1.35 2.75-.85 4.75-1.75 1.8-.75 2.6-2.45.7-1.6.15-3.05-.6-1.65-2.65-2.35-2.2-.8-4.2.25-.3-2.25-2.25-3.6-1.8-1.25-3.5-.8z" id="au"/><path fill="url(#l)" d="M415.15-251.6q-.05 1.6 1.05 3 1.15 1.4 3 3.15 1.05 1 3.25 2.95 4.65-4.35 6.15-6.3 1.1-1.4 1-3.05-.1-1.5-1.15-2.35-1.1-1-2.95-.7-2.05.3-3.15 1.9-1.15-1.6-3.15-1.85-1.9-.2-3.05.85-1 .9-1 2.4z" id="av"/><path fill="url(#m)" d="M364.35-274.15q-.45-1.25-2-1.85-1.65-.55-3.15.25-.2-1.7-1.65-2.7-1.35-.95-2.6-.6-1.1.3-1.8 1.4-.7 1.2-.45 2.7.3 1.5 1.05 3.6.85 2.4 1.25 3.6 5.45-1.5 7.3-2.3 1.4-.6 1.95-1.9.55-1.15.1-2.2z" id="aw"/><path fill="url(#n)" d="M345.8-239.3v18.4q1.35 1.9 3.55 2.85 2.1.9 3.95.5 2.3-.65 3.65-2.95 1.5-2.55.85-5.7-.65-3.25-2.1-7.55-.85-2.5-2.7-7.6-1.65.5-7.2 2.05z" id="ax"/><path fill="url(#o)" d="M348.8-208.4q-1.65.15-3 1.75v14.95q2.15 0 8.65-.55-.05-1.9 0-5.75-.05-3.4-.35-5.65-.4-2.3-2.05-3.65-1.5-1.2-3.25-1.1z" id="ay"/><path fill="url(#p)" d="M373.3-182.35q-1.8-.9-3.7-.2-1.85.6-2.4 2.05-.15.55-.15 1.1l11.7 4.8q.4-1.15 1.2-3.4.65-1.9.9-3.35.35-1.75-.5-3.2-.8-1.35-2.1-1.65-1.45-.4-3 .7-1.7 1.2-1.95 3.15z" id="az"/><path fill="url(#q)" d="M422.5-166.05q-2.2-.25-3.55.95-1.15 1.1-1.2 2.9-.05 1.95 1.25 3.55l.6.7 9.65 3.9q3-2.9 4.55-4.85 1.3-1.65 1.15-3.55-.15-1.8-1.4-2.85-1.3-1.15-3.55-.8-2.4.35-3.7 2.25-1.4-1.9-3.8-2.2z" id="aA"/><path fill="#D12C12" d="M445.35-240.1v-42.25L345.8-322.9v42.25l99.55 40.55z" id="aB"/><path fill="#E93215" d="M368.7-271.35l11.75 4.75q-.7-2.25-2.25-3.8-1.55-1.55-3.45-2.05-2.8-.75-6.05 1.1z" id="aC"/><path fill="#E93215" d="M416.15-254q-.7.7-.85 1.65l12.15 4.95q.75-.85 1.15-1.4 1.1-1.4 1-3.05-.1-1.5-1.15-2.35-1.1-1-2.95-.7-2.05.3-3.15 1.9-1.15-1.6-3.15-1.85-1.9-.2-3.05.85z" id="aD"/><path fill="#E93215" d="M354.95-279.05q-1.15.25-1.8 1.35l11.35 4.7q0-.85-.15-1.15-.45-1.2-2-1.8-1.65-.6-3.15.2-.2-1.7-1.65-2.7-1.35-.95-2.6-.6z" id="aE"/><path fill="url(#r)" d="M544.9-188.05v-138.3l-99.6 40.5v138.4l99.6-40.6z" id="aF"/><path fill="url(#s)" d="M491.45-204.3q1.1.35 7 1.9l2.4-6.75q1.3-3.95 1.9-6.85.55-2.8-.75-5.1-1.25-2.15-3.35-2.65-2.4-.65-4.95 1.15-2.75 1.9-3.2 5.05-2.8-1.45-5.9-.35-2.9 1.05-3.8 3.35-.75 2.05.25 4.3 1.1 2.4 3.7 3.55 2.85 1.25 6.7 2.4z" id="aG"/><path fill="url(#t)" d="M480-194.65q-.7 6.8-.75 7.05-.35 4-.2 6.95.2 2.8 2 4.65 1.65 1.7 3.8 1.7 2.4.05 4.4-2.25 2.1-2.45 1.75-5.5 3.05.7 5.75-1.1 2.55-1.75 2.85-4.1.25-2.1-1.25-4-1.65-2.05-4.4-2.5-2.8-.55-6.9-.7-4.7-.1-7.05-.2z" id="aH"/><path fill="url(#u)" d="M478-201.45q.7-3.6-1.05-6.55-1.6-2.75-4.35-3.45-3.1-.8-6.35 1.5-3.55 2.45-4.1 6.55-3.7-1.9-7.75-.45-3.85 1.35-4.95 4.35-1 2.65.35 5.55 1.4 3.15 4.8 4.7 3.55 1.5 8.7 3.05 3 .9 9 2.55l3.15-8.85q1.75-5.1 2.55-8.95z" id="aI"/><path fill="url(#v)" d="M505.85-201.5q3.55 1.55 8.9 3.15 3 .9 9.15 2.6 2.8-7.65 3.25-9.05 1.75-5.15 2.55-9.1.75-3.75-1-6.75-1.7-2.75-4.5-3.45-3.1-.85-6.5 1.5-3.6 2.5-4.15 6.7-3.75-1.95-7.9-.45-3.9 1.4-5.05 4.4-1 2.7.35 5.7 1.45 3.2 4.9 4.75z" id="aJ"/><path fill="url(#w)" d="M515.05-224.7q2.3-.65 6.95-1.9 4.05-1.15 6.75-2.4 2.6-1.15 3.7-3.6 1-2.25.2-4.25-.9-2.3-3.8-3.35-3.1-1.15-5.95.3-.4-3.15-3.1-5.05-2.6-1.75-4.95-1.15-2.1.5-3.35 2.65-1.35 2.3-.85 5.15.6 2.85 2 6.8 1.65 4.55 2.4 6.8z" id="aK"/><path fill="url(#x)" d="M465.4-174.35q-.35-2.9-2.85-4.65-2.35-1.65-4.5-1.05-1.95.5-3.1 2.45-1.25 2.1-.7 4.65.55 2.7 1.75 6.3 1.5 4.15 2.2 6.25 2.15-.6 6.4-1.8 3.7-1.1 6.1-2.15 2.4-1.05 3.45-3.3.95-2.05.25-3.9-.8-2.15-3.5-3.1-2.9-1.05-5.5.3z" id="aL"/><path fill="url(#y)" d="M488.4-231.1q1.5-3.3.4-6.25-1.3-3.35-5.6-4.9-4.6-1.65-8.75.5-.7-4.65-4.65-7.4-3.7-2.65-7.2-1.75-3.05.8-4.9 3.9-1.95 3.35-1.15 7.45.85 4.4 2.8 10.1 2.4 6.65 3.6 10l10.2-2.85q5.85-1.7 9.8-3.55 3.85-1.7 5.45-5.25z" id="aM"/><path fill="url(#z)" d="M445.3-221.75v9.35q2 .8 5 1.65 1.7.5 5.1 1.45.65-1.8 1.9-5.35 1.1-3.1 1.55-5.35.45-2.2-.6-4.05-1-1.7-2.65-2.1-1.9-.5-3.9.9-2.15 1.5-2.5 4-1.85-.95-3.9-.5z" id="aN"/><path fill="url(#A)" d="M516.1-192.05q-3.8.15-6.5.6-2.65.45-4.15 2.4-1.4 1.8-1.2 3.8.3 2.25 2.7 3.85 2.55 1.75 5.4 1.05-.25 3 1.5 4.95l9.8-4q.15-2.7-.2-6.4-.2-2.1-.7-6.45-4.45.1-6.65.2z" id="aO"/><path fill="url(#B)" d="M490.7-253.3q-.15-1.55-.45-4.75-3.2.1-4.8.2-2.75.1-4.65.45-1.9.3-3 1.7-1 1.25-.8 2.7.15 1.6 1.85 2.75 1.85 1.25 3.9.7-.2 2.1 1.2 3.8 1.35 1.55 2.95 1.55 1.45-.1 2.6-1.25 1.25-1.25 1.3-3.1.1-1.95-.1-4.75z" id="aP"/><path fill="url(#C)" d="M544.25-275.95q-.35-1.9-1.8-2.8-1.55-1.1-3.95-.45-2.5.7-3.65 2.9-1.65-1.8-4.25-1.8-2.45.05-3.7 1.5-1.1 1.3-.95 3.2.2 2.05 1.85 3.65 1.65 1.55 4.3 3.45l4.65 3.3q1.2-1.45 3.55-4.4 2.05-2.6 3.2-4.6 1.15-1.9.75-3.95z" id="aQ"/><path fill="url(#D)" d="M534.65-249.9q-1.95-.6-3.85.5-1.75 1.05-2.05 2.6-.25 1.45.7 2.75 1 1.4 2.85 1.85 1.85.45 4.6.75 1.55.15 4.65.4.25-1.55.75-4.7.4-2.65.4-4.65.05-1.85-1.1-3.2-1.05-1.2-2.5-1.25-1.6-.1-3 1.3-1.5 1.55-1.45 3.65z" id="aR"/><path fill="url(#E)" d="M544.9-213.1v-17.55q-5.65.5-8.5 1.15-2.35.55-3.6 2.4-1.2 1.7-.9 3.55.35 2.05 2.65 3.4 2.45 1.4 5 .65-.1 2.5 1.65 4.5 1.7 1.8 3.7 1.9z" id="aS"/><path fill="url(#F)" d="M531.05-205.05q-1.15 1.1-1.2 2.8-.1 2.55.55 8.5 4-.05 4.3-.1 2.45-.1 4.2-.4 1.7-.3 2.7-1.5.85-1.15.75-2.45-.15-1.45-1.7-2.45-1.65-1.15-3.5-.7.2-1.95-1.1-3.4-1.2-1.35-2.7-1.35-1.3 0-2.3 1.05z" id="aT"/><path fill="#A8240F" d="M544.9-280.65v-42.25l-99.6 40.55v42.25l99.6-40.55z" id="aU"/><path fill="#C12911" d="M462.6-250.9q-2 .55-3.55 2.15-1.6 1.65-2.3 3.95l12.25-4.95q-3.55-1.9-6.4-1.15z" id="aV"/><path fill="#C12911" d="M484.95-257.85q-2.35.1-4.15.45-1.9.3-3 1.7-1 1.25-.8 2.7l12.2-4.95q-3.25.05-4.25.1z" id="aW"/><path fill="#C12911" d="M530.4-278.1q-2.3.05-3.5 1.5-1.2 1.5-.9 3.6l8.65-3.55q-1.75-1.65-4.25-1.55m4.7 1.4l6.3-2.55q-1.55-.45-3.35.2-1.85.7-2.95 2.35z" id="aX"/><path fill="url(#G)" d="M445.35-246.15l-.1-43.9L342.2-329.3v41.6l103.15 41.55z" id="aY"/><path fill="url(#H)" d="M403.6-305.9l-18.7-7.2v141.3l18.7 7.65V-305.9z" id="aZ"/><path fill="#E4B022" d="M403.6-262.95l-18.7-7.55v5.75l18.7 7.65v-5.85z" id="ba"/><path fill="url(#I)" d="M389.7-311.15l-1.95-.8v141.3l1.95.9v-141.4z" id="bb"/><path fill="url(#J)" d="M400.8-307l-2-.85v141.75l2 .8V-307z" id="bc"/><path fill="url(#K)" d="M445.45-281.6v-5.3l-83.75-31.25 83.75 36.55z" id="bd"/><path fill="#FEFEFE" d="M356.9-301.65l1.05 1q8.6-9.7 19.5-11.95 5.1-1.05 11.35-.6 5.5.35 12.7 1.95l.4-1.45q-7.35-1.65-13.05-2-6.4-.45-11.65.6-11.5 2.3-20.3 12.45z" id="be"/><path fill="#D3D3D3" d="M309.35-274.15v1.85l30.55 23.25 25.2-33.05 1.15-14.65-.1-1.75-17.7-11.8-13.8 4.95-25.3 31.2m44.75-25.15q1 .75 1.15 2 .15 1.25-.6 2.25-.75 1.05-2 1.2-1.2.15-2.25-.6-1-.75-1.15-2-.2-1.25.6-2.25.75-1 2-1.15 1.3-.2 2.25.55z" id="bf"/><path fill="url(#L)" d="M348.3-312.2l-13.8 5-25.2 33.05 30.45 23.3 25.25-33.1 1.1-14.6-17.8-13.65m5.7 11.1q.95.75 1.1 2 .15 1.25-.6 2.25t-1.95 1.15q-1.25.2-2.2-.55-1.05-.75-1.2-2-.15-1.25.6-2.25.75-1.05 2-1.2 1.25-.15 2.25.6z" id="bg"/><path fill="#FEFEFE" d="M354.3-304.1q-1.25 1.5-1.75 3.1-.25.85 0 1.7.2.7.9 1.25.85.55 1.5.7l.35-1.5q-.7-.2-.95-.45-.15-.1-.35-.5-.1-.3 0-.85.2-.95 1.45-2.55 8.35-10.4 21.65-13.1 10-2.05 23.15.1l.25-1.5q-13.45-2.2-23.65-.1-14.05 3-22.55 13.7z" id="bi"/><path fill="#A3440D" d="M351.75-281.7q-.45-2.35-3.15-3.9-2.9-1.65-5.95-.65.05-3.2-2.3-5.55-2.25-2.2-4.7-1.95-2.2.25-3.75 2.15-1.7 2-1.6 4.85.1 3 .8 7.15.9 4.75 1.3 7.1 2.4-.3 7.2-.8 4.15-.5 7-1.3 2.75-.7 4.25-2.9 1.4-2.05.9-4.2z" id="bj"/><path fill="url(#M)" d="M548.45-287.7v-41.6L445.1-290.05l.2 43.9 103.15-41.55z" id="bk"/><path fill="url(#N)" d="M445.1-287v5.35l83.7-36.5L445.1-287z" id="bl"/><path fill="url(#O)" d="M505.8-313.1l-18.75 7.05v141.9l18.75-7.65v-141.3z" id="bm"/><path fill="#C87A18" d="M505.8-270.55l-18.75 7.5v5.95l18.75-7.65v-5.8z" id="bn"/><path fill="url(#P)" d="M502.9-311.95l-1.95.85v141.35l1.95-.9v-141.3z" id="bo"/><path fill="url(#Q)" d="M491.9-307.4l-2.05.75v141.35l2.05-.8v-141.3z" id="bp"/><path fill="url(#R)" d="M424.15-350.7q-3.5-5.75-5-7.85Q412-368.6 407.1-372.7q-6.85-5.75-13.95-4.95-3.55.4-6.45 1.9-3.5 1.8-6.9 5.6L364-352.3l24.85 27.5 50.85.25 4-13.25q-9.55 0-15-6.25-1.85-2.15-4.55-6.65z" id="bq"/><path fill="url(#S)" d="M489.35-293.2q15.25 20.6 23.05 60.45l6.55-17.3 17.7 7.85q-6-37.9-22.3-61.6-21.55-31.3-55.8-27.05l-26.2 12.55q36.35-2.75 57 25.1z" id="br"/><path fill="url(#T)" d="M509.55-267.75q-5.65-15.5-13.65-27.45-21-31.15-50.55-28l-6.7 2.9q32.05-4.1 53 25.35 15.1 21.25 22.75 56.85l1.75-4.8q-1.85-11.8-6.6-24.85z" id="bs"/><path fill="url(#U)" d="M530.05-245.05l3.65 1.55q-1.7-12.4-6.25-26.25-5.45-16.3-13.2-28.85-20.25-32.7-48.95-29l-6.7 2.9q30.15-4.35 49.9 23.85 14.6 20.85 21.55 55.8z" id="bt"/><path fill="url(#V)" d="M458.45-318.3l-26.2-12.55Q398-335.1 376.5-303.8q-16.3 23.65-22.35 61.6l17.7-7.85 6.65 17.3q7.8-39.9 23-60.45 20.6-27.85 56.95-25.1z" id="bu"/><path fill="url(#W)" d="M452.15-320.3l-6.65-2.9q-29.6-3.15-50.55 28-8.05 11.95-13.7 27.45-4.75 13.05-6.6 24.85l1.75 4.8q7.65-35.55 22.8-56.85 20.95-29.45 52.95-25.35z" id="bv"/><path fill="url(#X)" d="M432.2-324.7l-6.7-2.9q-28.65-3.7-48.95 29-7.75 12.55-13.2 28.85-4.55 13.85-6.25 26.25l3.65-1.55q7.1-35.05 21.6-55.8 19.7-28.2 49.85-23.85z" id="bw"/><path fill="url(#Y)" d="M436.6-318.75l4.45-11.65q-14.5 5.05-28.7-.1-12.45-4.55-24.05-16.65-5.85-6.1-13-7.55-7.2-1.45-11.3 2.7-5.15 5.2-2.9 14.45 2.4 9.75 11.55 16.65 10.9 8.3 33.6 7.6 18.75-.55 30.35-5.45z" id="bx"/><path fill="url(#Z)" d="M438.65-320.95l-3-5.7q-14 3.3-25.5-.65-11.15-3.8-22.1-15.1-7-7.2-13.35-8.45-5.5-1.1-8.8 2.4-3.65 3.85-1.6 10.8 2.2 7.6 10.2 13.75 10.45 8 32.65 7.5 16.4-.4 31.5-4.55z" id="by"/><path fill="url(#aa)" d="M436.75-329.1l2.8-3.25q-18.75 1.05-31.2-6.8-4.25-2.7-10.4-8.2-8.25-7.3-10.95-9.4-6.8-5.3-15-4.6l-4.05 4.55q3.85-1.65 7.4-1.25 4.5.5 10.05 4.35 3.5 2.4 9.35 8 6.05 5.7 9.55 8.2 12.6 8.9 32.45 8.4z" id="bz"/><path fill="url(#ab)" d="M409.95-360.1q2.3 2.9 7.4 10.65 4.35 6.7 7.3 9.75 4.45 4.65 9.65 6.3 2.15.65 3.55.85 1.85.3 4.2.2l4.8.3q-1.816-.214-4.7-1.85-3.55-2.05-4.85-2.25-6.6-1-13.1-9.4-7-10.5-10.45-15.15-6.1-8.15-12.55-11.8-7.1-4.05-15.45-3.1-2.15 1.5-4.25 3.6 4.95-1.1 7.55-.95 5 .3 10.95 3.9 5.25 3.2 9.95 8.95z" id="bA"/><path fill="url(#ac)" d="M504.15-375.75q-2.9-1.5-6.45-1.9-7.15-.8-14 4.95-4.9 4.1-12 14.15-6.25 10.65-9.6 14.5-5.4 6.25-15 6.25l4.05 13.25 50.8-.25 24.95-27.5-15.85-17.85q-3.45-3.8-6.9-5.6z" id="bB"/><path fill="url(#ad)" d="M515.55-354.7q-7.15 1.45-13 7.55-11.6 12.1-24.05 16.65-14.25 5.15-28.75.1l4.55 11.65q11.55 4.9 30.3 5.45 22.7.7 33.65-7.6 9.15-6.95 11.5-16.65Q532-346.8 526.8-352q-4.05-4.15-11.25-2.7z" id="bC"/><path fill="url(#ae)" d="M524.95-348.45q-3.35-3.5-8.85-2.4-6.3 1.25-13.25 8.45-11 11.3-22.15 15.1-11.55 3.95-25.55.65l-3 5.7q15.1 4.15 31.5 4.55 22.2.5 32.7-7.5 7.95-6.15 10.2-13.75 2-6.95-1.6-10.8z" id="bD"/><path fill="url(#af)" d="M522.85-356.8l-3.95-4.55q-8.25-.7-15.05 4.6-2.65 2.1-10.9 9.4-6.2 5.5-10.45 8.2-12.45 7.85-31.2 6.8l2.8 3.25q19.9.5 32.45-8.4 3.5-2.5 9.5-8.2 5.9-5.6 9.35-8 5.55-3.85 10.1-4.35 3.55-.45 7.35 1.25z" id="bE"/><path fill="url(#ag)" d="M509.3-372q-2.1-2.1-4.25-3.6-8.35-.95-15.4 3.1-6.45 3.6-12.6 11.8-6.7 10.4-10.4 15.15-6.55 8.4-13.15 9.4-1.25.2-4.85 2.25-2.884 1.636-4.75 1.85l4.85-.3q2.35.1 4.2-.2 1.4-.2 3.6-.85 5.2-1.65 9.6-6.3 2.95-3.05 7.3-9.75 5.1-7.75 7.4-10.65 4.7-5.8 9.95-8.95 6-3.6 11-3.9 2.55-.15 7.5.95z" id="bF"/><path fill="url(#ah)" d="M443.3-340.45q-5.35 0-9.2 3.7-3.8 3.7-3.8 8.9v7.95q0 1.9 1.45 3.3 1.4 1.35 3.35 1.35h20.65q1.95 0 3.35-1.35 1.4-1.4 1.4-3.3v-7.95q0-5.2-3.8-8.9t-9.15-3.7h-4.25z" id="bG"/><path fill="url(#ai)" d="M432.1-323.2q.132-4.944 3.35-8.45 3.35-3.7 8.1-3.7h3.75q4.75 0 8.1 3.7 3.218 3.506 3.35 8.45v-2.85q0-5.25-3.35-8.9-3.35-3.7-8.1-3.7h-3.75q-4.75 0-8.1 3.7-3.35 3.65-3.35 8.9v2.85z" id="bH"/><path id="bh" stroke="#E9E9E9" stroke-width="1" stroke-linejoin="miter" stroke-linecap="butt" stroke-miterlimit="4" fill="none" d="M348.05-308.3l14.45 11.25-.95 12.8-22.15 29-25.65-19.7 22.2-29 12.1-4.35z"/></defs><use xlink:href="#aj"/><use xlink:href="#ak" transform="matrix(1.09091 0 0 1.09094 -325.919 466.503)"/><use xlink:href="#al" transform="matrix(1.09091 0 0 1.09094 -325.919 466.503)"/><use xlink:href="#am" transform="matrix(1.09091 0 0 1.09094 -325.919 466.503)"/><use xlink:href="#an" transform="matrix(1.09091 0 0 1.09094 -325.919 466.503)"/><use xlink:href="#ao" transform="matrix(1.09091 0 0 1.09094 -325.919 466.503)"/><use xlink:href="#ap" transform="matrix(1.09091 0 0 1.09094 -325.919 466.503)"/><use xlink:href="#aq" transform="matrix(1.09091 0 0 1.09094 -325.919 466.503)"/><use xlink:href="#ar" transform="matrix(1.09091 0 0 1.09094 -325.919 466.503)"/><use xlink:href="#as" transform="matrix(1.09091 0 0 1.09094 -325.919 466.503)"/><use xlink:href="#at" transform="matrix(1.09091 0 0 1.09094 -325.919 466.503)"/><use xlink:href="#au" transform="matrix(1.09091 0 0 1.09094 -325.919 466.503)"/><use xlink:href="#av" transform="matrix(1.09091 0 0 1.09094 -325.919 466.503)"/><use xlink:href="#aw" transform="matrix(1.09091 0 0 1.09094 -325.919 466.503)"/><use xlink:href="#ax" transform="matrix(1.09091 0 0 1.09094 -325.919 466.503)"/><use xlink:href="#ay" transform="matrix(1.09091 0 0 1.09094 -325.919 466.503)"/><use xlink:href="#az" transform="matrix(1.09091 0 0 1.09094 -325.919 466.503)"/><use xlink:href="#aA" transform="matrix(1.09091 0 0 1.09094 -325.919 466.503)"/><use xlink:href="#aB" transform="matrix(1.09091 0 0 1.09094 -325.919 466.503)"/><use xlink:href="#aC" transform="matrix(1.09091 0 0 1.09094 -325.919 466.503)"/><use xlink:href="#aD" transform="matrix(1.09091 0 0 1.09094 -325.919 466.503)"/><use xlink:href="#aE" transform="matrix(1.09091 0 0 1.09094 -325.919 466.503)"/><use xlink:href="#aF" transform="matrix(1.09091 0 0 1.09094 -325.919 466.503)"/><use xlink:href="#aG" transform="matrix(1.09091 0 0 1.09094 -325.919 466.503)"/><use xlink:href="#aH" transform="matrix(1.09091 0 0 1.09094 -325.919 466.503)"/><use xlink:href="#aI" transform="matrix(1.09091 0 0 1.09094 -325.919 466.503)"/><use xlink:href="#aJ" transform="matrix(1.09091 0 0 1.09094 -325.919 466.503)"/><use xlink:href="#aK" transform="matrix(1.09091 0 0 1.09094 -325.919 466.503)"/><use xlink:href="#aL" transform="matrix(1.09091 0 0 1.09094 -325.919 466.503)"/><use xlink:href="#aM" transform="matrix(1.09091 0 0 1.09094 -325.919 466.503)"/><use xlink:href="#aN" transform="matrix(1.09091 0 0 1.09094 -325.919 466.503)"/><use xlink:href="#aO" transform="matrix(1.09091 0 0 1.09094 -325.919 466.503)"/><use xlink:href="#aP" transform="matrix(1.09091 0 0 1.09094 -325.919 466.503)"/><use xlink:href="#aQ" transform="matrix(1.09091 0 0 1.09094 -325.919 466.503)"/><use xlink:href="#aR" transform="matrix(1.09091 0 0 1.09094 -325.919 466.503)"/><use xlink:href="#aS" transform="matrix(1.09091 0 0 1.09094 -325.919 466.503)"/><use xlink:href="#aT" transform="matrix(1.09091 0 0 1.09094 -325.919 466.503)"/><use xlink:href="#aU" transform="matrix(1.09091 0 0 1.09094 -325.919 466.503)"/><use xlink:href="#aV" transform="matrix(1.09091 0 0 1.09094 -325.919 466.503)"/><use xlink:href="#aW" transform="matrix(1.09091 0 0 1.09094 -325.919 466.503)"/><use xlink:href="#aX" transform="matrix(1.09091 0 0 1.09094 -325.919 466.503)"/><use xlink:href="#aY" transform="matrix(1.09091 0 0 1.09094 -325.919 466.503)"/><use xlink:href="#aZ" transform="matrix(1.09091 0 0 1.09094 -325.919 466.503)"/><use xlink:href="#ba" transform="matrix(1.09091 0 0 1.09094 -325.919 466.503)"/><use xlink:href="#bb" transform="matrix(1.09091 0 0 1.09094 -325.919 466.503)"/><use xlink:href="#bc" transform="matrix(1.09091 0 0 1.09094 -325.919 466.503)"/><use xlink:href="#bd" transform="matrix(1.09091 0 0 1.09094 -325.919 466.503)"/><use xlink:href="#be" transform="matrix(1.09091 0 0 1.09094 -325.919 466.503)"/><use xlink:href="#bf" transform="matrix(1.09091 0 0 1.09094 -325.919 466.503)"/><use xlink:href="#bg" transform="matrix(1.09091 0 0 1.09094 -325.919 466.503)"/><use xlink:href="#bh" transform="matrix(1.09091 0 0 1.09094 -325.919 466.503)"/><use xlink:href="#bi" transform="matrix(1.09091 0 0 1.09094 -325.919 466.503)"/><use xlink:href="#bj" transform="matrix(1.09091 0 0 1.09094 -325.919 466.503)"/><use xlink:href="#bk" transform="matrix(1.09091 0 0 1.09094 -325.919 466.503)"/><use xlink:href="#bl" transform="matrix(1.09091 0 0 1.09094 -325.919 466.503)"/><use xlink:href="#bm" transform="matrix(1.09091 0 0 1.09094 -325.919 466.503)"/><use xlink:href="#bn" transform="matrix(1.09091 0 0 1.09094 -325.919 466.503)"/><use xlink:href="#bo" transform="matrix(1.09091 0 0 1.09094 -325.919 466.503)"/><use xlink:href="#bp" transform="matrix(1.09091 0 0 1.09094 -325.919 466.503)"/><use xlink:href="#bq" transform="matrix(1.09091 0 0 1.09094 -325.919 466.503)"/><use xlink:href="#br" transform="matrix(1.09091 0 0 1.09094 -325.919 466.503)"/><use xlink:href="#bs" transform="matrix(1.09091 0 0 1.09094 -325.919 466.503)"/><use xlink:href="#bt" transform="matrix(1.09091 0 0 1.09094 -325.919 466.503)"/><use xlink:href="#bu" transform="matrix(1.09091 0 0 1.09094 -325.919 466.503)"/><use xlink:href="#bv" transform="matrix(1.09091 0 0 1.09094 -325.919 466.503)"/><use xlink:href="#bw" transform="matrix(1.09091 0 0 1.09094 -325.919 466.503)"/><use xlink:href="#bx" transform="matrix(1.09091 0 0 1.09094 -325.919 466.503)"/><use xlink:href="#by" transform="matrix(1.09091 0 0 1.09094 -325.919 466.503)"/><use xlink:href="#bz" transform="matrix(1.09091 0 0 1.09094 -325.919 466.503)"/><use xlink:href="#bA" transform="matrix(1.09091 0 0 1.09094 -325.919 466.503)"/><use xlink:href="#bB" transform="matrix(1.09091 0 0 1.09094 -325.919 466.503)"/><use xlink:href="#bC" transform="matrix(1.09091 0 0 1.09094 -325.919 466.503)"/><use xlink:href="#bD" transform="matrix(1.09091 0 0 1.09094 -325.919 466.503)"/><use xlink:href="#bE" transform="matrix(1.09091 0 0 1.09094 -325.919 466.503)"/><use xlink:href="#bF" transform="matrix(1.09091 0 0 1.09094 -325.919 466.503)"/><use xlink:href="#bG" transform="matrix(1.09091 0 0 1.09094 -325.919 466.503)"/><use xlink:href="#bH" transform="matrix(1.09091 0 0 1.09094 -325.919 466.503)"/></svg>