<svg xmlns="http://www.w3.org/2000/svg" xmlns:xlink="http://www.w3.org/1999/xlink" preserveAspectRatio="none" width="284" height="320"><defs><linearGradient id="a" gradientUnits="userSpaceOnUse" x1="802.8" y1="506.488" x2="780.2" y2="498.713" spreadMethod="pad"><stop offset="0%" stop-color="#A6DA30"/><stop offset="100%" stop-color="#89C12D"/></linearGradient><linearGradient id="b" gradientUnits="userSpaceOnUse" x1="793.962" y1="438.912" x2="773.038" y2="479.988" spreadMethod="pad"><stop offset="0%" stop-color="#C1ED55"/><stop offset="100%" stop-color="#99CE2F"/></linearGradient><linearGradient id="c" gradientUnits="userSpaceOnUse" x1="848.987" y1="447.238" x2="791.013" y2="483.463" spreadMethod="pad"><stop offset="0%" stop-color="#A6DA30"/><stop offset="100%" stop-color="#7DB52C"/></linearGradient><linearGradient id="d" gradientUnits="userSpaceOnUse" x1="762.425" y1="462.625" x2="752.075" y2="462.275" spreadMethod="pad"><stop offset="0%" stop-color="#99CE2F"/><stop offset="100%" stop-color="#B9E942"/></linearGradient><linearGradient id="e" gradientUnits="userSpaceOnUse" x1="756.45" y1="411.375" x2="756.45" y2="480.025" spreadMethod="pad"><stop offset="0%" stop-color="#C7EF6A"/><stop offset="100%" stop-color="#DEF6A9"/></linearGradient><linearGradient id="f" gradientUnits="userSpaceOnUse" x1="700.612" y1="423.387" x2="742.487" y2="399.213" spreadMethod="pad"><stop offset="0%" stop-color="#A6DA30"/><stop offset="100%" stop-color="#C7EF6A"/></linearGradient><linearGradient id="g" gradientUnits="userSpaceOnUse" x1="775.737" y1="394.713" x2="815.862" y2="428.387" spreadMethod="pad"><stop offset="0%" stop-color="#A6DA30"/><stop offset="100%" stop-color="#C7EF6A"/></linearGradient><linearGradient id="h" gradientUnits="userSpaceOnUse" x1="674.55" y1="348.275" x2="686.95" y2="364.725" spreadMethod="pad"><stop offset="0%" stop-color="#FE3717"/><stop offset="100%" stop-color="#B82710"/></linearGradient><linearGradient id="i" gradientUnits="userSpaceOnUse" x1="678.787" y1="337.538" x2="692.813" y2="359.962" spreadMethod="pad"><stop offset="0%" stop-color="#E03014"/><stop offset="100%" stop-color="#B82710"/></linearGradient><linearGradient id="j" gradientUnits="userSpaceOnUse" x1="825.475" y1="303.188" x2="824.625" y2="351.212" spreadMethod="pad"><stop offset="0%" stop-color="#F73516"/><stop offset="100%" stop-color="#B12610"/></linearGradient><linearGradient id="k" gradientUnits="userSpaceOnUse" x1="820.912" y1="315.3" x2="833.688" y2="301.6" spreadMethod="pad"><stop offset="0%" stop-color="#B82710"/><stop offset="100%" stop-color="#F73516"/></linearGradient><linearGradient id="l" gradientUnits="userSpaceOnUse" x1="773.387" y1="337.538" x2="772.913" y2="365.462" spreadMethod="pad"><stop offset="0%" stop-color="#A8240F"/><stop offset="100%" stop-color="#791A0B"/></linearGradient><linearGradient id="m" gradientUnits="userSpaceOnUse" x1="704.737" y1="297.5" x2="723.263" y2="294.9" spreadMethod="pad"><stop offset="0%" stop-color="#E93215"/><stop offset="100%" stop-color="#FE4027"/></linearGradient><linearGradient id="n" gradientUnits="userSpaceOnUse" x1="809.975" y1="315.45" x2="796.125" y2="288.25" spreadMethod="pad"><stop offset="0%" stop-color="#E03014"/><stop offset="100%" stop-color="#FE5138"/></linearGradient><linearGradient id="o" gradientUnits="userSpaceOnUse" x1="802.063" y1="328.188" x2="806.138" y2="289.313" spreadMethod="pad"><stop offset="0%" stop-color="#A8240F"/><stop offset="100%" stop-color="#FE3717"/></linearGradient><linearGradient id="p" gradientUnits="userSpaceOnUse" x1="786" y1="279.063" x2="770.1" y2="295.538" spreadMethod="pad"><stop offset="0%" stop-color="#FC785C"/><stop offset="56.078%" stop-color="#F73516"/><stop offset="100%" stop-color="#D12C12"/></linearGradient><linearGradient id="q" gradientUnits="userSpaceOnUse" x1="773.762" y1="280.525" x2="720.538" y2="278.675" spreadMethod="pad"><stop offset="0%" stop-color="#FC785C"/><stop offset="34.902%" stop-color="#FBA186"/><stop offset="100%" stop-color="#FB8C71"/></linearGradient><linearGradient id="r" gradientUnits="userSpaceOnUse" x1="771.875" y1="285.725" x2="739.125" y2="284.575" spreadMethod="pad"><stop offset="0%" stop-color="#FBA186"/><stop offset="100%" stop-color="#FC785C"/></linearGradient><linearGradient id="s" gradientUnits="userSpaceOnUse" x1="753.925" y1="281" x2="770.575" y2="281.3" spreadMethod="pad"><stop offset="0%" stop-color="#FBDACC"/><stop offset="100%" stop-color="#FBB49C"/></linearGradient><linearGradient id="t" gradientUnits="userSpaceOnUse" x1="765.825" y1="282.45" x2="774.075" y2="282.15" spreadMethod="pad"><stop offset="0%" stop-color="#F73516"/><stop offset="100%" stop-color="#E03014"/></linearGradient><linearGradient id="u" gradientUnits="userSpaceOnUse" x1="763.788" y1="285.813" x2="739.913" y2="284.987" spreadMethod="pad"><stop offset="0%" stop-color="#FE3717"/><stop offset="100%" stop-color="#FD6449"/></linearGradient><linearGradient id="v" gradientUnits="userSpaceOnUse" x1="756.837" y1="286.225" x2="751.962" y2="281.175" spreadMethod="pad"><stop offset="0%" stop-color="#FD6449"/><stop offset="100%" stop-color="#FBC7B2"/></linearGradient><linearGradient id="w" gradientUnits="userSpaceOnUse" x1="762.125" y1="287.313" x2="758.875" y2="288.087" spreadMethod="pad"><stop offset="0%" stop-color="#E93215"/><stop offset="100%" stop-color="#B12610"/></linearGradient><linearGradient id="x" gradientUnits="userSpaceOnUse" x1="790.963" y1="326.95" x2="782.438" y2="305.85" spreadMethod="pad"><stop offset="0%" stop-color="#FE4027"/><stop offset="100%" stop-color="#FD6449"/></linearGradient><linearGradient id="y" gradientUnits="userSpaceOnUse" x1="737.875" y1="289.537" x2="750.725" y2="289.762" spreadMethod="pad"><stop offset="0%" stop-color="#FD6449"/><stop offset="100%" stop-color="#F13416"/></linearGradient><linearGradient id="z" gradientUnits="userSpaceOnUse" x1="762.35" y1="304.313" x2="762.95" y2="287.288" spreadMethod="pad"><stop offset="0%" stop-color="#FBC7B2"/><stop offset="100%" stop-color="#FC785C"/></linearGradient><linearGradient id="A" gradientUnits="userSpaceOnUse" x1="739.325" y1="308.5" x2="740.575" y2="272.7" spreadMethod="pad"><stop offset="0%" stop-color="#FBA186"/><stop offset="100%" stop-color="#F73516"/></linearGradient><linearGradient id="B" gradientUnits="userSpaceOnUse" x1="784.013" y1="306.563" x2="760.487" y2="305.737" spreadMethod="pad"><stop offset="0%" stop-color="#FC785C"/><stop offset="34.902%" stop-color="#FB8C71"/><stop offset="100%" stop-color="#FBA186"/></linearGradient><linearGradient id="C" gradientUnits="userSpaceOnUse" x1="696" y1="343.325" x2="701.7" y2="363.175" spreadMethod="pad"><stop offset="0%" stop-color="#A8240F"/><stop offset="100%" stop-color="#911F0E"/></linearGradient><radialGradient id="D" gradientUnits="userSpaceOnUse" cx="0" cy="0" r="76.75" fx="0" fy="0" gradientTransform="matrix(1 0 0 -1 758.85 366.55)" spreadMethod="pad"><stop offset="0%" stop-color="#FC785C"/><stop offset="32.941%" stop-color="#FD6449"/><stop offset="67.843%" stop-color="#F73516"/><stop offset="100%" stop-color="#A8240F"/></radialGradient><linearGradient id="E" gradientUnits="userSpaceOnUse" x1="739.1" y1="399.387" x2="739.1" y2="355.713" spreadMethod="pad"><stop offset="0%" stop-color="#FE4027"/><stop offset="100%" stop-color="#FE5138"/></linearGradient><linearGradient id="F" gradientUnits="userSpaceOnUse" x1="710.1" y1="293.637" x2="688.1" y2="330.262" spreadMethod="pad"><stop offset="0%" stop-color="#CA2B11"/><stop offset="100%" stop-color="#FE3717"/></linearGradient><linearGradient id="G" gradientUnits="userSpaceOnUse" x1="778.025" y1="328.9" x2="709.375" y2="314.3" spreadMethod="pad"><stop offset="0%" stop-color="#FBA186"/><stop offset="100%" stop-color="#FE4027"/></linearGradient><linearGradient id="H" gradientUnits="userSpaceOnUse" x1="819.863" y1="338.775" x2="761.038" y2="336.725" spreadMethod="pad"><stop offset="0%" stop-color="#B82710"/><stop offset="29.804%" stop-color="#F13416"/><stop offset="100%" stop-color="#FE5138"/></linearGradient><linearGradient id="I" gradientUnits="userSpaceOnUse" x1="751.638" y1="343.413" x2="701.862" y2="338.188" spreadMethod="pad"><stop offset="0%" stop-color="#FE3717"/><stop offset="67.059%" stop-color="#E03014"/><stop offset="100%" stop-color="#B82710"/></linearGradient><linearGradient id="J" gradientUnits="userSpaceOnUse" x1="719" y1="390.163" x2="741.2" y2="390.538" spreadMethod="pad"><stop offset="0%" stop-color="#B82710"/><stop offset="100%" stop-color="#F13416"/></linearGradient><linearGradient id="K" gradientUnits="userSpaceOnUse" x1="765" y1="313.225" x2="734.4" y2="308.375" spreadMethod="pad"><stop offset="0%" stop-color="#FD6449"/><stop offset="100%" stop-color="#F13416"/></linearGradient><linearGradient id="L" gradientUnits="userSpaceOnUse" x1="693.163" y1="297.913" x2="712.637" y2="313.688" spreadMethod="pad"><stop offset="0%" stop-color="#FE533A"/><stop offset="100%" stop-color="#FB9277"/></linearGradient><linearGradient id="M" gradientUnits="userSpaceOnUse" x1="713.688" y1="376.925" x2="707.013" y2="396.275" spreadMethod="pad"><stop offset="0%" stop-color="#E03014"/><stop offset="40%" stop-color="#FE3717"/><stop offset="100%" stop-color="#FB8C71"/></linearGradient><linearGradient id="N" gradientUnits="userSpaceOnUse" x1="837.925" y1="378.65" x2="789.475" y2="376.95" spreadMethod="pad"><stop offset="0%" stop-color="#B82710"/><stop offset="100%" stop-color="#F13416"/></linearGradient><linearGradient id="O" gradientUnits="userSpaceOnUse" x1="794.9" y1="378.575" x2="815.2" y2="378.225" spreadMethod="pad"><stop offset="0%" stop-color="#D12C12"/><stop offset="100%" stop-color="#C12911"/></linearGradient><linearGradient id="P" gradientUnits="userSpaceOnUse" x1="723.65" y1="301.825" x2="755.35" y2="317.975" spreadMethod="pad"><stop offset="0%" stop-color="#FBA186"/><stop offset="100%" stop-color="#FBC7B2"/></linearGradient><linearGradient id="Q" gradientUnits="userSpaceOnUse" x1="729.663" y1="352.55" x2="730.238" y2="335.75" spreadMethod="pad"><stop offset="0%" stop-color="#FE3717"/><stop offset="100%" stop-color="#FB8C71"/></linearGradient><linearGradient id="R" gradientUnits="userSpaceOnUse" x1="795.538" y1="347.438" x2="796.262" y2="326.763" spreadMethod="pad"><stop offset="0%" stop-color="#FE3717"/><stop offset="100%" stop-color="#FB8C71"/></linearGradient><linearGradient id="S" gradientUnits="userSpaceOnUse" x1="728.95" y1="392.637" x2="709.95" y2="391.963" spreadMethod="pad"><stop offset="0%" stop-color="#FBB49C"/><stop offset="100%" stop-color="#FB8C71"/></linearGradient><linearGradient id="T" gradientUnits="userSpaceOnUse" x1="751.9" y1="335.675" x2="713.7" y2="332.325" spreadMethod="pad"><stop offset="0%" stop-color="#FBC7B2"/><stop offset="100%" stop-color="#FB8C71"/></linearGradient><linearGradient id="U" gradientUnits="userSpaceOnUse" x1="816.4" y1="330.488" x2="818.8" y2="340.113" spreadMethod="pad"><stop offset="0%" stop-color="#FD6449"/><stop offset="100%" stop-color="#F73516"/></linearGradient><linearGradient id="V" gradientUnits="userSpaceOnUse" x1="751.9" y1="338.4" x2="751.7" y2="349.8" spreadMethod="pad"><stop offset="0%" stop-color="#FD6449"/><stop offset="100%" stop-color="#F73516"/></linearGradient><linearGradient id="W" gradientUnits="userSpaceOnUse" x1="719.638" y1="478.512" x2="740.063" y2="471.887" spreadMethod="pad"><stop offset="0%" stop-color="#A6DA30"/><stop offset="100%" stop-color="#89C12D"/></linearGradient><linearGradient id="X" gradientUnits="userSpaceOnUse" x1="724.737" y1="422.4" x2="741.063" y2="453.1" spreadMethod="pad"><stop offset="0%" stop-color="#D5F394"/><stop offset="100%" stop-color="#A6DA30"/></linearGradient><linearGradient id="Y" gradientUnits="userSpaceOnUse" x1="688.813" y1="432.175" x2="732.987" y2="458.725" spreadMethod="pad"><stop offset="0%" stop-color="#A6DA30"/><stop offset="100%" stop-color="#7DB52C"/></linearGradient><linearGradient id="Z" gradientUnits="userSpaceOnUse" x1="746.087" y1="463.75" x2="731.212" y2="433.25" spreadMethod="pad"><stop offset="0%" stop-color="#C1ED55"/><stop offset="100%" stop-color="#DEF6A9"/></linearGradient><path fill="#FFF" fill-opacity="0" d="M0 320h284V0H0v320z" id="aa"/><path fill="url(#a)" d="M823.35 510.95q-5.3-5.7-7.4-7.95-8.35-8.85-18-11.4-8.6-2.3-14.7 1.05-6.7 3.7-5.9 10.35.8 7.1 10.25 11.4 8.6 3.9 18.05 3.15 10-.8 17.7-6.6z" id="ab"/><path fill="url(#b)" d="M768 462.75q-3.7 7.2-2.45 12.55 1.1 4.7 5.5 6.7 11.4 5 19.25-8.85 2.9-5.2 4.7-12 1.55-5.9 1.6-10.25 0-8.5.05-9.8-9.35.95-17.15 7.2-7 5.65-11.5 14.45z" id="ac"/><path fill="url(#c)" d="M836.65 447.1q-10.4.1-20.3 3-10.75 3.15-17.55 8.85-7.7 6.4-8.9 14.9-.6 4.35 1.45 8.05 2 3.5 5.8 5.4 9.55 4.75 23.7-2.6 11.55-6 19.5-15.6 2.45-2.95 6.05-8.35 5.9-8.9 7.35-11-6.8-2.7-17.1-2.65z" id="ad"/><path fill="#C1ED55" d="M775.4 471.8q5-12.9 17.8-26.85-13.6 11.3-19.85 28.25-4.25 11.65-5.9 29.8l3.05-3.8q.5-16.25 4.9-27.4z" id="ae"/><path fill="#C1ED55" d="M772.05 497.9l-2.15 2.45q22.55-3.35 47.35 10-18.5-13.4-45.2-12.45z" id="af"/><path fill="#A6DA30" d="M757.8 515.25l3 .7-.05.4q4.45-15.2 29.3-34 26.35-19.95 58.9-30.55-33.1 8.05-59.9 27.35-25.35 18.25-31.25 36v.1z" id="ag"/><path fill="url(#d)" d="M766.65 391.05q-8.85 0-17.1-.3 3.15 19.7 4.2 60.8 1.05 38.15 0 82.5 5.7 0 9.8.15-3.05-37.8-1.95-78.2.95-37.2 5.05-64.95z" id="ah"/><path fill="url(#e)" d="M759.1 393.55l-5.3-.05 3.35 93.65 1.95-93.6z" id="ai"/><path fill="#599227" d="M758.65 531.65q-2-.05-3.4.5-1.45.5-1.5 1.25 0 .7 1.4 1.25t3.4.6q2 .1 3.45-.45 1.4-.5 1.4-1.25.05-.7-1.35-1.25-1.4-.55-3.4-.65z" id="aj"/><path fill="#99CE2F" d="M761.45 403.8l-15.75-6.9q-4.3-.8-9.95.55-5.6 1.35-9.7 4.1-3.85 2.55-8.35 6.7-5.15 4.8-6.8 6.05-8.1 6.1-22.55 6.25 12.15 2.3 20.65.45 9.6-2.1 17.9-10.1 5.75-5.6 16.1-6.9 5.6-.75 18.45-.2z" id="ak"/><path fill="#99CE2F" d="M799.75 410.25q-8.35-4.35-12.3-7.15-7.05-4.85-7.35-10.75l-17 7q3.9 6.25 13.3 10.2 4.85 2 18.05 5.4 7.25 1.95 9.85 3.6 5.9 3.6 8.9 11.8-1.9-8-4.4-11.85-2.75-4.35-9.05-8.25z" id="al"/><path fill="url(#f)" d="M741.65 392.85q-4.4-.75-11.2 1.7-6.95 2.6-11.4 6.8-3.1 3-6.8 7.75-3.6 4.65-5.25 6.2-6 5.5-19.5 5.2 13.85 1.75 20.75-.15 6.85-1.9 16.25-10.1 6.9-5.95 16.4-7.8 7.15-1.35 18.25-.6l-17.5-9z" id="am"/><path fill="url(#g)" d="M798.3 405.1q-7.4-4.85-8.45-5.85-3.85-3.65-4.15-9.2l-19.35 8.65q3.7 5.95 13.25 9.5 5.5 2.05 17.55 5.45 5.95 2.1 8.35 4.05 4.65 3.7 7.7 12-1-10.15-4.65-15.6-2.8-4.15-10.25-9z" id="an"/><path fill="#FD6449" d="M697.65 283.05q-2.75 3.35-7.35 5.55-1.9-.5-2.65 2.45-.85 3.55.05 7.5.4 1.85 2.4 7.2 3.05 7.95 3.3 9.7.45 2.1 2.6 4.75 2.9 3.55 3.25 4.1.95 1.6 1.55 3.6.35 1.3.75 1.3 2 .05 8.4.75 5.9.35 8.1-.95 6.9-4.25 10.45-21.35 3.55-17-.9-23.5-1.25-2-2.35-4.15-1.45-2.9-1.4-4-2.7.45-6.3-.1-3.4-.55-6.3-1.8-2.95-1.3-4.3-1.15-1.4.1-2.3 1.8-.5 1-.7 1.35-.35.55-1.05 1.05-1.25.8-1.45 2.1-1.5 0-2.35 1.05-.15.25-.6 1.3-.4.9-.85 1.45z" id="ao"/><path fill="url(#h)" d="M670.6 339.5l-6.85-.6q-3.3.45-4.3 2.05-1.2 1.75-.05 3.65.85 1.4 2.75 2.55 1.75 1 4.1 1.35 1.35.2 4.55.3 1.65.05 2.7 1 .9.85 1.6 2.75.65 1.55 2.15 2.65.9.65 3 1.9 4.35 2.9 6.85 9.9l2.95-1.65-3.4-17.5-16.05-8.35z" id="ap"/><path fill="url(#i)" d="M678.95 337.35q-9.95-.2-16.15 1.8 9.75 1.1 17.75 10.4 7.8 9.1 8.55 19.4.15 2.1 3.55 2.05 3.65-.05 5.75-3.55 4.75-8.1 4.4-15.1-.35-8-7.6-11.85-5.5-2.9-16.25-3.15z" id="aq"/><path fill="url(#j)" d="M823.4 300.75q-5.4 2.75-9.4 8.8l-14.9 53.55 17.7 11.15 33.05-16.85q.15-4.4-4.85-11.95-6.15-9.2-8.3-17.1-1.2-4.4-.9-13.5.3-9.7-.35-12.95-.5-2.6-1.05-3.15-.65-.65-2.95-.35-4.65.6-8.05 2.35z" id="ar"/><path fill="url(#k)" d="M825.5 310.4q2.1-9.95 8.4-12-4.55-1.75-11.95 2.7-6.35 3.8-9.1 8l-3.25 16.15q3.55 2.9 8.85 3.5 2.6.25 4.05-.35 1.85-.9 1.9-3.4.15-10 1.1-14.6z" id="as"/><path fill="url(#l)" d="M777.4 388.55q-.434.391-.6.75-.5 1 1.1 1.5 1.55.5 2.15-.1.7-.65-1.55-2.15h-1.1m10.25-47.25l-5.25.85-.15 4.85-24.4 5.9-13.4.55-27.8-8.35 42.65 43.95 18.1-.5q1.145-.922 4.15-1.9 3.45-1.15 4.5-2.3 1.6-1.7 4.2-3.1.8-.5 7.25 1.25l6.95 1.8q6.95-3.25 10.85-11.25 2.75-5.6 4.85-15.95 2.7-13.4 3.4-15.65 2.35-7.8 6.5-10.45l-22.9 2.3-2.45 8.5-5.6-1.2-11.45.7z" id="at"/><path fill="url(#m)" d="M696.7 282.2q3.7 3.3 9.35 14.45 5.35 10.55 6.6 16.2l16.05-6.05-4.1-21q-8.2-.35-13.35-.75-9.5-.7-14.55-2.85z" id="au"/><path fill="#A8240F" d="M819.55 329.65q2.1-5.8 1.9-14.1-.2-7.9-2.25-13.55l-11.95 28.3 12.3-.65z" id="av"/><path fill="url(#n)" d="M788.8 276.2q0 1.1-1.55 3.95-1.25 2.25-2.55 4.05-4.65 6.4-1.8 23.5 2.85 17.25 9.6 21.8 2.15 1.35 8.05 1.2 3.15-.1 8.35-.4.45.05.9-1.25.6-2 1.6-3.5.35-.5 3.45-4 2.25-2.5 2.75-4.6.45-1.95 3.75-9.65 2.15-5.05 2.7-7.05 1.05-3.85.35-7.5-.5-2.95-2.55-2.6-4.15-2-7.1-5.75-.45-.55-.8-1.45-.4-1.05-.6-1.35-.75-1.2-2.3-1.2 0-1.15-1.3-2.2-.65-.45-1-1.05-.35-.75-.65-1.3-.85-1.75-2.25-1.95-1.35-.2-4.35 1-2.9 1.15-6.35 1.5-3.6.4-6.35-.2z" id="aw"/><path fill="url(#o)" d="M805.75 286.6q-2.05-1.7-7.15 3.8-1.85 2.05-5.95 7.5l3.05 33.95 10.55-1.05q-.1-8.7 3.15-17.65 3.2-8.8 8.35-14.35-3.5 1.65-5.9 4.25-2.25 2.4-3.1 5.25.15-5.45 1.9-9.95 1.1-2.9 3.35-6.15-2.45.65-5.25 3.8-2.3 2.6-2.75 2.6-.6-.05-.85-3.55-.2-1.8.6-5 .6-2.95 0-3.45z" id="ax"/><path fill="#FBB49C" d="M734 275.8q-.35-.35-1-2.8-.75-2.65-1.05-3.15-1.6-2.55-4-3.6-1.95-.9-5.4-1.05-2.6-.15-4.5-1.25-.8-.45-1.3-.15-.45.3-.5 1.05 0 .8-.3 1.25-.3.5-1.15 1.1-2.15 1.45.7 5.1l2.75 3.1 5.4 3.6 10.35-3.2z" id="ay"/><path fill="url(#p)" d="M766.5 260.85q-2.85-1.6-6.9-1.5-1.7 0-4.55 1.1-3.15 1.2-4.4 1.35-1.3.2-6.1-.1-3.25-.25-7.7 1.55-1.75-3.2-6.8 3.1-5 6.2-4.3 9.7l-2.55 18.5L769.8 307l19.3 21.85 8.85 6.75q2.45.05 2.9-1.6.85-3.05 1.05-3.35.55-2.1 1.5-3.9.5-.95 1.45-2.6 1.05-2 .85-4-.05-.8-.75-3.05-.5-1.35.35-3.3 1.4-3.35-.15-6.65-.75-1.45-1-2.45-.3-1.15-.2-2.8.45-5.55-1.6-11.45-2.75-7.95-7.75-13.3-5.65-6.05-11.55-5.4-1.6-.55-2.5-1.1-4.25-1.85-9.1-5.95-3.45-3.05-4.95-3.85z" id="az"/><path fill="url(#q)" d="M766.5 260.85q-2.85-1.6-6.9-1.5-1.7 0-4.55 1.1-3.15 1.2-4.4 1.35-1.3.2-6.1-.1-3.25-.25-7.7 1.55-1.75-3.2-6.8 3.1-5 6.2-4.3 9.7l-2.55 18.5 20.85 5.65q3.3-.95 6.3-2.75 5-3 16.45-7.7 9.45-4.9 11.8-12.55 1.15-4.15 5.75-5.55l-1.3.1q-3.4-1.25-6.25-3.05-2.45-1.55-5.35-4-3.45-3.05-4.95-3.85z" id="aA"/><path fill="#FBC7B2" d="M736.45 285.65l2.6.8-.15-7.15q-2.3-1.7-3.15-2-1.4-.55-2.1-.05-.7.55.3 1.6l2.5 6.8z" id="aB"/><path fill="url(#r)" d="M738.95 291.6q.15.5 1.55 4 1 2.45 6.4 3.6 5.05 1.05 11.7.6 6.8-.4 11.8-2.15 5.55-1.9 6.7-4.8 1.65-4.45 2.65-6.85 1.7-4.25 3.1-6.25 1.6-2.45-1.9-3.55-3.3-1-5.55.15-1.6.9-3 .55-.75-.15-2.45-1.2-2.55-1.6-4.45-1.3-3.2.55-4.6.35-1.8-.2-5.3-2.35-2.9-1.8-4.9-2.2-2.35-.45-5.3.6-3.35 1.2-5.6 3.6-2.3 2.5-2.5 6.15-.15 1.95.6 6.9.3 2 1.05 4.15z" id="aC"/><path fill="url(#s)" d="M749.2 281.4q0 .9 4.95 1.7 5.55.9 5.65.95 3.85 2.2 7.85 3 5.5 1.2 7.65-1.55 1.55-2.05.7-4.3-.85-2.35-3.3-1.7-1.8.45-4.25-2.05-2.3-2.35-5.9-.8-1.85.8-2.75.85-1.8.15-3.95-1.15-4.1-2.4-9.45-1.1l2.8 6.15z" id="aD"/><path fill="url(#t)" d="M763.55 280.75q-.25 0 .25.85.3.45.65.95 1.85 2.45 3.7 2.8 3.6.5 5.15.35 3.25-.3 3-2.85-.3-3.25-2.75-4-2.1-.7-4.4.65-1.75 1.1-2.55 1.25-.9.2-3.05 0z" id="aE"/><path fill="url(#u)" d="M740.95 287.15q.8.45 3.75 4 2.5 3.1 5.25 3.7 8.15 1.85 14.15.85 8.7-1.4 8.85-8.7.05-2.9-1.05-4.55-.95-1.35-2.3-1.4-.35 0-3 .5-1.75.35-2.85-.65-1.3-1.25-3.45-.75-2.5.5-3.55-.05-.9-.45-3.35-2.55-2.2-1.85-3.75-2.35-2.15-.7-4.25.5-1.9 1.1-2.9 3.25-1.45 3.3-1.55 8.2z" id="aF"/><path fill="url(#v)" d="M761.8 284.2q-.4-.8-.5-.95-1.05-.45-2.25-.1-1.75.45-2.3.45-.5 0-.95-.35-.55-.4-.85-.5-3.25-1.45-4.35 1.3-.6 1.35.05 2.9.6 1.55 2 2.05 4.15 1.4 6.35.15 1.65-.9 2.3-1.5.85-.95.85-2.3.05-.35-.35-1.15z" id="aG"/><path fill="url(#w)" d="M753.65 286.95q.25.55 1.2 2.8.9 1.75 4.3 2.05 3.5.35 4.4-1.55 1.05-2.25-.45-4.9-1.7-2.15-1.7-2.1.4 2.65-2.6 3.65-2.6.85-5.15.05z" id="aH"/><path fill="url(#x)" d="M793.4 312.2q-1.7-2.15-2.3-3.15-2.3-5.35-3.85-7.9-2.75-4.55-7.2-4.65l-6.45 8.65 9.9 26.7 13.45 2.8q-.05-2.25-.05-3.1.05-1.35.7-3.05.95-2.1 1.15-3.05.45-1.75-.45-3.75-.8-1.75-2.3-3.15-.6-.55-.85-1-.35-.7-.35-1.95.05-1.45-1.4-3.4z" id="aI"/><path fill="url(#y)" d="M733.65 278.3l2.4 12.5 4.95 5.8 8.7 4.3 14-11.8q-.55 0-1.4-.65-.85-.65-1.3-.65-3.6-.05-4.35-.15-2.25-.25-4.2-1.3-1.45-.75-3.1-.8-.95-.05-3 .25-2.25.2-3.6.05-1.8-.25-3.35-1.2-3.15-2-5.75-6.35z" id="aJ"/><path fill="url(#z)" d="M768.3 285.45q-1.85 1.35-2.6 1.7-1 .45-5.2.55-4.2.15-7.05 1.45-1.6.8-2.75 2.1-1.25 1.45-1.55 3.1l15.25 14.45 11.3-11.8q0-1.55-1-3.45-.8-1.3-.7-2.85.1-1.45 1-2.75 2.25-3.2 1.3-5.55.15 1.15-1.65 1.55-2.25.2-3.05.3-2.15.35-3.3 1.2z" id="aK"/><path fill="url(#A)" d="M735.9 288.7q-3.55-2.05-6.55-6.9-.45-.7-1.8-3.9-1.05-2.45-2.15-3.15-1.05-.65-2.7-.8-3.65-.25-4.35-.45-2.05-.45-3.55-2.1 4.25 7 5.25 14.65.9 6.85-.35 19.4l37.5 20.2 8-18.9q-3.7-4.95-9.3-9.4-5.2-4.1-8.05-4.75-8.45-1.85-11.95-3.9z" id="aL"/><path fill="url(#B)" d="M782.45 280.3q-1.25 1.6-4.05 6.5-2.95 5.2-4.7 7.55-8.45 11.25-19.8 20.8 1.7 2.55 5.5 7.7 3.75 5.15 5.45 7.7 9.35.9 28.7 2.55-8.65-16.75-11.45-29.5-3.05-13.55.35-23.3z" id="aM"/><path fill="#FC785C" d="M754.6 316.65q8.25-8.45 13.1-14.3 6.5-7.85 10.65-15.4-11 15.4-26.9 28.65l3.15 1.05z" id="aN"/><path fill="#FBC7B2" d="M732.6 288.4q3.7 3.65 10.8 4.1 4.55.2 7.7 1.55-2.75-1.8-8.2-3.45-10.85-2.9-15.6-12.75 2.05 7.3 5.3 10.55z" id="aO"/><path fill="url(#C)" d="M711.9 367.65q1.05-10.85-4.45-17.35-2.8-3.25-14.05-10.45-4.25-2.5-5.8-2.8-.25 10.05.65 16.35 1.2 8.8 4.85 15.2.8 1.45 2.75 3.5 1.05 1.1 3.2 3.3 4.15 4.7 8.4 1.35 3.85-3.05 4.45-9.1z" id="aP"/><path fill="url(#D)" d="M722.5 342.3l-27.8-8.4 6.15 43.25 37.35 21.95q5.3 3.55 15.1 4.45 10.5.9 19.4-2.05 3.8-1.25 9.5-4.65 3.2-1.9 9.25-5.6.6-.3 4.55-3.8 3.7-3.25 4.2-3.25 6.9-3.25 10.7-11 2.55-5.3 4.6-15.45 2.4-11.95 3.5-15.15 2.55-7.45 7.3-10.1l-23.45.65-20.1-2.5-5.6-1.3-11.45.8-5.25.85-.15 4.75-24.4 6-13.4.55z" id="aQ"/><path fill="#FE3717" d="M795.3 348.85q1.5 15.8-6.85 44.15l3-1.75q.15-.05 2.05-1.55 5.15-25.9 1.8-40.85z" id="aR"/><path fill="url(#E)" d="M738.4 399.25q2.1 1.3 5.1 2.4-9.15-31.9-7.25-48.4-4 16.95 2.15 46z" id="aS"/><path fill="#F73516" d="M726.45 352.95q-2.65 9.85 1 26.1 2.65 11.75 5.35 16.9l3.05 1.65q-.595-.459-2.35-4.8-2.05-5.25-3.8-11.6-4.95-17.85-3.25-28.25z" id="aT"/><path fill="url(#F)" d="M681.15 283.05q-2 2.85-2.3 9.7-.5 10.35-.55 10.6-1 6.75-4.05 17.3-1.7 5.5.15 7.8 1.4 1.75 6.4 2.85 4.1.9 4.85 1.65.95.9 1.55 5.05.85 5.5 5.7 14.65 4.85 9.05 5.85 16.15 2.15 2.4 2.15 1 .2-6.15-1.25-15.6-1.8-10.5-2.5-15.35-.55-3.6 1.6-3.65 2.45-.1 2.5-3.6l9-9.45.35-17.35q-1.35-4.35-6.1-12.2-5.45-9.05-10.5-13.95-2.8-2.7-3-2.85-1.7-1.35-3.05-1.2-2.3.35-4.4 2.4-2.2 2.2-.1 3.25-.6 1-.95 1.5-.7.9-1.35 1.3z" id="aU"/><path fill="url(#G)" d="M720.05 296.15q-1.6-.8-4.1-.3-6.2 1.2-7.25 5.4-.5 2.1.5 7.95.15.9.05 3.35-.2 4.05-2 3.4-1.85-.75-.3-3.45.7-1.2.8-2.55.05-1.6-.75-2.85-2.65-4.15-10.3-5.2 4.85 3.75 6.65 13.3 1.95 10.25-2 17.95l53.75 9.35 9.1-11.95 28.05 3.7Q788 331 784.8 324.8q-2.1-4.15-3.15-4.85-1.7-1.2-6 .05-1.55.35-2.85.35-2.1 0-5.25-.65l-3.45-1-5.55-.65-14.5-5.05-9.3-7.05-6.9-3.9-4.75-4.05q-2.1-1.35-3.05-1.85z" id="aV"/><path fill="url(#H)" d="M770.25 335.3q.4-.9 1 0 .8 1.35 2 .5 3.1-2 5.75-1.2 1.55.55 2.9 1.7.4.4 2.45 2.6 2.15 2.3 3.2 3.2 2 1.8 3.85 2.6 1.8.75 4.15.7 1.55 0 4.3-.5 2.4-.45 5.5-.8 1.55-.15 4.65.45 1.85.25 3.4.1 2.2-.25 5.35-1.25 2.6-8.15 7.55-10.9l-23.25.65q-5.45.9-14.15.35-2.65-.1-5.65-1.9-2.95-1.75-5.75-1.8-3.75-.2-9.3.1l-7.45 1.05q-.4.25-.25 2.05.15 1.8-.15 2.05 1 .15 1.85 1.15 1.05 1.2 1.65 1.55.95.6 2.25.55 1.4-.05 2.55-.95 1.2-1 1.6-2.05z" id="aW"/><path fill="url(#I)" d="M722.5 342.3l-23.4-7.15q-1.75 2.9-1.35 4.8.3 1.65 2.05 2.3.35 3.6 10.1 5.65 8.55 1.85 21.1 1.95 9.9.1 18.7-.8 8.6-.9 10.6-2.15 2.95-1.85 1.85-5.35-1.8-5.9-1.8-6.45h-.05v.65l-24.4 6-13.4.55z" id="aX"/><path fill="url(#J)" d="M712.25 380.65q-4.7 2.8-7.9 2.9 3.2 8.6 13.35 13.5 10.4 5 23.8 3.8.55-7.2-7.7-13.55-5.55-4.2-12.75-6.75-5.35-1.9-8.8.1z" id="aY"/><path fill="url(#K)" d="M723.6 300.8q1.7 3.8 4.6 4.05 1.2.1 1.75.65.5.5.9 1.8.35 1.1.45 1.35.35.7 1 1.2.7.5 3 .95 1.4.25 2.3 2.25 1.2 2.6 2.75 3.7 1.85 1.3 5.2 1.35 1.65.1 3.65.65 2.4.65 3.7 1.65 1.2.9 2.2 1.25 1.65.55 3.6 0 4.95-1.35 5.25-1.4 3.25-.65 5.35 0-3.8-1.5-9.65-2.8-6.35-1.4-9.5-2.5-7.85-2.85-16.7-9.8-8.903-7.026-13.4-9 1.814.904 3.55 4.65z" id="aZ"/><path fill="url(#L)" d="M704.55 305.15q3.75 2.45 2.85 6.4 1.4-2.9.05-5.4-1.2-2.15-4.25-3.75-3.6-2-7.7-2.15-1.75-.05-2.1 1.05-.35 1.05 1 1.5.65.1 3.4.2 3.85.25 6.75 2.15z" id="ba"/><path fill="url(#M)" d="M683.7 365.5q.35 1.35 1.8 2.5 2.4 1.9 7.25 9.8 3.7 6.05 6.5 5.45 1.15 1.25 4.4 5.4 3.3 3.9 6.2 5.5 5.1 2.85 10.3 2.3 5.45-.55 8.3-4.7 1.3-1.85 3.15-1.85 1.4-.05 3.65 1.1 1.95 1 3.65 2.85 1.55 1.7 2.25 3.3-.75-9.8-19.25-18.8-2.05-1-5.9-2.6-4.15-1.75-5.9-2.55-11.3-5.4-13.95-6.8-3.6-2.35-5.95-3.4-4.35-1.95-6.2.45-.6.9-.3 2.05z" id="bb"/><path fill="#B82710" d="M794.55 391.2q-3.95-.55-5.95-.7-3.4-.35-6.4.6-3.15 1-6.2 3.65-3.95 3.45-3.8 7.1 6.5.85 13.7-2.8 6.8-3.45 8.65-7.85z" id="bc"/><path fill="url(#N)" d="M793.2 379.3q-10.05 5.65-14.35 9.6-6.2 5.65-6.75 12.35 1.5-3.6 7.95-5.85 5.35-1.9 9.2-1.7 3.85.2 8.25-2.05 1.5-.75 2.15-.65.9.15 1.7 1.7 2.15 4.4 5.55 3.75 3.2-.65 6.45-5.45 4.15-6.25 12.9-13.5 5.85-4.9 11.8-8.75 3.85-2.45 7.15-5.35 6.8-5.85 3.8-8.4-2.95-2.6-12.1.75-.05 0-7.1 2.75-3.35 1.3-5.2 1.65-7.45 1.45-9.15 1.95-4.6 1.4-7.7 4.2-.5.4-6.3 6.5-3.95 4.1-8.25 6.5z" id="bd"/><path fill="url(#O)" d="M790.45 380.9q6.95-2.15 13.5-3.15 8.45-1.3 13.75-.25-9.45-2.85-21.4-.15-.6.6-3.1 1.95l-2.75 1.6z" id="be"/><path fill="url(#P)" d="M723.55 300q2.05 3.05 5.05 3.3 1.25.05 1.8.65.5.45.9 1.8.3 1.05.4 1.3.35.7 1 1.1.75.55 3 1.05 1.45.3 2.35 2.3 1.2 2.55 2.75 3.65 1.85 1.35 5.15 1.4 1.6 0 3.7.6 2.35.7 3.65 1.7 1.3.9 2.25 1.2 1.65.5 3.6 0 5.05-1.4 9.5.1-7.75-3.15-18.05-6.8-7.85-2.85-17-9.05-9.348-6.313-13.75-8.25 1.614.822 3.7 3.95z" id="bf"/><path fill="url(#Q)" d="M715.15 332.6q-2.7-.5-5.1-1.35-1.6-.5-4.85-1.85-1.55-.65-2.65-.2-1.35.55-2.9 2.8-2.2 3.15-1.9 5.35.2 1.8 2.05 2.5.4 3.6 10.15 5.7 8.6 1.85 21.1 1.95 9.95.1 18.75-.8 8.6-.9 10.5-2.15 2.95-1.95 1.9-5.45-1.75-5.85-1.75-6.35-8.05 2.95-23 2.35-10.85-.45-22.3-2.5z" id="bg"/><path fill="url(#R)" d="M770.3 331.35q.5-1.05 1-.05.85 1.35 2.05.5 3-2.1 5.8-1.15 1.5.45 2.8 1.7.8.7 2.45 2.55 2.15 2.2 3.25 3.15 2 1.8 3.8 2.6 3.05 1.35 8.45.2 3.6-.7 5.7-.7.95 0 1-.05.15-.05.35-.8l.5-1.95.45 2.5q.2 1.3.7 1.45.05.05 1.9-.1 3.95-.3 8.1-1.75 4.5-1.6 7.7-4 3.85-2.75 5.05-7.05 1.35-4.4.1-7.1.85-1.9-1.5-1.7-.95.05-4.3.95-2.95.85-8.5 3.45-6.3 3-7.95 3.6-4.15 1.55-9.9 1.65-1.75.05-10.35-.4-5.4-.35-8.1-.5-4.85-.3-8.15-.4-3.6-.1-6.8.7-3.45.8-5.45 2.35 1 .15 1.85 1.2 1.05 1.3 1.6 1.6.95.55 2.25.5 1.45-.1 2.55-1 1.05-.75 1.6-1.95z" id="bh"/><path fill="url(#S)" d="M725.6 392.85q-5.3 3.75-12.3 1.35-5.9-2.1-11.2-7.4 2.75 4.75 8 7.9 4.25 2.55 8.5 2.45 4.65-.1 8.2-3.45 1.05-.95 2.8-2.7 1.6-1.2 3.7-.8-2.3-.75-4.3.3-.05 0-3.4 2.35z" id="bi"/><path fill="url(#T)" d="M700.9 330.4q9.95 5.15 26.9 6.6 19.6 1.7 31.85-4.05-8.2 2.75-22.75 2.1-10.8-.5-21.75-2.55-2.7-.45-5.1-1.25-1.6-.5-4.85-1.85-1.2-.5-2.1-.3-1.05.2-2.2 1.3z" id="bj"/><path fill="#FE3717" d="M806.5 333.15l.95 4.25v-.05l.1.35q.25 1.35.5 2.95.3.95 1.7.7l.75-.15q-1.2-4-4-8.05z" id="bk"/><path fill="url(#U)" d="M818.35 339.5l1.5-.5q-.45-2.8-1.85-5.6-1.45-2.8-3.55-5 1.3 1.75 2.5 5.05 1.2 3.45 1.4 6.05z" id="bl"/><path fill="url(#V)" d="M752.1 340.95q.05-2.8.5-4.4-1.95 4.9-1.5 10l1.4-.2q-.4-2.6-.4-5.4z" id="bm"/><path fill="url(#W)" d="M733.6 485.65q8.55-3.85 9.3-10.2.7-6-5.35-9.3-5.45-3.05-13.25-.95-8.65 2.3-16.2 10.25-5.25 5.65-6.65 7.1 6.95 5.25 15.95 5.95 8.5.7 16.2-2.85z" id="bn"/><path fill="url(#X)" d="M744.9 440.6q-3.4-6.7-8.65-10.9-5.85-4.75-12.95-5.45l.05 7.4q0 8.5 4.7 16.8 5.9 10.45 14.55 6.6 3.3-1.4 4.15-4.95.95-4.1-1.85-9.5z" id="bo"/><path fill="url(#Y)" d="M732.3 457.7q1.55-2.75 1.15-6.05-1.8-12.5-20-17.85-7.45-2.2-15.3-2.3-7.75-.05-12.85 1.95.45.65 5.5 8.3 2.7 4.05 4.55 6.3 6.05 7.25 14.75 11.8 10.65 5.55 17.85 1.95 2.85-1.4 4.35-4.1z" id="bp"/><path fill="url(#Z)" d="M748 470.75l2.35 2.9q-1.95-12.05-7.75-23.45-6.6-12.95-16.7-21.5 9.1 11.45 14 20.45 5.55 10.25 8.1 21.6z" id="bq"/><path fill="#C1ED55" d="M748.5 471.6l-1.65-1.8q-20-.75-34.05 9.35 18.7-10.05 35.7-7.55z" id="br"/><path fill="#A6DA30" d="M755.35 483.4l2.3-.55q-4.45-13.35-23.6-27.15-20.25-14.6-45.15-20.65 24.55 8 44.4 23.05 18.7 14.15 22.1 25.6l-.05-.3z" id="bs"/></defs><use xlink:href="#aa"/><use xlink:href="#ab" transform="matrix(.96039 0 0 .96039 -584.302 -197.527)"/><use xlink:href="#ac" transform="matrix(.96039 0 0 .96039 -584.302 -197.527)"/><use xlink:href="#ad" transform="matrix(.96039 0 0 .96039 -584.302 -197.527)"/><use xlink:href="#ae" transform="matrix(.96039 0 0 .96039 -584.302 -197.527)"/><use xlink:href="#af" transform="matrix(.96039 0 0 .96039 -584.302 -197.527)"/><use xlink:href="#ag" transform="matrix(.96039 0 0 .96039 -584.302 -197.527)"/><use xlink:href="#ah" transform="matrix(.96039 0 0 .96039 -584.302 -197.527)"/><use xlink:href="#ai" transform="matrix(.96039 0 0 .96039 -584.302 -197.527)"/><use xlink:href="#aj" transform="matrix(.96039 0 0 .96039 -584.302 -197.527)"/><use xlink:href="#ak" transform="matrix(.96039 0 0 .96039 -584.302 -197.527)"/><use xlink:href="#al" transform="matrix(.96039 0 0 .96039 -584.302 -197.527)"/><use xlink:href="#am" transform="matrix(.96039 0 0 .96039 -584.302 -197.527)"/><use xlink:href="#an" transform="matrix(.96039 0 0 .96039 -584.302 -197.527)"/><use xlink:href="#ao" transform="matrix(.96039 0 0 .96039 -584.302 -197.527)"/><use xlink:href="#ap" transform="matrix(.96039 0 0 .96039 -584.302 -197.527)"/><use xlink:href="#aq" transform="matrix(.96039 0 0 .96039 -584.302 -197.527)"/><use xlink:href="#ar" transform="matrix(.96039 0 0 .96039 -584.302 -197.527)"/><use xlink:href="#as" transform="matrix(.96039 0 0 .96039 -584.302 -197.527)"/><use xlink:href="#at" transform="matrix(.96039 0 0 .96039 -584.302 -197.527)"/><use xlink:href="#au" transform="matrix(.96039 0 0 .96039 -584.302 -197.527)"/><use xlink:href="#av" transform="matrix(.96039 0 0 .96039 -584.302 -197.527)"/><use xlink:href="#aw" transform="matrix(.96039 0 0 .96039 -584.302 -197.527)"/><use xlink:href="#ax" transform="matrix(.96039 0 0 .96039 -584.302 -197.527)"/><use xlink:href="#ay" transform="matrix(.96039 0 0 .96039 -584.302 -197.527)"/><use xlink:href="#az" transform="matrix(.96039 0 0 .96039 -584.302 -197.527)"/><use xlink:href="#aA" transform="matrix(.96039 0 0 .96039 -584.302 -197.527)"/><use xlink:href="#aB" transform="matrix(.96039 0 0 .96039 -584.302 -197.527)"/><use xlink:href="#aC" transform="matrix(.96039 0 0 .96039 -584.302 -197.527)"/><use xlink:href="#aD" transform="matrix(.96039 0 0 .96039 -584.302 -197.527)"/><use xlink:href="#aE" transform="matrix(.96039 0 0 .96039 -584.302 -197.527)"/><use xlink:href="#aF" transform="matrix(.96039 0 0 .96039 -584.302 -197.527)"/><use xlink:href="#aG" transform="matrix(.96039 0 0 .96039 -584.302 -197.527)"/><use xlink:href="#aH" transform="matrix(.96039 0 0 .96039 -584.302 -197.527)"/><use xlink:href="#aI" transform="matrix(.96039 0 0 .96039 -584.302 -197.527)"/><use xlink:href="#aJ" transform="matrix(.96039 0 0 .96039 -584.302 -197.527)"/><use xlink:href="#aK" transform="matrix(.96039 0 0 .96039 -584.302 -197.527)"/><use xlink:href="#aL" transform="matrix(.96039 0 0 .96039 -584.302 -197.527)"/><use xlink:href="#aM" transform="matrix(.96039 0 0 .96039 -584.302 -197.527)"/><use xlink:href="#aN" transform="matrix(.96039 0 0 .96039 -584.302 -197.527)"/><use xlink:href="#aO" transform="matrix(.96039 0 0 .96039 -584.302 -197.527)"/><use xlink:href="#aP" transform="matrix(.96039 0 0 .96039 -584.302 -197.527)"/><use xlink:href="#aQ" transform="matrix(.96039 0 0 .96039 -584.302 -197.527)"/><use xlink:href="#aR" transform="matrix(.96039 0 0 .96039 -584.302 -197.527)"/><use xlink:href="#aS" transform="matrix(.96039 0 0 .96039 -584.302 -197.527)"/><use xlink:href="#aT" transform="matrix(.96039 0 0 .96039 -584.302 -197.527)"/><use xlink:href="#aU" transform="matrix(.96039 0 0 .96039 -584.302 -197.527)"/><use xlink:href="#aV" transform="matrix(.96039 0 0 .96039 -584.302 -197.527)"/><use xlink:href="#aW" transform="matrix(.96039 0 0 .96039 -584.302 -197.527)"/><use xlink:href="#aX" transform="matrix(.96039 0 0 .96039 -584.302 -197.527)"/><use xlink:href="#aY" transform="matrix(.96039 0 0 .96039 -584.302 -197.527)"/><use xlink:href="#aZ" transform="matrix(.96039 0 0 .96039 -584.302 -197.527)"/><use xlink:href="#ba" transform="matrix(.96039 0 0 .96039 -584.302 -197.527)"/><use xlink:href="#bb" transform="matrix(.96039 0 0 .96039 -584.302 -197.527)"/><use xlink:href="#bc" transform="matrix(.96039 0 0 .96039 -584.302 -197.527)"/><use xlink:href="#bd" transform="matrix(.96039 0 0 .96039 -584.302 -197.527)"/><use xlink:href="#be" transform="matrix(.96039 0 0 .96039 -584.302 -197.527)"/><use xlink:href="#bf" transform="matrix(.96039 0 0 .96039 -584.302 -197.527)"/><use xlink:href="#bg" transform="matrix(.96039 0 0 .96039 -584.302 -197.527)"/><use xlink:href="#bh" transform="matrix(.96039 0 0 .96039 -584.302 -197.527)"/><use xlink:href="#bi" transform="matrix(.96039 0 0 .96039 -584.302 -197.527)"/><use xlink:href="#bj" transform="matrix(.96039 0 0 .96039 -584.302 -197.527)"/><use xlink:href="#bk" transform="matrix(.96039 0 0 .96039 -584.302 -197.527)"/><use xlink:href="#bl" transform="matrix(.96039 0 0 .96039 -584.302 -197.527)"/><use xlink:href="#bm" transform="matrix(.96039 0 0 .96039 -584.302 -197.527)"/><use xlink:href="#bn" transform="matrix(.96039 0 0 .96039 -584.302 -197.527)"/><use xlink:href="#bo" transform="matrix(.96039 0 0 .96039 -584.302 -197.527)"/><use xlink:href="#bp" transform="matrix(.96039 0 0 .96039 -584.302 -197.527)"/><use xlink:href="#bq" transform="matrix(.96039 0 0 .96039 -584.302 -197.527)"/><use xlink:href="#br" transform="matrix(.96039 0 0 .96039 -584.302 -197.527)"/><use xlink:href="#bs" transform="matrix(.96039 0 0 .96039 -584.302 -197.527)"/></svg>