<svg xmlns="http://www.w3.org/2000/svg" xmlns:xlink="http://www.w3.org/1999/xlink" preserveAspectRatio="none" width="284" height="320"><defs><linearGradient id="a" gradientUnits="userSpaceOnUse" x1="-121.2" y1="646.313" x2="-121.2" y2="725.287" spreadMethod="pad"><stop offset="0%" stop-color="#9C420E"/><stop offset="100%" stop-color="#7F2A0A"/></linearGradient><linearGradient id="b" gradientUnits="userSpaceOnUse" x1="-181.3" y1="669.038" x2="-120.7" y2="673.262" spreadMethod="pad"><stop offset="0%" stop-color="#77250B"/><stop offset="100%" stop-color="#411105"/></linearGradient><linearGradient id="c" gradientUnits="userSpaceOnUse" x1="-185.525" y1="677.35" x2="-113.875" y2="672.35" spreadMethod="pad"><stop offset="0%" stop-color="#C48753"/><stop offset="100%" stop-color="#B15B16"/></linearGradient><linearGradient id="d" gradientUnits="userSpaceOnUse" x1="-179.362" y1="650.5" x2="-100.537" y2="645" spreadMethod="pad"><stop offset="0%" stop-color="#C48753"/><stop offset="100%" stop-color="#B15B16"/></linearGradient><linearGradient id="e" gradientUnits="userSpaceOnUse" x1="-180.375" y1="637.4" x2="-105.825" y2="632.2" spreadMethod="pad"><stop offset="0%" stop-color="#CA9669"/><stop offset="100%" stop-color="#B35E17"/></linearGradient><linearGradient id="f" gradientUnits="userSpaceOnUse" x1="-169.2" y1="631.288" x2="-85.3" y2="625.413" spreadMethod="pad"><stop offset="0%" stop-color="#CA9669"/><stop offset="100%" stop-color="#B35E17"/></linearGradient><linearGradient id="g" gradientUnits="userSpaceOnUse" x1="-135.55" y1="610.275" x2="-135.55" y2="679.525" spreadMethod="pad"><stop offset="0%" stop-color="#D0A37A"/><stop offset="100%" stop-color="#E0C7B1"/></linearGradient><linearGradient id="h" gradientUnits="userSpaceOnUse" x1="-183.5" y1="671.325" x2="-183.5" y2="726.575" spreadMethod="pad"><stop offset="0%" stop-color="#C38042"/><stop offset="100%" stop-color="#A94D0F"/></linearGradient><linearGradient id="i" gradientUnits="userSpaceOnUse" x1="-246.075" y1="711.3" x2="-146.525" y2="711.3" spreadMethod="pad"><stop offset="0%" stop-color="#A3440D"/><stop offset="100%" stop-color="#521408"/></linearGradient><linearGradient id="j" gradientUnits="userSpaceOnUse" x1="-151.45" y1="675.3" x2="-151.45" y2="761.8" spreadMethod="pad"><stop offset="0%" stop-color="#B25610"/><stop offset="100%" stop-color="#8D320C"/></linearGradient><linearGradient id="k" gradientUnits="userSpaceOnUse" x1="-234.338" y1="659.688" x2="-169.662" y2="664.213" spreadMethod="pad"><stop offset="0%" stop-color="#72230B"/><stop offset="100%" stop-color="#340D03"/></linearGradient><linearGradient id="l" gradientUnits="userSpaceOnUse" x1="-232.5" y1="699.038" x2="-166.2" y2="703.663" spreadMethod="pad"><stop offset="0%" stop-color="#72230B"/><stop offset="100%" stop-color="#340D03"/></linearGradient><linearGradient id="m" gradientUnits="userSpaceOnUse" x1="-234.513" y1="700.725" x2="-156.588" y2="695.275" spreadMethod="pad"><stop offset="0%" stop-color="#D5A36F"/><stop offset="100%" stop-color="#BE6819"/></linearGradient><linearGradient id="n" gradientUnits="userSpaceOnUse" x1="-243.225" y1="741.5" x2="-179.275" y2="741.5" spreadMethod="pad"><stop offset="0%" stop-color="#E2C39D"/><stop offset="100%" stop-color="#DEB88D"/></linearGradient><linearGradient id="o" gradientUnits="userSpaceOnUse" x1="-248.35" y1="679.35" x2="-162.35" y2="673.35" spreadMethod="pad"><stop offset="0%" stop-color="#D5A36F"/><stop offset="100%" stop-color="#BE6819"/></linearGradient><linearGradient id="p" gradientUnits="userSpaceOnUse" x1="-241.412" y1="659.587" x2="-160.088" y2="653.913" spreadMethod="pad"><stop offset="0%" stop-color="#DEB88D"/><stop offset="100%" stop-color="#BE6B1B"/></linearGradient><linearGradient id="q" gradientUnits="userSpaceOnUse" x1="-263.513" y1="651.6" x2="-172.088" y2="645.2" spreadMethod="pad"><stop offset="0%" stop-color="#DEB88D"/><stop offset="100%" stop-color="#BE6B1B"/></linearGradient><linearGradient id="r" gradientUnits="userSpaceOnUse" x1="-212" y1="632.288" x2="-212" y2="724.913" spreadMethod="pad"><stop offset="0%" stop-color="#E4C8A6"/><stop offset="100%" stop-color="#FBF8F3"/></linearGradient><linearGradient id="s" gradientUnits="userSpaceOnUse" x1="-268.05" y1="683.325" x2="-268.05" y2="759.075" spreadMethod="pad"><stop offset="0%" stop-color="#F6EEE4"/><stop offset="100%" stop-color="#BE6A1D"/></linearGradient><path fill="#FFF" fill-opacity="0" d="M0 320h284V0H0v320z" id="t"/><path fill="#521408" d="M-208.95 655.9q-5.85 12.55-5.85 26.25v29.45q0 16.2 13.1 27.8 11.9 10.45 32.1 15.3 19.15 4.55 40 2.8 21.25-1.8 36.95-9.65 9.7-4.9 12-19.65.7-4.75 1.05-13.2.35-9.75.7-12.95l2.4-22.9q2.15-20.3-5.8-34.85-8.2-15-26.55-23.05-14.95-6.7-32-6.7-30.5 0-52.25 19.85-10.25 9.35-15.85 21.5z" id="u"/><path fill="url(#a)" d="M-66.95 682.15q0-20.6-12.6-37.7-12.35-16.65-32.45-24.5-.2.5-10.25-3.35-12.6-4.05-23.75-3.7-10.45.25-29.45 10-.95 1.95 27.8 4.75 29.15 2.45 29.55 2.75 21.75 15.55 25.7 50.9 1.5 13.3.85 32.75-.4 11.3-1.75 34.05 12.35-6.05 19.05-14.9 7.3-9.6 7.3-21.6v-29.45z" id="v"/><path fill="#7F3123" d="M-165.8 622.5l-23.55 13-4.25-4q-2.75 7.3 1.85 11.2 4.4 3.7 9.9.6 2.35-1.3 8.7-1.4 6-.1 9.75-2.7 8.25-5.7 19.25-4.8 7.75.65 19.1 5.05 9.25 3.6 15.5 6.85 7.7 4.05 10.1 5.1l1.5-2.85-14-17.95-6.1-4.95-24.7-.15-23.05-3z" id="w"/><path fill="url(#b)" d="M-168.65 656.7l-23.55 13-5.65-3.75q-.6 7.65 2.7 10.75 2.8 2.8 7.7 2.5 4.35-.25 8-2.6 2-1.25 5.85-4.45 4.2-3.45 6.35-4.9 9.4-6.45 19.75-8.35 10.75-2 19.65 1.45 11.95 4.7 15.8 14.25 3.9 9.6-1.2 22.4l12.5-14.25-15-26.5-.45-1.65-29.35-6.25-23.1 8.35z" id="x"/><path fill="url(#c)" d="M-163.4 649.55l-15.7 9.85-9.2 7.55-5.8-10.05-1 1.6q-2.35 4-2.65 7.05-.55 5.2 3.3 7.55l.1.05q2.3 1.35 4.65 1.2 2.4-.15 5.25-1.75 3.05-1.75 9.35-7.3h.1q2.15-1.9 5.7-4.15 2.9-1.85 6.6-3.45 9.25-4.05 18.95-4.55 10.25-.5 18.7 3.1l-.05.05q2.25.95 4.15 2.1 1.8 1.1 3.9 2.8 5 4.15 7.6 9.55 2.9 6.05 2.25 12.8-.4 4.3-2.3 7.85-1.6 3.05-2.25 4.05-1.45 2.45-2.9 3.7-.4.35.95 1.45.884.72 1.05 1.05l.5-3.55 9.6-12.35-2.05-18.5-6.45-11.6-14.8-8.2-18.4-2.75-19.15 4.85z" id="y"/><path fill="url(#d)" d="M-188.3 666.6l6.25-7.6-4.55 3.7q6.8-10.85 17.7-16.4 2.5-1.3 4.5-2 2.45-.95 4.8-1.6 9.3-2.65 19.2-2.5 10.3.15 18.7 3.25 2.7.9 6.1 2.8 2.6 1.4 5.2 3.75h.05q3.9 3.5 8.15 5.65.5.3 1.5.65.3.15 1.5.6h.1q3.25 1.1 5.9.35 3.6-1.15 4.45-4.75.45-2.05-.2-4.55-.55-2.45-3.05-6.55l-4.75 5.7-8.55-2.4-10.95-7.45-15.7-4.5H-147l-13.7 1.4-12.95 6.45-12.3 8.25-6.85 11.55 4.5 6.2z" id="z"/><path fill="url(#e)" d="M-186.3 629.3l2.15-9q-1.95 1.4-4.7 3.75-4.4 4.1-4.95 7.45-.5 3.3 1.5 5.45 1.55 1.7 4.4 2.1 1.95.25 4.6-.35 2.75-.7 5.55-2.2l.1-.05q2.25-1.25 4.15-2.1 4.1-1.6 4.35-1.7 11.15-4.1 23.6-4.35h.15q3.1-.05 6.55.15 1.8.1 6.75.7 19.7 3.15 31.55 16.6-1.25-.9-3.55-2.8-2.8-2.6-6.75-4.9-3-1.7-6.25-2.95l6.05 3.15 11.2 10.95L-95 642l-15.8-14.7-16.7-5.1-18.5-2.05-16.7 2.4-13 3.4-10.6 3.35z" id="A"/><path fill="url(#f)" d="M-178.75 628.3l13.7-6.1 16.1-3.2q-11.45.65-22.5 4.4 9.45-4.8 20.5-6.8 11.4-2.05 22.25-.7 11.85 1.55 22.5 7.05 10.6 5.4 18.15 13.65 3 3.2 5.7 7.55.95 1.7 2.9 2.15 1.9.45 3.6-.55 1.65-1 2.15-2.85.45-1.9-.6-3.55l-1.25-2.1h-3.1l-21.2-19.1-15.05-6.5-21.5-4.1-20.8 2.4-21.55 8.2-5.45 6.4 5.45 3.75z" id="B"/><path fill="url(#g)" d="M-188.85 624.05q-3.25 3.05-3.15 5.45.1 2.7 4.55 3.2 1.95.25 4.6-.4 2.8-.7 5.55-2.2h.05q1.75-1 4.2-2.1 1.8-.85 4.3-1.7 11.05-4.1 23.65-4.35h.05q7.6-.1 13.4.9 15.25 2.35 27.65 12.6 2.55 2.1 3.95 4.45 1.35 2.2 1.1 3.65-.3 1.35-2 .9-1.5-.45-3.65-2.1-4.9-3.95-10.65-6.5-1.1-.55-3.25-1.3-9.8-3.55-21.6-3.75-11.4-.15-22.1 2.85-2.75.75-5.6 1.85-3.4 1.3-5.4 2.4-10.75 5.55-17.5 13.75-3.85 4.8-5 7.5-2.2 5.15 1.7 7.6h.05q2.3 1.4 4.7 1.25 2.35-.15 5.25-1.8 3-1.75 9.35-7.2 2.55-2.2 5.75-4.2 3.05-1.9 6.65-3.45 9.15-4.05 18.9-4.55 10.25-.5 18.65 3.1 1.7.75 4.2 2.15 1.65 1 3.9 2.75 6.95 5.8 9.95 13.65 3.3 8.6.6 16.8-1.4 4.45-5.25 9.1-5 6-6.4 9.75-2 5.35.1 11.6.2 1 1.45.9 1.25-.1.75-2.7-.8-3.9.1-6.65.65-2.1 2.95-5.15 3.7-4.35 5.5-6.55 3.2-3.95 4.55-7.55 3.3-8.45.75-18.4-2.5-9.95-9.45-15.65-2.7-2.2-5.05-3.6-2.35-1.45-5.3-2.75h-.1q-10.15-4.4-22.5-3.85-11.6.55-22.5 5.3-4.25 1.8-7.75 4.1-3.25 1.9-7 5.05-1 .9-1.3 1.05-5.1 4.4-4.9.45.2-3.75 2.95-6.9 7.6-8.55 16-12.85 3.1-1.55 4.45-2 2-.85 4.85-1.65 9.3-2.6 19.2-2.5 10.25.15 18.65 3.2 3.35 1.25 6.15 2.9 3.05 1.8 5.15 3.65 4.3 3.75 8.2 5.8l3.05 1.2q3.5 1.05 5.95.35 3.15-1.55 2.45-5.4-.6-3.1-2.95-5.8-14.15-16.1-37.35-19.75-7.55-1.2-15-1h-.05q-14.1.05-28.85 4.7-5.25 1.65-5.65.8-.35-.85 3.6-3.7 12.1-8.8 32.75-10 17.9-1 31.15 3.55 11.25 4 19.8 10.9 5.55 4.65 10.55 10.6 2.25 2.75 3.3 3.45 1.8 1.2 3.55.15.45-.25.85-.65-2.6-4.35-6.4-8.55-17.2-19.9-46.85-23.35-28.7-3.4-51.35 10.2-4.85 2.85-9.6 7z" id="C"/><path fill="url(#h)" d="M-177.4 654.15q-5.3 5.65-7.4 10.6-1.9 4.4-3.3 13.6-1.5 10.05-1.5 26.35-.05 13.5 1.05 35 3.85 5.5 11.1 10.8-4.45-16.25-6.2-44.1-2.35-37.6 6.25-52.25z" id="D"/><path fill="#E1C59F" d="M-186.4 669.2l-1.05 5.05 4 2.3q.2-2.15.65-5.25l-3.6-2.1z" id="E"/><path fill="#E1C59F" d="M-183.8 680.85l-4.3-2.45q-1.2 7.5-1.35 17.3l5.45 3.15q-.35-10.25.2-18z" id="F"/><path fill="url(#i)" d="M-204.1 633q-16.35 0-31.35 5.8-14.45 5.65-25.65 15.9-11.2 10.2-17.35 23.45-6.35 13.7-6.35 28.65v32.25q0 17.65 14.3 30.3 13 11.4 35 16.65 20.9 5 43.65 3.1 23.2-2 40.3-10.6 10.65-5.3 13.15-21.45.8-5.15 1.15-14.35.4-10.75.75-14.15l2.7-25q2.3-22.15-6.4-38.1-8.95-16.35-28.95-25.2-16.5-7.25-34.95-7.25z" id="G"/><path fill="url(#j)" d="M-177.4 646.35q-2.55 3.5-1.9 3.9 20.2 12.6 26.25 48.25 4.5 26.45.8 59.35-1.5 12.95-10.25 20.65-4.3 3.75-14.9 8.55 14.55-3.25 25-8.1 10.95-5.25 18.2-13.05 10.8-11.65 10.8-26.85V706.8q0-22.5-13.8-41.15-13.45-18.25-35.45-26.85-1.2 2.65-4.75 7.55z" id="H"/><path fill="url(#k)" d="M-231.1 648.7l-6.7 5.45-15.3 19.5 1.65 3.2q2.6-1.15 11.1-5.6 6.8-3.55 16.8-7.45 12.35-4.85 20.9-5.55 12-.95 21 5.25 4.05 2.8 10.65 2.9 6.9.1 9.45 1.6 6.05 3.4 10.85-.65 5.05-4.25 2-12.35l-4.65 4.5-25.6-14.25-25.3 3.3-26.85.15z" id="I"/><path fill="url(#l)" d="M-233.2 680.3l-.5 1.8-16.25 28.95 13.55 15.55q-5.6-13.95-1.3-24.5 4.2-10.35 17.25-15.55 9.7-3.75 21.45-1.6 11.3 2.1 21.55 9.1 2.25 1.6 6.95 5.45 4.15 3.45 6.35 4.85 4.1 2.55 8.75 2.8 5.35.3 8.5-2.8 3.6-3.5 2.8-11.65l-6.15 4.1-25.6-14.2-25.2-9.2-32.15 6.9z" id="J"/><path fill="url(#m)" d="M-222.65 672.5l-16.05 8.95-7.1 12.65-2.2 20.2 10.45 13.45 5.1 1.8-2.3-1.9q-3.7-3.25-5.75-7.2-2.1-3.95-2.45-8.55-.75-7.35 2.45-14 2.8-5.85 8.25-10.4 2.05-1.7 4.25-3.05 1.95-1.2 4.55-2.35 9.2-3.95 20.4-3.35 10.65.55 20.65 4.95 3.45 1.45 7.2 3.7 3.4 2.15 6.25 4.65 7.15 6.1 10.3 7.85 3.1 1.8 5.7 1.95 2.65.2 5.15-1.3 4.3-2.75 3.7-8.3-.5-3.65-2.95-7.7l-.15-.3-.95-1.45-6.25 10.95-10.1-8.2-17.15-10.8-20.85-5.25-20.15 3z" id="K"/><path fill="url(#n)" d="M-247.3 716.5l-4.45-18.3q-2.15 7.2-1.45 14.55.5 6.7 3.55 12.45 3.1 5.8 8.1 10.15 4.1 3.65 9.65 6.7 3 1.65 10.1 4.85 6.4 2.9 9.4 4.55 5.1 2.8 8.6 6.1 5.25 5.05 8.4 10 3.9 6.15 5.7 13.35.5 2 2.3 3.1 1.85 1.1 3.9.6 2.05-.5 3.15-2.3 1.15-1.8.6-3.85-2.1-8.9-7-16.35-3.7-6.1-10-12.05-1.35-1.2-2-1.8l-4.2-1.15-33.55-16.75-10.8-13.85z" id="L"/><path fill="url(#o)" d="M-215.95 656.45l-17.15 4.85-11.95 8.2-9.35 2.65-5.15-6.25q-2.35 3.5-3.35 7.2-.75 2.85-.15 4.9.9 4.05 4.8 5.15 2.6.8 6.5-.35.9-.25 1.65-.65l1.75-.7q4.25-2.15 8.85-6.2v-.05q2.8-2.35 5.65-4.05 2.75-1.65 6.7-3.1 9.25-3.4 20.4-3.55 10.8-.1 20.95 2.75h.05q4.6 1.55 5.3 1.8 2.5 1 4.8 2.15 11.95 6.1 19.35 17.95l-4.95-4.1 6.85 8.35 4.8-6.7-7.4-12.75-13.45-8.9-14.2-7.1-14.9-1.5h-16.4z" id="M"/><path fill="url(#p)" d="M-220.8 644.85l-18.3 5.65-17.1 16.05 5.15 7.85 12.35-11.95 6.55-3.55q-3.7 1.55-6.85 3.3-4.3 2.55-7.35 5.35-2 1.75-3.9 3 13-14.6 34.4-18 3.55-.55 7.35-.75 2.55-.25 7.3-.25h.05q13.95.4 25.8 4.75 2.55.95 4.65 1.9 2.45 1.05 4.6 2.3h.15q2.95 1.65 6 2.4 2.85.7 5.05.4 3-.3 4.8-2.25 2.35-2.5 1.6-5.95-.55-3.75-5.4-8.15-2.55-2.3-5.1-4.15l2.35 9.9-11.6-3.75-14.15-3.65-18.25-2.65-20.15 2.2z" id="N"/><path fill="url(#q)" d="M-164.85 640.4l-23.45-8.9-22.85-2.6-23.45 4.45-16.45 7.05-23.1 20.9h-3.3l-1.45 2.3q-1.1 1.85-.6 3.9.5 2.05 2.35 3.15t3.9.55q2.05-.5 3.15-2.35 3.05-4.95 6.2-8.2 8.25-9.05 19.8-14.95 11.7-6 24.6-7.65 11.9-1.55 24.35.75 12 2.15 22.3 7.45-11.75-4.1-24.6-4.85l17.7 3.45 14.9 6.8 6-4.1-6-7.15z" id="O"/><path fill="url(#r)" d="M-184.25 642.85q-8.75-1.55-16.65-1.6h-.15q-8.55-.1-16.35 1.15-25.3 4-40.75 21.55v.05q-2.6 2.95-3.25 6.35-.75 4.2 2.75 5.9 2.65.8 6.4-.35h.05l3.35-1.35q4.35-2.25 8.9-6.3 2.05-1.9 5.6-4 3.5-2 6.7-3.1 9.25-3.4 20.4-3.55 10.8-.1 21 2.75 2.45.65 5.25 1.75 2.3.85 4.9 2.2 9 4.55 17.45 14 3.05 3.45 3.25 7.6.2 4.3-5.4-.5l-1.4-1.15q-3.75-3.2-7.6-5.55-3.75-2.35-8.5-4.45-11.85-5.2-24.55-5.75-13.45-.6-24.55 4.15h-.15q-3.1 1.3-5.75 3.05-2.6 1.55-5.5 3.85-6.5 5.35-10.25 12.35-4.15 7.7-4.35 16.4.8 5.1 3.3 10 2.8 5.35 8.05 10.1 4.2 3.7 9.75 6.75 3.15 1.75 10.05 4.85 17.2 7.65 23.7 12.45 11.15 8.2 17.85 22.65-2.1-6.9-6.05-13-3.7-6.1-10-12.05-4.4-4.1-10.2-7.35-3.75-2.1-10.7-5.15-6.25-2.85-8.9-4.3-4.85-2.6-8.2-5.6-12.4-11.05-10.55-25.4 1.6-12.6 12.6-21.75 2.95-2.2 4.25-3 1.85-1.15 4.5-2.3 9.2-3.95 20.45-3.35 10.6.5 20.65 4.85 4.35 2 7.2 3.8 3.3 2.05 6.25 4.55 6.65 5.9 10.25 7.9 3.15 1.8 5.7 2 2.65.15 5.15-1.35v-.05h.1q4.25-2.6 1.85-8.3-1.25-2.95-5.45-8.2-7.5-9.05-19.15-14.95-1.95-1-5.85-2.7-2.7-1.1-6.2-2-11.65-3.3-24.1-3.1-12.85.2-23.65 4.1l-3.45 1.35q-5.95 2.75-11.65 7.15-2.3 1.85-3.95 2.35-1.85.55-2.15-1.05-.3-1.55 1.15-3.95 1.55-2.5 4.35-4.9 13.35-11.05 30.2-13.75 6.6-1.05 14.55-.95h.15q13.35.2 25.7 4.7l4.75 1.95q3.1 1.4 4.6 2.2l.05.1q3.1 1.6 6.1 2.35 2.85.7 5 .45 4.8-.6 4.9-3.5.1-2.65-3.45-5.95-5-4.45-10.4-7.7-11.95-7.15-26.7-10.05-14.5-2.85-29.35-1.1-32.35 3.8-51.15 25.55-4 4.4-7.05 9.35l.95.75q1.95 1.15 3.9-.2 1.05-.75 3.65-3.8 6.1-7.2 11.45-11.55 9.15-7.55 21.6-11.9 14.45-5.05 34.05-3.9 22.5 1.3 35.65 10.9 4.35 3.2 3.95 4.1-.4.95-6.1-.95-7.1-2.25-14.8-3.6z" id="P"/><path fill="url(#s)" d="M-276.45 763.1q6.55 8.25 17.4 14.1-5.5-26.8-6.7-48.3-1.65-29.85 5.7-42.8-13.1 15.7-16.05 38.85-1.45 11.3-.35 38.15z" id="Q"/></defs><use xlink:href="#t"/><use xlink:href="#u" transform="matrix(1.30363 0 0 1.30363 371.325 -729.748)"/><use xlink:href="#v" transform="matrix(1.30363 0 0 1.30363 371.325 -729.748)"/><use xlink:href="#w" transform="matrix(1.30363 0 0 1.30363 371.325 -729.748)"/><use xlink:href="#x" transform="matrix(1.30363 0 0 1.30363 371.325 -729.748)"/><use xlink:href="#y" transform="matrix(1.30363 0 0 1.30363 371.325 -729.748)"/><use xlink:href="#z" transform="matrix(1.30363 0 0 1.30363 371.325 -729.748)"/><use xlink:href="#A" transform="matrix(1.30363 0 0 1.30363 371.325 -729.748)"/><use xlink:href="#B" transform="matrix(1.30363 0 0 1.30363 371.325 -729.748)"/><use xlink:href="#C" transform="matrix(1.30363 0 0 1.30363 371.325 -729.748)"/><use xlink:href="#D" transform="matrix(1.30363 0 0 1.30363 371.325 -729.748)"/><use xlink:href="#E" transform="matrix(1.30363 0 0 1.30363 371.325 -729.748)"/><use xlink:href="#F" transform="matrix(1.30363 0 0 1.30363 371.325 -729.748)"/><use xlink:href="#G" transform="matrix(1.30363 0 0 1.30363 371.325 -729.748)"/><use xlink:href="#H" transform="matrix(1.30363 0 0 1.30363 371.325 -729.748)"/><use xlink:href="#I" transform="matrix(1.30363 0 0 1.30363 371.325 -729.748)"/><use xlink:href="#J" transform="matrix(1.30363 0 0 1.30363 371.325 -729.748)"/><use xlink:href="#K" transform="matrix(1.30363 0 0 1.30363 371.325 -729.748)"/><use xlink:href="#L" transform="matrix(1.30363 0 0 1.30363 371.325 -729.748)"/><use xlink:href="#M" transform="matrix(1.30363 0 0 1.30363 371.325 -729.748)"/><use xlink:href="#N" transform="matrix(1.30363 0 0 1.30363 371.325 -729.748)"/><use xlink:href="#O" transform="matrix(1.30363 0 0 1.30363 371.325 -729.748)"/><use xlink:href="#P" transform="matrix(1.30363 0 0 1.30363 371.325 -729.748)"/><use xlink:href="#Q" transform="matrix(1.30363 0 0 1.30363 371.325 -729.748)"/></svg>