<svg xmlns="http://www.w3.org/2000/svg" xmlns:xlink="http://www.w3.org/1999/xlink" preserveAspectRatio="none" width="284" height="320"><defs><linearGradient id="a" gradientUnits="userSpaceOnUse" x1="725.4" y1="626.3" x2="725.4" y2="760.8" spreadMethod="pad"><stop offset="0%" stop-color="#EDD442"/><stop offset="100%" stop-color="#E1A921"/></linearGradient><linearGradient id="b" gradientUnits="userSpaceOnUse" x1="681" y1="624.35" x2="681" y2="601.05" spreadMethod="pad"><stop offset="0%" stop-color="#F2EC78"/><stop offset="100%" stop-color="#FEFEFE"/></linearGradient><linearGradient id="c" gradientUnits="userSpaceOnUse" x1="770" y1="624.35" x2="770" y2="601.05" spreadMethod="pad"><stop offset="0%" stop-color="#F2EC78"/><stop offset="100%" stop-color="#FEFEFE"/></linearGradient><linearGradient id="d" gradientUnits="userSpaceOnUse" x1="725.4" y1="702.337" x2="725.4" y2="763.163" spreadMethod="pad"><stop offset="0%" stop-color="#EECA27"/><stop offset="100%" stop-color="#F3EE82"/></linearGradient><linearGradient id="e" gradientUnits="userSpaceOnUse" x1="725.25" y1="677.313" x2="725.25" y2="730.588" spreadMethod="pad"><stop offset="0%" stop-color="#7E290B"/><stop offset="100%" stop-color="#481007"/></linearGradient><linearGradient id="f" gradientUnits="userSpaceOnUse" x1="725.4" y1="645.25" x2="725.4" y2="706.35" spreadMethod="pad"><stop offset="0%" stop-color="#B25610"/><stop offset="100%" stop-color="#7E290B"/></linearGradient><linearGradient id="g" gradientUnits="userSpaceOnUse" x1="725.4" y1="721.325" x2="725.4" y2="691.575" spreadMethod="pad"><stop offset="0%" stop-color="#C57E35"/><stop offset="100%" stop-color="#AE510F"/></linearGradient><linearGradient id="h" gradientUnits="userSpaceOnUse" x1="689.4" y1="648.337" x2="689.4" y2="624.762" spreadMethod="pad"><stop offset="0%" stop-color="#B65E18"/><stop offset="100%" stop-color="#E2C39D"/></linearGradient><linearGradient id="i" gradientUnits="userSpaceOnUse" x1="761.5" y1="648.337" x2="761.5" y2="624.762" spreadMethod="pad"><stop offset="0%" stop-color="#B65E18"/><stop offset="100%" stop-color="#E2C39D"/></linearGradient><linearGradient id="j" gradientUnits="userSpaceOnUse" x1="789.8" y1="672.3" x2="789.8" y2="769" spreadMethod="pad"><stop offset="0%" stop-color="#EDD442"/><stop offset="100%" stop-color="#E1A921"/></linearGradient><linearGradient id="k" gradientUnits="userSpaceOnUse" x1="757.9" y1="671.325" x2="757.9" y2="654.575" spreadMethod="pad"><stop offset="0%" stop-color="#F2EC78"/><stop offset="100%" stop-color="#FEFEFE"/></linearGradient><linearGradient id="l" gradientUnits="userSpaceOnUse" x1="821.8" y1="671.325" x2="821.8" y2="654.575" spreadMethod="pad"><stop offset="0%" stop-color="#F2EC78"/><stop offset="100%" stop-color="#FEFEFE"/></linearGradient><linearGradient id="m" gradientUnits="userSpaceOnUse" x1="789.8" y1="727.338" x2="789.8" y2="771.063" spreadMethod="pad"><stop offset="0%" stop-color="#EECA27"/><stop offset="100%" stop-color="#F3EE82"/></linearGradient><linearGradient id="n" gradientUnits="userSpaceOnUse" x1="789.7" y1="709.3" x2="789.7" y2="747.6" spreadMethod="pad"><stop offset="0%" stop-color="#C2290E"/><stop offset="100%" stop-color="#801B0C"/></linearGradient><linearGradient id="o" gradientUnits="userSpaceOnUse" x1="789.8" y1="686.288" x2="789.8" y2="730.212" spreadMethod="pad"><stop offset="0%" stop-color="#FE3709"/><stop offset="100%" stop-color="#D32D0E"/></linearGradient><linearGradient id="p" gradientUnits="userSpaceOnUse" x1="789.8" y1="741.3" x2="789.8" y2="719.9" spreadMethod="pad"><stop offset="0%" stop-color="#FB9B78"/><stop offset="100%" stop-color="#FE4018"/></linearGradient><linearGradient id="q" gradientUnits="userSpaceOnUse" x1="763.9" y1="688.325" x2="763.9" y2="671.375" spreadMethod="pad"><stop offset="0%" stop-color="#FE4018"/><stop offset="100%" stop-color="#FBD8C5"/></linearGradient><linearGradient id="r" gradientUnits="userSpaceOnUse" x1="815.75" y1="688.325" x2="815.75" y2="671.375" spreadMethod="pad"><stop offset="0%" stop-color="#FE4018"/><stop offset="100%" stop-color="#FBD8C5"/></linearGradient><path fill="#FFF" fill-opacity="0" d="M0 320h284V0H0v320z" id="s"/><path fill="#D28A1B" d="M725.4 620.35l-.8-.75q-20.9-19.7-44.35-20.3-21.55-.55-36.25 14.45-6.2 6.3-10 16.5t-4.35 22.1q-1.3 26.95 13.15 47.55 13.45 19.1 30.85 38.9 14.85 16.9 34.25 36.25 9.55 9.55 17.5 10 .1-22.95.1-92 .05-72.85-.1-72.7z" id="t"/><path fill="#B66513" d="M806.4 613.75q-14.75-15-36.25-14.45-23.45.6-44.35 20.3l-.8.75q-.15-.15-.1 72.7 0 69.05.1 92 7.95-.45 17.5-10 19.4-19.35 34.25-36.25 17.4-19.8 30.85-38.9 14.45-20.6 13.15-47.55-.55-11.9-4.35-22.1-3.8-10.2-10-16.5z" id="u"/><path fill="url(#a)" d="M806.1 609.2q-14.55-14.6-35.85-14.05-23.25.6-44 19.8l-.85.8-.8-.8q-20.75-19.2-44-19.8-21.3-.55-35.85 14.05-13.15 13.15-14.25 32.5-1.25 21.2 13 41.2 13.3 18.65 30.6 38.05 14.6 16.35 33.95 35.4 9.45 9.4 17.35 9.75 7.85-.35 17.4-9.75 19.4-19.05 33.95-35.4 17.3-19.4 30.55-38.05 14.25-20 13.05-41.2-1.15-19.35-14.25-32.5z" id="v"/><path fill="url(#b)" d="M704.9 614.75q9.1 4.4 15 12.05-4.55-10.95-14.6-17.7-10.35-6.95-22.85-6.95-16.7 0-28.5 11.55-11.85 11.5-11.85 27.7 0 2.3.2 4.05 1.6-14.9 13.8-25.05 12.25-10.2 28.8-10.2 10.65 0 20 4.55z" id="w"/><path fill="url(#c)" d="M808.9 641.4q0-16.2-11.85-27.7-11.85-11.55-28.55-11.55-12.5 0-22.8 6.95-10.05 6.75-14.65 17.7 5.95-7.7 15-12.05 9.35-4.55 20-4.55 16.5 0 28.8 10.2 12.2 10.15 13.85 25.05.2-1.75.2-4.05z" id="x"/><path fill="url(#d)" d="M716.1 752q5.25 5.7 9.45 5.55 3.85-.2 9.2-5.55l50.75-55.45-49.95 46.55q-5.75 5.3-9.85 5.45-4.4.1-10.4-5.45l-49.95-46.55L716.1 752z" id="y"/><path fill="url(#e)" d="M791.4 638.8q-4.7-11-15.35-15.8-11.4-5.15-23.65-.1-7.15 2.95-14.75 10.3-8.3 8.85-12.4 12.95-8-8.75-12.35-12.95-7.6-7.35-14.75-10.3-12.3-5.05-23.7.1-10.65 4.8-15.3 15.8-2.3 5.35-2.2 12.15.05 6.4 2.25 12.55 3.6 9.8 13.55 21.9 12.55 15.3 20.6 24.5 11.65 13.3 21.95 23.3 5.95 5.8 9.95 5.8 4 0 9.9-5.8 10.35-10 22.05-23.3 8.05-9.15 20.6-24.5 9.95-12.2 13.45-21.9 2.25-6.1 2.35-12.55.1-6.8-2.2-12.15z" id="z"/><path fill="#7E290B" d="M791 635.2q-4.8-10.7-15.15-14.85-13.8-5.45-27.95 1.65-10.7 5.35-22.4 18.5l-.1-.15v90q2.4.15 4.85-1.35 2.3-1.45 5.35-4.8 7.1-7.75 21.6-23.2 12.95-13.9 20.95-23.45 9.45-11.3 13.55-21.45 4.05-10.2-.7-20.9z" id="A"/><path fill="#7E290B" d="M725.4 640.35q0 .05-.1.15-11.65-13.15-22.35-18.5-14.15-7.1-27.95-1.65-10.45 4.15-15.2 14.85t-.65 20.9q4.1 10.2 13.45 21.45 7.6 9.05 21.05 22.8 16.65 17.15 21.6 22.55 2.65 3 5.3 4.05 2.05.8 4.85.6l9.5-64.75-9.5-22.45z" id="B"/><path fill="url(#f)" d="M785.45 629.4q-5.95-5.5-14.4-6.85-8.95-1.5-18.1 2.15-7.25 2.95-14.95 10.25-8.4 8.75-12.55 12.85l-.05.1v-.1q-8.15-8.7-12.6-12.85-7.7-7.3-14.9-10.25-7.75-3.05-15.7-2.45-7.55.55-13.25 4.25-7.2 4.7-10.2 12.9-3.1 8.45-.2 16.5 3.6 9.75 13.7 21.65 12.45 14.85 20.75 24.1 11.8 13.1 22.25 23 6.5 6.2 10.7 6.2 4.05-.05 9.65-6.2 7.2-7.85 21.8-23.4 13.05-14.05 21.2-23.7 10.15-12.2 13.6-21.65 2.6-6.95.65-14.3-1.9-7.1-7.4-12.2z" id="C"/><path fill="url(#g)" d="M778.35 662.85q-2.85 4.1-6.45 8.1-18.25 20.5-26.2 27.35-10.85 9.4-19.35 9.65-8.75.25-19.85-8.85-9.25-7.55-27.55-28.15-3.25-3.55-6.5-8.1 3.25 7.1 9.95 15.2 9.9 12.05 16.8 19.95 9.45 10.7 17.95 19 5.35 5.1 8.65 5.1 3.3-.05 7.85-5.1.5-.55 17.65-19.35 10.6-11.6 17.15-19.6 6.85-8.4 9.9-15.2z" id="D"/><path fill="url(#h)" d="M711.9 642.2q-3.8-6.2-9.6-9.45-5.75-3.2-12.9-3.2-7.25 0-13 3.2-5.8 3.25-9.55 9.45-2.5 4.2-.85 6.3 1.7 2.1 5.45-.9 8.95-7 17.95-7t17.85 7q3.8 3 5.5.9 1.7-2.1-.85-6.3z" id="E"/><path fill="url(#i)" d="M784.05 642.2q-3.8-6.2-9.6-9.45-5.75-3.2-12.95-3.2-7.2 0-12.95 3.2-5.8 3.25-9.55 9.45-2.55 4.15-.85 6.3 1.7 2.1 5.45-.9 8.95-7 17.9-7 9.05 0 17.9 7 3.8 3 5.5.9 1.65-2.1-.85-6.3z" id="F"/><path fill="#D28A1B" d="M757.3 652.9q-15.4-.4-26 10.4-9.45 9.6-10.35 27.8-.9 19.35 9.45 34.1 9.55 13.65 22.2 28.05 10.3 11.8 24.55 26.05 6.9 6.9 12.65 7.2.1-15.05.1-66.15 0-52.4-.1-52.3l-.65-.55q-15-14.15-31.85-14.6z" id="G"/><path fill="#B66513" d="M790.1 667.5l-.65.55q-.1-.1-.05 52.3 0 46.4.05 66.15 5.7-.3 12.7-7.2 14.25-14.3 24.55-26.05 12.65-14.4 22.15-28.05 10.4-14.7 9.5-34.1-.9-18.15-10.35-27.8-10.55-10.8-26-10.4-16.85.45-31.9 14.6z" id="H"/><path fill="url(#j)" d="M757.6 649.9q-15.3-.35-25.8 10.15-9.45 9.45-10.25 23.35-.85 15.25 9.35 29.65 9.55 13.35 22 27.35 10.35 11.55 24.4 25.45 6.85 6.7 12.5 7.05 5.65-.35 12.5-7.05 14.15-14 24.4-25.45 12.5-14.05 22-27.35 10.25-14.4 9.35-29.65-.8-13.9-10.25-23.35-10.5-10.5-25.8-10.15-16.65.45-31.6 14.25l-.6.6-.65-.6q-14.85-13.8-31.55-14.25z" id="I"/><path fill="url(#k)" d="M758.95 654.95q-12 0-20.5 8.3-8.55 8.35-8.55 20 0 1.95.15 2.85 1.15-10.65 9.9-18 8.85-7.4 20.7-7.4 7.65 0 14.4 3.3 6.5 3.15 10.8 8.75-3.25-7.9-10.5-12.8-7.4-5-16.4-5z" id="J"/><path fill="url(#l)" d="M793.85 672.75q4.3-5.6 10.8-8.75 6.7-3.3 14.35-3.3 11.85 0 20.7 7.4 8.75 7.3 9.95 18 .15-2.7.15-2.85 0-11.65-8.5-20-8.55-8.3-20.5-8.3-9 0-16.45 5-7.2 4.9-10.5 12.8z" id="K"/><path fill="url(#m)" d="M789.9 766.7q2.8-.1 6.6-3.95l36.5-39.9-36 33.5q-4.05 3.8-7 3.9-3.15.1-7.45-3.9l-35.95-33.5 36.5 39.9q3.75 4.1 6.8 3.95z" id="L"/><path fill="url(#n)" d="M742.15 681.35q-1.65 3.85-1.55 8.75.05 4.6 1.65 9 2.3 6.65 9.7 15.75 18 22.15 30.6 34.35 4.3 4.15 7.15 4.15 2.85 0 7.1-4.15 7.5-7.25 15.85-16.75 6.1-6.95 14.8-17.6 7.2-8.8 9.65-15.75 1.6-4.4 1.7-9 .1-4.85-1.55-8.75-3.4-7.9-11.05-11.35-8.15-3.7-17-.1-5.15 2.1-10.6 7.4-5.95 6.4-8.95 9.35-5.8-6.3-8.9-9.35-5.4-5.3-10.5-7.4-8.9-3.6-17.1.1-7.65 3.45-11 11.35z" id="M"/><path fill="#E7310D" d="M789.9 682.55l-.1-.1v64.65q1.65.2 3.45-.95 1.65-1 3.85-3.45 5.1-5.55 15.55-16.65 9.3-10 15.1-16.9 6.8-8.1 9.65-15.4 2.95-7.35-.45-15.05-3.4-7.7-10.9-10.65-9.9-3.9-20.1 1.25-7.65 3.85-16.05 13.25z" id="N"/><path fill="#E7310D" d="M753.55 668.05q-7.45 2.95-10.9 10.65-3.4 7.7-.5 15.05 2.85 7.25 9.75 15.4 5.45 6.55 15.05 16.4 12.15 12.55 15.5 16.25 2 2.15 3.85 2.9 1.5.55 3.5.4l6.8-46.5-6.8-16.15-.05.1q-8.4-9.4-16.05-13.25-10.25-5.15-20.15-1.25z" id="O"/><path fill="url(#o)" d="M749.15 672.5q-5.2 3.35-7.35 9.3-2.2 6.1 0 11.8 2.55 7.1 9.8 15.55 18.4 22 30.85 33.95 4.75 4.45 7.7 4.4 2.9 0 6.95-4.4 5.2-5.65 15.7-16.9 9.45-10.1 15.25-17.05 7.1-8.3 9.8-15.55 1.85-5 .45-10.25-1.4-5.15-5.35-8.8-4.3-3.9-10.35-4.9-6.45-1.05-13 1.55-5.2 2.1-10.75 7.35-6.05 6.35-9.05 9.3-5.9-6.25-9.05-9.3-5.55-5.25-10.75-7.35-5.55-2.25-11.3-1.8-5.45.4-9.55 3.1z" id="P"/><path fill="url(#p)" d="M790.1 741.2q2.35 0 5.6-3.65 4.2-4.65 12.7-13.9 7.45-8.2 12.3-14.05 5.05-6.2 7.15-10.95-1.65 2.4-4.6 5.85-13.1 14.75-18.85 19.65-7.8 6.75-13.95 6.9-6.25.2-14.25-6.35-6.65-5.4-19.8-20.2-3.1-3.55-4.65-5.85 2.05 4.65 7.1 10.95 15.1 18.3 25.05 27.95 3.85 3.7 6.2 3.65z" id="Q"/><path fill="url(#q)" d="M763.9 674.7q-5.2 0-9.3 2.3-4.25 2.3-6.9 6.75-1.8 3-.6 4.55 1.2 1.55 3.9-.65 6.5-5.05 12.9-5.05 6.3 0 12.8 5.05 2.75 2.2 3.95.65 1.25-1.55-.55-4.55-2.7-4.45-6.9-6.75-4.1-2.3-9.3-2.3z" id="R"/><path fill="url(#r)" d="M806.45 677q-4.2 2.3-6.9 6.75-1.8 3-.6 4.55 1.25 1.55 3.9-.65 6.5-5.05 12.9-5.05t12.9 5.05q2.65 2.2 3.9.65 1.2-1.55-.6-4.55-5.6-9.05-16.2-9.05-5.2 0-9.3 2.3z" id="S"/></defs><use xlink:href="#s"/><use xlink:href="#t" transform="matrix(1.24097 0 0 1.24097 -781.2 -677.261)"/><use xlink:href="#u" transform="matrix(1.24097 0 0 1.24097 -781.2 -677.261)"/><use xlink:href="#v" transform="matrix(1.24097 0 0 1.24097 -781.2 -677.261)"/><use xlink:href="#w" transform="matrix(1.24097 0 0 1.24097 -781.2 -677.261)"/><use xlink:href="#x" transform="matrix(1.24097 0 0 1.24097 -781.2 -677.261)"/><use xlink:href="#y" transform="matrix(1.24097 0 0 1.24097 -781.2 -677.261)"/><use xlink:href="#z" transform="matrix(1.24097 0 0 1.24097 -781.2 -677.261)"/><use xlink:href="#A" transform="matrix(1.24097 0 0 1.24097 -781.2 -677.261)"/><use xlink:href="#B" transform="matrix(1.24097 0 0 1.24097 -781.2 -677.261)"/><use xlink:href="#C" transform="matrix(1.24097 0 0 1.24097 -781.2 -677.261)"/><use xlink:href="#D" transform="matrix(1.24097 0 0 1.24097 -781.2 -677.261)"/><use xlink:href="#E" transform="matrix(1.24097 0 0 1.24097 -781.2 -677.261)"/><use xlink:href="#F" transform="matrix(1.24097 0 0 1.24097 -781.2 -677.261)"/><use xlink:href="#G" transform="matrix(1.24097 0 0 1.24097 -781.2 -677.261)"/><use xlink:href="#H" transform="matrix(1.24097 0 0 1.24097 -781.2 -677.261)"/><use xlink:href="#I" transform="matrix(1.24097 0 0 1.24097 -781.2 -677.261)"/><use xlink:href="#J" transform="matrix(1.24097 0 0 1.24097 -781.2 -677.261)"/><use xlink:href="#K" transform="matrix(1.24097 0 0 1.24097 -781.2 -677.261)"/><use xlink:href="#L" transform="matrix(1.24097 0 0 1.24097 -781.2 -677.261)"/><use xlink:href="#M" transform="matrix(1.24097 0 0 1.24097 -781.2 -677.261)"/><use xlink:href="#N" transform="matrix(1.24097 0 0 1.24097 -781.2 -677.261)"/><use xlink:href="#O" transform="matrix(1.24097 0 0 1.24097 -781.2 -677.261)"/><use xlink:href="#P" transform="matrix(1.24097 0 0 1.24097 -781.2 -677.261)"/><use xlink:href="#Q" transform="matrix(1.24097 0 0 1.24097 -781.2 -677.261)"/><use xlink:href="#R" transform="matrix(1.24097 0 0 1.24097 -781.2 -677.261)"/><use xlink:href="#S" transform="matrix(1.24097 0 0 1.24097 -781.2 -677.261)"/></svg>