<svg xmlns="http://www.w3.org/2000/svg" xmlns:xlink="http://www.w3.org/1999/xlink" preserveAspectRatio="none" width="284" height="320"><defs><linearGradient id="a" gradientUnits="userSpaceOnUse" x1="-191.3" y1="83.375" x2="-191.3" y2="-57.275" spreadMethod="pad"><stop offset="0%" stop-color="#FE4B2B"/><stop offset="100%" stop-color="#FE5331"/></linearGradient><linearGradient id="b" gradientUnits="userSpaceOnUse" x1="-191.3" y1="76.4" x2="-191.3" y2="-35.1" spreadMethod="pad"><stop offset="0%" stop-color="#FC8163"/><stop offset="100%" stop-color="#FBAC93"/></linearGradient><linearGradient id="c" gradientUnits="userSpaceOnUse" x1="-98.225" y1="126.588" x2="-231.175" y2="164.713" spreadMethod="pad"><stop offset="0%" stop-color="#C12911"/><stop offset="100%" stop-color="#E93215"/></linearGradient><linearGradient id="d" gradientUnits="userSpaceOnUse" x1="-242.037" y1="158.9" x2="-125.662" y2="158.9" spreadMethod="pad"><stop offset="0%" stop-color="#C12911"/><stop offset="100%" stop-color="#A8240F"/></linearGradient><linearGradient id="e" gradientUnits="userSpaceOnUse" x1="-256.063" y1="143.5" x2="-133.637" y2="143.5" spreadMethod="pad"><stop offset="0%" stop-color="#FE3709"/><stop offset="23.922%" stop-color="#FBD4BF"/><stop offset="100%" stop-color="#FE3709"/></linearGradient><linearGradient id="f" gradientUnits="userSpaceOnUse" x1="-132.075" y1="121.1" x2="-232.725" y2="121.1" spreadMethod="pad"><stop offset="0%" stop-color="#CA2B11"/><stop offset="100%" stop-color="#A8240F"/></linearGradient><linearGradient id="g" gradientUnits="userSpaceOnUse" x1="-191.3" y1="102.362" x2="-191.3" y2="147.637" spreadMethod="pad"><stop offset="0%" stop-color="#FE3709"/><stop offset="100%" stop-color="#FC785C"/></linearGradient><linearGradient id="h" gradientUnits="userSpaceOnUse" x1="-222.063" y1="135" x2="-151.238" y2="135" spreadMethod="pad"><stop offset="0%" stop-color="#FE4027"/><stop offset="100%" stop-color="#F13416"/></linearGradient><linearGradient id="i" gradientUnits="userSpaceOnUse" x1="-227.55" y1="53.4" x2="-227.55" y2="93.8" spreadMethod="pad"><stop offset="0%" stop-color="#E9BC25"/><stop offset="30.98%" stop-color="#F3EF8D"/><stop offset="100%" stop-color="#E9BC25"/></linearGradient><linearGradient id="j" gradientUnits="userSpaceOnUse" x1="-155.1" y1="53.4" x2="-155.1" y2="93.8" spreadMethod="pad"><stop offset="0%" stop-color="#E9BC25"/><stop offset="30.98%" stop-color="#F3EF8D"/><stop offset="100%" stop-color="#E9BC25"/></linearGradient><linearGradient id="k" gradientUnits="userSpaceOnUse" x1="-145.075" y1="118.6" x2="-231.125" y2="118.6" spreadMethod="pad"><stop offset="0%" stop-color="#F2DF43"/><stop offset="30.98%" stop-color="#F3EF8D"/><stop offset="100%" stop-color="#EECA27"/></linearGradient><linearGradient id="l" gradientUnits="userSpaceOnUse" x1="-191.35" y1="35.362" x2="-191.35" y2="90.138" spreadMethod="pad"><stop offset="0%" stop-color="#E9BC25"/><stop offset="7.059%" stop-color="#F3DB38"/><stop offset="25.098%" stop-color="#F3EF8D"/><stop offset="61.176%" stop-color="#F3DB36"/><stop offset="100%" stop-color="#E4B022"/></linearGradient><linearGradient id="m" gradientUnits="userSpaceOnUse" x1="-191.3" y1="48.387" x2="-191.3" y2="85.213" spreadMethod="pad"><stop offset="0%" stop-color="#FBC7B2"/><stop offset="100%" stop-color="#FE3709"/></linearGradient><linearGradient id="n" gradientUnits="userSpaceOnUse" x1="-191.3" y1="52.388" x2="-191.3" y2="69.813" spreadMethod="pad"><stop offset="0%" stop-color="#FC785C"/><stop offset="49.804%" stop-color="#FE3709"/><stop offset="100%" stop-color="#E03014"/></linearGradient><linearGradient id="o" gradientUnits="userSpaceOnUse" x1="-191.3" y1="173.338" x2="-191.3" y2="187.963" spreadMethod="pad"><stop offset="0%" stop-color="#F0CF28"/><stop offset="100%" stop-color="#C87A18"/></linearGradient><linearGradient id="p" gradientUnits="userSpaceOnUse" x1="-246.075" y1="-28.4" x2="-142.425" y2="-28.4" spreadMethod="pad"><stop offset="0%" stop-color="#FB8E69"/><stop offset="23.922%" stop-color="#FCE6D9"/><stop offset="100%" stop-color="#FB8E69"/></linearGradient><linearGradient id="q" gradientUnits="userSpaceOnUse" x1="-191.3" y1="-33.612" x2="-191.3" y2="2.113" spreadMethod="pad"><stop offset="0%" stop-color="#FEFEFE"/><stop offset="100%" stop-color="#FBAC93"/></linearGradient><path fill="#FFF" fill-opacity="0" d="M0 320h284V0H0v320z" id="r"/><path fill="#E03014" d="M-112.15 58.4q6.75-17.65 6.75-36.95h-171.85q0 19.3 6.75 36.95 6.55 17.05 18.45 30.2 11.9 13.2 27.3 20.4 16 7.5 33.4 7.5 17.45 0 33.45-7.5 15.4-7.2 27.3-20.4 11.9-13.15 18.45-30.2z" id="s"/><path fill="url(#a)" d="M-252.05-34.9q-11.9 11.25-18.45 25.8-6.75 15.05-6.75 31.5t6.75 31.55q6.55 14.55 18.45 25.8 11.9 11.25 27.3 17.4 16 6.4 33.4 6.4 17.45 0 33.45-6.4 15.4-6.15 27.3-17.4 11.9-11.25 18.45-25.8 6.75-15.1 6.75-31.55 0-16.45-6.75-31.5-6.55-14.55-18.45-25.8-11.9-11.25-27.3-17.45-16-6.4-33.45-6.4-17.4 0-33.4 6.4-15.4 6.2-27.3 17.45z" id="t"/><path fill="url(#b)" d="M-191.35-39.45q-27.05 0-46.25 18.45-19.25 18.5-19.25 44.5 0 25.95 19.25 44.4 19.2 18.45 46.25 18.45 27.1 0 46.35-18.45t19.25-44.4q0-26-19.25-44.5-19.25-18.45-46.35-18.45z" id="u"/><path fill="url(#c)" d="M-108.45 171.95q7.1-7.75 7.1-16.2V127.6h-66.8q-10.6-1.35-23.2-1.35-12.65 0-23.1 1.35h-66.85v28.15q0 8.45 7.1 16.2 6.85 7.5 19.3 13.25 26.4 12.25 63.55 12.25 37.2 0 63.6-12.25 12.45-5.75 19.3-13.25z" id="v"/><path fill="url(#d)" d="M-121.2 168.15q7.1-7.7 7.1-16.15v-26.4h-54.05q-11.6-1.4-23.2-1.4-11.65 0-23.1 1.4h-66.85v30.15q0 9.9 9.65 18.75 9.35 8.55 25.75 14.3 19.35 4.8 41.9 4.8 37.15 0 63.5-12.2 12.5-5.8 19.3-13.25z" id="w"/><path fill="#911F0E" d="M-101.35 140.35V125.6h-66.8q-11.6-1.4-23.2-1.4-11.65 0-23.1 1.4h-66.85v14.75q6.35 14.4 31.5 23.9 25.5 9.65 58.45 9.65 33.05 0 58.55-9.65 25.15-9.5 31.45-23.9z" id="x"/><path fill="#E03014" d="M-101.35 126.25q0-8.45-7.1-16.15-6.85-7.5-19.3-13.25-26.4-12.25-63.6-12.25-37.15 0-63.55 12.25-12.45 5.75-19.3 13.25-7.1 7.7-7.1 16.15t7.1 16.2q6.85 7.45 19.3 13.25 26.4 12.2 63.55 12.2 37.2 0 63.6-12.2 12.45-5.8 19.3-13.25 7.1-7.75 7.1-16.2z" id="y"/><path fill="url(#e)" d="M-104.85 124.95l-.1-1.6q-1.45 15.5-26.5 26.3-25.15 10.8-59.9 10.8-34.7 0-59.8-10.8-25.1-10.8-26.55-26.3l-.05 1.6q0 16 25.35 27.35 25.35 11.35 61.05 11.35 35.7 0 61.1-11.35 25.4-11.4 25.4-27.35z" id="z"/><path fill="url(#f)" d="M-142.25 143.4q20.4-9.3 20.4-22.3 0-13.05-20.4-22.3-20.4-9.3-49.1-9.3-28.7 0-49.05 9.3-20.35 9.25-20.35 22.3 0 13 20.35 22.3 20.4 9.25 49.05 9.25 28.7 0 49.1-9.25z" id="A"/><path fill="url(#g)" d="M-155.2 148.05q14.95-4.15 23.85-11 6.35-6.15 5.75-13.1-.6-6.95-8.05-12.85-17.4-13.65-57.7-13.65-40.25 0-57.6 13.65-7.5 5.9-8.05 12.85-.6 6.95 5.75 13.1 8.85 6.85 23.85 11 15.35 4.25 33.3 4.6h5.55q18-.35 33.35-4.6z" id="B"/><path fill="url(#h)" d="M-163.6 126.2q-11.55-3.65-27.75-3.65-16.15 0-27.65 3.65t-11.5 8.8q0 5.15 11.5 8.8 11.5 3.65 27.65 3.65 16.2 0 27.75-3.65 11.5-3.65 11.5-8.8t-11.5-8.8z" id="C"/><path fill="url(#i)" d="M-229.3 92.9l21.75-8.05-2.15-39.5q-7.7 1.45-17.55 8.7-10.2 7.45-15.6 16-4.9 7.95-4.65 21.5.25 10.6 2.8 22.75l15.4-21.4z" id="D"/><path fill="url(#j)" d="M-139.8 70.05q-5.35-8.55-15.6-16-9.85-7.25-17.5-8.7l-2.2 39.5 21.7 8.05 15.5 21.4q2.55-12.15 2.8-22.75.15-6.4-.75-11.15-1.15-5.85-3.95-10.35z" id="E"/><path fill="#E6B524" d="M-154.25 75.65q11.75 6.25 17.05 14.65-2.25-8.7-10.05-17.5-11.9-13.4-32.65-20.8l.35 16.2q13.25 1 25.3 7.45z" id="F"/><path fill="#D0871A" d="M-154.25 69.35q11.9 8.55 17.05 20.95-2.25-8.7-10.05-17.5-11.9-13.4-32.65-20.8l.35 7.75q13.45 1.05 25.3 9.6z" id="G"/><path fill="#DDA21F" d="M-153.45 132.9q15.75-9.05 15.75-21.8 0-12.7-15.75-21.7-15.75-9.05-37.9-9.05-22.1 0-37.85 9.05-15.7 9-15.7 21.7 0 12.75 15.7 21.8 15.75 9.05 37.85 9.05 22.15 0 37.9-9.05m9.1-21.8q0 10.3-13.8 17.6-13.75 7.3-33.2 7.3-19.4 0-33.15-7.3-13.8-7.3-13.8-17.6 0-10.25 13.8-17.55 13.75-7.3 33.15-7.3t33.2 7.3q13.8 7.3 13.8 17.55z" id="H"/><path fill="url(#k)" d="M-158.15 128.7q13.8-7.3 13.8-17.6 0-5.15-3.95-9.95-4.9 7.5-16.55 12.15-11.85 4.7-26.5 4.7-14.6 0-26.45-4.7-11.65-4.65-16.55-12.15-3.95 4.9-3.95 9.95 0 10.3 13.8 17.6 13.75 7.3 33.15 7.3 19.45 0 33.2-7.3z" id="I"/><path fill="#E6B524" d="M-228.4 75.65q12.1-6.45 25.3-7.45l.4-16.2q-20.7 7.35-32.65 20.8-7.75 8.75-10.15 17.5 5.35-8.4 17.1-14.65z" id="J"/><path fill="#D0871A" d="M-228.4 69.35q11.85-8.55 25.3-9.6l.4-7.75q-20.7 7.35-32.65 20.8-7.75 8.75-10.15 17.5 5.25-12.4 17.1-20.95z" id="K"/><path fill="#D0871A" d="M-166.2 43.45q-10.45-9.5-25.15-9.5t-25.1 9.5q-10.45 9.5-10.45 22.9 0 13.4 10.45 22.9 10.4 9.5 25.1 9.5 14.7 0 25.15-9.5 10.4-9.5 10.4-22.9 0-13.4-10.4-22.9z" id="L"/><path fill="url(#l)" d="M-166.2 42.8q-10.45-8.85-25.15-8.85t-25.1 8.85q-10.45 8.8-10.45 21.3t10.45 21.4q10.4 8.85 25.1 8.85 14.7 0 25.15-8.85 10.4-8.9 10.4-21.4 0-12.5-10.4-21.3z" id="M"/><path fill="url(#m)" d="M-171.85 44.75l-19.5-7.5-19.45 7.5-8.05 18.05 8.05 18.05 19.45 7.5 19.5-7.5 8.1-18.05-8.1-18.05z" id="N"/><path fill="#FAAA8B" d="M-184.2 78.8l-6.7-7.2-7.5 7.2 7.05 9.65 7.15-9.65z" id="O"/><path fill="#F4340D" d="M-174.05 69.35l-6.3-3.75-5.9 4.05 1.9 9.3.15-.15 12.35 2.15-2.3-11.55.1-.05z" id="P"/><path fill="#F4340D" d="M-204.8 67.75l-3.7 1.65-2.35 11.55 12.45-2.15 2.45-8.1-8.85-2.95z" id="Q"/><path fill="#FB8C71" d="M-174.15 56.15l-3.65.6-4.85 5.9 4.5 5.25 4 1.5 10.45-6.6-10.45-6.65z" id="R"/><path fill="#FBA186" d="M-208.55 69.55l2.1-.8 9.65-5.1-8.25-6.25-3.5-1.25-10.35 6.65 10.4 6.6-.05.15z" id="S"/><path fill="#FE5138" d="M-171.9 44.65l-12.3 2.15-1.75 3.95-1.1 7.1 9.95-.6 2.95-1.15 2.3-11.35-.05-.1z" id="T"/><path fill="#FCECE4" d="M-191.35 37.15l-7.05 9.65h-.15l1.15 3.2 6.65 4.65 5.1-4.65 1.45-3.2-7.15-9.65z" id="U"/><path fill="#FE5138" d="M-208.5 56.15l1.65.75 9.15 3.1.65-9.45-1.4-3.75-12.4-2.15 2.35 11.5z" id="V"/><path fill="#FBA186" d="M-199.85 54.8l1.15 1.15 7.2-2.2.3-2.25-.15.05-7.05-4.65-1.45 7.9z" id="W"/><path fill="#FBA186" d="M-191.35 51.55l.05 1.55 7.15 3.15 1.45-1.35h-.1l-1.4-8-7.15 4.65z" id="X"/><path fill="#FBDACC" d="M-208.5 56.15l5.15 6.65h-.1l2.3.3 3.05-6.7-1.75-1.5-8.65 1.25z" id="Y"/><path fill="#FBC7B2" d="M-184.1 56.45l3.4 6.5 1.5-.2 5-6.6-8.5-1.25-1.4 1.55z" id="Z"/><path fill="#FE5138" d="M-203.45 62.85l-5.05 6.55 8.65 1.3v.1l1.3-1.4-.85-6.3-4.05-.25z" id="aa"/><path fill="#FE5138" d="M-179.2 62.75l-3.2.1-1.3 7.1.9.9v-.15l8.6-1.3-5.05-6.6.05-.05z" id="ab"/><path fill="#FD623F" d="M-191.35 74.05l-.2-2.3-6-3.35-2.3 2.3 1.45 8 7.05-4.65z" id="ac"/><path fill="#CA2B11" d="M-191.2 71.75l-.15 2.3 7.05 4.65 1.45-8-2.3-2.3-6.05 3.35z" id="ad"/><path fill="url(#n)" d="M-182.8 54.9l-8.55-3.35-8.5 3.35-3.5 7.9 3.5 7.9 8.5 3.35 8.55-3.35 3.55-7.9-3.55-7.9z" id="ae"/><path fill="#F3EF8D" d="M-209.75 172.55q1.2.05 3.55-.45 2.1-.4 4.05-.2 2.05.15 3.05.9 1.75 1.25 1.1 2.95-.7 1.75-3.85.95-1.8-.45-3.1.4-1.45.9-1.35 2.9.05 1.6 1.45 2.55 1.5 1 3.7.25 2.5-.8 4 .05 2 1.05 2 4.85 0 5.35 3.85 5.35t3.85-5.35q0-3.8 2-4.85 1.5-.85 3.95-.05 2.2.75 3.75-.25 1.4-.95 1.45-2.55.05-2-1.4-2.9-1.3-.85-3.15-.4-3.1.8-3.8-.95-.65-1.7 1.1-2.95 1.05-.75 3.05-.9 1.95-.2 4.05.2 2.35.5 3.55.45 2.05-.1 3.15-1.4.85-1 .7-2.25-.15-1.35-1.35-2.3-1.45-1.1-6.7-.05-14.2 2.15-28.45 0-5.25-1.05-6.7.05-1.2.95-1.35 2.3-.15 1.25.65 2.25 1.1 1.3 3.2 1.4z" id="af"/><path fill="url(#o)" d="M-209.75 173.65q.85.05 3.55-.4 2.1-.4 4.05-.2 2.05.15 3.05.9 1.75 1.25 1.1 2.95-.7 1.75-3.85.95-1.8-.5-3.1.35-1.45.9-1.35 2.95.05 1.6 1.45 2.5 1.55 1.05 3.7.35 2.5-.85 4 0 2 1.05 2 4.85 0 5.35 3.85 5.35t3.85-5.35q0-3.8 2-4.85 1.5-.85 3.95 0 2.2.7 3.75-.35 1.4-.9 1.45-2.5.05-2.05-1.4-2.95-1.3-.85-3.15-.35-3.1.8-3.8-.95-.65-1.7 1.1-2.95 1.05-.75 3.05-.9 1.95-.2 4.05.2 2.7.45 3.55.4 2.1-.05 3.15-1.4.85-1 .7-2.25-.15-1.3-1.35-2.25-1-.75-3.4-.6-.6.05-3.3.5-14.2 2.25-28.45 0-2.7-.45-3.3-.5-2.4-.15-3.4.6-1.2.95-1.35 2.25-.15 1.25.65 2.25 1.05 1.35 3.2 1.4z" id="ag"/><path fill="#B82710" d="M-204.1 181.85q.35.4.95.4.55 0 .9-.4.4-.4.4-.95 0-.55-.4-.95-.35-.35-.9-.35-.6 0-.95.35-.4.4-.4.95 0 .55.4.95z" id="ah"/><path fill="#B82710" d="M-180.45 181.85q.45.4 1 .4t.95-.4q.4-.4.4-.95 0-.55-.4-.95-.4-.35-.95-.35-.55 0-1 .35-.4.4-.4.95 0 .55.4.95z" id="ai"/><path fill="#F0CF28" d="M-192.95 191.45q-.75-.7-.9-1.8l-.1.6q0 1.2.8 2.1.8.85 1.85.85 1.1 0 1.85-.85t.75-2.1l-.05-.6q-.15 1.1-.85 1.8-.75.75-1.7.75t-1.65-.75z" id="aj"/><path fill="#B82710" d="M-192.9 189.7q.65 1.1 1.55 1.1.95 0 1.65-1.1.65-1.15.65-2.75 0-1.65-.65-2.75-.65-1.15-1.65-1.15-.9 0-1.55 1.15-.7 1.1-.7 2.75 0 1.6.7 2.75z" id="ak"/><path fill="#F0CF28" d="M-185.5-73.65q-2.05-.5-5.85-.5-3.75 0-5.8.5-2.25.55-3.55 1.95-1.3 1.4-1.9 3.8-.55 2.15-.85 6.15-.05 1.5-.8 2.45-.55.65-1.45.85-.85.25-1.7-.05-1.15-.45-1.65-1.25l-2.4 1.75q1.05 1.55 3.2 2.3 1.45.5 3.3.15 1.75-.45 2.95-1.95 1.3-1.4 1.5-4.05.25-3.4.65-5.2.45-2 1.3-2.95.8-.85 2.55-1.2 1.55-.3 4.65-.3 3.1 0 4.7.3 1.7.35 2.55 1.2.9.9 1.3 2.95.35 1.6.65 5.2.15 2.5 1.45 4.05 1.25 1.5 3.05 1.95 1.75.35 3.3-.15 2.1-.8 3.15-2.3l-2.45-1.75q-.4.8-1.65 1.25-.75.3-1.7.05-.9-.25-1.4-.85-.65-1-.8-2.45-.3-4.05-.8-6.15-.6-2.4-1.9-3.8-1.35-1.4-3.6-1.95z" id="al"/><path fill="#E3AC22" d="M-211.3-56.25q.7.75 1.75.75 1 0 1.75-.75t.75-1.75q0-1.05-.75-1.75-.7-.7-1.75-.7t-1.75.7q-.7.7-.7 1.75t.7 1.75z" id="am"/><path fill="#E3AC22" d="M-174.85-56.25q.75.75 1.8.75 1 0 1.75-.75.7-.75.7-1.75 0-1.05-.7-1.75-.75-.7-1.75-.7-1.05 0-1.8.7t-.75 1.75q0 1 .75 1.75z" id="an"/><path fill="url(#p)" d="M-235-35.6q19.95-11.9 43.65-11.9 23.8 0 43.75 11.9 19.45 11.6 29.5 30.95-8.9-21.15-28.6-34.2-20.15-13.35-44.65-13.35-24.45 0-44.6 13.35-19.7 13.05-28.55 34.2 10.05-19.3 29.5-30.95z" id="ao"/><path fill="url(#q)" d="M-217.5-27q-10.85 6.4-10.85 15.35 0 9 10.85 15.4 10.9 6.4 26.15 6.4 15.35 0 26.2-6.4 10.9-6.4 10.9-15.4 0-8.95-10.9-15.35-10.85-6.4-26.2-6.4-15.25 0-26.15 6.4z" id="ap"/></defs><use xlink:href="#r"/><use xlink:href="#s" transform="translate(323.788 113.393) scale(.95001)"/><use xlink:href="#t" transform="translate(323.788 113.393) scale(.95001)"/><use xlink:href="#u" transform="translate(323.788 113.393) scale(.95001)"/><use xlink:href="#v" transform="translate(323.788 113.393) scale(.95001)"/><use xlink:href="#w" transform="translate(323.788 113.393) scale(.95001)"/><use xlink:href="#x" transform="translate(323.788 113.393) scale(.95001)"/><use xlink:href="#y" transform="translate(323.788 113.393) scale(.95001)"/><use xlink:href="#z" transform="translate(323.788 113.393) scale(.95001)"/><use xlink:href="#A" transform="translate(323.788 113.393) scale(.95001)"/><use xlink:href="#B" transform="translate(323.788 113.393) scale(.95001)"/><use xlink:href="#C" transform="translate(323.788 113.393) scale(.95001)"/><use xlink:href="#D" transform="translate(323.788 113.393) scale(.95001)"/><use xlink:href="#E" transform="translate(323.788 113.393) scale(.95001)"/><use xlink:href="#F" transform="translate(323.788 113.393) scale(.95001)"/><use xlink:href="#G" transform="translate(323.788 113.393) scale(.95001)"/><use xlink:href="#H" transform="translate(323.788 113.393) scale(.95001)"/><use xlink:href="#I" transform="translate(323.788 113.393) scale(.95001)"/><use xlink:href="#J" transform="translate(323.788 113.393) scale(.95001)"/><use xlink:href="#K" transform="translate(323.788 113.393) scale(.95001)"/><use xlink:href="#L" transform="translate(323.788 113.393) scale(.95001)"/><use xlink:href="#M" transform="translate(323.788 113.393) scale(.95001)"/><use xlink:href="#N" transform="translate(323.788 113.393) scale(.95001)"/><use xlink:href="#O" transform="translate(323.788 113.393) scale(.95001)"/><use xlink:href="#P" transform="translate(323.788 113.393) scale(.95001)"/><use xlink:href="#Q" transform="translate(323.788 113.393) scale(.95001)"/><use xlink:href="#R" transform="translate(323.788 113.393) scale(.95001)"/><use xlink:href="#S" transform="translate(323.788 113.393) scale(.95001)"/><use xlink:href="#T" transform="translate(323.788 113.393) scale(.95001)"/><use xlink:href="#U" transform="translate(323.788 113.393) scale(.95001)"/><use xlink:href="#V" transform="translate(323.788 113.393) scale(.95001)"/><use xlink:href="#W" transform="translate(323.788 113.393) scale(.95001)"/><use xlink:href="#X" transform="translate(323.788 113.393) scale(.95001)"/><use xlink:href="#Y" transform="translate(323.788 113.393) scale(.95001)"/><use xlink:href="#Z" transform="translate(323.788 113.393) scale(.95001)"/><use xlink:href="#aa" transform="translate(323.788 113.393) scale(.95001)"/><use xlink:href="#ab" transform="translate(323.788 113.393) scale(.95001)"/><use xlink:href="#ac" transform="translate(323.788 113.393) scale(.95001)"/><use xlink:href="#ad" transform="translate(323.788 113.393) scale(.95001)"/><use xlink:href="#ae" transform="translate(323.788 113.393) scale(.95001)"/><use xlink:href="#af" transform="translate(323.788 113.393) scale(.95001)"/><use xlink:href="#ag" transform="translate(323.788 113.393) scale(.95001)"/><use xlink:href="#ah" transform="translate(323.788 113.393) scale(.95001)"/><use xlink:href="#ai" transform="translate(323.788 113.393) scale(.95001)"/><use xlink:href="#aj" transform="translate(323.788 113.393) scale(.95001)"/><use xlink:href="#ak" transform="translate(323.788 113.393) scale(.95001)"/><use xlink:href="#al" transform="translate(323.788 113.393) scale(.95001)"/><use xlink:href="#am" transform="translate(323.788 113.393) scale(.95001)"/><use xlink:href="#an" transform="translate(323.788 113.393) scale(.95001)"/><use xlink:href="#ao" transform="translate(323.788 113.393) scale(.95001)"/><use xlink:href="#ap" transform="translate(323.788 113.393) scale(.95001)"/></svg>