<svg xmlns="http://www.w3.org/2000/svg" xmlns:xlink="http://www.w3.org/1999/xlink" preserveAspectRatio="none" width="284" height="320"><defs><linearGradient id="a" gradientUnits="userSpaceOnUse" x1="-76.713" y1="-142.925" x2="-114.588" y2="-193.175" spreadMethod="pad"><stop offset="0%" stop-color="#DA991E"/><stop offset="23.137%" stop-color="#F3D72A"/><stop offset="38.824%" stop-color="#F4F5A6"/><stop offset="61.176%" stop-color="#F3D72A"/><stop offset="100%" stop-color="#BD6413"/></linearGradient><linearGradient id="b" gradientUnits="userSpaceOnUse" x1="-77.413" y1="-145.863" x2="-115.888" y2="-196.938" spreadMethod="pad"><stop offset="0%" stop-color="#F3DB36"/><stop offset="7.843%" stop-color="#F2EC78"/><stop offset="32.157%" stop-color="#FEFEFE"/><stop offset="50.98%" stop-color="#F4F5A6"/><stop offset="100%" stop-color="#EBC226"/></linearGradient><linearGradient id="c" gradientUnits="userSpaceOnUse" x1="-286.975" y1="-143.363" x2="-248.225" y2="-192.938" spreadMethod="pad"><stop offset="0%" stop-color="#DA991E"/><stop offset="23.137%" stop-color="#F3D72A"/><stop offset="38.824%" stop-color="#F4F5A6"/><stop offset="61.176%" stop-color="#F3D72A"/><stop offset="100%" stop-color="#BD6413"/></linearGradient><linearGradient id="d" gradientUnits="userSpaceOnUse" x1="-285.587" y1="-146.563" x2="-246.212" y2="-196.938" spreadMethod="pad"><stop offset="0%" stop-color="#F3DB36"/><stop offset="7.843%" stop-color="#F2EC78"/><stop offset="32.157%" stop-color="#FEFEFE"/><stop offset="50.98%" stop-color="#F4F5A6"/><stop offset="100%" stop-color="#EBC226"/></linearGradient><linearGradient id="e" gradientUnits="userSpaceOnUse" x1="-162.138" y1="-237.6" x2="-107.663" y2="-185" spreadMethod="pad"><stop offset="0%" stop-color="#96200E"/><stop offset="100%" stop-color="#4A1006"/></linearGradient><linearGradient id="f" gradientUnits="userSpaceOnUse" x1="-244.65" y1="-343.137" x2="-123.35" y2="-182.162" spreadMethod="pad"><stop offset="0%" stop-color="#C12911"/><stop offset="27.059%" stop-color="#CD2C0C"/><stop offset="100%" stop-color="#9A210F"/></linearGradient><linearGradient id="g" gradientUnits="userSpaceOnUse" x1="-131.863" y1="-180.563" x2="-228.637" y2="-329.637" spreadMethod="pad"><stop offset="0%" stop-color="#851C0D"/><stop offset="100%" stop-color="#A8240F"/></linearGradient><linearGradient id="h" gradientUnits="userSpaceOnUse" x1="-234.875" y1="-331.625" x2="-131.825" y2="-194.875" spreadMethod="pad"><stop offset="0%" stop-color="#E93215"/><stop offset="27.059%" stop-color="#FE3709"/><stop offset="100%" stop-color="#B12610"/></linearGradient><linearGradient id="i" gradientUnits="userSpaceOnUse" x1="-224.313" y1="-305.313" x2="-125.387" y2="-202.887" spreadMethod="pad"><stop offset="0%" stop-color="#D12D0C"/><stop offset="100%" stop-color="#8C1E0C"/></linearGradient><linearGradient id="j" gradientUnits="userSpaceOnUse" x1="-226.725" y1="-320.75" x2="-140.075" y2="-205.75" spreadMethod="pad"><stop offset="0%" stop-color="#E93215"/><stop offset="27.059%" stop-color="#FE3709"/><stop offset="100%" stop-color="#B12610"/></linearGradient><linearGradient id="k" gradientUnits="userSpaceOnUse" x1="-188.738" y1="-272.475" x2="-225.363" y2="-333.425" spreadMethod="pad"><stop offset="0%" stop-color="#FE3717"/><stop offset="100%" stop-color="#FEFEFE"/></linearGradient><linearGradient id="l" gradientUnits="userSpaceOnUse" x1="-199.137" y1="-288.137" x2="-232.563" y2="-335.863" spreadMethod="pad"><stop offset="0%" stop-color="#FE3717"/><stop offset="100%" stop-color="#FBB49C"/></linearGradient><linearGradient id="m" gradientUnits="userSpaceOnUse" x1="-247.875" y1="-318.55" x2="-282.325" y2="-298.65" spreadMethod="pad"><stop offset="0%" stop-color="#E93215"/><stop offset="49.02%" stop-color="#FBCDBB"/><stop offset="100%" stop-color="#FE3717"/></linearGradient><linearGradient id="n" gradientUnits="userSpaceOnUse" x1="-148.862" y1="-353.85" x2="-184.537" y2="-360.15" spreadMethod="pad"><stop offset="0%" stop-color="#E93215"/><stop offset="49.02%" stop-color="#FBCDBB"/><stop offset="100%" stop-color="#FE3717"/></linearGradient><linearGradient id="o" gradientUnits="userSpaceOnUse" x1="-154.063" y1="-168.263" x2="-198.837" y2="-169.037" spreadMethod="pad"><stop offset="0%" stop-color="#D12C12"/><stop offset="52.941%" stop-color="#FB8C71"/><stop offset="100%" stop-color="#E03014"/></linearGradient><linearGradient id="p" gradientUnits="userSpaceOnUse" x1="-86.287" y1="-270.887" x2="-93.412" y2="-237.313" spreadMethod="pad"><stop offset="0%" stop-color="#D12C12"/><stop offset="43.922%" stop-color="#FB8C71"/><stop offset="100%" stop-color="#E03014"/></linearGradient><linearGradient id="q" gradientUnits="userSpaceOnUse" x1="-212.563" y1="-358.225" x2="-250.738" y2="-336.175" spreadMethod="pad"><stop offset="0%" stop-color="#E93215"/><stop offset="49.02%" stop-color="#FBCDBB"/><stop offset="100%" stop-color="#FE3717"/></linearGradient><linearGradient id="r" gradientUnits="userSpaceOnUse" x1="-264.1" y1="-202.913" x2="-231.3" y2="-178.188" spreadMethod="pad"><stop offset="0%" stop-color="#E93215"/><stop offset="49.02%" stop-color="#FBCDBB"/><stop offset="100%" stop-color="#FE3717"/></linearGradient><linearGradient id="s" gradientUnits="userSpaceOnUse" x1="-198.35" y1="-279.262" x2="-142.45" y2="-228.938" spreadMethod="pad"><stop offset="0%" stop-color="#C12911"/><stop offset="100%" stop-color="#601408"/></linearGradient><linearGradient id="t" gradientUnits="userSpaceOnUse" x1="-182.1" y1="-280.663" x2="-182.1" y2="-224.938" spreadMethod="pad"><stop offset="0%" stop-color="#FD6449"/><stop offset="45.882%" stop-color="#FE3717"/><stop offset="100%" stop-color="#CA2B11"/></linearGradient><linearGradient id="u" gradientUnits="userSpaceOnUse" x1="-205.15" y1="-275.625" x2="-205.15" y2="-286.875" spreadMethod="pad"><stop offset="0%" stop-color="#FC7457"/><stop offset="100%" stop-color="#FBBBA4"/></linearGradient><linearGradient id="v" gradientUnits="userSpaceOnUse" x1="-159" y1="-275.625" x2="-159" y2="-286.875" spreadMethod="pad"><stop offset="0%" stop-color="#FC7457"/><stop offset="100%" stop-color="#FBBBA4"/></linearGradient><linearGradient id="w" gradientUnits="userSpaceOnUse" x1="-182.05" y1="-253.6" x2="-182.05" y2="-217.8" spreadMethod="pad"><stop offset="0%" stop-color="#FE4027"/><stop offset="100%" stop-color="#FE3709"/></linearGradient><path fill="#FFF" fill-opacity="0" d="M0 320h284V0H0v320z" id="x"/><path fill="url(#a)" d="M-90.35-131.6l1.4-32.45 31.4 5.8-87.55-104.7-25.5 36.1 80.25 95.25z" id="y"/><path fill="url(#b)" d="M-138.15-197.7l48.2 56.75.35-8.15-44.35-52.2-4.2 3.6m24-19.95l-4.25 3.55 43.6 52.6 8.5 1.6-47.85-57.75z" id="z"/><path fill="url(#c)" d="M-192.05-226.85l-25.45-36.1-87.55 104.7 31.35-5.8 1.4 32.45 80.25-95.25z" id="A"/><path fill="url(#d)" d="M-273.05-149.1l.35 8.15 48.25-56.75-4.25-3.6-44.35 52.2m28.85-65l-4.25-3.55-47.85 57.75 8.45-1.6 43.65-52.6z" id="B"/><path fill="url(#e)" d="M-136.2-349.95q-7.15-.8-12-3.7-13-7.65-21.65-7.5-5.9.05-22.05 5.7-5.4 1.85-13.95 1.15-13.35-1.15-15.1-1.15-7.85.05-14.8 3.75-8.15 4.3-13.2 12.75-.65 1.1-4.15 7.45-2.3 4.2-4.05 6.3-1.9 2.35-6.15 4.95-4.8 2.9-7.4 5.5-8.15 8.1-10.65 16-1.9 6.1-.75 14.4 1.8 9.7 2.4 15.1 1.1 9.6-.95 18.2-2.65 11-1.6 17.7.95 6.1 6.25 15.4 4 6.25 5.7 8.95 2.95 4.65 4.35 9.6 3.4 12 9.1 17.9 5.05 5.25 14.8 8.45 7.85 1.6 12.65 2.6 9 1.85 16.6 6.1 13 7.15 27.5 9 14.9 1.9 28.45-2.25 5.65-1.75 11.25-5.2 3.55-2.25 11.3-8.05 7.3-5.5 15.65-7.55 11.6-2.8 17.6-9.4 6.2-6.9 7.5-19.1.3-3.5 1-5.55 1.05-3.2 4.4-9.1 6.25-11.1 8.5-19.75 2.7-10.4.85-21.25-.7-3.95-2.45-11.55-1.45-7.05-1.45-13.75 0-12.9-7.6-19.95-2.15-2-7.1-5.85-4.45-3.75-7.2-7.8-3.65-5.5-8.4-14.85-4.6-7.45-12.9-11.45-2.65-1.3-10.3-2.2z" id="C"/><path fill="url(#f)" d="M-138-353q-7-.8-11.75-3.6-12.7-7.5-21.2-7.4-5.8.1-21.55 5.6-5.3 1.85-13.7 1.1-13-1.1-14.75-1.1-7.7.05-14.5 3.65-7.95 4.2-12.9 12.5-.75 1.25-4.05 7.25-2.3 4.15-3.95 6.2-2.1 2.6-6.1 6.1-5.55 4.85-7.3 6.55-8.05 7.95-10.4 15.3-1.85 5.7-.75 13.25 1.85 8.9 2.45 13.95 1.1 9-.9 17.4-2.55 10.85-1.55 17.35.9 5.95 6.05 15.15 3.9 6.05 5.6 8.7 2.9 4.55 4.3 9.35 3.35 11.75 8.9 17.55 4.9 5.15 14.45 8.3.3.1 12.35 2.5 8.85 1.8 16.3 5.95 12.75 7.05 26.9 8.9 14.6 1.85 27.8-2.2 5.55-1.7 11.05-5.15 3.25-2 11.1-7.9 7.15-5.45 15.3-7.35 11.35-2.75 17.2-9.2 6.1-6.75 7.3-18.75.4-3.55 1-5.4 1.05-3.15 4.3-8.9 6.15-10.8 8.35-19.3 2.65-10.2.8-20.8-.65-3.9-2.4-11.35-1.4-6.95-1.4-13.45 0-12.6-7.4-19.5-2.15-1.95-6.95-5.75-4.4-3.65-7.05-7.65-3.6-5.4-8.2-14.5-4.5-7.25-12.65-11.2-2.6-1.25-10.1-2.15z" id="D"/><path fill="url(#g)" d="M-124.05-332.35q-5.55-7.35-13.3-11.5-26.05-13.95-53.95-4.35-4.65 1.7-12.2 1.05-14.25-1.2-21.05.5-10.35 2.65-16.55 12.95-.65 1.1-3.65 6.45-2.05 3.65-3.55 5.5-1.85 2.3-5.45 5.45-4.9 4.3-6.5 5.9-10.4 10.35-12.15 22.05-1.7 11.45 3.65 33.4 2.25 9.15 6.65 23.15 5.2 16.45 6.15 19.9 2.95 10.5 7.95 15.7 4.35 4.55 12.9 7.35 6.95 2.35 10.95 3.9 7.15 2.8 14.65 6.55 15.6 7.9 26.95 9.45 10.5 1.45 19.3-1.25 8.7-2.65 16.55-9.65 5.65-5.1 8.4-7.05 5.25-3.6 10.95-4.95 10.8-2.6 15.8-7.2 5.9-5.35 6.95-15.65 1-10 4.2-31.2 2.4-15.8 2.45-24 .1-11.65-3.5-22.3-3.95-11.8-13.6-26.25-3.2-4.8-9-13.9z" id="E"/><path fill="url(#h)" d="M-119.7-324.7q-12.3-12.3-28.2-19.05-16.5-7-34.5-7-18.05 0-34.55 7-15.95 6.75-28.2 19.05-12.3 12.3-19.05 28.2-7 16.5-7 34.5t7 34.5q6.75 15.95 19.05 28.25t28.2 19.05q16.5 7 34.55 7 18 0 34.5-7 15.9-6.75 28.2-19.05 12.3-12.3 19.05-28.25 7-16.5 7-34.5t-7-34.5q-6.75-15.9-19.05-28.2z" id="F"/><path fill="url(#i)" d="M-126.8-317.6q-10.9-10.9-25.05-16.9-14.6-6.2-30.55-6.2-16 0-30.65 6.2-14.1 6-25.05 16.9-10.9 10.9-16.9 25-6.2 14.65-6.2 30.6 0 15.95 6.2 30.6 6 14.1 16.9 25 10.9 10.9 25.05 16.9 14.65 6.2 30.65 6.2 15.95 0 30.55-6.2 14.15-6 25.05-16.9 10.9-10.9 16.9-25 6.2-14.65 6.2-30.6 0-15.95-6.2-30.6-6-14.1-16.9-25z" id="G"/><path fill="url(#j)" d="M-129.7-314.75q-10.35-10.35-23.7-16-13.85-5.9-29-5.9t-29.05 5.9q-13.4 5.65-23.75 16t-16 23.75q-5.9 13.85-5.9 29t5.9 29q5.65 13.35 16 23.7t23.75 16q13.9 5.9 29.05 5.9t29-5.9q13.35-5.65 23.7-16 10.3-10.3 16-23.7 5.85-13.85 5.85-29t-5.85-29q-5.7-13.4-16-23.75z" id="H"/><path fill="url(#k)" d="M-147.8-317.6q14.5 7.8 23.85 21.4-9-15.35-24.35-24.35-15.8-9.25-34.1-9.25-28.05 0-47.95 19.9-19.9 19.9-19.9 47.9 0 10.5 3.15 20.35 3.05 9.6 8.8 17.95-9.35-15.9-9.35-34.2 0-28 19.9-47.9t47.9-19.9q17.05 0 32.05 8.1z" id="I"/><path fill="#F13416" d="M-111.7-270.2l.05 2.6q0 15.5-6 29.7-5.85 13.7-16.45 24.25-10.6 10.6-24.3 16.45-14.2 6-29.7 6-4.15 0-8.2-.45 7 1.15 12.95 1.15 14.6 0 28-5.65 12.9-5.5 22.9-15.5 10-9.95 15.45-22.85 5.7-13.4 5.7-28 0-3.7-.4-7.7z" id="J"/><path fill="url(#l)" d="M-139.9-332.1q18.75 10.7 29.75 29-10.6-19.7-30-31.4-19.95-12.1-43.4-12.1-16.85 0-32.25 6.35-14.9 6.15-26.4 17.35-11.45 11.25-17.75 25.7-6.55 15.05-6.55 31.45 0 21.85 11.35 40.7-9.4-17.6-9.4-37.3 0-16.4 6.55-31.4 6.3-14.5 17.75-25.7 11.5-11.2 26.35-17.35 15.45-6.35 32.25-6.35 22.45 0 41.75 11.05z" id="K"/><path fill="#E03014" d="M-101.85-263.2l.05 2.7q0 16.1-6.25 30.85-6 14.2-17 25.2t-25.2 17.05q-14.75 6.25-30.85 6.25-4.1 0-8.6-.4 6.65 1.15 13.45 1.15 15.2 0 29.1-5.9 13.4-5.7 23.8-16.05 10.35-10.4 16.05-23.8 5.9-13.9 5.9-29.1 0-4.1-.45-7.95z" id="L"/><path fill="url(#m)" d="M-261.25-318.15q4.002-4.43 6.65-8.75-2.047 3.212-6.5 7.15-7.3 6.5-8.15 7.35-9.75 10-9.85 24.35 2.85-13.45 10.85-22.65 2.25-2.55 7-7.45z" id="M"/><path fill="url(#n)" d="M-163.7-360.85q-11.55-3.3-24.4 4.6 11.4-2.8 21.1-1.65 10.1 1.2 19.2 6.75-8.95-7.7-15.9-9.7z" id="N"/><path fill="url(#o)" d="M-176.95-166.75q-8.15 0-15.05-1.7-6.7-1.6-10.45-4.4 2.2 3.85 9.25 6.3 7.15 2.5 16.25 2.5t16.25-2.5q7-2.45 9.25-6.3-3.7 2.8-10.5 4.4-6.9 1.7-15 1.7z" id="O"/><path fill="url(#p)" d="M-90.1-274.45q2 4.25 2.25 11.15.25 7.1-1.4 15.05-1.65 7.95-4.7 14.35-3 6.25-6.55 9.35 4.2-1.35 8.1-7.75 3.95-6.55 5.75-15.45 1.85-8.9.85-16.35-.95-7.4-4.3-10.35z" id="P"/><path fill="url(#q)" d="M-208.5-354.95q-14.2-2.3-23.25 1.4-13.45 5.45-19.35 24.3 15.55-22.8 42.6-25.7z" id="Q"/><path fill="url(#r)" d="M-252.6-188.05q9.8 9.9 27.9 8.3-13.15-1.85-22.65-8.9-9.1-6.65-15.35-18.4 4.15 13 10.1 19z" id="R"/><path fill="url(#s)" d="M-143.6-250.05q6.8-8.45 6.25-18.55-.55-9.35-6.7-14.85-6.9-6.25-18.55-4.65-12.45 1.7-19.45 11.55-7-9.85-19.5-11.55-11.7-1.6-18.6 4.65-6.15 5.5-6.65 14.85-.55 10.05 6.2 18.55 7.1 8.85 18.45 19.75 13.45 12.4 20.1 18.7 6.65-6.3 20.05-18.7 11.35-10.9 18.4-19.75z" id="S"/><path fill="url(#t)" d="M-143.6-255q6.8-8.5 6.25-18.55-.55-9.35-6.7-14.85-6.9-6.25-18.55-4.65-12.45 1.65-19.45 11.55-7-9.9-19.5-11.55-11.7-1.6-18.6 4.65-6.15 5.5-6.65 14.85-.55 10.05 6.2 18.55 7.1 8.8 18.45 19.75 13.45 12.4 20.1 18.7 6.65-6.3 20.05-18.7 11.35-10.95 18.4-19.75z" id="T"/><path fill="url(#u)" d="M-193.35-275.9q2.5 2.05 3.6.6 1.15-1.5-.5-4.4-2.55-4.35-6.35-6.6t-8.55-2.25q-9.7 0-14.85 8.85-1.65 2.9-.55 4.4 1.15 1.45 3.65-.6 5.7-4.9 11.75-4.9 5.95 0 11.8 4.9z" id="U"/><path fill="url(#v)" d="M-159-280.8q6.05 0 11.8 4.9 2.45 2.1 3.6.6 1.1-1.5-.6-4.4-2.45-4.35-6.3-6.6-3.75-2.25-8.5-2.25t-8.55 2.25q-3.85 2.25-6.3 6.6-1.7 2.9-.6 4.4 1.15 1.5 3.6-.6 5.85-4.9 11.85-4.9z" id="V"/><path fill="url(#w)" d="M-148.2-255.75q1.85-2.45 2.95-4.6-6.8 7.6-17.7 17.05-12.75 10.75-19.1 16.15-6.35-5.4-19.15-16.15-10.8-9.4-17.65-17.05 1.2 2.45 2.95 4.6 6.2 7.75 16.2 17.35 11.8 10.9 17.65 16.45 5.85-5.55 17.6-16.45 10.05-9.65 16.25-17.35z" id="W"/></defs><use xlink:href="#x"/><use xlink:href="#y" transform="matrix(1.00095 0 0 1.00095 323.489 431.994)"/><use xlink:href="#z" transform="matrix(1.00095 0 0 1.00095 323.489 431.994)"/><use xlink:href="#A" transform="matrix(1.00095 0 0 1.00095 323.489 431.994)"/><use xlink:href="#B" transform="matrix(1.00095 0 0 1.00095 323.489 431.994)"/><use xlink:href="#C" transform="matrix(1.00095 0 0 1.00095 323.489 431.994)"/><use xlink:href="#D" transform="matrix(1.00095 0 0 1.00095 323.489 431.994)"/><use xlink:href="#E" transform="matrix(1.00095 0 0 1.00095 323.489 431.994)"/><use xlink:href="#F" transform="matrix(1.00095 0 0 1.00095 323.489 431.994)"/><use xlink:href="#G" transform="matrix(1.00095 0 0 1.00095 323.489 431.994)"/><use xlink:href="#H" transform="matrix(1.00095 0 0 1.00095 323.489 431.994)"/><use xlink:href="#I" transform="matrix(1.00095 0 0 1.00095 323.489 431.994)"/><use xlink:href="#J" transform="matrix(1.00095 0 0 1.00095 323.489 431.994)"/><use xlink:href="#K" transform="matrix(1.00095 0 0 1.00095 323.489 431.994)"/><use xlink:href="#L" transform="matrix(1.00095 0 0 1.00095 323.489 431.994)"/><use xlink:href="#M" transform="matrix(1.00095 0 0 1.00095 323.489 431.994)"/><use xlink:href="#N" transform="matrix(1.00095 0 0 1.00095 323.489 431.994)"/><use xlink:href="#O" transform="matrix(1.00095 0 0 1.00095 323.489 431.994)"/><use xlink:href="#P" transform="matrix(1.00095 0 0 1.00095 323.489 431.994)"/><use xlink:href="#Q" transform="matrix(1.00095 0 0 1.00095 323.489 431.994)"/><use xlink:href="#R" transform="matrix(1.00095 0 0 1.00095 323.489 431.994)"/><use xlink:href="#S" transform="matrix(1.00095 0 0 1.00095 323.489 431.994)"/><use xlink:href="#T" transform="matrix(1.00095 0 0 1.00095 323.489 431.994)"/><use xlink:href="#U" transform="matrix(1.00095 0 0 1.00095 323.489 431.994)"/><use xlink:href="#V" transform="matrix(1.00095 0 0 1.00095 323.489 431.994)"/><use xlink:href="#W" transform="matrix(1.00095 0 0 1.00095 323.489 431.994)"/></svg>