<svg xmlns="http://www.w3.org/2000/svg" xmlns:xlink="http://www.w3.org/1999/xlink" preserveAspectRatio="none" width="284" height="320"><defs><linearGradient id="a" gradientUnits="userSpaceOnUse" x1="355.875" y1="746.8" x2="512.525" y2="746.8" spreadMethod="pad"><stop offset="0%" stop-color="#9A3A0B"/><stop offset="100%" stop-color="#481007"/></linearGradient><linearGradient id="b" gradientUnits="userSpaceOnUse" x1="520.862" y1="744.25" x2="352.537" y2="744.25" spreadMethod="pad"><stop offset="0%" stop-color="#B25610"/><stop offset="100%" stop-color="#C27527"/></linearGradient><linearGradient id="c" gradientUnits="userSpaceOnUse" x1="482.85" y1="747.15" x2="345.15" y2="747.15" spreadMethod="pad"><stop offset="0%" stop-color="#BE6B1B"/><stop offset="100%" stop-color="#E9D1B4"/></linearGradient><linearGradient id="d" gradientUnits="userSpaceOnUse" x1="431.7" y1="698.563" x2="443.1" y2="752.237" spreadMethod="pad"><stop offset="0%" stop-color="#521408"/><stop offset="100%" stop-color="#9F3F0C"/></linearGradient><linearGradient id="e" gradientUnits="userSpaceOnUse" x1="506.875" y1="746.15" x2="385.825" y2="746.15" spreadMethod="pad"><stop offset="0%" stop-color="#7E290B"/><stop offset="32.941%" stop-color="#9F3F0C"/><stop offset="100%" stop-color="#C57E35"/></linearGradient><linearGradient id="f" gradientUnits="userSpaceOnUse" x1="435.875" y1="748.9" x2="448.425" y2="748.9" spreadMethod="pad"><stop offset="0%" stop-color="#521408"/><stop offset="100%" stop-color="#B25610"/></linearGradient><linearGradient id="g" gradientUnits="userSpaceOnUse" x1="469.862" y1="750.05" x2="400.938" y2="750.05" spreadMethod="pad"><stop offset="0%" stop-color="#7E290B"/><stop offset="49.02%" stop-color="#9F3F0C"/><stop offset="100%" stop-color="#C57E35"/></linearGradient><linearGradient id="h" gradientUnits="userSpaceOnUse" x1="519.662" y1="649.75" x2="546.438" y2="641.05" spreadMethod="pad"><stop offset="0%" stop-color="#CF9352"/><stop offset="100%" stop-color="#DCB489"/></linearGradient><linearGradient id="i" gradientUnits="userSpaceOnUse" x1="519.3" y1="700.763" x2="538.4" y2="634.138" spreadMethod="pad"><stop offset="0%" stop-color="#AE510F"/><stop offset="100%" stop-color="#671D0A"/></linearGradient><linearGradient id="j" gradientUnits="userSpaceOnUse" x1="540.863" y1="669.362" x2="544.038" y2="639.138" spreadMethod="pad"><stop offset="0%" stop-color="#A3440D"/><stop offset="100%" stop-color="#B25610"/></linearGradient><linearGradient id="k" gradientUnits="userSpaceOnUse" x1="364.913" y1="683.55" x2="492.688" y2="683.55" spreadMethod="pad"><stop offset="0%" stop-color="#A74A0E"/><stop offset="100%" stop-color="#481007"/></linearGradient><linearGradient id="l" gradientUnits="userSpaceOnUse" x1="406.913" y1="746.25" x2="469.587" y2="746.25" spreadMethod="pad"><stop offset="0%" stop-color="#9A3A0B"/><stop offset="100%" stop-color="#481007"/></linearGradient><linearGradient id="m" gradientUnits="userSpaceOnUse" x1="409.863" y1="742.15" x2="467.238" y2="742.15" spreadMethod="pad"><stop offset="0%" stop-color="#B25610"/><stop offset="100%" stop-color="#A3440D"/></linearGradient><linearGradient id="n" gradientUnits="userSpaceOnUse" x1="412.9" y1="729.8" x2="463.5" y2="729.8" spreadMethod="pad"><stop offset="0%" stop-color="#9A3A0B"/><stop offset="100%" stop-color="#481007"/></linearGradient><linearGradient id="o" gradientUnits="userSpaceOnUse" x1="454.85" y1="744.7" x2="402.75" y2="744.7" spreadMethod="pad"><stop offset="0%" stop-color="#C27527"/><stop offset="100%" stop-color="#E2C39D"/></linearGradient><linearGradient id="p" gradientUnits="userSpaceOnUse" x1="372.875" y1="695.4" x2="489.225" y2="695.4" spreadMethod="pad"><stop offset="0%" stop-color="#B56829"/><stop offset="100%" stop-color="#72230B"/></linearGradient><linearGradient id="q" gradientUnits="userSpaceOnUse" x1="394.6" y1="669.337" x2="394.6" y2="708.163" spreadMethod="pad"><stop offset="0%" stop-color="#C57E35"/><stop offset="100%" stop-color="#9F3F0C"/></linearGradient><linearGradient id="r" gradientUnits="userSpaceOnUse" x1="403.75" y1="707.337" x2="403.75" y2="666.962" spreadMethod="pad"><stop offset="0%" stop-color="#BD6413"/><stop offset="100%" stop-color="#DCB489"/></linearGradient><linearGradient id="s" gradientUnits="userSpaceOnUse" x1="396.25" y1="704.313" x2="396.25" y2="663.987" spreadMethod="pad"><stop offset="0%" stop-color="#BD6413"/><stop offset="100%" stop-color="#DCB489"/></linearGradient><linearGradient id="t" gradientUnits="userSpaceOnUse" x1="371.9" y1="661.05" x2="480.7" y2="661.05" spreadMethod="pad"><stop offset="0%" stop-color="#72230B"/><stop offset="100%" stop-color="#3A0E05"/></linearGradient><linearGradient id="u" gradientUnits="userSpaceOnUse" x1="377.863" y1="707.9" x2="502.137" y2="707.9" spreadMethod="pad"><stop offset="0%" stop-color="#7E290B"/><stop offset="100%" stop-color="#481007"/></linearGradient><linearGradient id="v" gradientUnits="userSpaceOnUse" x1="399.875" y1="727.8" x2="488.425" y2="727.8" spreadMethod="pad"><stop offset="0%" stop-color="#A74B0E"/><stop offset="100%" stop-color="#681D09"/></linearGradient><linearGradient id="w" gradientUnits="userSpaceOnUse" x1="399.887" y1="727.5" x2="488.412" y2="727.5" spreadMethod="pad"><stop offset="0%" stop-color="#A74B0E"/><stop offset="100%" stop-color="#681D09"/></linearGradient><linearGradient id="x" gradientUnits="userSpaceOnUse" x1="399.887" y1="726.75" x2="488.412" y2="726.75" spreadMethod="pad"><stop offset="0%" stop-color="#A74B0E"/><stop offset="100%" stop-color="#681D09"/></linearGradient><linearGradient id="y" gradientUnits="userSpaceOnUse" x1="399.875" y1="725.45" x2="488.425" y2="725.45" spreadMethod="pad"><stop offset="0%" stop-color="#A74B0E"/><stop offset="100%" stop-color="#681D09"/></linearGradient><linearGradient id="z" gradientUnits="userSpaceOnUse" x1="399.875" y1="723.6" x2="488.425" y2="723.6" spreadMethod="pad"><stop offset="0%" stop-color="#A74B0E"/><stop offset="100%" stop-color="#681D09"/></linearGradient><linearGradient id="A" gradientUnits="userSpaceOnUse" x1="399.887" y1="720.9" x2="488.412" y2="720.9" spreadMethod="pad"><stop offset="0%" stop-color="#A74B0E"/><stop offset="100%" stop-color="#681D09"/></linearGradient><linearGradient id="B" gradientUnits="userSpaceOnUse" x1="398.875" y1="716.5" x2="488.925" y2="716.5" spreadMethod="pad"><stop offset="0%" stop-color="#A74B0E"/><stop offset="100%" stop-color="#681D09"/></linearGradient><linearGradient id="C" gradientUnits="userSpaceOnUse" x1="398.862" y1="706.75" x2="488.938" y2="706.75" spreadMethod="pad"><stop offset="0%" stop-color="#A74B0E"/><stop offset="100%" stop-color="#681D09"/></linearGradient><linearGradient id="D" gradientUnits="userSpaceOnUse" x1="399.875" y1="726.75" x2="488.425" y2="726.75" spreadMethod="pad"><stop offset="0%" stop-color="#A74B0E"/><stop offset="100%" stop-color="#681D09"/></linearGradient><linearGradient id="E" gradientUnits="userSpaceOnUse" x1="399.887" y1="716.5" x2="488.412" y2="716.5" spreadMethod="pad"><stop offset="0%" stop-color="#A74B0E"/><stop offset="100%" stop-color="#681D09"/></linearGradient><linearGradient id="F" gradientUnits="userSpaceOnUse" x1="399.9" y1="706.7" x2="488.8" y2="706.7" spreadMethod="pad"><stop offset="0%" stop-color="#A74B0E"/><stop offset="100%" stop-color="#681D09"/></linearGradient><linearGradient id="G" gradientUnits="userSpaceOnUse" x1="479.837" y1="641.8" x2="373.462" y2="641.8" spreadMethod="pad"><stop offset="0%" stop-color="#5C1709"/><stop offset="100%" stop-color="#7E290B"/></linearGradient><linearGradient id="H" gradientUnits="userSpaceOnUse" x1="440.45" y1="650.3" x2="440.45" y2="619.2" spreadMethod="pad"><stop offset="0%" stop-color="#AE510F"/><stop offset="100%" stop-color="#7E290B"/></linearGradient><linearGradient id="I" gradientUnits="userSpaceOnUse" x1="490.1" y1="615.275" x2="376.8" y2="633.225" spreadMethod="pad"><stop offset="0%" stop-color="#9F3F0C"/><stop offset="100%" stop-color="#D19A63"/></linearGradient><linearGradient id="J" gradientUnits="userSpaceOnUse" x1="398.887" y1="617.7" x2="511.113" y2="617.7" spreadMethod="pad"><stop offset="0%" stop-color="#521408"/><stop offset="100%" stop-color="#671D0A"/></linearGradient><linearGradient id="K" gradientUnits="userSpaceOnUse" x1="477.862" y1="608.4" x2="407.938" y2="608.4" spreadMethod="pad"><stop offset="0%" stop-color="#A3440D"/><stop offset="100%" stop-color="#72230B"/></linearGradient><linearGradient id="L" gradientUnits="userSpaceOnUse" x1="383.875" y1="623.55" x2="477.825" y2="623.55" spreadMethod="pad"><stop offset="0%" stop-color="#B05E22"/><stop offset="100%" stop-color="#E9D1B4"/></linearGradient><linearGradient id="M" gradientUnits="userSpaceOnUse" x1="400.887" y1="629.3" x2="480.012" y2="629.3" spreadMethod="pad"><stop offset="0%" stop-color="#D19A63"/><stop offset="100%" stop-color="#E9D1B4"/></linearGradient><linearGradient id="N" gradientUnits="userSpaceOnUse" x1="418.013" y1="617.95" x2="480.188" y2="633.45" spreadMethod="pad"><stop offset="0%" stop-color="#E2C39D"/><stop offset="100%" stop-color="#F8F2EB"/></linearGradient><linearGradient id="O" gradientUnits="userSpaceOnUse" x1="487.85" y1="632.25" x2="413.15" y2="632.25" spreadMethod="pad"><stop offset="0%" stop-color="#E5C8A7"/><stop offset="100%" stop-color="#C98644"/></linearGradient><linearGradient id="P" gradientUnits="userSpaceOnUse" x1="419.25" y1="622.263" x2="419.25" y2="639.237" spreadMethod="pad"><stop offset="0%" stop-color="#E0BD95"/><stop offset="100%" stop-color="#EEDDC6"/></linearGradient><linearGradient id="Q" gradientUnits="userSpaceOnUse" x1="448.863" y1="660.55" x2="395.637" y2="660.55" spreadMethod="pad"><stop offset="0%" stop-color="#A3440D"/><stop offset="100%" stop-color="#C98644"/></linearGradient><linearGradient id="R" gradientUnits="userSpaceOnUse" x1="440.95" y1="675.2" x2="440.95" y2="709.6" spreadMethod="pad"><stop offset="0%" stop-color="#FE3709"/><stop offset="100%" stop-color="#D92E13"/></linearGradient><linearGradient id="S" gradientUnits="userSpaceOnUse" x1="429" y1="683.3" x2="429" y2="676.8" spreadMethod="pad"><stop offset="0%" stop-color="#FE3E20"/><stop offset="100%" stop-color="#FBD8C5"/></linearGradient><linearGradient id="T" gradientUnits="userSpaceOnUse" x1="452.8" y1="683.3" x2="452.8" y2="676.8" spreadMethod="pad"><stop offset="0%" stop-color="#FE3E20"/><stop offset="100%" stop-color="#FBD8C5"/></linearGradient><path fill="#FFF" fill-opacity="0" d="M0 320h284V0H0v320z" id="U"/><path fill="url(#a)" d="M347.15 746.8q0 10.1 7.4 19.4 7.15 8.95 20.15 15.85 27.55 14.65 66.3 14.65t66.25-14.65q13-6.9 20.15-15.85 7.4-9.3 7.4-19.4 0-10.15-7.4-19.4-7.15-8.95-20.15-15.85-27.5-14.65-66.25-14.65-38.8 0-66.3 14.65-13 6.9-20.15 15.85-7.4 9.25-7.4 19.4z" id="V"/><path fill="url(#b)" d="M347.5 744.25q0 9.65 7.35 18.55 7.15 8.55 20.1 15.15 27.45 14 66.05 14 38.6 0 66-14 12.95-6.6 20.1-15.15 7.35-8.9 7.35-18.55 0-9.7-7.35-18.55-7.15-8.55-20.1-15.2-27.4-14-66-14t-66.05 14q-12.95 6.65-20.1 15.2-7.35 8.85-7.35 18.55z" id="W"/><path fill="url(#c)" d="M366.65 721.15q11.75-9.75 31.8-15.6-21.55 5.7-34.35 16-13.2 10.6-13.2 22.95 0 8.95 7.1 17.2 6.85 7.9 19.35 14.05 26.4 13 63.65 13 18.15 0 34.8-3.45 16.1-3.3 28.55-9.4-12.15 4.95-26.95 7.65-15.4 2.8-31.95 2.8-37.5 0-64.2-12.8-12.6-6.05-19.5-13.85-7.15-8.1-7.15-16.9 0-11.6 12.05-21.65z" id="X"/><path fill="url(#d)" d="M357.8 742.2q0 16.3 24.45 27.9 24.4 11.55 58.75 11.55t58.75-11.55q24.4-11.6 24.4-27.9 0-16.25-24.4-27.8-24.45-11.55-58.75-11.55-34.35 0-58.75 11.55-24.45 11.55-24.45 27.8z" id="Y"/><path fill="url(#e)" d="M366.55 747.55q0 7.75 7.1 14.85 6.9 6.85 19.25 11.95 21.6 7.3 48.1 7.3 34.35 0 58.75-11.55 24.4-11.6 24.4-27.9 0-8.75-8-16.75-11.6-6.85-28.8-10.75-17.7-4-37.65-4-34.35 0-58.75 10.8-24.4 10.85-24.4 26.05z" id="Z"/><path fill="url(#f)" d="M441 726.45q-18.15 0-31.05 6.6-12.9 6.6-12.9 15.85 0 9.3 12.9 15.9 12.9 6.55 31.05 6.55t31-6.55q12.9-6.6 12.9-15.9 0-9.25-12.9-15.85t-31-6.6z" id="aa"/><path fill="url(#g)" d="M441 728.8q-17.05 0-29.2 6.25-12.15 6.2-12.15 14.95 0 8.8 12.15 15.05 12.1 6.2 29.2 6.2t29.2-6.2q12.1-6.25 12.1-15.05 0-8.75-12.1-14.95-12.15-6.25-29.2-6.25z" id="ab"/><path fill="#BB6E2B" d="M545.75 634.45q-7.25-5.1-15.9-3.05-5.6 1.35-11.25 5.25-5.45 3.75-9.85 9.15l-3.9 7.9 15.4-9.1q5.6-4.6 11.1-5.85 1.95-.5 3.9-.5 1.9 0 3.45.5l.05.05q2.45.8 3.95 2.1 1.95 1.6 2.75 4.05l8.95 3.9q-1.4-9.25-8.65-14.4z" id="ac"/><path fill="#C98644" d="M507.7 690.45q3.9-2.9 13.75-8 2.7-1.35 8-4.15 5.85-3.25 9.4-5.95 4.85-3.5 8.4-8.05 3.3-4.3 4.75-9 .55-1.75 2-2.2.95-.3.6-2.1l-.2-2.15-8.95-3.9.3 1.15q.65 3.3-.6 6.9-1.05 3.4-3.5 6.65-2.55 3.25-7 6.6-3.4 2.55-8.55 5.4-3.45 1.9-7.7 4.05-11 5.65-15.55 9.1-7.5 5.7-11.1 13.65-.65 1.4-.15 2.85.5 1.45 1.8 2.1 1.35.65 2.75.15 1.4-.55 2.05-1.95 2.9-6.3 9.5-11.15z" id="ad"/><path fill="url(#h)" d="M544.75 637.9q-6.7-3.8-14.3-2.05-4.8 1.15-9.85 4.4-4.75 3.05-9 7.55l-6.45 11.6 14-8.75q6.25-5.8 12.9-7.45 1.85-.5 3.9-.5 1.5 0 3.45.6 1.9.6 3.15 1.5l11.45 4.25q-2.65-7.45-9.25-11.15z" id="ae"/><path fill="url(#i)" d="M549.65 642.15q-2.9-2.4-6.3-3.45h-.05v-.1q-2.8-.85-5.55-.85-3 0-5.6.7-7 1.75-13.1 6.4-6.4 4.9-11.25 12.6-.85 1.3-.55 2.85.3 1.5 1.55 2.35 1.25.85 2.7.55 1.5-.35 2.35-1.7 3.65-5.8 8.95-10.05 5.45-4.35 10.9-5.65 1.85-.5 3.9-.5 1.55 0 3.4.5l.05.1q2.3.7 4.05 2.05 2.45 2.25 2.95 5.2.65 3.3-.6 6.9-1.1 3.65-3.45 6.65-2.65 3.3-6.95 6.6-3.15 2.35-8.6 5.4l-7.75 4.1q-10.95 5.6-15.55 9.05-7.5 5.7-11.1 13.65-.65 1.4-.15 2.85.5 1.45 1.85 2.1 1.35.7 2.8.15 1.4-.55 2.05-1.95 2.9-6.3 9.45-11.15 4-3 13.75-8 5.45-2.75 7.95-4.15 5.8-3.2 9.4-5.9 4.95-3.6 8.4-8.1 3.25-4.05 4.85-9 1.75-5.55.7-10.8-1.05-5.7-5.45-9.4z" id="af"/><path fill="url(#j)" d="M550.8 664q5.9-10.8-.25-17.85-6.15-7-18.05-3.75 12.1-1.95 16.65 5.45 4.4 7.1-1.05 17.3-3.05 5.85-8.55 9.25 7.4-3.3 11.25-10.4z" id="ag"/><path fill="url(#k)" d="M369.55 648.55q1.3 6.15 3.55 20.85 5.3 29.1 22 46.65 18.15 19.2 45.35 19.2 18.45 0 33-9 12.15-7.55 18.4-25.3 3.3-9.2 8.05-34.9 1.75-13.8 2.55-19.1 1.35-8.75 5.7-14.9l-67.7 11.45-77.5-11.65q4.4 6.35 6.6 16.7z" id="ah"/><path fill="url(#l)" d="M404.55 740.9h-1.65v5.35q0 7.5 11 12.85 11.05 5.3 26.55 5.3t26.55-5.3q11-5.35 11-12.85v-5.35h-1.65q-3.55-5.6-13.4-9.15-10-3.65-22.5-3.65-12.55 0-22.5 3.65-9.85 3.55-13.4 9.15z" id="ai"/><path fill="url(#m)" d="M478 742.15q0-7.5-11-12.8-11.05-5.35-26.55-5.35t-26.55 5.35q-11 5.3-11 12.8 0 7.5 11 12.85 11.05 5.3 26.55 5.3T467 755q11-5.35 11-12.85z" id="aj"/><path fill="url(#n)" d="M470.8 729.85q0-5.6-8.95-9.55-8.9-3.95-21.4-3.95-12.55 0-21.4 3.95-8.9 3.95-8.9 9.55 0 5.5 8.9 9.4 8.9 3.95 21.4 3.95 12.5 0 21.4-3.95 8.95-3.9 8.95-9.4z" id="ak"/><path fill="url(#o)" d="M409 740.25q0-3.9 4.55-7.25-7.15 3.95-7.15 8.9 0 6 9.9 10.25t23.8 4.25q9.15 0 17.05-2 7.7-1.9 12.15-5.2-4.75 2.6-11.6 4.1-7.1 1.5-15 1.5-13.9 0-23.8-4.25-9.9-4.3-9.9-10.3z" id="al"/><path fill="url(#p)" d="M377.55 657.6q-2.55-1.05-4.55-2 3.85 26.8 12.7 46.95.45 1.2 1.8 4 6.2 9.2 14.1 15.5-6.8-9.1-12.15-21.3-8.1-18.7-11.9-43.15m102.65 6.65l-5 .85q-2.2 18.45-6.45 36.05-3.25 13.4-8.2 28.3 7.7-34.1 10.55-63.7l-5.3.65q-1.7 17.6-4.9 35.7-2.3 12.9-6.1 29.8 2.6-19.15 3.95-30.7 2.05-18.15 3.1-34.45l-5.4.45q-1.1 16.75-3.3 35.45-1.35 11.6-4.1 31.55l.05-1.15q2.65-38.85 3.55-65.55l-5.6.2q-.8 23.1-3.55 64.95 0 1.25-.15 2.6 3.65-.3 5.7-.55 2.15-.25 5.3-.85h.1q1.05-.2 5.45-1.45 1.75-.55 5.15-1.85l.4-.2q2.8-1.2 6.05-2.95 5.8-13.25 9.5-25.8 5.55-18.25 8.35-39.4l-4.9 1.15q-2.65 19.15-7.85 36.8-4.25 14.05-10 26.8 9.95-31.3 13.6-62.7m-36.85 3.5h-5.85v67.4l-.1-2.5q-2.65-38.8-3.55-64.95l-5.6-.2q.75 21.85 3.5 65.55l.1 1.1q-2.75-19.8-4.1-31.5-2.2-18.7-3.35-35.45l-5.4-.45q1.8 27.35 7.15 65.15-3.75-16.3-6.15-29.8-3.2-17.95-4.95-35.7l-5.15-.65q1.55 17.1 4.55 34.55 2.25 13.15 5.85 29.15-4.9-14.7-8.15-28.3-4.15-17.55-6.4-36.05l-5-.85q2.15 19 6.4 37.05 3.25 13.75 8.25 29.05 2.4 1 5.55 2.05 3.9 1.1 5.4 1.4l.1.05h.15q2.85.6 5.3.85 1.8.25 5.6.55h5.85v-67.5z" id="am"/><path fill="url(#q)" d="M392.75 640.4l-17.8-5.6q3 4.25 4.65 10.45 1.15 4.15 2.4 12.5.15 1 .65 3.15.3 1.55.35 2.45.3 1.95 1.25 5.45 1 3.9 1.35 5.75 2.85 14.05 7.2 25.9 5.15 13.9 11.4 21.8 2.05 2.55 3.85 2.8 3.2.45 6.2 2.1Q405.6 713.2 402 698q-1.3-5.25-5.25-31.9-.95-8.1-1.45-12.25-.95-7.35-2.55-13.45z" id="an"/><path fill="url(#r)" d="M396.4 663.35l-4.9-1.15q2.85 21.05 8.35 39.4 3.55 11.9 9.5 25.8 2.75 1.5 6.65 3.2-6.9-14.6-11.75-30.45-5.2-17.65-7.85-36.8z" id="ao"/><path fill="url(#s)" d="M387.05 660.9q-1.45-.35-4.7-1.4 3.25 23 10.4 42.6 4 10.9 8.9 20 4.25 3.3 8.45 5.65-8-12.8-13.25-27.35-6.7-18.3-9.8-39.5z" id="ap"/><path fill="url(#t)" d="M469.8 664.65q-14.2 1.95-29.35 1.95-22.6 0-41.75-4.1-18.6-4-28.5-10.7l.7 4.25q10.05 6.5 28.4 10.3 18.85 3.95 41.15 3.95 15.25 0 29.3-1.95 13.55-1.85 24.3-5.25l.15-3.75q-10.75 3.4-24.4 5.3z" id="aq"/><path fill="url(#u)" d="M440.45 720.35q-16.05 0-31.15-6.2-23.75-9.7-33.55-33.55 7.05 24.7 22.95 39.05 17.3 15.6 41.75 15.6t41.75-15.6q15.9-14.35 23-39.05-10 23.9-33.6 33.55-15.05 6.2-31.15 6.2z" id="ar"/><path fill="url(#v)" d="M437.5 735.25h5.85v-14.9q-2.9.1-5.85 0v14.9z" id="as"/><path fill="url(#w)" d="M430.9 719.8l1 14.9q1.8.25 5.6.55l-.1-2.6q-.6-8.2-.8-12.4-2.95-.1-5.7-.45z" id="at"/><path fill="url(#x)" d="M426.35 733.8q2.65.6 5.55.9l-2-15-5.55-.95 2 15.05z" id="au"/><path fill="url(#y)" d="M420.95 732.4q4 1.1 5.65 1.45-2-8.5-3.4-15.4-2.05-.4-5.55-1.35 2.3 11.1 3.3 15.3z" id="av"/><path fill="url(#z)" d="M415.4 730.35q3.35 1.3 5.9 2.15-2.95-8.7-5-15.85-3.1-.9-5.7-1.95 1.85 6.45 4.8 15.65z" id="aw"/><path fill="url(#A)" d="M409.35 727.3q2.55 1.5 6.65 3.3-4.1-8.85-7.05-16.6-3.3-1.4-6-2.8 3.15 8.8 6.4 16.1z" id="ax"/><path fill="url(#B)" d="M400.65 709.9q-4.15-2.55-6.75-4.6 3.8 9.55 7.75 16.8 4.25 3.3 8.45 5.65-5.25-8.3-9.45-17.85z" id="ay"/><path fill="url(#C)" d="M387.5 706.55q6.15 9.1 14 15.5-6.4-8.8-11.55-20.3-4.95-4.75-8.6-10.3 2.5 7 4.35 11.1.65 1.65 1.8 4z" id="az"/><path fill="url(#w)" d="M449.05 734.7l.95-14.9q-2.85.35-5.7.45-.2 4.2-.8 12.4 0 1.25-.15 2.6 3.65-.3 5.7-.55z" id="aA"/><path fill="url(#D)" d="M448.95 734.7q2.85-.3 5.55-.9l2.05-15.05-5.5.95-2.1 15z" id="aB"/><path fill="url(#y)" d="M454.35 733.85q1.35-.3 5.55-1.45 1.4-5.9 3.35-15.3-3.35.95-5.5 1.35l-3.4 15.4z" id="aC"/><path fill="url(#z)" d="M459.55 732.5q2.5-.8 5.9-2.15 2.2-6.5 4.85-15.65-2.6 1.05-5.7 1.95-1.75 6.1-5.05 15.85z" id="aD"/><path fill="url(#A)" d="M464.9 730.6q3.9-1.7 6.6-3.3 3.6-8 6.4-16.1-2.25 1.2-5.95 2.8-2.6 7.1-7.05 16.6z" id="aE"/><path fill="url(#E)" d="M470.8 727.75q4.55-2.55 8.4-5.65 3.65-6.6 7.8-16.8-2.95 2.35-6.8 4.6-3.9 9.05-9.4 17.85z" id="aF"/><path fill="url(#F)" d="M493.4 706.55l1.8-4q2.4-5.5 4.3-11.15-3.65 5.7-8.55 10.35-5.05 11.35-11.6 20.3 8-6.35 14.05-15.5z" id="aG"/><path fill="#7E290B" d="M484.6 704.95q-4.3 9.55-10.85 19.2 15-13.85 17.55-16.8 7.7-8.7 11.9-20.6 2.95-8.35 4.6-17.35 2.2-14.7 3.5-20.85 2.2-10.35 6.65-16.7l-19.6 2.95q-1.65 6.15-2.8 13.85-.65 4.35-1.8 12.65 0 .65-.15 1.15-.45 2.8-.4 9.85.05 6.25-.8 9.65-3.2 12.7-7.8 23z" id="aH"/><path fill="#5C1709" d="M485.35 716.6l.5-.5.85-1.05.5-.5q.55-.55.65-.7.05-.05.3-.35l.5-.6q.2-.3.35-.4l.7-.95q.7-.8.8-1 .1 0 .1-.1l.7-1q.15-.05.15-.15l.65-.95q.15-.15.15-.2l2.3-3.4.05-.05q6.8-10.75 10.6-24.1-8.05 19.3-25 29.3-4.45 10.35-9.85 18.05l.2-.05q1.9-1.05 2.6-1.55.35-.1.8-.5.15 0 .2-.15.2-.05.75-.4.1-.15.2-.15 1.5-1.1 2.25-1.6l.35-.2 1.5-1.25q.15-.05.35-.25l1.95-1.6q.35-.3.4-.35l1.35-1.3q.15-.1.85-.8l.85-.85q.35-.3.4-.35z" id="aI"/><path fill="#A3440D" d="M470.8 727.75q4.55-2.55 8.4-5.65 5.1-9.4 8.95-20 7.15-19.3 10.35-42.6-2.65.9-4.65 1.4-3.25 21.9-9.8 39.5-5.25 14.55-13.25 27.35z" id="aJ"/><path fill="#A3440D" d="M507.85 655.6q-1.4.7-4.5 2-3.8 24.45-11.9 43.15-5.15 11.85-12.1 21.3 7.75-6.2 14.05-15.5l1.8-4q8.8-20.3 12.65-46.95z" id="aK"/><path fill="#671D0A" d="M509.95 656.05l.35-2.1v-.1l.25-1.15v-.05l.1-.85q-6.05 4.15-16.6 7.6l-.6 3.9q10.05-3.15 16.5-7.25z" id="aL"/><path fill="url(#G)" d="M440.45 653.1q24.25 0 44.55-4.3 19.75-4.25 29.65-11.2 1.55-3.75 3.85-7.05l-78.05 11.6-78.1-11.6q2.25 3 3.9 7.05 9.85 6.95 29.65 11.2 20.3 4.3 44.55 4.3z" id="aM"/><path fill="#72230B" d="M518.5 630.55l-19.8 2.95q-1.65 6.05-2.7 12.45 12.05-3.75 18.65-8.35 1.55-3.75 3.85-7.05z" id="aN"/><path fill="url(#H)" d="M359.25 623.85q0 10.95 23.85 18.75 23.85 7.8 57.35 7.8t57.3-7.8q23.85-7.8 23.85-18.75 0-11-23.85-18.8-23.8-7.8-57.3-7.8-33.55 0-57.35 7.8-23.85 7.8-23.85 18.8z" id="aO"/><path fill="url(#I)" d="M407.7 644.1q26.45 3.3 53.4.55 36.15-3.7 48.5-17.85 3.35-3.85-2.75-8.35-5.65-4.15-18.05-7.9-27.05-8.25-56.75-8.25-29.35 0-49 5.85-19.9 5.95-19.9 15.1 0 7 12.5 12.7 12.2 5.6 32.05 8.15z" id="aP"/><path fill="url(#J)" d="M463.5 630.15q6.35.85 17.6 2.6 18.5 2.75 25.2-1.25 7.25-4.45 7.25-9.15 0-8.75-21.45-14.9t-51.65-6.15q-30.25 0-51.7 6.15-21.45 6.15-21.45 14.9 0 4.7 7.3 9.15 6.75 4 27.8 1.25 6-.75 19.4-2.6 12.05-1.4 21.25-1.4 9.25 0 20.45 1.4z" id="aQ"/><path fill="url(#K)" d="M464.7 609.2q11.05 1 18.35 2.8-3.2-3.1-15.05-5.15-12.05-2.05-27.55-2.05t-27.55 2.05q-11.85 2.05-15.05 5.15 7.3-1.8 18.35-2.8 11.35-1.05 24.25-1.05t24.25 1.05z" id="aR"/><path fill="url(#L)" d="M409.05 633.65q23.6-5.35 33.8-5.35 10.65 0 32 5.25 16.9 4.15 24.1 1.4 4.6-1.7 7.9-3.85-.4-8.45-19.75-14.4-19.45-6-46.65-6-27.15 0-46.65 6-19.4 5.95-19.8 14.4 4.1 2.5 8.75 4.1 7.25 2.7 26.3-1.55z" id="aS"/><path fill="url(#M)" d="M407.4 641.15q15.65 2.3 33.05 2.3t33-2.3q15-2.2 25.25-6.05 1.6-1.9 1.6-3.75 0-6.65-17.55-11.35-17.6-4.75-42.3-4.75-24.7 0-42.3 4.75-17.6 4.7-17.6 11.35 0 1.75 1.6 3.75 10.3 3.85 25.25 6.05z" id="aT"/><path fill="url(#N)" d="M456.3 620.75q12.3 2 20.15 5.4 16.4 7.25 6.2 13.4 9.25-1.9 16.05-4.45 1.6-1.9 1.6-3.75 0-6.65-17.55-11.35-17.6-4.75-42.3-4.75-17.4 0-32.1 2.55-14.3 2.45-21.75 6.5 8.2-2.6 18.9-4.05 11.3-1.55 23.6-1.55 14.45 0 27.2 2.05z" id="aU"/><path fill="url(#O)" d="M477.1 632.25q0-2.45-9.55-4.2-9.45-1.7-22.9-1.7t-22.9 1.7q-9.5 1.75-9.5 4.2t9.5 4.15q9.5 1.75 22.9 1.75 13.4 0 22.9-1.75 9.55-1.7 9.55-4.15z" id="aV"/><path fill="url(#P)" d="M408 626.55q9.1-2.35 21.8-2.8 10-.4 17.65.6-4.3-1.4-10.85-2.05-6.85-.65-14.65-.4-12.6.5-21.8 3.15-9.05 2.6-9.05 5.65 0 2.9 7.1 4.95 7.1 2.05 17.65 2.25-7.4-.6-12.2-2.35-4.7-1.75-4.7-3.8 0-2.85 9.05-5.2z" id="aW"/><path fill="#8D320C" d="M479.15 722.2l.05-.1q3.65-6.6 7.8-16.8-2.75 2.15-6.7 4.6-4.1 9.2-9.5 17.85l.85-.45q0-.05.15-.05 0-.1.15-.1.2-.2.8-.5l.15-.05q0-.1.1-.1v-.05l.8-.45.15-.15.3-.15.05-.05 1.15-.8q.25-.05.5-.3.35-.15.6-.4l.15-.1q.2-.2.35-.25l.8-.6.2-.2.85-.65q.1 0 .25-.15z" id="aX"/><path fill="#8D320C" d="M488.55 713.1q4.6-5.4 6.8-10.55 1.95-4.65 4.15-11.15-3.65 5.7-8.55 10.35-5.05 11.35-11.6 20.3 5.15-4.15 9.2-8.95z" id="aY"/><path fill="#A3440D" d="M382 657.7l.6 3.95q6.65 2.45 14.15 4.1l-.5-3.8q-7.1-1.65-14.25-4.25z" id="aZ"/><path fill="url(#Q)" d="M439.95 661.45q-14.8 0-27.9-1.1-12.75-1.1-21.2-3 5.75 2.9 19 4.65 13.5 1.8 30.1 1.8t30.1-1.8q13.3-1.75 19.05-4.65-8.55 1.9-21.25 3-13.05 1.1-27.9 1.1z" id="ba"/><path fill="#521408" d="M440.9 683.45q-3.6-5.15-10.05-6-6.1-.8-9.65 2.4-3.2 2.85-3.5 7.7-.3 5.2 3.2 9.65 3.65 4.6 9.6 10.25 3.4 3.25 10.4 9.7 7.05-6.45 10.45-9.7 5.9-5.6 9.55-10.25 3.6-4.45 3.3-9.65-.25-4.85-3.5-7.7-3.55-3.2-9.65-2.4-6.5.85-10.15 6z" id="bb"/><path fill="url(#R)" d="M440.9 679.5q-3.6-5.15-10.05-6-6.1-.85-9.65 2.4-3.2 2.85-3.5 7.75-.3 5.25 3.2 9.6 3.65 4.6 9.6 10.3 3.4 3.25 10.4 9.7 7.05-6.45 10.45-9.7 5.9-5.65 9.55-10.3 3.6-4.35 3.3-9.6-.25-4.9-3.5-7.75-3.55-3.25-9.65-2.4-6.5.85-10.15 6z" id="bc"/><path fill="url(#S)" d="M423.5 682.6q2.3 1.15 5.55 1.15 3.2 0 5.5-1.15 2.25-1.2 2.25-2.8 0-1.6-2.25-2.8-2.3-1.15-5.5-1.15-3.25 0-5.55 1.15-2.3 1.2-2.3 2.8 0 1.6 2.3 2.8z" id="bd"/><path fill="url(#T)" d="M447.3 682.6q2.35 1.15 5.55 1.15 3.25 0 5.55-1.15 2.25-1.2 2.25-2.8 0-1.6-2.25-2.8-2.3-1.15-5.55-1.15-3.2 0-5.55 1.15-2.3 1.2-2.3 2.8 0 1.6 2.3 2.8z" id="be"/></defs><use xlink:href="#U"/><use xlink:href="#V" transform="translate(-432.367 -713.055) scale(1.27284)"/><use xlink:href="#W" transform="translate(-432.367 -713.055) scale(1.27284)"/><use xlink:href="#X" transform="translate(-432.367 -713.055) scale(1.27284)"/><use xlink:href="#Y" transform="translate(-432.367 -713.055) scale(1.27284)"/><use xlink:href="#Z" transform="translate(-432.367 -713.055) scale(1.27284)"/><use xlink:href="#aa" transform="translate(-432.367 -713.055) scale(1.27284)"/><use xlink:href="#ab" transform="translate(-432.367 -713.055) scale(1.27284)"/><use xlink:href="#ac" transform="translate(-432.367 -713.055) scale(1.27284)"/><use xlink:href="#ad" transform="translate(-432.367 -713.055) scale(1.27284)"/><use xlink:href="#ae" transform="translate(-432.367 -713.055) scale(1.27284)"/><use xlink:href="#af" transform="translate(-432.367 -713.055) scale(1.27284)"/><use xlink:href="#ag" transform="translate(-432.367 -713.055) scale(1.27284)"/><use xlink:href="#ah" transform="translate(-432.367 -713.055) scale(1.27284)"/><use xlink:href="#ai" transform="translate(-432.367 -713.055) scale(1.27284)"/><use xlink:href="#aj" transform="translate(-432.367 -713.055) scale(1.27284)"/><use xlink:href="#ak" transform="translate(-432.367 -713.055) scale(1.27284)"/><use xlink:href="#al" transform="translate(-432.367 -713.055) scale(1.27284)"/><use xlink:href="#am" transform="translate(-432.367 -713.055) scale(1.27284)"/><use xlink:href="#an" transform="translate(-432.367 -713.055) scale(1.27284)"/><use xlink:href="#ao" transform="translate(-432.367 -713.055) scale(1.27284)"/><use xlink:href="#ap" transform="translate(-432.367 -713.055) scale(1.27284)"/><use xlink:href="#aq" transform="translate(-432.367 -713.055) scale(1.27284)"/><use xlink:href="#ar" transform="translate(-432.367 -713.055) scale(1.27284)"/><use xlink:href="#as" transform="translate(-432.367 -713.055) scale(1.27284)"/><use xlink:href="#at" transform="translate(-432.367 -713.055) scale(1.27284)"/><use xlink:href="#au" transform="translate(-432.367 -713.055) scale(1.27284)"/><use xlink:href="#av" transform="translate(-432.367 -713.055) scale(1.27284)"/><use xlink:href="#aw" transform="translate(-432.367 -713.055) scale(1.27284)"/><use xlink:href="#ax" transform="translate(-432.367 -713.055) scale(1.27284)"/><use xlink:href="#ay" transform="translate(-432.367 -713.055) scale(1.27284)"/><use xlink:href="#az" transform="translate(-432.367 -713.055) scale(1.27284)"/><use xlink:href="#aA" transform="translate(-432.367 -713.055) scale(1.27284)"/><use xlink:href="#aB" transform="translate(-432.367 -713.055) scale(1.27284)"/><use xlink:href="#aC" transform="translate(-432.367 -713.055) scale(1.27284)"/><use xlink:href="#aD" transform="translate(-432.367 -713.055) scale(1.27284)"/><use xlink:href="#aE" transform="translate(-432.367 -713.055) scale(1.27284)"/><use xlink:href="#aF" transform="translate(-432.367 -713.055) scale(1.27284)"/><use xlink:href="#aG" transform="translate(-432.367 -713.055) scale(1.27284)"/><use xlink:href="#aH" transform="translate(-432.367 -713.055) scale(1.27284)"/><use xlink:href="#aI" transform="translate(-432.367 -713.055) scale(1.27284)"/><use xlink:href="#aJ" transform="translate(-432.367 -713.055) scale(1.27284)"/><use xlink:href="#aK" transform="translate(-432.367 -713.055) scale(1.27284)"/><use xlink:href="#aL" transform="translate(-432.367 -713.055) scale(1.27284)"/><use xlink:href="#aM" transform="translate(-432.367 -713.055) scale(1.27284)"/><use xlink:href="#aN" transform="translate(-432.367 -713.055) scale(1.27284)"/><use xlink:href="#aO" transform="translate(-432.367 -713.055) scale(1.27284)"/><use xlink:href="#aP" transform="translate(-432.367 -713.055) scale(1.27284)"/><use xlink:href="#aQ" transform="translate(-432.367 -713.055) scale(1.27284)"/><use xlink:href="#aR" transform="translate(-432.367 -713.055) scale(1.27284)"/><use xlink:href="#aS" transform="translate(-432.367 -713.055) scale(1.27284)"/><use xlink:href="#aT" transform="translate(-432.367 -713.055) scale(1.27284)"/><use xlink:href="#aU" transform="translate(-432.367 -713.055) scale(1.27284)"/><use xlink:href="#aV" transform="translate(-432.367 -713.055) scale(1.27284)"/><use xlink:href="#aW" transform="translate(-432.367 -713.055) scale(1.27284)"/><use xlink:href="#aX" transform="translate(-432.367 -713.055) scale(1.27284)"/><use xlink:href="#aY" transform="translate(-432.367 -713.055) scale(1.27284)"/><use xlink:href="#aZ" transform="translate(-432.367 -713.055) scale(1.27284)"/><use xlink:href="#ba" transform="translate(-432.367 -713.055) scale(1.27284)"/><use xlink:href="#bb" transform="translate(-432.367 -713.055) scale(1.27284)"/><use xlink:href="#bc" transform="translate(-432.367 -713.055) scale(1.27284)"/><use xlink:href="#bd" transform="translate(-432.367 -713.055) scale(1.27284)"/><use xlink:href="#be" transform="translate(-432.367 -713.055) scale(1.27284)"/></svg>