<svg xmlns="http://www.w3.org/2000/svg" xmlns:xlink="http://www.w3.org/1999/xlink" preserveAspectRatio="none" width="284" height="320"><defs><linearGradient id="a" gradientUnits="userSpaceOnUse" x1="529.425" y1="263.975" x2="537.975" y2="270.425" spreadMethod="pad"><stop offset="0%" stop-color="#FFC5DA"/><stop offset="100%" stop-color="#FFF"/></linearGradient><linearGradient id="b" gradientUnits="userSpaceOnUse" x1="529.425" y1="251.363" x2="539.475" y2="258.137" spreadMethod="pad"><stop offset="0%" stop-color="#FFC5DA"/><stop offset="100%" stop-color="#FFF"/></linearGradient><linearGradient id="c" gradientUnits="userSpaceOnUse" x1="519.537" y1="272.45" x2="529.563" y2="280.85" spreadMethod="pad"><stop offset="0%" stop-color="#FFC5DA"/><stop offset="100%" stop-color="#FFF"/></linearGradient><linearGradient id="d" gradientUnits="userSpaceOnUse" x1="510.8" y1="281.375" x2="520.7" y2="289.125" spreadMethod="pad"><stop offset="0%" stop-color="#FFC5DA"/><stop offset="100%" stop-color="#FFF"/></linearGradient><linearGradient id="e" gradientUnits="userSpaceOnUse" x1="502.588" y1="289.775" x2="514.613" y2="302.225" spreadMethod="pad"><stop offset="0%" stop-color="#FFC5DA"/><stop offset="100%" stop-color="#FFF"/></linearGradient><linearGradient id="f" gradientUnits="userSpaceOnUse" x1="507.675" y1="260.913" x2="488.725" y2="278.587" spreadMethod="pad"><stop offset="0%" stop-color="#FFAFD1"/><stop offset="100%" stop-color="#FE7CBA"/></linearGradient><linearGradient id="g" gradientUnits="userSpaceOnUse" x1="496.762" y1="268.838" x2="511.238" y2="254.863" spreadMethod="pad"><stop offset="0%" stop-color="#FFA2CA"/><stop offset="100%" stop-color="#FFD1E0"/></linearGradient><linearGradient id="h" gradientUnits="userSpaceOnUse" x1="515.563" y1="260.162" x2="534.638" y2="265.637" spreadMethod="pad"><stop offset="0%" stop-color="#FFC5DA"/><stop offset="100%" stop-color="#FE8CC1"/></linearGradient><linearGradient id="i" gradientUnits="userSpaceOnUse" x1="512.425" y1="269.575" x2="527.375" y2="277.525" spreadMethod="pad"><stop offset="0%" stop-color="#FFC5DA"/><stop offset="100%" stop-color="#FE8CC1"/></linearGradient><linearGradient id="j" gradientUnits="userSpaceOnUse" x1="506.587" y1="279.35" x2="518.712" y2="286.35" spreadMethod="pad"><stop offset="0%" stop-color="#FFC5DA"/><stop offset="100%" stop-color="#FE8CC1"/></linearGradient><linearGradient id="k" gradientUnits="userSpaceOnUse" x1="498.588" y1="286.412" x2="509.113" y2="295.887" spreadMethod="pad"><stop offset="0%" stop-color="#FFC5DA"/><stop offset="100%" stop-color="#FE8CC1"/></linearGradient><linearGradient id="l" gradientUnits="userSpaceOnUse" x1="515.475" y1="251.75" x2="535.725" y2="251.75" spreadMethod="pad"><stop offset="0%" stop-color="#FFC5DA"/><stop offset="100%" stop-color="#FE8CC1"/></linearGradient><linearGradient id="m" gradientUnits="userSpaceOnUse" x1="411.212" y1="264.012" x2="402.788" y2="270.588" spreadMethod="pad"><stop offset="0%" stop-color="#FFC5DA"/><stop offset="100%" stop-color="#FFF"/></linearGradient><linearGradient id="n" gradientUnits="userSpaceOnUse" x1="411.112" y1="251.475" x2="401.188" y2="258.425" spreadMethod="pad"><stop offset="0%" stop-color="#FFC5DA"/><stop offset="100%" stop-color="#FFF"/></linearGradient><linearGradient id="o" gradientUnits="userSpaceOnUse" x1="421.238" y1="272.262" x2="411.363" y2="280.838" spreadMethod="pad"><stop offset="0%" stop-color="#FFC5DA"/><stop offset="100%" stop-color="#FFF"/></linearGradient><linearGradient id="p" gradientUnits="userSpaceOnUse" x1="430.188" y1="281.038" x2="420.413" y2="288.962" spreadMethod="pad"><stop offset="0%" stop-color="#FFC5DA"/><stop offset="100%" stop-color="#FFF"/></linearGradient><linearGradient id="q" gradientUnits="userSpaceOnUse" x1="438.463" y1="289.263" x2="426.637" y2="301.938" spreadMethod="pad"><stop offset="0%" stop-color="#FFC5DA"/><stop offset="100%" stop-color="#FFF"/></linearGradient><linearGradient id="r" gradientUnits="userSpaceOnUse" x1="433.075" y1="261.188" x2="452.325" y2="278.513" spreadMethod="pad"><stop offset="0%" stop-color="#FFAFD1"/><stop offset="100%" stop-color="#FE7CBA"/></linearGradient><linearGradient id="s" gradientUnits="userSpaceOnUse" x1="443.963" y1="269.012" x2="429.738" y2="254.787" spreadMethod="pad"><stop offset="0%" stop-color="#FFA2CA"/><stop offset="100%" stop-color="#FFD1E0"/></linearGradient><linearGradient id="t" gradientUnits="userSpaceOnUse" x1="424.438" y1="260.4" x2="405.462" y2="266.2" spreadMethod="pad"><stop offset="0%" stop-color="#FFC5DA"/><stop offset="100%" stop-color="#FE8CC1"/></linearGradient><linearGradient id="u" gradientUnits="userSpaceOnUse" x1="428.45" y1="269.5" x2="413.65" y2="277.7" spreadMethod="pad"><stop offset="0%" stop-color="#FFC5DA"/><stop offset="100%" stop-color="#FE8CC1"/></linearGradient><linearGradient id="v" gradientUnits="userSpaceOnUse" x1="434.288" y1="279.25" x2="422.313" y2="286.45" spreadMethod="pad"><stop offset="0%" stop-color="#FFC5DA"/><stop offset="100%" stop-color="#FE8CC1"/></linearGradient><linearGradient id="w" gradientUnits="userSpaceOnUse" x1="442.225" y1="286.275" x2="431.875" y2="295.925" spreadMethod="pad"><stop offset="0%" stop-color="#FFC5DA"/><stop offset="100%" stop-color="#FE8CC1"/></linearGradient><linearGradient id="x" gradientUnits="userSpaceOnUse" x1="425.475" y1="251.625" x2="405.225" y2="251.975" spreadMethod="pad"><stop offset="0%" stop-color="#FFC5DA"/><stop offset="100%" stop-color="#FE8CC1"/></linearGradient><linearGradient id="y" gradientUnits="userSpaceOnUse" x1="470.65" y1="279.537" x2="470.65" y2="299.363" spreadMethod="pad"><stop offset="0%" stop-color="#FBD7AB"/><stop offset="100%" stop-color="#FBAC59"/></linearGradient><linearGradient id="z" gradientUnits="userSpaceOnUse" x1="470.35" y1="239.525" x2="470.35" y2="252.775" spreadMethod="pad"><stop offset="0%" stop-color="#F7EB79"/><stop offset="100%" stop-color="#F8D723"/></linearGradient><linearGradient id="A" gradientUnits="userSpaceOnUse" x1="506.95" y1="249.5" x2="506.95" y2="240.9" spreadMethod="pad"><stop offset="0%" stop-color="#F7E976"/><stop offset="100%" stop-color="#FFF"/></linearGradient><linearGradient id="B" gradientUnits="userSpaceOnUse" x1="434.1" y1="249.5" x2="434.1" y2="240.9" spreadMethod="pad"><stop offset="0%" stop-color="#F7E976"/><stop offset="100%" stop-color="#FFF"/></linearGradient><linearGradient id="C" gradientUnits="userSpaceOnUse" x1="470.4" y1="227.538" x2="470.4" y2="244.063" spreadMethod="pad"><stop offset="0%" stop-color="#F7EB79"/><stop offset="100%" stop-color="#F8D723"/></linearGradient><linearGradient id="D" gradientUnits="userSpaceOnUse" x1="504.1" y1="240.538" x2="504.1" y2="224.063" spreadMethod="pad"><stop offset="0%" stop-color="#EFC21F"/><stop offset="100%" stop-color="#DD9817"/></linearGradient><linearGradient id="E" gradientUnits="userSpaceOnUse" x1="470.05" y1="283.55" x2="470.05" y2="275.85" spreadMethod="pad"><stop offset="0%" stop-color="#FBD7AB"/><stop offset="100%" stop-color="#FBAC59"/></linearGradient><linearGradient id="F" gradientUnits="userSpaceOnUse" x1="437.4" y1="240.525" x2="437.4" y2="223.775" spreadMethod="pad"><stop offset="0%" stop-color="#EFC21F"/><stop offset="100%" stop-color="#DD9817"/></linearGradient><linearGradient id="G" gradientUnits="userSpaceOnUse" x1="515.75" y1="239.525" x2="515.75" y2="228.075" spreadMethod="pad"><stop offset="0%" stop-color="#F7E976"/><stop offset="100%" stop-color="#FFF"/></linearGradient><linearGradient id="H" gradientUnits="userSpaceOnUse" x1="425.75" y1="239.525" x2="425.75" y2="228.075" spreadMethod="pad"><stop offset="0%" stop-color="#F7E976"/><stop offset="100%" stop-color="#FFF"/></linearGradient><linearGradient id="I" gradientUnits="userSpaceOnUse" x1="429.463" y1="244.4" x2="438.137" y2="244.4" spreadMethod="pad"><stop offset="0%" stop-color="#FCE5C7"/><stop offset="100%" stop-color="#FBD7AB"/></linearGradient><linearGradient id="J" gradientUnits="userSpaceOnUse" x1="435.05" y1="246.537" x2="435.05" y2="239.963" spreadMethod="pad"><stop offset="0%" stop-color="#FBCA91"/><stop offset="100%" stop-color="#FBBC76"/></linearGradient><linearGradient id="K" gradientUnits="userSpaceOnUse" x1="511.487" y1="244.4" x2="502.813" y2="244.4" spreadMethod="pad"><stop offset="0%" stop-color="#FCE5C7"/><stop offset="100%" stop-color="#FBD7AB"/></linearGradient><linearGradient id="L" gradientUnits="userSpaceOnUse" x1="505.65" y1="246.537" x2="505.65" y2="239.963" spreadMethod="pad"><stop offset="0%" stop-color="#FBCA91"/><stop offset="100%" stop-color="#FBBC76"/></linearGradient><linearGradient id="M" gradientUnits="userSpaceOnUse" x1="470.35" y1="221.512" x2="470.35" y2="277.387" spreadMethod="pad"><stop offset="0%" stop-color="#FBBC76"/><stop offset="16.078%" stop-color="#FBCF9C"/><stop offset="27.843%" stop-color="#FCE5C7"/><stop offset="85.882%" stop-color="#FCE5C7"/><stop offset="100%" stop-color="#FBCA91"/></linearGradient><linearGradient id="N" gradientUnits="userSpaceOnUse" x1="468.8" y1="211.55" x2="468.8" y2="228.45" spreadMethod="pad"><stop offset="0%" stop-color="#F7EB79"/><stop offset="100%" stop-color="#F7EB79"/></linearGradient><linearGradient id="O" gradientUnits="userSpaceOnUse" x1="467.487" y1="263.75" x2="473.813" y2="263.75" spreadMethod="pad"><stop offset="0%" stop-color="#FCA289"/><stop offset="100%" stop-color="#FF3626"/></linearGradient><linearGradient id="P" gradientUnits="userSpaceOnUse" x1="474.563" y1="245.775" x2="466.438" y2="244.625" spreadMethod="pad"><stop offset="0%" stop-color="#FBCA91"/><stop offset="100%" stop-color="#FDF3E5"/></linearGradient><linearGradient id="Q" gradientUnits="userSpaceOnUse" x1="470.6" y1="252.512" x2="470.6" y2="254.688" spreadMethod="pad"><stop offset="0%" stop-color="#FCE5C7"/><stop offset="100%" stop-color="#FBCA91"/></linearGradient><linearGradient id="R" gradientUnits="userSpaceOnUse" x1="471.188" y1="260.275" x2="468.712" y2="263.025" spreadMethod="pad"><stop offset="0%" stop-color="#FCA289"/><stop offset="100%" stop-color="#FCC9B5"/></linearGradient><linearGradient id="S" gradientUnits="userSpaceOnUse" x1="470.6" y1="259.525" x2="470.6" y2="256.375" spreadMethod="pad"><stop offset="0%" stop-color="#FCA289"/><stop offset="100%" stop-color="#FE6149"/></linearGradient><linearGradient id="T" gradientUnits="userSpaceOnUse" x1="423.75" y1="223.537" x2="423.75" y2="210.662" spreadMethod="pad"><stop offset="0%" stop-color="#F8F5A8"/><stop offset="100%" stop-color="#FFF"/></linearGradient><linearGradient id="U" gradientUnits="userSpaceOnUse" x1="452.95" y1="233.513" x2="452.95" y2="243.088" spreadMethod="pad"><stop offset="0%" stop-color="#5F5F5F"/><stop offset="100%" stop-color="silver"/></linearGradient><linearGradient id="V" gradientUnits="userSpaceOnUse" x1="449.5" y1="241.75" x2="456.5" y2="241.75" spreadMethod="pad"><stop offset="0%" stop-color="silver"/><stop offset="49.02%" stop-color="#FFF"/><stop offset="100%" stop-color="silver"/></linearGradient><linearGradient id="W" gradientUnits="userSpaceOnUse" x1="487.9" y1="233.513" x2="487.9" y2="243.088" spreadMethod="pad"><stop offset="0%" stop-color="#5F5F5F"/><stop offset="100%" stop-color="silver"/></linearGradient><linearGradient id="X" gradientUnits="userSpaceOnUse" x1="484.5" y1="241.75" x2="491.5" y2="241.75" spreadMethod="pad"><stop offset="0%" stop-color="silver"/><stop offset="49.02%" stop-color="#FFF"/><stop offset="100%" stop-color="silver"/></linearGradient><linearGradient id="Y" gradientUnits="userSpaceOnUse" x1="466.45" y1="263.587" x2="469.55" y2="264.712" spreadMethod="pad"><stop offset="0%" stop-color="#FFF"/><stop offset="100%" stop-color="#FCC9B5"/></linearGradient><linearGradient id="Z" gradientUnits="userSpaceOnUse" x1="514" y1="225.513" x2="514" y2="210.287" spreadMethod="pad"><stop offset="0%" stop-color="#FAF7C5"/><stop offset="100%" stop-color="#FFF"/></linearGradient><linearGradient id="aa" gradientUnits="userSpaceOnUse" x1="468.475" y1="270.2" x2="473.925" y2="270.2" spreadMethod="pad"><stop offset="0%" stop-color="#FDF3E5"/><stop offset="100%" stop-color="#FCE5C7"/></linearGradient><linearGradient id="ab" gradientUnits="userSpaceOnUse" x1="458.875" y1="342.475" x2="458.725" y2="350.625" spreadMethod="pad"><stop offset="0%" stop-color="#FFAFCF"/><stop offset="100%" stop-color="#FD5DAB"/></linearGradient><linearGradient id="ac" gradientUnits="userSpaceOnUse" x1="463.45" y1="344.35" x2="453.05" y2="344.35" spreadMethod="pad"><stop offset="0%" stop-color="#FFAFCF"/><stop offset="100%" stop-color="#FFD3E6"/></linearGradient><linearGradient id="ad" gradientUnits="userSpaceOnUse" x1="481.425" y1="342.475" x2="481.275" y2="350.625" spreadMethod="pad"><stop offset="0%" stop-color="#FFAFCF"/><stop offset="100%" stop-color="#FD5DAB"/></linearGradient><linearGradient id="ae" gradientUnits="userSpaceOnUse" x1="485.45" y1="344.35" x2="475.05" y2="344.35" spreadMethod="pad"><stop offset="0%" stop-color="#FFAFCF"/><stop offset="100%" stop-color="#FFD3E6"/></linearGradient><linearGradient id="af" gradientUnits="userSpaceOnUse" x1="470" y1="312.55" x2="470" y2="329.85" spreadMethod="pad"><stop offset="0%" stop-color="#FE93C3"/><stop offset="100%" stop-color="#FE75B6"/></linearGradient><linearGradient id="ag" gradientUnits="userSpaceOnUse" x1="486.85" y1="327.512" x2="486.85" y2="299.787" spreadMethod="pad"><stop offset="0%" stop-color="#FD66B0"/><stop offset="100%" stop-color="#FE93C3"/></linearGradient><linearGradient id="ah" gradientUnits="userSpaceOnUse" x1="470.7" y1="327.537" x2="470.7" y2="297.363" spreadMethod="pad"><stop offset="0%" stop-color="#FD66B0"/><stop offset="100%" stop-color="#FE93C3"/></linearGradient><linearGradient id="ai" gradientUnits="userSpaceOnUse" x1="457.6" y1="327.525" x2="457.6" y2="300.075" spreadMethod="pad"><stop offset="0%" stop-color="#FD66B0"/><stop offset="100%" stop-color="#FE93C3"/></linearGradient><linearGradient id="aj" gradientUnits="userSpaceOnUse" x1="470" y1="335.538" x2="470" y2="329.063" spreadMethod="pad"><stop offset="0%" stop-color="#FFAFD1"/><stop offset="100%" stop-color="#FFD7E3"/></linearGradient><linearGradient id="ak" gradientUnits="userSpaceOnUse" x1="489.2" y1="324.525" x2="489.2" y2="337.275" spreadMethod="pad"><stop offset="0%" stop-color="#DB227E"/><stop offset="100%" stop-color="#A5175E"/></linearGradient><linearGradient id="al" gradientUnits="userSpaceOnUse" x1="432.75" y1="321.163" x2="428.65" y2="329.538" spreadMethod="pad"><stop offset="0%" stop-color="#DB227E"/><stop offset="100%" stop-color="#FD5DAB"/></linearGradient><linearGradient id="am" gradientUnits="userSpaceOnUse" x1="436.463" y1="318.925" x2="445.738" y2="318.275" spreadMethod="pad"><stop offset="0%" stop-color="#DB227E"/><stop offset="100%" stop-color="#FD5DAB"/></linearGradient><linearGradient id="an" gradientUnits="userSpaceOnUse" x1="436.1" y1="326.425" x2="433.8" y2="336.375" spreadMethod="pad"><stop offset="0%" stop-color="#DB227E"/><stop offset="100%" stop-color="#FD5DAB"/></linearGradient><linearGradient id="ao" gradientUnits="userSpaceOnUse" x1="439.563" y1="324.088" x2="449.737" y2="325.512" spreadMethod="pad"><stop offset="0%" stop-color="#DB227E"/><stop offset="100%" stop-color="#FD5DAB"/></linearGradient><linearGradient id="ap" gradientUnits="userSpaceOnUse" x1="440.238" y1="328.938" x2="446.963" y2="337.862" spreadMethod="pad"><stop offset="0%" stop-color="#DB227E"/><stop offset="100%" stop-color="#FD5DAB"/></linearGradient><linearGradient id="aq" gradientUnits="userSpaceOnUse" x1="427.9" y1="206.512" x2="427.9" y2="194.688" spreadMethod="pad"><stop offset="0%" stop-color="#F8F5A8"/><stop offset="100%" stop-color="#FFF"/></linearGradient><linearGradient id="ar" gradientUnits="userSpaceOnUse" x1="439.05" y1="194.5" x2="439.05" y2="183.9" spreadMethod="pad"><stop offset="0%" stop-color="#F8F5A8"/><stop offset="100%" stop-color="#FFF"/></linearGradient><linearGradient id="as" gradientUnits="userSpaceOnUse" x1="452.488" y1="217.25" x2="439.512" y2="217.25" spreadMethod="pad"><stop offset="0%" stop-color="#F8EF91"/><stop offset="100%" stop-color="#FFF"/></linearGradient><linearGradient id="at" gradientUnits="userSpaceOnUse" x1="470.45" y1="212.25" x2="458.25" y2="212.25" spreadMethod="pad"><stop offset="0%" stop-color="#F8EF91"/><stop offset="100%" stop-color="#FFF"/></linearGradient><linearGradient id="au" gradientUnits="userSpaceOnUse" x1="439.813" y1="199.412" x2="448.987" y2="191.987" spreadMethod="pad"><stop offset="0%" stop-color="#F8F19A"/><stop offset="100%" stop-color="#FDFBE9"/></linearGradient><linearGradient id="av" gradientUnits="userSpaceOnUse" x1="456.387" y1="190.25" x2="468.012" y2="189.85" spreadMethod="pad"><stop offset="0%" stop-color="#F8F19A"/><stop offset="100%" stop-color="#FDFBE9"/></linearGradient><linearGradient id="aw" gradientUnits="userSpaceOnUse" x1="502.275" y1="199.338" x2="493.225" y2="191.763" spreadMethod="pad"><stop offset="0%" stop-color="#F8F19A"/><stop offset="100%" stop-color="#FDFBE9"/></linearGradient><linearGradient id="ax" gradientUnits="userSpaceOnUse" x1="485.6" y1="190.35" x2="474" y2="189.75" spreadMethod="pad"><stop offset="0%" stop-color="#F8F19A"/><stop offset="100%" stop-color="#FDFBE9"/></linearGradient><linearGradient id="ay" gradientUnits="userSpaceOnUse" x1="511.85" y1="206.512" x2="511.85" y2="194.688" spreadMethod="pad"><stop offset="0%" stop-color="#FAF7C5"/><stop offset="100%" stop-color="#FFF"/></linearGradient><linearGradient id="az" gradientUnits="userSpaceOnUse" x1="500.7" y1="194.5" x2="500.7" y2="183.9" spreadMethod="pad"><stop offset="0%" stop-color="#FAF7C5"/><stop offset="100%" stop-color="#FFF"/></linearGradient><linearGradient id="aA" gradientUnits="userSpaceOnUse" x1="477.15" y1="291.425" x2="480.75" y2="277.975" spreadMethod="pad"><stop offset="0%" stop-color="#FE93C3"/><stop offset="100%" stop-color="#F9D9EB"/></linearGradient><linearGradient id="aB" gradientUnits="userSpaceOnUse" x1="492.3" y1="283.5" x2="492.3" y2="309.8" spreadMethod="pad"><stop offset="0%" stop-color="#FBD7AB"/><stop offset="100%" stop-color="#FCE5C7"/></linearGradient><linearGradient id="aC" gradientUnits="userSpaceOnUse" x1="412.513" y1="286.488" x2="418.688" y2="296.012" spreadMethod="pad"><stop offset="0%" stop-color="#DB227E"/><stop offset="100%" stop-color="#A5175E"/></linearGradient><linearGradient id="aD" gradientUnits="userSpaceOnUse" x1="415.113" y1="294.675" x2="412.988" y2="288.825" spreadMethod="pad"><stop offset="0%" stop-color="#D5207B"/><stop offset="100%" stop-color="#F9D9EB"/></linearGradient><linearGradient id="aE" gradientUnits="userSpaceOnUse" x1="489.2" y1="335.512" x2="489.2" y2="316.988" spreadMethod="pad"><stop offset="0%" stop-color="#E72486"/><stop offset="100%" stop-color="#E32383"/></linearGradient><path fill="#FFF" fill-opacity="0" d="M284 0H0v320h284V0z" id="aF"/><path fill="#FFC5DA" d="M532.9 247.35q-2.45-.8-6.2-1.25-8.05-1.2-15.9 1.65-11.25 4.05-18.75 13.75-8.1 10.45-7.6 22.75l7.35 8q1.85 2 6.7 4.4 5.3 2.6 9.3 3.15 3.4.45 4.9-.85 1.7-1.55.5-5.3-.5-1.45-2.4-3.5l-4.4-4.4q5.3 4.2 10.95 4.9 3.6.4 5.2-2.15 1.6-2.65-1.3-5.5-2.6-2.5-3.15-3-1.478-1.314-3.1-2.45 1.557.89 4.15 2.1 4.8 2.25 6.85 2.55 4.45.65 6.05-1.85 1.6-2.45-1.1-5.2t-6.75-5.05q-4.3-2.15-5.85-3 1.15.4 6.3 2.45 5.5 1.85 10.3 1.95 4.7.05 6.1-2.9 1.45-3-2.3-5.55-4.05-2.8-7.85-4.25-1.4-.55-6.85-2.05 7.4 1.15 10.65 1.05 4.25-.15 5.05-3.05.7-2.65-1.5-4.5-2.25-1.9-5.35-2.9z" id="aG"/><path fill="url(#a)" d="M526.4 260.9q-2.7 0-3.3 1.25-.55 1.2 1.3 2.9 1.85 1.75 5 2.9 3.1 1.2 5.8 1.2 2.65 0 3.25-1.25.6-1.2-1.2-2.9-1.85-1.7-5-2.95-3.2-1.15-5.85-1.15z" id="aH"/><path fill="url(#b)" d="M526.35 249.1q-2.35.2-2.8 1.3-.4 1.1 1.35 2.35 1.75 1.3 4.65 2.05 2.9.7 5.25.45 2.35-.25 2.8-1.35.4-1.05-1.35-2.3-1.75-1.3-4.65-2.05-2.9-.7-5.25-.45z" id="aI"/><path fill="url(#c)" d="M524.9 273.3q-2.5-1.45-4.75-1.75-2.25-.3-2.85.75-.6 1 .75 2.7 1.4 1.75 3.9 3.2 2.55 1.4 4.8 1.7 2.25.3 2.85-.7.65-1-.75-2.75t-3.95-3.15z" id="aJ"/><path fill="url(#d)" d="M516 282.1q-2.45-1.35-4.5-1.65-2.1-.25-2.7.7-.6.9.7 2.55 1.3 1.65 3.7 2.9 2.35 1.35 4.5 1.65 2.1.3 2.7-.65.5-.95-.75-2.55-1.3-1.6-3.65-2.95z" id="aK"/><path fill="url(#e)" d="M507.8 291q-2.3-2-4.5-2.8-2.2-.85-3.15-.05-.9.8.1 2.7.95 1.95 3.2 3.9 2.2 1.95 4.5 2.8 2.25.85 3.15.1.85-.85-.1-2.75-.95-1.95-3.2-3.9z" id="aL"/><path fill="url(#f)" d="M489.45 289.7q4.85-2.05 9.2-5.7 8.6-7.3 11.8-17.2 3.15-9.95-.95-16.7-.25-.45-1-1.45-10.55 4.6-17.25 13.9-7.25 10.1-6.8 21.7l5 5.45z" id="aM"/><path fill="url(#g)" d="M509.15 259.5q.8-4.95-.95-6.3-1.55-1.15-5.25 1-3.85 2.25-7.45 6.7-3.55 4.5-5.25 9.85-1.6 5.15-.1 6.3 2 1.5 5.45.5 4.45-1.25 8.45-6.7 4.15-5.6 5.1-11.35z" id="aN"/><path fill="url(#h)" d="M515.2 258.95l-.65 2.05 20.3 5.25-19.65-7.3z" id="aO"/><path fill="url(#i)" d="M511.95 268.3l-.85 1.6 15.85 8.05-15-9.65z" id="aP"/><path fill="url(#j)" d="M505.5 279.55l12.95 7-12.2-8.2-.75 1.2z" id="aQ"/><path fill="url(#k)" d="M497.8 286.6l11.05 9.65-10.05-10.65-1 1z" id="aR"/><path fill="url(#l)" d="M514.25 251.2l-.05 1.7q8.7-2.75 21.1.15-10.75-4.05-21.05-1.85z" id="aS"/><path fill="#FFC5DA" d="M413.95 246.1q-3.7.45-6.15 1.25-3.1 1-5.35 2.9-2.2 1.85-1.5 4.5.8 2.9 5.05 3.05 3.25.1 10.65-1.05-5.45 1.5-6.85 2.05-3.8 1.45-7.85 4.25-3.75 2.55-2.3 5.55 1.4 2.95 6.1 2.9 4.85-.1 10.35-1.95 2.9-1 6.2-2.45-3.55 1.75-5.8 3-4.05 2.3-6.8 5.05-2.65 2.75-1.05 5.2 1.65 2.5 6.1 1.85 2.05-.3 6.8-2.55 2.613-1.22 4.15-2.15-1.649 1.199-3.15 2.5-.95.85-3.1 3-2.85 2.85-1.25 5.5 1.6 2.55 5.2 2.15 5.7-.7 10.85-4.9-3.15 3.15-4.3 4.4-1.95 2.1-2.45 3.5-1.2 3.75.55 5.3 1.45 1.3 4.85.85 4-.55 9.3-3.15 4.85-2.4 6.75-4.4l7.3-8q.5-12.3-7.6-22.75-7.5-9.7-18.75-13.75-7.85-2.85-15.95-1.65z" id="aT"/><path fill="url(#m)" d="M414.3 260.9q-2.65 0-5.8 1.15-3.2 1.25-5 2.95-1.85 1.7-1.25 2.9.6 1.25 3.25 1.25 2.7 0 5.8-1.2 3.15-1.15 5-2.9 1.85-1.7 1.25-2.9-.55-1.25-3.25-1.25z" id="aU"/><path fill="url(#n)" d="M414.35 249.1q-2.35-.25-5.3.45-2.85.75-4.6 2.05-1.8 1.25-1.35 2.3.45 1.1 2.85 1.35 2.35.25 5.2-.45 2.9-.75 4.65-2.05 1.75-1.25 1.35-2.35-.45-1.1-2.8-1.3z" id="aV"/><path fill="url(#o)" d="M420.55 271.55q-2.25.3-4.8 1.75-2.5 1.4-3.9 3.15-1.35 1.75-.75 2.75.6 1 2.85.7 2.25-.3 4.75-1.7 2.55-1.45 3.95-3.2 1.4-1.75.75-2.7-.6-1.05-2.85-.75z" id="aW"/><path fill="url(#p)" d="M429.2 280.45q-2.05.3-4.5 1.65-2.35 1.35-3.65 2.95-1.25 1.6-.75 2.55.6.95 2.7.65 2.15-.3 4.5-1.65 2.4-1.25 3.7-2.9 1.3-1.65.7-2.55-.6-.95-2.7-.7z" id="aX"/><path fill="url(#q)" d="M437.4 288.2q-2.2.8-4.5 2.8-2.25 1.95-3.2 3.9-.95 1.95-.05 2.75.85.75 3.1-.1 2.3-.85 4.55-2.8 2.25-1.95 3.2-3.9.95-1.9.05-2.7-.95-.8-3.15.05z" id="aY"/><path fill="url(#r)" d="M430.3 266.8q3.15 9.9 11.8 17.2 4.2 3.6 9.15 5.7l5-5.45q.5-11.6-6.75-21.7-6.75-9.3-17.3-13.9l-1 1.45q-4.1 6.75-.9 16.7z" id="aZ"/><path fill="url(#s)" d="M432.5 253.2q-1.7 1.35-.9 6.3.95 5.75 5.05 11.35 4.05 5.45 8.45 6.7 3.45 1 5.45-.5 1.55-1.15-.05-6.3-1.7-5.35-5.3-9.85-3.6-4.45-7.45-6.7-3.7-2.15-5.25-1z" id="ba"/><path fill="url(#t)" d="M405.85 266.25l20.3-5.25-.65-2.05-19.65 7.3z" id="bb"/><path fill="url(#u)" d="M413.75 277.95l15.85-8.05-.85-1.6-15 9.65z" id="bc"/><path fill="url(#v)" d="M422.25 286.55l12.95-7-.8-1.2-12.15 8.2z" id="bd"/><path fill="url(#w)" d="M431.85 296.25l11.05-9.65-1-1-10.05 10.65z" id="be"/><path fill="url(#x)" d="M405.4 253.05q12.45-2.95 21.1-.15l-.05-1.7q-10.3-2.2-21.05 1.85z" id="bf"/><path fill="url(#y)" d="M476.45 277.55l-6.75.3-6.85-.3-12.3 2.85.35 21.2 18.8.5 19.85-.5 1.25-21.2-14.35-2.85z" id="bg"/><path fill="#FD66B0" d="M481.85 289.15q.7 5.35 3.8 8.95 1.3 1.45 5.7 4.7.4-.6 1.35-1.25 1-.65 1.35-1.2-3.55-.45-7.05-3.25-4.25-3.3-5.15-7.95z" id="bh"/><path fill="#FC9D3F" d="M458.55 295.85q.45.5 1.2.5.7 0 1.25-.5.5-.55.5-1.25t-.5-1.2q-.55-.5-1.25-.5-.75 0-1.2.5-.5.5-.5 1.2 0 .75.5 1.25z" id="bi"/><path fill="#FE75B6" d="M472.65 285.75q-2.26 3.303-8.95 7.15-7.3 4.2-13 5.45-1.15.25-.55.7.9.7.25 1.45-.4.5.5.9.5.2 1.3.5.2.15-.35.45-.45.25-.1.25 4.75 0 12.05-6.55 5.856-5.28 8.85-10.3z" id="bj"/><path fill="url(#z)" d="M483.6 211.25q-2.25 0-4 1.45-1.7 1.4-2.1 3.55h-.1V216q0-2.6-1.85-4.45-1.8-1.85-4.4-1.85-2.55 0-4.35 1.85-1.85 1.85-1.85 4.45v.4h-.05q-.45-2.15-2.15-3.5-1.75-1.45-4-1.45-2.6 0-4.4 1.85-1.85 1.8-1.85 4.4 0 .95.35 2.1-.85-1.5-2.3-2.4-1.5-.9-3.25-.9-2.6 0-4.4 1.85-1.85 1.8-1.85 4.4 0 2.15 1.35 3.9-1.7-1.45-4-1.45-2.55 0-4.35 1.85-1.85 1.8-1.85 4.4 0 1.85.95 3.35.9 1.5 2.5 2.3 0 .1-.1.1-5.25 1.7-6 6-.7 4 2.55 6.7 2.9 2.4 6.45 1.5 4.15-1.05 7.15-6.7 1.2 3.15 3.8 4.55 2.2 1.15 4.8.85 3.25-.4 5.25-2.95 1.913-2.369 1.7-5.3.343 2.433 2 4 1.75 1.65 4.05 1.6 9.2-.3 6.3-17 1.55 7.35 2.75 10.3 1.4 3.55 3.8 5.45 3.7 2.85 7.35.8 3.85-2.15 1.8-7.4 1.6 3.45 2.75 5.35 1.5 2.55 3.2 4.1 4 3.55 9.2 3.15 5.6-.45 6.7-5.75.5-2.4-.75-4.8-1.3-2.55-4.25-4.3 1.55-.75 2.5-2.25 1-1.55 1-3.35 0-2.6-1.85-4.4-1.8-1.85-4.4-1.85-2.05 0-3.6 1.15h-.1q1.55-1.8 1.55-4.1 0-2.6-1.85-4.45t-4.45-1.85q-1.7 0-3.15.9-1.45.85-2.25 2.35h-.05q.35-1.15.35-2 0-2.6-1.85-4.4-1.8-1.85-4.4-1.85z" id="bk"/><path fill="url(#A)" d="M508.55 241.85q-1.3-1.25-3.05-1.25-.5 0-1.4.2 1.3.45 2.15 1.6.8 1.1.8 2.5 0 1.45-.8 2.6-.8 1.1-2.15 1.55.9.2 1.4.2 1.75 0 3.05-1.25 1.25-1.3 1.25-3.1 0-1.75-1.25-3.05z" id="bl"/><path fill="url(#B)" d="M435.55 240.6q-1.75 0-3.05 1.25-1.25 1.3-1.25 3.05 0 1.8 1.25 3.1 1.3 1.25 3.05 1.25.5 0 1.4-.2-1.35-.45-2.15-1.55-.8-1.15-.8-2.6 0-1.4.8-2.5.85-1.15 2.15-1.6-.9-.2-1.4-.2z" id="bm"/><path fill="url(#C)" d="M492.45 193.7q-2.3-2.25-5.55-2.25-2.8 0-4.95 1.8-2.15 1.8-2.7 4.5l-.05-.05.05-.35q0-3.25-2.3-5.55-2.25-2.25-5.5-2.25-3.2 0-5.5 2.25-2.3 2.3-2.3 5.55v.55q-.6-2.65-2.7-4.4-2.2-1.8-4.95-1.8-3.2 0-5.55 2.3-2.3 2.3-2.3 5.5 0 1.4.45 2.6-1.05-1.85-2.85-2.95-1.85-1.15-4.05-1.15-3.2 0-5.5 2.3-2.3 2.25-2.3 5.45 0 2.7 1.65 4.85v.05q-2.1-1.8-4.95-1.8-3.2 0-5.45 2.3-2.3 2.3-2.3 5.5 0 2.25 1.2 4.15 1.15 1.8 3.1 2.8 0 .25-.1.25-6.55 2.1-7.5 7.45-.9 4.95 3.2 8.3 3.65 2.95 8 1.85 5.2-1.3 9-8.35 1.4 4 4.65 5.75 2.7 1.4 6 1.05 4-.5 6.55-3.65 2.379-2.973 2.15-6.65.387 3.022 2.5 5 2.2 2.05 5.1 1.95 7-.2 8.3-8.55.8-4.9-.55-12.6 1.95 9.2 3.45 12.85 1.75 4.45 4.75 6.8 4.6 3.55 9.2.95 4.75-2.75 2.2-9.2 3.8 8.45 7.45 11.7 4.95 4.45 11.45 3.95 7-.55 8.3-7.15.65-2.95-.9-5.95-1.65-3.2-5.35-5.4 2-.9 3.2-2.75 1.25-1.9 1.25-4.2 0-3.25-2.3-5.55t-5.45-2.3q-2.6 0-4.65 1.5v-.05q1.9-2.3 1.9-5.05 0-3.25-2.25-5.55-2.3-2.25-5.55-2.25-2.15 0-4 1.1-1.8 1.05-2.85 2.9.45-1.2.45-2.55 0-3.2-2.3-5.5z" id="bn"/><path fill="url(#D)" d="M509.45 223.55l-4.6-8.6-4.55 9.25-4.6 23.9q1.9.3 7.2 2.4 4.7 1.55 6.35-.45-3.5.15-3.85-2.55-.35-2.65 2.6-5.6 1.05.25 2.5.8 1.15.35 1.95-.15-5.4 0-5.9-6.75-.5-6.15 2.9-12.25z" id="bo"/><path fill="url(#E)" d="M461.9 270v5.8q0 2.4 1.7 4.15 1.7 1.7 4.1 1.7h4.65q2.4 0 4.15-1.7 1.7-1.75 1.7-4.15V270h-16.3z" id="bp"/><path fill="url(#F)" d="M436.3 214.25l-5.6 8.8q3.95 3.85 3.3 10.75-.7 7.1-5.65 7.45.7.4.8.65l1.3-.2q3.6 3.55 4.15 4.65.9 1.7-2.2 1.55 1.85 2.3 6.6 3.3 4.2.9 7.45.35l-5.6-28.1-4.55-9.2z" id="bq"/><path fill="url(#G)" d="M519.5 234.15q0-2.4-1.65-4.1-1.7-1.7-4.1-1.7-.9 0-1.8.3 1.7.6 2.8 2.1 1.1 1.5 1.1 3.4 0 1.85-1.1 3.35t-2.8 2.1q1.2.3 1.8.3 2.4 0 4.1-1.7 1.65-1.7 1.65-4.05z" id="br"/><path fill="url(#H)" d="M421.95 233.7q0 2.35 1.7 4.05 1.7 1.7 4.05 1.7 1.15 0 1.8-.3-1.75-.6-2.8-2.1-1.05-1.5-1.05-3.35 0-1.9 1.05-3.4t2.8-2.1q-1.35-.25-1.8-.25-2.35 0-4.05 1.7-1.7 1.65-1.7 4.05z" id="bs"/><path fill="url(#I)" d="M432.2 236.35q-2.8.95-3.95 4-1.15 3 0 6.4 1.1 3.3 3.9 5 2.8 1.65 5.6.75 2.75-1 3.9-4 1.1-3.05-.05-6.4-1.1-3.35-3.9-5.05-2.75-1.65-5.5-.7z" id="bt"/><path fill="url(#J)" d="M433.5 239.5q-1.65.55-2.3 2.3-.65 1.75.05 3.65.65 1.9 2.2 2.85 1.6 1 3.2.45 1.55-.55 2.25-2.3.65-1.7 0-3.6-.65-1.95-2.25-2.9-1.6-1-3.15-.45z" id="bu"/><path fill="url(#K)" d="M512.45 240.35q-1.15-3.05-3.95-4-2.75-.95-5.5.7-2.8 1.7-3.95 5.05-1.1 3.35 0 6.4 1.15 3 3.9 4 2.85.9 5.6-.75 2.8-1.7 3.9-5 1.15-3.4 0-6.4z" id="bv"/><path fill="url(#L)" d="M509.5 241.8q-.7-1.75-2.3-2.3-1.6-.55-3.15.45-1.6.95-2.25 2.9-.65 1.9 0 3.6.7 1.75 2.25 2.3 1.6.55 3.2-.45 1.6-.95 2.25-2.85.65-1.9 0-3.65z" id="bw"/><path fill="url(#M)" d="M437.5 217.2q-.55 2-.4 9.2.15 7.75-.15 9.6-1.55 10.6-.1 16.95 1.8 7.65 8.75 14.1 5 4.65 11.35 7.2 6.5 2.65 13.4 2.7 6.9-.05 13.45-2.7 6.3-2.55 11.3-7.2 6.95-6.45 8.75-14.1 1.45-6.35-.1-16.95-.3-1.85-.15-9.6.15-7.2-.4-9.2-3.2-11.35-11.75-16.75-8-5-21.1-5.05-13.1.05-21.1 5.05-8.55 5.4-11.75 16.75z" id="bx"/><path fill="#F7DB31" d="M475.25 211q.458 2.813 1.05 4.7 1.55 4.85 5.2 7.5 4.65 3.4 9.65.55 5.25-3 3.25-9.8 2.65 5.75 3.4 7.15 2 3.75 4 5.6 5 4.45 11.6 3.65 7.05-.9 8.45-7.75.6-3.15-.75-6.35-1.55-3.6-5.25-5.75-2.4.9-6.45 2.1-8.45 2.55-8.45.2 0-19.95-12.25-25.1-9.8-4.1-26.6 1.6-12.9 4.35-25.95 12.8-11.95 7.75-10.15 8.65 0 .05-1.8-.15-3.2 1-5.1 2.95-1.85 1.8-2.1 4.1-.85 6.5 4.3 9.9 4.9 3.2 10.4.9 3.95-1.7 7.35-8.1 1.4 4.1 4.65 5.85 2.65 1.45 6 1.1 4.1-.5 6.6-3.7 2.267-2.947 2-6.7.443 3.004 2.75 5 2.4 2.1 5.35 2 8.965-.23 8.85-12.9z" id="by"/><path fill="#FDF3E5" d="M469.65 254.2q.4.35 1 .35.55 0 .95-.35.4-.4.4-.9 0-.55-.4-.95-.4-.35-.95-.35-.6 0-1 .35-.4.4-.4.95 0 .55.4.9z" id="bz"/><path fill="url(#N)" d="M493.7 183q0-3.3-2.35-5.65-2.4-2.35-5.65-2.35-2.9 0-5.1 1.85-2.2 1.85-2.75 4.65v-.45q0-3.3-2.35-5.6t-5.65-2.3q-3.3 0-5.65 2.3-2.35 2.3-2.35 5.6l.05.65h-.05q-.55-2.75-2.7-4.55-2.2-1.8-5.1-1.8-3.25 0-5.6 2.35-2.35 2.3-2.35 5.6 0 1.3.4 2.65h-.05q-1-1.9-2.85-3-1.9-1.15-4.15-1.15-3.3 0-5.65 2.3-2.35 2.3-2.35 5.6 0 2.8 1.75 4.95-2.1-1.8-5.1-1.8-3.3 0-5.6 2.35-2.35 2.35-2.35 5.65 0 2.3 1.25 4.25 1.15 1.9 3.15 2.9 0 .2-.05.2-6.7 2.1-7.7 7.6-.95 5.15 3.3 8.55 3.7 3 8.15 1.9 5.35-1.4 9.2-8.6 1.45 4.05 4.8 5.85 2.75 1.45 6.05 1.05 4.1-.45 6.75-3.7 2.384-2.97 2.15-6.6.437 3.008 2.6 4.95 2.2 2.1 5.15 2.05 7.2-.25 8.6-8.75.8-5.15-.6-12.95 1.95 9.35 3.45 13.15 1.8 4.55 4.9 6.95 4.7 3.7 9.4 1 4.9-2.75 2.25-9.4 1.95 4.2 3.55 6.75 1.95 3.2 4.1 5.2 5 4.55 11.7 4.1 7.15-.55 8.5-7.35.65-3.1-.95-6.15-1.65-3.3-5.45-5.45 2.05-1 3.25-2.9 1.3-2 1.3-4.3 0-3.3-2.35-5.65-2.35-2.35-5.65-2.35-2.45 0-4.6 1.5h-.1q1.95-2.1 1.95-5.15 0-3.3-2.35-5.65-2.35-2.35-5.6-2.35-2.2 0-4.05 1.15-1.85 1.05-2.9 2.95h-.05q.45-1.25.45-2.6z" id="bA"/><path fill="#FDF3E5" d="M468.35 248.15q-2.5 0-4.75 2.15-2.6 2.4-2.55 5.85.05 3.25 2.05 3.7 1.2.25 4.15-.1 2.05 0 2.8-1.45.65-1.2.65-4.15 0-3.9-.1-4.4-.35-1.6-2.25-1.6z" id="bB"/><path fill="#FDF3E5" d="M470.8 266.9q3.95-.3 4.95-2.65.35-.85.35-4.15-.05-1.3-2.2-.2-3.2 1.55-4.65 1.6-1.5 0-4.55-1.45-2-.95-2 .35.1 2.45 1.8 4.3 2.2 2.45 6.3 2.2z" id="bC"/><path fill="url(#O)" d="M475.15 260.6q-3.2 1.45-4.5 1.55-1.3-.1-4.55-1.55-2.05-.9-2.1.3 0 2.1 1.45 3.95 1.85 2.3 5.2 2.45 3.3-.15 5.15-2.45 1.45-1.85 1.4-3.95 0-1.2-2.05-.3z" id="bD"/><path fill="#FCE5C7" d="M442.35 254.85q0 3.45 2.5 5.9 2.45 2.45 5.9 2.45t5.9-2.45q2.45-2.45 2.45-5.9t-2.45-5.9q-2.45-2.45-5.9-2.45t-5.9 2.45q-2.5 2.45-2.5 5.9z" id="bE"/><path fill="#FCE4C6" d="M442.5 254.85q0 3.35 2.45 5.8 2.4 2.4 5.8 2.4t5.8-2.4q2.4-2.4 2.4-5.8 0-3.35-2.4-5.75t-5.8-2.4q-3.4 0-5.8 2.4-2.45 2.4-2.45 5.75z" id="bF"/><path fill="#FCE4C5" d="M442.7 254.85q0 3.3 2.4 5.65 2.35 2.35 5.65 2.35 3.3 0 5.65-2.35 2.35-2.35 2.35-5.65 0-3.3-2.35-5.65-2.35-2.35-5.65-2.35-3.3 0-5.65 2.35-2.4 2.35-2.4 5.65z" id="bG"/><path fill="#FCE3C4" d="M442.9 254.85q0 3.2 2.3 5.5t5.55 2.3q3.25 0 5.5-2.3 2.3-2.25 2.3-5.5 0-3.2-2.3-5.5-2.25-2.3-5.5-2.3t-5.55 2.3q-2.3 2.3-2.3 5.5z" id="bH"/><path fill="#FCE2C3" d="M443.05 254.85q0 3.15 2.3 5.4 2.25 2.25 5.4 2.25 3.15 0 5.4-2.25 2.25-2.25 2.25-5.4 0-3.15-2.25-5.35-2.25-2.25-5.4-2.25-3.15 0-5.4 2.25-2.3 2.2-2.3 5.35z" id="bI"/><path fill="#FCE1C2" d="M443.25 254.85q0 3.05 2.2 5.25t5.3 2.2q3.1 0 5.25-2.2 2.2-2.15 2.2-5.25 0-3.05-2.2-5.25-2.15-2.2-5.25-2.2t-5.3 2.2q-2.2 2.2-2.2 5.25z" id="bJ"/><path fill="#FCE1C1" d="M445.6 260q2.15 2.1 5.15 2.1 3 0 5.15-2.1 2.15-2.15 2.15-5.15 0-3-2.15-5.1-2.15-2.15-5.15-2.15-3 0-5.15 2.15-2.15 2.1-2.15 5.1 0 3 2.15 5.15z" id="bK"/><path fill="#FCE0C0" d="M445.7 259.85q2.1 2.1 5.05 2.1 2.95 0 5-2.1 2.1-2.05 2.1-5 0-2.9-2.1-5-2.05-2.05-5-2.05t-5.05 2.05q-2.1 2.1-2.1 5t2.1 5z" id="bL"/><path fill="#FCDFBF" d="M445.85 259.75q2.05 2 4.9 2 2.85 0 4.9-2 2-2.05 2-4.9 0-2.85-2-4.85-2.05-2.05-4.9-2.05-2.85 0-4.9 2.05-2.05 2-2.05 4.85 0 2.85 2.05 4.9z" id="bM"/><path fill="#FCDEBE" d="M445.95 259.6q2 2 4.8 2t4.75-2q2-1.95 2-4.75 0-2.75-2-4.75-1.95-1.95-4.75-1.95t-4.8 1.95q-2 2-2 4.75t2 4.75z" id="bN"/><path fill="#FCDDBD" d="M446.1 259.5q1.95 1.9 4.65 1.9t4.65-1.9q1.9-1.95 1.9-4.65t-1.9-4.6q-1.95-1.9-4.65-1.9t-4.65 1.9q-1.95 1.9-1.95 4.6 0 2.7 1.95 4.65z" id="bO"/><path fill="#FCDDBC" d="M446.25 259.35q1.85 1.85 4.5 1.85t4.5-1.85q1.85-1.85 1.85-4.5 0-2.6-1.85-4.5-1.85-1.85-4.5-1.85t-4.5 1.85q-1.9 1.9-1.9 4.5t1.9 4.5z" id="bP"/><path fill="#FCDCBC" d="M446.35 259.25q1.85 1.8 4.4 1.8 2.55 0 4.4-1.8 1.8-1.85 1.8-4.4 0-2.55-1.8-4.35-1.85-1.8-4.4-1.8-2.55 0-4.4 1.8-1.85 1.8-1.85 4.35t1.85 4.4z" id="bQ"/><path fill="#FCDBBB" d="M446.5 259.1q1.75 1.75 4.25 1.75t4.25-1.75q1.75-1.75 1.75-4.25 0-2.45-1.75-4.25-1.75-1.75-4.25-1.75t-4.25 1.75q-1.8 1.8-1.8 4.25t1.8 4.25z" id="bR"/><path fill="#FCDABA" d="M446.65 258.95q1.7 1.7 4.1 1.7 2.4 0 4.1-1.7 1.7-1.7 1.7-4.1 0-2.4-1.7-4.1-1.7-1.7-4.1-1.7-2.4 0-4.1 1.7-1.75 1.7-1.75 4.1 0 2.4 1.75 4.1z" id="bS"/><path fill="#FCD9B9" d="M446.75 258.85q1.65 1.65 4 1.65t4-1.65q1.65-1.65 1.65-4 0-2.3-1.65-3.95-1.65-1.65-4-1.65t-4 1.65q-1.7 1.65-1.7 3.95 0 2.3 1.7 4z" id="bT"/><path fill="#FCD9B8" d="M446.9 258.7q1.6 1.6 3.85 1.6t3.85-1.6q1.6-1.6 1.6-3.85t-1.6-3.85q-1.6-1.6-3.85-1.6t-3.85 1.6q-1.65 1.6-1.65 3.85t1.65 3.85z" id="bU"/><path fill="#FCD8B7" d="M447 258.6q1.6 1.55 3.75 1.55 2.2 0 3.75-1.55 1.55-1.55 1.55-3.75 0-2.15-1.55-3.7-1.55-1.55-3.75-1.55t-3.75 1.55q-1.55 1.55-1.55 3.7 0 2.2 1.55 3.75z" id="bV"/><path fill="#FCD7B6" d="M447.15 258.45q1.5 1.5 3.6 1.5t3.6-1.5q1.5-1.5 1.5-3.6t-1.5-3.55q-1.5-1.5-3.6-1.5t-3.6 1.5q-1.55 1.45-1.55 3.55 0 2.1 1.55 3.6z" id="bW"/><path fill="#FCD6B5" d="M447.25 258.3q1.45 1.45 3.5 1.45t3.45-1.45q1.45-1.4 1.45-3.45 0-2-1.45-3.45-1.4-1.45-3.45-1.45-2.05 0-3.5 1.45-1.45 1.45-1.45 3.45t1.45 3.45z" id="bX"/><path fill="#FCD6B4" d="M447.4 258.2q1.4 1.4 3.35 1.4 1.95 0 3.35-1.4 1.4-1.4 1.4-3.35 0-1.95-1.4-3.3-1.4-1.4-3.35-1.4-1.95 0-3.35 1.4-1.45 1.35-1.45 3.3 0 1.95 1.45 3.35z" id="bY"/><path fill="#FCD5B3" d="M447.5 258.05q1.35 1.35 3.25 1.35t3.2-1.35q1.35-1.3 1.35-3.2 0-1.85-1.35-3.2-1.3-1.35-3.2-1.35-1.9 0-3.25 1.35t-1.35 3.2q0 1.85 1.35 3.2z" id="bZ"/><path fill="#FCD4B2" d="M447.65 257.95q1.3 1.25 3.1 1.25t3.1-1.25q1.25-1.3 1.25-3.1t-1.25-3.05q-1.3-1.3-3.1-1.3t-3.1 1.3q-1.3 1.25-1.3 3.05 0 1.8 1.3 3.1z" id="ca"/><path fill="#FCD3B1" d="M447.75 257.8q1.25 1.25 3 1.25t2.95-1.25q1.25-1.2 1.25-2.95 0-1.7-1.25-2.95-1.2-1.2-2.95-1.2-1.75 0-3 1.2-1.25 1.25-1.25 2.95 0 1.7 1.25 2.95z" id="cb"/><path fill="#FCD2B0" d="M447.9 257.7q1.2 1.15 2.85 1.15 1.65 0 2.85-1.15 1.15-1.2 1.15-2.85 0-1.65-1.15-2.8-1.2-1.2-2.85-1.2-1.65 0-2.85 1.2-1.2 1.15-1.2 2.8t1.2 2.85z" id="cc"/><path fill="#FCD2AF" d="M448.05 257.55q1.1 1.1 2.7 1.1t2.7-1.1q1.1-1.1 1.1-2.7 0-1.55-1.1-2.7-1.1-1.1-2.7-1.1t-2.7 1.1q-1.15 1.15-1.15 2.7 0 1.55 1.15 2.7z" id="cd"/><path fill="#FCD1AE" d="M448.15 257.45q1.1 1.05 2.6 1.05t2.6-1.05q1.05-1.1 1.05-2.6t-1.05-2.55q-1.1-1.05-2.6-1.05t-2.6 1.05q-1.1 1.05-1.1 2.55 0 1.5 1.1 2.6z" id="ce"/><path fill="#FCD0AD" d="M448.3 257.3q1 1 2.45 1 1.45 0 2.45-1 1-1 1-2.45 0-1.4-1-2.45-1-1-2.45-1-1.45 0-2.45 1-1.05 1.05-1.05 2.45 0 1.4 1.05 2.45z" id="cf"/><path fill="#FCCFAC" d="M448.4 257.2q1 .95 2.35.95t2.35-.95q.95-1 .95-2.35t-.95-2.3q-1-.95-2.35-.95t-2.35.95q-1 .95-1 2.3 0 1.35 1 2.35z" id="cg"/><path fill="#FCCEAB" d="M448.55 257.05q.9.9 2.2.9 1.3 0 2.2-.9.9-.9.9-2.2 0-1.25-.9-2.15-.9-.9-2.2-.9-1.3 0-2.2.9-.95.9-.95 2.15t.95 2.2z" id="ch"/><path fill="#FCCDAB" d="M448.7 256.9q.85.85 2.05.85 1.2 0 2.05-.85.85-.85.85-2.05 0-1.2-.85-2.05-.85-.85-2.05-.85-1.2 0-2.05.85-.9.85-.9 2.05 0 1.2.9 2.05z" id="ci"/><path fill="#FCCDAA" d="M448.8 256.8q.8.8 1.95.8t1.95-.8q.8-.8.8-1.95 0-1.1-.8-1.9-.8-.8-1.95-.8t-1.95.8q-.85.8-.85 1.9 0 1.1.85 1.95z" id="cj"/><path fill="#FCCCA9" d="M448.95 256.65q.75.75 1.8.75 1 0 1.8-.75.75-.75.75-1.8t-.75-1.8q-.8-.75-1.8-.75-1.05 0-1.8.75-.8.75-.8 1.8t.8 1.8z" id="ck"/><path fill="#FCCBA8" d="M449.05 256.5q.7.7 1.7.7.95 0 1.65-.7t.7-1.65q0-.95-.7-1.65t-1.65-.7q-1 0-1.7.7t-.7 1.65q0 .95.7 1.65z" id="cl"/><path fill="#FCCAA7" d="M449.2 256.4q.65.65 1.55.65.85 0 1.55-.65.65-.65.65-1.55t-.65-1.5q-.65-.65-1.55-.65t-1.55.65q-.7.6-.7 1.5t.7 1.55z" id="cm"/><path fill="#FCC9A6" d="M449.3 256.3q.6.55 1.45.55.8 0 1.4-.55.6-.6.6-1.45 0-.8-.6-1.4-.6-.6-1.4-.6-.85 0-1.45.6t-.6 1.4q0 .85.6 1.45z" id="cn"/><path fill="#FCC9A5" d="M449.45 256.15q.55.5 1.3.5t1.3-.5q.55-.55.55-1.3t-.55-1.25q-.55-.55-1.3-.55t-1.3.55q-.55.5-.55 1.25 0 .8.55 1.3z" id="co"/><path fill="#FCC8A4" d="M449.55 256.05q.5.45 1.2.45.65 0 1.15-.45.5-.5.5-1.2 0-.65-.5-1.15-.5-.45-1.15-.45-.7 0-1.2.45-.5.5-.5 1.15 0 .7.5 1.2z" id="cp"/><path fill="#FCC7A3" d="M449.7 255.9q.45.4 1.05.4.6 0 1-.4.45-.45.45-1.05 0-.6-.45-1-.45-.45-1-.45-.6 0-1.05.45-.45.4-.45 1 0 .65.45 1.05z" id="cq"/><path fill="#FCC6A2" d="M449.8 255.8q.4.35.95.35.5 0 .9-.35.4-.4.4-.95 0-.5-.4-.9-.4-.35-.9-.35-.55 0-.95.35-.4.4-.4.9 0 .55.4.95z" id="cr"/><path fill="#FCC5A1" d="M449.95 255.65q.35.3.8.3.45 0 .75-.3.35-.35.35-.8 0-.45-.35-.75-.35-.35-.75-.35-.45 0-.8.35-.35.3-.35.75 0 .5.35.8z" id="cs"/><path fill="#FCC5A0" d="M449.8 254.85q0 .9.95.9.35 0 .6-.25.3-.25.3-.65 0-.35-.3-.65-.25-.25-.6-.25-.4 0-.65.25-.3.3-.3.65z" id="ct"/><path fill="#FCC49F" d="M449.95 254.85q0 .75.8.75.3 0 .5-.2.25-.25.25-.55 0-.3-.25-.5-.2-.2-.5-.2t-.55.2q-.25.2-.25.5z" id="cu"/><path fill="#FCC39E" d="M450.15 254.85q0 .55.6.55.55 0 .55-.55 0-.2-.2-.4-.15-.15-.35-.15-.6 0-.6.55z" id="cv"/><path fill="#FCC29E" d="M450.35 254.85q0 .35.4.35.35 0 .35-.35t-.35-.35q-.4 0-.4.35z" id="cw"/><path fill="#FCE5C7" d="M482.15 254.85q0 3.45 2.45 5.9t5.9 2.45q3.45 0 5.9-2.45t2.45-5.9q0-3.45-2.45-5.9t-5.9-2.45q-3.45 0-5.9 2.45t-2.45 5.9z" id="cx"/><path fill="#FCE4C6" d="M482.35 254.85q0 3.4 2.4 5.8t5.75 2.4q3.4 0 5.8-2.4t2.4-5.8q0-3.35-2.4-5.75t-5.8-2.4q-3.35 0-5.75 2.4t-2.4 5.75z" id="cy"/><path fill="#FCE4C5" d="M482.5 254.85q0 3.3 2.35 5.65 2.35 2.35 5.65 2.35 3.3 0 5.65-2.35 2.35-2.35 2.35-5.65 0-3.3-2.35-5.65-2.35-2.35-5.65-2.35-3.3 0-5.65 2.35-2.35 2.35-2.35 5.65z" id="cz"/><path fill="#FCE3C4" d="M482.7 254.85q0 3.25 2.3 5.5 2.3 2.3 5.5 2.3 3.25 0 5.5-2.3 2.3-2.25 2.3-5.5 0-3.2-2.3-5.5-2.25-2.3-5.5-2.3-3.2 0-5.5 2.3t-2.3 5.5z" id="cA"/><path fill="#FCE2C3" d="M482.9 254.85q0 3.15 2.25 5.4 2.2 2.25 5.35 2.25 3.15 0 5.4-2.25 2.25-2.25 2.25-5.4 0-3.15-2.25-5.35-2.25-2.25-5.4-2.25-3.15 0-5.35 2.25-2.25 2.2-2.25 5.35z" id="cB"/><path fill="#FCE1C2" d="M483.05 254.85q0 3.1 2.2 5.25 2.2 2.2 5.25 2.2 3.1 0 5.25-2.2 2.2-2.15 2.2-5.25 0-3.05-2.2-5.25-2.15-2.2-5.25-2.2-3.05 0-5.25 2.2t-2.2 5.25z" id="cC"/><path fill="#FCE1C1" d="M483.25 254.85q0 3 2.15 5.15 2.1 2.1 5.1 2.1 3 0 5.15-2.1 2.1-2.15 2.1-5.15 0-3-2.1-5.1-2.15-2.15-5.15-2.15-3 0-5.1 2.15-2.15 2.1-2.15 5.1z" id="cD"/><path fill="#FCE0C0" d="M483.45 254.85q0 2.95 2.05 5 2.1 2.1 5 2.1 2.95 0 5-2.1 2.1-2.05 2.1-5 0-2.9-2.1-5-2.05-2.05-5-2.05-2.9 0-5 2.05-2.05 2.1-2.05 5z" id="cE"/><path fill="#FCDFBF" d="M483.6 254.85q0 2.85 2.05 4.9 2 2 4.85 2 2.85 0 4.9-2 2-2.05 2-4.9 0-2.85-2-4.85-2.05-2.05-4.9-2.05-2.85 0-4.85 2.05-2.05 2-2.05 4.85z" id="cF"/><path fill="#FCDEBE" d="M483.8 254.85q0 2.8 1.95 4.75 2 2 4.75 2t4.75-2q1.95-1.95 1.95-4.75 0-2.75-1.95-4.75-1.95-1.95-4.75-1.95-2.75 0-4.75 1.95-1.95 2-1.95 4.75z" id="cG"/><path fill="#FCDDBD" d="M483.95 254.85q0 2.7 1.95 4.65 1.9 1.9 4.6 1.9 2.7 0 4.65-1.9 1.9-1.95 1.9-4.65t-1.9-4.6q-1.95-1.9-4.65-1.9t-4.6 1.9q-1.95 1.9-1.95 4.6z" id="cH"/><path fill="#FCDDBC" d="M486 259.35q1.9 1.85 4.5 1.85 2.65 0 4.5-1.85t1.85-4.5q0-2.6-1.85-4.5-1.85-1.85-4.5-1.85-2.6 0-4.5 1.85-1.85 1.9-1.85 4.5 0 2.65 1.85 4.5z" id="cI"/><path fill="#FCDCBC" d="M486.15 259.25q1.8 1.8 4.35 1.8t4.4-1.8q1.8-1.85 1.8-4.4 0-2.55-1.8-4.35-1.85-1.8-4.4-1.8-2.55 0-4.35 1.8-1.8 1.8-1.8 4.35t1.8 4.4z" id="cJ"/><path fill="#FCDBBB" d="M486.25 259.1q1.8 1.75 4.25 1.75 2.5 0 4.25-1.75t1.75-4.25q0-2.45-1.75-4.25-1.75-1.75-4.25-1.75-2.45 0-4.25 1.75-1.75 1.8-1.75 4.25 0 2.5 1.75 4.25z" id="cK"/><path fill="#FCDABA" d="M486.4 258.95q1.7 1.7 4.1 1.7 2.4 0 4.1-1.7 1.7-1.7 1.7-4.1 0-2.4-1.7-4.1-1.7-1.7-4.1-1.7-2.4 0-4.1 1.7-1.7 1.7-1.7 4.1 0 2.4 1.7 4.1z" id="cL"/><path fill="#FCD9B9" d="M486.55 258.85q1.65 1.65 3.95 1.65 2.35 0 4-1.65t1.65-4q0-2.3-1.65-3.95-1.65-1.65-4-1.65-2.3 0-3.95 1.65-1.65 1.65-1.65 3.95 0 2.35 1.65 4z" id="cM"/><path fill="#FCD9B8" d="M486.65 258.7q1.6 1.6 3.85 1.6t3.85-1.6q1.6-1.6 1.6-3.85t-1.6-3.85q-1.6-1.6-3.85-1.6t-3.85 1.6q-1.6 1.6-1.6 3.85t1.6 3.85z" id="cN"/><path fill="#FCD8B7" d="M486.8 258.6q1.55 1.55 3.7 1.55 2.15 0 3.7-1.55 1.55-1.55 1.55-3.75 0-2.15-1.55-3.7-1.5-1.55-3.7-1.55-2.15 0-3.7 1.55-1.55 1.55-1.55 3.7 0 2.2 1.55 3.75z" id="cO"/><path fill="#FCD7B6" d="M486.9 258.45q1.5 1.5 3.6 1.5t3.6-1.5q1.5-1.5 1.5-3.6t-1.5-3.55q-1.5-1.5-3.6-1.5t-3.6 1.5q-1.5 1.45-1.5 3.55 0 2.1 1.5 3.6z" id="cP"/><path fill="#FCD6B5" d="M487.05 258.3q1.45 1.45 3.45 1.45 2.05 0 3.45-1.45 1.45-1.4 1.45-3.45 0-2-1.45-3.45-1.4-1.45-3.45-1.45-2 0-3.45 1.45-1.45 1.45-1.45 3.45 0 2.05 1.45 3.45z" id="cQ"/><path fill="#FCD6B4" d="M487.2 258.2q1.35 1.4 3.3 1.4 1.95 0 3.35-1.4 1.4-1.4 1.4-3.35 0-1.95-1.4-3.3-1.4-1.4-3.35-1.4-1.95 0-3.3 1.4-1.4 1.35-1.4 3.3 0 1.95 1.4 3.35z" id="cR"/><path fill="#FCD5B3" d="M487.3 258.05q1.35 1.35 3.2 1.35 1.9 0 3.2-1.35 1.35-1.3 1.35-3.2 0-1.85-1.35-3.2-1.3-1.35-3.2-1.35-1.85 0-3.2 1.35t-1.35 3.2q0 1.9 1.35 3.2z" id="cS"/><path fill="#FCD4B2" d="M487.45 257.95q1.25 1.25 3.05 1.25 1.8 0 3.1-1.25 1.25-1.3 1.25-3.1t-1.25-3.05q-1.3-1.3-3.1-1.3t-3.05 1.3q-1.3 1.25-1.3 3.05 0 1.8 1.3 3.1z" id="cT"/><path fill="#FCD3B1" d="M487.55 257.8q1.25 1.25 2.95 1.25 1.75 0 2.95-1.25 1.25-1.2 1.25-2.95 0-1.7-1.25-2.95-1.2-1.2-2.95-1.2-1.7 0-2.95 1.2-1.2 1.25-1.2 2.95 0 1.75 1.2 2.95z" id="cU"/><path fill="#FCD2B0" d="M487.7 257.7q1.15 1.15 2.8 1.15t2.85-1.15q1.15-1.2 1.15-2.85 0-1.65-1.15-2.8-1.2-1.2-2.85-1.2-1.65 0-2.8 1.2-1.2 1.15-1.2 2.8t1.2 2.85z" id="cV"/><path fill="#FCD2AF" d="M487.8 257.55q1.15 1.1 2.7 1.1 1.6 0 2.7-1.1t1.1-2.7q0-1.55-1.1-2.7-1.1-1.1-2.7-1.1-1.55 0-2.7 1.1-1.1 1.15-1.1 2.7 0 1.6 1.1 2.7z" id="cW"/><path fill="#FCD1AE" d="M487.95 257.45q1.05 1.05 2.55 1.05 1.5 0 2.6-1.05 1.05-1.1 1.05-2.6t-1.05-2.55q-1.1-1.05-2.6-1.05t-2.55 1.05q-1.05 1.05-1.05 2.55 0 1.5 1.05 2.6z" id="cX"/><path fill="#FCD0AD" d="M488.05 257.3q1.05 1 2.45 1 1.45 0 2.45-1 1-1 1-2.45 0-1.4-1-2.45-1-1-2.45-1-1.4 0-2.45 1-1 1.05-1 2.45 0 1.45 1 2.45z" id="cY"/><path fill="#FCCFAC" d="M488.2 257.2q.95.95 2.3.95 1.35 0 2.3-.95.95-1 .95-2.35t-.95-2.3q-.95-.95-2.3-.95-1.35 0-2.3.95-.95.95-.95 2.3 0 1.35.95 2.35z" id="cZ"/><path fill="#FCCEAB" d="M488.3 257.05q.95.9 2.2.9 1.3 0 2.2-.9.9-.9.9-2.2 0-1.25-.9-2.15-.9-.9-2.2-.9-1.3 0-2.2.9-.9.9-.9 2.15 0 1.3.9 2.2z" id="da"/><path fill="#FCCDAB" d="M488.45 256.9q.85.85 2.05.85 1.2 0 2.05-.85.85-.85.85-2.05 0-1.2-.85-2.05-.85-.85-2.05-.85-1.2 0-2.05.85-.85.85-.85 2.05 0 1.2.85 2.05z" id="db"/><path fill="#FCCDAA" d="M488.6 256.8q.8.8 1.9.8 1.15 0 1.95-.8t.8-1.95q0-1.1-.8-1.9-.8-.8-1.95-.8-1.1 0-1.9.8-.8.8-.8 1.9 0 1.15.8 1.95z" id="dc"/><path fill="#FCCCA9" d="M488.7 256.65q.75.75 1.8.75t1.8-.75q.75-.75.75-1.8t-.75-1.8q-.75-.75-1.8-.75t-1.8.75q-.75.75-.75 1.8t.75 1.8z" id="dd"/><path fill="#FCCBA8" d="M488.85 256.5q.7.7 1.65.7 1 0 1.65-.7.7-.65.7-1.65 0-.95-.7-1.65-.65-.7-1.65-.7-.95 0-1.65.7t-.7 1.65q0 1 .7 1.65z" id="de"/><path fill="#FCCAA7" d="M489 256.4q.6.65 1.5.65t1.55-.65q.65-.65.65-1.55t-.65-1.5q-.65-.65-1.55-.65t-1.5.65q-.65.6-.65 1.5t.65 1.55z" id="df"/><path fill="#FCC9A6" d="M489.1 256.3q.55.55 1.4.55.85 0 1.4-.55.6-.6.6-1.45 0-.8-.6-1.4-.55-.6-1.4-.6-.8 0-1.4.6-.6.6-.6 1.4 0 .85.6 1.45z" id="dg"/><path fill="#FCC9A5" d="M489.25 256.15q.5.5 1.25.5t1.3-.5q.5-.5.5-1.3 0-.75-.5-1.25-.55-.55-1.3-.55t-1.25.55q-.55.5-.55 1.25 0 .8.55 1.3z" id="dh"/><path fill="#FCC8A4" d="M489.35 256.05q.45.45 1.15.45t1.15-.45q.5-.5.5-1.2 0-.65-.5-1.15-.45-.45-1.15-.45-.65 0-1.15.45-.45.5-.45 1.15 0 .7.45 1.2z" id="di"/><path fill="#FCC7A3" d="M489.5 255.9q.4.4 1 .4t1.05-.4q.4-.4.4-1.05 0-.6-.4-1-.45-.45-1.05-.45-.6 0-1 .45-.45.4-.45 1 0 .65.45 1.05z" id="dj"/><path fill="#FCC6A2" d="M489.6 255.8q.35.35.9.35t.9-.35q.4-.4.4-.95 0-.5-.4-.9-.35-.35-.9-.35-.5 0-.9.35-.35.4-.35.9 0 .55.35.95z" id="dk"/><path fill="#FCC5A1" d="M489.75 255.65q.3.3.75.3t.8-.3q.3-.3.3-.8 0-.45-.3-.75-.35-.35-.8-.35-.45 0-.75.35-.35.3-.35.75 0 .5.35.8z" id="dl"/><path fill="#FCC5A0" d="M489.6 254.85q0 .9.9.9t.9-.9q0-.35-.25-.65-.25-.25-.65-.25-.35 0-.65.25-.25.3-.25.65z" id="dm"/><path fill="#FCC49F" d="M489.8 254.85q0 .75.7.75.75 0 .75-.75 0-.7-.75-.7-.7 0-.7.7z" id="dn"/><path fill="#FCC39E" d="M489.95 254.85q0 .55.55.55t.55-.55q0-.55-.55-.55t-.55.55z" id="do"/><path fill="#FCC29E" d="M490.15 254.85q0 .35.35.35t.35-.35q0-.35-.35-.35t-.35.35z" id="dp"/><path fill="url(#P)" d="M470.4 238.95q-2.1 0-3.9 3.25-1.7 3.1-1.55 5.9.15 1.85 1.45 2.55 1.35.7 4.3.6 2.95-.05 4.25-.8 1.3-.8 1.35-2.55.1-2.8-1.8-5.8-1.95-3.15-4.1-3.15z" id="dq"/><path fill="#FBBC76" d="M470.65 246.85q-.85-.05-1.7.3-.8.35-1 .35-.9.15-1.7.55-.95.45-1 1.05-.15 1.4 2.2 1.9 1.65.4 3.25.25 2.75 0 4.35-.85.95-.55.95-1.25 0-.55-.7-1-.75-.35-1.95-.65-1.35-.65-2.7-.65z" id="dr"/><path fill="#F36F12" d="M467.75 248.45q-.5.15-.8.6-.3.5-.25.9.05.5.45.7.4.2.9.05.5-.2.85-.65.3-.45.2-.95-.05-.45-.45-.65t-.9 0z" id="ds"/><path fill="#F36F12" d="M474.25 249q-.3-.45-.8-.6-.55-.2-.95.05-.35.2-.45.65-.05.5.3.95.35.45.9.65.5.15.9-.05.4-.25.45-.7 0-.5-.35-.95z" id="dt"/><path fill="#FBBC76" d="M480.5 257.9q-.4-.45-.95-.45-.5.05-.8.55-.35.45-.35 1.1.1.65.45 1.05.35.45.85.45.55 0 .9-.5.35-.45.35-1.15-.05-.65-.45-1.05z" id="du"/><path fill="url(#Q)" d="M470 254.1q.3.35.65.35.3 0 .55-.35.25-.35.25-.8 0-.45-.25-.8-.25-.35-.55-.35-.35 0-.65.35-.25.3-.25.8 0 .45.25.8z" id="dv"/><path fill="#FBBC76" d="M461.65 257.45q-.5 0-.9.45t-.4 1.05q-.05.65.3 1.15.35.5.85.5.55 0 .9-.45.4-.4.4-1.05.05-.65-.3-1.1-.35-.5-.85-.55z" id="dw"/><path fill="url(#R)" d="M470.65 261.2q-1.3-.15-4.75-1.55-2.15-.95-2.2.25 0 2.15 1.5 3.95 1.95 2.3 5.45 2.4 3.45-.1 5.4-2.4 1.5-1.8 1.45-3.95 0-1.2-2.15-.25-3.45 1.4-4.7 1.55z" id="dx"/><path fill="#FFF" d="M471.15 258.3h-1q-1.95-.2-4.55 1.6.35 1.2 1.8 2 1.4.85 3.25.95 1.8-.1 3.25-.95 1.45-.8 1.8-2-2.7-1.8-4.55-1.6z" id="dy"/><path fill="url(#S)" d="M478.55 259.3q-1.1-.25-1.95-1.25-.8-1.2-1.3-1.6-2.05-1.8-4.6-.8h-.2q-2.5-1-4.55.8-.05.05-1.35 1.6-.85 1-1.95 1.25-1.3.35-.15.65 1.2.25 3.3-.05.9-.15 2.35-.9 1.2-.6 2.4-.6h.15q1.15 0 2.4.6 1.4.75 2.35.9 2.1.35 3.3.05 1.2-.3-.2-.65z" id="dz"/><path fill="#FF2916" d="M470.65 260.55q-3.05-.1-5.05-.65.6 3.2 5 3.2 4.45 0 5.1-3.2h-.1q-1.85.55-4.95.65z" id="dA"/><path fill="url(#T)" d="M428 211q-.8-.25-2.1-.25-2.65 0-4.55 1.9-1.9 1.85-1.9 4.55 0 2.65 1.9 4.55 1.9 1.85 4.55 1.85 1.3 0 2.1-.3-1.95-.65-3.2-2.3-1.25-1.7-1.25-3.8 0-2.15 1.25-3.85 1.2-1.65 3.2-2.35z" id="dB"/><path fill="#E5600F" d="M453 229.75h-.1q-2.7 0-4.9 1.55-2.1 1.5-2.95 3.85-.65 1.9 1.1 2.45.75.2 1.4-.2.8-.45 1-1.55h8.75q.3 1.1 1.05 1.55.6.4 1.35.2 1.8-.55 1.05-2.45-.75-2.35-2.9-3.85-2.15-1.55-4.85-1.55z" id="dC"/><path d="M446.3 237.3l1.45-3.15q-2.05 1-3.95-.2-2.15-1.35-1.9-4.65-.95 2.7.05 4.85 1.1 2.35 4.35 3.15z" id="dD"/><path d="M447.4 235.35l1.3-2.75q-2 .95-3.65-.15-1.8-1.2-1-4-1.3 2.05-.35 4.15 1 2.15 3.7 2.75z" id="dE"/><path fill="#FFF" d="M447.75 243.65q2.15 2.15 5.15 2.15 3.05 0 5.2-2.15 2.15-2.15 2.15-5.2 0-3.05-2.15-5.2-2.15-2.15-5.2-2.15-3 0-5.15 2.15-2.15 2.15-2.15 5.2 0 3.05 2.15 5.2z" id="dF"/><path fill="url(#U)" d="M449 242.4q1.6 1.65 3.9 1.65 2.35 0 4-1.65t1.65-3.95q0-2.3-1.65-3.9-1.65-1.65-4-1.65-2.3 0-3.9 1.65-1.6 1.6-1.6 3.9 0 2.35 1.6 3.95z" id="dG"/><path fill="url(#V)" d="M455.35 240.55q-.9 1.15-2.45 1.15-1.5 0-2.4-1.15-.4-.5-.85-.55-.35 0-.6.25t-.25.65q.05.45.4.85 1.45 1.75 3.7 1.75 2.4 0 3.75-1.75.35-.4.4-.85 0-.4-.25-.65-.65-.65-1.45.3z" id="dH"/><path d="M451.15 240.3q.75.75 1.75.75 1.1 0 1.85-.75t.75-1.85q0-1-.75-1.8-.75-.75-1.85-.75-1 0-1.75.75-.75.8-.75 1.8 0 1.1.75 1.85z" id="dI"/><path fill="#FFF" d="M454.8 238.8q0 .8.8.8.3 0 .55-.25.25-.2.25-.55 0-.35-.25-.55-.25-.25-.55-.25-.8 0-.8.8z" id="dJ"/><path fill="#FFF" d="M449.5 237.7q.45.45 1.1.45.7 0 1.15-.45.45-.45.45-1.15 0-.65-.45-1.1-.5-.45-1.15-.45-.65 0-1.1.45-.45.45-.45 1.1 0 .65.45 1.15z" id="dK"/><path fill="#E5600F" d="M482.5 237.4q.75-.45 1-1.55h8.8q.2 1.1 1 1.55.6.4 1.4.2 1.7-.55 1.05-2.45-.8-2.35-2.95-3.85-2.15-1.55-4.9-1.55-2.7 0-4.9 1.55-2.1 1.5-2.95 3.85-.65 1.9 1.1 2.45.75.2 1.35-.2z" id="dL"/><path d="M493.1 234.15l1.45 3.15q3.3-.8 4.4-3.15 1-2.15 0-4.85.3 3.3-1.85 4.65-1.95 1.2-4 .2z" id="dM"/><path d="M492.15 232.6l1.3 2.75q2.7-.6 3.7-2.75.95-2.1-.4-4.15.8 2.8-1 4-1.65 1.1-3.6.15z" id="dN"/><path fill="#FFF" d="M480.55 238.45q0 3.05 2.2 5.2 2.15 2.15 5.15 2.15 3.05 0 5.2-2.15 2.15-2.15 2.15-5.2 0-3.05-2.15-5.2-2.15-2.15-5.2-2.15-3 0-5.15 2.15-2.2 2.15-2.2 5.2z" id="dO"/><path fill="url(#W)" d="M482.3 238.45q0 2.35 1.65 3.95 1.65 1.65 3.95 1.65 2.3 0 3.95-1.65 1.6-1.6 1.6-3.95 0-2.3-1.6-3.9-1.65-1.65-3.95-1.65-2.3 0-3.95 1.65-1.65 1.6-1.65 3.9z" id="dP"/><path fill="url(#X)" d="M485.45 240.55q-.35-.5-.8-.55-.35 0-.6.25-.35.2-.3.65 0 .45.35.85 1.5 1.75 3.8 1.75 2.25 0 3.75-1.75.35-.4.4-.85 0-.4-.25-.65-.65-.65-1.45.3-.9 1.15-2.45 1.15-1.45 0-2.45-1.15z" id="dQ"/><path d="M486.15 240.3q.7.75 1.75.75t1.8-.75q.75-.75.75-1.85 0-1-.75-1.8-.75-.75-1.8-.75t-1.75.75q-.75.8-.75 1.8 0 1.1.75 1.85z" id="dR"/><path fill="#FFF" d="M489.8 238.8q0 .8.8.8.3 0 .55-.25.2-.2.2-.55 0-.35-.2-.55-.25-.25-.55-.25-.8 0-.8.8z" id="dS"/><path fill="#FFF" d="M484.5 237.7q.45.45 1.1.45.7 0 1.15-.45.45-.45.45-1.15 0-.65-.45-1.1-.5-.45-1.15-.45-.65 0-1.1.45-.45.45-.45 1.1 0 .65.45 1.15z" id="dT"/><path fill="url(#Y)" d="M468.5 263.35q-1.65-.35-1.8.45-.1.3.25.7.4.4 1 .6.65.2 1.15.1.6-.1.65-.45.25-.85-1.25-1.4z" id="dU"/><path fill="url(#Z)" d="M516.8 212.1q-2.2-2.25-5.4-2.25-1.25 0-2.45.45 2.3.75 3.75 2.75 1.5 2 1.5 4.45 0 2.5-1.5 4.55-1.45 1.95-3.75 2.7 1.2.45 2.45.45 3.2 0 5.4-2.25t2.2-5.45q0-3.15-2.2-5.4z" id="dV"/><path fill="#FBBC76" d="M452.5 249.05q.25.25.55.25.8 0 .8-.8 0-.75-.8-.75-.3 0-.55.25-.25.2-.25.5 0 .35.25.55z" id="dW"/><path fill="#FBBC76" d="M448.3 248.5q0 .8.75.8.3 0 .55-.25.25-.2.25-.55 0-.3-.25-.5-.25-.25-.55-.25-.75 0-.75.75z" id="dX"/><path fill="#FBBC76" d="M456.25 248.5q0 .8.8.8.3 0 .55-.25.2-.2.2-.55 0-.3-.2-.5-.25-.25-.55-.25-.8 0-.8.75z" id="dY"/><path fill="#FBBC76" d="M450.25 251.55q0 .8.8.8.7 0 .7-.8t-.7-.8q-.8 0-.8.8z" id="dZ"/><path fill="#FBBC76" d="M454.3 251.55q0 .8.8.8.3 0 .55-.25.25-.2.25-.55 0-.35-.25-.55-.25-.25-.55-.25-.8 0-.8.8z" id="ea"/><path fill="#FBBC76" d="M486.85 248.5q0 .8.8.8.3 0 .55-.25.2-.2.2-.55 0-.3-.2-.5-.25-.25-.55-.25-.8 0-.8.75z" id="eb"/><path fill="#FBBC76" d="M491.1 249.05q.25.25.55.25.8 0 .8-.8 0-.3-.25-.5-.2-.25-.55-.25-.3 0-.55.25-.25.2-.25.5 0 .35.25.55z" id="ec"/><path fill="#FBBC76" d="M482.9 248.5q0 .8.75.8.8 0 .8-.8 0-.75-.8-.75-.3 0-.5.25-.25.2-.25.5z" id="ed"/><path fill="#FBBC76" d="M489.15 252.1q.25.25.55.25.75 0 .75-.8t-.75-.8q-.3 0-.55.25-.25.2-.25.55 0 .35.25.55z" id="ee"/><path fill="#FBBC76" d="M485.05 252.1q.25.25.55.25.8 0 .8-.8t-.8-.8q-.3 0-.55.25-.25.2-.25.55 0 .35.25.55z" id="ef"/><path fill="url(#aa)" d="M468.3 271.75q.85.6 2.05.6 1.25 0 2.1-.6.85-.65.85-1.55 0-.85-.85-1.5t-2.1-.65q-1.2 0-2.05.65-.9.65-.9 1.5 0 .9.9 1.55z" id="eg"/><path fill="#FBD7AB" d="M484.75 319.75h-10.6q-1.5 0-2.45.6-1.05.65-.85 1.9.55 4.5.6 12.9.1 9-.55 12.35l19.1-1.25 1.9 1.25q-1.75-4.7-2.85-25.25-.05-1.25-1.45-1.9-1.25-.6-2.85-.6z" id="eh"/><path fill="#FBCA91" d="M489.05 322.25q-.05-1.15-1.25-1.8-1-.55-2.55-.7.6 15.15 2.15 26.6l2.6-.1.65.4h.95q-1.45-5.05-2.55-24.4z" id="ei"/><path fill="#FFF5FA" d="M472.45 344.25l.7.75 14-12.75-.65-.7-14.05 12.7z" id="ej"/><path fill="#FFF5FA" d="M473.8 332.2l-.6.8 14.05 10.4.6-.8-14.05-10.4z" id="ek"/><path fill="#FBD7AB" d="M465.9 319.75h-10.6q-1.6 0-2.8.6-1.45.65-1.5 1.9-1.1 20.55-2.85 25.25l1.95-1.25 19 1.25q-.6-3.4-.5-12.35.1-8.5.65-12.9.2-1.25-.9-1.9-.9-.6-2.45-.6z" id="el"/><path fill="#FBCA91" d="M469.2 329.1l-2.6-1.5-1 5.1v14.55l4.05.25q-.4-1.95-.5-8.05-.1-5.3.05-10.35z" id="em"/><path fill="#FFF5FA" d="M453.45 331.55l-.65.7L466.9 345l.7-.75-14.15-12.7z" id="en"/><path fill="#FFF5FA" d="M466.75 333l-.6-.8-13.95 10.4.6.8 13.95-10.4z" id="eo"/><path fill="#C2E8F1" d="M465.6 330.6v1.6l3.5-2.4q0-1.95.1-2.8l-1.25-.7-1.55.05-.8 4.25z" id="ep"/><path fill="url(#ab)" d="M451.7 351.7h14.1q2.3 0 3.55-1.4 1.35-1.5.2-3.65-2.9-5.5-10.8-5.5-7.85 0-10.8 5.5-1.15 2.15.25 3.65 1.2 1.4 3.5 1.4z" id="eq"/><path fill="url(#ac)" d="M454.25 345.6q1.6.5 3.8.5 2.25 0 3.85-.5 1.6-.55 1.6-1.25t-1.6-1.2q-1.6-.5-3.85-.5-2.2 0-3.8.5-1.6.5-1.6 1.2t1.6 1.25z" id="er"/><path fill="url(#ad)" d="M470.75 350.3q1.25 1.4 3.5 1.4h14.15q2.25 0 3.5-1.4 1.35-1.5.2-3.65-2.9-5.5-10.8-5.5-7.85 0-10.75 5.5-1.15 2.15.2 3.65z" id="es"/><path fill="url(#ae)" d="M476.9 345.6q1.6.5 3.9.5 2.2 0 3.8-.5 1.6-.55 1.6-1.25t-1.6-1.2q-1.55-.5-3.8-.5-2.3 0-3.9.5t-1.6 1.2q0 .7 1.6 1.25z" id="et"/><path fill="url(#af)" d="M476.3 280.15q-4 7.2-11.2 12.75-6.3 4.9-14.5 8.05.2 3.75-1.2 10.1-1.6 6.9-3.95 11.15-1.35 2.3-1.45 2.5-.75 1.6-.6 2.95.1.8 1.15 1.3.7.3 2.95 1.2 7.45 3.55 23.25 3.75 16 .15 22.7-3.5 3.3-1.85 3.2-3.95-.05-1.05-1.9-4.25-2.3-4.25-3.75-10.8-1.3-5.8-1.35-10.45-4.3-1.9-6.6-7.7-2.3-5.95-.3-10.65.4-1.05 1-1.9.85-1.15 1.7-1.3-1.2-1.85-4.2-1.95-3.35-.1-4.95 2.7z" id="eu"/><path fill="url(#ag)" d="M486.35 334.05l5-4.1q-4.95-9.1-9-30.15-.55 16.05 4 34.25z" id="ev"/><path fill="url(#ah)" d="M467.25 334.15q.95.3 3 .35 1.95.05 2.9.4 1.15-7.9 1-16.3-.2-11.85-3.1-21.05.65 9-.65 20.55-1.25 10.7-3.15 16.05z" id="ew"/><path fill="url(#ai)" d="M453.05 330.4l5.15 3.35q2.6-9.45 3.35-15.5.9-7.35.3-17.5-1.6 19.3-8.8 29.65z" id="ex"/><path fill="url(#aj)" d="M452.25 329.3q-1.05 2.1-3.45.95-.65-.35-3.75-2.75-1.15-.8-1.55-.2-.25.5.4 1.45 2 2.45 9.35 4.3 7.5 1.95 16.4 2.15 9.2.25 16.6-1.6 8.3-2.05 10.25-5.95.3-.5-.15-.7-.3-.15-1.15.7-1.35 1.15-1.8 1.2-.5.1-1.6-.7-1.25-.85-2.55-.4-1.1.4-3.5 2.4-2.45 2.05-4.8 1.95-1.45-.05-3.9-1.2-3.7-1.65-5.45-1.75-2.55-.15-4 2.25-1.15 1.95-4.15.55-3.6-2.25-5.25-3.15-1.7-.95-3.4-.85-1.85.05-2.55 1.35z" id="ey"/><path fill="url(#ak)" d="M467.55 315.25l-6 .1q2.05 9.7 9.8 16.05 7.85 6.5 17.95 6.4 10.1 0 17.9-6.45 7.7-6.4 9.65-16.15h-5.9q-1.9 7.3-7.9 12-6.05 4.8-13.75 4.85-7.75 0-13.85-4.8-6-4.7-7.9-12z" id="ez"/><path fill="#F92891" d="M461.8 313.85q-.95 0-.95.9 0 .4.25.65.3.3.7.3h54.85q.4 0 .65-.3.3-.25.3-.65 0-.35-.3-.65-.25-.25-.65-.25H461.8z" id="eA"/><path fill="url(#al)" d="M433.25 319.9q-3.45.85-4.9 4-1.5 3.1.1 6.35 3.35-.8 4.9-4.05 1.45-3.25-.1-6.3z" id="eB"/><path fill="#FD6EB3" d="M432.7 321.1q-.9.85-1.85 2.95-.9 2-1.35 3.9 1-1 1.95-3.15.9-1.95 1.25-3.7z" id="eC"/><path fill="url(#am)" d="M440.7 315.85q-3.55.25-5.65 3 2.4 2.65 5.85 2.55 3.5-.25 5.6-3.05-2.45-2.65-5.8-2.5z" id="eD"/><path fill="#FD6EB3" d="M439.85 318.25q-2.3.1-3.4.6 1.75.35 3.9.25 2.35-.05 3.65-.6-1.95-.3-4.15-.25z" id="eE"/><path fill="url(#an)" d="M436.35 325q-1.6.8-2.75 2.25-1.15 1.5-1.55 3.3-.35 1.8.1 3.6.4 1.8 1.55 3.15 1.6-.75 2.75-2.2 1.15-1.45 1.5-3.25.8-3.75-1.6-6.85z" id="eF"/><path fill="#FD6EB3" d="M436.05 326.5q-.75 1.1-1.3 3.6-.5 2.4-.4 4.45.75-1.25 1.25-3.8.45-2.25.45-4.25z" id="eG"/><path fill="url(#ao)" d="M444.95 321.8q-3.9-.6-6.8 1.8 1.9 3.45 5.7 4.15 3.9.6 6.75-1.85-1.9-3.45-5.65-4.1z" id="eH"/><path fill="#FD6EB3" d="M443.5 324.15q-2.5-.45-3.8-.15 1.8.75 4.05 1.2 2.6.5 4.05.2-2-.8-4.3-1.25z" id="eI"/><path fill="url(#ap)" d="M447.3 338.65q1.1-4.2-1.3-7.55-2.5-3.5-6.7-3.75-1.15 4.15 1.3 7.55 2.45 3.4 6.7 3.75z" id="eJ"/><path fill="#FD6EB3" d="M443.05 331.8q-1.6-2.3-2.85-3.05.8 1.95 2.3 4.1 1.6 2.35 2.95 3.3-.85-2.1-2.4-4.35z" id="eK"/><path fill="#C81E73" d="M416.9 290.8l-2.35 1.55 24.6 37.25 2.4-1.6-24.65-37.2z" id="eL"/><path fill="url(#aq)" d="M431.75 195.6q-2.1-1.3-4.55-.7-2.45.55-3.7 2.65-1.3 2.15-.75 4.6.55 2.4 2.65 3.75 1.2.6 1.8.7-1.25-1.4-1.35-3.35-.15-1.95.85-3.7 1.05-1.65 2.85-2.35 1.8-.75 3.65-.3-.85-.95-1.45-1.3z" id="eM"/><path fill="url(#ar)" d="M439.8 184.05q-2.4-.25-4.25 1.25t-2.05 3.85q-.25 2.4 1.3 4.3.35.5 1.35 1.2-.65-1.75-.15-3.55.45-1.8 1.9-3 1.4-1.15 3.3-1.25 1.85-.1 3.45.85-.15-.45-.95-1.6-1.5-1.85-3.9-2.05z" id="eN"/><path fill="#FBFFD7" d="M459.75 181.35q-.65-2.3-2.75-3.4-2.15-1.1-4.45-.4-2.25.65-3.4 2.75-1.1 2.15-.45 4.45.35.9.85 1.65.05-1.85 1.15-3.3 1.1-1.5 2.95-2.1 1.8-.55 3.55.1 1.7.65 2.8 2.1.1-.95-.25-1.85z" id="eO"/><path fill="url(#as)" d="M451.15 221.2q2.35-1.7 2.85-4.55.2-1.1.05-2.25-1.05 2-3.1 2.95-2.05 1-4.3.55-2.2-.35-3.8-2.05-1.55-1.6-1.95-3.85-.6 1.25-.7 2.2-.5 2.85 1.15 5.25 1.65 2.35 4.5 2.85 2.9.55 5.3-1.1z" id="eP"/><path fill="url(#at)" d="M469.7 217q3.2-3.5 2.35-11.6-.6 6.25-3.5 8.75-2.1 1.8-4.6 1.35-1.75-.3-2.9-1.55-1.1-1.2-1.35-2.95-.35.6-.6 1.65-.4 2.25.9 4.1 1.35 1.85 3.6 2.25 3.6.65 6.1-2z" id="eQ"/><path fill="url(#au)" d="M442.2 192.6q-1.85 1.5-2.05 3.9-.25 2.35 1.25 4.2.55.75 1.35 1.25-.65-1.7-.15-3.5.45-1.8 1.9-3 1.5-1.2 3.35-1.3 1.85-.1 3.4.9-.2-.6-.9-1.6-1.55-1.85-3.9-2.1-2.4-.3-4.25 1.25z" id="eR"/><path fill="url(#av)" d="M462.05 189.9q1.85-.1 3.45.95 1.5 1 2.2 2.75.2-.8.2-1.9-.1-2.35-1.9-3.95-1.8-1.6-4.15-1.5-2.35.1-3.95 1.9-1.6 1.8-1.5 4.15 0 .95.35 1.8.5-1.75 1.95-2.9 1.45-1.2 3.35-1.3z" id="eS"/><path fill="url(#aw)" d="M496 191.35q-2.4.25-3.9 2.1-.8 1.15-.95 1.6 1.6-1 3.45-.9 1.9.1 3.3 1.3 1.45 1.2 1.95 3 .45 1.8-.2 3.5.8-.5 1.35-1.25 1.55-1.85 1.3-4.2-.2-2.4-2.05-3.9-1.8-1.55-4.25-1.25z" id="eT"/><path fill="url(#ax)" d="M476.4 187.75q-1.8 1.6-1.9 3.95 0 .9.25 1.9.65-1.7 2.2-2.75 1.6-1.05 3.5-.95 1.85.1 3.3 1.3 1.45 1.15 1.95 2.9.35-1.05.35-1.8.1-2.35-1.5-4.15-1.6-1.8-4-1.9-2.35-.1-4.15 1.5z" id="eU"/><path fill="url(#ay)" d="M512.55 194.9q-2.45-.6-4.55.7-.95.6-1.45 1.3 1.85-.45 3.65.3 1.85.7 2.85 2.35 1 1.7.85 3.7-.15 1.9-1.35 3.35.6-.1 1.8-.7 2.1-1.35 2.65-3.75.6-2.4-.7-4.6-1.3-2.1-3.75-2.65z" id="eV"/><path fill="url(#az)" d="M499.95 184.05q-2.4.2-3.9 2.05-.55.6-.95 1.6 1.6-.95 3.4-.85 1.9.1 3.4 1.25 1.45 1.2 1.9 3 .5 1.8-.2 3.55 1-.7 1.4-1.2 1.5-1.9 1.25-4.3-.2-2.35-2.05-3.85-1.85-1.5-4.25-1.25z" id="eW"/><path fill="#FBFFD7" d="M490.6 180.3q-1.15-2.1-3.4-2.75-2.35-.7-4.45.4t-2.75 3.4q-.3 1-.3 1.85 1.15-1.45 2.85-2.1 1.75-.65 3.55-.1 1.85.6 2.95 2.1 1.1 1.45 1.15 3.3.55-.65.8-1.65.7-2.3-.4-4.45z" id="eX"/><path fill="#FBFFD7" d="M464.1 180.35q0 1.1.2 1.85.65-1.75 2.2-2.75 1.55-1 3.4-.9 1.9.05 3.4 1.25 1.45 1.15 1.95 2.9.35-.95.35-1.8.1-2.4-1.5-4.15-1.6-1.8-3.95-1.9-2.4-.05-4.15 1.5-1.8 1.6-1.9 4z" id="eY"/><path fill="url(#aA)" d="M474.65 292.75l4.55.7q-.7-2.15-.2-5.95.5-3.65 1.8-6.6.85-1.85-.05-2-.9-.15-2 1.45-3.1 4.4-4.1 12.4z" id="eZ"/><path fill="#FBD7AB" d="M451.65 280.85q-1.95-1.6-4.9-.2-3.2 1.5-3.9 5.25-2.15 11.4-7.85 17.25-1.7 1.75-3.65 2.85-1.45.7-1.4.75 1.15 1.2 2.3 3.5 1.15 1.7 3.55 1.7 5.25 0 10.4-4.85 5.1-4.8 6.95-11.35 1.25-4.3 1-8.4-.3-4.7-2.5-6.5z" id="fa"/><path fill="#FBD7AB" d="M438.25 310.6q.2-1.85-.85-3.8-1.05-1.95-2.75-2.9-1.55-.9-4.1-.1-2.85 1.2-4.25 1.45-.35.05-2.6-.05-1.2-.05-1.3.85-.2 1.55 1.9 2.05 1.95.45 3.5-.25-2.45 1.5-2.8 1.85-.95.9-.5 2.2.7 2.05 2.05 3.65 1.4 1.65 2.7 1.8 2.25.25 5.5-2.2 3.25-2.4 3.5-4.55z" id="fb"/><path fill="#DB227E" d="M416.9 290.8l-2.35 1.55 11 16.75 2.55-1.4-11.2-16.9z" id="fc"/><path fill="#FBCA91" d="M430.9 305.85q-1.25 1.7-.85 2.45.35.75 1.1 1.8l1.35 1.8q.85 1.25 2 1.8 1.45.6 2.35-.5 1.25-1.4 1.4-2.6.2-1.65-.7-3.45-.85-1.8-2.35-2.9l-.15-.05q-1.25-.35-2.5.2-1.05.5-1.65 1.45z" id="fd"/><path fill="url(#aB)" d="M487.5 283.2q-.7 1.75-.15 3.85 2.55 11.35-.4 19-1.45 3.75-3.2 5.35.1.05 3.5 2.25 1.7 1.15 3.9.2 4.85-2.1 7.65-8.6 2.8-6.45 1.85-13.15-.65-5.35-1.7-7.9-1.6-3.9-5.05-4.65-2.3-.5-4.45 1.1-1.4.95-1.95 2.55z" id="fe"/><path fill="#FCE5C7" d="M483.1 308.4q-2.15 2.2-3.3 3-.25.2-2.4.95-1.15.45-.95 1.35.45 1.5 2.6 1.1 1.9-.35 3.1-1.55-1.7 2.4-1.85 2.75-.5 1.2.4 2.2 1.5 1.6 3.35 2.55 1.95.9 3.2.55 2.2-.65 4.2-4.1 2.05-3.5 1.45-5.6-.55-1.8-2.3-3.15-1.75-1.35-3.7-1.6-1.8-.2-3.8 1.55z" id="ff"/><path fill="#FBCA91" d="M480.15 316.8q0 .7.55 1.4 1.5 1.6 3.35 2.55 1.95.9 3.2.55.438-.044 1.1-.5-1.011.647-1.65.1-.35-.4-.2-1 .2-.7 1.15-2.05-.85 1.05-1.4 1.7-1.1 1.2-1.8.75-.8-.55-.05-1.7.45-.65 1.3-1.9-1 1.1-1.55 1.6-.95.9-1.4.55-.85-.55-.15-1.75 1.1-1.4 1.35-2.1-1.85 2.3-2.6 2.5-.9.3-1.2-.7z" id="fg"/><path fill="#FBD7AB" d="M484.15 310.1q-.15 1.2.8 2.05.9.85 3.55 2.55 1.2.8 1.9 1 1.05.3 2-.35.8-2.3.5-3.75-.5-1.6-2-2.9-1.55-1.3-3.35-1.7h-.15q-1.3.15-2.2 1.15-.8.85-1.05 1.95z" id="fh"/><path fill="#FBAC59" d="M429.25 307.9q.55.65.05 1.3-.35.55-2.75 2.25.8-.25 2.4-1.3 1.35-.7 1.95.3.3.6-.8 1.5-1.35 1.05-1.8 1.5.6-.2 2.1-1.25 1.35-.7 1.85.25.45.75-.95 1.85-1.65 1.05-1.9 1.35 2.55-1.55 3.3-.75.25.25.15.75-.1.6-.6 1.05.65-.3 1-.8.85-1.35-.35-3.9-.95-2-2.6-3.8-1.3-1.3-2.6-.3.95-.6 1.55 0z" id="fi"/><path fill="url(#aC)" d="M424.55 293.65l-13.45-9.05 3.1 15.9 2.85-7.05 7.5.2z" id="fj"/><path fill="url(#aD)" d="M415.55 292.65l-3.25-6.1 2.05 9.15 1.2-3.05z" id="fk"/><path fill="url(#aE)" d="M473.55 329.25q-6.95-5-9.95-13.05 2.5 8.8 9.55 14.4 7.2 5.75 16.15 5.7 8.9 0 16.05-5.7 7-5.6 9.5-14.4-3 8-9.9 13-7.05 5.1-15.65 5.1-8.65 0-15.75-5.05z" id="fl"/></defs><use xlink:href="#aF"/><use xlink:href="#aG" transform="matrix(1.52586 0 0 1.52586 -575.601 -221.403)"/><use xlink:href="#aH" transform="matrix(1.52586 0 0 1.52586 -575.601 -221.403)"/><use xlink:href="#aI" transform="matrix(1.52586 0 0 1.52586 -575.601 -221.403)"/><use xlink:href="#aJ" transform="matrix(1.52586 0 0 1.52586 -575.601 -221.403)"/><use xlink:href="#aK" transform="matrix(1.52586 0 0 1.52586 -575.601 -221.403)"/><use xlink:href="#aL" transform="matrix(1.52586 0 0 1.52586 -575.601 -221.403)"/><use xlink:href="#aM" transform="matrix(1.52586 0 0 1.52586 -575.601 -221.403)"/><use xlink:href="#aN" transform="matrix(1.52586 0 0 1.52586 -575.601 -221.403)"/><use xlink:href="#aO" transform="matrix(1.52586 0 0 1.52586 -575.601 -221.403)"/><use xlink:href="#aP" transform="matrix(1.52586 0 0 1.52586 -575.601 -221.403)"/><use xlink:href="#aQ" transform="matrix(1.52586 0 0 1.52586 -575.601 -221.403)"/><use xlink:href="#aR" transform="matrix(1.52586 0 0 1.52586 -575.601 -221.403)"/><use xlink:href="#aS" transform="matrix(1.52586 0 0 1.52586 -575.601 -221.403)"/><use xlink:href="#aT" transform="matrix(1.52586 0 0 1.52586 -575.601 -221.403)"/><use xlink:href="#aU" transform="matrix(1.52586 0 0 1.52586 -575.601 -221.403)"/><use xlink:href="#aV" transform="matrix(1.52586 0 0 1.52586 -575.601 -221.403)"/><use xlink:href="#aW" transform="matrix(1.52586 0 0 1.52586 -575.601 -221.403)"/><use xlink:href="#aX" transform="matrix(1.52586 0 0 1.52586 -575.601 -221.403)"/><use xlink:href="#aY" transform="matrix(1.52586 0 0 1.52586 -575.601 -221.403)"/><use xlink:href="#aZ" transform="matrix(1.52586 0 0 1.52586 -575.601 -221.403)"/><use xlink:href="#ba" transform="matrix(1.52586 0 0 1.52586 -575.601 -221.403)"/><use xlink:href="#bb" transform="matrix(1.52586 0 0 1.52586 -575.601 -221.403)"/><use xlink:href="#bc" transform="matrix(1.52586 0 0 1.52586 -575.601 -221.403)"/><use xlink:href="#bd" transform="matrix(1.52586 0 0 1.52586 -575.601 -221.403)"/><use xlink:href="#be" transform="matrix(1.52586 0 0 1.52586 -575.601 -221.403)"/><use xlink:href="#bf" transform="matrix(1.52586 0 0 1.52586 -575.601 -221.403)"/><use xlink:href="#bg" transform="matrix(1.52586 0 0 1.52586 -575.601 -221.403)"/><use xlink:href="#bh" transform="matrix(1.52586 0 0 1.52586 -575.601 -221.403)"/><use xlink:href="#bi" transform="matrix(1.52586 0 0 1.52586 -575.601 -221.403)"/><use xlink:href="#bj" transform="matrix(1.52586 0 0 1.52586 -575.601 -221.403)"/><use xlink:href="#bk" transform="matrix(1.52586 0 0 1.52586 -575.601 -221.403)"/><use xlink:href="#bl" transform="matrix(1.52586 0 0 1.52586 -575.601 -221.403)"/><use xlink:href="#bm" transform="matrix(1.52586 0 0 1.52586 -575.601 -221.403)"/><use xlink:href="#bn" transform="matrix(1.52586 0 0 1.52586 -575.601 -221.403)"/><use xlink:href="#bo" transform="matrix(1.52586 0 0 1.52586 -575.601 -221.403)"/><use xlink:href="#bp" transform="matrix(1.52586 0 0 1.52586 -575.601 -221.403)"/><use xlink:href="#bq" transform="matrix(1.52586 0 0 1.52586 -575.601 -221.403)"/><use xlink:href="#br" transform="matrix(1.52586 0 0 1.52586 -575.601 -221.403)"/><use xlink:href="#bs" transform="matrix(1.52586 0 0 1.52586 -575.601 -221.403)"/><use xlink:href="#bt" transform="matrix(1.52586 0 0 1.52586 -575.601 -221.403)"/><use xlink:href="#bu" transform="matrix(1.52586 0 0 1.52586 -575.601 -221.403)"/><use xlink:href="#bv" transform="matrix(1.52586 0 0 1.52586 -575.601 -221.403)"/><use xlink:href="#bw" transform="matrix(1.52586 0 0 1.52586 -575.601 -221.403)"/><use xlink:href="#bx" transform="matrix(1.52586 0 0 1.52586 -575.601 -221.403)"/><use xlink:href="#by" transform="matrix(1.52586 0 0 1.52586 -575.601 -221.403)"/><use xlink:href="#bz" transform="matrix(1.52586 0 0 1.52586 -575.601 -221.403)"/><use xlink:href="#bA" transform="matrix(1.52586 0 0 1.52586 -575.601 -221.403)"/><use xlink:href="#bB" transform="matrix(1.52586 0 0 1.52586 -575.601 -221.403)"/><use xlink:href="#bC" transform="matrix(1.52586 0 0 1.52586 -575.601 -221.403)"/><use xlink:href="#bD" transform="matrix(1.52586 0 0 1.52586 -575.601 -221.403)"/><use xlink:href="#bE" transform="matrix(1.52586 0 0 1.52586 -575.601 -221.403)"/><use xlink:href="#bF" transform="matrix(1.52586 0 0 1.52586 -575.601 -221.403)"/><use xlink:href="#bG" transform="matrix(1.52586 0 0 1.52586 -575.601 -221.403)"/><use xlink:href="#bH" transform="matrix(1.52586 0 0 1.52586 -575.601 -221.403)"/><use xlink:href="#bI" transform="matrix(1.52586 0 0 1.52586 -575.601 -221.403)"/><use xlink:href="#bJ" transform="matrix(1.52586 0 0 1.52586 -575.601 -221.403)"/><use xlink:href="#bK" transform="matrix(1.52586 0 0 1.52586 -575.601 -221.403)"/><use xlink:href="#bL" transform="matrix(1.52586 0 0 1.52586 -575.601 -221.403)"/><use xlink:href="#bM" transform="matrix(1.52586 0 0 1.52586 -575.601 -221.403)"/><use xlink:href="#bN" transform="matrix(1.52586 0 0 1.52586 -575.601 -221.403)"/><use xlink:href="#bO" transform="matrix(1.52586 0 0 1.52586 -575.601 -221.403)"/><use xlink:href="#bP" transform="matrix(1.52586 0 0 1.52586 -575.601 -221.403)"/><use xlink:href="#bQ" transform="matrix(1.52586 0 0 1.52586 -575.601 -221.403)"/><use xlink:href="#bR" transform="matrix(1.52586 0 0 1.52586 -575.601 -221.403)"/><use xlink:href="#bS" transform="matrix(1.52586 0 0 1.52586 -575.601 -221.403)"/><use xlink:href="#bT" transform="matrix(1.52586 0 0 1.52586 -575.601 -221.403)"/><use xlink:href="#bU" transform="matrix(1.52586 0 0 1.52586 -575.601 -221.403)"/><use xlink:href="#bV" transform="matrix(1.52586 0 0 1.52586 -575.601 -221.403)"/><use xlink:href="#bW" transform="matrix(1.52586 0 0 1.52586 -575.601 -221.403)"/><use xlink:href="#bX" transform="matrix(1.52586 0 0 1.52586 -575.601 -221.403)"/><use xlink:href="#bY" transform="matrix(1.52586 0 0 1.52586 -575.601 -221.403)"/><use xlink:href="#bZ" transform="matrix(1.52586 0 0 1.52586 -575.601 -221.403)"/><use xlink:href="#ca" transform="matrix(1.52586 0 0 1.52586 -575.601 -221.403)"/><use xlink:href="#cb" transform="matrix(1.52586 0 0 1.52586 -575.601 -221.403)"/><use xlink:href="#cc" transform="matrix(1.52586 0 0 1.52586 -575.601 -221.403)"/><use xlink:href="#cd" transform="matrix(1.52586 0 0 1.52586 -575.601 -221.403)"/><use xlink:href="#ce" transform="matrix(1.52586 0 0 1.52586 -575.601 -221.403)"/><use xlink:href="#cf" transform="matrix(1.52586 0 0 1.52586 -575.601 -221.403)"/><use xlink:href="#cg" transform="matrix(1.52586 0 0 1.52586 -575.601 -221.403)"/><use xlink:href="#ch" transform="matrix(1.52586 0 0 1.52586 -575.601 -221.403)"/><use xlink:href="#ci" transform="matrix(1.52586 0 0 1.52586 -575.601 -221.403)"/><use xlink:href="#cj" transform="matrix(1.52586 0 0 1.52586 -575.601 -221.403)"/><use xlink:href="#ck" transform="matrix(1.52586 0 0 1.52586 -575.601 -221.403)"/><use xlink:href="#cl" transform="matrix(1.52586 0 0 1.52586 -575.601 -221.403)"/><use xlink:href="#cm" transform="matrix(1.52586 0 0 1.52586 -575.601 -221.403)"/><use xlink:href="#cn" transform="matrix(1.52586 0 0 1.52586 -575.601 -221.403)"/><use xlink:href="#co" transform="matrix(1.52586 0 0 1.52586 -575.601 -221.403)"/><use xlink:href="#cp" transform="matrix(1.52586 0 0 1.52586 -575.601 -221.403)"/><use xlink:href="#cq" transform="matrix(1.52586 0 0 1.52586 -575.601 -221.403)"/><use xlink:href="#cr" transform="matrix(1.52586 0 0 1.52586 -575.601 -221.403)"/><use xlink:href="#cs" transform="matrix(1.52586 0 0 1.52586 -575.601 -221.403)"/><use xlink:href="#ct" transform="matrix(1.52586 0 0 1.52586 -575.601 -221.403)"/><use xlink:href="#cu" transform="matrix(1.52586 0 0 1.52586 -575.601 -221.403)"/><use xlink:href="#cv" transform="matrix(1.52586 0 0 1.52586 -575.601 -221.403)"/><use xlink:href="#cw" transform="matrix(1.52586 0 0 1.52586 -575.601 -221.403)"/><use xlink:href="#cx" transform="matrix(1.52586 0 0 1.52586 -575.601 -221.403)"/><use xlink:href="#cy" transform="matrix(1.52586 0 0 1.52586 -575.601 -221.403)"/><use xlink:href="#cz" transform="matrix(1.52586 0 0 1.52586 -575.601 -221.403)"/><use xlink:href="#cA" transform="matrix(1.52586 0 0 1.52586 -575.601 -221.403)"/><use xlink:href="#cB" transform="matrix(1.52586 0 0 1.52586 -575.601 -221.403)"/><use xlink:href="#cC" transform="matrix(1.52586 0 0 1.52586 -575.601 -221.403)"/><use xlink:href="#cD" transform="matrix(1.52586 0 0 1.52586 -575.601 -221.403)"/><use xlink:href="#cE" transform="matrix(1.52586 0 0 1.52586 -575.601 -221.403)"/><use xlink:href="#cF" transform="matrix(1.52586 0 0 1.52586 -575.601 -221.403)"/><use xlink:href="#cG" transform="matrix(1.52586 0 0 1.52586 -575.601 -221.403)"/><use xlink:href="#cH" transform="matrix(1.52586 0 0 1.52586 -575.601 -221.403)"/><use xlink:href="#cI" transform="matrix(1.52586 0 0 1.52586 -575.601 -221.403)"/><use xlink:href="#cJ" transform="matrix(1.52586 0 0 1.52586 -575.601 -221.403)"/><use xlink:href="#cK" transform="matrix(1.52586 0 0 1.52586 -575.601 -221.403)"/><use xlink:href="#cL" transform="matrix(1.52586 0 0 1.52586 -575.601 -221.403)"/><use xlink:href="#cM" transform="matrix(1.52586 0 0 1.52586 -575.601 -221.403)"/><use xlink:href="#cN" transform="matrix(1.52586 0 0 1.52586 -575.601 -221.403)"/><use xlink:href="#cO" transform="matrix(1.52586 0 0 1.52586 -575.601 -221.403)"/><use xlink:href="#cP" transform="matrix(1.52586 0 0 1.52586 -575.601 -221.403)"/><use xlink:href="#cQ" transform="matrix(1.52586 0 0 1.52586 -575.601 -221.403)"/><use xlink:href="#cR" transform="matrix(1.52586 0 0 1.52586 -575.601 -221.403)"/><use xlink:href="#cS" transform="matrix(1.52586 0 0 1.52586 -575.601 -221.403)"/><use xlink:href="#cT" transform="matrix(1.52586 0 0 1.52586 -575.601 -221.403)"/><use xlink:href="#cU" transform="matrix(1.52586 0 0 1.52586 -575.601 -221.403)"/><use xlink:href="#cV" transform="matrix(1.52586 0 0 1.52586 -575.601 -221.403)"/><use xlink:href="#cW" transform="matrix(1.52586 0 0 1.52586 -575.601 -221.403)"/><use xlink:href="#cX" transform="matrix(1.52586 0 0 1.52586 -575.601 -221.403)"/><use xlink:href="#cY" transform="matrix(1.52586 0 0 1.52586 -575.601 -221.403)"/><use xlink:href="#cZ" transform="matrix(1.52586 0 0 1.52586 -575.601 -221.403)"/><use xlink:href="#da" transform="matrix(1.52586 0 0 1.52586 -575.601 -221.403)"/><use xlink:href="#db" transform="matrix(1.52586 0 0 1.52586 -575.601 -221.403)"/><use xlink:href="#dc" transform="matrix(1.52586 0 0 1.52586 -575.601 -221.403)"/><use xlink:href="#dd" transform="matrix(1.52586 0 0 1.52586 -575.601 -221.403)"/><use xlink:href="#de" transform="matrix(1.52586 0 0 1.52586 -575.601 -221.403)"/><use xlink:href="#df" transform="matrix(1.52586 0 0 1.52586 -575.601 -221.403)"/><use xlink:href="#dg" transform="matrix(1.52586 0 0 1.52586 -575.601 -221.403)"/><use xlink:href="#dh" transform="matrix(1.52586 0 0 1.52586 -575.601 -221.403)"/><use xlink:href="#di" transform="matrix(1.52586 0 0 1.52586 -575.601 -221.403)"/><use xlink:href="#dj" transform="matrix(1.52586 0 0 1.52586 -575.601 -221.403)"/><use xlink:href="#dk" transform="matrix(1.52586 0 0 1.52586 -575.601 -221.403)"/><use xlink:href="#dl" transform="matrix(1.52586 0 0 1.52586 -575.601 -221.403)"/><use xlink:href="#dm" transform="matrix(1.52586 0 0 1.52586 -575.601 -221.403)"/><use xlink:href="#dn" transform="matrix(1.52586 0 0 1.52586 -575.601 -221.403)"/><use xlink:href="#do" transform="matrix(1.52586 0 0 1.52586 -575.601 -221.403)"/><use xlink:href="#dp" transform="matrix(1.52586 0 0 1.52586 -575.601 -221.403)"/><use xlink:href="#dq" transform="matrix(1.52586 0 0 1.52586 -575.601 -221.403)"/><use xlink:href="#dr" transform="matrix(1.52586 0 0 1.52586 -575.601 -221.403)"/><use xlink:href="#ds" transform="matrix(1.52586 0 0 1.52586 -575.601 -221.403)"/><use xlink:href="#dt" transform="matrix(1.52586 0 0 1.52586 -575.601 -221.403)"/><use xlink:href="#du" transform="matrix(1.52586 0 0 1.52586 -575.601 -221.403)"/><use xlink:href="#dv" transform="matrix(1.52586 0 0 1.52586 -575.601 -221.403)"/><use xlink:href="#dw" transform="matrix(1.52586 0 0 1.52586 -575.601 -221.403)"/><use xlink:href="#dx" transform="matrix(1.52586 0 0 1.52586 -575.601 -221.403)"/><use xlink:href="#dy" transform="matrix(1.52586 0 0 1.52586 -575.601 -221.403)"/><use xlink:href="#dz" transform="matrix(1.52586 0 0 1.52586 -575.601 -221.403)"/><use xlink:href="#dA" transform="matrix(1.52586 0 0 1.52586 -575.601 -221.403)"/><use xlink:href="#dB" transform="matrix(1.52586 0 0 1.52586 -575.601 -221.403)"/><use xlink:href="#dC" transform="matrix(1.52586 0 0 1.52586 -575.601 -221.403)"/><use xlink:href="#dD" transform="matrix(1.52586 0 0 1.52586 -575.601 -221.403)"/><use xlink:href="#dE" transform="matrix(1.52586 0 0 1.52586 -575.601 -221.403)"/><use xlink:href="#dF" transform="matrix(1.52586 0 0 1.52586 -575.601 -221.403)"/><use xlink:href="#dG" transform="matrix(1.52586 0 0 1.52586 -575.601 -221.403)"/><use xlink:href="#dH" transform="matrix(1.52586 0 0 1.52586 -575.601 -221.403)"/><use xlink:href="#dI" transform="matrix(1.52586 0 0 1.52586 -575.601 -221.403)"/><use xlink:href="#dJ" transform="matrix(1.52586 0 0 1.52586 -575.601 -221.403)"/><use xlink:href="#dK" transform="matrix(1.52586 0 0 1.52586 -575.601 -221.403)"/><use xlink:href="#dL" transform="matrix(1.52586 0 0 1.52586 -575.601 -221.403)"/><use xlink:href="#dM" transform="matrix(1.52586 0 0 1.52586 -575.601 -221.403)"/><use xlink:href="#dN" transform="matrix(1.52586 0 0 1.52586 -575.601 -221.403)"/><use xlink:href="#dO" transform="matrix(1.52586 0 0 1.52586 -575.601 -221.403)"/><use xlink:href="#dP" transform="matrix(1.52586 0 0 1.52586 -575.601 -221.403)"/><use xlink:href="#dQ" transform="matrix(1.52586 0 0 1.52586 -575.601 -221.403)"/><use xlink:href="#dR" transform="matrix(1.52586 0 0 1.52586 -575.601 -221.403)"/><use xlink:href="#dS" transform="matrix(1.52586 0 0 1.52586 -575.601 -221.403)"/><use xlink:href="#dT" transform="matrix(1.52586 0 0 1.52586 -575.601 -221.403)"/><use xlink:href="#dU" transform="matrix(1.52586 0 0 1.52586 -575.601 -221.403)"/><use xlink:href="#dV" transform="matrix(1.52586 0 0 1.52586 -575.601 -221.403)"/><use xlink:href="#dW" transform="matrix(1.52586 0 0 1.52586 -575.601 -221.403)"/><use xlink:href="#dX" transform="matrix(1.52586 0 0 1.52586 -575.601 -221.403)"/><use xlink:href="#dY" transform="matrix(1.52586 0 0 1.52586 -575.601 -221.403)"/><use xlink:href="#dZ" transform="matrix(1.52586 0 0 1.52586 -575.601 -221.403)"/><use xlink:href="#ea" transform="matrix(1.52586 0 0 1.52586 -575.601 -221.403)"/><use xlink:href="#eb" transform="matrix(1.52586 0 0 1.52586 -575.601 -221.403)"/><use xlink:href="#ec" transform="matrix(1.52586 0 0 1.52586 -575.601 -221.403)"/><use xlink:href="#ed" transform="matrix(1.52586 0 0 1.52586 -575.601 -221.403)"/><use xlink:href="#ee" transform="matrix(1.52586 0 0 1.52586 -575.601 -221.403)"/><use xlink:href="#ef" transform="matrix(1.52586 0 0 1.52586 -575.601 -221.403)"/><use xlink:href="#eg" transform="matrix(1.52586 0 0 1.52586 -575.601 -221.403)"/><use xlink:href="#eh" transform="matrix(1.52586 0 0 1.52586 -575.601 -221.403)"/><use xlink:href="#ei" transform="matrix(1.52586 0 0 1.52586 -575.601 -221.403)"/><use xlink:href="#ej" transform="matrix(1.52586 0 0 1.52586 -575.601 -221.403)"/><use xlink:href="#ek" transform="matrix(1.52586 0 0 1.52586 -575.601 -221.403)"/><use xlink:href="#el" transform="matrix(1.52586 0 0 1.52586 -575.601 -221.403)"/><use xlink:href="#em" transform="matrix(1.52586 0 0 1.52586 -575.601 -221.403)"/><use xlink:href="#en" transform="matrix(1.52586 0 0 1.52586 -575.601 -221.403)"/><use xlink:href="#eo" transform="matrix(1.52586 0 0 1.52586 -575.601 -221.403)"/><use xlink:href="#ep" transform="matrix(1.52586 0 0 1.52586 -575.601 -221.403)"/><use xlink:href="#eq" transform="matrix(1.52586 0 0 1.52586 -575.601 -221.403)"/><use xlink:href="#er" transform="matrix(1.52586 0 0 1.52586 -575.601 -221.403)"/><use xlink:href="#es" transform="matrix(1.52586 0 0 1.52586 -575.601 -221.403)"/><use xlink:href="#et" transform="matrix(1.52586 0 0 1.52586 -575.601 -221.403)"/><use xlink:href="#eu" transform="matrix(1.52586 0 0 1.52586 -575.601 -221.403)"/><use xlink:href="#ev" transform="matrix(1.52586 0 0 1.52586 -575.601 -221.403)"/><use xlink:href="#ew" transform="matrix(1.52586 0 0 1.52586 -575.601 -221.403)"/><use xlink:href="#ex" transform="matrix(1.52586 0 0 1.52586 -575.601 -221.403)"/><use xlink:href="#ey" transform="matrix(1.52586 0 0 1.52586 -575.601 -221.403)"/><use xlink:href="#ez" transform="matrix(1.52586 0 0 1.52586 -575.601 -221.403)"/><use xlink:href="#eA" transform="matrix(1.52586 0 0 1.52586 -575.601 -221.403)"/><use xlink:href="#eB" transform="matrix(1.52586 0 0 1.52586 -575.601 -221.403)"/><use xlink:href="#eC" transform="matrix(1.52586 0 0 1.52586 -575.601 -221.403)"/><use xlink:href="#eD" transform="matrix(1.52586 0 0 1.52586 -575.601 -221.403)"/><use xlink:href="#eE" transform="matrix(1.52586 0 0 1.52586 -575.601 -221.403)"/><use xlink:href="#eF" transform="matrix(1.52586 0 0 1.52586 -575.601 -221.403)"/><use xlink:href="#eG" transform="matrix(1.52586 0 0 1.52586 -575.601 -221.403)"/><use xlink:href="#eH" transform="matrix(1.52586 0 0 1.52586 -575.601 -221.403)"/><use xlink:href="#eI" transform="matrix(1.52586 0 0 1.52586 -575.601 -221.403)"/><use xlink:href="#eJ" transform="matrix(1.52586 0 0 1.52586 -575.601 -221.403)"/><use xlink:href="#eK" transform="matrix(1.52586 0 0 1.52586 -575.601 -221.403)"/><use xlink:href="#eL" transform="matrix(1.52586 0 0 1.52586 -575.601 -221.403)"/><use xlink:href="#eM" transform="matrix(1.52586 0 0 1.52586 -575.601 -221.403)"/><use xlink:href="#eN" transform="matrix(1.52586 0 0 1.52586 -575.601 -221.403)"/><use xlink:href="#eO" transform="matrix(1.52586 0 0 1.52586 -575.601 -221.403)"/><use xlink:href="#eP" transform="matrix(1.52586 0 0 1.52586 -575.601 -221.403)"/><use xlink:href="#eQ" transform="matrix(1.52586 0 0 1.52586 -575.601 -221.403)"/><use xlink:href="#eR" transform="matrix(1.52586 0 0 1.52586 -575.601 -221.403)"/><use xlink:href="#eS" transform="matrix(1.52586 0 0 1.52586 -575.601 -221.403)"/><use xlink:href="#eT" transform="matrix(1.52586 0 0 1.52586 -575.601 -221.403)"/><use xlink:href="#eU" transform="matrix(1.52586 0 0 1.52586 -575.601 -221.403)"/><use xlink:href="#eV" transform="matrix(1.52586 0 0 1.52586 -575.601 -221.403)"/><use xlink:href="#eW" transform="matrix(1.52586 0 0 1.52586 -575.601 -221.403)"/><use xlink:href="#eX" transform="matrix(1.52586 0 0 1.52586 -575.601 -221.403)"/><use xlink:href="#eY" transform="matrix(1.52586 0 0 1.52586 -575.601 -221.403)"/><use xlink:href="#eZ" transform="matrix(1.52586 0 0 1.52586 -575.601 -221.403)"/><use xlink:href="#fa" transform="matrix(1.52586 0 0 1.52586 -575.601 -221.403)"/><use xlink:href="#fb" transform="matrix(1.52586 0 0 1.52586 -575.601 -221.403)"/><use xlink:href="#fc" transform="matrix(1.52586 0 0 1.52586 -575.601 -221.403)"/><use xlink:href="#fd" transform="matrix(1.52586 0 0 1.52586 -575.601 -221.403)"/><use xlink:href="#fe" transform="matrix(1.52586 0 0 1.52586 -575.601 -221.403)"/><use xlink:href="#ff" transform="matrix(1.52586 0 0 1.52586 -575.601 -221.403)"/><use xlink:href="#fg" transform="matrix(1.52586 0 0 1.52586 -575.601 -221.403)"/><use xlink:href="#fh" transform="matrix(1.52586 0 0 1.52586 -575.601 -221.403)"/><use xlink:href="#fi" transform="matrix(1.52586 0 0 1.52586 -575.601 -221.403)"/><use xlink:href="#fj" transform="matrix(1.52586 0 0 1.52586 -575.601 -221.403)"/><use xlink:href="#fk" transform="matrix(1.52586 0 0 1.52586 -575.601 -221.403)"/><use xlink:href="#fl" transform="matrix(1.52586 0 0 1.52586 -575.601 -221.403)"/></svg>