<svg xmlns="http://www.w3.org/2000/svg" xmlns:xlink="http://www.w3.org/1999/xlink" preserveAspectRatio="none" width="284" height="320"><defs><linearGradient id="a" gradientUnits="userSpaceOnUse" x1="413.475" y1="286.1" x2="490.625" y2="286.1" spreadMethod="pad"><stop offset="0%" stop-color="#D2D4D5"/><stop offset="52.941%" stop-color="#BCBEC0"/><stop offset="100%" stop-color="#97999B"/></linearGradient><linearGradient id="b" gradientUnits="userSpaceOnUse" x1="515.488" y1="237.55" x2="413.713" y2="237.55" spreadMethod="pad"><stop offset="0%" stop-color="#CF303A"/><stop offset="7.843%" stop-color="#EE333F"/><stop offset="14.902%" stop-color="#D6313B"/><stop offset="25.882%" stop-color="#C93039"/><stop offset="54.902%" stop-color="#EE333F"/><stop offset="85.882%" stop-color="#F6917D"/><stop offset="100%" stop-color="#EE333F"/></linearGradient><linearGradient id="c" gradientUnits="userSpaceOnUse" x1="507.075" y1="248.263" x2="514.725" y2="263.938" spreadMethod="pad"><stop offset="0%" stop-color="#DE323C"/><stop offset="100%" stop-color="#B52E35"/></linearGradient><linearGradient id="d" gradientUnits="userSpaceOnUse" x1="445.137" y1="208.787" x2="431.262" y2="244.912" spreadMethod="pad"><stop offset="0%" stop-color="#FDD8CB"/><stop offset="100%" stop-color="#F8A38E"/></linearGradient><linearGradient id="e" gradientUnits="userSpaceOnUse" x1="428.512" y1="240.05" x2="468.387" y2="240.05" spreadMethod="pad"><stop offset="0%" stop-color="#EF4A47"/><stop offset="100%" stop-color="#CF303A"/></linearGradient><linearGradient id="f" gradientUnits="userSpaceOnUse" x1="453.7" y1="250.075" x2="477.6" y2="253.425" spreadMethod="pad"><stop offset="0%" stop-color="#C22F38"/><stop offset="100%" stop-color="#A12B31"/></linearGradient><linearGradient id="g" gradientUnits="userSpaceOnUse" x1="474.7" y1="213.675" x2="497.2" y2="223.225" spreadMethod="pad"><stop offset="0%" stop-color="#EE333F"/><stop offset="100%" stop-color="#EF4A47"/></linearGradient><linearGradient id="h" gradientUnits="userSpaceOnUse" x1="472.1" y1="231.725" x2="485.2" y2="237.275" spreadMethod="pad"><stop offset="0%" stop-color="#EE333F"/><stop offset="100%" stop-color="#EF4A47"/></linearGradient><linearGradient id="i" gradientUnits="userSpaceOnUse" x1="505.45" y1="274.8" x2="393.65" y2="274.8" spreadMethod="pad"><stop offset="0%" stop-color="#E7E8E9"/><stop offset="14.118%" stop-color="#D2D4D5"/><stop offset="34.902%" stop-color="#EFF0F0"/><stop offset="60%" stop-color="#FFF"/><stop offset="92.941%" stop-color="#EBECED"/><stop offset="100%" stop-color="#D0D2D3"/></linearGradient><radialGradient id="j" gradientUnits="userSpaceOnUse" cx="0" cy="0" r="34.075" fx="0" fy="0" gradientTransform="matrix(1 0 0 -1 527.5 278.55)" spreadMethod="pad"><stop offset="0%" stop-color="#FFF"/><stop offset="32.157%" stop-color="#F6F6F6"/><stop offset="81.961%" stop-color="#D2D4D5"/><stop offset="100%" stop-color="#FFF"/></radialGradient><linearGradient id="k" gradientUnits="userSpaceOnUse" x1="536.175" y1="291.838" x2="531.825" y2="284.863" spreadMethod="pad"><stop offset="0%" stop-color="#D2D4D5"/><stop offset="100%" stop-color="#E1E2E3"/></linearGradient><linearGradient id="l" gradientUnits="userSpaceOnUse" x1="498.45" y1="278.25" x2="419.05" y2="278.25" spreadMethod="pad"><stop offset="0%" stop-color="#CED0D1"/><stop offset="14.118%" stop-color="#CED0D1"/><stop offset="34.902%" stop-color="#E7E8E9"/><stop offset="69.804%" stop-color="#F4F4F4"/><stop offset="100%" stop-color="#F4F4F4"/></linearGradient><linearGradient id="m" gradientUnits="userSpaceOnUse" x1="410.1" y1="265.512" x2="410.1" y2="259.287" spreadMethod="pad"><stop offset="0%" stop-color="#EFF0F0"/><stop offset="100%" stop-color="#FFF"/></linearGradient><linearGradient id="n" gradientUnits="userSpaceOnUse" x1="418.9" y1="260.525" x2="418.9" y2="256.175" spreadMethod="pad"><stop offset="0%" stop-color="#F4F4F4"/><stop offset="100%" stop-color="#FFF"/></linearGradient><linearGradient id="o" gradientUnits="userSpaceOnUse" x1="448.75" y1="259.538" x2="448.75" y2="252.463" spreadMethod="pad"><stop offset="0%" stop-color="#F8F8F9"/><stop offset="100%" stop-color="#FFF"/></linearGradient><linearGradient id="p" gradientUnits="userSpaceOnUse" x1="465.15" y1="259.538" x2="465.15" y2="254.163" spreadMethod="pad"><stop offset="0%" stop-color="#F1F2F2"/><stop offset="100%" stop-color="#FFF"/></linearGradient><linearGradient id="q" gradientUnits="userSpaceOnUse" x1="456.55" y1="268.538" x2="456.55" y2="263.063" spreadMethod="pad"><stop offset="0%" stop-color="#F4F4F4"/><stop offset="100%" stop-color="#FFF"/></linearGradient><linearGradient id="r" gradientUnits="userSpaceOnUse" x1="479.55" y1="264.538" x2="479.55" y2="256.563" spreadMethod="pad"><stop offset="0%" stop-color="#DFE0E1"/><stop offset="100%" stop-color="#FFF"/></linearGradient><linearGradient id="s" gradientUnits="userSpaceOnUse" x1="486.3" y1="270.538" x2="486.3" y2="262.663" spreadMethod="pad"><stop offset="0%" stop-color="#D4D6D7"/><stop offset="100%" stop-color="#F4F4F4"/></linearGradient><linearGradient id="t" gradientUnits="userSpaceOnUse" x1="478.6" y1="276.538" x2="478.6" y2="264.163" spreadMethod="pad"><stop offset="0%" stop-color="#DFE0E1"/><stop offset="100%" stop-color="#FFF"/></linearGradient><linearGradient id="u" gradientUnits="userSpaceOnUse" x1="414.9" y1="282.525" x2="414.9" y2="276.775" spreadMethod="pad"><stop offset="0%" stop-color="#F1F2F2"/><stop offset="100%" stop-color="#FFF"/></linearGradient><linearGradient id="v" gradientUnits="userSpaceOnUse" x1="469" y1="283.525" x2="469" y2="277.975" spreadMethod="pad"><stop offset="0%" stop-color="#E9EAEB"/><stop offset="100%" stop-color="#FFF"/></linearGradient><linearGradient id="w" gradientUnits="userSpaceOnUse" x1="407.3" y1="291.512" x2="407.3" y2="285.588" spreadMethod="pad"><stop offset="0%" stop-color="#EDEEEF"/><stop offset="100%" stop-color="#FFF"/></linearGradient><linearGradient id="x" gradientUnits="userSpaceOnUse" x1="470.85" y1="269.5" x2="470.85" y2="260.5" spreadMethod="pad"><stop offset="0%" stop-color="#E9EAEB"/><stop offset="100%" stop-color="#FFF"/></linearGradient><linearGradient id="y" gradientUnits="userSpaceOnUse" x1="404.75" y1="278.5" x2="404.75" y2="264" spreadMethod="pad"><stop offset="0%" stop-color="#EDEEEF"/><stop offset="100%" stop-color="#FFF"/></linearGradient><linearGradient id="z" gradientUnits="userSpaceOnUse" x1="421.9" y1="271.525" x2="421.9" y2="267.175" spreadMethod="pad"><stop offset="0%" stop-color="#F4F4F4"/><stop offset="100%" stop-color="#FFF"/></linearGradient><path fill="#FFF" fill-opacity="0" d="M284 0H0v320h284V0z" id="A"/><path fill="url(#a)" d="M478.9 264.15q.193.05.35.05 1.3.05 1.65-1.65v-.05q-.288-.045-.6-.1-1.145.707-1.4 1.75m5.55-.6q1.922 0-1.9-.75.812.716 1.9.75m-2.6-1.55q-.65-1.45-.8-1.4 0 .148-.15 1.9l1.65.3q-.38-.32-.7-.8m-54 3q-1.25-.9-1.55-2.95-2.3 2-2.6 2.15-2.55 1.25-4.9-1-3.7-3.5-7.3-2.6 1.35.55 1.7 1.75.35 1.15-.3 2.25-.65.9-1.75 1.15-1.3.3-2.5-.5-.85-.55-1.1-1.95-.25-1.4.25-2.75-3 1.35-2.2 5.05.55 2.2.15 3.25-.25.55-.5.75-.45.35-1.3.3-.9-.05-1.45-.75-.55-.75-.55-2-.4 2.2.15 3.55.05.15.85 1.2.5.75.4 1.35-.1.55-.55.75-1.3.7-1.85 1.95.6-.25 1.5-.25.85 0 1.35.2.8.25.9 1.1.1.75-.4 1.4l-.6.8q-1.9 2-1.9 4.3.15-.55.9-1.2.85-.75 1.75-.95 2.15-.5 3.1 1.45.95 1.95-1.2 2.8-.8.3-1.55.05-.85-.25-1.2-1.05-.1.95.35 1.9.45.95 1.15 1.25 1.2.45 1.1 1.15-.05.65-1.1.65-1.45.2-2.2 1.45-.7 1.2-.45 2.65 1.157-1.481 2.5-1.45 1.477-1.54 3.2-3.5.85-.7.15 2.55-.75 3.35-1.15 2.5-.6-1.35-1.95-1.5-.112-.015-.25-.05-.667.785-1.3 1.45-3.8 4-4.3 2.85-1.3 3.5.6 5.85 1.95 2.45 5.15.75.2 1.6-.85 2.55-.95.8-2 .6 4.2 1.55 7.6-3.15-.75 1.5.45 3.5 1.5 2.45 5.45 2.4-2.95-2.4-.95-3.85.75-.5 1.65-.35.95.2 1.25 1.1.7 1.95 2.35 2.7.05.05 1.9.55-1.9-3.1 1.15-3.6 1.45-.2 2.45 1.2 1.15 1.7-.4 4.2 1.75-.2 2.75-.8.95-.55 1.6-1.7.4-.65.75-1.6.4-.65 1.65-.8 1.2-.1 2 .65 1.15 1 2.75 3.05 1.55 1.45 3.9.85-1.7-.45-1.8-1.8-.1-1.3 1.3-1.45.7-.15 1.4.4.85.6 1.3 2.05-.15-1.65 1.05-2.35 1.05-.65 2.5-.25 1.3.4 1.75 1.9.5 1.55-.55 2.5 1.3 0 3.2-2.05 1.85-2.05 3-2.05.8 0 2.65 2.6 1.65 2.3 4.8 1.4-1.65-.15-2.05-1.45-.35-1.05.15-2.35.8-1.85 3.4-.7 2.6 1.15 1 3.8 2.05 0 2.65-1.45.3-.7.15-1.35.55 1.75 1.8 2.45 1.29.737 2.95 0-.57.099-1.25-1.1-.85-1.55-.05-2.5 1.4-1.6 3.65-.4 2.2 1.25 1.7 3.35 2.85-1.05 1.7-4.45 1.4.25 2.3 1.75.8 1.35 2.75 1.45-1.05-.85-.8-2.65.25-1.85 1.8-2.5 1.35-.6 2.25.8.9 1.45-.2 2.7 1.7-.1 2-1.95.25-1.45 1.35-1.55 1.2-.05 1.75 1.65.2.5 1.15.7 1.1.25 2.1-.35-2 .5-1.8-1.85.2-2.3 2.85-1.55 1.45.4 3.1-.4 1.8-.9 2.75-2.9-3.65.45-3.95-2.25-.35-2.6 2.45-3.45-2.25-.35-2.2-2.4.05-2.2 3.2-3.2-.1 0-8.7-.2-6.45-.15-5.55-.95.6-.5 1.7-1.2.85-.65 1-1.75-2 .4-2.95-.6-.8-.8-.5-2.05.3-1.25 1.4-1.5 1.25-.3 2.8 1.2-.15-1.75-.45-2.4-.55-1.4-2.3-2.3-1.05-.35-1.1-1.35-.05-1 .8-1.5 2.4-1.35 2.4-2.8-3.25.6-3.25-1.45 0-1.7 1.75-2.15.8-.25 1.4-.25-1.85-.85-3.7-.35-2.15.85-3.5 1.15-1.8.15-2.15-1.65-.098-.604 0-1.15-1.258-.131-3.5-1.45-2.15-1.3-3.6-.65 1.35 2 .6 3.45-.65 1.25-2.25 1.25-1.55.05-2.7-1.15-1.3-1.35-.15-3.1-1.65.15-2.55 1.05-.6.55-1.1 1.8-.9 2.3-2.7 1.75-1.65-.45-2.55-2.65 0 3.55-2.45 3.8-2.4.25-2.95-2.8-1.5 2.45-3.3 2.1-1.25-.15-2.1-1.65-1.55-2.5-5.55-2.2 1.6 1.25.95 2.7-.55 1.35-2.05 1.5-1.5.2-3.5-1.6-2.1-2.25-3.3-3.15-2.1-1.5-4.2-.75 1.5.3 1.4 1.5-.15 1.1-1.2 1.45-1.15.45-2.3-.35z" id="B"/><path fill="url(#b)" d="M479.5 207.25q-1.3-.75-5.4-4.8-3.1-3.1-6-3.55-5.2-.8-8.8.3-5.1 1.6-10.1 7.4-4.55 5.2-10.1 9.6-6.6 4.95-10.35 7.75-6.6 5-11.45 12.15-5.45 8-6.7 16.1 13.85-.3 34.25 1.45 11.5 1 34.2 3.15 5.95.5 11.55-1.65 4.8-1.8 7.3-1 1.15 8.4 9.9 15.6 9.1 7.45 18.7 6.8-7.15-5.8-12.75-16.25-6.05-11.25-6.05-20.5 0-14.8-9.9-22.5-3.25-2.55-9.15-5.4-7.5-3.65-9.15-4.65z" id="C"/><path fill="url(#c)" d="M507.7 239.8q0-2.25-.2-4-2.05 13.6-1.2 20.25 1.7 13.9 13 19.75 3.85 1.05 7.2.75-7.15-5.8-12.75-16.25-6.05-11.25-6.05-20.5z" id="D"/><path fill="url(#d)" d="M449.5 222.35q1.2-2.05 2.35-5.15 1.4-4.6 2.25-6.55 1.4-3.15 4.45-5.7-6 2-10.05 8.35-4.55 7.1-10.7 10.3-10.2 5.35-14.95 13.35-4.35 7.2-4.05 16.05l16.9-.75q-.15-9.3 2.15-14.65 1.65-3.85 6.45-8.75 3.25-3.25 5.2-6.5z" id="E"/><path fill="url(#e)" d="M484.55 238.1q-7.85-1.65-19.9-.2-8.65 1.05-18.4 3.5-.1.05-6.2 1.85-3.7 1.1-6.3 1.15-8.7.2-9.65-7.85-.95-7.8 5.8-13.35-9.35 6-14.65 12.2-7.75 8.95-9 19.9 42.35-.95 72.8 1.5 5.9.45 11.3-1.55 4.75-1.8 6.9-1.25 1.65-2.5 1.3-4.25-.45-2.05-3.7-4.7-3.35-3.05-4.8-4.3-2.45-2-5.5-2.65z" id="F"/><path fill="#F6917D" d="M424.05 235.2q-2.7 3.75-4.2 9.15-1.4 4.95-1.4 9.65 1.6.05 5.15-.75 3.45-.8 5.2-.7l6.9-.3q-.05-4.2.35-8.05-.95.2-2.3.2-4.7.1-7.3-2.65-2.4-2.5-2.4-6.55z" id="G"/><path fill="url(#f)" d="M473.1 237.15q7.1.1 11.45 1.95 4.7 2 5.3 5.8-7.75-1.95-17 .15-15.65 3.5-23.3 4.2-3 .25 8 8.6 12.95 9.85 14.1 12.15.25.5 13.45-5.2 13.2-5.75 13.45-5.2 3 6.2 6.25 9.4 5 4.85 13.35 6.6 2.1.4 4.3-.5 2.25-.9-1-1.9-8.7-2.75-13.4-9.9-2.25-3.45-4.45-10.55-3.15-10.3-12.35-14.05-7.5-3.05-18.15-1.55z" id="H"/><path fill="url(#g)" d="M456.75 202q4.25-2.5 8.6-1.35 3.7.95 6.6 4.3 3 3.6 7.5 10.95 4.45 5.85 11.35 7 10.25 1.75 14.65 9.8 2.15 3.95 2.25 7.1 0-9.7-1.8-14.4-1.4-3.65-5.55-7.55-2.9-2.75-6.65-4.35-4.4-1.55-6.8-2.4-3.2-1.1-6.65-3.95-3.7-3.35-5.5-4.85-4.25-3.5-8.85-3.5-4.55-.05-9.15 3.2z" id="I"/><path fill="url(#h)" d="M484.25 229.9q-6-2-11.9-1.25-7.75 1-10 2.45-1.05.75-1.35 1.3-.3.55-.1 1.3.25.75 1.9.85 1.7.1 3.75-.5 8.65-2.55 14.8-2.2 6.7.4 11.8 4.35-2.5-4.15-8.9-6.3z" id="J"/><path fill="url(#i)" d="M437.1 250.9q-1.55-.25-1.5-1.65.05-1.45 2-2-2.6-.7-4.3.95-1.75 2.35-3 3.4-1.05.85-2.3.65-1.35-.15-1.8-.85-.35-1-.8-1.7-.7-1.3-1.75-1.95-1.15-.7-3.15-.9 1.8 2.8.5 4.65-1.05 1.55-2.7 1.35-3.3-.55-1.25-3.95-1.2.15-2.15.6-1.75.85-2.5 3-.35 1-1.4 1.2-1 .2-1.8-.4-2.2-1.6 1.05-4.25-4.4-.05-6.05 2.65-1.35 2.15-.5 3.8-1.75-2.3-3.65-3-2-.75-4.6.15-.15.05 2 .85 2.15 1.4 1.7 4.15-1.75-.55-3.2.6-1.75 1.45-1.2 4.65.6-1.5 2.35-1.75 1.6-.25 2.7.6.9.75 1.15 2.05.2 1.15-.25 2.1-.7 1.5-2.2 1.7-1.65.2-2.95-1.6-.25 1.65.45 2.9.75 1.35 2.4 1.6 1.2 0 1.3.75.1.75-1.2 1.25-.8.35-1.3 1.35-.45 1-.35 2.1.35-.85 1.25-1.1.8-.25 1.7.05 2.4.9 1.35 3.1-1.05 2.1-3.4 1.55-.95-.25-1.9-1.05-.85-.7-1.1-1.3 0 2.45 2.1 4.75l.8.85q.5.7.4 1.55-.15.95-1 1.25-1.8.5-3.25-.05.75 1.45 2.1 2.15 1.25.6.2 2.2-.15.3-.95 1.45-.65 1.5-.2 3.85 0-1.3.65-2.15.6-.8 1.6-.8.85-.05 1.35.3.3.25.6.85.45 1.05-.15 3.6-.9 4.05 2.35 5.5-1.05-2.8 1.35-4.1 2.4-1.25 3.95.6.45.6.3 1.65-.25 1.25-1.4 1.8 3.95 1.1 8-2.8 2.6-2.5 5.4-1.15.7.35 2.85 2.35.35-2.25 1.8-3.25 1.2-.85 2.45-.4 1.25.4 1.35 1.65.15 1.3-1.5 1.6 2.3.85 4.65-.8.05-.05 3.6-3.45 2.05-1.95 3.95-1.75 1.6.2 2.25 1.65.7 1.6-1.1 2.95 4.45.4 6.1-2.45 1-1.6 2.3-1.8 2.15-.4 3.7 2.35.65-3.35 3.25-3.1 2.7.25 2.65 4.25 1.05-2.45 2.9-3 1.95-.6 3 1.95.5 1.35 1.15 1.95 1 1 2.9 1.15-1.3-1.95.1-3.45 1.25-1.3 2.95-1.2 1.8.05 2.55 1.4.8 1.55-.75 3.75 1.7.75 4-.65 2.9-1.75 4.3-1.8 1.4 0 1.85 1.95.2 1 .15 2.1.15.1.85-1.5 1.1-1.65 2.9-1.75.75 0 3.3 2.6 2.35 2.4 5.7 1.65-1.85-1.1-1.55-3.15.35-2.05 2.35-1.9 1.55.4 3.9 1.35 2.05.55 4.15-.45-.75.05-1.7-.25-1.9-.55-1.9-2.45 0-1.25 1.35-1.55 1.05-.25 2.25.05 0-1.65-2.55-3.15-1-.5-.95-1.6 0-1.15 1.2-1.6 1.95-.9 2.6-2.45.3-.7.45-2.65-1.7 1.65-3.1 1.3-1.2-.25-1.55-1.65-.3-1.35.6-2.3 1.05-1.05 3.25-.6-.2-1.15-1.15-1.95-1.2-.8-1.85-1.35-1.35-1.1-.7-2.5.65-1.4 2.75-1.65-3.45-1.15-3.45-3.55-.05-2.3 2.4-2.65-3.1-1-2.75-3.9.4-2.9 4.4-2.45-.65-1.45-1.9-2.15-1.1-.55-2.3-.45-3.05.25-3.2-1.8-.15-2.1 2-1.95-2.15-.6-3.6.45-2.45 1.65-3.95-.15-1.05-1.1-1.15-3.4-.55 2.8-2.05 3.95-1.4 1-2.95.3-1.75-.7-1.95-2.75-.25-1.95.9-2.9-2.15.1-3.05 1.6-1 1.65-2.6 1.9 1.35-3.65-1.8-4.9.5 2.35-1.9 3.7-2.45 1.35-4-.45-.95-1.05 0-2.7.818-1.42 1.5-1.2-1.888-.903-3.4-.1-1.35.75-2 2.7.15-.65-.15-1.4-.65-1.6-2.95-1.6 1.8 2.85-1.05 4.15-2.9 1.25-3.75-.8-.6-1.35-.2-2.6.5-1.5 2.3-1.65-3.5-1-5.3 1.6-2.05 2.9-2.9 2.9-1.25 0-3.35-2.25-2.05-2.3-3.5-2.3 1.15 1.05.6 2.75-.5 1.7-2 2.15-1.55.4-2.75-.3-1.3-.8-1.1-2.6-.5 1.55-1.45 2.3-.75.6-1.5.45z" id="K"/><path fill="url(#j)" d="M515.25 268.95q-1 .2-2 .8 2.3-.2 3.2 1.45.85 1.55-.45 2.8-.6.45-2.15.75-1.95.25-3.15 1.65t-1.05 3.35q.8-1.3 2.3-1.65 2-.3 2 .85-.05 1.1-1.7 1.9-1.7 1-1.85 2.5 1.1-1.35 2.5-.75 1.3.55 1.2 1.85-.2 1.9-2 2.1-1.85.15-2.35-1.6.2 3.95 3.85 4.7.85.1 1.15.85.25.8-.4 1.65-1.7 2.2-.45 4.7-.05-1.45.9-2.05.8-.5 1.7-.25 1 .3.95 1.25-.05 1-1.3.9.3 1.3 2.1 1.35 1.675.045 2.2-1.4-.379 1.348-.2 2.6.2 1.9 1.65 2.65-.75-1.75.1-3.1t2.35-1.15q1.75.1 1.95 1.9.2 2.05.45 2.65.45 1.25 1.85 1.7-.9-1.75 0-2.85.75-.95 2-.85 1.3.1 1.7 1.25.45 1.25-.75 2.5 1.2.25 2.4-.95t1-2.5q.5 1.5 2.15 2 1.55.45 2.8-.35-.95.2-1.7-.45-.7-.6-.8-1.35-.3-1.5 1-2.2 1.35-.7 2.65.35.6.5.7 1.25.2.9-.5 1.6 2.05-.35 2.5-2.1 0-.05.1-2.55.15-2.5 2.75-2.3 2.35.2 3.3-1.25-1.35.5-2.05-.05-.6-.4-.55-1.25.15-.9 1.25-1.2 1.1-.4 1.6-.75.9-.6 1.35-1.7-1.35 1.35-2.85.7-1.45-.55-1.2-2 .2-.9 1.1-1.3 1-.45 2.15.15.1-1.3-.75-2.3-.85-1-2.2-1.15-.25-2.15 1.65-2.5 1.9-.35 2.65 1.55.15-1.65-.8-2.7-.75-.75-1.75-.9-1.7-.2-2.05-1.35-.3-1.1.75-1.8 1.15-.7 2.7-.3-1.05-1.5-3.6-1.45-.95 0-1.35-.65-.45-.65 0-1.55 1.2-2.2 0-3.6.6 1.5-.65 2.15-1.2.6-2-.15-.9-.8-.45-1.95.5-1.3 2.4-1.65-.9-.35-2.05-.3-1.05 0-1.65.3-1.8.9-3 .95-1.4.05-1.4-1.1-.05-1.7-.45-2.5-.35-.75-1.35-1.15.75 1.5-.05 2.55-.65.8-1.45.75-1.05-.2-1.2-1.4-.2-1.3 1.5-2.15-3-.25-4.5 1.55-1.2 1.35-1.25 3.45-.9-3.2.55-4.4-2.15.45-2.95 2.15-.8 1.7-1.8 1.85-.35.05-2.15-.55-1.65-.6-3.55-.1 1.05 0 1.75.7.65.7.55 1.5-.05 1.2-1.9 1.2-2.6 0-3.65.2z" id="L"/><path fill="url(#k)" d="M544.3 277.7q-.9-1.1-2-.65-1.05.4-.95 1.45.1 1 .95 1.45.75.35 1.55.05.2-.65.85-1 .097 0 .1-.1v.1q.65-.3 1.35 0 .75.3 1 1.15-.15-3.2-3.1-3.7-.65-.1-.85-.7-.2-.6.35-1.3l.4-.6-.95-.25q-1.55-.3-1.5.65.05.85 1.3 1.5t1.5 1.95m-24.85 17.6q.65.3 1.55.3.85-.05 1.25-.3 1.45-.7 2.4-.75 1.05 0 1.05.9.1 1.4.35 1.95.3.6 1.1.9-.6-1.2 0-1.95.55-.65 1.15-.6.8.15.95 1.05.15 1.05-1.15 1.7 2.3.15 3.5-1.25.9-1.1.95-2.7.8 2.45-.45 3.45 1.7-.35 2.35-1.7.65-1.35 1.4-1.5.2 0 1.7.5 1.25.45 2.7 0-.8.05-1.35-.5-.5-.5-.45-1.15.1-.9 1.5-.9 2.05 0 2.85-.15 1.1-.3 1.55-.65-1.75.2-2.45-1.1-.6-1.2.35-2.15.4-.45 1.7-.55 1.35-.25 2.25-1.2.9-.95.95-2.3v-.5q-.4 1-1.8 1.3-1.55.25-1.5-.65 0-.85 1.3-1.5 1.2-.7 1.45-1.95-.65.8-1.5.75-.75-.1-1.15-.75-.8.85-2.25 1.25-.65.05-.85.65-.2.6.35 1.25 1.3 1.8.3 3.7.05-1.1-.7-1.65-.65-.45-1.35-.25-.8.25-.7 1.05.05.75 1 .7-.25 1.05-1.65 1.1-1.212.042-1.65-1 .273 1 .15 1.9-.2 1.45-1.3 2.05.5-1.35-.1-2.4-.65-1-1.85-.95-1.4.15-1.75 1.95-.5 2.75-3.2 3-2.75.2-3.25-2.6-1.15 1.7-3.5 1-2.2-.7-2.35-2.05-.8.9-.95 2-.2 1.2.55 2.05-.45-1.2.5-1.7.95-.45 1.55.1.75.6.4 1.55-.45 1-1.9 1.25m-1.3-7.25q-.1-.8-.5-1.3.3.95-.5 1.45-.95.55-2.15.2.8 1.15 2.8 1.15h.35v-1.5z" id="M"/><path fill="url(#l)" d="M422.15 290.35q.25-.9-.25-1.7-.7-1.2-2.25-1.05-.8.7-.8 1.45.9-.15 1.6.05 1 .25.95 1.2-.05 1.3-1.45 1.65-1.3.1-1.15.15 1.45.75 2.95.4.85-.2 2.8-.85 1.45-.05 1.65 1.4.2 1.45-1.2 2.2 2.4.65 4.15-1 1.85-1.85 2.45-1.8 1.3.1 2 1.35.4.6.6 1.1 0-.8.15-1.5.4-1.35 1.35-1.3 1.05 0 3.05 1.3 1.65 1.05 2.85.55-1.05-1.6-.4-2.65.55-.95 1.85-.95 1.2 0 2.1 1 1 1.1 0 2.45 1.35-.1 2.05-.75.45-.4.9-1.4.8-1.85 2.25-1.35 1.3.45 1.9 2.2.1-2.8 2.05-2.95 1.9-.1 2.3 2.3 1.1-1.85 2.65-1.55 1.1.2 1.65 1.35 1.1 2.05 4.35 1.85-1.25-1.05-.75-2.15.5-1 1.65-1.05.7-.05 1.5.35.75.35 1.25.95 2.4 2.45 2.55 2.6 1.65 1.25 3.3.7-1.15-.25-1.05-1.2.1-.95.95-1.2 1-.2 1.85.4 1 .75 1.2 2.35 1.8-1.5 2.05-1.6 2-.9 3.85.95 2.9 2.9 5.75 2.25-1.05-.45-1.3-1.45-.2-.9.3-1.75.55-.7 1.4-.85 1-.2 2 .5.55.45.75 1.55.15 1.1-.2 2.15 2.4-1 1.8-3.9-.3-2 0-2.6.4-.85 1.45-.8.75.1 1.15.65.45.6.35 1.5.4-1.7 0-2.7-.05-.15-.65-1-.65-1.2.25-1.7 1.1-.65 1.5-1.4-1.05.3-2.3-.1-.65-.25-.7-.9-.1-.65.35-1.1l.55-.65q1.6-1.5 1.6-3.3-.2.45-.8.9-.65.55-1.35.65-1.7.4-2.4-1.15-.75-1.55 1-2.2.65-.25 1.25 0 .65.25.85.85.1-.8-.2-1.55-.3-.8-.9-1-.9-.4-.8-.95.05-.55.9-.45 1.2-.2 1.8-1.1.5-.85.4-2.1-1 1.25-2.15 1.05-1.1-.15-1.55-1.25-.3-.7-.15-1.5.2-.95.9-1.4.8-.6 1.9-.4 1.25.2 1.7 1.3.5-2.3-.8-3.35-1.05-.9-2.3-.5-.2-2 1.4-2.95.8-.45 1.45-.55-1.85-.75-3.35-.25-1.4.45-2.65 2.1.35-.65.15-1.65-.25-1.25-1.25-2.1-1.5.6-1.2 2.25.25 1.6 1.95 2.1-1.8.3-1.75 1.95.05 1.7 2.55 2.5-1.55.2-2 1.25-.45.95.45 1.8.55.4 1.45.9.7.5.9 1.4-3.35-.65-3.5 2.1-.1 1 .6 1.15.8.25 2-.95-.05 1.4-.3 1.95-.45 1.05-1.85 1.8-.8.3-.8 1.1t.65 1.2q1.9 1.1 1.9 2.2-.95-.2-1.65 0-.95.2-.95 1.15.05 1.35 1.4 1.7.7.2 1.2.2-1.5.7-2.95.3-1.75-.65-2.85-.9-1.45-.1-1.65 1.35-.25 1.45 1.1 2.25-2.35.6-4.05-1.1-1.9-1.85-2.45-1.85-1.3.1-2.05 1.3-.5 1.2-.6 1.1.05-.8-.1-1.5-.35-1.4-1.35-1.4-1.05.05-3.05 1.3-1.65 1-2.85.5 1.05-1.6.45-2.7-.55-.95-1.8-.95-1.25-.1-2.15.85-1 1.1-.1 2.5-1.3-.05-2-.8-.5-.45-.85-1.4-.8-1.85-2.2-1.4-1.3.4-2.05 2.2 0-2.3-1.4-2.9-.25 1.5-1.45 2.55-1.25 1.05-2.85 1.05-1.9 0-3.2-1.3-1.4 1.75-3.2 1.8-1.85.15-2.75-1.15-.95-1.4.65-2.8-2.65.45-3.8 3.4-1.05 2.7-4.7 2.65 1.15-.25 1.05-1.2-.1-.85-1-1.2-.9-.3-1.8.3-1 .75-1.2 2.4-1.55-1.45-2.1-1.7-2.05-.95-3.9.9-2.7 2.8-5.75 2.1 1.05-.45 1.35-1.4z" id="N"/><path fill="url(#m)" d="M407.5 267.1l4.45-.2q-2-2.85-1.3-5.7.6-2.7 2.75-2.9-3-.85-5.2 1.75-2.4 2.8-.7 7.05z" id="O"/><path fill="url(#n)" d="M417.55 262.15l3.25.2q1.2-3.05-.5-5.05-1.6-1.85-3.75-1.2 1.55.1 2 2.05.45 2.05-1 4z" id="P"/><path fill="url(#o)" d="M447.1 259.25l3.95.2q1.5-3.75-.65-6.2-1.95-2.25-4.55-1.5 1.85.1 2.45 2.5.6 2.55-1.2 5z" id="Q"/><path fill="url(#p)" d="M462.85 260.85l3.95-.25q-1.8-2.4-1.2-4.9.55-2.4 2.45-2.5-2.6-.8-4.55 1.45-2.15 2.45-.65 6.2z" id="R"/><path fill="url(#q)" d="M454.95 270.55l3.8.35q1.4-5.55-.6-9.15-1.85-3.3-4.35-2.2 1.8.25 2.3 3.7.6 3.7-1.15 7.3z" id="S"/><path fill="url(#r)" d="M477.2 266.1l3.95-.3q-1.75-3.25-1.15-6.55.55-3.15 2.45-3.3-2.65-1.05-4.6 1.95-2.1 3.2-.65 8.2z" id="T"/><path fill="url(#s)" d="M483.4 263.5q1.9.1 2.45 2.5.65 2.55-1.15 5l3.95.2q1.45-3.75-.65-6.25-1.95-2.25-4.6-1.45z" id="U"/><path fill="url(#t)" d="M477.05 277.25l2.65-.2q-1.15-2.2-.75-4.45.35-2.15 1.6-2.35-1.8-.65-3.1 1.4-1.4 2.2-.4 5.6z" id="V"/><path fill="url(#u)" d="M413.3 283.3l3.9.2q1.5-3.7-.6-6.15-1.9-2.25-4.55-1.45 1.9.1 2.45 2.5.55 2.45-1.2 4.9z" id="W"/><path fill="url(#v)" d="M467.85 283.65l2.7.25q1-3.4-.45-5.65-1.3-2.05-3.05-1.35 1.25.15 1.6 2.3.4 2.25-.8 4.45z" id="X"/><path fill="url(#w)" d="M406.55 291.8l1.9.15q.7-2.6-.35-4.25-.95-1.55-2.2-1 .9.1 1.2 1.7.25 1.7-.55 3.4z" id="Y"/><path fill="url(#x)" d="M470 269.5l2 .1q.75-2.5-.3-4.15-.95-1.5-2.3-1 .95.1 1.2 1.7.3 1.7-.6 3.35z" id="Z"/><path fill="url(#y)" d="M407.05 277.85q1.45-3.75-.65-6.2-1.95-2.25-4.5-1.45 1.85.15 2.4 2.5.6 2.5-1.2 4.9l3.95.25z" id="aa"/><path fill="url(#z)" d="M420.5 273.15l3.25.2q1.2-3.05-.5-5.05-1.55-1.8-3.75-1.2 1.55.1 2 2.05.5 2.05-1 4z" id="ab"/></defs><use xlink:href="#A"/><use xlink:href="#B" transform="matrix(1.79462 0 0 1.79462 -706.67 -297.921)"/><use xlink:href="#C" transform="matrix(1.79462 0 0 1.79462 -706.67 -297.921)"/><use xlink:href="#D" transform="matrix(1.79462 0 0 1.79462 -706.67 -297.921)"/><use xlink:href="#E" transform="matrix(1.79462 0 0 1.79462 -706.67 -297.921)"/><use xlink:href="#F" transform="matrix(1.79462 0 0 1.79462 -706.67 -297.921)"/><use xlink:href="#G" transform="matrix(1.79462 0 0 1.79462 -706.67 -297.921)"/><use xlink:href="#H" transform="matrix(1.79462 0 0 1.79462 -706.67 -297.921)"/><use xlink:href="#I" transform="matrix(1.79462 0 0 1.79462 -706.67 -297.921)"/><use xlink:href="#J" transform="matrix(1.79462 0 0 1.79462 -706.67 -297.921)"/><use xlink:href="#K" transform="matrix(1.79462 0 0 1.79462 -706.67 -297.921)"/><use xlink:href="#L" transform="matrix(1.79462 0 0 1.79462 -706.67 -297.921)"/><use xlink:href="#M" transform="matrix(1.79462 0 0 1.79462 -706.67 -297.921)"/><use xlink:href="#N" transform="matrix(1.79462 0 0 1.79462 -706.67 -297.921)"/><use xlink:href="#O" transform="matrix(1.79462 0 0 1.79462 -706.67 -297.921)"/><use xlink:href="#P" transform="matrix(1.79462 0 0 1.79462 -706.67 -297.921)"/><use xlink:href="#Q" transform="matrix(1.79462 0 0 1.79462 -706.67 -297.921)"/><use xlink:href="#R" transform="matrix(1.79462 0 0 1.79462 -706.67 -297.921)"/><use xlink:href="#S" transform="matrix(1.79462 0 0 1.79462 -706.67 -297.921)"/><use xlink:href="#T" transform="matrix(1.79462 0 0 1.79462 -706.67 -297.921)"/><use xlink:href="#U" transform="matrix(1.79462 0 0 1.79462 -706.67 -297.921)"/><use xlink:href="#V" transform="matrix(1.79462 0 0 1.79462 -706.67 -297.921)"/><use xlink:href="#W" transform="matrix(1.79462 0 0 1.79462 -706.67 -297.921)"/><use xlink:href="#X" transform="matrix(1.79462 0 0 1.79462 -706.67 -297.921)"/><use xlink:href="#Y" transform="matrix(1.79462 0 0 1.79462 -706.67 -297.921)"/><use xlink:href="#Z" transform="matrix(1.79462 0 0 1.79462 -706.67 -297.921)"/><use xlink:href="#aa" transform="matrix(1.79462 0 0 1.79462 -706.67 -297.921)"/><use xlink:href="#ab" transform="matrix(1.79462 0 0 1.79462 -706.67 -297.921)"/></svg>