<svg xmlns="http://www.w3.org/2000/svg" xmlns:xlink="http://www.w3.org/1999/xlink" preserveAspectRatio="none" width="284" height="320"><defs><linearGradient id="a" gradientUnits="userSpaceOnUse" x1="470.55" y1="291.313" x2="410.35" y2="270.587" spreadMethod="pad"><stop offset="0%" stop-color="#E1E2E3"/><stop offset="14.118%" stop-color="#D2D4D5"/><stop offset="34.902%" stop-color="#E9EAEB"/><stop offset="60%" stop-color="#F4F4F4"/><stop offset="92.941%" stop-color="#E5E6E7"/><stop offset="100%" stop-color="#E1E2E3"/></linearGradient><linearGradient id="b" gradientUnits="userSpaceOnUse" x1="461.475" y1="306.5" x2="434.825" y2="306.5" spreadMethod="pad"><stop offset="0%" stop-color="#EF4A47"/><stop offset="100%" stop-color="#F6917D"/></linearGradient><linearGradient id="c" gradientUnits="userSpaceOnUse" x1="460.487" y1="321.313" x2="432.813" y2="319.388" spreadMethod="pad"><stop offset="0%" stop-color="#E7E8E9"/><stop offset="78.824%" stop-color="#FFF"/><stop offset="100%" stop-color="#E7E8E9"/></linearGradient><linearGradient id="d" gradientUnits="userSpaceOnUse" x1="506.475" y1="306.5" x2="479.825" y2="306.5" spreadMethod="pad"><stop offset="0%" stop-color="#CF303A"/><stop offset="100%" stop-color="#EF4A47"/></linearGradient><linearGradient id="e" gradientUnits="userSpaceOnUse" x1="507.487" y1="320.962" x2="479.813" y2="319.038" spreadMethod="pad"><stop offset="0%" stop-color="#E7E8E9"/><stop offset="78.824%" stop-color="#FFF"/><stop offset="100%" stop-color="#E7E8E9"/></linearGradient><linearGradient id="f" gradientUnits="userSpaceOnUse" x1="468.275" y1="290.787" x2="528.825" y2="271.113" spreadMethod="pad"><stop offset="0%" stop-color="#E1E2E3"/><stop offset="14.118%" stop-color="#D2D4D5"/><stop offset="34.902%" stop-color="#E9EAEB"/><stop offset="60%" stop-color="#F4F4F4"/><stop offset="92.941%" stop-color="#E5E6E7"/><stop offset="100%" stop-color="#E1E2E3"/></linearGradient><linearGradient id="g" gradientUnits="userSpaceOnUse" x1="444.463" y1="262.3" x2="507.137" y2="262.3" spreadMethod="pad"><stop offset="0%" stop-color="#E4323D"/><stop offset="100%" stop-color="#BC2E37"/></linearGradient><linearGradient id="h" gradientUnits="userSpaceOnUse" x1="448.475" y1="278.55" x2="499.525" y2="278.55" spreadMethod="pad"><stop offset="0%" stop-color="#C98855"/><stop offset="100%" stop-color="#C17B42"/></linearGradient><linearGradient id="i" gradientUnits="userSpaceOnUse" x1="461.463" y1="279.9" x2="479.137" y2="279.9" spreadMethod="pad"><stop offset="0%" stop-color="#A55D35"/><stop offset="100%" stop-color="#7C482C"/></linearGradient><linearGradient id="j" gradientUnits="userSpaceOnUse" x1="468.487" y1="281.8" x2="475.813" y2="281.8" spreadMethod="pad"><stop offset="0%" stop-color="#BEC0C2"/><stop offset="100%" stop-color="#858789"/></linearGradient><linearGradient id="k" gradientUnits="userSpaceOnUse" x1="480.475" y1="282.3" x2="459.625" y2="281.2" spreadMethod="pad"><stop offset="0%" stop-color="#BEC0C2"/><stop offset="100%" stop-color="#E7E8E9"/></linearGradient><linearGradient id="l" gradientUnits="userSpaceOnUse" x1="469.45" y1="276.15" x2="462.45" y2="276.15" spreadMethod="pad"><stop offset="0%" stop-color="#E7E8E9"/><stop offset="100%" stop-color="#FFF"/></linearGradient><linearGradient id="m" gradientUnits="userSpaceOnUse" x1="514.513" y1="304.063" x2="424.887" y2="300.938" spreadMethod="pad"><stop offset="0%" stop-color="#E5E6E7"/><stop offset="14.118%" stop-color="#D2D4D5"/><stop offset="34.902%" stop-color="#EDEEEF"/><stop offset="60%" stop-color="#F8F8F9"/><stop offset="92.941%" stop-color="#E9EAEB"/><stop offset="100%" stop-color="#E5E6E7"/></linearGradient><linearGradient id="n" gradientUnits="userSpaceOnUse" x1="442.5" y1="255.05" x2="498.3" y2="255.05" spreadMethod="pad"><stop offset="0%" stop-color="#D6313B"/><stop offset="100%" stop-color="#982A2F"/></linearGradient><linearGradient id="o" gradientUnits="userSpaceOnUse" x1="469.462" y1="225.4" x2="479.337" y2="225.4" spreadMethod="pad"><stop offset="0%" stop-color="#FFE8CF"/><stop offset="100%" stop-color="#FEE0C6"/></linearGradient><linearGradient id="p" gradientUnits="userSpaceOnUse" x1="500.462" y1="245.95" x2="437.837" y2="245.95" spreadMethod="pad"><stop offset="0%" stop-color="#EDEEEF"/><stop offset="14.118%" stop-color="#E7E8E9"/><stop offset="49.804%" stop-color="#EFF0F0"/><stop offset="81.961%" stop-color="#FFF"/><stop offset="100%" stop-color="#F4F4F4"/></linearGradient><linearGradient id="q" gradientUnits="userSpaceOnUse" x1="470.462" y1="201.05" x2="518.438" y2="201.05" spreadMethod="pad"><stop offset="0%" stop-color="#E4323D"/><stop offset="100%" stop-color="#BC2E37"/></linearGradient><linearGradient id="r" gradientUnits="userSpaceOnUse" x1="456.6" y1="181.538" x2="456.6" y2="200.563" spreadMethod="pad"><stop offset="0%" stop-color="#F15E52"/><stop offset="100%" stop-color="#F8A38E"/></linearGradient><linearGradient id="s" gradientUnits="userSpaceOnUse" x1="511.725" y1="218.075" x2="520.575" y2="229.825" spreadMethod="pad"><stop offset="0%" stop-color="#FFF"/><stop offset="100%" stop-color="#E7E8E9"/></linearGradient><linearGradient id="t" gradientUnits="userSpaceOnUse" x1="468.85" y1="240.55" x2="468.85" y2="245.15" spreadMethod="pad"><stop offset="0%" stop-color="#FDD8CB"/><stop offset="100%" stop-color="#F4816D"/></linearGradient><linearGradient id="u" gradientUnits="userSpaceOnUse" x1="464.575" y1="241.262" x2="467.125" y2="242.438" spreadMethod="pad"><stop offset="0%" stop-color="#FFF"/><stop offset="100%" stop-color="#FEEAE2"/></linearGradient><linearGradient id="v" gradientUnits="userSpaceOnUse" x1="480.488" y1="235.5" x2="465.412" y2="235.5" spreadMethod="pad"><stop offset="0%" stop-color="#FFF"/><stop offset="100%" stop-color="#EDEEEF"/></linearGradient><linearGradient id="w" gradientUnits="userSpaceOnUse" x1="455.45" y1="223.5" x2="455.85" y2="218.9" spreadMethod="pad"><stop offset="0%" stop-color="#00A0E1"/><stop offset="100%" stop-color="#1F467A"/></linearGradient><linearGradient id="x" gradientUnits="userSpaceOnUse" x1="455.863" y1="218.525" x2="455.537" y2="223.075" spreadMethod="pad"><stop offset="0%" stop-color="#1362AD"/><stop offset="43.922%" stop-color="#00B5F1"/><stop offset="100%" stop-color="#CDECFC"/></linearGradient><linearGradient id="y" gradientUnits="userSpaceOnUse" x1="455.45" y1="223.5" x2="455.85" y2="218.8" spreadMethod="pad"><stop offset="0%" stop-color="#3BC6F4"/><stop offset="100%" stop-color="#1C5493"/></linearGradient><linearGradient id="z" gradientUnits="userSpaceOnUse" x1="482.213" y1="223.563" x2="481.887" y2="218.938" spreadMethod="pad"><stop offset="0%" stop-color="#00A0E1"/><stop offset="100%" stop-color="#1F467A"/></linearGradient><linearGradient id="A" gradientUnits="userSpaceOnUse" x1="481.8" y1="218.488" x2="482.2" y2="223.012" spreadMethod="pad"><stop offset="0%" stop-color="#1362AD"/><stop offset="43.922%" stop-color="#00B5F1"/><stop offset="100%" stop-color="#CDECFC"/></linearGradient><linearGradient id="B" gradientUnits="userSpaceOnUse" x1="482.213" y1="223.563" x2="481.887" y2="218.837" spreadMethod="pad"><stop offset="0%" stop-color="#3BC6F4"/><stop offset="100%" stop-color="#1C5493"/></linearGradient><linearGradient id="C" gradientUnits="userSpaceOnUse" x1="482.1" y1="222.512" x2="482.1" y2="225.488" spreadMethod="pad"><stop offset="0%" stop-color="#FFE8CF"/><stop offset="100%" stop-color="#FFF"/></linearGradient><linearGradient id="D" gradientUnits="userSpaceOnUse" x1="502.413" y1="208.925" x2="435.288" y2="206.575" spreadMethod="pad"><stop offset="0%" stop-color="#E7E8E9"/><stop offset="14.118%" stop-color="#D2D4D5"/><stop offset="34.902%" stop-color="#EFF0F0"/><stop offset="60%" stop-color="#FFF"/><stop offset="92.941%" stop-color="#EBECED"/><stop offset="100%" stop-color="#E7E8E9"/></linearGradient><linearGradient id="E" gradientUnits="userSpaceOnUse" x1="468.85" y1="225.525" x2="468.85" y2="233.575" spreadMethod="pad"><stop offset="0%" stop-color="#FFE8CF"/><stop offset="100%" stop-color="#EE3338"/></linearGradient><linearGradient id="F" gradientUnits="userSpaceOnUse" x1="455.7" y1="222.512" x2="455.7" y2="225.488" spreadMethod="pad"><stop offset="0%" stop-color="#FFE8CF"/><stop offset="100%" stop-color="#FFF"/></linearGradient><linearGradient id="G" gradientUnits="userSpaceOnUse" x1="455.6" y1="217.537" x2="455.6" y2="225.362" spreadMethod="pad"><stop offset="0%" stop-color="#D1976A"/><stop offset="100%" stop-color="#AB5C2D"/></linearGradient><linearGradient id="H" gradientUnits="userSpaceOnUse" x1="482.05" y1="217.537" x2="482.05" y2="225.362" spreadMethod="pad"><stop offset="0%" stop-color="#D1976A"/><stop offset="100%" stop-color="#AB5C2D"/></linearGradient><path fill="#FFF" fill-opacity="0" d="M284 0H0v320h284V0z" id="I"/><path fill="#F15E52" d="M411.05 283.95q1.261-.504 2.1-1.15-5.024 4.267-5.45 8.05-.5 4.2 3.3 6.6 3.7 2.35 7.3.25 3.25-1.9 5.75-7.35.9-1.9 1.9-4.35 1-1.85 3.8-4.2l-10.8-8.05q-1.65 3.35-4.6 4.6-3.85 1.1-6.3 2-.9.4-1.5 1.05-.6.7-.55 1.4 0 .7.55 1.25.6.6 1.5.6 1.3-.05 3-.7z" id="J"/><path fill="#E4323D" d="M414.7 272.7l18.4 14.2 17.15-28.45 6-9.05q-15.65-8.7-27.35.05-9.4 7.05-14.2 23.25z" id="K"/><path fill="url(#a)" d="M411.3 275.65q7.45 7.05 21.15 11.65 13.1 4.35 29.25 5.6 4.1.3 6.2-.6 2.4-1 2.45-3.6-.1-3.25 0-4.75.05-2.1-1.95-2.4-2.85-.05-4.55-.2-27.9-2.05-45.35-13.25-2.55-1.65-3.45-1.55-1.1.1-3 2.4-2.4 2.8-2.55 3.55-.25 1.2 1.8 3.15z" id="L"/><path fill="#FFF" d="M441.2 285.6q-17.8-4.85-24.05-9.55 6.6 6.4 23.15 11.15 17.45 5 27.3 2.2-8.15 1.15-26.4-3.8z" id="M"/><path fill="#A55D35" d="M449.4 337.95q2.65-.75 3.7-1.4 1.6-.95 2.4-2.85 1.55-3.5 1.65-11-.15-8.3-.1-11.25l-19.45 5.7q.45-.05.35.8-.05.9.35.8.8 3.55-1 5.6-1 1.15-2.45 1.2-1.75-.2-2.75-.25-3.05-.15-4.5.5-2.05.85-2.6 3.5-.65 2.65.35 5.5.5 1.6 2 2.5 1.15.7 3.6 1.3 3.85 1 9.2.8 5.15-.2 9.25-1.45z" id="N"/><path fill="#8B502F" d="M458.45 317.95l-5.9 1.7q0 9.05-1.15 12-1.9 4.8-8.5 6-5.7 1.05-10.4.2-5.4-.9-7.45-4 .25.8.3.95.95 3.15 5.75 4.35 3.95 1.05 9.7.95 5.75-.1 9.75-1.3 4.5-1.3 6.35-5.3 1.85-4.35 1.55-15.55z" id="O"/><path fill="#CC7631" d="M432.65 326.65q-2.35-.25-3.9.5-2.4 1.2-2.55 4.25-.15 3 1.9 4.75-.95-1.2-.95-3 0-1.85.95-3.55 1.75-2.95 8.5-2.15-2.5-.7-3.95-.8z" id="P"/><path fill="url(#b)" d="M438 293.45q-1.25 2.55-1.6 3.45-.9 2.2-1.25 4.45-.55 3.35-1.65 9.35-.3 4.45 2.8 5.2 2.7 2.25 10 3.3 7.3 1 11.65-.25 3.65.05 3.6-6.05-.7-8.9-.3-14.55l-23.25-4.9z" id="Q"/><path fill="url(#c)" d="M446.6 324.85q6.7.95 12.15.35 2.15-.3 2-3.1-.05-2-.45-2.7-.45-.7-1.6-.6-6.5.35-12.8-.9-3-.6-10.05-2.7-1.65-.45-2.1-.4-.9.2-1.25 1.9-.4 2.2-.15 3.15.4 1.4 2.35 2.1 5.6 2 11.9 2.9z" id="R"/><path fill="#FFF" d="M456.95 323.25q-2.75.25-10.5-.7-8.7-1-11.75-2.4 3.85 2.6 12.2 3.5 7.75.8 10.05-.4z" id="S"/><path fill="#A55D35" d="M482.75 322.7q.1 7.5 1.65 11 .8 1.85 2.45 2.85 1.05.65 3.75 1.4 4.05 1.25 9.2 1.45 5.3.2 9.2-.8 2.45-.6 3.55-1.3 1.55-.9 2.1-2.5.8-2.95.35-5.5-.6-2.65-2.7-3.5-1.45-.65-4.5-.5-1.85.25-2.7.25-1.45-.05-2.4-1.2-1.9-2-1.1-5.6.45.1.35-.8-.05-.85.35-.8l-19.35-5.7q0 2.95-.2 11.25z" id="T"/><path fill="#8B502F" d="M481.45 317.95q-.1 5.35.15 8.4.35 4.6 1.5 7.15 1.7 4 6.25 5.3 4 1.2 9.75 1.3 5.75.1 9.7-.95 4.8-1.2 5.85-4.35l.2-.95q-1.95 3.1-7.4 4-4.75.85-10.45-.2-6.55-1.2-8.4-6-1.2-2.95-1.25-12l-5.9-1.7z" id="U"/><path fill="#CC7631" d="M511.15 327.15q-1.5-.75-3.9-.5-1.45.1-3.95.8 6.75-.8 8.5 2.15 1.05 1.7 1.05 3.55 0 1.75-.95 3 2-1.75 1.8-4.75-.15-3.05-2.55-4.25z" id="V"/><path fill="url(#d)" d="M478.65 298.35q.45 5.65-.3 14.55-.05 6.1 3.6 6.05 4.4 1.25 11.65.25 7.3-1.05 10-3.3 3.15-.75 2.9-5.2-1.05-6-1.65-9.35-.4-2.25-1.3-4.45-.2-.5-1.6-3.45l-23.3 4.9z" id="W"/><path fill="url(#e)" d="M479.15 322.1q-.15 2.8 2 3.1 5.55.6 12.25-.35 6.3-.9 11.8-2.9 1.95-.7 2.35-2.1.25-.9-.1-3.15-.35-1.7-1.3-1.9-.4-.05-2.05.4-7 2.1-10.05 2.7-6.3 1.25-12.75.9-1.2-.1-1.65.6-.45.75-.5 2.7z" id="X"/><path fill="#FFF" d="M505.2 320.15q-3 1.4-11.7 2.4-7.75.95-10.55.7 2.35 1.2 10.1.4 8.35-.9 12.15-3.5z" id="Y"/><path fill="#CF303A" d="M512.55 286q.65 1.25 1.85 4.35 2.45 5.35 5.85 7.35 3.55 2.1 7.25-.25 3.75-2.4 3.25-6.6-.422-3.755-5.3-7.95.804.572 2 1.05 1.65.65 2.95.7.95 0 1.55-.6.55-.55.6-1.25.05-.7-.6-1.4-.6-.65-1.55-1.05-4.4-1.25-6.2-2-2.95-1.25-4.6-4.6l-10.8 8.05q2.75 2.35 3.75 4.2z" id="Z"/><path fill="#A82C32" d="M488.25 258.45l17.1 28.45 18.5-14.2q-4.9-16.25-14.3-23.25-11.65-8.75-27.25-.05l5.95 9.05z" id="aa"/><path fill="url(#f)" d="M468.2 283.95l-.1 4.75q.05 2.6 2.5 3.6 2.1.9 6.25.6 16.1-1.25 29.2-5.6 13.65-4.6 21.1-11.65 2.05-1.95 1.8-3.15-.15-.75-2.45-3.55-2-2.3-3.05-2.4-.95-.1-3.4 1.55-17.6 11.25-45.4 13.25-3.3 0-4.55.2-2 .3-1.9 2.4z" id="ab"/><path fill="#FFF" d="M521.4 276.05q-6.25 4.7-24.05 9.55-18.25 4.95-26.45 3.8 9.8 2.8 27.25-2.2 16.6-4.75 23.25-11.15z" id="ac"/><path fill="url(#g)" d="M469.9 221.6l-.2-.2q-11.1 4.05-13 10.1-.503 1.551-.25 2.5.432-.156.85-.3-.1 1.7-.7.65-.08-.162-.15-.35-6.755 2.618-12.55 9.45-5.8 6.8-9.5 16.45-8 20.85-2.3 38.25 20.3 4.2 37.8 5 17.55-.8 37.8-5 5.7-17.4-2.3-38.25-3.7-9.65-9.5-16.45-5.79-6.825-12.55-9.45-.062.19-.15.35-.6 1.05-.7-.65.425.146.85.3.304-.945-.2-2.5-1.95-6.05-13.1-10.1l-.15.2z" id="ad"/><path fill="#F15E52" d="M449.95 250.9l-6.45-7q-8.7 10.6-12.05 25.9-3.45 15.75.65 28.35 8.05 1.55 11.45 2.15-1.4-15.6-.55-26.3 1.2-15.25 6.95-23.1z" id="ae"/><path fill="url(#h)" d="M431.1 271.3q-.95 5.5-1.15 9.5 16.8 4.8 37.15 5.05 22.5.3 42.7-5.2-.25-4.85-1.1-9.25-15.75 4.95-38.25 4.85-22.25-.05-39.35-4.95z" id="af"/><path fill="url(#i)" d="M430.9 272.55q-.95 4.95-1 9.55 16.75 4.8 37.15 5.05 22.6.3 42.9-5.2-.05-4.05-1-9.3-15.85 5.05-38.5 4.95-22.45-.05-39.55-5.05z" id="ag"/><path fill="#662B23" d="M468.5 280.65q-.65 0-1.1.45-.45.45-.45 1.05 0 .65.45 1.05.45.45 1.1.45.6 0 1.05-.45.45-.45.45-1.05 0-.6-.45-1.05-.5-.45-1.05-.45z" id="ah"/><path fill="url(#j)" d="M469.1 280.7q-.85 0-.85.8v.5q0 .85.85.85h9.65q.8 0 .8-.85v-.5q0-.8-.8-.8h-9.65z" id="ai"/><path fill="url(#k)" d="M461.7 274.1q-1.6 0-2.8 1-1.15.95-1.15 2.35v8.3q0 1.35 1.15 2.3 1.1.85 2.8 1.1 3.85.5 8.2.65 4.7 0 8.2-.65 1.75-.3 2.85-1.15 1.15-.95 1.15-2.25v-8.3q0-1.4-1.15-2.35-1.2-1-2.85-1h-16.4m1.05 4.25q.6-.5 1.5-.5h11.35q.85 0 1.45.5.55.5.55 1.3v4.25q0 1.35-2 1.8-2.55.35-5.7.35-2.15-.1-3.1-.15-1.65-.05-2.55-.2-2.1-.25-2.1-1.8v-4.25q0-.8.6-1.3z" id="aj"/><path fill="url(#l)" d="M461.85 275.3q-.65 0-.65.65v.45q0 .65.65.65h7.9q.65 0 .65-.65v-.45q0-.65-.65-.65h-7.9z" id="ak"/><path fill="#7F3127" d="M453 279.85q-.6 0-1.05.45-.45.4-.45 1.05 0 .6.45 1.05.45.45 1.05.45.65 0 1.1-.45.5-.45.5-1.05 0-.65-.5-1.05-.45-.45-1.1-.45z" id="al"/><path fill="#7F3127" d="M445.45 279.35q-.45.4-.45 1.05t.45 1.1q.4.45 1.05.45.6 0 1.1-.45.45-.45.45-1.1 0-.6-.45-1.05-.5-.45-1.1-.45-.65 0-1.05.45z" id="am"/><path fill="#662B23" d="M487.7 279.85q-.65 0-1.05.45-.45.4-.45 1.05 0 .6.45 1.05.4.45 1.05.45.6 0 1.05-.45.45-.45.45-1.05 0-.65-.45-1.05-.45-.45-1.05-.45z" id="an"/><path fill="url(#m)" d="M428.8 290.8q-2.25.7-2.5 5.3-.35 5.55.45 8.05 1.1 3.45 4.95 5 16.85 6.6 38.25 6.6 21.45 0 38.35-6.6 3.8-1.55 4.9-5 .8-2.5.5-8.05-.25-4.6-2.55-5.3-1.65-.55-6.3.95-16.4 5.1-34.9 5.1-18.45 0-34.9-5.1-4.6-1.5-6.25-.95z" id="ao"/><path fill="#FFF" d="M472.45 309q-25.9.6-36.15-3.4 11.5 6.2 35.65 6 25.45-.2 37.55-8.15-10.55 4.95-37.05 5.55z" id="ap"/><path fill="url(#n)" d="M454.5 240.6q-.65-1-1.65-1-.9 0-1.5.7l.05-.35q0-.8-.55-1.35-.6-.6-1.4-.6-.4 0-1 .3l.25-.65q-5.6 3.6-10.55 10.3.25 1.2 1.25 2t2.3.8l.4-.05q-1.7 1.1-1.7 3 0 1.5 1.05 2.55 1.05 1.05 2.55 1.05.85 0 1.35-.3-1 1.2-1 2.45 0 1.5 1.05 2.55 1.05 1.05 2.55 1.05 1.3 0 2.15-.7-.5 1-.5 1.75 0 1.5 1.05 2.55 1.1 1.05 2.55 1.05 1.65 0 2.8-1.4-.1.35-.1 1 0 1.45 1 2.5 1.05 1.05 2.5 1.05 2.25 0 3.25-2.1v.15q0 1.45 1.05 2.5t2.55 1.05q1.25 0 2.25-.8.95-.85 1.2-2.05.25 1.2 1.25 2.05 1 .8 2.3.8 1.45 0 2.45-1.05 1.05-1.05 1.05-2.55v-.15q1 2 3.25 2 1.45 0 2.55-1.05 1.05-1.05 1.05-2.5-.1-.65-.15-1 1.05 1.3 2.75 1.3 1.45 0 2.5-1 1-1.05 1-2.5 0-1-.4-1.8.95.7 2.05.7 1.45 0 2.55-1.05 1.05-1.1 1.05-2.55 0-1.45-1.05-2.5.5.25 1.35.25 1.5 0 2.55-1.05 1.05-1.05 1.05-2.55 0-.95-.5-1.75-.5-.85-1.3-1.25h.45q1.65 0 2.8-1.35-4.8-7-10.65-11.05h-.1q-.75 0-1.3.6-.55.55-.55 1.35v.35q-.6-.7-1.45-.7-1.1 0-1.65 1-.55-.8-1.6-.8-.6 0-1.3.6-.85-.75-1.4-1.65-4.4 2.2-10.75 2.2-6 0-10.15-2.15-.65 1.4-1.65 2.1-.5-1.1-1.75-1.1-.95 0-1.5.8z" id="aq"/><path fill="#FED6AD" d="M437.65 218.65q-2.35.65-3.4 3.4-1.05 2.7-.2 5.9.95 3.2 3.25 4.95 2.3 1.8 4.7 1.15 2.35-.65 3.4-3.35 1.05-2.75.1-5.95-.9-3.2-3.2-5-2.35-1.8-4.65-1.1z" id="ar"/><path fill="#FED6AD" d="M503.5 222.05q-1-2.75-3.35-3.4-2.35-.7-4.7 1.1-2.3 1.8-3.2 5-.95 3.2.1 5.95 1.05 2.7 3.4 3.35 2.4.65 4.7-1.15 2.3-1.75 3.25-4.95.85-3.2-.2-5.9z" id="as"/><path fill="#FBB881" d="M439.9 221q-1.45.45-2.1 2.1-.6 1.65-.05 3.55.55 1.95 1.95 3.05 1.4 1.05 2.8.6 1.4-.4 2.05-2 .6-1.65.1-3.6-.55-1.9-1.95-3-1.4-1.05-2.8-.7z" id="at"/><path fill="#FBB881" d="M499.85 223.1q-.6-1.65-2-2.1-1.45-.35-2.85.7-1.35 1.1-1.9 3-.55 1.95.1 3.6.6 1.65 2 2 1.45.45 2.85-.6 1.35-1.1 1.9-3.05.5-1.9-.1-3.55z" id="au"/><path fill="url(#o)" d="M468.9 198.15q-8.3 0-15.2 4.6-6.75 4.55-9.9 11.95l-4.4 1.65 2.2 7.6v1.45q0 11.25 8 19.3 8 8 19.3 8 11.25 0 19.25-8 7.95-8.05 7.95-19.3v-1.65l2.25-7.4-4.4-1.65q-3.15-7.4-9.85-11.95-6.9-4.6-15.2-4.6z" id="av"/><path fill="url(#p)" d="M447.95 235q0-.8-.55-1.4-.55-.55-1.3-.55l-.6.05q.5-.4.5-1.3 0-.8-.55-1.35-.6-.55-1.4-.55l-.25.05q.7-.6.7-1.5 0-.45-.15-.9 1.45-.85 1.45-2.55 0-1.3-.95-2.2-.9-.9-2.2-.9-1.3 0-2.2.9-.9.9-.9 2.2 0 1.3.9 2.2-2.6.7-2.6 3.25-.05 2.55 2.55 3.75-1.45 0-2.5 1.05t-1.05 2.5q0 1.3.9 2.35.9 1 2.2 1.2-1.1.3-1.85 1.25-.75 1-.75 2.15 0 1.45 1.1 2.55 1.05 1.05 2.5 1.05l.55-.05q-1.75 1.05-1.75 3.1 0 1.45 1.05 2.5 1 1 2.45 1 1 0 1.4-.3-.95 1.05-.95 2.55 0 1.45 1.05 2.5 1.05 1 2.5 1 1.2 0 2.15-.7-.45.75-.45 1.75 0 1.5 1.05 2.55 1.05 1.05 2.5 1.05 1.8 0 2.8-1.4-.05.35-.15 1 0 1.45 1.05 2.5t2.55 1.05q1 0 1.9-.55.9-.55 1.35-1.45v.05q0 1.45 1.05 2.55 1.05 1.05 2.45 1.05 1.3 0 2.3-.85 1-.8 1.25-2.05.25 1.2 1.2 2.05 1 .8 2.25.8 1.45 0 2.55-1.05 1.05-1.05 1.05-2.55v-.1q.45.9 1.3 1.45.85.55 1.85.55 1.5 0 2.6-1.05 1.05-1.05 1.05-2.5-.1-.65-.15-1.05 1.05 1.3 2.7 1.3 1.45 0 2.55-1 1.05-1.05 1.05-2.5 0-.95-.5-1.8 1.05.7 2.1.7 1.5 0 2.55-1.05 1.05-1.1 1.05-2.55 0-1.5-1-2.5.45.25 1.3.25 1.5 0 2.55-1.05 1.05-1 1.05-2.55 0-.9-.5-1.75t-1.25-1.25h.45q1.45 0 2.5-1.05 1-1.05 1-2.5 0-1.2-.7-2.15t-1.85-1.3q1.3-.2 2.15-1.15.85-1 .85-2.35 0-1.45-1.05-2.55-1.05-1.05-2.5-1.05 2.65-1.45 2.5-3.7-.2-2.15-2.5-3 .9-.75.9-2.15 0-1.3-.9-2.2-.9-.9-2.2-.9-1.3 0-2.2.9-.9.9-.9 2.2 0 1.55 1.2 2.5l-.05.15q-.6 1.3.3 2.25-.7.1-1.25.65-.5.55-.5 1.25 0 .85.6 1.3l-.6-.05q-.8 0-1.35.55-.6.6-.6 1.4 0 .5.25.85-.6-.3-1.05-.3-.8 0-1.35.6-.55.55-.55 1.35v.35q-.5-.65-1.45-.65-1.05 0-1.65.95-.8-.8-1.55-.8t-1.35.6l-1.45-1.65q-4.5 2.3-10.7 2.3-6.05 0-10.15-2.25-.6 1.4-1.6 2.1-.65-1.1-1.75-1.1-.85 0-1.55.8-.5-.95-1.65-.95-.9 0-1.45.65v-.35q0-.8-.55-1.35-.6-.6-1.4-.6-.4 0-1 .3.2-.25.2-.85z" id="aw"/><path fill="#D49D74" d="M446.45 220.45l.35-1.95-7.5-1.5-.35 2 7.5 1.45z" id="ax"/><path fill="#D49D74" d="M490.85 218.5l.45 1.95 7.4-1.45-.35-2-7.5 1.5z" id="ay"/><path fill="#FEDEBE" d="M480.8 226.4q-2.4 2.4-2.4 5.8t2.4 5.8q2.45 2.4 5.8 2.4 3.4 0 5.85-2.4 2.4-2.4 2.4-5.8t-2.4-5.8q-2.45-2.45-5.85-2.45-3.35 0-5.8 2.45z" id="az"/><path fill="#FEDDBE" d="M480.95 226.55q-2.35 2.35-2.35 5.65 0 3.3 2.35 5.65 2.35 2.35 5.65 2.35 3.35 0 5.7-2.35t2.35-5.65q0-3.3-2.35-5.65-2.35-2.4-5.7-2.4-3.3 0-5.65 2.4z" id="aA"/><path fill="#FEDDBD" d="M481.1 226.65q-2.3 2.3-2.3 5.55t2.3 5.5q2.3 2.3 5.5 2.3 3.25 0 5.55-2.3 2.3-2.25 2.3-5.5t-2.3-5.55q-2.3-2.3-5.55-2.3-3.2 0-5.5 2.3z" id="aB"/><path fill="#FEDCBD" d="M481.2 226.8q-2.25 2.25-2.25 5.4 0 3.15 2.25 5.4 2.25 2.25 5.4 2.25 3.2 0 5.4-2.25 2.25-2.25 2.25-5.4 0-3.15-2.25-5.4-2.2-2.25-5.4-2.25-3.15 0-5.4 2.25z" id="aC"/><path fill="#FEDBBD" d="M481.35 226.9q-2.2 2.2-2.2 5.3 0 3.1 2.2 5.25 2.2 2.2 5.25 2.2 3.1 0 5.3-2.2 2.2-2.15 2.2-5.25t-2.2-5.3q-2.2-2.2-5.3-2.2-3.05 0-5.25 2.2z" id="aD"/><path fill="#FEDBBD" d="M481.5 227.05q-2.15 2.15-2.15 5.15 0 3 2.15 5.15 2.1 2.1 5.1 2.1 3.05 0 5.15-2.1 2.15-2.15 2.15-5.15 0-3-2.15-5.15-2.1-2.15-5.15-2.15-3 0-5.1 2.15z" id="aE"/><path fill="#FEDABC" d="M481.6 227.2q-2.1 2.1-2.1 5 0 2.95 2.1 5 2.1 2.1 5 2.1 2.95 0 5.05-2.1 2.05-2.05 2.05-5t-2.05-5q-2.1-2.1-5.05-2.1-2.9 0-5 2.1z" id="aF"/><path fill="#FED9BC" d="M481.75 227.3q-2.05 2.05-2.05 4.9 0 2.85 2.05 4.9 2 2 4.85 2 2.9 0 4.9-2 2.05-2.05 2.05-4.9 0-2.85-2.05-4.9-2-2.05-4.9-2.05-2.85 0-4.85 2.05z" id="aG"/><path fill="#FED8BC" d="M481.85 227.45q-1.95 1.95-1.95 4.75t1.95 4.75q2 1.95 4.75 1.95 2.8 0 4.8-1.95 1.95-1.95 1.95-4.75t-1.95-4.75q-2-2-4.8-2-2.75 0-4.75 2z" id="aH"/><path fill="#FDD8BB" d="M482 227.6q-1.95 1.9-1.95 4.6 0 2.7 1.95 4.65 1.9 1.9 4.6 1.9 2.75 0 4.65-1.9 1.9-1.95 1.9-4.65t-1.9-4.6q-1.9-1.95-4.65-1.95-2.7 0-4.6 1.95z" id="aI"/><path fill="#FDD7BB" d="M482.1 227.7q-1.85 1.85-1.85 4.5t1.85 4.5q1.9 1.85 4.5 1.85 2.65 0 4.55-1.85 1.85-1.85 1.85-4.5t-1.85-4.5q-1.9-1.9-4.55-1.9-2.6 0-4.5 1.9z" id="aJ"/><path fill="#FDD6BB" d="M482.25 227.85q-1.8 1.8-1.8 4.35t1.8 4.35q1.8 1.8 4.35 1.8 2.6 0 4.4-1.8 1.8-1.8 1.8-4.35t-1.8-4.35q-1.8-1.85-4.4-1.85-2.55 0-4.35 1.85z" id="aK"/><path fill="#FDD6BB" d="M482.35 227.95q-1.75 1.8-1.75 4.25 0 2.5 1.75 4.25 1.8 1.75 4.25 1.75 2.5 0 4.25-1.75t1.75-4.25q0-2.5-1.75-4.25t-4.25-1.75q-2.45 0-4.25 1.75z" id="aL"/><path fill="#FDD5BA" d="M482.5 228.1q-1.7 1.7-1.7 4.1 0 2.4 1.7 4.1 1.7 1.7 4.1 1.7 2.45 0 4.15-1.7 1.7-1.7 1.7-4.1 0-2.4-1.7-4.1-1.7-1.75-4.15-1.75-2.4 0-4.1 1.75z" id="aM"/><path fill="#FDD4BA" d="M482.65 228.2q-1.65 1.65-1.65 4t1.65 3.95q1.65 1.65 3.95 1.65 2.35 0 4-1.65 1.65-1.6 1.65-3.95t-1.65-4q-1.65-1.65-4-1.65-2.3 0-3.95 1.65z" id="aN"/><path fill="#FDD4BA" d="M482.75 228.35q-1.6 1.6-1.6 3.85t1.6 3.85q1.6 1.6 3.85 1.6 2.3 0 3.85-1.6 1.6-1.6 1.6-3.85t-1.6-3.85q-1.55-1.6-3.85-1.6-2.25 0-3.85 1.6z" id="aO"/><path fill="#FDD3BA" d="M482.9 228.45q-1.55 1.55-1.55 3.75t1.55 3.7q1.55 1.55 3.7 1.55 2.2 0 3.75-1.55 1.55-1.5 1.55-3.7t-1.55-3.75q-1.55-1.55-3.75-1.55-2.15 0-3.7 1.55z" id="aP"/><path fill="#FDD2B9" d="M483.05 228.6q-1.5 1.5-1.5 3.6t1.5 3.6q1.45 1.45 3.55 1.45 2.15 0 3.6-1.45 1.5-1.5 1.5-3.6t-1.5-3.6q-1.45-1.5-3.6-1.5-2.1 0-3.55 1.5z" id="aQ"/><path fill="#FDD1B9" d="M483.15 228.75q-1.4 1.4-1.4 3.45 0 2.05 1.4 3.45 1.45 1.4 3.45 1.4 2.05 0 3.5-1.4 1.4-1.4 1.4-3.45 0-2.05-1.4-3.45-1.45-1.45-3.5-1.45-2 0-3.45 1.45z" id="aR"/><path fill="#FCD1B9" d="M483.3 228.85q-1.4 1.4-1.4 3.35 0 1.95 1.4 3.35 1.35 1.35 3.3 1.35 1.95 0 3.35-1.35 1.4-1.4 1.4-3.35 0-1.95-1.4-3.35-1.4-1.4-3.35-1.4-1.95 0-3.3 1.4z" id="aS"/><path fill="#FCD0B8" d="M483.4 229q-1.3 1.3-1.3 3.2 0 1.9 1.3 3.2 1.35 1.3 3.2 1.3 1.9 0 3.2-1.3 1.35-1.35 1.35-3.2t-1.35-3.2q-1.3-1.35-3.2-1.35-1.85 0-3.2 1.35z" id="aT"/><path fill="#FCCFB8" d="M483.55 229.15q-1.25 1.25-1.25 3.05 0 1.8 1.25 3.05 1.25 1.25 3.05 1.25 1.8 0 3.1-1.25 1.25-1.25 1.25-3.05 0-1.8-1.25-3.05-1.3-1.3-3.1-1.3t-3.05 1.3z" id="aU"/><path fill="#FCCFB8" d="M483.65 229.25q-1.2 1.25-1.2 2.95 0 1.75 1.2 2.95 1.25 1.2 2.95 1.2 1.75 0 2.95-1.2 1.2-1.2 1.2-2.95 0-1.7-1.2-2.95-1.2-1.2-2.95-1.2-1.7 0-2.95 1.2z" id="aV"/><path fill="#FCCEB8" d="M483.8 229.4q-1.15 1.15-1.15 2.8t1.15 2.8q1.15 1.15 2.8 1.15t2.85-1.15q1.15-1.15 1.15-2.8t-1.15-2.8q-1.2-1.2-2.85-1.2-1.65 0-2.8 1.2z" id="aW"/><path fill="#FCCDB7" d="M483.95 229.5q-1.1 1.1-1.1 2.7t1.1 2.65q1.1 1.1 2.65 1.1 1.6 0 2.7-1.1t1.1-2.65q0-1.55-1.1-2.7-1.1-1.1-2.7-1.1-1.55 0-2.65 1.1z" id="aX"/><path fill="#FCCCB7" d="M484.05 229.65Q483 230.7 483 232.2q0 1.5 1.05 2.55 1.05 1.05 2.55 1.05 1.5 0 2.55-1.05 1.05-1.05 1.05-2.55 0-1.5-1.05-2.55-1.05-1.05-2.55-1.05-1.5 0-2.55 1.05z" id="aY"/><path fill="#FCCCB7" d="M484.2 229.75q-1 1.05-1 2.45 0 1.4 1 2.4t2.4 1q1.4 0 2.45-1 1-1 1-2.4t-1-2.45q-1-1-2.45-1-1.4 0-2.4 1z" id="aZ"/><path fill="#FCCBB6" d="M484.35 229.9q-.95.95-.95 2.3 0 1.3.95 2.25t2.25.95q1.35 0 2.3-.95.95-.95.95-2.25 0-1.35-.95-2.3-.95-.95-2.3-.95-1.3 0-2.25.95z" id="ba"/><path fill="#FCCAB6" d="M484.45 230.05q-.9.9-.9 2.15t.9 2.15q.9.9 2.15.9t2.15-.9q.9-.9.9-2.15t-.9-2.15q-.85-.9-2.15-.9-1.25 0-2.15.9z" id="bb"/><path fill="#FBC9B6" d="M484.6 230.15q-.85.85-.85 2.05 0 1.15.85 2 .85.85 2 .85 1.2 0 2.05-.85.85-.85.85-2 0-1.2-.85-2.05-.85-.85-2.05-.85-1.15 0-2 .85z" id="bc"/><path fill="#FBC9B5" d="M484.75 230.3q-.8.8-.8 1.9 0 1.1.8 1.85.75.8 1.85.8t1.9-.8q.8-.75.8-1.85t-.8-1.9q-.75-.8-1.9-.8-1.1 0-1.85.8z" id="bd"/><path fill="#FBC8B5" d="M484.85 230.45q-.75.7-.75 1.75 0 1 .75 1.75t1.75.75q1.05 0 1.8-.75.7-.75.7-1.75 0-1.05-.7-1.75-.75-.75-1.8-.75-1 0-1.75.75z" id="be"/><path fill="#FBC7B5" d="M485 230.55q-.7.7-.7 1.65t.7 1.6q.65.7 1.6.7.95 0 1.65-.7.7-.65.7-1.6 0-.95-.7-1.65-.65-.7-1.65-.7-.95 0-1.6.7z" id="bf"/><path fill="#FBC7B5" d="M485.1 230.7q-.6.6-.6 1.5 0 .85.6 1.5.65.6 1.5.6.9 0 1.55-.6.6-.65.6-1.5 0-.9-.6-1.5-.65-.65-1.55-.65-.85 0-1.5.65z" id="bg"/><path fill="#FBC6B4" d="M485.25 230.8q-.55.6-.55 1.4 0 .8.55 1.35.55.6 1.35.6t1.4-.6q.55-.55.55-1.35t-.55-1.4q-.55-.55-1.4-.55-.8 0-1.35.55z" id="bh"/><path fill="#FFE8CF" d="M451.05 240.4q3.4 0 5.8-2.4t2.4-5.8q0-3.4-2.4-5.8-2.4-2.45-5.8-2.45t-5.8 2.45q-2.4 2.4-2.4 5.8t2.4 5.8q2.4 2.4 5.8 2.4z" id="bi"/><path fill="#FFE8CE" d="M451.05 240.25q3.35 0 5.7-2.35 2.4-2.35 2.4-5.7 0-3.3-2.4-5.7-2.35-2.4-5.7-2.4-3.3 0-5.7 2.4-2.35 2.4-2.35 5.7 0 3.35 2.35 5.7t5.7 2.35z" id="bj"/><path fill="#FFE7CD" d="M451.05 240.1q3.3 0 5.65-2.3 2.3-2.35 2.3-5.6 0-3.25-2.3-5.6-2.35-2.35-5.65-2.35-3.3 0-5.6 2.35-2.35 2.35-2.35 5.6 0 3.25 2.35 5.6 2.3 2.3 5.6 2.3z" id="bk"/><path fill="#FFE6CD" d="M451.05 224.35q-3.2 0-5.5 2.35-2.3 2.3-2.3 5.5 0 3.25 2.3 5.5 2.3 2.3 5.5 2.3 3.25 0 5.5-2.3 2.3-2.25 2.3-5.5 0-3.2-2.3-5.5-2.3-2.35-5.5-2.35z" id="bl"/><path fill="#FFE5CC" d="M451.05 224.5q-3.15 0-5.4 2.3-2.25 2.25-2.25 5.4 0 3.15 2.25 5.4 2.2 2.25 5.4 2.25t5.45-2.25q2.25-2.25 2.25-5.4 0-3.15-2.25-5.4-2.25-2.3-5.45-2.3z" id="bm"/><path fill="#FFE5CC" d="M451.05 224.65q-3.1 0-5.35 2.25-2.2 2.2-2.2 5.3 0 3.1 2.2 5.3 2.25 2.2 5.35 2.2 3.1 0 5.35-2.2 2.2-2.2 2.2-5.3 0-3.1-2.2-5.3-2.25-2.25-5.35-2.25z" id="bn"/><path fill="#FEE4CB" d="M451.05 224.75q-3.05 0-5.25 2.2-2.15 2.2-2.15 5.25 0 3.1 2.15 5.25 2.2 2.15 5.25 2.15 3.1 0 5.25-2.15t2.15-5.25q0-3.05-2.15-5.25-2.2-2.2-5.25-2.2z" id="bo"/><path fill="#FEE3CA" d="M451.05 224.9q-3 0-5.1 2.15-2.15 2.15-2.15 5.15 0 3 2.15 5.15 2.1 2.1 5.1 2.1 3 0 5.15-2.1 2.15-2.15 2.15-5.15 0-3-2.15-5.15-2.15-2.15-5.15-2.15z" id="bp"/><path fill="#FEE2CA" d="M451.05 225.05q-2.95 0-5.05 2.1-2.1 2.1-2.1 5.05 0 2.95 2.1 5.05 2.1 2.05 5.05 2.05 2.95 0 5.05-2.05 2.1-2.1 2.1-5.05 0-2.95-2.1-5.05-2.1-2.1-5.05-2.1z" id="bq"/><path fill="#FEE2C9" d="M451.05 225.15q-2.9 0-4.95 2.1-2.05 2.05-2.05 4.95 0 2.9 2.05 4.95 2.05 2.05 4.95 2.05 2.9 0 4.95-2.05 2.05-2.05 2.05-4.95 0-2.9-2.05-4.95-2.05-2.1-4.95-2.1z" id="br"/><path fill="#FEE1C9" d="M451.05 225.3q-2.85 0-4.85 2.05-2 2.05-2 4.85 0 2.85 2 4.85 2 2 4.85 2 2.85 0 4.9-2 2-2 2-4.85 0-2.8-2-4.85-2.05-2.05-4.9-2.05z" id="bs"/><path fill="#FEE0C8" d="M451.05 225.45q-2.8 0-4.8 2-1.95 1.95-1.95 4.75t1.95 4.75q2 1.95 4.8 1.95t4.8-1.95q1.95-1.95 1.95-4.75t-1.95-4.75q-2-2-4.8-2z" id="bt"/><path fill="#FEE0C8" d="M451.05 225.55q-2.7 0-4.65 2-1.95 1.95-1.95 4.65 0 2.75 1.95 4.65 1.9 1.95 4.65 1.95 2.75 0 4.65-1.95 1.95-1.9 1.95-4.65 0-2.7-1.95-4.65-1.9-2-4.65-2z" id="bu"/><path fill="#FEDFC7" d="M451.05 225.7q-2.7 0-4.55 1.9-1.9 1.95-1.9 4.6 0 2.65 1.9 4.55 1.85 1.9 4.55 1.9 2.7 0 4.6-1.9 1.9-1.9 1.9-4.55t-1.9-4.6q-1.9-1.9-4.6-1.9z" id="bv"/><path fill="#FEDEC6" d="M451.05 225.85q-2.6 0-4.5 1.9-1.85 1.85-1.85 4.45t1.85 4.45q1.85 1.85 4.5 1.85t4.5-1.85q1.85-1.85 1.85-4.45t-1.85-4.45q-1.9-1.9-4.5-1.9z" id="bw"/><path fill="#FEDDC6" d="M451.05 225.95q-2.55 0-4.4 1.85-1.8 1.85-1.8 4.4 0 2.55 1.8 4.4 1.8 1.8 4.4 1.8 2.6 0 4.4-1.8 1.8-1.85 1.8-4.4 0-2.55-1.8-4.4-1.8-1.85-4.4-1.85z" id="bx"/><path fill="#FEDDC5" d="M451.05 226.1q-2.5 0-4.3 1.8-1.75 1.8-1.75 4.3t1.75 4.3q1.8 1.75 4.3 1.75t4.3-1.75q1.8-1.8 1.8-4.3t-1.8-4.3q-1.8-1.8-4.3-1.8z" id="by"/><path fill="#FEDCC5" d="M451.05 226.25q-2.45 0-4.2 1.75t-1.75 4.2q0 2.45 1.75 4.15 1.75 1.75 4.2 1.75t4.2-1.75q1.75-1.7 1.75-4.15t-1.75-4.2q-1.75-1.75-4.2-1.75z" id="bz"/><path fill="#FEDBC4" d="M451.05 226.35q-2.4 0-4.1 1.75-1.7 1.7-1.7 4.1 0 2.4 1.7 4.1 1.7 1.7 4.1 1.7 2.4 0 4.1-1.7 1.7-1.7 1.7-4.1 0-2.4-1.7-4.1-1.7-1.75-4.1-1.75z" id="bA"/><path fill="#FDDAC4" d="M451.05 226.5q-2.35 0-4 1.7-1.65 1.65-1.65 4t1.65 4q1.65 1.65 4 1.65t4.05-1.65q1.65-1.65 1.65-4t-1.65-4q-1.7-1.7-4.05-1.7z" id="bB"/><path fill="#FDDAC3" d="M451.05 226.65q-2.3 0-3.9 1.65-1.65 1.6-1.65 3.9t1.65 3.9q1.6 1.6 3.9 1.6t3.9-1.6q1.65-1.6 1.65-3.9t-1.65-3.9q-1.6-1.65-3.9-1.65z" id="bC"/><path fill="#FDD9C3" d="M451.05 226.75q-2.25 0-3.8 1.6-1.6 1.65-1.6 3.85t1.6 3.8q1.55 1.6 3.8 1.6t3.85-1.6q1.55-1.6 1.55-3.8 0-2.2-1.55-3.85-1.6-1.6-3.85-1.6z" id="bD"/><path fill="#FDD8C2" d="M451.05 226.9q-2.15 0-3.7 1.55-1.55 1.55-1.55 3.75t1.55 3.7q1.55 1.55 3.7 1.55 2.2 0 3.75-1.55 1.55-1.55 1.55-3.7 0-2.15-1.55-3.75-1.55-1.55-3.75-1.55z" id="bE"/><path fill="#FDD8C1" d="M451.05 227.05q-2.15 0-3.65 1.5t-1.5 3.65q0 2.15 1.5 3.6 1.5 1.5 3.65 1.5t3.65-1.5q1.5-1.45 1.5-3.6 0-2.15-1.5-3.65t-3.65-1.5z" id="bF"/><path fill="#FDD7C1" d="M451.05 227.15q-2.05 0-3.55 1.5-1.45 1.5-1.45 3.55t1.45 3.55q1.5 1.45 3.55 1.45t3.55-1.45q1.45-1.5 1.45-3.55t-1.45-3.55q-1.5-1.5-3.55-1.5z" id="bG"/><path fill="#FDD6C0" d="M451.05 227.3q-2 0-3.45 1.45-1.45 1.45-1.45 3.45t1.45 3.45q1.4 1.4 3.45 1.4 2.05 0 3.45-1.4 1.45-1.45 1.45-3.45t-1.45-3.45q-1.4-1.45-3.45-1.45z" id="bH"/><path fill="#FDD5C0" d="M451.05 227.45q-1.95 0-3.35 1.4-1.4 1.4-1.4 3.35 0 1.95 1.4 3.35 1.4 1.35 3.35 1.35 2 0 3.35-1.35 1.4-1.4 1.4-3.35 0-1.95-1.4-3.35-1.35-1.4-3.35-1.4z" id="bI"/><path fill="#FDD5BF" d="M451.05 227.55q-1.9 0-3.25 1.35-1.35 1.4-1.35 3.3t1.35 3.25q1.35 1.35 3.25 1.35t3.25-1.35q1.35-1.35 1.35-3.25t-1.35-3.3q-1.35-1.35-3.25-1.35z" id="bJ"/><path fill="#FDD4BF" d="M451.05 227.7q-1.85 0-3.2 1.35-1.3 1.3-1.3 3.15 0 1.85 1.3 3.15 1.35 1.3 3.2 1.3t3.2-1.3q1.3-1.3 1.3-3.15 0-1.85-1.3-3.15-1.35-1.35-3.2-1.35z" id="bK"/><path fill="#FDD3BE" d="M451.05 227.85q-1.8 0-3.05 1.3-1.3 1.25-1.3 3.05 0 1.8 1.3 3.05 1.25 1.25 3.05 1.25 1.8 0 3.1-1.25 1.25-1.25 1.25-3.05 0-1.8-1.25-3.05-1.3-1.3-3.1-1.3z" id="bL"/><path fill="#FDD2BE" d="M451.05 227.95q-1.75 0-3 1.25-1.2 1.25-1.2 3t1.2 2.95q1.25 1.25 3 1.25t3-1.25q1.2-1.2 1.2-2.95 0-1.75-1.2-3-1.25-1.25-3-1.25z" id="bM"/><path fill="#FCD2BD" d="M451.05 228.1q-1.7 0-2.9 1.2t-1.2 2.9q0 1.7 1.2 2.85 1.2 1.2 2.9 1.2t2.9-1.2q1.2-1.15 1.2-2.85 0-1.7-1.2-2.9t-2.9-1.2z" id="bN"/><path fill="#FCD1BC" d="M451.05 228.25q-1.65 0-2.8 1.15t-1.15 2.8q0 1.6 1.15 2.75t2.8 1.15q1.65 0 2.8-1.15t1.15-2.75q0-1.65-1.15-2.8t-2.8-1.15z" id="bO"/><path fill="#FCD0BC" d="M451.05 228.35q-1.55 0-2.7 1.15-1.1 1.1-1.1 2.7t1.1 2.7q1.15 1.1 2.7 1.1 1.6 0 2.7-1.1t1.1-2.7q0-1.6-1.1-2.7-1.15-1.15-2.7-1.15z" id="bP"/><path fill="#FCCFBB" d="M451.05 228.5q-1.55 0-2.6 1.1-1.1 1.05-1.1 2.6 0 1.5 1.1 2.6 1.05 1.05 2.6 1.05t2.6-1.05q1.1-1.1 1.1-2.6 0-1.55-1.1-2.6-1.05-1.1-2.6-1.1z" id="bQ"/><path fill="#FCCFBB" d="M451.05 228.65q-1.45 0-2.5 1.05t-1.05 2.5q0 1.45 1.05 2.5 1.05 1 2.5 1t2.5-1q1.05-1.05 1.05-2.5t-1.05-2.5q-1.05-1.05-2.5-1.05z" id="bR"/><path fill="#FCCEBA" d="M451.05 228.75q-1.4 0-2.4 1t-1 2.45q0 1.4 1 2.4t2.4 1q1.4 0 2.4-1t1-2.4q0-1.45-1-2.45-1-1-2.4-1z" id="bS"/><path fill="#FCCDBA" d="M451.05 228.9q-1.35 0-2.3 1-1 .95-1 2.3 0 1.35 1 2.3.95.95 2.3.95 1.35 0 2.35-.95.95-.95.95-2.3 0-1.35-.95-2.3-1-1-2.35-1z" id="bT"/><path fill="#FCCDB9" d="M451.05 229.05q-1.3 0-2.25.9-.9.95-.9 2.25t.9 2.2q.95.9 2.25.9t2.25-.9q.9-.9.9-2.2 0-1.3-.9-2.25-.95-.9-2.25-.9z" id="bU"/><path fill="#FCCCB9" d="M451.05 229.15q-1.25 0-2.1.9-.9.9-.9 2.15t.9 2.1q.85.9 2.1.9t2.1-.9q.9-.85.9-2.1t-.9-2.15q-.85-.9-2.1-.9z" id="bV"/><path fill="#FCCBB8" d="M451.05 229.3q-1.2 0-2.05.85-.85.85-.85 2.05 0 1.2.85 2.05.85.8 2.05.8 1.2 0 2.05-.8.85-.85.85-2.05 0-1.2-.85-2.05-.85-.85-2.05-.85z" id="bW"/><path fill="#FBCAB8" d="M451.05 229.45q-1.15 0-1.95.8t-.8 1.95q0 1.1.8 1.9.8.8 1.95.8t1.95-.8q.8-.8.8-1.9 0-1.15-.8-1.95t-1.95-.8z" id="bX"/><path fill="#FBCAB7" d="M451.05 229.55q-1.1 0-1.85.8-.75.75-.75 1.85t.75 1.85q.75.75 1.85.75t1.85-.75q.75-.75.75-1.85t-.75-1.85q-.75-.8-1.85-.8z" id="bY"/><path fill="#FBC9B6" d="M451.05 229.7q-1 0-1.75.75-.75.7-.75 1.75 0 1 .75 1.75.75.7 1.75.7t1.75-.7q.75-.75.75-1.75 0-1.05-.75-1.75-.75-.75-1.75-.75z" id="bZ"/><path fill="#FBC8B6" d="M451.05 229.85q-.95 0-1.65.7t-.7 1.65q0 .95.7 1.65.65.65 1.65.65 1 0 1.65-.65.7-.7.7-1.65t-.7-1.65q-.65-.7-1.65-.7z" id="ca"/><path fill="#FBC7B5" d="M451.05 229.95q-.95 0-1.55.65-.65.65-.65 1.6 0 .9.65 1.55.6.65 1.55.65.95 0 1.55-.65.65-.65.65-1.55 0-.95-.65-1.6-.6-.65-1.55-.65z" id="cb"/><path fill="#FBC7B5" d="M451.05 230.1q-.85 0-1.5.6-.6.65-.6 1.5t.6 1.45q.65.6 1.5.6t1.5-.6q.6-.6.6-1.45t-.6-1.5q-.65-.6-1.5-.6z" id="cc"/><path fill="#FBC6B4" d="M451.05 230.25q-.8 0-1.4.55-.55.6-.55 1.4 0 .8.55 1.35.6.6 1.4.6.8 0 1.4-.6.55-.55.55-1.35t-.55-1.4q-.55-.55-1.4-.55z" id="cd"/><path fill="url(#q)" d="M491.6 209l-1.15-.2q-.244 1.304 1.15.2m.5.1q-.077-.141-.2-.35-.14.163-.3.25l.5.1m12.15-11.85q-4.4-9.8-13.7-14.35-8.1-3.95-19.2-3.65-14.55.45-21.75 7.9-6.85 7.1-8.85 22.55l12.45-8.35 37.25 7.45q.4-2.15.9-1.15.308.592.55 1.1.23-.15.45-.35 2.1-1.95 1.35 1.05l-1.6-.35q1.35 2.513 1.9 3.3 6.75 9.4 22.3 10.5-.35-.45 3.25-1.75 3.1-1.15.7-1.95-5.9-1.85-9.55-7.95-.65-1.15-6.45-14z" id="ce"/><path fill="#A12B31" d="M491.6 209l-1.15-.2q-.244 1.304 1.15.2m.5.1q-.077-.141-.2-.35-.14.163-.3.25l.5.1m-40.45-11.05l4.75 3.9 34.05 6.85q.4-2.15.9-1.15.308.592.55 1.1.23-.15.45-.35 2.1-1.95 1.35 1.05l-1.6-.35q1.35 2.513 1.9 3.3 6.75 9.4 22.3 10.5-.3-.4.85-.9.7-.25 2.5-.9-4.8-1.65-7.9-4.8-2.05-2.05-7.15-9.25-6.25-8.65-18.2-11.8-8.1-2.1-17.45-1.3-8.85.8-17.3 4.1z" id="cf"/><path fill="url(#r)" d="M459 184.85q4.5-3.75 13.35-5.6h-1q-16.1.45-23.2 7.45-6.7 6.65-7.3 21.15l11.8-8.85q.6-9.3 6.35-14.15z" id="cg"/><path fill="#E5E6E7" d="M528.1 229.5q1.35-4.15-.65-8.05-2-3.9-6.15-5.25t-8.05.6q-3.9 2-5.25 6.15t.65 8.1q1.95 3.9 6.1 5.25 4.15 1.35 8.1-.65 3.9-2 5.25-6.15z" id="ch"/><path fill="url(#s)" d="M522.15 220.05q-1.35-2.7-4.2-3.65-2.85-.95-5.6.45-2.65 1.4-3.65 4.25-.9 2.85.5 5.55 1.35 2.7 4.2 3.65 2.85.95 5.6-.45 2.7-1.35 3.6-4.2.95-2.9-.45-5.6z" id="ci"/><path fill="url(#t)" d="M463.75 243.05q2.35 1.5 5.1 1.5 2.8 0 5.15-1.5 2.25-1.45 3.4-3.9l-7.55-3.75-9.6 3.75q1.2 2.45 3.5 3.9z" id="cj"/><path fill="url(#u)" d="M465.6 240.8q-1.25-.2-1.5.5-.05.4.25.75.35.35.9.45.55.15.95 0 .45-.15.55-.55.05-.3-.3-.65-.35-.4-.85-.5z" id="ck"/><path fill="url(#v)" d="M470.4 231.1q-1.4 0-2.3.95-1 1-1 2.7 0 1.8 1.2 3.15 1.5 1.65 4.35 1.9 3.9.3 7.2-1.2 3.9-1.85 4.6-5.65-2.85 1.8-6.5.3-5.05-2.15-7.55-2.15z" id="cl"/><path fill="#FFF" d="M469.6 232.05q-.95-.95-2.35-.95-2.5 0-7.55 2.15-3.65 1.5-6.4-.3.6 3.8 4.55 5.65 3.3 1.5 7.25 1.2 2.85-.25 4.3-1.9 1.15-1.3 1.15-3.15 0-1.7-.95-2.7z" id="cm"/><path fill="#FCC696" d="M455.75 214.6q-1.15 0-2.2.45-.75.3-1.55.05-2.8-.9-4.1 1.9-1.3 2.8.9 4.8 6.25 2.4 13.35.3 1.95-4.2-.45-6.05-1.8-1.45-5.95-1.45z" id="cn"/><path fill="#C17B42" d="M449.3 221.1q-.3.75-.25 1 .1.4.9.65 2.55.7 5.55.7h.1q5.8-.2 6.45-1.15.4-.55-.55-1.75-.7-.85-1.5-1.45-2-1.45-4.4-1.45-1.25 0-2.6.4-2.75 1.2-3.7 3.05m5.35-1.95q.3-.05.95-.05h.15q1.35 0 2.45.6 1.1.55 1.65 1.45l.4.9-9.35-.25q.75-1.75 2.75-2.45.35-.05 1-.2z" id="co"/><path fill="#FFF" d="M459.55 219.8q-1.75-1.4-3.8-1.45-2.2-.05-3.95 1.25-1.45 1.1-2.05 2.5 2 1.3 5.8 1.2 3.25-.05 6.25-1.05-1.2-1.65-2.25-2.45z" id="cp"/><path fill="url(#w)" d="M455.75 218.35q-1.65-.05-3.4.85-.3.7-.3 1.3-.05 1.65.95 2.75 2.65.45 5.55-.2.8-1.2.8-2.3 0-.65-.25-1.3-1.45-1.1-3.35-1.1z" id="cq"/><path fill="url(#x)" d="M455.75 218.35q-1.6-.05-2.9.65-.5.75-.5 1.6 0 1.85 1.35 2.7 1.95.2 4.2-.1 1-.9 1.15-2.4 0-.95-.45-1.65-1.3-.8-2.85-.8z" id="cr"/><path fill="url(#y)" d="M453.2 218.8l1 .65-1.4-.45-.15.35 1.4.45h-1.55q-.1.15-.1.45h1.65l-1.7.4v.45l1.85-.45-1.7.95q0 .3.15.35l1.7-.95-1.5 1.45q.05.2.3.35l1.5-1.5-1.15 1.9.2.1q.15 0 .25.1l1.05-1.8-.5 1.8h.45l.5-1.75-.1 1.75h.45l.1-1.75.35 1.75.4-.1-.35-1.7.85 1.65h.45l-.95-1.85 1.45 1.55.3-.35-1.45-1.5 1.75 1.05.15-.4-1.7-1 1.8.55q0-.3.1-.4l-1.75-.55h1.65v-.4h-1.65l1.55-.35q-.15-.2-.15-.45l-1.45.35 1-.55-.45-.25-.75.45.5-.5q-.2-.15-.45-.15l-.35.35.2-.35-.45-.15-.1.2.05-.2H456l-.05.15v-.15h-.85l.05.2-.15-.2q-.3 0-.4.1l.1.35-.25-.35-.5.1.5.55-.75-.45q-.25 0-.5.15z" id="cs"/><path fill="#373535" d="M456.6 219.3q-.4-.35-.95-.35-.5 0-.9.35t-.4.85q0 .55.4.95.35.35.85.35.5.05.9-.3t.45-.9q0-.55-.35-.95z" id="ct"/><path fill="#FFF" d="M457.95 220.25q0-.75-.7-.75-.8 0-.8.75 0 .7.7.7.35.05.55-.2.25-.2.25-.5z" id="cu"/><path fill="#FCC696" d="M483.95 214.6q-.7-.65-1.95-.65-4.1 0-6.05 1.75-2.4 2.15-.4 6.4 7.15 2.1 13.3-.3 2.3-2 .75-4.9-1.5-2.9-4.3-2-.75.25-1.35-.3z" id="cv"/><path fill="#C17B42" d="M477.7 219.1q-.8.55-1.55 1.45-.9 1.2-.55 1.75.65.95 6.55 1.15h.1q2.9 0 5.45-.7.8-.25.9-.65.05-.25-.25-1-.9-1.85-3.65-3.05-1.45-.4-2.55-.4-2.5 0-4.45 1.45m-.2 2.85q.05-.3.35-.8 1.35-2.05 4.15-2.05h.15q.6 0 .85.05.4 0 1.05.2 2.05.75 2.7 2.45l-9.25.25v-.1z" id="cw"/><path fill="#FFF" d="M481.95 218.35q-3.4.1-6.05 3.9 2.95 1 6.25 1.05 3.8.1 5.85-1.2-.65-1.45-2.1-2.5-1.8-1.3-3.95-1.25z" id="cx"/><path fill="url(#z)" d="M485.4 219.2q-1.75-.9-3.45-.85-1.8 0-3.4 1.1-.2.55-.2 1.3.05 1.3.8 2.3 2.95.65 5.55.2 1-1.1 1-2.75 0-.4-.3-1.3z" id="cy"/><path fill="url(#A)" d="M484.9 219q-1.35-.7-2.95-.65-1.6 0-2.9.8-.45.65-.35 1.65 0 1.4 1.1 2.4 2.2.3 4.25.1 1.4-1 1.25-2.7 0-1-.4-1.6z" id="cz"/><path fill="url(#B)" d="M480.65 218.5q-.25 0-.5.15l.5.5-.75-.45-.5.25 1.1.55-1.45-.35-.2.45 1.5.35h-1.6l-.05.4h1.65l-1.65.55v.4l1.8-.55-1.65 1 .2.4 1.65-1.05-1.45 1.5q.3.3.3.35l1.5-1.55-1 1.85h.45l.95-1.65-.45 1.7.45.1.35-1.75.05 1.75h.45l-.05-1.75.5 1.75h.5l-.6-1.8 1.1 1.8q.05-.1.3-.1l.1-.1-1.15-1.9 1.6 1.5.2-.35-1.5-1.45 1.8.95.15-.35-1.75-.95 1.8.45v-.45l-1.7-.4h1.7l-.05-.45h-1.65l1.5-.45-.2-.35-1.45.45 1-.65q-.2-.15-.5-.15l-.7.45.5-.55-.5-.1-.3.35.2-.35q-.15-.1-.5-.1l-.05.2v-.2h-1.3v.2l-.1-.2-.5.15.25.35-.3-.35z" id="cA"/><path fill="#373535" d="M482 218.95q-.55 0-.9.35-.35.4-.3.95 0 .55.35.9.4.35.95.3.55 0 .85-.35.35-.4.35-.95 0-.5-.35-.85-.4-.35-.95-.35z" id="cB"/><path fill="url(#C)" d="M474.8 222.3l2.25 5.65h9.65l2.75-5.65q-6.75-1.4-14.65 0z" id="cC"/><path fill="url(#D)" d="M440.55 202.75q-3.25 2.05-4.25 3.85-.8 1.45-1 4.7-.1 1.15-.3 2.95-.2 4.9 2.25 5.6 1.9.55 3.7-1.15 12.25-10.95 27.95-10.95 15.65 0 27.85 10.95 1.85 1.7 3.8 1.15 2.45-.7 2.2-5.6-.2-1.8-.3-2.95-.25-3.3-1-4.7-1-1.85-4.2-3.85-13.2-8.3-28.35-8.3-15.25 0-28.35 8.3z" id="cD"/><path fill="#E7E8E9" d="M448.75 207.85q-3.25 1.6-2.35 3.5.9 1.85 3.45 1.05 5.55-1.9 10.9.05 2.35.85 3.85.15 1.3-.6 1.3-2.05-.05-3.75-5.8-4.5-5.95-.8-11.35 1.8z" id="cE"/><path fill="#D2D4D5" d="M473.1 212.6q1.45.7 3.85-.15 5.25-1.95 10.9-.05 2.6.8 3.45-1.05.9-1.9-2.4-3.5-5.25-2.65-11.35-1.8-5.75.75-5.75 4.5-.05 1.45 1.3 2.05z" id="cF"/><path fill="url(#E)" d="M465.05 226.6q-1.85.85-2.5 2.25-1 2.35.25 3.7 1.15 1.35 2.8.2 1.95 1.1 3.25 1.1 1.35 0 3.2-1.1 1.65 1.15 2.8-.2 1.25-1.35.25-3.7-.55-1.4-2.45-2.25-1.65-.75-3.8-.85-2.15.1-3.8.85z" id="cG"/><path fill="url(#F)" d="M448.4 222.3l2.7 5.65h9.75l2.15-5.65q-7.85-1.4-14.6 0z" id="cH"/><path fill="url(#G)" d="M449.05 215.05q-2.9 2.6-2.9 6.1 0 3.55 2.9 6.05 2.6 2.45 6.6 2.45 3.9 0 6.65-2.45 2.8-2.55 2.8-6.05 0-3.45-2.8-6.1-2.85-2.45-6.65-2.45-3.9 0-6.6 2.45m6.6.05q3.05 0 5 1.8 2 1.75 2 4.25 0 2.45-2 4.2-2 1.85-5 1.85-2.95 0-5.05-1.85-1.9-1.75-1.9-4.2 0-2.5 1.9-4.25 2.05-1.8 5.05-1.8z" id="cI"/><path fill="url(#H)" d="M482 212.6q-3.8 0-6.6 2.45-2.8 2.55-2.8 6.1t2.8 6.05q2.7 2.45 6.6 2.45h.1q3.9 0 6.6-2.45 2.8-2.5 2.8-6.05t-2.8-6.1q-2.8-2.45-6.7-2.45m-4.95 4.3q2.05-1.8 4.95-1.8 3 0 5.05 1.8 2 1.85 2 4.25 0 2.35-2 4.2-2.1 1.85-4.95 1.85h-.1q-2.85 0-4.95-1.85-2-1.75-2-4.2 0-2.5 2-4.25z" id="cJ"/><path fill="#D49D74" d="M469.85 221.5q-.35-.05-1-.05-2.7 0-4.05 2.1l-.5.85q-.05.15-.3.85-.1.7.6.9.6.1.85-.6 0-.3.15-.55.15-.25.35-.6 1.1-1.6 2.9-1.6l.7.1.65.2q1.6.7 2.1 2.45.1.7.8.6.75-.2.55-.9-.55-2.5-2.95-3.45l-.85-.3z" id="cK"/><path fill="#FFF" d="M483.9 219.75q-.2-.25-.5-.25-.75 0-.75.75 0 .7.75.7.25.05.5-.2.2-.2.2-.5.05-.3-.2-.5z" id="cL"/><path fill="#FFF" d="M448.75 208.9q-3.25 1.6-2.35 3.5.9 1.85 3.45 1.05 5.6-1.8 10.9.1 2.35.85 3.85.15 1.3-.65 1.3-2.1-.05-3.7-5.8-4.45-5.8-.85-11.35 1.75z" id="cM"/><path fill="#FFF" d="M473.1 213.7q1.45.7 3.85-.15 5.25-1.9 10.9-.1 2.6.8 3.45-1.05.9-1.9-2.4-3.5-5.45-2.65-11.35-1.75-5.75.75-5.75 4.45-.05 1.45 1.3 2.1z" id="cN"/><path fill="#FDD2AD" d="M455.65 222.8q-1.9 0-3.35.25-1.4.25-1.4.5 0 .3 1.4.5t3.35.2q1.95 0 3.35-.2 1.4-.2 1.4-.5 0-.25-1.4-.5-1.45-.25-3.35-.25z" id="cO"/><path fill="#FDD2AD" d="M482 222.8q-1.9 0-3.35.25-1.4.25-1.4.5 0 .7 4.75.7 1.95 0 3.35-.2 1.4-.2 1.4-.5 0-.25-1.4-.5-1.45-.25-3.35-.25z" id="cP"/></defs><use xlink:href="#I"/><use xlink:href="#J" transform="translate(-657.243 -267.24) scale(1.70343)"/><use xlink:href="#K" transform="translate(-657.243 -267.24) scale(1.70343)"/><use xlink:href="#L" transform="translate(-657.243 -267.24) scale(1.70343)"/><use xlink:href="#M" transform="translate(-657.243 -267.24) scale(1.70343)"/><use xlink:href="#N" transform="translate(-657.243 -267.24) scale(1.70343)"/><use xlink:href="#O" transform="translate(-657.243 -267.24) scale(1.70343)"/><use xlink:href="#P" transform="translate(-657.243 -267.24) scale(1.70343)"/><use xlink:href="#Q" transform="translate(-657.243 -267.24) scale(1.70343)"/><use xlink:href="#R" transform="translate(-657.243 -267.24) scale(1.70343)"/><use xlink:href="#S" transform="translate(-657.243 -267.24) scale(1.70343)"/><use xlink:href="#T" transform="translate(-657.243 -267.24) scale(1.70343)"/><use xlink:href="#U" transform="translate(-657.243 -267.24) scale(1.70343)"/><use xlink:href="#V" transform="translate(-657.243 -267.24) scale(1.70343)"/><use xlink:href="#W" transform="translate(-657.243 -267.24) scale(1.70343)"/><use xlink:href="#X" transform="translate(-657.243 -267.24) scale(1.70343)"/><use xlink:href="#Y" transform="translate(-657.243 -267.24) scale(1.70343)"/><use xlink:href="#Z" transform="translate(-657.243 -267.24) scale(1.70343)"/><use xlink:href="#aa" transform="translate(-657.243 -267.24) scale(1.70343)"/><use xlink:href="#ab" transform="translate(-657.243 -267.24) scale(1.70343)"/><use xlink:href="#ac" transform="translate(-657.243 -267.24) scale(1.70343)"/><use xlink:href="#ad" transform="translate(-657.243 -267.24) scale(1.70343)"/><use xlink:href="#ae" transform="translate(-657.243 -267.24) scale(1.70343)"/><use xlink:href="#af" transform="translate(-657.243 -267.24) scale(1.70343)"/><use xlink:href="#ag" transform="translate(-657.243 -267.24) scale(1.70343)"/><use xlink:href="#ah" transform="translate(-657.243 -267.24) scale(1.70343)"/><use xlink:href="#ai" transform="translate(-657.243 -267.24) scale(1.70343)"/><use xlink:href="#aj" transform="translate(-657.243 -267.24) scale(1.70343)"/><use xlink:href="#ak" transform="translate(-657.243 -267.24) scale(1.70343)"/><use xlink:href="#al" transform="translate(-657.243 -267.24) scale(1.70343)"/><use xlink:href="#am" transform="translate(-657.243 -267.24) scale(1.70343)"/><use xlink:href="#an" transform="translate(-657.243 -267.24) scale(1.70343)"/><use xlink:href="#ao" transform="translate(-657.243 -267.24) scale(1.70343)"/><use xlink:href="#ap" transform="translate(-657.243 -267.24) scale(1.70343)"/><use xlink:href="#aq" transform="translate(-657.243 -267.24) scale(1.70343)"/><use xlink:href="#ar" transform="translate(-657.243 -267.24) scale(1.70343)"/><use xlink:href="#as" transform="translate(-657.243 -267.24) scale(1.70343)"/><use xlink:href="#at" transform="translate(-657.243 -267.24) scale(1.70343)"/><use xlink:href="#au" transform="translate(-657.243 -267.24) scale(1.70343)"/><use xlink:href="#av" transform="translate(-657.243 -267.24) scale(1.70343)"/><use xlink:href="#aw" transform="translate(-657.243 -267.24) scale(1.70343)"/><use xlink:href="#ax" transform="translate(-657.243 -267.24) scale(1.70343)"/><use xlink:href="#ay" transform="translate(-657.243 -267.24) scale(1.70343)"/><use xlink:href="#az" transform="translate(-657.243 -267.24) scale(1.70343)"/><use xlink:href="#aA" transform="translate(-657.243 -267.24) scale(1.70343)"/><use xlink:href="#aB" transform="translate(-657.243 -267.24) scale(1.70343)"/><use xlink:href="#aC" transform="translate(-657.243 -267.24) scale(1.70343)"/><use xlink:href="#aD" transform="translate(-657.243 -267.24) scale(1.70343)"/><use xlink:href="#aE" transform="translate(-657.243 -267.24) scale(1.70343)"/><use xlink:href="#aF" transform="translate(-657.243 -267.24) scale(1.70343)"/><use xlink:href="#aG" transform="translate(-657.243 -267.24) scale(1.70343)"/><use xlink:href="#aH" transform="translate(-657.243 -267.24) scale(1.70343)"/><use xlink:href="#aI" transform="translate(-657.243 -267.24) scale(1.70343)"/><use xlink:href="#aJ" transform="translate(-657.243 -267.24) scale(1.70343)"/><use xlink:href="#aK" transform="translate(-657.243 -267.24) scale(1.70343)"/><use xlink:href="#aL" transform="translate(-657.243 -267.24) scale(1.70343)"/><use xlink:href="#aM" transform="translate(-657.243 -267.24) scale(1.70343)"/><use xlink:href="#aN" transform="translate(-657.243 -267.24) scale(1.70343)"/><use xlink:href="#aO" transform="translate(-657.243 -267.24) scale(1.70343)"/><use xlink:href="#aP" transform="translate(-657.243 -267.24) scale(1.70343)"/><use xlink:href="#aQ" transform="translate(-657.243 -267.24) scale(1.70343)"/><use xlink:href="#aR" transform="translate(-657.243 -267.24) scale(1.70343)"/><use xlink:href="#aS" transform="translate(-657.243 -267.24) scale(1.70343)"/><use xlink:href="#aT" transform="translate(-657.243 -267.24) scale(1.70343)"/><use xlink:href="#aU" transform="translate(-657.243 -267.24) scale(1.70343)"/><use xlink:href="#aV" transform="translate(-657.243 -267.24) scale(1.70343)"/><use xlink:href="#aW" transform="translate(-657.243 -267.24) scale(1.70343)"/><use xlink:href="#aX" transform="translate(-657.243 -267.24) scale(1.70343)"/><use xlink:href="#aY" transform="translate(-657.243 -267.24) scale(1.70343)"/><use xlink:href="#aZ" transform="translate(-657.243 -267.24) scale(1.70343)"/><use xlink:href="#ba" transform="translate(-657.243 -267.24) scale(1.70343)"/><use xlink:href="#bb" transform="translate(-657.243 -267.24) scale(1.70343)"/><use xlink:href="#bc" transform="translate(-657.243 -267.24) scale(1.70343)"/><use xlink:href="#bd" transform="translate(-657.243 -267.24) scale(1.70343)"/><use xlink:href="#be" transform="translate(-657.243 -267.24) scale(1.70343)"/><use xlink:href="#bf" transform="translate(-657.243 -267.24) scale(1.70343)"/><use xlink:href="#bg" transform="translate(-657.243 -267.24) scale(1.70343)"/><use xlink:href="#bh" transform="translate(-657.243 -267.24) scale(1.70343)"/><use xlink:href="#bi" transform="translate(-657.243 -267.24) scale(1.70343)"/><use xlink:href="#bj" transform="translate(-657.243 -267.24) scale(1.70343)"/><use xlink:href="#bk" transform="translate(-657.243 -267.24) scale(1.70343)"/><use xlink:href="#bl" transform="translate(-657.243 -267.24) scale(1.70343)"/><use xlink:href="#bm" transform="translate(-657.243 -267.24) scale(1.70343)"/><use xlink:href="#bn" transform="translate(-657.243 -267.24) scale(1.70343)"/><use xlink:href="#bo" transform="translate(-657.243 -267.24) scale(1.70343)"/><use xlink:href="#bp" transform="translate(-657.243 -267.24) scale(1.70343)"/><use xlink:href="#bq" transform="translate(-657.243 -267.24) scale(1.70343)"/><use xlink:href="#br" transform="translate(-657.243 -267.24) scale(1.70343)"/><use xlink:href="#bs" transform="translate(-657.243 -267.24) scale(1.70343)"/><use xlink:href="#bt" transform="translate(-657.243 -267.24) scale(1.70343)"/><use xlink:href="#bu" transform="translate(-657.243 -267.24) scale(1.70343)"/><use xlink:href="#bv" transform="translate(-657.243 -267.24) scale(1.70343)"/><use xlink:href="#bw" transform="translate(-657.243 -267.24) scale(1.70343)"/><use xlink:href="#bx" transform="translate(-657.243 -267.24) scale(1.70343)"/><use xlink:href="#by" transform="translate(-657.243 -267.24) scale(1.70343)"/><use xlink:href="#bz" transform="translate(-657.243 -267.24) scale(1.70343)"/><use xlink:href="#bA" transform="translate(-657.243 -267.24) scale(1.70343)"/><use xlink:href="#bB" transform="translate(-657.243 -267.24) scale(1.70343)"/><use xlink:href="#bC" transform="translate(-657.243 -267.24) scale(1.70343)"/><use xlink:href="#bD" transform="translate(-657.243 -267.24) scale(1.70343)"/><use xlink:href="#bE" transform="translate(-657.243 -267.24) scale(1.70343)"/><use xlink:href="#bF" transform="translate(-657.243 -267.24) scale(1.70343)"/><use xlink:href="#bG" transform="translate(-657.243 -267.24) scale(1.70343)"/><use xlink:href="#bH" transform="translate(-657.243 -267.24) scale(1.70343)"/><use xlink:href="#bI" transform="translate(-657.243 -267.24) scale(1.70343)"/><use xlink:href="#bJ" transform="translate(-657.243 -267.24) scale(1.70343)"/><use xlink:href="#bK" transform="translate(-657.243 -267.24) scale(1.70343)"/><use xlink:href="#bL" transform="translate(-657.243 -267.24) scale(1.70343)"/><use xlink:href="#bM" transform="translate(-657.243 -267.24) scale(1.70343)"/><use xlink:href="#bN" transform="translate(-657.243 -267.24) scale(1.70343)"/><use xlink:href="#bO" transform="translate(-657.243 -267.24) scale(1.70343)"/><use xlink:href="#bP" transform="translate(-657.243 -267.24) scale(1.70343)"/><use xlink:href="#bQ" transform="translate(-657.243 -267.24) scale(1.70343)"/><use xlink:href="#bR" transform="translate(-657.243 -267.24) scale(1.70343)"/><use xlink:href="#bS" transform="translate(-657.243 -267.24) scale(1.70343)"/><use xlink:href="#bT" transform="translate(-657.243 -267.24) scale(1.70343)"/><use xlink:href="#bU" transform="translate(-657.243 -267.24) scale(1.70343)"/><use xlink:href="#bV" transform="translate(-657.243 -267.24) scale(1.70343)"/><use xlink:href="#bW" transform="translate(-657.243 -267.24) scale(1.70343)"/><use xlink:href="#bX" transform="translate(-657.243 -267.24) scale(1.70343)"/><use xlink:href="#bY" transform="translate(-657.243 -267.24) scale(1.70343)"/><use xlink:href="#bZ" transform="translate(-657.243 -267.24) scale(1.70343)"/><use xlink:href="#ca" transform="translate(-657.243 -267.24) scale(1.70343)"/><use xlink:href="#cb" transform="translate(-657.243 -267.24) scale(1.70343)"/><use xlink:href="#cc" transform="translate(-657.243 -267.24) scale(1.70343)"/><use xlink:href="#cd" transform="translate(-657.243 -267.24) scale(1.70343)"/><use xlink:href="#ce" transform="translate(-657.243 -267.24) scale(1.70343)"/><use xlink:href="#cf" transform="translate(-657.243 -267.24) scale(1.70343)"/><use xlink:href="#cg" transform="translate(-657.243 -267.24) scale(1.70343)"/><use xlink:href="#ch" transform="translate(-657.243 -267.24) scale(1.70343)"/><use xlink:href="#ci" transform="translate(-657.243 -267.24) scale(1.70343)"/><use xlink:href="#cj" transform="translate(-657.243 -267.24) scale(1.70343)"/><use xlink:href="#ck" transform="translate(-657.243 -267.24) scale(1.70343)"/><use xlink:href="#cl" transform="translate(-657.243 -267.24) scale(1.70343)"/><use xlink:href="#cm" transform="translate(-657.243 -267.24) scale(1.70343)"/><use xlink:href="#cn" transform="translate(-657.243 -267.24) scale(1.70343)"/><use xlink:href="#co" transform="translate(-657.243 -267.24) scale(1.70343)"/><use xlink:href="#cp" transform="translate(-657.243 -267.24) scale(1.70343)"/><use xlink:href="#cq" transform="translate(-657.243 -267.24) scale(1.70343)"/><use xlink:href="#cr" transform="translate(-657.243 -267.24) scale(1.70343)"/><use xlink:href="#cs" transform="translate(-657.243 -267.24) scale(1.70343)"/><use xlink:href="#ct" transform="translate(-657.243 -267.24) scale(1.70343)"/><use xlink:href="#cu" transform="translate(-657.243 -267.24) scale(1.70343)"/><use xlink:href="#cv" transform="translate(-657.243 -267.24) scale(1.70343)"/><use xlink:href="#cw" transform="translate(-657.243 -267.24) scale(1.70343)"/><use xlink:href="#cx" transform="translate(-657.243 -267.24) scale(1.70343)"/><use xlink:href="#cy" transform="translate(-657.243 -267.24) scale(1.70343)"/><use xlink:href="#cz" transform="translate(-657.243 -267.24) scale(1.70343)"/><use xlink:href="#cA" transform="translate(-657.243 -267.24) scale(1.70343)"/><use xlink:href="#cB" transform="translate(-657.243 -267.24) scale(1.70343)"/><use xlink:href="#cC" transform="translate(-657.243 -267.24) scale(1.70343)"/><use xlink:href="#cD" transform="translate(-657.243 -267.24) scale(1.70343)"/><use xlink:href="#cE" transform="translate(-657.243 -267.24) scale(1.70343)"/><use xlink:href="#cF" transform="translate(-657.243 -267.24) scale(1.70343)"/><use xlink:href="#cG" transform="translate(-657.243 -267.24) scale(1.70343)"/><use xlink:href="#cH" transform="translate(-657.243 -267.24) scale(1.70343)"/><use xlink:href="#cI" transform="translate(-657.243 -267.24) scale(1.70343)"/><use xlink:href="#cJ" transform="translate(-657.243 -267.24) scale(1.70343)"/><use xlink:href="#cK" transform="translate(-657.243 -267.24) scale(1.70343)"/><use xlink:href="#cL" transform="translate(-657.243 -267.24) scale(1.70343)"/><use xlink:href="#cM" transform="translate(-657.243 -267.24) scale(1.70343)"/><use xlink:href="#cN" transform="translate(-657.243 -267.24) scale(1.70343)"/><use xlink:href="#cO" transform="translate(-657.243 -267.24) scale(1.70343)"/><use xlink:href="#cP" transform="translate(-657.243 -267.24) scale(1.70343)"/></svg>