<svg xmlns="http://www.w3.org/2000/svg" xmlns:xlink="http://www.w3.org/1999/xlink" preserveAspectRatio="none" width="284" height="320"><defs><linearGradient id="a" gradientUnits="userSpaceOnUse" x1="424.212" y1="439.5" x2="426.587" y2="412.3" spreadMethod="pad"><stop offset="0%" stop-color="#B6E4FA"/><stop offset="100%" stop-color="#E5F5FD"/></linearGradient><linearGradient id="b" gradientUnits="userSpaceOnUse" x1="450.825" y1="349.863" x2="492.875" y2="355.037" spreadMethod="pad"><stop offset="0%" stop-color="#858789"/><stop offset="32.157%" stop-color="#BEC0C2"/><stop offset="100%" stop-color="#373535"/></linearGradient><linearGradient id="c" gradientUnits="userSpaceOnUse" x1="452.037" y1="357.975" x2="493.363" y2="362.325" spreadMethod="pad"><stop offset="0%" stop-color="#00A0E1"/><stop offset="25.882%" stop-color="#9DDCF9"/><stop offset="100%" stop-color="#0092D5"/></linearGradient><radialGradient id="d" gradientUnits="userSpaceOnUse" cx="0" cy="0" r="75.925" fx="0" fy="0" gradientTransform="matrix(1 0 0 -1 453.5 439.5)" spreadMethod="pad"><stop offset="0%" stop-color="#FFF"/><stop offset="38.824%" stop-color="#CDECFC"/><stop offset="76.078%" stop-color="#83D4F7"/><stop offset="100%" stop-color="#FFF"/></radialGradient><linearGradient id="e" gradientUnits="userSpaceOnUse" x1="509.325" y1="455.613" x2="501.275" y2="439.088" spreadMethod="pad"><stop offset="0%" stop-color="#008BCF"/><stop offset="100%" stop-color="#19599B"/></linearGradient><linearGradient id="f" gradientUnits="userSpaceOnUse" x1="485.488" y1="425.45" x2="434.412" y2="424.55" spreadMethod="pad"><stop offset="0%" stop-color="#00A0E1"/><stop offset="21.961%" stop-color="#00B0F0"/><stop offset="41.961%" stop-color="#00B0F0"/><stop offset="100%" stop-color="#0084C9"/></linearGradient><radialGradient id="g" gradientUnits="userSpaceOnUse" cx="0" cy="0" r="51.538" fx="0" fy="0" gradientTransform="matrix(1 0 0 -1 455.45 386.55)" spreadMethod="pad"><stop offset="0%" stop-color="#FFF"/><stop offset="38.824%" stop-color="#CDECFC"/><stop offset="76.078%" stop-color="#83D4F7"/><stop offset="100%" stop-color="#FFF"/></radialGradient><linearGradient id="h" gradientUnits="userSpaceOnUse" x1="444.95" y1="381.537" x2="444.85" y2="387.262" spreadMethod="pad"><stop offset="0%" stop-color="#373535"/><stop offset="100%" stop-color="#97999B"/></linearGradient><linearGradient id="i" gradientUnits="userSpaceOnUse" x1="465.6" y1="383.512" x2="465.5" y2="389.588" spreadMethod="pad"><stop offset="0%" stop-color="#373535"/><stop offset="100%" stop-color="#97999B"/></linearGradient><linearGradient id="j" gradientUnits="userSpaceOnUse" x1="443.337" y1="390.362" x2="442.163" y2="403.938" spreadMethod="pad"><stop offset="0%" stop-color="#F6917D"/><stop offset="100%" stop-color="#EE333F"/></linearGradient><linearGradient id="k" gradientUnits="userSpaceOnUse" x1="450.55" y1="365.613" x2="491.45" y2="380.488" spreadMethod="pad"><stop offset="0%" stop-color="#373535"/><stop offset="100%" stop-color="#97999B"/></linearGradient><linearGradient id="l" gradientUnits="userSpaceOnUse" x1="478.925" y1="353.313" x2="485.775" y2="367.987" spreadMethod="pad"><stop offset="0%" stop-color="#0EA251"/><stop offset="100%" stop-color="#008C4A"/></linearGradient><linearGradient id="m" gradientUnits="userSpaceOnUse" x1="501.425" y1="366.35" x2="491.375" y2="367.95" spreadMethod="pad"><stop offset="0%" stop-color="#A6D282"/><stop offset="100%" stop-color="#69BE62"/></linearGradient><linearGradient id="n" gradientUnits="userSpaceOnUse" x1="494.4" y1="370.837" x2="505.9" y2="373.063" spreadMethod="pad"><stop offset="0%" stop-color="#17A652"/><stop offset="100%" stop-color="#A6D282"/></linearGradient><linearGradient id="o" gradientUnits="userSpaceOnUse" x1="493.513" y1="367.625" x2="487.188" y2="371.575" spreadMethod="pad"><stop offset="0%" stop-color="#F2705F"/><stop offset="43.137%" stop-color="#EE333F"/><stop offset="100%" stop-color="#C22F38"/></linearGradient><linearGradient id="p" gradientUnits="userSpaceOnUse" x1="492.438" y1="368.462" x2="490.263" y2="369.837" spreadMethod="pad"><stop offset="0%" stop-color="#FABEAC"/><stop offset="100%" stop-color="#F47E69"/></linearGradient><linearGradient id="q" gradientUnits="userSpaceOnUse" x1="486.463" y1="364.525" x2="480.137" y2="368.475" spreadMethod="pad"><stop offset="0%" stop-color="#F2705F"/><stop offset="43.137%" stop-color="#EE333F"/><stop offset="100%" stop-color="#C22F38"/></linearGradient><linearGradient id="r" gradientUnits="userSpaceOnUse" x1="502.887" y1="347.013" x2="491.412" y2="360.688" spreadMethod="pad"><stop offset="0%" stop-color="#93CB78"/><stop offset="100%" stop-color="#1FAA53"/></linearGradient><linearGradient id="s" gradientUnits="userSpaceOnUse" x1="505.1" y1="357.637" x2="489.3" y2="364.662" spreadMethod="pad"><stop offset="0%" stop-color="#51B95B"/><stop offset="100%" stop-color="#008E4B"/></linearGradient><linearGradient id="t" gradientUnits="userSpaceOnUse" x1="493.338" y1="361.288" x2="486.262" y2="365.712" spreadMethod="pad"><stop offset="0%" stop-color="#F2705F"/><stop offset="43.137%" stop-color="#EE333F"/><stop offset="100%" stop-color="#C22F38"/></linearGradient><linearGradient id="u" gradientUnits="userSpaceOnUse" x1="492.675" y1="361.838" x2="490.225" y2="363.363" spreadMethod="pad"><stop offset="0%" stop-color="#FFF"/><stop offset="100%" stop-color="#F6937D"/></linearGradient><linearGradient id="v" gradientUnits="userSpaceOnUse" x1="492.45" y1="449.538" x2="493.45" y2="420.563" spreadMethod="pad"><stop offset="0%" stop-color="#B6E4FA"/><stop offset="100%" stop-color="#E5F5FD"/></linearGradient><path fill="#FFF" fill-opacity="0" d="M284 0H0v320h284V0z" id="w"/><path fill="url(#a)" d="M438.9 415.85q-1.5-1.9-4.4-2.45-4.8-.95-11.8 2.9-7 3.8-10.9 9.5-4.35 6.45-1.9 12.6 2.55 6.35 10.05 5.25 2.25-.35 4.7-2.25 3.7-2.9 3.85-3 1.8-1.05 4.1-3.4 3.1-3.2 3.6-3.6 1.3-1.1 2.95-4.35 1.65-3.25 2.35-6-1.6-3.95-2.6-5.2z" id="x"/><path fill="url(#b)" d="M452.35 337.2q-1.3 2-1.45 8.3l-.7 20.95 35.35 5.5 8.85-17.6q2.45-4.9 2.05-7.6-.4-3.25-4.85-5.7-7.5-4.15-16.65-5.9-8.5-1.65-16.05-.85-5.05.55-6.55 2.9z" id="y"/><path fill="url(#c)" d="M469.05 363.75q9.9 2.2 16.8 7.6l6.8-13.45q-9.45-4.85-21.15-7.25-10.1-2.05-20.75-2.05l-.5 15.25q8.45-2.4 18.8-.1z" id="z"/><path fill="url(#d)" d="M497.45 477q12.95-12.2 12.55-28.95-.4-16.75-13.95-28.25-13.55-11.55-32.25-11.05-18.65.4-31.6 12.6-12.95 12.2-12.55 28.9.4 16.75 13.95 28.35 13.55 11.55 32.2 11.05 18.65-.4 31.65-12.65z" id="A"/><path fill="url(#e)" d="M504.95 423.45q-3.35-2.2-9.9-5.7-11.05-6.25-18.15-5.05-3.3.55-3.4 3.5-.15 4.2-.55 4.85l5.8 12.5q8.35.8 17.05 12.05 7.7 10 11.65 22.25l1.15 4.25q1.65 8.55.35 11.95-.3.75.4 1 .6.2 1.05-.45.7-1.95.55-5.6-.1-3.4-.95-7.2v-.3q.6.2 1.3-.15 1.45 7.2.5 10.55-.15.6.5.9.35.1.65-.05.25-.15.3-.45 1.1-3.75-.55-11.85l1-.95q1.6 7.15.95 10.3-.2.75.55.85.35.1.6-.05.25-.2.35-.5.75-4.05-1.25-12l.95-1q1.9 7.3 1.45 10.65 0 .75.7.9.25.05.55-.15.3-.2.35-.5.5-4.25-1.85-12.05l.95-.7q2.15 6.85 1.95 10.6 0 .75.75.75.3.1.55-.15.2-.2.2-.55.3-3.9-2.05-11.5.1-.1.85-.6l.65 1.9q1.6 5.35 1.6 8.25 0 .8.75.8t.75-.8q0-3.1-1.65-8.8-.65-1.9-.75-2.05l.95-.5q2.25 6.2 2.35 9.55.2.75.9.75.7-.2.7-.9-.25-3.75-2.6-10.15l.9-.4q1.25 3.35 1.9 5.75.55 2.1.65 3.15 0 .75.8.75.75-.15.75-.9-.45-3.45-2.2-7.9l-.65-1.75q.5-.3.65-.5l.15-.05q2.25 5.05 2.85 8.65.1.75.85.65.75-.2.65-.9-.5-3.5-3.25-9.8.3-.7.35-1.15 2.9 5.7 3.6 9.5.15.7.95.6.25-.05.45-.3.15-.25.1-.55-.95-5.35-6.05-14.25l-.65-1.15q0-.05-.1-.25-.1-.15-.15-.2-4.45-7.75-7.2-11.6-2.05-3.1-3.1-4.7-2-3-3.3-4.45-3.35-3.6-7.9-6.65z" id="B"/><path fill="#00B5F1" d="M531.2 432.7l.9-.65q3.4 4.65 4 7.15.05.25.3.45.3.2.6.1.7-.25.6-.95-.65-2.6-4.25-7.55-3.15-4.4-6.65-7.85l-.75-.8v-.05h-.1l-.15-.15q-11.4-10.75-26.15-13.6-13.25-2.6-25.25 1.65-.8.3-2.85.85.25 2.5-2.25 5.35-2.25 2.6-1.6 3.95.8 1.65 4.4 2.7 3.45 1 7.8 1.05 15.05.05 22.8 4.65 6.55 3.85 13.75 15.2 0 .1.15.4l.45.55q.1.25.55.95.9 1.3 1.1 1.65 3.15 5.5 3 7.9 0 .8.75.8.3 0 .55-.2.2-.25.2-.5.15-3.05-3.2-8.8l-1.55-2.3q.25-.2.6-.7.2.2.8 1.2 3.65 5.7 3.65 8.45 0 .3.25.55.2.2.55.2.7 0 .7-.75 0-3.1-3.85-9.25l-1-1.55q.05-.15.55-.65l.35.4q4.05 5.95 4.25 9 .15.6.65.75h.15q.85-.2.7-.8 0-.95-.75-3.1 0-.1-.1-.15-1.3-3.1-3.65-6.55l-.5-.7q.3-.4.7-.65 2.25 3.2 3.45 5.75l.1.05q1 2.35 1.05 3.35.2.7.9.7.75-.2.6-.85-.15-2.15-2.55-6.35l-.1-.05q-.4-.7-2.35-3.7l.7-.65q.85 1.1 1.65 2.5.1 0 .1.1 2.6 3.95 2.95 6.25 0 .25.25.45t.55.2q.7-.1.7-.85-.5-3.15-4.45-8.8l-.1-.05-.5-.8.5-.5q.1 0 .1-.1l.1-.05q4.1 5.45 4.65 8.4.1.8.85.65.75-.1.65-.9-.6-3.2-4.95-9.15l.75-.75q3.85 5.15 4.5 8.1.1.75.85.65.75-.15.65-.95-.6-3.1-4.85-8.7l.9-.65q3.65 4.9 4.25 7.55.05.3.3.5t.55.15q.75-.25.65-.95-.7-2.95-4.6-8.2z" id="C"/><path fill="#90AF3D" d="M467 409.2q.1.4.25 1.2 5-.3 5.6-.25 5.05.3 9.4 2.8-2.8-2.5-7-3.65-3.8-1.1-7.85-.85-.5 0-.4.75z" id="D"/><path fill="#9DDCF9" d="M449.8 434.95q-1.3-2.1-3.45-2.3-2.15-.2-3.85 1.55-1.7 1.8-1.95 4.55t1.05 4.85q1.3 2.1 3.45 2.3 2.15.2 3.85-1.6 1.7-1.8 1.95-4.55t-1.05-4.8z" id="E"/><path fill="url(#f)" d="M491 429.9q1.1-1-3.35-7.95-4.2-6.55-5.8-7.7-5.75 4.25-11.85 4.8-5.45.45-17.1-1.85-2.8-.5-6.65-4.45-3.2-3.3-4.9-2.6-2.1 1.05-7.8 8-2.6 3.15-2.95 4.45-.6 2.2 1.65 5.2 3.5 4.75 10.65 7.95 7.05 3.15 15.6 3.8 19.9 1.6 32.5-9.65z" id="F"/><path fill="url(#g)" d="M441.6 373.75q-8.6 8.55-8.25 20.2.25 11.75 9.25 19.85 8.95 8.05 21.35 7.8 12.4-.3 20.95-8.85 8.55-8.5 8.25-20.25-.3-11.7-9.3-19.8-9-8.1-21.35-7.8-12.3.3-20.9 8.85z" id="G"/><path fill="#00B5F1" d="M442 387.2q.9 1.35 2.6 1.65 1.7.25 3.05-.8 1.45-.95 1.75-2.6.35-1.65-.65-3t-2.6-1.6q-1.7-.3-3.1.75-1.4 1-1.7 2.6-.3 1.65.65 3z" id="H"/><path fill="url(#h)" d="M445.45 381.25q-1.35-.25-2.45.55-1.1.75-1.3 2.1-.25 1.35.5 2.45.8 1.1 2.15 1.35 1.3.2 2.45-.55 1.1-.8 1.3-2.1.25-1.35-.5-2.45-.85-1.15-2.15-1.35z" id="I"/><path fill="#373535" d="M445.3 381.6q-1-.2-1.8.4-.8.55-.95 1.55-.2.95.35 1.75.6.8 1.6 1 .95.15 1.75-.4.8-.6.95-1.6.2-1-.4-1.8-.55-.75-1.5-.9z" id="J"/><path fill="#FFF" d="M445.45 382.6q-.7-.85-1.55-.3-.3.25-.4.7-.05.45.2.75.25.4.65.45.45.1.8-.15.8-.65.3-1.45z" id="K"/><path fill="#9DDCF9" d="M466.85 382.85q-1.75-.25-3.25.8t-1.85 2.8q-.35 1.8.7 3.2 1 1.45 2.8 1.75 1.8.25 3.25-.8 1.5-1.05 1.85-2.8.3-1.8-.7-3.25-1.05-1.4-2.8-1.7z" id="L"/><path fill="url(#i)" d="M466.15 383.3q-1.4-.25-2.55.6-1.2.8-1.45 2.25-.25 1.4.55 2.55.85 1.2 2.3 1.45 1.45.25 2.6-.6 1.15-.85 1.4-2.25.2-1.45-.6-2.55-.8-1.2-2.25-1.45z" id="M"/><path fill="#373535" d="M466 383.7q-1.05-.2-1.9.4-.85.6-1.05 1.65-.15 1.05.45 1.9.6.85 1.65 1 1.05.15 1.9-.45.85-.6 1-1.6.15-1.05-.45-1.9-.6-.85-1.6-1z" id="N"/><path fill="#FFF" d="M465.35 384.3q-.5-.1-.85.15-.3.3-.4.7-.05.45.2.8.25.4.7.5.4.05.8-.2t.45-.7q.1-.45-.15-.8-.25-.4-.75-.45z" id="O"/><path fill="url(#j)" d="M440.1 390.65q-12.55.45-12 3.5.5 2.85 11.2 5.15 2.3.5 7.3 1.75 4.25.95 6.25.7 4.75-.6 4.9-5 .15-4.4-4.2-5.8-2-.7-6.05-.6-4.85.25-7.4.3z" id="P"/><path fill="#AAACAE" d="M464.45 402.75q-1.8 3.35-5.6 4.8-2.7 1-5.55.75-2.6-.2-5.2-1.6-3.05-1.75-4.2-4.75-.15-.65-.9-.45-.6.25-.35.9 1.2 3.45 4.8 5.55 2.45 1.4 5.75 1.8 3.1.25 6.05-.9 4.2-1.45 6.4-5.4.4-.55-.2-1-.65-.3-1 .3z" id="Q"/><path fill="#E4323D" d="M455.55 396.75q-1.25 2.35-4.3 2.75-2.05.2-6.25-.7-4.95-1.25-7.25-1.75-6.5-1.3-9.65-3.35-.35 1.35 2.7 2.9 3.05 1.5 8.5 2.7 2.3.5 7.3 1.75 4.25.95 6.25.7 3.9-.45 4.75-3.95.8-3.35-1.85-5.65.95 2.45-.2 4.6z" id="R"/><path fill="#BC2E37" d="M453.2 399q.15-.9-.35-1.65-.5.75-.5 1.6-.15.8.35 1.65.5-.75.5-1.6z" id="S"/><path fill="#CF303A" d="M449.95 398.5q.55-.8.6-1.6 0-.85-.35-1.55-.45.5-.6 1.5 0 .85.35 1.65z" id="T"/><path fill="#BC2E37" d="M447.75 398.7q.05-.75-.3-1.65-.55.7-.55 1.6-.15.9.35 1.65.5-.9.5-1.6z" id="U"/><path fill="#EE333F" d="M448.55 393.8q.1-.85-.4-1.65-.5.9-.5 1.6-.1.85.4 1.65.5-.9.5-1.6z" id="V"/><path fill="#EE333F" d="M444.55 394.55q0-.95-.35-1.6-.45.55-.55 1.5 0 .9.35 1.7.5-.7.55-1.6z" id="W"/><path fill="#BC2E37" d="M441.6 398.7q.5-.6.5-1.5.15-.9-.35-1.65-.5.9-.5 1.6-.1.85.35 1.55z" id="X"/><path fill="#EE333F" d="M439.75 394.4q0-.95-.35-1.65-.4.4-.6 1.5 0 1.1.35 1.65.5-.6.6-1.5z" id="Y"/><path fill="#EE333F" d="M453.55 393.75q0-1.1-.35-1.65-.45.65-.55 1.6 0 .8.35 1.65.5-.7.55-1.6z" id="Z"/><path fill="#BC2E37" d="M436.2 397.8q.5-.75.5-1.6.15-.85-.35-1.65-.5.65-.5 1.6-.05.8.35 1.65z" id="aa"/><path fill="#EE333F" d="M442.05 390.6h-.7l-.15.75q0 .9.35 1.7.5-.7.55-1.6l-.05-.85z" id="ab"/><path fill="#EE333F" d="M434.65 393.75q0-.8-.3-1.35-.45.55-.45 1.3-.05.7.3 1.35.3-.5.45-1.3z" id="ac"/><path fill="#8BD0F3" d="M444.5 456.9q-1.5-1.95-3.65-1.95-2.15-.05-3.7 1.9-1.5 1.95-1.5 4.7 0 2.8 1.5 4.7 1.55 1.95 3.7 1.95 2.1 0 3.65-1.95 1.5-1.95 1.5-4.7t-1.5-4.65z" id="ad"/><path fill="url(#k)" d="M435.55 369.9q1.1 3.95 4.85 5.15 4.05-4.1 12-4.9 7.3-.75 15.9 1.45 8.4 2.15 14.9 6.3 6.9 4.4 9.2 9.6 3.15.05 5.75-1.25 2.95-1.45 3.65-3.95.9-3-.75-6.1-1.8-3.45-6.35-6.35-9.35-5.75-22.25-8.7-10.8-2.45-22.05-2.6-5-.1-8.8 1.15-4.4 1.4-5.75 4.25-1.2 2.55-.3 5.95z" id="ae"/><path fill="#1FAA53" d="M482.45 348.25l2.3 9.15-.2 8.55 2.05.75q-.05-3.1 1.2-5.65 1.25-2.65 3.65-4.1-1-.05-2.8.5-1.2.4-1.35-.25-.15-.65.6-1.6 2.05-2.55 2.9-2.9-.95-.15-2 .15-.15.05-1.75.65-.4.35-.7.1-.3-.3-.1-.9.55-2.3 3.3-3.9-1.4-.2-2.7.3-1.25.45-1.55.35-1.15-.4-1.15-1.8-.05-1.45 1.25-3-2.55.6-2.95 3.6z" id="af"/><path fill="url(#l)" d="M479.9 347.75q-.9-.55-2.2-.5-1.3.05-2.25.65.75-.1 1.8.45t1.6 1.4q.55.8.3 1.45-.3.75-1.45.8-1.65 0-3.6.9 2.65.15 3.8 1.05.95.6.95 1.25.05.75-1.3 1.05-1.4.15-2.6 1.45 2.25-.4 4.4.55 1.15.5 1.35 1.1.2.55-.55.8-2.1.45-3.45 1.05 4.35-.05 6.55 2.55 2.203 2.531 1.15 6.3 1.651-5.509.6-13.25-1.35-10.1-7.3-14.8 2.1 2.6 2.2 5.75z" id="ag"/><path fill="#81C56D" d="M484.4 353.8q-.9-.9-2.45-1.15-1.45-.3-2.75 0 3.9 0 5.5 2.1.6-3.45 2.5-4.55-2.2.7-2.8 3.6z" id="ah"/><path fill="#81C56D" d="M484.95 358.25q-1.1-.8-2.5-1.25-1.55-.45-2.95-.2 3.05-.3 5.75 2.4.5-2 .9-2.85.7-1.4 2-2.05-1.3.5-2.1 1.6-.55.75-1.1 2.35z" id="ai"/><path fill="#81C56D" d="M485.2 362.35q-2.5-2-5.15-1.5 2.75-.2 5.25 2.45.7-3.4 2.95-4.7-2.25.85-3.05 3.75z" id="aj"/><path fill="url(#m)" d="M506.25 369.5q2.35-.4 2.7-2.45-1.2 1.05-2.3 1.1-1.05.05-1.45-.85-.05-.2.2-1.15.3-1.1.1-2.2-1.15 2.25-2.9 2.8-.5.15-.7-.05-.25-.2 0-.55.4-1.1.45-1.4.2-.8.05-1.6-.3.75-2.15 2.45-.75.65-1.25.6-.55-.1-.3-1.1.35-1.2.25-2.25-1.05 1.95-3 3.1-1.95 1.15-4.35 1.25l.65 1.55 6.75-.65 7.25 1.4z" id="ak"/><path fill="url(#n)" d="M499.4 367.9q-6.159-.43-10.35 1.15 2.938-.994 5 .6 2.1 1.6 2.3 5 .2-.6.7-2.7.1-.65.55-.5.5.1.95 1 .85 1.7.65 3.45 1.05-1.1 1.05-2.1.15-1.1.75-1.1.5 0 1.05.65.75 1 1 2.95.55-1.35.55-2.85-.05-.9.5-1.15.45-.2 1.15.15t1.2 1.2q.55.8.45 1.4.4-.8.4-1.8 0-1.05-.5-1.75 2.3-.05 4.65 1.45-4.05-4.45-12.05-5.05z" id="al"/><path fill="#BBDA8D" d="M501.8 368.25q2.25-.55 2.75-2.35-.9 1.65-3.45 2.15 1.6 1.15 1.95 4.25.1-1-.2-2.15-.35-1.25-1.05-1.9z" id="am"/><path fill="#BBDA8D" d="M500.1 367.05q.85-.65 1.15-1.65-.5 1-1.55 1.6-.4.25-2.15.9 2.15 1.9 2.1 4.4.3-2.3-1.35-4.25 1.3-.6 1.8-1z" id="an"/><path fill="#BBDA8D" d="M495.05 368.05q2.2-.75 2.8-2.6-.85 1.9-3.6 2.5 2.25 2 2.25 4.05.25-1.95-1.45-3.95z" id="ao"/><path fill="url(#o)" d="M493.6 368.65q-.45-1.5-1.8-2.2-1.4-.75-2.9-.3t-2.2 1.8q-.75 1.4-.3 2.95.45 1.5 1.8 2.25 1.4.7 2.9.25 1.55-.45 2.3-1.85.7-1.4.2-2.9z" id="ap"/><path fill="url(#p)" d="M493.15 369.6q-.05-.65-.4-1.35-.45-.7-.95-1.05-.55-.3-.85-.1-.4.15-.35.8.05.7.5 1.35.4.7.9 1.05.55.35.9.1.3-.2.25-.8z" id="aq"/><path fill="url(#q)" d="M481.8 369.7q1.35.75 2.85.3 1.5-.5 2.25-1.9.75-1.35.3-2.85t-1.8-2.25q-1.45-.75-2.95-.3-1.5.5-2.25 1.9-.7 1.35-.25 2.85.45 1.5 1.85 2.25z" id="ar"/><path fill="#F4816D" d="M484.7 365.8q.4.7.9 1.05.5.3.9.1.3-.15.25-.8-.05-.65-.5-1.25-.35-.7-.9-1.1-.55-.35-.9-.15-.3.25-.25.85.05.65.5 1.3z" id="as"/><path fill="url(#r)" d="M502.45 350.25q-.25-.1-.9-1.3-.7-1.3-1.95-2.15 1.05 3-.1 5.4-.35.65-.7.6-.4 0-.5-.6-.8-1.5-.9-1.7-.6-.95-1.4-1.55.35.8.2 4.35-.1 1.25-.65 1.65-.6.45-1.25-.65-.95-1.8-1.85-2.4.85 2.8.05 5.7-.8 2.85-3 5.2l2.1.95 5.75-6.95 8.2-5.45q1.8-2.45.2-4.85-.05 2.15-1.1 3.25-.95 1.1-2.2.5z" id="at"/><path fill="url(#s)" d="M507.85 352.8q2.25-2.4 5.75-2.95-7.9-.5-16.05 6.4-6.255 5.3-8.8 10.7 1.881-3.678 5.35-4.1 3.55-.45 6.85 2.65-.55-1.3-1.05-2.1-.55-.8-.85-1.2-.45-.7.1-1 .55-.3 1.8.15 2.5.8 3.9 2.6-.1-1.35-1-2.95-.85-1.15-.35-1.7.45-.45 1.6-.35 1.7.25 3.7 1.9-.6-1.75-2.1-3.25-.9-.85-.6-1.55.25-.65 1.25-.95 1-.35 2.2-.05 1.2.3 1.7.95-.35-1.15-1.3-2.05-1-.95-2.1-1.15z" id="au"/><path fill="#A6D282" d="M500.15 354.35q1.65-2.65.35-4.8.8 2.25-1.2 5.25 2.6-.4 5.75 2.25-.8-1.15-2.15-1.95-1.45-.85-2.75-.75z" id="av"/><path fill="#A6D282" d="M497.4 354.8q.2-1.4-.5-2.75.55 1.5.1 3.05-.2.7-1.25 2.85 1.7-.1 3.3.4 1.75.6 2.85 1.8-1.8-2.35-5.35-2.75.7-1.55.85-2.6z" id="aw"/><path fill="#A6D282" d="M493.6 360.4q1.35-2.75.15-5.05.5 1.5.2 2.9-.2 1.25-1.15 2.8 3.65-.3 5.85 1.8-1.75-2.2-5.05-2.45z" id="ax"/><path fill="url(#t)" d="M485.95 361.55q-.8 1.55-.25 3.2.5 1.65 2 2.5 1.55.85 3.25.35t2.5-2.1q.85-1.5.35-3.2-.5-1.7-2.05-2.55-1.55-.8-3.25-.25-1.7.5-2.55 2.05z" id="ay"/><path fill="url(#u)" d="M493.3 363.3q-.05-.7-.55-1.45-.45-.75-1.05-1.15-.6-.4-1-.2-.35.25-.3.95.05.7.55 1.5.4.75 1 1.15.65.4 1 .15.4-.25.35-.95z" id="az"/><path fill="url(#v)" d="M506.7 437q-3.4-6.35-10.25-11.15-6.85-4.75-11.9-4.3-2.55.2-4.05 1.1-1.15.7-2.15 2.2-3 4.7 1.65 14.05 2.9 5.85 7.25 10.1 4.5 4.45 9 5.6 7.7 2.05 11.05-4.25 3.2-6.1-.6-13.35z" id="aA"/></defs><use xlink:href="#w"/><use xlink:href="#x" transform="matrix(1.69739 0 0 1.69739 -661.232 -523.012)"/><use xlink:href="#y" transform="matrix(1.69739 0 0 1.69739 -661.232 -523.012)"/><use xlink:href="#z" transform="matrix(1.69739 0 0 1.69739 -661.232 -523.012)"/><use xlink:href="#A" transform="matrix(1.69739 0 0 1.69739 -661.232 -523.012)"/><use xlink:href="#B" transform="matrix(1.69739 0 0 1.69739 -661.232 -523.012)"/><use xlink:href="#C" transform="matrix(1.69739 0 0 1.69739 -661.232 -523.012)"/><use xlink:href="#D" transform="matrix(1.69739 0 0 1.69739 -661.232 -523.012)"/><use xlink:href="#E" transform="matrix(1.69739 0 0 1.69739 -661.232 -523.012)"/><use xlink:href="#F" transform="matrix(1.69739 0 0 1.69739 -661.232 -523.012)"/><use xlink:href="#G" transform="matrix(1.69739 0 0 1.69739 -661.232 -523.012)"/><use xlink:href="#H" transform="matrix(1.69739 0 0 1.69739 -661.232 -523.012)"/><use xlink:href="#I" transform="matrix(1.69739 0 0 1.69739 -661.232 -523.012)"/><use xlink:href="#J" transform="matrix(1.69739 0 0 1.69739 -661.232 -523.012)"/><use xlink:href="#K" transform="matrix(1.69739 0 0 1.69739 -661.232 -523.012)"/><use xlink:href="#L" transform="matrix(1.69739 0 0 1.69739 -661.232 -523.012)"/><use xlink:href="#M" transform="matrix(1.69739 0 0 1.69739 -661.232 -523.012)"/><use xlink:href="#N" transform="matrix(1.69739 0 0 1.69739 -661.232 -523.012)"/><use xlink:href="#O" transform="matrix(1.69739 0 0 1.69739 -661.232 -523.012)"/><use xlink:href="#P" transform="matrix(1.69739 0 0 1.69739 -661.232 -523.012)"/><use xlink:href="#Q" transform="matrix(1.69739 0 0 1.69739 -661.232 -523.012)"/><use xlink:href="#R" transform="matrix(1.69739 0 0 1.69739 -661.232 -523.012)"/><use xlink:href="#S" transform="matrix(1.69739 0 0 1.69739 -661.232 -523.012)"/><use xlink:href="#T" transform="matrix(1.69739 0 0 1.69739 -661.232 -523.012)"/><use xlink:href="#U" transform="matrix(1.69739 0 0 1.69739 -661.232 -523.012)"/><use xlink:href="#V" transform="matrix(1.69739 0 0 1.69739 -661.232 -523.012)"/><use xlink:href="#W" transform="matrix(1.69739 0 0 1.69739 -661.232 -523.012)"/><use xlink:href="#X" transform="matrix(1.69739 0 0 1.69739 -661.232 -523.012)"/><use xlink:href="#Y" transform="matrix(1.69739 0 0 1.69739 -661.232 -523.012)"/><use xlink:href="#Z" transform="matrix(1.69739 0 0 1.69739 -661.232 -523.012)"/><use xlink:href="#aa" transform="matrix(1.69739 0 0 1.69739 -661.232 -523.012)"/><use xlink:href="#ab" transform="matrix(1.69739 0 0 1.69739 -661.232 -523.012)"/><use xlink:href="#ac" transform="matrix(1.69739 0 0 1.69739 -661.232 -523.012)"/><use xlink:href="#ad" transform="matrix(1.69739 0 0 1.69739 -661.232 -523.012)"/><use xlink:href="#ae" transform="matrix(1.69739 0 0 1.69739 -661.232 -523.012)"/><use xlink:href="#af" transform="matrix(1.69739 0 0 1.69739 -661.232 -523.012)"/><use xlink:href="#ag" transform="matrix(1.69739 0 0 1.69739 -661.232 -523.012)"/><use xlink:href="#ah" transform="matrix(1.69739 0 0 1.69739 -661.232 -523.012)"/><use xlink:href="#ai" transform="matrix(1.69739 0 0 1.69739 -661.232 -523.012)"/><use xlink:href="#aj" transform="matrix(1.69739 0 0 1.69739 -661.232 -523.012)"/><use xlink:href="#ak" transform="matrix(1.69739 0 0 1.69739 -661.232 -523.012)"/><use xlink:href="#al" transform="matrix(1.69739 0 0 1.69739 -661.232 -523.012)"/><use xlink:href="#am" transform="matrix(1.69739 0 0 1.69739 -661.232 -523.012)"/><use xlink:href="#an" transform="matrix(1.69739 0 0 1.69739 -661.232 -523.012)"/><use xlink:href="#ao" transform="matrix(1.69739 0 0 1.69739 -661.232 -523.012)"/><use xlink:href="#ap" transform="matrix(1.69739 0 0 1.69739 -661.232 -523.012)"/><use xlink:href="#aq" transform="matrix(1.69739 0 0 1.69739 -661.232 -523.012)"/><use xlink:href="#ar" transform="matrix(1.69739 0 0 1.69739 -661.232 -523.012)"/><use xlink:href="#as" transform="matrix(1.69739 0 0 1.69739 -661.232 -523.012)"/><use xlink:href="#at" transform="matrix(1.69739 0 0 1.69739 -661.232 -523.012)"/><use xlink:href="#au" transform="matrix(1.69739 0 0 1.69739 -661.232 -523.012)"/><use xlink:href="#av" transform="matrix(1.69739 0 0 1.69739 -661.232 -523.012)"/><use xlink:href="#aw" transform="matrix(1.69739 0 0 1.69739 -661.232 -523.012)"/><use xlink:href="#ax" transform="matrix(1.69739 0 0 1.69739 -661.232 -523.012)"/><use xlink:href="#ay" transform="matrix(1.69739 0 0 1.69739 -661.232 -523.012)"/><use xlink:href="#az" transform="matrix(1.69739 0 0 1.69739 -661.232 -523.012)"/><use xlink:href="#aA" transform="matrix(1.69739 0 0 1.69739 -661.232 -523.012)"/></svg>