<svg xmlns="http://www.w3.org/2000/svg" xmlns:xlink="http://www.w3.org/1999/xlink" preserveAspectRatio="none" width="284" height="320"><defs><linearGradient id="a" gradientUnits="userSpaceOnUse" x1="160.738" y1="447.238" x2="109.763" y2="396.262" spreadMethod="pad"><stop offset="0%" stop-color="#0076BD"/><stop offset="100%" stop-color="#00B0F0"/></linearGradient><linearGradient id="b" gradientUnits="userSpaceOnUse" x1="57.962" y1="370.863" x2="201.238" y2="465.338" spreadMethod="pad"><stop offset="0%" stop-color="#CDECFC"/><stop offset="100%" stop-color="#009ADC"/></linearGradient><linearGradient id="c" gradientUnits="userSpaceOnUse" x1="77.413" y1="341.363" x2="220.688" y2="435.838" spreadMethod="pad"><stop offset="0%" stop-color="#CDECFC"/><stop offset="100%" stop-color="#009ADC"/></linearGradient><linearGradient id="d" gradientUnits="userSpaceOnUse" x1="84.263" y1="331.012" x2="227.538" y2="425.488" spreadMethod="pad"><stop offset="0%" stop-color="#CDECFC"/><stop offset="100%" stop-color="#009ADC"/></linearGradient><linearGradient id="e" gradientUnits="userSpaceOnUse" x1="77.163" y1="341.712" x2="220.438" y2="436.188" spreadMethod="pad"><stop offset="0%" stop-color="#CDECFC"/><stop offset="100%" stop-color="#009ADC"/></linearGradient><linearGradient id="f" gradientUnits="userSpaceOnUse" x1="38.513" y1="400.313" x2="181.788" y2="494.788" spreadMethod="pad"><stop offset="0%" stop-color="#CDECFC"/><stop offset="100%" stop-color="#009ADC"/></linearGradient><linearGradient id="g" gradientUnits="userSpaceOnUse" x1="31.662" y1="410.712" x2="174.938" y2="505.188" spreadMethod="pad"><stop offset="0%" stop-color="#CDECFC"/><stop offset="100%" stop-color="#009ADC"/></linearGradient><linearGradient id="h" gradientUnits="userSpaceOnUse" x1="38.763" y1="399.962" x2="182.038" y2="494.438" spreadMethod="pad"><stop offset="0%" stop-color="#CDECFC"/><stop offset="100%" stop-color="#009ADC"/></linearGradient><linearGradient id="i" gradientUnits="userSpaceOnUse" x1="56.562" y1="372.962" x2="199.837" y2="467.438" spreadMethod="pad"><stop offset="0%" stop-color="#CDECFC"/><stop offset="100%" stop-color="#009ADC"/></linearGradient><linearGradient id="j" gradientUnits="userSpaceOnUse" x1="56" y1="373.8" x2="199.3" y2="468.3" spreadMethod="pad"><stop offset="0%" stop-color="#CDECFC"/><stop offset="100%" stop-color="#009ADC"/></linearGradient><linearGradient id="k" gradientUnits="userSpaceOnUse" x1="56.513" y1="373.113" x2="199.788" y2="467.588" spreadMethod="pad"><stop offset="0%" stop-color="#CDECFC"/><stop offset="100%" stop-color="#009ADC"/></linearGradient><linearGradient id="l" gradientUnits="userSpaceOnUse" x1="59.362" y1="368.762" x2="202.637" y2="463.238" spreadMethod="pad"><stop offset="0%" stop-color="#CDECFC"/><stop offset="100%" stop-color="#009ADC"/></linearGradient><linearGradient id="m" gradientUnits="userSpaceOnUse" x1="59.913" y1="367.912" x2="203.188" y2="462.387" spreadMethod="pad"><stop offset="0%" stop-color="#CDECFC"/><stop offset="100%" stop-color="#009ADC"/></linearGradient><linearGradient id="n" gradientUnits="userSpaceOnUse" x1="59.413" y1="368.613" x2="202.688" y2="463.088" spreadMethod="pad"><stop offset="0%" stop-color="#CDECFC"/><stop offset="100%" stop-color="#009ADC"/></linearGradient><linearGradient id="o" gradientUnits="userSpaceOnUse" x1="78.763" y1="339.262" x2="222.038" y2="433.738" spreadMethod="pad"><stop offset="0%" stop-color="#CDECFC"/><stop offset="100%" stop-color="#009ADC"/></linearGradient><linearGradient id="p" gradientUnits="userSpaceOnUse" x1="85.65" y1="328.8" x2="228.95" y2="423.3" spreadMethod="pad"><stop offset="0%" stop-color="#CDECFC"/><stop offset="100%" stop-color="#009ADC"/></linearGradient><linearGradient id="q" gradientUnits="userSpaceOnUse" x1="77.913" y1="340.662" x2="221.188" y2="435.137" spreadMethod="pad"><stop offset="0%" stop-color="#CDECFC"/><stop offset="100%" stop-color="#009ADC"/></linearGradient><linearGradient id="r" gradientUnits="userSpaceOnUse" x1="37.162" y1="402.412" x2="180.438" y2="496.887" spreadMethod="pad"><stop offset="0%" stop-color="#CDECFC"/><stop offset="100%" stop-color="#009ADC"/></linearGradient><linearGradient id="s" gradientUnits="userSpaceOnUse" x1="30.25" y1="412.9" x2="173.55" y2="507.4" spreadMethod="pad"><stop offset="0%" stop-color="#CDECFC"/><stop offset="100%" stop-color="#009ADC"/></linearGradient><linearGradient id="t" gradientUnits="userSpaceOnUse" x1="38.063" y1="401.063" x2="181.338" y2="495.538" spreadMethod="pad"><stop offset="0%" stop-color="#CDECFC"/><stop offset="100%" stop-color="#009ADC"/></linearGradient><linearGradient id="u" gradientUnits="userSpaceOnUse" x1="83.25" y1="385.538" x2="83.25" y2="400.962" spreadMethod="pad"><stop offset="0%" stop-color="#FFF"/><stop offset="100%" stop-color="#CDECFC"/></linearGradient><linearGradient id="v" gradientUnits="userSpaceOnUse" x1="97.05" y1="390.5" x2="97.05" y2="412.9" spreadMethod="pad"><stop offset="0%" stop-color="#FFF"/><stop offset="100%" stop-color="#B6E4FA"/></linearGradient><linearGradient id="w" gradientUnits="userSpaceOnUse" x1="92.6" y1="455.488" x2="73.6" y2="433.613" spreadMethod="pad"><stop offset="0%" stop-color="#9DDCF9"/><stop offset="100%" stop-color="#FFF"/></linearGradient><linearGradient id="x" gradientUnits="userSpaceOnUse" x1="105.975" y1="444.837" x2="86.525" y2="422.462" spreadMethod="pad"><stop offset="0%" stop-color="#9DDCF9"/><stop offset="100%" stop-color="#FFF"/></linearGradient><linearGradient id="y" gradientUnits="userSpaceOnUse" x1="130.2" y1="432.513" x2="130.2" y2="411.188" spreadMethod="pad"><stop offset="0%" stop-color="#9DDCF9"/><stop offset="100%" stop-color="#CDECFC"/></linearGradient><linearGradient id="z" gradientUnits="userSpaceOnUse" x1="152.45" y1="366.3" x2="115.25" y2="366.3" spreadMethod="pad"><stop offset="0%" stop-color="#9DDCF9"/><stop offset="100%" stop-color="#FFF"/></linearGradient><linearGradient id="A" gradientUnits="userSpaceOnUse" x1="152.45" y1="383.9" x2="114.55" y2="383.9" spreadMethod="pad"><stop offset="0%" stop-color="#9DDCF9"/><stop offset="100%" stop-color="#FFF"/></linearGradient><path fill="#FFF" fill-opacity="0" d="M284 0H0v320h284V0z" id="B"/><path fill="url(#a)" d="M72.6 389.05q.15 3.15 2.85 4.7l3.8 2.25-2.3.55q-2.3.6-3.45 2.65-1.15 2.05-.5 4.25.55 2.3 2.6 3.45 2 1.2 4.3.6l13.15-3.55 3.4 1.95-9.7 2.6q-2.25.6-3.4 2.65-1.15 2-.6 4.25.6 2.3 2.65 3.45 2 1.2 4.3.6l20.65-5.55 5.75 3.3q-.5 2.2-.5 4.55 0 2.5.5 4.55l-5.75 3.3-20.65-5.55q-2.3-.6-4.3.6-2.05 1.15-2.65 3.45-.55 2.25.6 4.3 1.15 2 3.4 2.6l9.7 2.6-3.4 1.95L79.9 436q-2.3-.6-4.3.6-2.05 1.15-2.6 3.45-.65 2.25.5 4.3 1.15 2 3.45 2.6l2.3.6-3.8 2.2q-2.7 1.55-2.85 4.7v.45q0 1.3.75 2.55 1.15 2.05 3.45 2.65 2.25.6 4.3-.55l3.75-2.25-.55 2.35q-.6 2.25.55 4.3 1.2 2 3.4 2.6 2.25.6 4.3-.55t2.7-3.4l3.5-13.25 3.4-1.95-2.6 9.7q-.65 2.3.55 4.3 1.15 2.05 3.4 2.6 2.3.7 4.3-.5 2.05-1.15 2.6-3.45l5.55-20.65 5.85-3.3q3.45 3.2 7.85 4.5v6.7l-15.15 15.05q-1.65 1.7-1.65 4.05 0 2.35 1.65 4.05 1.7 1.6 4 1.6 2.35 0 4-1.6l7.15-7.15v3.9l-9.65 9.65q-1.7 1.65-1.7 4t1.7 4.05q1.6 1.6 3.95 1.6t4.05-1.6l1.65-1.65v4.3q0 2.35 1.65 4 1.65 1.7 3.95 1.7 2.4 0 4.05-1.7 1.65-1.65 1.65-4v-4.3l1.65 1.65q1.7 1.6 4 1.6t4-1.6q1.7-1.7 1.7-4.05 0-2.35-1.7-4l-9.65-9.65v-3.9l7.15 7.15q1.6 1.6 3.95 1.6t4-1.6q1.7-1.7 1.7-4.05 0-2.35-1.7-4.05l-15.1-15.05v-6.7q4.25-1.3 7.85-4.5l5.75 3.3 5.55 20.65q.65 2.3 2.7 3.45 2 1.15 4.3.5 2.2-.55 3.4-2.6 1.15-2 .55-4.3l-2.6-9.7 3.4 1.95 3.5 13.25q.6 2.25 2.65 3.4 2 1.15 4.25.55 2.3-.6 3.45-2.6 1.2-2.05.6-4.3l-.65-2.35 3.85 2.25q2 1.15 4.25.55 2.3-.6 3.45-2.65.65-1 .75-2.55v-.45q-.1-3.15-2.8-4.7l-3.8-2.2 2.3-.6q2.2-.6 3.4-2.6 1.15-2.05.55-4.3-.6-2.3-2.6-3.45-2.05-1.2-4.3-.6l-13.25 3.55-3.4-1.95 9.75-2.6q2.25-.6 3.45-2.6 1.15-2.05.55-4.3-.55-2.3-2.6-3.45-2-1.2-4.3-.6l-20.65 5.55-5.75-3.3q.5-3 .5-4.55 0-1.45-.5-4.55l5.75-3.3 20.65 5.55q2.3.6 4.3-.6 2.05-1.15 2.6-3.45.6-2.2-.55-4.25-1.2-2.05-3.45-2.65l-9.75-2.6 3.4-1.95 13.25 3.55q2.25.6 4.3-.6 2-1.15 2.6-3.45.6-2.2-.55-4.25-1.2-2.05-3.4-2.65l-2.3-.55 3.8-2.25q2.7-1.55 2.8-4.6v-.5q-.1-1.45-.75-2.6-1.15-2-3.45-2.6-2.25-.6-4.25.6l-3.85 2.15.65-2.3q.6-2.3-.6-4.3-1.15-2.05-3.45-2.65-2.25-.55-4.25.6-2.05 1.2-2.65 3.45l-3.5 13.2-3.4 1.95 2.6-9.75q.6-2.25-.55-4.25-1.2-2.05-3.4-2.65-2.3-.6-4.3.55-2.05 1.2-2.7 3.4l-5.55 20.65-5.75 3.4q-3.4-3.15-7.85-4.6v-6.65l15.1-15.1q1.7-1.7 1.7-4.05 0-2.35-1.7-3.95-1.65-1.7-4-1.7t-3.95 1.7l-7.15 7.05v-3.9l9.65-9.6q1.7-1.7 1.7-4.05 0-2.35-1.7-3.95-1.6-1.7-3.95-1.7t-4.05 1.7l-1.65 1.65v-4.4q0-2.35-1.65-3.95-1.65-1.65-4.05-1.65-2.3 0-3.95 1.65-1.65 1.65-1.65 3.95v4.4L128 358.7q-1.7-1.7-4.05-1.7-2.35 0-3.95 1.7-1.7 1.6-1.7 3.95t1.7 4.05l9.65 9.6v3.9l-7.15-7.05q-1.65-1.7-4-1.7-2.3 0-4 1.7-1.65 1.6-1.65 3.95t1.65 4.05l15.15 15.1v6.7q-4.65 1.4-7.85 4.55l-5.85-3.4-5.55-20.65q-.55-2.2-2.6-3.4-2-1.15-4.3-.55-2.25.6-3.4 2.65-1.2 2-.55 4.25l2.6 9.75-3.4-1.95-3.5-13.2q-.65-2.25-2.7-3.45-2.05-1.15-4.3-.6-2.2.6-3.4 2.65-1.15 2-.55 4.3l.55 2.3-3.75-2.15q-2-1.2-4.3-.6t-3.45 2.6q-.75 1.4-.75 2.6v.4m56.75 26.8q2.45-2.45 5.9-2.45 3.4 0 6 2.45 2.45 2.6 2.45 5.9 0 3.45-2.45 5.9-2.6 2.45-6 2.45-3.45 0-5.9-2.45t-2.45-5.9q0-3.45 2.45-5.9z" id="C"/><path fill="url(#b)" d="M151.15 412.65q-1.55-3.55-4.3-6.25-2.7-2.75-6.25-4.2-3.65-1.55-7.65-1.55t-7.65 1.55q-3.55 1.45-6.25 4.2-2.75 2.75-4.25 6.3-1.55 3.6-1.55 7.6 0 4 1.55 7.65 1.5 3.5 4.2 6.25 5.85 5.75 13.95 5.75 4 0 7.65-1.55 3.55-1.5 6.25-4.2 2.75-2.75 4.3-6.25 1.55-3.7 1.55-7.65 0-4-1.55-7.65m-26.6 7.65q0-3.55 2.45-5.9 2.45-2.45 5.95-2.45 3.45 0 5.9 2.45t2.45 5.9q0 3.35-2.45 5.9-2.35 2.45-5.9 2.45-3.55 0-5.9-2.45-2.4-2.5-2.5-5.9z" id="D"/><path fill="url(#c)" d="M138.65 354.5q0-2.35-1.7-4.05-1.65-1.65-4-1.65t-4.05 1.65q-1.65 1.7-1.65 4.05v47q0 2.35 1.65 4 1.7 1.7 4.05 1.7 2.35 0 4-1.7 1.7-1.65 1.7-4v-47z" id="E"/><path fill="url(#d)" d="M117.6 357.15q-1.65 1.7-1.65 4.05 0 2.35 1.65 4.05l11.3 11.3q1.55 1.5 4.05 1.5t3.95-1.5l11.4-11.3q1.6-1.7 1.6-4.05 0-2.35-1.6-4.05-1.7-1.6-4.05-1.6-2.35 0-3.95 1.6l-7.35 7.35-7.35-7.35q-1.6-1.6-3.95-1.6t-4.05 1.6z" id="F"/><path fill="url(#e)" d="M120.2 371.65q-1.65-1.6-4-1.6t-4.05 1.6q-1.6 1.7-1.6 4.05 0 2.35 1.6 4l16.75 16.7q1.55 1.55 4.05 1.55t3.95-1.55l16.8-16.7q1.65-1.65 1.65-4t-1.65-4.05q-1.6-1.6-3.95-1.6t-4.05 1.6l-12.75 12.8-12.75-12.8z" id="G"/><path fill="url(#f)" d="M138.65 439.1q0-2.35-1.7-4.05-1.65-1.65-4-1.65t-4.05 1.65q-1.65 1.7-1.65 4.05v47q0 2.35 1.65 4 1.7 1.65 4.05 1.65 2.35 0 4-1.65 1.7-1.7 1.7-4v-47z" id="H"/><path fill="url(#g)" d="M115.95 479.4q0 2.3 1.65 4 1.7 1.65 4.05 1.65 2.35 0 3.95-1.65l7.35-7.3 7.35 7.3q1.6 1.65 3.95 1.65t4.05-1.65q1.6-1.7 1.6-4t-1.6-4l-11.4-11.3q-1.45-1.5-3.95-1.5t-4.05 1.5l-11.3 11.3q-1.65 1.7-1.65 4z" id="I"/><path fill="url(#h)" d="M136.9 444.15q-1.45-1.5-3.95-1.5t-4.05 1.5l-16.75 16.8q-1.6 1.65-1.6 4t1.6 3.95q1.7 1.7 4.05 1.7 2.35 0 4-1.7l12.75-12.75 12.75 12.75q1.7 1.7 4.05 1.7 2.35 0 3.95-1.7 1.65-1.6 1.65-3.95t-1.65-4l-16.8-16.8z" id="J"/><path fill="url(#i)" d="M78.75 382.5q-2-1.15-4.25-.55-2.3.6-3.45 2.65-1.2 2-.6 4.25.6 2.3 2.65 3.45l40.7 23.55q2.05 1.15 4.35.55 2.25-.65 3.45-2.65 1.15-2 .5-4.3-.6-2.25-2.6-3.4L78.75 382.5z" id="K"/><path fill="url(#j)" d="M97.05 394.95l-4.2-15.45q-.6-2.3-2.6-3.45-2.05-1.15-4.3-.5-2.3.55-3.45 2.6-1.2 2-.6 4.3l2.75 10-10 2.65q-2.3.6-3.45 2.65-1.2 2-.6 4.3.6 2.25 2.65 3.45 2 1.15 4.25.55L93 401.9q2.05-.55 3.3-2.7 1.3-2.2.75-4.25z" id="L"/><path fill="url(#k)" d="M108.1 382q-.6-2.25-2.6-3.4-2-1.2-4.3-.55-2.25.6-3.45 2.65-1.15 2-.6 4.25l4.7 17.45-17.4 4.65q-2.3.6-3.45 2.65-1.2 2-.6 4.3.6 2.25 2.65 3.45 2.05 1.15 4.25.55l22.95-6.2q2.05-.5 3.3-2.7 1.25-2.15.7-4.2L108.1 382z" id="M"/><path fill="url(#l)" d="M187.1 458.05q2.05 1.2 4.35.6 2.25-.6 3.4-2.6 1.15-2.05.55-4.3-.6-2.3-2.6-3.45l-40.75-23.5q-2-1.2-4.3-.6-2.25.6-3.4 2.65-1.2 2-.6 4.3.6 2.25 2.65 3.4l40.7 23.5z" id="N"/><path fill="url(#m)" d="M194.7 442.85q1.2-2.05.6-4.3-.65-2.2-2.65-3.4-2.05-1.15-4.35-.6l-15.4 4.15q-2.05.55-3.3 2.75t-.7 4.2l4.15 15.4q.6 2.3 2.65 3.45 2 1.2 4.25.6 2.3-.6 3.45-2.6 1.2-2.05.55-4.3l-2.7-10 10-2.7q2.3-.65 3.45-2.65z" id="O"/><path fill="url(#n)" d="M164.05 438.25l17.45-4.7q2.25-.6 3.4-2.65 1.2-2.05.55-4.25-.6-2.25-2.6-3.45-2.05-1.15-4.3-.6l-22.9 6.15q-2.05.55-3.3 2.7-1.25 2.15-.65 4.2l6.1 22.9q.6 2.25 2.65 3.45 2 1.15 4.25.6 2.3-.6 3.45-2.65 1.2-2 .6-4.3l-4.7-17.4z" id="P"/><path fill="url(#o)" d="M192.8 392.3q2-1.15 2.6-3.45.6-2.25-.55-4.25-1.15-2.05-3.4-2.65-2.25-.6-4.35.55l-40.7 23.55q-2.05 1.15-2.65 3.4-.6 2.3.6 4.3 1.15 2 3.4 2.65 2.25.6 4.3-.55l40.75-23.55z" id="Q"/><path fill="url(#p)" d="M173.05 379.5l-4.15 15.45q-.55 2.05.7 4.25 1.25 2.15 3.3 2.7l15.4 4.15q2.3.6 4.35-.55 2-1.2 2.65-3.45.6-2.3-.6-4.3-1.15-2.05-3.45-2.65l-10-2.65 2.7-10q.65-2.3-.55-4.3-1.15-2.05-3.45-2.6-2.25-.65-4.25.5-2.05 1.15-2.65 3.45z" id="R"/><path fill="url(#q)" d="M160.45 378.6q-2.05 1.15-2.65 3.4l-6.1 22.9q-.6 2.05.65 4.2 1.25 2.2 3.3 2.7l22.9 6.2q2.25.6 4.3-.55 2-1.2 2.6-3.45.65-2.3-.55-4.3-1.15-2.05-3.4-2.65l-17.45-4.65 4.7-17.45q.6-2.25-.6-4.25-1.15-2.05-3.45-2.65-2.25-.65-4.25.55z" id="S"/><path fill="url(#r)" d="M122.1 431.15q.65-2.3-.5-4.3-1.2-2.05-3.45-2.65-2.3-.6-4.35.6l-40.7 23.5q-2.05 1.15-2.65 3.45-.6 2.25.6 4.3 1.15 2 3.45 2.6 2.25.6 4.25-.6l40.75-23.5q2-1.15 2.6-3.4z" id="T"/><path fill="url(#s)" d="M96.3 441.45q-1.25-2.2-3.3-2.75l-15.5-4.15q-2.25-.55-4.25.6-2.05 1.2-2.65 3.4-.6 2.25.6 4.3 1.15 2 3.45 2.65l10 2.7-2.75 10q-.6 2.25.6 4.3 1.15 2 3.45 2.6 2.25.6 4.3-.6 2-1.15 2.6-3.45l4.2-15.4q.55-2.05-.75-4.2z" id="U"/><path fill="url(#t)" d="M84.45 433.55l17.4 4.7-4.7 17.4q-.55 2.3.6 4.3 1.2 2.05 3.45 2.65 2.3.55 4.3-.6 2-1.2 2.6-3.45l6.15-22.9q.55-2.05-.7-4.2-1.25-2.15-3.3-2.7L87.3 422.6q-2.2-.55-4.25.6-2.05 1.2-2.65 3.45-.6 2.2.6 4.25 1.15 2.05 3.45 2.65z" id="V"/><path fill="url(#u)" d="M86.75 378.35l2.7 16.5-15.9 6.25 19.35-4.05-6.15-18.7z" id="W"/><path fill="url(#v)" d="M106.05 404.75l-22.7 8 27.45-5.05-8.45-26.5 3.7 23.55z" id="X"/><path fill="url(#w)" d="M89.45 445.15l-2.7 16.5 6.15-18.7-19.35-4.05 15.9 6.25z" id="Y"/><path fill="url(#x)" d="M83.35 427.3l22.7 8-3.7 23.45 8.45-26.5-27.45-4.95z" id="Z"/><path fill="#63CDF6" d="M176.45 394.85l2.75-16.5-6.15 18.7 19.4 4.05-16-6.25z" id="aa"/><path fill="#63CDF6" d="M182.55 412.75l-22.65-8 3.65-23.55-8.4 26.5 27.4 5.05z" id="ab"/><path fill="#00BAF2" d="M176.45 445.15l16-6.25-19.4 4.05 6.15 18.7-2.75-16.5z" id="ac"/><path fill="#00BAF2" d="M155.15 432.25l8.4 26.5-3.65-23.45 22.65-8-27.4 4.95z" id="ad"/><path fill="url(#y)" d="M132.95 404.7q-6.5 0-11.1 4.6-4.6 4.55-4.6 11 0 4.2 2.15 7.8 2.05 3.5 5.55 5.6-2.55-2.2-3.95-5.2-1.45-3.1-1.45-6.6 0-6.4 4.6-11t11.05-4.6q4.15 0 8 2.2-4.45-3.8-10.25-3.8z" id="ae"/><path fill="#00BAF2" d="M132.8 471.8l13.4 10.65-13.25-14.7-13.1 14.7 12.95-10.65z" id="af"/><path fill="#3BC6F4" d="M133.1 452.5l18.2 15.7-18-21.3-18.7 20.6 18.5-15z" id="ag"/><path fill="url(#z)" d="M146.2 358.9l-13.4 10.75-12.95-10.7 13.1 14.7 13.25-14.75z" id="ah"/><path fill="url(#A)" d="M151.3 373.25l-18.2 15.6-18.5-14.9 18.7 20.6 18-21.3z" id="ai"/><path fill="#83D4F7" d="M145.85 412.8q1.45 3.15 1.45 6.65 0 6.4-4.6 11-4.55 4.55-11.05 4.55-4.35 0-8-2.15 4.45 3.8 10.25 3.8 6.5 0 11.1-4.6 4.6-4.55 4.6-10.95 0-4.2-2.1-7.85-2.05-3.5-5.6-5.7 2.55 2.2 3.95 5.25z" id="aj"/></defs><use xlink:href="#B"/><use xlink:href="#C" transform="matrix(1.85477 0 0 1.8548 -106.647 -600.903)"/><use xlink:href="#D" transform="matrix(1.85477 0 0 1.8548 -106.647 -600.903)"/><use xlink:href="#E" transform="matrix(1.85477 0 0 1.8548 -106.647 -600.903)"/><use xlink:href="#F" transform="matrix(1.85477 0 0 1.8548 -106.647 -600.903)"/><use xlink:href="#G" transform="matrix(1.85477 0 0 1.8548 -106.647 -600.903)"/><use xlink:href="#H" transform="matrix(1.85477 0 0 1.8548 -106.647 -600.903)"/><use xlink:href="#I" transform="matrix(1.85477 0 0 1.8548 -106.647 -600.903)"/><use xlink:href="#J" transform="matrix(1.85477 0 0 1.8548 -106.647 -600.903)"/><use xlink:href="#K" transform="matrix(1.85477 0 0 1.8548 -106.647 -600.903)"/><use xlink:href="#L" transform="matrix(1.85477 0 0 1.8548 -106.647 -600.903)"/><use xlink:href="#M" transform="matrix(1.85477 0 0 1.8548 -106.647 -600.903)"/><use xlink:href="#N" transform="matrix(1.85477 0 0 1.8548 -106.647 -600.903)"/><use xlink:href="#O" transform="matrix(1.85477 0 0 1.8548 -106.647 -600.903)"/><use xlink:href="#P" transform="matrix(1.85477 0 0 1.8548 -106.647 -600.903)"/><use xlink:href="#Q" transform="matrix(1.85477 0 0 1.8548 -106.647 -600.903)"/><use xlink:href="#R" transform="matrix(1.85477 0 0 1.8548 -106.647 -600.903)"/><use xlink:href="#S" transform="matrix(1.85477 0 0 1.8548 -106.647 -600.903)"/><use xlink:href="#T" transform="matrix(1.85477 0 0 1.8548 -106.647 -600.903)"/><use xlink:href="#U" transform="matrix(1.85477 0 0 1.8548 -106.647 -600.903)"/><use xlink:href="#V" transform="matrix(1.85477 0 0 1.8548 -106.647 -600.903)"/><use xlink:href="#W" transform="matrix(1.85477 0 0 1.8548 -106.647 -600.903)"/><use xlink:href="#X" transform="matrix(1.85477 0 0 1.8548 -106.647 -600.903)"/><use xlink:href="#Y" transform="matrix(1.85477 0 0 1.8548 -106.647 -600.903)"/><use xlink:href="#Z" transform="matrix(1.85477 0 0 1.8548 -106.647 -600.903)"/><use xlink:href="#aa" transform="matrix(1.85477 0 0 1.8548 -106.647 -600.903)"/><use xlink:href="#ab" transform="matrix(1.85477 0 0 1.8548 -106.647 -600.903)"/><use xlink:href="#ac" transform="matrix(1.85477 0 0 1.8548 -106.647 -600.903)"/><use xlink:href="#ad" transform="matrix(1.85477 0 0 1.8548 -106.647 -600.903)"/><use xlink:href="#ae" transform="matrix(1.85477 0 0 1.8548 -106.647 -600.903)"/><use xlink:href="#af" transform="matrix(1.85477 0 0 1.8548 -106.647 -600.903)"/><use xlink:href="#ag" transform="matrix(1.85477 0 0 1.8548 -106.647 -600.903)"/><use xlink:href="#ah" transform="matrix(1.85477 0 0 1.8548 -106.647 -600.903)"/><use xlink:href="#ai" transform="matrix(1.85477 0 0 1.8548 -106.647 -600.903)"/><use xlink:href="#aj" transform="matrix(1.85477 0 0 1.8548 -106.647 -600.903)"/></svg>