<svg xmlns="http://www.w3.org/2000/svg" xmlns:xlink="http://www.w3.org/1999/xlink" preserveAspectRatio="none" width="284" height="320"><defs><linearGradient id="a" gradientUnits="userSpaceOnUse" x1="0" y1="-177.475" x2="0" y2="177.475" spreadMethod="pad"><stop offset="0%" stop-color="#003"/><stop offset="45.49%" stop-color="#01016D"/><stop offset="100%" stop-color="#010298"/></linearGradient><linearGradient id="b" gradientUnits="userSpaceOnUse" x1="-5.5" y1="287.95" x2="285" y2="287.95" spreadMethod="pad"><stop offset="0%" stop-color="#CCC"/><stop offset="100%" stop-color="#FFF"/></linearGradient><linearGradient id="c" gradientUnits="userSpaceOnUse" x1="-111.037" y1="54.063" x2="-79.063" y2="20.537" spreadMethod="pad"><stop offset="28.627%" stop-color="#94D3DA"/><stop offset="100%" stop-color="#FFF"/></linearGradient><linearGradient id="d" gradientUnits="userSpaceOnUse" x1="-95.362" y1="-12.325" x2="-67.638" y2="88.825" spreadMethod="pad"><stop offset="0%" stop-color="#94D3DA"/><stop offset="100%" stop-color="#FFF"/></linearGradient><linearGradient id="e" gradientUnits="userSpaceOnUse" x1="-98.787" y1="-31.3" x2="-75.813" y2="-12.8" spreadMethod="pad"><stop offset="0%" stop-color="#94D3DA"/><stop offset="100%" stop-color="#FFF"/></linearGradient><path fill="url(#a)" d="M-275-200v400h550v-400h-550z" id="g"/><g id="i"><path fill="#FFF" d="M198.4 239.5h-.1q-.8 0-1.4.55-.55.6-.55 1.45t.55 1.4q.6.6 1.45.6t1.4-.6q.6-.55.6-1.4 0-.85-.6-1.45-.55-.55-1.35-.55m-27.55 6q0-.85-.6-1.45-.55-.55-1.35-.55h-.1q-.8 0-1.4.55-.55.6-.55 1.45t.55 1.4q.6.6 1.45.6t1.4-.6q.6-.55.6-1.4m8.05-25.45q-.55.6-.55 1.45t.55 1.4q.6.6 1.45.6t1.4-.6q.6-.55.6-1.4 0-.85-.6-1.45-.55-.55-1.35-.55h-.1q-.8 0-1.4.55m-8.6-14.55q-.8 0-1.4.55-.55.6-.55 1.45t.55 1.4q.6.6 1.45.6t1.4-.6q.6-.55.6-1.4 0-.85-.6-1.45-.55-.55-1.35-.55h-.1m28 13.5q-.8 0-1.4.55-.55.6-.55 1.45t.55 1.4q.6.6 1.45.6t1.4-.6q.6-.55.6-1.4 0-.85-.6-1.45-.55-.55-1.35-.55h-.1m41.05 8q0-.85-.6-1.45-.55-.55-1.35-.55h-.1q-.8 0-1.4.55-.55.6-.55 1.45t.55 1.4q.6.6 1.45.6t1.4-.6q.6-.55.6-1.4m-18.4 13.25l-.2-.2q-.55-.55-1.35-.55h-.1q-.8 0-1.4.55-.55.6-.55 1.45t.55 1.4q.6.6 1.45.6t1.4-.6q.11-.101.2-.2.4-.506.4-1.2t-.4-1.25m-9.45-22.8q.17.05.35.05.85 0 1.4-.6.6-.55.6-1.4 0-.85-.6-1.45-.55-.55-1.35-.55h-.4q-.615.106-1.1.55-.55.6-.55 1.45t.55 1.4q.472.472 1.1.55m2.8-13.45q-.8 0-1.4.55-.55.6-.55 1.45t.55 1.4q.6.6 1.45.6t1.4-.6q.6-.55.6-1.4 0-.85-.6-1.45-.55-.55-1.35-.55h-.1m64.6 49.5h-.1q-.8 0-1.4.55-.55.6-.55 1.45t.55 1.4q.6.6 1.45.6t1.4-.6q.6-.55.6-1.4 0-.85-.6-1.45-.55-.55-1.35-.55m1.95-18.5q0-.85-.6-1.45-.55-.55-1.35-.55h-.1q-.8 0-1.4.55-.55.6-.55 1.45t.55 1.4q.6.6 1.45.6t1.4-.6q.6-.55.6-1.4m-19.5 9.5q0 .85.55 1.4.6.6 1.45.6t1.4-.6q.6-.55.6-1.4 0-.85-.6-1.45-.55-.55-1.35-.55h-.1q-.8 0-1.4.55-.55.6-.55 1.45m-16.6 2.4q.142-.13.25-.3.35-.451.35-1.1t-.35-1.15q-.108-.158-.25-.3-.55-.55-1.35-.55h-.1q-.8 0-1.4.55-.55.6-.55 1.45t.55 1.4q.6.6 1.45.6t1.4-.6M255.9 225h-.1q-.8 0-1.4.55-.55.6-.55 1.45t.55 1.4q.6.6 1.45.6t1.4-.6q.6-.55.6-1.4 0-.85-.6-1.45-.55-.55-1.35-.55m-8.5-21h-.1q-.8 0-1.4.55-.55.6-.55 1.45t.55 1.4q.6.6 1.45.6t1.4-.6q.6-.55.6-1.4 0-.85-.6-1.45-.55-.55-1.35-.55m23.35 4.05q-.55-.55-1.35-.55h-.1q-.8 0-1.4.55-.55.6-.55 1.45t.55 1.4q.6.6 1.45.6t1.4-.6q.6-.55.6-1.4 0-.85-.6-1.45m-268.25 50q0-.85-.6-1.45-.55-.55-1.4-.55-.85 0-1.45.55-.55.6-.55 1.45t.55 1.4q.6.6 1.45.6t1.4-.6q.6-.55.6-1.4m13.4-1.55q.6-.55.6-1.4 0-.85-.6-1.45-.55-.55-1.4-.55-.85 0-1.45.55-.55.6-.55 1.45t.55 1.4q.6.6 1.45.6t1.4-.6m2.6-11q0 .85.55 1.4.6.6 1.45.6t1.4-.6q.6-.55.6-1.4 0-.85-.6-1.45-.55-.55-1.4-.55-.85 0-1.45.55-.55.6-.55 1.45m-3.5-8q0-.85-.6-1.45-.55-.55-1.4-.55-.85 0-1.45.55-.55.6-.55 1.45t.55 1.4q.6.6 1.45.6t1.4-.6q.6-.55.6-1.4m-13.1 6.9q.6-.55.6-1.4 0-.85-.6-1.45-.55-.55-1.4-.55-.85 0-1.45.55-.55.6-.55 1.45t.55 1.4q.6.6 1.45.6t1.4-.6M9 219.5q-.85 0-1.45.55-.55.6-.55 1.45t.55 1.4q.6.6 1.45.6t1.4-.6q.6-.55.6-1.4 0-.85-.6-1.45-.55-.55-1.4-.55M3.5 208q.85 0 1.4-.6.6-.55.6-1.4 0-.85-.6-1.45-.55-.55-1.4-.55-.85 0-1.45.55-.55.6-.55 1.45t.55 1.4q.6.6 1.45.6m19 13.5q0-.85-.6-1.45-.55-.55-1.4-.55-.85 0-1.45.55-.55.6-.55 1.45t.55 1.4q.6.6 1.45.6t1.4-.6q.6-.55.6-1.4m20.45 11h3.9q.05-.25.05-.5 0-.85-.6-1.45-.55-.55-1.35-.55h-.1q-.8 0-1.4.55-.55.6-.55 1.45 0 .25.05.5m16.4-7.5q0 .85.55 1.4.6.6 1.45.6t1.4-.6q.6-.55.6-1.4 0-.85-.6-1.45-.55-.55-1.35-.55h-.1q-.8 0-1.4.55-.55.6-.55 1.45m-12.5-12q0-.85-.6-1.45-.55-.55-1.35-.55h-.1q-.8 0-1.4.55-.55.6-.55 1.45t.55 1.4q.6.6 1.45.6t1.4-.6q.6-.55.6-1.4m-4.4-13.5q-.8 0-1.4.55-.55.6-.55 1.45t.55 1.4q.6.6 1.45.6t1.4-.6q.6-.55.6-1.4 0-.85-.6-1.45-.55-.55-1.35-.55h-.1m27.3 12.05q-.55-.55-1.35-.55h-.1q-.8 0-1.4.55-.55.6-.55 1.45t.55 1.4q.6.6 1.45.6t1.4-.6q.6-.55.6-1.4 0-.85-.6-1.45m59.2 44.5q-.8 0-1.4.55-.55.6-.55 1.45v.25q.094.694.55 1.15.6.6 1.45.6t1.4-.6q.6-.55.6-1.4 0-.338-.1-.65-.138-.438-.5-.8-.55-.55-1.35-.55h-.1m-37.1-2q0-.85-.6-1.45-.55-.55-1.35-.55h-.1q-.8 0-1.4.55-.55.6-.55 1.45t.55 1.4q.6.6 1.45.6t1.4-.6q.6-.55.6-1.4m18.95-14q-.8 0-1.4.55-.55.6-.55 1.45t.55 1.4q.6.6 1.45.6t1.4-.6q.6-.55.6-1.4 0-.85-.6-1.45-.55-.55-1.35-.55h-.1m-25.95 4q0-.85-.6-1.45-.55-.55-1.35-.55h-.1q-.8 0-1.4.55-.55.6-.55 1.45t.55 1.4q.6.6 1.45.6t1.4-.6q.6-.55.6-1.4m-.6-16.1q.6-.55.6-1.4 0-.85-.6-1.45-.55-.55-1.4-.55-.85 0-1.45.55-.55.6-.55 1.45t.55 1.4q.6.6 1.45.6t1.4-.6m19-7.5q.6-.55.6-1.4 0-.85-.6-1.45-.55-.55-1.4-.55-.85 0-1.45.55-.55.6-.55 1.45t.55 1.4q.6.6 1.45.6t1.4-.6m30.2 26.05q.121.521.5.9.6.6 1.45.6t1.4-.6q.413-.379.55-.9h-3.9M89 122.3v-1.6q-.15.35-.15.8 0 .45.15.8m7.95-19.05q.246-.127.45-.35.6-.55.6-1.4 0-.85-.6-1.45-.204-.204-.45-.35-.416-.2-.95-.2-.85 0-1.45.55-.55.6-.55 1.45t.55 1.4q.6.6 1.45.6.534 0 .95-.25m19.3 7.65q.6-.55.6-1.4 0-.85-.6-1.45-.55-.55-1.4-.55-.85 0-1.45.55-.55.6-.55 1.45t.55 1.4q.6.6 1.45.6t1.4-.6m29 17.65q-.55-.55-1.4-.55-.85 0-1.45.55-.55.6-.55 1.45t.55 1.4q.6.6 1.45.6t1.4-.6q.6-.55.6-1.4 0-.85-.6-1.45m-21.35-7.5q-.55-.55-1.4-.55-.85 0-1.45.55-.55.6-.55 1.45t.55 1.4q.6.6 1.45.6t1.4-.6q.6-.55.6-1.4 0-.85-.6-1.45m28.95-19.55q0 .85.55 1.4.6.6 1.45.6t1.4-.6q.6-.55.6-1.4 0-.85-.6-1.45-.55-.55-1.4-.55-.85 0-1.45.55-.55.6-.55 1.45M61.9 196.05q-.55.6-.55 1.45t.55 1.4q.6.6 1.45.6t1.4-.6q.6-.55.6-1.4 0-.85-.6-1.45-.55-.55-1.35-.55h-.1q-.8 0-1.4.55m-16-25.5q-.55.6-.55 1.45t.55 1.4q.6.6 1.45.6t1.4-.6q.6-.55.6-1.4 0-.85-.6-1.45-.55-.55-1.4-.55-.85 0-1.45.55M45.5 153q-.85 0-1.45.55-.55.6-.55 1.45t.55 1.4q.6.6 1.45.6t1.4-.6q.6-.55.6-1.4 0-.85-.6-1.45-.55-.55-1.4-.55m22.85 10.5q-.8 0-1.4.5l-.05.05q-.55.6-.55 1.45t.55 1.4q.6.6 1.45.6t1.4-.6q.6-.55.6-1.4 0-.85-.6-1.45l-.05-.05q-.55-.5-1.35-.5m11.5-8.5q0 .85.55 1.4.6.6 1.45.6t1.4-.6q.6-.55.6-1.4 0-.85-.6-1.45-.55-.55-1.35-.55h-.1q-.8 0-1.4.55-.55.6-.55 1.45m-55.8 22.4q.6.6 1.45.6t1.4-.6q.6-.55.6-1.4 0-.85-.6-1.45-.55-.55-1.4-.55-.85 0-1.45.55-.55.6-.55 1.45t.55 1.4m-5 9.65q-.55.6-.55 1.45t.55 1.4q.6.6 1.45.6t1.4-.6q.6-.55.6-1.4 0-.85-.6-1.45-.55-.55-1.4-.55-.85 0-1.45.55M.4 188.4q.6-.55.6-1.4 0-.85-.6-1.45Q-.15 185-1 185q-.85 0-1.45.55-.55.6-.55 1.45t.55 1.4q.6.6 1.45.6t1.4-.6M11 176q0-.85-.6-1.45Q9.85 174 9 174q-.85 0-1.45.55-.55.6-.55 1.45t.55 1.4q.6.6 1.45.6t1.4-.6q.6-.55.6-1.4m-2.1-45.45q-.55-.55-1.4-.55-.85 0-1.45.55-.55.6-.55 1.45t.55 1.4q.6.6 1.45.6t1.4-.6q.6-.55.6-1.4 0-.85-.6-1.45m5.5-21.5q-.55-.55-1.4-.55-.85 0-1.45.55-.55.6-.55 1.45t.55 1.4q.6.6 1.45.6t1.4-.6q.6-.55.6-1.4 0-.85-.6-1.45m8.5 10.5q-.55-.55-1.4-.55-.85 0-1.45.55-.55.6-.55 1.45t.55 1.4q.6.6 1.45.6t1.4-.6q.6-.55.6-1.4 0-.85-.6-1.45m41.5 22.5q-.55.6-.55 1.45t.55 1.4q.6.6 1.45.6t1.4-.6q.6-.55.6-1.4 0-.85-.6-1.45-.55-.55-1.4-.55-.85 0-1.45.55m-17.5-4.65q.6-.55.6-1.4 0-.85-.6-1.45-.55-.55-1.4-.55-.85 0-1.45.55-.55.6-.55 1.45t.55 1.4q.6.6 1.45.6t1.4-.6m10.6-21.9h-.05q-.8 0-1.4.55-.55.6-.55 1.45t.55 1.4q.6.6 1.4.6h.05q.85 0 1.4-.6.6-.55.6-1.4 0-.85-.6-1.45-.55-.55-1.4-.55m-16.75 4.9q.6-.55.6-1.4 0-.85-.6-1.45-.55-.55-1.4-.55-.85 0-1.45.55-.55.6-.55 1.45t.55 1.4q.6.6 1.45.6t1.4-.6m35.6.6q-.85 0-1.45.55-.55.6-.55 1.45t.55 1.4q.6.6 1.45.6t1.4-.6q.6-.55.6-1.4 0-.85-.6-1.45-.55-.55-1.4-.55M63.2 96.5q5 .3 4.7.55-.55.6-.55 1.45t.55 1.4q.6.6 1.45.6t1.4-.6q.6-.55.6-1.4 0-.85-.6-1.45-.3-.3-7.55-.55M51.05 82.05q-.55.6-.55 1.45t.55 1.4q.6.6 1.45.6t1.4-.6q.6-.55.6-1.4 0-.85-.6-1.45-.55-.55-1.4-.55-.85 0-1.45.55M53.5 60.5q0 .85.55 1.4.6.6 1.45.6t1.4-.6q.6-.55.6-1.4 0-.85-.6-1.45-.55-.55-1.4-.55-.85 0-1.45.55-.55.6-.55 1.45m19.9-6.1q.6.6 1.45.6t1.4-.6q.6-.55.6-1.4 0-.85-.6-1.45-.3-.3-7.55-.55 5 .3 4.7.55-.55.6-.55 1.45t.55 1.4M31.5 96.2q0 .85.55 1.4.6.6 1.45.6t1.4-.6q.6-.55.6-1.4 0-.85-.6-1.45-.55-.55-1.4-.55-.85 0-1.45.55-.55.6-.55 1.45m-19.45-5.45q-.55.6-.55 1.45t.55 1.4q.6.6 1.45.6t1.4-.6q.6-.55.6-1.4 0-.85-.6-1.45-.55-.55-1.4-.55-.85 0-1.45.55m-4-17.35q.6.6 1.45.6t1.4-.6q.6-.55.6-1.4 0-.85-.6-1.45-.55-.55-1.4-.55-.85 0-1.45.55-.55.6-.55 1.45t.55 1.4M17.5 56q.85 0 1.4-.6.6-.55.6-1.4 0-.85-.6-1.45-.55-.55-1.4-.55-.85 0-1.45.55-.55.6-.55 1.45t.55 1.4q.6.6 1.45.6m16.05 14.9q.6.6 1.45.6t1.4-.6q.6-.55.6-1.4 0-.85-.6-1.45-.55-.55-1.4-.55-.85 0-1.45.55-.55.6-.55 1.45t.55 1.4M37.5 47q-.85 0-1.45.55-.55.6-.55 1.45t.55 1.4q.6.6 1.45.6t1.4-.6q.6-.55.6-1.4 0-.85-.6-1.45-.55-.55-1.4-.55M32 30.5q-.85 0-1.45.55-.55.6-.55 1.45t.55 1.4q.6.6 1.45.6t1.4-.6q.6-.55.6-1.4 0-.85-.6-1.45-.55-.55-1.4-.55M6 49q0-.85-.6-1.45Q4.85 47 4 47q-.85 0-1.45.55Q2 48.15 2 49t.55 1.4q.6.6 1.45.6t1.4-.6q.6-.55.6-1.4m11-17q.85 0 1.4-.6.6-.55.6-1.4 0-.85-.6-1.45Q17.85 28 17 28q-.85 0-1.45.55-.55.6-.55 1.45t.55 1.4q.6.6 1.45.6M8.5 16.5q0 .85.55 1.4.6.6 1.45.6t1.4-.6q.6-.55.6-1.4 0-.85-.6-1.45-.55-.55-1.4-.55-.85 0-1.45.55-.55.6-.55 1.45M3.4.55Q2.85 0 2 0 1.15 0 .55.55 0 1.15 0 2t.55 1.4Q1.15 4 2 4t1.4-.6Q4 2.85 4 2q0-.85-.6-1.45M23 8q-.85 0-1.45.55Q21 9.15 21 10t.55 1.4q.6.6 1.45.6t1.4-.6q.6-.55.6-1.4 0-.85-.6-1.45Q23.85 8 23 8m14.4-1.6q.6-.55.6-1.4 0-.85-.6-1.45Q36.85 3 36 3q-.85 0-1.45.55Q34 4.15 34 5t.55 1.4q.6.6 1.45.6t1.4-.6m32.1 23.1q0 .85.55 1.4.6.6 1.45.6t1.4-.6q.6-.55.6-1.4 0-.85-.6-1.45-.55-.55-1.4-.55-.85 0-1.45.55-.55.6-.55 1.45m-15.45 9.4q.6.6 1.45.6t1.4-.6q.6-.55.6-1.4 0-.85-.6-1.45-.55-.55-1.4-.55-.85 0-1.45.55-.55.6-.55 1.45t.55 1.4M51.5 18.5q0-.85-.6-1.45-.55-.55-1.4-.55-.85 0-1.45.55-.55.6-.55 1.45t.55 1.4q.6.6 1.45.6t1.4-.6q.6-.55.6-1.4M65.25 6.4q.6.6 1.45.6t1.4-.6q.6-.55.6-1.4 0-.85-.6-1.45Q67.55 3 66.7 3q-.85 0-1.45.55-.55.6-.55 1.45t.55 1.4m84.6 77.1q0-.85-.6-1.45-.55-.55-1.4-.55-.85 0-1.45.55-.55.6-.55 1.45t.55 1.4q.6.6 1.45.6t1.4-.6q.6-.55.6-1.4M137 96.5q-.85 0-1.45.55-.55.6-.55 1.45t.55 1.4q.6.6 1.45.6t1.4-.6q.6-.55.6-1.4 0-.85-.6-1.45-.55-.55-1.4-.55M127.5 68q0 .85.55 1.4.6.6 1.45.6t1.4-.6q.6-.55.6-1.4 0-.85-.6-1.45-.55-.55-1.4-.55-.85 0-1.45.55-.55.6-.55 1.45m23.75-2.1q.6-.55.6-1.4 0-.85-.6-1.45-.3-.3-7.55-.55 5 .3 4.7.55-.55.6-.55 1.45t.55 1.4q.6.6 1.45.6t1.4-.6m-37.85 30q.6.6 1.45.6t1.4-.6q.6-.55.6-1.4 0-.262-.05-.5-.135-.535-.55-.95-.3-.3-7.55-.55 5 .3 4.7.55-.38.415-.5.95-.05.238-.05.5 0 .85.55 1.4M83.9 84.05q-.55-.55-1.4-.55-.85 0-1.45.55-.55.6-.55 1.45t.55 1.4q.6.6 1.45.6t1.4-.6q.6-.55.6-1.4 0-.85-.6-1.45M89 62.5q0 .85.55 1.4.6.6 1.45.6t1.4-.6q.6-.55.6-1.4 0-.85-.6-1.45-.55-.55-1.4-.55-.85 0-1.45.55-.55.6-.55 1.45m24.4 10.4q.6.6 1.45.6t1.4-.6q.6-.55.6-1.4 0-.85-.6-1.45-.3-.3-7.55-.55 5 .3 4.7.55-.55.6-.55 1.45t.55 1.4m-1.85-24.5q.6.6 1.45.6t1.4-.6q.6-.55.6-1.4 0-.85-.6-1.45-.55-.55-1.4-.55-.85 0-1.45.55-.55.6-.55 1.45t.55 1.4m-24.5-20.35q-.55.6-.55 1.45t.55 1.4q.6.6 1.45.6t1.4-.6q.6-.55.6-1.4 0-.85-.6-1.45-.55-.55-1.4-.55-.85 0-1.45.55M84.5 9q0-.85-.6-1.45Q83.35 7 82.5 7q-.85 0-1.45.55-.55.6-.55 1.45t.55 1.4q.6.6 1.45.6t1.4-.6q.6-.55.6-1.4m29.9-5.45Q113.85 3 113 3q-.85 0-1.45.55-.55.6-.55 1.45t.55 1.4q.6.6 1.45.6t1.4-.6q.6-.55.6-1.4 0-.85-.6-1.45M137.85 45q0 .85.55 1.4.6.6 1.45.6t1.4-.6q.6-.55.6-1.4 0-.85-.6-1.45-.55-.55-1.4-.55-.85 0-1.45.55-.55.6-.55 1.45m-5.6-23.95q-.55-.55-1.4-.55-.85 0-1.45.55-.55.6-.55 1.45t.55 1.4q.6.6 1.45.6t1.4-.6q.6-.55.6-1.4 0-.85-.6-1.45m22.15-3.15q.6.6 1.45.6t1.4-.6q.6-.55.6-1.4 0-.85-.6-1.45-.55-.55-1.4-.55-.85 0-1.45.55-.55.6-.55 1.45t.55 1.4m107.95 171.6q0 .85.55 1.4.6.6 1.45.6t1.4-.6q.6-.55.6-1.4 0-.85-.6-1.45-.55-.55-1.35-.55h-.1q-.8 0-1.4.55-.55.6-.55 1.45m-9.95-22.95q-.55.6-.55 1.45t.55 1.4q.6.6 1.45.6t1.4-.6q.6-.55.6-1.4 0-.85-.6-1.45-.55-.55-1.4-.55-.85 0-1.45.55m20.9 3.45q-.8 0-1.4.55-.55.6-.55 1.45t.55 1.4q.6.6 1.45.6t1.4-.6q.6-.55.6-1.4 0-.85-.6-1.45-.55-.55-1.35-.55h-.1m-8.55-20.45q-.55-.55-1.4-.55-.85 0-1.45.55-.55.6-.55 1.45t.55 1.4q.6.6 1.45.6t1.4-.6q.6-.55.6-1.4 0-.85-.6-1.45m12.1 8.45q0 .85.55 1.4.6.6 1.45.6t1.4-.6q.6-.55.6-1.4 0-.85-.6-1.45-.55-.55-1.35-.55h-.1q-.8 0-1.4.55-.55.6-.55 1.45m-7.1-28.45q-.55-.55-1.35-.55h-.1q-.8 0-1.4.55-.55.6-.55 1.45t.55 1.4q.6.6 1.45.6t1.4-.6q.6-.55.6-1.4 0-.85-.6-1.45m9.15-1.55h-.1q-.8 0-1.4.55-.55.6-.55 1.45t.55 1.4q.6.6 1.45.6t1.4-.6q.6-.55.6-1.4 0-.85-.6-1.45-.55-.55-1.35-.55m-26.65-3.45q-.55-.55-1.4-.55-.85 0-1.45.55-.55.6-.55 1.45t.55 1.4q.6.6 1.45.6t1.4-.6q.6-.55.6-1.4 0-.85-.6-1.45m7.1-19.05q0 .85.55 1.4.6.6 1.45.6t1.4-.6q.6-.55.6-1.4 0-.85-.6-1.45-.55-.55-1.4-.55-.85 0-1.45.55-.55.6-.55 1.45m24.05-1.45q-.55-.55-1.35-.55h-.1q-.8 0-1.4.55-.55.6-.55 1.45t.55 1.4q.6.6 1.45.6t1.4-.6q.6-.55.6-1.4 0-.85-.6-1.45m-46 91.45h-.1q-.8 0-1.4.55-.55.6-.55 1.45t.55 1.4q.6.6 1.45.6t1.4-.6q.6-.55.6-1.4 0-.85-.6-1.45-.55-.55-1.35-.55m-16.05-20q0 .85.55 1.4.454.454 1.05.55.193.05.4.05.85 0 1.4-.6.11-.101.2-.2.4-.506.4-1.2t-.4-1.25l-.2-.2q-.55-.55-1.35-.55H222.95q-.585.124-1.05.55-.55.6-.55 1.45m13.4-14.95q-.55-.55-1.4-.55-.85 0-1.45.55-.55.6-.55 1.45t.55 1.4q.6.6 1.45.6t1.4-.6q.6-.55.6-1.4 0-.85-.6-1.45M182.35 143q0 .85.55 1.4.6.6 1.45.6t1.4-.6q.6-.55.6-1.4 0-.85-.6-1.45-.55-.55-1.4-.55-.85 0-1.45.55-.55.6-.55 1.45m-12 4.5q-.85 0-1.45.55-.263.287-.4.6v1.65q.137.337.4.6.6.6 1.45.6t1.4-.6q.6-.55.6-1.4 0-.85-.6-1.45-.55-.55-1.4-.55m5-20.5q-.85 0-1.45.55-.55.6-.55 1.45t.55 1.4q.6.6 1.45.6t1.4-.6q.6-.55.6-1.4 0-.85-.6-1.45-.55-.55-1.4-.55m-12-4.5q0-.85-.6-1.45-.55-.55-1.4-.55-.85 0-1.45.55-.55.6-.55 1.45t.55 1.4q.6.6 1.45.6t1.4-.6q.6-.55.6-1.4m26 .5q.85 0 1.4-.6.6-.55.6-1.4 0-.85-.6-1.45-.55-.55-1.4-.55-.85 0-1.45.55-.55.6-.55 1.45t.55 1.4q.6.6 1.45.6m-6.6-15.1q.6-.55.6-1.4 0-.85-.6-1.45-.55-.55-1.4-.55-.85 0-1.45.55-.55.6-.55 1.45t.55 1.4q.6.6 1.45.6t1.4-.6m60 37.65q-.55-.55-1.35-.55h-.1q-.8 0-1.4.55-.55.6-.55 1.45t.55 1.4q.6.6 1.45.6t1.4-.6q.6-.55.6-1.4 0-.85-.6-1.45m-20.85-8q-.55.6-.55 1.45t.55 1.4q.454.454 1.05.55.193.05.4.05.85 0 1.4-.6.11-.101.2-.2.4-.506.4-1.2t-.4-1.25l-.2-.2q-.55-.55-1.35-.55H222.95q-.585.124-1.05.55M210.85 141q-.85 0-1.45.55-.55.6-.55 1.45t.55 1.4q.6.6 1.45.6.35 0 .65-.1.427-.147.75-.5.6-.55.6-1.4 0-.85-.6-1.45-.323-.323-.75-.45-.3-.1-.65-.1m-7.5-7q0 .85.55 1.4.6.6 1.45.6t1.4-.6q.6-.55.6-1.4 0-.85-.6-1.45-.55-.55-1.4-.55-.85 0-1.45.55-.55.6-.55 1.45m3.55-21.95q-.55.6-.55 1.45t.55 1.4q.6.6 1.45.6t1.4-.6q.6-.55.6-1.4 0-.85-.6-1.45-.55-.55-1.4-.55-.85 0-1.45.55m29.35 1q-.55-.55-1.4-.55-.85 0-1.45.55-.55.6-.55 1.45t.55 1.4q.6.6 1.45.6t1.4-.6q.6-.55.6-1.4 0-.85-.6-1.45m4.6-11.55q0-.85-.6-1.45-.55-.55-1.35-.55h-.1q-.8 0-1.4.55-.55.6-.55 1.45t.55 1.4q.6.6 1.45.6t1.4-.6q.6-.55.6-1.4m-10.1-17.6q.6-.55.6-1.4 0-.85-.6-1.45-.55-.55-1.4-.55-.85 0-1.45.55-.55.6-.55 1.45t.55 1.4q.6.6 1.45.6t1.4-.6m-19.25 8.7q-.3-.1-.65-.1-.85 0-1.45.55-.38.415-.5.95-.05.238-.05.5 0 .85.55 1.4.6.6 1.45.6.35 0 .65-.1.427-.147.75-.5.6-.55.6-1.4 0-.262-.05-.5-.135-.535-.55-.95-.323-.323-.75-.45m3.35-37.6q.85 0 1.4-.6.6-.55.6-1.4 0-.85-.6-1.45-.55-.55-1.4-.55-.85 0-1.45.55-.55.6-.55 1.45t.55 1.4q.6.6 1.45.6m12.9 6.55q-.55-.55-1.4-.55-.85 0-1.45.55-.55.6-.55 1.45t.55 1.4q.6.6 1.45.6t1.4-.6q.6-.55.6-1.4 0-.85-.6-1.45m-32 33.2q-.55-.55-1.4-.55-.85 0-1.45.55-.55.6-.55 1.45t.55 1.4q.6.6 1.45.6t1.4-.6q.6-.55.6-1.4 0-.85-.6-1.45m2-17.7q-.55-.55-1.4-.55-.85 0-1.45.55-.55.6-.55 1.45t.55 1.4q.6.6 1.45.6t1.4-.6q.6-.55.6-1.4 0-.85-.6-1.45m-20.4-12.55q0-.85-.6-1.45-.31-.31-7.55-.6 5 .325 4.7.6-.55.6-.55 1.45t.55 1.4q.6.6 1.45.6t1.4-.6q.6-.55.6-1.4m15-6.5q0 .85.55 1.4.6.6 1.45.6t1.4-.6q.6-.55.6-1.4 0-.85-.6-1.45-.55-.55-1.4-.55-.85 0-1.45.55-.55.6-.55 1.45m-17-15q-.85 0-1.45.55-.55.6-.55 1.45t.55 1.4q.6.6 1.45.6t1.4-.6q.6-.55.6-1.4 0-.85-.6-1.45-.55-.55-1.4-.55m-7.6-6.95q-.55-.55-1.4-.55-.85 0-1.45.55-.55.6-.55 1.45t.55 1.4q.6.6 1.45.6t1.4-.6q.6-.55.6-1.4 0-.85-.6-1.45m7.6-28.55q0 .85.55 1.4.6.6 1.45.6t1.4-.6q.6-.55.6-1.4 0-.85-.6-1.45-.55-.55-1.4-.55-.85 0-1.45.55-.55.6-.55 1.45m22.55 15.05q-.55.6-.55 1.45t.55 1.4q.6.6 1.45.6t1.4-.6q.6-.55.6-1.4 0-.85-.6-1.45-.55-.55-1.4-.55-.85 0-1.45.55m33 7q-.55.6-.55 1.45t.55 1.4q.6.6 1.45.6t1.4-.6q.6-.55.6-1.4 0-.85-.6-1.45-.55-.55-1.4-.55-.85 0-1.45.55m-15.05 1.95q-.85 0-1.45.55-.55.6-.55 1.45t.55 1.4q.6.6 1.45.6t1.4-.6q.6-.55.6-1.4 0-.85-.6-1.45-.55-.55-1.4-.55M204.35 3q-.85 0-1.45.55-.55.6-.55 1.45t.55 1.4q.6.6 1.45.6t1.4-.6q.6-.55.6-1.4 0-.85-.6-1.45-.55-.55-1.4-.55m21.55 13.05q-.55.6-.55 1.45t.55 1.4q.6.6 1.45.6t1.4-.6q.6-.55.6-1.4 0-.85-.6-1.45-.55-.55-1.4-.55-.85 0-1.45.55m18.85 65.5q-.55-.55-1.4-.55-.85 0-1.45.55-.55.6-.55 1.45t.55 1.4q.6.6 1.45.6t1.4-.6q.6-.55.6-1.4 0-.85-.6-1.45m18.15 6.5q-.55.6-.55 1.45t.55 1.4q.6.6 1.45.6t1.4-.6q.6-.55.6-1.4 0-.85-.6-1.45-.55-.55-1.4-.55-.85 0-1.45.55M244.75 59.4q.6-.55.6-1.4 0-.85-.6-1.45-.55-.55-1.4-.55-.85 0-1.45.55-.55.6-.55 1.45t.55 1.4q.6.6 1.45.6t1.4-.6m18 2.15q-.55-.55-1.4-.55-.85 0-1.45.55-.55.6-.55 1.45t.55 1.4q.6.6 1.45.6t1.4-.6q.6-.55.6-1.4 0-.85-.6-1.45m17.5 4.5q-.55-.55-1.4-.55-.85 0-1.45.55-.55.6-.55 1.45t.55 1.4q.6.6 1.45.6t1.4-.6q.6-.55.6-1.4 0-.85-.6-1.45m-9.35 4q-.55.6-.55 1.45t.55 1.4q.6.6 1.45.6t1.4-.6q.6-.55.6-1.4 0-.85-.6-1.45-.55-.55-1.4-.55-.85 0-1.45.55m6.5-29.5q-.55.6-.55 1.45t.55 1.4q.6.6 1.45.6t1.4-.6q.6-.55.6-1.4 0-.85-.6-1.45-.55-.55-1.4-.55-.85 0-1.45.55m-3.05-12.05q0-.85-.6-1.45-.55-.55-1.4-.55-.85 0-1.45.55-.55.6-.55 1.45t.55 1.4q.6.6 1.45.6t1.4-.6q.6-.55.6-1.4M249.85 45q.85 0 1.4-.6.6-.55.6-1.4 0-.85-.6-1.45-.55-.55-1.4-.55-.85 0-1.45.55-.55.6-.55 1.45t.55 1.4q.6.6 1.45.6m11.5-9.5q-.85 0-1.45.55-.55.6-.55 1.45t.55 1.4q.6.6 1.45.6t1.4-.6q.6-.55.6-1.4 0-.85-.6-1.45-.55-.55-1.4-.55M250.4 16.05q-.55.6-.55 1.45t.55 1.4q.6.6 1.45.6t1.4-.6q.6-.55.6-1.4 0-.85-.6-1.45-.55-.55-1.4-.55-.85 0-1.45.55M263.35 7q.85 0 1.4-.6.6-.55.6-1.4 0-.85-.6-1.45-.55-.55-1.4-.55-.85 0-1.45.55-.55.6-.55 1.45t.55 1.4q.6.6 1.45.6M145.25-.45q-.55-.55-1.4-.55-.85 0-1.45.55-.55.6-.55 1.45t.55 1.4q.6.6 1.45.6t1.4-.6q.6-.55.6-1.4 0-.85-.6-1.45z"/><path fill="url(#b)" d="M127.55 259.45q-.456-.456-.55-1.15-3.792 1.124-6.65 2.8l1.4-.65h8.15v60.05H285v-52.45q-8.892-2.422-17.65-4.55-11.287-2.744-22.35-5-10.019-2.053-19.85-3.7-1.104-.185-2.2-.35-1.003-.16-2-.35-26.617-4.027-48.5-2.05-23.6 2.144-41.2 5.3-.173.032-.35.05.1.312.1.65 0 .85-.6 1.4-.55.6-1.4.6-.85 0-1.45-.6z"/><path fill="#E7E7E7" d="M96.95 262.7q-3.642-.123-8-.3-7.648-.254-17.5-.65-41.05-1.7-68.4 2.5l-6.05.4v55.85h132.9v-60.05h-8.15q-3.65 1.85-6.45 2.4-1.745.343-18.35-.15z"/></g><g id="j"><path fill="#C869C9" d="M-111.3 26.05h-.05q-.583.974-3.25 3.95 1.979-.043 2.9.75.362-2.554.85-4.8-.212.1-.45.1m-13.3-8.3v-.1q-1.05-1.7-5.4-1.05-.253 0-.35.1h-.45q.15 1.6 1.45 2.25 1.91.955 7 .8-1.083-.928-2.25-2m8.55 6.6q-1.253-.723-2.7-1.8-.651 1.007-5.15 1.65l-.5.15q1.85 2.85 3.05 2.85 1.1 0 3.25-1.45l2.05-1.4M-97.2-.4q-.315-.16-.65-.35-1.113 1.52-9.75 10.2-2 2.5-6.35 4.95-5.1 2.9-9.1 2.8 1.759 3.81 12.4 7.9.321-1.36.7-2.6.702-2.314 1.65-4.55h-.3l-.05-.9q0-1.9 3.65-7.1 2.755-3.958 4.2-5.15-.6-.194-.6-.45Q-99.06.751-97.2-.4z"/><path fill="#FFF" d="M-95.2 17.95q.012.073 0 .15l2.25-.15h-2.25m43.25 58.3q.452-.165.9-.35-.44.009-.9-.05v.4m15.85-62.3q-.372 0-.55-.2-2.023.96-5.35 1.85-7.65 2.05-13.3 2.05-9.926 0-17.5-1.8-1.74 2.255-22.4 2.3-.35 1.967-.35 3.8 0 2.3 1 4.45 1 2.15 1 4.1 0 2-1.25 4.95-1.25 3-1.25 4.6 0 7.25 7.1 11.6 3.85 2.05 5.55 3.05 2.9 1.75 3.85 3.5 4.85 8.9 16.8 12.5 2.9.85 8.9 2.05 3.568.706 5.3 1.3.21.063.35.1l-.45.2q0 1 1.85 1 1 0 4.1-.95 1.402-.423 2.25-.75.672-.323 1.3-.65 5.37-2.795 8.1-5.55 1.9-1.9 3.85-11.4 1.65-8.2 1.65-11.5 0-5.1-7.55-25.85-1.076-2.273-2.65-4.8-.157.05-.35.05m-21.95 9.65q-1.9 0-1.9-1.8 0-.95.1-1.1.35-.65 2.05-.65 1.4 0 1.95.9.25.9.25.95 0 1.7-2.45 1.7m9.15 7.6q.25.75.3 1.5 0 2.15-2.45 2.15-2.15 0-1.9-2.65 0-2.5 2.4-2.5 1.15 0 1.65 1.5m3.8 13.8q.2.65.25 1.3 0 2.05-1.95 2.05-1.9 0-1.9-1.9 0-2.7 2.25-2.7.9 0 1.35 1.25m2.5 14.45q0 2.4-1.85 2.4-1.75 0-1.25-1.25 0-2.85 1.75-2.85 1.05 0 1.3.85.15.45.05.85m-55.05-91.8q-.507.572-1.1 1.25.654 2.906 2.85 5.8 4.75 6.3 6.1 9.15 2.1 4.35 8.5 8.7Q-73.2-2-65.15-2.8q.05.05.45.15.054.018.1.1-.05.113-.05.2-.13.195-.1.35.913-.362 1.8-.75 8-4.35 8.8-4.6h.5q.984-1.873 1.7-4.15.04-.087.05-.2v-.15q0-.225.15-.35 1.647-5.553 1.7-13.1-.467.157-.95.3-2.07.742-3.95 1.35-.043.144-.1.3-.5 1.25-1 1.25-1.082 0-1.2-.85-1.361.443-2.65.8-.003.034-.05.05l-.4.2q-.18.02-.35-.05-5.956 1.649-9.1 1.65-3.495-.001-5.1-4.95.02-1.977 1.1-3.9 1.968-3.223 6.3-3.25 3.426.025 6.05.95 2.684.975 10.45.95.383.025.75 0-.019-.249-.05-.5-.65-5.6-2.85-10.15-.313-.644-.65-1.25-1.548-.672-5-2.2-6.1-2.75-9.5-2.75-8.25 0-17.65 5.6-7.25 4.3-11.7 9.4m14.35 4.25q-2.55 0-3.1-3.55 0-.6.65-1.45.75-1 1.55-1 1.8 0 2.75 1.8.55 1.8.55 1.85 0 2.35-2.4 2.35m-1.5 11.75q1.15 0 1.65.7.25.35.25.75 0 .45-.5 1.15-.7.9-1.8.9-1.95 0-1.45-1.6 0-1.9 1.85-1.9m21.65-19.2q0 2.45-2.65 2.45-2.8 0-2.1-2.35 0-.7.6-1.55.75-1.1 1.75-1.1 1.1 0 1.85 1.1.55.8.55 1.45M-68.4-13.6q.2-1.75 1.35-1.75 1.35 0 2 .75.4.45.4.8 0 .7-.9 1.25-.75.45-1.25.45t-1.1-.7q-.5-.6-.5-.8m-8.05-1q1.8 0 1.8 1.8 0 1.95-1.55 1.95-1.5 0-1.7-2.1 0-1.65 1.45-1.65m16.85-4.2q.7-.8 1.15-.8.7 0 .8.5v.5q0 2.75-1.8 2.75-1.3 0-.95-1.35 0-.75.8-1.6m-70.35-.45q0-.187.1-.35-1.175.2-2.45.2-.675 0-1.2-.05-1.75.712-1.75 1.4 0 .05.45 1.25 0 .35-3.7 1.35-.7.35-1.5 1.9-.535 1.167-1.2 3.55 1.759.7 4.25.7 1.9 0 3.25-1.8 1.4-1.8 1.9-1.8.35 0 1.1 1.1.25-.3 1.1-2.5.9-2.35.9-3 0-.45-.5-1.55-.75-.052-.75-.4m18.65 3.05v.05-.05m17.05-21.75q-.12.035-.25.05l.1.1q.076-.061.15-.15m-8.6-14.35q-.468.397-1 .8.55.298.55.95-1.766 6.92-2 8.25 1.519-.869 4.8-2.55 6.35-3.25 9.25-3.95.7.05.7.55-4.623 3.172-8.6 6.45.31.314.45.75l.15 1.3q.6.45 3.1.4 1.698-.067 2.65.2Q-80.424-49.3-68.2-49.3q4.35 0 10.9 3.1.829.4 1.5.75 2.83 1.388 3.75 2l.1-.15q.5-1.05.5-2.25 0-4.7-2.25-7.3-2.75-3.25-11.6-7.45-.05 1.2-.15 1.95-.15 0-.85.3-.3 0-5.25-2.1-2.427-1.02-5.05-1.55-3.101-.25-7.45-.25h-2.75q-5.538.787-12 3.4l1.2 1.3q0 .637-3.35 3.6-.821.752-1.9 1.65z"/><path fill="#A3D9DF" d="M-95.85.7q-.15-.097-.3-.25l.05.15h.05q.101.075.2.1M-93 .3q.28.095.55.15-.986-.347-1.7-.55.553.201 1.15.4z"/><path fill="#ECE079" d="M-89.6 2.8l-.3-.3q-1.454-.15-2.6-.4-.892.407-1.65 1.3-.85.96-1.1 1.75 1.174.496 2.35 1.05.036-.008.05-.05.25-.9.55-1.2.5-.45 2.7-2.15m9.3 0q-.06.005-.15 0l-.7.05q-.309.037-.65.05-1.178.715-3.35 2.5 1.757 4.312 2.85 6.3.863.4 1.75.75.772.3 1.55.55.47.179.9.3l-2.7-5.8q0-.782 3.95-3.95-.415.012-.8 0-.441-.03-.8-.05-.407-.02-.6-.05-.684-.093-1.1-.5-.067-.057-.15-.15m10.3-.85q.554-.83.75-1.3-1.021.266-2.2.55-.057.014-.15 0-.27.096-.55.15-.485.126-.95.2l-.05.05q-.424.359-.6.65.06.026.1 0 1.486.058 3.4.05.121-.156.25-.35m5.9 1.7v.1l-.05-.1h-.8q-.413.683-1.25 2.3-2.1 4.4-2.1 4.6.95 1.95 1.95 3.85.432.811.8 1.45.62.064 1.25.1 1.53.16 3.1.25.78.04 1.55.05-3.75-4.693-3.75-5.35 0-.85 1.3-3.55 1.25-2.75 1.25-3.65v-.1q-.486.017-1 0-1.062.042-2.25.05m17.5-11.1q-1.04-1.462-2.6-2.55-.546-.39-1.15-.75-.025.013-.05 0-.006.184.05.45 0 1.25.8 2.8.85 1.8 1.05 3 .15 3.9.85 5.95.9 2.75 3.8 5.9 3.783 3.882 5.25 5.2.178-.075.35-.15.295-.145.55-.3h.05q.295-.115.55-.25.713-.33 1.3-.65l.05.05q.18-.303.4-.65 0-.223-.05-.5-.12-.558-.5-1.35l-.65-.35q-3.1-2.05-5.7-5.9-1.205-1.808-2-6.15-.278-.447-.6-.95-.816-1.252-1.75-2.85m-2.8 17q-.138.26-.3.6-.45.95-.45 1.25.2.6.6.6l1.4-2.8Q-47 8.786-47 8.4q0-.45-.5-.45-.436 0-1.2.15-.852-.647-2.65-1.95-.45 0-.45.6 0 .477 1.8 1.6-.819.214-1.85.5-.388.12-.8.2Q-57.109 6-57.2 6q-.45 0-.45.55 0 .5 1.95 1.8 1.031.67 1.7 1-1.659.33-3.3.3-1.4-.05-1.4.65 0 .45.55.45 1.976 0 4.55-.4-2.3 3.267-2.3 3.45l.05.45q.05.15.45.15.15 0 1.85-2 1.365-1.586 1.7-2.3.257-.054.5-.1 1.118-.219 1.95-.45m-11.9-11.7q-.13.608-.15 1.55-1.35 2.05-1.35 2.5 0 .26.15.35h.9q1.32.01 2.75 0 .504-.683.95-1.95.7-2.1.7-3.35 0-.076-.45-.9-1.342.73-2.45 1.3-.056.116-.15.25l.15.3-.2-.45q-.058.03-.15.05-.275.16-.55.3-.075.04-.15.05m-35.35 10.5q-.5 0-.5.55 0 .44.55 1.65-.414-.014-.8-.05-.726-1.206-2.4-3-.5 0-.5.4 1.144 1.746 1.6 2.5-2.018-.154-2.15-.55-.45 0-.45.5 0 .854 2 1.2-.565.291-1.45.7-1.3.6-1.3.95 0 .45.6.45 4.8-1.65 5.25-1.7l-.05.05q-1.65 1.25-1.65 1.9 0 .5.5.5 1.705-1.906 2.25-2.6 2.2-.057 2.2-.75 0-.35-.1-.4l-.45-.05q-1.345 0-2.45-.05.33.024.65 0-1.136-2.2-1.35-2.2m9.1 1.35q-1.326-.662-2.45-1.2-1.905 1.26-2.6 8.35h.25q1.66 0 3.15-.05.06-.26.05-.55V14.1q.433-1.685 2.05-4.15-.2-.115-.45-.25z"/><path fill="#D78ED7" d="M-85.15 5.4q2.172-1.785 3.35-2.5.341-.013.65-.05-.596.05-1.15.05-3.029 0-5.45-.2-1.137-.056-2.15-.2l.3.3q-2.2 1.7-2.7 2.15-.3.3-.55 1.2-.014.042-.05.05-1.176-.554-2.35-1.05.25-.79 1.1-1.75.758-.893 1.65-1.3-.562-.13-1.05-.3-1.053-.456-2.3-1.1-.099-.025-.2-.1h-.05l-.05-.15q-.08-.083-.2-.2-2.6 3.253-2.6 3.35l-.15.1q.025.008.05 0 3.51 1.133 7.65 3.25.495.279 1 .55 6.45 3.45 7.95 4.15.087.04.15.05-1.093-1.988-2.85-6.3m11.4-3.15q.176-.291.6-.65-1.515.34-2.9.6.975.047 2.3.05m8.8 1.4h-1q-7.629 0-10.9-.1-3.95 3.168-3.95 3.95l2.7 5.8q5.576 1.815 12.55 2.55-.368-.639-.8-1.45-1-1.9-1.95-3.85 0-.2 2.1-4.6.837-1.617 1.25-2.3m.85.1v-.1h-.05l.05.1m26.45 8.35h-.05q-.255.155-.55.3.307-.14.6-.3M-43.1-2.35q-.33-.352-.7-.75h-.05q-.17-.25-.4-.55.795 4.342 2 6.15 2.6 3.85 5.7 5.9l.65.35q-.965-2.182-3.75-6.1-2.363-3.259-3.45-5m-8.75-9.1l-.1-.05q-.716 2.277-1.7 4.15l.6.05q.15-.15.15.5 0 .076-1.1.7-1.049.638-3.15 1.8-.357.195-.7.35-1.328.746-2.4 1.3l-.2.1.2.45-.15-.3q.094-.134.15-.25 1.108-.57 2.45-1.3.45.824.45.9 0 1.25-.7 3.35-.446 1.267-.95 1.95l5.45-.1q.65.05.65.55 0 .741-7.95.9v.1q0 .9-1.25 3.65-1.3 2.7-1.3 3.55 0 .657 3.75 5.35 2.143.1 4.4.1 6.6 0 13.9-2.7 1.493-.564 2.75-1.1-1.467-1.318-5.25-5.2-2.9-3.15-3.8-5.9-.7-2.05-.85-5.95-.2-1.2-1.05-3-.8-1.55-.8-2.8-.056-.266-.05-.45.025.013.05 0 .604.36 1.15.75-1.162-.838-2.65-1.45m2.15 21.6q.162-.34.3-.6-.832.231-1.95.45-.243.046-.5.1-.335.714-1.7 2.3-1.7 2-1.85 2-.4 0-.45-.15l-.05-.45q0-.183 2.3-3.45-2.574.4-4.55.4-.55 0-.55-.45 0-.7 1.4-.65 1.641.03 3.3-.3-.669-.33-1.7-1-1.95-1.3-1.95-1.8 0-.55.45-.55.091 0 4.55 3.05.412-.08.8-.2 1.031-.286 1.85-.5-1.8-1.123-1.8-1.6 0-.6.45-.6 1.798 1.303 2.65 1.95.764-.15 1.2-.15.5 0 .5.45 0 .386-1.15.8l-1.4 2.8q-.4 0-.6-.6 0-.3.45-1.25m-11.6-12.3q-.542.308-1 .5-.667.349-1.15.55-2.032.782-5.8 1.75-.196.47-.75 1.3-.129.194-.25.35 3.195.027 7.6-.05-.15-.09-.15-.35 0-.45 1.35-2.5.02-.942.15-1.55m-30.45 9.9q-.413-.16-.8-.3-4.174-1.526-7.1-2.3-5.586 5.856-7.5 11.45 8.585.152 12.2.2l2.35.05q.695-7.09 2.6-8.35-.942-.411-1.75-.75m-5.4 1.15q0-.55.5-.55.214 0 1.35 2.2-.32.024-.65 0 1.105.05 2.45.05l.45.05q.1.05.1.4 0 .693-2.2.75-.545.694-2.25 2.6-.5 0-.5-.5 0-.65 1.65-1.9l.05-.05q-.45.05-5.25 1.7-.6 0-.6-.45 0-.35 1.3-.95.885-.409 1.45-.7-2-.346-2-1.2 0-.5.45-.5.132.396 2.15.55-.456-.754-1.6-2.5 0-.4.5-.4 1.674 1.794 2.4 3 .386.036.8.05-.55-1.21-.55-1.65m16.4 7q2.833-.63 4.85-.85-4.09-1.259-7.4-3.1-2.06-1.13-3.8-2-1.617 2.465-2.05 4.15v2.15q.01.29-.05.55 5.033-.17 8.45-.9z"/><path fill="#94D3DA" d="M-42.7 74.4l.15.25q1.092-.501 2.1-1-.848.327-2.25.75m-5.5-.25q-.14-.037-.35-.1l-.1.3.45-.2z"/><path fill="url(#c)" d="M-42.6 74.65h.05l-.15-.25.1.25m-5.95-.6l-.1.3.1-.3z"/><path fill="url(#d)" d="M-48.55 74.05q-1.732-.594-5.3-1.3-6-1.2-8.9-2.05-11.95-3.6-16.8-12.5-.95-1.75-3.85-3.5-1.7-1-5.55-3.05-7.1-4.35-7.1-11.6 0-1.6 1.25-4.6 1.25-2.95 1.25-4.95 0-1.95-1-4.1-1-2.15-1-4.45 0-1.833.35-3.8h-.85l.85-.05q.012-.077 0-.15h-13.1q-.948 2.236-1.65 4.55-.379 1.24-.7 2.6.245.103.5.2-.317.476-.7.65-.488 2.246-.85 4.8.174.146.3.3-.201.302-.4.45-.75 6.15-.75 14.05 0 38.4 37 38.4 8 0 23.1-5.35 5.581-1.977 9.85-3.95l-.1-.25q-3.1.95-4.1.95-1.85 0-1.85-1l.1-.3m-2.5 1.85q-.448.185-.9.35v-.4q.46.059.9.05z"/><path fill="#503F52" d="M-44.45 61.85q1.85 0 1.85-2.4.1-.4-.05-.85-.25-.85-1.3-.85-1.75 0-1.75 2.85-.5 1.25 1.25 1.25m-.4-15.55q-.05-.65-.25-1.3-.45-1.25-1.35-1.25-2.25 0-2.25 2.7 0 1.9 1.9 1.9 1.95 0 1.95-2.05m-3.75-13.6q-.05-.75-.3-1.5-.5-1.5-1.65-1.5-2.4 0-2.4 2.5-.25 2.65 1.9 2.65 2.45 0 2.45-2.15m-11.35-10.9q0 1.8 1.9 1.8 2.45 0 2.45-1.7 0-.05-.25-.95-.55-.9-1.95-.9-1.7 0-2.05.65-.1.15-.1 1.1m4.9-45.15q.057-.156.1-.3-1.173.384-2.3.7.118.85 1.2.85.5 0 1-1.25m-3.4 3.75q-.45 0-1.15.8-.8.85-.8 1.6-.35 1.35.95 1.35 1.8 0 1.8-2.75v-.5q-.1-.5-.8-.5m-16.2 6.8q0-1.8-1.8-1.8-1.45 0-1.45 1.65.2 2.1 1.7 2.1 1.55 0 1.55-1.95m7.6-2.55q-1.15 0-1.35 1.75 0 .2.5.8.6.7 1.1.7.5 0 1.25-.45.9-.55.9-1.25 0-.35-.4-.8-.65-.75-2-.75m1.25-17.75q2.65 0 2.65-2.45 0-.65-.55-1.45-.75-1.1-1.85-1.1-1 0-1.75 1.1-.6.85-.6 1.55-.7 2.35 2.1 2.35m-17.35 17.45q-.5-.7-1.65-.7-1.85 0-1.85 1.9-.5 1.6 1.45 1.6 1.1 0 1.8-.9.5-.7.5-1.15 0-.4-.25-.75m-3.25-16q.55 3.55 3.1 3.55 2.4 0 2.4-2.35 0-.05-.55-1.85-.95-1.8-2.75-1.8-.8 0-1.55 1-.65.85-.65 1.45z"/><path fill="#F1871F" d="M-51-25q.483-.143.95-.3 12.228-4.316 12.2-5.65.022-.516-.1-.2-.158-.231-.5-.25-4.814.884-11.8.9-.367.025-.75 0-7.766.025-10.45-.95-2.624-.925-6.05-.95-4.332.027-6.3 3.25-1.08 1.923-1.1 3.9 1.605 4.949 5.1 4.95 3.144-.001 9.1-1.65.17.07.35.05l.4-.2q.047-.016.05-.05 1.289-.357 2.65-.8 1.127-.316 2.3-.7 1.88-.608 3.95-1.35m9.1-4.8q-4.356 1.872-8.15 3.3-2.415.938-4.6 1.7-1.273.432-2.5.8-1.552.514-3 .9-.114-.076-.25-.2-.584-.563-.6-1.15.016-.645.6-1.75.007-.39-.5-.45-1.072.808-1.1 2.2.012 1.162.35 1.8-5.07 1.31-8.35 1.3-.528-.426-.95-1.6-.52-1.307-.55-2.1.026-1.266 1.15-3.15.02-.378-.5-.45-.712.192-1.25 1.6-.405 1.164-.4 2 .136 1.579.45 2.6-.272-.299-.6-.7-1.246-1.513-1.25-2.1.64-6.098 5.95-6.1 1.027 0 3.9.55-.7.503-1.4 1.5-1.117 1.546-1.15 2.3.025.435.5.95.719-.239.7-.7.017-.366-.15-.9 0-.451.95-1.15 1.432-1.004 2.1-1.65.192.057.4.1 4.481.95 11.1.95h.85q2.883-.06 8.25-.4m-11 2q.032-.378-.5-.45-.848.46-.85 1.45-.237.95.65.95.453.002.5-.55-.172-.707.2-1.4z"/><path fill="#F5AD67" d="M-50.05-26.5q3.794-1.428 8.15-3.3-5.367.34-8.25.4H-51q-6.619 0-11.1-.95-.208-.043-.4-.1-.668.646-2.1 1.65-.95.699-.95 1.15.167.534.15.9.019.461-.7.7-.475-.515-.5-.95.033-.754 1.15-2.3.7-.997 1.4-1.5-2.873-.55-3.9-.55-5.31.002-5.95 6.1.004.587 1.25 2.1.328.401.6.7-.314-1.021-.45-2.6-.005-.836.4-2 .538-1.408 1.25-1.6.52.072.5.45-1.124 1.884-1.15 3.15.03.793.55 2.1.422 1.174.95 1.6 3.28.01 8.35-1.3-.338-.638-.35-1.8.028-1.392 1.1-2.2.507.06.5.45-.584 1.105-.6 1.75.016.587.6 1.15.136.124.25.2 1.448-.386 3-.9 1.227-.368 2.5-.8 2.185-.762 4.6-1.7m-3.35-1.75q.532.072.5.45-.372.693-.2 1.4-.047.552-.5.55-.887 0-.65-.95.002-.99.85-1.45z"/><path fill="#C157C1" d="M-98.55-1.6q-.127.1-.25.2-3.074 2.509-9.35 9.6-3.9 3.8-6.2 5.15-4.815 2.783-9.95 3-1.97-1.2-7.25-1.2-.65 0-.55.05l-.05.95q0 4.9 7.85 4.9 2.347 0 2.95-.5.765.651 1.45 1.2-1.904.678-4.6 1.2-1.4.25-1.4 1.1 2.7 4.5 4.6 4.5.95 0 3.6-1.45 1.98-1.088 2.9-2.1 1.058.553 1.95.8-2.069 1.63-4.3 4.3 0 .65.05.4 1.8 1.3 4.8 1.3.24 0 .5-.3.199-.148.4-.45-.126-.154-.3-.3-.921-.793-2.9-.75 2.667-2.976 3.25-3.95h.05q.238 0 .45-.1.383-.174.7-.65-.255-.097-.5-.2-10.641-4.09-12.4-7.9 4 .1 9.1-2.8 4.35-2.45 6.35-4.95 8.637-8.68 9.75-10.2.2-.234.2-.3 0-.6-.15-.5l-.75-.05m-20.2 24.15q1.447 1.077 2.7 1.8l-2.05 1.4q-2.15 1.45-3.25 1.45-1.2 0-3.05-2.85l.5-.15q4.499-.643 5.15-1.65m-5.85-4.9v.1q1.167 1.072 2.25 2-5.09.155-7-.8-1.3-.65-1.45-2.25h.45q.097-.1.35-.1 4.35-.65 5.4 1.05m27.95-18.1l-.15-.15q-.2.095-.4.2-1.86 1.151-4.2 4.75 0 .256.6.45-1.445 1.192-4.2 5.15-3.65 5.2-3.65 7.1l.05.9h15.65l-2.25.15-.85.05h.85q20.66-.045 22.4-2.3 7.574 1.8 17.5 1.8 5.65 0 13.3-2.05 3.327-.89 5.35-1.85.178.2.55.2.193 0 .35-.05.963-.175 1.55-1.35.55-1.05.55-1.75 0-1.65-1.2-3.55-.7-1.1-2.45-3.7-.798-1.386-2.8-3.7-2.133-3.208-3-4.1-.883-1.298-2.4-3.7-3.2-4.4-5.55-4.4-.467 0-.7.15-.15.125-.15.35v.15l.05.25q1.488.612 2.65 1.45 1.56 1.088 2.6 2.55.934 1.598 1.75 2.85.322.503.6.95.23.3.4.55.036 0 .05-.05v.05q.37.398.7.75 1.087 1.741 3.45 5 2.785 3.918 3.75 6.1.38.792.5 1.35.05.277.05.5-.22.347-.4.65-.03-.01-.05-.05-.587.32-1.3.65-.255.135-.55.25-.293.16-.6.3-.172.075-.35.15-1.257.536-2.75 1.1-7.3 2.7-13.9 2.7-2.257 0-4.4-.1-.77-.01-1.55-.05-1.57-.09-3.1-.25-.63-.036-1.25-.1-6.974-.735-12.55-2.55-.43-.121-.9-.3-.778-.25-1.55-.55-.887-.35-1.75-.75-.063-.01-.15-.05-1.5-.7-7.95-4.15-.505-.271-1-.55-4.14-2.117-7.65-3.25-.025.008-.05 0l.15-.1q0-.097 2.6-3.35.12.117.2.2.15.153.3.25 1.247.644 2.3 1.1.488.17 1.05.3 1.146.25 2.6.4 1.013.144 2.15.2 2.421.2 5.45.2.554 0 1.15-.05l.7-.05q.09.005.15 0 .083.093.15.15.416.407 1.1.5.193.03.6.05.359.02.8.05.385.012.8 0 3.271.1 10.9.1h1.85q1.188-.008 2.25-.05.514.017 1 0 7.95-.159 7.95-.9 0-.5-.65-.55l-5.45.1q-1.43.01-2.75 0h-.9q-4.405.077-7.6.05-1.914.008-3.4-.05-.04.026-.1 0-1.325-.003-2.3-.05 1.385-.26 2.9-.6l.05-.05q.465-.074.95-.2.28-.054.55-.15.093.014.15 0 1.179-.284 2.2-.55 3.768-.968 5.8-1.75.483-.201 1.15-.55.458-.192 1-.5.075-.01.15-.05.275-.14.55-.3.092-.02.15-.05l.2-.1q1.072-.554 2.4-1.3.343-.155.7-.35 2.101-1.162 3.15-1.8 1.1-.624 1.1-.7 0-.65-.15-.5l-.6-.05h-.5q-.8.25-8.8 4.6-.887.388-1.8.75-8.701 3.45-17.55 3.45-6.7 0-10.15-1-.27-.055-.55-.15-.597-.199-1.15-.4-1.006-.367-1.9-.75-.337 0-.6.4m20.75 15.5q-2.017.22-4.85.85-3.417.73-8.45.9-1.49.05-3.15.05h-.25l-2.35-.05q-3.615-.048-12.2-.2 1.914-5.594 7.5-11.45 2.926.774 7.1 2.3.387.14.8.3.808.339 1.75.75 1.124.538 2.45 1.2.25.135.45.25 1.74.87 3.8 2 3.31 1.841 7.4 3.1z"/><path fill="url(#e)" d="M-95.9-25.3q-2.196-2.894-2.85-5.8-3.802 4.38-11.5 13.65.494.669 3.15 6.6 0 .389-.4.6.262.36.5.7 3.518 5 8.2 8.15.123-.1.25-.2l.75.05q.15-.1.15.5 0 .066-.2.3.335.19.65.35.2-.105.4-.2l.15.15q.263-.4.6-.4.894.383 1.9.75.714.203 1.7.55 3.45 1 10.15 1 8.849 0 17.55-3.45-.03-.155.1-.35 0-.087.05-.2-.046-.082-.1-.1-.4-.1-.45-.15-8.05.8-16.15-4.65-6.4-4.35-8.5-8.7-1.35-2.85-6.1-9.15z"/><path fill="#C11325" d="M-134.85-23.45q.053.037.05.05v-.05q.039-.032.05-.1l-.1.1m12.45.35q.047-.04.1-.1h-.1v.1m4.05-27.45q.15-.55 2.5-6.5 0-.6-.1-.6-.8-.4-.85-.4-2.323 0-8.3 7.6h-.05q-.105.406-.25.8l-.7 2.25q-.012.16-.05.3l-.1.3-.2.55q-4.96 14.495-7.05 20.9.2.222.2.25 0 .35-.4 1.4-.4 1.05-.6 1.05h-.05q-.6 2.045-.6 2.35 0 .404.55.6.01.044 0 .05.061.014.1 0 .01.029 0 0 .127.07.25.1.19.046.4.05.098.04.15.05.525.05 1.2.05 1.275 0 2.45-.2.312-.4 1.55-.4.457.274.7.4-.11-.223-.25-.45.96-.273 1.8-.7.601-.296 1.15-.65.795-.514 1.35-1-.066-.65-.1-1.5.358-5.731 1.2-6.9.332-2.4 3.45-7.3 2.55-3.95 4.35-6 1.65-1.8 7.25-6.8 2.34-2.108 3.95-3.7-.367-.201-.6-.45-.15-.15-1-2.05-.6-1.45-1.5-1.45-2.15 0-11.8 9.65v-1.65m-.85-3.35q.028-.022.05-.05v.1l-.05-.05m34.85-12.65q0-1.5-3.8-1.5-6.5 0-6.5 2.1-.8 1.35 3.4 1.35 6.9 0 6.9-1.95z"/><path fill="#E1E1E1" d="M-144.2-23.8l-.85.45v.05q2.95-.04 2.95 1.2 0 .3-1.5 2.5-1.5 2.25-1.5 4.3 0 1.95 1.3 3.5.886 1.055 2.25 1.65.165.099.35.15.665-2.383 1.2-3.55.8-1.55 1.5-1.9 3.7-1 3.7-1.35-.45-1.2-.45-1.25 0-.688 1.75-1.4-.052-.01-.15-.05-.21-.004-.4-.05-.123-.03-.25-.1.01.029 0 0-.039.014-.1 0 .01-.006 0-.05-.55-.196-.55-.6 0-.305.6-2.35-.493-.022-.45-.75.003-.013-.05-.05-2.15-1.2-5.6-1.2-1.9 0-3.75.85m40.2-27.75q-.327.282-.65.75-2.073 1.726-4.8 3.9-11.138 10.623-11.85 20.25l-.05 1.15v1.1q.222 3.576 1.95 6.5 2.85 4.8 9.35 6-1.016-3.047-1.25-4.25-1 0-1-.9.378-.547.75-1.1 6.271-8.894 12.5-15.25 2.328-2.38 4.65-4.4l-.1-.1q.13-.015.25-.05 1.871-.24 2.2-.85-.284-.217-.75-.35-.952-.267-2.65-.2-2.5.05-3.1-.4l-.15-1.3q-.14-.436-.45-.75 3.977-3.278 8.6-6.45 0-.5-.7-.55-2.9.7-9.25 3.95-3.281 1.681-4.8 2.55.234-1.33 2-8.25 0-.652-.55-.95-.058-.017-.15-.05z"/><path fill="#C4C4C4" d="M-134.4-25.5q-2.343-1.15-6.05-1.15-3.85 0-5.95 2-1.55 1.45-1.55 2.95 0 .9 1 .9 1.15-.35 2.1-.5l-.1.25q-1.55 2.45-1.8 3.2-.2.65-.2 2.7 0 2.1 1.25 4.05 2.45 3.8 8.75 3.8 1.6 0 3.25-1.1 1.4-1.15 1.55-1.15.35.5.95.5 1.9 0 3.3-3.85 1.05-2.9 1.05-4.45l-.55-1.75q.1-.104.1-.25 0-.027-.3-.25-.243-.126-.7-.4-1.238 0-1.55.4-.1.163-.1.35 0 .348.75.4.5 1.1.5 1.55 0 .65-.9 3-.85 2.2-1.1 2.5-.75-1.1-1.1-1.1-.5 0-1.9 1.8-1.35 1.8-3.25 1.8-2.491 0-4.25-.7-.185-.051-.35-.15-1.364-.595-2.25-1.65-1.3-1.55-1.3-3.5 0-2.05 1.5-4.3 1.5-2.2 1.5-2.5 0-1.24-2.95-1.2h-.05l.05-.05.85-.45q1.85-.85 3.75-.85 3.45 0 5.6 1.2l.1-.1q-.011.068-.05.1v.05q-.043.728.45.75h.05q.2 0 .6-1.05.4-1.05.4-1.4 0-.028-.2-.25-.108-.164-.35-.45-.338 0-.55.3m30.95-29.1q-1.61 1.592-3.95 3.7-5.6 5-7.25 6.8-1.8 2.05-4.35 6-3.118 4.9-3.45 7.3-.842 1.169-1.2 6.9.034.85.1 1.5.22 2.25.8 2.25.051 0 .1-.05l1.1 2.85q1 2.35 4.35 4.7 3.95 2.75 7.9 2.75 1.3 0 1.8-.35.4-.211.4-.6-2.656-5.931-3.15-6.6 7.698-9.27 11.5-13.65.593-.678 1.1-1.25 4.45-5.1 11.7-9.4 9.4-5.6 17.65-5.6 3.4 0 9.5 2.75 3.452 1.528 5 2.2 1.185.5 1.25.5h.1v.15q0 1.1.9 1.1t1.5-2.45q.45-1.8.45-2.85 0-1.85-.9-4.5-1.1-3.1-2.7-4.65-2.3-2.3-5.9-4.8-2.703-1.862-4.85-2.8-.037-.8-2.4-.9h-.6q-1.65 0-1.65.6 0 .95.9 2.05-2.3-.5-3.85-1.5-2.55-.75-12.4-.75-12.855 0-13.45 1.9-1.57.73-3.9 2.65.3.3.7 1.05-.94 1.154-2.85 3m-1.2 3.8q.323-.468.65-.75.092.033.15.05.532-.403 1-.8 1.079-.898 1.9-1.65 3.35-2.963 3.35-3.6l-1.2-1.3q6.462-2.613 12-3.4h2.75q4.349 0 7.45.25 2.623.53 5.05 1.55 4.95 2.1 5.25 2.1.7-.3.85-.3.1-.75.15-1.95 8.85 4.2 11.6 7.45 2.25 2.6 2.25 7.3 0 1.2-.5 2.25-.043.09-.1.15-.92-.612-3.75-2-.671-.35-1.5-.75-6.55-3.1-10.9-3.1-12.224 0-24.6 10.15.466.133.75.35-.329.61-2.2.85-.074.089-.15.15-2.322 2.02-4.65 4.4-6.229 6.356-12.5 15.25-.372.553-.75 1.1 0 .9 1 .9.018-.022 0-.05v.05q.234 1.203 1.25 4.25-6.5-1.2-9.35-6-1.728-2.924-1.95-6.5v-.9-.2l.05-1.15q.712-9.627 11.85-20.25 2.727-2.174 4.8-3.9m-17.65 27.6q-.053.06-.1.1v-.1h.1z"/><path fill="#E0162C" d="M-119.15-53.95q-.022.028-.05.05l.05.05v-.1m16.1-19.6q-1 0-5.8 2.4-4.9 2.45-6.8 4-1.9 1.55-4.9 6.75-2.81 4.946-4.55 9.95 5.977-7.6 8.3-7.6.05 0 .85.4.1 0 .1.6-2.35 5.95-2.5 6.5v1.65q9.65-9.65 11.8-9.65.9 0 1.5 1.45.85 1.9 1 2.05.233.249.6.45 1.91-1.846 2.85-3-.4-.75-.7-1.05 2.33-1.92 3.9-2.65.595-1.9 13.45-1.9 9.85 0 12.4.75 1.55 1 3.85 1.5-.9-1.1-.9-2.05 0-.6 1.65-.6h.6q-3.261-2.215-15.15-5.55-15.7-4.4-21.55-4.4m14.9 5.5q3.8 0 3.8 1.5 0 1.95-6.9 1.95-4.2 0-3.4-1.35 0-2.1 6.5-2.1z"/></g><path id="f" stroke="#000" stroke-width="1" stroke-linejoin="round" stroke-linecap="round" fill="none" d="M123 317.25l-2.5-1.75m-122-60.75l140.5 3"/><path id="h" stroke="#000" stroke-width=".8" stroke-linejoin="round" stroke-linecap="round" fill="none" d="M275 200h-550v-400h550v400z"/></defs><use xlink:href="#f"/><g transform="matrix(.52203 0 0 .80392 140.95 159.5)"><use xlink:href="#g"/><use xlink:href="#h"/></g><use xlink:href="#i"/><use xlink:href="#j" transform="matrix(1.12952 .13858 -.1386 1.12933 216.1 185.75)"/></svg>