<svg xmlns="http://www.w3.org/2000/svg" xmlns:xlink="http://www.w3.org/1999/xlink" preserveAspectRatio="none" width="284" height="320"><defs><linearGradient id="a" gradientUnits="userSpaceOnUse" x1="100.313" y1="562.662" x2="77.588" y2="539.938" spreadMethod="pad"><stop offset="0%" stop-color="#F1B82D"/><stop offset="100%" stop-color="#FFD758"/></linearGradient><linearGradient id="b" gradientUnits="userSpaceOnUse" x1="99.263" y1="555.763" x2="114.138" y2="570.638" spreadMethod="pad"><stop offset="0%" stop-color="#E5A62F"/><stop offset="100%" stop-color="#D99630"/></linearGradient><linearGradient id="c" gradientUnits="userSpaceOnUse" x1="96.525" y1="540.475" x2="121.475" y2="565.425" spreadMethod="pad"><stop offset="0%" stop-color="#E5A62F"/><stop offset="100%" stop-color="#C3792F"/></linearGradient><linearGradient id="d" gradientUnits="userSpaceOnUse" x1="94.438" y1="548.587" x2="107.262" y2="561.413" spreadMethod="pad"><stop offset="0%" stop-color="#FFE284"/><stop offset="100%" stop-color="#FFCC2A"/></linearGradient><linearGradient id="e" gradientUnits="userSpaceOnUse" x1="111.075" y1="553.125" x2="99.225" y2="564.975" spreadMethod="pad"><stop offset="0%" stop-color="#FFD040"/><stop offset="52.941%" stop-color="#F1B82D"/><stop offset="100%" stop-color="#E5A62F"/></linearGradient><linearGradient id="f" gradientUnits="userSpaceOnUse" x1="103.15" y1="548.85" x2="109.95" y2="555.65" spreadMethod="pad"><stop offset="0%" stop-color="#FFFDE9"/><stop offset="100%" stop-color="#FFDB6F"/></linearGradient><linearGradient id="g" gradientUnits="userSpaceOnUse" x1="159.837" y1="622.188" x2="182.563" y2="644.912" spreadMethod="pad"><stop offset="0%" stop-color="#F1B82D"/><stop offset="100%" stop-color="#FFD758"/></linearGradient><linearGradient id="h" gradientUnits="userSpaceOnUse" x1="166.238" y1="622.737" x2="151.363" y2="607.862" spreadMethod="pad"><stop offset="0%" stop-color="#E5A62F"/><stop offset="100%" stop-color="#D99630"/></linearGradient><linearGradient id="i" gradientUnits="userSpaceOnUse" x1="182.025" y1="625.975" x2="157.075" y2="601.025" spreadMethod="pad"><stop offset="0%" stop-color="#E5A62F"/><stop offset="100%" stop-color="#C3792F"/></linearGradient><linearGradient id="j" gradientUnits="userSpaceOnUse" x1="173.412" y1="627.563" x2="160.588" y2="614.737" spreadMethod="pad"><stop offset="0%" stop-color="#FFE284"/><stop offset="100%" stop-color="#FFCC2A"/></linearGradient><linearGradient id="k" gradientUnits="userSpaceOnUse" x1="168.475" y1="611.525" x2="156.625" y2="623.375" spreadMethod="pad"><stop offset="0%" stop-color="#FFD040"/><stop offset="52.941%" stop-color="#F1B82D"/><stop offset="100%" stop-color="#E5A62F"/></linearGradient><linearGradient id="l" gradientUnits="userSpaceOnUse" x1="173.6" y1="619.35" x2="166.8" y2="612.55" spreadMethod="pad"><stop offset="0%" stop-color="#FFFDE9"/><stop offset="100%" stop-color="#FFDB6F"/></linearGradient><linearGradient id="m" gradientUnits="userSpaceOnUse" x1="109.112" y1="622.188" x2="86.388" y2="644.912" spreadMethod="pad"><stop offset="0%" stop-color="#F1B82D"/><stop offset="100%" stop-color="#FFD758"/></linearGradient><linearGradient id="n" gradientUnits="userSpaceOnUse" x1="102.713" y1="622.788" x2="117.588" y2="607.913" spreadMethod="pad"><stop offset="0%" stop-color="#E5A62F"/><stop offset="100%" stop-color="#D99630"/></linearGradient><linearGradient id="o" gradientUnits="userSpaceOnUse" x1="86.975" y1="626.025" x2="111.925" y2="601.075" spreadMethod="pad"><stop offset="0%" stop-color="#E5A62F"/><stop offset="100%" stop-color="#C3792F"/></linearGradient><linearGradient id="p" gradientUnits="userSpaceOnUse" x1="95.588" y1="627.613" x2="108.412" y2="614.788" spreadMethod="pad"><stop offset="0%" stop-color="#FFE284"/><stop offset="100%" stop-color="#FFCC2A"/></linearGradient><linearGradient id="q" gradientUnits="userSpaceOnUse" x1="100.475" y1="611.525" x2="112.325" y2="623.375" spreadMethod="pad"><stop offset="0%" stop-color="#FFD040"/><stop offset="52.941%" stop-color="#F1B82D"/><stop offset="100%" stop-color="#E5A62F"/></linearGradient><linearGradient id="r" gradientUnits="userSpaceOnUse" x1="95.35" y1="619.4" x2="102.15" y2="612.6" spreadMethod="pad"><stop offset="0%" stop-color="#FFFDE9"/><stop offset="100%" stop-color="#FFDB6F"/></linearGradient><linearGradient id="s" gradientUnits="userSpaceOnUse" x1="168.637" y1="562.662" x2="191.363" y2="539.938" spreadMethod="pad"><stop offset="0%" stop-color="#F1B82D"/><stop offset="100%" stop-color="#FFD758"/></linearGradient><linearGradient id="t" gradientUnits="userSpaceOnUse" x1="169.688" y1="555.763" x2="154.813" y2="570.638" spreadMethod="pad"><stop offset="0%" stop-color="#E5A62F"/><stop offset="100%" stop-color="#D99630"/></linearGradient><linearGradient id="u" gradientUnits="userSpaceOnUse" x1="172.475" y1="540.525" x2="147.525" y2="565.475" spreadMethod="pad"><stop offset="0%" stop-color="#E5A62F"/><stop offset="100%" stop-color="#C3792F"/></linearGradient><linearGradient id="v" gradientUnits="userSpaceOnUse" x1="174.512" y1="548.587" x2="161.688" y2="561.413" spreadMethod="pad"><stop offset="0%" stop-color="#FFE284"/><stop offset="100%" stop-color="#FFCC2A"/></linearGradient><linearGradient id="w" gradientUnits="userSpaceOnUse" x1="158.375" y1="553.625" x2="170.225" y2="565.475" spreadMethod="pad"><stop offset="0%" stop-color="#FFD040"/><stop offset="52.941%" stop-color="#F1B82D"/><stop offset="100%" stop-color="#E5A62F"/></linearGradient><linearGradient id="x" gradientUnits="userSpaceOnUse" x1="165.85" y1="548.9" x2="159.05" y2="555.7" spreadMethod="pad"><stop offset="0%" stop-color="#FFFDE9"/><stop offset="100%" stop-color="#FFDB6F"/></linearGradient><linearGradient id="y" gradientUnits="userSpaceOnUse" x1="93.475" y1="594.15" x2="61.325" y2="594.15" spreadMethod="pad"><stop offset="0%" stop-color="#F1B82D"/><stop offset="100%" stop-color="#FFD758"/></linearGradient><linearGradient id="z" gradientUnits="userSpaceOnUse" x1="88.5" y1="590" x2="109.7" y2="590" spreadMethod="pad"><stop offset="0%" stop-color="#E5A62F"/><stop offset="100%" stop-color="#D99630"/></linearGradient><linearGradient id="A" gradientUnits="userSpaceOnUse" x1="74.475" y1="581.15" x2="110.225" y2="581.15" spreadMethod="pad"><stop offset="0%" stop-color="#E5A62F"/><stop offset="100%" stop-color="#C3792F"/></linearGradient><linearGradient id="B" gradientUnits="userSpaceOnUse" x1="79.463" y1="588.35" x2="97.537" y2="588.35" spreadMethod="pad"><stop offset="0%" stop-color="#FFE284"/><stop offset="100%" stop-color="#FFCC2A"/></linearGradient><linearGradient id="C" gradientUnits="userSpaceOnUse" x1="94.2" y1="580.5" x2="94.2" y2="596.9" spreadMethod="pad"><stop offset="0%" stop-color="#FFD040"/><stop offset="52.941%" stop-color="#F1B82D"/><stop offset="100%" stop-color="#E5A62F"/></linearGradient><linearGradient id="D" gradientUnits="userSpaceOnUse" x1="85.475" y1="582.4" x2="95.225" y2="582.4" spreadMethod="pad"><stop offset="0%" stop-color="#FFFDE9"/><stop offset="100%" stop-color="#FFDB6F"/></linearGradient><linearGradient id="E" gradientUnits="userSpaceOnUse" x1="175.475" y1="594.15" x2="207.625" y2="594.15" spreadMethod="pad"><stop offset="0%" stop-color="#F1B82D"/><stop offset="100%" stop-color="#FFD758"/></linearGradient><linearGradient id="F" gradientUnits="userSpaceOnUse" x1="180.45" y1="590" x2="159.25" y2="590" spreadMethod="pad"><stop offset="0%" stop-color="#E5A62F"/><stop offset="100%" stop-color="#D99630"/></linearGradient><linearGradient id="G" gradientUnits="userSpaceOnUse" x1="194.475" y1="581.15" x2="158.725" y2="581.15" spreadMethod="pad"><stop offset="0%" stop-color="#E5A62F"/><stop offset="100%" stop-color="#C3792F"/></linearGradient><linearGradient id="H" gradientUnits="userSpaceOnUse" x1="189.487" y1="588.35" x2="171.412" y2="588.35" spreadMethod="pad"><stop offset="0%" stop-color="#FFE284"/><stop offset="100%" stop-color="#FFCC2A"/></linearGradient><linearGradient id="I" gradientUnits="userSpaceOnUse" x1="174.8" y1="580.5" x2="174.8" y2="596.9" spreadMethod="pad"><stop offset="0%" stop-color="#FFD040"/><stop offset="52.941%" stop-color="#F1B82D"/><stop offset="100%" stop-color="#E5A62F"/></linearGradient><linearGradient id="J" gradientUnits="userSpaceOnUse" x1="183.475" y1="582.4" x2="173.725" y2="582.4" spreadMethod="pad"><stop offset="0%" stop-color="#FFFDE9"/><stop offset="100%" stop-color="#FFDB6F"/></linearGradient><linearGradient id="K" gradientUnits="userSpaceOnUse" x1="140.95" y1="628.525" x2="140.95" y2="660.675" spreadMethod="pad"><stop offset="0%" stop-color="#F1B82D"/><stop offset="100%" stop-color="#FFD758"/></linearGradient><linearGradient id="L" gradientUnits="userSpaceOnUse" x1="136.85" y1="634.512" x2="136.85" y2="613.288" spreadMethod="pad"><stop offset="0%" stop-color="#E5A62F"/><stop offset="100%" stop-color="#D99630"/></linearGradient><linearGradient id="M" gradientUnits="userSpaceOnUse" x1="128" y1="647.525" x2="128" y2="611.775" spreadMethod="pad"><stop offset="0%" stop-color="#E5A62F"/><stop offset="100%" stop-color="#C3792F"/></linearGradient><linearGradient id="N" gradientUnits="userSpaceOnUse" x1="135.2" y1="642.538" x2="135.2" y2="624.462" spreadMethod="pad"><stop offset="0%" stop-color="#FFE284"/><stop offset="100%" stop-color="#FFCC2A"/></linearGradient><linearGradient id="O" gradientUnits="userSpaceOnUse" x1="127.5" y1="627.95" x2="143.9" y2="627.95" spreadMethod="pad"><stop offset="0%" stop-color="#FFD040"/><stop offset="52.941%" stop-color="#F1B82D"/><stop offset="100%" stop-color="#E5A62F"/></linearGradient><linearGradient id="P" gradientUnits="userSpaceOnUse" x1="129.3" y1="636.525" x2="129.3" y2="626.775" spreadMethod="pad"><stop offset="0%" stop-color="#FFFDE9"/><stop offset="100%" stop-color="#FFDB6F"/></linearGradient><linearGradient id="Q" gradientUnits="userSpaceOnUse" x1="140.95" y1="546.525" x2="140.95" y2="514.375" spreadMethod="pad"><stop offset="0%" stop-color="#F1B82D"/><stop offset="100%" stop-color="#FFD758"/></linearGradient><linearGradient id="R" gradientUnits="userSpaceOnUse" x1="136.85" y1="541.538" x2="136.85" y2="562.762" spreadMethod="pad"><stop offset="0%" stop-color="#E5A62F"/><stop offset="100%" stop-color="#D99630"/></linearGradient><linearGradient id="S" gradientUnits="userSpaceOnUse" x1="128" y1="527.525" x2="128" y2="563.275" spreadMethod="pad"><stop offset="0%" stop-color="#E5A62F"/><stop offset="100%" stop-color="#C3792F"/></linearGradient><linearGradient id="T" gradientUnits="userSpaceOnUse" x1="135.2" y1="532.512" x2="135.2" y2="550.587" spreadMethod="pad"><stop offset="0%" stop-color="#FFE284"/><stop offset="100%" stop-color="#FFCC2A"/></linearGradient><linearGradient id="U" gradientUnits="userSpaceOnUse" x1="127.5" y1="547.35" x2="143.9" y2="547.35" spreadMethod="pad"><stop offset="0%" stop-color="#FFD040"/><stop offset="52.941%" stop-color="#F1B82D"/><stop offset="100%" stop-color="#E5A62F"/></linearGradient><linearGradient id="V" gradientUnits="userSpaceOnUse" x1="129.3" y1="538.525" x2="129.3" y2="548.275" spreadMethod="pad"><stop offset="0%" stop-color="#FFFDE9"/><stop offset="100%" stop-color="#FFDB6F"/></linearGradient><linearGradient id="W" gradientUnits="userSpaceOnUse" x1="134.5" y1="595.513" x2="134.5" y2="580.888" spreadMethod="pad"><stop offset="0%" stop-color="#E5A62F"/><stop offset="100%" stop-color="#FFD040"/></linearGradient><linearGradient id="X" gradientUnits="userSpaceOnUse" x1="134.5" y1="589.5" x2="134.5" y2="583.5" spreadMethod="pad"><stop offset="0%" stop-color="#CE8730"/><stop offset="100%" stop-color="#C3792F"/></linearGradient><linearGradient id="Y" gradientUnits="userSpaceOnUse" x1="140.475" y1="580.65" x2="129.525" y2="580.65" spreadMethod="pad"><stop offset="0%" stop-color="#FFE284"/><stop offset="100%" stop-color="#FFFDE9"/></linearGradient><path fill="#FFF" fill-opacity="0" d="M284 0H0v320h284V0z" id="Z"/><path fill="#A0502C" d="M114.4 567.55q-8.35 8.35-8.35 20.1 0 11.75 8.35 20.1 8.35 8.35 20.05 8.35 11.8 0 20.15-8.35 8.4-8.35 8.4-20.1 0-11.75-8.4-20.1-8.35-8.35-20.15-8.35-11.7 0-20.05 8.35z" id="aa"/><path fill="#FFD040" d="M105.8 539.05q-4.9-2.8-15-5.35-10.7-2.7-15.1-4.9l55.65 55.75q-1.95-2.6-3.4-8.05-1.4-6-2.1-8.35-3.7-11.65-7.4-17.45-4.55-7-12.65-11.65z" id="ab"/><path fill="#D99630" d="M75.7 528.8q2.25 4.45 4.85 15.15 2.5 10.15 5.3 15.05 4.65 8.05 11.7 12.6 5.9 3.8 17.5 7.35 2.3.7 8.3 2.15 5.45 1.5 8 3.45L75.7 528.8z" id="ac"/><path fill="url(#a)" d="M75.7 528.8q2.2 4.35 4.9 11.65 3 8.25 4.4 11.35 5 11.1 12.4 16.65 6.25 4.6 19.45 8.7 3.55 1.05 7.4 3.05 4.05 2.05 7.1 4.35L75.7 528.8z" id="ad"/><path fill="url(#b)" d="M105.8 549.85q-5.9-3.8-6.9-5.2l-6.9-.2q-4.2 4.65-2.75 10.3 1.2 4.9 6.35 9.7 4.25 4 8.85 6.15 4.25 1.95 10.45 3 2.65.45 4.3 1 2.65.85 4.7 2.4l-18.1-27.15z" id="ae"/><path fill="url(#c)" d="M98.7 538.1q-2.6-1.15-11.4-4.4-7.15-2.6-11.6-4.9l55.65 55.75q-2.3-3.1-4.35-7.15-1.95-3.85-3.05-7.4-4.1-13.25-8.7-19.45-5.5-7.5-16.55-12.45z" id="af"/><path fill="url(#d)" d="M116.7 569.7q1.25-1.25-2.85-3.85-5.55-3.45-7.1-6.15-1.25-2.15-2.05-9.5-.65-5.5-3.45-6.1-4.4-.95-7.75 2.45-3.9 3.9-1.95 9.2 1.7 4.55 7.05 8.85 5.05 4.05 10.3 5.65 5.55 1.7 7.8-.55z" id="ag"/><path fill="url(#e)" d="M116.7 569.7q1.85-1.85 1-6.2-.85-4-3.65-8.55-6.8-10.9-14.45-11.1-1.9.6-3.6 2.2-6 6 2.15 14.9 7.4 8.15 16.25 9.85 1.45-.25 2.3-1.1z" id="ah"/><path fill="url(#f)" d="M104 547.2q-1.8-.6-2.65.2-.75.75-.05 2.55.7 1.75 2.5 3.4 1.75 1.7 3.6 2.35 1.85.65 2.65-.15.8-.8.1-2.55-.7-1.75-2.55-3.5-1.75-1.7-3.6-2.3z" id="ai"/><path fill="#FFD040" d="M154 596.35q-5.35-1.35-8.35-2.15-5.45-1.5-8-3.45l55.65 55.7q-2.25-4.4-4.85-15.1-2.5-10.2-5.3-15.05-4.65-8.05-11.7-12.6-5.9-3.8-17.45-7.35z" id="aj"/><path fill="#D99630" d="M141.05 598.75q.8 3 2.15 8.35 3.65 11.65 7.4 17.5 4.5 7 12.6 11.65 4.9 2.8 15 5.3 10.65 2.65 15.1 4.9l-55.65-55.7q1.9 2.55 3.4 8z" id="ak"/><path fill="url(#g)" d="M141.95 597.85q1.9 3.85 3.05 7.45 4.15 13.25 8.75 19.45 5.5 7.5 16.55 12.45 2.75 1.2 11.4 4.4 7.15 2.6 11.6 4.85l-55.65-55.7q2.25 3 4.3 7.1z" id="al"/><path fill="url(#h)" d="M145.1 598.25q1.55 2.05 2.45 4.7.55 1.75.95 4.35 1.05 6.1 3.05 10.4 2.15 4.65 6.15 8.9 4.85 5.05 9.7 6.3 5.65 1.4 10.25-2.75l-.15-6.95q-1.5-1.05-5.25-6.85l-27.15-18.1z" id="am"/><path fill="url(#i)" d="M152.2 598.15q-3.6-1.1-7.5-3.05-4-2.05-7.05-4.35l55.65 55.7q-2.15-4.35-4.85-11.6-3-8.2-4.45-11.35-4.95-11.05-12.45-16.65-6.2-4.6-19.35-8.7z" id="an"/><path fill="url(#j)" d="M156.25 608.3q-2.55-4.1-3.8-2.85-2.25 2.25-.55 7.8 1.55 5.3 5.6 10.3 4.35 5.4 8.9 7.05 5.3 1.95 9.25-2 3.3-3.25 2.4-7.7-.6-2.8-6.15-3.45-7.35-.85-9.5-2.1-2.7-1.55-6.15-7.05z" id="ao"/><path fill="url(#k)" d="M158.65 604.45q-4.35-.9-6.2 1-.95.95-1.15 2.35 1.8 8.8 9.9 16.15 8.9 8.1 14.9 2.15 1.6-1.5 2.15-3.55-.15-7.65-11.05-14.45-4.55-2.85-8.55-3.65z" id="ap"/><path fill="url(#l)" d="M174.8 620.75q.8-.8.15-2.6-.65-1.85-2.3-3.65-1.7-1.75-3.45-2.45-1.8-.7-2.55.1-.8.75-.2 2.6.6 1.8 2.3 3.65 1.75 1.8 3.5 2.45 1.75.7 2.55-.1z" id="aq"/><path fill="#FFD040" d="M115.05 596.35q-11.6 3.55-17.5 7.35-7.05 4.55-11.7 12.6-2.75 4.85-5.3 15.05-2.6 10.7-4.85 15.1l55.65-55.7q-2.55 1.95-8 3.45-6 1.45-8.3 2.15z" id="ar"/><path fill="#D99630" d="M125.85 607.1q1.3-5.35 2.1-8.35 1.45-5.45 3.4-8l-55.65 55.7q4.45-2.25 15.1-4.9 10.1-2.5 15-5.3 8.1-4.65 12.65-11.65 3.75-5.85 7.4-17.5z" id="as"/><path fill="url(#m)" d="M123.95 605.3q1.15-3.6 3.05-7.45 2.05-4.1 4.35-7.1l-55.65 55.7q4.45-2.25 11.6-4.85 8.65-3.2 11.4-4.4 11.05-4.95 16.55-12.45 4.6-6.2 8.7-19.45z" id="at"/><path fill="url(#n)" d="M121.5 602.95q.85-2.65 2.4-4.7l-27.15 18.1q-3.7 5.7-5.25 6.85l-.25 6.95q4.65 4.15 10.35 2.75 4.85-1.25 9.7-6.3 4.05-4.25 6.2-8.9 1.95-4.25 3-10.4.45-2.7 1-4.35z" id="au"/><path fill="url(#o)" d="M116.85 598.15q-13.2 4.1-19.45 8.7Q90 612.4 85 623.5q-1.4 3.1-4.4 11.35-2.7 7.25-4.9 11.6l55.65-55.7q-3 2.3-7.1 4.35-3.8 1.9-7.4 3.05z" id="av"/><path fill="url(#p)" d="M116.55 605.45q-1.25-1.25-3.85 2.85-3.45 5.55-6.1 7.05-2.15 1.25-9.5 2.1-5.55.65-6.1 3.45-1 4.35 2.35 7.7 3.95 3.95 9.25 2 4.55-1.7 8.9-7.05 4.05-5 5.6-10.3 1.7-5.55-.55-7.8z" id="aw"/><path fill="url(#q)" d="M116.55 605.45q-1.85-1.9-6.15-1-4 .8-8.55 3.65-10.9 6.8-11.1 14.45.55 2.05 2.15 3.55 6 5.95 14.95-2.15 8.1-7.35 9.85-16.15-.3-1.5-1.15-2.35z" id="ax"/><path fill="url(#r)" d="M94.05 618.15q-.65 1.8.15 2.6t2.55.1q1.75-.65 3.45-2.45 1.7-1.85 2.35-3.65.65-1.85-.2-2.6-.75-.8-2.5-.1-1.8.7-3.45 2.45-1.7 1.8-2.35 3.65z" id="ay"/><path fill="#FFD040" d="M178.2 533.7q-10.1 2.55-15 5.35-8.1 4.65-12.6 11.65-3.75 5.8-7.4 17.45-.7 2.35-2.15 8.35-1.5 5.45-3.4 8.05l55.65-55.75q-4.4 2.2-15.1 4.9z" id="az"/><path fill="#D99630" d="M188.45 543.95q2.6-10.7 4.85-15.15l-55.65 55.75q2.55-1.95 8-3.45 3-.85 8.35-2.15 11.55-3.55 17.45-7.35 7.05-4.55 11.7-12.6 2.8-4.9 5.3-15.05z" id="aA"/><path fill="url(#s)" d="M188.45 540.45q2.7-7.35 4.85-11.65l-55.65 55.75q3.1-2.35 7.05-4.35 3.95-2 7.5-3.05 13.15-4.1 19.35-8.7 7.5-5.55 12.45-16.65 1.4-3.15 4.45-11.35z" id="aB"/><path fill="url(#t)" d="M170.1 544.65q-.75 1-3.25 2.8-1.4.95-3.65 2.4L145.1 577q2-1.5 4.7-2.4 1.6-.55 4.3-1 6.2-1.05 10.45-3 4.65-2.15 8.85-6.15 5.15-4.8 6.4-9.7 1.4-5.65-2.8-10.3l-6.9.2z" id="aC"/><path fill="url(#u)" d="M181.7 533.7q-8.8 3.25-11.4 4.4-11.05 4.95-16.55 12.45-4.6 6.2-8.75 19.45-1.1 3.55-3.05 7.4-2 4.05-4.3 7.15l55.65-55.75q-4.45 2.3-11.6 4.9z" id="aD"/><path fill="url(#v)" d="M164.3 550.2q-.8 7.35-2.05 9.5-1.55 2.7-7.1 6.15-4.15 2.6-2.9 3.85 2.25 2.25 7.8.55 5.3-1.6 10.35-5.65 5.35-4.3 7-8.85 1.95-5.3-1.95-9.2-3.3-3.45-7.7-2.45-2.8.6-3.45 6.1z" id="aE"/><path fill="url(#w)" d="M170.85 560.95q8.15-8.9 2.15-14.9-1.7-1.6-3.6-2.2-7.65.2-14.45 11.1-2.8 4.55-3.65 8.55-.9 4.35.95 6.2.95.85 2.4 1.1 8.8-1.7 16.2-9.85z" id="aF"/><path fill="url(#x)" d="M167.65 547.4q-.8-.8-2.65-.2-1.85.6-3.6 2.3-1.85 1.75-2.55 3.5-.7 1.75.1 2.55.8.8 2.65.15 1.85-.65 3.6-2.35 1.8-1.65 2.5-3.4.7-1.8-.05-2.55z" id="aG"/><path fill="#FFD040" d="M80.55 573.55q-5.5 1.5-14.4 6.85-9.45 5.7-14.1 7.25h78.65q-3.2-.45-8.05-3.2-5.25-3.3-7.4-4.45-10.8-5.65-17.55-7.1-8.2-1.8-17.15.65z" id="aH"/><path fill="#D99630" d="M122.65 590.85q4.85-2.75 8.05-3.2H52.05q4.65 1.55 14.1 7.25 8.9 5.4 14.4 6.85 8.95 2.45 17.15.65 6.7-1.45 17.55-7.1 4.7-2.9 7.4-4.45z" id="aI"/><path fill="url(#y)" d="M52.05 587.65q4.65 1.55 11.65 4.75 8 3.7 11.15 4.9 11.3 4.35 20.5 3 7.65-1.15 19.9-7.6 3.3-1.75 7.4-3.1 4.3-1.45 8.05-1.95H52.05z" id="aJ"/><path fill="url(#z)" d="M79.6 582.4l-5.05 4.75q.3 6.25 5.3 9.25 4.3 2.55 11.35 2.35 5.9-.2 10.65-1.9 4.45-1.65 9.5-5.25 2.3-1.6 3.75-2.35 2.5-1.25 5.05-1.6l-32-6.4q-6.75 1.45-8.55 1.15z" id="aK"/><path fill="url(#A)" d="M74.85 578q-3.25 1.25-11.15 4.9-7.05 3.25-11.65 4.75h78.65q-3.75-.5-8.05-1.95-4.1-1.35-7.4-3.1-12.25-6.45-19.9-7.6-9.2-1.35-20.5 3z" id="aL"/><path fill="url(#B)" d="M80.85 580.35q-3.75 2.3-3.75 7.15 0 5.55 5.15 7.95 4.4 2.05 11.25 1.3 6.4-.7 11.3-3.3 5.1-2.75 5.1-5.95 0-1.75-4.7-.65-6.4 1.45-9.4.65-2.45-.65-8.2-5.2-4.35-3.5-6.75-1.95z" id="aM"/><path fill="url(#C)" d="M79.55 581.4q-1.05 1.85-1.05 4 0 8.5 12.1 9.05 11 .5 18.45-4.5.85-1.35.85-2.45 0-2.6-3.65-5.05-3.45-2.25-8.65-3.45-12.55-2.9-18.05 2.4z" id="aN"/><path fill="url(#D)" d="M85 580.6q-1.75.9-1.75 2t1.75 1.85q1.75.75 4.2.65 2.45-.05 4.2-.9 1.75-.8 1.75-1.95 0-1.1-1.75-1.9-1.7-.75-4.2-.7-2.45.1-4.2.95z" id="aO"/><path fill="#FFD040" d="M188.45 573.55q-8.95-2.45-17.1-.65-6.8 1.45-17.6 7.1-2.15 1.15-7.4 4.45-4.9 2.75-8.05 3.2H217q-4.7-1.55-14.15-7.25-8.95-5.4-14.4-6.85z" id="aP"/><path fill="#D99630" d="M138.3 587.65q3.2.45 8.05 3.2 2.7 1.55 7.4 4.45 10.85 5.65 17.6 7.1 8.15 1.8 17.1-.65 5.45-1.45 14.4-6.85 9.45-5.7 14.15-7.25h-78.7z" id="aQ"/><path fill="url(#E)" d="M205.35 592.4q7-3.2 11.65-4.75h-78.7q3.75.5 8.05 1.95 4.05 1.35 7.4 3.1 12.25 6.45 19.9 7.6 9.2 1.35 20.5-3 3.05-1.15 11.2-4.9z" id="aR"/><path fill="url(#F)" d="M194.45 587.15l-5.05-4.75q-1.7.25-8.55-1.15l-32 6.4q2.55.35 5.05 1.6 1.45.75 3.75 2.35 5.05 3.6 9.5 5.25 4.75 1.7 10.65 1.9 7 .2 11.35-2.35 5-3 5.3-9.25z" id="aS"/><path fill="url(#G)" d="M194.15 578q-11.3-4.35-20.5-3-7.65 1.15-19.9 7.6-3.35 1.75-7.4 3.1-4.3 1.45-8.05 1.95H217q-4.6-1.5-11.65-4.75-8-3.7-11.2-4.9z" id="aT"/><path fill="url(#H)" d="M173.2 587.5q-3 .8-9.35-.65-4.75-1.1-4.75.65 0 3.2 5.15 5.95 4.85 2.6 11.25 3.3 6.85.75 11.3-1.3 5.1-2.4 5.1-7.95 0-4.75-3.8-7.15-2.35-1.55-6.7 1.95-5.75 4.55-8.2 5.2z" id="aU"/><path fill="url(#I)" d="M171.45 579q-5.25 1.2-8.7 3.45-3.65 2.45-3.65 5.05 0 1.1.85 2.45 7.45 5 18.45 4.5 12.1-.55 12.1-9.05 0-2.1-1-4-5.55-5.3-18.05-2.4z" id="aV"/><path fill="url(#J)" d="M185.75 582.6q0-1.1-1.75-2-1.75-.85-4.15-.95-2.5-.05-4.25.7-1.75.8-1.75 1.9 0 1.15 1.75 1.95 1.75.85 4.25.9 2.4.1 4.15-.65 1.75-.75 1.75-1.85z" id="aW"/><path fill="#FFD040" d="M131.25 599.45q-1.5 2.7-4.35 7.4-5.7 10.75-7.15 17.6-1.8 8.2.7 17.2 1.45 5.45 6.8 14.35 5.65 9.45 7.2 14.15V591.4q-.45 3.2-3.2 8.05z" id="aX"/><path fill="#D99630" d="M142.1 606.85q-2.85-4.7-4.35-7.4-2.8-4.9-3.3-8.05v78.75q1.6-4.7 7.3-14.15 5.35-8.9 6.85-14.35 2.45-9 .65-17.2-1.45-6.85-7.15-17.6z" id="aY"/><path fill="url(#K)" d="M139.6 606.85q-1.75-3.15-3.15-7.4-1.4-4.15-2-8.05v78.75q1.55-4.6 4.8-11.65 3.75-8 4.95-11.15 4.3-11.35 2.95-20.55-1.15-7.65-7.55-19.95z" id="aZ"/><path fill="url(#L)" d="M128.05 634q1.5 6.5 1.25 8.6l4.75 5q6.2-.35 9.2-5.35 2.55-4.3 2.4-11.35-.2-5.75-1.95-10.55-1.6-4.4-5.2-9.6-3.4-4.55-4.05-8.8l-6.4 32.05z" id="ba"/><path fill="url(#M)" d="M132.55 599.45q-1.35 4.2-3.1 7.4-6.45 12.25-7.55 19.95-1.4 9.2 2.9 20.55 1.15 3 4.9 11.15 3.25 7 4.75 11.65V591.4q-.5 3.8-1.9 8.05z" id="bb"/><path fill="url(#N)" d="M134.4 612.25q-1.8 0-.7 4.75 1.45 6.35.7 9.3-.65 2.4-5.25 8.2-3.5 4.35-1.95 6.8 2.45 3.75 7.2 3.75 5.55 0 7.9-5.1 2.05-4.45 1.3-11.3-.7-6.4-3.3-11.25-2.75-5.15-5.9-5.15z" id="bc"/><path fill="url(#O)" d="M134.4 612.25q-2.65 0-5.05 3.65-2.3 3.45-3.5 8.65-2.9 12.5 2.4 18.05 1.7 1 4.05 1 8.45 0 9.05-12.05.5-10.95-4.5-18.4-1.2-.9-2.45-.9z" id="bd"/><path fill="url(#P)" d="M127.45 637.15q.85 1.75 2 1.75t1.9-1.75q.75-1.75.65-4.2-.1-2.5-.95-4.2-.85-1.8-2-1.8-1.1 0-1.85 1.8-.75 1.75-.65 4.2.05 2.45.9 4.2z" id="be"/><path fill="#FFD040" d="M134.45 505.15q-1.55 4.65-7.2 14.1-5.35 8.95-6.8 14.4-2.5 8.95-.7 17.15 1.45 6.8 7.15 17.55 1.15 2.15 4.35 7.45 2.75 4.9 3.2 8.1v-78.75z" id="bf"/><path fill="#D99630" d="M148.6 533.65q-1.5-5.45-6.85-14.4-5.7-9.45-7.3-14.1v78.75q.5-3.2 3.3-8.1 3.25-5.3 4.35-7.45 5.7-10.7 7.15-17.55 1.8-8.2-.65-17.15z" id="bg"/><path fill="url(#Q)" d="M144.2 527.95q-1.2-3.15-4.95-11.15-3.25-7.05-4.8-11.65v78.75q.6-3.9 2-8.1 1.4-4.25 3.15-7.45 6.4-12.25 7.55-19.85 1.35-9.2-2.95-20.55z" id="bh"/><path fill="url(#R)" d="M134.05 527.65l-4.75 5.05q.25 2.05-1.25 8.6l6.4 32q.65-4.05 4.05-8.85 3.6-5.1 5.2-9.5 1.75-4.8 1.95-10.6.15-7-2.4-11.35-3-5.05-9.2-5.35z" id="bi"/><path fill="url(#S)" d="M129.7 516.8q-3.75 8.15-4.9 11.15-4.3 11.35-2.9 20.55 1.1 7.6 7.55 19.85 1.75 3.25 3.1 7.45 1.4 4.25 1.9 8.1v-78.75q-1.5 4.65-4.75 11.65z" id="bj"/><path fill="url(#T)" d="M127.2 534q-1.55 2.4 1.95 6.8 4.6 5.75 5.25 8.1.75 3-.7 9.4-1.1 4.7.7 4.7 3.15 0 5.9-5.1 2.6-4.9 3.3-11.25.75-6.85-1.3-11.3-2.35-5.1-7.9-5.1-4.75 0-7.2 3.75z" id="bk"/><path fill="url(#U)" d="M132.3 531.7q-2.35 0-4.05 1-5.3 5.5-2.4 18 1.2 5.2 3.5 8.65 2.4 3.65 5.05 3.65 1.3 0 2.45-.85 5-7.45 4.5-18.4-.6-12.05-9.05-12.05z" id="bl"/><path fill="url(#V)" d="M129.45 536.4q-1.15 0-2 1.75-.85 1.75-.9 4.2-.1 2.45.65 4.15.7 1.75 1.85 1.75 1.15 0 2-1.75.85-1.7.95-4.15.1-2.45-.65-4.2t-1.9-1.75z" id="bm"/><path fill="url(#W)" d="M134.45 576.55q-4.55 0-7.8 3.25t-3.25 7.85q0 4.55 3.25 7.85 3.25 3.25 7.8 3.25 4.6 0 7.9-3.25 3.3-3.25 3.3-7.85t-3.3-7.85q-3.3-3.25-7.9-3.25z" id="bn"/><path fill="url(#X)" d="M134.45 580.35q-2.95 0-5.1 2.15-2.1 2.1-2.1 5.15 0 2.95 2.1 5.1 2.15 2.15 5.1 2.15 3.05 0 5.15-2.15 2.15-2.1 2.15-5.1 0-3.05-2.15-5.15-2.1-2.15-5.15-2.15z" id="bo"/><path fill="url(#Y)" d="M134.45 577.55q-2.7 0-4.95 1.75-2.2 1.65-3.3 4.45 2.65-3.9 7.2-4.45l1.05-.1 1.15.1q4.5.55 7.2 4.45-1.15-2.8-3.35-4.45-2.25-1.75-5-1.75z" id="bp"/></defs><use xlink:href="#Z"/><use xlink:href="#aa" transform="matrix(1.72173 0 0 1.72173 -89.566 -841.78)"/><use xlink:href="#ab" transform="matrix(1.72173 0 0 1.72173 -89.566 -841.78)"/><use xlink:href="#ac" transform="matrix(1.72173 0 0 1.72173 -89.566 -841.78)"/><use xlink:href="#ad" transform="matrix(1.72173 0 0 1.72173 -89.566 -841.78)"/><use xlink:href="#ae" transform="matrix(1.72173 0 0 1.72173 -89.566 -841.78)"/><use xlink:href="#af" transform="matrix(1.72173 0 0 1.72173 -89.566 -841.78)"/><use xlink:href="#ag" transform="matrix(1.72173 0 0 1.72173 -89.566 -841.78)"/><use xlink:href="#ah" transform="matrix(1.72173 0 0 1.72173 -89.566 -841.78)"/><use xlink:href="#ai" transform="matrix(1.72173 0 0 1.72173 -89.566 -841.78)"/><use xlink:href="#aj" transform="matrix(1.72173 0 0 1.72173 -89.566 -841.78)"/><use xlink:href="#ak" transform="matrix(1.72173 0 0 1.72173 -89.566 -841.78)"/><use xlink:href="#al" transform="matrix(1.72173 0 0 1.72173 -89.566 -841.78)"/><use xlink:href="#am" transform="matrix(1.72173 0 0 1.72173 -89.566 -841.78)"/><use xlink:href="#an" transform="matrix(1.72173 0 0 1.72173 -89.566 -841.78)"/><use xlink:href="#ao" transform="matrix(1.72173 0 0 1.72173 -89.566 -841.78)"/><use xlink:href="#ap" transform="matrix(1.72173 0 0 1.72173 -89.566 -841.78)"/><use xlink:href="#aq" transform="matrix(1.72173 0 0 1.72173 -89.566 -841.78)"/><use xlink:href="#ar" transform="matrix(1.72173 0 0 1.72173 -89.566 -841.78)"/><use xlink:href="#as" transform="matrix(1.72173 0 0 1.72173 -89.566 -841.78)"/><use xlink:href="#at" transform="matrix(1.72173 0 0 1.72173 -89.566 -841.78)"/><use xlink:href="#au" transform="matrix(1.72173 0 0 1.72173 -89.566 -841.78)"/><use xlink:href="#av" transform="matrix(1.72173 0 0 1.72173 -89.566 -841.78)"/><use xlink:href="#aw" transform="matrix(1.72173 0 0 1.72173 -89.566 -841.78)"/><use xlink:href="#ax" transform="matrix(1.72173 0 0 1.72173 -89.566 -841.78)"/><use xlink:href="#ay" transform="matrix(1.72173 0 0 1.72173 -89.566 -841.78)"/><use xlink:href="#az" transform="matrix(1.72173 0 0 1.72173 -89.566 -841.78)"/><use xlink:href="#aA" transform="matrix(1.72173 0 0 1.72173 -89.566 -841.78)"/><use xlink:href="#aB" transform="matrix(1.72173 0 0 1.72173 -89.566 -841.78)"/><use xlink:href="#aC" transform="matrix(1.72173 0 0 1.72173 -89.566 -841.78)"/><use xlink:href="#aD" transform="matrix(1.72173 0 0 1.72173 -89.566 -841.78)"/><use xlink:href="#aE" transform="matrix(1.72173 0 0 1.72173 -89.566 -841.78)"/><use xlink:href="#aF" transform="matrix(1.72173 0 0 1.72173 -89.566 -841.78)"/><use xlink:href="#aG" transform="matrix(1.72173 0 0 1.72173 -89.566 -841.78)"/><use xlink:href="#aH" transform="matrix(1.72173 0 0 1.72173 -89.566 -841.78)"/><use xlink:href="#aI" transform="matrix(1.72173 0 0 1.72173 -89.566 -841.78)"/><use xlink:href="#aJ" transform="matrix(1.72173 0 0 1.72173 -89.566 -841.78)"/><use xlink:href="#aK" transform="matrix(1.72173 0 0 1.72173 -89.566 -841.78)"/><use xlink:href="#aL" transform="matrix(1.72173 0 0 1.72173 -89.566 -841.78)"/><use xlink:href="#aM" transform="matrix(1.72173 0 0 1.72173 -89.566 -841.78)"/><use xlink:href="#aN" transform="matrix(1.72173 0 0 1.72173 -89.566 -841.78)"/><use xlink:href="#aO" transform="matrix(1.72173 0 0 1.72173 -89.566 -841.78)"/><use xlink:href="#aP" transform="matrix(1.72173 0 0 1.72173 -89.566 -841.78)"/><use xlink:href="#aQ" transform="matrix(1.72173 0 0 1.72173 -89.566 -841.78)"/><use xlink:href="#aR" transform="matrix(1.72173 0 0 1.72173 -89.566 -841.78)"/><use xlink:href="#aS" transform="matrix(1.72173 0 0 1.72173 -89.566 -841.78)"/><use xlink:href="#aT" transform="matrix(1.72173 0 0 1.72173 -89.566 -841.78)"/><use xlink:href="#aU" transform="matrix(1.72173 0 0 1.72173 -89.566 -841.78)"/><use xlink:href="#aV" transform="matrix(1.72173 0 0 1.72173 -89.566 -841.78)"/><use xlink:href="#aW" transform="matrix(1.72173 0 0 1.72173 -89.566 -841.78)"/><use xlink:href="#aX" transform="matrix(1.72173 0 0 1.72173 -89.566 -841.78)"/><use xlink:href="#aY" transform="matrix(1.72173 0 0 1.72173 -89.566 -841.78)"/><use xlink:href="#aZ" transform="matrix(1.72173 0 0 1.72173 -89.566 -841.78)"/><use xlink:href="#ba" transform="matrix(1.72173 0 0 1.72173 -89.566 -841.78)"/><use xlink:href="#bb" transform="matrix(1.72173 0 0 1.72173 -89.566 -841.78)"/><use xlink:href="#bc" transform="matrix(1.72173 0 0 1.72173 -89.566 -841.78)"/><use xlink:href="#bd" transform="matrix(1.72173 0 0 1.72173 -89.566 -841.78)"/><use xlink:href="#be" transform="matrix(1.72173 0 0 1.72173 -89.566 -841.78)"/><use xlink:href="#bf" transform="matrix(1.72173 0 0 1.72173 -89.566 -841.78)"/><use xlink:href="#bg" transform="matrix(1.72173 0 0 1.72173 -89.566 -841.78)"/><use xlink:href="#bh" transform="matrix(1.72173 0 0 1.72173 -89.566 -841.78)"/><use xlink:href="#bi" transform="matrix(1.72173 0 0 1.72173 -89.566 -841.78)"/><use xlink:href="#bj" transform="matrix(1.72173 0 0 1.72173 -89.566 -841.78)"/><use xlink:href="#bk" transform="matrix(1.72173 0 0 1.72173 -89.566 -841.78)"/><use xlink:href="#bl" transform="matrix(1.72173 0 0 1.72173 -89.566 -841.78)"/><use xlink:href="#bm" transform="matrix(1.72173 0 0 1.72173 -89.566 -841.78)"/><use xlink:href="#bn" transform="matrix(1.72173 0 0 1.72173 -89.566 -841.78)"/><use xlink:href="#bo" transform="matrix(1.72173 0 0 1.72173 -89.566 -841.78)"/><use xlink:href="#bp" transform="matrix(1.72173 0 0 1.72173 -89.566 -841.78)"/></svg>