<svg xmlns="http://www.w3.org/2000/svg" xmlns:xlink="http://www.w3.org/1999/xlink" preserveAspectRatio="none" width="284" height="320"><defs><linearGradient id="a" gradientUnits="userSpaceOnUse" x1="428.475" y1="265.9" x2="506.425" y2="265.9" spreadMethod="pad"><stop offset="0%" stop-color="#EF4A47"/><stop offset="100%" stop-color="#CF303A"/></linearGradient><linearGradient id="b" gradientUnits="userSpaceOnUse" x1="462.475" y1="219.8" x2="517.225" y2="219.8" spreadMethod="pad"><stop offset="0%" stop-color="#FBC6B4"/><stop offset="100%" stop-color="#F4816D"/></linearGradient><linearGradient id="c" gradientUnits="userSpaceOnUse" x1="422.25" y1="272.525" x2="422.25" y2="309.075" spreadMethod="pad"><stop offset="0%" stop-color="#FBC6B4"/><stop offset="100%" stop-color="#F4816D"/></linearGradient><linearGradient id="d" gradientUnits="userSpaceOnUse" x1="459.488" y1="262.75" x2="494.512" y2="262.75" spreadMethod="pad"><stop offset="0%" stop-color="#FBC6B4"/><stop offset="100%" stop-color="#F2705F"/></linearGradient><linearGradient id="e" gradientUnits="userSpaceOnUse" x1="497.55" y1="280.512" x2="497.55" y2="307.488" spreadMethod="pad"><stop offset="0%" stop-color="#FBC6B4"/><stop offset="100%" stop-color="#F4816D"/></linearGradient><linearGradient id="f" gradientUnits="userSpaceOnUse" x1="447.463" y1="220.3" x2="460.137" y2="220.3" spreadMethod="pad"><stop offset="0%" stop-color="#FFF"/><stop offset="100%" stop-color="#FBC6B4"/></linearGradient><linearGradient id="g" gradientUnits="userSpaceOnUse" x1="465.462" y1="221.45" x2="478.938" y2="221.45" spreadMethod="pad"><stop offset="0%" stop-color="#FFF"/><stop offset="100%" stop-color="#FBC6B4"/></linearGradient><linearGradient id="h" gradientUnits="userSpaceOnUse" x1="483.462" y1="221.45" x2="496.938" y2="221.45" spreadMethod="pad"><stop offset="0%" stop-color="#FFF"/><stop offset="100%" stop-color="#FBC6B4"/></linearGradient><linearGradient id="i" gradientUnits="userSpaceOnUse" x1="502.463" y1="220.3" x2="515.138" y2="220.3" spreadMethod="pad"><stop offset="0%" stop-color="#FFF"/><stop offset="100%" stop-color="#FBC6B4"/></linearGradient><path fill="#FFF" fill-opacity="0" d="M284 0H0v320h284V0z" id="j"/><path fill="#AAACAE" d="M523.35 191.15q2.1.55.6 4-1.85 4.2-8.75 9.8l1.8 3.35q6.5-4 9.2-9.9 2.95-6.3-2.85-7.25z" id="k"/><path fill="#D2D4D5" d="M524.05 190.5q-1.75-.8-3.6.1t-3.6 3.35q-1.3 1.9-2.4 4.95-1 2.75-1.55 5.5l3.65.5q2.85-8.45 6.25-11.4 2.8-2.4 4.15-.55-1.1-1.7-2.9-2.45z" id="l"/><path fill="#E7E8E9" d="M521.1 196.75q1.1-1.85 1.65-2.45 1.25-1.4 2.6-1.15.8.1 1.05 1.1t-.2 2.3q-.9 2.75-2.9 5.15-2.45 2.6-3.7 3.9l.2.9q2.15-1.6 4.05-3.9 2-2.35 2.75-4.25 1.3-3.75.5-5.1-1-1.65-2.65-1.3-1.45.3-2.75 1.85-2.55 3.1-4.65 8.85l.9.8q.95-3.15 3.15-6.7z" id="m"/><path fill="url(#a)" d="M448.25 231.9q.6 6.25.55 12.9-.1 5.7-.55 9.1-.65 4.7-2.8 7.15-1.5 1.7-5.35 3.6-1.85.9-10.2 3.65-7.2 2.35-10.8 4.65-8.2 5.2-10.05 13.6-1.7 7.75 2.45 15.1 7.2 12.85 28.35 14.8 14.8 1.4 33.65-2.55 18.95-3.95 29.4-14.3 12.2-12.05 12.25-32.3.2-15.55.3-24.3.2-15.9-.2-27.95l-67.35 2.15q0 8.15-.4 7.4-.1-.2.75 7.3z" id="n"/><path fill="#A82C32" d="M472 246.25q0 .65.45 1.1l2.7 2.7v1.05l-2-1.95q-.5-.5-1.1-.5-.65 0-1.15.5-.5.45-.5 1.1 0 .65.5 1.15l4.25 4.2v1.85q-1.3.45-2.2 1.3l-1.6-.95-1.6-5.75q-.15-.65-.7-.95-.55-.35-1.2-.2-.6.15-.9.75-.35.55-.2 1.2l.7 2.75-.9-.6-1.05-3.65q-.15-.7-.7-1-.55-.3-1.2-.1-.65.15-.95.75-.3.55-.15 1.15l.15.6-1.1-.55q-.5-.35-1.15-.15-.65.15-1 .7-.35.55-.15 1.2.2.65.75 1l1.05.55-.65.25q-.6.15-.9.7-.35.55-.15 1.15.15.65.7.95.55.35 1.2.2l3.7-1 .95.55-2.75.75q-.6.15-.9.7-.35.6-.2 1.25.2.65.75.95.55.3 1.2.1l5.75-1.5 1.6.95-.15 1.2q0 .5.15 1.3l-1.6.95-5.75-1.5q-.65-.2-1.2.1-.55.3-.75.95-.15.65.2 1.2.3.6.9.75l2.75.7-.95.6-3.7-1q-.6-.2-1.2.15-.55.3-.7.9-.2.65.15 1.25.3.55.9.7l.65.25-1.05.55q-.55.35-.75 1-.2.65.15 1.15.35.6 1 .75.6.2 1.15-.15l1.1-.6-.15.65q-.15.6.15 1.15.3.55.95.75.65.2 1.2-.15.55-.3.7-.95l1.05-3.65.9-.6-.7 2.75q-.15.65.2 1.2.3.55.9.75.65.15 1.2-.2.55-.3.7-.95l1.6-5.75 1.6-.95q1.05.9 2.2 1.3v1.85l-4.25 4.2q-.5.5-.5 1.15 0 .65.5 1.05.5.5 1.15.5.6 0 1.1-.5l2-1.95v1.1l-2.7 2.65q-.45.5-.45 1.15 0 .65.45 1.1.5.5 1.15.5.65 0 1.05-.5l.5-.45v1.25q0 .65.45 1.1.45.5 1.15.5.65 0 1.1-.5.5-.45.5-1.1v-1.25l.4.45q.5.5 1.15.5.6 0 1.1-.5.5-.45.5-1.1 0-.65-.5-1.15l-2.65-2.65v-1.1l1.95 1.95q.5.5 1.15.5.65 0 1.05-.5.5-.4.5-1.05t-.5-1.15l-4.15-4.2v-1.85q1.1-.4 2.15-1.3l1.6.95 1.55 5.75q.2.65.75.95.55.35 1.2.2.65-.2.95-.75.3-.55.15-1.2l-.75-2.75.95.6 1 3.65q.2.65.75.95.55.35 1.2.15.65-.2 1-.75t.15-1.15l-.2-.65 1.1.6q.55.35 1.15.15.65-.15 1-.75.3-.55.15-1.15-.2-.65-.75-1l-1.05-.55.65-.25q.65-.15.95-.7.3-.6.1-1.25-.15-.55-.7-.9-.55-.35-1.15-.15l-3.75 1-.95-.6 2.75-.7q.65-.15.95-.75.35-.55.1-1.2-.15-.65-.7-.95-.55-.3-1.15-.1l-5.85 1.5-1.55-.95q.15-.8.15-1.3 0-.15-.15-1.2l1.55-.95 5.85 1.5q.6.2 1.15-.1.55-.3.7-.95.2-.65-.1-1.25-.3-.55-.95-.7l-2.75-.75.95-.55 3.75 1q.6.15 1.15-.2.55-.3.7-.95.25-.6-.1-1.15-.3-.55-.95-.7l-.65-.25 1.05-.55q.55-.35.75-1 .15-.65-.15-1.2-.35-.55-1-.7-.6-.2-1.15.15l-1.1.55.2-.6q.2-.6-.15-1.15-.35-.6-1-.75-.65-.2-1.2.1-.55.3-.75 1l-1 3.65-.95.6.75-2.75q.15-.65-.15-1.2-.3-.6-.95-.75-.65-.15-1.2.2-.55.3-.75.95l-1.55 5.75-1.6.95q-.9-.85-2.15-1.3v-1.85l4.15-4.2q.5-.5.5-1.15 0-.65-.5-1.1-.4-.5-1.05-.5t-1.15.5l-1.95 1.95v-1.05l2.65-2.7q.5-.45.5-1.1 0-.7-.5-1.1-.5-.5-1.1-.5-.65 0-1.15.5l-.4.4v-1.2q0-.65-.5-1.1-.45-.5-1.1-.5-.7 0-1.15.5-.45.45-.45 1.1v1.2l-.5-.4q-.4-.5-1.05-.5t-1.15.5q-.45.4-.45 1.1m3.1 18.1q-.7-.55-.7-1.65 0-1 .7-1.55.6-.75 1.65-.75 1 0 1.65.75.65.65.65 1.55 0 1-.65 1.65-.65.75-1.65.75-.9 0-1.65-.75z" id="o"/><path fill="url(#b)" d="M482.85 204.5q-19.15.1-36.25-2.15-1.55-.2-2.7 1.05-1.15 1.15-1.15 2.7v25.3q0 1.5 1.15 2.55 1.05.95 2.7 1.2 32.2 4.25 70.35 0 1.6-.2 2.65-1.2 1.1-1.05 1.1-2.55v-25.3q0-1.55-1.1-2.7-1.2-1.25-2.65-1.05-15.95 2.1-34.1 2.15z" id="p"/><path fill="url(#c)" d="M427.35 269.1q-5.5 2.05-8.25 3.85-8.2 5.2-10.05 13.6-1.7 7.75 2.45 15.1 6.3 11.15 23.5 14.2 1.7-11.1.05-22.4-1.95-13.8-7.7-24.35z" id="q"/><path fill="#FEEAE2" d="M431.6 310.65v-.35l.1-.2v-.15l-1-.1v.15l-.1.15v.6l-.05.15v.55l-.1.15v.35l-.05.15v.35l-.1.25v.35l-.05.15v.2l-.1.15v.35l-.05.15v.35l-.05.2v.15l.9.15.1-.15v-.2l.05-.15v-.35l.1-.15v-.2l.05-.15v-.35l.05-.25v-.35l.1-.15v-.35l.05-.2v-.4l.1-.1v-.6l.05-.15m.35-8.75h-1v4.15l-.05.2v.6l1 .05v-.75l.05-.25v-4m-.5-7.45l-.05-.2v-.35l-1 .05v.3l.05.15v.55l.1.15v.35l.05.25v.5l.1.15v.55l.05.15v.7l.05.25v.9l1.05-.05v-.8l-.1-.15v-.7l-.05-.2v-.5l-.1-.25v-.5l-.05-.2v-.35l-.1-.15v-.6m-1.05-6.05v-.2l-.1-.15v-.2l-.05-.15-.1-.2v-.15l-.05-.25v-.15l-.15-.35v-.15l-.05-.2v-.15l-.1-.15-.9.25v.1l.05.25v.15l.05.15.1.2v.15l.05.2v.15l.1.15v.2l.05.15.1.2v.15l.05.15v.2l.05.15v.25l.1.15v.2l.05.15v.15l.1.2v.15l.05.2v.35l.1.15v.25l1-.25v-.15l-.1-.2v-.15l-.05-.2V290l-.05-.2v-.15l-.1-.25v-.1l-.05-.25v-.15l-.1-.2v-.15l-.05-.15m-3.05-10.05l-.05-.1-.85.35v.1l.1.3v.2l.1.15.05.15.1.15.05.2.1.15.05.15v.15l.05.2.1.15.05.15.1.2v.15l.05.15.1.15.05.2.1.15v.15l.1.35.1.15v.2l.05.15.1.15.05.2v.15l1-.3-.1-.35-.1-.15v-.2l-.05-.15-.1-.15-.05-.2v-.15l-.1-.15-.05-.2-.1-.15-.05-.15v-.2l-.05-.15-.1-.15-.05-.2-.1-.15-.05-.15v-.25l-.1-.1-.05-.15-.1-.15-.1-.35-.1-.15-.05-.25v-.1l-.1-.15m-4.4-6.7l.25.25.05.15.1.15.05.25.1.1.05.15.15.15.05.15.1.15.05.15.1.15.1.3.1.1.05.15.1.15.05.15.15.15.1.2.1.3.1.15.05.15.1.15.05.1.1.15.05.25.95-.4-.1-.05-.05-.15-.1-.2-.1-.3-.1-.15-.05-.15-.1-.15-.05-.2-.1-.15-.05-.15-.1-.1-.1-.3-.15-.15-.1-.15-.05-.2-.1-.15-.1-.3-.1-.15-.05-.15-.15-.15-.1-.15-.05-.1-.1-.15-.1-.3-.25-.35-.85.5.05.15z" id="r"/><path fill="#FEEAE2" d="M490.8 208.2v1h1.1l.25-.05h1.8l.3-.1h1.6l-.1-1h-1.2l-.3.1h-1.5l-.3.05h-1.65m10-.45l-.3.1h-.9l-.3.05h-.5l.05 1h.2l.3-.05h.9l.25-.05h1.25l.3-.1h.85l.35-.05h.6l-.1-1h-.55l-.3.05h-.95l-.3.05h-.85m10.1-.6h-.6l-.35.05h-.6l-.25.05h-.6l-.3.1h-.9l-.3.05h-.2l.05 1h.2l.3-.05h.65l.3-.05h.55l.3-.1h.6l.35-.05h.55l.3-.1h.6l.25-.05-.05-1-.3.05h-.3l-.25.1m8.75-.9h-.55l-.3.1h-.3l-.25.05h-.3l-.3.1h-.6l-.25.05h-.3l-.35.05h-.3l-.3.1H515l-.3.05.15.95h.55l.3-.05h.6l.25-.1h.3l.3-.05h.3l.25-.1h.65l.3-.05h.3l.3-.1h.25l.3-.05-.15-.95m-72.4.35h-.6l-.35-.05h-.3l-.3-.05h-.35l-.3-.1h-.25l-.3-.05h-.65l-.3-.1h-.35l-.3-.05-.05 1h.3l.25.05h.4l.25.1h.3l.3.05h.35l.3.1h.3l.35.05h.55l.3.1h.35l.3.05h.35l.1-1h-.4l-.25-.1m8.5 1.8h.05l.1-1h-.4l-.25-.05h-.65l-.3-.1h-.6l-.35-.05h-.3l-.25-.05h-.65l-.3-.1h-.6l-.35-.05-.15 1h.35l.4.05h.25l.3.1h.65l.3.05h.65l.3.1h.55l.35.05h.6l.3.05m4 .25l.3.05h.95l.25.1h.95l.3.05h.95l.25.05h.1l.05-1h-.4l-.3-.05h-.85l-.4-.1h-.85l-.35-.05h-.85l-.35-.05h-.65l-.1 1h1m7.05-.6v1h1.55l.25.1h1.8l.3.05h1.1v-1h-1.3l-.35-.05h-1.8l-.3-.1h-1.25m16 1.3h2.45l.3-.05h2.3l-.1-1h-1.65l-.25.05h-3.05v1m-5.95-1l-.3-.05h-1.75v1h2.3l.3.05h2.4v-1h-2.95z" id="s"/><path fill="#FEEAE2" d="M511.25 231.25h-.6l-.25.05h-.4l-.25.1h-.6l-.3.05h-.25l-.4.1h-.55l-.3.05h-.3l-.25.1h-.1l.1.9h.65l.25-.05h.3l.35-.1h.6l.3-.05h.25l.4-.1h.55l.3-.05h.3l.35-.05h.35l-.05-1.05h-.15l-.3.1m8.5 0l-.15-1-.2.05h-.3l-.3.1h-.3l-.35.05h-.3l-.25.05h-.3l-.3.1h-.3l-.35.05h-.3l-.25.1h-.3l-.3.05h-.35l-.2.1.1.9h.5l.3-.05h.35l.3-.05h.3l.3-.1h.25l.3-.05h.35l.3-.1h.3l.3-.05h.3l.35-.1h.25l.25-.05m-29.05 1.45l.1.9h1.5l.35-.05h1.15l.4-.05h1.15l.35-.1h.05v-1l-.15.05h-1.2l-.3.1h-1.2l-.3.05h-1.5l-.3.1h-.1m9.8.4h.6l.3-.05h.65l.25-.1h.9l.35-.05h.2l-.05-1h-.25l-.35.05h-.55l-.3.1h-.65l-.3.05h-.85l-.3.1h-.65l-.3.05h-.5l.1 1h.2l.3-.05h.85l.35-.1m-32.95.45l.35.05h1.5l.3.1h1.8l.2.05.1-1h-.3l-.3-.05h-1.8l-.3-.1h-1.5l-.3-.05h-.5l-.05 1h.8m15.2.3h2.65l.3-.1h2.05v-1h-1.5l-.3.1h-3.2v1m-2.95 0v-1h-5.05v1h5.05m-33.35-2.1h.3l.25.05h.3l.3.1h.15l.15-1h-.15l-.3-.1h-.3l-.25-.05h-.3l-.35-.1h-.3l-.3-.05h-.3l-.3-.1-.35-.05h-.25l-.3-.05h-.3l-.3-.1-.3-.05h-.35l-.15 1h.4l.25.05h.3l.3.1.3.05h.35l.3.1h.25l.3.05h.3l.35.1.3.05m9.3 1l.05-1h-.5l-.3-.05h-.35l-.3-.1h-.3l-.25-.05h-.65l-.3-.1h-.3l-.3-.05H452l-.3-.1h-.35l-.3-.05h-.2l-.1 1h.25l.25.05h.3l.3.1h.3l.35.05h.55l.3.1h.3l.35.05h.3l.3.1h.55l.35.05h.25m4.35-.65h-.6l-.3-.05h-.35l-.1 1h.65l.3.05h.65l.3.1h.55l.35.05h.9l.25.1h.95l.05.05.1-1h-.1l-.25-.1h-.95l-.3-.05h-.65l-.3-.05h-.85l-.3-.1z" id="t"/><path fill="url(#d)" d="M472 246.25q0 .65.45 1.1l2.7 2.7v1.05l-2-1.95q-.5-.5-1.1-.5-.65 0-1.15.5-.5.45-.5 1.1 0 .65.5 1.15l4.25 4.2v1.85q-1.3.45-2.2 1.3l-1.6-.95-1.6-5.75q-.15-.65-.7-.95-.55-.35-1.2-.2-.6.15-.9.75-.35.55-.2 1.2l.7 2.75-.9-.6-1.05-3.65q-.15-.7-.7-1-.55-.3-1.2-.1-.65.15-.95.75-.3.55-.15 1.15l.15.6-1.1-.55q-.5-.35-1.15-.15-.65.15-1 .7-.35.55-.15 1.2.2.65.75 1l1.05.55-.65.25q-.6.15-.9.7-.35.55-.15 1.15.15.65.7.95.55.35 1.2.2l3.7-1 .95.55-2.75.75q-.6.15-.9.7-.35.6-.2 1.25.2.65.75.95.55.3 1.2.1l5.75-1.5 1.6.95-.15 1.2q0 .5.15 1.3l-1.6.95-5.75-1.5q-.65-.2-1.2.1-.55.3-.75.95-.15.65.2 1.2.3.6.9.75l2.75.7-.95.6-3.7-1q-.6-.2-1.2.15-.55.3-.7.9-.2.65.15 1.25.3.55.9.7l.65.25-1.05.55q-.55.35-.75 1-.2.65.15 1.15.35.6 1 .75.6.2 1.15-.15l1.1-.6-.15.65q-.15.6.15 1.15.3.55.95.75.65.2 1.2-.15.55-.3.7-.95l1.05-3.65.9-.6-.7 2.75q-.15.65.2 1.2.3.55.9.75.65.15 1.2-.2.55-.3.7-.95l1.6-5.75 1.6-.95q1.05.9 2.2 1.3v1.85l-4.25 4.2q-.5.5-.5 1.15 0 .65.5 1.05.5.5 1.15.5.6 0 1.1-.5l2-1.95v1.1l-2.7 2.65q-.45.5-.45 1.15 0 .65.45 1.1.5.5 1.15.5.65 0 1.05-.5l.5-.45v1.25q0 .65.45 1.1.45.5 1.15.5.65 0 1.1-.5.5-.45.5-1.1v-1.25l.4.45q.5.5 1.15.5.6 0 1.1-.5.5-.45.5-1.1 0-.65-.5-1.15l-2.65-2.65v-1.1l1.95 1.95q.5.5 1.15.5.65 0 1.05-.5.5-.4.5-1.05t-.5-1.15l-4.15-4.2v-1.85q1.1-.4 2.15-1.3l1.6.95 1.55 5.75q.2.65.75.95.55.35 1.2.2.65-.2.95-.75.3-.55.15-1.2l-.75-2.75.95.6 1 3.65q.2.65.75.95.55.35 1.2.15.65-.2 1-.75t.15-1.15l-.2-.65 1.1.6q.55.35 1.15.15.65-.15 1-.75.3-.55.15-1.15-.2-.65-.75-1l-1.05-.55.65-.25q.65-.15.95-.7.3-.6.1-1.25-.15-.55-.7-.9-.55-.35-1.15-.15l-3.75 1-.95-.6 2.75-.7q.65-.15.95-.75.35-.55.1-1.2-.15-.65-.7-.95-.55-.3-1.15-.1l-5.85 1.5-1.55-.95q.15-.8.15-1.3 0-.15-.15-1.2l1.55-.95 5.85 1.5q.6.2 1.15-.1.55-.3.7-.95.2-.65-.1-1.25-.3-.55-.95-.7l-2.75-.75.95-.55 3.75 1q.6.15 1.15-.2.55-.3.7-.95.25-.6-.1-1.15-.3-.55-.95-.7l-.65-.25 1.05-.55q.55-.35.75-1 .15-.65-.15-1.2-.35-.55-1-.7-.6-.2-1.15.15l-1.1.55.2-.6q.2-.6-.15-1.15-.35-.6-1-.75-.65-.2-1.2.1-.55.3-.75 1l-1 3.65-.95.6.75-2.75q.15-.65-.15-1.2-.3-.6-.95-.75-.65-.15-1.2.2-.55.3-.75.95l-1.55 5.75-1.6.95q-.9-.85-2.15-1.3v-1.85l4.15-4.2q.5-.5.5-1.15 0-.65-.5-1.1-.4-.5-1.05-.5t-1.15.5l-1.95 1.95v-1.05l2.65-2.7q.5-.45.5-1.1 0-.7-.5-1.1-.5-.5-1.1-.5-.65 0-1.15.5l-.4.4v-1.2q0-.65-.5-1.1-.45-.5-1.1-.5-.7 0-1.15.5-.45.45-.45 1.1v1.2l-.5-.4q-.4-.5-1.05-.5t-1.15.5q-.45.4-.45 1.1m3.1 18.1q-.7-.55-.7-1.65 0-1 .7-1.55.6-.75 1.65-.75 1 0 1.65.75.65.65.65 1.55 0 1-.65 1.65-.65.75-1.65.75-.9 0-1.65-.75z" id="u"/><path fill="url(#e)" d="M480.85 309.6l.1 2.35q28.6-8.8 33.3-34.35l-1.35-.05q-13.25 0-22.65 9.4-9.4 9.4-9.4 22.65z" id="v"/><path fill="#FEEAE2" d="M510.6 279.4l-.15.1H510l-.1.05h-.6l-.2.1h-.25l-.15.05.15.95h.4l.1-.1h.4l.2-.05h.55l.15-.1h.8l.25-.05h2.05v-1h-1.95l-.2.05h-1m-19.1 9.65l-.15.15-.2.3-.3.3-.05.1-.3.3-.05.15-.3.3-.3.45-.15.1-.05.15-.15.15-.05.15-.25.35-.15.15-.05.15-.15.15-.05.15.85.5.05-.1.25-.25.1-.3.25-.35.15-.15.05-.15.15-.15.05-.15.15-.15.1-.15.15-.1.05-.15.15-.15.15-.1.05-.15.15-.1.1-.15.15-.15.2-.3.55-.55-.7-.75-.05.1-.15.1-.15.15-.1.15m9.6-7.1l-.15.05.45.95.1-.1.15-.05.25-.05.15-.1.1-.05.15-.1.25-.05.15-.1.1-.05.4-.15.1-.05.4-.15h.15l.2-.1.15-.05.2-.1.15-.05h.15l.2-.1.35-.1h.15l.35-.15h.25l-.3-1-.35.1h-.25l-.1.1-.25.05-.15.1h-.2l-.15.05-.2.1-.35.1h-.15l-.35.15-.15.1-.25.05-.1.1-.25.05-.15.1-.35.1-.15.1-.2.05-.15.1-.15.05-.2.1m-4.35 2.45l-.1.1-.4.25-.15.05-.1.15-.3.2-.15.15-.15.1-.15.15-.15.05-.15.15-.1.05-.3.3-.3.2-.15.15.65.75.15-.1.15-.15.3-.2.15-.15.1-.05.15-.15.45-.3.15-.15.15-.05.15-.15.1-.05.15-.15.15-.1.15-.15.15-.05.15-.15.15-.05.15-.1.1-.15.15-.05.15-.1.15-.15.3-.1.15-.1-.6-.85-.05.05-.15.1-.15.15-.15.05-.2.1-.3.2-.15.15-.15.05-.15.1m-13.15 26.55h1v-.05h-1v.05m.8-8l-.1.2v.15l-.05.25v.2l-.1.15v.2l-.05.2v.25l-.05.15v.2l-.1.2v.15l-.05.25v.4l-.1.15v.45l-.05.2v.35l-.1.25v.5l1.05.05v-.5l.05-.15v-.55l.05-.25v-.35l.1-.2v-.25l.05-.1v-.45l.1-.15v-.2l.05-.25v-.15l.1-.2v-.15l.05-.2v-.2l.05-.15v-.25l.1-.1-1-.25v.15m1.5-4.8l-.05.2-.1.15-.05.2-.1.15-.05.2-.1.15-.05.25-.1.1-.05.25v.05l.95.3v-.05l.2-.55.1-.2.1-.3.1-.2.05-.15.1-.2.05-.15v-.15l.1-.2.05-.15.15-.15.05-.2.1-.15.05-.15.1-.2.05-.15.1-.15.1-.35.1-.15.05-.25.15-.1.1-.15-.9-.5-.15.2-.1.3-.1.2-.05.15-.25.35-.1.35-.1.15-.05.25-.1.1-.2.5-.15.4z" id="w"/><path fill="url(#f)" d="M453.85 212.6q-.55 0-.55.55v.55l-.25-.25q-.15-.15-.4-.15-.3 0-.45.15-.35.5 0 .85l1.1 1.1v.45l-.8-.8q-.45-.4-.85 0-.2.15-.2.45 0 .25.2.4l1.65 1.65v.75q-.45.05-.9.4l-.65-.35-.55-2.2q-.1-.25-.3-.35-.2-.15-.4-.1-.7.25-.45.8l.3 1-.45-.2-.35-1.4q-.15-.6-.75-.4-.6.1-.4.7l.05.3-.4-.3q-.5-.25-.8.2-.2.2-.1.5.05.3.3.4l.35.2-.2.05q-.55.15-.45.75.2.7.75.4l1.4-.35.4.2-1 .3q-.3.1-.45.3-.1.2 0 .45.1.6.7.4l2.25-.55.55.35v1l-.55.35-2.25-.65q-.6-.1-.7.45-.25.55.45.8l1 .3-.4.1-1.4-.35q-.55-.1-.75.45-.1.55.45.8h.2l-.35.25q-.25.1-.3.35-.1.25.1.45.3.6.8.25l.4-.25-.05.25q-.2.65.4.8.55.1.75-.45l.35-1.45.45-.2-.3 1.05q-.1.25 0 .45.15.25.45.3.55.1.7-.45l.55-2.25.65-.35q.45.45.9.5v.75l-1.65 1.65q-.4.35 0 .85.4.4.85 0l.8-.8v.45l-1.1 1q-.35.5 0 .85.15.25.45.25.25 0 .4-.25l.25-.15v.45q0 .65.55.65.65 0 .65-.65v-.45l.15.15q.15.25.45.25.25 0 .4-.25.45-.35 0-.85l-1-1v-.45l.75.8q.15.15.45.15.25 0 .4-.15.35-.5 0-.85l-1.6-1.65v-.75q.45-.1.8-.5l.65.35.55 2.25q.15.55.8.45.55-.2.45-.75l-.3-1.05.35.2.4 1.45q.1.55.7.45.7-.2.45-.8l-.1-.25.45.25q.45.3.85-.25.3-.55-.2-.8l-.45-.25h.2q.7-.25.45-.8-.05-.2-.25-.35-.25-.15-.45-.1l-1.45.35-.35-.1 1.05-.3q.55-.25.45-.8-.25-.55-.8-.45l-2.25.65-.55-.35.05-.5-.05-.5.55-.35 2.25.55q.55.15.8-.4.1-.55-.45-.75l-1.05-.3.35-.2 1.45.35q.2.1.45 0 .2-.15.25-.4.1-.25 0-.45-.15-.2-.45-.3l-.2-.05.45-.2q.5-.25.2-.9-.35-.45-.85-.2l-.45.3.1-.3q.1-.2-.05-.45-.15-.2-.4-.25-.6-.2-.7.4l-.4 1.4-.35.2.3-1q.1-.55-.45-.8-.6-.15-.8.45l-.55 2.2-.65.35q-.3-.3-.8-.4v-.75l1.6-1.65q.15-.15.15-.4 0-.3-.15-.45-.15-.15-.4-.15-.3 0-.45.15l-.75.8v-.45l1-1.1q.45-.35 0-.85-.15-.15-.4-.15-.3 0-.45.15l-.15.25v-.55q0-.2-.2-.35-.2-.2-.45-.2m0 6.75q.35 0 .65.3.3.3.3.65 0 .25-.3.65-.2.2-.65.2-.3 0-.65-.2-.2-.25-.2-.65 0-.45.2-.65.3-.3.65-.3z" id="x"/><path fill="url(#g)" d="M471.5 214.85l-.2-.15q-.45-.45-.9 0-.15.15-.15.45 0 .25.15.4l1.1 1v.45l-.8-.75q-.15-.2-.4-.2-.3 0-.45.2-.35.4 0 .9l1.65 1.55v.75q-.6.25-.85.5l-.65-.35q-.35-1.55-.6-2.25-.1-.55-.7-.45-.25.1-.4.3-.15.25-.05.45l.3 1.05-.45-.2q-.05-.45-.35-1.45-.05-.2-.25-.35-.25-.15-.45-.05-.55.15-.45.75 0 .15.1.25l-.45-.25q-.6-.2-.8.25-.15.2-.05.45.05.25.25.35l.4.25q-.15 0-.25.1-.6.1-.4.7.1.55.7.45 1.05-.3 1.45-.35l.35.2q-.55.1-1 .3-.25.05-.4.25-.15.2-.05.45.2.5.75.45 1.1-.4 2.2-.6l.6.35v.95q-.3.3-.6.35l-2.2-.55q-.6-.15-.75.4-.1.2.05.45.15.2.4.3.05.05 1 .3l-.35.2-1.45-.35q-.25-.1-.45.05-.2.1-.25.35-.2.6.4.75l.25.05-.4.25q-.5.4-.2.85.25.5.8.2l.45-.2q-.1.05-.1.2-.1.6.45.75.2.1.45-.05.2-.15.25-.4.3-.85.35-1.35l.45-.25-.3 1q-.2.5.45.8.2.05.45-.05.2-.15.25-.35.35-1.55.6-2.25l.65-.35q.25.25.85.5v.7q-1.1 1.1-1.65 1.6-.35.5 0 .85.15.25.45.25.25 0 .4-.25.3-.2.8-.7v.35l-1.1 1.1q-.15.15-.15.45 0 .25.15.4.45.35.9 0l.2-.2v.5q0 .55.55.55.65 0 .65-.55v-.5l.15.2q.45.35.9 0 .15-.15.15-.4 0-.3-.15-.45l-1.05-1.1V226l.75.7q.15.25.45.25.25 0 .4-.25.35-.35 0-.85l-1.6-1.6v-.7q.6-.3.8-.5l.65.35q.25.7.6 2.25.05.2.25.35.25.1.55.05.5-.3.4-.8-.15-.35-.25-1 0 .05.35.25l.35 1.35q.05.25.3.4.2.15.4.05.7-.15.45-.75l-.05-.2.4.2q.55.25.85-.2.25-.55-.2-.85l-.45-.25.25-.05q.25-.05.4-.3.1-.25 0-.45-.1-.6-.7-.4l-1.45.35q-.05-.1-.35-.2l1.1-.3q.6-.25.4-.75-.25-.55-.8-.4l-2.2.55-.6-.35.1-.5-.1-.45.6-.35q1.1.2 2.2.6.55.05.8-.45.15-.6-.4-.7l-1.1-.3.35-.2q.45.05 1.45.35.6.1.7-.45.1-.2 0-.45-.15-.2-.4-.25-.1-.1-.25-.1l.45-.25q.5-.25.2-.8-.3-.45-.85-.25l-.4.25.05-.25q.25-.55-.45-.75-.2-.1-.4.05-.25.15-.3.35l-.35 1.45-.35.2q.1-.7.25-1.05.2-.5-.4-.75-.7-.1-.8.45-.25.7-.6 2.25l-.65.35q-.2-.2-.8-.5v-.75l1.6-1.55q.35-.5 0-.9-.15-.2-.4-.2-.3 0-.45.2l-.75.75v-.45l1.05-1q.15-.15.15-.4 0-.3-.15-.45-.45-.45-.9 0l-.15.15v-.45q0-.65-.65-.65-.55 0-.55.65v.45m1.5 6.6q0 .35-.3.65-.15.3-.65.3-.3 0-.6-.3-.25-.25-.25-.65t.25-.55q.1-.3.6-.3.55 0 .65.3.3.2.3.55z" id="y"/><path fill="url(#h)" d="M485.95 217.05q-.05-.2-.25-.35-.2-.1-.45-.05-.55.15-.45.75 0 .15.1.25l-.45-.25q-.6-.2-.8.25-.15.2-.05.45.05.25.3.35.1.15.35.25-.15 0-.2.1-.65.1-.45.7.1.6.7.45 1.05-.3 1.45-.35l.35.2q-.55.1-1 .3-.65.1-.4.7.1.55.7.45 1.05-.35 2.25-.6l.55.35v.95q-.3.3-.55.35l-2.25-.55q-.6-.15-.7.4-.1.2 0 .45.15.25.4.3.05.05 1 .3l-.35.2-1.45-.35q-.2-.1-.4.05-.25.1-.3.35-.2.6.45.75l.2.05-.35.25q-.55.4-.25.85.25.5.8.2l.45-.2q-.1.05-.1.2-.1.6.45.75.25.1.45-.05.2-.15.25-.4l.4-1.35.4-.25q-.15.4-.25 1-.2.55.4.8.5.2.75-.4l.55-2.25.65-.35q.25.25.85.5v.7q-1.05 1.1-1.65 1.6-.35.5 0 .85.15.25.45.25.25 0 .4-.25.3-.2.8-.7v.35l-1.05 1.1q-.2.15-.2.45 0 .25.2.4.15.15.45.15.25 0 .4-.15l.2-.2v.5q0 .55.6.55.65 0 .65-.55v-.5l.15.2q.15.15.45.15.25 0 .4-.15.15-.15.15-.4 0-.3-.15-.45l-1-1.1V226l.7.7q.2.25.45.25t.4-.25q.45-.35 0-.85l-1.55-1.6v-.7l.8-.5.65.35.55 2.25q.25.55.8.4.5-.25.45-.8-.25-.55-.3-1 0 .05.35.25l.35 1.35q.2.65.75.45.65-.2.4-.75l-.05-.2.4.2q.5.25.9-.2.25-.5-.25-.85l-.4-.25.2-.05q.25-.1.4-.3.15-.25.05-.45-.15-.6-.75-.4l-1.4.35-.4-.2q.95-.25 1.1-.3.55-.2.45-.75-.25-.55-.8-.4l-2.25.55-.55-.35.05-.5-.05-.45.55-.35q1.05.2 2.25.6.55.1.8-.45.1-.6-.45-.7-.55-.25-1.1-.3l.4-.2q.35.05 1.4.35.6.1.75-.45.1-.2-.05-.45-.15-.2-.4-.25-.05-.1-.2-.1l.4-.25q.2-.1.3-.35.05-.25-.05-.45-.35-.45-.9-.25l-.4.25.05-.25q.25-.55-.4-.75-.55-.2-.75.4l-.35 1.45-.35.2q.1-.5.3-1.05.1-.55-.45-.75-.6-.1-.8.45l-.55 2.25-.65.35-.8-.5v-.75l1.55-1.55q.4-.5 0-.9-.15-.2-.4-.2t-.45.2l-.7.75v-.45l1-1q.15-.15.15-.4 0-.3-.15-.45-.15-.2-.4-.2-.3 0-.45.2l-.15.15v-.45q0-.65-.65-.65-.6 0-.6.65v.45l-.2-.15q-.15-.2-.4-.2-.3 0-.45.2-.2.15-.2.45 0 .25.2.4l1.05 1v.45l-.8-.75q-.15-.2-.4-.2-.3 0-.45.2-.35.4 0 .9l1.65 1.55v.75q-.6.25-.85.5l-.65-.35-.55-2.25q-.2-.55-.75-.45-.25.1-.4.3-.1.25 0 .45.1.7.25 1.05l-.4-.2-.4-1.45m4.35 3.55q.45 0 .65.3.3.2.3.55 0 .35-.3.65-.2.3-.65.3-.35 0-.65-.3-.2-.2-.2-.65 0-.4.2-.55.2-.3.65-.3z" id="z"/><path fill="url(#i)" d="M512.4 216.5q.1-.55-.45-.8-.6-.15-.8.45l-.55 2.2-.65.35q-.3-.3-.8-.4v-.75l1.6-1.65q.15-.15.15-.4 0-.3-.15-.45-.45-.4-.85 0l-.75.8v-.45l1-1.1q.45-.35 0-.85-.15-.15-.4-.15-.3 0-.45.15l-.15.25v-.55q0-.2-.2-.35-.2-.2-.45-.2-.55 0-.55.55v.55l-.25-.25q-.15-.15-.4-.15-.3 0-.45.15-.35.5 0 .85l1.1 1.1v.45l-.8-.8q-.45-.35-.9 0-.15.15-.15.45 0 .25.15.4l1.7 1.65v.75q-.45.05-.9.4l-.65-.35-.55-2.2q-.2-.65-.75-.45-.65.25-.4.8l.2 1-.35-.2-.35-1.4q-.15-.6-.75-.4-.6.1-.4.7l.05.3-.4-.3q-.45-.25-.9.2-.1.25 0 .5.1.3.3.4l.35.2-.2.05q-.55.15-.45.75.2.7.75.4l1.4-.35.4.2-1.05.3q-.25.1-.4.3-.1.25 0 .45.1.6.7.4l2.25-.55.55.35v1l-.55.35-2.25-.65q-.6-.1-.7.45-.25.55.4.8l1.05.3-.4.1-1.4-.35q-.55-.1-.75.45-.1.55.45.8h.2l-.35.25q-.2.1-.3.35-.1.25 0 .45.45.55.9.25l.4-.25-.05.25q-.2.65.4.8.55.1.75-.45l.35-1.45.35-.2-.2 1.05q-.1.2 0 .45.15.25.4.3.6.1.75-.45l.55-2.25.65-.35q.45.45.9.5v.75l-1.7 1.65q-.35.35 0 .85.45.35.9 0l.8-.8v.45l-1.1 1q-.35.5 0 .85.15.25.45.25.25 0 .4-.25l.25-.15v.45q0 .65.55.65.65 0 .65-.65v-.45l.15.15q.15.25.45.25.25 0 .4-.25.45-.35 0-.85l-1-1v-.45l.75.8q.4.4.85 0 .35-.5 0-.85l-1.6-1.65v-.75q.45-.1.8-.5l.65.35.55 2.25q.15.55.8.45.55-.2.45-.75l-.3-1.05.35.2.4 1.45q.1.55.7.45.65-.2.45-.8l-.1-.25.45.25q.45.3.85-.25.1-.2.05-.45t-.25-.35l-.45-.25h.2q.7-.25.45-.8-.05-.2-.25-.35-.25-.15-.45-.1l-1.45.35-.35-.1 1.05-.3q.55-.25.45-.8-.25-.55-.8-.45l-2.25.65-.55-.35.05-.5-.05-.5.55-.35 2.25.55q.55.15.8-.4.1-.55-.45-.75l-1.05-.3.35-.2 1.45.35q.2.1.45 0 .2-.15.25-.4.1-.25 0-.45-.15-.2-.45-.3l-.2-.05.45-.2q.2-.1.25-.4.05-.25-.05-.5-.35-.45-.85-.2l-.45.3.1-.3q.1-.25-.05-.45-.15-.2-.4-.25-.6-.2-.7.4l-.4 1.4-.35.2.3-1m-4.55 3.15q.3-.3.65-.3.35 0 .65.3.3.3.3.65 0 .25-.3.65-.2.2-.65.2-.4 0-.65-.2-.2-.25-.2-.65 0-.45.2-.65z" id="A"/><path fill="#C93039" d="M455.85 204.45q10.65.6 25.75.6 15.15 0 25.8-.6 10.7-.65 10.7-1.55 0-.85-10.7-1.55-10.85-.65-25.8-.65-14.9 0-25.75.65-10.7.7-10.7 1.55 0 .9 10.7 1.55z" id="B"/><path fill="#F8A38E" d="M462.45 286.4q.6.55 1.4.55.85 0 1.45-.55.6-.6.6-1.45 0-.8-.6-1.4-.65-.6-1.45-.6-.8 0-1.4.6-.6.6-.6 1.4 0 .85.6 1.45z" id="C"/><path fill="#F8A38E" d="M448.1 279.9q.65.6 1.45.6.85 0 1.45-.6.55-.6.55-1.4 0-.9-.55-1.45-.6-.6-1.45-.6t-1.45.6q-.6.55-.6 1.45 0 .8.6 1.4z" id="D"/><path fill="#F8A38E" d="M445.65 293.55q.6.6 1.45.6.8 0 1.4-.6.6-.6.6-1.4 0-.85-.6-1.45-.6-.55-1.4-.55-.85 0-1.45.55-.6.6-.6 1.45t.6 1.4z" id="E"/><path fill="#F8A38E" d="M458.4 302.9q.6.55 1.45.55.8 0 1.4-.55.6-.6.6-1.45 0-.8-.6-1.4-.6-.6-1.4-.6-.85 0-1.45.6-.6.55-.6 1.4 0 .85.6 1.45z" id="F"/><path fill="#F8A38E" d="M476.4 294.8q.65.6 1.45.6.85 0 1.45-.6.55-.6.55-1.4 0-.85-.55-1.45-.6-.6-1.45-.6-.8 0-1.45.6-.6.65-.6 1.45 0 .8.6 1.4z" id="G"/><path fill="#F8A38E" d="M454.35 263.4q.6.6 1.45.6.8 0 1.4-.6.6-.6.6-1.4 0-.85-.6-1.45-.55-.6-1.4-.6-.85 0-1.45.6-.55.6-.55 1.45 0 .8.55 1.4z" id="H"/><path fill="#F8A38E" d="M434.15 273.35q.6.6 1.4.6.85 0 1.45-.6t.6-1.45q0-.8-.6-1.4-.6-.6-1.45-.6-.8 0-1.4.6-.6.6-.6 1.4 0 .8.6 1.45z" id="I"/><path fill="#F8A38E" d="M441.95 309.4q.6.6 1.4.6.85 0 1.4-.6.6-.55.6-1.4 0-.85-.6-1.45-.55-.55-1.4-.55-.85 0-1.4.55-.6.6-.6 1.45t.6 1.4z" id="J"/><path fill="#F8A38E" d="M471.75 311.3q.6.6 1.5.6.8 0 1.4-.6.6-.65.6-1.45 0-.85-.6-1.45-.6-.55-1.4-.55-.9 0-1.5.55-.6.6-.6 1.45t.6 1.45z" id="K"/><path fill="#F8A38E" d="M489.15 281.75q.6.6 1.45.6t1.45-.6q.55-.55.55-1.4 0-.85-.55-1.45-.6-.55-1.45-.55t-1.45.55q-.6.6-.6 1.45 0 .8.6 1.4z" id="L"/><path fill="#F8A38E" d="M502.25 273.05q.6.6 1.45.6.8 0 1.4-.6.6-.6.6-1.4 0-.85-.6-1.45t-1.4-.6q-.85 0-1.45.6t-.6 1.45q0 .8.6 1.4z" id="M"/><path fill="#F8A38E" d="M498.8 261.25q.65.6 1.45.6.85 0 1.45-.6.55-.6.55-1.4 0-.85-.55-1.45-.6-.6-1.45-.6t-1.45.6q-.6.6-.6 1.45 0 .8.6 1.4z" id="N"/><path fill="#F8A38E" d="M507.2 250.65q.6.6 1.45.6.8 0 1.4-.6.6-.6.6-1.4 0-.85-.6-1.45-.55-.55-1.4-.55-.85 0-1.45.55-.55.6-.55 1.45 0 .8.55 1.4z" id="O"/><path fill="#F8A38E" d="M492.9 246q.6.6 1.4.6.9 0 1.5-.6.55-.6.55-1.45 0-.8-.55-1.4-.6-.6-1.5-.6-.8 0-1.4.6-.6.6-.6 1.4 0 .85.6 1.45z" id="P"/><path fill="#F8A38E" d="M455.3 244.75q.6.6 1.45.6.8 0 1.4-.6.6-.6.6-1.4 0-.85-.6-1.45t-1.4-.6q-.85 0-1.45.6t-.6 1.45q0 .8.6 1.4z" id="Q"/></defs><use xlink:href="#j"/><use xlink:href="#k" transform="matrix(2.16907 0 0 2.16907 -872.972 -378.69)"/><use xlink:href="#l" transform="matrix(2.16907 0 0 2.16907 -872.972 -378.69)"/><use xlink:href="#m" transform="matrix(2.16907 0 0 2.16907 -872.972 -378.69)"/><use xlink:href="#n" transform="matrix(2.16907 0 0 2.16907 -872.972 -378.69)"/><use xlink:href="#o" transform="matrix(2.16907 0 0 2.16907 -872.972 -378.69)"/><use xlink:href="#p" transform="matrix(2.16907 0 0 2.16907 -872.972 -378.69)"/><use xlink:href="#q" transform="matrix(2.16907 0 0 2.16907 -872.972 -378.69)"/><use xlink:href="#r" transform="matrix(2.16907 0 0 2.16907 -872.972 -378.69)"/><use xlink:href="#s" transform="matrix(2.16907 0 0 2.16907 -872.972 -378.69)"/><use xlink:href="#t" transform="matrix(2.16907 0 0 2.16907 -872.972 -378.69)"/><use xlink:href="#u" transform="matrix(2.16907 0 0 2.16907 -872.972 -378.69)"/><use xlink:href="#v" transform="matrix(2.16907 0 0 2.16907 -872.972 -378.69)"/><use xlink:href="#w" transform="matrix(2.16907 0 0 2.16907 -872.972 -378.69)"/><use xlink:href="#x" transform="matrix(2.16907 0 0 2.16907 -872.972 -378.69)"/><use xlink:href="#y" transform="matrix(2.16907 0 0 2.16907 -872.972 -378.69)"/><use xlink:href="#z" transform="matrix(2.16907 0 0 2.16907 -872.972 -378.69)"/><use xlink:href="#A" transform="matrix(2.16907 0 0 2.16907 -872.972 -378.69)"/><use xlink:href="#B" transform="matrix(2.16907 0 0 2.16907 -872.972 -378.69)"/><use xlink:href="#C" transform="matrix(2.16907 0 0 2.16907 -872.972 -378.69)"/><use xlink:href="#D" transform="matrix(2.16907 0 0 2.16907 -872.972 -378.69)"/><use xlink:href="#E" transform="matrix(2.16907 0 0 2.16907 -872.972 -378.69)"/><use xlink:href="#F" transform="matrix(2.16907 0 0 2.16907 -872.972 -378.69)"/><use xlink:href="#G" transform="matrix(2.16907 0 0 2.16907 -872.972 -378.69)"/><use xlink:href="#H" transform="matrix(2.16907 0 0 2.16907 -872.972 -378.69)"/><use xlink:href="#I" transform="matrix(2.16907 0 0 2.16907 -872.972 -378.69)"/><use xlink:href="#J" transform="matrix(2.16907 0 0 2.16907 -872.972 -378.69)"/><use xlink:href="#K" transform="matrix(2.16907 0 0 2.16907 -872.972 -378.69)"/><use xlink:href="#L" transform="matrix(2.16907 0 0 2.16907 -872.972 -378.69)"/><use xlink:href="#M" transform="matrix(2.16907 0 0 2.16907 -872.972 -378.69)"/><use xlink:href="#N" transform="matrix(2.16907 0 0 2.16907 -872.972 -378.69)"/><use xlink:href="#O" transform="matrix(2.16907 0 0 2.16907 -872.972 -378.69)"/><use xlink:href="#P" transform="matrix(2.16907 0 0 2.16907 -872.972 -378.69)"/><use xlink:href="#Q" transform="matrix(2.16907 0 0 2.16907 -872.972 -378.69)"/></svg>