<svg xmlns="http://www.w3.org/2000/svg" xmlns:xlink="http://www.w3.org/1999/xlink" preserveAspectRatio="none" width="284" height="320"><defs><linearGradient id="a" gradientUnits="userSpaceOnUse" x1="327.113" y1="210.037" x2="344.787" y2="221.963" spreadMethod="pad"><stop offset="0%" stop-color="#AA4208"/><stop offset="100%" stop-color="#F36F12"/></linearGradient><linearGradient id="b" gradientUnits="userSpaceOnUse" x1="336.35" y1="207.6" x2="344.15" y2="222.9" spreadMethod="pad"><stop offset="0%" stop-color="#F36F12"/><stop offset="100%" stop-color="#FBBC76"/></linearGradient><linearGradient id="c" gradientUnits="userSpaceOnUse" x1="339.475" y1="218.762" x2="328.325" y2="219.738" spreadMethod="pad"><stop offset="0%" stop-color="#FBDFBB"/><stop offset="100%" stop-color="#FBB161"/></linearGradient><linearGradient id="d" gradientUnits="userSpaceOnUse" x1="247.688" y1="209.537" x2="230.212" y2="221.763" spreadMethod="pad"><stop offset="0%" stop-color="#B86023"/><stop offset="100%" stop-color="#F38B34"/></linearGradient><linearGradient id="e" gradientUnits="userSpaceOnUse" x1="238.063" y1="207.287" x2="230.538" y2="222.713" spreadMethod="pad"><stop offset="0%" stop-color="#F38B34"/><stop offset="100%" stop-color="#FBC88E"/></linearGradient><linearGradient id="f" gradientUnits="userSpaceOnUse" x1="234.463" y1="218.663" x2="245.638" y2="219.438" spreadMethod="pad"><stop offset="0%" stop-color="#FBDFBB"/><stop offset="100%" stop-color="#FBB161"/></linearGradient><linearGradient id="g" gradientUnits="userSpaceOnUse" x1="234.462" y1="299.55" x2="249.938" y2="299.55" spreadMethod="pad"><stop offset="0%" stop-color="#FDF3E5"/><stop offset="100%" stop-color="#FBD7AB"/></linearGradient><linearGradient id="h" gradientUnits="userSpaceOnUse" x1="319.9" y1="182.513" x2="319.9" y2="208.287" spreadMethod="pad"><stop offset="0%" stop-color="#F1B883"/><stop offset="100%" stop-color="#F38932"/></linearGradient><linearGradient id="i" gradientUnits="userSpaceOnUse" x1="334.038" y1="184.563" x2="312.063" y2="201.738" spreadMethod="pad"><stop offset="0%" stop-color="#FCE5C7"/><stop offset="100%" stop-color="#FC9D3F"/></linearGradient><linearGradient id="j" gradientUnits="userSpaceOnUse" x1="254.6" y1="182.513" x2="254.6" y2="208.287" spreadMethod="pad"><stop offset="0%" stop-color="#F1B883"/><stop offset="100%" stop-color="#F38932"/></linearGradient><linearGradient id="k" gradientUnits="userSpaceOnUse" x1="242.512" y1="185.5" x2="258.488" y2="198.9" spreadMethod="pad"><stop offset="0%" stop-color="#FCE5C7"/><stop offset="100%" stop-color="#FC9D3F"/></linearGradient><linearGradient id="l" gradientUnits="userSpaceOnUse" x1="268.462" y1="342.45" x2="287.038" y2="342.45" spreadMethod="pad"><stop offset="0%" stop-color="#F36F12"/><stop offset="100%" stop-color="#AA4208"/></linearGradient><linearGradient id="m" gradientUnits="userSpaceOnUse" x1="293.462" y1="342.45" x2="312.038" y2="342.45" spreadMethod="pad"><stop offset="0%" stop-color="#F36F12"/><stop offset="100%" stop-color="#AA4208"/></linearGradient><linearGradient id="n" gradientUnits="userSpaceOnUse" x1="288.5" y1="324.525" x2="288.5" y2="269.075" spreadMethod="pad"><stop offset="0%" stop-color="#F36F12"/><stop offset="100%" stop-color="#AA4208"/></linearGradient><linearGradient id="o" gradientUnits="userSpaceOnUse" x1="288.5" y1="310.512" x2="288.5" y2="274.887" spreadMethod="pad"><stop offset="0%" stop-color="#FBBC76"/><stop offset="38.824%" stop-color="#F47C1E"/><stop offset="100%" stop-color="#D9540D"/></linearGradient><linearGradient id="p" gradientUnits="userSpaceOnUse" x1="287.25" y1="234.525" x2="287.25" y2="265.975" spreadMethod="pad"><stop offset="0%" stop-color="#D9540D"/><stop offset="100%" stop-color="#F36F12"/></linearGradient><linearGradient id="q" gradientUnits="userSpaceOnUse" x1="287.2" y1="208.512" x2="287.2" y2="249.188" spreadMethod="pad"><stop offset="0%" stop-color="#E5600F"/><stop offset="100%" stop-color="#FF7F15"/></linearGradient><linearGradient id="r" gradientUnits="userSpaceOnUse" x1="287.25" y1="294.512" x2="287.25" y2="288.988" spreadMethod="pad"><stop offset="0%" stop-color="#FDD7C9"/><stop offset="100%" stop-color="#FCAD96"/></linearGradient><linearGradient id="s" gradientUnits="userSpaceOnUse" x1="287.25" y1="292.538" x2="287.25" y2="288.962" spreadMethod="pad"><stop offset="0%" stop-color="#FF3626"/><stop offset="100%" stop-color="#C31D0E"/></linearGradient><linearGradient id="t" gradientUnits="userSpaceOnUse" x1="265.35" y1="240.513" x2="265.35" y2="251.787" spreadMethod="pad"><stop offset="0%" stop-color="#68740E"/><stop offset="100%" stop-color="#96A718"/></linearGradient><linearGradient id="u" gradientUnits="userSpaceOnUse" x1="261.488" y1="249.3" x2="269.713" y2="249.3" spreadMethod="pad"><stop offset="0%" stop-color="#A4B61B"/><stop offset="49.02%" stop-color="#CAE024"/><stop offset="100%" stop-color="#A4B61B"/></linearGradient><linearGradient id="v" gradientUnits="userSpaceOnUse" x1="309.1" y1="240.513" x2="309.1" y2="251.787" spreadMethod="pad"><stop offset="0%" stop-color="#68740E"/><stop offset="100%" stop-color="#96A718"/></linearGradient><linearGradient id="w" gradientUnits="userSpaceOnUse" x1="305.488" y1="249.3" x2="313.713" y2="249.3" spreadMethod="pad"><stop offset="0%" stop-color="#A4B61B"/><stop offset="49.02%" stop-color="#CAE024"/><stop offset="100%" stop-color="#A4B61B"/></linearGradient><linearGradient id="x" gradientUnits="userSpaceOnUse" x1="287.25" y1="276.512" x2="287.25" y2="289.088" spreadMethod="pad"><stop offset="0%" stop-color="#FEEDE6"/><stop offset="100%" stop-color="#FDDBCE"/></linearGradient><linearGradient id="y" gradientUnits="userSpaceOnUse" x1="287.25" y1="275.55" x2="287.25" y2="281.45" spreadMethod="pad"><stop offset="0%" stop-color="#FCB59E"/><stop offset="100%" stop-color="#FCA289"/></linearGradient><linearGradient id="z" gradientUnits="userSpaceOnUse" x1="286.575" y1="276.563" x2="287.025" y2="285.237" spreadMethod="pad"><stop offset="0%" stop-color="#FCA289"/><stop offset="100%" stop-color="#FE6149"/></linearGradient><linearGradient id="A" gradientUnits="userSpaceOnUse" x1="287.3" y1="269.525" x2="287.3" y2="276.075" spreadMethod="pad"><stop offset="0%" stop-color="#FCB59E"/><stop offset="100%" stop-color="#FDDBCE"/></linearGradient><linearGradient id="B" gradientUnits="userSpaceOnUse" x1="287.3" y1="242.5" x2="287.3" y2="225.3" spreadMethod="pad"><stop offset="0%" stop-color="#FCE5C7"/><stop offset="100%" stop-color="#FFF"/></linearGradient><linearGradient id="C" gradientUnits="userSpaceOnUse" x1="228.6" y1="280.525" x2="228.6" y2="291.375" spreadMethod="pad"><stop offset="0%" stop-color="#FBBC76"/><stop offset="100%" stop-color="#FF7F15"/></linearGradient><linearGradient id="D" gradientUnits="userSpaceOnUse" x1="225.85" y1="281.525" x2="225.85" y2="267.175" spreadMethod="pad"><stop offset="0%" stop-color="#FBD7AB"/><stop offset="100%" stop-color="#FFF"/></linearGradient><linearGradient id="E" gradientUnits="userSpaceOnUse" x1="286.475" y1="272.5" x2="280.925" y2="272.5" spreadMethod="pad"><stop offset="0%" stop-color="#FEEDE6"/><stop offset="100%" stop-color="#FFF"/></linearGradient><linearGradient id="F" gradientUnits="userSpaceOnUse" x1="271.488" y1="201.1" x2="306.912" y2="201.1" spreadMethod="pad"><stop offset="0%" stop-color="#E5600F"/><stop offset="100%" stop-color="#AF2E06"/></linearGradient><linearGradient id="G" gradientUnits="userSpaceOnUse" x1="274.475" y1="195.55" x2="302.225" y2="195.55" spreadMethod="pad"><stop offset="0%" stop-color="#F36F12"/><stop offset="100%" stop-color="#D9540D"/></linearGradient><path fill="#FFF" fill-opacity="0" d="M284 0H0v320h284V0z" id="H"/><path fill="url(#a)" d="M327.2 226.65q1.5-.15 3.8.95 6.25 3 12.65 1.85 7.1-1.3 13.5-7.35 6.1-5.75 7.5-11.75.9-3.7-.55-6.1-1.65-2.7-6.45-4.05-8.35-2.35-14.7-1.55-8.5 1.1-12.5 7.75-2.7 4.5-7.95 4.1-1.75-.1-3.1-.75-.495-.238-.7-.4-.202 3.513-5.2 10.7-4.65 6.75-3.3 8.95 2.5 4.05 6.05 3.55 2.5-.4 5.9-3.25 2.95-2.45 5.05-2.65z" id="I"/><path fill="url(#b)" d="M362.05 209.85q.25-3-4-4.35-3.65-1.2-9.1-.8-5.65.4-8.2 1.45-3.3 1.35-6.05 5-3.7 5.2-4.35 5.8-2.95 2.5-8.3 2l-1.6 6.75q5.75-1.6 9.05-1.15 1.75.3 4.6 1.85 3.8 2.1 9 1.15 4.9-.85 9.6-4.15 8.65-6.25 9.35-13.55z" id="J"/><path fill="url(#c)" d="M339.45 212.75q.15-1.1 2.25-2.2 1.77-.927 2.9-.85-5.71-.95-8.9 3.35-4.45 6.15-10.45 5.75l1 4.3q5.15-1.1 7.55-.65 3.3.65 5.95 4.45-.55-1.9-1-2.75-.4-.85-1.4-2.05 1.6.1 4.2 2.05 2.41 1.796 2.65 3-.34-2.056-1.55-3.75-1.15-1.6-1.95-1.65 1.35-.1 2.9.7 1.75.9 3 2.7.079.134.15.25-.936-2.14-2.35-3.6-1.9-1.95-4.35-2.2.95-.6 3.35-.4 3.2.2 5.85 2.1-1.95-2.9-5.1-3.85-2.55-.75-4.4-.1 1.25-1.2 4.4-1.35 3.076-.195 4.2.8-2.04-1.906-5.1-2.35-1.95-.35-3.2-.05.05-.6 3.35-1.25 3.25-.6 4.05-.25-2.35-1.1-4.95-1-2.15.1-3.05.85z" id="K"/><path fill="url(#d)" d="M252 210.5q-5.25.4-7.95-4.1-4-6.65-12.5-7.75-6.35-.8-14.7 1.55-4.8 1.35-6.4 4.05-1.5 2.4-.6 6.1 1.4 6 7.5 11.75 6.4 6.05 13.5 7.35 6.4 1.15 12.65-1.85 2.3-1.1 3.8-.95 2.1.2 5.05 2.65 3.4 2.85 5.9 3.25 3.55.5 6.05-3.55 1.35-2.2-3.3-8.95-5.022-7.202-5.3-10.7-.195.182-.65.4-1.3.65-3.05.75z" id="L"/><path fill="url(#e)" d="M254 225.7l-1.5-6.75q-5.4.5-8.3-2-.5-.45-4.4-5.8-2.75-3.65-6.05-5-2.55-1.05-8.2-1.45-5.5-.4-9.15.8-4.2 1.35-3.95 4.35.6 7.25 9.35 13.55 4.7 3.3 9.6 4.15 5.2.95 9-1.15 2.85-1.55 4.6-1.85 3.3-.45 9 1.15z" id="M"/><path fill="url(#f)" d="M248.25 223.1l.9-4.3q-5.75.4-10.45-5.75-3.044-4.3-8.8-3.35 1.135-.075 2.9.85 2.1 1.1 2.25 2.2-.9-.75-3.05-.85-2.6-.1-4.95 1 .8-.35 4 .25 3.25.65 3.45 1.25-1.25-.3-3.2.05-3.11.444-5.15 2.35 1.124-.995 4.2-.8 3.15.15 4.35 1.35-1.8-.65-4.35.1-3.15.95-5.1 3.85 2.65-1.9 5.85-2.1 2.35-.2 3.4.4-4.4.4-6.95 6.05-.15.35.35-.5 1.3-1.8 3-2.7 1.55-.8 2.95-.7-.85.05-2 1.65-1.35 1.75-1.7 3.9.25-1.25 2.8-3.15 2.6-1.95 4.2-2.05-1.05 1.2-1.5 2.05-.4.85-.9 2.75 2.6-3.8 5.95-4.45 2.4-.45 7.55.65z" id="N"/><path fill="#FBD7AB" d="M235.35 296.1q-2.25-3.5-.45-8.05l-7.5-2.95q-1.65 4.35-1.2 8.5.4 3.85 2.5 7.05 2.2 3.2 5.65 4.95 3.45 1.8 7.35 1.8 4.05 0 7.65-2 4-2.15 6.85-6.4l-6.55-4.55q-1.7 2.5-3.85 3.8-2 1.2-4.1 1.2-2 0-3.6-.9-1.75-.85-2.75-2.45z" id="O"/><path fill="url(#g)" d="M241.3 300.95q-2.75 0-5.15-1.2-2.35-1.2-3.7-3.2 1 2.6 3.4 4.25 2.5 1.7 5.45 1.7 3 0 5.45-1.7 2.4-1.65 3.4-4.25-1.35 2-3.7 3.2-2.4 1.2-5.15 1.2z" id="P"/><path fill="url(#h)" d="M334 190.85q1.35-4.9.1-11-.6-3.25-1.5-3-.8.25-1.3 3.05-.9 5.55-4.4 8.35-2.35 1.95-7.5 3.4-6.15 1.8-8.1 2.8-4.3 2.25-6.25 6.55l9.25 13.05q1.45-3.7 4.6-6.4.55-.5 5.85-4.2 7.15-4.9 9.25-12.6z" id="Q"/><path fill="url(#i)" d="M332.45 186.45q.35-2.3 0-5.45-1 7.3-5.55 10.3-2.15 1.45-8.05 2.7-5.2 1.15-8.25 4.05 2.7-1.75 5.4-2.15 1.05-.15 4.75-.15 10.6.1 11.7-9.3z" id="R"/><path fill="url(#j)" d="M240.4 179.85q-1.25 6.1.05 11 2.15 7.65 9.2 12.6 5.15 3.5 5.95 4.2 3.1 2.65 4.5 6.4l9.3-13.05q-1.95-4.3-6.2-6.55-1.95-1-8.1-2.8-5.15-1.45-7.5-3.4-3.5-2.8-4.4-8.35-.5-2.8-1.3-3.05-.9-.25-1.5 3z" id="S"/><path fill="url(#k)" d="M242.05 181q-.35 3.15 0 5.45 1.2 9.4 11.7 9.3 3.65 0 4.7.15 2.75.4 5.45 2.15-3.05-2.9-8.2-4.05-5.95-1.25-8.1-2.7-4.65-3.05-5.55-10.3z" id="T"/><path fill="#FBCA91" d="M326.9 294.8q0-1.9-2.5-3.45-2.3-1.45-4.75-1.45H308.4q-2.45 0-4.45 1.2-2.25 1.3-2.25 3.15 0 3.65.8 6.6.85 3.05.9 7.2 0 3.6 1 7.2.4 1.4 1.5 4.2 1.4 3.65.15 7.35-1.65 5-1.65 6.95 0 2.55 3.25 3.75 2.5.95 6.4.95 3.85 0 6.4-.95 3.25-1.2 3.25-3.75 0-2-1.7-6.95-1.25-3.7.15-7.35 1.1-2.75 1.4-3.85.85-3.3.7-6.9-.15-4.3 1.2-7.3 1.45-3.15 1.45-6.6z" id="U"/><path fill="#FBAC59" d="M322.3 327.75q-5.6 1.05-8.25 1.05-2.65 0-8.3-1.05-1.35 3.55-1.35 6 0 2.55 3.25 3.75 2.5.95 6.4.95 3.85 0 6.4-.95 3.25-1.2 3.25-3.75 0-1.65-.45-3.3-.25-.85-.95-2.7z" id="V"/><path fill="#FBCA91" d="M268.6 289.9h-11.15q-2.45 0-4.8 1.45-2.5 1.55-2.5 3.45 0 3.45 1.4 6.6 1.35 3 1.2 7.3-.15 3.6.75 6.9.3 1.2 1.35 3.85 1.45 3.65.2 7.35-1.7 5-1.7 6.95 0 2.55 3.25 3.75 2.5.95 6.4.95 3.85 0 6.4-.95 3.25-1.2 3.25-3.75 0-2-1.65-6.95-1.25-3.7.1-7.35 1.15-2.95 1.5-4.2 1.05-3.6 1.05-7.2.05-4.2.85-7.2.8-3 .8-6.6 0-1.9-2.2-3.15-2.05-1.2-4.5-1.2z" id="W"/><path fill="#FBAC59" d="M263 328.8q-2.65 0-8.3-1.05-1.35 3.55-1.35 6 0 2.55 3.25 3.75 2.5.95 6.4.95 3.85 0 6.4-.95 3.25-1.2 3.25-3.75 0-1.65-.45-3.3-.25-.85-.95-2.7-5.55 1.05-8.25 1.05z" id="X"/><path fill="#FD8F26" d="M282.95 287.7h-14.2q-3.15 0-6.05 1.85-3.15 1.95-3.15 4.4 0 4.3 1.8 8.25 1.7 3.8 1.5 9.3-.15 4.55.95 8.7.3 1.05 1.7 4.95 1.85 4.6.3 9.3-2.15 6.35-2.15 8.85 0 3.2 4.1 4.75 3.2 1.2 8.05 1.2 4.95 0 8.15-1.2 4.1-1.55 4.1-4.75 0-2.55-2.15-8.85-1.55-4.7.2-9.3 1.55-4 1.95-5.4 1.3-4.5 1.3-9 .05-5.35 1.05-9.2 1.05-3.85 1.05-8.4 0-2.35-2.8-4-2.55-1.45-5.7-1.45z" id="Y"/><path fill="url(#l)" d="M288.05 343.3q0-3.45-1.75-7.65-7.05 1.35-10.45 1.35-3.4 0-10.55-1.35-1.65 4.45-1.65 7.65t4.1 4.75q3.2 1.2 8.05 1.2 4.95 0 8.15-1.2 4.1-1.55 4.1-4.75z" id="Z"/><path fill="#FBCA91" d="M265.45 346.8q1.15.85 2.35 1.25l-.15-9.95-2.2 8.7z" id="aa"/><path fill="#FD8F26" d="M308.25 287.7h-14.1q-3.1 0-5.65 1.45-2.85 1.65-2.85 4 0 4.55 1.05 8.4 1.05 3.85 1.05 9.2 0 4.5 1.3 9 .4 1.4 1.95 5.4 1.75 4.6.2 9.3-2.15 6.3-2.15 8.85 0 3.2 4.1 4.75 3.2 1.2 8.05 1.2 4.9 0 8.1-1.2 4.1-1.55 4.1-4.75 0-2.5-2.15-8.85-1.55-4.7.25-9.3 1.5-4.1 1.75-4.95 1.1-4.15.95-8.7-.2-5.5 1.5-9.3 1.8-3.95 1.8-8.25 0-2.45-3.15-4.4-2.95-1.85-6.1-1.85z" id="ab"/><path fill="url(#m)" d="M301.2 337q-3.4 0-10.4-1.35-1.75 4.2-1.75 7.65 0 3.2 4.1 4.75 3.2 1.2 8.05 1.2 4.9 0 8.1-1.2 4.1-1.55 4.1-4.75 0-2.1-.55-4.2-.25-1-1.1-3.45-7.1 1.35-10.55 1.35z" id="ac"/><path fill="#FBCA91" d="M291 346.8q1.15.85 2.35 1.25l-.1-9.95-2.25 8.7z" id="ad"/><path fill="url(#n)" d="M255.3 266.85q-9.75 9.5-8.1 23.7 1.6 13.75 12.6 23.7Q271.7 325 288.55 325q16.8 0 28.7-10.75 10.95-9.95 12.55-23.7 1.7-14.2-8.05-23.7-11.05-10.75-33.2-10.75-22.2 0-33.25 10.75z" id="ae"/><path fill="url(#o)" d="M275.35 256.45q-14.3 6.45-15.95 19.95-1.5 12.75 8.65 21.45 2.2 1.85 5.6 3.7 1.95 1.05 5.95 3 5.7 3.05 8.95 6.05 3.25-3 8.95-6.05 1.95-1 5.9-3 3.45-1.85 5.6-3.7 10.15-8.7 8.6-21.45-1.6-13.5-15.95-19.95-6.4-2.95-13.1-2.55-6.65-.4-13.2 2.55z" id="af"/><path fill="url(#p)" d="M323.8 215q-6.5-12.05-21.5-15.7-6.3-1.65-15.05-1.55-8.65-.1-15.05 1.55-15 3.65-21.5 15.7-5.3 9.85-4.5 23.95.45 8.45 4.75 16.75 3.95 7.6 10.45 13.85 3.55 3.4 7.05 12.1 2.5 6.25 8.4 5.15 1.25-.25 5.1-1.55 3.25-1.05 5.1-1.15h.5q3.3.15 10.15 2.7 5.85 1.1 8.35-5.15 3.55-8.7 7.05-12.1 6.5-6.25 10.45-13.85 4.3-8.3 4.75-16.75.85-14.1-4.5-23.95z" id="ag"/><path fill="url(#q)" d="M311.45 202.75q-3.7-1.85-5.55-2.85l-40.4 1.3q-5 2.3-9.55 6.7-5.45 5.5-8 13.7 1.8 3.9 6.1 5.85 4.8 2.2 10.95 1 8-1.7 12.7 2 5.85 4.55 5.45 16.95-.3 10.4-3.95 18.4l8.05 2 8.05-2q-3.65-8-3.9-18.4-.35-12.4 5.5-16.95 4.6-3.7 12.55-2 6.2 1.2 11-1 4.3-1.95 6.05-5.85-2.85-9.6-9.85-15.4-2-1.7-5.2-3.45z" id="ah"/><path fill="#FBD7AB" d="M295.25 243.7q1.15-8.1 4.7-13.4 2.15-3.25 7.95-10.55 6.6-9.8-1.7-17.55-5.2-4.8-18.95-10.25-13.75 5.4-18.95 10.25-8.3 7.75-1.7 17.55 3.1 4.55 8 10.55 3.55 5.3 4.75 13.4.85 5.9-.05 11.85-.85 5.8-2.8 7.8-5.15 5.55-6.25 8.5-1.6 4.25 1 9.95l8.35.55 7.65 1.65 7.7-1.65 8.3-.55q2.6-5.7 1-9.95-1.1-3-6.25-8.5-1.9-2.05-2.75-7.8-.9-6 0-11.85z" id="ai"/><path fill="url(#r)" d="M275.95 272.45q-4.7 3.8-4.7 9.1 0 13.2 12.85 13h6.1q13.05.3 13.05-13 0-5.3-4.7-9.1-4.65-3.75-11.3-3.85-6.6.1-11.3 3.85z" id="aj"/><path fill="url(#s)" d="M272.7 279.7q0 5.8 4.55 9.2 4.1 3.05 10 3.05t10-3.05q4.55-3.4 4.55-9.2 0-4.8-4.25-8.3-4.3-3.45-10.3-3.5-6 .05-10.25 3.5-4.3 3.5-4.3 8.3z" id="ak"/><path fill="#AA4208" d="M258.85 234.6q-2.85 2.1-3.95 5.5-.4 1.2-.1 2.05.35 1 1.55 1.35 1 .2 1.85-.3 1.05-.6 1.35-2.1h11.65q.35 1.5 1.35 2.1.85.5 1.9.3 2.25-.65 1.4-3.4-1.05-3.35-3.9-5.5-2.9-2.15-6.5-2.15h-.1q-3.65 0-6.5 2.15z" id="al"/><path d="M257.5 244.05l1.8-3.65q-2.45 1.15-4.7-.25-2.5-1.6-2.2-5.45-1.2 3.15 0 5.7 1.3 2.8 5.1 3.65z" id="am"/><path d="M258.9 241.75l1.5-3.15q-2.3 1.15-4.25-.15-2.1-1.45-1.15-4.75-1.55 2.45-.45 4.85 1.15 2.5 4.35 3.2z" id="an"/><path fill="#FFF" d="M265.35 236.85q-3.55 0-6.1 2.55t-2.55 6.1q0 3.55 2.55 6.1t6.1 2.55q3.55 0 6.1-2.55t2.55-6.1q0-3.55-2.55-6.1t-6.1-2.55z" id="ao"/><path fill="url(#t)" d="M265.35 238.95q-2.7 0-4.6 1.95-1.95 1.9-1.95 4.6 0 2.7 1.95 4.65 1.9 1.9 4.6 1.9 2.75 0 4.65-1.9 1.9-1.95 1.9-4.65t-1.9-4.6q-1.9-1.95-4.65-1.95z" id="ap"/><path fill="url(#u)" d="M265.35 251.35q2.7 0 4.5-2.05.85-1.1.1-1.8-.85-.6-1.7.4-1.05 1.35-2.9 1.35-1.75 0-2.85-1.35-.45-.55-.95-.6-.45-.05-.7.2-.9.65.1 1.8 1.8 2.05 4.4 2.05z" id="aq"/><path d="M265.35 242.5q-1.25 0-2.1.9-.85.85-.85 2.1t.85 2.1q.85.85 2.1.85t2.15-.85q.9-.85.9-2.1t-.9-2.1q-.9-.9-2.15-.9z" id="ar"/><path fill="#FFF" d="M268.55 244.9q-.45 0-.75.3-.3.25-.3.65 0 1 1.05 1 .9 0 .9-1 0-.4-.25-.65-.3-.3-.65-.3z" id="as"/><path fill="#FFF" d="M262.7 241.4q-.8 0-1.4.55-.55.5-.55 1.3t.55 1.35q.6.55 1.4.55.75 0 1.3-.55t.55-1.35q0-.8-.55-1.3-.55-.55-1.3-.55z" id="at"/><path fill="#AA4208" d="M302.55 234.6q-2.85 2.1-3.9 5.5-.85 2.75 1.4 3.4 1.05.2 1.9-.3 1-.6 1.3-2.1h11.7q.3 1.5 1.3 2.1.85.5 1.9.3 1.2-.35 1.55-1.35.3-.85-.1-2.05-1.1-3.4-3.95-5.5-2.85-2.15-6.5-2.15h-.1q-3.65 0-6.5 2.15z" id="au"/><path d="M315.2 240.4l1.7 3.65q3.9-.85 5.2-3.65 1.2-2.5 0-5.7.3 3.85-2.2 5.45-2.25 1.4-4.7.25z" id="av"/><path d="M314.1 238.6l1.5 3.15q3.2-.7 4.35-3.2 1.1-2.4-.45-4.85 1 3.3-1.15 4.75-1.9 1.3-4.25.15z" id="aw"/><path fill="#FFF" d="M315.2 239.4q-2.5-2.55-6.05-2.55-3.6 0-6.15 2.55-2.5 2.5-2.5 6.1 0 3.6 2.5 6.1 2.55 2.55 6.15 2.55 3.55 0 6.05-2.55t2.5-6.1q0-3.55-2.5-6.1z" id="ax"/><path fill="url(#v)" d="M309.15 238.95q-2.75 0-4.7 1.95-1.95 1.9-1.95 4.6 0 2.7 1.95 4.65 1.95 1.9 4.7 1.9 2.7 0 4.65-1.9 1.9-1.95 1.9-4.65t-1.9-4.6q-1.95-1.95-4.65-1.95z" id="ay"/><path fill="url(#w)" d="M309.05 251.35q2.7 0 4.5-2.05.85-1.1.15-1.8-.9-.55-1.7.4-1.1 1.35-2.95 1.35-1.75 0-2.85-1.35-.8-1-1.65-.4-.35.3-.3.8 0 .55.45 1 1.7 2.05 4.35 2.05z" id="az"/><path d="M309.15 242.5q-1.25 0-2.15.9-.9.85-.9 2.1t.9 2.1q.9.85 2.15.85 1.2 0 2.05-.85.9-.9.9-2.1 0-1.2-.9-2.1-.85-.9-2.05-.9z" id="aA"/><path fill="#FFF" d="M312.25 244.9q-.35 0-.65.3-.3.3-.3.65 0 .45.3.75.25.25.65.25.9 0 .9-1 0-.4-.25-.65-.3-.3-.65-.3z" id="aB"/><path fill="#FFF" d="M306.4 241.4q-.8 0-1.35.55-.5.5-.5 1.3t.5 1.35q.55.55 1.35.55.75 0 1.3-.55t.55-1.35q0-.8-.55-1.3-.55-.55-1.3-.55z" id="aC"/><path fill="url(#x)" d="M270.75 286.25q2.2 1.5 7.7 2.15 1.45.2 4.5-.6 3.35-.9 4.75-.9 1.45 0 4.15.9 2.5.85 3.85.7 6-.75 8.05-2.25 2.7-1.95 2.45-6.55-.4-5.25-2.8-9.5-2.15-3.8-6.35-4.65-1.85-.4-9.8-.4-7.9 0-9.8.4-4.25.85-6.4 4.65-2.35 4.3-2.75 9.5-.25 4.65 2.45 6.55z" id="aD"/><path fill="url(#y)" d="M281.5 268.2q-2.85.75-4.1 2.85-.65-.65-1.85-.75-1.2-.1-2.05.4-1.95 1.15-2.3 3.85-.35 2.3.45 4.8 2 7.05 6.65 9.05 1.45.2 4.3-.5 3.2-.8 4.6-.8 1.45 0 4.7.8 2.85.7 4.35.5 4.4-1.9 6.65-9.05.75-2.55.4-4.8-.4-2.7-2.35-3.85-.8-.5-1.95-.4-1.15.1-1.8.75-1.3-2.1-4.15-2.85-1.95-.5-5.8-.5-3.85 0-5.75.5z" id="aE"/><path fill="url(#z)" d="M283.25 283.8q-1.35 4.55-4.85 4.6 4.05.55 8.85.55 4.75 0 8.8-.55-3.6.1-5-4.55-1.5-4.8 1.75-8.75-3.85-2.8-5.7-1.3-1.7-1.55-5.6 1.3 3.2 3.95 1.75 8.7z" id="aF"/><path fill="#F22614" d="M280.25 277.1q-.85-.2-1.15-.3-2.2-.75-2.15-3.2 0-1.3-1.05-1.4-1.05-.05-1.4 1.15-.65 2.3.1 4.8.85 2.75 2.95 3.65 1.85.7 3.45.2 1.35-.5 1.8-1.6.3-.9-.15-1.75-.4-.85-1.3-1.25-.35-.15-1.1-.3z" id="aG"/><path fill="#AA180B" d="M281.35 277.4q-.35-.15-1.1-.3-.85-.2-1.15-.3-1.95-.5-2.15-2.7 0 2.05.8 3.7.85 1.9 2.45 2.55 1.15.5 2.45.35l.15-.3q.3-.9-.15-1.75-.4-.85-1.3-1.25z" id="aH"/><path fill="#F22614" d="M297.6 273.6q.15 2.5-2.15 3.2-1.6.3-2.3.6-.8.4-1.25 1.25-.4.9-.1 1.75.45 1.15 1.7 1.6 1.65.5 3.55-.2 2-.9 2.85-3.65.75-2.5.1-4.8-.35-1.2-1.35-1.15-1.05.1-1.05 1.4z" id="aI"/><path fill="#AA180B" d="M296.8 277.8q.8-1.65.8-3.7-.15 2.15-2.15 2.7-1.6.3-2.3.6-.8.4-1.25 1.25-.4.9-.1 1.75.1.25.15.3 1.25.15 2.35-.35 1.6-.65 2.5-2.55z" id="aJ"/><path fill="url(#A)" d="M279.1 272.35q0 1.9 1.45 2.55 2.15 1 6.7 1 4.6 0 6.75-1 1.45-.65 1.45-2.55t-1.45-2.6q-2.15-1-6.75-1-4.55 0-6.7 1-1.45.7-1.45 2.6z" id="aK"/><path fill="url(#B)" d="M289.7 241.6q1.7-4.75 2.25-7.15.95-4.05-.65-7.3-.6-1.2-2.25-3.65-1.25-1.9-1.8-3.55-.55 1.65-1.8 3.55-1.55 2.4-2.15 3.65-1.65 3.25-.7 7.3.55 2.4 2.25 7.15 1.6 5.75 2.4 13.35 1.05-8.35 2.45-13.35z" id="aL"/><path fill="url(#C)" d="M232.25 268.1q-.6-2.15-.5-4.05.15-2.1 1.2-3.2-3.1 1.7-4.2 2.5-2.3 1.7-4.95 4.85-5.05 5.9-5.1 12.55 0 7.5 7.2 10.7 4.25-2.05 8.6-.25 3.35-3 3.85-7.15.4-3.4-1.15-7-.55-1.35-2.6-4.35-1.8-2.65-2.35-4.6z" id="aM"/><path fill="url(#D)" d="M227.3 271.2q.05-3.2 1.8-5.25-2.15 1.8-4.05 4.9-2.05 3.25-2.4 5.75-.35 3 .85 4.65 1 1.45 2.6 1.25 1.55-.2 2.25-1.5.85-1.6-.05-4.4-1-2.9-1-5.4z" id="aN"/><path fill="url(#E)" d="M281.6 271.55q-1.1.35-1.1.95 0 .55 1.1.95 1.05.4 2.55.4 1.45 0 2.55-.4 1.05-.4 1.05-.95 0-.6-1.05-.95-1.05-.4-2.55-.4-1.55 0-2.55.4z" id="aO"/><path fill="url(#F)" d="M273 192.2q-5.7.2-8.65-3.6.35 3.75 3.3 6.1 3.05 2.4 7.15 1.75-2.45 1.1-6.2.15-4.75-1.25-8.5-5.45 1.35 7.85 6.3 11.2 4.85 3.3 12.7 1.9-3.1 4.35-12.3 1.95 4.25 5.05 12.45 4.25 7.65-.8 11.55-5.4-1.25 3.65-4.35 5.65-2.5 1.65-7.05 2.6 7.25.8 11.9-.9 5.45-1.95 8.75-7.65-.4 5.85-6.2 8.85 7.9-1.1 11.4-4.95 3.45-3.8 2.1-9.65-1.6-6.95-9.45-9.4-7-2.2-13.9.1-7.1 2.35-11 2.5z" id="aP"/><path fill="url(#G)" d="M270.1 193.45q4 2.5 10.75 1-1.95 2.6-6.75 3.6-4.25.9-6.35.1 5.7 4.75 14.1 1.4 1.25-.5 5.25-2.8 3.4-1.95 5.9-2.6 3.85-1 7 0 3.8 1.2 5.7 5.15-1.15-4.1-4.8-6.55-4.15-2.75-10.2-2.55-2.35.05-10.45 2.45-6.55 1.95-10.15.8z" id="aQ"/></defs><use xlink:href="#H"/><use xlink:href="#I" transform="matrix(1.55223 0 0 1.5522 -303.792 -227.307)"/><use xlink:href="#J" transform="matrix(1.55223 0 0 1.5522 -303.792 -227.307)"/><use xlink:href="#K" transform="matrix(1.55223 0 0 1.5522 -303.792 -227.307)"/><use xlink:href="#L" transform="matrix(1.55223 0 0 1.5522 -303.792 -227.307)"/><use xlink:href="#M" transform="matrix(1.55223 0 0 1.5522 -303.792 -227.307)"/><use xlink:href="#N" transform="matrix(1.55223 0 0 1.5522 -303.792 -227.307)"/><use xlink:href="#O" transform="matrix(1.55223 0 0 1.5522 -303.792 -227.307)"/><use xlink:href="#P" transform="matrix(1.55223 0 0 1.5522 -303.792 -227.307)"/><use xlink:href="#Q" transform="matrix(1.55223 0 0 1.5522 -303.792 -227.307)"/><use xlink:href="#R" transform="matrix(1.55223 0 0 1.5522 -303.792 -227.307)"/><use xlink:href="#S" transform="matrix(1.55223 0 0 1.5522 -303.792 -227.307)"/><use xlink:href="#T" transform="matrix(1.55223 0 0 1.5522 -303.792 -227.307)"/><use xlink:href="#U" transform="matrix(1.55223 0 0 1.5522 -303.792 -227.307)"/><use xlink:href="#V" transform="matrix(1.55223 0 0 1.5522 -303.792 -227.307)"/><use xlink:href="#W" transform="matrix(1.55223 0 0 1.5522 -303.792 -227.307)"/><use xlink:href="#X" transform="matrix(1.55223 0 0 1.5522 -303.792 -227.307)"/><use xlink:href="#Y" transform="matrix(1.55223 0 0 1.5522 -303.792 -227.307)"/><use xlink:href="#Z" transform="matrix(1.55223 0 0 1.5522 -303.792 -227.307)"/><use xlink:href="#aa" transform="matrix(1.55223 0 0 1.5522 -303.792 -227.307)"/><use xlink:href="#ab" transform="matrix(1.55223 0 0 1.5522 -303.792 -227.307)"/><use xlink:href="#ac" transform="matrix(1.55223 0 0 1.5522 -303.792 -227.307)"/><use xlink:href="#ad" transform="matrix(1.55223 0 0 1.5522 -303.792 -227.307)"/><use xlink:href="#ae" transform="matrix(1.55223 0 0 1.5522 -303.792 -227.307)"/><use xlink:href="#af" transform="matrix(1.55223 0 0 1.5522 -303.792 -227.307)"/><use xlink:href="#ag" transform="matrix(1.55223 0 0 1.5522 -303.792 -227.307)"/><use xlink:href="#ah" transform="matrix(1.55223 0 0 1.5522 -303.792 -227.307)"/><use xlink:href="#ai" transform="matrix(1.55223 0 0 1.5522 -303.792 -227.307)"/><use xlink:href="#aj" transform="matrix(1.55223 0 0 1.5522 -303.792 -227.307)"/><use xlink:href="#ak" transform="matrix(1.55223 0 0 1.5522 -303.792 -227.307)"/><use xlink:href="#al" transform="matrix(1.55223 0 0 1.5522 -303.792 -227.307)"/><use xlink:href="#am" transform="matrix(1.55223 0 0 1.5522 -303.792 -227.307)"/><use xlink:href="#an" transform="matrix(1.55223 0 0 1.5522 -303.792 -227.307)"/><use xlink:href="#ao" transform="matrix(1.55223 0 0 1.5522 -303.792 -227.307)"/><use xlink:href="#ap" transform="matrix(1.55223 0 0 1.5522 -303.792 -227.307)"/><use xlink:href="#aq" transform="matrix(1.55223 0 0 1.5522 -303.792 -227.307)"/><use xlink:href="#ar" transform="matrix(1.55223 0 0 1.5522 -303.792 -227.307)"/><use xlink:href="#as" transform="matrix(1.55223 0 0 1.5522 -303.792 -227.307)"/><use xlink:href="#at" transform="matrix(1.55223 0 0 1.5522 -303.792 -227.307)"/><use xlink:href="#au" transform="matrix(1.55223 0 0 1.5522 -303.792 -227.307)"/><use xlink:href="#av" transform="matrix(1.55223 0 0 1.5522 -303.792 -227.307)"/><use xlink:href="#aw" transform="matrix(1.55223 0 0 1.5522 -303.792 -227.307)"/><use xlink:href="#ax" transform="matrix(1.55223 0 0 1.5522 -303.792 -227.307)"/><use xlink:href="#ay" transform="matrix(1.55223 0 0 1.5522 -303.792 -227.307)"/><use xlink:href="#az" transform="matrix(1.55223 0 0 1.5522 -303.792 -227.307)"/><use xlink:href="#aA" transform="matrix(1.55223 0 0 1.5522 -303.792 -227.307)"/><use xlink:href="#aB" transform="matrix(1.55223 0 0 1.5522 -303.792 -227.307)"/><use xlink:href="#aC" transform="matrix(1.55223 0 0 1.5522 -303.792 -227.307)"/><use xlink:href="#aD" transform="matrix(1.55223 0 0 1.5522 -303.792 -227.307)"/><use xlink:href="#aE" transform="matrix(1.55223 0 0 1.5522 -303.792 -227.307)"/><use xlink:href="#aF" transform="matrix(1.55223 0 0 1.5522 -303.792 -227.307)"/><use xlink:href="#aG" transform="matrix(1.55223 0 0 1.5522 -303.792 -227.307)"/><use xlink:href="#aH" transform="matrix(1.55223 0 0 1.5522 -303.792 -227.307)"/><use xlink:href="#aI" transform="matrix(1.55223 0 0 1.5522 -303.792 -227.307)"/><use xlink:href="#aJ" transform="matrix(1.55223 0 0 1.5522 -303.792 -227.307)"/><use xlink:href="#aK" transform="matrix(1.55223 0 0 1.5522 -303.792 -227.307)"/><use xlink:href="#aL" transform="matrix(1.55223 0 0 1.5522 -303.792 -227.307)"/><use xlink:href="#aM" transform="matrix(1.55223 0 0 1.5522 -303.792 -227.307)"/><use xlink:href="#aN" transform="matrix(1.55223 0 0 1.5522 -303.792 -227.307)"/><use xlink:href="#aO" transform="matrix(1.55223 0 0 1.5522 -303.792 -227.307)"/><use xlink:href="#aP" transform="matrix(1.55223 0 0 1.5522 -303.792 -227.307)"/><use xlink:href="#aQ" transform="matrix(1.55223 0 0 1.5522 -303.792 -227.307)"/></svg>