<svg xmlns="http://www.w3.org/2000/svg" xmlns:xlink="http://www.w3.org/1999/xlink" preserveAspectRatio="none" width="284" height="320"><defs><linearGradient id="a" gradientUnits="userSpaceOnUse" x1="190.85" y1="325.563" x2="176.75" y2="314.138" spreadMethod="pad"><stop offset="0%" stop-color="#A6572D"/><stop offset="100%" stop-color="#7F3127"/></linearGradient><linearGradient id="b" gradientUnits="userSpaceOnUse" x1="195.05" y1="315.538" x2="195.05" y2="336.462" spreadMethod="pad"><stop offset="0%" stop-color="#E2BA9A"/><stop offset="100%" stop-color="#C17B42"/></linearGradient><linearGradient id="c" gradientUnits="userSpaceOnUse" x1="84.088" y1="327.563" x2="98.313" y2="316.038" spreadMethod="pad"><stop offset="0%" stop-color="#C6814C"/><stop offset="100%" stop-color="#8D3D29"/></linearGradient><linearGradient id="d" gradientUnits="userSpaceOnUse" x1="79.888" y1="316.55" x2="81.013" y2="337.95" spreadMethod="pad"><stop offset="0%" stop-color="#E9CBB4"/><stop offset="100%" stop-color="#D9A77E"/></linearGradient><linearGradient id="e" gradientUnits="userSpaceOnUse" x1="111.363" y1="299.112" x2="157.438" y2="296.688" spreadMethod="pad"><stop offset="0%" stop-color="#B0612E"/><stop offset="100%" stop-color="#6E2D24"/></linearGradient><linearGradient id="f" gradientUnits="userSpaceOnUse" x1="143.738" y1="307.063" x2="124.263" y2="280.237" spreadMethod="pad"><stop offset="0%" stop-color="#D2996A"/><stop offset="100%" stop-color="#E4BFA1"/></linearGradient><linearGradient id="g" gradientUnits="userSpaceOnUse" x1="172.45" y1="326.6" x2="103.25" y2="326.6" spreadMethod="pad"><stop offset="0%" stop-color="#26AD54"/><stop offset="14.118%" stop-color="#008C4A"/><stop offset="40%" stop-color="#0EA251"/><stop offset="54.118%" stop-color="#4FAE5B"/><stop offset="76.863%" stop-color="#93CB78"/><stop offset="100%" stop-color="#51B95B"/></linearGradient><linearGradient id="h" gradientUnits="userSpaceOnUse" x1="172.488" y1="333.75" x2="105.012" y2="333.75" spreadMethod="pad"><stop offset="0%" stop-color="#D6313B"/><stop offset="14.118%" stop-color="#AD2D33"/><stop offset="40%" stop-color="#D6313B"/><stop offset="54.118%" stop-color="#EF4A47"/><stop offset="76.863%" stop-color="#F9B4A0"/><stop offset="100%" stop-color="#E4323D"/></linearGradient><linearGradient id="i" gradientUnits="userSpaceOnUse" x1="172.45" y1="333.2" x2="104.95" y2="333.2" spreadMethod="pad"><stop offset="0%" stop-color="#E7E8E9"/><stop offset="14.118%" stop-color="#D2D4D5"/><stop offset="40%" stop-color="#E5E6E7"/><stop offset="54.118%" stop-color="#D2D4D5"/><stop offset="76.863%" stop-color="#FFF"/><stop offset="100%" stop-color="#E7E8E9"/></linearGradient><linearGradient id="j" gradientUnits="userSpaceOnUse" x1="173.463" y1="316.05" x2="100.537" y2="316.05" spreadMethod="pad"><stop offset="0%" stop-color="#EF4A47"/><stop offset="16.078%" stop-color="#D6313B"/><stop offset="40%" stop-color="#EE333F"/><stop offset="54.118%" stop-color="#F2705F"/><stop offset="76.863%" stop-color="#FBC6B4"/><stop offset="100%" stop-color="#F2705F"/></linearGradient><linearGradient id="k" gradientUnits="userSpaceOnUse" x1="173.487" y1="306.25" x2="110.912" y2="305.15" spreadMethod="pad"><stop offset="0%" stop-color="#A82C32"/><stop offset="100%" stop-color="#EE333F"/></linearGradient><linearGradient id="l" gradientUnits="userSpaceOnUse" x1="169.938" y1="284.025" x2="166.262" y2="265.075" spreadMethod="pad"><stop offset="0%" stop-color="#91412A"/><stop offset="100%" stop-color="#A6572D"/></linearGradient><linearGradient id="m" gradientUnits="userSpaceOnUse" x1="105.438" y1="285.275" x2="118.063" y2="269.125" spreadMethod="pad"><stop offset="0%" stop-color="#BD733A"/><stop offset="100%" stop-color="#C98855"/></linearGradient><linearGradient id="n" gradientUnits="userSpaceOnUse" x1="170.912" y1="216.35" x2="162.787" y2="226.05" spreadMethod="pad"><stop offset="0%" stop-color="#E9CBB4"/><stop offset="100%" stop-color="#D9A77E"/></linearGradient><linearGradient id="o" gradientUnits="userSpaceOnUse" x1="95.938" y1="220.737" x2="111.262" y2="233.162" spreadMethod="pad"><stop offset="0%" stop-color="#BD733A"/><stop offset="100%" stop-color="#A6572D"/></linearGradient><linearGradient id="p" gradientUnits="userSpaceOnUse" x1="97.388" y1="223.663" x2="110.612" y2="232.938" spreadMethod="pad"><stop offset="0%" stop-color="#E9CBB4"/><stop offset="100%" stop-color="#D9A77E"/></linearGradient><linearGradient id="q" gradientUnits="userSpaceOnUse" x1="126.363" y1="237.412" x2="169.438" y2="263.288" spreadMethod="pad"><stop offset="0%" stop-color="#C6814C"/><stop offset="100%" stop-color="#8D3D29"/></linearGradient><linearGradient id="r" gradientUnits="userSpaceOnUse" x1="136.375" y1="258.875" x2="118.325" y2="234.925" spreadMethod="pad"><stop offset="0%" stop-color="#DFB594"/><stop offset="100%" stop-color="#F8F2EB"/></linearGradient><linearGradient id="s" gradientUnits="userSpaceOnUse" x1="134" y1="254.512" x2="134" y2="248.988" spreadMethod="pad"><stop offset="0%" stop-color="#873828"/><stop offset="100%" stop-color="#A6572D"/></linearGradient><linearGradient id="t" gradientUnits="userSpaceOnUse" x1="129.5" y1="250.9" x2="133.5" y2="250.9" spreadMethod="pad"><stop offset="0%" stop-color="#FFF"/><stop offset="100%" stop-color="#C6814C"/></linearGradient><linearGradient id="u" gradientUnits="userSpaceOnUse" x1="135.6" y1="255.512" x2="135.6" y2="250.188" spreadMethod="pad"><stop offset="0%" stop-color="#5D2822"/><stop offset="100%" stop-color="#91412A"/></linearGradient><linearGradient id="v" gradientUnits="userSpaceOnUse" x1="121.7" y1="239.525" x2="121.7" y2="243.575" spreadMethod="pad"><stop offset="0%" stop-color="#373535"/><stop offset="100%" stop-color="#737477"/></linearGradient><linearGradient id="w" gradientUnits="userSpaceOnUse" x1="145.5" y1="238.525" x2="145.5" y2="242.575" spreadMethod="pad"><stop offset="0%" stop-color="#373535"/><stop offset="100%" stop-color="#737477"/></linearGradient><linearGradient id="x" gradientUnits="userSpaceOnUse" x1="175.688" y1="205.175" x2="117.113" y2="203.125" spreadMethod="pad"><stop offset="0%" stop-color="#CF303A"/><stop offset="7.843%" stop-color="#EE333F"/><stop offset="14.902%" stop-color="#D6313B"/><stop offset="25.882%" stop-color="#C93039"/><stop offset="54.902%" stop-color="#EE333F"/><stop offset="85.882%" stop-color="#F6917D"/><stop offset="100%" stop-color="#EE333F"/></linearGradient><linearGradient id="y" gradientUnits="userSpaceOnUse" x1="134.863" y1="189.188" x2="126.438" y2="203.813" spreadMethod="pad"><stop offset="0%" stop-color="#F6917D"/><stop offset="100%" stop-color="#F8A38E"/></linearGradient><linearGradient id="z" gradientUnits="userSpaceOnUse" x1="125.55" y1="200.35" x2="148.25" y2="200.75" spreadMethod="pad"><stop offset="0%" stop-color="#EF4A47"/><stop offset="100%" stop-color="#CF303A"/></linearGradient><linearGradient id="A" gradientUnits="userSpaceOnUse" x1="140.25" y1="206.412" x2="154.35" y2="208.888" spreadMethod="pad"><stop offset="0%" stop-color="#C22F38"/><stop offset="100%" stop-color="#A12B31"/></linearGradient><linearGradient id="B" gradientUnits="userSpaceOnUse" x1="150.525" y1="196.563" x2="157.775" y2="199.938" spreadMethod="pad"><stop offset="0%" stop-color="#EE333F"/><stop offset="100%" stop-color="#EF4A47"/></linearGradient><linearGradient id="C" gradientUnits="userSpaceOnUse" x1="170.463" y1="217.65" x2="106.138" y2="217.65" spreadMethod="pad"><stop offset="0%" stop-color="#E7E8E9"/><stop offset="14.118%" stop-color="#D2D4D5"/><stop offset="34.902%" stop-color="#EFF0F0"/><stop offset="60%" stop-color="#FFF"/><stop offset="92.941%" stop-color="#EBECED"/><stop offset="100%" stop-color="#D0D2D3"/></linearGradient><radialGradient id="D" gradientUnits="userSpaceOnUse" cx="0" cy="0" r="19.975" fx="0" fy="0" gradientTransform="matrix(1 0 0 -1 191.45 223.5)" spreadMethod="pad"><stop offset="0%" stop-color="#FFF"/><stop offset="32.157%" stop-color="#F6F6F6"/><stop offset="81.961%" stop-color="#D2D4D5"/><stop offset="100%" stop-color="#FFF"/></radialGradient><linearGradient id="E" gradientUnits="userSpaceOnUse" x1="198.988" y1="227.613" x2="194.113" y2="224.688" spreadMethod="pad"><stop offset="0%" stop-color="#D2D4D5"/><stop offset="100%" stop-color="#E1E2E3"/></linearGradient><linearGradient id="F" gradientUnits="userSpaceOnUse" x1="165.463" y1="219.2" x2="119.838" y2="219.2" spreadMethod="pad"><stop offset="0%" stop-color="#CED0D1"/><stop offset="14.118%" stop-color="#CED0D1"/><stop offset="34.902%" stop-color="#E7E8E9"/><stop offset="69.804%" stop-color="#F4F4F4"/><stop offset="100%" stop-color="#F4F4F4"/></linearGradient><linearGradient id="G" gradientUnits="userSpaceOnUse" x1="163.9" y1="272.887" x2="148.7" y2="288.613" spreadMethod="pad"><stop offset="0%" stop-color="#CF303A"/><stop offset="32.157%" stop-color="#F0554D"/><stop offset="100%" stop-color="#EE333F"/></linearGradient><path fill="#FFF" fill-opacity="0" d="M284 0H0v320h284V0z" id="H"/><path fill="url(#a)" d="M203.45 319.9q1.5-3.85.35-7.55-1.2-3.8-4.55-5.35-2.6-1.15-5.5-1.05-3 .1-5.55 1.55-1.75 1-3.65 2.3-1.5.7-4.45-.15-2.25-.65-4.9-2.25-1.65-1-5.9-3.95-1.6-1 .95 3.9 3.3 6.2 2.3 7.85-1.45 2.4-6.65 8.6-3.5 5.5 1.1 7.95 5.95 3.2 10.9 4.65 5.45 1.6 10.4 1.2 5-.45 8.45-4.45 3.15-3.85 6.7-13.25z" id="I"/><path fill="url(#b)" d="M202.1 313.9q-4.95-2.25-9.95 4-3.65 4.6-5.7 10.85-1.95 5.9 2.35 7.4 4.3 1.45 8.6-3.6 4.6-5.35 6.4-12.75 1.15-4.6-1.7-5.9z" id="J"/><path fill="url(#c)" d="M74.95 328.8q2.05 4.05 3.95 6.2 3.35 4 8.5 4.3 4.95.3 10.4-1.35 4.85-1.5 10.75-4.8 4.5-2.5.95-8-5.2-6.1-6.7-8.45-1.1-1.7 2.05-7.95 2.45-4.9.9-3.85-4.55 3.25-5.8 4.05-2.65 1.65-4.85 2.3-2.95.85-4.45.2-1.85-1.25-3.65-2.25-2.55-1.4-5.6-1.45-2.95 0-5.55 1.2-3.3 1.6-4.45 5.4-1.1 3.75.5 7.55 2 4.7 3.05 6.9z" id="K"/><path fill="url(#d)" d="M73.2 315.85q-2.8 1.4-1.6 5.9 1.75 7.15 6.55 12.65 4.45 5.05 8.7 3.5 4.25-1.55 2.2-7.45-2.15-6.25-5.9-10.75-5.1-6.2-9.95-3.85z" id="L"/><path fill="url(#e)" d="M157.45 268.75l-34.05-2.45-19.05 22.75 8.15 34.2 39.25 5.9q11.9-12.55 15.65-18.55 6.55-10.6 3.15-18.95l-5.25-14.45-7.85-8.45z" id="M"/><path fill="url(#f)" d="M138 278.4q-7.15-.05-12.25 5.9-5.15 5.9-5.25 14.35-.1 8.4 4.9 14.45 5 6.1 12.15 6.2 7.15.05 12.25-5.9 5.15-5.9 5.25-14.35.1-8.45-4.9-14.5-5-6.05-12.15-6.15z" id="N"/><path fill="url(#g)" d="M100.75 307l.75 29.8q.1 5.2 11.15 8.05 10.25 2.6 26.45 2.4 14.15-.2 26.2-4.45 10.85-3.85 10.8-7v-.35h-.1q.05.05.05-1.2v.5l-.7-28.75-74.6 1z" id="O"/><path fill="url(#h)" d="M171.7 342.15q4.45-3.05 4.4-6.35 0-.3-.1-.35h.1l-.45-17.45-3.95 24.15m-23.25 6.75q7.3-.75 13.45-2.55 5.95-1.75 9.65-4.15l-4.75-19.15-4.75 23.2-6.9-20.05-6.7 22.7m-47.4-29.9l.45 17.8q0 3.35 4.65 6.25l-5.1-24.05m28.65 30.2q5.6.35 9.4.25 5.3-.1 9.25-.55l-9.8-21.45-8.85 21.75m-19.5-25.35l-3.95 19.2q3.7 2.35 9.85 3.95 6.1 1.6 13.6 2.2l-7.75-22.5q-2.05 6.7-6 20.2l-5.75-23.05z" id="P"/><path fill="url(#i)" d="M122.85 326.35q-.2-.65-.9-.6-.7.05-.95.7l-4.95 16.7-4.9-19.55q-.2-.65-1-.65t-.95.65l-2.4 14.85-4.15-19.6q-.1-.5-.65-.6-.55-.1-.95.2l.45 18.35q0 2 1.6 3.75l-.15-11.05 2.8 13.25q.7.5 1.8 1.1.3-.3.3-.55l2.4-15 4.65 18.35q.4.15 2 .5l5.1-17.25 6.65 19.2 2.15.15 7.85-19.3 8.7 19.1 2.1-.25 5.75-19.35 5.9 17v.15q.75-.25 1.95-.6l3.8-18.5 3.25 14.9q.15.35.3.5.4-.2 1.8-1.15l1.85-12.65.15 10.95q1.9-2.15 1.9-4.25 0-.3-.1-.35h.1l-.45-17.95q-.4-.4-1-.3-.65.1-.75.65l-3 19.65-3.15-14.65q-.2-.7-1-.7t-.95.7l-3.95 19.65-5.8-16.6q-.2-.65-.9-.65t-.95.65l-6 20.25-8.7-19.05q-.3-.7-1.05-.6h-.1q-.45.05-.7.6l-7.85 19.25-6.95-20z" id="Q"/><path fill="url(#j)" d="M98.55 305.55l.15 8.55q.15 5.8 11.85 9.75 11.65 3.95 28 3.75 16.35-.2 27.9-4.5 11.45-4.25 11.35-10.05l-.2-8.6-79.05 1.1z" id="R"/><path fill="url(#k)" d="M137.8 291.65q-16.4.25-27.9 4.45-11.55 4.25-11.35 10.05.1 5.8 11.8 9.75 11.7 3.95 28.1 3.7 16.3-.25 27.8-4.5 11.5-4.3 11.4-10.05-.15-5.75-11.85-9.7-11.7-3.9-28-3.7z" id="S"/><path fill="#FFCC2A" d="M155.5 308.3l1.15 1.3L191 278.5l-1.15-1.3-34.35 31.1z" id="T"/><path fill="#FFCC2A" d="M154.95 307q-1.2-.05-2.2.8-.9.85-.95 2.15-.05 1.25.75 2.15.85.9 2.15.95 1.25.1 2.15-.75.95-.85 1-2.1.05-1.2-.75-2.2-.9-.95-2.15-1z" id="U"/><path fill="url(#l)" d="M161.3 263.3q-2.8-.15-5.3 1.35-3.75 3.15-.15 7.75.5.65 3.5 3.95 2.25 2.4 3.05 4 1.95 3.9 2.8 6.25 1.55 4.25 1.4 7.65-.25 4.4 1.55 7.7 2.25 4.2 7 3.95 9.05-.45 9.2-11.25.05-9.15-4.8-16.95-3.1-4.85-6.2-7.8-3.05-2.85-7.5-5.3-2.2-1.2-4.55-1.3z" id="V"/><path fill="#FFCC2A" d="M84.35 278.6l-1.2 1.3 33.6 31.9 1.25-1.3-33.65-31.9z" id="W"/><path fill="#FFCC2A" d="M120.7 310.1q-.9-.85-2.15-.8-1.3 0-2.15.95-.85.9-.8 2.15 0 1.3.95 2.1.9.85 2.15.85t2.1-.95q.85-.9.85-2.15 0-1.3-.95-2.15z" id="X"/><path fill="url(#m)" d="M119.7 266q-2.4-1.5-5.1-1.4-2.3.05-4.4 1.2-4.4 2.25-7.3 4.9-3.05 2.75-6.1 7.35-4.9 7.35-5.05 16.15-.15 10.35 8.5 11 4.6.35 6.9-3.65 1.75-3.05 1.7-7.4-.1-5.1 4.3-13.15.8-1.55 3-3.85 3.1-3.25 3.45-3.7 3.55-4.35.1-7.45z" id="Y"/><path fill="url(#n)" d="M160.6 213.4q-10.6 1.65-10.6 4.8-.2.65.15 1.25 7.2 2.35 11.8 8.55 4.7 6.25 4.9 14.05.8.15 2.25-.75 1.55-.95 2.65-2.35 5.05-6.75 6-12.2 1.25-6.95-4.05-12.35-2.5-2.6-13.1-1z" id="Z"/><path fill="#823528" d="M154.25 219.75q5.2-3.3 5.6-3.5 3.1-1.55 6.65-1.3 2.05.2 3.9 1.4.65.4 2.6 2.1 4.6 4.05 1.1 11.35-3.3 6.95-8.65 8.35-.9 1.3-.55 3.35.35 2.25 2.4 1.35 10.25-4.5 12.15-13.85 1.75-8.5-3.8-14.6-4.4-4.9-11.85-3.9-6.25.85-11.9 5.05-2.8 2.05-2.15 3.8.6 1.7 3 1.1.85-.3 1.5-.7z" id="aa"/><path fill="url(#o)" d="M120.45 219.95q-5.2-4.05-12-4.95-7.85-1.05-12.15 3.5-6.7 7.15-2.3 17.35 4 9.2 12.6 13.3.25.1-.85-1.65-1.2-1.95-.95-2.3 1.4-1.9-1.45-4.8-4.25-4.25-5.4-7.2-2.05-5.35.65-9.65 2.6-4.15 7.55-4.4 3.45-.2 6.55 1.25 1.4.65 5.35 3.3 3.4 2.25 4.3.3.85-1.95-1.9-4.05z" id="ab"/><path fill="url(#p)" d="M121.9 225.55q.9-.95.95-1.8-1 1.45-4.3-.55-4.05-2.8-5.7-3.55-3.2-1.55-6.9-1.3-5.3.25-8 4.7-2.85 4.55-.7 10.2 1.2 3.05 5.7 7.6 3.05 3.1 1.55 5.1 0 .1-.2.25.6.2 1-.05 1.8-1.4 3.1-3.75 1.3-2.9 2.15-4.55 3.2-5.95 9.3-10.55 1.55-1.2 2.05-1.75z" id="ac"/><path fill="url(#q)" d="M152.1 216.75q-8.6-4.85-20.2-3.45-11.4 1.4-17.6 7.7-5.85 5.95-8.05 11.25-2.35 5.65-2.45 14.85-.1 5.45 3.35 12.4 3.75 7.6 9.05 11.05 11.15 7.25 26 4.4 14.3-2.75 21-12.3 3.3-4.75 4.35-9.5 1.2-5.7.45-16.15-.65-10.15-3.2-14.25-3.5-5.85-12.7-6z" id="ad"/><path fill="#A6572D" d="M122.35 246.15q1.65 0 2.8-1.1 1.15-1.05 1.2-2.65 0-1.55-1.15-2.7-1.15-1.1-2.75-1.1t-2.8 1.1q-1.15 1.1-1.15 2.65 0 1.55 1.1 2.65 1.15 1.15 2.75 1.15z" id="ae"/><path fill="url(#r)" d="M130.15 243.65q-2.95.9-5.2 2.65-4.6 3.65-4.75 10.2-.25 6.1 3.6 9.75 3.45 3.25 10.35 3.1 5.8-.15 9.9-2.2 5.15-2.45 5.6-8.7.45-5.65-2.85-10.05-2-2.65-5.5-4.2-2.9-1.3-5.45-1.35-2.85-.1-5.7.8z" id="af"/><path fill="#C6814C" d="M133.45 256.15l.25 5.5q0 .5.5.5.5-.2.5-.6l-.25-5.45q0-.5-.5-.5t-.5.55z" id="ag"/><path fill="#873828" d="M132.45 248.65q-3.4.35-3.9 2.3-1.1 4.05 3.5 5.3 4.45 1.25 7.1-1.45.75-.7.85-2 .1-1.2-.35-2.25-1.05-2.4-7.2-1.9z" id="ah"/><path fill="#373535" d="M121.95 245.2q1.25 0 2.15-.9.95-.9.95-2.2 0-1.25-.9-2.15-.9-.95-2.15-.95t-2.2.9q-.9.9-.95 2.15 0 1.3.9 2.2.9.9 2.2.95z" id="ai"/><path fill="url(#s)" d="M132.4 249.15q-3.2.45-3.6 2.25-.65 2.55 1.65 3.8 1.9 1 4.5.65 2.5-.35 3.5-1.65 1.3-1.7.65-3.6-.4-1.1-2.45-1.45-1.8-.3-4.25 0z" id="ak"/><path fill="url(#t)" d="M131.15 250.2q-1.15 0-1.3.5-.3.6.6.85.65.25 1.65.15.9-.05 1.3-.35.45-.45.2-.9-.3-.55-2.45-.25z" id="al"/><path fill="url(#u)" d="M138.05 250.25q-.55.3-.7 1.15-.3 1.6-1.95 2-.3.1-1.7.1-1.1 0-1.4.4-.25.35-.3.55 0 .25.3.65.35.4 1.55.5 1.15.1 1.75-.1 2.9-.9 3.4-2.95.1-.3.1-.95.05-.75-.1-1-.4-.6-.95-.35z" id="am"/><path fill="#C6814C" d="M139.6 259.4q-.4-.25-.75.05v.1q-1.7 2.1-4.55 2.1-2.2-.15-3.5-1.15-.3-.35-.7.05-.3.4.05.65l.05.05q1.55 1.25 4.05 1.4 3.25 0 5.35-2.45l.05-.1q.35-.3-.05-.7z" id="an"/><path fill="url(#v)" d="M121.65 243.9q.9 0 1.6-.6.65-.65.7-1.6 0-.95-.65-1.6-.65-.65-1.6-.65-.9 0-1.6.65-.7.65-.7 1.6 0 .9.7 1.55.65.65 1.55.65z" id="ao"/><path fill="#E7E8E9" d="M122 242.1q.3-.3.3-.7 0-.4-.3-.7-.3-.3-.7-.3-1 0-1 1 0 .4.3.7.25.3.7.3.4 0 .7-.3z" id="aq"/><path fill="#823528" d="M146.25 237.2q-1.6-.05-2.8 1.1-1.15 1.1-1.15 2.65 0 1.55 1.15 2.7 1.1 1.1 2.75 1.15 1.6 0 2.8-1.1 1.15-1.1 1.15-2.65 0-1.6-1.1-2.7-1.15-1.15-2.8-1.15z" id="ar"/><path fill="#373535" d="M145.85 237.65q-1.3 0-2.2.9-.9.85-.9 2.15-.05 1.25.85 2.15.85.9 2.15.9 1.3.1 2.2-.8.9-.9.9-2.2.1-1.25-.8-2.15-.9-.95-2.2-.95z" id="as"/><path fill="url(#w)" d="M145.55 238.1q-.9-.05-1.6.55-.65.65-.7 1.6 0 .95.65 1.65.65.65 1.6.65.9 0 1.6-.65.7-.65.7-1.6 0-.9-.65-1.55t-1.6-.65z" id="au"/><path fill="#E7E8E9" d="M145.25 239q-.5 0-.8.35-.35.3-.35.75 0 .5.35.8.3.35.75.35.5 0 .8-.3.35-.35.35-.8 0-.5-.3-.8-.35-.35-.8-.35z" id="aw"/><path fill="url(#x)" d="M159.2 191.9q-5.75-3.05-11.7-4-12.4-1.9-21.9 2.85-10.7 5.4-12.25 17.1 9.6.1 20.45.75 11.1.65 20.4 1.7 3.3.35 6.5-.7 2.7-.9 4.15-.4.4 3.7 6.3 7.65 6.6 4.45 15.1 5.2 2.2.2 6.15.3 3.65.1 5.15.05-11.7-3.2-17.3-9.15-1.55-1.65-4.9-6.2-3.4-4.65-6.25-7.7-4-4.35-9.9-7.45z" id="ax"/><path fill="url(#y)" d="M141.9 188.85q-11.6 1.25-16.85 6.6-4 4.05-5 11.75l10.1.65q-.95-5.15.2-8.6 2.25-6.65 11.55-10.4z" id="ay"/><path fill="url(#z)" d="M123.3 197.85q-.4-1.95.15-3.75.55-2 2.1-3.25-5.45 2.7-8.75 7.4-3.4 4.7-3.5 9.9 25.15.4 40.9 2.15 3.3.35 6.35-.65 2.7-.9 3.95-.6.95-1.3.75-2.25-.25-1.05-2-2.55-5.45-4.5-12.4-4.7-4.15-.1-13.85 1.9-3 .7-4.85 1.1-3.5.7-5.3.45-1.75 0-2.55-.1-1.3-.15-1.85-1.3-.2-.35.35-1.8.55-1.6.5-1.95z" id="az"/><path fill="#F6917D" d="M122.75 207.3q2-.35 3-.3l3.75.2q.1-2.65.35-4.3-2.75.3-4.55-1.05-2-1.5-1.9-4.3-1.6 2-2.55 4.85-.9 2.6-1 5.15.9.1 2.9-.25z" id="aA"/><path fill="url(#A)" d="M189 221.5q-.351.426-.65.75.094.032.2.05.9-1.4.95-1.4 0-.05-.5.6m-37.85-21.85q4 .15 6.4 1.2 2.6 1.15 2.9 3.25-4.3-1.2-9.55-.25-8.8 1.6-13.2 1.85-1.65.1 4.4 4.75 7.1 5.5 7.7 6.75.1.3 7.65-2.5 7.55-2.8 7.7-2.55 1.55 3.45 7.15 7.05 6.85 4.5 14.3 4.35.59-.04 1.75-1.3-6.82-1.2-11.35-4.4-4.05-2.85-8.9-9.3-3.9-5.2-7.75-7.3-4.05-2.15-9.2-1.6z" id="aB"/><path fill="url(#B)" d="M157.6 195.9q-3.35-1.15-6.7-.85-4.3.3-5.7 1.15-.6.4-.75.65-.15.25-.05.7.1.45 1.05.5.9.1 2.1-.2 4.85-1.25 8.35-.95 3.8.35 6.6 2.6-1.35-2.35-4.9-3.6z" id="aC"/><path fill="url(#C)" d="M154.05 207.15q.75-1.85-1.1-2.35.3 1.1-1.05 1.8-1.4.65-2.3-.2-.55-.5 0-1.3.465-.745.9-.6-1.077-.437-1.95 0-.8.4-1.2 1.35.1-.35-.1-.75-.3-.75-1.6-.7.95 1.35-.65 1.95-1.7.65-2.2-.3-.3-.7-.05-1.3.3-.7 1.3-.8-2-.45-3.05.8-1.2 1.4-1.65 1.45-.75 0-1.95-1.05-1.2-1.1-2-1.1.7.5.35 1.35-.3.75-1.15 1-.9.15-1.55-.15-.75-.35-.65-1.2-.6 1.4-1.75 1.3-.85-.1-.8-.8.05-.7 1.15-.95-1.45-.3-2.45.5-.55.45-1.7 1.65-.75.45-1.4.3-.75-.05-1-.35-.2-.5-.4-.85-.85-1.1-2.85-1.3 1.05 1.3.25 2.2-.6.75-1.55.65-1.85-.2-.7-1.95-.65.1-1.2.35-1.05.4-1.45 1.45-.5 1.2-1.85.4-1.25-.75.55-2.05-2.45 0-3.4 1.35-.75 1.1-.3 1.85-1.95-2.2-4.75-1.3-.1 0 1.15.35 1.25.65.95 2-.95-.3-1.8.3-1 .7-.7 2.25.4-.75 1.4-.85.9-.15 1.55.25.5.35.65 1 .1.55-.15.95-.4.75-1.25.85-.95.1-1.7-.7-.15.8.25 1.35.45.65 1.4.75.65 0 .7.35.05.4-.7.65-.45.15-.7.65-.3.5-.25 1 .2-.45.75-.55.5-.15 1 .05 1.35.4.75 1.45-.65 1.05-2 .75-.55-.05-1.05-.45-.45-.35-.6-.7 0 1.25 1.15 2.3l.45.45q.3.4.25.75-.05.45-.55.6-1 .25-1.85 0 .25.45 1.2 1.05.65.3.1 1.05-.45.45-.55.7-.35.7-.1 1.85 0-.65.35-1.05.4-.4.95-.4.65-.1 1.15.5.2.5-.1 1.8-.6 1.95 1.3 2.6-.6-1.35.8-1.95 1.35-.6 2.25.3.25.25.15.75-.15.6-.8.9 2.4.45 4.6-1.45 1.55-1.25 3.15-.6.8.35 1.6 1.1.2-1.05 1-1.5.7-.45 1.45-.2.7.15.8.75.05.6-.9.8 1.35.4 2.65-.45.1-.05 2.05-1.7 1.25-.85 2.3-.85.95.15 1.3.8.35.8-.65 1.4 2.45.2 3.45-1.2.7-.8 1.35-.85 1.25-.2 2.1 1.05.35-1.65 1.9-1.5 1.55.1 1.5 2 .55-1.2 1.65-1.45 1.1-.25 1.75.95.55 1.4 2.3 1.5-.75-.95.1-1.65.7-.65 1.7-.65t1.45.65q.45.75-.4 1.8.9.35 2.25-.35 1.6-.8 2.45-.8 1.3-.05 1.15 1.9.2-.35.5-.75.6-.8 1.65-.85.45 0 1.95 1.25 1.35 1.15 3.25.75-1.1-.5-.9-1.5.15-1 1.3-.95.9.15 2.25.6 1.2.25 2.4-.2-.4 0-.95-.1-1.1-.25-1.1-1.15 0-.65.8-.8.6-.15 1.25 0 .05-.75-1.45-1.5-.6-.25-.55-.75 0-.55.7-.75 1.1-.5 1.45-1.2.2-.4.25-1.35-2.1 1.8-2.65-.1-.5-1.9 2.25-1.4-.15-.6-.7-.95-.7-.35-1.1-.65-.75-.55-.35-1.2.35-.65 1.55-.8-1.95-.5-2-1.65 0-1.15 1.4-1.3-1.75-.45-1.55-1.85.2-1.45 2.5-1.15-.75-1.5-2.45-1.3-1.7.15-1.8-.85-.1-1.05 1.15-.95-1.05-.25-2.05.25-1.35.75-2.25-.05-.6-.55-.7-1.6-.3 1.35-1.15 1.9-.8.5-1.7.15-1-.3-1.15-1.35-.1-.95.5-1.4-1.2.1-1.7.8-.55.8-1.45.95z" id="aD"/><path fill="url(#D)" d="M204.55 217.2q-.6-.2-1.2 0-1.05.3-1.4-.2-.5-.5-.1-1.1.55-.8 1.4-.95-1.05-.45-2.35.25-.45.3-.8.05-.45-.25-.4-.85 0-1.45-.95-1.9.7.65.2 1.3-.5.65-1.1.5-.75-.15-.8-.9-.05-.8.9-1.45-.55 0-1.15.35-.6.25-.85.6-.7.95-1.35 1.3-.8.4-1.1-.15-.4-.9-.8-1.25-.4-.25-1.05-.2.8.55.6 1.3-.15.65-.6.8-.6.2-1-.4-.45-.6.25-1.5-1.7.65-2.05 2-.3 1 .2 2.1-1.3-1.35-.8-2.45-1.05.85-1.05 2 0 1.05-.55 1.4-.2.15-1.25.25t-1.95.9q.55-.25 1.15-.05.55.15.65.55.25.75-.75 1.15-1.55.85-1.85 1.1-.65.5-.95.95 1.2-.75 2.05-.1.85.6.45 1.6-.1.35-.9.95-1 .65-1.3 1.65-.3 1.05.25 2 .2-.9.9-1.45 1.05-.7 1.3-.1t-.45 1.5q-.65.75-.45 1.75.3-1 1.25-1.05.85-.05 1.05.65.45 1.05-.5 1.65-.95.55-1.7-.2 1.1 1.95 3.3 1.35.5-.15.85.15.35.35.15 1-.3 1.6 1 2.5-.4-.7-.05-1.3.3-.5.85-.6.65-.1.85.4.2.55-.5.85.55.6 1.5.15.959-.41.85-1.35.147.774.55 1.4.65.9 1.6.9-.85-.7-.75-1.6.1-.85.95-1.2 1.05-.4 1.6.5.65.95.85 1.2.6.55 1.45.4-.95-.65-.75-1.45.2-.75.9-1 .75-.25 1.25.2.55.5.15 1.5.7-.2 1.1-1.1.35-.95-.05-1.55.65.6 1.65.45 1-.2 1.45-.95-.45.35-1.05.2-.55-.1-.75-.5-.55-.7 0-1.4.55-.75 1.5-.55.45.15.75.5.3.4.1.95.95-.75.75-1.75-.4-1-.55-1.35-.6-1.35.9-1.95 1.3-.55 1.5-1.5-.65.6-1.15.5-.45-.05-.6-.5-.15-.55.4-.95 1-1 .9-2.05-.35 1.05-1.3 1.15-.95.05-1.2-.75-.1-.55.25-1 .45-.5 1.25-.5-.3-.7-1-1-.75-.25-1.5 0-.7-1.05.25-1.7.95-.7 1.9.1-.4-.9-1.2-1.15z" id="aE"/><path fill="url(#E)" d="M188.95 230.9q-.15-.45-.5-.5.15.1.15.35 0 .25-.15.5-.35.5-1.05.65.65.4 1.8-.15l.2-.05-.45-.8m12.2-11.8q.3-.35.7-.4.5-.05.85.3-.75-1.4-2.3-1.15l-.25.05q-.4.1-.65-.1t-.15-.75v-.4l-.5.1q-.9.3-.7.75.25.4 1.05.4.85 0 1.2.45 0 .1.1.15h-.1q-.7-.25-1.15.25-.45.5-.15 1 .55.7 1.3.4.4-.15.5-.3-.05-.35.25-.75m2.6 2q0 .75-.65 1.15-.8.55-1 .1-.15-.5.35-1.2.55-.5.25-1.35-.15.6-.6.8-.45.15-.8-.1-.2.7-.9 1.25-.3.15-.3.45 0 .35.3.6l.25.1q1.05.65 1.05 1.8-.15-.45-.6-.6-.35-.15-.7 0l-.25.25q-.3.25-.2.6.1.3.45.25l.3-.05q.15.4-.3.75-.3.3-.8.35-.41 0-.75-.25.475.43.65 1 .3.8-.15 1.45-.05-.85-.7-1.25-.6-.4-1.2-.05-.6.45-.5 1.5.45 1.5-.95 2.35-1.4.85-2.4-.4-.2 1.15-1.65 1.4-1.35.2-1.85-.4-.25 1.85.8 2.25-.55-.5-.1-1.05.4-.5.85-.35.55.15.6.7.05.6-.7 1.1.95 0 1.55-.7.55-.75 1.1-1 .55-.3.8.15.6 1.2 1.45 1.05-.65-.45-.5-1 .15-.5.5-.55.45-.25.8.25.4.45-.2 1.15 1.3-.5 1.6-1.55.25-.8-.15-1.65 1.05 1.1.6 1.9.85-.65.85-1.5t.4-1.15h.05q.05-.05 1-.15.75-.15 1.45-.75-.4.25-.85.1-.4-.15-.55-.5-.2-.55.55-.85 1-.5 1.5-.85l.75-.75q-.95.55-1.65.1-.7-.5-.4-1.25.2-.35.8-.7.75-.6 1-1.35.2-.85-.25-1.6z" id="aF"/><path fill="url(#F)" d="M161.45 210.15q-.85.35-.7 1.1.15.75 1.1 1-1.05.15-1 .95.05.8 1.5 1.2-.9.1-1.2.6-.25.45.3.85.3.2.8.4.4.25.5.65-1.9-.25-2 1.1-.1 1.4 1.5.05-.05.7-.15.95-.25.5-1.05.85-.45.2-.5.55 0 .4.4.55 1.1.65 1.1 1.1-1.5-.3-1.5.55.05.7.85.8.35.1.65.05-.85.35-1.7.2-1-.3-1.6-.4-.85-.05-.95.65-.15.75.65 1.1-1.4.3-2.35-.5-1.1-.9-1.4-.9-.75.05-1.2.65-.2.3-.3.5.05-1.35-.9-1.35-.55 0-1.75.6-.95.5-1.6.25.6-.75.25-1.25-.3-.45-1.05-.45t-1.25.45q-.55.55 0 1.2-.75-.05-1.15-.4-.2-.15-.55-.7-.45-.85-1.25-.65-.75.2-1.15 1.1 0-1.1-.75-1.4-.2.75-.9 1.25t-1.65.5q-1.15 0-1.8-.65-.8.8-1.8.95-1.05.1-1.6-.55-.6-.7.4-1.35-1.55.25-2.2 1.65-.6 1.3-2.7 1.3.65-.15.6-.6-.05-.45-.55-.55-.55-.15-1.05.15-.6.35-.65 1.15-.65-.5-1.25-.75-1.15-.45-2.2.4-1.75 1.35-3.35 1.1.65-.2.8-.7.15-.5-.15-.85-.5-.6-1.3-.5-.5.5-.5.75 1.5-.3 1.5.55-.05.6-.8.8-.4.1-.7.1.9.35 1.75.2.5-.1 1.55-.45.8-.05.95.65.1.75-.65 1.1 1.35.3 2.35-.55 1.1-.85 1.4-.85.75 0 1.15.6.2.25.35.55 0-.45.1-.75.2-.65.8-.6.6 0 1.7.6.95.5 1.65.25-.6-.75-.25-1.3.35-.5 1.05-.5.7 0 1.2.5.55.55.05 1.15 1.1-.05 1.65-1 .5-.9 1.3-.7.75.25 1.15 1.1.05-1.35 1.15-1.45 1.05-.05 1.3 1.05.6-.8 1.5-.7.6 0 .95.65.7.95 2.5.85-.75-.5-.45-1 .25-.5.95-.55.85-.15 1.6.6l1.45 1.2q.95.6 1.9.35-.7-.1-.6-.55.05-.4.55-.6.55-.15 1.05.2.6.35.7 1.1 1.05-.75 1.2-.8 1.1-.45 2.15.4 1.75 1.45 3.35 1.1-.65-.2-.75-.65-.15-.45.15-.85.3-.35.8-.45.6-.1 1.15.2.35.25.45.75.1.55-.15 1.05 1.35-.45 1.05-1.9-.1-1.05 0-1.25.35-.45.8-.35.45 0 .7.3.25.3.15.7.25-.8.05-1.3-.3-.4-.4-.5-.35-.55.15-.8.55-.25.85-.7-.35.15-1.35 0-.35-.1-.35-.4-.05-.3.2-.6l.3-.3q.95-.85.95-1.6-.35.6-1.25.8-1 .15-1.4-.6-.4-.7.6-1.05.85-.3 1.25.45.1-.95-.65-1.25-.55-.2-.5-.45.05-.25.5-.25 1.4-.15 1.3-1.55-.55.65-1.25.55-.6-.05-.95-.6-.15-.35-.05-.75.15-.45.5-.7.5-.25 1.15-.15.7.1.95.6.3-1.1-.4-1.6-.65-.45-1.35-.2-.1-1 .8-1.45.9-.25.8-.3-2.05-.55-3.45.95.2-.3.1-.8-.15-.6-.7-1z" id="aG"/><path fill="url(#G)" d="M140.35 291.65q5.35 0 10.15.6 4.6-3.25 8.65-9.35 3.75-6.3 5.2-8.25 3.3-4.5 9.2-4.5-2.1-2.15-5.25-4.2-3.5-.35-6.85 2.35-2.95 2.35-5.15 6.5-2 3.8-6.7 8.9-5.1 5.55-9.25 7.95z" id="aH"/><path id="aj" stroke="#373535" stroke-width=".2" stroke-linejoin="miter" stroke-linecap="butt" stroke-miterlimit="4" fill="none" d="M121.95 245.2q-1.3-.05-2.2-.95-.9-.9-.9-2.2.05-1.25.95-2.15.95-.9 2.2-.9 1.25 0 2.15.95.9.9.9 2.15 0 1.3-.95 2.2-.9.9-2.15.9z"/><path id="ap" stroke="#373535" stroke-width=".2" stroke-linejoin="miter" stroke-linecap="butt" stroke-miterlimit="4" fill="none" d="M121.65 243.9q-.9 0-1.55-.65-.7-.65-.7-1.55 0-.95.7-1.6.7-.65 1.6-.65.95 0 1.6.65.65.65.65 1.6-.05.95-.7 1.6-.7.6-1.6.6z"/><path id="at" stroke="#373535" stroke-width=".2" stroke-linejoin="miter" stroke-linecap="butt" stroke-miterlimit="4" fill="none" d="M145.85 237.65q1.3 0 2.2.95.9.9.8 2.15 0 1.3-.9 2.2-.9.9-2.2.8-1.3 0-2.15-.9-.9-.9-.85-2.15 0-1.3.9-2.15.9-.9 2.2-.9z"/><path id="av" stroke="#373535" stroke-width=".2" stroke-linejoin="miter" stroke-linecap="butt" stroke-miterlimit="4" fill="none" d="M145.55 238.1q.95 0 1.6.65.65.65.65 1.55 0 .95-.7 1.6-.7.65-1.6.65-.95 0-1.6-.65-.65-.7-.65-1.65.05-.95.7-1.6.7-.6 1.6-.55z"/></defs><use xlink:href="#H"/><use xlink:href="#I" transform="matrix(1.71468 0 0 1.71466 -96.706 -290.242)"/><use xlink:href="#J" transform="matrix(1.71468 0 0 1.71466 -96.706 -290.242)"/><use xlink:href="#K" transform="matrix(1.71468 0 0 1.71466 -96.706 -290.242)"/><use xlink:href="#L" transform="matrix(1.71468 0 0 1.71466 -96.706 -290.242)"/><use xlink:href="#M" transform="matrix(1.71468 0 0 1.71466 -96.706 -290.242)"/><use xlink:href="#N" transform="matrix(1.71468 0 0 1.71466 -96.706 -290.242)"/><use xlink:href="#O" transform="matrix(1.71468 0 0 1.71466 -96.706 -290.242)"/><use xlink:href="#P" transform="matrix(1.71468 0 0 1.71466 -96.706 -290.242)"/><use xlink:href="#Q" transform="matrix(1.71468 0 0 1.71466 -96.706 -290.242)"/><use xlink:href="#R" transform="matrix(1.71468 0 0 1.71466 -96.706 -290.242)"/><use xlink:href="#S" transform="matrix(1.71468 0 0 1.71466 -96.706 -290.242)"/><use xlink:href="#T" transform="matrix(1.71468 0 0 1.71466 -96.706 -290.242)"/><use xlink:href="#U" transform="matrix(1.71468 0 0 1.71466 -96.706 -290.242)"/><use xlink:href="#V" transform="matrix(1.71468 0 0 1.71466 -96.706 -290.242)"/><use xlink:href="#W" transform="matrix(1.71468 0 0 1.71466 -96.706 -290.242)"/><use xlink:href="#X" transform="matrix(1.71468 0 0 1.71466 -96.706 -290.242)"/><use xlink:href="#Y" transform="matrix(1.71468 0 0 1.71466 -96.706 -290.242)"/><use xlink:href="#Z" transform="matrix(1.71468 0 0 1.71466 -96.706 -290.242)"/><use xlink:href="#aa" transform="matrix(1.71468 0 0 1.71466 -96.706 -290.242)"/><use xlink:href="#ab" transform="matrix(1.71468 0 0 1.71466 -96.706 -290.242)"/><use xlink:href="#ac" transform="matrix(1.71468 0 0 1.71466 -96.706 -290.242)"/><use xlink:href="#ad" transform="matrix(1.71468 0 0 1.71466 -96.706 -290.242)"/><use xlink:href="#ae" transform="matrix(1.71468 0 0 1.71466 -96.706 -290.242)"/><use xlink:href="#af" transform="matrix(1.71468 0 0 1.71466 -96.706 -290.242)"/><use xlink:href="#ag" transform="matrix(1.71468 0 0 1.71466 -96.706 -290.242)"/><use xlink:href="#ah" transform="matrix(1.71468 0 0 1.71466 -96.706 -290.242)"/><g transform="matrix(1.71468 0 0 1.71466 -96.706 -290.242)"><use xlink:href="#ai"/><use xlink:href="#aj"/></g><use xlink:href="#ak" transform="matrix(1.71468 0 0 1.71466 -96.706 -290.242)"/><use xlink:href="#al" transform="matrix(1.71468 0 0 1.71466 -96.706 -290.242)"/><use xlink:href="#am" transform="matrix(1.71468 0 0 1.71466 -96.706 -290.242)"/><use xlink:href="#an" transform="matrix(1.71468 0 0 1.71466 -96.706 -290.242)"/><g transform="matrix(1.71468 0 0 1.71466 -96.706 -290.242)"><use xlink:href="#ao"/><use xlink:href="#ap"/></g><use xlink:href="#aq" transform="matrix(1.71468 0 0 1.71466 -96.706 -290.242)"/><use xlink:href="#ar" transform="matrix(1.71468 0 0 1.71466 -96.706 -290.242)"/><g transform="matrix(1.71468 0 0 1.71466 -96.706 -290.242)"><use xlink:href="#as"/><use xlink:href="#at"/></g><g transform="matrix(1.71468 0 0 1.71466 -96.706 -290.242)"><use xlink:href="#au"/><use xlink:href="#av"/></g><use xlink:href="#aw" transform="matrix(1.71468 0 0 1.71466 -96.706 -290.242)"/><use xlink:href="#ax" transform="matrix(1.71468 0 0 1.71466 -96.706 -290.242)"/><use xlink:href="#ay" transform="matrix(1.71468 0 0 1.71466 -96.706 -290.242)"/><use xlink:href="#az" transform="matrix(1.71468 0 0 1.71466 -96.706 -290.242)"/><use xlink:href="#aA" transform="matrix(1.71468 0 0 1.71466 -96.706 -290.242)"/><use xlink:href="#aB" transform="matrix(1.71468 0 0 1.71466 -96.706 -290.242)"/><use xlink:href="#aC" transform="matrix(1.71468 0 0 1.71466 -96.706 -290.242)"/><use xlink:href="#aD" transform="matrix(1.71468 0 0 1.71466 -96.706 -290.242)"/><use xlink:href="#aE" transform="matrix(1.71468 0 0 1.71466 -96.706 -290.242)"/><use xlink:href="#aF" transform="matrix(1.71468 0 0 1.71466 -96.706 -290.242)"/><use xlink:href="#aG" transform="matrix(1.71468 0 0 1.71466 -96.706 -290.242)"/><use xlink:href="#aH" transform="matrix(1.71468 0 0 1.71466 -96.706 -290.242)"/></svg>