<svg xmlns="http://www.w3.org/2000/svg" xmlns:xlink="http://www.w3.org/1999/xlink" preserveAspectRatio="none" width="284" height="320"><defs><linearGradient id="a" gradientUnits="userSpaceOnUse" x1="685.337" y1="233.012" x2="582.262" y2="230.887" spreadMethod="pad"><stop offset="43.922%" stop-color="#FC002F"/><stop offset="100%" stop-color="#FF7896"/></linearGradient><linearGradient id="b" gradientUnits="userSpaceOnUse" x1="551.025" y1="189.313" x2="418.175" y2="210.988" spreadMethod="pad"><stop offset="0%" stop-color="#2A71B7"/><stop offset="100%" stop-color="#98CCFF"/></linearGradient><linearGradient id="c" gradientUnits="userSpaceOnUse" x1="533.5" y1="219.75" x2="513.8" y2="91.35" spreadMethod="pad"><stop offset="0%" stop-color="#2A71B7"/><stop offset="100%" stop-color="#98CCFF"/></linearGradient><linearGradient id="d" gradientUnits="userSpaceOnUse" x1="572.563" y1="296" x2="543.438" y2="219.3" spreadMethod="pad"><stop offset="0%" stop-color="#D6EBFF"/><stop offset="70.98%" stop-color="#7DBEFF"/><stop offset="100%" stop-color="#4DA4FF"/></linearGradient><linearGradient id="e" gradientUnits="userSpaceOnUse" x1="570.913" y1="178.875" x2="572.887" y2="182.725" spreadMethod="pad"><stop offset="0%" stop-color="#FFABBE"/><stop offset="72.157%" stop-color="#FF7896"/></linearGradient><linearGradient id="f" gradientUnits="userSpaceOnUse" x1="568.8" y1="257.275" x2="577.4" y2="274.025" spreadMethod="pad"><stop offset="0%" stop-color="#FFABBE"/><stop offset="72.157%" stop-color="#FF7896"/></linearGradient><linearGradient id="g" gradientUnits="userSpaceOnUse" x1="508.25" y1="112.95" x2="553.35" y2="267.45" spreadMethod="pad"><stop offset="0%" stop-color="#D6EBFF"/><stop offset="100%" stop-color="#379DFF"/></linearGradient><linearGradient id="h" gradientUnits="userSpaceOnUse" x1="546.438" y1="156.275" x2="711.263" y2="298.325" spreadMethod="pad"><stop offset="1.569%" stop-color="#FF2155"/><stop offset="85.098%" stop-color="#FF769F"/></linearGradient><linearGradient id="i" gradientUnits="userSpaceOnUse" x1="584" y1="165.813" x2="613.3" y2="222.788" spreadMethod="pad"><stop offset="0%" stop-color="#FFABBE"/><stop offset="72.157%" stop-color="#FF7896"/></linearGradient><path fill="url(#a)" d="M683.3 259.7l-11.1 10.95-18.15-18.15q13.35-18.55 11.6-41.45-1.8-23.15-18.2-39.55-14.35-14.35-34.25-17.55-19.55-3.15-37.3 5.35.7.6-4.8 2.75-5.55 2.15-4.85 2.85 1.602 1.602-.85 11.85-.836-.504-1.65-.15-1.3.55-2.55-.25-.05 0-.5-14.2-10.8 9.5-16.35 22.9-5.2 12.6-5.05 26.8.1 13.75 5.1 26.45 5.1 12.9 14.25 22 16.4 16.4 39.55 18.2 22.9 1.75 41.45-11.6l18.15 18.2-9.25 2.95-1 4.3q-1.05 4.65-1.1 6.1-.1 2.2 1.05 3.5l7.35 7.35.95.7q1.25.75 2.7.7 2.55-.1 4.25-1.75l9.45-9.45 9 8.95 1 .75q1.2.75 2.1.7 2.15-.1 3.35-1.6l7.85-7.85q.8-.9 1.3-2.85l2-8.9-12.2-3.6 10-10.3q1.45-1.35 1.95-3.45.4-1.45.95-5.3l.45-3.5-11.25-2.35q-1.15-1.35-3-1.35-1.3.05-2.4.85m-111.4-77.95q6-6.7 12.75-9.95 12.8-6.15 27.35-1.05 12.7 4.4 21.3 14.85 11.6 14.1 11.95 30.9.3 17.45-11.95 29.7-12.5 12.55-30.25 12.55t-30.3-12.55q-12.95-12.95-14.8-32.1-1.306-13.752 4-23.8-1.545 7.076-.75 8.4 4.2-9.75 10.7-16.95z" id="j"/><path fill="url(#b)" d="M499.8 143.75l1-9.4-29.25-10.75H452.5l-.65 36.6 2.7 10.3.35.8q.4.9.9 1.25.75.5 3.05.5l13.8.65q1.4-.2 2.3-1.35.7-.9.5-3.6v-6.8l10.65 9.6q-12.9 18.15-10.45 42.25 2.45 24.05 18.7 40.4 18.1 18.2 43.75 18.2 25.6 0 43.7-18.2t18.1-43.9q0-25.7-18.1-43.9-16.25-16.3-39.1-18-22.6-1.7-40.85 11.6l-16.2-16.25h14.15m8.45 36.6q12.35-12.4 29.85-12.4 17.45 0 29.8 12.4 12.4 12.4 12.4 29.95 0 17.55-12.4 29.95-12.35 12.4-29.8 12.4-17.5 0-29.85-12.4-12.35-12.4-12.35-29.95 0-17.55 12.35-29.95z" id="k"/><path fill="url(#c)" d="M500.8 134.35v-20.4h-49.1l.05 45.4q.15 1.4.65 2 1.2 1.45 3.25 1.2l13.95-.05q1.25-.15 1.85-.75.9-.8.65-2.4v-10.5l16.4 16.4q-13.2 18.5-11.45 41.35 1.8 23.05 18.2 39.45 18.4 18.4 44.4 18.4 26.05 0 44.4-18.4 18.4-18.35 18.4-44.4 0-26-18.4-44.4-16.45-16.45-39.65-18.2-22.95-1.7-41.5 11.7l-16.45-16.4h14.35m8.6 37q12.55-12.5 30.3-12.5t30.25 12.5q12.55 12.55 12.55 30.3t-12.55 30.3q-12.5 12.55-30.25 12.55t-30.3-12.55q-12.55-12.55-12.55-30.3t12.55-30.3z" id="l"/><path fill="url(#d)" d="M496.2 130.65V117.2h-41.6l.05 40.95h13.45v-17.9l24.1 24.1q-13.9 17.55-12.7 40 1.25 22.6 17.3 38.7 17.35 17.35 41.9 17.35 24.55 0 41.9-17.35 17.35-17.35 17.35-41.9 0-24.6-17.35-41.95-16.1-16.1-38.8-17.25-22.55-1.15-40.1 12.85l-24.15-24.15h18.65m9.7 37.7q13.6-13.55 32.8-13.55 19.2 0 32.75 13.55 13.6 13.6 13.6 32.8 0 19.2-13.6 32.75-13.55 13.6-32.75 13.6t-32.8-13.6q-13.55-13.55-13.55-32.75t13.55-32.8z" id="m"/><path fill="url(#e)" d="M574.4 176.6l-4.45 1.75-1.15 5.3.55 1.15 1.25-1.6 3.8-6.6z" id="n"/><path fill="url(#f)" d="M572.55 270.6l7.15 3.35-.25-11.6-13.85-7.9-.25 11.75 7.2 4.4z" id="o"/><path fill="url(#g)" d="M496.35 130.65V117.2H454.8v40.95h13.45v-17.9l24.15 24.1q-10.2 12.9-12.3 29.25-2.05 16.05 4.3 30.9 8 1.1 15.3 1.4-8.6-13.55-6.9-29.6 1.7-16.3 13.3-27.95 13.6-13.55 32.8-13.55 19.2 0 32.75 13.55 6.75 6.75 10.25 15.55 3.4 8.5 3.3 17.65 6.9-5.45 11.85-11.75-3.5-17.8-16.3-30.6-16.1-16.1-38.8-17.25-22.5-1.15-40.05 12.85l-24.15-24.15h18.6z" id="p"/><path fill="#FF2155" d="M656 243.25q13.3-18.55 11.55-41.45-1.8-23.15-18.2-39.55-14.2-14.2-35-17.2-20.1-2.9-38 5.7 2.3 1.55 6.85 5.95 5.75 5.45 8.15 9.35 11.4-3.75 23.1-1.15 12.1 2.7 20.8 11.45 12.55 12.55 12.55 30.3t-12.55 30.3Q622.75 249.5 605 249.5t-30.3-12.55q-12.55-12.55-12.65-30.15-.1-17.65 12.35-30.2-3.3-5.55-9.55-9.85-5.65-3.25-5.7-3.25-18.25 18.3-17.65 43.8.55 25.2 19.05 43.75 16.45 16.4 39.6 18.2 22.85 1.75 41.4-11.6l18.15 18.15-9.6 9.65q-.4.35-.85 1-.85 1.25-.9 2.75-.05 2.2 1.1 3.5l7.3 7.35.95.7q1.3.7 2.75.65 2.55-.1 4.25-1.75l9.45-9.4 8.95 8.95 1 .75q1.2.7 2.1.65 2.15-.1 3.35-1.6l7.9-7.8q1.45-1.3 1.35-3.3-.05-1.15-.6-2.2l-.6-.85-9.05-9.05 10-10.25q1.55-1.45 1.45-3.55-.1-1.25-.8-2.4l-.7-.95-6.45-6.35q-2.3-2.15-4.15-2.15-1.7-.05-3.35 1.1l-1.3 1.1-9.1 9.05L656 243.25z" id="q"/><path fill="url(#h)" d="M651.15 243.4q13.95-17.6 12.75-40.05-1.2-22.7-17.25-38.75-13.25-13.25-31.65-16.45-17.95-3.15-34.55 4.3l1.1 1q4.4 4.4 7.7 9.35 12.45-4.4 25.35-1.55 13.25 2.85 22.9 12.5 13.6 13.6 13.6 32.8 0 19.2-13.6 32.75-13.55 13.6-32.75 13.6t-32.8-13.6q-13.85-13.85-14.85-32.4-1.05-19.05 12.3-32.4.1-.1-9.8-5.25l-2.75 9.1q-3 11.25-4.3 21.8-4.15 33.8 10.3 48.25 16.05 16.1 38.7 17.3 22.5 1.2 40.05-12.8l22.8 22.8-11.15 11.1q-.35.35-.75.85-.75.95-.8 1.7-.1 1.6 1.4 2.9l4.8 4.75.55.35q.8.4 1.75.35 1.6-.1 2.4-1.2l11.3-11.3 9.95 10 .75.5q.95.55 1.8.65 1.5.2 2.45-.95l4.85-4.75q1.05-.95 1.05-2.55-.05-.8-.7-1.7l-10.6-10.7 10.35-10.4q1.85-1.6 1.95-3.45.05-1-.55-2l-.6-.85-4.25-4.15q-1.55-1.45-2.8-1.2-.85.15-1.8.9l-11.85 11.6-22.75-22.75z" id="r"/><path fill="url(#i)" d="M566.3 167.75q-3.75-2.75-3.95-2.55-16.7 16.7-17 40.1-.3 23.2 15.55 40.8 9-.35 17.55-1.65-3.35-2.3-6.3-5.25-13.6-13.6-13.7-32.65-.1-19.1 13.45-32.65l.35-.35q-1.75-2.7-5.95-5.8m91 11.3v-.4q-4.1-7.7-10.45-14.15-13.25-13.25-32.35-16.25-18.45-2.95-35.2 4.7.9.55 4.4 4.1 3.8 3.75 5.4 5.85 12.5-4.5 25.5-1.75 13.45 2.8 23.1 12.5 5.85 5.85 9.35 13.35 3.35 7.2 4.05 15.15 6.2-11.15 6.2-23.1z" id="s"/></defs><use xlink:href="#j" transform="translate(-433.85 -21.35)"/><use xlink:href="#k" transform="translate(-433.85 -21.35)"/><use xlink:href="#l" transform="translate(-433.85 -21.35)"/><use xlink:href="#m" transform="translate(-433.85 -21.35)"/><use xlink:href="#n" transform="translate(-433.85 -21.35)"/><use xlink:href="#o" transform="translate(-433.85 -21.35)"/><use xlink:href="#p" transform="translate(-433.85 -21.35)"/><use xlink:href="#q" transform="translate(-433.85 -21.35)"/><use xlink:href="#r" transform="translate(-433.85 -21.35)"/><use xlink:href="#s" transform="translate(-433.85 -21.35)"/></svg>