<svg xmlns="http://www.w3.org/2000/svg" xmlns:xlink="http://www.w3.org/1999/xlink" preserveAspectRatio="none" width="284" height="320"><defs><radialGradient id="a" gradientUnits="userSpaceOnUse" cx="0" cy="0" r="10.063" fx="0" fy="0" gradientTransform="translate(8.1 8.6)" spreadMethod="pad"><stop offset="68.235%" stop-opacity="0"/><stop offset="100%" stop-opacity=".8"/></radialGradient><radialGradient id="b" gradientUnits="userSpaceOnUse" cx="0" cy="0" r="10.188" fx="0" fy="0" gradientTransform="translate(6.85 4.1)" spreadMethod="pad"><stop offset="2.353%" stop-color="#FFF"/><stop offset="41.176%" stop-color="#FFF" stop-opacity="0"/><stop offset="42.745%" stop-color="#FFF" stop-opacity="0"/></radialGradient><path fill="#FFF" fill-opacity="0" d="M284 0H0v320h284V0z" id="c"/><g id="d"><path d="M18 9q0-3.75-2.65-6.4Q12.7 0 9 0 5.25 0 2.6 2.6 0 5.25 0 9v.15q.05 3.6 2.6 6.2Q5.25 18 9 18q3.7 0 6.35-2.65Q17.95 12.7 18 9m-1 0v.5q-.2 2.95-2.35 5.15Q12.3 17 9 17q-3.35 0-5.7-2.35-2.25-2.3-2.3-5.5V9v-.3q.1-3.15 2.3-5.4Q5.65 1 9 1q3.3 0 5.65 2.3Q17 5.65 17 9m-4.6.45q.05-.2.05-.4V9q-.05-1.4-1.05-2.4-1.05-1.05-2.45-1.05-1.5 0-2.5 1.05-.95.9-1 2.15v.15q-.1.15 0 .45.05 1.25 1 2.15v.05q1 1 2.5 1 1.4 0 2.45-1.05.85-.85 1-2.05m-.95-.4q-.05 1.05-.75 1.75-.75.75-1.75.75-1.1 0-1.75-.75h-.05q-.7-.65-.7-1.6v-.05-.1q-.05-1.05.7-1.7l.05-.05q.65-.75 1.75-.75 1 0 1.75.75.7.7.75 1.75z"/><path fill="#009" d="M12.4 9.45q-.15 1.2-1 2.05-1.05 1.05-2.45 1.05-1.5 0-2.5-1v-.05q-.95-.9-1-2.15-.1-.3 0-.45v-.15L3.3 6.7 1 8.7V9.15q.05 3.2 2.3 5.5Q5.65 17 9 17q3.3 0 5.65-2.35Q16.8 12.45 17 9.5l-2.35 2.15-2.25-2.2z"/><path fill="#FC0" d="M12.45 9.05q0 .2-.05.4l2.25 2.2L17 9.5V9q0-3.35-2.35-5.7Q12.3 1 9 1 5.65 1 3.3 3.3 1.1 5.55 1 8.7l2.3-2 2.15 2.05q.05-1.25 1-2.15 1-1.05 2.5-1.05 1.4 0 2.45 1.05 1 1 1.05 2.4v.05z"/></g><path fill="url(#a)" d="M18 9q0-3.75-2.65-6.35Q12.75 0 9 0 5.25 0 2.65 2.65 0 5.25 0 9q0 3.75 2.65 6.35Q5.25 18 9 18q3.75 0 6.35-2.65Q18 12.75 18 9z" id="e"/><path fill="url(#b)" d="M18 9q0-3.75-2.65-6.35Q12.75 0 9 0 5.25 0 2.65 2.65 0 5.25 0 9q0 3.75 2.65 6.35 1.2 1.2 2.6 1.85 1.2.25 2.5.25 4.7 0 8.05-3.3 1.05-1.05 1.75-2.25Q18 10.55 18 9z" id="f"/></defs><use xlink:href="#c"/><use xlink:href="#d" transform="matrix(13.75154 0 0 13.75175 18.3 55.3)"/><use xlink:href="#e" transform="matrix(13.75154 0 0 13.75175 18.3 55.3)"/><use xlink:href="#f" transform="matrix(13.75154 0 0 13.75175 18.3 55.3)"/></svg>