<svg xmlns="http://www.w3.org/2000/svg" xmlns:xlink="http://www.w3.org/1999/xlink" preserveAspectRatio="none" width="284" height="320"><defs><linearGradient id="a" gradientUnits="userSpaceOnUse" x1="13.725" y1="56.388" x2="50.075" y2="12.112" spreadMethod="pad"><stop offset="0%" stop-color="#FFF"/><stop offset="49.804%" stop-color="#EAEBFF"/><stop offset="74.902%" stop-color="#B3B6DA"/><stop offset="100%" stop-color="#BDBFE5"/></linearGradient><linearGradient id="b" gradientUnits="userSpaceOnUse" x1="53.3" y1="34.163" x2="31" y2="11.737" spreadMethod="pad"><stop offset="0%" stop-color="#67687D"/><stop offset="100%" stop-color="#B1BAD7"/></linearGradient><linearGradient id="c" gradientUnits="userSpaceOnUse" x1="24.188" y1="32.725" x2="46.313" y2="7.475" spreadMethod="pad"><stop offset="0%" stop-color="#FAF8FF"/><stop offset="49.804%" stop-color="#F1F1FF"/><stop offset="74.902%" stop-color="#ABADDC"/><stop offset="100%" stop-color="#D5D7FF"/></linearGradient><path fill="url(#a)" d="M59 16q0-.4-.3-.7-.3-.3-.7-.3H7q-.45 0-.7.3-.3.3-.3.7v37.5q0 1 1 1h51q.4 0 .7-.25.3-.3.3-.75V16z" id="d"/><path fill="url(#b)" d="M37 18l-4.65 14.5 4.9 2.65L59 15l-22 3z" id="f"/><path fill="url(#c)" d="M6.6 15.25L33 34l25.5-19-51.9.25z" id="g"/><path id="e" stroke="#DCDAEF" stroke-width=".5" stroke-linejoin="miter" stroke-linecap="butt" stroke-miterlimit="4" fill="none" d="M8.28 70.235h269.433q2.113 0 3.698 1.584 1.584 1.585 1.584 3.698v198.087q0 2.377-1.584 3.962-1.585 1.32-3.698 1.32H8.28q-5.283 0-5.283-5.282V75.517q0-2.113 1.585-3.698 1.32-1.584 3.698-1.584z"/><path id="h" stroke="#CBC8E9" stroke-width=".5" stroke-linejoin="miter" stroke-linecap="butt" stroke-miterlimit="4" fill="none" d="M6.168 71.555l139.47 99.044L280.354 70.235 6.168 71.555z"/></defs><g transform="matrix(5.28297 0 0 5.28232 -28.7 -9)"><use xlink:href="#d"/><use xlink:href="#e" transform="matrix(.18929 0 0 .1893 5.4 1.7)"/></g><use xlink:href="#f" transform="matrix(5.28297 0 0 5.28232 -28.7 -9)"/><g transform="matrix(5.28297 0 0 5.28232 -28.7 -9)"><use xlink:href="#g"/><use xlink:href="#h" transform="matrix(.18929 0 0 .1893 5.4 1.7)"/></g></svg>