<svg xmlns="http://www.w3.org/2000/svg" xmlns:xlink="http://www.w3.org/1999/xlink" preserveAspectRatio="none" width="284" height="320"><defs><radialGradient id="a" gradientUnits="userSpaceOnUse" cx="0" cy="0" r="200.8" fx="0" fy="0" gradientTransform="matrix(1 0 0 1.12674 142 160)" spreadMethod="pad"><stop offset="0%" stop-color="#FEF8E2"/><stop offset="100%" stop-color="#F8C305"/></radialGradient><radialGradient id="b" gradientUnits="userSpaceOnUse" cx="0" cy="0" r="35.54" fx="0" fy="0" gradientTransform="matrix(.99781 -.06612 .03165 .47657 45.55 11.15)" spreadMethod="pad"><stop offset="0%" stop-color="#E2255F" stop-opacity=".851"/><stop offset="100%" stop-color="#D91D50" stop-opacity=".949"/></radialGradient><radialGradient id="c" gradientUnits="userSpaceOnUse" cx="0" cy="0" r="23.394" fx="0" fy="0" gradientTransform="matrix(-.08336 -.99652 1.61527 -.13465 36.95 24)" spreadMethod="pad"><stop offset="0%" stop-color="#E2255F" stop-opacity=".851"/><stop offset="100%" stop-color="#D91D50" stop-opacity=".949"/></radialGradient><linearGradient id="d" gradientUnits="userSpaceOnUse" x1="45.175" y1="71.35" x2="48.225" y2="12.45" spreadMethod="pad"><stop offset="0%" stop-color="#E6DFDD"/><stop offset="57.255%" stop-color="#F1EBEB"/><stop offset="100%" stop-color="#D7CCCA"/></linearGradient><linearGradient id="e" gradientUnits="userSpaceOnUse" x1="55.075" y1="6.375" x2="55.225" y2="-9.375" spreadMethod="pad"><stop offset="0%" stop-opacity="0"/><stop offset="100%" stop-opacity=".169"/></linearGradient><radialGradient id="f" gradientUnits="userSpaceOnUse" cx="0" cy="0" r="33.25" fx="0" fy="0" gradientTransform="translate(26.95 25.9)" spreadMethod="pad"><stop offset="0%" stop-color="#E2255F" stop-opacity=".851"/><stop offset="100%" stop-color="#D91D50" stop-opacity=".949"/></radialGradient><radialGradient id="g" gradientUnits="userSpaceOnUse" cx="0" cy="0" r="1" fx="0" fy="0" gradientTransform="translate(44.35 26.9)" spreadMethod="pad"><stop offset="0%" stop-color="#E2255F" stop-opacity=".851"/><stop offset="100%" stop-color="#D91D50" stop-opacity=".949"/></radialGradient><radialGradient id="h" gradientUnits="userSpaceOnUse" cx="0" cy="0" r=".75" fx="0" fy="0" gradientTransform="translate(43.25 28.85)" spreadMethod="pad"><stop offset="0%" stop-color="#E2255F" stop-opacity=".851"/><stop offset="100%" stop-color="#D91D50" stop-opacity=".949"/></radialGradient><radialGradient id="i" gradientUnits="userSpaceOnUse" cx="0" cy="0" r="8" fx="0" fy="0" gradientTransform="translate(44.8 12.9)" spreadMethod="pad"><stop offset="0%" stop-color="#E2255F" stop-opacity=".851"/><stop offset="100%" stop-color="#D91D50" stop-opacity=".949"/></radialGradient><radialGradient id="j" gradientUnits="userSpaceOnUse" cx="0" cy="0" r="7.45" fx="0" fy="0" gradientTransform="translate(44.95 15.45)" spreadMethod="pad"><stop offset="0%" stop-color="#E2255F" stop-opacity=".851"/><stop offset="100%" stop-color="#D91D50" stop-opacity=".949"/></radialGradient><radialGradient id="k" gradientUnits="userSpaceOnUse" cx="0" cy="0" r="6.85" fx="0" fy="0" gradientTransform="translate(44.85 17.8)" spreadMethod="pad"><stop offset="0%" stop-color="#E2255F" stop-opacity=".851"/><stop offset="100%" stop-color="#D91D50" stop-opacity=".949"/></radialGradient><radialGradient id="l" gradientUnits="userSpaceOnUse" cx="0" cy="0" r="5.75" fx="0" fy="0" gradientTransform="translate(45.25 20.05)" spreadMethod="pad"><stop offset="0%" stop-color="#E2255F" stop-opacity=".851"/><stop offset="100%" stop-color="#D91D50" stop-opacity=".949"/></radialGradient><radialGradient id="m" gradientUnits="userSpaceOnUse" cx="0" cy="0" r="2.25" fx="0" fy="0" gradientTransform="translate(45.2 24.15)" spreadMethod="pad"><stop offset="0%" stop-color="#E2255F" stop-opacity=".851"/><stop offset="100%" stop-color="#D91D50" stop-opacity=".949"/></radialGradient><radialGradient id="n" gradientUnits="userSpaceOnUse" cx="0" cy="0" r="3.5" fx="0" fy="0" gradientTransform="translate(45.5 22.3)" spreadMethod="pad"><stop offset="0%" stop-color="#E2255F" stop-opacity=".851"/><stop offset="100%" stop-color="#D91D50" stop-opacity=".949"/></radialGradient><radialGradient id="o" gradientUnits="userSpaceOnUse" cx="0" cy="0" r="6.1" fx="0" fy="0" gradientTransform="translate(45 6.3)" spreadMethod="pad"><stop offset="0%" stop-color="#E2255F" stop-opacity=".851"/><stop offset="100%" stop-color="#D91D50" stop-opacity=".949"/></radialGradient><radialGradient id="p" gradientUnits="userSpaceOnUse" cx="0" cy="0" r="4.2" fx="0" fy="0" gradientTransform="translate(45.5 4.4)" spreadMethod="pad"><stop offset="0%" stop-color="#E2255F" stop-opacity=".851"/><stop offset="100%" stop-color="#D91D50" stop-opacity=".949"/></radialGradient><radialGradient id="q" gradientUnits="userSpaceOnUse" cx="0" cy="0" r="7.05" fx="0" fy="0" gradientTransform="translate(44.65 8.35)" spreadMethod="pad"><stop offset="0%" stop-color="#E2255F" stop-opacity=".851"/><stop offset="100%" stop-color="#D91D50" stop-opacity=".949"/></radialGradient><radialGradient id="r" gradientUnits="userSpaceOnUse" cx="0" cy="0" r="7.65" fx="0" fy="0" gradientTransform="translate(45.1 10.9)" spreadMethod="pad"><stop offset="0%" stop-color="#E2255F" stop-opacity=".851"/><stop offset="100%" stop-color="#D91D50" stop-opacity=".949"/></radialGradient><radialGradient id="s" gradientUnits="userSpaceOnUse" cx="0" cy="0" r="14.392" fx="0" fy="0" gradientTransform="matrix(.98055 -.19628 .2979 1.49123 16.4 21.85)" spreadMethod="pad"><stop offset="0%" stop-color="#E2255F" stop-opacity=".851"/><stop offset="100%" stop-color="#D91D50" stop-opacity=".949"/></radialGradient><radialGradient id="t" gradientUnits="userSpaceOnUse" cx="0" cy="0" r="37.002" fx="0" fy="0" gradientTransform="matrix(.99354 -.1135 .04594 .40167 39.9 15.6)" spreadMethod="pad"><stop offset="0%" stop-color="#E2255F" stop-opacity=".851"/><stop offset="100%" stop-color="#D91D50" stop-opacity=".949"/></radialGradient><radialGradient id="u" gradientUnits="userSpaceOnUse" cx="0" cy="0" r="13.632" fx="0" fy="0" gradientTransform="matrix(.99309 -.11737 .18798 1.58362 16.4 21.85)" spreadMethod="pad"><stop offset="0%" stop-color="#E2255F" stop-opacity=".851"/><stop offset="100%" stop-color="#D91D50" stop-opacity=".949"/></radialGradient><filter id="w" x="-37.137%" y="-66.747%" width="174.274%" height="233.495%" color-interpolation-filters="sRGB"><feGaussianBlur in="SourceGraphic" stdDeviation="11,1.6666666666666667" result="result1"/><feColorMatrix in="result1" values="1 0 0 0 0 0 1 0 0 0 0 0 1 0 0 0 0 0 0.2 0" result="result2"/></filter><path fill="url(#a)" d="M284 0H0v320h284V0z" id="v"/><path d="M40.45 48.9q0-1.55-11.9-2.65Q16.65 45.2-.2 45.2t-28.75 1.05q-11.9 1.1-11.9 2.65 0 1.55 11.9 2.6 11.9 1.1 28.75 1.1t28.75-1.1q11.9-1.05 11.9-2.6z" id="x"/><path fill="url(#b)" d="M47 21.85q2.3-.05 4.25 1.1l7.55 3.7L83.4 0-.2 6.2l36.15 22.05 7.1-5.2q1.7-1.15 3.95-1.2z" id="y"/><path fill="url(#c)" d="M47.6-1.3q-2.55-1.9-4.85 0L0 36.55l83.75-5.8L47.6-1.3z" id="z"/><path fill="#FFF" d="M1.35 0H1.3Q1.15.1.75.55.25.25.1.15q.1.1.55.5-.3.3-.65.7l.1.15q.25-.15.7-.7.2.2.5.45h.2Q1.45 1.1.9.65q.4-.6.45-.65z" id="A"/><path fill="url(#d)" d="M73.85 25.9q-4.1-3.55-6.4-4.6L41.05 5.9q-3.15-2.3-7.75-4-9.25-3.45-16.65-.6L0 9q.7 4.75 1.85 10.8 2.3 12.05 4.55 18.4 3.15 7.6 8.8 19.15 11.25 23.15 23.55 43.2l54.1-32.3-19-42.35z" id="B"/><path fill="#FFF" d="M67.45 21.3L41.05 5.9q-3.15-2.3-7.75-4-9.25-3.45-16.65-.6L0 9q.7 4.75 1.85 10.8 2.3 12.05 4.55 18.4 3.15 7.6 8.8 19.15 11.25 23.15 23.55 43.2l54.1-32.3-19-42.35q-4.1-3.55-6.4-4.6z" id="C"/><path fill="url(#e)" d="M129.7-11.2h-156v28.25h156V-11.2z" id="E"/><path fill="url(#f)" d="M52.25 7.55Q50 2.8 45.35 1.1 37.1-1.85 30.9 3.15q-4.45 3.55-5.45 7.75h-.2q.6-2.55-3.25-6Q17.3.75 9.85.75 3.6.75 1.2 6.1-.05 8.8 0 11.75q0 6.9 3.55 12.55 2.6 4.1 8.1 8.8 2.95 2.6 8.65 7.45 3.4 2.4 7.2 8.4-.85-3.1-2.75-5.9-2.092-3.093-9.4-8.85-7.255-5.712-10.9-10.65Q.801 18.654.8 11.75.8 9 2 6.4q2.25-4.85 8.05-4 5.845.841 9.6 3.6 3.754 2.758 4.45 4.4.75 1.7.3 2.4l.15.15q.15.1.35.15 1.107-3.621 4.4-6.75 3.3-3.137 10.95-4.25 7.697-1.06 10.4 4.45 2.701 5.504 2.7 8.6.002 4.55-3.7 8.9-3.655 4.349-10.7 10.4-7.045 6.05-9.4 9.95-2.302 3.95-2.3 6.95.3.5.3-.05 0-2.75 4.1-7.25 1.3-1.4 9.1-8.7 6.2-5.85 9.1-9.8 4.1-5.65 4.1-10.35 0-4.15-1.7-7.65z" id="F"/><g id="G"><path fill="url(#g)" d="M43.5 26.55q.15.2 1.65.65v-.05q-.4-.4-.75-.5-.25-.1-.9-.1z"/><path fill="url(#h)" d="M42.8 28.8l.75.2.1-.05q-.1-.1-.4-.2-.35-.05-.45.05z"/><path fill="url(#i)" d="M52.2 14.1v-.25q-3.1-.45-7.45-1.4-2.3-.5-7.35-.75 6.05.8 8.05 1.15.5.05 6.75 1.25z"/><path fill="url(#j)" d="M51.65 16.65l.25-.1q-7.95-1.65-13.95-2.3 2.7.65 6.15 1.15 4.55.7 7.55 1.25z"/><path fill="url(#k)" d="M51.15 18.9l.45-.1q-5.85-1.45-13.5-2.1 2.2.45 6.8 1.05 3.75.5 6.25 1.15z"/><path fill="url(#l)" d="M50.4 20.7q-1.1-.4-2.4-.55-1.65-.15-3-.35-4.25-.45-4.95-.45L50.4 20.7z"/><path fill="url(#m)" d="M45.2 24q-1.1-.15-1.7-.15.2.15 2.75.6.6 0 .6-.1-.4-.2-1.65-.35z"/><path fill="url(#n)" d="M42.45 21.75q.85.1 3 .6 2.05.45 2.4.45h.65q-3.25-.95-6.05-1.05z"/><path fill="url(#o)" d="M45.6 6.25q3.4.85 4.5 1.25l.45-.1q-1.5-.6-4.55-1.3-4.05-1-6.55-.95 2.05.1 6.15 1.1z"/><path fill="url(#p)" d="M49.1 5.15q-1.95-.85-3.35-1.1-.65-.15-3.9-.45.45.3 3.2.75 3.25.55 4.05.8z"/><path fill="url(#q)" d="M50.7 9.6q.45 0 .45-.15-4.55-1.1-6.65-1.5-2.9-.55-6.4-.85 7.55 1.25 12.6 2.5z"/><path fill="url(#r)" d="M51.5 12.2l.4-.05q-5.4-1.45-5.85-1.55-3-.7-6.45-1h-.65q-.7.05-.7.15 4.95.5 7.25.95 2.7.45 6 1.5z"/></g><path fill="#E3E3E3" d="M49.9 24.25q.7.1 1.2.3-10.85-14.3-31.55-20.8Q8.7.35 0 0q22.8 7.2 28.85 18.55 2.95 5.5 1.5 9.9 15-4.95 19.55-4.2z" id="H"/><path fill="url(#s)" d="M5.6 2.15L2.05 0Q1.45 0 .9.3-.2.9.05 2.45L5.8 41.2q.25.9 1.35 1.95.396.376.8.65.616.498 1.25.8l29.35-22.2L7.95 3.6 5.6 2.15z" id="I"/><path fill="url(#t)" d="M43 .6q-.95-.3-2.3-.3-2.65 0-4.7 1.55L0 28.95q1.45.8 5.6.4l73.4-9.3q2.5-.65 3.1-1.25L43 .6z" id="J"/><path fill="url(#u)" d="M29.6 36.45l-4.55-35.2Q25-.2 23.8-.4L-.8 26.2l29.6 13.7q.3-.25.55-.8.5-1.1.25-2.65z" id="K"/></defs><use xlink:href="#v"/><g filter="url(#w)" transform="matrix(1 0 0 1 .071 .03)"><use xlink:href="#x" transform="scale(-1.62198 1.62198) rotate(-.758 10813.658 6728.49)"/></g><use xlink:href="#y" transform="matrix(-1.62297 0 0 1.62297 215.845 199.98)"/><use xlink:href="#z" transform="matrix(-1.6229 -.00919 -.00919 1.6229 216.9 149.505)"/><use xlink:href="#A" transform="scale(-1.62176 1.62176) rotate(-86.927 36.389 90.536)"/><use xlink:href="#A" transform="scale(-1.62176 1.62176) rotate(-86.927 35.352 91.908)"/><use xlink:href="#A" transform="scale(-1.62176 1.62176) rotate(-86.927 34.212 93.231)"/><use xlink:href="#A" transform="scale(-1.62176 1.62176) rotate(-86.927 33.174 94.551)"/><use xlink:href="#A" transform="scale(-1.62176 1.62176) rotate(-86.927 32.06 95.9)"/><use xlink:href="#A" transform="scale(-1.62176 1.62176) rotate(-86.927 31.049 97.245)"/><use xlink:href="#A" transform="scale(-1.62176 1.62176) rotate(-86.927 29.885 98.646)"/><use xlink:href="#A" transform="scale(-1.62176 1.62176) rotate(-86.927 28.794 99.917)"/><use xlink:href="#A" transform="scale(-1.62176 1.62176) rotate(-86.927 27.678 101.214)"/><use xlink:href="#A" transform="scale(-1.62176 1.62176) rotate(-86.927 26.62 102.663)"/><use xlink:href="#A" transform="scale(-1.62176 1.62176) rotate(-86.927 25.532 104.037)"/><use xlink:href="#A" transform="scale(-1.62176 1.62176) rotate(-86.927 24.44 105.256)"/><use xlink:href="#A" transform="scale(-1.62176 1.62176) rotate(-86.927 23.376 106.603)"/><use xlink:href="#A" transform="scale(-1.62176 1.62176) rotate(-86.927 22.315 108)"/><use xlink:href="#A" transform="scale(-1.62176 1.62176) rotate(-86.927 21.123 109.326)"/><use xlink:href="#A" transform="scale(-1.62176 1.62176) rotate(-86.927 20.057 110.57)"/><use xlink:href="#A" transform="scale(-1.62176 1.62176) rotate(-86.927 19.093 111.76)"/><use xlink:href="#A" transform="scale(-1.62176 1.62176) rotate(-86.927 18.148 112.768)"/><use xlink:href="#A" transform="scale(-1.62176 1.62176) rotate(-86.927 17.163 114.138)"/><use xlink:href="#A" transform="scale(-1.62176 1.62176) rotate(-86.927 16.02 115.41)"/><use xlink:href="#A" transform="scale(-1.62176 1.62176) rotate(-86.927 14.96 116.808)"/><use xlink:href="#A" transform="scale(-1.62176 1.62176) rotate(-86.927 13.846 118.156)"/><use xlink:href="#A" transform="scale(-1.62176 1.62176) rotate(-86.927 12.833 119.45)"/><use xlink:href="#A" transform="scale(-1.62176 1.62176) rotate(-86.927 11.67 120.903)"/><use xlink:href="#A" transform="scale(-1.62176 1.62176) rotate(-86.927 10.58 122.174)"/><use xlink:href="#A" transform="scale(-1.62176 1.62176) rotate(-86.927 9.413 123.472)"/><use xlink:href="#A" transform="scale(-1.62176 1.62176) rotate(-86.927 8.405 124.92)"/><use xlink:href="#A" transform="scale(-1.62176 1.62176) rotate(-86.927 7.29 126.269)"/><use xlink:href="#A" transform="scale(-1.62176 1.62176) rotate(-86.927 6.198 127.488)"/><use xlink:href="#A" transform="scale(-1.62176 1.62176) rotate(-86.927 5.137 128.886)"/><use xlink:href="#A" transform="scale(-1.62176 1.62176) rotate(-86.927 4.05 130.26)"/><use xlink:href="#A" transform="scale(-1.62176 1.62176) rotate(-86.927 2.884 131.61)"/><g transform="matrix(-1.62297 0 0 1.62297 231.588 105.766)"><use xlink:href="#B"/><mask id="D"><use xlink:href="#C"/></mask><g mask="url(#D)"><use xlink:href="#E" transform="matrix(.66551 .37 -.4868 .87169 17.15 2.5)"/></g><g mask="url(#D)"><use xlink:href="#F" transform="rotate(-17.808 113.171 -25.268) scale(.99593)"/><use xlink:href="#G" transform="rotate(-17.808 113.171 -25.268) scale(.99593)"/></g><g mask="url(#D)"><use xlink:href="#H" transform="translate(22.4 -2.45)"/></g></g><g><use xlink:href="#I" transform="matrix(-1.62297 0 0 1.62297 220.876 210.123)"/><use xlink:href="#A" transform="scale(-1.62254 1.62254) rotate(-.99 9699.618 7551.77)"/><use xlink:href="#A" transform="scale(-1.62254 1.62254) rotate(-.99 9566.247 7576.67)"/><use xlink:href="#A" transform="matrix(-1.6223 -.02803 -.02803 1.6223 210.57 266.115)"/><use xlink:href="#A" transform="matrix(-1.6223 -.02803 -.02803 1.6223 211.3 262.382)"/><use xlink:href="#A" transform="matrix(-1.6223 -.02803 -.02803 1.6223 211.788 258.65)"/><use xlink:href="#A" transform="scale(-1.62254 1.62254) rotate(-.99 9027.173 7653.064)"/><use xlink:href="#A" transform="scale(-1.62254 1.62254) rotate(-.99 8882.299 7669.18)"/><use xlink:href="#A" transform="scale(-1.62254 1.62254) rotate(-.99 8748.952 7691.186)"/><use xlink:href="#A" transform="scale(-1.62254 1.62254) rotate(-.99 8612.787 7704.483)"/><use xlink:href="#A" transform="scale(-1.62254 1.62254) rotate(-.99 8476.546 7726.464)"/><use xlink:href="#A" transform="scale(-1.62254 1.62254) rotate(-.99 8337.41 7748.42)"/><use xlink:href="#A" transform="scale(-1.62254 1.62254) rotate(-.99 8204.09 7767.53)"/><use xlink:href="#A" transform="matrix(-1.6223 -.02803 -.02803 1.6223 216.25 228.138)"/><use xlink:href="#A" transform="scale(-1.62254 1.62254) rotate(-.99 7934.577 7802.833)"/><use xlink:href="#A" transform="scale(-1.62254 1.62254) rotate(-.99 7792.597 7818.975)"/><use xlink:href="#A" transform="scale(-1.62254 1.62254) rotate(-.99 7665.065 7838.136)"/><use xlink:href="#A" transform="matrix(-1.6223 -.02803 -.02803 1.6223 218.36 213.369)"/></g><g><use xlink:href="#J" transform="matrix(-1.62297 0 0 1.62297 205.377 236.009)"/><use xlink:href="#A" transform="scale(-1.62213 1.62213) rotate(-89.991 57.28 107.04)"/><use xlink:href="#A" transform="scale(-1.62213 1.62213) rotate(-89.991 56.329 108.391)"/><use xlink:href="#A" transform="scale(-1.62213 1.62213) rotate(-89.991 55.253 109.717)"/><use xlink:href="#A" transform="scale(-1.62213 1.62213) rotate(-89.991 54.278 111.043)"/><use xlink:href="#A" transform="scale(-1.62213 1.62213) rotate(-89.991 53.227 112.394)"/><use xlink:href="#A" transform="scale(-1.62213 1.62213) rotate(-89.991 52.277 113.695)"/><use xlink:href="#A" transform="scale(-1.62213 1.62213) rotate(-89.991 51.151 115.07)"/><use xlink:href="#A" transform="scale(-1.62213 1.62213) rotate(-89.991 50.176 116.396)"/><use xlink:href="#A" transform="scale(-1.62213 1.62213) rotate(-89.991 49.1 117.672)"/><use xlink:href="#A" transform="scale(-1.62213 1.62213) rotate(-89.991 48.1 119.073)"/><use xlink:href="#A" transform="scale(-1.62213 1.62213) rotate(-89.991 47.074 120.399)"/><use xlink:href="#A" transform="scale(-1.62213 1.62213) rotate(-89.991 46.099 121.675)"/><use xlink:href="#A" transform="scale(-1.62213 1.62213) rotate(-89.991 45.073 123)"/><use xlink:href="#A" transform="scale(-1.62213 1.62213) rotate(-89.991 44.048 124.377)"/><use xlink:href="#A" transform="matrix(-.00025 -1.62213 -1.62213 .00025 134.29 273.5)"/><use xlink:href="#A" transform="scale(-1.62213 1.62213) rotate(-89.991 41.972 126.953)"/><use xlink:href="#A" transform="scale(-1.62213 1.62213) rotate(-89.991 41.046 128.129)"/><use xlink:href="#A" transform="scale(-1.62213 1.62213) rotate(-89.991 40.146 129.13)"/><use xlink:href="#A" transform="scale(-1.62213 1.62213) rotate(-89.991 39.195 130.48)"/><use xlink:href="#A" transform="scale(-1.62213 1.62213) rotate(-89.991 38.12 131.806)"/><use xlink:href="#A" transform="scale(-1.62213 1.62213) rotate(-89.991 37.144 133.132)"/><use xlink:href="#A" transform="scale(-1.62213 1.62213) rotate(-89.991 36.094 134.483)"/><use xlink:href="#A" transform="scale(-1.62213 1.62213) rotate(-89.991 35.143 135.784)"/><use xlink:href="#A" transform="scale(-1.62213 1.62213) rotate(-89.991 34.018 137.16)"/><use xlink:href="#A" transform="scale(-1.62213 1.62213) rotate(-89.991 33.042 138.486)"/><use xlink:href="#A" transform="scale(-1.62213 1.62213) rotate(-89.991 31.967 139.762)"/><use xlink:href="#A" transform="scale(-1.62213 1.62213) rotate(-89.991 30.966 141.163)"/><use xlink:href="#A" transform="scale(-1.62213 1.62213) rotate(-89.991 29.94 142.488)"/><use xlink:href="#A" transform="scale(-1.62213 1.62213) rotate(-89.991 28.965 143.764)"/><use xlink:href="#A" transform="scale(-1.62213 1.62213) rotate(-89.991 27.94 145.09)"/><use xlink:href="#A" transform="scale(-1.62213 1.62213) rotate(-89.991 26.914 146.466)"/><use xlink:href="#A" transform="scale(-1.62213 1.62213) rotate(-89.991 25.789 147.792)"/></g><g><use xlink:href="#K" transform="matrix(-1.62297 0 0 1.62297 118.223 201.034)"/><use xlink:href="#A" transform="matrix(-1.62297 0 0 1.62297 73.998 258.73)"/><use xlink:href="#A" transform="matrix(-1.62297 0 0 1.62297 74.647 254.998)"/><use xlink:href="#A" transform="matrix(-1.62297 0 0 1.62297 75.134 251.022)"/><use xlink:href="#A" transform="matrix(-1.62297 0 0 1.62297 75.783 247.208)"/><use xlink:href="#A" transform="matrix(-1.62297 0 0 1.62297 76.189 243.475)"/><use xlink:href="#A" transform="matrix(-1.62297 0 0 1.62297 76.757 239.742)"/><use xlink:href="#A" transform="matrix(-1.62297 0 0 1.62297 77.162 235.766)"/><use xlink:href="#A" transform="matrix(-1.62297 0 0 1.62297 77.73 231.952)"/><use xlink:href="#A" transform="matrix(-1.62297 0 0 1.62297 78.055 228.138)"/><use xlink:href="#A" transform="matrix(-1.62297 0 0 1.62297 78.704 224.405)"/><use xlink:href="#A" transform="matrix(-1.62297 0 0 1.62297 79.191 220.429)"/><use xlink:href="#A" transform="matrix(-1.62297 0 0 1.62297 79.678 216.615)"/><use xlink:href="#A" transform="matrix(-1.62297 0 0 1.62297 80.165 212.882)"/><use xlink:href="#A" transform="matrix(-1.62297 0 0 1.62297 80.652 209.149)"/><use xlink:href="#A" transform="matrix(-1.62297 0 0 1.62297 81.057 205.173)"/></g></svg>