<svg xmlns="http://www.w3.org/2000/svg" xmlns:xlink="http://www.w3.org/1999/xlink" preserveAspectRatio="none" width="284" height="320"><defs><radialGradient id="a" gradientUnits="userSpaceOnUse" cx="0" cy="0" r="231.45" fx="0" fy="0" gradientTransform="translate(127 170.05)" spreadMethod="pad"><stop offset="0%" stop-color="#FF7474"/><stop offset="100%" stop-color="#FF4141"/></radialGradient><radialGradient id="b" gradientUnits="userSpaceOnUse" cx="0" cy="0" r="42.4" fx="0" fy="0" gradientTransform="translate(49.2 165.5)" spreadMethod="pad"><stop offset="0%" stop-color="#FF7474"/><stop offset="100%" stop-color="#FF0303"/></radialGradient><radialGradient id="c" gradientUnits="userSpaceOnUse" cx="0" cy="0" r="25.45" fx="0" fy="0" gradientTransform="translate(47.35 128.6)" spreadMethod="pad"><stop offset="0%" stop-color="#FF7474"/><stop offset="100%" stop-color="#FF0303"/></radialGradient><radialGradient id="d" gradientUnits="userSpaceOnUse" cx="0" cy="0" r="31.75" fx="0" fy="0" gradientTransform="translate(31.7 104.15)" spreadMethod="pad"><stop offset="0%" stop-color="#FF7474"/><stop offset="100%" stop-color="#FF0303"/></radialGradient><radialGradient id="e" gradientUnits="userSpaceOnUse" cx="0" cy="0" r="129.2" fx="0" fy="0" gradientTransform="translate(114.35 101.5)" spreadMethod="pad"><stop offset="0%" stop-color="#FF7474"/><stop offset="100%" stop-color="#FF0303"/></radialGradient><radialGradient id="f" gradientUnits="userSpaceOnUse" cx="0" cy="0" r="18.065" fx="0" fy="0" gradientTransform="rotate(-14.998 556.85 186.33)" spreadMethod="pad"><stop offset="0%" stop-color="#FFF"/><stop offset="100%" stop-color="red"/><stop offset="100%"/></radialGradient><radialGradient id="g" gradientUnits="userSpaceOnUse" cx="0" cy="0" r="18.065" fx="0" fy="0" gradientTransform="rotate(-14.998 857.366 -154.742)" spreadMethod="pad"><stop offset="0%" stop-color="#FFF"/><stop offset="100%" stop-color="red"/><stop offset="100%"/></radialGradient><radialGradient id="h" gradientUnits="userSpaceOnUse" cx="0" cy="0" r="18.065" fx="0" fy="0" gradientTransform="rotate(-14.998 167.875 -55.574)" spreadMethod="pad"><stop offset="0%" stop-color="#FFF"/><stop offset="100%" stop-color="red"/><stop offset="100%"/></radialGradient><filter id="l" x="-20%" y="-20%" width="140%" height="140%" color-interpolation-filters="sRGB"><feColorMatrix in="SourceGraphic" values="1 0 0 0 0 0 1 0 0 0 0 0 1 0 0 0 0 0 0.11 0" result="result1"/></filter><path fill="url(#a)" d="M0 320h284V0H0v320z" id="i"/><g id="j"><path fill="url(#b)" d="M78 134.4q-6.35 1.85-11.6 5.65-8.8 4.2-16.6 3.4-12-1.5-23.05 1.85-3.15 2.9-5.45 3.3-4.6 7.5 13.65 27.05 10.05 9.6 13.8 20.9L78 134.4z"/><path fill="url(#c)" d="M71.4 120.35l-6.75.6q-5.2 1.8-9.95.3l-1.3.4-30.15 10.05q1.9 6.7 4.6 4.6Q44.1 127.8 58 125.05q7.95-1.95 13.4-4.7z"/><path fill="url(#d)" d="M43.8 97.05q-2.2-2.35-3.2-4.9l-24.55-15.6q-.2 12.35-3.95 24.2-5.25 15.55 2.75 29.35 5-2.1 8.4 1.6l30.15-10.05q-4.75-1.85-6.55-6.55l1.1-1.1q-.25-1.1-1.35-1.35l-.85.8q-1.45-.35-1.9-1.9 1.2-3.1-1.1-6.85 2.15-3.95 1.05-7.65z"/><path fill="url(#e)" d="M198.5 68.45q-4.4 2.3-8.45.85-8.6-2.95-11.95 3.15 2.5 9-.3 15.5-10.45 14.15-9.7 25.9-7.45 5.3-17.5 5.6-5.6-3.55-26.15-3.05-3.2.2-6.55-2.55 5.35 1.25 9.5-.45-.6-1.95-2.25-2.75 5.55.45 8.05-2.7-.25-1.3-1.4-1.9 10.95-.35 4.65-6.65 10.5-5.9.35-9.55 5.7-5.95-.15-6.7 8.15-6.1 1.45-7.05 8.6-4.15 4.95-6.3 15.9-7 7.25-12.65 9.8-3.2 7.8-7.8-1.1-1.8-5.55-.85 9.85-6.35 7.25-9.45-4.2-.5-8.25 2.25 8.6-6.3 13.35-15.15.9-4.45-4.4-2.3-12.6 13.6-26.15 22.75-3.3-2.5-8.5-.2 7.35-9.1 4.9-13.4-2.7 1.1-5.95 4.4l.3-.35q5.55-8.15 4.6-12.9-2.4.8-5 4 3.25-6.55 1.7-12.9-3.1 1.45-4.85 6.25 2.3-11.15-2.7-14.05-1.8 4.85-4.05 10.6-.4 1.45-1.05 2.8.65-1.35 1.05-2.8 1.55-5.9-.5-12.15-2.2-3.65-5.9-5.9-.85 15-4.85 26.9-8.2 20.2-16.4 36.15-2.7-6.5-10.85-5.4-.05-1.95-1.85-2.55-5.35 5.05-8.85 1.9-7.3-2.25-12.6 5.55.45-3.85-1.65-4.55l-14 13.95q-3.9 7.15 2.35 12.75-.6 3.95.9 7.45 1 2.55 3.2 4.9 1.1 3.7-1.05 7.65 2.3 3.75 1.1 6.85.45 1.55 1.9 1.9l.85-.8q1.1.25 1.35 1.35l-1.1 1.1q1.8 4.7 6.55 6.55l1.3-.4q4.75 1.5 9.95-.3l6.75-.6q-5.45 2.75-13.4 4.7-13.9 2.75-30.15 11.25-2.7 2.1-4.6-4.6-3.4-3.7-8.4-1.6-8-13.8-2.75-29.35 3.75-11.85 3.95-24.2-3.45-10-8.15-8.15 3 .8 3.4 3.4 4.7 4.35-3.9 29.75-9 17.4 3.15 30.25l-1.45 1.4q-3.3-4.25-7.1 3.15L0 141q5.8 4.05 11.65 2.4-.2 5 3.6 6.5-5.5 9.5 16.7 28.5 16.6 15.2 13.55 20.95-1.65 3.85-3.95-1.55-1.85 2.15 1.3 4.7 4.5 2.4 5.9-5.95-3.75-11.3-13.8-20.9Q16.7 156.1 21.3 148.6q2.3-.4 5.45-3.3 11.05-3.35 23.05-1.85 7.8.8 16.6-3.4 5.25-3.8 11.6-5.65 3.85-1 8.15-1.45 6 6.45 11.5 11.25 8.5 3 15.45 9 15.7 13.3 28.8 6.25 18.9 10.05 33.75 12.25 10.3-5.1 29.35-20.25 7.8-2.1 13.7 3.15 4.8 1.25 5.5 5.55.7 1.85 2.15 2.65 3.3.75 2.05-4.65 1-7.05-6.65-12.35-4.9-2.5-6.65-9.1-6.15-7.9-10.8.85l-4.05 4q-21 1.4-27.1 8.85-6.45-1.05-12.85-7.95 17-6.1 25.7-19.4.45-8.9 2.6-17.1 0-.1.05-.15-.1-9.2 1.4-18.2 3.5-11.4 19.25-11.15 4.75.6 2.9-2.9-7.35-5.6-13.7-5.1M93.45 88q-1.6-5.1-.8-9.7 2.6 3.7 2.1 8.4l-1.3 1.3z"/><path fill="red" d="M92.65 78.3q-.8 4.6.8 9.7l1.3-1.3q.5-4.7-2.1-8.4z"/></g><path fill="#FFF" d="M50.95 66.4q26.553-19.624 8.45-14.65-12.6-5.6-20.7-15.05 7.797-23.145-15.4-45.45-2.686 11.158-7.05 25.85Q11.948 31.834 0 53.35 27.45 55.9 50.95 66.4z" id="m"/><g id="n"><path fill="url(#f)" d="M-31 144.1q-2.8.7-4.5 2.9-1.6 2.05-1.75 4.8-.15 2.75 1.15 5.25 1.8 3.35 5.55 5.3 2.95 1.65 7.05 2.35 3 .55 6.2.55 1.7.05 2.65-.05.85-.85 2-2.3 2.3-2.9 3.95-5.85 2.2-4.15 2.7-7.85.65-4.7-1.45-8.4-1.35-2.45-3.65-3.65-2.3-1.1-4.8-.7-2.55.45-4.65 2.4-2.25 2.1-3.5 5.65-3.9-1.15-6.95-.4z"/><path fill="url(#g)" d="M91.05 206.95q-1.35-2.45-3.65-3.65-2.3-1.1-4.8-.7-2.55.45-4.65 2.4-2.25 2.1-3.5 5.65-3.9-1.15-6.95-.4-2.8.7-4.5 2.9-1.6 2.05-1.75 4.8-.15 2.75 1.15 5.25 1.8 3.35 5.55 5.3 2.95 1.65 7.05 2.35 3 .55 6.2.55 1.7.05 2.65-.05.85-.85 2-2.3 2.3-2.9 3.95-5.85 2.2-4.15 2.7-7.85.65-4.7-1.45-8.4z"/><path fill="url(#h)" d="M43.35 40.3q.65-4.7-1.45-8.4-1.35-2.45-3.65-3.65-2.3-1.1-4.8-.7-2.55.45-4.65 2.4-2.25 2.1-3.5 5.65-3.9-1.15-6.95-.4-2.8.7-4.5 2.9-1.6 2.05-1.75 4.8-.15 2.75 1.15 5.25 1.8 3.35 5.55 5.3 2.95 1.65 7.05 2.35 3 .55 6.2.55 1.7.05 2.65-.05.85-.85 2-2.3 2.3-2.9 3.95-5.85 2.2-4.15 2.7-7.85z"/></g><path id="k" stroke="#000" stroke-width="1.5" stroke-linejoin="round" stroke-linecap="round" fill="none" d="M40.6 92.15q-1.5-3.5-.9-7.45-6.25-5.6-2.35-12.75l14-13.95q2.1.7 1.65 4.55 5.3-7.8 12.6-5.55 3.5 3.15 8.85-1.9 1.8.6 1.85 2.55 8.15-1.1 10.85 5.4 8.2-15.95 16.4-36.15 4-11.9 4.85-26.9 3.7 2.25 5.9 5.9 2.05 6.25.5 12.15 2.25-5.75 4.05-10.6 5 2.9 2.7 14.05 1.75-4.8 4.85-6.25 1.55 6.35-1.7 12.9 2.6-3.2 5-4 .95 4.75-4.6 12.9l-.3.35q3.25-3.3 5.95-4.4 2.45 4.3-4.9 13.4 5.2-2.3 8.5.2 13.55-9.15 26.15-22.75 5.3-2.15 4.4 2.3-4.75 8.85-13.35 15.15 4.05-2.75 8.25-2.25 2.6 3.1-7.25 9.45 4.45-.95 5.55.85 2 4.6-7.8 7.8 8.65 5.65-7.25 12.65 3.65 2.15-4.95 6.3 6.7.95-1.45 7.05 5.85.75.15 6.7 10.15 3.65-.35 9.55 6.3 6.3-4.65 6.65 1.15.6 1.4 1.9-2.5 3.15-8.05 2.7 1.65.8 2.25 2.75-4.15 1.7-9.5.45 3.35 2.75 6.55 2.55 20.55-.5 26.15 3.05 10.05-.3 17.5-5.6-.75-11.75 9.7-25.9 2.8-6.5.3-15.5 3.35-6.1 11.95-3.15 4.05 1.45 8.45-.85 6.35-.5 13.7 5.1 1.85 3.5-2.9 2.9-15.75-.25-19.25 11.15-1.5 9-1.4 18.2-.05.05-.05.15-2.15 8.2-2.6 17.1-8.7 13.3-25.7 19.4 6.4 6.9 12.85 7.95 6.1-7.45 27.1-8.85l4.05-4q4.65-8.75 10.8-.85 1.75 6.6 6.65 9.1 7.65 5.3 6.65 12.35 1.25 5.4-2.05 4.65-1.45-.8-2.15-2.65-.7-4.3-5.5-5.55-5.9-5.25-13.7-3.15-19.05 15.15-29.35 20.25-14.85-2.2-33.75-12.25-13.1 7.05-28.8-6.25-6.95-6-15.45-9-5.5-4.8-11.5-11.25-4.3.45-8.15 1.45l-29.25 62.15q-1.4 8.35-5.9 5.95-3.15-2.55-1.3-4.7 2.3 5.4 3.95 1.55 3.05-5.75-13.55-20.95-22.2-19-16.7-28.5-3.8-1.5-3.6-6.5Q5.8 145.05 0 141l2-4.65q3.8-7.4 7.1-3.15l1.45-1.4Q-1.6 118.95 7.4 101.55q8.6-25.4 3.9-29.75-.4-2.6-3.4-3.4 4.7-1.85 8.15 8.15l24.55 15.6q1 2.55 3.2 4.9 1.1 3.7-1.05 7.65 2.3 3.75 1.1 6.85.45 1.55 1.9 1.9l.85-.8q1.1.25 1.35 1.35l-1.1 1.1q1.8 4.7 6.55 6.55l1.3-.4q4.75 1.5 9.95-.3l6.75-.6q-5.45 2.75-13.4 4.7-13.9 2.75-30.15 11.25-2.7 2.1-4.6-4.6-3.4-3.7-8.4-1.6-8-13.8-2.75-29.35 3.75-11.85 3.95-24.2m98.75-58.5q-.4 1.45-1.05 2.8M93.45 88l1.3-1.3q.5-4.7-2.1-8.4-.8 4.6.8 9.7zM78 134.4q-6.35 1.85-11.6 5.65-8.8 4.2-16.6 3.4-12-1.5-23.05 1.85-3.15 2.9-5.45 3.3-4.6 7.5 13.65 27.05 10.05 9.6 13.8 20.9m-25.5-64.85l30.15-10.05"/></defs><use xlink:href="#i"/><g transform="translate(46.25 77.3)"><use xlink:href="#j"/><use xlink:href="#k"/></g><use filter="url(#l)" xlink:href="#m" transform="translate(132.9 87)"/><use xlink:href="#n" transform="translate(46.25 77.3)"/></svg>