<svg xmlns="http://www.w3.org/2000/svg" xmlns:xlink="http://www.w3.org/1999/xlink" preserveAspectRatio="none" width="284" height="320"><defs><g id="a"><path fill="#FFF" d="M418.8 426.1L150.7 383v15.5l268.1 27.6m208.3-274.9L432.35 420.5 651.4 151.2h-24.3M432.35 433.95l193.3 267.25h24.1l-217.4-267.25m143.1 267.25h20.2l-164.2-266.65 144 266.65m-82.85 0h16.15L429.4 435.4l63.2 265.8m39.35 0h17.7l-119.2-266.15 101.5 266.15m-112.3 0h15.05l-7.5-265.5-7.55 265.5m35.95 0h15.35L428.3 435.65l27.3 265.55m-110 0h16.2L425 435.4l-79.4 265.8m37.8 0h15.35l27.35-265.55-42.7 265.55M150.7 576.8v20.4l269.15-165.75L150.7 576.8m108.05 124.4h20.15l144.05-266.65-164.2 266.65m45.95 0h17.75l101.5-266.15L304.7 701.2m-100.1 0h24.15L422 433.95 204.6 701.2m-53.9-12.45v12.45h17.25l253.25-268-270.5 255.55m0-61.3v24.35l269.75-219.4L150.7 627.45m0-134.25v16.3L419 429.4l-268.3 63.8m0 39.7v17.9l268.65-120.35L150.7 532.9m0-77v15.5l268.1-43.05-268.1 27.55m0-36.3v15.2l268-7.6-268-7.6m0-74.75v16.35L419 425l-268.3-80.15m0-41.25v17.9l268.65 102.45L150.7 303.6m0-46.4v20.4l269.15 145.35L150.7 257.2m0-54.6v24.35l269.75 195.1L150.7 202.6m0-51.4v14.45L421.2 421.2l-255.15-270H150.7m171 0h-17.9l120.15 268.2L321.7 151.2m-43.9 0h-20.3l165.45 268.65L277.8 151.2m-50.55 0H203l219 269.3-194.75-269.3m244.05 0h-15.5l-27.5 267.6 43-267.6m-36.55 0h-15.2l7.65 267.55 7.55-267.55m-36.2 0H383.1l43 267.6-27.55-267.6m-37.25 0H345L425 419l-63.7-267.8m235.6 0h-20.35l-145.1 268.65L596.9 151.2m-46.35 0H532.7L430.45 419.4l120.1-268.2m-41.2 0H493.1L429.4 419l79.95-267.8M700.7 398.8v-15.3l-265.1 42.6 265.1-27.3m0 196.55v-20.1l-266.15-143.8 266.15 163.9M686.4 701.2h14.3v-15.3L433.2 433.2l253.2 268m14.3-51.85V625.3L433.9 432.4l266.8 216.95m0-140.75v-16.15L435.4 429.4l265.3 79.2m0 40.85v-17.7l-265.65-101.3 265.65 119m0-78.55v-15.3l-265.1-27.25 265.1 42.55m0-36.2v-15l-265 7.5 265 7.5m0-72.8v-16.15L435.4 425l265.3-63.1m0-39.25v-17.7l-265.65 119 265.65-101.3m0-43.45v-20.15l-266.15 163.9L700.7 279.2m0-50.15V205L433.9 422.05l266.8-193m0-60.55v-17.3h-12.4l-255.1 270 267.5-252.7z"/><path fill="#F0C" d="M688.3 151.2h-36.9L432.35 420.5 627.1 151.2h-30.2L431.45 419.85l145.1-268.65h-26l-120.1 268.2L532.7 151.2h-23.35L429.4 419l63.7-267.8h-21.8l-43 267.6 27.5-267.6h-21.05l-7.55 267.55-7.65-267.55h-21l27.55 267.6-43-267.6h-21.8L425 419l-80-267.8h-23.3l102.25 268.2L303.8 151.2h-26l145.15 268.65L257.5 151.2h-30.25L422 420.5 203 151.2h-36.95l255.15 270-270.5-255.55v36.95l269.75 219.45-269.75-195.1v30.25l269.15 165.75L150.7 277.6v26l268.65 120.35L150.7 321.5v23.35L419 425l-268.3-63.8V383l268.1 43.1-268.1-27.6v21.1l268 7.6-268 7.6v21.1l268.1-27.55-268.1 43.05v21.8L419 429.4l-268.3 80.1v23.4l268.65-102.45L150.7 550.8v26l269.15-145.35L150.7 597.2v30.25L420.45 432.4 150.7 651.8v36.95L421.2 433.2l-253.25 268h36.65L422 433.95 228.75 701.2h30l164.2-266.65L278.9 701.2h25.8l119.25-266.15-101.5 266.15h23.15L425 435.4l-63.2 265.8h21.6l42.7-265.55-27.35 265.55h20.9l7.55-265.5 7.5 265.5h20.9l-27.3-265.55 42.65 265.55h21.65l-63.2-265.8 79.35 265.8h23.2l-101.5-266.15 119.2 266.15h25.8l-144-266.65 164.2 266.65h30l-193.3-267.25 217.4 267.25h36.65l-253.2-268 267.5 252.7v-36.55L433.9 432.4l266.8 192.9v-29.95l-266.15-163.9 266.15 143.8v-25.8l-265.65-119 265.65 101.3V508.6l-265.3-79.2 265.3 63.05V470.9l-265.1-42.55 265.1 27.25v-20.9l-265-7.5 265-7.5v-20.9l-265.1 27.3 265.1-42.6v-21.6L435.4 425l265.3-79.25v-23.1l-265.65 101.3 265.65-119V279.2L434.55 422.95l266.15-163.9v-30l-266.8 193L700.7 205v-36.5L433.2 421.2l255.1-270z"/></g><path fill="#FFCCD2" d="M700.7 701.2v-550h-550v550h550z" id="b"/><g id="c"><path fill="#FCF" d="M65.65 153.8q.5 1.25 1 2.55l49.65 39.3q5.4-.3 11.65-.75 12.5-.8 30.3-5.2l-102-78.85q3.6 27.05 9.4 42.95m134.7 21.85q17.55-8 30.85-19.2L64.25 32.4q-1.45 2.45-3.8 9-4.55 13.1-5.85 28l145.75 106.25m-18.6-114.7q-6.95 1.9-11.55 3.9l82.05 61.4q2.25-7.2 2.6-15.2 1.1-25.95-13.7-38.95-14.7-13.25-32.25-14.25-12.5-.85-27.15 3.1m-12 3.55q-.15-5.2-1.2-12.35-2.45-15.1-8.3-26.5-8.2-15.9-22.2-22.2-17.55-7.8-43 2-1.4.5-2.7 1.1l77.4 57.95z"/><path fill="#F9F" d="M66.65 156.35q6.1 16.65 9.7 26.65 3.95 10.8 6.95 12.8 2.85 1.9 14.1 1.15 7.65-.55 18.9-1.3l-49.65-39.3m112.8 27.25q11.15-3.5 20.9-7.95L54.6 69.4q-1.4 15.05.45 32.1.5 4.8 1.2 9.35l102 78.85q9.85-2.5 21.2-6.1M169.7 65q0-.25.05-.5L92.35 6.55Q75.3 14 64.25 32.4L231.2 156.45q.8-.65 1.5-1.25 14.6-12.65 19.55-28.95l-82.05-61.4q-.3.05-.5.15z"/></g><path fill="#FFF" d="M150.55 189q-1.05 0-1.8.7-.7.75-.7 1.8t.7 1.75q.75.75 1.8.75t1.75-.75q.75-.7.75-1.75t-.75-1.8q-.7-.7-1.75-.7m-7.6-11.4q-.7.75-.7 1.8t.7 1.75q.75.75 1.8.75t1.75-.75q.75-.7.75-1.75t-.75-1.8q-.7-.7-1.75-.7t-1.8.7m10.7 6.6q0-1.05-.75-1.8-.7-.7-1.75-.7t-1.8.7q-.7.75-.7 1.8t.7 1.75q.75.75 1.8.75t1.75-.75q.75-.7.75-1.75m-13.3 8.8q0 1.05.7 1.75.75.75 1.8.75t1.75-.75q.75-.7.75-1.75t-.75-1.8q-.7-.7-1.75-.7t-1.8.7q-.7.75-.7 1.8m-7.25-.55q-.7.75-.7 1.8t.7 1.75q.75.75 1.8.75t1.75-.75q.75-.7.75-1.75t-.75-1.8q-.7-.7-1.75-.7t-1.8.7m-4.4.75q-.7-.7-1.75-.7t-1.8.7q-.7.75-.7 1.8t.7 1.75q.75.75 1.8.75t1.75-.75q.75-.7.75-1.75t-.75-1.8m11.5-20.5q-.7-.7-1.75-.7t-1.8.7q-.7.75-.7 1.8t.7 1.75q.75.75 1.8.75t1.75-.75q.75-.7.75-1.75t-.75-1.8m-9.95-4.85q-.7.75-.7 1.8t.7 1.75q.75.75 1.8.75t1.75-.75q.75-.7.75-1.75t-.75-1.8q-.7-.7-1.75-.7t-1.8.7m-2.1-3.1q0-1.05-.75-1.8-.7-.7-1.75-.7t-1.8.7q-.7.75-.7 1.8t.7 1.75q.75.75 1.8.75t1.75-.75q.75-.7.75-1.75m-11.85 28.4q-1.05 0-1.8.7-.7.75-.7 1.8t.7 1.75q.75.75 1.8.75.846 0 1.45-.5.55.3 1.2.3 1.05 0 1.75-.75.75-.7.75-1.75t-.75-1.8q-.7-.7-1.75-.7-.85 0-1.5.45-.512-.25-1.15-.25m-5.4 3.05q0-1.05-.75-1.8-.7-.7-1.75-.7t-1.8.7q-.7.75-.7 1.8t.7 1.75q.75.75 1.8.75t1.75-.75q.75-.7.75-1.75m-.15-7.45q-1.05 0-1.8.7-.7.75-.7 1.8t.7 1.75q.75.75 1.8.75t1.75-.75q.75-.7.75-1.75t-.75-1.8q-.7-.7-1.75-.7m-6.3-4.9q-1.05 0-1.8.7-.7.75-.7 1.8t.7 1.75q.75.75 1.8.75t1.75-.75q.75-.7.75-1.75t-.75-1.8q-.7-.7-1.75-.7m-5.85 11.1q-.7.75-.7 1.8t.7 1.75q.75.75 1.8.75t1.75-.75q.75-.7.75-1.75t-.75-1.8q-.7-.7-1.75-.7t-1.8.7m-7.75.4q-.7.75-.7 1.8t.7 1.75q.75.75 1.8.75t1.75-.75q.75-.7.75-1.75t-.75-1.8q-.7-.7-1.75-.7t-1.8.7m-3.35 1.15q0-1.05-.75-1.8-.7-.7-1.75-.7t-1.8.7q-.7.75-.7 1.8t.7 1.75q.75.75 1.8.75t1.75-.75q.75-.7.75-1.75m12.4-13.4q.75-.7.75-1.75t-.75-1.8q-.7-.7-1.75-.7t-1.8.7q-.7.75-.7 1.8t.7 1.75q.75.75 1.8.75t1.75-.75m-5.55-6.75q0-1.05-.75-1.8-.7-.7-1.75-.7t-1.8.7q-.7.75-.7 1.8t.7 1.75q.75.75 1.8.75t1.75-.75q.75-.7.75-1.75m-7.05-6.8q-.7-.7-1.75-.7t-1.8.7q-.7.75-.7 1.8t.7 1.75q.75.75 1.8.75t1.75-.75q.75-.7.75-1.75t-.75-1.8m33.7-11.5q-.7-.7-1.75-.7t-1.8.7q-.7.75-.7 1.8t.7 1.75q.75.75 1.8.75t1.75-.75q.75-.7.75-1.75t-.75-1.8m-6.3-1.35q.75-.7.75-1.75t-.75-1.8q-.7-.7-1.75-.7t-1.8.7q-.7.75-.7 1.8t.7 1.75q.75.75 1.8.75t1.75-.75m-6.3-8.45q-.7-.7-1.75-.7t-1.8.7q-.7.75-.7 1.8t.7 1.75q.75.75 1.8.75t1.75-.75q.75-.7.75-1.75t-.75-1.8m-9.85-4.9q-.7.75-.7 1.8t.7 1.75q.75.75 1.8.75t1.75-.75q.75-.7.75-1.75t-.75-1.8q-.7-.7-1.75-.7t-1.8.7m-2.75-4.9q-.7-.7-1.75-.7t-1.8.7q-.7.75-.7 1.8t.7 1.75q.75.75 1.8.75t1.75-.75q.75-.7.75-1.75t-.75-1.8m-9.85-4.9q-.7.75-.7 1.8t.7 1.75q.75.75 1.8.75t1.75-.75q.75-.7.75-1.75t-.75-1.8q-.7-.7-1.75-.7t-1.8.7m35.35-18.95q-.7-.7-1.75-.7t-1.8.7q-.7.75-.7 1.8t.7 1.75q.75.75 1.8.75t1.75-.75q.75-.7.75-1.75t-.75-1.8m-16.5-9.4q-.7.75-.7 1.8t.7 1.75q.75.75 1.8.75t1.75-.75q.75-.7.75-1.75t-.75-1.8q-.7-.7-1.75-.7t-1.8.7m-2.2-2.9q0-1.05-.75-1.8-.7-.7-1.75-.7t-1.8.7q-.7.75-.7 1.8t.7 1.75q.75.75 1.8.75t1.75-.75q.75-.7.75-1.75m12.25 7.6q-.7-.7-1.75-.7t-1.8.7q-.7.75-.7 1.8t.7 1.75q.75.75 1.8.75t1.75-.75q.75-.7.75-1.75t-.75-1.8m41.5 32.9q-.7.75-.7 1.8t.7 1.75q.75.75 1.8.75t1.75-.75q.75-.7.75-1.75t-.75-1.8q-.7-.7-1.75-.7t-1.8.7m-6.4-4.7q-.7.75-.7 1.8t.7 1.75q.75.75 1.8.75t1.75-.75q.75-.7.75-1.75t-.75-1.8q-.7-.7-1.75-.7t-1.8.7m-2.85-4.7q-.7-.7-1.75-.7t-1.8.7q-.7.75-.7 1.8t.7 1.75q.75.75 1.8.75t1.75-.75q.75-.7.75-1.75t-.75-1.8m-14.55-5.1q1.05 0 1.75-.75.75-.7.75-1.75t-.75-1.8q-.7-.7-1.75-.7t-1.8.7q-.7.75-.7 1.8t.7 1.75q.75.75 1.8.75m8.15.4q-.7-.7-1.75-.7t-1.8.7q-.7.75-.7 1.8t.7 1.75q.75.75 1.8.75t1.75-.75q.75-.7.75-1.75t-.75-1.8m-16.45-9.4q-.7.75-.7 1.8t.7 1.75q.75.75 1.8.75t1.75-.75q.75-.7.75-1.75t-.75-1.8q-.7-.7-1.75-.7t-1.8.7m-44.7 68.8q-1.05 0-1.8.7-.7.75-.7 1.8t.7 1.75q.75.75 1.8.75t1.75-.75q.75-.7.75-1.75t-.75-1.8q-.7-.7-1.75-.7m-4.9-6.7q-.7.75-.7 1.8t.7 1.75q.75.75 1.8.75t1.75-.75q.75-.7.75-1.75t-.75-1.8q-.7-.7-1.75-.7t-1.8.7m-3.5-5.75q0 1.05.7 1.75.75.75 1.8.75t1.75-.75q.75-.7.75-1.75t-.75-1.8q-.7-.7-1.75-.7t-1.8.7q-.7.75-.7 1.8m8.1-11.8q-1.05 0-1.8.7-.7.75-.7 1.8t.7 1.75q.75.75 1.8.75t1.75-.75q.75-.7.75-1.75t-.75-1.8q-.7-.7-1.75-.7m-10.2 2.3q-.7.75-.7 1.8t.7 1.75q.75.75 1.8.75t1.75-.75q.75-.7.75-1.75t-.75-1.8q-.7-.7-1.75-.7t-1.8.7m5.65-6.6q-.7-.7-1.75-.7t-1.8.7q-.329.352-.5.75-.047-.947-.75-1.65-.57-.57-1.4-.7.65-.642.65-1.6 0-1.05-.75-1.8-.7-.7-1.75-.7t-1.8.7q-.7.75-.7 1.8t.7 1.75l.1.1q.048.044.1.05.255.241.55.35.28.167.6.2-.55.713-.55 1.65 0 1.05.7 1.75.75.75 1.8.75t1.75-.75q.364-.34.55-.75.03.98.7 1.65.75.75 1.8.75t1.75-.75q.75-.7.75-1.75t-.75-1.8m-10.8-13.4q-1.05 0-1.8.7-.7.75-.7 1.8t.7 1.75q.75.75 1.8.75t1.75-.75q.75-.7.75-1.75t-.75-1.8q-.7-.7-1.75-.7m9.45-22.4q-.7.75-.7 1.8t.7 1.75q.75.75 1.8.75t1.75-.75q.75-.7.75-1.75t-.75-1.8q-.7-.7-1.75-.7t-1.8.7m6.3 4.9q-.7.75-.7 1.8t.7 1.75q.75.75 1.8.75t1.75-.75q.75-.7.75-1.75t-.75-1.8q-.7-.7-1.75-.7t-1.8.7m-20.45 12.2q0 1.05.7 1.75.75.75 1.8.75t1.75-.75q.75-.7.75-1.75t-.75-1.8q-.7-.7-1.75-.7t-1.8.7q-.7.75-.7 1.8m.75-10.3q-1.05 0-1.8.7-.7.75-.7 1.8t.7 1.75q.75.75 1.8.75t1.75-.75q.75-.7.75-1.75t-.75-1.8q-.7-.7-1.75-.7m.2-7.25q-.7-.7-1.75-.7t-1.8.7q-.7.75-.7 1.8t.7 1.75q.75.75 1.8.75t1.75-.75q.75-.7.75-1.75t-.75-1.8m-.55-6.2q0-1.05-.75-1.8-.7-.7-1.75-.7t-1.8.7q-.7.75-.7 1.8t.7 1.75q.75.75 1.8.75t1.75-.75q.75-.7.75-1.75m-5.15-8.05q-.7.75-.7 1.8t.7 1.75q.75.75 1.8.75t1.75-.75q.75-.7.75-1.75t-.75-1.8q-.7-.7-1.75-.7t-1.8.7M57 104.7q.75-.7.75-1.75t-.75-1.8q-.7-.7-1.75-.7t-1.8.7q-.7.75-.7 1.8t.7 1.75q.75.75 1.8.75t1.75-.75m13.6 14.15q-.7-.7-1.75-.7t-1.8.7q-.7.75-.7 1.8t.7 1.75q.75.75 1.8.75t1.75-.75q.75-.7.75-1.75t-.75-1.8m-5.55-3.1q0-1.05-.75-1.8-.7-.7-1.75-.7t-1.8.7q-.7.75-.7 1.8t.7 1.75q.75.75 1.8.75t1.75-.75q.75-.7.75-1.75M70.1 78.8q0-1.05-.75-1.8-.7-.7-1.75-.7t-1.8.7q-.7.75-.7 1.8t.7 1.75q.75.75 1.8.75t1.75-.75q.75-.7.75-1.75m2.2 2.9q-.7.75-.7 1.8t.7 1.75q.75.75 1.8.75t1.75-.75q.75-.7.75-1.75t-.75-1.8q-.7-.7-1.75-.7t-1.8.7M52.65 93.15q-.7.75-.7 1.8t.7 1.75q.75.75 1.8.75t1.75-.75q.75-.7.75-1.75t-.75-1.8q-.7-.7-1.75-.7t-1.8.7m1.4-8.6q-1.05 0-1.8.7-.7.75-.7 1.8t.7 1.75q.75.75 1.8.75t1.75-.75q.75-.7.75-1.75t-.75-1.8q-.7-.7-1.75-.7m2.5-5.45q0-1.05-.75-1.8-.7-.7-1.75-.7t-1.8.7q-.7.75-.7 1.8t.7 1.75q.75.75 1.8.75t1.75-.75q.75-.7.75-1.75M54.6 66.9q-1.05 0-1.8.7-.7.75-.7 1.8 0 .29.05.55-.2.484-.2 1.05 0 1.05.7 1.75.75.75 1.8.75t1.75-.75q.75-.7.75-1.75 0-.303-.05-.6.142-.306.15-.7.045-.083.05-.2v-.1q0-1.05-.75-1.8-.7-.7-1.75-.7m.95-7.95q-1.05 0-1.8.7-.7.75-.7 1.8t.7 1.75q.75.75 1.8.75t1.75-.75q.75-.7.75-1.75t-.75-1.8q-.7-.7-1.75-.7m3.95-5.45q0-1.05-.75-1.8-.7-.7-1.75-.7t-1.8.7q-.7.75-.7 1.8t.7 1.75q.75.75 1.8.75t1.75-.75q.75-.7.75-1.75m4.1 20.6q0-1.05-.75-1.8-.7-.7-1.75-.7t-1.8.7q-.7.75-.7 1.8t.7 1.75q.75.75 1.8.75t1.75-.75q.75-.7.75-1.75m15.2-33.9q-.7-.7-1.75-.7t-1.8.7q-.7.75-.7 1.8t.7 1.75q.75.75 1.8.75t1.75-.75q.75-.7.75-1.75t-.75-1.8m-8.15-5.5q-1.05 0-1.8.7-.7.75-.7 1.8t.7 1.75q.75.75 1.8.75t1.75-.75q.75-.7.75-1.75t-.75-1.8q-.7-.7-1.75-.7m-6.4-4.8q-1.05 0-1.8.7-.7.75-.7 1.8t.7 1.75q.75.75 1.8.75t1.75-.75q.75-.7.75-1.75T66 30.6q-.7-.7-1.75-.7m-5.1 8.3q0 1.05.7 1.75.75.75 1.8.75t1.75-.75q.75-.7.75-1.75t-.75-1.8q-.7-.7-1.75-.7t-1.8.7q-.7.75-.7 1.8m-1.9 5.85q-.7.75-.7 1.8t.7 1.75q.75.75 1.8.75t1.75-.75q.75-.7.75-1.75t-.75-1.8q-.7-.7-1.75-.7t-1.8.7M73.8 17.2q-1.05 0-1.8.7-.7.75-.7 1.8t.7 1.75q.75.75 1.8.75t1.75-.75q.75-.7.75-1.75t-.75-1.8q-.7-.7-1.75-.7m-5.15 6.1q-1.05 0-1.8.7-.7.75-.7 1.8t.7 1.75q.75.75 1.8.75t1.75-.75q.75-.7.75-1.75T70.4 24q-.7-.7-1.75-.7m86.95 74.25q-.7-.7-1.75-.7t-1.8.7q-.7.75-.7 1.8t.7 1.75q.75.75 1.8.75t1.75-.75q.75-.7.75-1.75t-.75-1.8m-10.65-2.9q0 1.05.7 1.75.75.75 1.8.75t1.75-.75q.75-.7.75-1.75t-.75-1.8q-.7-.7-1.75-.7t-1.8.7q-.7.75-.7 1.8m-3.9-7.2q-1.05 0-1.8.7-.7.75-.7 1.8t.7 1.75q.75.75 1.8.75t1.75-.75q.75-.7.75-1.75t-.75-1.8q-.7-.7-1.75-.7M130 78.6q-.7-.7-1.75-.7t-1.8.7q-.7.75-.7 1.8t.7 1.75q.75.75 1.8.75t1.75-.75q.75-.7.75-1.75t-.75-1.8m2.85 4.8q-.7.75-.7 1.8t.7 1.75q.75.75 1.8.75t1.75-.75q.75-.7.75-1.75t-.75-1.8q-.7-.7-1.75-.7t-1.8.7m25.6-29.2q0-1.05-.75-1.8-.7-.7-1.75-.7t-1.8.7q-.7.75-.7 1.8t.7 1.75q.75.75 1.8.75t1.75-.75q.75-.7.75-1.75m-39.1 21.4q0 1.05.7 1.75.75.75 1.8.75t1.75-.75q.75-.7.75-1.75t-.75-1.8q-.7-.7-1.75-.7t-1.8.7q-.7.75-.7 1.8m-24 20.2q-.7-.7-1.75-.7t-1.8.7q-.7.75-.7 1.8t.7 1.75q.75.75 1.8.75t1.75-.75q.75-.7.75-1.75t-.75-1.8m-13-5.85q.75-.7.75-1.75t-.75-1.8q-.7-.7-1.75-.7t-1.8.7q-.7.75-.7 1.8t.7 1.75q.75.75 1.8.75t1.75-.75m6.5 1.15q-.7-.7-1.75-.7t-1.8.7q-.7.75-.7 1.8t.7 1.75q.75.75 1.8.75t1.75-.75q.75-.7.75-1.75t-.75-1.8m2.75-37.75q.75-.7.75-1.75t-.75-1.8q-.7-.7-1.75-.7t-1.8.7q-.7.75-.7 1.8t.7 1.75q.75.75 1.8.75t1.75-.75M98 54.6q-.7-.7-1.75-.7t-1.8.7q-.7.75-.7 1.8t.7 1.75q.75.75 1.8.75t1.75-.75q.75-.7.75-1.75T98 54.6M117.2 69q-.7-.7-1.75-.7t-1.8.7q-.7.75-.7 1.8t.7 1.75q.75.75 1.8.75t1.75-.75q.75-.7.75-1.75t-.75-1.8m-10.65-3q0 1.05.7 1.75.75.75 1.8.75t1.75-.75q.75-.7.75-1.75t-.75-1.8q-.7-.7-1.75-.7t-1.8.7q-.7.75-.7 1.8m-1.4-4.8q0-1.05-.75-1.8-.7-.7-1.75-.7t-1.8.7q-.7.75-.7 1.8t.7 1.75q.75.75 1.8.75t1.75-.75q.75-.7.75-1.75M85.2 45q-.7-.7-1.75-.7t-1.8.7q-.7.75-.7 1.8t.7 1.75q.75.75 1.8.75t1.75-.75q.75-.7.75-1.75T85.2 45m-3.8-28.95q.75-.7.75-1.75t-.75-1.8q-.7-.7-1.75-.7t-1.8.7q-.7.75-.7 1.8t.7 1.75q.75.75 1.8.75t1.75-.75m2.95-8.1q-.7.75-.7 1.8t.7 1.75q.75.75 1.8.75t1.75-.75q.75-.7.75-1.75t-.75-1.8q-.7-.7-1.75-.7t-1.8.7M100.1 9.2q-.7-.7-1.75-.7t-1.8.7q-.7.75-.7 1.8t.7 1.75q.75.75 1.8.75t1.75-.75q.75-.7.75-1.75t-.75-1.8m-6-4.45q-.7-.7-1.75-.7t-1.8.7q-.7.75-.7 1.8t.7 1.75q.75.75 1.8.75t1.75-.75q.75-.7.75-1.75t-.75-1.8m25.2 18.85q-.7-.7-1.75-.7t-1.8.7q-.7.75-.7 1.8t.7 1.75q.75.75 1.8.75t1.75-.75q.75-.7.75-1.75t-.75-1.8m-10.65-3q0 1.05.7 1.75.75.75 1.8.75t1.75-.75q.75-.7.75-1.75t-.75-1.8q-.7-.7-1.75-.7t-1.8.7q-.7.75-.7 1.8m-1.4-4.8q0-1.05-.75-1.8-.7-.7-1.75-.7t-1.8.7q-.7.75-.7 1.8t.7 1.75q.75.75 1.8.75t1.75-.75q.75-.7.75-1.75m-5.05-12q0-1.05-.75-1.8-.7-.7-1.75-.7t-1.8.7q-.7.75-.7 1.8t.7 1.75q.75.75 1.8.75t1.75-.75q.75-.7.75-1.75m49.1 43.8q-.7-.7-1.75-.7t-1.8.7q-.7.75-.7 1.8t.7 1.75q.75.75 1.8.75t1.75-.75q.75-.7.75-1.75t-.75-1.8m-10.65-3q0 1.05.7 1.75.75.75 1.8.75t1.75-.75q.75-.7.75-1.75t-.75-1.8q-.7-.7-1.75-.7t-1.8.7q-.7.75-.7 1.8m-1.4-4.8q0-1.05-.75-1.8-.7-.7-1.75-.7t-1.8.7q-.7.75-.7 1.8t.7 1.75q.75.75 1.8.75t1.75-.75q.75-.7.75-1.75m-12.8-9.6q0-1.05-.75-1.8-.7-.7-1.75-.7t-1.8.7q-.7.75-.7 1.8t.7 1.75q.75.75 1.8.75t1.75-.75q.75-.7.75-1.75m6.4 4.8q0-1.05-.75-1.8-.7-.7-1.75-.7t-1.8.7q-.7.75-.7 1.8t.7 1.75q.75.75 1.8.75t1.75-.75q.75-.7.75-1.75m8.4-31.25q0-1.05-.75-1.8-.7-.7-1.75-.7t-1.8.7q-.7.75-.7 1.8t.7 1.75q.75.75 1.8.75t1.75-.75q.75-.7.75-1.75m15.35 13.2q-1.05 0-1.8.7-.7.75-.7 1.8t.7 1.75q.75.75 1.8.75t1.75-.75q.75-.7.75-1.75t-.75-1.8q-.7-.7-1.75-.7m-4.95-6.2q-1.05 0-1.8.7-.7.75-.7 1.8t.7 1.75q.75.75 1.8.75t1.75-.75q.75-.7.75-1.75t-.75-1.8q-.7-.7-1.75-.7m-6-5.35q-1.05 0-1.8.7-.7.75-.7 1.8t.7 1.75q.75.75 1.8.75t1.75-.75q.75-.7.75-1.75t-.75-1.8q-.7-.7-1.75-.7m101.6 133.55q-.7-.7-1.75-.7t-1.8.7q-.7.75-.7 1.8t.7 1.75q.75.75 1.8.75t1.75-.75q.75-.7.75-1.75t-.75-1.8m-.35-5.2q0 1.05.7 1.75.75.75 1.8.75t1.75-.75q.75-.7.75-1.75t-.75-1.8q-.7-.7-1.75-.7t-1.8.7q-.7.75-.7 1.8m4.45-12.5q-.7.75-.7 1.8 0 .594.2 1.05-.199.162-.4.35-.7.75-.7 1.8t.7 1.75q.75.75 1.8.75T254 128q.75-.7.75-1.75 0-.602-.25-1.1.214-.151.4-.35.75-.7.75-1.75t-.75-1.8q-.7-.7-1.75-.7t-1.8.7m-7.3-1.6q-.7.75-.7 1.8t.7 1.75q.75.75 1.8.75t1.75-.75q.75-.7.75-1.75t-.75-1.8q-.7-.7-1.75-.7t-1.8.7m8-4.6q0 1.05.7 1.75.75.75 1.8.75t1.75-.75q.75-.7.75-1.75t-.75-1.8q-.7-.7-1.75-.7t-1.8.7q-.7.75-.7 1.8m4.65-9.85q-.7-.7-1.75-.7t-1.8.7q-.7.75-.7 1.8t.7 1.75q.75.75 1.8.75t1.75-.75q.75-.7.75-1.75t-.75-1.8m-35.9 60.75q0-1.05-.75-1.8-.7-.7-1.75-.7t-1.8.7q-.7.75-.7 1.8t.7 1.75q.75.75 1.8.75t1.75-.75q.75-.7.75-1.75m-11 2.25q-.7.75-.7 1.8t.7 1.75q.75.75 1.8.75t1.75-.75q.75-.7.75-1.75t-.75-1.8q-.7-.7-1.75-.7t-1.8.7m16.85-8.6q-.7-.7-1.75-.7t-1.8.7q-.7.75-.7 1.8t.7 1.75q.75.75 1.8.75t1.75-.75q.75-.7.75-1.75t-.75-1.8m.15-8.15q0-1.05-.75-1.8-.7-.7-1.75-.7t-1.8.7q-.7.75-.7 1.8t.7 1.75q.75.75 1.8.75t1.75-.75q.75-.7.75-1.75m6.15 6.75q.75-.7.75-1.75t-.75-1.8q-.22-.22-.5-.4-.654-.6-1.65-.6-1.05 0-1.8.7-.7.75-.7 1.8t.7 1.75q.237.237.5.4.722.65 1.7.65 1.05 0 1.75-.75m3.85-6.9q-.7-.7-1.75-.7t-1.8.7q-.7.75-.7 1.8t.7 1.75q.75.75 1.8.75t1.75-.75q.75-.7.75-1.75t-.75-1.8m-53.2 28.55q-.7.75-.7 1.8t.7 1.75q.75.75 1.8.75t1.75-.75q.75-.7.75-1.75t-.75-1.8q-.7-.7-1.75-.7t-1.8.7m11.85-1.05q0-1.05-.75-1.8-.7-.7-1.75-.7t-1.8.7q-.7.75-.7 1.8t.7 1.75q.75.75 1.8.75t1.75-.75q.75-.7.75-1.75m-31.1 7.95q-.7-.7-1.75-.7t-1.8.7q-.528.566-.65 1.3l-.15-.15q-.31-.31-.7-.5l-.1-.1q-.7-.7-1.75-.7t-1.8.7q-.7.75-.7 1.8t.7 1.75q.33.33.7.5l.1.1q.75.75 1.8.75t1.75-.75q.564-.527.7-1.25l.1.1q.75.75 1.8.75t1.75-.75q.75-.7.75-1.75t-.75-1.8m5.85-2.8q-1.05 0-1.8.7-.7.75-.7 1.8t.7 1.75q.75.75 1.8.75t1.75-.75q.75-.7.75-1.75t-.75-1.8q-.7-.7-1.75-.7m9.4-1.65q-.7-.7-1.75-.7t-1.8.7q-.7.75-.7 1.8t.7 1.75q.75.75 1.8.75t1.75-.75q.75-.7.75-1.75t-.75-1.8m-6.15-28.25q0-1.05-.75-1.8-.7-.7-1.75-.7t-1.8.7q-.7.75-.7 1.8t.7 1.75q.75.75 1.8.75t1.75-.75q.75-.7.75-1.75m2.1 2.9q-.7.75-.7 1.8t.7 1.75q.75.75 1.8.75t1.75-.75q.75-.7.75-1.75t-.75-1.8q-.7-.7-1.75-.7t-1.8.7m22.85 14.1q-.7-.7-1.75-.7t-1.8.7q-.7.75-.7 1.8t.7 1.75q.75.75 1.8.75.72 0 1.25-.35-.05.308-.05.65 0 1.05.7 1.75.75.75 1.8.75t1.75-.75q.75-.7.75-1.75v-.2q.73.7 1.75.7 1.05 0 1.75-.75.75-.7.75-1.75t-.75-1.8q-.7-.7-1.75-.7t-1.8.7q-.7.75-.7 1.8v.2q-.7-.7-1.75-.7-.703 0-1.3.3.1-.277.1-.6 0-1.05-.75-1.8m-12.15-7.6q0-1.05-.75-1.8-.7-.7-1.75-.7t-1.8.7q-.7.75-.7 1.8t.7 1.75q.75.75 1.8.75t1.75-.75q.75-.7.75-1.75m3.9 2.2q-1.05 0-1.8.7-.7.75-.7 1.8t.7 1.75q.75.75 1.8.75t1.75-.75q.75-.7.75-1.75t-.75-1.8q-.7-.7-1.75-.7m6.05-33.2q0 1.05.7 1.75.75.75 1.8.75t1.75-.75q.75-.7.75-1.75t-.75-1.8q-.7-.7-1.75-.7t-1.8.7q-.7.75-.7 1.8m-2.15-2.95q.75-.7.75-1.75t-.75-1.8q-.7-.7-1.75-.7t-1.8.7q-.7.75-.7 1.8t.7 1.75q.75.75 1.8.75t1.75-.75m-29.5 17.3q-1.05 0-1.8.7-.7.75-.7 1.8t.7 1.75q.75.75 1.8.75t1.75-.75q.75-.7.75-1.75t-.75-1.8q-.7-.7-1.75-.7m16.65-30.25q-.7-.7-1.75-.7t-1.8.7q-.7.75-.7 1.8t.7 1.75q.75.75 1.8.75t1.75-.75q.75-.7.75-1.75t-.75-1.8m-10.65-3q0 1.05.7 1.75.75.75 1.8.75t1.75-.75q.75-.7.75-1.75t-.75-1.8q-.7-.7-1.75-.7t-1.8.7q-.7.75-.7 1.8m-5.7-6.5q-.7.75-.7 1.8t.7 1.75q.75.75 1.8.75t1.75-.75q.75-.7.75-1.75t-.75-1.8q-.7-.7-1.75-.7t-1.8.7m-2.1-2.9q0-1.05-.75-1.8-.7-.7-1.75-.7t-1.8.7q-.7.75-.7 1.8t.7 1.75q.75.75 1.8.75t1.75-.75q.75-.7.75-1.75m21.3 17.1q-.7.75-.7 1.8t.7 1.75q.75.75 1.8.75t1.75-.75q.75-.7.75-1.75t-.75-1.8q-.7-.7-1.75-.7t-1.8.7m58.4 24.1q-.7-.7-1.75-.7t-1.8.7q-.7.75-.7 1.8t.7 1.75q.75.75 1.8.75t1.75-.75q.75-.7.75-1.75t-.75-1.8m-22.8-.5q-.7-.7-1.75-.7t-1.8.7q-.7.75-.7 1.8t.7 1.75q.75.75 1.8.75t1.75-.75q.75-.7.75-1.75t-.75-1.8m-9.95-4.7q-.7.75-.7 1.8t.7 1.75q.75.75 1.8.75t1.75-.75q.75-.7.75-1.75t-.75-1.8q-.7-.7-1.75-.7t-1.8.7m-2.85-4.7q-.7-.7-1.75-.7t-1.8.7q-.7.75-.7 1.8t.7 1.75q.75.75 1.8.75t1.75-.75q.75-.7.75-1.75t-.75-1.8m15.15-35q-.7-.7-1.75-.7t-1.8.7q-.7.75-.7 1.8t.7 1.75q.75.75 1.8.75T222 104q.75-.7.75-1.75t-.75-1.8m19.2 14.4q-.7-.7-1.75-.7t-1.8.7q-.7.75-.7 1.8t.7 1.75q.75.75 1.8.75t1.75-.75q.75-.7.75-1.75t-.75-1.8m-12.8-9.6q-.7-.7-1.75-.7t-1.8.7q-.7.75-.7 1.8t.7 1.75q.75.75 1.8.75t1.75-.75q.75-.7.75-1.75t-.75-1.8m6.4 4.8q-.7-.7-1.75-.7t-1.8.7q-.7.75-.7 1.8t.7 1.75q.75.75 1.8.75t1.75-.75q.75-.7.75-1.75t-.75-1.8m-22.75-14.4q-.7.75-.7 1.8t.7 1.75q.75.75 1.8.75t1.75-.75q.75-.7.75-1.75t-.75-1.8q-.7-.7-1.75-.7t-1.8.7m-2.1-3q0-1.05-.75-1.8-.7-.7-1.75-.7t-1.8.7q-.7.75-.7 1.8t.7 1.75q.75.75 1.8.75t1.75-.75q.75-.7.75-1.75M213.4 58q0-1.05-.75-1.8-.7-.7-1.75-.7t-1.8.7q-.7.75-.7 1.8t.7 1.75q.75.75 1.8.75t1.75-.75q.75-.7.75-1.75m3.6-.35q-.7.75-.7 1.8t.7 1.75q.75.75 1.8.75t1.75-.75q.75-.7.75-1.75t-.75-1.8q-.7-.7-1.75-.7t-1.8.7M242.35 71q0-1.05-.75-1.8-.7-.7-1.75-.7t-1.8.7q-.7.75-.7 1.8t.7 1.75q.75.75 1.8.75t1.75-.75q.75-.7.75-1.75m-11.45-4.9q0 1.05.7 1.75.75.75 1.8.75t1.75-.75q.75-.7.75-1.75t-.75-1.8q-.7-.7-1.75-.7t-1.8.7q-.7.75-.7 1.8m-4.55-6.4q-1.05 0-1.8.7-.7.75-.7 1.8t.7 1.75q.75.75 1.8.75t1.75-.75q.75-.7.75-1.75t-.75-1.8q-.7-.7-1.75-.7M190 76.45q-.7-.7-1.75-.7t-1.8.7q-.7.75-.7 1.8t.7 1.75q.75.75 1.8.75T190 80q.75-.7.75-1.75t-.75-1.8m11.05 8.9q-1.05 0-1.8.7-.7.75-.7 1.8t.7 1.75q.75.75 1.8.75t1.75-.75q.75-.7.75-1.75t-.75-1.8q-.7-.7-1.75-.7m-3.9-2.3q0-1.05-.75-1.8-.7-.7-1.75-.7t-1.8.7q-.7.75-.7 1.8t.7 1.75q.75.75 1.8.75t1.75-.75q.75-.7.75-1.75m-20-16.1q-.7-.7-1.75-.7t-1.8.7q-.7.75-.7 1.8t.7 1.75q.75.75 1.8.75t1.75-.75q.75-.7.75-1.75t-.75-1.8m-10.2-1.4q.75.75 1.8.75.629 0 1.1-.3.772.75 1.8.75 1.05 0 1.75-.75.75-.7.75-1.75t-.75-1.8q-.7-.7-1.75-.7-.629 0-1.15.25-.7-.7-1.75-.7t-1.8.7q-.7.75-.7 1.8t.7 1.75M171 59.4q.75-.7.75-1.75t-.75-1.8q-.7-.7-1.75-.7t-1.8.7q-.7.75-.7 1.8t.7 1.75q.75.75 1.8.75t1.75-.75m-6.9 1.35q.75-.7.75-1.75t-.75-1.8q-.7-.7-1.75-.7t-1.8.7q-.7.75-.7 1.8t.7 1.75q.75.75 1.8.75t1.75-.75m13.25-.9q-.7.75-.7 1.8t.7 1.75q.75.75 1.8.75t1.75-.75q.75-.7.75-1.75t-.75-1.8q-.7-.7-1.75-.7t-1.8.7m7 13.6q0-1.05-.75-1.8-.7-.7-1.75-.7t-1.8.7q-.7.75-.7 1.8t.7 1.75q.75.75 1.8.75t1.75-.75q.75-.7.75-1.75m.95-15.6q-.7.75-.7 1.8t.7 1.75q.75.75 1.8.75t1.75-.75q.75-.7.75-1.75t-.75-1.8q-.7-.7-1.75-.7t-1.8.7m15.9-1.95q-.7.75-.7 1.8t.7 1.75q.75.75 1.8.75t1.75-.75q.75-.7.75-1.75t-.75-1.8q-.7-.7-1.75-.7t-1.8.7m-4.5.6q-.7-.7-1.75-.7t-1.8.7q-.7.75-.7 1.8t.7 1.75q.75.75 1.8.75t1.75-.75q.75-.7.75-1.75t-.75-1.8m-26.85-8.7q-.7-.7-1.75-.7t-1.8.7q-.7.75-.7 1.8t.7 1.75q.75.75 1.8.75t1.75-.75q.75-.7.75-1.75t-.75-1.8m-1.8-4.5q.75-.7.75-1.75t-.75-1.8q-.7-.7-1.75-.7t-1.8.7q-.7.75-.7 1.8t.7 1.75q.75.75 1.8.75t1.75-.75m-2.45-11.25q-.7-.7-1.75-.7t-1.8.7q-.7.75-.7 1.8t.7 1.75q.75.75 1.8.75t1.75-.75q.75-.7.75-1.75t-.75-1.8m-3.2-3.85q.75-.7.75-1.75t-.75-1.8q-.7-.7-1.75-.7t-1.8.7q-.7.75-.7 1.8t.7 1.75q.75.75 1.8.75t1.75-.75m90.25 68.95q-.7.75-.7 1.8t.7 1.75q.75.75 1.8.75t1.75-.75q.75-.7.75-1.75t-.75-1.8q-.7-.7-1.75-.7t-1.8.7m.2-8.65q-1.05 0-1.8.7-.7.75-.7 1.8t.7 1.75q.75.75 1.8.75t1.75-.75q.75-.7.75-1.75t-.75-1.8q-.7-.7-1.75-.7m-1.15-6.8q-.7-.7-1.75-.7t-1.8.7q-.7.75-.7 1.8t.7 1.75q.75.75 1.8.75t1.75-.75q.75-.7.75-1.75t-.75-1.8m-4.35-6.75q-.7-.7-1.75-.7t-1.8.7q-.7.75-.7 1.8t.7 1.75q.75.75 1.8.75t1.75-.75q.75-.7.75-1.75t-.75-1.8M132.8-.7q-.7-.7-1.75-.7t-1.8.7q-.7.75-.7 1.8t.7 1.75q.75.75 1.8.75t1.75-.75q.75-.7.75-1.75t-.75-1.8m-7.95-1.05q-.7-.7-1.75-.7t-1.8.7q-.7.75-.7 1.8t.7 1.75q.75.75 1.8.75t1.75-.75q.75-.7.75-1.75t-.75-1.8m-7.95.25q-.7-.7-1.75-.7t-1.8.7q-.7.75-.7 1.8t.7 1.75q.75.75 1.8.75t1.75-.75q.75-.7.75-1.75t-.75-1.8m-7.85 1.35q-.7-.7-1.75-.7t-1.8.7q-.7.75-.7 1.8t.7 1.75q.75.75 1.8.75t1.75-.75q.75-.7.75-1.75t-.75-1.8z" id="d"/><path fill="#FFCCD2" d="M31.6 259.25q106.255 9.45 214.4 0l28.6-81.6q-137.3 11.773-274.6 0l31.6 81.6z" id="e"/><path d="M199.65 225.55v-.1h-.15q-.05 0-.3.2v.8q.45-.6.45-.9m-9.1-3.3v.15h.15q.2 0 .9-.85.75-.7 2.1-2.4 0-.05.05-.1l.2.9q.1.4.1.95 0 .8-.35 1.65-.15.35-.35.75-.75 1.4-2 2.5-.5.55-1.05.8-.5.35-.9.35-.3 0-.55-.15-.15-.3-.15-.45 0-.45.7-.7.6-.3.6-.55 0-.2-.15-.4-.1-.1-.4-.1-.5 0-.9.5-.35.5-.35 1 0 .75.5 1 .55.45 1.6.45 1.45 0 3.05-.7.15-.1.35-.15 1.35-.65 2.75-1.65 1.3-1.05 2.3-2.1.25-.3.45-.5v-.8l-.6.6q-.6.75-1.25 1.3-1.4 1.4-2.85 2.25l-.8.4q-1.1.45-2 .65 1.2-.65 2-1.5.35-.35.65-.8 1-1.25 1-2.75 0-1-1.1-3 0-.05.25-.4.2-.4.2-.8 0-.2-.15-.35-.15-.2-.3-.2-.4 0-.55.6-.05.1-.05.2-.2.75-.45 1.2-.7.9-1.7 1.9-.95 1.1-.95 1.3m-7.2-9.25q-.3.35-.3.95 0 .95 1.25 2.5t1.75 1.55q.1 0 .15-.1.1-.05.1-.1 0-.1-.3-.5-1.1-1.35-1.1-2.5 0-.3.05-.7v-.3q0-.5-.2-.8-.3-.25-.6-.25-.5 0-.8.25m34.2 14.4q-2.05.2-4.25.95-2.75 1.05-5 2.8-2.15 1.8-3.35 3.85-1.2 2.3-1.2 4.65 0 2.2 1.35 3.65 1.35 1.35 3.5 1.35 1.8 0 3.85-1.1 2.15-1.15 4.05-3.05 1.25-1.4 2.05-2.75.75-1.5.75-2.8 0-1.15-.7-1.85-.6-.6-1.9-.6-1.4 0-2.95.75-1.55.8-2.8 2.2-1.3 1.4-2.05 2.9-.75 1.5-.75 2.7 0 .25.05.4v.5q.25-.95.75-2.05.55-1.1 1.55-2.35 1.65-2.15 3.45-3.3 1.75-1.3 3.2-1.3.8 0 1.15.45.45.5.45 1.4 0 1.35-.8 2.95-.85 1.55-2.45 2.9-1.8 1.65-3.7 2.65-1.75.8-3.3.8-1.8 0-2.85-1.05-.95-1-.95-2.8 0-1.95 1.25-4.2 1.2-2.15 3.35-4.25 2.25-1.95 4.6-2.95 2.35-1.05 4.85-1.05 2.5 0 4.5.9 1.85.8 2.95 2.6-2.65 2.05-5.9 7.25-.7 1.25-1.15 1.85-2.05 3.2-4.05 5.05-1.95 1.85-4.15 2.65-2.8-1-4.25-1.3-1.45-.4-2.6-.4-1.35 0-2.1.4l-.1.05q-.7.4-.7.95 0 .55.7 1.05.15.05.55.15 1.2.5 3.1.5 1.05 0 2.35-.15 1.2-.2 2.55-.45 1.1.15 2.15.4 1.15.05 2.3.05 2.7 0 5-1 2.2-1.05 4.2-3.05 1.9-2.15 2.95-4.65 1.05-2.45 1.05-4.85 0-1.4-.3-2.45-.3-1.05-.9-2.05 1.3-1.05 2.8-1.75 1.55-.6 2.9-.6 1.65 0 2.65.6.9.75.9 1.95 0 1-.65 1.85-.7.95-1.9 1.5-.4.1-.95.25-.6.2-.5.45h.3q1.35 0 2.8-1.2 1.4-1.15 1.4-2.85 0-1.4-1-2.1-1-.9-2.85-.9-1.55 0-3.1.6-1.6.7-3.1 1.8-1.3-1.65-3.35-2.65-1.55-.7-3.5-.85h-2.2m-14.35 19.85q.85 0 1.9.2 1.15.3 4.2 1.1-.8.3-1.7.4-.85.1-1.8.1-1.7 0-2.75-.3-1.15-.35-1.15-.9 0-.3.3-.45.35-.15 1-.15m17.1-5.8q.6-.8 2.4-4.3 1.9-3.5 3.8-5.55.55.9.85 1.95.25.95.3 2.15-.05 2.5-1.2 5.1-1.2 2.55-3.2 4.65-1.9 1.8-3.8 2.55-2 .9-4.5.9-.9 0-1.65-.05-.75-.25-1.5-.45 2.7-1.1 4.75-2.85 2.05-1.65 3.75-4.1m28.45-.2q-.15-.15-.45-.15-.75 0-1.6 1.05-.5.75-1 1.35-2.15 2.55-3.55 3.9-1.5 1.35-2.1 1.35-.35 0-.4-.15-.15-.15-.15-.3 0-.3.55-1.05.45-.7 1.6-2.15 1.55-1.8 1.55-2.8 0-.6-.2-.85-.3-.35-.85-.35-.5 0-1.3.5-.7.4-1.65 1.3-.55.55-.7.9-.2.15-.3.25-.05.1-.2.3-.75.75-1.35 1.45-1.55 1.45-2.55 2.2-1.1.85-1.75.85-.2 0-.35-.1-.15-.2-.15-.35 0-.3.2-.65.2-.45.55-.8l3.65-4.9q.2-.1.35-.35.05-.15.05-.3 0-.1-.1-.15-.25-.15-.5-.15-.55 0-.8.2-.25.1-.7.75-.05-.45-.4-.65-.4-.35-.95-.35-1.2 0-2.6.55-1.2.55-2.4 1.55-1.25 1-1.95 2.2-.65 1.2-.65 2.25 0 .85.4 1.35.45.5 1.2.5.8 0 1.8-.6 1-.7 2.15-1.9-.15.35-.3.65-.15.4-.15.85 0 .5.35.7.25.3.8.3.8 0 1.8-.55 1.05-.6 2.5-2.05 1.3-1.05 2.05-2.05.55-.65.75-.9.25-.3.75-.75 1.25-1.3 1.95-1.3.15 0 .2.1.15.05.15.2 0 .3-1.05 1.45-.6.75-.85 1.15-1.05 1.3-1.5 2.05-.4.75-.4 1.3 0 .65.3.9.3.45.85.45.7 0 1.45-.5.75-.4 1.95-1.55l-1.75 2.55q-3.85 1.45-6.5 3.6-2.7 2.2-2.7 3.55 0 .3.05.4.15.35.35.6.3.4 1 .4 1.05 0 2.45-1 .35-.15.65-.55 1.85-1.45 6.45-7.05 3.05-1.3 5.55-3.35 2.5-2.1 2.5-2.8v-.15q-.05-.05-.15-.05-.1 0-.6.6-3 3.6-6.85 5l5.5-7.1q.05-.1.15-.35v-.3q0-.1-.1-.15m-19.2 2.55q1-1.05 2.05-1.65 1-.6 1.65-.6.4 0 .7.25.15.15.15.45 0 .35-.9 1.55-.85 1.15-2.45 2.85-1 1.1-1.8 1.7-.95.6-1.45.6-.4 0-.55-.1-.2-.3-.2-.55 0-.85.75-1.95.7-1.25 2.05-2.55m11.1 6.8q-.55.75-1.55 2-3.05 3.85-4.6 4.9-.75.5-1.25.5t-.65-.15q-.15-.2-.15-.35-.1-.1-.1-.4 0-1.2 2.35-3.15 2.45-1.95 5.95-3.35m-121-45.35h-.1q-.95 0-3.2 1.95-.15.1-.3.25-2.45 2.2-5.7 6.1-.7.9-2.05 2.55-2.05 2.5-3.8 4.45-4.85 5.25-7.3 6.1 3.35-3.05 5.55-6.1 1-1.2 1.7-2.4 2.55-4.25 2.55-7.65 0-1.95-.75-3.15-.05-.1-.05-.15-.25-.45-.65-.8-.45-.4-.9-.65-1.45-.75-3.4-.75-1.9 0-3.75.75-.75.25-1.35.55l-1.6.9q-.15.05-.25.15-1.6 1-2.85 2.45-.15.1-.25.25-.55.55-1 1.1-.95 1.15-1.55 2.45-.25.55-.45 1.15-.5 1.45-.5 2.85 0 1.45.5 2.45.15.25.35.5 0 .25.15.35.6.7 1.5 1.05.45.15 1 .25.2.05.4.05.6 3.8 3.2 6.1 2.7 2.25 6.45 2.25 2.05 0 3.95-.75 1.95-.85 1.95-1.3-.05-.1-.2-.1-.1 0-.7.35-2.45 1.3-5 1.3-3.6 0-6.1-2.1-2.45-2.2-2.95-5.7 1.45-.25 2.9-.85.75-.4 1.5-.9.55-.35 1.05-.8 1.7-1.45 2.8-3.65 1.1-2.05 1.1-3.7 0-1.3-.55-1.9-.65-.6-1.75-.6-1.45 0-3.2 1.2-1.75 1.3-2.8 3.35-.8 1.5-1.3 3.1-.35 1.5-.35 3v1.1q-.2 0-.4-.05-.55-.05-1-.25-.6-.3-1.05-.8-.9-1.05-.9-2.95 0-2.05.9-4.1.45-.85 1.05-1.6.45-.65 1-1.2.45-.55 1-1.05 1.35-1.35 3-2.3.1-.1.25-.15.5-.35 1.1-.6 1.25-.6 2.55-.85 1.1-.2 2.15-.2.95 0 1.8.2.9.25 1.55.85.35.25.55.6 0 .05.05.15.5.95.6 2.2 0 2.45-2 6.7-1.1 2.2-2.45 4.3-1.15 1.85-2.55 3.45-.7.9-1.75 1.95-1.1 1.1-1.1 1.4 0 .05.05.05.05.1.2.1.65 0 2.1-.85 1.5-.75 3-2.05 1.3-1.05 3.8-4.05 1.4-1.5 3.15-3.7 1.5-1.8 2.35-2.75l.3-.35q3.75-4.4 6.25-6.55.75-.6 1.35-1.05l.75-.45q.45-.25.45-.4l-.05-.05m-22.7 5.85q1.25-.7 2.3-.7.85 0 1.2.4.35.3.35 1.1 0 1.15-1.1 3.05-1.05 1.9-2.95 3.65-1.2 1.3-2.3 1.95-.15.1-.25.25-1.1.65-2.1.75v-.2-.8l-.05-.05q0-1.75.65-3.7.65-1.9 1.85-3.35 1.05-1.45 2.4-2.35m57.9 6.8q.4 0 .75-.2.15-.3.15-.7 0-.2-.15-.4-.15-.15-.45-.15-.3 0-.65.2-.25.35-.25.75 0 .2.15.4.2.1.45.1m-9.65 3.15q-.45.45-.75.95-.15.05-.3.3-.7.8-1.4 1.4-1.5 1.45-2.5 2.2-.3.2-.55.35-.7.4-1.1.4-.3 0-.4-.15-.15-.15-.15-.4 0-.45 1.3-2.2.2-.25.35-.4.15-.2.2-.35.15-.05.3-.2 1.05-1.5 1.25-2.4.15-.2.15-.45 0-.3-.15-.45-.05-.2-.1-.3-.3-.3-.8-.3-.35 0-.85.2-.25.1-.5.25-.6.4-1.35 1.05-.45.35-.75.8.1-.4.2-.7l.05-.1v-.45q0-.5-.25-.8-.4-.4-.85-.4-.55 0-1.15.45-.65.4-1.35 1.2-.1.1-.1.25-.6.6-.9.85-.05 0-.05.15-.15.05-.35.25-.65.8-1.3 1.4-1.75 1.6-3.15 2.5-1.35.9-2.2.9-.55 0-.85-.35-.2-.15-.2-.7 0-.35.05-.75.1-.35.35-.7 2.5-.9 4.05-2.1 1.05-.8 1.45-1.7.1-.25.1-.65 0-.45-.35-.75-.2-.2-.75-.2-.65 0-1.45.4-.9.3-1.75.95-.2.15-.45.25-.75.65-1.2 1.3-.15.15-.3.25-.55.75-1.1 1.2-1.7 1.75-3 2.65-1.25.9-2.05.9-.4 0-.45-.2-.15-.15-.25-.3 0-.7 1.3-2.75.85-1.3 2.15-3.05.5-.75 1.15-1.5 4.65-2.2 7.65-4.95 2.95-2.7 2.95-4.55 0-.45-.2-.65-.25-.25-.7-.25-1.15 0-3.55 2-2.55 1.95-5.4 5.3-2.3 2.6-3.75 4.6-.5.8-.9 1.4-.15.1-.4.3-.65.75-1.25 1.35-1.55 1.5-2.55 2.3-1.15.75-1.7.75-.25 0-.5-.05-.05-.15-.05-.25 0-.4.2-.75.25-.45.55-.75l3.7-4.9q.1-.15.3-.35.05-.15.05-.3t-.1-.25h-.5q-.6 0-.8.1-.2.15-.7.8 0-.45-.35-.65-.45-.35-1-.35-1.3 0-2.5.55-1 .4-1.9 1.05-.25.3-.6.5-1.2 1-1.9 2.25-.7 1.2-.7 2.2 0 .85.45 1.35.35.5 1.15.5.85 0 1.85-.7 1-.6 2.2-1.8-.2.3-.4.65-.15.4-.15.85 0 .5.35.7.25.3.8.3.85 0 1.8-.55 1.05-.7 2.6-2.1.45-.4.95-.8-.65 1.2-.65 2.15 0 .6.3 1 .4.35 1.2.35.85 0 2-.55 1-.65 2.65-2.15.5-.55 1-.85-.3.6-.3 1.1 0 1.1.55 1.7.65.7 1.5.7 1.15 0 2.7-.9 1.45-.95 3.2-2.6 1-.9 1.5-1.55.25-.3.4-.5.4-.35.85-.85.15-.15.3-.4.9-.9 1.45-.9.15 0 .3.1v.2q0 .25-.15.6-.25.35-.6.85l-2.9 3.7q-.75.95-1.15 1.35-.25.5-.25.6 0 .15.15.3h.35q1.05 0 2.1-1.45.7-.95 1.2-1.45 1.7-2.05 3.1-3.4.35-.2.65-.5.65-.5 1.1-.7.25-.1.4-.1.1 0 .15.15.1.05.1.15 0 .15-.25.5-.05.1-.2.3l-.2.4q-.3.5-.85 1.15-1.25 1.65-1.65 2.45-.4.65-.4 1.2 0 .55.4.9.35.4.95.4.65 0 1.55-.55.1-.1.2-.15 1.05-.6 2.5-1.95.3-.2.4-.35-.25.75-.25 1.4 0 .75.25 1.2.4.4 1.1.4.85 0 2-.7 1.2-.6 2.5-1.95.45-.25.7-.65-.7 1.3-.7 1.9 0 .65.35 1 .35.4 1 .4.7 0 1.85-.85 1.15-.7 2.65-2.05 1.15-1.15 1.65-1.9.4-.5.55-.7l.9-.9q1.15-1.3 1.8-1.3.15 0 .2.1.05.05.05.2 0 .25-.1.6-.2.35-.65.85l-2.9 3.7q-.75.95-1.05 1.35-.3.5-.3.6 0 .15.1.3h.35q1.05 0 2.15-1.45.75-.95 1.2-1.45 1.65-2.05 3.1-3.4 1.6-1.3 2.1-1.3.1 0 .2.15.05.05.05.15 0 .25-.35.8-.35.6-1.1 1.55-1.3 1.65-1.7 2.45-.35.65-.35 1.2 0 .55.35.9.35.4.95.4.85 0 1.85-.7 1.05-.6 2.5-1.95.5-.55.95-.85-.2.6-.2 1.1 0 1.1.6 1.7.5.7 1.45.7 1.05 0 2.65-.9 1.45-.95 3.25-2.6.95-.9 1.45-1.55.55-.65.55-.8 0-.05-.1-.1h-.05q-.15 0-.85.65-.7.8-1.3 1.4-1.75 1.6-3.1 2.5-1.45.9-2.3.9-.45 0-.8-.35-.2-.15-.2-.7 0-.35.05-.75.05-.35.35-.7 2.5-.9 4.05-2.1 1.55-1.2 1.55-2.35 0-.45-.35-.75-.15-.2-.75-.2t-1.45.4q-.9.3-1.75.95-1.1.75-1.75 1.7-.1.05-.3.3-.7.8-1.3 1.4-1.45 1.45-2.55 2.2-1.15.75-1.7.75-.25 0-.3-.15-.2-.15-.2-.4 0-.45 1.35-2.2.4-.45.55-.75l.2-.2q1.45-2 1.4-2.85 0-.5-.2-.75-.35-.3-.8-.3-.55 0-1.3.45-.9.55-2.2 1.85.1-.4.25-.7.05-.2.05-.55 0-.5-.3-.8-.3-.4-.75-.4-.5 0-1.25.45-.65.45-1.5 1.45-.6.6-.75.85-.15.15-.15.2-.25.15-.55.55-.75.9-1.65 1.65-1.4 1.3-2.45 2-.9.6-1.45.6-.3 0-.35-.05-.2-.1-.2-.25 0-.3.25-.7.15-.35.55-.8l3.6-4.9q.1-.15.2-.35.2-.15.2-.3t-.3-.25h-.35q-.85 0-1.6 1-.25.3-.3.45-.6.7-1 1.35-.25.15-.45.4-.7.75-1.3 1.45-1.75 1.65-2.95 2.4-1.15.75-1.9.75-.25 0-.4-.2-.25-.2-.25-.3 0-.55.35-1.05.3-.7 1.05-1.45l5.55-6.7q1.15 0 1.5-.1.4-.05.4-.2 0-.2-.25-.2-.2-.05-.7-.05h-.4l2.4-3 .1-.05q.35-.4.35-.55 0-.05-.05-.1-.25-.1-.45-.1-.55 0-.8.1-.2.05-.45.45l-3.05 3.25q-.95 0-1.2.05-.3.15-.35.3 0 .05.25.1.1.1.65.1h.3l-3.35 3.9m-13.05-11.7q.15.05.15.45 0 1.3-2.8 3.95-2.85 2.65-6.95 4.6 3.15-4.25 5.65-6.65 2.45-2.45 3.5-2.45.2 0 .45.1m-2.65 10.15q.2 0 .35.15.2.1.2.3 0 .35-.2.6-.3.65-1.15 1.4-1.35 1.05-3.55 1.65 1.4-1.75 2.5-2.95l.1-.1q1.15-1.05 1.75-1.05m-20 2.15q.6-.6 1.25-1.1.35-.25.8-.5 1-.6 1.7-.6.35 0 .6.2.3.15.3.45 0 .2-.15.45-.3.4-.75 1.1-.9 1.2-2.5 2.9-.95 1.05-1.9 1.65-.85.65-1.4.65-.35 0-.5-.2-.2-.2-.2-.55 0-.75.7-1.95.7-1.15 2.05-2.5m63.2-2.15q.15 0 .3.15.2.1.2.3 0 .95-1.35 2t-3.5 1.65q1.3-1.75 2.5-2.95 1.25-1.15 1.85-1.15M18.8 193.55q-3.1 0-5.2 1.85-2.1 1.95-2.1 4.65 0 2.2 1.7 3.65 1.6 1.45 4.4 1.45 3.5 0 6.6-2.45 3.1-2.3 5.95-7.1.15 0 .6-.1l.9-.2q-.25.2-.35.45-.35.45-.35.75 0 .05.15.15.05.05.1.05.35 0 .75-.5.45-.45 1-1.2.35-.1.7-.1.3-.15.55-.25-2 2.75-3.1 4.95-1.2 2.15-1.2 3.5 0 .9.55 1.45.5.5 1.25.5 1 0 2.15-.65 1.2-.75 2.8-2.35.1 0 .15-.05-.3.55-.3 1.15 0 .9.45 1.4.45.45 1.25.45t1.85-.6q.85-.7 2.15-1.9-.25.4-.4.65-.1.4-.05.9-.05.5.2.65.35.3.85.3.85 0 1.85-.55.95-.5 2.25-1.75l-4.8 6.25q-.2.15-.4.5-.95 1.15-.95 1.5 0 .05.1.1.05.1.3.1 1.05 0 1.8-1 .25-.15.3-.35l4.5-5.8q2.05-2.7 4.25-4.6 2.35-2 3.1-2 .15 0 .3.15.1.1.1.15 0 .25-.4.85-.35.65-1.1 1.5-1.25 1.55-1.65 2.35-.4.75-.4 1.3t.35.95q.4.35 1 .35.7 0 1.8-.6.9-.6 2.2-1.75l-4.85 6.3-.5.5q-.8 1.15-.8 1.5 0 .05.1.1.1.1.2.1 1.15 0 1.9-1 .1-.15.3-.35l4.5-5.8q2.05-2.7 4.25-4.6 2.35-2 3.05-2 .2 0 .3.15.15.1.15.15 0 .25-.45.85-.4.65-1.05 1.5-1.25 1.55-1.65 2.35-.4.75-.4 1.3t.35.95q.3.35.9.35.8 0 1.85-.6 1.05-.7 2.45-2 1.35-1.2 2-2 .5-.5.65-.8.3-.35.85-.9 1.25-1.3 1.95-1.3.15 0 .2.1.15.05.15.2 0 .3-.95 1.5-.55.7-.95 1.1-1.05 1.3-1.4 1.95-.4.85-.4 1.4 0 .6.3.95.35.4.9.4.6 0 1.3-.45.75-.45 2.05-1.6l-1.8 2.6q-3.9 1.4-6.55 3.55-2.6 2.2-2.6 3.6 0 .6.3.95.4.4 1 .4 1.45 0 3.25-1.45 1.7-1.55 6.25-7.15 3.25-1.3 5.65-3.35 2.65-2.1 2.65-2.85 0-.05-.15-.05-.1-.05-.15-.05-.05 0-.6.6-3.05 3.5-6.85 4.95l5.45-7.05q.1-.15.15-.4.15-.2.15-.3 0-.05-.2-.2-.1-.05-.45-.05-.75 0-1.6 1-.55.85-1 1.35-2.15 2.55-3.65 3.9-1.4 1.3-2.05 1.3-.3 0-.4-.1-.05-.1-.05-.35 0-.25.45-1 .45-.7 1.6-2.15 1.65-1.85 1.65-2.7 0-.7-.3-.9-.3-.35-.8-.35-.55 0-1.25.45-.75.4-1.75 1.4-.45.45-.75.85-.1.05-.15.15-.15.2-.3.45l-1.4 1.4q-1.5 1.4-2.55 2.15-1.1.85-1.7.85-.2 0-.35-.25-.1-.05-.1-.35 0-.4 1.45-2.5l.4-.4q1.75-2.35 1.75-3.2 0-.45-.3-.75-.4-.25-.75-.25-.7 0-1.75.65-1 .6-3.2 2.55l5-6.35q.75-1 1.05-1.45.25-.45.25-.6 0-.1-.1-.15-.15-.1-.3-.1-1.1 0-1.8 1.15-.1.05-.25.15l-5.25 6.9q-.3.25-.5.55-.7.75-1.4 1.4-1.5 1.4-2.55 2.15-1.1.85-1.65.85-.25 0-.35-.25-.15-.05-.15-.35 0-.4 1.6-2.5l.3-.4q1.7-2.35 1.7-3.2 0-.45-.3-.75-.25-.25-.75-.25-.65 0-1.75.65-1 .6-3.2 2.55l5-6.35q.85-1 1.05-1.45.4-.45.4-.6 0-.1-.25-.15-.15-.1-.25-.1-1.1 0-1.85 1.15-.1.05-.15.15l-5.4 7q-.15.15-.45.35-.6.75-1.2 1.4-1.55 1.5-2.7 2.25-1.05.85-1.65.85-.25 0-.4-.15-.15-.15-.15-.25 0-.35.3-.75.15-.35.55-.75l3.65-4.85q.15-.15.2-.4.1-.15.1-.3 0-.05-.15-.2-.15-.05-.45-.05-.55 0-.7.2-.3.05-.85.75 0-.5-.3-.7-.35-.3-.95-.3-1.25 0-2.5.5-1.4.55-2.55 1.55-.95.9-1.6 1.9l-.9.8q-1.5 1.55-2.7 2.3-1.15.85-2 .85-.4 0-.65-.4-.2-.15-.2-.65 0-1 1.55-3.75 1.6-2.7 4.1-5.85 1.9-.5 3.65-1.45 1.8-.9 3.55-2.1 2.5-1.75 4-3.35 1.45-1.65 1.45-2.8 0-.45-.15-.75l-.05-.1q-.4-.25-1-.25t-1.35.35q-1.7.6-4.15 2.55-3.6 2.9-8 8.05h-.1q-.9.35-1.35.4.05-.15.2-.3.4-.55.4-.75 0-.15-.05-.25-.1-.05-.15 0-.4 0-.7.3-.4.25-1.05 1.3-.25.15-.8.15-.35.1-.55.1 2.85-4.45 6.1-7.4l.45-.5q0-.1-.15-.1h-.15q-.15 0-.45.1-1.3.6-2.4.6-1.3 0-3.8-1.6-.75-.45-1.1-.7-1.35-.8-2.35-1.05-1.05-.4-2.1-.4-2.15 0-3.45 1.15-1.4 1.15-1.4 3.05 0 1.6 1.25 2.75 1.25 1.05 3.15 1.05.2 0 .35-.1.15 0 .15-.05 0-.25-.6-.25-.65-.05-.9-.05-1.4-.35-2.15-1.3-.75-.8-.8-2.15 0-1.45 1.1-2.4 1-1.05 2.5-1.05 1.75 0 4.35 1.9.55.35.75.5 1.25.85 2.3 1.2 1.05.4 1.95.3h.8l.9-.3q-1.7 1.3-3.3 3.05-1.65 1.8-3.15 4.15-1.1.1-4 .75l-.95.2q-.2-1.35-1.45-2.15-1.3-.65-3.2-.65m-1.75 1.2q1.3-.45 2.6-.45 1.45 0 2.25.6.8.5.8 1.5v.1q-2.8.6-4.35 1.5-1.45 1-1.45 2.2 0 .7.45.95.5.4 1.25.4 1.75 0 3.25-1.4 1.55-1.45 1.75-3.4 1.3-.25 4.25-.7l.25-.1q-2.75 4.65-5.25 6.7-2.6 2-5.55 2-2.2 0-3.8-1.2-1.45-1.25-1.45-3.25 0-1.15.7-2.25.6-1.2 1.8-2 1.15-.75 2.5-1.2m31.7-11q.15.2.15.65 0 1.45-3.45 4.2-3.3 2.75-8.1 4.55 3.95-4.3 6.85-7 2.95-2.65 4-2.65.3 0 .55.25M42.5 197.7q1.05-.6 1.75-.6.45 0 .6.25.3.15.3.45 0 .35-.9 1.6-.9 1.15-2.5 2.85-.9 1-1.9 1.7-.85.6-1.4.6-.35 0-.55-.15-.1-.3-.1-.6 0-.75.65-1.9.7-1.25 2-2.5 1.15-1.15 2.05-1.7m21.8 15.75q-.25-.25-.25-.75 0-1.25 2.45-3.15 2.35-2 5.9-3.4-.6.75-1.65 2.05-4.25 5.4-5.75 5.4-.5 0-.7-.15M22.25 198q-.25.55-.85 1.2-.7.85-1.6 1.35-.75.45-1.45.45-.3 0-.6-.25-.3-.2-.3-.55 0-1 1.45-1.95 1.35-.85 3.7-1.2 0 .5-.35.95z" id="g"/><path id="f" stroke="#FFF" stroke-width="1" stroke-linejoin="round" stroke-linecap="round" fill="none" d="M31.6 259.25q106.255 9.45 214.4 0m28.6-81.6q-137.3 11.773-274.6 0"/></defs><use xlink:href="#a" transform="matrix(.51639 0 0 .58183 -77.8 -87.95)"/><use xlink:href="#b" transform="matrix(.51639 0 0 .58183 -77.8 -87.95)"/><g><g transform="translate(4.3 43.8)"><use xlink:href="#c"/><use xlink:href="#d"/></g><g transform="translate(4.3 43.8)"><use xlink:href="#e"/><use xlink:href="#f"/></g><use xlink:href="#g" transform="translate(4.3 43.8)"/></g></svg>