<svg xmlns="http://www.w3.org/2000/svg" xmlns:xlink="http://www.w3.org/1999/xlink" preserveAspectRatio="none" width="284" height="320"><defs><linearGradient id="a" gradientUnits="userSpaceOnUse" x1="425.7" y1="151.2" x2="425.7" y2="701.2" spreadMethod="pad"><stop offset="0%" stop-color="#BF0000"/><stop offset="100%" stop-color="red"/></linearGradient><radialGradient id="b" gradientUnits="userSpaceOnUse" cx="0" cy="0" r="138.713" fx="0" fy="0" gradientTransform="rotate(-.021 237770.383 -95113.928)" spreadMethod="pad"><stop offset="0%" stop-color="#FFF" stop-opacity=".702"/><stop offset="100%" stop-color="#FFF" stop-opacity="0"/></radialGradient><radialGradient id="c" gradientUnits="userSpaceOnUse" cx="0" cy="0" r="137.788" fx="0" fy="0" gradientTransform="matrix(1 -.00036 .00036 1 32 9.7)" spreadMethod="pad"><stop offset="0%" stop-color="#FFF" stop-opacity=".702"/><stop offset="100%" stop-color="#FFF" stop-opacity="0"/></radialGradient><radialGradient id="d" gradientUnits="userSpaceOnUse" cx="0" cy="0" r="15.15" fx="0" fy="0" gradientTransform="translate(3.75 1.8)" spreadMethod="pad"><stop offset="0%" stop-color="#FFF"/><stop offset="100%" stop-color="#DBDBDB"/></radialGradient><radialGradient id="e" gradientUnits="userSpaceOnUse" cx="0" cy="0" r="15.05" fx="0" fy="0" gradientTransform="translate(3.5 1.05)" spreadMethod="pad"><stop offset="0%" stop-color="red"/><stop offset="100%" stop-color="#930000"/></radialGradient><radialGradient id="f" gradientUnits="userSpaceOnUse" cx="0" cy="0" r="10.7" fx="0" fy="0" gradientTransform="translate(8.95 7.55)" spreadMethod="pad"><stop offset="0%" stop-color="red"/><stop offset="100%" stop-color="#930000"/></radialGradient><path fill="url(#a)" d="M700.7 701.2v-550h-550v550h550z" id="g"/><g id="h"><path fill="url(#b)" d="M232.1 196.4l.5-8.7v-1.35l-.05-114.9Q115.8 66.4 0 72.4l.05 114v1.35q0 9.65 2.25 16.95 1.4 4.1 3.7 7.8 1.8 3.2 5.45 5.95 3.7 3.2 9.65 5 5.5 1.4 12.35 1.4l117.7-.05h48q12.35 0 20.15-5.05 4.6-3.2 7.8-7.75v-.5q1.8-2.75 3.2-6.4.9-4.1 1.8-8.7z"/><path fill="url(#c)" d="M232.55 38.5Q232.55.05 199.1.05L33.4.1Q0 .1 0 38.55V72.4q115.8-6 232.55-.95V38.5z"/></g><path fill="url(#d)" d="M25.4 12.95V.25Q12.65-.3 0 .35v12.6Q0 14 .25 14.8q.15.45.4.85.2.35.6.65.4.35 1.05.55.6.15 1.35.15h18.1q1.35 0 2.2-.55.5-.35.85-.85v-.05q.2-.3.35-.7.1-.45.2-.95l.05-.95z" id="i"/><path fill="url(#e)" d="M25.4 7.8V4.2q0-4.2-3.65-4.2H3.65Q0 0 0 4.2v3.7q12.65-.65 25.4-.1z" id="j"/><path fill="#FFF" d="M3.75 1.75q.4-.05 1.1-.05l.5-1.7q-.8.1-1.5.2-1 .1-2.7.15l-.4 1.6h.45q-.25.8-.45 1.6-.45 1.7-.75 3l1.7-.2Q1.9 5.6 2 5l.3-.9q.3-.05.65-.1h1.1l.45-1.7q-.65.05-1.15.05l-.6.1q.05-.25.05-.35.05-.1.1-.25.2-.05.3-.05l.55-.05M9.5 1.7L10 0Q8.95.15 8.45.2 7.4.3 5.75.35l-.35 1.6.45-.05q-.3.95-.55 1.95Q5 5 4.65 6.55q1.1-.15 1.8-.2.8-.05 1.85-.1l.45-1.65q-.75 0-1.25.05-.45.05-.75.05l.1-.3q0-.15.05-.3.3-.05.65-.1h1.1l.45-1.7q-.6 0-1.1.05l-.6.1q0-.3.05-.45l.05-.15q.45-.05.7-.1.45-.05 1.3-.05m5.45-.15Q15.4-.1 12.7.15q-1.35.15-2.1.3L10.45 2l.3-.05q-.6 2-.9 2.85H9.6L9 6.35q1.15.1 2.4 0 .9-.05 1.7-.55.9-.55 1.15-1.5.25-.75-.3-1.25.8-.65 1-1.5M13.4 2q-.1.45-.7.65-.35.15-.95.2l.35-1-.55-.35.6-.05Q13.6 1.4 13.4 2m-1.1 2.9q-.3.15-.7.2h-.55l.4-1.4h.35q.5-.05.8.05.4.2.25.65-.05.3-.55.5z" id="k"/><path fill="red" d="M3.6.15Q2.35.8.8 1.5l.55 1.55q.5-.2.8-.25-.65 2.4-.9 3.35l-.7.1-.55 2q.9-.1 1.75-.25.85-.05 1.95-.1L4.2 6l-.75.05Q4 3.7 4.55 1.6l.4-1.45H3.6m7.6 6.75l.45-2.15-.65.05L12.3 0l-1.95.1Q9.25 1.35 8 2.9q-.6.75-2.2 2.95l-.5 1.5q1.15-.05 1.85-.1.65-.05 1.15-.1l-.35 1.1 2.2-.25.25-1 .8-.1m-1.1-4.65L9.35 5.2q-.6.15-.75.2-.15 0-.85.1.8-.85 2.35-3.25z" id="l"/><path id="m" stroke="url(#f)" stroke-width=".5" stroke-linejoin="round" stroke-linecap="round" fill="none" d="M9 5.85q1.35-1.85.55-3.7-3.45-3.75-7.85-1-3.48 2.896.75 8.85 2.345 2.7 4.4 3.775 2.054 1.07 3.65 1.175M10 13.5q6.194-1.908 7.575-7.45Q18.952.519 13.25 0q-3.1.15-3.7 2.15"/></defs><use xlink:href="#g" transform="matrix(.51639 0 0 .58183 -77.8 -87.95)"/><use xlink:href="#h" transform="matrix(1.09459 0 0 1.09459 16.2 61)"/><use xlink:href="#i" transform="matrix(10.02156 -.00324 .00324 10.02156 16.2 136.746)"/><use xlink:href="#j" transform="matrix(10.02156 -.00324 .00324 10.02156 16.2 61.11)"/><use xlink:href="#k" transform="matrix(10.02156 -.00324 .00324 10.02156 69.288 67.075)"/><use xlink:href="#l" transform="matrix(10.02156 -.00324 .00324 10.02156 80.835 167.832)"/><use xlink:href="#m" transform="matrix(10.02156 -.00324 .00324 10.02156 47.724 146.761)"/></svg>