<svg xmlns="http://www.w3.org/2000/svg" xmlns:xlink="http://www.w3.org/1999/xlink" preserveAspectRatio="none" width="284" height="320"><defs><radialGradient id="a" gradientUnits="userSpaceOnUse" cx="0" cy="0" r="388.9" fx="0" fy="0" gradientTransform="translate(425.7 426.2)" spreadMethod="pad"><stop offset="0%" stop-color="#FF0"/><stop offset="100%" stop-color="red"/><stop offset="100%"/></radialGradient><linearGradient id="b" gradientUnits="userSpaceOnUse" x1=".012" y1="31.6" x2="95.188" y2="31.6" spreadMethod="pad"><stop offset="0%" stop-color="#006"/><stop offset="100%" stop-color="#D909D6"/></linearGradient><radialGradient id="c" gradientUnits="userSpaceOnUse" cx="0" cy="0" r="51.35" fx="0" fy="0" gradientTransform="translate(49.35 35.7)" spreadMethod="pad"><stop offset="0%" stop-color="red"/><stop offset="100%" stop-color="#B60000"/></radialGradient><radialGradient id="d" gradientUnits="userSpaceOnUse" cx="0" cy="0" r="51.35" fx="0" fy="0" gradientTransform="translate(53.85 35.65)" spreadMethod="pad"><stop offset="0%" stop-color="#FFF" stop-opacity=".702"/><stop offset="74.51%" stop-color="#FFF" stop-opacity="0"/></radialGradient><linearGradient id="e" gradientUnits="userSpaceOnUse" x1="2.412" y1="54.9" x2="97.588" y2="54.9" spreadMethod="pad"><stop offset="0%" stop-color="#FFF" stop-opacity="0"/><stop offset="49.02%" stop-color="#FFF" stop-opacity="0"/><stop offset="100%" stop-color="#FFF" stop-opacity=".6"/></linearGradient><linearGradient id="f" gradientUnits="userSpaceOnUse" x1="0" y1="0" x2="0" y2="0" spreadMethod="pad"><stop offset="0%" stop-color="#FFF" stop-opacity="0"/><stop offset="100%" stop-color="#FFF" stop-opacity=".761"/></linearGradient><linearGradient id="g" gradientUnits="userSpaceOnUse" x1="36.362" y1="23.9" x2="4.738" y2="23.9" spreadMethod="pad"><stop offset="0%" stop-color="#FFF" stop-opacity="0"/><stop offset="100%" stop-color="#FFF" stop-opacity=".761"/></linearGradient><linearGradient id="h" gradientUnits="userSpaceOnUse" x1="64.5" y1="18.95" x2="97.6" y2="18.95" spreadMethod="pad"><stop offset="0%" stop-color="#FFF" stop-opacity="0"/><stop offset="100%" stop-color="#FFF" stop-opacity=".761"/></linearGradient><linearGradient id="i" gradientUnits="userSpaceOnUse" x1="7.1" y1="6.35" x2="7.1" y2="29.15" spreadMethod="pad"><stop offset="0%" stop-color="#FF0"/><stop offset="29.804%" stop-color="#FFD000"/><stop offset="63.922%" stop-color="#F0BA00"/><stop offset="100%" stop-color="#D48000"/></linearGradient><linearGradient id="j" gradientUnits="userSpaceOnUse" x1="15.25" y1="2.8" x2="15.25" y2="25.6" spreadMethod="pad"><stop offset="0%" stop-color="#FFF" stop-opacity="0"/><stop offset="29.804%" stop-color="#FFF" stop-opacity=".231"/><stop offset="63.922%" stop-color="#FFF" stop-opacity=".388"/><stop offset="100%" stop-color="#FFF" stop-opacity=".702"/></linearGradient><path fill="url(#a)" d="M700.7 701.2v-550h-550v550h550z" id="k"/><path fill="#FF0" fill-opacity=".341" d="M284.45 137V69Q151.877 168.707-.5 209v59.95Q149.592 223.031 284.45 137z" id="l"/><path fill="url(#b)" d="M95.2 0q-1 10.8-8.35 19.45-9.15 10.8-29.15 23.9Q7.65 31.9 2.9 9.6q-.3-1.5-.55-2.85Q1.9 3.25 2 .25-.5 14.6.1 29.05q1.4 14.55 57.85 34.2 32.25-23.3 36.1-40.1L95.2 0z" id="m"/><path fill="url(#c)" d="M93.25 20.45q.05-.7-.05-1.4v-.95Q92.5 4 75.35.1 57.65-1.1 47.4 13.85 33.15 2.5 15.5 6.75l-.5.1q-.1 0-.25.05-.1 0-.2.05Q1.45 10.05.05 21.9q0 .15-.05.3l.25 7.9q.25 1.35.55 2.85 4.75 22.3 54.8 33.75 20-13.1 29.15-23.9 7.35-8.65 8.35-19.45.15-1.4.15-2.9z" id="n"/><path fill="url(#d)" d="M97.75 20.4q.05-.7-.05-1.4v-.95Q97 3.95 79.85.05 62.15-1.15 51.9 13.8 37.65 2.45 20 6.7l-.5.1q-.1 0-.25.05-.1 0-.2.05Q5.95 10 4.55 21.85q0 .15-.05.3l.25 7.9Q5 31.4 5.3 32.9q4.75 22.3 54.8 33.75 20-13.1 29.15-23.9Q96.6 34.1 97.6 23.3q.15-1.4.15-2.9z" id="o"/><path fill="url(#e)" d="M97.6 23.3q-1 10.8-8.35 19.45-9.15 10.8-29.15 23.9Q10.05 55.2 5.3 32.9q-.3-1.5-.55-2.85-.45-3.5-.35-6.5-2.5 14.35-1.9 28.8 1.4 14.55 57.85 34.2 32.25-23.3 36.1-40.1L97.6 23.3z" id="p"/><path fill="url(#f)" d="M95.25 50.1q2.475-5.172 1.35-8.65-8.92 18.99-36.25 39.15-46.455-15.466-58-34.2l.95 8.9q4.617 12.178 56.95 31.2 27.245-18.2 35-36.4z" id="q"/><g id="r"><path fill="url(#g)" d="M36.35 7.55Q24.795 2.082 9.7 11.1q-11.073 13.455.95 32.45-9.54-34.456 25.7-36z"/><path fill="url(#h)" d="M92.65 38.3q10.04-20.278-.25-32.15Q77.096-4.744 64.5 2.6q31.11-4.519 28.15 35.7z"/></g><path fill="#D40000" d="M43.1 10.85q.25-3.95-1.3-7.4Q15.95-6.75 0 13.15q.8 5.1 5.45 7.75 4.65 2.65 13.9 2.8 9.25.1 16.25-2.6 7-2.75 7.5-10.25z" id="s"/><path fill="#A80000" d="M69.8 24.3q-5.95-5.55-14.95-5.85-9.05-.3-15.7 4.85-6.7 5.25-7.2 12.65-.13 1.942.15 3.75Q48.104 19.808 73.95 30q-1.37-3.036-4.15-5.7z" id="t"/><path fill="url(#i)" d="M6.4 0Q3.25 0 3.7 6.4q.45 6.35-2.25 12.55Q-1.25 25.1 1 30.3q2.25 5.15 5.4 5.15 3.15 0 5.45-5.2 2.3-5.2 2.3-12.5 0-7.35-2.3-12.55Q9.55 0 6.4 0z" id="x"/><path fill="url(#j)" d="M11.85 2.8q.47 6.413-2.25 12.55-2.72 6.187-.45 11.35 2.258 5.202 5.4 5.2 3.15 0 5.45-5.2 2.3-5.2 2.3-12.5 0-7.35-2.3-12.55-2.3-5.2-5.45-5.2-3.159-.003-2.7 6.35z" id="y"/><path fill="red" d="M15.1 14.85q-1.5 0-1.3 3.05.2 3.05-1.1 6.05-1.3 2.95-.2 5.45t2.6 2.5q1.5 0 2.6-2.5t1.1-6.05q0-3.5-1.1-6t-2.6-2.5z" id="z"/><path id="u" stroke="#000" stroke-opacity=".459" stroke-width="1.8" stroke-linejoin="round" stroke-linecap="round" fill="none" d="M32.125 39.7q.846 5.094 5.475 7.75 4.637 2.665 13.9 2.8 9.25.122 16.25-2.625 7.002-2.73 7.5-10.225.266-3.942-1.3-7.4m-41.825 9.7q-.304-1.808-.175-3.75.5-7.4 7.2-12.65 6.65-5.15 15.7-4.85 9 .3 14.95 5.85 2.78 2.664 4.15 5.7"/><path id="v" stroke="#000" stroke-width="2.29" stroke-linejoin="round" stroke-linecap="round" fill="none" d="M52.7 41.8q3.39-3.84-1.2-11.7"/><path id="w" stroke="#000" stroke-opacity=".408" stroke-width="1" stroke-linejoin="round" stroke-linecap="round" fill="none" d="M60.35 67.5v19.05q32.25-23.3 36.1-40.1L97.6 23.3q-1 10.8-8.35 19.45-9.15 10.8-29.15 23.9l.3.15m-.05 19.75Q3.9 66.9 2.5 52.35q-.6-14.45 1.9-28.8l.1-1.4q.05-.15.05-.3Q5.95 10 19.05 6.9q.1-.05.2-.05.15-.05.25-.05l.5-.1q17.65-4.25 31.9 7.1Q62.15-1.15 79.85.05q17.15 3.9 17.85 18V19q.1.7.05 1.4 0 1.5-.15 2.9M60.1 66.65Q10.05 55.2 5.3 32.9q-.3-1.5-.55-2.85-.45-3.5-.35-6.5m.35 6.5l-.25-7.9"/></defs><use xlink:href="#k" transform="matrix(.51639 0 0 .58183 -77.8 -87.95)"/><use xlink:href="#l"/><g><use xlink:href="#m" transform="translate(36.224 125.543) scale(2.13487)"/><use xlink:href="#n" transform="translate(40.707 75.693) scale(2.13487)"/><use xlink:href="#o" transform="translate(31.1 75.8) scale(2.13487)"/><use xlink:href="#p" transform="translate(31.1 75.8) scale(2.13487)"/><use xlink:href="#q" transform="translate(31.1 75.8) scale(2.13487)"/><use xlink:href="#r" transform="translate(31.1 75.8) scale(2.13487)"/><use xlink:href="#s" transform="translate(99.736 132.48) scale(2.13487)"/><g transform="translate(31.1 75.8) scale(2.13487)"><use xlink:href="#t"/><use xlink:href="#u"/></g><use xlink:href="#v" transform="translate(31.1 75.8) scale(2.13487)"/><use xlink:href="#w" transform="translate(31.1 75.8) scale(2.13487)"/><use xlink:href="#x" transform="matrix(3.20987 0 0 2.95991 124.722 45.972)"/><use xlink:href="#y" transform="matrix(3.20987 0 0 2.95991 98.562 56.48)"/><use xlink:href="#z" transform="matrix(3.20987 0 0 2.95991 98.562 56.48)"/></g></svg>