<svg xmlns="http://www.w3.org/2000/svg" xmlns:xlink="http://www.w3.org/1999/xlink" preserveAspectRatio="none" width="284" height="320"><defs><linearGradient id="a" gradientUnits="userSpaceOnUse" x1="280.55" y1="-8.113" x2="280.55" y2="761.612" spreadMethod="pad"><stop offset="0%" stop-color="#B30027"/><stop offset="30.196%" stop-color="#FF3863"/><stop offset="39.216%" stop-color="#FF3B65"/></linearGradient><filter id="d" x="-20%" y="-20%" width="140%" height="140%" color-interpolation-filters="sRGB"><feColorMatrix in="SourceGraphic" values="1 0 0 0 0 0 1 0 0 0 0 0 1 0 0 0 0 0 0.68 0" result="result1"/></filter><path fill="url(#a)" d="M561.45 269.2V0H0v269.2h561.45z" id="b"/><path fill="#FFF" d="M1.15 1.15q.15-.2.15-.5Q1.3.4 1.15.2.95 0 .65 0 .4 0 .2.2T0 .65q0 .3.2.5t.45.2q.3 0 .5-.2z" id="c"/><path fill="#FFF" d="M14.2 16.05l-3.05 3.85L15 16.85l.55 14.2.55-14.2 3.85 3.05-3.1-3.85 14.2-.5-14.2-.55 3.1-3.85-3.85 3.05L15.55 0 15 14.2l-3.85-3.05L14.2 15 0 15.55l14.2.5z" id="e"/><path fill="#FFF" d="M67.9 83.6q-.133-.006-.25.1-.08.114-.1.25.02.16.1.25.117.13.25.1.183.03.25-.1.13-.09.1-.25.03-.136-.1-.25-.067-.106-.25-.1m-4.95-2.7q-.136.032-.25.15-.106.08-.1.2-.006.183.1.25.114.143.25.15.16-.007.25-.15.13-.067.1-.25.03-.12-.1-.2-.09-.118-.25-.15m.85-2q-.318.332-.35.75.032.43.35.7.283.33.7.3.43.03.75-.3.305-.27.3-.7.005-.418-.3-.75-.297-.257-.75-.25-.417-.007-.7.25m.95-.9q.005-.158-.1-.25-.092-.105-.25-.1-.158-.005-.25.1-.105.092-.1.25-.005.158.1.25.092.105.25.1.158.005.25-.1.105-.092.1-.25m-2.3 1.15q-.158.02-.25.1-.118.117-.15.25.032.183.15.25.092.13.25.1.147.03.25-.1.118-.067.1-.25.018-.133-.1-.25-.103-.08-.25-.1m.1-1.85q-.157-.2-.45-.2-.257 0-.45.2-.175.204-.2.45.025.296.2.5.193.176.45.15.293.026.45-.15.225-.204.2-.5.025-.246-.2-.45m0-1.75q-.133.02-.25.1-.08.117-.1.25.02.183.1.25.117.13.25.1.183.03.25-.1.13-.067.1-.25.03-.133-.1-.25-.067-.08-.25-.1m7.45 2.1q.018-.12-.1-.2-.115-.118-.3-.15-.12.032-.2.15-.118.08-.15.2.032.183.15.25.08.143.2.15.185-.007.3-.15.118-.067.1-.25M67.75 79q0 .258.2.45.18.189.45.2.258-.011.45-.2.176-.192.15-.45.026-.27-.15-.45-.192-.2-.45-.2-.27 0-.45.2-.2.18-.2.45m-.85-.15q-.092-.08-.25-.1-.146.02-.25.1-.093.117-.1.25.007.183.1.25.104.13.25.1.158.03.25-.1.118-.067.1-.25.018-.133-.1-.25m-.45-1.95q-.167-.2-.45-.2-.245 0-.45.2-.175.18-.2.45.025.27.2.45.205.201.45.2.283.001.45-.2.225-.18.2-.45.025-.27-.2-.45m1.45.3q-.147.02-.25.1-.118.117-.15.25.032.185.15.3.103.105.25.1.158.005.25-.1.105-.115.1-.3.005-.133-.1-.25-.092-.08-.25-.1m1.7-2.1q-.295-.305-.75-.3-.392-.005-.7.3-.293.32-.3.75.007.417.3.7.308.318.7.3.455.018.75-.3.307-.283.3-.7.007-.453-.3-.75m3.5 2.35q-.106.08-.1.2-.006.183.1.25.092.143.25.15.158-.007.25-.15.105-.067.1-.25.005-.12-.1-.2-.092-.118-.25-.15-.158.032-.25.15M71.6 77q-.404-.005-.7.3-.305.296-.3.7-.005.443.3.75.296.294.7.3.465-.006.75-.3.282-.285.25-.75.032-.404-.25-.7-.307-.305-.75-.3m.05-.95q.007.146.1.2.117.143.25.15.17-.007.25-.15.118-.054.1-.2.018-.158-.1-.25-.08-.118-.25-.15-.133.032-.25.15-.093.092-.1.25m2.65.15q-.175.18-.2.45.025.258.2.45.205.176.45.15.283.026.45-.15.201-.192.2-.45.001-.27-.2-.45-.167-.2-.45-.2-.245 0-.45.2m-.3-.55q.2-.18.2-.45t-.2-.45q-.204-.2-.5-.2-.244 0-.45.2-.175.18-.2.45.025.27.2.45.206.201.45.2.296.001.5-.2m1.65-1.2q.005-.12-.1-.2-.092-.118-.25-.15-.158.032-.25.15-.105.08-.1.2-.005.185.1.3.092.118.25.1.158.018.25-.1.105-.115.1-.3m3.2 5.95q-.067-.093-.25-.1-.133.007-.25.1-.08.104-.1.25.02.158.1.25.117.118.25.1.183.018.25-.1.13-.092.1-.25.03-.146-.1-.25m-2.05-3.8q.43-.007.7-.35.33-.282.3-.7.03-.417-.3-.7-.27-.318-.7-.35-.418.032-.75.35-.257.283-.25.7-.007.44.25.7.332.343.75.35m2.2-2.3q-.146.032-.25.15-.093.103-.1.25.007.158.1.25.104.118.25.1.158.018.25-.1.118-.092.1-.25.018-.147-.1-.25-.092-.118-.25-.15M53.9 87.9q-.12.02-.2.1-.118.117-.15.25.032.183.15.25.08.13.2.1.183.03.25-.1.143-.067.15-.25-.007-.133-.15-.25-.067-.08-.25-.1m-8-1.85q-.135.007-.25.1-.106.128-.1.25-.006.183.1.25.115.143.25.15.17-.007.25-.15.118-.067.1-.25.018-.122-.1-.25-.08-.093-.25-.1m1.6-3.3q-.118.128-.15.25.032.183.15.25.092.143.25.15.146-.007.2-.15.143-.067.15-.25-.007-.122-.15-.25-.054-.093-.2-.1-.158.007-.25.1m.9-.9q-.092-.106-.25-.1-.146-.006-.25.1-.093.092-.1.25.007.158.1.25.104.105.25.1.158.005.25-.1.118-.092.1-.25.018-.158-.1-.25m1.55-.05q.296.025.5-.2.176-.157.15-.45.026-.27-.15-.45-.204-.2-.5-.2-.245 0-.45.2-.163.18-.15.45-.013.293.15.45.205.225.45.2m-7.4-.15q-.27-.282-.7-.3-.44.018-.75.3-.293.32-.3.75.007.416.3.7.332.318.75.3.43.018.7-.3.33-.284.3-.7.03-.43-.3-.75m2.85.7q-.175.18-.2.45.025.28.2.45.206.2.45.2.296 0 .5-.2.176-.17.15-.45.026-.27-.15-.45-.204-.2-.5-.2-.244 0-.45.2m-1.65.1q-.16.007-.3.1-.08.117-.1.25.02.172.1.25.14.143.3.15.146-.007.2-.15.143-.078.15-.25-.007-.133-.15-.25-.054-.093-.2-.1m1.4-1.65q-.122.02-.25.1-.093.117-.1.25.007.185.1.3.128.105.25.1.16.005.25-.1.143-.115.15-.3-.007-.133-.15-.25-.09-.08-.25-.1M43.2 80q-.28 0-.45.2-.2.18-.2.45 0 .258.2.45.17.176.45.15.27.026.45-.15.201-.192.2-.45.001-.27-.2-.45-.18-.2-.45-.2m6.45-.55q-.115-.08-.3-.1-.12.02-.2.1-.118.14-.15.3.032.158.15.25.08.105.2.1.185.005.3-.1.105-.092.1-.25.005-.16-.1-.3m-3.65 0q-.257.32-.25.75-.007.44.25.7.332.343.75.35.43-.007.7-.35.33-.282.3-.7.03-.43-.3-.75-.27-.28-.7-.3-.418.02-.75.3m13.45 5.15q-.12.032-.2.15-.118.092-.15.25.032.146.15.2.08.143.2.15.183-.007.25-.15.143-.054.15-.2-.007-.158-.15-.25-.067-.118-.25-.15m-3.3-3.6q-.27.025-.45.2-.2.195-.2.45 0 .296.2.5.18.176.45.15.27.026.45-.15.201-.204.2-.5.001-.255-.2-.45-.18-.175-.45-.2m2 .8q.03-.158-.1-.25-.067-.106-.25-.1-.133-.006-.25.1-.08.092-.1.25.02.158.1.25.117.105.25.1.183.005.25-.1.13-.092.1-.25m1.5.15q.172.005.25-.1.143-.092.15-.25-.007-.158-.15-.25-.078-.106-.25-.1-.133-.006-.25.1-.093.092-.1.25.007.158.1.25.117.105.25.1m.65-1.5q.025.258.2.45.207.176.5.15.27.026.45-.15.201-.192.2-.45.001-.27-.2-.45-.18-.2-.45-.2-.293 0-.5.2-.175.18-.2.45m-9.15 2.15q.03-.133-.1-.25-.067-.093-.25-.1-.133.007-.25.1-.08.117-.1.25.02.17.1.25.117.118.25.1.183.018.25-.1.13-.08.1-.25m2.35.5q.305-.284.3-.7.005-.43-.3-.75-.296-.282-.75-.3-.415.018-.7.3-.318.32-.35.75.032.416.35.7.307.318.7.3.454.018.75-.3m1.45-1.15q-.067-.106-.25-.1-.12-.006-.2.1-.118.115-.15.25.032.17.15.25.08.118.2.1.183.018.25-.1.143-.08.15-.25-.007-.135-.15-.25m.55-1.65q-.092-.105-.25-.1-.158-.005-.25.1-.105.115-.1.25-.005.183.1.25.092.13.25.1.158.03.25-.1.105-.067.1-.25.005-.135-.1-.25M53 79.15q-.175.206-.2.45.025.283.2.45.207.201.5.2.258.001.45-.2.176-.167.15-.45.026-.244-.15-.45-.192-.175-.45-.2-.293.025-.5.2m-1.3.55q-.093.092-.1.25.007.158.1.25.104.105.25.1.158.005.25-.1.118-.092.1-.25.018-.158-.1-.25-.092-.106-.25-.1-.146-.006-.25.1m1.65-3.6q.007.185.1.3.128.105.25.1.183.005.25-.1.143-.115.15-.3-.007-.133-.15-.25-.067-.08-.25-.1-.122.02-.25.1-.093.117-.1.25m7.05 2.35q-.158.007-.25.1-.105.117-.1.25-.005.17.1.25.092.118.25.1.158.018.25-.1.105-.08.1-.25.005-.133-.1-.25-.092-.093-.25-.1m-2.65.45q-.257.332-.25.75-.007.43.25.7.332.33.75.3.43.03.7-.3.33-.27.3-.7.03-.418-.3-.75-.27-.257-.7-.25-.418-.007-.75.25m-1.25.75q.146.03.2-.1.143-.067.15-.25-.007-.133-.15-.25-.054-.08-.2-.1-.158.02-.25.1-.118.117-.15.25.032.183.15.25.092.13.25.1m-5.55-30.1q-.08.104-.1.25.02.158.1.25.14.118.3.1.158.018.25-.1.105-.092.1-.25.005-.146-.1-.25-.092-.093-.25-.1-.16.007-.3.1m4.65 2.25q-.092-.08-.25-.1-.158.02-.25.1-.106.117-.1.25-.006.183.1.25.092.13.25.1.158.03.25-.1.105-.067.1-.25.005-.133-.1-.25m-1.85.45q.318-.307.3-.75.018-.404-.3-.7-.283-.305-.7-.3-.418-.005-.75.3-.27.296-.3.7.03.465.3.75.332.294.75.3.417-.006.7-.3m5.3 2.6q-.43.03-.75.3-.28.332-.3.75.02.416.3.7.32.318.75.3.418.018.7-.3.33-.284.3-.7.03-.418-.3-.75-.26-.27-.7-.3m.55-1.35q.02.183.1.25.117.13.25.1.183.03.25-.1.13-.067.1-.25.03-.133-.1-.25-.067-.08-.25-.1-.133.02-.25.1-.08.117-.1.25m-3.5 1.15q.189-.157.2-.45-.011-.257-.2-.45-.192-.175-.45-.2-.27.025-.45.2-.2.193-.2.45 0 .293.2.45.18.225.45.2.258.025.45-.2m1.7-.65q-.133-.005-.25.1-.08.092-.1.25.02.146.1.2.117.143.25.15.183-.007.25-.15.13-.054.1-.2.03-.158-.1-.25-.067-.105-.25-.1m.15-1.9q-.192-.175-.45-.2-.27.025-.45.2-.2.206-.2.45 0 .283.2.45.18.201.45.2.258.001.45-.2.176-.167.15-.45.026-.244-.15-.45M78 73.1q.025.296.2.5.206.176.45.15.296.026.5-.15.176-.204.15-.5.026-.232-.15-.4-.204-.2-.5-.2-.244 0-.45.2-.175.168-.2.4m-1.1.55q-.006.172.1.25.092.143.25.15.158-.007.25-.15.105-.078.1-.25.005-.133-.1-.25-.092-.093-.25-.1-.158.007-.25.1-.106.117-.1.25m-4.25-3.45q-.146.02-.25.1-.093.117-.1.25.007.183.1.25.104.13.25.1.158.03.25-.1.118-.067.1-.25.018-.133-.1-.25-.092-.08-.25-.1m4.75-8q-.106.117-.1.25-.006.183.1.25.115.13.25.1.16.03.25-.1.13-.067.1-.25.03-.133-.1-.25-.09-.08-.25-.1-.135.02-.25.1m2.05 1.65q-.2.18-.2.45 0 .258.2.45.18.176.45.15.293.026.45-.15.225-.192.2-.45.025-.27-.2-.45-.157-.2-.45-.2-.27 0-.45.2m-10.2-3q.143-.09.15-.25-.007-.158-.15-.25-.067-.106-.25-.1-.122-.006-.25.1-.093.092-.1.25.007.16.1.25.128.13.25.1.183.03.25-.1M66.7 58.4q-.418.03-.75.3-.27.332-.3.75.03.417.3.7.332.318.75.3.429.018.7-.3.33-.283.3-.7.03-.418-.3-.75-.271-.27-.7-.3m-.2-.55q.117.13.25.1.183.03.25-.1.13-.067.1-.25.03-.133-.1-.25-.067-.08-.25-.1-.133.02-.25.1-.08.117-.1.25.02.183.1.25m2.1.35q-.133.007-.25.1-.093.117-.1.25.007.17.1.25.117.118.25.1.17.018.25-.1.118-.08.1-.25.018-.133-.1-.25-.08-.093-.25-.1m-6.1.45q.296.026.5-.15.176-.204.15-.5.026-.244-.15-.45-.204-.175-.5-.2-.244.025-.45.2-.175.206-.2.45.025.296.2.5.206.176.45.15m2.3-.7q.17.03.25-.1.118-.067.1-.25.018-.133-.1-.25-.08-.08-.25-.1-.133.02-.25.1-.093.117-.1.25.007.183.1.25.117.13.25.1m-.65-2.8q-.285-.27-.75-.3-.404.03-.7.3-.305.332-.3.75-.005.416.3.7.296.318.7.3.443.018.75-.3.294-.284.3-.7-.006-.418-.3-.75m-2.85.25q-.146.032-.25.15-.093.08-.1.2.007.183.1.25.104.143.25.15.16-.007.25-.15.13-.067.1-.25.03-.12-.1-.2-.09-.118-.25-.15m18.05 6.15q-.232.025-.4.2-.2.207-.2.5 0 .27.2.45.168.201.4.2.296.001.5-.2.176-.18.15-.45.026-.293-.15-.5-.204-.175-.5-.2m-3.8-.65q-.318.308-.35.7.032.443.35.75.283.294.7.3.453-.006.75-.3.282-.285.25-.75.032-.392-.25-.7-.32-.293-.75-.3-.417.007-.7.3m-1.65.25q-.093.117-.1.25.007.185.1.3.117.105.25.1.17.005.25-.1.118-.115.1-.3.018-.133-.1-.25-.08-.08-.25-.1-.133.02-.25.1m-1.65-.3q-.2.206-.2.45 0 .283.2.45.18.201.45.2.27.001.45-.2.201-.167.2-.45.001-.244-.2-.45-.18-.175-.45-.2-.27.025-.45.2m-.2-2.15q-.283-.27-.7-.3-.418.03-.75.3-.27.332-.3.75.03.417.3.7.332.318.75.3.417.018.7-.3.318-.283.3-.7.018-.418-.3-.75M32.1 90.2q-.133-.006-.25.1-.08.092-.1.25.02.158.1.25.117.105.25.1.183.005.25-.1.13-.092.1-.25.03-.158-.1-.25-.067-.106-.25-.1M26.55 83q.026-.245-.15-.45-.204-.175-.5-.2-.245.025-.45.2-.175.205-.2.45.025.283.2.45.205.201.45.2.296.001.5-.2.176-.167.15-.45m1.7-.8q-.28.308-.3.7.02.465.3.75.345.318.75.3.442.018.7-.3.343-.307.35-.75-.007-.392-.35-.7-.258-.293-.7-.3-.405.007-.75.3m-.1-.5q.005-.147-.1-.25-.092-.118-.25-.15-.158.032-.25.15-.106.103-.1.25-.006.136.1.25.092.105.25.1.158.005.25-.1.105-.114.1-.25m-4.9 3.75q-.133.007-.25.1-.093.117-.1.25.007.17.1.25.117.118.25.1.172.018.25-.1.143-.08.15-.25-.007-.133-.15-.25-.078-.093-.25-.1m-2.3-3.5q-.092-.106-.25-.1-.147-.006-.25.1-.118.115-.15.25.032.17.15.25.103.118.25.1.158.018.25-.1.118-.08.1-.25.018-.135-.1-.25m2.4 0q.026-.244-.15-.45-.204-.175-.5-.2-.244.025-.45.2-.175.206-.2.45.025.306.2.45.206.225.45.2.296.025.5-.2.176-.144.15-.45m1.8-2.25q-.392.032-.7.35-.293.283-.3.7.007.418.3.7.308.32.7.3.465.02.75-.3.318-.282.3-.7.018-.417-.3-.7-.307-.318-.75-.35m-3.9.5q-.089-.093-.25-.1-.135.007-.25.1-.106.104-.1.25-.006.158.1.25.115.118.25.1.161.018.25-.1.13-.092.1-.25.03-.146-.1-.25M23 75.85q-.093.117-.1.25.007.185.1.3.117.105.25.1.172.005.25-.1.143-.115.15-.3-.007-.133-.15-.25-.078-.08-.25-.1-.133.02-.25.1m6.05 4.25q-.16.007-.3.1-.093.104-.1.25.007.158.1.25.14.118.3.1.146.018.2-.1.143-.092.15-.25-.007-.146-.15-.25-.054-.093-.2-.1m.6-3.7q-.147-.006-.25.1-.118.092-.15.25.032.158.15.25.103.105.25.1.158.005.25-.1.118-.092.1-.25.018-.158-.1-.25-.092-.106-.25-.1m8.05 7.3q-.175.18-.2.45.025.27.2.45.206.201.45.2.283.001.45-.2.201-.18.2-.45.001-.27-.2-.45-.167-.2-.45-.2-.244 0-.45.2m-.65-.95q.158.018.25-.1.105-.08.1-.25.005-.133-.1-.25-.092-.093-.25-.1-.158.007-.25.1-.106.117-.1.25-.006.17.1.25.092.118.25.1m-1-.9q-.092-.106-.25-.1-.146-.006-.25.1-.093.092-.1.25.007.158.1.25.104.105.25.1.158.005.25-.1.118-.092.1-.25.018-.158-.1-.25m1.05-1.15q-.105.117-.1.25-.005.183.1.25.115.13.25.1.17.03.25-.1.118-.067.1-.25.018-.133-.1-.25-.08-.08-.25-.1-.135.02-.25.1m3.05 2.25q-.16.02-.3.1-.08.14-.1.3.02.158.1.25.14.105.3.1.146.005.2-.1.143-.092.15-.25-.007-.16-.15-.3-.054-.08-.2-.1m-.7-1.25q.176-.18.15-.45.026-.257-.15-.45-.192-.175-.45-.2-.27.025-.45.2-.2.193-.2.45 0 .27.2.45.18.201.45.2.258.001.45-.2m.95-1.2q-.105.117-.1.25-.005.183.1.25.092.13.25.1.158.03.25-.1.105-.067.1-.25.005-.133-.1-.25-.092-.08-.25-.1-.158.02-.25.1m-9.1 2.9q-.067-.118-.25-.15-.133.032-.25.15-.08.101-.1.2.02.185.1.3.117.118.25.1.183.018.25-.1.13-.115.1-.3.03-.099-.1-.2m-.4-1q.02.17.1.25.139.118.25.1.185.018.3-.1.105-.08.1-.25.005-.133-.1-.25-.115-.093-.3-.1-.111.007-.25.1-.08.117-.1.25m4.2.55q-.18-.175-.45-.2-.257.025-.45.2-.175.205-.2.45.025.283.2.45.193.201.45.2.27.001.45-.2.201-.167.2-.45.001-.245-.2-.45m-2.1-.5q.105-.08.1-.25.005-.135-.1-.25-.115-.106-.3-.1-.133-.006-.25.1-.08.115-.1.25.02.17.1.25.117.118.25.1.185.018.3-.1m.4.95q-.092-.118-.25-.15-.158.032-.25.15-.106.101-.1.2-.006.185.1.3.092.118.25.1.158.018.25-.1.105-.115.1-.3.005-.099-.1-.2m1.05-3.95q-.415.006-.7.3-.318.307-.35.7.032.454.35.75.307.305.7.3.454.005.75-.3.305-.296.3-.75.005-.393-.3-.7-.296-.294-.75-.3m-3.2.55q-.255 0-.45.2-.175.18-.2.45.025.258.2.45.195.176.45.15.296.026.5-.15.176-.192.15-.45.026-.27-.15-.45-.204-.2-.5-.2m7.45-2.15q-.158-.006-.25.1-.106.092-.1.25-.006.158.1.25.092.105.25.1.16.005.25-.1.13-.092.1-.25.03-.158-.1-.25-.09-.106-.25-.1m-31.9 4.5q-.146.02-.25.1-.093.117-.1.25.007.183.1.25.104.13.25.1.158.03.25-.1.105-.067.1-.25.005-.133-.1-.25-.092-.08-.25-.1m-3.4-3.9q-.257 0-.45.2-.175.18-.2.45.025.27.2.45.193.201.45.2.27.001.45-.2.201-.18.2-.45.001-.27-.2-.45-.18-.2-.45-.2m-1.45.05q-.007-.158-.15-.25-.078-.106-.25-.1-.111-.006-.25.1-.093.092-.1.25.007.158.1.25.139.105.25.1.172.005.25-.1.143-.092.15-.25m-1.6-2.65q-.158.032-.25.15-.106.092-.1.25-.006.146.1.2.092.143.25.15.158-.007.25-.15.105-.054.1-.2.005-.158-.1-.25-.092-.118-.25-.15m2.85 1.3q.026-.27-.15-.45-.204-.2-.5-.2-.232 0-.4.2-.2.18-.2.45t.2.45q.168.201.4.2.296.001.5-.2.176-.18.15-.45m6.55 1.5q-.204-.2-.5-.2-.244 0-.45.2-.175.18-.2.45.025.27.2.45.206.201.45.2.296.001.5-.2.176-.18.15-.45.026-.27-.15-.45m-4 .95q0 .283.2.45.168.201.4.2.296.001.5-.2.176-.167.15-.45.026-.244-.15-.45-.204-.175-.5-.2-.232.025-.4.2-.2.206-.2.45m-.15-.8q.03-.133-.1-.25-.067-.093-.25-.1-.133.007-.25.1-.08.117-.1.25.02.17.1.25.117.118.25.1.183.018.25-.1.13-.08.1-.25m1.9-.25q-.118.117-.15.25.032.17.15.25.092.118.25.1.146.018.2-.1.143-.08.15-.25-.007-.133-.15-.25-.054-.093-.2-.1-.158.007-.25.1M6.25 77.2q.03-.43-.3-.75-.27-.28-.7-.3-.418.02-.75.3-.293.32-.3.75.007.418.3.7.31.32.75.3.43.02.7-.3.33-.282.3-.7m10.25 4.35q-.158-.005-.25.1-.118.092-.15.25.032.158.15.25.092.105.25.1.146.005.2-.1.143-.092.15-.25-.007-.158-.15-.25-.054-.105-.2-.1m3.4-.25q.03-.418-.3-.75-.26-.293-.7-.3-.43.007-.75.3-.28.332-.3.75.02.43.3.7.32.33.75.3.418.03.7-.3.33-.27.3-.7m-9.65-.2q.105-.09.1-.25.005-.124-.1-.25-.092-.093-.25-.1-.158.007-.25.1-.105.126-.1.25-.005.16.1.25.092.143.25.15.158-.007.25-.15m1.45-.2q-.093.117-.1.25.007.185.1.3.104.105.25.1.158.005.25-.1.118-.115.1-.3.018-.133-.1-.25-.092-.08-.25-.1-.146.02-.25.1m1.95-.2q-.2.18-.2.45 0 .293.2.45.18.225.45.2.258.025.45-.2.2-.157.2-.45 0-.27-.2-.45-.192-.2-.45-.2-.27 0-.45.2m-.6-2.3q-.295-.318-.75-.35-.392.032-.7.35-.28.283-.3.7.02.43.3.75.308.282.7.25.478.032.75-.25.33-.32.3-.75.03-.417-.3-.7m2.4 1.2q-.135-.006-.25.1-.105.092-.1.25-.005.158.1.25.115.105.25.1.16.005.25-.1.13-.092.1-.25.03-.158-.1-.25-.09-.106-.25-.1m1.65-.95q-.27 0-.5.2-.175.18-.2.45.025.27.2.45.23.201.5.2.258.001.45-.2.176-.18.15-.45.026-.27-.15-.45-.192-.2-.45-.2m22.4-39.5q-.133.007-.25.1-.08.104-.1.25.02.158.1.25.117.105.25.1.185.005.3-.1.105-.092.1-.25.005-.146-.1-.25-.115-.093-.3-.1m.1-10.35q-.005.16.1.25.092.13.25.1.146.03.2-.1.143-.09.15-.25-.007-.158-.15-.25-.054-.106-.2-.1-.158-.006-.25.1-.105.092-.1.25m34.9-2q-.136.007-.25.1-.106.104-.1.25-.006.158.1.25.114.118.25.1.16.018.25-.1.13-.092.1-.25.03-.146-.1-.25-.09-.093-.25-.1m6 2.3q-.244 0-.45.2-.175.17-.2.45.025.27.2.45.206.201.45.2.283.001.45-.2.214-.18.2-.45.014-.28-.2-.45-.167-.2-.45-.2m-24 20.05q-.296-.293-.75-.3-.393.007-.7.3-.295.308-.3.7.005.465.3.75.307.318.7.3.454.018.75-.3.305-.307.3-.75.005-.392-.3-.7m3.85-3.35q-.092-.08-.25-.1-.146.02-.25.1-.093.14-.1.3.007.158.1.25.104.105.25.1.158.005.25-.1.118-.092.1-.25.018-.16-.1-.3m-9.15 2.35q.332.305.75.3.429.005.7-.3.33-.296.3-.75.03-.393-.3-.7-.271-.305-.7-.3-.418-.005-.75.3-.28.307-.3.7.02.454.3.75m1.5 1q-.08.104-.1.25.02.158.1.25.117.118.25.1.185.018.3-.1.105-.092.1-.25.005-.146-.1-.25-.115-.093-.3-.1-.133.007-.25.1m.15-8.25q-.093.092-.1.25.007.16.1.25.117.13.25.1.17.03.25-.1.118-.09.1-.25.018-.158-.1-.25-.08-.106-.25-.1-.133-.006-.25.1M49 49q-.175.206-.2.45.025.296.2.5.206.176.45.15.283.026.45-.15.214-.204.2-.5.014-.244-.2-.45-.167-.175-.45-.2-.244.025-.45.2m1.05-1.35q-.007-.146-.15-.25-.054-.093-.2-.1-.158.007-.25.1-.106.104-.1.25-.006.158.1.25.092.118.25.1.146.018.2-.1.143-.092.15-.25M48 46.15q-.258-.295-.7-.3-.428.005-.75.3-.28.307-.3.7.02.455.3.75.322.307.75.3.442.007.7-.3.343-.295.35-.75-.007-.393-.35-.7m2.2-.95q-.158.032-.25.15-.106.114-.1.25-.006.147.1.25.092.118.25.1.16.018.25-.1.13-.103.1-.25.03-.136-.1-.25-.09-.118-.25-.15m-1.2.05q-.067-.105-.25-.1-.122-.005-.25.1-.093.092-.1.25.007.158.1.25.128.105.25.1.183.005.25-.1.143-.092.15-.25-.007-.158-.15-.25m-4.2-5.85q-.08-.118-.25-.15-.133.032-.25.15-.093.092-.1.25.007.146.1.2.117.143.25.15.17-.007.25-.15.118-.054.1-.2.018-.158-.1-.25m-.05-1q.258.001.45-.2.176-.18.15-.45.026-.27-.15-.45-.192-.2-.45-.2-.27 0-.45.2-.2.18-.2.45t.2.45q.18.201.45.2m3.95 4.65q-.204-.2-.5-.2-.244 0-.45.2-.175.204-.2.45.025.296.2.5.206.176.45.15.296.026.5-.15.176-.204.15-.5.026-.246-.15-.45m-2.8-.8q.001-.232-.2-.4-.18-.2-.45-.2t-.45.2q-.2.168-.2.4 0 .296.2.5.18.176.45.15.27.026.45-.15.201-.204.2-.5m.5.8q-.158.032-.25.15-.105.092-.1.25-.005.146.1.2.092.143.25.15.158-.007.25-.15.105-.054.1-.2.005-.158-.1-.25-.092-.118-.25-.15m1.35-1.7q-.054-.105-.2-.1-.158-.005-.25.1-.118.092-.15.25.032.158.15.25.092.105.25.1.146.005.2-.1.143-.092.15-.25-.007-.158-.15-.25m-.3-2.05q-.27-.28-.7-.3-.418.02-.75.3-.257.31-.25.75-.007.429.25.7.332.33.75.3.43.03.7-.3.33-.271.3-.7.03-.418-.3-.75m3-7.45q-.067-.118-.25-.15-.133.032-.25.15-.08.103-.1.25.02.158.1.25.117.118.25.1.183.018.25-.1.13-.092.1-.25.03-.147-.1-.25m-6.7 4.55q-.078-.118-.25-.15-.133.032-.25.15-.08.115-.1.25.02.17.1.25.117.118.25.1.172.018.25-.1.143-.08.15-.25-.007-.135-.15-.25m1.4-1.55q-.118.104-.15.25.032.158.15.25.08.118.2.1.183.018.25-.1.143-.092.15-.25-.007-.146-.15-.25-.067-.093-.25-.1-.12.007-.2.1m-1.2-1.55q-.297-.282-.75-.3-.417.018-.7.3-.318.32-.35.75.032.418.35.7.283.32.7.3.453.02.75-.3.282-.26.25-.7.032-.43-.25-.75M45.3 32q.018-.133-.1-.25-.092-.08-.25-.1-.146.02-.25.1-.093.117-.1.25.007.185.1.3.104.105.25.1.158.005.25-.1.118-.115.1-.3m-1.75-3.5q.032.183.15.25.092.143.25.15.146-.007.2-.15.143-.067.15-.25-.007-.12-.15-.2-.054-.118-.2-.15-.158.032-.25.15-.118.08-.15.2m-1 1.6q-.2.195-.2.45 0 .296.2.5.168.176.4.15.296.026.5-.15.176-.204.15-.5.026-.255-.15-.45-.204-.175-.5-.2-.232.025-.4.2m2.95-3.15q-.067-.105-.25-.1-.133-.005-.25.1-.08.092-.1.25.02.158.1.25.117.105.25.1.183.005.25-.1.13-.092.1-.25.03-.158-.1-.25m-1.6-1.05q-.244.025-.45.2-.175.193-.2.45.025.27.2.45.206.201.45.2.283.001.45-.2.214-.18.2-.45.014-.257-.2-.45-.167-.175-.45-.2m2.2 4.75q.33-.272.3-.75.03-.392-.3-.7-.295-.28-.75-.3-.392.02-.7.3-.28.308-.3.7.02.455.3.75.308.33.7.3.478.03.75-.3M57.3 18.9q-.27.025-.45.2-.2.205-.2.45 0 .283.2.45.18.201.45.2.258.001.45-.2.176-.167.15-.45.026-.245-.15-.45-.192-.175-.45-.2m-5.1.55q-.092-.105-.25-.1-.146-.005-.25.1-.093.092-.1.25.007.158.1.25.104.105.25.1.158.005.25-.1.118-.092.1-.25.018-.158-.1-.25m1.3-.1q-.135-.005-.25.1-.118.092-.15.25.032.158.15.25.115.105.25.1.149.005.25-.1.118-.092.1-.25.018-.158-.1-.25-.101-.105-.25-.1m1.95-1.7q-.007-.417-.35-.7-.282-.318-.7-.35-.417.032-.7.35-.318.283-.35.7.032.418.35.7.283.32.7.3.44.02.7-.3.343-.282.35-.7m-4.4.1q-.175.206-.2.45.025.296.2.5.217.176.45.15.296.026.5-.15.176-.204.15-.5.026-.244-.15-.45-.204-.175-.5-.2-.233.025-.45.2m7.8 0q-.27.307-.3.7.03.441.3.7.332.343.75.35.418-.007.7-.35.32-.259.3-.7.02-.393-.3-.7-.26-.294-.7-.3-.418.006-.75.3m-2.35 0q-.158.032-.25.15-.118.092-.15.25.032.147.15.25.092.118.25.1.146.018.2-.1.143-.103.15-.25-.007-.158-.15-.25-.054-.118-.2-.15m-.3-1.7q-.067-.105-.25-.1-.135-.005-.25.1-.106.092-.1.25-.006.158.1.25.115.105.25.1.183.005.25-.1.13-.092.1-.25.03-.158-.1-.25m1.55.9q.118-.09.1-.25.018-.135-.1-.25-.092-.105-.25-.1-.146-.005-.25.1-.093.115-.1.25.007.16.1.25.104.13.25.1.158.03.25-.1m1-1.95q-.18-.2-.45-.2-.257 0-.45.2-.175.18-.2.45.025.27.2.45.193.201.45.2.27.001.45-.2.201-.18.2-.45.001-.27-.2-.45m-8.3 9q-.067-.08-.25-.1-.133.02-.25.1-.08.14-.1.3.02.158.1.25.117.105.25.1.183.005.25-.1.13-.092.1-.25.03-.16-.1-.3m-3.5.3q-.32-.293-.75-.3-.417.007-.7.3-.318.308-.35.7.032.443.35.75.283.294.7.3.453-.006.75-.3.305-.307.3-.75.005-.392-.3-.7m.1-1.65q.025.27.2.45.206.201.45.2.283.001.45-.2.201-.18.2-.45.001-.27-.2-.45-.167-.2-.45-.2-.244 0-.45.2-.175.18-.2.45m3.25-2.75q-.405-.005-.75.3-.257.297-.25.75-.007.416.25.7.345.305.75.3.442.005.7-.3.33-.284.3-.7.03-.43-.3-.75-.258-.305-.7-.3m-1.85.75q-.135.02-.25.1-.106.117-.1.25-.006.183.1.25.115.13.25.1.183.03.25-.1.13-.067.1-.25.03-.133-.1-.25-.067-.08-.25-.1m-3.25-1.3q.03-.158-.1-.25-.067-.118-.25-.15-.133.032-.25.15-.08.092-.1.25.02.146.1.2.117.143.25.15.183-.007.25-.15.13-.054.1-.2M80 22.6q-.133.032-.25.15-.08.08-.1.2.02.183.1.25.117.143.25.15.183-.007.25-.15.13-.067.1-.25.03-.12-.1-.2-.067-.118-.25-.15m-3.6-.9q-.118.103-.15.25.032.158.15.25.08.118.2.1.183.018.25-.1.143-.092.15-.25-.007-.147-.15-.25-.067-.118-.25-.15-.12.032-.2.15m2 .9q-.17-.2-.45-.2-.27 0-.45.2-.2.182-.2.45 0 .296.2.5.18.176.45.15.28.026.45-.15.2-.204.2-.5 0-.268-.2-.45m-.4-1.85q-.08-.08-.25-.1-.133.02-.25.1-.093.117-.1.25.007.183.1.25.117.13.25.1.17.03.25-.1.118-.067.1-.25.018-.133-.1-.25m-1.8-1.55q-.122.032-.25.15-.093.08-.1.2.007.183.1.25.128.143.25.15.183-.007.25-.15.143-.067.15-.25-.007-.12-.15-.2-.067-.118-.25-.15m1.75.6q.28.001.45-.2.2-.167.2-.45 0-.245-.2-.45-.17-.175-.45-.2-.27.025-.45.2-.2.205-.2.45 0 .283.2.45.18.201.45.2m1.4.4q-.293.32-.3.75.007.416.3.7.308.305.7.3.443.005.75-.3.318-.284.3-.7.018-.43-.3-.75-.285-.305-.75-.3-.392-.005-.7.3m-6.2-1q-.158.032-.25.15-.105.08-.1.2-.005.183.1.25.092.143.25.15.158-.007.25-.15.105-.067.1-.25.005-.12-.1-.2-.092-.118-.25-.15m1 1q-.293.32-.3.75.007.416.3.7.332.305.75.3.417.005.7-.3.318-.284.3-.7.018-.43-.3-.75-.283-.305-.7-.3-.418-.005-.75.3m.65-1.9q-.17-.2-.45-.2-.27 0-.45.2-.2.18-.2.45 0 .258.2.45.18.176.45.15.28.026.45-.15.2-.192.2-.45 0-.27-.2-.45m-3.2-4.8q.183.018.25-.1.143-.08.15-.25-.007-.133-.15-.25-.067-.093-.25-.1-.12.007-.2.1-.118.117-.15.25.032.17.15.25.08.118.2.1m5.8-.3q-.158.032-.25.15-.118.092-.15.25.032.146.15.2.092.143.25.15.146-.007.2-.15.143-.054.15-.2-.007-.158-.15-.25-.054-.118-.2-.15m-10 6.15q.158-.007.25-.15.105-.078.1-.25.005-.133-.1-.25-.092-.093-.25-.1-.16.007-.3.1-.08.117-.1.25.02.172.1.25.14.143.3.15m2.9.65q.18.201.45.2.27.001.45-.2.225-.167.2-.45.025-.245-.2-.45-.18-.175-.45-.2-.27.025-.45.2-.2.205-.2.45 0 .283.2.45m-9.15 4.1q.13-.067.1-.25.03-.133-.1-.25-.067-.08-.25-.1-.133.02-.25.1-.08.117-.1.25.02.183.1.25.117.13.25.1.183.03.25-.1m3.7-3.8q.322.282.75.25.442.032.7-.25.343-.307.35-.75-.007-.404-.35-.7-.258-.305-.7-.3-.405-.005-.75.3-.28.296-.3.7.02.443.3.75m-.5-2.5q-.005.185.1.3.092.105.25.1.158.005.25-.1.105-.115.1-.3.005-.133-.1-.25-.092-.08-.25-.1-.158.02-.25.1-.105.117-.1.25m1.1-.85q.143-.09.15-.25-.007-.135-.15-.25-.078-.105-.25-.1-.133-.005-.25.1-.093.115-.1.25.007.16.1.25.117.13.25.1.172.03.25-.1m-2.8.8q-.27.025-.5.2-.175.206-.2.45.025.296.2.5.23.176.5.15.258.026.45-.15.176-.204.15-.5.026-.244-.15-.45-.192-.175-.45-.2m-1.8-1.6q.105-.115.1-.3.005-.111-.1-.25-.092-.08-.25-.1-.158.02-.25.1-.106.139-.1.25-.006.185.1.3.092.105.25.1.158.005.25-.1m2-1.45q-.415.018-.7.3-.305.32-.3.75-.005.418.3.7.285.32.7.3.454.02.75-.3.305-.282.3-.7.005-.43-.3-.75-.296-.282-.75-.3m6.55 3.6q-.12-.006-.2.1-.118.114-.15.25.032.16.15.25.08.13.2.1.183.03.25-.1.143-.09.15-.25-.007-.136-.15-.25-.067-.106-.25-.1m-.3-1.45q-.133.007-.25.1-.08.128-.1.25.02.183.1.25.117.13.25.1.183.03.25-.1.13-.067.1-.25.03-.122-.1-.25-.067-.093-.25-.1m1.5-.75q-.27.308-.3.7.03.478.3.75.332.307.75.3.417.007.7-.3.318-.295.3-.75.018-.392-.3-.7-.283-.293-.7-.3-.418.007-.75.3m-3.55-1.35q-.393-.005-.7.3-.305.296-.3.7-.005.465.3.75.307.305.7.3.454.005.75-.3.305-.307.3-.75.005-.404-.3-.7-.296-.305-.75-.3m-4.95-5.7q.005-.146-.1-.25-.092-.093-.25-.1-.158.007-.25.1-.106.104-.1.25-.006.158.1.25.092.118.25.1.158.018.25-.1.105-.092.1-.25m60.4 57.8q-.092-.118-.25-.15-.158.032-.25.15-.105.092-.1.25-.005.146.1.2.092.143.25.15.158-.007.25-.15.105-.054.1-.2.005-.158-.1-.25m8.4-3.85q-.158.032-.25.15-.118.08-.15.2.032.183.15.25.092.13.25.1.146.03.2-.1.143-.067.15-.25-.007-.12-.15-.2-.054-.118-.2-.15m-3-2.4q0 .27.2.45.168.201.4.2.296.001.5-.2.176-.18.15-.45.026-.28-.15-.45-.204-.2-.5-.2-.232 0-.4.2-.2.17-.2.45m3.15-3q-.272-.28-.75-.3-.392.02-.7.3-.28.344-.3.75.02.442.3.7.308.33.7.3.455.03.75-.3.33-.258.3-.7.03-.406-.3-.75m-4.9 3.85q-.285-.295-.75-.3-.393.005-.7.3-.294.307-.3.7.006.454.3.75.307.305.7.3.443.005.75-.3.294-.296.3-.75-.006-.393-.3-.7m-1.5-1.4q-.158-.005-.25.1-.106.092-.1.25-.006.158.1.25.092.105.25.1.16.005.25-.1.13-.092.1-.25.03-.158-.1-.25-.09-.105-.25-.1m1.4-.05q.283.001.45-.2.214-.18.2-.45.014-.257-.2-.45-.167-.175-.45-.2-.244.025-.45.2-.175.193-.2.45.025.27.2.45.206.201.45.2m-4.2 1.55q-.133.032-.25.15-.08.103-.1.25.02.158.1.25.117.118.25.1.185.018.3-.1.105-.092.1-.25.005-.147-.1-.25-.115-.118-.3-.15m.75-1.4q-.18-.2-.45-.2-.258 0-.45.2-.2.17-.2.45 0 .27.2.45.192.201.45.2.27.001.45-.2.201-.18.2-.45.001-.28-.2-.45m-.8-2.9q-.111.007-.25.1-.08.128-.1.25.02.161.1.25.139.13.25.1.185.03.3-.1.105-.089.1-.25.005-.122-.1-.25-.115-.093-.3-.1M138.45 56q-.158.032-.25.15-.118.103-.15.25.032.158.15.25.092.118.25.1.146.018.2-.1.143-.092.15-.25-.007-.147-.15-.25-.054-.118-.2-.15m-2.2 4.95q-.158.007-.25.1-.118.117-.15.25.032.172.15.25.092.143.25.15.146-.007.2-.15.143-.078.15-.25-.007-.133-.15-.25-.054-.093-.2-.1m-2.75-2.25q-.167-.175-.45-.2-.244.025-.45.2-.175.193-.2.45.025.27.2.45.206.201.45.2.283.001.45-.2.201-.18.2-.45.001-.257-.2-.45m0-2.7q-.167-.175-.45-.2-.244.025-.45.2-.175.206-.2.45.025.296.2.5.206.176.45.15.283.026.45-.15.201-.204.2-.5.001-.244-.2-.45m.95 1.05q-.067-.08-.25-.1-.133.02-.25.1-.08.117-.1.25.02.183.1.25.117.13.25.1.183.03.25-.1.13-.067.1-.25.03-.133-.1-.25m1.9-.3q-.418.03-.75.3-.27.332-.3.75.03.453.3.75.332.282.75.25.43.032.7-.25.33-.32.3-.75.03-.418-.3-.75-.27-.27-.7-.3m-.05-.4q.117.105.25.1.185.005.3-.1.105-.092.1-.25.005-.16-.1-.3-.115-.08-.3-.1-.133.02-.25.1-.08.14-.1.3.02.158.1.25m-3.5-5.85q-.417-.005-.7.3-.318.296-.35.7.032.443.35.75.283.294.7.3.44-.006.7-.3.32-.285.3-.75.02-.404-.3-.7-.282-.305-.7-.3m-.9-.25q.105-.067.1-.25.005-.122-.1-.25-.092-.093-.25-.1-.158.007-.25.1-.106.128-.1.25-.006.183.1.25.092.143.25.15.158-.007.25-.15m2.9.9q.307.305.7.3.455.005.75-.3.307-.296.3-.75.007-.393-.3-.7-.272-.294-.75-.3-.393.006-.7.3-.295.307-.3.7.005.454.3.75m1 1.3q-.092-.106-.25-.1-.158-.006-.25.1-.106.092-.1.25-.006.158.1.25.092.105.25.1.158.005.25-.1.105-.092.1-.25.005-.158-.1-.25m5.65 3q-.296-.305-.75-.3-.393-.005-.7.3-.318.296-.35.7.032.443.35.75.285.282.7.25.454.032.75-.25.305-.307.3-.75.005-.404-.3-.7m-1.95-2.8q-.08.092-.1.25.02.158.1.25.117.105.25.1.183.005.25-.1.13-.092.1-.25.03-.158-.1-.25-.067-.106-.25-.1-.133-.006-.25.1m-.6 2.1q.092.143.25.15.158-.007.25-.15.105-.054.1-.2.005-.158-.1-.25-.092-.118-.25-.15-.158.032-.25.15-.105.092-.1.25-.005.146.1.2m-1.2-2.9q-.417.007-.7.3-.318.332-.35.75.032.416.35.7.283.318.7.3.43.018.75-.3.305-.284.3-.7.005-.418-.3-.75-.297-.293-.75-.3m-.45-1.25q-.093.103-.1.25.007.158.1.25.104.105.25.1.158.005.25-.1.118-.092.1-.25.018-.147-.1-.25-.092-.118-.25-.15-.146.032-.25.15m12.65 8.75q-.105.08-.1.2-.005.183.1.25.115.143.25.15.149-.007.25-.15.118-.067.1-.25.018-.12-.1-.2-.101-.118-.25-.15-.135.032-.25.15m-2.2-.45q-.067-.093-.25-.1-.133.007-.25.1-.08.128-.1.25.02.183.1.25.117.143.25.15.183-.007.25-.15.13-.067.1-.25.03-.122-.1-.25m1.2-.6q-.133-.005-.25.1-.08.092-.1.25.02.16.1.25.117.13.25.1.183.03.25-.1.13-.09.1-.25.03-.158-.1-.25-.067-.105-.25-.1m-.2-1.3q.005-.393-.3-.7-.297-.295-.75-.3-.417.005-.7.3-.318.307-.35.7.032.454.35.75.283.305.7.3.43.005.75-.3.305-.296.3-.75m1.45-.35q-.293 0-.5.2-.175.18-.2.45.025.27.2.45.207.201.5.2.258.001.45-.2.189-.18.2-.45-.011-.27-.2-.45-.192-.2-.45-.2m-6.55 1.1q.13-.076.1-.2.03-.16-.1-.3-.067-.08-.25-.1-.133.02-.25.1-.08.14-.1.3.02.124.1.2.117.143.25.15.183-.007.25-.15m1.85-.1q-.192-.175-.45-.2-.27.025-.45.2-.2.205-.2.45 0 .283.2.45.18.214.45.2.258.014.45-.2.176-.167.15-.45.026-.245-.15-.45m.75-1.15q-.007-.158-.15-.25-.067-.105-.25-.1-.12-.005-.2.1-.118.092-.15.25.032.158.15.25.08.105.2.1.183.005.25-.1.143-.092.15-.25m-2.25-1.2q-.244.025-.45.2-.175.205-.2.45.025.283.2.45.206.201.45.2.283.001.45-.2.214-.167.2-.45.014-.245-.2-.45-.167-.175-.45-.2m-1.2-.5q-.158.007-.25.1-.105.117-.1.25-.005.17.1.25.092.118.25.1.158.018.25-.1.105-.08.1-.25.005-.133-.1-.25-.092-.093-.25-.1m-.5-.95q.318-.258.3-.7.018-.405-.3-.75-.284-.257-.7-.25-.44-.007-.75.25-.293.345-.3.75.007.442.3.7.332.33.75.3.416.03.7-.3m1.05-.85q.032.158.15.25.08.118.2.1.183.018.25-.1.13-.092.1-.25.03-.146-.1-.25-.067-.093-.25-.1-.12.007-.2.1-.118.104-.15.25m2.6-.85q-.417-.007-.7.25-.318.345-.35.75.032.442.35.7.283.33.7.3.418.03.7-.3.343-.258.35-.7-.007-.405-.35-.75-.26-.257-.7-.25m1.25-.55q-.133.007-.25.1-.08.14-.1.3.02.124.1.2.117.143.25.15.183-.007.25-.15.13-.076.1-.2.03-.16-.1-.3-.067-.093-.25-.1m0-1.55q-.133.032-.25.15-.08.08-.1.2.02.183.1.25.117.143.25.15.183-.007.25-.15.13-.067.1-.25.03-.12-.1-.2-.067-.118-.25-.15m2.7.95q-.18-.2-.45-.2-.257 0-.45.2-.175.168-.2.4.025.318.2.5.193.2.45.2.27 0 .45-.2.201-.182.2-.5.001-.232-.2-.4m1.05-1q-.067-.118-.25-.15-.135.032-.25.15-.105.08-.1.2-.005.183.1.25.115.143.25.15.183-.007.25-.15.13-.067.1-.25.03-.12-.1-.2m7.85 10.25q.105-.092.1-.25.005-.147-.1-.25-.114-.118-.25-.15-.16.032-.3.15-.08.103-.1.25.02.158.1.25.14.105.3.1.136.005.25-.1m.25-2.7q-.147.032-.25.15-.118.092-.15.25.032.146.15.2.103.143.25.15.158-.007.25-.15.105-.054.1-.2.005-.158-.1-.25-.092-.118-.25-.15m1.1.95q-.244.025-.45.2-.175.193-.2.45.025.27.2.45.206.201.45.2.283.001.45-.2.201-.18.2-.45.001-.257-.2-.45-.167-.175-.45-.2m.05-.55q.139.143.25.15.185-.007.3-.15.105-.054.1-.2.005-.158-.1-.25-.115-.118-.3-.15-.111.032-.25.15-.08.092-.1.25.02.146.1.2m-5.3.95q-.111.02-.25.1-.08.117-.1.25.02.183.1.25.139.13.25.1.185.03.3-.1.105-.067.1-.25.005-.133-.1-.25-.115-.08-.3-.1m-2.25-.5q-.285-.282-.75-.3-.392.018-.7.3-.293.32-.3.75.007.417.3.7.308.305.7.3.443.005.75-.3.318-.283.3-.7.018-.43-.3-.75m.4-1.35q-.12.02-.2.1-.118.117-.15.25.032.183.15.25.08.13.2.1.183.03.25-.1.143-.067.15-.25-.007-.133-.15-.25-.067-.08-.25-.1m3.4.65q-.28.308-.3.7.02.443.3.75.322.294.75.3.442-.006.7-.3.33-.307.3-.75.03-.392-.3-.7-.258-.293-.7-.3-.406.007-.75.3m-1.75.65q.27.014.45-.2.201-.167.2-.45.001-.244-.2-.45-.18-.175-.45-.2-.27.025-.45.2-.2.206-.2.45 0 .283.2.45.18.214.45.2m1.75-5.2q-.146-.005-.25.1-.093.092-.1.25.007.158.1.25.104.105.25.1.158.005.25-.1.118-.092.1-.25.018-.158-.1-.25-.092-.105-.25-.1M81.6 75.7q.343-.259.35-.7-.007-.406-.35-.75-.26-.257-.7-.25-.43-.007-.75.25-.28.344-.3.75.02.441.3.7.32.343.75.35.418-.007.7-.35m13.3-4.75q-.078-.106-.25-.1-.111-.006-.25.1-.093.092-.1.25.007.158.1.25.139.105.25.1.172.005.25-.1.143-.092.15-.25-.007-.158-.15-.25m-1.4-8.6q.001-.27-.2-.45-.167-.2-.45-.2-.244 0-.45.2-.175.18-.2.45.025.258.2.45.206.176.45.15.283.026.45-.15.201-.192.2-.45m.7 2.25q.018-.392-.3-.7-.283-.293-.7-.3-.418.007-.75.3-.27.308-.3.7.03.465.3.75.332.318.75.3.417.018.7-.3.318-.307.3-.75m1.25-2.3q-.293.025-.5.2-.175.193-.2.45.025.27.2.45.207.201.5.2.258.001.45-.2.189-.18.2-.45-.011-.257-.2-.45-.192-.175-.45-.2m.95 2.45q.18.176.45.15.258.026.45-.15.176-.192.15-.45.026-.27-.15-.45-.192-.2-.45-.2-.27 0-.45.2-.2.18-.2.45 0 .258.2.45m1.25-2.35q.13-.092.1-.25.03-.146-.1-.25-.09-.093-.25-.1-.158.007-.25.1-.106.104-.1.25-.006.158.1.25.092.118.25.1.16.018.25-.1M99 63.85q-.092-.093-.25-.1-.16.007-.3.1-.08.117-.1.25.02.17.1.25.14.118.3.1.158.018.25-.1.105-.08.1-.25.005-.133-.1-.25M88.1 69.6q-.204-.2-.5-.2-.245 0-.45.2-.175.18-.2.45.025.258.2.45.205.2.45.2.296 0 .5-.2.176-.192.15-.45.026-.27-.15-.45m.2-1.3q-.092-.118-.25-.15-.158.032-.25.15-.105.08-.1.2-.005.183.1.25.092.143.25.15.158-.007.25-.15.105-.067.1-.25.005-.12-.1-.2m-5.35 4.8q0 .296.2.5.18.176.45.15.27.026.45-.15.201-.204.2-.5.001-.232-.2-.4-.18-.2-.45-.2t-.45.2q-.2.168-.2.4m-1.6-1.2q.307-.283.3-.7.007-.44-.3-.75-.295-.293-.75-.3-.393.007-.7.3-.294.31-.3.75.006.417.3.7.307.318.7.3.455.018.75-.3m0 .7q-.133-.006-.25.1-.093.092-.1.25.007.158.1.25.117.105.25.1.17.005.25-.1.118-.092.1-.25.018-.158-.1-.25-.08-.106-.25-.1m1.3-.9q-.006.16.1.25.092.143.25.15.158-.007.25-.15.105-.09.1-.25.005-.146-.1-.25-.092-.093-.25-.1-.158.007-.25.1-.106.104-.1.25m.6-1.9q-.204-.175-.5-.2-.232.025-.4.2-.2.205-.2.45 0 .283.2.45.168.201.4.2.296.001.5-.2.176-.167.15-.45.026-.245-.15-.45m2.55.65q-.415-.007-.7.25-.318.345-.35.75.032.442.35.7.307.343.7.35.454-.007.75-.35.305-.258.3-.7.005-.405-.3-.75-.296-.257-.75-.25m-.25-3.05q-.43.02-.75.3-.28.345-.3.75.02.442.3.7.32.343.75.35.418-.007.7-.35.33-.258.3-.7.03-.405-.3-.75-.26-.28-.7-.3m-2.65-3.65q-.135.007-.25.1-.105.117-.1.25-.005.17.1.25.115.118.25.1.17.018.25-.1.118-.08.1-.25.018-.133-.1-.25-.08-.093-.25-.1m-1.6-.45q.018-.158-.1-.25-.08-.106-.25-.1-.135-.006-.25.1-.118.092-.15.25.032.146.15.2.115.143.25.15.17-.007.25-.15.118-.054.1-.2m1.05-.65q0 .27.2.45.168.201.4.2.296.001.5-.2.176-.18.15-.45.026-.27-.15-.45-.204-.2-.5-.2-.232 0-.4.2-.2.18-.2.45m7.8 4.5q-.392.007-.7.3-.293.308-.3.7.007.443.3.75.308.318.7.3.478.018.75-.3.33-.285.3-.75.03-.392-.3-.7-.295-.293-.75-.3m.55-2.05q-.268 0-.45.2-.2.168-.2.4 0 .296.2.5.182.176.45.15.283.026.45-.15.201-.204.2-.5.001-.232-.2-.4-.167-.2-.45-.2m-2.5 1.1q-.245.025-.45.2-.175.205-.2.45.025.283.2.45.205.214.45.2.318.014.5-.2.2-.167.2-.45 0-.245-.2-.45-.182-.175-.5-.2m-1.05-2q.032.16.15.25.08.13.2.1.183.03.25-.1.143-.09.15-.25-.007-.158-.15-.25-.067-.106-.25-.1-.12-.006-.2.1-.118.092-.15.25m-.9.6q.33-.283.3-.7.03-.43-.3-.75-.26-.282-.7-.3-.43.018-.75.3-.28.32-.3.75.02.417.3.7.32.318.75.3.418.018.7-.3m2.75-.15q.205.2.45.2.283 0 .45-.2.214-.182.2-.5.014-.245-.2-.45-.167-.175-.45-.2-.245.025-.45.2-.175.205-.2.45.025.318.2.5m2-1.5q-.133-.005-.25.1-.08.092-.1.25.02.146.1.2.117.143.25.15.185-.007.3-.15.105-.054.1-.2.005-.158-.1-.25-.115-.105-.3-.1m7.65-3.65q-.428.018-.75.3-.28.32-.3.75.02.417.3.7.344.305.75.3.441.005.7-.3.33-.283.3-.7.03-.43-.3-.75-.259-.282-.7-.3m-1.05-2.05q-.27.025-.45.2-.2.205-.2.45 0 .283.2.45.18.214.45.2.27.014.45-.2.201-.167.2-.45.001-.245-.2-.45-.18-.175-.45-.2m1.75.45q-.158-.005-.25.1-.105.092-.1.25-.005.158.1.25.092.105.25.1.16.005.25-.1.13-.092.1-.25.03-.158-.1-.25-.09-.105-.25-.1m.85-1.75q.001-.244-.2-.45-.18-.175-.45-.2-.27.025-.45.2-.2.206-.2.45 0 .283.2.45.18.225.45.2.27.025.45-.2.201-.167.2-.45m-4.1 4.65q.03-.417-.3-.7-.27-.318-.7-.35-.418.032-.75.35-.257.283-.25.7-.007.453.25.75.332.282.75.25.43.032.7-.25.33-.32.3-.75m-4.6 1q-.092-.106-.25-.1-.16-.006-.3.1-.08.092-.1.25.02.158.1.25.14.105.3.1.158.005.25-.1.105-.092.1-.25.005-.158-.1-.25m22.9 5.3q-.12.032-.2.15-.118.092-.15.25.032.146.15.2.08.143.2.15.183-.007.25-.15.143-.054.15-.2-.007-.158-.15-.25-.067-.118-.25-.15m-2.5-3.45q-.158-.005-.25.1-.106.092-.1.25-.006.158.1.25.092.105.25.1.158.005.25-.1.105-.092.1-.25.005-.158-.1-.25-.092-.105-.25-.1m-.5-.55q.18.201.45.2.27.001.45-.2.225-.18.2-.45.025-.27-.2-.45-.18-.2-.45-.2t-.45.2q-.2.18-.2.45t.2.45m3 .1q-.204-.175-.5-.2-.244.025-.45.2-.175.207-.2.5.025.258.2.45.206.176.45.15.296.026.5-.15.176-.192.15-.45.026-.293-.15-.5m1.15-.6q-.092-.08-.25-.1-.158.02-.25.1-.106.117-.1.25-.006.183.1.25.092.13.25.1.158.03.25-.1.105-.067.1-.25.005-.133-.1-.25m5.15.55q-.007-.12-.15-.2-.054-.118-.2-.15-.158.032-.25.15-.118.08-.15.2.032.183.15.25.092.13.25.1.146.03.2-.1.143-.067.15-.25m-18.3 1.45q-.006.183.1.25.092.13.25.1.158.03.25-.1.105-.067.1-.25.005-.133-.1-.25-.092-.08-.25-.1-.158.02-.25.1-.106.117-.1.25m-.8 0q-.007-.392-.35-.7-.258-.293-.7-.3-.393.007-.7.3-.295.308-.3.7.005.465.3.75.307.318.7.3.442.018.7-.3.343-.307.35-.75m4.05-1.15q-.232 0-.4.2-.2.18-.2.45 0 .258.2.45.168.176.4.15.318.026.5-.15.2-.192.2-.45 0-.27-.2-.45-.182-.2-.5-.2m-1.8.6q.183.018.25-.1.143-.103.15-.25-.007-.158-.15-.25-.067-.106-.25-.1-.12-.006-.2.1-.118.092-.15.25.032.147.15.25.08.118.2.1m2.75 3.5q-.133.007-.25.1-.093.117-.1.25.007.17.1.25.117.118.25.1.17.018.25-.1.118-.08.1-.25.018-.133-.1-.25-.08-.093-.25-.1m.65-3.1q-.133.02-.25.1-.08.117-.1.25.02.183.1.25.117.13.25.1.183.03.25-.1.13-.067.1-.25.03-.133-.1-.25-.067-.08-.25-.1m3.1-.1q-.007-.417-.35-.7-.282-.305-.7-.3-.417-.005-.7.3-.318.283-.35.7.032.43.35.75.283.282.7.25.44.032.7-.25.343-.32.35-.75m-2.75-8.2q-.118.08-.15.2.032.183.15.25.08.143.2.15.185-.007.3-.15.118-.067.1-.25.018-.12-.1-.2-.115-.118-.3-.15-.12.032-.2.15m-5.5.65q-.283-.305-.7-.3-.418-.005-.75.3-.293.32-.3.75.007.417.3.7.332.318.75.3.417.018.7-.3.318-.283.3-.7.018-.43-.3-.75m1.75.85q.183.03.25-.1.143-.067.15-.25-.007-.133-.15-.25-.067-.08-.25-.1-.12.02-.2.1-.118.117-.15.25.032.183.15.25.08.13.2.1m-.75-2.85q-.2.18-.2.45t.2.45q.18.201.45.2.27.001.45-.2.201-.18.2-.45.001-.27-.2-.45-.18-.2-.45-.2t-.45.2m-.65.75q-.054-.118-.2-.15-.158.032-.25.15-.118.08-.15.2.032.183.15.25.092.143.25.15.146-.007.2-.15.143-.067.15-.25-.007-.12-.15-.2m-.35-2.3q-.283-.282-.7-.3-.44.018-.75.3-.293.32-.3.75.007.417.3.7.332.305.75.3.417.005.7-.3.318-.283.3-.7.018-.43-.3-.75m1.6-.8q-.067-.106-.25-.1-.122-.006-.25.1-.093.092-.1.25.007.158.1.25.128.105.25.1.183.005.25-.1.143-.092.15-.25-.007-.158-.15-.25m2.5-.05q-.272-.257-.75-.25-.392-.007-.7.25-.293.345-.3.75.007.442.3.7.308.33.7.3.455.03.75-.3.307-.258.3-.7.007-.405-.3-.75m-2.35-.95q.418.005.7-.3.33-.296.3-.75.03-.393-.3-.7-.26-.294-.7-.3-.43.006-.75.3-.28.307-.3.7.02.454.3.75.32.305.75.3m3.7.7q-.118.092-.15.25.032.146.15.2.092.143.25.15.146-.007.2-.15.143-.054.15-.2-.007-.158-.15-.25-.054-.118-.2-.15-.158.032-.25.15m-.5-1.9q-.257.025-.45.2-.175.205-.2.45.025.296.2.5.193.176.45.15.27.026.45-.15.201-.204.2-.5.001-.245-.2-.45-.18-.175-.45-.2m10.15 10.9q-.393.005-.7.3-.294.307-.3.7.006.454.3.75.307.305.7.3.455.005.75-.3.307-.296.3-.75.007-.393-.3-.7-.272-.295-.75-.3m2.25.35q-.08.092-.1.25.02.147.1.25.117.118.25.1.183.018.25-.1.13-.103.1-.25.03-.158-.1-.25-.067-.118-.25-.15-.133.032-.25.15m-4.95 0q-.067-.118-.25-.15-.133.032-.25.15-.08.092-.1.25.02.147.1.25.117.118.25.1.183.018.25-.1.13-.103.1-.25.03-.158-.1-.25m1.4-14.45q-.089-.08-.25-.1-.135.02-.25.1-.106.117-.1.25-.006.183.1.25.115.13.25.1.161.03.25-.1.13-.067.1-.25.03-.133-.1-.25m-3.5-2.15q-.146.02-.25.1-.093.14-.1.3.007.158.1.25.104.105.25.1.16.005.25-.1.143-.092.15-.25-.007-.16-.15-.3-.09-.08-.25-.1m0-2.85q-.305.32-.3.75-.005.417.3.7.32.318.75.3.417.018.7-.3.318-.283.3-.7.018-.43-.3-.75-.283-.305-.7-.3-.43-.005-.75.3m-.2-2.25q-.27 0-.45.2-.2.18-.2.45 0 .258.2.45.18.176.45.15.258.026.45-.15.176-.192.15-.45.026-.27-.15-.45-.192-.2-.45-.2m1.55.2q-.135-.005-.25.1-.106.092-.1.25-.006.16.1.25.115.13.25.1.17.03.25-.1.118-.09.1-.25.018-.158-.1-.25-.08-.105-.25-.1m1.5-1.6q.005-.405-.3-.75-.296-.257-.75-.25-.393-.007-.7.25-.294.345-.3.75.006.442.3.7.307.343.7.35.454-.007.75-.35.305-.258.3-.7m1.5.15q-.054-.08-.2-.1-.16.02-.3.1-.08.117-.1.25.02.183.1.25.14.13.3.1.146.03.2-.1.143-.067.15-.25-.007-.133-.15-.25m-9.55 8.7q-.27.296-.3.7.03.465.3.75.332.294.75.3.417-.006.7-.3.318-.307.3-.75.018-.404-.3-.7-.283-.305-.7-.3-.418-.005-.75.3m1.85-1q.143-.08.15-.25-.007-.133-.15-.25-.078-.093-.25-.1-.133.007-.25.1-.093.117-.1.25.007.17.1.25.117.118.25.1.172.018.25-.1m.85-.6q-.2.18-.2.45t.2.45q.18.201.45.2.27.001.45-.2.201-.18.2-.45.001-.27-.2-.45-.18-.2-.45-.2t-.45.2m-4.4 1.85q-.133.007-.25.1-.08.104-.1.25.02.16.1.25.117.13.25.1.183.03.25-.1.13-.09.1-.25.03-.146-.1-.25-.067-.093-.25-.1m.7-2q-.006.158.1.25.114.105.25.1.16.005.25-.1.13-.092.1-.25.03-.158-.1-.25-.09-.105-.25-.1-.136-.005-.25.1-.106.092-.1.25m4.1-2.65q-.283-.28-.7-.3-.43.02-.75.3-.305.32-.3.75-.005.44.3.7.32.33.75.3.417.03.7-.3.318-.282.3-.7.018-.43-.3-.75m.5-.6q.117.118.25.1.183.018.25-.1.13-.103.1-.25.03-.158-.1-.25-.067-.106-.25-.1-.133-.006-.25.1-.08.092-.1.25.02.147.1.25m7.6-7q-.28.283-.3.7.02.418.3.7.32.32.75.3.44.02.7-.3.32-.26.3-.7.02-.417-.3-.7-.282-.318-.7-.35-.43.032-.75.35m-2.35 1.15q.025.306.2.45.205.225.45.2.283.025.45-.2.214-.144.2-.45.014-.244-.2-.45-.167-.175-.45-.2-.245.025-.45.2-.175.206-.2.45m-.9-.6q-.115-.118-.3-.15-.111.032-.25.15-.08.092-.1.25.02.146.1.2.139.143.25.15.185-.007.3-.15.105-.054.1-.2.005-.158-.1-.25m1.15-1.15q-.133-.006-.25.1-.08.115-.1.25.02.183.1.25.117.13.25.1.172.03.25-.1.143-.067.15-.25-.007-.135-.15-.25-.078-.106-.25-.1m-.15-1.2q.025.258.2.45.194.189.45.2.296-.011.5-.2.176-.192.15-.45.026-.27-.15-.45-.204-.2-.5-.2-.256 0-.45.2-.175.18-.2.45m-1.35-3.4q.032.172.15.25.092.143.25.15.147-.007.25-.15.118-.078.1-.25.018-.133-.1-.25-.103-.08-.25-.1-.158.02-.25.1-.118.117-.15.25m.6-1.1q.201-.167.2-.45.001-.244-.2-.45-.167-.175-.45-.2-.245.025-.45.2-.175.206-.2.45.025.283.2.45.205.201.45.2.283.001.45-.2m.1-3.4q.02-.415-.3-.7-.282-.305-.7-.3-.418-.005-.75.3-.27.285-.3.7.03.454.3.75.332.305.75.3.418.005.7-.3.32-.296.3-.75m-1.3 1.9q.118-.092.1-.25.018-.158-.1-.25-.08-.105-.25-.1-.133-.005-.25.1-.093.092-.1.25.007.158.1.25.117.105.25.1.17.005.25-.1m4.6 2.95q-.175.205-.2.45.025.305.2.45.23.225.5.2.27.025.45-.2.201-.145.2-.45.001-.245-.2-.45-.18-.175-.45-.2-.27.025-.5.2m-1.45-.2q-.167-.175-.45-.2-.244.025-.45.2-.175.206-.2.45.025.283.2.45.206.201.45.2.283.001.45-.2.214-.167.2-.45.014-.244-.2-.45m.9-1q-.133.007-.25.1-.08.104-.1.25.02.158.1.25.117.118.25.1.183.018.25-.1.13-.092.1-.25.03-.146-.1-.25-.067-.093-.25-.1m.6-1.85q-.245 0-.45.2-.175.18-.2.45.025.27.2.45.205.201.45.2.296.001.5-.2.176-.18.15-.45.026-.27-.15-.45-.204-.2-.5-.2m1.3-.3q-.16-.006-.3.1-.08.092-.1.25.02.158.1.25.14.105.3.1.146.005.2-.1.143-.092.15-.25-.007-.158-.15-.25-.054-.106-.2-.1m-36 10.45q-.054-.08-.2-.1-.158.02-.25.1-.118.14-.15.3.032.158.15.25.092.105.25.1.146.005.2-.1.143-.092.15-.25-.007-.16-.15-.3m2.65.15q.026-.244-.15-.45-.204-.175-.5-.2-.232.025-.4.2-.2.206-.2.45 0 .283.2.45.168.201.4.2.296.001.5-.2.176-.167.15-.45m1.3-.85q-.093.117-.1.25.007.17.1.25.104.118.25.1.158.018.25-.1.118-.08.1-.25.018-.133-.1-.25-.092-.093-.25-.1-.146.007-.25.1M87 35.45q-.133.02-.25.1-.08.14-.1.3.02.146.1.2.117.143.25.15.183-.007.25-.15.13-.054.1-.2.03-.16-.1-.3-.067-.08-.25-.1m1.1-1.35q-.295.344-.3.75.005.442.3.7.307.33.7.3.442.03.7-.3.343-.258.35-.7-.007-.406-.35-.75-.258-.257-.7-.25-.393-.007-.7.25m-.1-.75q.296.026.5-.15.176-.204.15-.5.026-.232-.15-.4-.204-.2-.5-.2-.244 0-.45.2-.175.168-.2.4.025.296.2.5.206.176.45.15m-5.15 2.3q.02.454.3.75.344.305.75.3.441.005.7-.3.343-.296.35-.75-.007-.393-.35-.7-.259-.282-.7-.3-.428.018-.75.3-.28.307-.3.7m-.7.85q-.12.007-.2.1-.118.117-.15.25.032.17.15.25.08.118.2.1.183.018.25-.1.143-.08.15-.25-.007-.133-.15-.25-.067-.093-.25-.1m-.55-.95q.176-.192.15-.45.026-.27-.15-.45-.192-.2-.45-.2-.27 0-.45.2-.2.18-.2.45 0 .258.2.45.18.176.45.15.258.026.45-.15m.35-3.15q-.007-.417-.35-.7-.282-.318-.7-.35-.43.032-.75.35-.28.283-.3.7.02.418.3.7.32.32.75.3.44.02.7-.3.343-.282.35-.7m2.05-.7q.032.146.15.2.08.143.2.15.183-.007.25-.15.143-.054.15-.2-.007-.158-.15-.25-.067-.118-.25-.15-.12.032-.2.15-.118.092-.15.25m-2.05-5.3q-.007-.418-.35-.75-.26-.293-.7-.3-.43.007-.75.3-.28.332-.3.75.02.43.3.7.32.33.75.3.418.03.7-.3.343-.27.35-.7m3.2-.2q-.282-.28-.7-.3-.417.02-.7.3-.318.308-.35.7.032.455.35.75.283.307.7.3.44.007.7-.3.32-.272.3-.75.02-.392-.3-.7m2.1 4q-.005.441.3.7.296.343.7.35.443-.007.75-.35.318-.259.3-.7.018-.393-.3-.7-.285-.294-.75-.3-.404.006-.7.3-.305.307-.3.7m-.7-1.65q.118-.067.1-.25.018-.122-.1-.25-.103-.093-.25-.1-.158.007-.25.1-.105.128-.1.25-.005.183.1.25.092.143.25.15.147-.007.25-.15m4.8-14.5q-.133.007-.25.1-.08.104-.1.25.02.158.1.25.117.118.25.1.183.018.25-.1.13-.092.1-.25.03-.146-.1-.25-.067-.093-.25-.1m-3.25 7.8q-.158.02-.25.1-.118.117-.15.25.032.183.15.25.092.13.25.1.146.03.2-.1.143-.067.15-.25-.007-.133-.15-.25-.054-.08-.2-.1m-5.2 2.4q-.135.02-.25.1-.105.117-.1.25-.005.183.1.25.115.13.25.1.17.03.25-.1.118-.067.1-.25.018-.133-.1-.25-.08-.08-.25-.1m-1.6-.85q-.175.23-.2.5.025.258.2.45.205.189.45.2.283-.011.45-.2.201-.192.2-.45.001-.27-.2-.5-.167-.175-.45-.2-.245.025-.45.2m.1-1.05q.032.158.15.25.08.118.2.1.183.018.25-.1.143-.092.15-.25-.007-.146-.15-.25-.067-.093-.25-.1-.12.007-.2.1-.118.104-.15.25m.85-2.1q-.106.117-.1.25-.006.183.1.25.092.13.25.1.158.03.25-.1.105-.067.1-.25.005-.133-.1-.25-.092-.08-.25-.1-.158.02-.25.1m2.65-3.75q.018-.158-.1-.25-.092-.106-.25-.1-.146-.006-.25.1-.093.092-.1.25.007.158.1.25.104.105.25.1.158.005.25-.1.118-.092.1-.25m-2.55 1.25q-.293.307-.3.7.007.441.3.7.332.343.75.35.417-.007.7-.35.318-.259.3-.7.018-.393-.3-.7-.283-.294-.7-.3-.44.006-.75.3m3.15-3.15q-.067-.105-.25-.1-.133-.005-.25.1-.08.092-.1.25.02.158.1.25.117.105.25.1.183.005.25-.1.13-.092.1-.25.03-.158-.1-.25m-1.35.3q-.167-.2-.45-.2-.244 0-.45.2-.175.18-.2.45.025.258.2.45.206.189.45.2.283-.011.45-.2.201-.192.2-.45.001-.27-.2-.45m2.75-1.55q-.406-.005-.75.3-.257.296-.25.7-.007.465.25.75.344.305.75.3.441.005.7-.3.33-.307.3-.75.03-.404-.3-.7-.259-.305-.7-.3m2.6-2.9q-.158.032-.25.15-.118.103-.15.25.032.158.15.25.092.118.25.1.146.018.2-.1.143-.092.15-.25-.007-.147-.15-.25-.054-.118-.2-.15m-3.05.55q.308.307.7.3.478.007.75-.3.307-.272.3-.75.007-.393-.3-.7-.272-.294-.75-.3-.392.006-.7.3-.293.307-.3.7.007.455.3.75m1.7 1.1q-.146.02-.25.1-.093.14-.1.3.007.158.1.25.104.105.25.1.158.005.25-.1.118-.092.1-.25.018-.16-.1-.3-.092-.08-.25-.1m1.55-3.15q-.158-.005-.25.1-.118.092-.15.25.032.158.15.25.092.105.25.1.146.005.2-.1.143-.092.15-.25-.007-.158-.15-.25-.054-.105-.2-.1m-.65-1.55q-.27.025-.45.2-.2.193-.2.45 0 .27.2.45.18.201.45.2.293.001.45-.2.225-.18.2-.45.025-.257-.2-.45-.157-.175-.45-.2m-3.45 4.8q-.18-.175-.45-.2-.28.025-.45.2-.2.206-.2.45 0 .296.2.5.17.176.45.15.27.026.45-.15.201-.204.2-.5.001-.244-.2-.45m4.55-7.6q-.392.018-.7.3-.293.32-.3.75.007.416.3.7.308.305.7.3.455.005.75-.3.33-.284.3-.7.03-.43-.3-.75-.272-.282-.75-.3m7.8 5.3q-.133.02-.25.1-.08.14-.1.3.02.136.1.25.117.105.25.1.183.005.25-.1.13-.114.1-.25.03-.16-.1-.3-.067-.08-.25-.1M92.9 8q-.158.02-.25.1-.118.139-.15.25.032.172.15.25.092.143.25.15.146-.007.2-.15.143-.078.15-.25-.007-.111-.15-.25-.054-.08-.2-.1m-.65 1q-.27-.293-.7-.3-.418.007-.75.3-.27.308-.3.7.03.465.3.75.332.318.75.3.43.018.7-.3.33-.307.3-.75.03-.392-.3-.7m-.7-1.7q-.067-.105-.25-.1-.12-.005-.2.1-.118.092-.15.25.032.16.15.25.08.13.2.1.183.03.25-.1.143-.09.15-.25-.007-.158-.15-.25m1.05-.8q.018-.133-.1-.25-.08-.08-.25-.1-.133.02-.25.1-.08.117-.1.25.02.183.1.25.117.13.25.1.17.03.25-.1.118-.067.1-.25m1.65.9q.2-.204.2-.5 0-.244-.2-.45-.182-.175-.5-.2-.245.025-.45.2-.175.206-.2.45.025.296.2.5.205.176.45.15.318.026.5-.15m1.85-3.6q-.307-.293-.75-.3-.392.007-.7.3-.293.332-.3.75.007.417.3.7.308.318.7.3.443.018.75-.3.294-.283.3-.7-.006-.44-.3-.75m-4.1.75q0 .27.2.45.182.201.45.2.283.001.45-.2.201-.18.2-.45.001-.27-.2-.45-.167-.2-.45-.2-.268 0-.45.2-.2.18-.2.45m7.55.65q-.28.283-.3.7.02.43.3.75.308.282.7.25.478.032.75-.25.33-.32.3-.75.03-.417-.3-.7-.295-.318-.75-.35-.392.032-.7.35m.7-1.4q.183-.007.25-.15.143-.054.15-.2-.007-.158-.15-.25-.067-.118-.25-.15-.12.032-.2.15-.118.092-.15.25.032.146.15.2.08.143.2.15M97.3 5.55q-.146-.006-.25.1-.093.092-.1.25.007.16.1.25.104.13.25.1.158.03.25-.1.118-.09.1-.25.018-.158-.1-.25-.092-.106-.25-.1m1-1.65q-.257 0-.45.2-.175.18-.2.45.025.27.2.45.193.201.45.2.27.001.45-.2.201-.18.2-.45.001-.27-.2-.45-.18-.2-.45-.2M97 2.85q-.158.032-.25.15-.106.092-.1.25-.006.146.1.2.092.143.25.15.158-.007.25-.15.105-.054.1-.2.005-.158-.1-.25-.092-.118-.25-.15m2.4-1.05q.018-.406-.3-.75-.285-.257-.75-.25-.392-.007-.7.25-.293.344-.3.75.007.442.3.7.308.343.7.35.443-.007.75-.35.318-.258.3-.7m20.2 22.65q-.124.02-.25.1-.093.117-.1.25.007.183.1.25.126.13.25.1.16.03.25-.1.13-.067.1-.25.03-.133-.1-.25-.09-.08-.25-.1m1.4-2.95q-.103-.118-.25-.15-.158.032-.25.15-.118.092-.15.25.032.147.15.25.092.118.25.1.147.018.25-.1.118-.103.1-.25.018-.158-.1-.25m-8.35 2.25q.14.105.3.1.136.005.25-.1.105-.092.1-.25.005-.158-.1-.25-.114-.106-.25-.1-.16-.006-.3.1-.08.092-.1.25.02.158.1.25m1.1-2.45q-.27 0-.5.2-.175.18-.2.45.025.258.2.45.23.176.5.15.258.026.45-.15.189-.192.2-.45-.011-.27-.2-.45-.192-.2-.45-.2m-.8-1.65q.001-.244-.2-.45-.18-.175-.45-.2-.27.025-.45.2-.2.206-.2.45 0 .296.2.5.18.176.45.15.27.026.45-.15.201-.204.2-.5m.85-4.05q-.232.025-.4.2-.2.206-.2.45 0 .296.2.5.168.176.4.15.296.026.5-.15.176-.204.15-.5.026-.244-.15-.45-.204-.175-.5-.2m0 2.6q-.103-.105-.25-.1-.158-.005-.25.1-.105.092-.1.25-.005.158.1.25.092.105.25.1.147.005.25-.1.118-.092.1-.25.018-.158-.1-.25m-.65-3.3q.158.005.25-.1.105-.092.1-.25.005-.158-.1-.25-.092-.105-.25-.1-.158-.005-.25.1-.106.092-.1.25-.006.158.1.25.092.105.25.1m1.6-.6q.465.018.75-.3.305-.285.3-.75.005-.392-.3-.7-.307-.293-.75-.3-.404.007-.7.3-.305.308-.3.7-.005.443.3.75.296.318.7.3m5.15 3.15q-.133.02-.25.1-.08.117-.1.25.02.185.1.3.117.105.25.1.172.005.25-.1.143-.115.15-.3-.007-.133-.15-.25-.078-.08-.25-.1m-2.2-.95q-.133.02-.25.1-.08.117-.1.25.02.183.1.25.117.13.25.1.183.03.25-.1.13-.067.1-.25.03-.133-.1-.25-.067-.08-.25-.1m2.4-1.7q-.118.092-.15.25.032.16.15.25.092.13.25.1.146.03.2-.1.143-.09.15-.25-.007-.158-.15-.25-.054-.106-.2-.1-.158-.006-.25.1m.05-2.05q-.18-.2-.45-.2t-.45.2q-.2.18-.2.45 0 .258.2.45.18.176.45.15.27.026.45-.15.201-.192.2-.45.001-.27-.2-.45M105.6 9.2q-.067-.093-.25-.1-.133.007-.25.1-.08.126-.1.25.02.16.1.25.117.13.25.1.183.03.25-.1.13-.09.1-.25.03-.124-.1-.25m-4-5.4q-.133-.005-.25.1-.08.115-.1.25.02.183.1.25.117.13.25.1.17.03.25-.1.118-.067.1-.25.018-.135-.1-.25-.08-.105-.25-.1m1.95 0q-.27 0-.45.2-.2.192-.2.45 0 .27.2.45.18.201.45.2.27.001.45-.2.201-.18.2-.45.001-.258-.2-.45-.18-.2-.45-.2m-1.9-.75q.189-.192.2-.45-.011-.27-.2-.45-.192-.2-.45-.2-.27 0-.45.2-.2.18-.2.45 0 .258.2.45.18.189.45.2.258-.011.45-.2m2.65-.8q.294-.285.3-.75-.006-.392-.3-.7-.307-.293-.75-.3-.404.007-.7.3-.305.308-.3.7-.005.443.3.75.296.318.7.3.443.018.75-.3m.85.55q-.09-.118-.25-.15-.158.032-.25.15-.106.092-.1.25-.006.146.1.2.092.143.25.15.16-.007.25-.15.13-.054.1-.2.03-.158-.1-.25m5.15 1.85q-.08.08-.1.2.02.183.1.25.117.143.25.15.183-.007.25-.15.13-.067.1-.25.03-.12-.1-.2-.067-.118-.25-.15-.133.032-.25.15m-1.55-.35q-.405.032-.75.35-.257.285-.25.7-.007.442.25.7.345.343.75.35.442-.007.7-.35.343-.258.35-.7-.007-.393-.35-.7-.258-.318-.7-.35m-.55-1.65q-.135.032-.25.15-.118.092-.15.25.032.146.15.2.115.143.25.15.17-.007.25-.15.118-.054.1-.2.018-.158-.1-.25-.08-.118-.25-.15m-1.1.3q-.204-.175-.5-.2-.232.025-.4.2-.2.205-.2.45 0 .283.2.45.168.201.4.2.296.001.5-.2.176-.167.15-.45.026-.245-.15-.45m-.55-1.7q.27.026.45-.15.201-.192.2-.45.001-.27-.2-.45-.18-.2-.45-.2-.293 0-.5.2-.175.18-.2.45.025.258.2.45.207.176.5.15m1.85 0q-.133-.006-.25.1-.093.092-.1.25.007.158.1.25.117.105.25.1.17.005.25-.1.118-.092.1-.25.018-.158-.1-.25-.08-.106-.25-.1m1.25 1.3q-.175.206-.2.45.025.283.2.45.207.201.5.2.27.001.45-.2.201-.167.2-.45.001-.244-.2-.45-.18-.175-.45-.2-.293.025-.5.2m8.95 6.95q-.418.02-.75.3-.28.32-.3.75.02.44.3.7.332.343.75.35.43-.007.7-.35.33-.282.3-.7.03-.43-.3-.75-.27-.28-.7-.3m.15-1.3q-.114-.08-.25-.1-.16.02-.3.1-.08.117-.1.25.02.183.1.25.14.13.3.1.136.03.25-.1.105-.067.1-.25.005-.133-.1-.25m2.25.95q-.103-.093-.25-.1-.158.007-.25.1-.118.117-.15.25.032.17.15.25.092.118.25.1.147.018.25-.1.118-.08.1-.25.018-.133-.1-.25m-.45-1.55q-.158.02-.25.1-.118.117-.15.25.032.183.15.25.092.13.25.1.146.03.2-.1.143-.067.15-.25-.007-.133-.15-.25-.054-.08-.2-.1m-4.8 3.15q.193.225.45.2.27.025.45-.2.201-.157.2-.45.001-.27-.2-.45-.18-.2-.45-.2-.257 0-.45.2-.175.18-.2.45.025.293.2.45m0-2.8q.025.27.2.45.193.201.45.2.27.001.45-.2.201-.18.2-.45.001-.27-.2-.45-.18-.2-.45-.2-.257 0-.45.2-.175.18-.2.45m-.8-1.95q-.296-.293-.75-.3-.393.007-.7.3-.294.308-.3.7.006.465.3.75.307.294.7.3.454-.006.75-.3.305-.307.3-.75.005-.392-.3-.7m1.1-2.1q-.192-.2-.45-.2-.27 0-.45.2-.2.18-.2.45t.2.45q.18.201.45.2.258.001.45-.2.176-.18.15-.45.026-.27-.15-.45m-3.45 1.25q.026-.245-.15-.45-.192-.175-.45-.2-.27.025-.45.2-.2.205-.2.45 0 .296.2.5.18.176.45.15.258.026.45-.15.176-.204.15-.5m1.15-.85q-.135.032-.25.15-.106.08-.1.2-.006.183.1.25.115.143.25.15.17-.007.25-.15.118-.067.1-.25.018-.12-.1-.2-.08-.118-.25-.15m-1.9-2.4q-.282.297-.3.75.018.416.3.7.32.305.75.3.417.005.7-.3.305-.284.3-.7.005-.43-.3-.75-.283-.305-.7-.3-.43-.005-.75.3m7.3 3.55q-.43-.007-.75.25-.28.332-.3.75.02.43.3.7.32.33.75.3.418.03.7-.3.32-.27.3-.7.02-.418-.3-.75-.26-.257-.7-.25m-2.2.7q-.054-.093-.2-.1-.158.007-.25.1-.118.14-.15.3.032.124.15.2.092.143.25.15.146-.007.2-.15.143-.076.15-.2-.007-.16-.15-.3M158.9 44.8q.158.03.25-.1.105-.089.1-.25.005-.122-.1-.25-.092-.093-.25-.1-.158.007-.25.1-.105.128-.1.25-.005.161.1.25.092.13.25.1m.85 1.5q.03-.392-.3-.7-.282-.293-.7-.3-.43.007-.75.3-.28.308-.3.7.02.443.3.75.32.318.75.3.44.018.7-.3.33-.285.3-.75m1.3-2q-.158.032-.25.15-.105.08-.1.2-.005.183.1.25.092.13.25.1.158.03.25-.1.105-.067.1-.25.005-.12-.1-.2-.092-.118-.25-.15m-6.3 4.05q-.294.283-.3.7.006.453.3.75.307.305.7.3.442.005.7-.3.343-.32.35-.75-.007-.417-.35-.7-.258-.318-.7-.35-.393.032-.7.35m.25-1.75q-.067-.118-.25-.15-.12.032-.2.15-.118.08-.15.2.032.183.15.25.08.143.2.15.183-.007.25-.15.143-.067.15-.25-.007-.12-.15-.2m1.55.75q.032.158.15.25.092.105.25.1.146.005.2-.1.143-.092.15-.25-.007-.158-.15-.25-.054-.105-.2-.1-.158-.005-.25.1-.118.092-.15.25m-2.7.35q-.158.007-.25.1-.106.128-.1.25-.006.183.1.25.092.13.25.1.158.03.25-.1.105-.067.1-.25.005-.122-.1-.25-.092-.093-.25-.1m2.25-2.9q-.27.025-.45.2-.2.206-.2.45 0 .296.2.5.18.176.45.15.27.026.45-.15.201-.204.2-.5.001-.244-.2-.45-.18-.175-.45-.2m5-2.15q-.204-.2-.5-.2-.244 0-.45.2-.175.18-.2.45.025.27.2.45.206.225.45.2.296.025.5-.2.176-.18.15-.45.026-.27-.15-.45m-10.2 5.85q.006.441.3.7.307.343.7.35.441-.007.7-.35.343-.259.35-.7-.007-.393-.35-.7-.259-.294-.7-.3-.393.006-.7.3-.294.307-.3.7m-1.4 0q-.245.025-.45.2-.175.207-.2.5.025.258.2.45.205.176.45.15.296.026.5-.15.176-.192.15-.45.026-.293-.15-.5-.204-.175-.5-.2m-5.6-18.45q.025.28.2.45.207.2.5.2.258 0 .45-.2.176-.17.15-.45.026-.27-.15-.45-.192-.2-.45-.2-.293 0-.5.2-.175.18-.2.45m-.9-.95q-.092-.093-.25-.1-.158.007-.25.1-.105.104-.1.25-.005.158.1.25.092.118.25.1.158.018.25-.1.105-.092.1-.25.005-.146-.1-.25m4.45.45q.318-.26.3-.7.018-.43-.3-.75-.307-.28-.75-.3-.392.02-.7.3-.293.32-.3.75.007.418.3.7.308.343.7.35.465-.007.75-.35m-.55-2.65q.118-.054.1-.2.018-.16-.1-.3-.092-.08-.25-.1-.146.02-.25.1-.093.14-.1.3.007.146.1.2.104.143.25.15.158-.007.25-.15m1.15.45q-.105.092-.1.25-.005.158.1.25.092.105.25.1.158.005.25-.1.105-.092.1-.25.005-.158-.1-.25-.092-.105-.25-.1-.158-.005-.25.1m-14.45 21.7q-.158.007-.25.1-.105.104-.1.25-.005.158.1.25.092.118.25.1.158.018.25-.1.105-.092.1-.25.005-.146-.1-.25-.092-.093-.25-.1m-2.4-1.1q.02.443.3.75.32.294.75.3.44-.006.7-.3.343-.307.35-.75-.007-.404-.35-.7-.282-.305-.7-.3-.43-.005-.75.3-.28.296-.3.7m-1.05.9q-.106.092-.1.25-.006.158.1.25.115.105.25.1.183.005.25-.1.13-.092.1-.25.03-.158-.1-.25-.067-.105-.25-.1-.135-.005-.25.1m-2.45-2.15q-.293.307-.3.7.007.454.3.75.308.305.7.3.443.005.75-.3.294-.296.3-.75-.006-.415-.3-.7-.307-.305-.75-.3-.392-.005-.7.3m1.55-.7q.283.014.45-.2.201-.167.2-.45.001-.245-.2-.45-.167-.175-.45-.2-.245.025-.45.2-.175.205-.2.45.025.283.2.45.205.214.45.2m1.35.25q-.133.032-.25.15-.08.08-.1.2.02.183.1.25.117.143.25.15.183-.007.25-.15.13-.067.1-.25.03-.12-.1-.2-.067-.118-.25-.15m-6.75-3.5q-.175.205-.2.45.025.283.2.45.206.201.45.2.305.001.45-.2.225-.167.2-.45.025-.245-.2-.45-.145-.175-.45-.2-.244.025-.45.2m-.35-2.9q-.405-.005-.75.3-.257.283-.25.7-.007.453.25.75.345.305.75.3.442.005.7-.3.343-.32.35-.75-.007-.417-.35-.7-.258-.305-.7-.3m-1.7-2.15q.176-.17.15-.45.026-.27-.15-.45-.192-.2-.45-.2-.27 0-.45.2-.2.18-.2.45 0 .28.2.45.18.2.45.2.258 0 .45-.2m-.2 2.25q.176-.18.15-.45.026-.257-.15-.45-.192-.175-.45-.2-.27.025-.45.2-.2.193-.2.45 0 .27.2.45.18.201.45.2.258.001.45-.2m6.15 3.2q-.258-.295-.7-.3-.405.005-.75.3-.257.307-.25.7-.007.454.25.75.345.305.75.3.442.005.7-.3.343-.296.35-.75-.007-.393-.35-.7M125.5 30.1q-.12-.005-.2.1-.118.115-.15.25.032.148.15.25.08.118.2.1.183.018.25-.1.143-.102.15-.25-.007-.135-.15-.25-.067-.105-.25-.1m-3.9-3.4q.176-.18.15-.45.026-.27-.15-.45-.192-.2-.45-.2-.27 0-.45.2-.2.18-.2.45t.2.45q.18.201.45.2.258.001.45-.2m19.55 1.15q-.2.205-.2.45 0 .283.2.45.18.201.45.2.258.001.45-.2.189-.167.2-.45-.011-.245-.2-.45-.192-.175-.45-.2-.27.025-.45.2m.4-1.45q-.093.14-.1.3.007.146.1.2.139.143.25.15.172-.007.25-.15.143-.054.15-.2-.007-.16-.15-.3-.078-.08-.25-.1-.111.02-.25.1m-1.45.85q.14.105.3.1.158.005.25-.1.105-.115.1-.3.005-.111-.1-.25-.092-.08-.25-.1-.16.02-.3.1-.08.139-.1.25.02.185.1.3m1.6-2.95q-.282-.293-.7-.3-.43.007-.75.3-.282.308-.3.7.018.465.3.75.32.294.75.3.44-.006.7-.3.32-.285.3-.75.02-.392-.3-.7m-.15-1.45q.018-.133-.1-.25-.08-.08-.25-.1-.133.02-.25.1-.093.117-.1.25.007.183.1.25.117.13.25.1.17.03.25-.1.118-.067.1-.25m-.8-.8q.005-.158-.1-.25-.092-.106-.25-.1-.16-.006-.3.1-.08.092-.1.25.02.158.1.25.14.105.3.1.158.005.25-.1.105-.092.1-.25m.8-9.2q-.09-.106-.25-.1-.158-.006-.25.1-.105.114-.1.25-.005.16.1.25.092.13.25.1.16.03.25-.1.13-.09.1-.25.03-.136-.1-.25m-19.5 11.5q.305-.258.3-.7.005-.393-.3-.7-.285-.318-.75-.35-.404.032-.7.35-.305.307-.3.7-.005.442.3.7.296.343.7.35.443-.007.75-.35m-.35-3.6q.201-.18.2-.45.001-.293-.2-.5-.18-.175-.45-.2-.293.025-.5.2-.175.207-.2.5.025.27.2.45.207.201.5.2.27.001.45-.2m.15-2.15q-.133.007-.25.1-.08.117-.1.25.02.172.1.25.117.143.25.15.185-.007.3-.15.105-.078.1-.25.005-.133-.1-.25-.115-.093-.3-.1m-.25-.75q.43.007.7-.3.33-.295.3-.75.03-.392-.3-.7-.27-.293-.7-.3-.418.007-.75.3-.27.308-.3.7.03.478.3.75.332.307.75.3m.1-3.4q.201-.18.2-.45.001-.257-.2-.45-.18-.175-.45-.2-.293.025-.5.2-.175.193-.2.45.025.27.2.45.207.201.5.2.27.001.45-.2m7.2-6.9q.018-.418-.3-.75-.283-.27-.7-.3-.453.03-.75.3-.305.332-.3.75-.005.418.3.7.297.32.75.3.417.02.7-.3.318-.282.3-.7m2.35-.75q.001-.245-.2-.45-.18-.175-.45-.2-.27.025-.45.2-.2.205-.2.45 0 .283.2.45.18.201.45.2.27.001.45-.2.201-.167.2-.45m-4.75 5.3q-.08.092-.1.25.02.158.1.25.117.105.25.1.183.005.25-.1.13-.092.1-.25.03-.158-.1-.25-.067-.106-.25-.1-.133-.006-.25.1m-2.55-4.75q-.284-.293-.7-.3-.418.007-.75.3-.293.332-.3.75.007.429.3.7.332.33.75.3.416.03.7-.3.318-.271.3-.7.018-.418-.3-.75m1.4.05q.183.018.25-.1.13-.115.1-.3.03-.12-.1-.2-.067-.118-.25-.15-.133.032-.25.15-.08.08-.1.2.02.185.1.3.117.118.25.1m.95-2.9q.147.03.25-.1.118-.067.1-.25.018-.135-.1-.25-.103-.105-.25-.1-.158-.005-.25.1-.118.115-.15.25.032.183.15.25.092.13.25.1m-2.4-.15q-.318.308-.35.7.032.455.35.75.283.33.7.3.418.03.7-.3.32-.272.3-.75.02-.392-.3-.7-.282-.293-.7-.3-.417.007-.7.3m-1.35 1.1q-.232 0-.4.2-.2.18-.2.45t.2.45q.168.201.4.2.296.001.5-.2.176-.18.15-.45.026-.27-.15-.45-.204-.2-.5-.2m6.35-.25q.02.158.1.25.14.105.3.1.146.005.2-.1.143-.092.15-.25-.007-.158-.15-.25-.054-.106-.2-.1-.16-.006-.3.1-.08.092-.1.25m-1.95.85q-.08-.08-.25-.1-.133.02-.25.1-.093.117-.1.25.007.183.1.25.117.13.25.1.17.03.25-.1.118-.067.1-.25.018-.133-.1-.25m1.5-1.5q.026-.27-.15-.45-.204-.2-.5-.2-.244 0-.45.2-.175.18-.2.45.025.27.2.45.206.201.45.2.296.001.5-.2.176-.18.15-.45m12.45 6.35q-.307-.28-.75-.3-.404.02-.7.3-.305.308-.3.7-.005.455.3.75.296.33.7.3.443.03.75-.3.294-.272.3-.75-.006-.392-.3-.7m-2.25-1.05q-.158.032-.25.15-.118.08-.15.2.032.183.15.25.092.143.25.15.146-.007.2-.15.143-.067.15-.25-.007-.12-.15-.2-.054-.118-.2-.15m-1.4-1.2q0 .293.2.45.192.225.45.2.27.025.45-.2.201-.157.2-.45.001-.257-.2-.45-.18-.175-.45-.2-.258.025-.45.2-.2.193-.2.45m2.7.3q-.133-.005-.25.1-.08.092-.1.25.02.158.1.25.117.105.25.1.183.005.25-.1.13-.092.1-.25.03-.158-.1-.25-.067-.105-.25-.1m-7.5-1.55q-.133.02-.25.1-.093.117-.1.25.007.183.1.25.117.13.25.1.17.03.25-.1.118-.067.1-.25.018-.133-.1-.25-.08-.08-.25-.1m4.2 1.4q-.12.032-.2.15-.118.115-.15.25.032.149.15.25.08.118.2.1.183.018.25-.1.143-.101.15-.25-.007-.135-.15-.25-.067-.118-.25-.15m-1.7-2q-.392-.005-.7.3-.293.296-.3.7.007.443.3.75.308.305.7.3.465.005.75-.3.318-.285.3-.75.018-.404-.3-.7-.307-.305-.75-.3m-.8-1.35q-.092-.105-.25-.1-.146-.005-.25.1-.093.092-.1.25.007.158.1.25.104.105.25.1.158.005.25-.1.118-.092.1-.25.018-.158-.1-.25m-2 .1q.318-.307.3-.75.018-.406-.3-.75-.283-.257-.7-.25-.453-.007-.75.25-.305.344-.3.75-.005.443.3.75.297.294.75.3.417-.006.7-.3m.4.3q-.133.007-.25.1-.08.117-.1.25.02.17.1.25.117.118.25.1.183.018.25-.1.13-.08.1-.25.03-.133-.1-.25-.067-.093-.25-.1m4.5.3q-.092-.093-.25-.1-.16.007-.3.1-.08.14-.1.3.02.124.1.2.14.143.3.15.158-.007.25-.15.105-.076.1-.2.005-.16-.1-.3M156 15.7q-.147-.006-.25.1-.118.092-.15.25.032.158.15.25.103.105.25.1.136.005.25-.1.118-.092.1-.25.018-.158-.1-.25-.114-.106-.25-.1m-8.2 8.55q-.404.02-.7.3-.305.32-.3.75-.005.418.3.7.296.33.7.3.465.03.75-.3.305-.26.3-.7.005-.43-.3-.75-.307-.28-.75-.3m.85-1.2q-.08-.105-.25-.1-.133-.005-.25.1-.093.092-.1.25.007.158.1.25.117.105.25.1.17.005.25-.1.118-.092.1-.25.018-.158-.1-.25m-2.15-1.35q-.2.18-.2.45 0 .258.2.45.18.176.45.15.27.026.45-.15.201-.192.2-.45.001-.27-.2-.45-.18-.2-.45-.2t-.45.2m-2.6-.15q-.307-.28-.75-.3-.404.02-.7.3-.305.32-.3.75-.005.418.3.7.296.32.7.3.465.02.75-.3.318-.282.3-.7.018-.43-.3-.75m-1.55-1.5q-.18-.2-.45-.2t-.45.2q-.2.18-.2.45 0 .258.2.45.18.189.45.2.27-.011.45-.2.201-.192.2-.45.001-.27-.2-.45m1.25 0q.13-.115.1-.3.03-.12-.1-.2-.067-.118-.25-.15-.133.032-.25.15-.08.08-.1.2.02.185.1.3.117.118.25.1.183.018.25-.1m1.1-1.15q-.158.02-.25.1-.106.117-.1.25-.006.183.1.25.092.13.25.1.158.03.25-.1.105-.067.1-.25.005-.133-.1-.25-.092-.08-.25-.1m1.85.7q-.136.032-.25.15-.106.103-.1.25-.006.158.1.25.114.118.25.1.16.018.25-.1.13-.092.1-.25.03-.147-.1-.25-.09-.118-.25-.15m-1.2-3.25q-.405.018-.75.3-.257.307-.25.7-.007.454.25.75.345.305.75.3.442.005.7-.3.343-.296.35-.75-.007-.393-.35-.7-.258-.282-.7-.3M143.7 18q-.067-.106-.25-.1-.122-.006-.25.1-.093.092-.1.25.007.158.1.25.128.105.25.1.183.005.25-.1.143-.092.15-.25-.007-.158-.15-.25m.15-2q.08.143.2.15.185-.007.3-.15.105-.054.1-.2.005-.158-.1-.25-.115-.118-.3-.15-.12.032-.2.15-.118.092-.15.25.032.146.15.2m-.95-2.45q-.245.025-.45.2-.175.193-.2.45.025.293.2.45.205.225.45.2.318.025.5-.2.2-.157.2-.45 0-.257-.2-.45-.182-.175-.5-.2m-.5-1.1q-.118.092-.15.25.032.158.15.25.103.105.25.1.136.005.25-.1.118-.092.1-.25.018-.158-.1-.25-.114-.105-.25-.1-.147-.005-.25.1m4.2 2.85q-.092-.093-.25-.1-.158.007-.25.1-.106.14-.1.3-.006.146.1.2.092.143.25.15.158-.007.25-.15.105-.054.1-.2.005-.16-.1-.3m.4 3.2q.13-.092.1-.25.03-.158-.1-.25-.067-.106-.25-.1-.133-.006-.25.1-.08.092-.1.25.02.158.1.25.117.105.25.1.183.005.25-.1m.85-4q-.244 0-.45.2-.175.18-.2.45.025.258.2.45.206.189.45.2.296-.011.5-.2.176-.192.15-.45.026-.27-.15-.45-.204-.2-.5-.2m.6-.85q-.08-.08-.25-.1-.135.02-.25.1-.118.139-.15.25.032.185.15.3.115.105.25.1.17.005.25-.1.118-.115.1-.3.018-.111-.1-.25m1.15.35q-.118.08-.15.2.032.185.15.3.103.105.25.1.158.005.25-.1.105-.115.1-.3.005-.12-.1-.2-.092-.118-.25-.15-.147.032-.25.15m1.5-1.15q0-.245-.2-.45-.182-.175-.5-.2-.232.025-.4.2-.2.205-.2.45 0 .296.2.5.168.176.4.15.318.026.5-.15.2-.204.2-.5m.15-1.85q-.133.02-.25.1-.08.117-.1.25.02.17.1.25.117.118.25.1.185.018.3-.1.105-.08.1-.25.005-.133-.1-.25-.115-.08-.3-.1m-3.9-3.15q-.158.032-.25.15-.105.08-.1.2-.005.183.1.25.092.143.25.15.16-.007.25-.15.13-.067.1-.25.03-.12-.1-.2-.09-.118-.25-.15m10.85-.5q-.418-.007-.75.25-.27.345-.3.75.03.442.3.7.332.343.75.35.429-.007.7-.35.33-.258.3-.7.03-.405-.3-.75-.271-.257-.7-.25m2 .75q-.133.02-.25.1-.08.117-.1.25.02.183.1.25.117.13.25.1.183.03.25-.1.13-.067.1-.25.03-.133-.1-.25-.067-.08-.25-.1m1.5-1.2q-.067-.105-.25-.1-.133-.005-.25.1-.08.092-.1.25.02.158.1.25.117.105.25.1.183.005.25-.1.13-.092.1-.25.03-.158-.1-.25m-4.8 2.75q-.118.117-.15.25.032.183.15.25.092.13.25.1.147.03.25-.1.118-.067.1-.25.018-.133-.1-.25-.103-.08-.25-.1-.158.02-.25.1m-3.6.45q-.393.007-.7.3-.294.308-.3.7.006.465.3.75.307.318.7.3.442.018.7-.3.343-.307.35-.75-.007-.392-.35-.7-.258-.293-.7-.3m2.15-1.15q-.245 0-.45.2-.175.18-.2.45.025.258.2.45.205.176.45.15.296.026.5-.15.176-.192.15-.45.026-.27-.15-.45-.204-.2-.5-.2M167.9 58.1q-.099-.006-.2.1-.118.092-.15.25.032.158.15.25.101.105.2.1.185.005.3-.1.105-.092.1-.25.005-.158-.1-.25-.115-.106-.3-.1m3.35-.15q-.16.032-.3.15-.08.115-.1.25.02.17.1.25.14.118.3.1.158.018.25-.1.105-.08.1-.25.005-.135-.1-.25-.092-.118-.25-.15m-.75-.95q-.007-.393-.35-.7-.26-.295-.7-.3-.43.005-.75.3-.28.307-.3.7.02.454.3.75.32.305.75.3.418.005.7-.3.343-.296.35-.75m.85-1.05q-.067-.118-.25-.15-.12.032-.2.15-.118.08-.15.2.032.185.15.3.08.118.2.1.183.018.25-.1.143-.115.15-.3-.007-.12-.15-.2m-9.15 3.8q.143-.115.15-.3-.007-.111-.15-.25-.067-.08-.25-.1-.12.02-.2.1-.118.139-.15.25.032.185.15.3.08.105.2.1.183.005.25-.1m2.3-1.65q-.393.018-.7.3-.282.32-.3.75.018.417.3.7.307.305.7.3.454.005.75-.3.305-.283.3-.7.005-.43-.3-.75-.296-.282-.75-.3m-1.6-.65q-.167-.175-.45-.2-.244.025-.45.2-.175.206-.2.45.025.283.2.45.206.214.45.2.283.014.45-.2.214-.167.2-.45.014-.244-.2-.45m3.4-.5q-.175.193-.2.45.025.27.2.45.207.201.5.2.27.001.45-.2.201-.18.2-.45.001-.257-.2-.45-.18-.175-.45-.2-.293.025-.5.2m-1.65.4q.16.03.25-.1.13-.09.1-.25.03-.146-.1-.25-.09-.093-.25-.1-.158.007-.25.1-.105.104-.1.25-.005.16.1.25.092.13.25.1m5.15-6.15q-.067-.118-.25-.15-.133.032-.25.15-.08.103-.1.25.02.158.1.25.117.105.25.1.183.005.25-.1.13-.092.1-.25.03-.147-.1-.25m3.2 5.45q-.18-.2-.45-.2t-.45.2q-.2.18-.2.45t.2.45q.18.201.45.2.27.001.45-.2.201-.18.2-.45.001-.27-.2-.45m3.45-.7q-.293.308-.3.7.007.443.3.75.308.294.7.3.465-.006.75-.3.318-.307.3-.75.018-.392-.3-.7-.307-.293-.75-.3-.392.007-.7.3m-1.4.8q-.054-.093-.2-.1-.16.007-.3.1-.08.104-.1.25.02.16.1.25.14.13.3.1.146.03.2-.1.143-.09.15-.25-.007-.146-.15-.25m2-2.75q-.092-.118-.25-.15-.16.032-.3.15-.08.08-.1.2.02.185.1.3.14.105.3.1.158.005.25-.1.105-.115.1-.3.005-.12-.1-.2m-3.8 1.6q-.115-.08-.3-.1-.133.02-.25.1-.08.117-.1.25.02.185.1.3.117.105.25.1.185.005.3-.1.105-.115.1-.3.005-.133-.1-.25m1.1-.6q-.175.18-.2.45.025.27.2.45.205.201.45.2.283.001.45-.2.214-.18.2-.45.014-.27-.2-.45-.167-.2-.45-.2-.245 0-.45.2m4.5.2q.206.176.45.15.318.026.5-.15.2-.192.2-.45 0-.293-.2-.5-.182-.175-.5-.2-.244.025-.45.2-.175.207-.2.5.025.258.2.45m-.5-.35q.018-.158-.1-.25-.08-.106-.25-.1-.133-.006-.25.1-.093.092-.1.25.007.158.1.25.117.105.25.1.17.005.25-.1.118-.092.1-.25m3.75-2.45q-.26-.257-.7-.25-.43-.007-.75.25-.28.345-.3.75.02.442.3.7.32.33.75.3.418.03.7-.3.33-.258.3-.7.03-.405-.3-.75m5.15 4q-.133.032-.25.15-.08.101-.1.2.02.185.1.3.117.118.25.1.183.018.25-.1.13-.115.1-.3.03-.099-.1-.2-.067-.118-.25-.15m-4.5-2.4q-.158-.005-.25.1-.106.092-.1.25-.006.146.1.2.092.143.25.15.158-.007.25-.15.105-.054.1-.2.005-.158-.1-.25-.092-.105-.25-.1m1.25-.65q-.175.193-.2.45.025.27.2.45.205.201.45.2.296.001.5-.2.176-.18.15-.45.026-.257-.15-.45-.204-.175-.5-.2-.245.025-.45.2m.6-1.75q-.054-.08-.2-.1-.158.02-.25.1-.118.117-.15.25.032.183.15.25.092.13.25.1.146.03.2-.1.143-.067.15-.25-.007-.133-.15-.25m1.85-1.45q-.146.02-.25.1-.093.14-.1.3.007.158.1.25.104.105.25.1.158.005.25-.1.105-.092.1-.25.005-.16-.1-.3-.092-.08-.25-.1m1.6 1.95q.005-.417-.3-.7-.32-.318-.75-.35-.417.032-.7.35-.305.283-.3.7-.005.418.3.7.283.343.7.35.453-.007.75-.35.305-.26.3-.7m.95-1.2q-.122-.005-.25.1-.093.092-.1.25.007.158.1.25.128.105.25.1.183.005.25-.1.143-.092.15-.25-.007-.158-.15-.25-.067-.105-.25-.1m1.7.45q.018-.133-.1-.25-.08-.093-.25-.1-.133.007-.25.1-.093.117-.1.25.007.17.1.25.117.118.25.1.17.018.25-.1.118-.08.1-.25m-.35-1.8q-.133.02-.25.1-.093.117-.1.25.007.183.1.25.117.13.25.1.17.03.25-.1.118-.067.1-.25.018-.133-.1-.25-.08-.08-.25-.1m1.05 1q.205.201.45.2.296.001.5-.2.176-.18.15-.45.026-.27-.15-.45-.204-.2-.5-.2-.245 0-.45.2-.175.18-.2.45.025.27.2.45m6.85-5.45q-.393.007-.7.3-.318.308-.35.7.032.465.35.75.307.318.7.3.442.018.7-.3.343-.307.35-.75-.007-.392-.35-.7-.258-.293-.7-.3m.3-1.25q-.007-.146-.15-.25-.067-.093-.25-.1-.122.007-.25.1-.093.104-.1.25.007.158.1.25.128.118.25.1.183.018.25-.1.143-.092.15-.25m1.45 2q.183.005.25-.1.13-.092.1-.25.03-.158-.1-.25-.067-.105-.25-.1-.133-.005-.25.1-.08.092-.1.25.02.158.1.25.117.105.25.1m2.3-1.15q-.18-.175-.45-.2-.27.025-.45.2-.2.206-.2.45 0 .283.2.45.18.214.45.2.27.014.45-.2.201-.167.2-.45.001-.244-.2-.45m-5.55 2.7q-.077-.093-.2-.1-.16.007-.3.1-.093.104-.1.25.007.158.1.25.14.118.3.1.123.018.2-.1.143-.092.15-.25-.007-.146-.15-.25m-2.25 1q-.175.206-.2.45.025.296.2.5.205.176.45.15.283.026.45-.15.201-.204.2-.5.001-.244-.2-.45-.167-.175-.45-.2-.245.025-.45.2m-.95.1q-.158.02-.25.1-.118.14-.15.3.032.158.15.25.092.105.25.1.146.005.2-.1.143-.092.15-.25-.007-.16-.15-.3-.054-.08-.2-.1m.9-1.4q-.133.007-.25.1-.08.104-.1.25.02.158.1.25.117.118.25.1.183.018.25-.1.13-.092.1-.25.03-.146-.1-.25-.067-.093-.25-.1m1.8-1.15q-.204-.2-.5-.2-.232 0-.4.2-.2.182-.2.45 0 .283.2.45.168.201.4.2.296.001.5-.2.176-.167.15-.45.026-.268-.15-.45m-2.15-3.8q-.09-.106-.25-.1-.158-.006-.25.1-.105.092-.1.25-.005.158.1.25.092.105.25.1.16.005.25-.1.13-.092.1-.25.03-.158-.1-.25m5.9.9q-.27.025-.45.2-.2.206-.2.45 0 .296.2.5.18.176.45.15.27.026.45-.15.201-.204.2-.5.001-.244-.2-.45-.18-.175-.45-.2m-9.05 5.55q-.118.14-.15.3.032.158.15.25.092.105.25.1.146.005.2-.1.143-.092.15-.25-.007-.16-.15-.3-.054-.08-.2-.1-.158.02-.25.1m.6-2.15q-.293.32-.3.75.007.417.3.7.332.318.75.3.417.018.7-.3.318-.283.3-.7.018-.43-.3-.75-.283-.282-.7-.3-.44.018-.75.3m-2.95 2.5q-.27 0-.45.2-.2.18-.2.45 0 .258.2.45.18.176.45.15.258.026.45-.15.176-.192.15-.45.026-.27-.15-.45-.192-.2-.45-.2m-7.1-2q-.158.02-.25.1-.106.117-.1.25-.006.183.1.25.092.13.25.1.16.03.25-.1.13-.067.1-.25.03-.133-.1-.25-.09-.08-.25-.1m-3.55-7.7q-.093.104-.1.25.007.158.1.25.117.105.25.1.17.005.25-.1.118-.092.1-.25.018-.146-.1-.25-.08-.093-.25-.1-.133.007-.25.1M165.7 42.1q.03-.158-.1-.25-.067-.105-.25-.1-.133-.005-.25.1-.08.092-.1.25.02.158.1.25.117.105.25.1.183.005.25-.1.13-.092.1-.25m-2.85-.9q-.418.018-.75.3-.27.32-.3.75.03.417.3.7.332.305.75.3.417.005.7-.3.318-.283.3-.7.018-.43-.3-.75-.283-.282-.7-.3m.9-1q-.08.104-.1.25.02.158.1.25.14.118.3.1.136.018.25-.1.105-.092.1-.25.005-.146-.1-.25-.114-.093-.25-.1-.16.007-.3.1m1.35-1.55q-.232.025-.4.2-.2.193-.2.45 0 .27.2.45.168.201.4.2.318.001.5-.2.2-.18.2-.45 0-.257-.2-.45-.182-.175-.5-.2m3.4 1.2q-.32-.28-.75-.3-.417.02-.7.3-.318.32-.35.75.032.418.35.7.283.32.7.3.453.02.75-.3.305-.282.3-.7.005-.43-.3-.75m-1.35-.8q.118-.067.1-.25.018-.133-.1-.25-.08-.08-.25-.1-.133.02-.25.1-.093.117-.1.25.007.183.1.25.117.13.25.1.17.03.25-.1m1.85-.7q-.09-.105-.25-.1-.136-.005-.25.1-.106.115-.1.25-.006.183.1.25.114.13.25.1.16.03.25-.1.13-.067.1-.25.03-.135-.1-.25m1.7-2.15q-.118.092-.15.25.032.147.15.25.08.118.2.1.183.018.25-.1.143-.103.15-.25-.007-.158-.15-.25-.067-.118-.25-.15-.12.032-.2.15m-2.3-.15q-.294.307-.3.7.006.465.3.75.307.294.7.3.454-.006.75-.3.305-.307.3-.75.005-.393-.3-.7-.296-.294-.75-.3-.393.006-.7.3m2.1-2.35q-.27.025-.45.2-.2.205-.2.45 0 .296.2.5.18.176.45.15.258.026.45-.15.176-.204.15-.5.026-.245-.15-.45-.192-.175-.45-.2m2.45-1q-.418.032-.75.35-.27.285-.3.7.03.454.3.75.332.305.75.3.43.005.7-.3.33-.296.3-.75.03-.393-.3-.7-.27-.318-.7-.35m.9-1.15q-.092-.08-.25-.1-.158.02-.25.1-.106.117-.1.25-.006.183.1.25.092.13.25.1.158.03.25-.1.105-.067.1-.25.005-.133-.1-.25m1.65-.85q-.244.025-.45.2-.175.23-.2.5.025.27.2.45.206.201.45.2.296.001.5-.2.176-.18.15-.45.026-.27-.15-.5-.204-.175-.5-.2m-.1-2.35q-.245.025-.45.2-.175.205-.2.45.025.296.2.5.205.176.45.15.305.026.45-.15.225-.204.2-.5.025-.245-.2-.45-.145-.175-.45-.2m1.7.65q-.067-.106-.25-.1-.12-.006-.2.1-.118.092-.15.25.032.16.15.25.08.13.2.1.183.03.25-.1.143-.09.15-.25-.007-.158-.15-.25m-4.8-2q.105-.092.1-.25.005-.146-.1-.25-.092-.093-.25-.1-.158.007-.25.1-.105.104-.1.25-.005.158.1.25.092.118.25.1.158.018.25-.1m4.35.75q.183.005.25-.1.143-.092.15-.25-.007-.158-.15-.25-.067-.106-.25-.1-.12-.006-.2.1-.118.092-.15.25.032.158.15.25.08.105.2.1m1.25-1.95q-.28 0-.45.2-.2.18-.2.45t.2.45q.17.225.45.2.27.025.45-.2.201-.18.2-.45.001-.27-.2-.45-.18-.2-.45-.2m.5-3.2q-.406.032-.75.35-.257.285-.25.7-.007.442.25.7.344.343.75.35.441-.007.7-.35.343-.258.35-.7-.007-.393-.35-.7-.259-.318-.7-.35m-.5-2.15q-.135.007-.25.1-.106.128-.1.25-.006.183.1.25.115.13.25.1.183.03.25-.1.13-.067.1-.25.03-.122-.1-.25-.067-.093-.25-.1m1.9 1q.2-.18.2-.45 0-.257-.2-.45-.182-.175-.5-.2-.244.025-.45.2-.175.193-.2.45.025.27.2.45.206.201.45.2.318.001.5-.2m-2.7-5.85q-.067-.08-.25-.1-.12.02-.2.1-.118.139-.15.25.032.185.15.3.08.105.2.1.183.005.25-.1.143-.115.15-.3-.007-.111-.15-.25m-1.6-.95q.007.158.1.25.117.105.25.1.17.005.25-.1.118-.092.1-.25.018-.158-.1-.25-.08-.106-.25-.1-.133-.006-.25.1-.093.092-.1.25m3.1 3.55q.02-.44-.3-.75-.282-.28-.7-.3-.418.02-.75.3-.27.31-.3.75.03.43.3.7.332.33.75.3.418.03.7-.3.32-.27.3-.7m.95-.25q-.135.032-.25.15-.105.115-.1.25-.005.17.1.25.115.118.25.1.183.018.25-.1.13-.08.1-.25.03-.135-.1-.25-.067-.118-.25-.15m-.35-2.75q-.204-.2-.5-.2-.246 0-.45.2-.2.18-.2.45t.2.45q.204.201.45.2.296.001.5-.2.176-.18.15-.45.026-.27-.15-.45m.2-1.6q-.092-.118-.25-.15-.158.032-.25.15-.106.08-.1.2-.006.183.1.25.092.143.25.15.158-.007.25-.15.105-.067.1-.25.005-.12-.1-.2m-9 2.9q-.158.02-.25.1-.105.117-.1.25-.005.183.1.25.092.13.25.1.158.03.25-.1.105-.067.1-.25.005-.133-.1-.25-.092-.08-.25-.1M168.05 8q.416.03.7-.3.318-.282.3-.7.018-.43-.3-.75-.284-.28-.7-.3-.418.02-.75.3-.293.32-.3.75.007.44.3.7.332.33.75.3m-.4 1.05q-.16.007-.3.1-.08.117-.1.25.02.17.1.25.14.118.3.1.158.018.25-.1.105-.08.1-.25.005-.133-.1-.25-.092-.093-.25-.1m2.25.15q.001-.293-.2-.5-.167-.175-.45-.2-.245.025-.45.2-.175.207-.2.5.025.258.2.45.205.176.45.15.283.026.45-.15.201-.192.2-.45m.9-.8q-.133.032-.25.15-.08.092-.1.25.02.146.1.2.117.143.25.15.183-.007.25-.15.13-.054.1-.2.03-.158-.1-.25-.067-.118-.25-.15m-1.05-2.15q-.106.117-.1.25-.006.183.1.25.092.13.25.1.158.03.25-.1.105-.067.1-.25.005-.133-.1-.25-.092-.08-.25-.1-.158.02-.25.1m-6.4 1.1q-.392-.007-.7.25-.293.345-.3.75.007.442.3.7.308.343.7.35.455-.007.75-.35.33-.258.3-.7.03-.405-.3-.75-.272-.257-.75-.25m2.15 1.2q.025.283.2.45.206.214.45.2.296.014.5-.2.176-.167.15-.45.026-.245-.15-.45-.204-.175-.5-.2-.244.025-.45.2-.175.205-.2.45m.55-1.75q-.007-.12-.15-.2-.054-.118-.2-.15-.16.032-.3.15-.08.08-.1.2.02.183.1.25.14.143.3.15.146-.007.2-.15.143-.067.15-.25m-2.45-1.35q-.133.007-.25.1-.08.117-.1.25.02.17.1.25.117.118.25.1.183.018.25-.1.13-.08.1-.25.03-.133-.1-.25-.067-.093-.25-.1m14.45 6.8q-.296-.257-.75-.25-.393-.007-.7.25-.295.332-.3.75.005.453.3.75.307.282.7.25.454.032.75-.25.305-.32.3-.75.005-.418-.3-.75m-2.45-.05q-.204-.175-.5-.2-.256.025-.45.2-.175.206-.2.45.025.296.2.5.194.176.45.15.296.026.5-.15.176-.204.15-.5.026-.244-.15-.45m.85-2q-.12-.005-.2.1-.118.092-.15.25.032.158.15.25.08.105.2.1.183.005.25-.1.143-.092.15-.25-.007-.158-.15-.25-.067-.105-.25-.1m-2.4 1.5q-.09-.093-.25-.1-.158.007-.25.1-.105.14-.1.3-.005.124.1.2.092.143.25.15.16-.007.25-.15.13-.076.1-.2.03-.16-.1-.3m-1.5.1q.33-.284.3-.7.03-.418-.3-.75-.258-.27-.7-.3-.405.03-.75.3-.257.332-.25.75-.007.416.25.7.345.318.75.3.442.018.7-.3m-.3-3.2q.258.001.45-.2.176-.18.15-.45.026-.27-.15-.45-.192-.2-.45-.2-.27 0-.45.2-.2.18-.2.45t.2.45q.18.201.45.2m.6.45q-.122.007-.25.1-.093.117-.1.25.007.17.1.25.128.118.25.1.183.018.25-.1.143-.08.15-.25-.007-.133-.15-.25-.067-.093-.25-.1M175.6 9q-.307-.293-.75-.3-.404.007-.7.3-.305.308-.3.7-.005.443.3.75.296.318.7.3.443.018.75-.3.282-.285.25-.75.032-.392-.25-.7m7.15 13.25q-.158.02-.25.1-.106.117-.1.25-.006.185.1.3.092.105.25.1.158.005.25-.1.105-.115.1-.3.005-.133-.1-.25-.092-.08-.25-.1M224 25.3q-.18-.2-.45-.2t-.45.2q-.2.168-.2.4 0 .296.2.5.18.176.45.15.27.026.45-.15.201-.204.2-.5.001-.232-.2-.4m15.6 1.45q.007.158.1.25.104.118.25.1.158.018.25-.1.118-.092.1-.25.018-.146-.1-.25-.092-.093-.25-.1-.146.007-.25.1-.093.104-.1.25M202.55 43.9q.092.118.25.1.158.018.25-.1.105-.114.1-.25.005-.147-.1-.25-.092-.118-.25-.15-.158.032-.25.15-.106.103-.1.25-.006.136.1.25m2.9-1.95q-.133-.006-.25.1-.08.092-.1.25.02.16.1.25.117.13.25.1.172.03.25-.1.143-.09.15-.25-.007-.158-.15-.25-.078-.106-.25-.1m-2.6.7q.305-.296.3-.75.005-.393-.3-.7-.296-.318-.75-.35-.393.032-.7.35-.305.307-.3.7-.005.454.3.75.307.305.7.3.454.005.75-.3m1.35.2q-.245.025-.45.2-.175.205-.2.45.025.296.2.5.205.176.45.15.296.026.5-.15.176-.204.15-.5.026-.245-.15-.45-.204-.175-.5-.2m.3-2.1q0 .27.2.45.168.201.4.2.318.001.5-.2.2-.18.2-.45t-.2-.45q-.182-.2-.5-.2-.232 0-.4.2-.2.18-.2.45m7.85.85q-.133.02-.25.1-.08.117-.1.25.02.185.1.3.117.105.25.1.183.005.25-.1.13-.115.1-.3.03-.133-.1-.25-.067-.08-.25-.1m-3.95-1.8q.02-.428-.3-.75-.282-.28-.7-.3-.418.02-.75.3-.27.322-.3.75.03.442.3.7.332.343.75.35.418-.007.7-.35.32-.258.3-.7m-.55-2.3q-.158.032-.25.15-.105.08-.1.2-.005.183.1.25.092.143.25.15.158-.007.25-.15.105-.067.1-.25.005-.12-.1-.2-.092-.118-.25-.15m2.25 1.4q.258.026.45-.15.176-.204.15-.5.026-.232-.15-.4-.192-.2-.45-.2-.27 0-.45.2-.2.168-.2.4 0 .296.2.5.18.176.45.15m1.55-2.5q-.158-.005-.25.1-.118.092-.15.25.032.16.15.25.092.13.25.1.146.03.2-.1.143-.09.15-.25-.007-.158-.15-.25-.054-.105-.2-.1m-.05-1.85q-.2.18-.2.45t.2.45q.18.201.45.2.258.001.45-.2.176-.18.15-.45.026-.27-.15-.45-.192-.2-.45-.2-.27 0-.45.2m-3.1 1.4q-.007.43.25.7.332.33.75.3.43.03.7-.3.33-.27.3-.7.03-.418-.3-.75-.27-.293-.7-.3-.418.007-.75.3-.257.31-.25.75m-2.25-3.05q.02.183.1.25.117.143.25.15.183-.007.25-.15.13-.067.1-.25.03-.122-.1-.25-.067-.093-.25-.1-.133.007-.25.1-.08.128-.1.25m15.15-.35q-.12.007-.2.1-.118.128-.15.25.032.183.15.25.08.143.2.15.183-.007.25-.15.143-.067.15-.25-.007-.122-.15-.25-.067-.093-.25-.1m-8.45.55q-.133.007-.25.1-.08.117-.1.25.02.17.1.25.117.118.25.1.185.018.3-.1.105-.08.1-.25.005-.133-.1-.25-.115-.093-.3-.1m3.2-.7q-.006-.404-.3-.7-.307-.305-.75-.3-.392-.005-.7.3-.293.296-.3.7.007.443.3.75.308.318.7.3.443.018.75-.3.294-.285.3-.75m1.25-1.95q-.158-.006-.25.1-.106.092-.1.25-.006.158.1.25.092.105.25.1.147.005.25-.1.118-.092.1-.25.018-.158-.1-.25-.103-.106-.25-.1M216.05 29q-.27 0-.45.2-.2.18-.2.45t.2.45q.18.201.45.2.258.001.45-.2.176-.18.15-.45.026-.27-.15-.45-.192-.2-.45-.2m1-1.05q-.099.007-.2.1-.118.128-.15.25.032.183.15.25.101.143.2.15.185-.007.3-.15.105-.067.1-.25.005-.122-.1-.25-.115-.093-.3-.1m2.75-.3q-.204-.2-.5-.2-.244 0-.45.2-.175.18-.2.45.025.28.2.45.206.2.45.2.296 0 .5-.2.2-.17.2-.45 0-.27-.2-.45m-.55-1.65q-.146.007-.25.1-.093.128-.1.25.007.183.1.25.104.13.25.1.158.03.25-.1.118-.067.1-.25.018-.122-.1-.25-.092-.093-.25-.1m2.2.95q-.08.092-.1.25.02.158.1.25.117.105.25.1.183.005.25-.1.13-.092.1-.25.03-.158-.1-.25-.067-.105-.25-.1-.133-.005-.25.1m-.35-2.6q-.418.032-.75.35-.27.283-.3.7.03.44.3.7.332.32.75.3.44.02.7-.3.32-.26.3-.7.02-.417-.3-.7-.282-.318-.7-.35m18.75-1.75q.206.176.45.15.283.026.45-.15.201-.192.2-.45.001-.27-.2-.45-.167-.2-.45-.2-.244 0-.45.2-.175.18-.2.45.025.258.2.45m-.2-1.25q.117.143.25.15.172-.007.25-.15.143-.054.15-.2-.007-.16-.15-.3-.078-.08-.25-.1-.133.02-.25.1-.093.14-.1.3.007.146.1.2m-.1-1.8q.005-.12-.1-.2-.092-.118-.25-.15-.158.032-.25.15-.106.08-.1.2-.006.183.1.25.092.143.25.15.158-.007.25-.15.105-.067.1-.25m-5.8 2.65q-.167-.2-.45-.2-.244 0-.45.2-.175.18-.2.45.025.27.2.45.206.201.45.2.283.001.45-.2.201-.18.2-.45.001-.27-.2-.45m1.55.4q-.158.032-.25.15-.106.08-.1.2-.006.183.1.25.092.143.25.15.158-.007.25-.15.105-.067.1-.25.005-.12-.1-.2-.092-.118-.25-.15m.25-1.05q.282-.285.25-.75.032-.392-.25-.7-.32-.293-.75-.3-.418.007-.75.3-.27.308-.3.7.03.465.3.75.332.318.75.3.43.018.75-.3m1.3-.2q.207.2.5.2.258 0 .45-.2.176-.192.15-.45.026-.27-.15-.45-.192-.2-.45-.2-.293 0-.5.2-.175.18-.2.45.025.258.2.45m4.3-5.25q-.133-.005-.25.1-.08.114-.1.25.02.16.1.25.117.13.25.1.185.03.3-.1.105-.09.1-.25.005-.136-.1-.25-.115-.105-.3-.1m-9.3 6.75q.005-.133-.1-.25-.092-.08-.25-.1-.16.02-.3.1-.08.117-.1.25.02.183.1.25.14.13.3.1.158.03.25-.1.105-.067.1-.25m-2.25.1q-.257 0-.45.2-.175.168-.2.4.025.296.2.5.193.176.45.15.27.026.45-.15.225-.204.2-.5.025-.232-.2-.4-.18-.2-.45-.2m.25-1.8q-.16.032-.3.15-.08.092-.1.25.02.146.1.2.14.143.3.15.158-.007.25-.15.105-.054.1-.2.005-.158-.1-.25-.092-.118-.25-.15m2.4-.3q-.204-.175-.5-.2-.255.025-.45.2-.175.205-.2.45.025.283.2.45.195.201.45.2.296.001.5-.2.176-.167.15-.45.026-.245-.15-.45m-4.9 2.7q-.111-.006-.25.1-.093.115-.1.25.007.17.1.25.139.118.25.1.172.018.25-.1.143-.08.15-.25-.007-.135-.15-.25-.078-.106-.25-.1m-2.35-.2q-.27 0-.45.2-.2.168-.2.4 0 .296.2.5.18.176.45.15.258.026.45-.15.176-.204.15-.5.026-.232-.15-.4-.192-.2-.45-.2m2.4-2.5q-.393.018-.7.3-.294.32-.3.75.006.417.3.7.307.318.7.3.454.018.75-.3.305-.283.3-.7.005-.43-.3-.75-.296-.282-.75-.3m.55-4q.018-.133-.1-.25-.092-.08-.25-.1-.146.02-.25.1-.093.117-.1.25.007.183.1.25.104.13.25.1.158.03.25-.1.118-.067.1-.25m20.7 3.4q-.27 0-.45.2-.2.18-.2.45 0 .258.2.45.18.2.45.2.258 0 .45-.2.176-.192.15-.45.026-.27-.15-.45-.192-.2-.45-.2m-1.55 2.7q.032.418.35.7.283.33.7.3.418.03.7-.3.32-.26.3-.7.02-.43-.3-.75-.282-.28-.7-.3-.417.02-.7.3-.318.32-.35.75m-3.75-.2q-.08-.118-.25-.15-.133.032-.25.15-.093.08-.1.2.007.183.1.25.117.143.25.15.17-.007.25-.15.118-.067.1-.25.018-.12-.1-.2m2.05.25q-.204-.175-.5-.2-.232.025-.4.2-.2.205-.2.45 0 .296.2.5.168.176.4.15.296.026.5-.15.176-.204.15-.5.026-.245-.15-.45m-1.5-2.2q.005-.392-.3-.7-.284-.293-.7-.3-.43.007-.75.3-.282.308-.3.7.018.465.3.75.32.318.75.3.416.018.7-.3.305-.307.3-.75m2.2.55q.201-.192.2-.45.001-.27-.2-.45-.167-.2-.45-.2-.246 0-.45.2-.2.18-.2.45 0 .258.2.45.204.2.45.2.283 0 .45-.2z" id="f"/></defs><use xlink:href="#b" transform="matrix(0 .57 -1.0549 0 284 0)"/><use xlink:href="#c" transform="matrix(-1.0686 0 0 -1.0686 37.742 184.508)"/><use xlink:href="#c" transform="matrix(-1.0686 0 0 -1.0686 59.274 242.48)"/><use xlink:href="#c" transform="matrix(-1.0686 0 0 -1.0686 239.227 207.002)"/><use xlink:href="#c" transform="matrix(-1.0686 0 0 -1.0686 190.766 247.021)"/><use xlink:href="#c" transform="matrix(-1.0686 0 0 -1.0686 113.773 167.998)"/><use xlink:href="#c" transform="matrix(-1.0686 0 0 -1.0686 224.266 182.53)"/><use xlink:href="#c" transform="matrix(-1.0686 0 0 -1.0686 174.737 195.033)"/><use xlink:href="#c" transform="matrix(-1.0686 0 0 -1.0686 22.247 202.033)"/><use filter="url(#d)" xlink:href="#e" transform="matrix(-.32381 0 0 -.32381 36.717 241.986)"/><use filter="url(#d)" xlink:href="#e" transform="matrix(-.45846 0 0 -.45846 241.257 257.569)"/><use filter="url(#d)" xlink:href="#e" transform="matrix(-.49135 0 0 -.49135 249.77 203.055)"/><use filter="url(#d)" xlink:href="#e" transform="translate(99.27 264.543) scale(.46042)"/><g><use xlink:href="#c" transform="matrix(1.0686 0 0 1.0686 239.558 179.492)"/><use xlink:href="#c" transform="matrix(1.0686 0 0 1.0686 218.026 121.52)"/><use xlink:href="#c" transform="matrix(1.0686 0 0 1.0686 38.073 156.998)"/><use xlink:href="#c" transform="matrix(1.0686 0 0 1.0686 86.534 116.979)"/><use xlink:href="#c" transform="matrix(1.0686 0 0 1.0686 163.527 196.002)"/><use xlink:href="#c" transform="matrix(1.0686 0 0 1.0686 53.034 181.47)"/><use xlink:href="#c" transform="matrix(1.0686 0 0 1.0686 102.563 168.967)"/><use xlink:href="#c" transform="matrix(1.0686 0 0 1.0686 255.053 161.967)"/><use filter="url(#d)" xlink:href="#e" transform="matrix(.32381 0 0 .32381 240.583 122.014)"/><use filter="url(#d)" xlink:href="#e" transform="matrix(.45846 0 0 .45846 36.043 106.431)"/><use filter="url(#d)" xlink:href="#e" transform="matrix(.49135 0 0 .49135 27.53 160.945)"/><use filter="url(#d)" xlink:href="#e" transform="translate(178.03 99.457) scale(.46042)"/></g><g><use xlink:href="#f" transform="matrix(1.13116 0 0 1.1388 0 141.6)"/></g></svg>