<svg xmlns="http://www.w3.org/2000/svg" xmlns:xlink="http://www.w3.org/1999/xlink" preserveAspectRatio="none" width="284" height="320"><defs><radialGradient id="a" gradientUnits="userSpaceOnUse" cx="0" cy="0" r="172.375" fx="0" fy="0" gradientTransform="matrix(1 0 0 -1 314.2 442.7)" spreadMethod="pad"><stop offset="0%" stop-color="#B32E30"/><stop offset="100%" stop-color="#5C2322"/></radialGradient><radialGradient id="b" gradientUnits="userSpaceOnUse" cx="0" cy="0" r="172.375" fx="0" fy="0" gradientTransform="matrix(1 0 0 -1 314.2 446.05)" spreadMethod="pad"><stop offset="0%" stop-color="#EE3338"/><stop offset="100%" stop-color="#8F2A2A"/></radialGradient><path fill="#F6F" d="M284.05 0H0v320h284.05V0z" id="c"/><path fill="#F9F" d="M0 254.8V320h284.05V128.75Q144.791 202.853 0 254.8M284.05 62.05V0H0v175.6q145.342-44.598 284.05-113.55z" id="d"/><path fill="url(#a)" d="M253.95 542.6l17.9 16.3q1.9 4 19.05-.05 4.55-1.05 35.15-9.9 22.4-6.5 31.3-6.95 12.5-.65 7.6 8.9l38.5-35.3q3.6-5.7-15.9-1.8-11.95 2.4-47 12-37.15 10.2-52.9 13.65-26.75 5.9-33.7 3.15m60.6 32.6q-17.65 1.35-27.2-1.85L303.9 589q1.45 2.8 10.75 2.55 6.75-.15 20.5-2.15.5-10.6 11.6-18.9-19 3.7-32.2 4.7m-96-66.05l18.85 18.35q5.5 5 40.65-5.2 19.25-5.6 72.15-24 48.25-16.8 66.1-21.35 27.85-7.1 22.65 2.75l25.55-33.2q4.2-8.1-27.7.3-20.45 5.35-75.95 23.75-61.5 20.4-85.65 27.45-43.75 12.75-56.65 11.15m-34.35-35.1L199.6 491q4.55 4.5 50.35-8.95 20.2-5.9 96.6-30.9Q411.35 430 439 423q40.46-10.14 37.95-.75l8.15-28.3q2.1-7.25-41.35 5.85-21.75 6.55-98.7 32.8-71.2 24.3-103.95 33.5-49.75 14-56.9 7.95m-9.25-137q16.7 4.15 45.5 1.5 27.25-2.5 48-9.2 22.2-7.2 21.65-14.65l-16.35-14.55q-6.25 4.95-22.05 8.15-15.1 3.1-30.5 3-16.5-.05-24.35-3.85-9.05-4.4-3.5-12.6l-32.6 24.8q-5.15 12.6 14.2 17.4M472.5 326.7l-18.85-20.5q-4.8-5.8-49.9 8.05-16.15 4.95-98.2 33.2-67.75 23.3-102.1 32.05-49.65 12.7-61.65 4.75l5.05 26.35q4.7 6.85 54.65-6.85 31.9-8.7 107.75-33.65 80.35-26.45 107.95-34.4 50.118-14.398 55.3-9m-68.05 34.7q-39.25 15.2-45.65 17.65-61.2 23.25-103.75 35.15-59.5 16.65-100 16.9l14.2 23.8q5 6.4 54.1-8.05 29-8.45 105.45-34.75 75.35-25.9 105-34.45 48.6-14.05 52.8-7.1-3.35-17.45-6.5-29.55-3.3-5.85-38.2 6.4-12.75 4.45-37.45 14m31.05-66.1l-25.45-7q-10.65-2.85-43.1 10.7-42.55 19.15-67.5 29.05-44.75 17.7-77.45 21.7-42.95 5.2-72.9-11.3l-6.8 23.05q-1.55 17.1 41.55 12.55 35.75-3.8 97.05-21.65 51-14.85 101.05-33.65 46.75-17.55 53.55-23.45z" id="e"/><path fill="url(#b)" d="M308.4 615.1q6.2-11 12.55-17.45 7.2-7.3 14.2-8.25 2.8-10.1 11.6-18.9-20.6 2.2-30.35 15.95-7.8 11.1-8 28.65m-4.6-25.95q-5.4-9.6 19.3-22.45 19.35-10.05 41.85-15.8 6.65-6.15 18.95-17.4 12.9-11.75 19.55-17.9-11.2 7.8-33.15 15.7-26.25 8.7-38.7 12.85-22.15 7.35-31.85 13-13.05 7.6-12.4 16.2 2.7 2.6 8 7.55 4.75 4.55 8.45 8.25m-20.95-73q-26.05 12.55-28.9 26.45l17.9 16.25q4.8-13.2 28.75-25 17.1-8.45 51.25-19.1 47.1-14.7 53-16.8 26.4-9.5 34.1-18.25 9.5-10.4 14.15-16.3 6.55-8.3 11.4-16.9-17.55 13.65-54.4 26.9-14.25 5.15-67.9 21.45-41.15 12.55-59.35 21.3m-64.3-7.05l18.85 18.4q2.3-15.6 36.05-31.6 24.7-11.7 75-26.95 5.25-1.6 41.3-12.3 24.3-7.15 38.1-11.7 39.5-13 49.15-22.6 5.55-14.85 8.1-28.4-12.65 12.3-57.85 27.15-16.4 5.4-43.15 13.1-30.85 8.8-46.2 13.3-56.35 16.4-82.45 28.35-36.3 16.7-36.9 33.25M286.8 277q-6.2 4-18.8 6.4-8.55 1.65-25.35 3.3-20.1 1.95-26.6 2.9-14.4 2.05-22.65 5.25-9.85 4.15-19.35 11.8-7.8 6.25-13.3 13 11.1-8.4 31.2-14.45 12.55-3.75 37.55-8.75 25.25-5.05 34.7-7.8 16.6-4.95 22.6-11.65m-142 71.7q-.75 3.2-2.5 12.8 15.5-14.05 75.6-31.4 23.55-6.8 44.6-11.3 20.65-4.35 27.6-4.1-8.5-8.6-8.65-8.75-4-3.8-7.7-5.8-18.55-1.85-68.9 14.35-20.7 6.7-36.3 13.35-16.3 6.9-19.45 10.6-3.15 5.35-4.3 10.25m335.3-7.7q-2.3 17-51.05 35.8-28.75 11.05-104.65 32.4-73.9 20.75-100.75 31.55-44.05 17.7-39.45 33.3 2.7 3 7.65 8.55 4.3 4.85 7.75 8.4-1.6-14.5 41.15-31.85 28.7-11.65 96.15-30.85 77.15-21.95 99.25-29.6 46.6-16.15 50.45-28.15-.75-16.35-6.5-29.55m-7.55-14.25q-8.25-12.3-18.9-20.55-9.25 20.35-56.75 38.4-30.55 11.6-98.85 28.8-72 18.15-95.65 26.4-43.75 15.3-47.35 31.3 4.5 10.1 14.2 23.8 2.6-16.55 45.55-32.1 24.15-8.8 95.35-26.95 69.6-17.75 100.75-29.45 49.5-18.6 61.65-39.65m-49.25-35.6q-5.25-1.4-13.25-2.85-.5 10.15-42.2 23.4-24.7 7.85-91.6 24.15-66.3 16.15-91.8 24.35-41.9 13.5-42.65 24.05.85 11.7 5.05 26.35Q149.5 398 196 383.15q21.9-6.95 99.95-26.65 68.3-17.25 97.55-28.45 43.55-16.7 42-32.75-7-2.7-12.2-4.15z" id="f"/></defs><use xlink:href="#c"/><use xlink:href="#d"/><use xlink:href="#e" transform="matrix(.66708 0 0 .66682 -69.35 -101.3)"/><use xlink:href="#f" transform="matrix(.66708 0 0 .66682 -69.35 -101.3)"/></svg>