<svg xmlns="http://www.w3.org/2000/svg" xmlns:xlink="http://www.w3.org/1999/xlink" preserveAspectRatio="none" width="284" height="320"><defs><linearGradient id="a" gradientUnits="userSpaceOnUse" x1="501.05" y1="579.525" x2="501.05" y2="531.875" spreadMethod="pad"><stop offset="0%" stop-color="#A06054"/><stop offset="100%" stop-color="#3F0402"/></linearGradient><linearGradient id="b" gradientUnits="userSpaceOnUse" x1="506.425" y1="467.75" x2="553.275" y2="499.35" spreadMethod="pad"><stop offset="0%" stop-color="#914940"/><stop offset="69.02%" stop-color="#E6D5CD"/><stop offset="100%" stop-color="#B58275"/></linearGradient><linearGradient id="c" gradientUnits="userSpaceOnUse" x1="430.912" y1="488.137" x2="409.887" y2="540.163" spreadMethod="pad"><stop offset="0%" stop-color="#914940"/><stop offset="58.824%" stop-color="#E6D5CD"/><stop offset="100%" stop-color="#B58275"/></linearGradient><linearGradient id="d" gradientUnits="userSpaceOnUse" x1="518.925" y1="594.787" x2="500.075" y2="577.813" spreadMethod="pad"><stop offset="0%" stop-color="#84332E"/><stop offset="100%" stop-color="#914940"/></linearGradient><linearGradient id="e" gradientUnits="userSpaceOnUse" x1="503.175" y1="578.95" x2="517.825" y2="594.65" spreadMethod="pad"><stop offset="0%" stop-color="#AF7A6C"/><stop offset="58.824%" stop-color="#CEAEA2"/><stop offset="100%" stop-color="#B58275"/></linearGradient><linearGradient id="f" gradientUnits="userSpaceOnUse" x1="503.05" y1="563.513" x2="503.05" y2="532.688" spreadMethod="pad"><stop offset="0%" stop-color="#AF7A6C"/><stop offset="100%" stop-color="#76211D"/></linearGradient><linearGradient id="g" gradientUnits="userSpaceOnUse" x1="507.762" y1="530.525" x2="492.037" y2="557.775" spreadMethod="pad"><stop offset="0%" stop-color="#914940"/><stop offset="58.824%" stop-color="#CEAEA2"/><stop offset="100%" stop-color="#B58275"/></linearGradient><linearGradient id="h" gradientUnits="userSpaceOnUse" x1="519.75" y1="570.513" x2="519.75" y2="498.688" spreadMethod="pad"><stop offset="0%" stop-color="#CEAEA2"/><stop offset="100%" stop-color="#873B34"/></linearGradient><linearGradient id="i" gradientUnits="userSpaceOnUse" x1="522.175" y1="529.438" x2="533.025" y2="559.263" spreadMethod="pad"><stop offset="0%" stop-color="#914940"/><stop offset="100%" stop-color="#B8897D"/></linearGradient><linearGradient id="j" gradientUnits="userSpaceOnUse" x1="522.613" y1="526.663" x2="531.087" y2="558.238" spreadMethod="pad"><stop offset="0%" stop-color="#BE9286"/><stop offset="56.863%" stop-color="#E6D5CD"/><stop offset="100%" stop-color="#CEAEA2"/></linearGradient><linearGradient id="k" gradientUnits="userSpaceOnUse" x1="446.2" y1="579.538" x2="446.2" y2="531.962" spreadMethod="pad"><stop offset="0%" stop-color="#A06054"/><stop offset="100%" stop-color="#3F0402"/></linearGradient><linearGradient id="l" gradientUnits="userSpaceOnUse" x1="416.275" y1="590.012" x2="430.925" y2="577.288" spreadMethod="pad"><stop offset="0%" stop-color="#84332E"/><stop offset="100%" stop-color="#914940"/></linearGradient><linearGradient id="m" gradientUnits="userSpaceOnUse" x1="447.813" y1="552.263" x2="425.087" y2="591.638" spreadMethod="pad"><stop offset="0%" stop-color="#914940"/><stop offset="58.824%" stop-color="#CEAEA2"/><stop offset="100%" stop-color="#B58275"/></linearGradient><linearGradient id="n" gradientUnits="userSpaceOnUse" x1="426.15" y1="569.488" x2="426.15" y2="503.913" spreadMethod="pad"><stop offset="0%" stop-color="#CEAEA2"/><stop offset="100%" stop-color="#873B34"/></linearGradient><linearGradient id="o" gradientUnits="userSpaceOnUse" x1="437.25" y1="535.512" x2="437.25" y2="487.787" spreadMethod="pad"><stop offset="0%" stop-color="#9B594E"/><stop offset="100%" stop-color="#3F0402"/></linearGradient><linearGradient id="p" gradientUnits="userSpaceOnUse" x1="427.787" y1="546.7" x2="442.012" y2="525.6" spreadMethod="pad"><stop offset="0%" stop-color="#914940"/><stop offset="100%" stop-color="#792622"/></linearGradient><linearGradient id="q" gradientUnits="userSpaceOnUse" x1="442.5" y1="517.5" x2="427.4" y2="545.9" spreadMethod="pad"><stop offset="0%" stop-color="#914940"/><stop offset="58.824%" stop-color="#AA7064"/><stop offset="100%" stop-color="#A5685C"/></linearGradient><linearGradient id="r" gradientUnits="userSpaceOnUse" x1="420.813" y1="563.6" x2="420.188" y2="527.3" spreadMethod="pad"><stop offset="0%" stop-color="#A06054"/><stop offset="100%" stop-color="#9B594E"/></linearGradient><linearGradient id="s" gradientUnits="userSpaceOnUse" x1="418.275" y1="532.688" x2="422.425" y2="562.213" spreadMethod="pad"><stop offset="0%" stop-color="#AF7A6C"/><stop offset="56.863%" stop-color="#ECDFD9"/><stop offset="100%" stop-color="#CEAEA2"/></linearGradient><linearGradient id="t" gradientUnits="userSpaceOnUse" x1="428.6" y1="578.763" x2="417.8" y2="590.737" spreadMethod="pad"><stop offset="0%" stop-color="#AF7A6C"/><stop offset="58.824%" stop-color="#CEAEA2"/><stop offset="100%" stop-color="#B58275"/></linearGradient><linearGradient id="u" gradientUnits="userSpaceOnUse" x1="474.75" y1="581.538" x2="474.75" y2="602.863" spreadMethod="pad"><stop offset="0%" stop-color="#FF3626"/><stop offset="100%" stop-color="#CC1F0F"/></linearGradient><linearGradient id="v" gradientUnits="userSpaceOnUse" x1="458.25" y1="551.538" x2="458.25" y2="568.363" spreadMethod="pad"><stop offset="0%" stop-color="#FF3626"/><stop offset="100%" stop-color="#FD8B73"/></linearGradient><linearGradient id="w" gradientUnits="userSpaceOnUse" x1="491.5" y1="551.538" x2="491.5" y2="568.363" spreadMethod="pad"><stop offset="0%" stop-color="#FF3626"/><stop offset="100%" stop-color="#FD8B73"/></linearGradient><linearGradient id="x" gradientUnits="userSpaceOnUse" x1="474.75" y1="600.513" x2="474.75" y2="595.388" spreadMethod="pad"><stop offset="0%" stop-color="#FD765D"/><stop offset="100%" stop-color="#FCA289"/></linearGradient><linearGradient id="y" gradientUnits="userSpaceOnUse" x1="466.525" y1="557.7" x2="472.975" y2="563.5" spreadMethod="pad"><stop offset="0%" stop-color="#D1E726"/><stop offset="100%" stop-color="#BDD121"/></linearGradient><linearGradient id="z" gradientUnits="userSpaceOnUse" x1="474.85" y1="545.5" x2="474.85" y2="536.9" spreadMethod="pad"><stop offset="0%" stop-color="#FBD7AB"/><stop offset="100%" stop-color="#FBAC59"/></linearGradient><linearGradient id="A" gradientUnits="userSpaceOnUse" x1="474.85" y1="550.512" x2="474.85" y2="539.587" spreadMethod="pad"><stop offset="0%" stop-color="#FFF"/><stop offset="100%" stop-color="#EFEFEF"/></linearGradient><linearGradient id="B" gradientUnits="userSpaceOnUse" x1="474.85" y1="550.5" x2="474.85" y2="544.7" spreadMethod="pad"><stop offset="0%" stop-color="#EFC21F"/><stop offset="100%" stop-color="#F7E148"/></linearGradient><linearGradient id="C" gradientUnits="userSpaceOnUse" x1="474.85" y1="547.525" x2="474.85" y2="545.175" spreadMethod="pad"><stop offset="0%" stop-color="#F7E560"/><stop offset="100%" stop-color="#FFF"/></linearGradient><linearGradient id="D" gradientUnits="userSpaceOnUse" x1="470.438" y1="540.55" x2="471.862" y2="542.75" spreadMethod="pad"><stop offset="0%" stop-color="#FFF"/><stop offset="100%" stop-color="#F7F7F7"/></linearGradient><linearGradient id="E" gradientUnits="userSpaceOnUse" x1="479.25" y1="540.375" x2="478.05" y2="542.525" spreadMethod="pad"><stop offset="0%" stop-color="#FFF"/><stop offset="100%" stop-color="#F7F7F7"/></linearGradient><linearGradient id="F" gradientUnits="userSpaceOnUse" x1="474.75" y1="477.538" x2="474.75" y2="535.462" spreadMethod="pad"><stop offset="0%" stop-color="#FBBC76"/><stop offset="16.078%" stop-color="#FBCF9C"/><stop offset="27.843%" stop-color="#FCE5C7"/><stop offset="85.882%" stop-color="#FCE5C7"/><stop offset="100%" stop-color="#FBCA91"/></linearGradient><linearGradient id="G" gradientUnits="userSpaceOnUse" x1="471.488" y1="520.55" x2="478.213" y2="520.55" spreadMethod="pad"><stop offset="0%" stop-color="#FCA289"/><stop offset="100%" stop-color="#FF3626"/></linearGradient><linearGradient id="H" gradientUnits="userSpaceOnUse" x1="479.563" y1="502.837" x2="471.138" y2="501.663" spreadMethod="pad"><stop offset="0%" stop-color="#FBCA91"/><stop offset="100%" stop-color="#FDF3E5"/></linearGradient><linearGradient id="I" gradientUnits="userSpaceOnUse" x1="475.05" y1="509.525" x2="475.05" y2="511.775" spreadMethod="pad"><stop offset="0%" stop-color="#FCE5C7"/><stop offset="100%" stop-color="#FBCA91"/></linearGradient><linearGradient id="J" gradientUnits="userSpaceOnUse" x1="479.475" y1="518.7" x2="471.925" y2="518.7" spreadMethod="pad"><stop offset="0%" stop-color="#FD765D"/><stop offset="100%" stop-color="#FCC9B5"/></linearGradient><linearGradient id="K" gradientUnits="userSpaceOnUse" x1="456.7" y1="490.538" x2="456.7" y2="500.462" spreadMethod="pad"><stop offset="0%" stop-color="#222"/><stop offset="100%" stop-color="silver"/></linearGradient><linearGradient id="L" gradientUnits="userSpaceOnUse" x1="453.475" y1="498.55" x2="460.725" y2="498.55" spreadMethod="pad"><stop offset="0%" stop-color="#A9A9A9"/><stop offset="49.02%" stop-color="#EBEBEB"/><stop offset="100%" stop-color="#A9A9A9"/></linearGradient><linearGradient id="M" gradientUnits="userSpaceOnUse" x1="493" y1="490.538" x2="493" y2="500.462" spreadMethod="pad"><stop offset="0%" stop-color="#222"/><stop offset="100%" stop-color="silver"/></linearGradient><linearGradient id="N" gradientUnits="userSpaceOnUse" x1="489.475" y1="498.55" x2="496.725" y2="498.55" spreadMethod="pad"><stop offset="0%" stop-color="#A9A9A9"/><stop offset="49.02%" stop-color="#EBEBEB"/><stop offset="100%" stop-color="#A9A9A9"/></linearGradient><linearGradient id="O" gradientUnits="userSpaceOnUse" x1="470.4" y1="518.75" x2="473.7" y2="519.95" spreadMethod="pad"><stop offset="0%" stop-color="#FFF"/><stop offset="100%" stop-color="#FCC9B5"/></linearGradient><linearGradient id="P" gradientUnits="userSpaceOnUse" x1="472.475" y1="528.05" x2="478.125" y2="528.05" spreadMethod="pad"><stop offset="0%" stop-color="#FDF3E5"/><stop offset="100%" stop-color="#FCE5C7"/></linearGradient><linearGradient id="Q" gradientUnits="userSpaceOnUse" x1="475.05" y1="517.513" x2="475.05" y2="513.888" spreadMethod="pad"><stop offset="0%" stop-color="#FF2916"/><stop offset="100%" stop-color="#FCA289"/></linearGradient><linearGradient id="R" gradientUnits="userSpaceOnUse" x1="434.125" y1="483.262" x2="447.475" y2="504.637" spreadMethod="pad"><stop offset="0%" stop-color="#7F2D28"/><stop offset="100%" stop-color="#CEAEA2"/></linearGradient><linearGradient id="S" gradientUnits="userSpaceOnUse" x1="438.037" y1="504.512" x2="437.762" y2="488.488" spreadMethod="pad"><stop offset="0%" stop-color="#E6D5CD"/><stop offset="100%" stop-color="#914940"/></linearGradient><linearGradient id="T" gradientUnits="userSpaceOnUse" x1="510.238" y1="476.4" x2="491.963" y2="506.8" spreadMethod="pad"><stop offset="0%" stop-color="#7F2D28"/><stop offset="100%" stop-color="#CEAEA2"/></linearGradient><linearGradient id="U" gradientUnits="userSpaceOnUse" x1="509.563" y1="509.525" x2="510.337" y2="487.575" spreadMethod="pad"><stop offset="0%" stop-color="#E6D5CD"/><stop offset="100%" stop-color="#914940"/></linearGradient><linearGradient id="V" gradientUnits="userSpaceOnUse" x1="470.9" y1="485.512" x2="470.9" y2="432.787" spreadMethod="pad"><stop offset="0%" stop-color="#B8897D"/><stop offset="100%" stop-color="#68100E"/></linearGradient><linearGradient id="W" gradientUnits="userSpaceOnUse" x1="452.45" y1="486.512" x2="452.45" y2="462.088" spreadMethod="pad"><stop offset="0%" stop-color="#A06054"/><stop offset="100%" stop-color="#68100E"/></linearGradient><linearGradient id="X" gradientUnits="userSpaceOnUse" x1="455.1" y1="476.512" x2="455.1" y2="454.488" spreadMethod="pad"><stop offset="0%" stop-color="#A06054"/><stop offset="100%" stop-color="#68100E"/></linearGradient><linearGradient id="Y" gradientUnits="userSpaceOnUse" x1="478.238" y1="449.188" x2="434.363" y2="479.913" spreadMethod="pad"><stop offset="0%" stop-color="#914940"/><stop offset="69.02%" stop-color="#E6D5CD"/><stop offset="100%" stop-color="#B58275"/></linearGradient><linearGradient id="Z" gradientUnits="userSpaceOnUse" x1="491.087" y1="477.063" x2="478.212" y2="459.337" spreadMethod="pad"><stop offset="0%" stop-color="#711B17"/><stop offset="100%" stop-color="#590705"/></linearGradient><linearGradient id="aa" gradientUnits="userSpaceOnUse" x1="500.45" y1="460.825" x2="517.85" y2="485.675" spreadMethod="pad"><stop offset="0%" stop-color="#914940"/><stop offset="100%" stop-color="#A06054"/></linearGradient><linearGradient id="ab" gradientUnits="userSpaceOnUse" x1="500.463" y1="458.138" x2="516.638" y2="485.063" spreadMethod="pad"><stop offset="0%" stop-color="#A5685C"/><stop offset="100%" stop-color="#E6D5CD"/></linearGradient><linearGradient id="ac" gradientUnits="userSpaceOnUse" x1="470.425" y1="441.525" x2="436.775" y2="465.075" spreadMethod="pad"><stop offset="0%" stop-color="#7F2D28"/><stop offset="69.02%" stop-color="#CEAEA2"/><stop offset="100%" stop-color="#A06054"/></linearGradient><linearGradient id="ad" gradientUnits="userSpaceOnUse" x1="484.862" y1="476.35" x2="489.938" y2="454.35" spreadMethod="pad"><stop offset="0%" stop-color="#A06054"/><stop offset="100%" stop-color="#68100E"/></linearGradient><linearGradient id="ae" gradientUnits="userSpaceOnUse" x1="482.225" y1="451.1" x2="493.575" y2="476.6" spreadMethod="pad"><stop offset="0%" stop-color="#873B34"/><stop offset="56.863%" stop-color="#C9A599"/><stop offset="100%" stop-color="#AF7A6C"/></linearGradient><path fill="#FFF" fill-opacity="0" d="M284 0H0v320h284V0z" id="af"/><path fill="url(#a)" d="M488.7 577.85q8.7 2.15 9.75 6.25 1.25 4.95 4.75 7.7 2.35 1.8 7 3.35 5.05 1.7 6.55 2.65 3 1.9 3.5 5.4.35 2.55 1.5 2.55 1.1 0 1.35-2.35.95-7.5-3.75-12.55-3.05-3.25-3.3-3.65-1.55-2.15-1.4-4.75 2.1 4.55 8.4 6.9 3.2 1.2 4.15 1.8 1.9 1.2 2.35 3.2.55 2.8 1.9 2.25 1.35-.6 1.05-3.5-.6-5.45-3.95-9.85-5.85-7.6-5.85-7.65-3.25-5.65-2.8-13.1 1.2-8.7 1.2-13.65l-.8-44.45-50.45 5.2q0 5.65-.25 16.05-.1 9 .35 15.1 1.25 16.65 8.55 32.3.85 1.85 3.9 3 1.35.55 6.3 1.8z" id="ag"/><path fill="url(#b)" d="M526.2 484.25q-.8-13.05-5.05-22.55-5.75-12.75-18.45-21.95-.05 0 7.85 14.8 9.05 16.95 7.8 21.4-2.2 8.25-1.3 15.85 1.15 9.8 7.95 6.4.5-.25 4.45 3.8 4.5 4.6 5.5 8.45.35 1.8.85 2.55.35.4.7.15.35-.3.5-1.25.85-4.35-3.6-11.1-3.45-4.55-4.7-6.8-2.1-3.7-2.5-9.75z" id="ah"/><path fill="url(#c)" d="M422.25 487.95q1.817-.962 4.1-1.2l-3-3.15q-1.08 2.16-1.1 4.35m0 0q-3.435 1.953-5.05 6.7-2.4 6.95.75 14.3 2.35 5.5-.6 10-.8 1.2-2.5 3.45-1.7 2.15-2.45 3.35-1.75 2.6-2.65 5.4-1.05 3.3-.55 5.9.2 1 .55 1.25.35.2.7-.2.45-.6.85-2.45 1-3.85 5.7-8.35 4.05-3.9 4.7-3.75 6.8 3.4 7.95-6.3.85-7.6-1.35-15.85-.45-1.7-1.95-4.1-1.8-2.65-2.55-4-1.514-2.703-1.55-5.35z" id="ai"/><path fill="url(#d)" d="M503 578.55q-3-3.45-3.15-7.1-2.85 13.8 8.75 18.7 2.4 1.05 5.45 2.35 2.1 1.2 3.25 3.95.45.9.7 1.05.45.15.8-.05.4-.2.35-.8-.1-3.55-3.05-6.9-1.8-1.95-6.55-5.55-4.7-3.6-6.55-5.65z" id="aj"/><path fill="url(#e)" d="M499.7 566.35q-.05.3-2-1.45-2.3-2.05-3.65-1.3-.85.4-1.65 4.85-.65 3.8-.6 4.8.1 3.6 6.3 8.9 5.5 4.7 10.85 7 4.3 1.7 6.7 3.3 1.2.8 1.85 2.1.3.65.75 1.75.1.4.5.4t.35-.65q-.55-6.5-6.9-11.9-3.6-2.8-5.3-4.2-3.05-2.4-4.5-4.4-1.3-1.65-2.1-4.35-.85-2.8-.6-4.85z" id="ak"/><path fill="url(#f)" d="M503.25 516l-14.05 10.15q5.3 5.3 6.6 7.35 3.3 5.15 2.25 11.4-1.75 10.4 1.5 18.35 3.4 8.25 11.75 12.6 4.85 2.5 5.55-.25.25-.8-.55-1.9l-1.8-2.2q-4.3-4.7-4.75-12.05-.3-5.25 1.5-13.95 1.95-9.65.85-15.95-1.55-8.55-8.85-13.55z" id="al"/><path fill="url(#g)" d="M502.95 520.45l-9.55 4.4q5.65 5.65 7.35 10.25 1.75 4.55 1.05 12-.25 2.85 0 4.95.35 2.7 1.65 5.3 1.05 2 2.85 3.75 2.05 2 .85-1.9-1-3.3-.55-7.7.25-2.65 1.35-7.65 1.4-6.7.25-12.6-1.25-6.3-5.25-10.8z" id="am"/><path fill="url(#h)" d="M520.75 479.95q-3-6.65-7.3-4.6-3.2 1.45-7.8 8.25-3.2 4.7 1.05 13.5 1.2 2.5 7.3 11.7 4.15 6.3 4.15 11.95 0 3.4-2.1 9.3-2.5 7.2-.9 14.3 1.5 6.55 6.4 12.6 3.25 4.15 4.15 5.95 1.7 3.25 1.15 6.6-.4 2.8.7 2.8 1.1.05 2.35-2.45 2.7-5.6-.3-14.3-3.55-10.2-2.75-15.95.4-3.15 2.3-6.85 2.4-4.2 3.5-6.35 4.05-7.95 1.5-15.6-1.5-4.5-4.1-8.4-3-4.1-4.35-6.05-4.95-6.85-4.95-16.4z" id="an"/><path fill="url(#i)" d="M524.95 524.55q3.45-13.65-3.85-22.1 3.1 5.7 2.55 12.15-.5 5.75-3.7 11.15-3.7 6.1-3.6 12.2.15 6.15 4.2 13.25.4.7 3.65 5.75 2.3 3.55 3.25 6.2.4 1.25 1.15 1.15.75-.1.55-1.5 0-.25-.95-2.85-.9-2.5-.9-3.5.05-1.8-1.8-3.9-2.4-2.8-2.8-3.65-.7-1.55-1.1-4.4-.45-3.45-.8-4.6-.45-1.45 1.1-6 2.5-7.3 3.05-9.35z" id="ao"/><path fill="url(#j)" d="M523.1 536.95q.35-6.35 2.55-11.3 2.7-5.9 1.75-11.6-1.05-6.6-6.8-11.8 4.95 6.1 4 13.65-.5 4.45-3.8 11.35-3.4 7.15-2.6 13.1.65 4.6 4.65 11.6.9 1.6 2.5 4.35 1.3 2.45 2.15 5.2.55 1.85.8 2.25.55.55.8.05.45-.6.05-3.1-.35-2.8-1.75-6.25-1.7-3.9-2.55-5.9-2.1-4.75-1.75-11.6z" id="ap"/><path fill="url(#k)" d="M477.65 525.65q-.25-10.4-.25-16.05l-44.4 6.35-6.85 32.9q0 4.95 1.2 13.65.45 7.45-2.85 13.1-1.75 3.1-5.85 7.65-3.3 4.4-3.9 9.85-.3 2.9 1 3.5 1.3.55 1.95-2.25.45-2 2.3-3.2.95-.6 4.15-1.8 6.35-2.35 8.45-6.9.15 2.6-1.4 4.75-.3.4-3.35 3.65-4.75 5.05-3.8 12.55.35 2.35 1.45 2.35t1.45-2.55q.5-3.5 3.65-5.4 1.5-.9 6.85-2.65 4.8-1.55 7.25-3.35 3.65-2.75 4.9-7.7 1.05-4.1 9.3-6.25 4.75-1.25 6-1.8 2.95-1.15 3.8-3 7.3-15.65 8.6-32.3.45-6.1.35-15.1z" id="aq"/><path fill="url(#l)" d="M416.7 592.55q.25.15.6 0 .45-.2.55-.8.95-2.15 2.55-3.1 1.05-.6 4.25-1.8 4.5-1.9 5.8-5.6 1.15-3.25 0-8.6-.1 4.3-7 9.75t-7.05 9.5q0 .45.3.65z" id="ar"/><path fill="#84332E" d="M439.6 590.6q3.65-2.2 5.3-5.45 1.3-2.6 1.85-7.2.9-8.55 1.75-10.75 2.05-5.45 8-5.45l-2.7-18.8q-6.1 2.9-9.5 7.45-2.7 3.6-3.45 7.85-.6 3.75-.35 11.25.3 7.85-.05 10.8-.55 4-3.2 7.1-1.45 1.65-5.05 4.3l-2.9 1.8q-1.65 1.05-1.95 1.55-.35.55-.75 1.15-.2.35.2.8.5.5 1.3.1.45-.25 1.45-1.2.9-.85 1.7-1.25.8-.4 4.15-1.9 2.7-1.25 4.2-2.15z" id="as"/><path fill="url(#m)" d="M464.45 525.35l-12.05-5.8q2.95 11.75-.3 16-.6.8-4.1 4-3.15 2.95-5.3 6.2-2.2 3.5-3.1 8.8-.65 3.8-.7 9.4 0 .55.25 8.25.15 4.85-.2 7.6-.55 4.1-3.2 7.1-1.45 1.7-5.05 4.25-2.9 2.05-3.75 3.6-.6.85-.65 1.2-.1.45.25.9.55.8 2.05-.9 1.15-1.45 4.2-3.05 5.1-2.65 5.3-2.8 3.7-2.2 5.3-5.45 1.25-2.55 1.8-7.25 1-8.6 1.8-10.75 2.1-5.45 8-5.45 1.05-3.4 3.75-9.4 3.35-7.55 4.2-9.7 4.45-11.35 1.5-16.75z" id="at"/><path fill="url(#n)" d="M424.9 482.5q-6.3 6.3-7.3 12.25-1.1 6.2 3.2 13.55 3.75 6.25 1.25 11.7-1.5 3.2-6.35 9.6-3.95 6.55-3.75 12.3.15 4.8 3.55 12.35 1.25 2.7 4.15 8.75 1.8 5.4-1.05 9.5-1.25 1.7-.5 2.05.7.35 2.5-.8 4.85-2.9 6.55-8.95 2.4-8.35-1.6-21.6-1.45-4.85 0-7.4 2.9-3.55 5.5-7.1 3.05-3.9 4.55-5.85 2.7-3.5 3.75-6 3-7.05-3.55-13.65-6.45-6.45-8.15-9.2-2.75-4.55-2.75-11.5z" id="au"/><path fill="url(#o)" d="M439.75 465.95l-12.6 17.85q-2.4 5.75-.65 11.55 1.25 4.05 5.6 10.35 1.7 2.5 2.25 5.85.45 2.85 0 5.75-.4 1.95-1.55 3.95-.7 1.15-2.35 3.55-7.65 11.5-5.9 20.5.65 3.15 2.35 6.25 1.9 3.4 4.2 5 2.15 1.45 1.75-1.25-.5-2.6-.55-3.95-.15-2.15.4-3.9 1.15-3.75 4-6.8 1.05-1.1 5.35-4.7 6.65-5.55 6.65-12.75 0-17.6-8.95-31.25-2.85-4.2 1.4-11.05 4.15-6.75 9.1-6.75l-10.5-8.2z" id="av"/><path fill="url(#p)" d="M443.55 513.7q1.75 5.55-1.45 9.35-1.9 2.3-7.6 6.55-4 3.45-5.8 8.15-2.15 5.5-.45 11.15.75 2.45 1.95 3 1.15.55.9-1.6-.45-4.35.95-7.8 1.3-3.2 4.65-6.5 2.55-2.15 3.85-3.3 2.3-2.05 3.4-4 3.15-5.5-.4-15z" id="aw"/><path fill="url(#q)" d="M443.15 512.6q.35 1.15-1.5-.2-1.9-1.35-1.75-.55 1.15 5.15.45 8.5-.65 2.85-2.9 5-.15.15-4 3.55-2.35 2.1-3.65 3.9-4.7 6.55-2.3 14.4.75 2.5 1.65 3.55.85 1.05.6-1-.55-4.5.6-7.9 1.2-3.4 4.45-6.6 5.85-4.3 8.05-7.55 3.85-5.7.3-15.1z" id="ax"/><path fill="url(#r)" d="M420.4 540q0-2.6.8-6.1.4-1.8 1.5-5.65.6-2-.65-1.45-3.3 5.35-4.5 8.4-.95 2.35-1.35 5.7-.8 5.85 3.55 11.2.65.75 1.85 3.55 1.3 3.2 1.8 5.5.25 1.15-.15 2.55-.35 1-.15 1 .8-.15 1.3-.95 1.15-2 .45-6.2-.4-2.1-2.6-8.8-1.8-5.4-1.85-8.75z" id="ay"/><path fill="url(#s)" d="M419 540.2q.1-2.7.9-6.05.65-2.65 2.15-7.35-4.55 5.65-6.15 11-.95 3.85-.5 7.1.5 3.2 2.65 7.45l2.85 5.25q1.15 2.7 1.4 4.15.3.85.35 2 .05.75.25.85.4.15.75-.3.4-.55.55-1.7.2-.95.05-2.5-.2-1.65-.25-2.1-.55-2.9-2.3-7.2-1.5-3.85-1.95-5.4-.8-2.65-.75-5.2z" id="az"/><path fill="url(#t)" d="M421.75 587.2q.9-.4 2.6-1.15 4.35-1.8 5.7-5.75 1-2.95.4-7.9-.1 4.3-6.95 9.65-6.9 5.3-7 9.35 0 .45.3.55.25 0 .4-.35.3-.8.55-1.35.45-1 1.4-1.6 1-.7 2.6-1.45z" id="aA"/><path fill="#FBD7AB" d="M474.4 605.4q-.4-1.05-.4-1.7 0-.75.45-3.7t.45-3.65q0-2.1-6.3-1.55-5.95.55-7.4 1.85l.35 6.55q-.65.2-1 1.1-.4.9-.15 1.55.2.5.85.7.7.2 1.05-.35-.4 1.55.75 2.05.65.2 1.25 0 .645-.248.8-.9-.396 1.85 1.15 1.95.65.1 1.15-.25.526-.335.55-1-.02 1.798 1.75 1.7 1.352-.087 1.2-1.8.117.38.35.7.4.55.95.75.95.3 1.7-.25.85-.6.85-2 0-.75-.35-1.75z" id="aB"/><path fill="#FBCA91" d="M467.65 605.1q5.5 0 5.5-2.6v-5.65q0-.85-.6-1.45-.6-.55-1.4-.55h-7q-.85 0-1.4.55-.6.6-.6 1.45v5.65q0 2.6 5.5 2.6z" id="aC"/><path fill="#FCE5C7" d="M474.1 607.3q-.1-.85-1.4-.65-1.3.15-1.2 1l.05.5q.05.3.5.35.3 0 .95-.1.35-.05.85-.1.35-.1.3-.5l-.05-.5z" id="aD"/><path fill="#FCE5C7" d="M470.4 607.8q0-.65-1-.6-1.05.05-1 .7v.4q0 .4 1.1.3 1 0 .9-.35v-.45z" id="aE"/><path fill="#FCE5C7" d="M467.55 607.6q.1-.65-.9-.8-1.05-.15-1.15.5l-.05.45q-.05.2.3.35.2.05.7.15l.65.05q.3 0 .35-.3l.1-.4z" id="aF"/><path fill="#FCE5C7" d="M464.65 607q.25-.65-.65-1-.95-.35-1.2.2l-.15.45q-.15.3.85.7.25.1.65.25.25.05.35-.25l.15-.35z" id="aG"/><path fill="#FCE5C7" d="M462.15 605.55q.25-.45-.55-.75-.75-.35-.9.15l-.15.35q-.1.2.7.5.65.35.8.05l.1-.3z" id="aH"/><path fill="#FBD7AB" d="M475.7 603.7q0 .65-.3 1.7-.35 1-.35 1.75 0 1.4.8 2 .75.55 1.65.25.55-.2.95-.75.291-.4.35-.85-.081 1.858 1.25 1.95 1.675.096 1.75-1.6.012.59.5.9.5.35 1.2.25.6-.05.9-.45.4-.55.2-1.5.15.65.8.9.6.2 1.2 0 1.2-.45.8-2.05.4.55 1.1.35.65-.2.8-.7.2-.65-.15-1.55t-1-1.1l.4-6.55q-1.45-1.3-7.4-1.85-6.25-.55-6.25 1.55 0 .7.4 3.65t.4 3.7z" id="aI"/><path fill="#FBCA91" d="M476.55 602.5q0 2.6 5.5 2.6t5.5-2.6v-5.65q0-.85-.6-1.45-.6-.55-1.4-.55h-7q-.8 0-1.4.55-.6.6-.6 1.45v5.65z" id="aJ"/><path fill="#FCE5C7" d="M477.05 606.65q-1.25-.2-1.35.65l-.1.5q-.05.4.3.5.25.05.85.1.3.05.9.1.4-.05.45-.35l.1-.5q.1-.85-1.15-1z" id="aK"/><path fill="#FCE5C7" d="M480.3 607.2q-1.05-.05-1.05.6v.45q0 .35.95.35 1.1.1 1.1-.3l.05-.4q0-.65-1.05-.7z" id="aL"/><path fill="#FCE5C7" d="M483.15 606.8q-1.05.15-1 .8l.1.4q.05.3.35.3l.65-.05q.25-.05.7-.15.35-.15.35-.35l-.05-.45q-.1-.65-1.1-.5z" id="aM"/><path fill="#FCE5C7" d="M485.75 606q-.95.4-.7 1l.15.35q.05.3.35.25.2-.05.65-.25 1-.4.85-.7l-.15-.45q-.25-.55-1.15-.2z" id="aN"/><path fill="#FCE5C7" d="M488.1 604.8q-.75.3-.55.75l.15.3q.05.3.8-.05.75-.3.65-.5l-.1-.35q-.2-.5-.95-.15z" id="aO"/><path fill="url(#u)" d="M490.35 562q-.55-2.85.1-5.3 3.55-8.85 3.55-12.3.1-5.7-10.7-5.7l-8.4 2.85-8.5-2.85q-10.8 0-10.7 5.7.05 3.45 3.55 12.3.65 2.45.1 5.3-.7 3.25-2.9 6.4-4 5.55-5.65 10.7-2.15 6.6-4.15 10.2-.5.95-1.65 2.95-.85 1.85-.65 3.4.1.9 1.3 1.45.8.35 3.4 1.35 8.45 4.1 26.55 4.25 18.3.15 25.9-3.95 3.85-2.1 3.7-4.55-.05-1.15-2.15-4.9-2.1-3.8-4.2-10.2-1.65-5.2-5.55-10.7-2.25-3.1-2.95-6.4z" id="aP"/><path fill="#FF3626" d="M462.8 588.05q.6-7.85-1-14.95-.95 7.95-3 14.35-1.75 5.4-3.95 8.9l6.3 2.6q1.35-7.1 1.65-10.9z" id="aQ"/><path fill="#FF3626" d="M478.25 590.6q-.65-7.85-3.3-14.6.6 14.7-3.15 24.05l6.55 1.5q.25-6.9-.1-10.95z" id="aR"/><path fill="#FF3626" d="M489.8 573.55q-.75 7.2.7 14.9.85 4.3 2.9 10.7l5.9-3.1q-2.6-3.35-4.9-8.55-2.75-6.2-4.6-13.95z" id="aS"/><path fill="#BDD121" d="M474.9 552q-.8 0-.8.8v21.3q0 .8.8.8.3 0 .55-.25.25-.2.25-.55v-21.3q0-.35-.25-.55-.25-.25-.55-.25z" id="aT"/><path fill="url(#v)" d="M468.65 560.6q-.6-2.1-1.95-2.4-4-.85-7.15-.85.95-4.25 1.05-10.05.1-5.75-.75-7.8-5.9-1.6-10 8.7-1.6 4.1-2.15 8.35-.55 4.25.25 6.4 1.05 2.95 5.55 5.45 4.8 2.65 10.45 2.85 4.2.15 5-6.15.3-2.5-.3-4.5z" id="aU"/><path fill="#F82815" d="M465.45 560.55q-1.35.35-2.3-.5-1.7-1.55-2.45-.55-.75 1 1.6 1.65 1.3.35.55 1.35-.75 1.05-2.15.75-2.9-.75-3.25.35-.4 1.4 3.05 1.6 1.6.05 1.65 1.3.05 1.2-1.45 1.25-2 .1-1.65 1.1.3.95 2.35.2 1.4-.4 1.9.15 1.2 1.4 3.45.45l.85-8.65q-.85-.8-2.15-.45z" id="aV"/><path fill="#DB2211" d="M454.6 556.9l5.25.45q.65-2.65.8-6.8.2-3.75-.1-6.6-.55 7.5-.75 8.2-1.15 4.8-5.2 4.75z" id="aW"/><path fill="url(#w)" d="M489.1 547.3q.1 5.8 1.05 10.05-3.05 0-7.15.85-1.3.3-1.95 2.4-.6 2-.25 4.5.75 6.3 4.95 6.15 5.65-.2 10.45-2.85 4.45-2.45 5.6-5.45.8-2.15.25-6.4t-2.15-8.35q-4.15-10.3-10.05-8.7-.85 2.05-.75 7.8z" id="aX"/><path fill="#F82815" d="M489 559.5q-.75-1-2.45.55-.9.85-2.25.5t-2.15.45l.85 8.65q2.25.95 3.4-.45.6-.55 1.85-.15 2.1.75 2.45-.2.35-1-1.7-1.1-1.5-.05-1.4-1.25.05-1.25 1.6-1.3 3.5-.2 3.1-1.6-.4-1.1-3.3-.35-1.35.3-2.1-.75-.8-1 .5-1.35 2.35-.65 1.6-1.65z" id="aY"/><path fill="#DB2211" d="M489.85 557.35l5.35-.45q-4.05.05-5.25-4.75-.25-.85-.8-8.2-.3 2.75-.1 6.6.2 4.1.8 6.8z" id="aZ"/><path fill="url(#x)" d="M472 599.15q-1.35 2.25-4.8.6-4.1-2.65-6-3.7-1.95-1-3.85-.95-2.15.05-2.85 1.55-1.25 2.55-4 1.5-1.3-.45-4.35-2.75-1.3-.9-1.7-.2-.45.55.5 1.6 2.15 2.85 10.55 5 8.55 2.2 18.8 2.5 10.6.2 19.05-1.9 9.5-2.4 11.7-6.75.3-.7-.15-.9-.2-.05-.65.25-.25.2-.7.55-1.65 1.3-2.05 1.4-.6.15-1.85-.75-1.45-1-2.9-.45-1.3.45-4 2.7-2.75 2.25-5.5 1.9-1.15-.15-4.5-1.7-4.1-1.9-6.15-2-2.95-.2-4.6 2.5z" id="ba"/><path fill="#FBD7AB" d="M470.4 560.2q-2.35.55-3.5.85-2.1.5-2.8 1.85-.8 1.4-.7 3.2.1 1.8 1.05 2.95 1.1 1.45 4.45 1.75 3.3.25 4.75-.95.85-.6 1.1-2.35.25-1.7-.15-3.45-.25-1.1-1.3-1.35-.3-.05-2.75-.05 1.35-.15 2.5-1.35 1.25-1.3.45-2.25-.45-.6-1.25 0-1.45 1-1.85 1.15z" id="bb"/><path fill="#FBAC59" d="M470.9 564.75q.65.1 2.1.05 1.15.05 1.1.9 0 .5-1.05.7-1.3.15-1.75.3.45.1 1.8 0 1.15.05 1.15.85 0 .65-1.35.8-1.45.1-1.75.2 2.3 0 2.45.75.08.595-.6.95.44-.19.65-.4.85-.6 1.1-2.35.25-1.7-.15-3.45-.2-.8-.65-1.1.45.7-.05 1.15-.5.35-3 .65z" id="bc"/><path fill="#FCE5C7" d="M469.4 563.1q-.35 0-.35.5 0 .55.35.55t.35-.55q0-.5-.35-.5z" id="bd"/><path fill="#FCE5C7" d="M469.75 565.3q-.1 0-.2.2-.15.2-.15.4t.15.4q.1.2.2.2.45 0 .45-.6t-.45-.6z" id="be"/><path fill="#FCE5C7" d="M469.9 567.4q-.35 0-.35.6 0 .5.35.5t.35-.5q0-.6-.35-.6z" id="bf"/><path fill="#FCE5C7" d="M469.55 569.35q-.35 0-.35.5 0 .6.35.6t.35-.6q0-.5-.35-.5z" id="bg"/><path fill="#FBCA91" d="M468.55 564.1q-.1-1.1-1-1.5-.9-.4-1.85-.25-1.05.15-1.85.95l-.05.1q-.55 1.4-.4 3 .2 1.65 1.05 2.65.7.9 2.75 1.45.9-.25 1.2-1.1.15-.5.2-1.75 0-3.2-.05-3.55z" id="bh"/><path fill="#FBD7AB" d="M475.1 564.05q-.4 1.8-.15 3.45.25 1.75 1.1 2.35 1.45 1.2 4.75.95 3.35-.3 4.45-1.75.95-1.1 1.1-2.95.1-1.8-.65-3.2-.75-1.35-2.85-1.85-2.5-.45-3.6-.85-.25-.1-1.75-1.15-.8-.6-1.3 0-.8.95.45 2.25 1.15 1.2 2.5 1.35-2.4 0-2.7.05-1.05.25-1.35 1.35z" id="bi"/><path fill="#FBAC59" d="M475.8 562.95q-.45.25-.7 1.1-.4 1.8-.15 3.45.25 1.75 1.1 2.35.217.26.85.5-.89-.372-.8-1.05.15-.75 2.45-.75-1.05-.1-1.75-.2-1.35-.15-1.35-.8 0-.8 1.15-.85h1.8q-1.1-.2-1.7-.3-1.1-.2-1.1-.7 0-.85 1.15-.9.65-.05 2-.05-2.4-.3-2.85-.65-.65-.45-.1-1.15z" id="bj"/><path fill="#FCE5C7" d="M480.65 563.6q0-.5-.35-.5-.4 0-.4.5 0 .55.4.55.35 0 .35-.55z" id="bk"/><path fill="#FCE5C7" d="M480.3 565.9q0-.6-.4-.6-.35 0-.35.6t.35.6q.4 0 .4-.6z" id="bl"/><path fill="#FCE5C7" d="M480.2 568q0-.6-.35-.6-.45 0-.45.6 0 .5.45.5.35 0 .35-.5z" id="bm"/><path fill="#FCE5C7" d="M480.5 569.85q0-.5-.35-.5t-.35.5q0 .6.35.6t.35-.6z" id="bn"/><path fill="#FBCA91" d="M482.5 570.5q2-.5 2.75-1.45.85-1 1-2.65.2-1.6-.35-3l-.05-.1q-.75-.8-1.8-.95-1-.15-1.8.25-1 .4-1.1 1.5-.2 1.3 0 3.55 0 1.2.2 1.75.3.85 1.15 1.1z" id="bo"/><path fill="url(#y)" d="M471.1 562.15q1.45 1.05 3.65.5.55-3.05-1-5.25-1.45-2-4-2.6-2.6-.65-5 .55-2.6 1.3-3.9 4.3 1.1-1.6 4-1.55 2.9.05 4.35 1.9 1.35 1.75 1.9 2.15z" id="bp"/><path fill="#B5C91F" d="M470.95 556.45q-2.35-1.15-5.3 0 3.15-.85 5.3.8 1.25.95 3.3 4.2-.65-3.7-3.3-5z" id="bq"/><path fill="#FE6149" d="M453.2 542.25q.584-.764 1.65-1.2 1.25-.7 1.65-.15.55.6-.4 1.95-.1.15-.75 1-.55.95-.3 1.4.25.4.85.05.6-.85.85-1.2.65-1.25 1.55-1.25.7 0 .7 1.9t.5 1.95q.55 0 .8-1.55t.05-3.5l-.2-1.5q-.2-.7-1.1-.9-1.45-.3-3.1.55-1.625.837-2.75 2.45z" id="br"/><path fill="#FE6149" d="M490.6 539.25q-.85.2-1.1.9 0 .1-.2 1.5-.2 2 .05 3.5.3 1.55.8 1.55.45-.05.45-1.95t.7-1.9q.85 0 1.6 1.25.5.9.9 1.2.6.35.8-.05.25-.45-.3-1.4l-.7-1q-.95-1.35-.5-1.95.4-.45 1.75.15.987.472 1.4 1.05-1.002-1.501-2.6-2.3-1.65-.85-3.05-.55z" id="bs"/><path fill="url(#z)" d="M465.25 538.25q-1.35.35-1.5 1.05-.15.5.4 1.7 1.35 2.75 4.5 4.3 2.75 1.3 6.25 1.4 3.55-.1 6.25-1.4 3.15-1.55 4.4-4.3.55-1.2.45-1.7-.2-.7-1.55-1.05-1.6-.3-2.25-.55-1.2-.4-1.2-1.2v-3.65h-12.3v3.65q0 .8-1.15 1.2-.05.05-2.3.55z" id="bt"/><path fill="url(#A)" d="M481.05 544.15q1.6-2.7-1.3-4.4-2.9-1.7-4.5 1l-.35.9-.45-.9q-1.55-2.7-4.5-1-2.9 1.7-1.35 4.4l.5.8q-.35-.05-.9-.05-3.15 0-3.15 3.4 0 3.35 3.15 3.35l.9-.1-.5.8q-1.55 2.7 1.35 4.4 2.95 1.7 4.5-1.05l.45-.8.35.8q1.6 2.75 4.5 1.05t1.3-4.4q-.15-.4-.5-.8l.95.1q3.15 0 3.15-3.35 0-3.4-3.15-3.4l-.95.05q.4-.45.5-.8z" id="bu"/><path fill="url(#B)" d="M474.9 544.9q-1.4 0-2.4 1-1 .95-1 2.35 0 1.45 1 2.4 1 1 2.4 1 1.35 0 2.35-1 .95-1 .95-2.4t-.95-2.35q-1-1-2.35-1z" id="bv"/><path fill="url(#C)" d="M474.9 545.5q-.95 0-1.6.45-.65.4-.65 1 0 .55.65 1 .65.4 1.6.4.85 0 1.5-.4.65-.45.65-1 0-.6-.65-1-.65-.45-1.5-.45z" id="bw"/><path fill="url(#D)" d="M470.25 540.1q-.75.5-1.1 1.2-.35.65-.1 1.15.35.5 1.1.55.75 0 1.5-.45.8-.4 1.15-1.1.35-.7.05-1.2-.25-.5-1.05-.5-.75-.05-1.55.35z" id="bx"/><path fill="url(#E)" d="M480.55 541.3q-.35-.7-1.15-1.2-.8-.4-1.55-.35-.75 0-1 .5-.35.5 0 1.2t1.15 1.1q.8.45 1.55.45.75-.05 1-.55.35-.5 0-1.15z" id="by"/><path fill="url(#F)" d="M509.35 492.6q-.3-1.85-.1-9.95.15-7.45-.45-9.5-3.3-11.8-12.15-17.4-8.3-5.2-21.9-5.25-13.6.05-21.85 5.25-8.85 5.55-12.2 17.4-.55 2-.4 9.5.2 8.05-.1 9.95-1.7 10.95-.15 17.55 1.85 7.95 9.05 14.65 5.15 4.8 11.75 7.5 6.75 2.75 13.9 2.8 7.15-.05 13.9-2.8 6.6-2.7 11.8-7.5 7.2-6.7 9-14.65 1.5-6.5-.1-17.55z" id="bz"/><path fill="#FDF3E5" d="M475.3 509.15q-.5 0-.9.4-.4.45-.4 1t.4.95q.35.4.9.4t.95-.4q.35-.4.35-.95 0-.55-.35-1-.4-.4-.95-.4z" id="bA"/><path fill="#FCE5C7" d="M453.5 504q-3.7 0-6.3 2.65-2.65 2.6-2.65 6.35 0 3.65 2.65 6.3 2.6 2.6 6.3 2.6 3.7 0 6.35-2.6 2.6-2.6 2.6-6.3 0-3.75-2.6-6.35-2.65-2.65-6.35-2.65z" id="bB"/><path fill="#FCE4C6" d="M453.5 504.2q-3.6 0-6.15 2.55-2.6 2.6-2.6 6.25 0 3.55 2.6 6.15 2.55 2.55 6.15 2.55 3.65 0 6.2-2.55 2.55-2.55 2.55-6.15 0-3.65-2.55-6.25-2.55-2.55-6.2-2.55z" id="bC"/><path fill="#FCE4C5" d="M453.5 504.35q-3.5 0-6.05 2.55-2.5 2.55-2.5 6.1 0 3.5 2.5 6 2.55 2.5 6.05 2.5 3.55 0 6.05-2.5t2.5-6q0-3.55-2.5-6.1t-6.05-2.55z" id="bD"/><path fill="#FCE3C4" d="M453.5 504.55q-3.45 0-5.9 2.5-2.45 2.45-2.45 5.95 0 3.4 2.45 5.85 2.45 2.45 5.9 2.45 3.5 0 5.9-2.45 2.45-2.4 2.45-5.85 0-3.5-2.45-5.95-2.4-2.5-5.9-2.5z" id="bE"/><path fill="#FCE2C3" d="M453.5 504.75q-3.35 0-5.75 2.4-2.4 2.45-2.4 5.85 0 3.35 2.4 5.75t5.75 2.4q3.4 0 5.8-2.4 2.35-2.4 2.35-5.75 0-3.4-2.35-5.85-2.4-2.4-5.8-2.4z" id="bF"/><path fill="#FCE1C2" d="M453.5 504.95q-3.25 0-5.6 2.35-2.35 2.35-2.35 5.7 0 3.25 2.35 5.6 2.35 2.35 5.6 2.35 3.3 0 5.65-2.35 2.3-2.3 2.3-5.6 0-3.35-2.3-5.7t-5.65-2.35z" id="bG"/><path fill="#FCE1C1" d="M453.5 505.15q-3.2 0-5.45 2.3-2.3 2.3-2.3 5.55 0 3.2 2.3 5.45 2.25 2.3 5.45 2.3t5.5-2.3q2.25-2.25 2.25-5.45 0-3.25-2.25-5.55t-5.5-2.3z" id="bH"/><path fill="#FCE0C0" d="M453.5 505.35q-3.1 0-5.35 2.25-2.2 2.2-2.2 5.4 0 3.1 2.2 5.35 2.25 2.2 5.35 2.2 3.15 0 5.4-2.2 2.2-2.25 2.2-5.35 0-3.2-2.2-5.4-2.25-2.25-5.4-2.25z" id="bI"/><path fill="#FCDFBF" d="M453.5 505.55q-3.05 0-5.2 2.15-2.15 2.2-2.15 5.3 0 3.05 2.15 5.2 2.15 2.15 5.2 2.15 3.05 0 5.25-2.15 2.15-2.15 2.15-5.2 0-3.1-2.15-5.3-2.15-2.15-5.25-2.15z" id="bJ"/><path fill="#FCDEBE" d="M453.5 505.75q-2.95 0-5.1 2.1-2.1 2.15-2.1 5.15 0 2.95 2.1 5.05 2.15 2.1 5.1 2.1 3 0 5.1-2.1 2.1-2.1 2.1-5.05 0-3.05-2.1-5.15-2.1-2.1-5.1-2.1z" id="bK"/><path fill="#FCDDBD" d="M453.5 505.95q-2.9 0-4.95 2.05-2.05 2.1-2.05 5 0 2.85 2.05 4.9 2.05 2.05 4.95 2.05 2.9 0 4.95-2.05 2.05-2.05 2.05-4.9 0-2.95-2.05-5t-4.95-2.05z" id="bL"/><path fill="#FCDDBC" d="M453.5 506.1q-2.8 0-4.8 2.05-2 2-2 4.85 0 2.8 2 4.75 2 2 4.8 2 2.85 0 4.85-2 1.95-1.95 1.95-4.75 0-2.85-1.95-4.85-2-2.05-4.85-2.05z" id="bM"/><path fill="#FCDCBC" d="M453.5 506.3q-2.7 0-4.65 1.95-1.95 2-1.95 4.75 0 2.7 1.95 4.65 1.95 1.9 4.65 1.9 2.75 0 4.65-1.9 1.95-1.95 1.95-4.65 0-2.75-1.95-4.75-1.9-1.95-4.65-1.95z" id="bN"/><path fill="#FCDBBB" d="M453.5 506.5q-2.65 0-4.5 1.9-1.9 1.9-1.9 4.6 0 2.65 1.9 4.5 1.9 1.9 4.5 1.9 2.65 0 4.55-1.9 1.85-1.85 1.85-4.5 0-2.7-1.85-4.6-1.9-1.9-4.55-1.9z" id="bO"/><path fill="#FCDABA" d="M453.5 506.7q-2.55 0-4.35 1.85-1.85 1.85-1.85 4.45 0 2.55 1.85 4.4 1.8 1.8 4.35 1.8 2.6 0 4.4-1.8 1.8-1.85 1.8-4.4 0-2.6-1.8-4.45t-4.4-1.85z" id="bP"/><path fill="#FCD9B9" d="M453.5 506.9q-2.5 0-4.25 1.8-1.75 1.75-1.75 4.3 0 2.5 1.75 4.25 1.8 1.75 4.25 1.75 2.5 0 4.3-1.75 1.75-1.75 1.75-4.25 0-2.55-1.75-4.3-1.8-1.8-4.3-1.8z" id="bQ"/><path fill="#FCD9B8" d="M453.5 507.1q-2.4 0-4.1 1.7-1.7 1.75-1.7 4.2 0 2.4 1.7 4.1 1.7 1.7 4.1 1.7 2.45 0 4.15-1.7 1.7-1.7 1.7-4.1 0-2.45-1.7-4.2-1.7-1.7-4.15-1.7z" id="bR"/><path fill="#FCD8B7" d="M453.5 507.3q-2.35 0-3.95 1.65-1.65 1.65-1.65 4.05 0 2.3 1.65 3.95 1.65 1.65 3.95 1.65 2.35 0 4-1.65t1.65-3.95q0-2.4-1.65-4.05t-4-1.65z" id="bS"/><path fill="#FCD7B6" d="M453.5 507.5q-2.25 0-3.8 1.6-1.6 1.6-1.6 3.9 0 2.2 1.6 3.8 1.55 1.6 3.8 1.6t3.85-1.6q1.6-1.6 1.6-3.8 0-2.3-1.6-3.9t-3.85-1.6z" id="bT"/><path fill="#FCD6B5" d="M453.5 507.7q-2.2 0-3.7 1.55-1.55 1.55-1.55 3.75 0 2.15 1.55 3.65 1.55 1.55 3.7 1.55 2.15 0 3.7-1.55 1.55-1.5 1.55-3.65 0-2.2-1.55-3.75-1.5-1.55-3.7-1.55z" id="bU"/><path fill="#FCD6B4" d="M453.5 507.9q-2.05 0-3.55 1.5t-1.5 3.6q0 2.05 1.5 3.55 1.5 1.45 3.55 1.45 2.1 0 3.6-1.45 1.45-1.5 1.45-3.55 0-2.15-1.45-3.6-1.5-1.5-3.6-1.5z" id="bV"/><path fill="#FCD5B3" d="M453.5 508.05q-2 0-3.4 1.45-1.45 1.45-1.45 3.5 0 2 1.45 3.4 1.4 1.4 3.4 1.4t3.45-1.4q1.4-1.4 1.4-3.4 0-2.05-1.4-3.5-1.4-1.45-3.45-1.45z" id="bW"/><path fill="#FCD4B2" d="M453.5 508.25q-1.9 0-3.3 1.4-1.35 1.35-1.35 3.35 0 1.9 1.35 3.25 1.4 1.35 3.3 1.35 1.95 0 3.35-1.35 1.35-1.35 1.35-3.25 0-2-1.35-3.35-1.4-1.4-3.35-1.4z" id="bX"/><path fill="#FCD3B1" d="M453.5 508.45q-1.85 0-3.15 1.3-1.3 1.35-1.3 3.25 0 1.85 1.3 3.15 1.3 1.3 3.15 1.3 1.85 0 3.2-1.3 1.3-1.3 1.3-3.15 0-1.9-1.3-3.25-1.3-1.3-3.2-1.3z" id="bY"/><path fill="#FCD2B0" d="M453.5 508.65q-1.75 0-3 1.25t-1.25 3.1q0 1.75 1.25 3t3 1.25q1.8 0 3.05-1.25 1.25-1.25 1.25-3 0-1.85-1.25-3.1t-3.05-1.25z" id="bZ"/><path fill="#FCD2AF" d="M453.5 508.85q-1.7 0-2.85 1.2-1.2 1.2-1.2 2.95 0 1.65 1.2 2.85 1.15 1.2 2.85 1.2 1.7 0 2.9-1.2t1.2-2.85q0-1.75-1.2-2.95-1.2-1.2-2.9-1.2z" id="ca"/><path fill="#FCD1AE" d="M453.5 509.05q-1.6 0-2.75 1.15-1.1 1.15-1.1 2.8 0 1.6 1.1 2.7 1.15 1.15 2.75 1.15t2.75-1.15q1.15-1.1 1.15-2.7 0-1.65-1.15-2.8t-2.75-1.15z" id="cb"/><path fill="#FCD0AD" d="M453.5 509.25q-1.5 0-2.55 1.1-1.1 1.1-1.1 2.65 0 1.5 1.1 2.6 1.05 1.05 2.55 1.05 1.55 0 2.6-1.05 1.1-1.1 1.1-2.6 0-1.55-1.1-2.65-1.05-1.1-2.6-1.1z" id="cc"/><path fill="#FCCFAC" d="M453.5 509.45q-1.45 0-2.45 1.05-1.05 1-1.05 2.5 0 1.4 1.05 2.45 1 1 2.45 1 1.45 0 2.5-1 1-1 1-2.45 0-1.5-1-2.5-1.05-1.05-2.5-1.05z" id="cd"/><path fill="#FCCEAB" d="M453.5 509.65q-1.35 0-2.3.95-1 1-1 2.4 0 1.35 1 2.3.95.95 2.3.95 1.4 0 2.35-.95 1-.95 1-2.3 0-1.4-1-2.4-.95-.95-2.35-.95z" id="ce"/><path fill="#FCCDAB" d="M453.5 509.8q-1.3 0-2.2.95-.9.9-.9 2.25 0 1.25.9 2.15.9.9 2.2.9 1.3 0 2.25-.9.9-.85.9-2.15 0-1.35-.9-2.25-.95-.95-2.25-.95z" id="cf"/><path fill="#FCCDAA" d="M453.5 510q-1.2 0-2.05.85-.85.9-.85 2.15 0 1.2.85 2.05.85.8 2.05.8 1.2 0 2.1-.8.85-.85.85-2.05 0-1.25-.85-2.15-.9-.85-2.1-.85z" id="cg"/><path fill="#FCCCA9" d="M453.5 510.2q-1.15 0-1.9.8-.8.8-.8 2 0 1.1.8 1.9.8.8 1.9.8 1.1 0 1.95-.8.8-.8.8-1.9 0-1.2-.8-2t-1.95-.8z" id="ch"/><path fill="#FCCBA8" d="M453.5 510.4q-1.05 0-1.75.75-.75.75-.75 1.85 0 1 .75 1.75.7.75 1.75.75t1.8-.75q.75-.75.75-1.75 0-1.1-.75-1.85t-1.8-.75z" id="ci"/><path fill="#FCCAA7" d="M453.5 510.6q-.95 0-1.65.7-.65.7-.65 1.7 0 .95.65 1.6.7.7 1.65.7t1.65-.7q.7-.65.7-1.6 0-1-.7-1.7-.65-.7-1.65-.7z" id="cj"/><path fill="#FCC9A6" d="M453.5 510.8q-.85 0-1.5.65-.6.6-.6 1.55 0 .85.6 1.5.65.6 1.5.6.9 0 1.55-.6.6-.65.6-1.5 0-.95-.6-1.55-.65-.65-1.55-.65z" id="ck"/><path fill="#FCC9A5" d="M453.5 511q-.8 0-1.35.55-.55.6-.55 1.45 0 .8.55 1.35t1.35.55q.85 0 1.4-.55.6-.55.6-1.35 0-.85-.6-1.45-.55-.55-1.4-.55z" id="cl"/><path fill="#FCC8A4" d="M453.5 511.2q-.7 0-1.2.5t-.5 1.3q0 .7.5 1.2t1.2.5q.7 0 1.25-.5t.55-1.2q0-.75-.55-1.3-.5-.5-1.25-.5z" id="cm"/><path fill="#FCC7A3" d="M453.5 511.4q-.65 0-1.1.45-.45.45-.45 1.15 0 .65.45 1.05.45.45 1.1.45.65 0 1.1-.45.5-.4.5-1.05 0-.7-.5-1.15-.45-.45-1.1-.45z" id="cn"/><path fill="#FCC6A2" d="M453.5 511.6q-.55 0-.95.4-.4.4-.4 1 0 .55.4.95.4.35.95.35.55 0 1-.35.4-.4.4-.95 0-.6-.4-1t-1-.4z" id="co"/><path fill="#FCC5A1" d="M453.5 511.75q-.5 0-.8.35-.35.35-.35.9 0 .45.35.8.3.3.8.3t.85-.3q.35-.35.35-.8 0-.55-.35-.9t-.85-.35z" id="cp"/><path fill="#FCC5A0" d="M453.5 511.95q-.95 0-.95 1.05 0 .4.25.65.3.3.7.3.4 0 .7-.3.3-.25.3-.65 0-1.05-1-1.05z" id="cq"/><path fill="#FCC49F" d="M453.5 512.15q-.75 0-.75.85 0 .75.75.75.35 0 .55-.2.25-.25.25-.55 0-.85-.8-.85z" id="cr"/><path fill="#FCC39E" d="M453.5 512.35q-.55 0-.55.65 0 .55.55.55.6 0 .6-.55 0-.65-.6-.65z" id="cs"/><path fill="#FCC29E" d="M453.5 512.55q-.35 0-.35.45 0 .35.35.35.45 0 .45-.35 0-.45-.45-.45z" id="ct"/><path fill="#FCE5C7" d="M496 504q-3.7 0-6.3 2.65-2.65 2.6-2.65 6.35 0 3.65 2.65 6.3 2.6 2.6 6.3 2.6 3.7 0 6.35-2.6 2.65-2.6 2.65-6.3 0-3.75-2.65-6.35Q499.7 504 496 504z" id="cu"/><path fill="#FCE4C6" d="M496 504.2q-3.6 0-6.15 2.55-2.6 2.6-2.6 6.25 0 3.55 2.6 6.15 2.55 2.55 6.15 2.55 3.65 0 6.2-2.55 2.6-2.6 2.6-6.15 0-3.65-2.6-6.25-2.55-2.55-6.2-2.55z" id="cv"/><path fill="#FCE4C5" d="M496 504.35q-3.5 0-6.05 2.55-2.5 2.55-2.5 6.1 0 3.5 2.5 6 2.55 2.5 6.05 2.5 3.55 0 6.1-2.5 2.5-2.5 2.5-6 0-3.55-2.5-6.1-2.55-2.55-6.1-2.55z" id="cw"/><path fill="#FCE3C4" d="M496 504.55q-3.45 0-5.9 2.5-2.45 2.45-2.45 5.95 0 3.4 2.45 5.85 2.45 2.45 5.9 2.45 3.5 0 5.95-2.45t2.45-5.85q0-3.5-2.45-5.95-2.45-2.5-5.95-2.5z" id="cx"/><path fill="#FCE2C3" d="M496 504.75q-3.35 0-5.75 2.4-2.4 2.45-2.4 5.85 0 3.35 2.4 5.75t5.75 2.4q3.35 0 5.8-2.4 2.4-2.4 2.4-5.75 0-3.4-2.4-5.85-2.4-2.4-5.8-2.4z" id="cy"/><path fill="#FCE1C2" d="M496 504.95q-3.3 0-5.65 2.35-2.35 2.35-2.35 5.7 0 3.25 2.35 5.6 2.35 2.35 5.65 2.35 3.3 0 5.65-2.35 2.35-2.35 2.35-5.6 0-3.35-2.35-5.7t-5.65-2.35z" id="cz"/><path fill="#FCE1C1" d="M496 505.15q-3.25 0-5.5 2.3-2.3 2.3-2.3 5.55 0 3.2 2.3 5.45 2.3 2.3 5.5 2.3t5.5-2.3q2.3-2.25 2.3-5.45 0-3.25-2.3-5.55-2.25-2.3-5.5-2.3z" id="cA"/><path fill="#FCE0C0" d="M496 505.35q-3.1 0-5.35 2.25-2.25 2.25-2.25 5.4 0 3.1 2.25 5.35 2.25 2.2 5.35 2.2 3.15 0 5.4-2.2 2.2-2.25 2.2-5.35 0-3.2-2.2-5.4-2.25-2.25-5.4-2.25z" id="cB"/><path fill="#FCDFBF" d="M496 505.55q-3.05 0-5.2 2.15-2.2 2.2-2.2 5.3 0 3.05 2.2 5.2 2.15 2.15 5.2 2.15 3.05 0 5.25-2.15 2.15-2.15 2.15-5.2 0-3.1-2.15-5.3-2.15-2.15-5.25-2.15z" id="cC"/><path fill="#FCDEBE" d="M496 505.75q-2.95 0-5.1 2.1-2.1 2.15-2.1 5.15 0 2.95 2.1 5.05 2.15 2.1 5.1 2.1 3 0 5.15-2.1 2.1-2.1 2.1-5.05 0-3.05-2.1-5.15-2.15-2.1-5.15-2.1z" id="cD"/><path fill="#FCDDBD" d="M496 505.95q-2.9 0-4.95 2.05-2.05 2.1-2.05 5 0 2.85 2.05 4.9 2.05 2.05 4.95 2.05 2.9 0 5-2.05 2.05-2.05 2.05-4.9 0-2.9-2.05-5-2.05-2.05-5-2.05z" id="cE"/><path fill="#FCDDBC" d="M496 506.1q-2.8 0-4.8 2.05-2 2-2 4.85 0 2.8 2 4.75 2 2 4.8 2 2.85 0 4.85-2 2-1.95 2-4.75 0-2.85-2-4.85-2-2.05-4.85-2.05z" id="cF"/><path fill="#FCDCBC" d="M496 506.3q-2.75 0-4.65 1.95-1.95 2-1.95 4.75 0 2.7 1.95 4.65 1.9 1.9 4.65 1.9 2.75 0 4.7-1.9 1.95-1.95 1.95-4.65 0-2.75-1.95-4.75-1.95-1.95-4.7-1.95z" id="cG"/><path fill="#FCDBBB" d="M496 506.5q-2.65 0-4.55 1.9-1.85 1.9-1.85 4.6 0 2.65 1.85 4.5 1.9 1.9 4.55 1.9t4.55-1.9q1.9-1.85 1.9-4.5 0-2.7-1.9-4.6-1.9-1.9-4.55-1.9z" id="cH"/><path fill="#FCDABA" d="M496 506.7q-2.6 0-4.4 1.85-1.8 1.85-1.8 4.45 0 2.55 1.8 4.4 1.8 1.8 4.4 1.8 2.6 0 4.4-1.8 1.85-1.85 1.85-4.4 0-2.6-1.85-4.45-1.8-1.85-4.4-1.85z" id="cI"/><path fill="#FCD9B9" d="M496 506.9q-2.5 0-4.25 1.8-1.8 1.75-1.8 4.3 0 2.45 1.8 4.25Q493.5 519 496 519t4.3-1.75q1.75-1.75 1.75-4.25 0-2.55-1.75-4.3-1.8-1.8-4.3-1.8z" id="cJ"/><path fill="#FCD9B8" d="M496 507.1q-2.4 0-4.1 1.7-1.75 1.75-1.75 4.2 0 2.4 1.75 4.1 1.7 1.7 4.1 1.7 2.45 0 4.15-1.7 1.7-1.7 1.7-4.1 0-2.45-1.7-4.2-1.7-1.7-4.15-1.7z" id="cK"/><path fill="#FCD8B7" d="M496 507.3q-2.35 0-4 1.65t-1.65 4.05q0 2.3 1.65 3.95 1.7 1.65 4 1.65 2.35 0 4-1.65t1.65-3.95q0-2.4-1.65-4.05t-4-1.65z" id="cL"/><path fill="#FCD7B6" d="M496 507.5q-2.25 0-3.85 1.6t-1.6 3.9q0 2.2 1.6 3.8 1.6 1.6 3.85 1.6 2.3 0 3.85-1.6 1.6-1.55 1.6-3.8 0-2.3-1.6-3.9-1.55-1.6-3.85-1.6z" id="cM"/><path fill="#FCD6B5" d="M496 507.7q-2.2 0-3.7 1.55-1.55 1.55-1.55 3.75 0 2.15 1.55 3.65 1.55 1.55 3.7 1.55 2.2 0 3.75-1.55 1.55-1.5 1.55-3.65 0-2.2-1.55-3.75-1.55-1.55-3.75-1.55z" id="cN"/><path fill="#FCD6B4" d="M496 507.9q-2.1 0-3.55 1.5-1.5 1.45-1.5 3.6 0 2.05 1.5 3.55Q493.9 518 496 518q2.1 0 3.6-1.45 1.5-1.5 1.5-3.55 0-2.15-1.5-3.6-1.5-1.5-3.6-1.5z" id="cO"/><path fill="#FCD5B3" d="M496 508.05q-2 0-3.45 1.45-1.4 1.45-1.4 3.5 0 2 1.4 3.4 1.45 1.4 3.45 1.4 2.05 0 3.45-1.4 1.45-1.4 1.45-3.4 0-2.05-1.45-3.5-1.4-1.45-3.45-1.45z" id="cP"/><path fill="#FCD4B2" d="M496 508.25q-1.95 0-3.3 1.4-1.35 1.35-1.35 3.35 0 1.9 1.35 3.25t3.3 1.35q1.95 0 3.35-1.35 1.35-1.35 1.35-3.25 0-2-1.35-3.35-1.4-1.4-3.35-1.4z" id="cQ"/><path fill="#FCD3B1" d="M496 508.45q-1.85 0-3.15 1.3-1.3 1.35-1.3 3.25 0 1.85 1.3 3.15 1.3 1.3 3.15 1.3 1.85 0 3.2-1.3 1.3-1.3 1.3-3.15 0-1.9-1.3-3.25-1.3-1.3-3.2-1.3z" id="cR"/><path fill="#FCD2B0" d="M496 508.65q-1.75 0-3.05 1.25-1.25 1.3-1.25 3.1 0 1.75 1.25 3 1.3 1.25 3.05 1.25 1.8 0 3.05-1.25 1.25-1.25 1.25-3 0-1.85-1.25-3.1t-3.05-1.25z" id="cS"/><path fill="#FCD2AF" d="M496 508.85q-1.7 0-2.9 1.2t-1.2 2.95q0 1.65 1.2 2.85 1.2 1.2 2.9 1.2t2.9-1.2q1.2-1.2 1.2-2.85 0-1.75-1.2-2.95-1.15-1.2-2.9-1.2z" id="cT"/><path fill="#FCD1AE" d="M496 509.05q-1.6 0-2.75 1.15t-1.15 2.8q0 1.6 1.15 2.7 1.15 1.15 2.75 1.15 1.65 0 2.8-1.15 1.1-1.1 1.1-2.7 0-1.65-1.1-2.8-1.15-1.15-2.8-1.15z" id="cU"/><path fill="#FCD0AD" d="M496 509.25q-1.55 0-2.6 1.1-1.1 1.1-1.1 2.65 0 1.5 1.1 2.6 1.05 1.05 2.6 1.05t2.6-1.05q1.1-1.1 1.1-2.6 0-1.55-1.1-2.65-1.05-1.1-2.6-1.1z" id="cV"/><path fill="#FCCFAC" d="M496 509.45q-1.45 0-2.5 1.05-1 1-1 2.5 0 1.45 1 2.45 1.05 1 2.5 1t2.5-1q1.05-1 1.05-2.45 0-1.5-1.05-2.5-1.05-1.05-2.5-1.05z" id="cW"/><path fill="#FCCEAB" d="M496 509.65q-1.4 0-2.35.95-.95 1-.95 2.4 0 1.35.95 2.3.95.95 2.35.95 1.4 0 2.35-.95 1-.95 1-2.3 0-1.4-1-2.4-.95-.95-2.35-.95z" id="cX"/><path fill="#FCCDAB" d="M496 509.8q-1.3 0-2.2.95-.9.9-.9 2.25 0 1.3.9 2.15.9.9 2.2.9 1.3 0 2.25-.9.9-.85.9-2.15 0-1.35-.9-2.25-.95-.95-2.25-.95z" id="cY"/><path fill="#FCCDAA" d="M496 510q-1.2 0-2.05.85-.85.9-.85 2.15 0 1.2.85 2.05.85.8 2.05.8 1.25 0 2.1-.8.85-.85.85-2.05 0-1.25-.85-2.15-.85-.85-2.1-.85z" id="cZ"/><path fill="#FCCCA9" d="M496 510.2q-1.15 0-1.9.8-.8.8-.8 2 0 1.1.8 1.9.8.8 1.9.8 1.15 0 1.95-.8t.8-1.9q0-1.2-.8-2t-1.95-.8z" id="da"/><path fill="#FCCBA8" d="M496 510.4q-1.05 0-1.75.75-.75.75-.75 1.85 0 1 .75 1.75.7.75 1.75.75 1.1 0 1.8-.75.75-.7.75-1.75 0-1.1-.75-1.85-.7-.75-1.8-.75z" id="db"/><path fill="#FCCAA7" d="M496 510.6q-1 0-1.65.7-.7.7-.7 1.7 0 .95.7 1.6.7.7 1.65.7 1 0 1.7-.7.65-.65.65-1.6 0-1-.65-1.7-.7-.7-1.7-.7z" id="dc"/><path fill="#FCC9A6" d="M496 510.8q-.9 0-1.5.65-.65.6-.65 1.55 0 .85.65 1.5.6.6 1.5.6t1.55-.6q.6-.65.6-1.5 0-.95-.6-1.55-.65-.65-1.55-.65z" id="dd"/><path fill="#FCC9A5" d="M496 511q-.85 0-1.4.55-.55.6-.55 1.45 0 .8.55 1.35.6.55 1.4.55.8 0 1.4-.55.55-.55.55-1.35 0-.85-.55-1.45-.55-.55-1.4-.55z" id="de"/><path fill="#FCC8A4" d="M496 511.2q-.75 0-1.25.5t-.5 1.3q0 .7.5 1.2t1.25.5q.75 0 1.25-.5t.5-1.2q0-.8-.5-1.3t-1.25-.5z" id="df"/><path fill="#FCC7A3" d="M496 511.4q-.65 0-1.1.45-.45.45-.45 1.15 0 .65.45 1.05.45.45 1.1.45.7 0 1.15-.45.45-.4.45-1.05 0-.7-.45-1.15-.45-.45-1.15-.45z" id="dg"/><path fill="#FCC6A2" d="M496 511.6q-.55 0-.95.4-.4.4-.4 1 0 .55.4.95.4.35.95.35.6 0 1-.35.4-.4.4-.95 0-.65-.4-1-.4-.4-1-.4z" id="dh"/><path fill="#FCC5A1" d="M496 511.75q-.5 0-.8.35-.35.35-.35.9 0 .45.35.8.3.3.8.3t.85-.3q.35-.35.35-.8 0-1.25-1.2-1.25z" id="di"/><path fill="#FCC5A0" d="M496 511.95q-.95 0-.95 1.05 0 .4.25.65.3.3.7.3.45 0 .75-.3.25-.25.25-.65 0-1.05-1-1.05z" id="dj"/><path fill="#FCC49F" d="M496 512.15q-.75 0-.75.85 0 .75.75.75.8 0 .8-.75 0-.85-.8-.85z" id="dk"/><path fill="#FCC39E" d="M496 512.35q-.6 0-.6.65 0 .55.6.55t.6-.55q0-.65-.6-.65z" id="dl"/><path fill="#FCC29E" d="M496 512.55q-.4 0-.4.45 0 .35.4.35t.4-.35q0-.45-.4-.45z" id="dm"/><path fill="#FDF3E5" d="M472.65 505.2q-2.55 0-4.85 2.25-2.7 2.5-2.65 6.1 0 3.35 2.1 3.8 1.2.3 4.3-.1 2.1 0 2.9-1.45.7-1.25.7-4.35 0-4.05-.1-4.55-.4-1.7-2.4-1.7z" id="dn"/><path fill="#FDF3E5" d="M475.25 523.8q4.1-.25 5.1-2.45.35-.75.35-3.85-.05-1.2-2.25-.2-3.35 1.5-4.85 1.5-1.55.05-4.7-1.35-2.05-.9-2 .3 0 2.25 1.8 4 2.3 2.3 6.55 2.05z" id="do"/><path fill="url(#G)" d="M479.85 517.65q-3.45 1.6-4.8 1.75-1.4-.15-4.85-1.75-2.15-1-2.15.35-.1 2.15 1.45 3.8 1.9 2 5.55 2.15 3.6-.15 5.5-2.15 1.55-1.65 1.55-3.8-.05-1.35-2.25-.35z" id="dp"/><path fill="url(#H)" d="M474.8 495.7q-2.15 0-4.05 3.35-1.8 3.2-1.55 6.1.1 1.9 1.5 2.65 1.35.75 4.45.65 3.1-.05 4.4-.85 1.35-.8 1.4-2.7.05-2.9-1.9-6-2-3.25-4.25-3.2z" id="dq"/><path fill="#FBBC76" d="M480.65 506.3q0-.6-.75-1-.6-.4-2-.75-1.45-.65-2.85-.7-.85 0-1.75.35-.8.35-1 .35-.95.15-1.75.55-1.05.5-1.15 1.1-.2 2.25 5.7 2.25 3.05 0 4.55-.95 1-.55 1-1.2z" id="dr"/><path fill="#F36F12" d="M472.05 505.5q-.5.15-.85.65-.35.45-.3.95.1.5.55.7.4.25.9.05.55-.2.9-.65.35-.5.25-1-.05-.45-.45-.65t-1-.05z" id="ds"/><path fill="#F36F12" d="M478.85 506.15q-.4-.5-.95-.65-.5-.2-.9 0t-.45.7q-.05.5.3.95.35.5.9.65.5.15.9-.05.45-.15.5-.65.05-.5-.3-.95z" id="dt"/><path fill="#FBBC76" d="M485.3 515.3q-.45-.45-1-.45-.55.1-.85.55-.35.5-.35 1.2.05.65.45 1.1.4.45.9.45.55-.05.95-.55.35-.45.3-1.15 0-.65-.4-1.15z" id="du"/><path fill="url(#I)" d="M475.05 509.3q-.35 0-.6.4-.3.35-.3.85t.3.85q.25.35.6.35t.6-.35q.25-.35.25-.85t-.25-.85q-.25-.4-.6-.4z" id="dv"/><path fill="#FBBC76" d="M465.75 514.85q-.55 0-.95.45-.35.45-.45 1.15 0 .7.35 1.15.4.5.9.55.5 0 .9-.45t.45-1.1q0-.7-.35-1.2-.3-.45-.85-.55z" id="dw"/><path fill="url(#J)" d="M475.05 515.7q-3.55-.25-4.9-.05-2.2.3-2.25 1.8 0 1.8 1.55 2.95 1.85 1.35 5.6 1.45 3.75-.1 5.6-1.45 1.6-1.15 1.5-2.95 0-1.5-2.2-1.8-1.3-.2-4.9.05z" id="dx"/><path fill="#FD765D" d="M475.05 521.25l.75-4.4-.75-.2-.8.2.8 4.4z" id="dy"/><path fill="#E5600F" d="M451.65 487.7q-2.2 1.55-3.1 4.05-.75 2 1.15 2.5.75.2 1.45-.2.8-.45 1.05-1.6h9.05q.3 1.15 1.05 1.6.65.4 1.4.2 1.9-.45 1.2-2.5-.9-2.5-3.1-4.05-2.25-1.6-5.05-1.6h-.1q-2.75 0-5 1.6z" id="dz"/><path d="M445.3 485.6q-1.05 2.85-.05 5.1 1.15 2.5 4.6 3.25l1.5-3.3q-2.2 1.05-4.15-.2-2.2-1.4-1.9-4.85z" id="dA"/><path d="M451 491.9l1.25-2.8q-2 1-3.7-.15-1.85-1.25-1.05-4.1-1.4 2.05-.4 4.2 1.05 2.2 3.9 2.85z" id="dB"/><path fill="#FFF" d="M456.75 487.55q-3.2 0-5.4 2.25-2.25 2.2-2.25 5.4 0 3.1 2.25 5.35 2.2 2.2 5.4 2.2 3.1 0 5.35-2.2 2.2-2.25 2.2-5.35 0-3.2-2.2-5.4-2.25-2.25-5.35-2.25z" id="dC"/><path fill="url(#K)" d="M456.75 489.35q-2.45 0-4.15 1.7-1.7 1.7-1.7 4.15 0 2.35 1.7 4.05 1.7 1.7 4.15 1.7 2.35 0 4.05-1.7 1.7-1.7 1.7-4.05 0-2.45-1.7-4.15-1.7-1.7-4.05-1.7z" id="dD"/><path fill="url(#L)" d="M456.75 500.4q2.25 0 3.9-1.8.35-.45.4-.9 0-.45-.3-.7-.75-.65-1.5.3-.95 1.2-2.5 1.2-1.5 0-2.6-1.2-.8-.95-1.45-.3-.75.5.1 1.6 1.7 1.8 3.95 1.8z" id="dE"/><path d="M456.75 492.55q-1.1 0-1.9.8-.8.75-.8 1.85t.8 1.85q.8.75 1.9.75 1.1 0 1.85-.75t.75-1.85q0-1.1-.75-1.85-.75-.8-1.85-.8z" id="dF"/><path fill="#FFF" d="M459.5 494.7q-.35 0-.6.25-.3.25-.3.6t.3.55q.25.25.6.25.3 0 .55-.25.2-.2.2-.55 0-.85-.75-.85z" id="dG"/><path fill="#FFF" d="M454.3 491.5q-.65 0-1.15.5-.5.55-.5 1.2 0 .65.5 1.15.5.5 1.15.5.7 0 1.2-.5.45-.45.45-1.15t-.45-1.2q-.5-.5-1.2-.5z" id="dH"/><path fill="#E5600F" d="M487.4 494.05q.75-.45 1-1.6h9.1q.25 1.15 1.05 1.6.65.4 1.45.2 1.8-.5 1.1-2.5-.85-2.45-3.05-4.05-2.3-1.6-5.1-1.6t-5.1 1.6q-2.2 1.6-3.05 4.05-.65 2 1.1 2.5.8.2 1.5-.2z" id="dI"/><path d="M498.3 490.65l1.55 3.3q3.4-.75 4.55-3.25 1.05-2.25 0-5.1.25 3.45-2 4.85-1.95 1.25-4.1.2z" id="dJ"/><path d="M497.4 489.1l1.3 2.8q2.85-.65 3.8-2.85 1-2.15-.4-4.2.85 2.85-1 4.1-1.7 1.15-3.7.15z" id="dK"/><path fill="#FFF" d="M498.35 489.8q-2.25-2.25-5.4-2.25-3.15 0-5.4 2.25-2.25 2.25-2.25 5.4 0 3.1 2.25 5.35 2.3 2.2 5.4 2.2 3.15 0 5.4-2.2 2.25-2.25 2.25-5.35 0-3.2-2.25-5.4z" id="dL"/><path fill="url(#M)" d="M492.95 489.35q-2.35 0-4.05 1.7-1.7 1.7-1.7 4.15 0 2.35 1.7 4.05 1.7 1.7 4.05 1.7 2.35 0 4.1-1.7 1.75-1.7 1.75-4.05 0-2.4-1.75-4.15-1.7-1.7-4.1-1.7z" id="dM"/><path fill="url(#N)" d="M496.85 498.6q.35-.45.4-.9 0-.45-.25-.7-.25-.25-.65-.25-.45.05-.85.55-1.05 1.2-2.55 1.2-1.5 0-2.6-1.2-.75-1-1.45-.3-.3.25-.25.7.05.45.4.9 1.65 1.8 3.9 1.8t3.9-1.8z" id="dN"/><path d="M492.95 492.55q-1.1 0-1.85.8-.8.75-.8 1.85t.8 1.85q.75.75 1.85.75t1.85-.75q.8-.75.8-1.85t-.8-1.85q-.75-.8-1.85-.8z" id="dO"/><path fill="#FFF" d="M494.9 495.55q0 .8.8.8.85 0 .85-.8 0-.85-.85-.85-.8 0-.8.85z" id="dP"/><path fill="#FFF" d="M490.6 491.5q-.7 0-1.2.5t-.5 1.2q0 .7.5 1.15.5.5 1.2.5.65 0 1.15-.5.5-.5.5-1.15 0-.65-.5-1.2-.5-.5-1.15-.5z" id="dQ"/><path fill="url(#O)" d="M472.35 518.45q-.65-.2-1.25-.05-.6.1-.7.5-.1.4.3.8t1.1.6q.65.2 1.2.1.55-.1.65-.5.1-.4-.25-.8-.4-.45-1.05-.65z" id="dR"/><path fill="url(#P)" d="M474.75 525.8q-1.25 0-2.15.65-.9.7-.9 1.65 0 .9.9 1.6.9.65 2.15.65t2.2-.65q.9-.7.9-1.6 0-.95-.9-1.65-.9-.65-2.2-.65z" id="dS"/><path fill="url(#Q)" d="M475.05 512.9q-2.55-.95-4.7.85-.5.45-1.35 1.7-.85 1.1-2.05 1.35-1.35.35-.15.6 1.25.25 3.4-.05 4.85-.75 9.65 0 2.2.3 3.4.05 1.2-.25-.15-.6-1.2-.25-2.05-1.35-.85-1.25-1.35-1.7-2.05-1.8-4.65-.85z" id="dT"/><path fill="url(#R)" d="M439.55 478.8l-8.35 6.4q-2.7 7.8.2 14.5 3.05 7 11.1 9.4 1.65.45 2.25-.25.65-.9-1.25-2.85-3.1-3-2.95-11.7.15-9.6 6.1-12l-7.1-3.5z" id="dU"/><path fill="url(#S)" d="M443.35 478.8l-1.75-.9-8.35 6.4q-2.3 6.75-.4 12.8 2 6.25 7.85 9.45-4.75-4.15-5.6-10.2-.8-5.85 2.15-12.15l6.1-5.4z" id="dV"/><path fill="url(#T)" d="M507.8 473.4l-10.8-14 1.15 6.7q1.05 9.7 6.75 17.5 4.3 5.7 4.95 13.8.75 9.15-4.75 12.55-1.9 1.25-2.65 1.95-.8.75-.8 1.35 0 .65.55 1.1.6.5 1.4.2 10.85-3.25 14.7-13.05 3.6-9.15-.15-20.05l-10.35-8.05z" id="dW"/><path fill="url(#U)" d="M504.9 472.15l-2.3 1.15 5.6 7.45q5.8 10.65 4.55 19.15-1.1 7.6-7.35 12.05 8.75-3.7 11.8-12.65 2.95-8.65-.75-18.35l-11.55-8.8z" id="dX"/><path fill="url(#V)" d="M494.45 479.8q1.1.35 3.1.55 1 .25 1.6 0 1.1-.55.2-2.05-1.4-2.55-1.55-5.1-.1-1.8.5-4.7 1.45 3.3 3.1 5.55 1.4 1.8 4.15 4.5 1.9 1.8 5.8 4.6 3.25 2.6 4.15 5.55.3 1.4.2 1.95-.05 1.75.75 2.15.9.45 2.2-1.15.9-1 1.75-2.5 5.6-10 2-22.75-3.35-11.9-13.05-21.4-13.35-13.2-35.55-12.45-22.05.75-34.9 14.7-3.25 3.6-5.9 8.3-2.5 4.4-3.85 8.75-.45 1.6-.85 3.95-.65 3.5-2.35 5.6-1.05 1.35-4.15 4.55-2 2.4-2.95 5.35-2.65 8.1 3.25 15 .95 1.35 2.8 2.8 1.05.8 1.75.5.7-.25.4-1.6-.3-1.4-.2-2.95 0-.6.15-1.45.25-.95.3-1.45.9-5 4.05-7.4 2.3-1.8 7.3-2.9 18.95-4 25.55-7.25 14.25-7 13.4-20.6 1 9.45 4.2 14.35 3.8 5.8 12.65 9z" id="dY"/><path fill="url(#W)" d="M441.05 477.9q-13.55 6-13.75 16.8 1.05-4.55 4.1-7.1 2.65-2.25 7.25-3.3 17.5-3.75 25.35-7.85 14.2-7.45 13.6-20.5 0-1.45-.2-2-1.25 12-16.85 17.85-2.9 1.1-9.8 2.95-6.25 1.65-9.7 3.15z" id="dZ"/><path fill="url(#X)" d="M433.35 475.45q2.1-4.6-.25-.4-.393.728-.35 1.05l.6-.65m.55.6q3.45-1.6 10.9-2.6 8.6-1.15 11.85-2.15 8.85-2.75 13.85-7.8 6-6.05 7.1-15.8-3.2 11.25-19.15 16.45-11.05 3.55-14.65 5.1-6.3 2.707-11.05 6.85.092.45 1.15-.05z" id="ea"/><path fill="url(#Y)" d="M432.05 475.25l-1.75 2.1q-.35.55-.3.9.05.4.8.05 1.05-.95 1.6-1.3 4.15-2.85 12-4.9 12.05-3.15 12.1-3.2 8.75-3.1 13.8-7.4 6.25-5.4 7.3-12.9.2-1 .1-1.8-3.25 11.35-19.25 16.5-9.55 2.65-14.15 4.35-7.95 3-12.25 7.6z" id="eb"/><path fill="url(#Z)" d="M498.15 480q-.3 0-1.8-.35-8.05-2.1-13.3-10.15-4.4-6.8-5.5-15.4l.05.85q-1.4 10.3 3.4 17.6 5.1 7.8 15.05 8.4 3.15.1 3.75-1.45-.5.6-1.65.5z" id="ec"/><path fill="url(#aa)" d="M505.65 467.85q-4.65-6.55-3.9-12.7-1.4 5.4-.45 11.4.8 4.3 3.05 7.35 1.85 2.5 5.9 5.6 2.05 1.65 2.75 2.45 1.35 1.4 1.85 3.15.25.9 1.1.9.85.05 1.05-.95.15-.5-.15-1.45-.45-1.3-.7-2.1-1.05-3.3-4.65-7.15-5-5.3-5.85-6.5z" id="ed"/><path fill="url(#ab)" d="M506.2 467.5q-4.6-6.8-4.45-13.15-.8 8.5 1.45 13.85 1.95 4.85 7.4 9.3 1.3 1 2.6 2.45 1.2 1.5 1.7 2.35.5.9.9 2.25.2.9.65 1 .4.15.6-.85.4-1.3-.35-3.6-1.05-3.3-4.7-7.15-4.9-5.1-5.8-6.45z" id="ee"/><path fill="#792622" d="M435.9 461.85l.45-.4q1.55-3.45-.15-.35-.311.545-.3.75m0 .05q.07.336.9-.05 2.6-1.2 8.35-1.95 6.5-.85 9.05-1.65 6.8-2.1 10.65-6 4.55-4.6 5.4-12.15-2.4 8.75-14.6 12.6-8.7 2.85-11.25 3.95-4.921 2.116-8.5 5.25z" id="ef"/><path fill="url(#ac)" d="M470.25 440.85q.15-.75.1-1.4-2.4 8.75-14.75 12.6-7.3 2.05-10.8 3.35-6.15 2.3-9.45 5.9l-1.3 1.55q-.3.45-.25.7.05.3.6.05 1.1-.9 1.25-1 3.2-2.15 9.2-3.75 3.25-.85 9.2-2.45 6.7-2.35 10.6-5.65 4.8-4.15 5.6-9.9z" id="eg"/><path fill="url(#ad)" d="M491.65 475.75q2.4 1.55 4.35 1.45.25-.05-.6-.9-.95-.85-.7-1.05.2-.2-.45-.6-1-.65-1.45-1.15-5.7-6.4-7.85-12.7-2.25-8.9-4.15-16.15-1.4 11.9 2.45 20.8 3 7.15 8.4 10.3z" id="eh"/><path fill="url(#ae)" d="M492.8 475.3q2.8 2.35 3.9 1.8 1.15-.55-1.45-3.45-6.25-7.05-9.05-12.95-2.3-4.9-5.35-16.5.25 10.45 2.6 17.35 2.85 8.35 9.35 13.75z" id="ei"/><path fill="#FFF" d="M467.5 549.45q.45-.7.45-1.7 0-.95-.45-1.65-.4-.65-1.05-.65-.6 0-1 .65-.45.7-.45 1.65 0 1 .45 1.7.4.7 1 .7.65 0 1.05-.7z" id="ej"/><path fill="#FFF" d="M481.6 547.75q0 .95.4 1.7.45.7 1 .7.65 0 1.1-.7.45-.7.45-1.7t-.45-1.65q-.45-.65-1.1-.65-.55 0-1 .65-.4.7-.4 1.65z" id="ek"/></defs><use xlink:href="#af"/><use xlink:href="#ag" transform="translate(-573.206 -603.91) scale(1.51193)"/><use xlink:href="#ah" transform="translate(-573.206 -603.91) scale(1.51193)"/><use xlink:href="#ai" transform="translate(-573.206 -603.91) scale(1.51193)"/><use xlink:href="#aj" transform="translate(-573.206 -603.91) scale(1.51193)"/><use xlink:href="#ak" transform="translate(-573.206 -603.91) scale(1.51193)"/><use xlink:href="#al" transform="translate(-573.206 -603.91) scale(1.51193)"/><use xlink:href="#am" transform="translate(-573.206 -603.91) scale(1.51193)"/><use xlink:href="#an" transform="translate(-573.206 -603.91) scale(1.51193)"/><use xlink:href="#ao" transform="translate(-573.206 -603.91) scale(1.51193)"/><use xlink:href="#ap" transform="translate(-573.206 -603.91) scale(1.51193)"/><use xlink:href="#aq" transform="translate(-573.206 -603.91) scale(1.51193)"/><use xlink:href="#ar" transform="translate(-573.206 -603.91) scale(1.51193)"/><use xlink:href="#as" transform="translate(-573.206 -603.91) scale(1.51193)"/><use xlink:href="#at" transform="translate(-573.206 -603.91) scale(1.51193)"/><use xlink:href="#au" transform="translate(-573.206 -603.91) scale(1.51193)"/><use xlink:href="#av" transform="translate(-573.206 -603.91) scale(1.51193)"/><use xlink:href="#aw" transform="translate(-573.206 -603.91) scale(1.51193)"/><use xlink:href="#ax" transform="translate(-573.206 -603.91) scale(1.51193)"/><use xlink:href="#ay" transform="translate(-573.206 -603.91) scale(1.51193)"/><use xlink:href="#az" transform="translate(-573.206 -603.91) scale(1.51193)"/><use xlink:href="#aA" transform="translate(-573.206 -603.91) scale(1.51193)"/><use xlink:href="#aB" transform="translate(-573.206 -603.91) scale(1.51193)"/><use xlink:href="#aC" transform="translate(-573.206 -603.91) scale(1.51193)"/><use xlink:href="#aD" transform="translate(-573.206 -603.91) scale(1.51193)"/><use xlink:href="#aE" transform="translate(-573.206 -603.91) scale(1.51193)"/><use xlink:href="#aF" transform="translate(-573.206 -603.91) scale(1.51193)"/><use xlink:href="#aG" transform="translate(-573.206 -603.91) scale(1.51193)"/><use xlink:href="#aH" transform="translate(-573.206 -603.91) scale(1.51193)"/><use xlink:href="#aI" transform="translate(-573.206 -603.91) scale(1.51193)"/><use xlink:href="#aJ" transform="translate(-573.206 -603.91) scale(1.51193)"/><use xlink:href="#aK" transform="translate(-573.206 -603.91) scale(1.51193)"/><use xlink:href="#aL" transform="translate(-573.206 -603.91) scale(1.51193)"/><use xlink:href="#aM" transform="translate(-573.206 -603.91) scale(1.51193)"/><use xlink:href="#aN" transform="translate(-573.206 -603.91) scale(1.51193)"/><use xlink:href="#aO" transform="translate(-573.206 -603.91) scale(1.51193)"/><use xlink:href="#aP" transform="translate(-573.206 -603.91) scale(1.51193)"/><use xlink:href="#aQ" transform="translate(-573.206 -603.91) scale(1.51193)"/><use xlink:href="#aR" transform="translate(-573.206 -603.91) scale(1.51193)"/><use xlink:href="#aS" transform="translate(-573.206 -603.91) scale(1.51193)"/><use xlink:href="#aT" transform="translate(-573.206 -603.91) scale(1.51193)"/><use xlink:href="#aU" transform="translate(-573.206 -603.91) scale(1.51193)"/><use xlink:href="#aV" transform="translate(-573.206 -603.91) scale(1.51193)"/><use xlink:href="#aW" transform="translate(-573.206 -603.91) scale(1.51193)"/><use xlink:href="#aX" transform="translate(-573.206 -603.91) scale(1.51193)"/><use xlink:href="#aY" transform="translate(-573.206 -603.91) scale(1.51193)"/><use xlink:href="#aZ" transform="translate(-573.206 -603.91) scale(1.51193)"/><use xlink:href="#ba" transform="translate(-573.206 -603.91) scale(1.51193)"/><use xlink:href="#bb" transform="translate(-573.206 -603.91) scale(1.51193)"/><use xlink:href="#bc" transform="translate(-573.206 -603.91) scale(1.51193)"/><use xlink:href="#bd" transform="translate(-573.206 -603.91) scale(1.51193)"/><use xlink:href="#be" transform="translate(-573.206 -603.91) scale(1.51193)"/><use xlink:href="#bf" transform="translate(-573.206 -603.91) scale(1.51193)"/><use xlink:href="#bg" transform="translate(-573.206 -603.91) scale(1.51193)"/><use xlink:href="#bh" transform="translate(-573.206 -603.91) scale(1.51193)"/><use xlink:href="#bi" transform="translate(-573.206 -603.91) scale(1.51193)"/><use xlink:href="#bj" transform="translate(-573.206 -603.91) scale(1.51193)"/><use xlink:href="#bk" transform="translate(-573.206 -603.91) scale(1.51193)"/><use xlink:href="#bl" transform="translate(-573.206 -603.91) scale(1.51193)"/><use xlink:href="#bm" transform="translate(-573.206 -603.91) scale(1.51193)"/><use xlink:href="#bn" transform="translate(-573.206 -603.91) scale(1.51193)"/><use xlink:href="#bo" transform="translate(-573.206 -603.91) scale(1.51193)"/><use xlink:href="#bp" transform="translate(-573.206 -603.91) scale(1.51193)"/><use xlink:href="#bq" transform="translate(-573.206 -603.91) scale(1.51193)"/><use xlink:href="#br" transform="translate(-573.206 -603.91) scale(1.51193)"/><use xlink:href="#bs" transform="translate(-573.206 -603.91) scale(1.51193)"/><use xlink:href="#bt" transform="translate(-573.206 -603.91) scale(1.51193)"/><use xlink:href="#bu" transform="translate(-573.206 -603.91) scale(1.51193)"/><use xlink:href="#bv" transform="translate(-573.206 -603.91) scale(1.51193)"/><use xlink:href="#bw" transform="translate(-573.206 -603.91) scale(1.51193)"/><use xlink:href="#bx" transform="translate(-573.206 -603.91) scale(1.51193)"/><use xlink:href="#by" transform="translate(-573.206 -603.91) scale(1.51193)"/><use xlink:href="#bz" transform="translate(-573.206 -603.91) scale(1.51193)"/><use xlink:href="#bA" transform="translate(-573.206 -603.91) scale(1.51193)"/><use xlink:href="#bB" transform="translate(-573.206 -603.91) scale(1.51193)"/><use xlink:href="#bC" transform="translate(-573.206 -603.91) scale(1.51193)"/><use xlink:href="#bD" transform="translate(-573.206 -603.91) scale(1.51193)"/><use xlink:href="#bE" transform="translate(-573.206 -603.91) scale(1.51193)"/><use xlink:href="#bF" transform="translate(-573.206 -603.91) scale(1.51193)"/><use xlink:href="#bG" transform="translate(-573.206 -603.91) scale(1.51193)"/><use xlink:href="#bH" transform="translate(-573.206 -603.91) scale(1.51193)"/><use xlink:href="#bI" transform="translate(-573.206 -603.91) scale(1.51193)"/><use xlink:href="#bJ" transform="translate(-573.206 -603.91) scale(1.51193)"/><use xlink:href="#bK" transform="translate(-573.206 -603.91) scale(1.51193)"/><use xlink:href="#bL" transform="translate(-573.206 -603.91) scale(1.51193)"/><use xlink:href="#bM" transform="translate(-573.206 -603.91) scale(1.51193)"/><use xlink:href="#bN" transform="translate(-573.206 -603.91) scale(1.51193)"/><use xlink:href="#bO" transform="translate(-573.206 -603.91) scale(1.51193)"/><use xlink:href="#bP" transform="translate(-573.206 -603.91) scale(1.51193)"/><use xlink:href="#bQ" transform="translate(-573.206 -603.91) scale(1.51193)"/><use xlink:href="#bR" transform="translate(-573.206 -603.91) scale(1.51193)"/><use xlink:href="#bS" transform="translate(-573.206 -603.91) scale(1.51193)"/><use xlink:href="#bT" transform="translate(-573.206 -603.91) scale(1.51193)"/><use xlink:href="#bU" transform="translate(-573.206 -603.91) scale(1.51193)"/><use xlink:href="#bV" transform="translate(-573.206 -603.91) scale(1.51193)"/><use xlink:href="#bW" transform="translate(-573.206 -603.91) scale(1.51193)"/><use xlink:href="#bX" transform="translate(-573.206 -603.91) scale(1.51193)"/><use xlink:href="#bY" transform="translate(-573.206 -603.91) scale(1.51193)"/><use xlink:href="#bZ" transform="translate(-573.206 -603.91) scale(1.51193)"/><use xlink:href="#ca" transform="translate(-573.206 -603.91) scale(1.51193)"/><use xlink:href="#cb" transform="translate(-573.206 -603.91) scale(1.51193)"/><use xlink:href="#cc" transform="translate(-573.206 -603.91) scale(1.51193)"/><use xlink:href="#cd" transform="translate(-573.206 -603.91) scale(1.51193)"/><use xlink:href="#ce" transform="translate(-573.206 -603.91) scale(1.51193)"/><use xlink:href="#cf" transform="translate(-573.206 -603.91) scale(1.51193)"/><use xlink:href="#cg" transform="translate(-573.206 -603.91) scale(1.51193)"/><use xlink:href="#ch" transform="translate(-573.206 -603.91) scale(1.51193)"/><use xlink:href="#ci" transform="translate(-573.206 -603.91) scale(1.51193)"/><use xlink:href="#cj" transform="translate(-573.206 -603.91) scale(1.51193)"/><use xlink:href="#ck" transform="translate(-573.206 -603.91) scale(1.51193)"/><use xlink:href="#cl" transform="translate(-573.206 -603.91) scale(1.51193)"/><use xlink:href="#cm" transform="translate(-573.206 -603.91) scale(1.51193)"/><use xlink:href="#cn" transform="translate(-573.206 -603.91) scale(1.51193)"/><use xlink:href="#co" transform="translate(-573.206 -603.91) scale(1.51193)"/><use xlink:href="#cp" transform="translate(-573.206 -603.91) scale(1.51193)"/><use xlink:href="#cq" transform="translate(-573.206 -603.91) scale(1.51193)"/><use xlink:href="#cr" transform="translate(-573.206 -603.91) scale(1.51193)"/><use xlink:href="#cs" transform="translate(-573.206 -603.91) scale(1.51193)"/><use xlink:href="#ct" transform="translate(-573.206 -603.91) scale(1.51193)"/><use xlink:href="#cu" transform="translate(-573.206 -603.91) scale(1.51193)"/><use xlink:href="#cv" transform="translate(-573.206 -603.91) scale(1.51193)"/><use xlink:href="#cw" transform="translate(-573.206 -603.91) scale(1.51193)"/><use xlink:href="#cx" transform="translate(-573.206 -603.91) scale(1.51193)"/><use xlink:href="#cy" transform="translate(-573.206 -603.91) scale(1.51193)"/><use xlink:href="#cz" transform="translate(-573.206 -603.91) scale(1.51193)"/><use xlink:href="#cA" transform="translate(-573.206 -603.91) scale(1.51193)"/><use xlink:href="#cB" transform="translate(-573.206 -603.91) scale(1.51193)"/><use xlink:href="#cC" transform="translate(-573.206 -603.91) scale(1.51193)"/><use xlink:href="#cD" transform="translate(-573.206 -603.91) scale(1.51193)"/><use xlink:href="#cE" transform="translate(-573.206 -603.91) scale(1.51193)"/><use xlink:href="#cF" transform="translate(-573.206 -603.91) scale(1.51193)"/><use xlink:href="#cG" transform="translate(-573.206 -603.91) scale(1.51193)"/><use xlink:href="#cH" transform="translate(-573.206 -603.91) scale(1.51193)"/><use xlink:href="#cI" transform="translate(-573.206 -603.91) scale(1.51193)"/><use xlink:href="#cJ" transform="translate(-573.206 -603.91) scale(1.51193)"/><use xlink:href="#cK" transform="translate(-573.206 -603.91) scale(1.51193)"/><use xlink:href="#cL" transform="translate(-573.206 -603.91) scale(1.51193)"/><use xlink:href="#cM" transform="translate(-573.206 -603.91) scale(1.51193)"/><use xlink:href="#cN" transform="translate(-573.206 -603.91) scale(1.51193)"/><use xlink:href="#cO" transform="translate(-573.206 -603.91) scale(1.51193)"/><use xlink:href="#cP" transform="translate(-573.206 -603.91) scale(1.51193)"/><use xlink:href="#cQ" transform="translate(-573.206 -603.91) scale(1.51193)"/><use xlink:href="#cR" transform="translate(-573.206 -603.91) scale(1.51193)"/><use xlink:href="#cS" transform="translate(-573.206 -603.91) scale(1.51193)"/><use xlink:href="#cT" transform="translate(-573.206 -603.91) scale(1.51193)"/><use xlink:href="#cU" transform="translate(-573.206 -603.91) scale(1.51193)"/><use xlink:href="#cV" transform="translate(-573.206 -603.91) scale(1.51193)"/><use xlink:href="#cW" transform="translate(-573.206 -603.91) scale(1.51193)"/><use xlink:href="#cX" transform="translate(-573.206 -603.91) scale(1.51193)"/><use xlink:href="#cY" transform="translate(-573.206 -603.91) scale(1.51193)"/><use xlink:href="#cZ" transform="translate(-573.206 -603.91) scale(1.51193)"/><use xlink:href="#da" transform="translate(-573.206 -603.91) scale(1.51193)"/><use xlink:href="#db" transform="translate(-573.206 -603.91) scale(1.51193)"/><use xlink:href="#dc" transform="translate(-573.206 -603.91) scale(1.51193)"/><use xlink:href="#dd" transform="translate(-573.206 -603.91) scale(1.51193)"/><use xlink:href="#de" transform="translate(-573.206 -603.91) scale(1.51193)"/><use xlink:href="#df" transform="translate(-573.206 -603.91) scale(1.51193)"/><use xlink:href="#dg" transform="translate(-573.206 -603.91) scale(1.51193)"/><use xlink:href="#dh" transform="translate(-573.206 -603.91) scale(1.51193)"/><use xlink:href="#di" transform="translate(-573.206 -603.91) scale(1.51193)"/><use xlink:href="#dj" transform="translate(-573.206 -603.91) scale(1.51193)"/><use xlink:href="#dk" transform="translate(-573.206 -603.91) scale(1.51193)"/><use xlink:href="#dl" transform="translate(-573.206 -603.91) scale(1.51193)"/><use xlink:href="#dm" transform="translate(-573.206 -603.91) scale(1.51193)"/><use xlink:href="#dn" transform="translate(-573.206 -603.91) scale(1.51193)"/><use xlink:href="#do" transform="translate(-573.206 -603.91) scale(1.51193)"/><use xlink:href="#dp" transform="translate(-573.206 -603.91) scale(1.51193)"/><use xlink:href="#dq" transform="translate(-573.206 -603.91) scale(1.51193)"/><use xlink:href="#dr" transform="translate(-573.206 -603.91) scale(1.51193)"/><use xlink:href="#ds" transform="translate(-573.206 -603.91) scale(1.51193)"/><use xlink:href="#dt" transform="translate(-573.206 -603.91) scale(1.51193)"/><use xlink:href="#du" transform="translate(-573.206 -603.91) scale(1.51193)"/><use xlink:href="#dv" transform="translate(-573.206 -603.91) scale(1.51193)"/><use xlink:href="#dw" transform="translate(-573.206 -603.91) scale(1.51193)"/><use xlink:href="#dx" transform="translate(-573.206 -603.91) scale(1.51193)"/><use xlink:href="#dy" transform="translate(-573.206 -603.91) scale(1.51193)"/><use xlink:href="#dz" transform="translate(-573.206 -603.91) scale(1.51193)"/><use xlink:href="#dA" transform="translate(-573.206 -603.91) scale(1.51193)"/><use xlink:href="#dB" transform="translate(-573.206 -603.91) scale(1.51193)"/><use xlink:href="#dC" transform="translate(-573.206 -603.91) scale(1.51193)"/><use xlink:href="#dD" transform="translate(-573.206 -603.91) scale(1.51193)"/><use xlink:href="#dE" transform="translate(-573.206 -603.91) scale(1.51193)"/><use xlink:href="#dF" transform="translate(-573.206 -603.91) scale(1.51193)"/><use xlink:href="#dG" transform="translate(-573.206 -603.91) scale(1.51193)"/><use xlink:href="#dH" transform="translate(-573.206 -603.91) scale(1.51193)"/><use xlink:href="#dI" transform="translate(-573.206 -603.91) scale(1.51193)"/><use xlink:href="#dJ" transform="translate(-573.206 -603.91) scale(1.51193)"/><use xlink:href="#dK" transform="translate(-573.206 -603.91) scale(1.51193)"/><use xlink:href="#dL" transform="translate(-573.206 -603.91) scale(1.51193)"/><use xlink:href="#dM" transform="translate(-573.206 -603.91) scale(1.51193)"/><use xlink:href="#dN" transform="translate(-573.206 -603.91) scale(1.51193)"/><use xlink:href="#dO" transform="translate(-573.206 -603.91) scale(1.51193)"/><use xlink:href="#dP" transform="translate(-573.206 -603.91) scale(1.51193)"/><use xlink:href="#dQ" transform="translate(-573.206 -603.91) scale(1.51193)"/><use xlink:href="#dR" transform="translate(-573.206 -603.91) scale(1.51193)"/><use xlink:href="#dS" transform="translate(-573.206 -603.91) scale(1.51193)"/><use xlink:href="#dT" transform="translate(-573.206 -603.91) scale(1.51193)"/><use xlink:href="#dU" transform="translate(-573.206 -603.91) scale(1.51193)"/><use xlink:href="#dV" transform="translate(-573.206 -603.91) scale(1.51193)"/><use xlink:href="#dW" transform="translate(-573.206 -603.91) scale(1.51193)"/><use xlink:href="#dX" transform="translate(-573.206 -603.91) scale(1.51193)"/><use xlink:href="#dY" transform="translate(-573.206 -603.91) scale(1.51193)"/><use xlink:href="#dZ" transform="translate(-573.206 -603.91) scale(1.51193)"/><use xlink:href="#ea" transform="translate(-573.206 -603.91) scale(1.51193)"/><use xlink:href="#eb" transform="translate(-573.206 -603.91) scale(1.51193)"/><use xlink:href="#ec" transform="translate(-573.206 -603.91) scale(1.51193)"/><use xlink:href="#ed" transform="translate(-573.206 -603.91) scale(1.51193)"/><use xlink:href="#ee" transform="translate(-573.206 -603.91) scale(1.51193)"/><use xlink:href="#ef" transform="translate(-573.206 -603.91) scale(1.51193)"/><use xlink:href="#eg" transform="translate(-573.206 -603.91) scale(1.51193)"/><use xlink:href="#eh" transform="translate(-573.206 -603.91) scale(1.51193)"/><use xlink:href="#ei" transform="translate(-573.206 -603.91) scale(1.51193)"/><use xlink:href="#ej" transform="translate(-573.206 -603.91) scale(1.51193)"/><use xlink:href="#ek" transform="translate(-573.206 -603.91) scale(1.51193)"/></svg>