<svg xmlns="http://www.w3.org/2000/svg" xmlns:xlink="http://www.w3.org/1999/xlink" preserveAspectRatio="none" width="284" height="320"><defs><radialGradient id="a" gradientUnits="userSpaceOnUse" cx="0" cy="0" r="12.725" fx="0" fy="0" gradientTransform="matrix(1 0 0 .99902 -1.7 .65)" spreadMethod="pad"><stop offset="56.471%" stop-color="#02A9D2"/><stop offset="81.569%" stop-color="#FFF"/></radialGradient><radialGradient id="b" gradientUnits="userSpaceOnUse" cx="0" cy="0" r="21.036" fx="0" fy="0" gradientTransform="matrix(.91154 -.4112 .06358 .14024 .2 -.15)" spreadMethod="pad"><stop offset="64.706%" stop-color="#F9C931" stop-opacity="0"/><stop offset="72.549%" stop-color="#F9C931"/><stop offset="92.549%" stop-color="#F9C931"/><stop offset="100%" stop-color="#F9C931" stop-opacity="0"/></radialGradient><path fill="#FFF" fill-opacity="0" d="M284 0H0v320h284V0z" id="c"/><path fill="url(#a)" d="M5.9-7.1q-2.45-2-5.65-2-3.75 0-6.35 2.65-2.65 2.6-2.6 6.3-.05.65.05 1.3.4 2.9 2.55 5.05Q-3.5 8.8.25 8.8q3.7 0 6.3-2.6 2.6-2.65 2.6-6.35 0-3.7-2.6-6.3L5.9-7.1z" id="d"/><path fill="url(#b)" d="M-20.5 9l3.7.65h25l13.7-19H-9.9L-20.5 9M6.55-6.45q1.2 1.15 1.85 2.6L-8 3.45q-.5-1.1-.65-2.3-.1-.65-.05-1.3-.05-3.7 2.6-6.3Q-3.5-9.1.25-9.1q3.2 0 5.65 2l.65.65z" id="e"/></defs><use xlink:href="#c"/><use xlink:href="#d" transform="matrix(6.69812 0 0 6.69737 137.266 165.855)"/><use xlink:href="#e" transform="matrix(6.69812 0 0 6.69737 137.266 165.855)"/></svg>