<svg xmlns="http://www.w3.org/2000/svg" xmlns:xlink="http://www.w3.org/1999/xlink" preserveAspectRatio="none" width="284" height="320"><defs><linearGradient id="a" gradientUnits="userSpaceOnUse" x1="472.563" y1="427.9" x2="492.438" y2="444" spreadMethod="pad"><stop offset="0%" stop-color="#F4F4F4"/><stop offset="56.863%" stop-color="#BEC0C2"/><stop offset="100%" stop-color="#F8F8F9"/></linearGradient><linearGradient id="b" gradientUnits="userSpaceOnUse" x1="451.1" y1="390.337" x2="473.9" y2="373.163" spreadMethod="pad"><stop offset="0%" stop-color="#D2D4D5"/><stop offset="100%" stop-color="#F8F8F9"/></linearGradient><linearGradient id="c" gradientUnits="userSpaceOnUse" x1="468.975" y1="439.9" x2="484.025" y2="452.1" spreadMethod="pad"><stop offset="0%" stop-color="#EE333F"/><stop offset="9.804%" stop-color="#F9B4A0"/><stop offset="21.961%" stop-color="#E0323D"/><stop offset="56.863%" stop-color="#C93039"/><stop offset="100%" stop-color="#DE323C"/></linearGradient><linearGradient id="d" gradientUnits="userSpaceOnUse" x1="466.775" y1="425.45" x2="461.525" y2="404.35" spreadMethod="pad"><stop offset="0%" stop-color="#BC2E37"/><stop offset="100%" stop-color="#6E2526"/></linearGradient><linearGradient id="e" gradientUnits="userSpaceOnUse" x1="461.563" y1="439.688" x2="447.038" y2="415.513" spreadMethod="pad"><stop offset="0%" stop-color="#EE333F"/><stop offset="61.176%" stop-color="#C93039"/><stop offset="76.863%" stop-color="#EE333F"/><stop offset="85.882%" stop-color="#F6917D"/><stop offset="100%" stop-color="#EE333F"/></linearGradient><linearGradient id="f" gradientUnits="userSpaceOnUse" x1="482.813" y1="446.725" x2="509.888" y2="452.975" spreadMethod="pad"><stop offset="0%" stop-color="#EE333F"/><stop offset="61.176%" stop-color="#C93039"/><stop offset="76.863%" stop-color="#EE333F"/><stop offset="85.882%" stop-color="#F6917D"/><stop offset="100%" stop-color="#EE333F"/></linearGradient><linearGradient id="g" gradientUnits="userSpaceOnUse" x1="462.637" y1="439.8" x2="430.463" y2="455.5" spreadMethod="pad"><stop offset="0%" stop-color="#A12B31"/><stop offset="25.882%" stop-color="#A82C32"/><stop offset="65.882%" stop-color="#EE333F"/><stop offset="81.961%" stop-color="#F6917D"/><stop offset="100%" stop-color="#EE333F"/></linearGradient><linearGradient id="h" gradientUnits="userSpaceOnUse" x1="481.188" y1="455.613" x2="476.913" y2="490.488" spreadMethod="pad"><stop offset="0%" stop-color="#A12B31"/><stop offset="25.882%" stop-color="#A82C32"/><stop offset="65.882%" stop-color="#EE333F"/><stop offset="81.961%" stop-color="#F6917D"/><stop offset="100%" stop-color="#EE333F"/></linearGradient><linearGradient id="i" gradientUnits="userSpaceOnUse" x1="470.363" y1="449.588" x2="478.838" y2="436.012" spreadMethod="pad"><stop offset="0%" stop-color="#D6313B"/><stop offset="27.843%" stop-color="#EE333F"/><stop offset="70.98%" stop-color="#F6917D"/><stop offset="100%" stop-color="#EF4A47"/></linearGradient><linearGradient id="j" gradientUnits="userSpaceOnUse" x1="498.387" y1="439.275" x2="509.912" y2="435.525" spreadMethod="pad"><stop offset="0%" stop-color="#BC2E37"/><stop offset="100%" stop-color="#6E2526"/></linearGradient><linearGradient id="k" gradientUnits="userSpaceOnUse" x1="496.387" y1="394.887" x2="521.413" y2="400.213" spreadMethod="pad"><stop offset="0%" stop-color="#EE333F"/><stop offset="16.863%" stop-color="#F9B4A0"/><stop offset="27.059%" stop-color="#E0323D"/><stop offset="56.863%" stop-color="#C93039"/><stop offset="100%" stop-color="#DE323C"/></linearGradient><linearGradient id="l" gradientUnits="userSpaceOnUse" x1="498.387" y1="385.987" x2="521.513" y2="382.313" spreadMethod="pad"><stop offset="0%" stop-color="#EE333F"/><stop offset="14.118%" stop-color="#F9B4A0"/><stop offset="29.02%" stop-color="#E0323D"/><stop offset="56.863%" stop-color="#C93039"/><stop offset="100%" stop-color="#DE323C"/></linearGradient><linearGradient id="m" gradientUnits="userSpaceOnUse" x1="495.387" y1="381.363" x2="514.112" y2="366.738" spreadMethod="pad"><stop offset="0%" stop-color="#EE333F"/><stop offset="16.078%" stop-color="#F9B4A0"/><stop offset="27.843%" stop-color="#E0323D"/><stop offset="56.863%" stop-color="#C93039"/><stop offset="100%" stop-color="#DE323C"/></linearGradient><linearGradient id="n" gradientUnits="userSpaceOnUse" x1="490.387" y1="378.488" x2="497.912" y2="356.613" spreadMethod="pad"><stop offset="0%" stop-color="#EE333F"/><stop offset="16.863%" stop-color="#F9B4A0"/><stop offset="36.863%" stop-color="#E0323D"/><stop offset="56.863%" stop-color="#C93039"/><stop offset="100%" stop-color="#DE323C"/></linearGradient><linearGradient id="o" gradientUnits="userSpaceOnUse" x1="482.975" y1="378.563" x2="481.725" y2="354.538" spreadMethod="pad"><stop offset="0%" stop-color="#EE333F"/><stop offset="14.118%" stop-color="#F9B4A0"/><stop offset="27.059%" stop-color="#E0323D"/><stop offset="56.863%" stop-color="#C93039"/><stop offset="100%" stop-color="#DE323C"/></linearGradient><linearGradient id="p" gradientUnits="userSpaceOnUse" x1="476.675" y1="381.387" x2="466.425" y2="365.613" spreadMethod="pad"><stop offset="0%" stop-color="#EE333F"/><stop offset="12.941%" stop-color="#F9B4A0"/><stop offset="27.059%" stop-color="#E0323D"/><stop offset="56.863%" stop-color="#C93039"/><stop offset="100%" stop-color="#DE323C"/></linearGradient><linearGradient id="q" gradientUnits="userSpaceOnUse" x1="471.788" y1="389.4" x2="456.913" y2="378.2" spreadMethod="pad"><stop offset="0%" stop-color="#EE333F"/><stop offset="18.824%" stop-color="#F9B4A0"/><stop offset="34.118%" stop-color="#E0323D"/><stop offset="56.863%" stop-color="#C93039"/><stop offset="100%" stop-color="#DE323C"/></linearGradient><path fill="#FFF" fill-opacity="0" d="M284 0H0v320h284V0z" id="r"/><path fill="url(#a)" d="M510.6 363.1v-.1q-5.65-4.75-13.1-7.05l-7.45 24.4q2.25.65 4.25 2.25v.05l.45.3q3.4 3.2 3.8 7.8.5 5-2.7 8.85l-62.75 75.35q-3.35 4.1-2.85 9.4.5 5.2 4.55 8.6 4.05 3.4 9.3 2.9 5.25-.5 8.6-4.55l62.8-75.45q4.85-5.8 7-13.1 2.1-7 1.4-14.35-.65-7.25-4-13.75-3.45-6.7-9.3-11.55z" id="s"/><path fill="url(#b)" d="M483.15 354.6q-7.25.65-13.8 4-6.7 3.5-11.55 9.3h-.05l-4.4 5.25q-3.35 4.05-2.85 9.3.5 5.3 4.6 8.65 4.05 3.35 9.3 2.85 5.25-.45 8.6-4.5l4.7-5.7q3.2-3.45 7.75-3.85 2.2-.15 3.9.25l8.55-24.05q-7.15-2.25-14.75-1.5z" id="t"/><path fill="url(#c)" d="M433.65 478.35l-2.55.05q-1.15 2.75-.85 5.85 3-.15 3.25-.15 4.35.1 10.05 1.15 3.25.65 5.2.85 3.2.35 7 .25.4-.1 1.2-.1l6.75-8.2q-1 .65-2.45 1.3-2.45 1.05-5.75 1.15-3.3.15-6.15-.15-1.65-.2-4.7-.8-3.1-.6-4.75-.8-2.95-.35-6.25-.4m10.8-13.85h-2.7l-5.8 7.15q1.3-.7 3.2-1 1.85-.35 5.2-.35 4.05.05 10 1.15 3.2.6 5.25.8 3.15.35 7 .2.6 0 1.9-.1l7.7-9.25q-2.15 1.6-4.05 2.45-2.8 1-5.75 1.15-3.3.15-6.2-.2-1.35-.15-4.75-.75-5.5-1.15-11-1.25m44.35-16.55l-.15-.15q-2.7 2.7-5.7 3.85-2.65 1.1-5.75 1.2-5.05.15-10.9-.9-2.95-.6-4.7-.85-2.95-.35-6.3-.4h-2l-5.55 6.7q.75-.35 2.3-.6 2.25-.35 5.1-.35 4.3.1 10.1 1.15 3.2.65 5.2.85 3.15.3 6.95.15 1.5 0 2.65-.2l8.75-10.45m5.65-10.2q-3.15 1.2-6.4 1.3-3.4.1-6.15-.2-2-.2-4.8-.8-5.7-1.1-11-1.15-.65-.15-1.3 0l-5.3 6.4q.6-.2 1.35-.3 2.65-.5 5.2-.35 5 .05 10 1.15 3.1.6 5.25.8 3.15.35 6.95.2 1.4 0 3.4-.35l8.3-10q-2.25 2.1-5.5 3.3m4.6-6.8q2.3-.1 4.25-.5l7.85-9.4q-4.8 3.85-12.3 4.15-3.3.1-6.15-.2-1.85-.2-4.7-.8-3.85-.65-4.75-.75-3.05-.4-6.3-.45h-.65l-5.15 6.25q.15-.1.55-.1 2.7-.4 5.2-.35 4.5.1 10 1.1 3.3.65 5.2.85 3.2.35 6.95.2m10.9-13.75q2.65-.1 5.05-.7l.5-.65q3.45-4.13 5.55-9.15-.37.736-1.7 1.65-3.15 2.15-9.6 3.05-3.35.15-6.2-.15-1.7-.2-4.75-.8-6.05-1.15-10.95-1.2l-5.1 6.1q2-.4 4.95-.3 2.9 0 5.65.35 1 .15 4.45.75 3.35.65 5.2.85 3.15.35 6.95.2z" id="u"/><path fill="url(#d)" d="M460.5 404.1q-4.7 10.1.15 20.15 3.85 8.05 11.15 12.25l-.45.9 4.4-.4q-4.15-11.4-5.4-16.45-1.25-5.25-2.1-14.9-.25-2.6-2.8-3.55-2.8-1.1-4.95 2z" id="v"/><path fill="url(#e)" d="M460.5 404.05q-2.8 3.4-7.6 6.65-4.8 3.15-9.85 5.1-3.75 1.4-5.1 2.1-2.1 1.2-3.1 3-1 1.7-1.1 3.75-.1 2.5 1.25 4.65 4.15 6.5 14.95 12.25 10.65 5.7 16.6 4.85l6.6-9.9q-2.35-3-3.95-5.15-3-4.05-4.9-7.55-5.85-10.6-3.8-19.75z" id="w"/><path fill="url(#f)" d="M517.15 438.9q-.25-2.3-2.25-3.85-2.15-1.6-4.3-.55.55-.35-1.25.45-.25.1-4.45 2.15-2.75 1.4-4.95 2-1.65.5-4.45.85-3 .35-4.25.55-6.75 1-11.85-1.3l-7.4 13q4.75.75 8.5 4.65 6.95 7.1 8 7.95 7.05 5.45 13.95 5.7 8.35.25 9.15-9.15.4-4.6 1.15-7.65.85-3.15 2.65-6.9 2-4.25 1.75-7.9z" id="x"/><path fill="url(#g)" d="M425.75 447.5q-8.35 2.65-16.3 3.2 4.5 3.4 9.3 4.6 4.75 1.25 8.55.1-2 .75-3.3 7.25-1.2 6.05-.9 11.5 3.95-9.35 17.6-17.45 14.3-8.5 26.85-7.8l7.35-7.4q-18.85-4.25-35.45 1.2-8.9 3.25-13.7 4.8z" id="y"/><path fill="url(#h)" d="M486.35 492.8q.45-9.65.5-14.45.35-17.45-9.45-34.05l-5.85 7.5q4.55 11.9 1.1 28.75-3.4 16.35-10.95 22.85 5.35-1.35 10.7-4.3 5.75-3.2 5.85-5.35.1 3.9 2.75 8.05 2.65 4.2 7.2 7.45-1.9-7.7-1.85-16.45z" id="z"/><path fill="url(#i)" d="M469.4 435.75l-5.55 8.9q-.9 1.5-.45 3.25.4 1.75 1.9 2.65l6.5 4.05q1.5.9 3.3.5 1.75-.45 2.65-1.95l5.5-8.85q.9-1.5.5-3.25-.45-1.75-1.95-2.75l-6.5-3.95q-1.5-.95-3.25-.55-1.7.4-2.65 1.95z" id="A"/><path fill="url(#j)" d="M508.6 435.1q-1.85.85-3.4 1.4-6.35 2.3-8.75 2.8-2.4.55-10.6 1.45 7.6.4 12.5 0 8-.65 12.1-3.35 1.75-1.1 1.3-2.3-.25-.6-1.05-.65-.85 0-2.1.65z" id="B"/><path fill="url(#k)" d="M524.05 392.4q-1.5 1.15-2.2 1.55-2.45 1.35-5.55 1.95-3.25.55-6.15.6-1.7.05-4.8-.1-4.1-.25-7.55-.05-.65 1.65-1.95 3.25l-2.55 3 1.6-.2q4.1-.45 10.1-.25 12.2.7 18.35-2.55.7-4.2.7-7.2z" id="C"/><path fill="url(#l)" d="M497.05 385.9q1.35 2.4 1.5 4.85.1.25.1.7 3.6-1.25 7.85-2 5.7-1.25 9.05-2.4 4.95-1.7 7.5-4.05-.8-3.3-2.1-6.1l-.25.3q-1.95 1.85-4.9 3.3-3 1.35-5.8 2.15-1.55.45-4.65 1.1-4.2.7-8.3 2.15z" id="D"/><path fill="url(#m)" d="M511.75 364q-1.25 2.1-2.95 3.75-3.9 3.75-8.8 6.65-2.3 1.45-8.2 6.6 1.7.9 2.5 1.6v.05l.45.3q.75.65 1.6 1.8 4.45-3.8 10.3-7.65 3.35-2.45 6.2-5.15 1.75-1.8 3-3.55-1.45-1.9-4.1-4.4z" id="E"/><path fill="url(#n)" d="M491.75 381q1.15-3.4 3.6-8.05 1.5-2.7 2.4-4.7 1.2-2.9 2.2-6.6.6-2.15.8-4.55-3.35-1.25-5.8-1.8.1 1.85-.55 4.85-.85 3.15-2.05 5.85-.65 1.4-2.15 4.3-2.6 4.8-4.25 9.55 3.2-.1 5.8 1.15z" id="F"/><path fill="url(#o)" d="M479.05 357.95q.95 5.4.5 10.95-.15 5.9 0 8 .3 2.55 1 4.55 2.25-1.3 4.9-1.55l.25-.05q-.1-.15-.1-.55-.5-4.45-.2-10.1.15-3.55.1-5.3-.1-3.25-.75-6.95l-.5-2.45q-.75 0-1.1.1-2.8.25-4.75.7.4 1.1.65 2.65z" id="G"/><path fill="url(#p)" d="M469.35 363.85q-1.7-2.05-3.2-3.35-2.6 1.65-4.75 3.6 1.8 1.25 3.35 3.3 2.05 2.65 3.4 5.1.95 1.7 2.1 4.35 2.6 5.55 5.35 9.5l2.1-2.6q.9-1.05 1.95-1.75-1.3-1.95-2.4-4.1-.1-.15-1.7-3.5-1.55-3.3-2.35-4.75-1.55-2.8-3.85-5.8z" id="H"/><path fill="url(#q)" d="M464.6 380.2q-2.85-2.4-4.15-3.35-2.6-1.9-5.95-3.6l-.85-.45-.3.35q-1.8 2.25-2.45 4.75.5.15.85.45 2.95 1.55 5.25 3.25 1.35.95 3.75 3 3.3 2.8 6.05 4.7l3.7 2.45q1.4-.95 2.5-2.3l1.75-2.1-2.1-1.15q-3.7-2.25-8.05-6z" id="I"/></defs><use xlink:href="#r"/><use xlink:href="#s" transform="matrix(1.69186 0 0 1.69183 -647.684 -552.536)"/><use xlink:href="#t" transform="matrix(1.69186 0 0 1.69183 -647.684 -552.536)"/><use xlink:href="#u" transform="matrix(1.69186 0 0 1.69183 -647.684 -552.536)"/><use xlink:href="#v" transform="matrix(1.69186 0 0 1.69183 -647.684 -552.536)"/><use xlink:href="#w" transform="matrix(1.69186 0 0 1.69183 -647.684 -552.536)"/><use xlink:href="#x" transform="matrix(1.69186 0 0 1.69183 -647.684 -552.536)"/><use xlink:href="#y" transform="matrix(1.69186 0 0 1.69183 -647.684 -552.536)"/><use xlink:href="#z" transform="matrix(1.69186 0 0 1.69183 -647.684 -552.536)"/><use xlink:href="#A" transform="matrix(1.69186 0 0 1.69183 -647.684 -552.536)"/><use xlink:href="#B" transform="matrix(1.69186 0 0 1.69183 -647.684 -552.536)"/><use xlink:href="#C" transform="matrix(1.69186 0 0 1.69183 -647.684 -552.536)"/><use xlink:href="#D" transform="matrix(1.69186 0 0 1.69183 -647.684 -552.536)"/><use xlink:href="#E" transform="matrix(1.69186 0 0 1.69183 -647.684 -552.536)"/><use xlink:href="#F" transform="matrix(1.69186 0 0 1.69183 -647.684 -552.536)"/><use xlink:href="#G" transform="matrix(1.69186 0 0 1.69183 -647.684 -552.536)"/><use xlink:href="#H" transform="matrix(1.69186 0 0 1.69183 -647.684 -552.536)"/><use xlink:href="#I" transform="matrix(1.69186 0 0 1.69183 -647.684 -552.536)"/></svg>