<svg xmlns="http://www.w3.org/2000/svg" xmlns:xlink="http://www.w3.org/1999/xlink" preserveAspectRatio="none" width="284" height="320"><defs><linearGradient id="a" gradientUnits="userSpaceOnUse" x1="349.525" y1="404.487" x2="329.875" y2="403.813" spreadMethod="pad"><stop offset="0%" stop-color="#81C56D"/><stop offset="100%" stop-color="#008748"/></linearGradient><linearGradient id="b" gradientUnits="userSpaceOnUse" x1="250.65" y1="401.5" x2="269.55" y2="404.5" spreadMethod="pad"><stop offset="0%" stop-color="#A6D282"/><stop offset="100%" stop-color="#26AD54"/></linearGradient><linearGradient id="c" gradientUnits="userSpaceOnUse" x1="253.275" y1="413.675" x2="292.725" y2="432.925" spreadMethod="pad"><stop offset="0%" stop-color="#FFD040"/><stop offset="100%" stop-color="#CE8730"/></linearGradient><linearGradient id="d" gradientUnits="userSpaceOnUse" x1="277.35" y1="398.313" x2="246.05" y2="438.388" spreadMethod="pad"><stop offset="0%" stop-color="#F1B82D"/><stop offset="40%" stop-color="#FFD247"/><stop offset="100%" stop-color="#FFE284"/></linearGradient><linearGradient id="e" gradientUnits="userSpaceOnUse" x1="276.088" y1="464.488" x2="227.013" y2="435.012" spreadMethod="pad"><stop offset="0%" stop-color="#F1B82D"/><stop offset="34.902%" stop-color="#FFD040"/><stop offset="72.941%" stop-color="#FFF2C0"/><stop offset="100%" stop-color="#FFDB6F"/></linearGradient><linearGradient id="f" gradientUnits="userSpaceOnUse" x1="249.925" y1="459" x2="283.175" y2="486.9" spreadMethod="pad"><stop offset="0%" stop-color="#B86A2F"/><stop offset="100%" stop-color="#E5A62F"/></linearGradient><linearGradient id="g" gradientUnits="userSpaceOnUse" x1="270.15" y1="471.712" x2="231.35" y2="451.087" spreadMethod="pad"><stop offset="0%" stop-color="#CE8730"/><stop offset="69.804%" stop-color="#D99630"/><stop offset="100%" stop-color="#C3792F"/></linearGradient><linearGradient id="h" gradientUnits="userSpaceOnUse" x1="263.563" y1="464.325" x2="238.938" y2="450.675" spreadMethod="pad"><stop offset="0%" stop-color="#B86A2F"/><stop offset="100%" stop-color="#AE5E2D"/></linearGradient><radialGradient id="i" gradientUnits="userSpaceOnUse" cx="0" cy="0" r="21.475" fx="0" fy="0" gradientTransform="matrix(1 0 0 -1 253.5 462.5)" spreadMethod="pad"><stop offset="0%" stop-color="#FFE284"/><stop offset="36.863%" stop-color="#FFCC2A"/><stop offset="72.157%" stop-color="#D99630"/><stop offset="100%" stop-color="#FFCC2A"/></radialGradient><linearGradient id="j" gradientUnits="userSpaceOnUse" x1="282.987" y1="448.913" x2="244.312" y2="426.587" spreadMethod="pad"><stop offset="0%" stop-color="#E5A62F"/><stop offset="27.059%" stop-color="#FFCC2A"/><stop offset="69.804%" stop-color="#FFE7A2"/><stop offset="100%" stop-color="#FFD768"/></linearGradient><linearGradient id="k" gradientUnits="userSpaceOnUse" x1="285.025" y1="442.5" x2="251.175" y2="424.5" spreadMethod="pad"><stop offset="0%" stop-color="#E5A62F"/><stop offset="27.059%" stop-color="#FFCC2A"/><stop offset="69.804%" stop-color="#FFE7A2"/><stop offset="100%" stop-color="#FFD768"/></linearGradient><linearGradient id="l" gradientUnits="userSpaceOnUse" x1="252.4" y1="468.175" x2="257.5" y2="460.325" spreadMethod="pad"><stop offset="0%" stop-color="#FFF2C0"/><stop offset="100%" stop-color="#FFDB6F"/></linearGradient><radialGradient id="m" gradientUnits="userSpaceOnUse" cx="0" cy="0" r="20.75" fx="0" fy="0" gradientTransform="matrix(1 0 0 -1 343.5 466.5)" spreadMethod="pad"><stop offset="0%" stop-color="#FFE284"/><stop offset="36.863%" stop-color="#FFCC2A"/><stop offset="72.157%" stop-color="#D99630"/><stop offset="100%" stop-color="#FFCC2A"/></radialGradient><linearGradient id="n" gradientUnits="userSpaceOnUse" x1="346.887" y1="467.725" x2="343.412" y2="461.475" spreadMethod="pad"><stop offset="0%" stop-color="#FFF2C0"/><stop offset="100%" stop-color="#FFDB6F"/></linearGradient><linearGradient id="o" gradientUnits="userSpaceOnUse" x1="315.037" y1="438.85" x2="345.863" y2="422.45" spreadMethod="pad"><stop offset="0%" stop-color="#FFD040"/><stop offset="100%" stop-color="#CE8730"/></linearGradient><linearGradient id="p" gradientUnits="userSpaceOnUse" x1="352.462" y1="433.563" x2="318.038" y2="454.237" spreadMethod="pad"><stop offset="0%" stop-color="#F1B82D"/><stop offset="52.157%" stop-color="#FFCC2A"/><stop offset="85.098%" stop-color="#FFE7A2"/><stop offset="100%" stop-color="#FFD768"/></linearGradient><linearGradient id="q" gradientUnits="userSpaceOnUse" x1="346.925" y1="430.275" x2="316.375" y2="448.625" spreadMethod="pad"><stop offset="0%" stop-color="#F1B82D"/><stop offset="52.157%" stop-color="#FFCC2A"/><stop offset="85.098%" stop-color="#FFE7A2"/><stop offset="100%" stop-color="#FFD768"/></linearGradient><linearGradient id="r" gradientUnits="userSpaceOnUse" x1="349.8" y1="433.563" x2="312.5" y2="458.737" spreadMethod="pad"><stop offset="0%" stop-color="#F1B82D"/><stop offset="40%" stop-color="#FFCC2A"/><stop offset="81.961%" stop-color="#FFE7A2"/><stop offset="100%" stop-color="#FFD768"/></linearGradient><linearGradient id="s" gradientUnits="userSpaceOnUse" x1="344.85" y1="430.087" x2="311.75" y2="452.413" spreadMethod="pad"><stop offset="0%" stop-color="#F1B82D"/><stop offset="40%" stop-color="#FFCC2A"/><stop offset="81.961%" stop-color="#FFE7A2"/><stop offset="100%" stop-color="#FFD768"/></linearGradient><linearGradient id="t" gradientUnits="userSpaceOnUse" x1="301.825" y1="417.3" x2="317.075" y2="457" spreadMethod="pad"><stop offset="0%" stop-color="#FFDB6F"/><stop offset="47.843%" stop-color="#FFE284"/><stop offset="100%" stop-color="#FFEDAC"/></linearGradient><linearGradient id="u" gradientUnits="userSpaceOnUse" x1="376.375" y1="444.387" x2="313.425" y2="482.213" spreadMethod="pad"><stop offset="0%" stop-color="#C3792F"/><stop offset="100%" stop-color="#E5A62F"/></linearGradient><linearGradient id="v" gradientUnits="userSpaceOnUse" x1="372.363" y1="445.5" x2="309.238" y2="480.5" spreadMethod="pad"><stop offset="0%" stop-color="#F1B82D"/><stop offset="83.922%" stop-color="#FFF2C0"/><stop offset="100%" stop-color="#FFE284"/></linearGradient><linearGradient id="w" gradientUnits="userSpaceOnUse" x1="321.85" y1="478.375" x2="317.55" y2="466.525" spreadMethod="pad"><stop offset="0%" stop-color="#FFFCD6"/><stop offset="100%" stop-color="#FFF"/></linearGradient><linearGradient id="x" gradientUnits="userSpaceOnUse" x1="322.063" y1="416.4" x2="307.737" y2="396.7" spreadMethod="pad"><stop offset="0%" stop-color="#81C56D"/><stop offset="100%" stop-color="#1FAA53"/></linearGradient><linearGradient id="y" gradientUnits="userSpaceOnUse" x1="321.212" y1="411.962" x2="309.087" y2="396.438" spreadMethod="pad"><stop offset="0%" stop-color="#C6E09E"/><stop offset="100%" stop-color="#81C56D"/></linearGradient><linearGradient id="z" gradientUnits="userSpaceOnUse" x1="278.563" y1="419.563" x2="294.138" y2="403.438" spreadMethod="pad"><stop offset="0%" stop-color="#2DB455"/><stop offset="100%" stop-color="#008C4A"/></linearGradient><linearGradient id="A" gradientUnits="userSpaceOnUse" x1="281.263" y1="419.425" x2="288.938" y2="404.375" spreadMethod="pad"><stop offset="0%" stop-color="#93CB78"/><stop offset="100%" stop-color="#26AD54"/></linearGradient><linearGradient id="B" gradientUnits="userSpaceOnUse" x1="287.762" y1="356.212" x2="319.738" y2="388.188" spreadMethod="pad"><stop offset="0%" stop-color="#F1B82D"/><stop offset="100%" stop-color="#CE8730"/></linearGradient><linearGradient id="C" gradientUnits="userSpaceOnUse" x1="301.15" y1="371.488" x2="301.15" y2="351.613" spreadMethod="pad"><stop offset="0%" stop-color="#F1B82D"/><stop offset="100%" stop-color="#FFF2C0"/></linearGradient><linearGradient id="D" gradientUnits="userSpaceOnUse" x1="288.462" y1="374.612" x2="274.038" y2="360.688" spreadMethod="pad"><stop offset="0%" stop-color="#BC2E37"/><stop offset="100%" stop-color="#6E2526"/></linearGradient><linearGradient id="E" gradientUnits="userSpaceOnUse" x1="290.738" y1="387.95" x2="267.762" y2="376.25" spreadMethod="pad"><stop offset="0%" stop-color="#EE333F"/><stop offset="61.176%" stop-color="#C93039"/><stop offset="76.863%" stop-color="#EE333F"/><stop offset="85.882%" stop-color="#F6917D"/><stop offset="100%" stop-color="#EE333F"/></linearGradient><linearGradient id="F" gradientUnits="userSpaceOnUse" x1="310.85" y1="383.475" x2="335.95" y2="375.325" spreadMethod="pad"><stop offset="0%" stop-color="#EE333F"/><stop offset="61.176%" stop-color="#C93039"/><stop offset="76.863%" stop-color="#EE333F"/><stop offset="85.882%" stop-color="#F6917D"/><stop offset="100%" stop-color="#EE333F"/></linearGradient><linearGradient id="G" gradientUnits="userSpaceOnUse" x1="293.412" y1="389.2" x2="267.988" y2="409.8" spreadMethod="pad"><stop offset="0%" stop-color="#A12B31"/><stop offset="25.882%" stop-color="#A82C32"/><stop offset="65.882%" stop-color="#EE333F"/><stop offset="81.961%" stop-color="#F6917D"/><stop offset="100%" stop-color="#EE333F"/></linearGradient><linearGradient id="H" gradientUnits="userSpaceOnUse" x1="311.95" y1="389.975" x2="337.75" y2="410.125" spreadMethod="pad"><stop offset="0%" stop-color="#A12B31"/><stop offset="25.882%" stop-color="#A82C32"/><stop offset="65.882%" stop-color="#EE333F"/><stop offset="81.961%" stop-color="#F6917D"/><stop offset="100%" stop-color="#EE333F"/></linearGradient><linearGradient id="I" gradientUnits="userSpaceOnUse" x1="302.85" y1="391.5" x2="302.85" y2="377.4" spreadMethod="pad"><stop offset="0%" stop-color="#D6313B"/><stop offset="27.843%" stop-color="#EE333F"/><stop offset="70.98%" stop-color="#F6917D"/><stop offset="100%" stop-color="#EF4A47"/></linearGradient><linearGradient id="J" gradientUnits="userSpaceOnUse" x1="321.575" y1="368.613" x2="327.325" y2="360.988" spreadMethod="pad"><stop offset="0%" stop-color="#BC2E37"/><stop offset="100%" stop-color="#6E2526"/></linearGradient><path fill="#FFF" fill-opacity="0" d="M284 0H0v320h284V0z" id="K"/><path fill="url(#a)" d="M346 395.25q1.2-1.85 1.9-3.15-4.45 3.15-10.05 2.95-6.05-.2-12.45-4.25-1.05-.65-4.05-1.2-2.7-.45-3.5-1.4-1.05-.5 2.45 3.4t3.95 4.1l1.5 3.8q.15.2 4.55 9.45 3.05 6.3 6.15 7.9 7.9 4.05 16.75 2.3 7.5-1.5 11.9-5.95-1.15.8-3.35.75-2.15-.05-3.95-.85-4.65-1.95-.35-4.75 3.2-2.05 5.4-4.8-4 2.4-7.35 2.1-2.55-.25-3.4-1.25-1-1.2.95-3.15 2.25-2.05 3.25-4.55-3.7 3.55-7.25 3.4-3.1-.1-3.6-2.4-.25-1.05.55-2.45z" id="L"/><path fill="#BBDA8D" d="M341.75 408.45l-1.3 1.05q6.95 2.55 14.55-1.85-2.55 1.25-6.4 1.45-3.65.15-6.85-.65z" id="M"/><path fill="#93CB78" d="M338.35 402.95l-1.05.95q5.7 2.15 12.15-1.6-2.15 1.05-5.4 1.25-3.1.15-5.7-.6z" id="N"/><path fill="#93CB78" d="M332.45 397.55l-1.15.8q5.7 2.7 12.25-.3-2.2.85-5.4.65-3.1-.15-5.7-1.15z" id="O"/><path fill="url(#b)" d="M256.4 392.9q.45 1.55.05 2.5-1 2.15-4.05 1.6-3.5-.6-6.5-4.85.5 2.6 2.25 5.2 1.5 2.3.3 3.25-1 .75-3.55.5-3.1-.3-6.75-3.6 1.35 2.75 4.25 5.9 3.6 3.6-1.3 4.55-4.9 1-7.15-1.45 3.4 5.3 10.4 8.35 8.3 3.55 16.85 1.2 3.35-.9 7.6-6.45 6.05-7.9 6.45-8.3l2.3-3.4q9.5-6.45 7.75-6-.95.75-3.65.6-3.1-.1-4.25.3-7.1 2.7-13 1.65-5.5-1-9.25-5 .5 1.4 1.25 3.45z" id="P"/><path fill="#BBDA8D" d="M267.1 409.55l.15-3.2q-4.55 3.75-12.65 4.8-8.15 1.1-14.15-1.4 10.45 5.25 19.85 2.5 2.35-.7 5.15-2.2 1.641-.82 1.65-.5z" id="Q"/><path fill="#BBDA8D" d="M284.35 399.3l.4-3.15q-4.85 3.45-12.95 3.9-8.25.5-14-2.5 10.05 6.05 19.6 4 2.5-.55 5.3-1.8 1.65-.754 1.65-.45z" id="R"/><path fill="#BBDA8D" d="M273.35 403.65l.35-3.15q-4.75 3.45-12.85 3.9-8.2.5-14.05-2.45 10.05 6 19.6 3.9 2.45-.5 5.25-1.8 1.686-.702 1.7-.4z" id="S"/><path fill="url(#c)" d="M299.5 433.2q2.9-8.3 3.85-13.8 2.75-15.65-7.55-21.75-10.55-5.95-23.35 3.7-5.45 4.1-19.85 20.4-5.25 6.3-7.45 7.7-4.1 2.45-7.15 3.3-3.5.65-6.05 1.3l62.5 36.5q-1.4-4.05-1.9-5.9-.8-3.05-.7-7.85.05-1.65.95-4.6.35-1.15 1.95-5.75 3.15-8.65 4.75-13.25z" id="T"/><path fill="url(#d)" d="M244.85 444.6q1.65-1.5 5.1-3.4 10.45-5.7 17.5-19 4.65-8.65 7.6-12.1 4.4-5.15 11.55-8.2-11.25 1.2-19.85 11.95-2.4 2.95-7.15 9.15-4.45 5.3-9.2 8.25-3.85 2.45-11.45 5.3-6.75 3.2-11.05 9.75l10.7 7.45q2.5-5.75 6.25-9.15z" id="U"/><path fill="#E5A62F" d="M295.8 397.65l-1.05-.6q6.8 5.9 5.2 16.55-1 6.7-6.5 18.8-6.8 14.65-7 15.1-3.3 8.8-2.15 16.3v.5l11.9 6.85q-1.45-4.05-1.95-5.9-.8-3.05-.65-7.85.05-1.7.95-4.65.1-.35 1.9-5.7 3.05-8.7 4.5-13.4 2.55-8.15 3.25-13.95 2-15.85-8.4-22.05z" id="V"/><path fill="url(#e)" d="M261.05 457.9q12.25 7.05 21.7 15 9.1 7.65 13 13.95l2.35-10.95q.75-3.2.55-3.9-.2-.45-2.75-3.3-4.75-5.3-12.05-10.95-7.4-5.7-16.45-10.95-9-5.15-17.7-8.75-8.5-3.5-15.45-5-3.85-.8-4.25-.75-.75.15-3.1 2.25l-8.35 7.8q7.45.25 18.65 4.25 11.6 4.2 23.85 11.3z" id="W"/><path fill="#FFFCD6" d="M249.65 440.6l2.55-1.5q-7.25-3.05-11.55-4.3-3.65 1.5-6.15 3.25-3.35 2.25-6.05 5.8 5.95 1.55 12.6 4.2 2.1-3.05 4.85-5.1.95-.7 3.75-2.35z" id="X"/><path fill="url(#f)" d="M252.6 472.5q15.95 9.15 28.7 13.45 12.65 4.3 14.4 1.25 1.75-3-8.25-11.7-10.1-8.85-25.9-18.05-15.8-9.15-28.75-13.55-12.75-4.35-14.55-1.35-1.75 3 8.35 11.85 10.2 9 26 18.1z" id="Y"/><path fill="url(#g)" d="M253.4 470.95q14.65 8.4 26.05 12.6 11.4 4.15 12.9 1.65 1.45-2.6-7.85-10.4-9.3-7.8-23.9-16.25-14.5-8.4-26-12.55-11.4-4.15-12.85-1.65-1.55 2.6 7.75 10.4 9.25 7.75 23.9 16.2z" id="Z"/><path fill="url(#h)" d="M278 469.75q-7.8-5.65-17.4-11.2-9.5-5.5-18.35-9.45-8.5-3.75-14.05-5.1 3.9 4.15 11.45 9.6 7.8 5.65 17.35 11.15 9.65 5.55 18.4 9.5 8.5 3.8 13.95 5.05-3.9-4.1-11.35-9.55z" id="aa"/><path fill="url(#i)" d="M260.6 458.55q-2.1-1.25-8.4-4.6-3.8 1.65-5.7 5.05-2.45 4.25-1.15 9.05 1.3 4.85 5.55 7.25 4.3 2.5 9.1 1.25 4.85-1.3 7.3-5.6 2-3.3 1.5-7.35-4.9-3.2-8.2-5.05z" id="ab"/><path fill="url(#j)" d="M254.45 434.45q7.55 2.8 15.5 7.4 8.25 4.7 14.65 10.1 6.15 5.15 9 9.5-.15-1.65 0-4.05 0-1.6.7-3.8l-1.95-1.95q-6.8-7.65-19.65-15.05-12.6-7.3-22.9-9.5l-1.55-.35q-1.75 1.8-3.1 2.7l-3.2 1.8q5.2.45 12.5 3.2z" id="ac"/><path fill="url(#k)" d="M249.5 425.35q10.8 2.3 24.35 10.1 13.65 7.7 21.05 16.2.35-1.35.7-2.15l-1.1-1.1q-6.9-7.75-19.55-15.05-12.6-7.3-22.9-9.5l-1-.2-1.55 1.7z" id="ad"/><path fill="#F1B82D" d="M294.25 453.6h.05l-1.95-1.95q-2.45-2.7-5.45-5.2-1.3 3.25-1.95 5.85 5.9 4.85 8.65 9.15v-.95l-.1-.8v-1.95l.1-.35v-.85h.05v-.45q.1-.05.1-.15.05-.85.5-2.35z" id="ae"/><path fill="#F1B82D" d="M288.5 442.65l-.9 2.1q4.45 3.6 7.3 6.9.35-1.35.7-2.15l-1.1-1.1q-2.15-2.45-6-5.75z" id="af"/><path fill="url(#l)" d="M257.95 457.9q1.15 0 1.75.15l-3.85-2.15q-3.45.4-5.8 3-2.4 2.6-2.4 6.15 0 3.1 1.8 5.45-.7-1.7-.7-3.45 0-3.8 2.7-6.45 2.7-2.7 6.5-2.7z" id="ag"/><path fill="#FFFCD6" d="M248.3 432.4q4.25 1.2 9.15 3.25 1.95-1.75 4.25-4.6-3.5-1.5-7.3-2.75-1.85 1.55-4 2.95l-2.1 1.15z" id="ah"/><path fill="#FFFCD6" d="M255.8 427.1q3.65 1.2 6.9 2.65l1.35-1.85q-3.55-1.6-6.55-2.55l-1.7 1.75z" id="ai"/><path fill="url(#m)" d="M343.7 458.5q-5.6 3.3-8.2 4.95-.45 3.9 1.5 7.4 2.45 4.3 7.3 5.6 4.8 1.3 9.1-1.2 4.35-2.45 5.6-7.3 1.3-4.75-1.2-9.1-2.05-3.5-5.6-5-4.85 2.5-8.5 4.65z" id="aj"/><path fill="url(#n)" d="M338.3 465.15q0 2.35 1.2 4.45 1.2 2.15 3.35 3.35 2.65 1.45 5.6 1.15-1.85-.25-3.3-1.15-3.3-1.9-4.25-5.55-1-3.7.95-7 .35-.7 1-1.35-1.95 1.05-3.75 2.25-.8 1.4-.8 3.5v.35z" id="ak"/><path fill="url(#o)" d="M308.5 397.55q-10.4 6.2-8.4 22.05.85 7.05 7.8 27.35 1.6 4.6 1.95 5.75.9 2.95.95 4.6.15 5.75-.25 7.85-.4 2.05-2.4 5.85l.9 5.05 37.25-9.1 24.7-31.8q-4.2-.8-6.05-1.3-3.05-.8-7.15-3.3-1.4-.9-3.5-3.15-.1-.1-4-4.5-5.95-7.1-9.1-10.8-5.75-6.65-10.05-10.25-12.2-10.2-22.65-4.3z" id="al"/><path fill="url(#p)" d="M310.8 457.3v2.4q12.2-3.9 27.95-12.95 12.5-7.2 21.65-14.7l-2.6-1.5q-1.25-.8-2.35-2.05-9 6.9-20.05 13.25-13.1 7.7-25.2 12.2.45 2.05.6 3.35z" id="am"/><path fill="url(#q)" d="M309.05 450.35l.65 2q11.45-4.25 24.35-11.65 11-6.4 20.1-13.45l-1.5-1.7q-8.6 6.6-19.95 13.2-12.75 7.25-23.65 11.6z" id="an"/><path fill="url(#r)" d="M310.8 457.3v2.4q12.2-3.9 27.95-12.95 12.5-7.2 21.65-14.7l-2.6-1.5q-1.25-.8-2.35-2.05-9 6.9-20.05 13.25-13.1 7.7-25.2 12.2.45 2.05.6 3.35z" id="ao"/><path fill="url(#s)" d="M309.05 450.35l.65 2q11.45-4.25 24.35-11.65 11-6.4 20.1-13.45l-1.5-1.7q-8.6 6.6-19.95 13.2-12.75 7.25-23.65 11.6z" id="ap"/><path fill="url(#t)" d="M315.7 434.35q-5.25-8.35-6.8-12.6-2.25-6.35-1.25-14.1-4.6 10.25.4 23.1 1.4 3.5 4.35 10.8 2.35 6.5 2.55 12.1.25 7-.35 11.45-.7 5.4-.3 9.65l11.55-2.8q-1.4-4.05-2.1-8.2-.45-2.85-.45-4.75.3-11.75-7.6-24.65z" id="aq"/><path fill="#E5A62F" d="M308.5 397.55l-1 .65q8.5-3 16.95 3.7 5.35 4.25 13 15.1 2.55 3.55 7.45 10.7 4.45 6.05 8.75 9.25 3.2 2.35 6.7 3.55 2.2.75 7.9 2.2l4.75-8.75q-4.6-.5-6.35-1-3-.9-7.45-3.65-1.4-.85-3.5-3.1-2.6-2.9-4-4.5-14.45-16.35-19.85-20.4-12.8-9.7-23.35-3.75z" id="ar"/><path fill="url(#u)" d="M307.2 473.15q-.25-.15.85 2.7l.65 9.9q0 .3.3.9.25.9.95 1.25.6.3 1.8.25 3.35-.25 7.85-1.5 6.1-1.7 14.35-5.45 8.55-3.85 17.55-9.05 10.55-6.1 22.1-15.35 8.4-6.75 10.8-10.15 1.25-1.9 1.35-2.75.05-.4-.45-1.35-.3-.45-.65-.65l-9.15-4.1q-1.65-1.95-1.55-1.55.4 1.45-1.3 3.15-4.05 4.05-12.1 9.35-6.2 4.05-17.15 10.35-8.5 4.9-17.7 8.85-8 3.45-14.6 5.35-2.7.75-3.9-.15z" id="as"/><path fill="#F1B82D" d="M314.2 469.4q-.4 8.45 3.8 17.65 5.1-1.2 13.15-4.6-5.25-7.7-7.05-17-5.85 2.6-9.9 3.95z" id="at"/><path fill="#FFCC2A" d="M353.65 436.95l.15.15q4.55-3.3 7.95-6.2-2-1.2-2.55-1.6-1.15-.6-2.3-1.85-4 3.05-7.6 5.55 2.1 2.3 4.35 3.95z" id="au"/><path fill="#FFCC2A" d="M346.6 429.95l1.5 1.75q3.85-2.75 7.4-5.6l-1.45-1.7q-4.55 3.6-7.45 5.55z" id="av"/><path fill="#FFFCD6" d="M323.2 454.8q-.4-3.35-1.1-5.95-4.3 2.05-7.2 3.2l.05 1.6q.1 1.65.1 4.55 3.05-1.1 8.15-3.4z" id="aw"/><path fill="#FFFCD6" d="M314.7 450.35l6.95-3.1-.75-2.25q-1.95 1-6.6 3.1l.4 2.25z" id="ax"/><path fill="url(#v)" d="M312.9 469.85l-.8.2q-.05.05-.35.15-.1 0-.4.15l-.75.2q-.15 0-.25.1h-.2l-.2.05-.25.1-.2.05h-.2q-.1.1-.25.1l-.15.05h-.2q-.05.1-.15.1h-.2l-.15.05h-.15l-.15.05h-.25q0 .1-.15.1h-.1l-.15.05h-.15l-.05.1h-.2l-.1.05h-.05q-.1.1-.15.1h-.05l-.1.05h-.05v.1h-.1l-.05.05-.1.05-.05.1v.05q0 .1-.1.1v.15l-.05.05v.85l.05.15v.3l.1.15v.15l.05.15v.1q0 .15.1.25v.15l.05.2v.2q.1.1.1.25l.05.2v.2q.1.1.1.25l2.2 9.9v.1q2.65 1.05 14.4-3.2 13.2-4.8 26.95-12.7 13.7-7.95 24.55-17.05 9.65-8.05 10.15-10.9l-7.85-7.3q-.15 0-.15-.15l-.2-.1-.15-.15-.1-.15-.15-.1-.35-.35h-.05q-.1-.05-.1-.15l-.15-.05-.05-.1-.2-.2-.1-.05-.05-.1-.15-.05h-.05q0-.1-.1-.1l-.05-.05q-.1 0-.1-.1h-.05l-.1-.05h-.05l-.1-.05h-.55v.05h-.1l-.05.05h-.05q0 .1-.1.1l-.7.7-.1.15-.15.1-.05.05-.05.15-.1.05-.15.15-.05.15q-.1.1-.15.1l-.15.1-.05.15-.3.3-.3.2q-4.5 4.55-11.95 9.95-7.75 5.65-17 10.95l-3.95 2.25q-.2.15-.6.35-.2.05-.55.3-.35.2-.6.25l-1.65.9q-.1.15-.5.25-.3.25-.55.3-.45.25-.6.3l-1.05.55q-.15.1-.5.3l-1.7.8q-.05.05-.5.2l-1.05.6-.5.2q-.15.1-.5.3l-.55.2-3.05 1.4-1.05.4-.4.25q-.3.05-.5.2l-1.45.65-1.9.7-.5.25-.4.1-.45.25q-.2 0-.45.15-.3.15-.4.15l-.5.2q-.2 0-.45.15-.2 0-.45.15l-.35.15-1.3.4q-.25.1-.4.15z" id="ay"/><path fill="url(#w)" d="M314.6 469.3l-.4.1q-.4 7.2 2.7 15.2 4.55-1.15 12.75-4.5-4-6.8-5.55-14.65-.2.1-.25.1l-1.05.4-.4.25q-.3.05-.5.2l-1.45.65-1.9.7-.5.25-.4.1-.45.25q-.2 0-.45.15-.3.15-.4.15l-.5.2q-.2 0-.45.15-.2 0-.45.15l-.35.15z" id="az"/><path fill="url(#x)" d="M307.15 394q-2.05.2-3 .2-1.45 6.95-1.4 12 .05 5.7 2 10.25.25-2.3 1.25-3.3.9-.95 2.05-.35 2.75 1.5 3.1 8.65 1.4-5 3.95-2.8 1.8 1.55 4.25 6.8-1.7-4.2 1.65-4.8 3.35-.55 6.35 4.2-1.95-5 .4-5.75 2.15-.7 5.15 2.3-.4-4-.85-8.1-.95-8.25-1.3-8.75-1-1.45-9.25-6.05-8.45-4.7-10.35-4.7-1.95 0-4 .2z" id="aA"/><path fill="#69BE62" d="M312.1 400.65l-1.95.65q6.8 3.4 14.6-.05-2.65 1-6.25.75-3.35-.2-6.4-1.35z" id="aB"/><path fill="#93CB78" d="M316.35 407.55l-1.25.8q5.65 2.7 12.35-.25-2.25.85-5.5.65-3.1-.2-5.6-1.2z" id="aC"/><path fill="#A6D282" d="M311.8 402.15l-.65-1.25q-2.8 5.5.3 12.2-.9-2.3-.8-5.4.15-2.9 1.15-5.55z" id="aD"/><path fill="#A6D282" d="M316.2 408.8l-1.1-1.3q-.65 6.25 4.4 11.4-1.55-1.75-2.45-4.65-.85-2.7-.85-5.45z" id="aE"/><path fill="url(#y)" d="M310.35 393.25l-3.15-2.3q.284.545.85 2.95 1.05 4.45 1.4 5.45 3.45 11.05 16.25 16.05-5.85-2.75-10.5-9.55-4.6-6.7-4.85-12.6z" id="aF"/><path fill="url(#z)" d="M302.1 384.15l-12.9 10.15-1.5 4.05q-.25.9-2.65.15-2.2-.65-2.05.2l-6.5 7.8-.25.8q-.2-.45-2.65 3.15-2.85 4.2-5 9.5 2.65-2 3.85-1.55 1.15.4.05 2.35-1.95 3.65-1.95 6.2 1.4-2.15 2.8-2.8 1.3-.6 1.45.5.3 2.6.45 3.2.3 1.45 1.25 3.05.2-1 .35-1.85.35-1.65.9-2.85.6-1.4 1.6-1.95 1.2-.65 2.3.25.3.25 1.4 1.7 1.05 1.4 1.7 1.8-1.05-2.6-.95-4.35.05-1.6.95-2.1 1.2-.75 2.7.15.8.5 2.2 2.05-1.1-4.1.5-6 1.6-1.95 4.95 0-1.75-5.5.8-7.1 2.35-1.45 6.1 1.15-1.75-2.2-2.2-3.9-.4-1.55.35-2.4.95-1.05 2.6-.55 1 .3 2.7 1.4-.8-1.4-1.2-3.2-.45-2.15 0-3.5.4-1.25 1.55-1.5 1.3-.25 3.1 1.05-.05-3-2.05-7.3-1.95-4.35-4.75-7.75z" id="aG"/><path fill="#0EA251" d="M295.75 394.95l-.8.8q3.45 3.45 4.2 7.45-.55-5.05-3.4-8.25z" id="aH"/><path fill="#26AD54" d="M291.45 399.35l-.9.9q1.5 2.05 2.4 4.45.9 2.5.85 4.65.55-5.75-2.35-10z" id="aI"/><path fill="#69BE62" d="M284.85 406v.05q1.45 2.5 1.95 5.6.55 3.15-.1 5.7 2.3-6.75-1.05-12.15l-.8.8z" id="aJ"/><path fill="#69BE62" d="M281.5 411.6l-.8 1.15q1 2.35 1.3 4.85.3 2.65-.3 4.65 2.05-5.8-.2-10.65z" id="aK"/><path fill="url(#A)" d="M299.25 393.75l-3.45-.95q1.206.384-8.5 9.05-9.87 10.82-10.25 21.75.429-6.211 6.95-15.15 6.95-9.55 15.25-14.7z" id="aL"/><path fill="url(#B)" d="M303.65 350.55q-8.85 0-15.15 6.3-6.35 6.35-6.35 15.3 0 8.9 6.35 15.25 6.3 6.35 15.15 6.35 8.95 0 15.25-6.35 6.35-6.3 6.35-15.25t-6.35-15.3q-6.3-6.3-15.25-6.3M292.3 360.7q4.7-4.75 11.35-4.75 6.7 0 11.45 4.75 4.75 4.75 4.75 11.45 0 6.7-4.75 11.45-4.75 4.75-11.45 4.75-6.65 0-11.35-4.75-4.75-4.75-4.75-11.45 0-6.7 4.75-11.45z" id="aM"/><path fill="url(#C)" d="M317.55 361.15q-2.35-3.9-6.3-6.2-4.05-2.3-8.8-2.3-7.3 0-12.5 5.2-5.2 5.25-5.2 12.55 0 6.25 3.85 11.05-2.65-4.3-2.65-9.3 0-7.35 5.2-12.55 5.2-5.25 12.5-5.25 4.15 0 7.85 1.85 3.55 1.8 6.05 4.95z" id="aN"/><path fill="url(#D)" d="M273.2 361.15q1.2 10.1 9.85 15.6Q290 381.2 297.7 381l.05.85 3.2-2.45q-7.95-3.8-12.4-9.05-4.9-7-8.5-11.8-1.45-1.9-3.95-1.45-2.7.5-2.9 4.05z" id="aO"/><path fill="url(#E)" d="M265.5 393.1q6.4 3.05 17.5 2.35 11.05-.7 15.25-4.3l.45-10.85q-11.3-4.65-13-5.65-9.65-5.5-12.5-13.65-.5 4-2.75 8.85-2.15 4.75-5.15 8.7-2.25 2.85-3 4.15-1.05 1.9-.95 3.8.05 1.9.95 3.55 1.1 2 3.2 3.05z" id="aP"/><path fill="url(#F)" d="M336.55 368.05q-.15-1.85-.85-3.8-.65-1.95-1.6-3.2-1.25-1.7-3.55-1.95-2.45-.25-3.65 1.6-.4.6-.7.95-.5.7-2.45 3.85-1.55 2.5-2.95 4-1.65 1.85-6.1 5.25-4.95 4-9.9 4.6l.5 13.75q4.1-1.65 8.95-.45 8.55 2.15 10 2.3 8.15.9 13.65-2.25 6.65-3.8 2.7-11.5-1.85-3.7-2.75-6.5-.85-2.8-1.3-6.65z" id="aQ"/><path fill="url(#G)" d="M299.4 394.4l5.05-6.55q-17.65.2-31.3 8.6-3.75 2.3-11.15 7.2-6.9 4.15-13.85 6.3 4.7 2.05 9.25 2.15 4.5.1 7.6-1.7-1.65 1.05-1.4 7.1.25 5.55 1.7 10.4 1.55-9.3 11.95-20.05 11-11.35 22.15-13.45z" id="aR"/><path fill="url(#H)" d="M301.2 387.85l5.05 6.55q11.25 2.1 22.25 13.45 10.35 10.7 11.9 20.05 1.45-4.85 1.7-10.4.25-6.05-1.4-7.1 3.1 1.8 7.6 1.7 4.6-.1 9.3-2.15-7-2.15-13.9-6.3-7.4-4.9-11.15-7.2-13.65-8.4-31.35-8.6z" id="aS"/><path fill="url(#I)" d="M296.55 393.9q1.15 1.15 2.7 1.15h7.1q1.6 0 2.8-1.15 1.15-1.2 1.15-2.8v-9.6q0-1.6-1.15-2.8-1.2-1.15-2.8-1.15h-7.1q-1.55 0-2.7 1.15-1.15 1.2-1.15 2.8v9.6q0 1.6 1.15 2.8z" id="aT"/><path fill="url(#J)" d="M326.25 361.4l-1.55 2.55q-3.3 4.45-4.45 5.7-1.5 1.6-6.3 5.65 11.95-7 14.55-13.15.65-1.4-.2-2.1-.85-.6-2.05 1.35z" id="aU"/></defs><use xlink:href="#K"/><use xlink:href="#L" transform="matrix(1.693 0 0 1.693 -369.023 -540.229)"/><use xlink:href="#M" transform="matrix(1.693 0 0 1.693 -369.023 -540.229)"/><use xlink:href="#N" transform="matrix(1.693 0 0 1.693 -369.023 -540.229)"/><use xlink:href="#O" transform="matrix(1.693 0 0 1.693 -369.023 -540.229)"/><use xlink:href="#P" transform="matrix(1.693 0 0 1.693 -369.023 -540.229)"/><use xlink:href="#Q" transform="matrix(1.693 0 0 1.693 -369.023 -540.229)"/><use xlink:href="#R" transform="matrix(1.693 0 0 1.693 -369.023 -540.229)"/><use xlink:href="#S" transform="matrix(1.693 0 0 1.693 -369.023 -540.229)"/><use xlink:href="#T" transform="matrix(1.693 0 0 1.693 -369.023 -540.229)"/><use xlink:href="#U" transform="matrix(1.693 0 0 1.693 -369.023 -540.229)"/><use xlink:href="#V" transform="matrix(1.693 0 0 1.693 -369.023 -540.229)"/><use xlink:href="#W" transform="matrix(1.693 0 0 1.693 -369.023 -540.229)"/><use xlink:href="#X" transform="matrix(1.693 0 0 1.693 -369.023 -540.229)"/><use xlink:href="#Y" transform="matrix(1.693 0 0 1.693 -369.023 -540.229)"/><use xlink:href="#Z" transform="matrix(1.693 0 0 1.693 -369.023 -540.229)"/><use xlink:href="#aa" transform="matrix(1.693 0 0 1.693 -369.023 -540.229)"/><use xlink:href="#ab" transform="matrix(1.693 0 0 1.693 -369.023 -540.229)"/><use xlink:href="#ac" transform="matrix(1.693 0 0 1.693 -369.023 -540.229)"/><use xlink:href="#ad" transform="matrix(1.693 0 0 1.693 -369.023 -540.229)"/><use xlink:href="#ae" transform="matrix(1.693 0 0 1.693 -369.023 -540.229)"/><use xlink:href="#af" transform="matrix(1.693 0 0 1.693 -369.023 -540.229)"/><use xlink:href="#ag" transform="matrix(1.693 0 0 1.693 -369.023 -540.229)"/><use xlink:href="#ah" transform="matrix(1.693 0 0 1.693 -369.023 -540.229)"/><use xlink:href="#ai" transform="matrix(1.693 0 0 1.693 -369.023 -540.229)"/><use xlink:href="#aj" transform="matrix(1.693 0 0 1.693 -369.023 -540.229)"/><use xlink:href="#ak" transform="matrix(1.693 0 0 1.693 -369.023 -540.229)"/><use xlink:href="#al" transform="matrix(1.693 0 0 1.693 -369.023 -540.229)"/><use xlink:href="#am" transform="matrix(1.693 0 0 1.693 -369.023 -540.229)"/><use xlink:href="#an" transform="matrix(1.693 0 0 1.693 -369.023 -540.229)"/><use xlink:href="#ao" transform="matrix(1.693 0 0 1.693 -369.023 -540.229)"/><use xlink:href="#ap" transform="matrix(1.693 0 0 1.693 -369.023 -540.229)"/><use xlink:href="#aq" transform="matrix(1.693 0 0 1.693 -369.023 -540.229)"/><use xlink:href="#ar" transform="matrix(1.693 0 0 1.693 -369.023 -540.229)"/><use xlink:href="#as" transform="matrix(1.693 0 0 1.693 -369.023 -540.229)"/><use xlink:href="#at" transform="matrix(1.693 0 0 1.693 -369.023 -540.229)"/><use xlink:href="#au" transform="matrix(1.693 0 0 1.693 -369.023 -540.229)"/><use xlink:href="#av" transform="matrix(1.693 0 0 1.693 -369.023 -540.229)"/><use xlink:href="#aw" transform="matrix(1.693 0 0 1.693 -369.023 -540.229)"/><use xlink:href="#ax" transform="matrix(1.693 0 0 1.693 -369.023 -540.229)"/><use xlink:href="#ay" transform="matrix(1.693 0 0 1.693 -369.023 -540.229)"/><use xlink:href="#az" transform="matrix(1.693 0 0 1.693 -369.023 -540.229)"/><use xlink:href="#aA" transform="matrix(1.693 0 0 1.693 -369.023 -540.229)"/><use xlink:href="#aB" transform="matrix(1.693 0 0 1.693 -369.023 -540.229)"/><use xlink:href="#aC" transform="matrix(1.693 0 0 1.693 -369.023 -540.229)"/><use xlink:href="#aD" transform="matrix(1.693 0 0 1.693 -369.023 -540.229)"/><use xlink:href="#aE" transform="matrix(1.693 0 0 1.693 -369.023 -540.229)"/><use xlink:href="#aF" transform="matrix(1.693 0 0 1.693 -369.023 -540.229)"/><use xlink:href="#aG" transform="matrix(1.693 0 0 1.693 -369.023 -540.229)"/><use xlink:href="#aH" transform="matrix(1.693 0 0 1.693 -369.023 -540.229)"/><use xlink:href="#aI" transform="matrix(1.693 0 0 1.693 -369.023 -540.229)"/><use xlink:href="#aJ" transform="matrix(1.693 0 0 1.693 -369.023 -540.229)"/><use xlink:href="#aK" transform="matrix(1.693 0 0 1.693 -369.023 -540.229)"/><use xlink:href="#aL" transform="matrix(1.693 0 0 1.693 -369.023 -540.229)"/><use xlink:href="#aM" transform="matrix(1.693 0 0 1.693 -369.023 -540.229)"/><use xlink:href="#aN" transform="matrix(1.693 0 0 1.693 -369.023 -540.229)"/><use xlink:href="#aO" transform="matrix(1.693 0 0 1.693 -369.023 -540.229)"/><use xlink:href="#aP" transform="matrix(1.693 0 0 1.693 -369.023 -540.229)"/><use xlink:href="#aQ" transform="matrix(1.693 0 0 1.693 -369.023 -540.229)"/><use xlink:href="#aR" transform="matrix(1.693 0 0 1.693 -369.023 -540.229)"/><use xlink:href="#aS" transform="matrix(1.693 0 0 1.693 -369.023 -540.229)"/><use xlink:href="#aT" transform="matrix(1.693 0 0 1.693 -369.023 -540.229)"/><use xlink:href="#aU" transform="matrix(1.693 0 0 1.693 -369.023 -540.229)"/></svg>