<svg xmlns="http://www.w3.org/2000/svg" xmlns:xlink="http://www.w3.org/1999/xlink" preserveAspectRatio="none" width="284" height="320"><defs><linearGradient id="a" gradientUnits="userSpaceOnUse" x1="461" y1="523.863" x2="447.1" y2="519.337" spreadMethod="pad"><stop offset="0%" stop-color="#00964D"/><stop offset="100%" stop-color="#BBDA8D"/></linearGradient><linearGradient id="b" gradientUnits="userSpaceOnUse" x1="460.488" y1="523.5" x2="453.713" y2="521.3" spreadMethod="pad"><stop offset="0%" stop-color="#B86A2F"/><stop offset="100%" stop-color="#E5A62F"/></linearGradient><linearGradient id="c" gradientUnits="userSpaceOnUse" x1="486.712" y1="640.862" x2="500.688" y2="645.138" spreadMethod="pad"><stop offset="0%" stop-color="#00964D"/><stop offset="100%" stop-color="#BBDA8D"/></linearGradient><linearGradient id="d" gradientUnits="userSpaceOnUse" x1="486.387" y1="640.762" x2="493.213" y2="642.837" spreadMethod="pad"><stop offset="0%" stop-color="#B86A2F"/><stop offset="100%" stop-color="#E5A62F"/></linearGradient><linearGradient id="e" gradientUnits="userSpaceOnUse" x1="433.575" y1="538" x2="419.425" y2="541" spreadMethod="pad"><stop offset="0%" stop-color="#00964D"/><stop offset="100%" stop-color="#BBDA8D"/></linearGradient><linearGradient id="f" gradientUnits="userSpaceOnUse" x1="433.512" y1="537.713" x2="426.588" y2="539.188" spreadMethod="pad"><stop offset="0%" stop-color="#B86A2F"/><stop offset="100%" stop-color="#E5A62F"/></linearGradient><linearGradient id="g" gradientUnits="userSpaceOnUse" x1="514.275" y1="626.5" x2="528.425" y2="623.5" spreadMethod="pad"><stop offset="0%" stop-color="#00964D"/><stop offset="100%" stop-color="#BBDA8D"/></linearGradient><linearGradient id="h" gradientUnits="userSpaceOnUse" x1="514.538" y1="626.737" x2="521.462" y2="625.263" spreadMethod="pad"><stop offset="0%" stop-color="#B86A2F"/><stop offset="100%" stop-color="#E5A62F"/></linearGradient><linearGradient id="i" gradientUnits="userSpaceOnUse" x1="416.25" y1="564.425" x2="405.75" y2="573.875" spreadMethod="pad"><stop offset="0%" stop-color="#00964D"/><stop offset="100%" stop-color="#BBDA8D"/></linearGradient><linearGradient id="j" gradientUnits="userSpaceOnUse" x1="416.15" y1="564.163" x2="410.75" y2="569.038" spreadMethod="pad"><stop offset="0%" stop-color="#B86A2F"/><stop offset="100%" stop-color="#E5A62F"/></linearGradient><linearGradient id="k" gradientUnits="userSpaceOnUse" x1="530.6" y1="600.575" x2="541.1" y2="591.125" spreadMethod="pad"><stop offset="0%" stop-color="#00964D"/><stop offset="100%" stop-color="#BBDA8D"/></linearGradient><linearGradient id="l" gradientUnits="userSpaceOnUse" x1="530.7" y1="600.737" x2="536.1" y2="595.862" spreadMethod="pad"><stop offset="0%" stop-color="#B86A2F"/><stop offset="100%" stop-color="#E5A62F"/></linearGradient><linearGradient id="m" gradientUnits="userSpaceOnUse" x1="415.212" y1="594.8" x2="410.688" y2="608.7" spreadMethod="pad"><stop offset="0%" stop-color="#00964D"/><stop offset="100%" stop-color="#BBDA8D"/></linearGradient><linearGradient id="n" gradientUnits="userSpaceOnUse" x1="414.8" y1="595.313" x2="412.6" y2="602.088" spreadMethod="pad"><stop offset="0%" stop-color="#B86A2F"/><stop offset="100%" stop-color="#E5A62F"/></linearGradient><linearGradient id="o" gradientUnits="userSpaceOnUse" x1="532.237" y1="569.1" x2="536.763" y2="555.2" spreadMethod="pad"><stop offset="0%" stop-color="#00964D"/><stop offset="100%" stop-color="#BBDA8D"/></linearGradient><linearGradient id="p" gradientUnits="userSpaceOnUse" x1="532.3" y1="569.488" x2="534.5" y2="562.712" spreadMethod="pad"><stop offset="0%" stop-color="#B86A2F"/><stop offset="100%" stop-color="#E5A62F"/></linearGradient><linearGradient id="q" gradientUnits="userSpaceOnUse" x1="429.275" y1="622.35" x2="432.525" y2="636.45" spreadMethod="pad"><stop offset="0%" stop-color="#00964D"/><stop offset="100%" stop-color="#BBDA8D"/></linearGradient><linearGradient id="r" gradientUnits="userSpaceOnUse" x1="429.3" y1="622.55" x2="430.9" y2="629.45" spreadMethod="pad"><stop offset="0%" stop-color="#B86A2F"/><stop offset="100%" stop-color="#E5A62F"/></linearGradient><linearGradient id="s" gradientUnits="userSpaceOnUse" x1="517.75" y1="541.675" x2="514.75" y2="527.525" spreadMethod="pad"><stop offset="0%" stop-color="#00964D"/><stop offset="100%" stop-color="#BBDA8D"/></linearGradient><linearGradient id="t" gradientUnits="userSpaceOnUse" x1="517.987" y1="541.413" x2="516.513" y2="534.488" spreadMethod="pad"><stop offset="0%" stop-color="#B86A2F"/><stop offset="100%" stop-color="#E5A62F"/></linearGradient><linearGradient id="u" gradientUnits="userSpaceOnUse" x1="455.538" y1="639.538" x2="465.163" y2="649.863" spreadMethod="pad"><stop offset="0%" stop-color="#00964D"/><stop offset="100%" stop-color="#BBDA8D"/></linearGradient><linearGradient id="v" gradientUnits="userSpaceOnUse" x1="455.575" y1="639.438" x2="460.525" y2="644.763" spreadMethod="pad"><stop offset="0%" stop-color="#B86A2F"/><stop offset="100%" stop-color="#E5A62F"/></linearGradient><linearGradient id="w" gradientUnits="userSpaceOnUse" x1="491.725" y1="525.2" x2="482.275" y2="514.7" spreadMethod="pad"><stop offset="0%" stop-color="#00964D"/><stop offset="100%" stop-color="#BBDA8D"/></linearGradient><linearGradient id="x" gradientUnits="userSpaceOnUse" x1="491.988" y1="525.1" x2="487.113" y2="519.7" spreadMethod="pad"><stop offset="0%" stop-color="#B86A2F"/><stop offset="100%" stop-color="#E5A62F"/></linearGradient><linearGradient id="y" gradientUnits="userSpaceOnUse" x1="473.488" y1="629.05" x2="489.213" y2="629.05" spreadMethod="pad"><stop offset="0%" stop-color="#00964D"/><stop offset="100%" stop-color="#BBDA8D"/></linearGradient><linearGradient id="z" gradientUnits="userSpaceOnUse" x1="473.462" y1="629.05" x2="480.837" y2="629.05" spreadMethod="pad"><stop offset="0%" stop-color="#B86A2F"/><stop offset="100%" stop-color="#E5A62F"/></linearGradient><linearGradient id="A" gradientUnits="userSpaceOnUse" x1="470.775" y1="615.975" x2="483.525" y2="608.025" spreadMethod="pad"><stop offset="0%" stop-color="#00964D"/><stop offset="100%" stop-color="#BBDA8D"/></linearGradient><linearGradient id="B" gradientUnits="userSpaceOnUse" x1="470.788" y1="616.013" x2="476.913" y2="612.188" spreadMethod="pad"><stop offset="0%" stop-color="#B86A2F"/><stop offset="100%" stop-color="#E5A62F"/></linearGradient><linearGradient id="C" gradientUnits="userSpaceOnUse" x1="470.775" y1="642.075" x2="483.525" y2="650.025" spreadMethod="pad"><stop offset="0%" stop-color="#00964D"/><stop offset="100%" stop-color="#BBDA8D"/></linearGradient><linearGradient id="D" gradientUnits="userSpaceOnUse" x1="470.788" y1="642.087" x2="476.913" y2="645.913" spreadMethod="pad"><stop offset="0%" stop-color="#B86A2F"/><stop offset="100%" stop-color="#E5A62F"/></linearGradient><linearGradient id="E" gradientUnits="userSpaceOnUse" x1="449.887" y1="622.6" x2="463.713" y2="630.6" spreadMethod="pad"><stop offset="0%" stop-color="#00964D"/><stop offset="100%" stop-color="#BBDA8D"/></linearGradient><linearGradient id="F" gradientUnits="userSpaceOnUse" x1="450.313" y1="622.825" x2="456.987" y2="626.675" spreadMethod="pad"><stop offset="0%" stop-color="#B86A2F"/><stop offset="100%" stop-color="#E5A62F"/></linearGradient><linearGradient id="G" gradientUnits="userSpaceOnUse" x1="454.5" y1="610.063" x2="469.4" y2="609.537" spreadMethod="pad"><stop offset="0%" stop-color="#1FAA53"/><stop offset="100%" stop-color="#BBDA8D"/></linearGradient><linearGradient id="H" gradientUnits="userSpaceOnUse" x1="454.475" y1="610.125" x2="461.425" y2="609.875" spreadMethod="pad"><stop offset="0%" stop-color="#B86A2F"/><stop offset="100%" stop-color="#E5A62F"/></linearGradient><linearGradient id="I" gradientUnits="userSpaceOnUse" x1="441.438" y1="633" x2="448.462" y2="646.2" spreadMethod="pad"><stop offset="0%" stop-color="#1FAA53"/><stop offset="100%" stop-color="#BBDA8D"/></linearGradient><linearGradient id="J" gradientUnits="userSpaceOnUse" x1="441.262" y1="632.675" x2="444.637" y2="639.025" spreadMethod="pad"><stop offset="0%" stop-color="#B86A2F"/><stop offset="100%" stop-color="#E5A62F"/></linearGradient><linearGradient id="K" gradientUnits="userSpaceOnUse" x1="433.412" y1="606.137" x2="441.387" y2="619.962" spreadMethod="pad"><stop offset="0%" stop-color="#00964D"/><stop offset="100%" stop-color="#BBDA8D"/></linearGradient><linearGradient id="L" gradientUnits="userSpaceOnUse" x1="433.175" y1="605.712" x2="437.025" y2="612.387" spreadMethod="pad"><stop offset="0%" stop-color="#B86A2F"/><stop offset="100%" stop-color="#E5A62F"/></linearGradient><linearGradient id="M" gradientUnits="userSpaceOnUse" x1="442.938" y1="596.662" x2="456.263" y2="603.438" spreadMethod="pad"><stop offset="0%" stop-color="#00964D"/><stop offset="100%" stop-color="#BBDA8D"/></linearGradient><linearGradient id="N" gradientUnits="userSpaceOnUse" x1="443.438" y1="596.612" x2="449.862" y2="599.888" spreadMethod="pad"><stop offset="0%" stop-color="#B86A2F"/><stop offset="100%" stop-color="#E5A62F"/></linearGradient><linearGradient id="O" gradientUnits="userSpaceOnUse" x1="420.438" y1="609.563" x2="419.663" y2="624.438" spreadMethod="pad"><stop offset="0%" stop-color="#00964D"/><stop offset="100%" stop-color="#BBDA8D"/></linearGradient><linearGradient id="P" gradientUnits="userSpaceOnUse" x1="420.188" y1="609.525" x2="419.813" y2="616.475" spreadMethod="pad"><stop offset="0%" stop-color="#B86A2F"/><stop offset="100%" stop-color="#E5A62F"/></linearGradient><linearGradient id="Q" gradientUnits="userSpaceOnUse" x1="423.4" y1="597.55" x2="430" y2="615.65" spreadMethod="pad"><stop offset="0%" stop-color="#E5A62F"/><stop offset="100%" stop-color="#FFD758"/></linearGradient><linearGradient id="R" gradientUnits="userSpaceOnUse" x1="426.85" y1="582.538" x2="426.85" y2="598.262" spreadMethod="pad"><stop offset="0%" stop-color="#00964D"/><stop offset="100%" stop-color="#BBDA8D"/></linearGradient><linearGradient id="S" gradientUnits="userSpaceOnUse" x1="426.9" y1="582.513" x2="426.9" y2="589.888" spreadMethod="pad"><stop offset="0%" stop-color="#B86A2F"/><stop offset="100%" stop-color="#E5A62F"/></linearGradient><linearGradient id="T" gradientUnits="userSpaceOnUse" x1="439.663" y1="579.05" x2="447.837" y2="591.65" spreadMethod="pad"><stop offset="0%" stop-color="#1FAA53"/><stop offset="100%" stop-color="#BBDA8D"/></linearGradient><linearGradient id="U" gradientUnits="userSpaceOnUse" x1="440.038" y1="579.175" x2="443.962" y2="585.225" spreadMethod="pad"><stop offset="0%" stop-color="#B86A2F"/><stop offset="100%" stop-color="#E5A62F"/></linearGradient><linearGradient id="V" gradientUnits="userSpaceOnUse" x1="414.125" y1="578.925" x2="406.175" y2="591.675" spreadMethod="pad"><stop offset="0%" stop-color="#1FAA53"/><stop offset="100%" stop-color="#BBDA8D"/></linearGradient><linearGradient id="W" gradientUnits="userSpaceOnUse" x1="413.512" y1="579.575" x2="409.588" y2="585.625" spreadMethod="pad"><stop offset="0%" stop-color="#B86A2F"/><stop offset="100%" stop-color="#E5A62F"/></linearGradient><linearGradient id="X" gradientUnits="userSpaceOnUse" x1="433.188" y1="558.788" x2="425.212" y2="572.613" spreadMethod="pad"><stop offset="0%" stop-color="#00964D"/><stop offset="100%" stop-color="#BBDA8D"/></linearGradient><linearGradient id="Y" gradientUnits="userSpaceOnUse" x1="432.975" y1="559.212" x2="429.125" y2="565.887" spreadMethod="pad"><stop offset="0%" stop-color="#B86A2F"/><stop offset="100%" stop-color="#E5A62F"/></linearGradient><linearGradient id="Z" gradientUnits="userSpaceOnUse" x1="445.813" y1="562.563" x2="446.587" y2="577.438" spreadMethod="pad"><stop offset="0%" stop-color="#00964D"/><stop offset="100%" stop-color="#BBDA8D"/></linearGradient><linearGradient id="aa" gradientUnits="userSpaceOnUse" x1="446.113" y1="563.475" x2="446.488" y2="570.425" spreadMethod="pad"><stop offset="0%" stop-color="#B86A2F"/><stop offset="100%" stop-color="#E5A62F"/></linearGradient><linearGradient id="ab" gradientUnits="userSpaceOnUse" x1="422.813" y1="550.162" x2="409.487" y2="556.938" spreadMethod="pad"><stop offset="0%" stop-color="#00964D"/><stop offset="100%" stop-color="#BBDA8D"/></linearGradient><linearGradient id="ac" gradientUnits="userSpaceOnUse" x1="423.462" y1="549.563" x2="417.038" y2="552.838" spreadMethod="pad"><stop offset="0%" stop-color="#B86A2F"/><stop offset="100%" stop-color="#E5A62F"/></linearGradient><linearGradient id="ad" gradientUnits="userSpaceOnUse" x1="450.113" y1="541.9" x2="436.287" y2="549.9" spreadMethod="pad"><stop offset="0%" stop-color="#00964D"/><stop offset="100%" stop-color="#BBDA8D"/></linearGradient><linearGradient id="ae" gradientUnits="userSpaceOnUse" x1="450.537" y1="541.675" x2="443.863" y2="545.525" spreadMethod="pad"><stop offset="0%" stop-color="#B86A2F"/><stop offset="100%" stop-color="#E5A62F"/></linearGradient><linearGradient id="af" gradientUnits="userSpaceOnUse" x1="459.137" y1="551.837" x2="452.363" y2="565.163" spreadMethod="pad"><stop offset="0%" stop-color="#1FAA53"/><stop offset="100%" stop-color="#BBDA8D"/></linearGradient><linearGradient id="ag" gradientUnits="userSpaceOnUse" x1="459.337" y1="551.475" x2="455.962" y2="557.825" spreadMethod="pad"><stop offset="0%" stop-color="#B86A2F"/><stop offset="100%" stop-color="#E5A62F"/></linearGradient><linearGradient id="ah" gradientUnits="userSpaceOnUse" x1="446.438" y1="529.138" x2="431.563" y2="528.362" spreadMethod="pad"><stop offset="0%" stop-color="#1FAA53"/><stop offset="100%" stop-color="#BBDA8D"/></linearGradient><linearGradient id="ai" gradientUnits="userSpaceOnUse" x1="446.525" y1="528.938" x2="439.575" y2="528.563" spreadMethod="pad"><stop offset="0%" stop-color="#B86A2F"/><stop offset="100%" stop-color="#E5A62F"/></linearGradient><linearGradient id="aj" gradientUnits="userSpaceOnUse" x1="461.438" y1="533.35" x2="444.962" y2="537.15" spreadMethod="pad"><stop offset="0%" stop-color="#E5A62F"/><stop offset="100%" stop-color="#FFD758"/></linearGradient><linearGradient id="ak" gradientUnits="userSpaceOnUse" x1="473.463" y1="535.6" x2="457.738" y2="535.6" spreadMethod="pad"><stop offset="0%" stop-color="#00964D"/><stop offset="100%" stop-color="#BBDA8D"/></linearGradient><linearGradient id="al" gradientUnits="userSpaceOnUse" x1="473.488" y1="535.55" x2="466.113" y2="535.55" spreadMethod="pad"><stop offset="0%" stop-color="#B86A2F"/><stop offset="100%" stop-color="#E5A62F"/></linearGradient><linearGradient id="am" gradientUnits="userSpaceOnUse" x1="476.775" y1="548.425" x2="464.025" y2="556.375" spreadMethod="pad"><stop offset="0%" stop-color="#00964D"/><stop offset="100%" stop-color="#BBDA8D"/></linearGradient><linearGradient id="an" gradientUnits="userSpaceOnUse" x1="476.462" y1="548.538" x2="470.337" y2="552.363" spreadMethod="pad"><stop offset="0%" stop-color="#B86A2F"/><stop offset="100%" stop-color="#E5A62F"/></linearGradient><linearGradient id="ao" gradientUnits="userSpaceOnUse" x1="476.7" y1="522.688" x2="464.1" y2="514.513" spreadMethod="pad"><stop offset="0%" stop-color="#00964D"/><stop offset="100%" stop-color="#BBDA8D"/></linearGradient><linearGradient id="ap" gradientUnits="userSpaceOnUse" x1="476.575" y1="522.313" x2="470.525" y2="518.388" spreadMethod="pad"><stop offset="0%" stop-color="#B86A2F"/><stop offset="100%" stop-color="#E5A62F"/></linearGradient><linearGradient id="aq" gradientUnits="userSpaceOnUse" x1="496.863" y1="541.787" x2="483.037" y2="533.813" spreadMethod="pad"><stop offset="0%" stop-color="#00964D"/><stop offset="100%" stop-color="#BBDA8D"/></linearGradient><linearGradient id="ar" gradientUnits="userSpaceOnUse" x1="496.438" y1="541.575" x2="489.763" y2="537.725" spreadMethod="pad"><stop offset="0%" stop-color="#B86A2F"/><stop offset="100%" stop-color="#E5A62F"/></linearGradient><linearGradient id="as" gradientUnits="userSpaceOnUse" x1="492.438" y1="554.612" x2="477.563" y2="555.388" spreadMethod="pad"><stop offset="0%" stop-color="#1FAA53"/><stop offset="100%" stop-color="#BBDA8D"/></linearGradient><linearGradient id="at" gradientUnits="userSpaceOnUse" x1="492.475" y1="554.525" x2="485.525" y2="554.775" spreadMethod="pad"><stop offset="0%" stop-color="#B86A2F"/><stop offset="100%" stop-color="#E5A62F"/></linearGradient><linearGradient id="au" gradientUnits="userSpaceOnUse" x1="505.887" y1="531.813" x2="499.113" y2="518.487" spreadMethod="pad"><stop offset="0%" stop-color="#1FAA53"/><stop offset="100%" stop-color="#BBDA8D"/></linearGradient><linearGradient id="av" gradientUnits="userSpaceOnUse" x1="506.087" y1="531.712" x2="502.813" y2="525.288" spreadMethod="pad"><stop offset="0%" stop-color="#B86A2F"/><stop offset="100%" stop-color="#E5A62F"/></linearGradient><linearGradient id="aw" gradientUnits="userSpaceOnUse" x1="514.188" y1="559.113" x2="506.212" y2="545.288" spreadMethod="pad"><stop offset="0%" stop-color="#00964D"/><stop offset="100%" stop-color="#BBDA8D"/></linearGradient><linearGradient id="ax" gradientUnits="userSpaceOnUse" x1="513.725" y1="558.387" x2="509.875" y2="551.712" spreadMethod="pad"><stop offset="0%" stop-color="#B86A2F"/><stop offset="100%" stop-color="#E5A62F"/></linearGradient><linearGradient id="ay" gradientUnits="userSpaceOnUse" x1="503.85" y1="567.763" x2="490.65" y2="560.737" spreadMethod="pad"><stop offset="0%" stop-color="#00964D"/><stop offset="100%" stop-color="#BBDA8D"/></linearGradient><linearGradient id="az" gradientUnits="userSpaceOnUse" x1="504.225" y1="567.938" x2="497.875" y2="564.563" spreadMethod="pad"><stop offset="0%" stop-color="#B86A2F"/><stop offset="100%" stop-color="#E5A62F"/></linearGradient><linearGradient id="aA" gradientUnits="userSpaceOnUse" x1="526.813" y1="554.487" x2="527.588" y2="539.612" spreadMethod="pad"><stop offset="0%" stop-color="#00964D"/><stop offset="100%" stop-color="#BBDA8D"/></linearGradient><linearGradient id="aB" gradientUnits="userSpaceOnUse" x1="527.013" y1="554.575" x2="527.388" y2="547.625" spreadMethod="pad"><stop offset="0%" stop-color="#B86A2F"/><stop offset="100%" stop-color="#E5A62F"/></linearGradient><linearGradient id="aC" gradientUnits="userSpaceOnUse" x1="513.3" y1="574.637" x2="503.7" y2="558.663" spreadMethod="pad"><stop offset="0%" stop-color="#E5A62F"/><stop offset="100%" stop-color="#FFD758"/></linearGradient><linearGradient id="aD" gradientUnits="userSpaceOnUse" x1="520.3" y1="582.512" x2="520.3" y2="566.788" spreadMethod="pad"><stop offset="0%" stop-color="#00964D"/><stop offset="100%" stop-color="#BBDA8D"/></linearGradient><linearGradient id="aE" gradientUnits="userSpaceOnUse" x1="520.35" y1="581.538" x2="520.35" y2="574.163" spreadMethod="pad"><stop offset="0%" stop-color="#B86A2F"/><stop offset="100%" stop-color="#E5A62F"/></linearGradient><linearGradient id="aF" gradientUnits="userSpaceOnUse" x1="507.225" y1="585.075" x2="499.275" y2="572.325" spreadMethod="pad"><stop offset="0%" stop-color="#1FAA53"/><stop offset="100%" stop-color="#BBDA8D"/></linearGradient><linearGradient id="aG" gradientUnits="userSpaceOnUse" x1="507.513" y1="585.462" x2="503.688" y2="579.337" spreadMethod="pad"><stop offset="0%" stop-color="#B86A2F"/><stop offset="100%" stop-color="#E5A62F"/></linearGradient><linearGradient id="aH" gradientUnits="userSpaceOnUse" x1="533.513" y1="584.9" x2="541.688" y2="572.3" spreadMethod="pad"><stop offset="0%" stop-color="#1FAA53"/><stop offset="100%" stop-color="#BBDA8D"/></linearGradient><linearGradient id="aI" gradientUnits="userSpaceOnUse" x1="533.488" y1="585.475" x2="537.413" y2="579.425" spreadMethod="pad"><stop offset="0%" stop-color="#B86A2F"/><stop offset="100%" stop-color="#E5A62F"/></linearGradient><linearGradient id="aJ" gradientUnits="userSpaceOnUse" x1="514.013" y1="605.813" x2="521.987" y2="591.987" spreadMethod="pad"><stop offset="0%" stop-color="#00964D"/><stop offset="100%" stop-color="#BBDA8D"/></linearGradient><linearGradient id="aK" gradientUnits="userSpaceOnUse" x1="514.225" y1="605.387" x2="518.075" y2="598.712" spreadMethod="pad"><stop offset="0%" stop-color="#B86A2F"/><stop offset="100%" stop-color="#E5A62F"/></linearGradient><linearGradient id="aL" gradientUnits="userSpaceOnUse" x1="501.363" y1="601.5" x2="500.838" y2="586.6" spreadMethod="pad"><stop offset="0%" stop-color="#00964D"/><stop offset="100%" stop-color="#BBDA8D"/></linearGradient><linearGradient id="aM" gradientUnits="userSpaceOnUse" x1="501.375" y1="601.525" x2="501.125" y2="594.575" spreadMethod="pad"><stop offset="0%" stop-color="#B86A2F"/><stop offset="100%" stop-color="#E5A62F"/></linearGradient><linearGradient id="aN" gradientUnits="userSpaceOnUse" x1="524.038" y1="614.638" x2="537.363" y2="607.862" spreadMethod="pad"><stop offset="0%" stop-color="#00964D"/><stop offset="100%" stop-color="#BBDA8D"/></linearGradient><linearGradient id="aO" gradientUnits="userSpaceOnUse" x1="524.538" y1="614.638" x2="530.962" y2="611.362" spreadMethod="pad"><stop offset="0%" stop-color="#B86A2F"/><stop offset="100%" stop-color="#E5A62F"/></linearGradient><linearGradient id="aP" gradientUnits="userSpaceOnUse" x1="497.188" y1="622.688" x2="511.013" y2="614.713" spreadMethod="pad"><stop offset="0%" stop-color="#00964D"/><stop offset="100%" stop-color="#BBDA8D"/></linearGradient><linearGradient id="aQ" gradientUnits="userSpaceOnUse" x1="497.463" y1="622.475" x2="504.137" y2="618.625" spreadMethod="pad"><stop offset="0%" stop-color="#B86A2F"/><stop offset="100%" stop-color="#E5A62F"/></linearGradient><linearGradient id="aR" gradientUnits="userSpaceOnUse" x1="487.988" y1="612.8" x2="495.012" y2="599.6" spreadMethod="pad"><stop offset="0%" stop-color="#1FAA53"/><stop offset="100%" stop-color="#BBDA8D"/></linearGradient><linearGradient id="aS" gradientUnits="userSpaceOnUse" x1="488.012" y1="612.825" x2="491.387" y2="606.475" spreadMethod="pad"><stop offset="0%" stop-color="#B86A2F"/><stop offset="100%" stop-color="#E5A62F"/></linearGradient><linearGradient id="aT" gradientUnits="userSpaceOnUse" x1="500.5" y1="635.487" x2="515.4" y2="636.013" spreadMethod="pad"><stop offset="0%" stop-color="#1FAA53"/><stop offset="100%" stop-color="#BBDA8D"/></linearGradient><linearGradient id="aU" gradientUnits="userSpaceOnUse" x1="501.475" y1="635.475" x2="508.425" y2="635.725" spreadMethod="pad"><stop offset="0%" stop-color="#B86A2F"/><stop offset="100%" stop-color="#E5A62F"/></linearGradient><linearGradient id="aV" gradientUnits="userSpaceOnUse" x1="429.213" y1="550.375" x2="423.488" y2="560.725" spreadMethod="pad"><stop offset="0%" stop-color="#CE8730"/><stop offset="100%" stop-color="#FFCC2A"/></linearGradient><linearGradient id="aW" gradientUnits="userSpaceOnUse" x1="424.675" y1="556.65" x2="429.525" y2="550.65" spreadMethod="pad"><stop offset="0%" stop-color="#FFDB6F"/><stop offset="100%" stop-color="#E5A62F"/></linearGradient><linearGradient id="aX" gradientUnits="userSpaceOnUse" x1="435.662" y1="541.413" x2="443.738" y2="555.387" spreadMethod="pad"><stop offset="0%" stop-color="#F2705F"/><stop offset="43.137%" stop-color="#EE333F"/><stop offset="100%" stop-color="#C22F38"/></linearGradient><linearGradient id="aY" gradientUnits="userSpaceOnUse" x1="435.3" y1="542.713" x2="437.9" y2="545.688" spreadMethod="pad"><stop offset="0%" stop-color="#F9B4A0"/><stop offset="100%" stop-color="#EF4A47"/></linearGradient><linearGradient id="aZ" gradientUnits="userSpaceOnUse" x1="440.175" y1="548.85" x2="444.625" y2="553.15" spreadMethod="pad"><stop offset="0%" stop-color="#CF303A"/><stop offset="100%" stop-color="#AD2D33"/></linearGradient><linearGradient id="ba" gradientUnits="userSpaceOnUse" x1="432.813" y1="581.362" x2="439.188" y2="592.438" spreadMethod="pad"><stop offset="0%" stop-color="#F2705F"/><stop offset="43.137%" stop-color="#EE333F"/><stop offset="100%" stop-color="#C22F38"/></linearGradient><linearGradient id="bb" gradientUnits="userSpaceOnUse" x1="432.525" y1="582.525" x2="434.575" y2="584.875" spreadMethod="pad"><stop offset="0%" stop-color="#F9B4A0"/><stop offset="100%" stop-color="#EF4A47"/></linearGradient><linearGradient id="bc" gradientUnits="userSpaceOnUse" x1="436.45" y1="587.563" x2="439.95" y2="590.938" spreadMethod="pad"><stop offset="0%" stop-color="#CF303A"/><stop offset="100%" stop-color="#AD2D33"/></linearGradient><linearGradient id="bd" gradientUnits="userSpaceOnUse" x1="441.8" y1="620.337" x2="448.8" y2="632.462" spreadMethod="pad"><stop offset="0%" stop-color="#F2705F"/><stop offset="43.137%" stop-color="#EE333F"/><stop offset="100%" stop-color="#C22F38"/></linearGradient><linearGradient id="be" gradientUnits="userSpaceOnUse" x1="441.525" y1="621.462" x2="443.775" y2="624.038" spreadMethod="pad"><stop offset="0%" stop-color="#F9B4A0"/><stop offset="100%" stop-color="#EF4A47"/></linearGradient><linearGradient id="bf" gradientUnits="userSpaceOnUse" x1="445.475" y1="626.538" x2="449.325" y2="630.262" spreadMethod="pad"><stop offset="0%" stop-color="#CF303A"/><stop offset="100%" stop-color="#AD2D33"/></linearGradient><linearGradient id="bg" gradientUnits="userSpaceOnUse" x1="462.875" y1="620.275" x2="468.025" y2="629.225" spreadMethod="pad"><stop offset="0%" stop-color="#F2705F"/><stop offset="43.137%" stop-color="#EE333F"/><stop offset="100%" stop-color="#C22F38"/></linearGradient><linearGradient id="bh" gradientUnits="userSpaceOnUse" x1="462.775" y1="621.25" x2="464.425" y2="623.15" spreadMethod="pad"><stop offset="0%" stop-color="#F9B4A0"/><stop offset="100%" stop-color="#EF4A47"/></linearGradient><linearGradient id="bi" gradientUnits="userSpaceOnUse" x1="465.325" y1="624.675" x2="468.175" y2="627.425" spreadMethod="pad"><stop offset="0%" stop-color="#CF303A"/><stop offset="100%" stop-color="#AD2D33"/></linearGradient><linearGradient id="bj" gradientUnits="userSpaceOnUse" x1="499.113" y1="613.712" x2="505.488" y2="624.788" spreadMethod="pad"><stop offset="0%" stop-color="#F2705F"/><stop offset="43.137%" stop-color="#EE333F"/><stop offset="100%" stop-color="#C22F38"/></linearGradient><linearGradient id="bk" gradientUnits="userSpaceOnUse" x1="498.575" y1="614.475" x2="500.625" y2="616.825" spreadMethod="pad"><stop offset="0%" stop-color="#F9B4A0"/><stop offset="100%" stop-color="#EF4A47"/></linearGradient><linearGradient id="bl" gradientUnits="userSpaceOnUse" x1="502.5" y1="619.563" x2="506" y2="622.938" spreadMethod="pad"><stop offset="0%" stop-color="#CF303A"/><stop offset="100%" stop-color="#AD2D33"/></linearGradient><linearGradient id="bm" gradientUnits="userSpaceOnUse" x1="518.563" y1="586.513" x2="526.638" y2="600.487" spreadMethod="pad"><stop offset="0%" stop-color="#F2705F"/><stop offset="43.137%" stop-color="#EE333F"/><stop offset="100%" stop-color="#C22F38"/></linearGradient><linearGradient id="bn" gradientUnits="userSpaceOnUse" x1="518.2" y1="587.763" x2="520.8" y2="590.737" spreadMethod="pad"><stop offset="0%" stop-color="#F9B4A0"/><stop offset="100%" stop-color="#EF4A47"/></linearGradient><linearGradient id="bo" gradientUnits="userSpaceOnUse" x1="523.025" y1="593.95" x2="527.475" y2="598.25" spreadMethod="pad"><stop offset="0%" stop-color="#CF303A"/><stop offset="100%" stop-color="#AD2D33"/></linearGradient><linearGradient id="bp" gradientUnits="userSpaceOnUse" x1="525.725" y1="569.375" x2="530.875" y2="578.325" spreadMethod="pad"><stop offset="0%" stop-color="#F2705F"/><stop offset="43.137%" stop-color="#EE333F"/><stop offset="100%" stop-color="#C22F38"/></linearGradient><linearGradient id="bq" gradientUnits="userSpaceOnUse" x1="525.625" y1="570.4" x2="527.275" y2="572.3" spreadMethod="pad"><stop offset="0%" stop-color="#F9B4A0"/><stop offset="100%" stop-color="#EF4A47"/></linearGradient><linearGradient id="br" gradientUnits="userSpaceOnUse" x1="528.225" y1="573.825" x2="531.075" y2="576.575" spreadMethod="pad"><stop offset="0%" stop-color="#CF303A"/><stop offset="100%" stop-color="#AD2D33"/></linearGradient><linearGradient id="bs" gradientUnits="userSpaceOnUse" x1="507.487" y1="537.513" x2="513.813" y2="548.487" spreadMethod="pad"><stop offset="0%" stop-color="#F2705F"/><stop offset="43.137%" stop-color="#EE333F"/><stop offset="100%" stop-color="#C22F38"/></linearGradient><linearGradient id="bt" gradientUnits="userSpaceOnUse" x1="507.438" y1="538.575" x2="509.462" y2="540.925" spreadMethod="pad"><stop offset="0%" stop-color="#F9B4A0"/><stop offset="100%" stop-color="#EF4A47"/></linearGradient><linearGradient id="bu" gradientUnits="userSpaceOnUse" x1="510.4" y1="542.612" x2="513.9" y2="545.987" spreadMethod="pad"><stop offset="0%" stop-color="#CF303A"/><stop offset="100%" stop-color="#AD2D33"/></linearGradient><linearGradient id="bv" gradientUnits="userSpaceOnUse" x1="480.212" y1="530.663" x2="486.587" y2="541.738" spreadMethod="pad"><stop offset="0%" stop-color="#F2705F"/><stop offset="43.137%" stop-color="#EE333F"/><stop offset="100%" stop-color="#C22F38"/></linearGradient><linearGradient id="bw" gradientUnits="userSpaceOnUse" x1="479.675" y1="531.375" x2="481.725" y2="533.725" spreadMethod="pad"><stop offset="0%" stop-color="#F9B4A0"/><stop offset="100%" stop-color="#EF4A47"/></linearGradient><linearGradient id="bx" gradientUnits="userSpaceOnUse" x1="483.55" y1="536.462" x2="487.05" y2="539.837" spreadMethod="pad"><stop offset="0%" stop-color="#CF303A"/><stop offset="100%" stop-color="#AD2D33"/></linearGradient><linearGradient id="by" gradientUnits="userSpaceOnUse" x1="415.125" y1="568.725" x2="420.275" y2="577.675" spreadMethod="pad"><stop offset="0%" stop-color="#F2705F"/><stop offset="43.137%" stop-color="#EE333F"/><stop offset="100%" stop-color="#C22F38"/></linearGradient><linearGradient id="bz" gradientUnits="userSpaceOnUse" x1="415.125" y1="569.85" x2="416.775" y2="571.75" spreadMethod="pad"><stop offset="0%" stop-color="#F9B4A0"/><stop offset="100%" stop-color="#EF4A47"/></linearGradient><linearGradient id="bA" gradientUnits="userSpaceOnUse" x1="418.175" y1="573.825" x2="421.025" y2="576.575" spreadMethod="pad"><stop offset="0%" stop-color="#CF303A"/><stop offset="100%" stop-color="#AD2D33"/></linearGradient><linearGradient id="bB" gradientUnits="userSpaceOnUse" x1="479.488" y1="634.362" x2="496.012" y2="635.237" spreadMethod="pad"><stop offset="0%" stop-color="#D99630"/><stop offset="100%" stop-color="#FCC82B"/></linearGradient><linearGradient id="bC" gradientUnits="userSpaceOnUse" x1="489.512" y1="636.288" x2="482.488" y2="634.413" spreadMethod="pad"><stop offset="0%" stop-color="#FFDB6F"/><stop offset="100%" stop-color="#F1B82D"/></linearGradient><linearGradient id="bD" gradientUnits="userSpaceOnUse" x1="524.5" y1="605.513" x2="529.7" y2="594.388" spreadMethod="pad"><stop offset="0%" stop-color="#E5A62F"/><stop offset="100%" stop-color="#FFD758"/></linearGradient><linearGradient id="bE" gradientUnits="userSpaceOnUse" x1="500.575" y1="531.35" x2="490.925" y2="527.25" spreadMethod="pad"><stop offset="0%" stop-color="#CE8730"/><stop offset="100%" stop-color="#FFCC2A"/></linearGradient><linearGradient id="bF" gradientUnits="userSpaceOnUse" x1="495.5" y1="528.462" x2="501.4" y2="532.137" spreadMethod="pad"><stop offset="0%" stop-color="#FFDB6F"/><stop offset="100%" stop-color="#E5A62F"/></linearGradient><linearGradient id="bG" gradientUnits="userSpaceOnUse" x1="452.475" y1="612.55" x2="462.125" y2="616.65" spreadMethod="pad"><stop offset="0%" stop-color="#CE8730"/><stop offset="100%" stop-color="#FFCC2A"/></linearGradient><linearGradient id="bH" gradientUnits="userSpaceOnUse" x1="457.463" y1="615.488" x2="451.637" y2="611.712" spreadMethod="pad"><stop offset="0%" stop-color="#FFDB6F"/><stop offset="100%" stop-color="#E5A62F"/></linearGradient><path fill="#FFF" fill-opacity="0" d="M284 0H0v320h284V0z" id="bI"/><path fill="url(#a)" d="M447.65 517.3q-1.55.8-1.85 1.85-.3 1.4.5 2.7l3.6.65-3 .25.85.95h6.05l-4.6 1.25 1.2.85 7.2-.95-5.1 2.15q2.6 1.45 6.45 2.7 7.55 2.35 10.9 2.45 4.85.05 5.95-3.7 1.2-3.75-2.8-6.4-2.8-1.8-10.35-4.1-3-1-6.9-1.45l2.95 4.7-5.35-4.85h-1.5l3.1 3.6-5-3.35-1.25.25 2.35 1.9-3.4-1.45z" id="bJ"/><path fill="url(#b)" d="M475.45 529.4l.65-1.9-28.6-7.75 27.95 9.65z" id="bK"/><path fill="url(#c)" d="M471.35 636.15q-1.15 3.75 2.85 6.4 2.8 1.8 10.35 4.15 3.25 1.05 6.9 1.4l-2.95-4.65 5.3 4.8h1.55l-3.1-3.6 5 3.4q.55-.05 1.25-.3l-2.4-1.85 3.4 1.45q1.5-.7 1.9-1.9.35-1.15-.45-2.65l-3.7-.65 3.05-.3q-.7-.7-.85-.9h-6.05l4.6-1.25-1.25-.85-7.2.9 5.15-2.15q-3.15-1.65-6.5-2.7-7.6-2.35-10.9-2.4-4.85-.1-5.95 3.65z" id="bL"/><path fill="url(#d)" d="M471.7 635.25l-.55 1.85 28.5 7.8-27.95-9.65z" id="bM"/><path fill="url(#e)" d="M423.05 535.3q-.45.2-1.25.8l4.5 1.5-6.05-.35-.95.85 2.95.45-3.6.4q-.95 1.3-.7 2.6.35 1.35 1.7 2.05l3.45-1.25-2.45 1.75 1.25.35 5.25-2.95-3.4 3.3q.75.15 1.5.15l5.7-4.4-3.3 4.45q2.9-.05 7-.9 7.75-1.8 10.65-3.4 4.2-2.35 3.3-6.2-.9-3.8-5.7-4.05-3.3-.2-11 1.6-3.15.65-6.7 2.15l4.9 2.6-7.05-1.5z" id="bN"/><path fill="url(#f)" d="M448.75 535.5l-.45-1.95-28.55 7.6 29-5.65z" id="bO"/><path fill="url(#g)" d="M528.6 625.65q.85-1.35.65-2.6-.35-1.25-1.75-2l-3.45 1.25 2.45-1.75q-.65-.3-1.2-.35l-5.25 2.95 3.35-3.3q-.75-.15-1.5-.15l-5.7 4.4 3.3-4.5q-3.8.2-6.95.95-7.75 1.8-10.65 3.4-4.25 2.35-3.35 6.2.9 3.8 5.7 4.05 3.3.15 11-1.65 3.8-.75 6.7-2.15l-4.9-2.6 7.1 1.55 1.3-.8-4.5-1.5 6 .35.95-.9-3-.4 3.7-.45z" id="bP"/><path fill="url(#h)" d="M498.45 629.1l.4 1.95 28.6-7.55-29 5.6z" id="bQ"/><path fill="url(#i)" d="M404.85 569.95l-.4 1.2 2.8-1.05-2.95 2.15q-.1 1.7.75 2.6.75.9 2.5.9l2.4-2.8-1.3 2.65q.4 0 1.2-.2l3.1-5.25-1.2 4.6 1.35-.65 2.75-6.7-.65 5.55q3.1-1.95 5.55-4.3 5.85-5.45 7.5-8.2 2.5-4.1-.15-7-2.7-2.9-7-.7-2.9 1.5-8.7 6.9-2.4 2.1-4.75 5.15l5.55-.2-6.85 2.25q-.1.15-.75 1.3l4.65-.9-5.4 2.7z" id="bR"/><path fill="url(#j)" d="M428.65 554.15l-1.3-1.4-21 20.85 22.3-19.45z" id="bS"/><path fill="url(#k)" d="M542.85 592.4q.2-1.55-.7-2.6-.9-.95-2.55-.95l-2.35 2.85 1.3-2.75q-.8.2-1.25.3l-3 5.25 1.15-4.6-1.3.6-2.75 6.7.6-5.5q-3.1 2-5.55 4.3-5.8 5.4-7.5 8.2-2.5 4.1.15 7 2.7 2.9 7 .7 2.95-1.5 8.75-6.9 2.65-2.4 4.7-5.2l-5.55.25 6.85-2.25.7-1.3-4.6.85 5.4-2.65q.3-.95.35-1.2l-2.8 1.05 2.95-2.15z" id="bT"/><path fill="url(#l)" d="M518.5 610.4l1.3 1.45 21.05-20.8-22.35 19.35z" id="bU"/><path fill="url(#m)" d="M413.35 582.95q-1.8 2.75-4.15 10.3-1.1 3.45-1.4 6.9l4.65-2.95-4.8 5.35v1.5l3.6-3.1-3.4 5.05q.05.45.3 1.25l1.85-2.4-1.45 3.4q.8 1.55 1.9 1.85 1.2.4 2.65-.5l.65-3.6.3 3.05q.75-.75.95-.9v-6.05l1.2 4.65.85-1.25-.9-7.2 2.15 5.1q1.5-2.75 2.75-6.45 2.3-7.6 2.35-10.9.1-4.85-3.65-5.95-3.75-1.2-6.4 2.85z" id="bV"/><path fill="url(#n)" d="M420.65 580.45l-1.85-.6-7.8 28.55 9.65-27.95z" id="bW"/><path fill="url(#o)" d="M526.2 567.7q-2.35 7.65-2.4 10.9-.1 4.85 3.65 5.95 3.75 1.2 6.4-2.85 1.8-2.8 4.1-10.35 1.1-3.35 1.45-6.9l-4.7 2.95 4.85-5.3v-1.55l-3.6 3.1 3.35-5q-.1-.75-.25-1.25l-1.9 2.4 1.45-3.4q-.7-1.5-1.85-1.9-1.15-.35-2.7.45l-.65 3.7-.25-3.05q-.6.6-.95.85v6.05l-1.25-4.6-.85 1.25.95 7.2-2.15-5.15q-1.65 3.15-2.7 6.5z" id="bX"/><path fill="url(#p)" d="M526.5 584.2l1.9.55 7.75-28.5-9.65 27.95z" id="bY"/><path fill="url(#q)" d="M431.95 610.6q-2.3-4.2-6.1-3.3-3.85.9-4.1 5.7-.2 3.3 1.6 11 .65 3.15 2.15 6.7l2.6-4.9-1.55 7.05q.3.45.8 1.25l1.6-4.5-.45 6.05q.15.2.9.95l.4-2.95.45 3.6q1.2.95 2.6.7 1.25-.3 2-1.7l-1.2-3.45 1.7 2.45q.3-.65.35-1.25l-2.95-5.25 3.3 3.4q.15-.75.15-1.5l-4.35-5.7 4.45 3.3q-.2-3.85-.95-7-1.8-7.75-3.4-10.65z" id="bZ"/><path fill="url(#r)" d="M426.8 607.15l-1.95.45 7.55 28.55-5.6-29z" id="ca"/><path fill="url(#s)" d="M517.35 531l-.4-3.7q-1.4-.85-2.6-.65-1.25.4-2.05 1.75l1.25 3.45-1.75-2.45-.35 1.2 2.95 5.3-3.3-3.4-.15 1.5 4.4 5.7-4.45-3.3q.05 2.85.9 6.95 1.8 7.8 3.4 10.7 2.35 4.2 6.2 3.3 3.8-.9 4.05-5.7.2-3.3-1.6-11-.7-3.3-2.15-6.7l-2.6 4.9 1.5-7.1q-.25-.55-.8-1.25l-1.5 4.5.35-6.05-.85-.9-.45 2.95z" id="cb"/><path fill="url(#t)" d="M520.4 557.5l1.95-.45-7.6-28.6 5.65 29.05z" id="cc"/><path fill="url(#u)" d="M459.9 635.15q-5.45-5.85-8.2-7.5-4.1-2.5-7 .15-2.9 2.7-.7 7 1.45 2.9 6.9 8.8 2.25 2.45 5.2 4.65l-.2-5.5 2.2 6.8 1.3.75-.85-4.6 2.65 5.4 1.25.35-1.1-2.8 2.15 2.95q1.7.1 2.6-.75.95-.8.95-2.5l-2.8-2.4 2.7 1.3-.25-1.2-5.3-3.1 4.65 1.2q-.3-.5-.65-1.35l-6.7-2.65 5.55.55q-2.3-3.4-4.35-5.55z" id="cd"/><path fill="url(#v)" d="M445.5 627.25l-1.45 1.3 20.85 21-19.4-22.3z" id="ce"/><path fill="url(#w)" d="M487.75 514.35l.9 4.6-2.7-5.4q-.8-.3-1.2-.35l1.1 2.8-2.2-2.95q-1.5-.2-2.6.7-.9.9-.9 2.55l2.8 2.35-2.65-1.3q0 .45.2 1.25l5.25 3-4.6-1.15.65 1.3 6.7 2.75-5.55-.55q1.7 2.7 4.3 5.5 5.4 5.8 8.2 7.5 4.1 2.5 7-.15 2.9-2.7.7-6.95-1.45-2.9-6.9-8.8-2.35-2.55-5.15-4.7l.2 5.55-2.25-6.85-1.3-.7z" id="cf"/><path fill="url(#x)" d="M501.75 537.4l1.45-1.3-20.9-21.05 19.45 22.35z" id="cg"/><path fill="#008145" d="M531.2 582.3q0-23.8-16.9-40.7-16.9-16.9-40.7-16.9-23.8 0-40.7 16.9-16.9 16.9-16.9 40.7 0 23.8 16.9 40.7 16.9 16.9 40.7 16.9 23.8 0 40.7-16.9 16.9-16.9 16.9-40.7m-35.7-21.9q9.1 9.1 9.1 21.9 0 12.8-9.1 21.95-9.1 9.1-21.9 9.1-12.8 0-21.95-9.1-9.1-9.1-9.1-21.95 0-12.8 9.1-21.9 9.15-9.1 21.95-9.1 12.8 0 21.9 9.1z" id="ch"/><path fill="url(#y)" d="M457.05 629.05q0 4.2 4.95 5.6 3.3.95 11.8.95 4.2 0 7.5-.65l-4.55-3.9 7 3.25q.95-.25 1.5-.5l-4.25-2.65 6.2 1.85 1.15-.65-3.05-1.2 4 .4q1.3-1.4 1.3-2.5 0-1.15-1.3-2.55l-4 .45 3.05-1.2-1.15-.65-6.2 1.85 4.25-2.65q-.55-.25-1.5-.5l-7 3.25 4.55-3.9q-3.3-.65-7.5-.65-8.5 0-11.8.95-4.95 1.4-4.95 5.6z" id="ci"/><path fill="url(#z)" d="M457.1 627.95v2.2l31.55-1.1-31.55-1.1z" id="cj"/><path fill="url(#A)" d="M480.7 606.15h-1.3l-3.95 4.55 2.1-4.25q-.5.05-1.5.35l-3.9 6.05 1.65-5.25q-2.95 1.05-6.25 3.15-6.75 4.25-8.95 6.65-3.25 3.6-1.15 6.95t6.75 2q3.15-.95 9.9-5.15 3.2-2.05 5.55-4.25l-5.5-.85 7.2-.9.95-1.15h-4.75l5.85-1.55.55-1.15-2.95.5 3.3-1.6q.5-1.6-.2-2.65-.6-1-2.3-1.4l-2.9 2.3 1.8-2.35z" id="ck"/><path fill="url(#B)" d="M457.05 623.45l1 1.7 24.55-16.55-25.55 14.85z" id="cl"/><path fill="url(#C)" d="M457.45 633.75q-2.1 3.35 1.15 6.95 2.2 2.4 8.95 6.65 3.3 2.1 6.25 3.15l-1.65-5.25 3.9 6.05q1 .3 1.5.35l-2.1-4.25 3.95 4.55h1.3l-1.8-2.4 2.9 2.3q1.6-.3 2.3-1.35.7-1.05.2-2.65l-3.3-1.6 2.95.5-.55-1.15-5.85-1.6h4.75q-.8-.95-.95-1.15l-7.2-.85 5.5-.85q-2.35-2.2-5.55-4.25-6.75-4.2-9.9-5.15-4.65-1.3-6.75 2z" id="cm"/><path fill="url(#D)" d="M458.05 632.95l-1 1.7 25.55 14.85-24.55-16.55z" id="cn"/><path fill="url(#E)" d="M465.1 628.4l-3.6-1.5 3.1.4q-.35-.8-.65-1.15l-6.25-1.5 5-.15q-.1-.2-1-1.2l-7.7-.65 5.85-1.1q-2.65-2.25-6.15-4.4-7.3-4.2-10.75-5.05-5-1.25-7.1 2.4-2.1 3.65 1.45 7.3 2.45 2.5 9.8 6.8 3.9 2.15 6.85 3.1l-1.95-5.55 4.4 6.3 1.55.35-2.35-4.5 4.4 4.7h1.35l-1.95-2.5 3.1 2.3q1.7-.35 2.45-1.5.65-1.1.15-2.9z" id="co"/><path fill="url(#F)" d="M436.5 613.65l-1.05 1.8 27.75 14.8-26.7-16.6z" id="cp"/><path fill="url(#G)" d="M470.05 609.45q-.1-1.3-1.3-2.3l-3.65.6 2.75-1.25-1.1-.65-5.75 2.05 3.95-2.75q-1-.3-1.45-.35l-6.45 3.2 4.1-3.7q-3.3-.6-7.1-.4-7.85.3-11 1.3-4.6 1.5-4.45 5.4.15 3.95 4.85 5.1 3.1.8 11.15.55 3.65-.15 6.95-.95l-4.4-3.45 6.7 2.8 1.4-.5-4.05-2.4 5.85 1.55 1-.65-2.8-1.05 3.65.3q1.15-1.15 1.15-2.45z" id="cq"/><path fill="url(#H)" d="M438.65 609.7l.1 1.9 29.5-2.05-29.6.15z" id="cr"/><path fill="url(#I)" d="M449.4 636.3q-.9-3.15-2.65-6.45-3.7-7-6-9.4-3.35-3.5-6.85-1.65-3.45 1.85-2.5 6.55.7 3.25 4.4 10.25 1.85 3.5 3.9 5.9l1.2-5.4.35 7.2 1.1 1 .35-4.65 1.15 5.9 1.1.65-.3-2.95 1.3 3.35q1.55.55 2.65 0 1.15-.55 1.6-2.2l-2.15-3.05 2.3 1.95.05-1.2-4.25-4.35 4.1 2.4-.2-1.55-5.75-4.3 5.1 2z" id="cs"/><path fill="url(#J)" d="M434.8 618.4l-1.75.9 14.7 25.75-12.95-26.65z" id="ct"/><path fill="url(#K)" d="M432.15 592.75q-3.7-3.55-7.3-1.45-3.65 2.1-2.4 7.1.85 3.5 5.05 10.75 1.9 3.2 4.35 6.15l1.15-5.85.65 7.65q.85.85 1.2 1.05l.15-5 1.5 6.25q.35.3 1.15.65l-.4-3.15 1.5 3.6q1.75.6 2.85-.1 1.2-.75 1.55-2.45l-2.3-3.1 2.5 1.95v-1.35l-4.7-4.4 4.5 2.35-.4-1.55-6.25-4.4 5.55 1.95q-1.05-3.2-3.1-6.85-4.35-7.4-6.8-9.8z" id="cu"/><path fill="url(#L)" d="M425.8 590.9l-1.8 1 16.6 26.8-14.8-27.8z" id="cv"/><path fill="url(#M)" d="M435.7 586.85q-4.7-.95-6.55 2.5-1.85 3.5 1.65 6.8 2.35 2.3 9.4 6.05 3.7 1.95 6.45 2.65l-2-5.1 4.3 5.75 1.55.2-2.4-4.1 4.3 4.25 1.25-.05-1.95-2.3 3 2.05q1.5-.25 2.25-1.5.55-1.1 0-2.65l-3.4-1.35 2.95.35-.6-1.1-5.95-1.15 4.7-.35-1-1.1-7.2-.35 5.4-1.2q-2.7-2.15-5.9-3.9-7-3.7-10.25-4.4z" id="cw"/><path fill="url(#N)" d="M429.65 588.5l-.9 1.75 26.6 12.95-25.7-14.7z" id="cx"/><path fill="url(#O)" d="M426.55 610.05q.3-8-.5-11.15-1.15-4.7-5.1-4.85-3.9-.15-5.4 4.45-1 3.15-1.3 11.05-.2 3.6.35 7.05l3.75-4.1-3.25 6.45.4 1.45 2.7-3.95-2 5.75.65 1.1 1.2-2.75-.55 3.65q1 1.2 2.3 1.3 1.3 0 2.45-1.15l-.3-3.65 1 2.8q.35-.4.65-1.1l-1.5-5.8 2.4 4.1.5-1.4-2.8-6.65 3.45 4.35q.85-3.4.9-6.95z" id="cy"/><path fill="url(#P)" d="M421.95 594.2l-1.95-.05-.1 29.55 2.05-29.5z" id="cz"/><path fill="url(#Q)" d="M435.15 599q-1.15-2.4-2-3.9-3.35-6.4-10.1-8.9-5.1 4-7.3 8.05-3 5.65-1.8 13.2.2-1.2 1.6-1.8 1.55-.7 2.15-2.1-1.1 2.85-.5 6.2.6 3.15 2.45 5.45-.3-2.15 1.1-3.55 1.624-1.673 1.95-3.8-.483 4.027 1.6 7.25 2.1 3.3 6.15 4.75-1.05-2.1.5-6.05 1.5-3.8-.85-7.8l1.7 2.15q2.35 1.95 5.55 1-1.75-.9-2.55-4.15-.85-3.4-2.95-4.9 1.6 1.1 2.9 1.15 1.05.05 2.75-.65-1.3.05-2.35-1.6z" id="cA"/><path fill="#FFCC2A" d="M433.75 599.4q-1.65-3-3.35-4.5-2.25-1.9-5.2-1.95 4.85 1.2 8.55 6.45z" id="cB"/><path fill="#FFDB6F" d="M424.1 604.05q1.1 5.4 4.4 12.75-5.15-14.35-4.45-25.9-1.45 6.1.05 13.15z" id="cC"/><path fill="#FFDB6F" d="M425.25 599.6q5.7 2.15 9.4 8.7-1.6-3.75-3.4-5.7-2.45-2.55-6-3z" id="cD"/><path fill="#FFDB6F" d="M418.65 611.25q.35-6.65 3.95-10.45-2.55 1.75-3.45 4.65-.65 2.2-.5 5.8z" id="cE"/><path fill="#FFCC2A" d="M417.15 597.35q-1.35 2.15-2.15 6 2.3-6.95 7.1-9.85-3.2 1.05-4.95 3.85z" id="cF"/><path fill="url(#R)" d="M424.85 585.5l-3.25 6.95q.4 1.3.5 1.55l2.65-4.25-1.85 6.1.7 1.25 1.15-3.05-.4 3.9q1.25 1.35 2.5 1.35 1.35 0 2.55-1.35l-.45-3.9 1.2 3.05.65-1.25-1.85-6.1 2.75 4.25.4-1.55-3.15-6.95 3.8 4.5q.65-3.3.65-7.45 0-8.5-.95-11.85-1.4-4.95-5.6-4.95-4.2 0-5.6 4.95-.95 3.35-.95 11.85 0 4.15.65 7.45l3.9-4.5z" id="cG"/><path fill="url(#S)" d="M427.95 565.85h-2.1l1 31.5 1.1-31.5z" id="cH"/><path fill="url(#T)" d="M438.5 567.3q-3.6-3.2-6.9-1.1-3.35 2.1-2.05 6.75.95 3.15 5.15 9.85 2.05 3.2 4.25 5.55l.85-5.45.9 7.2 1.15.95.05-4.75 1.6 5.8 1.05.6-.5-2.95 1.6 3.3q1.5.45 2.65-.2 1-.6 1.4-2.35l-2.3-2.85 2.35 1.8q.15-.65 0-1.3l-4.55-3.95 4.25 2q-.05-.45-.35-1.45l-6.05-3.85 5.25 1.65q-1-2.9-3.15-6.35-4.25-6.7-6.65-8.9z" id="cI"/><path fill="url(#U)" d="M432.5 565.75l-1.7 1 16.5 24.55-14.8-25.55z" id="cJ"/><path fill="url(#V)" d="M403.95 588.15v1.3l2.4-1.8-2.3 2.85q.3 1.7 1.35 2.35 1.15.65 2.75.2l1.5-3.3-.5 2.95 1.15-.6 1.6-5.8v4.75q.95-.8 1.15-.95l.85-7.2.85 5.45q2.2-2.35 4.25-5.55 4.2-6.7 5.15-9.85 1.35-4.65-1.95-6.75-3.3-2.1-6.9 1.1-2.45 2.2-6.75 8.9-2.15 3.45-3.15 6.35l5.25-1.65-6.05 3.85q-.3 1-.35 1.45l4.25-2-4.55 3.95z" id="cK"/><path fill="url(#W)" d="M422.95 566.75l-1.65-1-14.9 25.55 16.55-24.55z" id="cL"/><path fill="url(#X)" d="M433.35 562.75l1.05 5.8q2.25-2.6 4.35-6.1 4.2-7.4 5.05-10.8 1.25-4.95-2.4-7.05-3.6-2.1-7.3 1.45-2.5 2.4-6.8 9.75-2.05 3.65-3.1 6.85l5.55-1.95-6.25 4.4-.4 1.6 4.5-2.4-4.7 4.4v1.4l2.5-1.95-2.3 3.1q.35 1.65 1.55 2.45 1.15.6 2.85.05l1.5-3.6-.4 3.15q.8-.35 1.15-.65l1.5-6.25.2 5.05q.5-.4 1.15-1.1l.75-7.6z" id="cM"/><path fill="url(#Y)" d="M425.65 571.95l16.6-26.8-1.8-1-14.8 27.8z" id="cN"/><path fill="url(#Z)" d="M445.3 547.3q-3.95.15-5.1 4.85-.8 3.15-.5 11.15.05 3.5.9 7l3.45-4.4-2.8 6.7q.25.9.5 1.35l2.4-4.1-1.5 5.85q.4.8.6 1.05l1.05-2.8-.3 3.7q1.15 1.15 2.45 1.15 1.4-.15 2.3-1.3l-.6-3.7 1.25 2.75.65-1.05-1.95-5.8 2.65 4q.35-1.2.35-1.45l-3.2-6.5 3.75 4.1q.55-3.45.35-7.05-.25-7.9-1.3-11.05-1.5-4.6-5.4-4.45z" id="cO"/><path fill="url(#aa)" d="M446.35 577l-.1-29.6-1.95.05 2.05 29.55z" id="cP"/><path fill="url(#ab)" d="M437.1 542.65q-1.85-3.45-6.55-2.5-3.25.7-10.25 4.35-3 1.7-5.9 3.9l5.4 1.25-7.2.35-1 1.05 4.65.4-5.9 1.15-.65 1.05 3-.35-3.4 1.35q-.5 1.6 0 2.7.7 1.2 2.2 1.5l3.05-2.1-1.95 2.3q.35.1 1.25.1l4.3-4.25-2.4 4.1 1.55-.3 4.3-5.7-2 5.1q2.75-.7 6.45-2.65 7.05-3.75 9.45-6 3.45-3.35 1.6-6.8z" id="cQ"/><path fill="url(#ac)" d="M437.5 543.5l-.9-1.7-25.7 14.65 26.6-12.95z" id="cR"/><path fill="url(#ad)" d="M463.15 540.85q3.55-3.65 1.45-7.3-2.1-3.6-7.05-2.35-3.4.85-10.8 5.05-3.6 2.1-6.15 4.3l5.85 1.1-7.65.7q-.6.55-1.05 1.15l5 .25-6.25 1.4q-.45.7-.65 1.25l3.2-.45-3.6 1.5q-.65 1.75.1 2.9.7 1.2 2.4 1.5l3.15-2.3-2 2.55h1.35l4.4-4.7-2.35 4.45 1.55-.35 4.5-6.25-2.05 5.55q3.6-1.25 6.85-3.2 7.35-4.2 9.8-6.75z" id="cS"/><path fill="url(#ae)" d="M465 534.5l-1-1.8-26.75 16.65L465 534.5z" id="cT"/><path fill="url(#af)" d="M469.05 544.4q.95-4.7-2.5-6.5-3.5-1.85-6.8 1.6-2.3 2.35-6.05 9.4-1.8 3.5-2.65 6.5l5.1-2.05-5.65 4.35-.3 1.5 4.1-2.35-4.25 4.25.05 1.25 2.3-1.9-2.05 3q.35 1.55 1.5 2.25 1.1.55 2.65 0l1.4-3.4-.4 2.95 1.1-.65 1.15-5.95.35 4.75 1.1-1.05.4-7.2 1.15 5.4q2.35-2.85 3.9-5.9 3.7-7.05 4.4-10.25z" id="cU"/><path fill="url(#ag)" d="M467.4 538.4l-1.75-.95-12.95 26.6 14.7-25.65z" id="cV"/><path fill="url(#ah)" d="M457.4 524.3q-3.15-1-11.05-1.3-3.5-.2-7.05.35l4.1 3.75-6.45-3.25-1.45.35 3.95 2.7-5.75-1.95-1.1.55 2.75 1.25-3.6-.5q-1.25 1-1.35 2.3 0 1.3 1.15 2.45l3.65-.3-2.8 1q.75.5 1.1.65l5.8-1.5-4.1 2.35 1.4.5 6.65-2.8-4.35 3.45q3.6.9 6.95.95 8 .3 11.2-.5 4.65-1.15 4.8-5.1.15-3.9-4.45-5.4z" id="cW"/><path fill="url(#ai)" d="M461.7 530.7l.1-1.95-29.6-.15 29.5 2.1z" id="cX"/><path fill="url(#aj)" d="M455.65 525.75q.443 1.378 1.55 2-2.322-1.248-5.2-1.05-2.7.2-4.9 1.55 1.85-.05 2.9 1.25 1.28 1.575 3.1 2-3.425-.738-6.4.7-3.05 1.45-4.7 4.7 1.9-.65 5.1 1.1 3.1 1.7 6.75.1l-2.05 1.25q-1.95 1.8-1.45 4.65.95-1.4 3.8-1.75 3.013-.395 4.5-2-1.103 1.267-1.3 2.35-.15.9.25 2.4.1-1.1 1.6-1.8.95-.4 3.6-1.3 5.8-2.2 8.65-7.7-2.8-4.7-6.05-7-4.5-3.15-11.05-3 .95.3 1.3 1.55z" id="cY"/><path fill="#FFCC2A" d="M465.45 535.3q-1.5 3.95-6.4 6.65 2.75-1.1 4.2-2.4 1.85-1.75 2.2-4.25z" id="cZ"/><path fill="#FFDB6F" d="M456 533.9q6.05-.4 11.4.7-5.1-1.9-11.25-1.4-4.75.4-11.35 2.4 6.2-1.4 11.2-1.7z" id="da"/><path fill="#FFDB6F" d="M459.75 534.75q-2.35 4.45-8.4 6.95 3.35-.9 5.25-2.3 2.45-1.75 3.15-4.65z" id="db"/><path fill="#FFDB6F" d="M450.55 527.8q5.7 1.05 8.5 4.5-1.2-2.4-3.6-3.45-1.8-.85-4.9-1.05z" id="dc"/><path fill="#FFCC2A" d="M457.75 525.5q5.6 2.75 7.65 7.15-.6-2.8-2.8-4.6-1.7-1.4-4.85-2.55z" id="dd"/><path fill="url(#ak)" d="M463.45 530.35l-1.55.4 4.25 2.75-6.1-1.85q-.8.35-1.15.65l2.95 1.2-3.9-.45q-1.35 1.2-1.35 2.55 0 1.25 1.35 2.5l3.9-.4-2.95 1.15q.5.4 1.15.7l6.1-1.85-4.25 2.65 1.55.5 6.95-3.25-4.45 3.9q3.25.65 7.4.65 8.55 0 11.9-.95 4.9-1.4 4.9-5.6 0-4.2-4.9-5.6-3.35-.95-11.9-.95-4.15 0-7.4.65l4.45 3.85-6.95-3.2z" id="de"/><path fill="url(#al)" d="M490.05 536.6v-2.1l-31.5 1.1 31.5 1z" id="df"/><path fill="url(#am)" d="M488.6 547.2q3.2-3.55 1.1-6.95-2.1-3.3-6.7-1.95-3.1.9-9.9 5.15-3.2 2.05-5.55 4.25l5.45.85-7.2.85-.9 1.15h4.75l-5.85 1.6-.6 1.15 2.95-.5-3.3 1.6q-.45 1.45.2 2.65.65 1.05 2.35 1.35l2.85-2.3-1.8 2.4h1.3l3.95-4.55-2 4.25 1.45-.35 3.9-6.05-1.7 5.25q3.2-1.15 6.35-3.15 6.75-4.3 8.9-6.7z" id="dg"/><path fill="url(#an)" d="M490.15 541.15l-1-1.65-24.55 16.55 25.55-14.9z" id="dh"/><path fill="url(#ao)" d="M489.7 530.85q2.1-3.3-1.1-6.9-2.2-2.4-8.9-6.65-3.45-2.15-6.35-3.15l1.7 5.25-3.9-6.05q-1-.3-1.45-.35l2 4.25-3.95-4.55h-1.3l1.8 2.35-2.85-2.3q-1.75.4-2.35 1.4-.65 1.15-.2 2.65l3.3 1.6-2.95-.5.6 1.15 5.85 1.55h-4.75l.9 1.15 7.2.9-5.45.85q2.05 1.9 5.55 4.25 6.75 4.25 9.9 5.15 4.6 1.3 6.7-2.05z" id="di"/><path fill="url(#ap)" d="M489.15 531.65l1-1.7-25.55-14.8 24.55 16.5z" id="dj"/><path fill="url(#aq)" d="M493.15 542l-5.8 1.1q2.6 2.3 6.1 4.35 7.3 4.25 10.8 5.1 4.95 1.2 7.05-2.4 2.1-3.6-1.45-7.3-2.4-2.5-9.75-6.85-3.75-2.05-6.85-3.05l2 5.5-4.45-6.25q-.95-.3-1.6-.35l2.4 4.45-4.4-4.65h-1.35l2 2.5-3.15-2.3q-1.7.3-2.4 1.5-.7 1.15-.15 2.9l3.6 1.5-3.15-.45q.25.7.65 1.15l6.25 1.55-5.05.1q.3.45 1.1 1.25l7.6.65z" id="dk"/><path fill="url(#ar)" d="M510.75 551l1-1.8-27.8-14.85 26.8 16.65z" id="dl"/><path fill="url(#as)" d="M490.15 556.6l-4.1 3.75q3.45.55 7.05.35 7.9-.25 11.05-1.25 4.6-1.5 4.45-5.45-.15-3.95-4.85-5.1-3.15-.75-11.15-.5-3.6.15-7 .95l4.4 3.4-6.7-2.75-1.35.5 4.1 2.35-5.85-1.5-1.05.65 2.8 1-3.7-.25q-1.15 1.15-1.15 2.4.15 1.3 1.4 2.35l3.6-.6-2.75 1.2 1.1.65 5.75-2-3.95 2.75q1.05.3 1.4.35l6.5-3.25z" id="dm"/><path fill="url(#at)" d="M508.5 554.95l-.05-1.95-29.55 2.1 29.6-.15z" id="dn"/><path fill="url(#au)" d="M501.25 518q-1.55-.55-2.7 0-1.05.7-1.5 2.25l2.1 3.05-2.3-1.95q-.1.35-.1 1.2l4.25 4.35-4.1-2.4.3 1.5 5.7 4.35-5.1-2.05q.7 2.7 2.65 6.5 3.75 7.05 6.05 9.4 3.3 3.45 6.75 1.6 3.45-1.8 2.5-6.5-.7-3.3-4.35-10.25-1.55-3-3.9-5.9l-1.15 5.4-.45-7.2-1.05-1.05-.35 4.7-1.2-5.9q-.7-.5-1.05-.65l.35 2.95-1.35-3.4z" id="do"/><path fill="url(#av)" d="M512.4 546.25l1.7-.95-14.65-25.7 12.95 26.65z" id="dp"/><path fill="url(#aw)" d="M508.45 544.1q-1.75-.5-2.9.15-1.2.75-1.5 2.45l2.3 3.05-2.5-1.9v1.35l4.65 4.4-4.45-2.4.35 1.6 6.25 4.4-5.55-1.95q1.2 3.4 3.2 6.85 4.2 7.3 6.75 9.75 3.65 3.55 7.3 1.45 3.6-2.1 2.35-7.1-.85-3.45-5.05-10.75-2.15-3.65-4.3-6.1l-1.1 5.8-.7-7.7-1.15-1-.2 5.05-1.45-6.25q-.7-.45-1.25-.65l.45 3.15-1.5-3.65z" id="dq"/><path fill="url(#ax)" d="M521.4 573.75l1.8-1-16.65-26.8 14.85 27.8z" id="dr"/><path fill="url(#ay)" d="M516.4 568.45q-2.4-2.3-9.4-6-3.45-1.85-6.5-2.65l2.05 5.1-4.35-5.75-1.5-.25 2.35 4.1-4.2-4.25q-.9 0-1.3.1l1.95 2.3-3.05-2.1q-1.55.35-2.25 1.5-.55 1.15 0 2.7l3.4 1.35-2.95-.35.65 1.05 5.95 1.2-4.75.35 1.05 1.05 7.25.4-5.45 1.2q2.6 2.05 5.9 3.9 7.1 3.7 10.25 4.35 4.7.95 6.5-2.5 1.85-3.45-1.6-6.8z" id="ds"/><path fill="url(#az)" d="M517.5 576.1l.95-1.7-26.55-12.95 25.6 14.65z" id="dt"/><path fill="url(#aA)" d="M529.75 540.4q-1-1.15-2.4-1.3-1.2 0-2.45 1.15l.3 3.7-1-2.8-.65 1 1.5 5.9-2.35-4.1-.5 1.35 2.8 6.7-3.45-4.4q-.7 3-.95 7-.25 7.95.5 11.15 1.15 4.7 5.1 4.85 3.95.15 5.45-4.45 1.05-3.1 1.35-11.05.1-3.9-.45-7.05l-3.75 4.1 3.25-6.5q-.05-.35-.35-1.4l-2.65 3.95 1.9-5.75-.55-1.1-1.25 2.75.6-3.7z" id="du"/><path fill="url(#aB)" d="M525.2 570.45l1.95.05.15-29.6-2.1 29.55z" id="dv"/><path fill="url(#aC)" d="M520.75 564.1q0 1.2-1.2 2-1.3.9-1.6 2.3.55-2.85-.65-5.9-1.15-2.85-3.3-4.75.65 2.05-.4 3.6-1.25 1.95-1.15 4.05-.3-4-2.9-6.7-2.55-2.7-6.65-3.4 1.35 1.8.6 5.85-.695 3.611 1.8 6.75-.636-.694-1.6-1.25-2.6-1.45-5.5.05 1.9.55 3.25 3.5 1.399 2.942 3.6 3.95-1.66-.69-2.9-.5-1.05.2-2.5 1.2 1.25-.3 2.5 1.05.8.85 2.65 3.35 4.35 5.45 11.1 6.6 4.15-4.65 5.5-8.9 1.85-5.85-.65-12.85z" id="dw"/><path fill="#FFCC2A" d="M512.75 579.85q-4.85-.3-9.3-4.5 2.15 2.5 4 3.55 2.45 1.4 5.3.95z" id="dx"/><path fill="#FFDB6F" d="M505.25 557.85q7.55 12.9 8.95 23.8.2-6.15-2.45-12.5-2.05-4.95-6.5-11.3z" id="dy"/><path fill="#FFDB6F" d="M511.4 573.6q-5.6-1-10.4-6.6 2.25 3.35 4.3 4.85 2.65 1.95 6.1 1.75z" id="dz"/><path fill="#FFDB6F" d="M515.55 561.3q.85 6.45-1.8 10.65 2.15-2.05 2.45-5 .2-2.25-.65-5.65z" id="dA"/><path fill="#FFCC2A" d="M519.05 573.95q-1.25 2.8-3.5 4.85 2.8-1.6 4-4.55.9-2.3 1-6.05-.5 3.4-1.5 5.75z" id="dB"/><path fill="url(#aD)" d="M520.3 565.3q-1.2 0-2.5 1.4l.45 3.9-1.2-3.05-.7 1.25 1.9 6.1-2.7-4.25-.5 1.5 3.25 7-3.9-4.55q-.65 3.75-.65 7.5 0 8.5.95 11.85 1.4 4.95 5.6 4.95 4.2 0 5.6-4.95.95-3.35.95-11.85 0-4.2-.65-7.5l-3.8 4.55 3.25-7-.5-1.5-2.75 4.25 1.85-6.1-.6-1.25-1.25 3.05.45-3.9q-1.25-1.4-2.55-1.4z" id="dC"/><path fill="url(#aE)" d="M519.3 598.8h2.1l-1.1-31.55-1 31.55z" id="dD"/><path fill="url(#aF)" d="M503.1 574.9l-1.5-3.3q-1.65-.45-2.75.2-1.05.65-1.35 2.3l2.3 2.9-2.4-1.8v1.3l4.55 3.95-4.25-2.1.35 1.5 6.05 3.9-5.25-1.65q1.5 3.8 3.2 6.25 4.2 6.75 6.7 8.95 3.6 3.25 6.9 1.15 3.3-2.1 1.95-6.75-.9-3.1-5.15-9.9-2-3.1-4.25-5.55l-.85 5.5-.85-7.2q-.2-.1-1.15-.95v4.75l-1.6-5.85-1.15-.55.5 2.95z" id="dE"/><path fill="url(#aG)" d="M514.75 598.9l1.7-1.05-16.6-24.55 14.9 25.6z" id="dF"/><path fill="url(#aH)" d="M543.15 574.1q-.4-1.7-1.4-2.3-1.05-.7-2.65-.2l-1.6 3.3.55-2.95-1.1.55-1.6 5.85-.05-4.75-1.15.95-.9 7.2-.75-5.5q-1.75 1.75-4.35 5.55-4.2 6.75-5.15 9.9-1.3 4.65 2.05 6.75 3.3 2.1 6.9-1.15 2.4-2.2 6.65-8.95 2.05-3.1 3.15-6.25l-5.25 1.65 6.05-3.9q.3-1 .35-1.5l-4.2 2.1 4.5-3.95q.1-.45.1-1.3l-2.45 1.8 2.3-2.9z" id="dG"/><path fill="url(#aI)" d="M524.25 597.85l1.7 1.05 14.8-25.6-16.5 24.55z" id="dH"/><path fill="url(#aJ)" d="M522.55 590.95q-1.1-.6-2.9-.15l-1.5 3.7.45-3.2-1.15.65-1.55 6.3-.1-5.05q-.25.2-1.25 1.05l-.65 7.65-1.05-5.85q-2.35 2.65-4.4 6.15-4.2 7.3-5.05 10.75-1.25 5 2.35 7.1 3.65 2.1 7.35-1.45 2.55-2.45 6.8-9.8 2-3.6 3.1-6.85l-5.55 1.95 6.25-4.4q.3-1.15.35-1.55l-4.45 2.35 4.65-4.35v-1.4l-2.5 1.95 2.4-3.1q-.45-1.75-1.6-2.45z" id="dI"/><path fill="url(#aK)" d="M504.9 619.45l1.8 1.05 14.9-27.8-16.7 26.75z" id="dJ"/><path fill="url(#aL)" d="M500.75 585.85q-1.25.1-2.3 1.3l.55 3.65-1.2-2.7-.65 1.05 2 5.75-2.65-3.95q-.05.1-.45 1.45l3.25 6.5-3.75-4.15q-.55 3.8-.35 7.1.3 7.9 1.3 11.05 1.5 4.55 5.45 4.4 3.9-.15 5.05-4.85.8-3.25.5-11.15-.05-3.25-.95-6.95l-3.35 4.4 2.7-6.7q-.3-1.1-.5-1.4l-2.35 4.1 1.55-5.9-.7-1-1 2.8.3-3.65q-1.1-1.15-2.45-1.15z" id="dK"/><path fill="url(#aM)" d="M500.95 617.25l1.95-.1-2.1-29.5.15 29.6z" id="dL"/><path fill="url(#aN)" d="M531.4 605.65l-1.45.2-4.4 5.75 2.05-5.1q-3.1.9-6.5 2.65-7 3.75-9.4 6.05-3.45 3.35-1.6 6.8 1.8 3.45 6.5 2.5 3.3-.7 10.25-4.4 3.45-1.85 5.9-3.85l-5.4-1.25 7.2-.35q.65-.55 1.05-1.1l-4.7-.35 5.9-1.15q.4-.5.65-1.1l-2.95.4 3.4-1.4q.6-1.65 0-2.65-.6-1.2-2.25-1.5l-3 2.1 1.9-2.35-1.2-.05-4.3 4.25 2.35-4.1z" id="dM"/><path fill="url(#aO)" d="M509.65 621.15l.95 1.7 25.7-14.7-26.65 13z" id="dN"/><path fill="url(#aP)" d="M484.1 623.8q-3.55 3.65-1.5 7.25 2.1 3.65 7.1 2.4 3.45-.85 10.75-5.05 3.65-2.15 6.1-4.3l-5.8-1.1 7.7-.7 1-1.15-5.05-.25 6.25-1.45.75-1.2-3.2.45 3.6-1.55q.5-1.7-.1-2.85-.8-1.2-2.45-1.55l-3.1 2.35 1.9-2.55h-1.35l-4.4 4.7 2.4-4.5-1.6.4-4.4 6.25 1.95-5.55q-2.95.95-6.85 3.15-7.3 4.3-9.7 6.8z" id="dO"/><path fill="url(#aQ)" d="M482.15 630.15l1.1 1.8 26.7-16.65-27.8 14.85z" id="dP"/><path fill="url(#aR)" d="M482.5 609.95q-3.65 7-4.35 10.3-.95 4.7 2.5 6.5 3.45 1.85 6.8-1.6 2.4-2.4 6-9.4 1.95-3.8 2.65-6.5l-5.1 2 5.75-4.3.25-1.5-4.1 2.35 4.25-4.3q0-.9-.1-1.25l-2.3 1.95 2.15-3q-.35-1.55-1.55-2.25-1.1-.5-2.7 0l-1.3 3.4.3-2.95-1.05.65-1.15 5.9-.4-4.7-1.05 1-.35 7.2-1.25-5.4q-2.1 2.7-3.9 5.9z" id="dQ"/><path fill="url(#aS)" d="M479.8 626.25l1.7.9 12.95-26.6-14.65 25.7z" id="dR"/><path fill="url(#aT)" d="M489.75 640.35q3.2 1.05 11.15 1.3 3.55.2 6.95-.35l-4-3.75 6.4 3.25 1.45-.4-3.9-2.65 5.7 1.95 1.05-.65-2.75-1.2 3.7.55q1.3-1.05 1.3-2.3 0-1.3-1.15-2.45l-3.7.3 2.8-1q-.2-.2-1-.65l-5.8 1.5 4-2.4-1.35-.5-6.7 2.85 4.4-3.5q-3.5-.85-7-.9-8-.3-11.15.5-4.7 1.15-4.85 5.1-.15 3.9 4.45 5.4z" id="dS"/><path fill="url(#aU)" d="M485.45 633.95l-.05 1.95 29.6.15-29.55-2.1z" id="dT"/><path fill="url(#aV)" d="M434.2 545.4q-3.8-.7-6.5 0-3.75.9-6.75 4.45.65-.35 1.45.05.884.419 1.7.15-1.645.61-2.85 2.25-1.15 1.5-1.45 3.3.85-1 2.05-.95 1.4.05 2.5-.7-2 1.45-2.6 3.75-.65 2.25.3 4.65.5-1.35 2.95-2.2 2.35-.85 3.15-3.55l-.25 1.65q.05 1.85 1.75 2.9-.25-1.15.9-2.85 1.17-1.707 1-3.3.166 1.219.65 1.8.4.5 1.45.95-.6-.6.65-4.2 1.5-4.1-.1-8.15z" id="dU"/><path fill="#F1B82D" d="M432.05 549.1q1.45 2.6.55 6.45.7-1.95.65-3.35-.05-1.75-1.2-3.1z" id="dV"/><path fill="url(#aW)" d="M422.7 560.3q4.3-8.15 9.85-12.55-3.4 1.85-5.95 5.35-2 2.75-3.9 7.2z" id="dW"/><path fill="#FFCC2A" d="M429.1 551.85q1.35 3.3-.15 7.7 1.05-2.3 1.2-3.85.2-2.1-1.05-3.85z" id="dX"/><path fill="#FFCC2A" d="M421.15 553.6q3.1-2.6 6.35-2.45-1.8-.5-3.5.25-1.3.65-2.85 2.2z" id="dY"/><path fill="#F1B82D" d="M423.25 548.7q4.05-1.7 7.35-.8-1.8-1-3.75-.65-1.55.25-3.6 1.45z" id="dZ"/><path fill="url(#aX)" d="M439.7 540.25q-3.35 0-5.75 2.4t-2.4 5.75q0 3.35 2.4 5.75t5.75 2.4q3.35 0 5.7-2.4 2.4-2.4 2.4-5.75t-2.4-5.75q-2.35-2.4-5.7-2.4z" id="ea"/><path fill="url(#aY)" d="M440.1 544.1q.65-1.15.15-1.8-.5-.65-1.75-.4-1.3.2-2.65 1.2-1.35.95-1.95 2.1-.65 1.2-.15 1.85.5.65 1.75.4 1.3-.2 2.65-1.2 1.35-1 1.95-2.15z" id="eb"/><path fill="#373535" d="M439 543.55q.45.25 1.05.25.65 0 1.05-.25.45-.2.45-.55 0-.35-.45-.55-.4-.25-1.05-.25-.6 0-1.05.25-.5.2-.5.55 0 .35.5.55z" id="ec"/><path fill="url(#aZ)" d="M444.95 547.1q0 2.75-2 4.75-1.95 1.95-4.7 1.95-1.75 0-3.7-1.05 2.1 2.35 5.15 2.35 2.75 0 4.7-1.95 1.95-2 1.95-4.75 0-1.75-.85-3.25-.8-1.5-2.25-2.35 1.7 1.85 1.7 4.3z" id="ed"/><path fill="url(#ba)" d="M431.75 592.05q1.9 1.85 4.55 1.85 2.7 0 4.6-1.85 1.85-1.9 1.85-4.6 0-2.65-1.85-4.55-1.9-1.9-4.6-1.9-2.65 0-4.55 1.9-1.85 1.9-1.85 4.55 0 2.7 1.85 4.6z" id="ee"/><path fill="url(#bb)" d="M433.35 583.25q-1.05.75-1.55 1.7-.5.9-.1 1.4.4.55 1.35.35 1-.15 2.1-.95 1.1-.8 1.55-1.7.5-.9.1-1.45-.35-.5-1.4-.3-1.05.2-2.05.95z" id="ef"/><path fill="#373535" d="M435.8 583.65q.35.2.85.2 1.15 0 1.15-.65t-1.15-.65q-1.2 0-1.2.65 0 .25.35.45z" id="eg"/><path fill="url(#bc)" d="M435.2 591.75q-1.55 0-2.85-.85 1.45 1.85 3.95 1.85 2.2 0 3.75-1.55 1.55-1.55 1.55-3.75 0-1.35-.65-2.55-.65-1.2-1.8-1.85 1.3 1.4 1.3 3.35 0 2.2-1.55 3.8-1.5 1.55-3.7 1.55z" id="eh"/><path fill="url(#bd)" d="M452.2 626.15q0-2.85-2.05-4.9-2.1-2.05-5-2.05t-5 2.05q-2.05 2.05-2.05 4.9 0 2.95 2.05 5 2.1 2.05 5 2.05 2.95 0 5-2.05t2.05-5z" id="ei"/><path fill="url(#be)" d="M445.6 622.45q.5-1 .05-1.55-.35-.6-1.5-.35-1.1.25-2.3 1.1-1.15.75-1.65 1.8-.55 1-.15 1.55.4.6 1.55.4 1.1-.25 2.25-1.1 1.2-.8 1.75-1.85z" id="ej"/><path fill="#373535" d="M446.8 621.55q0-.7-1.3-.7t-1.3.7q0 .25.4.5t.9.25q.55 0 .95-.25.35-.2.35-.5z" id="ek"/><path fill="url(#bf)" d="M448.3 621.35q1.4 1.55 1.4 3.75 0 2.4-1.7 4.1-1.7 1.7-4.1 1.7-1.6 0-3.15-.9 1.85 2 4.4 2 2.45 0 4.15-1.7 1.7-1.7 1.7-4.05 0-3.2-2.7-4.9z" id="el"/><path fill="url(#bg)" d="M461.8 628.5q1.55 1.55 3.65 1.55 2.2 0 3.7-1.55 1.55-1.5 1.55-3.7 0-2.1-1.55-3.65-1.55-1.55-3.7-1.55-2.1 0-3.65 1.55-1.55 1.55-1.55 3.65 0 2.15 1.55 3.7z" id="em"/><path fill="url(#bh)" d="M463.05 621.4q-.85.65-1.25 1.45-.35.7-.1 1.1.35.4 1.15.3.8-.15 1.65-.8.85-.7 1.25-1.4t.15-1.15q-.35-.4-1.2-.25-.8.15-1.65.75z" id="en"/><path fill="#373535" d="M464.8 621.4q0 .5.95.5t.95-.5q0-.2-.3-.35-.3-.2-.65-.2-.35 0-.65.2-.3.15-.3.35z" id="eo"/><path fill="url(#bi)" d="M467.85 621.2q1 1.25 1 2.8 0 1.8-1.25 3.05-1.25 1.2-3 1.2-1.3 0-2.4-.65 1.25 1.5 3.25 1.5 1.8 0 3.05-1.25 1.25-1.3 1.25-3.05 0-2.3-1.9-3.6z" id="ep"/><path fill="url(#bj)" d="M497.9 624.05q1.9 1.9 4.55 1.9t4.55-1.9q1.85-1.95 1.85-4.6 0-2.65-1.85-4.5-1.9-1.9-4.55-1.9t-4.55 1.9q-1.9 1.9-1.9 4.5 0 2.65 1.9 4.6z" id="eq"/><path fill="url(#bk)" d="M499.45 615.3q-1.1.75-1.55 1.7-.5.9-.1 1.4.4.55 1.4.35 1-.2 2.05-1 1.1-.75 1.55-1.65.5-.9.1-1.45-.4-.55-1.35-.35-1 .2-2.1 1z" id="er"/><path fill="#373535" d="M501.6 615.2q0 .65 1.15.65 1.2 0 1.2-.65t-1.2-.65q-1.15 0-1.15.65z" id="es"/><path fill="url(#bl)" d="M505.35 615.1q1.2 1.3 1.2 3.35 0 2.2-1.55 3.8-1.5 1.55-3.7 1.55-1.55 0-2.85-.85 1.45 1.85 4 1.85 2.2 0 3.7-1.55 1.55-1.6 1.55-3.8 0-2.9-2.35-4.35z" id="et"/><path fill="url(#bm)" d="M516.9 587.8q-2.4 2.4-2.4 5.75t2.4 5.75q2.35 2.4 5.7 2.4t5.75-2.4q2.4-2.4 2.4-5.75t-2.4-5.75q-2.4-2.4-5.75-2.4t-5.7 2.4z" id="eu"/><path fill="url(#bn)" d="M518.8 588.2q-1.35 1.05-1.95 2.2-.65 1.15-.15 1.8.5.65 1.8.4 1.35-.25 2.6-1.2 1.35-.95 1.95-2.15.65-1.15.15-1.8-.5-.65-1.75-.45-1.3.25-2.65 1.2z" id="ev"/><path fill="#373535" d="M522 588.75q.4.25 1 .25 1.5 0 1.5-.85 0-.35-.45-.55-.4-.25-1.05-.25-.6 0-1 .25-.45.2-.45.55 0 .35.45.6z" id="ew"/><path fill="url(#bo)" d="M529.3 593.55q0-1.7-.85-3.2-.8-1.5-2.25-2.4 1.7 1.85 1.7 4.3 0 2.8-2 4.75-1.95 1.95-4.7 1.95-2.1 0-3.7-1.1 2.05 2.4 5.1 2.4 2.75 0 4.75-2 1.95-1.95 1.95-4.7z" id="ex"/><path fill="url(#bp)" d="M523.1 573.9q0 2.15 1.55 3.65 1.5 1.55 3.65 1.55t3.7-1.55q1.5-1.5 1.5-3.65t-1.5-3.7q-1.5-1.5-3.7-1.5-2.15 0-3.65 1.5-1.55 1.55-1.55 3.7z" id="ey"/><path fill="url(#bq)" d="M525.85 570.5q-.85.65-1.25 1.35-.35.75-.05 1.2.35.4 1.15.25.8-.15 1.65-.8.85-.65 1.25-1.4.4-.7.05-1.1-.25-.4-1.1-.25-.85.1-1.7.75z" id="ez"/><path fill="#373535" d="M527.6 570.45q0 .55 1 .55.95 0 .95-.55 0-.5-.95-.5-1 0-1 .5z" id="eA"/><path fill="url(#br)" d="M530.6 570.3q1.1 1.35 1.1 2.8 0 1.8-1.25 3.05-1.3 1.2-3.1 1.2-1.35 0-2.3-.65 1.4 1.5 3.25 1.5 1.8 0 3.1-1.25 1.25-1.3 1.25-3.05 0-2.3-2.05-3.6z" id="eB"/><path fill="url(#bs)" d="M506 538.2q-1.9 1.9-1.9 4.5 0 2.65 1.9 4.55 1.85 1.85 4.5 1.85t4.5-1.85q1.85-1.9 1.85-4.55t-1.85-4.5q-1.85-1.9-4.5-1.9-2.6 0-4.5 1.9z" id="eC"/><path fill="url(#bt)" d="M507.5 538.55q-1 .75-1.5 1.7-.45.9-.1 1.4.4.55 1.4.35 1-.2 2.05-1 1.05-.75 1.5-1.65.5-.9.1-1.45-.35-.5-1.35-.3t-2.1.95z" id="eD"/><path fill="#373535" d="M509.65 538.45q0 .65 1.15.65 1.25 0 1.25-.65 0-.25-.4-.45-.35-.2-.85-.2-1.15 0-1.15.65z" id="eE"/><path fill="url(#bu)" d="M513.35 538.3q1.3 1.65 1.3 3.4 0 2.15-1.55 3.7-1.55 1.55-3.75 1.55-1.65 0-2.8-.85 1.55 1.85 3.95 1.85 2.2 0 3.75-1.55 1.55-1.55 1.55-3.7 0-2.75-2.45-4.4z" id="eF"/><path fill="url(#bv)" d="M489.85 536.25q0-2.65-1.85-4.55-1.9-1.85-4.6-1.85-2.65 0-4.55 1.85-1.9 1.9-1.9 4.55 0 2.7 1.9 4.6 1.9 1.85 4.55 1.85 2.7 0 4.6-1.85 1.85-1.9 1.85-4.6z" id="eG"/><path fill="url(#bw)" d="M480.35 532.05q-1 .75-1.5 1.7-.45.9-.1 1.4.35.55 1.4.4 1-.2 2.1-.95 1.05-.85 1.5-1.75.5-.9.15-1.45-.35-.5-1.4-.3-1.05.2-2.15.95z" id="eH"/><path fill="#373535" d="M482.9 532.45q.35.2.85.2 1.15 0 1.15-.65t-1.15-.65q-.5 0-.85.2-.4.2-.4.45t.4.45z" id="eI"/><path fill="url(#bx)" d="M486.25 531.85q1.3 1.55 1.3 3.4 0 2.2-1.55 3.75-1.55 1.55-3.75 1.55-1.6 0-2.9-.85 1.6 1.85 4.05 1.85 2.2 0 3.75-1.55 1.55-1.55 1.55-3.75 0-2.8-2.45-4.4z" id="eJ"/><path fill="url(#by)" d="M414.2 577.15q1.5 1.55 3.65 1.55t3.7-1.55q1.5-1.5 1.5-3.7 0-2.1-1.5-3.6-1.55-1.55-3.7-1.55-2.15 0-3.65 1.55-1.5 1.5-1.5 3.6 0 2.2 1.5 3.7z" id="eK"/><path fill="url(#bz)" d="M415.4 570.1q-.85.65-1.25 1.4-.35.7-.05 1.1.3.4 1.1.3.85-.15 1.7-.8.85-.6 1.25-1.35.4-.75.05-1.2-.3-.4-1.1-.25-.8.2-1.7.8z" id="eL"/><path fill="#373535" d="M417.15 570.1q0 .5.9.5 1.05 0 1.05-.5 0-.6-1.05-.6-.35 0-.65.2-.25.15-.25.4z" id="eM"/><path fill="url(#bA)" d="M420.15 569.95q1 1.1 1 2.7 0 1.8-1.2 3.1-1.25 1.25-3.05 1.25-1.2 0-2.3-.75 1.3 1.55 3.25 1.55 1.8 0 3.05-1.25 1.2-1.3 1.2-3.1 0-2.3-1.95-3.5z" id="eN"/><path fill="url(#bB)" d="M483.95 628.7q1.366-.881 1.85-1.85.4-.85.4-2.4-.4 1.05-2 1.3-2.25.15-3.7.25-6.1.5-10.25 4.85 1.45 5.3 3.85 8.3 3.3 4.2 9.5 5.75-.8-.55-.8-1.8-.05-1.45-.95-2.4 1.85 1.85 4.6 2.5 2.6.55 5.05-.1-1.75-.5-2.4-2-.8-1.8-2.35-2.75 2.95 1.65 6.2 1.1 3.25-.55 5.7-3.15-2 .15-4.5-2.4-2.202-2.157-5.55-2 .747-.107 1.5-.5 2.35-1.15 2.65-3.95-1.3 1-4.1.6-2.832-.488-4.7.65z" id="eO"/><path fill="#F1B82D" d="M476.2 631.5q2.45-3.2 7.75-4.55-2.85.3-4.55 1.15-2.15 1.1-3.2 3.4z" id="eP"/><path fill="url(#bC)" d="M484.7 635.35q-5.75-1.3-10.45-3.7 4.3 3.1 10.15 4.3 4.55.95 11.3.85-6.25-.4-11-1.45z" id="eQ"/><path fill="#FFCC2A" d="M485.6 630q-2.75 1.05-4.25 3.6 3.3-3.55 9.8-4.35-3.5 0-5.55.75z" id="eR"/><path fill="#FFCC2A" d="M481.35 636.05q.5 2.55 2.45 4.2 1.5 1.25 4.35 2.35-5.1-2.7-6.8-6.55z" id="eS"/><path fill="#F1B82D" d="M480.8 642.75q-4.6-4.15-5.2-8.75-.25 2.8 1.3 5.1 1.2 1.75 3.9 3.65z" id="eT"/><path fill="url(#bD)" d="M529.1 601.85q2-1.7 2.45-4.15.45-2.45-.7-4.85-.45 1.4-2.9 2.55-2.114.99-2.9 3.4.116-.538.05-1.2-.2-1.95-2.1-2.9.35 1.2-.7 3.05-1.074 1.905-.8 3.45-.219-1.119-.8-1.7-.5-.5-1.6-.9.65.6-.4 4.4-1.2 4.45.75 8.55 4.1.4 6.9-.5 3.9-1.25 6.65-5.25-.65.4-1.55.1-1-.35-1.9.05 1.75-.85 2.95-2.65 1.1-1.7 1.3-3.65-.85 1.15-2.1 1.2-1.5.1-2.6 1z" id="eU"/><path fill="#FFCC2A" d="M521.45 607.5q-1.6-2.55-1.15-6.7-.55 2.05-.4 3.5.2 1.85 1.55 3.2z" id="eV"/><path fill="#FFDB6F" d="M526.8 602.85q1.85-2.95 3.6-7.8-3.95 8.95-9.35 13.9 3.35-2.25 5.75-6.1z" id="eW"/><path fill="#FFDB6F" d="M524.35 604.4q-1.65-3.4-.5-8.1-.95 2.4-.95 4.15 0 2.2 1.45 3.95z" id="eX"/><path fill="#FFDB6F" d="M529.75 604.4q1.3-.75 2.75-2.45-3 2.85-6.45 3.05 1.95.35 3.7-.6z" id="eY"/><path fill="#FFCC2A" d="M527.05 609q1.5-.35 3.65-1.75-4.1 2.05-7.6 1.35 1.95.9 3.95.4z" id="eZ"/><path fill="url(#bE)" d="M496.3 525.25q.048 1.237.75 2.1-1.405-1.61-3.45-1.95-2.1-.35-4.15.75 1.2.35 2.25 2.45.86 1.81 2.95 2.35-.48-.067-1.05 0-1.65.25-2.45 1.9 1-.35 2.65.55 1.7.9 3.1.55-1.1.25-1.6.75-.4.4-.7 1.3.5-.55 3.8.3 3.85.95 7.25-.85.3-3.4-.55-5.85-1.2-3.25-4.65-5.55.4.5.15 1.3-.293.83 0 1.55-.67-1.461-2.3-2.4-1.45-.9-3.1-1 1 .7 1.1 1.75z" id="fa"/><path fill="#F1B82D" d="M502.15 533.85q-2.25 1.45-5.65 1.1 3.85.95 5.65-1.1z" id="fb"/><path fill="url(#bF)" d="M491.3 526.5q7.7 3.05 12.1 7.65-1.9-2.8-5.3-4.8-2.6-1.5-6.8-2.85z" id="fc"/><path fill="#FFCC2A" d="M499.45 531.5q-1.55.8-3.4.9-1.55.05-3.55-.35 2.1.75 3.6.75 1.9-.05 3.35-1.3z" id="fd"/><path fill="#FFCC2A" d="M497.15 524.55q2.6 2.5 2.8 5.4.25-1.7-.6-3.1-.65-1.1-2.2-2.3z" id="fe"/><path fill="#F1B82D" d="M501.75 525.95q1.9 3.6 1.35 6.45.75-1.7.3-3.4-.4-1.3-1.65-3.05z" id="ff"/><path fill="url(#bG)" d="M454.4 607.5q-3.8-.9-7.25.9-.25 3.5.6 5.8 1.15 3.25 4.6 5.55-.4-.55-.15-1.3.3-.85 0-1.55.75 1.45 2.3 2.4 1.45.95 3.1 1.05-.95-.65-1.05-1.75-.098-1.329-.9-2.25 1.567 1.703 3.6 2.05 2.1.35 4.1-.75-1.2-.35-2.2-2.45-1-2-3.45-2.5l1.5.1q1.65-.2 2.45-1.85-1 .35-2.65-.5-1.636-.866-2.95-.6.972-.224 1.4-.7.45-.45.75-1.4-.5.6-3.8-.25z" id="fg"/><path fill="#F1B82D" d="M450.6 609.95q2.25-1.5 5.7-1.15-1.9-.35-3-.2-1.55.2-2.7 1.35z" id="fh"/><path fill="url(#bH)" d="M461.5 617.3q-7.75-3.15-12.1-7.6 1.95 2.8 5.3 4.75 2.55 1.5 6.8 2.85z" id="fi"/><path fill="#FFCC2A" d="M453.35 612.35q2.9-1.45 6.9-.6-2.15-.75-3.55-.75-1.9.05-3.35 1.35z" id="fj"/><path fill="#FFCC2A" d="M455.65 619.25q-2.55-2.55-2.8-5.4-.4 3 2.8 5.4z" id="fk"/><path fill="#F1B82D" d="M451.05 617.8q-1.9-3.4-1.3-6.4-.7 1.7-.25 3.4.35 1.25 1.55 3z" id="fl"/><path fill="#FFF" d="M435.5 563.65q.3.3.7.3.45 0 .75-.3t.3-.7q0-1-1.05-1-.4 0-.7.3-.3.25-.3.7 0 .4.3.7z" id="fm"/><path fill="#FFF" d="M466.35 550.75q.45.45 1.1.45.65 0 1.15-.45.45-.45.45-1.1 0-.65-.45-1.15-.45-.45-1.15-.45-.65 0-1.1.45-.45.5-.45 1.15 0 .65.45 1.1z" id="fn"/><path fill="#FFF" d="M472 542.55q-.8 0-1.4.6-.6.6-.6 1.45t.6 1.5q.6.6 1.4.6.85 0 1.5-.6.6-.65.6-1.5t-.6-1.45q-.65-.6-1.5-.6z" id="fo"/><path fill="#FFF" d="M476.55 551q.3.35.8.35.4 0 .75-.35.3-.3.3-.8t-.3-.8q-.35-.35-.75-.35-.5 0-.8.35-.35.3-.35.8t.35.8z" id="fp"/><path fill="#FFF" d="M480.8 541.8q.35.35.8.35.45 0 .8-.35.35-.35.35-.8 0-.5-.35-.8-.3-.35-.8-.35t-.8.35q-.35.3-.35.8 0 .45.35.8z" id="fq"/><path fill="#FFF" d="M422.15 577.65q.3.35.8.35t.8-.35q.35-.3.35-.8 0-.45-.35-.8-.3-.35-.8-.35t-.8.35q-.35.35-.35.8 0 .5.35.8z" id="fr"/><path fill="#FFF" d="M421.6 580.1q.2.2.45.2.7 0 .7-.7 0-.65-.7-.65-.65 0-.65.65 0 .25.2.5z" id="fs"/><path fill="#FFF" d="M421.85 587.1q.45.45 1.1.45.7 0 1.15-.45.45-.5.45-1.2 0-.65-.45-1.1-.5-.45-1.15-.45-.65 0-1.1.45-.45.45-.45 1.1 0 .7.45 1.2z" id="ft"/><path fill="#FFF" d="M433.1 570.85q.3.3.75.3.5 0 .8-.3.35-.35.35-.75 0-.5-.35-.8-.3-.35-.8-.35-.45 0-.75.35-.35.3-.35.8 0 .4.35.75z" id="fu"/><path fill="#FFF" d="M446.15 551.1q.4.4 1 .4t1-.4q.4-.45.4-1.05 0-.55-.4-.95-.4-.4-1-.4t-1 .4q-.45.4-.45.95 0 .6.45 1.05z" id="fv"/><path fill="#FFF" d="M444.85 565.1q0 .55.4 1 .45.4 1 .4t1-.4q.4-.45.4-1 0-.6-.4-1-.45-.45-1-.45t-1 .45q-.4.4-.4 1z" id="fw"/><path fill="#FFF" d="M477 530.8q.45.4 1 .4t1-.4q.4-.4.4-.95 0-.6-.4-1-.45-.45-1-.45t-1 .45q-.4.4-.4 1 0 .55.4.95z" id="fx"/><path fill="#FFF" d="M471.85 529.3q0 .95.95.95.85 0 .85-.95 0-.9-.85-.9-.95 0-.95.9z" id="fy"/><path fill="#FFF" d="M473.6 531.2q0 .5.55.5.6 0 .6-.5 0-.6-.6-.6-.55 0-.55.6z" id="fz"/><path fill="#FFF" d="M466.4 532.2q.3.3.65.3.35 0 .65-.3.25-.25.25-.65t-.25-.65q-.3-.3-.65-.3-.35 0-.65.3-.3.3-.3.65 0 .4.3.65z" id="fA"/><path fill="#FFF" d="M492.75 548.25q0 .6.5.6.55 0 .55-.6 0-.5-.55-.5-.5 0-.5.5z" id="fB"/><path fill="#FFF" d="M490 548.7q.3.3.65.3.95 0 .95-.95t-.95-.95q-.95 0-.95.95 0 .4.3.65z" id="fC"/><path fill="#FFF" d="M418.7 559.75q.35.4.95.4t1.05-.4q.4-.45.4-1.05 0-.6-.4-1-.45-.45-1.05-.45-.6 0-.95.45-.4.4-.4 1t.4 1.05z" id="fD"/><path fill="#FFF" d="M416.65 563.4q0 .75.8.75.3 0 .55-.2.2-.25.2-.55 0-.35-.2-.55-.25-.25-.55-.25-.8 0-.8.8z" id="fE"/><path fill="#FFF" d="M501.95 539.6q0 .8.8.8.7 0 .7-.8 0-.75-.7-.75-.8 0-.8.75z" id="fF"/><path fill="#FFF" d="M433.75 543.85q.2.25.5.25.75 0 .75-.8t-.75-.8q-.3 0-.5.25-.25.2-.25.55 0 .35.25.55z" id="fG"/><path fill="#FFF" d="M497.4 557.55q.3.35.8.35t.8-.35q.35-.3.35-.8 0-.4-.35-.75-.3-.3-.8-.3t-.8.3q-.35.35-.35.75 0 .5.35.8z" id="fH"/><path fill="#FFF" d="M520.4 565.35q.3.35.8.35t.8-.35q.35-.3.35-.8 0-.45-.35-.75-.3-.35-.8-.35t-.8.35q-.35.3-.35.75 0 .5.35.8z" id="fI"/><path fill="#FFF" d="M523.8 568.95q.45.5 1.1.5.7 0 1.2-.5t.5-1.2q0-.65-.5-1.1-.5-.45-1.2-.45-.65 0-1.1.45-.45.45-.45 1.1 0 .7.45 1.2z" id="fJ"/><path fill="#FFF" d="M440.3 603.15q.55.55 1.3.55.8 0 1.35-.55t.55-1.3q0-.85-.55-1.4-.55-.55-1.35-.55-.75 0-1.3.55-.55.6-.55 1.4 0 .75.55 1.3z" id="fK"/><path fill="#FFF" d="M443.45 608.5q.4.4 1 .4.55 0 1-.4.4-.45.4-1.05 0-.6-.4-1-.45-.45-1-.45-.6 0-1 .45-.45.4-.45 1t.45 1.05z" id="fL"/><path fill="#FFF" d="M442.25 595.35q0 .65.65.65.6 0 .6-.65 0-.6-.6-.6-.65 0-.65.6z" id="fM"/><path fill="#FFF" d="M451.9 602.35q.15.2.35.2.65 0 .65-.65 0-.6-.65-.6-.2 0-.35.2-.2.2-.2.4 0 .25.2.45z" id="fN"/><path fill="#FFF" d="M437.6 623.05q0 .6.65.6.55 0 .55-.6 0-.25-.2-.45-.15-.2-.35-.2-.65 0-.65.65z" id="fO"/><path fill="#FFF" d="M435.1 626.65q.35.3.75.3.45 0 .8-.3.3-.35.3-.75 0-.45-.3-.75-.35-.35-.8-.35-.4 0-.75.35-.3.3-.3.75 0 .4.3.75z" id="fP"/><path fill="#FFF" d="M428.05 619.6q.35.3.75.3.5 0 .8-.3.3-.35.3-.8 0-.4-.3-.75-.3-.3-.8-.3-.4 0-.75.3-.35.35-.35.75 0 .45.35.8z" id="fQ"/><path fill="#FFF" d="M458.6 633.7q.3.3.75.3.4 0 .75-.3.3-.35.3-.75 0-.45-.3-.75-.35-.35-.75-.35-.45 0-.75.35-.35.3-.35.75 0 .4.35.75z" id="fR"/><path fill="#FFF" d="M466.7 635.4q.5.5 1.15.5.55 0 1.05-.5.45-.45.45-1.1 0-.6-.45-1.05-.45-.45-1.05-.45-.65 0-1.15.45-.45.4-.45 1.05t.45 1.1z" id="fS"/><path fill="#FFF" d="M474.65 630.55q0 .65.65.65.6 0 .6-.65 0-.55-.6-.55-.65 0-.65.55z" id="fT"/><path fill="#FFF" d="M484.55 616.25q0 .85.85.85t.85-.85q0-.8-.85-.8-.35 0-.6.25-.25.2-.25.55z" id="fU"/><path fill="#FFF" d="M489.8 615.05q.65.6 1.5.6.8 0 1.4-.6.6-.6.6-1.4 0-.85-.6-1.5-.55-.6-1.4-.6-.85 0-1.5.6-.6.65-.6 1.5 0 .8.6 1.4z" id="fV"/><path fill="#FFF" d="M492 609.25q.3.35.8.35.45 0 .8-.35.35-.35.35-.8 0-.5-.35-.8-.35-.35-.8-.35-.5 0-.8.35-.35.3-.35.8 0 .45.35.8z" id="fW"/><path fill="#FFF" d="M493.05 621.2q0 .55.55.55.65 0 .65-.55 0-.65-.65-.65-.55 0-.55.65z" id="fX"/><path fill="#FFF" d="M516.95 617.45q0 .6.65.6.2 0 .35-.2.2-.2.2-.4 0-.25-.2-.45-.15-.2-.35-.2-.65 0-.65.65z" id="fY"/><path fill="#FFF" d="M511.2 623.25q.45.4 1 .4t.95-.4q.4-.4.4-.95 0-.55-.4-.95-.4-.35-.95-.35-.55 0-1 .35-.4.4-.4.95 0 .55.4.95z" id="fZ"/><path fill="#FFF" d="M513.3 600.6q.35.3.8.3.5 0 .8-.3.35-.35.35-.8 0-.5-.35-.8-.3-.35-.8-.35-.45 0-.8.35-.35.3-.35.8 0 .45.35.8z" id="ga"/><path fill="#FFF" d="M511.6 595.65q.3.3.65.3.95 0 .95-.95t-.95-.95q-.95 0-.95.95 0 .4.3.65z" id="gb"/><path fill="#FFF" d="M513.1 591.4q.2.2.4.2t.35-.2q.2-.15.2-.35 0-.6-.55-.6-.6 0-.6.6 0 .2.2.35z" id="gc"/><path fill="#FFF" d="M528.9 583.95q0 .6.55.6.5 0 .5-.6 0-.55-.5-.55-.55 0-.55.55z" id="gd"/><path fill="#FFF" d="M431.85 581.65q0 .6.65.6.2 0 .35-.2.2-.2.2-.4 0-.25-.2-.45-.15-.2-.35-.2-.65 0-.65.65z" id="ge"/><path fill="#FFF" d="M519.15 557.4q0 .6.6.6.65 0 .65-.6 0-.65-.65-.65-.6 0-.6.65z" id="gf"/><path fill="#FFF" d="M509 582.55q0 .55.65.55.6 0 .6-.55 0-.65-.6-.65-.65 0-.65.65z" id="gg"/><path fill="#FFF" d="M471.25 614.25q.2.2.45.2t.4-.2q.2-.15.2-.4t-.2-.45q-.15-.2-.4-.2-.65 0-.65.65 0 .25.2.4z" id="gh"/><path fill="#FFF" d="M458.5 637.65q.15.2.4.2.65 0 .65-.65 0-.6-.65-.6-.2 0-.4.2t-.2.4q0 .25.2.45z" id="gi"/><path fill="#FFF" d="M502.6 631q.2.2.45.2.2 0 .35-.2.2-.15.2-.35 0-.65-.55-.65-.65 0-.65.65 0 .2.2.35z" id="gj"/><path fill="#FFF" d="M451.5 623.45q.3.25.65.25.4 0 .65-.25t.25-.65q0-.35-.25-.65-.25-.25-.65-.25-.35 0-.65.25-.25.3-.25.65 0 .4.25.65z" id="gk"/><path fill="#FFF" d="M429.15 604q0 .55.65.55.6 0 .6-.55 0-.65-.6-.65-.65 0-.65.65z" id="gl"/><path fill="#FFF" d="M427.7 600.95q.3.3.65.3.9 0 .9-.95 0-.9-.9-.9-.35 0-.65.25-.25.3-.25.65 0 .4.25.65z" id="gm"/><path fill="#FFF" d="M503.75 599.1q0 .55.6.55.55 0 .55-.55 0-.2-.2-.4-.15-.2-.35-.2-.6 0-.6.6z" id="gn"/><path fill="#FFF" d="M522.55 601.15q.3.3.7.3.45 0 .75-.3.25-.3.25-.7 0-.45-.25-.75-.3-.3-.75-.3-.4 0-.7.3-.3.35-.3.75t.3.7z" id="go"/><path fill="#FFF" d="M507.7 568.55q0 .95.9.95.35 0 .65-.3.25-.25.25-.65 0-.35-.25-.65-.25-.25-.65-.25-.9 0-.9.9z" id="gp"/><path fill="#FFF" d="M507.15 562.45q0 .55.5.55.55 0 .55-.55 0-.5-.55-.5-.5 0-.5.5z" id="gq"/><path fill="#FFF" d="M455.7 622.65q.55.5 1.35.5.75 0 1.3-.5.5-.55.5-1.3t-.5-1.3q-.55-.6-1.3-.6-.8 0-1.35.6-.55.55-.55 1.3t.55 1.3z" id="gr"/><path fill="#FFF" d="M508.2 591.25q.5.5 1.25.5.8 0 1.3-.5.55-.55.55-1.3 0-.8-.55-1.35-.5-.5-1.3-.5-.75 0-1.25.5-.55.55-.55 1.35 0 .75.55 1.3z" id="gs"/><path fill="#FFF" d="M494.9 627.5q.55.55 1.3.55t1.3-.55q.55-.6.55-1.35 0-.75-.55-1.3t-1.3-.55q-.75 0-1.3.55-.6.55-.6 1.3t.6 1.35z" id="gt"/><path fill="#FFF" d="M439.1 537.05q.25.25.65.25t.65-.25q.3-.3.3-.65 0-.35-.3-.65-.25-.3-.65-.3-.35 0-.65.3-.3.3-.3.65 0 .35.3.65z" id="gu"/><path fill="#FFF" d="M523.5 554.5q.25.25.55.25.35 0 .65-.25.3-.3.3-.6 0-.4-.3-.7-.25-.25-.65-.25-.3 0-.55.25-.3.3-.3.7 0 .3.3.6z" id="gv"/><path fill="#FFF" d="M525.8 582.8q0 .6.55.6.25 0 .4-.2.2-.15.2-.4 0-.2-.2-.35-.2-.2-.4-.2t-.4.2q-.15.15-.15.35z" id="gw"/><path fill="#FFF" d="M521.2 616.6q0 .55.55.55.6 0 .6-.55 0-.2-.2-.4-.15-.2-.4-.2-.55 0-.55.6z" id="gx"/><path fill="#FFF" d="M413.6 577.05q0 .65.65.65.25 0 .4-.2.2-.2.2-.45 0-.55-.6-.55-.65 0-.65.55z" id="gy"/><path fill="#FFF" d="M438.65 613.95q0 .6.6.6.65 0 .65-.6 0-.25-.2-.4-.2-.2-.45-.2-.2 0-.4.2t-.2.4z" id="gz"/></defs><use xlink:href="#bI"/><use xlink:href="#bJ" transform="matrix(1.95163 0 0 1.95166 -782.21 -966.366)"/><use xlink:href="#bK" transform="matrix(1.95163 0 0 1.95166 -782.21 -966.366)"/><use xlink:href="#bL" transform="matrix(1.95163 0 0 1.95166 -782.21 -966.366)"/><use xlink:href="#bM" transform="matrix(1.95163 0 0 1.95166 -782.21 -966.366)"/><use xlink:href="#bN" transform="matrix(1.95163 0 0 1.95166 -782.21 -966.366)"/><use xlink:href="#bO" transform="matrix(1.95163 0 0 1.95166 -782.21 -966.366)"/><use xlink:href="#bP" transform="matrix(1.95163 0 0 1.95166 -782.21 -966.366)"/><use xlink:href="#bQ" transform="matrix(1.95163 0 0 1.95166 -782.21 -966.366)"/><use xlink:href="#bR" transform="matrix(1.95163 0 0 1.95166 -782.21 -966.366)"/><use xlink:href="#bS" transform="matrix(1.95163 0 0 1.95166 -782.21 -966.366)"/><use xlink:href="#bT" transform="matrix(1.95163 0 0 1.95166 -782.21 -966.366)"/><use xlink:href="#bU" transform="matrix(1.95163 0 0 1.95166 -782.21 -966.366)"/><use xlink:href="#bV" transform="matrix(1.95163 0 0 1.95166 -782.21 -966.366)"/><use xlink:href="#bW" transform="matrix(1.95163 0 0 1.95166 -782.21 -966.366)"/><use xlink:href="#bX" transform="matrix(1.95163 0 0 1.95166 -782.21 -966.366)"/><use xlink:href="#bY" transform="matrix(1.95163 0 0 1.95166 -782.21 -966.366)"/><use xlink:href="#bZ" transform="matrix(1.95163 0 0 1.95166 -782.21 -966.366)"/><use xlink:href="#ca" transform="matrix(1.95163 0 0 1.95166 -782.21 -966.366)"/><use xlink:href="#cb" transform="matrix(1.95163 0 0 1.95166 -782.21 -966.366)"/><use xlink:href="#cc" transform="matrix(1.95163 0 0 1.95166 -782.21 -966.366)"/><use xlink:href="#cd" transform="matrix(1.95163 0 0 1.95166 -782.21 -966.366)"/><use xlink:href="#ce" transform="matrix(1.95163 0 0 1.95166 -782.21 -966.366)"/><use xlink:href="#cf" transform="matrix(1.95163 0 0 1.95166 -782.21 -966.366)"/><use xlink:href="#cg" transform="matrix(1.95163 0 0 1.95166 -782.21 -966.366)"/><use xlink:href="#ch" transform="matrix(1.95163 0 0 1.95166 -782.21 -966.366)"/><use xlink:href="#ci" transform="matrix(1.95163 0 0 1.95166 -782.21 -966.366)"/><use xlink:href="#cj" transform="matrix(1.95163 0 0 1.95166 -782.21 -966.366)"/><use xlink:href="#ck" transform="matrix(1.95163 0 0 1.95166 -782.21 -966.366)"/><use xlink:href="#cl" transform="matrix(1.95163 0 0 1.95166 -782.21 -966.366)"/><use xlink:href="#cm" transform="matrix(1.95163 0 0 1.95166 -782.21 -966.366)"/><use xlink:href="#cn" transform="matrix(1.95163 0 0 1.95166 -782.21 -966.366)"/><use xlink:href="#co" transform="matrix(1.95163 0 0 1.95166 -782.21 -966.366)"/><use xlink:href="#cp" transform="matrix(1.95163 0 0 1.95166 -782.21 -966.366)"/><use xlink:href="#cq" transform="matrix(1.95163 0 0 1.95166 -782.21 -966.366)"/><use xlink:href="#cr" transform="matrix(1.95163 0 0 1.95166 -782.21 -966.366)"/><use xlink:href="#cs" transform="matrix(1.95163 0 0 1.95166 -782.21 -966.366)"/><use xlink:href="#ct" transform="matrix(1.95163 0 0 1.95166 -782.21 -966.366)"/><use xlink:href="#cu" transform="matrix(1.95163 0 0 1.95166 -782.21 -966.366)"/><use xlink:href="#cv" transform="matrix(1.95163 0 0 1.95166 -782.21 -966.366)"/><use xlink:href="#cw" transform="matrix(1.95163 0 0 1.95166 -782.21 -966.366)"/><use xlink:href="#cx" transform="matrix(1.95163 0 0 1.95166 -782.21 -966.366)"/><use xlink:href="#cy" transform="matrix(1.95163 0 0 1.95166 -782.21 -966.366)"/><use xlink:href="#cz" transform="matrix(1.95163 0 0 1.95166 -782.21 -966.366)"/><use xlink:href="#cA" transform="matrix(1.95163 0 0 1.95166 -782.21 -966.366)"/><use xlink:href="#cB" transform="matrix(1.95163 0 0 1.95166 -782.21 -966.366)"/><use xlink:href="#cC" transform="matrix(1.95163 0 0 1.95166 -782.21 -966.366)"/><use xlink:href="#cD" transform="matrix(1.95163 0 0 1.95166 -782.21 -966.366)"/><use xlink:href="#cE" transform="matrix(1.95163 0 0 1.95166 -782.21 -966.366)"/><use xlink:href="#cF" transform="matrix(1.95163 0 0 1.95166 -782.21 -966.366)"/><use xlink:href="#cG" transform="matrix(1.95163 0 0 1.95166 -782.21 -966.366)"/><use xlink:href="#cH" transform="matrix(1.95163 0 0 1.95166 -782.21 -966.366)"/><use xlink:href="#cI" transform="matrix(1.95163 0 0 1.95166 -782.21 -966.366)"/><use xlink:href="#cJ" transform="matrix(1.95163 0 0 1.95166 -782.21 -966.366)"/><use xlink:href="#cK" transform="matrix(1.95163 0 0 1.95166 -782.21 -966.366)"/><use xlink:href="#cL" transform="matrix(1.95163 0 0 1.95166 -782.21 -966.366)"/><use xlink:href="#cM" transform="matrix(1.95163 0 0 1.95166 -782.21 -966.366)"/><use xlink:href="#cN" transform="matrix(1.95163 0 0 1.95166 -782.21 -966.366)"/><use xlink:href="#cO" transform="matrix(1.95163 0 0 1.95166 -782.21 -966.366)"/><use xlink:href="#cP" transform="matrix(1.95163 0 0 1.95166 -782.21 -966.366)"/><use xlink:href="#cQ" transform="matrix(1.95163 0 0 1.95166 -782.21 -966.366)"/><use xlink:href="#cR" transform="matrix(1.95163 0 0 1.95166 -782.21 -966.366)"/><use xlink:href="#cS" transform="matrix(1.95163 0 0 1.95166 -782.21 -966.366)"/><use xlink:href="#cT" transform="matrix(1.95163 0 0 1.95166 -782.21 -966.366)"/><use xlink:href="#cU" transform="matrix(1.95163 0 0 1.95166 -782.21 -966.366)"/><use xlink:href="#cV" transform="matrix(1.95163 0 0 1.95166 -782.21 -966.366)"/><use xlink:href="#cW" transform="matrix(1.95163 0 0 1.95166 -782.21 -966.366)"/><use xlink:href="#cX" transform="matrix(1.95163 0 0 1.95166 -782.21 -966.366)"/><use xlink:href="#cY" transform="matrix(1.95163 0 0 1.95166 -782.21 -966.366)"/><use xlink:href="#cZ" transform="matrix(1.95163 0 0 1.95166 -782.21 -966.366)"/><use xlink:href="#da" transform="matrix(1.95163 0 0 1.95166 -782.21 -966.366)"/><use xlink:href="#db" transform="matrix(1.95163 0 0 1.95166 -782.21 -966.366)"/><use xlink:href="#dc" transform="matrix(1.95163 0 0 1.95166 -782.21 -966.366)"/><use xlink:href="#dd" transform="matrix(1.95163 0 0 1.95166 -782.21 -966.366)"/><use xlink:href="#de" transform="matrix(1.95163 0 0 1.95166 -782.21 -966.366)"/><use xlink:href="#df" transform="matrix(1.95163 0 0 1.95166 -782.21 -966.366)"/><use xlink:href="#dg" transform="matrix(1.95163 0 0 1.95166 -782.21 -966.366)"/><use xlink:href="#dh" transform="matrix(1.95163 0 0 1.95166 -782.21 -966.366)"/><use xlink:href="#di" transform="matrix(1.95163 0 0 1.95166 -782.21 -966.366)"/><use xlink:href="#dj" transform="matrix(1.95163 0 0 1.95166 -782.21 -966.366)"/><use xlink:href="#dk" transform="matrix(1.95163 0 0 1.95166 -782.21 -966.366)"/><use xlink:href="#dl" transform="matrix(1.95163 0 0 1.95166 -782.21 -966.366)"/><use xlink:href="#dm" transform="matrix(1.95163 0 0 1.95166 -782.21 -966.366)"/><use xlink:href="#dn" transform="matrix(1.95163 0 0 1.95166 -782.21 -966.366)"/><use xlink:href="#do" transform="matrix(1.95163 0 0 1.95166 -782.21 -966.366)"/><use xlink:href="#dp" transform="matrix(1.95163 0 0 1.95166 -782.21 -966.366)"/><use xlink:href="#dq" transform="matrix(1.95163 0 0 1.95166 -782.21 -966.366)"/><use xlink:href="#dr" transform="matrix(1.95163 0 0 1.95166 -782.21 -966.366)"/><use xlink:href="#ds" transform="matrix(1.95163 0 0 1.95166 -782.21 -966.366)"/><use xlink:href="#dt" transform="matrix(1.95163 0 0 1.95166 -782.21 -966.366)"/><use xlink:href="#du" transform="matrix(1.95163 0 0 1.95166 -782.21 -966.366)"/><use xlink:href="#dv" transform="matrix(1.95163 0 0 1.95166 -782.21 -966.366)"/><use xlink:href="#dw" transform="matrix(1.95163 0 0 1.95166 -782.21 -966.366)"/><use xlink:href="#dx" transform="matrix(1.95163 0 0 1.95166 -782.21 -966.366)"/><use xlink:href="#dy" transform="matrix(1.95163 0 0 1.95166 -782.21 -966.366)"/><use xlink:href="#dz" transform="matrix(1.95163 0 0 1.95166 -782.21 -966.366)"/><use xlink:href="#dA" transform="matrix(1.95163 0 0 1.95166 -782.21 -966.366)"/><use xlink:href="#dB" transform="matrix(1.95163 0 0 1.95166 -782.21 -966.366)"/><use xlink:href="#dC" transform="matrix(1.95163 0 0 1.95166 -782.21 -966.366)"/><use xlink:href="#dD" transform="matrix(1.95163 0 0 1.95166 -782.21 -966.366)"/><use xlink:href="#dE" transform="matrix(1.95163 0 0 1.95166 -782.21 -966.366)"/><use xlink:href="#dF" transform="matrix(1.95163 0 0 1.95166 -782.21 -966.366)"/><use xlink:href="#dG" transform="matrix(1.95163 0 0 1.95166 -782.21 -966.366)"/><use xlink:href="#dH" transform="matrix(1.95163 0 0 1.95166 -782.21 -966.366)"/><use xlink:href="#dI" transform="matrix(1.95163 0 0 1.95166 -782.21 -966.366)"/><use xlink:href="#dJ" transform="matrix(1.95163 0 0 1.95166 -782.21 -966.366)"/><use xlink:href="#dK" transform="matrix(1.95163 0 0 1.95166 -782.21 -966.366)"/><use xlink:href="#dL" transform="matrix(1.95163 0 0 1.95166 -782.21 -966.366)"/><use xlink:href="#dM" transform="matrix(1.95163 0 0 1.95166 -782.21 -966.366)"/><use xlink:href="#dN" transform="matrix(1.95163 0 0 1.95166 -782.21 -966.366)"/><use xlink:href="#dO" transform="matrix(1.95163 0 0 1.95166 -782.21 -966.366)"/><use xlink:href="#dP" transform="matrix(1.95163 0 0 1.95166 -782.21 -966.366)"/><use xlink:href="#dQ" transform="matrix(1.95163 0 0 1.95166 -782.21 -966.366)"/><use xlink:href="#dR" transform="matrix(1.95163 0 0 1.95166 -782.21 -966.366)"/><use xlink:href="#dS" transform="matrix(1.95163 0 0 1.95166 -782.21 -966.366)"/><use xlink:href="#dT" transform="matrix(1.95163 0 0 1.95166 -782.21 -966.366)"/><use xlink:href="#dU" transform="matrix(1.95163 0 0 1.95166 -782.21 -966.366)"/><use xlink:href="#dV" transform="matrix(1.95163 0 0 1.95166 -782.21 -966.366)"/><use xlink:href="#dW" transform="matrix(1.95163 0 0 1.95166 -782.21 -966.366)"/><use xlink:href="#dX" transform="matrix(1.95163 0 0 1.95166 -782.21 -966.366)"/><use xlink:href="#dY" transform="matrix(1.95163 0 0 1.95166 -782.21 -966.366)"/><use xlink:href="#dZ" transform="matrix(1.95163 0 0 1.95166 -782.21 -966.366)"/><use xlink:href="#ea" transform="matrix(1.95163 0 0 1.95166 -782.21 -966.366)"/><use xlink:href="#eb" transform="matrix(1.95163 0 0 1.95166 -782.21 -966.366)"/><use xlink:href="#ec" transform="matrix(1.95163 0 0 1.95166 -782.21 -966.366)"/><use xlink:href="#ed" transform="matrix(1.95163 0 0 1.95166 -782.21 -966.366)"/><use xlink:href="#ee" transform="matrix(1.95163 0 0 1.95166 -782.21 -966.366)"/><use xlink:href="#ef" transform="matrix(1.95163 0 0 1.95166 -782.21 -966.366)"/><use xlink:href="#eg" transform="matrix(1.95163 0 0 1.95166 -782.21 -966.366)"/><use xlink:href="#eh" transform="matrix(1.95163 0 0 1.95166 -782.21 -966.366)"/><use xlink:href="#ei" transform="matrix(1.95163 0 0 1.95166 -782.21 -966.366)"/><use xlink:href="#ej" transform="matrix(1.95163 0 0 1.95166 -782.21 -966.366)"/><use xlink:href="#ek" transform="matrix(1.95163 0 0 1.95166 -782.21 -966.366)"/><use xlink:href="#el" transform="matrix(1.95163 0 0 1.95166 -782.21 -966.366)"/><use xlink:href="#em" transform="matrix(1.95163 0 0 1.95166 -782.21 -966.366)"/><use xlink:href="#en" transform="matrix(1.95163 0 0 1.95166 -782.21 -966.366)"/><use xlink:href="#eo" transform="matrix(1.95163 0 0 1.95166 -782.21 -966.366)"/><use xlink:href="#ep" transform="matrix(1.95163 0 0 1.95166 -782.21 -966.366)"/><use xlink:href="#eq" transform="matrix(1.95163 0 0 1.95166 -782.21 -966.366)"/><use xlink:href="#er" transform="matrix(1.95163 0 0 1.95166 -782.21 -966.366)"/><use xlink:href="#es" transform="matrix(1.95163 0 0 1.95166 -782.21 -966.366)"/><use xlink:href="#et" transform="matrix(1.95163 0 0 1.95166 -782.21 -966.366)"/><use xlink:href="#eu" transform="matrix(1.95163 0 0 1.95166 -782.21 -966.366)"/><use xlink:href="#ev" transform="matrix(1.95163 0 0 1.95166 -782.21 -966.366)"/><use xlink:href="#ew" transform="matrix(1.95163 0 0 1.95166 -782.21 -966.366)"/><use xlink:href="#ex" transform="matrix(1.95163 0 0 1.95166 -782.21 -966.366)"/><use xlink:href="#ey" transform="matrix(1.95163 0 0 1.95166 -782.21 -966.366)"/><use xlink:href="#ez" transform="matrix(1.95163 0 0 1.95166 -782.21 -966.366)"/><use xlink:href="#eA" transform="matrix(1.95163 0 0 1.95166 -782.21 -966.366)"/><use xlink:href="#eB" transform="matrix(1.95163 0 0 1.95166 -782.21 -966.366)"/><use xlink:href="#eC" transform="matrix(1.95163 0 0 1.95166 -782.21 -966.366)"/><use xlink:href="#eD" transform="matrix(1.95163 0 0 1.95166 -782.21 -966.366)"/><use xlink:href="#eE" transform="matrix(1.95163 0 0 1.95166 -782.21 -966.366)"/><use xlink:href="#eF" transform="matrix(1.95163 0 0 1.95166 -782.21 -966.366)"/><use xlink:href="#eG" transform="matrix(1.95163 0 0 1.95166 -782.21 -966.366)"/><use xlink:href="#eH" transform="matrix(1.95163 0 0 1.95166 -782.21 -966.366)"/><use xlink:href="#eI" transform="matrix(1.95163 0 0 1.95166 -782.21 -966.366)"/><use xlink:href="#eJ" transform="matrix(1.95163 0 0 1.95166 -782.21 -966.366)"/><use xlink:href="#eK" transform="matrix(1.95163 0 0 1.95166 -782.21 -966.366)"/><use xlink:href="#eL" transform="matrix(1.95163 0 0 1.95166 -782.21 -966.366)"/><use xlink:href="#eM" transform="matrix(1.95163 0 0 1.95166 -782.21 -966.366)"/><use xlink:href="#eN" transform="matrix(1.95163 0 0 1.95166 -782.21 -966.366)"/><use xlink:href="#eO" transform="matrix(1.95163 0 0 1.95166 -782.21 -966.366)"/><use xlink:href="#eP" transform="matrix(1.95163 0 0 1.95166 -782.21 -966.366)"/><use xlink:href="#eQ" transform="matrix(1.95163 0 0 1.95166 -782.21 -966.366)"/><use xlink:href="#eR" transform="matrix(1.95163 0 0 1.95166 -782.21 -966.366)"/><use xlink:href="#eS" transform="matrix(1.95163 0 0 1.95166 -782.21 -966.366)"/><use xlink:href="#eT" transform="matrix(1.95163 0 0 1.95166 -782.21 -966.366)"/><use xlink:href="#eU" transform="matrix(1.95163 0 0 1.95166 -782.21 -966.366)"/><use xlink:href="#eV" transform="matrix(1.95163 0 0 1.95166 -782.21 -966.366)"/><use xlink:href="#eW" transform="matrix(1.95163 0 0 1.95166 -782.21 -966.366)"/><use xlink:href="#eX" transform="matrix(1.95163 0 0 1.95166 -782.21 -966.366)"/><use xlink:href="#eY" transform="matrix(1.95163 0 0 1.95166 -782.21 -966.366)"/><use xlink:href="#eZ" transform="matrix(1.95163 0 0 1.95166 -782.21 -966.366)"/><use xlink:href="#fa" transform="matrix(1.95163 0 0 1.95166 -782.21 -966.366)"/><use xlink:href="#fb" transform="matrix(1.95163 0 0 1.95166 -782.21 -966.366)"/><use xlink:href="#fc" transform="matrix(1.95163 0 0 1.95166 -782.21 -966.366)"/><use xlink:href="#fd" transform="matrix(1.95163 0 0 1.95166 -782.21 -966.366)"/><use xlink:href="#fe" transform="matrix(1.95163 0 0 1.95166 -782.21 -966.366)"/><use xlink:href="#ff" transform="matrix(1.95163 0 0 1.95166 -782.21 -966.366)"/><use xlink:href="#fg" transform="matrix(1.95163 0 0 1.95166 -782.21 -966.366)"/><use xlink:href="#fh" transform="matrix(1.95163 0 0 1.95166 -782.21 -966.366)"/><use xlink:href="#fi" transform="matrix(1.95163 0 0 1.95166 -782.21 -966.366)"/><use xlink:href="#fj" transform="matrix(1.95163 0 0 1.95166 -782.21 -966.366)"/><use xlink:href="#fk" transform="matrix(1.95163 0 0 1.95166 -782.21 -966.366)"/><use xlink:href="#fl" transform="matrix(1.95163 0 0 1.95166 -782.21 -966.366)"/><use xlink:href="#fm" transform="matrix(1.95163 0 0 1.95166 -782.21 -966.366)"/><use xlink:href="#fn" transform="matrix(1.95163 0 0 1.95166 -782.21 -966.366)"/><use xlink:href="#fo" transform="matrix(1.95163 0 0 1.95166 -782.21 -966.366)"/><use xlink:href="#fp" transform="matrix(1.95163 0 0 1.95166 -782.21 -966.366)"/><use xlink:href="#fq" transform="matrix(1.95163 0 0 1.95166 -782.21 -966.366)"/><use xlink:href="#fr" transform="matrix(1.95163 0 0 1.95166 -782.21 -966.366)"/><use xlink:href="#fs" transform="matrix(1.95163 0 0 1.95166 -782.21 -966.366)"/><use xlink:href="#ft" transform="matrix(1.95163 0 0 1.95166 -782.21 -966.366)"/><use xlink:href="#fu" transform="matrix(1.95163 0 0 1.95166 -782.21 -966.366)"/><use xlink:href="#fv" transform="matrix(1.95163 0 0 1.95166 -782.21 -966.366)"/><use xlink:href="#fw" transform="matrix(1.95163 0 0 1.95166 -782.21 -966.366)"/><use xlink:href="#fx" transform="matrix(1.95163 0 0 1.95166 -782.21 -966.366)"/><use xlink:href="#fy" transform="matrix(1.95163 0 0 1.95166 -782.21 -966.366)"/><use xlink:href="#fz" transform="matrix(1.95163 0 0 1.95166 -782.21 -966.366)"/><use xlink:href="#fA" transform="matrix(1.95163 0 0 1.95166 -782.21 -966.366)"/><use xlink:href="#fB" transform="matrix(1.95163 0 0 1.95166 -782.21 -966.366)"/><use xlink:href="#fC" transform="matrix(1.95163 0 0 1.95166 -782.21 -966.366)"/><use xlink:href="#fD" transform="matrix(1.95163 0 0 1.95166 -782.21 -966.366)"/><use xlink:href="#fE" transform="matrix(1.95163 0 0 1.95166 -782.21 -966.366)"/><use xlink:href="#fF" transform="matrix(1.95163 0 0 1.95166 -782.21 -966.366)"/><use xlink:href="#fG" transform="matrix(1.95163 0 0 1.95166 -782.21 -966.366)"/><use xlink:href="#fH" transform="matrix(1.95163 0 0 1.95166 -782.21 -966.366)"/><use xlink:href="#fI" transform="matrix(1.95163 0 0 1.95166 -782.21 -966.366)"/><use xlink:href="#fJ" transform="matrix(1.95163 0 0 1.95166 -782.21 -966.366)"/><use xlink:href="#fK" transform="matrix(1.95163 0 0 1.95166 -782.21 -966.366)"/><use xlink:href="#fL" transform="matrix(1.95163 0 0 1.95166 -782.21 -966.366)"/><use xlink:href="#fM" transform="matrix(1.95163 0 0 1.95166 -782.21 -966.366)"/><use xlink:href="#fN" transform="matrix(1.95163 0 0 1.95166 -782.21 -966.366)"/><use xlink:href="#fO" transform="matrix(1.95163 0 0 1.95166 -782.21 -966.366)"/><use xlink:href="#fP" transform="matrix(1.95163 0 0 1.95166 -782.21 -966.366)"/><use xlink:href="#fQ" transform="matrix(1.95163 0 0 1.95166 -782.21 -966.366)"/><use xlink:href="#fR" transform="matrix(1.95163 0 0 1.95166 -782.21 -966.366)"/><use xlink:href="#fS" transform="matrix(1.95163 0 0 1.95166 -782.21 -966.366)"/><use xlink:href="#fT" transform="matrix(1.95163 0 0 1.95166 -782.21 -966.366)"/><use xlink:href="#fU" transform="matrix(1.95163 0 0 1.95166 -782.21 -966.366)"/><use xlink:href="#fV" transform="matrix(1.95163 0 0 1.95166 -782.21 -966.366)"/><use xlink:href="#fW" transform="matrix(1.95163 0 0 1.95166 -782.21 -966.366)"/><use xlink:href="#fX" transform="matrix(1.95163 0 0 1.95166 -782.21 -966.366)"/><use xlink:href="#fY" transform="matrix(1.95163 0 0 1.95166 -782.21 -966.366)"/><use xlink:href="#fZ" transform="matrix(1.95163 0 0 1.95166 -782.21 -966.366)"/><use xlink:href="#ga" transform="matrix(1.95163 0 0 1.95166 -782.21 -966.366)"/><use xlink:href="#gb" transform="matrix(1.95163 0 0 1.95166 -782.21 -966.366)"/><use xlink:href="#gc" transform="matrix(1.95163 0 0 1.95166 -782.21 -966.366)"/><use xlink:href="#gd" transform="matrix(1.95163 0 0 1.95166 -782.21 -966.366)"/><use xlink:href="#ge" transform="matrix(1.95163 0 0 1.95166 -782.21 -966.366)"/><use xlink:href="#gf" transform="matrix(1.95163 0 0 1.95166 -782.21 -966.366)"/><use xlink:href="#gg" transform="matrix(1.95163 0 0 1.95166 -782.21 -966.366)"/><use xlink:href="#gh" transform="matrix(1.95163 0 0 1.95166 -782.21 -966.366)"/><use xlink:href="#gi" transform="matrix(1.95163 0 0 1.95166 -782.21 -966.366)"/><use xlink:href="#gj" transform="matrix(1.95163 0 0 1.95166 -782.21 -966.366)"/><use xlink:href="#gk" transform="matrix(1.95163 0 0 1.95166 -782.21 -966.366)"/><use xlink:href="#gl" transform="matrix(1.95163 0 0 1.95166 -782.21 -966.366)"/><use xlink:href="#gm" transform="matrix(1.95163 0 0 1.95166 -782.21 -966.366)"/><use xlink:href="#gn" transform="matrix(1.95163 0 0 1.95166 -782.21 -966.366)"/><use xlink:href="#go" transform="matrix(1.95163 0 0 1.95166 -782.21 -966.366)"/><use xlink:href="#gp" transform="matrix(1.95163 0 0 1.95166 -782.21 -966.366)"/><use xlink:href="#gq" transform="matrix(1.95163 0 0 1.95166 -782.21 -966.366)"/><use xlink:href="#gr" transform="matrix(1.95163 0 0 1.95166 -782.21 -966.366)"/><use xlink:href="#gs" transform="matrix(1.95163 0 0 1.95166 -782.21 -966.366)"/><use xlink:href="#gt" transform="matrix(1.95163 0 0 1.95166 -782.21 -966.366)"/><use xlink:href="#gu" transform="matrix(1.95163 0 0 1.95166 -782.21 -966.366)"/><use xlink:href="#gv" transform="matrix(1.95163 0 0 1.95166 -782.21 -966.366)"/><use xlink:href="#gw" transform="matrix(1.95163 0 0 1.95166 -782.21 -966.366)"/><use xlink:href="#gx" transform="matrix(1.95163 0 0 1.95166 -782.21 -966.366)"/><use xlink:href="#gy" transform="matrix(1.95163 0 0 1.95166 -782.21 -966.366)"/><use xlink:href="#gz" transform="matrix(1.95163 0 0 1.95166 -782.21 -966.366)"/></svg>