<svg xmlns="http://www.w3.org/2000/svg" xmlns:xlink="http://www.w3.org/1999/xlink" preserveAspectRatio="none" width="284" height="320"><defs><linearGradient id="a" gradientUnits="userSpaceOnUse" x1="301.9" y1="328.662" x2="313.2" y2="318.137" spreadMethod="pad"><stop offset="0%" stop-color="#C6814C"/><stop offset="100%" stop-color="#8D3D29"/></linearGradient><linearGradient id="b" gradientUnits="userSpaceOnUse" x1="268.475" y1="298.75" x2="242.225" y2="298.75" spreadMethod="pad"><stop offset="0%" stop-color="#00964D"/><stop offset="100%" stop-color="#BBDA8D"/></linearGradient><linearGradient id="c" gradientUnits="userSpaceOnUse" x1="346.475" y1="298.75" x2="372.725" y2="298.75" spreadMethod="pad"><stop offset="0%" stop-color="#00964D"/><stop offset="100%" stop-color="#BBDA8D"/></linearGradient><linearGradient id="d" gradientUnits="userSpaceOnUse" x1="307.3" y1="196.513" x2="307.3" y2="177.588" spreadMethod="pad"><stop offset="0%" stop-color="#81C56D"/><stop offset="100%" stop-color="#DBEBC3"/></linearGradient><linearGradient id="e" gradientUnits="userSpaceOnUse" x1="292.587" y1="211.162" x2="280.212" y2="194.737" spreadMethod="pad"><stop offset="0%" stop-color="#2DB455"/><stop offset="100%" stop-color="#DBEBC3"/></linearGradient><linearGradient id="f" gradientUnits="userSpaceOnUse" x1="322.113" y1="211.013" x2="334.787" y2="194.787" spreadMethod="pad"><stop offset="0%" stop-color="#2DB455"/><stop offset="100%" stop-color="#DBEBC3"/></linearGradient><linearGradient id="g" gradientUnits="userSpaceOnUse" x1="283.087" y1="229.025" x2="263.712" y2="213.875" spreadMethod="pad"><stop offset="0%" stop-color="#1FAA53"/><stop offset="100%" stop-color="#BBDA8D"/></linearGradient><linearGradient id="h" gradientUnits="userSpaceOnUse" x1="331.125" y1="229.35" x2="350.775" y2="214.55" spreadMethod="pad"><stop offset="0%" stop-color="#1FAA53"/><stop offset="100%" stop-color="#BBDA8D"/></linearGradient><linearGradient id="i" gradientUnits="userSpaceOnUse" x1="307.3" y1="222.512" x2="307.3" y2="199.387" spreadMethod="pad"><stop offset="0%" stop-color="#1FAA53"/><stop offset="100%" stop-color="#DBEBC3"/></linearGradient><linearGradient id="j" gradientUnits="userSpaceOnUse" x1="272.875" y1="242.7" x2="254.425" y2="228.3" spreadMethod="pad"><stop offset="0%" stop-color="#1FAA53"/><stop offset="100%" stop-color="#BBDA8D"/></linearGradient><linearGradient id="k" gradientUnits="userSpaceOnUse" x1="341.038" y1="242.587" x2="359.962" y2="228.313" spreadMethod="pad"><stop offset="0%" stop-color="#1FAA53"/><stop offset="100%" stop-color="#BBDA8D"/></linearGradient><linearGradient id="l" gradientUnits="userSpaceOnUse" x1="296.15" y1="241.075" x2="290.45" y2="219.825" spreadMethod="pad"><stop offset="0%" stop-color="#1FAA53"/><stop offset="100%" stop-color="#BBDA8D"/></linearGradient><linearGradient id="m" gradientUnits="userSpaceOnUse" x1="318.575" y1="240.8" x2="324.625" y2="219.7" spreadMethod="pad"><stop offset="0%" stop-color="#1FAA53"/><stop offset="100%" stop-color="#BBDA8D"/></linearGradient><linearGradient id="n" gradientUnits="userSpaceOnUse" x1="286.438" y1="262.988" x2="280.263" y2="239.912" spreadMethod="pad"><stop offset="0%" stop-color="#00964D"/><stop offset="100%" stop-color="#BBDA8D"/></linearGradient><linearGradient id="o" gradientUnits="userSpaceOnUse" x1="328.213" y1="262.962" x2="334.387" y2="239.938" spreadMethod="pad"><stop offset="0%" stop-color="#00964D"/><stop offset="100%" stop-color="#BBDA8D"/></linearGradient><linearGradient id="p" gradientUnits="userSpaceOnUse" x1="307.35" y1="258.5" x2="307.35" y2="234.7" spreadMethod="pad"><stop offset="0%" stop-color="#009D4F"/><stop offset="100%" stop-color="#BBDA8D"/></linearGradient><linearGradient id="q" gradientUnits="userSpaceOnUse" x1="262.175" y1="265" x2="240.325" y2="252.4" spreadMethod="pad"><stop offset="0%" stop-color="#00964D"/><stop offset="100%" stop-color="#BBDA8D"/></linearGradient><linearGradient id="r" gradientUnits="userSpaceOnUse" x1="351.925" y1="265.3" x2="373.775" y2="252.7" spreadMethod="pad"><stop offset="0%" stop-color="#00964D"/><stop offset="100%" stop-color="#BBDA8D"/></linearGradient><linearGradient id="s" gradientUnits="userSpaceOnUse" x1="298.1" y1="269.075" x2="292.4" y2="247.825" spreadMethod="pad"><stop offset="0%" stop-color="#00964D"/><stop offset="100%" stop-color="#BBDA8D"/></linearGradient><linearGradient id="t" gradientUnits="userSpaceOnUse" x1="316.313" y1="269.75" x2="321.987" y2="248.55" spreadMethod="pad"><stop offset="0%" stop-color="#00964D"/><stop offset="100%" stop-color="#BBDA8D"/></linearGradient><linearGradient id="u" gradientUnits="userSpaceOnUse" x1="279.45" y1="272.375" x2="267.95" y2="252.425" spreadMethod="pad"><stop offset="0%" stop-color="#00964D"/><stop offset="100%" stop-color="#BBDA8D"/></linearGradient><linearGradient id="v" gradientUnits="userSpaceOnUse" x1="335.412" y1="272.038" x2="346.887" y2="252.163" spreadMethod="pad"><stop offset="0%" stop-color="#00964D"/><stop offset="100%" stop-color="#BBDA8D"/></linearGradient><linearGradient id="w" gradientUnits="userSpaceOnUse" x1="261.075" y1="282.975" x2="236.225" y2="276.325" spreadMethod="pad"><stop offset="0%" stop-color="#00964D"/><stop offset="100%" stop-color="#BBDA8D"/></linearGradient><linearGradient id="x" gradientUnits="userSpaceOnUse" x1="353.825" y1="282.875" x2="378.675" y2="276.225" spreadMethod="pad"><stop offset="0%" stop-color="#00964D"/><stop offset="100%" stop-color="#BBDA8D"/></linearGradient><linearGradient id="y" gradientUnits="userSpaceOnUse" x1="287.45" y1="294.413" x2="275.75" y2="273.288" spreadMethod="pad"><stop offset="0%" stop-color="#00964D"/><stop offset="100%" stop-color="#81C56D"/></linearGradient><linearGradient id="z" gradientUnits="userSpaceOnUse" x1="326.738" y1="295.225" x2="338.762" y2="274.375" spreadMethod="pad"><stop offset="0%" stop-color="#00964D"/><stop offset="100%" stop-color="#81C56D"/></linearGradient><linearGradient id="A" gradientUnits="userSpaceOnUse" x1="307.35" y1="290.5" x2="307.35" y2="267.5" spreadMethod="pad"><stop offset="0%" stop-color="#00964D"/><stop offset="100%" stop-color="#81C56D"/></linearGradient><linearGradient id="B" gradientUnits="userSpaceOnUse" x1="277.35" y1="309.638" x2="260.75" y2="323.063" spreadMethod="pad"><stop offset="0%" stop-color="#00964D"/><stop offset="100%" stop-color="#BBDA8D"/></linearGradient><linearGradient id="C" gradientUnits="userSpaceOnUse" x1="337.45" y1="309.788" x2="354.05" y2="323.212" spreadMethod="pad"><stop offset="0%" stop-color="#00964D"/><stop offset="100%" stop-color="#BBDA8D"/></linearGradient><linearGradient id="D" gradientUnits="userSpaceOnUse" x1="294.75" y1="317.5" x2="294.75" y2="302.3" spreadMethod="pad"><stop offset="0%" stop-color="#3EA154"/><stop offset="100%" stop-color="#00964D"/></linearGradient><linearGradient id="E" gradientUnits="userSpaceOnUse" x1="319.85" y1="317.5" x2="319.85" y2="302.3" spreadMethod="pad"><stop offset="0%" stop-color="#3EA154"/><stop offset="100%" stop-color="#00964D"/></linearGradient><linearGradient id="F" gradientUnits="userSpaceOnUse" x1="307.3" y1="318.525" x2="307.3" y2="302.775" spreadMethod="pad"><stop offset="0%" stop-color="#3EA154"/><stop offset="100%" stop-color="#00964D"/></linearGradient><linearGradient id="G" gradientUnits="userSpaceOnUse" x1="297.7" y1="306.5" x2="297.7" y2="287.2" spreadMethod="pad"><stop offset="0%" stop-color="#009D4F"/><stop offset="100%" stop-color="#81C56D"/></linearGradient><linearGradient id="H" gradientUnits="userSpaceOnUse" x1="316.9" y1="306.5" x2="316.9" y2="287.2" spreadMethod="pad"><stop offset="0%" stop-color="#009D4F"/><stop offset="100%" stop-color="#81C56D"/></linearGradient><radialGradient id="I" gradientUnits="userSpaceOnUse" cx="0" cy="0" r="18.6" fx="0" fy="0" gradientTransform="matrix(1 0 0 -1 305.5 293.5)" spreadMethod="pad"><stop offset="0%" stop-color="#F1F7E8"/><stop offset="65.098%" stop-color="#C6E09E"/><stop offset="100%" stop-color="#FFF"/></radialGradient><radialGradient id="J" gradientUnits="userSpaceOnUse" cx="0" cy="0" r="18.6" fx="0" fy="0" gradientTransform="matrix(1 0 0 -1 305.5 224.5)" spreadMethod="pad"><stop offset="0%" stop-color="#F1F7E8"/><stop offset="65.098%" stop-color="#C6E09E"/><stop offset="100%" stop-color="#FFF"/></radialGradient><radialGradient id="K" gradientUnits="userSpaceOnUse" cx="0" cy="0" r="18.6" fx="0" fy="0" gradientTransform="matrix(1 0 0 -1 285.45 254.55)" spreadMethod="pad"><stop offset="0%" stop-color="#F1F7E8"/><stop offset="65.098%" stop-color="#C6E09E"/><stop offset="100%" stop-color="#FFF"/></radialGradient><radialGradient id="L" gradientUnits="userSpaceOnUse" cx="0" cy="0" r="18.6" fx="0" fy="0" gradientTransform="matrix(1 0 0 -1 325.5 254.55)" spreadMethod="pad"><stop offset="0%" stop-color="#F1F7E8"/><stop offset="65.098%" stop-color="#C6E09E"/><stop offset="100%" stop-color="#FFF"/></radialGradient><radialGradient id="M" gradientUnits="userSpaceOnUse" cx="0" cy="0" r="18.6" fx="0" fy="0" gradientTransform="matrix(1 0 0 -1 269.5 282.5)" spreadMethod="pad"><stop offset="0%" stop-color="#F1F7E8"/><stop offset="65.098%" stop-color="#C6E09E"/><stop offset="100%" stop-color="#FFF"/></radialGradient><radialGradient id="N" gradientUnits="userSpaceOnUse" cx="0" cy="0" r="18.6" fx="0" fy="0" gradientTransform="matrix(1 0 0 -1 341.5 282.5)" spreadMethod="pad"><stop offset="0%" stop-color="#F1F7E8"/><stop offset="65.098%" stop-color="#C6E09E"/><stop offset="100%" stop-color="#FFF"/></radialGradient><path fill="#FFF" fill-opacity="0" d="M284 0H0v320h284V0z" id="O"/><path fill="url(#a)" d="M314.65 307.55q-1-.9-2.35-.9h-10.05q-1.35 0-2.3.9-.95.95-.95 2.25v27.7q0 1.3.95 2.25t2.3.95h10.05q1.35 0 2.35-.95.95-.95.95-2.25v-27.7q0-1.3-.95-2.25z" id="P"/><path fill="#00964D" d="M337.45 308.1q12.5-2.65 12.5-6.35 0-3.75-12.5-6.35-12.5-2.65-30.2-2.65-17.6 0-30.05 2.65-12.55 2.6-12.55 6.35 0 3.7 12.55 6.35 12.5 2.65 30.05 2.65 17.65 0 30.2-2.65z" id="Q"/><path fill="#00964D" d="M347.5 257.75l-3.75-8.35-23.75-5-47.45 2.95-2.7 5.2L276.6 298l63.65 12.3 7.25-52.55z" id="R"/><path fill="url(#b)" d="M243.75 293.5l5.2 1.9-6.85-.7q-2.3 1.9-2.3 4.1 0 2.1 2.3 4l6.85-.7-5.2 1.85q.7.5 2.05 1.15l10.8-3-7.5 4.3q1.7.6 2.65.8L264 302l-7.85 6.15q1.95.35 4.05.85 2.3.3 9 .3 9.6 0 13.5-1.55 5.65-2.25 5.65-8.95 0-6.75-5.65-9.05-3.9-1.55-13.5-1.55-6.7 0-9 .3-2.1.5-4.05.85l7.85 6.1-12.25-5.15q-.95.2-2.65.8l7.5 4.3-10.8-3.05q-1.6.85-2.05 1.15z" id="S"/><path fill="url(#c)" d="M362.9 290.3l-12.2 5.15 7.85-6.1q-2.65-.65-4.15-.85-2.3-.3-8.95-.3-9.6 0-13.45 1.55-5.65 2.3-5.65 9.05 0 6.7 5.65 8.95 3.85 1.55 13.45 1.55 6.65 0 8.95-.3 1.5-.2 4.15-.85L350.7 302l12.2 5.2q.8-.15 2.7-.8l-7.5-4.3 10.8 3q1.2-.6 2-1.15l-5.15-1.85 6.75.7q2.3-1.85 2.3-4 0-2.25-2.3-4.1l-6.75.7 5.15-1.9-2-1.15-10.8 3.05 7.5-4.3q-1.9-.65-2.7-.8z" id="T"/><path fill="url(#d)" d="M299.55 187.05q-.9 4.4-.9 9 0 10.15 1.3 14.25 1.85 5.9 7.3 5.9 5.55 0 7.45-5.9 1.3-4.15 1.3-14.25 0-4.35-.95-9l-5.05 5.4 4.25-8.45-.65-1.8-3.55 5.1 2.45-7.3q-.5-1-.9-1.45l-1.6 3.6.65-4.7q-1.55-1.55-3.4-1.55-1.75 0-3.3 1.55l.6 4.7-1.6-3.6q-.35.5-.85 1.45l2.45 7.3-3.55-5.1-.65 1.8 4.25 8.45-5.05-5.4z" id="U"/><path fill="url(#e)" d="M282.5 193.6q-2.55-.4-3.95.65-1.5 1.05-1.75 3.3l3.85 3.6-3.85-2.1q0 .75.25 1.75l7.25 4.8-6.6-2.2.75 1.85 9.5 4.6-8.05-1.55q.7 1.35 1.4 2.8.85 1.35 4.15 5.3 4.6 5.6 7.6 7.1 4.3 2.2 8.9-1.05 4.7-3.25 3.55-7.65-.8-3-5.45-8.55-3.2-3.9-4.5-5.1-1.35-1-2.55-2l-.5 7.55-2.3-9.6-1.8-1.2.6 6.45-3.1-7.7-1.75-.65 1.15 3.9-2.8-4.3z" id="V"/><path fill="url(#f)" d="M336.05 194.25q-1.4-1.05-3.95-.65l-2.75 4.3 1.15-3.9q-.65.2-1.7.65l-3.15 7.7.6-6.45-1.85 1.2-2.3 9.6-.45-7.55q-1.75 1.25-2.55 2-1.25 1.15-4.55 5.1-4.65 5.55-5.45 8.55-1.15 4.4 3.5 7.65 4.7 3.25 9 1.05 3.05-1.5 7.65-7.1 3.25-3.9 4.1-5.3.6-.95 1.4-2.8l-8.05 1.55 9.5-4.6.75-1.85-6.65 2.2 7.35-4.8.2-1.75-3.85 2.1 3.8-3.6q-.25-2.25-1.75-3.3z" id="W"/><path fill="url(#g)" d="M298.75 229.45q-1.9-3.25-9-8.2-4.9-3.5-6.8-4.5-1.9-.75-3.55-1.55l1.95 8.7-5.85-10.2q-1.65-.6-2.45-.9l2.8 7.15-6.1-7.85-2.15-.3 2.65 4.2-4.6-4.1q-3 .15-4.25 1.8-1.35 1.45-.85 4.2l5.55 3.05-5.15-1.35q.4 1.05.9 1.9l9.85 3.4-8.3-.7 1.55 2 12.3 2.6-9.75.45q1.3 1.3 2.55 2.7 1.55 1.4 6.45 4.9 7.2 5.05 11.05 5.95 5.6 1.3 9.8-3.7 4.15-5 1.4-9.65z" id="X"/><path fill="url(#h)" d="M353.25 213.7q-1.35-1.65-4.2-1.8l-4.65 4.1 2.7-4.2-2.25.3-6.1 7.85 2.85-7.15q-2.35.85-2.5.9l-5.75 10.2 1.9-8.7q-2.35.9-3.55 1.55-1.9.95-6.85 4.5-7.05 5-8.95 8.2-2.75 4.65 1.45 9.65t9.8 3.7q3.85-.9 10.95-5.95 5-3.5 6.5-4.9.95-.9 2.5-2.7l-9.65-.45 12.3-2.6 1.45-2-8.2.7 9.85-3.4.8-1.9-5.05 1.35 5.55-3.05q.45-2.7-.9-4.2z" id="Y"/><path fill="url(#i)" d="M316 208.15q-.5-1.55-.8-2.25l-4.5 6.4 3.1-9.3q-.55-1.05-1.15-1.7l-1.95 4.45.75-5.85q-2-2-4.2-2-2.05 0-4.15 2l.8 5.85-1.95-4.45q-.6.65-1.15 1.7l3.1 9.3-4.5-6.4q-.6 1.75-.75 2.25l5.3 10.5-6.25-6.75q-.35 1.7-.85 3.5-.3 1.95-.3 7.7 0 9.5 1.6 14.5 2.5 7.75 9.1 7.75 6.7 0 9.2-7.75 1.6-4.95 1.6-14.5 0-5.8-.25-7.7-.45-1.8-.8-3.5l-6.35 6.75 5.35-10.5z" id="Z"/><path fill="url(#j)" d="M294.75 243.5q-.95-1-8.35-2.9-7.8-2-9.1-2.95-4.75-3.35-6.45-4.25-1.75-.7-3.4-1.45l1.85 8.2-5.45-9.7q-.7-.25-2.35-.7l2.7 6.7-5.8-7.45q-.7-.15-2.1-.25l2.5 3.95-4.3-3.95q-2.8.15-4.1 1.7-1.3 1.45-.8 4.05l5.25 2.85-4.8-1.2.75 1.7 9.4 3.35-7.85-.75q.25.4 1.4 1.9l11.7 2.45-9.25.4q1.2 1.25 2.45 2.6 1.45 1.35 6.15 4.7 6.8 4.75 10.4 5.6 5.3 1.2 9.25-3.55.7-.8 7.65-5.9 4.4-3.25 2.65-5.15z" id="aa"/><path fill="url(#k)" d="M337.3 237.65q-1.65 1.15-11.8 3.85-9.35 2.5-10.25 4-.85 1.45 5.75 4.25 7.85 3.3 9.15 4.8 4 4.75 9.35 3.55 3.6-.85 10.4-5.6 4.75-3.35 6.15-4.7.9-.85 2.35-2.6l-9.15-.4 11.65-2.45q.9-1.15 1.35-1.9l-7.75.75 9.35-3.35q.3-.55.75-1.7l-4.75 1.2 5.25-2.85q.4-2.6-.9-4.05-1.3-1.55-4-1.7l-4.35 3.95 2.55-3.95q-1.35.1-2.1.25l-5.85 7.45 2.7-6.7q-1.65.45-2.3.7l-5.55 9.7 1.85-8.2q-2.2.85-3.35 1.45-1.8.9-6.5 4.25z" id="ab"/><path fill="url(#l)" d="M289.5 218.05q-2.15.6-3.35 2.75l2.25 5.2-2.95-3.6q-.5 1.4-.6 1.8l5.3 7.75-5.8-4.8-.1 2.2 7.7 8.45-7.6-4.75q.15 1.65.2 3.4.25 1.8 1.75 7.1 2.85 9.5 5.85 13.6 4.2 5.75 9.95 4.35 6.1-1.5 6.35-9.2.1-4.9-2.4-13.55-1.55-5.25-2.4-7.05-.9-1.55-1.65-3.05l-3.95 7.65 2-10.8q-.65-1.05-1.35-1.9l-2.25 6.85.3-9.15-1.45-1.35-.65 4.55-.85-5.55q-2.35-1.4-4.3-.9z" id="ac"/><path fill="url(#m)" d="M328.5 220.8q-1.25-2.15-3.3-2.75-1.95-.5-4.3.9l-.95 5.55-.6-4.55-1.5 1.35.35 9.15-2.35-6.85-1.3 1.9 2 10.8-3.95-7.65q-.8 1.5-1.7 3.05-.8 1.7-2.35 7.05-2.6 8.55-2.45 13.55.2 7.7 6.35 9.2 6.15 1.5 10.5-5.05 2.8-4.1 5.4-12.9 1.55-5.3 1.8-7.1.05-1.75.15-3.4l-7.55 4.75 7.65-8.45q0-1.5-.1-2.2l-5.8 4.8 5.3-7.75-.55-1.8-3.05 3.6 2.3-5.2z" id="ad"/><path fill="url(#n)" d="M290.8 246.1l-1.55-2.1-2.5 7.5.35-9.95q-.95-1.05-1.65-1.5l-.65 4.85-.95-5.95q-2.5-1.45-4.75-.95-2.15.55-3.5 2.95l2.45 5.65-3.25-3.9q-.15.3-.65 2l5.75 8.45-6.25-5.35q-.15 1.2-.15 2.45l8.35 9.15-8.3-5.2q.15 1.8.25 3.75.25 2 1.95 7.7 2.7 9.4 5.75 14.05 4.75 7.05 11.45 5.45 6.6-1.6 6.85-9.9.15-5.3-2.55-14.85-1.7-5.7-2.6-7.55-1-1.7-1.85-3.3l-4.25 8.2 2.25-11.65z" id="ae"/><path fill="url(#o)" d="M335.5 238q-2.2-.55-4.75.95l-.95 5.95-.65-4.85q-1.05.85-1.6 1.5l.4 9.95-2.6-7.5-1.45 2.1 2.25 11.7-4.35-8.25q-.85 1.6-1.85 3.3-.85 1.85-2.55 7.55-2.75 9.6-2.6 14.85.2 8.3 6.85 9.9 6.7 1.6 11.45-5.45 3.05-4.55 5.85-14.05 1.65-5.7 1.95-7.7.05-1.95.15-3.75l-8.2 5.2 8.35-9.15q0-.05-.15-2.45l-6.3 5.35 5.8-8.45-.65-2-3.25 3.9 2.45-5.65q-1.55-2.45-3.6-2.95z" id="af"/><path fill="url(#p)" d="M299.2 241.05l-.85 2.35 5.45 10.8-6.4-6.95q-.35 1.75-.85 3.65-.3 2-.3 7.9 0 9.85 1.6 14.9 2.55 8 9.4 8 6.9 0 9.5-8 1.7-5.1 1.7-14.9 0-5.9-.3-7.9-.5-1.9-.9-3.65l-6.55 6.95 5.5-10.8q-.15-.65-.8-2.35l-4.6 6.6 3.15-9.5q-.7-1.3-1.15-1.8l-2 4.6.8-6.05q-2-2-4.35-2-2.2 0-4.3 2l.8 6.05-2.05-4.6-1.15 1.8 3.2 9.5-4.55-6.6z" id="ag"/><path fill="url(#q)" d="M278.5 263.65q-2.4-3-10.4-7.3-5.55-2.95-7.65-3.7-2-.5-3.85-1.1l3.3 8.55-7.5-9.7-2.6-.5 3.95 6.9-7.4-7.25h-2.3l3.3 3.95-5.25-3.7q-2.9.65-4.1 2.4-1.15 1.75-.2 4.45l6.05 2.4-5.35-.75q.05.15 1.15 1.9l10.6 2.2-8.55.3q.55.65 1.8 1.9l12.95 1-9.8 1.7q1.45 1.15 3 2.5 1.7 1.25 7.35 4.2 8 4.2 12.05 4.6 5.95.6 9.5-5 3.5-5.6-.05-9.95z" id="ah"/><path fill="url(#r)" d="M362.2 250.4l-7.5 9.7 3.4-8.55q-2.5.65-3.85 1.1-2.15.75-7.75 3.7-8 4.3-10.4 7.3-3.45 4.35.05 9.95t9.4 5q4.1-.4 12.1-4.6 5.6-2.95 7.4-4.2 1.1-.8 3-2.5l-9.9-1.7 13-1q1.45-1.45 1.8-1.9l-8.5-.3 10.55-2.2 1.15-1.9-5.4.75 6.15-2.4q.85-2.65-.2-4.45-1.2-1.7-4.15-2.4l-5.3 3.7 3.4-3.95h-2.35l-7.4 7.25 3.95-6.9-2.65.5z" id="ai"/><path fill="url(#s)" d="M308.15 267.25q-1.55-5.25-2.3-6.95-.95-1.55-1.75-3.05l-3.95 7.6 2-10.8-1.3-1.9-2.35 6.9.35-9.25-1.45-1.3-.55 4.5-.95-5.5q-2.35-1.35-4.35-.85-1.95.45-3.3 2.75l2.3 5.15-3-3.65q-.35.85-.6 1.85l5.35 7.8-5.85-4.9-.05 2.3 7.6 8.35-7.55-4.75q.15 1.65.2 3.45.25 1.85 1.75 7.15 2.65 8.75 5.4 12.85 4.4 6.55 10.45 5.05 6.15-1.5 6.35-9.2.15-4.95-2.45-13.6z" id="aj"/><path fill="url(#t)" d="M326.2 272.15q1.6-5.25 1.85-7.15.05-1.8.15-3.45l-7.6 4.75 7.7-8.35q0-.2-.15-2.3l-5.75 4.9 5.3-7.8-.55-1.85-3.05 3.65 2.3-5.15q-1.35-2.35-3.3-2.75-1.95-.5-4.4.85l-.85 5.5-.6-4.5-1.5 1.3.3 9.25-2.3-6.9q-1.1 1.5-1.35 1.9l2.05 10.8-3.95-7.6q-1.2 1.95-1.75 3.05-.75 1.7-2.35 6.95-2.5 8.8-2.4 13.6.2 7.7 6.35 9.2 6.15 1.5 10.55-5.05 2.8-4.2 5.3-12.85z" id="ak"/><path fill="url(#u)" d="M278.85 256.3q-1.3-1.1-1.9-1.5l-.3 7.1-2.3-8.85-1.8-1 .65 4.55-2.35-5.1q-2.55-.8-4.5.2-1.7.8-2.45 3.4l3.7 4.45-3.9-2.8q-.05 1 0 1.95l7.3 6.25-6.95-3.4q.1.75.5 2.25l9.8 6.35-8.7-2.85q.6 1.55 1.15 3.3.75 1.7 3.75 6.45 5 7.85 8.85 11.15 6.1 5.25 11.6 2.35 5.4-2.85 3.5-10.35-1.3-4.8-6.15-12.6-3-4.65-4.3-6.15-1.35-1.3-2.5-2.55l-1.7 8.25-1-10.85z" id="al"/><path fill="url(#v)" d="M347.85 270.6q.55-1.75 1.1-3.3l-8.65 2.85 9.8-6.35.5-2.25-6.95 3.4 7.3-6.25v-1.95l-3.95 2.8 3.7-4.45q-.65-2.65-2.4-3.4-1.9-1-4.45-.2l-2.45 5.1.7-4.55q-1.65.9-1.8 1l-2.3 8.85-.3-7.1q-.3.2-1.85 1.5l-1.1 10.85-1.65-8.25q-1.7 1.6-2.55 2.55-1.25 1.5-4.2 6.15-4.95 7.9-6.2 12.6-1.95 7.5 3.55 10.35 5.5 2.9 11.6-2.35 3.85-3.3 8.85-11.15 2.95-4.7 3.7-6.45z" id="am"/><path fill="url(#w)" d="M247.2 271.15q-1.4 0-2.7.15l5.8 5.65-9.25-5.25q-2.1.55-2.2.6l4.35 2.95L237 273q-2.6 1.35-3.25 3.3-.55 2.05 1 4.35l6.65.85-5.4.6 1.55 1.5 10.9-.35-8.15 2.3 2.25 1.35 12.9-2-9.1 3.85q1.8.8 3.65 1.75 2 .8 8.3 2.3 8.95 2.2 12.95 1.65 5.85-.85 7.7-7.1 1.85-6.2-2.8-9.6-3.15-2.35-12.1-4.6-6.25-1.5-8.45-1.75-2.1-.05-4.05-.2l5.6 7.55-9.95-7.6z" id="an"/><path fill="url(#x)" d="M357.45 278.75l5.7-7.55q-2.65.05-4.1.2-2.25.25-8.45 1.75-8.95 2.25-12.1 4.6-4.65 3.4-2.8 9.6 1.8 6.25 7.7 7.1 4.05.55 12.95-1.65 6.3-1.5 8.3-2.3 1.35-.5 3.6-1.75l-9-3.85 12.8 2q1.95-1.1 2.3-1.35l-8.2-2.3 10.9.35q.65-.5 1.65-1.5l-5.4-.6 6.55-.85q1.7-2.4 1-4.35-.5-1.95-3.25-3.3l-6.1 2.25 4.3-2.95q-.15-.05-2.2-.6l-9.25 5.25 5.75-5.65q-1.25-.15-2.65-.15l-10 7.6z" id="ao"/><path fill="url(#y)" d="M282.45 274.65q-.45-.25-1.9-1l.7 4.7-2.5-5.35q-2.9-.8-4.65.2-2 1-2.6 3.6l3.85 4.7-4.1-2.95-.05 2 7.7 6.55-7.25-3.5q.05.85.5 2.35l10.3 6.55-9.15-2.85q.6 1.65 1.2 3.4.8 1.75 3.95 6.75 5.15 8.15 9.25 11.75 6.4 5.55 12.1 2.5 5.75-3.05 3.7-10.85-1.3-4.9-6.45-13.2-3.15-5.05-4.4-6.55-1.4-1.35-2.65-2.65l-1.8 8.7-1.1-11.45q-.65-.6-1.95-1.6l-.35 7.55-2.35-9.35z" id="ap"/><path fill="url(#z)" d="M340.6 273.2q-1.85-1-4.7-.2l-2.5 5.35.7-4.7-1.9 1-2.4 9.35-.3-7.55q-1.3 1-1.95 1.6l-1.15 11.45-1.7-8.7q-1.85 1.65-2.7 2.65-1.25 1.45-4.45 6.55-5.15 8.3-6.45 13.2-2.1 7.8 3.65 10.85 5.8 3.05 12.2-2.5 4-3.5 9.25-11.75 3.15-4.95 3.95-6.75.55-1.75 1.15-3.4l-9.05 2.85 10.3-6.55.5-2.35-7.25 3.5 7.6-6.55q.15-1.05 0-2l-4.1 2.95 3.8-4.7q-.65-2.65-2.5-3.6z" id="aq"/><path fill="url(#A)" d="M311.45 267.7q-1.95-1.95-4.2-1.95-2.2 0-4.15 1.95l.8 5.75-1.95-4.4q-.45.5-1.15 1.7l3.1 9.25-4.4-6.4-.85 2.3 5.3 10.4-6.2-6.75q-.35 1.7-.85 3.55-.3 1.95-.3 7.6 0 9.5 1.6 14.45 2.45 7.75 9.05 7.75 6.7 0 9.2-7.75 1.6-4.95 1.6-14.45 0-5.7-.3-7.6-.45-1.85-.85-3.55l-6.25 6.75 5.25-10.4q-.25-1.05-.8-2.3l-4.4 6.4 3.05-9.25q-.7-1.2-1.1-1.7l-1.95 4.4.75-5.75z" id="ar"/><path fill="url(#B)" d="M290.9 308.75q2.25-4.1-1.55-8.3-3.85-4.15-8.65-2.9-3.25.9-9.3 5.5-4.1 3.15-5.4 4.45-.8.8-2.1 2.45l8.45.05-10.6 2.6-1.15 1.8 7.05-.95-8.4 3.35-.6 1.65 4.35-1.3-4.7 2.8q-.3 2.3.85 3.6 1.2 1.3 3.75 1.45l3.85-3.7-2.1 3.6q.25 0 1.85-.25l5-7-2.2 6.25q.6-.15 2.1-.8l4.7-9-1.4 7.6q2-.85 3-1.45 1.55-.9 5.75-4.1 5.95-4.6 7.45-7.4z" id="as"/><path fill="url(#C)" d="M356.35 319.95l-4.65-2.8 4.3 1.3q-.2-.85-.65-1.65l-8.4-3.35 7.1.95q-.95-1.5-1.2-1.8l-10.5-2.6 8.35-.05q-1.25-1.65-2.1-2.45-1.25-1.25-5.4-4.45-5.95-4.6-9.25-5.5-4.8-1.25-8.6 2.9-3.85 4.2-1.65 8.3 1.5 2.8 7.45 7.4 4.2 3.2 5.75 4.1 1.05.6 3.05 1.45l-1.35-7.6 4.6 9q1.3.55 2.15.8l-2.25-6.25 5.05 7q1.65.25 1.9.25l-2.15-3.6 3.8 3.7q2.65-.15 3.75-1.45 1.3-1.3.9-3.6z" id="at"/><path fill="url(#D)" d="M303.9 312.4q2.65-6.75 2.4-9.8-.35-4.55-5.95-6.4-5.55-1.85-8.95 1.45-2.4 2.25-5 8.9-1.9 4.7-2.3 6.35-.25 1.1-.45 3.1l7.35-3.75-7.8 7.05-.05 2.1 5.7-4.05-5.5 6.7.35 1.75 3.05-3.1-2.5 4.5q.85 2.05 2.7 2.75 1.9.55 4.05-.5l1.3-4.95.15 4.15 1.5-1.05.5-8.35 1.5 6.4 1.4-1.65-.95-9.95 2.85 7.2q1.3-1.7 1.9-2.7.85-1.45 2.75-6.15z" id="au"/><path fill="url(#E)" d="M331.05 316q-.25-2-.5-3.1-.4-1.65-2.25-6.35-2.65-6.65-5.05-8.9-3.45-3.3-9.05-1.45-5.6 1.85-5.9 6.4-.25 3.05 2.4 9.8 1.85 4.65 2.75 6.15.55 1 1.8 2.7l2.95-7.2-.95 9.95q.55.55 1.45 1.65l1.55-6.4.5 8.35 1.4 1.05.25-4.15 1.2 4.95q2.2 1.05 4.05.5 1.85-.7 2.8-2.75l-2.5-4.5 3 3.1q.3-1.2.35-1.75l-5.45-6.7 5.6 4.05-.05-2.1-7.7-7.05 7.35 3.75z" id="av"/><path fill="url(#F)" d="M316.65 309.45q0-7.1-1.4-9.95-2.05-4.2-8-4.2-5.9 0-7.9 4.2-1.35 2.85-1.35 9.95 0 5.1.2 6.65.15 1.1.7 3.05l5.5-5.85-4.6 9.1q.35 1.3.7 1.95l3.8-5.55-2.65 8q.4.7 1 1.5l1.65-3.8-.65 5q1.85 1.75 3.6 1.75 1.85 0 3.7-1.75l-.75-5 1.75 3.8 1-1.5-2.65-8 3.8 5.55.75-1.95-4.65-9.1 5.5 5.85q.5-1.95.7-3.05.25-1.75.25-6.65z" id="aw"/><path fill="url(#G)" d="M291.55 285.8q-2.05.6-3.3 2.75l2.3 5.2-3-3.6q-.35.7-.6 1.8l5.35 7.75-5.85-4.9-.05 2.35 7.6 8.4-7.55-4.75q.15 1.5.15 3.1.15 1.65 1.3 5.6H309l-.85-3.1q-1.55-5.25-2.3-6.95-.95-1.55-1.75-3.05l-3.95 7.65 2-10.8-1.3-1.95-2.35 6.9.35-9.15q-1.1-1.1-1.45-1.35l-.55 4.55-.95-5.55q-2.35-1.4-4.35-.9z" id="ax"/><path fill="url(#H)" d="M327.7 291.95l-.55-1.8-3.05 3.6 2.3-5.2q-1.25-2.15-3.3-2.75-1.95-.5-4.4.9l-.85 5.55-.6-4.55q-.5.35-1.5 1.35l.3 9.15-2.3-6.9-1.35 1.95 2.05 10.8-3.95-7.65q-.8 1.5-1.75 3.05-.75 1.7-2.35 6.95l-.85 3.1h21.15q1.15-4.05 1.35-5.6.05-1.6.15-3.1l-7.6 4.75 7.7-8.4q-.1-1.55-.15-2.35l-5.75 4.9 5.3-7.75z" id="ay"/><path fill="url(#I)" d="M299.35 288q-3.3 3.2-3.3 7.75t3.3 7.75q3.25 3.25 7.9 3.25 4.7 0 8-3.25 3.3-3.2 3.3-7.75t-3.3-7.75q-3.3-3.25-8-3.25-4.65 0-7.9 3.25z" id="az"/><path fill="#FFF" d="M317.8 291.75q-4.2 2.05-10.55 2.05-6.3 0-10.4-2.05-.4.9-.6 2 3.95 2.35 11 2.35t11.1-2.35q-.05-.8-.55-2z" id="aA"/><path fill="#FFF" d="M307.25 284.75q-3.2 0-5.85 1.6-2.65 1.6-4 4.3 4.05 1.95 9.85 1.95 5.95 0 10-1.95-1.4-2.7-4.05-4.3-2.7-1.6-5.95-1.6z" id="aB"/><path fill="url(#J)" d="M299.35 233.9q3.25 3.25 7.9 3.25 4.7 0 8-3.25 3.3-3.2 3.3-7.75t-3.3-7.8q-3.3-3.25-8-3.25-4.65 0-7.9 3.25-3.3 3.25-3.3 7.8t3.3 7.75z" id="aC"/><path fill="#FFF" d="M317.8 222.1q-4.45 2.1-10.55 2.1-6 0-10.4-2.1-.4 1-.6 2 4.05 2.4 11 2.4t11.1-2.4q-.05-.7-.55-2z" id="aD"/><path fill="#FFF" d="M307.25 215.1q-3.2 0-5.85 1.65-2.65 1.6-4 4.25 4.05 1.95 9.85 1.95 5.95 0 10-1.95-1.4-2.65-4.05-4.25-2.75-1.65-5.95-1.65z" id="aE"/><path fill="url(#K)" d="M276.25 256.95q0 4.55 3.3 7.75 3.25 3.25 7.9 3.25 4.7 0 8-3.25 3.25-3.2 3.25-7.75t-3.25-7.75q-3.3-3.25-8-3.25-4.65 0-7.9 3.25-3.3 3.2-3.3 7.75z" id="aF"/><path fill="#FFF" d="M276.95 252.9q-.5 1.6-.55 2.05 4.2 2.35 11.05 2.35 6.9 0 11.1-2.35-.15-.75-.55-2.05-4.1 2.1-10.55 2.1-6.3 0-10.5-2.1z" id="aG"/><path fill="#FFF" d="M281.6 247.6q-2.65 1.6-4.05 4.25 4 1.95 9.9 1.95 6.05 0 10.05-1.95-1.45-2.65-4.1-4.25-2.75-1.65-5.95-1.65-3.15 0-5.85 1.65z" id="aH"/><path fill="url(#L)" d="M338.45 256.95q0-4.55-3.3-7.75-3.3-3.25-8-3.25-4.65 0-7.95 3.25-3.35 3.2-3.35 7.75t3.35 7.75q3.3 3.25 7.95 3.25 4.7 0 8-3.25 3.3-3.2 3.3-7.75z" id="aI"/><path fill="#FFF" d="M337.65 252.9q-4.05 2.1-10.5 2.1-6.4 0-10.5-2.1-.4 1.05-.6 2.05 4.2 2.35 11.1 2.35 6.8 0 11.1-2.35-.15-1.05-.6-2.05z" id="aJ"/><path fill="#FFF" d="M327.15 253.8q6 0 10-1.95-1.45-2.65-4.1-4.25-2.75-1.65-5.9-1.65-3.2 0-5.9 1.65-2.65 1.6-4.05 4.25 4 1.95 9.95 1.95z" id="aK"/><path fill="url(#M)" d="M263.6 292.2q3.35 3.25 8.05 3.25 4.65 0 7.95-3.25 3.35-3.2 3.35-7.75t-3.35-7.75q-3.3-3.25-7.95-3.25-4.7 0-8.05 3.25-3.3 3.2-3.3 7.75t3.3 7.75z" id="aL"/><path fill="#FFF" d="M282.15 280.4q-4.2 2.1-10.5 2.1-6.45 0-10.55-2.1-.5 1.3-.55 2.05 4.05 2.35 11.1 2.35 7 0 11.05-2.35-.15-.75-.55-2.05z" id="aM"/><path fill="#FFF" d="M271.65 273.45q-3.2 0-5.95 1.6-2.65 1.6-4.1 4.3 4.15 1.95 10.05 1.95 5.75 0 9.9-1.95-1.4-2.7-4.05-4.3-2.65-1.6-5.85-1.6z" id="aN"/><path fill="url(#N)" d="M335.1 292.2q3.3 3.25 7.95 3.25t8-3.25q3.3-3.2 3.3-7.75t-3.3-7.75q-3.35-3.25-8-3.25t-7.95 3.25q-3.35 3.2-3.35 7.75t3.35 7.75z" id="aO"/><path fill="#FFF" d="M353.55 280.4q-4.05 2.1-10.5 2.1t-10.5-2.1q-.35.75-.6 2.05 4.15 2.35 11.1 2.35 6.95 0 11.1-2.35-.2-1-.6-2.05z" id="aP"/><path fill="#FFF" d="M343.05 273.45q-3.2 0-5.9 1.6-2.6 1.6-4.1 4.3 4.25 1.95 10 1.95t10-1.95q-1.5-2.7-4.1-4.3-2.7-1.6-5.9-1.6z" id="aQ"/></defs><use xlink:href="#O"/><use xlink:href="#P" transform="translate(-389.884 -276.112) scale(1.73088)"/><use xlink:href="#Q" transform="translate(-389.884 -276.112) scale(1.73088)"/><use xlink:href="#R" transform="translate(-389.884 -276.112) scale(1.73088)"/><use xlink:href="#S" transform="translate(-389.884 -276.112) scale(1.73088)"/><use xlink:href="#T" transform="translate(-389.884 -276.112) scale(1.73088)"/><use xlink:href="#U" transform="translate(-389.884 -276.112) scale(1.73088)"/><use xlink:href="#V" transform="translate(-389.884 -276.112) scale(1.73088)"/><use xlink:href="#W" transform="translate(-389.884 -276.112) scale(1.73088)"/><use xlink:href="#X" transform="translate(-389.884 -276.112) scale(1.73088)"/><use xlink:href="#Y" transform="translate(-389.884 -276.112) scale(1.73088)"/><use xlink:href="#Z" transform="translate(-389.884 -276.112) scale(1.73088)"/><use xlink:href="#aa" transform="translate(-389.884 -276.112) scale(1.73088)"/><use xlink:href="#ab" transform="translate(-389.884 -276.112) scale(1.73088)"/><use xlink:href="#ac" transform="translate(-389.884 -276.112) scale(1.73088)"/><use xlink:href="#ad" transform="translate(-389.884 -276.112) scale(1.73088)"/><use xlink:href="#ae" transform="translate(-389.884 -276.112) scale(1.73088)"/><use xlink:href="#af" transform="translate(-389.884 -276.112) scale(1.73088)"/><use xlink:href="#ag" transform="translate(-389.884 -276.112) scale(1.73088)"/><use xlink:href="#ah" transform="translate(-389.884 -276.112) scale(1.73088)"/><use xlink:href="#ai" transform="translate(-389.884 -276.112) scale(1.73088)"/><use xlink:href="#aj" transform="translate(-389.884 -276.112) scale(1.73088)"/><use xlink:href="#ak" transform="translate(-389.884 -276.112) scale(1.73088)"/><use xlink:href="#al" transform="translate(-389.884 -276.112) scale(1.73088)"/><use xlink:href="#am" transform="translate(-389.884 -276.112) scale(1.73088)"/><use xlink:href="#an" transform="translate(-389.884 -276.112) scale(1.73088)"/><use xlink:href="#ao" transform="translate(-389.884 -276.112) scale(1.73088)"/><use xlink:href="#ap" transform="translate(-389.884 -276.112) scale(1.73088)"/><use xlink:href="#aq" transform="translate(-389.884 -276.112) scale(1.73088)"/><use xlink:href="#ar" transform="translate(-389.884 -276.112) scale(1.73088)"/><use xlink:href="#as" transform="translate(-389.884 -276.112) scale(1.73088)"/><use xlink:href="#at" transform="translate(-389.884 -276.112) scale(1.73088)"/><use xlink:href="#au" transform="translate(-389.884 -276.112) scale(1.73088)"/><use xlink:href="#av" transform="translate(-389.884 -276.112) scale(1.73088)"/><use xlink:href="#aw" transform="translate(-389.884 -276.112) scale(1.73088)"/><use xlink:href="#ax" transform="translate(-389.884 -276.112) scale(1.73088)"/><use xlink:href="#ay" transform="translate(-389.884 -276.112) scale(1.73088)"/><use xlink:href="#az" transform="translate(-389.884 -276.112) scale(1.73088)"/><use xlink:href="#aA" transform="translate(-389.884 -276.112) scale(1.73088)"/><use xlink:href="#aB" transform="translate(-389.884 -276.112) scale(1.73088)"/><use xlink:href="#aC" transform="translate(-389.884 -276.112) scale(1.73088)"/><use xlink:href="#aD" transform="translate(-389.884 -276.112) scale(1.73088)"/><use xlink:href="#aE" transform="translate(-389.884 -276.112) scale(1.73088)"/><use xlink:href="#aF" transform="translate(-389.884 -276.112) scale(1.73088)"/><use xlink:href="#aG" transform="translate(-389.884 -276.112) scale(1.73088)"/><use xlink:href="#aH" transform="translate(-389.884 -276.112) scale(1.73088)"/><use xlink:href="#aI" transform="translate(-389.884 -276.112) scale(1.73088)"/><use xlink:href="#aJ" transform="translate(-389.884 -276.112) scale(1.73088)"/><use xlink:href="#aK" transform="translate(-389.884 -276.112) scale(1.73088)"/><use xlink:href="#aL" transform="translate(-389.884 -276.112) scale(1.73088)"/><use xlink:href="#aM" transform="translate(-389.884 -276.112) scale(1.73088)"/><use xlink:href="#aN" transform="translate(-389.884 -276.112) scale(1.73088)"/><use xlink:href="#aO" transform="translate(-389.884 -276.112) scale(1.73088)"/><use xlink:href="#aP" transform="translate(-389.884 -276.112) scale(1.73088)"/><use xlink:href="#aQ" transform="translate(-389.884 -276.112) scale(1.73088)"/></svg>