<svg xmlns="http://www.w3.org/2000/svg" xmlns:xlink="http://www.w3.org/1999/xlink" preserveAspectRatio="none" width="284" height="320"><defs><linearGradient id="a" gradientUnits="userSpaceOnUse" x1="175.488" y1="615.55" x2="82.113" y2="615.55" spreadMethod="pad"><stop offset="0%" stop-color="#D99630"/><stop offset="100%" stop-color="#FFCC2A"/></linearGradient><linearGradient id="b" gradientUnits="userSpaceOnUse" x1="173.45" y1="585.4" x2="84.75" y2="585.4" spreadMethod="pad"><stop offset="0%" stop-color="#D99630"/><stop offset="100%" stop-color="#FFCC2A"/></linearGradient><linearGradient id="c" gradientUnits="userSpaceOnUse" x1="73.6" y1="608.012" x2="86.7" y2="575.587" spreadMethod="pad"><stop offset="0%" stop-color="#FFE697"/><stop offset="100%" stop-color="#FFF"/></linearGradient><linearGradient id="d" gradientUnits="userSpaceOnUse" x1="197.9" y1="613.975" x2="190.1" y2="577.225" spreadMethod="pad"><stop offset="0%" stop-color="#F1B82D"/><stop offset="100%" stop-color="#FFF"/></linearGradient><linearGradient id="e" gradientUnits="userSpaceOnUse" x1="182.025" y1="624.962" x2="173.475" y2="584.738" spreadMethod="pad"><stop offset="0%" stop-color="#F1B82D"/><stop offset="100%" stop-color="#FFF"/></linearGradient><linearGradient id="f" gradientUnits="userSpaceOnUse" x1="158.663" y1="631.3" x2="155.938" y2="592.5" spreadMethod="pad"><stop offset="0%" stop-color="#FFCC2A"/><stop offset="100%" stop-color="#FFF"/></linearGradient><linearGradient id="g" gradientUnits="userSpaceOnUse" x1="130.712" y1="634.913" x2="135.188" y2="598.488" spreadMethod="pad"><stop offset="0%" stop-color="#FFDB6F"/><stop offset="100%" stop-color="#FFF"/></linearGradient><linearGradient id="h" gradientUnits="userSpaceOnUse" x1="103.888" y1="627.875" x2="114.612" y2="592.825" spreadMethod="pad"><stop offset="0%" stop-color="#FFDB6F"/><stop offset="100%" stop-color="#FFF"/></linearGradient><linearGradient id="i" gradientUnits="userSpaceOnUse" x1="90.475" y1="569.55" x2="186.325" y2="569.55" spreadMethod="pad"><stop offset="0%" stop-color="#B86A2F"/><stop offset="100%" stop-color="#7F3127"/></linearGradient><linearGradient id="j" gradientUnits="userSpaceOnUse" x1="147.463" y1="578.15" x2="80.438" y2="529.45" spreadMethod="pad"><stop offset="0%" stop-color="#AD5D2E"/><stop offset="100%" stop-color="#FFF"/></linearGradient><linearGradient id="k" gradientUnits="userSpaceOnUse" x1="85.963" y1="618.25" x2="98.338" y2="586.05" spreadMethod="pad"><stop offset="0%" stop-color="#FFE697"/><stop offset="100%" stop-color="#FFF"/></linearGradient><linearGradient id="l" gradientUnits="userSpaceOnUse" x1="156.85" y1="535.75" x2="138.15" y2="550.35" spreadMethod="pad"><stop offset="0%" stop-color="#0EA251"/><stop offset="100%" stop-color="#008C4A"/></linearGradient><linearGradient id="m" gradientUnits="userSpaceOnUse" x1="118.813" y1="537.063" x2="130.188" y2="545.338" spreadMethod="pad"><stop offset="0%" stop-color="#A6D282"/><stop offset="100%" stop-color="#69BE62"/></linearGradient><linearGradient id="n" gradientUnits="userSpaceOnUse" x1="124.1" y1="547.625" x2="107.6" y2="542.275" spreadMethod="pad"><stop offset="0%" stop-color="#17A652"/><stop offset="100%" stop-color="#A6D282"/></linearGradient><linearGradient id="o" gradientUnits="userSpaceOnUse" x1="128.45" y1="544.525" x2="133.85" y2="553.875" spreadMethod="pad"><stop offset="0%" stop-color="#F2705F"/><stop offset="43.137%" stop-color="#EE333F"/><stop offset="100%" stop-color="#C22F38"/></linearGradient><linearGradient id="p" gradientUnits="userSpaceOnUse" x1="128.725" y1="545.388" x2="130.675" y2="548.612" spreadMethod="pad"><stop offset="0%" stop-color="#FABEAC"/><stop offset="100%" stop-color="#F47E69"/></linearGradient><linearGradient id="q" gradientUnits="userSpaceOnUse" x1="138.8" y1="544.325" x2="144.2" y2="553.675" spreadMethod="pad"><stop offset="0%" stop-color="#F2705F"/><stop offset="43.137%" stop-color="#EE333F"/><stop offset="100%" stop-color="#C22F38"/></linearGradient><linearGradient id="r" gradientUnits="userSpaceOnUse" x1="130.838" y1="510.462" x2="136.662" y2="535.637" spreadMethod="pad"><stop offset="0%" stop-color="#93CB78"/><stop offset="100%" stop-color="#1FAA53"/></linearGradient><linearGradient id="s" gradientUnits="userSpaceOnUse" x1="121.112" y1="522.063" x2="136.088" y2="541.237" spreadMethod="pad"><stop offset="0%" stop-color="#51B95B"/><stop offset="100%" stop-color="#008E4B"/></linearGradient><linearGradient id="t" gradientUnits="userSpaceOnUse" x1="132.825" y1="536.363" x2="138.875" y2="546.837" spreadMethod="pad"><stop offset="0%" stop-color="#F2705F"/><stop offset="43.137%" stop-color="#EE333F"/><stop offset="100%" stop-color="#C22F38"/></linearGradient><linearGradient id="u" gradientUnits="userSpaceOnUse" x1="133.012" y1="537.188" x2="135.188" y2="540.813" spreadMethod="pad"><stop offset="0%" stop-color="#FFF"/><stop offset="100%" stop-color="#F6937D"/></linearGradient><linearGradient id="v" gradientUnits="userSpaceOnUse" x1="114.675" y1="600.212" x2="96.625" y2="587.587" spreadMethod="pad"><stop offset="0%" stop-color="#AD5D2E"/><stop offset="100%" stop-color="#FFF"/></linearGradient><linearGradient id="w" gradientUnits="userSpaceOnUse" x1="94.65" y1="568.538" x2="80.15" y2="562.663" spreadMethod="pad"><stop offset="0%" stop-color="#BD7338"/><stop offset="100%" stop-color="#FFF"/></linearGradient><linearGradient id="x" gradientUnits="userSpaceOnUse" x1="169.275" y1="539.55" x2="204.425" y2="605.65" spreadMethod="pad"><stop offset="0%" stop-color="#90352A"/><stop offset="100%" stop-color="#FFF"/></linearGradient><linearGradient id="y" gradientUnits="userSpaceOnUse" x1="139.45" y1="569.012" x2="109.25" y2="570.587" spreadMethod="pad"><stop offset="0%" stop-color="#AD5D2E"/><stop offset="100%" stop-color="#FFF"/></linearGradient><linearGradient id="z" gradientUnits="userSpaceOnUse" x1="159.275" y1="592.512" x2="167.425" y2="562.087" spreadMethod="pad"><stop offset="0%" stop-color="#9D462C"/><stop offset="100%" stop-color="#FFF"/></linearGradient><path fill="#FFF" fill-opacity="0" d="M284 0H0v320h284V0z" id="A"/><path fill="url(#a)" d="M135.6 578.65q-29.4 0-50.3 10.55-20.9 10.5-20.9 25.35 0 15.05 20.9 26.4 21.25 11.5 50.3 11.5 29.05 0 50.3-11.5 20.85-11.35 20.85-26.4 0-14.85-20.85-25.35-20.9-10.55-50.3-10.55z" id="B"/><path fill="url(#b)" d="M195.95 579.65l-4.7-9.95q-7.45-15.9-21.1-23.95-13.95-8.2-35.1-8.65-44 .95-56.25 32.6l-10.95 28.4q14.35 13.9 31.2 23.1 18.4 10.1 36 12.45 29.25-3.85 45.9-10.1 26.65-9.95 21.25-25.45l-6.25-18.45z" id="C"/><path fill="#FFDB6F" d="M86.95 582.3q.4-9.95-3.35-11.4-3.75-1.4-7.6 6.4-3.45 6.95-6.95 17.45-3 9-4.2 14.7 1.1 6.75 6.75 9.8 5.4 2.9 10.8.7 3.85-23.35 4.55-37.65z" id="D"/><path fill="url(#c)" d="M74.8 592.65q3.9-12.4 5.9-18.95-1.85 3.65-4.45 9.8-3.6 8.2-5.55 14.1-.9 2.65-2.55 7-1.2 3.5-1.05 5.5.3 4.9 10.15 7.15-3.75-1.95-5.1-3.85-1.5-2.25-1.05-5.95.65-4.75 3.7-14.8z" id="E"/><path fill="#FFD040" d="M96.25 580.9q-4.4-1.3-8.45 6.65-3.55 7.1-7.05 17.75-2.9 9-4.1 14.9 1.65 6.7 8.5 9.55 6.4 2.65 12.6.25 3.1-24.75 3-37.8-.05-9.95-4.5-11.3z" id="F"/><path fill="#FFCC2A" d="M121.7 638.5q.8-6.75.85-16.2.05-12.2-1.4-21.2-1.6-10.15-6.7-11.65-5.05-1.55-9.6 6.7-3.85 7.15-7.35 18.95-2.25 7.6-3.95 15.75 3.35 6.35 11.95 8.35 7.95 1.85 16.2-.7z" id="G"/><path fill="#E5A62F" d="M194.95 577.3q-3.85-7.8-7.6-6.4-3.85 1.45-3.35 11.4.7 14.3 4.55 37.65 5.4 2.2 10.8-.7 5.65-3.05 6.75-9.8-1.35-6-4.2-14.7-3.55-10.6-6.95-17.45z" id="H"/><path fill="url(#d)" d="M188.4 575.25q-.15 3.95 0 10.65.15 8.8.85 14.85.3 2.7.75 7.7.5 4 1.6 5.65 2.75 4.25 12.65-2.7-5.3 1.65-7.5 1.2-2.45-.55-3.65-4-1.4-4.05-2.5-14.3-1.75-16.1-2.2-19.05z" id="I"/><path fill="#E5A62F" d="M183.15 587.55q-4.05-7.95-8.45-6.65-4.5 1.35-4.6 11.3-.05 12.65 3.1 37.8 6.2 2.4 12.6-.25 6.85-2.85 8.5-9.55-1.15-5.9-4.1-14.9-3.45-10.65-7.05-17.75z" id="J"/><path fill="url(#e)" d="M177.4 619.75q-1.4-4.3-2.5-14.75-1.75-16.25-2.2-19.35-.15 3.85 0 10.6.15 8.8.85 15 .3 2.75.75 7.85.5 4.1 1.6 5.9 2.75 4.75 12.65-.5-5.3.75-7.5-.1-2.45-1-3.65-4.65z" id="K"/><path fill="#ECB02E" d="M149.8 601.1q-1.45 9.1-1.55 21.05-.05 9.7.7 16.05 7.95 3.2 16.05 1.4 8.75-1.9 12.3-8.75-1.5-7.7-3.85-15.75-3.5-11.8-7.45-18.95-4.45-8.25-9.5-6.7-5.1 1.5-6.7 11.65z" id="L"/><path fill="url(#f)" d="M156.3 629.6q-1.05-4.7-1.4-15.65-.3-13.4-.55-20.25-.6 4.2-1.15 10.55-.8 8.85-.75 15 0 3.45-.3 9.65.05 4.85 1.95 6.75 2.5 2.5 11.35 1.15-4.75-1.1-6.25-2.15-2.15-1.45-2.9-5.05z" id="M"/><path fill="#F4BD2D" d="M136.2 592.6h-.5q-2.9 0-4.85 2.3-1.9 2.2-3.6 7.3-2.8 8.45-4.65 20.45-1.45 9.45-1.75 16.25 6.15 5.55 14.95 5.7 9.15.15 15.25-5.7-.25-6.65-1.75-16.25-1.9-12-4.7-20.45-1.65-5.1-3.55-7.3-1.95-2.3-4.85-2.3z" id="N"/><path fill="url(#g)" d="M131.6 597.85q-1.3 4.4-2.7 10.25-2.1 8.7-2.95 14.75-.4 2.75-1.25 7.35-.5 3.65 0 5.6 1.3 4.95 11.7 6.35-4.15-1.65-5.85-3.5-1.95-2.1-2.2-5.85-.3-4.85.9-15.3 1.6-12.8 2.35-19.65z" id="O"/><path fill="url(#h)" d="M101.2 627.7q.4-4.75 3-15.1 3.4-12.75 5.05-19.5-5.95 14.2-8.9 24.7-.75 2.75-2.25 7.3-1 3.65-.8 5.6.6 4.9 10.45 6.25-3.8-1.6-5.2-3.4-1.6-2.1-1.35-5.85z" id="P"/><path fill="url(#i)" d="M191.8 564.95q-6.5-10.7-14.5-16.9-7.35-5.7-18.2-9.2-18.4-6.05-37.65-2.9-20.25 3.25-33.85 15.6-2.55 2.4-4.15 4.95-2 3.3-1.95 6.25 0 2.95 1.8 4.9 2.15 2.35 6.3 2.05 1.95-.15 6.15-1 5.1-.8 6.25 1.05 1.15 1.9-.85 7.65-.65 1.8-2.1 5.75-1.25 3.5-1.8 6-1.1 4.95.85 8.95 1.8 3.7 5.35 5.25 3.6 1.6 7.05.25 3.85-1.45 5.95-5.95.6-1.3 1.65-4.9.85-2.95 1.7-4.15 1.6-2.35 4.05-2.55 1.7-.15 4.15.8 2 .8 4 .55 2.65-.35 4.1-2.65 1.4-2.2 2.25-3.1 1.25-1.25 2.6-1.35 2.35-.1 4.6 2.15 5.05 5.2 10.05 3.5 4.7-1.6 5.6-7.5 1.1-7.8 5.8-7.9 5.9-.1 14.85 13.35 3.6 5.4 8.15 5.8 4.15.35 6.05-3.3 1.75-3.4.7-9.05-1.1-5.9-4.95-12.4z" id="Q"/><path fill="url(#j)" d="M113.65 544.3l-.65-3.1q-5.7 1.4-11.15 3.75-7.55 3.3-9.15 6.5-.8 1.6-.1 3 .6 1.2 2.05 1.75 1.95.7 5.55.35 1.85-.15 4.05-.5 2.8 0 3.45 1.2.4.7.4 3.95 0 4.2 5 4.9 3.95.6 9.9-1 3.25-.85 7.35-2 3.3-.75 7.8-.65 3.35 0 4.55-1.75 1.3-1.85-1.4-3.6-2.45-1.6-9 .3-2 .8-3.45 1.35-2.75 1-4.6 1.2-2.4.2-3.55-.85-1.3-1.3-.5-4.05.5-1.5-1.05-2.4-1.15-.7-3.25-.95l-5-.35q-4.35-.15-3.65-3.1.75-3 6.4-3.95z" id="R"/><path fill="url(#k)" d="M93 583.95q-2 4.05-4.5 9.8-3.6 8.3-5.5 14.15-.9 2.65-2.6 7.05-1.2 3.5-1.05 5.45.35 4.9 10.1 7.15-3.7-1.95-5-3.85-1.5-2.25-1.05-5.95.6-4.7 3.7-14.8 3.95-12.4 5.9-19z" id="S"/><path fill="#1FAA53" d="M138.15 532.2q2 3.45 1.85 7.65-.15 4.05-2.3 7.9l3.1.5 5.45-11 9.1-10q1.7-3.9-1.25-6.5.5 2.9-.45 4.65-.95 1.75-2.75 1.4-.4-.05-1.65-1.4-1.35-1.5-3.35-2.2 2.45 3.55 1.65 7.15-.2.95-.7 1.05-.55.1-.85-.65-1.15-1.35-1.8-1.95-1.05-1.05-2.4-1.55.8.95 1.75 5.6.3 1.7-.3 2.45-.65.8-1.85-.5-.8-.85-1.35-1.3-1-.9-1.9-1.3z" id="T"/><path fill="url(#l)" d="M164.5 531.55q-.85-1.4-2.4-2.3-1.6-.9-3.15-.85 2.1-3.8 6.7-5.85-10.7 1.95-19.35 13.85-6.633 9.163-8.15 17.1 1.25-5.513 5.75-7.2 4.6-1.75 10 1.3-1.25-1.55-2.2-2.5-1-.85-1.45-1.3-.8-.75-.2-1.3.7-.65 2.5-.45 3.6.35 5.95 2.2-.6-2.2-2.3-3.55-1.5-1.25-.95-2.2.45-.75 1.95-.95 2.35-.35 5.55 1.3-.85-1.3-1.65-2.1-.8-.8-2.15-1.6-1.5-.8-1.35-1.85.1-.95 1.35-1.65 1.25-.75 3-.75 1.65 0 2.55.65z" id="U"/><path fill="#81C56D" d="M149.15 533q1.3-4-1.05-6.5 1.8 2.8.05 7.45 3.45-1.55 8.4 1.05-1.45-1.2-3.45-1.8-2.25-.7-3.95-.2z" id="V"/><path fill="#81C56D" d="M145.7 534.5q-.2-1.95-1.6-3.45 1.2 1.75 1.15 3.95-.05 1.15-.75 4.2 5.05-1.6 8.85.9-1.55-1.25-3.9-1.75-2.05-.4-4.05-.15.4-2.45.3-3.7z" id="W"/><path fill="#81C56D" d="M142.4 543.2q1.05-4.05-1.4-6.75 1.2 1.75 1.25 3.75.05 1.7-.75 4.15 5.05-1.65 8.35.45-2.8-2.3-7.45-1.6z" id="X"/><path fill="url(#m)" d="M126.35 540.55q-1.75-2.75-1.75-5.95-.8 1.15-1.15 3-.35 1.4-1.1 1.15-.65-.3-1.15-1.6-1.35-3.3-1.05-4.5-.75.9-1.05 2-.2.65-.4 2.1.05.6-.35.75-.45.1-.95-.45-1.9-2.2-1.7-5.5-1.05 1.25-1.4 2.8-.3 1.4-.55 1.6-1.05.9-2.4.1-1.4-.8-2.15-2.9-.9 2.85 1.65 4.9L121 541.2l8.15 5.4L131 545q-2.95-1.75-4.65-4.45z" id="Y"/><path fill="url(#n)" d="M120.65 540.65q-10.55-4.7-18.65-1.75 3.8-.45 6.9 1.3-1.05.6-1.8 1.9-.7 1.25-.8 2.5.4-.8 1.55-1.45 1.2-.7 2.3-.7 1.15 0 1.6.6.55.65-.2 1.85-1 1.9-1.15 3.95 1.75-2.4 3.25-3.05 1.15-.5 1.75-.15.75.45.2 1.9t-.15 3.3q.95-2.15 3.25-3.9 1.15-.8 1.8-.65.65.15.45 1-.8 2.55-1.05 4 2.5-4.2 6.35-4.8 3.875-.63 6.95 2.8-4.24-4.984-12.55-8.65z" id="Z"/><path fill="#BBDA8D" d="M115.55 534.65q-.65 2.55 1.85 4.85-1.3.3-2.55 1.65-1.15 1.25-1.7 2.65.9-1.5 2.1-2.55 1.55-1.35 3.15-1.5-3-2.55-2.85-5.1z" id="aa"/><path fill="#BBDA8D" d="M120.05 536.15q-.35 1.55.3 3 .45.95 1.65 2.4-3.65 1.5-4.65 4.5 1.45-3.1 5.65-4.2-1.65-1.75-2.15-2.55-.9-1.45-.8-3.15z" id="ab"/><path fill="#BBDA8D" d="M124.3 538.6q-.55 2.85 1.75 5.2-3.5 1.25-4.45 4.05 1.35-2.75 5.45-3.6-1.5-1.45-2.1-2.6-.75-1.35-.65-3.05z" id="ac"/><path fill="url(#o)" d="M127.45 553.2q1.6 1.6 3.85 1.6 2.2 0 3.8-1.6 1.6-1.6 1.6-3.8 0-2.25-1.6-3.85t-3.8-1.6q-2.3 0-3.85 1.6-1.6 1.6-1.6 3.85t1.6 3.8z" id="ad"/><path fill="url(#p)" d="M128.85 545.65q-.95.6-1.45 1.35-.45.75-.2 1.25t1.2.4q.9-.1 1.9-.7.95-.55 1.45-1.3.45-.75.2-1.25t-1.2-.4q-.9.1-1.9.65z" id="ae"/><path fill="url(#q)" d="M137.85 553.2q1.6 1.6 3.9 1.6 2.2 0 3.8-1.6 1.6-1.6 1.6-3.8 0-2.25-1.6-3.85t-3.8-1.6q-2.3 0-3.9 1.6t-1.6 3.85q0 2.2 1.6 3.8z" id="af"/><path fill="#F4816D" d="M139.35 545.65q-1 .6-1.5 1.35-.5.75-.2 1.25t1.2.4q.9-.1 1.9-.7 1-.55 1.45-1.3.5-.75.2-1.25-.25-.5-1.15-.4-.9.1-1.9.65z" id="ag"/><path fill="url(#r)" d="M138.3 516.95q-1.5.25-2.85 1-.35.2-2.3 1.5-.5.7-1.05.45-.5-.25-.45-1.25.2-3.8 3.55-6.9-2.2.25-3.95 1.45-1.6 1.05-2.05 1-1.9-.1-2.4-2.1-.5-2.05.75-4.9-3.7 1.95-2.95 6.3l6.55 12.45 2.65 12.6 3.35.3q-1.2-4.45-.3-8.6.95-4.3 3.9-7.25-1.5.3-3.9 1.7-1.6 1-2.05.1-.45-.85.3-2.55 2.05-4.35 3.2-5.3z" id="ah"/><path fill="url(#s)" d="M123.6 529.2q1.9.3 2.4 1.1.5.75-.55 1.25-.6.35-1.85.95-1.2.7-2.8 1.95 6.25-1.65 10.45 1.3 4.125 2.906 3.9 8.75.546-8.467-3.8-19.45-5.65-14.25-15.95-19 4 3.1 5.25 7.65-1.55-.45-3.45.05-1.85.55-3.05 1.7 1.15-.4 2.85.05 1.75.45 2.8 1.5 1.1 1.05.95 2-.15 1.1-1.85 1.6-1.55.45-2.6 1.05-.95.55-2.2 1.65 3.8-.75 5.9.1 1.5.6 1.75 1.45.35 1.1-1.55 2.05-1.85.7-3.3 3 2.95-1.25 6.7-.7z" id="ai"/><path fill="#A6D282" d="M132.15 514.55q-3.05 2.1-2.8 6.35-1.55-.95-4-.85-2.25.1-4.05 1 5.75-1.45 8.85 1.05-.55-5.05 2-7.55z" id="aj"/><path fill="#A6D282" d="M134.95 520.25q-1.75 1.2-2.45 3.1-.5 1.35-.7 3.8-1.95-.75-4.15-.85-2.5-.15-4.4.7 2.25-.75 4.8-.3 2.35.4 4.4 1.75.05-3.2.35-4.5.5-2.2 2.15-3.7z" id="ak"/><path fill="#A6D282" d="M136.75 526.5q-1.75 1.15-2.5 2.85-.65 1.45-.7 3.7-4.45-2-8-.35 3.9-1.25 8.55 1.65-.1-2.65.4-4.35.6-2 2.25-3.5z" id="al"/><path fill="url(#t)" d="M131.55 537.35q-1.75 1.8-1.75 4.3t1.75 4.3q1.8 1.8 4.3 1.8t4.3-1.8q1.8-1.8 1.8-4.3t-1.8-4.3q-1.8-1.75-4.3-1.75t-4.3 1.75z" id="am"/><path fill="url(#u)" d="M133.15 537.55q-1.1.65-1.65 1.5-.55.8-.2 1.35.35.55 1.35.45 1-.1 2.1-.8 1.1-.65 1.65-1.5.55-.85.25-1.4-.35-.55-1.35-.4-1.05.1-2.15.8z" id="an"/><path fill="url(#v)" d="M101.8 582.55q-2.2 6.45-2.4 7.55-.95 4.9 1.25 8.15 1.45 2.25 3.9 3.2 2.4.9 4.95.3 2.45-.55 2.2-2.15-.1-1.55-2.7-1.15-2.25.35-4.2-.65-1.95-1-3-3.05-2.15-3.95 0-12.2z" id="ao"/><path fill="url(#w)" d="M95.25 566.6q-1.7 1.25-4.7.8-3.6-.5-4.9-3.5-1.15-2.8-2.15-2.7-.6.1-.8.85-.25.75 0 1.75.9 4.2 5.75 4.85 4.55.65 6.8-2.05z" id="aq"/><path fill="url(#x)" d="M192.25 586.75q1.35-.75 2-2.35 2.65-6.15-3.55-17.35-5.1-9.25-11-14.4 1.8 1.9 4.9 7.15 3.95 6.7 5.75 12.45 2.85 9.4-1.3 10.5-2 .6-2.15 2.2-.15 1.6 1.95 2.1 1.9.55 3.4-.3z" id="ar"/><path fill="url(#y)" d="M132.8 566.5q-2.8.55-4.65 1.8-1.8 1.25-1.55 2.45.25 1.15 2.4 1.6 2.15.45 5.05-.1 2.8-.6 4.65-1.85 1.8-1.3 1.55-2.5-.2-1.15-2.4-1.6-2.15-.4-5.05.2z" id="as"/><path fill="url(#z)" d="M164.85 572.45q.2 2.05-1.45 5.25-1.6 3.15-3.95 5.35-2.15 2-.8 3.5 1.4 1.45 3.7-.35 2.9-2.35 3.3-7 .35-3.7-.8-6.75z" id="at"/><path fill="#373535" d="M136.35 537.65q.4.25 1 .25.65 0 1.05-.25.45-.2.45-.55 0-.35-.45-.55-.4-.25-1.05-.25-.6 0-1 .25-.45.2-.45.55 0 .35.45.55z" id="au"/><path fill="#373535" d="M142.45 546.1q0 .65 1.15.65.5 0 .85-.2.4-.2.4-.45t-.4-.45q-.35-.2-.85-.2-1.15 0-1.15.65z" id="av"/><path id="ap" stroke="#AD5D2E" stroke-width=".2" stroke-linejoin="miter" stroke-linecap="butt" stroke-miterlimit="4" fill="none" d="M99.4 590.1q-.95 4.9 1.25 8.15 1.45 2.25 3.9 3.2 2.4.9 4.95.3 2.45-.55 2.2-2.15-.1-1.55-2.7-1.15-2.25.35-4.2-.65-1.95-1-3-3.05-2.15-3.95 0-12.2-2.2 6.45-2.4 7.55z"/></defs><use xlink:href="#A"/><use xlink:href="#B" transform="matrix(1.84525 0 0 1.84525 -108.034 -898.786)"/><use xlink:href="#C" transform="matrix(1.84525 0 0 1.84525 -108.034 -898.786)"/><use xlink:href="#D" transform="matrix(1.84525 0 0 1.84525 -108.034 -898.786)"/><use xlink:href="#E" transform="matrix(1.84525 0 0 1.84525 -108.034 -898.786)"/><use xlink:href="#F" transform="matrix(1.84525 0 0 1.84525 -108.034 -898.786)"/><use xlink:href="#G" transform="matrix(1.84525 0 0 1.84525 -108.034 -898.786)"/><use xlink:href="#H" transform="matrix(1.84525 0 0 1.84525 -108.034 -898.786)"/><use xlink:href="#I" transform="matrix(1.84525 0 0 1.84525 -108.034 -898.786)"/><use xlink:href="#J" transform="matrix(1.84525 0 0 1.84525 -108.034 -898.786)"/><use xlink:href="#K" transform="matrix(1.84525 0 0 1.84525 -108.034 -898.786)"/><use xlink:href="#L" transform="matrix(1.84525 0 0 1.84525 -108.034 -898.786)"/><use xlink:href="#M" transform="matrix(1.84525 0 0 1.84525 -108.034 -898.786)"/><use xlink:href="#N" transform="matrix(1.84525 0 0 1.84525 -108.034 -898.786)"/><use xlink:href="#O" transform="matrix(1.84525 0 0 1.84525 -108.034 -898.786)"/><use xlink:href="#P" transform="matrix(1.84525 0 0 1.84525 -108.034 -898.786)"/><use xlink:href="#Q" transform="matrix(1.84525 0 0 1.84525 -108.034 -898.786)"/><use xlink:href="#R" transform="matrix(1.84525 0 0 1.84525 -108.034 -898.786)"/><use xlink:href="#S" transform="matrix(1.84525 0 0 1.84525 -108.034 -898.786)"/><use xlink:href="#T" transform="matrix(1.84525 0 0 1.84525 -108.034 -898.786)"/><use xlink:href="#U" transform="matrix(1.84525 0 0 1.84525 -108.034 -898.786)"/><use xlink:href="#V" transform="matrix(1.84525 0 0 1.84525 -108.034 -898.786)"/><use xlink:href="#W" transform="matrix(1.84525 0 0 1.84525 -108.034 -898.786)"/><use xlink:href="#X" transform="matrix(1.84525 0 0 1.84525 -108.034 -898.786)"/><use xlink:href="#Y" transform="matrix(1.84525 0 0 1.84525 -108.034 -898.786)"/><use xlink:href="#Z" transform="matrix(1.84525 0 0 1.84525 -108.034 -898.786)"/><use xlink:href="#aa" transform="matrix(1.84525 0 0 1.84525 -108.034 -898.786)"/><use xlink:href="#ab" transform="matrix(1.84525 0 0 1.84525 -108.034 -898.786)"/><use xlink:href="#ac" transform="matrix(1.84525 0 0 1.84525 -108.034 -898.786)"/><use xlink:href="#ad" transform="matrix(1.84525 0 0 1.84525 -108.034 -898.786)"/><use xlink:href="#ae" transform="matrix(1.84525 0 0 1.84525 -108.034 -898.786)"/><use xlink:href="#af" transform="matrix(1.84525 0 0 1.84525 -108.034 -898.786)"/><use xlink:href="#ag" transform="matrix(1.84525 0 0 1.84525 -108.034 -898.786)"/><use xlink:href="#ah" transform="matrix(1.84525 0 0 1.84525 -108.034 -898.786)"/><use xlink:href="#ai" transform="matrix(1.84525 0 0 1.84525 -108.034 -898.786)"/><use xlink:href="#aj" transform="matrix(1.84525 0 0 1.84525 -108.034 -898.786)"/><use xlink:href="#ak" transform="matrix(1.84525 0 0 1.84525 -108.034 -898.786)"/><use xlink:href="#al" transform="matrix(1.84525 0 0 1.84525 -108.034 -898.786)"/><use xlink:href="#am" transform="matrix(1.84525 0 0 1.84525 -108.034 -898.786)"/><use xlink:href="#an" transform="matrix(1.84525 0 0 1.84525 -108.034 -898.786)"/><g transform="matrix(1.84525 0 0 1.84525 -108.034 -898.786)"><use xlink:href="#ao"/><use xlink:href="#ap"/></g><use xlink:href="#aq" transform="matrix(1.84525 0 0 1.84525 -108.034 -898.786)"/><use xlink:href="#ar" transform="matrix(1.84525 0 0 1.84525 -108.034 -898.786)"/><use xlink:href="#as" transform="matrix(1.84525 0 0 1.84525 -108.034 -898.786)"/><use xlink:href="#at" transform="matrix(1.84525 0 0 1.84525 -108.034 -898.786)"/><use xlink:href="#au" transform="matrix(1.84525 0 0 1.84525 -108.034 -898.786)"/><use xlink:href="#av" transform="matrix(1.84525 0 0 1.84525 -108.034 -898.786)"/></svg>