<svg xmlns="http://www.w3.org/2000/svg" xmlns:xlink="http://www.w3.org/1999/xlink" preserveAspectRatio="none" width="284" height="320"><defs><linearGradient id="a" gradientUnits="userSpaceOnUse" x1="514.462" y1="454.25" x2="414.738" y2="454.25" spreadMethod="pad"><stop offset="0%" stop-color="#81C56D"/><stop offset="100%" stop-color="#BBDA8D"/></linearGradient><linearGradient id="b" gradientUnits="userSpaceOnUse" x1="506.55" y1="426.487" x2="514.25" y2="439.813" spreadMethod="pad"><stop offset="0%" stop-color="#2DB455"/><stop offset="100%" stop-color="#008C4A"/></linearGradient><linearGradient id="c" gradientUnits="userSpaceOnUse" x1="506.325" y1="426.625" x2="509.175" y2="431.575" spreadMethod="pad"><stop offset="0%" stop-color="#2DB455"/><stop offset="100%" stop-color="#008C4A"/></linearGradient><linearGradient id="d" gradientUnits="userSpaceOnUse" x1="433.95" y1="426.287" x2="441.65" y2="439.613" spreadMethod="pad"><stop offset="0%" stop-color="#2DB455"/><stop offset="100%" stop-color="#008C4A"/></linearGradient><linearGradient id="e" gradientUnits="userSpaceOnUse" x1="433.262" y1="426.725" x2="436.037" y2="430.175" spreadMethod="pad"><stop offset="0%" stop-color="#C6E09E"/><stop offset="100%" stop-color="#51B95B"/></linearGradient><linearGradient id="f" gradientUnits="userSpaceOnUse" x1="461.7" y1="479.225" x2="489.5" y2="454.175" spreadMethod="pad"><stop offset="0%" stop-color="#69BE62"/><stop offset="100%" stop-color="#2DB455"/></linearGradient><linearGradient id="g" gradientUnits="userSpaceOnUse" x1="447.775" y1="456.35" x2="410.525" y2="477.85" spreadMethod="pad"><stop offset="0%" stop-color="#69BE62"/><stop offset="100%" stop-color="#A6D282"/></linearGradient><linearGradient id="h" gradientUnits="userSpaceOnUse" x1="510.488" y1="419.85" x2="436.713" y2="419.85" spreadMethod="pad"><stop offset="0%" stop-color="#69BE62"/><stop offset="14.118%" stop-color="#00964D"/><stop offset="40%" stop-color="#2DB455"/><stop offset="76.863%" stop-color="#D0E5B0"/><stop offset="100%" stop-color="#81C56D"/></linearGradient><linearGradient id="i" gradientUnits="userSpaceOnUse" x1="510.45" y1="422.35" x2="438.25" y2="422.35" spreadMethod="pad"><stop offset="0%" stop-color="#26AD54"/><stop offset="14.118%" stop-color="#008C4A"/><stop offset="40%" stop-color="#0EA251"/><stop offset="54.118%" stop-color="#4FAE5B"/><stop offset="76.863%" stop-color="#93CB78"/><stop offset="100%" stop-color="#51B95B"/></linearGradient><linearGradient id="j" gradientUnits="userSpaceOnUse" x1="510.45" y1="410" x2="438.25" y2="410" spreadMethod="pad"><stop offset="0%" stop-color="#26AD54"/><stop offset="14.118%" stop-color="#008C4A"/><stop offset="40%" stop-color="#0EA251"/><stop offset="54.118%" stop-color="#4FAE5B"/><stop offset="76.863%" stop-color="#93CB78"/><stop offset="100%" stop-color="#51B95B"/></linearGradient><linearGradient id="k" gradientUnits="userSpaceOnUse" x1="510.45" y1="401.4" x2="438.25" y2="401.4" spreadMethod="pad"><stop offset="0%" stop-color="#26AD54"/><stop offset="14.118%" stop-color="#008C4A"/><stop offset="40%" stop-color="#0EA251"/><stop offset="54.118%" stop-color="#4FAE5B"/><stop offset="76.863%" stop-color="#93CB78"/><stop offset="100%" stop-color="#51B95B"/></linearGradient><linearGradient id="l" gradientUnits="userSpaceOnUse" x1="510.45" y1="437.5" x2="438.25" y2="437.5" spreadMethod="pad"><stop offset="0%" stop-color="#26AD54"/><stop offset="14.118%" stop-color="#008C4A"/><stop offset="40%" stop-color="#0EA251"/><stop offset="54.118%" stop-color="#4FAE5B"/><stop offset="76.863%" stop-color="#93CB78"/><stop offset="100%" stop-color="#51B95B"/></linearGradient><linearGradient id="m" gradientUnits="userSpaceOnUse" x1="510.45" y1="396.3" x2="438.25" y2="396.3" spreadMethod="pad"><stop offset="0%" stop-color="#26AD54"/><stop offset="14.118%" stop-color="#008C4A"/><stop offset="40%" stop-color="#0EA251"/><stop offset="54.118%" stop-color="#4FAE5B"/><stop offset="76.863%" stop-color="#93CB78"/><stop offset="100%" stop-color="#51B95B"/></linearGradient><linearGradient id="n" gradientUnits="userSpaceOnUse" x1="510.45" y1="422.95" x2="438.25" y2="422.95" spreadMethod="pad"><stop offset="0%" stop-color="#D99630"/><stop offset="14.118%" stop-color="#CE8730"/><stop offset="40%" stop-color="#F1B82D"/><stop offset="61.176%" stop-color="#FAD77E"/><stop offset="76.863%" stop-color="#FFF2C0"/><stop offset="100%" stop-color="#FFCC2A"/></linearGradient><linearGradient id="o" gradientUnits="userSpaceOnUse" x1="510.45" y1="391.6" x2="438.25" y2="391.6" spreadMethod="pad"><stop offset="0%" stop-color="#D99630"/><stop offset="14.118%" stop-color="#CE8730"/><stop offset="40%" stop-color="#F1B82D"/><stop offset="61.176%" stop-color="#FAD77E"/><stop offset="76.863%" stop-color="#FFF2C0"/><stop offset="100%" stop-color="#FFCC2A"/></linearGradient><linearGradient id="p" gradientUnits="userSpaceOnUse" x1="510.45" y1="438.4" x2="438.25" y2="438.4" spreadMethod="pad"><stop offset="0%" stop-color="#D99630"/><stop offset="14.118%" stop-color="#CE8730"/><stop offset="40%" stop-color="#F1B82D"/><stop offset="61.176%" stop-color="#FAD77E"/><stop offset="76.863%" stop-color="#FFF2C0"/><stop offset="100%" stop-color="#FFCC2A"/></linearGradient><linearGradient id="q" gradientUnits="userSpaceOnUse" x1="510.45" y1="409.05" x2="438.25" y2="409.05" spreadMethod="pad"><stop offset="0%" stop-color="#D99630"/><stop offset="14.118%" stop-color="#CE8730"/><stop offset="40%" stop-color="#F1B82D"/><stop offset="61.176%" stop-color="#FAD77E"/><stop offset="76.863%" stop-color="#FFF2C0"/><stop offset="100%" stop-color="#FFCC2A"/></linearGradient><linearGradient id="r" gradientUnits="userSpaceOnUse" x1="510.45" y1="400.4" x2="438.25" y2="400.4" spreadMethod="pad"><stop offset="0%" stop-color="#D99630"/><stop offset="14.118%" stop-color="#CE8730"/><stop offset="40%" stop-color="#F1B82D"/><stop offset="61.176%" stop-color="#FAD77E"/><stop offset="76.863%" stop-color="#FFF2C0"/><stop offset="100%" stop-color="#FFCC2A"/></linearGradient><linearGradient id="s" gradientUnits="userSpaceOnUse" x1="505.475" y1="381.25" x2="445.125" y2="381.25" spreadMethod="pad"><stop offset="0%" stop-color="#81C56D"/><stop offset="100%" stop-color="#BBDA8D"/></linearGradient><linearGradient id="t" gradientUnits="userSpaceOnUse" x1="441.475" y1="380.4" x2="505.125" y2="380.4" spreadMethod="pad"><stop offset="0%" stop-color="#0EA251"/><stop offset="100%" stop-color="#81C56D"/></linearGradient><linearGradient id="u" gradientUnits="userSpaceOnUse" x1="471.825" y1="378.35" x2="476.375" y2="386.25" spreadMethod="pad"><stop offset="0%" stop-color="#17A652"/><stop offset="100%" stop-color="#007C43"/></linearGradient><linearGradient id="v" gradientUnits="userSpaceOnUse" x1="474.95" y1="371.512" x2="474.95" y2="334.887" spreadMethod="pad"><stop offset="0%" stop-color="#F9A033"/><stop offset="25.882%" stop-color="#FFD758"/><stop offset="100%" stop-color="#F9A33A"/></linearGradient><linearGradient id="w" gradientUnits="userSpaceOnUse" x1="473.35" y1="363.525" x2="473.35" y2="373.875" spreadMethod="pad"><stop offset="0%" stop-color="#C3792F"/><stop offset="100%" stop-color="#A3532C"/></linearGradient><linearGradient id="x" gradientUnits="userSpaceOnUse" x1="432.45" y1="437.537" x2="440.15" y2="450.863" spreadMethod="pad"><stop offset="0%" stop-color="#2DB455"/><stop offset="100%" stop-color="#008C4A"/></linearGradient><linearGradient id="y" gradientUnits="userSpaceOnUse" x1="431.863" y1="438.025" x2="434.637" y2="441.475" spreadMethod="pad"><stop offset="0%" stop-color="#E6F1D5"/><stop offset="100%" stop-color="#81C56D"/></linearGradient><linearGradient id="z" gradientUnits="userSpaceOnUse" x1="442.8" y1="445.337" x2="450.5" y2="458.663" spreadMethod="pad"><stop offset="0%" stop-color="#2DB455"/><stop offset="100%" stop-color="#008C4A"/></linearGradient><linearGradient id="A" gradientUnits="userSpaceOnUse" x1="442.163" y1="445.775" x2="444.938" y2="449.225" spreadMethod="pad"><stop offset="0%" stop-color="#E8F2D9"/><stop offset="100%" stop-color="#8BC97B"/></linearGradient><linearGradient id="B" gradientUnits="userSpaceOnUse" x1="455.85" y1="448.337" x2="463.55" y2="461.663" spreadMethod="pad"><stop offset="0%" stop-color="#2DB455"/><stop offset="100%" stop-color="#008C4A"/></linearGradient><linearGradient id="C" gradientUnits="userSpaceOnUse" x1="455.613" y1="449.425" x2="458.387" y2="452.875" spreadMethod="pad"><stop offset="0%" stop-color="#DBEBC3"/><stop offset="100%" stop-color="#81C275"/></linearGradient><linearGradient id="D" gradientUnits="userSpaceOnUse" x1="508.95" y1="437.287" x2="516.65" y2="450.613" spreadMethod="pad"><stop offset="0%" stop-color="#17A652"/><stop offset="100%" stop-color="#008145"/></linearGradient><linearGradient id="E" gradientUnits="userSpaceOnUse" x1="508.262" y1="437.725" x2="511.037" y2="441.175" spreadMethod="pad"><stop offset="0%" stop-color="#C6E09E"/><stop offset="100%" stop-color="#51B95B"/></linearGradient><linearGradient id="F" gradientUnits="userSpaceOnUse" x1="497.85" y1="445.287" x2="505.55" y2="458.613" spreadMethod="pad"><stop offset="0%" stop-color="#17A652"/><stop offset="100%" stop-color="#007C43"/></linearGradient><linearGradient id="G" gradientUnits="userSpaceOnUse" x1="497.213" y1="445.725" x2="499.988" y2="449.175" spreadMethod="pad"><stop offset="0%" stop-color="#C6E09E"/><stop offset="100%" stop-color="#51B95B"/></linearGradient><linearGradient id="H" gradientUnits="userSpaceOnUse" x1="484.55" y1="448.487" x2="492.25" y2="461.813" spreadMethod="pad"><stop offset="0%" stop-color="#17A652"/><stop offset="100%" stop-color="#008145"/></linearGradient><linearGradient id="I" gradientUnits="userSpaceOnUse" x1="484.413" y1="449.575" x2="487.188" y2="453.025" spreadMethod="pad"><stop offset="0%" stop-color="#CAE2A7"/><stop offset="100%" stop-color="#65BE68"/></linearGradient><linearGradient id="J" gradientUnits="userSpaceOnUse" x1="470.5" y1="449.487" x2="478.2" y2="462.813" spreadMethod="pad"><stop offset="0%" stop-color="#17A652"/><stop offset="100%" stop-color="#008145"/></linearGradient><linearGradient id="K" gradientUnits="userSpaceOnUse" x1="470.363" y1="450.625" x2="473.137" y2="454.075" spreadMethod="pad"><stop offset="0%" stop-color="#CEE4AE"/><stop offset="100%" stop-color="#78C375"/></linearGradient><linearGradient id="L" gradientUnits="userSpaceOnUse" x1="427.1" y1="455.188" x2="431.9" y2="463.513" spreadMethod="pad"><stop offset="0%" stop-color="#F2705F"/><stop offset="43.137%" stop-color="#EE333F"/><stop offset="100%" stop-color="#C22F38"/></linearGradient><linearGradient id="M" gradientUnits="userSpaceOnUse" x1="426.963" y1="455.238" x2="428.637" y2="458.162" spreadMethod="pad"><stop offset="0%" stop-color="#FFF"/><stop offset="100%" stop-color="#F6937D"/></linearGradient><linearGradient id="N" gradientUnits="userSpaceOnUse" x1="440.225" y1="456.65" x2="446.675" y2="467.85" spreadMethod="pad"><stop offset="0%" stop-color="#F2705F"/><stop offset="43.137%" stop-color="#EE333F"/><stop offset="100%" stop-color="#C22F38"/></linearGradient><linearGradient id="O" gradientUnits="userSpaceOnUse" x1="440.438" y1="457.563" x2="442.763" y2="461.438" spreadMethod="pad"><stop offset="0%" stop-color="#FFF"/><stop offset="100%" stop-color="#F6937D"/></linearGradient><linearGradient id="P" gradientUnits="userSpaceOnUse" x1="422.513" y1="434.537" x2="426.688" y2="441.762" spreadMethod="pad"><stop offset="0%" stop-color="#F2705F"/><stop offset="43.137%" stop-color="#EE333F"/><stop offset="100%" stop-color="#C22F38"/></linearGradient><linearGradient id="Q" gradientUnits="userSpaceOnUse" x1="422.2" y1="434.762" x2="423.7" y2="436.637" spreadMethod="pad"><stop offset="0%" stop-color="#FCD4C6"/><stop offset="100%" stop-color="#F6937D"/></linearGradient><linearGradient id="R" gradientUnits="userSpaceOnUse" x1="479.3" y1="458.637" x2="484.1" y2="466.963" spreadMethod="pad"><stop offset="0%" stop-color="#F2705F"/><stop offset="43.137%" stop-color="#EE333F"/><stop offset="100%" stop-color="#C22F38"/></linearGradient><linearGradient id="S" gradientUnits="userSpaceOnUse" x1="478.925" y1="458.975" x2="480.675" y2="461.125" spreadMethod="pad"><stop offset="0%" stop-color="#FCD4C6"/><stop offset="100%" stop-color="#F6937D"/></linearGradient><path fill="#FFF" fill-opacity="0" d="M284 0H0v320h284V0z" id="T"/><path fill="url(#a)" d="M525.6 434.1q-5.8-8.65-17.95-11.75L451 424.8q-12.7-3.05-25.7-.4-13.8 2.8-20.1 10.75 4.9-1.75 8.9-.15 4.264 1.688 8.1 1.4-8.162.957-14.35 4.5-5.2 2.95-10.65 8.95 5.15-1.85 13.5.55 8.6 2.5 14.55.75-1.2 4.85-6.1 7.7-2.7 1.65-8.2 4.5-4.2 3.1-6.6 7.25-2.9 5.05-3.75 12.35 5.5-2.75 17.05-2.5 6.35.15 18.2.85 8.25 0 14.6-2.25 6.752-2.363 9.8-6.95-.344.801-.55 1.65-.25 1.1-.65 3.3-1.05 4.3-6.55 8.95 20.85 1.35 35.55-5.5 10.777-5.052 15.8-13-1.635 2.91-1.95 7.45-.25 4-3.25 6.35 11.85-2.3 20.8-11.3 8.9-8.9 10.15-19.35 1.05-9.1-4-16.55z" id="U"/><path fill="#93CB78" d="M476.4 442.3l-.6-5.8q-25.9-9.3-41.05-9.75-12.45-.35-24.9 5.6 11.8-4.8 26.7-3.35 18.45 1.85 39.85 13.3z" id="V"/><path fill="#FFF" d="M475.25 321.9q-11.9 0-20.35 8.45-8.45 8.4-8.45 20.25 0 11.9 8.45 20.3 8.45 8.45 20.35 8.45 11.9 0 20.3-8.45 8.4-8.4 8.4-20.3 0-11.85-8.4-20.25-8.4-8.45-20.3-8.45z" id="W"/><path fill="#FFFFFD" d="M475.25 322.15q-11.8 0-20.15 8.35-8.4 8.35-8.4 20.1 0 11.75 8.4 20.15 8.35 8.35 20.15 8.35 11.75 0 20.1-8.35 8.35-8.35 8.35-20.15 0-11.75-8.35-20.1-8.3-8.35-20.1-8.35z" id="X"/><path fill="#FFFEFC" d="M475.25 322.4q-11.65 0-20 8.25-8.3 8.3-8.3 19.95 0 11.7 8.3 20 8.35 8.25 20 8.25t19.95-8.25q8.25-8.3 8.25-20 0-11.65-8.25-19.95-8.3-8.25-19.95-8.25z" id="Y"/><path fill="#FFFEFB" d="M475.25 322.65q-11.55 0-19.8 8.2t-8.25 19.75q0 11.6 8.25 19.8 8.25 8.2 19.8 8.2t19.75-8.2q8.2-8.2 8.2-19.8 0-11.55-8.2-19.75t-19.75-8.2z" id="Z"/><path fill="#FFFEF9" d="M475.25 322.9q-11.5 0-19.65 8.15-8.15 8.1-8.15 19.55 0 11.45 8.15 19.6 8.15 8.1 19.65 8.1 11.45 0 19.55-8.1 8.15-8.15 8.15-19.6 0-11.45-8.15-19.55-8.1-8.15-19.55-8.15z" id="aa"/><path fill="#FFFEF8" d="M475.25 323.2q-11.35 0-19.45 8.05-8.05 8.05-8.05 19.35 0 11.35 8.05 19.4 8.1 8.05 19.45 8.05t19.4-8.05q8.05-8.05 8.05-19.4 0-11.3-8.05-19.35t-19.4-8.05z" id="ab"/><path fill="#FFFDF7" d="M475.25 323.45q-11.25 0-19.25 7.95-8 8-8 19.2 0 11.25 8 19.25 8 7.95 19.25 7.95t19.25-7.95q7.95-8 7.95-19.25 0-11.2-7.95-19.2-8-7.95-19.25-7.95z" id="ac"/><path fill="#FFFDF6" d="M475.25 323.7q-11.15 0-19.05 7.9-7.95 7.85-7.95 19t7.95 19.05q7.9 7.9 19.05 7.9t19-7.9q7.9-7.9 7.9-19.05t-7.9-19q-7.85-7.9-19-7.9z" id="ad"/><path fill="#FFFDF5" d="M475.25 323.95q-11.05 0-18.9 7.8-7.85 7.85-7.85 18.85 0 11.05 7.85 18.9 7.85 7.8 18.9 7.8 11.05 0 18.85-7.8 7.8-7.85 7.8-18.9 0-11-7.8-18.85-7.8-7.8-18.85-7.8z" id="ae"/><path fill="#FFFDF5" d="M475.25 324.2q-10.9 0-18.7 7.75-7.8 7.75-7.8 18.65 0 10.95 7.8 18.7 7.75 7.75 18.7 7.75 10.9 0 18.65-7.75 7.75-7.75 7.75-18.7 0-10.9-7.75-18.65-7.75-7.75-18.65-7.75z" id="af"/><path fill="#FFFCF4" d="M475.25 324.45q-10.85 0-18.55 7.7-7.7 7.65-7.7 18.45 0 10.85 7.7 18.5 7.7 7.7 18.55 7.7 10.8 0 18.5-7.7 7.65-7.65 7.65-18.5 0-10.8-7.65-18.45-7.7-7.7-18.5-7.7z" id="ag"/><path fill="#FFFCF3" d="M475.25 324.7q-10.7 0-18.35 7.6-7.6 7.6-7.6 18.3 0 10.7 7.6 18.3 7.6 7.6 18.35 7.6 10.7 0 18.3-7.6 7.6-7.6 7.6-18.3 0-10.7-7.6-18.3-7.6-7.6-18.3-7.6z" id="ah"/><path fill="#FFFCF2" d="M475.25 325q-10.6 0-18.15 7.5-7.55 7.55-7.55 18.1 0 10.6 7.55 18.15 7.55 7.5 18.15 7.5 10.6 0 18.15-7.5 7.5-7.55 7.5-18.15 0-10.6-7.5-18.1-7.55-7.5-18.15-7.5z" id="ai"/><path fill="#FFFCF1" d="M475.25 325.25q-10.5 0-17.95 7.45-7.5 7.45-7.5 17.9 0 10.5 7.5 17.95 7.45 7.45 17.95 7.45t17.95-7.45q7.45-7.45 7.45-17.95 0-10.45-7.45-17.9-7.45-7.45-17.95-7.45z" id="aj"/><path fill="#FFFBF0" d="M475.25 325.5q-10.4 0-17.8 7.35t-7.4 17.75q0 10.4 7.4 17.75 7.4 7.4 17.8 7.4t17.75-7.4q7.35-7.35 7.35-17.75T493 332.85q-7.35-7.35-17.75-7.35z" id="ak"/><path fill="#FFFBF0" d="M475.25 325.75q-10.3 0-17.6 7.3-7.35 7.3-7.35 17.55 0 10.3 7.35 17.6 7.3 7.3 17.6 7.3t17.55-7.3q7.3-7.3 7.3-17.6 0-10.25-7.3-17.55-7.25-7.3-17.55-7.3z" id="al"/><path fill="#FFFBEF" d="M475.25 326q-10.2 0-17.45 7.2-7.25 7.25-7.25 17.4 0 10.2 7.25 17.45 7.25 7.2 17.45 7.2 10.15 0 17.4-7.2 7.2-7.25 7.2-17.45 0-10.15-7.2-17.4-7.25-7.2-17.4-7.2z" id="am"/><path fill="#FFFBEE" d="M475.25 326.25q-10.1 0-17.25 7.15t-7.15 17.2q0 10.1 7.15 17.25t17.25 7.15q10.05 0 17.2-7.15 7.15-7.15 7.15-17.25 0-10.05-7.15-17.2-7.15-7.15-17.2-7.15z" id="an"/><path fill="#FFFBED" d="M475.25 326.5q-9.95 0-17.05 7.1-7.1 7.05-7.1 17t7.1 17.05q7.05 7.05 17.05 7.05t17.05-7.05q7.05-7.05 7.05-17.05 0-9.95-7.05-17-7.1-7.1-17.05-7.1z" id="ao"/><path fill="#FFFAEC" d="M475.25 326.8q-9.85 0-16.9 7-7 7-7 16.8 0 9.85 7 16.85 7.05 7 16.9 7 9.85 0 16.85-7 7-7 7-16.85 0-9.85-7-16.8-7-7-16.85-7z" id="ap"/><path fill="#FFFAEB" d="M475.25 327.05q-9.75 0-16.7 6.9-6.95 6.9-6.95 16.65 0 9.75 6.95 16.7 6.95 6.9 16.7 6.9t16.7-6.9q6.9-6.95 6.9-16.7t-6.9-16.65q-6.95-6.9-16.7-6.9z" id="aq"/><path fill="#FFFAEB" d="M475.25 327.3q-9.65 0-16.5 6.85-6.9 6.8-6.9 16.45 0 9.65 6.9 16.5 6.85 6.85 16.5 6.85t16.45-6.85q6.85-6.85 6.85-16.5t-6.85-16.45q-6.8-6.85-16.45-6.85z" id="ar"/><path fill="#FFFAEA" d="M475.25 327.55q-9.55 0-16.35 6.75-6.8 6.8-6.8 16.3 0 9.55 6.8 16.35 6.8 6.75 16.35 6.75t16.3-6.75q6.75-6.8 6.75-16.35 0-9.5-6.75-16.3-6.75-6.75-16.3-6.75z" id="as"/><path fill="#FFFAE9" d="M475.25 327.8q-9.45 0-16.15 6.7-6.7 6.7-6.7 16.1 0 9.45 6.7 16.15 6.7 6.7 16.15 6.7 9.4 0 16.1-6.7 6.7-6.7 6.7-16.15 0-9.4-6.7-16.1-6.7-6.7-16.1-6.7z" id="at"/><path fill="#FFF9E8" d="M475.25 328.05q-9.35 0-15.95 6.65-6.65 6.6-6.65 15.9 0 9.35 6.65 15.95 6.6 6.65 15.95 6.65t15.95-6.65q6.6-6.6 6.6-15.95 0-9.3-6.6-15.9-6.6-6.65-15.95-6.65z" id="au"/><path fill="#FFF9E7" d="M475.25 328.3q-9.2 0-15.8 6.55-6.55 6.55-6.55 15.75t6.55 15.75q6.55 6.55 15.8 6.55t15.75-6.55q6.55-6.5 6.55-15.75 0-9.2-6.55-15.75-6.55-6.55-15.75-6.55z" id="av"/><path fill="#FFF9E7" d="M475.25 328.6q-9.1 0-15.6 6.45t-6.5 15.55q0 9.1 6.5 15.6 6.5 6.45 15.6 6.45t15.6-6.45q6.45-6.5 6.45-15.6t-6.45-15.55q-6.5-6.45-15.6-6.45z" id="aw"/><path fill="#FFF9E6" d="M475.25 328.85q-9 0-15.4 6.4-6.45 6.35-6.45 15.35t6.45 15.4q6.4 6.4 15.4 6.4t15.4-6.4q6.4-6.35 6.4-15.4 0-9-6.4-15.35-6.4-6.4-15.4-6.4z" id="ax"/><path fill="#FFF9E5" d="M475.25 329.1q-8.9 0-15.25 6.3t-6.35 15.2q0 8.9 6.35 15.25 6.35 6.3 15.25 6.3t15.2-6.3q6.3-6.35 6.3-15.25t-6.3-15.2q-6.3-6.3-15.2-6.3z" id="ay"/><path fill="#FFF8E4" d="M475.25 329.35q-8.8 0-15.1 6.25-6.25 6.25-6.25 15 0 8.8 6.25 15.05 6.3 6.25 15.1 6.25t15-6.25q6.25-6.25 6.25-15.05 0-8.75-6.25-15-6.2-6.25-15-6.25z" id="az"/><path fill="#FFF8E3" d="M475.25 329.6q-8.7 0-14.85 6.15-6.2 6.2-6.2 14.85 0 8.7 6.2 14.9 6.15 6.15 14.85 6.15t14.85-6.15q6.15-6.2 6.15-14.9 0-8.65-6.15-14.85-6.15-6.15-14.85-6.15z" id="aA"/><path fill="#FFF8E3" d="M475.25 329.85q-8.6 0-14.7 6.1t-6.1 14.65q0 8.6 6.1 14.65 6.1 6.1 14.7 6.1t14.65-6.1q6.1-6.05 6.1-14.65 0-8.55-6.1-14.65-6.05-6.1-14.65-6.1z" id="aB"/><path fill="#FFF8E2" d="M475.25 330.15q-8.5 0-14.5 6-6.05 6-6.05 14.45t6.05 14.5q6 6 14.5 6t14.5-6q6-6 6-14.5 0-8.45-6-14.45t-14.5-6z" id="aC"/><path fill="#FFF8E1" d="M475.25 330.4q-8.35 0-14.35 5.9-5.95 5.95-5.95 14.3 0 8.4 5.95 14.35 6 5.9 14.35 5.9t14.3-5.9q5.95-5.95 5.95-14.35 0-8.35-5.95-14.3-5.95-5.9-14.3-5.9z" id="aD"/><path fill="#FFF8E0" d="M475.25 330.65q-8.25 0-14.15 5.85t-5.9 14.1q0 8.3 5.9 14.15t14.15 5.85q8.25 0 14.15-5.85 5.85-5.85 5.85-14.15 0-8.25-5.85-14.1-5.9-5.85-14.15-5.85z" id="aE"/><path fill="#FFF7E0" d="M475.25 330.9q-8.15 0-14 5.8-5.8 5.75-5.8 13.9t5.8 13.95q5.8 5.8 14 5.8 8.15 0 13.9-5.8 5.8-5.8 5.8-13.95 0-8.15-5.8-13.9-5.75-5.8-13.9-5.8z" id="aF"/><path fill="#FFF7DF" d="M475.25 331.15q-8.05 0-13.8 5.7-5.7 5.7-5.7 13.75t5.7 13.8q5.75 5.7 13.8 5.7t13.75-5.7q5.7-5.75 5.7-13.8 0-8-5.7-13.75-5.7-5.7-13.75-5.7z" id="aG"/><path fill="#FFF7DE" d="M475.25 331.4q-7.95 0-13.6 5.65Q456 342.7 456 350.6q0 7.95 5.65 13.6 5.65 5.65 13.6 5.65 7.95 0 13.6-5.65 5.6-5.65 5.6-13.6 0-7.9-5.6-13.55-5.65-5.65-13.6-5.65z" id="aH"/><path fill="#FFF7DD" d="M475.25 331.65q-7.85 0-13.4 5.55-5.6 5.55-5.6 13.4 0 7.85 5.6 13.4 5.55 5.55 13.4 5.55 7.85 0 13.4-5.55 5.55-5.55 5.55-13.4 0-7.85-5.55-13.4-5.55-5.55-13.4-5.55z" id="aI"/><path fill="#FFF7DC" d="M475.25 331.95q-7.75 0-13.25 5.45-5.5 5.5-5.5 13.2 0 7.75 5.5 13.25 5.5 5.45 13.25 5.45t13.2-5.45q5.5-5.5 5.5-13.25 0-7.7-5.5-13.2-5.45-5.45-13.2-5.45z" id="aJ"/><path fill="#FFF6DC" d="M475.25 332.2q-7.6 0-13.05 5.4-5.45 5.4-5.45 13 0 7.65 5.45 13.05t13.05 5.4q7.6 0 13.05-5.4 5.4-5.4 5.4-13.05 0-7.6-5.4-13-5.45-5.4-13.05-5.4z" id="aK"/><path fill="#FFF6DB" d="M475.25 332.45q-7.55 0-12.9 5.35-5.35 5.3-5.35 12.8 0 7.55 5.35 12.85 5.35 5.35 12.9 5.35 7.5 0 12.85-5.35 5.3-5.3 5.3-12.85 0-7.5-5.3-12.8-5.35-5.35-12.85-5.35z" id="aL"/><path fill="#FFF6DA" d="M475.25 332.7q-7.4 0-12.7 5.25-5.25 5.25-5.25 12.65 0 7.45 5.25 12.7 5.3 5.25 12.7 5.25 7.4 0 12.65-5.25 5.25-5.3 5.25-12.7 0-7.4-5.25-12.65t-12.65-5.25z" id="aM"/><path fill="#FFF6D9" d="M475.25 332.95q-7.3 0-12.5 5.2-5.2 5.15-5.2 12.45 0 7.3 5.2 12.5t12.5 5.2q7.3 0 12.5-5.2 5.15-5.2 5.15-12.5t-5.15-12.45q-5.2-5.2-12.5-5.2z" id="aN"/><path fill="#FFF6D9" d="M475.25 333.2q-7.2 0-12.3 5.1-5.15 5.1-5.15 12.3 0 7.2 5.15 12.35 5.1 5.1 12.3 5.1 7.2 0 12.3-5.1 5.1-5.15 5.1-12.35 0-7.2-5.1-12.3-5.1-5.1-12.3-5.1z" id="aO"/><path fill="#FFF6D8" d="M475.25 333.45q-7.1 0-12.15 5.05-5.05 5-5.05 12.1t5.05 12.15q5.05 5 12.15 5 7.1 0 12.1-5 5.05-5.05 5.05-12.15 0-7.1-5.05-12.1-5-5.05-12.1-5.05z" id="aP"/><path fill="#FFF6D7" d="M475.25 333.75q-7 0-11.95 4.95-5 4.95-5 11.9 0 7 5 11.95 4.95 4.95 11.95 4.95 7 0 11.95-4.95 4.95-4.95 4.95-11.95 0-6.95-4.95-11.9t-11.95-4.95z" id="aQ"/><path fill="#FFF5D6" d="M475.25 334q-6.9 0-11.8 4.85-4.9 4.9-4.9 11.75 0 6.9 4.9 11.8 4.9 4.85 11.8 4.85 6.85 0 11.75-4.85 4.9-4.9 4.9-11.8 0-6.85-4.9-11.75-4.9-4.85-11.75-4.85z" id="aR"/><path fill="#FFF5D6" d="M475.25 334.25q-6.8 0-11.6 4.8-4.85 4.8-4.85 11.55 0 6.8 4.85 11.6 4.8 4.8 11.6 4.8 6.75 0 11.55-4.8 4.8-4.8 4.8-11.6 0-6.75-4.8-11.55-4.8-4.8-11.55-4.8z" id="aS"/><path fill="#FFF5D5" d="M475.25 334.5q-6.65 0-11.4 4.75-4.75 4.7-4.75 11.35 0 6.7 4.75 11.4 4.75 4.75 11.4 4.75t11.4-4.75q4.7-4.7 4.7-11.4 0-6.65-4.7-11.35-4.75-4.75-11.4-4.75z" id="aT"/><path fill="#FFF5D4" d="M475.25 334.75q-6.55 0-11.25 4.65-4.65 4.65-4.65 11.2 0 6.55 4.65 11.25 4.7 4.65 11.25 4.65t11.2-4.65q4.65-4.7 4.65-11.25t-4.65-11.2q-4.65-4.65-11.2-4.65z" id="aU"/><path fill="#FFF5D3" d="M475.25 335q-6.45 0-11.05 4.6-4.6 4.55-4.6 11t4.6 11.05q4.6 4.6 11.05 4.6 6.45 0 11.05-4.6 4.55-4.6 4.55-11.05 0-6.45-4.55-11-4.6-4.6-11.05-4.6z" id="aV"/><path fill="#FFF5D3" d="M475.25 335.25q-6.35 0-10.85 4.5-4.55 4.5-4.55 10.85t4.55 10.85q4.5 4.5 10.85 4.5t10.85-4.5q4.5-4.5 4.5-10.85t-4.5-10.85q-4.5-4.5-10.85-4.5z" id="aW"/><path fill="#FFF4D2" d="M475.25 335.55q-6.25 0-10.7 4.4-4.45 4.45-4.45 10.65 0 6.25 4.45 10.7 4.45 4.4 10.7 4.4 6.25 0 10.65-4.4 4.45-4.45 4.45-10.7 0-6.2-4.45-10.65-4.4-4.4-10.65-4.4z" id="aX"/><path fill="#FFF4D1" d="M475.25 335.8q-6.15 0-10.5 4.35-4.4 4.35-4.4 10.45 0 6.15 4.4 10.5 4.35 4.35 10.5 4.35 6.1 0 10.5-4.35 4.35-4.35 4.35-10.5 0-6.1-4.35-10.45-4.4-4.35-10.5-4.35z" id="aY"/><path fill="#FFF4D0" d="M475.25 336.05q-6.05 0-10.3 4.3-4.3 4.25-4.3 10.25 0 6.05 4.3 10.3 4.25 4.3 10.3 4.3 6.05 0 10.3-4.3 4.25-4.25 4.25-10.3 0-6-4.25-10.25-4.25-4.3-10.3-4.3z" id="aZ"/><path fill="#FFF4D0" d="M475.25 336.3q-5.9 0-10.15 4.2-4.2 4.2-4.2 10.1 0 5.95 4.2 10.15 4.25 4.2 10.15 4.2t10.1-4.2q4.2-4.2 4.2-10.15 0-5.9-4.2-10.1-4.2-4.2-10.1-4.2z" id="ba"/><path fill="#FFF4CF" d="M475.25 336.55q-5.8 0-9.95 4.1-4.15 4.15-4.15 9.95 0 5.8 4.15 9.95 4.15 4.15 9.95 4.15 5.8 0 9.95-4.15 4.1-4.15 4.1-9.95 0-5.8-4.1-9.95-4.15-4.1-9.95-4.1z" id="bb"/><path fill="#FFF4CE" d="M475.25 336.8q-5.7 0-9.75 4.05-4.1 4.05-4.1 9.75 0 5.75 4.1 9.8 4.05 4.05 9.75 4.05t9.75-4.05q4.05-4.05 4.05-9.8 0-5.7-4.05-9.75t-9.75-4.05z" id="bc"/><path fill="#FFF3CD" d="M475.25 337.05q-5.6 0-9.6 4-4 3.95-4 9.55 0 5.6 4 9.6 4 3.95 9.6 3.95t9.55-3.95q4-4 4-9.6t-4-9.55q-3.95-4-9.55-4z" id="bd"/><path fill="#FFF3CD" d="M475.25 337.35q-5.5 0-9.45 3.9-3.9 3.9-3.9 9.35 0 5.5 3.9 9.4 3.95 3.9 9.45 3.9 5.5 0 9.4-3.9 3.9-3.9 3.9-9.4 0-5.45-3.9-9.35-3.9-3.9-9.4-3.9z" id="be"/><path fill="#FFF3CC" d="M475.25 337.6q-5.4 0-9.2 3.8-3.85 3.85-3.85 9.2 0 5.4 3.85 9.25 3.8 3.8 9.2 3.8 5.4 0 9.25-3.8 3.8-3.85 3.8-9.25 0-5.35-3.8-9.2-3.85-3.8-9.25-3.8z" id="bf"/><path fill="#FFF3CB" d="M475.25 337.85q-5.3 0-9.05 3.75-3.75 3.75-3.75 9 0 5.3 3.75 9.05 3.75 3.75 9.05 3.75 5.3 0 9-3.75 3.75-3.75 3.75-9.05 0-5.25-3.75-9-3.7-3.75-9-3.75z" id="bg"/><path fill="#FFF3CA" d="M475.25 338.1q-5.2 0-8.85 3.65-3.7 3.7-3.7 8.85 0 5.2 3.7 8.85 3.7 3.7 8.85 3.7 5.15 0 8.85-3.7 3.65-3.65 3.65-8.85 0-5.15-3.65-8.85-3.65-3.65-8.85-3.65z" id="bh"/><path fill="#FFF3C9" d="M475.25 338.35q-5.05 0-8.7 3.6-3.6 3.6-3.6 8.65 0 5.1 3.6 8.7 3.65 3.6 8.7 3.6 5.05 0 8.65-3.6 3.6-3.6 3.6-8.7 0-5.05-3.6-8.65-3.6-3.6-8.65-3.6z" id="bi"/><path fill="#FFF3C9" d="M475.25 338.6q-4.95 0-8.5 3.55-3.55 3.5-3.55 8.45 0 5 3.55 8.5 3.55 3.55 8.5 3.55t8.5-3.55q3.5-3.5 3.5-8.5 0-4.95-3.5-8.45-3.55-3.55-8.5-3.55z" id="bj"/><path fill="#FFF2C8" d="M475.25 338.85q-4.85 0-8.35 3.45-3.45 3.45-3.45 8.3 0 4.85 3.45 8.3 3.45 3.45 8.35 3.45 4.85 0 8.3-3.45 3.45-3.45 3.45-8.3 0-4.85-3.45-8.3-3.45-3.45-8.3-3.45z" id="bk"/><path fill="#FFF2C7" d="M475.25 339.15q-4.75 0-8.15 3.35-3.35 3.35-3.35 8.1t3.35 8.15q3.4 3.35 8.15 3.35t8.15-3.35q3.35-3.4 3.35-8.15t-3.35-8.1q-3.4-3.35-8.15-3.35z" id="bl"/><path fill="#FFF2C6" d="M475.25 339.4q-4.65 0-7.95 3.3t-3.3 7.9q0 4.65 3.3 7.95t7.95 3.3q4.65 0 7.95-3.3t3.3-7.95q0-4.6-3.3-7.9-3.3-3.3-7.95-3.3z" id="bm"/><path fill="#FFF2C6" d="M475.25 339.65q-4.55 0-7.75 3.2-3.25 3.2-3.25 7.75t3.25 7.75q3.2 3.25 7.75 3.25t7.75-3.25q3.2-3.2 3.2-7.75t-3.2-7.75q-3.2-3.2-7.75-3.2z" id="bn"/><path fill="#FFF2C5" d="M475.25 339.9q-4.45 0-7.6 3.15-3.15 3.15-3.15 7.55 0 4.45 3.15 7.6 3.15 3.15 7.6 3.15 4.45 0 7.55-3.15 3.15-3.15 3.15-7.6 0-4.4-3.15-7.55-3.1-3.15-7.55-3.15z" id="bo"/><path fill="#FFF2C4" d="M475.25 340.15q-4.3 0-7.4 3.05-3.1 3.1-3.1 7.4 0 4.35 3.1 7.45 3.1 3.05 7.4 3.05 4.3 0 7.4-3.05 3.05-3.1 3.05-7.45 0-4.3-3.05-7.4-3.1-3.05-7.4-3.05z" id="bp"/><path fill="#FFF1C3" d="M475.25 340.4q-4.25 0-7.25 3t-3 7.2q0 4.25 3 7.25t7.25 3q4.2 0 7.2-3t3-7.25q0-4.2-3-7.2t-7.2-3z" id="bq"/><path fill="#FFF1C3" d="M475.25 340.65q-4.1 0-7.05 2.95-2.95 2.9-2.95 7t2.95 7.05q2.9 2.9 7.05 2.9 4.1 0 7-2.9 2.95-2.95 2.95-7.05t-2.95-7q-2.9-2.95-7-2.95z" id="br"/><path fill="#FFF1C2" d="M475.25 340.95q-4 0-6.85 2.85-2.85 2.8-2.85 6.8t2.85 6.85q2.85 2.85 6.85 2.85 4 0 6.85-2.85 2.85-2.85 2.85-6.85 0-4-2.85-6.8-2.85-2.85-6.85-2.85z" id="bs"/><path fill="#FFF1C1" d="M475.25 341.2q-3.9 0-6.65 2.75-2.8 2.75-2.8 6.65 0 3.9 2.8 6.7 2.75 2.75 6.65 2.75 3.9 0 6.7-2.75 2.75-2.8 2.75-6.7 0-3.9-2.75-6.65-2.8-2.75-6.7-2.75z" id="bt"/><path fill="#FFF1C0" d="M475.25 341.45q-3.8 0-6.5 2.7-2.7 2.65-2.7 6.45 0 3.8 2.7 6.5t6.5 2.7q3.8 0 6.45-2.7 2.7-2.7 2.7-6.5t-2.7-6.45q-2.65-2.7-6.45-2.7z" id="bu"/><path fill="#FFF1C0" d="M475.25 341.7q-3.7 0-6.3 2.6-2.65 2.65-2.65 6.3 0 3.7 2.65 6.35 2.6 2.6 6.3 2.6 3.7 0 6.3-2.6 2.6-2.65 2.6-6.35 0-3.65-2.6-6.3-2.6-2.6-6.3-2.6z" id="bv"/><path fill="#FFF1BF" d="M475.25 341.95q-3.6 0-6.15 2.55-2.55 2.55-2.55 6.1 0 3.6 2.55 6.15 2.55 2.55 6.15 2.55 3.55 0 6.1-2.55t2.55-6.15q0-3.55-2.55-6.1t-6.1-2.55z" id="bw"/><path fill="#FFF0BE" d="M475.25 342.2q-3.5 0-5.95 2.5-2.5 2.45-2.5 5.9 0 3.5 2.5 5.95 2.45 2.5 5.95 2.5 3.45 0 5.95-2.5 2.45-2.45 2.45-5.95 0-3.45-2.45-5.9-2.5-2.5-5.95-2.5z" id="bx"/><path fill="#FFF0BD" d="M475.25 342.45q-3.35 0-5.75 2.4t-2.4 5.75q0 3.4 2.4 5.75 2.4 2.4 5.75 2.4 3.4 0 5.75-2.4 2.4-2.35 2.4-5.75 0-3.35-2.4-5.75t-5.75-2.4z" id="by"/><path fill="#FFF0BD" d="M475.25 342.75q-3.25 0-5.6 2.3-2.3 2.3-2.3 5.55t2.3 5.6q2.35 2.3 5.6 2.3 3.25 0 5.6-2.3 2.3-2.35 2.3-5.6 0-3.25-2.3-5.55-2.35-2.3-5.6-2.3z" id="bz"/><path fill="#FFF0BC" d="M475.25 343q-3.15 0-5.4 2.25-2.25 2.2-2.25 5.35 0 3.15 2.25 5.4 2.25 2.25 5.4 2.25 3.15 0 5.4-2.25 2.25-2.25 2.25-5.4 0-3.15-2.25-5.35-2.25-2.25-5.4-2.25z" id="bA"/><path fill="#FFF0BB" d="M475.25 343.25q-3.05 0-5.2 2.15-2.2 2.15-2.2 5.2 0 3.05 2.2 5.25 2.15 2.15 5.2 2.15 3.05 0 5.2-2.15 2.15-2.2 2.15-5.25t-2.15-5.2q-2.15-2.15-5.2-2.15z" id="bB"/><path fill="#FFF0BA" d="M475.25 343.5q-2.95 0-5.05 2.1-2.1 2.05-2.1 5t2.1 5.05q2.1 2.1 5.05 2.1 2.95 0 5-2.1 2.1-2.1 2.1-5.05 0-2.9-2.1-5-2.05-2.1-5-2.1z" id="bC"/><path fill="#FFF0B9" d="M475.25 343.75q-2.85 0-4.85 2-2.05 2.05-2.05 4.85 0 2.85 2.05 4.9 2 2 4.85 2 2.8 0 4.85-2 2-2.05 2-4.9 0-2.8-2-4.85-2.05-2-4.85-2z" id="bD"/><path fill="#FFEFB9" d="M475.25 344q-2.75 0-4.65 1.95-1.95 1.95-1.95 4.65 0 2.75 1.95 4.7 1.9 1.95 4.65 1.95 2.75 0 4.65-1.95 1.95-1.95 1.95-4.7 0-2.7-1.95-4.65-1.9-1.95-4.65-1.95z" id="bE"/><path fill="#FFEFB8" d="M475.25 344.25q-2.6 0-4.5 1.9-1.85 1.85-1.85 4.45 0 2.65 1.85 4.5 1.9 1.85 4.5 1.85 2.65 0 4.5-1.85t1.85-4.5q0-2.6-1.85-4.45-1.9-1.9-4.5-1.9z" id="bF"/><path fill="#FFEFB7" d="M475.25 344.55q-2.5 0-4.3 1.75-1.8 1.8-1.8 4.3t1.8 4.3q1.8 1.8 4.3 1.8t4.3-1.8q1.8-1.8 1.8-4.3t-1.8-4.3q-1.8-1.75-4.3-1.75z" id="bG"/><path fill="#FFEFB6" d="M471.15 354.75q1.7 1.7 4.1 1.7 2.4 0 4.15-1.7 1.7-1.7 1.7-4.15 0-2.4-1.7-4.1-1.75-1.7-4.15-1.7-2.4 0-4.1 1.7-1.75 1.7-1.75 4.1 0 2.45 1.75 4.15z" id="bH"/><path fill="#FFEFB6" d="M471.3 354.55q1.65 1.65 3.95 1.65 2.3 0 3.9-1.65 1.65-1.65 1.65-3.95 0-2.3-1.65-3.9-1.6-1.65-3.9-1.65t-3.95 1.65q-1.65 1.6-1.65 3.9 0 2.35 1.65 3.95z" id="bI"/><path fill="#FFEFB5" d="M471.45 354.4q1.6 1.55 3.8 1.55 2.2 0 3.75-1.55 1.55-1.6 1.55-3.8 0-2.15-1.55-3.75-1.55-1.55-3.75-1.55t-3.8 1.55q-1.55 1.55-1.55 3.75t1.55 3.8z" id="bJ"/><path fill="#FFEFB4" d="M471.65 354.2q1.5 1.5 3.6 1.5t3.6-1.5q1.45-1.5 1.45-3.6 0-2.05-1.45-3.55-1.5-1.5-3.6-1.5t-3.6 1.5q-1.5 1.5-1.5 3.55 0 2.1 1.5 3.6z" id="bK"/><path fill="#FFEEB3" d="M471.85 354q1.4 1.45 3.4 1.45t3.4-1.45q1.4-1.4 1.4-3.4 0-1.95-1.4-3.35-1.4-1.45-3.4-1.45t-3.4 1.45q-1.4 1.4-1.4 3.35 0 2 1.4 3.4z" id="bL"/><path fill="#FFEEB3" d="M472.05 353.8q1.35 1.35 3.2 1.35 1.9 0 3.2-1.35 1.35-1.3 1.35-3.2 0-1.85-1.35-3.2-1.3-1.35-3.2-1.35-1.85 0-3.2 1.35t-1.35 3.2q0 1.9 1.35 3.2z" id="bM"/><path fill="#FFEEB2" d="M472.2 353.65q1.3 1.25 3.05 1.25 1.75 0 3.05-1.25 1.25-1.25 1.25-3.05 0-1.75-1.25-3-1.3-1.25-3.05-1.25-1.75 0-3.05 1.25-1.25 1.25-1.25 3 0 1.8 1.25 3.05z" id="bN"/><path fill="#FFEEB1" d="M472.4 353.45q1.2 1.2 2.85 1.2 1.65 0 2.85-1.2 1.2-1.15 1.2-2.85 0-1.65-1.2-2.8-1.2-1.2-2.85-1.2-1.65 0-2.85 1.2-1.2 1.15-1.2 2.8 0 1.7 1.2 2.85z" id="bO"/><path fill="#FFEEB0" d="M472.55 353.3q1.15 1.1 2.7 1.1 1.55 0 2.65-1.1 1.1-1.15 1.1-2.7 0-1.55-1.1-2.65-1.1-1.1-2.65-1.1-1.55 0-2.7 1.1-1.1 1.1-1.1 2.65 0 1.6 1.1 2.7z" id="bP"/><path fill="#FFEEAF" d="M472.75 353.1q1.05 1.05 2.5 1.05t2.5-1.05q1-1.05 1-2.5t-1-2.45q-1.05-1.05-2.5-1.05t-2.5 1.05q-1.05 1-1.05 2.45 0 1.45 1.05 2.5z" id="bQ"/><path fill="#FFEEAF" d="M472.95 352.95q.95.95 2.3.95 1.35 0 2.3-.95.95-1 .95-2.35 0-1.3-.95-2.3-.95-.95-2.3-.95-1.35 0-2.3.95-.95 1-.95 2.3 0 1.35.95 2.35z" id="bR"/><path fill="#FFEDAE" d="M473.15 352.75q.85.9 2.1.9t2.1-.9q.9-.9.9-2.15t-.9-2.1q-.85-.9-2.1-.9t-2.1.9q-.9.85-.9 2.1t.9 2.15z" id="bS"/><path fill="#FFEDAD" d="M473.3 352.55q.8.8 1.95.8t1.95-.8q.8-.8.8-1.95 0-1.1-.8-1.95-.8-.8-1.95-.8-1.1 0-1.95.8-.8.85-.8 1.95 0 1.15.8 1.95z" id="bT"/><path fill="#FFEDAC" d="M473.5 352.4q.75.7 1.75.7t1.75-.7q.75-.75.75-1.8 0-1-.75-1.75-.75-.7-1.75-.7t-1.75.7q-.75.75-.75 1.75 0 1.05.75 1.8z" id="bU"/><path fill="#FFEDAC" d="M473.65 352.2q.65.65 1.6.65.9 0 1.6-.65.65-.65.65-1.6 0-.9-.65-1.55-.7-.65-1.6-.65-.95 0-1.6.65-.65.65-.65 1.55 0 .95.65 1.6z" id="bV"/><path fill="url(#b)" d="M504.85 438.5q2.25 2.25 5.45 2.25t5.5-2.25q2.3-2.25 2.3-5.45t-2.3-5.5q-2.3-2.25-5.5-2.25t-5.45 2.25q-2.3 2.3-2.3 5.5t2.3 5.45z" id="bW"/><path fill="url(#c)" d="M506.9 427.75q-1.4.85-2.1 1.95-.7 1.1-.3 1.8.4.65 1.7.55 1.3-.15 2.65-1 1.4-.85 2.15-1.95.7-1.1.3-1.8-.4-.65-1.75-.5-1.3.1-2.65.95z" id="bX"/><path fill="url(#d)" d="M432.35 438.5q2.3 2.25 5.55 2.25 3.15 0 5.45-2.25 2.25-2.25 2.25-5.45t-2.25-5.5q-2.3-2.25-5.45-2.25-3.25 0-5.55 2.25-2.25 2.25-2.25 5.5 0 3.2 2.25 5.45z" id="bY"/><path fill="url(#e)" d="M434.4 427.75q-1.4.85-2.05 1.95-.7 1.1-.3 1.8.4.65 1.7.55 1.3-.15 2.7-1 1.4-.85 2.1-1.95.7-1.1.25-1.8-.4-.65-1.65-.5-1.35.1-2.75.95z" id="bZ"/><path fill="#A6D282" d="M469 448.9l-1.45-5.7q-27-5.3-42.05-3.5-12.35 1.45-23.85 9.25 10.95-6.5 25.9-7.25 18.55-.9 41.45 7.2z" id="ca"/><path fill="#1FAA53" d="M512.45 445.45l-5.6-.95q7 11.8 5.2 21.1-1.5 7.5-8.5 12.75 8.3-5.5 10.4-11.65 2.5-7.5-1.5-21.25z" id="cb"/><path fill="url(#f)" d="M484.8 448.55q-.45 14.75-7.7 23.8-5.9 7.3-15.6 10.25 11.05-2.8 16.65-8.45 6.9-6.95 11.35-22.65l-4.7-2.95z" id="cc"/><path fill="url(#g)" d="M438.7 463.75q-3.15 1.55-13.65 3.15-7.3 1.1-12.4 4.4-3.277 2.07-6.15 5.45 1.926-1.96 6.1-3.95 5.05-2.45 9.65-3.15 13.95-2.2 14.95-2.5 7.8-2.35 12.25-9.1l-3.5-6.05q-.6 8.5-7.25 11.75z" id="cd"/><path fill="url(#h)" d="M514.7 380.7h-80.3v64.05q0 3.7 11.75 8.65 13.3 5.6 28.35 5.6t28.4-5.6q11.8-4.95 11.8-8.65v-1.05h-.15q.059-.08.1-.9.032-.292.05.6v-62.7z" id="ce"/><path fill="url(#i)" d="M487.75 430.85q14.35-10.45 26.95-25V391.9q-14.95 20.5-38.25 35.4-8.35 5.35-16.75 9.5-5.05 2.55-12.75 5.75-2.3 1-5.25 2.05l-4.45 1.7-.75.2v.1l-.95.3q2.4 2.7 9.25 5.9l.05-.1q.5-.15 2.1-.75 5.65-2.2 12.75-5.3 9.75-4.45 16.75-8.55 5.9-3.5 11.3-7.25m25-29.6v1.8q-.85.85-3 3.6-2.05 2.55-3.2 3.6-4.05 3.6-7.1 6.1-11.6 9.3-23 16.35-9.65 5.85-16.75 9.3-7.25 3.65-12.75 5.8l-4.3 1.8h-.1l-.15-.05-.8-.45q-.1-.15-.4-.25 1.25-.55 1.85-.75l4.4-1.8q4.4-1.05 12.25-5.3l7.75-4.5q3-1.65 8.5-5l.5-.3q17.15-10.7 36.3-29.95z" id="cf"/><path fill="url(#j)" d="M514.7 380.7h-9.05q-2.45 2.95-5.5 6.15-3.35 3.55-7.05 6.9-7.65 7.05-16.65 13.6-8.15 5.9-16.75 10.75-5.8 3.25-9.15 4.8l-1.95.95q-.35.2-1.65.8-.15.15-.3.15-4.95 2.35-9.95 4.3l-2.3.95v9.25l1.3-.4 11.25-4.6q5.5-2.55 7.5-3.55 1.4-.65 5.25-2.75 1.25-.65 4.45-2.5 3.8-2.15 9.5-5.7l2.8-1.85q23-15.45 38.25-34.45v-2.8m-5.75 1.9h1.65q-13.95 16.9-34.15 30.8-2.5 1.85-4.8 3.25-5.85 3.75-9.35 5.6l-2.6 1.45q-3.05 1.75-6.9 3.65-1.95 1.05-5.85 2.85-3.35 1.5-4.4 1.9l-3.95 1.7h-.1q-1.2.55-2.2.85v-1.3l.3-.15 1.5-.55q4.15-1.6 8.85-3.85l5.25-2.5q5.9-3.05 7.5-3.95 8.15-4.4 16.75-10.45 10.1-6.95 19.15-15.35 4.15-3.75 7.3-7.1 2.65-2.85 6.05-6.85z" id="cg"/><path fill="url(#k)" d="M483.25 380.7q-1.4 1.35-6.8 6.15-7.65 6.5-16.75 12.35l-9.6 5.8q-2.3 1.25-3.15 1.65l-3.05 1.55q-3.1 1.6-7.3 3.5l-2.2.9v9.45l.75-.3q3.9-1.5 9.15-3.95l3.6-1.8q5.8-2.95 11.8-6.55 8.7-5.2 16.75-11.4 4.2-3.3 6.2-5 2.1-1.8 6-5.4 2.3-2.15 5.45-5.55h.1l1.3-1.4h-12.25m3.35 1.9h1.8l-11.95 10.7q-7.6 6.1-16.75 11.85-6.75 4.1-12.75 7.1l-10.65 5.05v-1.4l.3-.1q.5-.3 1.5-.65 3.7-1.65 7.5-3.6v.05l.05-.05 6.25-3.35q3.25-1.7 6.3-3.6l1.5-1q9.3-5.75 16.75-11.95 5.3-4.2 10.15-9.05z" id="ch"/><path fill="url(#l)" d="M514.7 416.15q-6.55 9.25-16.8 17.45-9.55 7.65-21.45 13.65-8.1 4.15-16.75 7.25l-.45.15-.95.45q-.4.2-.85.35v.05l-2.15.95q3.55.85 4.4 1l2.3.45q3.5.65 8.5 1l5.95-2.85Q491 449 498.5 443.85q7.9-5.45 16.2-14.3v-13.4z" id="ci"/><path fill="url(#m)" d="M450.1 388.2q-.5-.3-3.15.7-4.35 1.65-12.55 5.95v9.65l.8-.3 11.75-6.2q12.35-6.9 12.4-6.9.9-.5-2.95-1.25-5.05-1-6.3-1.65z" id="cj"/><path fill="url(#n)" d="M486.5 429.55q18.1-12.75 28.2-27.15v-8.15q-11 15.7-28.2 28.35-14.85 10.95-33.35 19.15-5 2.4-10.75 4.55-2.8 1.15-5.3 2 2.2 1.8 5.4 3.35l1.7-.65q4.05-1.4 8.95-3.3 17.85-7.35 33.35-18.15z" id="ck"/><path fill="url(#o)" d="M461.2 380.7q-3.6 2.85-8.05 5.7-6.55 4.4-15 8.7l-3.75 1.9v5.45q4.6-2.15 6-2.85 7.4-3.85 12.75-7.2 8.85-5.6 16.05-11.7h-8z" id="cl"/><path fill="url(#p)" d="M514.7 418.15q-9.8 14.55-28.2 25.35-9.3 5.4-21.9 10.65-2.5 1.3-6.35 3.05 3.35.8 8.65 1.4 10.9-4.35 19.6-9.1 16.85-9.5 28.2-22.4v-8.95z" id="cm"/><path fill="url(#q)" d="M514.5 380.7h-6.45q-9 11-21.55 21.35-15.25 12.45-33.35 21.65l-1.75.85q-6.5 3.35-13.95 6.35l-3.05 1.15v5.35l4.85-1.9q6.9-2.7 13.9-6.2l.5-.2q17.85-9 32.85-20.65 16.55-13 28-27.75z" id="cn"/><path fill="url(#r)" d="M486.5 387.15q3.9-3.8 6.3-6.45h-6.9q-13.7 13.7-32.75 24.7-3.95 2.3-8.35 4.5-6.25 3.1-10.4 4.8v5.4q7-2.9 12.6-5.75 2.35-1.1 6.15-3.25 18.95-10.4 33.35-23.95z" id="co"/><path fill="url(#s)" d="M474.5 366.05q-16.6 0-28.35 4.45t-11.75 10.8q0 6.25 11.75 10.75 11.8 4.45 28.35 4.45 16.6 0 28.4-4.45 11.8-4.5 11.8-10.75 0-6.35-11.8-10.8-11.75-4.45-28.4-4.45z" id="cp"/><path fill="url(#t)" d="M448.75 389.2q10.45 3.7 25.2 3.7t25.2-3.7q10.5-3.65 10.5-8.85 0-5.15-10.5-8.8-10.45-3.65-25.2-3.65t-25.2 3.65q-10.45 3.65-10.45 8.8 0 5.2 10.45 8.85z" id="cq"/><path fill="url(#u)" d="M468.35 384q2.3.8 5.6.8t5.6-.8q2.3-.8 2.3-2 0-1.15-2.3-1.95-2.35-.85-5.6-.85-3.25 0-5.6.85-2.3.8-2.3 1.95 0 1.2 2.3 2z" id="cr"/><path fill="url(#v)" d="M480.25 343.4q-2.55-4.65-7.55-6.25 2.8 2.2 2.5 5.45-.4 3.7-4.85 11.35-2.95 5-2.5 9.65.6 6.15 6.95 12.65-.15-4.85.45-8.15.55-2.9 1.8-5.3 1-1.85 3.05-4.9 1.65-2.7 1.9-5.4.5-4.9-1.75-9.1z" id="cs"/><path fill="url(#w)" d="M473.5 369.5q-.45-2.85-.25-5.25.15-3.05 1.4-5.55.4-.65-.25-1-.3-.2-.6-.1-.35.1-.45.35-1.4 2.9-1.65 6.15-.15 2.15.35 5.65l.6 2.55q.75 2.6.8 4.05.2 2.5-.85 4.95-.2.25-.05.55.1.3.4.45.25.1.6 0 .3-.15.4-.45 1.2-2.75 1.05-5.5-.1-1.65-.9-4.4l-.6-2.45z" id="ct"/><path fill="url(#x)" d="M430.75 438.65q-2.3 2.25-2.3 5.45 0 3.15 2.3 5.45 2.25 2.3 5.45 2.3t5.5-2.3q2.3-2.3 2.3-5.45 0-3.2-2.3-5.45-2.3-2.3-5.5-2.3t-5.45 2.3z" id="cu"/><path fill="url(#y)" d="M432.85 438.75q-1.4.85-2.1 1.95-.7 1.1-.3 1.8.35.7 1.7.55 1.3-.15 2.7-1 1.35-.85 2.05-1.95.75-1.05.35-1.7-.45-.7-1.75-.6-1.25.1-2.65.95z" id="cv"/><path fill="url(#z)" d="M438.9 451.95q0 3.25 2.25 5.5 2.3 2.25 5.5 2.25t5.45-2.25q2.25-2.3 2.25-5.5t-2.25-5.45q-2.25-2.3-5.45-2.3t-5.5 2.3q-2.25 2.25-2.25 5.45z" id="cw"/><path fill="url(#A)" d="M443.2 446.65q-1.4.85-2.1 1.9-.7 1.1-.25 1.8.4.7 1.7.55 1.25-.15 2.65-1 1.4-.75 2.1-1.9.7-1.1.3-1.75-.45-.7-1.75-.6-1.25.15-2.65 1z" id="cx"/><path fill="url(#B)" d="M454.55 461.05q2.25 2.25 5.45 2.25t5.5-2.25q2.25-2.25 2.25-5.45 0-3.25-2.25-5.5-2.3-2.3-5.5-2.3t-5.45 2.3q-2.3 2.3-2.3 5.5t2.3 5.45z" id="cy"/><path fill="url(#C)" d="M456.6 450.25q-1.4.85-2.1 1.95-.7 1.1-.3 1.75.4.7 1.7.6 1.3-.1 2.7-.95 1.4-.85 2.1-1.95.7-1.1.3-1.8-.45-.7-1.75-.55-1.25.1-2.65.95z" id="cz"/><path fill="url(#D)" d="M507.4 438.65q-2.3 2.25-2.3 5.45 0 3.15 2.3 5.45 2.25 2.3 5.45 2.3t5.5-2.3q2.25-2.3 2.25-5.45 0-3.2-2.25-5.45-2.3-2.3-5.5-2.3t-5.45 2.3z" id="cA"/><path fill="url(#E)" d="M509.45 438.75q-1.4.85-2.1 1.95-.7 1.1-.3 1.8.45.7 1.75.55 1.25-.15 2.65-1t2.1-1.95q.7-1.05.3-1.7-.45-.7-1.75-.6-1.25.1-2.65.95z" id="cB"/><path fill="url(#F)" d="M496.2 457.45q2.25 2.25 5.45 2.25 3.25 0 5.55-2.25 2.25-2.25 2.25-5.5 0-3.2-2.25-5.45-2.3-2.3-5.55-2.3-3.2 0-5.45 2.3-2.25 2.25-2.25 5.45t2.25 5.5z" id="cC"/><path fill="url(#G)" d="M498.3 446.65q-1.4.8-2.1 1.9-.7 1.1-.3 1.8.35.7 1.7.55 1.3-.15 2.7-1 1.4-.8 2.1-1.9.7-1.1.3-1.75-.45-.7-1.75-.6-1.25.15-2.65 1z" id="cD"/><path fill="url(#H)" d="M494.15 450.1q-2.3-2.3-5.5-2.3t-5.45 2.3q-2.25 2.3-2.25 5.5t2.25 5.45q2.25 2.25 5.45 2.25t5.5-2.25q2.25-2.25 2.25-5.45 0-3.25-2.25-5.5z" id="cE"/><path fill="url(#I)" d="M487.25 453.6q1.4-.85 2.1-1.95.7-1.1.3-1.8-.45-.7-1.75-.55-1.25.1-2.65.95t-2.1 1.95q-.7 1.1-.25 1.75.4.7 1.65.6 1.3-.1 2.7-.95z" id="cF"/><path fill="url(#J)" d="M469 461.85q2.3 2.25 5.5 2.25t5.45-2.25q2.3-2.25 2.3-5.45t-2.3-5.5q-2.25-2.3-5.45-2.3t-5.5 2.3q-2.25 2.3-2.25 5.5t2.25 5.45z" id="cG"/><path fill="url(#K)" d="M471.05 451.05q-1.4.9-2.1 1.95-.7 1.1-.25 1.8.4.65 1.7.55 1.3-.15 2.7-1 1.4-.85 2.1-1.95.7-1.1.25-1.75-.4-.7-1.7-.55-1.3.1-2.7.95z" id="cH"/><path fill="url(#L)" d="M426.05 462.75q1.45 1.4 3.45 1.4t3.45-1.4q1.4-1.4 1.4-3.4t-1.4-3.4q-1.45-1.45-3.45-1.45t-3.45 1.45q-1.4 1.4-1.4 3.4t1.4 3.4z" id="cI"/><path fill="url(#M)" d="M427.35 456.05q-.85.55-1.3 1.2-.45.65-.2 1.1.25.4 1.1.35.8-.1 1.65-.6.85-.5 1.3-1.25.45-.7.2-1.1-.25-.45-1.05-.35-.85.1-1.7.65z" id="cJ"/><path fill="url(#N)" d="M439 467.1q1.85 1.9 4.55 1.9 2.7 0 4.6-1.9 1.9-1.95 1.9-4.65 0-2.65-1.9-4.6-1.9-1.9-4.6-1.9-2.7 0-4.55 1.9-1.9 1.95-1.9 4.6 0 2.7 1.9 4.65z" id="cK"/><path fill="url(#O)" d="M440.7 457.95q-1.2.8-1.75 1.7-.55.9-.2 1.5.3.55 1.4.45 1.1-.15 2.25-.8 1.1-.7 1.75-1.65.6-.9.3-1.45-.4-.6-1.5-.5-1.05.05-2.25.75z" id="cL"/><path fill="url(#P)" d="M421.55 440.9q1.25 1.25 2.95 1.25 1.7 0 2.95-1.25 1.2-1.2 1.2-2.95 0-1.75-1.2-3-1.25-1.25-2.95-1.25-1.7 0-2.95 1.25-1.25 1.25-1.25 3t1.25 2.95z" id="cM"/><path fill="url(#Q)" d="M422.6 435.1q-.75.4-1.1 1-.4.6-.2 1 .2.35.95.3.7-.05 1.45-.5.8-.5 1.15-1.1.4-.6.15-.95-.2-.4-.95-.3-.7.05-1.45.55z" id="cN"/><path fill="url(#R)" d="M478.3 466.3q1.4 1.45 3.4 1.45 2.05 0 3.45-1.45 1.45-1.4 1.45-3.45 0-2-1.45-3.4-1.4-1.4-3.45-1.4-2 0-3.4 1.4t-1.4 3.4q0 2.05 1.4 3.45z" id="cO"/><path fill="url(#S)" d="M479.65 459.55q-.9.55-1.35 1.25-.45.65-.2 1.05.3.45 1.1.4.8-.05 1.65-.6.85-.55 1.35-1.2.45-.75.15-1.1-.25-.45-1.05-.4-.8.05-1.65.6z" id="cP"/><path fill="#373535" d="M442.55 458.15q.4.25 1 .25t1-.25q.4-.2.4-.55 0-.25-.4-.5-.4-.2-1-.2t-1 .2q-.45.25-.45.5 0 .35.45.55z" id="cQ"/><path fill="#373535" d="M432.2 457.1q-.65-.65-.95-.3-.35.3.3.95.5.6.95.35.35-.35-.3-1z" id="cR"/><path fill="#373535" d="M480.7 459.55q0 .5 1 .5 1.05 0 1.05-.5t-1.05-.5q-1 0-1 .5z" id="cS"/></defs><use xlink:href="#T"/><use xlink:href="#U" transform="matrix(1.69157 0 0 1.69157 -641.993 -511.418)"/><use xlink:href="#V" transform="matrix(1.69157 0 0 1.69157 -641.993 -511.418)"/><use xlink:href="#W" transform="matrix(1.69157 0 0 1.69157 -641.993 -511.418)"/><use xlink:href="#X" transform="matrix(1.69157 0 0 1.69157 -641.993 -511.418)"/><use xlink:href="#Y" transform="matrix(1.69157 0 0 1.69157 -641.993 -511.418)"/><use xlink:href="#Z" transform="matrix(1.69157 0 0 1.69157 -641.993 -511.418)"/><use xlink:href="#aa" transform="matrix(1.69157 0 0 1.69157 -641.993 -511.418)"/><use xlink:href="#ab" transform="matrix(1.69157 0 0 1.69157 -641.993 -511.418)"/><use xlink:href="#ac" transform="matrix(1.69157 0 0 1.69157 -641.993 -511.418)"/><use xlink:href="#ad" transform="matrix(1.69157 0 0 1.69157 -641.993 -511.418)"/><use xlink:href="#ae" transform="matrix(1.69157 0 0 1.69157 -641.993 -511.418)"/><use xlink:href="#af" transform="matrix(1.69157 0 0 1.69157 -641.993 -511.418)"/><use xlink:href="#ag" transform="matrix(1.69157 0 0 1.69157 -641.993 -511.418)"/><use xlink:href="#ah" transform="matrix(1.69157 0 0 1.69157 -641.993 -511.418)"/><use xlink:href="#ai" transform="matrix(1.69157 0 0 1.69157 -641.993 -511.418)"/><use xlink:href="#aj" transform="matrix(1.69157 0 0 1.69157 -641.993 -511.418)"/><use xlink:href="#ak" transform="matrix(1.69157 0 0 1.69157 -641.993 -511.418)"/><use xlink:href="#al" transform="matrix(1.69157 0 0 1.69157 -641.993 -511.418)"/><use xlink:href="#am" transform="matrix(1.69157 0 0 1.69157 -641.993 -511.418)"/><use xlink:href="#an" transform="matrix(1.69157 0 0 1.69157 -641.993 -511.418)"/><use xlink:href="#ao" transform="matrix(1.69157 0 0 1.69157 -641.993 -511.418)"/><use xlink:href="#ap" transform="matrix(1.69157 0 0 1.69157 -641.993 -511.418)"/><use xlink:href="#aq" transform="matrix(1.69157 0 0 1.69157 -641.993 -511.418)"/><use xlink:href="#ar" transform="matrix(1.69157 0 0 1.69157 -641.993 -511.418)"/><use xlink:href="#as" transform="matrix(1.69157 0 0 1.69157 -641.993 -511.418)"/><use xlink:href="#at" transform="matrix(1.69157 0 0 1.69157 -641.993 -511.418)"/><use xlink:href="#au" transform="matrix(1.69157 0 0 1.69157 -641.993 -511.418)"/><use xlink:href="#av" transform="matrix(1.69157 0 0 1.69157 -641.993 -511.418)"/><use xlink:href="#aw" transform="matrix(1.69157 0 0 1.69157 -641.993 -511.418)"/><use xlink:href="#ax" transform="matrix(1.69157 0 0 1.69157 -641.993 -511.418)"/><use xlink:href="#ay" transform="matrix(1.69157 0 0 1.69157 -641.993 -511.418)"/><use xlink:href="#az" transform="matrix(1.69157 0 0 1.69157 -641.993 -511.418)"/><use xlink:href="#aA" transform="matrix(1.69157 0 0 1.69157 -641.993 -511.418)"/><use xlink:href="#aB" transform="matrix(1.69157 0 0 1.69157 -641.993 -511.418)"/><use xlink:href="#aC" transform="matrix(1.69157 0 0 1.69157 -641.993 -511.418)"/><use xlink:href="#aD" transform="matrix(1.69157 0 0 1.69157 -641.993 -511.418)"/><use xlink:href="#aE" transform="matrix(1.69157 0 0 1.69157 -641.993 -511.418)"/><use xlink:href="#aF" transform="matrix(1.69157 0 0 1.69157 -641.993 -511.418)"/><use xlink:href="#aG" transform="matrix(1.69157 0 0 1.69157 -641.993 -511.418)"/><use xlink:href="#aH" transform="matrix(1.69157 0 0 1.69157 -641.993 -511.418)"/><use xlink:href="#aI" transform="matrix(1.69157 0 0 1.69157 -641.993 -511.418)"/><use xlink:href="#aJ" transform="matrix(1.69157 0 0 1.69157 -641.993 -511.418)"/><use xlink:href="#aK" transform="matrix(1.69157 0 0 1.69157 -641.993 -511.418)"/><use xlink:href="#aL" transform="matrix(1.69157 0 0 1.69157 -641.993 -511.418)"/><use xlink:href="#aM" transform="matrix(1.69157 0 0 1.69157 -641.993 -511.418)"/><use xlink:href="#aN" transform="matrix(1.69157 0 0 1.69157 -641.993 -511.418)"/><use xlink:href="#aO" transform="matrix(1.69157 0 0 1.69157 -641.993 -511.418)"/><use xlink:href="#aP" transform="matrix(1.69157 0 0 1.69157 -641.993 -511.418)"/><use xlink:href="#aQ" transform="matrix(1.69157 0 0 1.69157 -641.993 -511.418)"/><use xlink:href="#aR" transform="matrix(1.69157 0 0 1.69157 -641.993 -511.418)"/><use xlink:href="#aS" transform="matrix(1.69157 0 0 1.69157 -641.993 -511.418)"/><use xlink:href="#aT" transform="matrix(1.69157 0 0 1.69157 -641.993 -511.418)"/><use xlink:href="#aU" transform="matrix(1.69157 0 0 1.69157 -641.993 -511.418)"/><use xlink:href="#aV" transform="matrix(1.69157 0 0 1.69157 -641.993 -511.418)"/><use xlink:href="#aW" transform="matrix(1.69157 0 0 1.69157 -641.993 -511.418)"/><use xlink:href="#aX" transform="matrix(1.69157 0 0 1.69157 -641.993 -511.418)"/><use xlink:href="#aY" transform="matrix(1.69157 0 0 1.69157 -641.993 -511.418)"/><use xlink:href="#aZ" transform="matrix(1.69157 0 0 1.69157 -641.993 -511.418)"/><use xlink:href="#ba" transform="matrix(1.69157 0 0 1.69157 -641.993 -511.418)"/><use xlink:href="#bb" transform="matrix(1.69157 0 0 1.69157 -641.993 -511.418)"/><use xlink:href="#bc" transform="matrix(1.69157 0 0 1.69157 -641.993 -511.418)"/><use xlink:href="#bd" transform="matrix(1.69157 0 0 1.69157 -641.993 -511.418)"/><use xlink:href="#be" transform="matrix(1.69157 0 0 1.69157 -641.993 -511.418)"/><use xlink:href="#bf" transform="matrix(1.69157 0 0 1.69157 -641.993 -511.418)"/><use xlink:href="#bg" transform="matrix(1.69157 0 0 1.69157 -641.993 -511.418)"/><use xlink:href="#bh" transform="matrix(1.69157 0 0 1.69157 -641.993 -511.418)"/><use xlink:href="#bi" transform="matrix(1.69157 0 0 1.69157 -641.993 -511.418)"/><use xlink:href="#bj" transform="matrix(1.69157 0 0 1.69157 -641.993 -511.418)"/><use xlink:href="#bk" transform="matrix(1.69157 0 0 1.69157 -641.993 -511.418)"/><use xlink:href="#bl" transform="matrix(1.69157 0 0 1.69157 -641.993 -511.418)"/><use xlink:href="#bm" transform="matrix(1.69157 0 0 1.69157 -641.993 -511.418)"/><use xlink:href="#bn" transform="matrix(1.69157 0 0 1.69157 -641.993 -511.418)"/><use xlink:href="#bo" transform="matrix(1.69157 0 0 1.69157 -641.993 -511.418)"/><use xlink:href="#bp" transform="matrix(1.69157 0 0 1.69157 -641.993 -511.418)"/><use xlink:href="#bq" transform="matrix(1.69157 0 0 1.69157 -641.993 -511.418)"/><use xlink:href="#br" transform="matrix(1.69157 0 0 1.69157 -641.993 -511.418)"/><use xlink:href="#bs" transform="matrix(1.69157 0 0 1.69157 -641.993 -511.418)"/><use xlink:href="#bt" transform="matrix(1.69157 0 0 1.69157 -641.993 -511.418)"/><use xlink:href="#bu" transform="matrix(1.69157 0 0 1.69157 -641.993 -511.418)"/><use xlink:href="#bv" transform="matrix(1.69157 0 0 1.69157 -641.993 -511.418)"/><use xlink:href="#bw" transform="matrix(1.69157 0 0 1.69157 -641.993 -511.418)"/><use xlink:href="#bx" transform="matrix(1.69157 0 0 1.69157 -641.993 -511.418)"/><use xlink:href="#by" transform="matrix(1.69157 0 0 1.69157 -641.993 -511.418)"/><use xlink:href="#bz" transform="matrix(1.69157 0 0 1.69157 -641.993 -511.418)"/><use xlink:href="#bA" transform="matrix(1.69157 0 0 1.69157 -641.993 -511.418)"/><use xlink:href="#bB" transform="matrix(1.69157 0 0 1.69157 -641.993 -511.418)"/><use xlink:href="#bC" transform="matrix(1.69157 0 0 1.69157 -641.993 -511.418)"/><use xlink:href="#bD" transform="matrix(1.69157 0 0 1.69157 -641.993 -511.418)"/><use xlink:href="#bE" transform="matrix(1.69157 0 0 1.69157 -641.993 -511.418)"/><use xlink:href="#bF" transform="matrix(1.69157 0 0 1.69157 -641.993 -511.418)"/><use xlink:href="#bG" transform="matrix(1.69157 0 0 1.69157 -641.993 -511.418)"/><use xlink:href="#bH" transform="matrix(1.69157 0 0 1.69157 -641.993 -511.418)"/><use xlink:href="#bI" transform="matrix(1.69157 0 0 1.69157 -641.993 -511.418)"/><use xlink:href="#bJ" transform="matrix(1.69157 0 0 1.69157 -641.993 -511.418)"/><use xlink:href="#bK" transform="matrix(1.69157 0 0 1.69157 -641.993 -511.418)"/><use xlink:href="#bL" transform="matrix(1.69157 0 0 1.69157 -641.993 -511.418)"/><use xlink:href="#bM" transform="matrix(1.69157 0 0 1.69157 -641.993 -511.418)"/><use xlink:href="#bN" transform="matrix(1.69157 0 0 1.69157 -641.993 -511.418)"/><use xlink:href="#bO" transform="matrix(1.69157 0 0 1.69157 -641.993 -511.418)"/><use xlink:href="#bP" transform="matrix(1.69157 0 0 1.69157 -641.993 -511.418)"/><use xlink:href="#bQ" transform="matrix(1.69157 0 0 1.69157 -641.993 -511.418)"/><use xlink:href="#bR" transform="matrix(1.69157 0 0 1.69157 -641.993 -511.418)"/><use xlink:href="#bS" transform="matrix(1.69157 0 0 1.69157 -641.993 -511.418)"/><use xlink:href="#bT" transform="matrix(1.69157 0 0 1.69157 -641.993 -511.418)"/><use xlink:href="#bU" transform="matrix(1.69157 0 0 1.69157 -641.993 -511.418)"/><use xlink:href="#bV" transform="matrix(1.69157 0 0 1.69157 -641.993 -511.418)"/><use xlink:href="#bW" transform="matrix(1.69157 0 0 1.69157 -641.993 -511.418)"/><use xlink:href="#bX" transform="matrix(1.69157 0 0 1.69157 -641.993 -511.418)"/><use xlink:href="#bY" transform="matrix(1.69157 0 0 1.69157 -641.993 -511.418)"/><use xlink:href="#bZ" transform="matrix(1.69157 0 0 1.69157 -641.993 -511.418)"/><use xlink:href="#ca" transform="matrix(1.69157 0 0 1.69157 -641.993 -511.418)"/><use xlink:href="#cb" transform="matrix(1.69157 0 0 1.69157 -641.993 -511.418)"/><use xlink:href="#cc" transform="matrix(1.69157 0 0 1.69157 -641.993 -511.418)"/><use xlink:href="#cd" transform="matrix(1.69157 0 0 1.69157 -641.993 -511.418)"/><use xlink:href="#ce" transform="matrix(1.69157 0 0 1.69157 -641.993 -511.418)"/><use xlink:href="#cf" transform="matrix(1.69157 0 0 1.69157 -641.993 -511.418)"/><use xlink:href="#cg" transform="matrix(1.69157 0 0 1.69157 -641.993 -511.418)"/><use xlink:href="#ch" transform="matrix(1.69157 0 0 1.69157 -641.993 -511.418)"/><use xlink:href="#ci" transform="matrix(1.69157 0 0 1.69157 -641.993 -511.418)"/><use xlink:href="#cj" transform="matrix(1.69157 0 0 1.69157 -641.993 -511.418)"/><use xlink:href="#ck" transform="matrix(1.69157 0 0 1.69157 -641.993 -511.418)"/><use xlink:href="#cl" transform="matrix(1.69157 0 0 1.69157 -641.993 -511.418)"/><use xlink:href="#cm" transform="matrix(1.69157 0 0 1.69157 -641.993 -511.418)"/><use xlink:href="#cn" transform="matrix(1.69157 0 0 1.69157 -641.993 -511.418)"/><use xlink:href="#co" transform="matrix(1.69157 0 0 1.69157 -641.993 -511.418)"/><use xlink:href="#cp" transform="matrix(1.69157 0 0 1.69157 -641.993 -511.418)"/><use xlink:href="#cq" transform="matrix(1.69157 0 0 1.69157 -641.993 -511.418)"/><use xlink:href="#cr" transform="matrix(1.69157 0 0 1.69157 -641.993 -511.418)"/><use xlink:href="#cs" transform="matrix(1.69157 0 0 1.69157 -641.993 -511.418)"/><use xlink:href="#ct" transform="matrix(1.69157 0 0 1.69157 -641.993 -511.418)"/><use xlink:href="#cu" transform="matrix(1.69157 0 0 1.69157 -641.993 -511.418)"/><use xlink:href="#cv" transform="matrix(1.69157 0 0 1.69157 -641.993 -511.418)"/><use xlink:href="#cw" transform="matrix(1.69157 0 0 1.69157 -641.993 -511.418)"/><use xlink:href="#cx" transform="matrix(1.69157 0 0 1.69157 -641.993 -511.418)"/><use xlink:href="#cy" transform="matrix(1.69157 0 0 1.69157 -641.993 -511.418)"/><use xlink:href="#cz" transform="matrix(1.69157 0 0 1.69157 -641.993 -511.418)"/><use xlink:href="#cA" transform="matrix(1.69157 0 0 1.69157 -641.993 -511.418)"/><use xlink:href="#cB" transform="matrix(1.69157 0 0 1.69157 -641.993 -511.418)"/><use xlink:href="#cC" transform="matrix(1.69157 0 0 1.69157 -641.993 -511.418)"/><use xlink:href="#cD" transform="matrix(1.69157 0 0 1.69157 -641.993 -511.418)"/><use xlink:href="#cE" transform="matrix(1.69157 0 0 1.69157 -641.993 -511.418)"/><use xlink:href="#cF" transform="matrix(1.69157 0 0 1.69157 -641.993 -511.418)"/><use xlink:href="#cG" transform="matrix(1.69157 0 0 1.69157 -641.993 -511.418)"/><use xlink:href="#cH" transform="matrix(1.69157 0 0 1.69157 -641.993 -511.418)"/><use xlink:href="#cI" transform="matrix(1.69157 0 0 1.69157 -641.993 -511.418)"/><use xlink:href="#cJ" transform="matrix(1.69157 0 0 1.69157 -641.993 -511.418)"/><use xlink:href="#cK" transform="matrix(1.69157 0 0 1.69157 -641.993 -511.418)"/><use xlink:href="#cL" transform="matrix(1.69157 0 0 1.69157 -641.993 -511.418)"/><use xlink:href="#cM" transform="matrix(1.69157 0 0 1.69157 -641.993 -511.418)"/><use xlink:href="#cN" transform="matrix(1.69157 0 0 1.69157 -641.993 -511.418)"/><use xlink:href="#cO" transform="matrix(1.69157 0 0 1.69157 -641.993 -511.418)"/><use xlink:href="#cP" transform="matrix(1.69157 0 0 1.69157 -641.993 -511.418)"/><use xlink:href="#cQ" transform="matrix(1.69157 0 0 1.69157 -641.993 -511.418)"/><use xlink:href="#cR" transform="matrix(1.69157 0 0 1.69157 -641.993 -511.418)"/><use xlink:href="#cS" transform="matrix(1.69157 0 0 1.69157 -641.993 -511.418)"/></svg>