<svg xmlns="http://www.w3.org/2000/svg" xmlns:xlink="http://www.w3.org/1999/xlink" preserveAspectRatio="none" width="19" height="19"><defs><path fill="#FFF" d="M0 0v19h19V0H0z" id="a"/><g id="b"><path fill="#D09D7F" d="M14.1 53.85q-3.85.45-5.25-1.6Q2 77.45.2 107.35q-.5 7.8.35 15.35 3.4-3.7 8.6-29.4 3.45-19.45 4.95-39.45z"/><path fill="#797979" d="M17.15 28.25l-3.2-.95q-3.5 11.5-5.1 24.95 1.4 2.05 5.25 1.6 2.85-12.8 3.05-25.6z"/><path fill="#7C6041" d="M13.95 27.3l3.2.95q4.95-3 5.45-9.9Q24.1 7.85 19.1 0q.4 4.5-3.4 8.45-2.7 2.65-3.5 7.2-1.25 5.85 1.75 11.65z"/></g><g id="d"><path fill="#A17DBE" d="M27.7 60.1q-.094-3.997-2.95-6.95-3-3-7.25-3t-7.25 3q-3 3.05-3 7.25 0 4.25 3 7.25 2.075 2.04 4.75 2.65 1.19.3 2.5.3 4.25 0 7.25-2.95 2.95-3 2.95-7.25v-.3z"/><path fill="#CBB282" d="M107 47.3q-2.85-1.85-1-6.25 5.6-6.328 7.25-12.05-44.9 1.072-85.55 31.1v.3q0 4.25-2.95 7.25-3 2.95-7.25 2.95-1.31 0-2.5-.3-4.487 3.908-8.95 8.15 1.449 3.024 3.2 6.15 14.7 26.1 62.25 16.05 27.25-8.25 42.5-25.4 9.65-11.4.35-22.15-3.05-3.55-7.35-5.8m-18.1-7.5q4.2 0 7.1 2.9 3 3 3 7.15t-3 7.1q-2.9 2.95-7.1 2.95-4.15 0-7.1-2.95-2.95-2.95-2.95-7.1 0-4.15 2.95-7.15 2.95-2.9 7.1-2.9M28 82.6q0-4.2 3-7.2 3.05-3 7.25-3 4.25 0 7.25 3 2.95 3 2.95 7.2 0 4.25-2.95 7.25-3 3-7.25 3-4.2 0-7.25-3-3-3-3-7.25m44.45-13.25q4.25 0 7.25 3t3 7.2q0 4.25-3 7.25t-7.25 3q-4.2 0-7.2-3t-3-7.25q0-4.2 3-7.2t7.2-3z"/><path fill="#F4981E" d="M79.7 72.35q-3-3-7.25-3-4.2 0-7.2 3t-3 7.2q0 4.25 3 7.25t7.2 3q4.25 0 7.25-3t3-7.25q0-4.2-3-7.2z"/><path fill="#E53E3E" d="M31 75.4q-3 3-3 7.2 0 4.25 3 7.25 3.05 3 7.25 3 4.25 0 7.25-3 2.95-3 2.95-7.25 0-4.2-2.95-7.2-3-3-7.25-3-4.2 0-7.25 3z"/><path fill="#EACE99" d="M112.65 18.35q-3.1-6.9-9.8-10.2Q44.5-16.6 6.95 33.75q-13.433 18.015-.9 44.7 4.463-4.242 8.95-8.15-2.675-.61-4.75-2.65-3-3-3-7.25 0-4.2 3-7.25 3-3 7.25-3t7.25 3q2.856 2.953 2.95 6.95Q68.35 30.072 113.25 29q1.64-5.622-.6-10.65m-14.85-4.8q2.95 3 2.95 7.2 0 4.25-2.95 7.3Q94.75 31 90.5 31q-4.2 0-7.2-2.95-3-3.05-3-7.3 0-4.2 3-7.2t7.2-3q4.25 0 7.3 3M68.65 15.8q3 3 3 7.2 0 4.25-3 7.25t-7.25 3q-4.2 0-7.2-3t-3-7.25q0-4.2 3-7.2t7.2-3q4.25 0 7.25 3m-35.5 9.3q4.25 0 7.25 3 2.95 3 2.95 7.2 0 4.25-2.95 7.25-3 3-7.25 3t-7.25-3q-3-3-3-7.25 0-4.2 3-7.2t7.25-3z"/><path fill="#35C1F9" d="M40.4 28.1q-3-3-7.25-3t-7.25 3q-3 3-3 7.2 0 4.25 3 7.25t7.25 3q4.25 0 7.25-3 2.95-3 2.95-7.25 0-4.2-2.95-7.2z"/><path fill="#B2D94B" d="M71.65 23q0-4.2-3-7.2t-7.25-3q-4.2 0-7.2 3t-3 7.2q0 4.25 3 7.25t7.2 3q4.25 0 7.25-3t3-7.25z"/><path fill="#F6EDE3" d="M100.75 20.75q0-4.2-2.95-7.2-3.05-3-7.3-3-4.2 0-7.2 3t-3 7.2q0 4.25 3 7.3 3 2.95 7.2 2.95 4.25 0 7.3-2.95 2.95-3.05 2.95-7.3z"/></g><path id="c" stroke="#333" stroke-opacity=".647" stroke-width="4" stroke-linejoin="round" stroke-linecap="round" fill="none" d="M13.95 27.3l3.2.95q4.95-3 5.45-9.9Q24.1 7.85 19.1 0q.4 4.5-3.4 8.45-2.7 2.65-3.5 7.2-1.25 5.85 1.75 11.65-3.5 11.5-5.1 24.95m8.3-24q-.2 12.8-3.05 25.6-1.5 20-4.95 39.45-5.2 25.7-8.6 29.4-.85-7.55-.35-15.35 1.8-29.9 8.65-55.1"/><path id="e" stroke="#333" stroke-opacity=".647" stroke-width="4" stroke-linejoin="round" stroke-linecap="round" fill="none" d="M113.25 29.025q1.64-5.647-.6-10.675-3.1-6.9-9.8-10.2Q44.5-16.6 6.95 33.75q-13.433 18.015-.875 44.7M113.25 29.025Q111.6 34.722 106 41.05q-1.85 4.4 1 6.25 4.3 2.25 7.35 5.8 9.3 10.75-.35 22.15-15.25 17.15-42.5 25.4Q23.95 110.7 9.25 84.6q-1.751-3.126-3.175-6.15M99 49.85q0 4.15-3 7.1-2.9 2.95-7.1 2.95-4.15 0-7.1-2.95-2.95-2.95-2.95-7.1 0-4.15 2.95-7.15 2.95-2.9 7.1-2.9 4.2 0 7.1 2.9 3 3 3 7.15z"/></defs><use xlink:href="#a"/><g transform="matrix(.11916 0 0 .11916 .7 1.8)"><use xlink:href="#b"/><use xlink:href="#c"/></g><g transform="matrix(.11916 0 0 .11916 4.25 5)"><use xlink:href="#d"/><use xlink:href="#e"/></g></svg>
