<svg xmlns="http://www.w3.org/2000/svg" xmlns:xlink="http://www.w3.org/1999/xlink" preserveAspectRatio="none" width="19" height="19"><defs><path fill="#7B3D00" d="M30.75-25.1l8.25-.1q-2.75-4.3-6.55-8.15-13.6-13.85-33-13.85t-33 13.85q-.6.6-1.15 1.25l9.4.25-9.4-.25Q-47.15-18.55-47.15.2q0 .85.05 1.65l7.25.55-7.25-.55q.45 16.2 10.4 28.35l10.3.5-10.3-.5q1.45 1.85 3.15 3.55 13.6 13.9 33 13.9t33-13.9q2.45-2.5 4.5-5.2l-9.2-.3 9.2.3Q44 19.2 45.6 7.5l-7.05-1.05L45.6 7.5q.4-2.65.5-5.4l-7 .3 7-.3V.25Q46.1-14 39-25.2l-8.25.1m-19.4 64.15l8.35-.3-8.35.3m-8.4 4.55l9.7-.5-9.7.5m-19.9-6.45l-7 .55 7-.55z" id="a"/><path fill="#F5DFB2" d="M-26.35 30.7q2.85 2.6 6 4.55L-9.7 35l-10.65.25Q-11.5 40.7-.5 40.7q16.2 0 27.85-11.95 1-1.05 1.95-2.1l-6.95-.55-5.9 3.8-17.5 1.3-14.05-1.85-11.25 1.35M30.8-25.1q-1.6-2.05-3.45-3.95-11.65-12-27.85-12-14.2 0-24.85 9.15l17-.2-17 .2q-1.55 1.3-3.05 2.85Q-31-26.4-33-23.5l63.8-1.6M39-.15q0-14.25-8.2-24.95L-33-23.5q-2.9 4.2-4.6 8.9l8.25-.25-8.25.25q-.8 2.1-1.3 4.3l11.7-.25-11.7.25q-1.15 4.8-1.15 10.15 0 1.3.1 2.55L-32.3.8l2.4-.55-2.4.55 7 .25-7-.25-7.65 1.6q.8 15.3 11.55 26.35 1 1 2.05 1.95l11.25-1.35 14.05 1.85 17.5-1.3 5.9-3.8 6.95.55q6.3-7.35 8.5-16.45l-9.25-.55 9.25.55q.45-1.85.75-3.75l-14.3-.3 14.3.3q.25-2 .4-4.05L24.8 2.1l14.15.3Q39 1.15 39-.15m-72.7 14.4h12.4-12.4m-.25-5.1h10-10z" id="c"/><path fill="#09F" d="M24.95-.05q0-10.75-7.4-18.25Q10.2-25.75-.2-25.75q-10.45 0-17.85 7.45-7.35 7.5-7.35 18.25 0 .55.05 1.1l20.25.25-20.25-.25q.15 4.3 1.5 8.1l9.05-.3-9.05.3q.95 2.7 2.55 5.1l18.6-.55-18.6.55q1.4 2.1 3.25 4 7.4 7.5 17.85 7.5 10.4 0 17.75-7.5Q22.7 13 24.3 6.15l-7.3-.8 7.3.8q.4-1.95.6-4.05l-20.3.3 20.3-.3q.05-1.05.05-2.15m-37.9-10.75h14.6-14.6m6.2-3.25H7-6.75z" id="e"/><path fill="red" d="M3.65-3.15Q2.2-4.6.05-4.6q-2.15 0-3.65 1.45Q-5.1-1.65-5.1.2q0 1.9 1.5 3.4T.05 5.1q2.15 0 3.6-1.5 1.5-1.5 1.5-3.35 0-1.9-1.5-3.4z" id="g"/><path id="b" stroke="#2A1500" stroke-width="2" stroke-linejoin="round" stroke-linecap="round" fill="none" d="M30.75-25.1l8.25-.1q-2.75-4.3-6.55-8.15-13.6-13.85-33-13.85t-33 13.85q-.6.6-1.15 1.25l9.4.25M39-25.2Q46.1-14 46.1.25V2.1q-.1 2.75-.5 5.4-1.6 11.7-8.65 21.05-2.05 2.7-4.5 5.2-13.6 13.9-33 13.9t-33-13.9q-1.7-1.7-3.15-3.55-9.95-12.15-10.4-28.35-.05-.8-.05-1.65 0-18.75 12.45-32.3m62.45 60.35l9.2.3m-25.6 10.5l8.35-.3M2.95 43.6l9.7-.5m25.9-36.65L45.6 7.5m-6.5-5.1l7-.3m-63.05 35.05l-7 .55m-12.75-7.5l10.3.5M-47.1 1.85l7.25.55"/><path id="d" stroke="#FFBA54" stroke-width="2" stroke-linejoin="round" stroke-linecap="round" fill="none" d="M-20.35 35.25q-3.15-1.95-6-4.55-1.05-.95-2.05-1.95Q-39.15 17.7-39.95 2.4q-.1-1.25-.1-2.55 0-5.35 1.15-10.15.5-2.2 1.3-4.3 1.7-4.7 4.6-8.9 2-2.9 4.6-5.55 1.5-1.55 3.05-2.85Q-14.7-41.05-.5-41.05q16.2 0 27.85 12 1.85 1.9 3.45 3.95Q39-14.4 39-.15q0 1.3-.05 2.55-.15 2.05-.4 4.05-.3 1.9-.75 3.75-2.2 9.1-8.5 16.45-.95 1.05-1.95 2.1Q15.7 40.7-.5 40.7q-11 0-19.85-5.45L-9.7 35m-29.2-45.3l11.7-.25m-10.4-4.05l8.25-.25m4-17.05l17-.2M-33.7 14.25h12.4m-8.6-14l-2.4.55 7 .25m-8.65 8.1h10m-16-6.75L-32.3.8m61.6 25.85l-6.95-.55-5.9 3.8-17.5 1.3-14.05-1.85-11.25 1.35m54.9-21.05l9.25.55M24.25 6.15l14.3.3M24.8 2.1l14.15.3M-33-23.5l63.8-1.6"/><path id="f" stroke="#06F" stroke-width="2" stroke-linejoin="round" stroke-linecap="round" fill="none" d="M-25.35 1.05q-.05-.55-.05-1.1 0-10.75 7.35-18.25 7.4-7.45 17.85-7.45 10.4 0 17.75 7.45 7.4 7.5 7.4 18.25 0 1.1-.05 2.15-.2 2.1-.6 4.05-1.6 6.85-6.75 12.1-7.35 7.5-17.75 7.5-10.45 0-17.85-7.5-1.85-1.9-3.25-4-1.6-2.4-2.55-5.1-1.35-3.8-1.5-8.1l20.25.25m-16.2 12.95l18.6-.55m-21.15-4.55l9.05-.3M17 5.35l7.3.8M4.6 2.4l20.3-.3m-37.85-12.9h14.6m-8.4-3.25H7"/><path id="h" stroke="#C00" stroke-width="1.8" stroke-linejoin="round" stroke-linecap="round" fill="none" d="M3.65-3.15q1.5 1.5 1.5 3.4 0 1.85-1.5 3.35Q2.2 5.1.05 5.1q-2.15 0-3.65-1.5T-5.1.2q0-1.85 1.5-3.35Q-2.1-4.6.05-4.6t3.6 1.45z"/></defs><g transform="matrix(.18118 0 0 .18071 9.55 9.45)"><use xlink:href="#a"/><use xlink:href="#b"/></g><g transform="matrix(.18118 0 0 .18071 9.55 9.45)"><use xlink:href="#c"/><use xlink:href="#d"/></g><g transform="matrix(.18118 0 0 .18071 9.55 9.45)"><use xlink:href="#e"/><use xlink:href="#f"/></g><g transform="matrix(.18118 0 0 .18071 9.55 9.45)"><use xlink:href="#g"/><use xlink:href="#h"/></g></svg>
