<svg xmlns="http://www.w3.org/2000/svg" xmlns:xlink="http://www.w3.org/1999/xlink" preserveAspectRatio="none" width="19" height="19"><defs><g id="a"><path fill="#FFF" d="M17.65 6.4q0-3.75-3.75-3.75H6.35Q2.6 2.65 2.6 6.4v7.65q0 3.8 3.75 3.8h7.55q3.75 0 3.75-3.8V6.4m-10.7 8.3V5.95l7.55 4.4-7.55 4.35z"/><path d="M6.95 5.95v8.75l7.55-4.35-7.55-4.4z"/><path fill="#FC0" d="M20.3 15.35v-4.9h-2.65v3.6q0 3.8-3.75 3.8H6.35q-3.75 0-3.75-3.8v-3.6H0v4.9q0 5.1 5.05 5.1h10.2q5.05 0 5.05-5.1z"/><path fill="#39F" d="M20.3 10.45v-5.4Q20.3 0 15.25 0H5.05Q0 0 0 5.05v5.4h2.6V6.4q0-3.75 3.75-3.75h7.55q3.75 0 3.75 3.75v4.05h2.65z"/></g></defs><use xlink:href="#a" transform="matrix(.86699 0 0 .86699 .75 .7)"/></svg>