<svg xmlns="http://www.w3.org/2000/svg" xmlns:xlink="http://www.w3.org/1999/xlink" preserveAspectRatio="none" width="19" height="19"><defs><path fill="#090" d="M8.3 3.4q-.003-1.407-1-2.4-.993-.996-2.4-1-1.407.004-2.4 1-.998.993-1 2.4.002 1.407 1 2.4.993.984 2.4.95-1.661.183-3.2 2.35-1.762 2.507-1.7 5.75.025 1.063 5.15 1.15 5.116.083 5.05-.95-.189-3.326-1.75-5.85-1.453-2.424-3.3-2.45 1.254-.06 2.15-.95.997-.993 1-2.4z" id="c"/><path id="e" stroke="#000" stroke-opacity=".651" stroke-width=".05" stroke-linejoin="round" stroke-linecap="round" fill="none" d="M5.4 7.3Q4 7.3 3 6.3T2 3.9q0-1.4 1-2.4t2.4-1q1.4 0 2.4 1t1 2.4q0 1.4-1 2.4-.9.9-2.1 1 1.8 0 3.3 2.45 1.5 2.45 1.7 5.8.05 1.05-5.05.95-5.1-.1-5.15-1.1-.05-3.3 1.7-5.75 1.55-2.2 3.2-2.35z"/><path id="f" stroke="#FFF" stroke-width="1" stroke-linejoin="round" stroke-linecap="round" fill="none" d="M3.7 3.95Q3.9 2.65 5 2.1M2.7 14.9q.3-4.25 2.7-5.8"/><path id="g" stroke="#000" stroke-width=".05" stroke-linejoin="round" stroke-linecap="round" fill="none" d="M5.45 7.3H5.4"/><radialGradient id="a" gradientUnits="userSpaceOnUse" cx="0" cy="0" r="9.668" fx="0" fy="0" gradientTransform="matrix(.48356 -.87531 .51459 .28186 8.15 13.8)" spreadMethod="pad"><stop offset="0%" stop-opacity=".412"/><stop offset="100%" stop-color="#013198" stop-opacity="0"/></radialGradient><radialGradient id="b" gradientUnits="userSpaceOnUse" cx="0" cy="0" r="5.021" fx="0" fy="0" gradientTransform="matrix(.77672 -.62984 .4008 .49292 6.9 5.15)" spreadMethod="pad"><stop offset="0%" stop-opacity=".424"/><stop offset="100%" stop-color="#013198" stop-opacity="0"/></radialGradient><g id="d"><path fill="url(#a)" d="M5.45 7.3H5.4q-1.65.15-3.2 2.35Q.45 12.1.5 15.4q.05 1 5.15 1.1 5.1.1 5.05-.95-.2-3.35-1.7-5.8Q7.5 7.3 5.7 7.3h-.25M2.7 14.9q.3-4.25 2.7-5.8-2.4 1.55-2.7 5.8z"/><path fill="url(#b)" d="M7.8 1.5q-1-1-2.4-1T3 1.5q-1 1-1 2.4t1 2.4q1 1 2.4 1h.3q1.2-.1 2.1-1 1-1 1-2.4t-1-2.4M3.7 3.95Q3.9 2.65 5 2.1q-1.1.55-1.3 1.85z"/></g><g id="h"><path fill="#A8A8A8" d="M18.4 14.7l.05-1.3-1.2-.25q0-.4-.3-.75l.35-.5q-1.4.35-2.55 1.05.15.05.25.15.35.35.35.85t-.35.85q-.35.35-.85.35-.45 0-.8-.35-.2-.2-.3-.45-1.05 1.25-1.55 3l.15.15.95-.7q.1.1.2.1.2.15.55.2l.2 1.05h1.25l.2-1.05q.25 0 .45-.15.15-.05.35-.15l.95.7.9-.95-.7-.95q.3-.4.3-.8l1.15-.1z"/><path fill="#E0E0E0" d="M11.65 10.5l-.95.9.7 1q-.3.35-.25.75l-1.2.25v1.3l1.2.1q-.05.4.25.8l-.7.95.8.8q.5-1.75 1.55-3-.1-.15-.1-.4 0-.5.4-.85.35-.35.8-.35.35 0 .6.2 1.15-.7 2.55-1.05l.35-.5-.9-.9-.95.7q-.2-.1-.35-.2-.2-.1-.45-.1l-.2-1.2h-1.25l-.2 1.2q-.35.05-.55.15-.1.05-.2.15l-.95-.7z"/></g></defs><use xlink:href="#c" transform="matrix(.99022 0 0 .99022 4.445 1.595)"/><g transform="matrix(.99022 0 0 .99022 3.95 1.1)"><use xlink:href="#d"/><use xlink:href="#e"/><use xlink:href="#f"/><use xlink:href="#g"/></g><g><use xlink:href="#h"/></g></svg>
