<svg xmlns="http://www.w3.org/2000/svg" xmlns:xlink="http://www.w3.org/1999/xlink" preserveAspectRatio="none" width="19" height="19"><defs><g id="a"><path d="M9.35-3.6q-.044-.129-.2-.2-3.466-.92-6 .6-1.275-1.214-4.3-.7-.067.037-.15.05-.035.066-.1.1l-4.45 7.1q-.065.106-.1.2v.1q.047.127.1.2l1.55 1.3q-.124.311-.15.65.027.586.4.95.415.42 1 .4.214.024.4-.05-.024.154-.05.3.027.586.4.95.415.42 1 .4.168.024.3 0l-.05.35q.027.586.4.95.415.42 1 .4.374.023.65-.15.107.363.35.6.415.42 1 .4.515.023.85-.3.44.291.85.5.05.02.1 0 .772.422 1.55.4h.05q.802-.096 1.1-.5.19-.22.2-.55l.15.1q.122.044.2 0 1.782-.352 1.9-1.8 1.35-.231 1.4-1.65 1.47-.39 1.25-1.8Q13.086 4.286 13 2.85q.019-.08-.05-.15l-3.6-6.3m-4.7 2.3q-.113.025-.2.1Q2.54.37.3.95-.076.84-.2.65-.21.421.05.05L0 .1q2.699-2.13 3.25-2.55v-.05q2.38-1.51 5.65-.65l3.45 6.05q.034 1.138-.8 2.25-2.716-2.565-6-6.35-.054-.024-.15-.05-.035-.027-.1-.05h-.65m.1.65h.4Q8.5 3.216 11.3 5.8q.071.854-.85 1.1L8.7 5.85q-.093-.051-.25-.05-.105.058-.2.15-.051.142-.05.25.059.155.15.2l1.7 1q-.017 1.01-1 1.15l-1.9-1q-.12-.039-.25 0-.12.035-.2.15-.039.12 0 .25.035.12.15.15l1.8.95q-.106.972-1.3 1.25l-.45-.25q-.025.014-.05 0L5.4 9.3q-.122-.051-.25 0-.133.036-.2.15-.052.122 0 .25.036.133.15.2l1.3.65q.062.273-.05.4-.202.246-.7.3-.613.016-1.25-.3-.006-.024-.05-.05l-.65-.55q.028-.174 0-.4.022-.586-.4-1-.365-.37-.95-.4-.392.028-.7.2-.063-.377-.35-.65-.365-.37-.95-.4H.3l-.25-.15q.025-.078 0-.15.022-.586-.4-1-.365-.37-.95-.4l-.4.05q.027-.1 0-.25.022-.586-.4-1-.365-.37-.95-.4-.393.024-.7.2l-1.4-1.1L-.9-3.25q2.425-.413 3.5.45-.74.615-3 2.4l-.1.05Q-.99.38-.8.85q.165.542 1 .75.1.047.15 0 2.389-.583 4.4-2.25m-4.4 9q.315.02.5.2.193.21.2.5v.05q.03.315-.2.5-.186.227-.5.2-.315.03-.55-.2-.178-.186-.2-.5.02-.315.2-.55.203-.144.45-.2.037.025.1 0m1.25 1.6q.02-.257.15-.45.063-.017.1-.05l.05-.05q.163-.18.45-.2.315.02.5.2.227.236.2.55.02.21-.05.35-.05.062-.1.15h-.05q-.186.227-.5.2-.315.03-.55-.2-.178-.186-.2-.5M-3.8 5.8q.024-.245.15-.45.038.001.05-.05l.1-.05q.2-.175.45-.2.315.02.5.2.227.236.2.55.02.21-.05.35-.068.114-.15.15-.186.227-.5.2-.315.03-.55-.2-.178-.186-.2-.5m3 1.05q.227.236.2.55.025.117 0 .2-.048.193-.2.3-.186.227-.5.2-.315.03-.55-.2-.178-.186-.2-.5.02-.315.2-.55.088-.026.15-.05l.05-.05q.166-.077.35-.1.315.02.5.2z"/><path fill="#CEA57E" d="M-.6 7.4q.027-.314-.2-.55-.185-.18-.5-.2-.184.023-.35.1l-.05.05q-.062.024-.15.05-.18.235-.2.55.022.314.2.5.235.23.55.2.314.027.5-.2.152-.107.2-.3.025-.083 0-.2m-3.05-2.05q-.126.205-.15.45.022.314.2.5.235.23.55.2.314.027.5-.2.082-.036.15-.15.07-.14.05-.35.027-.314-.2-.55-.185-.18-.5-.2-.25.025-.45.2l-.1.05q-.012.051-.05.05m5.4 4.15q-.13.193-.15.45.022.314.2.5.235.23.55.2.314.027.5-.2h.05q.05-.088.1-.15.07-.14.05-.35.027-.314-.2-.55-.185-.18-.5-.2-.287.02-.45.2l-.05.05q-.037.033-.1.05m-.9-.95q-.185-.18-.5-.2-.063.025-.1 0-.247.056-.45.2-.18.235-.2.55.022.314.2.5.235.23.55.2.314.027.5-.2.23-.185.2-.5v-.05q-.007-.29-.2-.5m3.6-9.75q.087-.075.2-.1h.65q.065.023.1.05.096.026.15.05 3.284 3.785 6 6.35.834-1.112.8-2.25L8.9-3.15q-3.27-.86-5.65.65v.05Q2.699-2.03 0 .1L.05.05q-.26.371-.25.6.124.19.5.3Q2.54.37 4.45-1.2z"/><path fill="#E6C8AB" d="M5.15-.65h-.4Q2.739 1.017.35 1.6q-.05.047-.15 0-.835-.208-1-.75-.19-.47.3-1.2l.1-.05q2.26-1.785 3-2.4-1.075-.863-3.5-.45L-5.15 3.5l1.4 1.1q.307-.176.7-.2.585.03.95.4.422.414.4 1 .027.15 0 .25l.4-.05q.585.03.95.4.422.414.4 1 .025.072 0 .15l.25.15h.05q.585.03.95.4.287.273.35.65.308-.172.7-.2.585.03.95.4.422.414.4 1 .028.226 0 .4l.65.55q.044.026.05.05.637.316 1.25.3.498-.054.7-.3.112-.127.05-.4L5.1 9.9q-.114-.067-.15-.2-.052-.128 0-.25.067-.114.2-.15.128-.051.25 0l1.45.75q.025.014.05 0l.45.25q1.194-.278 1.3-1.25l-1.8-.95q-.115-.03-.15-.15-.039-.13 0-.25.08-.115.2-.15.13-.039.25 0l1.9 1q.983-.14 1-1.15l-1.7-1q-.091-.045-.15-.2-.001-.108.05-.25.095-.092.2-.15.157-.001.25.05l1.75 1.05q.921-.246.85-1.1Q8.5 3.216 5.15-.65z"/></g><g id="b"><path d="M-9.35-9.8q-.094-.04-.2-.05-.12.053-.2.15-.076.087-.1.2V2.7q.03.08.05.15.06.077.1.1L-6.45 5q.106.073.2.05.08.023.15-.05.08-.02.1-.1l5.25-9.35q.101-.107.05-.25-.022-.106-.15-.2l-8.5-4.9m.15.85l7.75 4.45-4.9 8.8-2.85-1.8V-8.95M8.05-4.7q-.002.157.05.25l5.6 9.4q.084.125.2.15.13.047.25 0l2.45-1.3q.08-.045.1-.15.074-.056.05-.15V-9.25q.026-.114-.05-.2-.08-.098-.2-.15-.12.01-.25.05L8.2-4.9q-.092.094-.15.2m.8.2l7.25-4.2v12l-2 1.05L8.85-4.5z"/><path fill="#09F" d="M-1.45-4.5L-9.2-8.95V2.5l2.85 1.8 4.9-8.8M16.1-8.7L8.85-4.5l5.25 8.85 2-1.05v-12z"/></g></defs><use xlink:href="#a" transform="matrix(.67737 0 0 .67737 7.2 8.8)"/><use xlink:href="#b" transform="matrix(.67737 0 0 .67737 7.2 8.8)"/></svg>
