<svg xmlns="http://www.w3.org/2000/svg" xmlns:xlink="http://www.w3.org/1999/xlink" preserveAspectRatio="none" width="20" height="20"><defs><path d="M20.35 18.9V5.15H-1.8V18.9h22.15z" id="a"/><path fill="#FFF" d="M1 16.25v-8.6h-2.8v8.6H1m14.2-8.6H3.25v8.6H15.2v-8.6m5.15 8.7v-8.6H17.3v8.6h3.05z" id="b"/><path fill="#FFF" d="M13.15 17.15H11.6v.95h1.55v-.95m3.05.95v-.95h-1.55v.95h1.55m3.1 0v-.95h-1.55v.95h1.55m-18.55 0v-.95H-.8v.95H.75m1.5-.95v.95H3.8v-.95H2.25m7.7.95v-.95H8.4v.95h1.55m-3.05 0v-.95H5.35v.95H6.9M.65 6.85V5.9H-.9v.95H.65M3.7 5.9H2.15v.95H3.7V5.9m6.15 0H8.3v.95h1.55V5.9m-3.05 0H5.25v.95H6.8V5.9m7.75.95h1.55V5.9h-1.55v.95m-1.5-.95H11.5v.95h1.55V5.9m6.15 0h-1.55v.95h1.55V5.9z" id="c"/></defs><use xlink:href="#a" transform="matrix(.85576 0 0 .85576 2.1 -.25)"/><use xlink:href="#b" transform="matrix(.85576 0 0 .85576 2.1 -.25)"/><use xlink:href="#c" transform="matrix(.85576 0 0 .85576 2.1 -.25)"/></svg>
