<svg xmlns="http://www.w3.org/2000/svg" xmlns:xlink="http://www.w3.org/1999/xlink" preserveAspectRatio="none" width="19" height="19"><defs><path d="M16.2 2.75q-.645-.641-1.35-1.15-2.354-1.631-5.4-1.65L8.7 0Q6.263.176 4.3 1.5q-.806.532-1.55 1.25l-.55.6Q-.021 5.976-.05 9.45q.03 3.938 2.8 6.7 2.651 2.66 6.25 2.8.25.025.45 0 3.95.02 6.75-2.8 2.296-2.274 2.7-5.35.076-.64.05-1.35.033-3.9-2.75-6.7z" id="a"/><g id="b"><path fill="#C00" d="M-.65 5.65V.45h-5.2v5.2h5.2z"/><path fill="#02A9D2" d="M-5.85-.55h5.2V-5.8h-5.2v5.25z"/><path fill="#F9C931" d="M5.8.45H.65v5.2H5.8V.45z"/><path fill="#90C" d="M.65-5.8v5.25H5.8l.05-5.25H.65z"/></g></defs><use xlink:href="#a" transform="matrix(.9763 0 0 .9582 .225 .495)"/><use xlink:href="#b" transform="matrix(.9763 0 0 .9582 9.5 9.55)"/></svg>
