<svg xmlns="http://www.w3.org/2000/svg" xmlns:xlink="http://www.w3.org/1999/xlink" preserveAspectRatio="none" width="19" height="19"><defs><g id="a"><path fill="#A66019" d="M12.85 12.95l-2.9-4.2-.5.3 2.9 4.3.5-.4z"/><path fill="#774009" d="M9.95 8.75l2.9 4.2.6-.4-2.9-4.25-.6.45z"/></g><g id="b"><path fill="#774009" d="M13.85 11.85q-.25-.25-.75-.25-.3-.05-.55.1l4.1 6.3q.35-.25.4-.5.2-.45-.05-.7l-3.15-4.95z"/><path fill="#A66019" d="M12.2 11.85q0 .1-.1.1-.35.2-.55.6-.15.45.05.75l3.15 4.9q.25.3.7.35.45-.05.8-.3.1.05.15-.1.2-.05.25-.15l-4.1-6.3q-.15.1-.35.15z"/></g><g id="c"><path fill="#774009" d="M14 7.05l-.95-1.45q-.4.1-.7.25Q9.1 7.2 6.45 9.7q-.35.25-.55.5l1 1.6q1.3-2 3.1-3.1 1.8-1.15 4-1.65z"/><path fill="#A66019" d="M13.05 5.6l-2.3-3.55q-1.25 1.9-3.05 3Q5.9 6.2 3.65 6.7l2.25 3.5q.2-.25.55-.5 2.65-2.5 5.9-3.85.3-.15.7-.25z"/></g><g id="e"><path fill="#774009" d="M3.65 12l.15.25q.55.55 1.15.75.8.2 1.3-.2.7-.4.85-1.15.15-.8-.25-1.3l-.6-.9Q4.8 10.65 3.65 12m12.1-7.4l-.15-.25q-1.85.45-3.45 1.2l.6.95q.45.6 1.15.75.7.1 1.35-.25.6-.45.8-1.1.1-.8-.3-1.3z"/><path fill="#A66019" d="M3.7 6.45q-.65-.15-1.3.35-.6.4-.8 1-.2.75.2 1.35L3.65 12q1.15-1.35 2.6-2.55L4.8 7.15q-.35-.55-1.1-.7m7.65-5.5q-.65.4-.9 1.1-.05.75.35 1.35l1.35 2.15q1.6-.75 3.45-1.2L13.75 1.4q-.4-.5-1.05-.75-.8-.2-1.35.3z"/></g><path fill="#FFF" fill-opacity=".247" d="M12.75 13.85q-.05.05.1.05.15 0 .25-.05.1-.1.05-.15.1-.1.1-.2l-.6-1q-.1-.1-.25-.05-.1 0-.15.05-.1.05-.2.2-.1.05 0 .15l.7 1m-3.2-9q-.2.05-.3.1L6.9 6.55q-.15 0-.2.1-.05.25.1.4.05.1.2.2.2 0 .3-.05l2.4-1.6q.15-.1.2-.2.1-.25.05-.35-.15-.1-.4-.2z" id="d"/><path fill="#FFF" fill-opacity=".247" d="M2.4 7.9q-.25.25-.3.5-.1.35.15.6l1.8 2.9q.2.25.4.3.4.15.65-.1.2-.15.25-.45.15-.3-.05-.55L3.45 8.15q-.15-.25-.5-.3-.35-.05-.55.05m13.1-2.85q.05-.3-.1-.5L13.5 1.6q-.15-.25-.5-.25-.25-.05-.6.1-.3.15-.3.5-.1.25.15.55l1.8 2.9q.2.25.5.25.3.05.6-.05.3-.15.35-.55z" id="f"/></defs><use xlink:href="#a"/><use xlink:href="#b"/><use xlink:href="#c"/><use xlink:href="#d"/><use xlink:href="#e"/><use xlink:href="#f"/></svg>
