<svg xmlns="http://www.w3.org/2000/svg" xmlns:xlink="http://www.w3.org/1999/xlink" preserveAspectRatio="none" width="20" height="20"><defs><path fill="#FFC000" d="M17.45 11.5q0-3.1-2.15-5.35-2.2-2.25-5.25-2.25-2.55 0-4.5 1.45L7.3 7.3q1.2-.8 2.75-.8 2 0 3.45 1.45 1.45 1.5 1.45 3.55 0 2.15-1.45 3.6-1.45 1.5-3.45 1.5-2.1 0-3.55-1.5-1.45-1.45-1.45-3.55h-2.5q0 3.15 2.15 5.4 2.2 2.25 5.35 2.25 3.05 0 5.25-2.25 2.15-2.25 2.15-5.45z" id="a"/><path fill="#FFC000" d="M5.25 5.35l4.8 4.7V.7l-4.8 4.65z" id="b"/></defs><use xlink:href="#a"/><use xlink:href="#b"/></svg>
