<svg xmlns="http://www.w3.org/2000/svg" xmlns:xlink="http://www.w3.org/1999/xlink" preserveAspectRatio="none" width="19" height="19"><defs><path fill="#09F" d="M15.3-12.55q0-6-5.6-10.35-5.5-4.2-13.4-4.2-.85 0-2 .1-6.45.45-11.4 4.1-5.6 4.35-5.6 10.35 0 6.2 5.6 10.4 1.6 1.2 3.25 2.15-.5 4.2-5.35 8.3 7.05-1.05 12-6.3 1.7.2 3.5.2 7.9 0 13.4-4.35 2-1.45 3.3-3.35 2.3-3.15 2.3-7.05z" id="a"/><path fill="#0F3" d="M23.8-6.3h-14v-13.8H-.55v13.8H-4.5q-4.847-.003-9.7 0V4.05H-.55V17.9H9.8V4.05h14V-6.3z" id="c"/><path id="b" stroke="#FFF" stroke-opacity=".451" stroke-width="1" stroke-linejoin="round" stroke-linecap="round" fill="none" d="M9.05-18.55q-12.95-9.8-25.65-.25"/></defs><use xlink:href="#a" transform="matrix(-.41286 0 0 .41286 7.1 13.95)"/><use xlink:href="#b" transform="matrix(-.41286 0 0 .41286 7.1 13.95)"/><g><use xlink:href="#c" transform="matrix(.21178 0 0 .21178 13.35 6.3)"/></g></svg>
