<svg xmlns="http://www.w3.org/2000/svg" xmlns:xlink="http://www.w3.org/1999/xlink" preserveAspectRatio="none" width="19" height="19"><defs><radialGradient id="b" gradientUnits="userSpaceOnUse" cx="0" cy="0" r="9.8" fx="0" fy="0" gradientTransform="matrix(1 0 0 .52551 16.45 9.15)" spreadMethod="pad"><stop offset="0%" stop-color="#FFEFCC"/><stop offset="100%" stop-color="#E8BD17"/></radialGradient><radialGradient id="c" gradientUnits="userSpaceOnUse" cx="0" cy="0" r="16.901" fx="0" fy="0" gradientTransform="matrix(.86605 .49996 -.4112 .71222 0 0)" spreadMethod="pad"><stop offset="0%" stop-color="#FFF"/><stop offset="100%" stop-color="#FFF" stop-opacity="0"/></radialGradient><radialGradient id="d" gradientUnits="userSpaceOnUse" cx="0" cy="0" r="21.825" fx="0" fy="0" spreadMethod="pad"><stop offset="0%" stop-color="#FFF"/><stop offset="100%" stop-color="#FFF" stop-opacity="0"/></radialGradient><path fill="url(#c)" d="M4.65-1.85L2-4.85v-19.4h-4v19.4l-2.7 3-24.6.05v3.65h24.6l2.7 3V28.9h4V4.85l2.7-3h-.05 24.4v-3.7H4.65z" id="f"/><path fill="url(#d)" d="M1.55-3.65q-.35-.15-.4-.45.025-.011 0-.05v-20.1h-2.4v20.1q0 .2-.3.45L-3.6-1.35q-.2.3-.45.3H-23.7V1.1h19.65q.2 0 .45.3l1.85 2.25q.5.05.5.5v20.1h2.4V4.15q.05-.45.5-.5l1.8-2.1q0-.45.5-.45h20.3v-2.15H3.95q-.4-.2-.45-.25L1.55-3.65z" id="g"/><linearGradient id="a" gradientUnits="userSpaceOnUse" x1="0" y1="13.85" x2="32.6" y2="13.85" spreadMethod="pad"><stop offset="1.569%" stop-color="#E8BD17"/><stop offset="47.059%" stop-color="#FFEFCC"/><stop offset="100%" stop-color="#E8BD17"/></linearGradient><g id="e"><path d="M33.1 7.65q.069-3.436-5.05-5.85-4.818-2.299-11.7-2.3Q9.468-.499 4.6 1.8q-4.956 2.354-5 5.7L-.5 12q.001.203.15.35-.057.097-.05.2.042 3.345 5 5.7 4.868 2.299 11.75 2.3 6.882-.001 11.7-2.3 5.008-2.355 5.05-5.7v-4.9m-1 0v.1q-.102 2.814-4.45 4.85h-.05q-4.632 2.201-11.25 2.2-6.618.001-11.3-2.2Q.668 10.514.6 7.65v-.1Q.775 4.737 5.05 2.7 9.732.499 16.35.5 22.968.499 27.6 2.7q4.432 2.086 4.5 4.95m-4.05 5.85q2.804-1.312 4.05-2.95v1.95q-.157 2.804-4.5 4.85-4.632 2.201-11.25 2.2-6.618.001-11.3-2.2Q.757 15.304.6 12.5q-.003-.173-.15-.3.049-.099.05-.2v-1.55q1.268 1.696 4.1 3.05 4.868 2.299 11.75 2.3 6.882-.001 11.7-2.3z"/><path fill="url(#a)" d="M28.05 13.5q-4.818 2.299-11.7 2.3-6.882-.001-11.75-2.3-2.832-1.354-4.1-3.05V12q-.001.101-.05.2.147.127.15.3.157 2.804 4.45 4.85 4.682 2.201 11.3 2.2 6.618.001 11.25-2.2 4.343-2.046 4.5-4.85v-1.95q-1.246 1.638-4.05 2.95z"/><path fill="url(#b)" d="M32.1 7.75v-.1q-.068-2.864-4.5-4.95Q22.968.499 16.35.5 9.732.499 5.05 2.7.775 4.737.6 7.55v.1q.068 2.864 4.45 4.95 4.682 2.201 11.3 2.2 6.618.001 11.25-2.2h.05q4.348-2.036 4.45-4.85z"/></g></defs><use xlink:href="#e" transform="matrix(.32061 0 0 .32086 2.112 10.7)"/><use xlink:href="#f" transform="matrix(.19873 0 0 .19903 6.12 15.528)"/><use xlink:href="#g" transform="matrix(.19873 0 0 .19903 6.12 15.528)"/><use xlink:href="#e" transform="matrix(.32061 0 0 .32086 6.932 8.668)"/><use xlink:href="#f" transform="matrix(.19873 0 0 .19903 10.94 13.497)"/><use xlink:href="#g" transform="matrix(.19873 0 0 .19903 10.94 13.497)"/><g><use xlink:href="#e" transform="matrix(.32061 0 0 .32086 2.81 6.243)"/><use xlink:href="#f" transform="matrix(.19873 0 0 .19903 6.817 11.072)"/><use xlink:href="#g" transform="matrix(.19873 0 0 .19903 6.817 11.072)"/></g><g><use xlink:href="#e" transform="matrix(.32061 0 0 .32086 6.932 2.666)"/><use xlink:href="#f" transform="matrix(.19873 0 0 .19903 10.94 7.495)"/><use xlink:href="#g" transform="matrix(.19873 0 0 .19903 10.94 7.495)"/></g><g><use xlink:href="#e" transform="matrix(.32061 0 0 .32086 5.083 1.302)"/><use xlink:href="#f" transform="matrix(.19873 0 0 .19903 9.09 6.13)"/><use xlink:href="#g" transform="matrix(.19873 0 0 .19903 9.09 6.13)"/></g></svg>
