<svg xmlns="http://www.w3.org/2000/svg" xmlns:xlink="http://www.w3.org/1999/xlink" preserveAspectRatio="none" width="19" height="19"><defs><g id="a"><path fill="#CCC" d="M13.9 5.35q-.6-.65-.6-1.55l2.1-2.05q-1.65-.35-3 .35-2.5 1.3-1.35 4.45l-9.3 8.85q-.4.45-.35 1.2.1.65.6 1 .08.05.15.1l.8-.8q-.125-.05-.25-.15-.2-.2-.2-.45 0-.3.2-.5.25-.2.55-.2.25 0 .45.2.1.1.15.2l10.4-10.4q-.188-.101-.35-.25z"/><path fill="#AFAFAF" d="M17.65 4.05L15.6 6.1q-.581-.106-1.05-.3-.142-.081-.3-.2L3.85 16q.016.05 0 .05.05.127.05.25 0 .25-.2.45t-.45.2q-.133 0-.25-.05h-.05l-.8.8q1.136.572 2.25-.45l7.75-8.05q.75-.95 1.6-.65 1.9.5 3.05-.6 1.6-1.6.85-3.9z"/></g><g id="b"><path fill="#CCC" d="M4.1 2.5l-1.95-.9-.45.3 6.5 6.4.65-.7L5.1 3.95l-1-1.45z"/><path fill="#AFAFAF" d="M2.25 4.25l1.9 1.35L7.6 8.9l.6-.6-6.5-6.4-.3.25.85 2.1z"/><path fill="#FE9900" d="M10.85 8.4q-.2-.6-.5-1.05-.8-.65-1.5.25l-.65.7-.6.6-.5.45q-.3.5.1 1.05.35.4 1 .55l2.65-2.55z"/><path fill="#FEC207" d="M12.6 10.55q-1.4-1.2-1.7-2 0-.1-.05-.15L8.2 10.95h.1q.55.05 2.2 1.85l3.3 4.4q.85 1.1 2.5.8 1.3-.45 1.55-1.9.2-1.4-1.6-2.65l-3.65-2.9z"/></g></defs><use xlink:href="#a"/><use xlink:href="#b"/></svg>
