<svg xmlns="http://www.w3.org/2000/svg" xmlns:xlink="http://www.w3.org/1999/xlink" preserveAspectRatio="none" width="20" height="20"><defs><path fill="#FFF" d="M113.3 67.75l-20-3.5Q85.1 90.85 62.05 93q-17.95 1.55-27.5-8L47.3 72.25 0 63l9.5 46.5 10-9.25q31.9 22.1 61.05 9 21.95-9.95 32.75-41.5m-9-63.1l-10 9.25q-31.9-22.1-61.05-9Q11.3 14.85.5 46.4l20 3.5q8.2-26.6 31.25-28.75 17.95-1.55 27.5 8L66.5 41.9l47.3 9.25-9.5-46.5z" id="a"/></defs><use xlink:href="#a" transform="matrix(.15607 0 0 .15607 1.1 1.05)"/></svg>
