<svg xmlns="http://www.w3.org/2000/svg" width="22" height="22"><style>.st1{fill:#ffa600}</style><linearGradient id="SVGID_1_" gradientUnits="userSpaceOnUse" x1="0" y1="0" x2="0" y2="-1"><stop offset="0" stop-color="#656565"/><stop offset=".618" stop-color="#1b1b1b"/><stop offset=".629" stop-color="#545454"/><stop offset=".983" stop-color="#3e3e3e"/></linearGradient><path d="M2.438 10.75s.625 5 1.625 5.25h14s1.563-2.438 1.563-5.375L18 10s-3.063 3.5-5.813-1.313l-2.562-.062S8.187 13.313 4 10s-.062-.25-.062-.25l-1.5 1" fill="#ffc025" id="Capa_4"/><g id="Capa_2"><circle class="st1" cx="2.688" cy="8.875" r="1.938"/><circle class="st1" cx="19.313" cy="8.813" r="1.938"/><circle class="st1" cx="11.063" cy="7.313" r="1.938"/><path class="st1" d="M17.219 18.438H4.844a.781.781 0 01-.781-.781V16h14v1.594a.844.844 0 01-.844.844z"/></g></svg>
