<svg xmlns="http://www.w3.org/2000/svg" xmlns:xlink="http://www.w3.org/1999/xlink" preserveAspectRatio="none" width="20" height="20"><defs><path fill="#FFF" d="M.8 10.05q8.95 10.7 18.4 0Q9.75-.6.8 10.05m11.4-2.2q.9.9.9 2.2 0 1.25-.9 2.15-.9.9-2.15.9-1.3 0-2.2-.9-.9-.9-.9-2.15 0-1.3.9-2.2.9-.9 2.2-.9 1.25 0 2.15.9m.9 2.2q0-1.3-.9-2.2-.9-.9-2.15-.9-1.3 0-2.2.9-.9.9-.9 2.2 0 1.25.9 2.15.9.9 2.2.9 1.25 0 2.15-.9.9-.9.9-2.15z" id="a"/><path id="b" stroke="#999" stroke-width="1.5" stroke-linejoin="round" stroke-linecap="round" fill="none" d="M13.1 10.05q0 1.25-.9 2.15-.9.9-2.15.9-1.3 0-2.2-.9-.9-.9-.9-2.15 0-1.3.9-2.2.9-.9 2.2-.9 1.25 0 2.15.9.9.9.9 2.2zm6.1 0Q9.75-.6.8 10.05q8.95 10.7 18.4 0z"/></defs><g><use xlink:href="#a"/><use xlink:href="#b"/></g></svg>
