<svg xmlns="http://www.w3.org/2000/svg" width="22" height="22"><style></style><linearGradient id="SVGID_1_" gradientUnits="userSpaceOnUse" x1="0" y1="0" x2="0" y2="-1"><stop offset="0" stop-color="#656565"/><stop offset=".618" stop-color="#1b1b1b"/><stop offset=".629" stop-color="#545454"/><stop offset=".983" stop-color="#3e3e3e"/></linearGradient><circle cx="11.109" cy="10.891" r="10.734" fill="#1877f2" id="Capa_4"/><path d="M13.941 7.365l2.086-.052L16 4.438a.157.157 0 00-.044-.088c-.081-.016-.157-.037-.236-.056-.523-.102-1.545-.247-1.955-.247-.443 0-.891.016-1.359.109-3.043.609-3.218 3.219-3.218 3.219v3.462H6.625v3.038h2.563l.005 7.576c1.906.453 3.933-.013 3.933-.013v-7.375h2.313l.589-3.225h-2.964V8.479c.007-.973.877-1.114.877-1.114z" fill="#fff" id="Capa_1"/></svg>
