<svg xmlns="http://www.w3.org/2000/svg" xmlns:xlink="http://www.w3.org/1999/xlink" preserveAspectRatio="none" width="19" height="19"><defs><path fill="#09F" d="M9.15-16.7l-3.2 3.55L3.2-17.1l-1.95 4.35-3.85-2.95-.5 4.8-4.5-1.6.95 4.7-4.8-.2 2.35 4.25-4.6 1.4 3.55 3.2-3.95 2.75 4.4 1.95-3 3.8 4.8.55-1.6 4.5 4.7-1-.1 4.75 4.15-2.35 1.4 4.65 3.2-3.6L6.6 20.9l1.95-4.4 3.8 2.9.55-4.8 4.5 1.6-.95-4.7 4.8.2-2.35-4.25 4.55-1.3-3.5-3.3L23.9.2l-4.4-1.95 2.9-3.85-4.8-.5 1.6-4.6-4.7 1.05.2-4.8-4.25 2.35-1.3-4.6z" id="a"/><path fill="#FFF" fill-opacity=".451" d="M10.45-12.1l-1.3-4.6-3.2 3.55L3.2-17.1l-1.95 4.35-3.85-2.95-.5 4.8-4.5-1.6.95 4.7-3.9-.1Q3.3 3.3 20.05 7.15l3.4-1-3.5-3.3L23.9.2l-4.4-1.95 2.9-3.85-4.8-.5 1.6-4.6-4.7 1.05.2-4.8-4.25 2.35z" id="b"/></defs><use xlink:href="#a" transform="translate(7.194 8.598) scale(.47345)"/><use xlink:href="#b" transform="translate(7.194 8.598) scale(.47345)"/></svg>
