<svg xmlns="http://www.w3.org/2000/svg" xmlns:xlink="http://www.w3.org/1999/xlink" preserveAspectRatio="none" width="19" height="19"><defs><g id="a"><path fill="#D70000" d="M15.85 3.15q-.35-.3-.65-.6Q12.75.5 9.5.5 5.75.5 3.15 3.15.5 5.8.5 9.5q0 .7.1 1.35.35 2.85 2.55 5.05 2.6 2.6 6.35 2.6 3.75 0 6.35-2.6 2.6-2.65 2.6-6.4 0-3.7-2.6-6.35M11.25 3q.35-.15.8-.25.35 1.1.65 2.25-.35.05-.7.3-1.45.9-1.5 2.7l-.05.05q.8-.25 1.7-.55.35 1.15.65 2.3-1.35.35-2.7.8 0 .55-.05 1.15-.25 1.7-1.05 3-.9 1.35-3 2-.4-1.15-.65-2.25 1.95-.75 2.2-2.4.05-.35.05-.8.15-1.4.35-2.8v-.05q.15-1.75.8-3.15.7-1.45 2.5-2.3z"/><path fill="#F7F6F6" d="M12.05 2.75q-.45.1-.8.25-1.8.85-2.5 2.3-.65 1.4-.8 3.15v.05q-.2 1.4-.35 2.8 0 .45-.05.8-.25 1.65-2.2 2.4.25 1.1.65 2.25 2.1-.65 3-2 .8-1.3 1.05-3 .05-.6.05-1.15 1.35-.45 2.7-.8-.3-1.15-.65-2.3-.9.3-1.7.55L10.5 8q.05-1.8 1.5-2.7.35-.25.7-.3-.3-1.15-.65-2.25z"/><path fill-opacity=".498" d="M21.15 17.7q-.1.15-.05.35 0 .05.05.15v-.5z"/></g></defs><use xlink:href="#a"/></svg>
