<svg xmlns="http://www.w3.org/2000/svg" xmlns:xlink="http://www.w3.org/1999/xlink" preserveAspectRatio="none" width="20" height="20"><defs><path id="b" stroke="#000" stroke-opacity=".647" stroke-width="4" stroke-linejoin="round" stroke-linecap="round" fill="none" d="M0 36V15Q0 0 15 0h101.7q15 0 15 15v101.7q0 15-15 15H15q-15 0-15-15V36h131.7"/><g id="a"><path fill="#FFF" d="M0 116.7q0 15 15 15h101.7q15 0 15-15V36H0v80.7M79.45 12.75q-2.4-2.35-5.75-2.35-3.4 0-5.8 2.35-2.35 2.4-2.35 5.8t2.35 5.75q2.4 2.4 5.8 2.4 3.35 0 5.75-2.4 2.4-2.35 2.4-5.75t-2.4-5.8m20.8 0Q97.9 10.4 94.5 10.4t-5.8 2.35q-2.35 2.4-2.35 5.8t2.35 5.75q2.4 2.4 5.8 2.4t5.75-2.4q2.4-2.35 2.4-5.75t-2.4-5.8m6.5 5.8q0 3.4 2.35 5.75 2.4 2.4 5.8 2.4t5.75-2.4q2.4-2.35 2.4-5.75t-2.4-5.8q-2.35-2.35-5.75-2.35t-5.8 2.35q-2.35 2.4-2.35 5.8z"/><path fill="#333" d="M131.7 36V15q0-15-15-15H15Q0 0 0 15v21h131.7m-22.6-11.7q-2.35-2.35-2.35-5.75t2.35-5.8q2.4-2.35 5.8-2.35t5.75 2.35q2.4 2.4 2.4 5.8t-2.4 5.75q-2.35 2.4-5.75 2.4t-5.8-2.4M94.5 10.4q3.4 0 5.75 2.35 2.4 2.4 2.4 5.8t-2.4 5.75q-2.35 2.4-5.75 2.4t-5.8-2.4q-2.35-2.35-2.35-5.75t2.35-5.8q2.4-2.35 5.8-2.35m-20.8 0q3.35 0 5.75 2.35 2.4 2.4 2.4 5.8t-2.4 5.75q-2.4 2.4-5.75 2.4-3.4 0-5.8-2.4-2.35-2.35-2.35-5.75t2.35-5.8q2.4-2.35 5.8-2.35z"/></g></defs><g transform="matrix(.10838 0 0 .10838 4.578 1.05)"><use xlink:href="#a"/><use xlink:href="#b"/></g><g transform="matrix(.10838 0 0 .10838 1.05 4.578)"><use xlink:href="#a"/><use xlink:href="#b"/></g></svg>
