<svg xmlns="http://www.w3.org/2000/svg" width="331" height="236"><style></style><switch><g><linearGradient id="SVGID_1_" gradientUnits="userSpaceOnUse" x1="-103" y1="-172" x2="-103" y2="-173"><stop offset="0" stop-color="#656565"/><stop offset=".618" stop-color="#1b1b1b"/><stop offset=".629" stop-color="#545454"/><stop offset=".983" stop-color="#3e3e3e"/></linearGradient><g id="Capa_2"><linearGradient id="SVGID_2_" gradientUnits="userSpaceOnUse" x1="63.5" y1="116" x2="257.5" y2="116"><stop offset=".5" stop-color="#02a9d3"/><stop offset=".5" stop-color="#70cfe5"/></linearGradient><path fill="url(#SVGID_2_)" d="M63.5 5.5l21 200 77 21 76-21 20-200z"/></g><path fill="#fff" d="M221 44.5L99 45l7 75h83.5v31l-29.5 8.5-28.5-7v-18h-25L110 172l50 15.5 52-15.5 4.5-77.5h-87L127 70h94z" id="Capa_4"/><path d="M253.667 43.75S380.25 11.917 274.25 79.917s-229 98-229 98-86.333 17.25 30.667-53.75l1.333 12.75s-48 32 1 20c0 0 56-5 184-82 0 0 33.917-21.917-10.083-15.917l1.5-15.25z" fill="#f9c92e" id="Capa_3"/></g></switch></svg>
