<svg xmlns="http://www.w3.org/2000/svg" xmlns:xlink="http://www.w3.org/1999/xlink" preserveAspectRatio="none" width="19" height="19"><defs><path fill="url(#a)" d="M66.9 25.55q0-10.6-9.8-18.1Q47.3 0 33.45 0 19.6 0 9.8 7.45 0 14.95 0 25.55q0 10.6 9.8 18.05 9.8 7.5 23.65 7.5 8.55 0 16.8-2.45l12.9 6.1-3.4-13.35q7.15-6.8 7.15-15.85z" id="e"/><path fill="url(#b)" d="M5.9-7.1q-2.45-2-5.65-2-3.75 0-6.35 2.65-2.65 2.6-2.6 6.3-.05.65.05 1.3.4 2.9 2.55 5.05Q-3.5 8.8.25 8.8q3.7 0 6.3-2.6 2.6-2.65 2.6-6.35 0-3.7-2.6-6.3L5.9-7.1z" id="g"/><path fill="url(#c)" d="M-20.5 9l3.7.65h25l13.7-19H-9.9L-20.5 9M6.55-6.45q1.2 1.15 1.85 2.6L-8 3.45q-.5-1.1-.65-2.3-.1-.65-.05-1.3-.05-3.7 2.6-6.3Q-3.5-9.1.25-9.1q3.2 0 5.65 2l.65.65z" id="h"/><path id="f" stroke="url(#d)" stroke-width="4" stroke-linejoin="round" stroke-linecap="round" fill="none" d="M-24.45-6.2q1.85-2.3 4.6-4.35 9.1-6.65 21.9-6.65 12.95 0 22 6.65 2.8 2.05 4.8 4.35"/><radialGradient id="b" gradientUnits="userSpaceOnUse" cx="0" cy="0" r="12.725" fx="0" fy="0" gradientTransform="matrix(1 0 0 .99902 -1.7 .65)" spreadMethod="pad"><stop offset="56.471%" stop-color="#02A9D2"/><stop offset="81.569%" stop-color="#FFF"/></radialGradient><radialGradient id="c" gradientUnits="userSpaceOnUse" cx="0" cy="0" r="21.036" fx="0" fy="0" gradientTransform="matrix(.91154 -.4112 .06358 .14024 .2 -.15)" spreadMethod="pad"><stop offset="64.706%" stop-color="#F9C931" stop-opacity="0"/><stop offset="72.549%" stop-color="#F9C931"/><stop offset="92.549%" stop-color="#F9C931"/><stop offset="100%" stop-color="#F9C931" stop-opacity="0"/></radialGradient><linearGradient id="a" gradientUnits="userSpaceOnUse" x1="33.5" y1="-2.1" x2="33.5" y2="56.9" spreadMethod="pad"><stop offset="0%"/><stop offset="100%" stop-color="#006"/></linearGradient><linearGradient id="d" gradientUnits="userSpaceOnUse" x1="-25.05" y1="-15.337" x2="-25.05" y2="-8.063" spreadMethod="pad"><stop offset="0%" stop-color="#FFF"/><stop offset="42.353%" stop-color="#C6C6C6" stop-opacity=".451"/><stop offset="99.216%" stop-color="#9F9D9D" stop-opacity="0"/></linearGradient></defs><use xlink:href="#e" transform="matrix(.25918 0 0 .27147 .825 2.069)"/><use xlink:href="#f" transform="matrix(.25918 0 0 .27147 8.976 7.851)"/><g><use xlink:href="#g" transform="matrix(.3551 0 0 .37392 9.291 9.446)"/><use xlink:href="#h" transform="matrix(.3551 0 0 .37392 9.291 9.446)"/></g></svg>
