<svg xmlns="http://www.w3.org/2000/svg" xmlns:xlink="http://www.w3.org/1999/xlink" preserveAspectRatio="none" width="19" height="19"><defs><radialGradient id="a" gradientUnits="userSpaceOnUse" cx="0" cy="0" r="400.759" fx="0" fy="0" gradientTransform="rotate(16.05 -1214.016 1612.516)" spreadMethod="pad"><stop offset="29.02%" stop-color="#BAEEF5"/><stop offset="79.216%" stop-color="#72CDD9"/><stop offset="96.078%" stop-color="#6AB9C9"/><stop offset="100%" stop-color="#88C6CC"/></radialGradient><radialGradient id="b" gradientUnits="userSpaceOnUse" cx="0" cy="0" r="400.759" fx="0" fy="0" gradientTransform="rotate(16.05 -1214.016 1612.516)" spreadMethod="pad"><stop offset="29.02%" stop-color="#BAEEF5"/><stop offset="79.216%" stop-color="#6EC6CF"/><stop offset="96.078%" stop-color="#4BA8B1"/><stop offset="100%" stop-color="#88C6CC"/></radialGradient><radialGradient id="c" gradientUnits="userSpaceOnUse" cx="0" cy="0" r="394.152" fx="0" fy="0" gradientTransform="matrix(.96102 .27648 -.27857 .96835 -.15 0)" spreadMethod="pad"><stop offset="75.686%" stop-color="#86A826"/><stop offset="93.333%" stop-color="#A8C94C"/><stop offset="100%" stop-color="#C7DE7E"/></radialGradient><radialGradient id="d" gradientUnits="userSpaceOnUse" cx="0" cy="0" r="394.152" fx="0" fy="0" gradientTransform="matrix(.96102 .27648 -.27857 .96835 -.15 0)" spreadMethod="pad"><stop offset="57.255%" stop-color="#C7DE7E"/><stop offset="83.922%" stop-color="#BDCF70"/><stop offset="100%" stop-color="#868026"/></radialGradient><radialGradient id="e" gradientUnits="userSpaceOnUse" cx="0" cy="0" r="394.152" fx="0" fy="0" gradientTransform="matrix(.96102 .27648 -.27857 .96835 -.15 0)" spreadMethod="pad"><stop offset="48.627%" stop-color="#865826"/><stop offset="100%" stop-color="#C7DE7E"/></radialGradient><radialGradient id="f" gradientUnits="userSpaceOnUse" cx="0" cy="0" r="394.152" fx="0" fy="0" gradientTransform="matrix(.96102 .27648 -.27857 .96835 -.15 0)" spreadMethod="pad"><stop offset="61.569%" stop-color="#867226"/><stop offset="93.333%" stop-color="#A8C94C"/><stop offset="100%" stop-color="#C7DE7E"/></radialGradient><path fill="url(#g)" d="M36.45 385.7l-9.35 1.05.15 7.05-12 1.75v1.7l-11.95.3.3 3.1q36.2-.1 71.65-7.05l1.2-2.45-.8-4.35-.9-2.4-8.6 1.7-.75-.2-2.2.4-.25-1.7-.8-2-11.35 1.6-.2-.05-.3-1.95-11.8 1.4.05 2.05-2.1.05M345.7 157.1l-.85-1.35-2.45-.85-4.9 10.35 1.5.7-4.3 9.35-.35.35-.25.85 1.6 1-5.4 10.05 3.05 2.25-5.75 10 1.55 1.15-6 9.35-.2.7-6.7 9.6-1.65-.9-6.85 9.3-1.8-.95-1.3-.9-7.15 8.65-3.05-2.35-7.55 8.65-4.8-3.05-6.9 8-3.55-2.65-1.2-1.25-7.5 7.95-17.45-16.35-7.1 7.35-4.45-4-5.05 4.55-.25.45-.6.35-.2.45-.95.9-2.7-2.45-.55-.8-5.2-5.2-7.45 6.35-3.8-4.1-14.9 11.7-6.25-7.6-7.45 5.35-2.3-2.95-7.1 4.6-.25.45-1.1-.8-7.9 4.3-.2-.05-1.2-1.6-7.6 4.7-1.4-1.45-7.45 4.1-3.4-4.8-7.35 3.85-1-1.6-.75-1.65-.45-.15-1-1.6-15.45 7.05-4.6-10.45 7.25-3.95-8.5-17.75-1.95 1.05-1.15.1-3.75 1.8-5.05-10.9L88.4 223l-.25-.35-1.1-2.1-.15-.95-1.05-1.9-6.5 2.2-10.2-27.35-.45-2 5.5-2.6-.75-2.5-.65-1.2-13.3-33.35-4.6 1.55-.65-1.6-9.2 2.95 1 3.8 4.9-1.25.1.55.45.55-.05.55.6 1.95.4.35-.1.6.4.65-.15.5.7 1.45-4.85 1.65 3.5 12.15-.15.45.3 1q-1.5-.45-2.85.55-1.55.95-2.05 2.8l.85 3.55-5.45 1.75.65 3.75-5.4 1.45.7 5.55q-1.85-.5-3.55.7-1.55 1.1-2.15 3.1l.75 5.3-6 1.1 1.05 11.8-6.45.75.05 2.15-4.2.2q-1.95.8-2.45 2.65l-.05 2.9.35.25-.15 2.5-6.45.4.1 13.95-.1.4.15 3.25L2 250l.15 8.1 2.05-.15 5.6.3.15 3.65 7.85-.45.65 1.9 7.65-.55.7 3.95 8-1.15 1 6 8.2-1.05.85 5.7 8.65-1.05.35 1.6 8.2-1.8q.5.1.8.65l-.1 1.2 1.05 3.7 8.25-1.95.7 1.95 17.45-4.75.3 1.55.75 2.05 16.5-6.2-1.6-5.45 16.05-7.05 5 10.75 8.4-4 5.35 10.45 16.7-8.9-.95-1.7-1.65-3.8 8-4.55.25.7 10.1 15.95-17.05 10.1.45 2-8.5 4.4-.5-1.35-.65-.55-2.95-4.85-8.6 3.85-.8-1.55-6.45 2.8-2.1 1.3L132.8 308l-9.15 4.25 2.8 8 .6.95-9.65 3.7.55 1.75-.2.65.8 1.65-6.9 2.2-3.1 1.4 1.15 3.45-10.1 3.3.25 1.95-10.2 2.9 1.25 5.75 10.4-2.85.75 1.7.4 2.15-10.4 2.9-.15-.05-.35-1.8-.85-1.8-10.25 2.55-.5-.15-.6-1.85-10.7 2.55.3 1.8h-1.1l-9.35 1.65v2.1l10.8-1.8 1.9 9.45 1.05 2.2 10.45-2.5.9 2 10.95-2.65.2.05 1.8 5.9-.15.5.7 1.15 22.25-6.5 1.5 3.65-.3.2-10.95 3.2 1.25 5.9-11.35 3.3.8 3.7.2.1.2 1q23.45-6.35 46.6-15.85l-.75-2.15.05-.2 10.75-4.55-1.55-3.6-10.65 4.6-.2-.05-.6-1.8L155 359.2l-5.25-12.75q.9-3.05 4.1-4.4 3.1-1.4 6.65-.35l9.95-4.9 1.15 1.65 10.4-5.6 1.05 1.9 10.2-5.7 4.7 8.2-10.35 6.4.95 1.7L177.8 351l-.95-1.75-10.4 5.15.75 1.65v.8l.5 1.05-.05.15 1.9 3.9q11.95-5.75 23.8-12.3 124.5-68.95 175.7-196.05l-12.9-5.35-3.95 9.45-.3.3-.25.8-1.7-.35-.5.1-4.8 10.05-3.4-1.8.2-.75 4.25-8.95M-69.9 391.5l11.95 1.95.25 1.9 36.2 3.6.1-3.7L-33 394l-.1-1.75.15-2-23.55-2.6-1.3 3.75-11.55-1.85-.55 1.95M-287.35 66.9l.85-.35 4.65-.95.8-.55.55.2 1.75-.65.5.15 4.25-1.25-3.4-16.6-7.7 1.15 1.45 8.5-9.5 2.05-1.4.45-4.35.8 4 18.1 9.55-2.35-2-8.7m45.15-3.2l.95-.15-3.3-14.9-2 .25-1.55-7.15-1.65.25 5.15 22.7 2.4-1m105.1 106.4l-3.4-2.65-6.15 6.8-.5.45-5.25-4.25-3.55 3.6-.15.55-6.75 7.75 2.05 2.15 3.7 2.55 2.1-2.55 3.85 2.55.3.5 1.7 1.25 1.55-1.75.15-.6 2.15-2.3 5.45 4.05 1.2-1.25-5.4-4.3.15-.6.85-.75 5.55 3.85 6.05-8-5.1-3.95 1.05-1.6-1.35-1-.25-.5M-185.8-3.5l-1.8-.15.15 11.3h1.85l-.2-11.15m10.25-26.9l1.3-5.35-2.65-.75-1-.4.95-4.95-5.85-1.65 1.35-5.45-2-.35-7.65-2.2-1.5 5.9 7.75 1.95-1.15 5.45 3.9.95-.9 5.2 7.45 1.65M-225.5-4.15l-5.95.15-1.9-.15-.1 7.05-11.95.3.15 7.35-1.95.3.25 4.2.25.7.05 2.5 1.35-.2 6.55-.05.55 7.05-7.7.85 1.9 14.95 4.15-.55 1.35 7.2 3.4-.65.85 1.7-.1.35 1.3 4.95 4.7-1.1.95-.05 1.9 6.65 1.85-.5 1.95-.1 2 6.45 2.05-.45 1.9 6.35 1.15-.5 11.95-3.85-1.55-6.25 1.05-.15 2.45-1.15 7.5-2-3.3-11.85-.75.3-.55-.05q.5-1.85-.5-3.4-1.1-1.65-3.1-2.25l-1.35-6.15-.25-6.3.95-.05.45-6.45 4.75-.55-.15-6 3.65-.3-.35-11.85q.6-2 .05-3.85-.6-1.7-2.05-2.1l-5.45-.25-.25-6-23.75-.95-.35 6.7m-23.95-.15l-7.65-.25-1 7.85-1.3.25-3.95-.1.2 8-1.9.05.35 8.2-1.7.05.6 8.15-.1.4h-1.85l.9 8.25 1.95-.4 1.45 8.2 1.75-.4-1-8v-.1l3.25-.6-.35-7.9 7.9-.85-.7-7.6 1.9-.15-.75-15.6h1.8l.2-7.45m-87.05-210.5l-8.8 14.1-9.8 19.5-7.15 11.55q-12.25 27-21.1 56.9l-1.05 9.6-.05.15-1.15-.3-9.45 48.1 1.55.25 2-11.7 2.7.45-2.8 23.75-1-.4-1.2 12.1.85.05-.05.05-6.95 58.9.3 1.1q4.45 64.45 31.4 126.35 8.25 19 18.65 37.8 12.6 22.75 27.25 43.25l7.2 9.65q21.9 28.65 47.95 52.25 9.4 8.5 19.4 16.35l9.7 7.4q38.95 28.55 85.95 47.35l1-1.65 10.85 4.15 1.9-3.65 10.7 3.9.55-1.9.95-1.75 11 3.55 1.1-3.8-10.6-3.5.7-3.95-9.85-3.45.05-.75.35-1.25 10.2 3.6 2.75-7.55 10.5 3.45-.55 1.9.35.55-.55 1.5 10.75 3.1-2 7.7 23 5.6 1.8-7.8 11.3 2 1.1-5.5-22.2-4.95 1.9-9.6-10.3-2.8 1.1-3.8 20.95 4.95.55-1.9 10.2 2 2.15-11.55-9.9-2.1 1.35-6.7.35-1.15 9.8 2 2-9.8 9.65 1.5.75-4.55-.2-.1.7-2.3 6.45.35q2.3-.7 3.05-2.05l.15-.05.2-.75 1-6.6-.4-.55 1.8-11.5-.2-.5.3-1.35-.2-.5.15-1.6-8.65-1.45.95-7.5-8.45-1.75.7-3.75-33.15-7.95-.7 1.25-1.35-.05-6.6-2.35 1.25-3.6-7.6-2.5 6.7-18.85-7.05-2.95.1-.4 2.95-7.35.4-.3 1.8-4.45 6.8 2.4 4.1-11.35-6.4-2.45 4.6-11.55.05-.2 1.3-2.95-5.9-2.75 3.4-8.2.4-.25 1.5-4.15-11.15-5.4-.8 1.55-5.5-2.65-1.05 1.4-5.35-3-1.55 2.7-.2.75-.2.15-1 1.25-5.4-2.9-2.05 3.05-.45.2-1.45 3-.65.35-.95 1.35-5.65-3.25-7.65 10.9-5.95-3.75-8.9 12.05-.5.35-.2.55-.45.1-1.6 2.85-.5.2-2.4 3.15-.25.95-2.35 2.45-.75 1.25-6.4-4.55-4.95 5.7-6.5-4.85-3.95 4.35-6.45-5.05-4.2 4.35-.3.7-.45-.05-1.8 2.45-.15-.05-2.15 2.35 13.45 11.85-1.25 1.25-6.95-5.35-1.2 1.4-6.9-5.8-2.6 2.65-7-5.85-1.25 1.1-6.45-6.05-5.6 5.05-6.7-6.35-2.65 2.45 6.2 6.75-1.35 1.5q-.15.65-.6 1-.35.4-.85.25l-6.65-6.6.1-.25 1.2-1.35-6.35-6.9 2.9-2.8-6.1-7.05 2.8-2.9-5.5-7.25 13.85-11.15-5.1-6.9 4.6-3.65-4.75-7 1.25-1.1q.6-2.2-.7-4.35-1.5-2.1-4.1-2.8l-4.5 2.65-.55.85-10.95 6.6-2.45 1.2-5.05-7.7-4.2 2.75-5.15-7.55 1.45-1.65 1.45-.6-4-8.25 6.6-3.85-3.55-8.15 5.1-2.25 1.2-.8 11.3-5.45 4 7.45 1.65-.75-3.35-7.3.2-.5 8.25-4.15-3.05-7.35 2.4-1.15 1.1-.1 3.65-2.1-1.1-1.9.1-.55-1.85-4.8 3.35-1.55-2.55-7.15 1.4-.85-2.2-7.05q.75-2.6.1-4.75-.7-2.3-2.55-2.85l-3.65 1.3 4.75 14.6-5.3 2.2-2.65-7.55 1.4-.5-4.3-15.35 1.75-.75-3.65-15.15-7.7 1.5 1.8 7.6-3.75 1.3 1.85 7.7-7.6 2.2-2.15-7.65-1.7.1 1.8 8.2q-.8 2.9.05 5.3.8 2.4 2.8 3l1.35-.45 2.65 8.05 5.7-1.7 2.9 7.7 5.3-2 3.2 7.35-.35.3-11.05 4.4-.45.45-3 .85.1.6-1.9.45 1 2.6.4.4 2 5-3.1 1.35-3.75-7.1-.25-.7q.75-2.6-.6-4.95-1-1.75-2.5-2.6l-.35-.6-.7.2-.4-.1-3.5-7.85-7.15 2.25-2.25 1.05 2.95 8.1-.9.3-1.5.9-1.1.25-3.35-8.6-4.35 1.3-.95.4-3.1-8.7-1.95.25-2.75-9.05-1.8.3-1.5-6.25-.35-.3-.8-2.7-11.2 2.55-2.5-9.45-3.65.85 1.8 9.6-12.75 3.2-2.7-10.1 7.7-1.75-1.95-10.1 6.1-1.15L-328 45l-1.9.1-1.25-9.7-2.1-.2q1-3.45.15-6.35-.85-2.95-2.95-3.55l-2.05.05-.6-10-11.65.4-.5-.35-1.9.1-.3-10.4-3.9-.2.95 21.9-.2-.05-.05.2-3.8.15-.8-11.05h-3.7l-.6-10.55-7.6.05.2 10.9-2 .45.6 10.95-5.25.8q1.15-3.85-.4-7.2-1.2-2.4-3.15-3.5v-.45l-.65.05-1.25-.45.75-46.85 3.75.65-.5 11.05 11.85.55 1.75-22.4-5.7-.75 1.2-11.1-8.8-1.5-1.05-.3 1.65-11.6-1.85-.35 4.5-22.9-1.75-.7 2.85-11.05-1.95-.75 3.35-11.7-3.95-1.55-1.75-.5 3.35-10.9 1.55.15 1.05-1.25 1.1-3.85.3-.35 1.7-5.1-1.35-1.65.55-1.95 3.5-8.5 1.95.35 7.5 2.85 4.25-10.45 2.25.2.3-1.05 4.15-9 3.8 1.25-.05.2 1.65.9-4.75 10.4 1.9.75 9.8-20.75-1.65-.9.2-.65.3-.25 4.75-9.25-1.65-1.1 5.85-10.15-3.25-1.75 5.8-10.4-1.5-1.1 6.45-9.75 1.75 1.15 6.65-9.75 1.65 1.1 6.95-9.15 3.5 2.05 6.9-8.65 2.7 2.05q3 .85 5.75-1.1 2.9-2 3.95-5.65l.15.05 5.35 4.5 7.85-7.8 16 14.45 7.15-7.1 5.6 5.1 7.25-6.85 3.1 2.8 1.05 1.3 7.25-6.6 1.7 1.5.4.75.5.1 3.25 3.45 1.1 1.4 7.5-5.95 2.35 2.7 7.3-6 .7.2.5.8 2.7 3.5 7.75-5.25.7 1.2.7.45.55.95q3.3.95 6.05.05 2.75-.95 3.4-3.15l.9.75 7.3-4.8.2.05 1 1.55 7.7-4.7 1.1 1.7 7.75-4.65 2.1 3.2 7.6-3.95.65.55 2.45 4.45 5.65-3 2.25-.6 1.75 3.3 7.9-3.6 2.5 5.05.95 2.6.4.7-.1.9.9 1.25 2.15 4.9.15.95-6.75 3.25 3.35 7.15 6.85-2.9.55.9 3.65 7.7 6.9-2.8 1.9 3.85v.8l.4.35 1.6 4.2 6.6-2.65.55.95 7.5 20.5.3.4 9.25 24.35-5 2.5 8.2 20.25 4.7-1.85 1.4 3.8 4.65-1.7.45 1.5 4.9-1.3-6.4-20.5q1.35.4 2.7-.7 1.35-1.05 1.9-2.95l-1.4-6.05q1.5.45 3-.6 1.45-1.05 2-2.95l-.35-1.75q1.55.45 3.1-.6 1.5-1 2.05-2.9l-.6-3.7q1.75.5 3.35-.4 1.65-1 2.2-2.85l-.4-2.15.05-1.45 5-1.05.6.05-1.25-10.85.3-1.15 6-.9-.35-5.65 6.25-.7.2-1.4q2.1.6 4.1-.5 1.8-1.05 2.4-3.05l-.55-9.3.35-1.15-.5-7 4.65.1q2.2-.75 2.7-2.35l-.45-10.95.2-1.2-.05-1.7-5.85-.2-2 .25-.55-3.9-8.15.35-.1-1.85-7.95.8-.2-.05-.05-1.85-1.9.05-6.05.95-2-9.95-7.9 1.5-.8-1.9-8 1.45-.6-1.4-.65-2.2-8.4 1.4-.7-2.25-.05-1.25-.8-1.9-1.35.25-15.75 4.4-.8-1.7-16.6 5.65.3 1.9-5.15 2.1-.5.1-2.3.95.65 2.65.5 1.15-7.4 3.35-1.35-1.65-4.1-8.9-8.1 3.45-1.25-1.3-8 3.9-4.25-8.3-8.4 3.9 1.7 3.95-8.2 4.5-2.45-3.7-.55-1-8 4.55-2-2.95 7.6-5.2-2.9-5.5-.55-1.75 16.85-9.4-1.05-1.7.3-.35 8.8-4.35 3.85 7.05 8.35-4.15-.15-1.9 8.3-3.65-.85-1.9-8.55 3.75-3.7-8.3 6.85-4.05 2-.7-.6-1.5.05-.55-.45-.4-.3-1.05 1.7-1.15 7.5-2.85-3.3-9.35.15-.5-.7-1.45 9.5-3.45-1.4-5.6 20.25-6.4-.05-2.05L-85-347.3l-.85-3.55-10.45 2.4-1.45-4.35q7.4-2.7 10.55-2.85l1.25 4.35 21.45-4.45-.45-4.3-.5-1.75-10.8 2.05-2.25-9.45-10.9 2.35-.35-1.6-.35-.35-1.15-3.8-10.8 2.95-1.45-3.75-22.8 6.3-.05.2-.55-1.4-1.55.35-9.55 3.55-.9-1.75-10.75 4.75-.1-.35-1.65.55-.3.35-8.95 3.65 1.85 3.7h.2l10.2-4.35.6 1.5-10.05 4.6.35 1.55 10.55-4.1 2.25 5.2-21.15 9.3-.55-1.1-10.55 4.9-.95-1.75-10.25 5.4-1.1-1.4-1.15.5-8.7 5-1.6-2.35-1.35-2.65 9.9-5.7-.5-1.9-1.1-1.7.25-.05 21.1-11.25.75 1.7 10.8-4.9-.75-1.7.15-.6-.9-1.35-.15-.1-1.1-1.65-9.8 4.75-1-.15-.5-1 10.7-5.4q-14.7 6.65-29.2 14.8-69.35 38.35-116.05 94.8l-6.75 10.9-9.15 11.95-10.9 16.2-.25.8m132.2 503.2q-2.25-2.25-6-3.3l2.2-3.35 8.95 6.35-.9 1.8 17.8 11.25-2.05 3.3-9.25-5.4-.3-.3-8.9-6q.6-2.1-1.55-4.35m32.3-4.35l1.1-1.55.2.05 8.55 4.95-.8 1.95 8.6 4.65-.55 1.85 9.15 4.45 1.55-3.4 9 3.95-.45.8-.85 3.1 9.25 3.9.15.3-1.4 3.4-.5 1.7 9.2 4.05-.7 1.85 19.3 6.5 1-1.8 9.8 2.85-1.15 3.8-9.8-2.85-1 2.75-.25.25-1.35 4.7-10.05-3.4-.95 1.8-9.4-3.35v-1.85l-9.35-3.85-.2-.1 1.3-3.8-9.65-4.35.5-1.45-9.05-4.3-.2-.85.55-.65.75-2.6-8.85-4.45-.5-.1-8.7-5.05.6-1.75-8.9-5.15.95-1.85.7-.7.05-1.05-8.25-5.4 1.15-1.7.2-.75.75-.65 8.5 5.15m6.9 55.9l.25-.75.9-1 10.65 4.9-3.8 7.25-10.35-4.85-1.05 1.6q-5.1-2.6-10.2-5.25l1.6-3.25 10.3 5.05 1.7-3.7z" id="k"/><path id="j" stroke="#333" stroke-width="1" stroke-linejoin="round" stroke-linecap="round" fill="none" d="M85.5-376.15l-.3.275"/><g id="h"><path fill="url(#a)" d="M597.75 53.55q-41-23.15-89.35-37.05Q350.2-29 206.2 50.8 62.05 130.35 16.5 288.6.45 344.45 0 398.5l.05 10.95Q2 502.9 50.8 591.05q55.3 100 148.55 152.5l398.4-690z"/><path fill="url(#b)" d="M796.75 409.45l.25-10.95q.9-99.15-50.65-192.3Q691 106.05 597.75 53.55l-398.4 690q40.95 23.05 89.25 36.95 158.25 45.55 302.35-34.05 144-79.75 189.5-238.05 14.45-50.2 16.3-98.95z"/></g><g id="i"><path fill="url(#c)" d="M38.5 383.6l.05 2.05-2.1.05-9.35 1.05.15 7.05-12 1.75v1.7l-11.95.3.3 3.1q36.2-.1 71.65-7.05l1.2-2.45-.8-4.35-.9-2.4-8.6 1.7-.75-.2-2.2.4-.25-1.7-.8-2-11.35 1.6-.2-.05-.3-1.95-11.8 1.4m55.75-94.75l1.1 3.5 17.6-6.05.6.8 2.3 4.3 8.45-3.5.2.05 5.4-.25q2.5-1.2 3.2-3.5l.05-.2 8.7-4.35-.95-1.55-8.45 4.05-.9-1.65-8.85 3.65-1-1.55-8.25 3.45-.8-.85-.9-2.75-17.5 6.4m82.65-262.8l-2.25 11 5.75 1.3-1.2 5.45 3.85 1.1-1.35 5.45 7.65 2.2 1.55-5.4h1.75l1.65-5.7-11.7-2.9.95-5.55-3.7-.65.65-5.4-3.6-.9m-246.25 363.5l-.55 1.95 11.95 1.95.25 1.9 36.2 3.6.1-3.7L-33 394l-.1-1.75.15-2-23.55-2.6-1.3 3.75-11.55-1.85m-214.3-333l-9.5 2.05-1.4.45-4.35.8 4 18.1 9.55-2.35-2-8.7.85-.35 4.65-.95.8-.55.55.2 1.75-.65.5.15 4.25-1.25-3.4-16.6-7.7 1.15 1.45 8.5m41.45 7.15l.95-.15-3.3-14.9-2 .25-1.55-7.15-1.65.25 5.15 22.7 2.4-1m105.65 109.5l1.05-1.6-1.35-1-.25-.5-3.4-2.65-6.15 6.8-.5.45-5.25-4.25-3.55 3.6-.15.55-6.75 7.75 2.05 2.15 3.7 2.55 2.1-2.55 3.85 2.55.3.5 1.7 1.25 1.55-1.75.15-.6 2.15-2.3 5.45 4.05 1.2-1.25-5.4-4.3.15-.6.85-.75 5.55 3.85 6.05-8-5.1-3.95M-185.8-3.5l-1.8-.15.15 11.3h1.85l-.2-11.15m11.55-32.25l-2.65-.75-1-.4.95-4.95-5.85-1.65 1.35-5.45-2-.35-7.65-2.2-1.5 5.9 7.75 1.95-1.15 5.45 3.9.95-.9 5.2 7.45 1.65 1.3-5.35m-51.25 31.6l-5.95.15-1.9-.15-.1 7.05-11.95.3.15 7.35-1.95.3.25 4.2.25.7.05 2.5 1.35-.2 6.55-.05.55 7.05-7.7.85 1.9 14.95 4.15-.55 1.35 7.2 3.4-.65.85 1.7-.1.35 1.3 4.95 4.7-1.1.95-.05 1.9 6.65 1.85-.5 1.95-.1 2 6.45 2.05-.45 1.9 6.35 1.15-.5 11.95-3.85-1.55-6.25 1.05-.15 2.45-1.15 7.5-2-3.3-11.85-.75.3-.55-.05q.5-1.85-.5-3.4-1.1-1.65-3.1-2.25l-1.35-6.15-.25-6.3.95-.05.45-6.45 4.75-.55-.15-6 3.65-.3-.35-11.85q.6-2 .05-3.85-.6-1.7-2.05-2.1l-5.45-.25-.25-6-23.75-.95-.35 6.7m-23.95-.15l-7.65-.25-1 7.85-1.3.25-3.95-.1.2 8-1.9.05.35 8.2-1.7.05.6 8.15-.1.4h-1.85l.9 8.25 1.95-.4 1.45 8.2 1.75-.4-1-8v-.1l3.25-.6-.35-7.9 7.9-.85-.7-7.6 1.9-.15-.75-15.6h1.8l.2-7.45M-91.4-294l-8.55 2.95-.75-1.65-9 3.05-.9-1.95-8.7 3.55-1.9-3.65-13.1 6.15-1.15.1-3.15 1.6 1.85 3.35 8.55-3.45.95 1.4 8.4-3.5.9 1.6 8.7-3.2 1.65 3.6 8.65-3.35-.5-1.8 8.75-2.9-.7-1.9m-3.2-92.25l-.7-2.65q-23.3 5.95-46.3 14.95v.4l-11.45 4.4.6.95.2 1.35 1.05 1.35 10.8-4.2.8 1.5.65-.05 10.9-3.8v-.1l.6 1.85 11.35-3.6-.75-3.95 11-3.3-.4-1.8.1-.4.1.05 11.45-2.95m-45.1 699l-.6 2 9 2.6.6-2-9-2.6M266.35-34.1l-1.3-8.2-5.7.75 1.1 8-1.6.2-2.15.6.15 3 .3.45-.5 4.25-3.75.4-1.05-.05-2.05.4.75 23.05-1.9.1-.05 7.35 3.75.3.25-7.25.4-.45 7.5-.1v-7.9l3.65-.3.15-8.15 1.75-.15-1.6-16.05 1.9-.25m24.85-21.7l-1.45-8.7 7.55-2.1-2.5-8.7-10.7 2.55-.7.5-7.35 1.85 1.75 8.3-3.85 1.15 1.55 8.05 5.8-.75.3-.3 9.6-1.85M188.05-.7l1.55-5.5-4.05-1.2L184-1.9l4.05 1.2m33.4-63.5l-1.6.5-.85.15-1.25.05-2.05-6.3-20.7 6.65 1.2 6.15-3.2.75 1.7 6.3q-.5 1.85.5 3.4.9 1.6 2.7 2.1-.5 1.8.55 3.5.9 1.7 2.8 2.25-.6 2 .25 3.8.85 1.7 2.6 2.2l.8 6.25-5.7.7-.1 6.05-3.2.25-.1 6.2-3.35.05.5 11.9 1.65.15V4.6l10.05.6.05 6 12.65 1.05.9-.15 4.1.25.25-6.75 1.9-.1 3.65.35 2.35-.3.1-6.8 10 .05.2-7.4 3.6-.2-.35-7.45-3.15.15q-1.95-.55-2.8-2.65-.85-2.25-.15-4.65l7.25-.5-.4-7.9q.6-2.2-.5-4.15-.8-1.6-2.2-2.35l-1-.35-.4.1-.6-.1-1.7-7.05-1.55.2-2.05-7.25-3.35.9-2.2-6.85-5.15 1.25-2.65-6.75M61.9-388.45l.85-5.85-35.9-4.25-.65 6.05 35.7 4.05m-60.1-11.1l.05-.9q-42.9-.6-84.75 8.65l.5 2.85 11.65-2.25 1.45 5.8 11.5-1.65.6 3.7 23.35-2.75.2-6.1 11.5-.65-.1-4 12-.5.3-1.8 11.75-.4z"/><path fill="url(#d)" d="M349.45 158.55l-4.8 10.05-3.4-1.8.2-.75 4.25-8.95-.85-1.35-2.45-.85-4.9 10.35 1.5.7-4.3 9.35-.35.35-.25.85 1.6 1-5.4 10.05 3.05 2.25-5.75 10 1.55 1.15-6 9.35-.2.7-6.7 9.6-1.65-.9-6.85 9.3-1.8-.95-1.3-.9-7.15 8.65-3.05-2.35-7.55 8.65-4.8-3.05-6.9 8-3.55-2.65-1.2-1.25-7.5 7.95-17.45-16.35-7.1 7.35-4.45-4-5.05 4.55-.25.45-.6.35-.2.45-.95.9-2.7-2.45-.55-.8-5.2-5.2-7.45 6.35-3.8-4.1-14.9 11.7-6.25-7.6-7.45 5.35-2.3-2.95-7.1 4.6-.25.45-1.1-.8-7.9 4.3-.2-.05-1.2-1.6-7.6 4.7-1.4-1.45-7.45 4.1-3.4-4.8-7.35 3.85-1-1.6-.75-1.65-.45-.15-1-1.6-15.45 7.05-4.6-10.45 7.25-3.95-8.5-17.75-1.95 1.05-1.15.1-3.75 1.8-5.05-10.9L88.4 223l-.25-.35-1.1-2.1-.15-.95-1.05-1.9-6.5 2.2-10.2-27.35-.45-2 5.5-2.6-.75-2.5-.65-1.2-13.3-33.35-4.6 1.55-.65-1.6-9.2 2.95 1 3.8 4.9-1.25.1.55.45.55-.05.55.6 1.95.4.35-.1.6.4.65-.15.5.7 1.45-4.85 1.65 3.5 12.15-.15.45.3 1q-1.5-.45-2.85.55-1.55.95-2.05 2.8l.85 3.55-5.45 1.75.65 3.75-5.4 1.45.7 5.55q-1.85-.5-3.55.7-1.55 1.1-2.15 3.1l.75 5.3-6 1.1 1.05 11.8-6.45.75.05 2.15-4.2.2q-1.95.8-2.45 2.65l-.05 2.9.35.25-.15 2.5-6.45.4.1 13.95-.1.4.15 3.25L2 250l.15 8.1 2.05-.15 5.6.3.15 3.65 7.85-.45.65 1.9 7.65-.55.7 3.95 8-1.15 1 6 8.2-1.05.85 5.7 8.65-1.05.35 1.6 8.2-1.8q.5.1.8.65l-.1 1.2 1.05 3.7 8.25-1.95.7 1.95 17.45-4.75.3 1.55.75 2.05 16.5-6.2-1.6-5.45 16.05-7.05 5 10.75 8.4-4 5.35 10.45 16.7-8.9-.95-1.7-1.65-3.8 8-4.55.25.7 10.1 15.95-17.05 10.1.45 2-8.5 4.4-.5-1.35-.65-.55-2.95-4.85-8.6 3.85-.8-1.55-6.45 2.8-2.1 1.3L132.8 308l-9.15 4.25 2.8 8 .6.95-9.65 3.7.55 1.75-.2.65.8 1.65-6.9 2.2-3.1 1.4 1.15 3.45-10.1 3.3.25 1.95-10.2 2.9 1.25 5.75 10.4-2.85.75 1.7.4 2.15-10.4 2.9-.15-.05-.35-1.8-.85-1.8-10.25 2.55-.5-.15-.6-1.85-10.7 2.55.3 1.8h-1.1l-9.35 1.65v2.1l10.8-1.8 1.9 9.45 1.05 2.2 10.45-2.5.9 2 10.95-2.65.2.05 1.8 5.9-.15.5.7 1.15 22.25-6.5 1.5 3.65-.3.2-10.95 3.2 1.25 5.9-11.35 3.3.8 3.7.2.1.2 1q23.45-6.35 46.6-15.85l-.75-2.15.05-.2 10.75-4.55-1.55-3.6-10.65 4.6-.2-.05-.6-1.8L155 359.2l-5.25-12.75q.9-3.05 4.1-4.4 3.1-1.4 6.65-.35l9.95-4.9 1.15 1.65 10.4-5.6 1.05 1.9 10.2-5.7 4.7 8.2-10.35 6.4.95 1.7L177.8 351l-.95-1.75-10.4 5.15.75 1.65v.8l.5 1.05-.05.15 1.9 3.9q11.95-5.75 23.8-12.3 124.5-68.95 175.7-196.05l-12.9-5.35-3.95 9.45-.3.3-.25.8-1.7-.35-.5.1z"/><path fill="url(#e)" d="M-325.45-206.85l-1.5-1.1 6.45-9.75 1.75 1.15 6.65-9.75 1.65 1.1 6.95-9.15 3.5 2.05 6.9-8.65 2.7 2.05q3 .85 5.75-1.1 2.9-2 3.95-5.65l.15.05 5.35 4.5 7.85-7.8 16 14.45 7.15-7.1 5.6 5.1 7.25-6.85 3.1 2.8 1.05 1.3 7.25-6.6 1.7 1.5.4.75.5.1 3.25 3.45 1.1 1.4 7.5-5.95 2.35 2.7 7.3-6 .7.2.5.8 2.7 3.5 7.75-5.25.7 1.2.7.45.55.95q3.3.95 6.05.05 2.75-.95 3.4-3.15l.9.75 7.3-4.8.2.05 1 1.55 7.7-4.7 1.1 1.7 7.75-4.65 2.1 3.2 7.6-3.95.65.55 2.45 4.45 5.65-3 2.25-.6 1.75 3.3 7.9-3.6 2.5 5.05.95 2.6.4.7-.1.9.9 1.25 2.15 4.9.15.95-6.75 3.25 3.35 7.15 6.85-2.9.55.9 3.65 7.7 6.9-2.8 1.9 3.85v.8l.4.35 1.6 4.2 6.6-2.65.55.95 7.5 20.5.3.4 9.25 24.35-5 2.5 8.2 20.25 4.7-1.85 1.4 3.8 4.65-1.7.45 1.5 4.9-1.3-6.4-20.5q1.35.4 2.7-.7 1.35-1.05 1.9-2.95l-1.4-6.05q1.5.45 3-.6 1.45-1.05 2-2.95l-.35-1.75q1.55.45 3.1-.6 1.5-1 2.05-2.9l-.6-3.7q1.75.5 3.35-.4 1.65-1 2.2-2.85l-.4-2.15.05-1.45 5-1.05.6.05-1.25-10.85.3-1.15 6-.9-.35-5.65 6.25-.7.2-1.4q2.1.6 4.1-.5 1.8-1.05 2.4-3.05l-.55-9.3.35-1.15-.5-7 4.65.1q2.2-.75 2.7-2.35l-.45-10.95.2-1.2-.05-1.7-5.85-.2-2 .25-.55-3.9-8.15.35-.1-1.85-7.95.8-.2-.05-.05-1.85-1.9.05-6.05.95-2-9.95-7.9 1.5-.8-1.9-8 1.45-.6-1.4-.65-2.2-8.4 1.4-.7-2.25-.05-1.25-.8-1.9-1.35.25-15.75 4.4-.8-1.7-16.6 5.65.3 1.9-5.15 2.1-.5.1-2.3.95.65 2.65.5 1.15-7.4 3.35-1.35-1.65-4.1-8.9-8.1 3.45-1.25-1.3-8 3.9-4.25-8.3-8.4 3.9 1.7 3.95-8.2 4.5-2.45-3.7-.55-1-8 4.55-2-2.95 7.6-5.2-2.9-5.5-.55-1.75 16.85-9.4-1.05-1.7.3-.35 8.8-4.35 3.85 7.05 8.35-4.15-.15-1.9 8.3-3.65-.85-1.9-8.55 3.75-3.7-8.3 6.85-4.05 2-.7-.6-1.5.05-.55-.45-.4-.3-1.05 1.7-1.15 7.5-2.85-3.3-9.35.15-.5-.7-1.45 9.5-3.45-1.4-5.6 20.25-6.4-.05-2.05L-85-347.3l-.85-3.55-10.45 2.4-1.45-4.35q7.4-2.7 10.55-2.85l1.25 4.35 21.45-4.45-.45-4.3-.5-1.75-10.8 2.05-2.25-9.45-10.9 2.35-.35-1.6-.35-.35-1.15-3.8-10.8 2.95-1.45-3.75-22.8 6.3-.05.2-.55-1.4-1.55.35-9.55 3.55-.9-1.75-10.75 4.75-.1-.35-1.65.55-.3.35-8.95 3.65 1.85 3.7h.2l10.2-4.35.6 1.5-10.05 4.6.35 1.55 10.55-4.1 2.25 5.2-21.15 9.3-.55-1.1-10.55 4.9-.95-1.75-10.25 5.4-1.1-1.4-1.15.5-8.7 5-1.6-2.35-1.35-2.65 9.9-5.7-.5-1.9-1.1-1.7.25-.05 21.1-11.25.75 1.7 10.8-4.9-.75-1.7.15-.6-.9-1.35-.15-.1-1.1-1.65-9.8 4.75-1-.15-.5-1 10.7-5.4q-14.7 6.65-29.2 14.8-69.35 38.35-116.05 94.8l-6.75 10.9-9.15 11.95-10.9 16.2-.25.8-8.8 14.1-9.8 19.5-7.15 11.55q-12.25 27-21.1 56.9l-1.05 9.6-.05.15-1.15-.3-9.45 48.1 1.55.25 2-11.7 2.7.45-2.8 23.75-1-.4-1.2 12.1.85.05-.05.05-6.95 58.9.3 1.1q4.45 64.45 31.4 126.35 8.25 19 18.65 37.8 12.6 22.75 27.25 43.25l7.2 9.65q21.9 28.65 47.95 52.25 9.4 8.5 19.4 16.35l9.7 7.4q38.95 28.55 85.95 47.35l1-1.65 10.85 4.15 1.9-3.65 10.7 3.9.55-1.9.95-1.75 11 3.55 1.1-3.8-10.6-3.5.7-3.95-9.85-3.45.05-.75.35-1.25 10.2 3.6 2.75-7.55 10.5 3.45-.55 1.9.35.55-.55 1.5 10.75 3.1-2 7.7 23 5.6 1.8-7.8 11.3 2 1.1-5.5-22.2-4.95 1.9-9.6-10.3-2.8 1.1-3.8 20.95 4.95.55-1.9 10.2 2 2.15-11.55-9.9-2.1 1.35-6.7.35-1.15 9.8 2 2-9.8 9.65 1.5.75-4.55-.2-.1.7-2.3 6.45.35q2.3-.7 3.05-2.05l.15-.05.2-.75 1-6.6-.4-.55 1.8-11.5-.2-.5.3-1.35-.2-.5.15-1.6-8.65-1.45.95-7.5-8.45-1.75.7-3.75-33.15-7.95-.7 1.25-1.35-.05-6.6-2.35 1.25-3.6-7.6-2.5 6.7-18.85-7.05-2.95.1-.4 2.95-7.35.4-.3 1.8-4.45 6.8 2.4 4.1-11.35-6.4-2.45 4.6-11.55.05-.2 1.3-2.95-5.9-2.75 3.4-8.2.4-.25 1.5-4.15-11.15-5.4-.8 1.55-5.5-2.65-1.05 1.4-5.35-3-1.55 2.7-.2.75-.2.15-1 1.25-5.4-2.9-2.05 3.05-.45.2-1.45 3-.65.35-.95 1.35-5.65-3.25-7.65 10.9-5.95-3.75-8.9 12.05-.5.35-.2.55-.45.1-1.6 2.85-.5.2-2.4 3.15-.25.95-2.35 2.45-.75 1.25-6.4-4.55-4.95 5.7-6.5-4.85-3.95 4.35-6.45-5.05-4.2 4.35-.3.7-.45-.05-1.8 2.45-.15-.05-2.15 2.35 13.45 11.85-1.25 1.25-6.95-5.35-1.2 1.4-6.9-5.8-2.6 2.65-7-5.85-1.25 1.1-6.45-6.05-5.6 5.05-6.7-6.35-2.65 2.45 6.2 6.75-1.35 1.5q-.15.65-.6 1-.35.4-.85.25l-6.65-6.6.1-.25 1.2-1.35-6.35-6.9 2.9-2.8-6.1-7.05 2.8-2.9-5.5-7.25 13.85-11.15-5.1-6.9 4.6-3.65-4.75-7 1.25-1.1q.6-2.2-.7-4.35-1.5-2.1-4.1-2.8l-4.5 2.65-.55.85-10.95 6.6-2.45 1.2-5.05-7.7-4.2 2.75-5.15-7.55 1.45-1.65 1.45-.6-4-8.25 6.6-3.85-3.55-8.15 5.1-2.25 1.2-.8 11.3-5.45 4 7.45 1.65-.75-3.35-7.3.2-.5 8.25-4.15-3.05-7.35 2.4-1.15 1.1-.1 3.65-2.1-1.1-1.9.1-.55-1.85-4.8 3.35-1.55-2.55-7.15 1.4-.85-2.2-7.05q.75-2.6.1-4.75-.7-2.3-2.55-2.85l-3.65 1.3 4.75 14.6-5.3 2.2-2.65-7.55 1.4-.5-4.3-15.35 1.75-.75-3.65-15.15-7.7 1.5 1.8 7.6-3.75 1.3 1.85 7.7-7.6 2.2-2.15-7.65-1.7.1 1.8 8.2q-.8 2.9.05 5.3.8 2.4 2.8 3l1.35-.45 2.65 8.05 5.7-1.7 2.9 7.7 5.3-2 3.2 7.35-.35.3-11.05 4.4-.45.45-3 .85.1.6-1.9.45 1 2.6.4.4 2 5-3.1 1.35-3.75-7.1-.25-.7q.75-2.6-.6-4.95-1-1.75-2.5-2.6l-.35-.6-.7.2-.4-.1-3.5-7.85-7.15 2.25-2.25 1.05 2.95 8.1-.9.3-1.5.9-1.1.25-3.35-8.6-4.35 1.3-.95.4-3.1-8.7-1.95.25-2.75-9.05-1.8.3-1.5-6.25-.35-.3-.8-2.7-11.2 2.55-2.5-9.45-3.65.85 1.8 9.6-12.75 3.2-2.7-10.1 7.7-1.75-1.95-10.1 6.1-1.15L-328 45l-1.9.1-1.25-9.7-2.1-.2q1-3.45.15-6.35-.85-2.95-2.95-3.55l-2.05.05-.6-10-11.65.4-.5-.35-1.9.1-.3-10.4-3.9-.2.95 21.9-.2-.05-.05.2-3.8.15-.8-11.05h-3.7l-.6-10.55-7.6.05.2 10.9-2 .45.6 10.95-5.25.8q1.15-3.85-.4-7.2-1.2-2.4-3.15-3.5v-.45l-.65.05-1.25-.45.75-46.85 3.75.65-.5 11.05 11.85.55 1.75-22.4-5.7-.75 1.2-11.1-8.8-1.5-1.05-.3 1.65-11.6-1.85-.35 4.5-22.9-1.75-.7 2.85-11.05-1.95-.75 3.35-11.7-3.95-1.55-1.75-.5 3.35-10.9 1.55.15 1.05-1.25 1.1-3.85.3-.35 1.7-5.1-1.35-1.65.55-1.95 3.5-8.5 1.95.35 7.5 2.85 4.25-10.45 2.25.2.3-1.05 4.15-9 3.8 1.25-.05.2 1.65.9-4.75 10.4 1.9.75 9.8-20.75-1.65-.9.2-.65.3-.25 4.75-9.25-1.65-1.1 5.85-10.15-3.25-1.75 5.8-10.4M-204.3 288.4q-2.25-2.25-6-3.3l2.2-3.35 8.95 6.35-.9 1.8 17.8 11.25-2.05 3.3-9.25-5.4-.3-.3-8.9-6q.6-2.1-1.55-4.35m33.4-5.9l.2.05 8.55 4.95-.8 1.95 8.6 4.65-.55 1.85 9.15 4.45 1.55-3.4 9 3.95-.45.8-.85 3.1 9.25 3.9.15.3-1.4 3.4-.5 1.7 9.2 4.05-.7 1.85 19.3 6.5 1-1.8 9.8 2.85-1.15 3.8-9.8-2.85-1 2.75-.25.25-1.35 4.7-10.05-3.4-.95 1.8-9.4-3.35v-1.85l-9.35-3.85-.2-.1 1.3-3.8-9.65-4.35.5-1.45-9.05-4.3-.2-.85.55-.65.75-2.6-8.85-4.45-.5-.1-8.7-5.05.6-1.75-8.9-5.15.95-1.85.7-.7.05-1.05-8.25-5.4 1.15-1.7.2-.75.75-.65 8.5 5.15 1.1-1.55m-6.2 56.1l10.3 5.05 1.7-3.7.25-.75.9-1 10.65 4.9-3.8 7.25-10.35-4.85-1.05 1.6q-5.1-2.6-10.2-5.25l1.6-3.25z"/><path fill="url(#f)" d="M232.25-326.35q-29.8-21.1-63.95-36.4-11.5-5.2-23.5-9.65l.35-.1q-58.632-23.011-73.7 1.8l-.5-.1-1 5-.05.9-.4 2.1.65.15Q30.528-355.622 41-319h-.1l-.1 2.1-1.3 7.1.2.05-3.05 22.1 7.25 8.75.25.5 8.45 5.15 3.4.35 20.05 5.7 5.6-.95 3.45 3.65 2.7 6.3.75 11.4-.15 19.1-.3.35-.25.95-1.9 4.05-.8 2.85-.55 1.1-2.15 6.05-.75 8.85.35 3-.2 7.1 2.65 10 16.1 8.35 2.8.55 4.65-.75 9.6-3.15 8.35-3.7 2.65-.85 1.25-1.4.65-2.5 3.35-2.6-.2-.05 3.3-.7 2-.15 3.5.7-1.1 1.75-6.55 8.2-.15.6-1.2 1.7q-.65 2.3 2.35 4.85 2.9 2.6 7.8 4l4-4.6.65-.5.2-.8 2.2-2.15 1.5-2.1.6-.4 5.5 4.35 5.25-5.65-1.85-1.45-.3-.55-8.9-7.55-2.2 2.1-.15.6-1.1 1.3-6.05-3.55.15-.6.45-.3.3-.75 20.2-15.95-.55-2.35 5.2-.8 2.4-3 1.4-1.25 6.5 4.85.95-1.2.75-.35.25-.85.55-.25.2-.4 2.2-2.45.75.2 5.6 5.15 1.2-1.35.6-.1.2-.45 4.9-5.5-7.3-6.15-.2-.3-.7-.45-4.65-3.95-.4-.85 1.05-1.35 6.65 5.7 1.85-1.4 6.3 5.9 2.95-2.8 6.55 6.3.9-1.05 1.95-1.7.2.05 6.5 6.35 8.35-8.1 13.1 14.15-.05.2-4.35 3.75 5.65 7.05-.05.55-7 5.9 5.15 7.2-2 1.85-.25.5-.55.05-1.5.95-.45.8-1.2.5-.15.45-4.6 3.15 4.8 7.2-2.85 2.55-1.7 1.15 9.1 14.25 5.05-2.9-4.25-7.25.5-.7 7.5-5.1.85-.2 1.35-1.1 1.25-.65 4.9 7.45 5.15-2.65 4.85 7.7 3.35-1.6 4.4 7.9-8.5 4.85 4.15 8.05-5.15 2.85 3.5 7.45v.55l-1 .5-.45.1-4-7.8-4.9 2.65 3.2 7.65-1.8 1.2-.85.1-2.45 1.4-4.1-7.5-6.8 3.3 3.5 7.45-.35.45-8.6 3.85 3.1 7.35-5.45 2.35.4.8 2.45 6.5-3.45 1.7 7.15 21.7-1.8.6 3.55 14.85-1.5.4 1.15 7.4 3.85-.35-4.85-22.8 1.65-.65 1.65-.4-4.55-15 5.4-1.95 2.8 7.45-.05.15-1.8.55 4.3 15.4-1.75.4 1.8 7.85 11.55-2.65-1.9-7.65 2.3-.95 6.7-1.75.5.15.4-.4 1.65-.55-2.2-8.2-2.05.55-2.5-8.25-1.9.7-1.25.75-2.55.25-2.75-7.85-1.85.7-.45.4-2.4.9-1-.1-2.6 1.1-1 .15-2.05-7.7 5.65-2.3 1.85-.5.45-.3 6.2-2.35-2.75-8.1 3.05-1.15 1.9-1.15 6.4 16.2 2.2-.4 14.85-5.3 2.8 8.7 5.4-1.55q-.65 2.3 1.35 4.65 1.35 1.5 3.45 2.55l.3 1.1 1.75-.3.2.05 4.6 18.6 1.9-.7 1.8-.35-2-9.1 1.6-.55q-.75 2.55 1.25 5.05 1.25 1.55 3.05 2.5l.25 1.25 2.15-.25 11.35-2.55q2 .6 2.75 3.75.65 3.05-.45 6.9l1.65 9.4-5.95 1.2 1.35 9.85 3.4-.15.85.6.3 4.7.3.45.2 4.25 2.15-.1.05.35q-.95 3.35.1 6.25.95 2.9 3.25 3.55l3.3.1.45 9.9 7.85-.2.85.45.9-.4.6.25 3.9-.65 1.75.05L357.3-23l-5.65-.25-1.15-10.5-1.3-.05-9.65.9-2-10.25-1.95.15-1.2-10.1 10.75-1.65h1.15l1.35 10.25 1.7-.45.4.55 1.05 10.6 5.65-.5 1.45 10.7 1.6-.15.55.45 1.3-.1.8 10.6 2.2.2 1.3-.2 8.25-.35-.4-10.95 1.75-.4-.65-11.25 1.9-.25v.1l1.3 11.1 1.5-.1 2.3.2.3 11.15 1.85-.1.45 11.75-.8 23.7 4.05 1.15-.95 11.15-2.25-.05-3.65-.6.8-11.4-9.5-.85-4.4.2-.85 10.95 2 .15 1.9.55-1.1 11.1 5.75 1.05-1.3 11.05 4.9 1 .45-.15 2.5.7-4.35 23.1 1.95.55-2.75 11.45 1.95.55-3.1 11.6 5.7 1.8-3.3 11.45-1.95-.55-7.75 21.95 5.4 2.3q5.65-15.4 10.3-31.55 6.25-21.8 10.15-43.2 8.9-49 5.55-96.6-1.3-17.95-4.25-35.75-11.05-65.4-45.75-128.2l-5.65-9.95q-7.35-12.4-15.15-24Q294-278.7 247.4-315.2l-15.15-11.15m-7.3 63.25l4.8-5.1 7.75 7-2.15 2.55-1.4 1.25-.3.95-2.6 2.55q-3.35-.95-5.1-3.6-1.8-2.7-1-5.6M85.5-376.15l-.3.25.3-.25z"/></g><linearGradient id="g" gradientUnits="userSpaceOnUse" x1="-15.45" y1="97.975" x2="-15.45" y2="348.025" spreadMethod="pad"><stop offset="20.392%" stop-color="#33701A" stop-opacity=".051"/><stop offset="100%" stop-color="#36701B"/></linearGradient><filter id="l" x="-100%" y="-100%" width="300%" height="300%" color-interpolation-filters="sRGB"><feFlood flood-color="#FFF" flood-opacity="1" result="result1"/><feGaussianBlur in="SourceGraphic" stdDeviation="0,0" result="result2"/><feComposite in2="result2" in="result1" operator="in" result="result3"/><feComposite in2="result3" in="SourceGraphic" result="result4"/></filter></defs><use xlink:href="#h" transform="matrix(.0225 0 0 .0225 .635 .502)"/><g transform="matrix(.0225 0 0 .0225 9.599 9.465)"><use xlink:href="#i"/><use xlink:href="#j"/></g><use xlink:href="#k" transform="matrix(.0225 0 0 .0225 9.599 9.465)"/></svg>
