<svg xmlns="http://www.w3.org/2000/svg" xmlns:xlink="http://www.w3.org/1999/xlink" preserveAspectRatio="none" width="19" height="19"><defs><path fill="#FC0" d="M17.95 8.15q0-2.65-2.45-4.6Q13 1.7 9.5 1.7q-.4 0-.85.05-2.9.2-5.1 1.8-2.5 1.95-2.5 4.6 0 2.8 2.5 4.65.7.5 1.45.95-.2 1.85-2.4 3.7 3.15-.5 5.35-2.8.8.1 1.55.1 3.5 0 6-1.95.85-.7 1.45-1.5 1-1.4 1-3.15M15.2 5.5Q9.45 1.1 3.8 5.35q5.65-4.25 11.4.15z" id="a"/><path id="b" stroke="#FFF" stroke-opacity=".749" stroke-width="1" stroke-linejoin="round" stroke-linecap="round" fill="none" d="M15.2 5.5Q9.45 1.1 3.8 5.35"/></defs><g><use xlink:href="#a"/><use xlink:href="#b"/></g></svg>
