<svg xmlns="http://www.w3.org/2000/svg" xmlns:xlink="http://www.w3.org/1999/xlink" preserveAspectRatio="none" width="20" height="20"><defs><path fill="#FFF" d="M.8 10.05q8.95 10.7 18.4 0Q9.75-.6.8 10.05M12.7 7.3q1.145 1.14 1.15 2.75 0 1.556-1.15 2.65-1.094 1.15-2.65 1.15-1.61-.005-2.75-1.15-1.1-1.094-1.1-2.65.005-1.61 1.1-2.75 1.14-1.095 2.75-1.1 1.556 0 2.65 1.1m-.35 2.75q.005-.99-.7-1.7-.656-.65-1.6-.65-.99-.005-1.7.65-.655.71-.65 1.7 0 .944.65 1.6.71.705 1.7.7.944 0 1.6-.7.7-.656.7-1.6z" id="a"/><path id="b" stroke="#FFF" stroke-width="1" stroke-linejoin="round" stroke-linecap="round" fill="none" d="M19.2 10.05Q9.75-.6.8 10.05q8.95 10.7 18.4 0z"/></defs><g><use xlink:href="#a"/><use xlink:href="#b"/></g></svg>
