<svg xmlns="http://www.w3.org/2000/svg" xmlns:xlink="http://www.w3.org/1999/xlink" preserveAspectRatio="none" width="20" height="20"><defs><path id="b" stroke="#333" stroke-width="4" stroke-linejoin="round" stroke-linecap="round" fill="none" d="M51.05 74.15l8.85-3.35Q105.7 43.95 129 0l27.6 76.4 18.55 52q-62.15-27-110-15.4-2.25.6-4.5 1.15l-10.5 3.95 5.6 32.85-14.05 3.95-12.4-29.1-12.95 4.7q-24.6-14.85-12.2-38.9l46.9-17.45zM29.3 125.8l20.85-7.7"/><g id="a"><path fill="#E6E6E6" d="M41.7 154.9l14.05-3.95-5.6-32.85-20.85 7.7 12.4 29.1z"/><path fill="#D9D9D9" d="M62.7 105.9l2.45 7.1q47.85-11.6 110 15.4l-18.55-52-93.9 29.5z"/><path fill="#EB373B" d="M51.05 74.15L4.15 91.6q-12.4 24.05 12.2 38.9l12.95-4.7 20.85-7.7 10.5-3.95q2.25-.55 4.5-1.15l-2.45-7.1-11.65-31.75z"/><path fill="#EBEBEB" d="M156.6 76.4L129 0q-23.3 43.95-69.1 70.8l-8.85 3.35L62.7 105.9l93.9-29.5z"/></g></defs><g transform="matrix(.1 0 0 .1 1.25 2.25)"><use xlink:href="#a"/><use xlink:href="#b"/></g></svg>
