<svg xmlns="http://www.w3.org/2000/svg" xmlns:xlink="http://www.w3.org/1999/xlink" preserveAspectRatio="none" width="20" height="20"><defs><path d="M14.05 16.4q-.45-.15-.95-.05-.5.15-.85.5-.25.4-.2.8.15.35.6.55.45.2.95.05.55-.15.85-.45.3-.45.2-.8-.1-.4-.6-.6m-5.6 1.2q-.45-.15-.95-.05-.5.15-.85.5-.25.4-.2.8.15.35.6.55.45.2.95.05.55-.15.85-.45.3-.45.2-.8-.1-.4-.6-.6m-.55-5.95q-.15-.4-.55-.55-.4-.1-.8.2-.4.3-.55.8-.15.5.05.95.2.45.6.55.4.1.75-.2.4-.3.55-.8.15-.5-.05-.95M3.1 10.4q-.4.3-.55.8-.15.5.05.95.2.45.6.55.4.1.75-.2.4-.3.55-.8.15-.5-.05-.95-.15-.4-.55-.55-.4-.1-.8.2M.8 11.5q.4-.3.55-.8.15-.5-.05-.95-.15-.4-.55-.55-.4-.1-.8.2-.4.3-.55.8-.15.5.05.95.2.45.6.55.4.1.75-.2m16.45-.2q-.4.1-.55.5-.2.45-.1.95.15.5.55.8.4.3.8.2.4-.1.6-.5.15-.5 0-1t-.45-.8q-.45-.3-.85-.15m-3.2-.1q-.2.45-.1.95.15.5.55.8.4.3.8.2.4-.1.6-.5.15-.5 0-1t-.45-.8q-.45-.3-.85-.15-.4.1-.55.5m-2.9-.85q-.2.45-.1.95.15.5.55.8.4.3.8.2.4-.1.6-.5.15-.5 0-1t-.45-.8q-.45-.3-.85-.15-.4.1-.55.5m3.9-3.3q-.2.45-.1.95.15.5.55.8.4.3.8.2.4-.1.6-.5.15-.5 0-1t-.45-.8q-.45-.3-.85-.15-.4.1-.55.5m-3.8-1.2q-.15-.5-.45-.8-.45-.3-.85-.15-.4.1-.55.5-.2.45-.1.95.15.5.55.8.4.3.8.2.4-.1.6-.5.15-.5 0-1m2.45.1q-.45-.3-.85-.15-.4.1-.55.5-.2.45-.1.95.15.5.55.8.4.3.8.2.4-.1.6-.5.15-.5 0-1t-.45-.8z" id="b"/><g id="a"><path fill="#999" d="M.65 19.55L10.8 13.4 7.3 2.45l-9.6 7.2 2.95 9.9z"/><path fill="#FFF" d="M10.8 13.4l9.9 2.25-3.6-10.1-9.8-3.1 3.5 10.95z"/><path fill="#666" d="M20.7 15.65l-9.9-2.25L.65 19.55l10.95 2.1 9.1-6z"/></g></defs><use xlink:href="#a" transform="matrix(.801 0 0 .801 2.65 .35)"/><use xlink:href="#b" transform="matrix(.801 0 0 .801 2.65 .35)"/></svg>
