<svg xmlns="http://www.w3.org/2000/svg" xmlns:xlink="http://www.w3.org/1999/xlink" preserveAspectRatio="none" width="19" height="19"><defs><path fill="#0C0" fill-opacity=".498" d="M10.45 0h-7.2L0 7.05h13.7L10.45 0z" id="a"/><path fill="#B18800" d="M-.6-1.9q-5.5 0-9.4 1.65-3.85 1.7-3.85 4.05 0 2.35 3.85 4 3.9 1.7 9.4 1.7t9.35-1.7q3.9-1.65 3.9-4T8.75-.25Q4.9-1.9-.6-1.9z" id="b"/><path fill="#DBA800" d="M19.5-.4q0-3.1-5.85-5.35-5.8-2.2-14.05-2.2t-14.05 2.2q-5.8 2.25-5.8 5.35 0 3.15 5.8 5.35 5.8 2.2 14.05 2.2t14.05-2.2Q19.5 2.75 19.5-.4z" id="c"/><path fill="#FF0" d="M-4.9 4q0-.4-.6-.7-.6-.3-1.45-.3t-1.45.3q-.6.3-.6.7 0 .4.6.7.6.3 1.45.3t1.45-.3q.6-.3.6-.7m-6.4-9.55q-.85 0-1.45.3t-.6.7q0 .4.6.7.6.3 1.45.3t1.45-.3q.6-.3.6-.7 0-.4-.6-.7-.6-.3-1.45-.3m-2.05 5.2q0-.4-.6-.7-.6-.3-1.45-.3t-1.45.3q-.6.3-.6.7 0 .4.6.7.6.3 1.45.3t1.45-.3q.6-.3.6-.7M8.15 4q0-.4-.6-.7Q6.95 3 6.1 3t-1.45.3q-.6.3-.6.7 0 .4.6.7.6.3 1.45.3t1.45-.3q.6-.3.6-.7m8-4.35q0-.4-.6-.7-.6-.3-1.45-.3t-1.45.3q-.6.3-.6.7 0 .4.6.7.6.3 1.45.3t1.45-.3q.6-.3.6-.7M10-5.55q-.85 0-1.45.3t-.6.7q0 .4.6.7.6.3 1.45.3t1.45-.3q.6-.3.6-.7 0-.4-.6-.7-.6-.3-1.45-.3z" id="d"/><g id="e"><path fill="#378F8C" d="M10.5-.45Q1.45-4.95-7.6-2.1-8-.7-8.2.9.55 3.6 10.5-.45z"/><path fill="#5BA3A0" d="M-7.6-2.1q-2 .65-4.05 1.65Q-9.95.35-8.2.9q.2-1.6.6-3z"/><path fill="#64BCB9" d="M2.2-11.2h-.05q-2.8-.55-5.6 0Q-10-9.7-11.65-.45q2.05-1 4.05-1.65 2.2-7.95 9.8-9.1z"/><path fill="#44B1AF" d="M10.5-.45Q8.7-9.65 2.2-11.2q-7.6 1.15-9.8 9.1Q1.45-4.95 10.5-.45z"/></g></defs><use xlink:href="#a" transform="translate(2.65 11.5)"/><use xlink:href="#b" transform="translate(9.65 8.05) scale(.46388)"/><use xlink:href="#c" transform="translate(9.65 8.05) scale(.46388)"/><use xlink:href="#d" transform="translate(9.65 8.05) scale(.46388)"/><use xlink:href="#e" transform="translate(9.65 8.05) scale(.46388)"/></svg>
