<svg xmlns="http://www.w3.org/2000/svg" width="22" height="22"><path d="M17.3 21.8H4.7c-2.5 0-4.5-2-4.5-4.5V4.7C.2 2.2 2.2.2 4.7.2h12.6c2.5 0 4.5 2 4.5 4.5v12.6c0 2.5-2 4.5-4.5 4.5z" fill="#ff0"/><path d="M6.1 8.9c.7.4.9.6.7-.4-.1-1 .2-4.7 3.9-4.8-.2 0 4.8-.4 4.3 5-.1.7 1.2-.5 1.9-.3.3.1.6.3.6.8s-.4.7-1.2 1.2c-.1.1-.8.5-1.2.8-.1.1.7 2.7 2.9 3.2 1.3.3-1.3 1-1.5 1.2-.6.5-.3.9-1.1 1.1-.6.1-1 0-1.9.5-1 .6-2.6 1.6-4.3.3-1.6-1.3-3.7-.5-3.5-1.3.2-1-2.2-1-1.9-1.6 0-.1.5-.3.8-.4 0 0 2.2-.8 2-2.7 0-.1 0-.2-.1-.2l-1.3-.8c-.4-.3-.8-.6-.7-1.2.2-.6.9-.9 1.6-.4z" fill="#fff"/><path d="M11 18.5c-.6 0-1.3-.2-1.9-.7-.8-.6-1.7-.7-2.4-.8-.5 0-.9-.1-1.1-.3-.1-.1-.1-.2-.1-.5.1-.3-.3-.4-1-.7-.5-.2-.8-.3-1-.6 0-.1-.1-.2 0-.4.1-.1.2-.2.6-.4.1-.1.2-.1.3-.2.1 0 2-.7 1.9-2.4L5 10.7c-.4-.3-.9-.7-.7-1.5.1-.4.3-.7.6-.8.4-.2.9-.1 1.4.2l.2.1v-.2c-.1-.5 0-2.3 1.1-3.6.7-.9 1.8-1.4 3.1-1.5.7 0 2.4.1 3.5 1.3.8.9 1.2 2.2 1.1 3.9.1 0 .2-.1.3-.1.5-.2 1-.5 1.4-.3.4.1.8.5.8 1.1 0 .6-.5 1-1.3 1.5l-.4.2c-.2.1-.5.3-.7.5.2.5.9 2.3 2.7 2.8.1 0 .6.1.6.5s-.6.7-1.5 1.1c-.2.1-.4.2-.5.2-.2.1-.3.3-.3.4-.1.3-.3.6-.9.7-.2 0-.3.1-.5.1-.4 0-.7.1-1.3.4l-.1.1c-.6.2-1.5.7-2.6.7zm-4.9-2.1s.4 0 .6.1c.7.1 1.8.2 2.8.9 1.4 1.2 2.8.3 3.8-.3l.1-.1c.7-.4 1.1-.4 1.5-.5.1 0 .3 0 .4-.1.3-.1.4-.2.5-.4.1-.2.2-.4.5-.7.1-.1.2-.1.6-.3.2-.1.7-.3 1-.4-2.2-.6-3-2.9-3.1-3.4 0-.2 0-.3.1-.4.2-.2.6-.4.8-.6.2-.1.3-.2.4-.2.8-.5 1-.7 1-1 0-.4-.4-.5-.4-.5-.2-.1-.7.1-1 .3-.4.2-.7.3-1 .2-.1-.1-.2-.2-.2-.5.1-1.6-.2-2.8-.9-3.6-1-1.1-2.5-1.2-3-1.1-1 .3-1.9.7-2.6 1.4C7 6.4 7 8 7.1 8.5c.1.5.1.8-.1 1-.2.2-.5 0-.8-.2L6 9.1c-.3-.1-.6-.2-.8-.1-.2.1-.3.2-.3.4-.1.3.1.5.5.8l.1.1 1.3.8c.1.1.2.4.2.5.1 1.7-1.4 2.7-2.2 3-.1 0-.2.1-.3.2-.1 0-.1.1-.2.1.1 0 .3.1.4.1.6.2 1.6.5 1.4 1.4z"/></svg>
