<svg xmlns="http://www.w3.org/2000/svg" width="22" height="22"><style></style><linearGradient id="SVGID_1_" gradientUnits="userSpaceOnUse" x1="0" y1="0" x2="0" y2="-1"><stop offset="0" stop-color="#656565"/><stop offset=".618" stop-color="#1b1b1b"/><stop offset=".629" stop-color="#545454"/><stop offset=".983" stop-color="#3e3e3e"/></linearGradient><g id="Capa_3"><g id="XMLID_1_"><path d="M15.58 14.93c-3.02-1.8-6.57-1.87-10.04-1.11-.31.07-.57.28-.57.71 0 .35.26.67.67.67.12 0 .34-.06.5-.11 3.04-.62 6.11-.55 8.75 1.04.17.1.28.15.46.15.34 0 .64-.27.64-.65s-.15-.53-.41-.7zm.91-1.42c.46 0 .81-.37.82-.83 0-.37-.14-.63-.48-.83-2.09-1.25-4.75-1.93-7.5-1.93-1.76 0-2.96.25-4.14.58-.43.12-.65.42-.65.87 0 .46.36.82.82.82.19 0 .3-.05.5-.11 3.51-.95 7.46-.32 10.1 1.25.16.08.31.18.53.18zm2.29-4.22c0-.5-.21-.76-.55-.95-2.36-1.38-5.6-2.03-8.69-2.03-1.82 0-3.49.21-4.98.65-.38.11-.73.43-.73 1.01 0 .56.42 1 .98 1 .21 0 .4-.07.55-.11 3.49-.98 8.88-.55 11.89 1.25.19.11.33.17.55.17.51 0 .98-.41.98-.99zM11.08.83c5.8 0 10.5 4.7 10.5 10.5s-4.7 10.5-10.5 10.5-10.5-4.7-10.5-10.5S5.28.83 11.08.83z" fill="#1ed760"/></g></g></svg>
