<svg xmlns="http://www.w3.org/2000/svg" xmlns:xlink="http://www.w3.org/1999/xlink" preserveAspectRatio="none" width="19" height="19"><defs><path fill="#EAAE02" d="M11.6 15.8q0-.85-.6-1.5-.65-.6-1.5-.6t-1.5.6q-.6.65-.6 1.5 0 .9.6 1.5.65.6 1.5.6t1.5-.6q.6-.6.6-1.5z" id="a"/><g id="b"><path fill="#FFDD70" d="M15.2 8.4V6.95q-.5-3.25-4.6-4.65v-.2q0-.45-.35-.75-.3-.35-.8-.35t-.8.35q-.3.3-.3.75 0 .15.05.2-4.1 1.4-4.55 4.65v4.4q-.35 1.8-2.35 2.75l-.05 2.35Q12.762 4.843 15.2 8.4z"/><path fill="#FEC300" d="M15.2 11V8.4q-2.438-3.557-13.75 8.05H17.6l-.05-2.35q-2.05-.95-2.35-3.1z"/></g></defs><use xlink:href="#a"/><use xlink:href="#b"/></svg>
