<svg xmlns="http://www.w3.org/2000/svg" xmlns:xlink="http://www.w3.org/1999/xlink" preserveAspectRatio="none" width="20" height="20"><defs><path id="b" stroke="#999" stroke-width="4" stroke-linejoin="round" stroke-linecap="round" fill="none" d="M58.1.7h112.8q5.8 0 5.8 5.8v164.4q0 5.85-5.8 5.85H5.85Q0 176.75 0 170.9V6.5Q0 .7 5.85.7H58.1l18.2 38.2h46.6V.7m0 38.2h53.8"/><g id="a"><path fill="#B4C0BD" fill-opacity=".647" d="M122.9 38.9V.7H58.1l18.2 38.2h46.6m53.8 0V6.5q0-5.8-5.8-5.8h-48v38.2h53.8z"/><path fill="#F8FBFB" d="M170.9 176.75q5.8 0 5.8-5.85v-132H76.3L58.1.7H5.85Q0 .7 0 6.5v164.4q0 5.85 5.85 5.85H170.9z"/></g></defs><g transform="matrix(.1 0 0 .1 1.2 .95)"><use xlink:href="#a"/><use xlink:href="#b"/></g></svg>
