<svg xmlns="http://www.w3.org/2000/svg" xmlns:xlink="http://www.w3.org/1999/xlink" preserveAspectRatio="none" width="19" height="19"><defs><g id="a"><path fill="#FFE272" d="M29.8 3.35L27.2.75Q25.75-.7 24.35.7L.75 24.3q-1.45 1.45 0 2.9l2.6 2.6q1.1-1.1 2.75-1.05 1.7.1 2.9 1.3l.35.35 20.9-20.9q-.2-.1-.4-.3-1.2-1.2-1.3-2.9-.05-1.65 1.05-2.75l.2-.2z"/><path fill="#FC0" d="M38 11.55L35.75 9.3l-.2.2q-1.1 1.1-2.85.95-1.4 0-2.45-.95L9.35 30.4q.9 1.1.9 2.5.15 1.75-.95 2.85L11.55 38q1.4 1.4 2.85-.05L38 14.35q1.4-1.4 0-2.8z"/></g></defs><use xlink:href="#a" transform="matrix(.43152 0 0 .43152 1.15 1.15)"/></svg>
