<svg xmlns="http://www.w3.org/2000/svg" xmlns:xlink="http://www.w3.org/1999/xlink" preserveAspectRatio="none" width="19" height="19"><defs><path id="b" stroke="#FFF" stroke-width="1" stroke-linejoin="round" stroke-linecap="round" fill="none" d="M8.3-3.55q-.3-.2-.55-.5-.55-.5-.55-1.4 0-.9.55-1.45.7-.65 1.55-.65.9 0 1.45.65.7.55.7 1.45 0 .9-.7 1.4-.55.75-1.45.75-.55 0-1-.25l-4.05 6.3q.2.05.35.25.7.65.7 1.55T4.6 6q-.45.6-1.3.6-.9 0-1.6-.6-.6-.55-.6-1.45 0-.8.55-1.5L-1.6-.2q-.55.5-1.25.5-.65 0-1.3-.4l-3.4 4.55q.45.55.45 1.2 0 .9-.6 1.5-.65.6-1.5.6-.9 0-1.55-.6-.6-.6-.6-1.5 0-.95.6-1.45.65-.6 1.55-.6.85 0 1.5.6.1.1.15.25m9.2-1.4q.05 0 .05-.05.7-.6 1.6-.6.45 0 .95.35M-4.15-.1q-.1-.2-.3-.3Q-5-1-5-1.9q0-.8.55-1.45.75-.7 1.6-.7.85 0 1.4.7.7.65.7 1.45 0 .9-.7 1.5-.05.05-.15.2l-.65-.6"/><g id="a"><path fill="#09F" d="M12.65-12.35q-5.2-5.2-12.55-5.2-7.6 0-12.75 5.2Q-17.9-7.25-17.9 0t5.25 12.45q5.15 5.1 12.75 5.1 7.35 0 12.55-5.1Q17.9 7.25 17.9 0q0-7.25-5.25-12.35M9.3-3.3q-.55 0-1-.25l-4.05 6.3q.2.05.35.25.7.65.7 1.55T4.6 6q-.45.6-1.3.6-.9 0-1.6-.6-.6-.55-.6-1.45 0-.8.55-1.5L-1.6-.2q-.55.5-1.25.5-.65 0-1.3-.4l-3.4 4.55q.45.55.45 1.2 0 .9-.6 1.5-.65.6-1.5.6-.9 0-1.55-.6-.6-.6-.6-1.5 0-.95.6-1.45.65-.6 1.55-.6.85 0 1.5.6.1.1.15.25l3.4-4.55q-.1-.2-.3-.3Q-5-1-5-1.9q0-.8.55-1.45.75-.7 1.6-.7.85 0 1.4.7.7.65.7 1.45 0 .9-.7 1.5-.05.05-.15.2l3.25 3.25q.05 0 .05-.05.7-.6 1.6-.6.45 0 .95.35l4.05-6.3q-.3-.2-.55-.5-.55-.5-.55-1.4 0-.9.55-1.45.7-.65 1.55-.65.9 0 1.45.65.7.55.7 1.45 0 .9-.7 1.4-.55.75-1.45.75z"/><path fill="#FFF" d="M-7.55 4.45q-.05-.15-.15-.25-.65-.6-1.5-.6-.9 0-1.55.6-.6.5-.6 1.45 0 .9.6 1.5.65.6 1.55.6.85 0 1.5-.6.6-.6.6-1.5 0-.65-.45-1.2m4.7-8.5q-.85 0-1.6.7Q-5-2.7-5-1.9q0 .9.55 1.5.2.1.3.3.65.4 1.3.4.7 0 1.25-.5l-.65-.6.65.6q.1-.15.15-.2.7-.6.7-1.5 0-.8-.7-1.45-.55-.7-1.4-.7m7.1 6.8q-.5-.35-.95-.35-.9 0-1.6.6 0 .05-.05.05-.55.7-.55 1.5 0 .9.6 1.45.7.6 1.6.6.85 0 1.3-.6.7-.55.7-1.45 0-.9-.7-1.55-.15-.2-.35-.25m4.05-6.3q.45.25 1 .25.9 0 1.45-.75.7-.5.7-1.4 0-.9-.7-1.45-.55-.65-1.45-.65-.85 0-1.55.65-.55.55-.55 1.45 0 .9.55 1.4.25.3.55.5z"/></g></defs><g transform="matrix(.48306 0 0 .4924 9.5 9.5)"><use xlink:href="#a"/><use xlink:href="#b"/></g></svg>
