<svg xmlns="http://www.w3.org/2000/svg" xmlns:xlink="http://www.w3.org/1999/xlink" preserveAspectRatio="none" width="19" height="19"><defs><path id="b" stroke="#000" stroke-width="1" stroke-linejoin="round" stroke-linecap="round" fill="none" d="M12.45 9.8q-.15 1.1-.9 1.85-.9.9-2.1.9-1.3 0-2.15-.9-.85-.8-.85-1.95M1 9.65q.05 3.4 2.45 5.85Q5.95 18 9.5 18q3.5 0 6-2.5 2.35-2.4 2.5-5.7l-2.85 2.55-2.7-2.55v-.25m0-.05q-.05-1.2-.9-2.05-.9-.9-2.1-.9-1.3 0-2.15.9-.9.85-.85 2.1-.05.05 0 .15L3.8 7 1 9.65V9.5q0-3.55 2.45-6.05Q5.95 1 9.5 1q3.5 0 6 2.45Q18 5.95 18 9.5v.3"/><g id="a"><path fill="#FC0" d="M1 9.65L3.8 7.2l2.65 2.5L3.8 7 1 9.65m11.45-.15l2.7 2.65L18 9.5q0-3.55-2.5-6.05Q13 1 9.5 1 5.95 1 3.45 3.45 1 5.95 1 9.5v.15L3.8 7l2.65 2.7q-.05-.1 0-.15-.05-1.25.85-2.1.85-.9 2.15-.9 1.2 0 2.1.9.85.85.9 2.05z"/><path fill="#009" d="M12.45 9.8l2.7 2.55L18 9.8v-.3l-2.85 2.65-2.7-2.65v.3m0 0q-.15 1.1-.9 1.85-.9.9-2.1.9-1.3 0-2.15-.9-.85-.8-.85-1.95L3.8 7.2 1 9.65q.05 3.4 2.45 5.85Q5.95 18 9.5 18q3.5 0 6-2.5 2.35-2.4 2.5-5.7l-2.85 2.55-2.7-2.55z"/></g></defs><g><use xlink:href="#a"/><use xlink:href="#b"/></g></svg>
