<svg xmlns="http://www.w3.org/2000/svg" xmlns:xlink="http://www.w3.org/1999/xlink" preserveAspectRatio="none" width="19" height="19"><defs><path fill="#0CF" d="M18.15 4.7q-.95.4-1.8.45.8-.75 1.3-1.8-1.2.85-2.25.9-.1-.15-.25-.25-.85-.85-2.15-.85-1.3 0-2.2.85-.6.5-.85 1.1-.35.8-.4 2.25Q5.1 7.1 2.5 3.7q-1.4 2.2.85 4.5-.85.15-1.5-.4.35 2.65 2.75 3.45-.75.45-1.45.2.7 2.15 3 2.4-1.75 1.7-4.85 1.35 4.05 2.85 9.4.75Q15 14.1 16.4 8.5q.25-1.05.15-2.15.95-.7 1.6-1.65z" id="a"/></defs><use xlink:href="#a"/></svg>
