<svg xmlns="http://www.w3.org/2000/svg" xmlns:xlink="http://www.w3.org/1999/xlink" preserveAspectRatio="none" width="19" height="19"><defs><path fill="#27D700" d="M17.25 7.8q-.24-3.04-2.45-5.25Q12.25 0 8.65 0q-3.6 0-6.1 2.55Q0 5.05 0 8.65q0 3.6 2.55 6.15.142.142.3.25 2.405 2.25 5.8 2.25 3.6 0 6.15-2.5 2.5-2.55 2.5-6.15 0-.419-.05-.85z" id="a"/><path fill-opacity=".247" d="M17.25 7.8q-11.083.03-14.4 7.25 2.405 2.25 5.8 2.25 3.6 0 6.15-2.5 2.5-2.55 2.5-6.15 0-.419-.05-.85z" id="b"/><path id="c" stroke="#FFF" stroke-width="2" stroke-linejoin="round" stroke-linecap="round" fill="none" d="M7.1 7.1L3.55 3.55 0 7.1M0 0l3.55 3.55L7.1 0"/></defs><use xlink:href="#a" transform="translate(.85 .85)"/><use xlink:href="#b" transform="translate(.85 .85)"/><use xlink:href="#c" transform="matrix(.7071 .7071 -.7071 .7071 9.5 4.5)"/></svg>
