<svg xmlns="http://www.w3.org/2000/svg" width="18.73" height="16.23"><style>.st0,.st6{fill:#bebebe;stroke:#343333;stroke-width:.7133;stroke-miterlimit:10}.st6{fill:#ed6d12;stroke-width:.1189}</style><g id="Capa_2"><path class="st0" d="M2.18.52l15.41.04.01 2.64-1.65.03v9.19h2.28c.01.37-.03 1.17-.51 2-.32.54-.71.88-.97 1.08H2.99c-.26-.07-.63-.33-1.23-1.13-.59-.79-.54-1.67-.54-1.93l2.4-.02.1-8.1.01-1.14h-1.6L2.18.52zM3.73 3.17l12.22.06"/><path fill="none" stroke="#343333" stroke-width=".713" stroke-miterlimit="10" d="M3.81 4.8l10.54.04v7.58H3.63"/><path class="st0" d="M14.46 12.42h1.44"/><path fill="#ffd004" stroke="#343333" stroke-width=".357" stroke-miterlimit="10" d="M9.27 8.08l.91 1.6 1.83-.37-1.08 1.14.57 1.52-1.64-.64-1.28.68.15-1.12-1.69-.78 1.89-.22z"/><path class="st0" d="M3.71 6.04l10.7.04M3.79 7.63h10.44"/><path fill="#00a439" stroke="#343333" stroke-width=".119" stroke-miterlimit="10" d="M10.67 1.99h.78v.77h-.78z"/><path fill="#e41313" stroke="#343333" stroke-width=".119" stroke-miterlimit="10" d="M9.12 1.99h.78v.77h-.78z"/></g><path fill="#3c3c3b" stroke="#343333" stroke-width=".119" stroke-miterlimit="10" d="M3.93 6.26H14.1v1.16H3.93z" id="Capa_4"/><g id="Capa_5"><path class="st6" d="M5.98 6.5h1.51v.7H5.98zM8.36 6.5h1.51v.7H8.36zM10.73 6.5h1.51v.7h-1.51z"/></g></svg>
