<svg xmlns="http://www.w3.org/2000/svg" width="284" height="270"><style></style><switch><g><linearGradient id="SVGID_1_" gradientUnits="userSpaceOnUse" x1="-74" y1="-386" x2="-74" y2="-387"><stop offset="0" stop-color="#656565"/><stop offset=".618" stop-color="#1b1b1b"/><stop offset=".629" stop-color="#545454"/><stop offset=".983" stop-color="#3e3e3e"/></linearGradient><g id="Capa_2"><path d="M226 238H103c-8.284 0-15-6.716-15-15V100c0-8.284 6.716-15 15-15h123c8.284 0 15 6.716 15 15v123c0 8.284-6.716 15-15 15z" fill="#fff" stroke="#00aaf5" stroke-width="22" stroke-miterlimit="10"/><linearGradient id="SVGID_2_" gradientUnits="userSpaceOnUse" x1="32" y1="112.5" x2="185" y2="112.5"><stop offset=".528" stop-color="#cbe8fa"/><stop offset=".528" stop-color="#74edff"/></linearGradient><path d="M170 189H47c-8.284 0-15-6.716-15-15V51c0-8.284 6.716-15 15-15h123c8.284 0 15 6.716 15 15v123c0 8.284-6.716 15-15 15z" fill="url(#SVGID_2_)" stroke="#f7931e" stroke-width="22" stroke-miterlimit="10"/></g><g id="Capa_3"><path d="M113.232 154.075L90.09 121.4c-1.578-2.228-4.834-2.368-6.597-.283l-39.184 46.336a4.234 4.234 0 00-.986 2.803c.018 1.236-.101 3.181.204 4.893.349 1.953 2.138 3.318 4.122 3.297l59.067-.621c.096-.001.195.002.29.007 4.978.297 6.827.271 6.994-3.407v-17.936c0-.865-.268-1.708-.768-2.414z" fill="#007a45"/><path d="M174 147l-33.966-44.284c-2.803-3.655-8.301-3.682-11.141-.056L69.5 178.5l94.062-.913C171 178 173.753 178.013 174 173v-26z" fill="#00ce45"/><circle cx="101.5" cy="85.5" r="17.5" fill="#fbff15"/></g></g></switch></svg>
