<svg xmlns="http://www.w3.org/2000/svg" xmlns:xlink="http://www.w3.org/1999/xlink" preserveAspectRatio="none" width="19" height="19"><defs><path d="M13.15 6.45q0-3.15-2.2-5.4-2.25-2.2-5.4-2.2-3.2 0-5.4 2.2Q-2.1 3.3-2.1 6.45q0 3.15 2.25 5.35.069.077.15.15.293.316.6.55.11-.267.2-.55.417-1.093 1.1-2.05 1.55-2.2 3.2-2.35-1.4 0-2.4-1t-1-2.4q0-1.4 1-2.4t2.4-1q1.4 0 2.4 1t1 2.4q0 1.4-1 2.4-.9.9-2.1 1Q7.5 7.55 9 10q.711 1.162 1.1 2.5.456-.306.85-.7 2.2-2.2 2.2-5.35z" id="d"/><path fill="url(#a)" d="M3.85-1.55Q2.25-2.9 0-2.9t-3.85 1.35q-1.6 1.35-1.6 3.3 0 .65.15 1.15l10.6-.15q.15-.4.15-1 0-1.95-1.6-3.3z" id="f"/><path fill="#090" d="M7.8 1.75q-1-1-2.4-1t-2.4 1q-1 1-1 2.4t1 2.4q1 1 2.4 1-1.65.15-3.2 2.35-.683.957-1.1 2.05-.09.283-.2.55.106.085.2.15.244.177.5.3.685.445 1.45.7 1.15.4 2.5.4 2.45 0 4.35-1.35.116-.085.2-.2Q9.711 11.162 9 10 7.5 7.55 5.7 7.55q1.2-.1 2.1-1 1-1 1-2.4t-1-2.4z" id="g"/><path id="i" stroke="#FFF" stroke-width="1" stroke-linejoin="round" stroke-linecap="round" fill="none" d="M3.7 4.2Q3.9 2.9 5 2.35M2.9 13.6q.567-3.002 2.5-4.25"/><radialGradient id="b" gradientUnits="userSpaceOnUse" cx="0" cy="0" r="9.668" fx="0" fy="0" gradientTransform="matrix(.48356 -.87531 .51459 .28186 8.15 14.05)" spreadMethod="pad"><stop offset="0%" stop-opacity=".412"/><stop offset="100%" stop-color="#013198" stop-opacity="0"/></radialGradient><radialGradient id="c" gradientUnits="userSpaceOnUse" cx="0" cy="0" r="5.021" fx="0" fy="0" gradientTransform="matrix(.77672 -.62984 .4008 .49292 6.9 5.4)" spreadMethod="pad"><stop offset="0%" stop-opacity=".424"/><stop offset="100%" stop-color="#013198" stop-opacity="0"/></radialGradient><linearGradient id="a" gradientUnits="userSpaceOnUse" x1="0" y1="4.975" x2="0" y2="-4.975" spreadMethod="pad"><stop offset="20.392%" stop-color="#FFF" stop-opacity="0"/><stop offset="73.725%" stop-color="#FFF" stop-opacity=".949"/><stop offset="100%" stop-color="#FFF" stop-opacity=".651"/><stop offset="100%" stop-opacity=".251"/></linearGradient><filter id="e" x="-20%" y="-20%" width="140%" height="140%" color-interpolation-filters="sRGB"><feColorMatrix in="SourceGraphic" values="1 0 0 0 0 0 1 0 0 0 0 0 1 0 0 0 0 0 0.49 0" result="result1"/></filter><g id="h"><path fill="url(#b)" d="M2.2 9.9q-.683.957-1.1 2.05-.09.283-.2.55.106.085.2.15.244.177.5.3.617.404 1.3.65.567-3.002 2.5-4.25-1.933 1.248-2.5 4.25l.15.05q1.15.4 2.5.4 2.45 0 4.35-1.35.116-.085.2-.2Q9.711 11.162 9 10 7.5 7.55 5.7 7.55h-.3Q3.75 7.7 2.2 9.9z"/><path fill="url(#c)" d="M7.8 1.75q-1-1-2.4-1t-2.4 1q-1 1-1 2.4t1 2.4q1 1 2.4 1h.3q1.2-.1 2.1-1 1-1 1-2.4t-1-2.4M3.7 4.2Q3.9 2.9 5 2.35 3.9 2.9 3.7 4.2z"/></g></defs><use xlink:href="#d" transform="matrix(1.13487 0 0 1.12754 3.233 2.218)"/><use filter="url(#e)" xlink:href="#f" transform="matrix(1.13487 0 0 1.12754 9.418 5.037)"/><use xlink:href="#g" transform="matrix(1.13487 0 0 1.12754 3.233 2.218)"/><g transform="matrix(1.13487 0 0 1.12754 3.233 2.218)"><use xlink:href="#h"/><use xlink:href="#i"/></g></svg>
