<svg xmlns="http://www.w3.org/2000/svg" xmlns:xlink="http://www.w3.org/1999/xlink" preserveAspectRatio="none" width="19" height="19"><defs><path fill="#FC9" d="M0 28.7q2.7-.75 5.1-2 10.05-4.95 15.35-16.95V-12.6q-19.55-32.15-40.9 0v23.45q6.3 12 20.45 17.85z" id="a"/><path fill="#C9A27B" fill-opacity=".545" d="M0 28.7q2.7-.75 5.1-2-17.55-9.1-25.55-24.2v8.35q6.3 12 20.45 17.85z" id="b"/><path fill="#FFF" fill-opacity=".451" d="M-14.7-6.2q3.3.5 6.6 0l2.5-1.65q-5.3.9-10.6 0l1.5 1.65M2.65 7.3l2.5-2.25q-5.3 1.25-10.6 0l1.5 2.25q3.3 1.1 6.6 0m4.5-13.5q3.3.5 6.6 0l2.5-1.65q-5.3.9-10.6 0l1.5 1.65z" id="d"/><path fill="#FFF" d="M-13.9-3.35q-.91.224-1.7.6Q-17.7-1.6-17.7 0t2.1 2.6q.79.433 1.7.7 1.51.45 3.35.45 3 0 5.1-1.15 2.1-1 2.1-2.6t-2.1-2.75q-2.1-1-5.1-1-1.84 0-3.35.4m24.5-.4q-3 0-5.1 1Q3.4-1.6 3.4 0t2.1 2.6q2.1 1.15 5.1 1.15 1.85 0 3.35-.45.9-.25 1.7-.7 2.1-1 2.1-2.6t-2.1-2.75q-.8-.4-1.7-.6-1.5-.4-3.35-.4z" id="f"/><path d="M-10.65-2.35q-1.3 0-2.3.65-.9.75-.9 1.7t.9 1.6q1 .75 2.3.75 1.3 0 2.2-.75 1-.65 1-1.6 0-.95-1-1.7-.9-.65-2.2-.65m21.35 0q-1.3 0-2.3.65-.9.75-.9 1.7t.9 1.6q1 .75 2.3.75 1.3 0 2.2-.75 1-.65 1-1.6 0-.95-1-1.7-.9-.65-2.2-.65z" id="h"/><path fill="#06F" d="M49.05 13.15l-3.7-8.45L40 7.5 35.6 0l-5 6.1L25.1 0l-4.3 7.5-5.45-2.8-3.7 8.45h-5.3v8.9h-4.8l2.3 9.1H0L4.25 38l-2.2 6.55 5.8 9.6 1.9-4.7 2.9-17.05L25.9 26l-2.3 5.65L34.4 26l-3 7.95L44.35 26l-3.3 7.8 10-4.7-.1 20.35 1.9 4.7 5.8-9.6-2.2-6.55 4.3-6.85h-3.8l2.2-9.1h-4.8v-8.9h-5.3z" id="i"/><path fill="#FFF" fill-opacity=".22" d="M4.55 3.5l-3 7.95L14.5 3.5l-3.3 7.8 10-4.7-.1 20.35 1.9 4.7 1.25-2.05-.15-27.35-5.25.25 1.25-5-9.5 4 1.65-5L-.4 1.15l2.25-5.5-24 8.35 1.5 4.75-5.7 15.75 4.35 7.15 1.9-4.7 2.9-17.05 13.25-6.4-2.3 5.65L4.55 3.5z" id="j"/><path id="c" stroke="#333" stroke-width="1.5" stroke-linejoin="round" stroke-linecap="round" fill="none" d="M0 28.7q-14.15-5.85-20.45-17.85V-12.6q21.35-32.15 40.9 0V9.75q-5.3 12-15.35 16.95-2.4 1.25-5.1 2z"/><path id="e" stroke="#900" stroke-width="1.5" stroke-linejoin="round" stroke-linecap="round" fill="none" d="M-6.35 0h12.7"/><path id="g" stroke="#333" stroke-width="1.5" stroke-linejoin="round" stroke-linecap="round" fill="none" d="M13.95-3.35q-1.5-.4-3.35-.4-3 0-5.1 1Q3.4-1.6 3.4 0t2.1 2.6q2.1 1.15 5.1 1.15 1.85 0 3.35-.45M-13.9-3.35q1.51-.4 3.35-.4 3 0 5.1 1Q-3.35-1.6-3.35 0t-2.1 2.6q-2.1 1.15-5.1 1.15-1.84 0-3.35-.45"/><path id="k" stroke="#333" stroke-width="1.5" stroke-linejoin="round" stroke-linecap="round" fill="none" d="M10.15-15l-4.4-7.5-5 6.1-5.5-6.1-4.3 7.5-5.45-2.8-3.7 8.45h-5.3v8.9h-4.8l2.3 9.1h-3.85l4.25 6.85-2.2 6.55 5.8 9.6 1.9-4.7 2.9-17.05 13.25-6.4-2.3 5.65L4.55 3.5l-3 7.95L14.5 3.5l-3.3 7.8 10-4.7-.1 20.35 1.9 4.7 5.8-9.6-2.2-6.55 4.3-6.85h-3.8l2.2-9.1h-4.8v-8.9h-5.3l-3.7-8.45-5.35 2.8z"/></defs><use xlink:href="#a" transform="matrix(.275 0 0 .275 9.45 10.668)"/><use xlink:href="#b" transform="matrix(.275 0 0 .275 9.45 10.668)"/><use xlink:href="#c" transform="matrix(.275 0 0 .275 9.45 10.668)"/><use xlink:href="#d" transform="matrix(.275 0 0 .275 10.239 14.694)"/><use xlink:href="#e" transform="matrix(.275 0 0 .275 10.364 15.607)"/><g transform="matrix(.275 0 0 .275 9.865 11)"><use xlink:href="#f"/><use xlink:href="#g"/></g><g><use xlink:href="#h" transform="matrix(.275 0 0 .275 10.779 10.959)"/></g><g><use xlink:href="#i" transform="matrix(.275 0 0 .275 1.159 .496)"/><use xlink:href="#j" transform="matrix(.275 0 0 .275 9.367 6.684)"/><use xlink:href="#k" transform="matrix(.275 0 0 .275 9.367 6.684)"/></g></svg>
