<svg version="1.1" id="Layer_1" xmlns="http://www.w3.org/2000/svg" x="0" y="0" viewBox="-296 387 19 19" xml:space="preserve"><style>.st2{fill:none;stroke:#333;stroke-width:1.5;stroke-linecap:round;stroke-linejoin:round}</style><g transform="matrix(.33131 0 0 .33131 10 12.25)"><g id="col0"><path d="M-895.1 1187.1c1.5-.4 2.9-1 4.2-1.7 5.6-2.7 9.8-7.4 12.7-14.1v-18.6c-10.8-17.8-22.1-17.8-33.9 0v19.5c3.5 6.7 9.2 11.7 17 14.9z" fill="#fc9" id="hd1obj_0_Layer0_0_FILL"/></g><path d="M-895.1 1187.1c1.5-.4 2.9-1 4.2-1.7-9.7-5-16.8-11.7-21.2-20.1v6.9c3.5 6.7 9.2 11.7 17 14.9z" fill="#c9a27b" fill-opacity=".545" id="head_0_Layer1_0_FILL"/><path id="head_0_Layer0_0_1_STROKES" class="st2" d="M-895.1 1187.1c-7.8-3.2-13.5-8.2-17-14.8v-19.5c11.8-17.8 23.1-17.8 33.9 0v18.6c-2.9 6.6-7.2 11.3-12.7 14.1-1.3.7-2.7 1.2-4.2 1.6z"/></g><g transform="matrix(.33131 0 0 .33131 9.9 7.45)"><g transform="translate(-29.85 -22.5)" id="col0_FL"><path d="M-849.2 1180.5l-3.1-7-4.4 2.3-3.7-6.2-4.2 5.1-4.6-5.1-3.6 6.2-4.5-2.3-3.1 7h-4.4v7.4h-4l1.9 7.6h-3.2l3.5 5.7-1.8 5.4 4.8 8 1.6-3.9 2.4-14.2 11-5.3-1.9 4.7 9-4.7-2.5 6.6 10.7-6.6-2.7 6.5 8.3-3.9-.1 16.9 1.6 3.9 4.8-8-1.8-5.4 3.6-5.7h-3.2l1.8-7.6h-4v-7.4h-4.2z" fill="#06f" id="hair1obj_0_Layer0_0_FILL"/></g><g><path d="M-891.2 1168.7l-2.5 6.6 10.7-6.6-2.7 6.5 8.3-3.9-.1 16.9 1.6 3.9 1-1.7-.1-22.7-4.4.2 1-4.2-7.9 3.3 1.4-4.2-10.5 3.9 1.9-4.6-19.9 6.9 1.2 3.9-4.7 13.1 3.6 5.9 1.6-3.9 2.4-14.2 11-5.3-1.9 4.7 9-4.5z" fill="#fff" fill-opacity=".22" id="hair1_0_Layer1_0_FILL"/></g><g><path id="hair1_0_Layer0_0_1_STROKES" class="st2" d="M-886.6 1153.3l-3.7-6.2-4.2 5.1-4.6-5.1-3.6 6.2-4.5-2.3-3.1 7h-4.4v7.4h-4l1.9 7.6h-3.2l3.5 5.7-1.8 5.4 4.8 8 1.6-3.9 2.4-14.2 11-5.3-1.9 4.7 9-4.7-2.5 6.6 10.7-6.6-2.7 6.5 8.3-3.9-.1 16.9 1.6 3.9 4.8-8-1.8-5.4 3.6-5.7h-3.2l1.8-7.6h-4v-7.4h-4.4l-3.1-7-4.2 2.3z"/></g></g></svg>
