<svg xmlns="http://www.w3.org/2000/svg" width="22" height="22"><style></style><linearGradient id="SVGID_1_" gradientUnits="userSpaceOnUse" x1="0" y1="0" x2="0" y2="-1"><stop offset="0" stop-color="#656565"/><stop offset=".618" stop-color="#1b1b1b"/><stop offset=".629" stop-color="#545454"/><stop offset=".983" stop-color="#3e3e3e"/></linearGradient><path fill="#fff" d="M9 15l-.042-6.208 5.417 3.083z" id="Capa_3"/><g id="Capa_2"><path d="M20.732 5.597c-.577-1.026-1.203-1.215-2.478-1.287-1.274-.086-4.477-.122-7.251-.122-2.78 0-5.984.036-7.257.121-1.272.073-1.9.261-2.482 1.288-.594 1.025-.9 2.791-.9 5.899v.011c0 3.095.306 4.874.9 5.889.582 1.026 1.209 1.213 2.481 1.299 1.274.074 4.478.118 7.258.118 2.775 0 5.978-.044 7.253-.117 1.275-.086 1.901-.273 2.478-1.299.6-1.014.903-2.793.903-5.889v-.007-.004c-.001-3.109-.304-4.875-.905-5.9z" fill="red"/><path fill="#fafafa" d="M8.341 15.489V7.511l6.648 3.989z"/></g></svg>
