<svg xmlns="http://www.w3.org/2000/svg" xmlns:xlink="http://www.w3.org/1999/xlink" preserveAspectRatio="none" width="19" height="19"><defs><path fill="#FFF" d="M19 0H0v19h19V0z" id="a"/><path fill="#FFF" d="M8.25 4q.65-.7.7-1.65Q8.9 1.4 8.25.7 7.55 0 6.6 0T4.95.7q-.7.7-.7 1.65T4.95 4q.5.5 1.2.65.15 0 .25.05h.2q.95 0 1.65-.7z" id="b"/><path id="c" stroke="#FB472F" stroke-width="1" stroke-linejoin="round" stroke-linecap="round" fill="none" d="M13.25 5.05l-1.1 1.1 1.1 1.05M6.4 6.15h5.75"/><path id="d" stroke="#000" stroke-width="1" stroke-linejoin="round" stroke-linecap="round" fill="none" d="M6.4 4.7q-.1-.05-.25-.05-.7-.15-1.2-.65-.7-.7-.7-1.65T4.95.7Q5.65 0 6.6 0t1.65.7q.65.7.7 1.65-.05.95-.7 1.65-.7.7-1.65.7h-.2z"/><path id="e" stroke="#6398D1" stroke-width="1" stroke-linejoin="round" stroke-linecap="round" fill="none" d="M6.4 4.7v1.45l.05 5.45"/><path id="f" stroke="#972F97" stroke-width="1" stroke-linejoin="round" stroke-linecap="round" fill="none" d="M.05 5.1L.9 6.15h5.5m-5.5 0L0 7.25"/><path id="g" stroke="#24E53B" stroke-width="1" stroke-linejoin="round" stroke-linecap="round" fill="none" d="M6.45 11.6l-3.9 4-1-1"/><path id="h" stroke="#EB1CD3" stroke-width="1" stroke-linejoin="round" stroke-linecap="round" fill="none" d="M6.45 11.6l4.25 4.05 1.2-1.05"/></defs><use xlink:href="#a"/><g transform="translate(2.95 1.75)"><use xlink:href="#b"/><use xlink:href="#c"/><use xlink:href="#d"/><use xlink:href="#e"/><use xlink:href="#f"/><use xlink:href="#g"/><use xlink:href="#h"/></g></svg>
