<svg xmlns="http://www.w3.org/2000/svg" xmlns:xlink="http://www.w3.org/1999/xlink" preserveAspectRatio="none" width="19" height="19"><defs><path fill="#FFF" d="M-2.5-12v23.5h4.75V-12H-2.5z" id="b"/><path fill="url(#a)" d="M132 71h-4v22h4V71z" id="e"/><path fill="#FFF" d="M2.25 11.5v-.6H-2.5v.6h4.75z" id="f"/><path fill="#FFF" d="M2.25 34.25v-23.5H-2.5v23.5h4.75z" id="h"/><path fill="#FFF" d="M-2.5-12v23.5h4.75V-12H-2.5z" id="k"/><linearGradient id="a" gradientUnits="userSpaceOnUse" x1="130" y1="71.475" x2="130" y2="95.225" spreadMethod="pad"><stop offset="1.176%" stop-color="#F60"/><stop offset="41.176%" stop-color="#FC0"/><stop offset="50.588%" stop-color="#EDED3D"/><stop offset="59.216%" stop-color="#C0E12A"/><stop offset="98.431%" stop-color="#309808"/></linearGradient><filter id="d" x="-20%" y="-20%" width="140%" height="140%" color-interpolation-filters="sRGB"><feColorMatrix in="SourceGraphic" values="1 0 0 0 0 0 1 0 0 0 0 0 1 0 0 0 0 0 0.79 0" result="result1"/></filter></defs><g transform="matrix(.60923 0 0 .39718 2.27 9.479)"><mask id="c"><use xlink:href="#b"/></mask><g mask="url(#c)"><use filter="url(#d)" xlink:href="#e" transform="translate(-130 -82)"/></g></g><g transform="matrix(.60923 0 0 .39718 4.736 9.507)"><mask id="g"><use xlink:href="#f"/></mask><g mask="url(#g)"><use filter="url(#d)" xlink:href="#e" transform="translate(-130 -82)"/></g></g><g transform="matrix(.60923 0 0 .39718 7.258 9.507)"><mask id="i"><use xlink:href="#h" transform="translate(0 -22.75)"/></mask><g mask="url(#i)"><use filter="url(#d)" xlink:href="#e" transform="translate(-130 -82)"/></g></g><g transform="matrix(.60923 0 0 .39718 9.697 9.507)"><mask id="j"><use xlink:href="#h" transform="translate(0 -22.75)"/></mask><g mask="url(#j)"><use filter="url(#d)" xlink:href="#e" transform="translate(-130 -82)"/></g></g><g transform="matrix(.60923 0 0 .39718 9.697 9.507)"><mask id="l"><use xlink:href="#k"/></mask><g mask="url(#l)"><use filter="url(#d)" xlink:href="#e" transform="translate(-130 -82)"/></g></g><g transform="matrix(.60923 0 0 .39718 12.053 9.479)"><mask id="m"><use xlink:href="#b"/></mask><g mask="url(#m)"><use filter="url(#d)" xlink:href="#e" transform="translate(-130 -82)"/></g></g><g transform="matrix(.60923 0 0 .39718 16.709 9.507)"><mask id="n"><use xlink:href="#h" transform="translate(0 -22.75)"/></mask><g mask="url(#n)"><use filter="url(#d)" xlink:href="#e" transform="translate(-130 -82)"/></g></g><g transform="matrix(.60923 0 0 .39718 14.436 9.479)"><mask id="o"><use xlink:href="#k"/></mask><g mask="url(#o)"><use filter="url(#d)" xlink:href="#e" transform="translate(-130 -82)"/></g></g></svg>