<svg xmlns="http://www.w3.org/2000/svg" xmlns:xlink="http://www.w3.org/1999/xlink" preserveAspectRatio="none" width="19" height="19"><defs><radialGradient id="a" gradientUnits="userSpaceOnUse" cx="0" cy="0" r="12.1" fx="0" fy="0" gradientTransform="translate(-1.7 -3.6)" spreadMethod="pad"><stop offset="0%" stop-opacity="0"/><stop offset="70.98%" stop-opacity=".302"/></radialGradient><path fill="red" d="M11-3.65q-1.9-8.8-9.5-2.2-7.5-6.6-9.35 2.2Q-6.8.6-4.2 4.4q2.6 3.85 5.75 7.15 3.2-3.3 5.8-7.15Q9.95.6 11-3.65z" id="b"/><path fill="url(#a)" d="M11-3.65q-1.9-8.8-9.5-2.2-7.5-6.6-9.35 2.2Q-6.8.6-4.2 4.4q2.6 3.85 5.75 7.15 3.2-3.3 5.8-7.15Q9.95.6 11-3.65z" id="c"/></defs><use xlink:href="#b" transform="matrix(.77805 0 0 .77635 8.3 8.4)"/><use xlink:href="#c" transform="matrix(.77805 0 0 .77635 8.3 8.4)"/></svg>
