<svg xmlns="http://www.w3.org/2000/svg" xmlns:xlink="http://www.w3.org/1999/xlink" preserveAspectRatio="none" width="23" height="27"><defs><radialGradient id="a" gradientUnits="userSpaceOnUse" cx="0" cy="0" r="9.8" fx="0" fy="0" gradientTransform="matrix(1 0 0 .52551 16.45 9.15)" spreadMethod="pad"><stop offset="0%" stop-color="#FFEFCC"/><stop offset="100%" stop-color="#E8BD17"/></radialGradient><linearGradient id="b" gradientUnits="userSpaceOnUse" x1="0" y1="13.85" x2="32.6" y2="13.85" spreadMethod="pad"><stop offset="1.569%" stop-color="#E8BD17"/><stop offset="47.059%" stop-color="#FFEFCC"/><stop offset="100%" stop-color="#E8BD17"/></linearGradient><radialGradient id="c" gradientUnits="userSpaceOnUse" cx="0" cy="0" r="16.901" fx="0" fy="0" gradientTransform="matrix(.86605 .49996 -.4112 .71222 0 0)" spreadMethod="pad"><stop offset="0%" stop-color="#FFF"/><stop offset="100%" stop-color="#FFF" stop-opacity="0"/></radialGradient><radialGradient id="d" gradientUnits="userSpaceOnUse" cx="0" cy="0" r="21.825" fx="0" fy="0" spreadMethod="pad"><stop offset="0%" stop-color="#FFF"/><stop offset="100%" stop-color="#FFF" stop-opacity="0"/></radialGradient><g id="e"><path fill="url(#a)" d="M32.6 7.7v-.05q0-3.15-4.75-5.4Q23.1 0 16.35 0T4.85 2.25Q.176 4.464.1 7.55v.1q0 3.15 4.75 5.4 4.75 2.25 11.5 2.25t11.5-2.25q4.692-2.222 4.75-5.35z"/><path fill="url(#b)" d="M27.85 17.8q4.636-2.196 4.75-5.25V7.7q-.058 3.128-4.75 5.35-4.75 2.25-11.5 2.25t-11.5-2.25Q.1 10.8.1 7.65L0 12l.1.55q.114 3.054 4.75 5.25 4.75 2.25 11.5 2.25t11.5-2.25z"/></g><path fill="url(#c)" d="M4.65-1.85L2-4.85v-19.4h-4v19.4l-2.7 3-24.6.05v3.65h24.6l2.7 3V28.9h4V4.85l2.7-3h-.05 24.4v-3.7H4.65z" id="g"/><path fill="url(#d)" d="M1.55-3.65q-.35-.15-.4-.45.025-.011 0-.05v-20.1h-2.4v20.1q0 .2-.3.45L-3.6-1.35q-.2.3-.45.3H-23.7V1.1h19.65q.2 0 .45.3l1.85 2.25q.5.05.5.5v20.1h2.4V4.15q.05-.45.5-.5l1.8-2.1q0-.45.5-.45h20.3v-2.15H3.95q-.4-.2-.45-.25L1.55-3.65z" id="h"/><path id="f" stroke="#000" stroke-width="1" stroke-linejoin="round" stroke-linecap="round" fill="none" d="M.1 12.55q.114 3.054 4.75 5.25 4.75 2.25 11.5 2.25t11.5-2.25q4.636-2.196 4.75-5.25m0-4.825q-.058 3.103-4.75 5.325-4.75 2.25-11.5 2.25t-11.5-2.25Q.1 10.8.1 7.65v-.1q.076-3.086 4.75-5.3Q9.6 0 16.35 0t11.5 2.25q4.75 2.25 4.75 5.4v4.9M.1 7.65L0 12"/></defs><g transform="matrix(.43042 0 0 .42882 2.35 12.8)"><use xlink:href="#e"/><use xlink:href="#f"/></g><use xlink:href="#g" transform="matrix(.2668 0 0 .266 7.73 19.254)"/><use xlink:href="#h" transform="matrix(.2668 0 0 .266 7.73 19.254)"/><g transform="matrix(.43042 0 0 .42882 8.8 10.2)"><use xlink:href="#e"/><use xlink:href="#f"/></g><use xlink:href="#g" transform="matrix(.2668 0 0 .266 14.18 16.654)"/><use xlink:href="#h" transform="matrix(.2668 0 0 .266 14.18 16.654)"/><g><g transform="matrix(.43042 0 0 .42882 3.2 6.9)"><use xlink:href="#e"/><use xlink:href="#f"/></g><use xlink:href="#g" transform="matrix(.2668 0 0 .266 8.58 13.354)"/><use xlink:href="#h" transform="matrix(.2668 0 0 .266 8.58 13.354)"/></g><g><g transform="matrix(.43042 0 0 .42882 8.8 2.1)"><use xlink:href="#e"/><use xlink:href="#f"/></g><use xlink:href="#g" transform="matrix(.2668 0 0 .266 14.18 8.554)"/><use xlink:href="#h" transform="matrix(.2668 0 0 .266 14.18 8.554)"/></g><g><g transform="matrix(.43042 0 0 .42882 6.35 .3)"><use xlink:href="#e"/><use xlink:href="#f"/></g><use xlink:href="#g" transform="matrix(.2668 0 0 .266 11.73 6.754)"/><use xlink:href="#h" transform="matrix(.2668 0 0 .266 11.73 6.754)"/></g></svg>