<svg xmlns="http://www.w3.org/2000/svg" preserveAspectRatio="none" width="25" height="25"><path fill="#0F0F51" fill-opacity=".647" d="M23.85 6.15q0-5-5-5H6.15q-5 0-5 5v12.7q0 5 5 5h12.7q5 0 5-5V6.15M18.3 8.1q0 1.7-.95 3.15-.95 1.35-2.45 2.55-.7.7-.9 1.3-.25.5-.25 1.65H10.6q0-1.85.4-2.65.4-.8 1.85-2 1.05-1.05 1.65-1.95.65-.9.65-2.05 0-1.2-.75-1.9-.65-.7-1.95-.7-1.1 0-1.8.6-.8.6-.8 1.8H6.8l-.05-.15Q6.7 5.4 8.3 4.1q1.6-1.25 4.15-1.25 2.75 0 4.3 1.35 1.55 1.4 1.55 3.9m-7.7 14.1v-3.05h3.2v3.05h-3.2z"/></svg>