<svg xmlns="http://www.w3.org/2000/svg" xmlns:xlink="http://www.w3.org/1999/xlink" preserveAspectRatio="none" width="19" height="19"><defs><g id="a"><path fill-opacity=".996" d="M41.4 24.2q-.25-.65-.55-1.3-.25-.6-.55-1.2-.3-.6-.65-1.15-.3-.6-.65-1.1-.4-.55-.75-1.05l-.8-1q-.45-.5-.85-.95-.4-.45-.85-.9-.5-.45-.95-.8-.55-.4-1.05-.75-.55-.4-1.15-.65-.65-.3-1.3-.5-.7-.25-1.5-.3-.65-.1-1.25 0-.25 0-.45.05-.2-.7-.4-1.35-.25-.65-.55-1.25-.25-.45-.6-.75-.45-.45-.95-.8-.4-.25-.75-.45h-.05q-.15 0-.25.05-.4.2-.7.55-.45.45-.8 1-.35.5-.7 1.05-.15-.05-.25-.1-.55-.4-1.15-.65-.6-.3-1.25-.55-.65-.25-1.35-.4-.75-.2-1.6-.2-.45-.05-.8.05v.35l.05.05v.4h.05v.45h.05v.45h.05v.55h.05v2.1h-.05v.35h-.05v.15h-.05v.15H16v.15h-.05v.15h-.05v.15h-.05v.15h-.05v.15h-.05v.1l-.05.05v.1h-.05v.15h-.05v.1h-.05v.15h-.05v.15h-.05v.1h-.05v.15h-.05v.1h-.05v.15h-.05v.1h-.05v.1h-.05v.15h-.05v.1h-.05v.15H15v.05h-.05v.15h-.05v.1h-.05v.1h-.05v.1l-.05.05v.1h-.05v.1h-.05v.1l-.05.05v.1h-.05v.1h-.05v.1h-.05v.1h-.05v.1l-.05.05v.1h-.05v.1h-.05v.1h-.05v.1h-.05v.1l-.05.05v.1h-.05v.1H14v.1h-.05v.1h-.05v.1h-.05v.1h-.05v.1l-.05.05v.05l-.05.05v.1h-.05v.1h-.05v.1h-.05v.1h-.05v.1h-.05v.1h-.05v.1h-.05v.1h-.05v.1h-.05v.1l-.05.05v.05l-.05.05v.05l-.05.05v.1h-.05v.1H13v.1h-.05v.1h-.05v.1h-.05v.1h-.05v.1h-.05v.1h-.05v.1h-.05v.1h-.05v.1h-.05v.1l-.05.05v.05l-.05.05v.1h-.05v.1h-.05v.1h-.05v.1h-.05v.1h-.05v.1h-.05v.1h-.05v.1l-.05.05v.1H12v.1h-.05v.1h-.05v.1h-.05v.1h-.05v.1h-.05v.1l-.05.05v.1h-.05v.1h-.05v.1h-.05v.1h-.05v.1l-.05.05v.1h-.05v.1h-.05v.1h-.05v.1h-.05v.1h-.05v.15h-.05v.1h-.05v.1h-.05v.1H11v.15h-.05v.1h-.05v.1h-.05v.1l-.05.05v.1h-.05v.1h-.05v.1l-.05.05v.1h-.05v.1h-.05v.1l-.05.05v.1h-.05v.1h-.05v.15h-.05v.1h-.05v.1l-.05.05v.1h-.05v.1l-.05.05v.1h-.05v.1l-.05.05v.1H10v.15h-.05v.1H9.9v.15h-.05v.1l-.05.05v.1h-.05v.15H9.7v.15h-.05v.1l-.05.05v.1h-.05v.15H9.5v.15h-.05v.15H9.4v.15h-.05v.15l-.05.05v.15h-.05v.15H9.2v.2h-.05v.2H9.1v.2h-.05v.25H9v.1q.3.6.65 1.2.3.55.8.95.45.4 1.05.7.55.3 1.25.55.7.15 1.45.35.1.05.3.05.4-.05.65-.2.3-.25.55-.55v.45h.05v.3h.05v.15h.05v.15h.05v.1h.05v.1H16V35h.05v.05h.05v.05h.05v.05h.05v.05h.05v.05h.05v.05h.1v.05h.1v.05h.15v.05h.25v.05h.4v-.05h.2v-.05h.15v-.05h.05v-.05h.1v-.05h.05v-.05h.05v-.05l.05-.05v-.05H18V35h.05v-.1h.05v-.05h.05v-.1h.05v-.05h.05v-.1h.05v-.05l.05-.05v-.05h.05v-.05l.05-.05v-.05h.05v-.05l.05-.05v-.05h.05v-.1h.05V34h.05v-.1h.05v-.05h.05v-.1h.05v-.05h.05v-.1h.05v-.05l.05-.05v-.05h.05v-.1h.05v-.05h.05v-.05h.05v-.1h.05v-.05l.05-.05V33h.05v-.1h.05v-.05h.05v-.1h.05v-.05l.05-.05v-.05h.05v-.1h.05v-.05h.05v-.1h.05v-.1h.05v-.05h.05v-.1h.05v-.05l.05-.05v-.05H20v-.05l.05-.05v-.05h.05v-.05l.05-.05v-.05h.05v-.05h.05v-.05l.05-.05v-.05h.05v-.05h.05v-.05l.05-.05v-.05h.05v-.05h.05v-.05h.05v-.05h.05v-.05l.05-.05v-.05h.05v-.05h.05v-.05h.05v-.05h.05v-.05h.05v-.05H21v-.05h.05v-.05l.2-.2h.05v-.05h.05v-.05h.05v-.05h.05v-.05h.05v-.05h.05v-.05h.05v-.05l.1-.05v-.05h.05v-.05h.05v-.05h.1v-.05h.05v-.05H22l.05-.05v-.05h.05v-.05h.1v-.05h.05l.05-.05v-.05h.1v-.05h.05l.05-.05v-.05h.1v-.05h.05v-.05h.05v-.05h.1v-.05h.05v-.05h.1V29H23v-.05h.1v-.05h.1v-.05h.05v-.05h.1v-.05h.05v-.05h.1v-.05h.1v-.05h.05v-.05h.1v-.05h.1v-.05h.1v-.05h.1v-.05h.1v-.05h.1v-.05h.1v-.05h.1v-.05h.1v-.05h.1v-.05h.1V28h.1v-.05h.1v-.05h.15v-.05h.1v-.05h.1v-.05h.15v-.05h.1v.15h-.05v.3h-.05v.25h-.05v.2h-.05v.2h-.05v.2h-.05v.15h-.05v.15h-.05v.15h-.05v.15h-.05v.1H25v.1h-.05v.1h-.05v.1h-.05v.1h-.05v.1h-.05v.1h-.05v.1h-.05v.1h-.05v.05h-.05v.1h-.05v.1h-.05v.05h-.05v.1h-.05v.1h-.05v.05h-.05v.1h-.05v.05h-.05v.1h-.05v.05h-.05v.1H24v.05h-.05v.1h-.05v.05h-.05v.1h-.05v.05h-.05v.1h-.05v.05h-.05V32h-.05v.1h-.05v.05h-.05v.1h-.05v.05h-.05v.05h-.05v.1h-.05v.05h-.05v.05h-.05v.1h-.05v.05h-.05v.05h-.05v.1H23v.05h-.05v.05h-.05v.1h-.05v.05l-.05.05h-.05v.05h-.05v.1h-.05v.05h-.05v.05h-.05v.05h-.05v.05h-.05l-.05.1h-.05v.05h-.05v.1h-.05v.05h-.05v.05h-.05v.05h-.05v.1h-.05v.05H22v.1h-.05v.05h-.05v.05h-.05v.1h-.05v.05h-.05v.1h-.05v.05h-.05v.05h-.05v.1h-.05v.05l-.05.05h-.05v.1h-.05v.05h-.05V35h-.05v.1h-.05v.05h-.05v.1h-.05v.05h-.05v.1h-.05v.05H21v.1h-.05v.05l-.05.05v.05h-.05v.1h-.05v.05h-.05v.1h-.05v.1h-.05v.05h-.05v.1h-.05v.1h-.05v.1h-.05v.05l-.05.05v.05l-.05.05v.05l-.05.05v.05h-.05v.1l-.05.05v.05l-.05.05v.05l-.05.05v.1h-.05v.1H20v.1h-.05v.1l-.05.05v.1h-.05v.1l-.05.05v.1h-.05v.15h-.05v.1l-.05.05v.1h-.05v.15h-.05v.15l-.05.05v.15h-.05v.15h-.05v.2h-.05v.2h-.05v.2l-.05.05v.2l-.05.05v.25h-.05v.3l-.05.05v.4h-.05v.75H43.2q.05-.8.1-1.65l.1-1.7v-1.8q0-.9-.05-1.75t-.1-1.65q-.05-.85-.15-1.6-.1-.8-.25-1.6-.1-.75-.25-1.5t-.35-1.45q-.2-.7-.4-1.35-.2-.7-.45-1.35m-.85 9.65q.05.85.05 1.75v1.8q0 .85-.35 1.4-.3.3-.85.25-.2-.05-.3-.15-.35-.3-.45-.85-.2-.75-.15-1.65 0-.9-.05-1.75t-.1-1.65q-.05-.85-.15-1.65-.15-.8-.25-1.55-.15-.75-.35-1.45l-.4-1.4q-.2-.7-.45-1.3-.25-.65-.5-1.25-.3-.65-.65-1.2l-.7-1.1q-.35-.55-.75-1-.4-.5-.85-.95-.45-.5-.9-.9-.45-.45-.95-.85-.5-.4-1-.75-.55-.4-1.15-.7-.6-.3-1.3-.5-.4-.1-.9-.1-.25-.25-.35-.6v-.1q.1-.55.75-.5.05-.1.15-.1V15q.4.05.8.15h.4q.8.1 1.45.4.6.25 1.2.6.5.3 1.05.7.45.35.95.8l.9.9q.4.45.85.95l.8 1q.35.5.75 1.05.35.5.7 1.1.3.55.6 1.15.3.55.6 1.2l.5 1.3q.2.65.4 1.35.2.7.35 1.45.15.7.3 1.5.1.75.2 1.6.05.8.1 1.65M20.5 17.6l.05.05h.05v.05h.05v.05h.05v.1h.05v.1h.05v.4h-.05v.15h-.05v.15h-.05v.1h-.05v.1h-.05v.05h-.05v.1h-.05v.05h-.05v.1h-.05v.05h-.05l-.05.05v.05h-.05v.05h-.05v.1h-.05v.05h-.05v.05H20v.05h-.05v.05h-.05v.05h-.05v.05h-.05v.05h-.05v.05h-.05v.05h-.05v.05h-.05V20h-.1v.05h-.05v.05h-.05v.05h-.05l-.05.05v.05h-.05v.05h-.05l-.05.05h-.05v.05h-.05v.05H19v.05h-.1v.05h-.05v.05h-.1v.05h-.05v.05h-.1v.05h-.05v.05h-.1v.05h-.1v.05h-.1v.05h-.1V21h-.1v.05h-.15v.05h-.1v.05h-.2v.05h-.2v.05h-.8v-.05h-.1v-.05h-.05v-.05h-.05v-.05l-.05-.05h-.05v-.1h-.05v-.15h-.05v-.25h-.05v-.45h.05v-.25h.05v-.2h.05v-.1h.05v-.1l.05-.05v-.05h.05v-.1h.05v-.1h.05v-.05h.05v-.1h.05v-.05l.05-.05h.05v-.05h.05v-.1h.05v-.05l.05-.05h.05v-.05H17v-.05h.05v-.05h.05v-.05h.05v-.05h.05v-.05h.05v-.05h.05v-.05h.05v-.05l.05-.05h.05v-.05h.1V18h.05l.05-.05v-.05h.1v-.05h.05l.05-.05h.05v-.05h.1v-.05h.1v-.05h.1l.05-.05h.1v-.05h.15v-.05h.2v-.05h.3v-.05h.9v.05h.25v.05h.15l.05.05h.1v.05h.05m-7.9 12q0 .2-.05.4-.25.65-.8.95-.45.2-1 .2-.2-.25-.2-.7.15-.75.65-1.2.45-.4 1.3-.4.1.3.1.75z"/><path fill="#FFF" d="M12.55 30q.05-.2.05-.4 0-.45-.1-.75-.85 0-1.3.4-.5.45-.65 1.2 0 .45.2.7.55 0 1-.2.55-.3.8-.95m8-12.35l-.05-.05h-.05v-.05h-.1l-.05-.05h-.15v-.05h-.25v-.05H19v.05h-.3v.05h-.2v.05h-.15v.05h-.1l-.05.05h-.1v.05H18v.05h-.1v.05h-.05l-.05.05h-.05v.05h-.1v.05l-.05.05h-.05v.05h-.1v.05h-.05l-.05.05v.05h-.05v.05h-.05v.05h-.05v.05h-.05v.05h-.05v.05h-.05v.05H17v.05h-.05v.05h-.05l-.05.05v.05h-.05v.1h-.05v.05h-.05l-.05.05v.05h-.05v.1h-.05v.05h-.05v.1h-.05v.1h-.05v.05l-.05.05v.1h-.05v.1h-.05v.2h-.05v.25h-.05v.45h.05v.25h.05v.15h.05v.1h.05l.05.05v.05h.05v.05h.05v.05h.1v.05h.8v-.05h.2v-.05h.2v-.05h.1v-.05h.15V21h.1v-.05h.1v-.05h.1v-.05h.1v-.05h.1v-.05h.05v-.05h.1v-.05h.05v-.05h.1v-.05h.05v-.05h.1v-.05h.05v-.05h.05v-.05h.05l.05-.05h.05v-.05h.05v-.05l.05-.05h.05v-.05h.05v-.05h.05V20h.1v-.05h.05v-.05h.05v-.05h.05v-.05h.05v-.05h.05v-.05h.05v-.05h.05v-.05H20v-.05h.05v-.05h.05v-.05h.05v-.1h.05v-.05h.05v-.05l.05-.05h.05v-.05h.05v-.1h.05V19h.05v-.1h.05v-.05h.05v-.1h.05v-.1h.05v-.15h.05v-.15h.05v-.4h-.05v-.1h-.05v-.1h-.05v-.05h-.05v-.05h-.05M40.6 35.6q0-.9-.05-1.75t-.1-1.65q-.1-.85-.2-1.6-.15-.8-.3-1.5-.15-.75-.35-1.45-.2-.7-.4-1.35l-.5-1.3q-.3-.65-.6-1.2-.3-.6-.6-1.15-.35-.6-.7-1.1-.4-.55-.75-1.05l-.8-1q-.45-.5-.85-.95l-.9-.9q-.5-.45-.95-.8-.55-.4-1.05-.7-.6-.35-1.2-.6-.65-.3-1.45-.4h-.4q-.4-.1-.8-.15v.05q-.1 0-.15.1-.65-.05-.75.5v.1q.1.35.35.6.5 0 .9.1.7.2 1.3.5.6.3 1.15.7.5.35 1 .75t.95.85q.45.4.9.9.45.45.85.95.4.45.75 1l.7 1.1q.35.55.65 1.2.25.6.5 1.25.25.6.45 1.3l.4 1.4q.2.7.35 1.45.1.75.25 1.55.1.8.15 1.65.05.8.1 1.65.05.85.05 1.75-.05.9.15 1.65.1.55.45.85.1.1.3.15.55.05.85-.25.35-.55.35-1.4v-1.8z"/></g></defs><use xlink:href="#a" transform="matrix(.46428 0 0 .46428 -2.65 -2)"/></svg>
