<svg xmlns="http://www.w3.org/2000/svg" xmlns:xlink="http://www.w3.org/1999/xlink" preserveAspectRatio="none" width="19" height="19"><defs><path fill="#F90" d="M8.3 3.4q-.003-1.407-1-2.4-.993-.996-2.4-1-1.407.004-2.4 1-.998.993-1 2.4.002 1.407 1 2.4.993.984 2.4.95-1.661.183-3.2 2.35-1.762 2.507-1.7 5.75.025 1.063 5.15 1.15 5.116.083 5.05-.95-.189-3.326-1.75-5.85-1.453-2.424-3.3-2.45 1.254-.06 2.15-.95.997-.993 1-2.4z" id="c"/><path fill="#090" d="M8.3 3.4q-.003-1.407-1-2.4-.993-.996-2.4-1-1.407.004-2.4 1-.998.993-1 2.4.002 1.407 1 2.4.993.984 2.4.95-1.661.183-3.2 2.35-1.762 2.507-1.7 5.75.025 1.063 5.15 1.15 5.116.083 5.05-.95-.189-3.326-1.75-5.85-1.453-2.424-3.3-2.45 1.254-.06 2.15-.95.997-.993 1-2.4z" id="h"/><path fill="#06F" d="M8.3 3.4q-.003-1.407-1-2.4-.993-.996-2.4-1-1.407.004-2.4 1-.998.993-1 2.4.002 1.407 1 2.4.993.984 2.4.95-1.661.183-3.2 2.35-1.762 2.507-1.7 5.75.025 1.063 5.15 1.15 5.116.083 5.05-.95-.189-3.326-1.75-5.85-1.453-2.424-3.3-2.45 1.254-.06 2.15-.95.997-.993 1-2.4z" id="i"/><path fill="#FFF" d="M8.3 3.4q-.003-1.407-1-2.4-.993-.996-2.4-1-1.407.004-2.4 1-.998.993-1 2.4.002 1.407 1 2.4.993.984 2.4.95-1.661.183-3.2 2.35-1.762 2.507-1.7 5.75.025 1.063 5.15 1.15 5.116.083 5.05-.95-.189-3.326-1.75-5.85-1.453-2.424-3.3-2.45 1.254-.06 2.15-.95.997-.993 1-2.4z" id="j"/><path id="e" stroke="#000" stroke-opacity=".651" stroke-width=".05" stroke-linejoin="round" stroke-linecap="round" fill="none" d="M4.9 6.775q-1.407.009-2.4-.975-.998-.993-1-2.4.002-1.407 1-2.4.993-.996 2.4-1 1.407.004 2.4 1 .997.993 1 2.4-.003 1.407-1 2.4-.896.89-2.125.975 1.822.001 3.3 2.45 1.536 2.499 1.725 5.825.066 1.033-5.05.95Q.025 15.913 0 14.875q-.062-3.268 1.7-5.75 1.539-2.192 3.2-2.35z"/><path id="f" stroke="#FFF" stroke-width="1" stroke-linejoin="round" stroke-linecap="round" fill="none" d="M3.2 3.45q.213-1.275 1.3-1.85M2.2 14.4q.315-4.235 2.7-5.8"/><path id="g" stroke="#000" stroke-width=".05" stroke-linejoin="round" stroke-linecap="round" fill="none" d="M4.925 6.775H4.9"/><radialGradient id="a" gradientUnits="userSpaceOnUse" cx="0" cy="0" r="9.668" fx="0" fy="0" gradientTransform="matrix(.48356 -.87531 .51459 .28186 7.65 13.3)" spreadMethod="pad"><stop offset="0%" stop-opacity=".412"/><stop offset="100%" stop-color="#013198" stop-opacity="0"/></radialGradient><radialGradient id="b" gradientUnits="userSpaceOnUse" cx="0" cy="0" r="5.021" fx="0" fy="0" gradientTransform="matrix(.77672 -.62984 .4008 .49292 6.4 4.65)" spreadMethod="pad"><stop offset="0%" stop-opacity=".424"/><stop offset="100%" stop-color="#013198" stop-opacity="0"/></radialGradient><g id="d"><path fill="url(#a)" d="M4.9 6.75q-1.661.183-3.2 2.35-1.762 2.507-1.7 5.75.025 1.063 5.15 1.15 5.116.083 5.05-.95-.189-3.326-1.75-5.85-1.453-2.424-3.3-2.45-.1.029-.25 0M2.2 14.4q.315-4.235 2.7-5.8-2.385 1.565-2.7 5.8z"/><path fill="url(#b)" d="M8.3 3.4q-.003-1.407-1-2.4-.993-.996-2.4-1-1.407.004-2.4 1-.998.993-1 2.4.002 1.407 1 2.4.993.984 2.4.95.15.029.25 0 1.254-.06 2.15-.95.997-.993 1-2.4m-5.1.05q.213-1.275 1.3-1.85-1.087.575-1.3 1.85z"/></g></defs><use xlink:href="#c" transform="matrix(.4671 0 0 .46788 .95 1.05)"/><g transform="matrix(.4671 0 0 .46788 .95 1.05)"><use xlink:href="#d"/><use xlink:href="#e"/><use xlink:href="#f"/><use xlink:href="#g"/></g><use xlink:href="#h" transform="matrix(.4671 0 0 .46788 7.2 1.05)"/><g transform="matrix(.4671 0 0 .46788 7.2 1.05)"><use xlink:href="#d"/><use xlink:href="#e"/><use xlink:href="#f"/><use xlink:href="#g"/></g><use xlink:href="#i" transform="matrix(.4671 0 0 .46788 13.35 1.05)"/><g transform="matrix(.4671 0 0 .46788 13.35 1.05)"><use xlink:href="#d"/><use xlink:href="#e"/><use xlink:href="#f"/><use xlink:href="#g"/></g><g><use xlink:href="#i" transform="matrix(.4671 0 0 .46788 .95 10.5)"/><g transform="matrix(.4671 0 0 .46788 .95 10.5)"><use xlink:href="#d"/><use xlink:href="#e"/><use xlink:href="#f"/><use xlink:href="#g"/></g></g><g><use xlink:href="#j" transform="matrix(.4671 0 0 .46788 7.2 10.5)"/><g transform="matrix(.4671 0 0 .46788 7.2 10.5)"><use xlink:href="#d"/><use xlink:href="#e"/><use xlink:href="#f"/><use xlink:href="#g"/></g></g><g><use xlink:href="#h" transform="matrix(.4671 0 0 .46788 13.35 10.5)"/><g transform="matrix(.4671 0 0 .46788 13.35 10.5)"><use xlink:href="#d"/><use xlink:href="#e"/><use xlink:href="#f"/><use xlink:href="#g"/></g></g></svg>
