<svg xmlns="http://www.w3.org/2000/svg" xmlns:xlink="http://www.w3.org/1999/xlink" preserveAspectRatio="none" width="19" height="19"><defs><linearGradient id="d" gradientUnits="userSpaceOnUse" x1="76.5" y1="-4.05" x2="76.5" y2="4.95" spreadMethod="pad"><stop offset="10.98%" stop-color="#F47B02"/><stop offset="55.686%" stop-color="#FFF"/><stop offset="88.627%" stop-color="#F47B02"/></linearGradient><linearGradient id="e" gradientUnits="userSpaceOnUse" x1="76.5" y1="-4.05" x2="76.5" y2="4.95" spreadMethod="pad"><stop offset="30.196%" stop-color="#804000"/><stop offset="55.686%" stop-color="#542B01"/><stop offset="73.725%" stop-color="#804000"/></linearGradient><linearGradient id="f" gradientUnits="userSpaceOnUse" x1="76.5" y1="-4.05" x2="76.5" y2="4.95" spreadMethod="pad"><stop offset="30.588%" stop-color="#FC3"/><stop offset="55.686%" stop-color="#FFF"/><stop offset="74.118%" stop-color="#FC3"/></linearGradient><linearGradient id="g" gradientUnits="userSpaceOnUse" x1="76.5" y1="-4.05" x2="76.5" y2="4.95" spreadMethod="pad"><stop offset="0%" stop-color="#777"/><stop offset="55.686%" stop-color="#FFF"/><stop offset="100%" stop-color="#777"/></linearGradient><linearGradient id="h" gradientUnits="userSpaceOnUse" x1="76.5" y1="-4.05" x2="76.5" y2="4.95" spreadMethod="pad"><stop offset="37.647%" stop-color="#FF0"/><stop offset="55.686%" stop-color="#FFF"/><stop offset="69.804%" stop-color="#FF0"/></linearGradient><path fill="url(#a)" d="M6.6-5.35q-2.114-1.482-4.85-1.5l-.65.05q-2.187.148-3.95 1.3-.714.517-1.35 1.15-.29.28-.55.55-1.98 2.336-2 5.45.039 3.529 2.55 6 2.483 2.537 5.95 2.55 3.541-.013 6.05-2.55 2.486-2.471 2.45-6 .036-3.48-2.45-6-.573-.558-1.2-1z" id="i"/><path fill="red" d="M7.45-.05q.04-3.07-2.15-5.3-.514-.487-1.1-.9-1.837-1.282-4.25-1.3-.28.027-.6.05-1.9.134-3.45 1.15-.635.451-1.2 1-.25.256-.5.5-1.725 2.058-1.75 4.8.036 3.12 2.25 5.3Q-3.107 7.49-.05 7.5q3.132-.01 5.35-2.25 2.19-2.18 2.15-5.3z" id="j"/><path fill="url(#b)" d="M7.45-.05q.04-3.07-2.15-5.3-.514-.487-1.1-.9-1.837-1.282-4.25-1.3-.28.027-.6.05-1.9.134-3.45 1.15-.635.451-1.2 1-.25.256-.5.5-1.725 2.058-1.75 4.8.036 3.12 2.25 5.3Q-3.107 7.49-.05 7.5q3.132-.01 5.35-2.25 2.19-2.18 2.15-5.3z" id="k"/><path fill="#FFF" d="M-4.75-.55l3-.1.2-2.65-2.85.2-.35 2.55z" id="l"/><path fill="url(#c)" d="M7.5-7.5H-7.65V7.65H7.5V-7.5z" id="m"/><radialGradient id="a" gradientUnits="userSpaceOnUse" cx="0" cy="0" r="8.438" fx="0" fy="0" gradientTransform="matrix(1 0 0 1.00148 1.75 1.65)" spreadMethod="pad"><stop offset="75.686%" stop-opacity=".302"/><stop offset="100%" stop-opacity="0"/></radialGradient><radialGradient id="b" gradientUnits="userSpaceOnUse" cx="0" cy="0" r="9.75" fx="0" fy="0" gradientTransform="matrix(1 0 0 1.00128 -.65 -.85)" spreadMethod="pad"><stop offset="50.196%" stop-opacity="0"/><stop offset="100%" stop-opacity=".412"/></radialGradient><radialGradient id="c" gradientUnits="userSpaceOnUse" cx="0" cy="0" r="2.899" fx="0" fy="0" gradientTransform="matrix(.70278 -.7114 .50876 .49583 1.35 1.85)" spreadMethod="pad"><stop offset="0%" stop-color="#FFF" stop-opacity=".8"/><stop offset="100%" stop-color="#FFF" stop-opacity="0"/></radialGradient><g id="n"><path fill="url(#d)" d="M202.5-2.7l-63 .4v5.5l63 .35V-2.7z"/><path fill="url(#e)" d="M259.1-3l-56.6.3v6.25l56.6.35V-3z"/><path fill="url(#f)" d="M265.5-3.05l-6.4.05v6.9l6.4.05v-7z"/><path fill="url(#g)" d="M139.5-2.3l-123.25.7v4.05l123.25.75v-5.5z"/><path fill="url(#h)" d="M16.25-1.6l-2.75.05v4h2.75V-1.6z"/></g></defs><use xlink:href="#i" transform="matrix(.46402 0 0 .4636 5.372 7.675)"/><use xlink:href="#j" transform="matrix(.46402 0 0 .4636 5.65 8)"/><use xlink:href="#k" transform="matrix(.46402 0 0 .4636 5.65 8)"/><use xlink:href="#l" transform="matrix(.46402 0 0 .4636 5.65 8)"/><use xlink:href="#m" transform="matrix(.46402 0 0 .4636 5.65 8)"/><g><use xlink:href="#i" transform="matrix(.46402 0 0 .4636 8.772 9.775)"/><use xlink:href="#j" transform="matrix(.46402 0 0 .4636 9.05 10.1)"/><use xlink:href="#k" transform="matrix(.46402 0 0 .4636 9.05 10.1)"/><use xlink:href="#l" transform="matrix(.46402 0 0 .4636 9.05 10.1)"/><use xlink:href="#m" transform="matrix(.46402 0 0 .4636 9.05 10.1)"/></g><g><use xlink:href="#i" transform="matrix(.46402 0 0 .4636 13.222 8.075)"/><use xlink:href="#j" transform="matrix(.46402 0 0 .4636 13.5 8.4)"/><use xlink:href="#k" transform="matrix(.46402 0 0 .4636 13.5 8.4)"/><use xlink:href="#l" transform="matrix(.46402 0 0 .4636 13.5 8.4)"/><use xlink:href="#m" transform="matrix(.46402 0 0 .4636 13.5 8.4)"/></g><g><use xlink:href="#n" transform="matrix(.06725 0 0 .06657 .1 10.55)"/></g></svg>
