<svg xmlns="http://www.w3.org/2000/svg" xmlns:xlink="http://www.w3.org/1999/xlink" preserveAspectRatio="none" width="19" height="19"><defs><path fill="url(#a)" d="M9.45 18.95q3.95.02 6.75-2.8 2.783-2.762 2.75-6.7.033-3.9-2.75-6.7-.645-.641-1.35-1.15-2.354-1.631-5.4-1.65L8.7 0Q6.263.176 4.3 1.5q-.806.532-1.55 1.25l-.55.6Q-.021 5.976-.05 9.45q.03 3.938 2.8 6.7 2.812 2.82 6.7 2.8z" id="b"/><path id="d" stroke="#000" stroke-width="1" stroke-linejoin="round" stroke-linecap="round" fill="none" d="M10.6 9.175q.053.096.1.175.5.75 1.15.75.65 0 1.1-.75.5-.75.5-1.8v-.1q-.024-.986-.5-1.7Q12.5 5 11.85 5q-.65 0-1.15.75-.429.714-.45 1.7v.1q0 .848.3 1.5m.05.125l-.025-.05-.025-.075m-5.6.1q-.3-.652-.3-1.5 0-1.05.45-1.8.5-.75 1.15-.75.65 0 1.1.75.5.75.5 1.8t-.5 1.8q-.45.75-1.1.75-.65 0-1.15-.75-.047-.08-.1-.175l-.025-.05-.025-.075zm-.9 3.1q4.958 5.954 10.85-.1"/><path id="e" stroke="#3F0" stroke-width="1" stroke-linejoin="round" stroke-linecap="round" fill="none" d="M0-4.025V-8h-.5q-3.014.163-5.175 2.325Q-7.621-3.73-7.95-1.1q-.044.32-.05.65-.024.223-.025.45h4M0-14.025V-8q.981-.004 1.875.2 2.117.49 3.75 2.125Q7.558-3.73 7.875-1.1q.051.32.075.65.02.223.025.45h6m-10 0h4q-.005 2.413-1.25 4.3-.463.724-1.1 1.375-1.633 1.622-3.75 2.1Q.981 7.991 0 8v5.975M-8.025 0q.005 2.413 1.25 4.3.463.724 1.1 1.375Q-3.514 7.837-.5 8H0V3.975M-14.025 0h6"/><radialGradient id="a" gradientUnits="userSpaceOnUse" cx="0" cy="0" r="10.6" fx="0" fy="0" gradientTransform="translate(8.5 8.2)" spreadMethod="pad"><stop offset="0%" stop-color="#FEDA18"/><stop offset="69.804%" stop-color="#FEDA18"/><stop offset="100%" stop-color="#BA9501"/></radialGradient><g id="c"><path d="M4.85 8.65q0 .267.1.5v.05l.05.05q.105.205.25.35.4.4.95.4.55 0 .95-.4.4-.4.4-.95 0-.55-.4-.95-.4-.4-.95-.4-.55 0-.95.4-.4.4-.4.95m8.3-.1q0-.55-.4-.95-.4-.4-.95-.4-.55 0-.95.4-.4.4-.4.95 0 .267.1.5v.05l.05.05q.105.205.25.35.4.4.95.4.55 0 .95-.4.4-.4.4-.95z"/><path fill="#FFF" d="M6.25 5.1q-.65 0-1.15.75-.45.75-.45 1.8 0 .848.3 1.5-.1-.233-.1-.5 0-.55.4-.95.4-.4.95-.4.55 0 .95.4.4.4.4.95 0 .55-.4.95-.4.4-.95.4-.55 0-.95-.4-.145-.145-.25-.35.053.12.1.2.5.75 1.15.75.65 0 1.1-.75.5-.75.5-1.8t-.5-1.8q-.45-.75-1.1-.75m6.7.65Q12.5 5 11.85 5q-.65 0-1.15.75-.429.714-.45 1.7v.1q0 .848.3 1.5-.1-.233-.1-.5 0-.55.4-.95.4-.4.95-.4.55 0 .95.4.4.4.4.95 0 .55-.4.95-.4.4-.95.4-.55 0-.95-.4-.145-.145-.25-.35.053.12.1.2.5.75 1.15.75.65 0 1.1-.75.5-.75.5-1.8v-.1q-.024-.986-.5-1.7z"/></g></defs><use xlink:href="#b" transform="matrix(.72921 0 0 .7273 .65 3.82)"/><g transform="matrix(.72921 0 0 .7273 .65 3.785)"><use xlink:href="#c"/><use xlink:href="#d"/></g><g transform="matrix(.39586 0 0 .39586 12.783 6.892)"><use xlink:href="#e"/></g></svg>
