<svg xmlns="http://www.w3.org/2000/svg" xmlns:xlink="http://www.w3.org/1999/xlink" preserveAspectRatio="none" width="19" height="19"><defs><path fill="red" d="M15.1 10.05h-2.8v2.65H8.25v-.25H3.4v3.05h11.7v-5.45M12 8.5V6.1H2.9v6.35h5.35V8.5H12m.3 1.55V8.5H8.25v4.2h4.05v-2.65z" id="b"/><path fill="url(#a)" d="M9.45 18.95q3.95.02 6.75-2.8 2.783-2.762 2.75-6.7.033-3.9-2.75-6.7-.645-.641-1.35-1.15-2.354-1.631-5.4-1.65L8.7 0Q6.263.176 4.3 1.5q-.806.532-1.55 1.25l-.55.6Q-.021 5.976-.05 9.45q.03 3.938 2.8 6.7 2.812 2.82 6.7 2.8z" id="d"/><path fill="red" d="M15.25 9.8q-6.075 1.205-12 .15 1.228 5.387 6.15 5.65 5.311-.544 5.85-5.8z" id="g"/><path fill="#FFF" d="M12.5 13.9l.9-3.75-3.1.3 2.2 3.45m-6.75-.15l2.3-3.3-3.1-.2.8 3.5z" id="h"/><path fill="#FC0" d="M6.35 11.8l-.95 7.15L10.65 14l6.5 3.1-3.1-6.5L19 5.35l-7.15.95L8.4-.05l-1.3 7.1L0 8.35l6.35 3.45z" id="i"/><path fill="red" d="M19 7.1q-2.806-.597-4.65-4.6-1.804-3.983-4.95 2.95-2.76-6.72-5.35-2.8Q1.516 6.627 0 7.2q6.14 8.099 9.2 8 3.195-.036 9.8-8.1m-6.25-4.9l-1.4 1.6 1.4-1.6m-6.95.1L4.5 4.2l1.3-1.9M4.35 8.95q4.883 6.303 10.05-.3-5.167 6.603-10.05.3m2.65-1q2.433.47 4.3 0-1.867.47-4.3 0z" id="j"/><path id="c" stroke="#000" stroke-width="1" stroke-linejoin="round" stroke-linecap="round" fill="none" d="M12.3 10.05h2.8v5.45H3.4v-3.05h-.5V6.1H12v2.4h.3v1.55zm-8.9 2.4h4.85V8.5H12m.3 1.55v2.65H8.25v-.25"/><path id="f" stroke="#000" stroke-width="1" stroke-linejoin="round" stroke-linecap="round" fill="none" d="M10.7 6.175q.053.096.1.175.5.75 1.15.75.65 0 1.1-.75.5-.75.5-1.8v-.1q-.024-.986-.5-1.7Q12.6 2 11.95 2q-.65 0-1.15.75-.429.714-.45 1.7v.1q0 .848.3 1.5m.05.125l-.025-.05-.025-.075m-5.55.225q.053.096.1.175.5.75 1.15.75.65 0 1.1-.75.5-.75.5-1.8t-.5-1.8Q7 2.1 6.35 2.1q-.65 0-1.15.75-.45.75-.45 1.8 0 .848.3 1.5l.025.075.025.05zM4.7 13.8q-1.8-2.05-1.8-4.35 6.05 1.15 12.75-.1.2 2.55-1.45 4.5-1.8 2.1-4.8 2.15-2.75.05-4.7-2.2z"/><path id="k" stroke="#FFF" stroke-width="1" stroke-linejoin="round" stroke-linecap="round" fill="none" d="M12.75 2.2l-1.4 1.6M5.8 2.3L4.5 4.2m-.15 4.75q4.883 6.303 10.05-.3"/><path id="l" stroke="#C00" stroke-width="1" stroke-linejoin="round" stroke-linecap="round" fill="none" d="M7 7.95q2.433.47 4.3 0"/><path id="m" stroke="#000" stroke-width="1" stroke-linejoin="round" stroke-linecap="round" fill="none" d="M4.05 12.25q5.651 5.954 10.85-.1m.15-5.7q-2.399 3.2-4.8.05m-2-.05q-2.399 3.2-4.8.05"/><radialGradient id="a" gradientUnits="userSpaceOnUse" cx="0" cy="0" r="10.6" fx="0" fy="0" gradientTransform="translate(8.5 8.2)" spreadMethod="pad"><stop offset="0%" stop-color="#FEDA18"/><stop offset="69.804%" stop-color="#FEDA18"/><stop offset="100%" stop-color="#BA9501"/></radialGradient><g id="e"><path fill="#FFF" d="M4.7 13.8q1.95 2.25 4.7 2.2 3-.05 4.8-2.15 1.65-1.95 1.45-4.5-6.7 1.25-12.75.1 0 2.3 1.8 4.35m2.55-9.1q.4.4.4.95 0 .55-.4.95-.4.4-.95.4-.55 0-.95-.4-.145-.145-.25-.35.053.12.1.2.5.75 1.15.75.65 0 1.1-.75.5-.75.5-1.8t-.5-1.8Q7 2.1 6.35 2.1q-.65 0-1.15.75-.45.75-.45 1.8 0 .848.3 1.5-.1-.233-.1-.5 0-.55.4-.95.4-.4.95-.4.55 0 .95.4m4.7-2.7q-.65 0-1.15.75-.429.714-.45 1.7v.1q0 .848.3 1.5-.1-.233-.1-.5 0-.55.4-.95.4-.4.95-.4.55 0 .95.4.4.4.4.95 0 .55-.4.95-.4.4-.95.4-.55 0-.95-.4-.145-.145-.25-.35.053.12.1.2.5.75 1.15.75.65 0 1.1-.75.5-.75.5-1.8v-.1q-.024-.986-.5-1.7Q12.6 2 11.95 2z"/><path d="M7.65 5.65q0-.55-.4-.95-.4-.4-.95-.4-.55 0-.95.4-.4.4-.4.95 0 .267.1.5v.05l.05.05q.105.205.25.35.4.4.95.4.55 0 .95-.4.4-.4.4-.95M11.9 4.2q-.55 0-.95.4-.4.4-.4.95 0 .267.1.5v.05l.05.05q.105.205.25.35.4.4.95.4.55 0 .95-.4.4-.4.4-.95 0-.55-.4-.95-.4-.4-.95-.4z"/></g></defs><g transform="matrix(.4693 0 0 .4715 8.312 1.542)"><use xlink:href="#b"/><use xlink:href="#c"/></g><use xlink:href="#d" transform="matrix(.4693 0 0 .47274 8.312 1.565)"/><g transform="matrix(.4693 0 0 .47274 8.312 1.542)"><use xlink:href="#e"/><use xlink:href="#f"/></g><use xlink:href="#g" transform="matrix(.4693 0 0 .4715 8.312 1.542)"/><g transform="matrix(.4693 0 0 .4715 8.312 1.542)"><use xlink:href="#h"/></g><g><use xlink:href="#i" transform="matrix(.50893 0 0 .50821 8.312 8.285)"/></g><g><g transform="matrix(.50893 0 0 .50997 .973 .458)"><use xlink:href="#j"/><use xlink:href="#k"/><use xlink:href="#l"/></g></g><g><use xlink:href="#d" transform="matrix(.4693 0 0 .46805 1.758 7.604)"/><use xlink:href="#m" transform="matrix(.4693 0 0 .46805 1.758 7.58)"/></g></svg>
