<svg xmlns="http://www.w3.org/2000/svg" xmlns:xlink="http://www.w3.org/1999/xlink" preserveAspectRatio="none" width="19" height="19"><defs><path id="b" stroke="#000" stroke-width="1" stroke-linejoin="round" stroke-linecap="round" fill="none" d="M-3.05.2q-.05-.1 0-.15-.05-1.25.85-2.1.85-.9 2.15-.9 1.2 0 2.1.9.85.85.9 2.05M8.5 0q0-3.55-2.5-6.05Q3.5-8.5 0-8.5q-3.55 0-6.05 2.45Q-8.5-3.55-8.5 0v.15l2.8-2.65L-3.05.2M-8.5.15q.05 3.4 2.45 5.85Q-3.55 8.5 0 8.5q3.5 0 6-2.5Q8.344 3.608 8.5.3L5.65 2.85 2.925.3q-.109 1.084-.875 1.85-.9.9-2.1.9-1.3 0-2.15-.9-.85-.8-.85-1.95M8.5.3q-.002-.148 0-.3M2.95.05q-.005.123-.025.25"/><g id="a"><path fill="#FC0" d="M-8.5.15l2.8-2.45L-3.05.2-5.7-2.5-8.5.15m6.3-2.2q.85-.9 2.15-.9 1.2 0 2.1.9.85.85.9 2.05l2.7 2.65L8.5 0q0-3.55-2.5-6.05Q3.5-8.5 0-8.5q-3.55 0-6.05 2.45Q-8.5-3.55-8.5 0v.15l2.8-2.65L-3.05.2q-.05-.1 0-.15-.05-1.25.85-2.1z"/><path fill="#009" d="M6 6Q8.344 3.608 8.5.3L5.65 2.85 2.9.3q-.084 1.084-.85 1.85-.9.9-2.1.9-1.3 0-2.15-.9-.85-.8-.85-1.95L-5.7-2.3-8.5.15q.05 3.4 2.45 5.85Q-3.55 8.5 0 8.5q3.5 0 6-2.5M8.5.3q-.002-.148 0-.3L5.65 2.65 2.95 0v.05Q2.945.173 2.9.3l2.75 2.55L8.5.3z"/></g></defs><g transform="matrix(.93993 0 0 .93993 9.55 9.55)"><use xlink:href="#a"/><use xlink:href="#b"/></g></svg>
