<svg xmlns="http://www.w3.org/2000/svg" xmlns:xlink="http://www.w3.org/1999/xlink" preserveAspectRatio="none" width="19" height="19"><defs><path fill="#979F71" d="M22.8-43.6q-5.637-2.809-8.2-2.8-5.7.55-7.05 1-10.7 4.3-22.2 5.2-3.066.742-6.75.85-.145.004-.3 0-15.416.683-16.8 25.25-7.75 18 4.35 26.05 6.25 5.55 5.05 13.55-.35 2.1-1.2 4.3-4.05 10.9 2.05 14.55 11.1 6.75 18 4.55 6-1.9 8.8-1.7.4 0 .75.05 2.65.55 9.55 2.15 6.85 1.7 18-5.05 6.05-3.65 2-14.55-4.05-10.85 3.85-17.85Q44.8 3.9 37.05-14.1q.1-4.55-.85-8.95-3.422-15.574-13.4-20.55z" id="b"/><path fill-opacity=".302" d="M-30.55 13.9q-1.95-.9-3.6-1.95 6.25 5.55 5.05 13.55 2 .35 1.65 10.55 2.75-4.55 1.6-12.4-1.75-8.4-4.7-9.75m16.65-53.7q-.354-.213-.75-.4-3.066.742-6.75.85-.145.004-.3 0-.85.765-.85 1.75 0 1.3 1.5 2.2 1.5.95 3.6.95 2.05 0 3.55-.95 1.5-.9 1.5-2.2 0-1.3-1.5-2.2M12.95-8.55q-3.3 4.097-3.7 7.35-.35 3.309 2.25 5.85 2.65 2.587 8.4-.35 15.051.411 15.95-4.55.887-4.884.55-6.1 1.244 3.973 0 8.9-.387 1.54-1 2.8 0-.75-.35-1.3-.35-.5-.85-.5-.55 0-.9.5-.35.55-.35 1.3 0 .8.35 1.35.35.5.9.5h.05q-3.816 4.924-12.85 3.4 3.8 3.15 7.7 3.3-2.9 1.35-4.7 9.75-1.95-.65-1-5.7-4.05 10.25.3 17.25-.85-3.7.35-6.5 5.65 5.4-.3 12.75-6 7.3-14 3.55-8-3.85-17.95-2.1 11.05.65 6.75 4.3.4 0 .75.05 2.65.55 9.55 2.15 6.85 1.7 18-5.05 6.05-3.65 2-14.55-4.05-10.85 3.85-17.85Q44.8 3.9 37.05-14.1q.1-4.55-.85-8.95-3.422-15.574-13.4-20.55 8.14 9.854 5.8 25.15-9.7-2.3-19.55 3.2 13.4-4.1 21.45 1.3-.75 1.1-.75 2.6 0 1.7.9 2.85.304.38.6.65-2.67.79-4.3-2.1-2.096-3.8-6.45-3.2-4.3.55-7.55 4.6M3.5 20.85q-12.35 3.65-18.4 2.5 5.45 2.95 18.4-2.5m-32.8-11.3q4.4 9.3 23.7-9.3-17.6 14.05-23.7 9.3M-9 14.6q-4.75-1.5 1.55 1.6 6.25 3.15 4.3-1.8.2 4.1-5.85.2m3.5-28.7Q-29-26.4-32.05-15.4q4.8-6.3 26.55 1.3m-32.55 13q0-.95-.4-1.6-.3-.65-.75-.65t-.85.65q-.35.65-.35 1.6 0 .9.35 1.55.4.65.85.65.45 0 .75-.65.4-.65.4-1.55m3.4-7q0-1.55-.7-2.65-.65-1.1-1.65-1.1-1 0-1.7 1.1-.65 1.1-.65 2.65 0 1.55.65 2.7.7 1.1 1.7 1.1t1.65-1.1q.7-1.15.7-2.7m13.6-5.05q-4.345-.6-7.3-1.55-2.915-.909-4.85 3.85-1.94 4.82.85 9.3Q-29.499 2.922-23 4.3q6.493 1.435 10-.3 3.553-1.744 3.15-5.1-.3-3.35-3.65-7.45-3.25-4.05-7.55-4.6M4.4 16q6.8-2.9 2.55-7.6.45-4.55-1.5-6.2Q6.3-1.2.9-4.65 6.45.55 2.55 3q2.2 0 1.35 1.6Q3.3 5 .85 4q-2.55-.95-1.1 3.3 0-3.1 2.7-1.4 9 6.8 1.95 10.1m-.8-53.55q0-.55-1.15-1-1-.4-2.5-.4t-2.65.4q-1 .45-1 1 0 .6 1 1 1.15.45 2.65.45t2.5-.45q1.15-.4 1.15-1m.5 10.85q0-1.85-2.65-3.15-2.65-1.3-6.35-1.3-3.7 0-6.35 1.3-2.65 1.3-2.65 3.15 0 1.8 2.65 3.1t6.35 1.3q3.7 0 6.35-1.3 2.65-1.3 2.65-3.1M23.65-34q0-1.3-1.7-2.25-1.7-.9-4.05-.9-2.35 0-4.05.9-1.7.95-1.7 2.25t1.7 2.2q1.7.9 4.05.9 2.35 0 4.05-.9 1.7-.9 1.7-2.2z" id="c"/><path fill="#FFF" d="M22.15 5.05Q21.6 4.3 20.9 3.6 17.3 0 12.25 0 7.2 0 3.6 3.6 0 7.2 0 12.25q0 4 3.3 5.95.85.5 1.95.85 5.2 1.7 8.7 3.45 0-.05.05-.05 2.2-.85 3.85-2.3 5.15-4.6 4.3-15.1M11.05 19.5q0-.4.3-.7.3-.3.7-.3.4 0 .7.3.3.3.3.7 0 .4-.3.7-.3.3-.7.3-.4 0-.7-.3-.3-.3-.3-.7M61.9 4.95l-.4-.4Q57.95 1 52.85 1q-5.05 0-8.6 3.55-1.35 1.35-2.2 2.95-.55 1.1-.9 2.25-.45 1.6-.45 3.4 0 5.1 2.8 8.2 2.6 2.85 5.05 1.65.15-.05.35-.15.85-.55 2.15-.85 7.1-2.55 9.7-7.25Q63 10.7 61.9 4.95m-7.4 3.1q-.35 0-.65-.25-.25-.3-.25-.65 0-.4.25-.7.3-.25.65-.25.4 0 .65.25.3.3.3.7 0 .35-.3.65-.25.25-.65.25z" id="h"/><path d="M-21.05-4.65q-1.1 0-2.05.75-.75.95-.75 2.2 0 1.1.75 2 .95.8 2.05.8 1.25 0 2-.8.95-.9.95-2 0-1.25-.95-2.2-.75-.75-2-.75m40.9-7q.95.8 2.05.8 1.25 0 2-.8.95-.9.95-2 0-1.25-.95-2.2-.75-.75-2-.75-1.1 0-2.05.75-.75.95-.75 2.2 0 1.1.75 2z" id="i"/><path id="a" stroke="#FFF" stroke-width="1" stroke-linejoin="round" stroke-linecap="round" fill="none" d="M37.05-14.1q7.75 18-4.35 26.05-7.9 7-3.85 17.85 4.05 10.9-2 14.55-11.15 6.75-18 5.05-6.9-1.6-9.55-2.15-.35-.05-.75-.05-2.8-.2-8.8 1.7-6.9 2.2-18-4.55-6.1-3.65-2.05-14.55.85-2.2 1.2-4.3 1.2-8-5.05-13.55-12.1-8.05-4.35-26.05 1.384-24.567 16.8-25.25.155.004.3 0 3.684-.108 6.75-.825 11.5-.925 22.2-5.225 1.35-.45 7.05-1 2.563-.009 8.2 2.8 9.978 4.976 13.4 20.55.95 4.4.85 8.95z"/><path id="d" stroke="#000" stroke-opacity=".6" stroke-width="1" stroke-linejoin="round" stroke-linecap="round" fill="none" d="M-14.65-40.175q11.5-.925 22.2-5.225 1.35-.45 7.05-1 2.563-.009 8.2 2.8 9.978 4.976 13.4 20.55.95 4.4.85 8.95 7.75 18-4.35 26.05-7.9 7-3.85 17.85 4.05 10.9-2 14.55-11.15 6.75-18 5.05-6.9-1.6-9.55-2.15-.35-.05-.75-.05-2.8-.2-8.8 1.7-6.9 2.2-18-4.55-6.1-3.65-2.05-14.55.85-2.2 1.2-4.3 1.2-8-5.05-13.55-12.1-8.05-4.35-26.05 1.384-24.567 16.8-25.25.155.004.3 0 3.684-.108 6.75-.825z"/><path id="f" stroke="#000" stroke-opacity=".6" stroke-width="1" stroke-linejoin="round" stroke-linecap="round" fill="none" d="M1.45 7.3q8.55 5.3 1 7.55-.85-3.85-1-7.55zm-5.25 0q-8.6 5.3-1.05 7.55Q-4 11-3.8 7.3z"/><path id="g" stroke="#CCC" stroke-width="1" stroke-linejoin="round" stroke-linecap="round" fill="none" d="M18.65 2.4q2.65-.75 7.2-.85 2.3-.1 3.85-.85 2.95-1.5 2.95-5.75 0-6.1-3.15-9.6M18.65 2.4q-1.3.3-2.15.85-.2.1-.35.15-2.45 1.2-5.05-1.65-2.8-3.1-2.8-8.2 0-1.8.45-3.4.35-1.15.9-2.25.85-1.6 2.2-2.95 3.55-3.55 8.6-3.55 5.1 0 8.65 3.55l.4.4m-39.75.1q2.35 3.126 2.35 7.2 0 5.05-3.5 8.55-2.04 2.01-4.075 2.25-.764.084-1.525-.075h-.025q-.692-.133-1.375-.475m-.025-.05q-3.528-1.717-8.725-3.4-1.105-.368-1.975-.875Q-32.4-3.363-32.4-7.35q0-5.05 3.6-8.65 3.6-3.6 8.65-3.6 5.05 0 8.65 3.6.696.696 1.25 1.45"/><g id="e"><path fill="#1A0000" d="M-3.8 7.3q-8.6 5.3-1.05 7.55Q-4 11-3.8 7.3m5.25 0q.15 3.7 1 7.55 7.55-2.25-1-7.55z"/><path fill="#CCC" d="M-7.9-7.35q0-4.074-2.35-7.2.867 10.507-4.35 15.1-1.594 1.442-3.85 2.3l.05.05q.683.342 1.35.45h.05q.76.184 1.5.1 2.06-.24 4.1-2.25 3.5-3.5 3.5-8.55m40.55 2.3q0-6.1-3.15-9.6 1.1 5.75-1.15 9.8-2.6 4.7-9.7 7.25 2.65-.75 7.2-.85 2.3-.1 3.85-.85 2.95-1.5 2.95-5.75z"/><path fill="#EDDB3D" d="M-19 31.95q-.95 1.2-1 3.35 2.1-.85 5.95-.8 0-2.75-2.5-3.95-1.65.25-2.45 1.4m11.7 3.2q1.15-3.2-2.15-5-2.65.7-3 4.4 2.3.15 5.15.6m8.15-4.9q-.15-.05-.2-.05-3.2-1.55-5.4 3.25v2.1q1.15.2 2.45.5.35-.05.6-.05Q.6 34.25.85 30.25m7.7-7.45l-.7 1.55Q7.7 26.7 9.1 27.8q4.2-.7 4.05-4.1-2.4-.8-4.6-.9m-1.7 0q-1.05.05-2.05.25Q2.55 24.15.6 25q.2 1.95 2.2 2.3 3.25-1.9 4.05-4.5z"/><path fill="#EABE15" d="M-15.4 30.45h-.45q-.35 0-.7.1 2.5 1.2 2.5 3.95.75 0 1.6.05-.3-3.7-2.4-4.1h-.55m5.95-.3q3.3 1.8 2.15 5 1.25.15 2.55.4v-2.1q-1-3.95-4.2-3.45-.25.1-.5.15M3.1 33.7q-.05-2.2-2.25-3.45-.25 4-2.55 5.75 3.25-.4 4.7-.9.05-.2.05-.35.05-.55.05-1.05M14.2 24q-.55-.2-1.05-.3.15 3.4-4.05 4.1.65.45 1.75.7 3 .6 4.1-2.55-.3-1.1-.75-1.95m-5.65-1.2q-.85-.1-1.7 0-.8 2.6-4.05 4.5h.95q2.95-.15 4.1-2.95l.7-1.55z"/><path fill="#910000" d="M3.1 33.7q0 .5-.05 1.05 0 .15-.05.35-1.45.5-4.7.9-.25 0-.6.05 1.9.35 4 .85 8.65 2.15 12.6-.25-5.95-3.5-11.2-2.95m1.7-10.65q1-.2 2.05-.25.85-.1 1.7 0 2.2.1 4.6.9.5.1 1.05.3-2.4-4.55-9.25-1-.05 0-.15.05z"/><path fill="#300" d="M15.35 35.85q.55-6.35-.4-9.9-1.1 3.15-4.1 2.55-1.1-.25-1.75-.7-1.4-1.1-1.25-3.45-1.15 2.8-4.1 2.95H2.8Q.8 26.95.6 25q-9 3.7-14.2 1.95-6.45-2.2-5.4 5 .8-1.15 2.45-1.4.35-.1.7-.1h1q2.1.4 2.4 4.1.35-3.7 3-4.4.25-.05.5-.15 3.2-.5 4.2 3.45 2.2-4.8 5.4-3.25.05 0 .2.05 2.2 1.25 2.25 3.45 5.25-.55 11.2 2.95.6-.3 1.05-.8z"/></g></defs><use xlink:href="#a" transform="matrix(.178 0 0 .17842 9.6 9.241)"/><use xlink:href="#b" transform="matrix(.178 0 0 .17842 9.6 9.241)"/><g transform="matrix(.178 0 0 .17828 9.6 9.25)"><use xlink:href="#c"/><use xlink:href="#d"/></g><g transform="matrix(.178 0 0 .17828 9.6 9.25)"><use xlink:href="#e"/><use xlink:href="#f"/><use xlink:href="#g"/></g><use xlink:href="#h" transform="matrix(.178 0 0 .17828 3.833 5.756)"/><g transform="matrix(.178 0 0 .17828 9.6 9.25)"><use xlink:href="#i"/></g></svg>
