<svg xmlns="http://www.w3.org/2000/svg" xmlns:xlink="http://www.w3.org/1999/xlink" preserveAspectRatio="none" width="40" height="40"><defs><path fill="#FFF" d="M20 28q-1.65 0-2.8 1.15Q16 30.35 16 32q0 1.65 1.2 2.8Q18.35 36 20 36t2.85-1.2Q24 33.65 24 32t-1.15-2.85Q21.65 28 20 28m4-8q0-1.65-1.15-2.85Q21.65 16 20 16q-1.65 0-2.8 1.15Q16 18.35 16 20q0 1.65 1.2 2.8Q18.35 24 20 24t2.85-1.2Q24 21.65 24 20m0-12v-.35q-.1-1.45-1.15-2.5Q21.65 4 20 4q-1.65 0-2.8 1.15-1.05 1.05-1.15 2.5Q16 7.8 16 8q0 1.65 1.2 2.8Q18.35 12 20 12t2.85-1.2Q24 9.65 24 8z" id="a"/></defs><use xlink:href="#a"/></svg>
