<svg xmlns="http://www.w3.org/2000/svg" preserveAspectRatio="none" width="28" height="28"><path fill="#FFF" d="M25.75 4.85H21.3l-.8-2.15v-.05Q19.35-.1 17 0h-5.85Q8.8-.1 7.7 2.65v.05l-.8 2.15H2.25q-.45 0-.8.4-.4.35-.4.8 0 .5.4.9.35.35.8.35h1.6v15.45Q3.85 28 9.1 28H19q5.25 0 5.25-5.25V7.3h1.5q.5 0 .9-.35.35-.4.35-.9 0-.45-.35-.8-.4-.4-.9-.4M21.8 7.3v15.45q0 2.8-2.8 2.8H9.1q-2.8 0-2.8-2.8V7.3h15.5m-3.6-3.8l.5 1.35H9.5L10 3.5q.35-.95 1.15-1.05H17q.8.1 1.2 1.05m-1.85 7.2q-.4.35-.4.85v9.8q0 .5.4.85.35.35.85.35t.85-.35q.35-.35.35-.85v-9.8q0-.5-.35-.85t-.85-.35q-.5 0-.85.35m-4.6 0q-.4-.35-.9-.35t-.85.35q-.35.35-.35.85v9.8q0 .5.35.85t.85.35q.5 0 .9-.35.35-.35.35-.85v-9.8q0-.5-.35-.85z"/></svg>