<svg xmlns="http://www.w3.org/2000/svg" xmlns:xlink="http://www.w3.org/1999/xlink" preserveAspectRatio="none" width="37" height="19"><defs><radialGradient id="a" gradientUnits="userSpaceOnUse" cx="0" cy="0" r="5.268" fx="0" fy="0" gradientTransform="matrix(.99898 .04508 -.04271 .97525 20.2 6.65)" spreadMethod="pad"><stop offset="56.471%" stop-color="#02A9D2"/><stop offset="81.569%" stop-color="#FFF"/></radialGradient><radialGradient id="b" gradientUnits="userSpaceOnUse" cx="0" cy="0" r="16.1" fx="0" fy="0" gradientTransform="translate(11.35 11.35)" spreadMethod="pad"><stop offset="39.608%" stop-color="#F9C931" stop-opacity="0"/><stop offset="49.412%" stop-color="#F9C931"/><stop offset="63.529%" stop-color="#F9C931"/><stop offset="72.941%" stop-color="#F9C931" stop-opacity="0"/></radialGradient><path fill="url(#a)" d="M23.6 3.9q-.05-.05-.25-.3-.95-.85-2.2-.9-1.5-.1-2.7.95-1.1 1-1.2 2.55 0 .2-.05.5.3 1.3 1.05 2 1.05 1.15 2.65 1.2 1.45.05 2.5-.9 1.15-1.05 1.3-2.45.1-1.5-1.1-2.65z" id="c"/><path fill="url(#b)" d="M22.75 22.75V0H16l.5 11.85-5.15-1.35-4.95-.2L6.55 0H0v22.75h22.75z" id="d"/></defs><use xlink:href="#c" transform="matrix(2.247 0 0 2.24852 -28.6 -4.85)"/><use xlink:href="#d" transform="matrix(1.54364 -.59884 .09233 .23838 -.176 13.588)"/></svg>