<svg xmlns="http://www.w3.org/2000/svg" xmlns:xlink="http://www.w3.org/1999/xlink" preserveAspectRatio="none" width="20" height="20"><defs><path fill="#A2AAA7" d="M-63.7-79.45v24.2h7.4v-24.2h-7.4m68.45 24.2v-24.2h-7.4v24.2h7.4m53.65-24.2v24.2h7.4v-24.2h-7.4z" id="a"/><path fill="#333F48" d="M-75.25-88.95v9.5h30.5v-9.5h-30.5m91.55 9.5v-9.5h-30.5v9.5h30.5m30-9.5v9.5h31.05v-9.5H46.3z" id="d"/><path id="f" stroke="#000" stroke-opacity=".647" stroke-width="10" stroke-linejoin="round" stroke-linecap="round" fill="none" d="M4.75 34.2H-90v-96.85H91.05V34.2H4.75z"/><g id="b"><path fill="#21282E" d="M8.95 75.25v-32.6h-15.8v32.6h15.8z"/><path fill="#343E47" d="M8.95 95.25v-20h-15.8v20h15.8m0-52.6V34.2h-15.8v8.45h15.8z"/></g><g id="c"><path fill="#999" d="M27.35 67.9v-9.5H-26.3v9.5h53.65z"/><path fill="#CCC" d="M27.35 58.4V50H-26.3v8.4h53.65z"/></g><g id="e"><path fill="#BBB" d="M4.75 34.2h86.3v-88.4q-77.9 15.25-86.3 88.4z"/><path fill="#FFF" d="M91.05-54.2v-8.45H-90V34.2H4.75q8.4-73.15 86.3-88.4z"/></g></defs><use xlink:href="#a" transform="matrix(.1 0 0 .1 9.9 9.65)"/><use xlink:href="#b" transform="matrix(.1 0 0 .1 9.9 9.65)"/><use xlink:href="#c" transform="matrix(.1 0 0 .1 9.9 9.65)"/><use xlink:href="#d" transform="matrix(.1 0 0 .1 9.9 9.65)"/><g transform="matrix(.1 0 0 .1 9.9 9.65)"><use xlink:href="#e"/><use xlink:href="#f"/></g></svg>
