<svg xmlns="http://www.w3.org/2000/svg" xmlns:xlink="http://www.w3.org/1999/xlink" preserveAspectRatio="none" width="20" height="20"><defs><filter id="c" x="-50.038%" y="-49.948%" width="200.076%" height="199.895%" color-interpolation-filters="sRGB"><feGaussianBlur in="SourceGraphic" stdDeviation="2,2" result="result1"/></filter><path fill="#FFF" d="M3.5 16.65q2.75 2.75 6.6 2.75 3.85 0 6.55-2.75 2.75-2.7 2.75-6.55 0-3.85-2.75-6.6Q13.95.8 10.1.8 6.25.8 3.5 3.5.8 6.25.8 10.1q0 3.85 2.7 6.55m10.25-10.2q1.5 1.5 1.5 3.65t-1.5 3.65q-1.5 1.5-3.65 1.5t-3.65-1.5q-1.5-1.5-1.5-3.65t1.5-3.65q1.5-1.5 3.65-1.5t3.65 1.5z" id="a"/><g id="d"><path fill="#1300FF" d="M9.1 12.9h-.3q-1.85 0-3.1-1.2L2 15.75q2.85 2.75 6.85 2.75h.25v-5.6z"/><path fill="#01A2FF" d="M5.7 11.7l-.05-.05q-1.3-1.3-1.3-3.1l-5.5.1q.05 4.05 2.9 6.9.1.1.25.2l3.7-4.05z"/><path fill="#00FFA4" d="M5.65 5.4h.05L1.8 1.35q0 .05-.05.05-2.9 2.95-2.9 7.1v.15l5.5-.1V8.5q0-1.8 1.3-3.1z"/><path fill="#FF0079" d="M13.2 8.75q-.05 1.6-1.1 2.75l3.85 4q2.85-2.85 2.9-6.85l-5.65.1z"/><path fill="#CB00FF" d="M12.1 11.5l-.15.15Q10.7 12.8 9.1 12.9v5.6q3.95-.05 6.8-2.95.05 0 .05-.05l-3.85-4z"/><path fill="#F50" d="M13.2 8.5v.25l5.65-.1V8.5q0-4-2.75-6.85l-4.05 3.9q1.15 1.2 1.15 2.95z"/><path fill="#ECFF01" d="M16.1 1.65q-.1-.15-.2-.25-2.85-2.85-6.8-2.9l-.2 5.6q1.75.05 3.05 1.3.05.1.1.15l4.05-3.9z"/><path fill="#06FF01" d="M9.1-1.5h-.25Q4.8-1.5 1.8 1.35L5.7 5.4q1.25-1.3 3.1-1.3h.1l.2-5.6z"/></g></defs><mask id="b"><use xlink:href="#a"/></mask><g mask="url(#b)"><g filter="url(#c)"><use xlink:href="#d" transform="matrix(1.10464 0 0 1.10464 .55 .55)"/></g></g></svg>
