<svg xmlns="http://www.w3.org/2000/svg" xmlns:xlink="http://www.w3.org/1999/xlink" preserveAspectRatio="none" width="19" height="19"><defs><filter id="c" x="-66.992%" y="-66.992%" width="233.983%" height="233.983%" color-interpolation-filters="sRGB"><feGaussianBlur in="SourceGraphic" stdDeviation="2.6666666666666665,2.6666666666666665" result="result1"/></filter><path fill="#FFF" d="M2.8 16.2q2.733 2.782 6.65 2.8V9.65l-7.15 6q.238.293.5.55M0 9.5h9.4L2.2 3.45Q0 6 0 9.5m9.45.05L9.4 9.5H0q0 3.58 2.3 6.15l7.15-6v-.1m.2-.05l-.15.1 7.2 6.05Q19 13.06 19 9.5H9.65m-.15.1l-.05.05V19h.05q3.95 0 6.7-2.8.276-.27.5-.55L9.5 9.6M2.8 2.8q-.318.313-.6.65L9.4 9.5h.05V0Q5.533.018 2.8 2.8M19 9.5q0-3.481-2.2-6.05L9.65 9.5H19m-2.2-6.05q-.268-.324-.6-.65Q13.45 0 9.5 0h-.05v9.5H9.4l.05.05v.1l.05-.05.15-.1 7.15-6.05z" id="a"/><g id="d"><path fill="#1300FF" d="M2.8 16.2q2.733 2.782 6.65 2.8V9.65l-7.15 6q.238.293.5.55z"/><path fill="#00FFA4" d="M0 9.5h9.4L2.2 3.45Q0 6 0 9.5z"/><path fill="#01A2FF" d="M9.45 9.55L9.4 9.5H0q0 3.58 2.3 6.15l7.15-6v-.1z"/><path fill="#FF0079" d="M9.65 9.5l-.15.1 7.2 6.05Q19 13.06 19 9.5H9.65z"/><path fill="#CB00FF" d="M9.5 9.6l-.05.05V19h.05q3.95 0 6.7-2.8.276-.27.5-.55L9.5 9.6z"/><path fill="#06FF01" d="M2.8 2.8q-.318.313-.6.65L9.4 9.5h.05V0Q5.533.018 2.8 2.8z"/><path fill="#F50" d="M19 9.5q0-3.481-2.2-6.05L9.65 9.5H19z"/><path fill="#ECFF01" d="M16.8 3.45q-.268-.324-.6-.65Q13.45 0 9.5 0h-.05v9.5H9.4l.05.05v.1l.05-.05.15-.1 7.15-6.05z"/></g></defs><mask id="b"><use xlink:href="#a"/></mask><g mask="url(#b)"><g filter="url(#c)"><use xlink:href="#d"/></g></g><g mask="url(#b)"><g filter="url(#c)"><use xlink:href="#d"/></g></g></svg>
