<svg xmlns="http://www.w3.org/2000/svg" xmlns:xlink="http://www.w3.org/1999/xlink" preserveAspectRatio="none" width="19" height="19"><defs><path id="b" stroke="#000" stroke-opacity=".447" stroke-width="1" stroke-linejoin="round" stroke-linecap="round" fill="none" d="M17.35 3.95H1.7q-.85 0-.85.85v9.45q0 .8.85.8h15.65q.85 0 .85-.8V4.8q0-.85-.85-.85z"/><g id="a"><path fill="#CCC" d="M18.2 4.8q0-.85-.85-.85H1.7q-.85 0-.85.85v9.45q0 .8.85.8h15.65q.85 0 .85-.8V4.8m-.1-.1q0 .15-.1.3l-4.7 4.45 4.75 4.45q.1.1.1.35 0 .15-.05.25-.1.2-.35.2-.15 0-.3-.15L12.6 10l-2.1 2q-1.05.95-2.1 0l-1.95-1.85-4.75 4.4q-.15.15-.3.15-.25 0-.3-.2-.1-.1-.1-.25 0-.25.1-.35l4.7-4.4-4.7-4.7Q1 4.7 1 4.5q0-.15.1-.25.1-.2.3-.2.15 0 .3.2L6.65 9.1q.05.1.1.15 0 .05.05.05l2.15 2.05q.5.4 1 0H9.9l7.45-7q.15-.1.35-.1.2 0 .3.1.1.1.1.35z"/><path fill-opacity=".647" d="M18 5q.1-.15.1-.3 0-.25-.1-.35-.1-.1-.3-.1-.2 0-.35.1l-7.45 7h.05q-.5.4-1 0L6.8 9.3q-.05 0-.05-.05-.05-.05-.1-.15L1.7 4.25q-.15-.2-.3-.2-.2 0-.3.2-.1.1-.1.25 0 .2.1.3l4.7 4.7-4.7 4.4q-.1.1-.1.35 0 .15.1.25.05.2.3.2.15 0 .3-.15l4.75-4.4L8.4 12q1.05.95 2.1 0l2.1-2 4.85 4.55q.15.15.3.15.25 0 .35-.2.05-.1.05-.25 0-.25-.1-.35L13.3 9.45 18 5z"/></g></defs><g><use xlink:href="#a"/><use xlink:href="#b"/></g></svg>
