<svg xmlns="http://www.w3.org/2000/svg" xmlns:xlink="http://www.w3.org/1999/xlink" preserveAspectRatio="none" width="120" height="120"><defs><path fill="#009" d="M8.3 3.4q-.003-1.407-1-2.4-.993-.996-2.4-1-1.407.004-2.4 1-.998.993-1 2.4.002 1.407 1 2.4.993.984 2.4.95-1.661.183-3.2 2.35-1.762 2.507-1.7 5.75.025 1.063 5.15 1.15 5.116.083 5.05-.95-.189-3.326-1.75-5.85-1.453-2.424-3.3-2.45 1.254-.06 2.15-.95.997-.993 1-2.4z" id="c"/><path id="e" stroke="#FFF" stroke-width="1" stroke-linejoin="round" stroke-linecap="round" fill="none" d="M3.7 3.95Q3.9 2.65 5 2.1M2.7 14.9q.3-4.25 2.7-5.8"/><path id="f" stroke="#000" stroke-opacity=".42" stroke-width=".05" stroke-linejoin="round" stroke-linecap="round" fill="none" d="M5.4 7.3Q4 7.3 3 6.3T2 3.9q0-1.4 1-2.4t2.4-1q1.4 0 2.4 1t1 2.4q0 1.4-1 2.4-.9.9-2.1 1 1.8 0 3.3 2.45 1.5 2.45 1.7 5.8.05 1.05-5.05.95-5.1-.1-5.15-1.1-.05-3.3 1.7-5.75 1.55-2.2 3.2-2.35h.05"/><path id="g" stroke="#D20000" stroke-opacity=".902" stroke-width="2.5" stroke-linejoin="round" stroke-linecap="round" fill="none" d="M0 .6h5.05M0 0h5.05"/><path id="h" stroke="#FFF" stroke-opacity=".349" stroke-width="1" stroke-linejoin="round" stroke-linecap="round" fill="none" d="M.4.65q.95-1.2 2.9-.9"/><radialGradient id="a" gradientUnits="userSpaceOnUse" cx="0" cy="0" r="9.668" fx="0" fy="0" gradientTransform="matrix(.48356 -.87531 .51459 .28186 8.15 13.8)" spreadMethod="pad"><stop offset="0%" stop-opacity=".412"/><stop offset="100%" stop-color="#013198" stop-opacity="0"/></radialGradient><radialGradient id="b" gradientUnits="userSpaceOnUse" cx="0" cy="0" r="5.021" fx="0" fy="0" gradientTransform="matrix(.77672 -.62984 .4008 .49292 6.9 5.15)" spreadMethod="pad"><stop offset="0%" stop-opacity=".424"/><stop offset="100%" stop-color="#013198" stop-opacity="0"/></radialGradient><g id="d"><path fill="url(#a)" d="M5.45 7.3H5.4q-1.65.15-3.2 2.35Q.45 12.1.5 15.4q.05 1 5.15 1.1 5.1.1 5.05-.95-.2-3.35-1.7-5.8Q7.5 7.3 5.7 7.3h-.25M2.7 14.9q.3-4.25 2.7-5.8-2.4 1.55-2.7 5.8z"/><path fill="url(#b)" d="M7.8 1.5q-1-1-2.4-1T3 1.5q-1 1-1 2.4t1 2.4q1 1 2.4 1h.3q1.2-.1 2.1-1 1-1 1-2.4t-1-2.4M3.7 3.95Q3.9 2.65 5 2.1q-1.1.55-1.3 1.85z"/></g></defs><use xlink:href="#c" transform="translate(22.09 4.94) scale(6.87982)"/><g transform="translate(18.65 1.5) scale(6.87982)"><use xlink:href="#d"/><use xlink:href="#e"/><use xlink:href="#f"/></g><use xlink:href="#g" transform="matrix(6.87982 0 0 10.31973 69.217 69.61)"/><use xlink:href="#h" transform="matrix(6.87982 0 0 10.31973 69.217 69.61)"/></svg>
