<svg xmlns="http://www.w3.org/2000/svg" width="16.97" height="11.5"><style>.st1{fill:#f8b98b;stroke:#010202;stroke-width:.4142;stroke-miterlimit:10}</style><g id="Lines"><linearGradient id="SVGID_1_" gradientUnits="userSpaceOnUse" x1=".51" y1="5.768" x2="16.35" y2="5.768"><stop offset="0" stop-color="#575757"/><stop offset=".159" stop-color="#fff"/><stop offset=".282" stop-color="#8a8989"/><stop offset=".499" stop-color="#fff"/><stop offset=".707" stop-color="#909090"/><stop offset=".841" stop-color="#fff"/><stop offset=".958" stop-color="#909090"/></linearGradient><path fill="url(#SVGID_1_)" stroke="#010202" stroke-width=".414" stroke-miterlimit="10" d="M11.01.57l5.34-.03-1.33 2.12v5.55H11.3V11l-5.92-.05V8.16l-3.23.05V2.84L.51.76 5.88.71 4.34 2.84l-.05 2.64h1.14V4.41l5.92.02v1.05l1.29-.04-.03-2.81z"/><path class="st1" d="M5.43 5.48l-.05 2.68M11.35 5.48l-.05 2.73"/></g><g id="Capa_3"><path class="st1" d="M14.88 5.43l-2.11.01M4.29 5.48H2.15M12.47 2.53l2.59-.03M2.15 2.84h2.19"/></g><path d="M5.55 6.12h1.54V9.2H5.55z" id="Capa_4"/></svg>
