<svg xmlns="http://www.w3.org/2000/svg" xmlns:xlink="http://www.w3.org/1999/xlink" preserveAspectRatio="none" width="19" height="19"><defs><g id="a"><path fill="#478CC9" d="M18.1 7.1Q6.7 7.45.9 16.05v.3h17.2V7.1z"/><path fill="#57ABF5" d="M.9 16.05q5.8-8.6 17.2-8.95V4.9H.9v11.15z"/></g><g id="b"><path fill="#CBCBCB" d="M1.8 13.75v1.8h11.5v-1.8H1.8m0-1v.05h11.5V7.55q-7-.45-11.5 5.2M17.2 5.8h-3.1v7h3.1v-7z"/><path fill="#FFF" d="M13.3 7.55V5.8H1.8v6.95q4.5-5.65 11.5-5.2z"/></g><g id="c"><path fill="#A8A8A8" d="M18.4 14.7l.05-1.3-1.2-.25q0-.4-.3-.75l.35-.5q-1.4.35-2.55 1.05.15.05.25.15.35.35.35.85t-.35.85q-.35.35-.85.35-.45 0-.8-.35-.2-.2-.3-.45-1.05 1.25-1.55 3l.15.15.95-.7q.1.1.2.1.2.15.55.2l.2 1.05h1.25l.2-1.05q.25 0 .45-.15.15-.05.35-.15l.95.7.9-.95-.7-.95q.3-.4.3-.8l1.15-.1z"/><path fill="#E0E0E0" d="M11.65 10.5l-.95.9.7 1q-.3.35-.25.75l-1.2.25v1.3l1.2.1q-.05.4.25.8l-.7.95.8.8q.5-1.75 1.55-3-.1-.15-.1-.4 0-.5.4-.85.35-.35.8-.35.35 0 .6.2 1.15-.7 2.55-1.05l.35-.5-.9-.9-.95.7q-.2-.1-.35-.2-.2-.1-.45-.1l-.2-1.2h-1.25l-.2 1.2q-.35.05-.55.15-.1.05-.2.15l-.95-.7z"/></g></defs><use xlink:href="#a"/><use xlink:href="#b"/><use xlink:href="#c"/></svg>
