<svg xmlns="http://www.w3.org/2000/svg" xmlns:xlink="http://www.w3.org/1999/xlink" preserveAspectRatio="none" width="19" height="19"><defs><path fill="#35333E" d="M18.3-9.25q0-2.05-2.1-2.05h-32.5q-2.05 0-2.05 2.05v19.7q0 2.1 2.05 2.1h32.5q2.1 0 2.1-2.1v-19.7z" id="a"/><path fill="#36343C" d="M8.35 16.45v-.05q0-.6-.45-1.05-.4-.4-1-.4H-6.9q-.6 0-1.05.4-.4.45-.4 1.05v.25h16.7v-.2z" id="b"/><path fill="#656566" d="M3.85 14.95q-.7-1.25-.75-2.4h-6.2q0 1.15-.75 2.4h7.7z" id="c"/><path fill="#FFF" d="M0 4.2v.65L4.85 7v-.95l-3.6-1.5L4.85 3v-.95L0 4.2M9.9 0h-1L6.15 7.1h1L9.9 0m3.8 4.55l-3.55 1.5V7l4.8-2.15V4.2l-4.8-2.15V3l3.55 1.55z" id="e"/><g id="d"><path d="M-16.95 9.35v.35h33.9V-9.7Q1.2 4.2-16.95 9.35z"/><path fill="#2A2A2A" d="M16.95-9.7v-.35h-33.9v19.4Q1.2 4.2 16.95-9.7z"/></g></defs><use xlink:href="#a" transform="translate(9.5 8.2) scale(.48834)"/><use xlink:href="#b" transform="translate(9.5 8.2) scale(.48834)"/><use xlink:href="#c" transform="translate(9.5 8.2) scale(.48834)"/><use xlink:href="#d" transform="translate(9.5 8.2) scale(.48834)"/><use xlink:href="#e" transform="translate(3.445 4.635) scale(.81161)"/></svg>
