<svg xmlns="http://www.w3.org/2000/svg" xmlns:xlink="http://www.w3.org/1999/xlink" preserveAspectRatio="none" width="20" height="20"><defs><path fill="#36C" d="M10.2 8.05v-.1q-.2-3.2-2.9-5.5Q4.35 0 .25 0H0v8l2.75 8.55v1.65q.9-.2 1.7-.45 4.3-1.45 5.55-5.3.45-1.6.2-3.9V8.4v-.35z" id="a"/><path fill="#DC3912" d="M12.6 8.55L9.85 0 .05 2.25q-.15.9.1 2.2Q1.4 8.3 5.7 9.75q3.45 1.15 6.9.45V8.55z" id="c"/><path fill="#909" d="M.2 10.25L9.7 8V0Q5.75.05 2.9 2.45q-.45.35-.8.75Q.15 5.2 0 7.9v.25L.35 6.2q-.5 3.35-.15 4.05z" id="e"/><path id="b" stroke="#333" stroke-width="1" stroke-linejoin="round" stroke-linecap="round" fill="none" d="M10.2 8.05v.5q.25 2.3-.2 3.9-1.25 3.85-5.55 5.3-.8.25-1.7.45v-1.65L0 8V0h.25q4.1 0 7.05 2.45 2.7 2.3 2.9 5.5v.1q-.4 4.2-2.9 6.3-2 1.65-4.55 2.2"/><path id="d" stroke="#333" stroke-width="1" stroke-linejoin="round" stroke-linecap="round" fill="none" d="M.15 4.45q-.25-1.3-.1-2.2L9.85 0l2.75 8.55v1.65q-3.45.7-6.9-.45Q1.4 8.3.15 4.45zm12.45 4.1q-1.35.25-2.5.25-4.15 0-7.05-2.45-2.45-2-3-4.1"/><path id="f" stroke="#333" stroke-width="1" stroke-linejoin="round" stroke-linecap="round" fill="none" d="M.2 8.15V7.9q.15-2.7 2.1-4.7.35-.4.8-.75Q5.95.05 9.9 0v8L.4 10.25l-.4.1q-.05-.65.2-2.2L.55 6.2Q.05 9.55.4 10.25"/></defs><use xlink:href="#a" transform="matrix(.91347 0 0 .91347 9.92 1.642)"/><use xlink:href="#b" transform="matrix(.91347 0 0 .91347 9.92 1.642)"/><use xlink:href="#c" transform="matrix(.91347 0 0 .91347 .922 8.95)"/><use xlink:href="#d" transform="matrix(.91347 0 0 .91347 .922 8.95)"/><g><use xlink:href="#e" transform="matrix(.91347 0 0 .91347 1.06 1.642)"/><use xlink:href="#f" transform="matrix(.91347 0 0 .91347 .876 1.642)"/></g></svg>
