<svg xmlns="http://www.w3.org/2000/svg" width="22" height="22"><style>.st0{fill:#fff}</style><linearGradient id="SVGID_1_" gradientUnits="userSpaceOnUse" x1="0" y1="0" x2="0" y2="-1"><stop offset="0" stop-color="#656565"/><stop offset=".618" stop-color="#1b1b1b"/><stop offset=".629" stop-color="#545454"/><stop offset=".983" stop-color="#3e3e3e"/></linearGradient><path class="st0" d="M11.113.16C5.186.16.38 4.965.38 10.893c0 5.159 3.662 9.399 8.517 10.422a1.685 1.685 0 01-.09-.49l-.002-.028a1.719 1.719 0 01.06-.49l.005-.021c.012-.043.04-.077.056-.118 0-.009.003-.018.003-.028-.004-.047-.014-.092-.012-.14a1.126 1.126 0 01.129-.578c0-.016-.005-.031-.004-.047v-.042c0-.035.011-.066.013-.1-.004-.05-.015-.098-.013-.15v-.046c-.028-.055-.06-.108-.079-.168a1.126 1.126 0 01-.129-.578v-.041c0-.035.011-.066.013-.1-.005-.05-.016-.098-.014-.15v-.042c0-.046.014-.089.018-.134-.009-.066-.02-.131-.018-.2v-.007l.054-.401.003-.01.029-.071c.001-.019 0-.038.003-.057.012-.098.031-.287.058-.426l.007-.031a.448.448 0 01.011-.034l.016-.039c-.005-.056-.016-.113-.014-.173v-.042c0-.063.017-.122.024-.184A1.123 1.123 0 019 15.875v-.208c0-.03.012-.057.014-.087a5.104 5.104 0 01-.011-.123c-.012-.03-.031-.056-.041-.087a1.126 1.126 0 01-.129-.578v-.042c.001-.197.051-.38.126-.556-.056.006-.11.017-.168.015h-.495c-.22.153-.497.25-.837.25-1.033 0-1.508-.856-1.436-1.653a1.829 1.829 0 01.012-.277c-.477-.889-.058-2.279 1.257-2.279.227 0 .425.044.599.117.078-.011.148-.034.234-.034.125 0 .241.013.349.037.061-.044.119-.092.184-.128a1.718 1.718 0 01-.049-.585c-.001-.01.003-.02.002-.031a1.688 1.688 0 01-.122-.83 1.68 1.68 0 01-.017-.325 1.717 1.717 0 01.098-.617c.005-.034.02-.066.029-.099a1.693 1.693 0 01-.079-.46 1.84 1.84 0 01-.004-.21l.003-.04c.037-.529.33-1.019.851-1.241.016-.034.024-.07.043-.103l.052-.067.017-.049.008-.02c.052-.124.103-.25.157-.373l.016-.032c.017-.029.041-.05.059-.076.023-.058.034-.119.066-.174l.234-.304c.04-.04.089-.067.132-.102.047-.067.097-.132.16-.19l.167-.167c.187-.186.408-.314.662-.386l.125-.017c.14-.052.285-.084.44-.078h.125c.023 0 .044.008.067.009.034-.002.065-.01.1-.009h.125c.133 0 .261.018.385.051.117-.034.238-.056.365-.051h.292c.205.001.397.053.581.131.146.004.281.026.405.061.011-.003.021-.011.032-.014l.399-.054c.139 0 .273.02.403.056.12-.032.246-.056.389-.056.885 0 1.359.628 1.434 1.31.844.802.53 2.607-.975 2.607-.021 0-.038-.005-.059-.006-.23.183-.527.299-.901.299-.141 0-.269-.02-.389-.05a1.358 1.358 0 01-.736.216l-.01-.001c-.068.055-.132.115-.216.154.039.124.064.252.059.388.034.287-.021.585-.068.865-.022.129-.058.254-.093.38.007.023.019.042.024.065.036.107.067.216.097.324.027.053.058.105.077.163l.001.002c.029-.001.057-.009.087-.008h.083c.023 0 .044.008.067.009.034-.002.065-.01.1-.009H14.003c.144-.056.294-.09.455-.084h.038c.22-.153.497-.25.837-.25 1.576 0 1.864 1.991.873 2.729.004.199-.037.385-.127.558-.06.186-.164.347-.31.483l-.039.043a1.497 1.497 0 01-.431.4l-.119.05c-.233.195-.54.321-.93.321-.206 0-.384-.04-.546-.1-.104.201-.237.387-.441.515.046.133.076.271.071.419v.042c0 .077-.022.148-.034.222.025.103.038.209.034.32v.104c.02.051.047.099.064.151.003.008.004.017.006.026l.008.05.1.237.008.019a1 1 0 01.046.156l.003.019c.018.125.039.277.054.403l.001.01a.365.365 0 01.002.033c0 .023-.008.044-.009.067.002.034.01.065.009.1v.25a1.49 1.49 0 01-.205.757l-.098.127c.012.069.019.138.028.208.044.13.072.264.067.408v.167a1.489 1.489 0 01-.161.653l-.001.009c-.002.011-.007.021-.009.032l-.001.02-.029.234.01.074c.016.042.042.078.055.122l.054.399c0 .017-.006.033-.007.05.001.025.008.049.007.075v.125c0 .017-.004.034-.007.05 0 .018.005.036.005.054 4.857-1.025 8.515-5.3 8.515-10.462C21.846 4.965 17.041.16 11.113.16z" id="Capa_2"/><path class="st0" d="M20.956 10.499a21.571 21.571 0 00-.593-3.011c-.492-1.801-1.351-3.35-2.883-4.469-1.604-1.172-3.837-1.902-5.809-1.717-1.021.096-2.055.115-2.949.636-.892.521-1.856.883-2.777 1.35-.81.41-1.776.919-2.254 1.729-.485.822-.793 1.771-1.276 2.61-.497.865-.852 1.64-.893 2.651-.045 1.081.313 2.008.556 3.045.445 1.895.678 4.229 2.276 5.563.678.566 1.525.877 2.274 1.33.408.247.842.603 1.302.847.058.013.11.034.163.053.087.017.177.031.253.063.145.019.272.063.394.112.09.011.176.027.257.051.06.008.123.011.179.025l.017.002-.005-7.494H6.625v-3.038h2.563V7.375s.042-2.521 3.219-3.219c0 0 1.236-.374 3.55.193l.07 2.963-2.086.052s-.67.073-.879.969v2.504h2.964l-.589 3.225h-2.313v7.334l.129-.017c.015-.006.028-.015.043-.021.036-.019.075-.027.113-.042.471-.279.999-.487 1.507-.711.505-.223.997-.422 1.406-.8.43-.398.766-.881 1.214-1.263.767-.654 1.536-1.458 2.002-2.383.212-.419.279-.896.495-1.322.219-.432.523-.805.76-1.225.514-.91.288-2.113.163-3.113z" id="Capa_3"/></svg>
