<svg xmlns="http://www.w3.org/2000/svg" width="204" height="196"><style>.st2{fill:#59ef59}.st3{display:inline;fill:#00ff04}</style><switch><g><linearGradient id="SVGID_1_" gradientUnits="userSpaceOnUse" x1="-112" y1="-271" x2="-112" y2="-272"><stop offset="0" stop-color="#656565"/><stop offset=".618" stop-color="#1b1b1b"/><stop offset=".629" stop-color="#545454"/><stop offset=".983" stop-color="#3e3e3e"/></linearGradient><g id="Capa_2"><linearGradient id="SVGID_2_" gradientUnits="userSpaceOnUse" x1="13" y1="98.5" x2="191" y2="98.5"><stop offset=".008" stop-color="#06f"/><stop offset=".494" stop-color="#0095ff"/><stop offset=".992" stop-color="#06f"/></linearGradient><ellipse cx="102" cy="98.5" rx="89" ry="88.5" fill="url(#SVGID_2_)"/><path class="st2" d="M115.485 165.742l20.475 8.242c.026.011.053-.003.076.013 5.964 4.003 13.323-6.659 13.949-6.989.014-.007 1.004 2.003 1.015 1.992l8-7 6.565-10.705a.146.146 0 01.028-.021 2.259 2.259 0 00.685-3.406l-14.223-30.748a.157.157 0 01.057-.194c17.738-11.91-17.989-8.438-18.642-8.462l-24.643-.88a2.413 2.413 0 01-2.327-2.412v-3.257a2.414 2.414 0 00-2.414-2.414h-3.173a2.414 2.414 0 00-2.414 2.414v3.847c0 1.039.665 1.961 1.65 2.29l2.872.957a2.259 2.259 0 011.54 2.005.17.17 0 01-.016.083l-9.518 20.841c-.018.04-.031.091-.005.127.568.804 10.951 1.674 11.667 2.032l4.822 2.411a2.414 2.414 0 011.162 3.055l-3.851 9.628a2.414 2.414 0 002.241 3.31c.287 0 .572-.055.839-.162l2.879-1.151a2.414 2.414 0 012.827.793l.155.207a2.414 2.414 0 01-.851 3.607l-2.079 1.04a2.414 2.414 0 00-1.334 2.159v4.508a2.26 2.26 0 001.986 2.24zM86.206 99.441l-1.267.106a5.424 5.424 0 01-5.858-4.989l-.375-4.87a5.421 5.421 0 00-2.475-4.146L68 94.5c-1.476-.949-11.917-9.248-12-11l7.677-22.788a5.423 5.423 0 00-3.702-4.887l-10.883-3.628C45.324 50.941 35.265 44.879 38 42a17.68 17.68 0 017-7 20.79 20.79 0 015-4 20.36 20.36 0 012-1c1.362-.32 3.205-.751 5.37-.557 2.372.212 4.814.675 5.783.95l21.833 6.179c.99.28 1.879.836 2.565 1.602l12.758 14.259a5.424 5.424 0 007.129.843l6.706-4.642a5.424 5.424 0 015.034-.603l5.486 2.11a5.423 5.423 0 013.198 6.777l-3.651 10.952a5.421 5.421 0 01-2.72 3.136l-4.706 2.353a5.421 5.421 0 00-2.979 5.301l.206 2.467a5.423 5.423 0 01-5.405 5.874h-2.099a5.422 5.422 0 01-3.53-1.306l-3.262-2.796a5.423 5.423 0 00-8.943 4.456l.396 6.343a5.424 5.424 0 01-4.963 5.743z"/><path class="st2" d="M152 60.5L144.765 46c-1.405 0-5.042 9.705-5.765 8.5l-4.335-21.558a4 4 0 00-3.43-1.942H115.5a4 4 0 00-4 4 4 4 0 01-4 4H96.002a4 4 0 01-3.965-3.471l-.933-7C90.784 26.131 106.581 13 109 13l15 3c.352 0 4.855 1.206 7 2 3.622 1.341 5.546 4.116 6 4.5l9.851 10.398L155 41.5c2.845 2.407 4.42 34.5-3 19zM69 140l-7 10-7-1s-13-7-9-6 5-14 5-14l13-1 8 8-3 4z"/></g></g></switch></svg>
