<svg xmlns="http://www.w3.org/2000/svg" xmlns:xlink="http://www.w3.org/1999/xlink" preserveAspectRatio="none" width="20" height="20"><defs><path fill="#007BFF" d="M4.35 10.4q-.66.016-1.15.45-.447.503-.45 1.15.003.686.45 1.15.49.472 1.15.45.66.022 1.1-.45.497-.464.5-1.15-.003-.647-.5-1.15-.44-.434-1.1-.45m4.4-4.9q.382-.743.35-1.55.03-1.937-1.5-3.1Q6.514-.005 4.7 0 2.388-.007 1.25 1.2.145 2.452-.05 4.45l3.25.45q.11-1.08.5-1.55.372-.421.95-.45.55.03.8.3.294.307.3.8-.002.55-.7 1.15-1.238 1.212-1.6 1.65-.366.496-.55 1.05-.179.588-.2 1.5v.35h3.15q.026-.717.25-1.2.213-.443 1.05-1.2 1.207-1.065 1.6-1.8z" id="a"/></defs><use xlink:href="#a" transform="translate(4.35 1.5) scale(1.25183)"/></svg>
