<svg version="1.1" id="Capa_1" xmlns="http://www.w3.org/2000/svg" x="0" y="0" width="294" height="214" xml:space="preserve"><style>.st0{fill:#fff}</style><linearGradient id="SVGID_1_" gradientUnits="userSpaceOnUse" x1="-109" y1="-63" x2="-109" y2="-64"><stop offset="0" stop-color="#656565"/><stop offset=".618" stop-color="#1b1b1b"/><stop offset=".629" stop-color="#545454"/><stop offset=".983" stop-color="#3e3e3e"/></linearGradient><path class="st0" d="M269 29H23c-6.075 0-11-4.925-11-11S16.925 7 23 7h246c6.075 0 11 4.925 11 11s-4.925 11-11 11zM269 112H23c-6.075 0-11-4.925-11-11s4.925-11 11-11h246c6.075 0 11 4.925 11 11s-4.925 11-11 11zM269 195H23c-6.075 0-11-4.925-11-11s4.925-11 11-11h246c6.075 0 11 4.925 11 11s-4.925 11-11 11z"/></svg>
