<svg xmlns="http://www.w3.org/2000/svg" xmlns:xlink="http://www.w3.org/1999/xlink" preserveAspectRatio="none" width="20" height="20"><defs><path fill="#4D4D4D" d="M99.85 62.05q-4.55-4.55-9.75-7.3-13.4-6.1-34.55.8-2.35 1.55-4.45 3.65L8.7 101.6q-9.5 9.5-8.65 23.75.85 14.35 11.5 25T36.5 161.8q14.3.9 23.8-8.6l32.95-32.9q-12.1 1.3-23.25-2.5l-16 16q-6.55 6.55-15 7.4-8.45.95-13.85-4.45-5.35-5.35-4.5-13.9.9-8.4 7.45-14.95l24.05-24.05q9.1-9.6 19.15-12.65.6-.15 1.2-.2 8.5-.8 13.85 4.55 1.55 1.55 2.6 3.35 10-3.7 12.1-15.6-.6-.65-1.2-1.25m50.5-50.5Q139.7.9 125.35.05 111.1-.8 101.6 8.7L68.45 41.9q11.6-.7 22.5 3.15L108 28q6.55-6.55 15-7.5 8.5-.8 13.85 4.55 5.4 5.4 4.5 13.8-.9 8.5-7.45 15.05l-24.15 24.2-15.1 13.75q-1 .9-5.45.95-4.5.05-9.3-3.5-4.8-3.6-5.3-4.2l-14 13.25q.7.75 1.45 1.5 7.2 7.2 16.05 9.9 9.65 3.25 24.6 1.05l8.1-8.1 42.4-42.4q9.5-9.5 8.6-23.8-.8-14.3-11.45-24.95z" id="a"/><path id="b" stroke="#000" stroke-opacity=".647" stroke-width="4" stroke-linejoin="round" stroke-linecap="round" fill="none" d="M150.35 11.55Q161 22.2 161.8 36.5q.9 14.3-8.6 23.8l-42.4 42.4-8.1 8.1q-14.95 2.2-24.6-1.05-8.85-2.7-16.05-9.9-.75-.75-1.45-1.5l14-13.25q.5.6 5.3 4.2 4.8 3.55 9.3 3.5 4.45-.05 5.45-.95l15.1-13.75 24.15-24.2q6.55-6.55 7.45-15.05.9-8.4-4.5-13.8Q131.5 19.7 123 20.5q-8.45.95-15 7.5L90.95 45.05q-10.9-3.85-22.5-3.15L101.6 8.7q9.5-9.5 23.75-8.65 14.35.85 25 11.5zm-64 64q1.55 1.55 2.6 3.35 10-3.7 12.1-15.6-.6-.65-1.2-1.25-4.55-4.55-9.75-7.3-13.4-6.1-34.55.8-2.35 1.55-4.45 3.65L8.7 101.6q-9.5 9.5-8.65 23.75.85 14.35 11.5 25T36.5 161.8q14.3.9 23.8-8.6l32.95-32.9q-12.1 1.3-23.25-2.5l-16 16q-6.55 6.55-15 7.4-8.45.95-13.85-4.45-5.35-5.35-4.5-13.9.9-8.4 7.45-14.95l24.05-24.05q9.1-9.6 19.15-12.65.6-.15 1.2-.2 8.5-.8 13.85 4.55z"/></defs><g transform="matrix(.1149 0 0 .1149 .7 .7)"><use xlink:href="#a"/><use xlink:href="#b"/></g></svg>
