<svg xmlns="http://www.w3.org/2000/svg" xmlns:xlink="http://www.w3.org/1999/xlink" preserveAspectRatio="none" width="19" height="19"><defs><path fill="#565656" d="M17.25 7.8q-.24-3.04-2.45-5.25Q12.25 0 8.65 0q-3.6 0-6.1 2.55Q0 5.05 0 8.65q0 3.6 2.55 6.15.142.142.3.25 2.405 2.25 5.8 2.25 3.6 0 6.15-2.5 2.5-2.55 2.5-6.15 0-.419-.05-.85z" id="a"/><path fill-opacity=".247" d="M17.25 7.8q-11.083.03-14.4 7.25 2.405 2.25 5.8 2.25 3.6 0 6.15-2.5 2.5-2.55 2.5-6.15 0-.419-.05-.85z" id="b"/><path id="c" stroke="#FFF" stroke-width="3.5" stroke-linejoin="round" stroke-linecap="round" fill="none" d="M16.2 3.8q1.35.7 2.55 1.9Q22 8.95 22 13.5t-3.25 7.75Q15.55 24.5 11 24.5t-7.8-3.25Q0 18.05 0 13.5t3.2-7.8q1.1-1.1 2.4-1.8M10.9 0v8.15"/></defs><use xlink:href="#a" transform="matrix(1.04047 0 0 1.04047 .5 .5)"/><use xlink:href="#b" transform="matrix(1.04047 0 0 1.04047 .5 .5)"/><g><use xlink:href="#c" transform="translate(4.65 4.1) scale(.44081)"/></g></svg>
