<svg xmlns="http://www.w3.org/2000/svg" xmlns:xlink="http://www.w3.org/1999/xlink" preserveAspectRatio="none" width="19" height="19"><defs><g id="a"><path fill="#09F" d="M17.25 7.8q-.24-3.04-2.45-5.25Q12.25 0 8.65 0q-3.6 0-6.1 2.55Q0 5.05 0 8.65q0 3.6 2.55 6.15.142.142.3.25 3.317-7.22 14.4-7.25z"/><path fill="#0071BD" d="M17.3 8.65q0-.419-.05-.85-11.083.03-14.4 7.25 2.405 2.25 5.8 2.25 3.6 0 6.15-2.5 2.5-2.55 2.5-6.15z"/></g><g id="b"><path fill="#FFF" d="M3.75 8.15l1.1.55 2.8 1.4L11.6 0 0 5.65 2.1 6.9l.15.35 8.3-6.3-6.8 7.2z"/><path fill="#E2E4E5" d="M3.75 9.9V8.15l6.8-7.2-8.3 6.3 1.5 2.65z"/><path fill="#CFD3D4" d="M3.75 8.15V9.9l1.1-1.2-1.1-.55z"/></g></defs><use xlink:href="#a" transform="translate(.85 .85)"/><use xlink:href="#b" transform="translate(3.7 4.45)"/></svg>
