<svg xmlns="http://www.w3.org/2000/svg" xmlns:xlink="http://www.w3.org/1999/xlink" preserveAspectRatio="none" width="20" height="20"><defs><g id="a"><path fill="#F1CD9C" d="M49.25 64.2q0 10.55 3.55 18.5 3.5 7.85-8.95 15.85-7.15 3.7-24.8 1.75-17.65-2-19 33.7-1.35 35.65 41.75 50.85 76.25 20.25 116.45-28.9 35.1-43.05 18.7-96.7Q159.65 2.85 110.7 0 49.85.1 49.25 64.2m97.6-21.5q6.4 0 10.85 4.45 4.55 4.55 4.55 10.95 0 6.4-4.55 10.85-4.45 4.55-10.85 4.55-6.4 0-10.95-4.55-4.45-4.45-4.45-10.85 0-6.4 4.45-10.95 4.55-4.45 10.95-4.45M123.8 19.45q4.55 4.55 4.55 10.95 0 6.35-4.55 10.85-4.45 4.55-10.85 4.55-6.4 0-10.95-4.55-4.45-4.5-4.45-10.85 0-6.4 4.45-10.95 4.55-4.5 10.95-4.5 6.4 0 10.85 4.5M90.75 53.2q0 6.35-4.55 10.85-4.45 4.55-10.85 4.55-6.4 0-10.95-4.55-4.45-4.5-4.45-10.85 0-6.4 4.45-10.95 4.55-4.5 10.95-4.5 6.4 0 10.85 4.5 4.55 4.55 4.55 10.95m56.1 40.05q6.4 0 10.85 4.45 4.55 4.55 4.55 10.95 0 6.4-4.55 10.85-4.45 4.55-10.85 4.55-6.4 0-10.95-4.55-4.45-4.45-4.45-10.85 0-6.4 4.45-10.95 4.55-4.45 10.95-4.45M60.1 89.3q4.55-4.45 10.95-4.45 6.4 0 10.85 4.45 4.55 4.55 4.55 10.95 0 6.4-4.55 10.85-4.45 4.55-10.85 4.55-6.4 0-10.95-4.55-4.45-4.45-4.45-10.85 0-6.4 4.45-10.95m-14 31.45q4.45 5.15 4.45 12.3 0 7.25-4.45 12.35-4.4 5.05-10.8 5.05-6.3 0-10.8-5.05-4.45-5.1-4.45-12.35 0-7.15 4.45-12.3 4.5-5.1 10.8-5.1 6.4 0 10.8 5.1m11.4 41.5q0-6.4 4.45-10.95 4.55-4.45 10.95-4.45 6.4 0 10.85 4.45 4.55 4.55 4.55 10.95 0 6.4-4.55 10.85-4.45 4.55-10.85 4.55-6.4 0-10.95-4.55-4.45-4.45-4.45-10.85m66.55-27.75q6.4 0 10.85 4.5 4.55 4.55 4.55 10.95 0 6.35-4.55 10.85-4.45 4.55-10.85 4.55-6.4 0-10.95-4.55-4.45-4.5-4.45-10.85 0-6.4 4.45-10.95 4.55-4.5 10.95-4.5z"/><path fill="#FCA400" d="M134.9 139q-4.45-4.5-10.85-4.5-6.4 0-10.95 4.5-4.45 4.55-4.45 10.95 0 6.35 4.45 10.85 4.55 4.55 10.95 4.55 6.4 0 10.85-4.55 4.55-4.5 4.55-10.85 0-6.4-4.55-10.95z"/><path fill="#FE0100" d="M61.95 151.3q-4.45 4.55-4.45 10.95 0 6.4 4.45 10.85 4.55 4.55 10.95 4.55 6.4 0 10.85-4.55 4.55-4.45 4.55-10.85 0-6.4-4.55-10.95-4.45-4.45-10.85-4.45-6.4 0-10.95 4.45z"/><path fill="#EFEFEF" d="M71.05 84.85q-6.4 0-10.95 4.45-4.45 4.55-4.45 10.95 0 6.4 4.45 10.85 4.55 4.55 10.95 4.55 6.4 0 10.85-4.55 4.55-4.45 4.55-10.85 0-6.4-4.55-10.95-4.45-4.45-10.85-4.45z"/><path fill="#8BC702" d="M157.7 97.7q-4.45-4.45-10.85-4.45-6.4 0-10.95 4.45-4.45 4.55-4.45 10.95 0 6.4 4.45 10.85 4.55 4.55 10.95 4.55 6.4 0 10.85-4.55 4.55-4.45 4.55-10.85 0-6.4-4.55-10.95z"/><path fill="#333" d="M86.2 64.05q4.55-4.5 4.55-10.85 0-6.4-4.55-10.95-4.45-4.5-10.85-4.5-6.4 0-10.95 4.5-4.45 4.55-4.45 10.95 0 6.35 4.45 10.85 4.55 4.55 10.95 4.55 6.4 0 10.85-4.55z"/><path fill="#FFDC00" d="M128.35 30.4q0-6.4-4.55-10.95-4.45-4.5-10.85-4.5-6.4 0-10.95 4.5Q97.55 24 97.55 30.4q0 6.35 4.45 10.85 4.55 4.55 10.95 4.55 6.4 0 10.85-4.55 4.55-4.5 4.55-10.85z"/><path fill="#02B7ED" d="M157.7 47.15q-4.45-4.45-10.85-4.45-6.4 0-10.95 4.45-4.45 4.55-4.45 10.95 0 6.4 4.45 10.85 4.55 4.55 10.95 4.55 6.4 0 10.85-4.55 4.55-4.45 4.55-10.85 0-6.4-4.55-10.95z"/></g></defs><use xlink:href="#a" transform="matrix(.09898 0 0 .09898 1 .55)"/></svg>
