<svg xmlns="http://www.w3.org/2000/svg" xmlns:xlink="http://www.w3.org/1999/xlink" preserveAspectRatio="none" width="20" height="20"><defs><path fill="#FFF" d="M16.8-4.85q-1.44-4.481-4.35-7.45-5.15-5-12.4-5-7.3 0-12.35 5-5.15 5.1-5.15 12.3 0 7.15 5.15 12.15.8.9 1.85 1.7.1.15.3.25 1.613 1.117 5.15 2.55l21.8-21.5z" id="d"/><path d="M13.15 6.45q0-3.15-2.2-5.4-2.25-2.2-5.4-2.2-3.2 0-5.4 2.2Q-2.1 3.3-2.1 6.45q0 3.15 2.25 5.35.366.406.75.7.44-1.396 1.3-2.6 1.55-2.2 3.2-2.35-1.4 0-2.4-1t-1-2.4q0-1.4 1-2.4t2.4-1q1.4 0 2.4 1t1 2.4q0 1.4-1 2.4-.9.9-2.1 1Q7.5 7.55 9 10q.711 1.162 1.1 2.5.456-.306.85-.7 2.2-2.2 2.2-5.35z" id="f"/><path fill="url(#a)" d="M3.85-1.55Q2.25-2.9 0-2.9t-3.85 1.35q-1.6 1.35-1.6 3.3 0 .65.15 1.15l10.6-.15q.15-.4.15-1 0-1.95-1.6-3.3z" id="h"/><path fill="#090" d="M7.8 1.75q-1-1-2.4-1t-2.4 1q-1 1-1 2.4t1 2.4q1 1 2.4 1-1.65.15-3.2 2.35-.86 1.204-1.3 2.6.106.085.2.15.9.65 1.95 1 1.15.4 2.5.4 2.45 0 4.35-1.35.116-.085.2-.2Q9.711 11.162 9 10 7.5 7.55 5.7 7.55q1.2-.1 2.1-1 1-1 1-2.4t-1-2.4z" id="i"/><path id="j" stroke="#FFF" stroke-width="1" stroke-linejoin="round" stroke-linecap="round" fill="none" d="M.925 12.525q-.41-.319-.775-.725Q-2.1 9.6-2.1 6.45q0-3.15 2.25-5.4 2.2-2.2 5.4-2.2 3.15 0 5.4 2.2 2.2 2.25 2.2 5.4 0 3.15-2.2 5.35-.394.394-.825.725-.109.09-.225.175-1.9 1.35-4.35 1.35-1.35 0-2.5-.4-1.05-.35-1.95-1-.094-.065-.175-.125z"/><path id="l" stroke="#000" stroke-opacity=".651" stroke-width=".05" stroke-linejoin="round" stroke-linecap="round" fill="none" d="M.925 12.525Q1.34 11.105 2.2 9.9q1.55-2.2 3.2-2.35-1.4 0-2.4-1t-1-2.4q0-1.4 1-2.4t2.4-1q1.4 0 2.4 1t1 2.4q0 1.4-1 2.4-.9.9-2.1 1Q7.5 7.55 9 10q.711 1.162 1.125 2.525"/><path id="m" stroke="#FFF" stroke-width="1" stroke-linejoin="round" stroke-linecap="round" fill="none" d="M3.7 4.2Q3.9 2.9 5 2.35M2.9 13.6q.567-3.002 2.5-4.25"/><path id="n" stroke="#000" stroke-width=".05" stroke-linejoin="round" stroke-linecap="round" fill="none" d="M5.45 7.55H5.4"/><path id="o" stroke="#FC0" stroke-width="1" stroke-linejoin="round" stroke-linecap="round" fill="none" d="M.925 12.525q-.41-.319-.775-.725Q-2.1 9.6-2.1 6.45q0-3.15 2.25-5.4 2.2-2.2 5.4-2.2 3.15 0 5.4 2.2 2.2 2.25 2.2 5.4 0 3.15-2.2 5.35-.394.394-.825.725-.109.09-.225.175-1.9 1.35-4.35 1.35-1.35 0-2.5-.4l-.15-.05q-.966-.348-1.8-.95-.094-.065-.175-.125z"/><path id="q" stroke="#333" stroke-opacity=".647" stroke-width="4" stroke-linejoin="round" stroke-linecap="round" fill="none" d="M124.9 13.25l3.45 3.4q3.55 3.5-.5 7.65L115.2 37.2l-6.8 7-67.05 68.4-26.1 14.25L5.1 132.4 0 127.45l5-10.5 11.25-23.7 2.4-2.4 67.1-68.55 6.8-7 12.8-13.05q4.05-4.15 7.6-.65l11.95 11.65zM18.65 90.85l12.1 11.55 10.6 10.2"/><radialGradient id="b" gradientUnits="userSpaceOnUse" cx="0" cy="0" r="9.668" fx="0" fy="0" gradientTransform="matrix(.48356 -.87531 .51459 .28186 8.15 14.05)" spreadMethod="pad"><stop offset="0%" stop-opacity=".412"/><stop offset="100%" stop-color="#013198" stop-opacity="0"/></radialGradient><radialGradient id="c" gradientUnits="userSpaceOnUse" cx="0" cy="0" r="5.021" fx="0" fy="0" gradientTransform="matrix(.77672 -.62984 .4008 .49292 6.9 5.4)" spreadMethod="pad"><stop offset="0%" stop-opacity=".424"/><stop offset="100%" stop-color="#013198" stop-opacity="0"/></radialGradient><g id="k"><path fill="url(#b)" d="M5.7 7.55h-.3Q3.75 7.7 2.2 9.9q-.86 1.204-1.3 2.6.106.085.2.15.834.602 1.8.95.567-3.002 2.5-4.25-1.933 1.248-2.5 4.25l.15.05q1.15.4 2.5.4 2.45 0 4.35-1.35.116-.085.2-.2Q9.711 11.162 9 10 7.5 7.55 5.7 7.55z"/><path fill="url(#c)" d="M7.8 1.75q-1-1-2.4-1t-2.4 1q-1 1-1 2.4t1 2.4q1 1 2.4 1h.3q1.2-.1 2.1-1 1-1 1-2.4t-1-2.4M3.7 4.2Q3.9 2.9 5 2.35 3.9 2.9 3.7 4.2z"/></g><g id="p"><path d="M15.25 126.85l-5.1-4.95L5 116.95l-5 10.5 5.1 4.95 10.15-5.55z"/><path fill="#F4A457" d="M30.75 102.4l-20.6 19.5 5.1 4.95 26.1-14.25-10.6-10.2z"/><path fill="#F4B573" d="M18.65 90.85l-2.4 2.4L5 116.95l5.15 4.95 20.6-19.5-12.1-11.55z"/><path fill="#F8BE2C" d="M108.4 44.2l-8-7.75-69.65 65.95 10.6 10.2 67.05-68.4z"/><path fill="#CCD6DA" d="M100.4 36.45l8 7.75 6.8-7-7.7-7.45-7.1 6.7z"/><path fill="#D44113" d="M92.55 15.3l14.95 14.45 17.4-16.5L112.95 1.6q-3.55-3.5-7.6.65L92.55 15.3z"/><path fill="#FAD634" d="M100.4 36.45L85.75 22.3l-67.1 68.55 12.1 11.55 69.65-65.95z"/><path fill="#EAECEE" d="M85.75 22.3l14.65 14.15 7.1-6.7L92.55 15.3l-6.8 7z"/><path fill="#BC360C" d="M127.85 24.3q4.05-4.15.5-7.65l-3.45-3.4-17.4 16.5 7.7 7.45 12.65-12.9z"/></g><linearGradient id="a" gradientUnits="userSpaceOnUse" x1="0" y1="4.975" x2="0" y2="-4.975" spreadMethod="pad"><stop offset="20.392%" stop-color="#FFF" stop-opacity="0"/><stop offset="73.725%" stop-color="#FFF" stop-opacity=".949"/><stop offset="100%" stop-color="#FFF" stop-opacity=".651"/><stop offset="100%" stop-opacity=".251"/></linearGradient><filter id="g" x="-20%" y="-20%" width="140%" height="140%" color-interpolation-filters="sRGB"><feColorMatrix in="SourceGraphic" values="1 0 0 0 0 0 1 0 0 0 0 0 1 0 0 0 0 0 0.49 0" result="result1"/></filter></defs><g transform="matrix(.50741 0 0 .50741 9.955 9.927)"><mask id="e"><use xlink:href="#d" transform="scale(1.08163)"/></mask><g mask="url(#e)"><use xlink:href="#f" transform="matrix(2.29086 0 0 2.27605 -12.65 -14.7)"/><use filter="url(#g)" xlink:href="#h" transform="matrix(2.29086 0 0 2.27605 -.165 -9.01)"/><g transform="matrix(2.29086 0 0 2.27605 -12.65 -14.7)"><use xlink:href="#i"/><use xlink:href="#j"/></g><g transform="matrix(2.29086 0 0 2.27605 -12.65 -14.7)"><use xlink:href="#k"/><use xlink:href="#l"/><use xlink:href="#m"/><use xlink:href="#n"/><use xlink:href="#o"/></g></g></g><g transform="matrix(.0973 0 0 .0973 6.85 6.575)"><use xlink:href="#p"/><use xlink:href="#q"/></g></svg>
