<svg xmlns="http://www.w3.org/2000/svg" xmlns:xlink="http://www.w3.org/1999/xlink" preserveAspectRatio="none" width="120" height="120"><defs><path fill="#474747" d="M8.4 9.5l-.05.2h-.5l-2.5 7.15h.9l.1-.2h.5l.65-1.95h2.1l.8 2.15h.95l-.05-.2h.65L9.3 9.5h-.9m.1 2.1q.05-.1.05-.15.1.25.15.5l.65 1.75H7.8l.7-2.1m6.45-2.1h-2.4v.2H12v7.15h2.4q.65 0 1.05-.1.2-.05.4-.15.05-.05.15-.05.45-.15.75-.35.25-.25.45-.7.2-.4.2-.95 0-.6-.3-1.05-.35-.45-.9-.65.45-.25.65-.65.25-.4.25-.9 0-.45-.3-.9-.2-.45-.65-.7-.45-.2-1.2-.2m-1.55 1.05h.7q.7 0 .95.1.3.1.45.35.15.3.15.65 0 .35-.15.6-.05.15-.2.25h-1.9v-1.95m2.35 3.55q.15.25.15.65 0 .35-.1.65-.15.2-.3.35-.15.05-.5.05h-1.6v-2.25h.9q.6 0 .95.1.3.15.5.45m7.2-4.2q-.7-.55-1.6-.55-.7 0-1.25.3-.45.1-.9.35-.75.45-1.1 1.25-.4.85-.4 1.95 0 1.05.35 1.95.35.9 1 1.35.65.45 1.65.45.7 0 1.2-.25.65-.15 1.1-.55.7-.6.95-1.75l-.85-.25q-.05.2-.05.35l-.5-.15q-.2.9-.7 1.35-.1.15-.3.25h-.3q-.6 0-1.15-.35-.45-.3-.7-1-.25-.65-.25-1.6 0-.7.2-1.35.2-.7.75-1.05.1-.1.25-.15.2-.05.35-.05.7 0 1.1.35.4.35.6 1.1l.85-.2v-.05l.6-.15q-.3-1-.9-1.55z" id="b"/><path fill="#F5B62A" d="M2.7-7.9h-5.4v15q1.1-.75 1.65.75 1.15-.65 2.25 0 0-1.3 1.5-.75v-15z" id="f"/><path fill="url(#a)" d="M2.7-8.15h-5.4v15q1.1-.75 1.65.75 1.15-.65 2.25 0 0-1.3 1.5-.75v-15z" id="g"/><path id="c" stroke="#333" stroke-opacity=".902" stroke-width="1" stroke-linejoin="round" stroke-linecap="round" fill="none" d="M4.55 18.9h19.6"/><path id="d" stroke="#666" stroke-width="1" stroke-linejoin="round" stroke-linecap="round" fill="none" d="M2.7-8.15V8.3l-1 2.25-1.3 3h-.65l-.9-2.05-1.55-4.65v-15q-.95-1.55-.2-2.95h.25q-1-1.1-.05-2 2.6-.75 5.4 0 1 .85-.05 2h.25q.8 1.45-.2 2.95h-5.4m0 15q1.1-.75 1.65.75 1.15-.65 2.25 0 0-1.3 1.5-.75M2.65-11.1h-5.3m1.5 22.6q.95-1.55 2.85-.95"/><linearGradient id="a" gradientUnits="userSpaceOnUse" x1="-2.7" y1="-.3" x2="2.7" y2="-.3" spreadMethod="pad"><stop offset="0%" stop-opacity="0"/><stop offset="71.765%" stop-color="#FFF" stop-opacity=".671"/></linearGradient><g id="e"><path fill="#EAE9B4" d="M1.7 10.55l1-2.25V6.85q-1.5-.55-1.5.75-1.1-.65-2.25 0-.55-1.5-1.65-.75l1.55 4.65q.95-1.55 2.85-.95z"/><path fill="#333" d="M.4 13.55l1.3-3q-1.9-.6-2.85.95l.9 2.05H.4z"/><path fill="#999" d="M2.7-8.15q1-1.5.2-2.95h-5.8q-.75 1.4.2 2.95h5.4z"/><path fill="#F33" d="M2.65-11.1q1.05-1.15.05-2-2.8-.75-5.4 0-.95.9.05 2h5.3z"/></g></defs><use xlink:href="#b" transform="matrix(4.08954 0 0 4.08954 14.75 8.25)"/><use xlink:href="#c" transform="matrix(4.08954 0 0 4.08954 14.75 8.25)"/><use xlink:href="#d" transform="matrix(2.47621 -1.08978 .8262 1.93532 23.951 59.37)"/><use xlink:href="#e" transform="matrix(2.47621 -1.08978 .8262 1.93532 23.951 59.37)"/><use xlink:href="#f" transform="matrix(2.47621 -1.08978 .8262 1.93532 23.745 58.885)"/><g transform="matrix(2.47621 -1.08978 .8262 1.93532 23.951 59.37)"><use xlink:href="#g"/></g></svg>
