<svg xmlns="http://www.w3.org/2000/svg" xmlns:xlink="http://www.w3.org/1999/xlink" preserveAspectRatio="none" width="50" height="50"><defs><path fill="#08AAD2" d="M52.5-77.2Q25.607-82.254 2-81.5q-4.587.157-9.05.5-18.236 1.544-34.4 6.7L2.5-72.2q17.953-4.818 50-5m1 53.9q-32.047-.691-50-19-21.962 6.862-43.95 7.9 3.727 4.513 7.5 8.25Q4.933 11.39 53.5-23.3z" id="j"/><path id="g" stroke="#F60" stroke-width="3" stroke-linejoin="round" stroke-linecap="round" fill="none" d="M34.4-92.45q-6.24 2.008-8.425 6.925 17.802-5.884 38.15.95-20.869-1.338-22.5 5.575 11.027-1.237 21.925-.5 17.903 1.203 35.5 8.5-27.8 12.548-56.975 11.4 1.984 6.829 22.775 4.45-20.004 7.843-38.1 2.85 2.449 4.813 8.625 6.225-19.68.856-33.875-6.8M4.85-43.5q23.508 12.69 56.1 11.275-10.225-2.332-14.275-10.3 29.982 8.258 63.125-4.75-34.443 3.953-37.725-7.35 48.326 1.896 94.375-18.9-29.146-12.098-58.8-14.1-18.068-1.21-36.35.85Q74.001-98.223 108.575-96q-33.71-11.336-63.2-1.6 3.627-8.134 13.975-11.45M1.5-52.875L4.85-43.5m54.5-65.55q-32.9.712-55.75 14.55L.75-83.65q13.792-8.362 33.65-8.8"/><path id="i" stroke="#000" stroke-width="1" stroke-linejoin="round" stroke-linecap="round" fill="none" d="M-39.45-111.475Q1.028-160.793 54.5-122.6q-32.047.691-50 19-4.684 35.15 0 70.3-4.49 1.267-8.95 2.35-13.878 3.337-27.475 4.825-3.768.427-7.525.7-14.717 1.076-29.1-.05l-.25-.025q-39.51-3.135-76.425-22.875-.034-.018-.075-.025-15.862-8.495-31.25-20.05 15.604-11.72 31.7-20.275 50.3-26.782 105.4-22.75 17.219 1.248 34.9 5.5 4.51 1.093 9.05 2.375m-91.3 17.7q5.15 5.156 5.15 12.425 0 7.265-5.15 12.35-5.085 5.15-12.35 5.15-7.256 0-12.4-5.15-5.093-5.085-5.1-12.35.007-7.269 5.1-12.425 5.144-5.08 12.4-5.075 7.265-.005 12.35 5.075zm-3.5 3.45q3.684 3.68 3.675 8.875.009 5.219-3.675 8.875-3.656 3.684-8.875 3.675-5.195.009-8.875-3.675-3.66-3.656-3.675-8.875.015-5.195 3.675-8.875 3.68-3.66 8.875-3.675 5.219.014 8.875 3.675zm-54.55-6.275q-3.996 19.762 0 39.525m140.3-56.775q-4.755 37.313 0 74.625"/><path id="k" stroke="#000" stroke-width="1" stroke-linejoin="round" stroke-linecap="round" fill="none" d="M3.5-42.3q17.953 18.309 50 19-48.567 34.69-86.425-2.825-3.798-3.762-7.5-8.25M2.5-72.2q17.953-4.818 50-5Q25.607-82.254 2-81.5q-4.587.157-9.05.525-18.236 1.519-34.4 6.7m1.025 39.9Q-18.463-35.438 3.5-42.3m-44.95-31.975L2.5-72.2"/><radialGradient id="a" gradientUnits="userSpaceOnUse" cx="0" cy="0" r="30.3" fx="-1.069" fy="0" gradientTransform="translate(-159.95 -50.25)" spreadMethod="pad"><stop offset="0%" stop-color="#FFF"/><stop offset="100%" stop-color="#CD0603"/></radialGradient><radialGradient id="b" gradientUnits="userSpaceOnUse" cx="0" cy="0" r="236.1" fx="0" fy="0" gradientTransform="matrix(1 0 0 .30538 -55 -53.95)" spreadMethod="pad"><stop offset="0%" stop-color="#FFF"/><stop offset="100%"/></radialGradient><radialGradient id="e" gradientUnits="userSpaceOnUse" cx="0" cy="0" r="52.45" fx="0" fy="0" gradientTransform="translate(3.5 -42.3)" spreadMethod="pad"><stop offset="0%" stop-color="#FFF"/><stop offset="100%" stop-color="#CD0603"/></radialGradient><linearGradient id="c" gradientUnits="userSpaceOnUse" x1="-114.25" y1="-82.15" x2="-83.95" y2="-64.65" spreadMethod="pad"><stop offset="0%" stop-color="#FFF"/><stop offset="45.882%" stop-color="#3C3C3C"/><stop offset="100%" stop-color="#FFF"/></linearGradient><linearGradient id="d" gradientUnits="userSpaceOnUse" x1="-114.212" y1="-63.875" x2="-92.487" y2="-76.425" spreadMethod="pad"><stop offset="0%" stop-color="#FFF"/><stop offset="100%"/></linearGradient><g id="f"><path fill="#FF0" d="M64.85-55.15q-20.791 2.379-22.8-4.45 29.2 1.148 57-11.4-17.597-7.297-35.5-8.5-10.898-.737-21.95.5 1.656-6.913 22.5-5.6-20.323-6.81-38.15-.95 2.21-4.892 8.45-6.9-19.858.438-33.65 8.8L3.6-94.5q-12.964 22.588 1.25 51L1.5-52.9q14.196 7.681 33.85 6.8-6.151-1.387-8.6-6.2 18.096 4.993 38.1-2.85z"/><path fill="#F60" d="M42.05-59.6q2.009 6.829 22.8 4.45-20.004 7.843-38.1 2.85 2.449 4.813 8.6 6.2-19.654.881-33.85-6.8l3.35 9.4q23.508 12.69 56.1 11.25-10.225-2.307-14.3-10.3 30.007 8.283 63.15-4.75-34.443 3.978-37.75-7.35 48.351 1.921 94.4-18.9-29.146-12.073-58.8-14.1-18.068-1.186-36.35.85 2.701-11.423 37.25-9.2-33.685-11.336-63.2-1.6 3.652-8.134 14-11.45-32.9.712-55.75 14.55L.75-83.65q13.792-8.362 33.65-8.8-6.24 2.008-8.45 6.9 17.827-5.86 38.15.95-20.844-1.313-22.5 5.6 11.052-1.237 21.95-.5 17.903 1.203 35.5 8.5-27.8 12.548-57 11.4z"/></g><g id="h"><path fill="url(#a)" d="M-145.3-48.4l.45-.8q-3.996-19.763 0-39.55-16.096 8.58-31.7 20.3 15.388 11.555 31.25 20.05z"/><path fill="url(#b)" d="M-4.55-106q-17.681-4.227-34.9-5.5-55.1-4.007-105.4 22.75-3.996 19.787 0 39.55l-.4.8q36.94 19.765 76.45 22.9.124.013.25 0 14.383 1.15 29.1.05 3.757-.248 7.5-.7 13.622-1.463 27.5-4.8l-.1-.4q-4.755-37.312 0-74.65m-94.6 15q7.265.02 12.35 5.1 5.15 5.156 5.15 12.4 0 7.29-5.15 12.35-5.085 5.176-12.35 5.15-7.256.026-12.4-5.15-5.093-5.06-5.1-12.35.007-7.244 5.1-12.4 5.144-5.08 12.4-5.1z"/><path fill="url(#c)" d="M-86.8-85.9q-5.085-5.08-12.35-5.1-7.256.02-12.4 5.1-5.093 5.156-5.1 12.4.007 7.29 5.1 12.35 5.144 5.176 12.4 5.15 7.265.026 12.35-5.15 5.15-5.06 5.15-12.35 0-7.244-5.15-12.4m-12.4-.25q5.244.04 8.9 3.7 3.684 3.68 3.65 8.85.034 5.244-3.65 8.9-3.656 3.684-8.9 3.65-5.17.034-8.85-3.65-3.66-3.656-3.7-8.9.04-5.17 3.7-8.85 3.68-3.66 8.85-3.7z"/><path fill="url(#d)" d="M-90.3-82.45q-3.656-3.66-8.9-3.7-5.17.04-8.85 3.7-3.66 3.68-3.7 8.85.04 5.244 3.7 8.9 3.68 3.684 8.85 3.65 5.244.034 8.9-3.65 3.684-3.656 3.65-8.9.034-5.17-3.65-8.85z"/><path fill="url(#e)" d="M4.5-33.3q-4.684-35.15 0-70.3-4.54-1.282-9.05-2.4-4.755 37.338 0 74.65l.1.4Q.01-32.033 4.5-33.3z"/><path fill="#08AAD2" d="M4.5-103.6q17.953-18.309 50-19-53.472-38.193-93.95 11.1 17.219 1.273 34.9 5.5 4.51 1.118 9.05 2.4z"/></g></defs><g transform="matrix(-.09636 .0001 .0001 -.09645 25 18.4)"><use xlink:href="#f"/><use xlink:href="#g"/></g><g transform="matrix(-.09636 .0001 .0001 -.09645 25 18.4)"><use xlink:href="#h"/><use xlink:href="#i"/></g><g transform="matrix(-.09636 .0001 .0001 -.09645 25 18.4)"><use xlink:href="#j"/><use xlink:href="#k"/></g></svg>