<svg xmlns="http://www.w3.org/2000/svg" xmlns:xlink="http://www.w3.org/1999/xlink" preserveAspectRatio="none" width="19" height="19"><defs><g id="a"><path fill="red" d="M.6 10.5q0 .8.15 1.85Q1.9 15.8 5.65 17q3.05 1 6.1.4v-1.45L9.6 9.35q-.015-.091-.05-.2L9.3 8.4l-8.35 2-.35.1z"/><path fill="#FC0" d="M9.3 1.4v-.05q-3.45.05-6 2.15-.4.35-.7.7Q.9 5.95.75 8.3v.25l.3-1.7Q.65 9.8.95 10.4l8.35-2v-7z"/><path fill="#09F" d="M18.3 8.8V8.4q-.2-2.85-2.55-4.85-2.6-2.15-6.2-2.15H9.3v7l.25.75q.035.109.05.2l2.15 6.6v1.45q.8-.15 1.5-.4 3.75-1.25 4.85-4.65.4-1.4.2-3.45v-.1z"/></g></defs><use xlink:href="#a"/></svg>
