<svg version="1.1" id="Capa_1" xmlns="http://www.w3.org/2000/svg" x="0" y="0" width="22" height="22" xml:space="preserve"><style>.st0{fill:#231f20}</style><linearGradient id="SVGID_1_" gradientUnits="userSpaceOnUse" x1="0" y1="0" x2="0" y2="-1"><stop offset="0" stop-color="#656565"/><stop offset=".618" stop-color="#1b1b1b"/><stop offset=".629" stop-color="#545454"/><stop offset=".983" stop-color="#3e3e3e"/></linearGradient><path class="st0" d="M10.865.333C5.289.333.721 4.632.287 10.096l5.689 2.352a2.982 2.982 0 011.859-.517l2.53-3.667v-.052a4.008 4.008 0 014.003-4.003 4.008 4.008 0 014.003 4.003 4.008 4.008 0 01-4.003 4.003l-.091-.002-3.608 2.575a3.008 3.008 0 01-3.002 3.147 3.01 3.01 0 01-2.946-2.413L.652 13.84c1.26 4.455 5.353 7.722 10.212 7.722 5.862 0 10.614-4.753 10.614-10.614C21.479 5.085 16.727.333 10.865.333z"/><path class="st0" d="M6.939 16.439L5.635 15.9c.231.481.631.884 1.162 1.105a2.256 2.256 0 002.951-2.94 2.24 2.24 0 00-1.218-1.223 2.244 2.244 0 00-1.662-.025l1.347.557a1.661 1.661 0 01.894 2.171 1.658 1.658 0 01-2.17.894zM17.035 8.212c0-1.471-1.197-2.667-2.667-2.667S11.7 6.741 11.7 8.212s1.197 2.667 2.667 2.667 2.668-1.196 2.668-2.667zm-4.667-.005a2.004 2.004 0 114.007 0 2.004 2.004 0 01-4.007 0z"/></svg>
