<svg xmlns="http://www.w3.org/2000/svg" xmlns:xlink="http://www.w3.org/1999/xlink" preserveAspectRatio="none" width="200" height="105"><defs><path fill="#FFF" d="M434.5 417.55V369.5H218.45v48.05H434.5z" id="a"/><path fill="#00885F" d="M434.5 369.5v-48H218.45v48H434.5z" id="b"/><path fill="#373535" d="M218.45 417.55v48H434.5v-48H218.45z" id="c"/><path fill="#F2653F" d="M218.45 321.5h-72v144.05h72V321.5z" id="e"/><path id="d" stroke="#373535" stroke-width=".25" stroke-linejoin="miter" stroke-linecap="butt" stroke-miterlimit="4" fill="none" d="M49.971 104.98h150.005V69.996H49.97v34.986z"/></defs><use xlink:href="#a" transform="matrix(.6943 0 0 .72888 -101.7 -234.35)"/><use xlink:href="#b" transform="matrix(.6943 0 0 .72888 -101.7 -234.35)"/><g transform="matrix(.6943 0 0 .72888 -101.7 -234.35)"><use xlink:href="#c"/><use xlink:href="#d" transform="matrix(1.44028 0 0 1.37196 146.45 321.5)"/></g><use xlink:href="#e" transform="matrix(.6943 0 0 .72888 -101.7 -234.35)"/></svg>