<svg xmlns="http://www.w3.org/2000/svg" xmlns:xlink="http://www.w3.org/1999/xlink" preserveAspectRatio="none" width="200" height="105"><defs><path fill="#00A05F" d="M448 367v-48H159.95v48H448z" id="a"/><path fill="#373535" d="M159.95 415.05v48H448v-48H159.95z" id="b"/><path fill="#FFF" d="M448 415.05V367H159.95v48.05H448z" id="c"/><path fill="#F3C83A" d="M289.85 402.6q-.75-1.7-2.5-2.25-1.8-.55-4.1.35-3.65 1.45-4 1.55-1.95.55-3.4.1.8 1.5 1.95 2.35.8.6 2.45.5 1.95-.1 4.05-1.25 2.45-1.35 2.7-1.4 1.65-.65 2.85.05z" id="d"/><path fill="#F3C83A" d="M280.85 405.85q-2.15-.35-2.6-.5.35.15 2.4 1.35.75.4 1-.1.2-.55-.8-.75z" id="e"/><path fill="#F3C83A" d="M279.85 407.15q.7.45 1.85.7.95.2 1.45.1.6-.15.45-.55-.15-.35-1.1-.1-1.3.35-2.65-.15z" id="f"/><path fill="#F3C83A" d="M285.05 408.1q-.2-.3-.8-.05-.5.2-1.45.3-.85.05-1.4-.05 2.25.6 3.3.25.6-.2.35-.45z" id="g"/><path fill="#F3C83A" d="M285.05 407q-1.15-1.1-1.5-1.6l.8 1.9q.25.65.7.4.4-.2 0-.7z" id="h"/><path fill="#F3C83A" d="M286.55 407.55l-1.85-2.1q.4.65 1.1 2.35.5.8.9.55.35-.25-.15-.8z" id="i"/><path fill="#F3C83A" d="M284.4 409.4q1.25.15 1.65-.05.55-.25.25-.55-.3-.35-.85-.05-.4.25-1.35.35-.9.1-1.4 0 .7.2 1.7.3z" id="j"/><path fill="#F3C83A" d="M288.4 407.95q-.65-.5-2.65-2.5.55.7 2.05 3 .6.9 1 .5.45-.35-.4-1z" id="k"/><path fill="#F3C83A" d="M287.1 406.15q1.8 1.25 2.65 1.25.7-.05.5-.45-.15-.45-.7-.4-1.4.1-2.45-.4z" id="l"/><path fill="#F3C83A" d="M288.6 405.2q-1.5-.05-2.35-.2 1.75 1.05 2.5 1 .6 0 .55-.35-.05-.4-.7-.45z" id="m"/><path fill="#F3C83A" d="M289.95 405.3q.45-1.05-.6-2.65.3 1.05 0 2.25-.15.45.1.7.3.25.5-.3z" id="n"/><path fill="#F3C83A" d="M283.3 406.15q-1.1-1.05-1.55-1.35.3.4 1 1.8.35.35.7.2.4-.2-.15-.65z" id="o"/><path fill="#F3C83A" d="M285.6 403.35q.6 1.05 1.8 1.3.7.1.75-.2.1-.25-.25-.5-.2-.1-1-.15-.8 0-1.3-.45z" id="p"/><path fill="#F3C83A" d="M284.5 399.55q.5-.45.05-1.95.05.35-.6 1.5-.2.35 0 .6.2.2.55-.15z" id="q"/><path fill="#F3C83A" d="M285.55 399.65q.2-.3-.15-1.15 0 .1-.2.45-.2.3-.2.45 0 .3.2.4.2.1.35-.15z" id="r"/><path fill="#F3C83A" d="M284.1 397.1l-.25-1q0 1.05-.6 1.7-.25.35 0 .6t.65-.25q.3-.4.2-1.05z" id="s"/><path fill="#F3C83A" d="M283.2 399.15q-1.6-.75-2.2-1.3 1.15 1.85 2.05 2.1.5.15.6-.2.05-.35-.45-.6z" id="t"/><path fill="#F3C83A" d="M280.35 394.2q-.55-.25-1.15-1.35.3 1.65 1.1 2 .4.2.45-.1.05-.35-.4-.55z" id="u"/><path fill="#F3C83A" d="M282.2 396.95q.2-.5-.45-.9-2.023-1.27-2.95-2 .741.61 2.5 2.6.7.75.9.3z" id="v"/><path fill="#F3C83A" d="M279.4 399.5q-.7-1.45-.85-2.1.35 2.1.15 3.1-.2.8.25.95.4.1.65-.55.25-.45-.2-1.4z" id="w"/><path fill="#F3C83A" d="M278.2 398.4q-.3-1-.4-1.35-.15-.6-.1-1.15-.7 2.25-.25 3.1.25.6.6.4.35-.15.15-1z" id="x"/><path fill="#F3C83A" d="M276.95 397.5q.15-.35.2-1.25 0-.9-.1-1.5 0 1.25-.7 2.1-.35.4-.05.85.3.4.65-.2z" id="y"/><path fill="#F3C83A" d="M280.15 399.55q-.25-.3-.6-2.15-.3-1.7-1.2-2.2.65.9.9 2.6.15 1.35.9 1.75z" id="z"/><path fill="#F3C83A" d="M280.75 398.35q-.85-1-1.05-1.9.05.55.45 1.55.45 1 .45 1.35.1.85.2 1.05.2.5.75.55-.15-.4-.4-1.45-.15-.9-.4-1.15z" id="A"/><path fill="#F3C83A" d="M281.9 397.35q-.7-.35-.85-.5l-1.4-1.2q.45.75 1.35 1.7.8.9 1.15 1.1.3.15.5.05.2-.15 0-.55-.15-.3-.75-.6z" id="B"/><path fill="#F3C83A" d="M277.25 401.65q-.85-.65-1.75-.65.3.1.95.55.55.45.7.45.65 0 .1-.35z" id="C"/><path fill="#F3C83A" d="M278.3 400.85q-2.516-.543-3.2-1.25.563.61 1.4 1.3 1.05.8 1.7.85.7.1.7-.35 0-.45-.6-.55z" id="D"/><path fill="#F3C83A" d="M276.8 399.2q-1.65-.55-3-1.4 1.8 1.65 2.95 2.15.5.15.65-.2.15-.35-.6-.55z" id="E"/><path fill="#F3C83A" d="M275.45 397.65l-2.7-1.5q1 .75 2.3 2.05.4.45.8.15.35-.3-.4-.7z" id="F"/><path fill="#F3C83A" d="M275.55 397.15q.3-.35-.45-.75l-2.4-1.3q1.5 1.25 2.15 1.95.4.45.7.1z" id="G"/><path fill="#F3C83A" d="M274.3 394.9q-.9-.3-1.7-.9 2.4 2 2.85 2.1.5.1.6-.05.05-.2-.5-.6-.3-.25-1.25-.55z" id="H"/><path fill="#F3C83A" d="M274.55 394q-1.75-.8-2.4-1.25l2.05 1.75q.5.55.8.2.25-.35-.45-.7z" id="I"/><path fill="#F3C83A" d="M273.75 392.4q-1.3-.65-2.55-2 1.35 2.2 2.3 2.7.45.2.6-.1.15-.3-.35-.6z" id="J"/><path fill="#F3C83A" d="M276.6 395.3q.3-.6-.3-2.6.05.65-.25 2.05-.15.5.1.75t.45-.2z" id="K"/><path fill="#F3C83A" d="M275.8 393.9q-.4-1.35-.35-2-.15.4-.2 1.2-.05.7.05 1 .1.3.35.25.3-.05.15-.45z" id="L"/><path fill="#F3C83A" d="M274.75 392.15l-.3-1.3q-.4 1.15-.3 1.75.1.25.4.15.3-.1.2-.6z" id="M"/><path fill="#F3C83A" d="M271.1 387.3q.8 2.3.95 2.5.75 1.35 2.5 1.9 1.2.35 4.1 1.05 2.4.55 3.05.85 1.6.8 1.4 1.4-.6 1.3-.5 1.6.1.65.5.25.7-.7.2-2.2-.65-1.9-.7-2.2-.3-1.05-.8-1.6-.85-1-2.65-1.15-3.05-.35-4.1-.6-2.25-.65-3.85-2.25-.35-.45-.1.45z" id="N"/><path fill="#F3C83A" d="M282.2 394.8q-1-1-1.15-1.55-.15 1.65.65 2.15.45.3.65.05.25-.25-.15-.65z" id="O"/><path fill="#F3C83A" d="M285.85 410.6q-.35-.15-2.05-.5-1.45-.3-2.4-.9 1 .8 2.3 1.5 1.45.75 2.25.8.85.05.8-.25-.05-.25-.9-.65z" id="P"/><path fill="#F3C83A" d="M287.7 410.25l1-.85q-.65-.45-1.75-.05-1.4.45-1.85.45.3.1 1.15.2.9.05 1.45.25z" id="Q"/><path fill="#F3C83A" d="M289.8 408.45l.7-.7h-1.15q-.6 0-.95-.15.85.6 1.4.85z" id="R"/><path fill="#F3C83A" d="M290.95 407.4q.15-.25.45-.35v-.3q0-.8-.7-2.35-.2-.3-.2-.15 0 .1.05.5.1.55-.15 1.55-.15.4 0 .7.15.35.55.4z" id="S"/><path fill="#F3C83A" d="M291.6 407.05l.4.1q.3-.65.05-1.35-.15-.35-.4-.1-.15.2-.5.45l.1.4q.25-.4.5-.15.2.3-.15.65z" id="T"/><path fill="#F3C83A" d="M287.6 402.7q-.05-.6-1.15-.85.2 1.15.7 1.5.55.45.45-.65z" id="U"/><path fill="#F3C83A" d="M288.8 404.05q.3-.55-.5-2.05 0 .6-.05 1.95.25.8.55.1z" id="V"/><path fill="#F3C83A" d="M273.85 387.5q-1.55-1.55-2.15-2.5.25.55 1.4 2.9.2.5.8.35.55-.1-.05-.75z" id="W"/><path fill="#F3C83A" d="M275.25 386.85q0-.8.05-1.15-.35.85-.95 1.55-.25.3-.15.6.15.25.6-.05.4-.25.45-.95z" id="X"/><path fill="#F3C83A" d="M277.2 388.85q-.1-.8-1.6-1.6.45.65.8 1.5.15.4.5.45.3 0 .3-.35z" id="Y"/><path fill="#F3C83A" d="M278.1 389.3q.75-.35.55-2 0 .3-.35.65-.2.25-.6.6-.25.25-.15.6t.55.15z" id="Z"/><path fill="#F3C83A" d="M280.9 387.5q-.1-.05-.2.15-.1.25-.65.75-.45.4-.55.9-.1.85.6.3.3-.2.55-.95.2-.75.25-.9.1-.2 0-.25z" id="aa"/><path fill="#F3C83A" d="M277.95 387.45q.4-.3.4-1.8-.05.1-.5.65-.35.4-.4.65-.1.35.05.55.15.15.45-.05z" id="ab"/><path fill="#F3C83A" d="M277.9 385.45q.1-1.2.35-1.75-.95.95-.95 1.75-.05.5.25.45.3 0 .35-.45z" id="ac"/><path fill="#F3C83A" d="M276.45 386.45q-.5-.45-.75-.7.4 1.5.95 1.8.5.3.3-.4-.1-.3-.5-.7z" id="ad"/><path fill="#F3C83A" d="M276.45 384.75q-.55-1-.6-1.1-.05.55.1 1.25.15.8.45 1.1.65.65.5-.3-.05-.3-.45-.95z" id="ae"/><path fill="#F3C83A" d="M277.25 382.7q-.2-.95-.25-1.35-.6 1.7-.35 2.5.1.4.25.5.2.05.35-.4.15-.35 0-1.25z" id="af"/><path fill="#F3C83A" d="M274.6 382.5q.4-.3.2-2.1-.1.55-.8 1.55-.35.5-.05.75.3.2.65-.2z" id="ag"/><path fill="#F3C83A" d="M274.45 384.35q.45-.4.6-1.95-1.05 1.3-1.1 1.75 0 .7.5.2z" id="ah"/><path fill="#F3C83A" d="M271.05 384.65q-.2-.6-.1 0 .1.8.75 1.85.1.2.15.15.05-.05-.05-.25l-.75-1.75z" id="ai"/><path fill="#F3C83A" d="M272.4 384.55q-.68-.825-1.15-1.6.234.387.75 1.7.6 1.25 1 1.55.5.35.65.15.2-.2-.2-.65-.65-.7-1.05-1.15z" id="aj"/><path fill="#F3C83A" d="M274.5 386.15q.6-.4.6-2.2-.3.95-.85 1.5-.25.25-.15.6t.4.1z" id="ak"/><path fill="#F3C83A" d="M271.25 380.9q-.05.05 0 .15 1.1 2 1.3 2.7.4 1.25.9.95.55-.25-.35-1.3-1.15-1.3-1.75-2.4-.05-.1-.1-.1z" id="al"/><path fill="#F3C83A" d="M271.65 379.3q-.15-.3-.15.05.1.7.45 1.4.15.4.55 1.3.3.75.85.8.5.05-.05-.95-.2-.35-.85-1.05-.5-.55-.8-1.55z" id="am"/><path fill="#F3C83A" d="M271.95 377.8v.1q.25.8.45 1.95.15.55.45.95.3.45.5.35.2-.1.1-.6-.15-.55-.4-.8-.75-1-.95-1.75-.05-.15-.15-.2z" id="an"/><path fill="#F3C83A" d="M273.6 376.8q-.1-.6-.2-.05l-.25 1.55q-.1.35 0 .75.15.4.4.4.3 0 .35-.4.05-.4-.1-.75-.2-.55-.2-1.5z" id="ao"/><path fill="#F3C83A" d="M274.35 380.6q.25-1.25.4-1.5-.95 1.15-.95 1.55-.05.35.2.35.3 0 .35-.4z" id="ap"/><path fill="#F3C83A" d="M274.9 379q-.65-.25-.05.45 4.85 6.2 5 8.3 0 .75.25.2.75-1.55.85-2.65.1-1.15-.4-2.35-1.7-3.6-3-5.65-.4-.7-.4.25-.1.75-.45 1.7-.9.1-1.8-.25z" id="aq"/><path fill="#F3C83A" d="M282.9 376.7q-.05-.05-.3.05-.35.25-.75 1.6t-1 1.85q-.3.25-.3.65.05.25.6-.3.7-.6.85-1.6.3-1.75.7-2 .2-.15.2-.25z" id="ar"/><path fill="#F3C83A" d="M281.85 377.05q.15-.2.05-.2-.15 0-.3.1-1 .75-1.3 1.45-.15.45-.4 1.35-.3.6-.15.75.15.1.4-.2l.35-1.1q.35-1.1 1.35-2.15z" id="as"/><path fill="#F3C83A" d="M279.2 375q-.4-.4-.15.2.65 1.95-.35 4.55l.3.45q.4-2.25 1.9-3.2 1.75-1.1 1.85-1.85.1-.65-.2-.1-.1.2-.55.6-.4.3-.65.4-.5.25-.25-.15.3-.5.3-1.3-.05-.45-.5 0-.6.6-.65 1.35 0 .5-.15.5t-.25-.25q-.4-1-.65-1.2z" id="at"/><path fill="#F3C83A" d="M274.05 372.85q-.1.05-.05.25.2.6 0 1.35-.2.8 0 1.3.1.2.15.15.1-.05 0-.4-.05-.3.1-1.15.15-.7-.05-1.3-.05-.2-.15-.2z" id="au"/><path fill="#F3C83A" d="M274.65 375.5q.7 1.95.65 2.65.3.35.3.05.1-1.55-.6-2.65.75-2.9.15-4.3.35 2.75-.5 4.25z" id="av"/><path fill="#F3C83A" d="M276.55 376.2q-.1.45.5.05.6-.6.6-1.35.1-.65-.45-.15-.55.45-.65 1.45z" id="aw"/><path fill="#F3C83A" d="M276.4 372.1q.4-1.35-.1-2.55.25 1.05-.15 2.55.35 1.35 0 2.25-.3.7.2.15.45-.5.05-2.4z" id="ax"/><path fill="#F3C83A" d="M277.1 368.5q-.1-.3-.1 0 0 .35.1 2.1.1 1.3 0 1.6-.15.55 0 1.2.15.75.6.65.35-.05.3-.7-.05-.25-.35-1.35-.3-.9-.45-2.8-.05-.45-.1-.7z" id="ay"/><path fill="#F3C83A" d="M277.9 367.15q-.1-.05 0 .3.15 1.4 0 3.2-.05.55.05 1.1.15.65.45.6.6 0 .15-1.85-.4-1.75-.5-2.9-.05-.4-.15-.45z" id="az"/><path fill="#F3C83A" d="M278.65 374.05q.85-.25 1.5-1.4-.15.15-.9.3-.75.2-.95.45-.3.4-.2.6.05.25.55.05z" id="aA"/><path fill="#F3C83A" d="M279.75 372.35q.55-.2 1.35-1.4-.2.2-1 .4-.7.1-.85.35-.25.35-.15.55.15.25.65.1z" id="aB"/><path fill="#F3C83A" d="M281.85 373.15q-.5-1.15-.35-2.05-.4.85-.45 1.65-.1.85.2 1.1.35.3.6.05.2-.25 0-.75z" id="aC"/><path fill="#F3C83A" d="M281.95 374q-.05.4.65.2.65-.2 1.1-.9.15-.25.5-1.1-.2.3-.85.7-.6.4-.95.5-.4.2-.45.6z" id="aD"/><path fill="#F3C83A" d="M282.9 372.1q0 .35.55.2.8-.25 1.7-1.7-.7.7-1.9 1.05-.4.1-.35.45z" id="aE"/><path fill="#F3C83A" d="M282.5 370.65q-.1-.75 0-1.2-.7 1.2-.6 2.45.1.45.45.35.4-.1.3-.5-.1-.65-.15-1.1z" id="aF"/><path fill="#F3C83A" d="M280.7 370.6q.55-.25 1.15-1.3-.2.2-.9.4t-.95.5q-.35.4-.05.55.25.1.75-.15z" id="aG"/><path fill="#F3C83A" d="M279 366.05q-.1 0-.05.25.3 1.1-.05 2.4-.15.6-.05 1.4.15.8.45.8.35 0 .4-.45.05-.45-.15-1.05-.35-2.75-.4-3.05-.05-.25-.15-.3z" id="aH"/><path fill="#F3C83A" d="M280.25 364.2q-.1-.05-.1.2 0 1.85-.3 2.95-.25 1.5.2 1.55.3 0 .4-.55.1-.5 0-1.05-.15-.75-.15-2.8.05-.25-.05-.3z" id="aI"/><path fill="#F3C83A" d="M281.85 367.15q.3-.9.3-2.1-.15.4-.75 1.05-.5.6-.5 1 0 .55.4.55.35 0 .55-.5z" id="aJ"/><path fill="#F3C83A" d="M282.65 367.85q.45-.8.6-1.4-.3.95-2.2 1.85-.5.3-.4.7.1.4.8.05.6-.3 1.2-1.2z" id="aK"/><path fill="#F3C83A" d="M283 370.15q.1.45.4.45.25 0 .35-.6.25-1.1-.1-2.4-.4.6-.6 1.4-.15.7-.05 1.15z" id="aL"/><path fill="#F3C83A" d="M285.1 368.7q.5-.3.85-1.7-1.35.7-1.45 1.6 0 .55.6.1z" id="aM"/><path fill="#F3C83A" d="M285 370.35q.9-.7 1.5-1.9-.9.9-1.95 1.2-.4.1-.65.45-.3.4-.1.6.35.35 1.2-.35z" id="aN"/><path fill="#FFF" d="M287.9 383.35l-.6-1.05q-.2.65-1.4 1.8-1.2 1.2-1.4 1.65-.45 1.05-.5 2.6 0 1.5-.2 1.9.5.35.75.65.25-.55.35-1.95.15-1.5.65-2.6.2-.4 1.2-1.4.95-.95 1.15-1.6z" id="aO"/><path fill="#FFF" d="M288.1 385.4q.4-.35.6-.8l-.8-1.25q-.2.65-1.15 1.6-1 1-1.2 1.4-.5 1.1-.65 2.6-.1 1.4-.35 1.95.2.15.7.8.7-1.4 1-3.55.2-1.35 1.2-2.15.45-.35.65-.6z" id="aQ"/><path fill="#FFF" d="M289.25 385.8l-.55-1.2q-.2.45-.6.8-.2.25-.65.6-1 .8-1.2 2.15-.3 2.15-1 3.55.55.65.75 1 .85-1.65 1.1-4.1.15-1.3 1-1.8.85-.35 1.15-1z" id="aS"/><path fill="#FFF" d="M313 382.3l-.6 1.05q.2.65 1.15 1.6 1 1 1.2 1.4.5 1.1.65 2.6.1 1.4.35 1.95.1-.15.75-.65-.2-.4-.2-1.9-.05-1.55-.5-2.6-.2-.45-1.4-1.65-1.2-1.15-1.4-1.8z" id="aU"/><path fill="#FFF" d="M311.6 384.6q.2.45.6.8.25.25.65.6 1 .8 1.2 2.15.3 2.15 1 3.55.5-.65.7-.8-.25-.55-.35-1.95-.15-1.5-.65-2.6-.2-.4-1.2-1.4-.95-.95-1.15-1.6l-.8 1.25z" id="aW"/><path fill="#FFF" d="M311.6 384.6l-.55 1.2q.3.55 1.15 1 .85.5 1 1.8.1.8.4 2 .35 1.4.7 2.1.2-.35.75-1-.7-1.4-1-3.55-.2-1.35-1.2-2.15-.4-.35-.65-.6-.4-.35-.6-.8z" id="aY"/><path fill="#F3C83A" d="M292.2 382.1q-.1 0-.1.15t.1.15h6.95q-1.5.3-2.6 1.45-1.35 1.4-1.35 3.4v6.7q0 .2.2.2h1.35q.3 0 .3.25v.65q0 .35-.25.35h-2q-.2 0-.35-.25l-.05-.55q0-.15-.3-.15h-1.8q-.35 0-.4.25-.25 1.55-1.25 2.25-.2.2.05.2h6.35q.15 0 .15-.25v-1.1q0-.2.2-.2h1.1q.25 0 .3.25l.15 1.15q.1.15.2.15h1.35q.2 0 .1-.25l-.4-1.15q0-.15.2-.15h.85q.3 0 .35.15l.75 1.3q.05.1.25.1h1.8q.15 0-.05-.3l-.8-.85-.15-.3q0-.15.15-.15h1.55q.2 0 .05-.15l-.55-.65-.05-.3v-.65q0-.15-.15-.25l-.5-.4q-.1-.1-.1-.3V392q0-.15-.15-.25l-.85-.35q-.15-.05-.15-.25v-.65q0-.2-.15-.25l-.55-.3-.05-.25v-.85q0-.15-.2-.15h-1.05q-.25 0-.3-.1l-.4-.45q-.05-.05-.05-.25v-.45q0-.2-.25-.2h-3.8q-.25 0-.25-.15.05-1.95 1.45-3.2 1.3-1.15 3.1-1.15 1.85 0 3.15 1.25 1.4 1.3 1.4 3.35v1.35q0 .1.2.1t.2-.1v-1.45q0-2-1.35-3.4-1.1-1.15-2.6-1.45h6.95q.15 0 .15-.15t-.15-.15h-15.9z" id="ba"/><path fill="#F3C83A" d="M292.35 379.45h1.85q.15 0 .15-.15v-3.95q0-.1-.15-.1h-1.85q-.15 0-.15.1v3.95q0 .15.15.15z" id="bb"/><path fill="#F3C83A" d="M292.35 374.8h1.85q.15 0 .15-.15v-.25q0-.15-.15-.15h-1.85q-.15 0-.15.15v.25q0 .15.15.15z" id="bc"/><path fill="#F3C83A" d="M294.45 373.6q0-.75-.5-1.1-.4-.25-.5-.45-.1-.25-.2-.25-.05 0-.2.25-.1.25-.45.45-.5.3-.5 1.1 0 .15.1.15h2.1q.15 0 .15-.15z" id="bd"/><path fill="#F3C83A" d="M294.45 386.1V383q0-.15-.15-.15h-2.1q-.1 0-.1.15v3.1q0 .15.1.15h2.1q.15 0 .15-.15z" id="be"/><path fill="#F3C83A" d="M292.6 387.7h1.6q.15 0 .25-.1l.4-.65q.15-.25-.15-.25h-2.55q-.35 0-.15.2l.25.6q.15.2.35.2z" id="bf"/><path fill="#F3C83A" d="M294.95 384.95q0 .4.15.1.4-1.05 1.35-1.9.2-.2-.05-.2h-1.3q-.15 0-.15.15v1.85z" id="bg"/><path fill="#F3C83A" d="M292.2 388.25v.45q0 .15.15.15h1.95q.15 0 .15-.15v-.45q0-.15-.15-.15h-1.95q-.15 0-.15.15z" id="bh"/><path fill="#F3C83A" d="M292.1 389.5v2.45q0 .15.15.15h2.05q.15 0 .15-.15v-2.45q0-.15-.15-.15h-2.05q-.15 0-.15.15z" id="bi"/><path fill="#F3C83A" d="M291.95 392.6v1.3q0 .15.15.15h2.35q.15 0 .15-.15v-1.3q0-.15-.15-.15h-2.35q-.15 0-.15.15z" id="bj"/><path fill="#F3C83A" d="M287.6 381.5q-.35-.5-.8-.15-.5.3-.15.8.3.5.8.15.45-.3.15-.8z" id="bk"/><path fill="#F3C83A" d="M292.25 391.25v-.7l-4.75-8.45-.3.15 5.05 9z" id="bl"/><path fill="#F3C83A" d="M306.1 379.45h1.85q.15 0 .15-.15v-3.95q0-.1-.15-.1h-1.85q-.15 0-.15.1v3.95q0 .15.15.15z" id="bm"/><path fill="#F3C83A" d="M306.1 374.8h1.85q.15 0 .15-.15v-.25q0-.15-.15-.15h-1.85q-.15 0-.15.15v.25q0 .15.15.15z" id="bn"/><path fill="#F3C83A" d="M308.1 373.75q.15 0 .15-.15 0-.8-.55-1.1-.35-.2-.45-.45-.1-.25-.2-.25-.05 0-.2.25-.1.25-.5.45-.5.35-.5 1.1 0 .15.15.15h2.1z" id="bo"/><path fill="#F3C83A" d="M302.25 378.45h-4.2q-.7 0-1.05.1-.45.1-1.05.55-.85.7-1 .8-.25.1-.75.1h-3.6q-.45 0-.1.35l1.2 1.25q.2.15.75.15h15.4q.55 0 .75-.15l1.2-1.25q.35-.35-.1-.35h-3.6q-.5 0-.7-.1-.2-.1-1.05-.8-.55-.45-1.05-.55-.3-.1-1.05-.1z" id="bp"/><path fill="#F3C83A" d="M300.45 371.1q0-.95-.3-.95t-.3.95q0 .4-.15.5-.1.1-.5.15-3 .55-3 3.55 0 1.05.45 1.85.45.75.9.75h5.2q.45 0 .9-.75.45-.8.45-1.85 0-3-3-3.55-.4-.05-.5-.15-.15-.1-.15-.5z" id="bq"/><path fill="#F3C83A" d="M305.85 383v3.1q0 .15.15.15h2.1q.15 0 .15-.15V383q0-.15-.15-.15H306q-.15 0-.15.15z" id="br"/><path fill="#F3C83A" d="M306 394.45q-.25 0-.25.15 0 1.25-.85 2.2-.2.35.05.35h4.65q.25 0 .05-.2-1-.7-1.25-2.25-.05-.25-.4-.25h-2z" id="bs"/><path fill="#F3C83A" d="M306.1 387.7h1.65q.15 0 .3-.2l.25-.6q.2-.2-.15-.2h-2.55q-.3 0-.15.25l.4.65q.1.1.25.1z" id="bt"/><path fill="#F3C83A" d="M305.2 385.05q.15.3.15-.1v-1.85q0-.15-.15-.15h-1.3q-.25 0-.05.2.95.85 1.35 1.9z" id="bu"/><path fill="#F3C83A" d="M308.1 388.7v-.45q0-.15-.15-.15H306q-.15 0-.15.15v.45q0 .15.15.15h1.95q.15 0 .15-.15z" id="bv"/><path fill="#F3C83A" d="M308.2 391.95v-2.45q0-.15-.15-.15H306q-.15 0-.15.15v2.45q0 .15.15.15h2.05q.15 0 .15-.15z" id="bw"/><path fill="#F3C83A" d="M308.35 392.6q0-.15-.15-.15h-2.35q-.1 0-.1.15v.7q0 .4-.2 0l-.25-.55q-.1-.25-.3-.25h-.7q-.25 0-.2.1l.7 1.15q.1.3.4.3h3q.15 0 .15-.15v-1.3z" id="bx"/><path fill="#F3C83A" d="M312.15 399.75q.4 0 .4-.2t-.3-.4q-.95-.55-1.35-1-.35-.45-1.05-.45H290.5q-.75 0-1.1.45-.4.45-1.35 1-.3.2-.3.4t.4.2h24z" id="by"/><path fill="#F3C83A" d="M304.7 389.7v2.2q0 .05.2.05t.2-.05v-2.2q0-.1-.2-.1t-.2.1z" id="bz"/><path fill="#F3C83A" d="M313.55 381.35q-.5-.35-.8.15-.35.5.1.8.5.35.8-.15.35-.5-.1-.8z" id="bA"/><path fill="#F3C83A" d="M308.05 390.55v.7l5.05-9-.3-.15-4.75 8.45z" id="bB"/><path fill="#FFF" d="M293.1 383.8h.3q.15 0 .15.15v1.8q0 .15.15.15h.15q.15 0 .15-.15v-2q0-.55-.75-.55-.7 0-.7.55v2q0 .15.1.15h.2q.1 0 .1-.15v-1.8q0-.15.15-.15z" id="bC"/><path fill="#FFF" d="M298.15 392.8q0-.1-.15-.1h-.8q-.15 0-.15.15v.85q0 .2.25.2h.8q.35 0 .3-.2l-.25-.9z" id="bD"/><path fill="#FFF" d="M299.65 394.3q-.05-.15-.2-.15h-.65q-.1 0-.1.15l.2 1q0 .1.2.1h.65q.25 0 .1-.25l-.2-.85z" id="bE"/><path fill="#FFF" d="M299.8 392.85l-.1-.1h-.3q-.1 0-.05.2l.3.85q.1.15.2.15h.45q.2 0 .05-.3l-.55-.8z" id="bF"/><path fill="#FFF" d="M302 394.3l-.25-.15h-.8q-.2 0-.05.25l.55.9q.1.15.25.15h1.1q.2 0-.05-.25l-.75-.9z" id="bG"/><path fill="#FFF" d="M300.55 389.9h.95q.15 0 .15-.15v-.55q0-.15-.15-.15h-.95q-.15 0-.15.15v.55q0 .15.15.15z" id="bH"/><path fill="#FFF" d="M301.7 391.3h.6q.15 0 .15-.1v-.6q0-.15-.15-.15h-.6q-.15 0-.15.15v.6q0 .1.15.1z" id="bI"/><path fill="#FFF" d="M302.7 392.95h.7q.15 0 .15-.15v-.5q0-.15-.15-.15h-.7q-.15 0-.15.15v.5q0 .15.15.15z" id="bJ"/><path fill="#FFF" d="M303.35 394.6h.8q.15 0 .15-.15v-.55q0-.15-.15-.15h-.8q-.15 0-.15.15v.55q0 .15.15.15z" id="bK"/><path fill="#FFF" d="M299.7 390.5h.3q.15 0 .15-.1v-.35q0-.15-.15-.15h-.3q-.1 0-.1.15v.35l.1.1z" id="bL"/><path fill="#FFF" d="M299.7 391.35h.3q.15 0 .15-.1v-.35q0-.1-.15-.1h-.3q-.1 0-.1.1v.35l.1.1z" id="bM"/><path fill="#FFF" d="M299.7 392.15h.3q.15 0 .15-.1v-.35q0-.15-.15-.15h-.3q-.1 0-.1.15v.35l.1.1z" id="bN"/><path fill="#FFF" d="M299.7 392.55h.3q.15 0 .15-.1 0-.15-.15-.15h-.3q-.1 0-.1.15l.1.1z" id="bO"/><path fill="#FFF" d="M300.15 388.95q0-.2-.2-.45-.35-.35-.35-.05v1.05q0 .15.1.15h.3q.15 0 .15-.15v-.55z" id="bP"/><path fill="#FFF" d="M301.9 372.65q-.25.15.1.45 1.4 1.2.85 2.95-.05.25.15.3.15.05.2-.2.6-2.25-.8-3.4-.3-.25-.5-.1z" id="bQ"/><path fill="#FFF" d="M301.55 373.3q-.2-.2-.35.05-.1.25.1.4.45.3.6 1.15.15.75-.05 1.5-.1.35.1.4.25 0 .35-.25.4-.95.15-1.9-.25-.9-.9-1.35z" id="bR"/><path fill="#FFF" d="M306.9 383.8h.3q.15 0 .15.15v1.8q0 .15.1.15h.2q.15 0 .15-.15v-2q0-.55-.75-.55t-.75.55v2q0 .15.15.15h.15q.15 0 .15-.15v-1.8q0-.15.15-.15z" id="bS"/><path fill="#FFF" d="M292.35 389.8v.6q0 .15.15.15h.45q.15 0 .15-.15v-.6q0-.15-.15-.15h-.45q-.15 0-.15.15z" id="bT"/><path fill="#FFF" d="M294.15 390.4v-.6q0-.15-.1-.15h-.45q-.15 0-.15.15v.6q0 .15.15.15h.45q.1 0 .1-.15z" id="bU"/><path fill="#FFF" d="M292.35 391v.65q0 .15.15.15h.45q.15 0 .15-.15V391q0-.15-.15-.15h-.45q-.15 0-.15.15z" id="bV"/><path fill="#FFF" d="M294.15 391.65V391q0-.15-.1-.15h-.45q-.15 0-.15.15v.65q0 .15.15.15h.45q.1 0 .1-.15z" id="bW"/><path fill="#FFF" d="M307.95 390.4v-.6q0-.15-.15-.15h-.45q-.15 0-.15.15v.6q0 .15.15.15h.45q.15 0 .15-.15z" id="bX"/><path fill="#FFF" d="M306.15 389.8v.6q0 .15.1.15h.45q.15 0 .15-.15v-.6q0-.15-.15-.15h-.45q-.1 0-.1.15z" id="bY"/><path fill="#FFF" d="M307.95 391.65V391q0-.15-.15-.15h-.45q-.15 0-.15.15v.65q0 .15.15.15h.45q.15 0 .15-.15z" id="bZ"/><path fill="#FFF" d="M306.15 391v.65q0 .15.1.15h.45q.15 0 .15-.15V391q0-.15-.15-.15h-.45q-.1 0-.1.15z" id="ca"/><path fill="#FFF" d="M299.45 388.55q0-.2-.2-.2h-3.45q-.2 0-.2.2v3.85q0 .1.15.1h.85q.15 0 .15-.15v-1.65q0-.4.2-.6l.6-.6q.1 0 .1.15l.45.45q.2.2.2.6v1.65q0 .15.15.15h.85q.15 0 .15-.1v-3.85z" id="cb"/><path fill="#FFF" d="M298 390.65q0-.15-.15-.35-.15-.25-.3-.25-.2 0-.35.25-.15.15-.15.35v1.7q0 .15.2.15h.6q.15 0 .15-.15v-1.7z" id="cc"/><path fill="#FFF" d="M301.25 391.25v-.6q0-.15-.1-.2l-.55-.25q-.25-.1-.25.1v2.05q0 .25.2.4l2.2 1.7q.25.25.25-.1v-.55q0-.25-.15-.35l-.45-.35-.1-.2v-.65q0-.15-.1-.25l-.85-.5q-.1-.05-.1-.25z" id="cd"/><path fill="#FFF" d="M298.3 373.1q.35-.3.15-.45-.2-.15-.55.1-1.4 1.15-.8 3.4.05.25.25.2.15-.05.1-.3-.25-.85 0-1.65.25-.8.85-1.3z" id="ce"/><path fill="#FFF" d="M299.1 373.35q-.15-.25-.35-.05-.65.45-.9 1.35-.25.95.15 1.9.15.25.35.25.2-.05.1-.4-.2-.75-.05-1.5.15-.85.6-1.15.25-.15.1-.4z" id="cf"/><path fill="#F3C83A" d="M292.35 402.4q-.1.1.05.25.45.6 1.05 2.45.5 1.55 1.5 2.35.55.4.1-.3-.6-.85-1.05-2.4-.35-1.35-1.1-2.05-.4-.4-.55-.3z" id="cg"/><path fill="#F3C83A" d="M296.15 407.6q.35.35.45.25.1-.1-.35-.6-.05-.05-.65-1.9-.55-1.65-1.7-2.65-.45-.4-.6-.3-.15.05.3.5.7.7 1.25 2.4.55 1.65 1.3 2.3z" id="ch"/><path fill="#F3C83A" d="M296.8 406.55q-.35-.25-.1.15.1.15.3.5.25.3.5.5.35.25.45.15.1-.1-.05-.35-.1-.1-1.1-.95z" id="ci"/><path fill="#F3C83A" d="M297.95 406.75q-.25-.1-.3 0-.05.1.25.25.2.15.75.65.6.4 1.2.3.8-.05-.25-.65-.65-.35-1.65-.55z" id="cj"/><path fill="#F3C83A" d="M296.3 404.6q-.05.15 0 .3.1.05.3.6.05.15.15.25.15.1.2 0 .25-.2.7-.25.35-.05.35-.3v-.6q0-.35-.4-.4-.7-.1-1.3.4z" id="ck"/><path fill="#F3C83A" d="M299.75 405.8q.05 0 .05-.3l.05-.7q0-.25-.25-.4l-.95-.15q-.3 0-.3.25l.05.7q.1.35.3.35.35.05 1.05.25z" id="cl"/><path fill="#F3C83A" d="M307.9 402.65q.15-.15.05-.25-.15-.1-.55.3-.7.7-1.1 2.05-.45 1.55-1.05 2.4-.45.7.1.3 1-.8 1.5-2.35.6-1.85 1.05-2.45z" id="cm"/><path fill="#F3C83A" d="M303.7 407.85q.1.1.45-.25.8-.65 1.35-2.3.55-1.75 1.2-2.4.45-.45.3-.5-.15-.1-.6.3-1.15 1-1.7 2.65-.6 1.85-.65 1.9-.4.5-.35.6z" id="cn"/><path fill="#F3C83A" d="M303.6 406.7q.25-.4-.1-.15-1 .85-1.1.95-.15.25-.05.35.1.1.45-.15.25-.2.5-.5.2-.35.3-.5z" id="co"/><path fill="#F3C83A" d="M302.65 406.75q-.05-.1-.3 0-1 .2-1.65.55-1 .6-.25.65.65.1 1.2-.3.6-.5.75-.65.3-.15.25-.25z" id="cp"/><path fill="#F3C83A" d="M304 404.9q.1-.15 0-.3-.6-.5-1.3-.4-.4.05-.4.4v.6q0 .25.35.3.45.05.7.25.1.1.2 0t.15-.25q.2-.55.3-.6z" id="cq"/><path fill="#F3C83A" d="M300.5 405.5q0 .3.05.3.5-.05 1.1-.25.15 0 .25-.35l.05-.7q.1-.25-.3-.25l-.95.15q-.25.15-.25.4.1.55.05.7z" id="cr"/><path fill="#F3C83A" d="M296.9 403.1q.05.2.15.2.1-.05.15-.25l-.2-1.65q-.1-.3-.3-.25-.25.1-.15.35l.35 1.6z" id="cs"/><path fill="#F3C83A" d="M299.45 401.25q-.15.1-.5 0-.05-.05-.4.05-.15.05-.55-.05-.15-.1-.2.1-.05.15.1.45.4.8.4 1.4.05.25.15.25.05-.05.1-.2.1-.3 0-.7-.1-.4 0-.65.1-.1.5-.1.45-.05.55-.55.15-.3-.15 0z" id="ct"/><path fill="#F3C83A" d="M302.3 401.3q-.1-.25-.3.05l-.45.7q-.2.25-.3 0-.3-.5-.35-.65-.15-.45-.35-.15-.15.2.05.4.45.45.55 1.4.05.25.15.3.15.05.2-.25.15-.6.65-1.3.2-.3.15-.5z" id="cu"/><path fill="#F3C83A" d="M303.25 403.15q0 .2.1.15.05 0 .1-.2.15-.75-.1-1.75-.1-.3-.3-.2-.2.15-.1.4.3.6.3 1.6z" id="cv"/><path fill="#F3C83A" d="M297.35 367.7q-.1-.1-.1.1.1.3-.3.45-.1.1.05.1.3 0 .4-.25.2.2.95.2 1.15 0 1.15-.3t-.25-.2q-.15.15-.65 0-.15 0-.05-.3.05-.1 0-.15-.05-.05-.1.05l-.15.3q-.1.15.15.25l.45.05q.5 0 0 .1-.6.1-.85-.05-.2-.1-.25-.05-.1.2-.3 0-.15-.05-.15-.3z" id="cw"/><path fill="#F3C83A" d="M300.35 368.05q.05.15.05.05l.05-1.05q0-.25-.1-.3-.2.15-.1.15l.05.2.05.95z" id="cx"/><path fill="#F3C83A" d="M302.45 366.55q-.25-.25-.25 0l-.05 1.2q0 .4-.35.25-.25-.1-.25-.45 0-.25-.15-.1l-.25.35-.05.25q.15.15.3.05h.15q.4.4.65.1.4.25.6-.05.05-.9.1-1.1.05-.15-.05 0l-.15.8q-.05.2-.2.15-.25 0-.25-.3 0-.7.15-.85.15-.15.05-.3z" id="cy"/><path fill="#F3C83A" d="M283.3 364.4q-.1.35.05.45.25.15.3.3.1.2.1-.05-.05-.15.05-.35.15-.2-.1-.45-.25-.15-.4.1z" id="cz"/><path fill="#F3C83A" d="M287.9 361.85q.3-.1-.15-.2-.3 0-.55-.25-.2-.25-.2.15.05.2.1.45l.7.6q.45.4.4.75-.15.65-.55.5-.35-.05-.65-.65-.5-.55-.75-.85-.15-.2-.2-.2 0 .05-.1.25-.05.2.2.45l.5.5q.4.4.4.85-.1.75-.7.75-.6.05-1.25-1.15-.2-.45-.3-.4-.05.05-.1.5-.1.85.15 1.7.25.5-.05.65-.25.15-.65-.25-.3-.3-.1.1 0 .2.5.55.35.2.5-.05.15-.2.1-.45l-.15-1.3q0-.9.3-.25.4.65.95.9.85.3 1.05-.9.05-.45.45-.3.45.1.75-.15.25-.2.05-.9-.2-.65-.65-1.15-.2-.2 0-.25z" id="cA"/><path fill="#F3C83A" d="M284.65 361.7q-.6-1.5-.1 0 0 .35.4.45.35.2.5-.35 0-.1.25-.1t.3-.25q.05-.25-.05-.5-.15-.4-.5-.4-.2-.05-.2.1 0 .1.2.2.55.15.35.5-.05.1-.25.15-.2 0-.3-.1l-.15-.15v.1q0 .25.1.35.1.2-.05.25-.3.2-.5-.25z" id="cB"/><path fill="#F3C83A" d="M284.6 360.35q-.35-.7-.1.05l.15.45q.2.1.1-.05l-.15-.45z" id="cC"/><path fill="#F3C83A" d="M283.1 362.45q-.1.05-.2.25-.2.4.1.5.2.05.05.2-.1.35.05.25.45-.45.6-.5.25-.15.15-.55 0-.4-.3-.4-.35 0-.45-.1-.05-.05-.15-.05-.05 0 0 .1l.15.15q.1.1 0 .15m-.05.5q0-.05.05-.15 0-.05.05-.05.05-.05.1.05.1.15-.1.2-.05.05-.1-.05m.45-.45q.2 0 .15.2-.05.2-.25 0t.1-.2z" id="cD"/><path fill="#F3C83A" d="M286 359.6q0 .4.15-.05.2-.45.6-.95.15-.15.05-.25-.05-.05-.15.05-.45.55-.65 1.2z" id="cE"/><path fill="#F3C83A" d="M288.05 358.4q0-.25-.55-.35-.3 0-.1.3.55.7.6.85.65 1.05 1.15 1.65.7.9.9 1.4.1.2.15.05.05-.15-.05-.35-1.45-2.45-1.85-2.95-.25-.25-.25-.6z" id="cF"/><path fill="#F3C83A" d="M289.75 357.05q-.05-.25-.45-.05-.25.25-.15.55.1.3.05.4l-.25.45q-.05.1 0 .2.05.05.1-.05.3-.6.5-.8.3-.3.2-.7m-.4.25q0-.15.1-.2.05-.05.1 0t0 .1l-.15.3q-.05-.05-.05-.2z" id="cG"/><path fill="#F3C83A" d="M290.55 356.6q-.25.25-.05.65 1.3 2.35 1.6 3.25.45 1.4-.65 2.1-.85.5-1.5.25-.7-.2-.7-1 0-.15-.05-.2-.1-.1-.1.1-.1 1.2.65 1.55.6.25 1.25-.05.65-.2 1.15-.9.65-.85.3-1.8-.85-2.15-1.2-2.75-.3-.55-.2-.7.15-.2.05-.3-.25-.15-.3-.3-.1-.15-.25.1z" id="cH"/><path fill="#F3C83A" d="M296.25 355.25q-.05 0 0 .15.1.5-.15.75-.35.25-.45-.05-.25-.4-.3.05-.05.25-.25.35-.25.1-.45-.1-.2-.45-.25-.6-.1-.35-.2.05 0 .2-.3.6-.35.4-.7.6-.05-.15-.8-.9-.25-.15-.4.1-.25.15-.15.8.05.35.2.45.25.1.95.05.2 1.15-2.45 2.65-.1.1-.1.2 0 .05.15 0 1.25-.7 1.8-1.15.9-.85.9-1.75.85-.45.95-.8.2.25.6.3.5 0 .75-.45.5.4.8-.1.3-.45-.05-1.15-.05-.1-.1-.05m-3.3 1.9h-.55q-.15 0-.25-.3 0-.3.25-.2.45.25.55.5z" id="cI"/><path fill="#F3C83A" d="M293.8 358.8q-.3.3.1.1l1.25-1.1q.15-.15.05-.25-.1-.05-.25.05l-1.15 1.2z" id="cJ"/><path fill="#F3C83A" d="M293.6 360.3q.2.05.05-.3-.15-.05-.15.1-.05.15.1.2z" id="cK"/><path fill="#F3C83A" d="M296.4 358.4q.2 0 .25-.1.05-.05-.05-.15l-.45-.45q-.15-.1-.35.15-.1.15.1.5.25.25.25.7-.2 1.2-2.35 2.8-.15.1-.15.2.05.1.25-.05 1.15-.7 1.95-1.7.7-.9.55-1.9z" id="cL"/><path fill="#F3C83A" d="M297.5 356.45q-.3-.55-.45-.25-.15.25.05.55.2.3.5 1 .3.8.3 1.2.05.45-.3.9-.35.55-1 .7-1.6.55-1.6-1.6 0-.2-.05-.2t-.05.15q-.3 1.55.25 2 .4.35 1.15.2.95-.15 1.45-1.05.2-.3.25-.35.1-.1.25.2.7 1.3 1.25 1.5.55.2.15-.3-.6-.6-.55-1.25.05-.7.85-1.05.45-.2 1.85-.25.3-.1.3-.35.05-.25-.2-.15-.6.25-1.5.05l-1.1-.2q-.5 0-.2-.35.6-.7 1.3-.75 1.05-.1.75-1-.05-.15-.4-.4-.3-.15-.45.25l-.15.75h.15l.25-.4q.1-.1.25-.15.15 0 .15.15 0 .25-.4.35l-.6.15q-1.05.75-1.35 1.2-.4.5.15.65l.8.1q.45.1.15.2-.8.4-.75 1.3 0 .15-.1.1-.1-.05-.2-.3-.15-.3-1.15-3.3z" id="cM"/><path fill="#F3C83A" d="M297.75 361.25q.05-.1-.05-.25-.1-.05-.2.1-.05.15.05.2.1.05.2-.05z" id="cN"/><path fill="#F3C83A" d="M297.95 355.6q-.05.1 0 .1.1 0 .15-.05.8-.4.9-.6.05-.15-.05-.15-.1.05-.2.15-.05.1-.8.55z" id="cO"/><path fill="#F3C83A" d="M299.45 355.55q-.2.2.15.05l.75-.75q.15-.1.2-.3.05-.2-.05-.25-.25-.1-.45.35l-.6.9z" id="cP"/><path fill="#F3C83A" d="M298.2 356.5q-.05-.05-.1 0 0 .1.05.2t.2.05q.1 0 .1-.1.15-.2.2 0 .1.15.25 0l.1-.35q0-.4-.15.05-.05.15-.2.05-.1-.1-.2.1-.05.2-.25 0z" id="cQ"/><path fill="#F3C83A" d="M302.8 356.05q.25.1.35-.15.1-.2-.1-.35-.15-.1-.3.25l-.4.75q-.05.1 0 .1t.1-.1q.15-.05.35-.5z" id="cR"/><path fill="#F3C83A" d="M305.1 356.55q-.05 0-.05.1l-.1.4q0 .25-.2.25-.1 0-.25-.3-.05-.35-.15 0 0 .4-.25.25-.15 0-.15-.35-.05-.2-.15.05 0 .3.1.45.2.3.45.05.15-.15.2-.05.05.15.25.15.15 0 .25-.1.1-.15.1-.75 0-.15-.05-.15z" id="cS"/><path fill="#F3C83A" d="M304.65 355.4q.05-.1-.1-.05l-.05.5q-.05.15.05.15.1.05.1-.15v-.45z" id="cT"/><path fill="#F3C83A" d="M304.55 358.3q-.2.25-.15.45.05.2.05.85 0 .75-.15 1-.3.75-.9.75-.75-.1-.6-1.15l.3-1.4q.05-.2-.05-.25-.1-.05-.3.25-.8 1.6-1.15 2-.4.45-.7.15-.55-.7-.1-1.9.05-.1 0-.1-.65 1.25-.2 2.15.5.75.8.4.6-.7.85-1.3.35-.6.3-.2-.15 1.45.45 1.75.55.2 1-.2.25-.2.3-.2.05-.05.2.1.15.25.5.35.3.1.6-.05.65-.45.55-1.2-.1-.75.2-1.05.15-.25.05-.35l-.5-.5q-.25-.25-.2.05.25 1.65.05 2.15-.15.35-.55.45-.5 0-.45-.5.15-1.2 0-2.25 0-.5-.2-.25z" id="cU"/><path fill="#F3C83A" d="M308.85 356.7q.05-.45-.1-.35-.35.1-.45.55l-1.2 5.6q-.05.2 0 .15.05 0 .15-.15.35-.7 1.6-5.8z" id="cV"/><path fill="#F3C83A" d="M310.75 357.35l-.15.9q0 .05-.4 1.5-.4 1.3-.65 1.8-.8 1.45-2.45.8-.5-.15-.1.1.4.35 1.15.3 1 0 1.65-.9.45-.75 1-2.9.1-.4.3-.4.25.1.15-.2-.05-.65-.2-.95-.05-.2-.2-.2-.15 0-.1.15z" id="cW"/><path fill="#F3C83A" d="M307.65 357.8q-.65-.95-.85-1.6-.15-.35-.45-.35-.3-.05-.3.4.05.65.35.65.3.05.5.35 1.2 1.55 2.3 4.9.1.2.15.1.1-.1 0-.3-.85-2.75-1.7-4.15z" id="cX"/><path fill="#F3C83A" d="M309.2 357.45q-.1.05-.1.1.05.05.2 0l1-.1q.25 0 .15-.15-.05-.1-.4 0l-.85.15z" id="cY"/><path fill="#F3C83A" d="M309.3 358.3q.05-.05.05-.1-.05-.05-.1 0-.25.15-.2.4.05.3.3.2.1-.1.2 0 .25.2.35-.05.05-.05.05-.5-.2-.45-.1.05.1.35-.15.35-.2 0-.1-.25 0-.25-.1.05-.05.2-.2.15-.1 0 0-.3z" id="cZ"/><path fill="#F3C83A" d="M310.65 362.5q-.15.5.15.05l2.1-4.35q.15-.35.1-.4-.05-.05-.35.05t-.45.6q-.5 1.05-1.55 4.05z" id="da"/><path fill="#F3C83A" d="M312.8 360.55q.2-.3-.05-.15-.3.3-.15.6t.4.1q.1-.1.05-.2 0-.1-.1-.05-.15 0-.2-.1-.05-.1.05-.2z" id="db"/><path fill="#F3C83A" d="M311.7 362.2q-.2.05-.1.1.05.05.2 0h1.65q.3.05.3-.05-.05-.15-.3-.2-.4-.05-1.75.15z" id="dc"/><path fill="#F3C83A" d="M309.7 362.65q0-.2-.1-.2t-.05.45q0 1.45 1.7.65.5-.25.6-.15.1.1.15.95.05.8.65.7.5-.1.9-.6 1-1.8 1.4-2.5.45-.95.65-1.1.3-.25.3-.5l.05-.55q.1-.35-.15-.2-.1.05-.35.6l-1.5 2.95q-.45.75-.55.9-.25.4-.6.45-.7.15-.5-1.05.1-.4-.1-.5-.25-.05-1 .25-1.3.5-1.5-.55z" id="dd"/><path fill="#F3C83A" d="M314.45 358.75q-.3-.35-.4.3-.1.55.15.75.1.1.3.2.1.1.25.5.8 3.25.75 3.95 0 1.2.15.45.2-1.05-.3-3.4-.5-2.2-.9-2.75z" id="de"/><path fill="#F3C83A" d="M317.05 360.4q0-.2-.15-.05-.2.2-.3.5l-.6 1.1q-1.3 2.65-1.55 3.25 0 .2.1 0 1.35-2.7 1.75-3.15.55-.55.6-.55.2-.05.15-.3v-.8z" id="df"/><path fill="#F3C83A" d="M313.5 365.6q-.15-.1-.25-.05t.15.2q1.35 1 2.5-.15.25-.25.75-.95t.6-1.05q.25-.8.6-.85.25-.1.25-.5l.05-.7q.1-.05 0-.15-.05-.1-.15-.05-.15.05-.45.75-.65 2.25-1.75 3.25-1.2 1.1-2.3.25z" id="dg"/><path fill="#F3C83A" d="M313.6 366.55q-.1.05-.05.1 0 .05.05.05l1-.05q.2-.05.15-.1-.05-.1-.25-.1l-.9.1z" id="dh"/><path fill="#F3C83A" d="M317.1 423.7l-1.2.2q.45 1.6.75 1.95.7.8 1.75.8l4.6.1q.65 0 1.1-.55.3-.55 1.1-.35.75.2 1.25-.5.7-.9.4-1.55-.15-.3-.4-1l-.85.5q.65.35.65.95 0 .45-.1.6-.35.35-1.45.2-.5-.05-.85.3-.25.35-.85.35h-3.9q-1.1 0-1.45-.65-.45-1.15-.55-1.35z" id="di"/><path fill="#F3C83A" d="M311.85 419.5l-.7.3 2.85.1q.65 0 .4.35-.1.2-.25.3-.05.15-.45.15l-4.8-.05-1.7.6 6.25.2q.55 0 .6.3 0 .15.25.25.2.15.25.35l.8-.05v-2.4l.35-.05q.3.45.3 2.45l1.1.05q.1-.9.05-1.1-.1-.4.3-.6.1-.05.6-.05.1.25.4.85.35.6.45.7l.85-.15q-.4-.45-.45-.9-.15-.3.35-.6.45-.25.75.25l.75 1.2 1.1.15-.8-1.15q-.1-.2-.1-.25 0-.05.25-.25t.45-.1q.1.05.4.3.3.2.6.65.15.25.35.6l1.1-.25-.75-1.1q-.2-.25.15-.4.25-.2.95-.2.35-.05.8.35.45.35.6.8l1.1-.25q-.65-1.05-1.55-1.7-.75-.6-1.65-.15-.55.3-1.4.15-.25-.1-.4-.1-.2-.05-.5.05-.75.35-1.1.2-.7-.3-1.15.05-.35.25-1 0-.3-.15-1.05-.05-.6.05-.3-.4.15-.4-.5-.7-.35-.15-.55-.15-.2.05-.55.35-.3.3-.35.4 0 .1.2.25t.15.3q-.05.15-.25.15-1.75.1-3.55 0z" id="dj"/><path fill="#F3C83A" d="M270.9 373.15q-3 7.4-2.45 15.95.65 9.6 5.8 16.45 4.2 5.5 10.8 8.85 5.9 2.95 14.1 4.3l1-.15q-17.4-2.7-25.3-13-6.25-8.15-6-20.05.25-11.2 5.75-18.55-6.1 7.2-7.2 17.6-1.2 12 5.5 22.45 5.2 8 15.5 12.5l2.45-.05q-12-4.75-17.65-13.3-4.9-7.5-5.4-16.35-.45-8.45 3.1-16.65z" id="dk"/><path fill="#F3C83A" d="M302.7 422.45l-2.55.5q7.35 1.35 15.8 1.05l2.2-.2q.75-.05 1.15-.4.15-.15.3-.15.05.05.35.25.25.2.75.15.45 0 .75-.15.5-.2.95 0 .55.3 1.25 0 .4-.25 1.1.05.85.4 2.2-.9.6-.6.65-.95.05-.25-.25-.85l-1.1.25q.25.8-.55 1.25-.55.4-.75.05l-.45-.75-1.1.25q.2.35.15.45 0 .05-.2.15-.35.2-.65.1-.2 0-.45-.5l-1.1-.15q.25.3-.25.55-.45.3-.8-.05l-.35-.45-.85.15q.25.15-.05.4-.3.15-1.3.15-.35 0-.4-.1-.05 0-.05-.25l-1.1-.05v.4h-.65v-.4l-.8.05q.15.35-.25.35-5.6.5-11.6-.25z" id="dl"/><path fill="#F3C83A" d="M283.65 425.85q.3-.35.75-1.95l-1.2-.2q-.1.2-.55 1.35-.3.65-1.4.65h-3.95q-.6 0-.85-.35-.35-.35-.85-.3-1.1.15-1.4-.2-.15-.15-.15-.6 0-.6.65-.95l-.85-.5-.35 1q-.35.6.35 1.55.55.7 1.25.5.8-.2 1.1.35.45.55 1.1.55l4.6-.1q1.05 0 1.75-.8z" id="dm"/><path fill="#F3C83A" d="M325.7 366.95q5.55 7.35 5.75 18.55.25 11.9-6 20.05-6.15 8.1-18.2 11.5-9.25 2.6-22.35 2.45-.2 0-.25-.15-.05-.15.15-.3t.2-.25q-.05-.1-.35-.4-.35-.3-.55-.35-.15 0-.5.15-.7.3-.55.7.3.45-.3.4-.75-.1-1.05.05-.6.25-1 0-.45-.35-1.15-.05-.35.15-1.1-.2-.3-.1-.5-.05-.25.1-.4.1-.8.15-1.4-.15-.85-.45-1.65.15-.9.65-1.55 1.7-.3.6-.25.85.05.35.65.95 1.35 1.3 2.2.9.75-.3 1.1-.05.7.3 1.25 0 .5-.2.95 0 .3.15.75.15.5.05.75-.15.3-.2.35-.25.15 0 .3.15.45.35 1.15.4l2.2.2q14.8.55 26.1-3.9 11.35-4.45 16.95-13.1 6.7-10.45 5.5-22.45-1.1-10.4-7.2-17.6m3.7 6.2q3.6 8.2 3.1 16.65-.5 8.85-5.4 16.35-5.6 8.6-17.6 13.25-11.5 4.4-23.5 3.3-.4 0-.25-.35.05-.2.25-.35.25-.1.25-.25.05-.2.15-.25.1-.05.5-.05 7.45-.15 11.7-.7 5.35-.65 9.25-2.25-7.15 2.35-21.25 2.2-.35 0-.45-.15-.15-.1-.25-.3-.25-.35.4-.35 13.95-.25 22.9-3.05 10.95-3.45 16.85-11.3 5.15-6.85 5.8-16.45.6-8.55-2.45-15.95m-44.8 46.7l.35.05v2.8h-.6l-.05-.4q0-2 .3-2.45m-6.75.8q.3-.25.4-.3.2-.1.45.1t.25.25q0 .05-.1.25l-.75 1.15q-.35.5-.5.5-.3.1-.6-.1-.2-.1-.25-.15-.05-.1.15-.45.9-1.25.95-1.25m-3.2-.35q.45-.4.8-.35.7 0 .95.2.4.15.15.4l-.75 1.1q-.15.45-.4.75-.25.35-.8-.05-.8-.45-.55-1.25.15-.45.6-.8m7.6.3q.55 0 .6.05.4.2.3.6-.05.2.05 1.1 0 .25-.05.25-.05.1-.35.1-1.05 0-1.35-.15-.25-.25-.05-.4.1-.1.45-.7t.4-.85m-2.85 1.9q-.5-.25-.25-.55l.75-1.2q.3-.5.75-.25t.4.6q-.15.45-.5.9l-.35.45q-.35.35-.8.05z" id="dn"/><path fill="#F3C83A" d="M299 364.9q0-.15-.05.05 0 .15-.15.15t-.15-.1l-.05-.35q-.1-.3-.1.05l.05.3q-.05.1-.15.1-.15.1-.15-.1-.1-.4-.1 0 0 .15-.15.15l-.15-.05-.1-.35q-.05-.1-.05 0l.05.35q0 .1-.15.1t-.15-.1q-.1-.5-.1.05 0 .05-.1.15-.15 0-.15-.05l-.1-.35q-.1-.3-.1 0l.1.6q0 .1.1.05 1.4-.25 3.05-.25t3.05.25q.1.05.1-.05l.1-.6q0-.3-.1 0l-.1.35q0 .05-.15.05-.1-.1-.1-.15 0-.55-.1-.05 0 .1-.15.1t-.15-.1l.05-.35q0-.1-.05 0l-.1.35-.15.05q-.15 0-.15-.15.05-.2 0-.15-.05 0-.05.15-.1.15-.2.1-.1 0-.1-.1v-.3q0-.35-.1-.05l-.05.35q0 .1-.15.1-.1 0-.1-.15t-.05-.15q-.05 0-.05.1 0 .15-.15.15t-.15-.1v-.35q-.1-.1-.1 0l-.05.35q0 .1-.1.1-.15 0-.15-.15 0-.4-.1 0 0 .15-.15.15t-.15-.15v-.3q-.05-.15-.1 0v.3q0 .15-.15.15t-.15-.15l-.05-.15-.05.15q0 .15-.15.15-.1 0-.1-.1l-.05-.35v-.05q-.05 0-.05.05l-.05.35q0 .1-.15.1t-.15-.15z" id="do"/><path fill="#F3C83A" d="M321.05 402.25q-.35-.1-4-1.55-2.3-.9-4.1-.35-1.75.55-2.5 2.25 1.2-.7 2.85-.05.25.05 2.7 1.4 2.1 1.15 4.1 1.25 1.6.1 2.4-.5 1.15-.85 1.95-2.35-1.45.45-3.4-.1z" id="dp"/><path fill="#F3C83A" d="M322.05 405.35q-1.35.25-2.55.5-1.05.2-.8.75.2.5.95.1 2.05-1.2 2.4-1.35z" id="dq"/><path fill="#F3C83A" d="M318.65 407.85q1.1-.25 1.8-.7-1.35.5-2.65.15-.95-.25-1.1.1-.15.4.45.55.5.1 1.5-.1z" id="dr"/><path fill="#F3C83A" d="M318.9 408.3q-.55.1-1.4.05-.9-.1-1.45-.3-.6-.25-.8.05-.2.25.35.45 1.05.35 3.3-.25z" id="ds"/><path fill="#F3C83A" d="M316.75 405.4q-.35.5-1.5 1.6-.4.5 0 .7.45.25.7-.4l.8-1.9z" id="dt"/><path fill="#F3C83A" d="M315.6 405.45q-1 1.25-1.85 2.1-.5.55-.1.8.35.25.9-.55.65-1.7 1.05-2.35z" id="du"/><path fill="#F3C83A" d="M315.9 409.4q1-.1 1.7-.3-.5.1-1.35 0-1-.1-1.4-.35-.55-.3-.85.05-.3.3.25.55.45.2 1.65.05z" id="dv"/><path fill="#F3C83A" d="M314.55 405.45q-2 2-2.65 2.5-.85.65-.4 1 .45.4 1.05-.5 1.45-2.3 2-3z" id="dw"/><path fill="#F3C83A" d="M310.55 407.4q.85 0 2.65-1.25-1.05.5-2.45.4-.55-.05-.7.4-.2.4.5.45z" id="dx"/><path fill="#F3C83A" d="M314.05 405q-1.45.1-2.35.2-.65.05-.7.45-.05.35.55.35.75.05 2.5-1z" id="dy"/><path fill="#F3C83A" d="M310.95 402.65q-1.05 1.6-.6 2.65.2.55.5.3.25-.25.1-.7-.3-1.2 0-2.25z" id="dz"/><path fill="#F3C83A" d="M318.55 404.8q-.45.3-1.55 1.35-.5.45-.15.65.4.15.7-.2.7-1.4 1-1.8z" id="dA"/><path fill="#F3C83A" d="M312.9 404.65q1.3-.25 1.8-1.3-.5.45-1.3.45-.8.05-1 .15-.35.25-.25.5.1.3.75.2z" id="dB"/><path fill="#F3C83A" d="M315.75 397.6q-.45 1.5.05 1.95.35.35.55.15.2-.25 0-.6-.65-1.15-.6-1.5z" id="dC"/><path fill="#F3C83A" d="M314.9 398.5q-.35.85-.15 1.15.15.25.35.15.2-.1.2-.4 0-.15-.2-.45-.2-.35-.2-.45z" id="dD"/><path fill="#F3C83A" d="M316.45 396.1q-.25.95-.25 1-.05.65.25 1.05.35.5.6.25t0-.6q-.6-.65-.6-1.7z" id="dE"/><path fill="#F3C83A" d="M319.3 397.85q-.55.5-1.15.85l-1.05.45q-.5.25-.45.6.1.35.6.2.9-.25 2.05-2.1z" id="dF"/><path fill="#F3C83A" d="M321.1 392.85q-.6 1.1-1.15 1.35-.45.2-.4.55.05.3.45.1.8-.35 1.1-2z" id="dG"/><path fill="#F3C83A" d="M318.55 396.05q-.65.4-.45.9.2.45.9-.3 1.89-2.083 2.55-2.7-.9.781-3 2.1z" id="dH"/><path fill="#F3C83A" d="M321.75 397.4q-.15.65-.8 2.1-.45.95-.25 1.4.25.65.7.55.4-.15.2-.95-.2-1 .15-3.1z" id="dI"/><path fill="#F3C83A" d="M322.5 397.05q-.1.35-.4 1.35-.2.85.15 1 .35.2.65-.4.4-.9-.3-3.1.05.55-.1 1.15z" id="dJ"/><path fill="#F3C83A" d="M323.2 396.25q0 .9.2 1.25.35.6.6.2.3-.45-.05-.85-.7-.85-.7-2.1-.1.6-.05 1.5z" id="dK"/><path fill="#F3C83A" d="M319.25 396.85q-.15.15-.85.5-.6.3-.75.6-.2.4 0 .55.2.1.5-.05.35-.2 1.15-1.1.9-.95 1.4-1.7-1 .75-1.45 1.2z" id="dL"/><path fill="#F3C83A" d="M323.05 401.65q-.5.35.1.35.15 0 .7-.45.65-.45.95-.55-.9 0-1.75.65z" id="dM"/><path fill="#F3C83A" d="M322 400.85q-.6.1-.6.55 0 .45.7.35.65-.05 1.7-.85.864-.672 1.35-1.25-.592.67-3.15 1.2z" id="dN"/><path fill="#F3C83A" d="M323.5 399.2q-.75.2-.6.55.15.35.65.2 1.15-.5 2.95-2.15-1.35.85-3 1.4z" id="dO"/><path fill="#F3C83A" d="M327.55 396.15l-2.7 1.5q-.75.4-.4.7.4.3.8-.15 1.3-1.3 2.3-2.05z" id="dP"/><path fill="#F3C83A" d="M325.2 396.4q-.75.4-.45.75.35.35.7-.1.65-.7 2.15-1.95l-2.4 1.3z" id="dQ"/><path fill="#F3C83A" d="M327.75 394q-.8.6-1.75.9-.9.3-1.25.55-.55.4-.45.6.05.15.55.05.35-.1 1.45-.9 1.15-.95 1.45-1.2z" id="dR"/><path fill="#F3C83A" d="M328.15 392.75q-.65.45-2.4 1.25-.7.35-.4.7.25.35.75-.2l2.05-1.75z" id="dS"/><path fill="#F3C83A" d="M329.1 390.4q-1.25 1.35-2.55 2-.45.3-.35.6.15.3.6.1.95-.5 2.3-2.7z" id="dT"/><path fill="#F3C83A" d="M324.15 395.5q.25-.25.15-.75-.35-1.55-.3-2.05-.6 2-.3 2.6.2.45.45.2z" id="dU"/><path fill="#F3C83A" d="M324.85 391.9q.05.65-.35 2-.15.4.15.45.3.05.35-.25.1-.3.05-1-.05-.8-.2-1.2z" id="dV"/><path fill="#F3C83A" d="M325.85 390.85l-.3 1.3q-.1.5.2.6.3.1.4-.15.1-.75-.3-1.75z" id="dW"/><path fill="#F3C83A" d="M325.75 391.7q1.75-.55 2.5-1.9.15-.2.95-2.5.1-.3.1-.45 0-.2-.2 0-1.6 1.6-3.85 2.25-1.05.25-4.1.6-1.8.15-2.65 1.15-.5.55-.8 1.6-.05.3-.7 2.2-.5 1.5.2 2.2.4.4.5-.25.1-.3-.5-1.6-.2-.6 1.45-1.4.65-.3 3-.85 2.95-.7 4.1-1.05z" id="dX"/><path fill="#F3C83A" d="M319.25 393.25q-.15.55-1.15 1.55-.35.4-.15.65.2.25.65-.05.8-.5.65-2.15z" id="dY"/><path fill="#F3C83A" d="M318.9 409.2q-.95.6-2.4.9-1.7.35-2.05.5-.85.4-.9.65 0 .3.85.25.8-.05 2.2-.8 1.3-.7 2.3-1.5z" id="dZ"/><path fill="#F3C83A" d="M311.6 409.4l1 .85q.55-.2 1.45-.25.85-.1 1.15-.2-.4 0-1.85-.45-1.1-.4-1.75.05z" id="ea"/><path fill="#F3C83A" d="M309.8 407.75l.7.7q.55-.25 1.4-.85-.35.15-.95.15h-1.15z" id="eb"/><path fill="#F3C83A" d="M308.9 407.05q.3.1.45.35.4-.05.55-.4.15-.3 0-.7-.2-1-.15-1.55.05-.4.05-.5 0-.15-.2.15-.7 1.55-.7 2.35v.3z" id="ec"/><path fill="#F3C83A" d="M308.3 407.15l.4-.1q-.35-.35-.15-.65.25-.25.5.15l.1-.4q-.35-.25-.5-.45-.25-.25-.4.1-.25.7.05 1.35z" id="ed"/><path fill="#F3C83A" d="M313.85 401.85q-1.1.25-1.15.85-.1 1.1.45.65.5-.35.7-1.5z" id="ee"/><path fill="#F3C83A" d="M312 402q-.8 1.5-.5 2.05.3.7.55-.1.1-.25-.05-1.95z" id="ef"/><path fill="#F3C83A" d="M328.6 385q-.6.95-2.15 2.5-.6.65 0 .75.6.15.75-.35 1.15-2.35 1.4-2.9z" id="eg"/><path fill="#F3C83A" d="M325 385.7q.1.35.05 1.15.05.7.45.95.45.3.6.05.1-.3-.15-.6-.4-.5-.95-1.55z" id="eh"/><path fill="#F3C83A" d="M323.1 388.85q0 .35.35.35.3-.05.45-.45.35-.85.8-1.5-1.5.8-1.6 1.6z" id="ei"/><path fill="#F3C83A" d="M321.65 387.3q-.2 1.65.55 2 .5.2.6-.15.05-.35-.2-.6-.4-.35-.6-.6-.35-.35-.35-.65z" id="ej"/><path fill="#F3C83A" d="M319.6 387.65q-.1-.2-.2-.15-.1.05 0 .25.55 1.65.8 1.85.7.55.6-.3-.1-.5-.55-.9-.55-.5-.65-.75z" id="ek"/><path fill="#F3C83A" d="M321.95 385.65q0 1.5.4 1.8.3.2.45.05.2-.2.1-.55-.7-.9-.95-1.3z" id="el"/><path fill="#F3C83A" d="M322.05 383.7q.15.4.4 1.75.05.45.3.45.3.05.3-.45-.05-.8-1-1.75z" id="em"/><path fill="#F3C83A" d="M323.35 387.15q-.2.7.3.4.5-.3 1-1.8-1.2 1.1-1.3 1.4z" id="en"/><path fill="#F3C83A" d="M323.85 384.75q-.4.65-.45.95-.05.85.5.3.65-.75.55-2.35-.05.1-.6 1.1z" id="eo"/><path fill="#F3C83A" d="M323.35 381.35q-.05.4-.3 1.35-.15.85 0 1.25.4.9.6-.1.25-.75-.3-2.5z" id="ep"/><path fill="#F3C83A" d="M325.5 380.4q-.15 1.75.2 2.1.35.4.65.2.3-.25-.05-.75-.75-1.35-.8-1.55z" id="eq"/><path fill="#F3C83A" d="M325.25 382.4q.15 1.55.6 1.95.5.5.5-.2-.05-.45-1.1-1.75z" id="er"/><path fill="#F3C83A" d="M329.35 384.65q.1-.6-.1 0l-.75 1.75q-.1.2-.05.25.05.05.15-.15.65-1.05.75-1.85z" id="es"/><path fill="#F3C83A" d="M329.05 382.9q-.45.8-1.15 1.65-.4.45-1.05 1.15-.35.45-.2.65.15.2.65-.15.4-.3 1-1.55l.75-1.75z" id="et"/><path fill="#F3C83A" d="M325.2 383.95q0 1.8.6 2.2.3.25.4-.1.1-.35-.15-.6-.55-.55-.85-1.5z" id="eu"/><path fill="#F3C83A" d="M329.05 381.05q.1-.1.05-.15-.05 0-.15.1-.6 1.1-1.75 2.4-.9 1.05-.35 1.3.5.3.9-.95.3-.9 1.3-2.7z" id="ev"/><path fill="#F3C83A" d="M328.8 379.35q0-.45-.1-.05-.3 1-.85 1.55-.65.7-.85 1.05-.55 1-.05.95.55-.05.85-.8.4-.9.6-1.3.3-.7.4-1.4z" id="ew"/><path fill="#F3C83A" d="M328.4 377.9q.05-.2-.05-.1-.1.05-.15.2-.25.95-.95 1.75-.25.25-.35.8-.15.5.05.6.2.1.5-.35.35-.4.45-.95.45-1.85.5-1.95z" id="ex"/><path fill="#F3C83A" d="M326.9 376.75q-.1-.8-.2.05 0 .95-.2 1.5-.15.35-.1.75.1.4.35.4.3 0 .4-.4.1-.4 0-.75l-.25-1.55z" id="ey"/><path fill="#F3C83A" d="M325.55 379.1q.3.55.4 1.5.05.4.35.4.25 0 .2-.35 0-.4-.95-1.55z" id="ez"/><path fill="#F3C83A" d="M325.45 379.45q.6-.7-.05-.45-.9.35-1.8.25-.4-1.05-.4-1.7-.05-.45-.1-.5-.1-.15-.35.25-1.3 2.05-3 5.65-.5 1.2-.4 2.35.1 1.1.85 2.65.25.55.25-.2.1-1.3 1.65-3.7.9-1.4 3.35-4.6z" id="eA"/><path fill="#F3C83A" d="M317.7 376.75q-.25-.1-.25-.05-.05.1.15.25.4.25.7 2 .15 1 .85 1.6.55.55.6.3 0-.4-.3-.65-.6-.5-1-1.85t-.75-1.6z" id="eB"/><path fill="#F3C83A" d="M318.45 376.85q-.1.05.05.2.95 1.05 1.3 2.15.3 1.05.35 1.1.25.3.4.2.15-.15-.15-.75-.25-.9-.4-1.35-.3-.7-1.3-1.45-.15-.1-.25-.1z" id="eC"/><path fill="#F3C83A" d="M321.25 375.2q.25-.6-.15-.2-.25.2-.65 1.2-.1.25-.25.25t-.15-.5q-.05-.75-.65-1.35-.45-.45-.45 0-.1.75.25 1.3.25.4-.25.15-.25-.1-.65-.4-.45-.4-.55-.6-.3-.55-.2.1.1.75 1.85 1.85 1.5.95 1.9 3.2l.3-.45q-1-2.6-.35-4.55z" id="eD"/><path fill="#F3C83A" d="M326.3 373.1q.05-.2-.05-.25-.1 0-.15.2-.2.6-.05 1.3.15.85.1 1.15-.1.35 0 .4.05.05.15-.15.25-.55 0-1.3-.2-.8 0-1.35z" id="eE"/><path fill="#F3C83A" d="M325 378.15q-.05-.7.65-2.65-.8-1.65-.5-4.25-.6 1.4.15 4.3-.7 1.1-.6 2.65 0 .3.3-.05z" id="eF"/><path fill="#F3C83A" d="M323.25 376.25q.6.4.5-.05-.1-1-.65-1.45-.5-.5-.45.15 0 .75.6 1.35z" id="eG"/><path fill="#F3C83A" d="M324.15 374.35q-.15-.35-.15-1.1.05-.7.15-1.15-.4-1.5-.15-2.55-.5 1.2-.1 2.55-.4 1.9.05 2.4.5.55.2-.15z" id="eH"/><path fill="#F3C83A" d="M323.3 368.5q0-.6-.2.7-.15 1.9-.45 2.8-.3 1.1-.3 1.35-.1.65.25.7.45.1.6-.65.15-.65 0-1.2-.1-.3 0-1.6.1-1.75.1-2.1z" id="eI"/><path fill="#F3C83A" d="M322.45 367.45q.05-.35-.05-.3-.1.05-.15.45-.1 1.15-.5 2.9-.45 1.85.15 1.85.3.05.45-.6.1-.55.05-1.1-.15-1.9.05-3.2z" id="eJ"/><path fill="#F3C83A" d="M320.15 372.65q.65 1.15 1.5 1.4.5.2.55-.05.1-.2-.2-.6-.2-.25-.95-.45-.75-.15-.9-.3z" id="eK"/><path fill="#F3C83A" d="M319.2 370.95q.8 1.2 1.35 1.4.5.15.65-.1.15-.2-.15-.55-.15-.25-.85-.35-.8-.2-1-.4z" id="eL"/><path fill="#F3C83A" d="M318.8 371.1q.15.9-.35 2.05-.2.5.05.75t.55-.05q.3-.25.2-1.1-.05-.8-.45-1.65z" id="eM"/><path fill="#F3C83A" d="M316.1 372.2q.75 1.75 1.6 2 .7.2.65-.2-.05-.4-.45-.6-1.05-.35-1.8-1.2z" id="eN"/><path fill="#F3C83A" d="M315.15 370.6q.9 1.45 1.75 1.7.5.15.55-.2 0-.35-.4-.45-1.2-.35-1.9-1.05z" id="eO"/><path fill="#F3C83A" d="M317.8 369.45q.1.45 0 1.2-.05.45-.15 1.1-.05.4.3.5.4.1.45-.35.2-1.1-.6-2.45z" id="eP"/><path fill="#F3C83A" d="M318.5 369.3q.65 1.05 1.1 1.3.5.25.75.15.3-.15-.05-.55-.25-.3-.9-.5-.7-.2-.9-.4z" id="eQ"/><path fill="#F3C83A" d="M321.35 366.3q.1-.25-.05-.25-.1.05-.15.3-.05.3-.4 3.05-.4 1.5.25 1.5.3 0 .45-.8.1-.8-.05-1.4-.35-1.3-.05-2.4z" id="eR"/><path fill="#F3C83A" d="M320.15 364.4q0-.25-.1-.2-.1.05-.05.3 0 2.05-.15 2.8-.1.55 0 1.05.1.55.4.55.45-.05.2-1.55-.3-1.1-.3-2.95z" id="eS"/><path fill="#F3C83A" d="M318.2 365.05q-.05 1.2.3 2.1.15.5.55.5.35 0 .35-.55 0-.4-.5-1-.6-.65-.7-1.05z" id="eT"/><path fill="#F3C83A" d="M317.05 366.45q.15.6.6 1.4.6.9 1.2 1.2.7.35.8-.05.15-.4-.4-.7-1.9-.9-2.2-1.85z" id="eU"/><path fill="#F3C83A" d="M316.65 367.6q-.35 1.3-.1 2.4.15.6.4.6t.35-.45q.1-.45-.05-1.15-.15-.8-.6-1.4z" id="eV"/><path fill="#F3C83A" d="M314.4 367q.25 1.35.8 1.7.6.45.6-.1-.1-.85-1.4-1.6z" id="eW"/><path fill="#F3C83A" d="M313.8 368.45q.6 1.2 1.55 1.9.85.7 1.15.35.2-.2-.05-.6-.3-.35-.7-.45-1.05-.3-1.95-1.2z" id="eX"/><path fill="#F3C83A" d="M321.2 395.45l.15-.3q-.05 0-.2.25-.5 1-1.2 1.6-.7.65-1.05 1.7-.35.9-.25 1.65 0 .35.2.25.15-.15.2-.45.1-1.25.9-2.7.5-.65.5-.05-.15 1-.45 1.5-.2.3-.1.35.15.1.35-.15.35-.4.45-1.9.05-.75.5-1.75z" id="eY"/><path fill="#F3C83A" d="M309.4 407.25q-.6-.5-1.4-.2-4.3 1.65-7.85 1.65t-7.85-1.65q-.8-.3-1.4.2-1.1.85-4.4 4-1 .95.25 1.75 1.2.8 3.8 1.15-.05.8-.5 1.5-.15.25-.05.3.15.1.4-.05.8-.6 2.1-.5.9.05 2.7.65.75.2 1.05-.05.2-.15.3-.6 0-.05.5-.9l3.1.2 3.1-.2q.5.85.5.9.25 1 1.35.65 2.1-.6 2.8-.65 1.2-.1 2 .5.25.15.4.05.15-.05-.05-.3-.3-.5-.5-1.5 2.6-.35 3.8-1.15 1.25-.8.25-1.75-3.3-3.15-4.4-4m-.55-.05q.2.05.7.55 2.35 2.15 3.3 2.95.4.35.35.55-.05.15-.6.4-5.75 2.7-12.45 2.7-6.7 0-12.45-2.7-.55-.2-.55-.4-.05-.2.3-.55.95-.8 3.3-2.95.5-.5.7-.55.2-.05.7.2 4.5 1.65 8 1.65t8-1.65q.5-.25.7-.2m.6 7q.1 0 .1.05v.15q0 .35.15.6.15.35-.45.15-.8-.25-2 0-1.35.45-2 .6-1.45-.2-.6-.95.55-.55 1.8-.55.65.05 3-.05m-18.7.05q0-.05.1-.05.7 0 3 .05 1.25 0 1.8.55.45.4.4.75-.1.4-1 .2-2.85-.95-4-.6-.65.25-.4-.15.1-.25.1-.6v-.15z" id="eZ"/><path fill="#F3C83A" d="M293.1 408.6q-.1-.1-.25-.1l-.3.15-.15-.25q0-.05-.3-.05-.2 0-.15.25 0 .35.3.3.3-.1.45.05.1.2.35.05.25-.1.05-.4z" id="fa"/><path fill="#F3C83A" d="M290.75 409q-.15-.15-.05.2.6.9 2.5.9l.4.35q.3.2.55 0 .3-.2.3-.95.1-.4.15-.45.1-.05 0-.4 0-.15-.25.1-.15.15-.05.25.05.1.05.3 0 .45-.35.8-.1.1-.3 0-.15 0-.35-.3 0-.05-.45-.05-.85.05-1.25-.15-.25-.1-.9-.6z" id="fb"/><path fill="#F3C83A" d="M291.1 411.45l.1-.05q.2-.15.3-.5.05-.25-.2-.55-.1-.25-.3-.05l-.25.3q-.15.15 0 .35.087.13.25.2-.176.194-.4.25-.7.1-1.25-.45-.45-.3-.05.1.55.55 1.1.55.55.1.7-.15m.15-.6q-.057.102-.15.15l-.1-.05q-.1-.1 0-.25.1-.1.15-.05l.1.2z" id="fc"/><path fill="#F3C83A" d="M291.45 411.6q-.45-.3-.05.1.6.5 1.2.35.6-.1.4-.75l-.15-.55q-.05-.25-.25-.05-.1.05.05.45.4.6-.15.75-.6.05-1.05-.3z" id="fd"/><path fill="#F3C83A" d="M296 411q-.15-.15-.25-.05l-.25.25q-.25.25.05.05.25-.1.25.1.05.2-.1.2l-.45.35q-.4.2-.05.65.25.3-.2.45-.6.1-1.15-.4-.4-.35 0-.9.05-.05.05-.15 0-.05-.15.1-.8.95.6 1.6.9.35 1.3-.15.25-.45-.05-.75-.2-.2-.05-.4.1-.15.65-.15.25-.05.1-.25-.05-.15-.3-.55z" id="fe"/><path fill="#F3C83A" d="M299.55 412.85q-.3-.15-.4-.1-.4.25-.65.05-.3-.3-.3-1l-.1-1.85q0-.15-.05-.15-.05-.05-.1.15l-.05 1.85q0 .55-.25.1-.95-1.8-1.55-2.4-.15-.15-.25-.15-.2 0-.15.25 0 .35.4.55.6.35.7.55.15.3.85 1.6.1.55-.9.85-.55.2.05.1.8-.25.95-.6.2-.2.25 0 .15.4.3.4l.3.05q.1.05.3 0 .2-.05.5 0 .2.05.9.05.35-.1.25-.65-.1-.7-.1-.05 0 .35-.2.4-.45.1-.7 0z" id="ff"/><path fill="#F3C83A" d="M301.15 413.05q.05 0 .05-.1-.25-1.4-.15-2.4 0-.35-.15-.5-.3-.3-.25.15l.4 2.65q.05.2.1.2z" id="fg"/><path fill="#F3C83A" d="M303.75 412.9l.25-.1q.15.1.4-.05h.35q.2 0 .35-.3.1-.3-.2-.8-.5-.75-.1.05l.1.45q.1.3-.25.3-.25-.1-.25 0-.1.1-.25.05-.05-.05-.35.1-.05.05-.25-.05-.15-.1-.3.05-.25.15-.35 0-.2-.15-.35.1-.1.1-.25.1-.3-.15-.4-.4l-.45-2.2q-.05-.25-.1-.15t-.05.3l.35 2.05q.1.55.55.7.5.05.85-.1.2-.1.35-.05l.35-.05z" id="fh"/><path fill="#F3C83A" d="M302.5 409.65q0-.3-.15-.15l-.4.1-.1.2q.05.05.15.05l.4-.05q.2 0 .1-.15z" id="fi"/><path fill="#F3C83A" d="M303.35 409.95q-.1-.15-.3-.1-.15.05-.05.2.05.15.25.1.15-.1.1-.2z" id="fj"/><path fill="#F3C83A" d="M304.05 410.5q.2.35.1.7t-.55.4q-.55.1-.85-.15-.3-.2-.25-.6 0-.1-.05-.15-.05-.05-.1.2-.05.6.45.85.45.2.85.05.7-.25.7-.75 0-.4-.3-.7-.5-.6 0 .15z" id="fk"/><path fill="#F3C83A" d="M304.85 411q0-.1-.1-.2-.1-.05-.1.1-.05.15.05.2.1.05.15-.1z" id="fl"/><path fill="#F3C83A" d="M306.4 410q.05-.15-.15-.2-.15-.05-.2.1-.05.15.15.2.15.05.2-.1z" id="fm"/><path fill="#F3C83A" d="M306.95 411.1q-.2-.05-.45.2-.3.3-.15.4.2.2 0 .4-.25.25-.5-.15l-1.05-2.35q-.05-.25-.2-.25-.15 0-.05.25.2.3.55 1.35.3 1.1.8 1.4.45.25.75-.1.25-.35.6-.25.2.15.5.1.35-.05.45-.3.25-.5-.2-1-.3-.4-.45-.05l-.1.45q0 .1.3.1.15.05.2.15.05.15-.1.25-.15.15-.4.1-.3-.05-.3-.25.1-.45-.2-.45z" id="fn"/><path fill="#F3C83A" d="M307.4 409.6q.05-.1-.05-.2-.15-.05-.2.05 0 .15.1.2.1.05.15-.05z" id="fo"/><path fill="#F3C83A" d="M309.15 410.45q.1.05.05-.15-.1-.4-.95-1.8l-.2-.2-.1.1q-.2.15.05.35.7.7 1 1.55.05.15.15.15z" id="fp"/><path fill="#F3C83A" d="M310.05 409.8q-.25-.15-.35-.05l-.15.35q0 .1.25.1.2 0 .45.15.3.15.25.35 0 .4-.9.55-.35.05-.25.3.1.25.45.15 1-.3 1-.9 0-.5-.75-1z" id="fq"/><path id="aP" stroke="#F3C83A" stroke-width=".1" stroke-linejoin="miter" stroke-linecap="butt" stroke-miterlimit="4" fill="none" d="M88.41 46.14q-.138.474-.971 1.312-.833.874-.972 1.202-.313.766-.347 1.895 0 1.094-.14 1.385.348.255.522.474.173-.4.243-1.421.104-1.094.45-1.895.14-.292.834-1.02.66-.693.798-1.167l-.416-.765z"/><path id="aR" stroke="#F3C83A" stroke-width=".1" stroke-linejoin="miter" stroke-linecap="butt" stroke-miterlimit="4" fill="none" d="M89.383 47.816l-.556-.91q-.139.473-.798 1.165-.694.73-.833 1.02-.347.802-.451 1.896-.07 1.02-.243 1.421.138.11.486.583.486-1.02.694-2.587.139-.984.833-1.567.312-.255.451-.438.278-.255.417-.583z"/><path id="aT" stroke="#F3C83A" stroke-width=".1" stroke-linejoin="miter" stroke-linecap="butt" stroke-miterlimit="4" fill="none" d="M89.383 47.816q-.14.328-.417.583-.139.183-.451.438-.694.583-.833 1.567-.208 1.567-.694 2.587.381.474.52.729.59-1.203.764-2.988.104-.948.694-1.312.59-.255.799-.73l-.382-.874z"/><path id="aV" stroke="#F3C83A" stroke-width=".1" stroke-linejoin="miter" stroke-linecap="butt" stroke-miterlimit="4" fill="none" d="M106.253 46.14q.14.474.972 1.312.833.874.972 1.202.313.766.347 1.895 0 1.094.14 1.385-.452.365-.522.474-.173-.4-.243-1.421-.104-1.094-.45-1.895-.14-.292-.834-1.02-.66-.693-.798-1.167l.416-.765z"/><path id="aX" stroke="#F3C83A" stroke-width=".1" stroke-linejoin="miter" stroke-linecap="butt" stroke-miterlimit="4" fill="none" d="M105.281 47.816l.556-.91q.139.473.798 1.165.694.73.833 1.02.347.802.451 1.896.07 1.02.243 1.421-.138.11-.485.583-.486-1.02-.695-2.587-.139-.984-.833-1.567-.278-.255-.451-.438-.278-.255-.417-.583z"/><path id="aZ" stroke="#F3C83A" stroke-width=".1" stroke-linejoin="miter" stroke-linecap="butt" stroke-miterlimit="4" fill="none" d="M105.281 47.816q.14.328.417.583.173.183.451.438.694.583.833 1.567.209 1.567.695 2.587-.382.474-.521.729-.243-.51-.486-1.53-.208-.875-.278-1.458-.104-.948-.694-1.312-.59-.328-.799-.73l.382-.874z"/></defs><use xlink:href="#a" transform="matrix(.69429 0 0 .72888 -111.05 -232.5)"/><use xlink:href="#b" transform="matrix(.69429 0 0 .72888 -111.05 -232.5)"/><use xlink:href="#c" transform="matrix(.69429 0 0 .72888 -111.05 -232.5)"/><use xlink:href="#d" transform="matrix(.69426 0 0 .72885 -111.05 -232.5)"/><use xlink:href="#e" transform="matrix(.69426 0 0 .72885 -111.05 -232.5)"/><use xlink:href="#f" transform="matrix(.69426 0 0 .72885 -111.05 -232.5)"/><use xlink:href="#g" transform="matrix(.69426 0 0 .72885 -111.05 -232.5)"/><use xlink:href="#h" transform="matrix(.69426 0 0 .72885 -111.05 -232.5)"/><use xlink:href="#i" transform="matrix(.69426 0 0 .72885 -111.05 -232.5)"/><use xlink:href="#j" transform="matrix(.69426 0 0 .72885 -111.05 -232.5)"/><use xlink:href="#k" transform="matrix(.69426 0 0 .72885 -111.05 -232.5)"/><use xlink:href="#l" transform="matrix(.69426 0 0 .72885 -111.05 -232.5)"/><use xlink:href="#m" transform="matrix(.69426 0 0 .72885 -111.05 -232.5)"/><use xlink:href="#n" transform="matrix(.69426 0 0 .72885 -111.05 -232.5)"/><use xlink:href="#o" transform="matrix(.69426 0 0 .72885 -111.05 -232.5)"/><use xlink:href="#p" transform="matrix(.69426 0 0 .72885 -111.05 -232.5)"/><use xlink:href="#q" transform="matrix(.69426 0 0 .72885 -111.05 -232.5)"/><use xlink:href="#r" transform="matrix(.69426 0 0 .72885 -111.05 -232.5)"/><use xlink:href="#s" transform="matrix(.69426 0 0 .72885 -111.05 -232.5)"/><use xlink:href="#t" transform="matrix(.69426 0 0 .72885 -111.05 -232.5)"/><use xlink:href="#u" transform="matrix(.69426 0 0 .72885 -111.05 -232.5)"/><use xlink:href="#v" transform="matrix(.69426 0 0 .72885 -111.05 -232.5)"/><use xlink:href="#w" transform="matrix(.69426 0 0 .72885 -111.05 -232.5)"/><use xlink:href="#x" transform="matrix(.69426 0 0 .72885 -111.05 -232.5)"/><use xlink:href="#y" transform="matrix(.69426 0 0 .72885 -111.05 -232.5)"/><use xlink:href="#z" transform="matrix(.69426 0 0 .72885 -111.05 -232.5)"/><use xlink:href="#A" transform="matrix(.69426 0 0 .72885 -111.05 -232.5)"/><use xlink:href="#B" transform="matrix(.69426 0 0 .72885 -111.05 -232.5)"/><use xlink:href="#C" transform="matrix(.69426 0 0 .72885 -111.05 -232.5)"/><use xlink:href="#D" transform="matrix(.69426 0 0 .72885 -111.05 -232.5)"/><use xlink:href="#E" transform="matrix(.69426 0 0 .72885 -111.05 -232.5)"/><use xlink:href="#F" transform="matrix(.69426 0 0 .72885 -111.05 -232.5)"/><use xlink:href="#G" transform="matrix(.69426 0 0 .72885 -111.05 -232.5)"/><use xlink:href="#H" transform="matrix(.69426 0 0 .72885 -111.05 -232.5)"/><use xlink:href="#I" transform="matrix(.69426 0 0 .72885 -111.05 -232.5)"/><use xlink:href="#J" transform="matrix(.69426 0 0 .72885 -111.05 -232.5)"/><use xlink:href="#K" transform="matrix(.69426 0 0 .72885 -111.05 -232.5)"/><use xlink:href="#L" transform="matrix(.69426 0 0 .72885 -111.05 -232.5)"/><use xlink:href="#M" transform="matrix(.69426 0 0 .72885 -111.05 -232.5)"/><use xlink:href="#N" transform="matrix(.69426 0 0 .72885 -111.05 -232.5)"/><use xlink:href="#O" transform="matrix(.69426 0 0 .72885 -111.05 -232.5)"/><use xlink:href="#P" transform="matrix(.69426 0 0 .72885 -111.05 -232.5)"/><use xlink:href="#Q" transform="matrix(.69426 0 0 .72885 -111.05 -232.5)"/><use xlink:href="#R" transform="matrix(.69426 0 0 .72885 -111.05 -232.5)"/><use xlink:href="#S" transform="matrix(.69426 0 0 .72885 -111.05 -232.5)"/><use xlink:href="#T" transform="matrix(.69426 0 0 .72885 -111.05 -232.5)"/><use xlink:href="#U" transform="matrix(.69426 0 0 .72885 -111.05 -232.5)"/><use xlink:href="#V" transform="matrix(.69426 0 0 .72885 -111.05 -232.5)"/><use xlink:href="#W" transform="matrix(.69426 0 0 .72885 -111.05 -232.5)"/><use xlink:href="#X" transform="matrix(.69426 0 0 .72885 -111.05 -232.5)"/><use xlink:href="#Y" transform="matrix(.69426 0 0 .72885 -111.05 -232.5)"/><use xlink:href="#Z" transform="matrix(.69426 0 0 .72885 -111.05 -232.5)"/><use xlink:href="#aa" transform="matrix(.69426 0 0 .72885 -111.05 -232.5)"/><use xlink:href="#ab" transform="matrix(.69426 0 0 .72885 -111.05 -232.5)"/><use xlink:href="#ac" transform="matrix(.69426 0 0 .72885 -111.05 -232.5)"/><use xlink:href="#ad" transform="matrix(.69426 0 0 .72885 -111.05 -232.5)"/><use xlink:href="#ae" transform="matrix(.69426 0 0 .72885 -111.05 -232.5)"/><use xlink:href="#af" transform="matrix(.69426 0 0 .72885 -111.05 -232.5)"/><use xlink:href="#ag" transform="matrix(.69426 0 0 .72885 -111.05 -232.5)"/><use xlink:href="#ah" transform="matrix(.69426 0 0 .72885 -111.05 -232.5)"/><use xlink:href="#ai" transform="matrix(.69426 0 0 .72885 -111.05 -232.5)"/><use xlink:href="#aj" transform="matrix(.69426 0 0 .72885 -111.05 -232.5)"/><use xlink:href="#ak" transform="matrix(.69426 0 0 .72885 -111.05 -232.5)"/><use xlink:href="#al" transform="matrix(.69426 0 0 .72885 -111.05 -232.5)"/><use xlink:href="#am" transform="matrix(.69426 0 0 .72885 -111.05 -232.5)"/><use xlink:href="#an" transform="matrix(.69426 0 0 .72885 -111.05 -232.5)"/><use xlink:href="#ao" transform="matrix(.69426 0 0 .72885 -111.05 -232.5)"/><use xlink:href="#ap" transform="matrix(.69426 0 0 .72885 -111.05 -232.5)"/><use xlink:href="#aq" transform="matrix(.69426 0 0 .72885 -111.05 -232.5)"/><use xlink:href="#ar" transform="matrix(.69426 0 0 .72885 -111.05 -232.5)"/><use xlink:href="#as" transform="matrix(.69426 0 0 .72885 -111.05 -232.5)"/><use xlink:href="#at" transform="matrix(.69426 0 0 .72885 -111.05 -232.5)"/><use xlink:href="#au" transform="matrix(.69426 0 0 .72885 -111.05 -232.5)"/><use xlink:href="#av" transform="matrix(.69426 0 0 .72885 -111.05 -232.5)"/><use xlink:href="#aw" transform="matrix(.69426 0 0 .72885 -111.05 -232.5)"/><use xlink:href="#ax" transform="matrix(.69426 0 0 .72885 -111.05 -232.5)"/><use xlink:href="#ay" transform="matrix(.69426 0 0 .72885 -111.05 -232.5)"/><use xlink:href="#az" transform="matrix(.69426 0 0 .72885 -111.05 -232.5)"/><use xlink:href="#aA" transform="matrix(.69426 0 0 .72885 -111.05 -232.5)"/><use xlink:href="#aB" transform="matrix(.69426 0 0 .72885 -111.05 -232.5)"/><use xlink:href="#aC" transform="matrix(.69426 0 0 .72885 -111.05 -232.5)"/><use xlink:href="#aD" transform="matrix(.69426 0 0 .72885 -111.05 -232.5)"/><use xlink:href="#aE" transform="matrix(.69426 0 0 .72885 -111.05 -232.5)"/><use xlink:href="#aF" transform="matrix(.69426 0 0 .72885 -111.05 -232.5)"/><use xlink:href="#aG" transform="matrix(.69426 0 0 .72885 -111.05 -232.5)"/><use xlink:href="#aH" transform="matrix(.69426 0 0 .72885 -111.05 -232.5)"/><use xlink:href="#aI" transform="matrix(.69426 0 0 .72885 -111.05 -232.5)"/><use xlink:href="#aJ" transform="matrix(.69426 0 0 .72885 -111.05 -232.5)"/><use xlink:href="#aK" transform="matrix(.69426 0 0 .72885 -111.05 -232.5)"/><use xlink:href="#aL" transform="matrix(.69426 0 0 .72885 -111.05 -232.5)"/><use xlink:href="#aM" transform="matrix(.69426 0 0 .72885 -111.05 -232.5)"/><use xlink:href="#aN" transform="matrix(.69426 0 0 .72885 -111.05 -232.5)"/><g transform="matrix(.69426 0 0 .72885 -111.05 -232.5)"><use xlink:href="#aO"/><use xlink:href="#aP" transform="matrix(1.44037 0 0 1.372 159.95 318.95)"/></g><g transform="matrix(.69426 0 0 .72885 -111.05 -232.5)"><use xlink:href="#aQ"/><use xlink:href="#aR" transform="matrix(1.44037 0 0 1.372 159.95 318.95)"/></g><g transform="matrix(.69426 0 0 .72885 -111.05 -232.5)"><use xlink:href="#aS"/><use xlink:href="#aT" transform="matrix(1.44037 0 0 1.372 159.95 318.95)"/></g><g transform="matrix(.69426 0 0 .72885 -111.05 -232.5)"><use xlink:href="#aU"/><use xlink:href="#aV" transform="matrix(1.44037 0 0 1.372 159.95 318.95)"/></g><g transform="matrix(.69426 0 0 .72885 -111.05 -232.5)"><use xlink:href="#aW"/><use xlink:href="#aX" transform="matrix(1.44037 0 0 1.372 159.95 318.95)"/></g><g transform="matrix(.69426 0 0 .72885 -111.05 -232.5)"><use xlink:href="#aY"/><use xlink:href="#aZ" transform="matrix(1.44037 0 0 1.372 159.95 318.95)"/></g><use xlink:href="#ba" transform="matrix(.69426 0 0 .72885 -111.05 -232.5)"/><use xlink:href="#bb" transform="matrix(.69426 0 0 .72885 -111.05 -232.5)"/><use xlink:href="#bc" transform="matrix(.69426 0 0 .72885 -111.05 -232.5)"/><use xlink:href="#bd" transform="matrix(.69426 0 0 .72885 -111.05 -232.5)"/><use xlink:href="#be" transform="matrix(.69426 0 0 .72885 -111.05 -232.5)"/><use xlink:href="#bf" transform="matrix(.69426 0 0 .72885 -111.05 -232.5)"/><use xlink:href="#bg" transform="matrix(.69426 0 0 .72885 -111.05 -232.5)"/><use xlink:href="#bh" transform="matrix(.69426 0 0 .72885 -111.05 -232.5)"/><use xlink:href="#bi" transform="matrix(.69426 0 0 .72885 -111.05 -232.5)"/><use xlink:href="#bj" transform="matrix(.69426 0 0 .72885 -111.05 -232.5)"/><use xlink:href="#bk" transform="matrix(.69426 0 0 .72885 -111.05 -232.5)"/><use xlink:href="#bl" transform="matrix(.69426 0 0 .72885 -111.05 -232.5)"/><use xlink:href="#bm" transform="matrix(.69426 0 0 .72885 -111.05 -232.5)"/><use xlink:href="#bn" transform="matrix(.69426 0 0 .72885 -111.05 -232.5)"/><use xlink:href="#bo" transform="matrix(.69426 0 0 .72885 -111.05 -232.5)"/><use xlink:href="#bp" transform="matrix(.69426 0 0 .72885 -111.05 -232.5)"/><use xlink:href="#bq" transform="matrix(.69426 0 0 .72885 -111.05 -232.5)"/><use xlink:href="#br" transform="matrix(.69426 0 0 .72885 -111.05 -232.5)"/><use xlink:href="#bs" transform="matrix(.69426 0 0 .72885 -111.05 -232.5)"/><use xlink:href="#bt" transform="matrix(.69426 0 0 .72885 -111.05 -232.5)"/><use xlink:href="#bu" transform="matrix(.69426 0 0 .72885 -111.05 -232.5)"/><use xlink:href="#bv" transform="matrix(.69426 0 0 .72885 -111.05 -232.5)"/><use xlink:href="#bw" transform="matrix(.69426 0 0 .72885 -111.05 -232.5)"/><use xlink:href="#bx" transform="matrix(.69426 0 0 .72885 -111.05 -232.5)"/><use xlink:href="#by" transform="matrix(.69426 0 0 .72885 -111.05 -232.5)"/><use xlink:href="#bz" transform="matrix(.69426 0 0 .72885 -111.05 -232.5)"/><use xlink:href="#bA" transform="matrix(.69426 0 0 .72885 -111.05 -232.5)"/><use xlink:href="#bB" transform="matrix(.69426 0 0 .72885 -111.05 -232.5)"/><use xlink:href="#bC" transform="matrix(.69426 0 0 .72885 -111.05 -232.5)"/><use xlink:href="#bD" transform="matrix(.69426 0 0 .72885 -111.05 -232.5)"/><use xlink:href="#bE" transform="matrix(.69426 0 0 .72885 -111.05 -232.5)"/><use xlink:href="#bF" transform="matrix(.69426 0 0 .72885 -111.05 -232.5)"/><use xlink:href="#bG" transform="matrix(.69426 0 0 .72885 -111.05 -232.5)"/><use xlink:href="#bH" transform="matrix(.69426 0 0 .72885 -111.05 -232.5)"/><use xlink:href="#bI" transform="matrix(.69426 0 0 .72885 -111.05 -232.5)"/><use xlink:href="#bJ" transform="matrix(.69426 0 0 .72885 -111.05 -232.5)"/><use xlink:href="#bK" transform="matrix(.69426 0 0 .72885 -111.05 -232.5)"/><use xlink:href="#bL" transform="matrix(.69426 0 0 .72885 -111.05 -232.5)"/><use xlink:href="#bM" transform="matrix(.69426 0 0 .72885 -111.05 -232.5)"/><use xlink:href="#bN" transform="matrix(.69426 0 0 .72885 -111.05 -232.5)"/><use xlink:href="#bO" transform="matrix(.69426 0 0 .72885 -111.05 -232.5)"/><use xlink:href="#bP" transform="matrix(.69426 0 0 .72885 -111.05 -232.5)"/><use xlink:href="#bQ" transform="matrix(.69426 0 0 .72885 -111.05 -232.5)"/><use xlink:href="#bR" transform="matrix(.69426 0 0 .72885 -111.05 -232.5)"/><use xlink:href="#bS" transform="matrix(.69426 0 0 .72885 -111.05 -232.5)"/><use xlink:href="#bT" transform="matrix(.69426 0 0 .72885 -111.05 -232.5)"/><use xlink:href="#bU" transform="matrix(.69426 0 0 .72885 -111.05 -232.5)"/><use xlink:href="#bV" transform="matrix(.69426 0 0 .72885 -111.05 -232.5)"/><use xlink:href="#bW" transform="matrix(.69426 0 0 .72885 -111.05 -232.5)"/><use xlink:href="#bX" transform="matrix(.69426 0 0 .72885 -111.05 -232.5)"/><use xlink:href="#bY" transform="matrix(.69426 0 0 .72885 -111.05 -232.5)"/><use xlink:href="#bZ" transform="matrix(.69426 0 0 .72885 -111.05 -232.5)"/><use xlink:href="#ca" transform="matrix(.69426 0 0 .72885 -111.05 -232.5)"/><use xlink:href="#cb" transform="matrix(.69426 0 0 .72885 -111.05 -232.5)"/><use xlink:href="#cc" transform="matrix(.69426 0 0 .72885 -111.05 -232.5)"/><use xlink:href="#cd" transform="matrix(.69426 0 0 .72885 -111.05 -232.5)"/><use xlink:href="#ce" transform="matrix(.69426 0 0 .72885 -111.05 -232.5)"/><use xlink:href="#cf" transform="matrix(.69426 0 0 .72885 -111.05 -232.5)"/><use xlink:href="#cg" transform="matrix(.69429 0 0 .72888 -111.05 -232.5)"/><use xlink:href="#ch" transform="matrix(.69429 0 0 .72888 -111.05 -232.5)"/><use xlink:href="#ci" transform="matrix(.69429 0 0 .72888 -111.05 -232.5)"/><use xlink:href="#cj" transform="matrix(.69429 0 0 .72888 -111.05 -232.5)"/><use xlink:href="#ck" transform="matrix(.69429 0 0 .72888 -111.05 -232.5)"/><use xlink:href="#cl" transform="matrix(.69429 0 0 .72888 -111.05 -232.5)"/><use xlink:href="#cm" transform="matrix(.69429 0 0 .72888 -111.05 -232.5)"/><use xlink:href="#cn" transform="matrix(.69429 0 0 .72888 -111.05 -232.5)"/><use xlink:href="#co" transform="matrix(.69429 0 0 .72888 -111.05 -232.5)"/><use xlink:href="#cp" transform="matrix(.69429 0 0 .72888 -111.05 -232.5)"/><use xlink:href="#cq" transform="matrix(.69429 0 0 .72888 -111.05 -232.5)"/><use xlink:href="#cr" transform="matrix(.69429 0 0 .72888 -111.05 -232.5)"/><use xlink:href="#cs" transform="matrix(.69426 0 0 .72885 -111.05 -232.5)"/><use xlink:href="#ct" transform="matrix(.69426 0 0 .72885 -111.05 -232.5)"/><use xlink:href="#cu" transform="matrix(.69426 0 0 .72885 -111.05 -232.5)"/><use xlink:href="#cv" transform="matrix(.69426 0 0 .72885 -111.05 -232.5)"/><use xlink:href="#cw" transform="matrix(.69426 0 0 .72885 -111.05 -232.5)"/><use xlink:href="#cx" transform="matrix(.69426 0 0 .72885 -111.05 -232.5)"/><use xlink:href="#cy" transform="matrix(.69426 0 0 .72885 -111.05 -232.5)"/><use xlink:href="#cz" transform="matrix(.69426 0 0 .72885 -111.05 -232.5)"/><use xlink:href="#cA" transform="matrix(.69426 0 0 .72885 -111.05 -232.5)"/><use xlink:href="#cB" transform="matrix(.69426 0 0 .72885 -111.05 -232.5)"/><use xlink:href="#cC" transform="matrix(.69426 0 0 .72885 -111.05 -232.5)"/><use xlink:href="#cD" transform="matrix(.69426 0 0 .72885 -111.05 -232.5)"/><use xlink:href="#cE" transform="matrix(.69426 0 0 .72885 -111.05 -232.5)"/><use xlink:href="#cF" transform="matrix(.69426 0 0 .72885 -111.05 -232.5)"/><use xlink:href="#cG" transform="matrix(.69426 0 0 .72885 -111.05 -232.5)"/><use xlink:href="#cH" transform="matrix(.69426 0 0 .72885 -111.05 -232.5)"/><use xlink:href="#cI" transform="matrix(.69426 0 0 .72885 -111.05 -232.5)"/><use xlink:href="#cJ" transform="matrix(.69426 0 0 .72885 -111.05 -232.5)"/><use xlink:href="#cK" transform="matrix(.69426 0 0 .72885 -111.05 -232.5)"/><use xlink:href="#cL" transform="matrix(.69426 0 0 .72885 -111.05 -232.5)"/><use xlink:href="#cM" transform="matrix(.69426 0 0 .72885 -111.05 -232.5)"/><use xlink:href="#cN" transform="matrix(.69426 0 0 .72885 -111.05 -232.5)"/><use xlink:href="#cO" transform="matrix(.69426 0 0 .72885 -111.05 -232.5)"/><use xlink:href="#cP" transform="matrix(.69426 0 0 .72885 -111.05 -232.5)"/><use xlink:href="#cQ" transform="matrix(.69426 0 0 .72885 -111.05 -232.5)"/><use xlink:href="#cR" transform="matrix(.69426 0 0 .72885 -111.05 -232.5)"/><use xlink:href="#cS" transform="matrix(.69426 0 0 .72885 -111.05 -232.5)"/><use xlink:href="#cT" transform="matrix(.69426 0 0 .72885 -111.05 -232.5)"/><use xlink:href="#cU" transform="matrix(.69426 0 0 .72885 -111.05 -232.5)"/><use xlink:href="#cV" transform="matrix(.69426 0 0 .72885 -111.05 -232.5)"/><use xlink:href="#cW" transform="matrix(.69426 0 0 .72885 -111.05 -232.5)"/><use xlink:href="#cX" transform="matrix(.69426 0 0 .72885 -111.05 -232.5)"/><use xlink:href="#cY" transform="matrix(.69426 0 0 .72885 -111.05 -232.5)"/><use xlink:href="#cZ" transform="matrix(.69426 0 0 .72885 -111.05 -232.5)"/><use xlink:href="#da" transform="matrix(.69426 0 0 .72885 -111.05 -232.5)"/><use xlink:href="#db" transform="matrix(.69426 0 0 .72885 -111.05 -232.5)"/><use xlink:href="#dc" transform="matrix(.69426 0 0 .72885 -111.05 -232.5)"/><use xlink:href="#dd" transform="matrix(.69426 0 0 .72885 -111.05 -232.5)"/><use xlink:href="#de" transform="matrix(.69426 0 0 .72885 -111.05 -232.5)"/><use xlink:href="#df" transform="matrix(.69426 0 0 .72885 -111.05 -232.5)"/><use xlink:href="#dg" transform="matrix(.69426 0 0 .72885 -111.05 -232.5)"/><use xlink:href="#dh" transform="matrix(.69426 0 0 .72885 -111.05 -232.5)"/><use xlink:href="#di" transform="matrix(.69426 0 0 .72885 -111.05 -232.5)"/><use xlink:href="#dj" transform="matrix(.69426 0 0 .72885 -111.05 -232.5)"/><use xlink:href="#dk" transform="matrix(.69426 0 0 .72885 -111.05 -232.5)"/><use xlink:href="#dl" transform="matrix(.69426 0 0 .72885 -111.05 -232.5)"/><use xlink:href="#dm" transform="matrix(.69426 0 0 .72885 -111.05 -232.5)"/><use xlink:href="#dn" transform="matrix(.69426 0 0 .72885 -111.05 -232.5)"/><use xlink:href="#do" transform="matrix(.69429 0 0 .72888 -111.05 -232.5)"/><use xlink:href="#dp" transform="matrix(.69426 0 0 .72885 -111.05 -232.5)"/><use xlink:href="#dq" transform="matrix(.69426 0 0 .72885 -111.05 -232.5)"/><use xlink:href="#dr" transform="matrix(.69426 0 0 .72885 -111.05 -232.5)"/><use xlink:href="#ds" transform="matrix(.69426 0 0 .72885 -111.05 -232.5)"/><use xlink:href="#dt" transform="matrix(.69426 0 0 .72885 -111.05 -232.5)"/><use xlink:href="#du" transform="matrix(.69426 0 0 .72885 -111.05 -232.5)"/><use xlink:href="#dv" transform="matrix(.69426 0 0 .72885 -111.05 -232.5)"/><use xlink:href="#dw" transform="matrix(.69426 0 0 .72885 -111.05 -232.5)"/><use xlink:href="#dx" transform="matrix(.69426 0 0 .72885 -111.05 -232.5)"/><use xlink:href="#dy" transform="matrix(.69426 0 0 .72885 -111.05 -232.5)"/><use xlink:href="#dz" transform="matrix(.69426 0 0 .72885 -111.05 -232.5)"/><use xlink:href="#dA" transform="matrix(.69426 0 0 .72885 -111.05 -232.5)"/><use xlink:href="#dB" transform="matrix(.69426 0 0 .72885 -111.05 -232.5)"/><use xlink:href="#dC" transform="matrix(.69426 0 0 .72885 -111.05 -232.5)"/><use xlink:href="#dD" transform="matrix(.69426 0 0 .72885 -111.05 -232.5)"/><use xlink:href="#dE" transform="matrix(.69426 0 0 .72885 -111.05 -232.5)"/><use xlink:href="#dF" transform="matrix(.69426 0 0 .72885 -111.05 -232.5)"/><use xlink:href="#dG" transform="matrix(.69426 0 0 .72885 -111.05 -232.5)"/><use xlink:href="#dH" transform="matrix(.69426 0 0 .72885 -111.05 -232.5)"/><use xlink:href="#dI" transform="matrix(.69426 0 0 .72885 -111.05 -232.5)"/><use xlink:href="#dJ" transform="matrix(.69426 0 0 .72885 -111.05 -232.5)"/><use xlink:href="#dK" transform="matrix(.69426 0 0 .72885 -111.05 -232.5)"/><use xlink:href="#dL" transform="matrix(.69426 0 0 .72885 -111.05 -232.5)"/><use xlink:href="#dM" transform="matrix(.69426 0 0 .72885 -111.05 -232.5)"/><use xlink:href="#dN" transform="matrix(.69426 0 0 .72885 -111.05 -232.5)"/><use xlink:href="#dO" transform="matrix(.69426 0 0 .72885 -111.05 -232.5)"/><use xlink:href="#dP" transform="matrix(.69426 0 0 .72885 -111.05 -232.5)"/><use xlink:href="#dQ" transform="matrix(.69426 0 0 .72885 -111.05 -232.5)"/><use xlink:href="#dR" transform="matrix(.69426 0 0 .72885 -111.05 -232.5)"/><use xlink:href="#dS" transform="matrix(.69426 0 0 .72885 -111.05 -232.5)"/><use xlink:href="#dT" transform="matrix(.69426 0 0 .72885 -111.05 -232.5)"/><use xlink:href="#dU" transform="matrix(.69426 0 0 .72885 -111.05 -232.5)"/><use xlink:href="#dV" transform="matrix(.69426 0 0 .72885 -111.05 -232.5)"/><use xlink:href="#dW" transform="matrix(.69426 0 0 .72885 -111.05 -232.5)"/><use xlink:href="#dX" transform="matrix(.69426 0 0 .72885 -111.05 -232.5)"/><use xlink:href="#dY" transform="matrix(.69426 0 0 .72885 -111.05 -232.5)"/><use xlink:href="#dZ" transform="matrix(.69426 0 0 .72885 -111.05 -232.5)"/><use xlink:href="#ea" transform="matrix(.69426 0 0 .72885 -111.05 -232.5)"/><use xlink:href="#eb" transform="matrix(.69426 0 0 .72885 -111.05 -232.5)"/><use xlink:href="#ec" transform="matrix(.69426 0 0 .72885 -111.05 -232.5)"/><use xlink:href="#ed" transform="matrix(.69426 0 0 .72885 -111.05 -232.5)"/><use xlink:href="#ee" transform="matrix(.69426 0 0 .72885 -111.05 -232.5)"/><use xlink:href="#ef" transform="matrix(.69426 0 0 .72885 -111.05 -232.5)"/><use xlink:href="#eg" transform="matrix(.69426 0 0 .72885 -111.05 -232.5)"/><use xlink:href="#eh" transform="matrix(.69426 0 0 .72885 -111.05 -232.5)"/><use xlink:href="#ei" transform="matrix(.69426 0 0 .72885 -111.05 -232.5)"/><use xlink:href="#ej" transform="matrix(.69426 0 0 .72885 -111.05 -232.5)"/><use xlink:href="#ek" transform="matrix(.69426 0 0 .72885 -111.05 -232.5)"/><use xlink:href="#el" transform="matrix(.69426 0 0 .72885 -111.05 -232.5)"/><use xlink:href="#em" transform="matrix(.69426 0 0 .72885 -111.05 -232.5)"/><use xlink:href="#en" transform="matrix(.69426 0 0 .72885 -111.05 -232.5)"/><use xlink:href="#eo" transform="matrix(.69426 0 0 .72885 -111.05 -232.5)"/><use xlink:href="#ep" transform="matrix(.69426 0 0 .72885 -111.05 -232.5)"/><use xlink:href="#eq" transform="matrix(.69426 0 0 .72885 -111.05 -232.5)"/><use xlink:href="#er" transform="matrix(.69426 0 0 .72885 -111.05 -232.5)"/><use xlink:href="#es" transform="matrix(.69426 0 0 .72885 -111.05 -232.5)"/><use xlink:href="#et" transform="matrix(.69426 0 0 .72885 -111.05 -232.5)"/><use xlink:href="#eu" transform="matrix(.69426 0 0 .72885 -111.05 -232.5)"/><use xlink:href="#ev" transform="matrix(.69426 0 0 .72885 -111.05 -232.5)"/><use xlink:href="#ew" transform="matrix(.69426 0 0 .72885 -111.05 -232.5)"/><use xlink:href="#ex" transform="matrix(.69426 0 0 .72885 -111.05 -232.5)"/><use xlink:href="#ey" transform="matrix(.69426 0 0 .72885 -111.05 -232.5)"/><use xlink:href="#ez" transform="matrix(.69426 0 0 .72885 -111.05 -232.5)"/><use xlink:href="#eA" transform="matrix(.69426 0 0 .72885 -111.05 -232.5)"/><use xlink:href="#eB" transform="matrix(.69426 0 0 .72885 -111.05 -232.5)"/><use xlink:href="#eC" transform="matrix(.69426 0 0 .72885 -111.05 -232.5)"/><use xlink:href="#eD" transform="matrix(.69426 0 0 .72885 -111.05 -232.5)"/><use xlink:href="#eE" transform="matrix(.69426 0 0 .72885 -111.05 -232.5)"/><use xlink:href="#eF" transform="matrix(.69426 0 0 .72885 -111.05 -232.5)"/><use xlink:href="#eG" transform="matrix(.69426 0 0 .72885 -111.05 -232.5)"/><use xlink:href="#eH" transform="matrix(.69426 0 0 .72885 -111.05 -232.5)"/><use xlink:href="#eI" transform="matrix(.69426 0 0 .72885 -111.05 -232.5)"/><use xlink:href="#eJ" transform="matrix(.69426 0 0 .72885 -111.05 -232.5)"/><use xlink:href="#eK" transform="matrix(.69426 0 0 .72885 -111.05 -232.5)"/><use xlink:href="#eL" transform="matrix(.69426 0 0 .72885 -111.05 -232.5)"/><use xlink:href="#eM" transform="matrix(.69426 0 0 .72885 -111.05 -232.5)"/><use xlink:href="#eN" transform="matrix(.69426 0 0 .72885 -111.05 -232.5)"/><use xlink:href="#eO" transform="matrix(.69426 0 0 .72885 -111.05 -232.5)"/><use xlink:href="#eP" transform="matrix(.69426 0 0 .72885 -111.05 -232.5)"/><use xlink:href="#eQ" transform="matrix(.69426 0 0 .72885 -111.05 -232.5)"/><use xlink:href="#eR" transform="matrix(.69426 0 0 .72885 -111.05 -232.5)"/><use xlink:href="#eS" transform="matrix(.69426 0 0 .72885 -111.05 -232.5)"/><use xlink:href="#eT" transform="matrix(.69426 0 0 .72885 -111.05 -232.5)"/><use xlink:href="#eU" transform="matrix(.69426 0 0 .72885 -111.05 -232.5)"/><use xlink:href="#eV" transform="matrix(.69426 0 0 .72885 -111.05 -232.5)"/><use xlink:href="#eW" transform="matrix(.69426 0 0 .72885 -111.05 -232.5)"/><use xlink:href="#eX" transform="matrix(.69426 0 0 .72885 -111.05 -232.5)"/><use xlink:href="#eY" transform="matrix(.69426 0 0 .72885 -111.05 -232.5)"/><use xlink:href="#eZ" transform="matrix(.69426 0 0 .72885 -111.05 -232.5)"/><use xlink:href="#fa" transform="matrix(.69426 0 0 .72885 -111.05 -232.5)"/><use xlink:href="#fb" transform="matrix(.69426 0 0 .72885 -111.05 -232.5)"/><use xlink:href="#fc" transform="matrix(.69426 0 0 .72885 -111.05 -232.5)"/><use xlink:href="#fd" transform="matrix(.69426 0 0 .72885 -111.05 -232.5)"/><use xlink:href="#fe" transform="matrix(.69426 0 0 .72885 -111.05 -232.5)"/><use xlink:href="#ff" transform="matrix(.69426 0 0 .72885 -111.05 -232.5)"/><use xlink:href="#fg" transform="matrix(.69426 0 0 .72885 -111.05 -232.5)"/><use xlink:href="#fh" transform="matrix(.69426 0 0 .72885 -111.05 -232.5)"/><use xlink:href="#fi" transform="matrix(.69426 0 0 .72885 -111.05 -232.5)"/><use xlink:href="#fj" transform="matrix(.69426 0 0 .72885 -111.05 -232.5)"/><use xlink:href="#fk" transform="matrix(.69426 0 0 .72885 -111.05 -232.5)"/><use xlink:href="#fl" transform="matrix(.69426 0 0 .72885 -111.05 -232.5)"/><use xlink:href="#fm" transform="matrix(.69426 0 0 .72885 -111.05 -232.5)"/><use xlink:href="#fn" transform="matrix(.69426 0 0 .72885 -111.05 -232.5)"/><use xlink:href="#fo" transform="matrix(.69426 0 0 .72885 -111.05 -232.5)"/><use xlink:href="#fp" transform="matrix(.69426 0 0 .72885 -111.05 -232.5)"/><use xlink:href="#fq" transform="matrix(.69426 0 0 .72885 -111.05 -232.5)"/></svg>