<svg xmlns="http://www.w3.org/2000/svg" xmlns:xlink="http://www.w3.org/1999/xlink" preserveAspectRatio="none" width="200" height="105"><defs><path fill="#373535" d="M398.45 377.85V321.5H182.5v56.35h215.95z" id="a"/><path fill="#FFF" d="M182.5 409.15v56.4h215.95v-56.4H182.5z" id="b"/><path fill="#007FC4" d="M398.45 409.15v-31.3H182.5v31.3h215.95z" id="c"/><path fill="#E1474A" d="M398.45 321.5L290.5 465.55h107.95V321.5M182.5 465.55h108l-108-144.05v144.05z" id="d"/><path fill="#FFD635" d="M267.55 362.1l-22.6-3.35 18.35 13.6-22.2 5.5h100.2l-22.15-5.5 18.35-13.6-22.65 3.35 11.7-19.55-19.5 11.7 3.3-22.6L296.8 350l-5.6-22.15-5.6 22.15-13.55-18.35 3.35 22.6-19.55-11.7 11.7 19.55z" id="e"/></defs><use xlink:href="#a" transform="matrix(.92612 0 0 .72888 -169 -234.35)"/><use xlink:href="#b" transform="matrix(.92612 0 0 .72888 -169 -234.35)"/><use xlink:href="#c" transform="matrix(.92612 0 0 .72888 -169 -234.35)"/><use xlink:href="#d" transform="matrix(.92612 0 0 .72888 -169 -234.35)"/><use xlink:href="#e" transform="matrix(.92612 0 0 .72888 -169 -234.35)"/></svg>