<svg xmlns="http://www.w3.org/2000/svg" xmlns:xlink="http://www.w3.org/1999/xlink" preserveAspectRatio="none" width="200" height="105"><defs><path fill="#21467B" d="M146.65 465.5H434.3V321.55H146.65V465.5z" id="a"/><path fill="#FFF" d="M434.3 339.05v-17.5h-35.05l-85 42.35v-42.35H266.4v42.35l-85-42.35h-34.75v17.5l60.75 30.45h-60.75v48.05h60.75L146.65 448v17.5h34.75l85-42.35v42.35h47.85v-42.35l85 42.35h35.05V448l-61.05-30.45h61.05V369.5h-61.05l61.05-30.45z" id="b"/><path fill="#E1474A" d="M434.3 465.5v-11.45l-72.65-36.5h-23.1l95.75 47.95m-168.65-47.95h-23l-96 47.95h23l96-47.95m39.05-96h-28.1v57.95H146.65v28.1H276.6v57.9h28.1v-57.9h129.6v-28.1H304.7v-57.95m-158.05 0V333l73 36.55h23.2l-96.2-48m287.65 0h-22.65l-96 48h23l95.65-48z" id="c"/></defs><use xlink:href="#a" transform="matrix(.6952 0 0 .72934 -101.95 -234.5)"/><use xlink:href="#b" transform="matrix(.69524 0 0 .72937 -101.95 -234.5)"/><use xlink:href="#c" transform="matrix(.69524 0 0 .72937 -101.95 -234.5)"/></svg>