<svg xmlns="http://www.w3.org/2000/svg" xmlns:xlink="http://www.w3.org/1999/xlink" preserveAspectRatio="none" width="200" height="105"><defs><path fill="#EE333E" d="M398.5 393.5v-72h-216v72h216z" id="a"/><path fill="#373535" d="M398.5 465.5v-72h-216v72h216z" id="b"/><path fill="#FFE25C" d="M318.65 369.95q-2.7-3.6-5.15-5.45l-1.95 2.2q-2.2-2-5.7-4l1.5-2.55q-3.7-2.2-6.9-3.1l-.95 2.8q-2.6-.9-6.75-1.5l-.75 6.95q10.55 1.3 17.65 9.35 7.15 8.05 7.15 18.85 0 6.3-2.6 11.95-2.5 5.4-7.05 9.45l8.2 5.95q1.25-1.15 2-2.15l-2.2-1.95q1.7-1.9 4-5.7l2.55 1.5q2.3-3.9 3.1-6.9l-2.8-.95q.9-2.6 1.5-6.75l2.95.35q.6-4.7.2-7.5l-2.95.2q-.15-2.9-1.2-6.85l2.85-.8q-1-4.2-2.65-7.05l-2.65 1.35q-1.15-2.4-3.75-5.9l2.35-1.8z" id="c"/><path fill="#FFE25C" d="M297.7 427.7l.8 2.9q3.1-.85 5.45-1.9l-.8-5.1q-.05-.35-1-.9l-3.95-2.45q-4.65 1.75-9.9 1.75-9.05 0-16.4-5.2l-4 5.75 2.9 1.8-1.5 2.55q3.6 2.2 6.9 3.1l.9-2.8q2.55.9 6.8 1.5l-.4 2.95q4.4.65 7.55.2l-.2-2.95q2.65-.1 6.85-1.2z" id="e"/><path fill="#FFE25C" d="M319.25 425.85q-23.3-17.15-27.3-20.4-13.8-11.1-15.3-16.65-3.8 5.8-1.5 11.95 2.05 5.6 7.75 8.9 21.4 12.2 33.3 20.1l3.05-3.9z" id="g"/><path fill="#FFE25C" d="M320 426q-.5-.4-.75-.15-2.1 2.75-2.85 3.65-.55.75-.05 1 .15.05 1 .15 2.5.4 5.15 2.7 2.25 2.05 3.5 4.35.95 1.85 2.2 2.35.95.4 1.9-.1t1.1-1.75q.25-1.65-1.4-3.55-1.65-1.95-4.5-4.35-3.5-2.8-5.3-4.3z" id="i"/><path fill="#FFE25C" d="M293.6 377.25l-2.85-8.9-2.9 8.85h-9.35l7.6 5.55-2.9 8.85 7.55-5.5 7.5 5.5-2.85-8.95 7.55-5.4h-9.35z" id="k"/><path fill="#373535" d="M320.7 428.85q0 .35.35.35t.35-.35q0-.35-.35-.35t-.35.35z" id="m"/><path fill="#373535" d="M324.3 431.9q0 .35.35.35t.35-.35q0-.4-.35-.4t-.35.4z" id="o"/><path fill="#373535" d="M327.65 435q0 .35.35.35t.35-.35q0-.35-.35-.35t-.35.35z" id="q"/><path fill="#373535" d="M318.15 427.35l.15-.2q-12.225-8.7-18-12.9-9.924-7.25-15.35-12.05l-.15.2q5.423 4.8 15.35 12.05 5.775 4.2 18 12.9z" id="s"/><path id="d" stroke="#373535" stroke-width=".1" stroke-linejoin="miter" stroke-linecap="butt" stroke-miterlimit="4" fill="none" d="M121.319 31.333l-1.806 1.604q-2.038-1.458-5.279-2.916l1.39-1.86q-3.427-1.604-6.39-2.26l-.88 2.041q-2.408-.656-6.251-1.093l-.695 5.067q9.77.948 16.345 6.818 6.622 5.87 6.622 13.745 0 4.594-2.408 8.714-2.315 3.937-6.529 6.89l7.594 4.339q1.157-.839 1.852-1.568l-2.037-1.422q1.574-1.385 3.704-4.156l2.361 1.094q2.13-2.844 2.871-5.031l-2.593-.693q.833-1.896 1.39-4.922l2.731.255q.556-3.427.185-5.469l-2.732.146q-.139-2.114-1.111-4.995l2.64-.583q-.927-3.063-2.455-5.14l-2.454.984q-1.065-1.75-3.473-4.302l2.177-1.313q-2.5-2.625-4.77-3.974z"/><path id="f" stroke="#373535" stroke-width=".1" stroke-linejoin="miter" stroke-linecap="butt" stroke-miterlimit="4" fill="none" d="M106.687 77.417q-3.89.802-6.344.875l.186 2.15q-2.918.329-6.992-.145l.37-2.151q-3.935-.438-6.297-1.094l-.833 2.042q-3.056-.656-6.39-2.26l1.389-1.86-2.686-1.312 3.705-4.193Q89.6 73.26 97.982 73.26q4.862 0 9.168-1.276l3.658 1.787q.88.4.926.656l.74 3.719q-2.176.766-5.046 1.385l-.741-2.114z"/><path id="h" stroke="#373535" stroke-width=".1" stroke-linejoin="miter" stroke-linecap="butt" stroke-miterlimit="4" fill="none" d="M101.362 61.193q-12.78-8.094-14.169-12.141-3.519 4.23-1.389 8.714 1.899 4.083 7.177 6.49Q112.8 73.15 123.82 78.911l2.824-2.844q-21.577-12.506-25.281-14.875z"/><path id="j" stroke="#373535" stroke-width=".1" stroke-linejoin="miter" stroke-linecap="butt" stroke-miterlimit="4" fill="none" d="M126.643 76.068q-1.944 2.005-2.639 2.661-.51.547-.046.73.139.036.926.109 2.315.291 4.769 1.969 2.084 1.494 3.241 3.171.88 1.35 2.038 1.714.88.292 1.76-.073.879-.364 1.018-1.276.231-1.203-1.297-2.588-1.528-1.422-4.167-3.172-3.241-2.042-4.908-3.136-.463-.292-.695-.11z"/><path id="l" stroke="#373535" stroke-width=".1" stroke-linejoin="miter" stroke-linecap="butt" stroke-miterlimit="4" fill="none" d="M100.25 34.14l-2.685 6.454h-8.658l7.038 4.046-2.686 6.454 6.992-4.01 6.945 4.01-2.64-6.526 6.993-3.938h-8.659l-2.64-6.49z"/><path id="n" stroke="#373535" stroke-width=".1" stroke-linejoin="miter" stroke-linecap="butt" stroke-miterlimit="4" fill="none" d="M128.31 78.51q.324 0 .324-.255T128.31 78q-.324 0-.324.255 0 .256.324.256z"/><path id="p" stroke="#373535" stroke-width=".1" stroke-linejoin="miter" stroke-linecap="butt" stroke-miterlimit="4" fill="none" d="M131.644 80.734q.324 0 .324-.255 0-.291-.324-.291t-.324.291q0 .255.324.255z"/><path id="r" stroke="#373535" stroke-width=".1" stroke-linejoin="miter" stroke-linecap="butt" stroke-miterlimit="4" fill="none" d="M134.746 82.995q.324 0 .324-.255t-.324-.255q-.324 0-.324.255t.324.255z"/></defs><use xlink:href="#a" transform="matrix(.92612 0 0 .72917 -169 -234.45)"/><use xlink:href="#b" transform="matrix(.92612 0 0 .72917 -169 -234.45)"/><g transform="matrix(.92606 0 0 .72917 -169 -234.45)"><use xlink:href="#c"/><use xlink:href="#d" transform="matrix(1.07983 0 0 1.37141 182.45 321.5)"/></g><g transform="matrix(.92606 0 0 .72917 -169 -234.45)"><use xlink:href="#e"/><use xlink:href="#f" transform="matrix(1.07983 0 0 1.37141 182.45 321.5)"/></g><g transform="matrix(.92606 0 0 .72917 -169 -234.45)"><use xlink:href="#g"/><use xlink:href="#h" transform="matrix(1.07983 0 0 1.37141 182.45 321.5)"/></g><g transform="matrix(.92606 0 0 .72917 -169 -234.45)"><use xlink:href="#i"/><use xlink:href="#j" transform="matrix(1.07983 0 0 1.37141 182.45 321.5)"/></g><g transform="matrix(.92606 0 0 .72917 -169 -234.45)"><use xlink:href="#k"/><use xlink:href="#l" transform="matrix(1.07983 0 0 1.37141 182.45 321.5)"/></g><g transform="matrix(.92606 0 0 .72917 -169 -234.45)"><use xlink:href="#m"/><use xlink:href="#n" transform="matrix(1.07983 0 0 1.37141 182.45 321.5)"/></g><g transform="matrix(.92606 0 0 .72917 -169 -234.45)"><use xlink:href="#o"/><use xlink:href="#p" transform="matrix(1.07983 0 0 1.37141 182.45 321.5)"/></g><g transform="matrix(.92606 0 0 .72917 -169 -234.45)"><use xlink:href="#q"/><use xlink:href="#r" transform="matrix(1.07983 0 0 1.37141 182.45 321.5)"/></g><use xlink:href="#s" transform="matrix(.92609 0 0 .72917 -169 -234.45)"/></svg>