<svg xmlns="http://www.w3.org/2000/svg" xmlns:xlink="http://www.w3.org/1999/xlink" preserveAspectRatio="none" width="200" height="105"><defs><path fill="#21467B" d="M146.45 465.55H434.5V321.5H146.45v144.05z" id="a"/><path fill="#D74452" d="M434.5 465.55V321.5l-288.05 72 288.05 72.05z" id="b"/><path fill="#FFF" d="M434.5 458.1V328.95L176.2 393.5l258.3 64.6z" id="c"/><g id="d"><path fill="#373535" d="M356.25 373.95q-1.15 2-.35 3.65.7 1.65 2.9 1.95 1.9.25 5.35-1.75h-.05q2.85-1.6 4.75-.95-1.75 3-5.9 5.3-.55.3-6.45 2.9-3.25 1.4-4.25 2-1.85 1.15-1.9 2.25-.2 1.7-1 3l-.2.25q-.2.2-1.8 1.7-1.25 1.1-1.45 2.4-.3 1.55.5 2.85v-.05q.85 1.5 2.65 1.65h.15v-.15q-.15-1 .1-1.55.15-.25.45-.55.55.4 1.65.55 1.7.25 3-.35V399q1.3-.65 2.2-1.55 1-1.1 1.85-1.6l.05-.05.4-.25-.05-.1q2.5-1.9 5.8-3.15 3.4-1.3 6.1-1.4h.05q.4-.05 1.15-.4h.05q1.1-.25 4.1-.45 1 .05 3.1 1.6 2.05 1.5 3.5 1.6.05.85.55 1.65v-.05q.6 1.1 1.65 1.3-.3 2.3.8 3-.5.8-.6 1.95-.15 1.3.4 1.75-.25.65-.2 1.35-.05.95.4 1.45-.6.8-.8 1.8-.3 1.2.4 1.75-.95 1.9-1.8 2.95-1.1.3-1.7.5-1.1.3-1.6.6l-1.35-.3q-1.3-.35-3.35-1.8-2.25-1.55-2.65-2.7-.3-.7-.7-.55-.35.05-.8.85-.5.95-.85 2.3l-8.85-2.1.55-2.25q.05-.5-.15-.6-.1-.1-.6-.2l-.95-.25q-.45-.15-.6-.05l.3-1.35q.15-.55-.15-.8-.2-.1-.85-.25l-1.35-.35q-.65-.2-.85-.1h-.05q-.35.1-.5.7l-.95 4.05q-1.3-.4-2.7-2.2-1.2-1.55-2-3.35l-.1-.1-.1.05q-2.4 1.45-6.65 2.25-3.55.6-6.2.5h-.05l-.45-.05-.05.1.45.2q2.4.95 5.4 3.15 3.4 2.6 4.95 5l.1.1.1-.1q1.45-1.2 3.2-2 2.15-1.05 3.45-.8l-.9 4q-.2.55.15.8.15.1.8.3l1.35.3q.65.2.9.15.35-.05.5-.65l.3-1.4q.2.2.6.3l.95.2q.45.1.6.1h.05q.25-.05.35-.5l.5-2.2 8.9 2.1q-.25 1.45-.2 2.4 0 .9.3 1.1.3.3.85-.2.85-.85 3.55-1.25 2.35-.4 3.7-.15-.25.75-.15 1.85-.65.6-1.65 1.15-1.3.65-2.1.55l-.15-.05v.15q0 .7.4 1.15l-7.75-.55q-.8-1-1.55-1.65-.85-.6-1.4-.6-.6 0-.95.65-.55.95-.95.85-.7-.55-1.1-.9-1.05-.85-2.8-.1-1.4.6-1.7.25-.65-.85-1.85-.6-1.15.2-1.95 1.15-.95 1.25-1 1.8-.15.95 1.45 1.8.8.4 2.55 2.75 1.5 1.95 3.35 2.05 2.65.1 4.2 1.35 1.45 1.2 2.7 1.2 2.65 0 5.2 1.1 3.25 1.35 4.5 3.95l.15.3.1-.3q.4-1.5 1.7-1.6 1.35-.1 2.85 1.4l.2.15.05-.2q.15-1-.35-1.95h.05q-.35-.75-1.05-1.2 1.7.45 3.6 1.5 2.9 1.7 4 3.65l.1.25.1-.25q.35-.6.1-2.05-.1-.6-.25-1 1.5 1.7 3.1 2.6 2.5 1.4 4.5.1l.15-.1-.2-.1q-1.3-.6-2.6-1.85-1.15-1.05-1.55-1.9 1.45.55 3.9.9 3.1.4 4.35-.3l.35-.15-.35-.05q-1.35-.35-3.8-1.45-1.95-.95-2.85-1.55 3.55.3 4.55-1.75l.15-.25-.25.1q-.85.2-3.45.35-2.15.05-3.05-.05.5-.7.75-2.35l.05-.3-.25.15q-2.65 1.95-10.3 1.4.5-.45 1.1-1.5l.15-.2-.25.05q-2.2.3-6.6.25-4.7-.15-8.2-.8.3-.15.55-.3.25-.2.3-.4.05-.2-.15-.4v-.05q-.25-.3-.05-.65.05-.2.25-.35l9.25.65q0 .05.05.15.1.65.8.95.75.25 1.35-.2.1-.15.25-.3v.1q.2.65.95.85.75.15 1.3-.4l.1-.1q.2.55.95.75.75.15 1.25-.4l.05-.05q.25.7 1.05.9.75.15 1.25-.4.3-.4.45-1.15l23.05 1.65q.7.05.85-1.4 0-1-.3-1.35l1.55.4q.7.1 1.05-1.25.25-1.4-.4-1.55l-20.1-4.65q-.05-.25-.05-.45-.15-1.15-.9-1.3-.15-.05-.25-.05.15-1.35 1-3h.05q.6-1.3 1.2-1.95.9 1.75 2.8 2.75l.3.2-.1-.35q-.8-2.3.3-3.6 1.85.9 3.2.85l.35-.05-.25-.2q-.8-.6-.9-1.8-.15-1.1.2-2 .8.55 2.25.9 1.35.3 2.35.15l.3-.05-.25-.2q-.95-.55-1.8-2.35-.75-1.7-1.1-2.35 3.5.65 4.25 2.15l.2.35.05-.35q.3-2.35-1.05-3.75 1.6-.1 2.7-1.05.95-.8 1.85-2.6l.1-.3-.3.15q-.7.25-1.95.4-.9.05-1.5.1 1.05-.7 2.15-2.45l.25-.4-.4.2q-.95.4-2.15.5-1.1 0-1.8-.25 1.3-.25 2.55-.75 2-.8 2.8-1.9l.15-.2h-.25q-1.35-.15-2.35-1.75-.65-1.05-1.5-1.4 2.5-.15 4.15.45h.05q2.1.6 2.75-.05 1.35.15 5.95.95 4.95.8 6.6 1.25 1.7.45 2.5-.5.65-.85.1-1.95 1.35-.5 1.7-1.8.25-1.05-.2-1.7 1.3-.25 1.3-1.7 0-1.35-.85-1.75.6-.55.6-1.2-.05-.9-.9-1.25.1-1.1 0-1.6-.25-.95-1.25-1.15-.1-1-.55-1.5-.45-.6-1.55-1-1.5-.5-5.7.9h.05q-2.45.65-8.5 1.1-1.4-.7-5.05-1.35-2.4-.45-3.55-.65.35-.15.85-.35v-.05q.9-.45 3.15-1.75 2.2-1.3 2.9-2 1.15-.6 4.6-2.5h.05q1.3-.8 1.7-1.45.4-.65-.05-1.15.8-.55 1.1-1 .25-.5 0-.95.7-.35.95-1.05.2-.65-.05-1.1 1.8-.8 1.65-2.35 2.25-.95 1.85-2.75 1.2-1.1.8-2.7 1.5-1.3 1.15-2.95.7-.7.8-1.7v-.05q.05-1.05-.5-1.55.85-1.2.55-2.1v.05q-.2-.65-.9-.65-.6-.05-1.7.5-2.2 1.05-5.3 2.2-3.15 1.1-4.6 1.45-.15-.7-.85-.75-.75-.05-2.15.65-1.55.75-4.1 1.55-2.45.7-4.05.95-.05-.65-.25-1.25l-.1-.15-.1.1q-1.7 1.25-6.25 3-3.85 1.45-6 2-.05-1.1-.3-1.9l-.15-.3-.1.35q-.65 2-5.05 3.35-5.6 1.25-7.95 1.85-5.1 1.3-7.6 3.25-3.85 3.05-1.4 7.35-1.3 1.85-4.55 3.8-3.3 1.95-3.75 2.75m-5.65 15.35q.1-1 1.8-2.05.95-.6 4.2-1.95 5.9-2.65 6.45-2.95 4.2-2.3 5.95-5.3.3.9-.05 1.95-.45 1-1.25 1.75l-.4.35.15.15.4-.3q.8-.7 2.35-1 1.25-.35 2.45-.3-.8.65-1.8 2.15-1.95.35-3 1.35l.15.2q.95-.95 2.8-1.3h.15q1.45-.3 2.95-.15-1.15 1.4-2.75 2.65-1.4.3-2.55 1l.15.2q1.1-.7 2.5-.95 1.5-.3 3-.25.95 0 1.55.2-.55.15-1.3.75-1.9 1.45-2.05 1.55l-.05.05-.1.05q-1.4.85-2.7.75l-.05.25q1.45.15 3-.85 1.1-.15 2.8 1.15-.85.1-2.2 1-.7.45-1.2.8-.05-.05-.1 0h-.05q-.7.3-1.05.4-2.75.1-6.2 1.4-3.75 1.45-6.45 3.65-.7.2-1.45-.5-.45-.35-1.45-.45h-.05q-.5-.05-.95 0l-.05-.05q-.3-.15-1.85-.2-1.6 0-2.5-.6-.75-.5-.5-1.05 1.05-1.5 1.3-3.55m-3.1 5.15q.95-.9 1.45-1.35-.05.55.7 1 .95.6 2.65.65 1.45 0 1.7.15h-.05l.05.05-.05.05q-.15.15-.55.35-.4.25-1.5 1.3h-.05v.05q-1.15 1.15-1.7 1.55-.25.2-.45.35l-.05.05q-.4.35-.55.65-.3.55-.2 1.55-1.55-.15-2.3-1.5-.7-1.25-.45-2.65.15-1.25 1.35-2.25m6.65.75q.1-.1.1-.2.45-.05.9 0 .95.05 1.35.4.65.6 1.25.6-.65.5-1.35 1.3v-.05q-.9.9-2.1 1.55-1.2.55-2.85.35-.95-.15-1.45-.45.1-.1.3-.25.6-.4 1.75-1.6 1.1-1.05 1.5-1.3l-.05.05q.45-.25.65-.4m57.9 26.9q-.3 1.1-.75 1.05l-20.05-4.7q.25-.55.4-1.15.15-.6.15-1.1l20.05 4.65q.4.1.2 1.25m-2.3 2.25q-.1 1.15-.6 1.15l-23-1.65q0-.15.05-.3.05-1.25-.2-2.05l23.35 1.65q.4.1.4 1.2m-21.25-18.3q1.15 1.05 3.45.5.1 1.45.75 2.4-.65.65-1.3 2.1-.9 1.7-1.05 3.1-.45.05-.7.3h.05q-.15.1-.2.25-.25-.85-.9-.95-.85-.2-1.3.25h.05q-.1.05-.15.15-.15-.85-.75-1.05-.85-.25-1.3.1-.1.05-.15.1-.1-.8-.75-1-.15-.05-.25-.05l.15-.05.05-.05q.9-.55 2.2-2.25l.05-.05q.1-.2.25-.35.05-.1.1-.15l1.45-2.65q.15-.35.25-.65m2.1 8.35q.1 0 .2.05.6.1.7 1.05v.05q0 .15.05.35v.25q0 .5-.15 1.1-.15.6-.4 1.15-.1.1-.15.2-.2.35-.45.65-.8.95-1.75.95-.3-.05-.5-.15-.15-.05-.2-.1.2-.25.4-.45.8-1.05 1.15-2.35.25-1 .1-1.95-.05-.1-.05-.15.15-.25.3-.4.2-.2.5-.2.1-.05.25-.05m-5.1-5.05q.4.3.65.45-1.2 1.6-2.1 2.15l-.1.05q.7-1.05 1.5-2.65h.05m-.7 4.5q-.05.15-.05.25-.05.9-.45 1.65-1.05 2.1-2.35 2.6-.1.05-.25.1-.45.15-.9.1-.8-.15-1.1-1.05-.35-.8-.1-1.5.1 0 .2.05.55.05 1-.05.35-.1.6-.4.15-.15.7-1.65 0-.05.05-.1 0-.05.05-.15.35-.85.8-1.1h.05q.4-.25 1.15-.05h-.05q.55.2.65 1.05v.25m.25-.2q.1-.15.25-.25.4-.25 1.05-.05.55.2.65 1.15-.05.05 0 .15-.05.25-.05.55-.1.65-.3 1.3-.35.8-.8 1.45-.3.35-.6.65-.3.25-.6.45l-.2.1q-.65.3-1.3.25-.7-.1-1.1-.8 1.35-.6 2.45-2.75.45-.9.55-2v-.2m2.45.55q.35-.35 1.05-.2.55.1.75 1 0 .1.05.25 0 .15.05.3.05.75-.15 1.55-.3 1.25-1.1 2.25l-.4.4-.2.2q-.65.45-1.45.5-.8-.05-1.25-.9-.05-.15-.1-.25.3-.2.65-.5.95-.85 1.5-2.2.35-.95.35-1.95v-.1q.1-.2.25-.35m-1.95 6.35q.25.1.55.15.9 0 1.65-.6l.05.05q-.55.85-.75 1.15l-1.1-.05q-.15-.4-.4-.7m2.45-.25q.3.15.65.15 1.05.05 1.95-1.05.3-.35.5-.75l17.95 4.2-21.65-1.5.6-1.05m-17.25-9.2q.35-1.35.8-2.25.35-.65.65-.7.2-.05.4.4.45 1.15 2.75 2.8 2.1 1.45 3.45 1.85l3.05.7q-.5 1.35-.65 1.5v.05q-.4.45-1.3.35l-1.45-.35h-.15q-.1-.05-.15-.05-1.35-.25-3.8.15-2.75.45-3.65 1.3-.4.3-.55.2-.2-.2-.2-.9-.05-.95.2-2.35l.45.1.05-.25-15.6-3.65H354.9q-1.35-.3-3.6.8-1.7.8-3.15 2-1.6-2.4-4.95-4.95-2.65-1.95-4.8-2.95 2.45.05 5.6-.5 4.2-.8 6.6-2.2.85 1.7 2 3.25 1.5 1.85 2.85 2.3l-.05-.05q.15.05.2.1l15.6 3.7.05-.25-.5-.15m-4.4 8.75q.1.1.2.25.25.3.5.7.45.6.5 1 0 .3-.3.45l-.3.2q-.15.1-.25.25t-.15.3q-.25.5.1.95h.05q.1.1.1.2-.05.1-.25.25-.5.3-1.05.35h-.55v.15l.5.1q3.75.8 8.9.95 4.2.05 6.4-.25-.7 1.1-1.25 1.4l-.4.2.45.05h.05q7.7.6 10.55-1.25-.25 1.55-.8 2.1l-.15.2.25.05q.85.15 3.3.05 2.25-.1 3.2-.3-1.1 1.75-4.6 1.3l-.45-.05.35.25q.8.7 3.25 1.9 2.15 1 3.5 1.35-1.3.4-3.9.1-2.7-.4-4.2-1.05l-.3-.15.15.3q.4 1 1.8 2.35 1.2 1.15 2.45 1.8-1.8 1-4.05-.25-1.85-1.05-3.6-3.3l-.3-.4-.15.1.25.45q.4.55.6 1.8.2 1.1.05 1.7-1.15-1.9-3.95-3.55h-.05q-2.5-1.4-4.7-1.75l-.5-.1-.05.15.45.2q1.35.4 1.9 1.5.35.75.3 1.55-1.5-1.45-2.9-1.3-1.3.1-1.8 1.45-1.35-2.5-4.5-3.8-2.55-1.15-5.3-1.1-1.15-.05-2.55-1.15-1.6-1.25-4.35-1.4-1.75-.15-3.15-1.95-1.85-2.4-2.65-2.8-1.4-.75-1.3-1.55.1-.5.95-1.7.7-.9 1.8-1.05 1.05-.2 1.6.5.4.5 2-.15 1.55-.7 2.55.05.45.35 1.15.9v.05q.6.25 1.25-1 .25-.5.75-.5t1.25.55q.65.55 1.35 1.4m.9.8q-.2-.3-.35-.5l10.3.7q-.3.45-.55 1.05-.3.7-.35 1.2l-8.95-.6h-.05q0-.05.05-.05v.05q.5-.25.45-.75-.05-.45-.55-1.1m14.7-7l-1.4-.3q.5-.25 1.3-.45.3-.1.7-.25-.35.35-.6 1m-2.6 2.3q-.25.65 0 1.4l-1.05.5-.1-.35q-.1-1.05.15-1.8l1 .25M378 417.8l.15.4 1.3-.6q.35 1 1.3 1.2.55.05 1.05-.1.45.85 1.3.95.7.1 1.45-.25.05.1.1.25.25.4.55.65-.55.3-.95.8h-.45q-.2-.7-.6-1.1l-.05-.05-.1.05q-.6.3-1.05.95h-.3q-.2-.8-.65-1.25l-.05-.05-.1.05q-.7.35-1.2 1.1h-.15q-.1-.8-.55-1.25l-.05-.1-.1.05q-.85.25-1.5 1.15l-2.45-.2q-.55-.35-.6-1 .8.05 2.1-.6.95-.5 1.6-1.05m-.3 2.85q.5-.65 1.2-.9.3.4.35 1 0 .1.05.25v.55q-.05.5-.2 1.15-.1.35-.25.6-.05.15-.1.25-.05.05-.05.1-.2.3-.35.45-.45.35-1.1.15-.6-.2-.7-.75v-.1-.25q.05-.5.35-1.15.25-.65.65-1.1.05-.15.15-.25m5.95.65q.05.35.1.8 0 .45-.05 1.05-.1.25-.1.5v.05q-.05.1-.05.2-.1.3-.25.55-.1.1-.15.2-.4.4-1.05.3-.65-.15-.8-.65v-.15q.05-.2.15-.4.05-.1.1-.25.05-.3.15-.6.05-.55.1-1.05.15-.35.35-.65.05-.1.15-.2.35-.5.8-.75.3.3.45.8.05.1.1.25m.3.35q-.05-.2-.05-.3h.2q-.1.1-.15.3m.05.5q.15-.45.4-.8.05-.1.15-.2.3-.4.7-.6.25.25.4.65.05.1.1.25.25.85.2 2.1-.05.15-.05.3 0 .1-.05.25-.1.65-.4 1-.35.4-1 .3-.75-.2-.85-1 .1-.2.2-.45 0-.15.05-.25l.1-.5q.05-.6.05-1.05m-2.55-1.25q0 .1.05.25.05.3.05.65-.05.4-.1.95v.1q-.1.35-.2.65-.05.1-.05.25-.1.2-.2.35l-.2.3q-.4.4-1.05.3-.6-.15-.75-.65-.05-.15-.05-.35 0-.05.05-.1.05-.15.15-.25l.2-.6q.15-.65.2-1.15.1-.3.3-.55.05-.15.15-.25.4-.55.95-.85.35.35.5.95m.4.3q-.05.05-.1.15v-.15h.1m-24.05-18.1l1.35.35q.6.1.75.2.15.15.05.5v.05l-.45 1.8v.1l-.55 2.25-3.2-.8.95-4.05q.1-.45.35-.5.2-.05.75.1m3.6 3.05q.35.05.45.15h.05q.05.1.05.35l-.55 2.25-2.2-.5.55-2.25q0-.1.05-.15.05-.15.15-.15.15-.05.5.05l.95.25m-7.15 8.7q-.2-.15-.05-.55l.9-4.05 3.25.8-.95 4.05q-.1.35-.3.45-.2 0-.75-.15l-1.4-.3q-.6-.15-.7-.25m6-1.05q-.05.25-.15.3-.15-.05-.55-.1l-.95-.2q-.6-.15-.5-.55l.5-2.15 2.15.5-.5 2.2m-6.15-21.9v-.05q.85.45 1.65-.05.7-.45.5-1.5-.2-.95-.85-1.15 2.1-1.15 2.95-1.8l-.45.9q-.5 1-.4 1.7h.25q-.05-.7.4-1.6h-.05l.75-1.5.15-.45-.1-.05-.3.4v.05q-.5.65-3.45 2.2-2.75 1.4-2.8 3.4h.25q0-.85.6-1.6.15.7.9 1.1m-.7-1.35q.3-.35.7-.65 1.15.4 1.35 1.5l.25-.05q-.2-1.2-1.3-1.65.3-.2.65-.35.75.05.95 1 .15.9-.4 1.25-.65.4-1.4.05-.75-.35-.8-1.1z"/><path fill="#FFF215" d="M360.1 414.1q.1-.05.15-.3l.5-2.2-2.15-.5-.5 2.15q-.1.4.5.55l.95.2q.4.05.55.1m-5.9.2q-.15.4.05.55.1.1.7.25l1.4.3q.55.15.75.15.2-.1.3-.45l.95-4.05-3.25-.8-.9 4.05m7.65-8q-.1-.1-.45-.15l-.95-.25q-.35-.1-.5-.05-.1 0-.15.15-.05.05-.05.15l-.55 2.25 2.2.5.55-2.25q0-.25-.05-.35h-.05m-2.7-2.85l-1.35-.35q-.55-.15-.75-.1-.25.05-.35.5l-.95 4.05 3.2.8.55-2.25v-.1l.45-1.8v-.05q.1-.35-.05-.5-.15-.1-.75-.2m22.6 17.9q.05-.1.1-.15h-.1v.15m-.25-.2q-.05-.15-.05-.25-.15-.6-.5-.95-.55.3-.95.85-.1.1-.15.25-.2.25-.3.55-.05.5-.2 1.15l-.2.6q-.1.1-.15.25-.05.05-.05.1 0 .2.05.35.15.5.75.65.65.1 1.05-.3l.2-.3q.1-.15.2-.35 0-.15.05-.25.1-.3.2-.65v-.1q.05-.55.1-.95 0-.35-.05-.65m2.9.2q-.25.35-.4.8 0 .45-.05 1.05l-.1.5q-.05.1-.05.25-.1.25-.2.45.1.8.85 1 .65.1 1-.3.3-.35.4-1 .05-.15.05-.25 0-.15.05-.3.05-1.25-.2-2.1-.05-.15-.1-.25-.15-.4-.4-.65-.4.2-.7.6-.1.1-.15.2m-.5 0q0 .1.05.3.05-.2.15-.3h-.2m-.15.75q-.05-.45-.1-.8-.05-.15-.1-.25-.15-.5-.45-.8-.45.25-.8.75-.1.1-.15.2-.2.3-.35.65-.05.5-.1 1.05-.1.3-.15.6-.05.15-.1.25-.1.2-.15.4v.15q.15.5.8.65.65.1 1.05-.3.05-.1.15-.2.15-.25.25-.55 0-.1.05-.2v-.05q0-.25.1-.5.05-.6.05-1.05m-4.85-2.35q-.7.25-1.2.9-.1.1-.15.25-.4.45-.65 1.1-.3.65-.35 1.15v.35q.1.55.7.75.65.2 1.1-.15.15-.15.35-.45 0-.05.05-.1.05-.1.1-.25.15-.25.25-.6.15-.65.2-1.15V421q-.05-.15-.05-.25-.05-.6-.35-1m-.75-1.55l-.15-.4q-.65.55-1.6 1.05-1.3.65-2.1.6.05.65.6 1l2.45.2q.65-.9 1.5-1.15l.1-.05.05.1q.45.45.55 1.25h.15q.5-.75 1.2-1.1l.1-.05.05.05q.45.45.65 1.25h.3q.45-.65 1.05-.95l.1-.05.05.05q.4.4.6 1.1h.45q.4-.5.95-.8-.3-.25-.55-.65-.05-.15-.1-.25-.75.35-1.45.25-.85-.1-1.3-.95-.5.15-1.05.1-.95-.2-1.3-1.2l-1.3.6m1.2-.85q-.25-.75 0-1.4l-1-.25q-.25.75-.15 1.8l.1.35 1.05-.5m1.2-4l1.4.3q.25-.65.6-1-.4.15-.7.25-.8.2-1.3.45m-13.25 9.15h.05v-.05q-.05 0-.05.05m-.4-2.35q.15.2.35.5.5.65.55 1.1.05.5-.45.75l8.95.6q.05-.5.35-1.2.25-.6.55-1.05l-10.3-.7m-.35-.05q-.1-.15-.2-.25-.7-.85-1.35-1.4-.75-.55-1.25-.55t-.75.5q-.65 1.25-1.25 1v-.05q-.7-.55-1.15-.9-1-.75-2.55-.05-1.6.65-2 .15-.55-.7-1.6-.5-1.1.15-1.8 1.05-.85 1.2-.95 1.7-.1.8 1.3 1.55.8.4 2.65 2.8 1.4 1.8 3.15 1.95 2.75.15 4.35 1.4 1.4 1.1 2.55 1.15 2.75-.05 5.3 1.1 3.15 1.3 4.5 3.8.5-1.35 1.8-1.45 1.4-.15 2.9 1.3.05-.8-.3-1.55-.55-1.1-1.9-1.5l-.45-.2.05-.15.5.1q2.2.35 4.7 1.75h.05q2.8 1.65 3.95 3.55.15-.6-.05-1.7-.2-1.25-.6-1.8l-.25-.45.15-.1.3.4q1.75 2.25 3.6 3.3 2.25 1.25 4.05.25-1.25-.65-2.45-1.8-1.4-1.35-1.8-2.35l-.15-.3.3.15q1.5.65 4.2 1.05 2.6.3 3.9-.1-1.35-.35-3.5-1.35-2.45-1.2-3.25-1.9l-.35-.25.45.05q3.5.45 4.6-1.3-.95.2-3.2.3-2.45.1-3.3-.05l-.25-.05.15-.2q.55-.55.8-2.1-2.85 1.85-10.55 1.25h-.05l-.45-.05.4-.2q.55-.3 1.25-1.4-2.2.3-6.4.25-5.15-.15-8.9-.95l-.5-.1v-.15h.55q.55-.05 1.05-.35.2-.15.25-.25 0-.1-.1-.2h-.05q-.35-.45-.1-.95.05-.15.15-.3.1-.15.25-.25l.3-.2q.3-.15.3-.45-.05-.4-.5-1-.25-.4-.5-.7m5-11.25q-.45.9-.8 2.25l.5.15-.05.25-15.6-3.7q-.05-.05-.2-.1l.05.05q-1.35-.45-2.85-2.3-1.15-1.55-2-3.25-2.4 1.4-6.6 2.2-3.15.55-5.6.5 2.15 1 4.8 2.95 3.35 2.55 4.95 4.95 1.45-1.2 3.15-2 2.25-1.1 3.6-.8H355.05l15.6 3.65-.05.25-.45-.1q-.25 1.4-.2 2.35 0 .7.2.9.15.1.55-.2.9-.85 3.65-1.3 2.45-.4 3.8-.15.05 0 .15.05h.15l1.45.35q.9.1 1.3-.35v-.05q.15-.15.65-1.5l-3.05-.7q-1.35-.4-3.45-1.85-2.3-1.65-2.75-2.8-.2-.45-.4-.4-.3.05-.65.7m14.55 11.85q-.3-.05-.55-.15.25.3.4.7l1.1.05q.2-.3.75-1.15l-.05-.05q-.75.6-1.65.6m2.45-6.7q-.7-.15-1.05.2-.15.15-.25.35v.1q0 1-.35 1.95-.55 1.35-1.5 2.2-.35.3-.65.5.05.1.1.25.45.85 1.25.9.8-.05 1.45-.5l.2-.2.4-.4q.8-1 1.1-2.25.2-.8.15-1.55-.05-.15-.05-.3-.05-.15-.05-.25-.2-.9-.75-1m-3.25-.6q-.15.1-.25.25v.2q-.1 1.1-.55 2-1.1 2.15-2.45 2.75.4.7 1.1.8.65.05 1.3-.25l.2-.1q.3-.2.6-.45.3-.3.6-.65.45-.65.8-1.45.2-.65.3-1.3 0-.3.05-.55-.05-.1 0-.15-.1-.95-.65-1.15-.65-.2-1.05.05m-.55.7q0-.1.05-.25v-.25q-.1-.85-.65-1.05h.05q-.75-.2-1.15.05H383q-.45.25-.8 1.1-.05.1-.05.15-.05.05-.05.1-.55 1.5-.7 1.65-.25.3-.6.4-.45.1-1 .05-.1-.05-.2-.05-.25.7.1 1.5.3.9 1.1 1.05.45.05.9-.1.15-.05.25-.1 1.3-.5 2.35-2.6.4-.75.45-1.65m1.4-4.3q-.25-.15-.65-.45h-.05q-.8 1.6-1.5 2.65l.1-.05q.9-.55 2.1-2.15m4.65 4.65q-.1-.05-.2-.05-.15 0-.25.05-.3 0-.5.2-.15.15-.3.4 0 .05.05.15.15.95-.1 1.95-.35 1.3-1.15 2.35-.2.2-.4.45.05.05.2.1.2.1.5.15.95 0 1.75-.95.25-.3.45-.65.05-.1.15-.2.25-.55.4-1.15.15-.6.15-1.1v-.25q-.05-.2-.05-.35v-.05q-.1-.95-.7-1.05m1.15-7.9q-2.3.55-3.45-.5-.1.3-.25.65l-1.45 2.65q-.05.05-.1.15-.15.15-.25.35l-.05.05q-1.3 1.7-2.2 2.25l-.05.05-.15.05q.1 0 .25.05.65.2.75 1 .05-.05.15-.1.45-.35 1.3-.1.6.2.75 1.05.05-.1.15-.15h-.05q.45-.45 1.3-.25.65.1.9.95.05-.15.2-.25h-.05q.25-.25.7-.3.15-1.4 1.05-3.1.65-1.45 1.3-2.1-.65-.95-.75-2.4m17.2 18.95q.5 0 .6-1.15 0-1.1-.4-1.2L386 421.5q.25.8.2 2.05-.05.15-.05.3l23 1.65m2.15-2.35q.45.05.75-1.05.2-1.15-.2-1.25l-20.05-4.65q0 .5-.15 1.1-.15.6-.4 1.15l20.05 4.7M354.25 395q0 .1-.1.2-.2.15-.65.4l.05-.05q-.4.25-1.5 1.3-1.15 1.2-1.75 1.6-.2.15-.3.25.5.3 1.45.45 1.65.2 2.85-.35 1.2-.65 2.1-1.55v.05q.7-.8 1.35-1.3-.6 0-1.25-.6-.4-.35-1.35-.4-.45-.05-.9 0m-5.3-1.9q-.5.45-1.45 1.35-1.2 1-1.35 2.25-.25 1.4.45 2.65.75 1.35 2.3 1.5-.1-1 .2-1.55.15-.3.55-.65l.05-.05q.2-.15.45-.35.55-.4 1.7-1.55v-.05h.05q1.1-1.05 1.5-1.3.4-.2.55-.35l.05-.05-.05-.05h.05q-.25-.15-1.7-.15-1.7-.05-2.65-.65-.75-.45-.7-1z"/><path fill="#866E48" d="M352.4 387.25q-1.7 1.05-1.8 2.05-.25 2.05-1.3 3.55-.25.55.5 1.05.9.6 2.5.6 1.55.05 1.85.2l.05.05q.45-.05.95 0h.05q1 .1 1.45.45.75.7 1.45.5 2.7-2.2 6.45-3.65 3.45-1.3 6.2-1.4.35-.1 1.05-.4h.05q.05-.05.1 0 .5-.35 1.2-.8 1.35-.9 2.2-1-1.7-1.3-2.8-1.15-1.55 1-3 .85l.05-.25q1.3.1 2.7-.75l.1-.05.05-.05q.15-.1 2.05-1.55.75-.6 1.3-.75-.6-.2-1.55-.2-1.5-.05-3 .25-1.4.25-2.5.95l-.15-.2q1.15-.7 2.55-1 1.6-1.25 2.75-2.65-1.5-.15-2.95.15h-.15q-1.85.35-2.8 1.3l-.15-.2q1.05-1 3-1.35 1-1.5 1.8-2.15-1.2-.05-2.45.3-1.55.3-2.35 1l-.4.3-.15-.15.4-.35q.8-.75 1.25-1.75.35-1.05.05-1.95-1.75 3-5.95 5.3-.55.3-6.45 2.95-3.25 1.35-4.2 1.95m1.7 4.6v.05q-.75-.4-.9-1.1-.6.75-.6 1.6h-.25q.05-2 2.8-3.4 2.95-1.55 3.45-2.2v-.05l.3-.4.1.05-.15.45-.75 1.5h.05q-.45.9-.4 1.6h-.25q-.1-.7.4-1.7l.45-.9q-.85.65-2.95 1.8.65.2.85 1.15.2 1.05-.5 1.5-.8.5-1.65.05m0-1.95q-.4.3-.7.65.05.75.8 1.1.75.35 1.4-.05.55-.35.4-1.25-.2-.95-.95-1-.35.15-.65.35 1.1.45 1.3 1.65l-.25.05q-.2-1.1-1.35-1.5z"/></g></defs><use xlink:href="#a" transform="matrix(.69427 0 0 .72885 -101.7 -234.35)"/><use xlink:href="#b" transform="matrix(.6943 0 0 .72888 -101.7 -234.35)"/><use xlink:href="#c" transform="matrix(.6943 0 0 .72888 -101.7 -234.35)"/><use xlink:href="#d" transform="matrix(.6943 0 0 .72888 -101.7 -234.35)"/></svg>