<svg xmlns="http://www.w3.org/2000/svg" xmlns:xlink="http://www.w3.org/1999/xlink" preserveAspectRatio="none" width="200" height="105"><defs><path fill="#009FDD" d="M182.5 465.5h216v-144h-216v144z" id="a"/><path fill="#FFF215" d="M182.5 433.5v8h216v-8h-216z" id="b"/><path fill="#FFF215" d="M182.5 417.5v8h216v-8h-216z" id="c"/><path fill="#FFF" d="M208.75 359.15l5.65 18.2 5.7-18.2 18.2-5.65-18.2-5.7-5.7-18.2-5.65 18.2-18.2 5.7 18.2 5.65z" id="d"/><path fill="#EE333E" d="M209.75 358.15l4.65 15.05 4.7-15.05 15-4.65-15-4.7-4.7-15-4.65 15-15 4.7 15 4.65z" id="e"/></defs><use xlink:href="#a" transform="matrix(.92587 0 0 .72917 -168.95 -234.45)"/><use xlink:href="#b" transform="matrix(.92587 0 0 .72917 -168.95 -234.45)"/><use xlink:href="#c" transform="matrix(.92587 0 0 .72917 -168.95 -234.45)"/><use xlink:href="#d" transform="matrix(.9259 0 0 .72917 -168.95 -234.45)"/><use xlink:href="#e" transform="matrix(.9259 0 0 .72917 -168.95 -234.45)"/></svg>