<svg xmlns="http://www.w3.org/2000/svg" xmlns:xlink="http://www.w3.org/1999/xlink" preserveAspectRatio="none" width="200" height="105"><defs><g id="a"><path fill="#FC0" d="M77 0H27.25L77 49.95V0z"/><path fill="#FFF" d="M19.65 0h-3.9l-1 3.35 2.8-1.95 3.1 2.1-1-3.5m44.8 47.6H62.9l2.85 2.2v.25h3.9v-.1l-.15-.15 3-2.1-3.65-.1-1.15-3.5-1.3 3.5h-1.95m-4.9-3.6l-1 3.45 2.8-1.95 3.1 2.1L63.3 44l3-2.1-3.65-.15-1.15-3.45-1.3 3.45h-3.5L59.55 44m-21.7-27.45L36.7 13.1l-1.3 3.45h-3.5l2.85 2.25-1.05 3.45 2.85-1.95 3.1 2.1-1.15-3.6 2.95-2.1-3.6-.15M24.15.8l-1.3 3.45H19.4l2.8 2.25-1 3.4 2.85-1.95 3.1 2.05-1.2-3.5 3-2.15-3.65-.1L24.15.8m11 9.6l-3.6-.1-1.2-3.5-1.3 3.5H25.6l2.8 2.2-1 3.45L30.25 14l3.1 2.1-1.2-3.6 3-2.1m21.3 24.8l-1.15-3.45L54 35.2h-3.5l2.85 2.25-1 3.45 2.8-1.95 3.1 2.1-1.15-3.6 3-2.1-3.65-.15m-4.4-.35L50.9 31.3l3-2.1-3.65-.15-1.15-3.45-1.3 3.45h-3.5l2.85 2.25-1.05 3.45 2.85-2 3.1 2.1M47.65 23l-3.6-.15-1.15-3.4-1.3 3.4h-3.5l2.85 2.2-1.05 3.5 2.85-2 3.1 2.1-1.15-3.6L47.65 23z"/><path fill="#0D2B88" d="M58.55 47.45l1-3.45-2.85-2.25h3.5l1.3-3.45 1.15 3.45 3.65.15-3 2.1 1.15 3.6h1.95l1.3-3.5 1.15 3.5 3.65.1-3 2.1.15.15H77L27.25 0h-7.6l1 3.5-3.1-2.1-2.8 1.95 1-3.35H0v49.95h65.75v-.15l-2.85-2.2h1.55l-3.1-2.1-2.8 1.95m-14.5-24.6l3.6.15-2.95 2.05 1.15 3.6-3.1-2.1-2.85 2 1.05-3.5-2.85-2.2h3.5l1.3-3.4 1.15 3.4m6.85 8.45l1.15 3.55-3.1-2.1-2.85 2 1.05-3.45-2.85-2.25h3.5l1.3-3.45 1.15 3.45 3.65.15-3 2.1m4.4.45l1.15 3.45 3.65.15-3 2.1 1.15 3.6-3.1-2.1-2.8 1.95 1-3.45-2.85-2.25H54l1.3-3.45M31.55 10.3l3.6.1-3 2.1 1.2 3.6-3.1-2.1-2.85 1.95 1-3.45-2.8-2.2h3.45l1.3-3.5 1.2 3.5m-8.7-6.05L24.15.8l1.15 3.45 3.65.1-3 2.15 1.2 3.5-3.1-2.05L21.2 9.9l1-3.4-2.8-2.25h3.45M36.7 13.1l1.15 3.45 3.6.15-2.95 2.1 1.15 3.6-3.1-2.1-2.85 1.95 1.05-3.45-2.85-2.25h3.5l1.3-3.45M100 49.95V0H77v49.95h23z"/></g></defs><use xlink:href="#a" transform="scale(2 2.0979)"/></svg>