<svg xmlns="http://www.w3.org/2000/svg" xmlns:xlink="http://www.w3.org/1999/xlink" preserveAspectRatio="none" width="200" height="105"><defs><path fill="#E1474A" d="M146.6 465.65h288v-144h-288v144z" id="a"/><path fill="#FFF" d="M146.6 327.4v3l30.5 15.25h-30.5v4.95h64.95v-28.95h-5.1v21.25l-42.5-21.25H146.6l48.1 24h-11.6l-36.5-18.25z" id="b"/><path fill="#373535" d="M146.45 330.45l.1.05 30.05 15h-30.15v5.2h65.2v-29.2h-5.35v21.2L164 321.55l-.05-.05h-17.9l.55.25h17.35l42.6 21.35v-21.35h4.85v28.7h-64.7v-4.7h30.9l-30.9-15.4v-2.75l36.35 18.15h12.15l-.5-.25h-11.6l-36.65-18.3v3.25z" id="c"/><path fill="#FFF" d="M146.6 384.9v3l36.5-18.25h11.6l-48.1 24h17.35l42.5-21.25v21.25h5.1V364.7H146.6v4.95h30.5l-30.5 15.25z" id="d"/><path fill="#373535" d="M146.45 364.55v5.2h30.15l-30.05 15.05h-.1v3.3l36.65-18.35h11.6l.5-.25h-12.15v.05L146.7 387.7v-2.75l30.9-15.45h-30.9v-4.7h64.7v28.7h-4.85v-21.3l-42.6 21.3H146.6l-.55.25H164l42.3-21.15v21.15h5.35v-29.2h-65.2z" id="e"/><path fill="#FFF" d="M230.7 321.65h-5.1v28.95h64.95v-4.95h-30.5l30.5-15.25v-3l-36.5 18.25H242.5l48.05-24H273.2l-42.5 21.25v-21.25z" id="f"/><path fill="#373535" d="M230.8 321.5h-5.35v29.2h65.2v-5.2h-30.1l30.05-15 .05-.05v-3.25l-36.6 18.3H242.5l-.55.25h12.15l36.3-18.15v2.75l-30.9 15.4h30.9v4.7h-64.7v-28.7h4.85v21.35l42.65-21.35h17.35l.5-.25h-17.9v.05L230.8 342.7v-21.2z" id="g"/><path fill="#FFF" d="M225.6 364.7v28.95h5.1V372.4l42.5 21.25h17.35l-48.05-24h11.55l36.5 18.25v-3l-30.5-15.25h30.5v-4.95H225.6z" id="h"/><path fill="#373535" d="M241.95 369.5l.55.25h11.55l36.6 18.35v-3.3h-.05l-30.05-15.05h30.1v-5.2h-65.2v29.2h5.35v-21.2l42.35 21.2h17.9l-.5-.25H273.2l-42.65-21.3v21.3h-4.85v-28.7h64.7v4.7h-30.9l30.9 15.45v2.75l-36.3-18.15-.05-.05h-12.1z" id="i"/><g id="j"><path fill="#373535" d="M146.45 330.2v15.55h31.15l-31.15-15.55m.25 15.3v-14.9l29.9 14.9h-29.9z"/><path fill="#21467B" d="M146.7 330.6v14.9h29.9l-29.9-14.9z"/></g><g id="k"><path fill="#373535" d="M206.55 343.1v-21.6H163.4l43.15 21.6m-.25-21.35v20.95l-41.85-20.95h41.85z"/><path fill="#21467B" d="M206.3 342.7v-20.95h-41.85l41.85 20.95z"/></g><g id="l"><path fill="#373535" d="M146.45 369.5v15.6l31.15-15.6h-31.15m.25 15.2v-14.95h29.9l-29.9 14.95z"/><path fill="#21467B" d="M146.7 369.75v14.95l29.9-14.95h-29.9z"/></g><g id="m"><path fill="#373535" d="M206.55 393.75V372.2l-43.15 21.55h43.15m-.25-21.15v20.9h-41.85l41.85-20.9z"/><path fill="#21467B" d="M206.3 393.5v-20.9l-41.85 20.9h41.85z"/></g><g id="n"><path fill="#373535" d="M290.65 345.75V330.2l-31.15 15.55h31.15m-.25-15.15v14.9h-29.85l29.85-14.9z"/><path fill="#21467B" d="M290.4 345.5v-14.9l-29.85 14.9h29.85z"/></g><g id="o"><path fill="#373535" d="M230.55 321.5v21.6l43.15-21.6h-43.15m.25 21.2v-20.95h41.9l-41.9 20.95z"/><path fill="#21467B" d="M230.8 321.75v20.95l41.9-20.95h-41.9z"/></g><g id="p"><path fill="#373535" d="M290.65 385.1v-15.6H259.5l31.15 15.6m-.25-15.35v14.95l-29.85-14.95h29.85z"/><path fill="#21467B" d="M290.4 384.7v-14.95h-29.85l29.85 14.95z"/></g><g id="q"><path fill="#373535" d="M230.55 372.2v21.55h43.15l-43.15-21.55m.25 21.3v-20.95l41.9 20.95h-41.9z"/><path fill="#21467B" d="M230.8 372.55v20.95h41.9l-41.9-20.95z"/></g><g id="r"><path fill="#373535" d="M387.65 362.25H337.5v42q.02 4.985.95 7.2 1.086 2.527 4.55 5 3.385 2.363 8.65 4.7 5.613 2.526 10.9 3.85h.05q5.337-1.324 10.95-3.85 5.265-2.337 8.6-4.7 3.514-2.473 4.55-5 .98-2.266.95-7.2v-42m-49.9.25h49.65v41.75q.02 4.866-.95 7.1-1.014 2.473-4.45 4.9-3.315 2.337-8.55 4.65-5.574 2.518-10.85 3.85-5.276-1.332-10.85-3.85-5.235-2.313-8.6-4.65-3.386-2.427-4.45-4.9-.92-2.185-.95-7.1V362.5z"/><path fill="#FFF" d="M387.4 362.5h-49.65v41.75q.03 4.915.95 7.1 1.064 2.473 4.45 4.9 3.365 2.337 8.6 4.65 5.574 2.518 10.85 3.85 5.276-1.332 10.85-3.85 5.235-2.313 8.55-4.65 3.436-2.427 4.45-4.9.97-2.234.95-7.1V362.5z"/></g><path fill="#73C270" d="M385.65 413.05q1.15-1.55 1.55-3.7.1-.85-.35-2.8-.2.95-1.1 2.05.25-.45.3-1.2.05-.8-.2-1.25-.15.85-1.05 2 .15-1.3-.3-2.4-.2 2.2-2 3.3 1-.8 1.3-2.45-.25.45-1.05 1.15.1-.95.6-1.5-.75.05-1.25.75.15-.5.85-1.3-.6.05-1.55 1.2-1 1.15-1.9 1.35.45-.4 1.1-1.35.7-1 1.1-1.35-.65 0-1.7.95.1-.65.7-1.25-.6 0-1.95 1.15.5-.5.75-2.05-.1.3-.95.7-.9-.2-3.15.9-.8.35-13.45-.7-12.7-1-13.05-.85-.9.45-1.3 1.15l-.15-.55q0 .05-.35.6-.4.5-.15 1.2-.55-.5-.4-1.25.15-.6.75-1.15-1.2.15-1.8 1.25-.25-1.15-.95-1.4.3.45.2 1.65 0-.6-.3-1.05 0 .45-.4 1.35-.65-.65-.45-1.7-.8.65-.75 1.8.05 1.1.75 1.7-1.9-1.35-1.4-4.65-.3.3-.55.95-.3.7-.3 1.15-.05-1.15.25-2.5-.92.505-1 1.55l.05-1.2q-.55.6-.95 1.85-.35 1.1-.3 1.8-.35-.55-.4-1.75 0-1.05.2-1.6-1.45 1.25-1.45 3.9.25 3.05 1.35 4.9 1.15 1.9 4 3.95 3.35 2.35 8.6 4.7 5.6 2.5 10.9 3.85 5.3-1.35 10.9-3.85 5.25-2.35 8.6-4.7 2.4-1.7 3.55-3.3z" id="s"/><path fill="#E1474A" d="M360.7 364.7q0 .1-.15.35-.15.2-.15.35-.1-.4-.35-.5.05.2-.15.5-.2.25-.2.45-.15-.55-.75-.65-.75-.1-.9-.25.1.25-.05 1.25.05.95 1.05 1.15-.7.45-.9 1.8-.2 1.4-.65 1.65-1.05.65-1.15.75-.5.4-.55 1 .25-.3.75-.6-.35.5-.3 1.4.05.95-.2 1.4-.7 1.15-.7 1.65.2-.3.8-.75.55-.45.75-.9 0 .25-.2.9-.2.9-2.05 2.65-1.2 1.75 1.05 3.8 1.9 1.5 7.65 1.8 6.65.35 7.65-3 .15-1.65-.8-3-1.05-1.5-1.1-2.4.55-.8.45-1.7-.15-.9-.9-1.65 0-.45-.2-.75t-.85-.8q-.45-.4-.45-1.45.05-1.05-.35-1.35.55-.1.8-.6.15-.2.05-.9-.15-.75-.1-1-.1.05-.9.15-.6.05-.95.5-.05-.25-.3-.5-.2-.25-.15-.5-.1.1-.3.15-.15.05-.2.2.1-.6-.05-.75 0 .1-.25.3-.246.197-.25.45-.002-.502-.25-.7 0 .1-.2.25-.2.2-.25.4.05-.25-.1-.4-.2-.2-.25-.3-.1.4-.65.75.1-.55-.3-.85.05.2-.15.5-.25.3-.25.45-.25-.55-.4-.95-.05.15-.25.45-.2.25-.25.4 0-.4-.2-.6z" id="K"/><path fill="#E1474A" d="M372.85 407q-1.4-.15-2.4.6-1.1.85-1.35 2.45.5.2.85.15 0 .3.25.55.1.6.55.6.1.1.35.25.3-.85.85-.7.55.15.05.8-.2.25-.15.6.05.4.35.6.65.55 1.4.25.75-.35.4-1t-.2-.75q.1-.15.65.3.2.2.35.9.1.6.85.9.5.25 1.1-.2.6-.45.5-1 .75.25 1.35-.1.55-.3.55-.9.65-.8.25-1.6-.4-.7-1.25-.8-.6-.05-1.3.2-.8.25-1.3.25-.6-.8-1.85-1.25-.25-.7-.85-1.1z" id="M"/><path fill="#E1474A" d="M342.3 393.25q-.35.9 0 1.9.4 1 .1 1.6-.8 1.75-.2 3.3.75 1.85.7 2.1-.15 1.5.85 2.2-.1-.65-.15-1-.1-.6.3-.95.25.9.85 1.35-.1-.3-.05-.9.1-.65.25-.95.3 1.25 1.1 1.9-.1-.3-.05-1 .045-.675 0-.9.263 1.163.9 1.85-.2-.9.2-1.6 2.95-4.3 3.6-6.1 1.15-2.95-.95-4.2-1-.75-2.4.15-1.4-.6-3.05-.2-1.6.45-2 1.45z" id="O"/><path fill="#E1474A" d="M382.65 395.35q-.1-1.25-1.05-1.95-1-.8-2.45-.5-.5-.5-1.7-.6-.95-.1-1.95.1-3.45 1.1-1.4 5.05 1.15 2.25 3.6 4.7.35 1.4.95 1.55-.3-.7-.2-1.3.2-.6.25-1 .05.7.6 1.7.6 1.15 1.25 1.2-.5-.6-.3-1.6 0-.2.45-1.5.2.25.35 1.6.1 1.3.3 1.55 0-.45.25-1.1.3-.7.3-.95.6.85.65 1.4.25-.65.3-1.6 0-1-.25-1.75-.55-1.45-.25-2.85.3-1.85.3-2.15z" id="Q"/><path fill="#E1474A" d="M352.35 407q-.6.4-.85 1.1-1.15.4-1.9 1.25-.5 0-1.25-.25-.7-.25-1.3-.2-.85.1-1.25.8-.4.8.25 1.6 0 .6.6.9.55.35 1.3.1-.1.5.35.85.5.35 1.1.25.55-.1.8-.75.3-.85.5-1.05.55-.45.9-.25.3.15-.05.75-.35.65.25 1t1.2-.2q.3-.2.35-.6.1-.35-.15-.6-.5-.65.05-.8.55-.15.85.7.25-.15.3-.25.5 0 .6-.6.25-.25.25-.55.15-.05.85-.15-.25-1.6-1.35-2.45-1-.75-2.4-.6z" id="S"/><path fill="#E1474A" d="M369.4 380q-.3 1.2.85 2.1 1.05.85 2.75.9 4.25.15 5.35-4.35-.75-.1-2.65.5-1.75.55-2.25.3-1.05.65-2.2.45-1.2-.2-1.85.1z" id="U"/><path fill="#E1474A" d="M351.85 382.95q3.7-.2 3.9-2.95-.6-.3-1.8-.1-1.15.2-2.2-.45-.55.25-2.3-.3-1.85-.6-2.6-.5 1.1 4.45 5 4.3z" id="W"/><path fill="#449BD5" d="M362.6 382.95q-.75 0-2.85-1.4-1.45-1-4.8.6-3 1.4-4.95.65-1.5-.55-2.75-2.65-.85.1-1.25 1-.5.95-.65 1 .25 1 1.15 2-.6.6-.25 1.45-.65-.15-1.25.4-.75.7-.9.75.3 1.35.3 2.05-.05.4.4.8.45.5 1.1.25-.5-1.2-.2-1.8.4-.85 2.1-.15 2.15.85 2.3 4.85.2 4.25-2.65 6.05-1.15 3.25 1.35 5.95 2.45 2.65 5.55 2.15.3 1.75 2.15 2.85.85.55 2.75 1.2.9.3.9 1.35-.05 1.05-.75.8.25.65.85.5.95-.4 2.35-.4 1.3 0 2.35.4.25.05.5-.1.25-.2.3-.4-.65.25-.7-.8-.05-1.05.85-1.35 1.9-.65 2.75-1.2 1.85-1.1 2.15-2.85 3.1.5 5.6-2.15 2.5-2.7 1.35-5.95-2.85-1.8-2.7-6.05.15-4 2.3-4.85 1.75-.7 2.15.15.3.6-.2 1.8.65.25 1.15-.25.4-.4.35-.8-.05-.5.3-2.05-.15-.05-.9-.75-.6-.55-1.25-.4.3-.9-.25-1.45.8-.9 1.15-2-.15-.05-.65-1-.4-.9-1.25-1-1.3 2.1-2.75 2.65-1.95.75-4.95-.65-3.35-1.6-4.8-.6-2.1 1.4-2.85 1.4z" id="bo"/><path fill="#373535" d="M360.9 371q.15.3.25.85.7-.15 1.8-.15 1.3 0 1.95.2-.25-.25 0-.95-.35.45-1.05.4-.55-.1-1-.4-.35.5-1 .45-.6 0-.95-.4z" id="bq"/><path fill="#373535" d="M363.85 370.95q.1 0 0-.2-.1 0-.1.1t.1.1z" id="br"/><path fill="#373535" d="M363.9 370.4q0-.1-.1-.1-.1.2 0 .2t.1-.1z" id="bs"/><path fill="#373535" d="M361.65 369.85q.45-.15.65.25-.35 0-.35.3.1-.1.25-.15.15 0 .2.1.1.1.2-.05.05-.15 0-.35-.1-.25-.4-.25-.3-.05-.55.15z" id="bt"/><path fill="#373535" d="M363.05 370.15q-.15.45.15 0 .1-.25.4-.25.45-.15 0-.15-.45-.1-.55.4z" id="bu"/><path fill="#373535" d="M362.45 370.9q.1 0 0-.2-.1 0-.1.1t.1.1z" id="bv"/><path fill="#373535" d="M367 366.5q.1-.65.15-.7-.25.05-.45.3-.2.3-.3.35-.3.15-.25.35 0 .15.1.5.1-.3.45-.45.3-.15.3-.35z" id="bw"/><path fill="#373535" d="M358.7 365.9q.45 0 .5.05-.05-.25-.4-.35-.35-.05-.4-.1-.15.7.5 1.4l.15-.45q-.3-.25-.35-.55z" id="bx"/><path fill="#373535" d="M361.55 366.8l-.65.2q-.15.2 0 .45.1.3.4.3.4 0 .5-.4.05-.35-.25-.55z" id="by"/><path fill="#373535" d="M364.45 367l-.6-.05q-.25.2-.2.55.1.35.45.35.4 0 .5-.35.1-.3-.15-.5z" id="bz"/><path fill="#EFE2C7" d="M354.25 384.85l-.1-.4q-.35-.1-.75 0l-.35.35-.7.2-.2-.35-.45.2-.05.4q-.4.25-.4.8H350l-.05-.15q-.7.1-.9.05v1q-.55.55-.6.85 1.05 1.25 1.65 3.9.75 3.2-.65 4.7-1.6 1.7-1.95 2.85-.35 1.15.25 2.95 2.95.75 7.6-1.1 3.75-1.5 6.9-3.85-.9-1.25-2.45-4.7-1.7-3.85-2.3-5.2-.55-1.35-.8-1.75-.3-.5-1.3-1.1-.2-.15-.55.1-.35.25-.6.25z" id="bA"/><path fill="#FFF" d="M360.95 393.75q.2 1.4 1.4 1.8.85.3 6.9 5.95 6 5.05 7.35 3.05 2.05-3.25 1.15-5.75-1.35-1.1-2.05-2.6-.9-1.9-.6-4-.55-.95-1.5-1.1-.8-.15-1.4.25-.45-1.1-1.85-1.4-1.4-.35-2.25.35-.75-.4-1.75-.15-1.05.3-1.3 1.05-.7-.65-1.85-.5-1.15.15-1.6 1.1-.85.55-.65 1.95z" id="bH"/><path fill="#D3B082" d="M371.15 395.75q-.65-.45-.95-.75v-.85l-.55.3-.15-1.15.15-.15-.1-.8-.35.15-.25-1.85-8.45 4-1.75 2.4.25 2.2-1.55.6q-1 5.5 3.45 5.9 2.15.2 11.1-1.6l.25-7.8q-.35-.1-1.1-.6z" id="cA"/><path fill="#D3B082" d="M362.55 393.7l.85-.4-3.45-6.8.15-.3-.9-.8.1 1.2.35.05 2.9 7.05z" id="cC"/><path fill="#D3B082" d="M359.2 387.05l.25.55 1.3-.8-.3-.45-1.25.7z" id="cE"/><path fill="#D3B082" d="M359.7 395.75l-4.25-8.9.15-.35-1-1 .05 1.45.45.05 3.75 9.9.85-1.15z" id="cG"/><path fill="#D3B082" d="M354.55 387.45l.3.65 1.55-.9-.35-.55-1.5.8z" id="cI"/><path fill="#FFF" d="M375.95 399.75q-.15-.65-.85-.95-.65-.3-1.3.05-1.4-.8-2.5-.2-1.15.6-1.25 2.15-1-.95-2-.6-.95.35-1.15 1.55-.3 1.85-2.9 2.55-2.7.7-3.65-1.25.7-.05.95-.85.25-.85-.4-1.4-.6-.55-1.4-.15-.8.35-.75 1.1-1.3-.95-1.2-2.2.1-.8-.9-1.05t-1.65.75q-.95.1-1.1.8-.4-.95-1.3-1.4-.85-.4-1.55-.2-.65.15-1.1.8-.45.7-.25 1.35-.45-.5-1.25-.6-.7-.1-1.35.2v.05q-.2 2.9 2.2 5 2.35 2.05 5.05 1.65.3 1.75 2.15 2.85.85.55 2.75 1.2.9.3.9 1.35-.05 1.05-.75.8.25.65.85.5.95-.4 2.35-.4 1.3 0 2.35.4.25.05.5-.1.25-.2.3-.4-.65.25-.7-.8-.05-1.05.85-1.35 1.9-.65 2.75-1.2 1.85-1.1 2.15-2.85 2.8.4 5.15-1.75 2.45-2.2 2.1-5.15-.15-.25-.95-.35-.8-.1-1.15.1z" id="dD"/><path fill="#FFD761" d="M360.8 383.85q.65-.25 1.8-.25t1.75.25l-.05-1.5q-.65-.4-1.7-.4-1.15 0-1.7.4l-.1 1.5z" id="eo"/><path fill="#FFD761" d="M359.4 380.7q-2.05-.6-3.8.45-2.45 1.45-4.35 1.3-2.7-.15-3.25-2.95l-.95.6q.85 3.3 4.2 3.45 2.3.1 4.2-1.2 1.25-.9 2.75-.8 1.4.1 2.15 1-.35-.15-.7.1-.3.25-.3.65 0 .8 1.05.8.4 0 .7-.35.3-.35.3-.9 0-1.55-2-2.15z" id="eq"/><path fill="#FFD761" d="M363.75 382.85q0 .55.3.9t.75.35q1.05 0 1.05-.8 0-.4-.35-.65-.3-.25-.65-.1.75-.9 2.15-1 1.5-.1 2.75.8 1.9 1.3 4.15 1.2 3.4-.15 4.25-3.45l-.95-.6q-.55 2.8-3.3 2.95-1.85.15-4.3-1.3-1.8-1.05-3.8-.45-2.05.6-2.05 2.15z" id="es"/><path fill="#FFD761" d="M347.2 388.1q.9.3 1.45 1.45 1.1 2.3.95 4.5-.25 2.95-2.9 4.45-.35 3.85 1.45 6.4 2 2.75 5.8 2.55.5 2.15 3.1 3.2 2.6 1 2.7 1.35-.7.1-.65.85.05.75.8.75 1.2 0 1.2-1.4 0-1.25-2.75-2.2-2.95-1.05-3.4-2.65.8.25 1-.55.25-.75-.55-1-.35-.1-.75.1.1-.35-.1-.65-.25-.3-.7-.3-.75 0-.8.75-.1.7.6.85-6-.7-5.9-7.5 2.9-1.85 2.9-5.85 0-2.6-.95-4.25t-2.6-1.95q-1.2-.15-1.9.45-.6.6-.6 1.5 0 .65.7.9.8.3 1.1-.5.3-.8-.5-1.1.5-.4 1.3-.15z" id="eu"/><path fill="#FFD761" d="M380.6 388.95q0-.9-.6-1.5-.7-.6-1.9-.45-1.7.3-2.6 1.95-.95 1.65-.95 4.25 0 4.05 2.85 5.85.15 6.75-5.9 7.5.7-.15.65-.85-.05-.75-.8-.75-.45 0-.7.3-.25.3-.15.65-.35-.2-.7-.1-.8.25-.55 1 .2.8 1 .55-.45 1.6-3.4 2.65-2.75.95-2.75 2.2 0 1.4 1.2 1.4.8 0 .85-.75.05-.75-.7-.85.1-.35 2.65-1.35 2.6-1.05 3.1-3.2 3.8.2 5.8-2.55 1.85-2.55 1.5-6.4-2.65-1.5-2.9-4.45-.2-2.2.9-4.5.55-1.15 1.5-1.45.8-.25 1.3.15-.8.3-.5 1.1.3.8 1.1.5.7-.25.7-.9z" id="ew"/><path fill="#E1474A" d="M378.45 378q-1.35 0-1.3 1.15 0 1.15 1.1 1.15 1.7 0 1.55-1.15-.15-1.15-1.35-1.15z" id="ey"/><path fill="#E1474A" d="M375.55 377q-1.2 0-1.25 1.25-.05 1.25 1.2 1.25 1.35 0 1.3-1.25-.1-1.25-1.25-1.25z" id="eA"/><path fill="#E1474A" d="M377.3 378.8q1.15 0 1.05-1.1-.1-1.1-1.25-1.1-.95 0-.9 1.1.05 1.1 1.1 1.1z" id="eC"/><path fill="#E1474A" d="M375.3 382.2q1.45-.15 1.25-1.55-.25-1.45-1.5-1.25-1.4.25-1.25 1.6.15 1.35 1.5 1.2z" id="eE"/><path fill="#E1474A" d="M348.05 379.15q.05-1.15-1.3-1.15-1.2 0-1.35 1.15-.15 1.15 1.55 1.15 1.1 0 1.1-1.15z" id="eG"/><path fill="#E1474A" d="M350.9 378.25q-.05-1.25-1.25-1.25-1.15 0-1.25 1.25-.05 1.25 1.3 1.25 1.25 0 1.2-1.25z" id="eI"/><path fill="#E1474A" d="M346.8 377.7q-.05 1.1 1.1 1.1 1.05 0 1.1-1.1.05-1.1-.95-1.1-1.15 0-1.25 1.1z" id="eK"/><path fill="#E1474A" d="M348.75 380.6q-.2 1.4 1.25 1.55 1.35.1 1.5-1.25.1-1.35-1.25-1.55-1.3-.2-1.5 1.25z" id="eM"/><path fill="#21467B" d="M377.45 378.2q-.4-.15-.6.1-.25.2-.15.6 0 .05-.05.45-.05.35.05.6 0-.35.65-.55.4-.15.45-.6.1-.45-.35-.6z" id="eO"/><path fill="#21467B" d="M378.6 379.5q-.25-.2-.5-.1-.25.15-.25.35-.05.45-.55.6.9.5 1.35 0 .4-.5-.05-.85z" id="eQ"/><path fill="#21467B" d="M375.65 380.5q-.35.1-.35.6.05.35.5.35t.6-.15q.45-.6.7-.65-.7-.35-1.45-.15z" id="eS"/><path fill="#21467B" d="M375.25 379.4q.5 0 .8.3l.35-.1q-.2-.1-.3-.55-.05-.45-.45-.45-.45-.05-.55.35-.1.4.15.45z" id="eU"/><path fill="#21467B" d="M348.4 378.35q-.2-.2-.6-.1-.4.15-.35.6.05.4.4.55.65.2.65.55.1-.25.05-.6-.05-.4-.05-.45.1-.3-.1-.55z" id="eW"/><path fill="#21467B" d="M347.15 379.4q-.25-.1-.55.1-.45.35 0 .85.4.5 1.3 0-.45-.15-.55-.6 0-.2-.2-.35z" id="eY"/><path fill="#21467B" d="M350 381.05q0-.5-.4-.6-.7-.2-1.4.15.2.05.4.25.1.15.3.4.15.15.55.15.5 0 .55-.35z" id="fa"/><path fill="#21467B" d="M349.2 379.7q.35-.35.75-.35.25-.05.15-.4-.1-.4-.55-.35-.4 0-.45.45-.1.45-.3.55.15.1.4.1z" id="fc"/><path fill="#21467B" d="M378.75 410.45q.35.3.35.75.3-.1.6.2l.45.45q.15-.95-.3-1.45-.5-.55-1.1.05z" id="fe"/><path fill="#21467B" d="M378.25 411.55q-.45.45-.1.95.45.55.25.95.45 0 .7-.35.3-.35.25-.85-.05-.5-.45-.7-.35-.25-.65 0z" id="fg"/><path fill="#21467B" d="M376.4 412.45q-.35-.05-.5.25-.15.2-.05.55 0 .05.25.3t.35.85q.75-.4.7-1.15-.05-.75-.75-.8z" id="fi"/><path fill="#21467B" d="M373.6 413.05q-.25-.45-.65-.3-.5.25-.3.8t1.1.6q-.25-.3-.2-.65.05-.4.05-.45z" id="fk"/><path fill="#21467B" d="M346.05 411.2q.1-.5.35-.75-.6-.6-1.05-.05-.45.5-.3 1.45.1-.05.45-.45.25-.3.55-.2z" id="fm"/><path fill="#21467B" d="M346.85 412.55q.4-.4 0-.9-.25-.25-.65-.1t-.5.65q-.2 1.2.8 1.35-.15-.45.35-1z" id="fo"/><path fill="#21467B" d="M349.1 413.2q.2-.85-.55-.8-.7.05-.75.75-.05.75.7 1.15.1-.55.35-.8.25-.25.25-.3z" id="fq"/><path fill="#21467B" d="M352.45 412.75q-.4-.15-.65.35 0 .05.1.45.1.3-.1.65.9-.15 1-.7.15-.55-.35-.75z" id="fs"/><path id="t" stroke="#373535" stroke-width=".1" stroke-linejoin="miter" stroke-linecap="round" stroke-miterlimit="4" fill="none" d="M167.136 63.98q.07-.619-.243-2.04-.138.693-.762 1.494.173-.328.208-.874.035-.583-.139-.911-.104.62-.728 1.457.104-.947-.207-1.748-.14 1.602-1.387 2.404.693-.583.901-1.785-.173.328-.727.838.069-.692.415-1.093-.52.036-.866.546.104-.364.59-.947-.417.037-1.075.874-.693.838-1.317.984.312-.291.762-.984.485-.728.763-.983-.45 0-1.179.692.07-.474.486-.91-.416 0-1.352.837.347-.364.52-1.493-.07.218-.659.51-.624-.146-2.183.655-.555.255-9.323-.51-8.803-.728-9.045-.619-.624.328-.902.838l-.104-.4q0 .036-.242.436-.277.365-.104.875-.381-.365-.277-.911.104-.437.52-.838-.832.11-1.248.91-.173-.837-.659-1.02.208.329.139 1.203 0-.437-.208-.765 0 .328-.277.983-.45-.473-.312-1.238-.555.473-.52 1.311.035.802.52 1.239-1.317-.984-.97-3.388-.208.219-.382.692-.208.51-.208.838-.034-.838.174-1.821-.638.368-.694 1.129l.035-.874q-.381.437-.658 1.347-.243.802-.208 1.312-.243-.4-.278-1.275 0-.765.139-1.166-1.005.91-1.005 2.842.173 2.222.936 3.57.797 1.384 2.772 2.877 2.322 1.712 5.961 3.424 3.882 1.822 7.556 2.805 3.673-.983 7.555-2.805 3.639-1.712 5.961-3.424 1.664-1.238 2.46-2.404.798-1.13 1.075-2.696z"/><path id="u" stroke="#373535" stroke-width=".1" stroke-linejoin="miter" stroke-linecap="round" stroke-miterlimit="4" fill="none" d="M158.772 63.24q1.213-.073 2.495-1.421"/><path id="v" stroke="#373535" stroke-width=".1" stroke-linejoin="miter" stroke-linecap="round" stroke-miterlimit="4" fill="none" d="M159.95 63.421q.555-.218 1.179-.692.693-.582 1.005-.837"/><path id="w" stroke="#373535" stroke-width=".1" stroke-linejoin="miter" stroke-linecap="round" stroke-miterlimit="4" fill="none" d="M161.302 63.421l.485-.254"/><path id="x" stroke="#373535" stroke-width=".1" stroke-linejoin="miter" stroke-linecap="round" stroke-miterlimit="4" fill="none" d="M162.064 63.676q.798-.364 1.525-1.42"/><path id="y" stroke="#373535" stroke-width=".1" stroke-linejoin="miter" stroke-linecap="round" stroke-miterlimit="4" fill="none" d="M162.688 63.822q.485-.182 1.352-1.02"/><path id="z" stroke="#373535" stroke-width=".1" stroke-linejoin="miter" stroke-linecap="round" stroke-miterlimit="4" fill="none" d="M163.555 63.895l.312-.146"/><path id="A" stroke="#373535" stroke-width=".1" stroke-linejoin="miter" stroke-linecap="round" stroke-miterlimit="4" fill="none" d="M163.832 64.587q.728-.328 1.629-1.493"/><path id="B" stroke="#373535" stroke-width=".1" stroke-linejoin="miter" stroke-linecap="round" stroke-miterlimit="4" fill="none" d="M165.322 64.186q.416-.291.797-.765"/><path id="C" stroke="#373535" stroke-width=".1" stroke-linejoin="miter" stroke-linecap="round" stroke-miterlimit="4" fill="none" d="M135.414 63.494q-.589-.655-.589-2.914"/><path id="D" stroke="#373535" stroke-width=".1" stroke-linejoin="miter" stroke-linecap="round" stroke-miterlimit="4" fill="none" d="M136.904 62.984q.486.401 1.283.547"/><path id="E" stroke="#373535" stroke-width=".1" stroke-linejoin="miter" stroke-linecap="round" stroke-miterlimit="4" fill="none" d="M135.345 61.127q.104 1.93 1.144 2.695"/><path id="F" stroke="#373535" stroke-width=".1" stroke-linejoin="miter" stroke-linecap="round" stroke-miterlimit="4" fill="none" d="M137.77 62.912q-.623-.62-.554-1.239"/><path id="G" stroke="#373535" stroke-width=".1" stroke-linejoin="miter" stroke-linecap="round" stroke-miterlimit="4" fill="none" d="M137.91 62.766q-.347-.583-.209-1.312"/><path id="H" stroke="#373535" stroke-width=".1" stroke-linejoin="miter" stroke-linecap="round" stroke-miterlimit="4" fill="none" d="M138.221 61.272q-.242.51-.069 1.02.139.547.762.875"/><path id="I" stroke="#373535" stroke-width=".1" stroke-linejoin="miter" stroke-linecap="round" stroke-miterlimit="4" fill="none" d="M139.677 61.2q0 .036-.035.327-.07.219.07.401"/><path id="J" stroke="#373535" stroke-width=".1" stroke-linejoin="miter" stroke-linecap="round" stroke-miterlimit="4" fill="none" d="M139.226 62.11q.278.364.59.474"/><path id="L" stroke="#373535" stroke-width=".1" stroke-linejoin="miter" stroke-linecap="butt" stroke-miterlimit="4" fill="none" d="M148.664 31.706q-.104.145-.104.255-.07-.292-.243-.365.035.146-.104.365-.138.182-.138.328-.104-.401-.52-.474-.52-.073-.624-.182.07.182-.035.91.035.693.728.838-.485.328-.624 1.312-.138 1.02-.45 1.202-.728.473-.798.546-.346.292-.38.729.173-.219.52-.437-.243.364-.209 1.02.035.692-.138 1.02-.486.837-.486 1.202.139-.219.555-.547.381-.327.52-.655 0 .182-.139.655-.139.656-1.42 1.931-.833 1.275.727 2.768 1.317 1.093 5.303 1.312 4.609.255 5.302-2.186.104-1.202-.554-2.185-.728-1.093-.763-1.749.381-.583.312-1.238-.104-.656-.624-1.203 0-.327-.138-.546-.14-.219-.59-.583-.312-.291-.312-1.056.035-.765-.242-.984.381-.073.554-.437.104-.146.035-.656-.104-.546-.07-.728-.069.036-.623.11-.416.036-.659.363-.034-.182-.208-.364-.138-.182-.104-.364-.069.073-.207.11-.104.036-.14.145.07-.437-.034-.547 0 .073-.173.22-.17.142-.173.327-.002-.366-.174-.51 0 .073-.138.182-.139.146-.174.291.035-.182-.069-.29-.138-.147-.173-.22-.07.292-.45.547.069-.4-.209-.62.035.146-.104.365-.173.218-.173.328-.173-.4-.277-.692-.035.109-.173.327-.139.183-.174.292 0-.292-.138-.437 0 .073-.104.255z"/><path id="N" stroke="#373535" stroke-width=".1" stroke-linejoin="miter" stroke-linecap="butt" stroke-miterlimit="4" fill="none" d="M155.526 62.705q-.763.62-.936 1.785.347.146.59.11 0 .218.173.4.069.437.38.437.07.073.243.183.208-.62.59-.51.38.109.034.582-.138.183-.104.438.035.291.243.437.45.4.97.182.52-.255.278-.729-.243-.473-.14-.546.07-.11.451.218.14.146.243.656.07.437.59.656.346.182.762-.146.416-.328.346-.728.52.182.936-.073.381-.219.381-.656.45-.583.173-1.166-.277-.51-.866-.582-.416-.037-.901.145-.555.182-.901.182-.416-.582-1.282-.91-.174-.51-.59-.802-.97-.109-1.663.437z"/><path id="P" stroke="#373535" stroke-width=".1" stroke-linejoin="miter" stroke-linecap="butt" stroke-miterlimit="4" fill="none" d="M136.014 53.635q.277.729.07 1.166-.555 1.275-.14 2.404.52 1.348.486 1.53-.104 1.093.589 1.603-.07-.474-.104-.729-.07-.437.208-.692.173.656.589.984-.07-.22-.035-.656.07-.474.174-.692.208.91.762 1.384-.07-.219-.035-.729.032-.491 0-.655.183.847.624 1.348-.138-.656.139-1.166 2.045-3.133 2.495-4.444.797-2.15-.658-3.06-.693-.547-1.664.11-.97-.438-2.114-.147-1.109.328-1.386 1.057-.243.655 0 1.384z"/><path id="R" stroke="#373535" stroke-width=".1" stroke-linejoin="miter" stroke-linecap="butt" stroke-miterlimit="4" fill="none" d="M163.982 53.78q0 .22-.208 1.567-.208 1.02.174 2.076.173.547.173 1.275-.035.693-.208 1.166-.035-.4-.45-1.02 0 .182-.209.692-.173.474-.173.802-.138-.183-.208-1.13-.104-.983-.242-1.165-.312.947-.312 1.093-.139.728.208 1.165-.45-.036-.867-.874-.381-.729-.416-1.239-.034.292-.173.729-.07.437.139.947-.416-.11-.659-1.13-1.698-1.784-2.495-3.423-1.421-2.878.97-3.68.693-.145 1.352-.072.832.073 1.178.437 1.005-.219 1.698.364.659.51.728 1.42z"/><path id="T" stroke="#373535" stroke-width=".1" stroke-linejoin="miter" stroke-linecap="butt" stroke-miterlimit="4" fill="none" d="M142.98 62.268q.97-.109 1.663.437.763.62.936 1.785-.485.073-.589.11 0 .218-.173.4-.07.437-.416.437-.035.073-.208.183-.208-.62-.59-.51-.38.109-.034.582.173.183.104.438-.035.291-.243.437-.415.4-.831.145t-.174-.728q.243-.437.035-.547-.243-.145-.624.183-.138.145-.346.765-.174.473-.555.546-.416.073-.762-.182-.312-.255-.243-.62-.52.183-.901-.072-.416-.219-.416-.656-.45-.583-.173-1.166.277-.51.866-.582.416-.037.901.145.52.182.867.182.52-.619 1.317-.91.173-.51.589-.802z"/><path id="V" stroke="#373535" stroke-width=".1" stroke-linejoin="miter" stroke-linecap="butt" stroke-miterlimit="4" fill="none" d="M154.798 42.598q.45-.219 1.282-.073.797.145 1.525-.328.347.182 1.56-.219 1.317-.437 1.837-.364-.763 3.278-3.709 3.17-1.178-.037-1.906-.657-.797-.655-.589-1.53z"/><path id="X" stroke="#373535" stroke-width=".1" stroke-linejoin="miter" stroke-linecap="butt" stroke-miterlimit="4" fill="none" d="M145.337 42.598q-.416-.219-1.248-.073-.797.145-1.525-.328-.381.182-1.594-.219-1.283-.437-1.802-.364.762 3.242 3.465 3.133 2.565-.146 2.704-2.15z"/><path id="Y" stroke="#373535" stroke-width=".1" stroke-linejoin="miter" stroke-linecap="butt" stroke-miterlimit="4" fill="none" d="M146.134 38.773q.242-.365.138-1.312"/><path id="Z" stroke="#373535" stroke-width=".1" stroke-linejoin="miter" stroke-linecap="butt" stroke-miterlimit="4" fill="none" d="M146.168 38.773q.104-.255.555-.984.346-.546.416-1.056"/><path id="aa" stroke="#373535" stroke-width=".1" stroke-linejoin="miter" stroke-linecap="butt" stroke-miterlimit="4" fill="none" d="M146.723 38.226q-.173 2.295-1.005 3.388-.416.583-.45.91-.07.584.623 1.057"/><path id="ab" stroke="#373535" stroke-width=".1" stroke-linejoin="miter" stroke-linecap="butt" stroke-miterlimit="4" fill="none" d="M146.619 39.064l.07.801q.242-.255.45-.874.208-.583.242-1.093"/><path id="ac" stroke="#373535" stroke-width=".1" stroke-linejoin="miter" stroke-linecap="butt" stroke-miterlimit="4" fill="none" d="M146.203 43.144q-.277-.474.104-1.457.485-1.275.52-1.603"/><path id="ad" stroke="#373535" stroke-width=".1" stroke-linejoin="miter" stroke-linecap="butt" stroke-miterlimit="4" fill="none" d="M148.456 38.008q.173.619-.278 1.712-.485 1.129-.415 1.675.277 1.348 0 2.004"/><path id="ae" stroke="#373535" stroke-width=".1" stroke-linejoin="miter" stroke-linecap="butt" stroke-miterlimit="4" fill="none" d="M147.763 37.388q.208.51-.104 1.312-.347.801-.243 1.13.277.837.381 1.711"/><path id="af" stroke="#373535" stroke-width=".1" stroke-linejoin="miter" stroke-linecap="butt" stroke-miterlimit="4" fill="none" d="M147.208 38.773q-.035.182.208.583"/><path id="ag" stroke="#373535" stroke-width=".1" stroke-linejoin="miter" stroke-linecap="butt" stroke-miterlimit="4" fill="none" d="M148.802 38.554q.59 1.275.07 2.66-.07.254-.382 1.092-.208.802.035 1.494"/><path id="ah" stroke="#373535" stroke-width=".1" stroke-linejoin="miter" stroke-linecap="butt" stroke-miterlimit="4" fill="none" d="M149.045 40.558q-.07.255.208 1.602.277 1.457.208 2.259"/><path id="ai" stroke="#373535" stroke-width=".1" stroke-linejoin="miter" stroke-linecap="butt" stroke-miterlimit="4" fill="none" d="M149.877 44.273q.38-1.238.104-2.113-.278-.765-.139-1.821.104-.983-.035-1.275.45.546.555 1.712.07 1.312.139 1.457.38.947.207 1.53.763-1.129.52-1.93-.346-1.13-.312-1.421 0-1.093-.173-1.384.312.473.485 1.202.208.801.278.947.173.4.173 1.02 0 .656-.173 1.13.658-.547.658-1.567-.07-1.057.035-1.421.138-.437.034-.947-.104-.474-.138-.583"/><path id="aj" stroke="#373535" stroke-width=".1" stroke-linejoin="miter" stroke-linecap="round" stroke-miterlimit="4" fill="none" d="M151.124 35.312l1.317-1.166"/><path id="ak" stroke="#373535" stroke-width=".1" stroke-linejoin="miter" stroke-linecap="round" stroke-miterlimit="4" fill="none" d="M151.263 35.421l1.42-.801"/><path id="al" stroke="#373535" stroke-width=".1" stroke-linejoin="miter" stroke-linecap="round" stroke-miterlimit="4" fill="none" d="M151.402 35.64l1.42-.583"/><path id="am" stroke="#373535" stroke-width=".1" stroke-linejoin="miter" stroke-linecap="round" stroke-miterlimit="4" fill="none" d="M149.53 35.75l-1.386-1.166"/><path id="an" stroke="#373535" stroke-width=".1" stroke-linejoin="miter" stroke-linecap="round" stroke-miterlimit="4" fill="none" d="M149.495 35.786l-1.906-.802"/><path id="ao" stroke="#373535" stroke-width=".1" stroke-linejoin="miter" stroke-linecap="round" stroke-miterlimit="4" fill="none" d="M149.426 35.858l-1.906-.109"/><path id="ap" stroke="#373535" stroke-width=".1" stroke-linejoin="miter" stroke-linecap="butt" stroke-miterlimit="4" fill="none" d="M147.381 35.385q-.069.473-.554.838-.139.109-.936.51"/><path id="aq" stroke="#373535" stroke-width=".1" stroke-linejoin="miter" stroke-linecap="butt" stroke-miterlimit="4" fill="none" d="M154.278 36.878l-.589-.473q-.555-.364-.693-.838-.035-.583-.173-.947 0-.036-.208-1.348"/><path id="ar" stroke="#373535" stroke-width=".1" stroke-linejoin="miter" stroke-linecap="butt" stroke-miterlimit="4" fill="none" d="M152.892 34.875q.104.801-.347 1.603-.45.765-.346 1.056.104.328.52 1.13.346.619.312.946-.07.729 0 1.421-.382-.51-.382-1.166-.208.765.035 1.713.208.874.104 1.129.416-.255.416-1.057.52.765.485 1.53"/><path id="as" stroke="#373535" stroke-width=".1" stroke-linejoin="miter" stroke-linecap="butt" stroke-miterlimit="4" fill="none" d="M152.65 37.097q0 .874.311 1.64.312.764.312 1.711.035.911.624 1.421.658.546.693 1.02.139-.801-.381-1.676-.52-.947-.52-1.457.104-1.53-.658-2.477 1.143 1.02 1.143 2.514-.034.51.45 1.165.52.692.555.984.07-.984-.242-1.494"/><path id="at" stroke="#373535" stroke-width=".1" stroke-linejoin="miter" stroke-linecap="butt" stroke-miterlimit="4" fill="none" d="M152.892 35.24q.035.837.797 1.82.832 1.276.901 2.26"/><path id="au" stroke="#373535" stroke-width=".1" stroke-linejoin="miter" stroke-linecap="butt" stroke-miterlimit="4" fill="none" d="M149.669 32.653q.312.291.242.656-.104.51-.069.692.139.473-.035.692"/><path id="av" stroke="#373535" stroke-width=".1" stroke-linejoin="miter" stroke-linecap="butt" stroke-miterlimit="4" fill="none" d="M149.911 33.236q-.242-.328-.797-.182-.589.145-.728.036.104.146.174.437.034.255.208.364.346.255.693.11.381-.182.45-.765z"/><path id="aw" stroke="#373535" stroke-width=".1" stroke-linejoin="miter" stroke-linecap="butt" stroke-miterlimit="4" fill="none" d="M150.778 32.726q-.104.291-.104.583.034.327 0 .473-.035.11.07.729"/><path id="ax" stroke="#373535" stroke-width=".1" stroke-linejoin="miter" stroke-linecap="butt" stroke-miterlimit="4" fill="none" d="M150.674 33.236q.312-.292.9-.037.244.146.555-.109-.277.364-.311.546-.035.255-.278.365-.242.145-.485.036-.381-.146-.381-.801z"/><path id="ay" stroke="#373535" stroke-width=".1" stroke-linejoin="miter" stroke-linecap="butt" stroke-miterlimit="4" fill="none" d="M152.65 33.527l.346.182"/><path id="az" stroke="#373535" stroke-width=".1" stroke-linejoin="miter" stroke-linecap="butt" stroke-miterlimit="4" fill="none" d="M147.936 34.365q.07.692-.243 1.566"/><path id="aA" stroke="#373535" stroke-width=".1" stroke-linejoin="miter" stroke-linecap="butt" stroke-miterlimit="4" fill="none" d="M151.818 35.603q.242.255.242.474"/><path id="aB" stroke="#373535" stroke-width=".1" stroke-linejoin="miter" stroke-linecap="butt" stroke-miterlimit="4" fill="none" d="M152.233 35.786q0-.183-.208-.328"/><path id="aC" stroke="#373535" stroke-width=".1" stroke-linejoin="miter" stroke-linecap="butt" stroke-miterlimit="4" fill="none" d="M152.303 35.276q.104.073.173.255"/><path id="aD" stroke="#373535" stroke-width=".1" stroke-linejoin="miter" stroke-linecap="butt" stroke-miterlimit="4" fill="none" d="M148.144 35.494q.034.292-.035.692-.07.328-.034.583.138.765.693 1.093.45.291.45.51.208-.291.485-.255.347.036.451.583.104-.11.277-.474.104-.291.243-.291.381 0 .416 1.093.104-.073.138-.51.035-.437-.034-.62.277.073.589.474.242.328.346.583-.138-1.02-.277-1.239"/><path id="aE" stroke="#373535" stroke-width=".1" stroke-linejoin="miter" stroke-linecap="butt" stroke-miterlimit="4" fill="none" d="M148.282 36.368q-.277.438-.104.765.104.292.486.365.173.073.554 0 .277-.073.52.145.312.219.867 0 .346-.145.866-.182.658 0 .832.365"/><path id="aF" stroke="#373535" stroke-width=".1" stroke-linejoin="miter" stroke-linecap="butt" stroke-miterlimit="4" fill="none" d="M155.63 64.964q0 .146.104.473"/><path id="aG" stroke="#373535" stroke-width=".1" stroke-linejoin="miter" stroke-linecap="butt" stroke-miterlimit="4" fill="none" d="M155.18 64.6l.034-.219"/><path id="aH" stroke="#373535" stroke-width=".1" stroke-linejoin="miter" stroke-linecap="butt" stroke-miterlimit="4" fill="none" d="M155.353 65l.034-.291"/><path id="aI" stroke="#373535" stroke-width=".1" stroke-linejoin="miter" stroke-linecap="butt" stroke-miterlimit="4" fill="none" d="M160.24 66.13q-.174-.51-.694-.729-.624-.219-.866-.51"/><path id="aJ" stroke="#373535" stroke-width=".1" stroke-linejoin="miter" stroke-linecap="butt" stroke-miterlimit="4" fill="none" d="M161.556 65.401q-.034-.692-.728-.801-.866-.037-1.247-.146"/><path id="aK" stroke="#373535" stroke-width=".1" stroke-linejoin="miter" stroke-linecap="butt" stroke-miterlimit="4" fill="none" d="M156.843 64.454l-.173-.474q.242.073.623.474l-.242-.474q.07.037.346.255.278.182.486.219-.347-.364-.382-.51l.624.146-.277-.401q.173.073.45.073l-.346-.364"/><path id="aL" stroke="#373535" stroke-width=".1" stroke-linejoin="miter" stroke-linecap="butt" stroke-miterlimit="4" fill="none" d="M156.774 64.454l-.416-.437.069.51-.277-.4v.327l-.382-.328"/><path id="aM" stroke="#373535" stroke-width=".1" stroke-linejoin="miter" stroke-linecap="butt" stroke-miterlimit="4" fill="none" d="M136.187 54.364q0-.401.173-.875.208-.51.208-.619.104.219.104.984t.278 1.202"/><path id="aN" stroke="#373535" stroke-width=".1" stroke-linejoin="miter" stroke-linecap="butt" stroke-miterlimit="4" fill="none" d="M137.123 58.917q-.104-1.166-.312-1.676-.139-.328-.035-.91.07-.583-.034-.838"/><path id="aO" stroke="#373535" stroke-width=".1" stroke-linejoin="miter" stroke-linecap="butt" stroke-miterlimit="4" fill="none" d="M136.43 58.88q.034-.29.034-1.238-.034-.765.07-.874"/><path id="aP" stroke="#373535" stroke-width=".1" stroke-linejoin="miter" stroke-linecap="butt" stroke-miterlimit="4" fill="none" d="M137.85 58.553q-.069-.219-.173-1.02-.069-.729-.208-.947"/><path id="aQ" stroke="#373535" stroke-width=".1" stroke-linejoin="miter" stroke-linecap="butt" stroke-miterlimit="4" fill="none" d="M137.088 54.036q.104 1.53.936 2.295 0-.51.035-.765"/><path id="aR" stroke="#373535" stroke-width=".1" stroke-linejoin="miter" stroke-linecap="butt" stroke-miterlimit="4" fill="none" d="M137.747 53.635q-.243.656.138 1.566.174.438.416 1.02.173-.182.104-.51"/><path id="aS" stroke="#373535" stroke-width=".1" stroke-linejoin="miter" stroke-linecap="butt" stroke-miterlimit="4" fill="none" d="M138.059 54.582q-.035.328.277.947.346.656.346.838.278-.255.312-.983 0-.547-.138-.984"/><path id="aT" stroke="#373535" stroke-width=".1" stroke-linejoin="miter" stroke-linecap="butt" stroke-miterlimit="4" fill="none" d="M138.925 54.691q.347 1.02.243 1.348.38-.255.415-1.056.035-.692-.138-.984.138.219.45.692.139-.765-.242-1.311"/><path id="aU" stroke="#373535" stroke-width=".1" stroke-linejoin="miter" stroke-linecap="butt" stroke-miterlimit="4" fill="none" d="M138.578 58.516q-.173-.473-.242-.765-.139-.473-.104-.983"/><path id="aV" stroke="#373535" stroke-width=".1" stroke-linejoin="miter" stroke-linecap="butt" stroke-miterlimit="4" fill="none" d="M139.514 51.34q.381.182 1.456.364.936.255 1.005.875"/><path id="aW" stroke="#373535" stroke-width=".1" stroke-linejoin="miter" stroke-linecap="butt" stroke-miterlimit="4" fill="none" d="M141.386 53.089q-.659-.693-1.595-.693 1.352.693 1.56 1.385"/><path id="aX" stroke="#373535" stroke-width=".1" stroke-linejoin="miter" stroke-linecap="butt" stroke-miterlimit="4" fill="none" d="M140.173 53.963q.52.91.554 1.42.243-.582.07-1.274-.208-.729-.798-1.057"/><path id="aY" stroke="#373535" stroke-width=".1" stroke-linejoin="miter" stroke-linecap="butt" stroke-miterlimit="4" fill="none" d="M144.54 64.964q-.07.328-.14.473"/><path id="aZ" stroke="#373535" stroke-width=".1" stroke-linejoin="miter" stroke-linecap="butt" stroke-miterlimit="4" fill="none" d="M144.99 64.6l-.035-.219"/><path id="ba" stroke="#373535" stroke-width=".1" stroke-linejoin="miter" stroke-linecap="butt" stroke-miterlimit="4" fill="none" d="M144.817 65l-.035-.291"/><path id="bb" stroke="#373535" stroke-width=".1" stroke-linejoin="miter" stroke-linecap="butt" stroke-miterlimit="4" fill="none" d="M139.93 66.13q.173-.51.693-.729.624-.219.867-.51"/><path id="bc" stroke="#373535" stroke-width=".1" stroke-linejoin="miter" stroke-linecap="butt" stroke-miterlimit="4" fill="none" d="M138.613 65.401q.035-.692.728-.801.416-.073 1.248-.146"/><path id="bd" stroke="#373535" stroke-width=".1" stroke-linejoin="miter" stroke-linecap="butt" stroke-miterlimit="4" fill="none" d="M142.217 63.47l-.311.401.45-.11-.173.438.554-.219q-.034.146-.277.547.208-.073.693-.547l-.208.51"/><path id="be" stroke="#373535" stroke-width=".1" stroke-linejoin="miter" stroke-linecap="butt" stroke-miterlimit="4" fill="none" d="M143.119 64.272l.415-.328q0 .11-.208.51"/><path id="bf" stroke="#373535" stroke-width=".1" stroke-linejoin="miter" stroke-linecap="butt" stroke-miterlimit="4" fill="none" d="M143.534 64.417l.312-.437"/><path id="bg" stroke="#373535" stroke-width=".1" stroke-linejoin="miter" stroke-linecap="butt" stroke-miterlimit="4" fill="none" d="M143.812 64.49q.173-.145.242-.437l.035.328q.243-.255.381-.328"/><path id="bh" stroke="#373535" stroke-width=".1" stroke-linejoin="miter" stroke-linecap="butt" stroke-miterlimit="4" fill="none" d="M162.63 58.043q-.38-1.02-.346-1.676"/><path id="bi" stroke="#373535" stroke-width=".1" stroke-linejoin="miter" stroke-linecap="butt" stroke-miterlimit="4" fill="none" d="M163.462 58.844q.035-.146-.173-.983-.208-.838-.104-1.203"/><path id="bj" stroke="#373535" stroke-width=".1" stroke-linejoin="miter" stroke-linecap="butt" stroke-miterlimit="4" fill="none" d="M161.244 58.188q-.069-.437.035-.728"/><path id="bk" stroke="#373535" stroke-width=".1" stroke-linejoin="miter" stroke-linecap="butt" stroke-miterlimit="4" fill="none" d="M161.556 56.986q.173.292.104 1.348-.07 1.057.173 1.384"/><path id="bl" stroke="#373535" stroke-width=".1" stroke-linejoin="miter" stroke-linecap="butt" stroke-miterlimit="4" fill="none" d="M163.081 53.052q.728.984.07 1.967.069-.874-.416-1.53.311.802.069 1.494-.208-.219-.208-.474-.139.875-.45 1.13-.382-.656-.174-1.385"/><path id="bm" stroke="#373535" stroke-width=".1" stroke-linejoin="miter" stroke-linecap="butt" stroke-miterlimit="4" fill="none" d="M161.937 54.91q.035.255-.173.729-.208.473-.416.619 0-.4-.485-.947-.485-.547-.52-.765"/><path id="bn" stroke="#373535" stroke-width=".1" stroke-linejoin="miter" stroke-linecap="butt" stroke-miterlimit="4" fill="none" d="M161.556 51.996q.243.182.416.655-.346-.218-.693-.29-.416-.11-.312.145.07.145.45.473l-.693-.255q.174.146.416.547.208.4.278.437-.278-.037-.659-.364-.416-.365-.554-.62-.07.255.346.729.45.546.485.692-.97-.4-1.282-.947.035.4.45.874.347.364.694.547-.278.072-.867-.219-.589-.255-.797-.546"/><path id="bp" stroke="#373535" stroke-width=".1" stroke-linejoin="miter" stroke-linecap="butt" stroke-miterlimit="4" fill="none" d="M150.085 44.747q.52 0 1.975-1.02 1.005-.729 3.327.437 2.08 1.02 3.431.473 1.005-.4 1.906-1.93.59.073.867.728.346.692.45.729-.242.801-.797 1.457.382.4.174 1.056.45-.109.866.292.52.51.624.546-.243 1.13-.208 1.494.035.291-.243.583-.346.364-.797.182.347-.875.139-1.312-.277-.619-1.49-.109-1.49.62-1.595 3.533-.104 3.097 1.872 4.408.797 2.368-.936 4.335-1.733 1.93-3.882 1.566-.207 1.275-1.49 2.077-.589.4-1.906.874-.624.219-.59.984.036.765.486.582-.035.146-.208.292-.173.11-.346.073-.728-.292-1.63-.292-.97 0-1.628.292-.416.109-.59-.365.486.183.52-.582 0-.765-.623-.984-1.317-.474-1.907-.874-1.282-.802-1.49-2.077-2.149.365-3.847-1.566-1.733-1.967-.936-4.335 1.976-1.311 1.837-4.408-.104-2.914-1.594-3.533-1.178-.51-1.456.11-.207.436.14 1.31-.451.183-.763-.181-.312-.292-.278-.583 0-.51-.208-1.494.104-.036.624-.546.416-.4.867-.292-.243-.619.173-1.056-.624-.729-.797-1.457.104-.037.45-.729.278-.655.867-.728.866 1.53 1.906 1.93 1.352.547 3.431-.473 2.322-1.166 3.327-.437 1.456 1.02 1.976 1.02z"/><path id="bB" stroke="#373535" stroke-width=".1" stroke-linejoin="miter" stroke-linecap="round" stroke-miterlimit="4" fill="none" d="M144.297 46.131q.173 0 .416-.182.242-.182.381-.073.693.437.901.801.173.292.555 1.275l1.594 3.789q1.074 2.513 1.698 3.424-2.183 1.712-4.783 2.805-3.223 1.348-5.268.801-.415-1.311-.173-2.149.243-.838 1.352-2.076.97-1.093.45-3.424-.416-1.931-1.143-2.842.034-.218.416-.62v-.728q.138.037.623-.036l.035.11h.866q0-.401.278-.584l.034-.291.312-.146.139.255.485-.145.243-.255q.277-.073.52 0l.069.291z"/><path id="bC" stroke="#373535" stroke-width=".1" stroke-linejoin="miter" stroke-linecap="round" stroke-miterlimit="4" fill="none" d="M141.583 49.361q.07.037.208 0l.07-.218h.138q.242.473.728.473.104.219.277.474.138.182.381.874"/><path id="bD" stroke="#373535" stroke-width=".1" stroke-linejoin="miter" stroke-linecap="round" stroke-miterlimit="4" fill="none" d="M143.212 50.454q-.035-.073.242-.51l.139.364"/><path id="bE" stroke="#373535" stroke-width=".1" stroke-linejoin="miter" stroke-linecap="round" stroke-miterlimit="4" fill="none" d="M141.687 51.91q.035.693.762 1.167.797.51 1.005 1.748"/><path id="bF" stroke="#373535" stroke-width=".1" stroke-linejoin="miter" stroke-linecap="round" stroke-miterlimit="4" fill="none" d="M142.207 46.993q0 .219.45 1.13.07.291.139.364l.242.073q.59.182.832 1.129.139.583.59 1.02.554.51.727.947"/><path id="bG" stroke="#373535" stroke-width=".1" stroke-linejoin="miter" stroke-linecap="round" stroke-miterlimit="4" fill="none" d="M143.454 46.083q-.104.182.139.62.07.108.104.327.035.218.139.364.346.4.45 1.02.07.437.347.984"/><path id="bI" stroke="#373535" stroke-width=".1" stroke-linejoin="miter" stroke-linecap="round" stroke-miterlimit="4" fill="none" d="M149.911 53.926q.59.219 4.783 4.335 4.159 3.68 5.095 2.222 1.42-2.367.797-4.189-.936-.801-1.421-1.894-.624-1.384-.416-2.914-.381-.692-1.04-.802-.554-.109-.97.183-.312-.802-1.282-1.02-.97-.255-1.56.255-.52-.292-1.213-.11-.728.219-.901.765-.485-.473-1.282-.364-.798.11-1.11.801-.589.401-.45 1.421.139 1.02.97 1.311z"/><path id="bJ" stroke="#373535" stroke-width=".1" stroke-linejoin="miter" stroke-linecap="butt" stroke-miterlimit="4" fill="none" d="M144.83 48.402l.762 8.487"/><path id="bK" stroke="#373535" stroke-width=".1" stroke-linejoin="miter" stroke-linecap="butt" stroke-miterlimit="4" fill="none" d="M144.864 48.402l1.421 8.378"/><path id="bL" stroke="#373535" stroke-width=".1" stroke-linejoin="miter" stroke-linecap="butt" stroke-miterlimit="4" fill="none" d="M144.934 48.366l2.044 8.45"/><path id="bM" stroke="#373535" stroke-width=".1" stroke-linejoin="miter" stroke-linecap="butt" stroke-miterlimit="4" fill="none" d="M145.003 48.33l2.53 8.122"/><path id="bN" stroke="#373535" stroke-width=".1" stroke-linejoin="miter" stroke-linecap="butt" stroke-miterlimit="4" fill="none" d="M145.488 48.002l3.777 4.953"/><path id="bO" stroke="#373535" stroke-width=".1" stroke-linejoin="miter" stroke-linecap="butt" stroke-miterlimit="4" fill="none" d="M145.454 48.038l3.222 5.209"/><path id="bP" stroke="#373535" stroke-width=".1" stroke-linejoin="miter" stroke-linecap="butt" stroke-miterlimit="4" fill="none" d="M145.384 48.074l2.911 5.646"/><path id="bQ" stroke="#373535" stroke-width=".1" stroke-linejoin="miter" stroke-linecap="butt" stroke-miterlimit="4" fill="none" d="M145.523 56.088l1.94-.4"/><path id="bR" stroke="#373535" stroke-width=".1" stroke-linejoin="miter" stroke-linecap="butt" stroke-miterlimit="4" fill="none" d="M145.419 55.031l2.01-.218"/><path id="bS" stroke="#373535" stroke-width=".1" stroke-linejoin="miter" stroke-linecap="butt" stroke-miterlimit="4" fill="none" d="M145.384 54.23l1.733-.255"/><path id="bT" stroke="#373535" stroke-width=".1" stroke-linejoin="miter" stroke-linecap="butt" stroke-miterlimit="4" fill="none" d="M145.28 53.283l1.56-.146"/><path id="bU" stroke="#373535" stroke-width=".1" stroke-linejoin="miter" stroke-linecap="butt" stroke-miterlimit="4" fill="none" d="M146.528 52.3l-1.282.182"/><path id="bV" stroke="#373535" stroke-width=".1" stroke-linejoin="miter" stroke-linecap="butt" stroke-miterlimit="4" fill="none" d="M145.142 51.826l1.178-.11"/><path id="bW" stroke="#373535" stroke-width=".1" stroke-linejoin="miter" stroke-linecap="butt" stroke-miterlimit="4" fill="none" d="M145.107 51.17l.97-.036"/><path id="bX" stroke="#373535" stroke-width=".1" stroke-linejoin="miter" stroke-linecap="butt" stroke-miterlimit="4" fill="none" d="M145.003 50.551l.866-.073"/><path id="bY" stroke="#373535" stroke-width=".1" stroke-linejoin="miter" stroke-linecap="butt" stroke-miterlimit="4" fill="none" d="M146.355 50.296l.589-.4"/><path id="bZ" stroke="#373535" stroke-width=".1" stroke-linejoin="miter" stroke-linecap="butt" stroke-miterlimit="4" fill="none" d="M146.632 50.88l.693-.474"/><path id="ca" stroke="#373535" stroke-width=".1" stroke-linejoin="miter" stroke-linecap="butt" stroke-miterlimit="4" fill="none" d="M146.909 51.535l.797-.583"/><path id="cb" stroke="#373535" stroke-width=".1" stroke-linejoin="miter" stroke-linecap="butt" stroke-miterlimit="4" fill="none" d="M147.22 52.117l.867-.692"/><path id="cc" stroke="#373535" stroke-width=".1" stroke-linejoin="miter" stroke-linecap="butt" stroke-miterlimit="4" fill="none" d="M147.498 52.773l.936-.91"/><path id="cd" stroke="#373535" stroke-width=".1" stroke-linejoin="miter" stroke-linecap="butt" stroke-miterlimit="4" fill="none" d="M147.88 53.61l1.004-1.165"/><path id="ce" stroke="#373535" stroke-width=".1" stroke-linejoin="miter" stroke-linecap="butt" stroke-miterlimit="4" fill="none" d="M144.934 49.86l.693-.11"/><path id="cf" stroke="#373535" stroke-width=".1" stroke-linejoin="miter" stroke-linecap="butt" stroke-miterlimit="4" fill="none" d="M146.043 49.64l.485-.29"/><path id="cg" stroke="#373535" stroke-width=".1" stroke-linejoin="miter" stroke-linecap="butt" stroke-miterlimit="4" fill="none" d="M147.983 54.157v-6.155"/><path id="ch" stroke="#373535" stroke-width=".1" stroke-linejoin="miter" stroke-linecap="butt" stroke-miterlimit="4" fill="none" d="M148.053 47.965l.311 5.646"/><path id="ci" stroke="#373535" stroke-width=".1" stroke-linejoin="miter" stroke-linecap="butt" stroke-miterlimit="4" fill="none" d="M149.196 52.955l-1.074-5.063"/><path id="cj" stroke="#373535" stroke-width=".1" stroke-linejoin="miter" stroke-linecap="butt" stroke-miterlimit="4" fill="none" d="M149.681 52.737l-1.56-4.954"/><path id="ck" stroke="#373535" stroke-width=".1" stroke-linejoin="miter" stroke-linecap="butt" stroke-miterlimit="4" fill="none" d="M148.087 47.856l.728 5.281"/><path id="cl" stroke="#373535" stroke-width=".1" stroke-linejoin="miter" stroke-linecap="butt" stroke-miterlimit="4" fill="none" d="M148.468 47.637l2.357 4.517"/><path id="cm" stroke="#373535" stroke-width=".1" stroke-linejoin="miter" stroke-linecap="butt" stroke-miterlimit="4" fill="none" d="M148.676 47.528l2.877 4.262"/><path id="cn" stroke="#373535" stroke-width=".1" stroke-linejoin="miter" stroke-linecap="butt" stroke-miterlimit="4" fill="none" d="M148.572 47.6l2.634 4.372"/><path id="co" stroke="#373535" stroke-width=".1" stroke-linejoin="miter" stroke-linecap="butt" stroke-miterlimit="4" fill="none" d="M148.018 52.955l1.837-.838"/><path id="cp" stroke="#373535" stroke-width=".1" stroke-linejoin="miter" stroke-linecap="butt" stroke-miterlimit="4" fill="none" d="M147.983 52.154l1.629-.656"/><path id="cq" stroke="#373535" stroke-width=".1" stroke-linejoin="miter" stroke-linecap="butt" stroke-miterlimit="4" fill="none" d="M148.018 51.462l1.351-.583"/><path id="cr" stroke="#373535" stroke-width=".1" stroke-linejoin="miter" stroke-linecap="butt" stroke-miterlimit="4" fill="none" d="M148.018 50.697l1.074-.437"/><path id="cs" stroke="#373535" stroke-width=".1" stroke-linejoin="miter" stroke-linecap="butt" stroke-miterlimit="4" fill="none" d="M147.983 49.896l.901-.292"/><path id="ct" stroke="#373535" stroke-width=".1" stroke-linejoin="miter" stroke-linecap="butt" stroke-miterlimit="4" fill="none" d="M150.166 51.316l.97-.182"/><path id="cu" stroke="#373535" stroke-width=".1" stroke-linejoin="miter" stroke-linecap="butt" stroke-miterlimit="4" fill="none" d="M149.89 50.733l.762-.255"/><path id="cv" stroke="#373535" stroke-width=".1" stroke-linejoin="miter" stroke-linecap="butt" stroke-miterlimit="4" fill="none" d="M149.577 50.114l.763-.146"/><path id="cw" stroke="#373535" stroke-width=".1" stroke-linejoin="miter" stroke-linecap="butt" stroke-miterlimit="4" fill="none" d="M149.265 49.495l.659-.11"/><path id="cx" stroke="#373535" stroke-width=".1" stroke-linejoin="miter" stroke-linecap="butt" stroke-miterlimit="4" fill="none" d="M148.954 48.876l.589-.073"/><path id="cy" stroke="#373535" stroke-width=".1" stroke-linejoin="miter" stroke-linecap="butt" stroke-miterlimit="4" fill="none" d="M148.607 48.949l-.624.255"/><path id="cz" stroke="#373535" stroke-width=".1" stroke-linejoin="miter" stroke-linecap="butt" stroke-miterlimit="4" fill="none" d="M150.41 51.826l.935-.328"/><path id="cB" stroke="#373535" stroke-width=".1" stroke-linejoin="miter" stroke-linecap="butt" stroke-miterlimit="4" fill="none" d="M156.011 54.072q.52.364.763.437l-.174 5.683q-6.203 1.311-7.694 1.166-3.084-.292-2.391-4.299l1.074-.437-.173-1.603 1.213-1.748 5.857-2.914.173 1.347.243-.109.07.583-.105.11.104.837.382-.219v.62q.208.218.658.546z"/><path id="cD" stroke="#373535" stroke-width=".1" stroke-linejoin="miter" stroke-linecap="butt" stroke-miterlimit="4" fill="none" d="M150.039 52.567l-2.01-5.136-.243-.037-.069-.874.624.583-.104.218 2.391 4.954-.59.292z"/><path id="cF" stroke="#373535" stroke-width=".1" stroke-linejoin="miter" stroke-linecap="butt" stroke-miterlimit="4" fill="none" d="M147.717 47.722l.866-.51.208.328-.9.583-.174-.401z"/><path id="cH" stroke="#373535" stroke-width=".1" stroke-linejoin="miter" stroke-linecap="butt" stroke-miterlimit="4" fill="none" d="M148.064 54.06l-.59.838-2.599-7.212-.312-.037-.034-1.056.693.728-.104.255 2.946 6.484z"/><path id="cJ" stroke="#373535" stroke-width=".1" stroke-linejoin="miter" stroke-linecap="butt" stroke-miterlimit="4" fill="none" d="M144.494 48.013l1.04-.582.242.4-1.074.656-.208-.474z"/><path id="cK" stroke="#373535" stroke-width=".1" stroke-linejoin="miter" stroke-linecap="butt" stroke-miterlimit="4" fill="none" d="M149.45 52.858v-.437l5.025-2.477v.4"/><path id="cL" stroke="#373535" stroke-width=".1" stroke-linejoin="miter" stroke-linecap="butt" stroke-miterlimit="4" fill="none" d="M153.955 52.038l.693-.346m-.693.346l-6.169 3.078 1.11-1.602 5.128-2.55-.069 1.074z"/><path id="cM" stroke="#373535" stroke-width=".1" stroke-linejoin="miter" stroke-linecap="butt" stroke-miterlimit="4" fill="none" d="M153.4 51.656l-4.02 2.003"/><path id="cN" stroke="#373535" stroke-width=".1" stroke-linejoin="miter" stroke-linecap="butt" stroke-miterlimit="4" fill="none" d="M146.504 57.047q2.045-.838 4.887-2.186 2.91-1.347 3.95-1.967l-.104 5.319"/><path id="cO" stroke="#373535" stroke-width=".1" stroke-linejoin="miter" stroke-linecap="butt" stroke-miterlimit="4" fill="none" d="M146.47 57.557q2.01-.801 4.886-2.15 2.946-1.383 3.985-2.039"/><path id="cP" stroke="#373535" stroke-width=".1" stroke-linejoin="miter" stroke-linecap="butt" stroke-miterlimit="4" fill="none" d="M147.89 55.517l7.07-3.351"/><path id="cQ" stroke="#373535" stroke-width=".1" stroke-linejoin="miter" stroke-linecap="butt" stroke-miterlimit="4" fill="none" d="M153.92 52.676l-.069 1.02"/><path id="cR" stroke="#373535" stroke-width=".1" stroke-linejoin="miter" stroke-linecap="butt" stroke-miterlimit="4" fill="none" d="M153.331 52.967l-.07.984"/><path id="cS" stroke="#373535" stroke-width=".1" stroke-linejoin="miter" stroke-linecap="butt" stroke-miterlimit="4" fill="none" d="M152.742 53.259l-.07.983"/><path id="cT" stroke="#373535" stroke-width=".1" stroke-linejoin="miter" stroke-linecap="butt" stroke-miterlimit="4" fill="none" d="M152.188 53.514l-.07.983"/><path id="cU" stroke="#373535" stroke-width=".1" stroke-linejoin="miter" stroke-linecap="butt" stroke-miterlimit="4" fill="none" d="M151.668 53.769l-.07.983"/><path id="cV" stroke="#373535" stroke-width=".1" stroke-linejoin="miter" stroke-linecap="butt" stroke-miterlimit="4" fill="none" d="M148.202 58.213q1.213-.583 5.51-2.587"/><path id="cW" stroke="#373535" stroke-width=".1" stroke-linejoin="miter" stroke-linecap="butt" stroke-miterlimit="4" fill="none" d="M148.306 58.54l5.372-2.477"/><path id="cX" stroke="#373535" stroke-width=".1" stroke-linejoin="miter" stroke-linecap="butt" stroke-miterlimit="4" fill="none" d="M148.271 59.633q3.882-1.712 5.337-2.477"/><path id="cY" stroke="#373535" stroke-width=".1" stroke-linejoin="miter" stroke-linecap="butt" stroke-miterlimit="4" fill="none" d="M148.34 60.107q3.466-1.494 5.372-2.477"/><path id="cZ" stroke="#373535" stroke-width=".1" stroke-linejoin="miter" stroke-linecap="butt" stroke-miterlimit="4" fill="none" d="M148.583 60.617l5.372-2.477"/><path id="da" stroke="#373535" stroke-width=".1" stroke-linejoin="miter" stroke-linecap="butt" stroke-miterlimit="4" fill="none" d="M148.687 61.09q1.144-.546 5.337-2.513"/><path id="db" stroke="#373535" stroke-width=".1" stroke-linejoin="miter" stroke-linecap="butt" stroke-miterlimit="4" fill="none" d="M153.816 54.206l-.277 3.824"/><path id="dc" stroke="#373535" stroke-width=".1" stroke-linejoin="miter" stroke-linecap="butt" stroke-miterlimit="4" fill="none" d="M150.143 56.938l.832-.365.034-.546-.831.4-.035.51z"/><path id="dd" stroke="#373535" stroke-width=".1" stroke-linejoin="miter" stroke-linecap="butt" stroke-miterlimit="4" fill="none" d="M151.737 56.21l.832-.402.034-.51-.831.365-.035.546z"/><path id="de" stroke="#373535" stroke-width=".1" stroke-linejoin="miter" stroke-linecap="butt" stroke-miterlimit="4" fill="none" d="M150.039 58.431l.832-.364.034-.4-.831.4-.035.364z"/><path id="df" stroke="#373535" stroke-width=".1" stroke-linejoin="miter" stroke-linecap="butt" stroke-miterlimit="4" fill="none" d="M151.633 57.703l.832-.365.034-.4-.831.4-.035.365z"/><path id="dg" stroke="#373535" stroke-width=".1" stroke-linejoin="miter" stroke-linecap="butt" stroke-miterlimit="4" fill="none" d="M153.782 54.789q.97-.292 1.525-.838.554.655 1.455.91"/><path id="dh" stroke="#373535" stroke-width=".1" stroke-linejoin="miter" stroke-linecap="butt" stroke-miterlimit="4" fill="none" d="M153.782 55.262q.9-.291 1.525-.874"/><path id="di" stroke="#373535" stroke-width=".1" stroke-linejoin="miter" stroke-linecap="butt" stroke-miterlimit="4" fill="none" d="M153.712 55.626q.936-.291 1.56-.874"/><path id="dj" stroke="#373535" stroke-width=".1" stroke-linejoin="miter" stroke-linecap="butt" stroke-miterlimit="4" fill="none" d="M153.712 56.027q1.005-.291 1.56-.838"/><path id="dk" stroke="#373535" stroke-width=".1" stroke-linejoin="miter" stroke-linecap="butt" stroke-miterlimit="4" fill="none" d="M153.643 56.573q1.04-.364 1.664-.91"/><path id="dl" stroke="#373535" stroke-width=".1" stroke-linejoin="miter" stroke-linecap="butt" stroke-miterlimit="4" fill="none" d="M153.643 57.01q1.074-.364 1.629-.91"/><path id="dm" stroke="#373535" stroke-width=".1" stroke-linejoin="miter" stroke-linecap="butt" stroke-miterlimit="4" fill="none" d="M153.643 57.448q.97-.328 1.629-.911"/><path id="dn" stroke="#373535" stroke-width=".1" stroke-linejoin="miter" stroke-linecap="butt" stroke-miterlimit="4" fill="none" d="M155.307 54.789q.52.692 1.42.692"/><path id="do" stroke="#373535" stroke-width=".1" stroke-linejoin="miter" stroke-linecap="butt" stroke-miterlimit="4" fill="none" d="M153.99 50.6v-.438"/><path id="dp" stroke="#373535" stroke-width=".1" stroke-linejoin="miter" stroke-linecap="butt" stroke-miterlimit="4" fill="none" d="M153.574 50.818v-.437"/><path id="dq" stroke="#373535" stroke-width=".1" stroke-linejoin="miter" stroke-linecap="butt" stroke-miterlimit="4" fill="none" d="M153.193 51v-.4"/><path id="dr" stroke="#373535" stroke-width=".1" stroke-linejoin="miter" stroke-linecap="butt" stroke-miterlimit="4" fill="none" d="M152.777 51.219v-.437"/><path id="ds" stroke="#373535" stroke-width=".1" stroke-linejoin="miter" stroke-linecap="butt" stroke-miterlimit="4" fill="none" d="M152.396 51.401v-.437"/><path id="dt" stroke="#373535" stroke-width=".1" stroke-linejoin="miter" stroke-linecap="butt" stroke-miterlimit="4" fill="none" d="M151.98 51.583v-.4"/><path id="du" stroke="#373535" stroke-width=".1" stroke-linejoin="miter" stroke-linecap="butt" stroke-miterlimit="4" fill="none" d="M151.598 51.802v-.437"/><path id="dv" stroke="#373535" stroke-width=".1" stroke-linejoin="miter" stroke-linecap="butt" stroke-miterlimit="4" fill="none" d="M151.183 51.984v-.437"/><path id="dw" stroke="#373535" stroke-width=".1" stroke-linejoin="miter" stroke-linecap="butt" stroke-miterlimit="4" fill="none" d="M150.801 52.202v-.437"/><path id="dx" stroke="#373535" stroke-width=".1" stroke-linejoin="miter" stroke-linecap="butt" stroke-miterlimit="4" fill="none" d="M150.42 52.384v-.437"/><path id="dy" stroke="#373535" stroke-width=".1" stroke-linejoin="miter" stroke-linecap="butt" stroke-miterlimit="4" fill="none" d="M150.004 52.567v-.401"/><path id="dz" stroke="#373535" stroke-width=".1" stroke-linejoin="miter" stroke-linecap="butt" stroke-miterlimit="4" fill="none" d="M149.623 52.785v-.437"/><path id="dA" stroke="#373535" stroke-width=".1" stroke-linejoin="miter" stroke-linecap="butt" stroke-miterlimit="4" fill="none" d="M155.272 55.19q.485.655 1.42.655"/><path id="dB" stroke="#373535" stroke-width=".1" stroke-linejoin="miter" stroke-linecap="butt" stroke-miterlimit="4" fill="none" d="M155.307 55.7q.45.691 1.42.691"/><path id="dC" stroke="#373535" stroke-width=".1" stroke-linejoin="miter" stroke-linecap="butt" stroke-miterlimit="4" fill="none" d="M155.307 54.424q.554.583 1.42.692"/><path id="dE" stroke="#373535" stroke-width=".1" stroke-linejoin="miter" stroke-linecap="butt" stroke-miterlimit="4" fill="none" d="M158.738 56.282q-.451-.219-.902.036-.97-.582-1.732-.145-.797.437-.867 1.566-.693-.692-1.386-.437-.658.255-.797 1.13-.208 1.347-2.01 1.857-1.871.51-2.53-.91.485-.037.659-.62.173-.62-.278-1.02-.416-.4-.97-.11-.555.256-.52.802-.901-.692-.832-1.603.07-.582-.623-.765-.694-.182-1.144.547-.659.073-.763.583-.277-.692-.9-1.02-.59-.292-1.075-.146-.45.11-.762.583-.312.51-.174.983-.312-.364-.866-.437-.485-.073-.936.182-.138 2.113 1.525 3.643 1.629 1.493 3.5 1.202.208 1.275 1.49 2.076.59.401 1.907.874.623.22.623.984-.034.765-.52.583.174.473.59.364.658-.291 1.629-.291.9 0 1.628.291.174.036.347-.073.173-.145.208-.291-.45.182-.485-.583-.035-.765.589-.984 1.317-.473 1.906-.874 1.282-.801 1.49-2.076 1.94.291 3.57-1.275 1.698-1.603 1.455-3.752-.104-.182-.658-.255-.555-.073-.797.073-.104-.473-.59-.692z"/><path id="dF" stroke="#373535" stroke-width=".1" stroke-linejoin="miter" stroke-linecap="round" stroke-miterlimit="4" fill="none" d="M144.425 59.233q-.312-.51-.867-.656-.45-.146-.866-.037-.243.11-.277.438-.07.364-.312.51-.381.254-.208.837.173.62.762.765"/><path id="dG" stroke="#373535" stroke-width=".1" stroke-linejoin="miter" stroke-linecap="round" stroke-miterlimit="4" fill="none" d="M143.246 59.779q.624-.073.936.692"/><path id="dH" stroke="#373535" stroke-width=".1" stroke-linejoin="miter" stroke-linecap="round" stroke-miterlimit="4" fill="none" d="M144.355 60.252q-.242-1.02-1.074-1.02"/><path id="dI" stroke="#373535" stroke-width=".1" stroke-linejoin="miter" stroke-linecap="round" stroke-miterlimit="4" fill="none" d="M144.529 59.67q.069.437.554.728.485.292.52.656"/><path id="dJ" stroke="#373535" stroke-width=".1" stroke-linejoin="miter" stroke-linecap="round" stroke-miterlimit="4" fill="none" d="M144.945 59.233q0 .29.277.546.242.255.485.328"/><path id="dK" stroke="#373535" stroke-width=".1" stroke-linejoin="miter" stroke-linecap="round" stroke-miterlimit="4" fill="none" d="M145.187 58.723q.416.619.832.8"/><path id="dL" stroke="#373535" stroke-width=".1" stroke-linejoin="miter" stroke-linecap="round" stroke-miterlimit="4" fill="none" d="M145.291 57.703q.035.473.312.801.312.4.797.474"/><path id="dM" stroke="#373535" stroke-width=".1" stroke-linejoin="miter" stroke-linecap="round" stroke-miterlimit="4" fill="none" d="M145.256 56.792q.486.036.624.801.139.802.45.838"/><path id="dN" stroke="#373535" stroke-width=".1" stroke-linejoin="miter" stroke-linecap="round" stroke-miterlimit="4" fill="none" d="M146.365 57.74q.07.218.382.582t.623.51"/><path id="dO" stroke="#373535" stroke-width=".1" stroke-linejoin="miter" stroke-linecap="round" stroke-miterlimit="4" fill="none" d="M142.727 57.63q-.07-1.057-.694-1.348.901.073 1.317 1.093"/><path id="dP" stroke="#373535" stroke-width=".1" stroke-linejoin="miter" stroke-linecap="round" stroke-miterlimit="4" fill="none" d="M144.043 57.193q-.069.182-.034.473 0 .292.138.437"/><path id="dQ" stroke="#373535" stroke-width=".1" stroke-linejoin="miter" stroke-linecap="round" stroke-miterlimit="4" fill="none" d="M147.197 60.471q.035.219.277.474.243.218.278.582"/><path id="dR" stroke="#373535" stroke-width=".1" stroke-linejoin="miter" stroke-linecap="round" stroke-miterlimit="4" fill="none" d="M147.648 60.362q0 .109.173.328.173.255.173.437"/><path id="dS" stroke="#373535" stroke-width=".1" stroke-linejoin="miter" stroke-linecap="round" stroke-miterlimit="4" fill="none" d="M147.752 59.961q.069.328.38.474"/><path id="dT" stroke="#373535" stroke-width=".1" stroke-linejoin="miter" stroke-linecap="round" stroke-miterlimit="4" fill="none" d="M147.89 59.633q.243.146.312.437"/><path id="dU" stroke="#373535" stroke-width=".1" stroke-linejoin="miter" stroke-linecap="round" stroke-miterlimit="4" fill="none" d="M147.821 59.196q.554.219 1.144 1.311.346.583 1.317.656.935.11 1.386-.328.866-.801 1.213-.765"/><path id="dV" stroke="#373535" stroke-width=".1" stroke-linejoin="miter" stroke-linecap="round" stroke-miterlimit="4" fill="none" d="M148.202 61.382q.555.582 1.698.582 1.144 0 1.283.146"/><path id="dW" stroke="#373535" stroke-width=".1" stroke-linejoin="miter" stroke-linecap="round" stroke-miterlimit="4" fill="none" d="M150.697 62.584q.347-.219 1.075-.11.658.11.9-.218.763-1.056 1.595-.874"/><path id="dX" stroke="#373535" stroke-width=".1" stroke-linejoin="miter" stroke-linecap="round" stroke-miterlimit="4" fill="none" d="M149.831 63.02q.347.147.901.074.59-.11.832-.037.45.146 1.282-.4.901-.547 1.386-.474"/><path id="dY" stroke="#373535" stroke-width=".1" stroke-linejoin="miter" stroke-linecap="round" stroke-miterlimit="4" fill="none" d="M145.568 63.094q.382-.037 1.421.655.97.583 1.906.292 1.179-.365 2.842-.037 1.594.328 1.802.219"/><path id="dZ" stroke="#373535" stroke-width=".1" stroke-linejoin="miter" stroke-linecap="round" stroke-miterlimit="4" fill="none" d="M149.762 64.369q.554-.073 1.213.036.693.146 1.005.437"/><path id="ea" stroke="#373535" stroke-width=".1" stroke-linejoin="miter" stroke-linecap="round" stroke-miterlimit="4" fill="none" d="M150.178 64.879q.9.072 1.178.546"/><path id="eb" stroke="#373535" stroke-width=".1" stroke-linejoin="miter" stroke-linecap="round" stroke-miterlimit="4" fill="none" d="M150.49 65.461q.45 0 .866.365"/><path id="ec" stroke="#373535" stroke-width=".1" stroke-linejoin="miter" stroke-linecap="round" stroke-miterlimit="4" fill="none" d="M150.49 66.044q.415-.073.866.328"/><path id="ed" stroke="#373535" stroke-width=".1" stroke-linejoin="miter" stroke-linecap="round" stroke-miterlimit="4" fill="none" d="M154.856 57.958q-.312-.255-.728-.255t-.623.327q.207-.072.485.037.277.11.416.328"/><path id="ee" stroke="#373535" stroke-width=".1" stroke-linejoin="miter" stroke-linecap="round" stroke-miterlimit="4" fill="none" d="M154.024 60.908q.278-.218.347-.583.035-.364-.104-.692"/><path id="ef" stroke="#373535" stroke-width=".1" stroke-linejoin="miter" stroke-linecap="round" stroke-miterlimit="4" fill="none" d="M155.792 60.908q.208-.473.104-1.13-.139-.728-.59-.983"/><path id="eg" stroke="#373535" stroke-width=".1" stroke-linejoin="miter" stroke-linecap="round" stroke-miterlimit="4" fill="none" d="M156.45 57.593q.416.255.243.838"/><path id="eh" stroke="#373535" stroke-width=".1" stroke-linejoin="miter" stroke-linecap="round" stroke-miterlimit="4" fill="none" d="M156.762 57.302q.45.255.381.947"/><path id="ei" stroke="#373535" stroke-width=".1" stroke-linejoin="miter" stroke-linecap="round" stroke-miterlimit="4" fill="none" d="M156.624 56.828q1.005.11.935 1.421"/><path id="ej" stroke="#373535" stroke-width=".1" stroke-linejoin="miter" stroke-linecap="round" stroke-miterlimit="4" fill="none" d="M157.005 59.196q.346.146.38.583.07.473-.172.801"/><path id="ek" stroke="#373535" stroke-width=".1" stroke-linejoin="miter" stroke-linecap="round" stroke-miterlimit="4" fill="none" d="M157.802 59.415q.242.619-.173 1.202"/><path id="el" stroke="#373535" stroke-width=".1" stroke-linejoin="miter" stroke-linecap="round" stroke-miterlimit="4" fill="none" d="M157.906 61.017q.416-.437.45-1.202.035-.801-.416-1.056"/><path id="em" stroke="#373535" stroke-width=".1" stroke-linejoin="miter" stroke-linecap="round" stroke-miterlimit="4" fill="none" d="M158.218 57.593q.693.182.693 1.13.728.072.9 1.092"/><path id="en" stroke="#373535" stroke-width=".1" stroke-linejoin="miter" stroke-linecap="round" stroke-miterlimit="4" fill="none" d="M158.98 57.12q.277.182.416.51.658-.11 1.005.11"/><path id="ep" stroke="#373535" stroke-width=".1" stroke-linejoin="miter" stroke-linecap="butt" stroke-miterlimit="4" fill="none" d="M150.085 45.22q.797 0 1.213.182l-.035-1.092q-.45-.292-1.178-.292-.797 0-1.179.292l-.069 1.092q.45-.182 1.248-.182z"/><path id="er" stroke="#373535" stroke-width=".1" stroke-linejoin="miter" stroke-linecap="butt" stroke-miterlimit="4" fill="none" d="M145.233 43.435q-1.699 1.057-3.016.947-1.871-.109-2.252-2.149l-.659.437q.59 2.405 2.911 2.514 1.595.073 2.912-.874.866-.656 1.906-.583.97.073 1.49.728-.243-.109-.485.073-.208.182-.208.474 0 .583.728.583.277 0 .485-.255.208-.255.208-.656 0-1.13-1.386-1.566-1.421-.438-2.634.327z"/><path id="et" stroke="#373535" stroke-width=".1" stroke-linejoin="miter" stroke-linecap="butt" stroke-miterlimit="4" fill="none" d="M150.882 44.674q0-1.13 1.42-1.566 1.387-.438 2.635.327 1.698 1.057 2.98.947 1.906-.109 2.288-2.149l.658.437q-.59 2.405-2.946 2.514-1.56.073-2.876-.874-.867-.656-1.907-.583-.97.073-1.49.728.243-.109.45.073.243.182.243.474 0 .583-.727.583-.312 0-.52-.255-.208-.255-.208-.656z"/><path id="ev" stroke="#373535" stroke-width=".1" stroke-linejoin="miter" stroke-linecap="butt" stroke-miterlimit="4" fill="none" d="M139.41 48.499q-.554-.182-.9.109.554.219.346.801-.208.583-.763.365-.485-.182-.485-.656 0-.656.416-1.093.485-.437 1.317-.328 1.144.219 1.802 1.421.659 1.202.659 3.096 0 2.915-2.01 4.262-.07 4.954 4.089 5.464-.485-.109-.416-.619.035-.546.555-.546.312 0 .485.218.138.219.07.474.276-.146.519-.073.555.182.381.729-.138.582-.693.4.312 1.166 2.357 1.93 1.906.693 1.906 1.604 0 1.02-.832 1.02-.52 0-.554-.547-.035-.546.45-.619-.07-.255-1.871-.984-1.802-.764-2.15-2.33-2.633.145-4.02-1.859-1.247-1.857-1.004-4.662 1.836-1.093 2.01-3.242.104-1.603-.659-3.279-.381-.838-1.005-1.056z"/><path id="ex" stroke="#373535" stroke-width=".1" stroke-linejoin="miter" stroke-linecap="butt" stroke-miterlimit="4" fill="none" d="M162.145 48.025q-.485-.437-1.317-.328-1.178.219-1.802 1.421-.658 1.202-.658 3.096 0 2.951 1.975 4.262.104 4.918-4.09 5.464.486-.109.451-.619-.034-.546-.554-.546-.312 0-.486.218-.173.219-.103.474-.243-.146-.486-.073-.554.182-.38.729.138.582.692.4-.312 1.166-2.356 1.93-1.907.693-1.907 1.604 0 1.02.832 1.02.555 0 .59-.547.034-.546-.486-.619.07-.255 1.837-.984 1.802-.764 2.149-2.33 2.634.145 4.02-1.859 1.282-1.857 1.04-4.662-1.837-1.093-2.01-3.242-.14-1.603.623-3.279.382-.838 1.04-1.056.555-.182.901.109-.554.219-.346.801.208.583.762.365.485-.182.485-.656 0-.656-.416-1.093z"/><path id="ez" stroke="#373535" stroke-width=".1" stroke-linejoin="miter" stroke-linecap="butt" stroke-miterlimit="4" fill="none" d="M161.06 41.129q.831 0 .935.838.104.837-1.074.837-.763 0-.763-.837-.034-.838.901-.838z"/><path id="eB" stroke="#373535" stroke-width=".1" stroke-linejoin="miter" stroke-linecap="butt" stroke-miterlimit="4" fill="none" d="M159.05 40.4q.797 0 .866.911.034.91-.901.91-.867 0-.832-.91.035-.91.866-.91z"/><path id="eD" stroke="#373535" stroke-width=".1" stroke-linejoin="miter" stroke-linecap="butt" stroke-miterlimit="4" fill="none" d="M160.262 41.712q-.727 0-.762-.802-.035-.801.624-.801.797 0 .866.801.07.802-.728.802z"/><path id="eF" stroke="#373535" stroke-width=".1" stroke-linejoin="miter" stroke-linecap="butt" stroke-miterlimit="4" fill="none" d="M158.876 44.189q-.936.109-1.04-.875-.103-.983.867-1.165.866-.146 1.04.91.138 1.02-.867 1.13z"/><path id="eH" stroke="#373535" stroke-width=".1" stroke-linejoin="miter" stroke-linecap="butt" stroke-miterlimit="4" fill="none" d="M139.088 41.129q-.832 0-.936.838-.104.837 1.074.837.763 0 .763-.837.034-.838-.901-.838z"/><path id="eJ" stroke="#373535" stroke-width=".1" stroke-linejoin="miter" stroke-linecap="butt" stroke-miterlimit="4" fill="none" d="M141.098 40.4q-.797 0-.867.911-.034.91.901.91.867 0 .832-.91-.035-.91-.866-.91z"/><path id="eL" stroke="#373535" stroke-width=".1" stroke-linejoin="miter" stroke-linecap="butt" stroke-miterlimit="4" fill="none" d="M139.885 41.712q.728 0 .762-.802.035-.801-.658-.801-.797 0-.867.801-.034.802.763.802z"/><path id="eN" stroke="#373535" stroke-width=".1" stroke-linejoin="miter" stroke-linecap="butt" stroke-miterlimit="4" fill="none" d="M141.34 44.152q.936.073 1.04-.91.07-.984-.866-1.13-.901-.145-1.04.911-.139 1.02.866 1.13z"/><path id="eP" stroke="#373535" stroke-width=".1" stroke-linejoin="miter" stroke-linecap="butt" stroke-miterlimit="4" fill="none" d="M160.366 41.275q.312.109.243.437-.035.328-.312.437-.45.146-.45.4-.07-.182-.035-.437.035-.291.035-.327-.07-.292.103-.438.14-.182.416-.072z"/><path id="eR" stroke="#373535" stroke-width=".1" stroke-linejoin="miter" stroke-linecap="butt" stroke-miterlimit="4" fill="none" d="M161.163 42.222q.312.255.035.619-.312.364-.936 0 .347-.11.382-.437 0-.146.173-.255.173-.073.346.073z"/><path id="eT" stroke="#373535" stroke-width=".1" stroke-linejoin="miter" stroke-linecap="butt" stroke-miterlimit="4" fill="none" d="M158.876 43.387q.035.255.347.255.312 0 .416-.109.311-.437.485-.474-.485-.255-1.005-.109-.243.073-.243.437z"/><path id="eV" stroke="#373535" stroke-width=".1" stroke-linejoin="miter" stroke-linecap="butt" stroke-miterlimit="4" fill="none" d="M159.396 42.367l.243-.072q-.139-.073-.208-.401-.035-.328-.312-.328-.312-.036-.381.255-.07.291.103.328.347 0 .555.218z"/><path id="eX" stroke="#373535" stroke-width=".1" stroke-linejoin="miter" stroke-linecap="butt" stroke-miterlimit="4" fill="none" d="M139.815 41.311q-.277.11-.242.437.035.292.277.4.45.147.45.402.07-.183.035-.438-.034-.291-.034-.327.069-.219-.07-.401-.138-.146-.416-.073z"/><path id="eZ" stroke="#373535" stroke-width=".1" stroke-linejoin="miter" stroke-linecap="butt" stroke-miterlimit="4" fill="none" d="M138.984 42.222q-.312.255 0 .619.277.364.9 0-.311-.11-.38-.437 0-.146-.139-.255-.173-.073-.381.073z"/><path id="fb" stroke="#373535" stroke-width=".1" stroke-linejoin="miter" stroke-linecap="butt" stroke-miterlimit="4" fill="none" d="M141.34 43.35q-.034.256-.38.256-.278 0-.382-.11-.139-.182-.208-.29-.139-.147-.277-.183.485-.255.97-.11.277.074.277.438z"/><path id="fd" stroke="#373535" stroke-width=".1" stroke-linejoin="miter" stroke-linecap="butt" stroke-miterlimit="4" fill="none" d="M141.306 42.112q.173-.036.104-.291-.07-.291-.382-.255-.277 0-.311.328-.07.328-.208.4.104.073.277.073.242-.255.52-.255z"/><path id="ff" stroke="#373535" stroke-width=".1" stroke-linejoin="miter" stroke-linecap="butt" stroke-miterlimit="4" fill="none" d="M161.279 64.782q.416-.437.762-.037.312.365.208 1.057l-.312-.328q-.208-.219-.415-.146 0-.328-.243-.546z"/><path id="fh" stroke="#373535" stroke-width=".1" stroke-linejoin="miter" stroke-linecap="butt" stroke-miterlimit="4" fill="none" d="M160.932 65.583q.208-.182.45 0 .278.146.313.51.034.364-.173.62-.174.254-.486.254.139-.291-.173-.692-.243-.364.07-.692z"/><path id="fj" stroke="#373535" stroke-width=".1" stroke-linejoin="miter" stroke-linecap="butt" stroke-miterlimit="4" fill="none" d="M159.65 66.239q.485.036.52.583.035.546-.485.838-.07-.438-.243-.62t-.173-.218q-.07-.255.034-.401.104-.219.347-.182z"/><path id="fl" stroke="#373535" stroke-width=".1" stroke-linejoin="miter" stroke-linecap="butt" stroke-miterlimit="4" fill="none" d="M157.259 66.457q-.347.183-.208.583.138.401.762.437-.173-.218-.138-.473.034-.292.034-.328-.173-.328-.45-.219z"/><path id="fn" stroke="#373535" stroke-width=".1" stroke-linejoin="miter" stroke-linecap="butt" stroke-miterlimit="4" fill="none" d="M138.856 64.782q-.416-.437-.728-.037-.312.365-.208 1.057.07-.037.312-.328.173-.219.381-.146.07-.364.243-.546z"/><path id="fp" stroke="#373535" stroke-width=".1" stroke-linejoin="miter" stroke-linecap="butt" stroke-miterlimit="4" fill="none" d="M139.168 65.656q-.174-.182-.45-.073-.278.11-.348.474-.138.874.555.983-.104-.328.243-.728.277-.292 0-.656z"/><path id="fr" stroke="#373535" stroke-width=".1" stroke-linejoin="miter" stroke-linecap="butt" stroke-miterlimit="4" fill="none" d="M140.346 66.202q-.485.037-.52.547-.035.546.485.838.07-.401.243-.583.173-.182.173-.219.139-.619-.381-.583z"/><path id="ft" stroke="#373535" stroke-width=".1" stroke-linejoin="miter" stroke-linecap="butt" stroke-miterlimit="4" fill="none" d="M143.05 66.457q.346.146.242.547-.07.4-.693.51.138-.255.069-.474-.07-.291-.07-.328.174-.364.451-.255z"/></defs><use xlink:href="#a" transform="matrix(.69318 0 0 .72858 -101.25 -234.25)"/><use xlink:href="#b" transform="matrix(.69318 0 0 .72858 -101.25 -234.25)"/><use xlink:href="#c" transform="matrix(.69318 0 0 .72858 -101.25 -234.25)"/><use xlink:href="#d" transform="matrix(.69318 0 0 .72858 -101.25 -234.25)"/><use xlink:href="#e" transform="matrix(.69318 0 0 .72858 -101.25 -234.25)"/><use xlink:href="#f" transform="matrix(.69318 0 0 .72858 -101.25 -234.25)"/><use xlink:href="#g" transform="matrix(.69318 0 0 .72858 -101.25 -234.25)"/><use xlink:href="#h" transform="matrix(.69318 0 0 .72858 -101.25 -234.25)"/><use xlink:href="#i" transform="matrix(.69318 0 0 .72858 -101.25 -234.25)"/><use xlink:href="#j" transform="matrix(.69318 0 0 .72858 -101.25 -234.25)"/><use xlink:href="#k" transform="matrix(.69318 0 0 .72858 -101.25 -234.25)"/><use xlink:href="#l" transform="matrix(.69318 0 0 .72858 -101.25 -234.25)"/><use xlink:href="#m" transform="matrix(.69318 0 0 .72858 -101.25 -234.25)"/><use xlink:href="#n" transform="matrix(.69318 0 0 .72858 -101.25 -234.25)"/><use xlink:href="#o" transform="matrix(.69318 0 0 .72858 -101.25 -234.25)"/><use xlink:href="#p" transform="matrix(.69318 0 0 .72858 -101.25 -234.25)"/><use xlink:href="#q" transform="matrix(.69318 0 0 .72858 -101.25 -234.25)"/><use xlink:href="#r" transform="matrix(.69318 0 0 .72858 -101.25 -234.25)"/><g transform="matrix(.69315 0 0 .72855 -101.25 -234.25)"><use xlink:href="#s"/><use xlink:href="#t" transform="matrix(1.44269 0 0 1.37259 146.05 321.5)"/></g><use xlink:href="#u" transform="matrix(1 0 0 1 -.02 -.032)"/><use xlink:href="#v" transform="matrix(1 0 0 1 -.02 -.032)"/><use xlink:href="#w" transform="matrix(1 0 0 1 -.02 -.032)"/><use xlink:href="#x" transform="matrix(1 0 0 1 -.02 -.032)"/><use xlink:href="#y" transform="matrix(1 0 0 1 -.02 -.032)"/><use xlink:href="#z" transform="matrix(1 0 0 1 -.02 -.032)"/><use xlink:href="#A" transform="matrix(1 0 0 1 -.02 -.032)"/><use xlink:href="#B" transform="matrix(1 0 0 1 -.02 -.032)"/><use xlink:href="#C" transform="matrix(1 0 0 1 -.02 -.032)"/><use xlink:href="#D" transform="matrix(1 0 0 1 -.02 -.032)"/><use xlink:href="#E" transform="matrix(1 0 0 1 -.02 -.032)"/><use xlink:href="#F" transform="matrix(1 0 0 1 -.02 -.032)"/><use xlink:href="#G" transform="matrix(1 0 0 1 -.02 -.032)"/><use xlink:href="#H" transform="matrix(1 0 0 1 -.02 -.032)"/><use xlink:href="#I" transform="matrix(1 0 0 1 -.02 -.032)"/><use xlink:href="#J" transform="matrix(1 0 0 1 -.02 -.032)"/><g transform="matrix(.69315 0 0 .72855 -101.25 -234.25)"><use xlink:href="#K"/><use xlink:href="#L" transform="matrix(1.44269 0 0 1.37259 146.05 321.5)"/></g><g transform="matrix(.69315 0 0 .72855 -101.25 -234.25)"><use xlink:href="#M"/><use xlink:href="#N" transform="matrix(1.44269 0 0 1.37259 146.05 321.5)"/></g><g transform="matrix(.69315 0 0 .72855 -101.25 -234.25)"><use xlink:href="#O"/><use xlink:href="#P" transform="matrix(1.44269 0 0 1.37259 146.05 321.5)"/></g><g transform="matrix(.69315 0 0 .72855 -101.25 -234.25)"><use xlink:href="#Q"/><use xlink:href="#R" transform="matrix(1.44269 0 0 1.37259 146.05 321.5)"/></g><g transform="matrix(.69315 0 0 .72855 -101.25 -234.25)"><use xlink:href="#S"/><use xlink:href="#T" transform="matrix(1.44269 0 0 1.37259 146.05 321.5)"/></g><g transform="matrix(.69315 0 0 .72855 -101.25 -234.25)"><use xlink:href="#U"/><use xlink:href="#V" transform="matrix(1.44269 0 0 1.37259 146.05 321.5)"/></g><g transform="matrix(.69315 0 0 .72855 -101.25 -234.25)"><use xlink:href="#W"/><use xlink:href="#X" transform="matrix(1.44269 0 0 1.37259 146.05 321.5)"/></g><use xlink:href="#Y" transform="matrix(1 0 0 1 -.016 -.022)"/><use xlink:href="#Z" transform="matrix(1 0 0 1 -.016 -.022)"/><use xlink:href="#aa" transform="matrix(1 0 0 1 -.016 -.022)"/><use xlink:href="#ab" transform="matrix(1 0 0 1 -.016 -.022)"/><use xlink:href="#ac" transform="matrix(1 0 0 1 -.016 -.022)"/><use xlink:href="#ad" transform="matrix(1 0 0 1 -.016 -.022)"/><use xlink:href="#ae" transform="matrix(1 0 0 1 -.016 -.022)"/><use xlink:href="#af" transform="matrix(1 0 0 1 -.016 -.022)"/><use xlink:href="#ag" transform="matrix(1 0 0 1 -.016 -.022)"/><use xlink:href="#ah" transform="matrix(1 0 0 1 -.016 -.022)"/><use xlink:href="#ai" transform="matrix(1 0 0 1 -.016 -.022)"/><use xlink:href="#aj" transform="matrix(1 0 0 1 -.016 -.022)"/><use xlink:href="#ak" transform="matrix(1 0 0 1 -.016 -.022)"/><use xlink:href="#al" transform="matrix(1 0 0 1 -.016 -.022)"/><use xlink:href="#am" transform="matrix(1 0 0 1 -.016 -.022)"/><use xlink:href="#an" transform="matrix(1 0 0 1 -.016 -.022)"/><use xlink:href="#ao" transform="matrix(1 0 0 1 -.016 -.022)"/><use xlink:href="#ap" transform="matrix(1 0 0 1 -.016 -.022)"/><use xlink:href="#aq" transform="matrix(1 0 0 1 -.016 -.022)"/><use xlink:href="#ar" transform="matrix(1 0 0 1 -.016 -.022)"/><use xlink:href="#as" transform="matrix(1 0 0 1 -.016 -.022)"/><use xlink:href="#at" transform="matrix(1 0 0 1 -.016 -.022)"/><use xlink:href="#au" transform="matrix(1 0 0 1 -.016 -.022)"/><use xlink:href="#av" transform="matrix(1 0 0 1 -.016 -.022)"/><use xlink:href="#aw" transform="matrix(1 0 0 1 -.016 -.022)"/><use xlink:href="#ax" transform="matrix(1 0 0 1 -.016 -.022)"/><use xlink:href="#ay" transform="matrix(1 0 0 1 -.016 -.022)"/><use xlink:href="#az" transform="matrix(1 0 0 1 -.016 -.022)"/><use xlink:href="#aA" transform="matrix(1 0 0 1 -.016 -.022)"/><use xlink:href="#aB" transform="matrix(1 0 0 1 -.016 -.022)"/><use xlink:href="#aC" transform="matrix(1 0 0 1 -.016 -.022)"/><use xlink:href="#aD" transform="matrix(1 0 0 1 -.016 -.022)"/><use xlink:href="#aE" transform="matrix(1 0 0 1 -.016 -.022)"/><use xlink:href="#aF" transform="matrix(1 0 0 1 -.016 -.022)"/><use xlink:href="#aG" transform="matrix(1 0 0 1 -.016 -.022)"/><use xlink:href="#aH" transform="matrix(1 0 0 1 -.016 -.022)"/><use xlink:href="#aI" transform="matrix(1 0 0 1 -.016 -.022)"/><use xlink:href="#aJ" transform="matrix(1 0 0 1 -.016 -.022)"/><use xlink:href="#aK" transform="matrix(1 0 0 1 -.016 -.022)"/><use xlink:href="#aL" transform="matrix(1 0 0 1 -.016 -.022)"/><use xlink:href="#aM" transform="matrix(1 0 0 1 -.016 -.022)"/><use xlink:href="#aN" transform="matrix(1 0 0 1 -.016 -.022)"/><use xlink:href="#aO" transform="matrix(1 0 0 1 -.016 -.022)"/><use xlink:href="#aP" transform="matrix(1 0 0 1 -.016 -.022)"/><use xlink:href="#aQ" transform="matrix(1 0 0 1 -.016 -.022)"/><use xlink:href="#aR" transform="matrix(1 0 0 1 -.016 -.022)"/><use xlink:href="#aS" transform="matrix(1 0 0 1 -.016 -.022)"/><use xlink:href="#aT" transform="matrix(1 0 0 1 -.016 -.022)"/><use xlink:href="#aU" transform="matrix(1 0 0 1 -.016 -.022)"/><use xlink:href="#aV" transform="matrix(1 0 0 1 -.016 -.022)"/><use xlink:href="#aW" transform="matrix(1 0 0 1 -.016 -.022)"/><use xlink:href="#aX" transform="matrix(1 0 0 1 -.016 -.022)"/><use xlink:href="#aY" transform="matrix(1 0 0 1 -.016 -.022)"/><use xlink:href="#aZ" transform="matrix(1 0 0 1 -.016 -.022)"/><use xlink:href="#ba" transform="matrix(1 0 0 1 -.016 -.022)"/><use xlink:href="#bb" transform="matrix(1 0 0 1 -.016 -.022)"/><use xlink:href="#bc" transform="matrix(1 0 0 1 -.016 -.022)"/><use xlink:href="#bd" transform="matrix(1 0 0 1 -.016 -.022)"/><use xlink:href="#be" transform="matrix(1 0 0 1 -.016 -.022)"/><use xlink:href="#bf" transform="matrix(1 0 0 1 -.016 -.022)"/><use xlink:href="#bg" transform="matrix(1 0 0 1 -.016 -.022)"/><use xlink:href="#bh" transform="matrix(1 0 0 1 -.016 -.022)"/><use xlink:href="#bi" transform="matrix(1 0 0 1 -.016 -.022)"/><use xlink:href="#bj" transform="matrix(1 0 0 1 -.016 -.022)"/><use xlink:href="#bk" transform="matrix(1 0 0 1 -.016 -.022)"/><use xlink:href="#bl" transform="matrix(1 0 0 1 -.016 -.022)"/><use xlink:href="#bm" transform="matrix(1 0 0 1 -.016 -.022)"/><use xlink:href="#bn" transform="matrix(1 0 0 1 -.016 -.022)"/><g transform="matrix(.69315 0 0 .72855 -101.25 -234.25)"><use xlink:href="#bo"/><use xlink:href="#bp" transform="matrix(1.44269 0 0 1.37259 146.05 321.5)"/></g><use xlink:href="#bq" transform="matrix(.69315 0 0 .72855 -101.25 -234.25)"/><use xlink:href="#br" transform="matrix(.69315 0 0 .72855 -101.25 -234.25)"/><use xlink:href="#bs" transform="matrix(.69315 0 0 .72855 -101.25 -234.25)"/><use xlink:href="#bt" transform="matrix(.69315 0 0 .72855 -101.25 -234.25)"/><use xlink:href="#bu" transform="matrix(.69315 0 0 .72855 -101.25 -234.25)"/><use xlink:href="#bv" transform="matrix(.69315 0 0 .72855 -101.25 -234.25)"/><use xlink:href="#bw" transform="matrix(.69315 0 0 .72855 -101.25 -234.25)"/><use xlink:href="#bx" transform="matrix(.69315 0 0 .72855 -101.25 -234.25)"/><use xlink:href="#by" transform="matrix(.69315 0 0 .72855 -101.25 -234.25)"/><use xlink:href="#bz" transform="matrix(.69315 0 0 .72855 -101.25 -234.25)"/><g transform="matrix(.69315 0 0 .72855 -101.25 -234.25)"><use xlink:href="#bA"/><use xlink:href="#bB" transform="matrix(1.44269 0 0 1.37259 146.05 321.5)"/></g><use xlink:href="#bC" transform="matrix(1 0 0 1 -.02 -.032)"/><use xlink:href="#bD" transform="matrix(1 0 0 1 -.02 -.032)"/><use xlink:href="#bE" transform="matrix(1 0 0 1 -.02 -.032)"/><use xlink:href="#bF" transform="matrix(1 0 0 1 -.02 -.032)"/><use xlink:href="#bG" transform="matrix(1 0 0 1 -.02 -.032)"/><g transform="matrix(.69315 0 0 .72855 -101.25 -234.25)"><use xlink:href="#bH"/><use xlink:href="#bI" transform="matrix(1.44269 0 0 1.37259 146.05 321.5)"/></g><use xlink:href="#bJ" transform="matrix(.99999 0 0 1 -.025 -.006)"/><use xlink:href="#bK" transform="matrix(.99999 0 0 1 -.025 -.006)"/><use xlink:href="#bL" transform="matrix(.99999 0 0 1 -.025 -.006)"/><use xlink:href="#bM" transform="matrix(.99999 0 0 1 -.025 -.006)"/><use xlink:href="#bN" transform="matrix(.99999 0 0 1 -.025 -.006)"/><use xlink:href="#bO" transform="matrix(.99999 0 0 1 -.025 -.006)"/><use xlink:href="#bP" transform="matrix(.99999 0 0 1 -.025 -.006)"/><use xlink:href="#bQ" transform="matrix(.99999 0 0 1 -.025 -.006)"/><use xlink:href="#bR" transform="matrix(.99999 0 0 1 -.025 -.006)"/><use xlink:href="#bS" transform="matrix(.99999 0 0 1 -.025 -.006)"/><use xlink:href="#bT" transform="matrix(.99999 0 0 1 -.025 -.006)"/><use xlink:href="#bU" transform="matrix(.99999 0 0 1 -.025 -.006)"/><use xlink:href="#bV" transform="matrix(.99999 0 0 1 -.025 -.006)"/><use xlink:href="#bW" transform="matrix(.99999 0 0 1 -.025 -.006)"/><use xlink:href="#bX" transform="matrix(.99999 0 0 1 -.025 -.006)"/><use xlink:href="#bY" transform="matrix(.99999 0 0 1 -.025 -.006)"/><use xlink:href="#bZ" transform="matrix(.99999 0 0 1 -.025 -.006)"/><use xlink:href="#ca" transform="matrix(.99999 0 0 1 -.025 -.006)"/><use xlink:href="#cb" transform="matrix(.99999 0 0 1 -.025 -.006)"/><use xlink:href="#cc" transform="matrix(.99999 0 0 1 -.025 -.006)"/><use xlink:href="#cd" transform="matrix(.99999 0 0 1 -.025 -.006)"/><use xlink:href="#ce" transform="matrix(.99999 0 0 1 -.025 -.006)"/><use xlink:href="#cf" transform="matrix(.99999 0 0 1 -.025 -.006)"/><use xlink:href="#cg" transform="matrix(.99999 0 0 1 -.025 -.006)"/><use xlink:href="#ch" transform="matrix(.99999 0 0 1 -.025 -.006)"/><use xlink:href="#ci" transform="matrix(.99999 0 0 1 -.025 -.006)"/><use xlink:href="#cj" transform="matrix(.99999 0 0 1 -.025 -.006)"/><use xlink:href="#ck" transform="matrix(.99999 0 0 1 -.025 -.006)"/><use xlink:href="#cl" transform="matrix(.99999 0 0 1 -.025 -.006)"/><use xlink:href="#cm" transform="matrix(.99999 0 0 1 -.025 -.006)"/><use xlink:href="#cn" transform="matrix(.99999 0 0 1 -.025 -.006)"/><use xlink:href="#co" transform="matrix(.99999 0 0 1 -.025 -.006)"/><use xlink:href="#cp" transform="matrix(.99999 0 0 1 -.025 -.006)"/><use xlink:href="#cq" transform="matrix(.99999 0 0 1 -.025 -.006)"/><use xlink:href="#cr" transform="matrix(.99999 0 0 1 -.025 -.006)"/><use xlink:href="#cs" transform="matrix(.99999 0 0 1 -.025 -.006)"/><use xlink:href="#ct" transform="matrix(.99999 0 0 1 -.025 -.006)"/><use xlink:href="#cu" transform="matrix(.99999 0 0 1 -.025 -.006)"/><use xlink:href="#cv" transform="matrix(.99999 0 0 1 -.025 -.006)"/><use xlink:href="#cw" transform="matrix(.99999 0 0 1 -.025 -.006)"/><use xlink:href="#cx" transform="matrix(.99999 0 0 1 -.025 -.006)"/><use xlink:href="#cy" transform="matrix(.99999 0 0 1 -.025 -.006)"/><use xlink:href="#cz" transform="matrix(.99999 0 0 1 -.025 -.006)"/><g transform="matrix(.69315 0 0 .72855 -101.25 -234.25)"><use xlink:href="#cA"/><use xlink:href="#cB" transform="matrix(1.44269 0 0 1.37259 146.05 321.5)"/></g><g transform="matrix(.69312 0 0 .72852 -101.25 -234.25)"><use xlink:href="#cC"/><use xlink:href="#cD" transform="matrix(1.44275 0 0 1.37265 146.05 321.5)"/></g><g transform="matrix(.69312 0 0 .72852 -101.25 -234.25)"><use xlink:href="#cE"/><use xlink:href="#cF" transform="matrix(1.44275 0 0 1.37265 146.05 321.5)"/></g><g transform="matrix(.69312 0 0 .72852 -101.25 -234.25)"><use xlink:href="#cG"/><use xlink:href="#cH" transform="matrix(1.44275 0 0 1.37265 146.05 321.5)"/></g><g transform="matrix(.69312 0 0 .72852 -101.25 -234.25)"><use xlink:href="#cI"/><use xlink:href="#cJ" transform="matrix(1.44275 0 0 1.37265 146.05 321.5)"/></g><use xlink:href="#cK" transform="matrix(1 0 0 1 -.02 -.032)"/><use xlink:href="#cL" transform="matrix(1 0 0 1 -.02 -.032)"/><use xlink:href="#cM" transform="matrix(1 0 0 1 -.02 -.032)"/><use xlink:href="#cN" transform="matrix(1 0 0 1 -.02 -.032)"/><use xlink:href="#cO" transform="matrix(1 0 0 1 -.02 -.032)"/><use xlink:href="#cP" transform="matrix(1 0 0 1 -.02 -.032)"/><use xlink:href="#cQ" transform="matrix(1 0 0 1 -.02 -.032)"/><use xlink:href="#cR" transform="matrix(1 0 0 1 -.02 -.032)"/><use xlink:href="#cS" transform="matrix(1 0 0 1 -.02 -.032)"/><use xlink:href="#cT" transform="matrix(1 0 0 1 -.02 -.032)"/><use xlink:href="#cU" transform="matrix(1 0 0 1 -.02 -.032)"/><use xlink:href="#cV" transform="matrix(1 0 0 1 -.02 -.032)"/><use xlink:href="#cW" transform="matrix(1 0 0 1 -.02 -.032)"/><use xlink:href="#cX" transform="matrix(1 0 0 1 -.02 -.032)"/><use xlink:href="#cY" transform="matrix(1 0 0 1 -.02 -.032)"/><use xlink:href="#cZ" transform="matrix(1 0 0 1 -.02 -.032)"/><use xlink:href="#da" transform="matrix(1 0 0 1 -.02 -.032)"/><use xlink:href="#db" transform="matrix(1 0 0 1 -.02 -.032)"/><use xlink:href="#dc" transform="matrix(1 0 0 1 -.02 -.032)"/><use xlink:href="#dd" transform="matrix(1 0 0 1 -.02 -.032)"/><use xlink:href="#de" transform="matrix(1 0 0 1 -.02 -.032)"/><use xlink:href="#df" transform="matrix(1 0 0 1 -.02 -.032)"/><use xlink:href="#dg" transform="matrix(1 0 0 1 -.02 -.032)"/><use xlink:href="#dh" transform="matrix(1 0 0 1 -.02 -.032)"/><use xlink:href="#di" transform="matrix(1 0 0 1 -.02 -.032)"/><use xlink:href="#dj" transform="matrix(1 0 0 1 -.02 -.032)"/><use xlink:href="#dk" transform="matrix(1 0 0 1 -.02 -.032)"/><use xlink:href="#dl" transform="matrix(1 0 0 1 -.02 -.032)"/><use xlink:href="#dm" transform="matrix(1 0 0 1 -.02 -.032)"/><use xlink:href="#dn" transform="matrix(1 0 0 1 -.02 -.032)"/><use xlink:href="#do" transform="matrix(1 0 0 1 -.02 -.032)"/><use xlink:href="#dp" transform="matrix(1 0 0 1 -.02 -.032)"/><use xlink:href="#dq" transform="matrix(1 0 0 1 -.02 -.032)"/><use xlink:href="#dr" transform="matrix(1 0 0 1 -.02 -.032)"/><use xlink:href="#ds" transform="matrix(1 0 0 1 -.02 -.032)"/><use xlink:href="#dt" transform="matrix(1 0 0 1 -.02 -.032)"/><use xlink:href="#du" transform="matrix(1 0 0 1 -.02 -.032)"/><use xlink:href="#dv" transform="matrix(1 0 0 1 -.02 -.032)"/><use xlink:href="#dw" transform="matrix(1 0 0 1 -.02 -.032)"/><use xlink:href="#dx" transform="matrix(1 0 0 1 -.02 -.032)"/><use xlink:href="#dy" transform="matrix(1 0 0 1 -.02 -.032)"/><use xlink:href="#dz" transform="matrix(1 0 0 1 -.02 -.032)"/><use xlink:href="#dA" transform="matrix(1 0 0 1 -.02 -.032)"/><use xlink:href="#dB" transform="matrix(1 0 0 1 -.02 -.032)"/><use xlink:href="#dC" transform="matrix(1 0 0 1 -.02 -.032)"/><use xlink:href="#dD" transform="matrix(.69312 0 0 .72852 -101.25 -234.25)"/><use xlink:href="#dE" transform="matrix(1 0 0 1 -.02 -.032)"/><use xlink:href="#dF" transform="matrix(1 0 0 1 -.02 -.032)"/><use xlink:href="#dG" transform="matrix(1 0 0 1 -.02 -.032)"/><use xlink:href="#dH" transform="matrix(1 0 0 1 -.02 -.032)"/><use xlink:href="#dI" transform="matrix(1 0 0 1 -.02 -.032)"/><use xlink:href="#dJ" transform="matrix(1 0 0 1 -.02 -.032)"/><use xlink:href="#dK" transform="matrix(1 0 0 1 -.02 -.032)"/><use xlink:href="#dL" transform="matrix(1 0 0 1 -.02 -.032)"/><use xlink:href="#dM" transform="matrix(1 0 0 1 -.02 -.032)"/><use xlink:href="#dN" transform="matrix(1 0 0 1 -.02 -.032)"/><use xlink:href="#dO" transform="matrix(1 0 0 1 -.02 -.032)"/><use xlink:href="#dP" transform="matrix(1 0 0 1 -.02 -.032)"/><use xlink:href="#dQ" transform="matrix(1 0 0 1 -.02 -.032)"/><use xlink:href="#dR" transform="matrix(1 0 0 1 -.02 -.032)"/><use xlink:href="#dS" transform="matrix(1 0 0 1 -.02 -.032)"/><use xlink:href="#dT" transform="matrix(1 0 0 1 -.02 -.032)"/><use xlink:href="#dU" transform="matrix(1 0 0 1 -.02 -.032)"/><use xlink:href="#dV" transform="matrix(1 0 0 1 -.02 -.032)"/><use xlink:href="#dW" transform="matrix(1 0 0 1 -.02 -.032)"/><use xlink:href="#dX" transform="matrix(1 0 0 1 -.02 -.032)"/><use xlink:href="#dY" transform="matrix(1 0 0 1 -.02 -.032)"/><use xlink:href="#dZ" transform="matrix(1 0 0 1 -.02 -.032)"/><use xlink:href="#ea" transform="matrix(1 0 0 1 -.02 -.032)"/><use xlink:href="#eb" transform="matrix(1 0 0 1 -.02 -.032)"/><use xlink:href="#ec" transform="matrix(1 0 0 1 -.02 -.032)"/><use xlink:href="#ed" transform="matrix(1 0 0 1 -.02 -.032)"/><use xlink:href="#ee" transform="matrix(1 0 0 1 -.02 -.032)"/><use xlink:href="#ef" transform="matrix(1 0 0 1 -.02 -.032)"/><use xlink:href="#eg" transform="matrix(1 0 0 1 -.02 -.032)"/><use xlink:href="#eh" transform="matrix(1 0 0 1 -.02 -.032)"/><use xlink:href="#ei" transform="matrix(1 0 0 1 -.02 -.032)"/><use xlink:href="#ej" transform="matrix(1 0 0 1 -.02 -.032)"/><use xlink:href="#ek" transform="matrix(1 0 0 1 -.02 -.032)"/><use xlink:href="#el" transform="matrix(1 0 0 1 -.02 -.032)"/><use xlink:href="#em" transform="matrix(1 0 0 1 -.02 -.032)"/><use xlink:href="#en" transform="matrix(1 0 0 1 -.02 -.032)"/><g transform="matrix(.69315 0 0 .72855 -101.25 -234.25)"><use xlink:href="#eo"/><use xlink:href="#ep" transform="matrix(1.44269 0 0 1.37259 146.05 321.5)"/></g><g transform="matrix(.69315 0 0 .72855 -101.25 -234.25)"><use xlink:href="#eq"/><use xlink:href="#er" transform="matrix(1.44269 0 0 1.37259 146.05 321.5)"/></g><g transform="matrix(.69315 0 0 .72855 -101.25 -234.25)"><use xlink:href="#es"/><use xlink:href="#et" transform="matrix(1.44269 0 0 1.37259 146.05 321.5)"/></g><g transform="matrix(.69315 0 0 .72855 -101.25 -234.25)"><use xlink:href="#eu"/><use xlink:href="#ev" transform="matrix(1.44269 0 0 1.37259 146.05 321.5)"/></g><g transform="matrix(.69315 0 0 .72855 -101.25 -234.25)"><use xlink:href="#ew"/><use xlink:href="#ex" transform="matrix(1.44269 0 0 1.37259 146.05 321.5)"/></g><g transform="matrix(.69312 0 0 .72852 -101.25 -234.25)"><use xlink:href="#ey"/><use xlink:href="#ez" transform="matrix(1.44275 0 0 1.37265 146.05 321.5)"/></g><g transform="matrix(.69312 0 0 .72852 -101.25 -234.25)"><use xlink:href="#eA"/><use xlink:href="#eB" transform="matrix(1.44275 0 0 1.37265 146.05 321.5)"/></g><g transform="matrix(.69312 0 0 .72852 -101.25 -234.25)"><use xlink:href="#eC"/><use xlink:href="#eD" transform="matrix(1.44275 0 0 1.37265 146.05 321.5)"/></g><g transform="matrix(.69312 0 0 .72852 -101.25 -234.25)"><use xlink:href="#eE"/><use xlink:href="#eF" transform="matrix(1.44275 0 0 1.37265 146.05 321.5)"/></g><g transform="matrix(.69312 0 0 .72852 -101.25 -234.25)"><use xlink:href="#eG"/><use xlink:href="#eH" transform="matrix(1.44275 0 0 1.37265 146.05 321.5)"/></g><g transform="matrix(.69312 0 0 .72852 -101.25 -234.25)"><use xlink:href="#eI"/><use xlink:href="#eJ" transform="matrix(1.44275 0 0 1.37265 146.05 321.5)"/></g><g transform="matrix(.69312 0 0 .72852 -101.25 -234.25)"><use xlink:href="#eK"/><use xlink:href="#eL" transform="matrix(1.44275 0 0 1.37265 146.05 321.5)"/></g><g transform="matrix(.69312 0 0 .72852 -101.25 -234.25)"><use xlink:href="#eM"/><use xlink:href="#eN" transform="matrix(1.44275 0 0 1.37265 146.05 321.5)"/></g><g transform="matrix(.69312 0 0 .72852 -101.25 -234.25)"><use xlink:href="#eO"/><use xlink:href="#eP" transform="matrix(1.44275 0 0 1.37265 146.05 321.5)"/></g><g transform="matrix(.69312 0 0 .72852 -101.25 -234.25)"><use xlink:href="#eQ"/><use xlink:href="#eR" transform="matrix(1.44275 0 0 1.37265 146.05 321.5)"/></g><g transform="matrix(.69312 0 0 .72852 -101.25 -234.25)"><use xlink:href="#eS"/><use xlink:href="#eT" transform="matrix(1.44275 0 0 1.37265 146.05 321.5)"/></g><g transform="matrix(.69312 0 0 .72852 -101.25 -234.25)"><use xlink:href="#eU"/><use xlink:href="#eV" transform="matrix(1.44275 0 0 1.37265 146.05 321.5)"/></g><g transform="matrix(.69312 0 0 .72852 -101.25 -234.25)"><use xlink:href="#eW"/><use xlink:href="#eX" transform="matrix(1.44275 0 0 1.37265 146.05 321.5)"/></g><g transform="matrix(.69312 0 0 .72852 -101.25 -234.25)"><use xlink:href="#eY"/><use xlink:href="#eZ" transform="matrix(1.44275 0 0 1.37265 146.05 321.5)"/></g><g transform="matrix(.69312 0 0 .72852 -101.25 -234.25)"><use xlink:href="#fa"/><use xlink:href="#fb" transform="matrix(1.44275 0 0 1.37265 146.05 321.5)"/></g><g transform="matrix(.69312 0 0 .72852 -101.25 -234.25)"><use xlink:href="#fc"/><use xlink:href="#fd" transform="matrix(1.44275 0 0 1.37265 146.05 321.5)"/></g><g transform="matrix(.69315 0 0 .72855 -101.25 -234.25)"><use xlink:href="#fe"/><use xlink:href="#ff" transform="matrix(1.44269 0 0 1.37259 146.05 321.5)"/></g><g transform="matrix(.69315 0 0 .72855 -101.25 -234.25)"><use xlink:href="#fg"/><use xlink:href="#fh" transform="matrix(1.44269 0 0 1.37259 146.05 321.5)"/></g><g transform="matrix(.69315 0 0 .72855 -101.25 -234.25)"><use xlink:href="#fi"/><use xlink:href="#fj" transform="matrix(1.44269 0 0 1.37259 146.05 321.5)"/></g><g transform="matrix(.69315 0 0 .72855 -101.25 -234.25)"><use xlink:href="#fk"/><use xlink:href="#fl" transform="matrix(1.44269 0 0 1.37259 146.05 321.5)"/></g><g transform="matrix(.69315 0 0 .72855 -101.25 -234.25)"><use xlink:href="#fm"/><use xlink:href="#fn" transform="matrix(1.44269 0 0 1.37259 146.05 321.5)"/></g><g transform="matrix(.69315 0 0 .72855 -101.25 -234.25)"><use xlink:href="#fo"/><use xlink:href="#fp" transform="matrix(1.44269 0 0 1.37259 146.05 321.5)"/></g><g transform="matrix(.69315 0 0 .72855 -101.25 -234.25)"><use xlink:href="#fq"/><use xlink:href="#fr" transform="matrix(1.44269 0 0 1.37259 146.05 321.5)"/></g><g transform="matrix(.69315 0 0 .72855 -101.25 -234.25)"><use xlink:href="#fs"/><use xlink:href="#ft" transform="matrix(1.44269 0 0 1.37259 146.05 321.5)"/></g></svg>