<svg xmlns="http://www.w3.org/2000/svg" xmlns:xlink="http://www.w3.org/1999/xlink" preserveAspectRatio="none" width="200" height="105"><defs><path fill="#3FB65F" d="M187.6 465.5h205.75V321.55H187.6V465.5z" id="a"/><path fill="#FFE25C" d="M290.3 339l-85.35 54.5 85.7 54.2L376 393.5 290.3 339z" id="b"/><path fill="#0097C3" d="M265.05 368.1q-10.55 10.5-10.55 25.4 0 14.95 10.55 25.45 10.55 10.55 25.45 10.55 14.9 0 25.4-10.55 10.55-10.55 10.55-25.45 0-14.9-10.55-25.4-10.5-10.55-25.4-10.55-14.9 0-25.45 10.55z" id="c"/><path fill="#FFF" d="M258.5 376.95q-1.4 2.7-2.25 5.45 18.9-1.9 36.7 4.25 17.75 6.15 31.35 19.2.9-2.55 1.55-5.55-13.25-12.15-31.15-18.5-18.55-6.65-36.2-4.85z" id="d"/><path fill="#3FB65F" d="M267.75 377.85q-.25-.35-.7-.35l-2.45-.05-.1 3.8h.9l.05-1.45h.9q.65 0 .65.6v.9h.85l.05-1.05q0-.68-.65-.8.223.027.45-.2.3-.25.3-.65 0-.45-.25-.75m-.55.75q0 .55-.55.55l-1.2-.05v-1h1.15q.6 0 .6.5z" id="e"/><path fill="#3FB65F" d="M270.4 377.6q-.85 0-1.65-.1l-.25 3.8 1.8.1q.75.05 1.25-.5.45-.55.5-1.4.1-1.75-1.65-1.9m-.9.6l.75.05q1.05 0 .95 1.25-.05 1.25-1.15 1.25l-.7-.05.15-2.5z" id="f"/><path fill="#3FB65F" d="M276.25 378.8l.1-.65-3.1-.35-.45 3.8 3.1.35.1-.65-2.2-.2.1-1 1.95.2.1-.7-2-.2.1-.85 2.2.25z" id="g"/><path fill="#3FB65F" d="M277.85 379.25l.3 3 .85.15 1.25-2.75-.45 2.85.8.15.65-3.75-1.3-.2-1.25 2.75-.25-3-1.3-.2-.6 3.75.8.1.5-2.85z" id="h"/><path fill="#3FB65F" d="M285.5 380.85l-.55 2.3 1.9.5.1-.4-1.35-.3.15-.65 1.2.3.1-.4-1.2-.3.1-.55 1.4.35.1-.4-1.95-.45z" id="i"/><path fill="#3FB65F" d="M294.05 383.5q.15-.5-.1-.9-.25-.45-.75-.6l-1.8-.6-1.2 3.6.8.25.45-1.3 1 .35q.55.2 1-.1.45-.2.6-.7m-1.25-.95q.65.2.5.7-.05.25-.35.4-.25.1-.5 0l-.85-.25.4-1.15.8.3z" id="j"/><path fill="#3FB65F" d="M300.7 384.85q-.8-.35-1.45-.1-.7.25-1.05 1.05-.35.8-.1 1.5.25.7 1.1 1.05 1.7.7 2.55-.95.35-.8.05-1.5-.3-.65-1.1-1.05m-1.75 1.3q.5-1.2 1.5-.7 1.1.4.5 1.6-.45 1.15-1.5.7-.45-.2-.6-.65-.15-.45.1-.95z" id="k"/><path fill="#3FB65F" d="M303.55 386.7q-.65.25-1.05 1-.35.75-.1 1.5.25.75.95 1.05.7.4 1.25.05l-.1.45.45.2.85-1.7-1.45-.75-.25.55.8.4q-.5.65-1.25.25-1-.5-.45-1.65.6-1.1 1.55-.6.6.3.6.95l.65.35q.2-.5-.05-1-.3-.55-.9-.85-.8-.4-1.5-.2z" id="l"/><path fill="#3FB65F" d="M313.35 392.35l.3-.55-2.65-1.65-2 3.2 2.65 1.65.3-.5-1.85-1.2.55-.85 1.65 1.1.4-.6-1.7-1.05.45-.75 1.9 1.2z" id="m"/><path fill="#3FB65F" d="M313.5 394.85l-.65-.45q-.25.35-.1.85.1.55.75 1 1.35.95 2.05 0 .5-.7-.6-1.7-.75-.65-.55-.95.25-.4.8 0 .8.45.45.95l.6.45q.6-.95-.65-1.9-1.2-.8-1.85.1-.5.7.7 1.75.6.6.4.95-.3.4-.9-.05-.75-.5-.45-1z" id="n"/><path fill="#3FB65F" d="M318.9 395.5q-1.2-.95-1.85 0-.5.65.6 1.8.6.6.4.95-.25.35-.9-.1-.8-.5-.4-1.05l-.65-.45q-.6 1 .55 1.9 1.3 1.05 2.05.05.55-.65-.5-1.7-.7-.7-.5-1 .25-.35.8.05.7.55.35 1l.65.45q.65-.95-.6-1.9z" id="o"/><path fill="#3FB65F" d="M297.35 383.5l-2.3-.9-1.35 3.55.85.3.5-1.35.85.3q.65.3.45.8l-.35.85.8.3.4-1q.25-.7-.3-.9.2.05.5-.1.35-.15.5-.5.15-.4.05-.8-.15-.4-.6-.55m-.6.45q.5.15.35.65-.15.5-.65.3l-1.15-.45.4-.95 1.05.45z" id="p"/><path fill="#3FB65F" d="M308.15 391.85l-.45.8.75.4.55-.9q.273-.637-.15-.95.184.076.45 0 .4-.15.6-.45.5-1-.35-1.45l-2.1-1.2-1.9 3.3.8.45.7-1.3.8.45q.55.3.3.85m.3-1.3l-1.05-.6.5-.85 1 .55q.5.3.25.75-.25.4-.7.15z" id="q"/><path fill="#3FB65F" d="M319.25 399.9q.1.75.75 1.3t1.4.5q.75-.05 1.3-.7.55-.65.5-1.4-.05-.75-.75-1.3-1.55-1.2-2.7.2-.55.65-.5 1.4m1.15.8q-.4-.3-.4-.75 0-.5.35-.9.8-.95 1.7-.3.4.35.4.8 0 .5-.4.9-.8 1.05-1.65.25z" id="r"/><path fill="#3FB65F" d="M260.35 378.1q-.5.55-.45 1.4 0 .85.55 1.35.55.5 1.45.45.85 0 1.4-.55.5-.55.45-1.4-.1-1.85-2-1.85-.9.05-1.4.6m1.4.05q1.1-.1 1.2 1.25 0 1.2-1.1 1.3-.5.05-.8-.3-.35-.35-.35-.95-.05-.55.25-.95.3-.35.8-.35z" id="s"/><path fill="#FFF" d="M262.2 386.65h-1.15l-.35-1.1-.3 1.05h-1.15l.9.7-.35 1.05.9-.65.9.65-.3-1.1.9-.6z" id="t"/><path fill="#FFF" d="M265.7 401.25h-1.15l-.35-1.05-.3 1.05h-1.15l.9.65-.35 1.05.9-.65.9.65-.3-1.05.9-.65z" id="u"/><path fill="#FFF" d="M277.95 395.7l-.25-.9.75-.55h-.95l-.3-.9-.25.9H276l.75.55-.3.9.75-.55.75.55z" id="v"/><path fill="#FFF" d="M290.5 396.8l-.3.9h-.95l.8.55-.3.9.75-.55.75.55-.3-.9.75-.55h-.9l-.3-.9z" id="w"/><path fill="#FFF" d="M288.15 401.6h-.75l-.25-.7-.2.7h-.75l.6.45-.25.7.6-.45.6.45-.2-.7.6-.45z" id="x"/><path fill="#FFF" d="M289.7 404.8h-.55l.45.3-.15.5.4-.3.45.3-.15-.5.4-.3h-.5l-.2-.5-.15.5z" id="y"/><path fill="#FFF" d="M294.5 400.65l-.3.85h-.95l.75.6-.3.85.8-.55.75.55-.3-.9.75-.5h-.95l-.25-.9z" id="z"/><path fill="#FFF" d="M290.8 408.75h-1.1l.9.65-.35 1.05.9-.65.9.65-.35-1.05.9-.65h-1.1l-.35-1.05-.35 1.05z" id="A"/><path fill="#FFF" d="M291.25 420.6h-.35l-.1-.35-.15.35h-.35l.3.25-.1.35.3-.25.3.25-.15-.35.3-.25z" id="B"/><path fill="#FFF" d="M300.2 381.5l.9.65-.35 1.05.9-.65.9.65-.35-1.05.9-.65H302l-.35-1.05-.35 1.05h-1.1z" id="C"/><path fill="#FFF" d="M299.6 412.35h-.75l-.25-.75-.25.7h-.75l.65.45-.25.7.6-.4.6.4-.25-.7.65-.4z" id="D"/><path fill="#FFF" d="M301 418.5h-.95l.75.55-.3.9.75-.55.8.55-.3-.9.75-.5h-.95l-.3-.9-.25.85z" id="E"/><path fill="#FFF" d="M304.85 412.35h-.75l-.25-.75-.25.7h-.75l.65.45-.25.7.6-.4.6.4-.25-.7.65-.4z" id="F"/><path fill="#FFF" d="M308.75 419.65l-.25.7.6-.45.6.45-.25-.7.65-.45h-.75l-.25-.7-.25.7h-.75l.65.45z" id="G"/><path fill="#FFF" d="M308.65 416.65l-.3.9.75-.55.75.55-.3-.9.75-.55h-.9l-.3-.85-.3.85h-.9l.75.55z" id="H"/><path fill="#FFF" d="M310.1 412.35h-.75l-.25-.75-.25.7h-.75l.65.45-.25.7.6-.4.6.4-.25-.7.65-.4z" id="I"/><path fill="#FFF" d="M312.05 411.6l-.2.7h-.75l.6.45-.25.7.6-.4.6.4-.2-.7.6-.4h-.75l-.25-.75z" id="J"/><path fill="#FFF" d="M314.85 410.25l-.3.85h-.9l.75.55-.3.9.75-.55.75.55-.3-.9.75-.55h-.9l-.3-.85z" id="K"/><path fill="#FFF" d="M315.9 408.5h-.95l.75.55-.3.9.75-.55.75.55-.25-.9.75-.55h-.95l-.3-.9-.25.9z" id="L"/><path fill="#FFF" d="M315.35 405.35h-1.15l.95.7-.35 1.05.9-.65.9.65-.35-1.1.9-.6h-1.1l-.35-1.1-.35 1.05z" id="M"/><path fill="#FFF" d="M320.35 404.5l-.25.7h-.75l.65.45-.25.7.6-.45.6.45-.25-.7.65-.45h-.75l-.25-.7z" id="N"/><path fill="#FFF" d="M299.25 392.65l.6-.45.6.45-.25-.75.65-.4h-.75l-.25-.75-.25.75h-.75l.65.4-.25.75z" id="O"/><path fill="#FFF" d="M267.6 400.5l.4-.3.45.3-.15-.5.4-.35h-.5l-.2-.5-.15.5h-.55l.45.35-.15.5z" id="P"/><path fill="#FFF" d="M259.35 403.9l-.25.7h-.75l.65.45-.25.7.6-.45.6.45-.25-.7.65-.45h-.75l-.25-.7z" id="Q"/><path fill="#FFF" d="M271.25 403.9l-.25.9h-.95l.75.55-.3.85.75-.55.8.55-.3-.85.75-.55h-.95l-.3-.9z" id="R"/><path fill="#FFF" d="M269.7 408.65h-.95l.75.55-.3.9.75-.55.75.55-.25-.9.75-.55h-.95l-.3-.9-.25.9z" id="S"/><path fill="#FFF" d="M278.05 413.7l-.35-1.05.9-.65h-1.1l-.35-1.05-.35 1.05h-1.1l.9.65-.35 1.05.9-.65.9.65z" id="T"/></defs><use xlink:href="#a" transform="matrix(.972 0 0 .72935 -182.35 -234.5)"/><use xlink:href="#b" transform="matrix(.972 0 0 .72935 -182.35 -234.5)"/><use xlink:href="#c" transform="matrix(.972 0 0 .72935 -182.35 -234.5)"/><use xlink:href="#d" transform="matrix(.972 0 0 .72935 -182.35 -234.5)"/><use xlink:href="#e" transform="matrix(.97197 0 0 .72932 -182.35 -234.5)"/><use xlink:href="#f" transform="matrix(.97197 0 0 .72932 -182.35 -234.5)"/><use xlink:href="#g" transform="matrix(.97197 0 0 .72932 -182.35 -234.5)"/><use xlink:href="#h" transform="matrix(.97197 0 0 .72932 -182.35 -234.5)"/><use xlink:href="#i" transform="matrix(.97197 0 0 .72932 -182.35 -234.5)"/><use xlink:href="#j" transform="matrix(.97197 0 0 .72932 -182.35 -234.5)"/><use xlink:href="#k" transform="matrix(.97197 0 0 .72932 -182.35 -234.5)"/><use xlink:href="#l" transform="matrix(.97197 0 0 .72932 -182.35 -234.5)"/><use xlink:href="#m" transform="matrix(.97197 0 0 .72932 -182.35 -234.5)"/><use xlink:href="#n" transform="matrix(.97197 0 0 .72932 -182.35 -234.5)"/><use xlink:href="#o" transform="matrix(.97197 0 0 .72932 -182.35 -234.5)"/><use xlink:href="#p" transform="matrix(.97197 0 0 .72932 -182.35 -234.5)"/><use xlink:href="#q" transform="matrix(.97197 0 0 .72932 -182.35 -234.5)"/><use xlink:href="#r" transform="matrix(.97197 0 0 .72932 -182.35 -234.5)"/><use xlink:href="#s" transform="matrix(.97197 0 0 .72932 -182.35 -234.5)"/><use xlink:href="#t" transform="matrix(.97197 0 0 .72932 -182.35 -234.5)"/><use xlink:href="#u" transform="matrix(.97197 0 0 .72932 -182.35 -234.5)"/><use xlink:href="#v" transform="matrix(.97197 0 0 .72932 -182.35 -234.5)"/><use xlink:href="#w" transform="matrix(.97197 0 0 .72932 -182.35 -234.5)"/><use xlink:href="#x" transform="matrix(.97197 0 0 .72932 -182.35 -234.5)"/><use xlink:href="#y" transform="matrix(.97197 0 0 .72932 -182.35 -234.5)"/><use xlink:href="#z" transform="matrix(.97197 0 0 .72932 -182.35 -234.5)"/><use xlink:href="#A" transform="matrix(.97197 0 0 .72932 -182.35 -234.5)"/><use xlink:href="#B" transform="matrix(.97197 0 0 .72932 -182.35 -234.5)"/><use xlink:href="#C" transform="matrix(.97197 0 0 .72932 -182.35 -234.5)"/><use xlink:href="#D" transform="matrix(.97197 0 0 .72932 -182.35 -234.5)"/><use xlink:href="#E" transform="matrix(.97197 0 0 .72932 -182.35 -234.5)"/><use xlink:href="#F" transform="matrix(.97197 0 0 .72932 -182.35 -234.5)"/><use xlink:href="#G" transform="matrix(.97197 0 0 .72932 -182.35 -234.5)"/><use xlink:href="#H" transform="matrix(.97197 0 0 .72932 -182.35 -234.5)"/><use xlink:href="#I" transform="matrix(.97197 0 0 .72932 -182.35 -234.5)"/><use xlink:href="#J" transform="matrix(.97197 0 0 .72932 -182.35 -234.5)"/><use xlink:href="#K" transform="matrix(.97197 0 0 .72932 -182.35 -234.5)"/><use xlink:href="#L" transform="matrix(.97197 0 0 .72932 -182.35 -234.5)"/><use xlink:href="#M" transform="matrix(.97197 0 0 .72932 -182.35 -234.5)"/><use xlink:href="#N" transform="matrix(.97197 0 0 .72932 -182.35 -234.5)"/><use xlink:href="#O" transform="matrix(.97197 0 0 .72932 -182.35 -234.5)"/><use xlink:href="#P" transform="matrix(.97197 0 0 .72932 -182.35 -234.5)"/><use xlink:href="#Q" transform="matrix(.97197 0 0 .72932 -182.35 -234.5)"/><use xlink:href="#R" transform="matrix(.97197 0 0 .72932 -182.35 -234.5)"/><use xlink:href="#S" transform="matrix(.97197 0 0 .72932 -182.35 -234.5)"/><use xlink:href="#T" transform="matrix(.97197 0 0 .72932 -182.35 -234.5)"/></svg>