<svg xmlns="http://www.w3.org/2000/svg" xmlns:xlink="http://www.w3.org/1999/xlink" preserveAspectRatio="none" width="200" height="105"><defs><path fill="#EF4338" d="M193.9 319v96.05H448V319H193.9z" id="a"/><path fill="#00B389" d="M193.9 415.05v48H448v-48H193.9z" id="b"/><path fill="#FFF" d="M191.95 319h-32v144.05h32V319z" id="c"/><path fill="#FFF" d="M193.95 319h-2v144.05h2V319z" id="d"/><path fill="#EF4338" d="M167.65 344.15h-1.2v1.8h-.75v2h-.95V350h.95v2.05h.75v1.75h1.2v-1.75h.8V350h.85v-2.05h-.85v-2h-.8v-1.8z" id="e"/><path fill="#EF4338" d="M165.7 430v2h-.95v2.05h.95v2.05h.75v1.75h1.2v-1.75h.8v-2.05h.85V432h-.85v-2h-.8v-1.8h-1.2v1.8h-.75z" id="f"/><path fill="#EF4338" d="M179.2 326.15h-1.35v3.7h-1.2v3.1h-1.4v-3.1h-1.2v-3.7h-1.35v-2.25h-4.2v2.25h-1.35v3.7h-1.2v3.1h-1.2v3.65h1.2v2.7h1.2v2.9h1.35v2.1h1.55v2.7h1.1v-2.7h1.55v-2.1h1.35v-2.9h1.2v-2.7h1.4v2.7h1.2v2.9h1.35v2.1h1.55v2.7h1.1v-2.7h1.55v-2.1h1.35v-2.9h1.2v-2.7h1.2v-3.65h-1.2v-3.1h-1.2v-3.7h-1.35v-2.25h-4.2v2.25z" id="g"/><path fill="#EF4338" d="M185.45 344.15h-1.2v1.8h-.75v2h-.9V350h.9v2.05h.75v1.75h1.2v-1.75h.75V350h.95v-2.05h-.95v-2h-.75v-1.8z" id="h"/><path fill="#EF4338" d="M173.6 345.95h-.8v2h-.85V350h.85v2.05h.8v1.75h1.2v-1.75h.75V350h.8v2.05h.8v1.75h1.2v-1.75h.75V350h.9v-2.05h-.9v-2h-.75v-1.8h-1.2v1.8h-.8v2h-.8v-2h-.75v-1.8h-1.2v1.8z" id="i"/><path fill="#EF4338" d="M171.15 437.75v-2.7h-1.1v2.7h-1.55v2.1h-1.35v2.9h-1.2v2.65h-1.2v3.7h1.2v3.05h1.2v3.7h1.35v2.3h4.2v-2.3h1.35v-3.7h1.2v-3.05h1.4v3.05h1.2v3.7h1.35v2.3h4.2v-2.3h1.35v-3.7h1.2v-3.05h1.2v-3.7h-1.2v-2.65h-1.2v-2.9h-1.35v-2.1h-1.55v-2.7h-1.1v2.7h-1.55v2.1h-1.35v2.9h-1.2v2.65h-1.4v-2.65h-1.2v-2.9h-1.35v-2.1h-1.55z" id="j"/><path fill="#EF4338" d="M186.2 430h-.75v-1.8h-1.2v1.8h-.75v2h-.9v2.05h.9v2.05h.75v1.75h1.2v-1.75h.75v-2.05h.95V432h-.95v-2z" id="k"/><path fill="#EF4338" d="M177.15 430h-.8v2h-.8v-2h-.75v-1.8h-1.2v1.8h-.8v2h-.85v2.05h.85v2.05h.8v1.75h1.2v-1.75h.75v-2.05h.8v2.05h.8v1.75h1.2v-1.75h.75v-2.05h.9V432h-.9v-2h-.75v-1.8h-1.2v1.8z" id="l"/><path fill="#EF4338" d="M182.9 356.2v-2.75h-.95v-1.8h-1.35v1.8h-.95v2.95h-1.45v3.05h-1.3v3.35h-1.85v-3.35h-1.35v-3.05h-1.45v-2.95h-.9v-1.8h-1.4v1.8h-.9v2.75h-1.9v3.25h-1.5v2.75h-.9v4.1h.9v2.85h1.3v3.9h1.2v2.85h1.35v-2.85h1.4v-3.9h.9v-2.85h-1.3v-4.1h1.6v2.7h1.15v4.85h1.4v3.65h-1.35v2.8H172v3.35h-1.35v3.6h-1.2v3.25h-1.35v-3.2h-1.05v-2.6h-.95v-3.35h-.7v-2.6h-.65v9.8h1v3.3h1.15v2.15h1.1v2.2h-1.1v2.2h-1.15v3.25h-1v9.8h.65v-2.6h.7v-3.35h.95v-2.6h1.05v-3.15h1.35v3.25h1.2v3.55H172v3.4h1.3v2.75h1.35v3.7h-1.4v4.85h-1.15v2.65h-1.6v-4.05h1.3v-2.85h-.9v-3.95h-1.4v-2.85h-1.35v2.85h-1.2v3.95h-1.3v2.85h-.9v4.05h.9v2.75h1.5v3.3h1.9v2.75h.9v1.75h1.4v-1.75h.9v-2.95h1.45v-3.1h1.35v-3.35h1.85v3.35h1.3v3.1h1.45v2.95h.95v1.75h1.35v-1.75h.95v-2.75h1.85v-3.3h1.5v-2.75h.9v-4.05h-.9v-2.85h-1.3v-3.95h-1.2v-2.85h-1.35v2.85h-1.35v3.95h-.9v2.85h1.3v4.05h-1.65v-2.65h-1.1v-4.85h-1.45v-3.7h1.35v-2.75h1.3v-3.4h1.35v-3.55h1.25v-3.25h1.3v3.15h1.05v2.6h.95v3.35h.7v2.6h.65v-9.8h-.95v-3.25H185v-2.2h-1.1v-2.2h1.1v-2.15h1.2v-3.3h.95v-9.8h-.65v2.6h-.7v3.35h-.95v2.6h-1.05v3.2h-1.3v-3.25h-1.25v-3.6h-1.35v-3.35h-1.3v-2.8h-1.35v-3.65h1.45v-4.85h1.1v-2.7h1.65v4.1h-1.3v2.85h.9v3.9h1.35v2.85h1.35v-2.85h1.2v-3.9h1.3v-2.85h.9v-4.1h-.9v-2.75h-1.5v-3.25h-1.85z" id="m"/><path fill="#FFF" d="M176.9 375.25h-1.85v2.85H174v2.9h-1.1v3.45h-1.35v3.4h-1.4v2.05h-.95v2.2h.95v2.1h1.4v3.35h1.35V401h1.1v2.9h1.05v2.9h1.85v-2.9h1.05V401H179v-3.45h1.4v-3.35h1.35v-2.1h.95v-2.2h-.95v-2.05h-1.35v-3.4H179V381h-1.05v-2.9h-1.05v-2.85z" id="n"/><path fill="#EF4338" d="M177.65 385.05v1.75h-1.05v1.5h-1.3v-1.5h-1.05v-1.75h-.95v3.25h.95v1.65h.9v2.1h-.9v1.65h-.95v3.3h.95v-1.75h1.05v-1.55h1.3v1.55h1.05V397h.95v-3.3h-.95v-1.65h-.9v-2.1h.9v-1.65h.95v-3.25h-.95z" id="o"/><path fill="#FFF" d="M172.35 333.2v-2.9h-1.15v-2.45H170v2.45h-1.1v2.9h-1.25v3.15h1.25v2.9h1.1v2.45h1.2v-2.45h1.15v-2.9h1.2v-3.15h-1.2z" id="p"/><path fill="#FFF" d="M171.2 440.3H170v2.5h-1.1v2.85h-1.25v3.2h1.25v2.9h1.1v2.45h1.2v-2.45h1.15v-2.9h1.2v-3.2h-1.2v-2.85h-1.15v-2.5z" id="q"/><path fill="#FFF" d="M181.9 330.3v-2.45h-1.2v2.45h-1.1v2.9h-1.25v3.15h1.25v2.9h1.1v2.45h1.2v-2.45h1.15v-2.9h1.2v-3.15h-1.2v-2.9h-1.15z" id="r"/><path fill="#FFF" d="M181.9 440.3h-1.2v2.5h-1.1v2.85h-1.25v3.2h1.25v2.9h1.1v2.45h1.2v-2.45h1.15v-2.9h1.2v-3.2h-1.2v-2.85h-1.15v-2.5z" id="s"/><path fill="#EF4338" d="M164.75 329.15h1.05v-2.95h-1.05v2.95z" id="t"/><path fill="#EF4338" d="M175.5 343.3h.9v-2.9h-.9v2.9z" id="u"/><path fill="#EF4338" d="M175.5 327.1h.9v-3.2h-.9v3.2z" id="v"/><path fill="#EF4338" d="M175.5 384.5h.9v-3.25h-.9v3.25z" id="w"/><path fill="#EF4338" d="M164.75 343.35h1.05v-2.95h-1.05v2.95z" id="x"/><path fill="#EF4338" d="M164.75 357.75h1.05v-2.9h-1.05v2.9z" id="y"/><path fill="#EF4338" d="M164.75 372.95h1.05v-2.85h-1.05v2.85z" id="z"/><path fill="#EF4338" d="M165.8 453.05h-1.05v2.8h1.05v-2.8z" id="A"/><path fill="#EF4338" d="M171.05 445.65h-.85v3.25h.85v-3.25z" id="B"/><path fill="#EF4338" d="M176.4 438.7h-.9v3h.9v-3z" id="C"/><path fill="#EF4338" d="M176.4 454.9h-.9v3.25h.9v-3.25z" id="D"/><path fill="#EF4338" d="M176.4 397.55h-.9v3.25h.9v-3.25z" id="E"/><path fill="#EF4338" d="M165.8 438.65h-1.05v3h1.05v-3z" id="F"/><path fill="#EF4338" d="M165.8 424.1h-1.05v3.25h1.05v-3.25z" id="G"/><path fill="#EF4338" d="M165.8 409.15h-1.05v3.1h1.05v-3.1z" id="H"/><path fill="#EF4338" d="M164.75 392.6h1.05v-3.15h-1.05v3.15z" id="I"/><path fill="#EF4338" d="M171.8 392.6h.85v-3.15h-.85v3.15z" id="J"/><path fill="#EF4338" d="M186.15 329.15h1v-2.95h-1v2.95z" id="K"/><path fill="#EF4338" d="M180.85 336.4h.9v-3.25h-.9v3.25z" id="L"/><path fill="#EF4338" d="M186.15 343.35h1v-2.95h-1v2.95z" id="M"/><path fill="#EF4338" d="M186.15 357.75h1v-2.9h-1v2.9z" id="N"/><path fill="#EF4338" d="M186.15 372.95h1v-2.85h-1v2.85z" id="O"/><path fill="#EF4338" d="M187.15 453.05h-1v2.8h1v-2.8z" id="P"/><path fill="#EF4338" d="M181.75 445.65h-.9v3.25h.9v-3.25z" id="Q"/><path fill="#EF4338" d="M187.15 438.65h-1v3h1v-3z" id="R"/><path fill="#EF4338" d="M187.15 424.1h-1v3.25h1v-3.25z" id="S"/><path fill="#EF4338" d="M187.15 409.15h-1v3.1h1v-3.1z" id="T"/><path fill="#EF4338" d="M186.15 392.6h1v-3.15h-1v3.15z" id="U"/><path fill="#EF4338" d="M179.25 392.6h.9v-3.15h-.9v3.15z" id="V"/><path fill="#EF4338" d="M176.4 354.65h-.9v2.9h.9v-2.9z" id="W"/><path fill="#EF4338" d="M175.5 427.55h.9v-3.25h-.9v3.25z" id="X"/><path fill="#FFF" d="M166.75 349.95h.65v-1.9h-.65v1.9z" id="Y"/><path fill="#FFF" d="M173.85 349.95h.65v-1.9h-.65v1.9z" id="Z"/><path fill="#FFF" d="M167.4 432.1h-.65v1.9h.65v-1.9z" id="aa"/><path fill="#FFF" d="M174.5 432.1h-.65v1.9h.65v-1.9z" id="ab"/><path fill="#FFF" d="M184.5 349.95h.7v-1.9h-.7v1.9z" id="ac"/><path fill="#FFF" d="M177.4 349.95h.65v-1.9h-.65v1.9z" id="ad"/><path fill="#FFF" d="M185.2 432.1h-.7v1.9h.7v-1.9z" id="ae"/><path fill="#FFF" d="M178.05 432.1h-.65v1.9h.65v-1.9z" id="af"/><path fill="#FFF" d="M170.2 336.4h.85v-3.25h-.85v3.25z" id="ag"/></defs><use xlink:href="#a" transform="matrix(.69429 0 0 .72888 -111.05 -232.5)"/><use xlink:href="#b" transform="matrix(.69429 0 0 .72888 -111.05 -232.5)"/><use xlink:href="#c" transform="matrix(.69429 0 0 .72888 -111.05 -232.5)"/><use xlink:href="#d" transform="matrix(.69429 0 0 .72888 -111.05 -232.5)"/><use xlink:href="#e" transform="matrix(.6942 0 0 .72879 -111.05 -232.5)"/><use xlink:href="#f" transform="matrix(.6942 0 0 .72879 -111.05 -232.5)"/><use xlink:href="#g" transform="matrix(.6942 0 0 .72879 -111.05 -232.5)"/><use xlink:href="#h" transform="matrix(.6942 0 0 .72879 -111.05 -232.5)"/><use xlink:href="#i" transform="matrix(.6942 0 0 .72879 -111.05 -232.5)"/><use xlink:href="#j" transform="matrix(.6942 0 0 .72879 -111.05 -232.5)"/><use xlink:href="#k" transform="matrix(.6942 0 0 .72879 -111.05 -232.5)"/><use xlink:href="#l" transform="matrix(.6942 0 0 .72879 -111.05 -232.5)"/><use xlink:href="#m" transform="matrix(.6942 0 0 .72879 -111.05 -232.5)"/><use xlink:href="#n" transform="matrix(.6942 0 0 .72879 -111.05 -232.5)"/><use xlink:href="#o" transform="matrix(.6942 0 0 .72879 -111.05 -232.5)"/><use xlink:href="#p" transform="matrix(.6942 0 0 .72879 -111.05 -232.5)"/><use xlink:href="#q" transform="matrix(.6942 0 0 .72879 -111.05 -232.5)"/><use xlink:href="#r" transform="matrix(.6942 0 0 .72879 -111.05 -232.5)"/><use xlink:href="#s" transform="matrix(.6942 0 0 .72879 -111.05 -232.5)"/><use xlink:href="#t" transform="matrix(.6942 0 0 .72879 -111.05 -232.5)"/><use xlink:href="#u" transform="matrix(.6942 0 0 .72879 -111.05 -232.5)"/><use xlink:href="#v" transform="matrix(.6942 0 0 .72879 -111.05 -232.5)"/><use xlink:href="#w" transform="matrix(.6942 0 0 .72879 -111.05 -232.5)"/><use xlink:href="#x" transform="matrix(.6942 0 0 .72879 -111.05 -232.5)"/><use xlink:href="#y" transform="matrix(.6942 0 0 .72879 -111.05 -232.5)"/><use xlink:href="#z" transform="matrix(.6942 0 0 .72879 -111.05 -232.5)"/><use xlink:href="#A" transform="matrix(.6942 0 0 .72879 -111.05 -232.5)"/><use xlink:href="#B" transform="matrix(.6942 0 0 .72879 -111.05 -232.5)"/><use xlink:href="#C" transform="matrix(.6942 0 0 .72879 -111.05 -232.5)"/><use xlink:href="#D" transform="matrix(.6942 0 0 .72879 -111.05 -232.5)"/><use xlink:href="#E" transform="matrix(.6942 0 0 .72879 -111.05 -232.5)"/><use xlink:href="#F" transform="matrix(.6942 0 0 .72879 -111.05 -232.5)"/><use xlink:href="#G" transform="matrix(.6942 0 0 .72879 -111.05 -232.5)"/><use xlink:href="#H" transform="matrix(.6942 0 0 .72879 -111.05 -232.5)"/><use xlink:href="#I" transform="matrix(.6942 0 0 .72879 -111.05 -232.5)"/><use xlink:href="#J" transform="matrix(.6942 0 0 .72879 -111.05 -232.5)"/><use xlink:href="#K" transform="matrix(.6942 0 0 .72879 -111.05 -232.5)"/><use xlink:href="#L" transform="matrix(.6942 0 0 .72879 -111.05 -232.5)"/><use xlink:href="#M" transform="matrix(.6942 0 0 .72879 -111.05 -232.5)"/><use xlink:href="#N" transform="matrix(.6942 0 0 .72879 -111.05 -232.5)"/><use xlink:href="#O" transform="matrix(.6942 0 0 .72879 -111.05 -232.5)"/><use xlink:href="#P" transform="matrix(.6942 0 0 .72879 -111.05 -232.5)"/><use xlink:href="#Q" transform="matrix(.6942 0 0 .72879 -111.05 -232.5)"/><use xlink:href="#R" transform="matrix(.6942 0 0 .72879 -111.05 -232.5)"/><use xlink:href="#S" transform="matrix(.6942 0 0 .72879 -111.05 -232.5)"/><use xlink:href="#T" transform="matrix(.6942 0 0 .72879 -111.05 -232.5)"/><use xlink:href="#U" transform="matrix(.6942 0 0 .72879 -111.05 -232.5)"/><use xlink:href="#V" transform="matrix(.6942 0 0 .72879 -111.05 -232.5)"/><use xlink:href="#W" transform="matrix(.6942 0 0 .72879 -111.05 -232.5)"/><use xlink:href="#X" transform="matrix(.6942 0 0 .72879 -111.05 -232.5)"/><use xlink:href="#Y" transform="matrix(.6942 0 0 .72879 -111.05 -232.5)"/><use xlink:href="#Z" transform="matrix(.6942 0 0 .72879 -111.05 -232.5)"/><use xlink:href="#aa" transform="matrix(.6942 0 0 .72879 -111.05 -232.5)"/><use xlink:href="#ab" transform="matrix(.6942 0 0 .72879 -111.05 -232.5)"/><use xlink:href="#ac" transform="matrix(.6942 0 0 .72879 -111.05 -232.5)"/><use xlink:href="#ad" transform="matrix(.6942 0 0 .72879 -111.05 -232.5)"/><use xlink:href="#ae" transform="matrix(.6942 0 0 .72879 -111.05 -232.5)"/><use xlink:href="#af" transform="matrix(.6942 0 0 .72879 -111.05 -232.5)"/><use xlink:href="#ag" transform="matrix(.69426 0 0 .72885 -111.05 -232.5)"/></svg>