<svg xmlns="http://www.w3.org/2000/svg" xmlns:xlink="http://www.w3.org/1999/xlink" preserveAspectRatio="none" width="200" height="105"><defs><path fill="#EE3156" d="M434.5 321.5h-72v144.05h72V321.5z" id="a"/><path fill="#EE3156" d="M218.45 321.5h-72v144.05h72V321.5z" id="b"/><path fill="#FFF" d="M218.45 465.55H362.5V321.5H218.45v144.05z" id="c"/><path fill="#EE3156" d="M328.2 374.45q-1.55-.55-2.6-2.65-1.35-3.15-2.3-5.4l-12.9 14.55q-1.25 1.4-2.7.65-1.5-.8-1.05-2.85l6.25-30.7q-9.2 5.55-10.2 5.9-1.5.5-2.85-2.1l-9.35-18.55-9.4 18.55q-1.35 2.6-2.85 2.1-1-.35-10.2-5.9l6.25 30.7q.45 2.05-1.05 2.85-1.45.75-2.7-.65l-12.9-14.55q-.95 2.25-2.3 5.4-1.05 2.1-2.6 2.65-2.85 1-15.8-3.1 4.5 16.8 4.45 18.25-.05 1.85-1.55 2.8-.9.55-4.8 1.9l23 19.25q.85.7 2.5 1.9 1.35 1.1 1.8 2.3 1.2 3.2-2.75 10.65l24.8-3.85q2.15-.3 3.15 0 1.6.45 1.5 2.55-.65 15.55-1.3 26.6h5.45q-.65-11.05-1.3-26.6-.1-2.1 1.5-2.55 1-.3 3.15 0l24.8 3.85q-3.95-7.45-2.75-10.65.45-1.2 1.8-2.3 1.65-1.2 2.5-1.9l23-19.25q-3.9-1.35-4.8-1.9-1.5-.95-1.55-2.8-.05-1.45 4.45-18.25-12.9 4.1-15.8 3.1z" id="d"/></defs><use xlink:href="#a" transform="matrix(.69426 0 0 .72885 -101.65 -234.35)"/><use xlink:href="#b" transform="matrix(.69426 0 0 .72885 -101.65 -234.35)"/><use xlink:href="#c" transform="matrix(.69429 0 0 .72888 -101.65 -234.35)"/><use xlink:href="#d" transform="matrix(.69426 0 0 .72885 -101.65 -234.35)"/></svg>