<svg xmlns="http://www.w3.org/2000/svg" xmlns:xlink="http://www.w3.org/1999/xlink" preserveAspectRatio="none" width="200" height="105"><defs><g id="a"><path fill="#007FFF" d="M.15 0v37.45L93.75 0H.15M32 10l-8.5 4.35 3.25 7-8.5-4.35-8.5 4.35 3.25-7L4.5 10H15l3.25-7 3.25 7H32m67.9 39.9V12.55L6.5 49.9h93.4z"/><path fill="#F7D618" d="M23.5 14.35L32 10H21.5l-3.25-7L15 10H4.5l8.5 4.35-3.25 7 8.5-4.35 8.5 4.35-3.25-7M99.9.05L100 0h-6.25L.15 37.45 0 37.5V40L99.9.05m.1 12.45V10l-.1.05L0 50h6.25l.25-.1 93.4-37.35.1-.05z"/><path fill="#CE1021" d="M100 10V0l-.1.05L0 40v10l99.9-39.95.1-.05z"/></g></defs><use xlink:href="#a" transform="scale(2 2.1)"/></svg>