<svg xmlns="http://www.w3.org/2000/svg" xmlns:xlink="http://www.w3.org/1999/xlink" preserveAspectRatio="none" width="200" height="105"><defs><g id="a"><path fill="#FC3" d="M43.75 37.5H0V50h43.75V37.5m-30.4-25.75L17.1 9.3l3.65 2.6-1.2-4.3 3.6-2.75-4.5-.15-1.4-4.25-1.6 4.2-4.5.05 3.5 2.8-1.3 4.25M100 50V37.5H56.25V50H100z"/><path fill="#009" d="M43.75 12.5V0H0v12.5h43.75M17.1 9.3l-3.75 2.45 1.3-4.25-3.5-2.8 4.5-.05 1.6-4.2 1.4 4.25 4.5.15-3.6 2.75 1.2 4.3-3.65-2.6m82.9 3.2V0H56.25v12.5H100z"/><path fill="#090" d="M43.75 37.5V25H0v12.5h43.75m56.25 0V25H56.25v12.5H100z"/><path fill="#C00" d="M43.75 12.5V50h12.5V0h-12.5v12.5z"/><path fill="#FFF" d="M43.75 25V12.5H0V25h43.75M100 25V12.5H56.25V25H100z"/></g></defs><use xlink:href="#a" transform="scale(2 2.1)"/></svg>