<svg xmlns="http://www.w3.org/2000/svg" xmlns:xlink="http://www.w3.org/1999/xlink" preserveAspectRatio="none" width="200" height="105"><defs><path fill="#EE333E" d="M398.5 465.5v-72h-216v72h216z" id="a"/><path fill="#FFF" d="M398.5 393.5v-72H254.45v72H398.5z" id="b"/><path fill="#165B9E" d="M182.5 321.5v72h71.95v-72H182.5z" id="c"/><path fill="#FFF" d="M235.7 352h-13.15l-4.05-12.5-4 12.45h-13.2l10.7 7.75-4.1 12.45 10.6-7.75 10.6 7.75-4.05-12.55 10.65-7.6z" id="d"/></defs><use xlink:href="#a" transform="matrix(.92589 0 0 .72917 -168.95 -234.45)"/><use xlink:href="#b" transform="matrix(.92589 0 0 .72917 -168.95 -234.45)"/><use xlink:href="#c" transform="matrix(.92589 0 0 .72917 -168.95 -234.45)"/><use xlink:href="#d" transform="matrix(.92589 0 0 .72917 -168.95 -234.45)"/></svg>