<svg xmlns="http://www.w3.org/2000/svg" xmlns:xlink="http://www.w3.org/1999/xlink" preserveAspectRatio="none" width="200" height="105"><defs><path fill="#EE333E" d="M170.75 461.75h216v-144h-216v144z" id="a"/><g id="b"><path fill="#373535" d="M186 347.05l12.9 9.35-4.95 14.95 12.8-9.25 12.75 9.25-4.9-15.05 12.85-9.2H211.6l-4.85-15-4.85 14.95H186m13.15 9.35l.05-.1-12.45-9h15.35l4.65-14.35 4.65 14.4h15.25l-12.35 8.85v.1l4.7 14.4-12.25-8.9-12.3 8.9 4.7-14.3z"/><path fill="#FFE25C" d="M199.2 356.3l-.05.1-4.7 14.3 12.3-8.9 12.25 8.9-4.7-14.4v-.1l12.35-8.85H211.4l-4.65-14.4-4.65 14.35h-15.35l12.45 9z"/></g><g id="c"><path fill="#373535" d="M237.05 327.25l2.8 4.7-3.65 4.2 5.45-1.2 2.7 4.75.55-5.5 5.35-1.2-5.1-2.25.6-5.45-3.65 4.15-5.05-2.2m5.1 2.5l.1-.1 3.15-3.6-.5 4.75v.1l.1.05 4.4 1.95-4.75 1.1v.1l-.45 4.8-2.4-4.15-.05-.1-4.85 1.1 3.2-3.7.05-.05-.05-.1-2.45-4.1 4.45 1.9.05.05z"/><path fill="#FFE25C" d="M242.25 329.65l-.1.1-.05-.05-4.45-1.9 2.45 4.1.05.1-.05.05-3.2 3.7 4.85-1.1.05.1 2.4 4.15.45-4.8v-.1l4.75-1.1-4.4-1.95-.1-.05v-.1l.5-4.75-3.15 3.6z"/></g><g id="d"><path fill="#373535" d="M260.05 346.1l2.65-4.85-5 2.45-3.8-4 .8 5.5-5 2.4 5.45.95.75 5.45 2.55-4.85 5.45.95-3.85-4m-5.8-5.65l3.4 3.55.1-.05 4.35-2.15-2.3 4.3-.05.05 3.45 3.55-4.8-.85h-.1v.1l-2.25 4.25-.65-4.8v-.05l-.1-.05-4.85-.8 4.45-2.15.05-.05v-.1l-.7-4.75z"/><path fill="#FFE25C" d="M257.65 344l-3.4-3.55.7 4.75v.1l-.05.05-4.45 2.15 4.85.8.1.05v.05l.65 4.8 2.25-4.25v-.1h.1l4.8.85-3.45-3.55.05-.05 2.3-4.3-4.35 2.15-.1.05z"/></g><g id="e"><path fill="#373535" d="M258.85 365.85l-1.8-5.15-1.55 5.25-5.55.15 4.55 3.1-1.6 5.3 4.45-3.35 4.5 3.1-1.85-5.15 4.35-3.35-5.5.1m-3.15.35l1.35-4.7 1.6 4.6 4.95-.1-3.85 2.95-.05.05v.1l1.65 4.5-4-2.75-.1.05-3.9 2.95 1.45-4.75-4.05-2.75 4.95-.15z"/><path fill="#FFE25C" d="M257.05 361.5l-1.35 4.7-4.95.15 4.05 2.75-1.45 4.75 3.9-2.95.1-.05 4 2.75-1.65-4.5v-.1l.05-.05 3.85-2.95-4.95.1-1.6-4.6z"/></g><g id="f"><path fill="#373535" d="M236.8 377.8l3.05 4.6-3.5 4.25 5.4-1.4 2.95 4.6.25-5.5 5.35-1.45-5.2-2 .35-5.45-3.45 4.3-5.2-1.95m3.3 4.65l.05-.05-2.7-4.1L242 380l.1.05.05-.1 3-3.75-.3 4.85.1.05 4.5 1.75-4.75 1.3-.2 4.9-2.65-4.1-4.8 1.25 3.05-3.75z"/><path fill="#FFE25C" d="M240.15 382.4l-.05.05-3.05 3.75 4.8-1.25 2.65 4.1.2-4.9 4.75-1.3-4.5-1.75-.1-.05.3-4.85-3 3.75-.05.1-.1-.05-4.55-1.7 2.7 4.1z"/></g></defs><use xlink:href="#a" transform="matrix(.92587 0 0 .72917 -158.1 -231.7)"/><use xlink:href="#b" transform="matrix(.92587 0 0 .72917 -158.1 -231.7)"/><use xlink:href="#c" transform="matrix(.92587 0 0 .72917 -158.1 -231.7)"/><use xlink:href="#d" transform="matrix(.92587 0 0 .72917 -158.1 -231.7)"/><use xlink:href="#e" transform="matrix(.92587 0 0 .72917 -158.1 -231.7)"/><use xlink:href="#f" transform="matrix(.92587 0 0 .72917 -158.1 -231.7)"/></svg>