<svg xmlns="http://www.w3.org/2000/svg" xmlns:xlink="http://www.w3.org/1999/xlink" preserveAspectRatio="none" width="200" height="105"><defs><path fill="#EE333E" d="M410.45 417.5v-47.95H170.5v47.95h239.95z" id="a"/><path fill="#1F5393" d="M410.45 345.55v-24H170.5v24h239.95z" id="b"/><path fill="#1F5393" d="M170.5 441.5v24h239.95v-24H170.5z" id="c"/><path fill="#FFF" d="M410.45 369.55v-24H170.5v24h239.95z" id="d"/><path fill="#FFF" d="M170.5 417.5v24h239.95v-24H170.5z" id="e"/></defs><use xlink:href="#a" transform="matrix(.83347 0 0 .72939 -142.1 -234.5)"/><use xlink:href="#b" transform="matrix(.83344 0 0 .72935 -142.1 -234.5)"/><use xlink:href="#c" transform="matrix(.83344 0 0 .72935 -142.1 -234.5)"/><use xlink:href="#d" transform="matrix(.83344 0 0 .72935 -142.1 -234.5)"/><use xlink:href="#e" transform="matrix(.83344 0 0 .72935 -142.1 -234.5)"/></svg>