<svg xmlns="http://www.w3.org/2000/svg" xmlns:xlink="http://www.w3.org/1999/xlink" preserveAspectRatio="none" width="200" height="105"><defs><path fill="#21467B" d="M434.45 350.35v-28.8H146.5v28.8h287.95z" id="a"/><path fill="#21467B" d="M146.5 436.7v28.8h287.95v-28.8H146.5z" id="b"/><path fill="#21467B" d="M434.45 407.9v-28.75H146.5v28.75h287.95z" id="c"/><path fill="#FFF" d="M434.45 379.15v-28.8H146.5v28.8h287.95z" id="d"/><path fill="#FFF" d="M146.5 407.9v28.8h287.95v-28.8H146.5z" id="e"/><path fill="#EE333E" d="M270.45 393.5L146.5 321.55V465.5l123.95-72z" id="f"/><path fill="#FFF" d="M191.55 386.2l-5.45-16.7-5.3 16.6h-17.6l14.25 10.35-5.45 16.6 14.1-10.3 14.15 10.3-5.4-16.75 14.2-10.1h-17.5z" id="g"/></defs><use xlink:href="#a" transform="matrix(.69452 0 0 .72934 -101.75 -234.5)"/><use xlink:href="#b" transform="matrix(.69452 0 0 .72934 -101.75 -234.5)"/><use xlink:href="#c" transform="matrix(.69452 0 0 .72934 -101.75 -234.5)"/><use xlink:href="#d" transform="matrix(.69452 0 0 .72934 -101.75 -234.5)"/><use xlink:href="#e" transform="matrix(.69452 0 0 .72934 -101.75 -234.5)"/><use xlink:href="#f" transform="matrix(.69455 0 0 .72937 -101.75 -234.5)"/><use xlink:href="#g" transform="matrix(.69455 0 0 .72937 -101.75 -234.5)"/></svg>