<svg xmlns="http://www.w3.org/2000/svg" xmlns:xlink="http://www.w3.org/1999/xlink" preserveAspectRatio="none" width="200" height="105"><defs><path fill="#165B9E" d="M168.05 465.55H412.9V321.5H168.05v144.05z" id="a"/><path fill="#FFF" d="M412.9 429.5v-35.9H168.05v35.9H412.9z" id="b"/><path fill="#E1474A" d="M168.05 405.55v12H412.9v-12H168.05z" id="c"/><path fill="#FFD635" d="M235.8 445.05l4.3-3.15 4.25 3.15-1.65-5.05 4.3-3.05h-5.3l-1.6-5.05-1.65 5h-5.25l4.3 3.15-1.7 5m-8-30.05l-1.65 5h-5.25l4.3 3.1-1.65 5 4.25-3.1 4.25 3.1-1.65-5 4.3-3.05h-5.3l-1.6-5.05m-4.3-7.8l4.25-3.1 4.3 3.1-1.65-5.05 4.3-3.05h-5.3l-1.65-5-1.6 5h-5.3l4.3 3.1-1.65 5m57.95 29.7l-1.6-5-1.65 5.05h-5.25l4.25 3.05-1.6 5.05 4.25-3.15 4.25 3.15-1.65-5 4.3-3.15h-5.3m-23.1 6.5h-5.3l4.3 3.1-1.65 5 4.3-3.1 4.25 3.1-1.65-5.05 4.3-3.05h-5.3l-1.6-5-1.65 5m33.8-28.4l-1.65 5.05h-5.25l4.25 3.05-1.6 5 4.25-3.1 4.25 3.1-1.65-5 4.3-3.1h-5.3l-1.6-5m2.6-12.8l4.3-3.1h-5.3l-1.6-5-1.6 5h-5.3l4.3 3.05-1.65 5.05 4.25-3.1 4.25 3.1-1.65-5m-19.15-11.9l4.25-3.1 4.25 3.1-1.65-5 4.3-3.15h-5.3l-1.6-5-1.65 5.05h-5.25l4.25 3.05-1.6 5.05m-17.25-14.6h-5.3l4.3 3.1-1.65 5 4.3-3.1 4.25 3.1-1.65-5.05 4.3-3.05h-5.3l-1.6-5-1.65 5m-19.9 6.45h-5.25l4.3 3.15-1.7 5 4.3-3.1 4.25 3.1-1.65-5.05 4.3-3.05h-5.3l-1.6-5.05-1.65 5z" id="d"/></defs><use xlink:href="#a" transform="matrix(.8168 0 0 .72888 -137.25 -234.35)"/><use xlink:href="#b" transform="matrix(.8168 0 0 .72888 -137.25 -234.35)"/><use xlink:href="#c" transform="matrix(.8168 0 0 .72888 -137.25 -234.35)"/><use xlink:href="#d" transform="matrix(.8168 0 0 .72888 -137.25 -234.35)"/></svg>