<svg xmlns="http://www.w3.org/2000/svg" xmlns:xlink="http://www.w3.org/1999/xlink" preserveAspectRatio="none" width="200" height="105"><defs><path fill="#FFF" d="M170.5 465.5h239.95V321.55H170.5V465.5z" id="a"/><path fill="#FDBA50" d="M348 354.9q-2.4.6-3.55 1.1-1.15.45-2.1 1.2-.85.7-2.35 1.05-1.55.4-2.4 1.05-2.7 2.2-5 1.65-1.55-.45-1.85-.4-.6.05-1 1.1-.9 2.45-2.8 2.9-2.4.6-2.55.75-1.1 1.1-2.75 1.15-1.8.05-2.35.45-1 .75-4.05.55-2.95-.15-3.9.7-1.6 1.45-3.5 1.05-2.15-.5-3.7.4-3.1 1.8-6.95.3-.9-.35-4.95-.6-4.05-.3-5.2-.7-2.1-.8-5.25-1.15-2.05-.25-2.65-1.2-.4.7-.2 1.9.15 1.1-.5 2.05-.65.95-.95 3.6-.2 2-2.15 3-1.6.85-2.4.7-.3-.05-1.05-.7-2.05-1.6-6.3.25-1.2.5-1.6.55-.35.05-.75-.35-.35-.35-.8-.2-.15.05-1.4.7-1 .5-1.6 1.9-.5 1.2-1.9 1.6-1.85.5-2.95.3-.8-.15-2.5-1-1.45-.75-2.05-.75-.45.05-.8.6-.7 1.2.65 2.25.95.7 1.25 1.2.3.6 0 1.45-.4 1.05-.4 1.4 0 .5.65.85.9.6.9 1.95 0 1.75.8 3.1 1 1.65 1.15 3.75.1 1.15.4 1.7.35.65 1.25.8.9.2 1.3 1 .4.85 2.2 1.4 1.65.5 3.35 1.45.75.45 2.5.65t3.2-.05q2.75-.4 3.4-.4 2.05 0 2.6 1.2.85 1.95 1.75 3.05.45.6 1.2 1.45.6.85 1.45.2.85-.65 1.45-2.45.7-2.1 1.25-2.8 1.1-1.5 3.2-1.5 7.05.05 8.4-.1 2.7-.3 5-2 2.25-1.75 3.05-2.1 1.75-.95 2.8-.05.15.15.5-.35.55-.7 1.1-.95.15-.1.15-.45.05-.5.15-.8.5-1.05.3-2.15-.2-1 .2-1.5 1.4-1.9 2.65-2.4.7-.3 2.35-.2 1.3.05 2 .3.7.3 1.55 1.2.95 1 1.5 1.1.7.1 1.8-.75 1.3-1.05 3.5-1.15 2.25-.1 2.65 1.05.2.4.7.15.5-.25.45-1-.15-1.7-1.7-2.6-.7-.4-.85-1.1-.2-.85-.9-1.35-.55-.4-.75-1.35-.2-.95-1.75-2.25-1.85-1.6-1.3-4.3.4-2.25 1.9-3.85.85-.85 2.5-.6 1.15.15 1.6 0 .55-.15 1.3-1.1 1.05-1.4 1.55-2 .95-1.1 1.85-1.4.9-.3 2.05-1.1 1-.7 1.85-.8 1.45-.2 2.9-1.6 1.55-1.6 2.4-1.85 1.45-.45 2.6-2.05 1.1-1.6 2.85-2.15 2.05-.65 3.05-1.9 1.25-1.6 1.3-1.65z" id="b"/><g id="c"><path fill="#373535" d="M289.25 432.9v-.05q-13.85-5.375-19.75-7.8-10.113-4.104-14.25-9.5l-.35-.4-.15.15.3.4q3.91 5.804 14.55 10.35 1.149.524 9.65 3.9 6.149 2.462 10.1 4.45.247.119.35-.15.058-.113 0-.45v-.05q-.084-.637-.45-.85m.2 1.25v.05q-3.949-2.012-10.1-4.5-8.499-3.375-9.65-3.9-6.764-2.876-10.8-6.3 4.045 3.182 10.5 5.8 5.9 2.425 19.75 7.8.24.217.3.7.04.269 0 .35z"/><path fill="#008752" d="M289.45 434.2v-.05q.04-.081 0-.35-.06-.483-.3-.7-13.85-5.375-19.75-7.8-6.455-2.618-10.5-5.8 4.036 3.424 10.8 6.3 1.151.525 9.65 3.9 6.151 2.488 10.1 4.5z"/></g><g id="d"><path fill="#373535" d="M251.35 419.2l-.35.05.25.2q2.87 1.926 4.4 2.05 1.215.086 4.05-1.15l.2-.1-.2-.1q-2.98-2.24-5.2-1.9-2.07.87-3.15.95m3.25-.7q2.03-.287 4.8 1.7-2.582 1.1-3.75 1.05-1.406-.133-3.95-1.85 1.079-.144 2.9-.9z"/><path fill="#008752" d="M259.4 420.2q-2.77-1.987-4.8-1.7-1.821.756-2.9.9 2.544 1.717 3.95 1.85 1.168.05 3.75-1.05z"/></g><g id="e"><path fill="#373535" d="M257.3 411.6v.35q.07 1.093-.5 3.2v.05q-.04 2.248 2.6 4.95l.15.15.05-.25q.835-3.012.55-4.2-.27-1.445-2.6-4l-.25-.25m2.6 4.3q.255 1.12-.5 3.9-2.344-2.493-2.35-4.6.503-1.844.5-2.95 2.086 2.318 2.35 3.65z"/><path fill="#008752" d="M259.4 419.8q.755-2.78.5-3.9-.264-1.332-2.35-3.65.003 1.106-.5 2.95.006 2.107 2.35 4.6z"/></g><g id="f"><path fill="#373535" d="M250.2 409.85l.05.3q.782 3.417 1.8 4.45.86.952 3.7 1.95l.2.1-.05-.25q-.635-3.687-2.5-4.9v-.05q-2.08-.762-2.95-1.4l-.25-.2m2.05 4.6q-.934-.967-1.65-4 .886.58 2.7 1.25h-.05q1.728 1.149 2.35 4.55-2.544-.937-3.35-1.8z"/><path fill="#008752" d="M250.6 410.45q.716 3.033 1.65 4 .806.863 3.35 1.8-.622-3.401-2.35-4.55h.05q-1.814-.67-2.7-1.25z"/></g><g id="g"><path fill="#373535" d="M261.45 414.6q.07 1.093-.5 3.2v.05q-.041 2.249 2.6 4.9l.15.15.05-.25q.836-2.962.55-4.15-.27-1.445-2.6-4l-.25-.25v.35m-.25 3.25q.503-1.844.5-2.95 2.086 2.318 2.35 3.65.254 1.115-.45 3.8-2.394-2.403-2.4-4.5z"/><path fill="#008752" d="M261.7 414.9q.003 1.106-.5 2.95.006 2.097 2.4 4.5.704-2.685.45-3.8-.264-1.332-2.35-3.65z"/></g><g id="h"><path fill="#373535" d="M255.45 424.3l-.25.2h.35q1.092.079 3.15.7h.05q2.235.19 5-2.3l.2-.15-.2-.1q-2.899-.937-4.15-.75-1.443.22-4.15 2.4m3.3.65q-1.8-.538-2.9-.65 2.463-1.93 3.8-2.15 1.155-.156 3.8.7-2.591 2.242-4.7 2.1z"/><path fill="#008752" d="M255.85 424.3q1.1.112 2.9.65 2.109.142 4.7-2.1-2.645-.856-3.8-.7-1.337.22-3.8 2.15z"/></g><g id="i"><path fill="#373535" d="M265.2 417.3q.22 1.057-.1 3.25v.05q.273 2.214 3.2 4.55l.2.1v-.2q.484-3.026.05-4.2-.484-1.371-3.15-3.65l-.25-.25.05.35m.15 3.3q.283-1.926.15-3 2.358 2.087 2.8 3.35.401 1.085 0 3.85-2.664-2.164-2.95-4.2z"/><path fill="#008752" d="M265.5 417.6q.133 1.074-.15 3 .286 2.036 2.95 4.2.401-2.765 0-3.85-.442-1.262-2.8-3.35z"/></g><g id="j"><path fill="#373535" d="M260.65 428l.35-.05q1.093-.071 3.25.35h.05q2.25-.073 4.8-2.85l.15-.15-.25-.05q-3.012-.635-4.2-.35-1.407.37-3.9 2.85l-.25.25m4.2-2.85q1.12-.254 3.9.3-2.35 2.511-4.45 2.6-1.871-.363-2.95-.35 2.228-2.188 3.5-2.55z"/><path fill="#008752" d="M268.75 425.45q-2.78-.554-3.9-.3-1.272.362-3.5 2.55 1.079-.013 2.95.35 2.1-.089 4.45-2.6z"/></g><g id="k"><path fill="#373535" d="M269.95 419.5l.05.3q.321 1.07.2 3.3.474 2.216 3.55 4.3l.2.1v-.2q.183-3.09-.35-4.2-.583-1.373-3.4-3.4l-.25-.2m3.4 3.7q.498 1.047.35 3.85-2.772-1.923-3.25-3.95v-.05q.112-1.899-.1-2.95 2.464 1.843 3 3.1z"/><path fill="#008752" d="M273.7 427.05q.148-2.803-.35-3.85-.536-1.257-3-3.1.212 1.051.1 2.95v.05q.478 2.027 3.25 3.95z"/></g><g id="l"><path fill="#373535" d="M274.5 427.6l-.25-.05q-3.012-.635-4.2-.35-1.458.382-3.9 2.85l-.25.25.35-.05q1.093-.071 3.25.35h.05q2.25-.073 4.8-2.85l.15-.15m-4.95 2.75q-1.875-.364-2.95-.35 2.18-2.188 3.5-2.55 1.12-.254 3.9.3-2.349 2.512-4.45 2.6z"/><path fill="#008752" d="M266.6 430q1.075-.014 2.95.35 2.101-.088 4.45-2.6-2.78-.554-3.9-.3-1.32.363-3.5 2.55z"/></g><g id="m"><path fill="#373535" d="M275.35 421.5l-.25-.2.05.3q.321 1.07.2 3.3.473 2.217 3.55 4.25l.2.1v-.2q.233-3.04-.3-4.15-.635-1.373-3.45-3.4m.25 3.35q.112-1.899-.1-2.95 2.468 1.843 3.05 3.1.498 1.047.35 3.8-2.821-1.872-3.3-3.9v-.05z"/><path fill="#008752" d="M275.5 421.9q.212 1.051.1 2.95v.05q.479 2.028 3.3 3.9.148-2.753-.35-3.8-.582-1.257-3.05-3.1z"/></g><g id="n"><path fill="#373535" d="M275.05 432.95h.05q2.215-.272 4.45-3.3l.1-.15-.2-.05q-3.026-.385-4.2.05-1.372.533-3.6 3.2l-.25.25.35-.05q1.106-.172 3.3.05m4.15-3.25q-2.08 2.731-4.15 3-1.903-.192-3-.1 2.036-2.357 3.3-2.85 1.087-.4 3.85-.05z"/><path fill="#008752" d="M275.05 432.7q2.07-.269 4.15-3-2.763-.35-3.85.05-1.264.493-3.3 2.85 1.097-.092 3 .1z"/></g><g id="o"><path fill="#373535" d="M315.55 415.3l-.2-.15-.3.4q-4.137 5.396-14.25 9.5-12.702 4.575-19.75 7.8v.05H281q-.321.223-.4.9-.025.316 0 .45.062.134.15.15.079.072.2 0 6.752-3.388 19.75-8.35 10.64-4.546 14.55-10.35l.3-.4m-14.65 10q6.453-2.617 10.5-5.8-4.038 3.425-10.8 6.3-13.002 4.988-19.75 8.4v-.05q-.018-.088 0-.35.069-.493.3-.7 7.052-3.225 19.75-7.8z"/><path fill="#008752" d="M311.4 419.5q-4.047 3.183-10.5 5.8-12.698 4.575-19.75 7.8-.231.207-.3.7-.018.262 0 .35v.05q6.748-3.412 19.75-8.4 6.762-2.875 10.8-6.3z"/></g><g id="p"><path fill="#373535" d="M319 419.45l.2-.15-.2-.1q-1.965-.727-3.2-.95-2.17-.34-5.25 1.9l-.15.1.2.1q2.835 1.236 4.05 1.15 1.543-.124 4.35-2.05m-3.25-.95q1.144.215 2.9.9-2.586 1.73-4 1.85-1.14.063-3.75-1.05 2.836-2 4.85-1.7z"/><path fill="#008752" d="M318.65 419.4q-1.756-.685-2.9-.9-2.014-.3-4.85 1.7 2.61 1.113 3.75 1.05 1.414-.12 4-1.85z"/></g><g id="q"><path fill="#373535" d="M312.95 411.6l-.2.25q-2.279 2.555-2.6 4-.287 1.237.55 4.2l.1.25.15-.15q2.642-2.702 2.5-4.95v-.05q-.52-2.107-.5-3.2v-.35m-2.05 8.2q-.752-2.732-.5-3.9.313-1.33 2.3-3.65.048 1.112.5 2.95.091 2.109-2.3 4.6z"/><path fill="#008752" d="M310.4 415.9q-.252 1.168.5 3.9 2.391-2.491 2.3-4.6-.452-1.838-.5-2.95-1.987 2.32-2.3 3.65z"/></g><g id="r"><path fill="#373535" d="M320.1 409.85l-.3.2q-.82.637-2.9 1.4v.05h-.05q-1.815 1.213-2.5 4.9l-.05.25.25-.1q2.892-.998 3.7-1.95 1.018-1.033 1.75-4.45l.1-.3m-3.1 1.85q1.813-.67 2.7-1.25-.716 3.033-1.65 4-.76.863-3.4 1.8.671-3.401 2.35-4.55z"/><path fill="#008752" d="M317 411.7q-1.679 1.149-2.35 4.55 2.64-.937 3.4-1.8.934-.967 1.65-4-.887.58-2.7 1.25z"/></g><g id="s"><path fill="#373535" d="M309.3 417.85v-.05q-.52-2.107-.5-3.2v-.35l-.2.25q-2.33 2.555-2.65 4-.237 1.187.6 4.15l.1.25.15-.15q2.642-2.651 2.5-4.9m-3.1.7q.314-1.332 2.35-3.65.047 1.107.5 2.95.09 2.098-2.3 4.55-.754-2.734-.55-3.85z"/><path fill="#008752" d="M308.55 414.9q-2.036 2.318-2.35 3.65-.204 1.116.55 3.85 2.39-2.452 2.3-4.55-.453-1.843-.5-2.95z"/></g><g id="t"><path fill="#373535" d="M315 424.45l-.2-.15q-2.606-2.18-4.1-2.4-1.201-.186-4.15.75l-.2.1.15.15q2.815 2.49 5.05 2.3 1.21-.073 3.2-.7l.25-.05m-8.15-1.6q2.694-.857 3.8-.7 1.403.222 3.8 2.2-1.782.529-2.9.6-2.093.155-4.7-2.1z"/><path fill="#008752" d="M310.65 422.15q-1.106-.157-3.8.7 2.607 2.255 4.7 2.1 1.118-.071 2.9-.6-2.397-1.978-3.8-2.2z"/></g><g id="u"><path fill="#373535" d="M305.15 420.6v-.05q-.222-2.194-.1-3.25l.05-.3-.25.2q-2.616 2.279-3.15 3.65-.384 1.174.05 4.2l.05.2.15-.1q2.977-2.336 3.2-4.55m-.35-3q-.09 1.058.1 2.95-.22 2.072-2.9 4.25-.402-2.765-.05-3.85.493-1.266 2.85-3.35z"/><path fill="#008752" d="M304.9 420.55q-.19-1.892-.1-2.95-2.357 2.084-2.85 3.35-.352 1.085.05 3.85 2.68-2.178 2.9-4.25z"/></g><g id="v"><path fill="#373535" d="M301.05 425.3l.15.15q2.55 2.777 4.8 2.85 1.259.077 3.3-.35l.25-.05-.15-.15q-2.442-2.468-3.95-2.85-1.137-.285-4.2.35l-.2.05m7.95 2.45q-1.836.37-3 .3-2.087-.074-4.45-2.6 2.78-.554 3.85-.3 1.39.368 3.6 2.6z"/><path fill="#008752" d="M306 428.05q1.164.07 3-.3-2.21-2.232-3.6-2.6-1.07-.254-3.85.3 2.363 2.526 4.45 2.6z"/></g><g id="w"><path fill="#373535" d="M300.35 419.5l-.3.2q-2.767 2.027-3.4 3.4-.483 1.11-.35 4.2v.2l.2-.1q3.178-2.083 3.55-4.3-.023-2.232.2-3.3l.1-.3m-.55 3.55v.05q-.382 2.028-3.25 3.95-.098-2.803.35-3.85.588-1.26 3.05-3.1-.169 1.042-.15 2.95z"/><path fill="#008752" d="M299.8 423.1v-.05q-.019-1.908.15-2.95-2.462 1.84-3.05 3.1-.448 1.047-.35 3.85 2.868-1.922 3.25-3.95z"/></g><g id="x"><path fill="#373535" d="M295.85 427.6l.15.15q2.55 2.777 4.75 2.85 1.259.077 3.3-.35l.25-.05-.15-.15q-2.442-2.468-3.9-2.85-1.137-.285-4.2.35l-.2.05m4.9 2.75q-2.039-.074-4.4-2.6 2.78-.554 3.85-.3 1.341.367 3.55 2.6-1.836.37-3 .3z"/><path fill="#008752" d="M296.35 427.75q2.361 2.526 4.4 2.6 1.164.07 3-.3-2.209-2.233-3.55-2.6-1.07-.254-3.85.3z"/></g><g id="y"><path fill="#373535" d="M295.2 421.3l-.3.2q-2.766 2.027-3.45 3.4-.483 1.11-.3 4.15l.05.2.15-.1q3.179-2.033 3.55-4.25-.023-2.232.2-3.3l.1-.3m-.55 3.55v.05q-.383 2.029-3.25 3.9-.148-2.752.3-3.8.634-1.261 3.1-3.1-.169 1.042-.15 2.95z"/><path fill="#008752" d="M294.65 424.9v-.05q-.019-1.908.15-2.95-2.466 1.839-3.1 3.1-.448 1.048-.3 3.8 2.867-1.871 3.25-3.9z"/></g><g id="z"><path fill="#373535" d="M298.65 432.7q-2.228-2.667-3.6-3.2-1.174-.435-4.25-.05l-.2.05.15.15q2.234 3.027 4.45 3.3 1.234.177 3.35-.05h.25l-.15-.2m-3.7-2.95q1.282.5 3.35 2.95-1.906.164-3.05 0-2.069-.268-4.2-3 2.813-.35 3.9.05z"/><path fill="#008752" d="M298.3 432.7q-2.068-2.45-3.35-2.95-1.087-.4-3.9-.05 2.131 2.732 4.2 3 1.144.164 3.05 0z"/></g></defs><use xlink:href="#a" transform="matrix(.83344 0 0 .72935 -142.1 -234.5)"/><use xlink:href="#b" transform="matrix(.83344 0 0 .72935 -142.1 -234.5)"/><use xlink:href="#c" transform="matrix(.83344 0 0 .72935 -142.1 -234.5)"/><use xlink:href="#d" transform="matrix(.83344 0 0 .72935 -142.1 -234.5)"/><use xlink:href="#e" transform="matrix(.83344 0 0 .72935 -142.1 -234.5)"/><use xlink:href="#f" transform="matrix(.83344 0 0 .72935 -142.1 -234.5)"/><use xlink:href="#g" transform="matrix(.83344 0 0 .72935 -142.1 -234.5)"/><use xlink:href="#h" transform="matrix(.83344 0 0 .72935 -142.1 -234.5)"/><use xlink:href="#i" transform="matrix(.83344 0 0 .72935 -142.1 -234.5)"/><use xlink:href="#j" transform="matrix(.83344 0 0 .72935 -142.1 -234.5)"/><use xlink:href="#k" transform="matrix(.83344 0 0 .72935 -142.1 -234.5)"/><use xlink:href="#l" transform="matrix(.83344 0 0 .72935 -142.1 -234.5)"/><use xlink:href="#m" transform="matrix(.83344 0 0 .72935 -142.1 -234.5)"/><use xlink:href="#n" transform="matrix(.83344 0 0 .72935 -142.1 -234.5)"/><use xlink:href="#o" transform="matrix(.83344 0 0 .72935 -142.1 -234.5)"/><use xlink:href="#p" transform="matrix(.83344 0 0 .72935 -142.1 -234.5)"/><use xlink:href="#q" transform="matrix(.83344 0 0 .72935 -142.1 -234.5)"/><use xlink:href="#r" transform="matrix(.83344 0 0 .72935 -142.1 -234.5)"/><use xlink:href="#s" transform="matrix(.83344 0 0 .72935 -142.1 -234.5)"/><use xlink:href="#t" transform="matrix(.83344 0 0 .72935 -142.1 -234.5)"/><use xlink:href="#u" transform="matrix(.83344 0 0 .72935 -142.1 -234.5)"/><use xlink:href="#v" transform="matrix(.83344 0 0 .72935 -142.1 -234.5)"/><use xlink:href="#w" transform="matrix(.83344 0 0 .72935 -142.1 -234.5)"/><use xlink:href="#x" transform="matrix(.83344 0 0 .72935 -142.1 -234.5)"/><use xlink:href="#y" transform="matrix(.83344 0 0 .72935 -142.1 -234.5)"/><use xlink:href="#z" transform="matrix(.83344 0 0 .72935 -142.1 -234.5)"/></svg>