<svg xmlns="http://www.w3.org/2000/svg" xmlns:xlink="http://www.w3.org/1999/xlink" preserveAspectRatio="none" width="200" height="105"><defs><path fill="#CBE08D" d="M160.25 393.5v72H420.7v-72H160.25z" id="a"/><path fill="#43C4DE" d="M420.7 393.5v-71.95H160.25v71.95H420.7z" id="b"/><path fill="#FFF" d="M284.9 393.5l-124.65-71.95V465.5l124.65-72z" id="c"/><path fill="#EE3156" d="M213.85 388.95l-4.7-14.4-4.6 14.35h-15.2l12.35 8.95-4.75 14.3 12.2-8.9 12.2 8.9-4.65-14.45 12.25-8.75h-15.1z" id="d"/></defs><use xlink:href="#a" transform="matrix(.76787 0 0 .72935 -123.05 -234.5)"/><use xlink:href="#b" transform="matrix(.76787 0 0 .72935 -123.05 -234.5)"/><use xlink:href="#c" transform="matrix(.76787 0 0 .72935 -123.05 -234.5)"/><use xlink:href="#d" transform="matrix(.76787 0 0 .72935 -123.05 -234.5)"/></svg>