<svg xmlns="http://www.w3.org/2000/svg" xmlns:xlink="http://www.w3.org/1999/xlink" preserveAspectRatio="none" width="200" height="105"><defs><path fill="#00704B" d="M159.95 463.05H448V319H159.95v144.05z" id="a"/><path fill="#FFD635" d="M448 385v-12H159.95v12H448z" id="b"/><path fill="#373535" d="M159.95 397.05H448V385H159.95v12.05z" id="c"/><path fill="#FFF" d="M159.95 397.05v12H448v-12H159.95z" id="d"/><path fill="#FFD635" d="M297.95 319h-12v144.05h12V319z" id="e"/><path fill="#373535" d="M310 319h-12.05v144.05H310V319z" id="f"/><path fill="#FFF" d="M322 319h-12v144.05h12V319z" id="g"/><g id="h"><path fill="#373535" d="M347.3 391q.03-17.958-12.65-30.65-12.693-12.681-30.65-12.7-17.957.02-30.7 12.7-12.681 12.692-12.7 30.65.02 18.008 12.7 30.7 12.743 12.68 30.7 12.65 17.957.03 30.65-12.65 12.68-12.743 12.65-30.7m-12.85-30.45q12.619 12.607 12.6 30.45.02 17.843-12.6 30.5-12.608 12.619-30.45 12.6-17.843.02-30.5-12.6-12.62-12.608-12.65-30.5.03-17.843 12.65-30.45 12.657-12.62 30.5-12.65 17.842.03 30.45 12.65z"/><path fill="#EE3156" d="M347.05 391q.019-17.843-12.6-30.45-12.608-12.62-30.45-12.65-17.843.03-30.5 12.65-12.62 12.607-12.65 30.45.03 17.892 12.65 30.5 12.657 12.62 30.5 12.6 17.842.019 30.45-12.6 12.62-12.657 12.6-30.5z"/></g><g id="i"><path fill="#373535" d="M37.6 28.45l-1.25 1h1.55l.5 1.5.5-1.55 1.6.05-1.3-1 .5-1.5-1.3.95-1.3-.95.5 1.5m.1.05v-.05l-.4-1.25 1.1.8 1.15-.8-.45 1.25v.05l1.15.85h-1.4l-.45 1.3-.4-1.3h-1.4l1.1-.85m1.2-7.95L38.4 19l-.5 1.55h-1.55l1.25.95-.5 1.5 1.3-.95 1.3.95-.5-1.5 1.3-.95h-1.6m1.35.1l-1.15.8v.05l.45 1.25-1.15-.8-1.1.8.4-1.25v-.05l-1.1-.8H38l.4-1.35.45 1.35h1.4m22.1 7.8l.5-1.5-1.3.95-1.3-.95.5 1.5-1.3 1h1.6l.5 1.5.5-1.5h1.6l-1.3-1m-.35.9l-.45 1.3-.4-1.3h-1.4l1.1-.85v-.05l-.45-1.25 1.15.8 1.15-.8-.45 1.25v.05l1.15.85H62m-21.25 4.8l1.25.9-.45 1.55 1.25-.95 1.3.95-.5-1.55 1.3-.9h-1.6l-.45-1.55-.5 1.55h-1.6m.25.1h1.4l.45-1.35.4 1.35h1.4l-1.15.8h.05l.4 1.35-1.15-.85-1.1.85.45-1.35-1.15-.8m15.35.85l-.5 1.5 1.25-.95 1.35.95-.5-1.5 1.3-.95h-1.6l-.5-1.55-.5 1.55h-1.6l1.3.95m.75.45l-1.1.8.45-1.25v-.05l-1.15-.8h1.4l.45-1.35.4 1.35H59l-1.15.8.4 1.35-1.15-.85m-6.35 1.3l.5-1.5-1.25.95-1.3-.95.5 1.55-1.35.95h1.65l.5 1.5.5-1.5h1.6l-1.35-1m.35-1.25l-.4 1.25-.05.05 1.15.85h-1.4l-.4 1.3-.45-1.3h-1.4l1.15-.8v-.05l-.45-1.3 1.15.8 1.1-.8m6.05-21.3l-1.3-.95.5 1.55-1.3.9h1.6l.45 1.55.55-1.55h1.55l-1.25-.95.5-1.5-1.3.95m.7.55v.05l1.1.85h-1.4l-.45 1.3-.4-1.3h-1.4l1.15-.85-.45-1.3 1.15.8 1.1-.8-.4 1.25m-14.25 0l.55-1.5-1.3.95-1.3-.95.45 1.5-1.25.95h1.6l.45 1.55.5-1.55h1.6l-1.3-.95m-.05 0l-.05.05 1.15.85h-1.4l-.45 1.3-.4-1.3H41l1.15-.85-.45-1.3 1.15.8 1.1-.8-.4 1.25M50 10.6l-.5 1.55h-1.65l1.35.95-.5 1.5 1.3-.95 1.25.95-.45-1.55 1.3-.9h-1.6L50 10.6m-.45 1.65L50 10.9l.4 1.35h1.4l-1.1.8.4 1.35-1.1-.85-1.15.8.45-1.25v-.05l-1.15-.8h1.4m12 6.75l-.5 1.55h-1.6l1.3.95-.5 1.5 1.3-.95 1.3.95-.5-1.5 1.3-.95h-1.6l-.5-1.55m0 .3l.45 1.35h1.4l-1.15.8v.05l.45 1.25-1.15-.8-1.15.85.45-1.3v-.05l-1.1-.8h1.35l.05-.05.4-1.3z"/><path fill="#00704B" d="M37.7 28.45v.05l-1.1.85H38l.4 1.3.45-1.3h1.4l-1.15-.85v-.05l.45-1.25-1.15.8-1.1-.8.4 1.25m1.4-7l1.15-.8h-1.4l-.45-1.35-.4 1.35h-1.4l1.1.8v.05l-.4 1.25 1.1-.8 1.15.8-.45-1.25v-.05m22.45 9.2l.45-1.3h1.4l-1.15-.85v-.05l.45-1.25-1.15.8-1.15-.8.45 1.25v.05l-1.1.85h1.4l.4 1.3m-19.15 3.6H41l1.15.8-.45 1.35 1.1-.85 1.15.85-.4-1.35h-.05l1.15-.8h-1.4l-.4-1.35-.45 1.35m13.6 2.1l1.1-.8 1.15.85-.4-1.35 1.15-.8h-1.45l-.4-1.35-.45 1.35h-1.4l1.15.8v.05L56 36.35m-5.3.5l.4-1.25-1.1.8-1.15-.8.45 1.3v.05l-1.15.8h1.4l.45 1.3.4-1.3h1.4l-1.15-.85.05-.05m7.15-21.95v-.05l.4-1.25-1.1.8-1.15-.8.45 1.3-1.15.85h1.4l.4 1.3.45-1.3h1.4l-1.1-.85m-14.35 0l.05-.05.4-1.25-1.1.8-1.15-.8.45 1.3-1.15.85h1.4l.4 1.3.45-1.3h1.4l-1.15-.85m6.5-4l-.45 1.35h-1.4l1.15.8v.05l-.45 1.25 1.15-.8 1.1.85-.4-1.35 1.1-.8h-1.4L50 10.9m12 9.75l-.45-1.35-.4 1.3-.05.05h-1.35l1.1.8v.05l-.45 1.3 1.15-.85 1.15.8-.45-1.25v-.05l1.15-.8H62z"/></g><path fill="#DDDEDF" d="M297.05 369.05q-.7.45-1 .85 0 .9.25 1.35.4.8 1.65.95.75-.25.75-1.75 0-1.2-.35-1.95-.55.05-1.3.55z" id="j"/><path fill="#DDDEDF" d="M298.35 369.2q.1-1.15-.9-2.1-.9-.85-1.75-.8-1.8.5-1.8 3.05 0 2.5 1.7 3.7-.2-2.35 2.75-3.85z" id="l"/><g id="n"><path fill="#373535" d="M307.15 365.6q-.01-.022-.05-.05-.62-.037-1.8-1.1-1.293-1.221-3.35-1.6-2.013-.387-4 .45-2.226 1.018-2.4 3v.05q.045.028.05.05 1.605 1.521 2.05 2.3.911 1.652.15 3.45-.536.758-1.1 1.05-.032.017-.05.05l-.05.05q.027.041.05.05.16.255.6.4.822.78 2.3.75 1.236.02 2.1-.5 2.858 1.666 6.7.4 1.585.488 2.4.15.028.017.05 0 .291-.301.85-.7.06-.018.05-.05.037-.037 0-.1.01-.019-.05-.05-.922-.814-1.4-2.2l.65-.9q.028-.008 0-.05.028-.057 0-.1-.948-.94-1.9-1.55.165-.194.3-.6l.2-.5q.035-.037 0-.1.021-.004 0-.05-.032-.008-.1-.05-1.352-.409-2.25-1.3l.05-.55q.035-.013 0-.05.008-.03-.05-.05m-.3.75q.031.029.05.05.932.919 2.3 1.35l-.15.4q-.164.465-.35.65-.023.032-.05.05.013.064 0 .1.041.033.05.05.975.58 1.9 1.5l-.6.85q-.02.047-.05.05.017.063 0 .1.51 1.387 1.45 2.2-.49.36-.75.6l-.05.05q-.76.248-2.25-.2-.012.014-.05 0-3.78 1.263-6.55-.35-.01-.02-.05-.05-.027.03-.05.05-.88.48-2.1.45-1.4.02-2.2-.7v-.05q-.256-.067-.4-.2.55-.301 1.1-1.05.789-1.902-.2-3.65-.448-.808-2.05-2.35.202-1.78 2.25-2.7 1.913-.813 3.85-.45 1.993.371 3.25 1.55 1.141 1.02 1.8 1.15l-.1.45q.018.063 0 .1z"/><path fill="#817CB9" d="M306.9 366.4q-.019-.021-.05-.05.018-.037 0-.1l.1-.45q-.659-.13-1.8-1.15-1.257-1.179-3.25-1.55-1.937-.363-3.85.45-2.048.92-2.25 2.7 1.602 1.542 2.05 2.35.989 1.748.2 3.65-.55.749-1.1 1.05.144.133.4.2v.05q.8.72 2.2.7 1.22.03 2.1-.45.023-.02.05-.05.04.03.05.05 2.77 1.613 6.55.35.038.014.05 0 1.49.448 2.25.2l.05-.05q.26-.24.75-.6-.94-.813-1.45-2.2.017-.037 0-.1.03-.003.05-.05l.6-.85q-.925-.92-1.9-1.5-.009-.017-.05-.05.013-.036 0-.1.027-.018.05-.05.186-.185.35-.65l.15-.4q-1.368-.431-2.3-1.35z"/></g><g id="o"><path fill="#373535" d="M311.5 400.95q-2.273-.919-3.4-.35-1.154.586-1.15 2.7.674 2.637 2 6.9v-.05q1.276 4.092 1.8 5.3 1.09 2.771 1.25 3 .979 1.966 2.25 2.3.952.516 1.45-.3.615-.932.3-3.6.382-.143.55-1.1.179-.85 0-1.8-.425-3.264-.55-8.25-.008-2.83-4.5-4.75m-3.3-.15q1.073-.482 3.2.4 4.308 1.83 4.35 4.5.125 5.014.55 8.3.171.9 0 1.7-.155.861-.5.9-.022.032-.05.05-.032.07-.05.1.37 2.654-.2 3.55-.402.634-1.15.25l-.05-.05q-1.179-.316-2.1-2.15v-.05q-.14-.221-1.2-2.95-.526-1.192-1.8-5.25-1.325-4.237-2-6.85.01-1.89 1-2.45z"/><path fill="#00704B" d="M311.4 401.2q-2.127-.882-3.2-.4-.99.56-1 2.45.675 2.613 2 6.85 1.274 4.058 1.8 5.25 1.06 2.729 1.2 2.95v.05q.921 1.834 2.1 2.15l.05.05q.748.384 1.15-.25.57-.896.2-3.55.018-.03.05-.1.028-.018.05-.05.345-.039.5-.9.171-.8 0-1.7-.425-3.286-.55-8.3-.042-2.67-4.35-4.5z"/></g><path fill="#373535" d="M312.6 405.15q-.018.042-.05.1-.03 1.102 1.15 6.65.375 2.126.45 2.6.611 2.288 1.7 2.35.043.031.05 0 .067-.04.05-.1.032-.043 0-.1-.028-.017-.1-.05-.899-.087-1.45-2.15-.075-.476-.45-2.6-1.17-5.502-1.15-6.6.031-.044 0-.1-.042-.018-.1-.05-.044.019-.1.05z" id="p"/><path fill="#373535" d="M309.3 401.8q-.032.072-.05.1 1.924 8.572 2.05 9.45.425 2.024 1.15 4.6.788 2.694 1.3 3.6h-.05q.46.923 1.15 1 .656.14 1-.4.032-.021 0-.1.016-.023-.05-.05-.021-.032-.1-.05-.023.034-.05.05-.256.41-.75.3-.56-.073-.95-.85-.488-.895-1.25-3.55-.725-2.574-1.15-4.6-.124-.872-2.05-9.45.016-.024-.05-.05-.022-.032-.1-.05-.024.034-.05.05z" id="q"/><g id="r"><path fill="#373535" d="M309.7 401.15q.036-.013 0-.05-1.39-3.332-4.6-5.3-3.728-2.265-6.25.25-.025.032-.05.05-.228 1.947.15 4.75.433 3.01 1.3 4.3.027.065.05.05l5.3 1.2q.078.033.1 0 1.026-.654 1.4-1.8 2.12-.724 2.6-3.45m-2.85 3.3q-.303 1.097-1.25 1.7l-5.2-1.2q-.789-1.254-1.2-4.15-.366-2.704-.15-4.6 2.39-2.328 5.9-.2 3.13 1.925 4.5 5.15-.485 2.55-2.5 3.2-.029.044-.05.05-.019.046-.05.05z"/><path fill="#00704B" d="M305.6 406.15q.947-.603 1.25-1.7.031-.004.05-.05.021-.006.05-.05 2.015-.65 2.5-3.2-1.37-3.225-4.5-5.15-3.51-2.128-5.9.2-.216 1.896.15 4.6.411 2.896 1.2 4.15l5.2 1.2z"/></g><g id="s"><path fill="#373535" d="M301.7 373.75q-.027.03-.05.05-.88.48-2.1.45-1.4.02-2.2-.7-.006-.03-.05-.05-.057.02-.1.05-1.465 1.47-1.7 1.55-.034.04-.05.05-.026.072-.05.1.025.056.05.05.031.062.05.05.396.086.6.1-1.062 1.525-2.3 2.6-.013.03-.05.05.023.065.05.1.192.353.85.9-.521.982-1.2 1.4-.014.028-.05.05.02.064.05.1.375.755.95.9l-1.1 2.35q.013.036 0 .05.027.068.05.1.609.598 1 .75l-.2 2.2q.024.04.05.05.016.061.05.05.28.116.75.1-.13 1.674-.25 1.95.014.037 0 .05.04.068.05.1.046.022.05 0l.75.15q-.369 1.934 1.75 5.5 2.01 3.49 4.65 5.9.045.023.05 0 .064.024.1 0 .033-.017.05-.05.864-1.505 1.65-5.15.133-2.285 2.95-9.35 2.9-7.304 4.45-8.65.058-.032.05-.1.21-.577.65-.9.06-.018.05-.05.037-.037 0-.1.01-.02-.05-.05-.982-.82-1.15-2.05.023-.005 0-.05-.032-.01-.1-.05-.013.013-.05 0-.775.309-2.3-.15-.012.014-.05 0-3.78 1.263-6.55-.35-.01-.02-.05-.05m-2.15.75q1.236.02 2.1-.5 2.858 1.666 6.7.4 1.443.447 2.25.2.184 1.148 1.1 1.95-.42.347-.6.9-1.632 1.436-4.55 8.75-2.818 7.097-2.95 9.4-.728 3.442-1.55 4.95-2.548-2.355-4.5-5.75-2.11-3.563-1.7-5.45.035-.013 0-.05.008-.03-.05-.05.004-.022-.05-.05l-.7-.1q.101-.476.2-2 .022-.027 0-.05-.005-.031-.05-.05-.01-.022-.05-.05-.446.022-.75-.05l.2-2.2q.028-.042 0-.1-.029-.013-.1-.05-.322-.074-.9-.65l1.1-2.4q.038-.036 0-.1.012-.019-.05-.05-.007-.025-.05-.05-.545-.022-.9-.65.672-.475 1.2-1.55.028-.036 0-.1.013-.02-.05-.05-.572-.46-.8-.8 1.273-1.11 2.4-2.75.029-.021 0-.1.015-.02-.05-.05-.006-.028-.05-.05-.135.024-.45-.05.428-.335 1.4-1.35.831.73 2.25.7z"/><path fill="#817CB9" d="M301.65 374q-.864.52-2.1.5-1.419.03-2.25-.7-.972 1.015-1.4 1.35.315.074.45.05.044.022.05.05.065.03.05.05.029.079 0 .1-1.127 1.64-2.4 2.75.228.34.8.8.063.03.05.05.028.064 0 .1-.528 1.075-1.2 1.55.355.628.9.65.043.025.05.05.062.031.05.05.038.064 0 .1l-1.1 2.4q.578.576.9.65.071.037.1.05.028.058 0 .1l-.2 2.2q.304.072.75.05.04.028.05.05.045.019.05.05.022.023 0 .05-.099 1.524-.2 2l.7.1q.054.028.05.05.058.02.05.05.035.037 0 .05-.41 1.887 1.7 5.45 1.952 3.395 4.5 5.75.822-1.508 1.55-4.95.132-2.303 2.95-9.4 2.918-7.314 4.55-8.75.18-.553.6-.9-.916-.802-1.1-1.95-.807.247-2.25-.2-3.842 1.266-6.7-.4z"/></g><g id="t"><path fill="#373535" d="M299.35 383.25q-.032 2.484.55 3.8 1.436 3.061 4.45 7.9 3.714 5.943 6.15 8.35 6.908 6.684 7.75 7.7.031.06.05.05.063.037.1 0 .032.01.05-.05.024-.009 0-.05.326-10.564-1.3-19.5-1.582-8.863-4.45-12.5-2.688-3.43-7-3.15-4.138.384-5.7 3.6-.58 1.368-.65 3.85m.25 0q.08-2.418.65-3.75 1.488-3.084 5.45-3.45 4.188-.271 6.8 3.05 2.832 3.613 4.4 12.4 1.599 8.776 1.3 19.1-1.261-1.418-7.55-7.5h.05q-2.451-2.393-6.15-8.3-2.986-4.81-4.4-7.85-.569-1.284-.55-3.7z"/><path fill="#00704B" d="M300.25 379.5q-.57 1.332-.65 3.75-.019 2.416.55 3.7 1.414 3.04 4.4 7.85 3.699 5.907 6.15 8.3h-.05q6.289 6.082 7.55 7.5.299-10.324-1.3-19.1-1.568-8.787-4.4-12.4-2.613-3.321-6.8-3.05-3.962.366-5.45 3.45z"/></g><g id="u"><path fill="#373535" d="M312.75 407.4h-.05q-1.588.274-3.25-.55v-.05q-2.033-.885-3-.9-1.053.025-3.95-.25-3.213-.227-3.85-.5-.76-.225-2.3-.5-1.593-.278-2.35-.25-.608.073-1.9.4-1.252.419-1.55.4-1.125.02-1.15 1.25.023 1.47 1 2.15.059.025.1 0 3.19-.069 3.7-.4 3.359.978 6.15 1.1 4.955.176 5.55.1.552.027 1.25-.15.597-.011 1.4.25 1.402.477 4.15 1.75.688.218 1.1-.25.458-.379.65-1.4.183-.779-.3-1.5-.483-.732-1.4-.7m-3.4-.35q1.725.869 3.4.6.79-.007 1.2.6.417.629.25 1.3-.158.929-.55 1.3-.338.332-.9.15h.05q-2.752-1.277-4.15-1.75-.88-.282-1.5-.25h-.05q-.66.173-1.2.15-.605.074-5.55-.1-2.789-.127-6.15-1.15 0 .017-.05 0-.003.03-.05.05-.368.322-3.55.4-.873-.598-.9-1.9.025-.97.9-1 .302.031 1.6-.4 1.258-.323 1.85-.4.743-.022 2.3.25 1.51.275 2.25.5.663.277 3.95.5 2.903.276 3.95.25.933.035 2.9.9z"/><path fill="#FFD635" d="M309.35 407.05q-1.967-.865-2.9-.9-1.047.026-3.95-.25-3.287-.223-3.95-.5-.74-.225-2.25-.5-1.557-.272-2.3-.25-.592.077-1.85.4-1.298.431-1.6.4-.875.03-.9 1 .027 1.302.9 1.9 3.182-.078 3.55-.4.047-.02.05-.05.05.017.05 0 3.361 1.023 6.15 1.15 4.945.174 5.55.1.54.023 1.2-.15h.05q.62-.032 1.5.25 1.398.473 4.15 1.75h-.05q.562.182.9-.15.392-.371.55-1.3.167-.671-.25-1.3-.41-.607-1.2-.6-1.675.269-3.4-.6z"/></g><g id="v"><path fill="#373535" d="M312.75 407.4h-.05q-.852.232-1.15 1.5-.247 1.453 1.1 2.35.049.015.05 0 .688.218 1.1-.25.458-.379.65-1.4.183-.779-.3-1.5-.483-.732-1.4-.7m.9 3.45q-.33.326-.85.15-1.2-.768-1-2.05.252-1.082.95-1.3.79-.007 1.2.6.417.629.25 1.3-.158.929-.55 1.3z"/><path fill="#FFD635" d="M312.8 411q.52.176.85-.15.392-.371.55-1.3.167-.671-.25-1.3-.41-.607-1.2-.6-.698.218-.95 1.3-.2 1.282 1 2.05z"/></g><path fill="#DDDEDF" d="M300.35 407.15q.3-2.3 1.05-2.6-.85-.75-2-.1-1.2.7-1.4 2.3-.2 1.55.5 2.55.7 1 1.85.95-.3-1 0-3.1z" id="w"/><path fill="#DDDEDF" d="M302.35 407.05q.25-2 .8-2.5-.7-.6-1.7-.2-.8.3-1.35 1-.65.8-.65 2.2-.05 1.3.35 2.15.4.75 1.35.7.85-.05 1.15-.55-.2-.95.05-2.8z" id="y"/><path fill="#DDDEDF" d="M304.25 407.6q.35-1.5 1.05-2.2-.55-.9-1.8-.8-1.2.1-1.75.85-.5.7-.55 1.95 0 1.3.55 2 1.1 1.35 2.4.3-.2-.8.1-2.1z" id="A"/><path fill="#DDDEDF" d="M305.3 407.9q0-1.8 1.2-1.95-.5-.85-1.4-.7-.75.1-1.25.8-.65.95-.45 2.35.25 1.5 1.45 1.8 1 .25 1.8-.9-.5-.05-.9-.5-.45-.45-.45-.9z" id="C"/><g id="E"><path fill="#373535" d="M300.55 365.15q-1.475.025-1.5 1.5.08 1.475 1.5 1.45 1.42.025 1.45-1.45.025-1.475-1.45-1.5m-1.25 1.5q.025-1.225 1.25-1.25 1.225.025 1.2 1.25-.02 1.225-1.2 1.2-1.18.025-1.25-1.2z"/><path fill="#FFD635" d="M300.55 365.4q-1.225.025-1.25 1.25.07 1.225 1.25 1.2 1.18.025 1.2-1.2.025-1.225-1.2-1.25z"/></g><path fill="#373535" d="M300.9 366.65q0-.35-.35-.35t-.35.35q0 .35.35.35t.35-.35z" id="F"/><path fill="#EE3156" d="M300.05 387q1.45 5.55 2.55 7.75 2.6 5.1 8 8.45-2.45-2.4-6.15-8.3-3-4.85-4.4-7.9z" id="G"/><path fill="#373535" d="M293.65 404.6q.025-.014 0-.05-.016-.034-.05-.05-.036-.025-.1-.05-.862.185-1.15.35-.012.015-.05.05.009.05 0 .1.208.447.3.55.16.233.5.15.416-.041.45-.4.075-.325.1-.65z" id="aB"/><path fill="#373535" d="M294.4 407.1h-.05q-.548.034-.65.3h-.05q-.025.222-.15.8.022.078.05.1.015.062.05.05.05.041.1 0l.5-.15q.383.13.65.15.163.045.2.05h.05q.08.02.1 0 .151-.072.05-.2l-.1-.05h-.05q-.038-.005-.2-.05.025-.562 0-.7v-.05q-.033-.283-.5-.25z" id="aC"/><path id="k" stroke="#373535" stroke-width=".25" stroke-linejoin="round" stroke-linecap="round" fill="none" d="M94.5 37.096q0 .656.173.984.277.583 1.145.693.521-.182.521-1.276 0-.874-.243-1.42-.382.036-.903.4-.486.328-.694.62z"/><path id="m" stroke="#373535" stroke-width=".25" stroke-linejoin="round" stroke-linecap="round" fill="none" d="M96.096 36.586q-2.048 1.094-1.91 2.806-1.18-.874-1.18-2.696 0-1.859 1.25-2.223.59-.037 1.215.583.694.692.625 1.53z"/><path id="x" stroke="#373535" stroke-width=".25" stroke-linejoin="round" stroke-linecap="round" fill="none" d="M98.204 62.338q-.59-.546-1.388-.073-.833.51-.972 1.677-.139 1.13.347 1.858.486.729 1.284.692-.208-.728 0-2.259.209-1.676.73-1.895z"/><path id="z" stroke="#373535" stroke-width=".25" stroke-linejoin="round" stroke-linecap="round" fill="none" d="M99.42 62.338q-.487-.437-1.18-.145-.556.218-.938.728-.451.583-.451 1.604-.035.947.243 1.567.277.546.937.51.59-.037.798-.401-.139-.692.035-2.04.174-1.458.555-1.823z"/><path id="B" stroke="#373535" stroke-width=".25" stroke-linejoin="round" stroke-linecap="round" fill="none" d="M100.912 62.958q-.382-.656-1.25-.583-.833.073-1.215.62-.347.51-.381 1.42 0 .948.381 1.458.764.984 1.667.219-.14-.583.07-1.53.242-1.094.728-1.604z"/><path id="D" stroke="#373535" stroke-width=".25" stroke-linejoin="round" stroke-linecap="round" fill="none" d="M101.745 63.359q-.347-.62-.972-.51-.52.072-.868.582-.45.693-.312 1.713.174 1.093 1.007 1.312.694.182 1.25-.656-.348-.036-.625-.364-.313-.328-.313-.656 0-1.312.833-1.421z"/><path id="H" stroke="#373535" stroke-width=".25" stroke-linejoin="round" stroke-linecap="round" fill="none" d="M99.038 55.196q1.805 3.717 5.554 6.158-1.701-1.749-4.27-6.049-2.083-3.534-3.055-5.757 1.007 4.045 1.77 5.648z"/><path id="I" stroke="#373535" stroke-width=".25" stroke-linejoin="round" stroke-linecap="round" fill="none" d="M102.092 34.461q-.798 1.094-1.353 1.276-.278.802-1.042 1.093"/><path id="J" stroke="#373535" stroke-width=".25" stroke-linejoin="round" stroke-linecap="round" fill="none" d="M99.524 35.008q.312.182.416-.328"/><path id="K" stroke="#373535" stroke-width=".25" stroke-linejoin="round" stroke-linecap="round" fill="none" d="M97.58 37.23q.416.11.694-.363"/><path id="L" stroke="#373535" stroke-width=".25" stroke-linejoin="round" stroke-linecap="round" fill="none" d="M100.6 34.644q.104-.073.59.036"/><path id="M" stroke="#373535" stroke-width=".25" stroke-linejoin="round" stroke-linecap="round" fill="none" d="M97.059 39.017q.347.182.972-.037.52-.182.833-.437.729.11 1.597-.146.902-.255 1.215-.729.173-.255.798-.546.556-.255.868-.766"/><path id="N" stroke="#373535" stroke-width=".25" stroke-linejoin="round" stroke-linecap="round" fill="none" d="M101.086 39.527q1.041.145 1.527-.51.694-.875 1.632-.802"/><path id="O" stroke="#373535" stroke-width=".25" stroke-linejoin="round" stroke-linecap="round" fill="none" d="M94.698 41.057q.313 0 .868.437.104.11.66.11.486.036.625.218.52.62.972.547"/><path id="P" stroke="#373535" stroke-width=".25" stroke-linejoin="round" stroke-linecap="round" fill="none" d="M93.622 43.754q.695.146 1.354-.146.278.182.66.255.45.11.66 0"/><path id="Q" stroke="#373535" stroke-width=".25" stroke-linejoin="round" stroke-linecap="round" fill="none" d="M93.483 45.503q.799 0 1.111-.219.313.182.764.255.486.073.729-.073"/><path id="R" stroke="#373535" stroke-width=".25" stroke-linejoin="round" stroke-linecap="round" fill="none" d="M100.426 43.207q-.52.62-.486 1.348 0 .875.903 1.494.66-.291.937-.947.347-.802 0-1.931"/><path id="S" stroke="#373535" stroke-width=".25" stroke-linejoin="round" stroke-linecap="round" fill="none" d="M98.517 42.551q-.07.62.347 1.166.451.547 1.11.438"/><path id="T" stroke="#373535" stroke-width=".25" stroke-linejoin="round" stroke-linecap="round" fill="none" d="M97.892 45.066q.278 1.239 1.076 1.712.972.547 1.875-.729"/><path id="U" stroke="#373535" stroke-width=".25" stroke-linejoin="round" stroke-linecap="round" fill="none" d="M101.155 45.867q.313 1.53 1.32 1.64.832.11 1.006-1.275.139-1.24-.243-2.515"/><path id="V" stroke="#373535" stroke-width=".25" stroke-linejoin="round" stroke-linecap="round" fill="none" d="M101.78 43.244q.59.692 1.32.51.832-.182 1.006-1.64"/><path id="W" stroke="#373535" stroke-width=".25" stroke-linejoin="round" stroke-linecap="round" fill="none" d="M103.307 46.669q.382.364.938.291.59-.072.902-.583.833-1.384-1.11-3.79"/><path id="X" stroke="#373535" stroke-width=".25" stroke-linejoin="round" stroke-linecap="round" fill="none" d="M99.107 47.653q.798.62 1.32.62.728-.037 1.284-1.167"/><path id="Y" stroke="#373535" stroke-width=".25" stroke-linejoin="round" stroke-linecap="round" fill="none" d="M96.92 47.908q.798.874 1.423.947.695.037 1.285-.838"/><path id="Z" stroke="#373535" stroke-width=".25" stroke-linejoin="round" stroke-linecap="round" fill="none" d="M98.586 48.819q.625 1.166 1.458 1.676.417.219.73 0 .242-.218.312-.656.07-.583-.209-1.712"/><path id="aa" stroke="#373535" stroke-width=".25" stroke-linejoin="round" stroke-linecap="round" fill="none" d="M101.016 49.766q.521.292 1.146.219.764-.146 1.007-.875 1.25 1.02 1.874.22"/><path id="ab" stroke="#373535" stroke-width=".25" stroke-linejoin="round" stroke-linecap="round" fill="none" d="M105.112 44.337q.452 1.13.868 2.478.521 1.712.486 2.332 1.007 2.15.833 3.607.452.73.66 1.823.208 1.093 0 1.712"/><path id="ac" stroke="#373535" stroke-width=".25" stroke-linejoin="round" stroke-linecap="round" fill="none" d="M93.414 47.871q.52-.072.868-.291.173-.11.555.11.417.254 1.111-.292"/><path id="ad" stroke="#373535" stroke-width=".25" stroke-linejoin="round" stroke-linecap="round" fill="none" d="M93.865 49.62q.66-.072 1.18-.4"/><path id="ae" stroke="#373535" stroke-width=".25" stroke-linejoin="round" stroke-linecap="round" fill="none" d="M94.282 51.26q.278-.036 1.076-.473.66-.401.972-.255"/><path id="af" stroke="#373535" stroke-width=".25" stroke-linejoin="round" stroke-linecap="round" fill="none" d="M96.26 52.718q.243.073.73-.364.555-.474.867-.474"/><path id="ag" stroke="#373535" stroke-width=".25" stroke-linejoin="round" stroke-linecap="round" fill="none" d="M104.661 46.815q.174.4.278 1.348.139.947.07 1.239-.14.547.416.437.59-.11 1.041-.692"/><path id="ah" stroke="#373535" stroke-width=".25" stroke-linejoin="round" stroke-linecap="round" fill="none" d="M105.355 50.641q-.208.838-.138 1.713.07.765.277 1.13.174.364.764.181.59-.218 1.041-.91"/><path id="ai" stroke="#373535" stroke-width=".25" stroke-linejoin="round" stroke-linecap="round" fill="none" d="M100.843 50.386q-.035.474.277 1.239.313.802.695 1.202.347.401.729.438.416.036.625-.438.243-.583.173-1.42-.07-.948-.52-1.75"/><path id="aj" stroke="#373535" stroke-width=".25" stroke-linejoin="round" stroke-linecap="round" fill="none" d="M103.342 51.661q.243.146.868.182.59.037 1.007-.072"/><path id="ak" stroke="#373535" stroke-width=".25" stroke-linejoin="round" stroke-linecap="round" fill="none" d="M102.544 53.265q.486 1.202 1.25 1.42.937.256 1.84-1.02"/><path id="al" stroke="#373535" stroke-width=".25" stroke-linejoin="round" stroke-linecap="round" fill="none" d="M100.218 53.957q.451.437 1.11.4.8-.072 1.32-.837"/><path id="am" stroke="#373535" stroke-width=".25" stroke-linejoin="round" stroke-linecap="round" fill="none" d="M101.363 52.135q-.104.364-.694.802-.729.473-1.423.473"/><path id="an" stroke="#373535" stroke-width=".25" stroke-linejoin="round" stroke-linecap="round" fill="none" d="M100.808 56.107q.937.474 1.597.11.798-.438.59-2.15"/><path id="ao" stroke="#373535" stroke-width=".25" stroke-linejoin="round" stroke-linecap="round" fill="none" d="M96.677 55.743q.937-.73 1.736-.438"/><path id="ap" stroke="#373535" stroke-width=".25" stroke-linejoin="round" stroke-linecap="round" fill="none" d="M103.03 54.722q.034 1.24.59 2.879.694 2.04 1.77 3.025 1.701 1.53 2.569 2.55 1.458 1.713 2.013 3.316"/><path id="aq" stroke="#373535" stroke-width=".25" stroke-linejoin="round" stroke-linecap="round" fill="none" d="M110.007 64.67q-.104-2.368-3.02-5.028-.972-.875-1.527-2.332-.625-1.677-.209-3.17 0 .619.625 1.603.556.838 1.25 1.457.798.765 1.666 1.822 1.076 1.349 1.111 1.932"/><path id="ar" stroke="#373535" stroke-width=".25" stroke-linejoin="round" stroke-linecap="round" fill="none" d="M105.98 53.702q-.034.437.417 1.13.451.656 1.076 1.166.764.583 1.458 1.384.833.984.868 1.567"/><path id="as" stroke="#373535" stroke-width=".25" stroke-linejoin="round" stroke-linecap="round" fill="none" d="M102.092 62.302q-.486-.365-.66-1.421-.207-1.13.14-2.041"/><path id="at" stroke="#373535" stroke-width=".25" stroke-linejoin="round" stroke-linecap="round" fill="none" d="M100.496 57.565q-.382.62-.452 1.311-.07.365-.07.948-.034.692.383.838.451.182 1.006-.656"/><path id="au" stroke="#373535" stroke-width=".25" stroke-linejoin="round" stroke-linecap="round" fill="none" d="M98.795 59.387q.312.91.312 1.567.625-.328 1.041-.438"/><path id="av" stroke="#373535" stroke-width=".25" stroke-linejoin="round" stroke-linecap="round" fill="none" d="M99.107 60.954q.174.364.174 1.13"/><path id="aw" stroke="#373535" stroke-width=".25" stroke-linejoin="round" stroke-linecap="round" fill="none" d="M97.545 58.33q-.486 1.713.66 2.405"/><path id="ax" stroke="#373535" stroke-width=".25" stroke-linejoin="round" stroke-linecap="round" fill="none" d="M98.864 59.642q-.555.765-.555 1.166.104 1.093.173 1.275"/><path id="ay" stroke="#373535" stroke-width=".25" stroke-linejoin="round" stroke-linecap="round" fill="none" d="M100.634 60.698q-.416.839-.347 1.604"/><path id="az" stroke="#373535" stroke-width=".25" stroke-linejoin="round" stroke-linecap="round" fill="none" d="M99.28 58.002q.174.91.764.729"/><path id="aA" stroke="#373535" stroke-width=".25" stroke-linejoin="round" stroke-linecap="round" fill="none" d="M96.469 58.621q.07.693.902.73"/></defs><use xlink:href="#a" transform="matrix(.6943 0 0 .72884 -111.05 -232.5)"/><use xlink:href="#b" transform="matrix(.69434 0 0 .72888 -111.05 -232.5)"/><use xlink:href="#c" transform="matrix(.69434 0 0 .72888 -111.05 -232.5)"/><use xlink:href="#d" transform="matrix(.69434 0 0 .72888 -111.05 -232.5)"/><use xlink:href="#e" transform="matrix(.69434 0 0 .72888 -111.05 -232.5)"/><use xlink:href="#f" transform="matrix(.69434 0 0 .72888 -111.05 -232.5)"/><use xlink:href="#g" transform="matrix(.69434 0 0 .72888 -111.05 -232.5)"/><use xlink:href="#h" transform="matrix(.69434 0 0 .72888 -111.05 -232.5)"/><use xlink:href="#i" transform="matrix(2 0 0 2.09988 .05 -.1)"/><g transform="matrix(.6943 0 0 .72884 -111.05 -232.5)"><use xlink:href="#j"/><use xlink:href="#k" transform="matrix(1.44028 0 0 1.37204 159.9 319)"/></g><g transform="matrix(.6943 0 0 .72884 -111.05 -232.5)"><use xlink:href="#l"/><use xlink:href="#m" transform="matrix(1.44028 0 0 1.37204 159.9 319)"/></g><use xlink:href="#n" transform="matrix(.69434 0 0 .72888 -111.05 -232.5)"/><use xlink:href="#o" transform="matrix(.6943 0 0 .72884 -111.05 -232.5)"/><use xlink:href="#p" transform="matrix(.6943 0 0 .72884 -111.05 -232.5)"/><use xlink:href="#q" transform="matrix(.6943 0 0 .72884 -111.05 -232.5)"/><use xlink:href="#r" transform="matrix(.6943 0 0 .72884 -111.05 -232.5)"/><use xlink:href="#s" transform="matrix(.6943 0 0 .72884 -111.05 -232.5)"/><use xlink:href="#t" transform="matrix(.6943 0 0 .72884 -111.05 -232.5)"/><use xlink:href="#u" transform="matrix(.6943 0 0 .72884 -111.05 -232.5)"/><use xlink:href="#v" transform="matrix(.6943 0 0 .72884 -111.05 -232.5)"/><g transform="matrix(.69427 0 0 .7288 -111.05 -232.5)"><use xlink:href="#w"/><use xlink:href="#x" transform="matrix(1.44034 0 0 1.3721 159.95 319)"/></g><g transform="matrix(.69427 0 0 .7288 -111.05 -232.5)"><use xlink:href="#y"/><use xlink:href="#z" transform="matrix(1.44034 0 0 1.3721 159.95 319)"/></g><g transform="matrix(.69427 0 0 .7288 -111.05 -232.5)"><use xlink:href="#A"/><use xlink:href="#B" transform="matrix(1.44034 0 0 1.3721 159.95 319)"/></g><g transform="matrix(.69427 0 0 .7288 -111.05 -232.5)"><use xlink:href="#C"/><use xlink:href="#D" transform="matrix(1.44034 0 0 1.3721 159.95 319)"/></g><use xlink:href="#E" transform="matrix(.6943 0 0 .72884 -111.05 -232.5)"/><use xlink:href="#F" transform="matrix(.6943 0 0 .72884 -111.05 -232.5)"/><g transform="matrix(.69427 0 0 .7288 -111.05 -232.5)"><use xlink:href="#G"/><use xlink:href="#H" transform="matrix(1.44034 0 0 1.3721 159.95 319)"/></g><use xlink:href="#I" transform="matrix(1 0 0 1 0 -.011)"/><use xlink:href="#J" transform="matrix(1 0 0 1 0 -.011)"/><use xlink:href="#K" transform="matrix(1 0 0 1 0 -.011)"/><use xlink:href="#L" transform="matrix(1 0 0 1 0 -.011)"/><use xlink:href="#M" transform="matrix(1 0 0 1 0 -.011)"/><use xlink:href="#N" transform="matrix(1 0 0 1 0 -.011)"/><use xlink:href="#O" transform="matrix(1 0 0 1 0 -.011)"/><use xlink:href="#P" transform="matrix(1 0 0 1 0 -.011)"/><use xlink:href="#Q" transform="matrix(1 0 0 1 0 -.011)"/><use xlink:href="#R" transform="matrix(1 0 0 1 0 -.011)"/><use xlink:href="#S" transform="matrix(1 0 0 1 0 -.011)"/><use xlink:href="#T" transform="matrix(1 0 0 1 0 -.011)"/><use xlink:href="#U" transform="matrix(1 0 0 1 0 -.011)"/><use xlink:href="#V" transform="matrix(1 0 0 1 0 -.011)"/><use xlink:href="#W" transform="matrix(1 0 0 1 0 -.011)"/><use xlink:href="#X" transform="matrix(1 0 0 1 0 -.011)"/><use xlink:href="#Y" transform="matrix(1 0 0 1 0 -.011)"/><use xlink:href="#Z" transform="matrix(1 0 0 1 0 -.011)"/><use xlink:href="#aa" transform="matrix(1 0 0 1 0 -.011)"/><use xlink:href="#ab" transform="matrix(1 0 0 1 0 -.011)"/><use xlink:href="#ac" transform="matrix(1 0 0 1 0 -.011)"/><use xlink:href="#ad" transform="matrix(1 0 0 1 0 -.011)"/><use xlink:href="#ae" transform="matrix(1 0 0 1 0 -.011)"/><use xlink:href="#af" transform="matrix(1 0 0 1 0 -.011)"/><use xlink:href="#ag" transform="matrix(1 0 0 1 0 -.011)"/><use xlink:href="#ah" transform="matrix(1 0 0 1 0 -.011)"/><use xlink:href="#ai" transform="matrix(1 0 0 1 0 -.011)"/><use xlink:href="#aj" transform="matrix(1 0 0 1 0 -.011)"/><use xlink:href="#ak" transform="matrix(1 0 0 1 0 -.011)"/><use xlink:href="#al" transform="matrix(1 0 0 1 0 -.011)"/><use xlink:href="#am" transform="matrix(1 0 0 1 0 -.011)"/><use xlink:href="#an" transform="matrix(1 0 0 1 0 -.011)"/><use xlink:href="#ao" transform="matrix(1 0 0 1 0 -.011)"/><use xlink:href="#ap" transform="matrix(1 0 0 1 0 -.011)"/><use xlink:href="#aq" transform="matrix(1 0 0 1 0 -.011)"/><use xlink:href="#ar" transform="matrix(1 0 0 1 0 -.011)"/><use xlink:href="#as" transform="matrix(1 0 0 1 0 -.011)"/><use xlink:href="#at" transform="matrix(1 0 0 1 0 -.011)"/><use xlink:href="#au" transform="matrix(1 0 0 1 0 -.011)"/><use xlink:href="#av" transform="matrix(1 0 0 1 0 -.011)"/><use xlink:href="#aw" transform="matrix(1 0 0 1 0 -.011)"/><use xlink:href="#ax" transform="matrix(1 0 0 1 0 -.011)"/><use xlink:href="#ay" transform="matrix(1 0 0 1 0 -.011)"/><use xlink:href="#az" transform="matrix(1 0 0 1 0 -.011)"/><use xlink:href="#aA" transform="matrix(1 0 0 1 0 -.011)"/><use xlink:href="#aB" transform="matrix(.6943 0 0 .72884 -111.05 -232.5)"/><use xlink:href="#aC" transform="matrix(.6943 0 0 .72884 -111.05 -232.5)"/></svg>