<svg xmlns="http://www.w3.org/2000/svg" xmlns:xlink="http://www.w3.org/1999/xlink" preserveAspectRatio="none" width="200" height="105"><defs><path fill="#EE333E" d="M405.7 393.5v-71.95H290.5v71.95h115.2z" id="a"/><path fill="#EE333E" d="M290.5 393.5H175.25v72H290.5v-72z" id="b"/><path fill="#00629E" d="M175.25 321.55v71.95H290.5v-71.95H175.25z" id="c"/><path fill="#00629E" d="M405.7 393.5H290.5v72h115.2v-72z" id="d"/><path fill="#FFF" d="M276.05 321.55v57.55h-100.8v28.85h100.8v57.55h28.85v-57.55h100.8V379.1H304.9v-57.55h-28.85z" id="e"/></defs><use xlink:href="#a" transform="matrix(.8678 0 0 .72934 -152.1 -234.5)"/><use xlink:href="#b" transform="matrix(.8678 0 0 .72934 -152.1 -234.5)"/><use xlink:href="#c" transform="matrix(.8678 0 0 .72934 -152.1 -234.5)"/><use xlink:href="#d" transform="matrix(.8678 0 0 .72934 -152.1 -234.5)"/><use xlink:href="#e" transform="matrix(.86783 0 0 .72937 -152.1 -234.5)"/></svg>