<svg xmlns="http://www.w3.org/2000/svg" xmlns:xlink="http://www.w3.org/1999/xlink" preserveAspectRatio="none" width="200" height="105"><defs><path fill="#FFF" d="M290.4 465.55h108.1V321.5H290.4v144.05z" id="a"/><path fill="#74A598" d="M290.4 321.5H182.45v144.05H290.4V321.5z" id="b"/><path fill="#CF2E4D" d="M273.8 393.5q0-11.3 8-19.35 8.05-8 19.35-8 5.7 0 10.9 2.25 5 2.2 8.85 6.15-4.85-7.7-12.8-12.2-8.15-4.6-17.6-4.6-14.85 0-25.3 10.45-10.5 10.5-10.5 25.3 0 14.85 10.5 25.35 10.45 10.45 25.3 10.45 9.45 0 17.6-4.6 7.95-4.5 12.8-12.2-3.85 3.95-8.85 6.15-5.2 2.25-10.9 2.25-11.35 0-19.35-8-8-8.05-8-19.4z" id="c"/><path fill="#CF2E4D" d="M310.65 389.6l-.05-12.8-7.4 10.35-12.25-3.9 7.65 10.4-7.55 10.3 12.15-4 7.55 10.35-.05-12.9 12.15-3.85-12.2-3.95z" id="d"/></defs><use xlink:href="#a" transform="matrix(.92569 0 0 .72888 -168.9 -234.35)"/><use xlink:href="#b" transform="matrix(.92569 0 0 .72888 -168.9 -234.35)"/><use xlink:href="#c" transform="matrix(.92566 0 0 .72885 -168.9 -234.35)"/><use xlink:href="#d" transform="matrix(.92566 0 0 .72885 -168.9 -234.35)"/></svg>