<svg xmlns="http://www.w3.org/2000/svg" xmlns:xlink="http://www.w3.org/1999/xlink" preserveAspectRatio="none" width="200" height="105"><defs><g id="a"><path d="M100.05 45.85v-12.2H0v16.2h100.05v-4z"/><path fill="#FFF" d="M100.05 22.1v-5.45H0v17h100.05V22.1z"/><path fill="#D21033" d="M100.05 4.7V0H0v16.65h100.05V4.7z"/></g><path fill="#FFCF01" d="M30.1 56.2l-6.5-6.8-3.1 88.5 6.85-7.85L30.1 56.2M11.85 41.3l-6.4 4L0 158.45l7.35-7 4.5-110.15m9.6 5.1l-6.7-4.7-4.35 105.8 7.2-8.05 4-93-.15-.05m88.55 3l-6.5 6.7 2.75 73.95 6.85 7.85-3.1-88.5m-37.6 65.35q-1.35 1-2.8 2l3 33.05 3.1 2.65 3.25-3.35-.05-.1-.05-.05.05-.25-3.9-21.45-.1.3-2.5-12.8m-4.55 3.15q-.5.35-1 .65l-1.4-1-2.25 33.9 3 2.75 3.25-3.4-1.6-32.9M63.4 116q-1.05-.85-2.05-1.7l-2.65 12.25-.55 2.65-4.05 19.65.1.65 2.9 2.8 3.5-1.85L63.4 116M97 60.3q.55 9.95-2.05 20.2-.048.188-.1.35l1.5 39.45 7.4 6.65-3.1-69.85Q82.4 61.95 66.6 51.55q-16 8.8-33.65 6.15l-3.1 69.25 7.4-6.65 1.5-38.85-.2-.6Q36 71.35 36.7 60.8q15.2 0 29.85-7.4 13.5 8.45 30.45 6.9m-2.05 20.2l-.1.3v.05q.052-.162.1-.35m-18.7 24.95Q93.8 87.5 93.35 63.8q-9.6-.05-17.25-2.3l.15 43.95m-19.4-43.8q-8 2.55-17.5 2.05.85 25 17.5 41.45v-43.5m61.75-19.8l-6.45 4.55-.15.05 4 92.75 7.2 8.3-4.6-105.65m-63.4-30.8l5.4.4Q54.95 3.4 48.1 6q0 .1.05.2 4.5-.05 7.05 4.85M65.85 1.6Q64.6.4 63.15.1q-1.7.05-2.95 1.45L55.45.2l5.15 6.1q2.85 2.15 5.35.25L71.25 2q-.8-.25-1.65-.4h-3.75m-4.55.15q.65-.6 1.55-.6t1.5.6Q65 2.4 65 3.3t-.65 1.5q-.6.65-1.5.65T61.3 4.8q-.6-.6-.6-1.5t.6-1.55m66.85 43.55l-6.4-4 4.5 110.15 7.35 7-5.45-113.15z" id="b"/><path id="c" stroke="#FFCA00" stroke-width="1" stroke-linejoin="round" stroke-linecap="round" fill="none" d="M128.15 45.3l5.45 113.15-7.35-7-4.5-110.15 6.4 4-.05-1q-.5-6.3-4.75-8.1-8.3-4-16.25.25-7.95 4.2-14.1 6.85-4.95 1.5-8.25.4M73.1 28.3q.1 8.6 4 15.9 3.65 2.7 9.65 3.1l-2-3.1q-.15-.15-.3-.35-6.05-7.1-6.2-19.05Q78.1 12.4 77 7.45q-.95-4-5.75-5.45l-5.3 4.55q-2.5 1.9-5.35-.25L55.45.2l-2.8-.2Q45.6.45 48.1 6q6.85-2.6 12.5 5.45l-5.4-.4q.8 1.55 1.45 3.65 2.35 10.85-2.9 21.4-2.6 5.3-5 8.35L47.1 47.7l8.75-1.95Q60.2 38.8 61.6 28.3m50.55 18.1l-.15.05 4 92.75 7.2 8.3-4.6-105.65-6.45 4.55zM100.6 56.8l.05.3 3.1 69.85-7.4-6.65-1.5-39.425q-2.394 9.182-7 16.875l6 15.05 2.25 7.65 1.65 8.2 7.35 21.65q8.75-3.9 12.35 1.35.519.767.875 1.55 1.244 2.864.225 6 4.45 1.9 5.4 4.85 1.3 5.15-6.25 8.9 3.75 1.65 2 4.25-27.1 6.6-55.45 7-25.6-1.05-49.8-6.9-1.4-2.15 2.75-4.35-9.249-2.4-7.9-8.9.87-4.22 4.45-5.9-1.203-3.596 2.45-5.075.075-.856.5-1.775 3.9-3.55 12-1.1l5.9 1.35m60.25-70.675V80.8l.1-.3q2.6-10.25 2.05-20.2-16.95 1.55-30.45-6.9-14.65 7.4-29.85 7.4-.7 10.55 1.85 20.05l.2.6q2.35 8.5 7.35 16.15 5.85 8.95 15.25 16.7 1 .85 2.05 1.7 1 .75 2.05 1.55l1.4 1q.5-.3 1-.65.9-.55 1.75-1.15 1.45-1 2.8-2 2.35-1.85 4.55-3.8 3.45-3.2 6.3-6.7 2.5-3.15 4.6-6.5m7.1-17.25q-.048.188-.1.375M103.5 56.1l2.75 73.95 6.85 7.85-3.1-88.5-6.5 6.7zM71.25 2q-.8-.25-1.65-.4h-3.75Q64.6.4 63.15.1q-1.7.05-2.95 1.45L55.45.2m8.9 1.55Q65 2.4 65 3.3t-.65 1.5q-.6.65-1.5.65T61.3 4.8q-.6-.6-.6-1.5t.6-1.55q.65-.6 1.55-.6t1.5.6zm-9.15 9.3q-2.55-4.9-7.05-4.85-.05-.1-.05-.2m29 38.2q-.1-.05-.15-.1l2.55 4.7q-4.7-1.1-8.4-4.65l-.1-.1q-2 3.7-4 5-3.4-1.45-4.25-4.5-2.15 3.75-7.25 5.5-.9-1.75.6-4.35l-.25.05m-7-2.05q-3.3 1.1-8.25-.4-6.15-2.65-14.1-6.85-7.95-4.25-16.25-.25Q6 38 5.5 44.3m65.6-.15q-1.9-7.9-1.85-15.85m-4.65.4q.35 7.95-1.85 15.85m-41.3 1.85l.15.05-4 93-7.2 8.05 4.35-105.8 6.7 4.7zm-9.6-5.1l-4.5 110.15-7.35 7L5.45 45.3l6.4-4zm45 20.35q5.05-1.6 9.5-4.45 4.4 2.65 9.75 4.3 7.65 2.25 17.25 2.3.45 23.7-17.1 41.65-4.1 4.15-9.15 8-5.7-3.85-10.25-8.3Q40.2 88.7 39.35 63.7q9.5.5 17.5-2.05v43.5M30.1 56.2l-2.75 73.85-6.85 7.85 3.1-88.5 6.5 6.8zm70.55.9Q82.4 61.95 66.6 51.55q-16 8.8-33.65 6.15l-3.1 69.25 7.4-6.65 1.5-38.85m38.2 29.5l2.4 4.1 4 6.9 1.5-15.1-1.6-2.6m-26.3 6.6l-2.4 4.1 4.15 11.6 2.65-12.25m-6.8.65l-4 6.9-.8 1.3 2.3 13 .05.35.25-.45 5.8-6.85.55-2.65M46.1 97.6l-5.55 15.1 2.75 3.5 5.75-9.45 1.6-2.6m-.1 17.7l-1.5-15.1m3 29.4l.05.4v-.05m0 .05l-5.4 8.4-2.75-8.85-5 8.75-.55.95-.55 6.5 5.35.15 2-2.75 3.5 5.85 5.15-5.6.25-1.1-2-12.3zm22.9-9.3l-.05-.25.1.15 4.3-12.1m-.45 33.65l2.85-12.2-.2-.35-6.5-9-.05.1 3.9 21.45v.3l.05.1 3.4 5.35h4.1l1.75-4.5 2.25 3.6 5.25-.6.55-5.85-1.3-2.15-5-8.75-2.75 8.85-5.45-8.55M75 127.25l-.1.3-2.5-12.8m-33.45 30.1l-2.65-15.9 6.15-6 2.6 7.75 4.7-7.55m-9.2-10.45l-2.75 7.7-1.65 8.15-7.35 21.65 6.2 1.15 3.4-5.55.05-1m-22.25 8.275q-.159 2.233 2.2 3.975h.025L34.2 159.8l.4.4q-.088-2.392 2.65-2.9 2.418.42 2.275 3.4l21.175 1.1.5 4 4.4-3.35q-.027-2.496-2.5-4.05-2.027 1.15-2.35 3.15M34.6 160.2q.942 2.934 4.35 4.35l.5-3.85h.075m-14.325-.5l-.6 4.55-.65 4.45m3.4-2.5v3.85l4.5.75.5-3.75m-18.6-9.4q.09.043.175.075 3.09 1.411 4.475-1.175m14.2 17.75l3.35-6.5m-11.35-3.55q-4.3.75-4.75 3.45.55 1.85 4 1.35M78.9 149l-.05-.05.05-.25m-9.3-31.95l3 33.05 3.1 2.65 3.25-3.35m-24.75.4v.05l-.35.4-1.15 5.25 10.65.25 2.25 3.6 1.85-.1 2.9-3.65h6.1l2.5-5.6m-13.5-32.15l-2.25 33.9 3 2.75 3.25-3.4-1.6-32.9m-2.25 44.55l2.1.1 3.3 3.1 1.6-3.6h.25q-.9-3.261-3.35-2.65-1.786 1.08-2 2.75m11.3 8.9q-2.65.2-2.8 1.4-1.55 2.3 2.7 2.4l.1-3.8.15-5.6m-20.8-36.25l-4.05 19.65.1.65 2.9 2.8 3.5-1.85L63.4 116m-27.7 56.45h4.9l-1.15-2.75 3-3.4 1.9 3.15-1.5 2.5 3.25 4.6 1.25-12.25m3.35.65l.25 7.5-1.75 2.5m5-4.25l.7 3.6 3.3-.1v-5.25m-6.25 8.5l3.15-2.15-.2-1m3.3-.1l5.25.25 1.65 4.25h2l.25-4.15 4.85.25-.1-3.85m6.6 3.9l.25.2 3.9-.25.1-4.6m.4-48.25l.8 1.3 4.7 7.55 2.6-7.75 6.15 6 .25.25-.1-.65m-3.9-15.85l-3.25 3.5-5.75-9.45m-.7 16.4l-2.3 13.3-.3-.4m13.4 8.8l2.65-15.9m14.9 27.1l5.825-2.95m-45.475 8.85l20.1-1q-.456-2.396 1.8-3.9 2.745-.021 3.675 3.225l.025-.075 13.75-4q2.206 3.137 6.25 3.15m-4.6 9.1l-5.65 1.7-.1.05q-.45 2.5-2.5 2.65-1.85.2-3.1-1.6l-.55.6-.25 3.75-2.5-.4-.75-2.5-3.35-1.1m6.85.25v-.4l-4-4.1-5 6.35v.25l-.45-.15-2.05 3.05m11.75-5.75l.3.15q.45-2 2.85-3.05 1.55-.85 2.75 1.85l.35-8.7-4.5.85m4.15 7.85v.1h.1v-.05l-.1-.05zm0 .1v.05m-21.65-.75l-.35 2.4 1.9 1.9.2-.3m4.75-12.5q-.67 2.273 1.15 3.15l1.95-2.1 2.375-1.725M92.95 173.55l-.25-4.85q-3.3 2.15-2.6 4.25l2.4.95.45-.35v.25m-4.75.25l-.2-.2-2.55 3.6m10.8-30.35l2.65 4.35 6.2-1.15m-29-88.8l.15 43.95"/></defs><use xlink:href="#a" transform="scale(1.999 2.10632)"/><g transform="matrix(.17389 0 0 .18323 88.3 36.05)"><use xlink:href="#b"/><use xlink:href="#c"/></g></svg>