<svg xmlns="http://www.w3.org/2000/svg" xmlns:xlink="http://www.w3.org/1999/xlink" preserveAspectRatio="none" width="200" height="105"><defs><path fill="#00704B" d="M447.5 367v-48H159.45v48H447.5z" id="a"/><path fill="#F2653C" d="M159.45 415.05v48H447.5v-48H159.45z" id="b"/><path fill="#FFF215" d="M447.5 415.05V367H159.45v48.05H447.5z" id="c"/><g id="d"><path fill="#373535" d="M339.05 391q.03-14.958-10.55-25.55-10.542-10.58-25.55-10.6-14.958.019-25.55 10.6-10.581 10.592-10.6 25.55.019 14.957 10.6 25.55 10.592 10.58 25.55 10.55 14.957.03 25.55-10.55 10.58-10.593 10.55-25.55m-10.75-25.35q10.519 10.507 10.5 25.35.019 14.842-10.5 25.35-10.508 10.519-25.35 10.5-14.843.019-25.35-10.5-10.52-10.508-10.55-25.35.03-14.843 10.55-25.35 10.507-10.52 25.35-10.55 14.892.03 25.35 10.55z"/><path fill="#00A5E5" d="M338.8 391q.019-14.843-10.5-25.35-10.458-10.52-25.35-10.55-14.843.03-25.35 10.55-10.52 10.507-10.55 25.35.03 14.842 10.55 25.35 10.507 10.519 25.35 10.5 14.842.019 25.35-10.5 10.519-10.508 10.5-25.35z"/></g><path fill="#FFF215" d="M303.45 404.65h-1l.25 15.1h.55l.2-15.1z" id="e"/><path fill="#FFF215" d="M316.2 394.7l-.3.95 14.4 4.45.15-.55-14.25-4.85z" id="f"/><path fill="#FFF215" d="M310.65 379.5l.8.6 8.7-12.35-.45-.35-9.05 12.1z" id="g"/><path fill="#FFF215" d="M294.5 380.1l.8-.6-9.05-12.1-.45.35 8.7 12.35z" id="h"/><path fill="#FFF215" d="M290.05 395.65l-.3-.95-14.3 4.85.15.55 14.45-4.45z" id="i"/><g id="j"><path fill="#00A5E5" d="M279.65 385.15h15.75l-1.75 5.4v.1l2.65 1.95 6.3-19.4v-.1l-1.6-5-4.55 13.9H275.4l4.25 3.15m.15-.25l-3.65-2.65h20.5L301 368.9l1.35 4.25-6.2 19.05-2.2-1.65 1.8-5.65H279.8z"/><path fill="#FFF215" d="M276.15 382.25l3.65 2.65h15.95l-1.8 5.65 2.2 1.65 6.2-19.05-1.35-4.25-4.35 13.35h-20.5z"/></g><g id="k"><path fill="#00A5E5" d="M285.9 385.8v-.05h-5.35l11.85 8.65-6.5 20 4.3-3.1.05-.05 4.85-14.9 4.65 3.4 2.7-1.95-16.55-12m6.75 8.6l.05-.1-11.4-8.3h4.5l16.2 11.8-2.25 1.65-4.8-3.5L290 411.1l-3.6 2.65 6.25-19.35z"/><path fill="#FFF215" d="M292.7 394.3l-.05.1-6.25 19.35 3.6-2.65 4.95-15.15 4.8 3.5 2.25-1.65-16.2-11.8h-4.5l11.4 8.3z"/></g><g id="l"><path fill="#00A5E5" d="M318.35 409.4l-.05-.05-12.7-9.2 4.7-3.4-1.05-3.15-16.5 12-.05.05-1.65 5 11.9-8.6 17 12.35-1.6-5M310 396.65l-4.85 3.5 12.95 9.35 1.4 4.25-16.55-12-11.4 8.25 1.4-4.25L309.1 394l.9 2.65z"/><path fill="#FFF215" d="M305.15 400.15l4.85-3.5-.9-2.65-16.15 11.75-1.4 4.25 11.4-8.25 16.55 12-1.4-4.25-12.95-9.35z"/></g><g id="m"><path fill="#00A5E5" d="M325.15 382l-.05.05-12.65 9.25-1.75-5.55h-3.35l6.3 19.45.05.05 4.35 3.1-4.55-13.9 17-12.45h-5.35m.1.25h4.5l-16.55 12.1v.1l4.35 13.25-3.65-2.65-6.2-19.05h2.8l1.8 5.7 12.95-9.45z"/><path fill="#FFF215" d="M329.75 382.25h-4.5l-12.95 9.45-1.8-5.7h-2.8l6.2 19.05 3.65 2.65-4.35-13.25v-.1l16.55-12.1z"/></g><g id="n"><path fill="#00A5E5" d="M302.95 362.05l-1.65 5v.1l4.85 14.85h-5.75l-.05.1-1 3.05h20.5l4.25-3.1-14.6-.05-6.55-19.95m-1.35 5.05l1.35-4.25 6.35 19.4 14.05.05-3.6 2.6H299.7l.9-2.65h5.9l-4.9-15.15z"/><path fill="#FFF215" d="M302.95 362.85l-1.35 4.25 4.9 15.15h-5.9l-.9 2.65h20.05l3.6-2.6-14.05-.05-6.35-19.4z"/></g></defs><use xlink:href="#a" transform="matrix(.6943 0 0 .72888 -110.7 -232.5)"/><use xlink:href="#b" transform="matrix(.6943 0 0 .72888 -110.7 -232.5)"/><use xlink:href="#c" transform="matrix(.6943 0 0 .72888 -110.7 -232.5)"/><use xlink:href="#d" transform="matrix(.6943 0 0 .72888 -110.7 -232.5)"/><use xlink:href="#e" transform="matrix(.6943 0 0 .72888 -110.7 -232.5)"/><use xlink:href="#f" transform="matrix(.6943 0 0 .72888 -110.7 -232.5)"/><use xlink:href="#g" transform="matrix(.6943 0 0 .72888 -110.7 -232.5)"/><use xlink:href="#h" transform="matrix(.6943 0 0 .72888 -110.7 -232.5)"/><use xlink:href="#i" transform="matrix(.6943 0 0 .72888 -110.7 -232.5)"/><use xlink:href="#j" transform="matrix(.6943 0 0 .72888 -110.7 -232.5)"/><use xlink:href="#k" transform="matrix(.6943 0 0 .72888 -110.7 -232.5)"/><use xlink:href="#l" transform="matrix(.6943 0 0 .72888 -110.7 -232.5)"/><use xlink:href="#m" transform="matrix(.6943 0 0 .72888 -110.7 -232.5)"/><use xlink:href="#n" transform="matrix(.6943 0 0 .72888 -110.7 -232.5)"/></svg>