<svg xmlns="http://www.w3.org/2000/svg" xmlns:xlink="http://www.w3.org/1999/xlink" preserveAspectRatio="none" width="200" height="105"><defs><path fill="#64CBE9" d="M146.45 465.5H434.5V321.55H146.45V465.5z" id="a"/><path fill="#313570" d="M146.45 321.55v71.95h143.8v-71.95h-143.8z" id="b"/><path fill="#FFF" d="M146.45 321.55v8.75l30.4 15.2h-30.4v24.05h30.4l-30.4 15.2v8.75h17.4l42.5-21.15v21.15h23.9v-21.15l42.5 21.15h17.5v-8.75l-30.5-15.2h30.5V345.5h-30.5l30.5-15.2v-8.75h-17.5l-42.5 21.15v-21.15h-23.9v21.15l-42.5-21.15h-17.4z" id="d"/><path fill="#EE333E" d="M290.25 393.5v-5.7l-36.3-18.3H242.4l47.85 24m-59.3-47.95h11.5l47.8-24h-11.3l-48 24m-84.5 47.95h11.5l48-24h-11.5l-48 24m0-43v14.05h65v28.95h14.05v-28.95h64.75V350.5H225.5v-28.95h-14.05v28.95h-65m0-28.95v5.7l36.5 18.3h11.6l-48.1-24z" id="e"/><g id="f"><path fill="#FFF" d="M345.35 415.4q2.6 2.35 5.8 4.45 3.05 2 6.6 3.75v-21.15h-19.9v.55q.25 4.25 3.95 8.7.85 1.1 1.95 2.2l.3.3 1.3 1.2m11.35-11.85q.15-.05.2.3 0 .4-.75 1.45h.1q.25 0 .3.15h-.05q.15.25-.5.95.05 0 .05.1.1.1-.15.45-.3.4-.8.9.05.05.05.15 0 .1-.2.3-.45.45-.8.65.05 0 .05.1.05.1-.1.3v-.05q-.15.35-.6.45-.1.35-.45.55.35.4.85 1.7.55 1.55 1.3 2.25v.05q.45.45 1.2.8.55.15.6.45.05.25-.4.6 0 .25-.2.45-.35.3-.75.05l-.2.2q-.1.1-.25.1-.1-.05-.25-.15-.9.15-1.1-.65-.45-1.6-2.15-2.15-.6-.3-1-.2-.35.1-.45.5l-.2.45H350v-.55q-.05-.3-.1-.35-.15-.05-.4.35l-.15.2-.05-.25q-.1-.35-.15-.4-.05 0-.15.15l-.15.35-.05-.35q-.15-.5.3-1-.3-.15-.55-.35-.25.2-.35.55l-.1.25-.15-.2q-.15-.3-.2-.6-.3.15-.3.35l-.15.3-.1-.3q-.15-.3-.15-.55-.2 0-.25.1l-.2.2v-.3q0-.85.7-.95-.75-1.3-.45-2.75.15-1.25.15-1.7-.1-.8-.7-1.2-.5 0-.65-.05-.15.05-.2.1-.25.3-.55.7.55.45.9 1.1.25.4 0 1.15-.25.7-.05 1.1l.1.2h-.2q-.6-.05-1.05-.6-.65 1.1-1.55 1.7l-.15.1-.05-.15q-.2-.5 0-1.35.05-.7.25-1.15-.35.1-.75.05l-.1-.05v-.1q-.05-.3.1-.5-.25.05-.6.1-.65 0-.95-.1l-.1-.05.05-.1q.1-.4.35-.75-.7.05-1.7-.5l-.15-.05.1-.15q.5-.5 1.15-.6-.95-.6-1.1-1.65l-.05-.1.1-.05q.4-.2 1.15.1.45.1.8.35.05.05.15.1-.05-.3.15-.7-.1-.1-.05-.15v-.05l.25.05.6.35q.5.3.75.8.05-.45 0-.75l-.1-.3.25.15q.3.15.75.7.3.4.45.75.25-.4.35-.7v-.1h.1q.45-.05.7-.05.05-.45.5-.75.45-.35 1.2-.1 1.1.35 1.5.05l.25-.15-.05.3q-.1.65-.45.9.5.35.8 1.4.05.45.55.75h.05l.6.45q0-.35-.45-.8-.65-.5-.55-1.2.1-.9 1.2-1.2 1.85-.6 2.2-1v-.05q.3-.3.45-.1.15.05.1.5-.05.25-.35.65.1 0 .15.05.1.1-.05.5-.15.35-.35.65 2.25-.35 3.3-1.65.2-.25.35-.2m-.05.35v-.1q-.05 0-.1.1-1.15 1.45-3.8 1.8l-.4.05.3-.3q.3-.3.5-.8 0-.1.05-.15-.05 0-.05.05l-.25.15h-.05l-.45.25-.05-.1.3-.35q.65-.65.75-1v-.3q-.002.052-.1.15-.35.45-2.35 1.1-.9.25-1 .95v.05q-.05.55.45.95.75.7.55 1.25l-.1.15-.1-.1-.8-.55q-.6-.3-.7-.9-.3-1.15-.85-1.3l-.35-.15.35-.1q.3-.15.45-.6-.5.15-1.5-.15h.05q-.6-.2-1 .05-.35.2-.4.55-.05.1 0 .25v.1l-.1.05q-.15.05-.3.15-.35.2-.45.45h.15q.1-.05.25-.1h.15q.1 0 .6.05h.1q.7.45.85 1.4.05.5-.15 1.8-.3 1.45.5 2.75l.15.2h-.25q-.55 0-.65.45.15-.05.35 0h.15v.15q-.05.15 0 .3.15-.15.45-.3l.2-.1v.2q-.05.2.05.4.15-.3.5-.45l.1-.05.05.05q.3.3.65.45l.2.05-.15.15q-.3.3-.35.55.1-.05.2.05.1 0 .2.3.25-.35.5-.25.15.05.2.25.2-.25.5-.3.4-.1 1.15.2 1.8.6 2.3 2.35.15.6.9.45h.1l.15.15.35-.35.1.05q.3.2.55 0h-.05q.15-.15.15-.25v-.1l.05-.05q.3-.25.35-.4-.05-.15-.45-.25-.8-.4-1.25-.9H355q-.75-.75-1.35-2.35-.55-1.45-.9-1.75l-.15-.1.15-.1q.45-.2.55-.55v-.1h.1q.35-.05.5-.3l-.75-.25v-.05l.5-.05q.45-.1 1.1-.75h.05q0-.048.05-.05h-.3l.25-.25q.55-.55.9-1 .1-.2.15-.25l-.1.05q-.05 0-.05.05l-.45.1.35-.35q.75-.7.7-.85h-.05q-.15 0-.35.1l-.35.1.2-.3q.9-1.2.9-1.55m-9.75.65q.05.15-.1.2-.15.05-.2-.1-.05-.1.1-.2.15-.05.2.1m26.25 15.75l.5-.3 3.25-2.3q.15-.15.3-.25l.15-.15q2.144-1.65 3.85-3.4.75-.75 1.4-1.45l4.55-10h-19.9v21.15l5.9-3.3m-5.9-42.2v14.8h19.9v-14.8h-19.9m11.25.4l.25-.2-.05.35q-.2.6-.15 1.1.35-.2.85-.25l.4-.1-.3.3q-.5.5-.7 1.1.6-.55 1.7-1.15 1.3-.7 1.45-1.05l.15-.25.1.3v.35q.6-.45 1.05-.4h.25l-.15.2q-.15.2-.25.4.8-.5 1.8-.35h.3l-.25.2q-.3.2-.45.4.65-.25 1.4.05l-.05.1.05.15q-.4.05-.6.3.75 0 1.3.85l.2.25-.3-.05q-.75-.15-1.15-.05.35.35.45 1.1l.05.3-.25-.2q-.65-.45-1.15-.65.05.2.15.5 0 .05.05.1l.1.4-.35-.3q-.65-.7-1.45-.8.2.2.35.55l.1.25-.3-.15q-1.05-.6-1.7-.55.25.2.35.4l.1.2h-.2q-.55-.05-.9.1 2.1.55 2.9 1.7.9 1.2.35 3.1l-.15.45-.1-.45q-.2-.9-.35-1.35v.15q-.2.5-.55.65l-.2.15.05-.25q.05-.7 0-1.1-.25.5-.4.6l-.2.15v-.25q0-.7-.4-1.1.05.65-.45.9l-.15.15v-.25q0-.8-.3-.95-.3.55-.4.65.05.05.1.15 1.05 1.05 1.1 2.1.15 2.1-.6 2.7l-.2.2v-.3q-.05-.5-.05-.85-.4.55-.6.6l-.3.2.15-.35q.15-.3.25-.75-.25.3-.5.5l-.25.2.05-.3q.15-1.05.2-1.65-.25.35-.5.55l-.3.2.1-.3q.15-.8.15-1.35-.15.25-.35.45l-.25.25.05-.35V387q-.1.05-.25.05h-.05q0 .7.05 1.45.1 2.7.65 3.7l.15.25-.25-.05q-.65-.1-.95-.55l-.55.8-.1-.2q-.05-.1-.15-.55-.35.25-.9.35l-.25.05.1-.25q1.1-2.2.9-5.2-.05.2-.05.25l-.05.5-.2-.45v-.05q-.2-.3-.25-.55-.2.9-.55 1.4l-.1.15-.1-.2q-.1-.2-.15-.4-.05.35-.15.75-.2.9-.2 1l-.05.3-.2-.2q-.3-.35-.45-.75-.35.85-.35 1.25l-.05.4-.45-.9q-.3.45-.35.8l-.15.45h-.05l-.05-.45q-.35-2.05.6-3.8.5-.95 1.4-1.65l-.15-.8q-.35.45-.5.95l-.2.45-.05-.45q-.1-.45-.1-.75-.4.6-.45 1.2l-.1.4-.15-.4q-.2-.45-.25-.75-.2.35-.15.8v.35l-.25-.25q-.2-.25-.3-.65-.3.8-.3 1.2v.25l-.2-.15q-.35-.15-.5-1-.55.6-.8 1.25l-.2.4-.05-.4q-.4-2.05 1.2-3.2l-.05-.15q-.15-.6-.05-1-.55.4-.7.8l-.2.45-.05-.5v-.05q-.1-.75.15-1.25-.35.2-.65.6-.45.5-.55.95l-.2.45-.05-.45q-.15-.55.05-1.3.1-.55.3-.9-.65.1-.8.25l-.4.3.2-.45v-.05q.25-.5.95-.85.5-.25.85-.3-.3-.5-.55-.55l-.45-.2.45-.05h.05q.3-.05.8.2.4.15.65.4 0-.5-.2-.85l-.15-.35.3.15q.8.25 1.15.75.05-.4-.05-.6l-.15-.35.35.2q.45.3.75.65l-.1-.65.25.2q.45.35.75.75-.05-.35-.05-.45l-.1-.35.3.2q.55.45.95 1.15 0-.35-.05-.5l-.15-.45.35.3.05.05q0 .1.05.25.25.4.95 1.45-.2-.5-.25-.55l-.1-.25-.05-.05.3.1q.1 0 .25.05-.3-.6-.5-.8l-.4-.35h.05l.45.15q.5.1.75.35.05-.6-.05-.8l-.15-.35.35.2q.4.25.6.65.25-.6.7-.9m-5.4 4v.05q.4-.15.9-.2v-.1q-.1-.35-.1-.6-.4.25-.7.75l-.1.1m.05-.1h-.1l-.05.05q.051-.048.15-.05m-1.35.6l-.05.05q.056-.053.15-.1.45-.3 1-.45.05-.05.1-.05v-.05h-.1q.05-.05.05-.1-.1-.35.05-.75-.1.05-.15.15-.75.6-1.05 1.3m3.7-.95h-.05q-.75-.3-1.15.15l-.1.1-.05.05q1.1-.15 2.4.1-.25-.1-.45-.2-.4-.15-.6-.2m.7 1.9q-.15 0-.3.05-.45.05-.65.45l-.1.2q.45-.4 1.05-.7m3.35.35q-.35-.2-.65-.25.65.4 1.2.95-.15-.45-.55-.7m-41.7-6.2v14.8h19.9v-14.8h-19.9z"/><path fill="#00A05F" d="M345.55 404.85h-.4q-.1.4-.5.9l-.15.2-.05-.25q-.1-.4-.5-.9-.25-.3-.4-.45 0 .4-.15.95l-.15.35-.1-.35q-.2-.7-.8-1.05-.4-.2-.55-.35l-.1-.05q-.2.4-.15.7l.15.15.05.05.15.45v.05l-.4-.35q-.35-.4-.95-.55h-.05q-.55-.2-.85-.15.25 1.05 1.35 1.55l.45.2-.5.05h-.05q-.7 0-1.2.5 1.05.5 1.7.25h.05l.45-.2.05.05-.35.35q-.4.4-.55.8.25.05.7.1.5-.05.8-.15l.5-.25.05.05-.35.35q-.25.2-.25.55.45.05.8-.1l.05-.05.45-.2-.3.4q-.35.4-.4 1.35-.15.65-.05 1.05.8-.6 1.4-1.65l.1-.15.1.15q.35.45.8.55-.15-.45.1-1.1.2-.65.05-.95-.35-.6-.95-1.1l-.1-.05.05-.1q.25-.35.45-.6h-.15v-.15q-.05-.5.65-.85M373 382.4v.05l.05-.05H373m5.35-3.4q-.25.3-.4.8l-.15.4-.1-.4q-.15-.4-.4-.65 0 .35-.05.95l-.1.4-.15-.4q-.1-.2-.35-.35.2.3.4.8 0 .05.05.05l.15.45-.4-.3q-.05-.05-.2-.1.1.3.35.85l.15.5-.15.05-.25-.4v-.05q-.15-.35-.2-.55-.7-1.05-.95-1.45v.3q.05.2.05.55v.5h-.05l-.2-.45v-.05q-.4-.75-.9-1.25V380.4h-.05l-.2-.45q-.2-.5-.65-.85l.15.6v.05l.1.45-.15.05-.2-.45q-.2-.5-.8-.95 0 .25-.05.7l-.1.3-.15-.3q-.25-.45-.9-.75.15.45.1 1l-.05.25-.2-.2q-.3-.35-.75-.5v-.05q-.15-.05-.25-.1.2.2.4.6l.15.25-.25-.05q-.35-.1-1 .2-.4.2-.6.45.3-.1.8-.1l.3-.05-.2.25q-.25.25-.4 1-.1.35-.1.7.15-.25.4-.55.55-.7 1.15-.9l.45-.15-.3.35q-.35.4-.35 1.1.25-.35.85-.7l.35-.2-.2.35v.05q-.15.35-.1.8.45-.75 1.35-1.4l.35-.3.05.05-.25.4v.05q-.1.05-.2.15-.15.4-.05.75.05-.1.1-.15.45-.65 1-.85l.3-.15-.15.35q-.1.15 0 .45.5-.45 1.35-.15.5.1 1.65.65l.45.2-.05.15-.45-.1h-.05q-.3-.15-.55-.25-1.3-.25-2.4-.1l-.1.1-.05-.1q-.5.05-.9.2l-.1.2h-.05q-.5.15-.9.4-1.6 1-1.45 2.75.3-.6.8-1.15l.2-.2.05.25q.05.65.25.95.05-.55.45-1.45l.15-.35.1.4q.05.35.15.6.1-.55.4-1l.25-.4h.05l-.05.5q-.1.3.1.75.15-.55.6-1.15l.3-.4-.05.5q-.05.1 0 .6.2-.45.6-.85l.2-.25.1.8q.25-.25.6-.3.5-.15.8.05l.2.1-.25.15q-1.8.8-2.7 2.4-.75 1.45-.6 3.15.1-.3.3-.6l.15-.2.25.6q.1-.5.45-1.35l.15-.45.1.5q.05.5.35.85 0-.3.15-.75.2-.95.2-1.7l-.05-.55h.25l.05.5q0 .5.25 1.15.35-.65.45-1.9l.05-.5h.2v.5q-.05.45.2 1 .05-.2.15-.45v-.15q.1-.5.15-.95v-.5l-.05-.25v-.05l.05.05.2.3q.25.3.35.75 0-.25.05-.6v-.45l.2.4q.15.25.2.55v.05h.25l.05-.1.05.1q.6 0 .75.5l.05-.2.15.5q.15.6-.05 1.6.25-.25.45-.6l.25-.4v.45q0 .55-.2 1.8.3-.35.5-.85l.2-.45.1.05-.05.5q-.1.6-.2 1 .15-.2.35-.45l.25-.3v1.25q.45-.7.35-2.3-.1-.95-1.05-1.95-.85-.95-1.95-1.45l-.3-.2.35-.05q.65-.2 1.3.25.45.3.65.8l.25-.5.05-.05h.1q.5 0 .6.95.2-.3.05-.9l-.1-.4.3.25q.6.5.7 1.25l.25-.5.05-.2.15.2q.3.3.25 1.15.05-.15.15-.35.05-.35.05-.65l-.05-.5.25.4.05.05q.15.3.4 1.4.3-1.4-.4-2.4-.85-1.15-3.1-1.65l-.3-.1.25-.15q.35-.25 1.1-.25-.15-.15-.45-.25l-.25-.15.25-.1q.65-.3 1.95.35-.15-.25-.4-.35 0-.05-.05-.05l-.4-.2h.45q.95-.05 1.75.6-.1-.2-.2-.3l-.35-.3.45.1q.6.05 1.35.6-.15-.6-.5-.85l-.2-.15.2-.05q.35-.15 1.25-.05-.55-.6-1.2-.5h-.3l.15-.2q.2-.3.55-.45-.75-.15-1.25.2l-.35.25.15-.4q.1-.3.55-.65-.9 0-1.6.55l-.25.2.05-.3q0-.3.25-.6-.45.1-.9.5l-.4.3.2-.45q0-.05.05-.05 0-.1.05-.25-.4.35-1.4.9-1.45.8-2 1.5l-.3.35.1-.45q.15-.8.65-1.4-.3.05-.5.2l-.1-.1-.1.05q-.1-.5 0-1z"/><path fill="#373535" d="M356.9 403.85q-.05-.35-.2-.3-.15-.05-.35.2-1.05 1.3-3.3 1.65.2-.3.35-.65.15-.4.05-.5-.05-.05-.15-.05.3-.4.35-.65.05-.45-.1-.5-.15-.2-.45.1v.05q-.35.4-2.2 1-1.1.3-1.2 1.2-.1.7.55 1.2.45.45.45.8l-.6-.45h-.05q-.5-.3-.55-.75-.3-1.05-.8-1.4.35-.25.45-.9l.05-.3-.25.15q-.4.3-1.5-.05-.75-.25-1.2.1-.45.3-.5.75-.25 0-.7.05h-.1v.1q-.1.3-.35.7-.15-.35-.45-.75-.45-.55-.75-.7l-.25-.15.1.3q.05.3 0 .75-.25-.5-.75-.8l-.6-.35-.25-.05v.05q-.05.05.05.15l.1.05q.15.15.55.35.6.35.8 1.05l.1.35.15-.35q.15-.55.15-.95.15.15.4.45.4.5.5.9l.05.25.15-.2q.4-.5.5-.9h.4q-.7.35-.65.85v.15h.15q-.2.25-.45.6l-.05.1.1.05q.6.5.95 1.1.15.3-.05.95-.25.65-.1 1.1-.45-.1-.8-.55l-.1-.15-.1.15q-.6 1.05-1.4 1.65-.1-.4.05-1.05.05-.95.4-1.35l.3-.4-.45.2-.05.05q-.35.15-.8.1 0-.35.25-.55l.35-.35-.05-.05-.5.25q-.3.1-.8.15-.45-.05-.7-.1.15-.4.55-.8l.35-.35-.05-.05-.45.2h-.05q-.65.25-1.7-.25.5-.5 1.2-.5h.05l.5-.05-.45-.2q-1.1-.5-1.35-1.55.3-.05.85.15h.05q.6.15.95.55l.4.35v-.05l-.15-.45-.05-.05-.15-.15q-.1-.05-.15-.1-.35-.25-.8-.35-.75-.3-1.15-.1l-.1.05.05.1q.15 1.05 1.1 1.65-.65.1-1.15.6l-.1.15.15.05q1 .55 1.7.5-.25.35-.35.75l-.05.1.1.05q.3.1.95.1.35-.05.6-.1-.15.2-.1.5v.1l.1.05q.4.05.75-.05-.2.45-.25 1.15-.2.85 0 1.35l.05.15.15-.1q.9-.6 1.55-1.7.45.55 1.05.6h.2l-.1-.2q-.2-.4.05-1.1.25-.75 0-1.15-.35-.65-.9-1.1.3-.4.55-.7.05-.05.2-.1.15.05.65.05.6.4.7 1.2 0 .45-.15 1.7-.3 1.45.45 2.75-.7.1-.7.95v.3l.2-.2q.05-.1.25-.1 0 .25.15.55l.1.3.15-.3q0-.2.3-.35.05.3.2.6l.15.2.1-.25q.1-.35.35-.55.25.2.55.35-.45.5-.3 1l.05.35.15-.35q.1-.15.15-.15.05.05.15.4l.05.25.15-.2q.25-.4.4-.35.05.05.1.35v.55h.05l.2-.45q.1-.4.45-.5.4-.1 1 .2 1.7.55 2.15 2.15.2.8 1.1.65.15.1.25.15.15 0 .25-.1l.2-.2q.4.25.75-.05.2-.2.2-.45.45-.35.4-.6-.05-.3-.6-.45-.75-.35-1.2-.8v-.05q-.75-.7-1.3-2.25-.5-1.3-.85-1.7.35-.2.45-.55.45-.1.6-.45v.05q.15-.2.1-.3 0-.1-.05-.1.35-.2.8-.65.2-.2.2-.3 0-.1-.05-.15.5-.5.8-.9.25-.35.15-.45 0-.1-.05-.1.65-.7.5-.95h.05q-.05-.15-.3-.15h-.1q.75-1.05.75-1.45m-.25-.05v.1q0 .35-.9 1.55l-.2.3.35-.1q.2-.1.35-.1h.05q.05.15-.7.85l-.35.35.45-.1q0-.05.05-.05l.1-.05q-.05.05-.15.25-.35.45-.9 1l-.25.25h.3q-.05.002-.05.05h-.05q-.65.65-1.1.75l-.5.05v.05l.75.25q-.15.25-.5.3h-.1v.1q-.1.35-.55.55l-.15.1.15.1q.35.3.9 1.75.6 1.6 1.35 2.35h.05q.45.5 1.25.9.4.1.45.25-.05.15-.35.4l-.05.05v.1q0 .1-.15.25h.05q-.25.2-.55 0l-.1-.05-.35.35-.15-.15h-.1q-.75.15-.9-.45-.5-1.75-2.3-2.35-.75-.3-1.15-.2-.3.05-.5.3-.05-.2-.2-.25-.25-.1-.5.25-.1-.3-.2-.3-.1-.1-.2-.05.05-.25.35-.55l.15-.15-.2-.05q-.35-.15-.65-.45l-.05-.05-.1.05q-.35.15-.5.45-.1-.2-.05-.4v-.2l-.2.1q-.3.15-.45.3-.05-.15 0-.3v-.15h-.15q-.2-.05-.35 0 .1-.45.65-.45h.25l-.15-.2q-.8-1.3-.5-2.75.2-1.3.15-1.8-.15-.95-.85-1.4h-.1q-.5-.05-.6-.05h-.15q-.15.05-.25.1h-.15q.1-.25.45-.45.15-.1.3-.15l.1-.05v-.1q-.05-.15 0-.25.05-.35.4-.55.4-.25 1-.05h-.05q1 .3 1.5.15-.15.45-.45.6l-.35.1.35.15q.55.15.85 1.3.1.6.7.9l.8.55.1.1.1-.15q.2-.55-.55-1.25-.5-.4-.45-.95v-.05q.1-.7 1-.95 2-.65 2.35-1.1.098-.098.1-.15v.3q-.1.35-.75 1l-.3.35.05.1.45-.25h.05l.25-.15q0-.05.05-.05-.05.05-.05.15-.2.5-.5.8l-.3.3.4-.05q2.65-.35 3.8-1.8.05-.1.1-.1m-9.85.95q.15-.05.1-.2-.05-.15-.2-.1-.15.1-.1.2.05.15.2.1M387.4 361h-49.8v41.3l.25.6v-.45h19.9v21.15q-3.55-1.75-6.6-3.75-3.2-2.1-5.8-4.45l-1.3-1.2-.3-.3q-1.1-1.1-1.95-2.2l.35.9q.65.75 1.4 1.5 1.3 1.3 2.85 2.55l3.95 2.95 6.45 3.8q.55.3 1.2.6 2.1 1.05 4.45 2.05h.1q4.5-1.9 8.3-4.05l2.8-2-.5.3-5.9 3.3v-21.15h19.9l-4.55 10q-.65.7-1.4 1.45-1.706 1.75-3.85 3.4l2.5-1.7q.8-.75 1.55-1.5 6-6 6-11.8V361m-35.6.75v-.05h-.05q-.25-.15-.35 0-.1.1 0 .4.15.8-.1 1.85-.35-.1-.6.15h-.05q-.3.35-.3.65 0 .2.25.45l-.35.35q-.25 0-.75.2-.35.15-.6-.1l-.2-.2v.3q0 .6.45.9-.25.05-.5.2-.3.15-.65.15-.9-.25-2.2-.95h.05q-.65-.4-1.35-.55-.9-.2-1.3.1-.5.35-1.05.75-.3.1-.5.1-.6-.2-.8-.15-.3-.05-.75.3-.95.7-.5 1.55.1.35.4.4.3.3.55.3h.25l-.3-.45.05-.05q.05.05.15.1 0 .4.45.6l.35.1-.2-.3q-.1-.2 0-.4l.05-.05q.15.1.35.05.05.15 0 .3l-.1.3.25-.1q.25-.1.45-.5.25 0 .5-.15.25-.25.2-.65-.15-.5.1-.7h.05q.1-.05.7.05.55.05.85.25.1.05 1.05.8.4.3.7.5-.6.25-1.2.2l-.3-.05.15.25q.75 1 1.95 1-.6.45-1.2.5h-.3l.2.2q.8.8 1.85.6-.25.3-.4.75-.5 1.05-1 1.3l-.2.1.2.1q.45.25 1.1.2-1.05.8-1.5 1-1.3.3-1.6.05-.55-.3-.75-.5.15-.35.05-.65v.05q-.15-.4-.5-.5-.15-.9-.65-.85h-.15l.05.15q.1.25 0 .6-.3.1-.35.3v.05q-.2-.15-.4-.2v-.2q-.05-.2 0-.25l.2-.3-.35.1h-.05q-.15.05-.3.3v-.05q-.15.2-.2.35-.05-.1-.1-.15-.1-.1-.15-.1-.1-.35-.05-.5l.15-.4-.3.25q-.4.25-.35.8-.4.35-.2.9-.15-.05-.3 0-.15-.1-.2-.3l-.1-.25-.15.25q-.2.35.05.65-.05.2.2.55.25.35.85.5.2.05.7 0 .1-.05.35.2.35.35 1.2.35.55-.05 1.1.2 1.3.55 2.15.45h.05q.55-.1 1.2-.55l1.6-1.05v.65l.25-.45q.05-.2.95-.75.6-.35.85-.8.05.2.15.35v.05q.15.2.65.85l.25.3v-.4q-.05-.35.35-.9v-.05q.25-.4.4-.65.2.4.95.85 1.15.7 1.35 1.05l.2.3.05-.3v-.6q2.55.8 8.85-2.5 6.35-3.35 7.3-2.85.75.45.9.95-.3.3-1.1.35-1.05.05-1.25.8v-.05q-.1.2-.35.45-.25.25-.4.35l-.45.15.45.1q.6.15 1.05-.1-.5 1.25.75 2.25-.85.45-1.65.45-.9 0-1.35-.6-.5-.65-1.15-.75-.65-.15-.9.2-.65.15-.75.25l-.2.25h.15q-.2.1-.25.35-.65.25-.65.8l-.05.35.25-.25q.2-.2.5-.3.1.3.25.45l-.05.25q-.6.25-.55 1v.45l.2-.35q.25-.45.7-.45.4.35.8.35t.8-.4q.5-.5.95-.25 1 .3 2.5 0 1.7-.45 3.1-1.65l.1-.1-.1-.1q-.95-.7-.75-1.4.05-.6.7-.8 1.15-.5 1.5-.95.6.6.6 1.4v.3l.2-.2q.55-.55.65-1.05.4.5 1.15.65.85.1.9.15l.2.15.05-.15v-.55q1.05.6 2.6.4 1.55-.3 1.85-.2.85.5 1.2 1.1.45.85.1 1.35v-.05q-.25.25-.7.3-.3-.05-.45.1-.2-.35-.6-.35-.45-.05-.7.25-.3-.4-.65-.4h-.05q-.4-.05-.7.4-.25.25-.2.7v.05q0 .4.3.6-.25.3-.1.65.05.4.5.6l.25.15-.05-.25q-.15-.65.15-.8.1.05.25.1-.2.8.7 1.25l.15.05H367v15.3h20.15v9.05H367v21.55q-2.15 1.05-4.5 2-2.35-1-4.5-2V402.2h-20.15v-9.05H358v-15.3h-20.15v-16.6h49.3v16.6h-4.7l-.05-.2q-.15-.7.05-1 .1.05.25.1h.2q0 .3.25.6.35.35.75.45l.4.05-.3-.3q-.15-.1-.15-.45-.05-.3 0-.5.25.1.5 0 .2-.2.35-.7.1-.4 1-.9h-.05q.9-.5 1-1.25 0-.15-.55-.75-.6-.65-.9-2.05-.3-1.1-1.5-1.1-.5-.05-2.45.5-2.05.4-3.15-.7-.95-1-1.35-1.4 1.35.15 2.4-.9.4-.35 1.3-1.85v-.05q.35-.6 1.1-.25h.05q.75.2.85.85l.05.3.15-.25q.6-1-.25-1.8-.8-.6-1.6-.25 0-.15-.1-.3-.15-.35-.5-.5-.2-.1-.2-.3-.05-.3.15-.7l.15-.2-.25.05q-.75.1-.9.6-.15.3-.05.8-2.05-1.55-6.7-.1-5.5 1.65-7.8.65-.15-.8-.95-.95-.85-.2-2.4.3-1.4.4-2.05.2-.55-.25-.4-1l.05-.35-.25.2q-.95.85-.45 1.7.35.55 1.1.9-.65.55-.35 1.2.2.65 1.05 1l.35.1-.2-.3q-.35-.65-.1-1.2.3-.55 1.15-.35 2 .35 2.45.35.4-.05.6-.25.15-.15.2-.4 2.9.7 8.1-.75 4.4-1.3 5.75-.3.7.55.8 1.1.05.55-.5 1.2-1 1.15-2.8.9-2.85-1.95-8.25.15-6.2 2.35-9.95 1.8.25-.25.3-.5v-.2l-.15.05q-1.3.1-2.3-.35-.95-.5-1.3-1.35.25-.15.4-.55.05-.4-.15-.6v-.05q.75-.65 1.6-.85.3-.15.35-.25.05-.2-.25-.3h.05q-.25-.15-.7.05-.05-.2-.15-.3-.3-.2-.5-.05-.25.15-.25.35v.15q-.15-.05-.3-.2-.2-.2-.25-.5.1.05.25.05.3-.05.4-.3.05-.35-.1-.45-.05-.1-.1-.1.05-.1.1-.15.05-.3-.25-.45h.05q-.3-.25-.55 0-.05.05-.1.15-.05-.05-.1-.05-.2-.1-.45.15h.05q-.25.15-.1.5.05.1.15.2-.3.05-.55 0-.25-.1-.35-.2.05-.05.15-.1l-.05.05q.2-.1.25-.3v-.05q.05-.25-.25-.4h.05q-.2-.15-.4-.05-.05-.25-.25-.6m-.2.15h.05q.2.4.2.6v.25l.2-.15q.1-.1.25 0 .1.05.1.2l-.1.1q-.1.05-.2.05l-.25-.05.1.2q.15.4.6.55.5.15 1-.2l.1-.05.15-.1-.05.05v.25q-.15.55.25.95.3.3.75.3h.3l-.2-.25q-.1-.1-.1-.15 0-.1.15-.2.05-.05.2.05.05.05.05.25l-.05.25.2-.15q.4-.2.65-.1v.05h.05q-.053.002-.15.05-.9.2-1.7.95-.15.1-.25.2v.05h-.05q-.1-.2-.25-.3-.35-.35-.8-.65-.45-.3-.9-.45-.2-.05-.4-.05h-.05l.05-.05q0-.15.05-.3.25-1.1.1-2l-.05-.15m-1 2.85q0-.2.25-.45.2-.15.4-.1v.1q-.05.15 0 .2.05.1.2.15.65.05 1.2.45.6.4 1 .9.1.1.25.1.1 0 .2-.1l.05-.05q.1.15.1.4-.1.25-.25.35-.15.1-.35.05h-.15l-.15-.05v.15q-.25 1.05-1.05 1.45-.75.25-1 .75-.15.2-.4.25-.15-.05-.25-.1.05-.1.1-.15.3-.3.65-1.05v-.05l-.05-.05q-.1-.25.15-.55v-.05l.3-.45-.2-.1-.3.4v.05q-.25.3-.5.4h-.05l-.05.05q-.55.55-.7.95-.05.1-.05.15-.1-.05-.2-.15-.1-.2.05-.4.35-.55.25-1.3-.1-.55.3-1.05.05-.15.2-.25.1-.15.3-.3l.1-.1-.1-.1q-.25-.2-.25-.35m3.35-2.1q.05-.05.2 0 .1.05.1.2-.05.1-.15.2h-.05l-.1.1-.05-.25v-.05q-.05-.1.05-.2m-.65.25q.1-.1.2-.1.05 0 .15.15l.1.3h-.3q-.15-.05-.2-.15h.05q-.1-.15 0-.2m.55.5l.3-.1q.1-.05.2 0v.25q-.05.1-.15.1-.2 0-.25-.1l-.1-.15m-6.3 3.75q.05.3.2.5-.5.5-1 .75-.35-.15-.85-.55-1-.75-1.1-.8h.05q-.35-.2-.95-.3-.75-.15-.9 0-.45.2-.25.95 0 .25-.15.4h.05q-.2.1-.4.1l-.1-.05-.05.1q-.1.15-.15.25-.05-.15-.15-.3l-.05-.15-.15.1q-.05.05-.1 0l-.05-.05-.3.15h-.05v.05q-.1.15-.1.3-.05-.1-.05-.25l-.15-.1q0-.05-.15-.2l-.1-.05-.1.05q-.15.15-.15.2l-.1.1q-.05 0-.05-.05h-.1q-.15-.05-.2-.25h-.05q-.35-.65.45-1.25.4-.25.6-.25.2 0 .75.15.25.05.65-.1v-.05h.05q.5-.4 1.05-.75.35-.2 1.1-.05.65.1 1.25.5 1.05.6 1.85.85v.05m.4.35q-.1-.1-.1-.25h.15q.4 0 .75-.2.5-.25.75-.25l.3-.05q-.05.1 0 .2.05.6-.2 1.1-.25.35-.05.7.15.2.4.3.05.1.2.2.1.1.3.05.2.25.45.25.35 0 .6-.35v-.05q.25-.4.9-.6.85-.45 1.15-1.55h.1q0 1.45.8 2.45-.5 0-.75-.35l-.15-.2-.05.25q-.2.65-.05 1.25 0 .15.05.35-.25-.2-.6-.35-.45-.25-.5-.45l-.25-.4v.5l-.2.8v-.05q-.2.5-.15.9-1.05-.4-1-1.6l-.05-.45-.2.4v.05q-.25.45-.75.75-.45.25-.9.25.1-.25.1-.65 0-.65.2-.9l.2-.35-.35.15q-.05 0-.05.05-.35.1-.85-.1-.35-.15-.5-.3.2-.1.55-.35.45-.45.7-.6h.05V368l.45-.2-.05-.15-.5.15q-.4.1-.65-.05-.05-.05-.1-.05-.1-.1-.15-.2m.1.45q.15.1.4.15-.2.15-.4.35-.4.35-.65.3l-.25-.05.1.2q.15.4.8.65.45.15.85.1-.15.3-.15.8-.05.5-.2.65l-.25.2.3.05q.7.1 1.35-.3.35-.25.6-.55.15 1.15 1.4 1.5l.2.05-.05-.2q-.1-.4.1-.95.1-.35.15-.6.15.15.45.3v.05q.55.2.7.45l.15.3.1-.3q.05-.25-.05-.75-.1-.45 0-.9.35.3 1.05.25l.2-.05-.15-.15q-.9-1-.9-2.4.4.9 1.4 1.4v.05q1 .45 2.2.35-.1.15-.25.3-.1.05-.15.1-.1.05-.15.1-.3.2-.6.25h-.05l-.5.05v.1l.5.1q.65.1 1.3.75.55.5 1.15.5-.5.55-1.2.7-.8.05-1.5-.25H356l-.45-.2-.1.2.45.25q.9.4 1.75 1.7-.75.1-1.5.05h-.05q-1.05-.1-1.4-.5l-.25-.3.05.4q.05.45.1.85v.3q0 .2.05.35-.35-.35-1.2-.9-.95-.55-.95-1v-.05l-.05-.5h-.05l-.15.5q-.05.15-.5.95-.3.4-.4.75-.35-.45-.45-.6h.05q-.2-.4-.15-.9v-.5l-.2-.05-.05.5q-.15.8-1 1.3-.2.1-.3.2-.25.15-.4.3l-.1.1v-.05-.3q0-1.1.15-1.45v-.15l.05-.15-.25.15q-.55.35-1 .5-.7.2-1.15.05.45-.35.9-1.3.3-.8.7-1.05l.05-.05.4-.25-.1-.15-.45.2q-1.05.45-1.85-.15.65-.1 1.3-.75l.25-.25-.35.05q-1.15.15-1.9-.7.6 0 1.25-.3.15-.05.3-.15.45-.3.9-.7l.1.1m1.75-1.35l-.25-.05q-.5-.15-.6-.5.3.1.65-.05.25-.1.45-.15-.25.35-.25.75m1.1 1.25l.2-.1q0 .1.05.2-.35.65-.55.95-.1.05-.1.1-.15.1-.2.05-.1-.1-.1-.2t.05-.15q.15-.35.65-.85m8.85-2.85l-.2-.1q-.8-.35-1.2-.9-.3-.55.15-1.1 0 .7.6.9.65.25 2.2-.15 1.5-.5 2.3-.35.7.15.75.85v.1l.05.05q2.35 1.05 8.05-.65 4.85-1.5 6.8.25 0 .05.05.05l.35.3-.15-.45q-.3-.65-.1-1 .1-.3.45-.4-.15.3-.1.55 0 .35.35.55v-.05q.25.15.4.4.1.2-.05.35l-.3.4.05.05.45-.25h.05q.75-.5 1.55.1.55.5.35 1.15-.25-.5-.95-.7-.95-.4-1.4.4-.9 1.45-1.25 1.8h-.05q-1.1 1.1-2.55.8l-.5-.1v.05l.4.25.05.05q.15.15 1.55 1.6 1.2 1.25 3.4.8 1.9-.5 2.4-.5 1-.05 1.25.9.35 1.45.95 2.15.45.45.5.6-.05.65-.85 1.05-1.05.6-1.1 1.05-.1.4-.25.5-.15.1-.35-.05l-.15-.05-.05.1q-.15.3-.05.8 0 .15.05.3-.15-.1-.3-.25-.25-.35-.15-.6l.05-.3-.3.15q-.05.05-.2.05-.2-.05-.25-.15l-.1-.05-.1.1q-.3.3-.2 1-.5-.35-.3-.9v-.15h-.15q-.2 0-.3-.15l-.05-.1-.1.05q-.45.15-.4.85-.15-.15-.15-.3-.1-.3.15-.55l.1-.1-.15-.1q-.3-.15-.3-.5t.15-.55q.2-.3.5-.3.35.05.6.5l.15.15.1-.2q.15-.35.5-.3.35 0 .5.4l.1.25.15-.25q.05-.15.35-.15.55 0 .9-.35.45-.55-.1-1.6-.35-.7-1.3-1.2-.3-.2-2 .15-1.6.2-2.65-.5l-.25-.15.05.3q.05.3.05.55-.3-.15-.85-.2-.8-.15-1.2-.8l-.05-.05-.25-.4.05.5q.05.45-.4 1-.1-.8-.75-1.4l-.1-.1-.1.15q-.2.45-1.45.95-.75.25-.85 1-.25.8.7 1.55-1.3 1.1-2.85 1.5-1.45.25-2.35 0-.65-.3-1.25.3-.3.35-.6.35-.35 0-.65-.3l-.05-.05h-.05q-.35-.05-.65.2.15-.25.4-.35l.1-.1.1-.4v-.1l-.05-.05q-.2-.15-.25-.45l-.05-.15-.1.05q-.2 0-.35.1.1-.15.35-.2l.1-.1q.05-.45.7-.35l.45.05-.35-.3-.2-.1q.1-.05.3-.05h.05v-.05q.2-.25.7-.15.6.05 1 .65.55.65 1.55.7.95.05 1.95-.6l.15-.05-.15-.15q-1.4-1-.65-2.4v-.05l.25-.4-.05-.05-.35.3q-.4.35-.9.35l.2-.2q.25-.25.4-.55.15-.6 1-.6 1.05-.1 1.3-.5l.05-.05v-.05q-.1-.6-1-1.15-1-.6-7.55 2.85-6.3 3.3-8.8 2.4-.05-.3-.05-.7.45.3 1.3.4.9.1 1.8-.05l.15-.05-.1-.15q-.6-1-1.2-1.5.4.05.85 0 1-.2 1.5-1l.2-.25-.3.05q-.65.1-1.2-.45-.5-.5-1-.7.2-.1.45-.25h.05q3.8.7 10.3-1.75 5.25-2.05 8.05-.2v.05h.05q1.95.3 3.05-1 .6-.7.5-1.35-.1-.7-.85-1.3-1.4-1.1-5.95.25-5.25 1.45-8.15.75l-.15-.05v.15q0 .25-.1.4-.15.1-.45.15-.45-.05-2.4-.35-1-.25-1.4.5-.25.5-.05 1.1-.5-.25-.6-.7-.25-.55.45-1.05l.15-.1m-16.95 8.35l.1.05q.25 0 .35.3.05.25-.05.55l-.05.1.05.05q.2.2.85.55.35.35 1.8 0 .6-.2 1.95-1.4.35-.1.8-.35-.1.5-.1 1.45l-1.75 1.15q-.6.45-1.1.5-.85.05-2.05-.45-.65-.3-1.2-.2-.75-.05-1-.3-.35-.35-.6-.25h-.6q-.45-.1-.7-.4-.2-.25-.15-.4l.05-.05v-.05l.05.05h.1q.2-.1.4 0l.35.25-.2-.4v-.05q-.25-.5.15-.85l.05-.05v-.05q-.05-.15-.05-.3l.1.3.2.05-.05.05q.05.05.15.2l.05.2.15-.2q.05-.05.1 0h.15v-.2q-.05-.1.1-.2l.05-.05v.1q0 .15.05.3v.05l.1.05q.3.05.5.3 0 .05.05.1l.25.45.15-.05-.15-.5q-.1-.2-.05-.3.05-.15.2-.15l.05-.05v-.05q.15-.3.15-.55.15.15.25.65v.05m-4.95 19.55v-14.8h19.9v14.8h-19.9m29.4 0v-14.8h19.9v14.8h-19.9m11.5-14.6l-.25.2q-.45.3-.7.9-.2-.4-.6-.65l-.35-.2.15.35q.1.2.05.8-.25-.25-.75-.35l-.45-.15h-.05l.4.35q.2.2.5.8-.15-.05-.25-.05l-.3-.1.05.05.1.25q.05.05.25.55.05.2.2.55v.05l.25.4.15-.05-.15-.5q-.25-.55-.35-.85.15.05.2.1l.4.3-.15-.45q-.05 0-.05-.05-.2-.5-.4-.8.25.15.35.35l.15.4.1-.4q.05-.6.05-.95.25.25.4.65l.1.4.15-.4q.15-.5.4-.8-.1.5 0 1l.1-.05.1.1q.2-.15.5-.2-.5.6-.65 1.4l-.1.45.3-.35q.55-.7 2-1.5 1-.55 1.4-.9-.05.15-.05.25-.05 0-.05.05l-.2.45.4-.3q.45-.4.9-.5-.25.3-.25.6l-.05.3.25-.2q.7-.55 1.6-.55-.45.35-.55.65l-.15.4.35-.25q.5-.35 1.25-.2-.35.15-.55.45l-.15.2h.3q.65-.1 1.2.5-.9-.1-1.25.05l-.2.05.2.15q.35.25.5.85-.75-.55-1.35-.6l-.45-.1.35.3q.1.1.2.3-.8-.65-1.75-.6h-.45l.4.2q.05 0 .05.05.25.1.4.35-1.3-.65-1.95-.35l-.25.1.25.15q.3.1.45.25-.75 0-1.1.25l-.25.15.3.1q2.25.5 3.1 1.65.7 1 .4 2.4-.25-1.1-.4-1.4l-.05-.05-.25-.4.05.5q0 .3-.05.65-.1.2-.15.35.05-.85-.25-1.15l-.15-.2-.05.2-.25.5q-.1-.75-.7-1.25l-.3-.25.1.4q.15.6-.05.9-.1-.95-.6-.95h-.1l-.05.05-.25.5q-.2-.5-.65-.8-.65-.45-1.3-.25l-.35.05.3.2q1.1.5 1.95 1.45.95 1 1.05 1.95.1 1.6-.35 2.3v-1.25l-.25.3q-.2.25-.35.45.1-.4.2-1l.05-.5-.1-.05-.2.45q-.2.5-.5.85.2-1.25.2-1.8v-.45l-.25.4q-.2.35-.45.6.2-1 .05-1.6l-.15-.5-.05.2q-.15-.5-.75-.5l-.05-.1-.05.1h-.25v-.05q-.05-.3-.2-.55l-.2-.4v.45q-.05.35-.05.6-.1-.45-.35-.75l-.2-.3-.05-.05v.05l.05.25v.5q-.05.45-.15.95v.15q-.1.25-.15.45-.25-.55-.2-1v-.5h-.2l-.05.5q-.1 1.25-.45 1.9-.25-.65-.25-1.15l-.05-.5h-.25l.05.55q0 .75-.2 1.7-.15.45-.15.75-.3-.35-.35-.85l-.1-.5-.15.45q-.35.85-.45 1.35l-.25-.6-.15.2q-.2.3-.3.6-.15-1.7.6-3.15.9-1.6 2.7-2.4l.25-.15-.2-.1q-.3-.2-.8-.05-.35.05-.6.3l-.1-.8-.2.25q-.4.4-.6.85-.05-.5 0-.6l.05-.5-.3.4q-.45.6-.6 1.15-.2-.45-.1-.75l.05-.5h-.05l-.25.4q-.3.45-.4 1-.1-.25-.15-.6l-.1-.4-.15.35q-.4.9-.45 1.45-.2-.3-.25-.95l-.05-.25-.2.2q-.5.55-.8 1.15-.15-1.75 1.45-2.75.4-.25.9-.4h.05l.1-.2v-.05l.1-.1q.3-.5.7-.75 0 .25.1.6v.1l.05.1.1-.1.05-.05.1-.1q.4-.45 1.15-.15h.05q.2.05.6.2.2.1.45.2t.55.25h.05l.45.1.05-.15-.45-.2q-1.15-.55-1.65-.65-.85-.3-1.35.15-.1-.3 0-.45l.15-.35-.3.15q-.55.2-1 .85-.05.05-.1.15 0 .05-.05.1h.25q-.099.002-.15.05-.05 0-.1.05-.55.15-1 .45-.094.047-.15.1l.05-.05q.3-.7 1.05-1.3.05-.1.15-.15.1-.1.2-.15v-.05l.25-.4-.05-.05-.35.3q-.9.65-1.35 1.4-.05-.45.1-.8v-.05l.2-.35-.35.2q-.6.35-.85.7 0-.7.35-1.1l.3-.35-.45.15q-.6.2-1.15.9-.25.3-.4.55 0-.35.1-.7.15-.75.4-1l.2-.25-.3.05q-.5 0-.8.1.2-.25.6-.45.65-.3 1-.2l.25.05-.15-.25q-.2-.4-.4-.6.1.05.25.1v.05q.45.15.75.5l.2.2.05-.25q.05-.55-.1-1 .65.3.9.75l.15.3.1-.3q.05-.45.05-.7.6.45.8.95l.2.45.15-.05-.1-.45v-.05l-.15-.6q.45.35.65.85l.2.45h.05v-.55-.65q.5.5.9 1.25v.05l.2.45h.05v-.5q0-.35-.05-.55v-.3q-.05-.15-.05-.25l-.05-.05-.35-.3.15.45q.05.15.05.5-.4-.7-.95-1.15l-.3-.2.1.35q0 .1.05.45-.3-.4-.75-.75l-.25-.2.1.65q-.3-.35-.75-.65l-.35-.2.15.35q.1.2.05.6-.35-.5-1.15-.75l-.3-.15.15.35q.2.35.2.85-.25-.25-.65-.4-.5-.25-.8-.2h-.05l-.45.05.45.2q.25.05.55.55-.35.05-.85.3-.7.35-.95.85v.05l-.2.45.4-.3q.15-.15.8-.25-.2.35-.3.9-.2.75-.05 1.3l.05.45.2-.45q.1-.45.55-.95.3-.4.65-.6-.25.5-.15 1.25v.05l.05.5.2-.45q.15-.4.7-.8-.1.4.05 1l.05.15q-1.6 1.15-1.2 3.2l.05.4.2-.4q.25-.65.8-1.25.15.85.5 1l.2.15V386q0-.4.3-1.2.1.4.3.65l.25.25v-.35q-.05-.45.15-.8.05.3.25.75l.15.4.1-.4q.05-.6.45-1.2 0 .3.1.75l.05.45.2-.45q.15-.5.5-.95l.15.8q-.9.7-1.4 1.65-.95 1.75-.6 3.8l.05.45h.05l.15-.45q.05-.35.35-.8l.45.9.05-.4q0-.4.35-1.25.15.4.45.75l.2.2.05-.3q0-.1.2-1 .1-.4.15-.75.05.2.15.4l.1.2.1-.15q.35-.5.55-1.4.05.25.25.55v.05l.2.45.05-.5q0-.05.05-.25.2 3-.9 5.2l-.1.25.25-.05q.55-.1.9-.35.1.45.15.55l.1.2.55-.8q.3.45.95.55l.25.05-.15-.25q-.55-1-.65-3.7-.05-.75-.05-1.45h.05q.15 0 .25-.05v.15l-.05.35.25-.25q.2-.2.35-.45 0 .55-.15 1.35l-.1.3.3-.2q.25-.2.5-.55-.05.6-.2 1.65l-.05.3.25-.2q.25-.2.5-.5-.1.45-.25.75l-.15.35.3-.2q.2-.05.6-.6 0 .35.05.85v.3l.2-.2q.75-.6.6-2.7-.05-1.05-1.1-2.1-.05-.1-.1-.15.1-.1.4-.65.3.15.3.95v.25l.15-.15q.5-.25.45-.9.4.4.4 1.1v.25l.2-.15q.15-.1.4-.6.05.4 0 1.1l-.05.25.2-.15q.35-.15.55-.65v-.15q.15.45.35 1.35l.1.45.15-.45q.55-1.9-.35-3.1-.8-1.15-2.9-1.7.35-.15.9-.1h.2l-.1-.2q-.1-.2-.35-.4.65-.05 1.7.55l.3.15-.1-.25q-.15-.35-.35-.55.8.1 1.45.8l.35.3-.1-.4q-.05-.05-.05-.1-.1-.3-.15-.5.5.2 1.15.65l.25.2-.05-.3q-.1-.75-.45-1.1.4-.1 1.15.05l.3.05-.2-.25q-.55-.85-1.3-.85.2-.25.6-.3l-.05-.15.05-.1q-.75-.3-1.4-.05.15-.2.45-.4l.25-.2h-.3q-1-.15-1.8.35.1-.2.25-.4l.15-.2h-.25q-.45-.05-1.05.4v-.35l-.1-.3-.15.25q-.15.35-1.45 1.05-1.1.6-1.7 1.15.2-.6.7-1.1l.3-.3-.4.1q-.5.05-.85.25-.05-.5.15-1.1l.05-.35m.15 5.75q.3.05.65.25.4.25.55.7-.55-.55-1.2-.95m-.7 1.6h.2q.15 0 .3.05.3.1.3.5 0 .15-.05.3-.1.15-.25.25-.15.05-.3.05h-.05q-.15-.05-.25-.1-.25-.1-.25-.4v-.1q0-.4.25-.5.05-.05.1-.05m-.6.5v.05q0 .65.5.8 0 .7.05 1.5.1 2.5.6 3.6-.45-.15-.65-.55l-.1-.15-.5.75q-.05-.2-.1-.5l-.05-.25-.2.15q-.25.25-.7.4 1.15-2.45.8-5.85l.1-.8q.05.25.1.65v.35l.15-.15m-1.7-2.15q.15-.05.3-.05-.6.3-1.05.7l.1-.2q.2-.4.65-.45z"/><path fill="#B3423A" d="M377.6 386.2v-.05l-.15.15v-.35q-.05-.4-.1-.65l-.1.8q.35 3.4-.8 5.85.45-.15.7-.4l.2-.15.05.25q.05.3.1.5l.5-.75.1.15q.2.4.65.55-.5-1.1-.6-3.6-.05-.8-.05-1.5-.5-.15-.5-.8m.8-.55h-.2q-.05 0-.1.05-.25.1-.25.5v.1q0 .3.25.4.1.05.25.1h.05q.15 0 .3-.05.15-.1.25-.25.05-.15.05-.3 0-.4-.3-.5-.15-.05-.3-.05z"/><path fill="#FFE25C" d="M342.9 373.4l-.1-.05v-.05q-.1-.5-.25-.65 0 .25-.15.55v.05l-.05.05q-.15 0-.2.15-.05.1.05.3l.15.5-.15.05-.25-.45q-.05-.05-.05-.1-.2-.25-.5-.3l-.1-.05v-.05q-.05-.15-.05-.3v-.1l-.05.05q-.15.1-.1.2v.2h-.15q-.05-.05-.1 0l-.15.2-.05-.2q-.1-.15-.15-.2l.05-.05-.2-.05-.1-.3q0 .15.05.3v.05l-.05.05q-.4.35-.15.85v.05l.2.4-.35-.25q-.2-.1-.4 0h-.1l-.05-.05v.05l-.05.05q-.05.15.15.4.25.3.7.4h.6q.25-.1.6.25.25.25 1 .3.55-.1 1.2.2 1.2.5 2.05.45.5-.05 1.1-.5l1.75-1.15q0-.95.1-1.45-.45.25-.8.35-1.35 1.2-1.95 1.4-1.45.35-1.8 0-.65-.35-.85-.55l-.05-.05.05-.1q.1-.3.05-.55-.1-.3-.35-.3m16.65-8.5l.2.1-.15.1q-.7.5-.45 1.05.1.45.6.7-.2-.6.05-1.1.4-.75 1.4-.5 1.95.3 2.4.35.3-.05.45-.15.1-.15.1-.4v-.15l.15.05q2.9.7 8.15-.75 4.55-1.35 5.95-.25.75.6.85 1.3.1.65-.5 1.35-1.1 1.3-3.05 1h-.05v-.05q-2.8-1.85-8.05.2-6.5 2.45-10.3 1.75h-.05q-.25.15-.45.25.5.2 1 .7.55.55 1.2.45l.3-.05-.2.25q-.5.8-1.5 1-.45.05-.85 0 .6.5 1.2 1.5l.1.15-.15.05q-.9.15-1.8.05-.85-.1-1.3-.4 0 .4.05.7 2.5.9 8.8-2.4 6.55-3.45 7.55-2.85.9.55 1 1.15v.05l-.05.05q-.25.4-1.3.5-.85 0-1 .6-.15.3-.4.55l-.2.2q.5 0 .9-.35l.35-.3.05.05-.25.4v.05q-.75 1.4.65 2.4l.15.15-.15.05q-1 .65-1.95.6-1-.05-1.55-.7-.4-.6-1-.65-.5-.1-.7.15v.05h-.05q-.2 0-.3.05l.2.1.35.3-.45-.05q-.65-.1-.7.35l-.1.1q-.25.05-.35.2.15-.1.35-.1l.1-.05.05.15q.05.3.25.45l.05.05v.1l-.1.4-.1.1q-.25.1-.4.35.3-.25.65-.2h.05l.05.05q.3.3.65.3.3 0 .6-.35.6-.6 1.25-.3.9.25 2.35 0 1.55-.4 2.85-1.5-.95-.75-.7-1.55.1-.75.85-1 1.25-.5 1.45-.95l.1-.15.1.1q.65.6.75 1.4.45-.55.4-1l-.05-.5.25.4.05.05q.4.65 1.2.8.55.05.85.2 0-.25-.05-.55l-.05-.3.25.15q1.05.7 2.65.5 1.7-.35 2-.15.95.5 1.3 1.2.55 1.05.1 1.6-.35.35-.9.35-.3 0-.35.15l-.15.25-.1-.25q-.15-.4-.5-.4-.35-.05-.5.3l-.1.2-.15-.15q-.25-.45-.6-.5-.3 0-.5.3-.15.2-.15.55 0 .35.3.5l.15.1-.1.1q-.25.25-.15.55 0 .15.15.3-.05-.7.4-.85l.1-.05.05.1q.1.15.3.15h.15v.15q-.2.55.3.9-.1-.7.2-1l.1-.1.1.05q.05.1.25.15.15 0 .2-.05l.3-.15-.05.3q-.1.25.15.6.15.15.3.25-.05-.15-.05-.3-.1-.5.05-.8l.05-.1.15.05q.2.15.35.05.15-.1.25-.5.05-.45 1.1-1.05.8-.4.85-1.05-.05-.15-.5-.6-.6-.7-.95-2.15-.25-.95-1.25-.9-.5 0-2.4.5-2.2.45-3.4-.8-1.4-1.45-1.55-1.6l-.05-.05-.4-.25v-.05l.5.1q1.45.3 2.55-.8h.05q.35-.35 1.25-1.8.45-.8 1.4-.4.7.2.95.7.2-.65-.35-1.15-.8-.6-1.55-.1h-.05l-.45.25-.05-.05.3-.4q.15-.15.05-.35-.15-.25-.4-.4v.05q-.35-.2-.35-.55-.05-.25.1-.55-.35.1-.45.4-.2.35.1 1l.15.45-.35-.3q-.05 0-.05-.05-1.95-1.75-6.8-.25-5.7 1.7-8.05.65l-.05-.05v-.1q-.05-.7-.75-.85-.8-.15-2.3.35-1.55.4-2.2.15-.6-.2-.6-.9-.45.55-.15 1.1.4.55 1.2.9m-8.45 2.85l-.2.1q-.5.5-.65.85-.05.05-.05.15 0 .1.1.2.05.05.2-.05 0-.05.1-.1.2-.3.55-.95-.05-.1-.05-.2m-1.55-1.2l.25.05q0-.4.25-.75-.2.05-.45.15-.35.15-.65.05.1.35.6.5m-1.1 1.55q-.25-.05-.4-.15l-.1-.1q-.45.4-.9.7-.15.1-.3.15-.65.3-1.25.3.75.85 1.9.7l.35-.05-.25.25q-.65.65-1.3.75.8.6 1.85.15l.45-.2.1.15-.4.25-.05.05q-.4.25-.7 1.05-.45.95-.9 1.3.45.15 1.15-.05.45-.15 1-.5l.25-.15-.05.15v.15q-.15.35-.15 1.45v.35l.1-.1q.15-.15.4-.3.1-.1.3-.2.85-.5 1-1.3l.05-.5.2.05v.5q-.05.5.15.9h-.05q.1.15.45.6.1-.35.4-.75.45-.8.5-.95l.15-.5h.05l.05.5v.05q0 .45.95 1 .85.55 1.2.9-.05-.15-.05-.35v-.3q-.05-.4-.1-.85l-.05-.4.25.3q.35.4 1.4.5h.05q.75.05 1.5-.05-.85-1.3-1.75-1.7l-.45-.25.1-.2.45.2h.05q.7.3 1.5.25.7-.15 1.2-.7-.6 0-1.15-.5-.65-.65-1.3-.75l-.5-.1v-.1l.5-.05h.05q.3-.05.6-.25.05-.05.15-.1.05-.05.15-.1.15-.15.25-.3-1.2.1-2.2-.35v-.05q-1-.5-1.4-1.4 0 1.4.9 2.4l.15.15-.2.05q-.7.05-1.05-.25-.1.45 0 .9.1.5.05.75l-.1.3-.15-.3q-.15-.25-.7-.45v-.05q-.3-.15-.45-.3-.05.25-.15.6-.2.55-.1.95l.05.2-.2-.05q-1.25-.35-1.4-1.5-.25.3-.6.55-.65.4-1.35.3l-.3-.05.25-.2q.15-.15.2-.65 0-.5.15-.8-.4.05-.85-.1-.65-.25-.8-.65l-.1-.2.25.05q.25.05.65-.3.2-.2.4-.35m-.6-.85q0 .15.1.25.05.1.15.2.05 0 .1.05.25.15.65.05l.5-.15.05.15-.45.2v.05h-.05q-.25.15-.7.6-.35.25-.55.35.15.15.5.3.5.2.85.1 0-.05.05-.05l.35-.15-.2.35q-.2.25-.2.9 0 .4-.1.65.45 0 .9-.25.5-.3.75-.75v-.05l.2-.4.05.45q-.05 1.2 1 1.6-.05-.4.15-.9v.05l.2-.8v-.5l.25.4q.05.2.5.45.35.15.6.35-.05-.2-.05-.35-.15-.6.05-1.25l.05-.25.15.2q.25.35.75.35-.8-1-.8-2.45h-.1q-.3 1.1-1.15 1.55-.65.2-.9.6v.05q-.25.35-.6.35-.25 0-.45-.25-.2.05-.3-.05-.15-.1-.2-.2-.25-.1-.4-.3-.2-.35.05-.7.25-.5.2-1.1-.05-.1 0-.2l-.3.05q-.25 0-.75.25-.35.2-.75.2h-.15m-.1.4q-.15-.2-.2-.5v-.05q-.8-.25-1.85-.85-.6-.4-1.25-.5-.75-.15-1.1.05-.55.35-1.05.75h-.05v.05q-.4.15-.65.1-.55-.15-.75-.15-.2 0-.6.25-.8.6-.45 1.25h.05q.05.2.2.25h.1q0 .05.05.05l.1-.1q0-.05.15-.2l.1-.05.1.05q.15.15.15.2l.15.1q0 .15.05.25 0-.15.1-.3v-.05h.05l.3-.15.05.05q.05.05.1 0l.15-.1.05.15q.1.15.15.3.05-.1.15-.25l.05-.1.1.05q.2 0 .4-.1h-.05q.15-.15.15-.4-.2-.75.25-.95.15-.15.9 0 .6.1.95.3h-.05q.1.05 1.1.8.5.4.85.55.5-.25 1-.75m6.4-4.35l-.3.1.1.15q.05.1.25.1.1 0 .15-.1v-.25q-.1-.05-.2 0m-.65-.5q-.1 0-.2.1-.1.05 0 .2h-.05q.05.1.2.15h.3l-.1-.3q-.1-.15-.15-.15m.65-.15q-.15-.05-.2 0-.1.1-.05.2v.05l.05.25.1-.1h.05q.1-.1.15-.2 0-.15-.1-.2m-3.3 1.65q-.25.25-.25.45 0 .15.25.35l.1.1-.1.1q-.2.15-.3.3-.15.1-.2.25-.4.5-.3 1.05.1.75-.25 1.3-.15.2-.05.4.1.1.2.15 0-.05.05-.15.15-.4.7-.95l.05-.05h.05q.25-.1.5-.4v-.05l.3-.4.2.1-.3.45v.05q-.25.3-.15.55l.05.05v.05q-.35.75-.65 1.05-.05.05-.1.15.1.05.25.1.25-.05.4-.25.25-.5 1-.75.8-.4 1.05-1.45v-.15l.15.05h.15q.2.05.35-.05.15-.1.25-.35 0-.25-.1-.4l-.05.05q-.1.1-.2.1-.15 0-.25-.1-.4-.5-1-.9-.55-.4-1.2-.45-.15-.05-.2-.15-.05-.05 0-.2v-.1q-.2-.05-.4.1m.8-2.4h-.05l.05.15q.15.9-.1 2-.05.15-.05.3l-.05.05h.05q.2 0 .4.05.45.15.9.45.45.3.8.65.15.1.25.3h.05v-.05q.1-.1.25-.2.8-.75 1.7-.95.097-.048.15-.05h-.05v-.05q-.25-.1-.65.1l-.2.15.05-.25q0-.2-.05-.25-.15-.1-.2-.05-.15.1-.15.2 0 .05.1.15l.2.25h-.3q-.45 0-.75-.3-.4-.4-.25-.95v-.25l.05-.05-.15.1-.1.05q-.5.35-1 .2-.45-.15-.6-.55l-.1-.2.25.05q.1 0 .2-.05l.1-.1q0-.15-.1-.2-.15-.1-.25 0l-.2.15v-.25q0-.2-.2-.6z"/><path fill="#EE333E" d="M383.15 377.35q-.25-.3-.25-.6h-.2q-.15-.05-.25-.1-.2.3-.05 1l.05.2h1.85l-.4-.05q-.4-.1-.75-.45M351.8 361.7v.05q.2.35.25.6.2-.1.4.05h-.05q.3.15.25.4v.05q-.05.2-.25.3l.05-.05q-.1.05-.15.1.1.1.35.2.25.05.55 0-.1-.1-.15-.2-.15-.35.1-.5h-.05q.25-.25.45-.15.05 0 .1.05.05-.1.1-.15.25-.25.55 0h-.05q.3.15.25.45-.05.05-.1.15.05 0 .1.1.15.1.1.45-.1.25-.4.3-.15 0-.25-.05.05.3.25.5.15.15.3.2v-.15q0-.2.25-.35.2-.15.5.05.1.1.15.3.45-.2.7-.05h-.05q.3.1.25.3-.05.1-.35.25-.85.2-1.6.85v.05q.2.2.15.6-.15.4-.4.55.35.85 1.3 1.35 1 .45 2.3.35l.15-.05v.2q-.05.25-.3.5 3.75.55 9.95-1.8 5.4-2.1 8.25-.15 1.8.25 2.8-.9.55-.65.5-1.2-.1-.55-.8-1.1-1.35-1-5.75.3-5.2 1.45-8.1.75-.05.25-.2.4-.2.2-.6.25-.45 0-2.45-.35-.85-.2-1.15.35-.25.55.1 1.2l.2.3-.35-.1q-.85-.35-1.05-1-.3-.65.35-1.2-.75-.35-1.1-.9-.5-.85.45-1.7l.25-.2-.05.35q-.15.75.4 1 .65.2 2.05-.2 1.55-.5 2.4-.3.8.15.95.95 2.3 1 7.8-.65 4.65-1.45 6.7.1-.1-.5.05-.8.15-.5.9-.6l.25-.05-.15.2q-.2.4-.15.7 0 .2.2.3.35.15.5.5.1.15.1.3.8-.35 1.6.25.85.8.25 1.8l-.15.25-.05-.3q-.1-.65-.85-.85h-.05q-.75-.35-1.1.25v.05q-.9 1.5-1.3 1.85-1.05 1.05-2.4.9.4.4 1.35 1.4 1.1 1.1 3.15.7 1.95-.55 2.45-.5 1.2 0 1.5 1.1.3 1.4.9 2.05.55.6.55.75-.1.75-1 1.25h.05q-.9.5-1 .9-.15.5-.35.7-.25.1-.5 0-.05.2 0 .5 0 .35.15.45l.3.3h2.85v-16.6h-49.3v16.6H358v15.3h-20.15v9.05H358v21.55q2.15 1 4.5 2 2.35-.95 4.5-2V402.2h20.15v-9.05H367v-15.3h15.35l-.15-.05q-.9-.45-.7-1.25-.15-.05-.25-.1-.3.15-.15.8l.05.25-.25-.15q-.45-.2-.5-.6-.15-.35.1-.65-.3-.2-.3-.6v-.05q-.05-.45.2-.7.3-.45.7-.4h.05q.35 0 .65.4.25-.3.7-.25.4 0 .6.35.15-.15.45-.1.45-.05.7-.3v.05q.35-.5-.1-1.35-.35-.6-1.2-1.1-.3-.1-1.85.2-1.55.2-2.6-.4v.55l-.05.15-.2-.15q-.05-.05-.9-.15-.75-.15-1.15-.65-.1.5-.65 1.05l-.2.2v-.3q0-.8-.6-1.4-.35.45-1.5.95-.65.2-.7.8-.2.7.75 1.4l.1.1-.1.1q-1.4 1.2-3.1 1.65-1.5.3-2.5 0-.45-.25-.95.25-.4.4-.8.4t-.8-.35q-.45 0-.7.45l-.2.35v-.45q-.05-.75.55-1l.05-.25q-.15-.15-.25-.45-.3.1-.5.3l-.25.25.05-.35q0-.55.65-.8.05-.25.25-.35h-.15l.2-.25q.1-.1.75-.25.25-.35.9-.2.65.1 1.15.75.45.6 1.35.6.8 0 1.65-.45-1.25-1-.75-2.25-.45.25-1.05.1l-.45-.1.45-.15q.15-.1.4-.35.25-.25.35-.45v.05q.2-.75 1.25-.8.8-.05 1.1-.35-.15-.5-.9-.95-.95-.5-7.3 2.85-6.3 3.3-8.85 2.5v.6l-.05.3-.2-.3q-.2-.35-1.35-1.05-.75-.45-.95-.85-.15.25-.4.65v.05q-.4.55-.35.9v.4l-.25-.3q-.5-.65-.65-.85v-.05q-.1-.15-.15-.35-.25.45-.85.8-.9.55-.95.75l-.25.45v-.5-.15l-1.6 1.05q-.65.45-1.2.55h-.05q-.85.1-2.15-.45-.55-.25-1.1-.2-.85 0-1.2-.35-.25-.25-.35-.2-.5.05-.7 0-.6-.15-.85-.5t-.2-.55q-.25-.3-.05-.65l.15-.25.1.25q.05.2.2.3.15-.05.3 0-.2-.55.2-.9-.05-.55.35-.8l.3-.25-.15.4q-.05.15.05.5.05 0 .15.1.05.05.1.15.05-.15.2-.35v.05q.15-.25.3-.3h.05l.35-.1-.2.3q-.05.05 0 .25v.2q.2.05.4.2v-.05q.05-.2.35-.3.1-.35 0-.6l-.05-.15h.15q.5-.05.65.85.35.1.5.5v-.05q.1.3-.05.65.2.2.75.5.3.25 1.6-.05.45-.2 1.5-1-.65.05-1.1-.2l-.2-.1.2-.1q.5-.25 1-1.3.15-.45.4-.75-1.05.2-1.85-.6l-.2-.2h.3q.6-.05 1.2-.5-1.2 0-1.95-1l-.15-.25.3.05q.6.05 1.2-.2-.3-.2-.7-.5-.95-.75-1.05-.8-.3-.2-.85-.25-.6-.1-.7-.05h-.05q-.25.2-.1.7.05.4-.2.65-.25.15-.5.15-.2.4-.45.5l-.25.1.1-.3q.05-.15 0-.3-.2.05-.35-.05l-.05.05q-.1.2 0 .4l.2.3-.35-.1q-.45-.2-.45-.6-.1-.05-.15-.1l-.05.05.3.45h-.25q-.25 0-.55-.3-.3-.05-.4-.4-.45-.85.5-1.55.45-.35.75-.3.2-.05.8.15.2 0 .5-.1.55-.4 1.05-.75.4-.3 1.3-.1.7.15 1.35.55h-.05q1.3.7 2.2.95.35 0 .65-.15.25-.15.5-.2-.45-.3-.45-.9v-.3l.2.2q.25.25.6.1.5-.2.75-.2l.35-.35q-.25-.25-.25-.45 0-.3.3-.65h.05q.25-.25.6-.15.25-1.05.1-1.85-.1-.3 0-.4.1-.15.35 0h.05z"/></g><g id="g"><path fill="#373535" d="M378.05 404.8q-.343.354-.35.6.003.288.4.4.555.294 1.25-.2.751-.626 2.2-.75 1.396-.073 2 .35.324.226.55 0h-.05q.267-.16.3-.75.035-1.175-1.35-1.2-3.47.03-4.95 1.55m.2.2v-.05q1.42-1.431 4.75-1.45 1.115.025 1.1.95-.018.422-.2.55-.074.074-.2 0-.646-.477-2.15-.4-1.551.126-2.35.8-.555.406-1 .2v-.05q-.204-.038-.25-.15.043-.154.3-.4z"/><path fill="#B3423A" d="M378.25 404.95v.05q-.257.246-.3.4.046.112.25.15v.05q.445.206 1-.2.799-.674 2.35-.8 1.504-.077 2.15.4.126.074.2 0 .182-.128.2-.55.015-.925-1.1-.95-3.33.019-4.75 1.45z"/></g><g id="h"><path fill="#373535" d="M368.75 418.1q-.117.944-.5 1.5l-.15.25.25-.05q1.097-.072 1.6-.55.376.432.65.45l.1.05.05-.15q.07-.138.3-.35.134-.091.2-.2.175.278.45.5l.15.1.05-.15q.26-.616.75-.95l.05-.05v-.05q.03-.126-.15-.45-.129-.193-.15-.5v-.05q-.121-.507-.15-.75.042-.353.55-.85.602-.609.4-1.3-.113-.42-.45-.4-.277.038-.7.45-.386.362-1.1 1.8v-.05q-.39.639-1.3.9-.765.25-.9.85m-.15 1.45q.295-.565.4-1.4.115-.45.7-.65h.05q.99-.29 1.4-1 .686-1.362 1.05-1.7h.05q.327-.338.5-.4.162.019.2.2.148.559-.35 1.05-.592.603-.6 1.05.021.256.15.8.034.402.2.65.083.164.1.25-.458.309-.7.85-.266-.24-.4-.5l-.05-.15h-.05l-.15-.3-.2.1.2.45q-.012.066-.2.2-.227.21-.35.4-.204-.108-.5-.5l-.1-.1-.1.1q-.373.475-1.25.6z"/><path fill="#B3423A" d="M369 418.15q-.105.835-.4 1.4.877-.125 1.25-.6l.1-.1.1.1q.296.392.5.5.123-.19.35-.4.188-.134.2-.2l-.2-.45.2-.1.15.3h.05l.05.15q.134.26.4.5.242-.541.7-.85-.017-.086-.1-.25-.166-.248-.2-.65-.129-.544-.15-.8.008-.447.6-1.05.498-.491.35-1.05-.038-.181-.2-.2-.173.062-.5.4h-.05q-.364.338-1.05 1.7-.41.71-1.4 1h-.05q-.585.2-.7.65z"/></g><path fill="#373535" d="M383.85 403.7l.1-.25q-.245-.068-.4.25v-.05q-.169.25-.2.4-.202.874.2 1.15l.15-.2q-.248-.224-.1-.9.031-.116.15-.3.046-.084.1-.1z" id="i"/><path fill="#373535" d="M369.9 418.9l.1.25q.23-.023.2-.8h-.25q.02.528-.05.55z" id="j"/><path fill="#373535" d="M371.1 418.75l.25.05q.23-.8.2-.85h-.25q.02.05-.2.8z" id="k"/><g id="l"><path fill="#373535" d="M380.95 408.5q-.335.306-.95 1.15-.743.94-1 1.5-.241.662.1.9.365.253 1.15-.2.639-.41 1.15-1.05 1.49-1.945.65-2.55-.454-.385-1.1.25m.95-.05q.612.494-.7 2.2-.489.61-1.1 1h.05q-.616.348-.9.2-.159-.16 0-.6.243-.54.95-1.45.586-.807.9-1.1h.05q.454-.466.75-.25z"/><path fill="#FFE25C" d="M381.2 410.65q1.312-1.706.7-2.2-.296-.216-.75.25h-.05q-.314.293-.9 1.1-.707.91-.95 1.45-.159.44 0 .6.284.148.9-.2h-.05q.611-.39 1.1-1z"/></g><g id="m"><path fill="#373535" d="M381.75 407.55q-.414-.48-1.2.1l-1.05 1.05q-.837.852-1.15 1.4-.315.63 0 .9.292.323 1.15-.1.711-.351 1.2-.9l.05-.05q.864-.754 1.1-1.35.314-.636-.1-1.05m-.2.15v.05q.286.286.05.75-.21.546-1.05 1.3-.478.56-1.15.9v-.05q-.643.327-.85.15h-.05q-.136-.179.1-.6.287-.503 1.1-1.3l1.05-1.05h-.05q.564-.42.85-.15z"/><path fill="#FFE25C" d="M381.55 407.75v-.05q-.286-.27-.85.15h.05l-1.05 1.05q-.813.797-1.1 1.3-.236.421-.1.6h.05q.207.177.85-.15v.05q.672-.34 1.15-.9.84-.754 1.05-1.3.236-.464-.05-.75z"/></g><g id="n"><path fill="#373535" d="M380 406.9h.05q-.115.035-1.15 1.05-.602.624-1 1.35v-.05q-.524.894-.2 1.2.306.324 1.15-.2.727-.41 1.3-1.05v.05q1.757-1.769 1-2.5-.418-.44-1.15.15m.15.2q.52-.41.8-.15.544.568-1 2.1-.527.61-1.2 1h-.05q-.607.377-.8.2-.177-.193.2-.85.402-.674 1-1.25.965-.986 1.05-1.05z"/><path fill="#FFE25C" d="M380.15 407.1q-.085.064-1.05 1.05-.598.576-1 1.25-.377.657-.2.85.193.177.8-.2h.05q.673-.39 1.2-1 1.544-1.532 1-2.1-.28-.26-.8.15z"/></g><g id="o"><path fill="#373535" d="M379.1 405.95h.05q-.115.035-1.15 1.05-.567.571-.9 1.35-.363.89-.05 1.2v.05q.533.556 2.3-1.2v-.05q.821-.846 1.05-1.45.242-.655-.15-1.05h-.05q-.188-.229-.5-.2-.241.021-.6.3m-.9 1.25q.965-.986 1.05-1.05.291-.222.5-.25.172-.02.3.1v.05q.3.277.1.75-.221.596-1 1.4-1.535 1.546-1.9 1.2-.188-.24.1-.95.316-.722.85-1.25z"/><path fill="#FFE25C" d="M379.25 406.15q-.085.064-1.05 1.05-.534.528-.85 1.25-.288.71-.1.95.365.346 1.9-1.2.779-.804 1-1.4.2-.473-.1-.75V406q-.128-.12-.3-.1-.209.028-.5.25z"/></g><g id="p"><path fill="#373535" d="M377.45 404.6q.253-.678-.2-1-.454-.385-1.1.25-.096.107-.95 1.2-.468.594-.7 1.45-.195 1.029.1 1.25.346.295 1-.35v-.05q.15-.175.9-1.2.77-.916.95-1.55m-1.1-.55q.454-.466.75-.25.297.227.1.7-.17.616-.9 1.5-.75 1.025-.9 1.2-.449.458-.65.35-.155-.178 0-1 .218-.794.65-1.35.846-1.057.95-1.15z"/><path fill="#FFE25C" d="M377.1 403.8q-.296-.216-.75.25-.104.093-.95 1.15-.432.556-.65 1.35-.155.822 0 1 .201.108.65-.35.15-.175.9-1.2.73-.884.9-1.5.197-.473-.1-.7z"/></g><g id="q"><path fill="#373535" d="M377.35 404.35q-.182.153-1 1.15-.517.595-.8 1.45-.25.975.1 1.25.35.288.95-.4.702-.727 1-1.15.795-.897 1-1.5.28-.683-.15-1-.452-.443-1.1.2m.15.2h.05q.453-.458.75-.2.27.233.05.7-.195.597-.95 1.45-.302.426-1 1.15-.403.464-.6.35-.2-.224 0-1 .267-.794.75-1.35.782-.953.95-1.1z"/><path fill="#FFE25C" d="M377.55 404.55h-.05q-.168.147-.95 1.1-.483.556-.75 1.35-.2.776 0 1 .197.114.6-.35.698-.724 1-1.15.755-.853.95-1.45.22-.467-.05-.7-.297-.258-.75.2z"/></g><g id="r"><path fill="#373535" d="M378.15 405.2q-.2.275-.95 1.2-1.491 1.892-.9 2.35.302.279.85-.15.51-.357 1.25-1.3.896-1.058.95-1.1v-.05q.47-.808-.05-1.15-.437-.373-1.15.2m.15.2l.05-.05q.497-.371.8-.15.331.257 0 .85V406q-.046.058-.95 1.15-.71.907-1.2 1.25-.354.273-.55.15-.36-.34.95-2 .712-.877.9-1.15z"/><path fill="#FFE25C" d="M378.35 405.35l-.05.05q-.188.273-.9 1.15-1.31 1.66-.95 2 .196.123.55-.15.49-.343 1.2-1.25.904-1.092.95-1.15v.05q.331-.593 0-.85-.303-.221-.8.15z"/></g><g id="s"><path fill="#373535" d="M375.05 407.7v-.1q.248-.88-.35-1.15-1.011-.54-2.1 1.95-.278.774-.35 1.65-.029.95.35 1.1.708.383 1.8-2 .608-1.403.65-1.45m-.25-.15q-.117.267-.65 1.5-.96 2.12-1.45 1.9-.222-.149-.2-.9.078-.824.35-1.55.962-2.213 1.75-1.85.377.215.25.85l-.05.05z"/><path fill="#FFE25C" d="M374.8 407.55l.05-.05q.127-.635-.25-.85-.788-.363-1.75 1.85-.272.726-.35 1.55-.022.751.2.9.49.22 1.45-1.9.533-1.233.65-1.5z"/></g><g id="t"><path fill="#373535" d="M375.8 406.9v-.05q-1.006-.443-2.15 1.95-.377.862-.6 1.75-.199 1.209.25 1.35.422.231 1.15-.75.614-.737 1-1.6.515-1.003.65-1.45v-.05q.306-.882-.3-1.15m-.1.2q.394.23.15.9-.115.453-.6 1.45h-.05q-.364.837-.95 1.55-.573.77-.85.65-.252-.107-.1-1.05.227-.862.6-1.7 1.007-2.109 1.8-1.8z"/><path fill="#FFE25C" d="M375.7 407.1q-.793-.309-1.8 1.8-.373.838-.6 1.7-.152.943.1 1.05.277.12.85-.65.586-.713.95-1.55h.05q.485-.997.6-1.45.244-.67-.15-.9z"/></g><g id="u"><path fill="#373535" d="M376.5 407.55v-.05q-.531-.23-1.05.5v.05l-.7 1.3q-1.369 2.57-.7 2.9.337.227.85-.4.493-.552 1.15-1.8l.7-1.35q.305-.867-.25-1.15m-.1.2q.345.216.1.85h.05l-.7 1.35q-.643 1.201-1.1 1.7-.389.475-.6.4-.432-.268.8-2.6l.7-1.3q.382-.52.75-.4z"/><path fill="#FFE25C" d="M376.4 407.75q-.368-.12-.75.4l-.7 1.3q-1.232 2.332-.8 2.6.211.075.6-.4.457-.499 1.1-1.7l.7-1.35h-.05q.245-.634-.1-.85z"/></g><g id="v"><path fill="#373535" d="M379.75 412.7q.695-.7.25-1.2-.193-.233-.5-.2-.265.023-.65.3-.372.246-1.2 1-.33.301-1.2.8-.698.484-.35.9.606.784 2.45-.6.995-.766 1.2-1.05v.05m-3.45 1.45q-.154-.233.3-.55.879-.501 1.2-.8.822-.746 1.2-1 .315-.223.5-.25.193-.017.3.1.256.349-.25.85-.195.266-1.15 1-1.607 1.217-2.1.65z"/><path fill="#FFE25C" d="M376.6 413.6q-.454.317-.3.55.493.567 2.1-.65.955-.734 1.15-1 .506-.501.25-.85-.107-.117-.3-.1-.185.027-.5.25-.378.254-1.2 1-.321.299-1.2.8z"/></g><g id="w"><path fill="#373535" d="M379.7 410.3q-.314-.292-.7-.2-.294.062-.65.45-.399.41-1.15 1.35-.341.351-1.15.9-.285.257-.35.45-.098.288.1.5v-.05q.353.45 1 .2.56-.178 1.35-.95 1.095-.92 1.45-1.55.467-.703.1-1.1m-.2.2v-.05q.234.303-.1.8-.345.62-1.4 1.5-.76.728-1.3.9-.454.2-.7-.1-.102-.089-.1-.2.085-.157.3-.35.841-.551 1.2-.9v-.05q.749-.91 1.15-1.3v-.05q.294-.312.55-.4.214-.008.4.2z"/><path fill="#FFE25C" d="M379.5 410.45v.05q-.186-.208-.4-.2-.256.088-.55.4v.05q-.401.39-1.15 1.3v.05q-.359.349-1.2.9-.215.193-.3.35-.002.111.1.2.246.3.7.1.54-.172 1.3-.9 1.055-.88 1.4-1.5.334-.497.1-.8z"/></g><g id="x"><path fill="#373535" d="M377.55 409.35q-.358.338-.95 1.2-2.088 2.64-1.45 3.15.351.337 1.1-.3.66-.508 1.7-1.85.896-1.058.95-1.1v-.05q.46-.801-.05-1.2-.653-.506-1.3.15m.15.2l.05-.05q.467-.484.95-.1.34.3 0 .9v-.05q-.046.058-.95 1.15-1.01 1.308-1.65 1.8-.553.464-.8.3-.414-.387 1.5-2.8.586-.855.9-1.15z"/><path fill="#FFE25C" d="M377.75 409.5l-.05.05q-.314.295-.9 1.15-1.914 2.413-1.5 2.8.247.164.8-.3.64-.492 1.65-1.8.904-1.092.95-1.15v.05q.34-.6 0-.9-.483-.384-.95.1z"/></g><g id="y"><path fill="#373535" d="M377.85 409.35q.372-.866-.15-1.15-.623-.428-1.15.3-.249.384-.75 1.35v-.05q-1.939 2.846-1.3 3.25.446.307 1.1-.4.618-.582 1.45-2.05.754-1.142.8-1.25m-.25-.1h.05q-.054.092-.8 1.2-.818 1.444-1.4 2.05-.497.506-.8.35-.413-.294 1.35-2.9.499-.934.75-1.3.373-.522.8-.25.329.215.05.85z"/><path fill="#FFE25C" d="M377.65 409.25h-.05q.279-.635-.05-.85-.427-.272-.8.25-.251.366-.75 1.3-1.763 2.606-1.35 2.9.303.156.8-.35.582-.606 1.4-2.05.746-1.108.8-1.2z"/></g><g id="z"><path fill="#373535" d="M372.9 411.25v-.1q.145-.802-.35-1-.56-.173-.95.6-.124.347-.45 1.3-.273.98-.3 1.5 0 .663.35.75.674.282 1.3-1.9.362-1.109.4-1.15m-.45-.85q.294.147.2.65-.057.214-.4 1.3-.526 1.871-.95 1.7-.188-.062-.2-.5.035-.48.3-1.4.324-.947.45-1.3.26-.528.6-.45z"/><path fill="#FFE25C" d="M372.65 411.05q.094-.503-.2-.65-.34-.078-.6.45-.126.353-.45 1.3-.265.92-.3 1.4.012.438.2.5.424.171.95-1.7.343-1.086.4-1.3z"/></g><g id="A"><path fill="#373535" d="M372.3 411.3v-.05q-.06.05-.6 1.45-.38 1.08-.45 1.65-.04.719.35.8.78.288 1.5-1.9.477-1.217.5-1.45.258-.85-.35-1.1-.54-.167-.95.6m.2.1q.291-.533.65-.45.393.199.2.8-.027.217-.5 1.4-.616 1.872-1.15 1.75-.21-.068-.2-.55.08-.53.45-1.55.51-1.3.55-1.35v-.05z"/><path fill="#FFE25C" d="M373.15 410.95q-.359-.083-.65.45v.05q-.04.05-.55 1.35-.37 1.02-.45 1.55-.01.482.2.55.534.122 1.15-1.75.473-1.183.5-1.4.193-.601-.2-.8z"/></g><g id="B"><path fill="#373535" d="M377 414.25q-.208-.305-.7-.15-.421.13-1.1.65-1.442.985-1.1 1.45.237.37.75.25.446-.104 1.1-.6 1.441-1.04 1.05-1.6m-.65.1q.308-.095.45.05.21.388-1 1.25-.596.454-1 .55-.337.08-.5-.15-.16-.282 1.05-1.1.621-.48 1-.6z"/><path fill="#FFE25C" d="M376.8 414.4q-.142-.145-.45-.05-.379.12-1 .6-1.21.818-1.05 1.1.163.23.5.15.404-.096 1-.55 1.21-.862 1-1.25z"/></g><g id="C"><path fill="#373535" d="M374.45 414.3q-1.387 1.304-1 1.7.226.316.75.05.416-.181 1.05-.8l1-.8v-.05q.477-.505.05-1-.268-.263-.55-.25-.247-.003-.5.25-.244.255-.8.9m-.4 1.55q-.277.147-.4 0-.213-.248.95-1.35l.05-.05q.549-.61.8-.85v-.05q.16-.147.3-.15.18.013.35.2v-.05q.273.355-.05.7-.042.053-.95.8-.616.594-1.05.8z"/><path fill="#FFE25C" d="M373.65 415.85q.123.147.4 0 .434-.206 1.05-.8.908-.747.95-.8.323-.345.05-.7v.05q-.17-.187-.35-.2-.14.003-.3.15v.05q-.251.24-.8.85l-.05.05q-1.163 1.102-.95 1.35z"/></g><g id="D"><path fill="#373535" d="M374.55 412.35q-.3.375-1 1.2-.78.934-1.05 1.45-.34.682-.05.9.546.5 2.3-1.25v-.05q.755-.841.95-1.2.457-.853-.05-1.25-.452-.443-1.1.2m0 2.1q-1.548 1.552-1.95 1.25-.112-.13.1-.55.28-.534 1.05-1.45.7-.825 1-1.2v.05q.453-.458.75-.2.343.303 0 .95-.205.341-.95 1.15z"/><path fill="#FFE25C" d="M374.55 414.45q.745-.809.95-1.15.343-.647 0-.95-.297-.258-.75.2v-.05q-.3.375-1 1.2-.77.916-1.05 1.45-.212.42-.1.55.402.302 1.95-1.25z"/></g><g id="E"><path fill="#373535" d="M373.95 413.9q.565-.941.7-1.35.363-.868-.2-1.15-.687-.357-1.2.3l-.05.1q.018.046-.65 1.3-.416.763-.6 1.45-.142.99.25 1.15.639.338 1.75-1.8m-.5-2.05q.387-.493.9-.25.337.217.05.85-.116.391-.65 1.3v.05q-.99 1.865-1.45 1.65v.05q-.208-.14-.1-.9.165-.663.55-1.4.585-1.076.7-1.35z"/><path fill="#FFE25C" d="M374.35 411.6q-.513-.243-.9.25-.115.274-.7 1.35-.385.737-.55 1.4-.108.76.1.9v-.05q.46.215 1.45-1.65v-.05q.534-.909.65-1.3.287-.633-.05-.85z"/></g><g id="F"><path fill="#373535" d="M340.25 367.45l-.05.05q-3.275 3.802 0 7.35l.05.05h1.9l.05-.05q3.275-3.548 0-7.35l-.05-.05h-1.9m.1.25h1.7q3.031 3.595 0 6.95h-1.7q-3.031-3.355 0-6.95z"/><path fill="#FFF" d="M342.05 367.7h-1.7q-3.031 3.595 0 6.95h1.7q3.031-3.355 0-6.95z"/></g><path fill="#373535" d="M340.65 367.45l-.05.1q-1.547 3.802 0 7.3l.05.05h1.05l.05-.05q1.597-3.498 0-7.3l-.05-.1h-1.05m.2.25h.7q1.47 3.642 0 6.95h-.7q-1.47-3.308 0-6.95z" id="G"/><path fill="#373535" d="M373.75 370.25l-.1.25q.68.313.95.55l.15-.2q-.28-.262-1-.6z" id="H"/><path fill="#373535" d="M366.3 375.25l.05-.25q-1.077-.301-1.45.45l.2.1q.327-.549 1.2-.3z" id="I"/><path fill="#373535" d="M372.15 370l-.25.05q.154.747-.55 1.2l-.25.15.3.05q1.134.18 1.85-.3.856-.556.5-1.5l-.25.1q.293.756-.4 1.2-.532.356-1.35.3.567-.495.4-1.25z" id="J"/><path fill="#373535" d="M365.5 374l-.05.25.55.1.05-.25-.55-.1z" id="K"/><path fill="#373535" d="M375.9 371.2h.25q.035-.454-.35-.85l-.2.2q.315.304.3.65z" id="L"/><path fill="#373535" d="M378.2 371.7l.15-.2-.5-.4-.15.2.5.4z" id="M"/><path fill="#373535" d="M381.9 375.05l-.2-.1q-.238.396-.1.85l.25-.1q-.112-.346.05-.65z" id="N"/><path fill="#373535" d="M383.15 375.15l-.2-.15q-.319.469.05.85l.2-.2q-.231-.219-.05-.5z" id="O"/><path fill="#373535" d="M341.35 368.35l.1-.25q-.07-.017-.1-.25.029-.264.3-.4l-.1-.25q-.429.214-.45.65.02.47.25.5z" id="P"/><path fill="#373535" d="M340.45 368.2l.2-.15q-.122-.182-.1-.5.065-.276.25-.45l-.15-.2q-.265.226-.35.6-.028.432.15.7z" id="Q"/><path fill="#373535" d="M340.8 373.45l-.15-.2q-.178.12-.2.5.022.363.45.6l.1-.2q-.272-.163-.3-.4.028-.22.1-.3z" id="R"/><path fill="#373535" d="M340.1 374.05l-.2.15q.158.308.6.45l.1-.25q-.358-.108-.5-.35z" id="S"/><path fill="#373535" d="M352.05 367.1l-.2-.1q-.05.084-.15.1-.069.016-.2-.05-.236-.185-.15-.4l-.2-.1q-.215.385.2.7h.05q.219.134.35.1.2-.034.3-.25z" id="T"/><path fill="#373535" d="M354 365.6l.15-.2-1.1-.95q-.56-.314-1.45-.55l-.05.25q.859.214 1.4.5h-.05l1.1.95z" id="ab"/><path fill="#373535" d="M382.1 379.35l-.2-.1-.25.35.2.1.25-.35z" id="ac"/><path fill="#373535" d="M380.3 382.4l.05-.25q-.336-.08-.85 0-.601.078-.9.3l.15.2q.251-.179.75-.25.495-.067.8 0z" id="ad"/><path fill="#373535" d="M380.55 384.45h.25q.019-.522-.4-.75l-.1.2q.281.172.25.55z" id="ae"/><path fill="#373535" d="M380.3 388.2l.25.1q.29-.643.15-1.15l-.25.05q.11.442-.15 1z" id="af"/><path fill="#373535" d="M380.7 388.85l.25.05.1-.8-.25-.05-.1.8z" id="ag"/><path fill="#373535" d="M379.1 386.25l.25-.1-.2-.6-.25.1.2.6z" id="ah"/><path fill="#373535" d="M379.75 387.25h.25v-1.05h-.25v1.05z" id="ai"/><path fill="#373535" d="M378.25 385.45l.25.05.1-.6-.25-.05-.1.6z" id="aj"/><path fill="#373535" d="M374.4 388.1l.25-.05q-.114-.457.05-1.2l-.25-.05q-.187.807-.05 1.3z" id="ak"/><path fill="#373535" d="M373.6 389l.2.1q.375-.738.25-1.5l-.25.05q.125.688-.2 1.35z" id="al"/><path fill="#373535" d="M372.3 384.3l.25.1q.164-.432.35-.7l-.2-.15q-.215.282-.4.75z" id="am"/><path fill="#373535" d="M371.35 384.8h.25q.03-.438.3-.7l-.2-.2q-.33.338-.35.9z" id="an"/><path fill="#373535" d="M373.1 384h.25q.032-.197.25-.4l-.15-.2q-.332.297-.35.6z" id="ao"/><path fill="#373535" d="M374.1 383.6l.2.15.3-.55-.2-.15-.3.55z" id="ap"/><path fill="#373535" d="M374.95 383.45l.2.15.3-.4-.2-.15-.3.4z" id="aq"/><path fill="#373535" d="M376.95 381.55h-.25q.028 1.09.6 1.35l.1-.2q-.428-.24-.45-1.15z" id="ar"/><path fill="#373535" d="M371.5 380.3l.05.25q1.291-.166 2.95.4 1.568.616 2.45 1.5l.2-.2q-.918-.916-2.55-1.55-1.741-.584-3.1-.4z" id="as"/><path fill="#373535" d="M384 380.6l.05-.25q-3.298-.842-5.75 2l.2.15q2.347-2.708 5.5-1.9z" id="at"/><path fill="#373535" d="M378.6 381.3l-.25-.1q-.128.473-.15 1.05h.25q.028-.523.15-.95z" id="au"/><path fill="#373535" d="M377.1 391.65h.25v-.5h-.25v.5z" id="av"/><path fill="#373535" d="M350.9 407.5l-.2.2.15.2.2-.2-.15-.2z" id="aw"/><path fill="#373535" d="M351.2 406.95v-.05q-.046-.583.2-.9.313-.306.95-.35h.35v-.25h-.35q-.763.056-1.1.45-.348.377-.3 1.1.01.845-.75 1.35l.15.2q.879-.587.85-1.55z" id="ax"/><path fill="#373535" d="M351.95 404.75l.2.15q.099-.086.6-.2l-.05-.25q-.649.136-.75.3z" id="ay"/><path fill="#373535" d="M353.75 407.9l.05.25.85-.15-.05-.25-.85.15z" id="az"/><path fill="#373535" d="M353.45 408.75l-.1.25.25.05.1-.25-.25-.05z" id="aA"/><path fill="#373535" d="M353.15 409.5v.25l.25-.05v-.25l-.25.05z" id="aB"/><path fill="#373535" d="M355.5 415.2l-.15.2q.84.473 1 .75l.2-.1q-.14-.323-1.05-.85z" id="aC"/><path fill="#373535" d="M354.8 415.25l-.2.2q.88.873.85 1l.25.05q.12-.222-.9-1.25z" id="aD"/><path fill="#373535" d="M354.4 415.5l-.2.15.7 1.05.2-.15-.7-1.05z" id="aE"/><path fill="#373535" d="M350.1 413.05l-.05-.25q-.291.067-.7-.1l-.1.25q.49.183.85.1z" id="aF"/><path fill="#373535" d="M347.6 411.4l-.2.15.3.45.2-.15-.3-.45z" id="aG"/><path fill="#373535" d="M348.5 412.5l.2-.2-.2-.25-.2.2.2.25z" id="aH"/><path fill="#373535" d="M352.35 408.15l-.25-.05q-.058.355-.35.45v.05h-.05q-.2.142-.45-.05l-.15.2q.4.308.75.05.408-.155.5-.65z" id="aI"/><path fill="#373535" d="M352.1 408l-.1.2q.704.357 1.05-.3.3-.588-.25-1l-.15.2q.4.288.2.7-.254.443-.75.2z" id="aJ"/><path fill="#373535" d="M352.45 407.05l.15.2q.468-.278.55-.75.09-.404-.3-.65l-.15.2q.26.154.2.4-.068.378-.45.6z" id="aK"/><path fill="#373535" d="M355.9 405.6l-.1-.2q-.35.186-.65.25-.402.154-.6.05l-.15.2q.251.196.8 0h.05q.3-.086.65-.3z" id="aL"/><path fill="#373535" d="M355.7 406.6l-.15-.2q-.541.471-1.2.45v.25q.74.029 1.35-.5z" id="aM"/><g id="aN"><path fill="#373535" d="M351.45 386.85h.05l-2.25 4.35v-.05q-.302.418.45.9h.05q.394.202.65.15.295-.006.4-.3 1.86-4.145 2.05-4.5.172-.25.05-.5-.098-.175-.45-.35-.733-.272-1 .3m.25.1q.182-.328.65-.15.248.125.3.25.078.1 0 .2v.05q-.21.345-2.1 4.5-.045.156-.2.15-.194.048-.5-.1-.502-.32-.4-.55l2.25-4.35z"/><path fill="#B3423A" d="M351.7 386.95l-2.25 4.35q-.102.23.4.55.306.148.5.1.155.006.2-.15 1.89-4.155 2.1-4.5v-.05q.078-.1 0-.2-.052-.125-.3-.25-.468-.178-.65.15z"/></g><g id="aO"><path fill="#373535" d="M343.5 384.5q-.772.32-.6.9 1.224 3.924 1.65 5.7.123.378.4.45.246.118.65-.05.865-.263.6-1.1-.374-1.685-1.8-5.65-.102-.457-.9-.25m.65.3v.05q1.424 3.935 1.8 5.6.185.613-.45.8-.296.132-.5.05-.123-.028-.2-.25-.425-1.774-1.65-5.7-.079-.37.45-.6h-.05q.535-.138.6.05z"/><path fill="#B3423A" d="M344.15 384.85v-.05q-.065-.188-.6-.05h.05q-.529.23-.45.6 1.225 3.926 1.65 5.7.077.222.2.25.204.082.5-.05.635-.187.45-.8-.376-1.665-1.8-5.6z"/></g><g id="aP"><path fill="#373535" d="M348.55 384.6q.054-.347-.15-.5-.17-.157-.55-.15h-.05q-.682.144-.7.8.075 1.348-.1 5.5v.05q-.002.265.25.4.207.12.65.1.428.053.6-.1.258-.152.2-.5-.175-4.845-.15-5.6m-.3-.3q.096.097.05.3-.025.745.15 5.6.042.202-.1.3-.128.097-.45.05-.358.03-.55-.05-.086-.059-.1-.2.175-4.202.1-5.55.032-.444.5-.55.276.011.4.1z"/><path fill="#B3423A" d="M348.3 384.6q.046-.203-.05-.3-.124-.089-.4-.1-.468.106-.5.55.075 1.348-.1 5.55.014.141.1.2.192.08.55.05.322.047.45-.05.142-.098.1-.3-.175-4.855-.15-5.6z"/></g><g id="aQ"><path fill="#373535" d="M340.65 382.55q.206-.406.5-.4.483.133.95.9.438.779.55 1.7-.45-.513-1.05-.7h.05q-.928-.31-1.8.55-.805.813-.65 1.5v.05l.05.05q.055.04.75 1.3l.15.3.05-.35q.225-1.023.25-1.25.105-.277.4-.45.484-.31 1.1-.15.717.26 1.15.85.233.383.45.4.291.043.55-.3.371-.502.4-1.5V385q-.065-.793.4-2 .504-1.202.95-1.5 1.695-1.011 2.5-2.15l.3-.35v-.05l-.45.2q-1.19.574-2.8.95-1.359.493-1.8 1.8-.082.37-.15 1-.31-1.09-1.2-2.1-.875-1.012-1.65-.6-.648.304-1.05 1.3-.298.758-.1 1.3.081.155.6 1l.15.25.05-.3q.311-1.005.4-1.2m.55-.65q-.456-.044-.75.55-.096.175-.35.95-.338-.578-.4-.7-.152-.458.1-1.1.348-.904.9-1.2.625-.289 1.35.55 1.33 1.5 1.3 3.25v.6h.25v-.6q.082-1.597.25-2.25v.05q.409-1.193 1.65-1.65h-.05q1.33-.298 2.35-.75-.751.897-2.1 1.7-.504.302-1.05 1.6-.478 1.275-.4 2.15-.026.908-.35 1.35-.142.207-.3.2-.133-.033-.3-.3-.467-.66-1.25-.95H342q-.734-.19-1.3.2h.05q-.405.227-.55.6-.016.19-.15.95-.495-.924-.6-1.1-.067-.542.6-1.2.728-.74 1.5-.5.683.215 1.2.9l.25.35-.05-.4q-.082-1.24-.65-2.25-.533-.883-1.1-1z"/><path fill="#00A05F" d="M340.45 382.45q.294-.594.75-.55.567.117 1.1 1 .568 1.01.65 2.25l.05.4-.25-.35q-.517-.685-1.2-.9-.772-.24-1.5.5-.667.658-.6 1.2.105.176.6 1.1.134-.76.15-.95.145-.373.55-.6h-.05q.566-.39 1.3-.2h.05q.783.29 1.25.95.167.267.3.3.158.007.3-.2.324-.442.35-1.35-.078-.875.4-2.15.546-1.298 1.05-1.6 1.349-.803 2.1-1.7-1.02.452-2.35.75h.05q-1.241.457-1.65 1.65v-.05q-.168.653-.25 2.25v.6h-.25v-.6q.03-1.75-1.3-3.25-.725-.839-1.35-.55-.552.296-.9 1.2-.252.642-.1 1.1.062.122.4.7.254-.775.35-.95z"/></g><g id="aR"><path fill="#373535" d="M342.25 387.85q.722-1.152 1.45-.65.477.402.85.25.327-.019.35-.25.037-.171-.15-.5h-.05q-1.439-1.26-2.8-.7-1.26.502-1.65 1.9-.391 1.782.8 3.1l.2.25v-.3q.219-1.893 1-3.1m1.6-.85q-.922-.699-1.8.7-.76 1.154-1 2.95-.873-1.184-.55-2.7.359-1.252 1.5-1.7 1.226-.486 2.55.6.113.22.1.3-.026.068-.15.05-.277.098-.65-.2z"/><path fill="#00A05F" d="M342.05 387.7q.878-1.399 1.8-.7.373.298.65.2.124.018.15-.05.013-.08-.1-.3-1.324-1.086-2.55-.6-1.141.448-1.5 1.7-.323 1.516.55 2.7.24-1.796 1-2.95z"/></g><g id="aS"><path fill="#373535" d="M343.4 379.35l-.4.05.4.2q.29.152 1.15.7.89.565 1.5.8.755.352.95.6.21.405.3 1.45-.195-.331-.45-.5-.632-.388-1.35.75-.843 1.436-.6 2.25.172.633.9 2.35l.1.15.15-.1q.322-.324.35-1.25.127-.762-.05-1.4-.112-.437-.1-.65v.05q.051-.102.3-.55.171-.247.25-.2.19.124.3.7.266.988.55 1.3.167.238.35.25.183.028.35-.15l.05-.05q.438-.7.8-.95.189-.095.25-.05.111.08.1.35.077.843.5 1.2.428.41 1.2.3h.35l-.3-.2q-.402-.257-.45-.7.126-.738.1-1.35.022-1.333-.4-1.65-.485-.496-1.7.5.783-1.52 1.15-2 .487-.548 1.8-1.15 1.46-.611 1.6-.95.111-.203-.1-.3-.068-.025-.3 0-.364.029-1.2.25-1.963.636-2.65 1.2-.454.366-.75.9v-.05q.027-.609-.55-1.05-1.105-.976-1.8-1.15-.69-.13-2.65.1m3.35 3.5h-.05q.392.282.6 1.1l.15.5.15-.05-.05-.5q-.033-1.744-.35-2.3v-.05q-.205-.302-1.05-.7-.59-.215-1.45-.75-.53-.334-.85-.55 1.56-.155 2.15-.05.655.176 1.7 1.1.473.358.45.85.025.054-.1 1.35v.5l.2.05.05-.5q.175-1.377 1-2.05.662-.536 2.55-1.15.814-.229 1.15-.3.121.022.15.05-.203.25-1.45.75-1.387.648-1.9 1.25-.455.573-1.45 2.65-.013.025-.05.05l-.2.4.1.05.35-.3q1.396-1.4 1.85-1 .328.283.3 1.45.024.588-.1 1.3v.05q.018.398.3.65-.422.005-.7-.25-.327-.293-.4-1-.011-.43-.2-.55-.188-.155-.55.05-.388.25-.85 1-.092.098-.2.1-.076-.013-.2-.15-.216-.288-.45-1.2-.14-.724-.4-.9-.268-.209-.6.3v.05q-.251.451-.3.55H346q-.038.237.1.75.17.603.05 1.3v.05q-.013.578-.2.85-.632-1.473-.8-2.05-.207-.736.55-2.05.583-.914 1.05-.7m6.45-3.5h-.05.05z"/><path fill="#00A05F" d="M353.2 379.35h-.05.05m-6.5 3.5h.05q-.467-.214-1.05.7-.757 1.314-.55 2.05.168.577.8 2.05.187-.272.2-.85v-.05q.12-.697-.05-1.3-.138-.513-.1-.75h.05q.049-.099.3-.55v-.05q.332-.509.6-.3.26.176.4.9.234.912.45 1.2.124.137.2.15.108-.002.2-.1.462-.75.85-1 .362-.205.55-.05.189.12.2.55.073.707.4 1 .278.255.7.25-.282-.252-.3-.65V386q.124-.712.1-1.3.028-1.167-.3-1.45-.454-.4-1.85 1l-.35.3-.1-.05.2-.4q.037-.025.05-.05.995-2.077 1.45-2.65.513-.602 1.9-1.25 1.247-.5 1.45-.75-.029-.028-.15-.05-.336.071-1.15.3-1.888.614-2.55 1.15-.825.673-1 2.05l-.05.5-.2-.05v-.5q.125-1.296.1-1.35.023-.492-.45-.85-1.045-.924-1.7-1.1-.59-.105-2.15.05.32.216.85.55.86.535 1.45.75.845.398 1.05.7v.05q.317.556.35 2.3l.05.5-.15.05-.15-.5q-.208-.818-.6-1.1z"/></g><g id="aT"><path fill="#373535" d="M349.5 379.1v.35q.024.942.6 1.65.48.713 1.2.9.82.306.8 1.5.025 3.432.6 3.5.404.124.55-1.15.175-1.135.2-3.45.122-.84-.3-1.5-.43-.57-1.05-.7-1.86-.262-2.35-.85l-.25-.25m1.9 2.65h-.05q-.63-.164-1.05-.8-.43-.523-.5-1.2.635.47 2.25.7.53.12.9.6.371.581.25 1.3v.05q-.025 2.285-.2 3.4-.105.985-.25.95-.375-.08-.4-3.25.03-1.406-.95-1.75z"/><path fill="#00A05F" d="M351.35 381.75h.05q.98.344.95 1.75.025 3.17.4 3.25.145.035.25-.95.175-1.115.2-3.4v-.05q.121-.719-.25-1.3-.37-.48-.9-.6-1.615-.23-2.25-.7.07.677.5 1.2.42.636 1.05.8z"/></g><g id="aU"><path fill="#373535" d="M353.1 381.95h-.05q-1.375.879-1.6 2.1-.076.783-.1 3.1-.033.823.5.9.594.094.7-.55l.4-2.75 2-1.9q.513.591 1.5.9l.15.05v-.15q-.087-2.271-1-2.55-.696-.194-2.5.85m2.45-.6q.703.259.8 2.1-.859-.315-1.3-.9l-.1-.1-.1.1-2.1 2.05-.05.05-.4 2.8q-.045.406-.4.35-.317-.072-.3-.65.026-2.283.1-3.05.225-1.129 1.5-1.95 1.696-.956 2.35-.8z"/><path fill="#00A05F" d="M356.35 383.45q-.097-1.841-.8-2.1-.654-.156-2.35.8-1.275.821-1.5 1.95-.074.767-.1 3.05-.017.578.3.65.355.056.4-.35l.4-2.8.05-.05 2.1-2.05.1-.1.1.1q.441.585 1.3.9z"/></g><g id="aV"><path fill="#373535" d="M352.8 385.5v.05q-.213.4-.9 1.75-.048.19-.05.3-.008.2.1.25.184.085.6-.2.743-.46 1.15-1.05.383-.5.5-.6h.05q.121-.14.25-.05l1.95 1.65-.05-.35q-.26-2.17-.95-2.85-.676-.775-1.8.1-.49.409-.85 1m.2.15q.34-.559.8-.95.926-.725 1.5-.15.56.616.8 2.45l-1.45-1.25q-.321-.21-.6.05-.133.1-.55.65-.392.56-1.1 1-.236.166-.3.15.013-.07.05-.2.662-1.35.85-1.75z"/><path fill="#00A05F" d="M353 385.65q-.188.4-.85 1.75-.037.13-.05.2.064.016.3-.15.708-.44 1.1-1 .417-.55.55-.65.279-.26.6-.05l1.45 1.25q-.24-1.834-.8-2.45-.574-.575-1.5.15-.46.391-.8.95z"/></g><g id="aW"><path fill="#373535" d="M351.35 387.65q.078.16.3.35.592.442.75.25v-.05q.195-.288.35-.4.179-.025.3.1.306.304.25.75v.05q-.126.923.05 1.4.191.545.75.55h.15l-.05-.15q-.058-.307.35-1.65v-.05q.397-1.192-.2-1.9-.81-.917-1.6-.8-.719.09-1.4 1.2-.142.143 0 .35m.2-.15v-.05q.619-.991 1.25-1.1.66-.083 1.35.7.502.642.15 1.7-.356 1.188-.35 1.65-.268-.072-.4-.4-.122-.416 0-1.3.086-.612-.3-1h-.05q-.229-.225-.5-.1-.245.088-.5.45-.034.014-.4-.25-.179-.16-.25-.3z"/><path fill="#00A05F" d="M351.55 387.45v.05q.071.14.25.3.366.264.4.25.255-.362.5-.45.271-.125.5.1h.05q.386.388.3 1-.122.884 0 1.3.132.328.4.4-.006-.462.35-1.65.352-1.058-.15-1.7-.69-.783-1.35-.7-.631.109-1.25 1.1z"/></g><path id="c" stroke="#373535" stroke-width=".25" stroke-linejoin="miter" stroke-linecap="butt" stroke-miterlimit="4" fill="none" d="M.029 52.513h99.839V.033H.028v52.48z"/><path id="U" stroke="#373535" stroke-width=".05" stroke-linejoin="miter" stroke-linecap="butt" stroke-miterlimit="4" fill="none" d="M142.094 31.959q.07.073.312.109.209.037.278.146"/><path id="V" stroke="#373535" stroke-width=".05" stroke-linejoin="miter" stroke-linecap="butt" stroke-miterlimit="4" fill="none" d="M142.267 32.032q-.069.145-.034.218"/><path id="W" stroke="#373535" stroke-width=".05" stroke-linejoin="miter" stroke-linecap="butt" stroke-miterlimit="4" fill="none" d="M142.58 32.141q0 .146-.139.219"/><path id="X" stroke="#373535" stroke-width=".05" stroke-linejoin="miter" stroke-linecap="butt" stroke-miterlimit="4" fill="none" d="M142.545 34.074q-.684 0-.26-.784-.198.347-.4.383-.242.036-.347-.256"/><path id="Y" stroke="#373535" stroke-width=".05" stroke-linejoin="miter" stroke-linecap="butt" stroke-miterlimit="4" fill="none" d="M143.517 32.87q-.07-.036-.243-.255-.139-.182-.243-.182"/><path id="Z" stroke="#373535" stroke-width=".05" stroke-linejoin="miter" stroke-linecap="butt" stroke-miterlimit="4" fill="none" d="M143.378 32.724q-.07.146-.173.146"/><path id="aa" stroke="#373535" stroke-width=".05" stroke-linejoin="miter" stroke-linecap="butt" stroke-miterlimit="4" fill="none" d="M143.17 32.506q-.208.073-.139.218"/></defs><use xlink:href="#a" transform="matrix(.69426 0 0 .72935 -101.65 -234.5)"/><g transform="matrix(.69429 0 0 .72939 -101.65 -234.5)"><use xlink:href="#b"/><use xlink:href="#c" transform="matrix(1.4403 0 0 1.371 146.4 321.5)"/></g><use xlink:href="#d" transform="matrix(.69429 0 0 .72939 -101.65 -234.5)"/><use xlink:href="#e" transform="matrix(.69429 0 0 .72939 -101.65 -234.5)"/><use xlink:href="#f" transform="matrix(.69429 0 0 .72939 -101.65 -234.5)"/><use xlink:href="#g" transform="matrix(.69426 0 0 .72935 -101.65 -234.5)"/><use xlink:href="#h" transform="matrix(.69426 0 0 .72935 -101.65 -234.5)"/><use xlink:href="#i" transform="matrix(.69426 0 0 .72935 -101.65 -234.5)"/><use xlink:href="#j" transform="matrix(.69426 0 0 .72935 -101.65 -234.5)"/><use xlink:href="#k" transform="matrix(.69426 0 0 .72935 -101.65 -234.5)"/><use xlink:href="#l" transform="matrix(.69426 0 0 .72935 -101.65 -234.5)"/><use xlink:href="#m" transform="matrix(.69426 0 0 .72935 -101.65 -234.5)"/><use xlink:href="#n" transform="matrix(.69426 0 0 .72935 -101.65 -234.5)"/><use xlink:href="#o" transform="matrix(.69426 0 0 .72935 -101.65 -234.5)"/><use xlink:href="#p" transform="matrix(.69426 0 0 .72935 -101.65 -234.5)"/><use xlink:href="#q" transform="matrix(.69426 0 0 .72935 -101.65 -234.5)"/><use xlink:href="#r" transform="matrix(.69426 0 0 .72935 -101.65 -234.5)"/><use xlink:href="#s" transform="matrix(.69426 0 0 .72935 -101.65 -234.5)"/><use xlink:href="#t" transform="matrix(.69426 0 0 .72935 -101.65 -234.5)"/><use xlink:href="#u" transform="matrix(.69426 0 0 .72935 -101.65 -234.5)"/><use xlink:href="#v" transform="matrix(.69426 0 0 .72935 -101.65 -234.5)"/><use xlink:href="#w" transform="matrix(.69426 0 0 .72935 -101.65 -234.5)"/><use xlink:href="#x" transform="matrix(.69426 0 0 .72935 -101.65 -234.5)"/><use xlink:href="#y" transform="matrix(.69426 0 0 .72935 -101.65 -234.5)"/><use xlink:href="#z" transform="matrix(.69426 0 0 .72935 -101.65 -234.5)"/><use xlink:href="#A" transform="matrix(.69426 0 0 .72935 -101.65 -234.5)"/><use xlink:href="#B" transform="matrix(.69426 0 0 .72935 -101.65 -234.5)"/><use xlink:href="#C" transform="matrix(.69426 0 0 .72935 -101.65 -234.5)"/><use xlink:href="#D" transform="matrix(.69426 0 0 .72935 -101.65 -234.5)"/><use xlink:href="#E" transform="matrix(.69426 0 0 .72935 -101.65 -234.5)"/><use xlink:href="#F" transform="matrix(.69426 0 0 .72935 -101.65 -234.5)"/><use xlink:href="#G" transform="matrix(.69426 0 0 .72935 -101.65 -234.5)"/><use xlink:href="#H" transform="matrix(.69426 0 0 .72935 -101.65 -234.5)"/><use xlink:href="#I" transform="matrix(.69426 0 0 .72935 -101.65 -234.5)"/><use xlink:href="#J" transform="matrix(.69426 0 0 .72935 -101.65 -234.5)"/><use xlink:href="#K" transform="matrix(.69426 0 0 .72935 -101.65 -234.5)"/><use xlink:href="#L" transform="matrix(.69426 0 0 .72935 -101.65 -234.5)"/><use xlink:href="#M" transform="matrix(.69426 0 0 .72935 -101.65 -234.5)"/><use xlink:href="#N" transform="matrix(.69426 0 0 .72935 -101.65 -234.5)"/><use xlink:href="#O" transform="matrix(.69426 0 0 .72935 -101.65 -234.5)"/><use xlink:href="#P" transform="matrix(.69426 0 0 .72935 -101.65 -234.5)"/><use xlink:href="#Q" transform="matrix(.69426 0 0 .72935 -101.65 -234.5)"/><use xlink:href="#R" transform="matrix(.69426 0 0 .72935 -101.65 -234.5)"/><use xlink:href="#S" transform="matrix(.69426 0 0 .72935 -101.65 -234.5)"/><use xlink:href="#T" transform="matrix(.69426 0 0 .72935 -101.65 -234.5)"/><use xlink:href="#U" transform="matrix(1 0 0 1 -.015 -.022)"/><use xlink:href="#V" transform="matrix(1 0 0 1 -.015 -.022)"/><use xlink:href="#W" transform="matrix(1 0 0 1 -.015 -.022)"/><use xlink:href="#X" transform="matrix(1 0 0 1 -.015 -.022)"/><use xlink:href="#Y" transform="matrix(1 0 0 1 -.015 -.022)"/><use xlink:href="#Z" transform="matrix(1 0 0 1 -.015 -.022)"/><use xlink:href="#aa" transform="matrix(1 0 0 1 -.015 -.022)"/><use xlink:href="#ab" transform="matrix(.69426 0 0 .72935 -101.65 -234.5)"/><use xlink:href="#ac" transform="matrix(.69426 0 0 .72935 -101.65 -234.5)"/><use xlink:href="#ad" transform="matrix(.69426 0 0 .72935 -101.65 -234.5)"/><use xlink:href="#ae" transform="matrix(.69426 0 0 .72935 -101.65 -234.5)"/><use xlink:href="#af" transform="matrix(.69426 0 0 .72935 -101.65 -234.5)"/><use xlink:href="#ag" transform="matrix(.69426 0 0 .72935 -101.65 -234.5)"/><use xlink:href="#ah" transform="matrix(.69426 0 0 .72935 -101.65 -234.5)"/><use xlink:href="#ai" transform="matrix(.69426 0 0 .72935 -101.65 -234.5)"/><use xlink:href="#aj" transform="matrix(.69426 0 0 .72935 -101.65 -234.5)"/><use xlink:href="#ak" transform="matrix(.69426 0 0 .72935 -101.65 -234.5)"/><use xlink:href="#al" transform="matrix(.69426 0 0 .72935 -101.65 -234.5)"/><use xlink:href="#am" transform="matrix(.69426 0 0 .72935 -101.65 -234.5)"/><use xlink:href="#an" transform="matrix(.69426 0 0 .72935 -101.65 -234.5)"/><use xlink:href="#ao" transform="matrix(.69426 0 0 .72935 -101.65 -234.5)"/><use xlink:href="#ap" transform="matrix(.69426 0 0 .72935 -101.65 -234.5)"/><use xlink:href="#aq" transform="matrix(.69426 0 0 .72935 -101.65 -234.5)"/><use xlink:href="#ar" transform="matrix(.69426 0 0 .72935 -101.65 -234.5)"/><use xlink:href="#as" transform="matrix(.69426 0 0 .72935 -101.65 -234.5)"/><use xlink:href="#at" transform="matrix(.69426 0 0 .72935 -101.65 -234.5)"/><use xlink:href="#au" transform="matrix(.69426 0 0 .72935 -101.65 -234.5)"/><use xlink:href="#av" transform="matrix(.69426 0 0 .72935 -101.65 -234.5)"/><use xlink:href="#aw" transform="matrix(.69426 0 0 .72935 -101.65 -234.5)"/><use xlink:href="#ax" transform="matrix(.69426 0 0 .72935 -101.65 -234.5)"/><use xlink:href="#ay" transform="matrix(.69426 0 0 .72935 -101.65 -234.5)"/><use xlink:href="#az" transform="matrix(.69426 0 0 .72935 -101.65 -234.5)"/><use xlink:href="#aA" transform="matrix(.69426 0 0 .72935 -101.65 -234.5)"/><use xlink:href="#aB" transform="matrix(.69426 0 0 .72935 -101.65 -234.5)"/><use xlink:href="#aC" transform="matrix(.69426 0 0 .72935 -101.65 -234.5)"/><use xlink:href="#aD" transform="matrix(.69426 0 0 .72935 -101.65 -234.5)"/><use xlink:href="#aE" transform="matrix(.69426 0 0 .72935 -101.65 -234.5)"/><use xlink:href="#aF" transform="matrix(.69426 0 0 .72935 -101.65 -234.5)"/><use xlink:href="#aG" transform="matrix(.69426 0 0 .72935 -101.65 -234.5)"/><use xlink:href="#aH" transform="matrix(.69426 0 0 .72935 -101.65 -234.5)"/><use xlink:href="#aI" transform="matrix(.69426 0 0 .72935 -101.65 -234.5)"/><use xlink:href="#aJ" transform="matrix(.69426 0 0 .72935 -101.65 -234.5)"/><use xlink:href="#aK" transform="matrix(.69426 0 0 .72935 -101.65 -234.5)"/><use xlink:href="#aL" transform="matrix(.69426 0 0 .72935 -101.65 -234.5)"/><use xlink:href="#aM" transform="matrix(.69426 0 0 .72935 -101.65 -234.5)"/><use xlink:href="#aN" transform="matrix(.69426 0 0 .72935 -101.65 -234.5)"/><use xlink:href="#aO" transform="matrix(.69426 0 0 .72935 -101.65 -234.5)"/><use xlink:href="#aP" transform="matrix(.69426 0 0 .72935 -101.65 -234.5)"/><use xlink:href="#aQ" transform="matrix(.69426 0 0 .72935 -101.65 -234.5)"/><use xlink:href="#aR" transform="matrix(.69426 0 0 .72935 -101.65 -234.5)"/><use xlink:href="#aS" transform="matrix(.69426 0 0 .72935 -101.65 -234.5)"/><use xlink:href="#aT" transform="matrix(.69426 0 0 .72935 -101.65 -234.5)"/><use xlink:href="#aU" transform="matrix(.69426 0 0 .72935 -101.65 -234.5)"/><use xlink:href="#aV" transform="matrix(.69426 0 0 .72935 -101.65 -234.5)"/><use xlink:href="#aW" transform="matrix(.69426 0 0 .72935 -101.65 -234.5)"/></svg>