<svg xmlns="http://www.w3.org/2000/svg" xmlns:xlink="http://www.w3.org/1999/xlink" preserveAspectRatio="none" width="200" height="105"><defs><g id="a"><path fill="#373535" d="M81 24.5v-8.3H69v8.3q0 2.6 1.4 4.7 1.65 2.3 4.6 3.15 2.95-.85 4.55-3.15Q81 27.1 81 24.5m-11.95 0v-8.2h11.9v8.2q0 2.6-1.45 4.65-1.6 2.3-4.5 3.1-2.9-.8-4.5-3.1-1.45-2.05-1.45-4.65z"/><path fill="#21467B" d="M69.05 16.3v8.2q0 2.6 1.45 4.65 1.6 2.3 4.5 3.1 2.9-.8 4.5-3.1 1.45-2.05 1.45-4.65v-8.2h-11.9z"/></g><path fill="#21467B" d="M146.45 465.5H434.5V321.55H146.45V465.5z" id="b"/><path fill="#FFF" d="M146.45 321.55v8.75l30.4 15.2h-30.4v24.05h30.4l-30.4 15.2v8.75h17.4l42.5-21.15v21.15h23.9v-21.15l42.5 21.15h17.5v-8.75l-30.5-15.2h30.5V345.5h-30.5l30.5-15.2v-8.75h-17.5l-42.5 21.15v-21.15h-23.9v21.15l-42.5-21.15h-17.4z" id="d"/><path fill="#E1474A" d="M290.25 393.5v-5.7l-36.3-18.3H242.4l47.85 24m-59.3-47.95h11.5l47.8-24h-11.3l-48 24m-84.5 47.95h11.5l48-24h-11.5l-48 24m0-43v14.05h65v28.95h14.05v-28.95h64.75V350.5H225.5v-28.95h-14.05v28.95h-65m0-28.95v5.7l36.5 18.3h11.6l-48.1-24z" id="f"/><g id="g"><path fill="#373535" d="M339.9 370.9q-9.381 9.392-9.4 22.6.02 13.258 9.4 22.6 9.342 9.33 22.6 9.3 13.207.03 22.6-9.3 9.33-9.342 9.3-22.6.03-13.207-9.3-22.6-9.393-9.33-22.6-9.35-13.258.02-22.6 9.35m-9.15 22.6q.03-13.093 9.35-22.4 9.258-9.27 22.4-9.3 13.093.03 22.4 9.3 9.27 9.307 9.25 22.4.02 13.142-9.25 22.4-9.307 9.27-22.4 9.25-13.142.02-22.4-9.25-9.32-9.258-9.35-22.4z"/><path fill="#FFF" d="M340.1 371.1q-9.32 9.307-9.35 22.4.03 13.142 9.35 22.4 9.258 9.27 22.4 9.25 13.093.02 22.4-9.25 9.27-9.258 9.25-22.4.02-13.093-9.25-22.4-9.307-9.27-22.4-9.3-13.142.03-22.4 9.3z"/></g><g id="h"><path fill="#373535" d="M352.85 408q-1.535-1.314-3.65-2.25l-.45-.15-.05.1.35.3h.05q2.935 2.214 1.4 6.05-1.39 3.564-3.4 3.8-1.618.286-1.9.45h.05q-.458.221-.55.65-.058.456.2 1.1.697 1.646 3.9 1.05 3.29-.582 5.05-4.45 1.96-4.144-1-6.65m-2.9-1.6q1.555.782 2.75 1.8 2.79 2.394.9 6.35-1.69 3.732-4.85 4.3-2.948.554-3.6-.9-.242-.556-.2-.95.058-.322.4-.5.268-.136 1.8-.4 2.14-.214 3.6-3.95 1.408-3.534-.8-5.75z"/><path fill="#FFEA97" d="M352.7 408.2q-1.195-1.018-2.75-1.8 2.208 2.216.8 5.75-1.46 3.736-3.6 3.95-1.532.264-1.8.4-.342.178-.4.5-.042.394.2.95.652 1.454 3.6.9 3.16-.568 4.85-4.3 1.89-3.956-.9-6.35z"/></g><g id="i"><path fill="#373535" d="M349.2 405.8v-.05q-.811-.355-1.7.3-.812.678-1.1 1.8-.349 1.74 1.75 3.5l.1.05.1-.1q.622-.78 1-.95.674-.188 1.5.8l.15.2.05-.25q.49-1.716-.15-3.2-.49-1.333-1.7-2.1m-.1.2h-.05q1.14.733 1.6 2 .568 1.311.2 2.8-.846-.938-1.6-.7-.397.171-1.05.95-1.843-1.58-1.55-3.15.262-1.028 1-1.65.76-.545 1.45-.25z"/><path fill="#E1474A" d="M349.05 406h.05q-.69-.295-1.45.25-.738.622-1 1.65-.293 1.57 1.55 3.15.653-.779 1.05-.95.754-.238 1.6.7.368-1.489-.2-2.8-.46-1.267-1.6-2z"/></g><g id="j"><path fill="#373535" d="M375.85 406l.4-.3-.05-.1-.45.15q-2.115.936-3.7 2.25-2.91 2.506-1 6.65 1.81 3.868 5.05 4.45 3.253.596 3.9-1.05.308-.644.2-1.1-.042-.429-.5-.65-.232-.164-1.9-.45-1.958-.237-3.35-3.8-1.533-3.836 1.4-6.05m1.9 10.1q1.582.264 1.8.4h.05q.342.178.4.5.042.394-.25.95-.602 1.454-3.6.9-3.11-.568-4.85-4.3-1.84-3.956.9-6.35 1.246-1.019 2.8-1.8-2.203 2.215-.8 5.75 1.458 3.737 3.55 3.95z"/><path fill="#FFEA97" d="M379.55 416.5q-.218-.136-1.8-.4-2.092-.213-3.55-3.95-1.403-3.535.8-5.75-1.554.781-2.8 1.8-2.74 2.394-.9 6.35 1.74 3.732 4.85 4.3 2.998.554 3.6-.9.292-.556.25-.95-.058-.322-.4-.5h-.05z"/></g><g id="k"><path fill="#373535" d="M378.5 407.85q-.238-1.122-1.1-1.8-.84-.655-1.65-.3v.05h-.05q-1.16.767-1.7 2.1-.537 1.485-.15 3.2l.05.25.2-.2q.826-.987 1.5-.8.378.17 1 .95l.05.1.1-.05q2.149-1.76 1.75-3.5m-2.65-1.85q.689-.295 1.4.25.788.622 1 1.65.343 1.57-1.55 3.15-.604-.779-1-.95-.752-.237-1.65.7-.273-1.491.2-2.8.51-1.267 1.6-2z"/><path fill="#E1474A" d="M377.25 406.25q-.711-.545-1.4-.25-1.09.733-1.6 2-.473 1.309-.2 2.8.898-.937 1.65-.7.396.171 1 .95 1.893-1.58 1.55-3.15-.212-1.028-1-1.65z"/></g><g id="l"><path fill="#373535" d="M378.15 407.4l.05.5v.05q.556 2.593-4.85 5-5.326 2.47-10.9 2.45-5.524.019-10.85-2.45-5.408-2.406-4.95-5v-.05l.05-.5h-.1l-.2.45q-.215.689-.75 1.55-.637 1.006-1.2 1.45-.682.652-.7 1.15.013.598.95 1.4 3.637 2.966 7.6 4.45 4.573 1.729 10.15 1.7 5.627.029 10.2-1.7 3.963-1.484 7.5-4.45 1.04-.801 1-1.4.032-.498-.7-1.15-1.195-.985-2-3l-.2-.45h-.1m.35 1.25q.773 1.565 1.8 2.4.618.548.6.95.01.5-.9 1.2-3.514 2.934-7.45 4.4-4.527 1.721-10.1 1.7-5.523.021-10.05-1.7-3.937-1.466-7.55-4.4-.813-.699-.85-1.2.032-.402.6-.95.587-.456 1.25-1.5.311-.478.5-.95.254 2.415 5.15 4.6 5.375 2.481 10.95 2.45 5.626.03 11-2.45 4.87-2.172 5.05-4.55z"/><path fill="#FFEA97" d="M380.3 411.05q-1.027-.835-1.8-2.4-.18 2.378-5.05 4.55-5.374 2.48-11 2.45-5.575.031-10.95-2.45-4.896-2.185-5.15-4.6-.189.472-.5.95-.663 1.044-1.25 1.5-.568.548-.6.95.037.501.85 1.2 3.613 2.934 7.55 4.4 4.527 1.721 10.05 1.7 5.573.021 10.1-1.7 3.936-1.466 7.45-4.4.91-.7.9-1.2.018-.402-.6-.95z"/></g><path fill="#E1474A" d="M346.3 416.35q-.6-.1-.95.2 1.4 1.25 1.65 1.75.75-.6.4-1.3-.35-.6-1.1-.65z" id="m"/><path fill="#E1474A" d="M379.6 416.55q-.35-.3-.95-.2-.75.05-1.1.65-.35.7.4 1.3.3-.65 1.65-1.75z" id="o"/><path fill="#FFEA97" d="M344.9 417.55q-.098-.502.25-.85.45-.45 1.15-.35.45.05.8.3.35.3.4.7 0-.5-.45-1.45t-.45-2.25q0-.85-1-1.45t-1.7-.3q-.65.35-.85 1.05-.2.7.15 1.2 1.066 1.391 1.7 3.4z" id="q"/><path fill="#FFEA97" d="M381.75 414.15q.4-.5.15-1.2-.2-.7-.85-1.05-.7-.3-1.7.3t-1 1.45q0 1.25-.5 2.25-.45.95-.4 1.45.05-.4.4-.7.35-.25.8-.3.7-.1 1.15.35.349.349.25.85.634-2.009 1.7-3.4z" id="s"/><g id="u"><path fill="#373535" d="M353.8 369.8q-.408.072-.6.25-.239-.045-.55.25-.386.388-.35 1 .023.327-.2.35-.258.129-.75.55-.407.417-.65.45-.967.243-1.15.7-.032.17 0 .55.02.134-.05.2-.171.279 0 .45.057.048.2.15.206.194.2.3.088.304.4.35h.05q.288.03.55-.2h.05l.2.05q.367.137.65-.05.313-.166.6-.1.253.087.2.25-.041.319.25.7.354.517.2 1.05-.09.28 0 .65v.05q.159.351.1.5-.027.23-.05.75.022.435-.1.75-.41 1.367.15 1.75.183.137.2.5.139.543.3.65.087.09.2.45.143.357.5.45.217.112.35.3h-.05q.15.368.5.4.267.068.7.3.387.228.75.15h.05q.246-.048.7.15.114.82-.1 2.25v.05l-.15 1.25q-.003.425.95.4.402.03.55-.25.157-.21.05-.7-.16-.997-.1-2.5.465.307.45.6l-.1 1.95q-.024.46.05 1.25.028.225.55.2.43.03.7-.1.33-.149.3-2v-.05q-.125-.674-.2-1.05-.096-.414.3-.6.836-.29 1.25-1 .074-.138.25-.15.23.004.6.15h-.05q.904.6 1.35.35h-.05q.21-.016.6.05.493.14.7-.05.147-.07.5-.05.516.151.7-.05.122-.12.45-.15.487.028.6-.2.092-.062.55-.05h.05q.67.14.9-.1v-.05q.117-.115.4-.1.516.151.7-.05v-.05l-.1 1.75q-.025.426-.2 1.3v.05q-.003.375.95.35.401.021.55-.25.155-.184.05-.6.072-1.837.05-2.7.442-.08.6.15.172.259.55.35.353.154.45.25.516.73.5 1.1l-.05 2q.088.587.6.55 1.172.022 1.2-1.1.034-.162-.3-1.05-.269-.913-.4-2.2.46-.554.35-.8.031-.122.2-.4v.05q.288-.299.2-.6.03-.192.25-.6.235-.404.05-.75-.106-.231.05-.45.187-.294.05-.55v-.05q-.108-.172.05-.45.2-.487.05-.7v.05q-.068-.177 0-.55v.05q.195-.422 0-.75-.113-.167-.05-.4v-.05q.073-.334-.05-.55.166-.285 0-.85-.182-.67-.6-1.1-.413-.412-1.9-1.1-.92-.386-3.85-.05-2.792.42-3.95.2-1.852-.28-3.5.05-.649.11-1.05-.3-.178-.225-.6-.25-.194.022-.25-.2-.098-.303-.4-.45-.243-.057-.35-.3-.047-.265-.5-.3-.306-.018-.4-.15v.05q-.198-.398-.9-.4-.057-.108-.25-.2-.104-.091-.3-.1.03-.253-.15-.4-.166-.15-.55-.2.004-.253-.35-.45-.405-.21-.7-.1-.15-.125-.4-.15h-.05q-.185.066-.3.15-.202-.12-.6-.1m-.4.5q.115-.184.45-.25.333-.015.45.1l.1.15.1-.15q.082-.085.25-.15.195.035.3.15l.05.1.1-.05q.228-.152.55 0 .258.153.2.35v.15h.15q.345.028.5.15.116.108.05.3v.2l.15-.05q.168-.015.25.05h.05q.116.065.1.15l.05.1h.1q.612-.024.8.25.105.218.55.25h.05q.231.022.25.1v.05q.143.357.5.45.198.102.25.3.106.378.5.35.278.025.4.15v.05q.499.489 1.3.35 1.602-.32 3.4-.05 1.192.23 4.05-.2 2.82-.314 3.7.05 1.413.662 1.8 1.05.382.369.55.95.167.524.05.8l-.05.05.05.05q.066.138 0 .4-.087.367.1.65.105.222-.05.5-.082.477.05.7.05.136-.1.45h.05q-.243.422-.05.7.063.143-.05.3-.244.331-.05.7.115.254-.05.55-.277.485-.3.7.05.21-.15.4-.231.372-.25.55l.05.05q.038.154-.35.6l-.05.05v.05q.123 1.378.4 2.35.317.812.3.95-.022.878-.95.85-.288.013-.35-.35l.05-1.95q.034-.43-.55-1.25-.103-.154-.55-.35h-.05q-.273-.059-.4-.25v.05q-.223-.444-.95-.3l-.1.05v.1q.025.85-.05 2.8.09.34 0 .5-.101.128-.35.1-.655.025-.7-.1.176-.88.2-1.3l.1-2-.05-.05q-.238-.053-.4.1-.116.1-.45 0-.467-.036-.65.2-.166.156-.7.05-.696-.036-.8.15-.086.122-.4.1-.473.02-.65.2-.116.1-.45 0-.497-.03-.7.1-.143.109-.5 0-.46-.084-.7-.05v.05q-.354.15-1.1-.35v-.05q-.431-.154-.7-.15-.324.038-.45.3v-.05q-.386.64-1.15.9-.605.264-.45.9.075.374.2 1.05.018 1.546-.15 1.75-.23.12-.6.1-.268.025-.3.05v-.05q-.073-.746-.05-1.2l.1-1.95q.037-.458-.75-.9l-.2-.1v.2q-.077 1.665.1 2.75.093.36 0 .5-.102.17-.35.15-.653.025-.7-.15l.15-1.25q.227-1.561.1-2.45v-.05l-.05-.05q-.663-.247-1-.15-.297.067-.6-.1-.467-.269-.75-.35-.2-.019-.3-.25v-.05q-.167-.262-.45-.4-.243-.057-.35-.3-.137-.44-.25-.55h-.05q-.089-.092-.2-.5-.033-.488-.3-.65-.39-.316-.05-1.45v-.05q.127-.335.1-.8.027-.481.05-.7.091-.201-.1-.65-.06-.28 0-.5v-.05q.188-.628-.25-1.25-.209-.269-.2-.5.097-.387-.4-.55-.363-.084-.75.15h-.05q-.167.113-.4 0-.417-.113-.5 0-.188.17-.4.15-.14-.013-.2-.15.026-.163-.25-.45h-.05q-.107-.098-.15-.15-.03-.028 0-.1v.05q.13-.134.1-.4v-.05q-.017-.276 0-.4.167-.343.95-.55.307-.017.8-.5h-.05q.458-.379.7-.5.377-.043.35-.6-.014-.488.3-.8.209-.23.35-.15l.15.05.05-.1z"/><path fill="#83509E" d="M353.85 370.05q-.335.066-.45.25l-.05.1-.15-.05q-.141-.08-.35.15-.314.312-.3.8.027.557-.35.6-.242.121-.7.5h.05q-.493.483-.8.5-.783.207-.95.55-.017.124 0 .4v.05q.03.266-.1.4v-.05q-.03.072 0 .1.043.052.15.15h.05q.276.287.25.45.06.137.2.15.212.02.4-.15.083-.113.5 0 .233.113.4 0h.05q.387-.234.75-.15.497.163.4.55-.009.231.2.5.438.622.25 1.25v.05q-.06.22 0 .5.191.449.1.65-.023.219-.05.7.027.465-.1.8v.05q-.34 1.134.05 1.45.267.162.3.65.111.408.2.5h.05q.113.11.25.55.107.243.35.3.283.138.45.4v.05q.1.231.3.25.283.081.75.35.303.167.6.1.337-.097 1 .15l.05.05v.05q.127.889-.1 2.45l-.15 1.25q.047.175.7.15.248.02.35-.15.093-.14 0-.5-.177-1.085-.1-2.75v-.2l.2.1q.787.442.75.9l-.1 1.95q-.023.454.05 1.2v.05q.032-.025.3-.05.37.02.6-.1.168-.204.15-1.75-.125-.676-.2-1.05-.155-.636.45-.9.764-.26 1.15-.9v.05q.126-.262.45-.3.269-.004.7.15v.05q.746.5 1.1.35v-.05q.24-.034.7.05.357.109.5 0 .203-.13.7-.1.334.1.45 0 .177-.18.65-.2.314.022.4-.1.104-.186.8-.15.534.106.7-.05.183-.236.65-.2.334.1.45 0 .162-.153.4-.1l.05.05-.1 2q-.024.42-.2 1.3.045.125.7.1.249.028.35-.1.09-.16 0-.5.075-1.95.05-2.8v-.1l.1-.05q.727-.144.95.3v-.05q.127.191.4.25h.05q.447.196.55.35.584.82.55 1.25l-.05 1.95q.062.363.35.35.928.028.95-.85.017-.138-.3-.95-.277-.972-.4-2.35v-.05l.05-.05q.388-.446.35-.6l-.05-.05q.019-.178.25-.55.2-.19.15-.4.023-.215.3-.7.165-.296.05-.55-.194-.369.05-.7.113-.157.05-.3-.193-.278.05-.7h-.05q.15-.314.1-.45-.132-.223-.05-.7.155-.278.05-.5-.187-.283-.1-.65.066-.262 0-.4l-.05-.05.05-.05q.117-.276-.05-.8-.168-.581-.55-.95-.387-.388-1.8-1.05-.88-.364-3.7-.05-2.858.43-4.05.2-1.798-.27-3.4.05-.801.139-1.3-.35v-.05q-.122-.125-.4-.15-.394.028-.5-.35-.052-.198-.25-.3-.357-.093-.5-.45v-.05q-.019-.078-.25-.1h-.05q-.445-.032-.55-.25-.188-.274-.8-.25h-.1l-.05-.1q.016-.085-.1-.15h-.05q-.082-.065-.25-.05l-.15.05v-.2q.066-.192-.05-.3-.155-.122-.5-.15h-.15v-.15q.058-.197-.2-.35-.322-.152-.55 0l-.1.05-.05-.1q-.105-.115-.3-.15-.168.065-.25.15l-.1.15-.1-.15q-.117-.115-.45-.1z"/></g><path fill="#FFF" d="M356.05 370.75q.05-.3-.3-.45-.35-.2-.6 0-.15-.2-.4-.2-.2.05-.3.2-.2-.2-.6-.15-.4 0-.5.25-.25-.1-.55.2-.3.3-.25.8 0 .45-.25.5-.3.05-.7.5-.45.4-.65.45-.95.2-1.05.55-.05.15 0 .45 0 .2-.1.3-.1.1.05.25.15.15.35.1.25-.05 1.15.05 1-.25 1.05-.25.15.05.35-.05.25-.05.2-.2-.05-.15-.35-.2-.3-.1-.45 0-.4.2-.8.05-.1 0 .15-.15.55 0 .55-.15-.25-.25-.15-.25.25-.05.6.1.1.1.35.1.3-.05.45-.2.3-.3.3.05.05.1.25.15.2 0 .25-.15.25-.55.1-.65-.15-.1-.2-.3-.1-.25-.2-.3-.15-.1-.25-.35-.15-.2-.1-.3.1-.1.3-.05.2.1.3.25.15.3.5.3.25-.05.5.2.15.15.4-.05.1-.15.6-.2.55-.05.7.1.45.4.8.1.15-.1-.05-.25-.25-.15-.25-.3-.1-.4-.55-.3.1-.55-.65-.55z" id="v"/><path fill="#FFF" d="M359.95 373.6q-.1-.05-.35.15-.2.25-.35.15-.05 0 .1-.6.1-.15-.05-.15-.15-.05-.4.2-.35.3-.6 1.15-.1.3-1.05 1.1-.25.2-.35.2-.15-.05 0-.15.1-.05.7-.65.15-.1.1-.1-.1 0-.35.15-.8.7-1.55.85-.25.1-.3.05 0-.05.25-.15.25-.05.75-.4.5-.35.65-.55.1-.15-.35 0-.6.15 0-.15.25-.05.85-.65.55-.6.7-.9.3-.55-.1-.55-.3.1-.3-.05.05-.1 0-.2-.1-.15-.2-.1-.2.1-.25.7-.05.15-.25.3-.25.15-.4.15-.55 0-.85.25-.15.15-.25.1-.1-.05 0-.2.1-.15.65-.25.5 0 .8-.3.35-.45.05-.45-.2 0-.55-.35-.3-.3-.9 0-.45.2-.75.6l-1.05.95q-.15.15-.1.2.1.1.3-.1.25-.2.3-.15.1.1-.15.3-.65.45-.45.65.25.25.75-.15.25-.15.2.05-.05.2-.4.25-.3.1-.35.15-.1.1.15.1.25.05.85-.25.25-.15.4-.1.15.05-.05.2-.65.45-1.15.45-.15 0-.1.2 0 .2-.1.25-.2.1-.15.25 0 .2.2.3.35.25 1 .15.2-.05.25 0 .05.05-.1.15-.1.1.05.15.25.1.2.2 0 .2.4.2.25-.05.75-.35.2-.1.25-.05.1.05-.05.25-.55.65-1.6.55-.45-.05-.65.1-.25.1-.15.25.25.4 1.15.15.2-.05.2.05t-.2.2q-.25.15-.9.15-.25-.05-.35.15-.15.2.15.3.4.15 1.15.2.1.05.5.05.3 0 .3.15.1.4-.5.3-.25 0-.2.1 0 .05.2.15.25.1.9.1.15-.05.1.1 0 .15-.2.2-.5.25-1.3.25-.3-.05-.15.1.1.15.45.15 1.4 0 2.25-1.35.1-.2.3-.25.25-.1.3 0 .1.25-.05.35-.4.2.15.2.6 0 .95-.15.2-.1.5.15t-.1.3q-1.4 0-2.85.65-1.2.55-1.6.5-.6 0-.35.35.25.25.8.05.35-.05.15.2-.15.15-.85.25-.2.05-.3.15-.05.15.1.2.2.1.2.2 0 .15.15.2.1.05.1.2 0 .15.15.2.45.15.75-.15.4-.3.65-.25.35 0 .55-.3.15-.2.4-.35.3-.15.4-.05.05.05.3 0t.25.05q.05.05.25.1.15.05.2.2.1.4.6.2.35-.15.35-.65 0-.8.2-.1.05.25.2.35.2.05.3-.05.1-.15.15-.5.05-.35-.05-.55-.2-.6-.05-.7.15-.1.5.8.1.2.25.15.15-.05.15-.25t.15-.25q.15-.1.3.05.2.2.1 1.2.05.15.35.1.3-.1.3-.05.05.1.15.05.15 0 .2-.15.05-.2.15-.3.15-.1.2 0l.35.6q.05.2.2.25.15.05.25-.15.3-.5.2-1.1-.05-.3 0-.4.05-.15.15 0 .15.15.15 1.1 0 .35.25.25.2-.05.2-.5 0-.2.1-.25.05-.1.05.05l.1.55q.05.2.25.15.2-.05.25-.2 0-.7-.15-1.25-.05-.25.05-.35.1-.15.2 0 .15.25.15 1.1.05.8.45.4.2-.2.1-.85-.05-.2.05-.25.1 0 .2.1.05.15.15.1.1-.05.05-.15 0-.45.25-.1.15.2.05 1-.05.25.15.25.2.05.35-.2.15-.25.1-.75 0-.45-.15-.7-.25-.3-.05-.9.05-.2.15-.25.1-.05.1.05 0 .2.25.55.2.2.25-.05.1-.5.2 0 .1.4.3.15.1-.1.2 0 .1.05 0 .25-.15.35-.05.75.1.2.2.2.15 0 .2-.25.05-.8.2.05.05.2.15.2.1.05.15-.1.1-.3.1 0t.2.3q.1 0 .15-.2.1-.3.1-.35.05-.3.4.55.05.2.3.35.25.2.5.8.15.3.35.2.15-.15.15-.3-.1-.25.25-.25.45 0 .3-.25l-.05-.85q0-.75.1-.35.1.5.35.65.2.1.25-.1.1-.2-.05-.4-.4-.65-.4-1.4 0-.25.1-.2.05 0 .05.25 0 .7.35.85.15.05.2-.2.1-.25 0-.45-.25-.6.05-.65.2-.1-.25-.55-.3-.4.05-.4.25 0-.1-.35-.45-.45 0-.4.5.05.1-.35-.15-.1-.15-.2 0-.15.2-.15.55 0 .4-.25-.05-.3-1.2-1.45-.75-.75-1.4-.85-.25-.05-.3.1-.1.1 0 .25.1.1.2.15.1.05.1-.05.1-.3.45.2.15.25.85.75.25.2-.1.1t-.55-.3q-.15-.15-.15 0 0 .1.2.3.2.2.05.25-.15.05-.35-.1l-1.35-1.2q-.45-.45-.45-.05-.05.25.4.65l.85.75q.2.15.1.25-.15.05-.25-.05l-1-.9q-.55-.45-.85-.4-.3.1.1.5.5.65.5.95 0 .2-.1.25-.15.05-.2-.25-.1-.5-1-1.5-.5-.55-1-.45-.3 0-.3.6 0 .2-.1.1-.05-.05-.1-.2 0-.15-.1-.25-.15-.1-.25-.05-.1 0-.1.55-.2.6-.2-.05 0-.5-.65-.65-.4 0-.25.25.15.35-.05.9-.05.2-.15-.05-.1-.25-.15-.65 0-.35-.4-.55-.35-.2-.7-.1-.25.1-.2.3l.05.45q-.15.45-.25-.3-.1-.55-.55-.45-.5.15-.5.45.05.35-.05.75-.05.25-.1.2-.05-.05-.05-.25 0-.5-.15-.8-.05-.15-.1-.05-.05.1-.05.3.1.55-.1 1.25-.1.3-.2.3-.05-.05 0-.4.1-.85-.35-1.6-.1-.2-.25-.2-.2-.05-.2.2 0 .5.35.85.2.2.1.6-.1.35-.3.6-.3.4-.15-.5.05-.25-.55-.55-.1 0 .05-.3.2-.35.25-.6.1-.4-.2-.4-.3 0-.75.8.1-.65-.15-.65t-.45.55q-.1.2-.15.1-.1-.05 0-.25.15-.2.2-.55.05-.4-.1-.5z" id="w"/><path fill="#83509E" d="M355.65 372.8q-.25.3-.2.35.1.1.25-.1.25-.35.8-.25.5.15 0-.25-.35-.3-.85.25z" id="x"/><path fill="#83509E" d="M350.35 373.8q0 .25.15.05.6-.25.8-.55.15-.2.1-.25-.1-.05-.25.15-.1.15-.35.3-.35.15-.45.3z" id="y"/><path fill="#83509E" d="M353.7 372.65q-.15-.05-.5-.4-.15-.2-.4-.2-.25.05-.35.25-.3.4-.6.4-.4.15.05.2.4 0 .75-.55.2-.2.35-.05l.55.45q-.2.15-.5.05-.1-.05-.1-.15 0-.1.05-.15.15-.1-.15-.1-.3.35-.4.35-.2.2.1.1l.5.1q.3.1.55 0 .35-.15.1-.3z" id="z"/><path fill="#83509E" d="M360.45 375.2q-.1-.1-.2.05l-.25.6q.15.3.15.1.1-.4.25-.55.1-.15.05-.2z" id="A"/><path fill="#83509E" d="M358.6 375.25q-.1.05-.05.1t.15 0l.5-.35q.1-.1.05-.15-.05-.05-.15.05l-.5.35z" id="B"/><path fill="#83509E" d="M359 375.95q-.05-.05-.15.05-.15.2-.6.6-.4.4-.6.45-.15.1-.1.2 0 .05.2 0-.35.35-.85.55-.2.05-.2.15 0 .1.3 0 .65-.25 1.1-.7-.05-.25.15-.45l.75-.65q.05-.15 0-.2z" id="C"/><path fill="#83509E" d="M358 378.2q-.2.1-.05.15.15 0 .3-.1.7-.7.85-1 .1-.2.05-.25-.1 0-.15.15-.55.85-1 1.05z" id="D"/><path fill="#83509E" d="M364.2 374.95q-.05-.15-.15.1-.1.5-.05.85.15.35.15.05-.1-.6.05-.75.1-.1 0-.25z" id="E"/><path fill="#83509E" d="M365.7 375.65q-.15.05-.05.2.2.15.2 1.05 0 .2.1.2.1-.05.1-.3 0-.65-.15-1.05-.05-.2-.2-.1z" id="F"/><path fill="#83509E" d="M367.15 376.05q-.1 0-.05.2.2.4.2.75 0 .2.1.15.05-.1.05-.3.05-.35-.1-.7-.1-.15-.2-.1z" id="G"/><path fill="#83509E" d="M367.95 376.25q.1-.05 0-.2-.1-.4-.25-.35-.1 0 .1.4.1.15.15.15z" id="H"/><path fill="#83509E" d="M362.6 377.35q-.15-.1-.2.2 0 .95-.6 1.2-.25.15-.2.25.05.15.35-.05.65-.55.7-1.2.1-.3-.05-.4z" id="I"/><path fill="#83509E" d="M361.9 377.35q-.05-.2-.15-.05-.25.25-.25.9 0 .35.15-.1 0-.45.2-.5.1-.1.05-.25z" id="J"/><path fill="#83509E" d="M373.25 377.65q-.1-.2-.15-.1-.05.15.05.25l.4.9q.05.2.1.15.1 0 .05-.2l-.45-1z" id="K"/><g id="L"><path fill="#373535" d="M352.9 386.25l-.1.15q-.13.432-.1 1.1-.487-.697-1.15-1.1l-.15-.15-.05.2q-.02.406.05.9l-1-.45.05.25q.18.8.75 1.55.522.746 1.15 1.05 2.56 1.18 11.8 1.35 9.365.17 10.7-1.25 1.915.118 3.05-1l.15-.15-.15-.05q-.436-.228-1.2-.3.254-.283.4-.6l.1-.2-1.05.15.15-.8-.2.05q-.299.14-.65.35.043-.255-.05-.55l-.05-.2-.15.15q-.374.32-.7.7l-.1-.7-.2.15q-.212.155-.5.5-.072-.391-.3-.8l-.1-.15-.1.15q-.102.17-.2.3.018-.024 0-.1l.05-.25-.7.45q-.102-.313-.35-.75l-.1-.15-.1.2q-.176.311-.3.65-.066-.302-.2-.55l-.1-.2-.1.15q-.31.357-.55.8.012-.335-.1-.6l-.05-.25-.8 1.15-.5-1-.1.3q-.143.44-.25.85-.103-.525-.3-.9l-.1-.25-.1.2q-.442.732-.6 1.85l-.1-.2q.28-.753.15-1.45v-.2l-.7.55-.75-.85-.05.25q-.042.56 0 1.05-.14-.513-.4-1l-.1-.25-.1.25q-.261.487-.4 1-.096-.5-.25-.8l-.1-.2-.1.15q-.112.193-.2.35-.04-.37-.2-.7l-.05-.2-.15.15q-.247.26-.45.5l-.05-.7-.2.15q-.433.33-.75.85-.113-.374-.3-.7l-.1-.2-.1.15q-.15.224-.3.5v-.05l-.15.15q-.357.19-.7.55-.013-.46-.15-.9l-.05-.2-.15.15q-.454.398-.75 1-.05-.416-.2-.7l-.05-.2-.15.15q-.481.49-.75 1.2-.146-.497-.3-.75l-.1-.15-.1.15q-.168.298-.3.6-.017-.276-.1-.55l-.05-.2-.5.5-.35-.65-.1.2q-.14.24-.25.55-.09-.425-.25-.7l-.1-.2-.1.15q-.29.386-.45.8-.251-.704-.5-1.1l-.15-.2-.35.95q-.134-.687-.45-1.1l-.15-.15-.05.15q-.262.477-.4.9-.337-.645-.7-.9l-.1-.1m-1.5 2.3q-.436-.571-.6-1.2l.95.45-.05-.25q-.088-.457-.1-.85.656.489 1.1 1.3l.05.05.2.4h.05l-.05-.45q-.053-.815.05-1.35.332.338.65 1 .037.025.05.05l.15.35.05-.4q.063-.482.3-1 .303.51.4 1.3l.1.5.45-1.35q.255.435.45 1.15l.15.45.1-.45q.145-.497.4-.95.194.437.25 1.05v.05l.05.5h.15l.05-.5q.097-.519.25-.9l.25.4.05.15.4-.4q.093.534-.05 1.1v.05q-.02.106-.05.25h.25q.02-.09 0-.15.065-.026.05-.1.188-.597.5-1.15.135.306.25.85l.15.45.1-.45q.237-.76.7-1.3.116.385.1.95v.5l.1.05.15-.45q.272-.803.75-1.3.123.438.1.95v.35l.25-.3q.298-.394.6-.65.09-.03.15-.1-.065.237-.15.45v.55h.15l.1-.5q.182-.602.4-1 .165.4.25.8l.1.35.15-.3q.257-.55.65-.9l.1 1 .2-.35q.163-.299.45-.6.15.506.05 1.15l-.05.5.2.05.1-.5q.136-.426.3-.8.202.493.25 1.35l.05.5h.2v-.5q.063-.81.4-1.55.337.746.35 1.6l.05.4.4-.7v-.1q-.095-.57-.05-1.2l.5.6.55-.4q.024.517-.2 1.1v.05l.5 1.05.05-.45q.106-1.127.45-1.85.247.587.35 1.5l.1.5h.15v-.55q.033-.647.25-1.35l.4.85.75-1.1q.086.518-.05 1.2l-.05.5.2.05.1-.5q.195-.859.65-1.45.145.386.2.9l.1.5h.1l.05-.5q.1-.535.3-1 .201.36.25.6l.05.2.5-.35q-.08.539-.3 1l.1 1.3h.15l.05-.5q.111-1.132.6-1.9.188.383.2.75l.05.3.2-.25q.24-.315.45-.5l.1.8.2-.25q.322-.379.7-.75.042.305-.05.55l-.05.35.25-.2q.338-.239.6-.4l-.1.7.9-.15q-.167.282-.45.55l-.2.2h.3q.766.02 1.2.15-1.067.961-2.8.85h-.05l-.05.05q-1.19 1.377-10.55 1.2-9.16-.18-11.7-1.35v.05q-.572-.296-1.05-1m14.85-.4l.05-.05-.05.05z"/><path fill="#00885F" d="M350.8 387.35q.164.629.6 1.2.478.704 1.05 1v-.05q2.54 1.17 11.7 1.35 9.36.177 10.55-1.2l.05-.05h.05q1.733.111 2.8-.85-.434-.13-1.2-.15h-.3l.2-.2q.283-.268.45-.55l-.9.15.1-.7q-.262.161-.6.4l-.25.2.05-.35q.092-.245.05-.55-.378.371-.7.75l-.2.25-.1-.8q-.21.185-.45.5l-.2.25-.05-.3q-.012-.367-.2-.75-.489.768-.6 1.9l-.05.5h-.15l-.1-1.3q.22-.461.3-1l-.5.35-.05-.2q-.049-.24-.25-.6-.2.465-.3 1l-.05.5h-.1l-.1-.5q-.055-.514-.2-.9-.455.591-.65 1.45l-.1.5-.2-.05.05-.5q.136-.682.05-1.2l-.75 1.1-.4-.85q-.217.703-.25 1.35v.55h-.15l-.1-.5q-.103-.913-.35-1.5-.344.723-.45 1.85l-.05.45-.5-1.05v-.05q.224-.583.2-1.1l-.55.4-.5-.6q-.045.63.05 1.2v.1l-.4.7-.05-.4q-.013-.854-.35-1.6-.337.74-.4 1.55v.5h-.2l-.05-.5q-.048-.857-.25-1.35-.164.374-.3.8l-.1.5-.2-.05.05-.5q.1-.644-.05-1.15-.287.301-.45.6l-.2.35-.1-1q-.393.35-.65.9l-.15.3-.1-.35q-.085-.4-.25-.8-.218.398-.4 1l-.1.5h-.15v-.55q.085-.213.15-.45-.06.07-.15.1-.302.256-.6.65l-.25.3v-.35q.023-.512-.1-.95-.478.497-.75 1.3l-.15.45-.1-.05v-.5q.016-.565-.1-.95-.463.54-.7 1.3l-.1.45-.15-.45q-.115-.544-.25-.85-.312.553-.5 1.15.015.074-.05.1.02.06 0 .15h-.25q.03-.144.05-.25v-.05q.143-.566.05-1.1l-.4.4-.05-.15-.25-.4q-.153.381-.25.9l-.05.5h-.15l-.05-.5v-.05q-.056-.613-.25-1.05-.255.453-.4.95l-.1.45-.15-.45q-.195-.715-.45-1.15l-.45 1.35-.1-.5q-.097-.79-.4-1.3-.237.518-.3 1l-.05.4-.15-.35q-.013-.025-.05-.05-.318-.662-.65-1-.103.535-.05 1.35l.05.45h-.05l-.2-.4-.05-.05q-.444-.811-1.1-1.3.012.393.1.85l.05.25-.95-.45z"/></g><g id="M"><path fill="#373535" d="M378.5 399.55q-2.065-.727-3.25-1-2.172-.379-3.55.4-1.49.834-3.35 1.1-1.605.27-2.2-.05-.888-.564-1.55-.9v.05q-1.178-.622-2.1-.65-.973.028-2.15.65-1.149.649-1.55.85h-.05q-.545.32-2.2.05-1.81-.266-3.3-1.1-1.378-.779-3.6-.4-1.085.274-3.25 1l-.1.05v.15q.937 2.513 2.2 4.6l.05.15.1-.1q1.048-.921 2.7-.95 1.502-.024 2.35.6.89.619 2.65.8 1.921.286 3.1-.3 1.574-.78 3.05-.8 1.426.02 3 .8 1.179.586 3.05.3 1.81-.181 2.65-.8.898-.624 2.4-.6 1.652.029 2.65.95l.1.1.1-.15q1.364-2.2 2.1-4.65l.05-.1-.1-.05m-.2.2q-.725 2.287-2 4.35-1.036-.879-2.7-.9-1.598-.026-2.55.65-.81.58-2.55.75-1.779.263-2.9-.3v.05q-1.626-.82-3.1-.85-1.524.03-3.15.85v-.05q-1.121.563-2.95.3-1.69-.17-2.55-.75-.902-.676-2.5-.65-1.663.021-2.75.9-1.129-1.977-2-4.35 2.067-.681 3.1-.95 2.128-.371 3.45.35 1.51.866 3.35 1.15 1.795.28 2.4-.1.399-.2 1.55-.85 1.122-.578 2.05-.6.878.022 2 .6.638.313 1.5.85.655.38 2.4.1 1.89-.284 3.4-1.15 1.322-.721 3.4-.35 1.134.27 3.1.95z"/><path fill="#FFF" d="M376.3 404.1q1.275-2.063 2-4.35-1.966-.68-3.1-.95-2.078-.371-3.4.35-1.51.866-3.4 1.15-1.745.28-2.4-.1-.862-.537-1.5-.85-1.122-.578-2-.6-.928.022-2.05.6-1.151.65-1.55.85-.605.38-2.4.1-1.84-.284-3.35-1.15-1.322-.721-3.45-.35-1.033.269-3.1.95.871 2.373 2 4.35 1.087-.879 2.75-.9 1.598-.026 2.5.65.86.58 2.55.75 1.829.263 2.95-.3v.05q1.626-.82 3.15-.85 1.474.03 3.1.85v-.05q1.121.563 2.9.3 1.74-.17 2.55-.75.952-.676 2.55-.65 1.664.021 2.7.9z"/></g><g id="N"><path fill="#373535" d="M345.1 390.85v1.3q.024 1.863.2 3.3l.05.1h.1q1.484.028 3.35-1.25 1.546-.93 2.6-1.1 1.121-.118 2.05.6 1.143.868 2.95 1.2 2.074.43 3.25-.25 1.474-.73 2.85-.75 1.473.02 2.8.75 1.175.68 3.2.25 1.857-.332 2.95-1.2.98-.719 2.1-.6 1.054.17 2.55 1.1 1.967 1.278 3.35 1.25h.1v-.1q.276-1.336.25-3.3v-1.3h-.1q-1.96.024-3.65-1.25-1.197-.92-2.75-1.15-1.834-.232-3.15.75-1.193.875-2.8.8-1.259-.069-2.25-.65-1.773-1.13-2.6-1.15-.776.02-2.7 1.15-.893.58-2.2.65-1.607.075-2.85-.8-1.266-.982-3.15-.75-1.503.23-2.75 1.15-1.64 1.274-3.6 1.25h-.15m.25 1.3v-1.05q1.994-.015 3.65-1.3 1.203-.88 2.65-1.1 1.766-.218 2.95.7 1.307.924 3 .85 1.393-.08 2.35-.7 1.826-1.07 2.55-1.1.772.03 2.45 1.1 1.059.619 2.4.7 1.693.074 2.95-.85 1.234-.918 2.95-.7 1.497.22 2.65 1.1 1.706 1.286 3.65 1.3v1.05q.024 1.862-.2 3.15-1.292-.027-3.1-1.2-1.554-.97-2.65-1.15-1.23-.131-2.3.65-1.057.832-2.85 1.15-1.926.42-3.05-.2-1.373-.77-2.9-.8-1.424.03-2.95.8-1.125.62-3.1.2-1.743-.318-2.85-1.15-1.022-.782-2.25-.65-1.096.18-2.7 1.15-1.713 1.174-3.1 1.2-.174-1.379-.2-3.15z"/><path fill="#FFF" d="M345.35 391.1v1.05q.026 1.771.2 3.15 1.387-.026 3.1-1.2 1.604-.97 2.7-1.15 1.228-.132 2.25.65 1.107.832 2.85 1.15 1.975.42 3.1-.2 1.526-.77 2.95-.8 1.527.03 2.9.8 1.124.62 3.05.2 1.793-.318 2.85-1.15 1.07-.781 2.3-.65 1.096.18 2.65 1.15 1.808 1.173 3.1 1.2.224-1.288.2-3.15v-1.05q-1.944-.014-3.65-1.3-1.153-.88-2.65-1.1-1.716-.218-2.95.7-1.257.924-2.95.85-1.341-.081-2.4-.7-1.678-1.07-2.45-1.1-.724.03-2.55 1.1-.957.62-2.35.7-1.693.074-3-.85-1.184-.918-2.95-.7-1.447.22-2.65 1.1-1.656 1.285-3.65 1.3z"/></g><g id="O"><path fill="#373535" d="M371.15 410.35h-.35q-1.388.023-2.8-.35-1.44-.316-2.15-.85-1.407-1.074-3.35-1.1-1.891.026-3.45 1.1-.66.534-2.15.85-1.362.373-2.75.35h-.4l.3.25q3.647 2.766 8.4 4.1h.05q4.803-1.384 8.35-4.1l.3-.25m-3.2-.1q1.253.33 2.45.35-3.389 2.535-7.9 3.85-4.515-1.269-8-3.85 1.246-.019 2.45-.35 1.56-.334 2.25-.9 1.491-1.026 3.3-1.05 1.857.024 3.2 1.05.74.566 2.25.9z"/><path fill="#FFF" d="M370.4 410.6q-1.197-.02-2.45-.35-1.51-.334-2.25-.9-1.343-1.026-3.2-1.05-1.809.024-3.3 1.05-.69.566-2.25.9-1.204.331-2.45.35 3.485 2.581 8 3.85 4.511-1.315 7.9-3.85z"/></g><path fill="#FFEA97" d="M351.2 402.5l-.85-3.3q-.15-.5-.35-.45-.2.05-.05.55l.85 3.3q.15.45.35.4.15-.05.05-.5z" id="P"/><path fill="#FFEA97" d="M352.25 402.15l.3-.3-4.7-1.7q-.35-.1-.4-.05-.1.1.3.25l4.5 1.8z" id="R"/><path fill="#FFEA97" d="M356.95 391q-.2 0-.2.65l-.25 11.8.55.35.05-12.15q0-.6-.15-.65z" id="T"/><path fill="#FFEA97" d="M362.8 389.4q-.2 0-.2.65l-.25 16.6.55.35.05-16.95q0-.6-.15-.65z" id="V"/><path fill="#FFEA97" d="M368.6 390.7q-.2-.05-.2.65l-.45 14.25.55.05.25-14.3q0-.6-.15-.65z" id="X"/><path fill="#FFEA97" d="M372.9 400.8l.2-.05.05-2.75q0-.3-.1-.35-.1-.05-.1.3l-.05 2.85z" id="Z"/><path fill="#FFEA97" d="M372.95 403.35l-3.3-.05q-1.95 3.3-6.3 3.2-4.05-.05-6.3-2.7 0-.45-.55-.6l-3.85-1.4q-.4-.15-.55.3-.15.5.4.7-.1.3.2.5.25.25.6.15.4.3.7-.1.25.05.75.25.2 2.75 2.65 4.5 2.25 1.6 5.45 1.75 7.7.35 10.1-6.5z" id="ab"/><path fill="#FFEA97" d="M375.8 400.3q-.05-.25-.55-.2l-5.1 1q-.3.05-.3.25-.05.2.1.3l-.25 1.25q-.3.1-.25.35.05.25.4.2l4.95-.15q.45 0 .5-.35 0-.35-.35-.35l.6-1.95q.3-.15.25-.35z" id="ad"/><path fill="#FFF" d="M355.1 393.95q.2.2.6.2.4 0 .6-.1.45.35.9.25.4-.1.5-.55.45.1.9-.2.45-.35.45-.85l-3.95 1.25z" id="af"/><path fill="#FFF" d="M359.65 394.2l-5.25 1.6q-.65 2.05.45 3.15.6-1 1.8-1.25 1.15-.25 2.3.2-.55-.6-.25-1.75.25-1 .95-1.95z" id="ah"/><path fill="#FFF" d="M359.15 398.9q.4-.35.45-.95l-5.3 1.4q.25.35.75.5.55.15.85-.05.65.5 1.4.25.7-.25.95-.8.55.05.9-.35z" id="aj"/><path fill="#FFF" d="M362.9 393.15q.4-.1.6-.5.65.05 1.05-.4.35-.4.35-1l-4.45 1.35q.35.35.8.45.5.1.8-.15.4.4.85.25z" id="al"/><path fill="#FFF" d="M364.35 395.8q.2-1.25 1.3-2.8l-5.05 1.35q-.8 3 .35 4.35.45-.95 1.7-1.25 1.3-.25 2.45.5-.95-.7-.75-2.15z" id="an"/><path fill="#FFF" d="M364.5 399.15q.45-.3.6-.95l-4.6.8q.1.35.5.45.4.05.6-.1.5.55 1.1.5.6-.05.95-.6.4.15.85-.1z" id="ap"/><path fill="#FFF" d="M370.1 392.8q.35-.3.4-.7l-4.05 1.25q.55.6 1.2.2.4.25 1 .05.55-.15.7-.55.4.05.75-.25z" id="ar"/><path fill="#FFF" d="M370.75 393.65l-4.55 1.1q-.55 1.1-.6 2.35-.1 1.35.4 2.15.7-1.1 2.3-1.4 1.45-.25 2.35.4-.55-.85-.6-2.2-.05-1.55.7-2.4z" id="at"/><path fill="#FFF" d="M370.2 399.4q.45-.3.5-.9l-5.2.9q.2.5.8.6.5.1.85-.1.6.4 1.25.25.6-.1.9-.65.5.1.9-.1z" id="av"/><path fill="#FFF" d="M356.75 392.65v-1.1q-.1.05-1.25.3-.8.15-.95.9.35-.2 1.25-.1.85.1.95 0z" id="ax"/><path fill="#FFF" d="M362.6 391.1v-1.15q-.05.05-1.25.3-.8.15-.95.95.4-.25 1.25-.15t.95.05z" id="az"/><path fill="#FFF" d="M368.35 392.35l.05-1.1q-.1.05-1.3.25-.75.15-.95.9.35-.2 1.25-.1.85.15.95.05z" id="aB"/><path fill="#FFF" d="M372.9 398.75l.05-.85q-.1.05-1 .2-.6.1-.75.7.3-.15.95-.1.7.1.75.05z" id="aD"/><path fill="#373535" d="M370.95 401.8l-.55.1v.9l.55-.05v-.95z" id="aF"/><path fill="#373535" d="M371.85 401.6l-.5.1v1l.5-.1v-1z" id="aG"/><path fill="#373535" d="M372.8 401.45l-.55.1v1.05l.55-.1v-1.05z" id="aH"/><path fill="#373535" d="M373.75 401.25l-.55.1v1.1l.55-.05v-1.15z" id="aI"/><path fill="#373535" d="M374.65 401.05l-.5.1v1.2l.5-.1v-1.2z" id="aJ"/><path fill="#21467B" d="M348.15 412.15v.05q.2.2.1.35l-.85 1.35q-.1.15-.4.05v.05l.85.55q1 .7 1.6-.3.65-.95-.4-1.55l-.9-.55m.6.6q.1-.05.15 0l.15.1q.45.35-.05 1.15-.55.85-1 .5l-.15-.1q-.1-.1-.05-.15l.95-1.5z" id="cn"/><path fill="#21467B" d="M351.15 414.55l-.05-.05q-.25.35-.7.2l.35-.65q.1-.2.2-.15l.25.15q.55.25.25.75l.1.05.3-.6-1.75-.9v.05q.25.25.15.4l-.7 1.4q-.15.2-.4.1l-.05.05 1.75.85.45-.5-.05-.05q-.5.4-.95.2l-.25-.15q-.1-.05 0-.25l.3-.65q.45.15.25.7h.1l.45-.95z" id="co"/><path fill="#21467B" d="M353.35 414.85h-.05q-.1.15-.2.05l-.4-.3q-.6-.25-.85.35-.2.4.25.85.45.35.3.65-.15.3-.5.15-.5-.25-.35-.9h-.05l-.3.7h.05q.1-.05.2 0l.4.3q.75.2.95-.3.2-.5-.25-.85-.4-.4-.3-.7.1-.25.4-.15.4.1.35.75l.1.05.25-.65z" id="cp"/><path fill="#21467B" d="M353.5 415q.25.15.2.35l-.5 1.5q-.15.2-.4.1v.1l1.1.35v-.05q-.25-.1-.2-.35l.5-1.5q.05-.2.4-.1v-.1l-1.1-.35v.05z" id="cq"/><path fill="#21467B" d="M354.2 417.45l-.05.1 1.05.25v-.05q-.2-.1-.15-.3l.15-.7h.1l.4 1.2.6.15.05-.05-.1-.05-.4-1.15q.5 0 .65-.4.15-.55-.75-.8l-1.05-.25v.05q.25.15.2.3l-.4 1.55q-.05.25-.3.15m1.05-.8l.2-.8q.05-.1.25-.1.4.1.3.55-.15.45-.75.35z" id="cr"/><path fill="#21467B" d="M356.95 416v.05q.25.15.25.3l-.3 1.55q0 .2-.35.2v.05l1.9.35.3-.65h-.1q-.35.55-.8.45l-.35-.05q-.1-.1-.05-.25l.15-.75q.05.05.25.1.2.15.15.5l.1.05.2-1.1h-.1q-.15.5-.6.35l.1-.7q.05-.2.15-.2l.35.05q.5.15.45.7h.1l.1-.65-1.9-.35z" id="cs"/><path fill="#21467B" d="M360.3 416.6h.15l-.15 1.8q0 .2-.25.2l-.05.1 1.05.05.05-.05q-.3-.1-.25-.3l.1-1.75h.1q.2 0 .35.15.2.2.15.4h.1v-.6l-1.9-.15-.05.65h.05q.05-.5.55-.5z" id="ct"/><path fill="#21467B" d="M362.75 416.65v-.05h-1.1v.05q.3.1.3.25l.05 1.6q0 .15-.3.25v.05h1.1v-.1q-.3 0-.3-.25v-.75h.8v.75q0 .25-.25.25v.1l1.05-.05v-.05q-.25 0-.25-.25l-.05-1.6q0-.15.3-.25v-.05H363v.1q.3 0 .3.25v.65l-.8.05v-.7q0-.25.25-.25z" id="cu"/><path fill="#21467B" d="M365.2 417.5l-.1-.75q0-.2.1-.2l.3-.05q.6 0 .65.5h.1l-.1-.65-1.9.2v.05q.3 0 .35.2l.15 1.6q.05.2-.3.3l.05.05 1.9-.2.1-.7h-.1q-.2.55-.65.65l-.3.05q-.15 0-.15-.2l-.1-.75q.5 0 .6.45h.1l-.15-1.1h-.05q-.05.35-.2.45-.1.1-.3.1z" id="cv"/><path fill="#21467B" d="M369.25 415.7l.05.05q.3-.15.35.15l.45 1.5q.05.1-.2.35v.05l1.1-.35v-.05q-.3 0-.35-.15l-.5-1.5q-.05-.25.25-.35v-.05l-1.15.35z" id="cw"/><path fill="#21467B" d="M372.95 416q-.05-.15.15-.35v-.05l-1 .4.05.05q.25-.1.3.1l.15.4q.05.2-.25.3-.55.25-.95-.7-.3-.8.2-1.15.55-.2 1 .3h.05l-.25-.7-.05.05q-.1.2-.2.2l-.6.05q-1.05.45-.65 1.45.2.5.6.65.45.15.9-.05.5-.1.75-.45l-.2-.5z" id="cx"/><path fill="#21467B" d="M373.85 413.9l.05.05q.3-.1.35.1l.3.6-.7.4-.3-.65q-.1-.15.15-.35l-.05-.05-.95.5v.05q.3-.1.35.1l.75 1.4q.05.25-.15.35l.05.05.95-.45-.05-.1q-.25.1-.35-.05l-.35-.7.75-.35.3.65q.1.25-.1.35v.1l1-.5-.05-.05q-.25.1-.35-.1l-.7-1.45q-.1-.15.1-.35v-.05l-1 .5z" id="cy"/><path fill="#21467B" d="M376.1 412.8l.1-.1q.45-.2.7.2l.05-.05-.35-.55-1.65 1.05.35.5h.05q-.2-.45.2-.75l.1-.05.95 1.5q.15.25-.1.35v.05l.9-.55v-.05q-.3.1-.4-.05l-.9-1.5z" id="cz"/><path fill="#21467B" d="M368.1 417.15h.05l.95.85.6-.15v-.05h-.1l-.9-.85q.5-.15.4-.6-.15-.6-1.05-.4l-1.05.25v.1q.35-.1.35.15l.35 1.55q.05.2-.2.3l.05.05 1.05-.25-.05-.05q-.25 0-.3-.2l-.15-.7m.45-.7q.2.45-.5.65l-.15-.85q-.05-.1.2-.2.35-.1.45.4z" id="cA"/><path id="c" stroke="#373535" stroke-width=".25" stroke-linejoin="miter" stroke-linecap="butt" stroke-miterlimit="4" fill="none" d="M199.976 105.015V.025H-.02v104.99h199.995z"/><path id="e" stroke="#373535" stroke-width=".25" stroke-linejoin="miter" stroke-linecap="butt" stroke-miterlimit="4" fill="none" d="M-.015.034h12.082l29.51 15.426V.034H58.17V15.46L87.68.034h12.15v6.382L78.654 17.503H99.83v17.541H78.654L99.83 46.131v6.382h-12.15L58.17 37.087v15.426H41.576V37.087l-29.51 15.426H-.013v-6.382l21.107-11.087H-.015V17.503h21.108L-.015 6.416V.034z"/><path id="n" stroke="#373535" stroke-width=".1" stroke-linejoin="miter" stroke-linecap="butt" stroke-miterlimit="4" fill="none" d="M138.078 69.313q.972.911 1.146 1.276.52-.437.278-.948-.243-.438-.764-.474-.417-.073-.66.146z"/><path id="p" stroke="#373535" stroke-width=".1" stroke-linejoin="miter" stroke-linecap="butt" stroke-miterlimit="4" fill="none" d="M161.858 69.313q-.937.802-1.145 1.276-.521-.437-.278-.948.243-.438.764-.474.416-.073.66.146z"/><path id="r" stroke="#373535" stroke-width=".1" stroke-linejoin="miter" stroke-linecap="butt" stroke-miterlimit="4" fill="none" d="M137.766 70.06q.022.114.07.237m-.07-.237q-.44-1.483-1.18-2.498-.243-.364-.105-.875.14-.51.59-.766.487-.219 1.181.22.694.437.694 1.057 0 .948.313 1.64.312.694.312 1.058-.035-.291-.278-.51-.243-.183-.555-.22-.486-.072-.798.256-.242.254-.174.638z"/><path id="t" stroke="#373535" stroke-width=".1" stroke-linejoin="miter" stroke-linecap="butt" stroke-miterlimit="4" fill="none" d="M162.17 70.06q.44-1.483 1.181-2.498.278-.364.104-.875-.139-.51-.59-.766-.486-.219-1.18.22-.695.437-.695 1.057 0 .911-.347 1.64-.312.694-.277 1.058.034-.291.277-.51.243-.183.556-.22.486-.072.798.256.242.254.174.638zm0 0q-.022.114-.069.237"/><path id="Q" stroke="#373535" stroke-width=".1" stroke-linejoin="miter" stroke-linecap="butt" stroke-miterlimit="4" fill="none" d="M142.14 59.065q.07.329-.035.365-.139.036-.243-.292l-.59-2.407q-.104-.364.035-.4.139-.037.243.327l.59 2.407z"/><path id="S" stroke="#373535" stroke-width=".1" stroke-linejoin="miter" stroke-linecap="butt" stroke-miterlimit="4" fill="none" d="M143.067 58.579l-3.263-1.24q-.243-.073-.278-.036-.07.073.208.182l3.124 1.313"/><path id="U" stroke="#373535" stroke-width=".1" stroke-linejoin="miter" stroke-linecap="butt" stroke-miterlimit="4" fill="none" d="M146.19 60.001l.036-8.861q0-.438-.105-.474-.138 0-.138.474l-.174 8.606"/><path id="W" stroke="#373535" stroke-width=".1" stroke-linejoin="miter" stroke-linecap="butt" stroke-miterlimit="4" fill="none" d="M150.252 62.335l.035-12.362q0-.438-.104-.474-.139 0-.139.474l-.173 12.107"/><path id="Y" stroke="#373535" stroke-width=".1" stroke-linejoin="miter" stroke-linecap="butt" stroke-miterlimit="4" fill="none" d="M154.14 61.35l.174-10.429q0-.438-.104-.474-.14-.036-.14.474l-.312 10.393"/><path id="aa" stroke="#373535" stroke-width=".1" stroke-linejoin="miter" stroke-linecap="butt" stroke-miterlimit="4" fill="none" d="M157.334 57.777l.035-2.006q0-.219-.07-.255-.07-.037-.07.219l.105 2.042z"/><path id="ac" stroke="#373535" stroke-width=".1" stroke-linejoin="miter" stroke-linecap="butt" stroke-miterlimit="4" fill="none" d="M154.95 59.649q-1.354 2.407-4.374 2.334-2.812-.037-4.374-1.97 0-.328-.382-.437l-2.673-1.021q-.278-.11-.382.219-.104.364.278.51-.07.219.139.365.173.182.416.11.278.218.486-.074.174.037.52.183.14 2.005 1.84 3.282 1.563 1.167 3.785 1.276 5.346.255 7.012-4.74l-2.291-.037z"/><path id="ae" stroke="#373535" stroke-width=".1" stroke-linejoin="miter" stroke-linecap="butt" stroke-miterlimit="4" fill="none" d="M158.838 57.315l-3.54.73q-.21.036-.21.182-.034.145.07.218l-.173.912q-.209.073-.174.255.035.183.278.146l3.437-.11q.312 0 .347-.254 0-.256-.243-.256l.416-1.422q.209-.11.174-.255-.035-.183-.382-.146z"/><path id="ag" stroke="#373535" stroke-width=".1" stroke-linejoin="miter" stroke-linecap="butt" stroke-miterlimit="4" fill="none" d="M144.848 52.83l2.742-.912q0 .364-.312.62-.313.218-.625.145-.07.329-.347.402-.313.073-.625-.183-.139.073-.417.073-.277 0-.416-.146z"/><path id="ai" stroke="#373535" stroke-width=".1" stroke-linejoin="miter" stroke-linecap="butt" stroke-miterlimit="4" fill="none" d="M144.362 54.179q-.451 1.495.312 2.297.417-.73 1.25-.912.798-.182 1.597.146-.382-.437-.174-1.276.174-.73.66-1.422l-3.645 1.167z"/><path id="ak" stroke="#373535" stroke-width=".1" stroke-linejoin="miter" stroke-linecap="butt" stroke-miterlimit="4" fill="none" d="M147.972 55.747l-3.68 1.02q.174.256.521.366.382.109.59-.037.452.365.972.182.486-.182.66-.583.382.036.625-.255.278-.256.312-.693z"/><path id="am" stroke="#373535" stroke-width=".1" stroke-linejoin="miter" stroke-linecap="butt" stroke-miterlimit="4" fill="none" d="M150.68 51.881q.451.037.729-.292.243-.291.243-.729l-3.09.985q.243.255.556.328.347.073.555-.11.278.292.59.183.278-.073.417-.365z"/><path id="ao" stroke="#373535" stroke-width=".1" stroke-linejoin="miter" stroke-linecap="butt" stroke-miterlimit="4" fill="none" d="M152.173 52.136l-3.506.985q-.556 2.188.243 3.173.312-.693 1.18-.912.902-.182 1.7.365-.659-.51-.52-1.568.139-.912.903-2.043z"/><path id="aq" stroke="#373535" stroke-width=".1" stroke-linejoin="miter" stroke-linecap="butt" stroke-miterlimit="4" fill="none" d="M151.79 55.93l-3.193.583q.07.255.347.328.278.036.417-.073.347.401.764.365.416-.037.66-.438.277.11.59-.073.312-.219.416-.693z"/><path id="as" stroke="#373535" stroke-width=".1" stroke-linejoin="miter" stroke-linecap="butt" stroke-miterlimit="4" fill="none" d="M155.54 51.48l-2.812.912q.382.437.833.146.278.182.695.036.382-.11.486-.401.277.036.52-.182.243-.22.278-.511z"/><path id="au" stroke="#373535" stroke-width=".1" stroke-linejoin="miter" stroke-linecap="butt" stroke-miterlimit="4" fill="none" d="M152.555 53.413q-.382.802-.417 1.714-.07.984.278 1.568.486-.802 1.597-1.021 1.006-.183 1.631.292-.382-.62-.416-1.605-.035-1.13.486-1.75l-3.16.802z"/><path id="aw" stroke="#373535" stroke-width=".1" stroke-linejoin="miter" stroke-linecap="butt" stroke-miterlimit="4" fill="none" d="M155.679 56.148l-3.61.656q.138.365.555.438.347.073.59-.073.417.292.868.182.417-.073.625-.474.347.073.625-.073.312-.218.347-.656z"/><path id="ay" stroke="#373535" stroke-width=".1" stroke-linejoin="miter" stroke-linecap="butt" stroke-miterlimit="4" fill="none" d="M145.993 51.079q-.069.036-.867.219-.556.11-.66.656.243-.146.868-.073.59.073.66 0v-.802z"/><path id="aA" stroke="#373535" stroke-width=".1" stroke-linejoin="miter" stroke-linecap="butt" stroke-miterlimit="4" fill="none" d="M150.055 49.912q-.035.036-.868.219-.555.11-.66.693.278-.183.869-.11.59.073.66.037v-.84z"/><path id="aC" stroke="#373535" stroke-width=".1" stroke-linejoin="miter" stroke-linecap="butt" stroke-miterlimit="4" fill="none" d="M154.082 50.86q-.07.037-.902.182-.521.11-.66.657.243-.146.868-.073.59.11.66.036l.034-.802z"/><path id="aE" stroke="#373535" stroke-width=".1" stroke-linejoin="miter" stroke-linecap="butt" stroke-miterlimit="4" fill="none" d="M157.241 55.71q-.07.037-.694.146-.417.073-.52.51.207-.109.659-.072.486.073.52.036l.035-.62z"/><path id="aK" stroke="#373535" stroke-width=".1" stroke-linejoin="miter" stroke-linecap="butt" stroke-miterlimit="4" fill="none" d="M144.605 59.868l1.041.4q-.034.256.382.657.382.401.903.657"/><path id="aL" stroke="#373535" stroke-width=".1" stroke-linejoin="miter" stroke-linecap="butt" stroke-miterlimit="4" fill="none" d="M155.54 60.67q-1.423 2.516-4.721 2.699-3.645.145-5.971-3.356 1.527 3.903 5.554 3.975 3.819.073 5.798-3.026"/><path id="aM" stroke="#373535" stroke-width=".1" stroke-linejoin="miter" stroke-linecap="butt" stroke-miterlimit="4" fill="none" d="M155.089 59.758q.07.948 1.215 1.24"/><path id="aN" stroke="#373535" stroke-width=".1" stroke-linejoin="miter" stroke-linecap="butt" stroke-miterlimit="4" fill="none" d="M155.193 60.196q-.174.255-.625.73"/><path id="aO" stroke="#373535" stroke-width=".1" stroke-linejoin="miter" stroke-linecap="butt" stroke-miterlimit="4" fill="none" d="M154.186 61.253q-.486.402-1.041.73"/><path id="aP" stroke="#373535" stroke-width=".1" stroke-linejoin="miter" stroke-linecap="butt" stroke-miterlimit="4" fill="none" d="M143.043 59.284q.104.073.208-.073.104-.11.035-.255"/><path id="aQ" stroke="#373535" stroke-width=".1" stroke-linejoin="miter" stroke-linecap="butt" stroke-miterlimit="4" fill="none" d="M143.598 59.758q.104-.036.139-.182.035-.146-.07-.255"/><path id="aR" stroke="#373535" stroke-width=".1" stroke-linejoin="miter" stroke-linecap="butt" stroke-miterlimit="4" fill="none" d="M144.084 59.685q.07-.073.07-.219-.035-.182-.14-.218"/><path id="aS" stroke="#373535" stroke-width=".1" stroke-linejoin="miter" stroke-linecap="butt" stroke-miterlimit="4" fill="none" d="M150.75 62.202q-.209 0-.209.218 0 .183.208.183.209 0 .209-.183 0-.218-.209-.218z"/><path id="aT" stroke="#373535" stroke-width=".1" stroke-linejoin="miter" stroke-linecap="butt" stroke-miterlimit="4" fill="none" d="M152.971 61.837q-.208 0-.208.219 0 .218.208.218.209 0 .209-.218 0-.22-.209-.22z"/><path id="aU" stroke="#373535" stroke-width=".1" stroke-linejoin="miter" stroke-linecap="butt" stroke-miterlimit="4" fill="none" d="M154.395 60.889q-.209 0-.209.219 0 .218.209.218.208 0 .208-.218 0-.22-.208-.22z"/><path id="aV" stroke="#373535" stroke-width=".1" stroke-linejoin="miter" stroke-linecap="butt" stroke-miterlimit="4" fill="none" d="M148.424 61.764q-.209 0-.209.219t.209.219q.173 0 .208-.22 0-.218-.208-.218z"/><path id="aW" stroke="#373535" stroke-width=".1" stroke-linejoin="miter" stroke-linecap="butt" stroke-miterlimit="4" fill="none" d="M146.618 60.852q-.208 0-.208.22 0 .181.208.181.209 0 .209-.182 0-.219-.209-.219z"/><path id="aX" stroke="#373535" stroke-width=".05" stroke-linejoin="miter" stroke-linecap="butt" stroke-miterlimit="4" fill="none" d="M139.988 57.424l4.895-4.595.034 1.13"/><path id="aY" stroke="#373535" stroke-width=".05" stroke-linejoin="miter" stroke-linecap="butt" stroke-miterlimit="4" fill="none" d="M141.342 57.898l4.72-4.303"/><path id="aZ" stroke="#373535" stroke-width=".05" stroke-linejoin="miter" stroke-linecap="butt" stroke-miterlimit="4" fill="none" d="M141.376 56.367l2.743 2.552"/><path id="ba" stroke="#373535" stroke-width=".05" stroke-linejoin="miter" stroke-linecap="butt" stroke-miterlimit="4" fill="none" d="M139.988 57.607l2.117 1.823h.938"/><path id="bb" stroke="#373535" stroke-width=".05" stroke-linejoin="miter" stroke-linecap="butt" stroke-miterlimit="4" fill="none" d="M144.327 56.804l1.215 2.662"/><path id="bc" stroke="#373535" stroke-width=".05" stroke-linejoin="miter" stroke-linecap="butt" stroke-miterlimit="4" fill="none" d="M145.334 57.133l-.52 2.042"/><path id="bd" stroke="#373535" stroke-width=".05" stroke-linejoin="miter" stroke-linecap="butt" stroke-miterlimit="4" fill="none" d="M145.542 57.205l-.347 2.116"/><path id="be" stroke="#373535" stroke-width=".05" stroke-linejoin="miter" stroke-linecap="butt" stroke-miterlimit="4" fill="none" d="M145.75 57.278l-.173 2.188"/><path id="bf" stroke="#373535" stroke-width=".05" stroke-linejoin="miter" stroke-linecap="butt" stroke-miterlimit="4" fill="none" d="M146.375 57.278l.347 3.246"/><path id="bg" stroke="#373535" stroke-width=".05" stroke-linejoin="miter" stroke-linecap="butt" stroke-miterlimit="4" fill="none" d="M146.549 57.205l.625 3.684"/><path id="bh" stroke="#373535" stroke-width=".05" stroke-linejoin="miter" stroke-linecap="butt" stroke-miterlimit="4" fill="none" d="M146.688 57.096l.937 4.084"/><path id="bi" stroke="#373535" stroke-width=".05" stroke-linejoin="miter" stroke-linecap="butt" stroke-miterlimit="4" fill="none" d="M145.612 59.175q-.278 0-.382-.11-.14.037-.382-.11"/><path id="bj" stroke="#373535" stroke-width=".05" stroke-linejoin="miter" stroke-linecap="butt" stroke-miterlimit="4" fill="none" d="M145.646 58.628q-.243 0-.312-.11-.139.037-.347-.073"/><path id="bk" stroke="#373535" stroke-width=".05" stroke-linejoin="miter" stroke-linecap="butt" stroke-miterlimit="4" fill="none" d="M145.716 58.044q-.243 0-.278-.073-.243 0-.278-.073"/><path id="bl" stroke="#373535" stroke-width=".05" stroke-linejoin="miter" stroke-linecap="butt" stroke-miterlimit="4" fill="none" d="M145.75 57.497l-.243-.036-.208-.073"/><path id="bm" stroke="#373535" stroke-width=".05" stroke-linejoin="miter" stroke-linecap="butt" stroke-miterlimit="4" fill="none" d="M146.375 57.46l.382-.072"/><path id="bn" stroke="#373535" stroke-width=".05" stroke-linejoin="miter" stroke-linecap="butt" stroke-miterlimit="4" fill="none" d="M146.434 58.068l.451-.072"/><path id="bo" stroke="#373535" stroke-width=".05" stroke-linejoin="miter" stroke-linecap="butt" stroke-miterlimit="4" fill="none" d="M146.503 58.652q.14.073.278 0l.243-.037"/><path id="bp" stroke="#373535" stroke-width=".05" stroke-linejoin="miter" stroke-linecap="butt" stroke-miterlimit="4" fill="none" d="M146.573 59.272q.173.073.312 0 .243 0 .278-.037"/><path id="bq" stroke="#373535" stroke-width=".05" stroke-linejoin="miter" stroke-linecap="butt" stroke-miterlimit="4" fill="none" d="M146.642 59.855q.208.11.347.037.278 0 .313-.037"/><path id="br" stroke="#373535" stroke-width=".05" stroke-linejoin="miter" stroke-linecap="butt" stroke-miterlimit="4" fill="none" d="M146.722 60.488q.243.145.382 0 .14.073.382 0"/><path id="bs" stroke="#373535" stroke-width=".05" stroke-linejoin="miter" stroke-linecap="butt" stroke-miterlimit="4" fill="none" d="M147.996 61.35l1.389-4.558"/><path id="bt" stroke="#373535" stroke-width=".05" stroke-linejoin="miter" stroke-linecap="butt" stroke-miterlimit="4" fill="none" d="M148.482 61.57l1.007-4.705"/><path id="bu" stroke="#373535" stroke-width=".05" stroke-linejoin="miter" stroke-linecap="butt" stroke-miterlimit="4" fill="none" d="M148.968 61.715l.66-4.74"/><path id="bv" stroke="#373535" stroke-width=".05" stroke-linejoin="miter" stroke-linecap="butt" stroke-miterlimit="4" fill="none" d="M148.1 61.022q.07.073.243.11.174.036.243 0 .139.182.451.109"/><path id="bw" stroke="#373535" stroke-width=".05" stroke-linejoin="miter" stroke-linecap="butt" stroke-miterlimit="4" fill="none" d="M148.297 60.353q.174.183.417.11.139.146.416.073"/><path id="bx" stroke="#373535" stroke-width=".05" stroke-linejoin="miter" stroke-linecap="butt" stroke-miterlimit="4" fill="none" d="M148.471 59.697q.104.11.382.11.139.145.347.072"/><path id="by" stroke="#373535" stroke-width=".05" stroke-linejoin="miter" stroke-linecap="butt" stroke-miterlimit="4" fill="none" d="M148.68 59.04q.069.11.312.11.208.11.312.037"/><path id="bz" stroke="#373535" stroke-width=".05" stroke-linejoin="miter" stroke-linecap="butt" stroke-miterlimit="4" fill="none" d="M148.888 58.384q.069.146.242.073.07.073.278.073"/><path id="bA" stroke="#373535" stroke-width=".05" stroke-linejoin="miter" stroke-linecap="butt" stroke-miterlimit="4" fill="none" d="M149.061 57.764q.139.146.208.037.14.146.209.036"/><path id="bB" stroke="#373535" stroke-width=".05" stroke-linejoin="miter" stroke-linecap="butt" stroke-miterlimit="4" fill="none" d="M149.28 57.12l.174.037"/><path id="bC" stroke="#373535" stroke-width=".05" stroke-linejoin="miter" stroke-linecap="butt" stroke-miterlimit="4" fill="none" d="M152.173 61.8l-1.32-5.069"/><path id="bD" stroke="#373535" stroke-width=".05" stroke-linejoin="miter" stroke-linecap="butt" stroke-miterlimit="4" fill="none" d="M151.617 61.91l-.902-5.106"/><path id="bE" stroke="#373535" stroke-width=".05" stroke-linejoin="miter" stroke-linecap="butt" stroke-miterlimit="4" fill="none" d="M151.062 61.983l-.486-5.033"/><path id="bF" stroke="#373535" stroke-width=".05" stroke-linejoin="miter" stroke-linecap="butt" stroke-miterlimit="4" fill="none" d="M152.069 61.436q-.035.073-.243.11-.209.036-.278 0-.208.218-.52.072"/><path id="bG" stroke="#373535" stroke-width=".05" stroke-linejoin="miter" stroke-linecap="butt" stroke-miterlimit="4" fill="none" d="M151.895 60.706q-.104.11-.486.11-.139.146-.451.073"/><path id="bH" stroke="#373535" stroke-width=".05" stroke-linejoin="miter" stroke-linecap="butt" stroke-miterlimit="4" fill="none" d="M151.687 59.977q-.035.036-.174.073-.173.036-.208 0-.139.182-.417.073"/><path id="bI" stroke="#373535" stroke-width=".05" stroke-linejoin="miter" stroke-linecap="butt" stroke-miterlimit="4" fill="none" d="M151.513 59.248q-.243.146-.347.073-.104.109-.347.036"/><path id="bJ" stroke="#373535" stroke-width=".05" stroke-linejoin="miter" stroke-linecap="butt" stroke-miterlimit="4" fill="none" d="M151.34 58.518l-.313.073q-.104.11-.278.037"/><path id="bK" stroke="#373535" stroke-width=".05" stroke-linejoin="miter" stroke-linecap="butt" stroke-miterlimit="4" fill="none" d="M151.131 57.789q-.104.11-.243.036-.104.11-.208.037"/><path id="bL" stroke="#373535" stroke-width=".05" stroke-linejoin="miter" stroke-linecap="butt" stroke-miterlimit="4" fill="none" d="M150.958 57.06l-.347.073"/><path id="bM" stroke="#373535" stroke-width=".05" stroke-linejoin="miter" stroke-linecap="butt" stroke-miterlimit="4" fill="none" d="M152.555 61.691l.833-4.413"/><path id="bN" stroke="#373535" stroke-width=".05" stroke-linejoin="miter" stroke-linecap="butt" stroke-miterlimit="4" fill="none" d="M153.075 61.436l.452-4.121"/><path id="bO" stroke="#373535" stroke-width=".05" stroke-linejoin="miter" stroke-linecap="butt" stroke-miterlimit="4" fill="none" d="M153.561 61.18l.105-3.829"/><path id="bP" stroke="#373535" stroke-width=".05" stroke-linejoin="miter" stroke-linecap="butt" stroke-miterlimit="4" fill="none" d="M152.728 60.889q.174.182.417.073.139.146.416.036"/><path id="bQ" stroke="#373535" stroke-width=".05" stroke-linejoin="miter" stroke-linecap="butt" stroke-miterlimit="4" fill="none" d="M152.832 60.232q.243.11.382.037.14.146.382.036"/><path id="bR" stroke="#373535" stroke-width=".05" stroke-linejoin="miter" stroke-linecap="butt" stroke-miterlimit="4" fill="none" d="M152.971 59.54q.14.145.313.036.139.146.312.036"/><path id="bS" stroke="#373535" stroke-width=".05" stroke-linejoin="miter" stroke-linecap="butt" stroke-miterlimit="4" fill="none" d="M153.249 58.92q.07.036.104 0l.278.036"/><path id="bT" stroke="#373535" stroke-width=".05" stroke-linejoin="miter" stroke-linecap="butt" stroke-miterlimit="4" fill="none" d="M153.214 58.19q.14.146.209.037l.208.036"/><path id="bU" stroke="#373535" stroke-width=".05" stroke-linejoin="miter" stroke-linecap="butt" stroke-miterlimit="4" fill="none" d="M153.492 57.57q.104.11.174 0"/><path id="bV" stroke="#373535" stroke-width=".05" stroke-linejoin="miter" stroke-linecap="butt" stroke-miterlimit="4" fill="none" d="M155.124 58.117l-.382-1.24"/><path id="bW" stroke="#373535" stroke-width=".05" stroke-linejoin="miter" stroke-linecap="butt" stroke-miterlimit="4" fill="none" d="M155.054 59.065l-.451-2.042"/><path id="bX" stroke="#373535" stroke-width=".05" stroke-linejoin="miter" stroke-linecap="butt" stroke-miterlimit="4" fill="none" d="M155.02 58.883q-.174.11-.313.036"/><path id="bY" stroke="#373535" stroke-width=".05" stroke-linejoin="miter" stroke-linecap="butt" stroke-miterlimit="4" fill="none" d="M155.124 58.117q-.07.183-.278.073-.035.073-.243.073"/><path id="bZ" stroke="#373535" stroke-width=".05" stroke-linejoin="miter" stroke-linecap="butt" stroke-miterlimit="4" fill="none" d="M154.915 57.497l-.208.037q-.104.11-.208.036"/><path id="ca" stroke="#373535" stroke-width=".05" stroke-linejoin="miter" stroke-linecap="butt" stroke-miterlimit="4" fill="none" d="M150.333 49.912l1.319.948.451 1.313"/><path id="cb" stroke="#373535" stroke-width=".05" stroke-linejoin="miter" stroke-linecap="butt" stroke-miterlimit="4" fill="none" d="M149.708 50.75l-.833.985"/><path id="cc" stroke="#373535" stroke-width=".05" stroke-linejoin="miter" stroke-linecap="butt" stroke-miterlimit="4" fill="none" d="M148.77 52.064l.174.984"/><path id="cd" stroke="#373535" stroke-width=".05" stroke-linejoin="miter" stroke-linecap="butt" stroke-miterlimit="4" fill="none" d="M154.325 50.824l1.146.656.277 1.13-.069 3.501"/><path id="ce" stroke="#373535" stroke-width=".05" stroke-linejoin="miter" stroke-linecap="butt" stroke-miterlimit="4" fill="none" d="M153.249 51.626l-.52.766-.14 1.02"/><path id="cf" stroke="#373535" stroke-width=".05" stroke-linejoin="miter" stroke-linecap="butt" stroke-miterlimit="4" fill="none" d="M152.277 56.768q.208.766.972 1.86.66 1.057 1.25 1.64"/><path id="cg" stroke="#373535" stroke-width=".05" stroke-linejoin="miter" stroke-linecap="butt" stroke-miterlimit="4" fill="none" d="M152.52 56.731q1.527 2.517 2.291 3.137l-.347-2.663"/><path id="ch" stroke="#373535" stroke-width=".05" stroke-linejoin="miter" stroke-linecap="butt" stroke-miterlimit="4" fill="none" d="M152.173 52.173q.694 1.24 2.291 3.063 1.423 1.641 2.465 2.48"/><path id="ci" stroke="#373535" stroke-width=".05" stroke-linejoin="miter" stroke-linecap="butt" stroke-miterlimit="4" fill="none" d="M155.748 52.61q.348.912 1.25 2.225.938 1.35 2.048 2.48"/><path id="cj" stroke="#373535" stroke-width=".05" stroke-linejoin="miter" stroke-linecap="butt" stroke-miterlimit="4" fill="none" d="M148.007 53.085q.764 1.64 2.638 4.522 1.562 2.406 2.604 3.72"/><path id="ck" stroke="#373535" stroke-width=".05" stroke-linejoin="miter" stroke-linecap="butt" stroke-miterlimit="4" fill="none" d="M142.87 56.513l-.21 1.932"/><path id="cl" stroke="#373535" stroke-width=".05" stroke-linejoin="miter" stroke-linecap="butt" stroke-miterlimit="4" fill="none" d="M146.236 50.97l1.354.948.278 1.13"/><path id="cm" stroke="#373535" stroke-width=".05" stroke-linejoin="miter" stroke-linecap="butt" stroke-miterlimit="4" fill="none" d="M144.883 52.83l.59-.949"/></defs><use xlink:href="#a" transform="scale(2 2.1)"/><g transform="matrix(.6943 0 0 .72935 -101.7 -234.5)"><use xlink:href="#b"/><use xlink:href="#c" transform="matrix(1.44028 0 0 1.37106 146.45 321.5)"/></g><g transform="matrix(.69434 0 0 .72939 -101.7 -234.5)"><use xlink:href="#d"/><use xlink:href="#e" transform="matrix(1.44022 0 0 1.371 146.45 321.5)"/></g><use xlink:href="#f" transform="matrix(.69434 0 0 .72939 -101.7 -234.5)"/><use xlink:href="#g" transform="matrix(.69434 0 0 .72939 -101.7 -234.5)"/><use xlink:href="#h" transform="matrix(.69434 0 0 .72939 -101.7 -234.5)"/><use xlink:href="#i" transform="matrix(.69434 0 0 .72939 -101.7 -234.5)"/><use xlink:href="#j" transform="matrix(.69434 0 0 .72939 -101.7 -234.5)"/><use xlink:href="#k" transform="matrix(.69434 0 0 .72939 -101.7 -234.5)"/><use xlink:href="#l" transform="matrix(.69434 0 0 .72939 -101.7 -234.5)"/><g transform="matrix(.6943 0 0 .72935 -101.7 -234.5)"><use xlink:href="#m"/><use xlink:href="#n" transform="matrix(1.44028 0 0 1.37106 146.45 321.5)"/></g><g transform="matrix(.6943 0 0 .72935 -101.7 -234.5)"><use xlink:href="#o"/><use xlink:href="#p" transform="matrix(1.44028 0 0 1.37106 146.45 321.5)"/></g><g transform="matrix(.6943 0 0 .72935 -101.7 -234.5)"><use xlink:href="#q"/><use xlink:href="#r" transform="matrix(1.44028 0 0 1.37106 146.45 321.5)"/></g><g transform="matrix(.6943 0 0 .72935 -101.7 -234.5)"><use xlink:href="#s"/><use xlink:href="#t" transform="matrix(1.44028 0 0 1.37106 146.45 321.5)"/></g><use xlink:href="#u" transform="matrix(.69434 0 0 .72939 -101.7 -234.5)"/><use xlink:href="#v" transform="matrix(.6943 0 0 .72935 -101.7 -234.5)"/><use xlink:href="#w" transform="matrix(.6943 0 0 .72935 -101.7 -234.5)"/><use xlink:href="#x" transform="matrix(.6943 0 0 .72935 -101.7 -234.5)"/><use xlink:href="#y" transform="matrix(.6943 0 0 .72935 -101.7 -234.5)"/><use xlink:href="#z" transform="matrix(.6943 0 0 .72935 -101.7 -234.5)"/><use xlink:href="#A" transform="matrix(.6943 0 0 .72935 -101.7 -234.5)"/><use xlink:href="#B" transform="matrix(.6943 0 0 .72935 -101.7 -234.5)"/><use xlink:href="#C" transform="matrix(.6943 0 0 .72935 -101.7 -234.5)"/><use xlink:href="#D" transform="matrix(.6943 0 0 .72935 -101.7 -234.5)"/><use xlink:href="#E" transform="matrix(.6943 0 0 .72935 -101.7 -234.5)"/><use xlink:href="#F" transform="matrix(.6943 0 0 .72935 -101.7 -234.5)"/><use xlink:href="#G" transform="matrix(.6943 0 0 .72935 -101.7 -234.5)"/><use xlink:href="#H" transform="matrix(.6943 0 0 .72935 -101.7 -234.5)"/><use xlink:href="#I" transform="matrix(.6943 0 0 .72935 -101.7 -234.5)"/><use xlink:href="#J" transform="matrix(.6943 0 0 .72935 -101.7 -234.5)"/><use xlink:href="#K" transform="matrix(.6943 0 0 .72935 -101.7 -234.5)"/><use xlink:href="#L" transform="matrix(.69434 0 0 .72939 -101.7 -234.5)"/><use xlink:href="#M" transform="matrix(.69434 0 0 .72939 -101.7 -234.5)"/><use xlink:href="#N" transform="matrix(.69434 0 0 .72939 -101.7 -234.5)"/><use xlink:href="#O" transform="matrix(.69434 0 0 .72939 -101.7 -234.5)"/><g transform="matrix(.6943 0 0 .72935 -101.7 -234.5)"><use xlink:href="#P"/><use xlink:href="#Q" transform="matrix(1.44028 0 0 1.37106 146.45 321.5)"/></g><use xlink:href="#R" transform="matrix(.69427 0 0 .72932 -101.7 -234.5)"/><use xlink:href="#S" transform="matrix(1 0 0 1 -.023 -.022)"/><use xlink:href="#T" transform="matrix(.69427 0 0 .72932 -101.7 -234.5)"/><use xlink:href="#U" transform="matrix(1 0 0 1 -.023 -.022)"/><use xlink:href="#V" transform="matrix(.69427 0 0 .72932 -101.7 -234.5)"/><use xlink:href="#W" transform="matrix(1 0 0 1 -.023 -.022)"/><use xlink:href="#X" transform="matrix(.69427 0 0 .72932 -101.7 -234.5)"/><use xlink:href="#Y" transform="matrix(1 0 0 1 -.023 -.022)"/><use xlink:href="#Z" transform="matrix(.69427 0 0 .72932 -101.7 -234.5)"/><use xlink:href="#aa" transform="matrix(1 0 0 1 -.023 -.022)"/><g transform="matrix(.6943 0 0 .72935 -101.7 -234.5)"><use xlink:href="#ab"/><use xlink:href="#ac" transform="matrix(1.44028 0 0 1.37106 146.45 321.5)"/></g><g transform="matrix(.6943 0 0 .72935 -101.7 -234.5)"><use xlink:href="#ad"/><use xlink:href="#ae" transform="matrix(1.44028 0 0 1.37106 146.45 321.5)"/></g><g transform="matrix(.6943 0 0 .72935 -101.7 -234.5)"><use xlink:href="#af"/><use xlink:href="#ag" transform="matrix(1.44028 0 0 1.37106 146.45 321.5)"/></g><g transform="matrix(.6943 0 0 .72935 -101.7 -234.5)"><use xlink:href="#ah"/><use xlink:href="#ai" transform="matrix(1.44028 0 0 1.37106 146.45 321.5)"/></g><g transform="matrix(.6943 0 0 .72935 -101.7 -234.5)"><use xlink:href="#aj"/><use xlink:href="#ak" transform="matrix(1.44028 0 0 1.37106 146.45 321.5)"/></g><g transform="matrix(.6943 0 0 .72935 -101.7 -234.5)"><use xlink:href="#al"/><use xlink:href="#am" transform="matrix(1.44028 0 0 1.37106 146.45 321.5)"/></g><g transform="matrix(.6943 0 0 .72935 -101.7 -234.5)"><use xlink:href="#an"/><use xlink:href="#ao" transform="matrix(1.44028 0 0 1.37106 146.45 321.5)"/></g><g transform="matrix(.6943 0 0 .72935 -101.7 -234.5)"><use xlink:href="#ap"/><use xlink:href="#aq" transform="matrix(1.44028 0 0 1.37106 146.45 321.5)"/></g><g transform="matrix(.6943 0 0 .72935 -101.7 -234.5)"><use xlink:href="#ar"/><use xlink:href="#as" transform="matrix(1.44028 0 0 1.37106 146.45 321.5)"/></g><g transform="matrix(.6943 0 0 .72935 -101.7 -234.5)"><use xlink:href="#at"/><use xlink:href="#au" transform="matrix(1.44028 0 0 1.37106 146.45 321.5)"/></g><g transform="matrix(.6943 0 0 .72935 -101.7 -234.5)"><use xlink:href="#av"/><use xlink:href="#aw" transform="matrix(1.44028 0 0 1.37106 146.45 321.5)"/></g><g transform="matrix(.6943 0 0 .72935 -101.7 -234.5)"><use xlink:href="#ax"/><use xlink:href="#ay" transform="matrix(1.44028 0 0 1.37106 146.45 321.5)"/></g><g transform="matrix(.6943 0 0 .72935 -101.7 -234.5)"><use xlink:href="#az"/><use xlink:href="#aA" transform="matrix(1.44028 0 0 1.37106 146.45 321.5)"/></g><g transform="matrix(.6943 0 0 .72935 -101.7 -234.5)"><use xlink:href="#aB"/><use xlink:href="#aC" transform="matrix(1.44028 0 0 1.37106 146.45 321.5)"/></g><g transform="matrix(.6943 0 0 .72935 -101.7 -234.5)"><use xlink:href="#aD"/><use xlink:href="#aE" transform="matrix(1.44028 0 0 1.37106 146.45 321.5)"/></g><use xlink:href="#aF" transform="matrix(.6943 0 0 .72935 -101.7 -234.5)"/><use xlink:href="#aG" transform="matrix(.6943 0 0 .72935 -101.7 -234.5)"/><use xlink:href="#aH" transform="matrix(.6943 0 0 .72935 -101.7 -234.5)"/><use xlink:href="#aI" transform="matrix(.6943 0 0 .72935 -101.7 -234.5)"/><use xlink:href="#aJ" transform="matrix(.6943 0 0 .72935 -101.7 -234.5)"/><use xlink:href="#aK" transform="matrix(1 0 0 1 -.019 -.012)"/><use xlink:href="#aL" transform="matrix(1 0 0 1 -.019 -.012)"/><use xlink:href="#aM" transform="matrix(1 0 0 1 -.019 -.012)"/><use xlink:href="#aN" transform="matrix(1 0 0 1 -.019 -.012)"/><use xlink:href="#aO" transform="matrix(1 0 0 1 -.019 -.012)"/><use xlink:href="#aP" transform="matrix(1 0 0 1 -.019 -.012)"/><use xlink:href="#aQ" transform="matrix(1 0 0 1 -.019 -.012)"/><use xlink:href="#aR" transform="matrix(1 0 0 1 -.019 -.012)"/><use xlink:href="#aS" transform="matrix(1 0 0 1 -.019 -.012)"/><use xlink:href="#aT" transform="matrix(1 0 0 1 -.019 -.012)"/><use xlink:href="#aU" transform="matrix(1 0 0 1 -.019 -.012)"/><use xlink:href="#aV" transform="matrix(1 0 0 1 -.019 -.012)"/><use xlink:href="#aW" transform="matrix(1 0 0 1 -.019 -.012)"/><use xlink:href="#aX" transform="matrix(1 0 0 1 -.019 -.012)"/><use xlink:href="#aY" transform="matrix(1 0 0 1 -.019 -.012)"/><use xlink:href="#aZ" transform="matrix(1 0 0 1 -.019 -.012)"/><use xlink:href="#ba" transform="matrix(1 0 0 1 -.019 -.012)"/><use xlink:href="#bb" transform="matrix(1 0 0 1 -.019 -.012)"/><use xlink:href="#bc" transform="matrix(1 0 0 1 -.019 -.012)"/><use xlink:href="#bd" transform="matrix(1 0 0 1 -.019 -.012)"/><use xlink:href="#be" transform="matrix(1 0 0 1 -.019 -.012)"/><use xlink:href="#bf" transform="matrix(1 0 0 1 -.019 -.012)"/><use xlink:href="#bg" transform="matrix(1 0 0 1 -.019 -.012)"/><use xlink:href="#bh" transform="matrix(1 0 0 1 -.019 -.012)"/><use xlink:href="#bi" transform="matrix(1 0 0 1 -.019 -.012)"/><use xlink:href="#bj" transform="matrix(1 0 0 1 -.019 -.012)"/><use xlink:href="#bk" transform="matrix(1 0 0 1 -.019 -.012)"/><use xlink:href="#bl" transform="matrix(1 0 0 1 -.019 -.012)"/><use xlink:href="#bm" transform="matrix(1 0 0 1 -.019 -.012)"/><use xlink:href="#bn" transform="matrix(1 0 0 1 -.023 -.022)"/><use xlink:href="#bo" transform="matrix(1 0 0 1 -.023 -.022)"/><use xlink:href="#bp" transform="matrix(1 0 0 1 -.023 -.022)"/><use xlink:href="#bq" transform="matrix(1 0 0 1 -.023 -.022)"/><use xlink:href="#br" transform="matrix(1 0 0 1 -.019 -.012)"/><use xlink:href="#bs" transform="matrix(1 0 0 1 -.023 -.022)"/><use xlink:href="#bt" transform="matrix(1 0 0 1 -.023 -.022)"/><use xlink:href="#bu" transform="matrix(1 0 0 1 -.023 -.022)"/><use xlink:href="#bv" transform="matrix(1 0 0 1 -.023 -.022)"/><use xlink:href="#bw" transform="matrix(1 0 0 1 -.028 -.032)"/><use xlink:href="#bx" transform="matrix(1 0 0 1 -.028 -.032)"/><use xlink:href="#by" transform="matrix(1 0 0 1 -.028 -.032)"/><use xlink:href="#bz" transform="matrix(1 0 0 1 -.028 -.032)"/><use xlink:href="#bA" transform="matrix(1 0 0 1 -.028 -.032)"/><use xlink:href="#bB" transform="matrix(1 0 0 1 -.023 -.022)"/><use xlink:href="#bC" transform="matrix(1 0 0 1 -.019 -.012)"/><use xlink:href="#bD" transform="matrix(1 0 0 1 -.019 -.012)"/><use xlink:href="#bE" transform="matrix(1 0 0 1 -.019 -.012)"/><use xlink:href="#bF" transform="matrix(1 0 0 1 -.019 -.012)"/><use xlink:href="#bG" transform="matrix(1 0 0 1 -.019 -.012)"/><use xlink:href="#bH" transform="matrix(1 0 0 1 -.019 -.012)"/><use xlink:href="#bI" transform="matrix(1 0 0 1 -.019 -.012)"/><use xlink:href="#bJ" transform="matrix(1 0 0 1 -.019 -.012)"/><use xlink:href="#bK" transform="matrix(1 0 0 1 -.019 -.012)"/><use xlink:href="#bL" transform="matrix(1 0 0 1 -.019 -.012)"/><use xlink:href="#bM" transform="matrix(1 0 0 1 -.019 -.012)"/><use xlink:href="#bN" transform="matrix(1 0 0 1 -.019 -.012)"/><use xlink:href="#bO" transform="matrix(1 0 0 1 -.019 -.012)"/><use xlink:href="#bP" transform="matrix(1 0 0 1 -.019 -.012)"/><use xlink:href="#bQ" transform="matrix(1 0 0 1 -.019 -.012)"/><use xlink:href="#bR" transform="matrix(1 0 0 1 -.019 -.012)"/><use xlink:href="#bS" transform="matrix(1 0 0 1 -.019 -.012)"/><use xlink:href="#bT" transform="matrix(1 0 0 1 -.019 -.012)"/><use xlink:href="#bU" transform="matrix(1 0 0 1 -.019 -.012)"/><use xlink:href="#bV" transform="matrix(1 0 0 1 -.019 -.012)"/><use xlink:href="#bW" transform="matrix(1 0 0 1 -.019 -.012)"/><use xlink:href="#bX" transform="matrix(1 0 0 1 -.019 -.012)"/><use xlink:href="#bY" transform="matrix(1 0 0 1 -.019 -.012)"/><use xlink:href="#bZ" transform="matrix(1 0 0 1 -.019 -.012)"/><use xlink:href="#ca" transform="matrix(1 0 0 1 -.019 -.012)"/><use xlink:href="#cb" transform="matrix(1 0 0 1 -.019 -.012)"/><use xlink:href="#cc" transform="matrix(1 0 0 1 -.019 -.012)"/><use xlink:href="#cd" transform="matrix(1 0 0 1 -.019 -.012)"/><use xlink:href="#ce" transform="matrix(1 0 0 1 -.019 -.012)"/><use xlink:href="#cf" transform="matrix(1 0 0 1 -.019 -.012)"/><use xlink:href="#cg" transform="matrix(1 0 0 1 -.019 -.012)"/><use xlink:href="#ch" transform="matrix(1 0 0 1 -.019 -.012)"/><use xlink:href="#ci" transform="matrix(1 0 0 1 -.019 -.012)"/><use xlink:href="#cj" transform="matrix(1 0 0 1 -.019 -.012)"/><use xlink:href="#ck" transform="matrix(1 0 0 1 -.019 -.012)"/><use xlink:href="#cl" transform="matrix(1 0 0 1 -.019 -.012)"/><use xlink:href="#cm" transform="matrix(1 0 0 1 -.019 -.012)"/><use xlink:href="#cn" transform="matrix(.6943 0 0 .72935 -101.7 -234.5)"/><use xlink:href="#co" transform="matrix(.6943 0 0 .72935 -101.7 -234.5)"/><use xlink:href="#cp" transform="matrix(.6943 0 0 .72935 -101.7 -234.5)"/><use xlink:href="#cq" transform="matrix(.6943 0 0 .72935 -101.7 -234.5)"/><use xlink:href="#cr" transform="matrix(.6943 0 0 .72935 -101.7 -234.5)"/><use xlink:href="#cs" transform="matrix(.6943 0 0 .72935 -101.7 -234.5)"/><use xlink:href="#ct" transform="matrix(.6943 0 0 .72935 -101.7 -234.5)"/><use xlink:href="#cu" transform="matrix(.6943 0 0 .72935 -101.7 -234.5)"/><use xlink:href="#cv" transform="matrix(.6943 0 0 .72935 -101.7 -234.5)"/><use xlink:href="#cw" transform="matrix(.6943 0 0 .72935 -101.7 -234.5)"/><use xlink:href="#cx" transform="matrix(.6943 0 0 .72935 -101.7 -234.5)"/><use xlink:href="#cy" transform="matrix(.6943 0 0 .72935 -101.7 -234.5)"/><use xlink:href="#cz" transform="matrix(.6943 0 0 .72935 -101.7 -234.5)"/><use xlink:href="#cA" transform="matrix(.6943 0 0 .72935 -101.7 -234.5)"/></svg>