<svg xmlns="http://www.w3.org/2000/svg" xmlns:xlink="http://www.w3.org/1999/xlink" preserveAspectRatio="none" width="200" height="105"><defs><path fill="#0071B8" d="M153.75 465.5H427.2V321.55H153.75V465.5z" id="a"/><path fill="#FFF" d="M305.3 438.7l-9.25-6.7 3.55-10.75-9.2 6.7-9.15-6.7 3.5 10.85-9.2 6.55h11.35l3.5 10.85 3.5-10.8h11.4m-5.7-72.4l-3.5-10.9 9.2-6.55h-11.35L290.4 338l-3.45 10.8h-11.4l9.25 6.7-3.55 10.8 9.15-6.7 9.2 6.7m-28.5 18.3l-10.85 3.5-6.6-9.25v11.4l-10.8 3.5 10.8 3.5v11.4l6.7-9.3 10.75 3.6-6.7-9.2 6.7-9.15m56.4 5.7v-11.45l-6.7 9.3-10.75-3.55 6.7 9.15-6.7 9.2 10.85-3.55 6.55 9.25v-11.4l10.85-3.5-10.8-3.45z" id="b"/></defs><use xlink:href="#a" transform="matrix(.73145 0 0 .72935 -112.45 -234.5)"/><use xlink:href="#b" transform="matrix(.73145 0 0 .72935 -112.45 -234.5)"/></svg>