<svg xmlns="http://www.w3.org/2000/svg" xmlns:xlink="http://www.w3.org/1999/xlink" preserveAspectRatio="none" width="200" height="105"><defs><g id="a"><path fill="#21467B" d="M42.35 34.5h85V-7.85l-85 42.35m132.85 0h85l-85-42.35V34.5m0-143.95v42.35l85-42.35h-85m120.05 96H234.2L295.25 17v-30.45m0-48.05v-30.45L234.2-61.5h61.05m-167.9-47.95h-85l85 42.35v-42.35m-59 96H7.6V17l60.75-30.45M7.6-91.95v30.45h60.75L7.6-91.95z"/><path fill="#E1474A" d="M222.6-13.45h-23.1l95.75 47.95V23.05l-72.65-36.5m72.65-96H272.6l-96 48h23l95.65-48m-168.65 96h-23L7.6 34.5h23l96-47.95M7.6-98l73 36.55h23.2l-96.2-48V-98m0 46.5v28.1h129.95v57.9h28.1v-57.9h129.6v-28.1h-129.6v-57.95h-28.1v57.95H7.6z"/><path fill="#FFF" d="M199.5-13.45h23.1l72.65 36.5V17L234.2-13.45h61.05v-9.95h-129.6v57.9h9.55V-7.85l85 42.35h35.05L199.5-13.45m73.1-96h-12.4l-85 42.35v-42.35h-9.55v57.95h129.6v-10H234.2l61.05-30.45v-17.5l-95.65 48h-23l96-48M7.6-23.4v9.95h60.75L7.6 17v17.5l96-47.95h23l-96 47.95h11.75l85-42.35V34.5h10.2v-57.9H7.6m129.95-86.05h-10.2v42.35l-85-42.35H7.6l96.2 48H80.6L7.6-98v6.05L68.35-61.5H7.6v10h129.95v-57.95z"/></g></defs><use xlink:href="#a" transform="matrix(.69528 0 0 .72939 -5.3 79.85)"/></svg>