<svg xmlns="http://www.w3.org/2000/svg" xmlns:xlink="http://www.w3.org/1999/xlink" preserveAspectRatio="none" width="200" height="105"><defs><path fill="#F2653F" d="M170.5 465.5h239.95V321.55H170.5V465.5z" id="a"/><path fill="#FFE25C" d="M190.7 445.55h199.55v-104H190.7v104z" id="b"/><path fill="#00846C" d="M390.25 341.55l-99.75 52 99.75 52v-104m-99.75 52l-99.8-52v104l99.8-52z" id="c"/><path fill="#F2653F" d="M211.5 389.95l-6.4 3.9q1 3.3 3.75 6.2 3.1 3.4 7.05 4.35.95-3.95-.6-8.3-1.35-3.75-3.8-6.15z" id="d"/><path fill="#FFE25C" d="M203.1 383.4q.5 1.6-.2 5.8-.85 5.2-.8 7.35.1 9.2 11.55 11.05-2.3-3.7-3.2-6.2-1.4-3.8-.85-7.3 3.4 1.1 6.15 4.05 1.85 1.95 4.05 5.65 3.55-11-4.55-15.3-1.9-1-6.9-2.6-4.05-1.3-5.25-2.5z" id="f"/><path fill="#FFE25C" d="M342.15 453.7l-1.85-5.6-1.8 5.55h-5.9l4.8 3.5-1.85 5.55 4.75-3.45 4.75 3.45-1.8-5.6 4.75-3.4h-5.85m-54.65 3.45l-1.85 5.55 4.75-3.45 4.75 3.45-1.8-5.6 4.75-3.4h-5.85l-1.85-5.6-1.8 5.55h-5.9l4.8 3.5m-44.05-.05l4.75-3.4h-5.85l-1.85-5.6-1.8 5.55h-5.9l4.8 3.5-1.85 5.55 4.75-3.45 4.75 3.45-1.8-5.6m44.05-124.05l-1.85 5.55 4.75-3.45 4.75 3.45-1.8-5.6 4.75-3.4h-5.85l-1.85-5.6-1.8 5.55h-5.9l4.8 3.5m-48.8-3.5h-5.9l4.8 3.5-1.85 5.55 4.75-3.45 4.75 3.45-1.8-5.6 4.75-3.4h-5.85l-1.85-5.6-1.8 5.55m103.45.05l-1.85-5.6-1.8 5.55h-5.9l4.8 3.5-1.85 5.55 4.75-3.45 4.75 3.45-1.8-5.6 4.75-3.4h-5.85z" id="g"/><path fill="#F2653F" d="M281.75 384.8q-3.6 3.6-3.6 8.75 0 5.1 3.6 8.7 3.6 3.6 8.75 3.6 5.1 0 8.7-3.6 3.6-3.6 3.6-8.7 0-5.15-3.6-8.75-3.6-3.6-8.7-3.6-5.15 0-8.75 3.6z" id="h"/><path fill="#FFE25C" d="M294.2 394.7l6-4.3h-7.4l-2.3-7.1-2.3 7.05h-7.45l6.05 4.4-2.35 7.05 6.05-4.35 6 4.35-2.3-7.1z" id="i"/><path id="e" stroke="#373535" stroke-width=".1" stroke-linejoin="miter" stroke-linecap="butt" stroke-miterlimit="4" fill="none" d="M34.178 49.924q2.042 1.75 3.167 4.486 1.292 3.172.5 6.053-3.292-.692-5.876-3.172-2.292-2.116-3.125-4.523l5.334-2.844z"/></defs><use xlink:href="#a" transform="matrix(.83344 0 0 .72935 -142.1 -234.5)"/><use xlink:href="#b" transform="matrix(.83344 0 0 .72935 -142.1 -234.5)"/><use xlink:href="#c" transform="matrix(.83347 0 0 .72939 -142.1 -234.5)"/><g transform="matrix(.83347 0 0 .72939 -142.1 -234.5)"><use xlink:href="#d"/><use xlink:href="#e" transform="matrix(1.1998 0 0 1.371 170.45 321.5)"/></g><use xlink:href="#f" transform="matrix(.83347 0 0 .72939 -142.1 -234.5)"/><use xlink:href="#g" transform="matrix(.83347 0 0 .72939 -142.1 -234.5)"/><use xlink:href="#h" transform="matrix(.83347 0 0 .72939 -142.1 -234.5)"/><use xlink:href="#i" transform="matrix(.83347 0 0 .72939 -142.1 -234.5)"/></svg>