<svg xmlns="http://www.w3.org/2000/svg" xmlns:xlink="http://www.w3.org/1999/xlink" preserveAspectRatio="none" width="200" height="105"><defs><path fill="#FFD635" d="M398.5 417.5v-48h-216v48h216z" id="a"/><path fill="#EE333E" d="M398.5 369.5v-48h-216v48h216z" id="b"/><path fill="#00704B" d="M182.5 417.5v48h216v-48h-216z" id="c"/><path fill="#373535" d="M296.4 388.1l-5.9-18.2-5.85 18.1h-19.2l15.6 11.3-6 18.1 15.45-11.25 15.4 11.25-5.9-18.25 15.5-11.05h-19.1z" id="d"/></defs><use xlink:href="#a" transform="matrix(.92589 0 0 .72917 -168.95 -234.45)"/><use xlink:href="#b" transform="matrix(.92589 0 0 .72917 -168.95 -234.45)"/><use xlink:href="#c" transform="matrix(.92589 0 0 .72917 -168.95 -234.45)"/><use xlink:href="#d" transform="matrix(.92589 0 0 .72917 -168.95 -234.45)"/></svg>