<svg xmlns="http://www.w3.org/2000/svg" xmlns:xlink="http://www.w3.org/1999/xlink" preserveAspectRatio="none" width="200" height="105"><defs><path fill="#00885F" d="M398.5 369.55V321.5H182.45v48.05H398.5z" id="a"/><path fill="#EF4A4E" d="M182.45 417.55v48H398.5v-48H182.45z" id="b"/><path fill="#FFF" d="M398.5 417.55v-48H182.45v48H398.5z" id="c"/><path fill="#165B9E" d="M254 393.5l-71.55-72v144.05L254 393.5z" id="d"/><g id="e"><path fill="#FFF" d="M297.45 400.6q-1.85-2.1-1.9-3.1-.2 2.2-.65 3.9-.5 1.55-.5 1.9.05 1.05 1.35 1.95.15-1 .4-1.9 0-.05.05-.1 0-.05.1 0l.05.05q.05 0 .05.1-.1.55.35 1.4l.45.65q.45-1 1.45-2.4.05-.05.1-.05 0-.05.05 0 .2-.65-1.35-2.4m30.8 2.85q-.1.05-.15.05.95 1.6 1.25 2l.4-.7q.45-.85.45-1.4-.05-.15-.05-.25-.1-.2-.25-.35h-.05q-.2-.2-.45-.15h-.05q-.3 0-.4.2-.4.5-.7.6m2.65-5.25q-.45.95-1.8 2.5-1.55 1.8-1.25 2.35l.05.05q.1.15.25.1.25-.1.6-.5.15-.3.6-.3.4-.1.7.2.2.15.35.45v.05q0 .1.05.2v.05q.05.55.25 1.75 1.2-.8 1.3-1.8-.05-.35-.5-1.85-.35-1.25-.6-3.25m-11.2 13.15v-.05q-.05-.55-1.1-.75-.75-.15-1.05-.4.05.45.15 1.05l.15.9q1.75-.3 1.85-.75m.65-.85h.35l.05 1.6q.1.5-.55.6-.15 0-.3-.1-.1.25-.1.65 6.9 0 10.7-3.95v-.05q.7-.7.65-1.5l-.45-1.5-.2-.9q-.15-.7-.2-1.2-.1.35-.35.75l-.5.8q0 .05-.05.1v.05q-1.7 2.25-4.75 3.25-3 .95-6 .25-.6-.15-.9-.05-.25.05-.2.3v.1q.05.35 1.1.6 1.25.25 1.3 1v.55h.05q0 .5.2.5.2-.05.2-.4l-.05-1.45m10.75-2.55l-.2.25-.35-.25-.55.5.2.4-.25.25-1-2.05.3-.3 1.85 1.2m-1.25.15l.35-.35-.75-.45.4.8m-21.05 4.3h-.05q-1.45-.25-1.9-.65 0 .7.1 1.55v.1q-.1.45-.15 1.25.15 1.2 6.45 1.25 6.25-.05 6.5-1.25-.15-.8-.2-1.25v-.1q.05-.55.1-.8h.1l-.05-.05.1-.45h-.1v-.25q-.5.4-1.9.65h-.1q-1.95.3-4.45.3t-4.45-.3m.2-2.7v-.1q0-.25-.25-.3-.3-.1-.85.05-3.1.7-6.05-.25h.05q-3.1-1-4.75-3.25v-.05q-.05 0-.05-.05l-.55-.8v-.05q-.25-.45-.35-.8-.15.6-.2 1.25l-.15.9q-.45 1.35-.45 1.45v.05q-.1.8.55 1.55 3.9 3.95 10.75 3.95-.1-1.1-.1-1.9v-.05q0-.75 1.3-1 1-.25 1.1-.6z"/><path fill="#373535" d="M309.25 409.6q-.05-.45-.4-.55-.35-.15-1 .05-3.05.65-5.9-.25-3-.95-4.6-3.15.45-1.05 1.5-2.5.05-.05.05-.1-.05-.05-.05-.1h-.05q-.05-.05-.05 0-.05 0-.1.05-1 1.4-1.45 2.4l-.45-.65q-.45-.85-.35-1.4 0-.1-.05-.1l-.05-.05q-.1-.05-.1 0-.05.05-.05.1-.25.9-.4 1.9v.05l-.15.85q-.45 1.35-.45 1.55-.15.95.6 1.75 3.95 4.05 10.9 4.05-.05.4-.1 1.15v.05q.1 1.45 6.7 1.45 6.6 0 6.75-1.45v-.05q-.15-.75-.2-1.15 7.05 0 10.9-4.05.8-.8.7-1.75l-.45-1.5-.2-.85q1.45-.9 1.5-2.05 0-.35-.5-1.95v.05q-.4-1.45-.7-3.9l-.05-.5h-.2v.55q-.05.95-1.9 3-1.7 1.9-1.25 2.6-.05.05 0 .1l.05.05q1.2 2 1.45 2.4-1.65 2.2-4.55 3.15h-.05q-2.9.9-5.85.25-.7-.2-1-.05-.4.1-.4.55v.1q0 .65.15 1.55l.15.9q-1.95.25-4.35.3-2.4-.05-4.3-.3 0-.3.15-.9.1-.9.15-1.55v-.1m-.25 0v.1q-.1.35-1.1.6-1.3.25-1.3 1v.05q0 .8.1 1.9-6.85 0-10.75-3.95-.65-.75-.55-1.55v-.05q0-.1.45-1.45l.15-.9q.05-.65.2-1.25.1.35.35.8v.05l.55.8q0 .05.05.05v.05q1.65 2.25 4.75 3.25h-.05q2.95.95 6.05.25.55-.15.85-.05.25.05.25.3m-.25 2.8h.05q1.95.3 4.45.3t4.45-.3h.1q1.4-.25 1.9-.65v.25h.1l-.1.45.05.05h-.1q-.05.25-.1.8v.1q.05.45.2 1.25-.25 1.2-6.5 1.25-6.3-.05-6.45-1.25.05-.8.15-1.25v-.1q-.1-.85-.1-1.55.45.4 1.9.65m11.95-1.9h-.35l.05 1.45q0 .35-.2.4-.2 0-.2-.5h-.05v-.55q-.05-.75-1.3-1-1.05-.25-1.1-.6v-.1q-.05-.25.2-.3.3-.1.9.05 3 .7 6-.25 3.05-1 4.75-3.25v-.05q.05-.05.05-.1l.5-.8q.25-.4.35-.75.05.5.2 1.2l.2.9.45 1.5q.05.8-.65 1.5v.05q-3.8 3.95-10.7 3.95 0-.4.1-.65.15.1.3.1.65-.1.55-.6l-.05-1.6m-1 .8v.05q-.1.45-1.85.75l-.15-.9q-.1-.6-.15-1.05.3.25 1.05.4 1.05.2 1.1.75m9.4-10.6q1.35-1.55 1.8-2.5.25 2 .6 3.25.45 1.5.5 1.85-.1 1-1.3 1.8-.2-1.2-.25-1.75v-.05q-.05-.1-.05-.2v-.05q-.15-.3-.35-.45-.3-.3-.7-.2-.45 0-.6.3-.35.4-.6.5-.15.05-.25-.1l-.05-.05q-.3-.55 1.25-2.35m-1 2.8q.05 0 .15-.05.3-.1.7-.6.1-.2.4-.2h.05q.25-.05.45.15h.05q.15.15.25.35 0 .1.05.25 0 .55-.45 1.4l-.4.7q-.3-.4-1.25-2m2.8 4.7l.2-.25-1.85-1.2-.3.3 1 2.05.25-.25-.2-.4.55-.5.35.25m-.7-.45l-.35.35-.4-.8.75.45m-17.05 2.6l.1.3.15-.3q.5-1.65 2.95-1.65h4.3q2.1-.05 3.4-1.4 1.5-1.65 1.5-4.7v-24.45H301v24.45q-.05 3.05 1.45 4.7 1.3 1.35 3.4 1.4h4.3q2.45 0 3 1.65m.1-.4q-.7-1.5-3.1-1.5h-4.3q-2 0-3.2-1.3-1.4-1.6-1.4-4.55v-24.2h24.05v24.2q-.05 2.95-1.45 4.55-1.2 1.3-3.2 1.3h-4.3q-2.4 0-3.1 1.5m6.5-23.4q-.15 0-.45-.05-.3-.05-.45-.2l-.05-.05-.1.05q-.65.25-1.15-.2l-.15.2q.6.5 1.35.25.15.15.5.2.45.1.6.05l-.1-.25m-12.45 2.15l.1.25q.2-.1.55 0h-.05q.3.1.35.25l.25-.05q-.1-.3-.5-.45-.4-.15-.7 0m3.8-1.55l-.2-.2q-.5.55-1 .4l-.1.25q.6.2 1.3-.45m-.4-2.15l-.2-.1q-.15.25-.45.15l-.1-.05-.05.15q-.05.15-.35.3-.3.1-.5.05l-.1.25q.3.1.7-.05.35-.15.45-.4.4.1.6-.3m2.6.25q-.3 0-.65-.2h.05q-.3-.2-.35-.35l-.25.05q0 .2.45.5.35.2.65.25.2.3.95.4.75.05 1.15-.25l-.15-.2q-.35.2-1 .2-.65-.05-.7-.3l-.05-.1h-.1m10.75 1.95q.2-.3.05-.75-.25-.45-.65-.6-.05-.25-.2-.35-.1-.1-.25-.1.05-.25 0-.45h-.05q-.15-.35-.5-.3-.1-.3-.45-.45-.35-.15-.65 0-.05-.1-.1-.15-.1-.05-.2-.05 0-.3-.2-.6v-.05q-.3-.3-.65-.25-.15-.4-.4-.4-.05-.2-.2-.4-.2-.2-.45-.2-.35-.3-.85-.1-.5.1-.6.45-.25-.05-.5.05h-.05q-.2.1-.3.2-.15-.1-.35.05-.1-.2-.25-.2-.15-.1-.25-.05-.1-.2-.25-.3h-.05q-.15-.05-.25-.1.05-.15 0-.3t-.15-.25q.05-.25-.1-.5-.15-.35-.45-.3-.05-.2-.2-.25-.1-.1-.25 0-.15-.4-.65-.5-.5-.15-.8.1-.3-.25-.75-.05-.4.2-.4.6-.65-.05-1.05.45-.35.4-.3.9-.25 0-.45.15-.25.2-.25.5-.45-.15-.85.25h-.05q-.4.4-.35.9-.4 0-.65.45-.3.35-.15.75-.5.15-.7.8v-.05q-.2.6-.05 1.15-.5.3-.45.8-.2-.05-.35 0H306q-.3.05-.45.25-.45-.1-.85.1-.4.2-.5.6-.55.1-.75.35-.3.25-.1.7-.05.25.25.4.25.15.55.1.2.3.75.4.5 0 .8-.15.45.15.8-.1h-.05q.25-.1.35-.35.2.15.5.25.25.05.45 0 .05.35.45.55.35.25.7.2h.05q.3.1.7-.05v-.05q.3-.15.45-.35.2 0 .35-.25.15-.25.1-.45.1-.1.15-.25v-.2q.25-.05.5-.2.85.65 1.15 1.35.2.75.1 3.4-.15 3.55-.85 6.8-.6 2.45-1.45 4.45-.25.55.35 1 .5.45.95.15.45.3.75.3.35 0 .55-.25.5.35.9.35.45-.05.75-.5.25.1.45.05.15-.05.25-.2.25.2.45.3.3.1.4-.15h.05q.1-.4-.35-2.15-.8-2.9-1.1-4.5-.45-2.6-.4-5.5.05-2.65.4-3.6.15-.5.9-1.05.5-.45 1.05-.75.05-.05.1-.05v-.05q-.05 0-.05-.05l-.05-.05h-.05l-.1.05.05-.05v-.05q-.116-.016-.2-.1h-.05q-.25-.15-.35-.3-.05 0-.05-.05-.25-.25-.3-.45l-.05-.05q-.3-.55-.25-.95h-.25q0 .45.25 1.05-.2.2-.6.35h-.6q-.1-.05-.2-.15h-.1q-.35 0-.5-.3l-.1-.2-.1.2q-.05.05-.05.1v.05q-.35.35-1.05.35h-.15l.05.15v.25q-.1.1-.35.15h-.1v.1q-.05.15-.15.3-.1 0-.15.05h.05q-.2.15-.5.15h-.05q-.15-.05-.25-.15h-.1q-.25 0-.35-.15l-.2.1q.1.25.5.3.15.1.35.15v.1q-.05.1-.15.2l-.05.1.05.05q.05.15-.05.3t-.2.15h-.1l-.05.05q-.1.2-.35.35-.3.1-.55.05h-.05q-.3.05-.6-.15h-.05q-.25-.15-.3-.4.55-.15.75-.3.4.1.55-.3l-.25-.1q-.1.2-.3.15l-.1-.05-.05.1q-.15.15-.75.3h-.1v.05q-.15 0-.4-.05-.35-.1-.5-.35l-.15-.3-.05.35q-.05.3-.3.45-.25.15-.6.05h-.1q-.3.15-.7.15h-.05q-.3-.05-.5-.2.3-.05.5-.25l-.2-.2q-.2.2-.5.25-.05-.05-.1 0h-.05q-.15.05-.3-.05-.2-.1-.15-.2v-.1q-.15-.25 0-.45.2-.2.75-.25l.1-.1q0-.35.35-.55.35-.15.75 0h.1l.05-.05q.15-.2.4-.25.2-.05.4.05l.25.2-.05-.3q-.15-.5.35-.8l.05-.05q.3-.2.7-.1h.05l.05-.05q.5-.4 1.15-.25l.05-.25q-.75-.2-1.3.3-.4-.1-.7.05-.15-.45.05-.9.15-.6.6-.6l.2-.05-.1-.15q-.15-.35.1-.65v-.05q.2-.35.55-.3h.15v-.15q-.05-.45.3-.8.35-.35.75-.15h.1q.2-.1.55-.05.35.05.5.25l.1.05.05-.05q.15-.05.35.05.25.1.3.3l.25-.05q-.1-.25-.45-.45h.05q-.3-.15-.5-.1-.2-.2-.6-.25-.3-.05-.5 0 0-.2.15-.3.15-.15.4-.05l.25.05-.05-.2q-.15-.5.2-.9t.95-.35h.15v-.15q-.05-.35.25-.5v.05q.35-.15.55.05l.1.1.1-.1q.2-.25.65-.1.45.1.5.45l.05.15.1-.1q.1-.05.2 0 .05 0 .1.15v.1h.15q.2-.05.3.15v.05q.1.15 0 .35l-.05.15.1.05q.15 0 .2.15 0 .1-.05.25l-.05.05v.05q-.05.15-.25.3h.05q-.25.15-.45.15h-.1l-.05.05q-.25.45-.75.35l-.05.25q.6.15.95-.4.3 0 .6-.2.2-.2.25-.4.15 0 .25.05.15.1.2.3l.05.15.15-.1q.05-.05.15 0v.05h.05q.08 0 .1.1.016-.05.05-.05 0-.05.05-.05h.05q.05-.05.1 0v.05l.05.05v.05q.1-.05.2.05l.15.15.1-.25q0-.1.2-.2v.05q.3-.1.45-.05l.15.1.05-.15q.05-.35.5-.4.35-.15.55.05l.05.05h.05q.2 0 .35.15.15.15.15.35l-.05.15h.2q.2-.05.3.25l.05.1h.1q.25-.05.5.2.2.25.15.5l-.05.15q-.2.05-.3.2-.15-.1-.35-.05-.4.05-.5.3l.2.1q.1-.15.35-.15.15 0 .2.05l.15.1.05-.1q.1-.15.35-.2.15-.05.25 0 .05 0 .1.05h.05q0-.05.05-.05h.05q.25-.15.5 0 .25.1.3.3v.15h.15q.3-.05.4.15.05.2-.05.4l-.15.25.3-.05q.15-.05.25 0 .1.1.15.35v.05l.1.05q.3.05.5.45.1.3-.05.55l-.05.05.05.05q.05.2-.1.4-.15.15-.3.15h-.1l-.05.05v.05q-.05.1-.3.15-.25-.05-.35-.1l-.1-.05-.05.05q-.15.05-.3.05-.15-.1-.1-.15v-.15h-.15q-.15 0-.15-.15h-.25q-.05.3.25.4 0 .15.3.3h.05q.15 0 .35-.05.15.1.5.1h.05q.1-.05.2-.05-.05.1-.1.15h-.05q-.2.2-.45.15l-.1-.05-.05.1q-.15.3-.55.45-.5.1-.7-.05h-.05q-.25-.2-.25-.4l-.05-.1h-.1q-.25-.05-.35-.25l-.2.1q.15.3.45.4.05.15.3.4-.45.35-1 0l-.1-.05-.1.05q-.2.2-.6.1-.5-.1-.55-.35l-.1-.15-.15.1q-.15.15-.45.05-.2-.1-.3-.2.45-.15.65-.25.1 0 .3.05h.05q.3-.1.35-.25l-.2-.1q-.05.05-.2.1-.2 0-.3-.05l-.05-.05-.05.05q-.2.15-.75.3h-.05l-.05.05q-.05 0 0 .1 0 .05.05.1.1.25.45.4.35.1.6 0 .2.25.7.35.5.15.8-.1.7.4 1.25-.1.25.1.8 0 .5-.15.7-.5.35.05.6-.2.25-.2.25-.55.2-.05.4-.25.25-.3.15-.55m-10.45.85q.05.05.2.1 0 .65.05 1.4v.4l.2-.3q.4-.75 1.55-1.4.15.15.45.3.05.05.15.1-.5.25-.9.6-.8.55-1 1.15-.4.95-.4 3.7-.1 2.9.4 5.55.25 1.55 1.1 4.5.4 1.7.35 2.05-.05 0-.15-.05-.2-.1-.45-.35v.1l-.05.05q-.05.05-.1.05-.05-.05-.1-.05v-.1q-.05.15-.15.25-.1 0-.25-.05-.05-.05-.1-.05-.2-.1-.35-.85-.25-.9-.2-1.65.1-.95.05-3.05-.05-2.15-.2-2.9-.05-.45.05-3.35.15-2.95 0-4l-.25.05q.1 1 0 3.95-.15 2.9-.05 3.4.1.7.2 2.85 0 2.1-.05 3-.1.8.2 1.75.15.7.4.95-.25.3-.55.35-.4 0-.8-.35.05-2.6.35-3.25.3-.8.3-3.8h-.25q-.05 2.9-.3 3.7-.35.65-.35 3.4-.15.2-.4.2-.3 0-.65-.3l-.05-.05h-.05q-.35-.3-.1-.95.6-1.7 1-3.1.8-2.75.8-4.1.25-6.4 0-7.35l-.25.05q.2 1 0 7.3-.05 1.35-.8 4.05-.45 1.35-1 3.05v.05q-.25.75.1 1.1-.25.1-.55-.15-.45-.35-.25-.7.9-2 1.45-4.5.75-3.3.85-6.85.15-2.75-.1-3.5-.3-.75-1.2-1.4.1-.15.15-.3.25-.05.35-.15.7.5 1 .95l.25.3v-.4-1.6q.15.15.45.2m-.7 1.05q-.35-.35-.9-.75v-.1q.55-.05.9-.25v1.1m2.4-1.25q.05.1.15.25-.95.5-1.4 1.1v-1h.55q.45-.15.7-.35z"/><path fill="#E4E5E6" d="M310.15 408.45q2.4 0 3.1 1.5.7-1.5 3.1-1.5h4.3q2 0 3.2-1.3 1.4-1.6 1.45-4.55v-24.2h-24.05v24.2q0 2.95 1.4 4.55 1.2 1.3 3.2 1.3h4.3m13.95-22q.15.45-.05.75.1.25-.15.55-.2.2-.4.25 0 .35-.25.55-.25.25-.6.2-.2.35-.7.5-.55.1-.8 0-.55.5-1.25.1-.3.25-.8.1-.5-.1-.7-.35-.25.1-.6 0-.35-.15-.45-.4-.05-.05-.05-.1-.4.05-.7 0v.05q-.05 0-.1.05-.55.3-1.05.75-.75.55-.9 1.05-.35.95-.4 3.6-.05 2.9.4 5.5.3 1.6 1.1 4.5.45 1.75.35 2.15h-.05q-.1.25-.4.15-.2-.1-.45-.3-.1.15-.25.2-.2.05-.45-.05-.3.45-.75.5-.4 0-.9-.35-.2.25-.55.25-.3 0-.75-.3-.45.3-.95-.15-.6-.45-.35-1 .85-2 1.45-4.45.7-3.25.85-6.8.1-2.65-.1-3.4-.3-.7-1.15-1.35-.25.15-.5.2v.2q-.05.15-.15.25.05.2-.1.45-.15.25-.35.25-.15.2-.45.35v.05q-.4.15-.7.05h-.05q-.35.05-.7-.2-.4-.2-.45-.55-.2.05-.45 0-.3-.1-.5-.25-.1.25-.35.35h.05q-.35.25-.8.1-.3.15-.8.15-.55-.1-.75-.4-.3.05-.55-.1-.3-.15-.25-.4-.2-.45.1-.7.2-.25.75-.35.1-.4.5-.6.4-.2.85-.1.15-.2.45-.25h.05q.15-.05.35 0-.05-.5.45-.8-.15-.55.05-1.15v.05q.2-.65.7-.8-.15-.4.15-.75.25-.45.65-.45-.05-.5.35-.9h.05q.4-.4.85-.25 0-.3.25-.5.2-.15.45-.15-.05-.5.3-.9.4-.5 1.05-.45 0-.4.4-.6.45-.2.75.05.3-.25.8-.1.5.1.65.5.15-.1.25 0 .15.05.2.25.3-.05.45.3.15.25.1.5.1.1.15.25.05.15 0 .3.1.05.25.1h.05q.15.1.25.3.1-.05.25.05.15 0 .25.2.2-.15.35-.05.1-.1.3-.2h.05q.25-.1.5-.05.1-.35.6-.45.5-.2.85.1.25 0 .45.2.15.2.2.4.25 0 .4.4.35-.05.65.25v.05q.2.3.2.6.1 0 .2.05.05.05.1.15.3-.15.65 0 .35.15.45.45.35-.05.5.3h.05q.05.2 0 .45.15 0 .25.1.15.1.2.35.4.15.65.6m-7.55-3.65q-.05-.05-.1 0h-.05q.05.05.05.1.05-.05.1-.05v-.05m-1.1 5.3q-.1-.15-.15-.25-.25.2-.7.35h-.55v1q.45-.6 1.4-1.1m-3.45.25q.55.4.9.75V388q-.35.2-.9.25v.1m3 17.5v.15q.05 0 .1-.05l-.1-.1z"/><path fill="#00885F" d="M303.6 389.15q-.15.2 0 .45v.1q-.05.1.15.2.15.1.3.05h.05q.05-.05.1 0 .3-.05.5-.25l.2.2q-.2.2-.5.25.2.15.5.2h.05q.4 0 .7-.15h.1q.35.1.6-.05.25-.15.3-.45l.05-.35.15.3q.15.25.5.35.25.05.4.05V390h.1q.6-.15.75-.3l.05-.1.1.05q.2.05.3-.15l.25.1q-.15.4-.55.3-.2.15-.75.3.05.25.3.4h.05q.3.2.6.15h.05q.25.05.55-.05.25-.15.35-.35l.05-.05h.1q.1 0 .2-.15t.05-.3l-.05-.05.05-.1q.1-.1.15-.2v-.1q-.2-.05-.35-.15-.4-.05-.5-.3l.2-.1q.1.15.35.15h.1q.1.1.25.15h.05q.3 0 .5-.15H311q.05-.05.15-.05.1-.15.15-.3v-.1h.1q.25-.05.35-.15v-.05-.2l-.05-.15h.15q.7 0 1.05-.35v-.05q0-.05.05-.1l.1-.2.1.2q.15.3.5.3h.1q.1.1.2.15h.6q.4-.15.6-.35-.25-.6-.25-1.05h.25q-.05.4.25.95l.05.05q.05.2.3.45 0 .05.05.05.1.15.35.3h.05q.084.084.2.1v.05l-.05.05.1-.05h.05l.05.05q0 .05.05.05.3.05.7 0-.05-.1 0-.1l.05-.05h.05q.55-.15.75-.3l.05-.05.05.05q.1.05.3.05.15-.05.2-.1l.2.1q-.05.15-.35.25h-.05q-.2-.05-.3-.05-.2.1-.65.25.1.1.3.2.3.1.45-.05l.15-.1.1.15q.05.25.55.35.4.1.6-.1l.1-.05.1.05q.55.35 1 0-.25-.25-.3-.4-.3-.1-.45-.4l.2-.1q.1.2.35.25h.1l.05.1q0 .2.25.4h.05q.2.15.7.05.4-.15.55-.45l.05-.1.1.05q.25.05.45-.15h.05q.05-.05.1-.15-.1 0-.2.05h-.05q-.35 0-.5-.1-.2.05-.35.05h-.05q-.3-.15-.3-.3-.3-.1-.25-.4h.25q0 .15.15.15h.15v.15q-.05.05.1.15.15 0 .3-.05l.05-.05.1.05q.1.05.35.1.25-.05.3-.15v-.05l.05-.05h.1q.15 0 .3-.15.15-.2.1-.4l-.05-.05.05-.05q.15-.25.05-.55-.2-.4-.5-.45l-.1-.05V386q-.05-.25-.15-.35-.1-.05-.25 0l-.3.05.15-.25q.1-.2.05-.4-.1-.2-.4-.15h-.15v-.15q-.05-.2-.3-.3-.25-.15-.5 0h-.05q-.05 0-.05.05h-.05q-.05-.05-.1-.05-.1-.05-.25 0-.25.05-.35.2l-.05.1-.15-.1q-.05-.05-.2-.05-.25 0-.35.15l-.2-.1q.1-.25.5-.3.2-.05.35.05.1-.15.3-.2l.05-.15q.05-.25-.15-.5-.25-.25-.5-.2h-.1l-.05-.1q-.1-.3-.3-.25h-.2l.05-.15q0-.2-.15-.35-.15-.15-.35-.15H319l-.05-.05q-.2-.2-.55-.05-.45.05-.5.4l-.05.15-.15-.1q-.15-.05-.45.05v-.05q-.2.1-.2.2l-.1.25-.15-.15q-.1-.1-.2-.05v-.05l-.05-.05q-.05 0-.1.05 0-.05-.05-.1-.05 0-.05.05-.034 0-.05.05-.02-.1-.1-.1h-.05v-.05q-.1-.05-.15 0l-.15.1-.05-.15q-.05-.2-.2-.3-.1-.05-.25-.05-.05.2-.25.4-.3.2-.6.2-.35.55-.95.4l.05-.25q.5.1.75-.35l.05-.05h.1q.2 0 .45-.15h-.05q.2-.15.25-.3v-.05l.05-.05q.05-.15.05-.25-.05-.15-.2-.15l-.1-.05.05-.15q.1-.2 0-.35v-.05q-.1-.2-.3-.15h-.15v-.1q-.05-.15-.1-.15-.1-.05-.2 0l-.1.1-.05-.15q-.05-.35-.5-.45-.45-.15-.65.1l-.1.1-.1-.1q-.2-.2-.55-.05v-.05q-.3.15-.25.5v.15h-.15q-.6-.05-.95.35-.35.4-.2.9l.05.2-.25-.05q-.25-.1-.4.05-.15.1-.15.3.2-.05.5 0 .4.05.6.25.2-.05.5.1h-.05q.35.2.45.45l-.25.05q-.05-.2-.3-.3-.2-.1-.35-.05l-.05.05-.1-.05q-.15-.2-.5-.25-.35-.05-.55.05h-.1q-.4-.2-.75.15t-.3.8v.15h-.15q-.35-.05-.55.3v.05q-.25.3-.1.65l.1.15-.2.05q-.45 0-.6.6-.2.45-.05.9.3-.15.7-.05.55-.5 1.3-.3l-.05.25q-.65-.15-1.15.25l-.05.05h-.05q-.4-.1-.7.1l-.05.05q-.5.3-.35.8l.05.3-.25-.2q-.2-.1-.4-.05-.25.05-.4.25l-.05.05h-.1q-.4-.15-.75 0-.35.2-.35.55l-.1.1q-.55.05-.75.25m9.05-4.1q.35.2.65.2h.1l.05.1q.05.25.7.3.65 0 1-.2l.15.2q-.4.3-1.15.25-.75-.1-.95-.4-.3-.05-.65-.25-.45-.3-.45-.5l.25-.05q.05.15.35.35h-.05m-2.15-.15l.2.1q-.2.4-.6.3-.1.25-.45.4-.4.15-.7.05l.1-.25q.2.05.5-.05.3-.15.35-.3l.05-.15.1.05q.3.1.45-.15m.4 2.05l.2.2q-.7.65-1.3.45l.1-.25q.5.15 1-.4m-3.5 2l-.1-.25q.3-.15.7 0 .4.15.5.45l-.25.05q-.05-.15-.35-.25h.05q-.35-.1-.55 0m11.9-2.45q.3.05.45.05l.1.25q-.15.05-.6-.05-.35-.05-.5-.2-.75.25-1.35-.25l.15-.2q.5.45 1.15.2l.1-.05.05.05q.15.15.45.2z"/><path fill="#825229" d="M313.8 388.15q-.15-.05-.2-.1-.3-.05-.45-.2v2l-.25-.3q-.3-.45-1-.95-.1.1-.35.15-.05.15-.15.3.9.65 1.2 1.4.25.75.1 3.5-.1 3.55-.85 6.85-.55 2.5-1.45 4.5-.2.35.25.7.3.25.55.15-.35-.35-.1-1.1V405q.55-1.7 1-3.05.75-2.7.8-4.05.2-6.3 0-7.3l.25-.05q.25.95 0 7.35 0 1.35-.8 4.1-.4 1.4-1 3.1-.25.65.1.95h.05l.05.05q.35.3.65.3.25 0 .4-.2 0-2.75.35-3.4.25-.8.3-3.7h.25q0 3-.3 3.8-.3.65-.35 3.25.4.35.8.35.3-.05.55-.35-.25-.25-.4-.95-.3-.95-.2-1.75.05-.9.05-3-.1-2.15-.2-2.85-.1-.5.05-3.4.1-2.95 0-3.95l.25-.05q.15 1.05 0 4-.1 2.9-.05 3.35.15.75.2 2.9.05 2.1-.05 3.05-.05.75.2 1.65.15.75.35.85.05 0 .1.05.15.05.25.05.1-.1.15-.25v.1q.05 0 .1.05v-.15l.1.1.05-.05v-.1q.25.25.45.35.1.05.15.05.05-.35-.35-2.05-.85-2.95-1.1-4.5-.5-2.65-.4-5.55 0-2.75.4-3.7.2-.6 1-1.15.4-.35.9-.6-.1-.05-.15-.1-.3-.15-.45-.3-1.15.65-1.55 1.4l-.2.3v-.4q-.05-.75-.05-1.4z"/></g><g id="f"><path fill="#373535" d="M311.65 373.4l.7-1.35-1.55.1-.85-1.25-.65 1.35-1.55.15.85 1.25-.6 1.2-.05.2 1.5-.15.85 1.3.1-.2.55-1.2 1.55-.1-.85-1.3m.3-1.05l-.5 1.05-.05.05.65 1.05-1.25.05v.1l-.5 1.05-.65-1-.05-.05-1.25.1.55-1.1-.7-1.05 1.25-.1.05-.05.5-1.05.65.95v.05l1.3-.05z"/><path fill="#FFD051" d="M311.45 373.4l.5-1.05-1.3.05v-.05l-.65-.95-.5 1.05-.05.05-1.25.1.7 1.05-.55 1.1 1.25-.1.05.05.65 1 .5-1.05v-.1l1.25-.05-.65-1.05.05-.05z"/></g><g id="g"><path fill="#373535" d="M303.5 371.85l-.45 1.45-1.5.3 1 1.1-.45 1.5 1.5-.3 1 1.1.5-1.45 1.5-.35-1.05-1.1.5-1.5-1.5.35-1.05-1.1m-1.45 1.9l1.1-.25h.1l.35-1.15.85.85h.05l1.15-.25-.4 1.2.85.9-1.15.25-.05.05-.05.05-.35 1.1-.75-.85-.05-.05h-.1l-1.15.25.35-1.15.05-.05-.8-.9z"/><path fill="#FFD051" d="M303.15 373.5l-1.1.25.8.9-.05.05-.35 1.15 1.15-.25h.1l.05.05.75.85.35-1.1.05-.05.05-.05 1.15-.25-.85-.9.4-1.2-1.15.25h-.05l-.85-.85-.35 1.15h-.1z"/></g><g id="h"><path fill="#373535" d="M300.9 376.45l-1.25-.85.15-1.5-1.4.6-1.25-.9-.15 1.55-1.35.6 1.2.9-.1 1.55.2-.1 1.2-.55 1.2.85.15-1.45 1.4-.7m-1.5-.75l.05.05.95.65-1.05.5-.1.05v.05l-.1 1.15-.95-.65-.05-.05h-.05l-1.05.5.05-1.15v-.05l-.05-.05-.95-.7 1.1-.45.05-.05.1-1.25.95.7.05.05.1-.05 1.05-.5-.1 1.2v.05z"/><path fill="#FFD051" d="M299.45 375.75l-.05-.05v-.05l.1-1.2-1.05.5-.1.05-.05-.05-.95-.7-.1 1.25-.05.05-1.1.45.95.7.05.05v.05l-.05 1.15 1.05-.5h.05l.05.05.95.65.1-1.15v-.05l.1-.05 1.05-.5-.95-.65z"/></g><g id="i"><path fill="#373535" d="M317.85 373.65l.85-1.25-1.5-.15-.7-1.35-.85 1.25-1.5-.1.65 1.35-.85 1.3 1.5.1.75 1.4.8-1.3 1.5.15-.1-.2-.55-1.2m-.9-1.2l.05.05 1.25.1-.7 1.05.5 1.1-1.2-.1v.05l-.65 1-.55-1.05-.05-.1-1.2-.05.7-1.05-.05-.05-.5-1.05 1.25.05.05-.05.6-.95.5 1.05z"/><path fill="#FFD051" d="M317 372.5l-.05-.05-.5-1.05-.6.95-.05.05-1.25-.05.5 1.05.05.05-.7 1.05 1.2.05.05.1.55 1.05.65-1v-.05l1.2.1-.5-1.1.7-1.05-1.25-.1z"/></g><g id="j"><path fill="#373535" d="M322.95 371.85l-1 1.1-1.5-.35.45 1.5-1 1.1 1.5.35.45 1.45 1.05-1.1 1.45.3-.4-1.5.95-1.1-1.45-.3-.5-1.45m-.9 1.4l.05-.1.75-.8.35 1.1.05.05h.05l1.15.25-.8.9v.05l.35 1.15-1.15-.25h-.05l-.85.9-.35-1.15-.1-.05-1.1-.25.8-.9-.05-.05-.35-1.15 1.15.25.1.05z"/><path fill="#FFD051" d="M322.1 373.15l-.05.1-.1-.05-1.15-.25.35 1.15.05.05-.8.9 1.1.25.1.05.35 1.15.85-.9h.05l1.15.25-.35-1.15v-.05l.8-.9-1.15-.25h-.05l-.05-.05-.35-1.1-.75.8z"/></g><g id="k"><path fill="#373535" d="M329.6 376.85l1.25-.9-1.4-.6-.15-1.55-1.2.9-1.4-.6.1 1.5-1.2.85.2.1 1.15.55.15 1.5 1.25-.9 1.4.7-.15-1.55m-.4-1.4v.05l.1.05 1.05.45-.95.7-.05.05.1 1.25-1.05-.5-.05-.05-1.05.7-.1-1.1v-.1h-.05l-1.1-.55.95-.65.05-.05v-.05l-.05-1.15 1.05.45.05.05.05-.05.95-.7.1 1.2z"/><path fill="#FFD051" d="M329.2 375.5v-.05l-.1-1.2-.95.7-.05.05-.05-.05-1.05-.45.05 1.15v.05l-.05.05-.95.65 1.1.55h.05v.1l.1 1.1 1.05-.7.05.05 1.05.5-.1-1.25.05-.05.95-.7-1.05-.45-.1-.05z"/></g><path fill="#373535" d="M312.25 413.7q0-.65-.55-.65h-.85v2.1h.35v-.75h.5q.55 0 .55-.7m-1.05.35v-.65h.4q.3 0 .3.3 0 .35-.3.35h-.4z" id="l"/><path fill="#373535" d="M313.5 413.1h-.45l-.6 2.15h.35l.15-.4h.65l.15.4h.35l-.6-2.15m-.25.5l.25.9h-.45l.2-.9z" id="m"/><path fill="#373535" d="M314.9 413.45h.95l-.9 1.35v.4h1.35v-.4h-.95l.95-1.3v-.45h-1.4v.4z" id="n"/><path fill="#373535" d="M296.2 408.3q-.25-.25-.05-.55l.95-1.15-.3-.2-.95 1.1q-.4.6.1 1.05.6.45 1.05-.1l.95-1.15-.3-.25-.95 1.15q-.2.3-.5.1z" id="o"/><path fill="#373535" d="M298.65 407.95l-.3-.25-1.25 1.75.3.2.9-1.2-.3 1.65.3.25 1.25-1.75-.3-.2-.85 1.15.25-1.6z" id="p"/><path fill="#373535" d="M299.05 410.75l.35.15 1-1.85-.35-.2-1 1.9z" id="q"/><path fill="#373535" d="M301.95 410.85q.4-.9-.3-1.25l-.65-.3-.9 2 .75.3q.6.3 1.1-.75m-.5-.95q.4.2.15.8-.3.7-.7.5l-.3-.1.55-1.3.3.1z" id="r"/><path fill="#373535" d="M303.65 410.15l-.45-.1-1.15 1.95.4.1.2-.4.3.1.35.05.05.45.35.1-.05-2.25m-.8 1.25l.45-.8v.9l-.45-.1z" id="s"/><path fill="#373535" d="M305.25 410.4l-.75-.05-.2 2.15.8.1q.3.05.55-.3.2-.35.25-.8.1-.9-.65-1.1m-.4.35l.3.05q.45 0 .4.7-.1.7-.55.7l-.3-.05.15-1.4z" id="t"/><path fill="#373535" d="M322.5 410.2l-.4.05.2 1.45q.1.4-.3.45-.3.05-.4-.35l-.15-1.45-.4.05.2 1.45q0 .8.8.65.75-.05.65-.85l-.2-1.45z" id="u"/><path fill="#373535" d="M323.4 410.4q.4-.15.5.15l.35-.1q-.3-.65-.95-.45-.6.25-.45.85.2.5.9.4.4-.1.5.15.1.3-.25.4-.4.15-.5-.2l-.35.1q.25.7.9.45.75-.2.5-.9-.2-.5-.85-.4-.4.05-.5-.1-.15-.3.2-.35z" id="v"/><path fill="#373535" d="M325.55 411.65l.35-.1-.65-1.65.5-.2-.15-.35-1.35.55.15.35.5-.25.65 1.65z" id="w"/><path fill="#373535" d="M326.95 411.05l.35-.2-1.05-1.85-.35.2 1.05 1.85z" id="x"/><path fill="#373535" d="M328.05 408.75l.3-.15q-.4-.7-1.05-.3-.75.4-.15 1.4.55 1 1.25.55.75-.35.3-1.05l-.3.15q.15.4-.15.55-.4.25-.8-.4-.35-.65.05-.85.3-.15.55.1z" id="y"/><path fill="#373535" d="M329.35 409.5l.35-.2-1.3-1.75-.3.25 1.25 1.7z" id="z"/></defs><use xlink:href="#a" transform="matrix(.92569 0 0 .72888 -168.9 -234.35)"/><use xlink:href="#b" transform="matrix(.92569 0 0 .72888 -168.9 -234.35)"/><use xlink:href="#c" transform="matrix(.92569 0 0 .72888 -168.9 -234.35)"/><use xlink:href="#d" transform="matrix(.92569 0 0 .72888 -168.9 -234.35)"/><use xlink:href="#e" transform="matrix(.92569 0 0 .72888 -168.9 -234.35)"/><use xlink:href="#f" transform="matrix(.92566 0 0 .72885 -168.9 -234.35)"/><use xlink:href="#g" transform="matrix(.92566 0 0 .72885 -168.9 -234.35)"/><use xlink:href="#h" transform="matrix(.92566 0 0 .72885 -168.9 -234.35)"/><use xlink:href="#i" transform="matrix(.92566 0 0 .72885 -168.9 -234.35)"/><use xlink:href="#j" transform="matrix(.92566 0 0 .72885 -168.9 -234.35)"/><use xlink:href="#k" transform="matrix(.92566 0 0 .72885 -168.9 -234.35)"/><use xlink:href="#l" transform="matrix(.92566 0 0 .72885 -168.9 -234.35)"/><use xlink:href="#m" transform="matrix(.92563 0 0 .72882 -168.9 -234.35)"/><use xlink:href="#n" transform="matrix(.92566 0 0 .72885 -168.9 -234.35)"/><use xlink:href="#o" transform="matrix(.92566 0 0 .72885 -168.9 -234.35)"/><use xlink:href="#p" transform="matrix(.92566 0 0 .72885 -168.9 -234.35)"/><use xlink:href="#q" transform="matrix(.92563 0 0 .72882 -168.9 -234.35)"/><use xlink:href="#r" transform="matrix(.92566 0 0 .72885 -168.9 -234.35)"/><use xlink:href="#s" transform="matrix(.92563 0 0 .72882 -168.9 -234.35)"/><use xlink:href="#t" transform="matrix(.92566 0 0 .72885 -168.9 -234.35)"/><use xlink:href="#u" transform="matrix(.92566 0 0 .72885 -168.9 -234.35)"/><use xlink:href="#v" transform="matrix(.92563 0 0 .72882 -168.9 -234.35)"/><use xlink:href="#w" transform="matrix(.92563 0 0 .72882 -168.9 -234.35)"/><use xlink:href="#x" transform="matrix(.92563 0 0 .72882 -168.9 -234.35)"/><use xlink:href="#y" transform="matrix(.92566 0 0 .72885 -168.9 -234.35)"/><use xlink:href="#z" transform="matrix(.92563 0 0 .72882 -168.9 -234.35)"/></svg>