<svg xmlns="http://www.w3.org/2000/svg" xmlns:xlink="http://www.w3.org/1999/xlink" preserveAspectRatio="none" width="200" height="105"><defs><path fill="#0081C4" d="M182.5 465.5h216v-144h-216v144z" id="a"/><path fill="#FFF" d="M398.5 353.55v-16H262.4v16h136.1z" id="b"/><path fill="#FFF" d="M398.5 385.55v-16H262.4v16h136.1z" id="c"/><path fill="#FFF" d="M182.5 433.55v16h216v-16h-216z" id="d"/><path fill="#FFF" d="M230.25 321.5h-16v32.05H182.5v16h31.75v31.95H182.5v16.05h216V401.5H230.25v-31.95h32.15v-16h-32.15V321.5z" id="e"/></defs><use xlink:href="#a" transform="matrix(.92587 0 0 .72917 -168.95 -234.45)"/><use xlink:href="#b" transform="matrix(.92587 0 0 .72917 -168.95 -234.45)"/><use xlink:href="#c" transform="matrix(.92587 0 0 .72917 -168.95 -234.45)"/><use xlink:href="#d" transform="matrix(.92587 0 0 .72917 -168.95 -234.45)"/><use xlink:href="#e" transform="matrix(.92587 0 0 .72917 -168.95 -234.45)"/></svg>