<svg xmlns="http://www.w3.org/2000/svg" xmlns:xlink="http://www.w3.org/1999/xlink" preserveAspectRatio="none" width="200" height="105"><defs><path fill="#EE333E" d="M156.3 465.5h268.35V321.55H156.3V465.5z" id="a"/><path fill="#21467B" d="M162.85 458.75H418.1v-130.7H162.85v130.7z" id="b"/><g id="c"><path fill="#373535" d="M272.55 371.3q-8.478 10.861-8.5 22.2.022 11.389 8.5 22.2 5.308 6.836 17.8 17.25l.1.05.05-.05q12.541-10.364 17.9-17.25 8.478-10.811 8.45-22.2.028-11.339-8.45-22.2-5.359-6.836-17.9-17.2l-.05-.1-.1.1q-12.492 10.414-17.8 17.2m-8.25 22.2q.028-11.261 8.45-22.05 5.276-6.744 17.7-17.1 12.424 10.306 17.75 17.1 8.422 10.789 8.4 22.05.022 11.311-8.4 22.05-5.326 6.843-17.75 17.15-12.424-10.356-17.7-17.15-8.422-10.739-8.45-22.05z"/><path fill="#EE333E" d="M272.75 371.45q-8.422 10.789-8.45 22.05.028 11.311 8.45 22.05 5.276 6.794 17.7 17.15 12.424-10.307 17.75-17.15 8.422-10.739 8.4-22.05.022-11.261-8.4-22.05-5.326-6.794-17.75-17.1-12.424 10.356-17.7 17.1z"/></g><g id="d"><path fill="#373535" d="M312.9 400.2l.05-.15h-45v.15q1.98 8.05 8.85 16.05 4.36 5.086 13.55 13l.1.05.05-.05q9.24-7.864 13.65-13 6.871-8 8.75-16.05m-.25.1q-1.936 7.925-8.7 15.8-4.372 5.093-13.5 12.85-9.128-7.807-13.45-12.85-6.765-7.875-8.75-15.8h44.4z"/><path fill="#21467B" d="M303.95 416.1q6.764-7.875 8.7-15.8h-44.4q1.985 7.925 8.75 15.8 4.322 5.043 13.45 12.85 9.128-7.757 13.5-12.85z"/></g><g id="e"><path fill="#373535" d="M274.65 373.35q-7.478 9.912-7.5 20.15.023 3.362.8 6.7l.05.1h44.9v-.1q.827-3.036.8-6.7.028-10.289-7.45-20.15-4.658-6.086-15.75-15.55l-.05-.1-.1.1q-11.042 9.514-15.7 15.55m-7.25 20.15q.027-10.161 7.45-20 4.626-5.994 15.6-15.45 10.974 9.407 15.6 15.45 7.422 9.789 7.4 20 .023 3.577-.75 6.55h-44.5q-.773-3.262-.8-6.55z"/><path fill="#00B1E8" d="M274.85 373.5q-7.423 9.839-7.45 20 .027 3.288.8 6.55h44.5q.773-2.973.75-6.55.022-10.211-7.4-20-4.626-6.043-15.6-15.45-10.974 9.456-15.6 15.45z"/></g><g id="f"><path fill="#373535" d="M313.7 395.55l-.2.05q-5.016 1.423-12.9 1.7-7.536.274-13.45-.55h-.1l-.05.1-1.2 3.3-.05.15h27.15v-.1q.525-2.125.75-4.45l.05-.2m-27.55 4.5l1.1-3q5.86.773 13.35.5 7.781-.268 12.8-1.65-.241 2.164-.7 4.15h-26.55z"/><path fill="#D6D7D8" d="M287.25 397.05l-1.1 3h26.55q.459-1.986.7-4.15-5.019 1.382-12.8 1.65-7.49.273-13.35-.5z"/></g><path fill="#FFF215" d="M283.65 416.15q3.2-.7 4.75-.45 1.5.15.2-.9-2.15-1.9-7.5-2.95-3.85-.8-8.25-1 2.25 3.5 5.6 7.1 1.95-1.05 5.2-1.8z" id="g"/><path fill="#FFF215" d="M295.5 416.5q0 2.25-4.85 3-5.6.9-7.2 3.45 1.75 1.6 7 6.2 7.35-6.2 11.2-10.25 5.85-6.15 8.75-12.05-1.95-.65-7.2 1.7-3.15 1.45-7.75 1.35-4.05-.05-5.85 1.3-.55.4-.4.5.1.1.85.2 2.35.15 3.95 1.5 1.5 1.3 1.5 3.1z" id="i"/><g id="k"><path fill="#009776" d="M279.6 376.35l-.05.3q-.013.228-.15.5.819-.461 1.5-1.05l.4-.3-.45.95q.511-.255 1.75-1l.1.1.1.05q-.047.18-.2.5.891-.372 1.6-.4h.2l-.1.2q-.094.194-.2.35.734-.191 1.6-.1h.05l.5.05v.05l-.5.15q-2.534.81-4.6 3.05-1.795 1.993-2 3.6.4-.584 1.1-1.3l.3-.35-.1.5q.002.07 0 .3.206-.429.55-1.1v-.05h.05l.2-.45h.05l-.05.5q-.002.202.05.5.281-.574.85-1.5v-.05l.05-.05.25-.4.1.05-.15.5q-.071.237 0 .65.477-.805 1-1.4l.05-.05.3-.35h.05l-.15.5q-.09.34-.1.6.394-.581 1.15-1.45l.3-.35h.05l-.15.45q-.045.272-.1.75.507-.642 1.5-1.55l.35-.35.05.05-.2.45q-.03.078-.15.65.273-.202.65-.45.692-.417 1-.55l.45-.15.05.1-.4.3h-.05q-.39.362-1.5 1.95l.85-.2v.05l-.4.3q-.408.319-.95 1.05.175-.064.35-.15l.45-.1h.05l-.4.35q-.479.427-.9 1.35l.95-.35.05.05-.4.35q-.35.305-.95 1.6-.013.123-.05.2l.4-.25q.08-.136.15-.25h.05l.4-.3.05.1-.3.35q-.202.269-.6 1.05-.079.234-.15.4.127-.122.3-.3l.3-.3-.3 1.45.1-.1.25-.25-.05.35q-.04.58.05 1.2l.25-1.25.15.35q.053-.439.15-1.2l.05-.2.35.3q-.103-.666-.05-1.35l.05-.4.2.4q.066.107.15.2-.163-.677-.1-1.25l.1-.45h.05l.1.45q.063.194.1.3v-1.7h.1l.15.45q.092.265.3.5-.07-1.118-.05-1.45l.05-.25.5.5-.05-1.9h.1l.15.45q.108.229.25.4.009-.522.1-1.4l.05-.25.4.5q.246-.94 1.1-1.95l.1-.1.1.1q.547.548 1.1 1.8l.25-.65.2 1.45q.11-.124.25-.2l.15-.05v.2l.1.9q.058-.061.1-.1l.1.1h.1q-.053.68 0 1.3l.15-.25.05-.05.25-.4.05.05-.1.5q-.05.255.25 1.5.11-.175.15-.3.038-.027.05-.05l.2-.4.15 2.1.2-.35.05-.05.25-.4.05.05-.1.45q-.08.585.2 1.35.046-.172.15-.35l.1-.2.1.25q.392.892.55 1.35.141-.707-.2-1.6-.015-.024-.05-.05l-.15-.45.05-.05.35.35q.06.064.1.1-.206-.848-.55-1.1l-.35-.35.05-.1.45.25q.058.024.1.05l.2.1q-.223-.796-.6-1.45l-.2-.3.7.25q-.408-.762-.9-1.2h-.05l-.35-.35v-.05l.8.3q-.35-.452-1.25-1.05l-.3-.25h1.05q-.522-.481-1.3-.95 0 .014-.05 0l-.4-.25.05-.1.95.2q-.288-.475-1.05-1.1l-.35-.35.05-.1.45.25h.05q.932.482 1.35.8.02-.395-.15-.75l-.1-.4.3.25q.642.423 1 .85l.05-.7.15.15q.799.557 1.3 1.25.038-.315-.05-.75l-.05-.45.3.35q.447.596.65.85.017-.196 0-.3V379l-.2-.5h.05l.35.35q.083.095.55 1.05.084-.383 0-.55l-.1-.5h.05l.3.35v.05q.504.62.75 1.05l.1-.75.2.25q.35.524.5 1.2.115-.34.05-.55l-.1-.45.1-.05.25.4q.014.047 0 .05.254.4.65 1.45.025-.171 0-.45v-.55h.1l.65 1.75.05-.35v-.05l.05-.45h.15l.05.45q.118.662.8 1.45.134-2.854-2.45-5-2.355-1.979-5.6-2.45h-.05l-.2-.5-.05-.05-.15-.45.4.3q.19.185.9.35-.143-.15-.2-.2l-.35-.35.05-.05.45.15q.026.035.05.05.614.233.95.3l-.95-.9.45.1q.06.034.1.05.335.103 1.1.45-.07-.257-.15-.4.01-.027 0-.05l-.25-.45.4.3q.422.279.9.45l-.25-.95.3.25q.588.482.95.65-.049-.33-.15-.5l-.3-.4h.05l.4.25q.23.123.95.55-.094-.195-.2-.35v-.05l-.3-.4.1-.1.4.35q.155.17.8.55l-.1-.3h-.05v-.05l-.25-.45.05-.05.4.35q.124.13 1 .7l-.25-.75.25.1q.339.162 1.35.75-.952-1.365-3.8-1.95-3.033-.616-5.4.15l-.5.15-.05-.05.4-.3.05-.05q.384-.257.6-.45.314-.226.65-.35-.396-.16-.5-.4l-.15-.2h.25q.281.063 1.3-.15l-.8-.65h.35q.824.023 1.35-.1l-.8-.35.05-.1.45.05h.05q.556.132.95.1-.455-.46-.6-.55l-.4-.3.05-.05.45.1q.704.184 1.45.05l-.85-.4 1.7-.35q-.182-.101-.55-.25l-.45-.15v-.05l.5-.05h.05q.5-.035 1.05-.4-2.484.109-4.55 1.25-2.142 1.179-3.35 3.1.014.051 0 .05l-.25.4h-.05l.05-.45q.072-.492-.1-1.35-.068-.537-.1-.85l-.65.7v-.05l.1-.45q.233-.641.15-1.65l-.25.4v.05l-.25.4h-.05l.05-.5q.151-.908-.1-1.85l-.35.5v.05l-.25.4h-.05l.05-.5q.144-.724-.3-2.05-.048.262-.2.65l-.15.45-.1-.5q-.026-.377-.25-1.3-.045-.244-.1-.45-.03.23-.1.5l-.05.4-.75-1.5v.6l-.2-.3q-.438-.548-.95-1 .205.393.45 1l.15.3-.25-.1q.303.43.6 1.1l.1.2-.5-.1q.424.441 1 1.1l.15.2-.6.05q.426.3.9.9h.05l.3.4-.1.05-.4-.25v-.05q-.2-.108-.4-.15l1.25 1.4-.1.1-.4-.25v-.05q-.275-.158-.7-.2l1.25 1.4h-.8q.504.47 1.1 1.2l.3.4h-.05l-.4-.2q-.025-.012-.05-.05-.242-.078-.55-.1.3.357.95 1.25l.15.25-1.05-.2h-.05v-.05q-1.243-2.008-3.35-3.35-1.526-1.023-3-1.3.88.537 1.2.85l.2.25-.65-.05 1.4.85-.7.05q.415.264 1.3.65l.45.25-.7.05q.64.32 1.05.9l.15.25-.45-.05q.527.342.9.7l.2.25-.5-.05q.114.074.25.15.549.314.7.5l.15.25-.6-.05q.71.504 1.15.95.027.05.05.05l.3.35v.05l-.45-.2q-3.813-1.811-7.85-1-3.827.86-6.15 3.75.562-.224 1.7-.8l.05-.05h.05l.4-.25.05.05-.3.4q-.117.114-.2.35.84-.59 1.25-.85l.35-.2-.3.8 1.7-1.25z"/><path fill="#373535" d="M282.9 368.1l-.5-.05v.05l.4.25q.916.541 1.35.9l-.9-.05 1.55.95-.55.05.2.2q.255.254 1.2.7l-.75.05v.05l.45.15q.778.268 1.25.85l-.9-.05.45.25q.024.014.05 0 .544.352.95.7l-.85-.05.4.25.75.4h-.05q.254.137.4.25l-.85-.05.35.25q.567.37.95.7-3.54-1.464-7.3-.7-4.173.936-6.6 4.25l-.3.35.45-.15q.357-.12 1.9-.95-.053.227-.1.5v.25l.2-.15q.716-.519 1.15-.85l-.35.9 1.95-1.35q-.08.2-.2.45l-.2.35.35-.2q.742-.402 1.4-.9l-.3.6.25-.1q.22-.023 1.9-1-.08.189-.2.45l-.1.3.3-.15q.85-.418 1.55-.5-.162.311-.3.4l-.05.05-.35.3.05.1.45-.2q.586-.22 1.3-.25-2.263.91-4.15 2.95-2.138 2.365-2.1 4.25v.45l.25-.4q.013-.024 0-.05.374-.598 1.05-1.35.024.234 0 .55v.5l.1.05.15-.45q.141-.335.6-1.3.061.218.1.45l.1.4.15-.35q.22-.48.75-1.45.06.303.15.65l.1.25.15-.25q.378-.747.8-1.35-.02.352.05.6l.1.25.15-.25q.296-.534 1-1.35-.026.313-.05.75v.45l.25-.4q.014-.024 0-.05.389-.583 1.35-1.5-.033.283-.15.7l-.1.45.35-.35q.293-.313.9-.7.167-.086.3-.15-.484.575-1.25 1.7l-.2.3.5-.15q-.42.456-.9 1.15l-.3.4.05.05.4-.25q.113-.053.2-.1-.369.491-.75 1.3l-.1.25.65-.2q-.377.55-.9 1.75l-.15.35.4-.25q.062-.09.1-.2.037-.077.05-.2.6-1.295.95-1.6l.4-.35-.05-.05-.95.35q.421-.923.9-1.35l.4-.35h-.05l-.45.1q-.175.086-.35.15.542-.731.95-1.05l.4-.3v-.05l-.85.2q1.11-1.588 1.5-1.95h.05l.4-.3-.05-.1-.45.15q-.308.133-1 .55-.377.248-.65.45.12-.572.15-.65l.2-.45-.05-.05-.35.35q-.993.908-1.5 1.55.055-.478.1-.75l.15-.45H285l-.3.35q-.756.869-1.15 1.45.01-.26.1-.6l.15-.5h-.05l-.3.35-.05.05q-.523.595-1 1.4-.071-.413 0-.65l.15-.5-.1-.05-.25.4-.05.05v.05q-.569.926-.85 1.5-.052-.298-.05-.5l.05-.5h-.05l-.2.45H281v.05q-.344.671-.55 1.1.002-.23 0-.3l.1-.5-.3.35q-.7.716-1.1 1.3.205-1.607 2-3.6 2.066-2.24 4.6-3.05l.5-.15v-.05l-.5-.05h-.05q-.866-.091-1.6.1.106-.156.2-.35l.1-.2h-.2q-.709.028-1.6.4.153-.32.2-.5l-.1-.05-.1-.1q-1.239.745-1.75 1l.45-.95-.4.3q-.681.589-1.5 1.05.137-.272.15-.5l.05-.3-1.7 1.25.3-.8-.35.2q-.41.26-1.25.85.083-.236.2-.35l.3-.4-.05-.05-.4.25h-.05l-.05.05q-1.138.576-1.7.8 2.323-2.89 6.15-3.75 4.037-.811 7.85 1l.45.2v-.05l-.3-.35q-.023 0-.05-.05-.44-.446-1.15-.95l.6.05-.15-.25q-.151-.186-.7-.5-.136-.076-.25-.15l.5.05-.2-.25q-.373-.358-.9-.7l.45.05-.15-.25q-.41-.58-1.05-.9l.7-.05-.45-.25q-.885-.386-1.3-.65l.7-.05-1.4-.85.65.05-.2-.25q-.32-.313-1.2-.85 1.474.277 3 1.3 2.107 1.342 3.35 3.35v.05h.05l1.05.2-.15-.25q-.65-.893-.95-1.25.308.022.55.1.025.038.05.05l.4.2h.05l-.3-.4q-.596-.73-1.1-1.2h.8l-1.25-1.4q.425.042.7.2v.05l.4.25.1-.1-1.25-1.4q.2.042.4.15v.05l.4.25.1-.05-.3-.4h-.05q-.474-.6-.9-.9l.6-.05-.15-.2q-.576-.659-1-1.1l.5.1-.1-.2q-.297-.67-.6-1.1l.25.1-.15-.3q-.245-.607-.45-1 .512.452.95 1l.2.3v-.6l.75 1.5.05-.4q.07-.27.1-.5.055.206.1.45.224.923.25 1.3l.1.5.15-.45q.152-.388.2-.65.444 1.326.3 2.05l-.05.5h.05l.25-.4v-.05l.35-.5q.251.942.1 1.85l-.05.5h.05l.25-.4v-.05l.25-.4q.083 1.009-.15 1.65l-.1.45v.05l.65-.7q.032.313.1.85.172.858.1 1.35l-.05.45h.05l.25-.4q.014.001 0-.05 1.208-1.921 3.35-3.1 2.066-1.141 4.55-1.25-.55.365-1.05.4h-.05l-.5.05v.05l.45.15q.368.149.55.25l-1.7.35.85.4q-.746.134-1.45-.05l-.45-.1-.05.05.4.3q.145.09.6.55-.394.032-.95-.1h-.05l-.45-.05-.05.1.8.35q-.526.123-1.35.1h-.35l.8.65q-1.019.213-1.3.15h-.25l.15.2q.104.24.5.4-.336.124-.65.35-.216.193-.6.45l-.05.05-.4.3.05.05.5-.15q2.367-.766 5.4-.15 2.848.585 3.8 1.95-1.011-.588-1.35-.75l-.25-.1.25.75q-.876-.57-1-.7l-.4-.35-.05.05.25.45v.05h.05l.1.3q-.645-.38-.8-.55l-.4-.35-.1.1.3.4v.05q.106.155.2.35-.72-.427-.95-.55l-.4-.25h-.05l.3.4q.101.17.15.5-.362-.168-.95-.65l-.3-.25.25.95q-.478-.171-.9-.45l-.4-.3.25.45q.01.023 0 .05.08.143.15.4-.765-.347-1.1-.45-.04-.016-.1-.05l-.45-.1.95.9q-.336-.067-.95-.3-.024-.015-.05-.05l-.45-.15-.05.05.35.35q.057.05.2.2-.71-.165-.9-.35l-.4-.3.15.45.05.05.2.5h.05q3.245.471 5.6 2.45 2.584 2.146 2.45 5-.682-.788-.8-1.45l-.05-.45h-.15l-.05.45v.05l-.05.35-.65-1.75h-.1v.55q.025.279 0 .45-.396-1.05-.65-1.45.014-.003 0-.05l-.25-.4-.1.05.1.45q.065.21-.05.55-.15-.676-.5-1.2l-.2-.25-.1.75q-.246-.43-.75-1.05v-.05l-.3-.35h-.05l.1.5q.084.167 0 .55-.467-.955-.55-1.05l-.35-.35h-.05l.2.5v.05q.017.104 0 .3-.203-.254-.65-.85l-.3-.35.05.45q.088.435.05.75-.501-.693-1.3-1.25l-.15-.15-.05.7q-.358-.427-1-.85l-.3-.25.1.4q.17.355.15.75-.418-.318-1.35-.8h-.05l-.45-.25-.05.1.35.35q.762.625 1.05 1.1l-.95-.2-.05.1.4.25q.05.014.05 0 .778.469 1.3.95h-1.05l.3.25q.9.598 1.25 1.05l-.8-.3v.05l.35.35h.05q.492.438.9 1.2l-.7-.25.2.3q.377.654.6 1.45l-.2-.1q-.042-.026-.1-.05l-.45-.25-.05.1.35.35q.344.252.55 1.1-.04-.036-.1-.1l-.35-.35-.05.05.15.45q.035.026.05.05.341.893.2 1.6-.158-.458-.55-1.35l-.1-.25-.1.2q-.104.178-.15.35-.28-.765-.2-1.35l.1-.45-.05-.05-.25.4-.05.05-.2.35-.15-2.1-.2.4q-.012.023-.05.05-.04.125-.15.3-.3-1.245-.25-1.5l.1-.5-.05-.05-.25.4-.05.05-.15.25q-.053-.62 0-1.3h-.1l-.1-.1q-.042.039-.1.1l-.1-.9v-.2l-.15.05q-.14.076-.25.2l-.2-1.45-.25.65q-.553-1.252-1.1-1.8l-.1-.1-.1.1q-.854 1.01-1.1 1.95l-.4-.5-.05.25q-.091.878-.1 1.4-.142-.171-.25-.4l-.15-.45h-.1l.05 1.9-.5-.5-.05.25q-.02.332.05 1.45-.208-.235-.3-.5l-.15-.45h-.1v1.7q-.037-.106-.1-.3l-.1-.45h-.05l-.1.45q-.063.573.1 1.25-.084-.093-.15-.2l-.2-.4-.05.4q-.053.684.05 1.35l-.35-.3-.05.2q-.097.761-.15 1.2l-.15-.35-.25 1.25q-.09-.62-.05-1.2l.05-.35-.25.25-.1.1.3-1.45-.3.3q-.173.178-.3.3.071-.166.15-.4.398-.781.6-1.05l.3-.35-.05-.1-.4.3h-.05q-.07.114-.15.25-.064.112-.15.2-.12.283-.3.65h-.05q-.33.819-.4 1.05l-.1.5h.1l.25-.4v-.05q.106-.072.4-.4l-.2 1.1-.05.05-.1.5.15.05.2-.45q.057-.077.2-.25-.024.723.15 1.5l.15.5.35-1.75q.025.089 0 .15l.25.5v-.5q.026-.348.15-1.35l.6.6-.1-.45q-.135-.645-.1-1.35.137.149.35.25l.25.15-.1-.3q-.15-.485-.2-.9.096.086.2.1l.15.05v-1.1q.156.201.35.4l.25.2-.05-.3q-.045-1.023-.05-1.5l.55.55v-1.55q.113.136.25.25l.25.15-.05-.25q-.016-.468.1-1.35l.35.5.05-.3q.167-.94 1-1.95.534.603 1.05 1.95l.15.3.15-.35.2 1.45h.05l.1-.5q.07-.195.15-.35l.1 1.65h.05l.15-.45q.007.574.05 1.1l.05.3.35-.45q.07.51.3 1.5l.1.35.15-.3q.087-.157.15-.3l.15 2 .35-.6q.065.666.4 1.5l.2.45.05-.05v-.5q.028-.241.05-.45.525 1.213.55 1.5l.1.45.15-.4q.38-.836.05-1.9.089.031.15 0h.15l-.05-.15q-.12-.64-.35-1.05l.1.05.25.15-.1-.3q-.188-.816-.55-1.5l.65.2-.15-.25q-.335-.678-.75-1.15l.5.15-.15-.25q-.197-.497-1.2-1.25h.85l-.2-.2q-.42-.433-1-.85h.05l.25.05-.1-.2q-.128-.365-.55-.8.502.293.7.5l.15.15.05-.25q.097-.362 0-.75.577.45.85.85l.2.3.05-.9q.767.58 1.25 1.3l.15.25.05-.3q.093-.278.05-.7.612.803.65.85l.2.2v-.3q.024-.144 0-.3.188.34.45.85l.1.3.1-.35q.12-.304.15-.55.47.666.6 1.1l.2.4.15-.95q.312.558.4 1.3l.05.25.2-.15q.123-.112.15-.6.042-.042.05-.1.214.487.5 1.4l.1.25.15-.25q.087-.161.1-.45l.7 1.75.1-.8q.263.559.85 1.15l.2.25v-.3q.332-3.159-2.5-5.5-1.906-1.613-4.4-2.25l.15.05-.2-.3q-.052-.037-.1-.1.787.274 1 .15l.15-.05-.1-.15-.35-.35q.32.168.75.35l.25.1-.1-.25q-.046-.222-.1-.4.395.226.85.35l.2.05-.15-.6q.583.453.95.55l.2.1-.05-.25q-.02-.24-.1-.45.352.228.9.6l.3.2-.1-.35q-.043-.199-.1-.35.287.164.75.4l.3.15-.25-.5q.354.24.95.65l.35.2-.35-.9q.508.209 1.5.75l.35.2-.2-.35q-.856-1.756-4.2-2.45-2.692-.545-4.9-.05.076-.01.1-.05.453-.33.95-.45l.5-.1v-.05l-.5-.1q-.352-.053-.55-.2.43-.004 1.3-.2l.3-.05-.7-.55q.973-.002 1.5-.2l.3-.1-.25-.1q.276.015.45-.05l.25-.05-.15-.15q-.275-.27-.5-.45.713.078 1.45-.1l.35-.05-.85-.45 1.6-.35-.15-.15q-.107-.112-.55-.3.556-.14 1.1-.6l.3-.25H301q-2.778.08-5.05 1.35-2.025 1.095-3.25 2.85.018-.393-.1-.95-.123-.857-.15-1.1v-.35l-.4.45q.14-.692 0-1.7l-.05-.35-.35.65q.044-.84-.25-1.7l-.05-.25-.4.6q-.015-.837-.5-2.15l-.15-.45h-.05l-.05.55q0 .145-.1.5-.075-.324-.2-.8-.205-.837-.35-1.15-.015-.027-.05-.05V364l-.25-.4-.1.05.1.5q.094.181 0 .8l-.8-1.7h-.05v.9q-.527-.668-1.15-1.15h-.05l-.4-.3v.05l.25.4q.12.236.55 1.2v.05q-.013-.034-.05-.1l-.5-.25v.05l.3.35q.346.421.75 1.25l-.8-.1.3.3q.42.351 1.1 1.15l-.9.05.4.2q.341.178.75.65-.125-.02-.3 0l-.2.05.85 1q-.24-.075-.55-.1h-.3l1.25 1.45h-.9l.25.25q.462.359 1 1.05-.22-.071-.5-.1h-.3l.2.25q.094.085.9 1.2l-.4-.1q-1.228-2.005-3.35-3.35-1.913-1.272-3.7-1.45m12.85 7.95q-.192-.044-.4-.1l-.05-.05q.205.076.45.15z"/></g><path fill="#866E48" d="M282.45 405.75h.45q0-6.5-.05-8.15 0-2.3-.15-2.3t-.2 2.3q0 1.65-.05 8.15z" id="r"/><path fill="#866E48" d="M287.55 405.15q-1 0-2.75.3-1.8.25-3.65.25-1.85 0-3.65-.25-1.75-.3-2.75-.3-.1.9 1.35 1.45 1.7.7 5.05.7 3.4 0 5.1-.7 1.4-.55 1.3-1.45z" id="t"/><path fill="#866E48" d="M284.05 407.1q-.05-.15-.3-.1-.3 0-.3.15l.1.7q-.8.15-2.4.15-1.6 0-2.4-.15l.1-.7q0-.15-.25-.15-.3-.05-.3.1l-.15.7q-.65 0-.95-.15-.2 1 3.95 1t3.95-1q-.3.15-.95.15l-.1-.7z" id="v"/><path fill="#866E48" d="M291.15 377.3l-.8-.05q.05 1.15-.3 8.65-.3 6.5.05 10.75 1.1 13.4 8.8 17.8 1.45.75 2.15-.25.65-1.05-.4-1.55-8.1-4-9.45-16.85-.45-4.15-.25-10.3.2-7.45.2-8.2z" id="x"/><path fill="#866E48" d="M290.95 376.15q0-.95-.85-.95-.9 0-.9.95 0 .9.9.9.85 0 .85-.9z" id="z"/><path fill="#866E48" d="M292.6 376.4q0-.95-.9-.95-.85 0-.85.95t.85.95q.9 0 .9-.95z" id="B"/><path fill="#866E48" d="M291.05 377.6q0-.95-.9-.95t-.9.95q0 .9.9.9t.9-.9z" id="D"/><path fill="#866E48" d="M292.15 377.3q0-.95-.9-.95t-.9.95q0 .9.9.9t.9-.9z" id="F"/><g id="H"><path fill="#373535" d="M277.7 395.65l.05.2q.618 2.104.1 4.75-.416 2.51-1.55 4.6l-.15.2.25-.05q7.51-.717 9.6 0l.25.1-.1-.25q-1.235-3.214-3.4-5.9-2.487-3.02-4.85-3.6l-.2-.05m.4 5q.508-2.573-.05-4.65 2.196.653 4.5 3.45 2.047 2.555 3.25 5.6-2.24-.627-9.2.05 1.087-2.027 1.5-4.45z"/><path fill="#FFF" d="M278.05 396q.558 2.077.05 4.65-.413 2.423-1.5 4.45 6.96-.677 9.2-.05-1.203-3.045-3.25-5.6-2.304-2.797-4.5-3.45z"/></g><path fill="#EE333E" d="M278.3 389.15q-.65-.55-1.5-.55-1.1 0-1.75.85-.65.9-.65 2.3t.7 2.35q.7.95 1.7.85.9 0 1.45-.85l.05.7h.65v-3.25h-2v1h1.1q-.1 1.35-1.25 1.35-.65 0-1-.6-.4-.6-.4-1.55 0-.95.4-1.55.35-.6 1-.6.8 0 1.2 1h.9q0-.85-.6-1.45z" id="I"/><path fill="#EE333E" d="M283.45 388.6v4.2q0 .9.45 1.5.55.7 1.6.7 2.05 0 2.05-2.2v-4.2h-1.05v4.2q0 1.15-1 1.15-.95 0-.95-1.15v-4.2h-1.1z" id="J"/><path fill="#EE333E" d="M295.9 388.55h-1.25l-1.75 6.4h1.05l.35-1.3h2l.35 1.3h1l-1.75-6.4m-.6 1.45l.7 2.6h-1.45l.75-2.6z" id="K"/><path fill="#EE333E" d="M302.55 390.1l1 4.85h1.1l1-4.85v4.85h1v-6.4h-1.6l-.95 4.95-.95-4.95h-1.6v6.4h1v-4.85z" id="L"/><path id="h" stroke="#373535" stroke-width=".1" stroke-linejoin="miter" stroke-linecap="butt" stroke-miterlimit="4" fill="none" d="M94.878 68.996q-2.421.547-3.875 1.312-2.496-2.625-4.173-5.178 3.28.146 6.148.73 3.987.765 5.59 2.151.968.766-.15.656-1.155-.182-3.54.329z"/><path id="j" stroke="#373535" stroke-width=".1" stroke-linejoin="miter" stroke-linecap="butt" stroke-miterlimit="4" fill="none" d="M103.71 69.25q0-1.312-1.119-2.26-1.192-.984-2.943-1.094-.56-.073-.634-.146-.111-.073.298-.364 1.342-.985 4.36-.948 3.428.072 5.775-.985 3.913-1.714 5.366-1.24-2.161 4.303-6.52 8.788-2.87 2.954-8.347 7.475-3.912-3.354-5.217-4.521 1.193-1.86 5.366-2.516 3.614-.547 3.614-2.188z"/><path id="l" stroke="#373535" stroke-width=".1" stroke-linejoin="miter" stroke-linecap="butt" stroke-miterlimit="4" fill="none" d="M102.405 38.11q.298-.146.559-.182"/><path id="m" stroke="#373535" stroke-width=".1" stroke-linejoin="miter" stroke-linecap="butt" stroke-miterlimit="4" fill="none" d="M103.523 39.787q-.708-.145-1.528-.073"/><path id="n" stroke="#373535" stroke-width=".1" stroke-linejoin="miter" stroke-linecap="butt" stroke-miterlimit="4" fill="none" d="M99.536 37.563q.522.802.745 1.677"/><path id="o" stroke="#373535" stroke-width=".1" stroke-linejoin="miter" stroke-linecap="butt" stroke-miterlimit="4" fill="none" d="M98.79 39.204l.671.365"/><path id="p" stroke="#373535" stroke-width=".1" stroke-linejoin="miter" stroke-linecap="butt" stroke-miterlimit="4" fill="none" d="M96.443 40.152l.708-.182"/><path id="q" stroke="#373535" stroke-width=".1" stroke-linejoin="miter" stroke-linecap="butt" stroke-miterlimit="4" fill="none" d="M100.803 39.168q.223-.949.745-1.824"/><path id="s" stroke="#373535" stroke-width=".1" stroke-linejoin="miter" stroke-linecap="butt" stroke-miterlimit="4" fill="none" d="M94.31 61.399q0-4.74-.036-5.944 0-1.677-.112-1.677t-.15 1.677q0 1.203-.036 5.944"/><path id="u" stroke="#373535" stroke-width=".1" stroke-linejoin="miter" stroke-linecap="butt" stroke-miterlimit="4" fill="none" d="M95.735 61.192q-1.34.183-2.72.183-1.378 0-2.72-.183-1.304-.219-2.049-.219-.074.657 1.006 1.058 1.267.51 3.763.51 2.534 0 3.801-.51 1.043-.401.969-1.058-.745 0-2.05.22z"/><path id="w" stroke="#373535" stroke-width=".1" stroke-linejoin="miter" stroke-linecap="butt" stroke-miterlimit="4" fill="none" d="M94.953 62.323q-.224 0-.224.109l.075.51q-.596.11-1.789.11-1.192 0-1.788-.11l.074-.51q0-.11-.186-.11-.223-.036-.223.074l-.112.51q-.485 0-.708-.11-.15.73 2.943.73t2.944-.73q-.224.11-.708.11l-.074-.51q-.038-.11-.224-.073z"/><path id="y" stroke="#373535" stroke-width=".1" stroke-linejoin="miter" stroke-linecap="butt" stroke-miterlimit="4" fill="none" d="M100.468 40.663q0 .547-.15 5.98-.149 4.485.187 7.511 1.006 9.372 7.042 12.29.782.364.298 1.13-.522.729-1.602.182-5.738-3.21-6.558-12.982-.26-3.1-.037-7.84.26-5.47.223-6.308l.597.037z"/><path id="A" stroke="#373535" stroke-width=".1" stroke-linejoin="miter" stroke-linecap="butt" stroke-miterlimit="4" fill="none" d="M99.685 39.131q-.67 0-.67.693 0 .656.67.656.633 0 .633-.656 0-.693-.633-.693z"/><path id="C" stroke="#373535" stroke-width=".1" stroke-linejoin="miter" stroke-linecap="butt" stroke-miterlimit="4" fill="none" d="M100.877 39.313q-.633 0-.633.693t.633.693q.671 0 .671-.693t-.67-.693z"/><path id="E" stroke="#373535" stroke-width=".1" stroke-linejoin="miter" stroke-linecap="butt" stroke-miterlimit="4" fill="none" d="M99.722 40.189q-.67 0-.67.692 0 .657.67.657.671 0 .671-.657 0-.692-.67-.692z"/><path id="G" stroke="#373535" stroke-width=".1" stroke-linejoin="miter" stroke-linecap="butt" stroke-miterlimit="4" fill="none" d="M100.542 39.97q-.67 0-.67.693 0 .656.67.656t.67-.656q0-.693-.67-.693z"/></defs><use xlink:href="#a" transform="matrix(.74527 0 0 .72935 -116.5 -234.5)"/><use xlink:href="#b" transform="matrix(.74527 0 0 .72935 -116.5 -234.5)"/><use xlink:href="#c" transform="matrix(.74524 0 0 .72932 -116.5 -234.5)"/><use xlink:href="#d" transform="matrix(.74524 0 0 .72932 -116.5 -234.5)"/><use xlink:href="#e" transform="matrix(.74524 0 0 .72932 -116.5 -234.5)"/><use xlink:href="#f" transform="matrix(.74524 0 0 .72932 -116.5 -234.5)"/><g transform="matrix(.7452 0 0 .7293 -116.5 -234.5)"><use xlink:href="#g"/><use xlink:href="#h" transform="matrix(1.3419 0 0 1.37119 156.3 321.5)"/></g><g transform="matrix(.7452 0 0 .7293 -116.5 -234.5)"><use xlink:href="#i"/><use xlink:href="#j" transform="matrix(1.3419 0 0 1.37119 156.3 321.5)"/></g><use xlink:href="#k" transform="matrix(.74524 0 0 .72932 -116.5 -234.5)"/><use xlink:href="#l" transform="matrix(1 0 0 1 -.024 -.032)"/><use xlink:href="#m" transform="matrix(1 0 0 1 -.024 -.032)"/><use xlink:href="#n" transform="matrix(1 0 0 1 -.024 -.032)"/><use xlink:href="#o" transform="matrix(1 0 0 1 -.024 -.032)"/><use xlink:href="#p" transform="matrix(1 0 0 1 -.024 -.032)"/><use xlink:href="#q" transform="matrix(1 0 0 1 -.024 -.032)"/><use xlink:href="#r" transform="matrix(.74518 0 0 .72926 -116.5 -234.5)"/><use xlink:href="#s" transform="matrix(1 0 0 1 -.029 -.005)"/><g transform="matrix(.7452 0 0 .7293 -116.5 -234.5)"><use xlink:href="#t"/><use xlink:href="#u" transform="matrix(1.3419 0 0 1.37119 156.3 321.5)"/></g><g transform="matrix(.7452 0 0 .7293 -116.5 -234.5)"><use xlink:href="#v"/><use xlink:href="#w" transform="matrix(1.3419 0 0 1.37119 156.3 321.5)"/></g><g transform="matrix(.7452 0 0 .7293 -116.5 -234.5)"><use xlink:href="#x"/><use xlink:href="#y" transform="matrix(1.3419 0 0 1.37119 156.3 321.5)"/></g><g transform="matrix(.7452 0 0 .7293 -116.5 -234.5)"><use xlink:href="#z"/><use xlink:href="#A" transform="matrix(1.3419 0 0 1.37119 156.3 321.5)"/></g><g transform="matrix(.7452 0 0 .7293 -116.5 -234.5)"><use xlink:href="#B"/><use xlink:href="#C" transform="matrix(1.3419 0 0 1.37119 156.3 321.5)"/></g><g transform="matrix(.7452 0 0 .7293 -116.5 -234.5)"><use xlink:href="#D"/><use xlink:href="#E" transform="matrix(1.3419 0 0 1.37119 156.3 321.5)"/></g><g transform="matrix(.7452 0 0 .7293 -116.5 -234.5)"><use xlink:href="#F"/><use xlink:href="#G" transform="matrix(1.3419 0 0 1.37119 156.3 321.5)"/></g><use xlink:href="#H" transform="matrix(.74524 0 0 .72932 -116.5 -234.5)"/><use xlink:href="#I" transform="matrix(.7452 0 0 .7293 -116.5 -234.5)"/><use xlink:href="#J" transform="matrix(.7452 0 0 .7293 -116.5 -234.5)"/><use xlink:href="#K" transform="matrix(.7452 0 0 .7293 -116.5 -234.5)"/><use xlink:href="#L" transform="matrix(.7452 0 0 .7293 -116.5 -234.5)"/></svg>