<svg xmlns="http://www.w3.org/2000/svg" xmlns:xlink="http://www.w3.org/1999/xlink" preserveAspectRatio="none" width="200" height="105"><defs><g id="a"><path fill="#CE1126" d="M66.7 0H0v105h66.7V0M49.5 48.4l-.2.2-10 8.4h-.1L43 70.35 32.1 62.5l-10.9 8.05 3.7-13.45-10.6-8.4 13.2-.4 4.2-13.1 4.6 13.1 13.2.1z"/><path d="M49.3 48.6l.2-.2-13.2-.1-4.6-13.1-4.2 13.1-13.2.4 10.6 8.4-3.7 13.45 10.9-8.05L43 70.35 39.2 57h.1l10-8.4z"/><path fill="#009E49" d="M200 105V52.5H66.7V105H200z"/><path fill="#FCD116" d="M200 52.5V0H66.7v52.5H200z"/></g></defs><use xlink:href="#a"/></svg>