<svg xmlns="http://www.w3.org/2000/svg" xmlns:xlink="http://www.w3.org/1999/xlink" preserveAspectRatio="none" width="200" height="105"><defs><path fill="#00AE6D" d="M170.5 465.5h239.95V321.55H170.5V465.5z" id="a"/><path fill="#FFF" d="M170.5 321.55V465.5l240-72-240-71.95z" id="b"/><path fill="#FFF215" d="M170.5 328.7v129.65l216.1-64.85-216.1-64.8z" id="c"/><path fill="#373535" d="M290.5 393.5l-120-71.95V465.5l120-72z" id="d"/><path fill="#EE333E" d="M277.15 393.5l-106.65-64v128l106.65-64z" id="e"/></defs><use xlink:href="#a" transform="matrix(.83328 0 0 .72935 -142.05 -234.5)"/><use xlink:href="#b" transform="matrix(.83328 0 0 .72935 -142.05 -234.5)"/><use xlink:href="#c" transform="matrix(.83328 0 0 .72935 -142.05 -234.5)"/><use xlink:href="#d" transform="matrix(.83328 0 0 .72935 -142.05 -234.5)"/><use xlink:href="#e" transform="matrix(.83328 0 0 .72935 -142.05 -234.5)"/></svg>