<svg xmlns="http://www.w3.org/2000/svg" xmlns:xlink="http://www.w3.org/1999/xlink" preserveAspectRatio="none" width="200" height="105"><defs><path fill="#EE333E" d="M196 463h216V319H196v144z" id="a"/><path fill="#FFF" d="M311.2 350.1q1.6-2.65 5.65-.05-3.6-6.15-11-6.7-8.35-.7-13.4 7.95-5 8.6-1.05 21.45 3.5 11.3 10.3 17.15-3.35-5.3-3.55-10.45-.2-4.55 2.1-10.95.2-.5.75-.35.55.15.35.6-2.25 5.85-2.1 10.5.25 5.35 3.6 10.2-1.75-4.7-1.35-7.4.45-3.25 4.1-4.85 6.7-2.9 8.4-8.8 1.55-5.35-1.55-10.7-2.9-4.95-1.25-7.6z" id="b"/><path fill="#EE333E" d="M303.25 361.7l-1.9 2.5-3-1.05 1.8 2.6-1.95 2.5 3.05-.9L303 370l.1-3.2 3.05-.85-3-1.1.1-3.15z" id="c"/><path fill="#FFF" d="M267.25 371.7q-2-2.4 1.7-5.45-6.95 1.55-9.8 8.4-3.2 7.75 3.45 15.2 6.65 7.45 20.1 7.65 11.85.15 19.5-4.55-6.1 1.6-11.05.2-4.35-1.2-9.8-5.4-.4-.3-.05-.8.3-.5.65-.15 4.85 3.95 9.35 5.2 5.15 1.45 10.8-.25-5 .2-7.45-1-2.95-1.45-3.35-5.4-.7-7.25-5.75-10.7-4.65-3.1-10.65-1.8-5.6 1.25-7.65-1.15z" id="d"/><path fill="#EE333E" d="M275.85 382.8l1.75 2.6-1.9 2.5 3-.9 1.8 2.65.1-3.2 3.05-.85-3-1.1.1-3.15-1.95 2.5-2.95-1.05z" id="e"/><path fill="#FFF" d="M300.85 399.95q-2.3 2.4-6.2 1.55-7.15-1.6-11.95 2.15-4.45 3.45-5.05 9.6-.55 5.7-3.45 6.9-2.85 1.2-4.6-3.3-.7 7.05 4.95 11.9 6.35 5.45 15.5 1.4 9.1-4 13.45-16.75 3.85-11.2 1.75-19.9-.4 6.25-3.25 10.5-2.55 3.8-8.2 7.65-.4.25-.75-.15-.35-.45.05-.7 5.25-3.35 7.85-7.25 2.95-4.45 3.1-10.35-1.35 4.8-3.2 6.75z" id="f"/><path fill="#EE333E" d="M287.4 415.4l3.05-.9 1.8 2.6.1-3.15 3-.9-2.95-1.05.1-3.15-1.95 2.5-2.95-1.1 1.75 2.65-1.95 2.5z" id="g"/><path fill="#FFF" d="M320.05 407.85q-.55.25-.65-.25-1.55-6.05-4.45-9.7-3.3-4.2-8.9-6.15 4.15 2.8 5.4 5.2 1.55 2.95-.45 6.35-3.7 6.3-1.6 12 1.9 5.25 7.55 7.75 5.25 2.3 5.5 5.4.2 3.1-4.6 3.4 6.5 2.85 12.85-1 7.15-4.4 6.15-14.35-1-9.9-11.75-17.95-9.5-7.1-18.4-7.85 5.8 2.35 9 6.35 2.8 3.55 4.75 10.15.1.45-.4.65z" id="h"/><path fill="#EE333E" d="M322 414.45l.1-3.15 3.05-.9-3-1.05.1-3.2-1.95 2.5-2.95-1.05 1.75 2.6-1.95 2.5 3.05-.85 1.8 2.6z" id="i"/><path fill="#FFF" d="M345.25 385.2q3 .75 1.8 5.4 4.75-5.35 3-12.55-1.95-8.15-11.7-10.25-9.75-2.15-20.75 5.6-9.65 6.8-13.1 15.1 4-4.85 8.85-6.6 4.25-1.6 11.1-1.4.45.05.5.6.05.55-.45.55-6.25-.35-10.65 1.25-5 1.85-8.6 6.55 4-3.1 6.65-3.6 3.25-.55 5.9 2.4 4.85 5.5 10.95 5.3 5.55-.2 9.65-4.8 3.8-4.25 6.85-3.55z" id="j"/><path fill="#EE333E" d="M331.8 381.3l-3-1.1.1-3.15-1.95 2.5-2.95-1.1 1.75 2.65-1.9 2.5 3-.9 1.8 2.6.1-3.15 3.05-.85z" id="k"/></defs><use xlink:href="#a" transform="matrix(.92587 0 0 .72917 -181.45 -232.6)"/><use xlink:href="#b" transform="matrix(.9259 0 0 .72917 -181.45 -232.6)"/><use xlink:href="#c" transform="matrix(.9259 0 0 .72917 -181.45 -232.6)"/><use xlink:href="#d" transform="matrix(.9259 0 0 .72917 -181.45 -232.6)"/><use xlink:href="#e" transform="matrix(.9259 0 0 .72917 -181.45 -232.6)"/><use xlink:href="#f" transform="matrix(.9259 0 0 .72917 -181.45 -232.6)"/><use xlink:href="#g" transform="matrix(.9259 0 0 .72917 -181.45 -232.6)"/><use xlink:href="#h" transform="matrix(.9259 0 0 .72917 -181.45 -232.6)"/><use xlink:href="#i" transform="matrix(.9259 0 0 .72917 -181.45 -232.6)"/><use xlink:href="#j" transform="matrix(.9259 0 0 .72917 -181.45 -232.6)"/><use xlink:href="#k" transform="matrix(.9259 0 0 .72917 -181.45 -232.6)"/></svg>