<svg xmlns="http://www.w3.org/2000/svg" xmlns:xlink="http://www.w3.org/1999/xlink" preserveAspectRatio="none" width="200" height="105"><defs><path fill="#FFF" d="M146.45 369.5v48H434.5v-48H146.45z" id="a"/><path fill="#1F5393" d="M292.35 391l-1.85-5.75-1.85 5.7h-6.05l4.9 3.6-1.9 5.7 4.9-3.55 4.85 3.55-1.85-5.75 4.85-3.5h-6z" id="b"/><path fill="#1F5393" d="M312.35 378.7l-1.85-5.75-1.85 5.75h-6.05l4.9 3.55-1.9 5.7 4.9-3.55 4.85 3.55-1.85-5.75 4.85-3.5h-6z" id="c"/><path fill="#1F5393" d="M310.5 397.55l-1.9 5.75h-6l4.85 3.45-1.85 5.8 4.9-3.55 4.85 3.55-1.9-5.75 4.9-3.55h-6.05l-1.8-5.7z" id="d"/><path fill="#1F5393" d="M273.45 382.25l4.9-3.55h-6.05l-1.8-5.75-1.9 5.75h-6l4.85 3.5-1.85 5.75 4.9-3.55 4.85 3.55-1.9-5.7z" id="e"/><path fill="#1F5393" d="M272.35 403.3l-1.85-5.75-1.85 5.7h-6.05l4.9 3.55-1.9 5.75 4.9-3.55 4.85 3.55-1.85-5.8 4.85-3.45h-6z" id="f"/><path fill="#1F5393" d="M146.45 417.5v48.05H434.5V417.5H146.45z" id="g"/><path fill="#1F5393" d="M434.5 369.5v-48H146.45v48H434.5z" id="h"/></defs><use xlink:href="#a" transform="matrix(.6943 0 0 .72897 -101.7 -234.35)"/><use xlink:href="#b" transform="matrix(.69427 0 0 .72897 -101.7 -234.35)"/><use xlink:href="#c" transform="matrix(.69427 0 0 .72897 -101.7 -234.35)"/><use xlink:href="#d" transform="matrix(.69427 0 0 .72897 -101.7 -234.35)"/><use xlink:href="#e" transform="matrix(.69427 0 0 .72897 -101.7 -234.35)"/><use xlink:href="#f" transform="matrix(.69427 0 0 .72897 -101.7 -234.35)"/><use xlink:href="#g" transform="matrix(.69427 0 0 .72897 -101.7 -234.35)"/><use xlink:href="#h" transform="matrix(.69427 0 0 .72897 -101.7 -234.35)"/></svg>