<svg xmlns="http://www.w3.org/2000/svg" xmlns:xlink="http://www.w3.org/1999/xlink" preserveAspectRatio="none" width="200" height="105"><defs><path fill="red" d="M100.05-.4H0v16.75h100.05V-.4z" id="a"/><path fill="#FFF" d="M100.05 33.05v-16.7H0v16.7h100.05z" id="b"/><path fill="#171796" d="M100.05 49.85v-16.8H0v16.8h100.05z" id="c"/><path fill="red" d="M41.6 32.85q1.35 2.2 3.5 3.55 2.2 1.25 4.9 1.35 2.7-.1 4.9-1.35 2.2-1.35 3.5-3.55 1.35-2.2 1.35-4.9v-11.6H40.3v11.6q.05 2.7 1.3 4.9z" id="d"/><path fill="#FFF" d="M59.55 16.5H40.5v11.45q0 2.65 1.25 4.85 1.3 2.15 3.45 3.45 2.15 1.25 4.8 1.3 2.65-.05 4.85-1.3 2.15-1.3 3.4-3.45 1.25-2.2 1.3-4.85V16.5z" id="e"/><path fill="red" d="M60 8.15L57.1 9.2l-2.05-2.35L52.4 8.4 50 6.45 47.6 8.4l-2.65-1.55-2 2.35-2.9-1.05-1.8 2.9 2.35 5.3q4.3-2.05 9.4-2.1 5.1.05 9.4 2.1l2.35-5.3L60 8.15z" id="f"/><path fill="#FFF" d="M59.95 8.25l-2.9 1.05-2-2.35L52.4 8.5 50 6.55 47.6 8.5l-2.65-1.55L43 9.3l-2.9-1.05-1.75 2.8 2.3 5.15q4.3-2 9.35-2t9.35 2l2.3-5.15-1.7-2.8z" id="g"/><path fill="#0093DD" d="M59.85 8.5L57 9.5l-1.3 5.2q1.85.5 3.55 1.25l2.2-4.9-1.6-2.55z" id="h"/><path fill="red" d="M56.1 13.1q2 .5 3.9 1.3l.5-1.2q-1.95-.9-4.1-1.45l-.3 1.35z" id="i"/><path fill="#171796" d="M47.65 8.75L45 7.2l-1.95 2.3 1.3 5.2q1.85-.45 3.75-.6l-.45-5.35z" id="j"/><path fill="#171796" d="M51.95 14.1q1.9.15 3.75.6L57 9.5l-2-2.3-2.65 1.55-.4 5.35z" id="k"/><path fill="#0093DD" d="M44.35 14.7l-1.3-5.2-2.85-1-1.65 2.55 2.2 4.9q1.7-.75 3.6-1.25z" id="l"/><path fill="#FFF" d="M59.15 16.85h-18.3v11.1q0 2.55 1.2 4.65 1.25 2.05 3.35 3.3 2.05 1.25 4.6 1.25t4.65-1.25q2-1.25 3.3-3.3 1.2-2.1 1.2-4.65v-11.1z" id="m"/><path fill="red" d="M44.5 20.95v-4.1h-3.65v4.1h3.65z" id="n"/><path fill="red" d="M48.15 25v-4.05H44.5V25h3.65z" id="o"/><path fill="red" d="M44.5 29.05V25h-3.65v2.95q0 .55.05 1.1h3.6z" id="p"/><path fill="red" d="M51.85 29.05V25h-3.7v4.05h3.7z" id="q"/><path fill="red" d="M51.85 33.05h3.65v-4h-3.65v4z" id="r"/><path fill="red" d="M55.5 33.05v2.25q1.2-.95 2.1-2.25h-2.1z" id="s"/><path fill="red" d="M48.15 33.05v-4H44.5v4h3.65z" id="t"/><path fill="red" d="M44.5 35.3v-2.25h-2.15q.95 1.3 2.15 2.25z" id="u"/><path fill="red" d="M51.85 36.95v-3.9h-3.7v3.9q.6.15 1.2.2h1.3q.65-.05 1.2-.2z" id="v"/><path fill="red" d="M55.5 29.05h3.6q.05-.55.05-1.1V25H55.5v4.05z" id="w"/><path fill="red" d="M51.85 25h3.65v-4.05h-3.65V25z" id="x"/><path fill="red" d="M51.85 20.95v-4.1h-3.7v4.1h3.7z" id="y"/><path fill="red" d="M59.15 20.95v-4.1H55.5v4.1h3.65z" id="z"/><path fill="#FFF" d="M42.65 13.7q.35-.35.4-.95 0-.4-.15-.7v.25q0 .6-.45 1-.4.4-1 .4-.8-.05-1.15-.7.1.5.45.8.35.3.85.3.6 0 1.05-.4z" id="A"/><path d="M40.55 13.35l.25.2.2.1.3.05-.15-.05h-.05l-.6-.35.05.05m1.55.2l-.3.1-.25.05.35-.05.2-.05.2-.15-.2.1m.7-.7l-.1.2-.15.2.1-.1.15-.2.1-.45v-.05l-.1.4m-2.15.9l.2.15.15.05.1.05-.45-.3-.15-.15-.2-.45.1.1-.1-.2-.05-.05v.1l.2.45.2.25m1.75.15l.15-.1-.6.25-.05.05h-.4l-.25-.05-.15-.05.1.05.35.1h.15l.25-.05.45-.2m.5-.55l.1-.2v-.05l-.1.25m-.25.3l-.1.15.2-.15.15-.3-.1.15-.15.15m.3-1.4v.1l.05.15v.6l.05-.3v-.3l-.05-.15v-.1l-.05-.05-.05-.15-.05-.05v.1h.05v.1l.05.05z" id="B"/><path fill="red" d="M47.85 11.4q-2.1.2-4.15.7l.3 1.35q1.95-.5 4-.65l-.15-1.4z" id="C"/><path fill="red" d="M47.65 8.75q-2.4.2-4.6.75l.3 1.35q2.2-.6 4.4-.8l-.1-1.3z" id="D"/><path fill="#FFF" d="M56 13.45q2 .5 3.85 1.3l.15-.35q-1.9-.8-3.9-1.35l-.1.4z" id="E"/><path d="M41.45 10.7l.15-.6h-.05l-.45.25-.4-.4-.1.55-.5.2.4.3-.1.55.5-.2.35.35.15-.5.45-.2-.4-.3z" id="F"/><path fill="#F7DB17" d="M41 10.85l.8.15-.35-.3-.45.15z" id="G"/><path fill="#F7DB17" d="M40.95 10.85l-.35-.3-.45.15.8.15z" id="H"/><path fill="#F7DB17" d="M40.5 11l.45-.15-.8-.15.35.3z" id="I"/><path fill="#F7DB17" d="M41.8 11l-.8-.15.35.3.45-.15z" id="J"/><path fill="#F7DB17" d="M41 10.8l.55-.65-.45.2-.1.45z" id="K"/><path fill="#F7DB17" d="M40.95 10.85l-.45.15-.1.5.55-.65z" id="L"/><path fill="#F7DB17" d="M40.9 11.35l.05-.45-.5.6.45-.15z" id="M"/><path fill="#F7DB17" d="M41.55 10.2l-.55.65.45-.15.1-.5z" id="N"/><path fill="#F7DB17" d="M40.95 10.85L40.7 10l-.1.5.35.35z" id="O"/><path fill="#F7DB17" d="M41.25 11.65L41 10.9l-.1.45.35.3z" id="P"/><path fill="#F7DB17" d="M41 10.9l.25.75.1-.45-.35-.3z" id="Q"/><path fill="#F7DB17" d="M40.7 10l.3.8.05-.45-.35-.35z" id="R"/><path d="M60.15 10h.05l-.5-.15-.15-.55-.05.05-.35.3-.5-.15.1.5-.4.4.5.2.1.5.4-.35.55.2-.1-.55.35-.4z" id="S"/><path fill="#F7DB17" d="M58.4 10.4l.8-.2-.45-.15-.35.35z" id="T"/><path fill="#F7DB17" d="M59.25 10.15l.85-.15-.5-.15-.35.3z" id="U"/><path fill="#F7DB17" d="M60.1 10.05l-.85.15.5.2.35-.35z" id="V"/><path fill="#F7DB17" d="M59.2 10.2l-.8.2.45.15.35-.35z" id="W"/><path fill="#F7DB17" d="M58.7 9.55l.5.6-.05-.45-.45-.15z" id="X"/><path fill="#F7DB17" d="M59.25 10.2l.6.65-.1-.45-.5-.2z" id="Y"/><path fill="#F7DB17" d="M59.85 10.9l-.6-.7.1.55.5.15z" id="Z"/><path fill="#F7DB17" d="M59.2 10.15l-.55-.6.1.45.45.15z" id="aa"/><path fill="#F7DB17" d="M59.5 9.4l-.25.75.35-.3-.1-.45z" id="ab"/><path fill="#F7DB17" d="M59.25 10.2l-.3.85.35-.3-.05-.55z" id="ac"/><path fill="#F7DB17" d="M58.95 11.05l.25-.85-.35.35.1.5z" id="ad"/><path fill="#F7DB17" d="M59.25 10.15l.25-.75-.35.3.1.45z" id="ae"/><path fill="#0093DD" d="M47.65 8.75l.45 5.35q.95-.1 1.9-.1t1.95.1l.4-5.35L50 6.8l-2.35 1.95z" id="af"/><path d="M50.8 11.75h-.1q-.1 0-.15.05v-.1l.05-.05q.1-.2.15-.35h-.05q-.05.05-.1.05-.1 0-.1.1-.1-.05-.2.1 0-.1-.1-.15.05-.05-.05-.05-.05-.1-.15-.2-.1.1-.15.2-.05 0-.05.05-.05.05-.05.15-.1-.15-.2-.1 0-.1-.1-.1t-.15-.05q-.05-.05-.05 0 .1.15.2.35v.05q0 .05.05.05v.05q-.1-.05-.2-.05h-.05q-.05-.05-.05 0 0 .2.15.35-.1 0-.15.05h-.05q.05.1.2.2-.05.05-.05.1 0 .15-.05.15-.05.05 0 .05.05.05.2.05-.05.05-.05.2.05 0 .15-.05v.1q0 .05-.05.1.15.05.25 0v.15q0 .05.05.05.05-.1.1-.15 0 .05.05.05t.05.1q.05 0 .15-.15l.1.1q.05-.05.05-.15.1.05.2 0v-.1q0-.05-.05-.1.1.05.15.05.05-.15-.05-.2.15 0 .25-.05v-.05q-.05 0-.05-.15l-.1-.1q.15-.1.2-.2-.1-.05-.2-.05.15-.15.15-.35z" id="ag"/><path fill="#F7DB17" d="M50.55 11.5q0 .05.05.05.05-.05 0-.05h-.05z" id="ah"/><path fill="#F7DB17" d="M49.4 11.5v.05h.05v-.05h-.05z" id="ai"/><path fill="#F7DB17" d="M49.55 11.7h-.05v.05q.05 0 .05-.05z" id="aj"/><path fill="#F7DB17" d="M49.45 11.5v.1h.3l-.05-.05q-.05-.1-.15-.1-.05.05-.05 0t-.1-.05l-.1-.1.1.2q0-.05.05 0m.55.1h.3l-.05-.05v-.05q0-.05-.05-.05-.05.05-.05 0l.05-.05q0-.05-.05-.05L50 11.2l-.15.15-.05.05.05.05h-.05q-.05 0-.05.05v.1H50m.65-.1l.1-.2q-.05.05-.15.1-.1 0-.1.05t-.05 0q-.1 0-.15.1v.05h.3l-.05-.05v-.05q.05-.05.05 0h.05z" id="ak"/><path fill="#F7DB17" d="M49.35 12.65h-.05q.1.05.15 0h-.1m0-.8v.05q0 .05.05.05-.049-.052-.05-.1m1.4.3h-.05q-.05 0-.1.05h.1q.05-.001.05-.05m-.1-.3v.1l.05-.05v-.05h.05v-.05h-.1q-.05 0-.15.05l-.05.05h-.05q.05-.001.05-.05h-.05q-.05-.05-.1-.05v.05h-.05q.049-.001.05-.05h-.05q-.049 0-.05.05v-.05h-.25v.05h-.05v-.05h-.1q.001.049.05.05h-.05v-.05h-.05v.05h-.05v-.05q-.05 0-.05.05h-.15q-.05-.05-.15-.05h-.1l.05.05h.1q-.047.047 0 .1 0 .05.05.05v.05q-.05-.05-.1-.05 0-.05-.05-.1 0-.05-.05-.05 0 .1.1.2.05.05.05.1l.05.05q-.053-.05-.1-.05h-.1q.048.048.1.05h.05q0 .05.05.05 0 .05-.05 0l-.05-.05h-.1l-.05-.05q.05.15.2.15v.05q-.1 0-.1.1.05 0 .1-.05v.05q-.05 0-.1.05 0 .1-.05.15h.05q.05-.001.05-.05h.1v.05h.05l.05-.05v.05h-.05q-.05.05-.05.1v.05q.002-.052.05-.1v.05q0 .05-.05.05l-.05.05h.15l.1-.1v.05q-.05 0-.05.05l-.05.05v.15h.05q.05 0 .15-.05v-.05h.05l-.05.05v.2l.05-.05V13h.05v.1q.002-.05.05-.05v-.1h.05v.2q.05 0 .05.05.1 0 .1-.1h.1v.05q.048 0 .05.05V13q0-.05-.05-.05v-.05l.1.1q.05.05.1.05l-.05-.05-.05-.05h.05V13q.053.05.1.05V13l.05.05q-.05-.1-.05-.15-.05-.05-.05-.1l.05.05h.15v-.05q0-.05-.05-.05v-.1h-.05q-.05 0-.05-.05h.05q0 .049.05.05.05.05.15 0h-.1v-.05h.05l.05.05h.05q-.05-.05-.05-.15l-.05-.05h.05q0-.1-.1-.1h-.05l.05-.05q.15 0 .2-.15l-.05.05h-.05q-.05.002-.05.05h-.05v-.05q-.05.006-.05.05h-.05q.044-.044.1-.05v-.05q.05-.05.05-.1.1-.1.1-.2l-.05.05q0 .05-.05.1-.05 0-.1.05V12q.05 0 .05-.05.048-.048.05-.1m-.3 0v.05h-.05l.05-.05z" id="al"/><path fill="#F7DB17" d="M49.55 11.8h.95q-.25-.05-.5-.05t-.5.05h.05z" id="am"/><path fill="#F7DB17" d="M49.5 11.7h.05q0 .05-.05.05v.05q.25-.05.5-.05t.5.05v-.05q-.05 0-.05-.05h.05l.05-.05H49.5v.05z" id="an"/><path d="M50 11.35h.05L50 11.3v.05m.05 0v.1q.002-.05.05-.05-.048 0-.05-.05m0 .1H50v.05h.05v-.05m-.05 0v-.05h-.05v.05H50z" id="ao"/><path d="M49.95 12.75l-.15-.1.1.1h.05m.1.1q-.05-.002-.05-.05l-.05.05h.1m0-.1h.05l.15-.1h-.05l-.15.1m.1-.1v-.05q0-.1-.05-.1v.1q.05 0 0 .05h-.05q0 .05-.05 0-.05.05-.1 0t0-.15h-.05v.15l.05.05H50.05q.05-.05.1-.05z" id="ap"/><path d="M50 12v-.05q-.05-.05-.05 0 .049 0 .05.05m.2.05l.05-.05h-.05l-.1.1q.053-.05.1-.05m.2 0h-.05q0 .049-.05.05h.05l.05-.05m-.1.15v-.1h-.1q0 .05-.05.05v.05h-.05v.05l.05.05v-.05h.05q.05 0 .05-.05h.05m-.55-.2q.052.002.1.05.047 0 .1.05l-.1-.1h-.1m.25.05v.05l.05.05V12q-.05 0-.05.05m-.05.1v.05l.05-.05v-.05q-.001.05-.05.05m-.05.2l.05-.05v-.05l-.05.05v.05m-.15-.25l.05.05q.05 0 .1.05v-.05q-.05 0-.1-.05h-.05m-.1-.05v.05h.05v.05l.05.05v-.1q-.05 0-.05-.05h-.05z" id="aq"/><path d="M49.75 12.2q0 .05.05.05t.05-.05q0-.05-.05-.05t-.05.05z" id="ar"/><path d="M48.4 9q-.1 0-.15-.05h-.1q.15.15.25.3v.05q.05.05.05.1v.05q-.1-.05-.15-.05h-.15q0 .2.2.35h-.2q-.05 0-.05.05.05.1.25.15-.05.05-.05.15 0 .1-.05.1-.1 0 0 .05.1.1.2 0-.05.15-.05.25h.15V10.65q-.05 0 0 .05.1 0 .2-.05 0 .1.05.2.05-.1.15-.15 0 .05.05.05v.1h.05q.05-.05.1-.15.1.05.15.1v-.15h.25v-.05q-.05-.05-.05-.1v-.05h.15q0-.1-.05-.25.1.05.2-.05-.05-.05-.05-.1-.05-.1-.1-.15.15-.1.2-.2h-.2q.15-.2.1-.4-.05.05-.1.05t-.15.05v-.05q0-.05.05-.1V9.2q.1-.15.15-.3.05-.05 0-.05l-.05.05q-.05 0-.1.05-.1 0-.1.1-.15-.1-.2.05 0-.1-.1-.1.05-.05-.05-.05-.05-.1-.15-.2h-.05l-.1.2q-.05.05-.05.1-.05 0-.05.1-.1-.15-.2-.05 0-.1-.1-.1z" id="as"/><path fill="#F7DB17" d="M48.4 9.15q-.05-.05-.05 0t.05.05v-.05z" id="at"/><path fill="#F7DB17" d="M48.45 9.3q.25-.05.5-.05.3-.05.55 0 .05-.05 0-.05h-.55q-.25 0-.55.05l.05.05z" id="au"/><path fill="#F7DB17" d="M48.7 9.1v.15q.15-.05.25-.05h.55l.05-.05q-.05 0-.05-.05l.05-.05h.05l.1-.15q-.05.05-.15.05-.1.05-.1.1t-.05 0q-.1-.05-.15.1 0 .05-.05 0V9.1q0-.1-.05-.05V9q0-.05-.05-.05l-.15-.15-.15.15v.1q0 .05-.05 0-.05 0-.05.05m-.35-.1q-.05 0-.2-.05l.2.15q.05 0 .05.05.05.05 0 .05v.05h.3l-.05-.05q-.05-.15-.15-.1-.05.05-.05 0 0-.1-.1-.1z" id="av"/><path fill="#F7DB17" d="M49.2 10.7h.05q-.049-.001-.05-.05v.05m.05 0v.05l.05.05v-.15q0-.05-.05-.1V10.7m.25-1.3l-.05.05V9.4h-.05q-.05 0-.05.05h-.05l.05-.05h-.15q0 .05-.05.05V9.4h-.25v.05l-.05-.05q-.05 0-.05.05h-.15v.05l-.05-.05h-.1v.05l-.05-.05h-.1q-.097 0-.2-.05.1.052.1.1l-.1-.05q.1.15.2.25 0 .05.05.05t0 .05h.05l.05.05v.05q-.05 0-.05-.05l-.05-.05h-.25q.1.15.25.15H48.55V10h-.15q-.1 0-.1.1.047 0 .1-.05l-.1.1q0 .05-.05.05l.05.05q.1 0 .2-.05h.05l.05-.05v.05h-.05l-.1.15v.1l.05-.05q.044-.044.1-.05-.05.006-.05.05l-.1.1q.05 0 .1-.05.05 0 .1-.05v.05l-.05.05q0 .1-.05.15.05 0 .05-.05l.05-.05v-.05q.05-.05.1-.05l-.1.1q0 .05-.05.1.05 0 .1-.05v-.05q.05 0 .05.05-.05 0-.05.05h.05q0-.05.05-.05v.2l.15-.15v.05l.05.05q.05 0 .05.05.05 0 .1-.15v-.05q0-.05.05-.05h.05v-.05q.001.05.05.05v.05H49.45q0-.05-.05-.1l-.05-.05h-.05v-.05q.05.05.1.05 0 .05.05.05v.05l.05.05q0-.05-.05-.15 0-.048-.05-.05h.1q.05.05.1.05l-.1-.1q0-.09-.05-.1.054.009.1.1l.05.05v-.15l-.1-.1h-.1l.05-.05q0 .048.05.05h.05q.1.05.15.05 0-.048-.05-.05h.1q-.05-.05-.05-.1 0-.1-.1-.15.15-.05.2-.15h-.05l-.1.05h-.05v.05h-.05l.05-.05.05-.05h.1q0-.048.05-.05h-.15q-.044.044-.1.05v.05h-.05q0-.05.05-.05.05-.006.05-.05.05 0 .05-.05.1-.15.1-.3h-.1q-.1.05-.15.05m.1 0h.05q0 .05-.05.1v-.1m-.05.2l.05-.05q.048-.048.05-.1v.1q-.05.05-.1.05m-1.2 0v-.05l.1.1q-.05 0-.1-.05m.05.3v-.05l.05.05h-.05m.15.35q.05-.05.05 0-.05 0-.1.1 0-.1.05-.1z" id="aw"/><path fill="#F7DB17" d="M49.45 9.4q.05 0 .05-.05H49q-.25.05-.5.05v.05q.25-.05.5-.05h.45z" id="ax"/><path fill="#F7DB17" d="M48.5 9.4q.25-.05.5-.05h.45v-.1H49q-.3 0-.55.05v.05q.001-.05.05-.05v.1z" id="ay"/><path d="M48.9 9.05h.05V9h-.05v.05m.1.05v-.05q0-.05.05-.05Q49 9 49 8.95q-.049 0-.05-.05v.05L49 9q0 .05-.05.05v.05H49z" id="az"/><path d="M48.95 10.45h.1L49 10.4q0 .048-.05.05m-.15-.2l.15.1-.15-.15v.05m.45.1q0-.1-.05 0l-.1.05.15-.05m-.35-.1h.1q-.052-.002-.1-.05-.05-.05 0-.1h-.05v.1l.05.05m.2-.15l.05.05v-.05h-.05m.05.1v-.05l-.05.05h-.05l-.05.05h.1q0-.05.05-.05z" id="aA"/><path d="M49.15 9.85q-.05-.05 0-.05 0-.05.05-.05.048-.048.1-.05h-.1q-.05.05-.1.05 0 .049-.05.05h.05v.05q0 .05.05 0m.1-.05h.05v-.05h-.05v.05m0 0h-.05l-.05.05h.05l.05-.05m-.35-.1h.05q-.084-.042-.15-.05.059.009.1.05m-.25 0l.05.05h.1q-.05-.05-.1-.05h-.05m.1.15h.1q-.05-.002-.05-.05h-.05v.05m.15.05v-.05h-.05q0 .05.05.05m0-.15h-.1q.05.002.05.05l.05.05v-.1m.15-.15v-.05q-.05 0-.05.05l-.05-.05v.1l.05.05v-.05q0-.05.05-.05m.1.05q.048-.048.1-.05h-.1l-.1.1h.05l.05-.05m.25 0V9.6h-.05v.05h.05z" id="aB"/><path d="M49.25 9.75q0-.05-.05-.05l-.05.05q0 .05.05.05t.05-.05z" id="aC"/><path d="M50.85 9q-.1 0-.1.1-.05-.15-.15-.05-.05-.1-.1-.1l-.1-.05q-.05 0-.05-.05-.05 0-.05.05.1.15.15.3 0 .05.05.05V9.4q-.05-.05-.15-.05-.05 0-.1-.05 0 .2.1.4h-.15q0 .1.15.2-.05.05-.05.15 0 .05-.1.1.1.1.25.05-.1.15-.1.25h.15V10.6q-.05 0 0 .05h.2v.15q0 .05.05 0l.1-.1q.05.1.15.15 0-.1.1-.1v-.05q.1.05.15.15h.05v-.2q.1.05.25.05v-.05q-.05-.05-.05-.1v-.05h.15q0-.1-.05-.25.15.1.25 0 0-.05-.05-.05v-.1q-.05-.1-.1-.15.15-.05.2-.15v-.05h-.2q.2-.15.2-.35 0-.05-.05 0h-.05q-.1 0-.2.05V9.4q0-.05.05-.1v-.05q.1-.15.25-.3 0-.05-.05 0h-.05q-.05.05-.1.05-.1 0-.15.1-.1-.1-.2.05.05-.1-.05-.1.05-.05-.05-.1l-.1-.2h-.05l-.2.2q-.1 0-.05.05z" id="aD"/><path fill="#F7DB17" d="M50.45 9.05v.05q0 .05.05.05V9.1q0-.05-.05-.05z" id="aE"/><path fill="#F7DB17" d="M51.1 9.2h-.6v.05q.25-.05.6 0 .25 0 .55.05v-.05q-.3-.05-.55-.05z" id="aF"/><path fill="#F7DB17" d="M51.4 9.2v.05h.25l.05-.05h-.05v-.05l.05-.05h.05l.1-.15Q51.8 9 51.7 9q-.1 0-.1.1 0 .05-.05 0-.1-.05-.15.1m-.6-.05q0 .05-.05 0-.05-.15-.15-.1-.05.05-.05 0t-.1-.1q-.05 0-.1-.05l.1.15q.05 0 .05.05v.05h-.05l.05.05h.6q.15 0 .3.05-.05-.05-.05-.1V9.1q0-.05-.05-.05-.05.05-.05 0 .05 0 .05-.05t-.05-.05q-.05-.05-.1-.15-.15.05-.25.15v.1h-.05q-.05-.05-.05.05v.05z" id="aG"/><path fill="#F7DB17" d="M50.75 9.4h-.05q0 .049.05.05V9.4m1 .1h.05q.05-.05.05-.1-.05.05-.1.05v.05m.05 0l-.05.1q-.05.05-.1.05h-.05l.1-.1V9.5q0-.048.05-.05h-.15q0 .05-.05.05l-.05.05V9.5h.05v-.05h-.25q-.05-.05-.1-.05v.05h-.05V9.4h-.4l.05.05h-.1l-.05-.05h-.1q-.1 0-.15-.05h-.1v.05l.05.05h-.05q0 .1.05.2.048.048.1.05h-.05l.05.05q-.05 0-.1-.05h-.1v.05h.1q.05 0 .05.05h-.05q-.048-.048-.1-.05l-.05-.05q.1.15.2.2-.05.05-.1.15 0 .05-.05.1h.1l-.05.05q.1 0 .15-.05h.05v.05q-.05 0-.05.05.044-.044.1-.05-.05.006-.05.05-.048.097-.1.15.052-.05.1-.05l-.1.1q.05 0 .15-.05h.05l-.05.05q0 .1-.05.15.05 0 .05-.05.044 0 .05-.05-.006.056-.05.1h.1v-.05h.05l-.05.05h.05q0-.05.05-.05v.1q-.05.05 0 .15v-.05q.048-.048.05-.1v.05l.05-.05h.05q0 .15.05.15v-.1q.048-.048.05-.1v.2q.002-.05.1-.05v-.05V10.55h.05v.05h.1l-.05.05q0 .05.05.1v.05q.05-.05.05-.15h.1l-.05-.05v-.05q.001.05.05.05 0 .05.05.05 0-.05-.05-.1v-.05l.05.05v.05l.05.05v-.15q-.05 0-.05-.05l-.05-.05h.05q0 .05.05.05.05.05.15.05l-.1-.1h.05l-.05-.05q0-.088-.05-.1.054.012.1.1l-.05-.1v-.05h.05q.05.05.15.05.05 0 .05-.05-.05 0-.05-.05-.05-.05-.05-.1l.05.05q0-.1-.1-.1h-.15v-.05H51.65q.15 0 .25-.15h-.2l-.05-.05q.05 0 .1-.05.1-.1.1-.2h-.05m-1.1.95h-.05l.05-.05v.05m.55.05v.05l-.05-.05h.05m.25-.3h-.05v-.05q.05 0 .05.05m-1-.6h-.05q-.05-.05-.05-.1l.1.1m.1.5v.05h-.05l.05-.05z" id="aH"/><path fill="#F7DB17" d="M51.1 9.35h-.55q-.05.05 0 .05h.55q.2 0 .45.05h.05V9.4q-.25 0-.5-.05z" id="aI"/><path fill="#F7DB17" d="M50.55 9.3v-.05h-.05l.05.05m1.05 0q-.25-.05-.5-.05h-.55l.05.05q0 .048-.05.05h.55q.237 0 .45.05v-.05q0-.05.05-.05z" id="aJ"/><path d="M51.15 9q0-.05-.05-.1v.05l.05.05m-.05-.05L51 9v.05q.1 0 .1.05 0-.05.05-.05h.05V9h-.05l-.05.05v-.1z" id="aK"/><path d="M50.95 10.45h.15l-.1-.05q0 .048-.05.05m-.15-.25l.1.15h.05l-.15-.15m.45 0l-.15.15h.05l.15-.1v-.05h-.05m-.35 0v-.1q-.05 0-.05.05l.05.05m.1.05h.15q.05 0 .05-.05h-.05q-.047.047-.15.05m-.05 0H51q0-.05-.05-.05h-.05l.05.05z" id="aL"/><path d="M51 9.7l.1.05v-.1l-.1.05m-.05.1l.05-.05V9.7q-.001.05-.05.05v.05m-.15-.05q.05 0 .1.05h.05q-.05-.001-.05-.05-.05 0-.1-.05h-.05l.05.05m-.1-.1q-.049 0-.05-.05v.05l.05.05v.05q.05 0 .05.05.05.05.1.05V9.8h-.05q-.05 0-.05-.05V9.7l-.05-.05m.15-.05h-.1q.052.002.1.05.047 0 .1.05l-.1-.1m.5.2h-.05l-.05.05h.05l.05-.05m-.15 0q-.05.05-.05.1h.05v-.1m0 .15l-.05-.05v.05q0 .05.05 0m.1-.2h.05l.05-.05h-.05q-.05 0-.1.05h-.05v.05q.05-.05.1-.05z" id="aM"/><path d="M50.8 9.7q-.05 0-.05.05t.05.05q.05 0 .05-.05l-.05-.05z" id="aN"/><path d="M53 10.05h.05v.1q-.1.05-.15.2 0 .05-.05.05-.1.1.05.1v.1q.05 0 .05.05.05 0 .1-.05h.1v.05q-.1.1-.05.15-.05.1.05.1v.05q-.05 0 0 .05v.05q-.1.05-.1.15v.1q-.05 0-.1.05-.05.1.1.1v.05q-.05.05 0 .1 0 .05.05.05v.05q-.1.05 0 .05v.05q0 .05.05.05-.05.05 0 .1 0 .1-.05.15v.15q-.1 0-.1.15-.05.1-.2.1-.1.15 0 .15 0 .05.1.1t.2-.05q.05-.05.05-.1 0-.1.05-.1v-.1-.1q.1-.05.1-.2.05 0 .05-.05.05-.05.05 0h.05v.1q.05.1-.05.2v.25q-.05.05-.1.15-.05 0-.05.05l-.05.05q-.05.05-.1.05-.05.05 0 .1h.1q-.05.05.05.05 0 .05.1 0 .05 0 .05-.05.05-.05.05-.1v-.05q.05 0 .05-.05.05 0 .05-.1v-.05q.05-.15.05-.2.05-.1.05-.15.05-.05.05-.1h.2q.1.05.15 0 0 .1.2 0v.05q-.05.05 0 .1v.1q-.1.05-.1.2-.05.05-.1.05-.15.05-.2.15-.05 0-.1.05-.05-.05-.05 0l.05.05q0 .05.05.05.1.05.2.05.05 0 .1-.05t0-.1h.1l.05-.1v-.05q.1-.15.2-.25.05 0 .1-.05l.1-.1h.1q0 .05.05.05.05.05.1.05v.05q-.05.15-.1.2-.05.1-.1.15-.1.05-.15.15l-.05.05h-.1v.05q-.05.05.05.05-.05.05 0 .1t.2 0q.1 0 .15-.1.05-.05 0-.1V13q.1 0 .1-.1.15-.1.2-.25.1-.05.15-.15h.05q.1-.05.05-.15-.05-.05 0-.05.05-.05.05-.1.1-.05.05-.15.1-.1 0-.15 0-.05-.05-.1.15 0 .1-.1 0-.05-.05-.1.05 0 .1-.05h.1q.1 0 .05-.15.05 0 .05-.1.1.05.15-.05v-.05q0-.1-.1-.05-.05 0-.1.05-.05-.05-.1 0-.1-.05-.25 0-.1.05-.15-.05-.05-.05-.15-.05-.1-.05-.25 0h-.1q-.05.05-.15 0-.05-.1-.2-.1h-.25q0-.05-.05-.05-.05-.05-.15-.1 0-.1-.1-.1 0-.05-.05-.1t-.05-.1q-.05 0-.05-.05.05 0 0-.05v-.05q0-.05.05-.15 0 .15.15.1.15 0 .2-.15l.05-.05q-.1 0-.25-.05 0-.05-.05-.05.2-.05.35 0 .15 0 .3.15t.35.3q.25.15.5.1.15 0 .3-.05v-.05h-.2q-.2 0-.35-.1-.25-.15-.35-.3-.1-.05-.25-.15.2.05.4.15.2.05.45-.1.05-.05 0-.05-.1.05-.2 0-.15 0-.3-.05l-.2-.1-.2-.1q-.1-.05-.25-.05h-.35q-.15 0-.25.1-.1 0-.2.1-.05.05-.1.05t-.1-.05q-.15-.05-.25 0-.05 0 0 .1V10q.05 0 .1.05z" id="aO"/><path fill="red" d="M55.25 10h-.15v.05q.1 0 .15-.05z" id="aP"/><path fill="red" d="M54.95 10v.05h.1q.05 0 .05-.05h-.15z" id="aQ"/><path fill="red" d="M54.45 9.9l.05.05q.2.1.4.1.05 0 .05-.05-.1-.05-.15-.05h-.05V9.9q-.1 0-.15-.05l-.2-.1v.05q-.001-.05-.05-.05l-.2-.1v.05l-.05-.05h-.25q0 .05.05.05v.1h.25q.05 0 .1.05h.05q.05.05.15.05m.1.05q-.05-.05 0-.05h.05l-.05.05z" id="aR"/><path fill="red" d="M53.8 9.8h.1q0-.05-.05-.05 0-.05-.05-.05-.1 0-.2.05h.05l.05.05h.1z" id="aS"/><path fill="#F7DB17" d="M54.35 12.2v-.1q-.05 0-.05.05h-.05V12.45q-.1.05-.1.2-.05.05-.05.1-.2.05-.25.15 0 .05-.05.05-.05.05 0 .05.2.05.3 0v-.05l-.1-.05h.1q.05-.05.05 0h.05v-.1q0-.05.05-.1.05-.1.2-.2.05 0 .05-.05h.05q-.05-.05 0-.05t.1-.05q-.05-.05-.05-.1v-.1q-.05 0-.1.05v-.1l-.05.05q-.05.05-.1.05 0 .05-.05.05v-.05h.05z" id="aT"/><path fill="red" d="M54.1 9.8H54q.05.05.05.1.05.05 0 .1.1 0 .2.05.05-.053.05-.1v-.1q-.1 0-.2-.05m.45.2q-.05 0-.1-.05t-.15-.05l.05.05-.1.1q.05 0 .1.05l.05.05v-.05h.1q.05 0 .05-.1z" id="aU"/><path fill="red" d="M54.6 10.25q.05.1.1 0h.05q0-.05-.05-.05 0-.05-.05-.05l-.1-.1q0 .05-.05.05-.05.05-.1.05.1.05.2.2v-.1z" id="aV"/><path fill="red" d="M54.75 10.2v.05l-.05.1h-.1q.1.05.15.1.05 0 .05.05 0-.05.05-.05h.1v-.05q-.05 0-.05-.05l-.15-.15z" id="aW"/><path fill="red" d="M55.1 10.45q-.05 0-.1-.05 0 .05-.05.05-.05.05-.1.05.1.05.2.05.05 0 .05-.05v-.05z" id="aX"/><path fill="red" d="M55.25 10.6q.15 0 .3-.1-.1.05-.25 0h-.15q-.05.05-.1.05.1.05.2.05z" id="aY"/><path fill="#F7DB17" d="M53.1 10v.05q-.05.05-.05.1-.05.05-.1.2-.05 0-.05.05l-.05.05q0 .05.05.05t.05.05.05.05h.05q.05-.05.1-.05.15-.1.05 0v.1q-.1.05-.1.1h.05q-.05.05-.05.1h.05q0 .05.05.05.047 0 .1-.05l.05.05h-.05v-.05l-.1.1q-.05 0-.05.05t.05.05q-.1.05-.1.15 0 .05-.05.1t-.05.1h.05v-.05q.05-.05.05-.1h.05v.05q-.05 0-.05.05-.048 0-.05.05v.1h.05q-.05.05 0 .1v.1q-.05.05 0 .05t.05.05q.05.05 0 .1l.05.05q0 .05-.05.1h.05v.05h-.05q-.05.05-.05.15-.1.05-.05.15l-.2.2q-.05 0-.05.05h.05v.05q.1.05.2 0 .1 0 .05-.05 0-.15.1-.2v-.05q-.05-.05 0-.15.05 0 .1-.1v-.05q0-.05.05-.05 0-.05.05-.05v-.1-.1l.05-.05v.1q-.048 0-.05.05l.05.1v.1q.05.15 0 .25-.05.05-.05.1.05 0 0 .05v.1q-.05.1-.1.15-.05.05-.05.1l-.1.1q-.05 0 0 .05.05 0 .05-.05.05-.05.05 0l-.05.05q.05.05.1.05t.1-.05q.05-.05 0-.1v-.05l.05-.05q.05-.05.05-.1v-.05q.05-.15.1-.25.05-.05.05-.15l.05-.05q.05 0 .1-.05.048-.048.05-.1v.1h-.05q.05.05.1 0v-.1q0-.05.1-.1v.1q-.098.05-.1.1h.1q0 .05.05.05v-.05l.1-.1q0 .05-.05.1 0 .05.05.05t.05-.05h.05l.05-.05h.05v.1q.05 0 .05-.05l.1-.1V12h.05l-.05.05v.15q.05-.05.1-.05v.1q0 .05.05.05l.05-.05v.05h.05q0 .05.05.05v-.05q.048 0 .05-.05v.1q0 .05.05.1v-.05l.05-.05v.05l-.05.05v.05h.05q-.1.25-.25.35-.1.05-.1.15-.05 0-.1.05t-.1.05q0 .05.05.05l.05-.05q0 .05-.05.1.1.05.2 0 .1 0 .15-.05 0-.05-.05-.1.05 0 .05-.05.05 0 .1-.1.1-.1.15-.2v-.05l.05-.05v.05q.1-.05.15-.15 0-.05.05-.05.05-.05 0-.1 0-.05.05-.05v-.1l.1-.1q0-.05-.05-.05V12h.05q0-.05-.05-.05v-.05q-.056-.006-.1-.05h.05q0 .044.05.05V11.75h.05q.05-.05 0-.1v-.05q.05 0 .1-.05.05 0 .05-.05h.05q.05-.05 0-.1h.05v-.1h.05q.1 0 .1-.05.05 0 .05-.05t-.05-.05q-.05 0-.1.05h-.35q-.05.05-.1.05h-.05q-.05 0-.05-.05h-.05q0-.05-.05-.05v.05h-.05q.049-.001.05-.05-.05-.05-.1-.05v.05l-.05-.05h-.2q0 .048.05.05h-.25q-.05-.05-.1-.05l-.1-.1H54.2v.05q.05 0 .05.05v.05l-.05-.05v-.05l-.05-.05h-.05q-.049 0-.05-.05V11H54v-.05q0-.05-.1-.05v.05q0 .05-.05 0 .049 0 .05-.05 0-.1-.1-.15l-.05-.05q0 .05-.05.05v-.1q0-.05-.05-.05v-.05l-.05.05v-.05h.05v-.05l-.05-.05q.05-.05 0-.05l.05-.05v-.1q0-.05.05 0 0 .1.05.1t.05-.1h.05q.05 0 .15-.05h.05l.05-.05q-.1 0-.25-.05-.05 0-.1-.05-.05 0-.1.05-.05 0-.05-.05.1-.05.2-.05h.2q.05-.05.05-.1t-.15-.1h-.1q-.05 0-.1.05.05 0 .05.05-.05-.05-.1-.05h-.1q.052-.002.1-.05l-.05-.05h-.05q-.1.05-.15.1h-.05q-.1.05-.15.15h-.1m.25-.05q.05-.05.1-.05h.1q.05.05.05.1l-.05-.05q-.1-.05-.15 0-.05.05-.1.05l.05-.05m-.05.7v.1q-.05.05-.1.05.05-.05.05-.1.048 0 .05-.05.006-.056.05-.1v.05q-.044 0-.05.05m.15-.25q0 .049.05.05h-.05q-.05 0 0-.05m.65.8v-.1q.05.05.05.1h-.05m-.9.4q.049 0 .05-.05v.05l-.05.05v-.05m.5.4l.05.05v.05q-.001-.05-.05-.05V12m1.65-.65v-.05l.05.05h-.05m.2.1v-.05l.05.05h-.05m.05-.15v-.05q.05 0 .05.05h-.05m-.25.4q-.05 0-.05-.05h.05v.05z" id="aZ"/><path d="M54.85 12.85h-.05v.05l.05-.05z" id="ba"/><path d="M55.05 12.45h.05v-.05l-.05.05z" id="bb"/><path d="M55.25 11.45v.1h.05v-.1h-.05z" id="bc"/><path d="M55.05 11.7v-.05H55l.05.05m.1-.25q0-.05-.05-.05h-.05q.05.05.1.05m.05.1q0-.05-.05-.1v.1h.05z" id="bd"/><path d="M55.3 11.35v.1h.05v-.05l-.05-.05z" id="be"/><path d="M54.65 11.4v.05h.05v-.05h-.05z" id="bf"/><path d="M54.8 11.55v-.05h-.05l.05.05m.1.25v-.1-.1q-.05.05-.05.1t.05.1z" id="bg"/><path d="M54.65 11.75h-.05v.05q.05 0 .05-.05m.05-.1h-.05v.05l.05-.05m.05.05v-.05q-.001.05-.05.05v.05l.05-.05z" id="bh"/><path d="M54.4 11.8h.05v-.1h.05v-.1q-.002.05-.05.05 0 .05-.05.1v.05z" id="bi"/><path d="M54.75 12.1q.05-.05.05-.1t-.05-.1v.1l-.1-.1q.05.053.05.1.05 0 .05.05v.05m0-.2v-.05h-.05l.05.05z" id="bj"/><path d="M54.95 12.15q-.001.05-.05.05v.05l.05-.05v-.05z" id="bk"/><path d="M54.55 12.3q-.05 0-.05.05h.05v-.05z" id="bl"/><path d="M54.15 12.8v-.05q-.05 0-.05.05h.05z" id="bm"/><path d="M54.25 12.7h-.05v.05q.05 0 .05-.05z" id="bn"/><path d="M54.4 12.25q-.002.05-.05.05 0 .05.05.05v-.1z" id="bo"/><path d="M54.4 11.35v.1h.05q0-.05-.05-.1m-.1.05v.1q.05-.05.05-.1v-.05q-.001.05-.05.05m0 .1q-.001.049-.05.05h.05v-.05z" id="bp"/><path d="M54.2 11.65v.1q.002-.05.05-.05v-.1q-.002.05-.05.05m-.05.15l-.05.05h.05v-.05z" id="bq"/><path d="M54 11.75q-.002.05-.1.1l-.05.05q.05 0 .15-.05v-.1z" id="br"/><path d="M53.65 11.9h-.05l.05.05v-.05z" id="bs"/><path d="M53.6 12v.1q.05-.05.05-.1h-.05z" id="bt"/><path d="M53.55 12.3q-.05 0-.05.05h.05v-.05z" id="bu"/><path d="M53.7 11.9v-.05h-.05v.05h.05z" id="bv"/><path d="M53.55 11.85v-.1-.1q-.05.05-.05.1t.05.1z" id="bw"/><path d="M53.35 11.95v-.15l-.05.05q.048.048.05.1z" id="bx"/><path d="M53.25 11.8q-.002.05-.05.05v.05h.05v-.1z" id="by"/><path d="M53.8 10.9q0 .05.05.1v-.1h-.05z" id="bz"/><path d="M53.4 11l-.1.1q0 .05.05.1v-.1q0-.047.05-.1z" id="bA"/><path d="M53.65 11q.006-.05.05-.05 0-.05.05-.05v-.05h-.05q.049.001 0 .05-.044.044-.05.1z" id="bB"/><path d="M53.3 11.15v-.1q-.05.05-.05.1h.05m0-.15v.05l.05-.05v-.05l-.05.05z" id="bC"/><path d="M53.6 10.95v-.05h-.05q0 .05.05.05z" id="bD"/><path d="M53.5 10.85h.05v-.05q-.001.049-.05.05m0 .2h.05V11l-.05-.05v.1z" id="bE"/><path d="M54.1 11.5q-.002.053-.05.15h.05v-.15z" id="bF"/><path d="M53.8 11.75v-.05q-.044 0-.05-.05.006.056.05.1m0 .1q.05-.05.05-.1l-.05.05v.05m.05-.15v.05q.05-.05.15-.1v-.05q-.002.05-.1.05 0 .05-.05.05m-.05-.25v.05l.05-.05h-.05z" id="bG"/><path d="M53.65 11.55v.1h.05q-.048-.048-.05-.1z" id="bH"/><path d="M53.85 11.35h.05v-.05l-.05.05z" id="bI"/><path d="M54.05 11.15q0-.05-.05-.1v.05l.05.05z" id="bJ"/><path d="M53.15 11.55l.1-.1q-.053.05-.1.05v.05m.1-.2v.1q.05-.05.05-.1h-.05z" id="bK"/><path d="M53.55 11.3q.05 0 .05-.05l-.05-.05v.1z" id="bL"/><path d="M53.65 11.3q-.002.053-.05.15h.05v-.15z" id="bM"/><path fill="#F7DB17" d="M52.9 9.9h.1v.05l-.05-.05v.05l.1.1q0-.05.05-.05 0-.05.1-.05 0-.05-.05-.05-.1-.1-.25-.05v.05z" id="bN"/><path d="M53.3 10.15h-.05q0 .05.05.05v-.05z" id="bO"/><path d="M53.5 10.35l.05-.1h-.05q0 .098-.05.1h.05z" id="bP"/><path d="M53.7 10.1h-.05v.05l.05-.05z" id="bQ"/><path d="M53.65 10.15v.05l.05-.05h-.05z" id="bR"/><path d="M53.25 10.4h.05v-.05q-.05 0-.05.05z" id="bS"/><path d="M53.15 10.25v-.05l-.05.05h.05z" id="bT"/><path d="M53.6 10.75v-.05q-.001.049-.05.05h.05m-.05-.1q.048 0 .05.05v-.1h-.05v.05z" id="bU"/><path d="M53.2 10.75h.05v-.05l-.05.05z" id="bV"/><path d="M53.35 10.5v.05h.05q.05 0 .05-.05h-.1z" id="bW"/><path d="M56.75 12.25h-.1q-.05 0 0 .05v.05q.05 0 .1.05 0 .05.15 0l.05.05H57q.05.15.15.2v.1h-.5q-.05.05 0 .05 0 .05.05.05t.15.05q.05 0 .1-.05 0 .05.05.05h.35q.05.05.15.05 0 .05.1.1-.05 0-.1.05-.05-.05-.1 0h-.05q-.05 0-.05-.05h-.1q-.05.05 0 .05 0 .05.05.05h.05q0 .05.05.05.05.05.1 0H57.9q.1-.1.3.05.05 0 .15.05l-.05.05h-.25q-.05 0 0 .05 0 .05.05.05h.05q0 .05.05.05h.05q.05-.05.1-.05h.25l.05-.05h.1l.2.1q.1.05.2.15.05 0 .15.05v.1q-.2 0-.1.1h.05q0 .05.05.05.05-.05.15-.1.1 0 0-.1l-.05-.05v-.15q0-.05-.05-.05t-.1-.05q-.05 0-.05-.05v-.1q-.05-.05-.05-.1t.05 0q.1 0 .15.05.1.1.25.15.15.05.25.05.15.05.2 0 .05-.05 0-.15-.1-.1-.25-.1-.1-.05-.3-.1h-.15q-.15-.05-.25-.1-.35-.2-.7-.15h-.1q-.2-.1-.4-.1-.35-.3-.5-.25l-.1-.1-.05-.05.05-.05q0-.05-.1-.05-.05-.05-.15-.1 0-.05-.05-.05t-.05.05q-.05.05-.1.05-.1 0-.1.05z" id="bX"/><path fill="#FFF" d="M58.55 13.2h-.05q0-.05-.1-.05-.05-.05-.2-.05h-.1q-.05 0-.1.05.1 0 .2.05t.25.05q.05.05.1.05h.05v-.05q-.05 0-.05-.05z" id="bY"/><path fill="red" d="M54.75 13.05h-.05q-.05-.05-.15-.05 0 .05-.05.05-.05.05-.1.05 0 .05.05.05l.05-.05q0 .05-.05.1.1.05.2.05.1-.05.15-.1 0-.05-.05-.1z" id="bZ"/><path fill="red" d="M52.85 12.7q.1.05.2 0 .1 0 .05-.05v-.05h-.05l-.1-.1q-.05.1-.1.1t-.05.05h.05v.05z" id="ca"/><path fill="red" d="M54.1 13v-.05l-.1-.05q-.1-.05-.15-.05v.05q0 .05-.05.05-.05.05 0 .05.2.05.3 0z" id="cb"/><path fill="red" d="M53.3 13.05q.05 0 .1-.05t0-.1h-.1v-.05h-.05l-.1.1q-.05 0 0 .05.05 0 .05-.05.05-.05.05 0l-.05.05q.05.05.1.05z" id="cc"/><path fill="red" d="M53.8 10h.2q.05-.05.05-.1t-.15-.1h-.1q-.05 0-.1.05.05 0 .05.05-.05-.05-.1-.05h-.1q.052-.002.1-.05l-.05-.05h-.05q-.1.05-.15.1h-.05q-.05.05-.15.1.05.05.1.05l.05-.05q.05-.05.1-.05h.1q.044.044.05.1-.006-.05-.05-.05-.1-.05-.15 0-.047 0-.1.05.15 0 .2.05h.1q.1-.05.2-.05z" id="cd"/></defs><use xlink:href="#a" transform="matrix(1.999 0 0 2.08955 0 .85)"/><use xlink:href="#b" transform="matrix(1.999 0 0 2.08955 0 .85)"/><use xlink:href="#c" transform="matrix(1.999 0 0 2.08955 0 .85)"/><use xlink:href="#d" transform="matrix(1.999 0 0 2.08955 0 .85)"/><use xlink:href="#e" transform="matrix(1.999 0 0 2.08955 0 .85)"/><use xlink:href="#f" transform="matrix(1.999 0 0 2.08955 0 .85)"/><use xlink:href="#g" transform="matrix(1.999 0 0 2.08955 0 .85)"/><use xlink:href="#h" transform="matrix(1.999 0 0 2.08955 0 .85)"/><use xlink:href="#i" transform="matrix(1.999 0 0 2.08955 0 .85)"/><use xlink:href="#j" transform="matrix(1.999 0 0 2.08955 0 .85)"/><use xlink:href="#k" transform="matrix(1.999 0 0 2.08955 0 .85)"/><use xlink:href="#l" transform="matrix(1.999 0 0 2.08955 0 .85)"/><use xlink:href="#m" transform="matrix(1.999 0 0 2.08955 0 .85)"/><use xlink:href="#n" transform="matrix(1.999 0 0 2.08955 0 .85)"/><use xlink:href="#o" transform="matrix(1.999 0 0 2.08955 0 .85)"/><use xlink:href="#p" transform="matrix(1.999 0 0 2.08955 0 .85)"/><use xlink:href="#q" transform="matrix(1.999 0 0 2.08955 0 .85)"/><use xlink:href="#r" transform="matrix(1.999 0 0 2.08955 0 .85)"/><use xlink:href="#s" transform="matrix(1.999 0 0 2.08955 0 .85)"/><use xlink:href="#t" transform="matrix(1.999 0 0 2.08955 0 .85)"/><use xlink:href="#u" transform="matrix(1.999 0 0 2.08955 0 .85)"/><use xlink:href="#v" transform="matrix(1.999 0 0 2.08955 0 .85)"/><use xlink:href="#w" transform="matrix(1.999 0 0 2.08955 0 .85)"/><use xlink:href="#x" transform="matrix(1.999 0 0 2.08955 0 .85)"/><use xlink:href="#y" transform="matrix(1.999 0 0 2.08955 0 .85)"/><use xlink:href="#z" transform="matrix(1.999 0 0 2.08955 0 .85)"/><use xlink:href="#A" transform="matrix(1.999 0 0 2.08955 0 .85)"/><use xlink:href="#B" transform="matrix(1.999 0 0 2.08955 0 .85)"/><use xlink:href="#C" transform="matrix(1.999 0 0 2.08955 0 .85)"/><use xlink:href="#D" transform="matrix(1.999 0 0 2.08955 0 .85)"/><use xlink:href="#E" transform="matrix(1.999 0 0 2.08955 0 .85)"/><use xlink:href="#F" transform="matrix(1.999 0 0 2.08955 0 .85)"/><use xlink:href="#G" transform="matrix(1.999 0 0 2.08955 0 .85)"/><use xlink:href="#H" transform="matrix(1.999 0 0 2.08955 0 .85)"/><use xlink:href="#I" transform="matrix(1.999 0 0 2.08955 0 .85)"/><use xlink:href="#J" transform="matrix(1.999 0 0 2.08955 0 .85)"/><use xlink:href="#K" transform="matrix(1.999 0 0 2.08955 0 .85)"/><use xlink:href="#L" transform="matrix(1.999 0 0 2.08955 0 .85)"/><use xlink:href="#M" transform="matrix(1.999 0 0 2.08955 0 .85)"/><use xlink:href="#N" transform="matrix(1.999 0 0 2.08955 0 .85)"/><use xlink:href="#O" transform="matrix(1.999 0 0 2.08955 0 .85)"/><use xlink:href="#P" transform="matrix(1.999 0 0 2.08955 0 .85)"/><use xlink:href="#Q" transform="matrix(1.999 0 0 2.08955 0 .85)"/><use xlink:href="#R" transform="matrix(1.999 0 0 2.08955 0 .85)"/><use xlink:href="#S" transform="matrix(1.999 0 0 2.08955 0 .85)"/><use xlink:href="#T" transform="matrix(1.999 0 0 2.08955 0 .85)"/><use xlink:href="#U" transform="matrix(1.999 0 0 2.08955 0 .85)"/><use xlink:href="#V" transform="matrix(1.999 0 0 2.08955 0 .85)"/><use xlink:href="#W" transform="matrix(1.999 0 0 2.08955 0 .85)"/><use xlink:href="#X" transform="matrix(1.999 0 0 2.08955 0 .85)"/><use xlink:href="#Y" transform="matrix(1.999 0 0 2.08955 0 .85)"/><use xlink:href="#Z" transform="matrix(1.999 0 0 2.08955 0 .85)"/><use xlink:href="#aa" transform="matrix(1.999 0 0 2.08955 0 .85)"/><use xlink:href="#ab" transform="matrix(1.999 0 0 2.08955 0 .85)"/><use xlink:href="#ac" transform="matrix(1.999 0 0 2.08955 0 .85)"/><use xlink:href="#ad" transform="matrix(1.999 0 0 2.08955 0 .85)"/><use xlink:href="#ae" transform="matrix(1.999 0 0 2.08955 0 .85)"/><use xlink:href="#af" transform="matrix(1.999 0 0 2.08955 0 .85)"/><use xlink:href="#ag" transform="matrix(1.999 0 0 2.08955 0 .85)"/><use xlink:href="#ah" transform="matrix(1.999 0 0 2.08955 0 .85)"/><use xlink:href="#ai" transform="matrix(1.999 0 0 2.08955 0 .85)"/><use xlink:href="#aj" transform="matrix(1.999 0 0 2.08955 0 .85)"/><use xlink:href="#ak" transform="matrix(1.999 0 0 2.08955 0 .85)"/><use xlink:href="#al" transform="matrix(1.999 0 0 2.08955 0 .85)"/><use xlink:href="#am" transform="matrix(1.999 0 0 2.08955 0 .85)"/><use xlink:href="#an" transform="matrix(1.999 0 0 2.08955 0 .85)"/><use xlink:href="#ao" transform="matrix(1.999 0 0 2.08955 0 .85)"/><use xlink:href="#ap" transform="matrix(1.999 0 0 2.08955 0 .85)"/><use xlink:href="#aq" transform="matrix(1.999 0 0 2.08955 0 .85)"/><use xlink:href="#ar" transform="matrix(1.999 0 0 2.08955 0 .85)"/><use xlink:href="#as" transform="matrix(1.999 0 0 2.08955 0 .85)"/><use xlink:href="#at" transform="matrix(1.999 0 0 2.08955 0 .85)"/><use xlink:href="#au" transform="matrix(1.999 0 0 2.08955 0 .85)"/><use xlink:href="#av" transform="matrix(1.999 0 0 2.08955 0 .85)"/><use xlink:href="#aw" transform="matrix(1.999 0 0 2.08955 0 .85)"/><use xlink:href="#ax" transform="matrix(1.999 0 0 2.08955 0 .85)"/><use xlink:href="#ay" transform="matrix(1.999 0 0 2.08955 0 .85)"/><use xlink:href="#az" transform="matrix(1.999 0 0 2.08955 0 .85)"/><use xlink:href="#aA" transform="matrix(1.999 0 0 2.08955 0 .85)"/><use xlink:href="#aB" transform="matrix(1.999 0 0 2.08955 0 .85)"/><use xlink:href="#aC" transform="matrix(1.999 0 0 2.08955 0 .85)"/><use xlink:href="#aD" transform="matrix(1.999 0 0 2.08955 0 .85)"/><use xlink:href="#aE" transform="matrix(1.999 0 0 2.08955 0 .85)"/><use xlink:href="#aF" transform="matrix(1.999 0 0 2.08955 0 .85)"/><use xlink:href="#aG" transform="matrix(1.999 0 0 2.08955 0 .85)"/><use xlink:href="#aH" transform="matrix(1.999 0 0 2.08955 0 .85)"/><use xlink:href="#aI" transform="matrix(1.999 0 0 2.08955 0 .85)"/><use xlink:href="#aJ" transform="matrix(1.999 0 0 2.08955 0 .85)"/><use xlink:href="#aK" transform="matrix(1.999 0 0 2.08955 0 .85)"/><use xlink:href="#aL" transform="matrix(1.999 0 0 2.08955 0 .85)"/><use xlink:href="#aM" transform="matrix(1.999 0 0 2.08955 0 .85)"/><use xlink:href="#aN" transform="matrix(1.999 0 0 2.08955 0 .85)"/><use xlink:href="#aO" transform="matrix(1.999 0 0 2.08955 0 .85)"/><use xlink:href="#aP" transform="matrix(1.999 0 0 2.08955 0 .85)"/><use xlink:href="#aQ" transform="matrix(1.999 0 0 2.08955 0 .85)"/><use xlink:href="#aR" transform="matrix(1.999 0 0 2.08955 0 .85)"/><use xlink:href="#aS" transform="matrix(1.999 0 0 2.08955 0 .85)"/><use xlink:href="#aT" transform="matrix(1.999 0 0 2.08955 0 .85)"/><use xlink:href="#aU" transform="matrix(1.999 0 0 2.08955 0 .85)"/><use xlink:href="#aV" transform="matrix(1.999 0 0 2.08955 0 .85)"/><use xlink:href="#aW" transform="matrix(1.999 0 0 2.08955 0 .85)"/><use xlink:href="#aX" transform="matrix(1.999 0 0 2.08955 0 .85)"/><use xlink:href="#aY" transform="matrix(1.999 0 0 2.08955 0 .85)"/><use xlink:href="#aZ" transform="matrix(1.999 0 0 2.08955 0 .85)"/><use xlink:href="#ba" transform="matrix(1.999 0 0 2.08955 0 .85)"/><use xlink:href="#bb" transform="matrix(1.999 0 0 2.08955 0 .85)"/><use xlink:href="#bc" transform="matrix(1.999 0 0 2.08955 0 .85)"/><use xlink:href="#bd" transform="matrix(1.999 0 0 2.08955 0 .85)"/><use xlink:href="#be" transform="matrix(1.999 0 0 2.08955 0 .85)"/><use xlink:href="#bf" transform="matrix(1.999 0 0 2.08955 0 .85)"/><use xlink:href="#bg" transform="matrix(1.999 0 0 2.08955 0 .85)"/><use xlink:href="#bh" transform="matrix(1.999 0 0 2.08955 0 .85)"/><use xlink:href="#bi" transform="matrix(1.999 0 0 2.08955 0 .85)"/><use xlink:href="#bj" transform="matrix(1.999 0 0 2.08955 0 .85)"/><use xlink:href="#bk" transform="matrix(1.999 0 0 2.08955 0 .85)"/><use xlink:href="#bl" transform="matrix(1.999 0 0 2.08955 0 .85)"/><use xlink:href="#bm" transform="matrix(1.999 0 0 2.08955 0 .85)"/><use xlink:href="#bn" transform="matrix(1.999 0 0 2.08955 0 .85)"/><use xlink:href="#bo" transform="matrix(1.999 0 0 2.08955 0 .85)"/><use xlink:href="#bp" transform="matrix(1.999 0 0 2.08955 0 .85)"/><use xlink:href="#bq" transform="matrix(1.999 0 0 2.08955 0 .85)"/><use xlink:href="#br" transform="matrix(1.999 0 0 2.08955 0 .85)"/><use xlink:href="#bs" transform="matrix(1.999 0 0 2.08955 0 .85)"/><use xlink:href="#bt" transform="matrix(1.999 0 0 2.08955 0 .85)"/><use xlink:href="#bu" transform="matrix(1.999 0 0 2.08955 0 .85)"/><use xlink:href="#bv" transform="matrix(1.999 0 0 2.08955 0 .85)"/><use xlink:href="#bw" transform="matrix(1.999 0 0 2.08955 0 .85)"/><use xlink:href="#bx" transform="matrix(1.999 0 0 2.08955 0 .85)"/><use xlink:href="#by" transform="matrix(1.999 0 0 2.08955 0 .85)"/><use xlink:href="#bz" transform="matrix(1.999 0 0 2.08955 0 .85)"/><use xlink:href="#bA" transform="matrix(1.999 0 0 2.08955 0 .85)"/><use xlink:href="#bB" transform="matrix(1.999 0 0 2.08955 0 .85)"/><use xlink:href="#bC" transform="matrix(1.999 0 0 2.08955 0 .85)"/><use xlink:href="#bD" transform="matrix(1.999 0 0 2.08955 0 .85)"/><use xlink:href="#bE" transform="matrix(1.999 0 0 2.08955 0 .85)"/><use xlink:href="#bF" transform="matrix(1.999 0 0 2.08955 0 .85)"/><use xlink:href="#bG" transform="matrix(1.999 0 0 2.08955 0 .85)"/><use xlink:href="#bH" transform="matrix(1.999 0 0 2.08955 0 .85)"/><use xlink:href="#bI" transform="matrix(1.999 0 0 2.08955 0 .85)"/><use xlink:href="#bJ" transform="matrix(1.999 0 0 2.08955 0 .85)"/><use xlink:href="#bK" transform="matrix(1.999 0 0 2.08955 0 .85)"/><use xlink:href="#bL" transform="matrix(1.999 0 0 2.08955 0 .85)"/><use xlink:href="#bM" transform="matrix(1.999 0 0 2.08955 0 .85)"/><use xlink:href="#bN" transform="matrix(1.999 0 0 2.08955 0 .85)"/><use xlink:href="#bO" transform="matrix(1.999 0 0 2.08955 0 .85)"/><use xlink:href="#bP" transform="matrix(1.999 0 0 2.08955 0 .85)"/><use xlink:href="#bQ" transform="matrix(1.999 0 0 2.08955 0 .85)"/><use xlink:href="#bR" transform="matrix(1.999 0 0 2.08955 0 .85)"/><use xlink:href="#bS" transform="matrix(1.999 0 0 2.08955 0 .85)"/><use xlink:href="#bT" transform="matrix(1.999 0 0 2.08955 0 .85)"/><use xlink:href="#bU" transform="matrix(1.999 0 0 2.08955 0 .85)"/><use xlink:href="#bV" transform="matrix(1.999 0 0 2.08955 0 .85)"/><use xlink:href="#bW" transform="matrix(1.999 0 0 2.08955 0 .85)"/><use xlink:href="#bX" transform="matrix(1.999 0 0 2.08955 0 .85)"/><use xlink:href="#bY" transform="matrix(1.999 0 0 2.08955 0 .85)"/><use xlink:href="#bZ" transform="matrix(1.999 0 0 2.08955 0 .85)"/><use xlink:href="#ca" transform="matrix(1.999 0 0 2.08955 0 .85)"/><use xlink:href="#cb" transform="matrix(1.999 0 0 2.08955 0 .85)"/><use xlink:href="#cc" transform="matrix(1.999 0 0 2.08955 0 .85)"/><use xlink:href="#cd" transform="matrix(1.999 0 0 2.08955 0 .85)"/></svg>