<svg xmlns="http://www.w3.org/2000/svg" xmlns:xlink="http://www.w3.org/1999/xlink" preserveAspectRatio="none" width="200" height="105"><defs><path fill="#FFF" d="M177.95 463H430V319H177.95v144z" id="a"/><path fill="#00A05F" d="M361.6 367.05v-1.2h10.1v1.2h1.3v-1.2h10.1v1.2h1.3v-1.2h10.1v1.2h1.3v-1.2h10.1v1.2h1.3v-1.2h10.05v1.2h1.35v-1.2h10.05v1.2H430V319H177.95v48.05h1.35v-1.2h10.05v1.2h1.35v-1.2h10.05v1.2h1.35v-1.2h10.05v1.2h1.3v-1.2h10.1v1.2h1.3v-1.2h10.1v1.2h1.3v-1.2h10.1v1.2h1.3v-1.2h10.1v1.2h1.3v-1.2h10.1v1.2h1.3v-1.2h10.1v1.2h1.3v-1.2h10.1v1.2h1.3v-1.2h10.05v1.2h1.35v-1.2h10.05v1.2h1.35v-1.2h10.05v1.2h1.35v-1.2h10.05v1.2h1.3v-1.2h10.1v1.2h1.3v-1.2h10.1v1.2h1.3z" id="b"/><path fill="#EE333E" d="M316.05 416.2V415h-1.35v1.2h-10.05V415h-1.35v1.2h-10.05V415h-1.3v1.2h-10.1V415h-1.3v1.2h-10.1V415h-1.3v1.2h-10.1V415h-1.3v1.2h-10.1V415h-1.3v1.2h-10.1V415h-1.3v1.2h-10.1V415h-1.3v1.2h-10.1V415h-1.3v1.2H202.1V415h-1.35v1.2H190.7V415h-1.35v1.2H179.3V415h-1.35v48H430v-48h-1.35v1.2H418.6V415h-1.35v1.2H407.2V415h-1.3v1.2h-10.1V415h-1.3v1.2h-10.1V415h-1.3v1.2H373V415h-1.3v1.2h-10.1V415h-1.3v1.2h-10.1V415h-1.3v1.2h-10.1V415h-1.3v1.2h-10.05V415h-1.35v1.2h-10.05z" id="c"/><path fill="#FFF" d="M191.65 363.6v-1.3h3.6v2.3h5.5v-5.55h-.95v4.55h-1.35v-4.55h-1v4.55h-1.25v-4.55h-.95v2.3h-4.55v3.25h3.25v-1h-2.3z" id="d"/><path fill="#FFF" d="M179.25 360.05h14.7v-1h-14.7v1z" id="e"/><path fill="#FFF" d="M189.35 364.6v-3.25h-3.1v.95h2.15v1.3h-3.55v-2.25h-5.6v3.25h.95v-2.3h3.65v2.3h5.5z" id="f"/><path fill="#FFF" d="M195.25 419.75h-4.55V423h3.25v-1h-2.3v-1.25h3.6V423h5.5v-5.55h-.95V422h-1.35v-4.55h-1V422h-1.25v-4.55h-.95v2.3z" id="g"/><path fill="#FFF" d="M179.25 418.45h14.7v-1h-14.7v1z" id="h"/><path fill="#FFF" d="M189.35 419.75h-3.1v1h2.15V422h-3.55v-2.25h-5.6V423h.95v-2.25h3.65V423h5.5v-3.25z" id="i"/><path fill="#FFF" d="M182.5 422h-1v1h1v-1z" id="j"/><path fill="#FFF" d="M223.55 364.6v-5.55h-1v4.55h-1.3v-4.55h-1v4.55H219v-4.55h-.95v2.3h-4.6v3.25h3.3v-1h-2.3v-1.3h3.6v2.3h5.5z" id="k"/><path fill="#FFF" d="M202 359.05v1h14.75v-1H202z" id="l"/><path fill="#FFF" d="M202 361.35v3.25h1v-2.3h3.65v2.3h5.5v-3.25h-3.1v.95h2.15v1.3h-3.6v-2.25H202z" id="m"/><path fill="#FFF" d="M205.3 363.6h-1v1h1v-1z" id="n"/><path fill="#FFF" d="M182.5 363.6h-1v1h1v-1z" id="o"/><path fill="#FFF" d="M240.8 362.3v2.3h5.55v-5.55h-1v4.55h-1.3v-4.55h-1v4.55h-1.25v-4.55h-1v2.3h-4.55v3.25h3.3v-1h-2.3v-1.3h3.55z" id="p"/><path fill="#FFF" d="M224.8 360.05h14.75v-1H224.8v1z" id="q"/><path fill="#FFF" d="M229.45 362.3v2.3h5.5v-3.25h-3.1v.95h2.1v1.3h-3.55v-2.25h-5.6v3.25h1v-2.3h3.65z" id="r"/><path fill="#FFF" d="M228.1 363.6h-1v1h1v-1z" id="s"/><path fill="#FFF" d="M218.05 419.75h-4.6V423h3.3v-1h-2.3v-1.25h3.6V423h5.5v-5.55h-1V422h-1.3v-4.55h-1V422H219v-4.55h-.95v2.3z" id="t"/><path fill="#FFF" d="M216.75 418.45v-1H202v1h14.75z" id="u"/><path fill="#FFF" d="M212.15 419.75h-3.1v1h2.15V422h-3.6v-2.25H202V423h1v-2.25h3.65V423h5.5v-3.25z" id="v"/><path fill="#FFF" d="M205.3 422h-1v1h1v-1z" id="w"/><path fill="#FFF" d="M243.05 417.45V422h-1.25v-4.55h-1v2.3h-4.55V423h3.3v-1h-2.3v-1.25h3.55V423h5.55v-5.55h-1V422h-1.3v-4.55h-1z" id="x"/><path fill="#FFF" d="M224.8 418.45h14.75v-1H224.8v1z" id="y"/><path fill="#FFF" d="M234.95 419.75h-3.1v1h2.1V422h-3.55v-2.25h-5.6V423h1v-2.25h3.65V423h5.5v-3.25z" id="z"/><path fill="#FFF" d="M228.1 422h-1v1h1v-1z" id="A"/><path fill="#FFF" d="M269.15 364.6v-5.55h-1v4.55h-1.35v-4.55h-.95v4.55h-1.25v-4.55h-1v2.3h-4.55v3.25h3.25v-1h-2.25v-1.3h3.55v2.3h5.55z" id="B"/><path fill="#FFF" d="M247.6 360.05h14.7v-1h-14.7v1z" id="C"/><path fill="#FFF" d="M252.25 362.3v2.3h5.5v-3.25h-3.15v.95h2.15v1.3h-3.55v-2.25h-5.6v3.25h1v-2.3h3.65z" id="D"/><path fill="#FFF" d="M250.85 363.6h-.95v1h.95v-1z" id="E"/><path fill="#FFF" d="M282.8 363.6v-1.3h3.6v2.3h5.5v-5.55h-.95v4.55h-1.35v-4.55h-.95v4.55h-1.25v-4.55h-1v2.3h-4.55v3.25h3.25v-1h-2.3z" id="F"/><path fill="#FFF" d="M270.4 359.05v1h14.7v-1h-14.7z" id="G"/><path fill="#FFF" d="M271.35 364.6v-2.3H275v2.3h5.55v-3.25h-3.15v.95h2.15v1.3H276v-2.25h-5.6v3.25h.95z" id="H"/><path fill="#FFF" d="M273.65 363.6h-.95v1h.95v-1z" id="I"/><path fill="#FFF" d="M263.6 417.45v2.3h-4.55V423h3.25v-1h-2.25v-1.25h3.55V423h5.55v-5.55h-1V422h-1.35v-4.55h-.95V422h-1.25v-4.55h-1z" id="J"/><path fill="#FFF" d="M247.6 418.45h14.7v-1h-14.7v1z" id="K"/><path fill="#FFF" d="M257.75 419.75h-3.15v1h2.15V422h-3.55v-2.25h-5.6V423h1v-2.25h3.65V423h5.5v-3.25z" id="L"/><path fill="#FFF" d="M250.85 422h-.95v1h.95v-1z" id="M"/><path fill="#FFF" d="M286.4 417.45v2.3h-4.55V423h3.25v-1h-2.3v-1.25h3.6V423h5.5v-5.55h-.95V422h-1.35v-4.55h-.95V422h-1.25v-4.55h-1z" id="N"/><path fill="#FFF" d="M285.1 418.45v-1h-14.7v1h14.7z" id="O"/><path fill="#FFF" d="M280.55 419.75h-3.15v1h2.15V422H276v-2.25h-5.6V423h.95v-2.25H275V423h5.55v-3.25z" id="P"/><path fill="#FFF" d="M273.65 422h-.95v1h.95v-1z" id="Q"/><path fill="#FFF" d="M312.4 359.05h-1v4.55h-1.25v-4.55h-.95v2.3h-4.55v3.25h3.25v-1h-2.3v-1.3h3.6v2.3h5.5v-5.55h-.95v4.55h-1.35v-4.55z" id="R"/><path fill="#FFF" d="M293.2 360.05h14.7v-1h-14.7v1z" id="S"/><path fill="#FFF" d="M293.2 361.35v3.25h.95v-2.3h3.65v2.3h5.5v-3.25h-3.1v.95h2.15v1.3h-3.55v-2.25h-5.6z" id="T"/><path fill="#FFF" d="M296.45 363.6h-1v1h1v-1z" id="U"/><path fill="#FFF" d="M332 362.3v2.3h5.5v-5.55h-.95v4.55h-1.35v-4.55h-1v4.55h-1.25v-4.55H332v2.3h-4.55v3.25h3.25v-1h-2.3v-1.3h3.6z" id="V"/><path fill="#FFF" d="M330.7 360.05v-1h-14.75v1h14.75z" id="W"/><path fill="#FFF" d="M325.15 362.3v1.3h-3.6v-2.25h-5.6v3.25h1v-2.3h3.65v2.3h5.5v-3.25H323v.95h2.15z" id="X"/><path fill="#FFF" d="M319.25 363.6h-1v1h1v-1z" id="Y"/><path fill="#FFF" d="M309.2 419.75h-4.55V423h3.25v-1h-2.3v-1.25h3.6V423h5.5v-5.55h-.95V422h-1.35v-4.55h-1V422h-1.25v-4.55h-.95v2.3z" id="Z"/><path fill="#FFF" d="M293.2 418.45h14.7v-1h-14.7v1z" id="aa"/><path fill="#FFF" d="M303.3 419.75h-3.1v1h2.15V422h-3.55v-2.25h-5.6V423h.95v-2.25h3.65V423h5.5v-3.25z" id="ab"/><path fill="#FFF" d="M296.45 422h-1v1h1v-1z" id="ac"/><path fill="#FFF" d="M332 419.75h-4.55V423h3.25v-1h-2.3v-1.25h3.6V423h5.5v-5.55h-.95V422h-1.35v-4.55h-1V422h-1.25v-4.55H332v2.3z" id="ad"/><path fill="#FFF" d="M315.95 417.45v1h14.75v-1h-14.75z" id="ae"/><path fill="#FFF" d="M320.6 420.75V423h5.5v-3.25H323v1h2.15V422h-3.6v-2.25h-5.6V423h1v-2.25h3.65z" id="af"/><path fill="#FFF" d="M319.25 422h-1v1h1v-1z" id="ag"/><path fill="#FFF" d="M351.2 363.6v-1.3h3.6v2.3h5.5v-5.55h-1v4.55H358v-4.55h-1v4.55h-1.25v-4.55h-.95v2.3h-4.6v3.25h3.3v-1h-2.3z" id="ah"/><path fill="#FFF" d="M338.75 360.05h14.75v-1h-14.75v1z" id="ai"/><path fill="#FFF" d="M348.9 364.6v-3.25h-3.1v.95h2.15v1.3h-3.6v-2.25h-5.6v3.25h1v-2.3h3.65v2.3h5.5z" id="aj"/><path fill="#FFF" d="M342.05 363.6h-1v1h1v-1z" id="ak"/><path fill="#FFF" d="M374 363.6v-1.3h3.55v2.3h5.55v-5.55h-1v4.55h-1.35v-4.55h-.95v4.55h-1.25v-4.55h-1v2.3H373v3.25h3.25v-1H374z" id="al"/><path fill="#FFF" d="M361.55 359.05v1h14.7v-1h-14.7z" id="am"/><path fill="#FFF" d="M362.55 364.6v-2.3h3.65v2.3h5.5v-3.25h-3.1v.95h2.1v1.3h-3.55v-2.25h-5.6v3.25h1z" id="an"/><path fill="#FFF" d="M363.85 363.6v1h.95v-1h-.95z" id="ao"/><path fill="#FFF" d="M354.8 419.75h-4.6V423h3.3v-1h-2.3v-1.25h3.6V423h5.5v-5.55h-1V422H358v-4.55h-1V422h-1.25v-4.55h-.95v2.3z" id="ap"/><path fill="#FFF" d="M338.75 418.45h14.75v-1h-14.75v1z" id="aq"/><path fill="#FFF" d="M348.9 419.75h-3.1v1h2.15V422h-3.6v-2.25h-5.6V423h1v-2.25h3.65V423h5.5v-3.25z" id="ar"/><path fill="#FFF" d="M342.05 422h-1v1h1v-1z" id="as"/><path fill="#FFF" d="M377.55 419.75H373V423h3.25v-1H374v-1.25h3.55V423h5.55v-5.55h-1V422h-1.35v-4.55h-.95V422h-1.25v-4.55h-1v2.3z" id="at"/><path fill="#FFF" d="M376.25 418.45v-1h-14.7v1h14.7z" id="au"/><path fill="#FFF" d="M371.7 419.75h-3.1v1h2.1V422h-3.55v-2.25h-5.6V423h1v-2.25h3.65V423h5.5v-3.25z" id="av"/><path fill="#FFF" d="M364.8 423v-1h-.95v1h.95z" id="aw"/><path fill="#FFF" d="M403.55 359.05h-.95v4.55h-1.25v-4.55h-1v2.3h-4.55v3.25h3.25v-1h-2.3v-1.3h3.6v2.3h5.5v-5.55h-.95v4.55h-1.35v-4.55z" id="ax"/><path fill="#FFF" d="M384.35 360.05h14.7v-1h-14.7v1z" id="ay"/><path fill="#FFF" d="M394.5 364.6v-3.25h-3.15v.95h2.15v1.3h-3.55v-2.25h-5.6v3.25h.95v-2.3h3.65v2.3h5.55z" id="az"/><path fill="#FFF" d="M387.6 363.6h-.95v1h.95v-1z" id="aA"/><path fill="#FFF" d="M428.65 364.6v-5.55h-.95v4.55h-1.35v-4.55h-.95v4.55h-1.25v-4.55h-1v2.3h-4.55v3.25h3.25v-1h-2.3v-1.3h3.6v2.3h5.5z" id="aB"/><path fill="#FFF" d="M407.15 360.05h14.7v-1h-14.7v1z" id="aC"/><path fill="#FFF" d="M411.75 362.3v2.3h5.5v-3.25h-3.1v.95h2.15v1.3h-3.55v-2.25h-5.6v3.25h.95v-2.3h3.65z" id="aD"/><path fill="#FFF" d="M410.4 363.6h-.95v1h.95v-1z" id="aE"/><path fill="#FFF" d="M405.85 423v-5.55h-.95V422h-1.35v-4.55h-.95V422h-1.25v-4.55h-1v2.3h-4.55V423h3.25v-1h-2.3v-1.25h3.6V423h5.5z" id="aF"/><path fill="#FFF" d="M384.35 418.45h14.7v-1h-14.7v1z" id="aG"/><path fill="#FFF" d="M394.5 419.75h-3.15v1h2.15V422h-3.55v-2.25h-5.6V423h.95v-2.25h3.65V423h5.55v-3.25z" id="aH"/><path fill="#FFF" d="M387.6 422h-.95v1h.95v-1z" id="aI"/><path fill="#FFF" d="M428.65 417.45h-.95V422h-1.35v-4.55h-.95V422h-1.25v-4.55h-1v2.3h-4.55V423h3.25v-1h-2.3v-1.25h3.6V423h5.5v-5.55z" id="aJ"/><path fill="#FFF" d="M407.15 418.45h14.7v-1h-14.7v1z" id="aK"/><path fill="#FFF" d="M417.25 419.75h-3.1v1h2.15V422h-3.55v-2.25h-5.6V423h.95v-2.25h3.65V423h5.5v-3.25z" id="aL"/><path fill="#FFF" d="M410.4 422h-.95v1h.95v-1z" id="aM"/><path fill="#EE333E" d="M311.45 377.55q5.45 4.45 6.85 10.7 1.65 7.4-3.3 14.75 3.8-2 5.6-5.95 1.65-3.65 1.15-7.85-.55-4.25-3.1-7.35-2.8-3.35-7.2-4.3z" id="aN"/><path fill="#EE333E" d="M289.65 388.25q1.4-6.25 6.85-10.7-4.4.95-7.2 4.3-2.55 3.1-3.1 7.35-.5 4.2 1.15 7.85 1.8 3.95 5.6 5.95-4.95-7.35-3.3-14.75z" id="aO"/><path fill="#EE333E" d="M298.35 377.8q-6.85 5.35-5.85 14.4.95 8.85 8.2 12.75-3.05 1-6.4.95 4.05 1.2 7.9.7v.05l1.75 2.35 1.8-2.35v-.05q3.85.5 7.9-.7-3.35.05-6.4-.95 7.3-3.9 8.25-12.75.95-9.05-5.9-14.4 4.25 6.4 3 13.5-1.25 6.8-6.8 10.95l.35-23.65q-1.45-.65-2.2-1.75-.7 1.1-2.15 1.75l.35 23.65q-5.55-4.15-6.75-10.95-1.3-7.1 2.95-13.5z" id="aP"/><path fill="#EE333E" d="M306.65 375.35q-1.35.4-2.7-1.2-1.3 1.6-2.65 1.2-1.15-.35-1.7-1.85-1.25 1.85.8 3.2 2 1.35 3.55-.25 1.6 1.6 3.6.25 2.05-1.35.8-3.2-.55 1.5-1.7 1.85z" id="aQ"/></defs><use xlink:href="#a" transform="matrix(.79346 0 0 .72914 -141.2 -232.6)"/><use xlink:href="#b" transform="matrix(.79349 0 0 .72917 -141.2 -232.6)"/><use xlink:href="#c" transform="matrix(.79349 0 0 .72917 -141.2 -232.6)"/><use xlink:href="#d" transform="matrix(.79346 0 0 .72914 -141.2 -232.6)"/><use xlink:href="#e" transform="matrix(.79346 0 0 .72914 -141.2 -232.6)"/><use xlink:href="#f" transform="matrix(.79346 0 0 .72914 -141.2 -232.6)"/><use xlink:href="#g" transform="matrix(.79346 0 0 .72914 -141.2 -232.6)"/><use xlink:href="#h" transform="matrix(.79346 0 0 .72914 -141.2 -232.6)"/><use xlink:href="#i" transform="matrix(.79346 0 0 .72914 -141.2 -232.6)"/><use xlink:href="#j" transform="matrix(.79346 0 0 .72914 -141.2 -232.6)"/><use xlink:href="#k" transform="matrix(.79346 0 0 .72914 -141.2 -232.6)"/><use xlink:href="#l" transform="matrix(.79346 0 0 .72914 -141.2 -232.6)"/><use xlink:href="#m" transform="matrix(.79346 0 0 .72914 -141.2 -232.6)"/><use xlink:href="#n" transform="matrix(.79346 0 0 .72914 -141.2 -232.6)"/><use xlink:href="#o" transform="matrix(.79346 0 0 .72914 -141.2 -232.6)"/><use xlink:href="#p" transform="matrix(.79346 0 0 .72914 -141.2 -232.6)"/><use xlink:href="#q" transform="matrix(.79346 0 0 .72914 -141.2 -232.6)"/><use xlink:href="#r" transform="matrix(.79346 0 0 .72914 -141.2 -232.6)"/><use xlink:href="#s" transform="matrix(.79346 0 0 .72914 -141.2 -232.6)"/><use xlink:href="#t" transform="matrix(.79346 0 0 .72914 -141.2 -232.6)"/><use xlink:href="#u" transform="matrix(.79346 0 0 .72914 -141.2 -232.6)"/><use xlink:href="#v" transform="matrix(.79346 0 0 .72914 -141.2 -232.6)"/><use xlink:href="#w" transform="matrix(.79346 0 0 .72914 -141.2 -232.6)"/><use xlink:href="#x" transform="matrix(.79346 0 0 .72914 -141.2 -232.6)"/><use xlink:href="#y" transform="matrix(.79346 0 0 .72914 -141.2 -232.6)"/><use xlink:href="#z" transform="matrix(.79346 0 0 .72914 -141.2 -232.6)"/><use xlink:href="#A" transform="matrix(.79346 0 0 .72914 -141.2 -232.6)"/><use xlink:href="#B" transform="matrix(.79346 0 0 .72914 -141.2 -232.6)"/><use xlink:href="#C" transform="matrix(.79346 0 0 .72914 -141.2 -232.6)"/><use xlink:href="#D" transform="matrix(.79346 0 0 .72914 -141.2 -232.6)"/><use xlink:href="#E" transform="matrix(.79346 0 0 .72914 -141.2 -232.6)"/><use xlink:href="#F" transform="matrix(.79346 0 0 .72914 -141.2 -232.6)"/><use xlink:href="#G" transform="matrix(.79346 0 0 .72914 -141.2 -232.6)"/><use xlink:href="#H" transform="matrix(.79346 0 0 .72914 -141.2 -232.6)"/><use xlink:href="#I" transform="matrix(.79346 0 0 .72914 -141.2 -232.6)"/><use xlink:href="#J" transform="matrix(.79346 0 0 .72914 -141.2 -232.6)"/><use xlink:href="#K" transform="matrix(.79346 0 0 .72914 -141.2 -232.6)"/><use xlink:href="#L" transform="matrix(.79346 0 0 .72914 -141.2 -232.6)"/><use xlink:href="#M" transform="matrix(.79346 0 0 .72914 -141.2 -232.6)"/><use xlink:href="#N" transform="matrix(.79346 0 0 .72914 -141.2 -232.6)"/><use xlink:href="#O" transform="matrix(.79346 0 0 .72914 -141.2 -232.6)"/><use xlink:href="#P" transform="matrix(.79346 0 0 .72914 -141.2 -232.6)"/><use xlink:href="#Q" transform="matrix(.79346 0 0 .72914 -141.2 -232.6)"/><use xlink:href="#R" transform="matrix(.79346 0 0 .72914 -141.2 -232.6)"/><use xlink:href="#S" transform="matrix(.79346 0 0 .72914 -141.2 -232.6)"/><use xlink:href="#T" transform="matrix(.79346 0 0 .72914 -141.2 -232.6)"/><use xlink:href="#U" transform="matrix(.79346 0 0 .72914 -141.2 -232.6)"/><use xlink:href="#V" transform="matrix(.79346 0 0 .72914 -141.2 -232.6)"/><use xlink:href="#W" transform="matrix(.79346 0 0 .72914 -141.2 -232.6)"/><use xlink:href="#X" transform="matrix(.79346 0 0 .72914 -141.2 -232.6)"/><use xlink:href="#Y" transform="matrix(.79346 0 0 .72914 -141.2 -232.6)"/><use xlink:href="#Z" transform="matrix(.79346 0 0 .72914 -141.2 -232.6)"/><use xlink:href="#aa" transform="matrix(.79346 0 0 .72914 -141.2 -232.6)"/><use xlink:href="#ab" transform="matrix(.79346 0 0 .72914 -141.2 -232.6)"/><use xlink:href="#ac" transform="matrix(.79346 0 0 .72914 -141.2 -232.6)"/><use xlink:href="#ad" transform="matrix(.79346 0 0 .72914 -141.2 -232.6)"/><use xlink:href="#ae" transform="matrix(.79346 0 0 .72914 -141.2 -232.6)"/><use xlink:href="#af" transform="matrix(.79346 0 0 .72914 -141.2 -232.6)"/><use xlink:href="#ag" transform="matrix(.79346 0 0 .72914 -141.2 -232.6)"/><use xlink:href="#ah" transform="matrix(.79346 0 0 .72914 -141.2 -232.6)"/><use xlink:href="#ai" transform="matrix(.79346 0 0 .72914 -141.2 -232.6)"/><use xlink:href="#aj" transform="matrix(.79346 0 0 .72914 -141.2 -232.6)"/><use xlink:href="#ak" transform="matrix(.79346 0 0 .72914 -141.2 -232.6)"/><use xlink:href="#al" transform="matrix(.79346 0 0 .72914 -141.2 -232.6)"/><use xlink:href="#am" transform="matrix(.79346 0 0 .72914 -141.2 -232.6)"/><use xlink:href="#an" transform="matrix(.79346 0 0 .72914 -141.2 -232.6)"/><use xlink:href="#ao" transform="matrix(.79346 0 0 .72914 -141.2 -232.6)"/><use xlink:href="#ap" transform="matrix(.79346 0 0 .72914 -141.2 -232.6)"/><use xlink:href="#aq" transform="matrix(.79346 0 0 .72914 -141.2 -232.6)"/><use xlink:href="#ar" transform="matrix(.79346 0 0 .72914 -141.2 -232.6)"/><use xlink:href="#as" transform="matrix(.79346 0 0 .72914 -141.2 -232.6)"/><use xlink:href="#at" transform="matrix(.79346 0 0 .72914 -141.2 -232.6)"/><use xlink:href="#au" transform="matrix(.79346 0 0 .72914 -141.2 -232.6)"/><use xlink:href="#av" transform="matrix(.79346 0 0 .72914 -141.2 -232.6)"/><use xlink:href="#aw" transform="matrix(.79346 0 0 .72914 -141.2 -232.6)"/><use xlink:href="#ax" transform="matrix(.79346 0 0 .72914 -141.2 -232.6)"/><use xlink:href="#ay" transform="matrix(.79346 0 0 .72914 -141.2 -232.6)"/><use xlink:href="#az" transform="matrix(.79346 0 0 .72914 -141.2 -232.6)"/><use xlink:href="#aA" transform="matrix(.79346 0 0 .72914 -141.2 -232.6)"/><use xlink:href="#aB" transform="matrix(.79346 0 0 .72914 -141.2 -232.6)"/><use xlink:href="#aC" transform="matrix(.79346 0 0 .72914 -141.2 -232.6)"/><use xlink:href="#aD" transform="matrix(.79346 0 0 .72914 -141.2 -232.6)"/><use xlink:href="#aE" transform="matrix(.79346 0 0 .72914 -141.2 -232.6)"/><use xlink:href="#aF" transform="matrix(.79346 0 0 .72914 -141.2 -232.6)"/><use xlink:href="#aG" transform="matrix(.79346 0 0 .72914 -141.2 -232.6)"/><use xlink:href="#aH" transform="matrix(.79346 0 0 .72914 -141.2 -232.6)"/><use xlink:href="#aI" transform="matrix(.79346 0 0 .72914 -141.2 -232.6)"/><use xlink:href="#aJ" transform="matrix(.79346 0 0 .72914 -141.2 -232.6)"/><use xlink:href="#aK" transform="matrix(.79346 0 0 .72914 -141.2 -232.6)"/><use xlink:href="#aL" transform="matrix(.79346 0 0 .72914 -141.2 -232.6)"/><use xlink:href="#aM" transform="matrix(.79346 0 0 .72914 -141.2 -232.6)"/><use xlink:href="#aN" transform="matrix(.79346 0 0 .72914 -141.2 -232.6)"/><use xlink:href="#aO" transform="matrix(.79346 0 0 .72914 -141.2 -232.6)"/><use xlink:href="#aP" transform="matrix(.79346 0 0 .72914 -141.2 -232.6)"/><use xlink:href="#aQ" transform="matrix(.79346 0 0 .72914 -141.2 -232.6)"/></svg>