<svg xmlns="http://www.w3.org/2000/svg" xmlns:xlink="http://www.w3.org/1999/xlink" preserveAspectRatio="none" width="200" height="105"><defs><path fill="#FFF" d="M434.5 417.55V369.5H146.45v48.05H434.5z" id="a"/><path fill="#373535" d="M434.5 369.5v-48H146.45v48H434.5z" id="b"/><path fill="#008752" d="M146.45 417.55v48H434.5v-48H146.45z" id="c"/><path fill="#EE333E" d="M284.95 393.5l-138.5-72v144.05l138.5-72.05z" id="d"/><path fill="#FFF" d="M201.3 388.45l-2.55-5.05-2.5 5.05-5.55-1.15 2.4 5.1-4.4 3.6 5.55 1.3.05 5.7 4.5-3.5 4.45 3.5.1-5.65 5.5-1.35-4.4-3.6 2.35-5.1-5.5 1.15z" id="e"/></defs><use xlink:href="#a" transform="matrix(.6943 0 0 .72888 -101.7 -234.35)"/><use xlink:href="#b" transform="matrix(.6943 0 0 .72888 -101.7 -234.35)"/><use xlink:href="#c" transform="matrix(.6943 0 0 .72888 -101.7 -234.35)"/><use xlink:href="#d" transform="matrix(.6943 0 0 .72888 -101.7 -234.35)"/><use xlink:href="#e" transform="matrix(.6943 0 0 .72888 -101.7 -234.35)"/></svg>