<svg xmlns="http://www.w3.org/2000/svg" xmlns:xlink="http://www.w3.org/1999/xlink" preserveAspectRatio="none" width="200" height="105"><defs><path fill="#D96144" d="M398.5 415.15v-43.2h-216v43.2h216z" id="a"/><path fill="#373535" d="M398.5 364.75V321.5h-216v43.25h216z" id="b"/><path fill="#00755C" d="M182.5 422.35v43.15h216v-43.15h-216z" id="c"/><path fill="#FFF" d="M398.5 371.95v-7.2h-216v7.2h216z" id="d"/><path fill="#FFF" d="M182.5 415.15v7.2h216v-7.2h-216z" id="e"/><path fill="#FFF" d="M322.55 339.1q-.25-.15-2.95 2.75-1.7 1.85-6.9 7.55-4 4.35-5.25 7.1-1.5 3.25.4 5.05l-46.3 77.85q-.25.45.75 1.1 1.05.6 1.3.15l46.35-77.9q2.45.7 4.55-2.15 1.8-2.45 3.65-7.95 2.55-7.25 3.35-9.65 1.3-3.75 1.05-3.9z" id="f"/><path fill="#FFF" d="M261.35 341.85q-2.65-2.9-2.95-2.75-.25.15 1.05 3.9.8 2.4 3.35 9.65 1.85 5.5 3.65 7.95 2.1 2.85 4.55 2.15l46.35 77.9q.25.45 1.25-.15 1.05-.65.8-1.1l-46.3-77.85q1.9-1.8.4-5.05-1.25-2.8-5.3-7.1-5.15-5.7-6.85-7.55z" id="h"/><g id="j"><path fill="#373535" d="M290.45 345.65l-.1.05q-23.524 17.687-23.55 47.8.026 30.163 23.55 47.85l.1.05.05-.05q23.574-17.637 23.55-47.85.024-30.163-23.55-47.8l-.05-.05m0 .3q23.376 17.56 23.35 47.55.026 30.039-23.35 47.6-23.376-17.61-23.4-47.6.024-29.94 23.4-47.55z"/><path fill="#D96144" d="M313.8 393.5q.026-29.99-23.35-47.55-23.376 17.61-23.4 47.55.024 29.99 23.4 47.6 23.376-17.561 23.35-47.6z"/></g><path fill="#373535" d="M272.15 368.3l-.1-.3-.15.3q-5.08 11.373-5.1 25.3.02 13.978 5.1 25.25l.15.25.1-.25q5.08-11.323 5.05-25.25.03-13.877-5.05-25.3z" id="k"/><path fill="#373535" d="M309.05 368.3l-.1-.3-.15.3q-5.03 11.222-5.05 25.3.02 14.078 5.05 25.25l.15.25.1-.25q5.08-11.172 5.05-25.25.03-14.078-5.05-25.3z" id="l"/><path fill="#FFF" d="M287.95 389.25q-1 1.75-1 4.25t1 4.3q1.05 1.75 2.5 1.75t2.5-1.75q1.05-1.8 1.05-4.3 0-2.45-1.05-4.25-1.05-1.75-2.5-1.75t-2.5 1.75z" id="m"/><path fill="#FFF" d="M289 383.65v-35.9q-4.75 7-4.75 17.95t4.75 17.95z" id="n"/><path fill="#FFF" d="M291.95 347.75v35.9q4.75-7 4.75-17.95t-4.75-17.95z" id="o"/><path fill="#FFF" d="M289 439.3v-35.9q-4.75 7-4.75 17.95T289 439.3z" id="p"/><path fill="#FFF" d="M291.95 403.4v35.9q4.75-7 4.75-17.95t-4.75-17.95z" id="q"/><path id="g" stroke="#373535" stroke-width=".1" stroke-linejoin="miter" stroke-linecap="butt" stroke-miterlimit="4" fill="none" d="M126.959 14.817q-1.574 1.35-6.389 5.506-3.703 3.172-4.86 5.177-1.39 2.37.37 3.682L73.212 85.948q-.231.328.694.802.973.438 1.204.11l42.914-56.803q2.269.51 4.213-1.568 1.667-1.786 3.38-5.797 2.36-5.286 3.101-7.036 1.204-2.734.972-2.844-.231-.11-2.731 2.005z"/><path id="i" stroke="#373535" stroke-width=".1" stroke-linejoin="miter" stroke-linecap="butt" stroke-miterlimit="4" fill="none" d="M73.027 14.817q1.574 1.35 6.342 5.506 3.75 3.135 4.907 5.177 1.389 2.37-.37 3.682l42.868 56.766q.231.328-.74.802-.927.438-1.158.11L81.962 30.057q-2.269.51-4.213-1.568-1.667-1.786-3.38-5.797-2.36-5.286-3.101-7.036-1.204-2.734-.972-2.844.277-.11 2.73 2.005z"/></defs><use xlink:href="#a" transform="matrix(.9259 0 0 .72917 -168.95 -234.45)"/><use xlink:href="#b" transform="matrix(.9259 0 0 .72917 -168.95 -234.45)"/><use xlink:href="#c" transform="matrix(.9259 0 0 .72917 -168.95 -234.45)"/><use xlink:href="#d" transform="matrix(.92587 0 0 .72917 -168.95 -234.45)"/><use xlink:href="#e" transform="matrix(.92587 0 0 .72917 -168.95 -234.45)"/><g transform="matrix(.92587 0 0 .72917 -168.95 -234.45)"><use xlink:href="#f"/><use xlink:href="#g" transform="matrix(1.08005 0 0 1.37141 182.45 321.5)"/></g><g transform="matrix(.92587 0 0 .72917 -168.95 -234.45)"><use xlink:href="#h"/><use xlink:href="#i" transform="matrix(1.08005 0 0 1.37141 182.45 321.5)"/></g><use xlink:href="#j" transform="matrix(.9259 0 0 .72917 -168.95 -234.45)"/><use xlink:href="#k" transform="matrix(.9259 0 0 .72917 -168.95 -234.45)"/><use xlink:href="#l" transform="matrix(.9259 0 0 .72917 -168.95 -234.45)"/><use xlink:href="#m" transform="matrix(.92587 0 0 .72917 -168.95 -234.45)"/><use xlink:href="#n" transform="matrix(.92587 0 0 .72917 -168.95 -234.45)"/><use xlink:href="#o" transform="matrix(.92587 0 0 .72917 -168.95 -234.45)"/><use xlink:href="#p" transform="matrix(.92587 0 0 .72917 -168.95 -234.45)"/><use xlink:href="#q" transform="matrix(.92587 0 0 .72917 -168.95 -234.45)"/></svg>