<svg xmlns="http://www.w3.org/2000/svg" xmlns:xlink="http://www.w3.org/1999/xlink" preserveAspectRatio="none" width="200" height="105"><defs><path fill="#EE333E" d="M170.5 465.5h239.95V321.55H170.5V465.5z" id="a"/><g id="b"><path fill="#373535" d="M325.35 367.95l-.25.25q-2.47 2.334-7.15 3.9-4.317 1.48-6.05 2.9.794-1.946 4.85-5.45 4.34-3.652 4.15-6.35v-.35l-.2.25q-2.034 2.71-6.45 5.05-3.975 2.095-5.5 3.75.465-2.022 3.95-6.2 3.702-4.283 3.1-6.95l-.05-.35-.15.35q-1.646 2.974-5.65 5.95-3.582 2.747-4.8 4.6.139-2.073 2.95-6.7 2.95-4.852 1.95-7.35l-.1-.35-.15.35q-1.12 3.188-4.55 6.75-3.16 3.207-4.05 5.25-.153-2.08 1.8-7 2.196-5.27.85-7.6l-.15-.35-.1.35q-.62 3.352-3.45 7.4-2.62 3.68-3.2 5.85-.46-2.035.7-7.25 1.343-5.5-.35-7.6l-.2-.25-.05.35q-.07 3.378-2.3 7.85-2.003 4.038-2.2 6.25-.828-1.919-.45-7.3.426-5.629-1.6-7.45l-.25-.25.05.35q.468 3.404-1 8.15-1.288 4.33-1.2 6.55-1.085-1.787-1.6-7.15-.429-5.633-2.7-7.1l-.3-.2.1.3q.969 3.255.25 8.15-.615 4.488-.15 6.65-1.342-1.536-2.65-6.75-1.347-5.51-3.8-6.65l-.3-.15.1.35q1.47 3.081 1.55 8.05.076 4.553.9 6.6-1.573-1.262-3.7-6.3-2.165-5.225-4.8-5.95l-.3-.1.2.3q1.883 2.807 2.7 7.7.797 4.418 1.95 6.35-1.812-1.065-4.65-5.65-2.933-4.79-5.65-5.1l-.35-.05.25.25q2.285 2.52 3.9 7.2 1.481 4.272 2.9 6-1.945-.788-5.45-4.85-3.652-4.29-6.35-4.15h-.35l.25.25q2.71 2.034 5 6.45 2.075 3.984 3.75 5.45-2.014-.499-6.15-3.95-4.283-3.651-6.95-3.1l-.35.05.35.2q2.974 1.646 5.95 5.6 2.7 3.631 4.6 4.8-2.083-.096-6.7-2.9-4.852-2.95-7.35-2l-.35.15.35.1q3.188 1.17 6.75 4.65 3.22 3.113 5.25 4-2.08.154-7-1.85-5.27-2.146-7.6-.8l-.35.15.35.05q3.352.67 7.4 3.55 3.675 2.57 5.8 3.1-2.023.51-7.2-.7-5.5-1.293-7.6.4l-.25.2h.35q3.378.12 7.85 2.3 4.038 2.003 6.25 2.25-1.918.784-7.3.4-5.629-.376-7.45 1.6l-.25.25.35-.05q3.404-.418 8.1 1 4.339 1.34 6.55 1.2-1.74 1.129-7.1 1.55-5.633.53-7.1 2.75l-.25.3.35-.1q3.256-.968 8.15-.25 4.522.663 6.65.2-1.54 1.343-6.75 2.6-5.51 1.397-6.65 3.85l-.15.3.35-.15q3.081-1.42 8.05-1.5 4.552-.072 6.6-.95-1.263 1.623-6.3 3.7-5.225 2.215-5.95 4.8l-.1.35.3-.2q2.808-1.933 7.7-2.75 4.418-.747 6.35-1.9-1.065 1.812-5.65 4.65-4.79 2.933-5.1 5.6l-.05.35.25-.2q2.52-2.285 7.2-3.95 4.272-1.43 6-2.85-.788 1.945-4.85 5.45-4.29 3.652-4.15 6.35v.35l.25-.3q2.034-2.66 6.45-4.95 3.959-2.086 5.45-3.8-.477 2.082-3.95 6.15-3.651 4.333-3.1 6.95l.05.35.2-.3q1.646-2.974 5.6-5.95 3.632-2.747 4.8-4.65-.09 2.123-2.9 6.7-2.95 4.902-2 7.4l.15.3.1-.3q1.17-3.188 4.65-6.8 3.112-3.169 4-5.2.147 2.08-1.9 7-2.096 5.27-.75 7.6l.15.3.05-.35q.67-3.302 3.55-7.4 2.57-3.625 3.1-5.8.51 2.073-.7 7.2-1.293 5.55.4 7.6l.2.3v-.35q.12-3.378 2.3-7.85 2.003-4.04 2.25-6.3.784 1.966.4 7.35-.426 5.629 1.55 7.45l.25.25-.05-.4q-.368-3.304 1.05-8.1v.05q1.382-4.312 1.2-6.6 1.131 1.812 1.55 7.15.478 5.633 2.75 7.1l.3.2-.1-.35q-.968-3.206-.25-8.15.663-4.472.2-6.65 1.343 1.59 2.6 6.75 1.397 5.56 3.85 6.65l.3.15-.15-.3q-1.47-3.082-1.55-8.05-.072-4.551-.9-6.6 1.632 1.355 3.7 6.3 2.215 5.225 4.8 5.9l.35.1-.2-.3q-1.933-2.757-2.8-7.7-.744-4.397-1.85-6.3 1.769 1.076 4.6 5.6 2.983 4.839 5.65 5.1l.35.05-.2-.25q-2.334-2.47-3.95-7.15-1.414-4.235-2.85-6 1.933.832 5.4 4.8 3.702 4.34 6.4 4.15h.35l-.3-.2q-2.66-2.034-4.95-6.45-2.132-3.958-3.85-5.45 2.082.477 6.15 3.95 4.383 3.65 7 3.05l.35-.05-.3-.15q-2.974-1.646-5.95-5.65-2.747-3.582-4.65-4.8 2.123.139 6.7 2.95 4.902 2.95 7.4 1.95l.3-.1-.3-.15q-3.188-1.12-6.8-4.55h.05q-3.206-3.158-5.25-4.05 2.114-.158 7 1.8 5.27 2.196 7.6.85l.3-.15-.35-.1q-3.302-.62-7.4-3.45-3.63-2.62-5.8-3.2 2.035-.46 7.2.7 5.55 1.343 7.6-.35l.3-.2-.35-.05q-3.378-.07-7.85-2.25-4.044-2.005-6.3-2.25 1.922-.778 7.3-.4 5.679.426 7.5-1.6l.25-.2h-.4q-3.304.418-8.1-1.05-4.288-1.29-6.55-1.2 1.787-1.08 7.15-1.55 5.632-.48 7.1-2.75l.2-.3-.35.1q-3.255 1.018-8.15.25-4.472-.613-6.65-.15 1.591-1.343 6.75-2.65 5.56-1.347 6.65-3.8l-.1-.05-.05-.15q-3.081 1.47-8.05 1.55-4.508.076-6.6.9 1.367-1.588 6.3-3.7 5.225-2.165 5.9-4.8l.1-.3-.3.2q-2.758 1.932-7.7 2.7-4.368.797-6.35 1.95 1.115-1.812 5.65-4.65 4.839-2.933 5.1-5.65l.05-.35M332.5 387q-1.574 1.915-6.65 2.35-6.111.527-7.7 1.9l-.35.25.45-.05q2.259-.266 6.95 1.15 4.59 1.402 7.85 1.1-1.89 1.648-7.05 1.25-6.11-.426-7.85.65l-.35.2h.45q2.233.073 6.65 2.25 4.286 2.101 7.55 2.3-2.07 1.318-7.1.1-5.932-1.342-7.8-.55l-.4.2.4.05q2.206.375 6.2 3.25 3.943 2.725 7.15 3.45-2.264.96-7.05-1.05-5.604-2.245-7.65-1.75l-.4.1.4.15q2.08.726 5.6 4.2 3.437 3.277 6.5 4.5-2.393.594-6.8-2.05-5.176-3.185-7.25-3l-.45.05.4.2q.024.013.05 0 1.915 1.1 4.85 4.95 2.87 3.84 5.75 5.5-2.504.273-6.5-3.05-4.622-3.936-6.7-4.1l-.45-.05.35.3q1.813 1.338 4.15 5.65 2.187 4.245 4.7 6.3-2.45-.128-5.8-4.05-3.993-4.575-6.05-5.05l-.4-.1.3.35q1.585 1.588 3.15 6.25 1.55 4.475 3.75 6.95-2.438-.568-5.15-4.95-3.227-5.176-5.1-5.95l-.4-.15.25.35q1.234 1.813 2.05 6.65.836 4.734 2.6 7.5-2.258-.921-4.25-5.65-2.348-5.6-4.15-6.65l-.35-.25.2.4q.012.025 0 .05.933 1.951 1 6.85.079 4.763 1.45 7.8-2.135-1.267-3.4-6.3-1.444-5.887-3.05-7.2l-.3-.3.1.4q.667 2.11-.05 7-.693 4.746.15 7.9-1.91-1.567-2.35-6.65-.477-6.111-1.85-7.7l-.3-.35.05.45q.365 2.247-1.15 6.95-1.352 4.59-1.1 7.85-1.594-1.888-1.2-7 .425-6.108-.65-7.9l-.2-.35-.05.45q-.023 2.233-2.2 6.65-2.101 4.286-2.3 7.55-1.318-2.07-.15-7.1 1.391-5.881.55-7.8l-.15-.45-.1.45q-.325 2.206-3.15 6.2-2.773 3.944-3.5 7.15-.965-2.264.95-7.05 2.345-5.654 1.8-7.65l-.1-.4-.15.4q-.675 2.092-4.1 5.6-3.325 3.437-4.55 6.5-.595-2.393 2.05-6.8 3.185-5.176 2.95-7.25v-.45l-.2.4q-.013.024-.05.05-1.05 1.915-4.95 4.85-3.791 2.87-5.5 5.75-.222-2.5 3.1-6.45 3.936-4.622 4.05-6.7l.05-.45-.25.35q-1.338 1.813-5.65 4.1-4.245 2.187-6.35 4.7.179-2.446 4.05-5.75 4.625-3.993 5.05-6.05l.1-.4-.3.3q-1.576 1.536-6.25 3.1-4.476 1.599-6.95 3.75.563-2.431 4.9-5.1 5.226-3.227 5.95-5.15l.2-.4-.4.25q-1.812 1.284-6.65 2.1-4.684.788-7.45 2.6.921-2.308 5.65-4.3 5.652-2.36 6.65-4.15l.2-.35-.35.2q-1.987.982-6.9 1.05-4.751.067-7.8 1.35 1.296-2.093 6.25-3.35 5.937-1.444 7.25-3.05l.3-.3-.45.1q-2.061.667-7-.05-4.691-.692-7.9.15 1.627-1.865 6.7-2.35 6.112-.477 7.6-1.85l.35-.3-.45.05q-2.16.316-6.9-1.15-4.491-1.352-7.8-1.05 1.896-1.598 7-1.25 6.11.426 7.8-.65l.4-.2-.45-.05q-2.183-.023-6.6-2.2-4.286-2.101-7.6-2.3 2.12-1.318 7.1-.15 5.931 1.391 7.85.55l.4-.15-.45-.1q-2.156-.325-6.2-3.15-3.893-2.773-7.15-3.5 2.314-.96 7.1 1 5.654 2.295 7.6 1.75l.45-.1-.4-.15q-2.092-.675-5.65-4.1-3.387-3.325-6.45-4.55 2.393-.595 6.75 2.05 5.226 3.185 7.3 2.95h.4l-.35-.2q-.024-.013-.05-.05-1.963-1.049-4.85-4.95-2.87-3.791-5.75-5.5 2.5-.222 6.4 3.1 4.722 3.936 6.75 4.05l.4.05-.35-.25q-1.762-1.29-4.05-5.65-2.187-4.245-4.75-6.35 2.496.179 5.8 4.05 3.993 4.625 6 5.05l.4.1-.25-.3q-1.536-1.576-3.15-6.25-1.549-4.476-3.75-6.95 2.481.563 5.15 4.9 3.227 5.226 5.15 5.95l.4.2-.25-.4q-1.284-1.812-2.15-6.65-.787-4.686-2.55-7.45 2.305.914 4.25 5.65 2.41 5.652 4.2 6.65l.35.2-.2-.35q-.981-1.987-1.05-6.9-.064-4.751-1.4-7.8 2.143 1.297 3.35 6.25 1.494 5.937 3.05 7.25l.3.25-.1-.4q-.618-2.11.05-7 .694-4.694-.15-7.9 1.91 1.62 2.3 6.7.578 6.11 1.95 7.65l.25.35-.05-.45q-.266-2.16 1.15-6.9 1.402-4.539 1.05-7.85 1.648 1.896 1.25 7-.426 6.11.7 7.85l.2.4v-.45q.024-2.233 2.2-6.65 2.149-4.286 2.35-7.6 1.318 2.12.1 7.1-1.342 5.982-.55 7.85l.2.4.05-.45q.375-2.156 3.25-6.2 2.725-3.893 3.45-7.15.96 2.314-1.05 7.1-2.245 5.654-1.75 7.6l.1.45.15-.4q.726-2.08 4.2-5.6v-.05q3.277-3.387 4.5-6.45.594 2.394-2.05 6.75-3.185 5.226-3 7.3l.05.4.2-.35q.013-.024 0-.05 1.1-1.915 4.95-4.85 3.84-2.87 5.5-5.75.269 2.5-3.1 6.4-3.937 4.722-4.05 6.8l-.05.4.3-.35q1.338-1.762 5.65-4.05 4.245-2.235 6.3-4.8-.129 2.496-4.05 5.8-4.626 3.993-5.1 6l-.1.4.3-.25q1.626-1.536 6.35-3.15 4.475-1.5 6.95-3.7-.569 2.435-4.95 5.1-5.176 3.227-5.95 5.15l-.15.4.35-.25q1.862-1.284 6.65-2.15 4.734-.738 7.5-2.55-.921 2.308-5.65 4.25-5.6 2.398-6.65 4.15l-.25.4.4-.2q.025-.012.05-.05 1.999-.932 6.85-1 4.75-.064 7.8-1.4-1.297 2.143-6.3 3.35-5.887 1.494-7.2 3.05l-.3.3.4-.1q2.11-.617 7 .05 4.698.743 7.9-.15z"/><path fill="#FFE132" d="M325.85 389.35q5.076-.435 6.65-2.35-3.202.893-7.9.15-4.89-.667-7-.05l-.4.1.3-.3q1.313-1.556 7.2-3.05 5.003-1.207 6.3-3.35-3.05 1.336-7.8 1.4-4.851.068-6.85 1-.025.038-.05.05l-.4.2.25-.4q1.05-1.752 6.65-4.15 4.729-1.942 5.65-4.25-2.766 1.812-7.5 2.55-4.788.866-6.65 2.15l-.35.25.15-.4q.774-1.923 5.95-5.15 4.381-2.665 4.95-5.1-2.475 2.2-6.95 3.7-4.724 1.614-6.35 3.15l-.3.25.1-.4q.474-2.007 5.1-6 3.921-3.304 4.05-5.8-2.055 2.565-6.3 4.8-4.312 2.287-5.65 4.05l-.3.35.05-.4q.113-2.078 4.05-6.8 3.369-3.9 3.1-6.4-1.66 2.88-5.5 5.75-3.85 2.935-4.95 4.85.013.026 0 .05l-.2.35-.05-.4q-.185-2.074 3-7.3 2.644-4.356 2.05-6.75-1.223 3.063-4.5 6.45v.05q-3.474 3.52-4.2 5.6l-.15.4-.1-.45q-.495-1.946 1.75-7.6 2.01-4.786 1.05-7.1-.725 3.257-3.45 7.15-2.875 4.044-3.25 6.2l-.05.45-.2-.4q-.792-1.868.55-7.85 1.218-4.98-.1-7.1-.201 3.314-2.35 7.6-2.176 4.417-2.2 6.65v.45l-.2-.4q-1.126-1.74-.7-7.85.398-5.104-1.25-7 .352 3.311-1.05 7.85-1.416 4.74-1.15 6.9l.05.45-.25-.35q-1.372-1.54-1.95-7.65-.39-5.08-2.3-6.7.844 3.206.15 7.9-.668 4.89-.05 7l.1.4-.3-.25q-1.556-1.313-3.05-7.25-1.207-4.953-3.35-6.25 1.336 3.049 1.4 7.8.069 4.913 1.05 6.9l.2.35-.35-.2q-1.79-.998-4.2-6.65-1.945-4.736-4.25-5.65 1.763 2.764 2.55 7.45.866 4.838 2.15 6.65l.25.4-.4-.2q-1.923-.724-5.15-5.95-2.669-4.337-5.15-4.9 2.201 2.474 3.75 6.95 1.614 4.674 3.15 6.25l.25.3-.4-.1q-2.007-.425-6-5.05-3.304-3.871-5.8-4.05 2.563 2.105 4.75 6.35 2.288 4.36 4.05 5.65l.35.25-.4-.05q-2.028-.114-6.75-4.05-3.9-3.322-6.4-3.1 2.88 1.709 5.75 5.5 2.887 3.901 4.85 4.95.026.037.05.05l.35.2h-.4q-2.074.235-7.3-2.95-4.357-2.645-6.75-2.05 3.063 1.225 6.45 4.55 3.558 3.425 5.65 4.1l.4.15-.45.1q-1.946.545-7.6-1.75-4.786-1.96-7.1-1 3.257.727 7.15 3.5 4.044 2.825 6.2 3.15l.45.1-.4.15q-1.919.841-7.85-.55-4.98-1.168-7.1.15 3.314.199 7.6 2.3 4.417 2.177 6.6 2.2l.45.05-.4.2q-1.69 1.076-7.8.65-5.104-.348-7 1.25 3.309-.302 7.8 1.05 4.74 1.466 6.9 1.15l.45-.05-.35.3q-1.488 1.373-7.6 1.85-5.073.485-6.7 2.35 3.209-.842 7.9-.15 4.939.717 7 .05l.45-.1-.3.3q-1.313 1.606-7.25 3.05-4.954 1.257-6.25 3.35 3.049-1.283 7.8-1.35 4.913-.068 6.9-1.05l.35-.2-.2.35q-.998 1.79-6.65 4.15-4.729 1.992-5.65 4.3 2.766-1.812 7.45-2.6 4.838-.816 6.65-2.1l.4-.25-.2.4q-.724 1.923-5.95 5.15-4.337 2.669-4.9 5.1 2.474-2.151 6.95-3.75 4.674-1.564 6.25-3.1l.3-.3-.1.4q-.425 2.057-5.05 6.05-3.871 3.304-4.05 5.75 2.105-2.513 6.35-4.7 4.312-2.288 5.65-4.1l.25-.35-.05.45q-.114 2.078-4.05 6.7-3.322 3.95-3.1 6.45 1.709-2.88 5.5-5.75 3.9-2.935 4.95-4.85.037-.026.05-.05l.2-.4v.45q.235 2.074-2.95 7.25-2.645 4.407-2.05 6.8 1.225-3.063 4.55-6.5 3.425-3.508 4.1-5.6l.15-.4.1.4q.545 1.996-1.8 7.65-1.915 4.786-.95 7.05.727-3.206 3.5-7.15 2.825-3.994 3.15-6.2l.1-.45.15.45q.841 1.919-.55 7.8-1.168 5.03.15 7.1.199-3.264 2.3-7.55 2.177-4.417 2.2-6.65l.05-.45.2.35q1.075 1.792.65 7.9-.394 5.112 1.2 7-.252-3.26 1.1-7.85 1.515-4.703 1.15-6.95l-.05-.45.3.35q1.373 1.589 1.85 7.7.44 5.083 2.35 6.65-.843-3.154-.15-7.9.717-4.89.05-7l-.1-.4.3.3q1.606 1.313 3.05 7.2 1.265 5.033 3.4 6.3-1.371-3.037-1.45-7.8-.067-4.899-1-6.85.012-.025 0-.05l-.2-.4.35.25q1.802 1.05 4.15 6.65 1.992 4.729 4.25 5.65-1.764-2.766-2.6-7.5-.816-4.837-2.05-6.65l-.25-.35.4.15q1.873.774 5.1 5.95 2.712 4.382 5.15 4.95-2.2-2.475-3.75-6.95-1.565-4.662-3.15-6.25l-.3-.35.4.1q2.057.475 6.05 5.05 3.35 3.922 5.8 4.05-2.513-2.055-4.7-6.3-2.337-4.312-4.15-5.65l-.35-.3.45.05q2.078.164 6.7 4.1 3.996 3.323 6.5 3.05-2.88-1.66-5.75-5.5-2.935-3.85-4.85-4.95-.026.013-.05 0l-.4-.2.45-.05q2.074-.185 7.25 3 4.407 2.644 6.8 2.05-3.063-1.223-6.5-4.5-3.52-3.474-5.6-4.2l-.4-.15.4-.1q2.046-.495 7.65 1.75 4.786 2.01 7.05 1.05-3.207-.725-7.15-3.45-3.994-2.875-6.2-3.25l-.4-.05.4-.2q1.868-.792 7.8.55 5.03 1.218 7.1-.1-3.264-.199-7.55-2.3-4.417-2.177-6.65-2.25h-.45l.35-.2q1.74-1.076 7.85-.65 5.16.398 7.05-1.25-3.26.302-7.85-1.1-4.691-1.416-6.95-1.15l-.45.05.35-.25q1.589-1.373 7.7-1.9z"/></g><path fill="#EE333E" d="M274.45 377.5q-6.65 6.6-6.65 16t6.65 16.05q6.65 6.65 16.05 6.65t16-6.65q6.65-6.65 6.65-16.05 0-9.35-6.65-16-6.6-6.65-16-6.65t-16.05 6.65z" id="c"/><path fill="#FFE132" d="M282.35 375.5q-3.7 1.65-6.5 4.7 8.3.8 14.6 3.95 6.4-3.15 14.6-3.95-2.75-3-6.45-4.7-3.9-1.75-8.15-1.75t-8.1 1.75z" id="d"/><path fill="#FFE132" d="M275.05 381.15l-.75 1q7.45.5 13.35 3.6.5-.35 1.35-.8-6-3.05-13.95-3.8z" id="e"/><path fill="#FFE132" d="M305.9 381.15q-7.95.75-13.95 3.8l1.35.8q5.9-3.1 13.35-3.6l-.75-1z" id="f"/><path fill="#FFE132" d="M273.65 383.15l-.6 1.05q6.95.15 12.3 3.1l1.1-.8q-5.5-3-12.8-3.35z" id="g"/><path fill="#FFE132" d="M272.5 385.25q-1.8 4-1.8 8.25 0 5.35 2.7 9.95 4.3-9.95 11-15.4-5-2.8-11.9-2.8z" id="h"/><path fill="#FFE132" d="M289.55 392.2l-1-1.1q-7 7.45-7.75 19.65 1.1.7 2.55 1.25-.2-5.65 1.3-10.65 1.6-5.3 4.9-9.15z" id="i"/><path fill="#FFE132" d="M307.3 383.15q-7.3.35-12.8 3.35l1.1.8q5.35-2.95 12.3-3.1l-.6-1.05z" id="j"/><path fill="#FFE132" d="M308.45 385.25q-6.9 0-11.9 2.8 6.7 5.45 11 15.4 2.7-4.6 2.7-9.95 0-4.25-1.8-8.25z" id="k"/><path fill="#FFE132" d="M286.25 402.35q-1.2 4.95-.6 10.35 2.35.6 4.8.6 2.55 0 4.85-.6.6-5.4-.6-10.35-1.25-5.2-4.25-9.05-2.95 3.85-4.2 9.05z" id="l"/><path fill="#FFE132" d="M292.4 391.1l-1 1.1q3.3 3.85 4.9 9.15 1.5 5 1.3 10.65 1.45-.55 2.55-1.25-.75-12.2-7.75-19.65z" id="m"/><path fill="#FFE132" d="M287.35 390.05l-1.35-1q-7.15 6.3-10.4 17.5 1.3 1.45 2.5 2.4 2.1-12 9.25-18.9z" id="n"/><path fill="#FFE132" d="M294.95 389.05l-1.35 1q7.15 6.9 9.25 18.9 1.2-.95 2.5-2.4-3.25-11.2-10.4-17.5z" id="o"/><path fill="#FFE132" d="M290.45 385.8l-1.3.8 1.3.9 1.35-.9-1.35-.8z" id="p"/><path fill="#FFE132" d="M289.3 388.35l-1.35-.9q-.3.25-1 .8l1.3.95 1.05-.85z" id="q"/><path fill="#FFE132" d="M293 387.45l-1.35.9 1.05.85 1.3-.95-1-.8z" id="r"/><path fill="#FFE132" d="M290.45 389.3l-1 .9 1 1 1.05-1-1.05-.9z" id="s"/></defs><use xlink:href="#a" transform="matrix(.83347 0 0 .72935 -142.1 -234.5)"/><use xlink:href="#b" transform="matrix(.83344 0 0 .72932 -142.1 -234.5)"/><use xlink:href="#c" transform="matrix(.83347 0 0 .72935 -142.1 -234.5)"/><use xlink:href="#d" transform="matrix(.8334 0 0 .7293 -142.1 -234.5)"/><use xlink:href="#e" transform="matrix(.8334 0 0 .7293 -142.1 -234.5)"/><use xlink:href="#f" transform="matrix(.8334 0 0 .7293 -142.1 -234.5)"/><use xlink:href="#g" transform="matrix(.8334 0 0 .7293 -142.1 -234.5)"/><use xlink:href="#h" transform="matrix(.8334 0 0 .7293 -142.1 -234.5)"/><use xlink:href="#i" transform="matrix(.8334 0 0 .7293 -142.1 -234.5)"/><use xlink:href="#j" transform="matrix(.8334 0 0 .7293 -142.1 -234.5)"/><use xlink:href="#k" transform="matrix(.8334 0 0 .7293 -142.1 -234.5)"/><use xlink:href="#l" transform="matrix(.8334 0 0 .7293 -142.1 -234.5)"/><use xlink:href="#m" transform="matrix(.8334 0 0 .7293 -142.1 -234.5)"/><use xlink:href="#n" transform="matrix(.8334 0 0 .7293 -142.1 -234.5)"/><use xlink:href="#o" transform="matrix(.8334 0 0 .7293 -142.1 -234.5)"/><use xlink:href="#p" transform="matrix(.8334 0 0 .7293 -142.1 -234.5)"/><use xlink:href="#q" transform="matrix(.8334 0 0 .7293 -142.1 -234.5)"/><use xlink:href="#r" transform="matrix(.8334 0 0 .7293 -142.1 -234.5)"/><use xlink:href="#s" transform="matrix(.8334 0 0 .7293 -142.1 -234.5)"/></svg>