<svg xmlns="http://www.w3.org/2000/svg" xmlns:xlink="http://www.w3.org/1999/xlink" preserveAspectRatio="none" width="200" height="105"><defs><path fill="#00629E" d="M195.5 463h216V319h-216v144z" id="a"/><path fill="#EE3156" d="M195.5 355v72h216v-72h-216z" id="b"/><g id="c"><path fill="#FFF" d="M357.45 420H338.2v4.15h19.25V420m-20.95-13.1h-3.45v17.25h3.45V406.9m-3.7 0h-1.2v17.25h1.2V406.9m5.15 0h-1.2v17.25h1.2V406.9m11.2 4.95v-2.8H338.2v2.8h10.95m5.1 7.9v-4.1H338.2v4.1h16.05m-2.65-4.35v-3.3h-13.4v3.3h13.4m-15.1-21.15h-3.45v12.4h3.45v-12.4m6.95-.5q-.35.45-.3 1.2v9.55q0 .7.45 1.4.5.7 1.35.75h.4q-.4-.3-.8-.7-.6-.8-.8-1.4v-7.45q0-2.5 1.85-3.4v-7.4q-.25.15-.75.4v-.05q-.6.3-.6 1v5.5q0 .05-.05.1t-.1.05q-.4 0-.65.45m-2.2-.45q-.65.15-1.1.55-.65.5-.6 1.25v9.4q0 2.1 1.95 2.15h2.55q-.4-.25-.65-.6-.55-.75-.5-1.55v-9.55q0-.85.35-1.35.1-.2.25-.3h-2.25m.2 4.4q.35 0 .35.3v6.5q0 .05-.05.1t-.1.05q-.05 0-.1-.05t0-.1V398q0-.05-.1-.05h-1q-.05 0-.05.05v6.5q0 .05-.05.1t-.1.05q-.05 0-.1-.05t0-.1V398q0-.3.3-.3h1m2.55-7.8q-.95.05-1.75 1.15-.8.95-.85 2h2.6v-3.15m-1.55-4.3v-.8h-1.05v.8h1.05m1.55-1.8h-.95v5.3q0 .05-.05.1-.05 0-.05.05-.2 0-.25.2-.05.05-.1.05l-.05.05q-.05-.05-.1-.05-.05-.05 0-.1v-3h-1.05v5.6q.2-.6.65-1.1.9-1.2 1.95-1.25v-5.85M332.8 394q.05-.05.1 0h3.7q.05-.05.1 0t.05.1v12.55h1.85q-.4-.25-.7-.75-.5-.75-.45-1.4v-8.05q0-1.4 1.2-2.45 0-.05.05 0 .05 0 .1.05.05 0 .05.05-.05.05-.05.1-1.15.95-1.1 2.25v8.05q0 .55.4 1.25.55.85 1.4.9h.8q-1-.55-1-2.15v-9.4q0-.85.7-1.45.2-.2.55-.35H329q.3.15.6.35.6.6.65 1.45v9.4q0 1.6-1.05 2.15h.9q.8-.05 1.3-.9.4-.7.45-1.25v-8.05q0-1.3-1.1-2.25-.05-.05-.05-.1-.05-.05 0-.05.05-.05.1-.05.05-.05.1 0 1.15 1.05 1.2 2.45v8.05q0 .65-.5 1.4-.3.5-.65.75h1.85V394.1q-.05-.05 0-.1m-7.5-.95v-2.2h-10.25v1h7.75q.05-.05.1 0t.05.1q0 .05-.05.1t-.1.05h-7.75v.95h10.25M306.4 420v4.15h24.95V420H306.4m0-7.9v3.3h24.95v-3.3H306.4m0 3.55v4.1h24.95v-4.1H306.4m0-6.6v2.8h24.95v-2.8H306.4m7.95-11.05q0-.05-.1-.05h-.65v6.55q0 .75.6 1.35v.05q.65.7 1.7.75h8.25q.8-.05 1.4-.75.45-.7.5-1.4v-6.55h-.8q-.05 0-.05.05v6.5q0 .05-.05.1t-.1.05q-.05 0-.1-.05t0-.1V398q0-.3.3-.3h.8v-1.2H313.6v1.2h.65q.35 0 .35.3v6.5q0 .05-.05.1t-.1.05q-.05 0-.1-.05t0-.1V398m8.9-.3q.35 0 .35.3v6.5q0 .05-.05.1t-.1.05q-.05 0-.1-.05t0-.1V398q0-.05-.1-.05h-1q-.05 0-.05.05v6.5q0 .05-.05.1t-.1.05q-.05 0-.1-.05t0-.1V398q0-.3.3-.3h1m-4.3.3q0-.3.3-.3h1q.35 0 .35.3v6.5q0 .05-.05.1t-.1.05q-.05 0-.1-.05t0-.1V398q0-.05-.1-.05h-1q-.05 0-.05.05v6.5q0 .05-.05.1t-.1.05q-.05 0-.1-.05t0-.1V398m-2.7-.3h1q.35 0 .35.3v6.5q0 .05-.05.1t-.1.05q-.05 0-.1-.05t0-.1V398q0-.05-.1-.05h-1q-.05 0-.05.05v6.5q0 .05-.05.1t-.1.05q-.05 0-.1-.05t0-.1V398q0-.3.3-.3m-6.85-4.25q-.15.25-.1.6v3.65h1.05q.35 0 .35.3v6.5q0 .05-.05.1t-.1.05q-.05 0-.1-.05t0-.1V398q0-.05-.1-.05h-1.05v6.55q0 .75.75 1.4.75.7 1.7.75h3.05q-.45-.25-.8-.6-.7-.7-.65-1.55v-9.05q0-.9.2-1.3l.05-.05q-.05-.05 0-.1h.05q.25-.35.65-.55h-4.9m4.1-2.55q-.4.5-.4 1.05-.05.05-.05.1-.05.05-.1.05h-1.75q-.65 0-1.25.5-.3.25-.45.6h5.3v-3q-.8.05-1.3.7m-6.1 1.2v1.1h1.8q.2-.45.6-.8.2-.2.45-.3h-2.85m-.85 2.5q.1-.3.35-.5h-1.5v12.55H307.5q-.3-.2-.55-.55-.6-.8-.55-1.6V396q-.05-1 .15-1.4m.7-.5q-.35.2-.45.6-.15.4-.15 1.3v8.5q0 .7.5 1.45.5.65 1.05.7h2.5q-.45-.2-.8-.55-.9-.75-.85-1.6v-10.45q0-.35.05-.6h-1.7v.55q-.05 0-.05.05-.05.05-.1.05m.4 3.85h-.3q-.05 0-.1-.05t0-.1 0-.1q.05-.05.1 0h.3q.35 0 .35.3v6.5q0 .05-.05.1t-.1.05q-.05 0-.1-.05t0-.1V398q0-.05-.1-.05m3.3-16.9q-.25 0-.3-.25-.2-.55-.7-.6V382.9q0 .25-.5.25h-.75v.55q0 .05-.05.1l-.05.05q-.9.3-1.25 1.8-.15.45-.2 1.45.35-.35.8-.4 0-.05.05 0 .05 0 .05.05l.05.05v1.8h.6q.35-1.5 2-2.05v-5.3q-.05-.05 0-.1t.1 0 .1 0q.05.05.05.1v7.45q0 .05-.05.1t-.1.05q-.5.25-1 .9-.6.7-.65 1.2-.05.05-.05.1-.05.05-.1.05-1.05 0-1.6.2v.55h5.45q.05-.6.45-1.1.1-.15.25-.25v-6.6h-.9v4.2q0 .05-.05.1t-.1.05q-.05 0-.1-.05t0-.1v-4.2h-.75q-.05 0-.1-.05t0-.1v-1.35q-.05-.05 0-.1t.1 0q.55 0 .75-.5-.15.1-.5.2-.25.05-.4.05-.25 0-.25-.15-.15-.25.25-.5l.85-.6q-.1-.1-.15-.2-.1-.15-.1-.2l-.65.45q-.3.2-.5.2m1.6-.65q-.15-.2-.2-.2-.05.05.05.3.05.1.1.15l.05-.05h.05l.05-.05q-.05-.05-.1-.15m2.25 2.25q-.2.15-.45.35-.55.35-.65.65h.05q.05.05.05.1v6.55q.4-.35 1-.35v-7.3m-65.15 41.5h19.2V420h-19.2v4.15m24.4-17.25h-3.5v17.25h3.5V406.9m-5.2 8.5v-3.3H255.5v3.3h13.35m0 4.35v-4.1H252.8v4.1h16.05m0-7.9v-2.8h-10.9v2.8h10.9m1.45-4.95h-1.2v17.25h1.2V406.9m5.2 0h-1.2v17.25h1.2V406.9m25.2 17.25V420h-24.95v4.15h24.95m4.45-17.25h-3.2v17.25h3.2V406.9m-4.45 8.5v-3.3h-24.95v3.3h24.95m0 4.35v-4.1h-24.95v4.1h24.95m0-7.9v-2.8h-24.95v2.8h24.95M292.5 398q0-.35.25-.3h.7v-1.2H281v1.2h.8q.3-.05.3.3v6.5q0 .05-.05.1t-.1.05q-.05 0-.1-.05t0-.1V398q0-.05-.05-.05h-.8v6.55q0 .7.5 1.4.55.7 1.4.75h8.25q1-.05 1.7-.75.55-.65.6-1.4v-6.55h-.7v6.55q0 .05-.05.1t-.1.05q-.05 0-.1-.05t0-.1V398m-3 0q0-.35.25-.3h1q.35 0 .35.3v6.5q0 .05-.05.1t-.1.05q-.05 0-.1-.05t0-.1V398q0-.05-.1-.05h-1v6.55q0 .05-.05.1t-.1.05q-.05 0-.1-.05t0-.1V398m-2.75-.3h1.05q.3-.05.3.3v6.5q0 .05-.05.1t-.1.05q-.05 0-.1-.05t0-.1V398q0-.05-.05-.05h-1.05v6.55q0 .05-.05.1t-.1.05q-.05 0-.1-.05t0-.1V398q0-.35.25-.3m-3.25.3q0-.35.25-.3h1.05q.3-.05.3.3v6.5q0 .05-.05.1t-.1.05q-.05 0-.1-.05t0-.1V398q0-.05-.05-.05h-1.05v6.55q0 .05-.05.1t-.1.05q-.05 0-.1-.05t0-.1V398m18.2 8.9h-.75v17.25h.75V406.9m4.45 0h-.75v17.25h.75V406.9m-1-12.8h-3.2v12.55h3.2V394.1m2-3v-1.2h-1.95q.1.25.2.55v-.05q.35 1.15.25 2.15.85-1.35 1.5-1.45m.9-7.25q.1-.1.2-.15h-3.3q.5.85.85 2.05.4 1.65.45 3.35.05-.8.45-1.45.05-.1.15-.2.1-1.3.25-1.85.3-1.25.95-1.75m2.65 3q-1.4.5-1.75 1.75h1.75v-1.75m-1.1 2.75q.4-.5.8-.75h-2.3v.9q0 .05-.05.1t-.1.05h-.55v1.1q.55-.15 1.5-.15.1-.55.7-1.25m-3.2-10.1q.15-.3.4-.45.05-.1.15-.15h-2.15q.4.5.85 1.15.15.25.35.5.1-.65.4-1.05m-.45-4.4q.05-.05.2-.1.1-.1.25-.15h-2q.35.4.7.95.05.05.1.15.25-.55.75-.85m-4.25 19h-1.55q.55.55.55 1.9v8.5q0 .8-.6 1.6-.3.35-.55.55h2.15V394.1m-.05-3.65v-.05q.05-.3.2-.5h-1.9v1.2q.7.1 1.4 1.5h.05q-.1-1.05.25-2.15m-3.75 3q.05.25.1.6v10.45q0 .85-.85 1.6-.4.35-.8.55h2.45q.55-.05 1.1-.7.5-.75.55-1.45V396q-.05-1.45-.7-1.9l-.05-.05v-.6h-1.8m1.45 4.25h.3q.05-.05.1 0t.05.1q0 .05-.05.1t-.1.05h-.3v6.55q0 .05-.05.1t-.1.05q-.05 0-.1-.05t0-.1V398q0-.35.25-.3m-2.55-5.6q.2.1.45.3.35.35.55.8h1.9v-1.1h-2.9m.9-2.2q.35.5.4.95 1 0 1.6.15v-1.1h-2m-1.35-3.05v1.75h1.7q-.35-1.25-1.7-1.75m7.15 1.5q-.75.4-1.25 1.3-.05.1-.1.25-.15.25-.25.6-.35 1.15-.25 2.2l-.05.05v.05q-.05 0-.1.05h-.2l-.05-.05q-.05 0-.05-.05-.65-1.3-1.25-1.4v2.5h7.2v-2.5q-.6.15-1.35 1.45h-.05l-.05.05h-.2l-.05-.05q-.05 0-.05-.05-.05-.05 0-.05.1-1-.25-2.2-.1-.35-.25-.6-.05-.15-.1-.25-.5-.9-1.3-1.3m-4.5 1.3v-.8h-2.35q.4.25.8.75l.05.05h1.5m2.3-3.9q.3-1.2.8-2.05h-3.3q.1.05.2.15.65.5.95 1.75.15.65.25 1.85l.1.2q.35.6.5 1.3 0-1.65.5-3.2m-7.8 8.4h-.05q.2.4.25 1.3v9.05q0 .85-.65 1.55-.35.35-.8.6h3.05q.9-.05 1.7-.75.7-.65.75-1.4v-6.55h-1.1v6.55q0 .05-.05.1t-.1.05q-.05 0-.1-.05t0-.1V398q0-.35.25-.3h1.1v-3.65q0-.35-.1-.6h-4.85q.4.2.6.55l.05.05q0 .05.05.1m.05-4.25v.55q.45.45.65 1.4h5.5v-.55q-.6-.2-1.7-.2-.05 0-.05-.05-.05-.05-.05-.1-.05-.45-.5-1.05h-3.85m-.2.75l-.05-.05v-.05q-.4-.35-1-.35v3h5.25q-.2-.35-.45-.6-.6-.5-1.2-.5h-1.8q-.05 0-.05-.05L294 392q-.2-.95-.65-1.35m10.15-8.1q-.6.4-1 1.05l-.1.1q-.55.85-.85 2.1-.5 1.6-.5 3.3v.1q0 .05-.05.1-.05 0-.05.05h-.25l-.1-.1q-.05-.1-.05-.15-.1-.6-.3-1.1-.1-.15-.15-.25-.1-.15-.15-.25-.35-.45-.7-.55v2.7H302q.5-1.05 1.45-1.55h.1q.95.5 1.5 1.55h2.8v-2.7q-.45.1-.75.5l-.2.3-.1.2q-.25.55-.3 1.15v.1q-.05.05-.05.1-.05 0-.05.05h-.3q-.05-.05-.1-.05-.05-.05 0-.1v-.1q-.05-1.7-.45-3.3-.4-1.25-.95-2.1-.05-.05-.05-.1-.45-.65-1.05-1.05m-2.1-2.5q.45-.65.85-1.15h-2.15l.15.15q.2.15.35.45.3.45.45 1.05.15-.25.35-.5m-2.8 1.15v2.4h3.6q.5-.85 1.25-1.3H303.6q.7.45 1.25 1.3h3.6v-2.4q-.4.15-.8.55-.55.55-.65 1.15-.05 0-.05.05-.05.05-.1.05h-.15q-.05 0-.05-.05l-.05-.05v-.05q-.1-.7-.5-1.55l-.2-.4q-.2-.35-.45-.7-.5-.75-1-1.3-.1-.05-.15-.1-.4-.45-.8-.7-.4.25-.8.7l-.1.1q-.5.55-1 1.3-.25.35-.45.75-.1.2-.2.35-.45.85-.5 1.6-.05 0-.05.05-.05.05-.1.05h-.1q-.05 0-.05-.05l-.05-.05q-.15-.6-.75-1.15h.05q-.45-.4-.8-.55m-2.5-.15q-.2 0-.45-.2l-.7-.45q-.05.05-.15.2l-.1.2.9.6q.3.3.25.5-.05.15-.3.15-.15 0-.4-.05h.05q-.35-.1-.5-.2.05.15.25.3t.45.2q.05-.05.1 0t.05.1v1.35q0 .05-.05.1t-.1.05h-.75v4.2q0 .05-.05.1t-.1.05q-.05 0-.1-.05t0-.1v-4.2h-.85v5.75h3.65q-.5-.55-1-.8-.05 0-.1-.05t0-.1v-7.45q-.05-.05 0-.1t.1 0 .1 0q.05.05.05.1v5.3q1.6.55 1.95 2.05h.7v-1.85q0-.05.05-.05.05-.05.1 0 .4.05.75.4-.1-.95-.2-1.45-.35-1.5-1.3-1.8l-.05-.05q-.05-.05 0-.1v-.55h-.8q-.4-.05-.45-.2v-2.75q-.5.1-.7.6-.1.25-.3.25m-1.5-.55q.1-.25.1-.3-.1 0-.2.2-.1.1-.1.2h.05q0 .05.05.05.05-.05.1-.15m5.7-3.4q-.3-.35-.55-.45v2.15h2.6q.55-.6 1.1-.95H303.6q.5.35 1.05.95h2.7v-2.1q-.3.05-.65.4-.45.45-.5 1-.05 0-.05.05-.05.05-.1.05h-.15q-.05 0-.05-.05-.05-.05-.05-.1-.05-.7-.5-1.5-.1-.2-.2-.35-.1-.15-.2-.25-.45-.7-.85-1.1-.1-.05-.15-.1-.2-.2-.4-.35-.2.15-.4.35l-.1.1q-.45.4-.9 1.1-.1.1-.15.25-.15.15-.2.35-.5.8-.5 1.5-.05.05-.05.1-.05.05-.1.05h-.1q-.05 0-.05-.05l-.05-.05q-.15-.55-.6-1m.6-2.1q.1.05.25.1.45.3.65.8l.1-.1q.35-.55.75-.95h-2q.1.05.25.15m1.35-2.75q-.1.15-.15.3-.35.75-.35 1.45-.05.05-.05.1-.05.05-.1.05h-.1q-.05 0-.05-.05l-.05-.05q-.1-.5-.6-.9-.4-.3-.7-.4v2h2.65q.35-.4.7-.6H303.6q.3.2.65.6H307v-2q-.4.1-.75.4-.55.4-.55.9-.05 0-.05.05-.05.05-.1.05h-.15q-.05 0-.05-.05-.05-.05-.05-.1-.05-.7-.35-1.4-.05-.2-.15-.35-.05-.1-.05-.2-.55-1-1.25-1.6-.7.6-1.2 1.6-.05.1-.05.2m2-12.7q-.05-.75-.05-1.05-.2-.65-.7-.65-.5 0-.6.65-.05.2-.05 1.05h1.4m.35 9.75q-.05-.25-.1-.45-.3-.85-.95-1.25-.75.45-1 1.35-.05.15-.1.4-.05.35-.05.8 0 .05-.05.1t-.1.05h-.15q-.05 0-.05-.05-.05-.05-.05-.1-.1-1.05-1.05-1.15v1.95q.7.4 1.15 1.05v-.05q.55-1.15 1.35-1.75 0-.05.05 0 .05-.05.1 0 .75.6 1.35 1.75h.05q.35-.6 1.1-1V369q-1 .1-1.05 1.15-.05.05-.05.1-.05.05-.1.05h-.1q-.05 0-.1-.05t0-.1q0-.45-.1-.85m-.25-3.25q.1.15.15.3.2-.3.6-.5v-1.15q-.3.05-.6.4-.05.05-.1.05h-.1q-.05 0-.05-.05l-.05-.05q-.15-1-.7-1.25-.5.2-.6 1.25-.05 0-.05.05-.05.05-.1.05h-.1q-.05 0-.1-.05-.3-.35-.55-.4v1.2q.3.2.55.5.05-.2.15-.35.3-.55.75-.8H303.6q.4.25.75.8m0 .55l-.2-.4q-.3-.45-.65-.7-.35.25-.6.7-.15.2-.2.45-.05.15-.05.35-.05.15 0 .3l-.05.05v.05q-.05 0-.1.05h-.1l-.05-.05h-.05q-.35-.55-.95-.7v1.25q.65.15 1.05.65.3-.8 1.05-1.25h.1q.75.4 1.15 1.25.35-.55 1-.65v-1.25q-.7.1-.9.65l-.05.05q-.05 0-.1.05h-.1l-.05-.05q-.05 0-.05-.05v-.05-.3l-.1-.4m.05-1.8q.45-.4.8-.35.05-.05.1 0t.05.1v1.4q-.05.05-.05.1l-.05.05q-.45.2-.6.55 0 .15.05.35.35-.5 1.1-.55 0-.05.05 0 .05 0 .05.05l.05.05v1.5q0 .05-.05.1-.05 0-.05.05-.7.1-1.05.75.05.25.1.65.3-.85 1.3-.85h.05q.05 0 .05.05l.05.05V371l-.05.05v.05q-.8.5-1.2 1.15.3.7.4 1.4.15-.35.6-.7.5-.45 1-.45h.05q.05 0 .05.05l.05.05v2.25q0 .05-.05.1t-.1.05h-.05q-.55 0-.95.3-.55.35-.75.9.5.8.65 1.55.15-.45.5-.8v-.05q.5-.5.95-.5 0-.05.05 0 .05 0 .05.05l.05.05v2.4q0 .05-.05.1t-.1.05q-.5 0-.85.6-.35.45-.45 1.2.5.9.65 1.7.15-.5.65-1h.05q.55-.5 1-.65.05-.05.1 0 .05 0 .05.05l.05.05v1.9h1v-3.05q0-1 .6-1.55.35-.3.45-.55v-.05q0-.15.05-.65-.05-.3-.2-.35v-.05q-.2-.05-.4.35v-.05q-.3.55-.6.55t-.3-.4v-.9q-.05-.9 1.05-1.7.4-.35.45-.75v-.95q-.05-.25-.1-.3-.15-.1-.3 0-.45.1-.65.6-.1.2-.2.25-.15.05-.3-.05-.25-.1-.2-.45v-.95q-.05-.3.4-.75.35-.35.4-.6v-1.2q0-.25-.1-.35-.05-.05-.2 0-.4.1-.55.35h.05q-.35.65-.65.6l-.05-.05q-.25-.1-.25-.55-.05-.85.4-1.3V368q.3-.3.35-1.3 0-.3-.1-.4-.05-.05-.2 0-.4.1-.6.45-.25.4-.4.45h-.05q-.15 0-.25-.15-.05-.15-.05-.4-.05-.45.35-1 .25-.5.3-.75-.05-.35-.15-.35h-.05q-.05-.05-.1-.05v.05q-.05 0-.05.05-.2.3-.55.3-.45 0-.45-.55-.05-.25.15-.65.1-.2.15-.45h-6.55q0 .25.1.45h.05q.15.4.15.65 0 .55-.45.55-.35 0-.55-.3v-.05q-.05-.1-.15-.05v.05q-.15 0-.15.35 0 .2.3.75.3.6.35 1-.05.25-.1.4-.1.15-.25.15-.3 0-.45-.45-.2-.35-.55-.45h.05q-.2-.05-.25 0-.1.1-.1.4v.65q0 .4.25.65v.05q.45.45.45 1.3-.05.45-.3.55v.05q-.35.05-.65-.6-.15-.25-.55-.35-.15-.05-.2 0-.1.1-.05.35v1.2q0 .25.35.6.45.45.45.75v.95q0 .35-.2.45h-.05q-.15.1-.25.05-.15-.05-.2-.25-.25-.5-.65-.6-.2-.1-.3 0-.1.05-.05.3v.95q0 .45.45.75 1.05.85 1.05 1.7v.9q0 .4-.4.4-.3 0-.6-.55-.2-.35-.3-.3l-.05.05q-.15.05-.15.35v.7q.05.3.45.55.45.4.55.85l-.05-.05q.05.1.1.75v3q.05.05.2.05h.8v-1.95q0-.05.05-.05.05-.05.1 0 .45.15 1.05.65.5.5.7 1 .15-.8.65-1.7-.15-.75-.5-1.2-.35-.6-.75-.6h-.05q-.05 0-.1-.05t0-.1v-2.45q0-.05.05-.05.05-.05.1 0 .4.05.85.55.35.35.55.75.1-.7.6-1.5-.2-.6-.65-.9-.5-.3-.95-.3h-.1q-.05 0-.1-.05t0-.1v-2.3q0-.05.05-.05.05-.05.1 0 .4 0 .95.45.4.3.6.7.05-.7.4-1.35-.4-.75-1.2-1.2h-.05V368.8q0-.05.05-.05h.05q1.1 0 1.35.95.05-.4.15-.75-.35-.65-1.1-.75-.05-.05-.1-.05-.05-.05 0-.1v-1.55q0-.05.05-.05.05-.05.1 0 .7.05 1.15.6 0-.2.05-.35-.25-.4-.65-.65h-.05v-1.5q-.05-.05 0-.1t.1 0q.35-.05.8.35.2-1.1.8-1.25.05-.05.1 0 .65.2.85 1.25m1.45-3.95q-.15-.05-.45-.05h-3.75q-.3 0-.4.05h-.05q-.1.05-.3.35-.15.2-.15.3l.1.05h5.25q.15-.05.2-.05 0-.1-.15-.3l-.35-.35h.05m-.75-1h-.05q-.1-.05-.4-.05h-2.25q-.3 0-.4.05h-.05q-.1.05-.3.35-.2.2-.2.3 0 .05.15.05h3.75q.15-.05.2-.05 0-.1-.15-.3-.2-.3-.3-.35m-31.05 34.4h-3.5v12.4h3.5v-12.4m7.7-5.75v2.1h10.3v-2.1h-10.3m-.15 5.75q-.6 0-.6.55v1.45h12.45v-.8q0-.8-.2-1.2H281.6m-.7-4.2h-.05q-.45.15-.9.6-1 .9-1 2.4h2.55v-3.15l-.6.15m.85.8v1h7.75q.05-.05.1 0t.05.1q0 .05-.05.1t-.1.05h-7.75v.95h10.3v-2.2h-10.3m-4.1 3q-.65.5-.6 1.25v9.4q0 2.1 1.95 2.15h2.95q-.35-.25-.65-.6-.6-.75-.55-1.55v-9.7q-.05-.8.85-.8h11.45q-.3-.4-.9-.55-.05-.05-.1-.05-.05-.05 0-.1H278.8q-.65.15-1.15.55m1.75 4.15q0-.05-.05-.05h-1.05v6.55q0 .05-.05.1t-.1.05q-.05 0-.1-.05t0-.1V398q0-.35.25-.3h1.05q.3-.05.3.3v6.5q0 .05-.05.1t-.1.05q-.05 0-.1-.05t0-.1V398m-2.6-2.9q0-.85.7-1.45.25-.2.55-.35h-1.7v.8q0 .05-.05.1l-.05.05q-1.1.9-1.05 2.2v8.05q0 .55.4 1.25.55.85 1.4.9h.8q-1-.55-1-2.15v-9.4m-.9-.85h-1.6v12.4h1.8q-.4-.25-.7-.75-.5-.75-.45-1.4v-8.05q0-1.25.95-2.2m5.85-6.45v.45h10.3v-.45h-10.3m-.25 1.85V387h-.5v2.75l.5-.1m-.75.15v-2h-1.8v3.95q.25-.75.85-1.3.45-.45.95-.65m-10.45 4.45h-1.65q1 .95 1 2.2v8.05q0 .65-.5 1.4-.3.5-.7.75h1.85v-12.4m-1.05-2.35q-.35-.25-.8-.35V394h7.65v-2.45q-.45.1-.8.35-.1.05-.2.15-.45.35-.65 1l-.05.05q-.05 0-.1.05h-.25q-.05 0-.05-.05l-.05-.05q-.15-.9-.65-2.1-.55-1-1.05-1.55-.5.55-.95 1.55-.55 1.2-.65 2.1-.05 0-.05.05-.05.05-.1.05h-.25l-.05-.05q-.05 0-.05-.05-.25-.65-.7-1-.1-.1-.2-.15m-2.15 1.75q.6.6.65 1.45v9.4q0 1.6-1.05 2.15h.9q.8-.05 1.35-.9.4-.7.45-1.25v-8.05q-.05-1.3-1.15-2.2l-.05-.05q-.05-.05 0-.1v-.8h-1.7q.3.15.6.35m-3.55-.35q.15.1.25.3.3.5.35 1.35v9.55q-.05.8-.5 1.55-.25.35-.6.6h2.55q1.9-.05 1.9-2.15v-9.4q0-.75-.55-1.25-.55-.4-1.2-.55h-2.2m1.75 4.7q0-.35.25-.3h1q.35 0 .35.3v6.5q0 .05-.05.1t-.1.05q-.05 0-.1-.05t0-.1V398q0-.05-.1-.05h-1v6.55q0 .05-.05.1t-.1.05q-.05 0-.1-.05t0-.1V398m-.9-10.2h-.15v1.2q.05.05.15.1v-1.3m1.25-3h-1v.8h1v-.8m6.5 4.3q.05-.05.1 0 .05-.05.1 0 .55.55 1.15 1.75h.05q.5 1.15.65 2.05.25-.75.85-1.15l-.2-.6q-.1-.2-.15-.4-.75-1.8-2.45-3.1-1.65 1.3-2.35 3.05-.1.2-.2.45-.1.3-.15.6.5.4.8 1.15l.05.05v-.05q.1-.9.65-2.05.55-1.2 1.1-1.75m.1-5.15q-.8.7-1.35 1.95-.65 1.3-.65 2.55v.05q-.05 0-.05.05-.05.05-.1.05h-.2q-.05 0-.05-.05-.05-.05-.05-.1-.05-.55-.25-.9-.35-.55-1.1-.65v2.05q.75.2 1.2 1.05h-.05q.1.15.15.35.8-1.7 2.45-2.95 0-.05.05 0 .05-.05.1 0 1.65 1.3 2.45 3 .05-.2.15-.4.4-.85 1.2-1.05v-2.05q-.75.05-1.1.55-.25.4-.25 1-.05.05-.05.1-.05.05-.1.05h-.2q-.05 0-.1-.05v-.1q-.05-1.25-.65-2.55-.6-1.25-1.45-1.95m1.95-.75q-.1-.2-.15-.4-.55-1.3-1.8-2.4-1.25 1.1-1.75 2.35-.1.2-.15.4-.2.65-.2 1.35-.05.05-.05.1-.05.05-.1.05h-.2q-.05 0-.05-.05l-.05-.05q-.1-.4-.45-.65t-.6-.35v2.05q.9.25 1.1 1.9.15.3.25.7.05-1.15.65-2.4.6-1.4 1.55-2.1 0-.05.05 0 .05-.05.1 0 .95.7 1.6 2.1.55 1.15.6 2.25.05-.4.25-.7.25-1.5 1.15-1.75v-2.05q-.8.15-1.1 1l-.05.05q-.05 0-.1.05h-.15q-.05 0-.05-.05-.05-.05-.05-.1-.05-.7-.25-1.3m-.5-2.95q-.05-.15-.15-.3-.35-.85-1.3-1.6-.9.75-1.25 1.6-.1.15-.1.35-.1.25-.1.5-.05.05-.05.1-.05.05-.1.05h-.15l-.05-.05q-.05 0-.05-.05-.1-.25-.45-.45-.25-.15-.45-.15v1.15q.55.5.85 1.05.55-1.25 1.85-2.35 0-.05.05 0 .05-.05.1 0 1.25 1.1 1.85 2.4.3-.6.9-1.1v-1.15q-.25 0-.5.15-.35.2-.4.45l-.05.05q-.05 0-.1.05h-.15q-.05 0-.05-.05-.05-.05-.05-.1-.05-.25-.1-.55m.2-1.6l-.05.05h-.15q-.05 0-.05-.05l-.05-.05q-.1-.25-.25-.55-.05-.15-.15-.25-.05-.1-.1-.15-.45-.65-.85-.8-.35.15-.8.8-.05.05-.1.15-.1.1-.15.25-.15.3-.2.55-.05 0-.05.05-.05.05-.1.05h-.15l-.05-.05h-.05q-.35-.5-.65-.55v.95q.55.3.9.65.35-.85 1.35-1.65 0-.05.05 0 .05-.05.1 0 .95.8 1.4 1.7.3-.4.85-.7v-.95q-.3.1-.65.55h-.05m-.4-2.15q-.05 0-.05.05-.05.05-.1.05h-.15q-.05 0-.05-.05l-.05-.05q-.05-.3-.2-.5-.05-.15-.1-.2-.2-.3-.55-.55-.3.25-.45.55-.1.1-.15.2-.15.2-.15.45-.05.05-.05.1-.05.05-.1.05h-.15q-.05 0-.05-.05l-.05-.05q-.1-.35-.4-.4v1.05q.3.2.5.45 0-.05.05-.1.55-.75.95-.9.05-.05.1 0 .5.15 1 .9.05 0 .05.1.2-.3.55-.45v-1.1q-.35.1-.4.45m.1-1.35v-.75q-.25.05-.3.2l-.05.05q-.05 0-.1.05H273q-.05 0-.05-.05l-.05-.05q-.05-.2-.3-.45-.2-.3-.35-.4-.4.3-.6.85l-.05.05q-.05 0-.1.05h-.1l-.05-.05q-.05 0-.05-.05-.1-.15-.3-.2v.75q.35.1.6.4.25-.25.6-.55H272.35q.35.25.6.55.25-.25.65-.4m-10.55 14.75v3.15h2.6q-.1-1.05-.9-2-.8-1.1-1.7-1.15m0-6.1v5.85q1 .05 1.9 1.25.45.5.7 1.1v-5.6h-1v3q0 .05-.05.1-.05 0-.05.05h-.1l-.05-.05q-.1-.25-.3-.25-.05-.05-.1-.05-.05-.05 0-.1v-5.3h-.95m-.9 2.85q-.45-.2-.65-.35v7.4q1.8.9 1.85 3.4v7.45q-.25.6-.9 1.4-.4.4-.75.7h.45q.8-.05 1.3-.75.45-.7.45-1.4v-9.55q0-.75-.3-1.2-.3-.45-.7-.45-.05 0-.1-.05t0-.1v-5.5q-.05-.7-.65-1m10.1-16.45q-.15 0-.15.45 0 .7-.65 1.25-.5.4-.75 1.2-.35.9-.1 1.8 0 .2-.1.35-.1.1-.3.15-.4.05-.65-.25-.15-.25-.3-.25-.05-.05-.1 0-.05 0 0 .1 0 .3.4.7.45.45.45.9-.05.65-.2.8-.25.25-.65-.15-.25-.3-.5-.35-.05-.05-.05 0-.05.05-.05.2 0 .5.25.85.35.35.35.8-.05.65-.15.85-.1.15-.25.15t-.3-.1q-.45-.25-.6-.25-.1 0-.1.15 0 .65.45 1.2v-.05q.55.55.55 1.5 0 .45-.5.55-.55.05-.8-.45-.55-1.1-1.15-1.25h-.05q-.2-.1-.25 0-.15.1-.1.4v11.6h2.3v-1.7q0-.05.05-.05.05-.05.1 0 .5.05.95.3.1-.5.3-.95-.05-.3-.2-.55-.4-.8-1.1-.9-.05-.05-.1-.05-.05-.05 0-.1v-2.35q0-.05.05-.05h.05q.7 0 1.15.4-.3-1.05-.95-1.2-.05-.05-.1-.05-.05-.05 0-.1v-2.35q0-.05.05-.05.05-.05.1 0 .4 0 .85.4.35.3.5.65 0-.85.35-1.6-.35-.65-.95-1.2-.05 0-.05-.05v-1.4q-.05-.05 0-.1t.1 0q.3 0 .7.2.35.15.5.4.05-.35.15-.6-.3-.45-.95-.8h-.05v-1.25q-.05-.05 0-.1t.1 0q.5-.05.95.6.1-.3.3-.65-.2-.25-.55-.5-.05 0-.05-.05v-1.4q0-.05.05-.05.05-.05.1 0 .45.05.65.4.05-.2.25-.45-.3-.3-.65-.35-.05-.05-.1-.05-.05-.05 0-.1v-1.1q0-.05.05-.05.05-.05.1 0 .35.05.55.25.25-.55.75-.85h.1q.2.1.5.5.2.2.3.4.1-.25.6-.3 0-.05.05 0 .05 0 .05.05l.05.05v1.05q0 .05-.05.1-.05 0-.05.05-.4.05-.65.35l.2.5q.15-.4.7-.45 0-.05.05 0 .05 0 .05.05l.05.05v1.3l-.05.05v.05q-.4.2-.6.5.2.35.3.65.45-.65.9-.6.05-.05.1 0t.05.1v1.15l-.05.05v.05q-.6.4-.95.8l.2.6q.1-.25.45-.4.4-.2.7-.2.05-.05.1 0t.05.1v1.4l-.05.05q-.7.55-.95 1.25.25.7.35 1.5.4-.95 1.35-1h.05q.05 0 .05.05l.05.05v2.3q0 .05-.05.1-.05 0-.05.05-.7.15-.95 1.15.4-.35 1.1-.35h.05q.05 0 .05.05l.05.05v2.3q0 .05-.05.1-.05 0-.05.05-.75.1-1.1.9h-.05q-.15.3-.2.6.15.4.3.9.4-.25.95-.3 0-.05.05 0 .05 0 .05.05l.05.05v1.65h2.35v-11.6q0-.3-.1-.4-.1-.1-.3 0-.65.15-1.2 1.25-.25.5-.75.45-.55-.1-.5-.55-.05-.95.5-1.5v.05q.4-.55.45-1.2 0-.15-.1-.15-.2 0-.6.25-.2.15-.3.15-.2 0-.25-.15-.15-.25-.15-.9-.05-.45.35-.85v.05q.25-.35.3-.85-.05-.15-.05-.2-.05-.05-.1 0-.25.05-.55.35-.35.35-.55.15h-.05q-.2-.15-.15-.8-.05-.45.4-.9v.05q.35-.45.4-.75l-.05-.1h-.05q-.15 0-.3.25-.25.3-.65.25-.45-.1-.35-.5.15-.9-.15-1.8-.3-.8-.7-1.2-.7-.55-.65-1.25 0-.45-.25-.45m53.05 20.4v-2.1h-10.25v2.1h10.25m.65 3.8q-.15-.15-.55-.15h-11.65q-.2.4-.15 1.2v.8h12.45v-1.45q0-.3-.1-.4m-.55-.4q.6 0 .75.25.1.15.15.55v9.7q0 .8-.55 1.55-.3.35-.7.6h3q1.95-.05 1.95-2.15v-9.4q0-.75-.55-1.25-.55-.4-1.2-.55h-13.2q0 .05-.05.1-.044 0-.05.05-.65.15-1 .55h11.45m3.4 4q0-.05-.1-.05h-1q-.05 0-.05.05v6.5q0 .05-.05.1t-.1.05q-.05 0-.1-.05t0-.1V398q0-.3.3-.3h1q.35 0 .35.3v6.5q0 .05-.05.1t-.1.05q-.05 0-.1-.05t0-.1V398m-2.65-7.95l-.6-.15v3.15h2.6q-.05-1.5-1-2.4-.5-.45-.95-.6h-.05m2-2.25h-1.85v2q.5.2 1 .65.55.55.85 1.25v-3.9m-2.6 1.85l.5.1V387h-.5v2.65m-.25-1.4v-.45h-10.25v.45h10.25m9.65-17.6q0-.45-.2-.45-.15 0-.15.45 0 .7-.65 1.25-.5.4-.75 1.2-.35.9-.15 1.8.05.4-.35.5-.4.05-.65-.25-.15-.25-.3-.25-.05-.05-.1 0-.05 0 0 .1 0 .3.35.75v-.05q.45.45.45.9-.05.6-.2.8-.2.25-.6-.15-.3-.3-.55-.35-.05-.05-.05 0-.05.05-.05.2 0 .5.3.8v.05q.35.35.35.8-.05.65-.15.85-.1.15-.25.15t-.3-.1q-.45-.25-.6-.25-.1 0-.1.15 0 .65.45 1.2v-.05q.55.55.55 1.5 0 .45-.5.55-.55.05-.8-.45v.05q-.65-1.15-1.2-1.3h-.05q-.15-.1-.2 0-.1.1-.1.4v11.6h12.75v-11.6q-.05-.3-.1-.4-.1-.1-.25 0-.65.15-1.2 1.25v.05q-.3.45-.75.4-.55-.1-.5-.55-.05-.95.5-1.5v.05q.4-.55.45-1.2 0-.15-.1-.15-.2 0-.6.25-.2.1-.3.1-.2 0-.25-.15-.15-.2-.15-.85-.05-.45.35-.85v.05q.25-.35.3-.85-.05-.15-.05-.2-.05-.05-.1 0-.25.05-.55.35-.4.4-.6.15-.15-.2-.15-.8-.05-.45.4-.9v.05q.35-.45.4-.75 0-.1-.05-.1-.05-.05-.05 0h-.05q-.15 0-.3.25-.25.3-.6.25-.45-.1-.35-.5.15-.9-.15-1.8-.3-.8-.75-1.2-.7-.55-.65-1.25z"/><path fill="#EE3156" d="M341.8 398q0-.3-.35-.3h-1q-.3 0-.3.3v6.5q-.05.05 0 .1t.1.05q.05 0 .1-.05t.05-.1V398q0-.05.05-.05h1q.1 0 .1.05v6.5q-.05.05 0 .1t.1.05q.05 0 .1-.05t.05-.1V398m-24.55-.3h-1q-.3 0-.3.3v6.5q-.05.05 0 .1t.1.05q.05 0 .1-.05t.05-.1V398q0-.05.05-.05h1q.1 0 .1.05v6.5q-.05.05 0 .1t.1.05q.05 0 .1-.05t.05-.1V398q0-.3-.35-.3m2 0q-.3 0-.3.3v6.5q-.05.05 0 .1t.1.05q.05 0 .1-.05t.05-.1V398q0-.05.05-.05h1q.1 0 .1.05v6.5q-.05.05 0 .1t.1.05q.05 0 .1-.05t.05-.1V398q0-.3-.35-.3h-1m4.35.3q0-.3-.35-.3h-1q-.3 0-.3.3v6.5q-.05.05 0 .1t.1.05q.05 0 .1-.05t.05-.1V398q0-.05.05-.05h1q.1 0 .1.05v6.5q-.05.05 0 .1t.1.05q.05 0 .1-.05t.05-.1V398m-9.95-4q-.05.05-.05.1l-.05.05q-.2.4-.2 1.3v9.05q-.05.85.65 1.55.35.35.8.6.5.2 1.15.25.05 0 .1-.05t.05-.1q0-.05-.05-.1h-.15q-1.05-.05-1.7-.75v-.05q-.6-.6-.6-1.35v-6.55h.65q.1 0 .1.05v6.5q-.05.05 0 .1t.1.05q.05 0 .1-.05t.05-.1V398q0-.3-.35-.3h-.65v-2.25q-.05-.8.15-1.2h.05q.05-.15.15-.25.35-.4 1-.55.006-.056.05-.1l.05-.05-.1-.1q-.05-.05-.05 0-.35.05-.6.25-.4.2-.65.55m-6.3 3.95h.3q.1 0 .1.05v6.5q-.05.05 0 .1t.1.05q.05 0 .1-.05t.05-.1V398q0-.3-.35-.3h-.3q-.05-.05-.1 0t0 .1 0 .1q.05.05.1.05m5.3-14.05v-.15q0-.05-.05-.1t-.1 0-.1 0q-.05.05 0 .1V388.1q-.05.05 0 .1t.1.05q.05 0 .1-.05t.05-.1v-4.2m-.3-3.7l-.25.2q0 .05.1.2.05.1.15.2l.15-.15q-.05-.05-.1-.15-.1-.25-.05-.3m-39.6-9.55q0-.75-.5-.7-.4-.05-.4.7-.05.6-.55 1.05-.55.4-.85 1.3-.4 1-.1 1.95 0 .05-.05.1t-.15.1q-.25 0-.4-.15-.25-.35-.45-.35h-.05q-.2-.05-.25.05-.1.1-.1.3-.05.4.45.9.35.35.4.7 0 .5-.1.65-.1 0-.3-.2v.05q-.25-.35-.6-.45-.25-.05-.35.1-.15.1-.1.35-.05.6.3 1 .25.3.3.65 0 .5-.1.7-.05.05-.1.05t-.1-.05q-.5-.35-.75-.3-.35-.05-.35.4-.05.75.5 1.35.45.45.5 1.3-.05.25-.3.3-.4 0-.55-.3h.05q-.6-1.2-1.35-1.4-.35-.15-.55.05-.15.15-.15.6v3.1h-1.15q-.05-.05-.1 0t0 .1v1.05q-.05.05 0 .1t.1.05h1.15v.3h-1.15q-.05-.05-.1 0t0 .1v1.3h-.15v-3.9q0-.05-.05-.1t-.1 0h-1.2q-.05-.05-.1 0t0 .1v3.2q-.2-.25-.55-.4-.7-.35-.75-.5l-.05-.05q-.05-.05-.1 0-.05 0-.1.05-.05 0 0 .05V393.9l.05.05q1.8.8 1.8 3.15v7.35q-.2.6-.85 1.35-.55.55-.95.85h-1.7q-.05-.05-.1 0t0 .1v2.05h-1.7q-.05-.05-.1 0t0 .1v2.95h-2.35q-.05-.05-.1 0t0 .1v3.45h-2.6q-.05-.05-.1 0t0 .1v4.25h-3.05q-.05-.05-.1 0t0 .1v4.4q-.05.05 0 .1t.1.05h56.8q0-.05.05-.05.05-.05.05-.1v-17.5q0-.05-.05-.1h-.95V394.1h1.5q-.25.2-.35.5-.2.4-.15 1.4v8.5q-.05.8.55 1.6.25.35.55.55.35.25.7.25.05 0 .1-.05t.05-.1q0-.05-.05-.1h-.1q-.55-.05-1.05-.7-.5-.75-.5-1.45V396q0-.9.15-1.3.1-.4.45-.6.05 0 .1-.05 0-.05.05-.05V392.1h2.85q-.25.1-.45.3-.4.35-.6.8-.05.1-.1.25-.05.25-.05.6v10.45q-.05.85.85 1.6.35.35.8.55.5.25 1.1.25.05 0 .1-.05t.05-.1q0-.05-.05-.1h-.15q-.95-.05-1.7-.75-.75-.65-.75-1.4v-6.55h1.05q.1 0 .1.05v6.5q-.05.05 0 .1t.1.05q.05 0 .1-.05t.05-.1V398q0-.3-.35-.3h-1.05v-3.65q-.05-.35.1-.6 0-.15.1-.25.15-.35.45-.6.6-.5 1.25-.5h1.75q.05 0 .1-.05 0-.05.05-.1 0-.55.4-1.05.5-.65 1.3-.7h.1q.05 0 .1-.05 0-.05.05-.05v-.05q-.05-.05-.05-.1-.05-.05-.1 0h-.1q-.6 0-1 .35v-6.55q0-.05-.05-.1h-.1q-.05-.05-.1 0t0 .1v6.75q-.15.1-.25.25-.4.5-.45 1.1h-5.45v-.55q.55-.2 1.6-.2.05 0 .1-.05 0-.05.05-.1.05-.5.65-1.2.5-.65 1-.9.05 0 .1-.05t.05-.1v-7.45q0-.05-.05-.1t-.1 0-.1 0q-.05.05 0 .1v5.3q-1.65.55-2 2.05h-.6v-1.8l-.05-.05q0-.05-.05-.05-.05-.05-.05 0-.45.05-.8.4.05-1 .2-1.45.35-1.5 1.25-1.8l.05-.05q.05-.05.05-.1v-.55h.75q.5 0 .5-.25V380.2q.5.05.7.6.05.25.3.25.2 0 .5-.2l.65-.45q-.1-.25.05-.35l-.85.6q-.25.15-.35.15-.05 0-.05-.05-.25-.75-.95-.8v-.1q-.05-.9.5-1.35.45-.35.55-.7.05-.15.05-.75 0-.5-.35-.6h.05q-.35-.25-.75.4-.2.35-.4.4-.05-.05-.05-.15v-.9q0-.8.95-1.5.55-.45.55-.95v-.95q0-.35-.2-.5-.15-.15-.5-.05-.6.15-.85.75-.05.05-.05.1h-.05q-.1-.1-.1-.25v-.95q0-.2.35-.55.45-.45.45-.8v-1.2q-.05-.35-.15-.5-.15-.2-.45-.1h-.05q-.5.15-.65.5-.2.45-.35.45-.15-.1-.1-.35 0-.75.35-1.15.4-.4.4-1.5-.05-.4-.15-.55-.2-.25-.5-.1-.5.15-.7.6-.15.25-.25.3h-.05q-.05-.1 0-.3 0-.35.3-.85v-.05q.35-.6.35-.85 0-.55-.35-.6-.2-.1-.3-.05-.15.05-.15.2-.15.15-.35.2-.2-.05-.2-.3t.15-.55h-.05q.15-.25.2-.55.45-.1.45-.85 0-.9-.6-.85h-.35q.05-.2-.2-.5V361l-.35-.35q-.1-.05-.2-.05v-.05q.05-.2-.2-.5-.3-.35-.4-.4h.05q-.1-.15-.6-.1h-.15q-.05-.8-.05-1.1-.25-.9-.95-.85-.7-.05-.85.85-.05.2-.05 1.1h-.2q-.5-.05-.6.1h.05q-.1.05-.4.4-.3.3-.25.5v.05q-.05 0-.1.05-.1.05-.4.4-.25.3-.2.5h-.4q-.55-.05-.55.85 0 .75.45.85 0 .3.15.55.1.3.15.55 0 .25-.2.3-.25-.05-.35-.2-.15-.3-.45-.15-.347.039-.3.6-.05.3.35.9v-.05q.3.5.3.9 0 .2-.05.3h-.05q-.1-.05-.2-.3h-.05q-.2-.45-.65-.6-.35-.15-.5.1-.2.15-.15.55v.65q-.05.5.3.85.35.4.4 1.15 0 .25-.1.35-.2 0-.35-.45h-.05q-.15-.35-.65-.5-.35-.1-.45.1-.15.15-.15.5v1.2q-.05.35.4.8.35.35.4.55v.95q-.05.15-.1.25h-.05q-.05-.05-.05-.1-.3-.6-.85-.75-.35-.1-.5.05-.15.15-.15.5v.95q-.05.55.55.95.9.75.95 1.5v.9q0 .15-.15.15-.2-.05-.4-.4-.3-.65-.65-.4-.35.1-.3.6v.75q.1.35.55.7.4.3.45.7.05.1.05.65v.1q-.7.1-.95.75v.05l-.05.05q-.15 0-.3-.15l-.9-.6-.05-.05q-.25-.2-.55.25-.15.15-.15.3-.05.15.15.25l.05.05h.05l1.05.75q.15.15.15.2h-.05q-.1 0-.3-.05-.35-.1-.45-.2-.1-.1-.25 0-.15 0-.15.15l.05.1q.05.25.35.5.2.2.5.25v1.1h-1.8q-.1-.35-.6-.85-.6-.45-.6-.5 0-.05-.05-.1t-.1 0-.1 0q-.05.05 0 .1v5.25h-10.3v-.7q0-.05-.05-.1t-.1 0h-.75q-.05-.05-.1 0t0 .1v.7h-1.8v-6.1q-.05-.45-.2-.6-.2-.2-.55-.05h.05q-.7.2-1.35 1.4-.15.3-.5.3-.3-.05-.3-.3 0-.85.45-1.3.5-.6.5-1.35 0-.4-.35-.4-.3 0-.75.3-.1.05-.15.1l-.05-.05q-.15-.2-.1-.75 0-.35.3-.65.35-.4.35-1 0-.25-.1-.35-.15-.15-.35-.1h-.05q-.35.1-.65.4-.1.15-.2.15-.1-.15-.1-.6 0-.35.35-.7.45-.5.45-.9 0-.2-.1-.3-.1-.1-.25-.05-.25 0-.5.35-.15.15-.4.15-.2-.05-.15-.2.2-.95-.15-1.95-.35-.9-.8-1.3-.55-.45-.55-1.05m-.65 0q0-.45.15-.45.25 0 .25.45-.05.7.65 1.25.4.4.7 1.2.3.9.15 1.8-.1.4.35.5.4.05.65-.25.15-.25.3-.25h.05l.05.1q-.05.3-.4.75v-.05q-.45.45-.4.9-.05.65.15.8h.05q.2.2.55-.15.3-.3.55-.35.05-.05.1 0 0 .05.05.2-.05.5-.3.85v-.05q-.4.4-.35.85 0 .65.15.9.05.15.25.15.1 0 .3-.15.4-.25.6-.25.1 0 .1.15-.05.65-.45 1.2v-.05q-.55.55-.5 1.5-.05.45.5.55.5.05.75-.45.55-1.1 1.2-1.25.2-.1.3 0 .1.1.1.4v11.6h-2.35v-1.65l-.05-.05q0-.05-.05-.05-.05-.05-.05 0-.55.05-.95.3-.15-.5-.3-.9.05-.3.2-.6h.05q.35-.8 1.1-.9 0-.05.05-.05.05-.05.05-.1v-2.3l-.05-.05q0-.05-.05-.05h-.05q-.7 0-1.1.35.25-1 .95-1.15 0-.05.05-.05.05-.05.05-.1v-2.3l-.05-.05q0-.05-.05-.05h-.05q-.95.05-1.35 1-.1-.8-.35-1.5.25-.7.95-1.25l.05-.05v-1.4q0-.05-.05-.1t-.1 0q-.3 0-.7.2-.35.15-.45.4l-.2-.6q.35-.4.95-.8v-.05l.05-.05v-1.15q0-.05-.05-.1t-.1 0q-.45-.05-.9.6-.1-.3-.3-.65.2-.3.6-.5v-.05l.05-.05v-1.3l-.05-.05q0-.05-.05-.05-.05-.05-.05 0-.55.05-.7.45l-.2-.5q.25-.3.65-.35 0-.05.05-.05.05-.05.05-.1v-1.05l-.05-.05q0-.05-.05-.05-.05-.05-.05 0-.5.05-.6.3-.1-.2-.3-.4-.3-.4-.5-.5h-.1q-.5.3-.75.85-.2-.2-.55-.25-.05-.05-.1 0-.05 0-.05.05v1.1q-.05.05 0 .1.05 0 .1.05.35.05.65.35-.2.25-.25.45-.2-.35-.65-.4-.05-.05-.1 0-.05 0-.05.05v1.4q0 .05.05.05.35.25.55.5-.2.35-.3.65-.45-.65-.95-.6-.05-.05-.1 0t0 .1v1.25h.05q.65.35.95.8-.1.25-.15.6-.15-.25-.5-.4-.4-.2-.7-.2-.05-.05-.1 0t0 .1v1.4q0 .05.05.05.6.55.95 1.2-.35.75-.35 1.6-.15-.35-.5-.65-.45-.4-.85-.4-.05-.05-.1 0-.05 0-.05.05v2.35q-.05.05 0 .1.05 0 .1.05.65.15.95 1.2-.45-.4-1.15-.4h-.05q-.05 0-.05.05v2.35q-.05.05 0 .1.05 0 .1.05.7.1 1.1.9.15.25.2.55-.2.45-.3.95-.45-.25-.95-.3-.05-.05-.1 0-.05 0-.05.05v1.7h-2.3v-11.6q-.05-.3.1-.4.05-.1.25 0h.05q.6.15 1.15 1.25.25.5.8.45.5-.1.5-.55 0-.95-.55-1.5v.05q-.45-.55-.45-1.2 0-.15.1-.15.15 0 .6.25.15.1.3.1t.25-.15q.1-.2.15-.85 0-.45-.35-.8-.25-.35-.25-.85 0-.15.05-.2 0-.05.05 0 .25.05.5.35.4.4.65.15.15-.15.2-.8 0-.45-.45-.9-.4-.4-.4-.7-.05-.1 0-.1.05-.05.1 0 .15 0 .3.25.25.3.65.25.2-.05.3-.15.1-.15.1-.35-.25-.9.1-1.8.25-.8.75-1.2.65-.55.65-1.25m-10.6 15.65q.2.15.65.35.6.3.65 1v5.5q-.05.05 0 .1t.1.05q.4 0 .7.45.3.45.3 1.2v9.55q0 .7-.45 1.4-.5.7-1.3.75h-.45q.35-.3.75-.7.65-.8.9-1.4v-7.45q-.05-2.5-1.85-3.4v-7.4m1.55 3.35v-5.85h.95v5.3q-.05.05 0 .1.05 0 .1.05.2 0 .3.25l.05.05h.1q0-.05.05-.05.05-.05.05-.1v-3h1v5.6q-.25-.6-.7-1.1-.9-1.2-1.9-1.25m0 3.4v-3.15q.9.05 1.7 1.15.8.95.9 2h-2.6m10.55-18.65v.75q-.4.15-.65.4-.25-.3-.6-.55H272.2q-.35.3-.6.55-.25-.3-.6-.4v-.75q.2.05.3.2 0 .05.05.05l.05.05h.1q.05-.05.1-.05l.05-.05q.2-.55.6-.85.15.1.35.4.25.25.3.45l.05.05q0 .05.05.05h.15q.05-.05.1-.05l.05-.05q.05-.15.3-.2m-.15 2.15q0-.05.05-.05.05-.35.4-.45v1.1q-.35.15-.55.45 0-.1-.05-.1-.5-.75-1-.9-.05-.05-.1 0-.4.15-.95.9-.05.05-.05.1-.2-.25-.5-.45v-1.05q.3.05.4.4l.05.05q0 .05.05.05h.15q.05 0 .1-.05 0-.05.05-.1 0-.25.15-.45.05-.1.15-.2.15-.3.45-.55.35.25.55.55.05.05.1.2.15.2.2.5l.05.05q0 .05.05.05h.15q.05 0 .1-.05m.4 2.15l.05-.05h.05q.35-.45.65-.55v.95q-.55.3-.85.7-.45-.9-1.4-1.7-.05-.05-.1 0-.05-.05-.05 0-1 .8-1.35 1.65-.35-.35-.9-.65v-.95q.3.05.65.55h.05l.05.05h.15q.05 0 .1-.05 0-.05.05-.05.05-.25.2-.55.05-.15.15-.25.05-.1.1-.15.45-.65.8-.8.4.15.85.8.05.05.1.15.1.1.15.25.15.3.25.55l.05.05q0 .05.05.05h.15m-.3 1.25q.1.15.15.3.05.3.1.55 0 .05.05.1 0 .05.05.05h.15q.05-.05.1-.05l.05-.05q.05-.25.4-.45.25-.15.5-.15v1.15q-.6.5-.9 1.1-.6-1.3-1.85-2.4-.05-.05-.1 0-.05-.05-.05 0-1.3 1.1-1.85 2.35-.3-.55-.85-1.05v-1.15q.2 0 .45.15.35.2.45.45 0 .05.05.05l.05.05h.15q.05 0 .1-.05 0-.05.05-.1 0-.25.1-.5 0-.2.1-.35.35-.85 1.25-1.6.95.75 1.3 1.6m.5 2.85q.05.2.15.4.2.6.25 1.3 0 .05.05.1 0 .05.05.05h.15q.05-.05.1-.05l.05-.05q.3-.85 1.1-1v2.05q-.9.25-1.15 1.75-.2.3-.25.7-.05-1.1-.6-2.25-.65-1.4-1.6-2.1-.05-.05-.1 0-.05-.05-.05 0-.95.7-1.55 2.1-.6 1.25-.65 2.4-.1-.4-.25-.7-.2-1.65-1.1-1.9v-2.05q.25.1.6.35.35.25.45.65l.05.05q0 .05.05.05h.2q.05 0 .1-.05 0-.05.05-.1 0-.7.2-1.35.05-.2.15-.4.5-1.25 1.75-2.35 1.25 1.1 1.8 2.4m-3.15 3.1q.55-1.25 1.35-1.95.85.7 1.45 1.95.6 1.3.65 2.55v.1q.05.05.1.05h.2q.05 0 .1-.05 0-.05.05-.1 0-.6.25-1 .35-.5 1.1-.55v2.05q-.8.2-1.2 1.05-.1.2-.15.4-.8-1.7-2.45-3-.05-.05-.1 0-.05-.05-.05 0-1.65 1.25-2.45 2.95-.05-.2-.15-.35h.05q-.45-.85-1.2-1.05v-2.05q.75.1 1.1.65.2.35.25.9 0 .05.05.1 0 .05.05.05h.2q.05 0 .1-.05 0-.05.05-.05v-.05q0-1.25.65-2.55m1.35 3.2q-.05-.05-.1 0-.55.55-1.1 1.75-.55 1.15-.65 2.05v.05l-.05-.05q-.3-.75-.8-1.15.05-.3.15-.6.1-.25.2-.45.7-1.75 2.35-3.05 1.7 1.3 2.45 3.1.05.2.15.4l.2.6q-.6.4-.85 1.15-.15-.9-.65-2.05h-.05q-.6-1.2-1.15-1.75-.05-.05-.1 0m-7.6-4.3h1v.8h-1v-.8m-.4 3h.15v1.3q-.1-.05-.15-.1v-1.2m-.45 5.8q-.1-.2-.25-.3h2.2q.65.15 1.2.55.55.5.55 1.25v9.4q0 2.1-1.9 2.15h-2.55q.35-.25.6-.6.45-.75.5-1.55v-9.55q-.05-.85-.35-1.35m3.95 1.5q-.05-.85-.65-1.45-.3-.2-.6-.35h1.7v.8q-.05.05 0 .1l.05.05q1.1.9 1.15 2.2v8.05q-.05.55-.45 1.25-.55.85-1.35.9h-.9q1.05-.55 1.05-2.15v-9.4m.7-3.55q.45.1.8.35.1.05.2.15.45.35.7 1 0 .05.05.05l.05.05h.25q.05 0 .1-.05 0-.05.05-.05.1-.9.65-2.1.45-1 .95-1.55.5.55 1.05 1.55.5 1.2.65 2.1l.05.05q0 .05.05.05h.25q.05-.05.1-.05l.05-.05q.2-.65.65-1 .1-.1.2-.15.35-.25.8-.35V394h-7.65v-2.45m.2 2.7h1.65v12.4h-1.85q.4-.25.7-.75.5-.75.5-1.4v-8.05q0-1.25-1-2.2m12.1-6.45v2q-.5.2-.95.65-.6.55-.85 1.3v-3.95h1.8m.75-.8v2.65l-.5.1V387h.5m.25 1.25v-.45h10.3v.45h-10.3m-7.45 6h1.6q-.95.95-.95 2.2v8.05q-.05.65.45 1.4.3.5.7.75h-1.8v-12.4m3.2-.6q-.7.6-.7 1.45v9.4q0 1.6 1 2.15h-.8q-.85-.05-1.4-.9-.4-.7-.4-1.25v-8.05q-.05-1.3 1.05-2.2l.05-.05q.05-.05.05-.1v-.8h1.7q-.3.15-.55.35m-.45 1.45q-.05-.75.6-1.25.5-.4 1.15-.55h13.25q-.05.05 0 .1.05 0 .1.05.6.15.9.55H281.6q-.9 0-.85.8v9.7q-.05.8.55 1.55.3.35.65.6H279q-1.95-.05-1.95-2.15v-9.4m4.7-3.25v-1h10.3v2.2h-10.3v-.95h7.75q.05 0 .1-.05t.05-.1q0-.05-.05-.1t-.1 0h-7.75m-.9-1.8h.05l.6-.15v3.15h-2.55q0-1.5 1-2.4.45-.45.9-.6m.15 4.75q0-.55.6-.55h11.65q.2.4.2 1.2v.8H281v-1.45m.75-4.2v-2.1h10.3v2.1h-10.3m-11.2 3.65h3.5v12.4h-3.5v-12.4m34.5-34.4h.05q.1.05.3.35.15.2.15.3-.05 0-.2.05h-3.75q-.15 0-.15-.05 0-.1.2-.3.2-.3.3-.35h.05q.1-.05.4-.05h2.25q.3 0 .4.05m.35.95q.3 0 .45.05h-.05l.35.35q.15.2.15.3-.05 0-.2.05h-5.25l-.1-.05q0-.1.15-.3.2-.3.3-.35h.05q.1-.05.4-.05h3.75m-.2 3.65q-.35-.05-.8.35-.2-1.05-.85-1.25-.05-.05-.1 0-.6.15-.8 1.25-.45-.4-.8-.35-.05-.05-.1 0t0 .1v1.5h.05q.4.25.65.65-.05.15-.05.35-.45-.55-1.15-.6-.05-.05-.1 0-.05 0-.05.05v1.55q-.05.05 0 .1.05 0 .1.05.75.1 1.1.75-.1.35-.15.75-.25-.95-1.35-.95h-.05q-.05 0-.05.05V371.1h.05q.8.45 1.2 1.2-.35.65-.4 1.35-.2-.4-.6-.7-.55-.45-.95-.45-.05-.05-.1 0-.05 0-.05.05v2.3q-.05.05 0 .1t.1.05h.1q.45 0 .95.3.45.3.65.9-.5.8-.6 1.5-.2-.4-.55-.75-.45-.5-.85-.55-.05-.05-.1 0-.05 0-.05.05v2.45q-.05.05 0 .1t.1.05h.05q.4 0 .75.6.35.45.5 1.2-.5.9-.65 1.7-.2-.5-.7-1-.6-.5-1.05-.65-.05-.05-.1 0-.05 0-.05.05v1.95h-.8q-.15 0-.2-.05v-3q-.05-.65-.1-.75l.05.05q-.1-.45-.55-.85-.4-.25-.45-.55v-.7q0-.3.15-.35l.05-.05q.1-.05.3.3.3.55.6.55.4 0 .4-.4v-.9q0-.85-1.05-1.7-.45-.3-.45-.75v-.95q-.05-.25.05-.3.1-.1.3 0 .4.1.65.6.05.2.2.25.1.05.25-.05h.05q.2-.1.2-.45v-.95q0-.3-.45-.75-.35-.35-.35-.6v-1.2q-.05-.25.05-.35.05-.05.2 0 .4.1.55.35.3.65.65.6v-.05q.25-.1.3-.55 0-.85-.45-1.3V368q-.25-.25-.25-.65v-.65q0-.3.1-.4.05-.05.25 0h-.05q.35.1.55.45.15.45.45.45.15 0 .25-.15.05-.15.1-.4-.05-.4-.35-1-.3-.55-.3-.75 0-.35.15-.35v-.05q.1-.05.15.05v.05q.2.3.55.3.45 0 .45-.55 0-.25-.15-.65h-.05q-.1-.2-.1-.45h6.55q-.05.25-.15.45-.2.4-.15.65 0 .55.45.55.35 0 .55-.3 0-.05.05-.05v-.05q.05 0 .1.05h.05q.1 0 .15.35-.05.25-.3.75-.4.55-.35 1 0 .25.05.4.1.15.25.15h.05q.15-.05.4-.45.2-.35.6-.45.15-.05.2 0 .1.1.1.4-.05 1-.35 1.3v.05q-.45.45-.4 1.3 0 .45.25.55l.05.05q.3.05.65-.6H309q.15-.25.55-.35.15-.05.2 0 .1.1.1.35v1.2q-.05.25-.4.6-.45.45-.4.75v.95q-.05.35.2.45.15.1.3.05.1-.05.2-.25.2-.5.65-.6.15-.1.3 0 .05.05.1.3v.95q-.05.4-.45.75-1.1.8-1.05 1.7v.9q0 .4.3.4t.6-.55v.05q.2-.4.4-.35v.05q.15.05.2.35-.05.5-.05.65v.05q-.1.25-.45.55-.6.55-.6 1.55v3.05h-1V381l-.05-.05q0-.05-.05-.05-.05-.05-.1 0-.45.15-1 .65h-.05q-.5.5-.65 1-.15-.8-.65-1.7.1-.75.45-1.2.35-.6.85-.6.05 0 .1-.05t.05-.1v-2.4l-.05-.05q0-.05-.05-.05-.05-.05-.05 0-.45 0-.95.5v.05q-.35.35-.5.8-.15-.75-.65-1.55.2-.55.75-.9.4-.3.95-.3h.05q.05 0 .1-.05t.05-.1v-2.25l-.05-.05q0-.05-.05-.05h-.05q-.5 0-1 .45-.45.35-.6.7-.1-.7-.4-1.4.4-.65 1.2-1.15v-.05l.05-.05v-2.15l-.05-.05q0-.05-.05-.05h-.05q-1 0-1.3.85-.05-.4-.1-.65.35-.65 1.05-.75 0-.05.05-.05.05-.05.05-.1v-1.5l-.05-.05q0-.05-.05-.05-.05-.05-.05 0-.75.05-1.1.55-.05-.2-.05-.35.15-.35.6-.55l.05-.05q0-.05.05-.1v-1.4q0-.05-.05-.1t-.1 0m-1.05 1.75l.2.4.1.4v.35q0 .05.05.05l.05.05h.1q.05-.05.1-.05l.05-.05q.2-.55.9-.65v1.25q-.65.1-1 .65-.4-.85-1.15-1.25h-.1q-.75.45-1.05 1.25-.4-.5-1.05-.65v-1.25q.6.15.95.7h.05l.05.05h.1q.05-.05.1-.05v-.05l.05-.05q-.05-.15 0-.3 0-.2.05-.35.05-.25.2-.45.25-.45.6-.7.35.25.65.7m.35.15q-.05-.15-.15-.3-.35-.55-.75-.8H303.45q-.45.25-.75.8-.1.15-.15.35-.25-.3-.55-.5v-1.2q.25.05.55.4.05.05.1.05h.1q.05 0 .1-.05 0-.05.05-.05.1-1.05.6-1.25.55.25.7 1.25l.05.05q0 .05.05.05h.1q.05 0 .1-.05.3-.35.6-.4v1.15q-.4.2-.6.5m0 2.5q.05.2.1.45.1.4.1.85-.05.05 0 .1t.1.05h.1q.05 0 .1-.05 0-.05.05-.1.05-1.05 1.05-1.15v1.95q-.75.4-1.1 1h-.05q-.6-1.15-1.35-1.75-.05-.05-.1 0-.05-.05-.05 0-.8.6-1.35 1.75v.05q-.45-.65-1.15-1.05V369q.95.1 1.05 1.15 0 .05.05.1 0 .05.05.05h.15q.05 0 .1-.05t.05-.1q0-.45.05-.8.05-.25.1-.4.25-.9 1-1.35.65.4.95 1.25m-.3-10.35q0 .3.05 1.05h-1.4q0-.85.05-1.05.1-.65.6-.65t.7.65m-2.1 14.05q.05-.15.15-.3 0-.1.05-.2.5-1 1.2-1.6.7.6 1.25 1.6 0 .1.05.2.1.15.15.35.3.7.35 1.4 0 .05.05.1 0 .05.05.05h.15q.05 0 .1-.05 0-.05.05-.05 0-.5.55-.9.35-.3.75-.4v2h-2.75q-.35-.4-.65-.6H303.45q-.35.2-.7.6h-2.65v-2q.3.1.7.4.5.4.6.9l.05.05q0 .05.05.05h.1q.05 0 .1-.05 0-.05.05-.1 0-.7.35-1.45m-.95 2.55q-.15-.05-.25-.1-.15-.1-.25-.15h2q-.4.4-.75.95l-.1.1q-.2-.5-.65-.8m-1.4 1.55q.25.1.55.45.45.45.6 1l.05.05q0 .05.05.05h.1q.05 0 .1-.05 0-.05.05-.1 0-.7.5-1.5.05-.2.2-.35.05-.15.15-.25.45-.7.9-1.1l.1-.1q.2-.2.4-.35.2.15.4.35.05.05.15.1.4.4.85 1.1.1.1.2.25t.2.35q.45.8.5 1.5 0 .05.05.1 0 .05.05.05h.15q.05 0 .1-.05 0-.05.05-.05.05-.55.5-1 .35-.35.65-.4v2.1h-2.7q-.55-.6-1.05-.95H303.45q-.55.35-1.1.95h-2.6v-2.15m-5.05 3.55q0 .05-.1.3-.05.1-.1.15-.05 0-.05-.05h-.05q0-.1.1-.2.1-.2.2-.2m.95.65q.25.2.45.2t.3-.25q.2-.5.7-.6v2.75q.05.15.45.2h.8v.55q-.05.05 0 .1l.05.05q.95.3 1.3 1.8.1.5.2 1.45-.35-.35-.75-.4-.05-.05-.1 0-.05 0-.05.05v1.85h-.7q-.35-1.5-1.95-2.05v-5.3q0-.05-.05-.1t-.1 0-.1 0q-.05.05 0 .1v7.45q-.05.05 0 .1t.1.05q.5.25 1 .8h-3.65v-5.75h.85v4.2q-.05.05 0 .1t.1.05q.05 0 .1-.05t.05-.1v-4.2h.75q.05 0 .1-.05t.05-.1v-1.35q0-.05-.05-.1t-.1 0q-.25-.05-.45-.2-.2-.15-.25-.3.15.1.5.2h-.05q.25.05.4.05.25 0 .3-.15.05-.2-.25-.5l-.9-.6.1-.2q.1-.15.15-.2l.7.45m2.95 2.75v-2.4q.35.15.8.55h-.05q.6.55.75 1.15l.05.05q0 .05.05.05h.1q.05 0 .1-.05 0-.05.05-.05.05-.75.5-1.6.1-.15.2-.35.2-.4.45-.75.5-.75 1-1.3l.1-.1q.4-.45.8-.7.4.25.8.7.05.05.15.1.5.55 1 1.3.25.35.45.7l.2.4q.4.85.5 1.55v.05l.05.05q0 .05.05.05h.15q.05 0 .1-.05 0-.05.05-.05.1-.6.65-1.15.4-.4.8-.55v2.4h-3.6q-.55-.85-1.25-1.3H303.45q-.75.45-1.25 1.3h-3.6m3.65-4.7q-.4.5-.85 1.15-.2.25-.35.5-.15-.6-.45-1.05-.15-.3-.35-.45l-.15-.15h2.15m.25 4.7q.4-.65 1-1.05.6.4 1.05 1.05 0 .05.05.1.55.85.95 2.1.4 1.6.45 3.3v.1q-.05.05 0 .1.05 0 .1.05h.3q0-.05.05-.05 0-.05.05-.1v-.1q.05-.6.3-1.15l.1-.2.2-.3q.3-.4.75-.5v2.7h-2.8q-.55-1.05-1.5-1.55h-.1q-.95.5-1.45 1.55h-2.75v-2.7q.35.1.7.55.05.1.15.25.05.1.15.25.2.5.3 1.1 0 .05.05.15l.1.1h.25q0-.05.05-.05.05-.05.05-.1v-.1q0-1.7.5-3.3.3-1.25.85-2.1l.1-.1m-9.2 7l.05.05q.45.4.65 1.35l.05.05q0 .05.05.05h1.8q.6 0 1.2.5.25.25.45.6h-5.25v-3q.6 0 1 .35v.05m.25-.15v-.55h3.85q.45.6.5 1.05 0 .05.05.1 0 .05.05.05 1.1 0 1.7.2v.55h-5.5q-.2-.95-.65-1.4m-.1 3.7h.05q-.05-.05-.05-.1l-.05-.05q-.2-.35-.6-.55h4.85q.1.25.1.6v3.65h-1.1q-.25-.05-.25.3v6.5q-.05.05 0 .1t.1.05q.05 0 .1-.05t.05-.1v-6.55h1.1v6.55q-.05.75-.75 1.4-.8.7-1.7.75h-3.05q.45-.25.8-.6.65-.7.65-1.55v-9.05q-.05-.9-.25-1.3m8.65-10.45q-.5.85-.8 2.05-.5 1.55-.5 3.2-.15-.7-.5-1.3l-.1-.2q-.1-1.2-.25-1.85-.3-1.25-.95-1.75-.1-.1-.2-.15h3.3m-3.1 5.15v.8h-1.5l-.05-.05q-.4-.5-.8-.75H299m3.25.8q.5-.9 1.25-1.3.8.4 1.3 1.3.05.1.1.25.15.25.25.6.35 1.2.25 2.2-.05 0 0 .05 0 .05.05.05l.05.05h.2l.05-.05h.05q.75-1.3 1.35-1.45v2.5h-7.2v-2.5q.6.1 1.25 1.4 0 .05.05.05l.05.05h.2q.05-.05.1-.05v-.05l.05-.05q-.1-1.05.25-2.2.1-.35.25-.6.05-.15.1-.25m-5.9-1.05v-1.75q1.35.5 1.7 1.75h-1.7m1.75 2.25q-.05-.45-.4-.95h2v1.1q-.6-.15-1.6-.15m-.85 1.55q-.25-.2-.45-.3h2.9v1.1h-1.9q-.2-.45-.55-.8m.75 1.65q-.05-.35-.1-.6h1.8v.6l.05.05q.65.45.7 1.9v8.5q-.05.7-.55 1.45-.55.65-1.1.7h-2.45q.4-.2.8-.55.85-.75.85-1.6v-10.45m3.65-3.65v.05q-.35 1.1-.25 2.15h-.05q-.7-1.4-1.4-1.5v-1.2h1.9q-.15.2-.2.5m-1.5 3.7h1.55v12.55h-2.15q.25-.2.55-.55.6-.8.6-1.6V396q0-1.35-.55-1.9m6-19.1q-.15.05-.2.1-.5.3-.75.85-.05-.1-.1-.15-.35-.55-.7-.95h2q-.15.05-.25.15m.65 4.05q-.25.15-.4.45-.3.4-.4 1.05-.2-.25-.35-.5-.45-.65-.85-1.15h2.15q-.1.05-.15.15m3.6 9.8q-.4.25-.8.75-.6.7-.7 1.25-.95 0-1.5.15v-1.1h.55q.05 0 .1-.05t.05-.1v-.9h2.3m-1.45-.25q.35-1.25 1.75-1.75v1.75h-1.75m-.7-4.9q-.1.05-.2.15-.65.5-.95 1.75-.15.55-.25 1.85-.1.1-.15.2-.4.65-.45 1.45-.05-1.7-.45-3.35-.35-1.2-.85-2.05h3.3m-1.1 6.2v1.2q-.65.1-1.5 1.45.1-1-.25-2.15v.05q-.1-.3-.2-.55h1.95m-5.2 4.2h3.2v12.55h-3.2V394.1m3.45 12.8h.75v17.25h-.75V406.9m-4.45 0h.75v17.25h-.75V406.9m-8.2-9.2q-.25-.05-.25.3v6.5q-.05.05 0 .1t.1.05q.05 0 .1-.05t.05-.1v-6.55h.7v6.55q-.05.75-.6 1.4-.7.7-1.7.75h-8.25q-.85-.05-1.4-.75-.5-.7-.5-1.4v-6.55h.8q.05 0 .05.05v6.5q-.05.05 0 .1t.1.05q.05 0 .1-.05t.05-.1V398q0-.35-.3-.3h-.8v-1.2h12.45v1.2h-.7m7.95 11.35v2.8h-24.95v-2.8h24.95m0 6.6v4.1h-24.95v-4.1h24.95m0-3.55v3.3h-24.95v-3.3h24.95m1.25-5.2h3.2v17.25h-3.2V406.9M300.7 420v4.15h-24.95V420h24.95m-26.4-13.1h1.2v17.25h-1.2V406.9m-5.2 0h1.2v17.25h-1.2V406.9m-.25 2.15v2.8h-10.9v-2.8h10.9m0 6.6v4.1H252.8v-4.1h16.05m0-3.55v3.3H255.5v-3.3h13.35m1.7-5.2h3.5v17.25h-3.5V406.9m-1.7 17.25h-19.2V420h19.2v4.15m14.9-26.45q-.25-.05-.25.3v6.5q-.05.05 0 .1t.1.05q.05 0 .1-.05t.05-.1v-6.55h1.05q.05 0 .05.05v6.5q-.05.05 0 .1t.1.05q.05 0 .1-.05t.05-.1V398q0-.35-.3-.3h-1.05m4.05 0h-1.05q-.25-.05-.25.3v6.5q-.05.05 0 .1t.1.05q.05 0 .1-.05t.05-.1v-6.55h1.05q.05 0 .05.05v6.5q-.05.05 0 .1t.1.05q.05 0 .1-.05t.05-.1V398q0-.35-.3-.3m1.95 0q-.25-.05-.25.3v6.5q-.05.05 0 .1t.1.05q.05 0 .1-.05t.05-.1v-6.55h1q.1 0 .1.05v6.5q-.05.05 0 .1t.1.05q.05 0 .1-.05t.05-.1V398q0-.3-.35-.3h-1m9.9 0h-.3q-.25-.05-.25.3v6.5q-.05.05 0 .1t.1.05q.05 0 .1-.05t.05-.1v-6.55h.3q.05 0 .1-.05t.05-.1q0-.05-.05-.1t-.1 0m-20.3.25q.05 0 .05.05v6.5q-.05.05 0 .1t.1.05q.05 0 .1-.05t.05-.1V398q0-.35-.3-.3h-1.05q-.25-.05-.25.3v6.5q-.05.05 0 .1t.1.05q.05 0 .1-.05t.05-.1v-6.55h1.05m-13.8-.25q-.25-.05-.25.3v6.5q-.05.05 0 .1t.1.05q.05 0 .1-.05t.05-.1v-6.55h1q.1 0 .1.05v6.5q-.05.05 0 .1t.1.05q.05 0 .1-.05t.05-.1V398q0-.3-.35-.3h-1m63.15.25q.1 0 .1.05v6.5q-.05.05 0 .1t.1.05q.05 0 .1-.05t.05-.1V398q0-.3-.35-.3h-1q-.3 0-.3.3v6.5q-.05.05 0 .1t.1.05q.05 0 .1-.05t.05-.1V398q0-.05.05-.05h1z"/></g><path fill="#EE3156" d="M301.9 404.4q-.042-.03-.1-.05h-38.6q-.058.02-.1.05-.03.042-.05.1.02.058.05.1.042.03.1 0h38.6q.058.03.1 0 .03-.042 0-.1.03-.058 0-.1z" id="d"/><path fill="#EE3156" d="M305.15 404.6q.042.03.1 0h38.6q.058.03.1 0 .03-.042 0-.1.03-.058 0-.1-.042-.03-.1-.05h-38.6q-.058.02-.1.05-.03.042-.05.1.02.058.05.1z" id="e"/><g id="k"><path fill="#EE3156" d="M334.8 373.5q-.023-.02-.05-.05-.027.03-.05.05-.45.235-.8.85-.197-.23-.6-.3-.014.015-.05 0-.032.042-.05.05-.022.06-.05.1v1.05q.025.041.05.05.03.06.05.05.623.212.9.65.02.043.05.05.023.02.05 0h1.05q.04.023.05 0 .059-.018.05-.05.202-.445.8-.65.07.01.1-.05.025-.008 0-.05v-1.05q.022-.04 0-.1-.018-.008-.05-.05-.036.015-.1 0-.359.071-.6.3-.295-.612-.75-.85m.6 1.15q.06.023.1 0h.1q.027.02.05 0 .03-.007.05-.05.137-.172.35-.25v.8q-.615.214-.85.65h-.9q-.281-.434-.9-.65v-.8q.263.078.4.25.02.043.05.05.023.02.05 0h.1q.04.023.05 0 .058-.018.05-.05.278-.618.65-.9.372.282.6.9.042.032.05.05z"/><path fill="#FFF" d="M335.5 374.65q-.04.023-.1 0-.008-.018-.05-.05-.228-.618-.6-.9-.372.282-.65.9.008.032-.05.05-.01.023-.05 0h-.1q-.027.02-.05 0-.03-.007-.05-.05-.137-.172-.4-.25v.8q.619.216.9.65h.9q.235-.436.85-.65v-.8q-.213.078-.35.25-.02.043-.05.05-.023.02-.05 0h-.1z"/></g><g id="l"><path fill="#EE3156" d="M336.5 375.75q-.036.015-.1 0-.359.07-.6.5-.172-.735-1-1.25-.01-.023-.05-.05-.04.027-.1.05-.779.515-.95 1.25-.24-.43-.65-.5-.014.015-.05 0-.032.042-.05.05-.022.06-.05.1v1.3q.03.027.05.05.007.03 0 .05.68.465.8.9.04.07.05.1.058.025.1 0h1.7q.042.025.05 0 .06-.03.05-.1.17-.435.8-.9.043-.02.05-.05.02-.023 0-.05v-1.3q.022-.04 0-.1-.018-.008-.05-.05m-.8.8h.1q.04.022.05 0 .045-.019.05-.05.176-.332.4-.45v1.05q-.608.503-.8.95H334q-.192-.446-.85-.95v-1.05q.275.118.45.45.005.031 0 .05.06.022.1 0h.1q.043.028.05 0 .065-.03.05-.1.121-.692.85-1.2.729.508.8 1.2l.05.1q.057.028.1 0z"/><path fill="#FFF" d="M335.8 376.55h-.1q-.043.028-.1 0l-.05-.1q-.071-.692-.8-1.2-.729.508-.85 1.2.015.07-.05.1-.007.028-.05 0h-.1q-.04.022-.1 0 .005-.019 0-.05-.175-.332-.45-.45v1.05q.658.504.85.95h1.5q.192-.447.8-.95v-1.05q-.224.118-.4.45-.005.031-.05.05-.01.022-.05 0z"/></g><g id="m"><path fill="#EE3156" d="M334.8 376.55q-.05.01-.1 0-.425.181-.95.9-.36.557-.55.9-.432-.536-.9-.55-.058.02-.1.05-.03.042-.05.1v1.15q.03.027.05.05.007.03 0 .05.935.579 1.2 1.25.042.032.05.05.06.023.1 0h2.4q.04.023.05 0 .058-.018.05-.05.315-.671 1.2-1.25.043-.02.05-.05.02-.023 0-.05v-1.15q.03-.058 0-.1-.042-.03-.1-.05-.464.014-.95.55-.135-.381-.5-.9-.472-.721-.95-.9m2.25 1.55v.9q-.873.607-1.2 1.25h-2.2q-.327-.642-1.25-1.25v-.9q.36.071.7.5.02.043.05.05.023.02.05 0h.1q.04.024.05 0 .06-.018.05-.05.166-.39.55-1 .445-.59.8-.75.399.162.8.75.383.561.5 1 .04.032.05.05.059.024.1 0h.1q.027.02.05 0 .03-.007.05-.05.34-.429.65-.5z"/><path fill="#FFF" d="M337.05 379v-.9q-.31.071-.65.5-.02.043-.05.05-.023.02-.05 0h-.1q-.041.024-.1 0-.01-.018-.05-.05-.117-.439-.5-1-.401-.588-.8-.75-.355.16-.8.75-.384.61-.55 1 .01.032-.05.05-.01.024-.05 0h-.1q-.027.02-.05 0-.03-.007-.05-.05-.34-.429-.7-.5v.9q.923.608 1.25 1.25h2.2q.327-.643 1.2-1.25z"/></g><g id="n"><path fill="#EE3156" d="M337.75 380q-.042-.03-.1-.05-.774.028-1.15.6-.196-1.256-1.7-2.5-.008-.027-.05-.05-.043.023-.1.05-1.454 1.244-1.65 2.5-.377-.572-1.15-.6-.058.02-.1.05-.03.042-.05.1v1.4q.046.029.05.05.984.818 1.15 1.85.037.07.05.1.057.027.1 0h3.45q.043.027.05 0 .063-.03.05-.1.214-.984 1.1-1.85.054-.022.05-.05v-1.4q.03-.058 0-.1m-1.2.9q.045-.019.05-.05.293-.574.9-.65v1.2q-.875.869-1.1 1.85h-3.25q-.224-1.03-1.2-1.85v-1.2q.657.077.95.65.005.031 0 .05.06.022.1 0h.1q.044.03.05 0 .066-.042.05-.1.123-1.264 1.55-2.5 1.427 1.236 1.5 2.5.034.058.05.1.056.03.1 0h.1q.04.022.05 0z"/><path fill="#FFF" d="M336.6 380.85q-.005.031-.05.05-.01.022-.05 0h-.1q-.044.03-.1 0-.016-.042-.05-.1-.073-1.264-1.5-2.5-1.427 1.236-1.55 2.5.016.058-.05.1-.006.03-.05 0h-.1q-.04.022-.1 0 .005-.019 0-.05-.293-.573-.95-.65v1.2q.976.82 1.2 1.85h3.25q.225-.981 1.1-1.85v-1.2q-.607.076-.9.65z"/></g><g id="o"><path fill="#EE3156" d="M334.75 380.05l-.1.05q-2.065 1.898-2.3 4.15-.44-.883-1.35-1-.014.028-.05.05-.032.005-.05 0-.022.06-.05.1v2.3q.024.042.05.05.03.062.05.05 1.128.324 1.1 2.8.02.058.05.1.042.03.1 0h5.1q.058.03.1 0 .03-.042 0-.1.022-2.476 1.1-2.8.07.012.1-.05.026-.008 0-.05v-2.3q.022-.04 0-.1-.018.005-.05 0-.036-.022-.1-.05-.863.117-1.3 1-.225-2.34-2.35-4.15-.007-.028-.05-.05m-2.6 4.5q.041.032.05.05.06.023.1 0h.15q.044.03.05 0 .066-.042.05-.1.168-2.255 2.2-4.15 2.031 1.8 2.15 4.15.033.058.05.1.056.03.1 0h.15q.04.023.05 0 .059-.018.05-.05.362-.84 1.05-1v2.05q-1.144.373-1.2 2.85h-4.85q-.006-2.477-1.2-2.85v-2.05q.738.16 1.05 1z"/><path fill="#FFF" d="M332.2 384.6q-.009-.018-.05-.05-.312-.84-1.05-1v2.05q1.194.373 1.2 2.85h4.85q.056-2.477 1.2-2.85v-2.05q-.688.16-1.05 1 .009.032-.05.05-.01.023-.05 0h-.15q-.044.03-.1 0-.017-.042-.05-.1-.119-2.35-2.15-4.15-2.032 1.895-2.2 4.15.016.058-.05.1-.006.03-.05 0h-.15q-.04.023-.1 0z"/></g><g id="p"><path fill="#EE3156" d="M330.75 386.65q-.031.006-.05 0-.022.06-.05.1v2.3q.023.042.05.05.03.063.05.05 1.38.317 1.45 2.4.033.057.05.1.056.03.1 0h4.8q.044.03.05 0 .067-.043.05-.1.12-2.083 1.5-2.4.07.013.1-.05.027-.008 0-.05v-2.3q.021-.04 0-.1-.019.006-.05 0l-.05-.05q-1.454.119-1.7 1.4-.074-1.046-.65-2.2-.595-1.384-1.6-2.1-.009-.025-.05-.05-.042.025-.1.05-.904.717-1.6 2.1-.491 1.174-.6 2.25-.22-1.331-1.65-1.45l-.05.05m.15 2.3v-2.1q1.285.188 1.3 1.6.033.058.05.1.055.03.1 0h.2q.044.03.05 0 .067-.043.05-.1.08-1.226.65-2.55.627-1.262 1.45-1.95.87.69 1.4 1.95.668 1.324.65 2.55.02.058.05.1.042.03.1 0h.2q.045.03.05 0 .067-.042.05-.1.065-1.417 1.35-1.6v2.1q-1.431.346-1.6 2.45h-4.55q-.118-2.101-1.55-2.45z"/><path fill="#FFF" d="M330.9 386.85v2.1q1.432.349 1.55 2.45H337q.169-2.104 1.6-2.45v-2.1q-1.285.183-1.35 1.6.017.058-.05.1-.005.03-.05 0h-.2q-.058.03-.1 0-.03-.042-.05-.1.018-1.226-.65-2.55-.53-1.26-1.4-1.95-.823.688-1.45 1.95-.57 1.324-.65 2.55.017.057-.05.1-.006.03-.05 0h-.2q-.045.03-.1 0-.017-.042-.05-.1-.015-1.412-1.3-1.6z"/></g><g id="q"><path fill="#EE3156" d="M331.55 393.25q.06.022.1 0h6.2q.04.022.05 0 .045-.019.05-.05.022-.023 0-.05-.23-3.56-3.15-5.75-.009-.025-.05-.05-.041.025-.1.05-2.871 2.19-3.15 5.75l.05.05q.005.031 0 .05m3.2-5.6q2.682 2.068 2.95 5.35h-5.95q.318-3.282 3-5.35z"/><path fill="#FFF" d="M337.7 393q-.268-3.282-2.95-5.35-2.682 2.068-3 5.35h5.95z"/></g><g id="r"><path fill="#EE3156" d="M333.5 390.85q-.54 1.189-.65 2 .027.063 0 .1.01-.038 0-.1-.591-1.373-2.05-1.6-.014.015-.05 0-.032.042-.05.05-.022.06-.05.1v2.7q.02.058.05.1.042.03.1 0h7.9q.058.03.1 0 .03-.042 0-.1v-2.7q.023-.04 0-.1-.018-.008-.05-.05-.036.014-.1 0-1.406.279-2 1.6-.01.062-.05.1.023-.037 0-.1-.072-.854-.65-2-.537-1.182-1.1-1.75-.043-.03-.1-.05-.058.02-.1.05-.563.568-1.15 1.75m-.45 2.25q.066-.042.05-.1.082-.83.65-2.05.513-1.014 1-1.55.487.536.95 1.55h.05q.58 1.172.6 2.05.033.058.05.1.056.03.1 0h.25q.04.023.05 0 .059-.018.05-.05.516-1.212 1.7-1.5v2.4h-7.65v-2.4q1.233.245 1.7 1.5.041.032.05.05.06.023.1 0h.25q.044.03.05 0z"/><path fill="#FFF" d="M333.1 393q.016.058-.05.1-.006.03-.05 0h-.25q-.04.023-.1 0-.009-.018-.05-.05-.467-1.255-1.7-1.5v2.4h7.65v-2.4q-1.184.288-1.7 1.5.009.032-.05.05-.01.023-.05 0h-.25q-.044.03-.1 0-.017-.042-.05-.1-.02-.878-.6-2.05h-.05q-.463-1.014-.95-1.55-.487.536-1 1.55-.568 1.22-.65 2.05z"/></g><path id="f" stroke="#EE3156" stroke-width=".25" stroke-linejoin="round" stroke-linecap="round" fill="none" d="M103.234 33.803h-6.481"/><path id="g" stroke="#EE3156" stroke-width=".25" stroke-linejoin="round" stroke-linecap="round" fill="none" d="M104.067 35.516h-8.148"/><path id="h" stroke="#EE3156" stroke-width=".25" stroke-linejoin="round" stroke-linecap="round" fill="none" d="M104.946 37.485H95.04"/><path id="i" stroke="#EE3156" stroke-width=".25" stroke-linejoin="round" stroke-linecap="round" fill="none" d="M105.456 40.256H94.53"/><path id="j" stroke="#EE3156" stroke-width=".25" stroke-linejoin="round" stroke-linecap="round" fill="none" d="M105.27 43.173H94.762"/></defs><use xlink:href="#a" transform="matrix(.92587 0 0 .72917 -181 -232.6)"/><use xlink:href="#b" transform="matrix(.9259 0 0 .72917 -181 -232.6)"/><use xlink:href="#c" transform="matrix(.9259 0 0 .72917 -181 -232.6)"/><use xlink:href="#d" transform="matrix(.92587 0 0 .72917 -181 -232.6)"/><use xlink:href="#e" transform="matrix(.92587 0 0 .72917 -181 -232.6)"/><use xlink:href="#f" transform="matrix(1 0 0 1 -.044 -.03)"/><use xlink:href="#g" transform="matrix(1 0 0 1 -.044 -.03)"/><use xlink:href="#h" transform="matrix(1 0 0 1 -.044 -.03)"/><use xlink:href="#i" transform="matrix(1 0 0 1 -.044 -.03)"/><use xlink:href="#j" transform="matrix(1 0 0 1 -.044 -.03)"/><use xlink:href="#k" transform="matrix(.92587 0 0 .72917 -181 -232.6)"/><use xlink:href="#l" transform="matrix(.92587 0 0 .72917 -181 -232.6)"/><use xlink:href="#m" transform="matrix(.92587 0 0 .72917 -181 -232.6)"/><use xlink:href="#n" transform="matrix(.92587 0 0 .72917 -181 -232.6)"/><use xlink:href="#o" transform="matrix(.92587 0 0 .72917 -181 -232.6)"/><use xlink:href="#p" transform="matrix(.92587 0 0 .72917 -181 -232.6)"/><use xlink:href="#q" transform="matrix(.92587 0 0 .72917 -181 -232.6)"/><use xlink:href="#r" transform="matrix(.92587 0 0 .72917 -181 -232.6)"/></svg>