<svg xmlns="http://www.w3.org/2000/svg" xmlns:xlink="http://www.w3.org/1999/xlink" preserveAspectRatio="none" width="200" height="105"><defs><g id="a"><path fill="#3D8E33" d="M50 26.25L0 0v105l50-26.25 50-26.25-50-26.25m-5.2 8l-3 1.85 1.1 3.05L40 37.3l-2.9 1.85 1.1-3.05-3-1.85h3.7L40 31.2l1.1 3.05h3.7m0 11.2l-3 1.9 1.1 3.05-2.9-1.9-2.9 1.9 1.1-3.05-3-1.9h3.7l1.1-2.9 1.1 2.9h3.7m-35.7-2.2q2.1-4.2 5.8-7.45 3.7-3.25 8.6-5.05 5-1.85 10.5-1.85 3.1 0 6 .6-2.3.45-4.5 1.25-4.9 1.8-8.6 5.05-3.7 3.25-5.8 7.45-1.227 2.571-1.75 5.3-.343 1.898-.35 3.85v.1q0 4.85 2.1 9.25.756 1.513 1.7 2.9 1.095 1.54 2.4 2.9.812.87 1.7 1.65 3.7 3.25 8.6 5.05 2.2.85 4.5 1.35-2.9.55-6 .55-5.5 0-10.5-1.9-4.9-1.8-8.6-5.05-3.7-3.25-5.8-7.45Q7 57.35 7 52.5t2.1-9.25M40 59.85l-2.9 1.8 1.1-2.95-3-1.9h3.7l1.1-3.05 1.1 3.05h3.7l-3 1.9 1.1 2.95-2.9-1.8m-1.1 8.2L40 65l1.1 3.05h3.7l-3 1.9L42.9 73 40 71.1 37.1 73l1.1-3.05-3-1.9h3.7z"/><path fill="#FFF" d="M40 65l-1.1 3.05h-3.7l3 1.9L37.1 73l2.9-1.9 2.9 1.9-1.1-3.05 3-1.9h-3.7L40 65m0-5.15l2.9 1.8-1.1-2.95 3-1.9h-3.7L40 53.75l-1.1 3.05h-3.7l3 1.9-1.1 2.95 2.9-1.8M14.9 35.8q-3.7 3.25-5.8 7.45Q7 47.65 7 52.5t2.1 9.25q2.1 4.2 5.8 7.45 3.7 3.25 8.6 5.05 5 1.9 10.5 1.9 3.1 0 6-.55-2.3-.5-4.5-1.35-4.9-1.8-8.6-5.05-.888-.78-1.7-1.65-1.305-1.36-2.4-2.9-.944-1.387-1.7-2.9-2.1-4.4-2.1-9.25v-.1q.007-1.952.35-3.85.523-2.729 1.75-5.3 2.1-4.2 5.8-7.45 3.7-3.25 8.6-5.05 2.2-.8 4.5-1.25-2.9-.6-6-.6-5.5 0-10.5 1.85-4.9 1.8-8.6 5.05m26.9 11.55l3-1.9h-3.7l-1.1-2.9-1.1 2.9h-3.7l3 1.9-1.1 3.05 2.9-1.9 2.9 1.9-1.1-3.05m0-11.25l3-1.85h-3.7L40 31.2l-1.1 3.05h-3.7l3 1.85-1.1 3.05L40 37.3l2.9 1.85-1.1-3.05M200 52.5V26.25H50l50 26.25h100z"/><path fill="#3A75C4" d="M200 105V78.75H50L0 105h200z"/><path fill="#CE1126" d="M200 78.75V52.5H100L50 78.75h150z"/><path fill="#FFC61E" d="M200 26.25V0H0l50 26.25h150z"/></g></defs><use xlink:href="#a"/></svg>