<svg xmlns="http://www.w3.org/2000/svg" xmlns:xlink="http://www.w3.org/1999/xlink" preserveAspectRatio="none" width="200" height="105"><defs><g id="a"><path fill="#FFE900" d="M.1 104.9h.1v-4.45l-.1 4.45m.1-29.3l-.1 5.75L166 0h-10.4L.2 75.6M182.8.1l16.7.2.2 20.6-165.4 84h8.8l156.5-78.55.2 9.85V0l-17 .1z"/><path fill="#35A100" d="M0 0l.2 75.6L155.6 0H0z"/><path fill="#C70000" d="M199.8 36.2l-.2-9.85L43.1 104.9l-.2.1 157.1-.1-.2-68.7z"/><path d="M199.5.3L182.8.1 166 0 .1 81.35l.1 19.1V105h33.9l.2-.1 165.4-84-.2-20.6M122 37.15l10.3-5-2.7-8.75 9 5.6 10.3-5.05-4.7 8.5 9 5.55-11.9-.3-4.7 8.4-2.7-8.6-11.9-.35m-57.9 28.6l10.3-5.05-4.7 8.4 9 5.55-11.9-.3-4.7 8.5-2.7-8.7-11.9-.35 10.3-5.05-2.7-8.6 9 5.6z"/><path fill="#FFF" d="M74.4 60.7l-10.3 5.05-9-5.6 2.7 8.6-10.3 5.05 11.9.35 2.7 8.7 4.7-8.5 11.9.3-9-5.55 4.7-8.4m57.9-28.55l-10.3 5 11.9.35 2.7 8.6 4.7-8.4 11.9.3-9-5.55 4.7-8.5L138.6 29l-9-5.6 2.7 8.75z"/></g></defs><use xlink:href="#a"/></svg>