<svg xmlns="http://www.w3.org/2000/svg" xmlns:xlink="http://www.w3.org/1999/xlink" preserveAspectRatio="none" width="200" height="105"><defs><path fill="#FFF" d="M182.5 465.5h216v-144h-216v144z" id="a"/><path fill="#0067AC" d="M258.05 386.7q-1.5-6.75 2.25-12.8-8.15 12.5-5.05 27.1 3.05 14.55 15.55 22.7 12.6 8.2 27.25 5.15 14.8-3.1 22.6-15.7 3.75-6.05 2.2-12.8-1.4-6.3-6.6-10.35-5.35-4.2-11.95-3.7-7.4.6-13.85 7.2-6.45 6.6-13.85 7.2-6.6.5-11.95-3.7-5.15-4.05-6.6-10.3z" id="b"/><path fill="#EE333E" d="M260.25 373.9q-3.75 6.05-2.2 12.8 1.4 6.25 6.6 10.3 5.35 4.2 11.95 3.7 7.4-.6 13.85-7.2 6.45-6.6 13.85-7.2 6.6-.5 11.95 3.7 5.2 4.05 6.6 10.35 1.5 6.75-2.25 12.8 8.15-12.5 5.05-27.05-3.05-14.6-15.55-22.75-12.6-8.2-27.25-5.15-14.8 3.05-22.6 15.7z" id="c"/><path fill="#373535" d="M330.4 441.75l9.15-13.75-5-3.3-9.15 13.7 5 3.35z" id="d"/><path fill="#373535" d="M341.2 425.55l9.15-13.75-5-3.35-9.15 13.75 5 3.35z" id="e"/><path fill="#373535" d="M342.05 429.7l-9.15 13.7 5 3.35 9.15-13.75-5-3.3z" id="f"/><path fill="#373535" d="M348.7 430.5l9.15-13.7-5-3.35-9.15 13.75 5 3.3z" id="g"/><path fill="#373535" d="M354.5 438l-4.95-3.3-9.15 13.7 4.95 3.35L354.5 438z" id="h"/><path fill="#373535" d="M351.2 432.2l5 3.3 9.15-13.7-5-3.35-9.15 13.75z" id="i"/><path fill="#373535" d="M240.55 338.6l-5-3.35-19.95 29.95 5 3.35 19.95-29.95z" id="j"/><path fill="#373535" d="M223.05 370.2l5 3.35 20-29.95-5-3.35-20 29.95z" id="k"/><path fill="#373535" d="M230.55 375.2l5 3.35 19.95-29.95-4.95-3.35-20 29.95z" id="l"/><path fill="#373535" d="M223.05 416.8l9.15 13.75 5-3.35-9.15-13.75-5 3.35z" id="m"/><path fill="#373535" d="M243 446.75l5-3.3-9.15-13.75-5 3.3 9.15 13.75z" id="n"/><path fill="#373535" d="M250.5 441.75l5-3.3-19.95-29.95-5 3.3 19.95 29.95z" id="o"/><path fill="#373535" d="M220.55 418.45l-5 3.35 20 29.95 5-3.35-20-29.95z" id="p"/><path fill="#373535" d="M337.9 340.25l-5 3.35 20 29.95 4.95-3.35-19.95-29.95z" id="q"/><path fill="#373535" d="M345.4 335.25l-5 3.35 9.15 13.75 5-3.35-9.15-13.75z" id="r"/><path fill="#373535" d="M351.2 354.85l9.15 13.7 5-3.3-9.15-13.75-5 3.35z" id="s"/><path fill="#373535" d="M325.4 348.6l9.2 13.7 4.95-3.3-9.15-13.75-5 3.35z" id="t"/><path fill="#373535" d="M336.25 364.8l9.15 13.75 5-3.35-9.15-13.7-5 3.3z" id="u"/></defs><use xlink:href="#a" transform="matrix(.92589 0 0 .72917 -168.95 -234.45)"/><use xlink:href="#b" transform="matrix(.92589 0 0 .72917 -168.95 -234.45)"/><use xlink:href="#c" transform="matrix(.92589 0 0 .72917 -168.95 -234.45)"/><use xlink:href="#d" transform="matrix(.92586 0 0 .72917 -168.95 -234.45)"/><use xlink:href="#e" transform="matrix(.92586 0 0 .72917 -168.95 -234.45)"/><use xlink:href="#f" transform="matrix(.92586 0 0 .72917 -168.95 -234.45)"/><use xlink:href="#g" transform="matrix(.92586 0 0 .72917 -168.95 -234.45)"/><use xlink:href="#h" transform="matrix(.92586 0 0 .72917 -168.95 -234.45)"/><use xlink:href="#i" transform="matrix(.92586 0 0 .72917 -168.95 -234.45)"/><use xlink:href="#j" transform="matrix(.92586 0 0 .72917 -168.95 -234.45)"/><use xlink:href="#k" transform="matrix(.92586 0 0 .72917 -168.95 -234.45)"/><use xlink:href="#l" transform="matrix(.92586 0 0 .72917 -168.95 -234.45)"/><use xlink:href="#m" transform="matrix(.92586 0 0 .72917 -168.95 -234.45)"/><use xlink:href="#n" transform="matrix(.92586 0 0 .72917 -168.95 -234.45)"/><use xlink:href="#o" transform="matrix(.92586 0 0 .72917 -168.95 -234.45)"/><use xlink:href="#p" transform="matrix(.92586 0 0 .72917 -168.95 -234.45)"/><use xlink:href="#q" transform="matrix(.92586 0 0 .72917 -168.95 -234.45)"/><use xlink:href="#r" transform="matrix(.92586 0 0 .72917 -168.95 -234.45)"/><use xlink:href="#s" transform="matrix(.92586 0 0 .72917 -168.95 -234.45)"/><use xlink:href="#t" transform="matrix(.92586 0 0 .72917 -168.95 -234.45)"/><use xlink:href="#u" transform="matrix(.92586 0 0 .72917 -168.95 -234.45)"/></svg>