<svg xmlns="http://www.w3.org/2000/svg" xmlns:xlink="http://www.w3.org/1999/xlink" preserveAspectRatio="none" width="200" height="105"><defs><path fill="#21467B" d="M146.45 465.5H434.5V321.55H146.45V465.5z" id="a"/><path fill="#FFF" d="M146.45 321.55v8.75l30.4 15.2h-30.4v24.05h30.4l-30.4 15.2v8.75h17.4l42.5-21.15v21.15h23.9v-21.15l42.5 21.15h17.5v-8.75l-30.5-15.2h30.5V345.5h-30.5l30.5-15.2v-8.75h-17.5l-42.5 21.15v-21.15h-23.9v21.15l-42.5-21.15h-17.4z" id="b"/><path fill="#E1474A" d="M230.95 345.55h11.5l47.8-24h-11.3l-48 24z" id="d"/><path fill="#E1474A" d="M290.25 393.5v-5.7l-36.3-18.3H242.4l47.85 24z" id="e"/><path fill="#E1474A" d="M146.45 321.55v5.7l36.5 18.3h11.6l-48.1-24z" id="f"/><path fill="#E1474A" d="M146.45 393.5h11.5l48-24h-11.5l-48 24z" id="g"/><path fill="#E1474A" d="M146.45 350.5v14.05h65v28.95h14.05v-28.95h64.75V350.5H225.5v-28.95h-14.05v28.95h-65z" id="h"/><path fill="#FFF" d="M340 370.9q-9.35 9.3-9.35 22.5 0 13.15 9.35 22.5 9.3 9.3 22.5 9.3 13.15 0 22.5-9.3 9.3-9.35 9.3-22.5 0-13.2-9.3-22.5-9.35-9.35-22.5-9.35-13.2 0-22.5 9.35z" id="i"/><g id="k"><path fill="#373535" d="M349.15 402.55l-.15.2.8.8v-.05q.948 1.175.25 2.9-.507 1.423-1.85 2.7-1.657 1.628-2.4 1.95-1.887.844-3.8-.7-.322-.284-.7 0-.326.268-.7 1-.645 1.502-.15 2.9.49 1.108 2.5 1.5 2.412.53 4.85-.8 1.828-1.01 3.15-2.65 1.313-1.534 2.45-4.15.926-1.908-.45-2.75-2.054-1.247-2.6-1.8h-.05l-.75-.7h-.05l-.35-.35m3.65 3.05q1.174.758.35 2.45-1.113 2.584-2.4 4.1-1.278 1.609-3.05 2.6-2.362 1.27-4.7.75-1.84-.358-2.3-1.35-.455-1.302.15-2.7.326-.668.6-.9.222-.166.4 0 2.037 1.656 4.05.75.757-.328 2.45-2 1.407-1.323 1.95-2.8.573-1.414.1-2.5.698.58 2.4 1.6z"/><path fill="#FFEA97" d="M353.15 408.05q.824-1.692-.35-2.45-1.702-1.02-2.4-1.6.473 1.086-.1 2.5-.543 1.477-1.95 2.8-1.693 1.672-2.45 2-2.013.906-4.05-.75-.178-.166-.4 0-.274.232-.6.9-.605 1.398-.15 2.7.46.992 2.3 1.35 2.338.52 4.7-.75 1.772-.991 3.05-2.6 1.287-1.516 2.4-4.1z"/></g><g id="l"><path fill="#373535" d="M374.95 403.35l-.3.25q-.197.205-2.7 1.8-1.219.79-.45 2.75 1.187 2.616 2.5 4.15 1.322 1.641 3.2 2.65 2.438 1.33 4.75.8 2.057-.394 2.55-1.5.545-1.398-.15-2.9-.35-.757-.7-1-.37-.32-.7 0-1.863 1.544-3.75.7-.743-.322-2.45-1.95-1.294-1.276-1.9-2.7-.595-1.706.25-2.85l.05-.05v.05l.25-.2v-.05l.25-.25-.2-.15-.25.25-.25.2m-2.85 2.25q1.86-1.168 2.45-1.6-.437 1.075.05 2.5.644 1.476 2 2.8 1.743 1.672 2.5 2 2.013.906 4-.75h.05q.17-.18.35-.05.312.257.65.95h-.05q.655 1.398.15 2.7-.457.994-2.35 1.35-2.238.52-4.6-.75-1.822-.991-3.1-2.6-1.287-1.516-2.45-4.1-.682-1.74.35-2.45z"/><path fill="#FFEA97" d="M374.55 404q-.59.432-2.45 1.6-1.032.71-.35 2.45 1.163 2.584 2.45 4.1 1.278 1.609 3.1 2.6 2.362 1.27 4.6.75 1.893-.356 2.35-1.35.505-1.302-.15-2.7h.05q-.338-.693-.65-.95-.18-.13-.35.05h-.05q-1.987 1.656-4 .75-.757-.328-2.5-2-1.356-1.324-2-2.8-.487-1.425-.05-2.5z"/></g><g id="m"><path fill="#373535" d="M378.7 405.35q.022.619-.6 1.6-5.466 9.168-15.6 9.15-10.084.018-15.65-9.15v.05q-.574-1.019-.6-1.65-.014-.6.45-1.2l.05-.05q.112-.122.25-.25l-.2-.2q-.152.163-.25.3-1.127 1.196-2.55 1.8-1.005.503-1.25 1.25-.255.743.25 1.75 3.267 6.184 9.4 9.25 4.824 2.42 10.1 2.4 5.276.02 10.15-2.4 6.134-3.066 9.35-9.25.532-1.007.25-1.75-.22-.748-1.25-1.25-1.424-.605-2.7-1.95l-.35-.35-.2.15.35.35q.617.737.6 1.4m-.4 1.75q.678-1.069.65-1.75.029-.327-.1-.7.983.891 2.05 1.35.92.448 1.15 1.1.218.657-.25 1.55-3.184 6.116-9.25 9.15-4.826 2.38-10.05 2.35-5.224.03-10-2.35-6.067-3.034-9.3-9.15-.445-.893-.25-1.55.255-.653 1.15-1.1 1.08-.465 2-1.25-.102.298-.1.6.024.669.65 1.75 5.634 9.282 15.85 9.25 10.266.032 15.8-9.25z"/><path fill="#FFEA97" d="M378.95 405.35q.028.681-.65 1.75-5.534 9.282-15.8 9.25-10.216.032-15.85-9.25-.626-1.081-.65-1.75-.002-.302.1-.6-.92.785-2 1.25-.895.447-1.15 1.1-.195.657.25 1.55 3.233 6.116 9.3 9.15 4.776 2.38 10 2.35 5.224.03 10.05-2.35 6.066-3.034 9.25-9.15.468-.893.25-1.55-.23-.652-1.15-1.1-1.067-.459-2.05-1.35.129.373.1.7z"/></g><path fill="#E1474A" d="M349.2 408.15q1-1.2 1.2-2.5.25-1.55-.85-2.55-.55-.45-1.35-.2-.6.2-1.15.75-.9.85-.9 1.65-.05.65.6 1.75l1.05 1.55q.2-.65.75-.8.55-.2.65.35z" id="n"/><path fill="#E1474A" d="M376.8 402.9q-.85-.25-1.4.2-1.1 1-.85 2.55.25 1.25 1.25 2.5.1-.55.6-.35.55.15.8.8l1-1.55q.65-1.05.65-1.75-.05-.8-.9-1.65-.55-.55-1.15-.75z" id="p"/><path fill="#E1474A" d="M340.6 414.2q-.25-.9.55-1.2.85-.35 2 .35l-1.6-3.75q-.3-.75-.8-1.2-.55-.55-1.1-.4-.55.2-.6.65-.05.2.1.9 1.05 3.95 1.45 4.65z" id="r"/><path fill="#E1474A" d="M383.85 413q.8.3.55 1.2.75-1.3 1.4-4.65.2-.65.15-.9-.05-.45-.6-.65-.55-.15-1.1.4-.5.45-.8 1.2l-1.6 3.75q1.15-.7 2-.35z" id="t"/><g id="v"><path fill="#373535" d="M348.85 381.4v14.25q.023 8.45 3.9 13.2 2.965 3.653 9.7 6.5h.1q6.735-2.847 9.7-6.5 3.876-4.75 3.85-13.2V381.4h-27.25m.25 14.25v-14h26.75v14q.023 8.35-3.8 13.05-2.924 3.583-9.55 6.4-6.626-2.817-9.55-6.4-3.824-4.7-3.85-13.05z"/><path fill="#FFF" d="M349.1 381.65v14q.026 8.35 3.85 13.05 2.924 3.583 9.55 6.4 6.626-2.817 9.55-6.4 3.823-4.7 3.8-13.05v-14H349.1z"/></g><g id="w"><path fill="#373535" d="M348.85 391.1h.15q1.17.029 1.85.25.65.22 1.25.8.85.77 1.55.8h.05q.937.126 2.1-.8 1.188-.919 2.35-.9.945.128 1.7.9 1.503 1.491 2.65 1.45 1.2.03 2.6-1.5v.05q.757-.762 1.7-.9 1.174-.009 2.3.9 1.213.925 2.2.8.686-.017 1.5-.8.65-.58 1.25-.8h.05q.68-.221 1.85-.25h.1v-9.7h-27.2v9.7m4.85 1.6q-.663-.033-1.45-.75-.65-.62-1.35-.85h.05q-.682-.216-1.85-.25v-9.2h26.7v9.2q-1.118.034-1.8.25-.65.23-1.35.85-.736.717-1.35.75h-.05q-.878.113-2-.75-1.212-.981-2.45-.95-1.055.122-1.9.95-1.3 1.42-2.4 1.4-1.053.009-2.45-1.4-.833-.828-1.9-.95-1.238-.031-2.5.95-1.071.862-1.95.75z"/><path fill="#E1474A" d="M353.7 392.7q.879.112 1.95-.75 1.262-.981 2.5-.95 1.067.122 1.9.95 1.397 1.409 2.45 1.4 1.1.02 2.4-1.4.845-.828 1.9-.95 1.238-.031 2.45.95 1.122.863 2 .75h.05q.614-.033 1.35-.75.7-.62 1.35-.85.682-.216 1.8-.25v-9.2h-26.7v9.2q1.168.034 1.85.25h-.05q.7.23 1.35.85.787.717 1.45.75z"/></g><path fill="#6FB0E0" d="M349 394.8v.85q0 1.8.15 3.35.8 0 1.15.1.7.15 1.45.8 1.4 1.1 4 0 1.5-.65 1.65-.7 1-.3 2.05.3 2.15 1.2 3.05 1.2.65 0 3.05-1.2 1-.6 2.05-.3.2.05 1.65.7 2.6 1.1 4 0 .75-.65 1.45-.8.35-.1 1.15-.1.15-1.55.15-3.35v-.85q-.75-.15-1.3.05-.45.2-1.3.95-1.25 1.15-3.9.1-1.5-.75-2.25-.9-1.3-.2-2.3.9-1.05 1.3-2.45 1.3-1.3 0-2.5-1.3-.95-1.1-2.25-.9-1.45.6-2.25.9-2.65 1.05-3.9-.1-.85-.75-1.3-.95-.6-.25-1.3-.05z" id="x"/><path fill="#6FB0E0" d="M365.25 406.2q1.3-.8 4.4.5 1.1.45 1.9.55.7.05 1.8-.2 1.25-2.1 1.9-4.7-.6-.15-1.05.1-.25.15-.7.5-.65.45-1.55.5-.95.05-2-.45-1.25-.6-1.95-.7-1-.15-2 .4-1.85 1.05-3.5 1.05-1.7 0-3.55-1.05-.95-.55-1.95-.4-.7.1-1.95.7-1 .5-2 .45-.9-.05-1.55-.5-.45-.35-.7-.5-.5-.25-1.05-.1.55 2.55 1.85 4.7 1.15.25 1.85.2.8-.1 1.9-.55 3.05-1.3 4.4-.5 1.3.9 2.75.9t2.75-.9z" id="z"/><path fill="#6FB0E0" d="M367.4 410.1q-1.05 0-1.95.5-1.65.8-2.95.8-1.3 0-2.95-.8-.9-.5-1.95-.5-.95-.05-1.35.3-.3.2-.7.3-.7.1-.75.1 2.7 2.4 7.7 4.45 5-2.05 7.7-4.45-.05 0-.75-.1-.4-.1-.7-.3-.4-.35-1.35-.3z" id="B"/><path fill="#FFF" d="M356.95 381.55q.35-.1 1.15-.45.65-.3.95-.3.4-.05-.7-1.05-1.05-1-1.7-1.2-.8-.2-1.95.5-.45.3-.55.9-.05.65.4 1.05.6.55 1.15.65.45.05 1.25-.1z" id="D"/><path fill="#FFF" d="M359.2 378.1q.2.1.65 1.1.5 1 .95 1.25.4.25 1.5.2.95-.05 1.3-.25-.4-.3-1.1-2.2-.3-.7-1.75-.55-1.25.15-1.55.45z" id="F"/><path fill="#FFF" d="M368.6 379.95q-.05-.85-.15-1.15-.15-.45-.5-.6-.25-.15-1-.2-1.2-.15-1.55.15.15.15.4 1.25.3 1.05.7 1.35.35.35 1.25.4.8.1 1.15-.05-.2-.4-.3-1.15z" id="H"/><path fill="#21467B" d="M371.25 380.95q.7-1.7-1.5-2.35-1-.3-1.4-.05.1.15.25 1.35.05 1.1.5 1.45.45.3 1.15.25.75-.1 1-.65z" id="J"/><path fill="#21467B" d="M362.25 377.85q.2.15.55 1.2.35 1.05.8 1.35.4.3 1.5.3 1.05 0 1.2-.15-.25-.35-.45-1.05-.2-.95-.3-1.2-.25-.75-1.75-.75-1.25.05-1.55.3z" id="L"/><path fill="#21467B" d="M357.9 380.6q.55.35 1.2.25.15 0 1.75-.35-.55-.25-1.1-1.65-.3-.7-.55-.8-.3-.15-1.25-.1-1.75.2-1.8.55.1.05.2.5.15.3.6.8.5.55.95.8z" id="N"/><path fill="#FFD761" d="M359.55 372.55l.1-1.35q-2.8-2.15-4.95-2.5.75.5 2.5 1.85 1.75 1.4 2.35 2z" id="P"/><path fill="#FFD761" d="M359.55 371.55l.95-1.45q-3.9-2.6-5.9-2.75 1.1.55 2.55 1.8 1.45 1.25 2.4 2.4z" id="R"/><path fill="#FFD761" d="M362.8 368.05l1.6 1.05q.5-1.75.8-2.85.65-2.1 1.1-3-2.4 2.4-3.5 4.8z" id="T"/><path fill="#FFD761" d="M365.3 369.15q.3-1.2 1.15-2.85.9-1.75 1.6-2.4-2.35 1.1-3.65 3.85l.9 1.4z" id="V"/><path fill="#FFD761" d="M365.05 369.15l.5 1.65q.55-.95 2.2-3 1.65-2.05 3-3.45-3.2 1.25-5.7 4.8z" id="X"/><path fill="#FFD761" d="M366 370.75l-.3 1.95q.95-1 3.15-2.15 1.7-.9 2.95-1.3-2.15-.45-5.8 1.5z" id="Z"/><path fill="#FFD761" d="M365.75 370.2l-.1 2q2.25-2.5 5.9-6-3 .95-5.8 4z" id="ab"/><path fill="#FFD761" d="M361.35 370.8l.9-1.35q-1.5-4.95-4.05-5.95 2.3 3.4 3.15 7.3z" id="ad"/><path fill="#FFD761" d="M359.95 371.4l.7-2.05q-2.95-3.35-5.6-3.85 1.3.85 2.65 2.35 1.65 1.85 2.25 3.55z" id="af"/><path fill="#FFD761" d="M360.6 370.7l.85-1.4q-1.15-2.05-2.4-3.2-1.15-.95-1.55-1.3 2.95 5.65 3.1 5.9z" id="ah"/><path fill="#FFD761" d="M362.1 367.05q0 .45.3.8.3.3.6.3t.6-.3q.25-.35.25-.8 0-.45-.25-.85-.25-.5-.6-.5t-.6.45q-.3.4-.3.9z" id="ar"/><path fill="#FFD761" d="M361.2 367.6q-.05.45.2.85.2.3.5.35.3.05.55-.25.3-.25.35-.7.05-.45-.1-.9-.2-.5-.5-.55-.3-.05-.6.35-.3.35-.4.85z" id="at"/><path fill="#FFD761" d="M363.1 367.85q.05.45.4.75.3.25.6.2.3-.05.45-.4.2-.35.15-.8-.1-.4-.35-.8-.35-.45-.65-.4-.3.05-.5.5-.15.45-.1.95z" id="av"/><path fill="#FFD761" d="M362.05 368.4q0 .45.3.8.25.3.6.3.3 0 .6-.3.25-.35.25-.8 0-.4-.25-.85-.3-.5-.6-.5-.35 0-.6.45-.3.4-.3.9z" id="ax"/><path fill="#FFD761" d="M360.8 368.8q0 .45.3.75.25.3.6.3.3 0 .6-.3.25-.3.25-.75t-.25-.9q-.3-.45-.6-.45-.35 0-.6.4-.3.45-.3.95z" id="az"/><path fill="#FFD761" d="M363.45 368.5q0 .45.3.8.25.3.6.3.3 0 .6-.3.25-.35.25-.8 0-.45-.25-.9-.3-.45-.6-.45-.35 0-.6.4-.3.45-.3.95z" id="aB"/><path fill="#FFD761" d="M363.2 369.05q0 .45.3.8.25.3.6.3.3 0 .6-.3.25-.35.25-.8 0-.45-.25-.9-.3-.45-.6-.45-.35 0-.6.4-.3.45-.3.95z" id="aD"/><path fill="#FFD761" d="M361.95 369.7q0 .45.3.8.3.3.6.3t.6-.3q.25-.35.25-.8 0-.45-.25-.85-.25-.5-.6-.5t-.6.45q-.3.4-.3.9z" id="aF"/><path fill="#FFD761" d="M360.15 369.7q0 .45.25.8.2.3.5.3.25 0 .5-.3.2-.35.2-.8 0-.4-.2-.85-.2-.5-.5-.5-.25 0-.5.45-.25.4-.25.9z" id="aH"/><path fill="#FFD761" d="M364.2 369.6q0 .45.25.8.2.3.5.3.25 0 .45-.3.25-.35.25-.8 0-.45-.2-.9t-.5-.45q-.25 0-.5.4-.25.45-.25.95z" id="aJ"/><path fill="#FFD761" d="M364.65 370.8q-.1.45 0 .8.1.3.35.35.2.1.45-.2.25-.25.3-.7.1-.4.05-.85-.05-.55-.25-.6-.25-.05-.5.3-.3.4-.4.9z" id="aL"/><path fill="#FFD761" d="M363.3 370.6q-.1 1.05.65 1.15.25.05.5-.25t.3-.75q.05-.45-.1-.9-.15-.45-.45-.5-.25-.05-.55.35-.25.4-.35.9z" id="aN"/><path fill="#FFD761" d="M360.95 371.95q.55-.1.3-1.2-.15-.5-.45-.85-.25-.35-.45-.3-.2.05-.25.6-.05.45.05.85.1.45.35.7.25.3.45.2z" id="aP"/><path fill="#FFD761" d="M360.8 370.7q0 1.05.7 1.05.25 0 .5-.3.2-.3.2-.75t-.2-.9q-.2-.45-.5-.45-.25 0-.5.4-.2.45-.2.95z" id="aR"/><path fill="#FFD761" d="M361.85 370.95q0 .45.3.75.25.3.6.3.3 0 .6-.3.25-.3.25-.75t-.25-.9q-.3-.45-.6-.45-.35 0-.6.4-.3.45-.3.95z" id="aT"/><path fill="#FFD761" d="M362.6 364.15q0-.55-.4-1.1-.05.3-.3.85-.15.5.05 1-1.15-.35-1.75.25 1.15-.1 1.5.65-.7-.15-1 .55 1-.3 1.25-.2-.55.35-.65.8.2-.15.65-.25t.55-.2q-.2.5.6 1.5-.05-.35.1-.95.15-.45 0-.65.25.05.75.45.35.3.9.25-.1-.05-.45-.5-.3-.4-.55-.4.2-.05.65-.05t.6.05q-.1-.2-.45-.4-.25-.15-.45-.15.75-.9 1.1-1.05-.55.1-.85.15-.368.1-.6.25.285-.295.55-.9.3-.65.65-.75-.8-.1-1.5.75.15-.45.2-.65.1-.4.25-.5-.9.35-1.4 1.2z" id="aV"/><path fill="#3DA54E" d="M353.9 370.9q-.85-.15-1.25.25-.2.2-.7.2-.9.1-.7 1.1.2-.1.35-.05.05 0 .2.05.1-.05.1.2 0 .35.5.7.5.4 1.05.35.65-.05 1.3.4.2.2.25.5.15.2.1.3 0 .1-.25.3-.45.4-.5 1-.05.7.55 1.2 1 .8 2.3.95 1.9.2 3.6-1.2 1.75-1.35 4.35-1.1 2.3.2 2.65.95.45 1.05.5 1.45.15.6.95.6.7-.05 1.4.4.3.2.55.05.25-.1.2-.55-.15-1.15-.9-2.05-.75-.9-.8-1.2 1.2.15 1.5-.2.55-.85.75-.95.7-.4-.05-.2-.7.25-1.2.15-.7-.1-7.75-1.55-5.6-1.1-6.65-.8-.6 0-1.2-.6-.4-.55-1.2-.65z" id="ba"/><path fill="#373535" d="M356.1 372.1l.2.9q.05.3-.15.55-.2.25-.4.25-.15 0-.6.15-.4.15-.55.05l.2.15q.088.088.15.35.037-.15.7-.15.4.05.8-.65-.4 1.35.75 1.8.7.35 1.55 1 1.7 1.35 5.35 1.35 1.9 0 3.5-.6 1.45-.5 2-1.25 1-1.25 1.4-1.45.4-.35-1.85-.75-1.85-.4-3.4-.5-.45-.05-5.2-.75-4.15-.6-4.45-.45z" id="bc"/><path fill="#3DA54E" d="M360 370.9h-.2q-1.45-.25-2.5.95l-.15.05q-.45-.25-1.05.2.15.35.4 1.05.2.55.05.95-.1.4.2.8.3.35.65.5.55.3 1.5 1 1.65 1.3 5.2 1.3 1.85 0 3.4-.55 1.4-.45 1.95-1.15.95-1.1 1.45-1.4.3-.15.25-.3-.05-.1-.35-.15-.25-.05-.75-.55-1.15-1.15-2-1.6-1.1-.6-2.4-.5l-.25-.1q-.4-.45-1.45-.65-1-.2-1.65.05h-.3q-.45-.2-1.05-.15-.65 0-.95.25z" id="be"/><path fill="#00614D" d="M369.05 374.6q.8-.7 1-1-1.15-1.15-2-1.6-1.1-.6-2.4-.5l-.1.45q.85.35 1.9 1.15 1.1.8 1.6 1.5z" id="bg"/><path fill="#00614D" d="M362.15 371.8q.7.35 1.35 1.25l1.35-.35.55-1.3q-.4-.45-1.45-.65-1-.2-1.65.05 0 .65-.15 1z" id="bi"/><path fill="#00614D" d="M361.85 371.8q.2-.65.15-1-.45-.2-1.05-.15-.65 0-.95.25-.25.5-.25 1.2.5 0 .9.4.85-.3 1.2-.7z" id="bk"/><path fill="#00614D" d="M357.3 371.85l.05.6q.8-.5 2.15-.4.1-.8.3-1.15-1.45-.25-2.5.95z" id="bm"/><path fill="#00614D" d="M366.9 375.7q1.4-.55 1.9-.95-1.2-1.55-3.3-2.55l-.25.6 1.65 2.9z" id="bo"/><path fill="#00614D" d="M363.5 373.4q0 1.7-.25 2.95 1.4.1 3.2-.55l-1.55-2.75-1.4.35z" id="bq"/><path fill="#00614D" d="M360.75 372.9q.2.9 0 3.05.65.4 2.05.4.25-1.6.25-3.15-.35-.55-1.05-1l-1.25.7z" id="bs"/><path fill="#00614D" d="M357.2 373.8q1.1.25 3.15 1.85.2-1.7.05-2.9-.7-.35-1.7-.25-.85.1-1.4.4l-.1.9z" id="bu"/><path fill="#373535" d="M353.15 372.5h.4q-.05-.002-.15-.2-.15-.25-.35-.25h-.35l.15.3q.05.15.3.15z" id="bw"/><path fill="#FFD761" d="M357.1 383.35q-.45-.45-.7.05-.2.4.25.85l.15.2q-.45-.15-.55.5-.15.25-.15.55-.35.3-.35.8-1.15-.1-2.1-1.5-.3-.35-.05-.55.2-.2.15-.4-.05-.25-.2-.3-.55-.25-.55.15l-.1.25q-.1-.55-.1-.6 0-.45-.4-.45-.35.1-.35.3-.1.35 0 .65l-.2-.3q-.3-.3-.5.1-.15.15-.1.35.05.2.3.25-.2.1-.25.3-.05.2.05.4.35.45.7.25l.25-.25q-.1.15.05.35.2.2.35.25-.35.2-.6.2.15.05.4.25.3.15.65.1-.4.4-.65.4.55.25 1 .15-.25.15-.35.6.6.05.8-.05-.1.2-.2.55.55.25 1 .1-.2.45-.35.5l.75.05v.25l.75-.5-.1.5q-.4.4-1.85.95l-.3.05q-.6.1-.95-.5-.15-.3-.4-.25-.3 0-.3.45-.25-.15-.45.05-.35.35.1.65l-.1.15q-.05.2.1.35.15.2.3.2-.15.15.25.45.25.15.45.05.2-.05.2-.2.75 0 .9-.4 0 .35-.1.45.4-.05.7-.55.1.35-.05.6.65-.3.7-.6v.45q.45-.2.6-.65l.05.5q.35-.15.55-.45.45.1.7-.15.25-.25.7.2.1-.5-.05-.65l.75.35q-.2-.45.1-.75.2.25.8.15-.15-.15-.15-.4.7.2 1.9-.3.4-.2 2.2-1.15.45-.25 1-.05-.45.35-.55.65-.1.45.7.6-.8.75-1.4.8-.45.05-.7-.2-.35-.35-.55-.15-.15.1-.15.35l-.1-.1q-.1-.2-.4.1-.05.05-.05.2.05.1.1.15.1.05.3.05.15 0 .2.1h-.1q-.3 0-.15.35.183.32.5.15-.037.054 0 .2.05.1.15.2.1.05.25 0t.2-.15q.15-.25.15-.4.25.25.7 0 .3.5.9.1.25.05.6-.15t.5-.55l.2.35q0-.15.15-.3.15-.2.15-.3.1.15.3.1.25 0 .4-.2-.55-.25-.55-.8-.05-.15.1-.35.2-.25.2-.35l.2.1q.65.25 1.75.45 1.1.15 1.9.1.65-.05 1 .25.2.25.2.5t-.25.4q-.2.1-.45 0-.1-.1-.35 0-.2.05-.25.2-.05.2.1.4.15.2.5.1l.15.2q.3.2.55-.1l-.05.1q-.1.25.3.35.15.05.25-.05.15-.15.1-.3.25.25.5.1.25-.2.05-.4-.05-.1-.05-.4 0-.3-.15-.45.2.15.45 0-.2-.45-.45-.6.35 0 .5-.15-.15-.4-.5-.6.3-.05.45-.5-.4.1-.95-.35-.5-.35-.85-.15-.2.05-1.1.05-.45 0-1.15-.45-.744-.446-.9-.45.352 0 .85.1.55.15 1.15.15 2.05.1 3.4-.7.55-.3.9-.2-.7-.747-1.45-.3.266-.188.35-.65.1-.5-.05-.75-.05.25-.25.35-.2.15-.3.35.2-.9-.6-1.15 0 .2-.3.4-.1-.75-.85-.85.1.2-.05.65-.2.45-.15.7-.45-.75-1.85-.75.35.25.25.7-1.05 0-2.2.2-1.2.2-1.75.2-1.7 0-1.7-.6 0-.5 1.1-.5.7 0 1.15.3 1.2.5 1.9-.05-.2 0-.45-.25t-.45-.25q.2-.05.75-.25.55-.25 1.15.05-.2-.8-1.65-.4.9-.4.8-.85-.3.2-1.05.2t-.95.15q-.5.3-.75.65-.2.2-.75.2-1.5 0-1.5.9 0 1.15 2.45 1.15.7 0 1.95-.2t2.15-.2q1.8 0 1.8.55 0 .7-.9.7-.35 0-1.4-.2-1.05-.25-1.9-.25-.8 0-2.55.3-1.75.3-2.5.3h-.5q-.05 0-.35-.55.05-.5-.05-.65.1 0 .35-.25.45-.45.3-.8-.232-.37-.7-.15.113-.066.15-.25.05-.2.15-.3l-.6.05q.3-.2.3-.7-.2.25-.75.25.15-.45.2-.5-1 0-1.15.55-.4-.55-.25-.8-.75.4-.9.75-.1-.45-.15-.7 0 .1-.25.45-.25.3-.2.6z" id="bD"/><path fill="#373535" d="M364.65 388.05q-.15.1-.05.2.1.1.25.05-.15.3.2.3-.05.05.15.2.15.2.1.35.3-.35.15-.75-.4-.3-.2-.55-.1.1-.3.1-.2.05-.3.1z" id="cy"/><path fill="#21467B" d="M357.85 386.8q.35-.3.8-1.25-.35-.1-.25-.6-.05.1-.35.25-.55 1.2-1.15 1.25-.35.05-.3.3 0 .2.3.25.6.1.95-.2z" id="cz"/><path fill="#21467B" d="M351.1 383.75q.2.35.45.1.15-.15.15-.3-.05-.15-.2-.2-.55-.2-.9.3.4-.1.5.1z" id="cA"/><path fill="#21467B" d="M351.95 382.55q.3.1.1.4-.1.2.35.2.15 0 .2-.1.1-.15 0-.25-.1-.25-.65-.25z" id="cB"/><path fill="#21467B" d="M353.2 383.35q0 .3.2.35.25.1.3-.1.1-.15-.05-.4-.1-.35-.65-.2.2.1.2.35z" id="cC"/><path fill="#21467B" d="M351.15 384.75q-.05.35-.45.15.3.4.75.3.25-.15.15-.45-.1-.15-.2-.15-.2-.05-.25.15z" id="cD"/><path fill="#21467B" d="M351.65 389.55q.2 0 .1-.2-.1-.25-.4-.25-.3 0-.5.2.1-.05.25 0 .2.05.25.15.05.2.3.1z" id="cE"/><path fill="#21467B" d="M352.25 389.05q.15-.05.15-.2-.05-.2-.35-.3-.236-.047-.5.05.12-.037.25.05.15.1.15.2 0 .3.3.2z" id="cF"/><path fill="#21467B" d="M351.8 390.45q.1-.25-.15-.25-.3-.05-.45.2-.2.25-.2.55.1-.4.45-.3.35 0 .35-.2z" id="cG"/><path fill="#21467B" d="M351.7 391.4q.1.2.35.2.15.05.3-.1.15-.05.15-.25.05-.15-.05-.2-.1-.1-.25-.05-.15 0-.15.1-.1.4-.35.3z" id="cH"/><path fill="#21467B" d="M361.65 389.55q.15-.15.05-.3-.3-.3-.75-.05.3 0 .4.25.05.1.15.15.1 0 .15-.05z" id="cI"/><path fill="#21467B" d="M361.15 389.9q.05-.15-.1-.2-.2-.05-.4.15-.2.15-.3.4.3-.25.5-.2.3.15.3-.15z" id="cJ"/><path fill="#21467B" d="M361.6 390.55q.05-.2-.2-.2-.15 0-.3.15-.2.2-.2.4.1-.25.4-.15.3 0 .3-.2z" id="cK"/><path fill="#21467B" d="M362.05 391.3q.3-.15 0-.4-.1-.1-.2 0-.15.1-.15.25l-.05.45q.15-.1.4-.3z" id="cL"/><path fill="#21467B" d="M370.25 390.55q.05-.2-.05-.3-.25-.25-.45.05-.25.35.05.8 0-.35.3-.35.1-.05.15-.2z" id="cM"/><path fill="#21467B" d="M371 390.65q-.2-.2-.35-.1-.2.1-.2.4-.05.35.15.55 0-.4.2-.45.1-.05.2-.2.05-.15 0-.2z" id="cN"/><path fill="#21467B" d="M371.75 391.05q-.05-.15-.25-.2-.1-.05-.2 0-.1.1-.1.2 0 .4.35.6 0-.25.15-.35.1-.1.05-.25z" id="cO"/><path fill="#21467B" d="M372.35 391q.15-.3-.2-.25-.1 0-.15.15-.05.1 0 .25.15.25.5.2-.25-.15-.15-.35z" id="cP"/><path fill="#FFD761" d="M361.55 397.35h-4.45l-1.35-4.2-1.4 4.2h-4.45l3.65 2.65-1.4 4.2 3.6-2.6 3.6 2.6-1.4-4.25 3.6-2.6z" id="cQ"/><path fill="#FFD761" d="M367.1 399.95l-1.4 4.25 3.6-2.6 3.6 2.6-1.4-4.2 3.65-2.65h-4.5l-1.35-4.2-1.35 4.2h-4.5l3.65 2.6z" id="cS"/><path fill="#FFD761" d="M364.7 407.8l3.65-2.6h-4.45l-1.4-4.2-1.35 4.2h-4.5l3.65 2.65-1.4 4.2 3.6-2.6 3.6 2.6-1.4-4.25z" id="cU"/><path fill="#3DA54E" d="M360.35 397.75h-3.55l-1.05-3.35-1.1 3.35h-3.55l2.9 2.1-1.1 3.3 2.85-2.05 2.8 2.05-1.05-3.35 2.85-2.05z" id="cW"/><path fill="#3DA54E" d="M368.2 397.75h-3.5l2.85 2.05-1.1 3.35 2.85-2.05 2.85 2.05-1.1-3.3 2.85-2.1h-3.5l-1.1-3.35-1.1 3.35z" id="cX"/><path fill="#3DA54E" d="M363.6 405.6l-1.1-3.35-1.1 3.35h-3.5l2.85 2.1-1.1 3.3 2.85-2.05 2.85 2.05-1.1-3.35 2.85-2.05h-3.5z" id="cY"/><path fill="#00614D" d="M345.4 406.75h-.05q0 .2-.15.3l-1.2.6q-.15.05-.25-.05h-.05l.35.7.05-.05q-.1-.2.1-.25l.55-.3.25.5-.55.25q-.2.15-.3-.05h-.05l.35.7.05-.05q-.1-.2.1-.25l1.2-.6q.1-.1.25.05h.05l-.3-.7-.05.05q0 .2-.15.25l-.5.3-.25-.5.55-.3q.15-.1.25.1l.05-.05-.3-.65z" id="cZ"/><path fill="#00614D" d="M346.15 408.3l-.05.05q.15.15-.05.3l-1.15.75q-.15.1-.25-.1l-.05.05.7 1.15.55-.25v-.05q-.5.1-.7-.15l-.15-.2.15-.15.5-.35q.25.25-.15.55v.05l.8-.55h-.05q-.3.1-.5-.1l.5-.35q.15-.1.2-.05l.1.2q.3.3-.2.6l.05.05.5-.35-.75-1.1z" id="da"/><path fill="#00614D" d="M348 410.8l-.5-.55-.05.05q.15.15-.05.25l-.95.95q-.15.1-.3 0l-.05.05.5.55.05-.05q-.1-.2 0-.3l.5-.45.35.45-.45.4q-.2.1-.3 0l-.05.05.5.55.05-.05q-.15-.15.05-.25l.95-.95q.15-.1.3 0l.05-.05-.5-.55-.05.05q.1.2-.05.3l-.4.4-.35-.4.4-.4q.15-.1.3 0l.05-.05z" id="db"/><path fill="#00614D" d="M349.25 412.1l-.05-.05-1.5.8q-.15.15-.3.05v.05l.3.3.05-.05q-.1-.2.05-.3l.25-.1.35.35-.1.25q-.1.2-.3.05l-.05.05.55.5.05-.05q-.1-.1 0-.3l.7-1.55m-1.1.65l.6-.35-.3.65-.3-.3z" id="dc"/><path fill="#00614D" d="M350.05 412.95l.05.05-.95 1.2q-.15.15-.25.05l-.05.05.55.45.05-.05q-.1-.15 0-.3l.95-1.2.05.05q.25.25 0 .6h.05l.3-.4-1-.85-.35.45h.05q.25-.3.55-.1z" id="dd"/><path fill="#00614D" d="M350.8 413.45v.05q.15.15 0 .25l-.75 1.15q-.1.2-.25.05l-.05.05.6.45.05-.05q-.15-.15-.05-.3l.35-.55.45.35-.35.5q-.1.2-.3.1v.05l.6.4.05-.05q-.2-.1-.05-.3l.75-1.1q.05-.1.3-.1l-.6-.45-.05.05q.2.1.05.3l-.3.5-.45-.35.3-.45q.15-.2.3-.1v-.05l-.6-.4z" id="de"/><path fill="#00614D" d="M353.7 415.8h-.05q-.15.2-.5.2l.25-.6q.15-.15.15-.1l.2.1q.4.15.15.65h.05l.25-.5-1.15-.65-.05.05q.15.1.1.3l-.65 1.2q-.05.2-.25.1l-.05.05.7.35v-.05q-.15-.15-.05-.25l.3-.6q.25.25.1.6h.05l.45-.85z" id="df"/><path fill="#00614D" d="M353.85 416.45q-.35.85.35 1.15.7.35 1.05-.55.35-.9-.3-1.2-.65-.3-1.1.6m.35 1.1q-.35-.15 0-.95.35-.8.7-.65.35.15 0 .95-.35.8-.7.65z" id="dg"/><path fill="#00614D" d="M357.05 416.75v-.05l-.4-.15v.05q.15.1.1.25l-.3.9q-.25.55-.55.4-.35-.05-.15-.6l.3-.95q.1-.2.25-.1v-.05l-.65-.25v.05q.15.15.1.25l-.35.95q-.25.6.35.8.55.2.75-.5l.3-.85q.05-.15.25-.15z" id="dh"/><path fill="#00614D" d="M357.55 416.85l-.5-.15v.05l.05.05.1.2-.35 1.35q-.05.15-.25.15v.05l.4.1.05-.05q-.2-.1-.15-.25l.35-1.2.55 1.75h.05l.45-1.6q.05-.15.2-.15v-.05l-.4-.1v.05q.15.1.1.25l-.2.9-.45-1.35z" id="di"/><path fill="#00614D" d="M359.25 417.25l-.7-.1v.05q.2 0 .15.25l-.25 1.3q0 .2-.2.2l-.05.05.7.15q.7.1.9-.8.2-1-.55-1.1m-.1.1l.15.05q.4 0 .2.9-.1.75-.5.75l-.15-.05-.05-.1.3-1.5.05-.05z" id="dj"/><path fill="#00614D" d="M360.65 417.55h.2q.35.1.35.55h.05l.05-.55-1.3-.15v.05q.2 0 .15.25l-.1 1.35q-.05.2-.25.2v.05l1.3.15.2-.6h-.1q-.15.45-.55.45l-.2-.05-.05-.15.05-.65q.35 0 .35.45l.05.05.1-.95h-.05q-.1.35-.45.35l.1-.65q0-.15.1-.15z" id="dk"/><path fill="#00614D" d="M364.65 419.1l-.15-1.35q0-.25.2-.25v-.05l-.8.05v.05q.2.1.25.2l.15 1.4q0 .2-.2.2v.05l.8-.05-.05-.05q-.2-.1-.2-.2z" id="dl"/><path fill="#00614D" d="M365.65 417.4h.05q.1-.05.25.05t.15.3h.05l-.05-.55-1.3.25.05.55.05-.05q-.05-.35.3-.5h.05l.25 1.5q.05.25-.1.25v.05l.7-.1v-.05q-.2 0-.25-.2l-.2-1.5z" id="dm"/><path fill="#00614D" d="M367.5 417.15q-.05-.15.15-.25l-.05-.05-.7.2.05.05q.2 0 .2.15l.3.95q.15.6.75.45.55-.2.35-.85l-.3-.9q0-.15.1-.25v-.05l-.4.15v.05q.2 0 .25.15l.25.9q.15.6-.2.65-.35.05-.5-.45l-.25-.9z" id="dn"/><path fill="#00614D" d="M368.4 416.6l.05.05q.2 0 .25.1l.5 1.3q.05.1-.1.25v.1l.7-.3-.05-.05q-.1.1-.25-.1l-.2-.6.15-.05q.55-.15.4-.7-.25-.45-.75-.25l-.7.25m.65 0q-.05-.1.1-.2.15-.05.35.35.1.4-.2.55l-.25-.7z" id="do"/><path fill="#00614D" d="M372.3 416.95v-.05q-.2.1-.25-.1l-.6-1.1 1.6.85.05-.05-.75-1.4q-.15-.2.05-.3l-.05-.05-.4.2.05.05q.2 0 .25.1l.45.85-1.25-.7-.45.25.05.05h.1l.2.1.6 1.2q.1.15-.05.25l.05.05.35-.2z" id="dp"/><path fill="#00614D" d="M373.8 413.9l.1-.05q.2-.2.55.15l-.3-.45-1.05.75.3.45q-.2-.35.05-.6l.1-.05.85 1.3q.05.15-.05.25l.05.05.6-.4-.05-.05q-.2.1-.25-.1l-.9-1.25z" id="dq"/><path fill="#00614D" d="M374.15 413.55l.05.05q.2-.1.25.05l.85 1.05q.1.15 0 .3l.05.05.55-.45v-.05q-.15.1-.3-.05l-.4-.5.4-.35.4.5q.1.1 0 .3l.05.05.55-.5v-.05q-.2.1-.3-.05l-.85-1.05q-.1-.15 0-.3v-.05l-.6.5.05.05q.2-.1.3.05l.35.45-.45.35-.35-.5q-.1-.1 0-.25v-.05l-.6.45z" id="dr"/><path fill="#00614D" d="M376.85 412l.05-.05-.4-.4-1 .9.05.05q.2-.1.3 0l.9 1q.1.1 0 .3l.05.05.95-.95-.3-.5-.05.05q.25.45 0 .7l-.2.15q0 .1-.15-.05l-.45-.5q.35-.15.55.1l.05-.05-.6-.7-.05.05q.25.3 0 .55l-.45-.45q-.1-.1-.05-.2l.15-.15q.3-.25.65.1z" id="ds"/><path fill="#00614D" d="M378.25 410.4l-.45-.4-.05.05q.15.15 0 .15l-.25.2q-.25.35.15.7.25.25.65.05.4-.15.55 0 .25.25.05.4-.2.3-.7 0h-.05l.5.45v-.05q-.05-.1.05-.1l.25-.25q.4-.4-.1-.75-.3-.2-.65-.1-.35.2-.6.05-.15-.15-.05-.35.25-.25.65 0l.05-.05z" id="dt"/><path fill="#00614D" d="M380.15 409.95l-.4-.45-.05.1q.35.4.15.7l-.15.15q0 .1-.2-.05l-.5-.35q.15-.3.55-.05l.05-.05-.75-.55-.05.05q.25.25.1.55l-.5-.35-.1-.2.15-.15q.05-.1.25-.15.2-.05.35.1l.05-.05-.45-.35-.8 1.1.05.05q.2-.15.3-.05l1.1.75q.2.15.05.3l.05.05.75-1.1z" id="du"/><path fill="#00614D" d="M379.1 408.05l-.05.05 1.15 1.3.1.25.05.05.2-.4-.05-.05q-.1.25-.3 0l-.15-.15.25-.5.3.1q.2 0 .1.25l.05.05.35-.65-.05-.05q-.1.15-.3.05l-1.65-.3m1.1.55l-.25.4-.45-.55.7.15z" id="dv"/><path fill="#00614D" d="M380.3 406.8l.05-.05-.55-.2v.05q.1.1.05.15-.15 0-.25.25-.2.45.35.6.3.2.7-.1.3-.25.5-.2.3.15.15.4-.15.35-.7.15v.05l.55.25.05-.05q-.05 0-.05-.1.2-.1.2-.3.1-.1.05-.3-.05-.25-.35-.4-.35-.1-.65.15-.35.25-.55.15-.3-.1-.15-.25.1-.3.6-.25z" id="dw"/><path fill="#00614D" d="M361.45 417.55v.05q.15 0 .15.2v1.4q0 .2-.2.2v.05h.7q.75.1.75-.9t-.7-1h-.7m.75.15q.35 0 .35.85 0 .8-.4.8h-.1q-.1 0-.1-.1l.05-1.5.05-.1.15.05z" id="dx"/><path fill="#00614D" d="M371.1 417.55q.65-.3.3-1.15-.35-.9-1.05-.6-.7.3-.35 1.15.35.95 1.1.6m-.05-1q.35.8 0 .95-.35.15-.7-.65t0-1q.35-.15.7.7z" id="dy"/><path id="c" stroke="#373535" stroke-width=".25" stroke-linejoin="miter" stroke-linecap="butt" stroke-miterlimit="4" fill="none" d="M.029.034h12.08L41.617 15.46V.034H58.21V15.46L87.718.034h12.15v6.382L78.692 17.503h21.176v17.541H78.692l21.176 11.087v6.382h-12.15L58.21 37.087v15.426H41.617V37.087L12.109 52.513H.03v-6.382l21.106-11.087H.03V17.503h21.106L.03 6.416V.034z"/><path id="j" stroke="#373535" stroke-width=".1" stroke-linejoin="miter" stroke-linecap="butt" stroke-miterlimit="4" fill="none" d="M127.907 52.428q0 9.591 6.491 16.41 6.457 6.784 15.621 6.784 9.13 0 15.621-6.783 6.457-6.82 6.457-16.41 0-9.628-6.457-16.411-6.491-6.82-15.62-6.82-9.165 0-15.622 6.82-6.491 6.783-6.491 16.41z"/><path id="o" stroke="#373535" stroke-width=".1" stroke-linejoin="miter" stroke-linecap="butt" stroke-miterlimit="4" fill="none" d="M140.785 63.186q-.069-.401-.45-.255-.383.11-.521.583l-.73-1.13q-.45-.802-.416-1.276 0-.584.625-1.204.382-.401.798-.547.556-.182.937.146.764.73.59 1.86-.138.948-.833 1.823z"/><path id="q" stroke="#373535" stroke-width=".1" stroke-linejoin="miter" stroke-linecap="butt" stroke-miterlimit="4" fill="none" d="M158.975 59.503q-.764.73-.59 1.86.174.911.868 1.823.07-.401.416-.255.382.11.556.583l.694-1.13q.451-.766.451-1.276-.034-.584-.625-1.204-.381-.401-.798-.547-.59-.182-.972.146z"/><path id="s" stroke="#373535" stroke-width=".1" stroke-linejoin="miter" stroke-linecap="butt" stroke-miterlimit="4" fill="none" d="M134.815 67.599q-.278-.51-1.007-3.392-.104-.51-.07-.656.035-.328.417-.474.382-.11.764.292.347.328.555.875l1.111 2.735q-.798-.51-1.388-.255-.556.218-.382.875z"/><path id="u" stroke="#373535" stroke-width=".1" stroke-linejoin="miter" stroke-linecap="butt" stroke-miterlimit="4" fill="none" d="M165.223 67.599q.521-.948.972-3.392.14-.474.105-.656-.035-.328-.417-.474-.382-.11-.764.292-.347.328-.555.875l-1.111 2.735q.798-.51 1.389-.255.555.218.381.875z"/><path id="y" stroke="#373535" stroke-width=".1" stroke-linejoin="miter" stroke-linecap="butt" stroke-miterlimit="4" fill="none" d="M140.647 54.07q0 1.312.104 2.443.555 0 .798.073.486.109 1.007.583.972.802 2.777 0 1.041-.474 1.145-.51.695-.22 1.424.218 1.492.875 2.117.875.451 0 2.118-.875.694-.437 1.423-.219.139.037 1.145.511 1.805.802 2.777 0 .521-.474 1.007-.583.243-.073.798-.073.105-1.13.105-2.444v-.62q-.521-.11-.903.037-.312.146-.902.693-.868.838-2.708.073-1.041-.547-1.562-.657-.903-.146-1.597.657-.729.948-1.7.948-.903 0-1.737-.948-.66-.803-1.562-.657-1.006.438-1.562.657-1.84.765-2.707-.073-.59-.547-.903-.693-.416-.183-.902-.037v.62z"/><path id="A" stroke="#373535" stroke-width=".1" stroke-linejoin="miter" stroke-linecap="butt" stroke-miterlimit="4" fill="none" d="M151.928 61.764q-.902.656-1.909.656-1.007 0-1.91-.656-.936-.584-3.054.365-.764.328-1.319.4-.486.037-1.284-.145-.903-1.568-1.285-3.428.382-.11.73.073.173.11.485.365.452.328 1.076.364.695.037 1.389-.328.868-.438 1.354-.51.694-.11 1.353.291 1.285.766 2.465.766 1.146 0 2.43-.766.694-.4 1.389-.292.486.073 1.353.511.73.365 1.389.328.625-.036 1.076-.364.312-.256.486-.365.312-.182.729-.073-.451 1.896-1.32 3.428-.763.182-1.249.146-.555-.073-1.319-.401-2.152-.949-3.055-.365z"/><path id="C" stroke="#373535" stroke-width=".1" stroke-linejoin="miter" stroke-linecap="butt" stroke-miterlimit="4" fill="none" d="M152.067 64.973q-1.145.584-2.048.584-.902 0-2.048-.584-.625-.365-1.354-.365-.66-.036-.937.22-.208.145-.486.218-.486.073-.52.073 1.874 1.75 5.345 3.246 3.471-1.496 5.346-3.246-.035 0-.52-.073-.278-.073-.487-.219-.277-.255-.937-.219-.729 0-1.354.365z"/><path id="E" stroke="#373535" stroke-width=".1" stroke-linejoin="miter" stroke-linecap="butt" stroke-miterlimit="4" fill="none" d="M146.155 43.774q-.555.11-.868.073-.382-.073-.798-.474-.312-.292-.278-.766.07-.438.382-.657.798-.51 1.354-.364.451.146 1.18.875.764.73.486.766-.208 0-.66.219-.555.255-.798.328z"/><path id="G" stroke="#373535" stroke-width=".1" stroke-linejoin="miter" stroke-linecap="butt" stroke-miterlimit="4" fill="none" d="M147.717 41.258q.208-.22 1.076-.329 1.007-.11 1.215.401.486 1.386.764 1.605-.243.146-.903.182-.763.037-1.041-.146-.313-.182-.66-.911-.312-.73-.45-.802z"/><path id="I" stroke="#373535" stroke-width=".1" stroke-linejoin="miter" stroke-linecap="butt" stroke-miterlimit="4" fill="none" d="M154.243 42.607q.07.547.208.839-.243.109-.798.036-.625-.036-.868-.292-.278-.219-.486-.984-.174-.803-.278-.912.243-.219 1.076-.11.521.037.695.146.243.11.347.438.07.219.104.839z"/><path id="K" stroke="#373535" stroke-width=".1" stroke-linejoin="miter" stroke-linecap="butt" stroke-miterlimit="4" fill="none" d="M155.041 41.622q-.694-.219-.972-.036.07.11.174.984.035.803.347 1.058.312.219.798.182.521-.073.695-.474.486-1.24-1.042-1.714z"/><path id="M" stroke="#373535" stroke-width=".1" stroke-linejoin="miter" stroke-linecap="butt" stroke-miterlimit="4" fill="none" d="M149.835 41.075q.208-.182 1.076-.219 1.04 0 1.214.547.07.183.209.876.139.51.312.765-.104.11-.833.11-.764 0-1.041-.219-.313-.219-.556-.985-.243-.765-.381-.875z"/><path id="O" stroke="#373535" stroke-width=".1" stroke-linejoin="miter" stroke-linecap="butt" stroke-miterlimit="4" fill="none" d="M147.717 41.221q.174.073.382.584.382 1.02.764 1.203-1.111.255-1.215.255-.452.073-.833-.182-.313-.182-.66-.584-.312-.364-.416-.583-.07-.328-.14-.365.035-.255 1.25-.4.66-.037.868.072z"/><path id="Q" stroke="#373535" stroke-width=".1" stroke-linejoin="miter" stroke-linecap="butt" stroke-miterlimit="4" fill="none" d="M148.019 36.214q-1.944-1.568-3.437-1.823.52.364 1.736 1.349 1.215 1.02 1.631 1.458"/><path id="S" stroke="#373535" stroke-width=".1" stroke-linejoin="miter" stroke-linecap="butt" stroke-miterlimit="4" fill="none" d="M148.609 35.412q-2.708-1.897-4.096-2.006.763.401 1.77 1.313 1.007.911 1.666 1.75"/><path id="U" stroke="#373535" stroke-width=".1" stroke-linejoin="miter" stroke-linecap="butt" stroke-miterlimit="4" fill="none" d="M150.205 33.917q.764-1.75 2.43-3.501-.312.656-.764 2.188-.208.802-.555 2.078"/><path id="W" stroke="#373535" stroke-width=".1" stroke-linejoin="miter" stroke-linecap="butt" stroke-miterlimit="4" fill="none" d="M151.316 33.698q.902-2.006 2.534-2.808-.486.474-1.11 1.75-.591 1.204-.8 2.079"/><path id="Y" stroke="#373535" stroke-width=".1" stroke-linejoin="miter" stroke-linecap="butt" stroke-miterlimit="4" fill="none" d="M151.767 34.719q1.736-2.59 3.957-3.5-.937 1.02-2.082 2.515-1.146 1.495-1.528 2.188"/><path id="aa" stroke="#373535" stroke-width=".1" stroke-linejoin="miter" stroke-linecap="butt" stroke-miterlimit="4" fill="none" d="M152.427 35.886q2.534-1.422 4.026-1.094-.868.291-2.048.948-1.527.839-2.187 1.568"/><path id="ac" stroke="#373535" stroke-width=".1" stroke-linejoin="miter" stroke-linecap="butt" stroke-miterlimit="4" fill="none" d="M152.253 35.485q1.944-2.225 4.026-2.918-2.533 2.553-4.095 4.376"/><path id="ae" stroke="#373535" stroke-width=".1" stroke-linejoin="miter" stroke-linecap="butt" stroke-miterlimit="4" fill="none" d="M149.823 34.938q-1.04-3.61-2.811-4.34 1.597 2.48 2.187 5.324"/><path id="ag" stroke="#373535" stroke-width=".1" stroke-linejoin="miter" stroke-linecap="butt" stroke-miterlimit="4" fill="none" d="M148.713 34.865q-2.048-2.443-3.888-2.808.903.62 1.84 1.714 1.145 1.349 1.562 2.589"/><path id="ai" stroke="#373535" stroke-width=".1" stroke-linejoin="miter" stroke-linecap="butt" stroke-miterlimit="4" fill="none" d="M149.268 34.828q-.798-1.495-1.666-2.334-.798-.692-1.076-.948 2.048 4.12 2.152 4.303"/><path id="aj" stroke="#373535" stroke-width=".1" stroke-linejoin="miter" stroke-linecap="butt" stroke-miterlimit="4" fill="none" d="M146.745 34.657q.486.328 1.042.875.555.547.763.948"/><path id="ak" stroke="#373535" stroke-width=".1" stroke-linejoin="miter" stroke-linecap="butt" stroke-miterlimit="4" fill="none" d="M146.745 35.751q.313.292 1.389 1.094"/><path id="al" stroke="#373535" stroke-width=".1" stroke-linejoin="miter" stroke-linecap="butt" stroke-miterlimit="4" fill="none" d="M152.716 36.59q.971-.875 2.117-1.35"/><path id="am" stroke="#373535" stroke-width=".1" stroke-linejoin="miter" stroke-linecap="butt" stroke-miterlimit="4" fill="none" d="M152.368 36.189q.764-1.021 1.84-1.933"/><path id="an" stroke="#373535" stroke-width=".1" stroke-linejoin="miter" stroke-linecap="butt" stroke-miterlimit="4" fill="none" d="M153.757 32.98q-1.284 1.422-1.91 2.443"/><path id="ao" stroke="#373535" stroke-width=".1" stroke-linejoin="miter" stroke-linecap="butt" stroke-miterlimit="4" fill="none" d="M152.473 32.433q-.486.656-1.285 2.334"/><path id="ap" stroke="#373535" stroke-width=".1" stroke-linejoin="miter" stroke-linecap="butt" stroke-miterlimit="4" fill="none" d="M148.48 32.579q.834 1.969 1.077 2.844"/><path id="aq" stroke="#373535" stroke-width=".1" stroke-linejoin="miter" stroke-linecap="butt" stroke-miterlimit="4" fill="none" d="M148.03 33.454q.485.656.798 1.568"/><path id="as" stroke="#373535" stroke-width=".1" stroke-linejoin="miter" stroke-linecap="butt" stroke-miterlimit="4" fill="none" d="M149.73 33.198q0-.364.209-.656.173-.328.416-.328t.417.365q.173.291.173.62 0 .328-.173.583-.209.219-.417.219t-.416-.219q-.209-.255-.209-.584z"/><path id="au" stroke="#373535" stroke-width=".1" stroke-linejoin="miter" stroke-linecap="butt" stroke-miterlimit="4" fill="none" d="M149.106 33.6q.069-.365.277-.62.209-.292.417-.256.208.037.347.402.104.328.07.656-.035.328-.244.51-.173.22-.381.183-.209-.037-.348-.255-.173-.292-.138-.62z"/><path id="aw" stroke="#373535" stroke-width=".1" stroke-linejoin="miter" stroke-linecap="butt" stroke-miterlimit="4" fill="none" d="M150.425 33.782q-.035-.365.069-.693.139-.328.347-.365.208-.036.451.292.174.292.243.584.035.328-.104.583-.104.255-.312.292-.208.036-.417-.146-.243-.219-.277-.547z"/><path id="ay" stroke="#373535" stroke-width=".1" stroke-linejoin="miter" stroke-linecap="butt" stroke-miterlimit="4" fill="none" d="M149.696 34.183q0-.365.208-.656.173-.329.416-.329.209 0 .417.365.174.328.174.62 0 .328-.174.584-.208.218-.417.218-.243 0-.416-.218-.208-.256-.208-.584z"/><path id="aA" stroke="#373535" stroke-width=".1" stroke-linejoin="miter" stroke-linecap="butt" stroke-miterlimit="4" fill="none" d="M148.828 34.475q0-.365.208-.693.174-.292.417-.292.208 0 .416.328.174.329.174.657t-.174.547q-.208.219-.416.219-.243 0-.417-.22-.208-.218-.208-.546z"/><path id="aC" stroke="#373535" stroke-width=".1" stroke-linejoin="miter" stroke-linecap="butt" stroke-miterlimit="4" fill="none" d="M150.668 34.256q0-.365.208-.693.173-.292.416-.292.209 0 .417.329.173.328.173.656t-.173.583q-.208.22-.417.22-.243 0-.416-.22-.208-.255-.208-.583z"/><path id="aE" stroke="#373535" stroke-width=".1" stroke-linejoin="miter" stroke-linecap="butt" stroke-miterlimit="4" fill="none" d="M150.494 34.657q0-.365.208-.693.174-.291.417-.291.208 0 .416.328.174.328.174.656t-.174.584q-.208.218-.416.218-.243 0-.417-.218-.208-.256-.208-.584z"/><path id="aG" stroke="#373535" stroke-width=".1" stroke-linejoin="miter" stroke-linecap="butt" stroke-miterlimit="4" fill="none" d="M149.626 35.131q0-.364.209-.656.173-.328.416-.328t.417.364q.173.292.173.62t-.173.584q-.209.218-.417.218t-.416-.218q-.209-.256-.209-.584z"/><path id="aI" stroke="#373535" stroke-width=".1" stroke-linejoin="miter" stroke-linecap="butt" stroke-miterlimit="4" fill="none" d="M148.377 35.131q0-.364.173-.656.174-.328.347-.328.209 0 .347.364.14.328.14.62 0 .328-.14.584-.173.218-.347.218-.208 0-.347-.218-.173-.256-.173-.584z"/><path id="aK" stroke="#373535" stroke-width=".1" stroke-linejoin="miter" stroke-linecap="butt" stroke-miterlimit="4" fill="none" d="M151.188 35.058q0-.364.174-.693.173-.291.347-.291.208 0 .347.328.139.328.139.656t-.174.584q-.139.219-.312.219-.208 0-.347-.22-.174-.255-.174-.583z"/><path id="aM" stroke="#373535" stroke-width=".1" stroke-linejoin="miter" stroke-linecap="butt" stroke-miterlimit="4" fill="none" d="M151.5 35.933q.07-.364.278-.656.174-.255.347-.219.14.037.174.438.035.328-.035.62-.034.328-.208.51-.174.22-.312.146-.174-.036-.243-.255-.07-.255 0-.584z"/><path id="aO" stroke="#373535" stroke-width=".1" stroke-linejoin="miter" stroke-linecap="butt" stroke-miterlimit="4" fill="none" d="M150.563 35.788q.07-.365.243-.657.209-.292.382-.255.209.036.313.365.104.328.07.656-.036.328-.21.547-.173.219-.346.182-.521-.073-.452-.838z"/><path id="aQ" stroke="#373535" stroke-width=".1" stroke-linejoin="miter" stroke-linecap="butt" stroke-miterlimit="4" fill="none" d="M149.14 35.897q-.104-.365-.312-.62-.174-.255-.313-.219-.138.037-.173.438-.035.328.035.62.069.328.243.51.173.22.312.146.382-.073.208-.875z"/><path id="aS" stroke="#373535" stroke-width=".1" stroke-linejoin="miter" stroke-linecap="butt" stroke-miterlimit="4" fill="none" d="M148.828 35.86q0-.364.139-.692.173-.292.347-.292.208 0 .347.328.139.328.139.657 0 .328-.14.547-.173.218-.346.218-.486 0-.486-.765z"/><path id="aU" stroke="#373535" stroke-width=".1" stroke-linejoin="miter" stroke-linecap="butt" stroke-miterlimit="4" fill="none" d="M149.557 36.043q0-.365.208-.693.174-.292.417-.292.208 0 .416.328.174.329.174.657t-.174.547q-.208.219-.416.219-.243 0-.417-.22-.208-.218-.208-.546z"/><path id="aW" stroke="#373535" stroke-width=".1" stroke-linejoin="miter" stroke-linecap="butt" stroke-miterlimit="4" fill="none" d="M149.81 30.292q-.034.22-.207.62-.105.365.034.73-.798-.256-1.215.182.799-.073 1.042.474-.486-.11-.695.401.695-.219.868-.146-.382.256-.451.584.139-.11.451-.183.313-.073.382-.145-.139.364.417 1.094-.035-.256.07-.693.103-.329 0-.474.173.036.52.328.243.219.625.182-.07-.036-.313-.365-.208-.291-.382-.291.14-.037.452-.037t.416.037q-.07-.146-.312-.292-.174-.11-.313-.11.521-.656.764-.765-.382.073-.59.11-.256.072-.4.182.181-.215.365-.657.208-.474.451-.547-.555-.073-1.04.547.103-.328.138-.474.07-.292.174-.365-.625.256-.972.876 0-.402-.278-.803z"/><path id="aX" stroke="#373535" stroke-width=".1" stroke-linejoin="miter" stroke-linecap="butt" stroke-miterlimit="4" fill="none" d="M150.089 31.095q0 .474-.07.583"/><path id="aY" stroke="#373535" stroke-width=".1" stroke-linejoin="miter" stroke-linecap="butt" stroke-miterlimit="4" fill="none" d="M150.748 31.058q-.278.328-.347.802"/><path id="aZ" stroke="#373535" stroke-width=".1" stroke-linejoin="miter" stroke-linecap="butt" stroke-miterlimit="4" fill="none" d="M150.991 31.715q-.312.328-.347.437"/><path id="bb" stroke="#373535" stroke-width=".1" stroke-linejoin="miter" stroke-linecap="butt" stroke-miterlimit="4" fill="none" d="M143.18 36.2q-.138.146-.485.146-.625.073-.486.802.139-.073.243-.036.034 0 .139.036.069-.036.069.146 0 .255.347.51.347.292.73.256.45-.037.902.292.138.146.173.364.104.146.07.22 0 .072-.174.218-.312.292-.347.73-.035.51.382.875.694.583 1.597.692 1.319.146 2.499-.875 1.215-.984 3.02-.802 1.597.146 1.84.693.312.766.347 1.057.104.438.66.438.485-.037.971.292.209.146.382.036.174-.073.139-.401-.104-.839-.625-1.495-.52-.657-.555-.875.833.109 1.041-.146.382-.62.52-.693.487-.292-.034-.146-.486.182-.833.11-.486-.074-5.38-1.131-3.888-.802-4.617-.584-.417 0-.833-.437-.278-.401-.834-.474-.59-.11-.867.182z"/><path id="bd" stroke="#373535" stroke-width=".1" stroke-linejoin="miter" stroke-linecap="butt" stroke-miterlimit="4" fill="none" d="M145.576 36.893q.208-.11 3.09.328 3.297.51 3.61.547 1.076.073 2.36.365 1.562.292 1.284.547-.277.146-.972 1.057-.381.547-1.388.912-1.111.438-2.43.438-2.534 0-3.714-.985-.59-.474-1.076-.73-.799-.327-.521-1.312-.278.51-.556.474-.46 0-.468.128-.06-.21-.122-.274l-.139-.11q.105.074.382-.036.313-.11.417-.11.139 0 .278-.181.138-.183.104-.402l-.14-.656z"/><path id="bf" stroke="#373535" stroke-width=".1" stroke-linejoin="miter" stroke-linecap="butt" stroke-miterlimit="4" fill="none" d="M148.283 36.018q.209-.183.66-.183.417-.036.729.11h.208q.452-.183 1.146-.037.729.146 1.006.474l.174.073q.903-.073 1.666.365.59.328 1.389 1.167.347.365.52.401.209.037.243.11.035.109-.173.218-.347.22-1.007 1.021-.382.511-1.354.84-1.076.4-2.36.4-2.465 0-3.61-.948-.66-.51-1.042-.73-.243-.109-.45-.364-.21-.292-.14-.583.104-.292-.034-.693-.174-.51-.278-.766.416-.328.729-.146l.104-.036q.729-.876 1.736-.693h.138z"/><path id="bh" stroke="#373535" stroke-width=".1" stroke-linejoin="miter" stroke-linecap="butt" stroke-miterlimit="4" fill="none" d="M155.25 37.976q-.799-.84-1.389-1.167-.764-.438-1.666-.365l-.07.328q.59.255 1.32.839.763.583 1.11 1.094.556-.51.694-.73z"/><path id="bj" stroke="#373535" stroke-width=".1" stroke-linejoin="miter" stroke-linecap="butt" stroke-miterlimit="4" fill="none" d="M150.702 37.574l.937-.255.382-.948q-.277-.328-1.006-.474-.695-.146-1.146.036 0 .475-.104.73.486.255.937.911z"/><path id="bl" stroke="#373535" stroke-width=".1" stroke-linejoin="miter" stroke-linecap="butt" stroke-miterlimit="4" fill="none" d="M149.66 35.933q-.311-.145-.728-.109-.451 0-.66.182-.173.365-.173.876.347 0 .625.291.59-.218.833-.51.139-.474.104-.73z"/><path id="bn" stroke="#373535" stroke-width=".1" stroke-linejoin="miter" stroke-linecap="butt" stroke-miterlimit="4" fill="none" d="M146.398 36.7q.729-.876 1.736-.694-.14.256-.209.84-.937-.074-1.492.29l-.035-.437z"/><path id="bp" stroke="#373535" stroke-width=".1" stroke-linejoin="miter" stroke-linecap="butt" stroke-miterlimit="4" fill="none" d="M154.382 38.814q-.833-1.13-2.291-1.86l-.174.438 1.146 2.115q.972-.401 1.319-.693z"/><path id="br" stroke="#373535" stroke-width=".1" stroke-linejoin="miter" stroke-linecap="butt" stroke-miterlimit="4" fill="none" d="M150.702 37.83l.972-.256 1.076 2.006q-1.25.474-2.221.401.173-.911.173-2.151z"/><path id="bt" stroke="#373535" stroke-width=".1" stroke-linejoin="miter" stroke-linecap="butt" stroke-miterlimit="4" fill="none" d="M148.793 37.465l.868-.51q.486.328.729.729 0 1.13-.174 2.297-.972 0-1.423-.292.139-1.568 0-2.224z"/><path id="bv" stroke="#373535" stroke-width=".1" stroke-linejoin="miter" stroke-linecap="butt" stroke-miterlimit="4" fill="none" d="M146.329 38.121l.07-.656q.38-.219.971-.292.694-.073 1.18.183.104.875-.035 2.115-1.423-1.167-2.186-1.35z"/><path id="bx" stroke="#373535" stroke-width=".1" stroke-linejoin="miter" stroke-linecap="butt" stroke-miterlimit="4" fill="none" d="M143.805 38.06q.382 0 .625-.401.313-.438.382-.474"/><path id="by" stroke="#373535" stroke-width=".1" stroke-linejoin="miter" stroke-linecap="butt" stroke-miterlimit="4" fill="none" d="M144.187 38.096q.243.11.625-.364t.52-.474"/><path id="bz" stroke="#373535" stroke-width=".1" stroke-linejoin="miter" stroke-linecap="butt" stroke-miterlimit="4" fill="none" d="M143.25 36.747q.104 0 .208-.11.14-.036.278.147.07.072.382.182"/><path id="bA" stroke="#373535" stroke-width=".1" stroke-linejoin="miter" stroke-linecap="butt" stroke-miterlimit="4" fill="none" d="M144.048 37.55q-.485.583-.763.4"/><path id="bB" stroke="#373535" stroke-width=".1" stroke-linejoin="miter" stroke-linecap="butt" stroke-miterlimit="4" fill="none" d="M143.18 36.2l-.381.474"/><path id="bC" stroke="#373535" stroke-width=".1" stroke-linejoin="miter" stroke-linecap="butt" stroke-miterlimit="4" fill="none" d="M142.695 37.002l-.035.256"/><path id="bE" stroke="#373535" stroke-width=".1" stroke-linejoin="miter" stroke-linecap="butt" stroke-miterlimit="4" fill="none" d="M146.27 45.098q-.035-.219.139-.437.174-.256.174-.329.034.183.104.51.104-.254.625-.546-.105.182.173.583.104-.4.798-.4-.034.036-.138.364.381 0 .52-.182 0 .364-.208.51l.417-.036q-.07.073-.105.218-.025.135-.086.183.307-.161.468.11.104.254-.208.583-.174.182-.243.182.07.11.035.474.208.401.243.401h.347q.52 0 1.736-.219 1.214-.218 1.77-.218.59 0 1.319.182.729.146.972.146.625 0 .625-.51 0-.402-1.25-.402-.625 0-1.493.146-.867.146-1.353.146-1.701 0-1.701-.839 0-.656 1.041-.656.382 0 .52-.146.174-.255.521-.474.14-.11.66-.11t.729-.146q.07.329-.555.62 1.006-.291 1.145.292-.416-.219-.798-.036-.382.146-.521.182.139 0 .312.182.174.183.313.183-.486.4-1.32.036-.312-.219-.798-.219-.763 0-.763.365 0 .438 1.18.438.382 0 1.215-.146.798-.146 1.527-.146.07-.328-.173-.51.972 0 1.284.546-.035-.182.104-.51.104-.328.035-.474.52.073.59.62.208-.146.208-.292.556.182.417.839.07-.146.208-.256.139-.072.174-.255.104.183.034.547-.058.337-.243.493.521-.345 1.007.2-.243-.073-.625.146-.937.583-2.36.51-.417 0-.799-.109-.345-.073-.59-.073.109.003.625.328.486.329.799.329.624 0 .763-.037.243-.146.59.11.382.328.66.255-.104.328-.313.364.243.146.348.438-.105.11-.348.11.174.109.313.437-.174.11-.313 0 .105.11.105.328 0 .22.034.292.14.146-.034.292-.174.11-.348-.073.035.11-.069.219-.07.073-.174.036-.277-.073-.208-.255l.035-.073q-.174.219-.382.073l-.104-.146q-.243.073-.347-.073-.104-.146-.07-.292.035-.11.174-.146.173-.072.243 0 .173.073.312 0 .174-.109.174-.291 0-.183-.139-.365-.243-.219-.694-.182-.556.036-1.32-.073-.763-.146-1.214-.328l-.14-.073q0 .073-.138.255-.104.146-.07.255 0 .401.382.584-.104.146-.277.146-.14.036-.209-.073 0 .073-.104.218-.104.11-.104.22l-.139-.256q-.104.255-.347.401-.243.146-.416.11-.417.291-.625-.073-.313.182-.486 0 0 .109-.104.291-.035.073-.14.11-.103.036-.173 0-.07-.073-.104-.146-.025-.107.017-.146-.237.124-.364-.11-.104-.255.104-.255h.07q-.035-.073-.14-.073-.138 0-.208-.036-.034-.037-.069-.11 0-.109.035-.145.208-.22.277-.073l.07.073q0-.183.104-.256.139-.146.382.11.173.182.486.146.416-.037.972-.584-.556-.11-.486-.438.07-.218.382-.474-.382-.145-.695.037-1.25.693-1.527.839-.833.364-1.32.218 0 .183.105.292-.416.073-.555-.11-.209.22-.07.548l-.52-.255q.104.109.034.474-.312-.329-.486-.146-.173.182-.486.11-.139.218-.382.327l-.034-.364q-.104.328-.417.474v-.328q-.035.218-.486.437.104-.182.035-.437-.208.364-.486.4.07-.072.07-.328-.105.292-.625.292 0 .11-.14.146-.138.073-.312-.036-.277-.22-.173-.329-.104 0-.209-.145-.104-.11-.069-.256l.07-.11q-.313-.218-.07-.473.139-.146.312-.037 0-.328.209-.328.173-.036.277.182.243.438.66.365l.208-.036q1.007-.401 1.285-.693l.069-.365-.52.365v-.183l-.521-.036q.104-.037.243-.365-.313.11-.695-.073.07-.255.14-.4-.14.072-.556.036.07-.329.243-.438-.313.073-.694-.11.173 0 .45-.291-.242.036-.45-.073-.174-.146-.278-.182.173 0 .416-.146-.104-.037-.243-.183-.104-.145-.034-.255l-.174.182q-.243.146-.486-.182-.07-.146-.035-.292.035-.145.174-.218-.174-.037-.208-.183-.035-.146.07-.255.138-.292.346-.073l.14.219q-.07-.219 0-.474 0-.146.242-.219.278 0 .278.328 0 .037.07.438l.069-.183q0-.291.381-.109.105.037.14.219.034.146-.105.292-.173.145.035.4.66 1.022 1.458 1.095 0-.365.243-.584 0-.219.104-.4.07-.475.382-.366l-.104-.145q-.313-.329-.174-.62.174-.365.486-.037z"/><path id="bF" stroke="#373535" stroke-width=".1" stroke-linejoin="miter" stroke-linecap="butt" stroke-miterlimit="4" fill="none" d="M145.634 47.02q-.416.182-.52.729"/><path id="bG" stroke="#373535" stroke-width=".1" stroke-linejoin="miter" stroke-linecap="butt" stroke-miterlimit="4" fill="none" d="M145.565 47.384q-.764.437-.625 1.167"/><path id="bH" stroke="#373535" stroke-width=".1" stroke-linejoin="miter" stroke-linecap="butt" stroke-miterlimit="4" fill="none" d="M145.808 48.988q.52-.255.729-.729"/><path id="bI" stroke="#373535" stroke-width=".1" stroke-linejoin="miter" stroke-linecap="butt" stroke-miterlimit="4" fill="none" d="M146.398 48.514q-.035.073-.035.365-.034.255-.104.365.451-.329.52-.73"/><path id="bJ" stroke="#373535" stroke-width=".1" stroke-linejoin="miter" stroke-linecap="butt" stroke-miterlimit="4" fill="none" d="M146.502 49.025q.382-.073.66-.73-.035.11-.104.548.347-.365.381-.693l.07.218q.173-.182.208-.4"/><path id="bK" stroke="#373535" stroke-width=".1" stroke-linejoin="miter" stroke-linecap="butt" stroke-miterlimit="4" fill="none" d="M147.682 48.113v.255q.278-.182.278-.62"/><path id="bL" stroke="#373535" stroke-width=".1" stroke-linejoin="miter" stroke-linecap="butt" stroke-miterlimit="4" fill="none" d="M147.925 48.04q.347-.146.347-.984"/><path id="bM" stroke="#373535" stroke-width=".1" stroke-linejoin="miter" stroke-linecap="butt" stroke-miterlimit="4" fill="none" d="M148.238 47.566q.277-.182.243-.693"/><path id="bN" stroke="#373535" stroke-width=".1" stroke-linejoin="miter" stroke-linecap="butt" stroke-miterlimit="4" fill="none" d="M147.856 45.415q-.174.073-.208.218 0 .146-.14.438-.069.292-.312.182-.138-.073-.138-.218 0-.146.138-.256.14-.146.14-.218 0-.203.12-.274-.169.087-.398.018-.243-.073-.278-.291"/><path id="bO" stroke="#373535" stroke-width=".1" stroke-linejoin="miter" stroke-linecap="butt" stroke-miterlimit="4" fill="none" d="M148.307 45.633q-.208-.145-.347-.072h-.278"/><path id="bP" stroke="#373535" stroke-width=".1" stroke-linejoin="miter" stroke-linecap="butt" stroke-miterlimit="4" fill="none" d="M147.578 45.852q.209.22.556.073-.14.037-.209-.11-.07-.145.07-.29"/><path id="bQ" stroke="#373535" stroke-width=".1" stroke-linejoin="miter" stroke-linecap="butt" stroke-miterlimit="4" fill="none" d="M147.162 45.342q-.174 0-.243.11-.104.072-.07.181.035.11.174.146.139 0 .243-.073"/><path id="bR" stroke="#373535" stroke-width=".1" stroke-linejoin="miter" stroke-linecap="butt" stroke-miterlimit="4" fill="none" d="M146.815 47.93l.104-.218q.173.073.243-.073.312 0 .382-.328.104 0 .208-.328.173 0 .243-.256.07.073.139 0 .104-.036.138-.145"/><path id="bS" stroke="#373535" stroke-width=".1" stroke-linejoin="miter" stroke-linecap="butt" stroke-miterlimit="4" fill="none" d="M146.19 46.217q0 .146-.174.219.07.073 0 .219-.034.145-.104.182.07.219-.07.365.105.218.07.291"/><path id="bT" stroke="#373535" stroke-width=".1" stroke-linejoin="miter" stroke-linecap="butt" stroke-miterlimit="4" fill="none" d="M146.433 45.196q-.104.182-.07.365.035.218.174.255"/><path id="bU" stroke="#373535" stroke-width=".1" stroke-linejoin="miter" stroke-linecap="butt" stroke-miterlimit="4" fill="none" d="M146.502 45.998q-.104.73-.104.766-.243.474.278.62.347.073.52-.037.243-.145.382-.692"/><path id="bV" stroke="#373535" stroke-width=".1" stroke-linejoin="miter" stroke-linecap="butt" stroke-miterlimit="4" fill="none" d="M148.377 48.697q0 .109-.14.182"/><path id="bW" stroke="#373535" stroke-width=".1" stroke-linejoin="miter" stroke-linecap="butt" stroke-miterlimit="4" fill="none" d="M148.689 48.587q0 .183-.139.328"/><path id="bX" stroke="#373535" stroke-width=".1" stroke-linejoin="miter" stroke-linecap="butt" stroke-miterlimit="4" fill="none" d="M149.07 48.514q0 .183-.103.292"/><path id="bY" stroke="#373535" stroke-width=".1" stroke-linejoin="miter" stroke-linecap="butt" stroke-miterlimit="4" fill="none" d="M146.155 45.415q-.06-.016-.104 0-.065.011-.104.073-.07.109 0 .255"/><path id="bZ" stroke="#373535" stroke-width=".1" stroke-linejoin="miter" stroke-linecap="butt" stroke-miterlimit="4" fill="none" d="M145.877 46.108l-.208.145"/><path id="ca" stroke="#373535" stroke-width=".1" stroke-linejoin="miter" stroke-linecap="butt" stroke-miterlimit="4" fill="none" d="M145.739 46.582l-.174.073"/><path id="cb" stroke="#373535" stroke-width=".1" stroke-linejoin="miter" stroke-linecap="butt" stroke-miterlimit="4" fill="none" d="M142.684 45.889l-.278-.146"/><path id="cc" stroke="#373535" stroke-width=".1" stroke-linejoin="miter" stroke-linecap="butt" stroke-miterlimit="4" fill="none" d="M145.426 47.894q-.486.438-.52.876"/><path id="cd" stroke="#373535" stroke-width=".1" stroke-linejoin="miter" stroke-linecap="butt" stroke-miterlimit="4" fill="none" d="M145.808 48.113q-.139.292-.382.474"/><path id="ce" stroke="#373535" stroke-width=".1" stroke-linejoin="miter" stroke-linecap="butt" stroke-miterlimit="4" fill="none" d="M143.864 49.681q-.555.146-.972-.146l-.173-.073"/><path id="cf" stroke="#373535" stroke-width=".1" stroke-linejoin="miter" stroke-linecap="butt" stroke-miterlimit="4" fill="none" d="M145.357 48.952q-.07.437-.174.547.764-.51.764-.985"/><path id="cg" stroke="#373535" stroke-width=".1" stroke-linejoin="miter" stroke-linecap="butt" stroke-miterlimit="4" fill="none" d="M142.476 49.973q.312 0 .416-.073"/><path id="ch" stroke="#373535" stroke-width=".1" stroke-linejoin="miter" stroke-linecap="butt" stroke-miterlimit="4" fill="none" d="M151.154 48.223q.243.073.312.145.035-.145.382-.328"/><path id="ci" stroke="#373535" stroke-width=".1" stroke-linejoin="miter" stroke-linecap="butt" stroke-miterlimit="4" fill="none" d="M147.613 49.317q-.07-.365.347-.584"/><path id="cj" stroke="#373535" stroke-width=".1" stroke-linejoin="miter" stroke-linecap="butt" stroke-miterlimit="4" fill="none" d="M145.634 50.228l.105-.364"/><path id="ck" stroke="#373535" stroke-width=".1" stroke-linejoin="miter" stroke-linecap="butt" stroke-miterlimit="4" fill="none" d="M143.482 50.374q-.173.11-.173.328"/><path id="cl" stroke="#373535" stroke-width=".1" stroke-linejoin="miter" stroke-linecap="butt" stroke-miterlimit="4" fill="none" d="M142.753 50.447q.313-.219.313-.255"/><path id="cm" stroke="#373535" stroke-width=".1" stroke-linejoin="miter" stroke-linecap="butt" stroke-miterlimit="4" fill="none" d="M149.487 49.754l-.173-.036"/><path id="cn" stroke="#373535" stroke-width=".1" stroke-linejoin="miter" stroke-linecap="butt" stroke-miterlimit="4" fill="none" d="M149.487 49.973l-.138.11"/><path id="co" stroke="#373535" stroke-width=".1" stroke-linejoin="miter" stroke-linecap="butt" stroke-miterlimit="4" fill="none" d="M151.154 50.41q.104-.072.243-.364"/><path id="cp" stroke="#373535" stroke-width=".1" stroke-linejoin="miter" stroke-linecap="butt" stroke-miterlimit="4" fill="none" d="M150.529 50.338q.139-.073.382-.329"/><path id="cq" stroke="#373535" stroke-width=".1" stroke-linejoin="miter" stroke-linecap="butt" stroke-miterlimit="4" fill="none" d="M151.917 49.9q0-.219.035-.292"/><path id="cr" stroke="#373535" stroke-width=".1" stroke-linejoin="miter" stroke-linecap="butt" stroke-miterlimit="4" fill="none" d="M155.597 50.374q-.14-.255.069-.365l.243-.145"/><path id="cs" stroke="#373535" stroke-width=".1" stroke-linejoin="miter" stroke-linecap="butt" stroke-miterlimit="4" fill="none" d="M152.577 48.55q-.347-.145-.764-.546-.278-.292-.66-.255"/><path id="ct" stroke="#373535" stroke-width=".1" stroke-linejoin="miter" stroke-linecap="butt" stroke-miterlimit="4" fill="none" d="M156.117 50.155q.07.11-.034.292"/><path id="cu" stroke="#373535" stroke-width=".1" stroke-linejoin="miter" stroke-linecap="butt" stroke-miterlimit="4" fill="none" d="M156.569 50.192q-.07.11-.07.328"/><path id="cv" stroke="#373535" stroke-width=".1" stroke-linejoin="miter" stroke-linecap="butt" stroke-miterlimit="4" fill="none" d="M152.68 45.232h-.346"/><path id="cw" stroke="#373535" stroke-width=".1" stroke-linejoin="miter" stroke-linecap="butt" stroke-miterlimit="4" fill="none" d="M148.48 47.02q0 .072.14.182.173.145.416.145"/><path id="cx" stroke="#373535" stroke-width=".1" stroke-linejoin="miter" stroke-linecap="butt" stroke-miterlimit="4" fill="none" d="M148.585 46.363q-.035-.037.035-.219.067-.141.173-.219-.21.145-.312.073-.104.255-.278.328-.173.11-.312-.036-.243.51-.556.401-.243-.073-.173-.438-.174.22-.382.183-.174-.037-.243-.146-.104-.182.07-.693"/><path id="cR" stroke="#373535" stroke-width=".05" stroke-linejoin="miter" stroke-linecap="butt" stroke-miterlimit="4" fill="none" d="M146.27 55.31l-.937-3.064-.972 3.063h-3.09l2.534 1.933-.971 3.063 2.499-1.896 2.5 1.896-.973-3.1 2.5-1.896h-3.09z"/><path id="cT" stroke="#373535" stroke-width=".05" stroke-linejoin="miter" stroke-linecap="butt" stroke-miterlimit="4" fill="none" d="M153.213 57.205l-2.534-1.896h3.124l.937-3.063.937 3.063h3.125l-2.535 1.933.972 3.063-2.499-1.896-2.5 1.896.973-3.1z"/><path id="cV" stroke="#373535" stroke-width=".05" stroke-linejoin="miter" stroke-linecap="butt" stroke-miterlimit="4" fill="none" d="M154.08 61.035h-3.089l-.972-3.064-.937 3.064h-3.124l2.534 1.932-.972 3.064 2.5-1.897 2.498 1.897-.972-3.1 2.535-1.896z"/></defs><use xlink:href="#a" transform="matrix(.69426 0 0 .72935 -101.65 -234.5)"/><g transform="matrix(.69429 0 0 .72939 -101.65 -234.5)"><use xlink:href="#b"/><use xlink:href="#c" transform="matrix(1.4403 0 0 1.371 146.4 321.5)"/></g><use xlink:href="#d" transform="matrix(.69426 0 0 .72935 -101.65 -234.5)"/><use xlink:href="#e" transform="matrix(.69426 0 0 .72935 -101.65 -234.5)"/><use xlink:href="#f" transform="matrix(.69426 0 0 .72935 -101.65 -234.5)"/><use xlink:href="#g" transform="matrix(.69426 0 0 .72935 -101.65 -234.5)"/><use xlink:href="#h" transform="matrix(.69426 0 0 .72935 -101.65 -234.5)"/><g transform="matrix(.69426 0 0 .72935 -101.65 -234.5)"><use xlink:href="#i"/><use xlink:href="#j" transform="matrix(1.44037 0 0 1.37106 146.4 321.5)"/></g><use xlink:href="#k" transform="matrix(.69429 0 0 .72939 -101.65 -234.5)"/><use xlink:href="#l" transform="matrix(.69429 0 0 .72939 -101.65 -234.5)"/><use xlink:href="#m" transform="matrix(.69429 0 0 .72939 -101.65 -234.5)"/><g transform="matrix(.69426 0 0 .72935 -101.65 -234.5)"><use xlink:href="#n"/><use xlink:href="#o" transform="matrix(1.44037 0 0 1.37106 146.4 321.5)"/></g><g transform="matrix(.69426 0 0 .72935 -101.65 -234.5)"><use xlink:href="#p"/><use xlink:href="#q" transform="matrix(1.44037 0 0 1.37106 146.4 321.5)"/></g><g transform="matrix(.69426 0 0 .72935 -101.65 -234.5)"><use xlink:href="#r"/><use xlink:href="#s" transform="matrix(1.44037 0 0 1.37106 146.4 321.5)"/></g><g transform="matrix(.69426 0 0 .72935 -101.65 -234.5)"><use xlink:href="#t"/><use xlink:href="#u" transform="matrix(1.44037 0 0 1.37106 146.4 321.5)"/></g><use xlink:href="#v" transform="matrix(.69429 0 0 .72939 -101.65 -234.5)"/><use xlink:href="#w" transform="matrix(.69429 0 0 .72939 -101.65 -234.5)"/><g transform="matrix(.69426 0 0 .72935 -101.65 -234.5)"><use xlink:href="#x"/><use xlink:href="#y" transform="matrix(1.44037 0 0 1.37106 146.4 321.5)"/></g><g transform="matrix(.69426 0 0 .72935 -101.65 -234.5)"><use xlink:href="#z"/><use xlink:href="#A" transform="matrix(1.44037 0 0 1.37106 146.4 321.5)"/></g><g transform="matrix(.69426 0 0 .72935 -101.65 -234.5)"><use xlink:href="#B"/><use xlink:href="#C" transform="matrix(1.44037 0 0 1.37106 146.4 321.5)"/></g><g transform="matrix(.69423 0 0 .72932 -101.65 -234.5)"><use xlink:href="#D"/><use xlink:href="#E" transform="matrix(1.44044 0 0 1.37112 146.4 321.5)"/></g><g transform="matrix(.69423 0 0 .72932 -101.65 -234.5)"><use xlink:href="#F"/><use xlink:href="#G" transform="matrix(1.44044 0 0 1.37112 146.4 321.5)"/></g><g transform="matrix(.69423 0 0 .72932 -101.65 -234.5)"><use xlink:href="#H"/><use xlink:href="#I" transform="matrix(1.44044 0 0 1.37112 146.4 321.5)"/></g><g transform="matrix(.69423 0 0 .72932 -101.65 -234.5)"><use xlink:href="#J"/><use xlink:href="#K" transform="matrix(1.44044 0 0 1.37112 146.4 321.5)"/></g><g transform="matrix(.69423 0 0 .72932 -101.65 -234.5)"><use xlink:href="#L"/><use xlink:href="#M" transform="matrix(1.44044 0 0 1.37112 146.4 321.5)"/></g><g transform="matrix(.69423 0 0 .72932 -101.65 -234.5)"><use xlink:href="#N"/><use xlink:href="#O" transform="matrix(1.44044 0 0 1.37112 146.4 321.5)"/></g><use xlink:href="#P" transform="matrix(.6942 0 0 .7293 -101.65 -234.5)"/><use xlink:href="#Q" transform="matrix(1 0 0 1 -.02 -.032)"/><use xlink:href="#R" transform="matrix(.6942 0 0 .7293 -101.65 -234.5)"/><use xlink:href="#S" transform="matrix(1 0 0 1 -.02 -.032)"/><use xlink:href="#T" transform="matrix(.6942 0 0 .7293 -101.65 -234.5)"/><use xlink:href="#U" transform="matrix(1 0 0 1 -.02 -.032)"/><use xlink:href="#V" transform="matrix(.6942 0 0 .7293 -101.65 -234.5)"/><use xlink:href="#W" transform="matrix(1 0 0 1 -.02 -.032)"/><use xlink:href="#X" transform="matrix(.6942 0 0 .7293 -101.65 -234.5)"/><use xlink:href="#Y" transform="matrix(1 0 0 1 -.02 -.032)"/><use xlink:href="#Z" transform="matrix(.6942 0 0 .7293 -101.65 -234.5)"/><use xlink:href="#aa" transform="matrix(1 0 0 1 -.02 -.032)"/><use xlink:href="#ab" transform="matrix(.6942 0 0 .7293 -101.65 -234.5)"/><use xlink:href="#ac" transform="matrix(1 0 0 1 -.02 -.032)"/><use xlink:href="#ad" transform="matrix(.6942 0 0 .7293 -101.65 -234.5)"/><use xlink:href="#ae" transform="matrix(1 0 0 1 -.02 -.032)"/><use xlink:href="#af" transform="matrix(.6942 0 0 .7293 -101.65 -234.5)"/><use xlink:href="#ag" transform="matrix(1 0 0 1 -.02 -.032)"/><use xlink:href="#ah" transform="matrix(.6942 0 0 .7293 -101.65 -234.5)"/><use xlink:href="#ai" transform="matrix(1 0 0 1 -.02 -.032)"/><use xlink:href="#aj" transform="matrix(1 0 0 1 -.015 -.022)"/><use xlink:href="#ak" transform="matrix(1 0 0 1 -.015 -.022)"/><use xlink:href="#al" transform="matrix(1 0 0 1 -.015 -.022)"/><use xlink:href="#am" transform="matrix(1 0 0 1 -.015 -.022)"/><use xlink:href="#an" transform="matrix(1 0 0 1 -.015 -.022)"/><use xlink:href="#ao" transform="matrix(1 0 0 1 -.015 -.022)"/><use xlink:href="#ap" transform="matrix(1 0 0 1 -.015 -.022)"/><use xlink:href="#aq" transform="matrix(1 0 0 1 -.015 -.022)"/><g transform="matrix(.69423 0 0 .72932 -101.65 -234.5)"><use xlink:href="#ar"/><use xlink:href="#as" transform="matrix(1.44044 0 0 1.37112 146.4 321.5)"/></g><g transform="matrix(.69423 0 0 .72932 -101.65 -234.5)"><use xlink:href="#at"/><use xlink:href="#au" transform="matrix(1.44044 0 0 1.37112 146.4 321.5)"/></g><g transform="matrix(.69423 0 0 .72932 -101.65 -234.5)"><use xlink:href="#av"/><use xlink:href="#aw" transform="matrix(1.44044 0 0 1.37112 146.4 321.5)"/></g><g transform="matrix(.69423 0 0 .72932 -101.65 -234.5)"><use xlink:href="#ax"/><use xlink:href="#ay" transform="matrix(1.44044 0 0 1.37112 146.4 321.5)"/></g><g transform="matrix(.69423 0 0 .72932 -101.65 -234.5)"><use xlink:href="#az"/><use xlink:href="#aA" transform="matrix(1.44044 0 0 1.37112 146.4 321.5)"/></g><g transform="matrix(.69423 0 0 .72932 -101.65 -234.5)"><use xlink:href="#aB"/><use xlink:href="#aC" transform="matrix(1.44044 0 0 1.37112 146.4 321.5)"/></g><g transform="matrix(.69423 0 0 .72932 -101.65 -234.5)"><use xlink:href="#aD"/><use xlink:href="#aE" transform="matrix(1.44044 0 0 1.37112 146.4 321.5)"/></g><g transform="matrix(.69423 0 0 .72932 -101.65 -234.5)"><use xlink:href="#aF"/><use xlink:href="#aG" transform="matrix(1.44044 0 0 1.37112 146.4 321.5)"/></g><g transform="matrix(.69423 0 0 .72932 -101.65 -234.5)"><use xlink:href="#aH"/><use xlink:href="#aI" transform="matrix(1.44044 0 0 1.37112 146.4 321.5)"/></g><g transform="matrix(.69423 0 0 .72932 -101.65 -234.5)"><use xlink:href="#aJ"/><use xlink:href="#aK" transform="matrix(1.44044 0 0 1.37112 146.4 321.5)"/></g><g transform="matrix(.69423 0 0 .72932 -101.65 -234.5)"><use xlink:href="#aL"/><use xlink:href="#aM" transform="matrix(1.44044 0 0 1.37112 146.4 321.5)"/></g><g transform="matrix(.69423 0 0 .72932 -101.65 -234.5)"><use xlink:href="#aN"/><use xlink:href="#aO" transform="matrix(1.44044 0 0 1.37112 146.4 321.5)"/></g><g transform="matrix(.69423 0 0 .72932 -101.65 -234.5)"><use xlink:href="#aP"/><use xlink:href="#aQ" transform="matrix(1.44044 0 0 1.37112 146.4 321.5)"/></g><g transform="matrix(.69423 0 0 .72932 -101.65 -234.5)"><use xlink:href="#aR"/><use xlink:href="#aS" transform="matrix(1.44044 0 0 1.37112 146.4 321.5)"/></g><g transform="matrix(.69423 0 0 .72932 -101.65 -234.5)"><use xlink:href="#aT"/><use xlink:href="#aU" transform="matrix(1.44044 0 0 1.37112 146.4 321.5)"/></g><g transform="matrix(.69426 0 0 .72935 -101.65 -234.5)"><use xlink:href="#aV"/><use xlink:href="#aW" transform="matrix(1.44037 0 0 1.37106 146.4 321.5)"/></g><use xlink:href="#aX" transform="matrix(.99999 0 0 1 -.01 -.012)"/><use xlink:href="#aY" transform="matrix(.99999 0 0 1 -.01 -.012)"/><use xlink:href="#aZ" transform="matrix(.99999 0 0 1 -.01 -.012)"/><g transform="matrix(.69426 0 0 .72935 -101.65 -234.5)"><use xlink:href="#ba"/><use xlink:href="#bb" transform="matrix(1.44037 0 0 1.37106 146.4 321.5)"/></g><g transform="matrix(.69426 0 0 .72935 -101.65 -234.5)"><use xlink:href="#bc"/><use xlink:href="#bd" transform="matrix(1.44037 0 0 1.37106 146.4 321.5)"/></g><g transform="matrix(.69426 0 0 .72935 -101.65 -234.5)"><use xlink:href="#be"/><use xlink:href="#bf" transform="matrix(1.44037 0 0 1.37106 146.4 321.5)"/></g><g transform="matrix(.69423 0 0 .72932 -101.65 -234.5)"><use xlink:href="#bg"/><use xlink:href="#bh" transform="matrix(1.44044 0 0 1.37112 146.4 321.5)"/></g><g transform="matrix(.69423 0 0 .72932 -101.65 -234.5)"><use xlink:href="#bi"/><use xlink:href="#bj" transform="matrix(1.44044 0 0 1.37112 146.4 321.5)"/></g><g transform="matrix(.69423 0 0 .72932 -101.65 -234.5)"><use xlink:href="#bk"/><use xlink:href="#bl" transform="matrix(1.44044 0 0 1.37112 146.4 321.5)"/></g><g transform="matrix(.69423 0 0 .72932 -101.65 -234.5)"><use xlink:href="#bm"/><use xlink:href="#bn" transform="matrix(1.44044 0 0 1.37112 146.4 321.5)"/></g><g transform="matrix(.69423 0 0 .72932 -101.65 -234.5)"><use xlink:href="#bo"/><use xlink:href="#bp" transform="matrix(1.44044 0 0 1.37112 146.4 321.5)"/></g><g transform="matrix(.69423 0 0 .72932 -101.65 -234.5)"><use xlink:href="#bq"/><use xlink:href="#br" transform="matrix(1.44044 0 0 1.37112 146.4 321.5)"/></g><g transform="matrix(.69423 0 0 .72932 -101.65 -234.5)"><use xlink:href="#bs"/><use xlink:href="#bt" transform="matrix(1.44044 0 0 1.37112 146.4 321.5)"/></g><g transform="matrix(.69423 0 0 .72932 -101.65 -234.5)"><use xlink:href="#bu"/><use xlink:href="#bv" transform="matrix(1.44044 0 0 1.37112 146.4 321.5)"/></g><use xlink:href="#bw" transform="matrix(.69426 0 0 .72935 -101.65 -234.5)"/><use xlink:href="#bx" transform="matrix(.99999 0 0 1 -.01 -.012)"/><use xlink:href="#by" transform="matrix(.99999 0 0 1 -.01 -.012)"/><use xlink:href="#bz" transform="matrix(.99999 0 0 1 -.01 -.012)"/><use xlink:href="#bA" transform="matrix(.99999 0 0 1 -.01 -.012)"/><use xlink:href="#bB" transform="matrix(.99999 0 0 1 -.01 -.012)"/><use xlink:href="#bC" transform="matrix(.99999 0 0 1 -.01 -.012)"/><g transform="matrix(.69426 0 0 .72935 -101.65 -234.5)"><use xlink:href="#bD"/><use xlink:href="#bE" transform="matrix(1.44037 0 0 1.37106 146.4 321.5)"/></g><use xlink:href="#bF" transform="matrix(1 0 0 1 -.015 -.022)"/><use xlink:href="#bG" transform="matrix(1 0 0 1 -.015 -.022)"/><use xlink:href="#bH" transform="matrix(1 0 0 1 -.015 -.022)"/><use xlink:href="#bI" transform="matrix(1 0 0 1 -.015 -.022)"/><use xlink:href="#bJ" transform="matrix(1 0 0 1 -.015 -.022)"/><use xlink:href="#bK" transform="matrix(1 0 0 1 -.015 -.022)"/><use xlink:href="#bL" transform="matrix(1 0 0 1 -.015 -.022)"/><use xlink:href="#bM" transform="matrix(1 0 0 1 -.015 -.022)"/><use xlink:href="#bN" transform="matrix(1 0 0 1 -.015 -.022)"/><use xlink:href="#bO" transform="matrix(1 0 0 1 -.015 -.022)"/><use xlink:href="#bP" transform="matrix(1 0 0 1 -.015 -.022)"/><use xlink:href="#bQ" transform="matrix(1 0 0 1 -.015 -.022)"/><use xlink:href="#bR" transform="matrix(1 0 0 1 -.015 -.022)"/><use xlink:href="#bS" transform="matrix(1 0 0 1 -.015 -.022)"/><use xlink:href="#bT" transform="matrix(1 0 0 1 -.015 -.022)"/><use xlink:href="#bU" transform="matrix(1 0 0 1 -.015 -.022)"/><use xlink:href="#bV" transform="matrix(1 0 0 1 -.015 -.022)"/><use xlink:href="#bW" transform="matrix(1 0 0 1 -.015 -.022)"/><use xlink:href="#bX" transform="matrix(1 0 0 1 -.015 -.022)"/><use xlink:href="#bY" transform="matrix(1 0 0 1 -.015 -.022)"/><use xlink:href="#bZ" transform="matrix(1 0 0 1 -.015 -.022)"/><use xlink:href="#ca" transform="matrix(1 0 0 1 -.015 -.022)"/><use xlink:href="#cb" transform="matrix(1 0 0 1 -.015 -.022)"/><use xlink:href="#cc" transform="matrix(1 0 0 1 -.015 -.022)"/><use xlink:href="#cd" transform="matrix(1 0 0 1 -.015 -.022)"/><use xlink:href="#ce" transform="matrix(1 0 0 1 -.015 -.022)"/><use xlink:href="#cf" transform="matrix(1 0 0 1 -.015 -.022)"/><use xlink:href="#cg" transform="matrix(1 0 0 1 -.015 -.022)"/><use xlink:href="#ch" transform="matrix(1 0 0 1 -.015 -.022)"/><use xlink:href="#ci" transform="matrix(1 0 0 1 -.015 -.022)"/><use xlink:href="#cj" transform="matrix(1 0 0 1 -.015 -.022)"/><use xlink:href="#ck" transform="matrix(1 0 0 1 -.015 -.022)"/><use xlink:href="#cl" transform="matrix(1 0 0 1 -.015 -.022)"/><use xlink:href="#cm" transform="matrix(1 0 0 1 -.015 -.022)"/><use xlink:href="#cn" transform="matrix(1 0 0 1 -.015 -.022)"/><use xlink:href="#co" transform="matrix(1 0 0 1 -.015 -.022)"/><use xlink:href="#cp" transform="matrix(1 0 0 1 -.015 -.022)"/><use xlink:href="#cq" transform="matrix(1 0 0 1 -.015 -.022)"/><use xlink:href="#cr" transform="matrix(1 0 0 1 -.015 -.022)"/><use xlink:href="#cs" transform="matrix(1 0 0 1 -.015 -.022)"/><use xlink:href="#ct" transform="matrix(1 0 0 1 -.015 -.022)"/><use xlink:href="#cu" transform="matrix(1 0 0 1 -.015 -.022)"/><use xlink:href="#cv" transform="matrix(1 0 0 1 -.015 -.022)"/><use xlink:href="#cw" transform="matrix(1 0 0 1 -.015 -.022)"/><use xlink:href="#cx" transform="matrix(1 0 0 1 -.015 -.022)"/><use xlink:href="#cy" transform="matrix(.69426 0 0 .72935 -101.65 -234.5)"/><use xlink:href="#cz" transform="matrix(.69423 0 0 .72932 -101.65 -234.5)"/><use xlink:href="#cA" transform="matrix(.69423 0 0 .72932 -101.65 -234.5)"/><use xlink:href="#cB" transform="matrix(.69423 0 0 .72932 -101.65 -234.5)"/><use xlink:href="#cC" transform="matrix(.69423 0 0 .72932 -101.65 -234.5)"/><use xlink:href="#cD" transform="matrix(.69423 0 0 .72932 -101.65 -234.5)"/><use xlink:href="#cE" transform="matrix(.69423 0 0 .72932 -101.65 -234.5)"/><use xlink:href="#cF" transform="matrix(.69423 0 0 .72932 -101.65 -234.5)"/><use xlink:href="#cG" transform="matrix(.69423 0 0 .72932 -101.65 -234.5)"/><use xlink:href="#cH" transform="matrix(.69423 0 0 .72932 -101.65 -234.5)"/><use xlink:href="#cI" transform="matrix(.69423 0 0 .72932 -101.65 -234.5)"/><use xlink:href="#cJ" transform="matrix(.69423 0 0 .72932 -101.65 -234.5)"/><use xlink:href="#cK" transform="matrix(.69423 0 0 .72932 -101.65 -234.5)"/><use xlink:href="#cL" transform="matrix(.69423 0 0 .72932 -101.65 -234.5)"/><use xlink:href="#cM" transform="matrix(.69423 0 0 .72932 -101.65 -234.5)"/><use xlink:href="#cN" transform="matrix(.69423 0 0 .72932 -101.65 -234.5)"/><use xlink:href="#cO" transform="matrix(.69423 0 0 .72932 -101.65 -234.5)"/><use xlink:href="#cP" transform="matrix(.69423 0 0 .72932 -101.65 -234.5)"/><g transform="matrix(.69426 0 0 .72935 -101.65 -234.5)"><use xlink:href="#cQ"/><use xlink:href="#cR" transform="matrix(1.44037 0 0 1.37106 146.4 321.5)"/></g><g transform="matrix(.69426 0 0 .72935 -101.65 -234.5)"><use xlink:href="#cS"/><use xlink:href="#cT" transform="matrix(1.44037 0 0 1.37106 146.4 321.5)"/></g><g transform="matrix(.69426 0 0 .72935 -101.65 -234.5)"><use xlink:href="#cU"/><use xlink:href="#cV" transform="matrix(1.44037 0 0 1.37106 146.4 321.5)"/></g><use xlink:href="#cW" transform="matrix(.69426 0 0 .72935 -101.65 -234.5)"/><use xlink:href="#cX" transform="matrix(.69426 0 0 .72935 -101.65 -234.5)"/><use xlink:href="#cY" transform="matrix(.69426 0 0 .72935 -101.65 -234.5)"/><use xlink:href="#cZ" transform="matrix(.69423 0 0 .72932 -101.65 -234.5)"/><use xlink:href="#da" transform="matrix(.69423 0 0 .72932 -101.65 -234.5)"/><use xlink:href="#db" transform="matrix(.69423 0 0 .72932 -101.65 -234.5)"/><use xlink:href="#dc" transform="matrix(.69423 0 0 .72932 -101.65 -234.5)"/><use xlink:href="#dd" transform="matrix(.69423 0 0 .72932 -101.65 -234.5)"/><use xlink:href="#de" transform="matrix(.69423 0 0 .72932 -101.65 -234.5)"/><use xlink:href="#df" transform="matrix(.69423 0 0 .72932 -101.65 -234.5)"/><use xlink:href="#dg" transform="matrix(.69423 0 0 .72932 -101.65 -234.5)"/><use xlink:href="#dh" transform="matrix(.69423 0 0 .72932 -101.65 -234.5)"/><use xlink:href="#di" transform="matrix(.69423 0 0 .72932 -101.65 -234.5)"/><use xlink:href="#dj" transform="matrix(.69423 0 0 .72932 -101.65 -234.5)"/><use xlink:href="#dk" transform="matrix(.69423 0 0 .72932 -101.65 -234.5)"/><use xlink:href="#dl" transform="matrix(.69423 0 0 .72932 -101.65 -234.5)"/><use xlink:href="#dm" transform="matrix(.69423 0 0 .72932 -101.65 -234.5)"/><use xlink:href="#dn" transform="matrix(.69423 0 0 .72932 -101.65 -234.5)"/><use xlink:href="#do" transform="matrix(.69423 0 0 .72932 -101.65 -234.5)"/><use xlink:href="#dp" transform="matrix(.69423 0 0 .72932 -101.65 -234.5)"/><use xlink:href="#dq" transform="matrix(.69423 0 0 .72932 -101.65 -234.5)"/><use xlink:href="#dr" transform="matrix(.69423 0 0 .72932 -101.65 -234.5)"/><use xlink:href="#ds" transform="matrix(.69423 0 0 .72932 -101.65 -234.5)"/><use xlink:href="#dt" transform="matrix(.69423 0 0 .72932 -101.65 -234.5)"/><use xlink:href="#du" transform="matrix(.69423 0 0 .72932 -101.65 -234.5)"/><use xlink:href="#dv" transform="matrix(.69426 0 0 .72935 -101.65 -234.5)"/><use xlink:href="#dw" transform="matrix(.69423 0 0 .72932 -101.65 -234.5)"/><use xlink:href="#dx" transform="matrix(.69423 0 0 .72932 -101.65 -234.5)"/><use xlink:href="#dy" transform="matrix(.69423 0 0 .72932 -101.65 -234.5)"/></svg>