<svg xmlns="http://www.w3.org/2000/svg" xmlns:xlink="http://www.w3.org/1999/xlink" preserveAspectRatio="none" width="200" height="105"><defs><path fill="#1F5393" d="M423.95 391v-71.95H184V391h239.95z" id="a"/><path fill="#EE3156" d="M184 391v72h239.95v-72H184z" id="b"/><path fill="#373535" d="M218.15 345.2q-1.15-.2-1.85.45-.7.65-.35 1.8-1.35.05-1.6.95-.25.85.6 1.75-1.4.3-1.5 1.3-.1.95.85 1.65-1.05.45-.95 1.45.1.9 1 1.3-.6.5-.55 1.25.05.8.8 1.25-2.05 1.05-2.35 1.35 1.45.75 3.4 5.55 2.2 5.3 3.2 6.35 9.95.25 35.2.6 1.1 0 1.8-.9.3-.45.95-1.85 1.9-3.85 2.5-4.9 1.65-2.9 2.85-3.3.95-.35-.3-1.25-1.4-.95-2.4-1.15 1.4-1.05.3-2.5 1.05-.75 1-1.6 0-.75-.8-1.2 1.05-.85.85-1.8-.2-.9-1.1-.95.75-1.1.45-2.05-.35-.9-1.65-.85.35-1.1-.35-1.8-.7-.65-1.7-.3-.15-1.05-.85-1.5-.8-.5-1.7.3-.5-1.25-1.4-1.45-.9-.2-1.45.75-.65-.9-1.5-.95-.9-.1-1.35.75-.65-.5-1.5-.35-.8.15-1.05.85-.6-.65-1.45-.6-.85 0-1.3.8-.75-.45-1.45-.35-.75.1-1.05.75-.35-.5-1-.3.8-1.05.45-2.35-.35-1.3-1.55-1.65l.4-.8q.1-.3-.1-.65l-.6-1 .5-.5 1.2.65q.35.25.75 0l1.3-.95q.3-.2-.05-.55l-1.25-.85q-.3-.2-.8 0l-1.15.6q-.35-.35-.6-.4l.9-1.75q.25-.4.05-.7l-.95-1.85q-.25-.3-.6.1l-1.05 1.55q-.25.4-.05.75l.75 1.7q-.45.45-.45.5l-1.3-.65q-.25-.1-.65.05l-1.65 1q-.15.1-.05.2.05.1.3.25l1.3.9q.25.15.65 0l1.1-.55.55.55-.6 1.05q-.2.35-.05.6l.35.75q-1.45.4-1.75 1.85-.25 1.2.35 2.35-.6-.1-.9.3-.55-.65-1.3-.8-.75-.1-1.15.4-.5-.75-1.3-.9-.85-.2-1.45.35-.55-.9-1.35-1-.75-.1-1.35.6-.35-.7-1.25-.75-.95-.1-1.4.7-.65-.7-1.45-.55-.8.15-1.3.95-.8-.65-1.6-.35-.9.3-1.1 1.55z" id="c"/><path fill="#FFD761" d="M215.85 354.55q0-1-1-1-.95 0-.95 1 0 .95.95.95 1 0 1-.95z" id="d"/><path fill="#FFD761" d="M216.35 357.05q0-1-1-1t-1 1q0 .95 1 .95t1-.95z" id="f"/><path fill="#FFD761" d="M215.9 351.7q0-1-1-1t-1 1q0 .95 1 .95t1-.95z" id="h"/><path fill="#FFD761" d="M216.7 348.95q0-1-1-1-.95 0-.95 1 0 .95.95.95 1 0 1-.95z" id="j"/><path fill="#FFD761" d="M217.25 347.6q1 0 1-.95 0-1-1-1-.95 0-.95 1 0 .95.95.95z" id="l"/><path fill="#FFD761" d="M220.7 345.05q0-1.05-1.05-1.05-1 0-1 1.05 0 1 1 1 1.05 0 1.05-1z" id="n"/><path fill="#FFD761" d="M223.25 344.5q0-1.05-1.05-1.05-1 0-1 1.05 0 1 1 1 1.05 0 1.05-1z" id="p"/><path fill="#FFD761" d="M225.85 344.35q0-1.05-1.05-1.05-1 0-1 1.05 0 1 1 1 1.05 0 1.05-1z" id="r"/><path fill="#FFD761" d="M228.5 344.7q0-1.05-1.05-1.05-1 0-1 1.05 0 1 1 1 1.05 0 1.05-1z" id="t"/><path fill="#FFD761" d="M231.15 345.15q0-1.05-1.05-1.05-1 0-1 1.05 0 1 1 1 1.05 0 1.05-1z" id="v"/><path fill="#FFD761" d="M233.65 345.7q0-1.05-1-1.05-1.05 0-1.05 1.05 0 1 1.05 1 1 0 1-1z" id="x"/><path fill="#FFD761" d="M236.1 346.15q0-1.05-1-1.05-1.05 0-1.05 1.05 0 1 1.05 1 1 0 1-1z" id="z"/><path fill="#FFD761" d="M240.5 345.95q0-1.05-1-1.05-1.05 0-1.05 1.05 0 1 1.05 1 1 0 1-1z" id="B"/><path fill="#FFD761" d="M242.85 345.5q0-1.05-1-1.05-1.05 0-1.05 1.05 0 1 1.05 1 1 0 1-1z" id="D"/><path fill="#FFD761" d="M245.3 345.05q0-1.05-1-1.05t-1 1.05q0 1 1 1t1-1z" id="F"/><path fill="#FFD761" d="M238.15 337.05q0-.75-.75-.75-.8 0-.8.75t.8.75q.75 0 .75-.75z" id="H"/><path fill="#FFD761" d="M248 344.75q0-1-1.05-1-1 0-1 1t1 1q1.05 0 1.05-1z" id="J"/><path fill="#FFD761" d="M250.6 344.5q0-1.05-1.05-1.05-1 0-1 1.05 0 1 1 1 1.05 0 1.05-1z" id="L"/><path fill="#FFD761" d="M253.3 344.75q0-1.05-1-1.05t-1 1.05q0 1 1 1t1-1z" id="N"/><path fill="#FFD761" d="M256 345.6q0-1.05-1.05-1.05-1 0-1 1.05 0 1 1 1 1.05 0 1.05-1z" id="P"/><path fill="#FFD761" d="M257.15 348.25q1.05 0 1.05-1 0-1.05-1.05-1.05-1 0-1 1.05 0 1 1 1z" id="R"/><path fill="#FFD761" d="M259.8 349.4q0-1.05-1-1.05-1.05 0-1.05 1.05 0 1 1.05 1 1 0 1-1z" id="T"/><path fill="#FFD761" d="M260.4 352.25q0-1-1-1-.95 0-.95 1 0 .95.95.95 1 0 1-.95z" id="V"/><path fill="#FFD761" d="M260.35 354.85q0-1-1-1-.95 0-.95 1 0 .95.95.95 1 0 1-.95z" id="X"/><path fill="#FFD761" d="M259.75 357.5q0-.95-1-.95-.95 0-.95.95t.95.95q1 0 1-.95z" id="Z"/><path fill="#FFD761" d="M237.85 348.45q0-.7-.7-.7-.65 0-.65.7 0 .65.65.65.7 0 .7-.65z" id="ab"/><path fill="#FFD761" d="M237.25 347.15q.65 0 .65-.65 0-.7-.65-.7t-.65.7q0 .65.65.65z" id="ad"/><path fill="#FFD761" d="M237.9 350.5q0-.8-.8-.8t-.8.8q0 .8.8.8t.8-.8z" id="af"/><path fill="#FFD761" d="M238.05 352.7q0-.9-.9-.9-.95 0-.95.9t.95.9q.9 0 .9-.9z" id="ah"/><path fill="#FFD761" d="M238.05 355q0-.95-.95-.95-.9 0-.9.95 0 .9.9.9.95 0 .95-.9z" id="aj"/><path fill="#FFD761" d="M227.35 357.25q-1.45-1-2.85-.6-1.3.35-2.1 2.05-.8 1.7-.55 3.3.05.3-.1.4-.1.05-.25-.35-.85-2.7-3.4-3.5-2.55-.8-4.85.85-.25.2-.25.25 0 .1.45.55 1.05 1 2.5 4.65 1.7 4.3 2.95 6.15.2.35.6.25l.3-.05q.1-.1 0-.5-.1-.45 0-.55.15-.1.35.45.1.4.15.4.05.05.25-.05l.3-.05q.05-.05 0-.35-.1-.35.05-.45.1-.1.2.3.1.3.15.35.05.05.25 0 .15 0 .3-.05.1-.05 0-.4-.05-.35.05-.4.1 0 .2.35.05.3.15.3 0 .05.25 0t.3-.05q.05-.1 0-.4-.05-.35.05-.4.1-.05.2.35.15.3.25.35l.65-.15q.1-.1.05-.4-.1-.4 0-.45.15-.1.3.4.1.3.2.35.05.05.4-.05.35-.05.4-.05.1-.05.05-.35t.1-.35q.1-.05.2.3.05.25.1.3.1.05.4 0l.4-.1q.1-.1.05-.45-.05-.45.05-.55.15-.1.2.55.05.35.15.4.05.05.35 0 .35-.05.4-.1.1-.1.1-.4-.05-.35.05-.4.1-.05.15.4.05.35.15.35.05.05.3 0h.35q.1-.1.1-.45-.05-.45.1-.5.15-.05.2.5.05.35.15.4l.3-.05h.35q.05-.05.05-.35 0-.5.15-.55.15-.05.15.4.05.35.15.45l.3-.05h.4q.15-.1.1-.45 0-.35.15-.35.1 0 .15.35l.1.35q.05.1.35.05.3 0 .35-.05v-.4q.05-.4.2-.4.15 0 .15.4 0 .35.05.4 0 .05.4 0h.4q.1-.05.05-.4-.05-.45.15-.5.2-.05.2.45l.05.4q.05.05.45.05h.55q.05-.05.1-.45 0-.4.2-.45.15-.05.15.4t.1.5h1.05q.15 0 .2-.05v-.4q0-.4.15-.45.15 0 .15.45v.4q.05.05.4.05.4.05.45 0v-.4q0-.4.15-.4.15-.05.15.4 0 .4.05.45h.55q.1-.05.05-.35 0-.4.25-.5.2-.1.2.5-.05.35 0 .35 0 .05.35.05.3.05.35 0v-.4q.05-.4.25-.45.2-.05.15.5-.05.3 0 .3.05.1.35.15.35.05.4 0 .05-.05.1-.45 0-.5.2-.45.15 0 .15.45-.05.4 0 .45 0 .05.35.1.4.05.45.05.1-.05.15-.45.05-.5.2-.5.15 0 .15.5-.05.45.05.5h.25q.25.05.3.05.05-.05.1-.4.05-.45.25-.5.15-.05.1.5-.05.3 0 .4.05.05.3.1.3.05.35.05.15-.05.2-.4.05-.4.2-.4.15-.05.1.4-.05.35 0 .4.05 0 .3.1l.3.05q.1-.05.15-.4.1-.5.25-.5.2.05.1.55 0 .4.25.45l.55.05q.2.1.25-.4.05-.35.2-.4.2 0 .15.45-.05.45 0 .5h.3q.2.05.25 0 .1-.05.15-.35.05-.35.2-.35.15-.05.1.35-.05.4 0 .45 0 .05.25.1.2.05.25 0 .1-.05.15-.35.1-.3.3-.35.2 0 .05.4-.1.35-.05.4 0 .05.25.1.3.1.35.1.15-.05.2-.35.1-.35.25-.4.1-.05.05.4-.1.35 0 .4.05.05.3.1l.3.05q.1 0 .15-.35.1-.4.3-.35.15 0 .05.4-.15.35-.1.4l.3.05q.2.05.35.1.1-.05.15-.4.1-.4.3-.35.2.05.1.45-.1.35-.05.4 0 .05.25.1.25.1.3.05.05 0 .2-.4.1-.4.2-.35.15.05.05.45-.1.3-.05.35.05.1.4.1.4 0 .7-.25.3-.3.85-1.15 1.6-3.3 2.45-5 1.55-3.2 3.4-4.3.4-.2.2-.55-.25-.3-1-.55-6.5-2.3-8.8 3.6-.2.5-.4.45-.15-.05 0-.55.55-2.1.15-3.85-.45-2-2-2.45-2.1-.6-4.35 1-2.1 1.5-2.9 3.9-.1.35-.25.2-.15-.1-.2-.6-.85-5.4-4.95-5.3-4.95.1-5.35 5.05 0 .3-.15.2-.25-.3-.4-.45-2.5-2.95-3.9-3.9z" id="al"/><path fill="#FFD761" d="M218.95 356.25v-6.3q-.7.9-.65 3 .05 2 .65 3.3z" id="an"/><path fill="#FFD761" d="M219.35 349.6v7.25q.35.55.85.9v-8.95q-.6.45-.85.8z" id="ap"/><path fill="#FFD761" d="M220.55 348.55v9.4q.55.15 1-.05v-9.8l-1 .45z" id="ar"/><path fill="#FFD761" d="M221.9 347.95v9.8q.5-.3.85-.65l.05-.05v-9.3l-.9.2z" id="at"/><path fill="#FFD761" d="M223.2 347.65v9.1l.8-.5v-8.7l-.8.1z" id="av"/><path fill="#FFD761" d="M224.35 347.55v8.55l.75-.1v-8.45h-.75z" id="ax"/><path fill="#FFD761" d="M225.45 347.55V356l.75.1v-8.5l-.75-.05z" id="az"/><path fill="#FFD761" d="M226.5 347.65v8.6q.45.1 1 .45v-8.9l-1-.15z" id="aB"/><path fill="#FFD761" d="M227.85 347.9v9.05l.8.7v-9.5l-.8-.25z" id="aD"/><path fill="#FFD761" d="M229.05 348.25v9.7l.8.6v-10l-.8-.3z" id="aF"/><path fill="#FFD761" d="M230.25 348.7v9.95q.4.15.85-.1v-9.4l-.85-.45z" id="aH"/><path fill="#FFD761" d="M231.45 349.4v8.85q.35-.2.95-.8v-7.4q-.35-.35-.95-.65z" id="aJ"/><path fill="#FFD761" d="M232.75 350.3v6.75q.75-1.55.95-3.1.3-2.3-.95-3.65z" id="aL"/><path fill="#FFD761" d="M242.25 349.4q-.7.35-1 .65v7.5q.4.65 1 .95v-9.1z" id="aN"/><path fill="#FFD761" d="M248.75 347.9v8.45q.35 0 .8.15v-8.6h-.8z" id="aP"/><path fill="#FFD761" d="M249.95 347.85v8.8q.6.3.9.55v-9.25l-.9-.1z" id="aR"/><path fill="#FFD761" d="M252.05 358.3v-10.1l-.85-.2v9.45l.85.85z" id="aT"/><path fill="#FFD761" d="M252.45 348.35v10.2q.55.25.9.2v-10q-.45-.25-.9-.4z" id="aV"/><path fill="#FFD761" d="M242.6 349.25v9.45q.55.2.9.05v-9.85q-.6.15-.9.35z" id="aX"/><path fill="#FFD761" d="M244.7 357.95v-9.35l-.85.2v9.75l.85-.6z" id="aZ"/><path fill="#FFD761" d="M245.05 348.5v9.25l.9-.55v-8.9l-.9.2z" id="bb"/><path fill="#FFD761" d="M246.3 348.25V357q.25-.2.85-.4v-8.5q-.1 0-.85.15z" id="bd"/><path fill="#FFD761" d="M247.5 348.05v8.45q.45-.15.9-.15v-8.4l-.9.1z" id="bf"/><path fill="#FFD761" d="M240.9 357v-6.6q-.6.75-.7 2.35-.05 2.7.7 4.25z" id="bh"/><path fill="#FFD761" d="M254.65 349.75l-.9-.75v9.6q.4-.25.9-.95v-7.9z" id="bj"/><path fill="#FFD761" d="M255 350.3v6.65q.85-1.55.9-3.35.1-2-.9-3.3z" id="bl"/><path fill="#FFD761" d="M239.75 347.55q-.05.4.15 1.3 4.65-1.55 8.5-1.65 4.35-.15 6.2 1.75 1.9 2 1.9 4.3 0 2.15-1.75 6.15.65-.35 2.15-.65 1-3.1 1.1-5.05.15-3.1-1.55-5.2-1.9-2.35-5.45-2.5-3.35-.15-11.25 1.55z" id="bn"/><path fill="#FFD761" d="M239.35 347.5l-1.15.05q-.05.7.7 8.6.85.2 1.35.55-.8-2.45-.9-9.2z" id="bp"/><path fill="#FFD761" d="M236.2 347.7q-.6-.15-1.25-.1-.35 6.55-1.4 9.1 1.6-.75 1.65-.75.3-1.1.6-4.2.3-3.2.4-4.05z" id="br"/><path fill="#FFD761" d="M234.15 348.8q.2-.4.2-1.05-6.65-2.05-10.85-1.9-3.75.1-5.2 1.8-1.55 1.8-1.9 3.8-.45 2.55.75 6.3 1.6.2 2.25.7-2.05-4.25-1.7-6.8.25-2.15 2.4-3.55 2.25-1.45 6.55-.95 2.8.3 7.5 1.65z" id="bt"/><path fill="#FFD761" d="M236.55 341q0-.15-.1-.1-.85.25-1.05 1.05-.05.1.25.1h.7q.15 0 .15-.25l.05-.8z" id="bv"/><path fill="#FFD761" d="M237.05 340.7q-.1 0-.1.15l-.1 1.35q0 .25-.3.25l-1.35.1q-.15 0-.15.2v.55q.05.15.45.1 1.65-.3 3.6.05.3.05.3-.25l.05-.5q-.05-.2-.3-.2l-1.1-.1q-.3 0-.3-.3l-.05-1.05q0-.3-.15-.35h-.5z" id="bx"/><path fill="#FFD761" d="M238.4 341.05q-.3-.1-.3.15v.6q0 .25.2.25l.75.05q.3 0 .15-.25-.3-.5-.8-.8z" id="bz"/><path fill="#FFD761" d="M237.15 343.65q-1.15 0-1.75.15-.25.1-.1.35.6 1.35 1.8 1.35 1.45 0 2.05-1.4.1-.25-.45-.3-.5-.1-1.55-.15z" id="bB"/><path fill="#FFD761" d="M238.25 339.75q.15-.2 0-.4l-.5-.95q-.2-.25-.3-.2l-.3-.05q-.15 0-.2.2l-.35.75q-.2.4-.15.6.25.5.4.65.6 0 .95.05l.45-.65z" id="bD"/><path fill="#FFD761" d="M235.25 336.15q-.35-.2-.75.05l-.85.45q-.4.25-.05.4l.75.55q.25.15.35.15.05 0 .25-.05l1.1-.45q-.1-.3.05-.7l-.85-.4z" id="bF"/><path fill="#FFD761" d="M238.35 333.55l-.6-1.2q-.15-.2-.2-.15-.05 0-.2.2l-.65 1.05q-.2.25-.1.65l.8 1.7h.2l.8-1.55q.15-.25-.05-.7z" id="bH"/><path fill="#FFD761" d="M239.85 336.2q-.85.45-1.25.55.05.2-.05.55l1.15.5q.4.2.7 0l.95-.65q.2-.05-.15-.35l-.8-.55q-.2-.2-.55-.05z" id="bJ"/><path fill="#373535" d="M215.5 361.2q.2.2.3.1.05-.1-.05-.25-.3-.4-.7-.6-.3-.15-.35 0-.1.1.05.25l.75.5z" id="bL"/><path fill="#373535" d="M216.5 361.2q.15.1.2 0 .05-.1-.05-.25l-.45-.65q-.25-.4-.35-.2-.15.2.05.4l.6.7z" id="bM"/><path fill="#373535" d="M217.15 360.3q-.25 0-.1.3l.45.9q.1.2.25.2.15.05.05-.25l-.3-.9q-.1-.25-.35-.25z" id="bN"/><path fill="#373535" d="M218.45 360.65q-.25 0-.2.3l.35.85q.1.15.2.1.1-.05.05-.25l-.1-.75q-.05-.25-.3-.25z" id="bO"/><path fill="#373535" d="M219.45 361.2q-.15-.05-.1.25l.2.75q.05.2.1.15.1 0 .1-.2l-.05-.75q-.05-.2-.25-.2z" id="bP"/><path fill="#373535" d="M223.2 363.2q.35.1.2-.2-.5-.8-.55-.85-.15-.15-.35-.05-.2.1 0 .35l.7.75z" id="bQ"/><path fill="#373535" d="M223.55 362.05q.15.2.2.1.1-.1 0-.25l-.6-.9q-.25-.4-.35-.15-.05.3.1.45l.65.75z" id="bR"/><path fill="#373535" d="M223.45 359.85q-.2.1 0 .4l.5.8q.1.15.2.1.1-.05 0-.25l-.35-.9q-.15-.3-.35-.15z" id="bS"/><path fill="#373535" d="M224.55 360.15q.05.2.15.15.1-.1.05-.25l-.15-.65q-.1-.4-.3-.25-.2.15-.1.4l.35.6z" id="bT"/><path fill="#373535" d="M225.5 359.95q.1.2.2.15.15-.05.05-.25l-.3-.9q-.15-.3-.35-.2-.15.1-.05.35l.45.85z" id="bU"/><path fill="#373535" d="M226.45 359.95q.1.2.2.15.15 0 .05-.2l-.25-.9q-.1-.3-.3-.25-.2.05-.1.3l.4.9z" id="bV"/><path fill="#373535" d="M227.2 359.4l.4.9q.1.25.25.25.1 0 .05-.2-.2-.9-.3-1.1-.1-.35-.3-.25-.2.1-.1.4z" id="bW"/><path fill="#373535" d="M228.6 359.7q-.2 0-.15.25l.25.95q.1.15.2.1.15-.05.1-.25l-.15-.75q-.05-.25-.25-.3z" id="bX"/><path fill="#373535" d="M233.05 361.7q.05.2.2.2.15 0 .1-.2l-.15-.95q-.05-.25-.25-.2-.2.05-.15.3l.25.85z" id="bY"/><path fill="#373535" d="M233.65 360.5q.05.2.2.15.15-.05.1-.2l-.15-.95q-.05-.3-.25-.2-.25.1-.15.3l.25.9z" id="bZ"/><path fill="#373535" d="M234.6 359.4q0 .25.2 0l.05-.95q0-.4-.2-.3-.25.05-.2.3l.15.95z" id="ca"/><path fill="#373535" d="M235.55 358.85q0 .3.15.25.15 0 .15-.2l.05-.95q-.05-.3-.25-.2-.25.05-.2.25l.1.85z" id="cb"/><path fill="#373535" d="M236.45 358.95q.05.25.15.2.1 0 .15-.25.05-.1.05-.95.05-.35-.25-.4-.3 0-.25.35l.15 1.05z" id="cc"/><path fill="#373535" d="M237.4 358.95q0 .2.1.25.1 0 .15-.2l.2-1q.05-.3-.2-.3t-.25.25v1z" id="cd"/><path fill="#373535" d="M238.35 359q0 .25.15.25.15-.05.2-.2l.05-.8q0-.3-.15-.3-.2.05-.2.25l-.05.8z" id="ce"/><path fill="#373535" d="M239.05 359.9q-.1.55.35.15l.25-1.1q.05-.3-.15-.3-.15-.05-.25.2l-.2 1.05z" id="cf"/><path fill="#373535" d="M239.8 360.45q-.05.2.05.25.1 0 .2-.1l.25-.65q.05-.15-.1-.15-.15.05-.2.15l-.2.5z" id="cg"/><path fill="#373535" d="M243.85 362.2q0 .2.15.2.1 0 .15-.15l.05-.8q.05-.4-.2-.25-.25.1-.2.35l.05.65z" id="ch"/><path fill="#373535" d="M244.9 361.3q0 .25.15.25.1-.05.15-.2l.3-1q.1-.25-.15-.25t-.3.25l-.15.95z" id="ci"/><path fill="#373535" d="M246 360.8q-.05.2.1.15.15 0 .2-.2l.35-1.15q.05-.35-.25-.15-.35.15-.35.4l-.05.95z" id="cj"/><path fill="#373535" d="M246.95 360.4q-.05.25.05.25.1-.05.2-.2l.45-1q.1-.35-.15-.35t-.35.3l-.2 1z" id="ck"/><path fill="#373535" d="M248.1 360.05q-.05.25.1.3.1 0 .2-.15l.35-.9q.1-.3-.15-.3t-.3.2q-.1.2-.2.85z" id="cl"/><path fill="#373535" d="M248.95 360.65q-.05.2.1.25.15 0 .2-.15.25-.65.35-1.05.15-.4-.1-.4t-.3.25l-.25 1.1z" id="cm"/><path fill="#373535" d="M249.55 361.3q-.05.25.05.3.1 0 .2-.15l.5-1q.1-.3-.05-.35-.2 0-.3.25l-.4.95z" id="cn"/><path fill="#373535" d="M249.9 362.2q-.15.2-.05.3.15.05.25-.05l.6-.7q.15-.15-.05-.25-.2-.05-.3.05l-.45.65z" id="co"/><path fill="#373535" d="M254.4 362.4q0 .2.15.2.1 0 .15-.15l.3-.65q.15-.2 0-.25-.2-.05-.3.1-.3.4-.3.75z" id="cp"/><path fill="#373535" d="M255.4 362.1q-.05.2.05.2.05.05.15-.1l.6-1q.2-.25-.05-.3-.2-.1-.35.1-.15.2-.4 1.1z" id="cq"/><path fill="#373535" d="M256.45 361.75q-.05.2.1.25.15.05.25-.15.35-.7.6-1 .2-.2-.05-.3-.25-.05-.4.15l-.5 1.05z" id="cr"/><path fill="#373535" d="M257.6 361.6q-.15.25 0 .3.1.05.25-.1.35-.35.65-.8.2-.3-.05-.4-.25-.05-.4.15l-.45.85z" id="cs"/><path fill="#373535" d="M258.6 361.4q-.15.2-.05.3.1.1.2-.05.7-.5.8-.65.2-.2 0-.25-.2-.1-.4.05-.25.2-.55.6z" id="ct"/><path fill="#373535" d="M252.95 368.9q-.1.35.1.3.15 0 .25-.15 1.7-2.9 3.15-3.75.45-.3.45-.45.05-.2-.5.1-.6.35-.9.2-.3-.15-.05-.65.55-1.15.75-1.4.15-.2 0-.35-.1-.1-.3.2-.15.25-1.45 1.8-.6.6-.75.1-.1-.25-.35-.65-.05-.15-.15-.1-.1.05-.1.35.25 2.8-.15 4.45z" id="cu"/><path fill="#373535" d="M248.3 363.9l.8-.8q.1-.15.05-.2-.05-.1-.25 0-.55.35-.9.45-.5.2-.4-.5.4-1.25.45-1.55.05-.4-.2-.15-.15.15-.5.95-.35.85-.55 1.05-.35.55-.6-.15-.2-.6-.45-.9-.15-.2-.25-.1-.1.15.05.65.5 1.45.5 3.5v1.35q.05.2.15.2.1.05.15-.15.7-2.3 1.95-3.65z" id="cv"/><path fill="#373535" d="M239.1 361.3q.25-.5.1-.55-.15-.05-.4.3-.45.6-.7.65-.25.1-.45-.25-.4-.65-.4-1.5-.05-.4-.2-.4-.2-.05-.2.4-.05.95-.5 1.5-.3.35-.85.1l-.8-.55q-.25-.15-.35-.05-.1.1.2.5 1.2 1.7 1.5 2.4.7 1.45.7 3.15 0 .35.15.4.15.05.2-.4.3-1.75.75-3.05.35-.85 1.25-2.65z" id="cw"/><path fill="#373535" d="M228 362.65q.15-.35.05-.45-.15-.15-.35.3-.35.8-.8.25l-.95-1.85q-.1-.35-.25-.3-.15.1-.05.4.5 1.7.4 2.15-.05.4-.45.25l-.65-.35q-.15-.1-.25 0-.1.05.1.25 2.3 1.9 2.85 4.2.1.25.2.3.1 0 .05-.3-.55-3.45.1-4.85z" id="cx"/><path fill="#373535" d="M218.4 364.35q.05.35-.25.35-.25 0-.55-.2-.3-.2-.5-.2-.3-.05-.35.05-.05.1.15.25 2.8 1.95 3.55 3.3.15.35.35.4.15.1 0-.2-.75-1.75-.55-3 .3-1.1.25-1.5 0-.25-.1-.25t-.2.25l-.25.7q-.3.3-.7-.25-.6-.8-1.35-1.4-.2-.15-.3-.1-.15.05.05.25.75 1.05.75 1.55z" id="cy"/><path id="e" stroke="#373535" stroke-width=".05" stroke-linejoin="miter" stroke-linecap="butt" stroke-miterlimit="4" fill="none" d="M25.704 25.147q-.792 0-.792.73 0 .692.792.692.833 0 .833-.692 0-.73-.833-.73z"/><path id="g" stroke="#373535" stroke-width=".05" stroke-linejoin="miter" stroke-linecap="butt" stroke-miterlimit="4" fill="none" d="M26.12 26.97q-.833 0-.833.73 0 .693.833.693.834 0 .834-.693 0-.73-.834-.73z"/><path id="i" stroke="#373535" stroke-width=".05" stroke-linejoin="miter" stroke-linecap="butt" stroke-miterlimit="4" fill="none" d="M25.745 23.069q-.833 0-.833.729 0 .693.833.693.834 0 .834-.693 0-.73-.834-.73z"/><path id="k" stroke="#373535" stroke-width=".05" stroke-linejoin="miter" stroke-linecap="butt" stroke-miterlimit="4" fill="none" d="M26.412 21.063q-.792 0-.792.73 0 .692.792.692.833 0 .833-.693 0-.729-.833-.729z"/><path id="m" stroke="#373535" stroke-width=".05" stroke-linejoin="miter" stroke-linecap="butt" stroke-miterlimit="4" fill="none" d="M28.537 20.115q0-.73-.833-.73-.792 0-.792.73 0 .693.792.693.833 0 .833-.693z"/><path id="o" stroke="#373535" stroke-width=".05" stroke-linejoin="miter" stroke-linecap="butt" stroke-miterlimit="4" fill="none" d="M29.704 18.182q-.833 0-.833.766 0 .73.833.73.875 0 .875-.73 0-.766-.875-.766z"/><path id="q" stroke="#373535" stroke-width=".05" stroke-linejoin="miter" stroke-linecap="butt" stroke-miterlimit="4" fill="none" d="M31.83 17.781q-.834 0-.834.766 0 .73.833.73.875 0 .875-.73 0-.766-.875-.766z"/><path id="s" stroke="#373535" stroke-width=".05" stroke-linejoin="miter" stroke-linecap="butt" stroke-miterlimit="4" fill="none" d="M33.996 17.672q-.833 0-.833.766 0 .729.833.729.875 0 .875-.73 0-.765-.875-.765z"/><path id="u" stroke="#373535" stroke-width=".05" stroke-linejoin="miter" stroke-linecap="butt" stroke-miterlimit="4" fill="none" d="M36.204 17.927q-.833 0-.833.766 0 .73.833.73.875 0 .875-.73 0-.766-.875-.766z"/><path id="w" stroke="#373535" stroke-width=".05" stroke-linejoin="miter" stroke-linecap="butt" stroke-miterlimit="4" fill="none" d="M38.413 18.255q-.834 0-.834.766 0 .73.834.73.875 0 .875-.73 0-.766-.875-.766z"/><path id="y" stroke="#373535" stroke-width=".05" stroke-linejoin="miter" stroke-linecap="butt" stroke-miterlimit="4" fill="none" d="M40.538 18.656q-.875 0-.875.766 0 .73.875.73.833 0 .833-.73 0-.766-.833-.766z"/><path id="A" stroke="#373535" stroke-width=".05" stroke-linejoin="miter" stroke-linecap="butt" stroke-miterlimit="4" fill="none" d="M42.58 18.985q-.875 0-.875.765 0 .73.875.73.833 0 .833-.73 0-.765-.833-.765z"/><path id="C" stroke="#373535" stroke-width=".05" stroke-linejoin="miter" stroke-linecap="butt" stroke-miterlimit="4" fill="none" d="M46.247 18.839q-.875 0-.875.765 0 .73.875.73.833 0 .833-.73 0-.765-.833-.765z"/><path id="E" stroke="#373535" stroke-width=".05" stroke-linejoin="miter" stroke-linecap="butt" stroke-miterlimit="4" fill="none" d="M48.205 18.51q-.875 0-.875.766 0 .73.875.73.834 0 .834-.73 0-.765-.834-.765z"/><path id="G" stroke="#373535" stroke-width=".05" stroke-linejoin="miter" stroke-linecap="butt" stroke-miterlimit="4" fill="none" d="M50.247 18.182q-.833 0-.833.766 0 .73.833.73t.833-.73q0-.766-.833-.766z"/><path id="I" stroke="#373535" stroke-width=".05" stroke-linejoin="miter" stroke-linecap="butt" stroke-miterlimit="4" fill="none" d="M44.497 12.567q-.667 0-.667.547t.667.547q.625 0 .625-.547t-.625-.547z"/><path id="K" stroke="#373535" stroke-width=".05" stroke-linejoin="miter" stroke-linecap="butt" stroke-miterlimit="4" fill="none" d="M52.455 18q-.833 0-.833.73 0 .729.833.729.876 0 .876-.73 0-.729-.876-.729z"/><path id="M" stroke="#373535" stroke-width=".05" stroke-linejoin="miter" stroke-linecap="butt" stroke-miterlimit="4" fill="none" d="M54.622 17.781q-.833 0-.833.766 0 .73.833.73.875 0 .875-.73 0-.766-.875-.766z"/><path id="O" stroke="#373535" stroke-width=".05" stroke-linejoin="miter" stroke-linecap="butt" stroke-miterlimit="4" fill="none" d="M56.914 17.964q-.833 0-.833.765 0 .73.833.73.834 0 .834-.73 0-.765-.834-.765z"/><path id="Q" stroke="#373535" stroke-width=".05" stroke-linejoin="miter" stroke-linecap="butt" stroke-miterlimit="4" fill="none" d="M59.123 18.583q-.834 0-.834.766 0 .73.834.73.875 0 .875-.73 0-.766-.875-.766z"/><path id="S" stroke="#373535" stroke-width=".05" stroke-linejoin="miter" stroke-linecap="butt" stroke-miterlimit="4" fill="none" d="M61.831 20.553q0-.766-.875-.766-.833 0-.833.766 0 .729.833.729.875 0 .875-.73z"/><path id="U" stroke="#373535" stroke-width=".05" stroke-linejoin="miter" stroke-linecap="butt" stroke-miterlimit="4" fill="none" d="M62.331 21.355q-.875 0-.875.766 0 .729.875.729.834 0 .834-.73 0-.765-.834-.765z"/><path id="W" stroke="#373535" stroke-width=".05" stroke-linejoin="miter" stroke-linecap="butt" stroke-miterlimit="4" fill="none" d="M62.831 23.47q-.792 0-.792.73 0 .692.792.692.834 0 .834-.693 0-.73-.834-.73z"/><path id="Y" stroke="#373535" stroke-width=".05" stroke-linejoin="miter" stroke-linecap="butt" stroke-miterlimit="4" fill="none" d="M62.79 25.366q-.792 0-.792.73 0 .692.792.692.833 0 .833-.693 0-.729-.833-.729z"/><path id="aa" stroke="#373535" stroke-width=".05" stroke-linejoin="miter" stroke-linecap="butt" stroke-miterlimit="4" fill="none" d="M62.29 27.335q-.792 0-.792.693t.791.693q.834 0 .834-.693t-.834-.693z"/><path id="ac" stroke="#373535" stroke-width=".05" stroke-linejoin="miter" stroke-linecap="butt" stroke-miterlimit="4" fill="none" d="M44.288 20.917q-.541 0-.541.51 0 .475.541.475.584 0 .584-.474 0-.51-.584-.51z"/><path id="ae" stroke="#373535" stroke-width=".05" stroke-linejoin="miter" stroke-linecap="butt" stroke-miterlimit="4" fill="none" d="M44.913 20.006q0-.51-.541-.51-.542 0-.542.51 0 .474.542.474.541 0 .541-.474z"/><path id="ag" stroke="#373535" stroke-width=".05" stroke-linejoin="miter" stroke-linecap="butt" stroke-miterlimit="4" fill="none" d="M44.247 22.34q-.667 0-.667.583t.667.583q.666 0 .666-.583 0-.584-.666-.584z"/><path id="ai" stroke="#373535" stroke-width=".05" stroke-linejoin="miter" stroke-linecap="butt" stroke-miterlimit="4" fill="none" d="M44.288 23.87q-.791 0-.791.657t.791.657q.75 0 .75-.657 0-.656-.75-.656z"/><path id="ak" stroke="#373535" stroke-width=".05" stroke-linejoin="miter" stroke-linecap="butt" stroke-miterlimit="4" fill="none" d="M44.247 25.512q-.75 0-.75.693 0 .656.75.656.791 0 .791-.656 0-.693-.791-.693z"/><path id="am" stroke="#373535" stroke-width=".05" stroke-linejoin="miter" stroke-linecap="butt" stroke-miterlimit="4" fill="none" d="M33.746 27.408q-1.084.255-1.75 1.495-.667 1.24-.459 2.407.042.219-.083.292-.083.036-.208-.256-.709-1.969-2.834-2.552-2.125-.584-4.042.62-.208.146-.208.182 0 .073.375.401.875.73 2.083 3.391 1.417 3.136 2.459 4.486.167.255.5.182l.25-.036q.083-.073 0-.365-.083-.328 0-.401.125-.073.292.328.083.292.125.292.041.036.208-.037l.25-.036q.042-.037 0-.256-.083-.255.042-.328.083-.073.166.22.084.218.125.254.042.037.209 0 .125 0 .25-.036.083-.037 0-.292-.042-.255.041-.292.084 0 .167.256.042.218.125.218 0 .037.208 0 .209-.036.25-.036.042-.073 0-.292-.041-.255.042-.291.083-.037.167.255.125.219.208.255l.542-.11q.083-.072.042-.291-.084-.292 0-.328.125-.073.25.291.083.22.166.256.042.036.334-.037.291-.036.333-.036.083-.037.042-.255-.042-.22.083-.256.083-.036.167.22.041.181.083.218.083.036.333 0l.334-.073q.083-.073.041-.328-.041-.328.042-.401.125-.073.167.4.041.256.125.292.041.037.291 0 .292-.036.334-.072.083-.073.083-.292-.042-.255.042-.292.083-.036.125.292.041.255.125.255.041.037.25 0h.291q.084-.073.084-.328-.042-.328.083-.365.125-.036.167.365.041.255.125.292l.25-.037h.292q.041-.036.041-.255 0-.365.125-.401.125-.037.125.292.042.255.125.328l.25-.037h.334q.125-.073.083-.328 0-.255.125-.255.083 0 .125.255l.083.255q.042.073.292.037.25 0 .292-.037v-.291q.041-.292.166-.292t.125.292q0 .255.042.291 0 .037.333 0h.334q.083-.036.041-.291-.041-.329.125-.365.167-.037.167.328l.042.292q.041.036.375.036h.458q.042-.036.083-.328 0-.292.167-.328.125-.037.125.292 0 .328.084.364h.875q.125 0 .166-.036v-.292q0-.292.125-.328.125 0 .125.328v.292q.042.036.334.036.333.037.375 0v-.291q0-.292.125-.292.125-.037.125.292 0 .291.041.328h.459q.083-.037.041-.255 0-.292.209-.365.166-.073.166.365-.041.255 0 .255 0 .036.292.036.25.037.292 0v-.291q.041-.292.208-.329.167-.036.125.365-.042.219 0 .219.042.073.292.11.291.036.333 0 .042-.037.084-.329 0-.365.166-.328.125 0 .125.328-.041.292 0 .328 0 .037.292.073.333.037.375.037.083-.037.125-.329.042-.364.167-.364t.125.364q-.042.329.041.365h.209q.208.036.25.036.041-.036.083-.291.042-.328.208-.365.125-.036.084.365-.042.219 0 .291.041.037.25.073.25.037.291.037.125-.037.167-.292.042-.292.167-.292.125-.036.083.292-.042.255 0 .292.042 0 .25.073l.25.036q.083-.036.125-.291.083-.365.208-.365.167.036.084.401 0 .292.208.328l.458.037q.167.073.209-.292.042-.255.167-.292.166 0 .125.328-.042.329 0 .365h.25q.166.037.208 0 .083-.036.125-.255.042-.255.167-.255.125-.037.083.255-.042.292 0 .328 0 .036.208.073.167.036.209 0 .083-.037.125-.255.083-.22.25-.256.166 0 .041.292-.083.255-.041.292 0 .036.208.073.25.073.292.073.125-.037.166-.256.084-.255.209-.291.083-.037.041.291-.083.256 0 .292.042.037.25.073l.25.037q.084 0 .125-.256.084-.291.25-.255.125 0 .042.292-.125.255-.083.292l.25.036q.166.036.291.073.084-.037.125-.292.084-.292.25-.255.167.036.084.328-.084.255-.042.292 0 .036.208.073.209.073.25.036.042 0 .167-.291.084-.292.167-.256.125.037.042.328-.084.22-.042.256.042.073.333.073.334 0 .584-.183.25-.218.708-.838 1.333-2.407 2.042-3.647 1.292-2.334 2.833-3.136.334-.146.167-.401-.208-.219-.833-.401-5.417-1.678-7.334 2.625-.167.365-.334.329-.125-.037 0-.402.459-1.531.125-2.807-.375-1.46-1.666-1.787-1.75-.438-3.626.729-1.75 1.094-2.416 2.844-.084.256-.209.146-.125-.073-.166-.437-.709-3.939-4.126-3.866-4.125.073-4.458 3.683 0 .22-.125.146-.209-.219-.334-.328-2.083-2.151-3.25-2.844-1.208-.73-2.375-.438z"/><path id="ao" stroke="#373535" stroke-width=".05" stroke-linejoin="miter" stroke-linecap="butt" stroke-miterlimit="4" fill="none" d="M29.12 22.522q-.583.656-.541 2.188.042 1.458.542 2.406v-4.594z"/><path id="aq" stroke="#373535" stroke-width=".05" stroke-linejoin="miter" stroke-linecap="butt" stroke-miterlimit="4" fill="none" d="M29.454 27.554q.292.401.708.656v-6.527q-.5.328-.708.583v5.288z"/><path id="as" stroke="#373535" stroke-width=".05" stroke-linejoin="miter" stroke-linecap="butt" stroke-miterlimit="4" fill="none" d="M30.454 28.356q.458.11.833-.036v-7.148l-.833.329v6.855z"/><path id="au" stroke="#373535" stroke-width=".05" stroke-linejoin="miter" stroke-linecap="butt" stroke-miterlimit="4" fill="none" d="M31.58 28.21q.416-.218.707-.474l.042-.036v-6.783l-.75.146v7.147z"/><path id="aw" stroke="#373535" stroke-width=".05" stroke-linejoin="miter" stroke-linecap="butt" stroke-miterlimit="4" fill="none" d="M32.662 27.481l.667-.365v-6.345l-.667.073v6.637z"/><path id="ay" stroke="#373535" stroke-width=".05" stroke-linejoin="miter" stroke-linecap="butt" stroke-miterlimit="4" fill="none" d="M33.62 27.007l.626-.073v-6.163h-.625v6.236z"/><path id="aA" stroke="#373535" stroke-width=".05" stroke-linejoin="miter" stroke-linecap="butt" stroke-miterlimit="4" fill="none" d="M34.538 26.934l.625.073v-6.2l-.625-.036v6.163z"/><path id="aC" stroke="#373535" stroke-width=".05" stroke-linejoin="miter" stroke-linecap="butt" stroke-miterlimit="4" fill="none" d="M35.413 27.116q.375.073.833.329v-6.491l-.833-.11v6.272z"/><path id="aE" stroke="#373535" stroke-width=".05" stroke-linejoin="miter" stroke-linecap="butt" stroke-miterlimit="4" fill="none" d="M36.538 27.627l.666.51V21.21l-.666-.182v6.6z"/><path id="aG" stroke="#373535" stroke-width=".05" stroke-linejoin="miter" stroke-linecap="butt" stroke-miterlimit="4" fill="none" d="M37.538 28.356l.667.438V21.5l-.667-.22v7.075z"/><path id="aI" stroke="#373535" stroke-width=".05" stroke-linejoin="miter" stroke-linecap="butt" stroke-miterlimit="4" fill="none" d="M38.538 28.867q.333.11.708-.073v-6.856l-.708-.328v7.257z"/><path id="aK" stroke="#373535" stroke-width=".05" stroke-linejoin="miter" stroke-linecap="butt" stroke-miterlimit="4" fill="none" d="M39.538 28.575q.292-.146.792-.583v-5.397q-.292-.256-.792-.474v6.454z"/><path id="aM" stroke="#373535" stroke-width=".05" stroke-linejoin="miter" stroke-linecap="butt" stroke-miterlimit="4" fill="none" d="M40.621 27.7q.625-1.13.792-2.261.25-1.677-.792-2.662V27.7z"/><path id="aO" stroke="#373535" stroke-width=".05" stroke-linejoin="miter" stroke-linecap="butt" stroke-miterlimit="4" fill="none" d="M47.705 22.595v5.47q.334.474.834.692v-6.636q-.584.255-.834.474z"/><path id="aQ" stroke="#373535" stroke-width=".05" stroke-linejoin="miter" stroke-linecap="butt" stroke-miterlimit="4" fill="none" d="M53.956 27.19q.291 0 .666.109v-6.272h-.666v6.162z"/><path id="aS" stroke="#373535" stroke-width=".05" stroke-linejoin="miter" stroke-linecap="butt" stroke-miterlimit="4" fill="none" d="M54.956 27.408q.5.219.75.401v-6.746l-.75-.073v6.418z"/><path id="aU" stroke="#373535" stroke-width=".05" stroke-linejoin="miter" stroke-linecap="butt" stroke-miterlimit="4" fill="none" d="M56.706 21.245l-.709-.145v6.892l.709.62v-7.367z"/><path id="aW" stroke="#373535" stroke-width=".05" stroke-linejoin="miter" stroke-linecap="butt" stroke-miterlimit="4" fill="none" d="M57.04 28.794q.457.182.75.146v-7.293q-.376-.183-.75-.292v7.439z"/><path id="aY" stroke="#373535" stroke-width=".05" stroke-linejoin="miter" stroke-linecap="butt" stroke-miterlimit="4" fill="none" d="M48.83 28.903q.459.146.75.037v-7.184q-.5.11-.75.255v6.892z"/><path id="ba" stroke="#373535" stroke-width=".05" stroke-linejoin="miter" stroke-linecap="butt" stroke-miterlimit="4" fill="none" d="M50.58 21.537l-.708.146v7.11l.708-.437v-6.819z"/><path id="bc" stroke="#373535" stroke-width=".05" stroke-linejoin="miter" stroke-linecap="butt" stroke-miterlimit="4" fill="none" d="M50.872 28.21l.75-.4v-6.492l-.75.146v6.746z"/><path id="be" stroke="#373535" stroke-width=".05" stroke-linejoin="miter" stroke-linecap="butt" stroke-miterlimit="4" fill="none" d="M51.914 27.663q.208-.146.708-.291v-6.2q-.083 0-.708.11v6.381z"/><path id="bg" stroke="#373535" stroke-width=".05" stroke-linejoin="miter" stroke-linecap="butt" stroke-miterlimit="4" fill="none" d="M52.914 27.299q.375-.11.75-.11v-6.126l-.75.073v6.163z"/><path id="bi" stroke="#373535" stroke-width=".05" stroke-linejoin="miter" stroke-linecap="butt" stroke-miterlimit="4" fill="none" d="M47.413 22.85q-.5.547-.583 1.714-.042 1.969.583 3.1V22.85z"/><path id="bk" stroke="#373535" stroke-width=".05" stroke-linejoin="miter" stroke-linecap="butt" stroke-miterlimit="4" fill="none" d="M58.123 21.829v7.001q.333-.182.75-.693v-5.761l-.75-.547z"/><path id="bm" stroke="#373535" stroke-width=".05" stroke-linejoin="miter" stroke-linecap="butt" stroke-miterlimit="4" fill="none" d="M59.164 27.627q.709-1.13.75-2.443.084-1.459-.75-2.407v4.85z"/><path id="bo" stroke="#373535" stroke-width=".05" stroke-linejoin="miter" stroke-linecap="butt" stroke-miterlimit="4" fill="none" d="M46.455 20.771q6.584-1.24 9.376-1.13 2.958.11 4.542 1.823 1.416 1.532 1.291 3.793-.083 1.422-.916 3.683-1.25.218-1.792.474 1.458-2.918 1.458-4.486 0-1.677-1.583-3.136-1.542-1.385-5.167-1.276-3.209.073-7.084 1.203-.167-.656-.125-.948z"/><path id="bq" stroke="#373535" stroke-width=".05" stroke-linejoin="miter" stroke-linecap="butt" stroke-miterlimit="4" fill="none" d="M46.122 20.735q.083 4.923.75 6.71-.417-.256-1.125-.402-.625-5.761-.584-6.272l.959-.036z"/><path id="bs" stroke="#373535" stroke-width=".05" stroke-linejoin="miter" stroke-linecap="butt" stroke-miterlimit="4" fill="none" d="M42.455 20.808q-.292 4.777-1.167 6.637 1.333-.547 1.375-.547.25-.803.5-3.064.25-2.333.334-2.953-.5-.11-1.042-.073z"/><path id="bu" stroke="#373535" stroke-width=".05" stroke-linejoin="miter" stroke-linecap="butt" stroke-miterlimit="4" fill="none" d="M41.955 20.917q-5.542-1.495-9.042-1.385-3.126.072-4.334 1.312-1.292 1.313-1.584 2.772-.375 1.86.625 4.594 1.334.146 1.876.51-1.709-3.099-1.417-4.958.208-1.568 2-2.59 1.875-1.057 5.459-.692 2.333.218 6.25 1.203.167-.292.167-.766z"/><path id="bw" stroke="#373535" stroke-width=".05" stroke-linejoin="miter" stroke-linecap="butt" stroke-miterlimit="4" fill="none" d="M43.705 15.921q-.708.183-.875.766-.042.073.208.073h.584q.125 0 .125-.182l.041-.584q0-.109-.083-.073z"/><path id="by" stroke="#373535" stroke-width=".05" stroke-linejoin="miter" stroke-linecap="butt" stroke-miterlimit="4" fill="none" d="M44.122 15.885l-.084.985q0 .182-.25.182l-1.125.073q-.125 0-.125.146v.4q.042.11.375.074 1.375-.22 3 .036.25.037.25-.182l.042-.365q-.042-.146-.25-.146l-.917-.073q-.25 0-.25-.218l-.041-.766q0-.219-.125-.255h-.417q-.083 0-.083.109z"/><path id="bA" stroke="#373535" stroke-width=".05" stroke-linejoin="miter" stroke-linecap="butt" stroke-miterlimit="4" fill="none" d="M45.08 16.14v.438q0 .182.167.182l.625.037q.25 0 .125-.183-.25-.364-.667-.583-.25-.073-.25.11z"/><path id="bC" stroke="#373535" stroke-width=".05" stroke-linejoin="miter" stroke-linecap="butt" stroke-miterlimit="4" fill="none" d="M42.83 18.036q-.209.073-.084.256.5.984 1.5.984 1.209 0 1.709-1.02.083-.183-.375-.22-.417-.072-1.292-.109-.958 0-1.458.11z"/><path id="bE" stroke="#373535" stroke-width=".05" stroke-linejoin="miter" stroke-linecap="butt" stroke-miterlimit="4" fill="none" d="M45.205 15.083l-.375.474q-.292-.037-.792-.037-.125-.11-.333-.474-.042-.146.125-.437l.292-.547q.041-.146.166-.146l.25.036q.084-.036.25.146l.417.693q.125.146 0 .292z"/><path id="bG" stroke="#373535" stroke-width=".05" stroke-linejoin="miter" stroke-linecap="butt" stroke-miterlimit="4" fill="none" d="M42.705 12.457l.708.292q-.125.292-.041.51l-.917.329q-.167.036-.209.036-.083 0-.291-.11l-.625-.4q-.292-.11.041-.292l.709-.328q.333-.183.625-.037z"/><path id="bI" stroke="#373535" stroke-width=".05" stroke-linejoin="miter" stroke-linecap="butt" stroke-miterlimit="4" fill="none" d="M45.288 10.561q.167.328.042.51l-.667 1.131h-.166l-.667-1.24q-.083-.292.083-.474l.542-.766q.125-.146.167-.146.041-.036.166.11l.5.875z"/><path id="bK" stroke="#373535" stroke-width=".05" stroke-linejoin="miter" stroke-linecap="butt" stroke-miterlimit="4" fill="none" d="M45.497 12.895q.041.146-.042.401l.958.365q.334.145.584 0l.792-.474q.166-.037-.126-.256l-.666-.4q-.167-.147-.459-.037-.708.328-1.041.4z"/></defs><use xlink:href="#a" transform="matrix(.83345 0 0 .72937 -153.35 -232.7)"/><use xlink:href="#b" transform="matrix(.83345 0 0 .72937 -153.35 -232.7)"/><use xlink:href="#c" transform="matrix(.83342 0 0 .72934 -153.35 -232.7)"/><g transform="matrix(.83339 0 0 .7293 -153.35 -232.7)"><use xlink:href="#d"/><use xlink:href="#e" transform="matrix(1.1999 0 0 1.37115 184 319.05)"/></g><g transform="matrix(.83339 0 0 .7293 -153.35 -232.7)"><use xlink:href="#f"/><use xlink:href="#g" transform="matrix(1.1999 0 0 1.37115 184 319.05)"/></g><g transform="matrix(.83339 0 0 .7293 -153.35 -232.7)"><use xlink:href="#h"/><use xlink:href="#i" transform="matrix(1.1999 0 0 1.37115 184 319.05)"/></g><g transform="matrix(.83339 0 0 .7293 -153.35 -232.7)"><use xlink:href="#j"/><use xlink:href="#k" transform="matrix(1.1999 0 0 1.37115 184 319.05)"/></g><g transform="matrix(.83339 0 0 .7293 -153.35 -232.7)"><use xlink:href="#l"/><use xlink:href="#m" transform="matrix(1.1999 0 0 1.37115 184 319.05)"/></g><g transform="matrix(.83339 0 0 .7293 -153.35 -232.7)"><use xlink:href="#n"/><use xlink:href="#o" transform="matrix(1.1999 0 0 1.37115 184 319.05)"/></g><g transform="matrix(.83339 0 0 .7293 -153.35 -232.7)"><use xlink:href="#p"/><use xlink:href="#q" transform="matrix(1.1999 0 0 1.37115 184 319.05)"/></g><g transform="matrix(.83339 0 0 .7293 -153.35 -232.7)"><use xlink:href="#r"/><use xlink:href="#s" transform="matrix(1.1999 0 0 1.37115 184 319.05)"/></g><g transform="matrix(.83339 0 0 .7293 -153.35 -232.7)"><use xlink:href="#t"/><use xlink:href="#u" transform="matrix(1.1999 0 0 1.37115 184 319.05)"/></g><g transform="matrix(.83339 0 0 .7293 -153.35 -232.7)"><use xlink:href="#v"/><use xlink:href="#w" transform="matrix(1.1999 0 0 1.37115 184 319.05)"/></g><g transform="matrix(.83339 0 0 .7293 -153.35 -232.7)"><use xlink:href="#x"/><use xlink:href="#y" transform="matrix(1.1999 0 0 1.37115 184 319.05)"/></g><g transform="matrix(.83339 0 0 .7293 -153.35 -232.7)"><use xlink:href="#z"/><use xlink:href="#A" transform="matrix(1.1999 0 0 1.37115 184 319.05)"/></g><g transform="matrix(.83339 0 0 .7293 -153.35 -232.7)"><use xlink:href="#B"/><use xlink:href="#C" transform="matrix(1.1999 0 0 1.37115 184 319.05)"/></g><g transform="matrix(.83339 0 0 .7293 -153.35 -232.7)"><use xlink:href="#D"/><use xlink:href="#E" transform="matrix(1.1999 0 0 1.37115 184 319.05)"/></g><g transform="matrix(.83339 0 0 .7293 -153.35 -232.7)"><use xlink:href="#F"/><use xlink:href="#G" transform="matrix(1.1999 0 0 1.37115 184 319.05)"/></g><g transform="matrix(.83339 0 0 .7293 -153.35 -232.7)"><use xlink:href="#H"/><use xlink:href="#I" transform="matrix(1.1999 0 0 1.37115 184 319.05)"/></g><g transform="matrix(.83339 0 0 .7293 -153.35 -232.7)"><use xlink:href="#J"/><use xlink:href="#K" transform="matrix(1.1999 0 0 1.37115 184 319.05)"/></g><g transform="matrix(.83339 0 0 .7293 -153.35 -232.7)"><use xlink:href="#L"/><use xlink:href="#M" transform="matrix(1.1999 0 0 1.37115 184 319.05)"/></g><g transform="matrix(.83339 0 0 .7293 -153.35 -232.7)"><use xlink:href="#N"/><use xlink:href="#O" transform="matrix(1.1999 0 0 1.37115 184 319.05)"/></g><g transform="matrix(.83339 0 0 .7293 -153.35 -232.7)"><use xlink:href="#P"/><use xlink:href="#Q" transform="matrix(1.1999 0 0 1.37115 184 319.05)"/></g><g transform="matrix(.83339 0 0 .7293 -153.35 -232.7)"><use xlink:href="#R"/><use xlink:href="#S" transform="matrix(1.1999 0 0 1.37115 184 319.05)"/></g><g transform="matrix(.83339 0 0 .7293 -153.35 -232.7)"><use xlink:href="#T"/><use xlink:href="#U" transform="matrix(1.1999 0 0 1.37115 184 319.05)"/></g><g transform="matrix(.83339 0 0 .7293 -153.35 -232.7)"><use xlink:href="#V"/><use xlink:href="#W" transform="matrix(1.1999 0 0 1.37115 184 319.05)"/></g><g transform="matrix(.83339 0 0 .7293 -153.35 -232.7)"><use xlink:href="#X"/><use xlink:href="#Y" transform="matrix(1.1999 0 0 1.37115 184 319.05)"/></g><g transform="matrix(.83339 0 0 .7293 -153.35 -232.7)"><use xlink:href="#Z"/><use xlink:href="#aa" transform="matrix(1.1999 0 0 1.37115 184 319.05)"/></g><g transform="matrix(.83339 0 0 .7293 -153.35 -232.7)"><use xlink:href="#ab"/><use xlink:href="#ac" transform="matrix(1.1999 0 0 1.37115 184 319.05)"/></g><g transform="matrix(.83339 0 0 .7293 -153.35 -232.7)"><use xlink:href="#ad"/><use xlink:href="#ae" transform="matrix(1.1999 0 0 1.37115 184 319.05)"/></g><g transform="matrix(.83339 0 0 .7293 -153.35 -232.7)"><use xlink:href="#af"/><use xlink:href="#ag" transform="matrix(1.1999 0 0 1.37115 184 319.05)"/></g><g transform="matrix(.83339 0 0 .7293 -153.35 -232.7)"><use xlink:href="#ah"/><use xlink:href="#ai" transform="matrix(1.1999 0 0 1.37115 184 319.05)"/></g><g transform="matrix(.83339 0 0 .7293 -153.35 -232.7)"><use xlink:href="#aj"/><use xlink:href="#ak" transform="matrix(1.1999 0 0 1.37115 184 319.05)"/></g><g transform="matrix(.83339 0 0 .7293 -153.35 -232.7)"><use xlink:href="#al"/><use xlink:href="#am" transform="matrix(1.1999 0 0 1.37115 184 319.05)"/></g><g transform="matrix(.83339 0 0 .7293 -153.35 -232.7)"><use xlink:href="#an"/><use xlink:href="#ao" transform="matrix(1.1999 0 0 1.37115 184 319.05)"/></g><g transform="matrix(.83339 0 0 .7293 -153.35 -232.7)"><use xlink:href="#ap"/><use xlink:href="#aq" transform="matrix(1.1999 0 0 1.37115 184 319.05)"/></g><g transform="matrix(.83339 0 0 .7293 -153.35 -232.7)"><use xlink:href="#ar"/><use xlink:href="#as" transform="matrix(1.1999 0 0 1.37115 184 319.05)"/></g><g transform="matrix(.83339 0 0 .7293 -153.35 -232.7)"><use xlink:href="#at"/><use xlink:href="#au" transform="matrix(1.1999 0 0 1.37115 184 319.05)"/></g><g transform="matrix(.83339 0 0 .7293 -153.35 -232.7)"><use xlink:href="#av"/><use xlink:href="#aw" transform="matrix(1.1999 0 0 1.37115 184 319.05)"/></g><g transform="matrix(.83339 0 0 .7293 -153.35 -232.7)"><use xlink:href="#ax"/><use xlink:href="#ay" transform="matrix(1.1999 0 0 1.37115 184 319.05)"/></g><g transform="matrix(.83339 0 0 .7293 -153.35 -232.7)"><use xlink:href="#az"/><use xlink:href="#aA" transform="matrix(1.1999 0 0 1.37115 184 319.05)"/></g><g transform="matrix(.83339 0 0 .7293 -153.35 -232.7)"><use xlink:href="#aB"/><use xlink:href="#aC" transform="matrix(1.1999 0 0 1.37115 184 319.05)"/></g><g transform="matrix(.83339 0 0 .7293 -153.35 -232.7)"><use xlink:href="#aD"/><use xlink:href="#aE" transform="matrix(1.1999 0 0 1.37115 184 319.05)"/></g><g transform="matrix(.83339 0 0 .7293 -153.35 -232.7)"><use xlink:href="#aF"/><use xlink:href="#aG" transform="matrix(1.1999 0 0 1.37115 184 319.05)"/></g><g transform="matrix(.83339 0 0 .7293 -153.35 -232.7)"><use xlink:href="#aH"/><use xlink:href="#aI" transform="matrix(1.1999 0 0 1.37115 184 319.05)"/></g><g transform="matrix(.83339 0 0 .7293 -153.35 -232.7)"><use xlink:href="#aJ"/><use xlink:href="#aK" transform="matrix(1.1999 0 0 1.37115 184 319.05)"/></g><g transform="matrix(.83339 0 0 .7293 -153.35 -232.7)"><use xlink:href="#aL"/><use xlink:href="#aM" transform="matrix(1.1999 0 0 1.37115 184 319.05)"/></g><g transform="matrix(.83339 0 0 .7293 -153.35 -232.7)"><use xlink:href="#aN"/><use xlink:href="#aO" transform="matrix(1.1999 0 0 1.37115 184 319.05)"/></g><g transform="matrix(.83339 0 0 .7293 -153.35 -232.7)"><use xlink:href="#aP"/><use xlink:href="#aQ" transform="matrix(1.1999 0 0 1.37115 184 319.05)"/></g><g transform="matrix(.83339 0 0 .7293 -153.35 -232.7)"><use xlink:href="#aR"/><use xlink:href="#aS" transform="matrix(1.1999 0 0 1.37115 184 319.05)"/></g><g transform="matrix(.83339 0 0 .7293 -153.35 -232.7)"><use xlink:href="#aT"/><use xlink:href="#aU" transform="matrix(1.1999 0 0 1.37115 184 319.05)"/></g><g transform="matrix(.83339 0 0 .7293 -153.35 -232.7)"><use xlink:href="#aV"/><use xlink:href="#aW" transform="matrix(1.1999 0 0 1.37115 184 319.05)"/></g><g transform="matrix(.83339 0 0 .7293 -153.35 -232.7)"><use xlink:href="#aX"/><use xlink:href="#aY" transform="matrix(1.1999 0 0 1.37115 184 319.05)"/></g><g transform="matrix(.83339 0 0 .7293 -153.35 -232.7)"><use xlink:href="#aZ"/><use xlink:href="#ba" transform="matrix(1.1999 0 0 1.37115 184 319.05)"/></g><g transform="matrix(.83339 0 0 .7293 -153.35 -232.7)"><use xlink:href="#bb"/><use xlink:href="#bc" transform="matrix(1.1999 0 0 1.37115 184 319.05)"/></g><g transform="matrix(.83339 0 0 .7293 -153.35 -232.7)"><use xlink:href="#bd"/><use xlink:href="#be" transform="matrix(1.1999 0 0 1.37115 184 319.05)"/></g><g transform="matrix(.83339 0 0 .7293 -153.35 -232.7)"><use xlink:href="#bf"/><use xlink:href="#bg" transform="matrix(1.1999 0 0 1.37115 184 319.05)"/></g><g transform="matrix(.83339 0 0 .7293 -153.35 -232.7)"><use xlink:href="#bh"/><use xlink:href="#bi" transform="matrix(1.1999 0 0 1.37115 184 319.05)"/></g><g transform="matrix(.83339 0 0 .7293 -153.35 -232.7)"><use xlink:href="#bj"/><use xlink:href="#bk" transform="matrix(1.1999 0 0 1.37115 184 319.05)"/></g><g transform="matrix(.83339 0 0 .7293 -153.35 -232.7)"><use xlink:href="#bl"/><use xlink:href="#bm" transform="matrix(1.1999 0 0 1.37115 184 319.05)"/></g><g transform="matrix(.83339 0 0 .7293 -153.35 -232.7)"><use xlink:href="#bn"/><use xlink:href="#bo" transform="matrix(1.1999 0 0 1.37115 184 319.05)"/></g><g transform="matrix(.83339 0 0 .7293 -153.35 -232.7)"><use xlink:href="#bp"/><use xlink:href="#bq" transform="matrix(1.1999 0 0 1.37115 184 319.05)"/></g><g transform="matrix(.83339 0 0 .7293 -153.35 -232.7)"><use xlink:href="#br"/><use xlink:href="#bs" transform="matrix(1.1999 0 0 1.37115 184 319.05)"/></g><g transform="matrix(.83339 0 0 .7293 -153.35 -232.7)"><use xlink:href="#bt"/><use xlink:href="#bu" transform="matrix(1.1999 0 0 1.37115 184 319.05)"/></g><g transform="matrix(.83339 0 0 .7293 -153.35 -232.7)"><use xlink:href="#bv"/><use xlink:href="#bw" transform="matrix(1.1999 0 0 1.37115 184 319.05)"/></g><g transform="matrix(.83339 0 0 .7293 -153.35 -232.7)"><use xlink:href="#bx"/><use xlink:href="#by" transform="matrix(1.1999 0 0 1.37115 184 319.05)"/></g><g transform="matrix(.83339 0 0 .7293 -153.35 -232.7)"><use xlink:href="#bz"/><use xlink:href="#bA" transform="matrix(1.1999 0 0 1.37115 184 319.05)"/></g><g transform="matrix(.83339 0 0 .7293 -153.35 -232.7)"><use xlink:href="#bB"/><use xlink:href="#bC" transform="matrix(1.1999 0 0 1.37115 184 319.05)"/></g><g transform="matrix(.83339 0 0 .7293 -153.35 -232.7)"><use xlink:href="#bD"/><use xlink:href="#bE" transform="matrix(1.1999 0 0 1.37115 184 319.05)"/></g><g transform="matrix(.83339 0 0 .7293 -153.35 -232.7)"><use xlink:href="#bF"/><use xlink:href="#bG" transform="matrix(1.1999 0 0 1.37115 184 319.05)"/></g><g transform="matrix(.83339 0 0 .7293 -153.35 -232.7)"><use xlink:href="#bH"/><use xlink:href="#bI" transform="matrix(1.1999 0 0 1.37115 184 319.05)"/></g><g transform="matrix(.83339 0 0 .7293 -153.35 -232.7)"><use xlink:href="#bJ"/><use xlink:href="#bK" transform="matrix(1.1999 0 0 1.37115 184 319.05)"/></g><use xlink:href="#bL" transform="matrix(.83339 0 0 .7293 -153.35 -232.7)"/><use xlink:href="#bM" transform="matrix(.83339 0 0 .7293 -153.35 -232.7)"/><use xlink:href="#bN" transform="matrix(.83339 0 0 .7293 -153.35 -232.7)"/><use xlink:href="#bO" transform="matrix(.83339 0 0 .7293 -153.35 -232.7)"/><use xlink:href="#bP" transform="matrix(.83339 0 0 .7293 -153.35 -232.7)"/><use xlink:href="#bQ" transform="matrix(.83339 0 0 .7293 -153.35 -232.7)"/><use xlink:href="#bR" transform="matrix(.83339 0 0 .7293 -153.35 -232.7)"/><use xlink:href="#bS" transform="matrix(.83339 0 0 .7293 -153.35 -232.7)"/><use xlink:href="#bT" transform="matrix(.83339 0 0 .7293 -153.35 -232.7)"/><use xlink:href="#bU" transform="matrix(.83339 0 0 .7293 -153.35 -232.7)"/><use xlink:href="#bV" transform="matrix(.83339 0 0 .7293 -153.35 -232.7)"/><use xlink:href="#bW" transform="matrix(.83339 0 0 .7293 -153.35 -232.7)"/><use xlink:href="#bX" transform="matrix(.83339 0 0 .7293 -153.35 -232.7)"/><use xlink:href="#bY" transform="matrix(.83339 0 0 .7293 -153.35 -232.7)"/><use xlink:href="#bZ" transform="matrix(.83339 0 0 .7293 -153.35 -232.7)"/><use xlink:href="#ca" transform="matrix(.83339 0 0 .7293 -153.35 -232.7)"/><use xlink:href="#cb" transform="matrix(.83339 0 0 .7293 -153.35 -232.7)"/><use xlink:href="#cc" transform="matrix(.83339 0 0 .7293 -153.35 -232.7)"/><use xlink:href="#cd" transform="matrix(.83339 0 0 .7293 -153.35 -232.7)"/><use xlink:href="#ce" transform="matrix(.83339 0 0 .7293 -153.35 -232.7)"/><use xlink:href="#cf" transform="matrix(.83339 0 0 .7293 -153.35 -232.7)"/><use xlink:href="#cg" transform="matrix(.83339 0 0 .7293 -153.35 -232.7)"/><use xlink:href="#ch" transform="matrix(.83339 0 0 .7293 -153.35 -232.7)"/><use xlink:href="#ci" transform="matrix(.83339 0 0 .7293 -153.35 -232.7)"/><use xlink:href="#cj" transform="matrix(.83339 0 0 .7293 -153.35 -232.7)"/><use xlink:href="#ck" transform="matrix(.83339 0 0 .7293 -153.35 -232.7)"/><use xlink:href="#cl" transform="matrix(.83339 0 0 .7293 -153.35 -232.7)"/><use xlink:href="#cm" transform="matrix(.83339 0 0 .7293 -153.35 -232.7)"/><use xlink:href="#cn" transform="matrix(.83339 0 0 .7293 -153.35 -232.7)"/><use xlink:href="#co" transform="matrix(.83339 0 0 .7293 -153.35 -232.7)"/><use xlink:href="#cp" transform="matrix(.83339 0 0 .7293 -153.35 -232.7)"/><use xlink:href="#cq" transform="matrix(.83339 0 0 .7293 -153.35 -232.7)"/><use xlink:href="#cr" transform="matrix(.83339 0 0 .7293 -153.35 -232.7)"/><use xlink:href="#cs" transform="matrix(.83339 0 0 .7293 -153.35 -232.7)"/><use xlink:href="#ct" transform="matrix(.83339 0 0 .7293 -153.35 -232.7)"/><use xlink:href="#cu" transform="matrix(.83339 0 0 .7293 -153.35 -232.7)"/><use xlink:href="#cv" transform="matrix(.83339 0 0 .7293 -153.35 -232.7)"/><use xlink:href="#cw" transform="matrix(.83339 0 0 .7293 -153.35 -232.7)"/><use xlink:href="#cx" transform="matrix(.83339 0 0 .7293 -153.35 -232.7)"/><use xlink:href="#cy" transform="matrix(.83339 0 0 .7293 -153.35 -232.7)"/></svg>