<svg xmlns="http://www.w3.org/2000/svg" xmlns:xlink="http://www.w3.org/1999/xlink" preserveAspectRatio="none" width="200" height="105"><defs><path fill="#FFE132" d="M146.45 465.55H434.5V321.5H146.45v144.05z" id="a"/><path fill="#00705C" d="M196.95 332.95H158V454h38.95V332.95z" id="b"/><path fill="#F5873C" d="M235.9 332.95h-38.95V454h38.95V332.95z" id="c"/><path fill="#AC394A" d="M247.45 454H422.9V332.95H247.45V454z" id="d"/><g id="e"><path fill="#373535" d="M354.85 355.1q.778-.027 1.75.45 2.837 1.425 3.4 3.85.65 2.774-2 5.55l-.2.2h.3q3.868.026 5.75-2.95 1.86-2.951-.35-6.15 2.996 1.032 3.8 3.25.944 2.591-1.7 5.7l-.15.2h.2q2.184.384 3.65-.75 1.455-1.1 1.9-3.2.77 1.935 2.75 3.25 2.274 1.429 4.6 1.1l.5-.05-.45-.2q-2.028-.697-2.35-2.5-.2-1.383-.45-2.05 2.208 1.549 5.35 4.7v-.05q2.231 2.31 5.4 2.9 2.74.542 4.35-1.05h.05q1.65-1.65.9-4.1-.446-1.538-1.35-2.1-.858-.573-2.15-.15-1.314.472-1.65 1.4-.335.88.2 2.2-.917.308-3.65-1.95-3.278-3.003-4.4-3.8-6.44-4.766-9.7-6.3-4.871-2.18-11.3-2.2-8.165.028-12.65 5.35-4.952 5.963 1.3 12.95-3.542 4.202 1.4 8.15l.35.25-.15-.4q-.562-1.733.35-3.2.595-.817 1.6-.85 1.023.007 2.45.85 3.405 2.02 8.95 2.2 5.111.177 11.35-1.2 5.676-1.21 8.75.2 2.771 1.336 2.6 4.3-.117 3.18-2.85 4.6v-.05q-3.3 1.125-4.45 1.5-2.435.919-7.8.55-5.77-.38-8.45.35-3.319.921-9.8.55-6.722-.32-8.75 0l-.5-.9 1.15-.25v-.05l-.5-.1q-.863-.13-1.6-1.7-.72-1.617-.5-3.25 1.887 1.317 1.75 2v.05l-.05.5.15.05.15-.45q.497-1.24-.35-3.25-.754-1.956-.65-3.5.621.59.7.95l.15.5.2-.05-.1-.5q-.114-.609.15-3.15.277-2.593 0-3.6v-.05q1.151-5.723-1.75-8.55 1.933-2.02 2.6-3.65.886-1.935.5-4.15l-.05-.45-.2.45q-.853 2.238-2.7 2.8-1.732.541-2.5-.75-1.112-1.81-5.4-3.05l-.25-.05.1.25q.504.991-.15 2.1v.05q-.563 1.013-.75 1.5-1.444-2.448-3.65-3.2h-.05q-2.66-.812-2.8-.95l-.45-.3-.05.05.3.4v.05q1.094 1.545.4 3.25-.276.807-.7.8-.468-.01-1.1-.9-1.172-1.58-4.3-1.4-1.366.155-2.1.1-.568-.01-.65-.15l-.15-.2-.05.2q-.25.376.2 1.5.445.926-.05 1.55-1.557 2.07-3.45 2.1-2.74.132-3.45.5-.836.433-2.8.55-1.247.091-1.95.35.65-1.05-.1-2.55-1.042-1.887-3.05-1.55-2.26.392-2.8 2.4-.436 1.681.4 2.95.38.685.4 2.05.38 1.512 2.45 3.25.964.745 2.45 2.85 1.014 1.407 3.1 2.15l.3.1-.15-.25q-.232-.435-.3-1.3.027-.384 0-.7.616.883 1.6 1.45 1.131.609 1.45 1 .008.057 0 .1h.05l.25.4.1-.05-.15-.45q-.529-1.41 0-2.85.356 1.364 1.55 2.75 1.807 2.128 2.3 2.8-6.513-.23-12.1-3.5-2.123-1.303-2.95-.8h.05q-.766.378-.25 1.75.367.931 1.6 1.8-1.04 1.014-1.6 3.45-.46 2.46-1.25 3.05l-.35.3.05.15.45-.25q.46-.28 2.45-.4 1.796-.067 2.95-.65-.072.313-.2.75-.212.91-1.2 1.3l-.4.2.4.05q2.484.369 4.45-1.1.347 1.322 1.15 1.95 1.022.72 1.1 1l.25.45.15-.05-.15-.5q-.108-.44.15-1.55.189-.728.2-1.2.268.488.6 1.6.546 1.486 2.15 2.3l.25.15-.1-.3q-.286-.84.65-1.85.907-.931 1.55-.5.991.645.55 1.75-.46 1.17-2.45 2.25-6.247 3.416-9.3 9.8h.05q-3.06 6.29-1.45 12.45-2.035-2.123-10.4-10.5-.87-.887-3.9-.65-3.435.335-3.35 3.1.224 4.42.65 6 .899 3.018 3.25 3.3 2.833.37 3.75 1.1 1.164.865.85 3-.333 2.37.05 3.65.329.96 1.45 2.2l.3.4.05-.05-.15-.45q-.31-1.095.35-1.75h.05q.781-.753 2.2.55.152.14 1.85 2.05 1.376 1.595 2.5 2.2 3.546 1.908 7.7-3.8 2.79 2.182 6.8 3.95.746 2.454 2.05 6.65.864 3.331-.1 5.2-1.175 2.188-3.2 2.6-.673.172-3.5-.05-4.506-.249-5.6 5.95v.15h.15q1.435.02 2.15-.35.422-.224.95-.9.384.768.65.95.496.323 1.7.3 1.152.024 1.65-.35.17-.094.9-.95.651.865.95 1h-.05q.546.321 2.1.3 1.097.025 1.75-.5l.05-.05q.49-.505.75-.75.456.67.85.85.912.47 3.4.45h.05l.05-.05q1.422-2.006 1.65-3.1.29-1.06-.3-2.3-.61-1.19-.4-1.9.315-.74 1.75-1.05 1.853-.329 3.3-1.65 1.66-1.481 2.15-3.7l.05-.2-.2.05q-2.183.57-3.95-.35-1.018-.573-1.2-1.45-.173-.893.5-2.1 1.773-2.992 2.95-5.2 1.729-.367 10.35-4.5 7.222-3.468 13-3.55-.867 3.925 3.2 9.35 4.157 5.663 3.75 8.35-.177 1.547.05 3.6.266 1.776-.05 2.55-.704 2.564-4.45 2.05-2.183-.233-3.8 1.1-1.621 1.436-1.65 3.95v.1h.15q2.22.123 3.6-1.6.518 1.004.7 1.2.494.428 1.6.4 1.206.029 1.7-.45l.05-.05.6-1.05q.407.96.55 1.1v-.05q.53.724 1.65.7 1.306.026 1.8-.4l-.05-.1.1.1q.184-.19.75-1.2.797.933 1.6 1.15.766.278 2.7.25h.05l.05-.05q.107-.187.15-.35.024.166 0 .35v.1h.15q2.09.026 3.3-1.55.34.826.65 1.1.482.48 1.5.45.944.02 1.55-.35.575-.36 1.05-1.2.847 1.572 2.8 1.55 1.069.03 1.55-.45h-.05q.219-.135.8-1.15.72.985 1.3 1.2.862.43 3.1.4h.1q1.033-1.013-.5-3.15-1.817-2.483-1.75-4.3.128-1.992 2.1-3.45 2.37-1.726 2.8-3.1v-.05q.323-.977-.15-1.5-.4-.478-1.55-.5-1.76.004-2.8-3.75-1.212-4.542.8-10.35 3.18-8.98 3.4-13.45.476-7.424-4.35-13.15 5.136-2.993 4.8-8.35-.285-5.171-4.6-7.3-3.319-1.672-8.1-1.3h-.05q-5.274.875-7.65 1.1-4.694.521-7.2-.05-3.445-.696-2.95-3.65v-.1h-.05q-.955-.499-2.25.45-1.102.896-1.3 2.1-1.459-1.441-1.3-3.2.28-2.09 3.25-2.65h.1v-.1q.057-.944-.75-1.4-.726-.447-2.25-.45-3.013.125-4.35 2.85-1.647-1.024-2.1-2.4-.309-1.094.25-2.65.743-1.83 3.05-2.05 1.139-.067 1.7.4.546.52.5 1.6v.15l.2-.05q1.254-.386 1.8-2 .554-1.637-.15-2.4-.21-.201-.2-.3.071-.078.4-.1m-.4.55q.596.687.1 2.15-.463 1.37-1.5 1.8.003-1.065-.6-1.6-.589-.534-1.85-.45-2.493.23-3.3 2.2-.591 1.644-.25 2.8.48 1.519 2.35 2.65l.15.05.05-.1q1.235-2.728 4.15-2.85 1.426-.003 2.1.4.648.367.65 1.1-3.084.575-3.35 2.8-.181 1.994 1.55 3.6l.2.15v-.25q.123-1.243 1.25-2.15 1.096-.806 1.9-.5-.504 3.106 3.15 3.85 2.544.579 7.3.05 2.368-.224 7.65-1.1 4.728-.373 8 1.25 4.184 2.071 4.45 7.1.323 5.283-4.8 8.25l-.15.05.1.1q4.87 5.693 4.4 13.1-.23 4.43-3.4 13.35-2.038 5.892-.8 10.5 1.109 3.996 3.05 3.95 1 .028 1.35.45.376.427.1 1.25-.42 1.325-2.7 3-2.078 1.541-2.2 3.65-.083 1.883 1.8 4.45 1.348 1.887.5 2.75-2.078.012-2.9-.4-.576-.217-1.3-1.25l-.1-.15-.1.15q-.633 1.096-.85 1.25-.419.42-1.35.4-1.912.028-2.65-1.6l-.1-.25-.1.2q-.54.953-1.15 1.35-.544.329-1.4.3-.883.02-1.3-.4h-.05q-.297-.29-.65-1.2l-.1-.2-.1.15q-1.129 1.624-3.15 1.65.042-.527.15-1v-.05q.126-.462.3-.9.651-1.418 2.35-2.35 1.443-.736 4.2-1.3 2.38-.395 2.35-2.65.025-1.999-.25-5.75-.122-2.154-2.7-4.2-.47-.397-5.3-3.5l-.1-.1-.05.15q-.503.89-1.7 2.3v.05q-.791 1.41.2 2.9.886 1.279 2.4 1.2 1.139-.019 1.5-.6.337 1.782-2.1 4.55-2.759 3.188-1.5 6.25.656 1.403.55 2.4-.023.265-.1.55-.177.462-.3.95v.05q-.22.465-.5 1-1.784.016-2.5-.25h-.05q-.785-.215-1.55-1.2l-.15-.15-.05.15q-.646 1.103-.85 1.3-.473.374-1.65.35-.98.026-1.45-.6-.14-.143-.6-1.2l-.1-.25-.1.2q-.606 1.032-.75 1.25-.456.421-1.55.4-.994.022-1.45-.35h.05q-.203-.188-.75-1.25l-.1-.2-.1.15q-1.323 1.722-3.45 1.65.06-2.271 1.55-3.6 1.533-1.267 3.6-1.05 4.004.536 4.75-2.25v.05q.334-.826.05-2.7-.223-1.997-.05-3.5.443-2.763-3.8-8.55-4.055-5.419-3.15-9.3l.05-.15h-.15q-5.872.03-13.25 3.6v-.05q-8.679 4.169-10.35 4.5l-.05.05v.05q-1.2 2.188-3 5.2v.05q-.727 1.293-.55 2.25.218.973 1.35 1.6 1.753.938 3.9.45-.483 1.997-2 3.35-1.404 1.279-3.2 1.6-1.615.34-1.95 1.2-.24.79.45 2.1h-.05q.56 1.16.3 2.15-.219 1.042-1.6 2.95-2.324.025-3.2-.4-.374-.205-.8-.95l-.1-.1-.1.1q-.28.255-.9.9-.62.474-1.6.45-1.446.029-1.95-.25-.28-.156-.95-1.1l-.1-.1-.1.1q-.78.95-.95 1.05-.452.326-1.5.3-1.096.027-1.55-.25-.249-.196-.65-1.05l-.1-.2-.1.15q-.574.802-1 1.05-.646.312-1.9.3 1.06-5.798 5.3-5.6 2.873.228 3.55.05 2.125-.438 3.35-2.75 1.032-1.925.15-5.4-1.325-4.237-2.1-6.7v-.05l-.05-.05q-4.085-1.764-6.9-3.95l-.1-.1-.05.1q-4.078 5.625-7.5 3.85-1.076-.595-2.4-2.15-1.702-1.94-1.85-2.1h-.05q-1.632-1.497-2.55-.55-.63.597-.55 1.55-.776-1.01-1.05-1.8-.367-1.22-.05-3.5.336-2.316-.95-3.25-.933-.77-3.85-1.15-2.199-.269-3.05-3.1-.424-1.57-.65-5.95-.065-2.535 3.1-2.85 2.87-.213 3.7.6 9.248 9.236 10.75 10.85l.3.4.05-.05-.15-.45q-1.807-6.338 1.3-12.8 2.997-6.316 9.15-9.7 2.11-1.12 2.6-2.35.509-1.295-.65-2.05-.806-.569-1.9.55-.902.97-.75 1.8-1.289-.762-1.75-2.05-.547-1.754-.95-2l-.25-.2.05.3q.117.461-.15 1.55-.164.747-.2 1.2-.282-.28-.9-.7-.788-.627-1.1-2l-.05-.2-.15.15q-1.76 1.386-3.95 1.2.762-.454.95-1.3.208-.806.35-.95l.35-.35-.05-.1-.4.25h-.05q.002.016-.05.05-1.19.634-3.15.7-1.371.093-2.05.25.582-.816.95-2.8.559-2.47 1.6-3.4l.15-.15-.15-.05q-1.234-.878-1.6-1.8-.434-1.128.1-1.45.723-.397 2.65.8 5.76 3.37 12.5 3.55h.2l-.1-.2q-.295-.47-2.45-3-1.326-1.55-1.6-3.1l-.05-.4-.2.4q-.666 1.472-.3 2.9-.409-.324-1.2-.75-1.174-.686-1.85-1.85.007-.078-.05-.15l-.25-.45-.15.1.15.45q.22.434.2 1.35.067.686.2 1.1-1.783-.7-2.7-1.95-1.514-2.145-2.5-2.9-1.98-1.662-2.35-3.1-.034-1.391-.45-2.1v-.05q-.764-1.181-.35-2.75.51-1.842 2.6-2.2 1.841-.313 2.8 1.4.853 1.706-.3 2.75l-.35.35.1.15.4-.3q.608-.476 2.4-.6 2.035-.133 2.9-.6.69-.332 3.35-.45 2.006-.02 3.65-2.2.604-.726.1-1.8-.305-.758-.3-1.15.23.127.7.15.716.045 2.1-.1 2.972-.17 4.1 1.3.718 1.022 1.25 1 .626.056 1-.95.664-1.655-.2-3.15.705.267 2.5.8 2.245.749 3.7 3.3l.05.05.2.4v-.5q-.013-.306.75-1.7.663-1.1.3-2.1 3.945 1.163 5 2.85.831 1.458 2.75.85h.05q1.763-.529 2.65-2.5.22 1.843-.55 3.5-.67 1.639-2.6 3.65l-.1.1.1.1q2.916 2.76 1.75 8.45v.05q.27 1.017 0 3.55-.181 1.805-.2 2.65-.228-.305-.7-.7l-.15-.15-.05.2q-.185 1.709.65 3.9.608 1.416.5 2.4-.404-.691-1.95-1.7l-.15-.15-.05.2q-.287 1.813.5 3.6.636 1.341 1.35 1.7l-.55.15.75 1.25v.05h.1q1.97-.323 8.8 0 6.519.378 9.85-.55 2.67-.72 8.4-.35 5.435.381 7.9-.55 1.15-.375 4.45-1.5 2.867-1.48 3-4.8.179-3.136-2.75-4.55-3.126-1.44-8.9-.2-6.21 1.373-11.3 1.2-5.455-.17-8.8-2.15-1.523-.894-2.65-.9-1.095.03-1.75.95-.879 1.41-.5 3.05-4.343-3.704-.95-7.65l.05-.05-.05-.1q-6.222-6.844-1.4-12.7 4.415-5.228 12.45-5.25 6.371.03 11.2 2.2 3.24 1.516 9.65 6.25 1.127.803 4.4 3.8 3.07 2.52 4.05 1.9l.1-.05-.05-.1q-.551-1.266-.25-2.1.314-.822 1.5-1.25 1.158-.377 1.95.1.796.538 1.2 1.95.7 2.3-.85 3.85-1.54 1.508-4.15 1-3.081-.56-5.25-2.8-3.514-3.504-5.9-5l-.4-.3-.1.15.35.35q.388.299.7 2.4.291 1.715 2 2.5-1.974.112-3.9-1.1-2.136-1.432-2.85-3.6l-.15-.45-.1.45q-.316 2.373-1.85 3.55-1.31 1.01-3.2.75 2.58-3.16 1.6-5.8-.898-2.454-4.35-3.55l-.35-.1.25.3q2.399 3.247.55 6.2-1.746 2.762-5.25 2.85 2.526-2.775 1.85-5.55-.587-2.525-3.55-4-1.028-.523-1.85-.5-.523.028-.6.25-.142.199.2.55m20.3 69.8q2.472 1.954 2.6 4 .275 3.749.25 5.75.02 2.045-2.15 2.4-2.793.586-4.25 1.35-1.395.75-2.15 1.8.093-1.017-.55-2.4-1.191-2.938 1.45-6 2.814-3.197 2.05-5.15l-.1-.4-.15.4q-.167.78-1.4.8-1.386.071-2.2-1.1-.909-1.36-.2-2.65 1.125-1.345 1.6-2.25 4.726 3.052 5.2 3.45z"/><path fill="#FFE132" d="M354.55 357.8q.496-1.463-.1-2.15-.342-.351-.2-.55.077-.222.6-.25.822-.023 1.85.5 2.963 1.475 3.55 4 .676 2.775-1.85 5.55 3.504-.088 5.25-2.85 1.849-2.953-.55-6.2l-.25-.3.35.1q3.452 1.096 4.35 3.55.98 2.64-1.6 5.8 1.89.26 3.2-.75 1.534-1.177 1.85-3.55l.1-.45.15.45q.714 2.168 2.85 3.6 1.926 1.212 3.9 1.1-1.709-.785-2-2.5-.312-2.101-.7-2.4l-.35-.35.1-.15.4.3q2.386 1.496 5.9 5 2.169 2.24 5.25 2.8 2.61.508 4.15-1 1.55-1.55.85-3.85-.404-1.412-1.2-1.95-.792-.477-1.95-.1-1.186.428-1.5 1.25-.301.834.25 2.1l.05.1-.1.05q-.98.62-4.05-1.9-3.273-2.997-4.4-3.8-6.41-4.734-9.65-6.25-4.829-2.17-11.2-2.2-8.035.022-12.45 5.25-4.822 5.856 1.4 12.7l.05.1-.05.05q-3.393 3.946.95 7.65-.379-1.64.5-3.05.655-.92 1.75-.95 1.127.006 2.65.9 3.345 1.98 8.8 2.15 5.09.173 11.3-1.2 5.774-1.24 8.9.2 2.929 1.414 2.75 4.55-.133 3.32-3 4.8-3.3 1.125-4.45 1.5-2.465.931-7.9.55-5.73-.37-8.4.35-3.331.928-9.85.55-6.83-.323-8.8 0h-.1v-.05l-.75-1.25.55-.15q-.714-.359-1.35-1.7-.787-1.788-.5-3.6l.05-.2.15.15q1.546 1.009 1.95 1.7.108-.984-.5-2.4-.835-2.191-.65-3.9l.05-.2.15.15q.472.395.7.7.019-.845.2-2.65.27-2.533 0-3.55v-.05q1.166-5.69-1.75-8.45l-.1-.1.1-.1q1.93-2.011 2.6-3.65.77-1.657.55-3.5-.887 1.971-2.65 2.5h-.05q-1.919.608-2.75-.85-1.055-1.687-5-2.85.363 1-.3 2.1-.763 1.394-.75 1.7v.5l-.2-.4-.05-.05q-1.455-2.551-3.7-3.3-1.795-.533-2.5-.8.864 1.495.2 3.15-.374 1.006-1 .95-.532.022-1.25-1-1.128-1.47-4.1-1.3-1.384.145-2.1.1-.47-.023-.7-.15-.005.392.3 1.15.504 1.074-.1 1.8-1.644 2.18-3.65 2.2-2.66.118-3.35.45-.865.467-2.9.6-1.792.124-2.4.6l-.4.3-.1-.15.35-.35q1.153-1.044.3-2.75-.959-1.713-2.8-1.4-2.09.358-2.6 2.2-.414 1.569.35 2.75v.05q.416.709.45 2.1.37 1.438 2.35 3.1.986.755 2.5 2.9.917 1.25 2.7 1.95-.133-.414-.2-1.1.02-.916-.2-1.35l-.15-.45.15-.1.25.45q.057.072.05.15.676 1.164 1.85 1.85.791.426 1.2.75-.366-1.428.3-2.9l.2-.4.05.4q.274 1.55 1.6 3.1 2.155 2.53 2.45 3l.1.2h-.2q-6.74-.18-12.5-3.55-1.927-1.197-2.65-.8-.534.322-.1 1.45.366.922 1.6 1.8l.15.05-.15.15q-1.041.93-1.6 3.4-.368 1.984-.95 2.8.679-.157 2.05-.25 1.96-.066 3.15-.7.052-.034.05-.05h.05l.4-.25.05.1-.35.35q-.142.144-.35.95-.188.846-.95 1.3 2.19.186 3.95-1.2l.15-.15.05.2q.312 1.373 1.1 2 .618.42.9.7.036-.453.2-1.2.267-1.089.15-1.55l-.05-.3.25.2q.403.246.95 2 .461 1.288 1.75 2.05-.152-.83.75-1.8 1.094-1.119 1.9-.55 1.159.755.65 2.05-.49 1.23-2.6 2.35-6.153 3.384-9.15 9.7-3.107 6.462-1.3 12.8l.15.45-.05.05-.3-.4q-1.502-1.614-10.75-10.85-.83-.813-3.7-.6-3.165.315-3.1 2.85.226 4.38.65 5.95.851 2.831 3.05 3.1 2.917.38 3.85 1.15 1.286.934.95 3.25-.317 2.28.05 3.5.274.79 1.05 1.8-.08-.953.55-1.55.918-.947 2.55.55h.05q.148.16 1.85 2.1 1.324 1.555 2.4 2.15 3.422 1.775 7.5-3.85l.05-.1.1.1q2.815 2.186 6.9 3.95l.05.05v.05q.775 2.463 2.1 6.7.882 3.475-.15 5.4-1.225 2.312-3.35 2.75-.677.178-3.55-.05-4.24-.198-5.3 5.6 1.254.012 1.9-.3.426-.248 1-1.05l.1-.15.1.2q.401.854.65 1.05.454.277 1.55.25 1.048.026 1.5-.3.17-.1.95-1.05l.1-.1.1.1q.67.944.95 1.1.504.279 1.95.25.98.024 1.6-.45.62-.645.9-.9l.1-.1.1.1q.426.745.8.95.876.425 3.2.4 1.381-1.908 1.6-2.95.26-.99-.3-2.15h.05q-.69-1.31-.45-2.1.335-.86 1.95-1.2 1.796-.321 3.2-1.6 1.517-1.353 2-3.35-2.147.488-3.9-.45-1.132-.627-1.35-1.6-.177-.957.55-2.25v-.05q1.8-3.012 3-5.2v-.05l.05-.05q1.671-.331 10.35-4.5v.05q7.378-3.57 13.25-3.6h.15l-.05.15q-.905 3.881 3.15 9.3 4.243 5.787 3.8 8.55-.173 1.503.05 3.5.284 1.874-.05 2.7v-.05q-.746 2.786-4.75 2.25-2.067-.217-3.6 1.05-1.49 1.329-1.55 3.6 2.127.072 3.45-1.65l.1-.15.1.2q.547 1.062.75 1.25h-.05q.456.372 1.45.35 1.094.021 1.55-.4.144-.218.75-1.25l.1-.2.1.25q.46 1.057.6 1.2.47.626 1.45.6 1.177.024 1.65-.35.204-.197.85-1.3l.05-.15.15.15q.765.985 1.55 1.2h.05q.716.266 2.5.25.28-.535.5-1v-.05q.123-.488.3-.95.077-.285.1-.55.106-.997-.55-2.4-1.259-3.063 1.5-6.25 2.438-2.768 2.1-4.55-.361.581-1.5.6-1.514.079-2.4-1.2-.991-1.49-.2-2.9v-.05q1.197-1.41 1.7-2.3l.05-.15.1.1q4.83 3.103 5.3 3.5 2.578 2.046 2.7 4.2.275 3.751.25 5.75.03 2.255-2.35 2.65-2.757.564-4.2 1.3-1.699.932-2.35 2.35-.174.438-.3.9v.05q-.108.473-.15 1 2.021-.026 3.15-1.65l.1-.15.1.2q.353.91.65 1.2h.05q.417.42 1.3.4.856.029 1.4-.3.61-.397 1.15-1.35l.1-.2.1.25q.738 1.628 2.65 1.6.931.02 1.35-.4.217-.154.85-1.25l.1-.15.1.15q.724 1.033 1.3 1.25.822.412 2.9.4.848-.863-.5-2.75-1.883-2.567-1.8-4.45.122-2.109 2.2-3.65 2.28-1.675 2.7-3 .276-.823-.1-1.25-.35-.422-1.35-.45-1.941.046-3.05-3.95-1.238-4.608.8-10.5 3.17-8.92 3.4-13.35.47-7.407-4.4-13.1l-.1-.1.15-.05q5.123-2.967 4.8-8.25-.266-5.029-4.45-7.1-3.272-1.623-8-1.25-5.282.876-7.65 1.1-4.756.529-7.3-.05-3.654-.744-3.15-3.85-.804-.306-1.9.5-1.127.907-1.25 2.15v.25l-.2-.15q-1.731-1.606-1.55-3.6.266-2.225 3.35-2.8-.002-.733-.65-1.1-.674-.403-2.1-.4-2.915.122-4.15 2.85l-.05.1-.15-.05q-1.87-1.131-2.35-2.65-.341-1.156.25-2.8.807-1.97 3.3-2.2 1.261-.084 1.85.45.603.535.6 1.6 1.037-.43 1.5-1.8z"/></g><g id="f"><path fill="#373535" d="M295.3 343.55h-.05q-.003.02-.05.05-9.069 4.722-11.1 18.35-.926 6.231-.95 34.95v.05l.05.05 1.7 1.45v13.6q-.345.087-1.4-.45v.05q-1.09-.567-1.85.6v.05q-.673 1.145.75 1.9 1.296.675 2.5 0-.095.82-.6 1.55-.58.886-1.3 1.15l-.2.1.15.15q1.628 1.213 1.65 3.3.067 1.973-1.4 2.7.048-.201-.1-.4-.16-.309-.75-.6v-.05q-1.251-.575-1.9.5-.708 1.212.6 2.5 1.298 1.177 2.95 1.15-.12.435-.65.95-.615.536-1.5.9l-.2.1.15.15q.49.317 1.45.45.962.212 1.65.15.166 2.25 1.5 3.2l.1.05.05-.05q1.334-.95 1.45-3.2.738.062 1.65-.15 1.01-.133 1.45-.45l.2-.15-.2-.1q-.836-.364-1.5-.9-.535-.515-.65-.95 1.651.028 2.9-1.15 1.416-1.341.65-2.5-.649-1.075-1.9-.5v.05q-.591.291-.8.6-.098.199-.1.4-1.417-.727-1.4-2.7.072-2.087 1.65-3.3l.2-.15-.2-.1q-.72-.264-1.3-1.15-.554-.803-.65-1.7.402-.04 1.45.5 1.09.525 1.85-.7.673-1.145-.75-1.9-1.307-.68-2.55-.05v-13.45l2.7-1.45.05-.05v-.05q.026-49.753 4.65-53.15l.35-.4-.05-.05-.4.25M284.35 362q1.937-13.064 10.4-17.9-4.223 5.73-4.25 52.75l-2.65 1.45h-.1v14.05l.2-.1q1.215-.764 2.5-.1 1.177.645.65 1.6v-.05q-.64 1.025-1.55.6v.05q-1.327-.696-1.7-.45h-.1v.1q.078.988.7 1.9.542.844 1.2 1.15-1.525 1.302-1.6 3.4-.03 2.347 1.85 3.05l.35.15-.2-.35q-.156-.205-.05-.45.19-.241.7-.5 1.048-.475 1.6.4.634.991-.6 2.15-1.244 1.169-2.9 1.1h-.15v.15q.075.56.8 1.25.597.488 1.3.85-.401.213-1.15.3-.96.222-1.7.15h-.15v.15q-.07 2.113-1.25 3.05-1.23-.937-1.35-3.05v-.15h-.1q-.74.072-1.75-.15-.694-.086-1.15-.3.801-.36 1.35-.85h.05q.685-.69.7-1.25l.05-.15h-.15q-1.657.069-2.95-1.1-1.142-1.112-.55-2.15.551-.875 1.6-.4.51.259.65.5.156.245 0 .45l-.25.35.4-.15q1.88-.703 1.8-3.05-.025-2.098-1.55-3.4.658-.306 1.2-1.15.622-.912.65-1.9l.05-.25-.25.15q-1.165.763-2.45.1-1.177-.645-.65-1.6.64-.983 1.55-.55 1.327.655 1.7.4l.05-.05v-13.85l-.05-.05-1.7-1.45q.027-28.637.95-34.85z"/><path fill="#FFE132" d="M294.75 344.1q-8.463 4.836-10.4 17.9-.923 6.213-.95 34.85l1.7 1.45.05.05v13.85l-.05.05q-.373.255-1.7-.4-.91-.433-1.55.55-.527.955.65 1.6 1.285.663 2.45-.1l.25-.15-.05.25q-.028.988-.65 1.9-.542.844-1.2 1.15 1.525 1.302 1.55 3.4.08 2.347-1.8 3.05l-.4.15.25-.35q.156-.205 0-.45-.14-.241-.65-.5-1.049-.475-1.6.4-.592 1.038.55 2.15 1.293 1.169 2.95 1.1h.15l-.05.15q-.015.56-.7 1.25h-.05q-.549.49-1.35.85.456.214 1.15.3 1.01.222 1.75.15h.1v.15q.12 2.113 1.35 3.05 1.18-.937 1.25-3.05v-.15h.15q.74.072 1.7-.15.749-.087 1.15-.3-.703-.362-1.3-.85-.725-.69-.8-1.25V426h.15q1.656.069 2.9-1.1 1.234-1.159.6-2.15-.552-.875-1.6-.4-.51.259-.7.5-.106.245.05.45l.2.35-.35-.15q-1.88-.703-1.85-3.05.075-2.098 1.6-3.4-.658-.306-1.2-1.15-.622-.912-.7-1.9v-.1h.1q.373-.246 1.7.45v-.05q.91.425 1.55-.6v.05q.527-.955-.65-1.6-1.285-.664-2.5.1l-.2.1V398.3h.1l2.65-1.45q.027-47.02 4.25-52.75z"/></g><g id="g"><path fill="#373535" d="M279.45 393.85v-.05q-.737 1.285-.3 2.65 1.135 3.43 7.75 3.4 6.614.03 7.75-3.4v-.05q.433-1.314-.25-2.55-.675-1.255-2-1.65-2.353-.654-2.95 1.25-.271.976-.05 1.45.25.502.9.6-.552 1.17-3.4 1.15-2.849.02-3.4-1.15.643-.099.85-.6.29-.474 0-1.45-.547-1.904-2.95-1.25-1.275.395-1.95 1.65m.2.1q.625-1.145 1.8-1.5 2.147-.596 2.65 1.05.26.874.05 1.3-.211.434-.85.45l-.2.05.05.15q.48 1.48 3.75 1.45 3.27.03 3.7-1.45l.05-.15-.15-.05q-.63-.017-.85-.45-.179-.426.05-1.3.553-1.646 2.65-1.05 1.225.355 1.85 1.5.617 1.164.2 2.4-1.114 3.27-7.5 3.25-6.385.02-7.5-3.25-.414-1.236.25-2.4z"/><path fill="#FFE132" d="M279.65 393.95q-.664 1.164-.25 2.4 1.115 3.27 7.5 3.25 6.386.02 7.5-3.25.417-1.236-.2-2.4-.625-1.145-1.85-1.5-2.097-.596-2.65 1.05-.229.874-.05 1.3.22.433.85.45l.15.05-.05.15q-.43 1.48-3.7 1.45-3.27.03-3.75-1.45l-.05-.15.2-.05q.639-.016.85-.45.21-.426-.05-1.3-.503-1.646-2.65-1.05-1.175.355-1.8 1.5z"/></g><g id="h"><path fill="#373535" d="M289.6 401.9h.05q-.109.193-.65.75-.39.543-.2.7v-.05q.66.748 1.65.35.746-.305.95-.75.652-.727.9-1.1.443-.622.05-1.75l-.1-.25-.1.25q-.199.374-1.2.9-1.168.574-1.35.95m.25.1q.168-.324 1.2-.85.824-.43 1.15-.8.215.837-.1 1.3-.252.377-.9 1.1v.05q-.196.355-.85.6-.81.352-1.35-.25-.016-.036.2-.35.559-.593.65-.8z"/><path fill="#FFE132" d="M291.05 401.15q-1.032.526-1.2.85-.091.207-.65.8-.216.314-.2.35.54.602 1.35.25.654-.245.85-.6v-.05q.648-.723.9-1.1.315-.463.1-1.3-.326.37-1.15.8z"/></g><g id="i"><path fill="#373535" d="M284.45 399.7h-.05q-1.234.094-1.3.95-.086 1.184 1.15 1.75.653.322 2.05.65 1.595.584 2.45.45.966-.086 1.1-.95.304-.962-.55-1.45-.427-.311-2.55-1.05-1.325-.427-2.3-.35m0 .25q.942-.067 2.2.35 2.077.711 2.5 1 .696.412.45 1.2-.116.686-.9.75-.795.115-2.3-.45h-.05q-1.358-.325-2-.65-1.064-.485-1-1.5.083-.635 1.1-.7z"/><path fill="#FFE132" d="M286.65 400.3q-1.258-.417-2.2-.35-1.017.065-1.1.7-.064 1.015 1 1.5.642.325 2 .65h.05q1.505.565 2.3.45.784-.064.9-.75.246-.788-.45-1.2-.423-.289-2.5-1z"/></g><g id="j"><path fill="#373535" d="M292.25 402.3l-.15.3q-.165.409-1.15.85v.05q-1.17.572-1.35 1h.05q-.109.193-.65.75-.39.543-.2.7.66.658 1.65.25.746-.305.95-.75.652-.677.9-1.05.442-.622.05-1.8l-.1-.3m-.05.65q.21.845-.1 1.3-.253.377-.9 1.05v.05q-.196.355-.85.6-.811.342-1.35-.2-.016-.036.2-.35.559-.593.65-.8.17-.373 1.2-.9.82-.368 1.15-.75z"/><path fill="#FFE132" d="M292.1 404.25q.31-.455.1-1.3-.33.382-1.15.75-1.03.527-1.2.9-.091.207-.65.8-.216.314-.2.35.539.542 1.35.2.654-.245.85-.6v-.05q.647-.673.9-1.05z"/></g><g id="k"><path fill="#373535" d="M283.9 405.05q.803.323 2.4.6 1.595.584 2.45.45.966-.086 1.1-.95.3-.958-.55-1.5-.48-.312-2.55-1-1.968-.678-2.65-.8-.781-.102-1.2.1-.449.249-.5.85-.084 1.587 1.5 2.25m2.45.35q-1.559-.275-2.35-.6-1.416-.588-1.35-2 .049-.45.35-.65.381-.148 1.05-.05.668.128 2.6.8 2.029.661 2.5.95.7.458.45 1.25-.116.686-.9.75-.795.115-2.3-.45h-.05z"/><path fill="#FFE132" d="M284 404.8q.791.325 2.35.6h.05q1.505.565 2.3.45.784-.064.9-.75.25-.792-.45-1.25-.471-.289-2.5-.95-1.932-.672-2.6-.8-.669-.098-1.05.05-.301.2-.35.65-.066 1.412 1.35 2z"/></g><g id="l"><path fill="#373535" d="M292.25 404.95l-.1.25q-.199.374-1.2.9-1.168.574-1.35.95h.05q-.109.193-.65.75-.39.543-.2.7v-.05q.66.748 1.65.35.746-.305.95-.75.652-.677.9-1.05.44-.675.05-1.8l-.1-.25M289 408.3q-.016-.036.2-.35.559-.593.65-.8.168-.324 1.2-.85.824-.43 1.15-.8.218.845-.1 1.35-.253.377-.9 1.05v.05q-.196.355-.85.6-.81.352-1.35-.25z"/><path fill="#FFE132" d="M289.2 407.95q-.216.314-.2.35.54.602 1.35.25.654-.245.85-.6v-.05q.647-.673.9-1.05.318-.505.1-1.35-.326.37-1.15.8-1.032.526-1.2.85-.091.207-.65.8z"/></g><g id="m"><path fill="#373535" d="M284.5 404.85h-.05q-1.13.095-1.2.95-.029 1.497 1.1 1.95.601.274 1.95.45 1.595.584 2.45.45.966-.086 1.1-.95.304-.962-.55-1.45-.427-.311-2.55-1.05-1.325-.427-2.25-.35m0 .25q.892-.067 2.15.35 2.077.711 2.5 1 .696.412.45 1.2-.116.686-.9.75-.795.115-2.3-.45h-.05q-1.307-.176-1.9-.45-.971-.397-.95-1.7.08-.635 1-.7z"/><path fill="#FFE132" d="M284.5 405.1q-.92.065-1 .7-.021 1.303.95 1.7.593.274 1.9.45h.05q1.505.565 2.3.45.784-.064.9-.75.246-.788-.45-1.2-.423-.289-2.5-1-1.258-.417-2.15-.35z"/></g><g id="n"><path fill="#373535" d="M292.25 407.3l-.1.25q-.199.374-1.2.9-1.168.574-1.35.95h.05q-.109.193-.65.75-.39.543-.2.7v-.05q.66.748 1.65.35.746-.305.95-.75.652-.677.9-1.05.44-.675.05-1.8l-.1-.25m-1.05 2.95v.05q-.196.355-.85.6-.81.352-1.35-.25-.016-.036.2-.35.559-.593.65-.8.168-.324 1.2-.85.824-.43 1.15-.8.218.845-.1 1.35-.253.377-.9 1.05z"/><path fill="#FFE132" d="M291.2 410.3v-.05q.647-.673.9-1.05.318-.505.1-1.35-.326.37-1.15.8-1.032.526-1.2.85-.091.207-.65.8-.216.314-.2.35.54.602 1.35.25.654-.245.85-.6z"/></g><g id="o"><path fill="#373535" d="M286.75 407.8q-1.245-.438-2.05-.3-.934.139-.95 1.05.022 1.067.85 1.6.272.212 1.7.65 1.595.584 2.45.45.966-.086 1.1-.95.3-.958-.55-1.5-.48-.312-2.55-1m-2-.05q.745-.112 1.9.3 2.029.661 2.5.95.7.458.45 1.25-.116.686-.9.75-.795.115-2.3-.45-1.372-.412-1.65-.6-.722-.467-.75-1.4.034-.689.75-.8z"/><path fill="#FFE132" d="M286.65 408.05q-1.155-.412-1.9-.3-.716.111-.75.8.028.933.75 1.4.278.188 1.65.6 1.505.565 2.3.45.784-.064.9-.75.25-.792-.45-1.25-.471-.289-2.5-.95z"/></g><g id="p"><path fill="#373535" d="M251.8 340.05q.07.46-.3 2-.79 3.544.9 5.7 1.72 2.193 5.9 3 2.124.475 5.95 1.05 2.686.737 2.7 2.2l.05.55h.15l.05-.5q.97-6.325-2.3-12.2-3.508-6.311-8.5-4.7-2.7.878-3.2-.55-.306-1.02-1.1-1.25-.787-.208-1.7.7-.856.862-.65 1.65.177.793 1.2 1.15.826.292.85 1.2m.25-4.45q.656.22.9 1.1.55 1.673 3.55.7 4.808-1.54 8.2 4.55 3.038 5.479 2.35 11.35-.494-1.127-2.75-1.75-3.824-.575-5.95-1.05-4.07-.793-5.75-2.9-1.61-2.094-.85-5.5.371-1.569.3-2.05-.026-1.092-1-1.45-.877-.293-1.05-.95-.144-.662.6-1.4.787-.793 1.45-.65z"/><path fill="#FFE132" d="M252.95 336.7q-.244-.88-.9-1.1-.663-.143-1.45.65-.744.738-.6 1.4.173.657 1.05.95.974.358 1 1.45.071.481-.3 2.05-.76 3.406.85 5.5 1.68 2.107 5.75 2.9 2.126.475 5.95 1.05 2.256.623 2.75 1.75.688-5.871-2.35-11.35-3.392-6.09-8.2-4.55-3 .973-3.55-.7z"/></g><g id="q"><path fill="#373535" d="M400.2 354.55V354q.064-1.463 2.7-2.2 1.727-.375 6-1.05 4.23-.807 5.9-3 1.74-2.156.9-5.7-.322-1.456-.35-2 .074-.908.9-1.2 1.018-.359 1.2-1.15.244-.777-.65-1.65h-.05q-.823-.894-1.65-.7-.744.23-1.1 1.25-.544 1.432-3.2.55-4.942-1.612-8.45 4.7-3.27 5.825-2.4 12.2l.05.5h.2m2.65-3q-2.196.62-2.75 1.75-.587-5.92 2.45-11.35 3.392-6.088 8.15-4.55 2.944.968 3.55-.7.294-.88.9-1.1.711-.153 1.45.6v.05q.803.738.6 1.4-.168.659-1.05.95-.974.358-1.05 1.45.022.556.35 2.05.81 3.406-.85 5.5-1.63 2.107-5.75 2.9-4.277.675-6 1.05z"/><path fill="#FFE132" d="M400.1 353.3q.554-1.13 2.75-1.75 1.723-.375 6-1.05 4.12-.793 5.75-2.9 1.66-2.094.85-5.5-.328-1.494-.35-2.05.076-1.092 1.05-1.45.882-.291 1.05-.95.203-.662-.6-1.4v-.05q-.739-.753-1.45-.6-.606.22-.9 1.1-.606 1.668-3.55.7-4.758-1.538-8.15 4.55-3.037 5.43-2.45 11.35z"/></g><g id="r"><path fill="#373535" d="M252.4 439.35q-1.69 2.212-.9 5.7.369 1.539.3 1.95v.05q-.022.911-.85 1.2-1.025.354-1.2 1.1-.204.824.65 1.7v.05q.926.854 1.7.6.796-.125 1.1-1.15.5-1.428 3.2-.6 4.992 1.661 8.5-4.7 3.27-5.824 2.3-12.2V433l-.05-.45H267l-.05.5q-.015 1.56-2.7 2.2l-5.95 1.05q-4.18.888-5.9 3.05m-.65 5.65q-.76-3.362.85-5.5 1.68-2.088 5.75-2.95l5.95-1.05q2.258-.534 2.75-1.7.685 5.923-2.35 11.35-3.392 6.138-8.2 4.55-3-.923-3.55.75-.246.875-.9 1-.664.193-1.45-.55h-.05q-.693-.785-.55-1.5.175-.604 1.05-.9.972-.361 1-1.45.072-.48-.3-2.05z"/><path fill="#FFE132" d="M252.6 439.5q-1.61 2.138-.85 5.5.372 1.57.3 2.05-.028 1.089-1 1.45-.875.296-1.05.9-.143.715.55 1.5h.05q.786.743 1.45.55.654-.125.9-1 .55-1.673 3.55-.75 4.808 1.588 8.2-4.55 3.035-5.427 2.35-11.35-.492 1.166-2.75 1.7l-5.95 1.05q-4.07.862-5.75 2.95z"/></g><g id="s"><path fill="#373535" d="M414.8 439.35q-1.67-2.162-5.9-3.05-4.272-.575-6-1.05-2.636-.64-2.7-2.2v-.5h-.2l-.05.45v.05q-.87 6.375 2.4 12.2 3.508 6.362 8.45 4.7 2.703-.83 3.2.6.354 1.025 1.1 1.15.838.256 1.7-.6.907-.913.65-1.75-.18-.744-1.2-1.1-.828-.289-.9-1.2.028-.544.35-2 .84-3.488-.9-5.7m-5.95-2.8q4.12.862 5.75 2.95 1.66 2.138.85 5.5-.328 1.494-.35 2.05.078 1.089 1.05 1.45.88.294 1.05.9.193.713-.6 1.5-.738.744-1.45.55-.604-.125-.9-1-.552-1.67-3.55-.75-4.758 1.588-8.15-4.55-3.032-5.422-2.45-11.35.551 1.168 2.75 1.7 1.722.475 6 1.05z"/><path fill="#FFE132" d="M414.6 439.5q-1.63-2.088-5.75-2.95-4.278-.575-6-1.05-2.199-.532-2.75-1.7-.582 5.928 2.45 11.35 3.392 6.138 8.15 4.55 2.998-.92 3.55.75.296.875.9 1 .712.194 1.45-.55.793-.787.6-1.5-.17-.606-1.05-.9-.972-.361-1.05-1.45.022-.556.35-2.05.81-3.362-.85-5.5z"/></g><path fill="#373535" d="M301.25 374.15l-.15.2q3.122 1.92 10.15 2.35-.243.257-.5.75h.05q-.354.708-.75.95H310v.05l-.45.25.05.1.45-.15q1.455-.415 3.35 0 2.06.483 3 .25h.15l-.05-.15q-.434-2.002-1.5-3.7l-.2.15q1 1.6 1.45 3.5-.94.138-2.8-.3-1.633-.36-2.95-.1.265-.281.5-.75.343-.686.65-.85l.4-.2-.45-.05h-.05q-7.16-.376-10.3-2.3z" id="t"/><path fill="#373535" d="M302.45 409.3l-.25.05q1.738 5.718 7 9.8l.15-.2q-5.188-4.018-6.9-9.65z" id="u"/><path fill="#373535" d="M316.05 410.55l-.25-.1q-1.13 3.073-.95 6.55.172 2.61 1.2 6.05l.25-.05q-1.023-3.41-1.2-6-.17-3.423.95-6.45z" id="v"/><path fill="#373535" d="M369.4 421.9l.15-.2q-3.506-2.287-5.15-4.4-2.073-2.659-4.5-3.8-2.47-1.131-6.3-1.15v.25q3.769.03 6.2 1.15 2.372 1.109 4.4 3.7 1.656 2.137 5.2 4.45z" id="w"/><path fill="#373535" d="M329.95 420.5l.2.1q5.845-10.816 4.05-15.75l-.25.1q1.755 4.866-4 15.55z" id="x"/><path fill="#373535" d="M340.15 357.95l-.2-.15q-1.375 1.641-4.2 2.35-2.749.719-5.3.25l-.5-.05v.15l.45.15q.786.27 1.6 1.4.654.921 1.35 1.25-2.096.513-4.05.4-2.504-.172-3.95-1.45.018-.025 0-.05-.25-.238-.5-.55l-.2.15q.25.338.5.6.415.494.75 1.15h-.05q.365.705 1 1.15-3.725.112-6.05-1.85-1.206-1.076-2.9-1.15-2.016-.085-2.3 1.75-.138.983.5 1.65.54.673 1.35.65.709.085 1.2-.4.435-.446.4-.95.022-1.479-1.25-1.55v.25q1.028.078 1 1.3.015.396-.35.75-.409.415-1 .35-.69.027-1.15-.55-.562-.584-.45-1.45.265-1.615 2.05-1.55 1.606.076 2.75 1.1 2.5 2.13 6.65 1.85h.45l-.4-.2q-.025-.013-.05-.05-.812-.408-1.2-1.2-.143-.292-.3-.55 1.376.915 3.5 1.05 2.162.128 4.5-.5l.45-.1-.45-.15q-.834-.218-1.6-1.3-.538-.73-1.05-1.15 2.24.283 4.65-.35 2.924-.742 4.35-2.45z" id="y"/><path fill="#373535" d="M326.5 382.45l-.1.35q-.045.355-.2 1.9-.054 1.182-.4 1.75-.164-1.529-2.5-4.2l-.15-.15-.1.2q-1.116 2.454-2.55 3.15.393-1.054-.5-3.5l-.15-.4-.1.4q-.166.95-.7 1.85v.05q-.531.976-1.2 1.3.142-.585-.25-1.75-.517-1.617-.5-2.35h-.25q-.033.766.5 2.45.462 1.33.25 1.8l-.15.25.25-.1q.87-.238 1.55-1.5.441-.735.65-1.5.803 2.376.25 3.15l-.2.35.35-.15q1.64-.516 2.95-3.25 2.403 2.82 2.3 4.3v.3l.25-.2q.577-.578.65-2.25.117-1.179.15-1.65.518.582 2.15 1.55h.05q1.75.998 1.85 2.6v.05l.05.5.2-.45q.478-1.01.6-2.4.179-1.453-.1-2.6l-.25.05q.271 1.103.1 2.5-.094 1.068-.4 1.9-.308-1.422-1.95-2.35-1.973-1.172-2.25-1.7l-.15-.25z" id="z"/><path fill="#373535" d="M339.1 365.95l-.2.1q.608 1.076 1.75 2.05 1.033.776 1.25 1.5l.25-.1q-.233-.776-1.35-1.6-1.107-.926-1.7-1.95z" id="A"/><path fill="#373535" d="M324.2 371h-.15l-.05.5q-.005.543-.75 1.45-.593.733-.8 1.3-.306-.372-1.25-.95-1.37-.918-1.3-2.7h-.25q-.08 1.918 1.4 2.9 1.253.773 1.3 1.1v.05l.1.5h.1l.05-.5q.138-.666.85-1.55.519-.623.7-1.1.301.622 1.15 1.15h.05q1.238.72 1.45 1.65l.15.5.2-.05-.1-.5q-.07-.412.1-2.05.097-.723-.1-1.45.137.134.25.25.806 1.026.9 1.7l.1.5h.05l.1-.5v-.05q.088-.156.65-1.5.322-.675.3-1.3.26.297.6.6 1.013.798.8 1.9l-.05.5h.05l.25-.4v-.05q.521-.871.75-1.55.374-.975.4-2.15.445.774 1.55 1.55 1.796 1.155 1.7 2.15v.45h.05l.2-.4q.013-.024 0-.05.67-1.205.6-2.95.03-1.555-.55-3 .69.644 1 1.55.424.992.65 2.8.18 1.113 1.4 2.3.724.65 2.1 1.8l.15-.2q-1.374-1.15-2.1-1.8-1.131-1.113-1.3-2.15-.224-1.842-.65-2.85-.442-1.232-1.5-2l-.35-.3.15.45q.77 1.626.75 3.4.07 1.431-.35 2.5-.242-.91-1.8-1.9-1.504-1.053-1.75-2.05v-.05q-.022-.125-.05-.25h-.25q.021.175.05.35.113 1.491-.35 2.7-.147.505-.45 1.1-.067-.904-.95-1.6-.522-.457-.8-.85-.036-.29-.2-.6l-.2.1q.134.286.15.55.16.74-.25 1.6-.32.803-.5 1.2-.206-.582-.85-1.4-.384-.454-.65-.8.006-.042-.05-.1l-.25-.5-.2.1.25.5v.05q.016.027 0 .05.413 1.013.3 2v.05q-.083.88-.1 1.4-.415-.624-1.35-1.15-1.05-.66-1.2-1.45v-.05l-.05-.45z" id="B"/><path fill="#373535" d="M329.15 387.15l.05-.2h-.2q-.903.109-1.45 2.45-.433 2.18-1.25 2.95.014-.588-.75-1.65-1.041-1.302-.95-2l.05-.5h-.2l-.1.45v.1q-.644 3.3-2.75 4.6.425-1.213-.15-2.45-.37-.752-.4-1.3v-.1q-.018-.194.05-.35l-.2-.1q-.117.212-.1.5v.05q-.43 2.866-1.9 3.75-1.187.758-1.65 1.1.218-1.405-.35-2.95-.45-1.363-.1-1.9l.25-.4-.15-.1-.3.35v.05q-.484.564-1.75 1.05-1.034.456-1.85.55.962-.665 1.35-2.35.552-1.881 1.15-2.15l-.1-.25q-.702.28-1.3 2.35-.457 1.944-1.7 2.4l-.45.2v.05h.55q1.006.069 2.45-.55.938-.36 1.45-.8-.059.621.25 1.6.614 1.66.25 3.15l-.1.5h.05l.3-.4v-.05q.23-.202 1.9-1.25 1.388-.803 1.9-3.25.109.324.3.7h-.05q.602 1.3 0 2.6l-.1.35.3-.2q2.26-1.184 3.05-4.35.239.635.9 1.45.935 1.28.65 1.75l-.2.45.35-.25q1.113-.658 1.65-3.35.433-1.794 1.05-2.15-.14.96.95 3.5 1.245 2.726.85 3.75l-.1.45.1.05.25-.4q.128-.233 1.65-1.35 1.41-1.019 1.9-2.35.626.887 2.85 1.4 2.509.713 2.65.85l.4.25h.05l-.25-.45-.05-.05q-.309-.517-.15-2 .175-1.183-.05-1.85.871.438 2.35.25 1.337-.077 2.7-.6l.25-.1-.25-.1q-2.015-.99-2.85-2.1l-.2.15q.809 1.068 2.65 2-1.152.432-2.3.5h-.05q-1.678.213-2.5-.45h-.05l-.4-.3-.05.05.3.4q.417.597.2 2.1-.132 1.295.05 1.9-.62-.197-2.4-.7-2.384-.555-2.8-1.5l-.15-.3-.1.3q-.414 1.432-1.9 2.5-.939.69-1.4 1.05.108-1.133-.95-3.45-1.193-2.776-.9-3.55z" id="C"/><path fill="#373535" d="M334.25 381.45L334 381l-.05.05.05.45q.12.604-.05 1.5-.08.687-.25 1-.351-.553-2-1.55-1.86-1.16-2.25-2.6v-.05l-.1-.45h-.1l-.05.5q-.075.952-.8 1.85-.137-1.178-1-2.25-.457-.585-1.9-1.8l-.25-.25.05.35q.162.633-.4 1.55-.306.505-.8 1.2-.23-.49-1.3-1.45-1.177-1.101-1.3-2.15h-.25q.127 1.151 1.4 2.35 1.268 1.154 1.3 1.55l.1.3.15-.25q.55-.825.9-1.4.496-.798.5-1.4 1.195 1.036 1.6 1.55.923 1.14.95 2.45l.05.3.2-.25q.753-.851.95-1.75.552 1.27 2.2 2.3 1.908 1.16 2 1.65l.1.25.15-.2q.269-.282.4-1.3.119-.57.1-1.05.954 1.533 2.6 2.55 2.275 1.432 4.45 1l-.05-.25q-2.075.417-4.25-.95-1.825-1.113-2.8-2.85v-.05z" id="D"/><path fill="#373535" d="M333.95 378.75h.1l.05-.5h-.25l.1.5m-2.2-2.65q.315.38.8.8 1.304 1.042 1.3 1.35.024-.125.1-.4-.305-.4-1.25-1.15-.714-.592-1.05-1.1v-.05q.017 0 0-.05-.273-.384-.3-.7h-.25q.022.371.3.85.268.989-.1 1.75-.42.831-.65 1.25-.146-.6-.85-1.4-.976-1.007-1.85-1.45l-.1.25q.825.407 1.75 1.35.908 1.033.85 1.75v.45l.15.05.1-.5q.03-.095.8-1.65.322-.625.25-1.4m3.45-1.55l-.1.5q.047.275.15.55.317 1.02 1.5 2.15.724.55 3.15 2.3l.15-.2q-2.424-1.75-3.15-2.3-1.41-1.335-1.55-2.5l-.05-.5h-.1z" id="E"/></defs><use xlink:href="#a" transform="matrix(.6943 0 0 .72888 -101.7 -234.35)"/><use xlink:href="#b" transform="matrix(.69434 0 0 .72891 -101.7 -234.35)"/><use xlink:href="#c" transform="matrix(.69434 0 0 .72891 -101.7 -234.35)"/><use xlink:href="#d" transform="matrix(.69434 0 0 .72891 -101.7 -234.35)"/><use xlink:href="#e" transform="matrix(.69434 0 0 .72891 -101.7 -234.35)"/><use xlink:href="#f" transform="matrix(.69434 0 0 .72891 -101.7 -234.35)"/><use xlink:href="#g" transform="matrix(.69434 0 0 .72891 -101.7 -234.35)"/><use xlink:href="#h" transform="matrix(.69434 0 0 .72891 -101.7 -234.35)"/><use xlink:href="#i" transform="matrix(.69434 0 0 .72891 -101.7 -234.35)"/><use xlink:href="#j" transform="matrix(.69434 0 0 .72891 -101.7 -234.35)"/><use xlink:href="#k" transform="matrix(.69434 0 0 .72891 -101.7 -234.35)"/><use xlink:href="#l" transform="matrix(.69434 0 0 .72891 -101.7 -234.35)"/><use xlink:href="#m" transform="matrix(.69434 0 0 .72891 -101.7 -234.35)"/><use xlink:href="#n" transform="matrix(.69434 0 0 .72891 -101.7 -234.35)"/><use xlink:href="#o" transform="matrix(.69434 0 0 .72891 -101.7 -234.35)"/><use xlink:href="#p" transform="matrix(.69434 0 0 .72891 -101.7 -234.35)"/><use xlink:href="#q" transform="matrix(.69434 0 0 .72891 -101.7 -234.35)"/><use xlink:href="#r" transform="matrix(.69434 0 0 .72891 -101.7 -234.35)"/><use xlink:href="#s" transform="matrix(.69434 0 0 .72891 -101.7 -234.35)"/><use xlink:href="#t" transform="matrix(.6943 0 0 .72888 -101.7 -234.35)"/><use xlink:href="#u" transform="matrix(.6943 0 0 .72888 -101.7 -234.35)"/><use xlink:href="#v" transform="matrix(.6943 0 0 .72888 -101.7 -234.35)"/><use xlink:href="#w" transform="matrix(.6943 0 0 .72888 -101.7 -234.35)"/><use xlink:href="#x" transform="matrix(.6943 0 0 .72888 -101.7 -234.35)"/><use xlink:href="#y" transform="matrix(.6943 0 0 .72888 -101.7 -234.35)"/><use xlink:href="#z" transform="matrix(.6943 0 0 .72888 -101.7 -234.35)"/><use xlink:href="#A" transform="matrix(.6943 0 0 .72888 -101.7 -234.35)"/><use xlink:href="#B" transform="matrix(.6943 0 0 .72888 -101.7 -234.35)"/><use xlink:href="#C" transform="matrix(.6943 0 0 .72888 -101.7 -234.35)"/><use xlink:href="#D" transform="matrix(.6943 0 0 .72888 -101.7 -234.35)"/><use xlink:href="#E" transform="matrix(.6943 0 0 .72888 -101.7 -234.35)"/></svg>