<svg xmlns="http://www.w3.org/2000/svg" xmlns:xlink="http://www.w3.org/1999/xlink" preserveAspectRatio="none" width="200" height="105"><defs><path fill="#EE3156" d="M153.6 465.55h273.75V321.5H153.6v144.05z" id="a"/><path fill="#FFF" d="M427.35 347.65v-13.1H153.6v13.1h273.75z" id="b"/><path fill="#FFF" d="M427.35 373.85v-13.1H153.6v13.1h273.75z" id="c"/><path fill="#FFF" d="M427.35 400.1V387H153.6v13.1h273.75z" id="d"/><path fill="#FFF" d="M153.6 413.2v13.1h273.75v-13.1H153.6z" id="e"/><path fill="#FFF" d="M153.6 439.4v13.1h273.75v-13.1H153.6z" id="f"/><path fill="#18416A" d="M153.6 321.5V387h65.5v-65.5h-65.5z" id="g"/><path fill="#FFF" d="M170 379.3l16.35-11.9 16.35 11.9-6.25-19.35 16.4-11.7H192.6l-6.25-19.3-6.2 19.25h-20.3l16.5 11.95L170 379.3z" id="h"/></defs><use xlink:href="#a" transform="matrix(.73056 0 0 .72888 -112.2 -234.35)"/><use xlink:href="#b" transform="matrix(.73053 0 0 .72885 -112.2 -234.35)"/><use xlink:href="#c" transform="matrix(.73053 0 0 .72885 -112.2 -234.35)"/><use xlink:href="#d" transform="matrix(.73053 0 0 .72885 -112.2 -234.35)"/><use xlink:href="#e" transform="matrix(.73053 0 0 .72885 -112.2 -234.35)"/><use xlink:href="#f" transform="matrix(.73053 0 0 .72885 -112.2 -234.35)"/><use xlink:href="#g" transform="matrix(.73056 0 0 .72888 -112.2 -234.35)"/><use xlink:href="#h" transform="matrix(.73056 0 0 .72888 -112.2 -234.35)"/></svg>