<svg xmlns="http://www.w3.org/2000/svg" xmlns:xlink="http://www.w3.org/1999/xlink" preserveAspectRatio="none" width="200" height="105"><defs><g id="a"><path fill="#003893" d="M100 50V20.4L0 49.2v.8h100m0-49.2V0H0v47.6L100 .8M25.15 11.75L27.5 9.5l-.85 1.2 1.5-1-2.75 2.85-1.45 2.1 5.35-1.9-6.45 3.9 8.25-1.55-6.8 2.8 6.6.5-7.65.95 6.65 4.55-6.75-2.85 4.3 5.05-2.5-1.95 2.55 3.7-5.3-5.1L24.45 29l-3.9-6.45 1.55 8.25-2.8-6.8-.5 6.6-.95-7.65-4.55 6.65 2.85-6.75-5.05 4.3 2.95-3.8-3.55 2.75 4.3-5.05-6.75 2.85 6.65-4.55-7.65-.95 6.6-.5-6.8-2.8 8.25 1.55-6.45-3.9 6.05 2.2-.35-.5L9.8 9.7l1.9 1.3-.6-.8 4.8 3.65-2.6-6.1 4.55 6.65.95-7.65.5 6.6 2.8-6.8-1.55 8.25 3.9-6.45-1.85 5.15 2.55-1.75M19 18.4l-.05.05.05-.05z"/><path fill="#DD7500" d="M100 10.6V.8L0 47.6v.8l100-37.8z"/><path fill="#FFF" d="M100 20.4v-9.8L0 48.4v.8l100-28.8M27.5 9.5l-2.35 2.25-2.55 1.75 1.85-5.15-3.9 6.45 1.55-8.25-2.8 6.8-.5-6.6-.95 7.65-4.55-6.65 2.6 6.1-4.8-3.65.6.8-1.9-1.3 4.55 4.75.35.5-6.05-2.2 6.45 3.9-8.25-1.55 6.8 2.8-6.6.5 7.65.95-6.65 4.55 6.75-2.85-4.3 5.05 3.55-2.75-2.95 3.8 5.05-4.3-2.85 6.75 4.55-6.65.95 7.65.5-6.6 2.8 6.8-1.55-8.25 3.9 6.45-2.25-6.25 5.3 5.1-2.55-3.7 2.5 1.95-4.3-5.05 6.75 2.85-6.65-4.55 7.65-.95-6.6-.5 6.8-2.8-8.25 1.55 6.45-3.9-5.35 1.9 1.45-2.1 2.75-2.85-1.5 1 .85-1.2M19 18.4l-.05.05.05-.05z"/></g></defs><use xlink:href="#a" transform="scale(2 2.1)"/></svg>