<svg xmlns="http://www.w3.org/2000/svg" xmlns:xlink="http://www.w3.org/1999/xlink" preserveAspectRatio="none" width="200" height="105"><defs><path fill="#FFE033" d="M159.95 463.05H448V319H159.95v144.05z" id="a"/><path fill="#EE333E" d="M329.1 393.55v-5.05L448 376.65V319l-121.45 60.75q-.75-1.45-2.05-3.4L404.8 319h-86.45l-9.45 47.3q-2.3-.5-4.95-.5-2.6 0-4.9.5L289.6 319h-86.45l80.3 57.35q-1.3 1.95-2.05 3.4L159.95 319v57.6l118.9 11.9v5.05l-118.9 11.9v57.6L281.4 402.3q.75 1.5 2.05 3.4l-80.3 57.35h86.45l9.45-47.3q2.3.5 4.9.5 2.65 0 4.95-.5l9.45 47.3h86.45l-80.3-57.35q1.3-1.9 2.05-3.4L448 463.05v-57.6l-118.9-11.9z" id="b"/><path fill="#FFE033" d="M303.95 369.4q-8.95 0-15.25 6.35-6.35 6.35-6.35 15.3 0 8.95 6.35 15.25 6.35 6.35 15.25 6.35 8.95 0 15.3-6.35 6.35-6.3 6.35-15.25t-6.35-15.3q-6.35-6.35-15.3-6.35z" id="c"/></defs><use xlink:href="#a" transform="matrix(.69427 0 0 .72885 -111.05 -232.5)"/><use xlink:href="#b" transform="matrix(.6943 0 0 .72888 -111.05 -232.5)"/><use xlink:href="#c" transform="matrix(.6943 0 0 .72888 -111.05 -232.5)"/></svg>