<svg xmlns="http://www.w3.org/2000/svg" xmlns:xlink="http://www.w3.org/1999/xlink" preserveAspectRatio="none" width="200" height="105"><defs><g id="a"><path fill="#165B9E" d="M232.9 346.05q-.95-1.15-1.9-1-.95.05-1.9 1.35-2.55 3.25-3.65 6.2-1.1 3.1-3.5 5.5-1.3 1.35-2.25 1.35v-.05q-.2-.05-.4-.05-.45-.2-.85-.7-.1-.1-.15-.25l-.05-.05q-.1-.25-.65-1.75-.15-.3-.25-.6-1.65-4.6-2.9-7.2-.85-1.7-3-2.05-2.05-.4-3.25.5-2.55 1.8-3.85 4.9-.95 2.25-1.45 6.3-.1.35 0 .5.05.1.15.1.1 0 .2-.05.4-.2.85-1.25.1-.25.25-.55l.05-.1q2.5-4.35 4.7-6.25.35-.35.8-.6 1.4.25 3.1 3.6 1.65 3.2 2.55 4.85-.6-.85-1.2-1.3-1.05-.75-2.55-.75-1.85-.05-3.35.65-.9.35-1.15 1.05-.1.15-.1.35-.15.4-.3 1.35-1.15 4.95-.55 9.65.05.35.15.5.05.1.2.1.05 0 .15-.1.25-.25.45-1.35.75-6.45 3.9-9.65l.4.25q.65.45 1.4 1.1.65.55 1.2 1.1.85.85 1.7 1.85.2.2.35.6l.5 1.9v.05q0 .3.55 4.15.95 6.9 1.6 8 .25.35.4 1.1v.15q0 .05.05.05.1.1.2 0 .05-.05.1-.3v-.05q0-.6.4-.85.05-.05.15-.05.1.05.2.2v.05q.15.15.4.15.15-.05.45-.25.15-.1.2-.1l.05.1h.2v.1q.1.05.15 0 .05 0 .05-.05l.05-.05v-.05-.25q-.05 0-.05.05l-.05.05q.05-.15.15-.35.2-.75.35-1.75v-.05q.1-1.05.75-3.05.65-2.2 1.3-3.25 1.05-1.8 3.1-4.45 2.2-3 3.6-4.3l.95 1.9q.5 1.3.5 2.4-.05.95-.3 2.45-.2.85.15 1.05.15.15.4 0 .15-.1.35-.4 1.65-2.65 1.35-5.4-.2-1.4-.65-3.05-.5-1.85-.85-2.45-.8-1.4-1.75-1.05h.05q-.55.1-2.1 1.5-1.35 1.1-2.85 3.25-.95 1.3-1.65 2.6.35-1 .95-2.6.05-.15.1-.25 0-.1.05-.15 1.7-4.65 1.75-4.8l.6-1.65q.4-.95 1-2.25.6-1.35 1.05-2.2l.7-1.15q1.65.25 2.7 2.85.8 2.1.8 3.65-.1 1.2 0 1.55 0 .1.1.2.05.1.2 0 .1-.05.3-.4h-.05q.35-.65.55-2.3v-.05q.2-1.95-.15-3.25-.55-1.95-1.35-3.4v-.05q-.2-.4-.4-.6-.35-.5-.7-.9m-1.9-.8q.85-.05 1.7.95l.25.25q-.15-.05-.3 0-.8.05-2 1.7-1.75 2.55-3.1 6.15-1.15 2.95-3.05 9.15-.45 1.35-.6 2v.05l-.1.45.15.05.2-.45q.85-2.1 2.4-4.2 1.5-2.1 2.8-3.2 1.5-1.3 2-1.45.75-.25 1.45.95.25.45.6 1.7-.15-.15-.35-.15-.55-.05-1.85 1.1-1.25 1.05-3.55 4.05-1.85 2.4-3.4 4.8-.6.95-1.35 3.25-.7 2.2-.8 3.15-.1.9-.2 1.45-.1.4-.15.75-.05.1-.05.2-.05-.05-.05-.15-.2 0-.4.15-.25.15-.35.2-.1 0-.15-.05-.3-.5-.8-.35-.45.1-.6.5-.15-.85-.25-1.05-.25-.5-.65-2.75t-.65-4.3q-.6-6.35-1.35-7.2-3-3.5-6.2-5.1-.8-.4-1.45-.4 1.35-.55 3-.55 1.4 0 2.4.7 1 .75 1.9 2.55l.05.15.4-.25.1-.05-.1-.1q-.75-1.05-3.35-6.15-1.65-3.3-3.05-3.7.35-.25.7-.4 2.2-1 3.55.9.9 1.25 2.85 6.75.65 1.85 1.8 2.25l.3.1q1.2.3 2.8-1.35 2.4-2.4 3.55-5.6 1.05-2.95 3.6-6.15.85-1.2 1.7-1.3m2.4 1.9q.05 0 .05.05 1.05 1.6 1.65 3.85.3 1.25.15 3.2-.15 1.6-.5 2.25-.1.15-.1.25-.05-.3 0-1.5.05-1.55-.8-3.75-1.1-2.7-2.75-3 .75-1.05 1.35-1.4.55-.35.95.05m-1.15 15.65q-.1-.2-1.05-2.05 1.2-1.2 1.85-1.3.25 0 .45.15l.1.4q.4 1.6.65 3.05.25 2.6-1.3 5.2-.15.25-.3.35-.05.05-.1 0-.2-.15-.05-.8.3-1.55.3-2.5.05-1.1-.5-2.5h-.05m-18.05-13.9q.2.45.45.95-1.25-1.7-2.9-1.2-3.45.95-6.6 6.55-.75 1.2-1.3 2.45-.4.95-.7 1.15-.05-.1 0-.3.55-4 1.45-6.25 1.25-3 3.75-4.8 1.15-.8 3.05-.45 2 .3 2.8 1.9m-6.45 9.65q.65-.75 2.1-.1.5.2 1.1.6-3.15 3.25-3.9 9.75-.15.95-.4 1.2-.05-.1-.05-.35-.55-4.65.55-9.55 0-.25.05-.4.05 0 .05.1.15-.9.5-1.25z"/><path fill="#FFF" d="M209.85 358.45q-1.45-.65-2.1.1-.35.35-.5 1.25 0-.1-.05-.1-.05.15-.05.4-1.1 4.9-.55 9.55 0 .25.05.35.25-.25.4-1.2.75-6.5 3.9-9.75-.6-.4-1.1-.6m4.8-8.6q-.25-.5-.45-.95-.8-1.6-2.8-1.9-1.9-.35-3.05.45-2.5 1.8-3.75 4.8-.9 2.25-1.45 6.25-.05.2 0 .3.3-.2.7-1.15.55-1.25 1.3-2.45 3.15-5.6 6.6-6.55 1.65-.5 2.9 1.2m16.55 10.9q.95 1.85 1.05 2.05h.05q.55 1.4.5 2.5 0 .95-.3 2.5-.15.65.05.8.05.05.1 0 .15-.1.3-.35 1.55-2.6 1.3-5.2-.25-1.45-.65-3.05l-.1-.4q-.2-.15-.45-.15-.65.1-1.85 1.3m2.25-13.55q0-.05-.05-.05-.4-.4-.95-.05-.6.35-1.35 1.4 1.65.3 2.75 3 .85 2.2.8 3.75-.05 1.2 0 1.5 0-.1.1-.25.35-.65.5-2.25.15-1.95-.15-3.2-.6-2.25-1.65-3.85m-.75-1q-.85-1-1.7-.95-.85.1-1.7 1.3-2.55 3.2-3.6 6.15-1.15 3.2-3.55 5.6-1.6 1.65-2.8 1.35l-.3-.1q-1.15-.4-1.8-2.25-1.95-5.5-2.85-6.75-1.35-1.9-3.55-.9-.35.15-.7.4 1.4.4 3.05 3.7 2.6 5.1 3.35 6.15l.1.1-.1.05-.4.25-.05-.15q-.9-1.8-1.9-2.55-1-.7-2.4-.7-1.65 0-3 .55.65 0 1.45.4 3.2 1.6 6.2 5.1.75.85 1.35 7.2.25 2.05.65 4.3t.65 2.75q.1.2.25 1.05.15-.4.6-.5.5-.15.8.35.05.05.15.05.1-.05.35-.2.2-.15.4-.15 0 .1.05.15 0-.1.05-.2.05-.35.15-.75.1-.55.2-1.45.1-.95.8-3.15.75-2.3 1.35-3.25 1.55-2.4 3.4-4.8 2.3-3 3.55-4.05 1.3-1.15 1.85-1.1.2 0 .35.15-.35-1.25-.6-1.7-.7-1.2-1.45-.95-.5.15-2 1.45-1.3 1.1-2.8 3.2-1.55 2.1-2.4 4.2l-.2.45-.15-.05.1-.45v-.05q.15-.65.6-2 1.9-6.2 3.05-9.15 1.35-3.6 3.1-6.15 1.2-1.65 2-1.7.15-.05.3 0l-.25-.25z"/></g><path fill="#EE333E" d="M160.9 465.5h259.15V321.55H160.9V465.5z" id="b"/><path fill="#165B9E" d="M160.9 321.55v72h119.2v-72H160.9z" id="c"/><path fill="#FFF" d="M205.15 342.45q-1.3 1.4-2.35 2.95l2.75 2.2q-1.15 1.7-1.85 3.75l-3.4-.8q-.5 1.5-.85 3.7l3.4.75q-.2 2.15 0 4.25l-3.4.75q.25 1.9.8 3.7l3.4-.8q.85 2.25 1.85 3.8l-2.75 2.15q1 1.6 2.35 2.95l2.7-2.15q1.8 1.7 3.3 2.65l-1.55 3.1q1.75 1.05 3.4 1.65l1.55-3.15q1.95.7 4.1.95l-.05 3.5q1.3.1 1.95.1.65 0 1.85-.1v-3.5q2.15-.25 4.1-.9l1.5 3.15q2.1-.8 3.4-1.65l-1.5-3.1q1.95-1.3 3.3-2.65l2.7 2.2q1.45-1.55 2.35-2.95l-2.7-2.15q1.1-1.8 1.85-3.8l3.35.8q.65-1.95.85-3.7l-3.4-.75q.3-2.05.05-4.2l3.4-.8q-.35-2.2-.85-3.65l-3.4.75q-.65-1.95-1.8-3.8l2.75-2.15q-.85-1.25-2.35-2.95l-2.75 2.15q-1.6-1.6-3.3-2.6l1.55-3.15q-1.55-.95-3.4-1.65l-1.5 3.15q-1.9-.7-4.1-.95V336q-1.85-.15-3.75 0v3.5q-2.1.2-4.15.9l-1.45-3.15q-1.6.6-3.45 1.65l1.55 3.15q-1.95 1.15-3.3 2.6l-2.75-2.2m22.6 7.5q3 3 3 7.25 0 4.3-3 7.45-3.05 3.2-7.25 3.2t-7.25-3.2q-3-3.15-3-7.45 0-4.25 3-7.25t7.25-3q4.25 0 7.25 3z" id="d"/><path fill="#FFF" d="M217.9 333.5l2.6-1.9 2.55 1.9-1-3.05 2.6-1.85h-3.2l-.95-3.05-1 3h-3.2l2.6 1.9-1 3.05z" id="e"/><path fill="#FFF" d="M208.65 328.25l-1 3h-3.2l2.6 1.9-1 3.05 2.6-1.9 2.55 1.9-.95-3.05 2.6-1.85h-3.2l-1-3.05z" id="f"/><path fill="#FFF" d="M199.15 335.8l-.95 3h-3.25l2.65 1.9-1 3.05 2.55-1.9 2.6 1.9-1-3.05 2.6-1.85h-3.2l-1-3.05z" id="g"/><path fill="#FFF" d="M193.9 346.75l-.95 3.05h-3.2l2.6 1.9-1 3.05 2.55-1.9 2.6 1.9-1-3.1 2.6-1.85h-3.2l-1-3.05z" id="h"/><path fill="#FFF" d="M189.75 361.9l2.6 1.85-1 3.05 2.6-1.9 2.55 1.9-1-3.05 2.6-1.85h-3.2l-.95-3.05-1 3.05h-3.2z" id="i"/><path fill="#FFF" d="M198.25 372.85H195l2.65 1.9-1.05 3 2.6-1.9 2.6 1.9-1-3.05 2.6-1.85h-3.2l-1-3.05-.95 3.05z" id="j"/><path fill="#FFF" d="M208.7 377.35l-1 3.05h-3.2l2.6 1.85-1 3.05 2.6-1.9 2.6 1.9-1-3.05 2.6-1.85h-3.2l-1-3.05z" id="k"/><path fill="#FFF" d="M221.55 383.1l-1-3.05-1 3.05h-3.2l2.6 1.85-1 3.05 2.6-1.9 2.55 1.9-.95-3.05 2.6-1.85h-3.2z" id="l"/><path fill="#FFF" d="M233.95 382.25l2.6-1.85h-3.2l-1-3.05-.95 3.05h-3.25l2.6 1.85-1 3.05 2.6-1.9 2.6 1.9-1-3.05z" id="m"/><path fill="#FFF" d="M240.85 372.8h-3.2l2.6 1.9-1 3 2.6-1.85 2.55 1.85-.95-3.05 2.55-1.85h-3.2l-.95-3.05-1 3.05z" id="n"/><path fill="#FFF" d="M247.1 358.85l-1 3h-3.2l2.6 1.9-1 3.05 2.6-1.9 2.55 1.9-1-3.1 2.6-1.85h-3.2l-.95-3z" id="o"/><path fill="#FFF" d="M247.1 346.7l-1 3.05h-3.2l2.6 1.85-1 3.05 2.6-1.9 2.55 1.9-1-3.05 2.6-1.85h-3.2l-.95-3.05z" id="p"/><path fill="#FFF" d="M241.8 335.8l-.95 3h-3.25l2.6 1.9-1 3.05 2.6-1.9 2.6 1.9-1-3.1 2.6-1.85h-3.2l-1-3z" id="q"/><path fill="#FFF" d="M233.9 333.15l2.6-1.85h-3.2l-1-3.05-.95 3h-3.25l2.65 1.9-1 3.05 2.55-1.9 2.6 1.9-1-3.05z" id="r"/><g id="s"><path fill="#165B9E" d="M219.45 369.65q-.314-1.144-.8-1.65-.523-.495-1.2-.3-1.314.494-.7 2.65.765 2.577 2.05 2.15 1.411-.333.65-2.85m-1.9-1.7q.523-.155.9.25.464.444.75 1.5.69 2.233-.45 2.55-1.064.324-1.75-1.95-.536-1.894.55-2.35z"/><path fill="#FFF" d="M218.45 368.2q-.377-.405-.9-.25-1.086.456-.55 2.35.686 2.274 1.75 1.95 1.14-.317.45-2.55-.286-1.056-.75-1.5z"/></g><g id="t"><path fill="#165B9E" d="M218.55 341.3q-1.652.487-1 3.25.811 3.172 2.45 2.75 1.654-.382.9-3.5-.333-1.438-.9-2.05-.602-.666-1.45-.45m-.75 3.2q-.598-2.487.8-2.95.703-.184 1.2.35.533.587.85 1.95.696 2.833-.7 3.2-1.411.329-2.15-2.55z"/><path fill="#FFF" d="M218.6 341.55q-1.398.463-.8 2.95.739 2.879 2.15 2.55 1.396-.367.7-3.2-.317-1.363-.85-1.95-.497-.534-1.2-.35z"/></g><g id="u"><path fill="#165B9E" d="M220.9 348.8q-.397-.604-1.15-.55-1.34.216-1.15 2.5.285 2.616 1.65 2.45 1.438-.12 1.15-2.65-.08-1.193-.5-1.75m.25 1.75q.252 2.249-.9 2.4h-.05q-1.088.06-1.35-2.25-.153-1.968.95-2.2.597-.046.9.4.38.543.45 1.65z"/><path fill="#FFF" d="M221.15 350.55q-.07-1.107-.45-1.65-.303-.446-.9-.4-1.103.232-.95 2.2.262 2.31 1.35 2.25h.05q1.152-.151.9-2.4z"/></g><g id="v"><path fill="#165B9E" d="M218.25 345.35q-.407-.547-1.05-.4-1.2.28-.8 2.5.505 2.572 1.75 2.3.647-.08.8-.8.201-.66-.05-1.9-.214-1.162-.65-1.7m-1-.15q.507-.103.85.3.364.511.55 1.6.249 1.16.1 1.75-.147.58-.65.65-1.005.18-1.45-2.1-.35-1.93.6-2.2z"/><path fill="#FFF" d="M218.1 345.5q-.343-.403-.85-.3-.95.27-.6 2.2.445 2.28 1.45 2.1.503-.07.65-.65.149-.59-.1-1.75-.186-1.089-.55-1.6z"/></g><g id="w"><path fill="#165B9E" d="M223.05 350.9q.208-1.272-.05-1.95-.236-.726-.95-.8-1.364-.115-1.65 2.35-.157 1.396.05 2.1.274.802.95.85 1.352.221 1.65-2.55m-.3-1.85q.242.622.05 1.8-.253 2.48-1.35 2.35-.524-.052-.75-.7-.193-.646-.05-1.95.264-2.186 1.4-2.15.536.076.7.65z"/><path fill="#FFF" d="M222.8 350.85q.192-1.178-.05-1.8-.164-.574-.7-.65-1.136-.036-1.4 2.15-.143 1.304.05 1.95.226.648.75.7 1.097.13 1.35-2.35z"/></g><g id="x"><path fill="#165B9E" d="M221.25 348.25q-.08-1.193-.5-1.75-.397-.604-1.15-.55-1.34.216-1.15 2.5.285 2.616 1.65 2.45 1.438-.12 1.15-2.65m-.25 0q.252 2.249-.9 2.4h-.05q-1.088.06-1.35-2.25-.153-1.968.95-2.2.597-.046.9.4.38.543.45 1.65z"/><path fill="#FFF" d="M221 348.25q-.07-1.107-.45-1.65-.303-.446-.9-.4-1.103.232-.95 2.2.262 2.31 1.35 2.25h.05q1.152-.151.9-2.4z"/></g><g id="y"><path fill="#165B9E" d="M216.65 355.3q.285 2.665 1.7 2.5 1.388-.12 1.1-2.7-.08-1.193-.5-1.75-.397-.604-1.15-.55-1.34.216-1.15 2.5m1.2-2.25q.597-.046.9.4.38.543.45 1.65.255 2.322-.9 2.45-1.138.073-1.4-2.25-.16-2.017.95-2.25z"/><path fill="#FFF" d="M218.75 353.45q-.303-.446-.9-.4-1.11.233-.95 2.25.262 2.323 1.4 2.25 1.155-.128.9-2.45-.07-1.107-.45-1.65z"/></g><g id="z"><path fill="#165B9E" d="M217.4 337.65q-1.386-2-2.4-1.25-.504.363-.45 1.05.082.64.7 1.55 1.433 2.25 2.45 1.5.559-.331.45-1.1-.084-.664-.75-1.75m-2.6-.25q-.046-.513.35-.8.835-.552 2.05 1.2.634 1.014.7 1.65.091.581-.35.85-.833.551-2.1-1.45-.582-.84-.65-1.45z"/><path fill="#FFF" d="M215.15 336.6q-.396.287-.35.8.068.61.65 1.45 1.267 2.001 2.1 1.45.441-.269.35-.85-.066-.636-.7-1.65-1.215-1.752-2.05-1.2z"/></g><g id="A"><path fill="#165B9E" d="M215 340.5q-.043.688.45 1.7 1.157 2.393 2.4 1.75.65-.283.65-1.05.03-.713-.55-1.85-1.108-2.236-2.3-1.55-.609.325-.65 1m.65 1.6q-.457-.938-.45-1.55.059-.575.55-.85 1.008-.515 2 1.45.533 1.063.5 1.7.012.633-.5.85-1.057.508-2.1-1.6z"/><path fill="#FFF" d="M215.2 340.55q-.007.612.45 1.55 1.043 2.108 2.1 1.6.512-.217.5-.85.033-.637-.5-1.7-.992-1.965-2-1.45-.491.275-.55.85z"/></g><g id="B"><path fill="#165B9E" d="M220.15 339.65q-.61-2.578-1.9-2.25-1.302.385-.75 2.8.66 2.773 1.95 2.45 1.355-.28.7-3m-1.85-2q1.06-.223 1.6 2.05.595 2.43-.5 2.7-1.06.228-1.65-2.25-.499-2.136.55-2.5z"/><path fill="#FFF" d="M219.9 339.7q-.54-2.273-1.6-2.05-1.049.364-.55 2.5.59 2.478 1.65 2.25 1.095-.27.5-2.7z"/></g><g id="C"><path fill="#165B9E" d="M217.65 342.55q-1.355.386-.8 2.6.66 2.625 2 2.25 1.357-.28.7-2.85-.264-1.137-.75-1.65-.459-.515-1.15-.35m-.55 2.55q-.495-1.936.6-2.3.559-.135.95.25.414.488.65 1.55.593 2.28-.5 2.55-1.11.277-1.7-2.05z"/><path fill="#FFF" d="M217.7 342.8q-1.095.364-.6 2.3.59 2.327 1.7 2.05 1.093-.27.5-2.55-.236-1.063-.65-1.55-.391-.385-.95-.25z"/></g><g id="D"><path fill="#165B9E" d="M221.8 343.4q-.005-1.217-.35-1.8-.356-.632-1.05-.6-1.426.056-1.4 2.4.056 1.291.4 1.9.356.708 1.05.65 1.426-.004 1.35-2.55m-.55-1.7q.305.567.3 1.7.074 2.255-1.1 2.3-.556.041-.85-.5-.306-.591-.35-1.8-.024-2.056 1.15-2.15.556-.018.85.45z"/><path fill="#FFF" d="M221.55 343.4q.005-1.133-.3-1.7-.294-.468-.85-.45-1.174.094-1.15 2.15.044 1.209.35 1.8.294.541.85.5 1.174-.045 1.1-2.3z"/></g><g id="E"><path fill="#165B9E" d="M222.05 343.75q-1.346-.164-1.75 2.1-.401 2.627.95 2.8 1.397.27 1.8-2.3.21-1.166-.05-1.8-.226-.69-.95-.8m-1.5 2.15q.346-1.987 1.45-1.9.575.089.75.6.24.616.05 1.7-.347 2.28-1.5 2.1-1.1-.176-.75-2.5z"/><path fill="#FFF" d="M222 344q-1.104-.087-1.45 1.9-.35 2.324.75 2.5 1.153.18 1.5-2.1.19-1.084-.05-1.7-.175-.511-.75-.6z"/></g><g id="F"><path fill="#165B9E" d="M219.8 350.95q-.207-1.168-.65-1.7-.476-.569-1.2-.45-1.297.334-.9 2.6.257 1.286.7 1.85.475.616 1.15.45.726-.091.95-.85.209-.641-.05-1.9m-.85-1.55q.407.518.6 1.6.241 1.191.05 1.8-.176.591-.75.65-.525.134-.9-.35-.408-.536-.65-1.75-.353-1.984.7-2.3.576-.081.95.35z"/><path fill="#FFF" d="M219.55 351q-.193-1.082-.6-1.6-.374-.431-.95-.35-1.053.316-.7 2.3.242 1.214.65 1.75.375.484.9.35.574-.059.75-.65.191-.609-.05-1.8z"/></g><g id="G"><path fill="#165B9E" d="M221.25 352.65q-.297-.677-1-.7-1.319.002-1.45 2.5-.078 2.848 1.25 2.85 1.372.103 1.45-2.7.076-1.285-.25-1.95m-.2.1q.274.635.2 1.85-.072 2.497-1.2 2.45-1.072-.047-1-2.6.119-2.203 1.2-2.25.547.027.8.55z"/><path fill="#FFF" d="M221.25 354.6q.074-1.215-.2-1.85-.253-.523-.8-.55-1.081.047-1.2 2.25-.072 2.553 1 2.6 1.128.047 1.2-2.45z"/></g><g id="H"><path fill="#165B9E" d="M223.05 355.5q.384-1.233.25-1.95-.142-.737-.85-.9-1.284-.266-2 2.1-.333 1.357-.2 2.1.144.812.8.95 1.287.43 2-2.3m0-1.9q.116.683-.25 1.85-.638 2.42-1.7 2.1-.494-.112-.6-.75-.117-.707.2-2 .634-2.084 1.7-1.9.542.137.65.7z"/><path fill="#FFF" d="M222.8 355.45q.366-1.167.25-1.85-.108-.563-.65-.7-1.066-.184-1.7 1.9-.317 1.293-.2 2 .106.638.6.75 1.062.32 1.7-2.1z"/></g><g id="I"><path fill="#165B9E" d="M218.8 358.5q-.264-1.169-.75-1.7-.459-.523-1.15-.35-1.351.386-.85 2.65.308 1.262.75 1.8.527.59 1.2.4 1.405-.28.8-2.8m-.9-1.5q.414.469.65 1.55.545 2.231-.6 2.5-.527.16-.95-.3-.408-.512-.7-1.7-.449-1.987.65-2.35.558-.127.95.3z"/><path fill="#FFF" d="M218.55 358.55q-.236-1.081-.65-1.55-.392-.427-.95-.3-1.099.363-.65 2.35.292 1.188.7 1.7.423.46.95.3 1.145-.269.6-2.5z"/></g><g id="J"><path fill="#165B9E" d="M220.8 357.3q-.323-.704-1.1-.75-1.57.005-1.7 2.6-.051 1.41.25 2.1.372.8 1.15.8.773.088 1.2-.65.4-.652.45-2.05.102-1.341-.25-2.05m-1.1-.5q.623.053.9.65.298.641.2 1.9-.05 1.302-.45 1.9-.324.612-.95.55-.622 0-.9-.65-.299-.66-.25-2 .119-2.306 1.45-2.35z"/><path fill="#FFF" d="M220.6 357.45q-.277-.597-.9-.65-1.331.044-1.45 2.35-.049 1.34.25 2 .278.65.9.65.626.062.95-.55.4-.598.45-1.9.098-1.259-.2-1.9z"/></g><g id="K"><path fill="#165B9E" d="M222.85 359.5q.233-1.265 0-1.95-.198-.745-.9-.85-1.295-.166-1.75 2.3-.399 2.827.9 3 1.346.218 1.75-2.5m-.95-2.55q.548.095.7.65.217.665 0 1.85-.347 2.433-1.45 2.3-1.051-.176-.7-2.7.395-2.185 1.45-2.1z"/><path fill="#FFF" d="M222.6 357.6q-.152-.555-.7-.65-1.055-.085-1.45 2.1-.351 2.524.7 2.7 1.103.133 1.45-2.3.217-1.185 0-1.85z"/></g><g id="L"><path fill="#165B9E" d="M221.25 361.8q-1.295-.166-1.75 2.25-.2 1.39 0 2.1.204.82.85.9 1.399.272 1.8-2.5.259-1.234.05-1.9-.222-.737-.95-.85m-.05.25q.572.087.75.65.191.634-.05 1.8-.349 2.478-1.5 2.3-.504-.07-.7-.7-.15-.69.05-2 .395-2.135 1.45-2.05z"/><path fill="#FFF" d="M221.95 362.7q-.178-.563-.75-.65-1.055-.085-1.45 2.05-.2 1.31-.05 2 .196.63.7.7 1.151.178 1.5-2.3.241-1.166.05-1.8z"/></g><g id="M"><path fill="#165B9E" d="M219.2 362.7q-.03-1.199-.4-1.8-.383-.585-1.1-.55-1.377.11-1.3 2.4.129 2.652 1.55 2.55 1.376-.057 1.25-2.6m-.6-1.65q.33.55.35 1.65.124 2.258-1 2.35-1.179.049-1.3-2.3-.073-2.01 1.05-2.15.583-.015.9.45z"/><path fill="#FFF" d="M218.95 362.7q-.02-1.1-.35-1.65-.317-.465-.9-.45-1.123.14-1.05 2.15.121 2.349 1.3 2.3 1.124-.092 1-2.35z"/></g><g id="N"><path fill="#165B9E" d="M221.2 361.35q-.271-.697-.95-.75-1.366.004-1.55 2.5-.056 1.378.2 2.05.34.798 1.05.8 1.319.103 1.45-2.65.1-1.278-.2-1.95m-2.25 1.75q.166-2.205 1.3-2.25.52.046.75.6.25.628.15 1.85-.119 2.448-1.2 2.4-.54.002-.8-.6-.244-.678-.2-2z"/><path fill="#FFF" d="M220.25 360.85q-1.134.045-1.3 2.25-.044 1.322.2 2 .26.602.8.6 1.081.048 1.2-2.4.1-1.222-.15-1.85-.23-.554-.75-.6z"/></g><g id="O"><path fill="#165B9E" d="M217.55 364.3q-.408-.474-1-.35-1.06.337-.65 2.3.558 2.33 1.6 2 .597-.088.75-.75.152-.592-.1-1.7-.214-1.018-.6-1.5m-.9-.1q.417-.066.7.3.364.418.55 1.35.248 1.042.1 1.6-.097.488-.55.55-.808.222-1.3-1.8-.341-1.688.5-2z"/><path fill="#FFF" d="M217.35 364.5q-.283-.366-.7-.3-.841.312-.5 2 .492 2.022 1.3 1.8.453-.062.55-.55.148-.558-.1-1.6-.186-.932-.55-1.35z"/></g><g id="P"><path fill="#165B9E" d="M223.45 364.7q.429-.982.35-1.55-.006-.646-.55-.85-1.06-.385-1.9 1.5-.383 1.03-.35 1.65.029.693.55.9 1.009.439 1.9-1.65m.15-1.55q.021.532-.4 1.45-.76 1.813-1.55 1.5-.38-.143-.4-.65-.017-.581.35-1.55.71-1.616 1.55-1.35.406.146.45.6z"/><path fill="#FFF" d="M223.2 364.6q.421-.918.4-1.45-.044-.454-.45-.6-.84-.266-1.55 1.35-.367.969-.35 1.55.02.507.4.65.79.313 1.55-1.5z"/></g><g id="Q"><path fill="#165B9E" d="M218.1 369.15q.492.632 1.2.5 1.402-.173.95-2.75-.156-1.168-.6-1.7-.424-.57-1.15-.45-1.347.28-1 2.55.2 1.28.6 1.85m1.15.25q-.543.118-.9-.4-.4-.53-.6-1.75-.303-1.98.8-2.25.574-.08.9.35.406.519.55 1.6.399 2.274-.75 2.45z"/><path fill="#FFF" d="M218.35 369q.357.518.9.4 1.149-.176.75-2.45-.144-1.081-.55-1.6-.326-.43-.9-.35-1.103.27-.8 2.25.2 1.22.6 1.75z"/></g><g id="R"><path fill="#165B9E" d="M222.05 366.6q-.317-.707-1-.7-1.372.055-1.4 2.55.025 2.851 1.4 2.8 1.325.051 1.3-2.7.031-1.31-.3-1.95m.05 1.95q.025 2.45-1.05 2.45-1.125 0-1.15-2.55.022-2.206 1.15-2.3.517.006.75.55.319.61.3 1.85z"/><path fill="#FFF" d="M221.05 371q1.075 0 1.05-2.45.019-1.24-.3-1.85-.233-.544-.75-.55-1.128.094-1.15 2.3.025 2.55 1.15 2.55z"/></g><g id="S"><path fill="#165B9E" d="M221.15 375.3q.617-.173.65-1.05.1-.744-.35-2.1-.828-2.684-2.05-2.25-1.216.504-.45 3 .982 2.84 2.2 2.4m.05-3.05q.45 1.294.4 2-.067.673-.55.8-.981.311-1.85-2.25-.684-2.205.3-2.65.978-.305 1.7 2.1z"/><path fill="#FFF" d="M221.6 374.25q.05-.706-.4-2-.722-2.405-1.7-2.1-.984.445-.3 2.65.869 2.561 1.85 2.25.483-.127.55-.8z"/></g><g id="T"><path fill="#165B9E" d="M220 372.6q-.494-.51-1.1-.3-1.219.506-.5 2.7.882 2.49 2.1 2.05 1.224-.401.35-2.85-.36-1.136-.85-1.6m-1-.05q.444-.141.8.25.46.436.8 1.5.776 2.152-.2 2.5-.982.312-1.75-1.9-.631-1.907.35-2.35z"/><path fill="#FFF" d="M219.8 372.8q-.356-.391-.8-.25-.981.443-.35 2.35.768 2.212 1.75 1.9.976-.348.2-2.5-.34-1.064-.8-1.5z"/></g><g id="U"><path fill="#165B9E" d="M226.75 342.95q-1.246.226-.95 2.5.348 2.621 1.6 2.4 1.297-.12.95-2.7-.152-1.16-.55-1.7-.393-.595-1.05-.5m-.7 2.45q-.254-1.977.75-2.2.492-.055.8.4.352.51.5 1.6.303 2.272-.75 2.4-.998.13-1.3-2.2z"/><path fill="#FFF" d="M226.8 343.2q-1.004.223-.75 2.2.302 2.33 1.3 2.2 1.053-.128.75-2.4-.148-1.09-.5-1.6-.308-.455-.8-.4z"/></g><g id="V"><path fill="#165B9E" d="M226.5 345.15q-.492-.506-1.1-.3-1.215.387-.65 2.6.777 2.58 2 2.15h-.05q.675-.147.8-.9.128-.674-.25-1.9-.309-1.143-.75-1.65m-1-.05q.442-.144.8.25.409.443.7 1.5.372 1.174.25 1.8-.075.597-.6.7-.976.32-1.65-1.95-.485-1.938.5-2.3z"/><path fill="#FFF" d="M226.3 345.35q-.358-.394-.8-.25-.985.362-.5 2.3.674 2.27 1.65 1.95.525-.103.6-.7.122-.626-.25-1.8-.291-1.057-.7-1.5z"/></g><g id="W"><path fill="#165B9E" d="M227.45 350.65q1.29.323 1.85-2.2.302-1.158.15-1.8-.15-.713-.8-.85-1.24-.272-1.8 2-.605 2.569.6 2.85m1.6-2.25q-.49 2.228-1.55 2-.945-.268-.4-2.55.49-1.979 1.5-1.8.5.113.6.65.148.608-.15 1.7z"/><path fill="#FFF" d="M227.5 350.4q1.06.228 1.55-2 .298-1.092.15-1.7-.1-.537-.6-.65-1.01-.179-1.5 1.8-.545 2.282.4 2.55z"/></g><g id="X"><path fill="#165B9E" d="M227.25 351.25q.232-2.445-1.05-2.55-1.264-.049-1.5 2.25-.107 1.283.1 1.95.287.729.95.75 1.265.167 1.5-2.4m-1.05-2.3q1.012.143.8 2.25v.05q-.22 2.233-1.25 2.15-.488-.029-.7-.6-.193-.621-.1-1.85.214-2.002 1.25-2z"/><path fill="#FFF" d="M227 351.2q.212-2.107-.8-2.25-1.036-.002-1.25 2-.093 1.229.1 1.85.212.571.7.6 1.03.083 1.25-2.15v-.05z"/></g><g id="Y"><path fill="#165B9E" d="M229.3 352.45q.178-1.173-.1-1.8-.245-.672-.95-.75-1.413-.111-1.7 2.15-.298 2.63 1.05 2.75.759.105 1.2-.55.4-.545.5-1.8m-.3-1.7q.222.572.05 1.65-.1 1.195-.5 1.75-.309.495-.9.4-1.102-.129-.85-2.45.263-1.99 1.45-1.95.545.072.75.6z"/><path fill="#FFF" d="M229.05 352.4q.172-1.078-.05-1.65-.205-.528-.75-.6-1.187-.04-1.45 1.95-.252 2.321.85 2.45.591.095.9-.4.4-.555.5-1.75z"/></g><g id="Z"><path fill="#165B9E" d="M227 356.8q-.444.513-.7 1.6-.504 2.623.8 2.85.692.193 1.15-.4.486-.539.75-1.8.279-1.16.05-1.8-.18-.708-.9-.85-.674-.109-1.15.4m-.45 1.65q.243-1.012.65-1.5.374-.391.9-.3.58.107.75.65.171.61-.1 1.7-.236 1.189-.65 1.7-.392.457-.95.3-1.047-.222-.6-2.55z"/><path fill="#FFF" d="M227.2 356.95q-.407.488-.65 1.5-.447 2.328.6 2.55.558.157.95-.3.414-.511.65-1.7.271-1.09.1-1.7-.17-.543-.75-.65-.526-.091-.9.3z"/></g><g id="aa"><path fill="#165B9E" d="M227 355.7q.36-1.14.2-1.8-.171-.71-.9-.9-1.336-.318-2 1.9-.657 2.566.65 2.9 1.335.426 2.05-2.1m-.05-1.75q.14.64-.2 1.7-.635 2.225-1.75 1.9-1.044-.316-.45-2.6.586-1.932 1.7-1.7.571.16.7.7z"/><path fill="#FFF" d="M226.75 355.65q.34-1.06.2-1.7-.129-.54-.7-.7-1.114-.232-1.7 1.7-.594 2.284.45 2.6 1.115.325 1.75-1.9z"/></g><g id="ab"><path fill="#165B9E" d="M226.45 355.7q-.401 2.627.95 2.8 1.397.27 1.8-2.3.21-1.166-.05-1.8-.226-.69-.95-.8-1.346-.164-1.75 2.1m1 2.55q-1.1-.176-.75-2.5.346-1.987 1.45-1.9.575.089.75.6.24.616.05 1.7-.347 2.28-1.5 2.1z"/><path fill="#FFF" d="M226.7 355.75q-.35 2.324.75 2.5 1.153.18 1.5-2.1.19-1.084-.05-1.7-.175-.511-.75-.6-1.104-.087-1.45 1.9z"/></g><g id="ac"><path fill="#165B9E" d="M226 357.6q-.23-.69-.95-.8-1.345-.217-1.8 2.05-.451 2.623.9 2.85 1.394.269 1.85-2.3.228-1.166 0-1.8m-1-.55q.58.09.75.6.222.616 0 1.7-.394 2.282-1.55 2.1-1.1-.222-.7-2.55.395-1.984 1.5-1.85z"/><path fill="#FFF" d="M225.75 357.65q-.17-.51-.75-.6-1.105-.134-1.5 1.85-.4 2.328.7 2.55 1.156.182 1.55-2.1.222-1.084 0-1.7z"/></g><g id="ad"><path fill="#165B9E" d="M228 357.8q-.063-.725-.75-1-1.313-.432-2.2 1.7-.454 1.181-.4 1.9.088.788.75 1.05 1.313.539 2.25-1.85.481-1.12.35-1.8m-.85-.75q.563.225.65.8.069.62-.4 1.65-.813 2.112-1.9 1.7-.538-.188-.6-.8-.046-.682.4-1.8.763-1.869 1.85-1.55z"/><path fill="#FFF" d="M227.8 357.85q-.088-.575-.65-.8-1.087-.319-1.85 1.55-.446 1.118-.4 1.8.062.612.6.8 1.087.412 1.9-1.7.469-1.03.4-1.65z"/></g><g id="ae"><path fill="#165B9E" d="M227.3 363.7q-.028-.699-.65-.95-1.212-.382-2.1 1.75-.453 1.188-.4 1.9.035.774.65 1 1.215.49 2.1-1.9.485-1.113.4-1.8m-2.5.9q.762-1.87 1.75-1.6.478.198.5.75.065.613-.4 1.65-.765 2.11-1.75 1.75-.485-.174-.55-.8.003-.638.45-1.75z"/><path fill="#FFF" d="M226.55 363q-.988-.27-1.75 1.6-.447 1.112-.45 1.75.065.626.55.8.985.36 1.75-1.75.465-1.037.4-1.65-.022-.552-.5-.75z"/></g><g id="af"><path fill="#165B9E" d="M228.35 362.15q.549-1.087.5-1.8-.006-.716-.65-1.05-1.24-.532-2.3 1.5-.572 1.156-.6 1.85.028.801.65 1.1 1.189.683 2.4-1.6m.25-1.75q.051.637-.45 1.65-1.09 2.018-2.1 1.5-.478-.251-.5-.9.022-.656.55-1.75.94-1.769 2-1.35.506.266.5.85z"/><path fill="#FFF" d="M228.15 362.05q.501-1.013.45-1.65.006-.584-.5-.85-1.06-.419-2 1.35-.528 1.094-.55 1.75.022.649.5.9 1.01.518 2.1-1.5z"/></g><g id="ag"><path fill="#165B9E" d="M225.1 359.25q-1.316-.435-2.15 1.75-.404 1.22-.3 1.95.088.778.75 1 1.264.488 2.15-1.9.436-1.145.3-1.85-.082-.702-.75-.95m.5 1q.114.645-.3 1.7-.765 2.113-1.8 1.75-.538-.178-.65-.8-.046-.67.35-1.8.716-1.915 1.8-1.6.532.202.6.75z"/><path fill="#FFF" d="M225.3 361.95q.414-1.055.3-1.7-.068-.548-.6-.75-1.084-.315-1.8 1.6-.396 1.13-.35 1.8.112.622.65.8 1.035.363 1.8-1.75z"/></g><g id="ah"><path fill="#165B9E" d="M225.6 362q-1.212-.382-2.1 1.75-.434 1.188-.4 1.9.08.773.7 1 1.162.491 2.1-1.9.454-1.113.35-1.8-.036-.698-.65-.95m-.1.25q.486.198.55.75.046.613-.4 1.65-.813 2.11-1.75 1.75-.48-.173-.55-.8-.016-.638.4-1.75.762-1.87 1.75-1.6z"/><path fill="#FFF" d="M226.05 363q-.064-.552-.55-.75-.988-.27-1.75 1.6-.416 1.112-.4 1.75.07.627.55.8.937.36 1.75-1.75.446-1.037.4-1.65z"/></g><g id="ai"><path fill="#165B9E" d="M224.2 366.8q.284-1.09.1-1.7-.146-.666-.8-.8-1.14-.164-1.65 1.95-.226 1.208-.1 1.85.176.714.75.8 1.192.327 1.7-2.1m-.15-1.65q.166.59-.1 1.6-.443 2.124-1.4 1.9-.426-.064-.55-.6-.124-.608.1-1.75.44-1.837 1.35-1.75.496.116.6.6z"/><path fill="#FFF" d="M223.95 366.75q.266-1.01.1-1.6-.104-.484-.6-.6-.91-.087-1.35 1.75-.224 1.142-.1 1.75.124.536.55.6.957.224 1.4-1.9z"/></g><g id="aj"><path fill="#165B9E" d="M226.15 366.6q-.028-.623-.6-.85-1.06-.387-1.9 1.55-.378 1.038-.35 1.65.058.676.6.85 1.01.495 1.9-1.6.436-.988.35-1.6m-.25.05q.064.538-.35 1.45-.76 1.806-1.55 1.45-.408-.126-.45-.65-.022-.538.35-1.5.711-1.664 1.55-1.4.428.173.45.65z"/><path fill="#FFF" d="M225.55 368.1q.414-.912.35-1.45-.022-.477-.45-.65-.839-.264-1.55 1.4-.372.962-.35 1.5.042.524.45.65.79.356 1.55-1.45z"/></g><g id="ak"><path fill="#165B9E" d="M224.15 371q.384-1.233.25-1.95-.142-.737-.85-.9-1.285-.321-2 2.05-.352 1.35-.25 2.1.15.829.8 1 1.337.429 2.05-2.3m0-1.9q.116.683-.25 1.85-.638 2.422-1.75 2.1-.5-.129-.6-.8-.098-.7.25-2 .635-2.08 1.7-1.85.542.137.65.7z"/><path fill="#FFF" d="M223.9 370.95q.366-1.167.25-1.85-.108-.563-.65-.7-1.065-.23-1.7 1.85-.348 1.3-.25 2 .1.671.6.8 1.112.322 1.75-2.1z"/></g><g id="al"><path fill="#165B9E" d="M222.05 372.35q-1.25-.145-1.65 2.1-.4 2.626.85 2.8 1.246.219 1.65-2.35.227-1.16 0-1.8-.186-.652-.85-.75m-.75 4.65q-1-.175-.65-2.5.346-1.984 1.35-1.9h.05q.49.065.65.55.173.609-.05 1.7-.346 2.282-1.35 2.15z"/><path fill="#FFF" d="M220.65 374.5q-.35 2.325.65 2.5 1.004.132 1.35-2.15.223-1.091.05-1.7-.16-.485-.65-.55H222q-1.004-.084-1.35 1.9z"/></g><g id="am"><path fill="#165B9E" d="M221.7 370.6q-.314-1.144-.8-1.65-.523-.495-1.2-.3-1.317.44-.7 2.65.384 1.262.85 1.75.567.594 1.25.35h-.05q1.412-.333.65-2.8m-1-1.45q.464.444.75 1.5.688 2.184-.45 2.5-.517.206-.95-.25-.434-.462-.8-1.65-.533-1.94.55-2.35.523-.155.9.25z"/><path fill="#FFF" d="M221.45 370.65q-.286-1.056-.75-1.5-.377-.405-.9-.25-1.083.41-.55 2.35.366 1.188.8 1.65.433.456.95.25 1.138-.316.45-2.5z"/></g><g id="an"><path fill="#165B9E" d="M216 359.75h-.05q-1.333.165-1.3 2.45.181 2.601 1.55 2.5 1.378-.003 1.25-2.6-.024-1.199-.4-1.8-.351-.587-1.05-.55m0 .25q.558-.002.85.45.324.549.35 1.65.121 2.303-1 2.35-1.132.05-1.3-2.25-.016-1.994 1.1-2.2z"/><path fill="#FFF" d="M216.85 360.45q-.292-.452-.85-.45-1.116.206-1.1 2.2.168 2.3 1.3 2.25 1.121-.047 1-2.35-.026-1.101-.35-1.65z"/></g></defs><use xlink:href="#a" transform="matrix(.77176 0 0 .72939 -124.15 -234.5)"/><use xlink:href="#b" transform="matrix(.77173 0 0 .72935 -124.15 -234.5)"/><use xlink:href="#c" transform="matrix(.77173 0 0 .72935 -124.15 -234.5)"/><use xlink:href="#d" transform="matrix(.77173 0 0 .72935 -124.15 -234.5)"/><use xlink:href="#e" transform="matrix(.7717 0 0 .72932 -124.15 -234.5)"/><use xlink:href="#f" transform="matrix(.7717 0 0 .72932 -124.15 -234.5)"/><use xlink:href="#g" transform="matrix(.7717 0 0 .72932 -124.15 -234.5)"/><use xlink:href="#h" transform="matrix(.7717 0 0 .72932 -124.15 -234.5)"/><use xlink:href="#i" transform="matrix(.7717 0 0 .72932 -124.15 -234.5)"/><use xlink:href="#j" transform="matrix(.7717 0 0 .72932 -124.15 -234.5)"/><use xlink:href="#k" transform="matrix(.7717 0 0 .72932 -124.15 -234.5)"/><use xlink:href="#l" transform="matrix(.7717 0 0 .72932 -124.15 -234.5)"/><use xlink:href="#m" transform="matrix(.7717 0 0 .72932 -124.15 -234.5)"/><use xlink:href="#n" transform="matrix(.7717 0 0 .72932 -124.15 -234.5)"/><use xlink:href="#o" transform="matrix(.7717 0 0 .72932 -124.15 -234.5)"/><use xlink:href="#p" transform="matrix(.7717 0 0 .72932 -124.15 -234.5)"/><use xlink:href="#q" transform="matrix(.7717 0 0 .72932 -124.15 -234.5)"/><use xlink:href="#r" transform="matrix(.7717 0 0 .72932 -124.15 -234.5)"/><use xlink:href="#s" transform="matrix(.77173 0 0 .72935 -124.15 -234.5)"/><use xlink:href="#t" transform="matrix(.77173 0 0 .72935 -124.15 -234.5)"/><use xlink:href="#u" transform="matrix(.77173 0 0 .72935 -124.15 -234.5)"/><use xlink:href="#v" transform="matrix(.77173 0 0 .72935 -124.15 -234.5)"/><use xlink:href="#w" transform="matrix(.77173 0 0 .72935 -124.15 -234.5)"/><use xlink:href="#x" transform="matrix(.77173 0 0 .72935 -124.15 -234.5)"/><use xlink:href="#y" transform="matrix(.77173 0 0 .72935 -124.15 -234.5)"/><use xlink:href="#z" transform="matrix(.77173 0 0 .72935 -124.15 -234.5)"/><use xlink:href="#A" transform="matrix(.77173 0 0 .72935 -124.15 -234.5)"/><use xlink:href="#B" transform="matrix(.77173 0 0 .72935 -124.15 -234.5)"/><use xlink:href="#C" transform="matrix(.77173 0 0 .72935 -124.15 -234.5)"/><use xlink:href="#D" transform="matrix(.77173 0 0 .72935 -124.15 -234.5)"/><use xlink:href="#E" transform="matrix(.77173 0 0 .72935 -124.15 -234.5)"/><use xlink:href="#F" transform="matrix(.77173 0 0 .72935 -124.15 -234.5)"/><use xlink:href="#G" transform="matrix(.77173 0 0 .72935 -124.15 -234.5)"/><use xlink:href="#H" transform="matrix(.77173 0 0 .72935 -124.15 -234.5)"/><use xlink:href="#I" transform="matrix(.77173 0 0 .72935 -124.15 -234.5)"/><use xlink:href="#J" transform="matrix(.77173 0 0 .72935 -124.15 -234.5)"/><use xlink:href="#K" transform="matrix(.77173 0 0 .72935 -124.15 -234.5)"/><use xlink:href="#L" transform="matrix(.77173 0 0 .72935 -124.15 -234.5)"/><use xlink:href="#M" transform="matrix(.77173 0 0 .72935 -124.15 -234.5)"/><use xlink:href="#N" transform="matrix(.77173 0 0 .72935 -124.15 -234.5)"/><use xlink:href="#O" transform="matrix(.77173 0 0 .72935 -124.15 -234.5)"/><use xlink:href="#P" transform="matrix(.77173 0 0 .72935 -124.15 -234.5)"/><use xlink:href="#Q" transform="matrix(.77173 0 0 .72935 -124.15 -234.5)"/><use xlink:href="#R" transform="matrix(.77173 0 0 .72935 -124.15 -234.5)"/><use xlink:href="#S" transform="matrix(.77173 0 0 .72935 -124.15 -234.5)"/><use xlink:href="#T" transform="matrix(.77173 0 0 .72935 -124.15 -234.5)"/><use xlink:href="#U" transform="matrix(.77173 0 0 .72935 -124.15 -234.5)"/><use xlink:href="#V" transform="matrix(.77173 0 0 .72935 -124.15 -234.5)"/><use xlink:href="#W" transform="matrix(.77173 0 0 .72935 -124.15 -234.5)"/><use xlink:href="#X" transform="matrix(.77173 0 0 .72935 -124.15 -234.5)"/><use xlink:href="#Y" transform="matrix(.77173 0 0 .72935 -124.15 -234.5)"/><use xlink:href="#Z" transform="matrix(.77173 0 0 .72935 -124.15 -234.5)"/><use xlink:href="#aa" transform="matrix(.77173 0 0 .72935 -124.15 -234.5)"/><use xlink:href="#ab" transform="matrix(.77173 0 0 .72935 -124.15 -234.5)"/><use xlink:href="#ac" transform="matrix(.77173 0 0 .72935 -124.15 -234.5)"/><use xlink:href="#ad" transform="matrix(.77173 0 0 .72935 -124.15 -234.5)"/><use xlink:href="#ae" transform="matrix(.77173 0 0 .72935 -124.15 -234.5)"/><use xlink:href="#af" transform="matrix(.77173 0 0 .72935 -124.15 -234.5)"/><use xlink:href="#ag" transform="matrix(.77173 0 0 .72935 -124.15 -234.5)"/><use xlink:href="#ah" transform="matrix(.77173 0 0 .72935 -124.15 -234.5)"/><use xlink:href="#ai" transform="matrix(.77173 0 0 .72935 -124.15 -234.5)"/><use xlink:href="#aj" transform="matrix(.77173 0 0 .72935 -124.15 -234.5)"/><use xlink:href="#ak" transform="matrix(.77173 0 0 .72935 -124.15 -234.5)"/><use xlink:href="#al" transform="matrix(.77173 0 0 .72935 -124.15 -234.5)"/><use xlink:href="#am" transform="matrix(.77173 0 0 .72935 -124.15 -234.5)"/><use xlink:href="#an" transform="matrix(.77173 0 0 .72935 -124.15 -234.5)"/></svg>