<svg xmlns="http://www.w3.org/2000/svg" xmlns:xlink="http://www.w3.org/1999/xlink" preserveAspectRatio="none" width="200" height="105"><defs><g id="a"><path fill="#00785E" d="M100 50V0H0v50h100M63.65 18.5l.35-1.35.75 1.25 1.85-.2-1.35.95.75 1.25-1.6-.65-1.35.95.35-1.4-1.6-.65 1.85-.15m-.2 4.6q-.6.4-.9.9-2.75 0-5.3.85-2.4.8-4.25 2.2 1.75-1.1 3.9-1.65 2.2-.65 4.6-.65 2.65 0 5.05.75-1.2 2.45-4.05 3.95Q59.6 31 56 31q-.3 0-.9-.05.95.15 2 .15 2.25 0 4.3-.65 2-.6 3.5-1.75.65.2 1.4.25-1.6 1.35-3.75 2.05-2.25.8-4.7.8-2.35 0-4.5-.7-1.955-.667-3.5-1.8-1.545 1.133-3.5 1.8-2.15.7-4.5.7-2.45 0-4.7-.8-2.15-.7-3.75-2.05.75-.05 1.4-.25 1.5 1.15 3.5 1.75 2.05.65 4.3.65 1.05 0 2-.15-.6.05-.9.05-3.6 0-6.5-1.55-2.85-1.5-4.05-3.95 2.4-.75 5.05-.75 2.4 0 4.6.65 2.15.55 3.9 1.65-1.85-1.4-4.25-2.2-2.55-.85-5.3-.85-.3-.5-.9-.9l.6-.05q2.75 0 5.3.85 2.4.8 4.25 2.25-1.05-1.05-1.6-2.35-.6-1.3-.6-2.65 0-2.25 1.45-4.2.35.8 1.05 1.35-1.05 1.75-1.05 3.65 0 1.4.6 2.75.6 1.3 1.75 2.4-1.9-2.15-1.9-4.7 0-1.2.45-2.4.55-1.35 1.7-2.55.619-.66 1.4-1.25.029-.084.05-.2l.15.1.15-.1q.022.116.05.2.78.59 1.4 1.25 1.15 1.2 1.7 2.55.45 1.2.45 2.4 0 2.55-1.9 4.7 1.15-1.1 1.75-2.4.6-1.35.6-2.75 0-1.9-1.05-3.65.7-.55 1.05-1.35 1.45 1.95 1.45 4.2 0 1.35-.6 2.65-.55 1.3-1.6 2.35 1.85-1.45 4.25-2.25 2.55-.85 5.3-.85l.6.05M50.8 11.35h2.7l-2.15 1.15.8 1.9L50 13.25l-2.15 1.15.8-1.9-2.15-1.15h2.7l.8-1.9.8 1.9m-9.3 3.55l-.6 1.3-.55-1.3H38.5l1.55-.8-.55-1.35 1.45.85 1.5-.8-.55 1.3 1.45.85-1.85-.05m17.6 1.3l-.6-1.3-1.85.05 1.45-.85-.6-1.3 1.5.8 1.5-.85-.55 1.35 1.5.8h-1.8l-.55 1.3m-2.15 17.1q-2 0-3.9-.55-1.758-.475-3.2-1.35-1.442.875-3.2 1.35-1.9.55-3.9.55h-8.5l-.8-.85h8.75q1.7 0 3.3-.35 2.233-.536 4.05-1.7.05-.132.15-.3.075.053.15.1.076-.048.15-.1.1.165.1.25 1.868 1.214 4.1 1.75 1.6.35 3.3.35h8.75l-.8.85h-8.5M50 39h-.3q-3.689-.041-7.1-1.05h14.5Q53.689 38.959 50 39m8.35-1.45h-17q-1.05-.4-2-.85h21q-.95.45-2 .85m6.1-3.4q-.15.15-.5.4h-28.2q-.35-.25-.5-.4h29.2M62.7 35.4q-.6.4-1.1.65H38.1q-.5-.25-1.1-.65h25.7M36 17.15l.35 1.35 1.85.15-1.6.7.3 1.35-1.3-.95-1.65.65.8-1.25-1.35-.95 1.8.2.8-1.25z"/><path fill="#FBD116" d="M36.35 18.5L36 17.15l-.8 1.25-1.8-.2 1.35.95-.8 1.25 1.65-.65 1.3.95-.3-1.35 1.6-.7-1.85-.15m22.15-3.6l.6 1.3.55-1.3h1.8l-1.5-.8.55-1.35-1.5.85-1.5-.8.6 1.3-1.45.85 1.85-.05m-17.6 1.3l.6-1.3 1.85.05-1.45-.85.55-1.3-1.5.8-1.45-.85.55 1.35-1.55.8h1.85l.55 1.3m12.6-4.85h-2.7l-.8-1.9-.8 1.9h-2.7l2.15 1.15-.8 1.9L50 13.25l2.15 1.15-.8-1.9 2.15-1.15m10.5 5.8l-.35 1.35-1.85.15 1.6.65-.35 1.4 1.35-.95 1.6.65-.75-1.25 1.35-.95-1.85.2-.75-1.25z"/><path fill="#FFF" d="M61.6 36.05q.5-.25 1.1-.65H37q.6.4 1.1.65h23.5m2.35-1.5q.35-.25.5-.4h-29.2q.15.15.5.4h28.2m-22.6 3h17q1.05-.4 2-.85h-21q.95.45 2 .85M49.7 39h.3q3.689-.041 7.1-1.05H42.6q3.411 1.009 7.1 1.05m3.35-6.25q1.9.55 3.9.55h8.5l.8-.85H57.5q-1.7 0-3.3-.35-2.232-.536-4.1-1.75 0-.085-.1-.25-.074.052-.15.1-.075-.047-.15-.1-.1.168-.15.3-1.817 1.164-4.05 1.7-1.6.35-3.3.35h-8.75l.8.85h8.5q2 0 3.9-.55 1.758-.475 3.2-1.35 1.442.875 3.2 1.35m9.5-8.75q.3-.5.9-.9l-.6-.05q-2.75 0-5.3.85-2.4.8-4.25 2.25 1.05-1.05 1.6-2.35.6-1.3.6-2.65 0-2.25-1.45-4.2-.35.8-1.05 1.35 1.05 1.75 1.05 3.65 0 1.4-.6 2.75-.6 1.3-1.75 2.4 1.9-2.15 1.9-4.7 0-1.2-.45-2.4-.55-1.35-1.7-2.55-.62-.66-1.4-1.25-.028-.084-.05-.2l-.15.1-.15-.1q-.021.116-.05.2-.781.59-1.4 1.25-1.15 1.2-1.7 2.55-.45 1.2-.45 2.4 0 2.55 1.9 4.7-1.15-1.1-1.75-2.4-.6-1.35-.6-2.75 0-1.9 1.05-3.65-.7-.55-1.05-1.35-1.45 1.95-1.45 4.2 0 1.35.6 2.65.55 1.3 1.6 2.35-1.85-1.45-4.25-2.25-2.55-.85-5.3-.85l-.6.05q.6.4.9.9 2.75 0 5.3.85 2.4.8 4.25 2.2-1.75-1.1-3.9-1.65-2.2-.65-4.6-.65-2.65 0-5.05.75 1.2 2.45 4.05 3.95Q40.1 31 43.7 31q.3 0 .9-.05-.95.15-2 .15-2.25 0-4.3-.65-2-.6-3.5-1.75-.65.2-1.4.25Q35 30.3 37.15 31q2.25.8 4.7.8 2.35 0 4.5-.7 1.955-.667 3.5-1.8 1.545 1.133 3.5 1.8 2.15.7 4.5.7 2.45 0 4.7-.8 2.15-.7 3.75-2.05-.75-.05-1.4-.25-1.5 1.15-3.5 1.75-2.05.65-4.3.65-1.05 0-2-.15.6.05.9.05 3.6 0 6.5-1.55 2.85-1.5 4.05-3.95-2.4-.75-5.05-.75-2.4 0-4.6.65-2.15.55-3.9 1.65 1.85-1.4 4.25-2.2 2.55-.85 5.3-.85z"/></g></defs><use xlink:href="#a" transform="scale(2.00006 2.1)"/></svg>