<svg xmlns="http://www.w3.org/2000/svg" xmlns:xlink="http://www.w3.org/1999/xlink" preserveAspectRatio="none" width="200" height="105"><defs><g id="a"><path fill="#006233" d="M100 50V1H57.4Q53.88 0 50 0q-3.88 0-7.45 1H0v49h100M69.2 21.25q1.63-2.817 1.65-5.9.7 1.964.7 4.05 0 3.2-1.7 6.15-1.65 2.85-4.65 5-2.95 2.2-6.8 3.4-4 1.25-8.4 1.25t-8.4-1.25q-3.85-1.2-6.8-3.4-3-2.15-4.65-5-1.7-2.95-1.7-6.15 0-2.086.7-4.05.02 3.083 1.65 5.9 1.6 2.75 4.45 4.9 2.9 2.1 6.65 3.25 3.85 1.2 8.1 1.2t8.1-1.2q3.75-1.15 6.65-3.25 2.85-2.15 4.45-4.9M50.15 17.9l-4.85 2.55 1.65-4.3-4.6-2.8 5.9-.05L50.2 9l1.95 4.3 5.85.15-4.65 2.7 1.6 4.35-4.8-2.6z"/><path fill="#FFC400" d="M45.3 20.45l4.85-2.55 4.8 2.6-1.6-4.35 4.65-2.7-5.85-.15L50.2 9l-1.95 4.3-5.9.05 4.6 2.8-1.65 4.3m25.55-5.1q-.02 3.083-1.65 5.9-1.6 2.75-4.45 4.9-2.9 2.1-6.65 3.25-3.85 1.2-8.1 1.2t-8.1-1.2q-3.75-1.15-6.65-3.25-2.85-2.15-4.45-4.9-1.63-2.817-1.65-5.9-.7 1.964-.7 4.05 0 3.2 1.7 6.15 1.65 2.85 4.65 5 2.95 2.2 6.8 3.4 4 1.25 8.4 1.25t8.4-1.25q3.85-1.2 6.8-3.4 3-2.15 4.65-5 1.7-2.95 1.7-6.15 0-2.086-.7-4.05z"/></g></defs><use xlink:href="#a" transform="scale(2 2.1)"/></svg>