<svg xmlns="http://www.w3.org/2000/svg" xmlns:xlink="http://www.w3.org/1999/xlink" preserveAspectRatio="none" width="200" height="105"><defs><path fill="#FFF" d="M290.5 321.5h-108v144h108v-144z" id="a"/><path fill="#EE333E" d="M290.5 465.5h108v-144h-108v144z" id="b"/><path fill="#EE333E" d="M215.85 336.9v-11.1h-15v11.1q-.95.25-1.85 1.15-.85.9-1.15 1.85H186.8v14.95h11.05q.3.95 1.15 1.85.9.9 1.85 1.15v11.1h15v-11.1q.95-.25 1.85-1.15.85-.9 1.15-1.85h11.05V339.9h-11.05q-.3-.95-1.15-1.85-.9-.9-1.85-1.15z" id="c"/><path fill="#AAB3B9" d="M214.85 338.05v-11.1h-.15v11.1h.15z" id="d"/><path fill="#AAB3B9" d="M214.85 367.75v-10.8h-.15v10.8h.15z" id="f"/><path fill="#AAB3B9" d="M217.85 353.9h11.1v-.2h-11.1v.2z" id="h"/><path fill="#AAB3B9" d="M187.95 353.9h10.95v-.2h-10.95v.2z" id="j"/><path fill="#AAB3B9" d="M228.95 341.05h-.2v12.65h.2v-12.65z" id="l"/><path fill="#AAB3B9" d="M202 367.75v.2h12.85v-.2H202z" id="n"/><g id="p"><path fill="#AAB3B9" d="M217 338.65h.05q-.994-.983-2.25-1.05v-10.8h-12.95v10.85q-1.159-.035-2.2 1-1.084 1.09-1.05 2.25h-10.8v12.9h10.8q-.034 1.21 1.05 2.3.994.983 2.2 1v10.75h12.95v-10.8q1.21.085 2.25-.95 1.083-1.09 1-2.3h10.8v-12.9h-10.8q.072-1.208-1.05-2.25m-2.45-.8h.15q1.195.033 2.15 1 1.072 1.005.95 2.2v.1h10.8v12.4h-10.8v.15q.11 1.147-.95 2.2-1.004 1.01-2.15.9h-.15v10.8H202.1v-10.75h-.1q-1.195.017-2.15-.95-1.06-1.053-1-2.2v-.15h-10.8v-12.4h10.8v-.1q-.06-1.147 1-2.2 1.004-1.01 2.15-.95h.1v-10.85h12.45v10.8z"/><path fill="#E4E5E6" d="M214.7 337.85h-.15v-10.8H202.1v10.85h-.1q-1.146-.06-2.15.95-1.06 1.053-1 2.2v.1h-10.8v12.4h10.8v.15q-.06 1.147 1 2.2.955.967 2.15.95h.1v10.75h12.45v-10.8h.15q1.146.11 2.15-.9 1.06-1.053.95-2.2v-.15h10.8v-12.4h-10.8v-.1q.122-1.195-.95-2.2-.955-.967-2.15-1z"/></g><path fill="#E4E5E6" d="M199.4 339.6l-.1.65 2.1.75-1.25-2.25q.5.15 1.05.75.6.65.65 1.15.4-.4.55-.8-.25-.1-.85-.6-.65-.6-.75-.95-.35 0-.75.3-.3.25-.45.5.25 0 .55.45.3.4.35.65-.9-.3-1.1-.6z" id="q"/><path fill="#E4E5E6" d="M202.75 339.35q.3-.8-.2-1.3l-.65.7q.25-.05.4.1.65.6-.55 1.9-.45.4-1.1.5-.7.05-1.05-.3-.35-.3-.25-1.05.05-.65.45-1.05.8-.8 1.65-.55l.55-.45v-.05q-1.4 0-2.25.95-.6.6-.9 1.45-.35 1 .15 1.4 1.55.45 2.8-.8.7-.7.95-1.45z" id="s"/><path fill="#AAB3B9" d="M202 337.8q-1.4 0-2.25.95l.05.1q.8-.8 1.65-.55l.55-.45v-.05z" id="u"/><path fill="#E4E5E6" d="M200.8 353.35q-.05.25-.6.85-.55.6-.95.75.1.75.85 1.2 0-.25.4-.55.4-.3.7-.35-.35.9-.6 1.1.4.1.6.05l.75-2.1q-2.05 1.15-2.25 1.3.2-.5.8-1.05.65-.6 1.1-.65-.5-.5-.8-.55z" id="v"/><path fill="#E4E5E6" d="M201.75 354q.4.4.5 1.1.05.7-.3 1.05-.35.35-1.05.25-.7-.1-1.1-.5-.75-.75-.5-1.65l-.45-.55h-.1q0 1.3 1 2.3.55.55 1.4.85 1.05.35 1.4-.15.25-.7 0-1.5-.25-.75-.75-1.25-.7-.75-1.45-1-.8-.3-1.3.2l.65.7q0-.3.15-.45.65-.65 1.9.6z" id="x"/><path fill="#AAB3B9" d="M198.75 353.7q0 1.3 1 2.3l.05-.1q-.75-.75-.5-1.65l-.45-.55h-.1z" id="z"/><path fill="#E4E5E6" d="M217.1 355.65q-.25 0-.55-.45-.25-.35-.35-.65.95.3 1.1.6l.1-.65-2.1-.75 1.25 2.25q-.45-.15-1-.75-.65-.65-.7-1.15-.5.7-.55.8.25.1.85.65.65.55.75.9.85-.1 1.2-.8z" id="A"/><path fill="#E4E5E6" d="M217.15 353.75q.35.35.25 1.1-.1.65-.5 1.05-.75.75-1.65.55l-.55.45v.05q1.3 0 2.25-.95.6-.6.9-1.45.35-1-.15-1.4-.7-.2-1.55.05-.7.2-1.25.7-.7.75-.95 1.5-.3.8.2 1.3l.65-.7q-.2.1-.4-.1-.35-.35-.1-1 .2-.45.7-.9.4-.4 1.1-.5.7-.1 1.05.25z" id="C"/><path fill="#AAB3B9" d="M214.7 356.95q1.3 0 2.25-.95l-.05-.1q-.75.75-1.65.55l-.55.45v.05z" id="E"/><path fill="#E4E5E6" d="M215.55 339.5q.25-.9.55-1.1l-.6-.1-.75 2.15q2.05-1.1 2.25-1.3-.2.5-.8 1.05-.6.6-1.1.65.45.45.8.55.1-.3.6-.85.6-.65.95-.75-.05-.75-.85-1.2.05.25-.4.55-.4.3-.65.35z" id="F"/><path fill="#E4E5E6" d="M214.5 339.7q-.1-.75.25-1.1.35-.35 1.1-.25.65.05 1.05.45.8.8.55 1.7l.4.55h.1q0-1.3-1-2.3-.55-.55-1.4-.85-1-.35-1.4.15-.25.65 0 1.5.25.75.75 1.25 1.85 1.75 2.75.75l-.65-.65q.1.25-.1.45-.7.6-1.9-.6-.4-.4-.5-1.05z" id="H"/><path fill="#AAB3B9" d="M217.95 341.05q0-1.3-1-2.3l-.05.05q.8.8.55 1.7l.4.55h.1z" id="J"/><path fill="#AAB3B9" d="M214 341.9v-14.1h-.15v14.1h.15z" id="K"/><path fill="#AAB3B9" d="M188.8 352.85v.2h14.05v-.2H188.8z" id="M"/><path fill="#AAB3B9" d="M228.1 341.9h-.2v10.95h.2V341.9z" id="O"/><path fill="#AAB3B9" d="M214 366.9v-14.05h-.15v14.05h.15z" id="Q"/><path fill="#AAB3B9" d="M214 353.05h14.1v-.2H214v.2z" id="S"/><path fill="#AAB3B9" d="M202.85 367.1H214v-.2h-11.15v.2z" id="U"/><g id="W"><path fill="#AAB3B9" d="M202.7 327.65v14.1h-14.05v11.2h14.05V367h11.25v-14.05H228v-11.2h-14.05v-14.1H202.7m.25.25h10.75V342h14.05v10.7H213.7v14.05h-10.75V352.7H188.9V342h14.05v-14.1z"/><path fill="#E4E5E6" d="M213.7 327.9h-10.75V342H188.9v10.7h14.05v14.05h10.75V352.7h14.05V342H213.7v-14.1z"/></g><path fill="#AAB3B9" d="M215.05 340.9q-2.75-2.7-6.6-2.7-3.85 0-6.55 2.7-2.7 2.75-2.7 6.6 0 3.85 2.7 6.55 2.75 2.7 6.55 2.7 3.85 0 6.6-2.7 2.7-2.7 2.7-6.55 0-3.85-2.7-6.6z" id="X"/><path fill="#E4E5E6" d="M214.95 340.8q-2.75-2.7-6.6-2.7-3.85 0-6.6 2.7-2.7 2.7-2.7 6.55 0 3.85 2.7 6.6 2.75 2.7 6.6 2.7 3.85 0 6.6-2.7 2.7-2.75 2.7-6.6 0-3.85-2.7-6.55z" id="Z"/><path fill="#E4E5E6" d="M212.9 342.8q-1.9-1.9-4.55-1.9-2.7 0-4.55 1.9-1.9 1.9-1.9 4.55 0 2.7 1.9 4.6 1.85 1.9 4.55 1.9 2.65 0 4.55-1.9t1.9-4.6q0-2.65-1.9-4.55z" id="ab"/><path fill="#AAB3B9" d="M201.9 350.85l-.05-.1-.85.55v.05q.45-.2.65.2l-.6.35q-.2.15-.2 0l-.15-.25q-.3-.45.2-.75l-.05-.05-.55.3.9 1.6.05-.05q-.1-.25.05-.35l1.3-.75q.1-.1.35.15l.05-.05-.55-.9-.05.05q.1.25-.05.3l-.6.35q-.35-.35.15-.65z" id="ad"/><path fill="#AAB3B9" d="M201.7 348.65q-.25-1-1.2-.85-1 .15-.85 1.2.15 1.05 1.2.85 1-.2.85-1.2m-1.15-.35q1-.2 1.05.35.1.55-.85.7-.95.2-1.05-.4-.1-.45.85-.65z" id="ae"/><path fill="#AAB3B9" d="M200.75 345.6q0-.5-.4-.55-.5-.15-.7.75l-.2 1h.05q.1-.3.3-.25l1.45.3q.2 0 .2.3h.05l.2-1h-.05q-.15.25-.3.2l-.65-.15v-.05l1.1-.45.1-.6h-.05l-.05.1-1.05.4m-.9.45q-.1-.05-.1-.25.1-.4.5-.3.45.1.35.7l-.75-.15z" id="af"/><path fill="#AAB3B9" d="M203.35 341.8q-.1-.1 0-.35v-.05l-.7.75.05.05q.15-.15.35-.05l.3.25q.15.15-.1.35-.35.5-1.1-.2-.7-.6-.3-1 .3-.45.95-.15l.05-.05-.5-.45-.05.05q.1.1-.05.2-.35.25-.45.35-.75.75.05 1.45.75.65 1.5-.1.35-.45.4-.7l-.4-.35z" id="ag"/><path fill="#AAB3B9" d="M204.5 339.45l-.1.05.1 1.9-.1.3v.05l.55-.25v-.05q-.3.1-.35-.15v-.3l.65-.3.25.2q.15.15-.15.35l.05.05.9-.45v-.05q-.2.05-.4-.15l-1.4-1.2m.65 1.15l-.55.25-.05-.8.6.55z" id="ah"/><path fill="#AAB3B9" d="M208.55 339.85h-.05q-.05.65-.6.65l-.25.05q-.2 0-.2-.25l-.15-1.4q0-.25.25-.25v-.1l-1 .1v.1q.3 0 .3.2l.15 1.45q0 .25-.25.25v.1l1.75-.2.05-.7z" id="ai"/><path fill="#AAB3B9" d="M209.55 338.55v.05q.25.15.2.3l-.35 1.45q-.05.15-.35.15v.05l1.75.4.25-.6-.05-.05q-.3.55-.8.45l-.25-.1q-.2 0-.1-.25l.35-1.4q.05-.15.3-.15v-.05l-.95-.25z" id="aj"/><path fill="#AAB3B9" d="M212.6 341.65q-.05.2-.4.05v.05l.85.55v-.05q-.15-.15-.05-.35l.35-1.85-.1-.1-1.6 1.05q-.2.2-.35.1v.05l.5.35.05-.05q-.25-.25-.05-.4l.25-.15.6.4-.05.35m-.2-.65l-.25-.15.7-.45-.2.8-.25-.2z" id="ak"/><path fill="#AAB3B9" d="M215.85 342.65q.1.25-.05.35l-.85.6.45-1.65-.4-.55-.05.05.05.1-.05.25-1.2.85q-.2.1-.35-.05h-.05l.35.5h.05q-.1-.25.05-.35l1.1-.8-.55 2.05.05.1 1.45-1.05q.2-.1.35.05h.05l-.35-.5-.05.05z" id="al"/><path fill="#AAB3B9" d="M214.85 345l-.05.05.3.95.05-.05q0-.25.15-.3l1.6-.45.05.1q.15.5-.35.6v.05l.6-.15-.5-1.75-.6.2.05.05q.4-.15.6.35v.1l-1.6.45q-.05.05-.3-.2z" id="am"/><path fill="#AAB3B9" d="M217.25 347.95l.1-1-.05-.05q-.1.3-.25.3l-1.5-.1q-.2 0-.2-.25l-.05-.05-.1 1h.05q.1-.2.25-.2l.8.05.75.05q.2 0 .1.25 0 .4-.45.3-.45 0-.4-.6h-.1v.1l-1 .55-.05.6h.05l.05-.1.95-.55q.1.5.45.5.6.1.6-.8z" id="an"/><path fill="#AAB3B9" d="M214.4 350.8q.2-.2.35-.15l.55.25.5.85q.15.25.1.4l.1.05.25-.65h-.05q-.15.3-.35 0l-.4-.65.85-.05q.2 0 .1.3h.05l.45-.9h-.05q-.1.1-.35.1l-1.05.1-.5-.25q-.1-.05-.1-.35l-.05-.05-.45 1h.05z" id="ao"/><path fill="#AAB3B9" d="M206.05 341.6q-.2-.15-.3-.15-.35.15-.95.5-.65.45-.95.8l.05.35q-.65.2-.55.9-.55.2-.45.85-.25.2-.15.75-.1.2 0 .4t.25.25q.15.05.7-.5.2-.25.45-.3.2 0 .25.15.2.55.5.6v.2q-.3.25-.7.9-.85-1.15-1.55-.45-.55.55-.15.95.4.3.3.95-.15.5.4.65.15.1 0 .5-.1.25.1.4.2.15.2.3-.2.55.2.25.25-.2.3-.55.05-.3-.05-.45-.2-.15-.15-.3.2-1.4-.15-1.7-.2-.2-.15-.3.15-.25.9.35.15.65.95.75.4.05.15.8-.2.55.15.65.35.1.6.55-.7.15-.7.6.1.35-.25.2l-.85-.3q-.3-.1-.35.05-.1.15.05.25l2 .7q.3.15.15.25t-.6.1q-.35-.05-.35.1 0 .1.35.15.45.05.8-.15.35-.2.45-.15l2.6.95q.35.1.45-.1.05-.15-.15-.25l-3.3-1.15q-.45-.2-.05-.6.35-.25.7-.05.25.15.45 0 .2-.1.3 0 .15.05.1.25 0 .7.45.45.35-.2 1.1-.25.9-.05 1.1-.15.35-.1 1.8-.1.5.05.8-.2.2-.25.3-.35.05-.05 0-.15-.05-.1-.05-.3l.85-1.05q.2-.35-.1-.55-.3-.15-.05-.6.2-.35-.25-.5-.25-.1-.9-1.1-.35-.4-.8-.4-.4.05-.4-.05t.3-.3q.3-.2.35-.2.15-.05.45.15.7.35.75.45.15.4.35.4.5 0 .5-.55.1-.6-.6-.7-.6-.2-1.15-.65-.45-.3-1.35.45-.1-.6-.85-1.45 1.55-.5.45-1.35-1.1-.4-1.4-.8-.2-.25-.45-.1l-.5.1q-.05-.15-.25-.25-.15-.1-.25-.05-.05.05-.25.05-.2.05-.3.15-.15.05-.45 0-.55-.15-.85.1-.15.1-.35-.05z" id="ap"/><path fill="#E4E5E6" d="M204.3 344.5q.1-.1 0-.1-.15-.05-.35.1l-.9.5q-.2.1-.2.2 0 .15.3 0l.75-.4q.1-.05.1.1.15.1.15 0l.15-.4z" id="aq"/><path fill="#E4E5E6" d="M204 345.1q-.2.15-.7.35-.4.25-.35.45 0 .4.25 0l.8-.6q.15-.05.15-.15-.05-.15-.15-.05z" id="ar"/><path fill="#E4E5E6" d="M204.45 343.75q-.65.15-1.15.45-.3.2-.3.35 0 .2.2.05l1.35-.6q.3-.05.25-.2-.1-.1-.35-.05z" id="as"/><path fill="#E4E5E6" d="M204.35 343.15q-.6 0-.85.75.65-.4 1.7-.6.25 0 .2-.3l-1.05.15z" id="at"/><path fill="#E4E5E6" d="M205.7 342.75q0-.15.2-.35-.1-.1-.55.1-.3.2-.65.1-.25-.05-.55.3h.8q.05 0 .3-.1.2-.1.45-.05z" id="au"/><path fill="#E4E5E6" d="M205.7 342.05q-.55-.2-1.25.3.6.25.8-.1.35-.25.6-.1.05 0 1.1.15.25.05.25 0-.05-.05-.1-.15-.1-.2-.4 0-.35.1-1-.1z" id="av"/><path fill="#E4E5E6" d="M206.7 341.75q-.4.2-1.05-.1l-.25.15q.3 0 .55.1.4.2.75 0 .4-.2.7.1l.15-.15q-.2-.25-.85-.1z" id="aw"/><path fill="#E4E5E6" d="M203.7 347.1q-.45-.65-.9-.05-.15.3.1.3-.05.15.15.2.2.1.2-.05.1-.45.3-.3.1.1.15-.1z" id="ax"/><path fill="#E4E5E6" d="M203.15 347.8q0 .2-.15.15-.25 0 0 .25.1.1 0 .35-.15.4.1.6.15.1.35.05.2.3.2-.25 0-.45-.15-.3-.2.25-.3 0-.15-.3.15-.25.45.1.2-.25-.4-.55-.4-.35z" id="ay"/><path fill="#E4E5E6" d="M207.8 341.75q.15.25.15.7 0 .25.15 0 .4-.1.4-.35 0-.25-.15.05-.15 0-.15-.15-.2-.35-.4-.25z" id="az"/><path fill="#E4E5E6" d="M210.35 342.45q-.25 0-.25.1l-.15.1q-.15.15 0 .15.2 0 .35.1l.5-.05q.15-.05 0-.2-.3-.2-.45-.2z" id="aA"/><path fill="#E4E5E6" d="M209.85 342.25q.1.05 0-.2l-.15-.1q-.1-.1-.2 0l-.35-.05q-.15 0-.2.15-.1.2-.25.85-.1.25-.15 1-.15.25-.1.4.05.2.35.1.4-.2 1-.35.15-.05.25-.2.1-.2-.05-.25-.45-.2-.65-.65-.05-.25 0-.35.05-.15.15-.05.15.15.15-.1 0-.2.2-.2z" id="aB"/><path fill="#E4E5E6" d="M207.45 342.4q-.15.15-.85.15-.4-.1-.5.15-.05.25-.85 1-.65.65-.8 1.2-.1.3.1.6.15.2.3.05.15-.15 0-.35-.2-.35.1-.6.6-.45.75-.8.15-.3.35-.35.25-.05.3-.3.3-.25.45-.1.2.2.05.3-.05.05-.05-.05 0-.05-.15 0-.2.05-.15.2 0 .1.1 0t.15.05q.05.15-.1.25-.15.05-.1.2.15.2.2.05.2-.05.25-.15 0-.05.1-.05t.15.05q.1.1-.05.3 0 .1-.05 0-.05-.05-.1-.05t-.05.05q0 .05-.15.05-.1 0-.1.2l.05.15.15.1.05.15-.05.05q0-.05-.15-.05-.35 0-.2.25.1.2.05.45.05.15.4.05.65 0 .75.1.2.15.75.25.5.05.55.45 0 .25.3.55.45.3.35.6 0 .1.1.2.1.15.2.1h.35q.3.15.1-.1-.4-.25-.5-.45l-.45-1-.05-.2q0-.2-.25-.35l-.75-.3q-.1 0-.25-.15 0-.25-.1-.05-.05.05-.1-.05 0-.05-.15-.05-.25 0-.15-.15.15-.3-.05-.4-.15-.15-.05-.3.1-.05.15-.2.2-.05.2-.15.15-.05.05-.15.1-.25.05-.3-.05-.15 0-.3.05-.05.05-.1t-.05-.05l-.1-.15q0-.1-.15.05-.05.1-.1.1-.1 0-.15-.1-.1-.15 0-.3.15-.15.05-.25-.05-.1-.2 0z" id="aC"/><path fill="#E4E5E6" d="M209.1 344.75q-.1-.3-.25-.05-.05.1-.3.3-.25.1.1.25.5.1.7.3.25.15.15-.1 0-.05-.15-.2-.15-.15.05-.15l.3.1q.05.05.3.1.3.05.4.2.2.3.2.35.05.1-.2.25-.6.4-.4.65.15.15.3.1.2 0 .35.1.35.15.75-.05l.6-.05q.45 0 .55.1l.5.45q.2.05.4.2.15-.05-.2-.4-.3-.4-.4-.5-.4-.2-.55-.15-.25.2-.8 0l-.4-.05q-.35 0 .05-.25.3-.2.15-.65-.3-1-.8-1.45-.2-.15-.35 0-.15.15-.35.15-.1 0-.15.05 0 .05.1.1.2.05.25.2.35.2.35.35-.1.15-.15.1-.35.05-.45-.1l-.3-.15q-.2.1-.35-.1z" id="aD"/><path fill="#E4E5E6" d="M210.1 345.65q-.15-.15-.4-.1-.2.1.15.1.15 0 .3.15.1.05.1-.05-.05-.15-.15-.1z" id="aE"/><path fill="#E4E5E6" d="M211.65 345.5l.1.45.7-.65q.25-.1.5.1.45.45.8.55.2.1.25.45.35.2.35-.15 0-.25-.25-.4-.75-.3-1.05-.5-.55-.55-.75-.4l-.65.55z" id="aF"/><path fill="#E4E5E6" d="M205.85 344.1l-.6.6q-.25.25-.05.55l.15.2q.15.1.1.2-.1.2.15.15.25 0 .45-.15.15 0 .15-.1.1 0 .1-.25-.15-.4-.05-.5.2-.3.05-.5-.2-.3-.25-.35-.1 0-.2.15z" id="aG"/><path fill="#E4E5E6" d="M204.9 345.8q0 .15.15.1.1-.1 0-.2-.05.1-.15.1z" id="aH"/><path fill="#E4E5E6" d="M205.25 346l.1.4.35.3q.15.1.45.2.2-.05 0-.2l-.75-.7q-.15-.1-.15 0z" id="aI"/><path fill="#E4E5E6" d="M206.55 345.95q-.45-.1-.65.1l.6.85q.35.65-.3.3-.65-.2-1.1-.65-.6.3-.6 1.05.3 0 .45.25.1.1.6.2.2 0 .3.15.1.15.05.25-.1.15 0 .4 0 .2-.25.65-.15.25.3.6.55.25.85.75.1.15.25.15.2 0 .25.1.1.1.3.05.2-.05.05-.2-.15-.15-.35-.15-.15-.35-.95-.8-.5-.35 0-.75l.85-1q.2-.35 0-.5-.2-.05-.2-.45-.05-.15.1-.2.15 0 .25.1l1.45.2q.2 0 .35-.15.05-.15-.05-.25-.15-.15-.25-.55-.05-.3-.75-.3l-1.55-.2z" id="aJ"/><path fill="#E4E5E6" d="M207.25 349.75h-.3l-.3-.25q-.15 0-.2.1-.1.1.05.15l.4.4q.1-.1.35-.4z" id="aK"/><path fill="#E4E5E6" d="M209.2 349.55q-.35-.3-1.3-.3h-.35q-.05 0-.05-.15 0-.25.1-.35.2-.3.15-.35 0-.05-.15-.05-.1.25-.35.35-.25.15-.25.6 0 .25.35.2 1.1-.1 1.55.1.2.1.3.1.15 0 0-.15z" id="aL"/><path fill="#E4E5E6" d="M206.35 350.9q-.75.15-.6.7l.35.1q-.2-.5.15-.65.15-.05.15-.1t-.05-.05z" id="aM"/><path fill="#E4E5E6" d="M211.9 347.9q-.2-.2-.2-.35-.1-.2.1-.1.25.15.55.15l.15-.2q-.4-.3-.45-.3-.6.1-.65.15-.5.15-.55.15-.15-.05-.2.05-.1.1.05.2.6.35.15.6l.6.4q.7-.45.45-.75z" id="aN"/><path fill="#E4E5E6" d="M212.85 347.55l-.1.3q.15 0 .15.15.2.15.15-.05 0-.2-.2-.4z" id="aO"/><path fill="#E4E5E6" d="M213.45 347.9q-.1-.1-.1.1 0 .15-.2.2-.2.05-.2.5-.15.25-.75-.05-.1-.05-.2.05-.15.15-.3.1-.3 0 0 .65.05.15-.1.15-.1.05-.25-.05-.2-.1-.25.1 0 .1-.5-.15v.3l.5.15q.35.15.25.35-.1.15-.4.15-.55 0-1.35-.4-.1-.1-.35-.05-.3 0-.65-.2-.65-.3-1.3.35-.15.15 0 .2.1.05.2 0 .25-.15.35-.05-.1.35.15.55.2.1.35.05.25-.1.25-.05.05.15-.1.3-.2.05-.2.4-.05.3.3.05.3-.2 1.05-.2.45 0-.3-.15l-.55.05q-.2.2-.15-.05.05-.25.45-.25.2-.05.2-.3t.2-.15q.2.1.1.45 1 0 1.25.05.4.1 1.6-.1l-.05-.3q0-.4.15-.1.1.1.35 0 .65-.3 1-.85.25-.4.2-.45-.15-.15-.2-.05l-.2.35q-.05.1-.15-.2.05-.1-.1 0 0 .25-.15-.05-.15-.15-.3.2-.05.1 0 .2.05.05.1 0 .15.05.25 0 .1.1 0 .15l-.35.35q0 .05-.2 0-.1-.1 0-.5 0-.25-.2-.15-.15-.15-.25-.1-.25 0-.25-.25 0-.35.25-.1.1.1.4 0 .2.4.2-.05.05-.4.55-.4h.25q.1 0 0-.1 0-.45-.3-.65z" id="aP"/><path fill="#E4E5E6" d="M210.45 348.55q.35 0 .15.2-.1.1.05.2.05 0 .35.05.25 0 .1-.2-.25-.6-1.6-.6-.8 0-.6.1l.1.2q0 .15.25.1.7-.15.8-.1.1.05.4.05z" id="aQ"/><path fill="#E4E5E6" d="M210.9 349.3q-.5-.15-.6-.2-.15 0-.15.05 0 .1.2.1l.5.15q.1.1.15.05 0-.05-.1-.15z" id="aR"/><path fill="#E4E5E6" d="M209.65 347.95l-.1-.25-1.45.35q0 .5-.25.85-.2.2.65.2.35-.05.8.2.4.25.55.45.1.15.25.15t.2-.15q.1-.3-.1-.1-.1.05-.1-.1-.1-.3-.45-.3-.3 0-.3-.1 0-.2-.15-.3-.45.35-.45-.1 0-.35-.35-.25-.25.1-.1-.25.15-.2 1.35-.3z" id="aS"/><path fill="#E4E5E6" d="M213.2 350.85q-.35 0-.45.15l-.2.2q-.1.05 0 .1.05.05.2 0l.45-.3q.1-.15 0-.15z" id="aT"/><path fill="#E4E5E6" d="M203.45 350q.05.15.05.3.1.05.15.15.1.05.1-.25.1-.2-.1-.3-.2-.15-.2.1z" id="aU"/><path fill="#AAB3B9" d="M209 343.35l-.05.6q.05.1.15.1.05-.05.1-.2.05-.3-.1-.45-.1-.2-.1-.05z" id="aV"/><path fill="#AAB3B9" d="M206.1 348.6l-.15.4q0 .05.1.05.1.05.15 0l.1-.35q.05-.05-.2-.1z" id="aW"/><path fill="#AAB3B9" d="M207.15 348.1q.05-.1-.1-.25-.1-.15-.25-.2-.65 0-.2.15.3.15.35.25.1.35.2.05z" id="aX"/><path fill="#E4E5E6" d="M212.45 353.55q-.55 0-.55.55t.55.55q.55 0 .55-.55t-.55-.55z" id="aY"/><path fill="#E4E5E6" d="M204.8 354.1q0-.55-.55-.55t-.55.55q0 .55.55.55t.55-.55z" id="ba"/><path fill="#E4E5E6" d="M208.35 354.15q-.7 0-.45.65-.65-.25-.65.45t.65.45q-.2.7.45.7.7 0 .45-.7.7.25.7-.45t-.7-.45q.25-.65-.45-.65z" id="bc"/><path id="e" stroke="#AAB3B9" stroke-width=".25" stroke-linejoin="miter" stroke-linecap="butt" stroke-miterlimit="4" fill="none" d="M29.964 3.953h-.139v8.094h.139V3.953z"/><path id="g" stroke="#AAB3B9" stroke-width=".25" stroke-linejoin="miter" stroke-linecap="butt" stroke-miterlimit="4" fill="none" d="M29.964 33.703h-.139v-7.875h.139v7.875z"/><path id="i" stroke="#AAB3B9" stroke-width=".25" stroke-linejoin="miter" stroke-linecap="butt" stroke-miterlimit="4" fill="none" d="M43.018 23.604v-.146H32.741v.146h10.277z"/><path id="k" stroke="#AAB3B9" stroke-width=".25" stroke-linejoin="miter" stroke-linecap="butt" stroke-miterlimit="4" fill="none" d="M5.06 23.604v-.146h10.137v.146H5.059z"/><path id="m" stroke="#AAB3B9" stroke-width=".25" stroke-linejoin="miter" stroke-linecap="butt" stroke-miterlimit="4" fill="none" d="M42.833 14.234v9.224h.185v-9.224h-.185z"/><path id="o" stroke="#AAB3B9" stroke-width=".25" stroke-linejoin="miter" stroke-linecap="butt" stroke-miterlimit="4" fill="none" d="M18.067 33.849h11.897v-.146H18.067v.146z"/><path id="r" stroke="#AAB3B9" stroke-width=".25" stroke-linejoin="bevel" stroke-linecap="butt" fill="none" d="M15.66 13.177q.185.218 1.018.437-.046-.182-.324-.474-.277-.328-.509-.328.139-.182.417-.364.37-.22.694-.22.093.256.694.694.556.364.787.437-.138.292-.509.583-.046-.364-.602-.838-.509-.438-.972-.547l1.158 1.64-1.945-.546.093-.474z"/><path id="t" stroke="#AAB3B9" stroke-width=".25" stroke-linejoin="miter" stroke-linecap="butt" stroke-miterlimit="4" fill="none" d="M18.761 12.994q-.231.547-.88 1.058-1.156.911-2.591.583-.463-.292-.14-1.02.278-.62.834-1.058.787-.693 2.083-.693v.037l-.51.328q-.786-.182-1.527.4-.37.293-.416.766-.093.547.231.766.324.255.972.219.602-.073 1.019-.365 1.11-.948.509-1.385-.14-.11-.37-.073l.601-.51q.463.364.185.947z"/><path id="w" stroke="#AAB3B9" stroke-width=".25" stroke-linejoin="bevel" stroke-linecap="butt" fill="none" d="M16.956 23.203q.278.036.74.4-.416.037-1.018.475-.555.4-.74.765.185-.109 2.083-.947l-.695 1.53q-.185.037-.555-.036.231-.145.555-.802-.277.037-.648.255-.37.22-.37.402-.694-.329-.787-.875.37-.11.88-.547.509-.438.555-.62z"/><path id="y" stroke="#AAB3B9" stroke-width=".25" stroke-linejoin="miter" stroke-linecap="butt" stroke-miterlimit="4" fill="none" d="M17.836 23.677q-1.158-.912-1.76-.438-.138.11-.138.328l-.602-.51q.463-.365 1.203-.146.695.182 1.343.73.463.364.694.91.232.584 0 1.095-.324.364-1.296.109-.787-.219-1.296-.62-.926-.729-.926-1.677h.093l.416.401q-.231.656.463 1.203.37.292 1.019.365.648.073.972-.182.324-.256.278-.766-.093-.51-.463-.802z"/><path id="B" stroke="#AAB3B9" stroke-width=".25" stroke-linejoin="bevel" stroke-linecap="butt" fill="none" d="M32.047 24.88q-.324.51-1.11.583-.094-.255-.695-.656-.556-.401-.787-.474.046-.073.509-.583.046.364.648.838.51.438.926.547l-1.157-1.64 1.944.546-.093.474q-.139-.218-1.018-.437.092.219.324.474.278.328.509.328z"/><path id="D" stroke="#AAB3B9" stroke-width=".25" stroke-linejoin="miter" stroke-linecap="butt" stroke-miterlimit="4" fill="none" d="M32.093 23.495q-.324-.256-.972-.183-.648.073-1.018.365-.463.328-.648.656-.232.474.092.73.185.145.37.072l-.601.51q-.463-.364-.185-.947.231-.547.88-1.094.508-.365 1.157-.51.786-.183 1.435-.037.462.292.138 1.02-.277.62-.833 1.058-.88.693-2.083.693v-.037l.51-.328q.833.146 1.527-.4.37-.292.463-.766.092-.547-.232-.802z"/><path id="G" stroke="#AAB3B9" stroke-width=".25" stroke-linejoin="bevel" stroke-linecap="butt" fill="none" d="M30.612 13.104q.231-.037.602-.255.416-.22.37-.401.74.328.787.875-.324.072-.88.546-.462.401-.555.62-.324-.073-.74-.4.462-.037 1.018-.475.555-.4.74-.765-.185.145-2.083.948l.695-1.568.555.073q-.278.146-.509.802z"/><path id="I" stroke="#AAB3B9" stroke-width=".25" stroke-linejoin="miter" stroke-linecap="butt" stroke-miterlimit="4" fill="none" d="M29.64 13.25q.092.474.463.765 1.11.875 1.759.438.185-.146.092-.328l.602.474q-.833.729-2.546-.547-.463-.365-.694-.912-.232-.62 0-1.093.37-.365 1.296-.11.787.219 1.296.62.926.73.926 1.677h-.093l-.37-.401q.232-.656-.51-1.24-.37-.291-.971-.328-.695-.073-1.019.183-.324.255-.231.802z"/><path id="L" stroke="#AAB3B9" stroke-width=".25" stroke-linejoin="miter" stroke-linecap="butt" stroke-miterlimit="4" fill="none" d="M29.177 4.573h-.139v10.28h.139V4.574z"/><path id="N" stroke="#AAB3B9" stroke-width=".25" stroke-linejoin="miter" stroke-linecap="butt" stroke-miterlimit="4" fill="none" d="M5.846 22.838h13.008v.146H5.846v-.146z"/><path id="P" stroke="#AAB3B9" stroke-width=".25" stroke-linejoin="miter" stroke-linecap="butt" stroke-miterlimit="4" fill="none" d="M42.046 14.854v7.984h.185v-7.984h-.185z"/><path id="R" stroke="#AAB3B9" stroke-width=".25" stroke-linejoin="miter" stroke-linecap="butt" stroke-miterlimit="4" fill="none" d="M29.177 33.083h-.139V22.838h.139v10.245z"/><path id="T" stroke="#AAB3B9" stroke-width=".25" stroke-linejoin="miter" stroke-linecap="butt" stroke-miterlimit="4" fill="none" d="M42.231 22.984v-.146H29.177v.146h13.054z"/><path id="V" stroke="#AAB3B9" stroke-width=".25" stroke-linejoin="miter" stroke-linecap="butt" stroke-miterlimit="4" fill="none" d="M29.177 33.229v-.146H18.854v.146h10.323z"/><path id="Y" stroke="#AAB3B9" stroke-width=".25" stroke-linejoin="miter" stroke-linecap="butt" stroke-miterlimit="4" fill="none" d="M24.039 12.156q-3.565 0-6.065 1.969-2.5 2.005-2.5 4.812 0 2.807 2.5 4.776 2.547 1.969 6.065 1.969 3.564 0 6.11-1.969 2.5-1.969 2.5-4.776 0-2.807-2.5-4.812-2.546-1.97-6.11-1.97z"/><path id="aa" stroke="#AAB3B9" stroke-width=".25" stroke-linejoin="miter" stroke-linecap="butt" stroke-miterlimit="4" fill="none" d="M23.946 12.083q-3.564 0-6.11 1.969-2.5 1.968-2.5 4.776 0 2.807 2.5 4.812 2.546 1.97 6.11 1.97 3.564 0 6.11-1.97 2.5-2.005 2.5-4.812 0-2.808-2.5-4.776-2.546-1.969-6.11-1.969z"/><path id="ac" stroke="#AAB3B9" stroke-width=".25" stroke-linejoin="miter" stroke-linecap="butt" stroke-miterlimit="4" fill="none" d="M23.946 14.125q-2.5 0-4.212 1.385-1.76 1.386-1.76 3.318 0 1.969 1.76 3.354 1.712 1.385 4.212 1.385 2.454 0 4.213-1.385t1.759-3.354q0-1.932-1.76-3.318-1.758-1.385-4.212-1.385z"/><path id="aZ" stroke="#AAB3B9" stroke-width=".25" stroke-linejoin="miter" stroke-linecap="butt" stroke-miterlimit="4" fill="none" d="M27.233 23.75q0 .4.509.4.51 0 .51-.4 0-.401-.51-.401t-.51.4z"/><path id="bb" stroke="#AAB3B9" stroke-width=".25" stroke-linejoin="miter" stroke-linecap="butt" stroke-miterlimit="4" fill="none" d="M20.66 23.75q0 .4-.51.4-.509 0-.509-.4 0-.401.51-.401.508 0 .508.4z"/><path id="bd" stroke="#AAB3B9" stroke-width=".25" stroke-linejoin="miter" stroke-linecap="butt" stroke-miterlimit="4" fill="none" d="M23.946 23.786q.648 0 .417.474.648-.182.648.328t-.648.328q.231.51-.417.51-.602 0-.417-.51-.601.183-.601-.328 0-.51.601-.328-.231-.474.417-.474z"/></defs><use xlink:href="#a" transform="matrix(.92589 0 0 .72917 -168.95 -234.45)"/><use xlink:href="#b" transform="matrix(.92589 0 0 .72917 -168.95 -234.45)"/><use xlink:href="#c" transform="matrix(.92586 0 0 .72917 -168.95 -234.45)"/><g transform="matrix(.92583 0 0 .72917 -168.95 -234.45)"><use xlink:href="#d"/><use xlink:href="#e" transform="matrix(1.0801 0 0 1.37141 182.45 321.5)"/></g><g transform="matrix(.92583 0 0 .72917 -168.95 -234.45)"><use xlink:href="#f"/><use xlink:href="#g" transform="matrix(1.0801 0 0 1.37141 182.45 321.5)"/></g><g transform="matrix(.92583 0 0 .72917 -168.95 -234.45)"><use xlink:href="#h"/><use xlink:href="#i" transform="matrix(1.0801 0 0 1.37141 182.45 321.5)"/></g><g transform="matrix(.92583 0 0 .72917 -168.95 -234.45)"><use xlink:href="#j"/><use xlink:href="#k" transform="matrix(1.0801 0 0 1.37141 182.45 321.5)"/></g><g transform="matrix(.92583 0 0 .72917 -168.95 -234.45)"><use xlink:href="#l"/><use xlink:href="#m" transform="matrix(1.0801 0 0 1.37141 182.45 321.5)"/></g><g transform="matrix(.92583 0 0 .72917 -168.95 -234.45)"><use xlink:href="#n"/><use xlink:href="#o" transform="matrix(1.0801 0 0 1.37141 182.45 321.5)"/></g><use xlink:href="#p" transform="matrix(.92586 0 0 .72917 -168.95 -234.45)"/><g transform="matrix(.92583 0 0 .72917 -168.95 -234.45)"><use xlink:href="#q"/><use xlink:href="#r" transform="matrix(1.0801 0 0 1.37141 182.45 321.5)"/></g><g transform="matrix(.92583 0 0 .72917 -168.95 -234.45)"><use xlink:href="#s"/><use xlink:href="#t" transform="matrix(1.0801 0 0 1.37141 182.45 321.5)"/></g><use xlink:href="#u" transform="matrix(.92583 0 0 .72917 -168.95 -234.45)"/><g transform="matrix(.92583 0 0 .72917 -168.95 -234.45)"><use xlink:href="#v"/><use xlink:href="#w" transform="matrix(1.0801 0 0 1.37141 182.45 321.5)"/></g><g transform="matrix(.92583 0 0 .72917 -168.95 -234.45)"><use xlink:href="#x"/><use xlink:href="#y" transform="matrix(1.0801 0 0 1.37141 182.45 321.5)"/></g><use xlink:href="#z" transform="matrix(.92583 0 0 .72917 -168.95 -234.45)"/><g transform="matrix(.92583 0 0 .72917 -168.95 -234.45)"><use xlink:href="#A"/><use xlink:href="#B" transform="matrix(1.0801 0 0 1.37141 182.45 321.5)"/></g><g transform="matrix(.92583 0 0 .72917 -168.95 -234.45)"><use xlink:href="#C"/><use xlink:href="#D" transform="matrix(1.0801 0 0 1.37141 182.45 321.5)"/></g><use xlink:href="#E" transform="matrix(.92583 0 0 .72917 -168.95 -234.45)"/><g transform="matrix(.92583 0 0 .72917 -168.95 -234.45)"><use xlink:href="#F"/><use xlink:href="#G" transform="matrix(1.0801 0 0 1.37141 182.45 321.5)"/></g><g transform="matrix(.92583 0 0 .72917 -168.95 -234.45)"><use xlink:href="#H"/><use xlink:href="#I" transform="matrix(1.0801 0 0 1.37141 182.45 321.5)"/></g><use xlink:href="#J" transform="matrix(.92583 0 0 .72917 -168.95 -234.45)"/><g transform="matrix(.92583 0 0 .72917 -168.95 -234.45)"><use xlink:href="#K"/><use xlink:href="#L" transform="matrix(1.0801 0 0 1.37141 182.45 321.5)"/></g><g transform="matrix(.92583 0 0 .72917 -168.95 -234.45)"><use xlink:href="#M"/><use xlink:href="#N" transform="matrix(1.0801 0 0 1.37141 182.45 321.5)"/></g><g transform="matrix(.92583 0 0 .72917 -168.95 -234.45)"><use xlink:href="#O"/><use xlink:href="#P" transform="matrix(1.0801 0 0 1.37141 182.45 321.5)"/></g><g transform="matrix(.92583 0 0 .72917 -168.95 -234.45)"><use xlink:href="#Q"/><use xlink:href="#R" transform="matrix(1.0801 0 0 1.37141 182.45 321.5)"/></g><g transform="matrix(.92583 0 0 .72917 -168.95 -234.45)"><use xlink:href="#S"/><use xlink:href="#T" transform="matrix(1.0801 0 0 1.37141 182.45 321.5)"/></g><g transform="matrix(.92583 0 0 .72917 -168.95 -234.45)"><use xlink:href="#U"/><use xlink:href="#V" transform="matrix(1.0801 0 0 1.37141 182.45 321.5)"/></g><use xlink:href="#W" transform="matrix(.92586 0 0 .72917 -168.95 -234.45)"/><g transform="matrix(.92583 0 0 .72917 -168.95 -234.45)"><use xlink:href="#X"/><use xlink:href="#Y" transform="matrix(1.0801 0 0 1.37141 182.45 321.5)"/></g><g transform="matrix(.92583 0 0 .72917 -168.95 -234.45)"><use xlink:href="#Z"/><use xlink:href="#aa" transform="matrix(1.0801 0 0 1.37141 182.45 321.5)"/></g><g transform="matrix(.92583 0 0 .72917 -168.95 -234.45)"><use xlink:href="#ab"/><use xlink:href="#ac" transform="matrix(1.0801 0 0 1.37141 182.45 321.5)"/></g><use xlink:href="#ad" transform="matrix(.9258 0 0 .72917 -168.95 -234.45)"/><use xlink:href="#ae" transform="matrix(.92583 0 0 .72917 -168.95 -234.45)"/><use xlink:href="#af" transform="matrix(.92583 0 0 .72917 -168.95 -234.45)"/><use xlink:href="#ag" transform="matrix(.9258 0 0 .72917 -168.95 -234.45)"/><use xlink:href="#ah" transform="matrix(.92583 0 0 .72917 -168.95 -234.45)"/><use xlink:href="#ai" transform="matrix(.9258 0 0 .72917 -168.95 -234.45)"/><use xlink:href="#aj" transform="matrix(.9258 0 0 .72917 -168.95 -234.45)"/><use xlink:href="#ak" transform="matrix(.92583 0 0 .72917 -168.95 -234.45)"/><use xlink:href="#al" transform="matrix(.9258 0 0 .72917 -168.95 -234.45)"/><use xlink:href="#am" transform="matrix(.9258 0 0 .72917 -168.95 -234.45)"/><use xlink:href="#an" transform="matrix(.92583 0 0 .72917 -168.95 -234.45)"/><use xlink:href="#ao" transform="matrix(.9258 0 0 .72917 -168.95 -234.45)"/><use xlink:href="#ap" transform="matrix(.92583 0 0 .72917 -168.95 -234.45)"/><use xlink:href="#aq" transform="matrix(.9258 0 0 .72917 -168.95 -234.45)"/><use xlink:href="#ar" transform="matrix(.9258 0 0 .72917 -168.95 -234.45)"/><use xlink:href="#as" transform="matrix(.9258 0 0 .72917 -168.95 -234.45)"/><use xlink:href="#at" transform="matrix(.9258 0 0 .72917 -168.95 -234.45)"/><use xlink:href="#au" transform="matrix(.9258 0 0 .72917 -168.95 -234.45)"/><use xlink:href="#av" transform="matrix(.9258 0 0 .72917 -168.95 -234.45)"/><use xlink:href="#aw" transform="matrix(.9258 0 0 .72917 -168.95 -234.45)"/><use xlink:href="#ax" transform="matrix(.9258 0 0 .72917 -168.95 -234.45)"/><use xlink:href="#ay" transform="matrix(.9258 0 0 .72917 -168.95 -234.45)"/><use xlink:href="#az" transform="matrix(.9258 0 0 .72917 -168.95 -234.45)"/><use xlink:href="#aA" transform="matrix(.9258 0 0 .72917 -168.95 -234.45)"/><use xlink:href="#aB" transform="matrix(.9258 0 0 .72917 -168.95 -234.45)"/><use xlink:href="#aC" transform="matrix(.9258 0 0 .72917 -168.95 -234.45)"/><use xlink:href="#aD" transform="matrix(.9258 0 0 .72917 -168.95 -234.45)"/><use xlink:href="#aE" transform="matrix(.9258 0 0 .72917 -168.95 -234.45)"/><use xlink:href="#aF" transform="matrix(.9258 0 0 .72917 -168.95 -234.45)"/><use xlink:href="#aG" transform="matrix(.9258 0 0 .72917 -168.95 -234.45)"/><use xlink:href="#aH" transform="matrix(.9258 0 0 .72917 -168.95 -234.45)"/><use xlink:href="#aI" transform="matrix(.9258 0 0 .72917 -168.95 -234.45)"/><use xlink:href="#aJ" transform="matrix(.9258 0 0 .72917 -168.95 -234.45)"/><use xlink:href="#aK" transform="matrix(.9258 0 0 .72917 -168.95 -234.45)"/><use xlink:href="#aL" transform="matrix(.9258 0 0 .72917 -168.95 -234.45)"/><use xlink:href="#aM" transform="matrix(.9258 0 0 .72917 -168.95 -234.45)"/><use xlink:href="#aN" transform="matrix(.9258 0 0 .72917 -168.95 -234.45)"/><use xlink:href="#aO" transform="matrix(.9258 0 0 .72917 -168.95 -234.45)"/><use xlink:href="#aP" transform="matrix(.9258 0 0 .72917 -168.95 -234.45)"/><use xlink:href="#aQ" transform="matrix(.9258 0 0 .72917 -168.95 -234.45)"/><use xlink:href="#aR" transform="matrix(.9258 0 0 .72917 -168.95 -234.45)"/><use xlink:href="#aS" transform="matrix(.9258 0 0 .72917 -168.95 -234.45)"/><use xlink:href="#aT" transform="matrix(.9258 0 0 .72917 -168.95 -234.45)"/><use xlink:href="#aU" transform="matrix(.9258 0 0 .72917 -168.95 -234.45)"/><use xlink:href="#aV" transform="matrix(.9258 0 0 .72917 -168.95 -234.45)"/><use xlink:href="#aW" transform="matrix(.9258 0 0 .72917 -168.95 -234.45)"/><use xlink:href="#aX" transform="matrix(.9258 0 0 .72917 -168.95 -234.45)"/><g transform="matrix(.92583 0 0 .72917 -168.95 -234.45)"><use xlink:href="#aY"/><use xlink:href="#aZ" transform="matrix(1.0801 0 0 1.37141 182.45 321.5)"/></g><g transform="matrix(.92583 0 0 .72917 -168.95 -234.45)"><use xlink:href="#ba"/><use xlink:href="#bb" transform="matrix(1.0801 0 0 1.37141 182.45 321.5)"/></g><g transform="matrix(.92583 0 0 .72917 -168.95 -234.45)"><use xlink:href="#bc"/><use xlink:href="#bd" transform="matrix(1.0801 0 0 1.37141 182.45 321.5)"/></g></svg>