<svg xmlns="http://www.w3.org/2000/svg" xmlns:xlink="http://www.w3.org/1999/xlink" preserveAspectRatio="none" width="200" height="105"><defs><path fill="#D74452" d="M182.5 465.5h216v-144h-216v144z" id="a"/><path fill="#00857F" d="M218.45 429.5H362.5v-71.95H218.45v71.95z" id="b"/><path fill="#FFF" d="M282.5 376.55q-7 7-7 16.95 0 10 7 17 7.05 7 17 7 2.55 0 4.4-.4-8.4-1.6-13.85-8.2-5.55-6.65-5.55-15.4 0-8.7 5.55-15.35 5.45-6.6 13.85-8.2-1.85-.4-4.4-.4-9.95 0-17 7z" id="c"/></defs><use xlink:href="#a" transform="matrix(.92589 0 0 .72917 -168.95 -234.45)"/><use xlink:href="#b" transform="matrix(.92589 0 0 .72917 -168.95 -234.45)"/><use xlink:href="#c" transform="matrix(.92589 0 0 .72917 -168.95 -234.45)"/></svg>