<svg xmlns="http://www.w3.org/2000/svg" xmlns:xlink="http://www.w3.org/1999/xlink" preserveAspectRatio="none" width="200" height="105"><defs><path fill="#FFF" d="M146.45 465.55H434.5V321.5H146.45v144.05z" id="a"/><path fill="#F2653C" d="M434.5 331.8v-10.3H146.45v10.3H434.5z" id="b"/><path fill="#F2653C" d="M434.5 352.4v-10.3H146.45v10.3H434.5z" id="c"/><path fill="#F2653C" d="M434.5 372.95v-10.3H146.45v10.3H434.5z" id="d"/><path fill="#F2653C" d="M434.5 393.5v-10.25H146.45v10.25H434.5z" id="e"/><path fill="#F2653C" d="M146.45 403.9v10.2H434.5v-10.2H146.45z" id="f"/><path fill="#F2653C" d="M146.45 424.4v10.25H434.5V424.4H146.45z" id="g"/><path fill="#F2653C" d="M146.45 444.95v10.3H434.5v-10.3H146.45z" id="h"/><path fill="#213A65" d="M289.95 321.5h-143.5v82.4h143.5v-82.4z" id="i"/><path fill="#FFE132" d="M237 372.8l2.35 16.1 2.3-16.1 9.05 13.5-4.95-15.45 13.95 8.25-11.1-11.85 16.15 1.3-15.15-5.75 15.05-5.75-16.15 1.25 11.25-11.85-14 8.35 4.95-15.55-9.05 13.55-2.3-16.1-2.35 16.1-9-13.55 4.9 15.55-14-8.35 11.25 11.85-16.15-1.25 15.05 5.75-15.15 5.75 16.2-1.3-11.15 11.85 13.95-8.25-4.9 15.45 9-13.5z" id="j"/><path fill="#FFE132" d="M222.85 337.3q-7.95-5.5-17.7-5.5-12.8 0-21.9 9.1-9.05 9.05-9.05 21.9 0 12.85 9.05 21.9 9.1 9.05 21.9 9.05 9.75 0 17.6-5.45-4.8 1.85-9.85 1.85-11.3 0-19.35-8-8-8-8-19.35 0-11.35 8-19.4 8-8 19.35-8 5.1 0 9.95 1.9z" id="k"/></defs><use xlink:href="#a" transform="matrix(.6943 0 0 .72888 -101.7 -234.35)"/><use xlink:href="#b" transform="matrix(.69427 0 0 .72885 -101.7 -234.35)"/><use xlink:href="#c" transform="matrix(.69427 0 0 .72885 -101.7 -234.35)"/><use xlink:href="#d" transform="matrix(.69427 0 0 .72885 -101.7 -234.35)"/><use xlink:href="#e" transform="matrix(.69427 0 0 .72885 -101.7 -234.35)"/><use xlink:href="#f" transform="matrix(.69427 0 0 .72885 -101.7 -234.35)"/><use xlink:href="#g" transform="matrix(.69427 0 0 .72885 -101.7 -234.35)"/><use xlink:href="#h" transform="matrix(.69427 0 0 .72885 -101.7 -234.35)"/><use xlink:href="#i" transform="matrix(.6943 0 0 .72888 -101.7 -234.35)"/><use xlink:href="#j" transform="matrix(.69427 0 0 .72885 -101.7 -234.35)"/><use xlink:href="#k" transform="matrix(.69427 0 0 .72885 -101.7 -234.35)"/></svg>