<svg xmlns="http://www.w3.org/2000/svg" xmlns:xlink="http://www.w3.org/1999/xlink" preserveAspectRatio="none" width="200" height="105"><defs><path fill="#FFF" d="M405.7 372.95v-10.3H175.25v10.3H405.7z" id="a"/><path fill="#FFF" d="M175.25 414.1v10.3H405.7v-10.3H175.25z" id="b"/><path fill="#00857F" d="M405.7 362.65V321.5H175.25v41.15H405.7z" id="c"/><path fill="#373535" d="M175.25 372.95v41.15H405.7v-41.15H175.25z" id="d"/><path fill="#FFF215" d="M175.25 424.4v41.15H405.7V424.4H175.25z" id="e"/><path fill="#EE333E" d="M278.25 393.5l-103-72v144.05l103-72.05z" id="f"/><g id="g"><path fill="#373535" d="M213.2 367.2l-6.35 19.7H186l16.95 12.25-6.55 19.65 16.8-12.2 16.7 12.2-6.35-19.8 16.85-12.05h-20.8l-6.4-19.75m-6.15 19.95l6.15-19.1 6.2 19.15h20.2l-16.35 11.7v.1l6.2 19.15-16.25-11.85-16.3 11.85 6.3-19 .05-.1-16.5-11.9h20.3z"/><path fill="#FFF215" d="M213.2 368.05l-6.15 19.1h-20.3l16.5 11.9-.05.1-6.3 19 16.3-11.85 16.25 11.85-6.2-19.15v-.1l16.35-11.7h-20.2l-6.2-19.15z"/></g><path fill="#FFF" d="M223.3 390.55q-4.55-1.7-10.05-.5-5.4-1.2-10 .5l-1.3 1.45-4 12.9h12.7q.3.5 1.15.85.75.3 1.45.3.75 0 1.5-.3.85-.3 1.15-.85h12.75l-4-12.9-1.35-1.45z" id="h"/><path fill="#373535" d="M222.4 379.15q-.05.35.05 1.15l-2.35 2.1-1.75-.05-2.9 2.45q-.15.15.45.85l-.15.15q-.9-.9-.75-1.15l-3.85 3.55q-.2.15.2.65.6.6.8.35l3.45-3.1.2.25-3.65 3.25q-.25.3-1.05-.5-.3-.35-.4-.75-.05-.35.05-.45l-2.35 2.1q-.3.25-.2.5l-7.45 6.15q-.45.45-.7.3l-.05 1.2q0 .9.25.65l4.65-4.2-.45-.2.35-.3.7.45 3.5-3.2.25.3-3.25 2.95-.7 1-.5-.45-4.7 4.3q-.05-.05-.2-.05-.15 0-.25.05l-2.4 2.3q-1.45.35-2.2.95-1.2.95-3.75 3.4-.3.2.15.65.9 1.05 2.55 2.8.4.4.75 0 4.55-5.7 5.7-7.1.75-1 .65-1.15l3.15-2.85q.4.4 1.05.25-.25.05-.7-.55l.9-.8.75.8-1.2 1.05-1.1-.05-1.7 1.55q.1.25.8.65.55.35.6.8.1.95.45 1.8.25.55.45.6.25.1.7-.3.5-.45.55-.7.05-.2-.2-.85-.75-1.65-.75-2.5l2.2-2q-.45-.5-.65-.75-.35-.5-.3-.7l.6-.5q3.4 3.4 9.5 3.4l.15-2.95q-2.3 0-4.35-.7-2.05-.65-3.1-1.75l1.8-1.6q-.95-1.05-.9-1.45l.35-.3q-.05.45 1.2 1.8l4.5-4.1q.9-.8.95-.9.4-.45.3-.8l2.1-1.9 1.15 1.3 5.2-4.7q.3.35.4.35.15.05.45-.25l8.15-7.5q.6-.55.4-.55-.15-.05-.65.3l-8.9 6.5-.35-.4.4-.35q.15-.1-.15-.45-.35-.3-.45-.2l-.8.75-.4-.45-.15.15-.7-.75q-.4-.45-.4.4z" id="s"/><path fill="#373535" d="M193.1 388.9l3.85 4.3 6.95-9.15q.4-.5.4-1.3v-.95q0-.8.15-.95.55-.05 1.1-.35.65-.4.7-.85.05.5-.5.95-.55.5-1.2.45l1.45 1.55q.5.5 1.5 0 7.1 8 22.95 26.15.4.4.95-.15.55-.55.2-1l-23-26.15q.15-.2.25-.55.05-.4-.1-.6l-1.6-1.75q-.45-.55-.65-.8-.3-.3-.85-.5-.8-.25-1.6.4-.5.4-.7 1.1-.05.35-.4.7-.25.25-.6.25-.2-.05-1.05-.3-.9-.2-1.1-.15-.45.15-1.25 1.35l-5.85 8.3z" id="t"/><path id="i" stroke="#373535" stroke-width=".1" stroke-linejoin="miter" stroke-linecap="butt" stroke-miterlimit="4" fill="none" d="M32.958 49.938q-4.686-.874-8.678.365l-1.128 1.057-3.471 9.402H30.7q.261.364.999.62.65.218 1.258.218.65 0 1.302-.219.737-.218.998-.62h11.064l-3.471-9.401-1.172-1.057q-3.948-1.24-8.721-.365z"/><path id="j" stroke="#373535" stroke-width=".1" stroke-linejoin="miter" stroke-linecap="butt" stroke-miterlimit="4" fill="none" d="M32.951 59.547q1.432-.765 4.903-1.02 3.645-.328 6.031.255"/><path id="k" stroke="#373535" stroke-width=".1" stroke-linejoin="miter" stroke-linecap="butt" stroke-miterlimit="4" fill="none" d="M32.951 59.547q.564 0 1.302.4.694.365.998.803"/><path id="l" stroke="#373535" stroke-width=".1" stroke-linejoin="miter" stroke-linecap="butt" stroke-miterlimit="4" fill="none" d="M43.885 58.782q.174.4.911 1.057.825.728 1.519.91"/><path id="m" stroke="#373535" stroke-width=".1" stroke-linejoin="miter" stroke-linecap="butt" stroke-miterlimit="4" fill="none" d="M43.885 58.782l-2.213-8.491"/><path id="n" stroke="#373535" stroke-width=".1" stroke-linejoin="miter" stroke-linecap="butt" stroke-miterlimit="4" fill="none" d="M32.951 59.547q-1.388-.765-4.86-1.02-3.644-.328-6.03.255"/><path id="o" stroke="#373535" stroke-width=".1" stroke-linejoin="miter" stroke-linecap="butt" stroke-miterlimit="4" fill="none" d="M32.951 59.547q-.564 0-1.258.4-.694.365-.998.803"/><path id="p" stroke="#373535" stroke-width=".1" stroke-linejoin="miter" stroke-linecap="butt" stroke-miterlimit="4" fill="none" d="M22.06 58.782q-.13.364-.867 1.057-.868.728-1.518.91"/><path id="q" stroke="#373535" stroke-width=".1" stroke-linejoin="miter" stroke-linecap="butt" stroke-miterlimit="4" fill="none" d="M22.06 58.782l2.214-8.491"/><path id="r" stroke="#373535" stroke-width=".1" stroke-linejoin="miter" stroke-linecap="butt" stroke-miterlimit="4" fill="none" d="M32.951 59.547v-9.62"/></defs><use xlink:href="#a" transform="matrix(.8678 0 0 .72885 -152.1 -234.35)"/><use xlink:href="#b" transform="matrix(.8678 0 0 .72885 -152.1 -234.35)"/><use xlink:href="#c" transform="matrix(.86783 0 0 .72888 -152.1 -234.35)"/><use xlink:href="#d" transform="matrix(.86783 0 0 .72888 -152.1 -234.35)"/><use xlink:href="#e" transform="matrix(.86783 0 0 .72888 -152.1 -234.35)"/><use xlink:href="#f" transform="matrix(.86783 0 0 .72888 -152.1 -234.35)"/><use xlink:href="#g" transform="matrix(.86783 0 0 .72888 -152.1 -234.35)"/><g transform="matrix(.8678 0 0 .72885 -152.1 -234.35)"><use xlink:href="#h"/><use xlink:href="#i" transform="matrix(1.15233 0 0 1.372 175.25 321.5)"/></g><use xlink:href="#j" transform="matrix(1 0 0 1 -.024 -.034)"/><use xlink:href="#k" transform="matrix(1 0 0 1 -.024 -.034)"/><use xlink:href="#l" transform="matrix(1 0 0 1 -.024 -.034)"/><use xlink:href="#m" transform="matrix(1 0 0 1 -.024 -.034)"/><use xlink:href="#n" transform="matrix(1 0 0 1 -.024 -.034)"/><use xlink:href="#o" transform="matrix(1 0 0 1 -.024 -.034)"/><use xlink:href="#p" transform="matrix(1 0 0 1 -.024 -.034)"/><use xlink:href="#q" transform="matrix(1 0 0 1 -.024 -.034)"/><use xlink:href="#r" transform="matrix(1 0 0 1 -.024 -.034)"/><use xlink:href="#s" transform="matrix(.8678 0 0 .72885 -152.1 -234.35)"/><use xlink:href="#t" transform="matrix(.8678 0 0 .72885 -152.1 -234.35)"/></svg>