<svg xmlns="http://www.w3.org/2000/svg" xmlns:xlink="http://www.w3.org/1999/xlink" preserveAspectRatio="none" width="200" height="105"><defs><path fill="#009E6D" d="M398.5 321.5L182.45 465.55H398.5V321.5z" id="a"/><path fill="#0071B8" d="M182.45 465.55L398.5 321.5H182.45v144.05z" id="b"/><path fill="#FDBA3A" d="M214.3 354.5l-10.3-1.4 6.4 8.25-9.65 3.95 9.65 3.9-6.4 8.25 10.3-1.35-1.35 10.25 8.3-6.45 3.85 9.75 3.85-9.75 8.3 6.45-1.35-10.25 10.3 1.35-6.4-8.25 9.65-3.9-9.65-3.95 6.4-8.25-10.3 1.4 1.35-10.3-8.3 6.45-3.85-9.75-3.85 9.75-8.3-6.45 1.35 10.3z" id="c"/><path fill="#FFF" d="M398.5 350.2v-28.7h-43.1L182.45 436.85v28.7h43.1L398.5 350.2z" id="f"/><path fill="#CF2E4D" d="M398.5 340.8v-19.3h-28.95l-187.1 124.75v19.3h28.9L398.5 340.8z" id="g"/><path id="d" stroke="#0071B8" stroke-width=".05" stroke-linejoin="miter" stroke-linecap="butt" stroke-miterlimit="4" fill="none" d="M19.94 23.018l5.925 6.013-8.933 2.88 8.933 2.842-5.924 6.013 9.534-.984-1.25 7.471 7.684-4.7 3.564 7.106 3.564-7.107 7.683 4.701-1.25-7.47 9.535.983-5.925-6.013 8.933-2.842-8.933-2.88 5.925-6.013-9.535 1.02 1.25-7.507-7.683 4.701-3.564-7.106-3.564 7.106-7.683-4.7 1.25 7.507-9.535-1.02z"/><path id="e" stroke="#0071B8" stroke-width="2.5" stroke-linejoin="miter" stroke-linecap="butt" stroke-miterlimit="4" fill="none" d="M39.473 41.714q5.184 0 8.794-2.88 3.656-2.878 3.656-6.923 0-4.082-3.656-6.961-3.61-2.88-8.794-2.88-5.184 0-8.794 2.88-3.657 2.879-3.657 6.96 0 4.046 3.657 6.925 3.61 2.879 8.794 2.879z"/></defs><use xlink:href="#a" transform="matrix(.92569 0 0 .72888 -168.9 -234.35)"/><use xlink:href="#b" transform="matrix(.92569 0 0 .72888 -168.9 -234.35)"/><g transform="matrix(.92569 0 0 .72888 -168.9 -234.35)"><use xlink:href="#c"/><use xlink:href="#d" transform="matrix(1.08026 0 0 1.37196 182.45 321.5)"/></g><use xlink:href="#e" transform="matrix(.99999 0 0 1 -.008 -.014)"/><use xlink:href="#f" transform="matrix(.92569 0 0 .72888 -168.9 -234.35)"/><use xlink:href="#g" transform="matrix(.92569 0 0 .72888 -168.9 -234.35)"/></svg>