<svg xmlns="http://www.w3.org/2000/svg" xmlns:xlink="http://www.w3.org/1999/xlink" preserveAspectRatio="none" width="200" height="105"><defs><g id="a"><path fill="#FAE600" d="M37.8 40.75q-.105.05-.25.05-.836.223-1.85.35-4.101.513-7.75-.65 2.609.9 5.4.9h.4q1.482-.04 2.9-.35.588-.106 1.15-.3m-4.45-28.5V8.6q-3.35 0-6.4 1.3-2.95 1.25-5.2 3.5-1.465 1.498-2.5 3.25-.564.938-1 1.95-1.3 3.05-1.3 6.4 0 3.35 1.3 6.4.436 1.012 1 1.95 1.035 1.752 2.5 3.25 2.183 2.183 5 3.4 2.505-2.554 3.5-3.35.9-.7 2.95-.7h.15v-.75q-.8 0-1.3-.75-.55-.8-.55-1.9 0-1.1.55-1.9.5-.75 1.3-.75v-.25q-.75 0-1.4.45-.7.45-1 1.25-.5 1.25-1.05 2.2-.3.45-.45.65.1-.45.25-1.2.25-1.5.4-2.95.1-.9.85-1.4.85-.55 2.4-.55v-.65h-2.8 2.8v-.65q-.95 0-1.6-.4-.65-.45-.65-1 0-.6.65-1t1.6-.4v-.65h-2.8 2.8v-.7q-1.45 0-2.15-.25-1.15-.45-1.2-1.8-.05-.75-.25-1.7l-.25-.8.5.65q.55.75.8 1.2.45 1 1.15 1.35.5.25 1.4.25v-.45q-.95 0-1.6-.65-.65-.65-.65-1.55 0-.95.65-1.6.65-.65 1.6-.65V14.6q-.148.107-.3.2-.4.25-.95.5-.5.15-.55.2-.25.25-.45.3l-.15.05q.05-.2.05-.9.05-.7.05-.75.1-.55.55-.95.4-.3 1.15-.7.34-.151.6-.3M44.9 36.6q1.498-1.498 2.55-3.25.564-.938 1-1.95 1.25-3.05 1.25-6.4 0-3.35-1.25-6.4-.436-1.012-1-1.95-1.052-1.752-2.55-3.25-2.25-2.25-5.2-3.5-3.05-1.3-6.35-1.3v3.65q.775-.313.85-.35.9-.45 1.5-1 .3-.25.3-.3l.05.25q0 .35-.25.8-1.083 1.985-2.45 2.95v2.05q.9 0 1.55.65t.65 1.6q0 .9-.65 1.55t-1.55.65v.45q.85 0 1.35-.25.7-.35 1.2-1.35.2-.45.75-1.2.3-.35.5-.65l-.2.8q-.25.95-.3 1.7-.05 1.35-1.2 1.8-.7.25-2.1.25v.7h2.75-2.75V24q.9 0 1.55.4t.65 1q0 .55-.65 1-.65.4-1.55.4v.65h2.75-2.75v.65q1.5 0 2.35.55.8.5.85 1.4.15 1.45.45 2.95.1.75.2 1.2-.15-.2-.45-.65-.55-.95-1.05-2.2-.3-.8-1-1.25-.65-.45-1.35-.45v.25q.75 0 1.3.75.5.8.5 1.9 0 1.1-.5 1.9-.55.75-1.3.75v.75q1.931.026 2.75.7.75.65 2.25 2.15.706.754 1.25 1.3.064.015.1 0 2.95-1.25 5.2-3.5z"/><path d="M33.35 35.95h-.15q-2.05 0-2.95.7-.995.796-3.5 3.35v.05q.604.248 1.2.45 3.649 1.163 7.75.65 1.014-.127 1.85-.35.145 0 .25-.05 1.068-.212 1.9-.55l-.1-.1q-.544-.546-1.25-1.3-1.5-1.5-2.25-2.15-.819-.674-2.75-.7v.7-.7m0-6.05q-.8 0-1.3.75-.55.8-.55 1.9 0 1.1.55 1.9.5.75 1.3.75v-5.3m1.3.75q-.55-.75-1.3-.75v5.3q.75 0 1.3-.75.5-.8.5-1.9 0-1.1-.5-1.9m1.9-.6q-.05-.9-.85-1.4-.85-.55-2.35-.55-1.55 0-2.4.55-.75.5-.85 1.4-.15 1.45-.4 2.95-.15.75-.25 1.2.15-.2.45-.65.55-.95 1.05-2.2.3-.8 1-1.25.65-.45 1.4-.45.7 0 1.35.45.7.45 1 1.25.5 1.25 1.05 2.2.3.45.45.65-.1-.45-.2-1.2-.3-1.5-.45-2.95M33.35 24q-.95 0-1.6.4-.65.4-.65 1 0 .55.65 1 .65.4 1.6.4V24m1.55.4q-.65-.4-1.55-.4v2.8q.9 0 1.55-.4.65-.45.65-1 0-.6-.65-1m-.2-3.1q-.5.25-1.35.25v1.1q1.4 0 2.1-.25 1.15-.45 1.2-1.8.05-.75.3-1.7l.2-.8q-.2.3-.5.65-.55.75-.75 1.2-.5 1-1.2 1.35m-1.35-4.65q-.95 0-1.6.65-.65.65-.65 1.6 0 .9.65 1.55t1.6.65v-4.45m1.55.65q-.65-.65-1.55-.65v4.45q.9 0 1.55-.65t.65-1.55q0-.95-.65-1.6m-1.85-2.5q.152-.093.3-.2v-2.35q-.26.149-.6.3-.75.4-1.15.7-.45.4-.55.95 0 .05-.05.75 0 .7-.05.9l.15-.05q.2-.05.45-.3.05-.05.55-.2.55-.25.95-.5M30 18.75l-.5-.65.25.8q.2.95.25 1.7.05 1.35 1.2 1.8.7.25 2.15.25v-1.1q-.9 0-1.4-.25-.7-.35-1.15-1.35-.25-.45-.8-1.2m5.8-7.1q.25-.45.25-.8L36 10.6q0 .05-.3.3-.6.55-1.5 1-.075.037-.85.35v2.35q1.367-.965 2.45-2.95z"/><path fill="#ED4135" d="M19.25 16.65H0v16.7h19.25q-.564-.938-1-1.95-1.3-3.05-1.3-6.4 0-3.35 1.3-6.4.436-1.012 1-1.95M100 33.35v-16.7H47.45q.564.938 1 1.95 1.25 3.05 1.25 6.4 0 3.35-1.25 6.4-.436 1.012-1 1.95H100z"/><path fill="#009543" d="M100 50V33.35H47.45q-1.052 1.752-2.55 3.25-2.25 2.25-5.2 3.5-.036.015-.1 0l.1.1q-.832.338-1.9.55-.562.194-1.15.3-1.418.31-2.9.35h-.4q-2.791 0-5.4-.9-.596-.202-1.2-.45V40q-2.817-1.217-5-3.4-1.465-1.498-2.5-3.25H0V50h100z"/><path fill="#0035AD" d="M100 16.65V0H0v16.65h19.25q1.035-1.752 2.5-3.25 2.25-2.25 5.2-3.5 3.05-1.3 6.4-1.3 3.3 0 6.35 1.3 2.95 1.25 5.2 3.5 1.498 1.498 2.55 3.25H100z"/></g><path id="b" stroke="#000" stroke-width="5" stroke-linejoin="miter" stroke-linecap="butt" stroke-miterlimit="4" fill="none" d="M19.25 16.65q1.035-1.752 2.5-3.25 2.25-2.25 5.2-3.5 3.05-1.3 6.4-1.3 3.3 0 6.35 1.3 2.95 1.25 5.2 3.5 1.498 1.498 2.55 3.25m0 16.7q-1.052 1.752-2.55 3.25-2.25 2.25-5.2 3.5-.036.015-.075.025m-1.8.65q-.587.169-1.175.275-1.418.31-2.875.35H33.35q-2.791 0-5.375-.9m-1.2-.475q-2.842-1.242-5.025-3.425-1.465-1.498-2.5-3.25m28.2-16.7q.564.938 1 1.95 1.25 3.05 1.25 6.4 0 3.35-1.25 6.4-.436 1.012-1 1.95m-28.2 0q-.564-.938-1-1.95-1.3-3.05-1.3-6.4 0-3.35 1.3-6.4.436-1.012 1-1.95"/><path id="c" stroke="#000" stroke-width="6" stroke-linejoin="miter" stroke-linecap="butt" stroke-miterlimit="4" fill="none" d="M33.35 14.6v2.05m0 4.45v.45m0 1.1v.7h2.75M33.35 8.6v6m0 6.95v1.1m0-6v4.45m0 5.7v.65h2.75m-2.75-4.1V26.8m-2.8-3.45h2.8m0 6.3v.25m0 5.3v.75m0-7.85v-.65h-2.8m2.8 2.45v5.3m0 .75v.7"/></defs><g transform="scale(2 2.1)"><use xlink:href="#a"/><use xlink:href="#b"/><use xlink:href="#c"/></g></svg>