<svg xmlns="http://www.w3.org/2000/svg" xmlns:xlink="http://www.w3.org/1999/xlink" preserveAspectRatio="none" width="200" height="105"><defs><path fill="#FFF" d="M374.5 417.55V369.5H206.45v48.05H374.5z" id="a"/><path fill="#F9A347" d="M374.5 369.5v-48H206.45v48H374.5z" id="b"/><path fill="#008752" d="M206.45 417.55v48H374.5v-48H206.45z" id="c"/><path fill="#F9A347" d="M282 385.05q-3.55 3.5-3.55 8.45 0 5 3.55 8.5 3.5 3.55 8.5 3.55 4.95 0 8.5-3.55 3.5-3.5 3.5-8.5 0-4.95-3.5-8.45-3.55-3.55-8.5-3.55-5 0-8.5 3.55z" id="d"/></defs><use xlink:href="#a" transform="matrix(1.1901 0 0 .72888 -245.7 -234.35)"/><use xlink:href="#b" transform="matrix(1.1901 0 0 .72888 -245.7 -234.35)"/><use xlink:href="#c" transform="matrix(1.1901 0 0 .72888 -245.7 -234.35)"/><use xlink:href="#d" transform="matrix(1.1901 0 0 .72888 -245.7 -234.35)"/></svg>