<svg xmlns="http://www.w3.org/2000/svg" xmlns:xlink="http://www.w3.org/1999/xlink" preserveAspectRatio="none" width="200" height="105"><defs><g id="a"><path fill="#FFF" d="M60.9 105h78.2V0H60.9v105m40.4-91.65l.5.1q.6.1.8.3v.2q0 .35-.6.55l-.6.2v1.15l.7-.2q.7-.2.9-.1v.1q0 .4-1.2 1.35l-.1.65v.7h.1q.1.15.6.25.6.2.7.3l.1.1h-.1q0 .1-1.6.85l-.1.4q0 .55.2.75v.1h.3q.4 0 2.9-.75 2.2-.4 2 .75v.1q-1.7.1-3 .45-2.7.4-2.1.8.7 0 3.2-.2 2.1-.1 2.2.45 0 .3-3.1.5-2.9.2-2.6.65l.9.1q.9 0 1.6-.1 1.3-.35 2-.45 1.4 0 1.6.75.1.75-1.9.85-2.5 0-3.3.1-.6.3-.6.75.1.5.9.6.1 0 3.3-.6 2.9-.45 2.1.6-1.8.3-3.3.65-2.9.5-3.1 1.25.3 0 3-.3 2.4-.35 3.9 0v1.75q0 1.15.1 1.8h-5.9q-.7.3-.7.65 0 .4.6.7 1 0 3.5-.4 2.1-.2 2.4.4-.1.25-2.9.75-2.6.4-2.3.75.1 0 2.1-.45 1.5-.3 3.4 0 1.9.25.8.95l-1.4.65q-.9-.2-2-.3-2.1-.35-3.5.1-1.3.4-.7 1.05.4.3.9.5l1.5-.6q2-.55 4.2-.35 2 .2 3.2 1.5.4.4.6.95.2.4.1.5-.1.1-.3 0-.7-.2-4.4.4-3 .65-5.1 1.2-.7.2-.8.4v.1q.1.2.5.4.3.15.5.15l11.3-1.7q2.2-.3 1.8.65-.1.4-.8 1.05l.3 1.25-4.4 1.65 1 .45q1.3.5 2.9.5 2 0 2.7.95.3.45 0 .75-.4.3-1.3.3-1.6-.1-3.7.45l-1.8.6 2.1.2q2.4.25 4.1.25 1.8-.15 1.6.8-.1.45-.5.85 0 .1.6.55.5.5.2.95-.1.3-.6.2-.6-.2-1-.35-1.4-.4-1.8.85-.5 1.4-1.6 1.8-.4.1-2.1.4-1 .1-.9.65.2.65 1.6.4 1-.1 3.4-1.35 1.9-.85 2.1.95l1.6-1.45q1.6-1.3 1.5.2-1.7 2.2-5 3.35-1.1.3-2.2.5-1 .15-1.1.15-.4.4-.7.8-.7.85-.5 1.15.1.15.4.15 1.9-.95 4.3-1.6 3.7-.95 4.2.65-.2.6-2.2.95l-1.8.1q-.3.3-1.6.5-1.8.3-2.1.45-.2 0-.4.1-.4.3-.4.5-.1 0-.1.1.1.2.4.35.1 0 2.5-.65 2.3-.4 2.3.65l.9-.15q.9-.1 1.8-.1 2.5 0 2.4 1.6-.2.2-3.3.6l-3 .35q-.5 0-1 .1-1 .2-1.2.3v.1q.2.2 1.8.45.2-.1 1.5-.1t2.4-.15q2.9-.7 3-.3 0 .2-1 .65-.9.5-1.3.6-.5 0-2.7.25l-2.2.2q-.8.4-1.6 1.05-1.6 1.05-1.7 1.15v.1q.2.1 1.5-.1 1.2-.2 2.1-.55.6-.2 1.8-.8 1.2-.35 2 .3.8-.55 1.9-.85 1-.3 1.6-.2.7.1.5.6-.3.55-1.7 1.4-1.3.3-1.9.4-1.5.3-3.3.3-1.8.35-3.4.75-3.3.85-2.6 1.25 1.5-.4 2.9-.5 2.2-.2 3.2.3 2.1-.75 2.2-.75 1.6-.3 2.3.45 2.2-.65 3.2-.2.9.4.3 1.15-.4.6-2.5.95-1.9.3-3.5.1-1.3-.2-1.8.7-.2.35 0 .65.2.4.7.4.5.15 1.3-.1.4-.1 1.3-.4 1.7-.3 2.3.85 1.5-1.25 3.1-.85.6.1.8.65.2.4-.3 1.15-3 .1-7.5-.25-5-.4-7.5-.5-.5.3-.5.5 0 .25.6.55 1.2.2 4.3.2 2.6.1 2.9.85.7-.55 1.7-.4 1.1 0 2 .5.3-.2 1.1-.3.8-.1 1.6 0 2 .2.9 1.25-.3.2-7.2 0-6.5-.2-6.2.2l2.8.45q3 .5 3.7 1.05.8-.65 2.3-.45.8.2 1.7.45.3 0 1.7-.65 1.4-.4 1.8.75-1.6 1.85-7.9 1.05-1.8-.25-4.3-.75-2-.55-2.1-.4h-.2q-.1.1-.2.7-.2.55-.5.75-1.1-.1-1.5.4-.2.65-.3.75h-.1v.1q-.3.1-2.2-.4l-1.9-.65q-.2 0-.6.1-.7.35-1.3 1.4-.6 1.05 0 7.85.4 3.35.8 6.6l-5.6-.1v-14.6h-.4l-1.7.75q-.2-.85-.3-.95-.5-.6-1.5.3-1 1.05-2 .35-.4-.35-.6-.65l-.2-.3q-1.1.4-3 .95-3.9.95-8.2.7-2.5-.3-3.5-1.05-.9-.5-.3-1.05.6-.5 2.1-.4 1.7 0 3.6.75-1.2-1.8.1-2 .8-.1 3.9.5 1.8-2.3 4.1-1.25.2 0 1.4.75.6.4.7.1.2-.85-.9-1.25-1-.45-3.4-.75-.9-.1-2.4.2-1.7.55-2.7.75-3.7.85-7-.75Q72.5 77.5 74 76q.5-.4 1.5-.7.9-.35 1.4-.25.6 0 2.6.95.9.55 1.9.95 0-.1-.2-.7-.2-.55-.2-.65h.2q.1 0 .2-.1 0-.45-3.2-2.3-3-1.7-1.1-1.6.9.1 2.6.55v-.35q.2-.3.5-.4 1.2-.1 4.3 1.8-.1-.65 1.7-1.05.9-.25 2-.25-2.3-.5-4.6-1.15-4.5-1.25-4.7-2-.3-.8 1.4-.2.9.35 2.7 1.15-.2-1.15 1.4-.4.7.3 1.7.85-.2-.35-.1-.75l.3-.5 3 .8q2.9.75 2.7-.1-.2-.85-5.5-1.55l-5.2-.75q-.2-.1-.3-.4-.4-.55-.4-1.05 0-.55 2.5 0 2.6.6 2.8.3.1-.3 1.8.1 1.6.3 1.7.2.1-.1-.1-.3-.3-.3-2.1-.75-.5-.1-3.5-.6-2.2-.45-3-.75-1-.3-.3-.75 1.5-.7 4.3.1 1.4.35 2.5.95-.1-.4-.2-.7-.2-.85-.2-.95 1.1.2 2.3 1.05.7.4 1.1.95l.5-1.5q1.2.45 5.8 2.4 2.7 1.2 2.5.35-.3-1.5-9.4-3.6-5.9-1.35-6-1.35-2.6-.65-2.2-1.05.8-.5 3.1-.4 1.2.1 2.2.3l3.5 1.35q.3-.1.4-.3.2-.55-.7-1.6-.7-.7-5.2-1.15-2-.1-2.6-.2-.9-.2-.3-.6 2-1.4 3.6-.85.8.2 1.2.85l.2-1.05q1.4.1 2.5.6.9.3 2 1.25.1-.1.1-.4.1-.3.1-.4 1 .2 2.1.6.6.3 1.8 1.05 0-.2.1-.5 0-.65.1-.75.2 0 1.9 1.15 1.7.95 1.8.85.2-.2-.4-.95-1.2-1.7-6.1-2.5-1.5-.25-3.9-.55-2.5-.3-3-.3-1.1-.2-1.6-.65-.5-.4-.4-.75.2-.4 1.1-.4.9-.1 2.4.3-.9-.5-1.9-.95-1-.3-1.4-.4-.5-.3-.6-.5-.2-.45.1-1.05-.9-.45-1.2-1.05-.2-.35-.2-.65 1-.85 2.2-.75 1.1.1 2.1.95L86.2 48q.2.1 1.5.7 1.4.75 1.5.75l-.3-.2q-.9-.65-1-1.05 0-.2.3-1.05-1.3-.2-2.8-.65-1.9-.5-1.5-1.15 2.3-1.35 4.5-.2.5.3 1.4.95.6.5.8.4.4-.2.2-.6l-.2-.55L96 47.9q5 2.1 3.1.5-1.7-1.45-8-3.45-3-.95-4-1.25-1.8-.55-1.8-.75.1-.2 1.2-.55 1.2-.3 1.3-.5v-.1q0-.35-.9-.75-1.1-.4-1.2-.5v-.15q.2-.3 2.4-.7 2.4-.55 3.4 0 1.8.95 4.5 2 3.4 1.15 2.8.2-.5-.95-5-2.2l-4.4-1.15q-.3-.1-.4-.45-.3-.4.1-1.05-3.3-.1-2.1-1.05.5-.4 1.8-.95l5.8 2.1q5.7 1.9 4.5.75-1.1-1.15-5.6-2.6L89.2 34q.4-.5.4-.7h-.2q-.4.2-.9-.35l-.3-.6.6-.55q.7-.6 1.2-.85.6-.3 3.7 0 1.6.25 3 .45l2 .5q1.7.45.8-.4-.7-.65-5.2-.95-1.9-.2-2.4-.3-.9-.1-.1-.55 1.2-.6 4.7-.1.8.1 2.1.3 1 .25 1 0-.2-.4-2.6-.9-2.4-.55-3.9-.45-1.2 0-2.2-.75-.6-.5-.9-1.05 0-.3 3.7.15 4.2.4 5.2.2-.8-.65-3.2-.85-2.4-.3-2.5-.3 0-.85 2.3-.65 2.1.2 3.6 1.05.7-.1.8-.4.1-.45-.4-.85-.8-.3-3.8-.55-2.3-.1-2.1-.5-.1-.45 2.3-.45l3.9.15q-.2-.45-3.2-1.05-2.9-.75-3-.85.1-.65 2.9-.1 2.7.4 2.8.3-1.1-.95-3.1-1.8-1.7-.7-1.7-.85v-.1l.1-.1q1.3-.5 3.3.65 1 .6 1.8 1.35.1-.5 0-1.25-.1-.4-1-1.35l-1-.75.9-.1q.9-.2 1.2-.45v-.1q0-.3-.8-1.15l-.8-.7.6.1q.7 0 .9-.25l.1-.1q.1-.1 0-.3-.1-.4-.8-1.05l-.7-.5 1.9-.35.5-5.85.6 6.3m1.3 63.4v.75l1.4.2q1.4.1 1.7-.2.1-.1.1-.2-.2-.35-.9-.45-.6-.2-1.4-.2-.5 0-.9.1m-15.1-.2l-.3.1q.3.5 1.3 1.05.5.2.9.4v-1.05q-.3-.1-.6-.3-.7-.2-1.3-.2m11.4 1.25l.1-.1q.3-.2.1-.75-.2-.5-.2-.6-.2 0-.6-.1Q97.6 76 97 76q-.8.1-1.2.55.1.6 1.5 1.05 1.2.4 1.6.2m-5.2-4.7v.1q0 .2.8.6.7.45 1.1.45.6.4 3.3.5V73.7q-.5-.1-1.2-.2-1.4-.1-2 0-.7-.3-.7-.4-.5-.25-.8-.25-.3.1-.5.25m1.7-5.15H95q-.3.4 1.7 1.35 2 .85 2.4.2-.4-.4-1-.85-1.1-.6-2.7-.7m3.9-12.85q-6.3-2.4-8-2.3-.4.1-.6.2v.25l8.7 2.9-.1-1.05m-3-3.95q2.8 1.15 3.1 1.25v-.95q-1.2-.65-2.5-1.05-2.6-1.05-3.4-1.05-.7.1-.4.65.1-.15 3.2 1.15m12 17.4q.4.1.8.1.7 0 .9-.3l-.1-.1v-.1q-.2-.1-.3-.1-.3 0-.8.3l-.5.2M105.8 74q.4-.6-.3-.6-.3 0-1.5.3-1.1.3-1.5.2l.1.85 1.3.1q1.3-.1 1.9-.85m-1.1-3q-.1-.15-.4-.15-.4 0-1 .25-.6.1-.7.1v.5l.9.1q1-.1 1.2-.5l.1-.2V71h-.1m1.2-8.4v-.15q-.2-.2-.9-.1-.4 0-1.3.1-.9.15-1.2.15v.7l1.5-.1q1.5-.2 1.8-.6h.1m2 1.15l.1-.1q-.1-.15-.2-.15-.6 0-2.9.65-2.1.55-2.2.55l-.1.7 2.2-.5q2.4-.65 3.1-1.15m3.2.95q-.3-.35-1-.25-1.5 0-3.7.75-2.3.75-3.8 1.7l-.1.6v.1q.1-.1 3.2-.95 3.2-.8 4-.7.7-.2 1.1-.75.3-.3.3-.5m-8.5-4.85l.1 1.55q6.6-2.1 7-2.5.2-.3.2-.4v-.1q0-.25-.6-.15-1.6 0-6.7 1.6m-.2-1.05l1.5-.2q1.7-.35 2.4-.95.2-.2.2-.3-.1-.25-.6-.25-.7.1-2.1.35l-1.3.2h-.1v1.15m.9-3.55q-.8-.15-.9-.15l.2.95.7-.1q.8-.2 1-.4v-.1h-.1q-.1-.1-.9-.2m3.1-2.45v-.1q-.1-.1-.6-.1-.6.1-2.1.3l-1.3.1v.95q3.5-.7 4-1.15m.3-2.8h.1q-.1-.15-.6-.15-.8.15-2.4.35-1.3.2-1.6.2v.85q4.1-.85 4.5-1.25m-4.4-1.9h-.1q-.1.7 0 .85.5 0 2.6-.55 2.6-.65 3.1-1.05l.1-.1h-.1q0-.1-.4-.1-.8.1-3 .5l-2.2.45m3.6-4.85h-.3q-.6 0-2 .3l-1.4.45v.85l1.6-.45q1.7-.5 2.1-.95v-.2m-4.3-5.35l.1 1.35 2.2-.4q2.2-.4 2.6-.95.3-.3-1.2-.3-.9 0-2.3.2-1.3.1-1.4.1m1.1-7.05q0-.1-.6-.2h-.7v.3q0 .35.1.35h.5q.6-.1.7-.35v-.1M101.5 29l.1 1.15 1.3-.25q1.3-.2 1.5-.5v-.1q-.2-.2-1.5-.3h-1.4m-8.3 12.8q-.4 0-.5.3 0 .1.1.3.2.25 3.4 1.4 1.6.5 3.2 1.05l-.1-1.05q-4.7-2.1-6.1-2m-2.1 1.9l-.1.3 8.6 3.15v-.95q-5.9-2.95-7.8-2.85-.6 0-.7.35m2.5-10.95q-.6.1-.7.2l-.1.1v.15h.1l.1.1q.4 0 3.3.8 2.8.75 2.9.85v-.1-1.05q-4-1.05-5.6-1.05m2.5 2.65v.1q.1.4 3.5 1.45.1-.1.1-.6l-.1-.55-1.2-.3q-1.4-.2-1.9-.2-.3 0-.4.1m3.6-7.6h-.1q-.3.15-.6.15-.6.1-.8.3h-.1v.1q.3.2 1.6.3v-.85z"/><path fill="#007934" d="M101.8 13.45l-.5-.1-.6-6.3-.5 5.85-1.9.35.7.5q.7.65.8 1.05.1.2 0 .3l-.1.1q-.2.25-.9.25l-.6-.1.8.7q.8.85.8 1.15v.1q-.3.25-1.2.45l-.9.1 1 .75q.9.95 1 1.35.1.75 0 1.25-.8-.75-1.8-1.35-2-1.15-3.3-.65l-.1.1v.1q0 .15 1.7.85 2 .85 3.1 1.8-.1.1-2.8-.3-2.8-.55-2.9.1.1.1 3 .85 3 .6 3.2 1.05l-3.9-.15q-2.4 0-2.3.45-.2.4 2.1.5 3 .25 3.8.55.5.4.4.85-.1.3-.8.4-1.5-.85-3.6-1.05-2.3-.2-2.3.65.1 0 2.5.3 2.4.2 3.2.85-1 .2-5.2-.2-3.7-.45-3.7-.15.3.55.9 1.05 1 .75 2.2.75 1.5-.1 3.9.45 2.4.5 2.6.9 0 .25-1 0-1.3-.2-2.1-.3-3.5-.5-4.7.1-.8.45.1.55.5.1 2.4.3 4.5.3 5.2.95.9.85-.8.4l-2-.5q-1.4-.2-3-.45-3.1-.3-3.7 0-.5.25-1.2.85l-.6.55.3.6q.5.55.9.35h.2q0 .2-.4.7l4.3 1.3q4.5 1.45 5.6 2.6 1.2 1.15-4.5-.75l-5.8-2.1q-1.3.55-1.8.95-1.2.95 2.1 1.05-.4.65-.1 1.05.1.35.4.45l4.4 1.15q4.5 1.25 5 2.2.6.95-2.8-.2-2.7-1.05-4.5-2-1-.55-3.4 0-2.2.4-2.4.7v.15q.1.1 1.2.5.9.4.9.75v.1q-.1.2-1.3.5-1.1.35-1.2.55 0 .2 1.8.75 1 .3 4 1.25 6.3 2 8 3.45 1.9 1.6-3.1-.5l-5.4-2.55.2.55q.2.4-.2.6-.2.1-.8-.4-.9-.65-1.4-.95-2.2-1.15-4.5.2-.4.65 1.5 1.15 1.5.45 2.8.65-.3.85-.3 1.05.1.4 1 1.05l.3.2q-.1 0-1.5-.75-1.3-.6-1.5-.7l.3 1.55q-1-.85-2.1-.95-1.2-.1-2.2.75 0 .3.2.65.3.6 1.2 1.05-.3.6-.1 1.05.1.2.6.5.4.1 1.4.4 1 .45 1.9.95-1.5-.4-2.4-.3-.9 0-1.1.4-.1.35.4.75.5.45 1.6.65.5 0 3 .3 2.4.3 3.9.55 4.9.8 6.1 2.5.6.75.4.95-.1.1-1.8-.85-1.7-1.15-1.9-1.15-.1.1-.1.75-.1.3-.1.5-1.2-.75-1.8-1.05-1.1-.4-2.1-.6 0 .1-.1.4 0 .3-.1.4-1.1-.95-2-1.25-1.1-.5-2.5-.6l-.2 1.05q-.4-.65-1.2-.85-1.6-.55-3.6.85-.6.4.3.6.6.1 2.6.2 4.5.45 5.2 1.15.9 1.05.7 1.6-.1.2-.4.3l-3.5-1.35q-1-.2-2.2-.3-2.3-.1-3.1.4-.4.4 2.2 1.05.1 0 6 1.35 9.1 2.1 9.4 3.6.2.85-2.5-.35-4.6-1.95-5.8-2.4l-.5 1.5q-.4-.55-1.1-.95-1.2-.85-2.3-1.05 0 .1.2.95.1.3.2.7-1.1-.6-2.5-.95-2.8-.8-4.3-.1-.7.45.3.75.8.3 3 .75 3 .5 3.5.6 1.8.45 2.1.75.2.2.1.3-.1.1-1.7-.2-1.7-.4-1.8-.1-.2.3-2.8-.3-2.5-.55-2.5 0 0 .5.4 1.05.1.3.3.4l5.2.75q5.3.7 5.5 1.55.2.85-2.7.1l-3-.8-.3.5q-.1.4.1.75-1-.55-1.7-.85-1.6-.75-1.4.4-1.8-.8-2.7-1.15-1.7-.6-1.4.2.2.75 4.7 2 2.3.65 4.6 1.15-1.1 0-2 .25-1.8.4-1.7 1.05-3.1-1.9-4.3-1.8-.3.1-.5.4v.35q-1.7-.45-2.6-.55-1.9-.1 1.1 1.6 3.2 1.85 3.2 2.3-.1.1-.2.1H81q0 .1.2.65.2.6.2.7-1-.4-1.9-.95-2-.95-2.6-.95-.5-.1-1.4.25-1 .3-1.5.7-1.5 1.5 2.1 3.05 3.3 1.6 7 .75 1-.2 2.7-.75 1.5-.3 2.4-.2 2.4.3 3.4.75 1.1.4.9 1.25-.1.3-.7-.1-1.2-.75-1.4-.75-2.3-1.05-4.1 1.25-3.1-.6-3.9-.5-1.3.2-.1 2-1.9-.75-3.6-.75-1.5-.1-2.1.4-.6.55.3 1.05 1 .75 3.5 1.05 4.3.25 8.2-.7 1.9-.55 3-.95l.2.3q.2.3.6.65 1 .7 2-.35 1-.9 1.5-.3.1.1.3.95l1.7-.75h.4v14.6l5.6.1q-.4-3.25-.8-6.6-.6-6.8 0-7.85.6-1.05 1.3-1.4.4-.1.6-.1l1.9.65q1.9.5 2.2.4v-.1h.1q.1-.1.3-.75.4-.5 1.5-.4.3-.2.5-.75.1-.6.2-.7h.2q.1-.15 2.1.4 2.5.5 4.3.75 6.3.8 7.9-1.05-.4-1.15-1.8-.75-1.4.65-1.7.65-.9-.25-1.7-.45-1.5-.2-2.3.45-.7-.55-3.7-1.05l-2.8-.45q-.3-.4 6.2-.2 6.9.2 7.2 0 1.1-1.05-.9-1.25-.8-.1-1.6 0t-1.1.3q-.9-.5-2-.5-1-.15-1.7.4-.3-.75-2.9-.85-3.1 0-4.3-.2-.6-.3-.6-.55 0-.2.5-.5 2.5.1 7.5.5 4.5.35 7.5.25.5-.75.3-1.15-.2-.55-.8-.65-1.6-.4-3.1.85-.6-1.15-2.3-.85-.9.3-1.3.4-.8.25-1.3.1-.5 0-.7-.4-.2-.3 0-.65.5-.9 1.8-.7 1.6.2 3.5-.1 2.1-.35 2.5-.95.6-.75-.3-1.15-1-.45-3.2.2-.7-.75-2.3-.45-.1 0-2.2.75-1-.5-3.2-.3-1.4.1-2.9.5-.7-.4 2.6-1.25 1.6-.4 3.4-.75 1.8 0 3.3-.3.6-.1 1.9-.4 1.4-.85 1.7-1.4.2-.5-.5-.6-.6-.1-1.6.2-1.1.3-1.9.85-.8-.65-2-.3-1.2.6-1.8.8-.9.35-2.1.55-1.3.2-1.5.1v-.1q.1-.1 1.7-1.15.8-.65 1.6-1.05l2.2-.2q2.2-.25 2.7-.25.4-.1 1.3-.6 1-.45 1-.65-.1-.4-3 .3-1.1.15-2.4.15-1.3 0-1.5.1-1.6-.25-1.8-.45v-.1q.2-.1 1.2-.3.5-.1 1-.1l3-.35q3.1-.4 3.3-.6.1-1.6-2.4-1.6-.9 0-1.8.1l-.9.15q0-1.05-2.3-.65-2.4.65-2.5.65-.3-.15-.4-.35 0-.1.1-.1 0-.2.4-.5.2-.1.4-.1.3-.15 2.1-.45 1.3-.2 1.6-.5l1.8-.1q2-.35 2.2-.95-.5-1.6-4.2-.65-2.4.65-4.3 1.6-.3 0-.4-.15-.2-.3.5-1.15.3-.4.7-.8.1 0 1.1-.15 1.1-.2 2.2-.5 3.3-1.15 5-3.35.1-1.5-1.5-.2l-1.6 1.45q-.2-1.8-2.1-.95-2.4 1.25-3.4 1.35-1.4.25-1.6-.4-.1-.55.9-.65 1.7-.3 2.1-.4 1.1-.4 1.6-1.8.4-1.25 1.8-.85.4.15 1 .35.5.1.6-.2.3-.45-.2-.95-.6-.45-.6-.55.4-.4.5-.85.2-.95-1.6-.8-1.7 0-4.1-.25l-2.1-.2 1.8-.6q2.1-.55 3.7-.45.9 0 1.3-.3.3-.3 0-.75-.7-.95-2.7-.95-1.6 0-2.9-.5l-1-.45 4.4-1.65-.3-1.25q.7-.65.8-1.05.4-.95-1.8-.65l-11.3 1.7q-.2 0-.5-.15-.4-.2-.5-.4v-.1q.1-.2.8-.4 2.1-.55 5.1-1.2 3.7-.6 4.4-.4.2.1.3 0 .1-.1-.1-.5-.2-.55-.6-.95-1.2-1.3-3.2-1.5-2.2-.2-4.2.35l-1.5.6q-.5-.2-.9-.5-.6-.65.7-1.05 1.4-.45 3.5-.1 1.1.1 2 .3l1.4-.65q1.1-.7-.8-.95-1.9-.3-3.4 0-2 .45-2.1.45-.3-.35 2.3-.75 2.8-.5 2.9-.75-.3-.6-2.4-.4-2.5.4-3.5.4-.6-.3-.6-.7 0-.35.7-.65h5.9q-.1-.65-.1-1.8v-1.75q-1.5-.35-3.9 0-2.7.3-3 .3.2-.75 3.1-1.25 1.5-.35 3.3-.65.8-1.05-2.1-.6-3.2.6-3.3.6-.8-.1-.9-.6 0-.45.6-.75.8-.1 3.3-.1 2-.1 1.9-.85-.2-.75-1.6-.75-.7.1-2 .45-.7.1-1.6.1l-.9-.1q-.3-.45 2.6-.65 3.1-.2 3.1-.5-.1-.55-2.2-.45-2.5.2-3.2.2-.6-.4 2.1-.8 1.3-.35 3-.45v-.1q.2-1.15-2-.75-2.5.75-2.9.75h-.3V21q-.2-.2-.2-.75l.1-.4q1.6-.75 1.6-.85h.1l-.1-.1q-.1-.1-.7-.3-.5-.1-.6-.25h-.1v-.7l.1-.65q1.2-.95 1.2-1.35v-.1q-.2-.1-.9.1l-.7.2V14.7l.6-.2q.6-.2.6-.55v-.2q-.2-.2-.8-.3M99.6 27.8h.1v.85q-1.3-.1-1.6-.3v-.1h.1q.2-.2.8-.3.3 0 .6-.15m-3.5 7.7v-.1q.1-.1.4-.1.5 0 1.9.2l1.2.3.1.55q0 .5-.1.6-3.4-1.05-3.5-1.45m-3.2-2.55q.1-.1.7-.2 1.6 0 5.6 1.05V34.95q-.1-.1-2.9-.85-2.9-.8-3.3-.8l-.1-.1h-.1v-.15l.1-.1M91 44l.1-.3q.1-.35.7-.35 1.9-.1 7.8 2.85v.95L91 44m1.7-1.9q.1-.3.5-.3 1.4-.1 6.1 2l.1 1.05q-1.6-.55-3.2-1.05-3.2-1.15-3.4-1.4-.1-.2-.1-.3m8.9-11.95l-.1-1.15h1.4q1.3.1 1.5.3v.1q-.2.3-1.5.5l-1.3.25m.5.5q.6.1.6.2v.1q-.1.25-.7.35h-.5q-.1 0-.1-.35v-.3h.7m-.4 8.6l-.1-1.35q.1 0 1.4-.1 1.4-.2 2.3-.2 1.5 0 1.2.3-.4.55-2.6.95l-2.2.4m3.9 4h.3v.2q-.4.45-2.1.95l-1.6.45V44l1.4-.45q1.4-.3 2-.3m-3.4 4.85h.1l2.2-.45q2.2-.4 3-.5.4 0 .4.1h.1l-.1.1q-.5.4-3.1 1.05-2.1.55-2.6.55-.1-.15 0-.85m4.6 1.9h-.1q-.4.4-4.5 1.25v-.85q.3 0 1.6-.2 1.6-.2 2.4-.35.5 0 .6.15m-.4 2.7v.1q-.5.45-4 1.15V53l1.3-.1q1.5-.2 2.1-.3.5 0 .6.1m-4 2.4q.1 0 .9.15.8.1.9.2h.1v.1q-.2.2-1 .4l-.7.1-.2-.95m1.5 3.5l-1.5.2v-1.15h.1l1.3-.2q1.4-.25 2.1-.35.5 0 .6.25 0 .1-.2.3-.7.6-2.4.95m-1.2 2.8l-.1-1.55q5.1-1.6 6.7-1.6.6-.1.6.15v.1q0 .1-.2.4-.4.4-7 2.5m7.4 3.05q.7-.1 1 .25 0 .2-.3.5-.4.55-1.1.75-.8-.1-4 .7-3.1.85-3.2.95v-.1l.1-.6q1.5-.95 3.8-1.7 2.2-.75 3.7-.75m-2.1-.8l-.1.1q-.7.5-3.1 1.15l-2.2.5.1-.7q.1 0 2.2-.55 2.3-.65 2.9-.65.1 0 .2.15m-2.1-1.2v.15h-.1q-.3.4-1.8.6l-1.5.1v-.7q.3 0 1.2-.15.9-.1 1.3-.1.7-.1.9.1m-1.6 8.4q.3 0 .4.15h.1v.1l-.1.2q-.2.4-1.2.5l-.9-.1v-.5q.1 0 .7-.1.6-.25 1-.25m1.2 2.55q.7 0 .3.6-.6.75-1.9.85l-1.3-.1-.1-.85q.4.1 1.5-.2 1.2-.3 1.5-.3m3.6-4.75q-.4 0-.8-.1l.5-.2q.5-.3.8-.3.1 0 .3.1v.1l.1.1q-.2.3-.9.3M99.4 52.4q-.3-.1-3.1-1.25-3.1-1.3-3.2-1.15-.3-.55.4-.65.8 0 3.4 1.05 1.3.4 2.5 1.05v.95m-8.1.4q1.7-.1 8 2.3l.1 1.05-8.7-2.9V53q.2-.1.6-.2m4 15.15h.1q1.6.1 2.7.7.6.45 1 .85-.4.65-2.4-.2-2-.95-1.7-1.35h.3m-1.6 5.25v-.1q.2-.15.5-.25.3 0 .8.25 0 .1.7.4.6-.1 2 0 .7.1 1.2.2v1.05q-2.7-.1-3.3-.5-.4 0-1.1-.45-.8-.4-.8-.6m5.3 4.5l-.1.1q-.4.2-1.6-.2-1.4-.45-1.5-1.05.4-.45 1.2-.55.6 0 1.3.25.4.1.6.1 0 .1.2.6.2.55-.1.75m-11.8-1.05l.3-.1q.6 0 1.3.2.3.2.6.3v1.05q-.4-.2-.9-.4-1-.55-1.3-1.05m15.4.85v-.75q.4-.1.9-.1.8 0 1.4.2.7.1.9.45 0 .1-.1.2-.3.3-1.7.2l-1.4-.2M60.9 0H0v105h60.9V0M200 105V0h-60.9v105H200z"/></g></defs><use xlink:href="#a"/></svg>