<svg xmlns="http://www.w3.org/2000/svg" xmlns:xlink="http://www.w3.org/1999/xlink" preserveAspectRatio="none" width="200" height="105"><defs><g id="a"><path fill="#FFF" d="M50 56.9l-2.2 9.05-6.1-6.75 2.4 9.05-8.5-2.6 6.4 6.5-8.7 2.2 8.7 2.3-6.4 6.5 8.5-2.6-2.4 9 6.1-6.7L50 91.9l2.2-9.05 6.1 6.7-2.4-9 8.5 2.6-6.4-6.5 8.7-2.3-8.7-2.2 6.4-6.5-8.5 2.6 2.4-9.05-6.1 6.75L50 56.9z"/><path fill="#002B7F" d="M200 105V56.9H50l2.2 9.05 6.1-6.75-2.4 9.05 8.5-2.6-6.4 6.5 8.7 2.2-8.7 2.3 6.4 6.5-8.5-2.6 2.4 9-6.1-6.7L50 91.9l-2.2-9.05-6.1 6.7 2.4-9-8.5 2.6 6.4-6.5-8.7-2.3 8.7-2.2-6.4-6.5 8.5 2.6-2.4-9.05 6.1 6.75L50 56.9H0V105h200m0-56.9V0H0v48.1h200z"/><path fill="#FFC61E" d="M200 56.9v-8.8H0v8.8h200z"/></g></defs><use xlink:href="#a"/></svg>