<svg xmlns="http://www.w3.org/2000/svg" xmlns:xlink="http://www.w3.org/1999/xlink" preserveAspectRatio="none" width="200" height="105"><defs><g id="a"><path fill="#FCD116" d="M10.85 11.55l-.4-1.3-.5 1.55H9l.2.15H8.05l1.35.1.55.45.5.35-.05.05-.85.15-.6 1.7 1.15-.8-.2.65.85-.7 1.15.85-.35-1.1 1.3.95-.55-1.75.45-.35 1-.7h-1.8l-.6-1.75-.5 1.5M24.1 20.7l-.55 1.75 1.45-1.1 1.5 1.1-.55-1.75 1.45-1.05h-1.8L25 17.9l-.55 1.75h-1.8l1.45 1.05M25 8.25l-.95 2.95h-3.1L23.5 13l-1 2.95 2.5-1.8 2.5 1.8-.95-2.95 2.5-1.8H26l-1-2.95m2.4-4.6h-1.8L25 1.9l-.55 1.75h-1.8L24.1 4.7l-.55 1.75L25 5.35l1.5 1.1-.55-1.75 1.45-1.05m14.4 8.3h.2-.15l.7-.5h-1.8l-.6-1.75-.35 1.15-.2-.6-.4 1.2h-1.4l.7.5h-1.3l.75.55 1.1-.15.2.15-.1.25-1.2-.25.75.55-.55 1.7 1.45-1.05 1.45 1.05-.4-1.25 1 .75-.55-1.75.7-.55M100 50V0H50v25H0v25h100z"/><path fill="#002868" d="M37.95 12.5h1.3l-.2-.15-1.1.15m1.3 0h-1.3l1.2.25.1-.25m2.75-.55h-.2l-.7.55H50V0L28.8 10.6 50 0H25v1.9l.6 1.75h1.8L25.95 4.7l.55 1.75-1.5-1.1v2.9l1 2.95h3.05l-2.5 1.8.95 2.95-2.5-1.8-2.5 1.8 1-2.95-2.55-1.8h3.1L25 8.25v-2.9l-1.45 1.1.55-1.75-1.45-1.05h1.8L25 1.9V0H0l21.2 10.6L0 0v12.5h9.95l-.55-.45-1.35-.1H9.2L9 11.8h.95l.5-1.55.4 1.3.5-1.5.6 1.75h1.8l-1 .7h8-8l-.45.35.55 1.75-1.3-.95.35 1.1-1.15-.85-.85.7.2-.65-1.15.8.6-1.7.85-.15.05-.05-.5-.35H0V25l21.2-10.6L0 25h25v-3.65l-1.45 1.1.55-1.75-1.45-1.05h1.8L25 17.9v-1.15 1.15l.6 1.75h1.8l-1.45 1.05.55 1.75-1.5-1.1V25h25L28.8 14.4 50 25V12.5h-8.9l.55 1.75-1-.75.4 1.25-1.45-1.05-1.45 1.05.55-1.7-.75-.55h-8.7 8.7l-.75-.55h1.3l-.7-.5h1.4l.4-1.2.2.6.35-1.15.6 1.75h1.8l-.7.5H42z"/></g><path id="b" stroke="#CF142B" stroke-width="6" stroke-linejoin="miter" stroke-linecap="butt" stroke-miterlimit="4" fill="none" d="M50 12.5h-8.9m-3.15 0h-8.7M25 8.25v-2.9m0-3.45V0m0 16.75v1.15m0 3.45V25m14.25-12.5h-1.3m-25.175 0h7.975M0 12.5h9.975"/><path id="c" stroke="#FFF" stroke-width="6" stroke-linejoin="miter" stroke-linecap="butt" stroke-miterlimit="4" fill="none" d="M21.2 14.4L0 25M0 0l21.2 10.6M50 25L28.8 14.4m0-3.8L50 0"/></defs><g transform="scale(2 2.1)"><use xlink:href="#a"/><use xlink:href="#b"/><use xlink:href="#c"/></g></svg>