<svg xmlns="http://www.w3.org/2000/svg" xmlns:xlink="http://www.w3.org/1999/xlink" preserveAspectRatio="none" width="200" height="105"><defs><path fill="#FFF" d="M65.5 37.1q-5.6-2.3-9.4.2-4.1 2.75-4.1 9.05 0 6.2 3.8 12.45 3.9 6.1 9.4 8.5 5.5 2.55 9.3-.2 3.9-2.6 3.9-9.05.1-6.1-3.8-12.45-3.7-6-9.1-8.5m33.6 18.65Q90.7 56.8 84 63.2q-.1 0-.3.2-16.9 18.85-12.8 31.1l.1.1q5 8.55 13.7 5.6l12.6-4.65q4.2-1.05 7.2.3l8.7 3.6q10.55 4.2 15.35-3.25 3.1-8.45-1.6-18.05-.1-.2-.2-.3Q114.4 55.1 99.2 55.75h-.1m-2.8-35.5q-2-7.5-6.9-11.8-4.8-4.1-9.6-2.85-4.7 1.6-6.5 7.9-2 6.45.2 13.8 2 7.6 6.9 11.7 4.9 4.3 9.6 2.85 4.7-1.5 6.6-7.9 1.8-6.35-.3-13.7m31.05 7.05q2.1-7.35.3-13.8-1.9-6.3-6.7-7.9-4.65-1.25-9.45 2.85-4.8 4.3-7 11.8-2 7.35-.1 13.7 1.8 6.4 6.5 7.9 4.8 1.45 9.55-2.85 4.8-4.1 6.9-11.7m8 9.8q-5.4 2.5-9.3 8.5-3.7 6.35-3.7 12.45.1 6.45 3.9 9.05 4 2.75 9.4.2 5.6-2.4 9.3-8.5 3.8-6.25 3.7-12.45 0-6.3-3.8-9.05-3.9-2.5-9.5-.2z" id="a"/><path fill="#1F5393" d="M146.45 465.5H434.5V321.55H146.45V465.5z" id="b"/><path fill="#FFF" d="M146.45 321.55v8.75l30.4 15.2h-30.4v24.05h30.4l-30.4 15.2v8.75h17.4l42.5-21.15v21.15h23.9v-21.15l42.5 21.15h17.5v-8.75l-30.5-15.2h30.5V345.5h-30.5l30.5-15.2v-8.75h-17.5l-42.5 21.15v-21.15h-23.9v21.15l-42.5-21.15h-17.4z" id="c"/><g id="e"><path fill="#373535" d="M230.9 345.45l.05.2h11.5l47.85-24-.05-.25h-11.3l-48.05 24.05m11.55-.05h-11l47.5-23.75h10.8l-47.3 23.75z"/><path fill="#EE333E" d="M231.45 345.4h11l47.3-23.75h-10.8l-47.5 23.75z"/></g><g id="f"><path fill="#373535" d="M242.4 369.35l-.05.25 47.85 24 .15-.1v-5.7l-.05-.1-36.35-18.35H242.4m47.7 18.5v5.45l-47.2-23.7h11.05l36.15 18.25z"/><path fill="#EE333E" d="M290.1 393.3v-5.45l-36.15-18.25H242.9l47.2 23.7z"/></g><g id="g"><path fill="#373535" d="M146.5 321.45l-.2.1v5.7l.1.1 36.55 18.3h11.6l.05-.2-48.1-24m.05 5.75v-5.5l47.5 23.7h-11.1l-36.4-18.2z"/><path fill="#EE333E" d="M146.55 321.7v5.5l36.4 18.2h11.1l-47.5-23.7z"/></g><g id="h"><path fill="#373535" d="M146.4 393.4l.05.2h11.5l48.05-24-.05-.25h-11.5L146.4 393.4m11.55-.05h-11l47.5-23.75h11l-47.5 23.75z"/><path fill="#EE333E" d="M146.95 393.35h11l47.5-23.75h-11l-47.5 23.75z"/></g><g id="i"><path fill="#373535" d="M146.3 350.35v14.3h65v28.95h14.3v-28.95h64.75v-14.3H225.6V321.4h-14.3v28.95h-65m.25 14.05v-13.8h65v-28.95h13.8v28.95h64.75v13.8h-64.75v28.95h-13.8V364.4h-65z"/><path fill="#EE333E" d="M146.55 350.6v13.8h65v28.95h13.8V364.4h64.75v-13.8h-64.75v-28.95h-13.8v28.95h-65z"/></g><path fill="#FFF" d="M355.6 360.8l6.85-5 6.85 5-2.6-8.15 6.85-4.9h-8.45l-2.65-8.05-2.6 8.05h-8.5l6.9 5-2.65 8.05z" id="j"/><path fill="#FFF" d="M331.8 381.2l-2.65-8.1-2.55 8.05h-8.55l6.95 5.05-2.7 8.05 6.85-5 6.85 5-2.6-8.15 6.9-4.9h-8.5z" id="k"/><path fill="#FFF" d="M387.25 377.3l-2.4 7.35 6.25-4.55 6.25 4.55-2.4-7.4 6.3-4.5h-7.75l-2.4-7.4-2.35 7.35h-7.8l6.3 4.6z" id="l"/><path fill="#FFF" d="M374.85 433.95h-9.45l-2.95-9.05-2.9 9H350l7.75 5.6-3 9 7.7-5.55 7.65 5.55-2.95-9.05 7.7-5.5z" id="m"/><path fill="#EE333E" d="M358 357.25l4.45-3.25 4.45 3.25-1.7-5.25 4.45-3.15h-5.5l-1.7-5.25-1.65 5.2h-5.55l4.5 3.25-1.75 5.2z" id="n"/><path fill="#EE333E" d="M330.85 382.3l-1.7-5.25-1.65 5.2H322l4.45 3.25-1.7 5.2 4.4-3.25 4.45 3.25-1.7-5.25 4.45-3.15h-5.5z" id="o"/><path fill="#EE333E" d="M389.7 374.1h-4.65l3.75 2.7-1.45 4.4 3.75-2.7 3.75 2.7-1.45-4.4 3.75-2.7h-4.6l-1.45-4.4-1.4 4.4z" id="p"/><path fill="#EE333E" d="M365.65 438.95l5.15-3.7h-6.4l-1.95-6.1-1.95 6.05h-6.45l5.25 3.8-2.05 6.05 5.2-3.75 5.15 3.75-1.95-6.1z" id="q"/><path id="d" stroke="#373535" stroke-width=".25" stroke-linejoin="miter" stroke-linecap="butt" stroke-miterlimit="4" fill="none" d="M.095.072h12.077L41.67 15.488V.072h16.588v15.416L87.755.072h12.146V6.45L78.732 17.529h21.17v17.53h-21.17l21.17 11.078v6.378H87.754L58.258 37.099v15.416H41.67V37.099L12.172 52.515H.095v-6.378l21.1-11.079H.095v-17.53h21.1L.095 6.45V.072z"/></defs><use xlink:href="#a"/><use xlink:href="#b" transform="matrix(.69406 0 0 .72888 -101.55 -234.3)"/><g transform="matrix(.69406 0 0 .72888 -101.55 -234.3)"><use xlink:href="#c"/><use xlink:href="#d" transform="matrix(1.44078 0 0 1.37196 146.3 321.45)"/></g><use xlink:href="#e" transform="matrix(.69403 0 0 .72885 -101.55 -234.3)"/><use xlink:href="#f" transform="matrix(.69403 0 0 .72885 -101.55 -234.3)"/><use xlink:href="#g" transform="matrix(.69403 0 0 .72885 -101.55 -234.3)"/><use xlink:href="#h" transform="matrix(.69403 0 0 .72885 -101.55 -234.3)"/><use xlink:href="#i" transform="matrix(.69403 0 0 .72885 -101.55 -234.3)"/><use xlink:href="#j" transform="matrix(.69403 0 0 .72885 -101.55 -234.3)"/><use xlink:href="#k" transform="matrix(.69403 0 0 .72885 -101.55 -234.3)"/><use xlink:href="#l" transform="matrix(.69403 0 0 .72885 -101.55 -234.3)"/><use xlink:href="#m" transform="matrix(.69403 0 0 .72885 -101.55 -234.3)"/><use xlink:href="#n" transform="matrix(.69403 0 0 .72885 -101.55 -234.3)"/><use xlink:href="#o" transform="matrix(.69403 0 0 .72885 -101.55 -234.3)"/><use xlink:href="#p" transform="matrix(.69403 0 0 .72885 -101.55 -234.3)"/><use xlink:href="#q" transform="matrix(.69403 0 0 .72885 -101.55 -234.3)"/></svg>