<svg xmlns="http://www.w3.org/2000/svg" xmlns:xlink="http://www.w3.org/1999/xlink" preserveAspectRatio="none" width="200" height="105"><defs><path fill="#FFF" d="M65.5 37.1q-5.6-2.3-9.4.2-4.1 2.75-4.1 9.05 0 6.2 3.8 12.45 3.9 6.1 9.4 8.5 5.5 2.55 9.3-.2 3.9-2.6 3.9-9.05.1-6.1-3.8-12.45-3.7-6-9.1-8.5m33.6 18.65Q90.7 56.8 84 63.2q-.1 0-.3.2-16.9 18.85-12.8 31.1l.1.1q5 8.55 13.7 5.6l12.6-4.65q4.2-1.05 7.2.3l8.7 3.6q10.55 4.2 15.35-3.25 3.1-8.45-1.6-18.05-.1-.2-.2-.3Q114.4 55.1 99.2 55.75h-.1m-2.8-35.5q-2-7.5-6.9-11.8-4.8-4.1-9.6-2.85-4.7 1.6-6.5 7.9-2 6.45.2 13.8 2 7.6 6.9 11.7 4.9 4.3 9.6 2.85 4.7-1.5 6.6-7.9 1.8-6.35-.3-13.7m31.05 7.05q2.1-7.35.3-13.8-1.9-6.3-6.7-7.9-4.65-1.25-9.45 2.85-4.8 4.3-7 11.8-2 7.35-.1 13.7 1.8 6.4 6.5 7.9 4.8 1.45 9.55-2.85 4.8-4.1 6.9-11.7m8 9.8q-5.4 2.5-9.3 8.5-3.7 6.35-3.7 12.45.1 6.45 3.9 9.05 4 2.75 9.4.2 5.6-2.4 9.3-8.5 3.8-6.25 3.7-12.45 0-6.3-3.8-9.05-3.9-2.5-9.5-.2z" id="a"/><path fill="#F2653F" d="M159.95 463.05H448V319H159.95v144.05z" id="b"/><path fill="#FFF" d="M448 367.2V319H246.65v48.2H448z" id="c"/><path fill="#009E6D" d="M246.65 414.55v48.5H448v-48.5H246.65z" id="d"/><path fill="#FFF" d="M208.05 343.45l-1-.7q-13.68 19.23-28.15 28.55-1.66 1.074-2.4 1.8-1.128 1.113-.6 1.8v-.05q.368 1.07 2.4.7 1.465-.243 2.85-1.05 8.815-4.887 17.1-13h.05q7.596-7.46 12.8-15.7l-1.05-.65q-5.134 8.11-12.65 15.45-8.165 7.987-16.85 12.8-1.215.693-2.5.9-.842.182-1.05 0 .093-.03.4-.35.66-.624 2.15-1.6h.05q14.63-9.43 28.45-28.9z" id="e"/><path fill="#FFF" d="M206.65 342.75l-.05.05-.05.1q-.46.704 1.75 2.35h.05q2.493 1.753 2.95.75h-.05q8.893-13.845 11.35-18.15 2.24-3.954 1.2-4.5-.869-.781-3.85 2.65-3.183 3.756-13.3 16.75m2.4 1.5q-1.11-.833-1.3-.85 9.998-12.874 13.15-16.6 2.104-2.41 2.2-2.45-.014.106-1.6 2.9-2.443 4.294-11.3 18.1v.05q.182-.215-1.15-1.15z" id="f"/><path fill="#FFF" d="M182.45 369.35q-.951-.11-1.9.5v.05l-4.05 2.8v-.05q-1.44.899-1 2.15v.05q.348 1.375 2.8.95 1.86-.346 3.8-1.4v-.05q.68-.37 3.35-2.2 1.032-.667.85-1 .194-.586-1.25-1.1-1.716-.615-2.6-.7m-.1 1.25q.738.074 2.25.6-2.498 1.73-3.15 2.1h.05q-1.76.946-3.45 1.25-1.122.225-1.35-.1-.048-.406.45-.75h.05l4.05-2.8q.54-.333 1.05-.3h.05z" id="g"/><path fill="#FFF" d="M198.5 342.75l-1 .7q13.82 19.47 28.45 28.9 1.602 1.04 2.1 1.5.43.378.5.45-.208.182-1.1 0-1.189-.206-2.45-.9-8.672-4.813-16.8-12.8h-.05q-7.565-7.34-12.7-15.45l-1.05.65q5.215 8.24 12.9 15.7 8.272 8.113 17.1 13 1.439.806 2.8 1.05h.05q2.032.37 2.4-.7v.05q.604-.797-.75-2v.05q-.552-.528-2.3-1.65h.05q-14.47-9.32-28.15-28.55z" id="h"/><path fill="#FFF" d="M181.75 323.3v.05q-1.04.546 1.2 4.5 2.509 4.32 11.3 18.15.457 1.003 2.95-.75.964-.657 1.35-1.1.891-.894.35-1.4-10.067-12.994-13.3-16.75-2.921-3.426-3.85-2.7m2.3 3.95q-1.435-2.528-1.6-2.85.317.194 2.2 2.4 3.188 3.71 13.05 16.45v.05q-.364.357-1.2.9v.05q-1.332.935-1.15 1.15l-.05-.05q-8.759-13.82-11.25-18.15v.05z" id="i"/><path fill="#FFF" d="M225.05 369.85H225q-.966-.604-1.9-.5-.859.076-2.65.7h.05q-1.444.514-1.3 1.1-.132.333.9 1 2.87 1.931 3.35 2.2v.05h.05q1.888 1.055 3.7 1.4h.05q2.509.427 2.8-.95.523-1.307-1.05-2.2l.05.05-4-2.8v-.05m-1.85.75q.58-.038 1.15.3l4 2.8.05.05q.532.31.45.7-.201.32-1.4.1-1.638-.305-3.35-1.25-.459-.273-3.15-2.1 1.513-.526 2.25-.6z" id="j"/><path fill="#FFF" d="M204.75 330.1q-.158-.08-.35-.1l-2.4.05q-.193.03-.35.15-.173.114-.25.3-.06.185 0 .35.226.859.2 2.25.03 2.208-.45 3.2-.354.603-1.4 1.35-.126.088-.2.2-.073.155-.1.3v20.9q.02.263.2.45.187.179.45.15 4.024.03 5.6-2.25 1.223-1.598 1.2-4.8v-14.45q.024-.16-.05-.3-.072-.137-.2-.25-1.013-.655-1.35-1.3-.48-.992-.5-3.2.022-1.548.2-2.3.046-.19-.05-.4-.041-.16-.2-.3m-1.1 1.15q-.073.772-.1 1.85.03 2.592.65 3.75h-.05q.373.814 1.5 1.6v14.15q.027 2.698-.95 4.05-1.194 1.6-4 1.75v-19.95q1.151-.837 1.55-1.55v-.05q.62-1.158.6-3.75.024-1.026-.1-1.8l.9-.05z" id="k"/><path fill="#FFF" d="M205.7 326.75q-.974-.777-2.45-.8-1.476.023-2.5.8-1.142.908-1.15 2.15.001 1.237 1.15 2.05v.05q1.03.821 2.5.8 1.47.021 2.45-.8l.05-.05q1.149-.813 1.1-2.05.042-1.242-1.15-2.15m-2.45.45q1.025.027 1.7.55.658.492.65 1.15 0 .648-.65 1.1-.69.579-1.7.55-1.01.029-1.7-.55h-.05q-.6-.452-.65-1.1.042-.658.65-1.15.725-.523 1.75-.55z" id="l"/><path fill="#FFF" d="M203.2 327.5q1.37.025 1.3-1.2.07-1.225-1.3-1.25-1.3.025-1.3 1.25t1.3 1.2z" id="m"/><path fill="#FFF" d="M200.45 327.5q-1.325.025-1.35 1.35.025 1.325 1.35 1.3 1.325.025 1.3-1.3.025-1.325-1.3-1.35m-.1 1.35q.025-.075.1-.1.075.025.05.1.025.075-.05.05-.075.025-.1-.05z" id="n"/><path fill="#FFF" d="M207.3 328.85q.025-1.325-1.3-1.35-1.325.025-1.35 1.35.025 1.325 1.35 1.3 1.325.025 1.3-1.3m-1.3-.1q.075.025.05.1.025.075-.05.05-.075.025-.1-.05.025-.075.1-.1z" id="o"/><path fill="#FFF" d="M206.4 356l-1.15-.45q-.242.588-2.25 2.35l.85.95q2.342-2.089 2.55-2.85z" id="p"/><path fill="#FFF" d="M201.25 352.05q.02-.285-.05-.45-.189-.464-.65-.45-.096-.045-1.05.5h-.05q-.586.356-3.3.65-2.597.373-4.75.45-2.621.134-3.65 1.05-.908.871-.25 1.85.402.699 1.85 1.45 2.89 1.498 6.45 2.2 3.549.73 5.65.25.075.012.1 0l2.4-.5-.05-.55-2.5-.2q-.187.016-.3-.2-.228-.495-.25-1.5v-.05q-.071-2.49.25-3.7.145-.521.15-.8m-5.2 6.05v-.05q-3.378-.648-6.1-2.05-1.052-.549-1.4-1-.043-.12.05-.25.82-.634 2.85-.75 2.197-.074 4.85-.45 2.594-.29 3.5-.7-.264 1.34-.2 3.75.031 1.238.3 1.9-1.598.05-3.85-.4z" id="q"/><path fill="#FFF" d="M184.75 344.9q-1.204.025-1.2 1.15v4.4q-.004 1.125 1.2 1.1h7.8q1.125.025 1.1-1.1v-4.4q.025-1.125-1.1-1.15h-7.8m.05 1.25h7.6v4.15h-7.6v-4.15z" id="r"/><path fill="#FFF" d="M221.8 346.05q.025-1.125-1.1-1.15h-7.8q-1.125.025-1.15 1.15v4.4q.025 1.125 1.15 1.1h7.8q1.125.025 1.1-1.1v-4.4m-8.8.1h7.55v4.15H213v-4.15z" id="s"/><path fill="#FFF" d="M199.4 346.65q-.631-.674-1.6-.7-.905.013-1.6.7-.674.682-.7 1.55v.1q.04.932.7 1.55.711.686 1.6.65.95.024 1.55-.65.051.001.05-.05.674-.6.65-1.55.036-.889-.65-1.6m-1.65 1.45q.051.043.1.1.02.02 0 .05.02.061 0 .1-.049.056-.1.05-.17.025-.2-.15h.05l.1-.1.05-.05z" id="t"/><path fill="#FFF" d="M196.45 348.25q.03-1.003-.15-1.45-.226-.327-.8-.35-.597.02-.85.4v-.05q-.18.447-.2 1.45.02.955.2 1.35.253.38.85.35.574.027.8-.35.173-.372.15-1.35m-1.1-.95q.045-.024.15-.05.105.026.15.05.027.216 0 .9v.05q.027.734 0 .95-.045.024-.15 0-.105.024-.15 0l-.05-.05q-.028-.18-.05-.9.022-.72.05-.95h.05z" id="u"/><path fill="#FFF" d="M195.55 349.15v-.05q.025-.314 0-.75.176-1.069-.1-1.3-.085-.402-1.6-.5-1.826-.045-1.95.25l-.2.3v2.3l.2.3q.124.295 1.95.2 1.515-.048 1.6-.45l.1-.3m-1.75-1.35q.536.052.6-.05-.029.087-.1.4v.1q.025.239 0 .45-.122-.044-.5-.05-.575.044-.85.1v-1q.275.056.85.05z" id="v"/><path fill="#FFF" d="M198.25 348.8v-.05q-.066-.198-.1-.45.191-.71.1-.95-.003-.542-1.55-.65-1.387-.053-1.45.2l-.1.1q-.223.216-.1 1.3.025.524 0 .85l.1.25q.027.504 1.55.4 1.57-.062 1.55-.7v-.3m-1.2-1.05l.05.05q-.084.037-.15.3l-.05.05v.1q.024.187.05.35-.104-.034-.3-.05-.219.039-.35.1.025-.176 0-.4v-.1q.005-.125-.05-.25.167.063.4.05.436.049.4-.2z" id="w"/><path fill="#FFF" d="M211.85 346.25q-.473-1.023-1.9-1.05-1.427.027-1.9 1.05-.317.595-.35 1.95v.05q.027 1.429.35 1.95v-.05q.473 1.073 1.9 1.05 1.427.023 1.9-1.05v.05q.327-.527.3-1.95.02-1.398-.3-2m-1.75 2q.028.73 0 .95-.045.024-.15 0-.105.024-.15 0v.05q-.028-.175-.05-1 .022-.825.05-1v.05q.045-.024.15-.05.105.026.15.05.028.22 0 .95m-1.1-.65h.15q.263.02.45.2.179.187.15.45.029.263-.15.45-.187.179-.45.15H209q-.024-.248-.05-.6.023-.347.05-.65z" id="x"/><path fill="#FFF" d="M213.7 349.5v-2.55l-.25-.25q-.185-.19-1.9-.15-1.465.098-1.6.5-.226.231-.1 1.3.025.436 0 .75v.05l.1.3q.135.402 1.6.45 1.715.09 1.9-.15l.25-.25m-2.1-1.7q.59.005.85 0v.9q-.26-.005-.85-.05-.327.006-.5.05.025-.212 0-.45v-.1q-.021-.313-.1-.4.114.102.6.05z" id="y"/><path fill="#FFF" d="M209.35 346.95l.05.05q-.457-.072-1.8-.1-1.678.03-1.9.1h.05q-.576.014-.6 1.25.024 1.29.6 1.3.168.079 1.85.05 1.783.029 1.95-.05l.05-.05q.473-.027.45-1.25.025-1.45-.7-1.3m-.55 1.2q.025.052 0 .1.026.07.05.1-.394.023-1.25 0-.836.023-1.2 0 .025-.027 0-.1.025-.055 0-.1.335.022 1.2 0 .87.022 1.2 0z" id="z"/><path fill="#FFF" d="M210.6 345.5l-3.05-2.4q-13.75 19.35-28.3 28.75-3.2 2-2.8 2.75.3.6 1.75.35 1.35-.25 2.65-1 8.75-4.85 17-12.9 7.55-7.4 12.75-15.55z" id="A"/><g id="C"><path fill="#F2653F" d="M207.05 343.1H207q-.184.423 1.6 1.75 1.995 1.381 2.25.9 8.851-13.84 11.3-18.15 1.974-3.463 1.35-3.85-.556-.431-3.15 2.55-3.2 3.774-13.3 16.75v.05m3.6 2.5v.05q-.14.222-1.9-1-1.568-1.174-1.5-1.45 10.102-12.978 13.3-16.75 2.407-2.77 2.8-2.5.427.31-1.4 3.55-2.451 4.29-11.3 18.1z"/><path fill="#FFF" d="M210.65 345.65v-.05q8.849-13.81 11.3-18.1 1.827-3.24 1.4-3.55-.393-.27-2.8 2.5-3.198 3.772-13.3 16.75-.068.276 1.5 1.45 1.76 1.222 1.9 1z"/></g><path fill="#FFF" d="M223.05 325.65l-1.2-.8q-.1.1.5.5.65.45.7.3z" id="D"/><path fill="#FFF" d="M222.1 327.45l-1.55-1.1q-.15.15.7.7.7.55.85.4z" id="F"/><g id="ab"><path fill="#F2653F" d="M213.3 341.4l.1.1.1.05.25-.4-.05-.05-.4.3m-2.75-1.8l-.25-.3.3-.4-.2-.15-.3.4-.05.05q-.02.08 0 .2.055.06.1.1.075.146.2.3.385.349 1.15.95 1.179.774 1.65.9l.05-.1.1-.15q-.09.166-1.65-.85-.735-.599-1.1-.95z"/><path fill="#FFF" d="M210.15 339.5q-.045-.04-.1-.1l-2.7 3.5q-.1.1.4.6t1.2.95q1.75 1.25 2 1l2.45-3.95q-.038.059-.2.05l-.05.1q-.471-.126-1.65-.9-.765-.601-1.15-.95-.125-.154-.2-.3z"/></g><g id="ac"><path fill="#F2653F" d="M210.25 339.95l.3-.35-.1-.1-.4.3q-.043.037-.05.1l-2.2 2.85q-.118.11 0 .3.065.133.25.3.322.317 1.05.85.79.528 1.2.7.223.146.35.15.234.062.25-.1l2.3-3.55-.45.25v.05h-.05q-.12-.017-1.3-.8-.647-.474-.95-.75-.129-.123-.2-.2v.05-.05m.05.4q.297.274.95.75.965.639 1.35.75l-1.9 2.95-.05.05v-.05q-.073.01-.25-.1-.39-.177-1.15-.7-.722-.518-1.05-.85-.134-.112-.2-.2v-.05l2.1-2.75q.078.087.2.2z"/><path fill="#FFF" d="M211.25 341.1q-.653-.476-.95-.75-.122-.113-.2-.2l-2.1 2.75v.05q.066.088.2.2.328.332 1.05.85.76.523 1.15.7.177.11.25.1v.05l.05-.05 1.9-2.95q-.385-.111-1.35-.75z"/></g><path fill="#FFF" d="M208.8 343.15l1.4.95 1.6-2.3-1.35-.95-1.65 2.3z" id="ad"/><g id="ah"><path fill="#F2653F" d="M185.8 371.15q.06-.28-.9-.65-1.656-.57-2.5-.65-.788-.073-1.6.45l-4.05 2.8q-1.066.647-.8 1.55v.05q.34.95 2.25.6 1.787-.334 3.65-1.35.674-.399 3.3-2.2.707-.455.65-.6m-1-.4q.742.282.75.4-.005.053-.55.4-2.624 1.799-3.3 2.2h.05q-1.837.984-3.6 1.3-1.641.3-1.95-.45-.185-.747.7-1.3l4.05-2.8q.725-.47 1.4-.4h.05q.78.08 2.4.65z"/><path fill="#FFF" d="M185.55 371.15q-.008-.118-.75-.4-1.62-.57-2.4-.65h-.05q-.675-.07-1.4.4l-4.05 2.8q-.885.553-.7 1.3.309.75 1.95.45 1.763-.316 3.6-1.3h-.05q.676-.401 3.3-2.2.545-.347.55-.4z"/></g><g id="ai"><path fill="#F2653F" d="M184.55 371.05q-.113-.091-.5-.2l-1.75-.5q-.64-.082-1 .15-2.772 2.147-4 2.85-.677.432-.8.9-.047.332.15.5.21.143.6.15h.05q1.892.27 6.65-2.9.662-.432.7-.55.137-.197-.1-.4m-2.3-.45l1.75.5q.313.091.4.15.063.047.05.05v.05q-.063.081-.65.45-4.66 3.11-6.5 2.85-.317.003-.45-.1-.103-.081-.1-.25.127-.382.7-.75 1.223-.698 4-2.85.29-.168.8-.1z"/><path fill="#FFF" d="M184 371.1l-1.75-.5q-.51-.068-.8.1-2.777 2.152-4 2.85-.573.368-.7.75-.003.169.1.25.133.103.45.1 1.84.26 6.5-2.85.587-.369.65-.45v-.05q.013-.003-.05-.05-.087-.059-.4-.15z"/></g><path fill="#F2653F" d="M185.7 368.05q-.024.034-.05.05-.032.072-.05.1.034.074.05.1.072.032.1 0 .353-.05.4.25.11.458-.35.85-.413.397-.85.2-.231-.136-.25-.2.042-.05 0-.1 0-.036-.05-.05-.036-.03-.1-.05-.022.037-.05.05l-.05.05q-.075.21-.05.45.075.265.1.8.032.059.05.1.057.031.1 0 .06.018.1-.05.031-.007 0-.05-.025-.565-.1-.85v-.05q.094.09.2.15.563.303 1.1-.2.59-.508.45-1.1-.103-.55-.7-.45z" id="aj"/><path fill="#F2653F" d="M187.05 367.2q.037.092.05.15.134.18.45.25.58.13 1-.15.48-.28.5-.65.148-.408-.3-.65-.035-.032-.1-.05l-.05.1q-.032.035-.05.05.047.074.1.1.252.158.15.4-.029.28-.4.5-.33.219-.8.1-.184-.03-.25-.15-.05-.059 0-.2.032-.049 0-.1.002-.038-.05-.05-.049-.032-.1-.05-.038.047-.05.1-.058.054-.3.1-.29.152-.4.4-.032.049-.05.1.047.038.1.05.049.032.1 0 .038.002.05-.05.09-.152.3-.25.068 0 .1-.05z" id="ak"/><path fill="#F2653F" d="M189.6 366.95q-.024.034-.05.05-.104.184-.3.1l-.05-.05q-.414-.103-.6.1-.03.042-.05.1.02.058.05.1.042.03.1 0 .057.03.1 0 .113-.097.35-.05.404.216.6-.15.032-.022 0-.1.016-.024-.05-.05-.022-.032-.1-.05z" id="al"/><path fill="#F2653F" d="M191.05 364.45q-.632-.08-1.15.25-.471.392-.55.95-.042.68.45.7.08.032.1 0 .067-.028.05-.1.032-.03 0-.1-.028-.017-.1-.05-.25-.029-.25-.45.082-.438.45-.75.432-.27.95-.2.561.11.75.45.012.052.05.05.051.032.1 0 .052-.012.05-.05.032-.051 0-.1-.211-.46-.9-.6z" id="am"/><path fill="#F2653F" d="M189.45 365.3q-.017.027-.05.05-.01.23-.15.3-.174.063-.5-.05-.015.018-.05.05-.053.025-.1.05.018.065.05.1.025.053.05.05.424.137.65 0 .26-.08.3-.45.032-.029 0-.1-.027-.017-.1-.05-.03.018-.1.05z" id="an"/><path fill="#F2653F" d="M192.05 363.25v-.05q.209-.784.95-.9.36-.022.5.05.17.124.15.35.02.058.05.1.042.03.1 0 .058.03.1 0 .03-.042 0-.1.03-.374-.25-.55-.21-.128-.7-.1-.897.132-1.15 1.1-.087.367.1.65.115.2.25.3-.03.023-.1.05-.108.1-.3 0-.022-.032-.1-.05-.024.034-.05.05-.032.072-.05.1.034.074.05.1.358.2.6 0 .197-.103.25-.15h.05q.044.029.05 0 .066-.042.05-.1.03-.043 0-.1l-.1-.05q-.236-.034-.4-.3-.113-.167-.05-.4z" id="ao"/><path fill="#F2653F" d="M193.1 361.45q.047.038.1.05.04.03.05.05.004.094-.05.2h-.05q-.05.241-.35.3-.025.047-.05.1-.032.035-.05.05.047.075.1.1.035.032.05 0 .45-.092.55-.45.096-.194.05-.35.01-.13-.15-.2-.049-.032-.1-.05-.038.047-.05.1-.032.049-.05.1z" id="ap"/><path fill="#F2653F" d="M195.3 360.2q-.03.018-.1.05-.017.028-.05.05.018.08.05.1.028.067.05.05.32.068.45.2.11.12.05.3v.05q-.032.75-1.05.9-.236.065-.35-.15-.014-.034-.05-.1.026-.01 0-.05.03-.058 0-.1-.042-.03-.1-.05-.058.02-.1.05-.03.042-.05.1v.05q.03.143.05.3.15.432-.05.6-.017.028-.05.05.019.08.05.1.028.067.05.05.08.031.1 0 .289-.188.2-.65.172.103.35.05 1.232-.2 1.25-1.15.084-.328-.1-.55-.17-.168-.6-.25z" id="aq"/><path fill="#F2653F" d="M198.05 358.25q-.032.071-.05.1.059.235-.2.6-.336.406-.6.55-.125.105-.35 0v-.05q-.215-.068-.2-.3v-.05q.032-.014 0-.05-.025-.052-.1-.1-.014.018-.05.05-.052.012-.1.05-.02.141-.2.35-.23.24-.25.6.02.058.05.1.042.03.1 0 .058.03.1 0 .03-.042 0-.1.03-.241.2-.4v-.05q.032-.013.05-.05.097.138.3.2.376.195.6 0 .286-.156.65-.6.341-.486.25-.8.016-.023-.05-.05-.021-.032-.1-.05-.023.034-.05.05z" id="ar"/><path fill="#F2653F" d="M178.15 373.3q-.024.059-.05.1.022.046-.05.25v.05q.015.314.3.5.072.032.1 0 .074.016.1-.05.032-.022 0-.1.016-.024-.05-.05-.165-.115-.2-.3.063-.18.05-.25.288-.364.6-.15.16.103.1.25-.018.214-.15.3v.05q-.03.042-.05.1.02.058.05.1.042.03.1 0 .057.03.1 0 .173-.188.2-.5.033-.015 0-.05.058-.277-.2-.45-.524-.377-.95.2m1.7.25q.001-.052-.05-.1h-.05q-.126-.041-.35.05.113.148.3.2.05.045.1 0 .052.001.05-.05.045-.05 0-.1m3-2.7q-.16.021-.75.35-.354.187-.55 0-.043-.03-.1-.05-.058.02-.1.05-.03.042-.05.1.02.057.05.1.304.314.85 0 .47-.25.6-.3.318.07.45.25.064.144 0 .25h.05q-.095.128-.5.1-.71.027-.9.15h.05q-.376.18-.4.55.025.196.1.3-.099.066-.25.15h-.05q.023-.152-.1-.4-.187-.506-.5-.7-.024.011-.05 0-.036-.027-.1-.05-.02.038-.05.05-.026.058-.05.1.024.041.05.05.105.174 0 .4-.026.127-.05.2.143.11.2.25-.003-.074.1-.35.055-.093.05-.2.103.158.15.35.183.39-.05.55-.014.027-.05.05.02.065.05.1.014.051.05.05.215.122.6-.25h-.05q.254-.153.35-.2h.05q.044.029.05 0 .065-.03.05-.1.03-.03 0-.1l-.1-.05q-.125-.011-.15-.2.026-.23.25-.35.16-.077.75-.1.596.022.7-.25.086-.194-.05-.45v-.05q-.168-.27-.6-.35z" id="as"/><path fill="#F2653F" d="M177.4 373.7q-.03.018-.1.05-.23.192-.25.45.092.276.35.4.555.146.85-.15v-.05q.252-.3.05-.65-.026-.016-.1-.05-.028.018-.1.05-.016.026-.05.05.018.078.05.1.098.2-.05.35-.205.204-.6.1l.05.05q-.13-.07-.2-.2.03-.141.15-.25.067-.028.05-.1.032-.03 0-.1-.028-.017-.1-.05z" id="at"/><path fill="#F2653F" d="M179.75 372q.033.072.05.1.08.045.05.1-.068.178-.3.4-.03.042-.05.1.02.058.05.1.042.03.1 0 .057.03.1 0 .268-.278.3-.5.12-.245-.1-.4-.02-.031-.1-.05-.022.033-.05.05-.031.07-.05.1z" id="au"/><path fill="#F2653F" d="M179.8 373.5q-.035-.032-.1-.05l-.05.1q-.032.035-.05.05.047.074.1.1.107.075.1.15.022.044-.05.1-.03.042-.05.1.02.058.05.1.042.03.1 0 .057.03.1 0 .179-.194.1-.4-.007-.125-.25-.25z" id="av"/><path fill="#F2653F" d="M221.65 325.65q-.133.203-.1.35 0 .146.15.25.384.216.6-.1.133-.154.1-.3 0-.146-.2-.25-.154-.133-.3-.1-.146 0-.25.15z" id="aw"/><path fill="#FFF" d="M198 343.1l-3.05 2.4q5.15 8.15 12.8 15.55 8.2 8.05 16.95 12.9 1.35.75 2.65 1 1.45.25 1.75-.35.25-.45-.6-1.2-.55-.5-2.2-1.55-14.55-9.4-28.3-28.75z" id="ax"/><g id="az"><path fill="#F2653F" d="M183.4 327.6q2.5 4.324 11.3 18.15.255.481 2.2-.9.935-.639 1.3-1.05.506-.492.3-.75-10.051-12.976-13.25-16.75-2.595-2.978-3.25-2.55-.574.387 1.4 3.85m.2-.15v.05q-1.827-3.24-1.45-3.55.494-.273 2.9 2.5 3.201 3.776 13.25 16.75.047.138-.25.45-.385.389-1.3 1-1.71 1.222-1.85 1v-.05q-8.8-13.824-11.3-18.15z"/><path fill="#FFF" d="M183.6 327.5v-.05q2.5 4.326 11.3 18.15v.05q.14.222 1.85-1 .915-.611 1.3-1 .297-.312.25-.45-10.049-12.974-13.25-16.75-2.406-2.773-2.9-2.5-.377.31 1.45 3.55z"/></g><path fill="#FFF" d="M183.7 324.85l-1.2.8q.1.15.7-.3.6-.4.5-.5z" id="aA"/><path fill="#FFF" d="M185 326.35l-1.55 1.1q.1.1.9-.4.75-.6.65-.7z" id="aC"/><g id="aY"><path fill="#F2653F" d="M192.25 341.4l.05.15.05.1q.522-.126 1.65-.9.834-.557 1.2-.9.165-.157.25-.3.042-.04.05-.1.07-.121 0-.2v-.05l-.2-.25v.4q0 .077-.3.3-.334.357-1.15.9-1.51 1.016-1.6.85m0 0l-.45-.3v.05l.25.4.1-.05.1-.1z"/><path fill="#FFF" d="M192.3 341.55q-.111.009-.15-.05l2.45 3.95q.25.25 2.05-1 .75-.45 1.2-.95.45-.5.35-.6l-2.7-3.45q-.008.06-.05.1-.085.143-.25.3-.366.343-1.2.9-1.128.774-1.65.9l-.05-.1z"/></g><g id="aZ"><path fill="#F2653F" d="M195.4 339.7l-.1.25q-.004.107-1.2.95-1.21.821-1.3.75l-.4-.1.2.25v.05l2.05 3.1v.05q.258.285 1.75-.8.778-.533 1.1-.85.185-.167.25-.3.118-.19 0-.3l-2.35-3.05m-2.5 2.15q.442-.127 1.35-.75.921-.646 1.2-.95l2.1 2.75v.05h-.05q-.016.088-.15.2-.328.332-1.1.85-1.262.917-1.4.8l-1.95-2.95z"/><path fill="#FFF" d="M194.25 341.1q-.908.623-1.35.75l1.95 2.95q.138.117 1.4-.8.772-.518 1.1-.85.134-.112.15-.2h.05v-.05l-2.1-2.75q-.279.304-1.2.95z"/></g><path fill="#FFF" d="M195.35 344.1l1.4-.95-1.65-2.3-1.35.95 1.6 2.3z" id="ba"/><g id="be"><path fill="#F2653F" d="M224.75 370.3q-.813-.522-1.6-.45-.82.07-2.5.65-.96.37-.95.65-.007.145.65.6 2.877 1.901 3.35 2.2h.05q1.813 1.016 3.55 1.35 2.015.34 2.25-.65v.05q.362-.942-.8-1.6l-4-2.8m-1.6-.2q.726-.07 1.45.4l4 2.8h.05q.938.542.65 1.3-.214.76-1.95.45-1.713-.316-3.5-1.3-.477-.301-3.35-2.2-.495-.347-.55-.4.057-.118.8-.4 1.62-.57 2.4-.65z"/><path fill="#FFF" d="M224.6 370.5q-.724-.47-1.45-.4-.78.08-2.4.65-.743.282-.8.4.055.053.55.4 2.873 1.899 3.35 2.2 1.787.984 3.5 1.3 1.736.31 1.95-.45.288-.758-.65-1.3h-.05l-4-2.8z"/></g><g id="bf"><path fill="#F2653F" d="M224.25 370.5q-.431-.226-1.05-.15l-1.7.5q-.364.109-.5.2-.225.203-.05.4.038.118.65.55 4.758 3.17 6.7 2.9.44-.007.6-.15.247-.168.15-.5-.082-.469-.85-.9-1.576-.952-3.95-2.85m-1 .1q.531-.074.9.1h-.05q2.376 1.902 3.95 2.85h.05q.632.369.7.75.053.169-.05.25-.133.103-.45.1h-.05q-1.839.26-6.5-2.85-.538-.369-.6-.45v-.05q-.025-.003 0-.05.114-.059.4-.15l1.7-.5z"/><path fill="#FFF" d="M224.15 370.7q-.369-.174-.9-.1l-1.7.5q-.286.091-.4.15-.025.047 0 .05v.05q.062.081.6.45 4.661 3.11 6.5 2.85h.05q.317.003.45-.1.103-.081.05-.25-.068-.381-.7-.75h-.05q-1.574-.948-3.95-2.85h.05z"/></g><path fill="#F2653F" d="M219.9 368.1q-.026-.016-.1-.05-.237-.044-.4.05-.163.137-.25.4-.148.593.4 1.1.587.503 1.15.2.103-.057.15-.1v.05q.023.242-.1.75.018.079.05.1.027.067.05.05.08.032.1 0 .067-.027.05-.1.122-.515.1-.8.085-.27 0-.45.012-.035-.05-.05-.022-.028-.1-.05-.02.036-.05.05l-.05.1q.01.094-.25.25-.437.197-.9-.2-.402-.393-.3-.85.063-.137.15-.2.087-.056.2-.05.078.032.1 0 .066-.026.05-.1.032-.028 0-.1z" id="bg"/><path fill="#F2653F" d="M216.85 366.1q-.015.018-.05.05-.448.242-.35.65.07.37.5.65.468.28 1.05.15.337-.07.4-.25.06-.06.05-.15.079.05.15.05.21.098.3.25.012.052.05.05.051.032.1 0 .052-.012.05-.05.032-.051 0-.1-.11-.248-.4-.4-.242-.046-.3-.1-.012-.053-.05-.1-.051.018-.1.05-.053.012-.1.05.018.051.05.1v.05q.06.097 0 .15-.036.12-.25.15-.468.12-.85-.1-.321-.22-.4-.5-.052-.242.2-.4.053-.026.05-.1.032-.015 0-.05-.026-.053-.1-.1z" id="bh"/><path fill="#F2653F" d="M215.8 367.05q.018.078.05.1.196.366.6.15h-.05q.287-.047.4.05.042.03.1 0 .058.03.1 0 .03-.042 0-.1.03-.058 0-.1-.187-.203-.65-.1v.05q-.196.084-.3-.1-.026-.016-.1-.05-.028.018-.1.05-.016.026-.05.05z" id="bi"/><path fill="#F2653F" d="M214.5 364.7q.568-.07.95.2.418.312.45.75.05.421-.25.45-.022.033-.05.05-.032.07-.05.1.033.072.05.1.07.032.1 0 .542-.02.45-.7-.029-.558-.55-.95-.468-.33-1.15-.25-.639.14-.85.6-.032.049-.05.1.047.038.1.05.049.032.1 0 .038.002.05-.05.189-.34.7-.45z" id="bj"/><path fill="#F2653F" d="M216.8 365.85q.075.003.1-.05.032-.036 0-.1.003-.025-.05-.05-.036-.032-.1-.05-.252.112-.45.05-.12-.068-.2-.3.003-.024-.05-.05-.035-.032-.1-.05l-.05.1q-.032.035-.05.05.12.368.35.45.252.138.6 0z" id="bk"/><path fill="#F2653F" d="M211.8 362.8q.067-.027.05-.1.118-.405.65-.4h.05q.744.13.9.9v.05q.113.233 0 .4-.163.266-.4.3H213q-.022.035-.05.05-.03.057-.05.1.034.058.05.1.056.029.1 0 .12.041.35.15h-.05q.3.206.55 0 .067-.028.05-.1.032-.03 0-.1-.028-.017-.1-.05-.03.018-.1.05-.1.094-.25 0-.056-.03-.1-.05.137-.103.25-.3.187-.283.05-.65-.202-.968-1.15-1.1-.82-.035-.95.6.018.079.05.1.027.067.05.05.08.032.1 0z" id="bl"/><path fill="#F2653F" d="M212.35 361.5q.052-.012.05-.05.032-.051 0-.1-.012-.053-.05-.1-.051.018-.1.05-.16.07-.2.2.004.156.1.35h-.05q.15.358.55.45.065.032.1 0 .053-.025.05-.1.032-.015 0-.05-.025-.053-.1-.1-.25-.059-.35-.3-.054-.106-.05-.2.01-.02.05-.05z" id="bm"/><path fill="#F2653F" d="M210.35 360.25q-.02-.032-.1-.05-.397.083-.6.25-.187.229-.15.55.184.957 1.25 1.15.264.057.4-.05-.063.454.15.65.042.03.1 0 .058.03.1 0 .03-.042 0-.1.03-.058 0-.1-.145-.165-.05-.6.207-.571 0-.75-.043-.028-.1-.05l-.1.05q-.014.029-.05.05.021.078.05.1v.05q.031.04.05.1-.01.12-.1.2v.05q-.114.215-.4.15-.884-.157-1.05-.95-.014-.179.1-.3.147-.133.45-.2.072.017.1-.05.032-.02 0-.1.017-.022-.05-.05z" id="bn"/><path fill="#F2653F" d="M226.2 373.55l-.05-.05q-.144-.058-.25-.05h-.05v.05q-.05.013-.1.05.008.05 0 .1.05.036.1.05.036.03.05 0 .17.016.55.4-.173-.188-.25-.5.017-.015 0-.05m-2.15-2.4q-.022.033-.05.05-.155.186-.5 0-.64-.327-.8-.35h-.05q-.407.085-.55.4-.15.27 0 .45.104.272.7.25.54.023.65.1h.05q.224.12.2.35.051.17-.1.2v.05q-.051.013-.1.05.006.05 0 .1.05.051.1.05.05.044.1 0 .098.05.25.2.457.368.6.25.047-.015.05-.05.04-.036 0-.1.012-.02-.05-.05-.14-.157 0-.55v-.05q.072-.14.1-.25.048.066.05.15.153.276.15.35.057-.14.2-.25-.023-.073-.1-.2-.055-.226.05-.4.026-.009 0-.05.026-.042 0-.1-.03-.012-.1-.05-.014.023-.05.05-.025.012-.05 0-.313.203-.5.7-.086.285-.1.5-.018-.05-.1-.1-.086-.091-.2-.15.11-.118.05-.3v-.05q.013-.326-.35-.5-.14-.123-.8-.15-.405.028-.5-.1v-.05q-.042-.059.05-.2.106-.185.35-.25.184.049.7.3.556.314.8-.05.031-.02 0-.1.017-.022-.05-.05-.02-.031-.1-.05z" id="bo"/><path fill="#F2653F" d="M228 373.85q.033.072.05.1.157.099.15.2-.008.173-.15.25v-.05q-.298.103-.5-.1-.147-.163-.1-.35.045-.05 0-.1.001-.052-.05-.1-.05.005-.1 0-.052.049-.1.1-.103.313.15.6v.05q.298.297.75.15h.05q.258-.124.3-.4.03-.258-.25-.45-.02-.032-.1-.05-.022.033-.05.05-.032.07-.05.1z" id="bp"/><path fill="#F2653F" d="M225.65 371.85q-.029.018-.1.05-.215.153-.1.4.087.223.4.5.057.031.1 0 .06.018.1-.05.031-.007 0-.05.017-.059-.05-.1-.237-.223-.3-.4-.035-.054 0-.1.066-.027.05-.1.032-.029 0-.1-.027-.016-.1-.05z" id="bq"/><path fill="#F2653F" d="M225.8 373.45q-.015.018-.05.05-.243.125-.3.25-.029.206.15.4.042.03.1 0 .058.03.1 0 .03-.042 0-.1.03-.058 0-.1-.072-.056-.1-.1.042-.075.15-.15.053-.026.05-.1.032-.015 0-.05-.026-.053-.1-.1z" id="br"/><path fill="#F2653F" d="M183.8 326.25q.373-.216.15-.6-.135-.144-.3-.15-.14-.039-.3.1-.323.216-.1.55.216.316.55.1z" id="bs"/><path fill="#F2653F" d="M208.15 358.25q-.66.137-.85.6.005.05 0 .1.049.052.1.05.05.045.1 0 .052.001.05-.05.16-.337.65-.45.567-.11.95.2.429.32.45.75.095.427-.2.45-.022.033-.05.05-.032.07-.05.1.033.072.05.1.07.032.1 0 .546-.025.4-.7v-.05q-.04-.517-.55-.9-.467-.39-1.15-.25z" id="bt"/><path fill="#F2653F" d="M210.55 359.45q-.036-.032-.1-.05-.252.112-.45.05-.12-.068-.2-.3.003-.024-.05-.05-.035-.032-.1-.05l-.05.1q-.032.035-.05.05.12.368.35.45.252.138.6 0 .075.003.1-.05.032-.036 0-.1.003-.025-.05-.05z" id="bu"/><path fill="#F2653F" d="M206.05 355.75q-.02-.032-.1-.05-.748.14-.7.8.068.95 1.25 1.15.464.085.65-.3l.1-.2q.016-.024 0-.05v-.05q.01-.161-.1-.35-.027-.016-.1-.05-.029.018-.1.05-.016.027-.05.05.018.079.05.1.058.113.05.2.039-.023.05-.05v.05l-.1.2q-.114.215-.4.15-.968-.15-1.05-.9-.002-.44.5-.55.072.017.1-.05.032-.02 0-.1.017-.023-.05-.05m1.15 1.25q-.025-.016-.05-.05h.05q.023.039 0 .05z" id="bv"/><path fill="#FFF" d="M206.3 338.15q-1.2-.8-1.55-1.55-.55-1.1-.55-3.5 0-1.65.2-2.45l-2.4.05q.25.9.25 2.4 0 2.4-.55 3.5-.4.7-1.6 1.55v20.9q3.65 0 5.1-2 1.1-1.5 1.1-4.45v-14.45z" id="bw"/><path fill="#FFF" d="M205.35 327.25q-.85-.65-2.1-.65t-2.1.65q-.9.7-.9 1.65t.9 1.6q.85.7 2.1.7t2.1-.7q.9-.65.9-1.6 0-.95-.9-1.65z" id="bD"/><path fill="#FFF" d="M203.9 326.3q0-.6-.7-.6-.65 0-.65.6t.65.6q.7 0 .7-.6z" id="bF"/><path fill="#FFF" d="M201.15 328.85q0-.7-.7-.7t-.7.7q0 .7.7.7t.7-.7z" id="bH"/><path fill="#FFF" d="M206 328.15q-.7 0-.7.7t.7.7q.7 0 .7-.7t-.7-.7z" id="bJ"/><path fill="#FFF" d="M203.9 328.85q0-.7-.7-.7-.65 0-.65.7 0 .65.65.65.7 0 .7-.65z" id="bL"/><path fill="#FFF" d="M204.3 338.4q0-1.1-1.1-1.1t-1.1 1.1q0 1.05 1.1 1.05t1.1-1.05z" id="bR"/><path fill="#FFF" d="M201.85 338.35q0-.6-.6-.6t-.6.6q0 .6.6.6t.6-.6z" id="bT"/><path fill="#FFF" d="M205.15 337.75q-.6 0-.6.6t.6.6q.6 0 .6-.6t-.6-.6z" id="bV"/><path fill="#F2653F" d="M200.55 353q.1-1.15.05-1.15-.3.65-.45 3.7-.15 3.25.4 3.55l1.65-.25q-1.6.15-1.75-2.65-.1-1.55.1-3.2z" id="cR"/><path fill="#FFF" d="M199.8 352.2q-.65.4-3.55.75-2.65.35-4.8.45-2.35.1-3.25.9-1.05.95 1.45 2.25 2.8 1.45 6.3 2.15 3.45.7 5.5.25-1.2.05-1.2-2.35-.1-2.65.25-3.9.25-.9.05-.9-.05 0-.75.4z" id="cT"/><path fill="#FFF" d="M193.2 358q-.45-.15-.3-2.45.1-2.2.65-2.3-.05-.1-.55 0-.8.15-1.55.15-2.3 0-3.25.85-1.05 1 1.45 2.3 3.5 1.75 3.55 1.45z" id="cV"/><path fill="#FFF" d="M184.75 345.55q-.55 0-.55.5v4.4q0 .5.55.5h7.8q.5 0 .5-.5v-4.4q0-.5-.5-.5h-7.8z" id="do"/><path fill="#FFF" d="M221.2 346.05q0-.5-.5-.5h-7.8q-.5 0-.5.5v4.4q0 .5.5.5h7.8q.5 0 .5-.5v-4.4z" id="eq"/><path fill="#FFF" d="M197.45 347.55V349q3.4-.3 6.05-.1v-1.25q-2.15.15-6.05-.1z" id="fs"/><path fill="#FFF" d="M200.6 347.15q.05.2.05 1.1 0 .9-.05 1.1-.15.45-.7.45-.55 0-.7-.45-.1-.2-.1-1.1h-.65q0 1.2.2 1.65.35.7 1.25.7t1.25-.7q.2-.45.2-1.65 0-1.15-.2-1.6-.35-.7-1.25-.7t-1.25.7q-.2.45-.2 1.6h.65q0-.85.1-1.1.15-.45.7-.45.55 0 .7.45z" id="fu"/><path fill="#FFF" d="M197.75 347.5q.3 0 .55.25.2.2.2.5 0 .35-.2.55-.25.25-.55.25-.8 0-.8-.8h-.8q0 .7.5 1.15.5.5 1.15.5.7 0 1.15-.5.5-.45.5-1.15 0-.65-.5-1.15-.45-.5-1.15-.5-.65 0-1.15.5-.5.5-.5 1.15h.8q0-.3.25-.5.2-.25.55-.25z" id="fw"/><path fill="#FFF" d="M197.1 348.25q0-1.2-.25-1.7-.35-.7-1.35-.7t-1.4.7q-.25.5-.25 1.7 0 1.15.25 1.65.4.7 1.4.7 1 0 1.35-.7.25-.45.25-1.65h-.8q0 .95-.05 1.15-.15.45-.75.45t-.75-.45q-.1-.25-.1-1.15 0-.9.1-1.15.15-.45.75-.45t.75.45q.05.2.05 1.15h.8z" id="fy"/><path fill="#FFF" d="M192.35 347.25v2q.1.1 1.5.05 1-.05 1.1-.2v-.85q.1-.7 0-.85-.1-.15-1.1-.2-1.4-.05-1.5.05z" id="fA"/><path fill="#FFF" d="M195.7 347.35q-.1.15 0 .9v.9q.05.1 1 .05.9-.05.95-.25-.1-.3-.1-.7.15-.6.1-.7-.05-.15-.95-.2-.95-.05-1 0z" id="fC"/><path fill="#FFF" d="M211.55 348.25q0-1.2-.25-1.7-.35-.7-1.35-.7t-1.35.7q-.25.5-.25 1.7h.8q0-.95.05-1.15.15-.45.75-.45t.75.45q.05.2.05 1.15t-.05 1.15q-.15.45-.75.45t-.75-.45q-.05-.2-.05-1.15h-.8q0 1.2.25 1.65.35.7 1.35.7t1.35-.7q.25-.45.25-1.65z" id="fE"/><path fill="#FFF" d="M213.1 349.25v-2q-.15-.1-1.5-.05-1 .05-1.1.2-.1.15 0 .85v.85q.1.15 1.1.2 1.35.05 1.5-.05z" id="fG"/><path fill="#FFF" d="M205.35 347.15q.45 0 .6.35.05.15.05.75 0 .65-.05.8-.15.35-.6.35-.45 0-.6-.35-.05-.15-.05-.8h-.75q0 1 .2 1.4.3.55 1.2.55.9 0 1.2-.55.2-.4.2-1.4 0-.95-.2-1.35-.3-.55-1.2-.55-.9 0-1.2.55-.2.4-.2 1.35h.75q0-.6.05-.75.15-.35.6-.35z" id="fI"/><path fill="#FFF" d="M205 349.15v-1.8q-.05-.05-1.05 0-.85.05-.9.2-.05.1.1.7 0 .4-.1.7.05.2.9.25 1 .05 1.05-.05z" id="fK"/><path fill="#FFF" d="M209.45 348.25q0-.65-.1-.65-.1-.05-1.75-.05-1.55 0-1.65.05-.15.05-.15.65 0 .65.15.7.15.05 1.65.05 1.6 0 1.75-.05.1-.05.1-.7z" id="fM"/><path id="B" stroke="#F2653F" stroke-width=".05" stroke-linejoin="miter" stroke-linecap="butt" stroke-miterlimit="4" fill="none" d="M33.037 17.558q-9.545 14.103-19.646 20.954-2.222 1.458-1.944 2.004.208.438 1.215.255.937-.182 1.84-.728 6.074-3.535 11.801-9.402 5.242-5.394 8.852-11.333"/><path id="E" stroke="#F2653F" stroke-width=".05" stroke-linejoin="miter" stroke-linecap="butt" stroke-miterlimit="4" fill="none" d="M42.965 4.257q-.07.073.347.365.451.328.486.218"/><path id="G" stroke="#F2653F" stroke-width=".05" stroke-linejoin="miter" stroke-linecap="butt" stroke-miterlimit="4" fill="none" d="M42.062 5.35q-.104.11.486.51.486.402.59.292"/><path id="H" stroke="#F2653F" stroke-width=".05" stroke-linejoin="miter" stroke-linecap="butt" stroke-miterlimit="4" fill="none" d="M42.368 7.49l-.312-2.113"/><path id="I" stroke="#F2653F" stroke-width=".05" stroke-linejoin="miter" stroke-linecap="butt" stroke-miterlimit="4" fill="none" d="M41.674 8.693l-.347-2.441"/><path id="J" stroke="#F2653F" stroke-width=".05" stroke-linejoin="miter" stroke-linecap="butt" stroke-miterlimit="4" fill="none" d="M41.014 9.86l-.416-2.66"/><path id="K" stroke="#F2653F" stroke-width=".05" stroke-linejoin="miter" stroke-linecap="butt" stroke-miterlimit="4" fill="none" d="M40.32 11.025l-.451-2.878"/><path id="L" stroke="#F2653F" stroke-width=".05" stroke-linejoin="miter" stroke-linecap="butt" stroke-miterlimit="4" fill="none" d="M39.626 12.191l-.486-3.097"/><path id="M" stroke="#F2653F" stroke-width=".05" stroke-linejoin="miter" stroke-linecap="butt" stroke-miterlimit="4" fill="none" d="M38.932 13.321l-.486-3.28"/><path id="N" stroke="#F2653F" stroke-width=".05" stroke-linejoin="miter" stroke-linecap="butt" stroke-miterlimit="4" fill="none" d="M38.237 14.487l-.52-3.498"/><path id="O" stroke="#F2653F" stroke-width=".05" stroke-linejoin="miter" stroke-linecap="butt" stroke-miterlimit="4" fill="none" d="M37.543 15.617l-.555-3.644"/><path id="P" stroke="#F2653F" stroke-width=".05" stroke-linejoin="miter" stroke-linecap="butt" stroke-miterlimit="4" fill="none" d="M36.884 16.746l-.59-3.826"/><path id="Q" stroke="#F2653F" stroke-width=".05" stroke-linejoin="miter" stroke-linecap="butt" stroke-miterlimit="4" fill="none" d="M41.084 6.543l2.013-.4"/><path id="R" stroke="#F2653F" stroke-width=".05" stroke-linejoin="miter" stroke-linecap="butt" stroke-miterlimit="4" fill="none" d="M40.216 7.6l2.325-.437"/><path id="S" stroke="#F2653F" stroke-width=".05" stroke-linejoin="miter" stroke-linecap="butt" stroke-miterlimit="4" fill="none" d="M39.418 8.693l2.533-.51"/><path id="T" stroke="#F2653F" stroke-width=".05" stroke-linejoin="miter" stroke-linecap="butt" stroke-miterlimit="4" fill="none" d="M38.585 9.75l2.742-.51"/><path id="U" stroke="#F2653F" stroke-width=".05" stroke-linejoin="miter" stroke-linecap="butt" stroke-miterlimit="4" fill="none" d="M37.786 10.843l2.95-.583"/><path id="V" stroke="#F2653F" stroke-width=".05" stroke-linejoin="miter" stroke-linecap="butt" stroke-miterlimit="4" fill="none" d="M37.023 11.9l3.123-.62"/><path id="W" stroke="#F2653F" stroke-width=".05" stroke-linejoin="miter" stroke-linecap="butt" stroke-miterlimit="4" fill="none" d="M36.19 12.957l3.332-.656"/><path id="X" stroke="#F2653F" stroke-width=".05" stroke-linejoin="miter" stroke-linecap="butt" stroke-miterlimit="4" fill="none" d="M35.426 14.05l3.47-.693"/><path id="Y" stroke="#F2653F" stroke-width=".05" stroke-linejoin="miter" stroke-linecap="butt" stroke-miterlimit="4" fill="none" d="M34.662 15.106l3.61-.728"/><path id="Z" stroke="#F2653F" stroke-width=".05" stroke-linejoin="miter" stroke-linecap="butt" stroke-miterlimit="4" fill="none" d="M35.842 15.762l1.805-.328"/><path id="aa" stroke="#F2653F" stroke-width=".05" stroke-linejoin="miter" stroke-linecap="butt" stroke-miterlimit="4" fill="none" d="M35.884 15.81l-.348-1.932"/><path id="ae" stroke="#F2653F" stroke-width=".05" stroke-linejoin="miter" stroke-linecap="butt" stroke-miterlimit="4" fill="none" d="M34.877 18.287l1.11-1.676-.936-.692-1.146 1.676.972.692z"/><path id="af" stroke="#F2653F" stroke-width=".05" stroke-linejoin="miter" stroke-linecap="butt" stroke-miterlimit="4" fill="none" d="M35.05 15.919l-.173 2.368"/><path id="ag" stroke="#F2653F" stroke-width=".05" stroke-linejoin="miter" stroke-linecap="butt" stroke-miterlimit="4" fill="none" d="M33.905 17.595l2.083-.984"/><path id="ay" stroke="#F2653F" stroke-width=".05" stroke-linejoin="miter" stroke-linecap="butt" stroke-miterlimit="4" fill="none" d="M26.407 17.558q9.546 14.103 19.647 20.954 1.146.765 1.527 1.13.59.546.417.874-.208.438-1.215.255-.903-.182-1.84-.728-6.074-3.535-11.767-9.402-5.31-5.394-8.886-11.333"/><path id="aB" stroke="#F2653F" stroke-width=".05" stroke-linejoin="miter" stroke-linecap="butt" stroke-miterlimit="4" fill="none" d="M16.48 4.257q.07.073-.347.365-.417.328-.486.218"/><path id="aD" stroke="#F2653F" stroke-width=".05" stroke-linejoin="miter" stroke-linecap="butt" stroke-miterlimit="4" fill="none" d="M17.382 5.35q.07.074-.45.51-.556.365-.626.292"/><path id="aE" stroke="#F2653F" stroke-width=".05" stroke-linejoin="miter" stroke-linecap="butt" stroke-miterlimit="4" fill="none" d="M17.064 7.49l.347-2.113"/><path id="aF" stroke="#F2653F" stroke-width=".05" stroke-linejoin="miter" stroke-linecap="butt" stroke-miterlimit="4" fill="none" d="M17.759 8.693l.381-2.441"/><path id="aG" stroke="#F2653F" stroke-width=".05" stroke-linejoin="miter" stroke-linecap="butt" stroke-miterlimit="4" fill="none" d="M18.453 9.86l.382-2.66"/><path id="aH" stroke="#F2653F" stroke-width=".05" stroke-linejoin="miter" stroke-linecap="butt" stroke-miterlimit="4" fill="none" d="M19.112 11.025l.451-2.878"/><path id="aI" stroke="#F2653F" stroke-width=".05" stroke-linejoin="miter" stroke-linecap="butt" stroke-miterlimit="4" fill="none" d="M19.806 12.191l.486-3.097"/><path id="aJ" stroke="#F2653F" stroke-width=".05" stroke-linejoin="miter" stroke-linecap="butt" stroke-miterlimit="4" fill="none" d="M20.5 13.321l.521-3.28"/><path id="aK" stroke="#F2653F" stroke-width=".05" stroke-linejoin="miter" stroke-linecap="butt" stroke-miterlimit="4" fill="none" d="M21.195 14.487l.52-3.498"/><path id="aL" stroke="#F2653F" stroke-width=".05" stroke-linejoin="miter" stroke-linecap="butt" stroke-miterlimit="4" fill="none" d="M21.889 15.617l.555-3.644"/><path id="aM" stroke="#F2653F" stroke-width=".05" stroke-linejoin="miter" stroke-linecap="butt" stroke-miterlimit="4" fill="none" d="M22.583 16.746l.59-3.826"/><path id="aN" stroke="#F2653F" stroke-width=".05" stroke-linejoin="miter" stroke-linecap="butt" stroke-miterlimit="4" fill="none" d="M18.383 6.543l-2.048-.4"/><path id="aO" stroke="#F2653F" stroke-width=".05" stroke-linejoin="miter" stroke-linecap="butt" stroke-miterlimit="4" fill="none" d="M19.216 7.6l-2.29-.437"/><path id="aP" stroke="#F2653F" stroke-width=".05" stroke-linejoin="miter" stroke-linecap="butt" stroke-miterlimit="4" fill="none" d="M20.015 8.693l-2.5-.51"/><path id="aQ" stroke="#F2653F" stroke-width=".05" stroke-linejoin="miter" stroke-linecap="butt" stroke-miterlimit="4" fill="none" d="M20.848 9.75l-2.742-.51"/><path id="aR" stroke="#F2653F" stroke-width=".05" stroke-linejoin="miter" stroke-linecap="butt" stroke-miterlimit="4" fill="none" d="M21.646 10.843l-2.95-.583"/><path id="aS" stroke="#F2653F" stroke-width=".05" stroke-linejoin="miter" stroke-linecap="butt" stroke-miterlimit="4" fill="none" d="M22.41 11.9l-3.09-.62"/><path id="aT" stroke="#F2653F" stroke-width=".05" stroke-linejoin="miter" stroke-linecap="butt" stroke-miterlimit="4" fill="none" d="M23.243 12.957L19.91 12.3"/><path id="aU" stroke="#F2653F" stroke-width=".05" stroke-linejoin="miter" stroke-linecap="butt" stroke-miterlimit="4" fill="none" d="M24.006 14.05l-3.436-.693"/><path id="aV" stroke="#F2653F" stroke-width=".05" stroke-linejoin="miter" stroke-linecap="butt" stroke-miterlimit="4" fill="none" d="M24.77 15.106l-3.61-.728"/><path id="aW" stroke="#F2653F" stroke-width=".05" stroke-linejoin="miter" stroke-linecap="butt" stroke-miterlimit="4" fill="none" d="M23.59 15.762l-1.805-.328"/><path id="aX" stroke="#F2653F" stroke-width=".05" stroke-linejoin="miter" stroke-linecap="butt" stroke-miterlimit="4" fill="none" d="M23.596 15.81l.312-1.932"/><path id="bb" stroke="#F2653F" stroke-width=".05" stroke-linejoin="miter" stroke-linecap="butt" stroke-miterlimit="4" fill="none" d="M24.568 18.287l-1.111-1.676.937-.692 1.146 1.676-.972.692z"/><path id="bc" stroke="#F2653F" stroke-width=".05" stroke-linejoin="miter" stroke-linecap="butt" stroke-miterlimit="4" fill="none" d="M24.394 15.919l.174 2.368"/><path id="bd" stroke="#F2653F" stroke-width=".05" stroke-linejoin="miter" stroke-linecap="butt" stroke-miterlimit="4" fill="none" d="M25.54 17.595l-2.083-.984"/><path id="bx" stroke="#F2653F" stroke-width=".05" stroke-linejoin="round" stroke-linecap="round" fill="none" d="M32.17 13.95v10.532q0 2.15-.764 3.243-1.007 1.458-3.54 1.458V13.951q.832-.62 1.11-1.13.382-.802.382-2.55 0-1.094-.174-1.75l1.666-.036q-.138.583-.138 1.785 0 1.75.381 2.551.243.547 1.076 1.13z"/><path id="by" stroke="#F2653F" stroke-width=".05" stroke-linejoin="round" stroke-linecap="round" fill="none" d="M29.323 9.286q0 .11.73.11.693 0 .693-.11"/><path id="bz" stroke="#F2653F" stroke-width=".05" stroke-linejoin="round" stroke-linecap="round" fill="none" d="M29.358 10.015q0 .11.694.11.66-.037.66-.11"/><path id="bA" stroke="#F2653F" stroke-width=".05" stroke-linejoin="round" stroke-linecap="round" fill="none" d="M29.358 10.744q0 .073.694.073.66 0 .66-.073"/><path id="bB" stroke="#F2653F" stroke-width=".05" stroke-linejoin="round" stroke-linecap="round" fill="none" d="M29.288 11.473q0 .073.73.073.728 0 .728-.073"/><path id="bC" stroke="#F2653F" stroke-width=".05" stroke-linejoin="round" stroke-linecap="round" fill="none" d="M30.017 14.17q-.381-.365-.624-1.057-.209-.547-.209-.948 0 .11.833.11t.833-.11q-.069 1.203-.833 2.004z"/><path id="bE" stroke="#F2653F" stroke-width=".05" stroke-linejoin="round" stroke-linecap="round" fill="none" d="M30.052 5.533q-.868 0-1.458.474-.625.51-.625 1.202 0 .693.625 1.166.59.51 1.458.51t1.458-.51q.625-.473.625-1.166 0-.692-.625-1.202-.59-.474-1.458-.474z"/><path id="bG" stroke="#F2653F" stroke-width=".05" stroke-linejoin="miter" stroke-linecap="butt" stroke-miterlimit="4" fill="none" d="M30.017 4.877q-.45 0-.45.437 0 .438.45.438.486 0 .486-.438 0-.437-.486-.437z"/><path id="bI" stroke="#F2653F" stroke-width=".05" stroke-linejoin="miter" stroke-linecap="butt" stroke-miterlimit="4" fill="none" d="M28.108 6.663q-.486 0-.486.51t.486.51q.486 0 .486-.51t-.486-.51z"/><path id="bK" stroke="#F2653F" stroke-width=".05" stroke-linejoin="miter" stroke-linecap="butt" stroke-miterlimit="4" fill="none" d="M31.961 6.663q.486 0 .486.51t-.486.51q-.486 0-.486-.51t.486-.51z"/><path id="bM" stroke="#F2653F" stroke-width=".05" stroke-linejoin="miter" stroke-linecap="butt" stroke-miterlimit="4" fill="none" d="M30.017 6.663q-.45 0-.45.51 0 .473.45.473.486 0 .486-.473 0-.51-.486-.51z"/><path id="bN" stroke="#F2653F" stroke-width=".05" stroke-linejoin="round" stroke-linecap="butt" fill="none" d="M28.525 8.339q.347-.437.347-1.13 0-.692-.347-1.166"/><path id="bO" stroke="#F2653F" stroke-width=".05" stroke-linejoin="round" stroke-linecap="butt" fill="none" d="M28.907 8.594q.416-.547.416-1.385 0-.874-.416-1.421"/><path id="bP" stroke="#F2653F" stroke-width=".05" stroke-linejoin="round" stroke-linecap="butt" fill="none" d="M31.51 8.339q-.347-.437-.347-1.13 0-.692.347-1.166"/><path id="bQ" stroke="#F2653F" stroke-width=".05" stroke-linejoin="round" stroke-linecap="butt" fill="none" d="M31.163 8.594q-.451-.547-.451-1.385 0-.802.416-1.421"/><path id="bS" stroke="#F2653F" stroke-width=".05" stroke-linejoin="miter" stroke-linecap="butt" stroke-miterlimit="4" fill="none" d="M30.017 13.331q-.763 0-.763.802 0 .765.763.765.764 0 .764-.765 0-.802-.764-.802z"/><path id="bU" stroke="#F2653F" stroke-width=".05" stroke-linejoin="miter" stroke-linecap="butt" stroke-miterlimit="4" fill="none" d="M28.664 13.66q-.417 0-.417.437t.417.437q.416 0 .416-.437 0-.438-.416-.438z"/><path id="bW" stroke="#F2653F" stroke-width=".05" stroke-linejoin="miter" stroke-linecap="butt" stroke-miterlimit="4" fill="none" d="M31.371 13.66q.417 0 .417.437t-.417.437q-.416 0-.416-.437 0-.438.416-.438z"/><path id="bX" stroke="#F2653F" stroke-width=".05" stroke-linejoin="round" stroke-linecap="butt" fill="none" d="M32.17 14.716q0 .328-2.153.328-2.152 0-2.152-.328"/><path id="bY" stroke="#F2653F" stroke-width=".05" stroke-linejoin="round" stroke-linecap="butt" fill="none" d="M32.17 15.372q0 .328-2.153.328-2.152 0-2.152-.328"/><path id="bZ" stroke="#F2653F" stroke-width=".05" stroke-linejoin="round" stroke-linecap="butt" fill="none" d="M32.17 16.575q0 .327-2.153.327-2.152 0-2.152-.327"/><path id="ca" stroke="#F2653F" stroke-width=".05" stroke-linejoin="round" stroke-linecap="butt" fill="none" d="M32.17 17.23q0 .328-2.153.328-2.152 0-2.152-.328"/><path id="cb" stroke="#F2653F" stroke-width=".05" stroke-linejoin="round" stroke-linecap="round" fill="none" d="M28.004 15.736q.104.037.139.292.104.692.486.4-.07.037-.104-.072-.07-.11 0-.182.104-.146.277-.11.209.037.209.292 0 .291-.313.291.07.037.417 0 .223-.067.295.091-.253-.602.087-.674.173-.036.208.073.07.11-.035.255-.139.183.035.292.174.073.278-.11.07-.182.034-.437-.07-.255-.243-.291"/><path id="cc" stroke="#F2653F" stroke-width=".05" stroke-linejoin="round" stroke-linecap="round" fill="none" d="M32.065 15.736q-.104.037-.173.292-.104.692-.451.4.173-.181.069-.254-.104-.146-.278-.11-.208.037-.208.292 0 .291.312.291-.069.037-.416 0-.224-.067-.295.091.252-.602-.087-.674-.139-.036-.174.073-.069.11 0 .255.14.183-.034.292-.174.073-.243-.11-.104-.182-.035-.437.07-.255.243-.291"/><path id="cd" stroke="#F2653F" stroke-width=".05" stroke-linejoin="round" stroke-linecap="butt" fill="none" d="M32.17 18.178q0 .11-.625.219-.66.109-1.528.109-.867 0-1.527-.11-.625-.109-.625-.218"/><path id="ce" stroke="#F2653F" stroke-width=".05" stroke-linejoin="miter" stroke-linecap="butt" stroke-miterlimit="4" fill="none" d="M30.017 17.704q-.312 0-.312.328 0 .292.312.292.313 0 .313-.292 0-.328-.313-.328z"/><path id="cf" stroke="#F2653F" stroke-width=".05" stroke-linejoin="miter" stroke-linecap="butt" stroke-miterlimit="4" fill="none" d="M30.85 17.668q-.312 0-.312.328t.312.328q.313 0 .313-.328t-.313-.328z"/><path id="cg" stroke="#F2653F" stroke-width=".05" stroke-linejoin="miter" stroke-linecap="butt" stroke-miterlimit="4" fill="none" d="M31.58 17.595q-.278 0-.278.328t.277.328q.278 0 .278-.328t-.278-.328z"/><path id="ch" stroke="#F2653F" stroke-width=".05" stroke-linejoin="miter" stroke-linecap="butt" stroke-miterlimit="4" fill="none" d="M32.17 17.376q-.209.037-.209.328 0 .255.208.292"/><path id="ci" stroke="#F2653F" stroke-width=".05" stroke-linejoin="miter" stroke-linecap="butt" stroke-miterlimit="4" fill="none" d="M29.184 17.668q.313 0 .313.328t-.313.328q-.277 0-.312-.328 0-.328.312-.328z"/><path id="cj" stroke="#F2653F" stroke-width=".05" stroke-linejoin="miter" stroke-linecap="butt" stroke-miterlimit="4" fill="none" d="M28.455 17.595q.278 0 .278.328t-.278.328q-.277 0-.277-.328t.277-.328z"/><path id="ck" stroke="#F2653F" stroke-width=".05" stroke-linejoin="miter" stroke-linecap="butt" stroke-miterlimit="4" fill="none" d="M27.865 17.376q.209.037.209.328 0 .255-.209.292"/><path id="cl" stroke="#F2653F" stroke-width=".05" stroke-linejoin="miter" stroke-linecap="butt" stroke-miterlimit="4" fill="none" d="M27.865 23.389q0-.328.73-1.13l1.214-1.275q1.18-1.166 1.632-1.676.728-.802.728-1.203"/><path id="cm" stroke="#F2653F" stroke-width=".05" stroke-linejoin="miter" stroke-linecap="butt" stroke-miterlimit="4" fill="none" d="M27.865 24.3q0-.364 1.944-2.405 1.18-1.166 1.632-1.676.728-.802.728-1.203"/><path id="cn" stroke="#F2653F" stroke-width=".05" stroke-linejoin="miter" stroke-linecap="butt" stroke-miterlimit="4" fill="none" d="M27.865 25.211q0-.291.73-1.093.867-.911 1.214-1.312 1.18-1.166 1.632-1.64.728-.838.728-1.239"/><path id="co" stroke="#F2653F" stroke-width=".05" stroke-linejoin="miter" stroke-linecap="butt" stroke-miterlimit="4" fill="none" d="M27.865 26.159q0-.328.73-1.13.867-.911 1.214-1.312 1.18-1.166 1.632-1.64.728-.802.728-1.202"/><path id="cp" stroke="#F2653F" stroke-width=".05" stroke-linejoin="miter" stroke-linecap="butt" stroke-miterlimit="4" fill="none" d="M27.865 27.07q0-.328.73-1.13l1.214-1.276q1.18-1.166 1.632-1.676.728-.802.728-1.202"/><path id="cq" stroke="#F2653F" stroke-width=".05" stroke-linejoin="miter" stroke-linecap="butt" stroke-miterlimit="4" fill="none" d="M27.865 27.98q0-.364 1.944-2.405 1.18-1.166 1.632-1.676.728-.802.728-1.202"/><path id="cr" stroke="#F2653F" stroke-width=".05" stroke-linejoin="miter" stroke-linecap="butt" stroke-miterlimit="4" fill="none" d="M27.865 28.892q0-.365 1.944-2.406 1.18-1.166 1.632-1.676.728-.802.728-1.202"/><path id="cs" stroke="#F2653F" stroke-width=".05" stroke-linejoin="miter" stroke-linecap="butt" stroke-miterlimit="4" fill="none" d="M28.386 29.183q0-.291.625-.984.798-.802 1.11-1.13 1.007-1.02 1.389-1.457.66-.729.66-1.057"/><path id="ct" stroke="#F2653F" stroke-width=".05" stroke-linejoin="miter" stroke-linecap="butt" stroke-miterlimit="4" fill="none" d="M29.254 29.037q0-.328 1.319-1.603.798-.802 1.076-1.093.451-.547.486-.802"/><path id="cu" stroke="#F2653F" stroke-width=".05" stroke-linejoin="miter" stroke-linecap="butt" stroke-miterlimit="4" fill="none" d="M27.865 22.514q0-.328.73-1.13.867-.91 1.214-1.311 1.493-1.494 1.666-1.676"/><path id="cv" stroke="#F2653F" stroke-width=".05" stroke-linejoin="miter" stroke-linecap="butt" stroke-miterlimit="4" fill="none" d="M27.865 21.603q0-.364 1.944-2.405l.694-.692"/><path id="cw" stroke="#F2653F" stroke-width=".05" stroke-linejoin="miter" stroke-linecap="butt" stroke-miterlimit="4" fill="none" d="M27.865 20.729q0-.365 1.77-2.223"/><path id="cx" stroke="#F2653F" stroke-width=".05" stroke-linejoin="miter" stroke-linecap="butt" stroke-miterlimit="4" fill="none" d="M27.865 19.854q0-.4.972-1.421"/><path id="cy" stroke="#F2653F" stroke-width=".05" stroke-linejoin="miter" stroke-linecap="butt" stroke-miterlimit="4" fill="none" d="M27.865 18.943q0-.146.313-.62"/><path id="cz" stroke="#F2653F" stroke-width=".05" stroke-linejoin="miter" stroke-linecap="butt" stroke-miterlimit="4" fill="none" d="M31.857 26.814q-.173.474-1.666 1.895"/><path id="cA" stroke="#F2653F" stroke-width=".05" stroke-linejoin="miter" stroke-linecap="butt" stroke-miterlimit="4" fill="none" d="M32.17 23.389q0-.328-.695-1.13-.902-.91-1.25-1.275-1.18-1.166-1.596-1.676-.729-.802-.729-1.203"/><path id="cB" stroke="#F2653F" stroke-width=".05" stroke-linejoin="miter" stroke-linecap="butt" stroke-miterlimit="4" fill="none" d="M32.17 24.264q0-.292-.695-1.094-.902-.91-1.25-1.275-1.18-1.166-1.63-1.676-.73-.802-.73-1.203"/><path id="cC" stroke="#F2653F" stroke-width=".05" stroke-linejoin="miter" stroke-linecap="butt" stroke-miterlimit="4" fill="none" d="M32.135 25.138q0-.291-.694-1.057-.868-.874-1.215-1.275-1.18-1.166-1.632-1.64-.729-.838-.729-1.239"/><path id="cD" stroke="#F2653F" stroke-width=".05" stroke-linejoin="miter" stroke-linecap="butt" stroke-miterlimit="4" fill="none" d="M32.065 25.976q.035-.291-.66-1.02-.832-.838-1.18-1.239-1.18-1.166-1.63-1.64-.73-.802-.73-1.202"/><path id="cE" stroke="#F2653F" stroke-width=".05" stroke-linejoin="miter" stroke-linecap="butt" stroke-miterlimit="4" fill="none" d="M31.892 26.705q.034-.255-1.666-2.04-1.18-1.167-1.632-1.677-.729-.802-.729-1.202"/><path id="cF" stroke="#F2653F" stroke-width=".05" stroke-linejoin="miter" stroke-linecap="butt" stroke-miterlimit="4" fill="none" d="M31.718 27.179q-.243-.401-1.492-1.604-1.18-1.166-1.632-1.676-.729-.802-.729-1.202"/><path id="cG" stroke="#F2653F" stroke-width=".05" stroke-linejoin="miter" stroke-linecap="butt" stroke-miterlimit="4" fill="none" d="M31.475 27.616q-.243-.036-.52-.328-.417-.474-.73-.802-1.18-1.166-1.63-1.676-.73-.802-.73-1.202"/><path id="cH" stroke="#F2653F" stroke-width=".05" stroke-linejoin="miter" stroke-linecap="butt" stroke-miterlimit="4" fill="none" d="M31.093 28.09q-.138.036-1.77-1.676-.868-.875-1.11-1.13-.348-.364-.348-.729"/><path id="cI" stroke="#F2653F" stroke-width=".05" stroke-linejoin="miter" stroke-linecap="butt" stroke-miterlimit="4" fill="none" d="M32.17 22.514q0-.328-.695-1.13-.902-.91-1.25-1.311l-1.596-1.676"/><path id="cJ" stroke="#F2653F" stroke-width=".05" stroke-linejoin="miter" stroke-linecap="butt" stroke-miterlimit="4" fill="none" d="M32.17 21.603q0-.364-1.944-2.405l-.66-.692"/><path id="cK" stroke="#F2653F" stroke-width=".05" stroke-linejoin="miter" stroke-linecap="butt" stroke-miterlimit="4" fill="none" d="M32.17 20.729q0-.474-1.736-2.223"/><path id="cL" stroke="#F2653F" stroke-width=".05" stroke-linejoin="miter" stroke-linecap="butt" stroke-miterlimit="4" fill="none" d="M32.17 19.854q0-.437-.938-1.421"/><path id="cM" stroke="#F2653F" stroke-width=".05" stroke-linejoin="miter" stroke-linecap="butt" stroke-miterlimit="4" fill="none" d="M32.17 18.943q0-.291-.278-.62"/><path id="cN" stroke="#F2653F" stroke-width=".05" stroke-linejoin="miter" stroke-linecap="butt" stroke-miterlimit="4" fill="none" d="M27.865 26.56q.382.364 1.354 1.384.798.838.902.802"/><path id="cO" stroke="#F2653F" stroke-width=".05" stroke-linejoin="miter" stroke-linecap="butt" stroke-miterlimit="4" fill="none" d="M27.935 27.397q1.527 1.604 1.631 1.567"/><path id="cP" stroke="#F2653F" stroke-width=".05" stroke-linejoin="miter" stroke-linecap="butt" stroke-miterlimit="4" fill="none" d="M27.97 28.236q.798.91.902.874"/><path id="cQ" stroke="#F2653F" stroke-width=".05" stroke-linejoin="miter" stroke-linecap="butt" stroke-miterlimit="4" fill="none" d="M27.9 25.794l2.221 2.296q.452.474.521.4"/><path id="cS" stroke="#F2653F" stroke-width=".1" stroke-linejoin="miter" stroke-linecap="butt" stroke-miterlimit="4" fill="none" d="M28.212 23.936q-.208.473-.312 2.696-.104 2.369.278 2.588l1.145-.183q-1.11.11-1.215-1.931-.07-1.13.07-2.332.07-.838.034-.838z"/><path id="cU" stroke="#F2653F" stroke-width=".05" stroke-linejoin="miter" stroke-linecap="butt" stroke-miterlimit="4" fill="none" d="M25.192 24.737q-1.84.255-3.332.328-1.631.073-2.256.656-.729.693 1.007 1.64 1.943 1.057 4.373 1.567 2.395.51 3.818.182-.833.037-.833-1.713-.069-1.93.174-2.842.173-.656.035-.656-.035 0-.521.292-.451.291-2.465.546z"/><path id="cW" stroke="#F2653F" stroke-width=".05" stroke-linejoin="miter" stroke-linecap="butt" stroke-miterlimit="4" fill="none" d="M23.075 28.418q-.035.218-2.464-1.057-1.736-.947-1.007-1.676.66-.62 2.256-.62.52 0 1.076-.11.347-.072.382 0-.382.074-.451 1.677-.104 1.677.208 1.786z"/><path id="cX" stroke="#F2653F" stroke-width=".05" stroke-linejoin="miter" stroke-linecap="butt" stroke-miterlimit="4" fill="none" d="M22.763 24.992q-.382 0-.452 1.604-.034 1.603.209 1.676"/><path id="cY" stroke="#F2653F" stroke-width=".05" stroke-linejoin="miter" stroke-linecap="butt" stroke-miterlimit="4" fill="none" d="M22.59 25.029q-.244 0-1.355 1.13-1.041 1.02-1.284.765"/><path id="cZ" stroke="#F2653F" stroke-width=".05" stroke-linejoin="miter" stroke-linecap="butt" stroke-miterlimit="4" fill="none" d="M22.277 28.2q-.209-.11-.972-1.64-.694-1.349-1.111-1.203"/><path id="da" stroke="#F2653F" stroke-width=".05" stroke-linejoin="miter" stroke-linecap="butt" stroke-miterlimit="4" fill="none" d="M27.692 24.154q-.486.146-.556 2.806-.07 2.332.833 2.26"/><path id="db" stroke="#F2653F" stroke-width=".05" stroke-linejoin="miter" stroke-linecap="butt" stroke-miterlimit="4" fill="none" d="M22.936 25.867q.382-.364.625-.547.417-.4.833-.473"/><path id="dc" stroke="#F2653F" stroke-width=".05" stroke-linejoin="miter" stroke-linecap="butt" stroke-miterlimit="4" fill="none" d="M22.867 26.45q.66-.583 1.076-.947.798-.73 1.215-.766"/><path id="dd" stroke="#F2653F" stroke-width=".05" stroke-linejoin="miter" stroke-linecap="butt" stroke-miterlimit="4" fill="none" d="M22.832 26.997q.208-.146 1.597-1.385 1.006-.911 1.354-.948"/><path id="de" stroke="#F2653F" stroke-width=".05" stroke-linejoin="miter" stroke-linecap="butt" stroke-miterlimit="4" fill="none" d="M22.832 27.616q.382-.255 2.013-1.785 1.354-1.24 1.77-1.312"/><path id="df" stroke="#F2653F" stroke-width=".05" stroke-linejoin="miter" stroke-linecap="butt" stroke-miterlimit="4" fill="none" d="M22.902 28.053q.555-.255 2.499-2.004 1.874-1.676 2.152-1.785"/><path id="dg" stroke="#F2653F" stroke-width=".05" stroke-linejoin="miter" stroke-linecap="butt" stroke-miterlimit="4" fill="none" d="M23.006 28.381q.312.11 2.082-1.42 1.875-1.714 2.222-2.005"/><path id="dh" stroke="#F2653F" stroke-width=".05" stroke-linejoin="miter" stroke-linecap="butt" stroke-miterlimit="4" fill="none" d="M23.457 28.527q.52.182 1.492-.656 1.354-1.275 2.257-2.113"/><path id="di" stroke="#F2653F" stroke-width=".05" stroke-linejoin="miter" stroke-linecap="butt" stroke-miterlimit="4" fill="none" d="M24.012 28.71q.452.109 1.007-.256.66-.437 2.152-1.822"/><path id="dj" stroke="#F2653F" stroke-width=".05" stroke-linejoin="miter" stroke-linecap="butt" stroke-miterlimit="4" fill="none" d="M24.602 28.855q.521.11.938-.073.66-.291 1.596-1.348"/><path id="dk" stroke="#F2653F" stroke-width=".05" stroke-linejoin="miter" stroke-linecap="butt" stroke-miterlimit="4" fill="none" d="M25.609 29.037q.798.146 1.631-.91"/><path id="dl" stroke="#F2653F" stroke-width=".05" stroke-linejoin="miter" stroke-linecap="butt" stroke-miterlimit="4" fill="none" d="M26.58 29.183q.452.073.765-.474"/><path id="dm" stroke="#F2653F" stroke-width=".05" stroke-linejoin="miter" stroke-linecap="butt" stroke-miterlimit="4" fill="none" d="M27.345 29.22q.208 0 .208-.183"/><path id="dn" stroke="#F2653F" stroke-width=".05" stroke-linejoin="miter" stroke-linecap="butt" stroke-miterlimit="4" fill="none" d="M23.04 25.211l.382-.255"/><path id="dp" stroke="#F2653F" stroke-width=".05" stroke-linejoin="miter" stroke-linecap="butt" stroke-miterlimit="4" fill="none" d="M16.827 19.708v3.207q0 .365.382.365h5.415q.347 0 .347-.365v-3.207q0-.364-.347-.364h-5.415q-.382 0-.382.364z"/><path id="dq" stroke="#F2653F" stroke-width=".05" stroke-linejoin="miter" stroke-linecap="butt" stroke-miterlimit="4" fill="none" d="M16.827 20.182h6.144"/><path id="dr" stroke="#F2653F" stroke-width=".05" stroke-linejoin="miter" stroke-linecap="butt" stroke-miterlimit="4" fill="none" d="M17.66 19.344l-.833.838"/><path id="ds" stroke="#F2653F" stroke-width=".05" stroke-linejoin="miter" stroke-linecap="butt" stroke-miterlimit="4" fill="none" d="M18.146 19.344l-.833.838"/><path id="dt" stroke="#F2653F" stroke-width=".05" stroke-linejoin="miter" stroke-linecap="butt" stroke-miterlimit="4" fill="none" d="M18.632 19.344l-.833.838"/><path id="du" stroke="#F2653F" stroke-width=".05" stroke-linejoin="miter" stroke-linecap="butt" stroke-miterlimit="4" fill="none" d="M19.118 19.344l-.833.838"/><path id="dv" stroke="#F2653F" stroke-width=".05" stroke-linejoin="miter" stroke-linecap="butt" stroke-miterlimit="4" fill="none" d="M19.57 19.344l-.8.838"/><path id="dw" stroke="#F2653F" stroke-width=".05" stroke-linejoin="miter" stroke-linecap="butt" stroke-miterlimit="4" fill="none" d="M20.055 19.344l-.798.838"/><path id="dx" stroke="#F2653F" stroke-width=".05" stroke-linejoin="miter" stroke-linecap="butt" stroke-miterlimit="4" fill="none" d="M20.541 19.344l-.798.838"/><path id="dy" stroke="#F2653F" stroke-width=".05" stroke-linejoin="miter" stroke-linecap="butt" stroke-miterlimit="4" fill="none" d="M21.027 19.344l-.798.838"/><path id="dz" stroke="#F2653F" stroke-width=".05" stroke-linejoin="miter" stroke-linecap="butt" stroke-miterlimit="4" fill="none" d="M21.513 19.344l-.798.838"/><path id="dA" stroke="#F2653F" stroke-width=".05" stroke-linejoin="miter" stroke-linecap="butt" stroke-miterlimit="4" fill="none" d="M21.999 19.344l-.798.838"/><path id="dB" stroke="#F2653F" stroke-width=".05" stroke-linejoin="miter" stroke-linecap="butt" stroke-miterlimit="4" fill="none" d="M22.485 19.344l-.798.838"/><path id="dC" stroke="#F2653F" stroke-width=".05" stroke-linejoin="miter" stroke-linecap="butt" stroke-miterlimit="4" fill="none" d="M22.867 19.453l-.694.73"/><path id="dD" stroke="#F2653F" stroke-width=".05" stroke-linejoin="miter" stroke-linecap="butt" stroke-miterlimit="4" fill="none" d="M17.66 20.182l-.729-.729"/><path id="dE" stroke="#F2653F" stroke-width=".05" stroke-linejoin="miter" stroke-linecap="butt" stroke-miterlimit="4" fill="none" d="M18.146 20.182l-.833-.838"/><path id="dF" stroke="#F2653F" stroke-width=".05" stroke-linejoin="miter" stroke-linecap="butt" stroke-miterlimit="4" fill="none" d="M18.632 20.182l-.833-.838"/><path id="dG" stroke="#F2653F" stroke-width=".05" stroke-linejoin="miter" stroke-linecap="butt" stroke-miterlimit="4" fill="none" d="M19.118 20.182l-.833-.838"/><path id="dH" stroke="#F2653F" stroke-width=".05" stroke-linejoin="miter" stroke-linecap="butt" stroke-miterlimit="4" fill="none" d="M19.57 20.182l-.8-.838"/><path id="dI" stroke="#F2653F" stroke-width=".05" stroke-linejoin="miter" stroke-linecap="butt" stroke-miterlimit="4" fill="none" d="M20.055 20.182l-.798-.838"/><path id="dJ" stroke="#F2653F" stroke-width=".05" stroke-linejoin="miter" stroke-linecap="butt" stroke-miterlimit="4" fill="none" d="M20.541 20.182l-.798-.838"/><path id="dK" stroke="#F2653F" stroke-width=".05" stroke-linejoin="miter" stroke-linecap="butt" stroke-miterlimit="4" fill="none" d="M21.027 20.182l-.798-.838"/><path id="dL" stroke="#F2653F" stroke-width=".05" stroke-linejoin="miter" stroke-linecap="butt" stroke-miterlimit="4" fill="none" d="M21.513 20.182l-.798-.838"/><path id="dM" stroke="#F2653F" stroke-width=".05" stroke-linejoin="miter" stroke-linecap="butt" stroke-miterlimit="4" fill="none" d="M21.999 20.182l-.798-.838"/><path id="dN" stroke="#F2653F" stroke-width=".05" stroke-linejoin="miter" stroke-linecap="butt" stroke-miterlimit="4" fill="none" d="M22.485 20.182l-.798-.838"/><path id="dO" stroke="#F2653F" stroke-width=".05" stroke-linejoin="miter" stroke-linecap="butt" stroke-miterlimit="4" fill="none" d="M22.97 20.182l-.797-.838"/><path id="dP" stroke="#F2653F" stroke-width=".05" stroke-linejoin="miter" stroke-linecap="butt" stroke-miterlimit="4" fill="none" d="M20.923 21.458q-.417 0-.208.255.173.182.034.291-.138.11-.312-.073-.278-.182-.312-.145-.035.4-.209.4-.139 0-.139-.182l-.069-.218q-.104-.073-.312.145-.174.183-.313.073-.173-.11 0-.291.243-.255-.208-.255-.312 0-.312-.146 0-.182.312-.182.486 0 .208-.219-.173-.182 0-.328.14-.11.313.073.208.219.312.146l.07-.219q0-.182.138-.182.174 0 .209.4.034.037.312-.145.174-.182.312-.073.14.146-.034.328-.209.219.208.219.312 0 .312.182 0 .146-.312.146z"/><path id="dQ" stroke="#F2653F" stroke-width=".05" stroke-linejoin="miter" stroke-linecap="butt" stroke-miterlimit="4" fill="none" d="M19.916 21.093q-.208 0-.208.219 0 .182.208.182.174 0 .174-.182 0-.219-.174-.219z"/><path id="dR" stroke="#F2653F" stroke-width=".05" stroke-linejoin="miter" stroke-linecap="butt" stroke-miterlimit="4" fill="none" d="M16.827 22.442h6.144"/><path id="dS" stroke="#F2653F" stroke-width=".05" stroke-linejoin="miter" stroke-linecap="butt" stroke-miterlimit="4" fill="none" d="M17.66 23.28l-.833-.838"/><path id="dT" stroke="#F2653F" stroke-width=".05" stroke-linejoin="miter" stroke-linecap="butt" stroke-miterlimit="4" fill="none" d="M18.146 23.28l-.833-.838"/><path id="dU" stroke="#F2653F" stroke-width=".05" stroke-linejoin="miter" stroke-linecap="butt" stroke-miterlimit="4" fill="none" d="M18.632 23.28l-.833-.838"/><path id="dV" stroke="#F2653F" stroke-width=".05" stroke-linejoin="miter" stroke-linecap="butt" stroke-miterlimit="4" fill="none" d="M19.118 23.28l-.833-.838"/><path id="dW" stroke="#F2653F" stroke-width=".05" stroke-linejoin="miter" stroke-linecap="butt" stroke-miterlimit="4" fill="none" d="M19.57 23.28l-.8-.838"/><path id="dX" stroke="#F2653F" stroke-width=".05" stroke-linejoin="miter" stroke-linecap="butt" stroke-miterlimit="4" fill="none" d="M20.055 23.28l-.798-.838"/><path id="dY" stroke="#F2653F" stroke-width=".05" stroke-linejoin="miter" stroke-linecap="butt" stroke-miterlimit="4" fill="none" d="M20.541 23.28l-.798-.838"/><path id="dZ" stroke="#F2653F" stroke-width=".05" stroke-linejoin="miter" stroke-linecap="butt" stroke-miterlimit="4" fill="none" d="M21.027 23.28l-.798-.838"/><path id="ea" stroke="#F2653F" stroke-width=".05" stroke-linejoin="miter" stroke-linecap="butt" stroke-miterlimit="4" fill="none" d="M21.513 23.28l-.798-.838"/><path id="eb" stroke="#F2653F" stroke-width=".05" stroke-linejoin="miter" stroke-linecap="butt" stroke-miterlimit="4" fill="none" d="M21.999 23.28l-.798-.838"/><path id="ec" stroke="#F2653F" stroke-width=".05" stroke-linejoin="miter" stroke-linecap="butt" stroke-miterlimit="4" fill="none" d="M22.485 23.28l-.798-.838"/><path id="ed" stroke="#F2653F" stroke-width=".05" stroke-linejoin="miter" stroke-linecap="butt" stroke-miterlimit="4" fill="none" d="M22.867 23.17l-.694-.728"/><path id="ee" stroke="#F2653F" stroke-width=".05" stroke-linejoin="miter" stroke-linecap="butt" stroke-miterlimit="4" fill="none" d="M17.66 22.442l-.729.728"/><path id="ef" stroke="#F2653F" stroke-width=".05" stroke-linejoin="miter" stroke-linecap="butt" stroke-miterlimit="4" fill="none" d="M18.146 22.442l-.833.838"/><path id="eg" stroke="#F2653F" stroke-width=".05" stroke-linejoin="miter" stroke-linecap="butt" stroke-miterlimit="4" fill="none" d="M18.632 22.442l-.833.838"/><path id="eh" stroke="#F2653F" stroke-width=".05" stroke-linejoin="miter" stroke-linecap="butt" stroke-miterlimit="4" fill="none" d="M19.118 22.442l-.833.838"/><path id="ei" stroke="#F2653F" stroke-width=".05" stroke-linejoin="miter" stroke-linecap="butt" stroke-miterlimit="4" fill="none" d="M19.57 22.442l-.8.838"/><path id="ej" stroke="#F2653F" stroke-width=".05" stroke-linejoin="miter" stroke-linecap="butt" stroke-miterlimit="4" fill="none" d="M20.055 22.442l-.798.838"/><path id="ek" stroke="#F2653F" stroke-width=".05" stroke-linejoin="miter" stroke-linecap="butt" stroke-miterlimit="4" fill="none" d="M20.541 22.442l-.798.838"/><path id="el" stroke="#F2653F" stroke-width=".05" stroke-linejoin="miter" stroke-linecap="butt" stroke-miterlimit="4" fill="none" d="M21.027 22.442l-.798.838"/><path id="em" stroke="#F2653F" stroke-width=".05" stroke-linejoin="miter" stroke-linecap="butt" stroke-miterlimit="4" fill="none" d="M21.513 22.442l-.798.838"/><path id="en" stroke="#F2653F" stroke-width=".05" stroke-linejoin="miter" stroke-linecap="butt" stroke-miterlimit="4" fill="none" d="M21.999 22.442l-.798.838"/><path id="eo" stroke="#F2653F" stroke-width=".05" stroke-linejoin="miter" stroke-linecap="butt" stroke-miterlimit="4" fill="none" d="M22.485 22.442l-.798.838"/><path id="ep" stroke="#F2653F" stroke-width=".05" stroke-linejoin="miter" stroke-linecap="butt" stroke-miterlimit="4" fill="none" d="M22.97 22.442l-.797.838"/><path id="er" stroke="#F2653F" stroke-width=".05" stroke-linejoin="miter" stroke-linecap="butt" stroke-miterlimit="4" fill="none" d="M42.513 19.708v3.207q0 .365-.347.365h-5.415q-.347 0-.347-.365v-3.207q0-.364.347-.364h5.415q.347 0 .347.364z"/><path id="es" stroke="#F2653F" stroke-width=".05" stroke-linejoin="miter" stroke-linecap="butt" stroke-miterlimit="4" fill="none" d="M42.513 20.182h-6.109"/><path id="et" stroke="#F2653F" stroke-width=".05" stroke-linejoin="miter" stroke-linecap="butt" stroke-miterlimit="4" fill="none" d="M41.715 19.344l.798.838"/><path id="eu" stroke="#F2653F" stroke-width=".05" stroke-linejoin="miter" stroke-linecap="butt" stroke-miterlimit="4" fill="none" d="M41.23 19.344l.798.838"/><path id="ev" stroke="#F2653F" stroke-width=".05" stroke-linejoin="miter" stroke-linecap="butt" stroke-miterlimit="4" fill="none" d="M40.743 19.344l.799.838"/><path id="ew" stroke="#F2653F" stroke-width=".05" stroke-linejoin="miter" stroke-linecap="butt" stroke-miterlimit="4" fill="none" d="M40.257 19.344l.799.838"/><path id="ex" stroke="#F2653F" stroke-width=".05" stroke-linejoin="miter" stroke-linecap="butt" stroke-miterlimit="4" fill="none" d="M39.771 19.344l.799.838"/><path id="ey" stroke="#F2653F" stroke-width=".05" stroke-linejoin="miter" stroke-linecap="butt" stroke-miterlimit="4" fill="none" d="M39.285 19.344l.833.838"/><path id="ez" stroke="#F2653F" stroke-width=".05" stroke-linejoin="miter" stroke-linecap="butt" stroke-miterlimit="4" fill="none" d="M38.8 19.344l.832.838"/><path id="eA" stroke="#F2653F" stroke-width=".05" stroke-linejoin="miter" stroke-linecap="butt" stroke-miterlimit="4" fill="none" d="M38.313 19.344l.833.838"/><path id="eB" stroke="#F2653F" stroke-width=".05" stroke-linejoin="miter" stroke-linecap="butt" stroke-miterlimit="4" fill="none" d="M37.827 19.344l.834.838"/><path id="eC" stroke="#F2653F" stroke-width=".05" stroke-linejoin="miter" stroke-linecap="butt" stroke-miterlimit="4" fill="none" d="M37.341 19.344l.834.838"/><path id="eD" stroke="#F2653F" stroke-width=".05" stroke-linejoin="miter" stroke-linecap="butt" stroke-miterlimit="4" fill="none" d="M36.856 19.344l.833.838"/><path id="eE" stroke="#F2653F" stroke-width=".05" stroke-linejoin="miter" stroke-linecap="butt" stroke-miterlimit="4" fill="none" d="M36.508 19.453l.695.73"/><path id="eF" stroke="#F2653F" stroke-width=".05" stroke-linejoin="miter" stroke-linecap="butt" stroke-miterlimit="4" fill="none" d="M41.715 20.182l.694-.729"/><path id="eG" stroke="#F2653F" stroke-width=".05" stroke-linejoin="miter" stroke-linecap="butt" stroke-miterlimit="4" fill="none" d="M41.23 20.182l.798-.838"/><path id="eH" stroke="#F2653F" stroke-width=".05" stroke-linejoin="miter" stroke-linecap="butt" stroke-miterlimit="4" fill="none" d="M40.743 20.182l.799-.838"/><path id="eI" stroke="#F2653F" stroke-width=".05" stroke-linejoin="miter" stroke-linecap="butt" stroke-miterlimit="4" fill="none" d="M40.257 20.182l.799-.838"/><path id="eJ" stroke="#F2653F" stroke-width=".05" stroke-linejoin="miter" stroke-linecap="butt" stroke-miterlimit="4" fill="none" d="M39.771 20.182l.799-.838"/><path id="eK" stroke="#F2653F" stroke-width=".05" stroke-linejoin="miter" stroke-linecap="butt" stroke-miterlimit="4" fill="none" d="M39.285 20.182l.833-.838"/><path id="eL" stroke="#F2653F" stroke-width=".05" stroke-linejoin="miter" stroke-linecap="butt" stroke-miterlimit="4" fill="none" d="M38.8 20.182l.832-.838"/><path id="eM" stroke="#F2653F" stroke-width=".05" stroke-linejoin="miter" stroke-linecap="butt" stroke-miterlimit="4" fill="none" d="M38.313 20.182l.833-.838"/><path id="eN" stroke="#F2653F" stroke-width=".05" stroke-linejoin="miter" stroke-linecap="butt" stroke-miterlimit="4" fill="none" d="M37.827 20.182l.834-.838"/><path id="eO" stroke="#F2653F" stroke-width=".05" stroke-linejoin="miter" stroke-linecap="butt" stroke-miterlimit="4" fill="none" d="M37.341 20.182l.834-.838"/><path id="eP" stroke="#F2653F" stroke-width=".05" stroke-linejoin="miter" stroke-linecap="butt" stroke-miterlimit="4" fill="none" d="M36.856 20.182l.833-.838"/><path id="eQ" stroke="#F2653F" stroke-width=".05" stroke-linejoin="miter" stroke-linecap="butt" stroke-miterlimit="4" fill="none" d="M36.404 20.182l.799-.838"/><path id="eR" stroke="#F2653F" stroke-width=".05" stroke-linejoin="miter" stroke-linecap="butt" stroke-miterlimit="4" fill="none" d="M40.292 20.583q-.139-.11-.312.073-.209.255-.313.146-.035-.401-.208-.401-.104 0-.139.182l-.07.219q-.069.109-.312-.146-.173-.182-.312-.073-.139.146.035.328.208.219-.243.219-.313 0-.313.182 0 .146.313.146.45 0 .243.255-.174.182-.035.291.139.11.312-.073.243-.218.313-.145l.069.218q.035.182.139.182.173 0 .208-.4.104-.073.313.145.173.183.312.073t-.035-.291q-.208-.255.243-.255.278 0 .278-.146 0-.182-.278-.182-.451 0-.243-.219.174-.182.035-.328z"/><path id="eS" stroke="#F2653F" stroke-width=".05" stroke-linejoin="miter" stroke-linecap="butt" stroke-miterlimit="4" fill="none" d="M39.459 21.093q.208 0 .208.219 0 .182-.208.182t-.208-.182q0-.219.208-.219z"/><path id="eT" stroke="#F2653F" stroke-width=".05" stroke-linejoin="miter" stroke-linecap="butt" stroke-miterlimit="4" fill="none" d="M42.513 22.442h-6.109"/><path id="eU" stroke="#F2653F" stroke-width=".05" stroke-linejoin="miter" stroke-linecap="butt" stroke-miterlimit="4" fill="none" d="M41.715 23.28l.798-.838"/><path id="eV" stroke="#F2653F" stroke-width=".05" stroke-linejoin="miter" stroke-linecap="butt" stroke-miterlimit="4" fill="none" d="M41.23 23.28l.798-.838"/><path id="eW" stroke="#F2653F" stroke-width=".05" stroke-linejoin="miter" stroke-linecap="butt" stroke-miterlimit="4" fill="none" d="M40.743 23.28l.799-.838"/><path id="eX" stroke="#F2653F" stroke-width=".05" stroke-linejoin="miter" stroke-linecap="butt" stroke-miterlimit="4" fill="none" d="M40.257 23.28l.799-.838"/><path id="eY" stroke="#F2653F" stroke-width=".05" stroke-linejoin="miter" stroke-linecap="butt" stroke-miterlimit="4" fill="none" d="M39.771 23.28l.799-.838"/><path id="eZ" stroke="#F2653F" stroke-width=".05" stroke-linejoin="miter" stroke-linecap="butt" stroke-miterlimit="4" fill="none" d="M39.285 23.28l.833-.838"/><path id="fa" stroke="#F2653F" stroke-width=".05" stroke-linejoin="miter" stroke-linecap="butt" stroke-miterlimit="4" fill="none" d="M38.8 23.28l.832-.838"/><path id="fb" stroke="#F2653F" stroke-width=".05" stroke-linejoin="miter" stroke-linecap="butt" stroke-miterlimit="4" fill="none" d="M38.313 23.28l.833-.838"/><path id="fc" stroke="#F2653F" stroke-width=".05" stroke-linejoin="miter" stroke-linecap="butt" stroke-miterlimit="4" fill="none" d="M37.827 23.28l.834-.838"/><path id="fd" stroke="#F2653F" stroke-width=".05" stroke-linejoin="miter" stroke-linecap="butt" stroke-miterlimit="4" fill="none" d="M37.341 23.28l.834-.838"/><path id="fe" stroke="#F2653F" stroke-width=".05" stroke-linejoin="miter" stroke-linecap="butt" stroke-miterlimit="4" fill="none" d="M36.856 23.28l.833-.838"/><path id="ff" stroke="#F2653F" stroke-width=".05" stroke-linejoin="miter" stroke-linecap="butt" stroke-miterlimit="4" fill="none" d="M36.508 23.17l.695-.728"/><path id="fg" stroke="#F2653F" stroke-width=".05" stroke-linejoin="miter" stroke-linecap="butt" stroke-miterlimit="4" fill="none" d="M41.715 22.442l.694.728"/><path id="fh" stroke="#F2653F" stroke-width=".05" stroke-linejoin="miter" stroke-linecap="butt" stroke-miterlimit="4" fill="none" d="M41.23 22.442l.798.838"/><path id="fi" stroke="#F2653F" stroke-width=".05" stroke-linejoin="miter" stroke-linecap="butt" stroke-miterlimit="4" fill="none" d="M40.743 22.442l.799.838"/><path id="fj" stroke="#F2653F" stroke-width=".05" stroke-linejoin="miter" stroke-linecap="butt" stroke-miterlimit="4" fill="none" d="M40.257 22.442l.799.838"/><path id="fk" stroke="#F2653F" stroke-width=".05" stroke-linejoin="miter" stroke-linecap="butt" stroke-miterlimit="4" fill="none" d="M39.771 22.442l.799.838"/><path id="fl" stroke="#F2653F" stroke-width=".05" stroke-linejoin="miter" stroke-linecap="butt" stroke-miterlimit="4" fill="none" d="M39.285 22.442l.833.838"/><path id="fm" stroke="#F2653F" stroke-width=".05" stroke-linejoin="miter" stroke-linecap="butt" stroke-miterlimit="4" fill="none" d="M38.8 22.442l.832.838"/><path id="fn" stroke="#F2653F" stroke-width=".05" stroke-linejoin="miter" stroke-linecap="butt" stroke-miterlimit="4" fill="none" d="M38.313 22.442l.833.838"/><path id="fo" stroke="#F2653F" stroke-width=".05" stroke-linejoin="miter" stroke-linecap="butt" stroke-miterlimit="4" fill="none" d="M37.827 22.442l.834.838"/><path id="fp" stroke="#F2653F" stroke-width=".05" stroke-linejoin="miter" stroke-linecap="butt" stroke-miterlimit="4" fill="none" d="M37.341 22.442l.834.838"/><path id="fq" stroke="#F2653F" stroke-width=".05" stroke-linejoin="miter" stroke-linecap="butt" stroke-miterlimit="4" fill="none" d="M36.856 22.442l.833.838"/><path id="fr" stroke="#F2653F" stroke-width=".05" stroke-linejoin="miter" stroke-linecap="butt" stroke-miterlimit="4" fill="none" d="M36.404 22.442l.799.838"/><path id="ft" stroke="#F2653F" stroke-width=".05" stroke-linejoin="miter" stroke-linecap="butt" stroke-miterlimit="4" fill="none" d="M26.026 21.858q2.36-.218 4.2-.072v-.911q-1.493.109-4.2-.073v1.056z"/><path id="fv" stroke="#F2653F" stroke-width=".05" stroke-linejoin="miter" stroke-linecap="butt" stroke-miterlimit="4" fill="none" d="M27.171 21.312q0 .656.07.802.104.328.485.328.382 0 .486-.328.035-.146.035-.802t-.035-.802q-.104-.328-.486-.328-.381 0-.486.328-.069.182-.069.802zm0 0h-.451q0 .874.139 1.202.243.51.867.51.625 0 .868-.51.139-.328.139-1.202 0-.838-.139-1.166-.243-.51-.868-.51-.624 0-.867.51-.14.328-.14 1.166"/><path id="fx" stroke="#F2653F" stroke-width=".05" stroke-linejoin="miter" stroke-linecap="butt" stroke-miterlimit="4" fill="none" d="M25.678 21.312q0 .583.556.583.208 0 .382-.182.138-.146.138-.401 0-.219-.138-.365-.174-.182-.382-.182-.243 0-.382.182-.174.146-.174.365zm0 0h-.555q0 .51.347.838.347.364.799.364.485 0 .798-.364.347-.328.347-.838 0-.474-.347-.838-.313-.365-.798-.365-.452 0-.799.365-.347.364-.347.838"/><path id="fz" stroke="#F2653F" stroke-width=".05" stroke-linejoin="miter" stroke-linecap="butt" stroke-miterlimit="4" fill="none" d="M25.783 21.312q0 .874-.174 1.202-.243.51-.937.51-.694 0-.972-.51-.174-.364-.174-1.202 0-.875.174-1.24.278-.51.972-.51t.937.51q.174.365.174 1.24zm0 0h-.556q0 .692-.035.838-.104.328-.52.328-.417 0-.52-.328-.07-.182-.07-.838 0-.656.07-.838.103-.328.52-.328.416 0 .52.328.035.145.035.838"/><path id="fB" stroke="#F2653F" stroke-width=".05" stroke-linejoin="miter" stroke-linecap="butt" stroke-miterlimit="4" fill="none" d="M22.485 22.04q.07.074 1.041.037.695-.036.764-.146v-.62q.07-.51 0-.619-.07-.109-.764-.145-.972-.037-1.041.036v1.458z"/><path id="fD" stroke="#F2653F" stroke-width=".05" stroke-linejoin="miter" stroke-linecap="butt" stroke-miterlimit="4" fill="none" d="M24.81 21.312v.656q.035.073.695.036.625-.036.66-.182-.07-.219-.07-.51.104-.437.07-.51-.035-.11-.66-.146-.66-.037-.694 0-.07.11 0 .656z"/><path id="fF" stroke="#F2653F" stroke-width=".05" stroke-linejoin="miter" stroke-linecap="butt" stroke-miterlimit="4" fill="none" d="M33.593 21.312q0 .874.173 1.202.243.51.937.51.695 0 .938-.51.173-.328.173-1.202 0-.875-.173-1.24-.243-.51-.938-.51-.694 0-.937.51-.173.365-.173 1.24zm0 0h.555q0-.693.035-.838.104-.328.52-.328.417 0 .521.328.035.145.035.838 0 .692-.035.838-.104.328-.52.328-.417 0-.521-.328-.035-.146-.035-.838"/><path id="fH" stroke="#F2653F" stroke-width=".05" stroke-linejoin="miter" stroke-linecap="butt" stroke-miterlimit="4" fill="none" d="M36.89 22.04q-.104.074-1.041.037-.694-.036-.764-.146v-.62q-.07-.51 0-.619.07-.109.764-.145.937-.037 1.041.036v1.458z"/><path id="fJ" stroke="#F2653F" stroke-width=".05" stroke-linejoin="miter" stroke-linecap="butt" stroke-miterlimit="4" fill="none" d="M31.059 21.312q0 .474.034.583.105.255.417.255t.416-.255q.035-.11.035-.583 0-.437-.035-.547-.104-.255-.416-.255t-.417.255q-.034.11-.034.547zm0 0h-.521q0 .729.139 1.02.208.401.833.401t.833-.4q.139-.292.139-1.021 0-.693-.139-.984-.208-.4-.833-.4t-.833.4q-.139.291-.139.984"/><path id="fL" stroke="#F2653F" stroke-width=".05" stroke-linejoin="miter" stroke-linecap="butt" stroke-miterlimit="4" fill="none" d="M31.267 21.968q-.035.073-.729.036-.59-.036-.625-.182.07-.219.07-.51-.104-.437-.07-.51.035-.11.625-.146.694-.037.729 0v1.312z"/><path id="fN" stroke="#F2653F" stroke-width=".05" stroke-linejoin="miter" stroke-linecap="butt" stroke-miterlimit="4" fill="none" d="M34.356 21.312q0 .474-.07.51-.103.036-1.214.036-1.041 0-1.146-.036-.104-.036-.104-.51 0-.437.104-.474.07-.036 1.146-.036 1.145 0 1.215.036.07 0 .07.474z"/></defs><use xlink:href="#a"/><use xlink:href="#b" transform="matrix(.69429 0 0 .72888 -111.05 -232.5)"/><use xlink:href="#c" transform="matrix(.69429 0 0 .72888 -111.05 -232.5)"/><use xlink:href="#d" transform="matrix(.69429 0 0 .72888 -111.05 -232.5)"/><use xlink:href="#e" transform="matrix(.69426 0 0 .72885 -111.05 -232.5)"/><use xlink:href="#f" transform="matrix(.69426 0 0 .72885 -111.05 -232.5)"/><use xlink:href="#g" transform="matrix(.69426 0 0 .72885 -111.05 -232.5)"/><use xlink:href="#h" transform="matrix(.69426 0 0 .72885 -111.05 -232.5)"/><use xlink:href="#i" transform="matrix(.69426 0 0 .72885 -111.05 -232.5)"/><use xlink:href="#j" transform="matrix(.69426 0 0 .72885 -111.05 -232.5)"/><use xlink:href="#k" transform="matrix(.69426 0 0 .72885 -111.05 -232.5)"/><use xlink:href="#l" transform="matrix(.69426 0 0 .72885 -111.05 -232.5)"/><use xlink:href="#m" transform="matrix(.69426 0 0 .72885 -111.05 -232.5)"/><use xlink:href="#n" transform="matrix(.69426 0 0 .72885 -111.05 -232.5)"/><use xlink:href="#o" transform="matrix(.69426 0 0 .72885 -111.05 -232.5)"/><use xlink:href="#p" transform="matrix(.69426 0 0 .72885 -111.05 -232.5)"/><use xlink:href="#q" transform="matrix(.69426 0 0 .72885 -111.05 -232.5)"/><use xlink:href="#r" transform="matrix(.69426 0 0 .72885 -111.05 -232.5)"/><use xlink:href="#s" transform="matrix(.69426 0 0 .72885 -111.05 -232.5)"/><use xlink:href="#t" transform="matrix(.69426 0 0 .72885 -111.05 -232.5)"/><use xlink:href="#u" transform="matrix(.69426 0 0 .72885 -111.05 -232.5)"/><use xlink:href="#v" transform="matrix(.69426 0 0 .72885 -111.05 -232.5)"/><use xlink:href="#w" transform="matrix(.69426 0 0 .72885 -111.05 -232.5)"/><use xlink:href="#x" transform="matrix(.69426 0 0 .72885 -111.05 -232.5)"/><use xlink:href="#y" transform="matrix(.69426 0 0 .72885 -111.05 -232.5)"/><use xlink:href="#z" transform="matrix(.69426 0 0 .72885 -111.05 -232.5)"/><use xlink:href="#A" transform="matrix(.69423 0 0 .72882 -111.05 -232.5)"/><use xlink:href="#B" transform="matrix(1 0 0 1 -.008 -.006)"/><use xlink:href="#C" transform="matrix(.69426 0 0 .72885 -111.05 -232.5)"/><use xlink:href="#D" transform="matrix(.69423 0 0 .72882 -111.05 -232.5)"/><use xlink:href="#E" transform="matrix(1 0 0 1 -.008 -.006)"/><use xlink:href="#F" transform="matrix(.69423 0 0 .72882 -111.05 -232.5)"/><use xlink:href="#G" transform="matrix(1 0 0 1 -.008 -.006)"/><use xlink:href="#H" transform="matrix(1 0 0 1 -.013 -.016)"/><use xlink:href="#I" transform="matrix(1 0 0 1 -.013 -.016)"/><use xlink:href="#J" transform="matrix(1 0 0 1 -.013 -.016)"/><use xlink:href="#K" transform="matrix(1 0 0 1 -.013 -.016)"/><use xlink:href="#L" transform="matrix(1 0 0 1 -.013 -.016)"/><use xlink:href="#M" transform="matrix(1 0 0 1 -.013 -.016)"/><use xlink:href="#N" transform="matrix(1 0 0 1 -.013 -.016)"/><use xlink:href="#O" transform="matrix(1 0 0 1 -.013 -.016)"/><use xlink:href="#P" transform="matrix(1 0 0 1 -.013 -.016)"/><use xlink:href="#Q" transform="matrix(1 0 0 1 -.013 -.016)"/><use xlink:href="#R" transform="matrix(1 0 0 1 -.013 -.016)"/><use xlink:href="#S" transform="matrix(1 0 0 1 -.013 -.016)"/><use xlink:href="#T" transform="matrix(1 0 0 1 -.013 -.016)"/><use xlink:href="#U" transform="matrix(1 0 0 1 -.013 -.016)"/><use xlink:href="#V" transform="matrix(1 0 0 1 -.013 -.016)"/><use xlink:href="#W" transform="matrix(1 0 0 1 -.013 -.016)"/><use xlink:href="#X" transform="matrix(1 0 0 1 -.013 -.016)"/><use xlink:href="#Y" transform="matrix(1 0 0 1 -.013 -.016)"/><use xlink:href="#Z" transform="matrix(1 0 0 1 -.013 -.016)"/><use xlink:href="#aa" transform="matrix(1 0 0 1 -.008 -.006)"/><use xlink:href="#ab" transform="matrix(.69426 0 0 .72885 -111.05 -232.5)"/><use xlink:href="#ac" transform="matrix(.69426 0 0 .72885 -111.05 -232.5)"/><g transform="matrix(.69423 0 0 .72882 -111.05 -232.5)"><use xlink:href="#ad"/><use xlink:href="#ae" transform="matrix(1.44044 0 0 1.37207 159.95 319)"/></g><use xlink:href="#af" transform="matrix(1 0 0 1 -.008 -.006)"/><use xlink:href="#ag" transform="matrix(1 0 0 1 -.008 -.006)"/><use xlink:href="#ah" transform="matrix(.69426 0 0 .72885 -111.05 -232.5)"/><use xlink:href="#ai" transform="matrix(.69426 0 0 .72885 -111.05 -232.5)"/><use xlink:href="#aj" transform="matrix(.69426 0 0 .72885 -111.05 -232.5)"/><use xlink:href="#ak" transform="matrix(.69426 0 0 .72885 -111.05 -232.5)"/><use xlink:href="#al" transform="matrix(.69426 0 0 .72885 -111.05 -232.5)"/><use xlink:href="#am" transform="matrix(.69426 0 0 .72885 -111.05 -232.5)"/><use xlink:href="#an" transform="matrix(.69426 0 0 .72885 -111.05 -232.5)"/><use xlink:href="#ao" transform="matrix(.69426 0 0 .72885 -111.05 -232.5)"/><use xlink:href="#ap" transform="matrix(.69426 0 0 .72885 -111.05 -232.5)"/><use xlink:href="#aq" transform="matrix(.69426 0 0 .72885 -111.05 -232.5)"/><use xlink:href="#ar" transform="matrix(.69426 0 0 .72885 -111.05 -232.5)"/><use xlink:href="#as" transform="matrix(.69426 0 0 .72885 -111.05 -232.5)"/><use xlink:href="#at" transform="matrix(.69426 0 0 .72885 -111.05 -232.5)"/><use xlink:href="#au" transform="matrix(.69426 0 0 .72885 -111.05 -232.5)"/><use xlink:href="#av" transform="matrix(.69426 0 0 .72885 -111.05 -232.5)"/><use xlink:href="#aw" transform="matrix(.69426 0 0 .72885 -111.05 -232.5)"/><use xlink:href="#ax" transform="matrix(.69423 0 0 .72882 -111.05 -232.5)"/><use xlink:href="#ay" transform="matrix(1 0 0 1 -.008 -.006)"/><use xlink:href="#az" transform="matrix(.69426 0 0 .72885 -111.05 -232.5)"/><use xlink:href="#aA" transform="matrix(.69423 0 0 .72882 -111.05 -232.5)"/><use xlink:href="#aB" transform="matrix(1 0 0 1 -.008 -.006)"/><use xlink:href="#aC" transform="matrix(.69423 0 0 .72882 -111.05 -232.5)"/><use xlink:href="#aD" transform="matrix(1 0 0 1 -.008 -.006)"/><use xlink:href="#aE" transform="matrix(1 0 0 1 -.013 -.016)"/><use xlink:href="#aF" transform="matrix(1 0 0 1 -.013 -.016)"/><use xlink:href="#aG" transform="matrix(1 0 0 1 -.013 -.016)"/><use xlink:href="#aH" transform="matrix(1 0 0 1 -.013 -.016)"/><use xlink:href="#aI" transform="matrix(1 0 0 1 -.013 -.016)"/><use xlink:href="#aJ" transform="matrix(1 0 0 1 -.013 -.016)"/><use xlink:href="#aK" transform="matrix(1 0 0 1 -.013 -.016)"/><use xlink:href="#aL" transform="matrix(1 0 0 1 -.013 -.016)"/><use xlink:href="#aM" transform="matrix(1 0 0 1 -.013 -.016)"/><use xlink:href="#aN" transform="matrix(1 0 0 1 -.013 -.016)"/><use xlink:href="#aO" transform="matrix(1 0 0 1 -.013 -.016)"/><use xlink:href="#aP" transform="matrix(1 0 0 1 -.013 -.016)"/><use xlink:href="#aQ" transform="matrix(1 0 0 1 -.013 -.016)"/><use xlink:href="#aR" transform="matrix(1 0 0 1 -.013 -.016)"/><use xlink:href="#aS" transform="matrix(1 0 0 1 -.013 -.016)"/><use xlink:href="#aT" transform="matrix(1 0 0 1 -.013 -.016)"/><use xlink:href="#aU" transform="matrix(1 0 0 1 -.013 -.016)"/><use xlink:href="#aV" transform="matrix(1 0 0 1 -.013 -.016)"/><use xlink:href="#aW" transform="matrix(1 0 0 1 -.013 -.016)"/><use xlink:href="#aX" transform="matrix(1 0 0 1 -.008 -.006)"/><use xlink:href="#aY" transform="matrix(.69426 0 0 .72885 -111.05 -232.5)"/><use xlink:href="#aZ" transform="matrix(.69426 0 0 .72885 -111.05 -232.5)"/><g transform="matrix(.69423 0 0 .72882 -111.05 -232.5)"><use xlink:href="#ba"/><use xlink:href="#bb" transform="matrix(1.44044 0 0 1.37207 159.95 319)"/></g><use xlink:href="#bc" transform="matrix(1 0 0 1 -.008 -.006)"/><use xlink:href="#bd" transform="matrix(1 0 0 1 -.008 -.006)"/><use xlink:href="#be" transform="matrix(.69426 0 0 .72885 -111.05 -232.5)"/><use xlink:href="#bf" transform="matrix(.69426 0 0 .72885 -111.05 -232.5)"/><use xlink:href="#bg" transform="matrix(.69426 0 0 .72885 -111.05 -232.5)"/><use xlink:href="#bh" transform="matrix(.69426 0 0 .72885 -111.05 -232.5)"/><use xlink:href="#bi" transform="matrix(.69426 0 0 .72885 -111.05 -232.5)"/><use xlink:href="#bj" transform="matrix(.69426 0 0 .72885 -111.05 -232.5)"/><use xlink:href="#bk" transform="matrix(.69426 0 0 .72885 -111.05 -232.5)"/><use xlink:href="#bl" transform="matrix(.69426 0 0 .72885 -111.05 -232.5)"/><use xlink:href="#bm" transform="matrix(.69426 0 0 .72885 -111.05 -232.5)"/><use xlink:href="#bn" transform="matrix(.69426 0 0 .72885 -111.05 -232.5)"/><use xlink:href="#bo" transform="matrix(.69426 0 0 .72885 -111.05 -232.5)"/><use xlink:href="#bp" transform="matrix(.69426 0 0 .72885 -111.05 -232.5)"/><use xlink:href="#bq" transform="matrix(.69426 0 0 .72885 -111.05 -232.5)"/><use xlink:href="#br" transform="matrix(.69426 0 0 .72885 -111.05 -232.5)"/><use xlink:href="#bs" transform="matrix(.69426 0 0 .72885 -111.05 -232.5)"/><use xlink:href="#bt" transform="matrix(.69426 0 0 .72885 -111.05 -232.5)"/><use xlink:href="#bu" transform="matrix(.69426 0 0 .72885 -111.05 -232.5)"/><use xlink:href="#bv" transform="matrix(.69426 0 0 .72885 -111.05 -232.5)"/><g transform="matrix(.69423 0 0 .72882 -111.05 -232.5)"><use xlink:href="#bw"/><use xlink:href="#bx" transform="matrix(1.44044 0 0 1.37207 159.95 319)"/></g><use xlink:href="#by" transform="matrix(1 0 0 1 -.008 -.006)"/><use xlink:href="#bz" transform="matrix(1 0 0 1 -.008 -.006)"/><use xlink:href="#bA" transform="matrix(1 0 0 1 -.008 -.006)"/><use xlink:href="#bB" transform="matrix(1 0 0 1 -.008 -.006)"/><use xlink:href="#bC" transform="matrix(1 0 0 1 -.008 -.006)"/><g transform="matrix(.69423 0 0 .72882 -111.05 -232.5)"><use xlink:href="#bD"/><use xlink:href="#bE" transform="matrix(1.44044 0 0 1.37207 159.95 319)"/></g><g transform="matrix(.69423 0 0 .72882 -111.05 -232.5)"><use xlink:href="#bF"/><use xlink:href="#bG" transform="matrix(1.44044 0 0 1.37207 159.95 319)"/></g><g transform="matrix(.69423 0 0 .72882 -111.05 -232.5)"><use xlink:href="#bH"/><use xlink:href="#bI" transform="matrix(1.44044 0 0 1.37207 159.95 319)"/></g><g transform="matrix(.69423 0 0 .72882 -111.05 -232.5)"><use xlink:href="#bJ"/><use xlink:href="#bK" transform="matrix(1.44044 0 0 1.37207 159.95 319)"/></g><g transform="matrix(.69423 0 0 .72882 -111.05 -232.5)"><use xlink:href="#bL"/><use xlink:href="#bM" transform="matrix(1.44044 0 0 1.37207 159.95 319)"/></g><use xlink:href="#bN" transform="matrix(1 0 0 1 -.008 -.006)"/><use xlink:href="#bO" transform="matrix(1 0 0 1 -.008 -.006)"/><use xlink:href="#bP" transform="matrix(1 0 0 1 -.008 -.006)"/><use xlink:href="#bQ" transform="matrix(1 0 0 1 -.008 -.006)"/><g transform="matrix(.69423 0 0 .72882 -111.05 -232.5)"><use xlink:href="#bR"/><use xlink:href="#bS" transform="matrix(1.44044 0 0 1.37207 159.95 319)"/></g><g transform="matrix(.69423 0 0 .72882 -111.05 -232.5)"><use xlink:href="#bT"/><use xlink:href="#bU" transform="matrix(1.44044 0 0 1.37207 159.95 319)"/></g><g transform="matrix(.69423 0 0 .72882 -111.05 -232.5)"><use xlink:href="#bV"/><use xlink:href="#bW" transform="matrix(1.44044 0 0 1.37207 159.95 319)"/></g><use xlink:href="#bX" transform="matrix(1 0 0 1 -.008 -.006)"/><use xlink:href="#bY" transform="matrix(1 0 0 1 -.008 -.006)"/><use xlink:href="#bZ" transform="matrix(1 0 0 1 -.008 -.006)"/><use xlink:href="#ca" transform="matrix(1 0 0 1 -.008 -.006)"/><use xlink:href="#cb" transform="matrix(1 0 0 1 -.008 -.006)"/><use xlink:href="#cc" transform="matrix(1 0 0 1 -.008 -.006)"/><use xlink:href="#cd" transform="matrix(1 0 0 1 -.008 -.006)"/><use xlink:href="#ce" transform="matrix(1 0 0 1 -.008 -.006)"/><use xlink:href="#cf" transform="matrix(1 0 0 1 -.008 -.006)"/><use xlink:href="#cg" transform="matrix(1 0 0 1 -.008 -.006)"/><use xlink:href="#ch" transform="matrix(1 0 0 1 -.008 -.006)"/><use xlink:href="#ci" transform="matrix(1 0 0 1 -.008 -.006)"/><use xlink:href="#cj" transform="matrix(1 0 0 1 -.008 -.006)"/><use xlink:href="#ck" transform="matrix(1 0 0 1 -.008 -.006)"/><use xlink:href="#cl" transform="matrix(1 0 0 1 -.008 -.006)"/><use xlink:href="#cm" transform="matrix(1 0 0 1 -.008 -.006)"/><use xlink:href="#cn" transform="matrix(1 0 0 1 -.008 -.006)"/><use xlink:href="#co" transform="matrix(1 0 0 1 -.008 -.006)"/><use xlink:href="#cp" transform="matrix(1 0 0 1 -.008 -.006)"/><use xlink:href="#cq" transform="matrix(1 0 0 1 -.008 -.006)"/><use xlink:href="#cr" transform="matrix(1 0 0 1 -.008 -.006)"/><use xlink:href="#cs" transform="matrix(1 0 0 1 -.008 -.006)"/><use xlink:href="#ct" transform="matrix(1 0 0 1 -.008 -.006)"/><use xlink:href="#cu" transform="matrix(1 0 0 1 -.008 -.006)"/><use xlink:href="#cv" transform="matrix(1 0 0 1 -.008 -.006)"/><use xlink:href="#cw" transform="matrix(1 0 0 1 -.008 -.006)"/><use xlink:href="#cx" transform="matrix(1 0 0 1 -.008 -.006)"/><use xlink:href="#cy" transform="matrix(1 0 0 1 -.008 -.006)"/><use xlink:href="#cz" transform="matrix(1 0 0 1 -.008 -.006)"/><use xlink:href="#cA" transform="matrix(1 0 0 1 -.008 -.006)"/><use xlink:href="#cB" transform="matrix(1 0 0 1 -.008 -.006)"/><use xlink:href="#cC" transform="matrix(1 0 0 1 -.008 -.006)"/><use xlink:href="#cD" transform="matrix(1 0 0 1 -.008 -.006)"/><use xlink:href="#cE" transform="matrix(1 0 0 1 -.008 -.006)"/><use xlink:href="#cF" transform="matrix(1 0 0 1 -.008 -.006)"/><use xlink:href="#cG" transform="matrix(1 0 0 1 -.008 -.006)"/><use xlink:href="#cH" transform="matrix(1 0 0 1 -.008 -.006)"/><use xlink:href="#cI" transform="matrix(1 0 0 1 -.008 -.006)"/><use xlink:href="#cJ" transform="matrix(1 0 0 1 -.008 -.006)"/><use xlink:href="#cK" transform="matrix(1 0 0 1 -.008 -.006)"/><use xlink:href="#cL" transform="matrix(1 0 0 1 -.008 -.006)"/><use xlink:href="#cM" transform="matrix(1 0 0 1 -.008 -.006)"/><use xlink:href="#cN" transform="matrix(1 0 0 1 -.008 -.006)"/><use xlink:href="#cO" transform="matrix(1 0 0 1 -.008 -.006)"/><use xlink:href="#cP" transform="matrix(1 0 0 1 -.008 -.006)"/><use xlink:href="#cQ" transform="matrix(1 0 0 1 -.008 -.006)"/><g transform="matrix(.69423 0 0 .72882 -111.05 -232.5)"><use xlink:href="#cR"/><use xlink:href="#cS" transform="matrix(1.44044 0 0 1.37207 159.95 319)"/></g><g transform="matrix(.69423 0 0 .72882 -111.05 -232.5)"><use xlink:href="#cT"/><use xlink:href="#cU" transform="matrix(1.44044 0 0 1.37207 159.95 319)"/></g><g transform="matrix(.69423 0 0 .72882 -111.05 -232.5)"><use xlink:href="#cV"/><use xlink:href="#cW" transform="matrix(1.44044 0 0 1.37207 159.95 319)"/></g><use xlink:href="#cX" transform="matrix(1 0 0 1 -.008 -.006)"/><use xlink:href="#cY" transform="matrix(1 0 0 1 -.008 -.006)"/><use xlink:href="#cZ" transform="matrix(1 0 0 1 -.008 -.006)"/><use xlink:href="#da" transform="matrix(1 0 0 1 -.008 -.006)"/><use xlink:href="#db" transform="matrix(1 0 0 1 -.008 -.006)"/><use xlink:href="#dc" transform="matrix(1 0 0 1 -.008 -.006)"/><use xlink:href="#dd" transform="matrix(1 0 0 1 -.008 -.006)"/><use xlink:href="#de" transform="matrix(1 0 0 1 -.008 -.006)"/><use xlink:href="#df" transform="matrix(1 0 0 1 -.008 -.006)"/><use xlink:href="#dg" transform="matrix(1 0 0 1 -.008 -.006)"/><use xlink:href="#dh" transform="matrix(1 0 0 1 -.008 -.006)"/><use xlink:href="#di" transform="matrix(1 0 0 1 -.008 -.006)"/><use xlink:href="#dj" transform="matrix(1 0 0 1 -.008 -.006)"/><use xlink:href="#dk" transform="matrix(1 0 0 1 -.008 -.006)"/><use xlink:href="#dl" transform="matrix(1 0 0 1 -.008 -.006)"/><use xlink:href="#dm" transform="matrix(1 0 0 1 -.008 -.006)"/><use xlink:href="#dn" transform="matrix(1 0 0 1 -.008 -.006)"/><g transform="matrix(.69423 0 0 .72882 -111.05 -232.5)"><use xlink:href="#do"/><use xlink:href="#dp" transform="matrix(1.44044 0 0 1.37207 159.95 319)"/></g><use xlink:href="#dq" transform="matrix(1 0 0 1 -.008 -.006)"/><use xlink:href="#dr" transform="matrix(1 0 0 1 -.008 -.006)"/><use xlink:href="#ds" transform="matrix(1 0 0 1 -.008 -.006)"/><use xlink:href="#dt" transform="matrix(1 0 0 1 -.008 -.006)"/><use xlink:href="#du" transform="matrix(1 0 0 1 -.008 -.006)"/><use xlink:href="#dv" transform="matrix(1 0 0 1 -.008 -.006)"/><use xlink:href="#dw" transform="matrix(1 0 0 1 -.008 -.006)"/><use xlink:href="#dx" transform="matrix(1 0 0 1 -.008 -.006)"/><use xlink:href="#dy" transform="matrix(1 0 0 1 -.008 -.006)"/><use xlink:href="#dz" transform="matrix(1 0 0 1 -.008 -.006)"/><use xlink:href="#dA" transform="matrix(1 0 0 1 -.008 -.006)"/><use xlink:href="#dB" transform="matrix(1 0 0 1 -.008 -.006)"/><use xlink:href="#dC" transform="matrix(1 0 0 1 -.008 -.006)"/><use xlink:href="#dD" transform="matrix(1 0 0 1 -.008 -.006)"/><use xlink:href="#dE" transform="matrix(1 0 0 1 -.008 -.006)"/><use xlink:href="#dF" transform="matrix(1 0 0 1 -.008 -.006)"/><use xlink:href="#dG" transform="matrix(1 0 0 1 -.008 -.006)"/><use xlink:href="#dH" transform="matrix(1 0 0 1 -.008 -.006)"/><use xlink:href="#dI" transform="matrix(1 0 0 1 -.008 -.006)"/><use xlink:href="#dJ" transform="matrix(1 0 0 1 -.008 -.006)"/><use xlink:href="#dK" transform="matrix(1 0 0 1 -.008 -.006)"/><use xlink:href="#dL" transform="matrix(1 0 0 1 -.008 -.006)"/><use xlink:href="#dM" transform="matrix(1 0 0 1 -.008 -.006)"/><use xlink:href="#dN" transform="matrix(1 0 0 1 -.008 -.006)"/><use xlink:href="#dO" transform="matrix(1 0 0 1 -.008 -.006)"/><use xlink:href="#dP" transform="matrix(1 0 0 1 -.008 -.006)"/><use xlink:href="#dQ" transform="matrix(1 0 0 1 -.008 -.006)"/><use xlink:href="#dR" transform="matrix(1 0 0 1 -.008 -.006)"/><use xlink:href="#dS" transform="matrix(1 0 0 1 -.008 -.006)"/><use xlink:href="#dT" transform="matrix(1 0 0 1 -.008 -.006)"/><use xlink:href="#dU" transform="matrix(1 0 0 1 -.008 -.006)"/><use xlink:href="#dV" transform="matrix(1 0 0 1 -.008 -.006)"/><use xlink:href="#dW" transform="matrix(1 0 0 1 -.008 -.006)"/><use xlink:href="#dX" transform="matrix(1 0 0 1 -.008 -.006)"/><use xlink:href="#dY" transform="matrix(1 0 0 1 -.008 -.006)"/><use xlink:href="#dZ" transform="matrix(1 0 0 1 -.008 -.006)"/><use xlink:href="#ea" transform="matrix(1 0 0 1 -.008 -.006)"/><use xlink:href="#eb" transform="matrix(1 0 0 1 -.008 -.006)"/><use xlink:href="#ec" transform="matrix(1 0 0 1 -.008 -.006)"/><use xlink:href="#ed" transform="matrix(1 0 0 1 -.008 -.006)"/><use xlink:href="#ee" transform="matrix(1 0 0 1 -.008 -.006)"/><use xlink:href="#ef" transform="matrix(1 0 0 1 -.008 -.006)"/><use xlink:href="#eg" transform="matrix(1 0 0 1 -.008 -.006)"/><use xlink:href="#eh" transform="matrix(1 0 0 1 -.008 -.006)"/><use xlink:href="#ei" transform="matrix(1 0 0 1 -.008 -.006)"/><use xlink:href="#ej" transform="matrix(1 0 0 1 -.008 -.006)"/><use xlink:href="#ek" transform="matrix(1 0 0 1 -.008 -.006)"/><use xlink:href="#el" transform="matrix(1 0 0 1 -.008 -.006)"/><use xlink:href="#em" transform="matrix(1 0 0 1 -.008 -.006)"/><use xlink:href="#en" transform="matrix(1 0 0 1 -.008 -.006)"/><use xlink:href="#eo" transform="matrix(1 0 0 1 -.008 -.006)"/><use xlink:href="#ep" transform="matrix(1 0 0 1 -.008 -.006)"/><g transform="matrix(.69423 0 0 .72882 -111.05 -232.5)"><use xlink:href="#eq"/><use xlink:href="#er" transform="matrix(1.44044 0 0 1.37207 159.95 319)"/></g><use xlink:href="#es" transform="matrix(1 0 0 1 -.008 -.006)"/><use xlink:href="#et" transform="matrix(1 0 0 1 -.008 -.006)"/><use xlink:href="#eu" transform="matrix(1 0 0 1 -.008 -.006)"/><use xlink:href="#ev" transform="matrix(1 0 0 1 -.008 -.006)"/><use xlink:href="#ew" transform="matrix(1 0 0 1 -.008 -.006)"/><use xlink:href="#ex" transform="matrix(1 0 0 1 -.008 -.006)"/><use xlink:href="#ey" transform="matrix(1 0 0 1 -.008 -.006)"/><use xlink:href="#ez" transform="matrix(1 0 0 1 -.008 -.006)"/><use xlink:href="#eA" transform="matrix(1 0 0 1 -.008 -.006)"/><use xlink:href="#eB" transform="matrix(1 0 0 1 -.008 -.006)"/><use xlink:href="#eC" transform="matrix(1 0 0 1 -.008 -.006)"/><use xlink:href="#eD" transform="matrix(1 0 0 1 -.008 -.006)"/><use xlink:href="#eE" transform="matrix(1 0 0 1 -.008 -.006)"/><use xlink:href="#eF" transform="matrix(1 0 0 1 -.008 -.006)"/><use xlink:href="#eG" transform="matrix(1 0 0 1 -.008 -.006)"/><use xlink:href="#eH" transform="matrix(1 0 0 1 -.008 -.006)"/><use xlink:href="#eI" transform="matrix(1 0 0 1 -.008 -.006)"/><use xlink:href="#eJ" transform="matrix(1 0 0 1 -.008 -.006)"/><use xlink:href="#eK" transform="matrix(1 0 0 1 -.008 -.006)"/><use xlink:href="#eL" transform="matrix(1 0 0 1 -.008 -.006)"/><use xlink:href="#eM" transform="matrix(1 0 0 1 -.008 -.006)"/><use xlink:href="#eN" transform="matrix(1 0 0 1 -.008 -.006)"/><use xlink:href="#eO" transform="matrix(1 0 0 1 -.008 -.006)"/><use xlink:href="#eP" transform="matrix(1 0 0 1 -.008 -.006)"/><use xlink:href="#eQ" transform="matrix(1 0 0 1 -.008 -.006)"/><use xlink:href="#eR" transform="matrix(1 0 0 1 -.008 -.006)"/><use xlink:href="#eS" transform="matrix(1 0 0 1 -.008 -.006)"/><use xlink:href="#eT" transform="matrix(1 0 0 1 -.008 -.006)"/><use xlink:href="#eU" transform="matrix(1 0 0 1 -.008 -.006)"/><use xlink:href="#eV" transform="matrix(1 0 0 1 -.008 -.006)"/><use xlink:href="#eW" transform="matrix(1 0 0 1 -.008 -.006)"/><use xlink:href="#eX" transform="matrix(1 0 0 1 -.008 -.006)"/><use xlink:href="#eY" transform="matrix(1 0 0 1 -.008 -.006)"/><use xlink:href="#eZ" transform="matrix(1 0 0 1 -.008 -.006)"/><use xlink:href="#fa" transform="matrix(1 0 0 1 -.008 -.006)"/><use xlink:href="#fb" transform="matrix(1 0 0 1 -.008 -.006)"/><use xlink:href="#fc" transform="matrix(1 0 0 1 -.008 -.006)"/><use xlink:href="#fd" transform="matrix(1 0 0 1 -.008 -.006)"/><use xlink:href="#fe" transform="matrix(1 0 0 1 -.008 -.006)"/><use xlink:href="#ff" transform="matrix(1 0 0 1 -.008 -.006)"/><use xlink:href="#fg" transform="matrix(1 0 0 1 -.008 -.006)"/><use xlink:href="#fh" transform="matrix(1 0 0 1 -.008 -.006)"/><use xlink:href="#fi" transform="matrix(1 0 0 1 -.008 -.006)"/><use xlink:href="#fj" transform="matrix(1 0 0 1 -.008 -.006)"/><use xlink:href="#fk" transform="matrix(1 0 0 1 -.008 -.006)"/><use xlink:href="#fl" transform="matrix(1 0 0 1 -.008 -.006)"/><use xlink:href="#fm" transform="matrix(1 0 0 1 -.008 -.006)"/><use xlink:href="#fn" transform="matrix(1 0 0 1 -.008 -.006)"/><use xlink:href="#fo" transform="matrix(1 0 0 1 -.008 -.006)"/><use xlink:href="#fp" transform="matrix(1 0 0 1 -.008 -.006)"/><use xlink:href="#fq" transform="matrix(1 0 0 1 -.008 -.006)"/><use xlink:href="#fr" transform="matrix(1 0 0 1 -.008 -.006)"/><g transform="matrix(.69423 0 0 .72882 -111.05 -232.5)"><use xlink:href="#fs"/><use xlink:href="#ft" transform="matrix(1.44044 0 0 1.37207 159.95 319)"/></g><g transform="matrix(.69423 0 0 .72882 -111.05 -232.5)"><use xlink:href="#fu"/><use xlink:href="#fv" transform="matrix(1.44044 0 0 1.37207 159.95 319)"/></g><g transform="matrix(.69423 0 0 .72882 -111.05 -232.5)"><use xlink:href="#fw"/><use xlink:href="#fx" transform="matrix(1.44044 0 0 1.37207 159.95 319)"/></g><g transform="matrix(.69423 0 0 .72882 -111.05 -232.5)"><use xlink:href="#fy"/><use xlink:href="#fz" transform="matrix(1.44044 0 0 1.37207 159.95 319)"/></g><g transform="matrix(.69423 0 0 .72882 -111.05 -232.5)"><use xlink:href="#fA"/><use xlink:href="#fB" transform="matrix(1.44044 0 0 1.37207 159.95 319)"/></g><g transform="matrix(.69423 0 0 .72882 -111.05 -232.5)"><use xlink:href="#fC"/><use xlink:href="#fD" transform="matrix(1.44044 0 0 1.37207 159.95 319)"/></g><g transform="matrix(.69423 0 0 .72882 -111.05 -232.5)"><use xlink:href="#fE"/><use xlink:href="#fF" transform="matrix(1.44044 0 0 1.37207 159.95 319)"/></g><g transform="matrix(.69423 0 0 .72882 -111.05 -232.5)"><use xlink:href="#fG"/><use xlink:href="#fH" transform="matrix(1.44044 0 0 1.37207 159.95 319)"/></g><g transform="matrix(.69423 0 0 .72882 -111.05 -232.5)"><use xlink:href="#fI"/><use xlink:href="#fJ" transform="matrix(1.44044 0 0 1.37207 159.95 319)"/></g><g transform="matrix(.69423 0 0 .72882 -111.05 -232.5)"><use xlink:href="#fK"/><use xlink:href="#fL" transform="matrix(1.44044 0 0 1.37207 159.95 319)"/></g><g transform="matrix(.69423 0 0 .72882 -111.05 -232.5)"><use xlink:href="#fM"/><use xlink:href="#fN" transform="matrix(1.44044 0 0 1.37207 159.95 319)"/></g></svg>