<svg xmlns="http://www.w3.org/2000/svg" xmlns:xlink="http://www.w3.org/1999/xlink" preserveAspectRatio="none" width="200" height="105"><defs><path fill="#FFF" d="M65.5 37.1q-5.6-2.3-9.4.2-4.1 2.75-4.1 9.05 0 6.2 3.8 12.45 3.9 6.1 9.4 8.5 5.5 2.55 9.3-.2 3.9-2.6 3.9-9.05.1-6.1-3.8-12.45-3.7-6-9.1-8.5m33.6 18.65Q90.7 56.8 84 63.2q-.1 0-.3.2-16.9 18.85-12.8 31.1l.1.1q5 8.55 13.7 5.6l12.6-4.65q4.2-1.05 7.2.3l8.7 3.6q10.55 4.2 15.35-3.25 3.1-8.45-1.6-18.05-.1-.2-.2-.3Q114.4 55.1 99.2 55.75h-.1m-2.8-35.5q-2-7.5-6.9-11.8-4.8-4.1-9.6-2.85-4.7 1.6-6.5 7.9-2 6.45.2 13.8 2 7.6 6.9 11.7 4.9 4.3 9.6 2.85 4.7-1.5 6.6-7.9 1.8-6.35-.3-13.7m31.05 7.05q2.1-7.35.3-13.8-1.9-6.3-6.7-7.9-4.65-1.25-9.45 2.85-4.8 4.3-7 11.8-2 7.35-.1 13.7 1.8 6.4 6.5 7.9 4.8 1.45 9.55-2.85 4.8-4.1 6.9-11.7m8 9.8q-5.4 2.5-9.3 8.5-3.7 6.35-3.7 12.45.1 6.45 3.9 9.05 4 2.75 9.4.2 5.6-2.4 9.3-8.5 3.8-6.25 3.7-12.45 0-6.3-3.8-9.05-3.9-2.5-9.5-.2z" id="a"/><path fill="#FFF" d="M182.45 465.5H398.5V321.55H182.45V465.5z" id="b"/><path fill="#006DA8" d="M290.5 393.65H182.45v71.85H290.5v-71.85z" id="c"/><path fill="#006DA8" d="M225.65 372.75l10.85-7.95 10.85 7.95-4.15-12.85 10.9-7.8h-13.45l-4.15-12.8-4.1 12.75h-13.5l10.95 7.95-4.2 12.75z" id="d"/><path fill="#EF4A4E" d="M398.5 393.65v-72.1h-108v72.1h108z" id="e"/><path fill="#EF4A4E" d="M340.35 423.8h-13.5l11 7.95-4.25 12.75 10.85-7.9 10.85 7.9-4.15-12.85 10.9-7.8h-13.4l-4.2-12.8-4.1 12.75z" id="f"/></defs><use xlink:href="#a"/><use xlink:href="#b" transform="matrix(.92569 0 0 .72935 -168.9 -234.5)"/><use xlink:href="#c" transform="matrix(.92569 0 0 .72935 -168.9 -234.5)"/><use xlink:href="#d" transform="matrix(.92569 0 0 .72935 -168.9 -234.5)"/><use xlink:href="#e" transform="matrix(.92569 0 0 .72935 -168.9 -234.5)"/><use xlink:href="#f" transform="matrix(.92569 0 0 .72935 -168.9 -234.5)"/></svg>