<svg xmlns="http://www.w3.org/2000/svg" xmlns:xlink="http://www.w3.org/1999/xlink" preserveAspectRatio="none" width="200" height="105"><defs><path fill="#FFF" d="M398.5 429.5v-72h-216v72h216z" id="a"/><path fill="#EE333E" d="M398.5 357.5v-36h-216v36h216z" id="b"/><path fill="#EE333E" d="M182.5 429.5v36h216v-36h-216z" id="c"/><path fill="#1C5BA2" d="M284.05 402.75q2.2-.65 3.15-2.35h-4.45l-2.65 2.45q1.95.5 3.95-.1z" id="d"/><path fill="#1C5BA2" d="M260.6 401.95q.45 1.7 1 2.95h10.8q-.65-1.65-.85-3.55-2.15-.3-4.3 1.05-1.5.95-3.35.9-2-.05-3.3-1.35z" id="e"/><path fill="#1C5BA2" d="M262.4 406.75q.35 1.15 1.65 3.1h11.55q-1-.8-2-2.35-1.2.65-2.85.65-1.9.05-3.1-.85-.85-.7-2.2-.9-1.6-.3-3.05.35z" id="f"/><path fill="#1C5BA2" d="M313.7 412.25q-.85-.45-1.35-.7-2.65-1.25-4.75.15-1.65 1.15-3.5 1.3-1.9.15-3.4-.9-3-2.15-6.25-.25-1.85 1.05-3.95 1.05-2.15 0-4-1.05-3.25-1.9-6.25.25-1.5 1.05-3.4.9-1.85-.15-3.5-1.3-2.1-1.4-4.75-.15-.9.5-1.35.7-.75.35-1.2.4.9 1.2 1.65 1.95h45.55q.75-.75 1.65-1.95-.45-.05-1.2-.4z" id="g"/><path fill="#1C5BA2" d="M308.45 417.5q-.95-.3-1.65-.65-1.75-.9-3.15-.9-1.3-.05-2.7.7-1.5.8-3.1 1-1.85.2-3.15-.55-2.35-1.25-4.2-1.25t-4.25 1.25q-1.3.75-3.1.55-1.65-.2-3.15-1-1.4-.75-2.7-.7-1.35 0-3.15.9-.7.35-1.65.65-1.05.25-1.55.15 1.95 1.5 2.45 1.8h34.15q.5-.3 2.45-1.8-.5.1-1.55-.15z" id="h"/><path fill="#1C5BA2" d="M284.55 409.85h11.85q-.8-.5-1.65-1.7-1.3-2-4.25-2-3 0-4.3 2-.85 1.2-1.65 1.7z" id="i"/><path fill="#1C5BA2" d="M287.75 405.05h5.45q-.5-.85-.8-2.1-.6.2-1.9.2-1.35 0-1.95-.2-.3 1.25-.8 2.1z" id="j"/><path fill="#1C5BA2" d="M298.2 400.4h-4.45q.95 1.7 3.15 2.35 2.05.6 3.95.1l-2.65-2.45z" id="k"/><path fill="#1C5BA2" d="M319.35 404.9q.55-1.25 1-2.95-1.3 1.3-3.3 1.35-1.85.05-3.35-.9-2.15-1.35-4.3-1.05-.2 1.9-.85 3.55h10.8z" id="l"/><path fill="#1C5BA2" d="M316.9 409.85q1.3-1.95 1.65-3.1-1.45-.65-3.05-.35-1.35.2-2.2.9-1.2.9-3.1.85-1.65 0-2.85-.65-1 1.55-2 2.35h11.55z" id="m"/><path fill="#1C5BA2" d="M302.2 422.3q-1.1-.15-2.65-.95-1-.55-2.5-.65-1.55-.05-2.45.5-2.3 1.5-4.1 1.5-1.85 0-4.15-1.5-.9-.55-2.45-.5-1.5.1-2.5.65-1.5.8-2.65.95 5.6 2.25 11.75 2.25 6.1 0 11.7-2.25z" id="n"/><path fill="#675648" d="M291.2 367.8q0-3.9 5.35-4.75-5.45-1.1-8.65 0-3.75 1.3-3.75 5.6v16.8q0 1.45.3 1.8.35.45 1.95.8l10.4 2.45v-17.3q-2.85-.3-4.3-1.85-1.3-1.4-1.3-3.55z" id="o"/><path fill="#675648" d="M276 377.2h-1.8q-.35 0-.85.45-.35.45.1.9.25.25.3.4.05.15-.25.4-.25.25-.2.4 0 .1.25.4.45.45-.15 1-.3.3-.35.45 0 .25.35.6t.3.7q-.05.2-.45.55-.1.15-.4.4-.2.25-.1.35.2.2.25.55 0 .25-.05 1.3v15q0 4.25 2.35 6.85 2.15 2.35 5.1 2.35 5.9 0 7.15-8.75-1.25 1.2-1.9 1.55-1.5.85-3.8.85-2.65 0-4.05-1.1-1.35-1.05-1.35-3v-15.3q0-.75-.35-1.05-.5-.55 0-1.15.3-.3.25-.5 0-.2-.4-.6-.35-.35-.25-.65.05-.3.45-.7.25-.25.25-.4-.05-.25-.4-.6-.35-.35-.35-.6.05-.2.4-.55.5-.5-.05-.5z" id="p"/><path fill="#675648" d="M292.15 392.25q-.25 0-.3.25-.1.65-.6.85 0-.45-.2-.8-.25-.4-.55-.4-.3 0-.55.4-.25.35-.25.8-.5-.2-.6-.85-.05-.25-.3-.25t-.25.3q-.05.7.85 1.85l-.05.45q-.8.95-.8 2.3h.95q0-.55.3-1.05t.7-.6q.35.1.65.6.3.5.3 1.05h.95q0-1.35-.8-2.3l-.05-.45q.9-1.15.85-1.85 0-.3-.25-.3z" id="q"/><path fill="#675648" d="M287.15 392.25q-.25 0-.35.25-.1.65-.6.85 0-.45-.2-.8-.25-.4-.55-.4-.3 0-.55.4-.2.35-.2.8-.5-.2-.6-.85-.05-.25-.3-.25t-.25.3q-.05.7.85 1.85l-.1.45q-.75 1-.75 2.3h.95q0-.55.3-1.05.25-.5.65-.6.4.1.7.6.3.5.3 1.05h.95q0-1.25-.8-2.3l-.05-.45q.85-1.1.85-1.85 0-.3-.25-.3z" id="r"/><path fill="#675648" d="M282.1 392.25q-.25 0-.3.25-.1.65-.6.85 0-.45-.2-.8-.25-.4-.55-.4-.3 0-.55.4-.2.35-.2.8-.5-.2-.6-.85-.05-.25-.3-.25-.3 0-.3.3 0 .85.9 1.85l-.1.45q-.8 1.05-.8 2.3h1q0-.55.3-1.05.25-.5.65-.6.4.1.65.6.3.5.3 1.05h1q0-1.25-.8-2.3l-.05-.45q.85-1.1.85-1.85 0-.3-.3-.3z" id="s"/><path fill="#675648" d="M297.4 392.55q0-.3-.25-.3t-.3.25q-.1.65-.6.85 0-.45-.2-.8-.25-.4-.55-.4-.3 0-.55.4-.2.35-.2.8-.5-.2-.6-.85-.1-.25-.35-.25-.25 0-.25.3 0 .75.85 1.85l-.05.45q-.8 1.05-.8 2.3h.95q0-.55.3-1.05t.7-.6q.4.1.65.6.3.5.3 1.05h.95q0-1.3-.75-2.3l-.1-.45q.9-1.15.85-1.85z" id="t"/><path fill="#675648" d="M302.45 392.55q0-.3-.3-.3-.25 0-.3.25-.1.65-.6.85 0-.45-.2-.8-.25-.4-.55-.4-.3 0-.55.4-.2.35-.2.8-.5-.2-.6-.85-.05-.25-.3-.25-.3 0-.3.3 0 .75.85 1.85l-.05.45q-.8 1.05-.8 2.3h1q0-.55.3-1.05.25-.5.65-.6.4.1.65.6.3.5.3 1.05h1q0-1.25-.8-2.3l-.1-.45q.9-1 .9-1.85z" id="u"/><path fill="#675648" d="M303.6 399.55v-1.2h-26.25v1.2h26.25z" id="v"/><path fill="#675648" d="M306.75 377.2h-1.8q-.55 0-.05.5.35.35.4.55 0 .25-.35.6t-.4.6q0 .15.25.4.4.4.5.7.05.3-.3.65-.4.4-.4.6-.05.2.25.5.5.6 0 1.15-.35.3-.35 1.05v15.3q0 1.95-1.35 3-1.4 1.1-4.05 1.1-2.25 0-3.8-.85-.65-.35-1.9-1.55 1.25 8.75 7.15 8.75 2.95 0 5.1-2.35 2.35-2.6 2.35-6.85v-15q-.05-1.05-.05-1.3.05-.35.25-.55.1-.1-.1-.35l-.4-.4q-.35-.35-.45-.55-.05-.35.3-.7.4-.35.35-.6-.05-.15-.35-.45-.55-.55-.15-1 .25-.3.25-.4.05-.15-.2-.4t-.25-.4q.05-.15.3-.4.45-.45.1-.9-.5-.45-.85-.45z" id="w"/><path fill="#FBAC3B" d="M277.55 390.35h5.25l-5.25-1.95v1.95z" id="x"/><g id="z"><path fill="#373535" d="M259.55 389.35v.15h.1l11.9 1.6v-5.25l-.05-.05-10-3.95-.05.15q-1.377 3.662-1.9 7.35m.3-.05q.493-3.565 1.8-7.1l9.65 3.85v4.75l-11.45-1.5z"/><path fill="#FBAC3B" d="M261.65 382.2q-1.307 3.535-1.8 7.1l11.45 1.5v-4.75l-9.65-3.85z"/></g><g id="A"><path fill="#373535" d="M305.05 365.95l-.1-.05q-3.412-1.764-7.15-2.7h-.1l-2.1 8.7v.1l.05.05q.67.507 2.35.5v6.8l7-13.3.05-.1m-6.9 6.35q-1.606.024-2.25-.4l2-8.4q3.562.879 6.85 2.55l-6.5 12.35v-6.1h-.1z"/><path fill="#FBAC3B" d="M295.9 371.9q.644.424 2.25.4h.1v6.1l6.5-12.35q-3.288-1.671-6.85-2.55l-2 8.4z"/></g><g id="B"><path fill="#373535" d="M259.35 391.5v.15q-.227 3.813.45 7.55l.05.1h.1q5.75.05 8.6.05 3.029 0 3-.15v-7l-12.2-.7m.25.25l11.7.7v6.75q.027-.1-2.75-.1-2.823 0-8.5-.05-.658-3.598-.45-7.3z"/><path fill="#FBAC3B" d="M271.3 392.45l-11.7-.7q-.208 3.702.45 7.3 5.677.05 8.5.05 2.777 0 2.75.1v-6.75z"/></g><g id="C"><path fill="#373535" d="M262.45 379.9l-.1.1.15.05 9.3 4.55-.25-.4q-.19-.216-.15-.45.068-.201.35-.4.356-.22.35-.45.096-.183-.15-.6v-.05q-.383-.619 0-1v-.05q.427-.513-.1-1.05-.318-.374-.05-.65h-.05q.247-.161.25-.4.028-.178-.15-.45-.274-.291-.35-.55-.016-.17.1-.3l.15-.1-5.15-4.3-.05.1q-2.452 3.037-4.1 6.4m8.9-2.2q-.12.198-.1.45.074.29.4.65.122.178.1.3.004.111-.15.2-.433.423.05 1v.05q.373.363.1.7-.517.518 0 1.35.154.284.1.4v.05q.008.144-.25.3-.368.251-.45.55-.02.166 0 .35l-8.45-4.15q1.61-3.225 3.95-6.15l4.7 3.95z"/><path fill="#FBAC3B" d="M271.25 378.15q-.02-.252.1-.45l-4.7-3.95q-2.34 2.925-3.95 6.15l8.45 4.15q-.02-.184 0-.35.082-.299.45-.55.258-.156.25-.3v-.05q.054-.116-.1-.4-.517-.832 0-1.35.273-.337-.1-.7v-.05q-.483-.577-.05-1 .154-.089.15-.2.022-.122-.1-.3-.326-.36-.4-.65z"/></g><g id="D"><path fill="#373535" d="M274.15 367.05l-.05-.1-.15.1q-3.29 2.111-5.85 4.75l-.1.1 4.85 4.65.1-.1q.178-.177.7-.2h3.85q.371.025.5.15.063.148-.2.4-.949.958-1.05 1.25-.108.362.45.85v.05q.346.373.3.55-.026.245-.65.8l-.1.1 6.15 5.95v-5.3l-8.75-14M278 377q.44-.451.2-.75-.171-.225-.7-.25h-3.85q-.538.026-.8.2l-4.5-4.35q2.501-2.502 5.65-4.55l8.65 13.85v4.6l-5.55-5.35q.63-.567.65-.85.104-.266-.35-.8h-.05q-.39-.371-.35-.6v-.05q.088-.199 1-1.1z"/><path fill="#FBAC3B" d="M278.2 376.25q.24.299-.2.75-.912.901-1 1.1v.05q-.04.229.35.6h.05q.454.534.35.8-.02.283-.65.85l5.55 5.35v-4.6L274 367.3q-3.149 2.048-5.65 4.55l4.5 4.35q.262-.174.8-.2h3.85q.529.025.7.25z"/></g><g id="E"><path fill="#373535" d="M277.05 383.4v.05q.38.31.35.8v3.05l.1.05 5.4 2.65v-2.95l-.05-.05-5.65-4.7-.05.1q-.251.326-.3.5-.057.202.2.5m.05-.4v-.05q.036-.096.15-.3l5.4 4.5v2.45l-5-2.45v-2.9q.02-.592-.4-1h-.05q-.092-.16-.1-.25z"/><path fill="#FBAC3B" d="M277.1 382.95v.05q.008.09.1.25h.05q.42.408.4 1v2.9l5 2.45v-2.45l-5.4-4.5q-.114.204-.15.3z"/></g><g id="F"><path fill="#373535" d="M276 365.9l-.15.05.1.1 6.95 13.25v-7.05q.026-6.204.8-6.8l.1-.1-.05-.05-.5-2.15h-.15q-3.788 1.036-7.1 2.75m.2.15q3.195-1.625 6.85-2.6l.45 1.85q-.827.796-.85 6.95v6.1l-6.45-12.3z"/><path fill="#FBAC3B" d="M283.05 363.45q-3.655.975-6.85 2.6l6.45 12.3v-6.1q.023-6.154.85-6.95l-.45-1.85z"/></g><path fill="#FBAC3B" d="M298.15 390.35h5.25v-1.95l-5.25 1.95z" id="G"/><g id="I"><path fill="#373535" d="M319.45 382l-.05-.15-9.95 3.95-.1.05v5.25l11.9-1.6h.15l-.05-.15q-.473-3.688-1.9-7.35m-9.85 8.8v-4.75l9.65-3.85q1.357 3.535 1.85 7.1l-11.5 1.5z"/><path fill="#FBAC3B" d="M309.6 386.05v4.75l11.5-1.5q-.493-3.565-1.85-7.1l-9.65 3.85z"/></g><g id="J"><path fill="#373535" d="M321.55 391.65v-.15l-12.2.7v7.1h11.75v-.1q.727-3.738.45-7.55m-11.95.8l11.7-.7q.258 3.702-.4 7.3h-11.3v-6.6z"/><path fill="#FBAC3B" d="M321.3 391.75l-11.7.7v6.6h11.3q.658-3.598.4-7.3z"/></g><g id="K"><path fill="#373535" d="M314.4 373.5l-.1-.1-5.1 4.3.1.1q.166.13.1.3-.026.259-.3.55-.178.272-.15.45.003.239.2.4.307.305-.05.65-.527.537-.1 1.05v.05q.383.381 0 1v.05h-.05q-.134.384-.15.55.008.255.35.5.332.199.4.4.039.234-.15.45l-.3.4 9.35-4.55.1-.05-.05-.1q-1.648-3.363-4.1-6.4m-.15.25q2.39 2.925 4 6.15l-8.5 4.15q.07-.184 0-.35-.032-.299-.45-.55-.208-.156-.25-.3.034-.134.15-.45.517-.832 0-1.35-.273-.337.1-.7.543-.555.05-1.05h-.05q-.104-.089-.15-.2.028-.122.15-.3.326-.36.35-.65.07-.251-.1-.45l4.7-3.95z"/><path fill="#FBAC3B" d="M318.25 379.9q-1.61-3.225-4-6.15l-4.7 3.95q.17.199.1.45-.024.29-.35.65-.122.178-.15.3.046.111.15.2h.05q.493.495-.05 1.05-.373.363-.1.7.517.518 0 1.35-.116.316-.15.45.042.144.25.3.418.251.45.55.07.166 0 .35l8.5-4.15z"/></g><g id="L"><path fill="#373535" d="M306.85 366.95l-.05.1-8.75 14-.05.05v5.25l6.15-5.95-.1-.1q-.574-.555-.65-.8.004-.177.3-.55l.05-.05q.558-.488.4-.85-.051-.291-1-1.25-.263-.252-.2-.4.129-.125.5-.15h3.85q.522.023.7.2l.1.1 4.8-4.65-.05-.1q-2.561-2.639-5.9-4.75l-.1-.1m-3.4 9.05q-.529.025-.7.25-.24.299.2.75.911.901.95 1.1v.05q.09.229-.35.6-.454.534-.4.8.07.283.65.85l-5.55 5.35v-4.6l8.7-13.85q3.157 2.054 5.6 4.6l-4.45 4.3q-.247-.174-.8-.2h-3.85z"/><path fill="#FBAC3B" d="M302.75 376.25q.171-.225.7-.25h3.85q.553.026.8.2l4.45-4.3q-2.443-2.546-5.6-4.6l-8.7 13.85v4.6l5.55-5.35q-.58-.567-.65-.85-.054-.266.4-.8.44-.371.35-.6v-.05q-.039-.199-.95-1.1-.44-.451-.2-.75z"/></g><g id="M"><path fill="#373535" d="M303.5 387.3v-3.05q.02-.49.35-.8l.05-.05q.257-.298.15-.5.003-.172-.25-.5l-.1-.1-5.65 4.7-.05.05V390l5.45-2.65.05-.05m.2-4.05q-.42.408-.45 1v2.9l-5 2.45v-2.45l5.4-4.5q.164.205.15.3v.05q.042.09-.1.25z"/><path fill="#FBAC3B" d="M303.7 383.25q.142-.16.1-.25v-.05q.014-.095-.15-.3l-5.4 4.5v2.45l5-2.45v-2.9q.03-.592.45-1z"/></g><path fill="#EE333E" d="M275.3 384.3q-.35-.05-1.65-.05.3.3.3.9v16q0 3.8 2 6.1 1.9 2.15 4.55 2.15 4.1 0 6.05-6-1.65 1.35-5.15 1.35-1.95 0-3.65-1.1-2.05-1.35-2.05-3.5v-15.5q0-.3-.4-.35z" id="N"/><path fill="#EE333E" d="M290.95 364.95q.75-1.45 2.05-1.65-8-.75-8 6.15v15.05q0 1.85.15 2.1.2.25 1.8.65 5.95 1.45 9 2.15v-15.35q-2.85-.3-4.35-2.05-1.4-1.55-1.4-3.9 0-1.8.75-3.15z" id="O"/><path fill="#EE333E" d="M307.3 384.25q-1.3 0-1.6.05-.45.05-.45.35v15.5q0 2.15-2 3.5-1.7 1.1-3.7 1.1-3.5 0-5.15-1.35.85 2.65 2.3 4.2 1.6 1.8 3.75 1.8 2.65 0 4.55-2.15 2-2.3 2-6.1v-16q0-.6.3-.9z" id="P"/><path id="y" stroke="#373535" stroke-width=".1" stroke-linejoin="miter" stroke-linecap="butt" stroke-miterlimit="4" fill="none" d="M88.018 50.182V48.76l4.86 1.422h-4.86z"/><path id="H" stroke="#373535" stroke-width=".1" stroke-linejoin="miter" stroke-linecap="butt" stroke-miterlimit="4" fill="none" d="M111.95 50.182V48.76l-4.86 1.422h4.86z"/></defs><use xlink:href="#a" transform="matrix(.9259 0 0 .72917 -168.95 -234.45)"/><use xlink:href="#b" transform="matrix(.92587 0 0 .72917 -168.95 -234.45)"/><use xlink:href="#c" transform="matrix(.92587 0 0 .72917 -168.95 -234.45)"/><use xlink:href="#d" transform="matrix(.92587 0 0 .72917 -168.95 -234.45)"/><use xlink:href="#e" transform="matrix(.92587 0 0 .72917 -168.95 -234.45)"/><use xlink:href="#f" transform="matrix(.92587 0 0 .72917 -168.95 -234.45)"/><use xlink:href="#g" transform="matrix(.92587 0 0 .72917 -168.95 -234.45)"/><use xlink:href="#h" transform="matrix(.92587 0 0 .72917 -168.95 -234.45)"/><use xlink:href="#i" transform="matrix(.92587 0 0 .72917 -168.95 -234.45)"/><use xlink:href="#j" transform="matrix(.92587 0 0 .72917 -168.95 -234.45)"/><use xlink:href="#k" transform="matrix(.92587 0 0 .72917 -168.95 -234.45)"/><use xlink:href="#l" transform="matrix(.92587 0 0 .72917 -168.95 -234.45)"/><use xlink:href="#m" transform="matrix(.92587 0 0 .72917 -168.95 -234.45)"/><use xlink:href="#n" transform="matrix(.92587 0 0 .72917 -168.95 -234.45)"/><use xlink:href="#o" transform="matrix(.92587 0 0 .72917 -168.95 -234.45)"/><use xlink:href="#p" transform="matrix(.92587 0 0 .72917 -168.95 -234.45)"/><use xlink:href="#q" transform="matrix(.92587 0 0 .72917 -168.95 -234.45)"/><use xlink:href="#r" transform="matrix(.92587 0 0 .72917 -168.95 -234.45)"/><use xlink:href="#s" transform="matrix(.92587 0 0 .72917 -168.95 -234.45)"/><use xlink:href="#t" transform="matrix(.92587 0 0 .72917 -168.95 -234.45)"/><use xlink:href="#u" transform="matrix(.92587 0 0 .72917 -168.95 -234.45)"/><use xlink:href="#v" transform="matrix(.92587 0 0 .72917 -168.95 -234.45)"/><use xlink:href="#w" transform="matrix(.92587 0 0 .72917 -168.95 -234.45)"/><use xlink:href="#x" transform="matrix(.92584 0 0 .72917 -168.95 -234.45)"/><use xlink:href="#y" transform="matrix(1 0 0 1 -.03 -.021)"/><use xlink:href="#z" transform="matrix(.92587 0 0 .72917 -168.95 -234.45)"/><use xlink:href="#A" transform="matrix(.92587 0 0 .72917 -168.95 -234.45)"/><use xlink:href="#B" transform="matrix(.92587 0 0 .72917 -168.95 -234.45)"/><use xlink:href="#C" transform="matrix(.92587 0 0 .72917 -168.95 -234.45)"/><use xlink:href="#D" transform="matrix(.92587 0 0 .72917 -168.95 -234.45)"/><use xlink:href="#E" transform="matrix(.92587 0 0 .72917 -168.95 -234.45)"/><use xlink:href="#F" transform="matrix(.92587 0 0 .72917 -168.95 -234.45)"/><use xlink:href="#G" transform="matrix(.92584 0 0 .72917 -168.95 -234.45)"/><use xlink:href="#H" transform="matrix(1 0 0 1 -.03 -.021)"/><use xlink:href="#I" transform="matrix(.92587 0 0 .72917 -168.95 -234.45)"/><use xlink:href="#J" transform="matrix(.92587 0 0 .72917 -168.95 -234.45)"/><use xlink:href="#K" transform="matrix(.92587 0 0 .72917 -168.95 -234.45)"/><use xlink:href="#L" transform="matrix(.92587 0 0 .72917 -168.95 -234.45)"/><use xlink:href="#M" transform="matrix(.92587 0 0 .72917 -168.95 -234.45)"/><use xlink:href="#N" transform="matrix(.92587 0 0 .72917 -168.95 -234.45)"/><use xlink:href="#O" transform="matrix(.92587 0 0 .72917 -168.95 -234.45)"/><use xlink:href="#P" transform="matrix(.92587 0 0 .72917 -168.95 -234.45)"/></svg>