<svg xmlns="http://www.w3.org/2000/svg" xmlns:xlink="http://www.w3.org/1999/xlink" preserveAspectRatio="none" width="200" height="105"><defs><path fill="#373535" d="M194.5 465.5h191.95V321.55H194.5V465.5z" id="a"/><path fill="#F47E4B" d="M194.5 321.55L386.45 465.5V321.55H194.5z" id="b"/><path fill="#FFD051" d="M332.05 330.2q-3.55 1.85-7.4 5.4-3.65 3.35-4.75 5.55-2.05 4.1-.3 7.6 1.15 2.25 1.55 4.05.5 2.55-.75 3.5-1.45 1.05-3.95.25-2.55-.85-3.65-2.85-1.3-2.35-3.5-3.95-2.6-1.9-4.75-1.2-1.3.4-6.1.05-2-.15-2.45.05-.55.3 1.4 1.05 4.15 1.5 5.4 2.85 1.35 1.4 4.1 2 1.45.3 2.45 1.25 1.15 1.1 1.15 2.7 0 2.55-1.75 3.5-1.8 1.05-4.3-.4-3.75-2.15-7.05-1.45-3.85.85-4.95 5.35-1.65 6.65-2.25 8.4-1.3 3.7-3.2 4.95 3.25.05 6.45-2.15 1.6-1.15 4-3.65-.55 2.2-1.05 3.3-.85 1.9-2.15 2.6 1.35-.25 3.45-1.6 2.2-1.45 2.75-2.6-.15.9-.35 2.8-.35 1.55-1.15 2.3 1.45-.55 2.7-2.2 1.1-1.45 1.25-2.7.75 1.85-.05 3.65 1.95-.65 3.55-3.6 1.4-2.55 2.6-2.45.45 7.5 3.8 13 3.55 5.9 10.1 8.95-.65-.65-1.5-2.55-.85-1.85-1-3 .25 1 2.2 2.55 1.95 1.55 3.65 2-1.35-.95-1.85-5.05 3.45 4.3 8.5 8.05 5.3 3.9 10.15 5.5-.6-1.1-1.9-2.8-1.45-1.9-2.7-3 1.6.15 4.4 2.1-1.6-3.05-3.85-6-2.35-3.05-4.55-4.95 2.6.4 3.6 1-1.45-3.4-4.8-7.2 2.2.65 3 1.4-.45-1.6-1.55-3.65-1.05-1.9-2-3.1 3.3 2.25 6.65 5.5.95.95 4.9 5.15l1.2-2.2q5.2 5.1 8.2 11.65 3.3 7.1 1.4 10.8-3.95 7.7-16.15 6.1 4.25 2.2 10 .9 6.4-1.45 8.6-6.6 2.35-5.45-1.75-13.4 7.3 9.2 7.05 15.15-.2 5.35-3.25 8.85-3.7 4.3-11.2 5.1 6.95.95 11.75-2.65 4.8-3.55 5.25-9.9Q366.3 396.7 347 380q.3-1.75-.1-3.45 1.85.85 2.7 1.35 1.05.7 1.9 1.65-.3-4.85-3-8.5 2.75.75 4.9 2.5-.45-2.35-2-5-1.6-2.85-3.5-4.35 2.8.5 4.8 1.7-3.65-6.3-8.85-7.6.95-.4 2.65-.5 1.4-.05 2.8.1-3.7-2.75-9-3.5-5.95-.9-10.15 1.5 2.05-5 5.5-6.85-2.55-.25-4.3.9.85-1.9 1.4-3.1 1.1-2.15 2.1-3.1-2.75.3-4.35 1.35 2.15-4.95 3.65-6.65-1.95.45-3.65 1.95 1.45-4.2 3.3-6.8-3 .5-4.35 1.55.75-2 .95-2.45.7-1.45 1.65-2.5z" id="c"/><path fill="#FFF" d="M220.55 405.65l-1.9-7.25-2.45 7-7.1-.35 5.6 4.7-2.55 7 5.9-4.15 5.55 4.7-1.9-7.25 5.9-4.05-7.05-.35m24.65 45.45l5.95-4.05-7.1-.35-1.85-7.25-2.45 7-7.1-.35 5.55 4.7-2.5 7 5.9-4.15 5.5 4.7-1.9-7.25m5.9-21.15l4.15-2.9 3.8 3.25-1.3-5.05 4.15-2.8-4.95-.25-1.3-5-1.7 4.85-4.95-.25 3.9 3.3-1.8 4.85m19.65-24.85l5.9-4.05-7.05-.35-1.9-7.2-2.45 7-7.1-.35 5.6 4.7-2.55 6.95 5.9-4.1 5.55 4.65-1.9-7.25m-34.9-27.55l5.55 4.7-2.5 6.95 5.9-4.1 5.5 4.65-1.85-7.25 5.9-4.05-7.05-.35-1.9-7.2-2.45 7-7.1-.35z" id="d"/></defs><use xlink:href="#a" transform="matrix(1.0419 0 0 .72935 -202.65 -234.5)"/><use xlink:href="#b" transform="matrix(1.0419 0 0 .72935 -202.65 -234.5)"/><use xlink:href="#c" transform="matrix(1.0419 0 0 .72935 -202.65 -234.5)"/><use xlink:href="#d" transform="matrix(1.0419 0 0 .72935 -202.65 -234.5)"/></svg>