<svg xmlns="http://www.w3.org/2000/svg" xmlns:xlink="http://www.w3.org/1999/xlink" preserveAspectRatio="none" width="200" height="105"><defs><path fill="#FFF" d="M236.5 321.5h-54v144h54v-144z" id="a"/><path fill="#00615D" d="M236.6 465.5h161.9v-144H236.6v144z" id="b"/><path fill="#FFF" d="M282.95 367.65q-8.65 11.5-8.65 25.85 0 17.95 12.65 30.6 12.7 12.65 30.6 12.65 12.8 0 23.5-6.9 10.4-6.75 15.65-17.95-5.5 5.5-12.6 8.5-7.35 3.1-15.45 3.1-16.4 0-28.05-11.6-11.6-11.6-11.6-28.05 0-9.5 4.3-17.95 4.15-8.15 11.45-13.7-13.4 4.2-21.8 15.45z" id="c"/><path fill="#FFF" d="M340.15 368.85l-6.95-8 .95 10.6-9.65 4.05 10.25 2.35.95 10.45 5.4-9.05 10.2 2.4-6.9-7.9 5.4-9.1-9.65 4.2z" id="d"/></defs><use xlink:href="#a" transform="matrix(.92589 0 0 .72917 -168.95 -234.45)"/><use xlink:href="#b" transform="matrix(.92589 0 0 .72917 -168.95 -234.45)"/><use xlink:href="#c" transform="matrix(.92586 0 0 .72917 -168.95 -234.45)"/><use xlink:href="#d" transform="matrix(.92586 0 0 .72917 -168.95 -234.45)"/></svg>