<svg xmlns="http://www.w3.org/2000/svg" xmlns:xlink="http://www.w3.org/1999/xlink" preserveAspectRatio="none" width="200" height="105"><defs><g id="a"><path fill="#ADD8E6" d="M100 50V0H0v50h100M56.5 25q0 5.7-4.05 9.7-2.1 2.15-4.7 3.15-2.3.9-5 .9-5.7 0-9.75-4.05-4-4-4-9.7 0-5.7 4-9.75 4.05-4 9.75-4t9.7 4q3.6 3.6 4 8.5.05.6.05 1.25z"/><path fill="#FF0" d="M52.45 34.7q4.05-4 4.05-9.7 0-.65-.05-1.25-.4-4.9-4-8.5-4-4-9.7-4-5.7 0-9.75 4-4 4.05-4 9.75t4 9.7q4.05 4.05 9.75 4.05 2.7 0 5-.9 2.6-1 4.7-3.15z"/></g></defs><use xlink:href="#a" transform="scale(2 2.1)"/></svg>