<svg xmlns="http://www.w3.org/2000/svg" xmlns:xlink="http://www.w3.org/1999/xlink" preserveAspectRatio="none" width="200" height="105"><defs><path fill="#E1474A" d="M423.95 367.05v-48H184v48h239.95z" id="a"/><path fill="#0067AC" d="M184 415v48h239.95v-48H184z" id="b"/><path fill="#FFF" d="M423.95 415v-47.95H184V415h239.95z" id="c"/><g id="d"><path fill="#373535" d="M292.7 379.75q-4.63 4.642-4.65 11.25.02 6.607 4.65 11.3 4.693 4.63 11.3 4.6 6.608.03 11.25-4.6 4.63-4.693 4.6-11.3.03-6.557-4.6-11.25-4.642-4.63-11.25-4.65-6.607.02-11.3 4.65M288.3 391q.03-6.492 4.6-11.05 4.607-4.57 11.1-4.6 6.492.03 11.05 4.6 4.57 4.607 4.55 11.05.02 6.493-4.55 11.1-4.558 4.57-11.05 4.55-6.493.02-11.1-4.55-4.57-4.607-4.6-11.1z"/><path fill="#FFF" d="M292.9 379.95q-4.57 4.558-4.6 11.05.03 6.493 4.6 11.1 4.607 4.57 11.1 4.55 6.492.02 11.05-4.55 4.57-4.607 4.55-11.1.02-6.443-4.55-11.05-4.558-4.57-11.05-4.6-6.493.03-11.1 4.6z"/></g><path fill="#EE333E" d="M293.9 380.95q-4.2 4.15-4.2 10.05 0 5.95 4.2 10.1 4.2 4.2 10.1 4.2 5.9 0 10.05-4.2 4.2-4.2 4.2-10.1 0-5.9-4.2-10.05-4.15-4.2-10.05-4.2t-10.1 4.2z" id="e"/><path fill="#FFF215" d="M294.3 398.35q-.073-.05-.3-.05-.25.05-.45.2-.65.5-.25.9l.85 1.05q0 .05 2.15-1.7l-.35-.4-.8.65-.3-.35q-.25-.25.05-.6l.5-.4-.3-.35-.6.5q-.388.291-.2.55m-.45.45q.35-.15.5 0l.4.55-.55.45-.4-.5q-.2-.2.05-.5z" id="f"/><path fill="#FFF215" d="M313.4 385.9l.25.45.65-.4q.45-.27.3-.55.106.1.3.1.25.05.45-.1.75-.4.4-.9l-.65-1.15-2.4 1.35.25.45.95-.55.25.45q.15.3-.2.55l-.55.3m1.25-.95l-.35-.6.65-.35.3.55q.2.3-.15.45-.35.2-.45-.05z" id="g"/><path fill="#FFF215" d="M294 395.25l-.4.2.55 1.1-.65.35-.5-1-.45.2.5 1-.55.25-.55-1.1-.45.2.8 1.6 2.45-1.25-.75-1.55z" id="h"/><path fill="#FFF215" d="M292.55 393.9q-.15-.65-1.05-.45-.85.15-.65.9l.25 1 2.65-.65-.1-.45-.95.25-.15-.6m-.4.25l.1.45-.85.2-.1-.45q-.1-.35.3-.5.45-.1.55.3z" id="i"/><path fill="#FFF215" d="M309.3 381.75l.55-.85.5.35q.6.35 1.1-.35.5-.75-.1-1.15l-.9-.55-1.5 2.3.35.25m1.3-1.9l.4.25q.3.2.1.55-.25.35-.6.2l-.4-.3.5-.7z" id="j"/><path fill="#FFF215" d="M292.75 391.55q0 .45-.45.45l-1.85.05.05.5 1.8-.05q.95 0 .9-.95 0-.9-.95-.9l-1.8.05v.5l1.8-.05q.5 0 .5.4z" id="k"/><path fill="#FFF215" d="M290.7 388.5l-.2.95 2.7.6.2-1.1q.15-.7-.6-.95-.5-.05-.7.15-.2-.25-.55-.35-.65-.15-.85.7m1.4.8l.15-.65q.1-.3.4-.2.4.1.3.35l-.15.65-.35-.1-.35-.05m-.45-.1l-.3-.05-.3-.1.15-.6q0-.2.35-.2.3 0 .25.35l-.15.6z" id="l"/><path fill="#FFF215" d="M291.45 385.95l-.2.45 2.5 1.15.7-1.5-.45-.2-.5 1-2.05-.9z" id="m"/><path fill="#FFF215" d="M294.7 385.6l.3-.4-2.3-1.55-.3.45 2.3 1.5z" id="n"/><path fill="#FFF215" d="M295.1 382.2l.25-.3q-.25-.25-.6-.25-.4 0-.7.3-.7.7.3 1.65.45.45.95.5.45.1.75-.25.25-.3.25-.7 0-.4-.3-.65l-.3.3q.35.35 0 .7-.35.4-1.05-.2-.7-.6-.25-1.05.3-.3.7-.05z" id="o"/><path fill="#FFF215" d="M296.65 379.75l-.45.3.85 2.75.4-.25-.2-.6.75-.45.45.35.4-.25-2.2-1.85m1 1.4l-.55.35-.35-1.1.9.75z" id="p"/><path fill="#FFF215" d="M310.85 382.75l.35.35.5-.3.65.65-.3.5.3.35 1.45-2.5-.4-.4-2.55 1.35m1.7.3l-.4-.45 1-.55-.6 1z" id="q"/><path fill="#FFF215" d="M314.05 387.3l.6-.05.25.9-.5.3.15.45 2.4-1.55-.15-.55-2.85.05.1.45m2.25-.05l-1 .6-.1-.3-.05-.3h1.15z" id="r"/><path fill="#FFF215" d="M314.1 394.9l.45.4-.4.8-.55-.1-.2.45 2.85.4.2-.5-2.15-1.85-.2.4m1.7 1.45l-1.15-.2.25-.55.9.75z" id="s"/><path fill="#FFF215" d="M301 377.9l-.9.2.55 2.7 1-.2q.8-.15.6-1.6-.25-1.25-1.25-1.1m.75 1.2q.25 1.05-.35 1.05l-.4.1-.35-1.8.4-.05q.55-.15.7.7z" id="t"/><path fill="#FFF215" d="M303.3 377.55l-.05 2.8 1.75.05v-.45l-1.25-.05.05-.75 1.1.05v-.5l-1.1-.05v-.6l1.25.05v-.5l-1.75-.05z" id="u"/><path fill="#FFF215" d="M306.7 377.85l-.45-.1-.65 2.7 1.55.35.1-.5-1.05-.25.5-2.2z" id="v"/><path fill="#FFF215" d="M316.05 389.35q-.6.05-1 .35-.35.35-.3.75 0 .4.4.65l-.3.05v.3l1.4-.05-.05-.95-.45.05.05.5q-.6 0-.6-.55-.05-.25.25-.45.25-.2.65-.2.85-.1.95.55 0 .4-.45.55l.05.4q.35 0 .6-.3.25-.25.25-.65-.1-1.1-1.45-1z" id="w"/><path fill="#FFF215" d="M314.6 393q-.2.95.75 1.05l1.75.35.1-.45-1.8-.35q-.45-.1-.35-.55.05-.4.55-.3l1.75.35.1-.5-1.75-.35q-1-.1-1.1.75z" id="x"/><path fill="#FFF215" d="M314.05 400.2l.35-.4-.7-1.15 1.3.35.3-.4-1.85-.5-.8-.6-.3.4.8.6.9 1.7z" id="y"/><path fill="#FFF" d="M296.85 383.85q-3 3-3 7.15 0 4.2 3 7.2 2.95 2.95 7.15 2.95 4.15 0 7.15-2.95 2.95-3 2.95-7.2 0-4.15-2.95-7.15-3-2.95-7.15-2.95-4.2 0-7.15 2.95z" id="z"/><path fill="#0081C4" d="M300.6 394.4q1.4 1.4 3.4 1.4 1.95 0 3.35-1.4 1.4-1.4 1.4-3.4 0-1.95-1.4-3.35-1.4-1.4-3.35-1.4-2 0-3.4 1.4t-1.4 3.35q0 2 1.4 3.4z" id="A"/><path fill="#00976C" d="M307.7 384.3l.65.45q.45.35.7 1.1l.4.2q-.4-.5-.7-1.55-.1-.35-.4-.55-.35-.2-.45-.4-.2-.45-.3 0-.1.3.1.75z" id="B"/><path fill="#00976C" d="M305.25 398.75q-.75-.6-1.3-.7-.6-.1-.85.05 1.2 1.1 2.15.65z" id="D"/><path fill="#00976C" d="M305.5 398.2q-.95-.55-1.55-.15 1.45.5 2.05 1.5.1.3.6.25.55-.05.3-.35-.55-.8-1.4-1.25z" id="F"/><path fill="#00976C" d="M306.9 399.45q-.15-.25-.55-.15-.45.1-.35.25.1.3.6.25.55-.05.3-.35z" id="H"/><path fill="#00976C" d="M303.7 398.55l-.6-.45q-2.85-.85-4.9-.85-.2 0-.05.35.1.2.1.3 0 .2.55.25 2.9.45 4.9.4z" id="J"/><path fill="#00976C" d="M303.45 398.55h-.85q-.6.25-1.3.7-.35.25.4.45.7.15.85-.05.15-.3.3-.55.25-.4.6-.55z" id="L"/><path fill="#00976C" d="M302.55 399.65q.1-.25-.5-.35-.55-.15-.75-.05-.35.25.4.45.7.15.85-.05z" id="N"/><path fill="#00976C" d="M299.45 394.9q-.35-.55-.4.2 0 1.15 1.05 2.3 1.15.15 3 .7-2.7-1.35-3.65-3.2z" id="P"/><path fill="#00976C" d="M299.15 394.65q.1-.05.3.25.05.15.6.95 1 .35 1.25.4.2.05.2 0 0-.1-.2-.15-.15-.05-1.5-1.2-.5-.4-.65-.25z" id="R"/><path fill="#00976C" d="M300.2 398.75l-.45-.45-.95-.15q-.5-.05-.55-.2.05.25.5.45l1.1.6q.2.15.35.05.15-.05 0-.3z" id="T"/><path fill="#00976C" d="M296.2 395.1q0 .2-.05.5 0 .25.5.45 1.75.95 2.1 1.2l1.35.15-.5-.65q-1.85-1.6-3.05-1.95-.25-.05-.3 0l-.05.3z" id="V"/><path fill="#00976C" d="M296.2 395.35h-.05q-.05.45.2.75.5.6.65 1.25.1.2.15.2.1 0 .15-.25l-.05-.9-.6-.35q-.6-.25-.45-.7z" id="X"/><path fill="#00976C" d="M297.85 391.8q-.55 1.25 0 3.65l1.75 1.3q-.55-.95-.55-1.65l.05-.3q-.8-1.5-.75-3.4 0-.25-.1-.2-.15 0-.4.6z" id="Z"/><path fill="#00976C" d="M296.55 394.8l1.3.65-.15-.95q-.4-.7-1.45-1.8-1.05-1.05-1.2-1.4-.25-.75-.25.1.05 1.05.7 2 .35.55 1.05 1.4z" id="ab"/><path fill="#00976C" d="M296.05 392.5l.6.65q.35-2.55-.7-5.65-.1-.4-.15-.35-.05.05-.2.5-.6 2.6.45 4.85z" id="ad"/><path fill="#00976C" d="M298.75 388.9q.05-.2 0-.35-.05-.15-.2.3-.05.15-.85.95-.75.75-1 1.55.1 1-.05 1.8.7.7 1.05 1.35-.15-.9-.05-1.75-.05-.65.4-1.85.6-1.5.7-2z" id="af"/><path fill="#00976C" d="M297.55 385.2q0-.4-.25-.15-.75.95-1.15 3.15l.35 1.55q1.05-1.2 1.05-4.55z" id="ah"/><path fill="#00976C" d="M296.5 389.75l.2 1.4q.15-1.1 1.2-2.2 1.45-1.5 1.5-1.6.2-.3.1-.4-.05-.05-.3.15-.15.1-.9.5t-1.15.75q-.3 1.05-.65 1.4z" id="aj"/><path fill="#00976C" d="M299.8 383.1q0-.05-.2.05-1 .6-2.05 2.55-.05.45-.15 1.4 1.05-.85 1.6-1.8.4-.65.75-1.85.1-.3.05-.35z" id="al"/><path fill="#00976C" d="M297.55 385.2q0-.4-.25-.15-.75.95-1.15 3.15l.35 1.55q1.05-1.2 1.05-4.55z" id="an"/><path fill="#00976C" d="M299.8 383.1q0-.05-.2.05-1 .6-2.05 2.55-.05.45-.15 1.4 1.05-.85 1.6-1.8.4-.65.75-1.85.1-.3.05-.35z" id="ap"/><path fill="#00976C" d="M297.15 388.35q.55-.45.9-.6.4-.55 1.5-1.1 1.15-.55 1.4-.9.55-.85-.35-.25-.25.15-.8.15-.7.05-1.1.15-.55.75-1.3 1.3l-.25 1.25z" id="ar"/><path fill="#00976C" d="M298.7 385.8q.4-.15.85-.15.5-.7 1.1-1.05.65-.35.85-.6.15-.3-.15-.15-.05.05-.9.15-.7.1-1 .35-.3.95-.75 1.45z" id="at"/><path fill="#00976C" d="M308 395.45q-.15.1-1.4.5-.65.4-1.3 2.15 1.1-1.05 2.25-1.3.05-.8.5-1.25.2-.25-.05-.1z" id="av"/><path fill="#00976C" d="M305.9 398.45l.55.45q1.15.2 1.7-.2.65-.4 1-.4.25.05.05-.25-.3-.4-1.25-.5-1 .9-2.05.9z" id="ax"/><path fill="#00976C" d="M309.45 395.35q.3-.75 0-1.6-.2-.4-.4-.05-.15.55-.25.7-.3.55-.15 1 .3.65 0 1.3h.15q.35-.45.65-1.35z" id="az"/><path fill="#00976C" d="M311.95 395.35q.25-.35.25-.4-.05-.05-.45 0-1.55.2-2.05 1-.55.6-1.35.85l.05.15q.5-.35 2.05-.45.65-.05 1.5-1.15z" id="aB"/><path fill="#00976C" d="M305.3 398.1l.6.35q1.3 0 2.55-1.45.45-.45-.15-.3-1.6.05-3 1.4z" id="aD"/><path fill="#00976C" d="M309.6 394.5q-.05.55-.3 1.25.3-.45 1-.95.05-.4.15-.55.1-.2-.15-.15-.45.15-.7.4z" id="aF"/><path fill="#00976C" d="M310.65 394.1l-.05-.85q-.1-1.15.1-1.5l-.6-.75q-.35-.45-.25.15.05.3-.1 1.05-.1.55.25 1.05.6.75.65.85z" id="aH"/><path fill="#00976C" d="M312.95 391.45q.15-.5-.15-.05-.15.35-.6.6-.45.25-.6.45-.05.7-.4 1.2l-.3.5q.85-.45 1.1-.6.75-.3.85-1.4l.1-.7z" id="aJ"/><path fill="#00976C" d="M311.55 391.8l.05.65q.05-.1.7-.5 0-.65.1-.95.05-.2-.25 0-.35.2-.6.8z" id="aL"/><path fill="#00976C" d="M311.25 390.65l.2.45q.15-.5.7-1.15.35-.4.2-.85-.2-.45-.15-.85.05-.65-.25-.35-.4.4-.55 1.15.15.65-.15 1.6z" id="aN"/><path fill="#00976C" d="M310.9 390.4q-.55-.75-.55-1.6-.4 0-.75-.35-.4-.4-.2 0 .1.15.2.8.05.5.35.8.35.4.95.35z" id="aP"/><path fill="#00976C" d="M309.3 386.1q-.25-.2-.45-.65t-.5-.7q-.8-.7-1.4-.7-.55-.15-.2.15.15.2.45.7.2.4.5.55.1.05.9.4.5.2.7.45v-.2z" id="aR"/><path fill="#00976C" d="M310.45 388.15v-.1q.05-.45.15-.35l-.15-.5q-.15-.6-1.1-1.3-.3-.15-.35-.1l.05.2q.25.4.3.7.1.85 1.1 1.45z" id="aT"/><path fill="#00976C" d="M310 385.35q-.25.3-.15.95.45.4.6.9l.15.5.1.15.1.2.15-1.1q.1-.5-.2-.85-.35-.45-.4-.65-.05-.5-.35-.1z" id="aV"/><path fill="#00976C" d="M311.15 390.8l.1.2q0-.35.15-1.15.15-.55-.1-1.15-.55-.6-.6-.85-.15-.3-.25.2-.15.9 0 1.5.15.5.7 1.25z" id="aX"/><path fill="#00976C" d="M310.5 394.75l.15-.05q.05-.15.55-1.05.7-1.25.15-2.8-.25-.7-.25-.05-.15.6-.4.95-.2.35-.1 1.5t-.1 1.5z" id="aZ"/><path fill="#00976C" d="M311.2 394.25l-.65.4q-1.05.5-1.8 1.95.65-.25.95-.65.3-.45 1.45-.85l.25-.8q.2-.35-.2-.05z" id="bb"/><path fill="#00976C" d="M310.05 387.85q-.6-.4-.7-1.15-.9-.05-1.1-.1-.5-.15-.05.15.05.05.5.6.35.45.75.5.25.1.6 0z" id="bd"/><path fill="#00976C" d="M308.55 385.8q-.8-.3-.85-.35-.3-.15-.5-.55l-.7.05q-.4-.1-.05.25.65.75 1.4.8.25 0 .7-.2z" id="bf"/><path fill="#00976C" d="M309.75 385.1q0-.35-.3-.35-.2 0-.15.35.05.3.25.3.25 0 .2-.3z" id="bK"/><path fill="#00976C" d="M308.45 386.5q.35.05.4-.15.05-.2-.3-.3-.35-.05-.4.15-.05.2.3.3z" id="bM"/><path fill="#00976C" d="M309.75 388.4q.2.25.4.05.1-.15-.15-.35-.25-.2-.35-.05-.15.15.1.35z" id="bO"/><path fill="#00976C" d="M311.75 387.75q.1-.3-.15-.45-.2-.1-.3.2-.1.3.1.4.2.1.35-.15z" id="bQ"/><path fill="#00976C" d="M312.15 390.25q-.25.1-.15.3.15.2.4 0t.1-.35q-.1-.1-.35.05z" id="bS"/><path fill="#00976C" d="M310.2 390.85q.15.2.4.05.15-.1-.05-.25-.2-.2-.35-.1-.15.15 0 .3z" id="bU"/><path fill="#00976C" d="M309.6 393.65q.15.25.3.15.2-.1.1-.35-.15-.25-.35-.15-.2.1-.05.35z" id="bW"/><path fill="#00976C" d="M312.15 393.9q-.3.05-.3.25-.05.3.3.25.35-.05.3-.3-.05-.2-.3-.2z" id="bY"/><path fill="#00976C" d="M308.45 395.6q-.2-.1-.3.15-.1.25.1.4.15.1.3-.15.1-.3-.1-.4z" id="ca"/><path fill="#00976C" d="M309.25 397.15q-.2 0-.25.2 0 .25.25.25.25.05.25-.2 0-.2-.25-.25z" id="cc"/><path fill="#FFF215" d="M302.5 391.6l-.85 2.7 2.35-1.65 2.3 1.65-.8-2.7 2.25-1.7-2.85-.1-.9-2.65-.95 2.65-2.8.1 2.25 1.7z" id="ce"/><path id="C" stroke="#373535" stroke-width=".05" stroke-linejoin="round" stroke-linecap="round" fill="none" d="M103.626 47.902q.375.255.583.802l.333.146q-.333-.365-.583-1.13-.083-.256-.333-.402-.292-.146-.375-.292-.167-.328-.25 0-.084.22.083.547l.542.329z"/><path id="E" stroke="#373535" stroke-width=".05" stroke-linejoin="round" stroke-linecap="round" fill="none" d="M99.959 57.601q-.5-.072-.709.037 1 .802 1.792.474-.625-.438-1.083-.51z"/><path id="G" stroke="#373535" stroke-width=".05" stroke-linejoin="round" stroke-linecap="round" fill="none" d="M99.959 57.601q1.208.365 1.708 1.094.083.22.5.183.459-.037.25-.255-.458-.584-1.167-.912-.791-.401-1.291-.11z"/><path id="I" stroke="#373535" stroke-width=".05" stroke-linejoin="round" stroke-linecap="round" fill="none" d="M102.417 58.623q.209.218-.25.255-.417.036-.5-.183-.083-.109.292-.182.333-.073.458.11z"/><path id="K" stroke="#373535" stroke-width=".05" stroke-linejoin="round" stroke-linecap="round" fill="none" d="M99.25 57.638q-2.375-.62-4.083-.62-.167 0-.042.255.083.146.083.22 0 .145.459.181 2.417.329 4.083.292l-.5-.328z"/><path id="M" stroke="#373535" stroke-width=".05" stroke-linejoin="round" stroke-linecap="round" fill="none" d="M98.834 57.966q-.5.182-1.084.51-.291.183.334.329.583.11.708-.037.125-.218.25-.4.208-.292.5-.402h-.708z"/><path id="O" stroke="#373535" stroke-width=".05" stroke-linejoin="round" stroke-linecap="round" fill="none" d="M98.792 58.768q-.125.146-.708.037-.625-.146-.334-.328.167-.073.625.036.5.073.417.255z"/><path id="Q" stroke="#373535" stroke-width=".05" stroke-linejoin="round" stroke-linecap="round" fill="none" d="M95.875 55.45q0 .839.875 1.677.959.11 2.5.51-2.25-.984-3.042-2.333-.291-.401-.333.146z"/><path id="S" stroke="#373535" stroke-width=".05" stroke-linejoin="round" stroke-linecap="round" fill="none" d="M96.208 55.304q.042.11.5.693.834.255 1.042.292.167.036.167 0 0-.073-.167-.11-.125-.036-1.25-.875-.417-.292-.542-.182.084-.037.25.182z"/><path id="U" stroke="#373535" stroke-width=".05" stroke-linejoin="round" stroke-linecap="round" fill="none" d="M96.45 57.772l-.792-.11q-.417-.036-.459-.146.042.183.417.329l.917.437q.166.11.291.037.125-.037 0-.22l-.375-.327z"/><path id="W" stroke="#373535" stroke-width=".05" stroke-linejoin="round" stroke-linecap="round" fill="none" d="M93.45 55.803q0 .182.416.328 1.458.693 1.75.875l1.125.11-.417-.475q-1.541-1.167-2.541-1.422-.209-.036-.25 0l-.042.219q0 .146-.042.365z"/><path id="Y" stroke="#373535" stroke-width=".05" stroke-linejoin="round" stroke-linecap="round" fill="none" d="M93.458 55.632q-.041.329.167.547.417.438.542.912.083.146.125.146.083 0 .125-.183l-.042-.656-.5-.255q-.5-.182-.375-.51h-.042z"/><path id="aa" stroke="#373535" stroke-width=".05" stroke-linejoin="round" stroke-linecap="round" fill="none" d="M94.866 55.693l1.458.948q-.458-.693-.458-1.203l.042-.219q-.667-1.094-.625-2.48 0-.182-.084-.145-.125 0-.333.437-.458.912 0 2.662z"/><path id="ac" stroke="#373535" stroke-width=".05" stroke-linejoin="round" stroke-linecap="round" fill="none" d="M94.866 55.693L94.74 55q-.333-.51-1.208-1.312-.875-.766-1-1.021-.209-.547-.209.073.042.765.584 1.458.291.401.875 1.021l1.083.474z"/><path id="ae" stroke="#373535" stroke-width=".05" stroke-linejoin="round" stroke-linecap="round" fill="none" d="M93.875 54.028q.292-1.86-.583-4.12-.084-.292-.125-.256-.042.036-.167.365-.5 1.896.375 3.537l.5.474z"/><path id="ag" stroke="#373535" stroke-width=".05" stroke-linejoin="round" stroke-linecap="round" fill="none" d="M95.625 50.928q-.083.365-.583 1.459-.375.875-.334 1.35-.083.62.042 1.275-.292-.474-.875-.984.125-.584.042-1.313.208-.583.833-1.13.667-.584.708-.693.125-.328.167-.219.042.11 0 .255z"/><path id="ai" stroke="#373535" stroke-width=".05" stroke-linejoin="round" stroke-linecap="round" fill="none" d="M94.417 48.12q-.625.693-.959 2.298l.292 1.13q.875-.875.875-3.318 0-.292-.208-.11z"/><path id="ak" stroke="#373535" stroke-width=".05" stroke-linejoin="round" stroke-linecap="round" fill="none" d="M93.917 52.57q.125-.803 1-1.605 1.208-1.094 1.25-1.167.166-.219.083-.292-.042-.036-.25.11-.125.072-.75.364t-.958.547q-.25.766-.542 1.021l.167 1.021z"/><path id="am" stroke="#373535" stroke-width=".05" stroke-linejoin="round" stroke-linecap="round" fill="none" d="M96.333 46.735q-.833.437-1.708 1.86-.042.328-.125 1.02.875-.62 1.333-1.312.334-.474.625-1.35.084-.218.042-.255 0-.036-.167.037z"/><path id="ao" stroke="#373535" stroke-width=".05" stroke-linejoin="round" stroke-linecap="round" fill="none" d="M94.417 48.12q-.625.693-.959 2.298l.292 1.13q.875-.875.875-3.318 0-.292-.208-.11z"/><path id="aq" stroke="#373535" stroke-width=".05" stroke-linejoin="round" stroke-linecap="round" fill="none" d="M96.333 46.735q-.833.437-1.708 1.86-.042.328-.125 1.02.875-.62 1.333-1.312.334-.474.625-1.35.084-.218.042-.255 0-.036-.167.037z"/><path id="as" stroke="#373535" stroke-width=".05" stroke-linejoin="round" stroke-linecap="round" fill="none" d="M95.042 50.09q.333-.402 1.25-.803.958-.4 1.167-.656.458-.62-.292-.182-.209.109-.667.109-.583.037-.917.11-.458.546-1.083.948l-.208.911q.458-.328.75-.437z"/><path id="au" stroke="#373535" stroke-width=".05" stroke-linejoin="round" stroke-linecap="round" fill="none" d="M96.292 48.558q.416-.51.916-.766.542-.255.709-.437.125-.22-.125-.11-.042.037-.75.11-.584.073-.834.255-.25.693-.625 1.057.334-.109.709-.109z"/><path id="aw" stroke="#373535" stroke-width=".05" stroke-linejoin="round" stroke-linecap="round" fill="none" d="M102.167 56.07q-.542.292-1.083 1.568.916-.766 1.875-.948.042-.584.417-.912.166-.182-.042-.073-.125.073-1.167.365z"/><path id="ay" stroke="#373535" stroke-width=".05" stroke-linejoin="round" stroke-linecap="round" fill="none" d="M102.042 58.221q.959.146 1.417-.145.542-.292.833-.292.209.036.042-.183-.25-.291-1.042-.364-.833.656-1.708.656l.458.328z"/><path id="aA" stroke="#373535" stroke-width=".05" stroke-linejoin="round" stroke-linecap="round" fill="none" d="M104.542 55.632q-.25.657-.541.985h-.125q.25-.474 0-.948-.125-.328.125-.73.083-.109.208-.51.167-.255.333.036.25.62 0 1.167z"/><path id="aC" stroke="#373535" stroke-width=".05" stroke-linejoin="round" stroke-linecap="round" fill="none" d="M106.626 55.632q-.709.803-1.25.84-1.292.072-1.709.327l-.041-.11q.666-.181 1.125-.62.416-.583 1.708-.728.333-.037.375 0 0 .036-.208.291z"/><path id="aE" stroke="#373535" stroke-width=".05" stroke-linejoin="round" stroke-linecap="round" fill="none" d="M101.084 57.638q1.166-.985 2.5-1.021.5-.11.125.219-1.042 1.057-2.125 1.057l-.5-.255z"/><path id="aG" stroke="#373535" stroke-width=".05" stroke-linejoin="round" stroke-linecap="round" fill="none" d="M104.667 55.012q.209-.182.584-.291.208-.037.125.11-.084.109-.125.4-.584.365-.834.693.209-.51.25-.912z"/><path id="aI" stroke="#373535" stroke-width=".05" stroke-linejoin="round" stroke-linecap="round" fill="none" d="M105.5 54.1q-.083-.838.084-1.093l-.5-.547q-.292-.328-.208.11.041.218-.084.765-.083.401.209.766.5.547.541.62l-.041-.62z"/><path id="aK" stroke="#373535" stroke-width=".05" stroke-linejoin="round" stroke-linecap="round" fill="none" d="M107.334 52.752q-.125.255-.5.437t-.5.328q-.042.51-.333.876l-.25.364q.708-.328.916-.437.625-.22.709-1.021l.083-.511q.125-.365-.125-.036z"/><path id="aM" stroke="#373535" stroke-width=".05" stroke-linejoin="round" stroke-linecap="round" fill="none" d="M106.292 53.043q.209-.437.5-.583.25-.146.209 0-.084.219-.084.693-.541.291-.583.364l-.042-.474z"/><path id="aO" stroke="#373535" stroke-width=".05" stroke-linejoin="round" stroke-linecap="round" fill="none" d="M106.21 52.533q.124-.365.582-.839.292-.292.167-.62-.167-.328-.125-.62.042-.474-.208-.255-.334.292-.459.839.125.474-.125 1.167l.167.328z"/><path id="aQ" stroke="#373535" stroke-width=".05" stroke-linejoin="round" stroke-linecap="round" fill="none" d="M105.292 50.855q-.333 0-.625-.255-.333-.292-.166 0 .083.11.166.584.042.364.292.583.292.292.792.255-.459-.547-.459-1.167z"/><path id="aS" stroke="#373535" stroke-width=".05" stroke-linejoin="round" stroke-linecap="round" fill="none" d="M104.417 48.886q-.208-.146-.375-.474-.166-.328-.416-.51-.667-.51-1.167-.51-.459-.11-.167.109.125.145.375.51.167.292.417.401.083.037.75.292.417.146.583.328v-.146z"/><path id="aU" stroke="#373535" stroke-width=".05" stroke-linejoin="round" stroke-linecap="round" fill="none" d="M105.376 50.308q.041-.328.125-.255l-.125-.365q-.125-.437-.917-.948-.25-.109-.292-.073l.042.146q.208.292.25.51.083.62.917 1.058v-.073z"/><path id="aW" stroke="#373535" stroke-width=".05" stroke-linejoin="round" stroke-linecap="round" fill="none" d="M104.866 49.02q.375.292.5.657l.125.364.084.11.083.146.125-.803q.083-.364-.167-.62-.291-.328-.333-.474-.042-.364-.292-.073-.208.22-.125.693z"/><path id="aY" stroke="#373535" stroke-width=".05" stroke-linejoin="round" stroke-linecap="round" fill="none" d="M106.042 52.46q0-.255.125-.839.125-.401-.083-.839-.458-.437-.5-.62-.125-.218-.208.146-.125.657 0 1.094.125.365.583.912l.083.146z"/><path id="ba" stroke="#373535" stroke-width=".05" stroke-linejoin="round" stroke-linecap="round" fill="none" d="M105.417 55.195q.167-.255.084-1.094-.084-.839.083-1.094.208-.255.333-.693 0-.474.209.036.458 1.13-.125 2.043-.417.656-.459.765l-.125.037z"/><path id="bc" stroke="#373535" stroke-width=".05" stroke-linejoin="round" stroke-linecap="round" fill="none" d="M105.459 55.122q-.875.364-1.5 1.422.542-.182.792-.474.25-.328 1.208-.62l.208-.583q.167-.256-.166-.037l-.542.292z"/><path id="be" stroke="#373535" stroke-width=".05" stroke-linejoin="round" stroke-linecap="round" fill="none" d="M104.459 49.324q-.75-.037-.917-.073-.416-.11-.041.11.041.036.416.437.292.328.625.365.209.072.5 0-.5-.292-.583-.84z"/><path id="bg" stroke="#373535" stroke-width=".05" stroke-linejoin="round" stroke-linecap="round" fill="none" d="M103.084 48.412q-.25-.11-.417-.4l-.583.036q-.334-.073-.042.182.542.547 1.167.583.208 0 .583-.146-.666-.218-.708-.255z"/><path id="bh" stroke="#373535" stroke-width=".05" stroke-linejoin="round" stroke-linecap="round" fill="none" d="M101.875 57.091q.25-.146.584-.62.292-.438.583-.583"/><path id="bi" stroke="#373535" stroke-width=".05" stroke-linejoin="round" stroke-linecap="round" fill="none" d="M101.417 57.638q1.459-.182 2.167-.875"/><path id="bj" stroke="#373535" stroke-width=".05" stroke-linejoin="round" stroke-linecap="round" fill="none" d="M102.959 56.69q.25-.146.667-.51"/><path id="bk" stroke="#373535" stroke-width=".05" stroke-linejoin="round" stroke-linecap="round" fill="none" d="M104.292 57.127q-.333-.109-.75.146"/><path id="bl" stroke="#373535" stroke-width=".05" stroke-linejoin="round" stroke-linecap="round" fill="none" d="M101.834 57.966q.375.11 1.292-.11.916-.255 1.166-.145"/><path id="bm" stroke="#373535" stroke-width=".05" stroke-linejoin="round" stroke-linecap="round" fill="none" d="M103.876 56.617q1.083-.584 2.5-1.021"/><path id="bn" stroke="#373535" stroke-width=".05" stroke-linejoin="round" stroke-linecap="round" fill="none" d="M105.917 55.012l-.875.803"/><path id="bo" stroke="#373535" stroke-width=".05" stroke-linejoin="round" stroke-linecap="round" fill="none" d="M105.209 54.867l-.792 1.02"/><path id="bp" stroke="#373535" stroke-width=".05" stroke-linejoin="round" stroke-linecap="round" fill="none" d="M106.667 54.757q-.458.146-.541.183"/><path id="bq" stroke="#373535" stroke-width=".05" stroke-linejoin="round" stroke-linecap="round" fill="none" d="M104.376 54.538q.083 1.313-.417 2.042"/><path id="br" stroke="#373535" stroke-width=".05" stroke-linejoin="round" stroke-linecap="round" fill="none" d="M104.792 54.94q.209-.365.125-.547"/><path id="bs" stroke="#373535" stroke-width=".05" stroke-linejoin="round" stroke-linecap="round" fill="none" d="M107.292 53.007q-.25.62-.458.875-.333.438-.958.766"/><path id="bt" stroke="#373535" stroke-width=".05" stroke-linejoin="round" stroke-linecap="round" fill="none" d="M106 52.46q.376 1.276-.374 2.37"/><path id="bu" stroke="#373535" stroke-width=".05" stroke-linejoin="round" stroke-linecap="round" fill="none" d="M105 52.533q.334.583.459.948"/><path id="bv" stroke="#373535" stroke-width=".05" stroke-linejoin="round" stroke-linecap="round" fill="none" d="M105.417 52.278q.209.255.209.62"/><path id="bw" stroke="#373535" stroke-width=".05" stroke-linejoin="round" stroke-linecap="round" fill="none" d="M106.792 52.059q-.416.364-.5.838"/><path id="bx" stroke="#373535" stroke-width=".05" stroke-linejoin="round" stroke-linecap="round" fill="none" d="M106.75 50.235q-.166.438-.54 1.97"/><path id="by" stroke="#373535" stroke-width=".05" stroke-linejoin="round" stroke-linecap="round" fill="none" d="M105.96 52.095q-.043-.4-.25-1.02-.168-.511-.168-.694"/><path id="bz" stroke="#373535" stroke-width=".05" stroke-linejoin="round" stroke-linecap="round" fill="none" d="M106.21 50.09q-.043.291 0 .692"/><path id="bA" stroke="#373535" stroke-width=".05" stroke-linejoin="round" stroke-linecap="round" fill="none" d="M104.959 50.49l.375.22"/><path id="bB" stroke="#373535" stroke-width=".05" stroke-linejoin="round" stroke-linecap="round" fill="none" d="M104.667 50.746q.625.839.875 1.021"/><path id="bC" stroke="#373535" stroke-width=".05" stroke-linejoin="round" stroke-linecap="round" fill="none" d="M103.667 49.36q.709.256 1.084.584"/><path id="bD" stroke="#373535" stroke-width=".05" stroke-linejoin="round" stroke-linecap="round" fill="none" d="M104.376 48.85q.625.547 1.041 1.313"/><path id="bE" stroke="#373535" stroke-width=".05" stroke-linejoin="round" stroke-linecap="round" fill="none" d="M105.209 48.23q-.083.219.125.839.208.692.167.948"/><path id="bF" stroke="#373535" stroke-width=".05" stroke-linejoin="round" stroke-linecap="round" fill="none" d="M104.459 49.324q-.417-.292-.5-.328"/><path id="bG" stroke="#373535" stroke-width=".05" stroke-linejoin="round" stroke-linecap="round" fill="none" d="M104.584 48.303l.292.437"/><path id="bH" stroke="#373535" stroke-width=".05" stroke-linejoin="round" stroke-linecap="round" fill="none" d="M102.459 47.5q1.208.62 1.75 1.313"/><path id="bI" stroke="#373535" stroke-width=".05" stroke-linejoin="round" stroke-linecap="round" fill="none" d="M102 48.084q.959.547 1.584.547"/><path id="bJ" stroke="#373535" stroke-width=".05" stroke-linejoin="round" stroke-linecap="round" fill="none" d="M103.084 46.88q0 .329.375.912"/><path id="bL" stroke="#373535" stroke-width=".05" stroke-linejoin="round" stroke-linecap="round" fill="none" d="M104.542 47.902q-.166 0-.125.255.042.219.209.219.208 0 .166-.22 0-.254-.25-.254z"/><path id="bN" stroke="#373535" stroke-width=".05" stroke-linejoin="round" stroke-linecap="round" fill="none" d="M104.042 49.069q.042-.146-.25-.22-.291-.036-.333.11-.042.146.25.219.292.036.333-.11z"/><path id="bP" stroke="#373535" stroke-width=".05" stroke-linejoin="round" stroke-linecap="round" fill="none" d="M105.126 50.6q.083-.11-.125-.255-.209-.146-.292-.037-.125.11.083.256.167.182.334.036z"/><path id="bR" stroke="#373535" stroke-width=".05" stroke-linejoin="round" stroke-linecap="round" fill="none" d="M106.334 49.761q-.167-.073-.25.146-.083.22.083.292.167.073.292-.11.083-.218-.125-.328z"/><path id="bT" stroke="#373535" stroke-width=".05" stroke-linejoin="round" stroke-linecap="round" fill="none" d="M106.667 52.132q.125.146.334 0 .208-.146.083-.256-.083-.073-.292.037-.208.073-.125.219z"/><path id="bV" stroke="#373535" stroke-width=".05" stroke-linejoin="round" stroke-linecap="round" fill="none" d="M105.5 52.387q.126-.073-.041-.182-.167-.146-.292-.073-.125.11 0 .218.125.146.334.037z"/><path id="bX" stroke="#373535" stroke-width=".05" stroke-linejoin="round" stroke-linecap="round" fill="none" d="M104.917 54.502q.167-.073.084-.255-.125-.183-.292-.11-.167.073-.042.256.125.182.25.109z"/><path id="bZ" stroke="#373535" stroke-width=".05" stroke-linejoin="round" stroke-linecap="round" fill="none" d="M106.542 54.757q-.041.219.25.183.292-.037.25-.22-.041-.145-.25-.145-.25.036-.25.182z"/><path id="cb" stroke="#373535" stroke-width=".05" stroke-linejoin="round" stroke-linecap="round" fill="none" d="M103.459 55.924q-.083.182.083.292.125.073.25-.11.084-.218-.083-.291-.167-.073-.25.11z"/><path id="cd" stroke="#373535" stroke-width=".05" stroke-linejoin="round" stroke-linecap="round" fill="none" d="M104.167 57.091q0 .182.209.182.208.037.208-.146 0-.145-.208-.182-.167 0-.209.146z"/></defs><use xlink:href="#a" transform="matrix(.83345 0 0 .72937 -153.35 -232.7)"/><use xlink:href="#b" transform="matrix(.83345 0 0 .72937 -153.35 -232.7)"/><use xlink:href="#c" transform="matrix(.83345 0 0 .72937 -153.35 -232.7)"/><use xlink:href="#d" transform="matrix(.83342 0 0 .72934 -153.35 -232.7)"/><use xlink:href="#e" transform="matrix(.83342 0 0 .72934 -153.35 -232.7)"/><use xlink:href="#f" transform="matrix(.83339 0 0 .7293 -153.35 -232.7)"/><use xlink:href="#g" transform="matrix(.83339 0 0 .7293 -153.35 -232.7)"/><use xlink:href="#h" transform="matrix(.83339 0 0 .7293 -153.35 -232.7)"/><use xlink:href="#i" transform="matrix(.83339 0 0 .7293 -153.35 -232.7)"/><use xlink:href="#j" transform="matrix(.83339 0 0 .7293 -153.35 -232.7)"/><use xlink:href="#k" transform="matrix(.83339 0 0 .7293 -153.35 -232.7)"/><use xlink:href="#l" transform="matrix(.83339 0 0 .7293 -153.35 -232.7)"/><use xlink:href="#m" transform="matrix(.83339 0 0 .7293 -153.35 -232.7)"/><use xlink:href="#n" transform="matrix(.83339 0 0 .7293 -153.35 -232.7)"/><use xlink:href="#o" transform="matrix(.83339 0 0 .7293 -153.35 -232.7)"/><use xlink:href="#p" transform="matrix(.83339 0 0 .7293 -153.35 -232.7)"/><use xlink:href="#q" transform="matrix(.83339 0 0 .7293 -153.35 -232.7)"/><use xlink:href="#r" transform="matrix(.83339 0 0 .7293 -153.35 -232.7)"/><use xlink:href="#s" transform="matrix(.83339 0 0 .7293 -153.35 -232.7)"/><use xlink:href="#t" transform="matrix(.83339 0 0 .7293 -153.35 -232.7)"/><use xlink:href="#u" transform="matrix(.83339 0 0 .7293 -153.35 -232.7)"/><use xlink:href="#v" transform="matrix(.83339 0 0 .7293 -153.35 -232.7)"/><use xlink:href="#w" transform="matrix(.83339 0 0 .7293 -153.35 -232.7)"/><use xlink:href="#x" transform="matrix(.83339 0 0 .7293 -153.35 -232.7)"/><use xlink:href="#y" transform="matrix(.83339 0 0 .7293 -153.35 -232.7)"/><use xlink:href="#z" transform="matrix(.83342 0 0 .72934 -153.35 -232.7)"/><use xlink:href="#A" transform="matrix(.83342 0 0 .72934 -153.35 -232.7)"/><g transform="matrix(.83339 0 0 .7293 -153.35 -232.7)"><use xlink:href="#B"/><use xlink:href="#C" transform="matrix(1.1999 0 0 1.37115 184 319.05)"/></g><g transform="matrix(.83339 0 0 .7293 -153.35 -232.7)"><use xlink:href="#D"/><use xlink:href="#E" transform="matrix(1.1999 0 0 1.37115 184 319.05)"/></g><g transform="matrix(.83339 0 0 .7293 -153.35 -232.7)"><use xlink:href="#F"/><use xlink:href="#G" transform="matrix(1.1999 0 0 1.37115 184 319.05)"/></g><g transform="matrix(.83339 0 0 .7293 -153.35 -232.7)"><use xlink:href="#H"/><use xlink:href="#I" transform="matrix(1.1999 0 0 1.37115 184 319.05)"/></g><g transform="matrix(.83339 0 0 .7293 -153.35 -232.7)"><use xlink:href="#J"/><use xlink:href="#K" transform="matrix(1.1999 0 0 1.37115 184 319.05)"/></g><g transform="matrix(.83339 0 0 .7293 -153.35 -232.7)"><use xlink:href="#L"/><use xlink:href="#M" transform="matrix(1.1999 0 0 1.37115 184 319.05)"/></g><g transform="matrix(.83339 0 0 .7293 -153.35 -232.7)"><use xlink:href="#N"/><use xlink:href="#O" transform="matrix(1.1999 0 0 1.37115 184 319.05)"/></g><g transform="matrix(.83339 0 0 .7293 -153.35 -232.7)"><use xlink:href="#P"/><use xlink:href="#Q" transform="matrix(1.1999 0 0 1.37115 184 319.05)"/></g><g transform="matrix(.83339 0 0 .7293 -153.35 -232.7)"><use xlink:href="#R"/><use xlink:href="#S" transform="matrix(1.1999 0 0 1.37115 184 319.05)"/></g><g transform="matrix(.83336 0 0 .72928 -153.35 -232.7)"><use xlink:href="#T"/><use xlink:href="#U" transform="matrix(1.19995 0 0 1.37122 184 319.05)"/></g><g transform="matrix(.83336 0 0 .72928 -153.35 -232.7)"><use xlink:href="#V"/><use xlink:href="#W" transform="matrix(1.19995 0 0 1.37122 184 319.05)"/></g><g transform="matrix(.83339 0 0 .7293 -153.35 -232.7)"><use xlink:href="#X"/><use xlink:href="#Y" transform="matrix(1.1999 0 0 1.37115 184 319.05)"/></g><g transform="matrix(.83336 0 0 .72928 -153.35 -232.7)"><use xlink:href="#Z"/><use xlink:href="#aa" transform="matrix(1.19995 0 0 1.37122 184 319.05)"/></g><g transform="matrix(.83336 0 0 .72928 -153.35 -232.7)"><use xlink:href="#ab"/><use xlink:href="#ac" transform="matrix(1.19995 0 0 1.37122 184 319.05)"/></g><g transform="matrix(.83339 0 0 .7293 -153.35 -232.7)"><use xlink:href="#ad"/><use xlink:href="#ae" transform="matrix(1.1999 0 0 1.37115 184 319.05)"/></g><g transform="matrix(.83339 0 0 .7293 -153.35 -232.7)"><use xlink:href="#af"/><use xlink:href="#ag" transform="matrix(1.1999 0 0 1.37115 184 319.05)"/></g><g transform="matrix(.83339 0 0 .7293 -153.35 -232.7)"><use xlink:href="#ah"/><use xlink:href="#ai" transform="matrix(1.1999 0 0 1.37115 184 319.05)"/></g><g transform="matrix(.83339 0 0 .7293 -153.35 -232.7)"><use xlink:href="#aj"/><use xlink:href="#ak" transform="matrix(1.1999 0 0 1.37115 184 319.05)"/></g><g transform="matrix(.83339 0 0 .7293 -153.35 -232.7)"><use xlink:href="#al"/><use xlink:href="#am" transform="matrix(1.1999 0 0 1.37115 184 319.05)"/></g><g transform="matrix(.83339 0 0 .7293 -153.35 -232.7)"><use xlink:href="#an"/><use xlink:href="#ao" transform="matrix(1.1999 0 0 1.37115 184 319.05)"/></g><g transform="matrix(.83339 0 0 .7293 -153.35 -232.7)"><use xlink:href="#ap"/><use xlink:href="#aq" transform="matrix(1.1999 0 0 1.37115 184 319.05)"/></g><g transform="matrix(.83339 0 0 .7293 -153.35 -232.7)"><use xlink:href="#ar"/><use xlink:href="#as" transform="matrix(1.1999 0 0 1.37115 184 319.05)"/></g><g transform="matrix(.83339 0 0 .7293 -153.35 -232.7)"><use xlink:href="#at"/><use xlink:href="#au" transform="matrix(1.1999 0 0 1.37115 184 319.05)"/></g><g transform="matrix(.83339 0 0 .7293 -153.35 -232.7)"><use xlink:href="#av"/><use xlink:href="#aw" transform="matrix(1.1999 0 0 1.37115 184 319.05)"/></g><g transform="matrix(.83339 0 0 .7293 -153.35 -232.7)"><use xlink:href="#ax"/><use xlink:href="#ay" transform="matrix(1.1999 0 0 1.37115 184 319.05)"/></g><g transform="matrix(.83339 0 0 .7293 -153.35 -232.7)"><use xlink:href="#az"/><use xlink:href="#aA" transform="matrix(1.1999 0 0 1.37115 184 319.05)"/></g><g transform="matrix(.83339 0 0 .7293 -153.35 -232.7)"><use xlink:href="#aB"/><use xlink:href="#aC" transform="matrix(1.1999 0 0 1.37115 184 319.05)"/></g><g transform="matrix(.83339 0 0 .7293 -153.35 -232.7)"><use xlink:href="#aD"/><use xlink:href="#aE" transform="matrix(1.1999 0 0 1.37115 184 319.05)"/></g><g transform="matrix(.83339 0 0 .7293 -153.35 -232.7)"><use xlink:href="#aF"/><use xlink:href="#aG" transform="matrix(1.1999 0 0 1.37115 184 319.05)"/></g><g transform="matrix(.83339 0 0 .7293 -153.35 -232.7)"><use xlink:href="#aH"/><use xlink:href="#aI" transform="matrix(1.1999 0 0 1.37115 184 319.05)"/></g><g transform="matrix(.83339 0 0 .7293 -153.35 -232.7)"><use xlink:href="#aJ"/><use xlink:href="#aK" transform="matrix(1.1999 0 0 1.37115 184 319.05)"/></g><g transform="matrix(.83339 0 0 .7293 -153.35 -232.7)"><use xlink:href="#aL"/><use xlink:href="#aM" transform="matrix(1.1999 0 0 1.37115 184 319.05)"/></g><g transform="matrix(.83339 0 0 .7293 -153.35 -232.7)"><use xlink:href="#aN"/><use xlink:href="#aO" transform="matrix(1.1999 0 0 1.37115 184 319.05)"/></g><g transform="matrix(.83339 0 0 .7293 -153.35 -232.7)"><use xlink:href="#aP"/><use xlink:href="#aQ" transform="matrix(1.1999 0 0 1.37115 184 319.05)"/></g><g transform="matrix(.83339 0 0 .7293 -153.35 -232.7)"><use xlink:href="#aR"/><use xlink:href="#aS" transform="matrix(1.1999 0 0 1.37115 184 319.05)"/></g><g transform="matrix(.83339 0 0 .7293 -153.35 -232.7)"><use xlink:href="#aT"/><use xlink:href="#aU" transform="matrix(1.1999 0 0 1.37115 184 319.05)"/></g><g transform="matrix(.83336 0 0 .72928 -153.35 -232.7)"><use xlink:href="#aV"/><use xlink:href="#aW" transform="matrix(1.19995 0 0 1.37122 184 319.05)"/></g><g transform="matrix(.83339 0 0 .7293 -153.35 -232.7)"><use xlink:href="#aX"/><use xlink:href="#aY" transform="matrix(1.1999 0 0 1.37115 184 319.05)"/></g><g transform="matrix(.83339 0 0 .7293 -153.35 -232.7)"><use xlink:href="#aZ"/><use xlink:href="#ba" transform="matrix(1.1999 0 0 1.37115 184 319.05)"/></g><g transform="matrix(.83339 0 0 .7293 -153.35 -232.7)"><use xlink:href="#bb"/><use xlink:href="#bc" transform="matrix(1.1999 0 0 1.37115 184 319.05)"/></g><g transform="matrix(.83339 0 0 .7293 -153.35 -232.7)"><use xlink:href="#bd"/><use xlink:href="#be" transform="matrix(1.1999 0 0 1.37115 184 319.05)"/></g><g transform="matrix(.83339 0 0 .7293 -153.35 -232.7)"><use xlink:href="#bf"/><use xlink:href="#bg" transform="matrix(1.1999 0 0 1.37115 184 319.05)"/></g><use xlink:href="#bh" transform="matrix(.99999 0 0 1 -.006 -.014)"/><use xlink:href="#bi" transform="matrix(.99999 0 0 1 -.006 -.014)"/><use xlink:href="#bj" transform="matrix(.99999 0 0 1 -.006 -.014)"/><use xlink:href="#bk" transform="matrix(.99999 0 0 1 -.006 -.014)"/><use xlink:href="#bl" transform="matrix(.99999 0 0 1 -.006 -.014)"/><use xlink:href="#bm" transform="matrix(.99999 0 0 1 -.006 -.014)"/><use xlink:href="#bn" transform="matrix(.99999 0 0 1 -.006 -.014)"/><use xlink:href="#bo" transform="matrix(.99999 0 0 1 -.006 -.014)"/><use xlink:href="#bp" transform="matrix(.99999 0 0 1 -.006 -.014)"/><use xlink:href="#bq" transform="matrix(.99999 0 0 1 -.006 -.014)"/><use xlink:href="#br" transform="matrix(.99999 0 0 1 -.006 -.014)"/><use xlink:href="#bs" transform="matrix(.99999 0 0 1 -.006 -.014)"/><use xlink:href="#bt" transform="matrix(.99999 0 0 1 -.006 -.014)"/><use xlink:href="#bu" transform="matrix(.99999 0 0 1 -.006 -.014)"/><use xlink:href="#bv" transform="matrix(.99999 0 0 1 -.006 -.014)"/><use xlink:href="#bw" transform="matrix(.99999 0 0 1 -.006 -.014)"/><use xlink:href="#bx" transform="matrix(.99999 0 0 1 -.006 -.014)"/><use xlink:href="#by" transform="matrix(.99999 0 0 1 -.006 -.014)"/><use xlink:href="#bz" transform="matrix(.99999 0 0 1 -.006 -.014)"/><use xlink:href="#bA" transform="matrix(.99999 0 0 1 -.006 -.014)"/><use xlink:href="#bB" transform="matrix(.99999 0 0 1 -.006 -.014)"/><use xlink:href="#bC" transform="matrix(.99999 0 0 1 -.006 -.014)"/><use xlink:href="#bD" transform="matrix(.99999 0 0 1 -.006 -.014)"/><use xlink:href="#bE" transform="matrix(.99999 0 0 1 -.006 -.014)"/><use xlink:href="#bF" transform="matrix(.99999 0 0 1 -.006 -.014)"/><use xlink:href="#bG" transform="matrix(.99999 0 0 1 -.006 -.014)"/><use xlink:href="#bH" transform="matrix(.99999 0 0 1 -.006 -.014)"/><use xlink:href="#bI" transform="matrix(.99999 0 0 1 -.006 -.014)"/><use xlink:href="#bJ" transform="matrix(.99999 0 0 1 -.006 -.014)"/><g transform="matrix(.83339 0 0 .7293 -153.35 -232.7)"><use xlink:href="#bK"/><use xlink:href="#bL" transform="matrix(1.1999 0 0 1.37115 184 319.05)"/></g><g transform="matrix(.83339 0 0 .7293 -153.35 -232.7)"><use xlink:href="#bM"/><use xlink:href="#bN" transform="matrix(1.1999 0 0 1.37115 184 319.05)"/></g><g transform="matrix(.83339 0 0 .7293 -153.35 -232.7)"><use xlink:href="#bO"/><use xlink:href="#bP" transform="matrix(1.1999 0 0 1.37115 184 319.05)"/></g><g transform="matrix(.83339 0 0 .7293 -153.35 -232.7)"><use xlink:href="#bQ"/><use xlink:href="#bR" transform="matrix(1.1999 0 0 1.37115 184 319.05)"/></g><g transform="matrix(.83339 0 0 .7293 -153.35 -232.7)"><use xlink:href="#bS"/><use xlink:href="#bT" transform="matrix(1.1999 0 0 1.37115 184 319.05)"/></g><g transform="matrix(.83339 0 0 .7293 -153.35 -232.7)"><use xlink:href="#bU"/><use xlink:href="#bV" transform="matrix(1.1999 0 0 1.37115 184 319.05)"/></g><g transform="matrix(.83339 0 0 .7293 -153.35 -232.7)"><use xlink:href="#bW"/><use xlink:href="#bX" transform="matrix(1.1999 0 0 1.37115 184 319.05)"/></g><g transform="matrix(.83339 0 0 .7293 -153.35 -232.7)"><use xlink:href="#bY"/><use xlink:href="#bZ" transform="matrix(1.1999 0 0 1.37115 184 319.05)"/></g><g transform="matrix(.83339 0 0 .7293 -153.35 -232.7)"><use xlink:href="#ca"/><use xlink:href="#cb" transform="matrix(1.1999 0 0 1.37115 184 319.05)"/></g><g transform="matrix(.83339 0 0 .7293 -153.35 -232.7)"><use xlink:href="#cc"/><use xlink:href="#cd" transform="matrix(1.1999 0 0 1.37115 184 319.05)"/></g><use xlink:href="#ce" transform="matrix(.83342 0 0 .72934 -153.35 -232.7)"/></svg>