<svg xmlns="http://www.w3.org/2000/svg" xmlns:xlink="http://www.w3.org/1999/xlink" preserveAspectRatio="none" width="200" height="105"><defs><path fill="#782E49" d="M107.2 465.55h366.55V321.5H107.2v144.05z" id="a"/><path fill="#FFF" d="M235.3 345.5l-24.5-8 24.5-8-24.45-8H107.2v144.05h103.65l24.45-8.05-24.5-8 24.5-8-24.5-8 24.5-8-24.5-8 24.5-8-24.5-8 24.5-8-24.5-8 24.5-8-24.5-8 24.5-8-24.5-8 24.5-8z" id="b"/></defs><use xlink:href="#a" transform="matrix(.54568 0 0 .72888 -58.5 -234.35)"/><use xlink:href="#b" transform="matrix(.54568 0 0 .72888 -58.5 -234.35)"/></svg>