<svg xmlns="http://www.w3.org/2000/svg" xmlns:xlink="http://www.w3.org/1999/xlink" preserveAspectRatio="none" width="200" height="105"><defs><path fill="#FFE25C" d="M254.45 465.5h72v-144h-72v144z" id="a"/><path fill="#00AE6D" d="M398.5 321.5h-72.05v144h72.05v-144z" id="b"/><path fill="#EE333E" d="M254.45 321.5H182.5v144h71.95v-144z" id="c"/><path fill="#373535" d="M303.4 362.25q-5.2-5.05-13.25-5.05l-22.8.1v72.45h9.55V397.9l4.65.05 20.65 31.8h11.4l-20.7-32.05q6.25-1.3 10.75-6 5.45-5.65 5.45-14.1 0-9.8-5.7-15.35m-26.5 26.1v-21.5h11q4.55 0 7.65 2.2 4 2.8 4 8.55 0 5.65-4.3 8.55-3.25 2.2-7.35 2.2h-11z" id="d"/></defs><use xlink:href="#a" transform="matrix(.92589 0 0 .72917 -168.95 -234.45)"/><use xlink:href="#b" transform="matrix(.92589 0 0 .72917 -168.95 -234.45)"/><use xlink:href="#c" transform="matrix(.92589 0 0 .72917 -168.95 -234.45)"/><use xlink:href="#d" transform="matrix(.92586 0 0 .72917 -168.95 -234.45)"/></svg>