<svg xmlns="http://www.w3.org/2000/svg" xmlns:xlink="http://www.w3.org/1999/xlink" preserveAspectRatio="none" width="200" height="105"><defs><path fill="#009D6D" d="M196 463h216V319H196v144z" id="a"/><path fill="#FFF" d="M270.25 423.5q2.35.35 10.25.45 17.65.25 50.6-.6v1q-.65.8-.65 1.15 0 .25.55 1 .45.65.7.55.15-.05.45-.55l.3-.5 3.4-.1q0 .3.35.5.3.2.5.15.25 0 .5-.15.3-.25.25-.5l3.75-.05q.6.9 1.5.8.95-.05 1.4-1.1.45-1 .3-2.5-.15-1.65-1.05-2.2-.85-.5-2.9-.45-4.1.1-8.55.15l-.05-.9q.6-.8.6-1.15 0-.3-.5-1.05-.3-.45-.45-.5-.3-.1-.7.55-.5.75-.5 1.05 0 .35.7 1.1l.05.95q-12.85.15-29.15.1-11.25-.05-38.25-.35 1.5 2.45 6.6 3.15m70.75-.45q-.35 1.05-.15 1.9l-3.4.05q0-.25-.3-.45-.25-.15-.5-.15t-.5.2q-.3.2-.3.45l-3.3.1q-.1-.3-.6-.85v-1q4.4-.1 9.05-.25m-28.15-33.4q.7-.55.45-.65-.2-.1-.8.15-1.3.65-2.15.95-.7.25-.85-.1-.15-.35.2-1.4.55-1.65-.6-1.05-.9.6-1.65 1-.35.25-.25.4.1.15.8-.15.6-.25.65.05 0 .05-.3 1.1-.2.9.3 1.25.55.4 1.6.1.95-.2 2.6-1.65M301 371.05q-.2-.8-.35-.65-.15.1-.15 1 .05 1.35-.35 1.35-.35 0-.8-1.3-.2-.5-.35-.45-.2.05-.25.65-.05 1.25-.45 1.35-.4.1-.7-1.1-.2-.7-.25-.8-.15-.15-.25.6-.2 1.25.45 2.1.25.4.7.35.45-.05.6-.45.2-.5.35-.55.15-.05.5.3.5.55 1.15-.05.7-.7.15-2.35m-6-15.1q-.35.45-.35.6 0 .15.35.6.35.45.65 1.45.35 1.2.2 2.3-.1.7.05.9.15.2.35-.7.55-2.4-.15-4.2-.5-1.6-1.1-.95m25.95 8.85q-.35.05-.45-.7-.15-.7-.3-.6-.2.1-.3.85-.15.75-.4.6-.25-.15-.45-.85-.1-.45-.3-.2-.15.2-.05.85.15 1.7 1.2.75.25-.25.45-.25t.55.35q.3.3.65.2.3-.15.45-.45.2-.6.05-1.7-.1-.75-.3-.55-.2.15-.35.95-.15.7-.45.75m-14.45-6.35q-.6-1.8-1.85-2.85-.5-.4-.75-.3-.15.05-.45.5-.6 1-.65 1.05-.3.3-.3.55.05.2.3.85 1.15 3 1.45 5.15.35 2.8-1 3.05-1.2.25-2.15-1.8-.8-1.75-.85-3.45-.15-3.75-.85-5.45-.35-.95-.55-1.1-.2-.2-.45.3t-.6 1.4q-.2.3-.1.65.05.2.3.95.85 3.95.6 5.75-.25 1.95-1.95 2.95-1.6.95-2.6.35-.9-.55-.95-1.9-.1-3.15.15-4.95.2-1.15.25-1.5.05-.45-.25-.9-.35-.55-.7-.4-.35.1-.9.85-1 1.4-2.05 3.65-.9 2-1.3 3.35-.35 1.15-1.05.95-.65-.15-1.2-1.3-.55-1.1-.6-3-.1-1.6.15-2.7.25-.95.15-1.15-.15-.2-.5.75-1.9 5.45 1.25 9 1.9 2.1 3.05-.8 1-3.25 1.45-4.3.35-.75.55-.65.25.05.15.8-.5 5.1 1.7 6.45 1.45.9 3.45-.2 1.85-1.05 2.7-2.8 2.35 3.1 4.35 2.25 1.85-.75 2.15-4.1.05-.95-.25-2.65-.35-1.65-.65-2.3-.25-.55-.1-.65.1-.1.5.25.45.45.85.4.4-.05.1-1m13.2-2.3q-.65-1.15-1.25-.2-.55 1 .1 1.45 1.55 1.25 1.05 2.9-.2.85 0 1.05.2.25.65-.75.9-2.05-.55-4.45m-5.05.4q-.25-.65-.7-.65-.5 0-.8.8-.4 1-.35 1.45 0 .45.45 1.1-.05 1.05.4 4.35l-2.6-3.8q1 .4 1.35.1.35-.3-.45-1.15-.7-.75-3.5-3.3-.65-.6-1.05-.35-.3.2-.2.85.15 1.3.1 2-.05.55.15.8.25.35.9.65 4 5.3 5.5 7.55.25 2.2.9 6.5.8 7.15.8 7.35.35 4.2-.15 5.85-.4 1.6-.05 1.75.35.15 1-1.95t.65-4.5q.05-2.05-.4-5.6-.3-3.9-.55-5.95 5.55 8.65 7 12.25.55 1.35.8 1.3.3 0 0-1.7-.75-4.1-7.95-15.2-.25-2.9-.25-4.95.45.5.75.25.3-.2.1-.9-.25-.95-1.85-4.9m-32.15 24.9q0-1.2-.55-.15-1.05 2-1.6 4.45-3.8 2.55-8.85 5.1-.75.4-.5.65.25.2.9 0 5.45-1.7 8.35-3.1.25 3.2 2.65 3.8 4.55 1.2 10.45-7.05 2 5.55 8.85 6.65 1.65.25 2.1.05.25-.15.55-1.05.25-.95.15-1.15-.2-.35-1.55-.75-1.95-.7-2.3-1.8-.35-1.15 1.4-1.9 4.1-1.75 8.1-2.45 1.5-.25 1.65-.3.55-.3.9-1.25.4-1.2.35-1.4-.1-.3-1.3-.2-1.5.15-6.1.2-4.9.1-6.35-.05 2.2-1.1 6.05-2.45 1 .7.75-.25 1.45-.6 1.95-.9 1.65-.95 1.95-2.4.35-1.6-1.2-2.65-3.65-2.65-5.2-.35-.85 1.2-1.05 2.05-.25 1.15.55 2.35-2.45.75-5.65 2.05-1.2.5-1.55.8-.6.5-.9 1.65-.4 1.4-.3 1.6.1.3 1.45.35 3.3.15 3.5.15 1.75.25 2.7 1.1-1.95.75-2.9 2-1.05 1.45-.45 3.2-2-.5-3.1-1.55-1.15-1.05-1.65-3.55-.4-3.2-.8-5.05-.5-2.3-1.55-4.9-1.05-2.45-1.3-3.1-.35-.85-.6-.7-.2.1-.55.95-.2.5-.5 1.2-.15.6.15 1.4 1.9 5.3 2.95 9.35-1.2 2.55-3.35 4.7-2.4 2.45-4.5 2.75-2.95.45-2.65-2.1 2.3-1.35 4.2-3.3 2.15-2.1 2.45-4.2.35-2.15-1-5.6 1.75.25-.7-2.6-.85-1-1.2-.9-.3.05-.75 1.05-.5 1.1-.5 1.45-.05.6.8.95.15.4 1.4 2.8 1 1.9 0 3.35-.2.25-2.7 2.5-.45.45-1.65 1.25.15-2.2.1-2.75m25.35-7.65q.2.2-.8.45l-1.55.4q-.05-.15-.2-1.45-.05-1 1.4-.1.55.35 1.15.7m-30.8 5.85q-.25.6.05 1 .35.4 1 .05.15.4.1 1.1-.05.7-.2 1.1-.25.5-.05.6.2.1.5-.5.7-1.35.5-2.8-.15-.7-.2-.8-.1-.25-.6-.5-.45-.2-.7.05-.15.15-.4.7m-24.45 2.25q-.15-.9-.6 1.1-.15.75-.7 2.1-.4 1.5-.2 4.05.2 2 1.7 1.75 1.55-.25 1.6-2.5 0-.7-.25-.7t-.75.8q-.6 1-1.15-.15-.6-1.2 0-3.3.45-1.45.45-1.65 0-1.05-.1-1.5m5.9-7.85q.1-.15.05-.75 0-.5-.3-.5-.55.2-1 .3-1.25.4-2.8 1.35-1.9 1.2-3.3 2.85-.55.7-.3.6.2-.05.7-.45.85-.65 2.95-1.7 2.05-1 3.3-1.4.55-.15.7-.3m-5-17.75q.65-.5.65.6 0 1.05-.6 2.6 1.35-2.1 1.2-3.45-.1-1.1-.7-1.15-.5 0-1.15.75-.4.5-.15.8.25.3.75-.15m27.45 7.85q-.2-.15-.9.75-1.75 2.4-.3 3.6.5.4 1.35 0 .85-.4 1.2-1.2.35-.85.2-.95-.15-.1-.8.65-.9 1.1-1.45.35-.6-.7.3-2.1.65-.95.4-1.1m-9.3-7.7q-.3-.8-.55-.7-.2.05-.95.85-.6.7-.65 1.15 0 .2.3 1.1-.05 1.2.4 5 .1.9.5 4.05.4 3.3.6 6.2l-1.55.85q-.4-1.1-1.65-2.25-1-.95-1.75-.9-.85 0-1.65 1.15-.75 1.1-.9 1.7-.1.4 0 1.55.05.7.05 1.5.1.5.8.75.7.25 1.2.2.35 0 .9-.2l1.95-.7q.25 1.3-.4 2.1-2.1 2.55-4.55 3.7-2.7 1.2-4-.3-1.55-1.8-1.1-5.15.15-1.15-.1-1.05-.25.05-.45.7-.55 1.7-.55 3.55-.05 2.05.6 3.1 2.05 3.55 6.25 1.65 2.65-1.2 4.2-2.85 1.85-2 1.75-4.35l-.1-1.65q.35-.15 1.15-.7v3.8q.1 2.45-.75 3.9-.45.8-1.8 1.9-2.75 2.15-6.35 2.65-3.45.5-4.9-1.45-1.2-1.6-1.15-5.15.3-1.1.25-2.1-.05-1.3-.2-1.2-.15.1-.6 1.5-.55 1.85-.55 3.95-.05 2.95 1.05 5.15 1.2 2.3 5 2.15 3.3-.1 7.05-1.95 3.05-1.45 4.15-4.45.85-2.2.65-5.9l-.2-3.45.35-.3q.4 1.45 2.15 1.35 1.65-.05 2.45-1.05.35-.45.45-.45.15 0 .5.45.55.75 1.75.8 1.25.05 1.65-.9.6-1.5.3-3.65-.1-.75-.3-.8-.2-.05-.75.35-.4.35-.3.65l.25.75q.25 2.05-.9 1.9-1.2-.1-1.4-2.2-.15-1.2-.35-1.1-.1.05-.35.8-.8 2.6-2.35 2.75-1.5.2-1.3-2.65.05-.75-.35-.75-.3.05-.7.45l-.95.85-.8-11.1q.6.8 1.1.2.4-.6 0-1.55-1.1-3.05-1.55-4.2m-5.05 17.95q.5.2 1.25 1.3l-.85.25q-1.55.5-1.45-.9.1-.65.25-.75.25-.2.8.1m1.2-16q-.7-.85-1.1-.35l-.9 1.05q-.3.4.1 1.3 1.3 3.1 1.6 5.4.1.85-.2 1.2-.25.25-.85.25-1.85 0-2.3-1.9-.6-2.35-.55-3.7.05-1.2 0-1.5-.1-.8-.65-1.55-.55-.8-.75-.85-.15-.05-.3.45-.45 1.5-.2 2.65l.8 3.9q.1.5-.3 1.35-.45.85-1.15 1.35l-.75-7.35q.9-.25.65-1.4-.15-.8-1-2.45-.5-.9-.85-.8-.25.05-.7.85-.35.6-.2 1.05.05.15.45.9-.2.35 0 1.15.3 1.55.35 1.85.1.55.55 6.45-1.35 0-1.95-1.5-1-2.4-.2-4.55.9-2.65.1-3.15-.95-.65-1.9.85-1.7 2.6-1.75 5.15-.15 2-.6 2.85-.6 1.05-1.35-.2-.55-.9-.85-3.15-.25-1.85-.2-3.5 0-.65-.15-.7-.15-.05-.35.7-.65 2.3-.2 5.1.35 2.1 1.1 3.65.55 1.15 1.3 1.05.7-.1 1.25-1.1.6-1 .85-2.9.35-2.35.8-3.6.4-1.25.6-.75.15.4-.05 1.35-.5 2.85.15 4.85.9 2.65 3.6 2.6.1.85.6 4.95.35 3.25.4 4.2 0 1.15.2 1.1.1 0 .5-.8.3-.6.3-1.5 0-.1-.05-1.85l-.45-7.05q.8-.75 1.3-1.6.35-.8.55-.8.15 0 .35.7.4 1.4 1.55 1.85 1.3.5 2.9-.65 1.45-1.05 1.3-3.35-.05-1.4-1-4.8.6.1.75-.3.2-.4-.15-1.05-.3-.6-1-1.4m-3.25-.9q.3-.3.4-.3.1 0 .35.4.2.3.6.25.4 0 .55-.35.4-.8.2-1.25-.2-.35-.25-.3-.05.05-.15.55-.15.7-.6.55-.45-.2-.45-1-.05-.75-.2-.6-.05.1-.35.8-.35.8-.75.7-.4-.05-.4-.8 0-.65-.2-.9t-.45.4q-.35 1 .3 1.8.25.35.7.35.45 0 .7-.3m18.1-2.05q-1.4-.3-2.05 1.4-.75 1.95.55 3-1.75 2.5-5.3 4.75-.8.5-.65.75.2.25 1.25-.2 4.1-1.9 5.9-4.6.55.1.75-.3.2-.35-.1-.85l.55-1.6q.55-2.05-.9-2.35m-.3 2.05l-.4 1q-.55-.4-.2-1.15.2-.45.45-.3.25.1.15.45m64.95 29.35q-.35-.4-.95-.35-.65.05-1 .5-.45.6.25.95t.9-.25q.3.45.05 1.25-.25.7-.8 1.2-.8.65-.6.8.2.1.85-.35.85-.6 1.35-1.55.65-1.3-.05-2.2m-6.75-15.5q-.15.05-.85.7-.2.2-3.4 2.7-.7.55-.9.75-.2.25-.15.6 0 .35.55 0l1.05-.75q1.5-1.15 3.55-2.2.55-.25.65-.6.05-.2-.1-.9-.05-.55-.4-.3m-1.7-6.85q-.15-.45-.35-.45-.2 0-.6.3-.6.45-.7 1.15 0 .1.1 2.4 0 1.4-.4.35-.65-1.55-1.35-2.65-.3-.35-.7-.2-.4.2-.35.6v1.2q-.05.55.4.55.45.05.6-.5.75.85 1.5 2.65.35.75.6.45.2-.3.25-.95-.05-1-.05-1.7-.05-1.3.1-1.75.2-.55.75-.2.5.3.65-.05.1-.3-.05-.55-.35-.4-.4-.65m-9.6-9.1q-.15 0-.75.9-.8 1.2-.55 2.8.15.95.65 3.05l2.3 17.6q.35 2.65.35 3.15.1 1.6-.3 3.25-.1.6.1.65.2.1.5-.55 1.25-2.4 1.05-5.3-.5-2.95-.65-4.05-1.45-12.1-1.7-15.65l.25.15q.9.5 1.3.45.45 0-.05-.8-.65-.95-1.9-4.6-.35-1.05-.6-1.05m-3.9 1.5q-.25-.9-.5-1.1-.2-.25-.55.2-.45.6-1.15 1.25-.3.3-.3.85t.3 1q1 7.05 1.45 12.45.15 1.85.4 7.3.2 4.2.15 4.8-.25 2-1.85 3.8-3.1 3.35-5.65 4-1.25.35-1.3.65-.1.35 1.5.3 2.65-.15 3.6-.6 1.05-.55 3.1-2.9 1.2-1.4 1.7-3.35.55-2.2.5-6.05-.1-4.8-.75-10.85-.6-5.15-.5-7.6.45.45.8.35.35-.15.05-.9-.6-2.4-1-3.6m21.5-1q-.5.85-.6 1.1-.2.5.05 1 .2 4.95 1.4 11.9l-3.25-4.5-.3-4.8q1.05.75.6-.55-.1-.35-1.45-4-.25-.7-.5-.75-.2 0-.6.55-.6.95-.7 1.6-.1.75.35 1.55l.25 3.1-1.65-2.55q.45.3.7-.05.2-.35-.3-.8-2.05-1.75-2.65-2.55-.4-.6-.8-.6-.4.05-.4.6v1.95q-.2 1.05.75 2.15l4.75 6.1q.95 11.5.8 14.7-.05 2.5-1.6 3-1.35.45-2.75-1.6-1.1-1.65-1.8-1.55-.6.1-1.55 1.65-1.65 2.8-2.6 4.85-.55 1.2-1.15 1.5-.75.4-1.35-.75-1-1.9-1-5.05.05-1.25-.1-1.45-.2-.3-.6 1.2-.85 3.65-.55 5.35.25 1.25 1.45 2.3 1.4 1.15 2 1.2.65.1 1.4-.9.95-1.35 2-3.55.9-2 1.4-2.6.55-.65.8-.45.2.15.5.7 1.35 1.75 3.55 2.1 1.45.25 2.65-1.05 1.55-1.6 1.4-4.95l-.7-11.6 3.8 5.25q.8 5 .65 7.6-.1 1.8.15 1.8.3-.05.65-1.9.25-1.3 0-5.55 2.5 3.35 3.85 5.55.95 1.5 1 1.55.25.15.1-1.85-.05-1.5-1.7-4l-3.6-5.25q-.9-11.1-.9-11.4.5.4.75.1.25-.3.05-1-.85-3.5-1.3-4.55-.5-1.3-1.35.15m3.9 2.1q-.3.5-.25.75 0 .3.4.9.95 1.5.95 3.65-.05.9.2.9.25-.05.45-.95.45-2.55-.5-4.8-.45-1-.75-1-.15 0-.5.55m4.9-2.15q-.4-.85-.65-.8-.15.05-.7.75-.9 1.2-.5 2 1.95 16.65 2.2 20.9.2 3.85-1 6.2-1.25 2.5-4.85 4.9-1.65 1.15-1.8 1.45-.3.6 2.2-.05 3.5-.9 5.25-3.4 2.4-3.45 2.15-10.5-.2-4.75-.9-10.7-.55-4.6-.45-6.35.6.6.85.4.25-.2-.15-1.1l-1.65-3.7z" id="b"/></defs><use xlink:href="#a" transform="matrix(.92587 0 0 .72917 -181.45 -232.6)"/><use xlink:href="#b" transform="matrix(.9259 0 0 .72917 -181.45 -232.6)"/></svg>