<svg xmlns="http://www.w3.org/2000/svg" xmlns:xlink="http://www.w3.org/1999/xlink" preserveAspectRatio="none" width="200" height="105"><defs><path fill="#EF4A4E" d="M398.5 393.5v-72h-216v72h216z" id="a"/><path fill="#FFF" d="M236.1 340.25l4.05 2.95-1.55 4.7 4-2.9 4 2.9-1.5-4.75 4-2.85h-4.95l-1.55-4.75-1.5 4.7h-5z" id="b"/><path fill="#FFF" d="M263.55 350.75h-5L257 346l-1.5 4.75h-5l4.05 2.9-1.55 4.75 4-2.95 4.05 2.95-1.55-4.75 4.05-2.9z" id="c"/><path fill="#FFF" d="M253.05 367.7l-1.55-4.75-1.5 4.75h-5l4.05 2.9-1.55 4.75 4-2.95 4.05 2.95-1.55-4.75 4.05-2.9h-5z" id="d"/><path fill="#FFF" d="M235.25 367.7l-1.55-4.75-1.55 4.75h-5l4.1 2.9-1.6 4.75 4.05-2.95 4 2.95-1.55-4.75 4.05-2.9h-4.95z" id="e"/><path fill="#FFF" d="M234.7 350.75h-4.95L228.2 346l-1.55 4.75h-5l4.1 2.9-1.6 4.75 4.05-2.95 4 2.95-1.55-4.75 4.05-2.9z" id="f"/><path fill="#FFF" d="M218.4 341.75q4.6-7.05 12.2-10.5-1.25-.15-2.6-.15-10.95 0-18.7 7.75t-7.75 18.7q0 10.9 7.75 18.65 7.75 7.75 18.7 7.75 1.35 0 2.6-.15-7.6-3.45-12.2-10.5-4.7-7.15-4.7-15.75t4.7-15.8z" id="g"/><path fill="#FFF" d="M398.5 465.5v-72h-216v72h216z" id="h"/></defs><use xlink:href="#a" transform="matrix(.92589 0 0 .72917 -168.95 -234.45)"/><use xlink:href="#b" transform="matrix(.92586 0 0 .72917 -168.95 -234.45)"/><use xlink:href="#c" transform="matrix(.92586 0 0 .72917 -168.95 -234.45)"/><use xlink:href="#d" transform="matrix(.92586 0 0 .72917 -168.95 -234.45)"/><use xlink:href="#e" transform="matrix(.92586 0 0 .72917 -168.95 -234.45)"/><use xlink:href="#f" transform="matrix(.92586 0 0 .72917 -168.95 -234.45)"/><use xlink:href="#g" transform="matrix(.92586 0 0 .72917 -168.95 -234.45)"/><use xlink:href="#h" transform="matrix(.92589 0 0 .72917 -168.95 -234.45)"/></svg>