<svg xmlns="http://www.w3.org/2000/svg" xmlns:xlink="http://www.w3.org/1999/xlink" preserveAspectRatio="none" width="200" height="105"><defs><path fill="#FFF" d="M434.5 369.5v-48H146.45v48H434.5z" id="a"/><path fill="#EE333E" d="M146.45 417.55v48H434.5v-48H146.45z" id="b"/><path fill="#0071B8" d="M434.5 417.55V369.5H146.45v48.05H434.5z" id="c"/><path fill="#EE333E" d="M228.45 341.35q-5.2-2.5-12.25-4-6.55-1.4-12.15-1.4-5.6 0-12.15 1.4-7.05 1.5-12.25 4l1.4 23q.65 10.7 5.5 17.55 5.65 8 17.5 11.65 11.85-3.65 17.5-11.65 4.85-6.85 5.5-17.55l1.4-23z" id="d"/><path fill="#0071B8" d="M226.6 340.5q-5.05-2.15-11.5-3.4-6-1.15-11.05-1.15-5.05 0-11.05 1.15-6.45 1.25-11.5 3.4l1.45 23.5q.65 10.4 5.15 16.8 5.1 7.2 15.95 10.75Q214.95 388 220 380.8q4.5-6.4 5.15-16.8l1.45-23.5z" id="f"/><path fill="#FFF" d="M198.1 378.55q1.45 0 2.95.8 1.5.75 3 .75 1.55 0 3.05-.75 1.5-.8 2.95-.8 1.45 0 2.95.8 1.5.75 3 .75 1.4 0 2.5-.5l1.4-2.25q-1 .5-1.6.75-1 .4-2.3.4-1.5 0-3-.75-1.5-.8-2.95-.8-1.45 0-2.95.8-1.5.75-3.05.75-1.5 0-3-.75-1.5-.8-2.95-.8-1.5 0-3 .8-1.5.75-3 .75-1.3 0-2.3-.4-1-.5-1.6-.75.9 1.5 1.45 2.25 1 .5 2.45.5 1.5 0 3-.75 1.5-.8 3-.8z" id="g"/><path fill="#FFF" d="M192.1 381.7q-.6 0-.85-.05 4.55 5.1 12.8 7.9 8.25-2.8 12.8-7.9-.25.05-.85.05-1.5 0-3-.75-1.5-.8-2.95-.8-1.45 0-2.95.8-1.5.75-3.05.75-1.5 0-3-.75-1.5-.8-2.95-.8-1.5 0-3 .8-1.5.75-3 .75z" id="h"/><path fill="#FFF" d="M198.1 375.35q1.45 0 2.95.8 1.5.75 3 .75 1.55 0 3.05-.75 1.5-.8 2.95-.8 1.45 0 2.95.8 1.5.75 3 .75 2.55 0 4.15-1.6 1.6-1.6 2.1-4.35l-9.1-11.1-3.65 4.4-5.45-10.2-5.45 10.2-3.65-4.4-9.1 11.1q.45 2.65 2.1 4.35 1.6 1.6 4.15 1.6 1.5 0 3-.75 1.5-.8 3-.8z" id="i"/><path fill="#FFF215" d="M209.9 342.1l.65 1.45.7-1.45 1.55.15-.9-1.3.9-1.35-1.55.15-.7-1.4-.65 1.4-1.6-.15.9 1.35-.9 1.3 1.6-.15z" id="j"/><path fill="#FFF215" d="M198.25 339.75l-.7-1.4-.7 1.4-1.55-.15.9 1.35-.9 1.3 1.55-.15.7 1.45.7-1.45 1.55.15-.9-1.3.9-1.35-1.55.15z" id="k"/><path fill="#FFF215" d="M204.05 351.4l.7-1.45 1.55.15-.9-1.3.9-1.35-1.55.15-.7-1.4-.7 1.4-1.55-.15.9 1.35-.9 1.3 1.55-.15.7 1.45z" id="l"/><path id="e" stroke="#373535" stroke-width=".1" stroke-linejoin="miter" stroke-linecap="butt" stroke-miterlimit="4" fill="none" d="M56.914 14.454l-.972 16.764q-.451 7.8-3.819 12.792-3.922 5.831-12.15 8.491-8.227-2.66-12.15-8.491-3.368-4.993-3.819-12.792l-.972-16.764q3.61-1.822 8.505-2.916 4.548-1.02 8.436-1.02t8.436 1.02q4.895 1.094 8.505 2.916z"/></defs><use xlink:href="#a" transform="matrix(.6943 0 0 .72888 -101.7 -234.35)"/><use xlink:href="#b" transform="matrix(.6943 0 0 .72888 -101.7 -234.35)"/><use xlink:href="#c" transform="matrix(.6943 0 0 .72888 -101.7 -234.35)"/><g transform="matrix(.6943 0 0 .72888 -101.7 -234.35)"><use xlink:href="#d"/><use xlink:href="#e" transform="matrix(1.44028 0 0 1.37196 146.45 321.5)"/></g><use xlink:href="#f" transform="matrix(.6943 0 0 .72888 -101.7 -234.35)"/><use xlink:href="#g" transform="matrix(.69427 0 0 .72885 -101.7 -234.35)"/><use xlink:href="#h" transform="matrix(.69427 0 0 .72885 -101.7 -234.35)"/><use xlink:href="#i" transform="matrix(.69427 0 0 .72885 -101.7 -234.35)"/><use xlink:href="#j" transform="matrix(.69427 0 0 .72885 -101.7 -234.35)"/><use xlink:href="#k" transform="matrix(.69427 0 0 .72885 -101.7 -234.35)"/><use xlink:href="#l" transform="matrix(.69427 0 0 .72885 -101.7 -234.35)"/></svg>