<svg xmlns="http://www.w3.org/2000/svg" xmlns:xlink="http://www.w3.org/1999/xlink" preserveAspectRatio="none" width="200" height="105"><defs><path fill="#0067AC" d="M398.5 417.5v-48h-216v48h216z" id="a"/><path fill="#EE333E" d="M182.5 417.5v48h216v-48h-216z" id="b"/><path fill="#FFF" d="M398.5 369.5v-48h-216v48H237q-.65 11.7-.65 14.8 0 11.8 2.3 18.1 3.9 10.55 10.85 17.7 7.3 7.5 18.4 11.65 11.1-4.15 18.4-11.65 7-7.15 10.85-17.7 2.3-6.3 2.3-18.1 0-4.4-.65-14.8h99.7z" id="c"/><path fill="#EE333E" d="M239.75 357.5q-.8 17.4-.85 18.35-.45 11.35-.2 16.5.45 8.35 5.3 17 7.75 13.7 23.9 20.25 16.15-6.55 23.9-20.25 4.95-8.75 5.3-17 .25-5.2-.15-16.5-.15-3.2-.85-18.35h-56.35z" id="d"/><path fill="#FFF" d="M267.9 360.55q-3.25 0-4.1-.2.6 1.95 1.05 5.1.4 3.15.4 5.8-2 .55-6.35-.15-3.9-.6-5.8-1.45.65 6.45-.35 9 4.45-1.7 12.5-1.7v7.4q-3.2.4-8.65-.3-4.6-.6-6.85-1.3.4 1.85.45 4.65.05 2.55-.25 4.15 2.4-1.05 7.15-1.55 3.9-.45 8.15-.45v11.8q1.4-.6 2.65-.6 1.35 0 2.65.6v-11.8q4.3 0 8.2.45 4.75.5 7.15 1.55-.3-1.55-.25-4.15 0-2.75.45-4.65-2.25.7-6.85 1.3-5.45.7-8.7.3v-7.4q8 0 12.55 1.7-1.05-2.5-.4-9-1.9.85-5.75 1.45-4.4.7-6.4.15 0-2.65.45-5.8.4-3.15 1-5.1-.85.2-4.1.2z" id="e"/><path fill="#0067AC" d="M288.1 406.85q-2-1.65-4.5-1.65-2.25 0-4.15 1.5-1.05.8-2.5 2.6-1.25-3.75-3.7-6.1-2.5-2.4-5.35-2.4-2.8 0-5.3 2.4-2.45 2.35-3.7 6.1-1.45-1.8-2.5-2.6-1.9-1.5-4.2-1.5-2.45 0-4.45 1.65-1.85 1.55-2.85 4.05 7.9 12.6 23 18.7 15.2-6.1 23-18.7-1-2.5-2.8-4.05z" id="f"/></defs><use xlink:href="#a" transform="matrix(.92589 0 0 .72917 -168.95 -234.45)"/><use xlink:href="#b" transform="matrix(.92589 0 0 .72917 -168.95 -234.45)"/><use xlink:href="#c" transform="matrix(.92589 0 0 .72917 -168.95 -234.45)"/><use xlink:href="#d" transform="matrix(.92589 0 0 .72917 -168.95 -234.45)"/><use xlink:href="#e" transform="matrix(.92589 0 0 .72917 -168.95 -234.45)"/><use xlink:href="#f" transform="matrix(.92589 0 0 .72917 -168.95 -234.45)"/></svg>