<svg xmlns="http://www.w3.org/2000/svg" xmlns:xlink="http://www.w3.org/1999/xlink" preserveAspectRatio="none" width="200" height="105"><defs><path fill="#FFE25C" d="M326.45 321.5h-72v144h72v-144z" id="a"/><path fill="#EE333E" d="M398.5 321.5h-72.05v144h72.05v-144z" id="b"/><path fill="#00AE6D" d="M254.45 321.5H182.5v144h71.95v-144z" id="c"/><path fill="#00AE6D" d="M295.75 386.4l-5.25-16.2-5.2 16.1h-17.1l13.85 10.05-5.3 16.15 13.75-10.05 13.7 10.05-5.25-16.25 13.8-9.85h-17z" id="d"/></defs><use xlink:href="#a" transform="matrix(.92589 0 0 .72917 -168.95 -234.45)"/><use xlink:href="#b" transform="matrix(.92589 0 0 .72917 -168.95 -234.45)"/><use xlink:href="#c" transform="matrix(.92589 0 0 .72917 -168.95 -234.45)"/><use xlink:href="#d" transform="matrix(.92589 0 0 .72917 -168.95 -234.45)"/></svg>