<svg xmlns="http://www.w3.org/2000/svg" xmlns:xlink="http://www.w3.org/1999/xlink" preserveAspectRatio="none" width="200" height="105"><defs><path fill="#00A05F" d="M182.5 321.5v144h216v-144h-216z" id="a"/><path fill="#FFF" d="M182.5 350.35v86.4h216v-86.4h-216z" id="b"/><path fill="#E1474A" d="M398.5 422.35v-57.6h-216v57.6h216z" id="c"/><path fill="#FFD051" d="M297.25 387.05l-6.75-20.85-6.7 20.75h-21.95l17.8 12.95-6.85 20.7 17.7-12.85 17.65 12.85-6.8-20.9 17.75-12.65h-21.85z" id="d"/></defs><use xlink:href="#a" transform="matrix(.92589 0 0 .72917 -168.95 -234.45)"/><use xlink:href="#b" transform="matrix(.92589 0 0 .72917 -168.95 -234.45)"/><use xlink:href="#c" transform="matrix(.92589 0 0 .72917 -168.95 -234.45)"/><use xlink:href="#d" transform="matrix(.92589 0 0 .72917 -168.95 -234.45)"/></svg>