<svg xmlns="http://www.w3.org/2000/svg" xmlns:xlink="http://www.w3.org/1999/xlink" preserveAspectRatio="none" width="200" height="105"><defs><g id="a"><path fill="#D21034" d="M25 25L14.3 14.3 0 0v50l14.3-14.3L25 25z"/><path fill="#12AD2B" d="M100 50V35.7H14.3L0 50h100m0-35.7V0H0l14.3 14.3H100z"/><path fill="#FFCE00" d="M100 35.7V14.3H14.3L25 25 14.3 35.7H100M72.65 22.8l1.6-4.95 1.6 4.95h5.2l-4.2 3.05 1.6 4.95-4.15-3.05-4.25 3.05 1.6-4.95-4.2-3.05h5.2m-30.2 0h5.2l1.6-4.95 1.6 4.95h5.2l-4.2 3.05 1.6 4.95-4.15-3.05-4.25 3.05 1.6-4.95-4.2-3.05z"/><path d="M47.65 22.8h-5.2l4.2 3.05-1.6 4.95 4.25-3.05 4.15 3.05-1.6-4.95 4.2-3.05h-5.2l-1.6-4.95-1.6 4.95m26.6-4.95l-1.6 4.95h-5.2l4.2 3.05-1.6 4.95 4.25-3.05 4.15 3.05-1.6-4.95 4.2-3.05h-5.2l-1.6-4.95z"/></g></defs><use xlink:href="#a" transform="scale(2 2.1)"/></svg>