<svg xmlns="http://www.w3.org/2000/svg" xmlns:xlink="http://www.w3.org/1999/xlink" preserveAspectRatio="none" width="200" height="105"><defs><path fill="#FFF" d="M182.5 369.5v48h216v-48h-216z" id="a"/><path fill="#E1474A" d="M398.5 369.5v-48h-216v48h216z" id="b"/><path fill="#373535" d="M182.5 417.5v48h216v-48h-216z" id="c"/><g id="d"><path fill="#373535" d="M254.5 375.7l-4.5 13.85h-14.7l11.95 8.65-4.6 13.85 11.85-8.6 11.8 8.6-4.55-13.95 11.9-8.5H259l-4.5-13.9m-4.3 14.1l4.3-13.3 4.3 13.35h14.05l-11.4 8.15v.1l4.35 13.3-11.3-8.25-11.35 8.25 4.35-13.2.05-.1-11.5-8.3h14.15z"/><path fill="#00AE6D" d="M254.5 376.5l-4.3 13.3h-14.15l11.5 8.3-.05.1-4.35 13.2 11.35-8.25 11.3 8.25-4.35-13.3v-.1l11.4-8.15H258.8l-4.3-13.35z"/></g><g id="e"><path fill="#373535" d="M331.1 389.6l-4.5-13.9-4.5 13.85h-14.7l11.95 8.65-4.6 13.85 11.85-8.6 11.75 8.6-4.45-13.95 11.85-8.5H331.1m-4.5-13.1l4.3 13.35h14.05L333.6 398v.1l4.3 13.3-11.3-8.25-11.35 8.25 4.35-13.2.05-.1-11.5-8.3h14.15l4.3-13.3z"/><path fill="#00AE6D" d="M330.9 389.85l-4.3-13.35-4.3 13.3h-14.15l11.5 8.3-.05.1-4.35 13.2 11.35-8.25 11.3 8.25-4.3-13.3v-.1l11.35-8.15H330.9z"/></g></defs><use xlink:href="#a" transform="matrix(.92589 0 0 .72917 -168.95 -234.45)"/><use xlink:href="#b" transform="matrix(.92589 0 0 .72917 -168.95 -234.45)"/><use xlink:href="#c" transform="matrix(.92589 0 0 .72917 -168.95 -234.45)"/><use xlink:href="#d" transform="matrix(.92586 0 0 .72917 -168.95 -234.45)"/><use xlink:href="#e" transform="matrix(.92586 0 0 .72917 -168.95 -234.45)"/></svg>