<svg xmlns="http://www.w3.org/2000/svg" xmlns:xlink="http://www.w3.org/1999/xlink" preserveAspectRatio="none" width="200" height="105"><defs><path fill="#5694CE" d="M182.5 321.5v144h216v-144h-216z" id="a"/><path fill="#FFD051" d="M182.5 348.5v90h216v-90h-216z" id="b"/><path fill="#B8355D" d="M182.5 357.5v72h216v-72h-216z" id="c"/><g id="d"><path fill="#FFF" d="M260.05 398.4v-.5h-2.35v8.95h2.35v-8.45m5 0v-.5h-2.35v8.95h2.35v-8.45m4.95 0v-.5h-2.3v8.95h2.3v-8.45m5 0v-.5h-2.3v8.95h2.3v-8.45m5 0v-.5h-2.3v8.95h2.3v-8.45m5 0v-.5h-2.35v8.95H285v-8.45m31.3 8.45H314v-8.45h-2.65v8.45H309v-8.45h-2.65v8.45H304v-8.45h-2.65v8.45H299v-8.45h-2.65v8.45h-2.3v-8.45h-.85q-1.15 1.25-1.15 2.75 0 2.05-.45 3.2-.45 1.2-1.5 1.85-2.55 1.6-2.55 2.95 0 .8.3 1.35.4.6 1.35 1.3 1.15.8 1.25 1.85.1 1.1-1.3 1.15-2.7.1-4 1.05-1.4 1.05.2 2.3.95.75 5.05 3 3.8 2.45 4.65 4.9 9-1.2 17.75-6.15 9.7-5.55 18.35-15.25 3.8-4.3 5.45-6.25h-15.3v8.45H319v-8.45h-2.7v8.45m-4.95-19.15H314v-4.8h-2.65v4.8m-2.35-4.8h-2.65v4.8H309v-4.8m10 0h-2.7v4.8h2.7v-4.8m-17.65 0v4.8H304v-4.8h-2.65m-8 3.85q.05.5.2.95h.5v-4.8h-.65q-.25 2.5-.05 3.85m5.65-3.85h-2.65v4.8H299v-4.8m-7.8-22.1q-2.6 2.1-3.6 3.65-1.6 2.4-.3 4.5l1.25 2q.55 1.05.55 2.7 0 2.5.9 2.5t.9 1.25q0 1.2 1.3 1.2.75 0 1.05.35.3.35.35 1.1h35.35q-7.65-8-16.15-12.8-10.6-6.05-21.6-6.45M280 389.25v-.4q-1.4-.5-2.3-1.1v1.5h2.3m-7.25-5.15q.05.35-.05.85v4.3h2.3v-2.35l-.7-.7q-1.35-1.25-1.55-2.1m-2.75-.9q-.15-.15-.25-.3-.6-.65-.7-1.2-.1.7-.3 1.2-.4.85-1.05 1.3v5.05h2.3v-6.05m13.45-2.9h-.8v1.1q.1.4.15.9.05.35.1.6.2 1.35.5 1.45-.4-.05-.75-.2v5.1H285v-8.95h-.45q.05.2.15.35-.7-.05-1.25-.35m-20.75 0V389.25h2.35v-8.95h-2.35m-2.65 2.6v-2.6h-2.35V389.25h2.35v-6.35m81.25 10.65q-1.2-1-3-2.95h-42.95q.25.2.55.4 2.7 1.65 1.4 3.75h42.75q.7-.7 1.25-1.2m-5.55-5.85l-4.2-4.8H321.3v4.8h14.45z"/><path fill="#373535" d="M285 398.4v8.45h-2.35v-8.45H280v8.45h-2.3v-8.45H275v8.45h-2.3v-8.45H270v8.45h-2.3v-8.45h-2.65v8.45h-2.35v-8.45h-2.65v8.45h-2.35v-8.45h-15.3q1.7 1.95 5.5 6.25 8.6 9.7 18.3 15.25 11.45 6.5 23.3 6.5 2.8 0 5.55-.35-.85-2.45-4.65-4.9-4.1-2.25-5.05-3-1.6-1.25-.2-2.3 1.3-.95 4-1.05 1.4-.05 1.3-1.15-.1-1.05-1.25-1.85-.95-.7-1.35-1.3-.3-.55-.3-1.35 0-1.35 2.55-2.95 1.05-.65 1.5-1.85.45-1.15.45-3.2 0-1.5 1.15-2.75H285m9.05-.5v8.95h2.3v-8.95h-2.3m4.95 0v8.95h2.35v-8.95H299m5 0v8.95h2.35v-8.95H304m5 0v8.95h2.35v-8.95H309m5 0v8.95h2.3v-8.95H314m5 0v8.95h2.3v-8.95H319m-7.65-15v-2.6H309V389.25h2.35v-6.35m-5-2.6H304V389.25h2.35v-8.95m14.95 2.6v-2.6H319V389.25h2.3v-6.35m-5 0v-2.6H314V389.25h2.3v-6.35m-22.9 0H285v4.8h8.55q-.15-.45-.2-.95-.2-1.35.05-3.85m.65-2.6V389.25h2.3v-8.95h-2.3m7.3 2.6v-2.6H299V389.25h2.35v-6.35m-25.1 4.8h1.4q-1-.65-1.3-1.5.1.6-.1 1.5m-1.25-.8v.8h.7q-.25-.35-.7-.8m-2.3-1.95q-.002.053-.05.15-.15.6-.45.8-.15-1-1.6-2.15-.35-.3-.6-.55v4.5h2.7v-2.75m-5.15-2.05h-2.5v4.8h2.65v-3.5q-.05 0-.1.05.1-.25-.05-1.35m13.6 0h-.1q.1.75-.15 2.6-.2 1.2 0 2.2h1.75v-3.55q-.9-.35-1.5-1.25m.75-3.55q.2.25.4.7h.7q-.95-.65-1.1-.7m-24.2 3.55h-10.2l-4.2 4.8h14.4v-4.8m5 0h-2.65v4.8h2.65v-4.8m13-14.1q3.55.1 5.8 1.6 1.75 1.15 2.45 2.85.75 1.8 1 2.05-1.25.4-1.7.1.65.85.85 2.65.15 1.3.4 2h9.1q-.05-.75-.35-1.1-.3-.35-1.05-.35-1.3 0-1.3-1.2 0-1.25-.9-1.25t-.9-2.5q0-1.65-.55-2.7l-1.25-2q-1.3-2.1.3-4.5 1-1.55 3.6-3.65l.05-.05h-1.75q-11.85 0-23.3 6.5-8.5 4.8-16.1 12.8h16.95q-.35-2.1-.05-3.4-1.3 1.15-1.6 1.3.2-5.35 6.65-8.95 1.15-.6 2.65-.8 1.55-.25 2.65.1-.5-.1-1.65.5m-38 24.75q.55.5 1.3 1.2h58.3q1.3-2.1-1.4-3.75-.3-.2-.55-.4H240.7q-1.85 1.95-3 2.95z"/><path fill="#FFD051" d="M280.95 382.65q.067.119.1.25h.1q-.11-.11-.2-.25m1.7-2.35h.8q-.25-.1-.45-.25h-.7q.2.55.35 1.35v-1.1m-56.2 2.25q.2.35.45.35h30.8v-2.6h2.35v2.6h2.65v-2.6h2.35v2.6h2.5q-.15-.7-.35-1.75-.1-.55-.15-1.1H226.9q-.2 0-.4.4-.25.45-.25 1.05-.05.65.2 1.05m-22.2 12.2q-.3 0-.6.5-.35.55-.35 1.35t.3 1.3q.3.5.65.5h9.35q.5-.35 1.1-.55 1.85-.65 2.75.45-.4-1.05-.2-2.3 1.75.8 2.8.05.95-.7-.85-1.3h-14.95m161 0v.05q.65 1.05 2.55 1.2 3.85.2 4.2.25 1.8.3 2.95 2.15h1.75q.35 0 .65-.5.3-.5.3-1.3-.05-.8-.35-1.35-.3-.5-.6-.5h-11.45m-2.9.5q.05-.35-.1-.5H219.9q1.25.15 2.75.7 1.7.65 2.7.35 1.45-.45 3.25.15 2.05.6 2.75 2.2.05.1.15.25H257.7v-.5h2.35v.5h2.65v-.5h2.35v.5h2.65v-.5h2.3v.5h2.7v-.5h2.3v.5h2.7v-.5h2.3v.5h2.65v-.5H285v.5H294.05v-.5h2.3v.5H299v-.5h2.35v.5H304v-.5h2.35v.5H309v-.5h2.35v.5H314v-.5h2.3v.5h2.7v-.5h2.3v.5H357.95l.3-.3q1.45-1.25 3-1.85 1.05-.4 1.1-1m-16.65-6.05q0-.6-.25-1.1-.25-.4-.45-.4h-23.7v1.55H319v-1.55h-2.7v1.55H314v-1.55h-2.65v1.55H309v-1.55h-2.65v1.55H304v-1.55h-2.65v1.55H299v-1.55h-2.65v1.55h-2.3v-1.55H285v1.55h-2.35v-1.55h-1.75q.2.9.75 1.65-.9-.25-1.65-.5v.4h-2.3v-1.5q-.05 0-.05-.05h-1.4l-.2.6q-.1-.25-.35-.6h-.7v1.55h-2.3v-1.55H270v1.55h-2.3v-1.55h-2.65v1.55h-2.35v-1.55h-2.65v1.55h-2.35v-1.55h-38.15q-.2 0-.4.4-.25.45-.3 1.1 0 .6.25 1 .2.4.45.4H345q.3 0 .5-.4t.2-1m7.1-8.75q-.25-.4-.45-.4H284.5q0 .15.05.25h.45v2.6h9.05v-2.6h2.3v2.6H299v-2.6h2.35v2.6H304v-2.6h2.35v2.6H309v-2.6h2.35v2.6H314v-2.6h2.3v2.6h2.7v-2.6h2.3v2.6h31.05q.7 0 .7-1.4 0-.6-.25-1.05z"/><path fill="#5694CE" d="M281.5 370.4q-2.25-1.5-5.8-1.6 1.15-.6 1.65-.5-1.1-.35-2.65-.1-1.5.2-2.65.8-6.45 3.6-6.65 8.95.3-.15 1.6-1.3-.3 1.3.05 3.4.05.55.15 1.1.2 1.05.35 1.75.15 1.1.05 1.35.05-.05.1-.05.65-.45 1.05-1.3.2-.5.3-1.2.1.55.7 1.2.1.15.25.3.25.25.6.55 1.45 1.15 1.6 2.15.3-.2.45-.8.048-.097.05-.15.1-.5.05-.85.2.85 1.55 2.1l.7.7q.45.45.7.8.25.35.35.6l.2-.6q.2-.9.1-1.5.3.85 1.3 1.5 0 .05.05.05.9.6 2.3 1.1.75.25 1.65.5-.55-.75-.75-1.65-.2-1 0-2.2.25-1.85.15-2.6-.033-.131-.1-.25.09.14.2.25.6.9 1.5 1.25.35.15.75.2-.3-.1-.5-1.45-.05-.25-.1-.6-.05-.5-.15-.9-.15-.8-.35-1.35-.2-.45-.4-.7.15.05 1.1.7.2.15.45.25.55.3 1.25.35-.1-.15-.15-.35-.05-.1-.05-.25-.25-.7-.4-2-.2-1.8-.85-2.65.45.3 1.7-.1-.25-.25-1-2.05-.7-1.7-2.45-2.85m-4.4 2.05q-2 .1-3.2-1.15.55-.45 2.55.05 2.35.6 3.4.35-1.25.7-2.75.75m.85 4.65q-1.25-1.05-1.05-2.2.95.4 1.8 1.6.85 1.3 1.45 1.6-1.15-.15-2.2-1m-.65 5q-.8-1.3-.65-2.05 1.25-.35 1.6 1.6.3 1.8-.25 2.8.15-1.05-.7-2.35m-7.9-6.7q-.05-1.8 1.05-2.45 1.1.75.45 2.6-.65 1.75-1.75 2.15.3-.35.25-2.3m3.15 4.8q-.7-1.65-.25-2.55 1.3.2 1.4 2 .15 1.65-.7 3 .25-.7-.45-2.45m-49.9 15.25q-1.5-.55-2.75-.7-.45-.05-.85-.05.097.048.15.05 1.8.6.85 1.3-1.05.75-2.8-.05-.2 1.25.2 2.3-.9-1.1-2.75-.45-.6.2-1.1.55-1.25.85-2.15 2.55-1.55 3.05-1.1 6 .45 3.1.4 3.25 1-.35 1.3-1.3-.2.75.5 2.3.9 1.95.95 2.4.85-1.45.85-2.65.1 1.1 1.3 2.3 1.3 1.3 1.6 2.15.2-.4.25-1.35.048-.775-.1-1.35.466 1.666 1.9 3.15 1.6 1.65 3.55 2.1-.35-.25-.6-.95-.2-.8-.3-1.05.35.8 1.9 1 1.4.25 1.4.55 1.1-.7 1.4-2.35.3-1.7.6-1.95-.15.25.05.9t.45.9q.1-.85 1.55-3.15 1.3-2.05 1.15-2.95.25.6 1.55 1.5-.35-1.6.35-4.15.6-2.25 0-3.65.85.4 2.3.2-.3-1.2-1.5-2.35-1.2-1.1-1.65-2.05-.1-.15-.15-.25-.7-1.6-2.75-2.2-1.8-.6-3.25-.15-1 .3-2.7-.35m2.95 5.35q-2.95-1-2.6-2.15 1.5-.1 3.8 1.25 2.4 1.45 3.3 1.5-1.7.35-4.5-.6m.25 4q-2.15-1.4-1.15-2.55.3.7 2 1.65 1.55.9 1.95 2.35-1.7-.75-2.8-1.45m-.65 8.6q-.4-1.65.55-3.25.85-1.5.6-2.25 1.35.45.6 2.15-.45 1.05-1.75 3.35m-11.85-7.3q.3-.35.8-2.9.4-1.95 2-2.15.85.95-.25 2.85-1.1 1.75-2.55 2.2m6.7-1.4q-.45 1.8-1.35 2.65.25-.5.15-2.5-.05-1.95.4-2.7 1.25.45.8 2.55m-.8 4.9q1.3.25 2.15 2.05.8 1.85.15 3.25.05-.8-1.2-2.5-1.2-1.7-1.1-2.8m143-14.85q.15.15.1.5-.05.6-1.1 1-1.55.6-3 1.85l-.3.3q-1.4 1.35-1.5 2.45-1.9 1.85-2 4.05-.05 2.95-.2 3.25 1.3-.55 1.95-1.9-.6 2.65.85 5.15 1.6 2.75 1.55 3.4.2-.45 1-1.35.8-.8.85-1.2.5 2.2 2.3 3.7 1.75 1.5 2 2.55.05-.1.8-1.15.6-.85.65-1.35.5.65.5 2.2 1.25-1.55 1.4-2.45.35.65.25 1.55.9-.5 1.45-2.4.7-2.15 1-2.5 0 1.35.6 2.4.05-.45 1.15-2.7.9-1.9.65-3.1.8.8.95 2.45.45-.8.45-2.8-.05-2.1.15-2.65.4 1.4 1.2 2.05-.25-.25-.3-2.3-.1-2.2-.75-3.35.35.15.95.6.6.5.8.85-.5-3.55-1.7-5.45-1.15-1.85-2.95-2.15-.35-.05-4.2-.25-1.9-.15-2.55-1.2v-.05q-.85-1.45-1.7-1.65-1-.25-1.6 1.55.2 0 .3.1m4.45 3.4q1.1-.2 2.45 1 1.5 1.3 2.5 1.35-1.85.2-3.4-.45-1.75-.7-1.55-1.9m1.6 7.3q-1.4-1.95-.2-3.15 1.25.5 1.85 2.65.6 2.25 1.4 2.75-1.7-.45-3.05-2.25m-.9 8.5q.1-.45-.8-2.4-.85-1.7.05-3.2 1.65 2.05.75 5.6M360.9 399q.65 1.05-.95 2.85-1.55 1.75-2.95 1.95.5-.25 1.8-2.7 1.15-2.2 2.1-2.1m-1.1 7.75q.95-.25 2.05-2.95 1-2.55 1.95-2.65.75 1-.9 3.2t-3.1 2.4m2.2 4.45q.5-.55.7-2.8.2-2 1-2.4.85.65 0 2.6-.7 1.65-1.7 2.6z"/><path fill="#B8355D" d="M272.3 377.65q-.45.9.25 2.55.7 1.75.45 2.45.85-1.35.7-3-.1-1.8-1.4-2m-1.85-4.7q-1.1.65-1.05 2.45.05 1.95-.25 2.3 1.1-.4 1.75-2.15.65-1.85-.45-2.6m6.2 7.1q-.15.75.65 2.05.85 1.3.7 2.35.55-1 .25-2.8-.35-1.95-1.6-1.6m.25-5.15q-.2 1.15 1.05 2.2 1.05.85 2.2 1-.6-.3-1.45-1.6-.85-1.2-1.8-1.6m-3-3.6q1.2 1.25 3.2 1.15 1.5-.05 2.75-.75-1.05.25-3.4-.35-2-.5-2.55-.05m-52.5 40.35q-.85-1.8-2.15-2.05-.1 1.1 1.1 2.8 1.25 1.7 1.2 2.5.65-1.4-.15-3.25m-2.7-4.3q.9-.85 1.35-2.65.45-2.1-.8-2.55-.45.75-.4 2.7.1 2-.15 2.5m-4.55-4.15q-.5 2.55-.8 2.9 1.45-.45 2.55-2.2 1.1-1.9.25-2.85-1.6.2-2 2.15m11.6 6.95q-.95 1.6-.55 3.25 1.3-2.3 1.75-3.35.75-1.7-.6-2.15.25.75-.6 2.25m-1.05-7.9q-1 1.15 1.15 2.55 1.1.7 2.8 1.45-.4-1.45-1.95-2.35-1.7-.95-2-1.65m-1.7-3.6q-.35 1.15 2.6 2.15 2.8.95 4.5.6-.9-.05-3.3-1.5-2.3-1.35-3.8-1.25m139.7 9.75q-.2 2.25-.7 2.8 1-.95 1.7-2.6.85-1.95 0-2.6-.8.4-1 2.4m-.85-4.6q-1.1 2.7-2.05 2.95 1.45-.2 3.1-2.4 1.65-2.2.9-3.2-.95.1-1.95 2.65m-1.9-1.95q1.6-1.8.95-2.85-.95-.1-2.1 2.1-1.3 2.45-1.8 2.7 1.4-.2 2.95-1.95m6.65 9.7q.9 1.95.8 2.4.9-3.55-.75-5.6-.9 1.5-.05 3.2m1.5-9.25q-1.2 1.2.2 3.15 1.35 1.8 3.05 2.25-.8-.5-1.4-2.75-.6-2.15-1.85-2.65m1.05-3.15q-1.35-1.2-2.45-1-.2 1.2 1.55 1.9 1.55.65 3.4.45-1-.05-2.5-1.35z"/><path fill="#D6DED9" d="M345.45 388.1q.25.5.25 1.1 0 .6-.2 1t-.5.4l5.55 2.65 8.45-4.1-8.45-4.1-5.55 2.65q.2 0 .45.4m6.9-8.05q.2 0 .45.4.25.45.25 1.05 0 1.4-.7 1.4l5.55 2.65 8.45-4.05-8.45-4.1-5.55 2.65z"/></g></defs><use xlink:href="#a" transform="matrix(.92589 0 0 .72917 -168.95 -234.45)"/><use xlink:href="#b" transform="matrix(.92589 0 0 .72917 -168.95 -234.45)"/><use xlink:href="#c" transform="matrix(.92589 0 0 .72917 -168.95 -234.45)"/><use xlink:href="#d" transform="matrix(.92589 0 0 .72917 -168.95 -234.45)"/></svg>