<svg xmlns="http://www.w3.org/2000/svg" xmlns:xlink="http://www.w3.org/1999/xlink" preserveAspectRatio="none" width="200" height="105"><defs><path fill="#21467B" d="M146.45 465.5H434.5V321.55H146.45V465.5z" id="a"/><g id="c"><path fill="#373535" d="M212.9 336.55v6.65q0 9.4 8.5 13.5 8.5-4.1 8.5-13.5v-2.85l.15-.05-.15-.05v-3.7h-17m9.45 2.8h.1q.21.029.6.1-.026.117-.05.2-.388-.173-.7-.3h.05m-.3 2.05q.162-.085.3-.15.213-.019.6-.05l.05.25q-.69.038-1.1.15.087-.13.15-.2m5.85-3.55q.15-.152.3-.25-.092.175-.3.45l-.55.7q-.047-.02-.1-.05.243-.296.65-.85m.7 1.5q-.334.137-.75.3l-.05-.15q.39-.121.6-.15h.2m-3.75-1.85q.088.078.15.15h-.05q.121.281.25 1.1-.09-.05-.25-.1-.013-.749-.1-1.15m-.25.55q-.005.207-.05.45-.063-.008-.2 0 .086-.209.25-.45m-1.65-.15q.185.175.65.8-.055.035-.1.05l-.6-.7q-.165-.243-.25-.45l.3.3m1 2.3q-.002-.03 0-.15l.4.4-.05.1-.35-.35m.55-.7q.001-.064-.05-.15.156.037.25.1v.3l-.05.05v-.05l-.15-.25m-.05.4v.05l.05.05q-.015.093-.05.15l-.35-.5q.039-.111.1-.15l.25.4m.15.2v-.05q.058.051.1.1.06-.016.05-.05v-.05q-.065-.034-.05-.1.116-.187.25-.3v-.05l.05.05q.19-.15.45-.15.252 0 .45.15.138.102.25.25v.05q.046.046-.1.1v.05l.05.05q.095-.042.1-.1l.05.05q.06.12.1.25.02.098-.1.15v.1q.101-.033.15-.1.035.157.05.3 0 .113-.1.2v.05q.078-.01.1-.05.03.12 0 .25-.01.073-.05.1-.18.23-.85.25h-.25q-.66-.018-.85-.25-.04-.027-.05-.1h-.05q.02-.14 0-.3.08.077.15.1v-.1q-.1-.047-.1-.15.016-.143.05-.3.05.068.1.1l.05-.1q-.122-.05-.1-.15.04-.13.1-.25m1.25-2.45q.055-.07.1-.15-.041.409-.1 1.15-.103.064-.25.15.177-.864.25-1.15m.6.85q-.087-.008-.2 0 .005-.243 0-.45.164.241.2.45m-.25 1q.073.002.1 0-.01.145-.1.3.014.027 0 .05-.014-.036-.05-.1l.05-.25m-.8-.4v-.05l.05.05-.05.05q.02-.029 0-.05m.95.95l.05-.1q.052.001.05-.05l.2-.4q.07.05.1.15l-.35.45q-.023-.01-.05-.05m.5.05v.1l-.35.35v-.1l.35-.35m.05.65v.2l-.3.2-.05-.2.35-.2m-.15.55l.25-.15v.05l-.25.1m.1.25v.15l-.35.2.05-.2.3-.15m-1.4.1h.1q.586-.015.8-.15.086-.038.1-.1.007.087 0 .15-.013.072-.05.15 0 .07-.15.15-.027.02-.1.05-.214.086-.6.1-.035.043-.1.05-.065-.006-.15-.05-.382-.013-.6-.1-.073-.03-.15-.05-.1-.08-.1-.15h-.05q.013-.078 0-.15-.008-.065-.05-.15.056.054.1.05.25.185.85.2h.15m.8.3q.086-.023.15-.1-.024.155-.05.3-.025.075-.1.1l-.1.05q-.165.15-.6.2-.035-.004-.1 0-.065-.004-.15 0-.427-.049-.65-.2l-.05-.05q-.052-.004-.1-.05-.018-.179-.05-.35.066.078.15.1.027.038.05.05.262.087.65.1h.25q.393-.014.65-.1.023-.012.05-.05m.05.4q.101-.063.1-.15l.55-.3q.027.067 0 .1-.062 1.514-.05 2.55-.242-.226-.8-.5.05-.042.05-.2h-.05q-.02.058-.05.1-.02.07-.05.1-.125.084-.45.1h-.25q-.322-.015-.45-.1-.047-.047-.05-.2h-.1q0 .158.05.2-.559.274-.8.5.012-1.037-.1-2.55v-.05l.6.25q.045.095.1.15.198.181.75.2h.25q.55-.02.75-.2m-2.05-1.4v.15l-.35-.2.05-.15.3.2m-1.35-.6v.15q-.637-.13-1.05-.2.356-.077 1.05.05m1.05.9l-.15-.05v-.05l.15.1m0 .45v-.15l.35.15v.15l-.35-.15m.1 3.1q.165-.175.55-.4-.31.42-.4.7-.08.067-.15-.05-.12-.113 0-.25m.9-.45q-.15-.1-.15-.15v-.1q.056.056.15.1.148.04.35.05h.25q.213-.012.3-.05.141-.041.2-.1v.1q0 .05-.15.15-.2.1-.45.1-.3 0-.5-.1m0 .15h.05q-.331.61-.3.95-.081.043-.15 0-.137-.03-.1-.2v-.05q.08-.275.5-.7m2.95-4v-.15q.743-.126 1.05-.05l-1.05.2m-.05.7q.437.032.65.05.137.065.25.15.113.07.2.2-.41-.11-1.1-.15v-.25m-5.6-3.85q.017.171.45.85l.7.85q-.07.11-.15.25l-.05-.05q-.424-.109-.7-.15-.075-.033-.4 0h-.05q-.09.029-.4.05l-.45.1v.05l.45.1q.564.177 1.4.55l.05.05q-.02.055-.05.1-1.03-.19-1.4-.05l-.85.25.45.1q.222.074 1.75.35h.05q.005.121 0 .2-.526.026-.8.05-.163.085-.35.2-.204.163-.4.55l-.1.3.3-.15q.383-.179 1.4-.2v.05q.471 3.342.25 4.55-.043.508 0 .55.1.06.2 0 .023-.01.05-.05v-.1q.065-.054.1-.25v.05q.171-.372.2-1.2.139.104.25.1.049.225.3.3.144.078.3 0 .09.128.25.15.278.065.4-.1.044.007.05-.05v.05q.153.158.35.1.199-.02.3-.15.145.083.3 0 .243-.073.25-.3.162.009.25-.1.08.828.2 1.2v-.05q.085.196.1.25l.05.1q.027.04.05.05.1.06.15 0 .093-.042 0-.55-.171-1.208.25-4.55v-.05q1.067.021 1.45.2l.3.15-.15-.3q-.146-.387-.4-.55-.138-.115-.3-.2h-.05q-.224-.024-.75-.05-.005-.079 0-.2 1.577-.276 1.75-.35l.25-.05v2.85q0 9.35-8.4 13.4-8.45-4.05-8.4-13.4v-6.55h16.8v3.55l-.6-.15q-.37-.14-1.45.05.017-.041 0-.1l.05-.05q.886-.373 1.35-.55l.5-.15v-.05l-.5-.05h-.05l-.35-.05q-.325-.033-.45 0-.225.041-.7.15l-.05.05q-.031-.143-.1-.25l.65-.85q.487-.679.45-.85v-.2l-.15.05q-.366.138-.7.5-.5.674-.75.95-.09.013-.2 0v-.05q-.02-.464-.5-.95l-.05-.05q.069-.22.1-.35l.1-.3-.25.15q-.334.156-.5.4l-.05.05q-.058.255-.2.9-.092-.645-.2-.9v-.05q-.162-.257-.55-.45l-.35-.15.2.35q.07.135.1.35v.05q-.48.486-.55.95v.05q-.067.024-.15.05v-.05q-.553-.742-.75-.95-.376-.373-.7-.5l-.2-.05v.2m-.75 6.65v-.05l-.15.05q-.858.018-1.15.65-.3.513-.3 1.85-.068.036-.1.1-.15.15-.05.3v.1q-.05.1-.1.15-.15 0-.2.25 0 .15-.15.2-.15.05-.1.3 0 .15-.15.25-.1.05-.1.25t-.15.3q-.2.1-.15.35.05.2-.05.25-.15.1-.1.35v.05q0 .15-.1.25-.15.05-.05.3.05.2-.05.3-.15.1-.15.35.05.25-.05.3-.15.1-.05.35.05.2-.05.3-.15.15-.05.35 0 .25-.05.35-.1.2.1.6.15.4.55.35.15.25.6.4.4.2.65.15.25.2.7.25.55.05.9-.2.3.25.85.2.45-.05.75-.25.2.05.6-.15.45-.15.6-.4.4.05.6-.35.15-.4.1-.6h-.05q-.05-.1 0-.35.05-.2-.05-.35-.1-.1-.05-.3.05-.25-.05-.35-.15-.05-.1-.3.05-.25-.1-.35-.1-.1-.05-.3.05-.25-.1-.3-.1-.1-.1-.25v-.05q.05-.25-.1-.35-.1-.05-.05-.25.1-.25-.15-.35-.1-.1-.1-.3 0-.2-.15-.25-.1-.1-.1-.25-.05-.25-.15-.3-.1-.05-.15-.2-.05-.25-.15-.25-.1-.05-.1-.15-.01-.039-.05-.1h.05q.05-.15-.05-.3-.04-.054-.1-.1-.043-1.336-.3-1.85-.33-.611-1.1-.65m.25.45q0 .05.05.1.05.1.1.15h-.05q-.05-.1-.1-.1-.1-.05-.15 0-.05.05.25.75.05.1.05.15l-.1-.1q-.05-.1-.1-.15-.05 0-.05.05-.05 0-.05.05 0 .1.15.25.137.229.15 1.1-.218.05-.5.05-.5 0-.8-.1-.05-.05-.1-.05 0-.05.05-.15.05-.1.05-.25-.05-.1-.1-.1t-.1.05v-.05q.05-.25.15-.35.15-.2.05-.3 0-.1-.1-.05-.05 0-.1.05 0-.05.05-.05 0-.2.1-.25.05-.15.1-.25 0-.1-.05-.1 0-.05-.1 0l-.05.05q0-.05.05-.15.05-.2.3-.4t.55-.2h.05q.8-.05 1.1.6.258.515.3 1.8-.071.003-.15 0-.02-.976-.15-1.45-.15-.5-.5-.65-.2-.1-.2-.05h-.05q-.05 0 0 .1m1.05 2.15q.065-.002.1.05l.05.05q.035.08 0 .15l-.05.05q-.077.08-.25.15h-.05q.012-.208-.1-.4l-.2.15q.078.142.05.3-.07.055-.2.05.08-.159-.05-.35.166-.03.25-.1.065.018.1 0 .025-.014.05-.05.082-.022.15-.05.089-.015.15 0m.1.45q.028-.02.05-.05.05.15.15.2.1.05.1.2v.05q.05.2.2.25.1.05.1.2 0 .25.15.3.1.05.1.2-.05.25.2.35.1.05.1.3-.1.25.05.35.1.05.1.25-.05.3.1.35.1.05.05.2v.05q-.05.25.1.35.1.1.05.3-.05.25.15.35.05.1 0 .25v.05q-.1.2.05.4.1.05.05.25-.05.25.05.4.05.15-.1.5-.121.284-.4.3.03-.321-.1-.45h-.05v-.15q.03-.209-.1-.35-.051-.058-.05-.2.03-.321-.1-.45-.12-.112-.15-.3.09-.319-.05-.45-.07-.066-.1-.2.03-.321-.1-.45-.051-.058-.05-.2.03-.266-.1-.4-.07-.071-.1-.25.03-.266-.1-.4-.051-.058-.05-.2.03-.266-.1-.4-.067-.075-.1-.2.09-.253-.05-.4-.022-.102-.05-.25.025-.188-.1-.4h-.05q-.024-.02-.05-.05.025-.041 0-.1.062.013.1 0 .115-.046.2-.1m-.1 1.65v.05q.063.06.05.15v.05q-.043.265.1.4.07.066.05.2.02.32.15.45.063.06.05.15v.05q-.043.265.1.4.07.07.05.25.02.266.15.4.054.063 0 .2v.05q.02.312.2.5.064.066.05.2v.05q-.043.265.1.4.06.05.05.1v.05q-.043.29.15.35H224q.07.07.05.25h.15l-.05.05q-.15.2-.55.4-.274.091-.45.1.064-.16-.2-.5-.007-.027 0-.1v-.05q.099-.259-.05-.4-.07-.071-.1-.25.078-.233 0-.35-.029-.078-.05-.25.09-.319-.05-.45-.006-.07 0-.2.099-.259-.05-.4-.059-.063-.05-.15v-.05q.096-.314-.05-.45-.02-.029-.05-.15.078-.233 0-.35v-.05q-.059-.063-.05-.15v-.05q.085-.232-.05-.45-.054-.063-.05-.25.085-.232-.05-.45v.05q-.028-.072-.05-.2.078-.233 0-.35-.019-.077 0-.25.02-.18-.05-.3v-.05q-.02-.016-.05-.05v-.05q.125.018.2 0 .024.144.15.2.075.138.05.25.022.228.05.4l.05.05q.051.058 0 .15v.05q.025.188.15.35m-.05 4.9q.16.218.15.25l.05.05v.05q-.25.2-.7.25-.55.05-.85-.2h.1q.08-.191 0-.4.052-.024.05-.05.07-.063.1-.3v.05q.14-.292.05-.55-.027-.063-.05-.1l.05-.05q.077-.117 0-.55-.017-.325 0-.45v-.05q.026-.108-.05-.5-.024-.23.05-.4.09-.128-.05-.5-.047-.208-.05-.35.14-.11.05-.5-.02-.17 0-.25v.05q.149-.141.05-.45l-.05-.15v-.05q.095-.152-.05-.4v.05q-.007-.092-.05-.15.002-.116-.05-.3.025-.16 0-.3.227-.007.4-.05.024.17.1.25v-.05q.028.072 0 .15v.05q-.028.233.05.35.018.077-.05.2v.05q.03.18.1.3.065.132 0 .25-.046.364.1.5v-.05q.06.123 0 .25-.041.213.1.4.013.095-.05.2v.05q.02.28.1.35.05.058 0 .2-.041.213.1.4v.05q.051.058 0 .15-.032.277.05.4v.05q.054.063 0 .2v.05q.03.235.1.35.018.077-.05.2v.05q.02.32.15.45.046.052 0 .15-.035.21.05.35m-.85-6.8q.05.02.1 0h.05l-.15.1q.059.113 0 .2v.1q-.23.05-.5.05h-.05q-.235-.001-.5-.05h-.05v-.1q-.009-.087.05-.2l-.15-.1h.05q.27.05.65.05.282 0 .5-.05m-1.3 0q-.08.19-.05.35-.053.014-.15 0v-.05h-.05q.032-.144.15-.25l-.15-.15q.12.07.25.1m.15.85q.003-.062.05-.1.075-.079.05-.25.216.044.4.05.025.15 0 .35.069.295 0 .45v.05q-.073.213-.05.4v.05q.107.18.1.25h-.05q-.036.182 0 .4.065.23 0 .35-.034.177 0 .5.065.232 0 .4-.09.292-.05.5v.05q.105.19.05.3-.03.298 0 .6v.05q.106.22.05.3-.14.229 0 .5.072.15 0 .3-.031.056-.05.1-.024.061-.05.1v.05q.032.109.05.25.064.162 0 .3l.1.05q-.3.25-.8.2-.45-.05-.75-.25l.05-.1v-.05q.044-.039.1-.15.22-.053.2-.35.057-.107.05-.2.075-.07.05-.3.022-.204.05-.25h.05q.099-.074 0-.45-.02-.17 0-.25v.05q.188-.195.1-.45v-.05q.025-.065.05-.1l.05-.05q.083-.174 0-.4v-.05q.025-.091 0-.2.142-.117.05-.4-.012-.101 0-.2.125-.162.1-.35v-.25q.129-.158.05-.4v-.05q.025-.103 0-.2.123-.136.1-.4.028-.268-.1-.4.07-.106 0-.3m-.2-.4q.034.062.05.1-.153.162-.1.4.046.098 0 .15-.015.021-.05.05v.05q.033.025.05.05.012.052.05.05v.05q.07.052.05.2.027.203-.05.3l-.05.05v.05q.025.05 0 .25.065.168 0 .25-.095.071-.05.4.017.125-.05.2v.05q-.082.123-.05.35.051.142 0 .2l-.05.05v.05q.025.1 0 .3.059.162 0 .25v.1q-.051.058-.05.15.089.33 0 .4v.05q-.036.073-.05.2.036.082.05.15.014.192-.1.3V352.6q.078.227-.05.4v.05q-.026.024-.05.05-.046.052-.05.15.041.056.05.1.01.116-.05.2.02-.039 0-.1h-.05q.003-.022-.05-.05-.059.032-.1.05-.149.204-.2.3-.004.136 0 .2-.12.005-.4-.1-.45-.2-.6-.4v-.05h.05q.03-.18.1-.25v-.05h.05v-.05q.11-.075.2-.25.07-.141.1-.25.144-.039.15-.15.036-.092-.05-.25v.05-.05q.068-.063.1-.4.064-.253.1-.35v.05q.13-.125.1-.5.03-.18.1-.25.068-.063.1-.4.022-.204.05-.25.172-.054.15-.4.02-.178.05-.3.122-.048.1-.35.03-.18.1-.25v-.05q.07-.115.05-.35.02-.165.05-.25v.05q.095-.071 0-.4v-.05q.023-.087 0-.15.015-.018.05-.05.065-.061.1-.25.1.014.15 0m-.75-.55l.05-.05q.018-.027.05-.05.107-.06.35.05-.118.198-.15.4-.126-.05-.2-.1-.06-.04-.1-.1-.033-.066 0-.15m0 .3v-.05q.087.129.3.2.033.042.05.05-.028.075-.05.1-.187.198-.2.4v.1q.027.126 0 .2v-.05q-.149.141-.1.4v.05q.04.073-.05.15v.05q-.07.115-.1.35.02.134-.05.2-.13.134-.15.4.054.182-.05.25-.143.135-.1.4.02.134-.05.2-.13.129-.15.45.051.142 0 .2-.188.127-.15.45.022.199-.05.3-.186.14-.15.45.029.172 0 .25v-.05q-.13.141-.15.35.02.076 0 .1-.03.042-.05.1l-.05.05.05-.1q-.13.129-.15.45-.228-.016-.35-.3-.15-.35-.05-.5h-.05q.1-.15.05-.4-.05-.2.05-.25.15-.2.05-.4v-.05q-.05-.15.05-.25.15-.05.1-.35 0-.2.1-.3.15-.1.05-.35-.05-.2.05-.25.15-.05.15-.35-.05-.2.05-.25.15-.1.1-.35-.05-.25.1-.3.15-.1.15-.35 0-.15.1-.2.15-.05.15-.3 0-.15.1-.2.15-.05.2-.25v-.05q0-.15.1-.2.15-.05.15-.2m-1.8-9.2h-.05q-.4.45-.45.5-.2.3-.15.7.022.204 0 .35-.127-.05-.3-.05.05-.55-.55-.75-.25-.1-.35-.3-.05-.3-.4-.4-.2-.05-.45-.35-.1-.15-.15-.1-.05.05-.1.2 0 .05-.15.3-.05.1 0 .15v.1q-.2.2-.1.45-.1.1-.1.2-.05.1.1.15.1 0 .15.05h-.05q-.05.05 0 .2 0 .1.2.2v.15q-.05.05-.2.15-.15.1-.25.1-.4 0-.4.2-.05.15-.2.25l-.1.05.1.05q.3.05.45-.1.15-.15.3 0 .1.1.3.1-.3.25-.3.5-.1.35-.3.45-.35.15-.45.45v.05q.1.3.35.5.1.1.4.25.75.3 1 .6.1.05.25.15.2.05.35.25.05.1.45.75.25.45.45.55.25.1.5 0 .242-.08.35-.3.138-.02.25-.1.3.05.45-.1.2-.1.2-.4-.05-.25 0-.35h.05q.05-.15.25-.2.2-.1.35-.2.05-.1.2-.3.15-.3.15-.35.05-.15 0-.25-.2-.35-.05-.7.05-.2-.05-.35-.1-.15-.1-.25h-.05q-.1-.2-.05-.45.05-.3-.2-.5-.2-.1-.15-.3 0-.2-.3-.45-.25-.2-.25-.5 0-.2-.3-.55-.3-.35-.55-.45m0 .1q.2.1.5.4.25.3.3.5 0 .35.25.55.25.25.25.35-.05.3.2.45.2.1.15.4 0 .25.1.5.05.05.1.25.05.1.05.25-.15.4.05.75.04.081.05.2-.05.05-.2.35-.1.2-.2.3-.1.1-.3.15-.25.1-.3.25-.05.1-.05.4 0 .25-.15.35-.15.1-.4.05.21-.208.3-.6.05-.5-.05-1-.15-.5-.2-.8-.1-.55.05-.85.15-.45-.05-1.1-.2-.55-.15-.65.15-.35.15-.55-.05-.15-.15-.15-.15 0-.15.15 0 .2-.15.35-.2.2 0 .75.1.4.1.55.05.4-.15.75-.2.45-.2.7 0 .2.15.45.2.55.3 1.2.135.72-.1.9-.104.022-.2-.05-.2-.2-.25-.6-.15-.65-.2-.75V343q-.15-.45-.55-.75-.45-.3-.35-.75.05-.45.45-.7.48-.28.45-1.3.002-.007 0-.05v-.05q-.02-.18-.05-.4 0-.35.2-.65.05-.05.4-.45m.05 1.35q.15-.2.2-.4v-.05q0-.05.05-.05t.05.05q0 .2-.15.5-.05.1.15.75.2.6.05 1-.15.35 0 .9 0 .3.15.8.1.5.05 1-.1.45-.3.6.1-.25 0-.85-.1-.65-.3-1.15-.15-.25-.15-.45 0-.25.2-.65.15-.4.15-.8 0-.15-.15-.55v-.05q-.15-.45 0-.6m-3.05-1.3q.1-.25.15-.35l.05-.1.05.05q.25.3.5.4.3.05.35.3.05.25.35.4h.05q.5.15.45.65-.36.019-.5.3l.05.05q.14-.278.45-.3h.05q.235 0 .35.1.048 1.006-.4 1.25-.4.3-.5.8-.1.5.4.85.35.3.5.7.05.1.2.8.1.45.3.6h-.05q.072.072.15.1v.05l.05-.05q.066.027.1 0-.131.166-.3.2-.25.1-.45 0-.2-.05-.45-.5-.4-.65-.45-.75-.2-.2-.35-.3-.15-.05-.25-.15v.05q-.25-.3-1-.65-.3-.15-.4-.25-.2-.15-.3-.45.05-.25.35-.35.3-.1.35-.5.05-.3.4-.55l.15-.1q.054-.043.15-.1.25-.1.3-.2l-.05-.05q-.05.05-.25.2-.3.1-.35.15-.2.05-.35-.1-.2-.15-.4.05-.1.05-.25.05.1-.1.1-.2.05-.15.35-.15.15 0 .35-.15.15-.1.2-.1h.35q.2 0 .25-.05l-.1-.05q0 .05-.15.05-.085-.014-.15-.05h-.2v-.15q.3 0 .4-.25h-.1q-.05.15-.3.15-.2-.05-.2-.15-.05-.05 0-.1h.1q.22-.015.4-.15l-.05-.05q-.15.1-.4.1v.05q-.003-.1-.2-.15l-.1-.05.15-.15q.001-.05.15-.05.15 0 .25-.05l-.05-.05q-.05.05-.2.05h-.2q-.025-.22.2-.4.15.006.15.05h.1q0-.122-.2-.15h-.1q-.05-.05 0-.1m1.25 3.15q-.2.05-.35.25 0 .05-.15.35-.05.1-.15.1-.1.05-.15.1-.05.1-.25.1-.1 0-.2.15-.05.1-.15.1l-.05.05q.2.05.3-.1.05-.1.1-.1.3-.05.35-.15 0-.05.1-.05.1-.05.2-.2h-.05q.15-.25.15-.3.1-.15.3-.2v-.1m-.65-3q.1 0 .15.1.05.2.1.2.1.05.1.2 0 .2.15.25.1 0 .1.05v.15q-.05.15.05.3.05.05.05.1l.05.05q.05-.1-.05-.2-.05-.1 0-.2v-.25q-.05-.05-.2-.1-.05 0-.05-.15t-.15-.25q0-.05-.05-.2v.05q-.05-.15-.25-.2v.1m9.25 5.55q-.079-.079-.1-.2v-.05l-.1.05q.042.127.1.2l.05.05q.13.087.5.1.084.043.15.05.066-.007.1-.05.372-.015.5-.1l.05-.05q.06-.082.1-.2l-.1-.05q0 .15-.1.25-.125.084-.45.1h-.25q-.322-.015-.45-.1m.7-.3h-.25q-.55-.028-.6-.3-.005-.025 0-.05h-.1q0 .154.1.25.202.148.6.2.085-.004.15 0 .065-.004.1 0 .431-.053.6-.2.132-.103.15-.25h-.1q-.045.317-.65.35m.7-.75q-.09.272-.7.35-.035-.005-.1 0-.065-.004-.15 0-.62-.071-.7-.35h-.1q.019.149.15.25.208.133.65.15h.25q.506-.02.7-.2.084-.074.1-.2h-.1m-.7-1.4v-.1h-.25v.1h.25m0-.55q-.036.043-.1.05-.064-.006-.15-.05v.15h.25v-.15m.3-.45l.1.05q.024-.016.05-.05v-.1q-.045.065-.15.1m-.3.05h-.25v.05h.25v-.05m-.7-.05q.041.019.1 0-.06-.036-.15-.1l.05.1m-.25-.7l.05.05-.05-.05z"/><path fill="#FFE132" d="M222.7 338.2q-.433-.679-.45-.85v-.2l.2.05q.324.127.7.5.197.208.75.95v.05q.083-.026.15-.05v-.05q.07-.464.55-.95v-.05q-.03-.215-.1-.35l-.2-.35.35.15q.388.193.55.45v.05q.108.255.2.9.142-.645.2-.9l.05-.05q.166-.244.5-.4l.25-.15-.1.3q-.031.13-.1.35l.05.05q.48.486.5.95v.05q.11.013.2 0 .25-.276.75-.95.334-.362.7-.5l.15-.05v.2q.037.171-.45.85l-.65.85q.069.107.1.25l.05-.05q.475-.109.7-.15.125-.033.45 0l.35.05h.05l.5.05v.05l-.5.15q-.464.177-1.35.55l-.05.05q.017.059 0 .1 1.08-.19 1.45-.05l.6.15v-3.55H213v6.55q-.05 9.35 8.4 13.4 8.4-4.05 8.4-13.4v-2.85l-.25.05q-.173.074-1.75.35-.005.121 0 .2.526.026.75.05h.05q.162.085.3.2.254.163.4.55l.15.3-.3-.15q-.383-.179-1.45-.2v.05q-.421 3.342-.25 4.55.093.508 0 .55-.05.06-.15 0-.023-.01-.05-.05l-.05-.1q-.015-.054-.1-.25v.05q-.12-.372-.2-1.2-.088.109-.25.1-.007.227-.25.3-.155.083-.3 0-.101.13-.3.15-.197.058-.35-.1v-.05q-.006.057-.05.05-.122.165-.4.1-.16-.022-.25-.15-.156.078-.3 0-.251-.075-.3-.3-.111.004-.25-.1-.029.828-.2 1.2v-.05q-.035.196-.1.25v.1q-.027.04-.05.05-.1.06-.2 0-.043-.042 0-.55.221-1.208-.25-4.55v-.05q-1.017.021-1.4.2l-.3.15.1-.3q.196-.387.4-.55.187-.115.35-.2.274-.024.8-.05.005-.079 0-.2H223q-1.528-.276-1.75-.35l-.45-.1.85-.25q.37-.14 1.4.05.03-.045.05-.1l-.05-.05q-.836-.373-1.4-.55l-.45-.1v-.05l.45-.1q.31-.021.4-.05h.05q.325-.033.4 0 .276.041.7.15l.05.05q.08-.14.15-.25l-.7-.85m-4.75-.4h.05q.25.1.55.45.3.35.3.55 0 .3.25.5.3.25.3.45-.05.2.15.3.25.2.2.5-.05.25.05.45h.05q0 .1.1.25t.05.35q-.15.35.05.7.05.1 0 .25 0 .05-.15.35-.15.2-.2.3-.15.1-.35.2-.2.05-.25.2h-.05q-.05.1 0 .35 0 .3-.2.4-.15.15-.45.1-.112.08-.25.1-.108.22-.35.3-.25.1-.5 0-.2-.1-.45-.55-.4-.65-.45-.75-.15-.2-.35-.25-.15-.1-.25-.15-.25-.3-1-.6-.3-.15-.4-.25-.25-.2-.35-.5v-.05q.1-.3.45-.45.2-.1.3-.45 0-.25.3-.5-.2 0-.3-.1-.15-.15-.3 0t-.45.1l-.1-.05.1-.05q.15-.1.2-.25 0-.2.4-.2.1 0 .25-.1t.2-.15v-.15q-.2-.1-.2-.2-.05-.15 0-.2h.05q-.05-.05-.15-.05-.15-.05-.1-.15 0-.1.1-.2-.1-.25.1-.45v-.1q-.05-.05 0-.15.15-.25.15-.3.05-.15.1-.2.05-.05.15.1.25.3.45.35.35.1.4.4.1.2.35.3.6.2.55.75.173 0 .3.05.022-.146 0-.35-.05-.4.15-.7.05-.05.45-.5m3.55 6.15v.05q.77.039 1.1.65.257.514.3 1.85.06.046.1.1.1.15.05.3H223q.04.061.05.1 0 .1.1.15.1 0 .15.25.05.15.15.2.1.05.15.3 0 .15.1.25.15.05.15.25t.1.3q.25.1.15.35-.05.2.05.25.15.1.1.35v.05q0 .15.1.25.15.05.1.3-.05.2.05.3.15.1.1.35-.05.25.1.3.1.1.05.35-.05.2.05.3.1.15.05.35-.05.25 0 .35h.05q.05.2-.1.6-.2.4-.6.35-.15.25-.6.4-.4.2-.6.15-.3.2-.75.25-.55.05-.85-.2-.35.25-.9.2-.45-.05-.7-.25-.25.05-.65-.15-.45-.15-.6-.4-.4.05-.55-.35-.2-.4-.1-.6.05-.1.05-.35-.1-.2.05-.35.1-.1.05-.3-.1-.25.05-.35.1-.05.05-.3 0-.25.15-.35.1-.1.05-.3-.1-.25.05-.3.1-.1.1-.25v-.05q-.05-.25.1-.35.1-.05.05-.25-.05-.25.15-.35.15-.1.15-.3 0-.2.1-.25.15-.1.15-.25-.05-.25.1-.3.15-.05.15-.2.05-.25.2-.25.05-.05.1-.15v-.1q-.1-.15.05-.3.032-.064.1-.1 0-1.337.3-1.85.292-.632 1.15-.65l.15-.05m-.95 4.2q.029.064.05.15.05.15-.05.25-.1.15-.05.35.05.25-.05.35-.1.15-.05.35.05.15-.05.3-.05.1-.05.3.05.2 0 .25-.1.1-.05.35.05.15-.05.3-.1.1-.05.3.05.25 0 .3-.1.1-.05.35.05.2-.05.3-.05.05 0 .3.05.2-.1.35-.1.1-.05.3.022.067 0 .1.053.028.05.05h.05q.037-.02.05-.1-.009-.044-.05-.1.004-.098.05-.15.024-.026.05-.05V353q.05-.07.05-.2v-.35q.114-.108.1-.3-.014-.068-.05-.15.014-.127.05-.2v-.05q.089-.07 0-.4-.001-.092.05-.15v-.1q.059-.088 0-.25.025-.2 0-.3v-.05l.05-.05q.051-.058 0-.2-.032-.227.05-.35v-.05q.067-.075.05-.2-.045-.329.05-.4.065-.082 0-.25.025-.2 0-.25v-.05l.05-.05q.077-.097.05-.3.02-.148-.05-.2m3.25-6.95l.15.05-.15-.1v.05m.05.75v.05q.112 1.513.1 2.55.241-.226.8-.5-.05-.042-.05-.2h.1q-.018-.083-.05-.2-.058-.073-.1-.2l.1-.05q-.015-.071-.05-.15-.1-.096-.1-.25h.1q-.03-.079-.05-.15-.131-.101-.15-.25h.1q-.024-.13-.05-.25-.055-.055-.1-.15l-.6-.25m2.4.65h.1q-.016.126-.1.2-.024.107-.05.2h.1q-.018.147-.15.25-.014.084-.05.15l.1.05q-.04.118-.1.2-.025.164-.05.3.03-.042.05-.1h.05q0 .158-.05.2.558.274.8.5-.012-1.036.05-2.55.027-.033 0-.1l-.55.3q.001.087-.1.15 0 .121-.05.25m.75-1.45l-.25.15.25-.1v-.05m-1.6-2.1v.05q.02.021 0 .05l.05-.05-.05-.05m-.1 2.15v-.1q-.43-.006-.65-.05-.079-.031-.15-.1v.1q.052.034.1.05.223.09.7.1m0-.4v-.15q-.388-.013-.65-.1-.025-.013-.05-.05l-.05.1.1.05q.22.132.65.15m1.05.2l-.1.05q-.262.044-.7.05v.1q.485-.012.75-.1l.05-.05V341m-.1-.4v-.1l-.05.05q-.257.086-.65.1v.15q.432-.02.65-.15.04-.02.05-.05m-.2-.55l-.05.05v.1q.052-.014.1-.05l-.05-.05v-.05m-.2.15q-.103.037-.3.05v.05q.243-.01.4-.05l-.1-.05m-.9 0q.15.084.35.1v-.05q-.179-.011-.35-.05m-.15-.1l-.05-.05v.05q.01.034-.05.05h.05q.046.035.1.05l-.05-.1z"/><path fill="#009776" d="M219.8 346.95v.05q0 .15-.15.2-.1.05-.1.2v.05q-.05.2-.2.25-.1.05-.1.2 0 .25-.15.3-.1.05-.1.2 0 .25-.15.35-.15.05-.1.3.05.25-.1.35-.1.05-.05.25 0 .3-.15.35-.1.05-.05.25.1.25-.05.35-.1.1-.1.3.05.3-.1.35-.1.1-.05.25v.05q.1.2-.05.4-.1.05-.05.25.05.25-.05.4h.05q-.1.15.05.5.122.284.35.3.02-.321.15-.45l-.05.1.05-.05q.02-.058.05-.1.02-.024 0-.1.02-.209.15-.35v.05q.029-.078 0-.25-.036-.31.15-.45.072-.101.05-.3-.038-.323.15-.45.051-.058 0-.2.02-.321.15-.45.07-.066.05-.2-.043-.265.1-.4.104-.068.05-.25.02-.266.15-.4.07-.066.05-.2.03-.235.1-.35v-.05q.09-.077.05-.15v-.05q-.049-.259.1-.4v.05q.027-.074 0-.2v-.1q.013-.202.2-.4.022-.025.05-.1-.017-.008-.05-.05-.213-.071-.3-.2m.2 6.5q.02.061 0 .1.06-.084.05-.2-.013.08-.05.1m.15-.85v-.05.25q0 .13-.05.2.128-.173.05-.4m.45-5.25q-.016-.038-.05-.1-.05.014-.15 0-.035.189-.1.25-.035.032-.05.05.023.063 0 .15v.05q.095.329 0 .4v-.05q-.03.085-.05.25.02.235-.05.35v.05q-.07.07-.1.25.022.302-.1.35-.03.122-.05.3.022.346-.15.4-.028.046-.05.25-.032.337-.1.4-.07.07-.1.25.03.375-.1.5v-.05q-.036.097-.1.35-.032.337-.1.4v.05-.05q.086.158.05.25-.006.111-.15.15-.03.109-.1.25-.09.175-.2.25v.05h-.05v.05q-.07.07-.1.25h-.05v.05q.15.2.6.4.28.105.4.1-.004-.064 0-.2.051-.096.2-.3.041-.018.1-.05.022-.033 0-.1-.05-.2.05-.3.15-.15.1-.35-.05-.25 0-.3.1-.1.05-.3-.05-.25.05-.35.05-.05 0-.3-.05-.2.05-.3.1-.15.05-.3-.05-.25.05-.35.05-.05 0-.25 0-.2.05-.3.1-.15.05-.3-.05-.2.05-.35.1-.1.05-.35-.05-.2.05-.35.1-.1.05-.25-.021-.086-.05-.15v-.05q-.038.002-.05-.05-.017-.025-.05-.05v-.05q.035-.029.05-.05.046-.052 0-.15-.053-.238.1-.4m.2.2q-.047.038-.05.1.07.194 0 .3.128.132.1.4.023.264-.1.4.025.097 0 .2v.05q.079.242-.05.4v.25q.025.188-.1.35-.012.099 0 .2.092.283-.05.4.025.109 0 .2v.05q.083.226 0 .4l-.05.05q-.025.035-.05.1v.05q.088.255-.1.45v-.05q-.02.08 0 .25.099.376 0 .45h-.05q-.028.046-.05.25.025.23-.05.3.007.093-.05.2.02.297-.2.35-.056.111-.1.15v.05l-.05.1q.3.2.75.25.5.05.8-.2l-.1-.05q.064-.138 0-.3-.018-.141-.05-.25v-.05q.026-.039.05-.1.019-.044.05-.1.072-.15 0-.3-.14-.271 0-.5.056-.08-.05-.3V352q-.03-.302 0-.6.055-.11-.05-.3v-.05q-.04-.208.05-.5.065-.168 0-.4-.034-.323 0-.5.065-.12 0-.35-.036-.218 0-.4h.05q.007-.07-.1-.25v-.05q-.023-.187.05-.4v-.05q.069-.155 0-.45.025-.2 0-.35-.184-.006-.4-.05.025.171-.05.25m1.95 6.05q-.085-.14-.05-.35.046-.098 0-.15-.13-.13-.15-.45v-.05q.068-.123.05-.2-.07-.115-.1-.35V352q.054-.137 0-.2v-.05q-.082-.123-.05-.4.051-.092 0-.15v-.05q-.141-.187-.1-.4.05-.142 0-.2-.08-.07-.1-.35v-.05q.063-.105.05-.2-.141-.187-.1-.4.06-.127 0-.25v.05q-.146-.136-.1-.5.065-.118 0-.25-.07-.12-.1-.3v-.05q.068-.123.05-.2-.078-.117-.05-.35v-.05q.028-.078 0-.15v.05q-.076-.08-.1-.25-.173.043-.4.05.025.14 0 .3.052.184.05.3.043.058.05.15v-.05q.145.248.05.4v.05l.05.15q.099.309-.05.45v-.05q-.02.08 0 .25.09.39-.05.5.003.142.05.35.14.372.05.5-.074.17-.05.4.076.392.05.5v.05q-.017.125 0 .45.077.433 0 .55l-.05.05q.023.037.05.1.09.258-.05.55v-.05q-.03.237-.1.3.002.026-.05.05.08.209 0 .4h-.1q.3.25.85.2.45-.05.7-.25v-.05l-.05-.05q.01-.032-.15-.25m.05-4.85v-.05q-.125-.162-.15-.35v-.05q.051-.092 0-.15l-.05-.05q-.028-.172-.05-.4.025-.112-.05-.25-.126-.056-.15-.2-.075.018-.2 0v.05q.03.034.05.05v.05q.07.12.05.3-.019.173 0 .25.078.117 0 .35.022.128.05.2v-.05q.135.218.05.45-.004.187.05.25.135.218.05.45v.05q-.009.087.05.15v.05q.078.117 0 .35.03.121.05.15.146.136.05.45v.05q-.009.087.05.15.149.141.05.4-.006.13 0 .2.14.131.05.45.021.172.05.25.078.117 0 .35.03.179.1.25.149.141.05.4v.05q-.007.073 0 .1.264.34.2.5.176-.009.45-.1.4-.2.55-.4l.05-.05h-.15q.02-.18-.05-.25h.05q-.193-.06-.15-.35v-.05q.01-.05-.05-.1-.143-.135-.1-.4v-.05q.014-.134-.05-.2-.18-.188-.2-.5v-.05q.054-.137 0-.2-.13-.134-.15-.4.02-.18-.05-.25-.143-.135-.1-.4v-.05q.013-.09-.05-.15-.13-.13-.15-.45.02-.134-.05-.2-.143-.135-.1-.4v-.05q.013-.09-.05-.15m.15-1.75q-.022.03-.05.05-.085.054-.2.1-.038.013-.1 0 .025.059 0 .1.026.03.05.05h.05q.125.212.1.4.028.148.05.25.14.147.05.4.033.125.1.2.13.134.1.4-.001.142.05.2.13.134.1.4.03.179.1.25.13.134.1.4-.001.142.05.2.13.129.1.45.03.134.1.2.14.131.05.45.03.188.15.3.13.129.1.45-.001.142.05.2.13.141.1.35v.15h.05q.13.129.1.45.279-.016.4-.3.15-.35.1-.5-.1-.15-.05-.4.05-.2-.05-.25-.15-.2-.05-.4v-.05q.05-.15 0-.25-.2-.1-.15-.35.05-.2-.05-.3-.15-.1-.1-.35v-.05q.05-.15-.05-.2-.15-.05-.1-.35 0-.2-.1-.25-.15-.1-.05-.35 0-.25-.1-.3-.25-.1-.2-.35 0-.15-.1-.2-.15-.05-.15-.3 0-.15-.1-.2-.15-.05-.2-.25v-.05q0-.15-.1-.2-.1-.05-.15-.2z"/><path fill="#E1474A" d="M219.8 346.7q-.033.084 0 .15.04.06.1.1.074.05.2.1.032-.202.15-.4-.243-.11-.35-.05-.032.023-.05.05l-.05.05m.8.1q-.13-.03-.25-.1l.15.15q-.118.106-.15.25h.05v.05q.097.014.15 0-.03-.16.05-.35m1.4 0q-.05.02-.1 0-.218.05-.5.05-.38 0-.65-.05h-.05l.15.1q-.059.113-.05.2v.1h.05q.265.049.5.05h.05q.27 0 .5-.05v-.1q.059-.087 0-.2l.15-.1H222m.5-.15q-.025.036-.05.05-.035.018-.1 0-.084.07-.25.1.13.191.05.35.13.005.2-.05.028-.158-.05-.3l.2-.15m.4 0q-.035-.052-.1-.05-.061-.015-.15 0-.068.028-.15.05.112.192.1.4h.05q.173-.07.25-.15l.05-.05q.035-.07 0-.15l-.05-.05m-1.1-2.1q-.05-.05-.05-.1-.05-.1 0-.1h.05q0-.05.2.05.35.15.5.65.13.474.15 1.45.079.003.15 0-.042-1.285-.3-1.8-.3-.65-1.1-.6h-.05q-.3 0-.55.2-.25.2-.3.4-.05.1-.05.15l.05-.05q.1-.05.1 0 .05 0 .05.1-.05.1-.1.25-.1.05-.1.25-.05 0-.05.05.05-.05.1-.05.1-.05.1.05.1.1-.05.3-.1.1-.15.35v.05q.05-.05.1-.05t.1.1q0 .15-.05.25t-.05.15q.05 0 .1.05.3.1.8.1.282 0 .5-.05-.013-.871-.15-1.1-.15-.15-.15-.25 0-.05.05-.05 0-.05.05-.05.05.05.1.15l.1.1q0-.05-.05-.15-.3-.7-.25-.75.05-.05.15 0 .05 0 .1.1h.05q-.05-.05-.1-.15z"/><path fill="#FAAD5C" d="M215.15 337.6q-.05.1-.15.35-.05.05 0 .1h.1q.2.028.2.15h-.1q0-.044-.15-.05-.225.18-.2.4h.2q.15 0 .2-.05l.05.05q-.1.05-.25.05-.149 0-.15.05l-.15.15.1.05q.197.05.2.15v-.05q.25 0 .4-.1l.05.05q-.18.135-.4.15h-.1q-.05.05 0 .1 0 .1.2.15.25 0 .3-.15h.1q-.1.25-.4.25v.15h.2q.065.036.15.05.15 0 .15-.05l.1.05q-.05.05-.25.05h-.35q-.05 0-.2.1-.2.15-.35.15-.3 0-.35.15 0 .1-.1.2.15 0 .25-.05.2-.2.4-.05.15.15.35.1.05-.05.35-.15.2-.15.25-.2l.05.05q-.05.1-.3.2-.096.057-.15.1l-.15.1q-.35.25-.4.55-.05.4-.35.5-.3.1-.35.35.1.3.3.45.1.1.4.25.75.35 1 .65v-.05q.1.1.25.15.15.1.35.3.05.1.45.75.25.45.45.5.2.1.45 0 .169-.034.3-.2-.034.027-.1 0l-.05.05v-.05q-.078-.028-.15-.1h.05q-.2-.15-.3-.6-.15-.7-.2-.8-.15-.4-.5-.7-.5-.35-.4-.85.1-.5.5-.8.448-.244.4-1.25-.115-.1-.35-.1h-.05q-.31.022-.45.3l-.05-.05q.14-.281.5-.3.05-.5-.45-.65h-.05q-.3-.15-.35-.4-.05-.25-.35-.3-.25-.1-.5-.4l-.05-.05-.05.1m.6.6q-.05-.1-.15-.1v-.1q.2.05.25.2v-.05q.05.15.05.2.15.1.15.25t.05.15q.15.05.2.1v.25q-.05.1 0 .2.1.1.05.2l-.05-.05q0-.05-.05-.1-.1-.15-.05-.3v-.15q0-.05-.1-.05-.15-.05-.15-.25 0-.15-.1-.2-.05 0-.1-.2m.15 3.15q.15-.2.35-.25v.1q-.2.05-.3.2 0 .05-.15.3h.05q-.1.15-.2.2-.1 0-.1.05-.05.1-.35.15-.05 0-.1.1-.1.15-.3.1l.05-.05q.1 0 .15-.1.1-.15.2-.15.2 0 .25-.1.05-.05.15-.1.1 0 .15-.1.15-.3.15-.35m2.6-3.05q-.3-.3-.5-.4-.35.4-.4.45-.2.3-.2.65.03.22.05.4v.05q.002.043 0 .05.03 1.02-.45 1.3-.4.25-.45.7-.1.45.35.75.4.3.55.75v.05q.05.1.2.75.05.4.25.6.096.072.2.05.235-.18.1-.9-.1-.65-.3-1.2-.15-.25-.15-.45 0-.25.2-.7.2-.35.15-.75 0-.15-.1-.55-.2-.55 0-.75.15-.15.15-.35 0-.15.15-.15.1 0 .15.15 0 .2-.15.55-.05.1.15.65.2.65.05 1.1-.15.3-.05.85.05.3.2.8.1.5.05 1-.09.392-.3.6.25.05.4-.05.15-.1.15-.35 0-.3.05-.4.05-.15.3-.25.2-.05.3-.15.1-.1.2-.3.15-.3.2-.35-.01-.119-.05-.2-.2-.35-.05-.75 0-.15-.05-.25-.05-.2-.1-.25-.1-.25-.1-.5.05-.3-.15-.4-.25-.15-.2-.45 0-.1-.25-.35-.25-.2-.25-.55-.05-.2-.3-.5z"/><path fill="#F7B2BE" d="M218.25 338.85q-.05.2-.2.4-.15.15 0 .6v.05q.15.4.15.55 0 .4-.15.8-.2.4-.2.65 0 .2.15.45.2.5.3 1.15.1.6 0 .85.2-.15.3-.6.05-.5-.05-1-.15-.5-.15-.8-.15-.55 0-.9.15-.4-.05-1-.2-.65-.15-.75.15-.3.15-.5 0-.05-.05-.05t-.05.05v.05z"/><path fill="#21467B" d="M228.5 341.25q-.213-.018-.65-.05v.25q.69.04 1.1.15-.087-.13-.2-.2-.113-.085-.25-.15m-.6-.9v.15l1.05-.2q-.307-.076-1.05.05m-2.9 4.15h-.05q-.42.425-.5.7v.05q-.037.17.1.2.069.043.15 0-.031-.34.3-.95m-.2-.3q0 .05.15.15.2.1.5.1.25 0 .45-.1.15-.1.15-.15v-.1q-.059.059-.2.1-.087.038-.3.05h-.25q-.202-.01-.35-.05-.094-.044-.15-.1v.1m-.2.2q-.385.225-.55.4-.12.137 0 .25.07.117.15.05.09-.28.4-.7m-.65-2.85v.15l.35.15v-.15l-.35-.15m-1.05-1.05v-.15q-.694-.127-1.05-.05.413.07 1.05.2m1.35.6v-.15l-.3-.2-.05.15.35.2m.5 2.55q.032.117.05.2.003.153.05.2.128.085.45.1h.25q.325-.016.45-.1.03-.03.05-.1.025-.136.05-.3l-.05.05q-.128.085-.5.1-.034.043-.1.05-.066-.007-.15-.05-.37-.013-.5-.1l-.05-.05m-.05-.4q.035.079.05.15v.05q.021.121.1.2.128.085.45.1h.25q.325-.016.45-.1.1-.1.1-.25.036-.066.05-.15-.169.147-.6.2-.035-.004-.1 0-.065-.004-.15 0-.398-.052-.6-.2m.75.1h.1q.605-.033.65-.35.026-.093.05-.2-.194.18-.7.2h-.25q-.442-.017-.65-.15.02.071.05.15-.005.025 0 .05.05.272.6.3h.15m.8-.75q.05-.129.05-.25-.2.18-.75.2h-.25q-.552-.019-.75-.2.026.12.05.25.08.279.7.35.085-.004.15 0 .065-.005.1 0 .61-.078.7-.35m.15-.75q-.064.077-.15.1-.027.038-.05.05-.257.086-.65.1h-.25q-.388-.013-.65-.1-.023-.012-.05-.05-.084-.022-.15-.1.032.171.05.35.048.046.1.05l.05.05q.223.151.65.2.085-.004.15 0 .065-.004.1 0 .435-.05.6-.2l.1-.05q.075-.025.1-.1.026-.145.05-.3m-.85-.2h-.25q-.6-.015-.85-.2-.044.004-.1-.05.042.085.05.15.013.072 0 .15h.05q0 .07.1.15.077.02.15.05.218.087.6.1.085.044.15.05.065-.007.1-.05.386-.014.6-.1.073-.03.1-.05.15-.08.15-.15.037-.078.05-.15.007-.063 0-.15-.014.062-.1.1-.214.135-.8.15m1.3.05v-.15l-.3.15-.05.2.35-.2m.05-.75v-.2l-.35.2.05.2.3-.2m-.05-.75v-.1l-.35.35v.1l.35-.35m-.45-.25l-.05.1q.027.04.05.05l.35-.45q-.03-.1-.1-.15l-.2.4q.002.051-.05.05m-.1-.45q-.027.002-.1 0l-.05.25q.036.064.05.1.014-.023 0-.05.09-.155.1-.3m-.05-1q.113-.008.2 0-.036-.209-.2-.45.005.207 0 .45m-.4-.85q-.073.286-.25 1.15.147-.086.25-.15.059-.741.1-1.15-.045.08-.1.15m.6 3.35q-.022.04-.1.05l-.05.05q-.265.088-.75.1h-.25q-.477-.01-.7-.1-.048-.016-.1-.05-.07-.023-.15-.1.02.16 0 .3h.05q.01.073.05.1.19.232.85.25h.25q.67-.02.85-.25.04-.027.05-.1.03-.13 0-.25m-.05-.5q-.049.067-.15.1-.01.03-.05.05-.218.13-.65.15h-.25q-.43-.018-.65-.15l-.1-.05q-.05-.032-.1-.1-.034.157-.05.3 0 .103.1.15.071.069.15.1.22.044.65.05h.25q.438-.006.7-.05l.1-.05q.1-.087.1-.2-.015-.143-.05-.3m-1.45-.9v.05q-.134.113-.25.3-.015.066.05.1l.05.05q.09.064.15.1.171.039.35.05h.25q.197-.013.3-.05.105-.035.15-.1l.05-.05q.146-.054.1-.1v-.05q-.112-.148-.25-.25-.198-.15-.45-.15-.26 0-.45.15l-.05-.05m-.35.45v.05q-.06.12-.1.25-.022.1.1.15.025.037.05.05.262.087.65.1.086.044.15.05.064-.007.1-.05.393-.014.65-.1l.05-.05q.12-.052.1-.15-.04-.13-.1-.25l-.05-.05q-.005.058-.1.1-.048.036-.1.05-.026.034-.05.05-.157.04-.4.05h-.25q-.2-.016-.35-.1-.059.019-.1 0-.054-.015-.1-.05h-.05q-.042-.049-.1-.1m-.15-.1v-.05l-.25-.4q-.061.039-.1.15l.35.5q.035-.057.05-.15l-.05-.05m0-.6q.051.086.05.15l.15.25v.05l.05-.05v-.3q-.094-.063-.25-.1m.15.15l.05.05-.05-.05m-.65.55q-.002.12 0 .15l.35.35.05-.1-.4-.4m-.35-1.35q-.465-.625-.65-.8l-.3-.3q.085.207.25.45l.6.7q.045-.015.1-.05m.95-.2q.045-.243.05-.45-.164.241-.25.45.137-.008.2 0m.45-.85q-.062-.072-.15-.15.087.401.1 1.15.16.05.25.1-.129-.819-.25-1.1h.05m2.85 2q.416-.163.75-.3h-.2q-.21.029-.6.15l.05.15m.35-2.05q-.15.098-.3.25-.407.554-.65.85.053.03.1.05l.55-.7q.208-.275.3-.45m-5.85 3.65q-.137.065-.3.15-.063.07-.15.2.41-.112 1.1-.15l-.05-.25q-.387.031-.6.05m.1-1.9H222.3q.312.127.7.3.024-.083.05-.2-.39-.071-.6-.1z"/></g><path fill="#FFF" d="M146.45 321.55v8.75l30.4 15.2h-30.4v24.05h30.4l-30.4 15.2v8.75h17.4l42.5-21.15v21.15h23.9v-21.15l42.5 21.15h17.5v-8.75l-30.5-15.2h30.5V345.5h-30.5l30.5-15.2v-8.75h-17.5l-42.5 21.15v-21.15h-23.9v21.15l-42.5-21.15h-17.4z" id="d"/><path fill="#E1474A" d="M290.25 393.5v-5.7l-36.3-18.3H242.4l47.85 24m-59.3-47.95h11.5l47.8-24h-11.3l-48 24m-84.5 47.95h11.5l48-24h-11.5l-48 24m0-43v14.05h65v28.95h14.05v-28.95h64.75V350.5H225.5v-28.95h-14.05v28.95h-65m0-28.95v5.7l36.5 18.3h11.6l-48.1-24z" id="e"/><path id="b" stroke="#373535" stroke-width=".25" stroke-linejoin="miter" stroke-linecap="butt" stroke-miterlimit="4" fill="none" d="M199.989 104.986V-.011H-.015v104.997H199.99z"/></defs><g transform="matrix(.69434 0 0 .7294 -101.7 -234.55)"><use xlink:href="#a"/><use xlink:href="#b" transform="matrix(1.44022 0 0 1.37099 146.45 321.55)"/></g><use xlink:href="#c" transform="matrix(2 0 0 2.1 -292.8 -675.35)"/><use xlink:href="#d" transform="matrix(.69434 0 0 .7294 -101.7 -234.55)"/><use xlink:href="#e" transform="matrix(.69434 0 0 .7294 -101.7 -234.55)"/></svg>