<svg xmlns="http://www.w3.org/2000/svg" xmlns:xlink="http://www.w3.org/1999/xlink" preserveAspectRatio="none" width="200" height="105"><defs><path fill="#00AE6D" d="M170.45 321.5v144.05H410.5V321.5H170.45z" id="a"/><path fill="#FFE25C" d="M410.5 379.1v-28.8H256.85v28.8H410.5z" id="b"/><path fill="#FFE25C" d="M170.45 407.95v28.8H410.5v-28.8H170.45z" id="c"/><path fill="#EE333E" d="M256.85 321.5h-86.4v86.45h86.4V321.5z" id="d"/><path fill="#FFF" d="M239 356.6h-19.35l-6-18.45-5.9 18.35H188.3l15.8 11.45-6.05 18.35 15.6-11.4 15.65 11.4-6-18.5 15.7-11.2z" id="e"/></defs><use xlink:href="#a" transform="matrix(.83313 0 0 .72888 -142 -234.35)"/><use xlink:href="#b" transform="matrix(.8331 0 0 .72885 -142 -234.35)"/><use xlink:href="#c" transform="matrix(.8331 0 0 .72885 -142 -234.35)"/><use xlink:href="#d" transform="matrix(.83313 0 0 .72888 -142 -234.35)"/><use xlink:href="#e" transform="matrix(.83313 0 0 .72888 -142 -234.35)"/></svg>