<svg xmlns="http://www.w3.org/2000/svg" xmlns:xlink="http://www.w3.org/1999/xlink" preserveAspectRatio="none" width="200" height="105"><defs><path fill="#EF4258" d="M434.5 362.65V321.5H146.45v41.15H434.5z" id="a"/><path fill="#69BD51" d="M146.45 424.4v41.15H434.5V424.4H146.45z" id="b"/><path fill="#FFF" d="M146.45 362.65v61.75H434.5v-61.75H146.45z" id="c"/><path fill="#F3CF34" d="M281.45 412.1q-.25-.05-.85.05-.65.1-1 .25-.15-1.15-1.55-2.8-.25.6-.5 1.6-.2 1.05-.15 1.5-.9-.15-1.85.3-.8.4.05.55.25.05 1.25.6 1.05.45 1.95.35.9-.15 1.75-.9.8-.8 1-.95.35-.15.35-.3 0-.2-.45-.25m-15.4-9.55L265 399.7l2.5-1.6h-3l-.8-2.8-.8 2.8h-3l2.55 1.6-1.1 2.85 2.35-1.9 2.35 1.9m26.35 9.9q.85-.65 1.1-.75.75-.35-.05-.6-.85-.3-1.85 0 0-.45-.4-1.45-.35-.95-.7-1.55-.4.65-.75 1.55-.4 1-.35 1.45-1.05-.3-1.9 0-.8.3 0 .6.25.1 1.1.75 1 .6 1.9.6.9 0 1.9-.6m16.45 7.6l.55-2.25q-2.85-.95-8.65-1.8-6-.9-10.25-.9t-10.25.9q-5.8.85-8.65 1.8l.5 2.25q3.15-.95 8.6-1.7 5.75-.85 9.8-.85 4.05 0 9.8.85 5.45.75 8.55 1.7m-3.5-6.5q.9-.15.05-.55-.2-.15-.8-.25-.65-.1-1-.05.05-.45-.2-1.5-.2-1-.5-1.6-.45.55-.95 1.4-.5.9-.55 1.4-.35-.15-1-.25-.6-.1-.85-.05-.45.05-.45.25 0 .15.35.3.2.15.95.95.9.75 1.8.9.9.1 1.95-.35.55-.25 1.2-.6M316 399.7l-1.05 2.85 2.35-1.9 2.35 1.9-1.1-2.85 2.55-1.6h-3.05l-.75-2.8-.8 2.8h-3.05l2.55 1.6m-2.6-15.55h-3.05l2.55 1.55-1.05 2.85 2.35-1.9 2.35 1.9-1.1-2.85 2.55-1.55h-3.05l-.75-2.85-.8 2.85m-22.9-.1q-2.7 0-4.25 1.75-1.65 1.85-1.3 4.75.85-1.05 2.25-1 1.4 0 2.05 1.1.75 1.4.7 5.1-.05 4.2-1.4 6.5-1.6 2.75-5.15 3.5-3.8.8-6.2-1.8-1.8 3.65-5.1 4.65-3.2 1-6.45-.8 1.95 4.1 6.2 3.5 4.4-.65 5.45-6.5 3.9 5.35 8.15 3.45 3.85-1.8 5.05-7.55 1.15 5.75 5.05 7.55 4.25 1.95 8.1-3.45 1.05 5.85 5.5 6.5 4.2.6 6.2-3.5-3.25 1.8-6.45.8-3.3-1-5.15-4.65-2.4 2.6-6.15 1.8-3.55-.75-5.15-3.5-1.35-2.35-1.45-6.5-.05-3.7.75-5.1.65-1.1 2.05-1.1 1.35-.05 2.2 1 .4-2.9-1.25-4.75-1.6-1.75-4.25-1.75m12.5-8.75l-1.05 2.85 2.35-1.9 2.35 1.9-1.05-2.85 2.5-1.55h-3l-.8-2.85-.8 2.85h-3l2.5 1.55m-11.7-5.4l-.8-2.85-.8 2.85h-3l2.5 1.6-1.05 2.8 2.35-1.9 2.35 1.9-1.05-2.85 2.5-1.55h-3m-25.8 15.8l-1.05 2.85 2.35-1.9 2.35 1.9-1.05-2.85 2.5-1.55h-3l-.8-2.85-.8 2.85h-3l2.5 1.55m12.45-10.4l2.55-1.55h-3.05l-.8-2.85-.75 2.85h-3.05l2.55 1.55-1.1 2.85 2.35-1.9 2.35 1.9-1.05-2.85z" id="d"/><path fill="#FFF" d="M288.55 388.75q1.65.6 1.95 1.85.25-1.25 1.9-1.85 1.65-.6 2.65.1-.7-3.75-4.55-3.75-3.85 0-4.55 3.75 1-.7 2.6-.1z" id="e"/></defs><use xlink:href="#a" transform="matrix(.69434 0 0 .72891 -101.7 -234.35)"/><use xlink:href="#b" transform="matrix(.69434 0 0 .72891 -101.7 -234.35)"/><use xlink:href="#c" transform="matrix(.69434 0 0 .72891 -101.7 -234.35)"/><use xlink:href="#d" transform="matrix(.69434 0 0 .72891 -101.7 -234.35)"/><use xlink:href="#e" transform="matrix(.69434 0 0 .72891 -101.7 -234.35)"/></svg>