<svg xmlns="http://www.w3.org/2000/svg" xmlns:xlink="http://www.w3.org/1999/xlink" preserveAspectRatio="none" width="200" height="105"><defs><g id="a"><path fill="#00247D" d="M100 50V0H0v50h100m-6.5-4l-1.35.9-74.4-.8q-.2-.15-.4-.35-.4-.4-.4-.65t.35-.6l.35-.3 73.95.65L93.5 46m-4.75-3.2q.7.25 1.85.35.9.1 3.1.15v.5l-75.4-.6q-.3 0 1.2-1 2.4-1.55 4.2-2.65 7.65-4.9 12.65-8.95 4.1-3.35 10.5-7.7 5.95-4.05 12.6-8.1 6.5-4 11.8-6.85Q76.75 5 79.4 4.1q.25-.1.05.1-.1.15-.6.5-1.15.95-1.3 1.2-2.75 3.25-3.35 8.05-.5 4.45.9 9.55 1.35 4.9 4.1 9.45 2.8 4.6 6.4 7.8 1.45 1.1 1.75 1.3.7.5 1.4.75m-58.5-26.15l-1.3-.95-1.3.95.5-1.55-1.3-.9h1.6l.5-1.5.5 1.5h1.6l-1.3.9.5 1.55m-11.2-9.4L17.5 8.4l.6-1.85-1.55-1.1h1.9l.6-1.8.6 1.8h1.9L20 6.55l.6 1.85-1.55-1.15m-11 9.8H10L8.45 18.2l.6 1.8-1.55-1.1L5.95 20l.6-1.8L5 17.05h1.95l.55-1.8.55 1.8m11 16.15l.7 2.1h2.2l-1.8 1.3.7 2.15-1.8-1.35-1.8 1.35.7-2.15-1.8-1.3h2.2l.7-2.1z"/><path fill="#FFF" d="M19.75 35.3l-.7-2.1-.7 2.1h-2.2l1.8 1.3-.7 2.15 1.8-1.35 1.8 1.35-.7-2.15 1.8-1.3h-2.2M10 17.05H8.05l-.55-1.8-.55 1.8H5l1.55 1.15-.6 1.8 1.55-1.1L9.05 20l-.6-1.8L10 17.05m7.5-8.65l1.55-1.15L20.6 8.4 20 6.55l1.55-1.1h-1.9l-.6-1.8-.6 1.8h-1.9l1.55 1.1-.6 1.85m11.45 7.3l1.3.95-.5-1.55 1.3-.9h-1.6l-.5-1.5-.5 1.5h-1.6l1.3.9-.5 1.55 1.3-.95z"/><path fill="#FED100" d="M90.6 43.15q-1.15-.1-1.85-.35-.7-.25-1.4-.75-.3-.2-1.75-1.3-3.6-3.2-6.4-7.8-2.75-4.55-4.1-9.45-1.4-5.1-.9-9.55.6-4.8 3.35-8.05.15-.25 1.3-1.2.5-.35.6-.5.2-.2-.05-.1-2.65.9-8.15 3.85-5.3 2.85-11.8 6.85-6.65 4.05-12.6 8.1-6.4 4.35-10.5 7.7-5 4.05-12.65 8.95-1.8 1.1-4.2 2.65-1.5 1-1.2 1l75.4.6v-.5q-2.2-.05-3.1-.15m1.55 3.75l1.35-.9-1.9-1.15-73.95-.65-.35.3q-.35.35-.35.6t.4.65q.2.2.4.35l74.4.8z"/></g></defs><use xlink:href="#a" transform="scale(2 2.1)"/></svg>