<svg xmlns="http://www.w3.org/2000/svg" xmlns:xlink="http://www.w3.org/1999/xlink" preserveAspectRatio="none" width="200" height="105"><defs><g id="a"><path fill="#FFC726" d="M0 0l33.35 25L0 50l50-25L0 0z"/><path d="M33.35 25L0 0v50l33.35-25m-14.6-6.15L15.8 24.5l4.45 4.55-6.3-1.05-2.9 5.65-.95-6.3-6.25-1.05 5.7-2.85-.95-6.25 4.45 4.5 5.7-2.85z"/><path fill="#FFF" d="M15.8 24.5l2.95-5.65-5.7 2.85-4.45-4.5.95 6.25-5.7 2.85 6.25 1.05.95 6.3 2.9-5.65 6.3 1.05-4.45-4.55z"/><path fill="#DC241F" d="M100 50V0H0l50 25L0 50h100z"/></g></defs><use xlink:href="#a" transform="scale(2 2.1)"/></svg>