<svg xmlns="http://www.w3.org/2000/svg" xmlns:xlink="http://www.w3.org/1999/xlink" preserveAspectRatio="none" width="200" height="105"><defs><g id="a"><path fill="#383739" d="M28.9 38.75h.05v-.35l-.4.3.7.5-.35.25 1.1.75v-.05l-1-.7.3-.25-.7-.5.3-.2v.25m-.3-.5l-.5-.35-.8.6.8-.55.4.3-.6.45.7.5-.3.25L30 40.6v-.05l-1.65-1.1.35-.25-.75-.5.65-.45m.6-1.15h.45v-.35l.35-.3v-.05l-.4.35v.3h-.45l-.3.25.3.3h.45v.35l.4.25v-.05l-.35-.2v-.4h-.45l-.3-.25.3-.2m.35-1.25h-.05v.4l-1.4.95h.05l1.4-.95v-.4m-1 .15l.4.25v-.4h-.05v.35l-.3-.2.7-.55-.3-.2 1-.75-1.1.75.35.2-.7.55m.15-.55l-.35-.2 1.65-1.2V34l-1.7 1.25.3.2-.7.55.6.4-.4.25-.8-.5-1.7 1.15 1.3.9-1.25-.9 1.65-1.1.8.55.5-.35-.65-.4.75-.55m-1.3 1.45h-.05l.1.3h.05l-.1-.3m-.1-.35l.45.35h.15l-.6-.4-1.15.8 1.15.8.6-.35h-.5l.1-.3h.6l1.4 1v.3h.05v-.35l-1.4-1h-.7l-.1.4h.4l-.45.25-1.1-.75 1.1-.75m-.25 1.05l.1-.3-.1-.25-.35.25.35.3m0-.15l-.25-.15.25-.2.05.2-.05.15m1.9-8.45l-.4.25.7.55-.35.2 1.1.8v-.05L29 30l.3-.2-.7-.55.3-.2v.3h.05V29m.55 0v.35h.05V29l-1.4-.95h-.05l1.4.95m-2.2.05l-1.65-1.15 1.25-.85-1.3.85 1.7 1.2.8-.55.4.3-.6.4.7.55-.3.2 1.7 1.25v-.05L28.35 30l.35-.2-.75-.55.65-.4-.5-.35-.8.55m.1-.7l.1-.3h-.05l-.1.3h.05m-.1-1.2l.45.35h.15l-.6-.4-1.15.8 1.15.8.6-.35h-.15l-.45.3-1.1-.75 1.1-.75m2.25-.65h-.05v.3l-1.4.95h-.6l-.1-.25h-.05l.1.3h.7l1.4-.95v-.35m.45.55V27l-.4.3v.35h-.45l-.3.25.3.3h.45v.35l.4.3v-.1l-.35-.25v-.35h-.45l-.3-.25.3-.2h.45v-.35l.35-.3m-3.3.85l.35.25.1-.25-.1-.25-.35.25m.35.2l-.25-.2.25-.2.05.2-.05.2m2.95-3v-.05l-1.1.8.35.2-.7.5.4.3v-.35h-.05v.25l-.3-.2.7-.5-.3-.2 1-.75M13 38.75h.05v-.25l.35.2-.75.5.35.25-1 .7v.05l1.05-.75-.3-.25.7-.5-.45-.3v.35m.85-.85l-.45.35.6.45-.7.5.35.25-1.65 1.1v.05l1.7-1.15-.35-.25.75-.5-.65-.45.4-.3.8.55-.8-.6m.35-1l.45-.35 1.1.75-1.1.75-.45-.25h.45l-.1-.4h-.7l-1.4 1v.35h.05v-.3l1.35-1h.65l.05.3h-.45l.55.35 1.2-.8-1.2-.8-.55.4h.1m.45 0h-.1l-.05.3h.05l.1-.3m-1.9-1.45l.3-.2L12 34.5l1 .75-.35.2.75.55-.35.2v-.35H13v.4l.45-.25-.7-.55m.6 0l.35-.2L12 34v.05l1.65 1.2-.35.2.7.55-.6.4.45.35.8-.55 1.65 1.1-1.65 1.2 1.75-1.2-1.75-1.15-.8.5-.4-.25.65-.4-.75-.55M12 36.4v.05l.35.3v.35h.45l.3.2-.3.25h-.45v.4l-.35.2v.05l.4-.25v-.35h.4l.35-.3-.35-.25h-.4v-.3l-.4-.35m2.85.9l.05.3.4-.3-.4-.25-.05.25m.1.15l-.05-.15.05-.2.25.2-.25.15m-2.45-1.6h-.05v.4l1.05.75-1-.75v-.4m.95-7l.4-.3.8.55 1.75-1.2-1.75-1.15 1.65 1.15-1.65 1.15-.8-.55-.45.35.6.4-.7.55.35.2L12 31.2v.05L13.7 30l-.35-.2.75-.55-.65-.4m1.1-.8h-.05l.05.3h.1l-.1-.3M12 30.75v.05l1.05-.8-.3-.2.7-.55L13 29v.35h.05v-.3l.35.2-.75.55.35.2-1 .75m.45-1.75v.35h.05V29l1-.7-1.05.7M12 27v.05l.35.3v.35h.45l.3.2-.3.25h-.45v.35l-.35.25v.1l.4-.3v-.35h.4l.35-.3-.35-.25h-.4v-.35L12 27m2.2.5l.45-.35 1.1.75-1.1.75-.45-.3h-.1l.55.35 1.2-.8-1.2-.8-.55.4h.1m.45 0h-.1l-.05.25h-.65l-1.35-.95v-.3h-.05v.35l1.4.95h.7l.1-.3m.2.4l.05.25.4-.25-.4-.25-.05.25m.1.2l-.05-.2.05-.2.25.2-.25.2m-2.2-2.05l.3-.2-1.05-.8v.05l1 .75-.35.2.75.5-.35.2v-.25H13v.35l.45-.3-.7-.5M12 24.6v.05l1.65 1.2-.35.2.7.5-.6.45.45.35.8-.6-.8.55-.4-.3.65-.45-.75-.5.35-.2L12 24.6m1.05-4.95l.35.2-.75.55.35.2-1 .7v.05l1.05-.75-.3-.2.7-.55-.45-.25v.3h-.5v-.3l1-.7-1.05.7v.35h.6v-.3m1.85-1.4l-.05.2.05.3.4-.3-.4-.2m0 .2l.05-.15.25.15-.25.25-.05-.25m-2.9-.9v.05l.35.3v.4h.45l.3.25-.3.2h-.45v.35l-.35.3v.05l.4-.35v-.3h.4l.35-.25-.35-.3h-.4v-.35l-.4-.35m0-1.9v.05l1 .7-.35.25.75.5-.35.2v-.3h-.6v.35l1.4 1h.7l.1-.35h-.45l.45-.25 1.1.75-1.1.7-.45-.3h.45l-.1-.3h-.05l.05.25h-.45l.55.45 1.2-.8-1.2-.8-.55.35h.45l-.05.25h-.65l-1.35-.95v-.3h.5v.35l.45-.3-.7-.5.3-.25-1.05-.75m0-.45v.05l1.65 1.15-.35.25.7.5-.6.4.45.4.8-.6 1.65 1.2-1.65 1.1-.8-.55-.45.35.6.4-.7.55.35.2L12 21.8v.05l1.7-1.25-.35-.2.75-.55-.65-.4.4-.3.8.55 1.75-1.15-1.75-1.25-.8.6-.4-.35.65-.4-.75-.5.35-.25-1.7-1.2m0-5.15l.4-.35v-.35h-.05v.35L12 10v.05m.4-1.2V8.5l-.4-.35v.1l.35.25v.35h.05m1.45-.35l.8-.55 1.65 1.2-1.65 1.1-.8-.55-.45.35.6.4-.7.5.35.25L12 12.35v.05l1.7-1.2-.35-.25.75-.5-.65-.4.4-.3.8.55 1.75-1.15-1.75-1.25-.8.6m1.05.3l-.05.3.05.25.4-.25-.4-.3m0 .3l.05-.2.25.2-.25.2-.05-.2m-2.1-.25l.3.3-.3.2.35-.2-.35-.3m-.05-1.6l.3-.25L12 6.25v.05l1 .7-.35.25.75.5-.35.2v-.3h-.6V8l1.4 1.05h.7l.1-.4h-.45l.45-.3 1.1.8-1.1.75-.45-.35h.45l-.1-.35h-.7l-1.4 1v.35h.6v-.3l.35.2-.75.5.35.25-1 .7v.05l1.05-.75-.3-.25.7-.5-.45-.3v.35h-.5v-.3l1.35-.95h.65l.05.25h-.45l.55.45 1.2-.8-1.2-.85-.55.4h.45l-.05.25h-.65L12.5 8v-.3h.5v.35l.45-.3-.7-.5M12 5.8v.1L13.65 7l-.35.25.7.5-.6.4.45.35-.4-.35.65-.4-.75-.5.35-.25L12 5.8m.5-4.35v-.4l1-.65-1.05.65v.4h.05m.5-.4v.4h.05v-.3l.35.2-.75.5.35.25-1 .75v.05l1.05-.8-.3-.25.7-.5-.45-.3m.1-1h-.05L12.8.2h-.45v.4L12 .85V.9l.4-.25v-.4h.4l.3-.2m1.4.05l.05.35h.1l-.1-.35h-.05m.65-.05l-.2.1v-.1h-.05V.2l.3-.15h-.05m.65 0h-.1l-1.05.7-.45-.3h-.1l.55.35L15.8.05m.55 0h-.1l-1.6 1.1-.8-.55-.45.3.6.45-.7.5.35.25L12 3.25v.05l1.7-1.2-.35-.25.75-.5-.65-.45.4-.25.8.55 1.7-1.15M30 24.65v-.05l-1.7 1.25.3.2-.7.5.6.45-.4.3-.8-.55.8.6.5-.35-.65-.45.75-.5-.35-.2 1.65-1.2m-.45-4.7v-.35l-1.4-.95h-.05l1.4.95v.3h-.55v-.3l-.4.25.7.55-.35.2 1.1.75v-.05l-1-.7.3-.2-.7-.55.3-.2v.3h.65M30 17.6v-.05l-.4.35v.35h-.45l-.3.3.3.25h.45v.3l.4.35v-.05l-.35-.3v-.35h-.45l-.3-.2.3-.25h.45v-.4l.35-.3m-2.85.85l-.1-.2-.35.2.35.3.1-.3m-.35 0l.25-.15.05.15-.05.25-.25-.25m.7-.1l-.1-.25h.5l-.6-.35-1.15.8 1.15.8.6-.45h-.5l.1-.25h-.05l-.1.3h.4l-.45.3-1.1-.7 1.1-.75.45.25h-.4l.1.35h.7l1.4-1v-.35h-.65v.3l-.3-.2.7-.5-.3-.25 1-.7v-.05l-1.1.75.35.25-.7.5.4.3v-.35h.55v.3l-1.4.95h-.6m2.5-3.1v-.05l-1.7 1.2.3.25-.7.5.6.4-.4.35-.8-.6-1.7 1.25 1.7 1.15.8-.55.4.3-.6.4.7.55-.3.2 1.7 1.25v-.05l-1.65-1.2.35-.2-.75-.55.65-.4-.5-.35-.8.55-1.65-1.1 1.65-1.2.8.6.5-.4-.65-.4.75-.5-.35-.25L30 15.25m0-5.2V10l-.35-.3v-.35h-.05v.35l.4.35m-4.35-.9l1.65-1.2.8.55-.8-.6-1.7 1.25 1.7 1.15.8-.55.4.3-.6.4.7.5-.3.25 1.7 1.2v-.05l-1.65-1.15.35-.25-.75-.5.65-.4-.5-.35-.8.55-1.65-1.1m3.55-.3h-.05l-.3.3.3.2h.05l-.3-.2.3-.3m.8-.6v-.1l-.4.35v.35h.05V8.5l.35-.25m-2.85.85l-.1-.3-.35.3.35.25.1-.25m-.1-.2l.05.2-.05.2-.25-.2.25-.2M30 6.3v-.05L28.9 7l.35.25-.7.5.4.3V7.7h.55V8l-1.4.95h-.6l-.1-.25h.5l-.6-.4-1.15.85 1.15.8.6-.45h-.5l.1-.25h.6l1.4.95v.3h-.55v-.35l-.4.3.7.5-.35.25 1.1.75v-.05l-1-.7.3-.25-.7-.5.3-.2v.3h.65v-.35l-1.4-1h-.7l-.1.35h.4l-.45.35-1.1-.75 1.1-.8.45.3h-.4l.1.4h.7L29.55 8v-.35h-.65v.3l-.3-.2.7-.5L29 7l1-.7m0-.4v-.1L28.3 7l.3.25-.7.5.6.4-.4.35.5-.35-.65-.4.75-.5-.35-.25L30 5.9M26.8.05l.25.15.1-.15h-.05l-.05.1-.15-.1h-.1m.95.4l-.45.3-1-.7h-.05L27.3.8l.6-.35h-.15m-.35 0l.1-.35h-.05l-.1.35h.05m.7.2l.4.25-.6.45.7.5-.3.25L30 3.3v-.05L28.35 2.1l.35-.25-.75-.5.65-.45-.5-.3-.8.55-1.55-1.1h-.05l1.6 1.15.8-.55M21.3 36.1l.45.2h1.65l.25-.15h-.15l-.1.1h-1.65l-.35-.15.8-.35h4.5v-1h-.05v.95h-4.5l-.85.4m.75.05h.15l.3-.3h1.95l-.85.7.95-.75h-2.1l-.4.35m-1.75.4l.7-.25.65.25-.65-.3-.7.3m.7-7.6l-.7-.3.7.35.65-.35-.65.3m1.5.4l-.3-.25h-.15l.4.3h2.1l-.95-.75.85.7H22.5m5.45 1.15h-.05v.9h1.25v2.45H27.9v.9h.05v-.85h1.25v-2.55h-1.25v-.85m-1.3-1v1h.05v-1.05h-4.5l-.8-.3.35-.15h1.65l.1.1h.15l-.25-.15h-1.65l-.45.2.85.35h4.5M23.1 41.6h-.05v.6h.05v-.6m-1.9.45h-.05v.65h1.3v-.5h-.05v.45h-1.2v-.6m-.35-1.7h-.05V41h.05v-.65m.35 0h-.05V41h.05v-.65m1.25 1.25h-.05v.25h.35v.1h-.45l-.95-.4.95-.5-1.05.5 1.05.45h.5v-.2h-.35v-.2m-.05-1.25v.5h.65v.55h-.6v-.15h.35v-.2h-.05v.15h-.35v.3h.7v-.7h-.65v-.45h-.05m-1.8-1.75h-.05v.95l.4-.2-.35.15v-.9m2 0h-.15l-.7.4v.7l1.25.6h.85v2.45h.05v-2.5h-.85l-1.25-.6V39l.8-.4m4.05 4.3H24.8v.75l1.85-.75m-3.3.05h-.55V44h.55v-.4h.55v.4h.55v-1.05h-.55v.4h.05V43h.45v.95h-.45v-.4h-.65v.4h-.45V43h.45v.35h.05v-.4m1.95-1.2v-.05h-.55v.95h.05v-.9h.5m.6.6v.3h.05v-.35h-.65v.05h.6m.05-.6h.45v.9h.05v-.95h-.55v.3h-.6v.05h.65v-.3M24.8 39.4v.75h1.85l-1.85-.75m-.9.05h.05v-.3h.45v.9h.05v-1h-.55v.4m-.55.6v-.35h.55v.35h.05v-.4h-.65v.4h.05m0-1h-.55v1h.05v-.9h.45v.3h.05v-.4m1.45 1.35h-.05v.95h.55v-.05h-.5v-.9m1.65 0h-.05v.9h-.45V41h-.05v.35h.55v-.95m-.5.4v-.4h-.05v.35h-.6v.05h.65m-6.35 1.4h-.05v.5h1.3v-.65h-.05v.6h-1.2v-.45m.25-.05v.35h.7v-.2h-.25v-.25h-.05v.3h.25v.1h-.6v-.3l1.1-.45 1.1.45v.3h-.6v-.1h.2v-.3h-.05v.25h-.2v.2h.7v-.35l-1.15-.5-1.15.5M18.7 43h.45v.95h-.45v-.4h-.65v.4h-.45V43h.45v.35h.05v-.4h-.55V44h.55v-.4h.55v.4h.55v-1.05h-.55v.4h.05V43m-1.5-.1h-1.85l1.85.75v-.75m-1.1-.25v-.3h.55v.3h.05v-.35h-.65v.35h.05m.6-.9h.45v.9h.05v-.95h-.55v.3h-.55v-.3h-.55v.95h.05v-.9h.45v.3h.65v-.3m1.75-1.25v2.05h.6l1.9.85v.3l-.4-.2v.9h-1l.7-.35v-.7l-1.3-.6 1.25.65v.65l-.8.4h1.2v-.9l.35.2v.9h-2l-4.35-1.8v-2.7l.8-.35-.85.35v2.75l4.4 1.8h4.1l4.4-1.8v-2.75l-.85-.35.8.35v2.7l-4.35 1.8H21v-.9l.4-.2v.9h1.2l-.8-.4v-.65l1.25-.65H23l-1.25.6v.7l.7.35h-1v-.9l-.45.2v-.3l-1.95-.9h-.55v-1.95h.55l1.95-.9 1.45.7.45.2h.6v1.95h-.6l-.45.2-1.45.7 1.95-.85h.6V40.5h-.6L21 39.6v-.25l.45.2v-.95h-.05v.9l-.4-.2v-.9h-.05v1.2l-1.9.9h-.6m.5 1.1h-.05v.6h.05v-.6m.6 0h-.05v.2h-.3v.2h.45l1.1-.45-1.1-.5 1 .5-1 .4h-.4v-.1h.3v-.25m.05-1.25h-.05v.45h-.65v.7h.65v-.3h-.3v-.15h-.05v.2h.3v.15h-.55v-.55h.65v-.5m.3.5v-.25h.6v.15h-.25V41h.05v-.2h.25v-.25h-.7v.35l1.15.5 1.15-.5v-.35h-.7v.25h.2v.2h.05v-.25h-.2v-.15h.6v.25l-1.1.5-1.1-.5m-.35-2.25h-.15l.8.4v.65l-1.25.6h-.85v2.5h.05V40.3h.8l1.3-.6V39l-.7-.4m-3.95 1.8h-.05v.95h.55V41h-.05v.3h-.45v-.9m1.1.4v-.4h-.05v.35h-.55v-.35h-.05v.4h.65m.5-.4h-.05v.9h-.45V41h-.05v.35h.55v-.95m0-1l-1.85.75h1.85v-.75m1.45.05h.05v-.3h.45v.9h.05v-1h-.55v.4m-.6 0h.05v-.4h-.55v1h.05v-.9h.45v.3m0 .2v.4h.05v-.35h.55v.35h.05v-.4h-.65M14.2 40v3.1l.9.35-.85-.35V40l4.6-1.9h4.25l4.65 1.9v3.1l-4.65 1.85h.05l4.65-1.85V40l-4.65-1.95h-4.3L14.2 40m4.15-3.45h.05l-.85-.7h1.95l.3.3h.1l-.4-.35h-2.1l.95.75m-3-1.8h-.05v1h4.5l.8.35-.4.15h-1.6l-.15-.1h-.1l.25.15h1.6l.5-.2-.9-.4h-4.45v-.95M14.1 30.5h-.05v.85H12.8v2.55h1.25v.85h.05v-.9h-1.25V31.4h1.25v-.9m5.7-1.4l-.3.25h-1.95l.85-.7h-.05l-.95.75h2.1l.4-.3h-.1m-4.45 1.4v-1h4.45l.9-.35-.5-.2h-1.6l-.25.15h.1l.15-.1h1.6l.4.15-.8.3h-4.5v1.05h.05m12.05 3.9v-.1h-1.25v1.05h.05v-.95h1.2m1.3-2.65h-.05v1.7h.05v-1.7m-6.35 3.6h-.05l-1.3.6-1.35-.6L21 36l1.35-.65m-.05-5.45h.05L21 29.25l-1.35.65 1.35-.6 1.3.6m3.9.95v-.95h-.05v1h1.25v-.05h-1.2m-11.6 2.6h-.05v.95h1.25v.95h.05V34.3H14.6v-.85m-1.25-1.7h-.05v1.7h.05v-1.7m14.95.3v1.15h-1.25v.9h.05v-.85h1.25V32H27.1v-.9h-.05v.95h1.25m-6.05 3l-1.25.6 1.25-.5h3.6V34.1h-.05v.95h-3.55m-6.1-.95v1.05h3.6l1.25.5-1.25-.6H16.2v-.95h-.05m-1.2-2.05v-.95h-.05v.9h-1.25v1.25h1.25v.85h.05v-.9H13.7v-1.15h1.25m10.4-1.5h-2l2 .95v-.95m-1.8.05h1.75v.85l-1.75-.85m1.8 4.1v-.95l-2 .95h2m-.05-.05h-1.75l1.75-.85v.85m-2.8-1.95v-.2h-.05v.2h.05m.45-.2v.2H23v-.2h-.05m1.25 0v.2h.05v-.2h-.05m-.45.2v-.2h-.05v.2h.05m1.4-.85l-1.05-.45-1.05.45h-.2v.5h-.75v.05h2.45v.45H22.1v.05h.75v.45h.2l1.05.5 1.05-.5h.25v-.45h.45v-.55h-.45v-.5h-.25m-1 .5v-.45h1.2v.45h-1.2m-.05-.45v.45h-1.2v-.45h1.2m0-.45l.95.4h-1.9l.95-.4m-1.2 1.85v-.4h1.2v.4h-1.2m1.25 0v-.4h1.2v.4h-1.2m.9.05l-.95.45-.95-.45h1.9m-.45-.5v-.45h1.2v.45h-1.2m.85-.35v.2h.05v-.2h-.05m-.45.2v-.2h-.05v.2H25m-.5.5V33h-.05v.2h.05m.45 0H25V33h-.05v.2m-1.75 0h.05V33h-.05v.2m.5-.2v.2h.05V33h-.05m.05-.95h-.05v.2h.05v-.2m-.5 0h-.05v.2h.05v-.2m1.7 0v.2H25v-.2h-.05m-.45.2v-.2h-.05v.2h.05m-7.85 2.45h1.95l-1.95-.95v.95m.05-.9l1.75.85H16.7v-.85m3.25-.6h-.25v.5h-.6v.5h.6v.5h.25l1.05.5 1.05-.5h.2v-.5h.65v-.5h-.65v-.5h-.2L21 32.7l.95.5h-1.9l.95-.5-1.05.5m-.2.5v-.45h1.2v.45h-1.2m0 .95v-.45h1.2v.45h-1.2m-.6-.5v-.4h1.2v.4h-1.2M21 33.7v-.45h1.2v.45H21m-.6.05h1.2v.4h-1.2v-.4m1.8.45v.45H21v-.45h1.2m-.25.5l-.95.45-.95-.45h1.9m-.3-.95h1.2v.4h-1.2v-.4m.35.1h-.05v.2h.55v-.2h-.05V34H22v-.15m-.6.7v-.25h-.05v.25h.05m.5-.25h-.05v.25h.05v-.25m-1.15-.3v-.15h-.05v.2h.55v-.2h-.05V34h-.45m.65-.65h-.05v.25h.55v-.25h-.05v.15h-.45v-.15m-1.9.65v-.15h-.05v.2H20v-.2h-.05V34h-.45m1.1.3v.25h.05v-.25h-.05m-.45.25v-.25h-.05v.25h.05m0-1.05v-.15h-.05v.25h.55v-.25h-.05v.15h-.45m-1-1.15v-.5h-.2l-1.05-.45h-.05l-1 .45h-.25v.5h-.5v.55h.5v.45h.25l1.05.5 1.05-.5h.2v-.45h.75v-.55h-.75m-.05-.45v.45h-1.2v-.45h1.2m-1.25 0v.45h-1.2v-.45h1.2m.05-.45l.95.4H16.9l1-.4m-.05 1.45v.4h-1.2v-.4h1.2m.05.4v-.4h1.2v.4h-1.2m.95.05l-.95.45-1-.45h1.95m-.25-.95v.45h-1.2v-.45h1.2m.05 0h1.2v.45h-1.2v-.45m-2.5 0h1.2v.45h-1.2v-.45m.35.3h.05v-.2h-.05v.2m.55 0v-.2H17v.2h.05m1.95 0h.05v-.2H19v.2m.5 0h.05v-.2h-.05v.2m-1.75 0h.05v-.2h-.05v.2m.5-.2v.2h.05v-.2h-.05m.05.5h-.05v.2h.05V33m.45 0h-.05v.2h.05V33m-1.7 0H17v.2h.05V33m.5 0h-.1v.2h.1V33m-.1-.95v.2h.1v-.2h-.1m-.45.2h.05v-.2H17v.2m1.7-.2v.2h.05v-.2h-.05m-.45.2h.05v-.2h-.05v.2m.35-1.7h-1.95v.95l1.95-.95m-1.9.05h1.75l-1.75.85v-.85m3.25-.05h-.25V31h-.6v.55h.6v.5h.25l1.05.45-.95-.45h1.9l-.95.45 1.05-.45h.2v-.5h.65V31h-.65v-.45h-.2l-1.05-.5-1.05.5m-.8.95v-.45h1.2v.45h-1.2m.6.5v-.45h1.2V32h-1.2m0-1v-.4h1.2v.4h-1.2m1.25-.9l.95.45h-1.9l.95-.45m0 .5h1.2v.4H21v-.4m1.85.45v.45h-1.2v-.45h1.2m-1.25 0v.45h-1.2v-.45h1.2m.6.5V32H21v-.45h1.2m-.3.35v-.25h-.55v.25h.55m-.05-.2v.15h-.45v-.15h.45m-.65-.45v.15h.05v-.2h-.55v.2h.05v-.15h.45m1.25 0v.15h.05v-.2h-.55v.2H22v-.15h.45m-.55-.55h-.55v.25h.55v-.25m-.5.2v-.15h.45v.15h-.45m-1.3-.2v.25h.55v-.25h-.55m.05.2v-.15h.45v.15h-.45m-.05.75v.25h.55v-.25h-.55m.05.2v-.15h.45v.15h-.45m-.2-.6v.15H20v-.2h-.55v.2h.05v-.15h.45m-3.75-1.1h3.55l1.25-.5 1.25.5h3.55v.95h.05v-1h-3.6L21 29.55l-1.25.55h-3.6v1h.05v-.95m-.35-.25h-.05v.95h-1.25v.9h.05v-.85h1.25v-1M19 20.15h.05l.2-.2.2.2-.2-.25-.25.25m.65-.3l.3-.2-.35-.25-.35.25-.35-.25-.35.25.3.2-.4.3h.1l.35-.3-.3-.2.3-.2.35.25.35-.25.3.2-.3.2.35.3h.1l-.4-.3m1.1.3h.05l.2-.2.2.2-.2-.25-.25.25m.25-.45l.35-.25.3.2-.3.2.35.3h.1l-.4-.3.3-.2-.35-.25-.35.25-.35-.25-.35.25.3.2-.4.3h.1l.35-.3-.3-.2.3-.2.35.25m4.05 1.5v-.75h-8.1v.75l-.35.15h-1.3v3.7h.1v-.65l1.15.65h.05l.35.2V26h8.1v-.75l.35-.2h.05l1.15-.65v.65h.05v-3.7H25.4l-.35-.15m-.05-.7v.65l-1.2-.65H25m.45.9h1.15v.65l-1.15-.65m1.15.7v2.25l-2.9 1.6h-5.4l-1.3-.7 1.2.7H17v-.7l-1.65-.9V22.1l2.95-1.6h5.4l2.9 1.6m-9.6-.95v-.65h1.2l-1.2.65m-1.6.25h1.15l-1.15.65v-.65m9.6 3.85v.7h-1.2l1.2-.7M17.05 24v.1h.05V24h-.05m0-1.1v.05h.05v-.05h-.05m.05-.5v-.05h-.05v.05h.05m-.2-1.05h-.05v.5h-.8l-.3.25.3.25-.3.35.3.25-.3.25.3.3-.3.25.3.25-.3.3.3.3h.8v.5h.85v-.05h-.8v-.5h-.8l-.3-.25.3-.2h.8V24h-.8l-.3-.25.3-.25-.3-.3.3-.25h.8v-.05h-.8l-.3-.2.3-.3h.8v-.05h-.8l-.3-.25.3-.2h.8v-.55m2.3-.55l.35-.2.3.2v.2h.05v-.2l-.35-.25-.4.25v.15H17.7V21h.7l-1.35.85v.05h.05v-.05l1.4-.85h.7v-.2m5.75 3.3V24h-.05v.1h.05m0-1.2h-.05v.05h.05v-.05m-.05-.55v.05h.05v-.05h-.05M21.35 21h.05v-.2l.3-.2.35.2v.2h.05v-.2l-.4-.25-.35.25v.2m-.7-.2l-.4-.25-.35.25.35-.2.35.2v.2h.05v-.2m.35-.2l.35.2-.35-.25-.35.25.35-.2m4.15.75h-.05v.55h.8l.3.2-.3.25h-.8v.05h.8l.3.3-.3.2h-.8v.05h.8l.3.25-.3.3.3.25-.3.25h-.8v.1h.8l.3.2-.3.25h-.8v.5h-.85v.4h-.7l.7-.4.7-.45v-.05h-.05l-1.4.9h-.7v.1l-.35.25-.35-.25v-.1h-.05v.1l-.35.25-.3-.25v-.1h-.05v.1l-.35.25-.35-.25v-.1h-.05v.1l-.35.25-.35-.25v-.1h-.05v.1l-.3.25-.35-.25v-.1h-.7l-1.4-.9h-.05v.05l1.35.85h-.7v.05h1.45v.15l.4.2.35-.2.35.2.4-.2.35.2.35-.2.35.2.4-.2.35.2.4-.2v-.15h1.45v-.4h.85v-.5h.75l.35-.3-.3-.3.3-.25-.3-.25.3-.3-.3-.25.3-.25-.3-.35.3-.25-.35-.25h-.75v-.5m-4.5 3.9h-.05v.05h.05v-.05m-.05-.15h.05V25l-.05.05v.05m0-.1h.05v-.05h-.05V25m.8.25h-.05v.05h.05v-.05m-.05-.15h.05l-.05-.05v.05m0-.1l.05-.05v-.05l-.05.05V25m.75.25h-.05v.05h.05v-.05m0-.25l-.05-.05V25h.05m0 .05V25l-.05.05h.05m-2.2.25v-.05h-.05v.05h.05m0-.25V25h-.05l.05.05m-.05-.5l.05.05v-.05h-.05m-.65 0h-.15l-.05.25.2.2v-.05l-.15-.15.05-.2h.1v-.05m.6-1.05v.3h.05v-.3h-.05m-1.75.6h.05l.1-.1h-.05l-.1.1m.1-1.2l.05.05h.05l-.05-.05h-.05m-.4.05h.1l.05-.05h-.05l-.1.05m.45-.55h.05l-.05-.05h-.05l.05.05m-.75 2.15h-.05l1.15.75h.65v-.05h-.3l.3-.15v-.05l-.35.2h-.25l-1.15-.7m-.1-.55h-.05v.1h.05V24m.15.1h.05l-.1-.1h-.1l.15.1m0-1.15h.1l-.1-.05h-.05l.05.05m-.2 0h.05v-.05h-.05v.05m.15-.55l.05-.05h-.05l-.1.05h.1m-.1 0v-.05h-.05v.05h.05m2.55-.9v-.05h-.05l.05.05m-.7 0l-.2.1.05.25.15.05-.1-.05-.05-.25.15-.1m-.6-.35h-.05l-1.15.75h.05l1.15-.75m.3 0h-.05l.35.3v-.05l-.3-.25m5.75 3.4h-.1l-1.15.7h-.25l-.35-.2v.05l.25.15h-.25v.05h.6l1.25-.75m0-.55v.1h.05V24h-.05m-.1 0l-.1.1h.05l.15-.1h-.1m-.65.1h.05l-.05-.1h-.05l.05.1m-.95.45h-.15v.05h.1l.05.2-.15.15V25l.2-.2-.05-.25m.85-1.6v-.05l-.05.05h.05m.05-.55l.05-.05h-.05l-.1.05h.1m.8.5v.05h.05v-.05h-.05m-.25.05h.1l.1-.05h-.1l-.1.05m-.3-.05l.1.05h.05l-.05-.05h-.1m.5-.55h-.05l.05.05h.05l-.05-.05m0-.45h.05l-1.25-.75 1.2.75m.1.5v-.05h-.05v.05h.05m-2.65 2.15v.05l.05-.05h-.05m.1-.75h.05v-.3h-.05v.3m-.75.75h-.05v.05h.05v-.05m-.8 0v.05h.05v-.05h-.05m1.2-2.15v-.15H20.2v.35h-.4v.3h-.6V23.5h.05v-.3h1.05v.3l.65.25-.6-.25v-.3h.6V24.15h-.7v-.35h-.05v.4H21.8v-.4h-.05v.35H21V23.2h.65v.3l-.65.25.7-.25v-.3h1.05v.3h.05V22.9h-.6v-.3h-.4v-.2m-.15.55v.2H21v-.45l.65.25m.05.2v-.2l-.7-.3v-.35h.75v.35h.4v.3h.6v.2H21.7m-1.35 0v-.2l.6-.25v.45h-.6m-.05-.2v.2h-1.05v-.2h.6v-.3h.4v-.35h.7v.35l-.65.3m1.75-1.55v.05h.05l-.05-.05m.05.1v-.05l-.05.05h.05m-.75-.05l.05-.05v-.05l-.05.05v.05m.05.1v-.05h-.05v.05h.05m-.8 0l.05-.05v-.05l-.05.05v.05m0-.2v.1h.05v-.05l-.05-.05m2.2.2l.15.05-.05.25-.1.05.15-.05.05-.25-.2-.1v.05m0-.2v.1l.35-.3h-.1l-.25.2m0-.55v.2h.7l1.4.85v.05h.05v-.05l-1.4-.85h.7v.35h.05v-.4h-1.45v-.15l-.4-.25-.35.25.35-.2.35.2m-6.9-.8h.4v-.05h-.45v.4h.05V20m.4-.35v.05h.45v.45h.05v-.5h-.5M13.75 24h-.05l.4.25.8-.4-.8.35-.35-.2m-.05 0h-.3l-.2.25.3.15-.3.15.2.15-.1-.15.3-.15-.3-.2.1-.1.3-.1m0 .7h-.3l.35.05.35-.2-.4.15m-.3-1.15l.35.05.35-.2-.4.15h-.3m0-.65l.3-.05h-.3l-.2.2.3.15-.3.2.2.15-.1-.15.3-.2-.3-.2.1-.1m-.1-1.05l.1-.1.3-.05h-.3l-.2.2.3.15-.3.15.2.15-.1-.15.3-.15-.3-.2m.45-.15h-.05l.4.2.8-.4-.8.35-.35-.15m.35 1.35l.8-.35-.8.3-.35-.15h-.05l.4.2m14.15 1.65l-.35-.15.35.2.35-.05.15-.15-.3-.15.3-.15-.15-.25h-.35l.3.1.15.1-.3.2.3.15-.15.15h-.3m0-.7l-.35.2-.8-.35.8.4.35-.25m.5-.95l-.15-.2h-.35l.3.05.15.1-.3.2.3.2-.15.15h-.3l-.35-.15.35.2.35-.05.15-.15-.3-.2.3-.15m-.85 0l.35-.2-.35.15-.8-.3.8.35m0-1.15l.35-.2-.35.15-.8-.35.8.4m-2.2-1.05v-.7h-.05v.8h1.4v4.55h-1.4v.75h-9.3v-.75h-1.4v-4.55h1.4v-.8h-.05v.7h-.9v-.4h-.05v.4h-.45v.25h-.4v-.35h.45v-.3h-.05v.25h-.45v.45h.45V21.8l-.6.25.6.25-.5-.25.5-.2v.75l-.8-.45-.4.2h-.3l.35.05.35-.2.8.45v.3l-.6.25.6.3-.5-.3.5-.2v.75l-.8-.35.8.4v.35l-.6.25.6.25-.5-.25.5-.2v.75l-.8-.4.8.45v.3h-.45v.4h.05v-.35h.4v.2h.45v.4h-.4v-.25h-.05v.3h.5v-.45h.9v.5h-.45v.45h.45v-.05h-.4v-.35h.4v.2h.45v.45h.05v-.45H19l.25.2.2-.2h.5l-.35.3.3.2-.3.2-.35-.25-.35.25-.3-.2.3-.2-.35-.3.3.3-.3.2.35.25.35-.25.35.25.35-.25-.3-.2.35-.3h.75l.25.2.2-.2h.5l-.35.3.3.2-.3.2-.35-.25-.35.25-.3-.2.3-.2-.35-.3.3.3-.3.2.35.25.35-.25.35.25.35-.25-.3-.2.35-.3h.75l.25.2.2-.2h.5l-.35.3.3.2-.3.2-.35-.25-.35.25-.3-.2.3-.2-.35-.3.3.3-.3.2.35.25.35-.25.35.25.35-.25-.3-.2.35-.3h1.7v.45h.05v-.45h.45v-.2h.35v.35h-.4v.3h.05v-.25h.4v-.45h-.4v-.5h.9V26h.5v-.3h-.05v.25h-.4v-.4h.45v-.2h.35v.35h.05v-.4h-.4V25l.8-.45-.8.4v-.75l.5.2-.5.25.6-.25-.6-.25v-.35l.8-.4-.8.35V23l.5.2-.5.3.6-.3-.6-.25v-.3l.8-.45.35.2.35-.05.15-.15-.3-.15.3-.15-.15-.2h-.35l.3.05.15.1-.3.2.3.15-.15.15h-.3l-.35-.2-.8.45v-.75l.5.2-.5.25.6-.25-.6-.25V21.15h.4v-.45h-.4v-.25h-.05v.3h.4v.35h-.35v-.25h-.45v-.4h-.05v.4h-.9m-6.55 5.45h.25l-.15.15-.1-.15m1.85.15l-.1-.15h.25l-.15.15m1.75 0l-.1-.15h.25l-.15.15m2.45-6.3h.05v-.45h.4v.3h.4v.35h.05v-.4h-.4v-.3h-.5v.5m-2.7 0h.05l.2-.2.2.2-.2-.25-.25.25m.95-.5l-.35-.25-.35.25-.35-.25-.35.25.3.2-.4.3h.1l.35-.3-.3-.2.3-.2.35.25.35-.25.3.2-.3.2.35.3h.1l-.4-.3.3-.2m-.45-9v-.5h-4v.5h-1.75v.45h-1.8v.5h-1.8V16h1.8v.5h1.8v.5H19v.45h4V17h1.75v-.5h1.8V16h1.75v-4.4h-1.75v-.5h-1.8v-.45H23m-.05-.45v.5h1.75v.45h1.8v.5h1.75v2.45h-.5v1.4l-.45-.3v.35l-.4-.3-.45.3v-.35l-.45.3v-1.25h.55V14h-.05v.2h-2.35l-1.7.85h.05l1.65-.8h.05v2.15l-.45-.3v.35l-.4-.25-.45.25v-.35l-.45.3v-1.35h-.05v1.8l-.6-.4V17l-.8-.4.85.45v-.5l.55.45v.05h-2.85V17l.6-.45v.5l.85-.45-.8.4v-.55l-.65.4v-1.8h-.05v1.35l-.45-.3v.35l-.4-.25-.4.25v-.35l-.45.3v-2.15h.05l1.65.8-1.65-.85H15.5V14h-.05v.25h.5v1.25l-.4-.3v.1l.4.25v.55h1.8v.5h1.75v.5h2.95v-.5h1.8v-.5H26v-.55l.4-.25v.3l.5-.3.45.3v-.3l.4.25v.05h.05v-1.45h.45v1.8H26.5v.5h-1.8v.5h-1.75v.45h-3.9v-.45H17.3v-.5h-1.8v-.5h-1.8v-1.8h.5v1.45h.05v-.05l.4-.25v.3l.45-.3.45.3v-.05l-.45-.3-.4.3v-.35l-.45.3v-1.4h-.55v-2.45h1.8v-.5h1.8v-.45h1.75v-.5h3.9m3 5.7l-.45-.2v.25l-.4-.25-.35.25v-.25l-.5.2v-1.65h1.7v1.65m-3.5.65v-.1l.4-.25v.35l.5-.3.45.3v-.35l.4.25v.1h-1.75m2.25-.8v.3h-.45v-.1l.45-.2m-7.4.3v-.3l.45.2v.1h-.45m-.4-.35l-.4.25v-.25l-.5.2v-1.65h1.75v1.65l-.5-.2v.25l-.35-.25m-.45.35H16v-.1l.45-.2v.3m3.05.4v.1H17.8v-.1l.4-.25v.35l.45-.3.45.3v-.35l.4.25m-2.9-1.55l.15-.1v.35l-.25.15.4.25.35-.25-.25-.15v-.35l.15.1v.2l.3-.25-.55-.45-.6.45.3.25V15l-.25-.15.55-.4.5.4-.2.15v-.15l-.25-.15v.45l.2.15-.25.2-.3-.2.2-.15v-.45l-.2.15v.05m8.75.2l.35-.25-.6-.45-.6.45.35.25v-.2l.15-.1v.35l-.25.15.35.25.35-.25-.25-.15v-.35l.15.1v.2m.05-.1v-.15l-.25-.15v.45l.25.15-.3.2-.3-.2.25-.15v-.45l-.25.15V15l-.2-.15.5-.4.5.4-.2.15m-10.7-1.4h-.05v.4h.05v-.4m3.7 1.7l.15-.15v.45l-.25.15.35.2.35-.2-.25-.15v-.45l.15.15v.25l.35-.3-.6-.4-.6.4.35.3v-.25m-.05-.05v.2l-.2-.2.5-.35.5.35-.2.2v-.2l-.25-.15v.5l.25.15-.3.15-.3-.15.25-.15v-.5l-.25.15m.55-3.15v.25l-.15.1v-.4l.25-.15-.35-.25-.35.25.25.15v.4l-.15-.1v-.25l-.35.25.6.4.6-.4-.35-.25m-.55.1v.15l.25.15V12l-.25-.1.3-.2.3.2-.25.1v.5l.25-.15v-.15l.2.15-.5.35-.5-.35.2-.15m-.55-1l.45.3v-.35l.4.3.4-.3v.35l.45-.3-.4.25v-.4l-.45.3-.45-.3v.4l-.4-.25m-1.2 1.15l.3-.25.25.25-.2.1v.45l.25-.15v-.15l.2.15-.5.4-.55-.4.25-.15v-.05l-.3.2.6.45.55-.45-.3-.2v.2l-.15.1v-.35l.25-.15-.35-.3-.4.3.25.15v.35l-.15-.1.2.15v-.45l-.2-.1m-1.35 2.4l.2.2q.05-.45-.15-.55-.084-.042-.15-.05.059.009.1.05.15.1.15.45l-.15-.15-.15.15-.1-.15-.2.15q0-.35.15-.45.044-.044.1-.05-.062.006-.15.05-.15.1-.15.55l.2-.2.15.2.15-.2m0-1.85l.15-.15q0 .35-.15.45l-.05.05.1-.05q.2-.1.15-.55l-.2.2-.15-.15-.15.15-.2-.2q0 .45.15.55l.1.05-.05-.05q-.15-.1-.15-.45l.2.15.1-.15.15.15m-.55-.8l.4.25.45-.25V12l-.45.3-.45-.3v.35l-.4-.25V12h-.05v1.5h.05v-1.3l.45.2v-.3m5.6 2.95l.2.15-.5.4.45.25v-.2l.2-.1v.35l-.45.2.8.45.75-.45-.4-.2v-.35l.2.1v.2l.45-.25-.5-.4.2-.15h-.1l-.15.15.45.4-.3.2v-.15l-.3-.2v.45l.4.2-.7.4-.7-.4.4-.2v-.45l-.3.2v.15l-.35-.2.5-.4-.15-.15h-.1m2.75.25l.15-.15v.45l-.25.15.4.2.35-.2-.25-.15v-.45l.15.15v.25l.3-.3-.55-.4-.6.4.3.3v-.25m-.05.15l-.2-.2.55-.35.5.35-.2.2v-.2l-.25-.15v.5l.2.15-.25.15-.3-.15.2-.15v-.5l-.25.15v.2m-4.55-1.6l.35-.25-.45.25.45.2.4-.2-.4-.25.3.25-.3.15-.35-.15m2.9 2.25l-.35-.2-.35.2.35.25.35-.25m-.35-.15l.25.15-.25.2-.3-.2.3-.15m-.3-1.2h.05l.25-.1.25.1-.25-.15-.3.15m.05-1.9h-.05l.3.2-.25-.2m-.35 0h-.15l.5.3-.95.5-.5-.25.15-.1.2.1.25-.15-.45-.2-.6.35.7.45-.7.35.6.4.45-.25-.25-.15-.2.1-.15-.1.5-.25.95.5-.5.3h.15l.45-.3-1.05-.55-.55.3.2.15.2-.1.15.1-.35.15-.55-.3.75-.35-.75-.45.55-.3.35.15-.15.1-.2-.1-.2.15.55.3 1.05-.55-.45-.3m.6 1.5l1-.5-1-.6-1 .6 1 .5m0-1.05l.95.55-.95.45-.95-.45.95-.55m0 .3l.35.25L21 14l-.35-.15.35-.25-.45.25.45.2.4-.2-.4-.25m.75-.75h-.15l-.45.3 1 .55.6-.3-.25-.15-.15.1-.2-.1.35-.15.55.3-.7.45.7.35-.55.3-.35-.15.2-.1.15.1.25-.15-.6-.3-1 .55.45.3h.15l-.5-.3.9-.5.5.25-.15.1-.15-.1-.25.15.4.25.65-.4-.75-.35.75-.45-.65-.35-.4.2.25.15.15-.1.15.1-.5.25-.9-.5.5-.3m1.45.75l.35.25-.35.15-.35-.15.35-.25-.45.25.45.2.45-.2-.45-.25m2.4 0v.4h-1.7v.15l-1.5.75h.05l1.5-.75v-.1h1.7v-.5h-1.7v-.1l-1.5-.75h-2.9l-1.5.75v.1h-1.7v.5h1.7v.1l1.15.6-1.1-.6V14h-1.7v-.4h1.7v-.15l1.45-.7h2.85l1.5.7v.15h1.7m1.7 0h-.05v.4h.05v-.4m-.1 1.25l-.2-.15-.1.15-.15-.15-.2.15q.05-.35.15-.45-.2.1-.2.55l.25-.2.15.2.1-.2.25.2q0-.45-.2-.55.15.1.15.45M27 12.9l.2-.15q0 .35-.15.45.15-.05.15-.2.05-.15.05-.35l-.25.2-.1-.15-.15.15-.25-.2q0 .45.2.55-.1-.1-.15-.45l.2.15.15-.15.1.15m-1.9-.85l-.35.3.25.15v.35l-.15-.1v-.2l-.35.2.6.45.6-.45-.35-.2v.2l-.15.1v-.35l.25-.15-.35-.3m-.3.3l.3-.25.3.25-.25.1v.45l.25-.15v-.15l.2.15-.5.4-.5-.4.2-.15v.15l.25.15v-.45l-.25-.1m-1.75 0v-.25l-.3.25.6.4.55-.4-.3-.25v.25l-.15.1v-.4l.25-.15-.35-.25-.4.25.25.15v.4l-.15-.1M23 12.2v.15l.25.15V12l-.2-.1.3-.2.25.2-.2.1v.5l.25-.15v-.15l.2.15-.5.35-.55-.35.2-.15m.8-.75v-.4l-.45.3-.5-.3v.4l-.4-.25.45.3v-.35l.45.3.4-.3v.35l.45-.3-.4.25m-1.35-.25v-.7H19.5v2.05l-1.65.8h-.05v-2.3h-.05v.6l-.45.2v-.25l-.4.25-.45-.25v.25L16 11.7l.5.25v-.3l.4.25.35-.25v.3l.5-.25v1.65H16V11.55h-.05v.55l-.4.25v.05l.4-.2v1.15h-.5v.25h.05v-.2h2.35l1.65-.8h2.95l1.7.8h2.35v.2h.05v-.25H26V12.2l.45.2v-.3l.4.25h.05l.4-.25v.3l.45-.2v1.3h.05V12h-.05v.1l-.4.25V12l-.45.3-.5-.3v.35l-.4-.25v-.55h-.05V13.35h-1.7V11.7l.5.25v-.3l.35.25.4-.25v.3l.45-.25-.4.15-.05-.25-.4.25-.4-.25v.25l-.45-.2v-.6h-.05v2.3h-.05l-1.65-.8h-.05V11.2m-.6-.65h.55v2h-.75l-.15-.15.5-.35-.45-.3v.2l-.2.1v-.3l.4-.25-.75-.45-.8.45.45.25v.3l-.2-.1v-.2l-.45.3.5.35-.15.15h-.8v-2h2.3m-1.45 1.4l.3.25v-.5l-.4-.2.7-.4.7.4-.4.2v.5l.3-.25v-.1l.3.2-.45.35.15.15h-1.2l.15-.15-.5-.35.35-.2v.1m.6-.65l.25.2-.25.15-.3-.15.3-.2-.35.2.35.2.35-.2-.35-.25v.05m.85-.75L21 11l-.85-.45v.5l-.6-.3.65.4v-.5l.8.4.8-.4v.5l.6-.4-.55.3v-.5m3.4-9.05h.05L23.2.6h-4.45l-2.05.9 2.1-.85h4.4l2.05.85m-8.3 5.35V6.8l-1.1-.55h-.15l.45.2-.35.25.35.2.35-.3.45.25m-.75-.4l.25.15-.35.25-.25-.15.35-.25m1.9.75l.1-.2.6.2-.6-.25-.15.25.65.3-.6-.3m.8-1.2h.05l.1-.1-.15-.1.1.1-.1.1m.3-2.9v.3l.7.5-.65-.5v-.35l-.45.2-.35-.25-.35.15.35.25-.3-.25.25-.1.35.2-.3.15-.5.25h1l.6.4.1-.05.1-.05-.15.05-.6-.4h-.85l1.05-.5M16 6.15l.35-.25-.35-.2-.35.3.35.15m.3-.25l-.3.2-.25-.1.3-.25.25.15m-.1-1.35h-.05v.4h-.45l-.1.2.15-.15h.45v-.45m-.5 0h-.05l-.4.3h.05l.4-.3m.05-.75l-.15-.1.1.1h.05m3.35-2.2h-.05l.9.75-.85-.75m4.15 5.9h.05l.65-.3-.15-.25-.6.25.55-.2.15.2-.65.3M26 6.15l.35-.15-.4-.3-.35.2.4.25m.25-.15l-.25.1-.35-.2.3-.15.3.25m1-3.7l-1-.5h-1.1L23.1.95h-4.2l-2.05.85h-1.1l-1 .5v.85l-1.45.65V5l1.45.65v.85l1 .45-.95-.5v-.8l-1.45-.7v-.5h.7l.85.8v.1l.55.25.25-.05h.85l.65-.4.2-.2.2.2-.35.25-.05.05-.4.25v.4l-.45-.2.5.25V5.7l.35-.2v.4l-.35.25-.2.1h.05l.5-.3.05-.05.3-.25.2.15-.2-.2-.15.1-.15.1v-.35l.15-.1.3-.2-.3-.25-.15.1v-.1l-.7-.35h-.05l.7.4v.15l-.65.4h-.65l-.3-.15v.05l.2.1h-.25l.1.05h-.2l-.5-.25v-.05l-.9-.85.9-.8v-.05l.5-.35-.55.3v.1l-.9.8h-.65v-.55l1.45-.7V2.3l.95-.45h1.1L18.9 1h1.15l-.45.3h-.9l-.65.25.15.3.6-.25-.6.2-.1-.2.6-.25h.95L20.1 1h.85v.95l-.95.4h-.05l.05.05.95-.35V4.4H19.7v-.35h.75v-.3h-.05V4h-.75v.4h-.75l.65-.35-.75.35h-2.15l.75-.45V3.9l-.8.5h-1.2l-.3-.3-.3.3h-.35l.5-.45v-.1l.15-.1.35.15h-.2v.05l.4.35h.9l.7-.45V3.8l.15.1.3-.2-.3-.2-.15-.15v-.4l.15.1.15.1.2-.15h1.15l.15-.05.15.1.3-.2-.1-.05 1.55-.75-1.6.7-.1-.05-.6-.45v-.4l-.5.25-.35-.3-.35.2.35.25-.45.2h1l.55.4.1.1h-1.2l-.15-.1-.7-.5v.05l.8.55-.2.15-.3-.2h-.05l-.5-.4h-.85l.35-.15-.35-.25.25-.1.35.2-.25.15.75-.3V2l-.45.2-.35-.25-.35.15.35.25-.45.2h.95l.2.15-.5.2-.35-.2.3.25-.25.1-.3-.2.25-.15-.35.15.35.2-.4.2h.05l.15.05-.2.1.3-.1-.2-.05 1.1-.5v.35l.4.3.05.1.35.2-.2.15-.15-.1h-.05v.1l-.7.35h-.3v-.4h-.05v.4h-.45l-.4-.25h.25l-.4-.25-.25.15v.1l-.55.45.55.45v.1l.25.2.4-.3h-.1l-.35.25-.15-.2v-.05l-.5-.4h.35l.3.25.3-.25h1.2l.8.4-.75-.4h3v.35h.75v.3h.05v-.35h-.75v-.3h1.25v1l-1-.5 1 .55v1.25l-1.55-.7 1.55.75v.05l-.95-.5-.05.05-.65-.25.1-.1.1-.05-.25-.25V5.4l.7-.45-.05-.05-.7.45v.35l-1.05-.45H19l.6-.45-.05-.05-.6.45h-1l.5.2.3.15-.35.2-.25-.15.3-.2-.35.2.35.2.35-.25.4.2.2.2-.05.1h-.05l-.1.05-.05.05-.55.35v.4l-1.05-.5h.8l.55-.4-.05-.05h-1.1l.05-.05-.05-.1-.8.6v.05l.7-.45h1.2l-.5.35h-1l.45.2-.35.25.35.2.35-.25.5.2v-.4l.6-.35.65.25-.85.75h.05l.85-.7.05-.1.95.5v.9h-.85l-.45-.3h-.05l.45.3H18.9l-2.05-.85 2.05.9h4.2l2.05-.9-2.1.85H22l.35-.3-.5.3H21v-.9l1-.5.9.8h.05l-.8-.75.65-.25.55.35v.4l.45-.2.35.25.35-.2-.35-.25.3.25-.25.15-.35-.2.3-.2.45-.2h-.95l-.5-.35h1.15l.7.45v.4l.5-.25.35.3.35-.2-.35-.25.45-.2h-.15l-1.1.55v-.4l-.8-.6.2-.15.1.1h.05v-.4l.15.1v.45l.05.05.35.2-.35-.25v-.4l.35.2v.45l.45-.25-.4.2v-.4l-.4-.25-.05-.05-.15-.1h-.05l-.2-.15.2-.2.2.2h.05l.6.4h.85l-.2.15.3-.15.15.05.6-.25v-.1l.85-.8h.7v.5l-1.45.7v.8l-1 .5h.05l1-.45v-.85L28.7 5V3.8l-1.45-.65V2.3m-1.7-.1l.3-.2.3.1-.35.25.35.15h-.85l-.5.4h-.05l-.15.1-.05.05-.1.05-.2-.15.8-.55v-.35l.75.3-.25-.15m.3-.25l-.35.25L25 2v.35l-.7.5-.15.1H23.1L23 2.9l.1-.05h.05l.5-.4h.95l-.45-.2-.3-.15.35-.25.25.15-.3.25.35-.25-.35-.2-.35.3-.45-.25v.4l-.6.45-.1.05-1.65-.7 1.6.75-.1.05.25.2.2-.1.1.05h1.2l.2.15.1-.05v.45l-.25.15.25.2v.05l.75.45h-2.1l-.75-.35.65.35h-.75V4h-.75v-.25h-.05v.3h.75v.35H21V3.35l1.15.55.6-.5v-.3l.75.3-.25-.15.3-.2.3.1-.35.25.35.2H23l-.6.4-.25-.1.2.1.1.05.55-.4h1l-.45-.25.35-.25-.35-.15-.35.25-.5-.2v.35l-.6.45L21 3.3V2l1 .4.05-.05.7.35-.65-.35.85-.75h-.05l-.9.75-1-.4V1h.85l.5.35h.9l.65.25-.15.2-.55-.2.6.25.15-.3-.65-.25h-.95L22 1h1.05l2.1.85h1.05l1 .45v.85l1.45.7v.55H28l-.9-.8v-.1l-.55-.3h-.05l.55.35v.05l.85.8-.85.85v.05l-.55.25h-.1l.05-.05h-.25l.2-.1v-.25l-.1-.2h-.45V3.8h-.05v.4h-.35l-.65-.35v-.1l.65-.5h-.05l-.6.45-.05.05-.15.1h-.05l-.2-.15.2-.1.2-.2h.05l.4-.3v-.35l1.05.5h.05l-.2.05.25.1v.3l-.1.1h.05l.1-.1v-.3l-.2-.1.15-.05h.05l-.45-.2-.3-.1.35-.25-.4.2-.45-.2v.4l-.35.25v-.4l.35-.25.15-.15h1l-.45-.2.35-.25-.35-.15m-.05 2.5V5h.45l.1.15v.2l-.25.15h-.65l-.65-.4v-.15l.65-.4-.7.35v.2l-.15-.15v-.1l.8-.4h.4m0-.05h-.4l-.8-.5.15-.1v.05l.7.45h.35v.1m-2.4-2.1v-.35l1.05.45h-.85l-.55.4v.05l-.3.15-.2-.15h.1l.15-.1V2.7l.6-.4m1.2.75l.15-.1v.4l-.15.15v-.45M21 5.45v-1h1.3v.3h-.75v.35h.05v-.3h.75v-.35h2.95l-.75.4v.05l-.25.25.25.2v.35l-.1-.1-.25.2-.05.1.1.05H23.1L23 5.9l.1-.1h-.05l-.1.1-.15-.15.4-.2.35.25.35-.2-.35-.2.45-.2h-1l-.55-.45-.05.05.6.45h.85l-.35.15.35.2-.3.15-.3-.2.25-.15-.75.3v-.35l-.6-.45-.05.05.6.45v.35l-.15.2.2-.2.2.2.1.05.55.4h.85l-1.05.5v-.4l-.7-.45-.05-.05-.1-.05-.05.05.05.05-1.55.7V5.5l1.1-.55-1.1.5m1.6.65l.1.05-.6.25-.05-.05.55-.25m-1.6.75V6.8l.8-.35-.8.4m4.85 0l-.3-.25.25-.15.35.25-.3.15m-7.25-4.9v.35l.7.5h.05l.05.05-.2.15-.85-.6h-.8l1.05-.45m-.8-.1l.3.25-.25.15-.3-.25.25-.15m-.95.9l.35.2v.4l-.35-.25v-.35M15.1 4.6l-.25-.15h.5l-.25.15m-.25-.2l.25-.25.25.25h-.5m3 2.15l.25.2-.3.2-.25-.15.3-.25M26 2.7l.25.15-.3.2.4-.2L26 2.7m.4-1.2h-.05l1.35.65v.8l1.45.7V5.2l-1.45.6v.9l-1.35.55h-1.1l-2.05.9h-4.4l-2.1-.9h-1.1l-1.3-.55v-.9l-1.45-.6V3.65l1.45-.7v-.8l1.3-.65-1.35.6v.85l-1.45.65v1.6l1.45.7v.85l1.35.55h1.1l2.05.95h4.45l2.1-.95h1.1l1.35-.55V5.9l1.45-.7V3.6l-1.45-.65V2.1l-1.35-.6m2.5-.05h.05v-.4l-.4.3.7.5-.35.25 1.1.8v-.05l-1-.75.3-.25-.7-.5.3-.2v.3m.65 0v-.4L28.15.1h-.05l1.4.95v.4h.05m.1-1.25h-.45L29 .05h-.1l.25.2h.45v.4l.4.25V.85L29.65.6V.2z"/><path fill="#FAAE29" d="M29.65 37.1h-.45l-.3.2.3.25h.45v.4l.35.2v-1.7l-.35.3v.35m-1.9-.2h-.35l.1.3h.6l1.4-.95v-.4h-.55v.4l-.4-.25.7-.55-.35-.2 1.1-.75v-.45l-1.65 1.2.35.2-.75.55.65.4-.5.35-.8-.55-1.65 1.1 1.25.9.4.3.8-.6.5.35-.65.45.75.5-.35.25 1.65 1.1v-.35l-1.1-.75.35-.25-.7-.5.4-.3v.35h.55v-.3l-1.4-1h-.6l-.1.3h.5l-.6.35-1.15-.8 1.15-.8.6.4h-.15m-.95.4l.25.15.05-.15-.05-.2-.25.2m2.85-9.6h-.45l-.3.2.3.25h.45v.35l.35.25v-1.7l-.35.3v.35m-2.85.2l.25.2.05-.2-.05-.2-.25.2m1.55-2.05l.35.2-.75.5.65.45-.5.35-.8-.6-.4.3-1.25.85 1.65 1.15.8-.55.5.35-.65.4.75.55-.35.2L30 31.2v-.4l-1.1-.8.35-.2-.7-.55.4-.25v.35h.55V29l-1.4-.95h-.6l-.1.3h.5l-.6.35-1.15-.8 1.15-.8.6.4h-.5l.1.25h.6l1.4-.95v-.3h-.55v.35l-.4-.3.7-.5-.35-.2 1.1-.8v-.4l-1.65 1.2m-16 10.9l-.35-.3v1.7l.35-.2v-.4h.45l.3-.25-.3-.2h-.45v-.35m2.55.55l.05.15.25-.15-.25-.2-.05.2M12 34.05v.45l1.05.75-.3.2.7.55-.45.25v-.4h-.5v.4l1 .75q.2.1.35.2h.65l.05-.3H14.1l.55-.4 1.2.8-1.2.8-.55-.35h.45l-.05-.3h-.65l-1.35 1v.3h.5v-.35l.45.3-.7.5.3.25-1.05.75v.35l1.65-1.1-.35-.25.7-.5-.6-.45.45-.35.8.6 1.65-1.2-1.65-1.1-.8.55-.45-.35.6-.4-.7-.55.35-.2-1.65-1.2m.35-6.7l-.35-.3v1.7l.35-.25v-.35h.45l.3-.25-.3-.2h-.45v-.35m2.55.55l.05.2.25-.2-.25-.2-.05.2m-1.85-2.05l-.3.2.7.5-.45.3v-.35h-.5v.3l1.35.95h.65l.05-.25H14.1l.55-.4 1.2.8-1.2.8-.55-.35H14.55l-.05-.3h-.65l-.35.25-1 .7v.35h.5V29l.45.25-.7.55.3.2-1.05.8v.4l1.65-1.2-.35-.2.7-.55-.6-.4.45-.35.8.55 1.65-1.15-1.65-1.15-.8.6-.45-.35.6-.45-.7-.5.35-.2-1.65-1.2v.4l1.05.8m-.7-7.95l-.35-.3v1.8l.35-.3v-.35h.45l.3-.2-.3-.25h-.45v-.4m2.6.4l-.05.15.05.25.25-.25-.25-.15m-2.45-1.2v.3l1.35.95h.65l.05-.25h-.45l.55-.35 1.2.8-1.2.8-.55-.45h.45l-.05-.25h-.65l-.35.25-1 .7v.3h.5v-.3l.45.25-.7.55.3.2-1.05.75v.45l1.65-1.2-.35-.2.7-.55-.6-.4.45-.35.8.55 1.65-1.1-1.65-1.2-.8.6-.45-.4.6-.4-.7-.5.35-.25L12 15.25v.4l1.05.75-.3.25.7.5-.45.3v-.35h-.5m2.45-8.2l-.05.2.05.2.25-.2-.25-.2m-1.85.25l-.3-.3h-.45V8.5L12 8.25V10l.35-.3v-.35h.45l.3-.2m.2-1.9l.35-.25L12 5.9v.35l1.05.75-.3.25.7.5-.45.3V7.7h-.5V8l1.35.95h.65l.05-.25h-.45l.55-.4 1.2.85-1.2.8-.55-.45h.45l-.05-.25h-.65l-1.35.95v.3h.5v-.35l.45.3-.7.5.3.25-1.05.75v.4l1.65-1.15-.35-.25.7-.5-.6-.4.45-.35.8.55 1.65-1.1-1.65-1.2-.8.55-.45-.35.6-.4-.7-.5M12.8.2l.25-.15H12v.8l.35-.25V.2h.45m2.15-.05l.2-.1h-.2v.1m1.3-.1h-.45L14.65.8 14.1.45H14.55L14.5.1h-.65l-.35.3-1 .65v.4h.5v-.4l.45.3-.7.5.3.25-1.05.8v.35l1.65-1.15-.35-.25.7-.5-.6-.45.45-.3.8.55 1.6-1.1m13.4 18.25h-.45l-.3.25.3.2h.45v.35l.35.3v-1.8l-.35.3v.4m-2.6 0l-.25.15.25.25.05-.25-.05-.15m.35-.2l.1.25h.6l1.4-.95v-.3h-.55v.35l-.4-.3.7-.5-.35-.25 1.1-.75v-.4l-1.65 1.15.35.25-.75.5.65.4-.5.4-.8-.6-1.65 1.2 1.65 1.1.8-.55.5.35-.65.4.75.55-.35.2L30 21.8v-.45l-1.1-.75.35-.2-.7-.55.4-.25v.3h.55v-.3l-1.4-.95h-.6l-.1.25h.5l-.6.45-1.15-.8 1.15-.8.6.35h-.5m2.2-9.25h-.4l-.3.3.3.2h.45v.35l.35.3V8.25l-.35.25v.35h-.05m-2.5.25l-.05-.2-.25.2.25.2.05-.2M28.35 7l.35.25-.75.5.65.4-.5.35-.8-.55-1.65 1.2 1.65 1.1.8-.55.5.35-.65.4.75.5-.35.25L30 12.35v-.4l-1.1-.75.35-.25-.7-.5.4-.3v.35h.55v-.3l-1.4-.95h-.6l-.1.25h.5l-.6.45-1.15-.8 1.15-.85.6.4h-.5l.1.25h.6L29.5 8v-.3h-.55v.35l-.4-.3.7-.5L28.9 7l1.1-.75V5.9L28.35 7M26.9.05l.15.1.05-.1h-.2m.75 47.1q-.55.15-.6.2-.35.15-.5.2-.3.1-.5.15.15-.2.2-.25.15-.2.2-.3.05-.25-.15-.5-.05.1-.15.25l-.2.3q-.2.3-.35.8.3-.1.75-.1.45-.05.6-.15 1.05-.2 1.3-.9-.25.1-.6.3m.65-1.1q-.4.25-.4.3l-.3.15q-.2.05-.3.15 0-.15-.1-.4t-.1-.3q-.05-.15-.05-.3-.15.15-.2.3-.1.15 0 .4.15.25.15.3.05.2.05.45.15-.15.55-.3.35-.15.55-.25.45-.25.5-.7-.1.1-.35.2m.3-.6q.15-.15.25-.35 0-.05.1-.35-.45.15-.7.5l-.15.25q-.1.1-.25.2 0-.25-.3-.55-.15-.2-.25-.35-.15.15-.1.35.05.1.2.35.15.15.2.25.1.15.05.25.6-.2.95-.55m-.3-.8q.2-.25.25-.4.15-.5-.3-.75 0 .1-.15.3-.15.25-.2.35-.05.2 0 .5.05.1.15.4.05-.15.25-.4m-3.35 2.85q-.15.1-.4.4-.2.25-.25.35-.2.15-.4.25.35-.05.95 0 .55.05.9 0 .5-.05 1.2-.4-.15.05-.45 0h-.45q-.25 0-.75.1-.45.1-.7.1.3-.15.5-.4.15-.2.2-.3.1-.15.25-.25-.35.05-.6.15M16 48.85q.85.2 1.55.2.8 0 1.55-.2.85-.2 1.4-.2h.1q-.95.2-1.65.65l.3.25q.85-.65 1.8-.8.85.15 1.65.8l.35-.25q-.7-.45-1.65-.65h.1q.5 0 1.4.2.75.2 1.55.2.7 0 1.5-.2-.55 0-1.35-.1-.9-.1-1.35-.25-1.2-.1-2.25.05h-.05q-1.05-.15-2.2-.05-.9.2-1.35.25-.8.1-1.4.1m1.4-.95q-.2-.3-.4-.4-.2-.1-.55-.15l.25.25q.05.1.2.3.2.25.5.4-.3 0-.75-.1t-.7-.1h-.45q-.3.05-.5 0 .7.35 1.25.4.3.05.9 0 .6-.05.95 0-.25-.1-.4-.25-.05-.1-.3-.35m-3.05-.75l-.6-.3q.25.7 1.25.9.2.1.65.15.4 0 .7.1-.1-.5-.3-.8-.15-.15-.2-.3-.15-.15-.2-.25-.2.25-.1.5.05.1.2.3l.2.25q-.25-.05-.5-.15-.15-.05-.5-.2-.05-.05-.6-.2m-1.2-2.05q.1.2.25.35.35.35.95.55-.05-.1.05-.25.05-.1.2-.25.15-.25.15-.35.05-.2-.05-.35-.1.15-.3.35-.25.3-.3.55l-.2-.2-.15-.25q-.25-.35-.7-.5.1.3.1.35m.55.95q-.25-.1-.4-.2.05.45.55.7.15.1.55.25.35.15.55.3-.05-.25.05-.45 0-.05.15-.3.05-.25 0-.4-.05-.15-.2-.3 0 .15-.05.3-.05 0-.15.3-.05.25-.05.4-.1-.1-.3-.15l-.3-.15q-.05-.05-.4-.3m.4-1.4q.05-.3 0-.5-.05-.1-.2-.35-.15-.2-.2-.3-.4.25-.25.75.05.15.25.4.15.25.2.4l.2-.4m6.9-5.3v.25l1.95.9h.6v1.05h.3V40.3H23l-1.25-.6V39l.7-.4h-1v.95l-.45-.2m6.4 3.5v-1.3h-3.5v1.2H23.05l-1.25.65v.65l.8.4h-1.2v-.9l-.4.2v.9h2.05l4.35-1.8m-1.5-1.15h.55v.95h-.55v-.3h-.6v.3h-.55v-.95h.55v.3h.6v-.3m-3.1 1.25h.55v.4h.55v-.4h.55V44h-.55v-.4h-.55v.4h-.55v-1.05m2-.05h1.85l-1.85.75v-.75m-6.35-1.35h-.3v1.2h.8l1.3.6v.7l-.7.35h1v-.9l.4.2v-.3l-1.9-.85h-.6v-1m.95-2.95h1.2v.9l.35-.15v-.95h-2l-3.55 1.4-.8.35v1.4h3.5v-1.3h.85l1.25-.6V39l-.8-.4m-1.3 1.45h-.55v-1h.55v.4h.55v-.4h.55v1h-.55v-.35h-.55v.35m-2.75.1l1.85-.75v.75h-1.85m1.8.25h.05v.95h-.55V41h-.55v.35h-.55v-.95h.55v.35h.55v-.35h.5m-1.3-10.5v1H14.6v.85h-1.25v1.7h1.25v.85h1.25v1.05h3.8l1.35.6 1.3-.6H26.15V34.3h1.25v-.85h1.25v-1.7H27.4v-.85h-1.25v-1H22.3l-1.3-.6-1.35.6h-3.8m.3.2h3.6l1.25-.55 1.25.55h3.6v1h1.25v.9h1.25v1.25H27.1v.85h-1.25v1.05h-3.6l-1.25.5-1.25-.5h-3.6V34.1H14.9v-.85h-1.25V32h1.25v-.9h1.25v-1m7.2 2.75v-.45H22.1v.45h1.25m-.4-.35H23v.2h-.55v-.2h.5m1.65-.1v.45h1.2v-.45h-1.2m.35.1h.55v.2h-.55v-.2m-.8.4v.4h1.2v-.4h-1.2m.85.3h-.55V33H25v.2m-2.1-.3v.4h1.2v-.4h-1.2m.85.3h-.55V33h.55v.2m.35-.85v-.45h-1.2v.45h1.2m-.9-.3h.55v.2h-.55v-.2m.95-.15v.45h1.2v-.45h-1.2m.35.35h-.05v-.2H25v.2h-.5m-2.55.95l-.95-.5-.95.5h1.9M21 35.15l.95-.45h-1.9l.95.45m-3.65-2.75h-1.2v.45h1.2v-.45m-.3.1v.2h-.55v-.2h.55m2.8-.1h-1.2v.45h1.2v-.45m-.3.3H19v-.2h.55v.2m-1.65.2v.4h1.2v-.4h-1.2m.8.1h.05v.2h-.5V33h.45m-.85.3v-.4h-1.2v.4h1.2m-.4-.3h.1v.2H17V33h.45m.4-.65v-.45h-1.2v.45h1.2m-.8-.1H17v-.2h.55v.2h-.5m2.05.1v-.45h-1.2v.45h1.2m-.8-.1h-.05v-.2h.5v.2h-.45m2.7.25l.95-.45h-1.9l.95.45m.95-1.95L21 30.1l-.95.45h1.9m-.25-4.75l.35-.25v-.1h-.65v.1l.3.25m-1.8-.35v.1l.35.25.35-.25v-.1h-.7m-3.8-1.35l-.3.2.3.25h1v-.45h-1m.95-1.15H16.1l-.3.25.3.3h1v-.55h-.05m.05-.6v-.45h-1l-.3.2.3.25h1m7.85 1.75h-.05v.45h1l.3-.25-.3-.2H24.95m0-1.15h-.05v.55h1l.3-.3-.3-.25H24.95m0-1.05h-.05v.45h1l.3-.25-.3-.2H24.95m-3.55-1.1v.2h.65v-.2l-.35-.2-.3.2m-.8 0l-.35-.2-.35.2v.2h.7v-.2m-2.35 2.25l-.2.15.2.2-.1.1h1.05v-.55h-1l.05.1m-.7 1.05h-.05l-.15.1v-.1h-.05v.4l.1.05h1.8v-.45H18.05l.2.2-.1.1h-.25l-.25-.15-.3.2v-.2l.2-.15m.1-.7l-.2.1h.4l-.2-.1m-.05-.45h-.1l.15.1.2-.1h-.25m-.25 0h-.05v.55h.05v-.4l.15.1-.15.15.2-.15-.2-.15v-.1m.05-1.05l-.1.05v.4h.05v-.1l.15.05-.05.05h.05l.05-.05-.2-.1V22l.3.15.25-.15.25.05.1.1-.2.15.1.05h1.05v-.45h-1.8m6.9 1.5l-.1.1h.35l-.25-.1m-1.5 1.15h1.85l.05-.05v-.4h-.05v.1l-.15-.1h-.05l.2.15v.2l-.35-.2-.2.15h-.3l-.05-.1.2-.2H22.8v.45m1-1.6h-1v.55h1l-.05-.1.2-.2-.2-.15.05-.1m.85 0v.1l-.2.15.2.15v.15h.05v-.55h-.05m-.15.25l.15-.1v.2l-.15-.1m-.25-.25h-.05l.1.1.2-.1h-.25m.45-.6v-.4l-.05-.05H22.8v.45h1.1l.05-.05-.2-.15.05-.1.3-.05.2.15.35-.15v.2l-.2.1.1.05h.05l-.1-.05.15-.05v.1h.05m-3.35 2.2h.05v.05h.1v.2l-.1.1v.2l.25.15h-.25v.05h.65v-.05h-.3l.3-.2v-.1l-.15-.15v-.2h.15v-.05h.05v-.45h-.05V24h-.25v.2h-.45v.35m-.7 0v-.35h-.45V24h-.3v.1h-.05v.45h.05v.05h.15l.05.2-.2.2v.05l.35.2h-.35v.05h.7v-.05h-.25l.25-.15V24.95l-.15-.15.05-.2h.1v-.05h.05m2.1-1.35H21.7v.3l-.7.25v.4h.75v-.35H22.15v-.3H22.75v-.3m-2.45-.05v-.2l.65-.3v-.35h-.7v.35h-.4v.3h-.6v.2h1.05m1.1-1.65v.05l.1.05v.25l-.1.05h-.05v.35h.45v.15h.25v-.05h.05v-.45h-.05l-.15-.05v-.25l.15-.1v-.1l-.3-.25h-.1l-.25.2V21.5m-1.05-.35h-.1l-.35.3v.05l.2.1-.05.25-.15.05h-.05v.45h.05v.05h.3v-.15h.45v-.35h-.05l-.1-.05-.05-.25.15-.05v-.2l-.25-.2m-3.85-5.2l.4-.25.35.25v-.25l.5.2v-1.65H16v1.65l.5-.2v.25m.25-1.15l-.15.1v.2l-.3-.25.6-.45.55.45-.3.25v-.2l-.15-.1v.35l.25.15-.35.25-.4-.25.25-.15v-.35m8.75.9l.45.2v-1.65h-1.7v1.65l.5-.2v.25l.35-.25.4.25v-.25m.2-.85l-.35.25v-.2l-.15-.1v.35l.25.15-.35.25-.35-.25.25-.15v-.35l-.15.1v.2l-.35-.25.6-.45.6.45m-9.2-3.2v.3l-.5-.25v1.65h1.75V11.7l-.5.25v-.3l-.35.25-.4-.25m0 .7l.4-.3.35.3-.25.15v.35l.15-.1v-.2l.3.2-.55.45-.6-.45.3-.2v.2l.15.1v-.35l-.25-.15m4 2.85l-.2-.15h-.75v1.8l.65-.4V17l.8-.4.8.4v-.55l.6.4v-1.8h-.7l-.2.15.5.4-.45.25v-.2l-.2-.1v.35l.4.2-.75.45-.8-.45.45-.2v-.35l-.2.1v.2L20 15.6l.5-.4m1.65-1.95l.2.1.15-.1.25.15-.6.3-1-.55.45-.3h-.35l-.25.2-.3-.2h-.3l.45.3-1.05.55-.55-.3.2-.15.2.1.15-.1-.35-.15-.55.3.75.45-.75.35.55.3.35-.15-.15-.1-.2.1-.2-.15.55-.3 1.05.55-.45.3h.3l.3-.15.25.15h.35l-.45-.3 1-.55.6.3-.25.15-.15-.1-.2.1.35.15.55-.3-.7-.35.7-.45-.55-.3-.35.15m-.15.6l-1 .5-1-.5 1-.6 1 .6m2.75-2.2v.3l-.5-.25v1.65h1.7V11.7l-.45.25v-.3l-.4.25-.35-.25m0 .7l.35-.3.35.3-.25.15v.35l.15-.1v-.2l.35.2-.6.45-.6-.45.35-.2v.2l.15.1v-.35l-.25-.15m-3.4-.6v.3l.2-.1v-.2l.45.3-.5.35.15.15h.75v-1.8l-.6.4v-.5l-.8.4.75.45-.4.25m-.9 0v.2l.2.1v-.3l-.45-.25.8-.45-.8-.4v.5l-.65-.4v1.8h.8l.15-.15-.5-.35.45-.3M17.8 5.9l-.05.05h1.1l.05.05.1-.1-.1-.1h-1.15l.05.1m-.55-.45v.35l.15-.1v-.35l-.15.1m-.75-.9h.05l.7.35V5l.15-.1v-.05l-.8-.4h-1.2l-.3.25-.3-.25h-.35l.5.4v.05l.15.2.35-.25h-.2l.4-.3H16.5m.7-.7v-.1l-.65-.5h-.85l.2.05-.3.1v.3l.15.1h.45v.4h.3l.7-.35m2.4-2.55l.45-.3H18.9l-2.05.85h-1.1l-.95.45v.85l-1.45.7v.55H14l.9-.8v-.1l.55-.3.15.05.4-.2-.35-.2.35-.15.35.2.5-.2-.2-.15h-.95l.45-.2-.35-.25.35-.15.35.25.45-.2v.35l.7.5h1.25l-.55-.4h-1l.45-.2-.35-.25.35-.2.35.3.5-.25v.4l.6.45.7-.35-.9-.75h-.25l-.6.25-.15-.3.65-.25h.9m1.35 5.55V6.8l-1.55-.75-.1.1.65.25.05-.05.95.5m3.85-.95l.35.25V5.7l-.35-.2v.4m1.7-.3l-.15-.05-.3.15h-.1l.4.3-.35.15-.4-.25-.45.25.15.1h1l-.45.2.35.25-.35.2-.35-.3-.5.25v-.4L24.3 6h-1.15l.5.35h.95l-.45.2.35.25-.35.2-.35-.25-.45.2v-.4l-.55-.35-.65.25.8.75h.25l.6-.25.15.25-.65.3H22.35l-.35.3h1.05l2.1-.85h1.05l1-.5v-.8l1.45-.7v-.5h-.7l-.85.8v.1l-.6.25M15.1 4.15l-.25.25h.5l-.25-.25m2.1-1.2l-.35-.2v.35l.35.25v-.4m7.55 0l-.15.1v.45l.15-.15v-.4m.65 1.45h.4v-.1h-.35l-.7-.45V3.8l-.15.1.8.5m.4.15h-.35l-.65.4v.15l.65.4h.65l.25-.15v-.2l-.1-.15h-.45v-.45M21 2v.05l1.65.7.1-.05-.7-.35-.05.05-1-.4m2 .9l.1.05h1.05l.15-.1h-1.2l-.1.05m6.5-1.45v-.4L28.1.1h-.6l-.1.35h.5l-.6.35-1.05-.75h-.5l1.55 1.1.8-.55.5.3-.65.45.75.5-.35.25L30 3.25V2.9l-1.1-.8.35-.25-.7-.5.4-.3v.4h.55M29.2.2h.45v.4l.35.25v-.8h-1l.2.15z"/><path fill="#CA3745" d="M27.75 36.9l-.45-.35-1.1.75 1.1.75.45-.25h-.4l.1-.4h.7l1.4 1v.35H28.9v-.25l-.3.2.7.5-.3.25 1 .7V38.2l-.4-.25v-.35h-.45l-.3-.3.3-.25h.45v-.3l.4-.35v-1.9l-1 .75.3.2-.7.55.3.2v-.35H29.55v.4l-1.4.95H27.45l-.1-.3H27.75m-.6.4l-.1.3-.35-.3.35-.25.1.25m1.45-10.75l.3.2v-.25H29.55v.35l-1.4.95h-.7l-.1-.3H27.75l-.45-.35-1.1.75 1.1.75.45-.3H27.35l.1-.3H28.15l1.4.95v.35H28.9v-.3l-.3.2.7.55-.3.2 1 .75v-1.9l-.4-.3v-.35h-.45l-.3-.3.3-.25h.45v-.35l.4-.3v-1.9l-1 .75.3.2-.7.5m-1.55 1.6l-.35-.25.35-.25.1.25-.1.25m-14.6 7.7H13.05v.35l.35-.2-.75-.55.35-.2-1-.75v1.9l.4.35v.3h.4l.35.25-.35.3h-.4v.35l-.4.25v1.95l1-.7-.35-.25.75-.5-.35-.2v.25H12.45v-.35l1.4-1h.7l.1.4h-.45l.45.25 1.1-.75-1.1-.75-.45.35H14.65l-.1.3H13.85q-.15-.1-.35-.2l-1.05-.75v-.4m2.45 1.75l-.05-.3.05-.25.4.25-.4.3M13 26.5h.05v.25l.35-.2-.75-.5.35-.2-1-.75V27l.4.3v.35h.4l.35.25-.35.3h-.4v.35l-.4.3v1.9l1-.75-.35-.2.75-.55-.35-.2v.3H12.45V29l1.05-.7.35-.25H14.55l.1.3H14.2l.45.3 1.1-.75-1.1-.75-.45.35H14.65l-.1.3h-.7l-1.4-.95v-.35H13m1.9 1.65l-.05-.25.05-.25.4.25-.4.25M12.4 17.9v.35h.4l.35.3-.35.25h-.4v.3l-.4.35v1.85l1-.7-.35-.2.75-.55-.35-.2v.3h-.6v-.35l1.05-.7.35-.25H14.55l.1.3h-.45l.45.3 1.1-.7-1.1-.75-.45.25h.45l-.1.35h-.7l-1.4-1v-.35h.6v.3l.35-.2-.75-.5.35-.25-1-.7v1.85l.4.35m2.45.55l.05-.2.4.2-.4.3-.05-.3m-2.05-9.6l.35.3-.35.2h-.4v.35l-.4.35v1.85l1-.7-.35-.25.75-.5-.35-.2v.3h-.6v-.35l1.4-1h.7l.1.35h-.45l.45.35 1.1-.75-1.1-.8-.45.3h.45l-.1.4h-.7L12.45 8v-.35h.6v.3l.35-.2-.75-.5L13 7l-1-.7v1.85l.4.35v.35h.4m2.05.25l.05-.3.4.3-.4.25-.05-.25M15.7.05h-.5l-.3.15V.05h-1.8l-.3.2h-.4v.4L12 .9v1.95l1-.75-.35-.25.75-.5-.35-.2v.3H12.45v-.4L13.5.4l.35-.3H14.55l.1.35H14.2l.45.3 1.05-.7m12.05 18l-.45-.25-1.1.75 1.1.7.45-.3h-.4l.1-.3H28.15l1.4.95v.35h-.65v-.3l-.3.2.7.55-.3.2 1 .7v-1.85l-.4-.35v-.3h-.45l-.3-.25.3-.3h.45v-.35l.4-.35V15.7l-1 .7.3.25-.7.5.3.2v-.3h.65v.35l-1.4 1h-.7l-.1-.35h.4m-.7.2l.1.2-.1.3-.35-.3.35-.2m1.55-10.5l.3.2v-.3h.65V8l-1.4 1.05h-.7l-.1-.4h.4l-.45-.3-1.1.8 1.1.75.45-.35h-.4l.1-.35h.7l1.4 1v.35h-.65v-.3l-.3.2.7.5-.3.25 1 .7v-1.85l-.4-.35v-.35h-.45l-.3-.2.3-.3h.45V8.5l.4-.35V6.3L29 7l.3.25-.7.5M27.05 8.8l.1.3-.1.25-.35-.25.35-.3M28.5.9l-.4-.25-.8.55L25.7.05h-9.35l-1.7 1.15-.8-.55-.4.25.65.45-.75.5.35.25L12 3.3v2.5L13.7 7l-.35.25.75.5-.65.4.4.35.8-.6 1.75 1.25-1.75 1.15-.8-.55-.4.3.65.4-.75.5.35.25-1.7 1.2v2.8l1.7 1.2-.35.25.75.5-.65.4.4.35.8-.6 1.75 1.25-1.75 1.15-.8-.55-.4.3.65.4-.75.55.35.2-1.7 1.25v2.75l1.7 1.25-.35.2.75.5-.65.45.4.3.8-.55 1.75 1.15-1.75 1.2-.8-.55-.4.3.65.4-.75.55.35.2-1.7 1.25V34l1.7 1.25-.35.2.75.55-.65.4.4.25.8-.5 1.75 1.15-1.75 1.2-.8-.55-.4.3.65.45-.75.5.35.25L12 40.6V50h18v-9.4l-1.7-1.15.3-.25-.7-.5.6-.45-.4-.3-.8.55-.4-.3-1.3-.9 1.7-1.15.8.5.4-.25-.6-.4.7-.55-.3-.2L30 34v-2.75L28.3 30l.3-.2-.7-.55.6-.4-.4-.3-.8.55-1.7-1.2 1.3-.85.4-.3.8.55.4-.3-.6-.45.7-.5-.3-.2L30 24.6v-2.75l-1.7-1.25.3-.2-.7-.55.6-.4-.4-.3-.8.55-1.7-1.15 1.7-1.25.8.6.4-.35-.6-.4.7-.5-.3-.25 1.7-1.2v-2.8l-1.7-1.2.3-.25-.7-.5.6-.4-.4-.3-.8.55-1.7-1.15 1.7-1.25.8.6.4-.35-.6-.4.7-.5-.3-.25L30 5.8V3.3l-1.7-1.2.3-.25-.7-.5.6-.45m-2.15.6h.05l1.35.6v.85l1.45.65v1.6l-1.45.7v.85l-1.35.55h-1.1l-2.1.95h-4.45L16.7 7.3h-1.1l-1.35-.55V5.9l-1.45-.7V3.6l1.45-.65V2.1l1.35-.6h1.1l2.05-.9h4.45l2.1.9h1.05M23 10.15v.5h1.75v.45h1.8v.5h1.75V16h-1.75v.5h-1.8v.5H23v.45h-4V17h-1.75v-.5h-1.8V16h-1.8v-4.4h1.8v-.5h1.8v-.45H19v-.5h4m.1 9.25l.35.25-.3.2.4.3h-.6l-.2-.2-.2.2h-.6l.4-.3-.3-.2.35-.25.35.25.35-.25m2.15.75h-.05v-.5h.5v.3h.4v.4H25.7v.5h.9v-.4h.5v.25h.4v.45h-.4v.35l.8.35.35-.15h.35l.15.2-.3.15.3.15-.15.15-.35.05-.35-.2-.8.45v.05l.8.3.35-.15h.35l.15.2-.3.15.3.2-.15.15-.35.05-.35-.2-.8.4v.05l.8.35.35-.2h.35l.15.25-.3.15.3.15-.15.15-.35.05-.35-.2-.8.45v.3h.4v.4H27.1v.3h-.5v-.45h-.9v.5h.4v.45h-.4v.25h-.5v-.45h-1.7l-.35.3.3.2-.35.25-.35-.25-.35.25-.35-.25.3-.2-.3-.3h-.3l-.35.3.3.2-.35.25-.35-.25-.35.25-.35-.25.3-.2-.3-.3H20l-.35.3.3.2-.35.25-.35-.25-.35.25-.35-.25.3-.2-.3-.3H16.8v.45h-.5v-.25h-.45v-.45h.45v-.5h-.9V26h-.5v-.3h-.45v-.4h.45V25l-.8-.45-.35.2-.35-.05-.2-.15.3-.15-.3-.15.2-.25h.35l.35.2.8-.35v-.05l-.8-.4-.35.2-.35-.05-.2-.15.3-.2-.3-.15.2-.2h.35l.35.15.8-.3v-.05l-.8-.45-.35.2-.35-.05-.2-.15.3-.15-.3-.15.2-.2h.35l.35.15.8-.35v-.35h-.45v-.45h.45v-.25h.5v.4h.9v-.5h-.45v-.4h.45v-.3h.5v.5h-.45v.8h-1.4v4.55h1.4v.75h9.3v-.75h1.4v-4.55h-1.4v-.8h-.4m-.2.3v.75l.35.15h1.25v3.7h-.05v-.65l-1.15.65h-.05l-.35.2V26h-8.1v-.75l-.35-.2h-.05l-1.15-.65v.65h-.1v-3.7h1.3l.35-.15v-.75h8.1m-4.45-.6l-.3-.2.35-.25.35.25.35-.25.35.25-.3.2.4.3h-.6l-.2-.2-.2.2h-.6l.4-.3m-.65-.2l-.3.2.4.3h-.6l-.2-.2-.2.2h-.6l.4-.3-.3-.2.35-.25.35.25.35-.25.35.25M15.8 29.9H19.65l1.35-.65 1.35.65H26.2v.95h1.2v.9h1.3v1.7h-1.3v.95h-1.2v.95H22.35L21 36l-1.35-.65H15.8v-.95h-1.25v-.95H13.3v-1.7h1.25v-.9h1.25v-.95m-.45-.4v1h-.05v-1.05h4.5l.8-.3-.4-.15h-1.6l-.15.1h-.1l.25-.15h1.6l.5.2-.9.35h-4.45m4.15-.15l.3-.25h.1l-.4.3h-2.1l.95-.75h.05l-.85.7h1.95m-5.45 1.15h.05v.9h-1.25v2.45h1.25v.9h-.05v-.85H12.8v-2.55h1.25v-.85m1.25 4.25h.05v.95h4.45l.9.4-.5.2h-1.6l-.25-.15h.1l.15.1h1.6l.4-.15-.8-.35h-4.5v-1m3.1 1.8h-.05l-.95-.75h2.1l.4.35h-.1l-.3-.3h-1.95l.85.7m-4.2 6.55V40l4.65-1.95h4.3L27.8 40v3.1l-4.65 1.85h-4.3q-1.75-.7-3.45-1.4l-.3-.1-.9-.35m-.1 1.05q.05.2 0 .5l-.2.4q-.05-.15-.2-.4-.2-.25-.25-.4-.15-.5.25-.75.05.1.2.3.15.25.2.35m-.8 1.7q.15.1.4.2.35.25.4.3l.3.15q.2.05.3.15 0-.15.05-.4.1-.3.15-.3.05-.15.05-.3.15.15.2.3.05.15 0 .4-.15.25-.15.3-.1.2-.05.45-.2-.15-.55-.3-.4-.15-.55-.25-.5-.25-.55-.7m.1-.4q-.15-.15-.25-.35 0-.05-.1-.35.45.15.7.5l.15.25.2.2q.05-.25.3-.55.2-.2.3-.35.1.15.05.35 0 .1-.15.35-.15.15-.2.25-.1.15-.05.25-.6-.2-.95-.55m.35 1.4l.6.3q.55.15.6.2.35.15.5.2.25.1.5.15l-.2-.25q-.15-.2-.2-.3-.1-.25.1-.5.05.1.2.25.05.15.2.3.2.3.3.8-.3-.1-.7-.1-.45-.05-.65-.15-1-.2-1.25-.9m3.25.65q.2.1.4.4.25.25.3.35.15.15.4.25-.35-.05-.95 0t-.9 0q-.55-.05-1.25-.4.2.05.5 0h.45q.25 0 .7.1.45.1.75.1-.3-.15-.5-.4-.15-.2-.2-.3l-.25-.25q.35.05.55.15m.55 1.55q-.7 0-1.55-.2.6 0 1.4-.1.45-.05 1.35-.25 1.15-.1 2.2.05H21q1.05-.15 2.25-.05.45.15 1.35.25.8.1 1.35.1-.8.2-1.5.2-.8 0-1.55-.2-.9-.2-1.4-.2h-.1q.95.2 1.65.65l-.35.25q-.8-.65-1.65-.8-.95.15-1.8.8l-.3-.25q.7-.45 1.65-.65h-.1q-.55 0-1.4.2-.75.2-1.55.2m9.1-18.55v-1h-4.5l-.85-.35.45-.2h1.65l.25.15h-.15l-.1-.1h-1.65l-.35.15.8.3h4.5v1.05h-.05m1.25 0h.05v.85h1.25v2.55h-1.25v.85h-.05v-.9h1.25V31.4H27.9v-.9m-5.7-1.4l.3.25h1.95l-.85-.7.95.75h-2.1l-.4-.3h.15m-1.9-.45l.7.3.65-.3L21 29l-.7-.35m.7 7.65l-.7.25.7-.3.65.3-.65-.25m1.2-.15h-.15l.4-.35h2.1l-.95.75.85-.7H22.5l-.3.3m-.45.15l-.45-.2.85-.4h4.5v-.95h.05v1h-4.5l-.8.35.35.15h1.65l.1-.1h.15l-.25.15h-1.65m2.8 11.6q.25-.3.4-.4.25-.1.6-.15-.15.1-.25.25-.05.1-.2.3-.2.25-.5.4.25 0 .7-.1.5-.1.75-.1h.45q.3.05.45 0-.7.35-1.2.4-.35.05-.9 0-.6-.05-.95 0 .2-.1.4-.25.05-.1.25-.35m4-3.65q-.05.15-.25.4t-.25.4q-.1-.3-.15-.4-.05-.3 0-.5.05-.1.2-.35.15-.2.15-.3.45.25.3.75m.3.85q-.1.2-.25.35-.35.35-.95.55.05-.1-.05-.25-.05-.1-.2-.25-.15-.25-.2-.35-.05-.2.1-.35.1.15.25.35.3.3.3.55.15-.1.25-.2l.15-.25q.25-.35.7-.5-.1.3-.1.35m-.95 1.25q0-.05.4-.3.25-.1.35-.2-.05.45-.5.7-.2.1-.55.25-.4.15-.55.3 0-.25-.05-.45 0-.05-.15-.3-.1-.25 0-.4.05-.15.2-.3 0 .15.05.3 0 .05.1.3t.1.4q.1-.1.3-.15l.3-.15m-.85 1q.05-.05.6-.2.35-.2.6-.3-.25.7-1.3.9-.15.1-.6.15-.45 0-.75.1.15-.5.35-.8l.2-.3q.1-.15.15-.25.2.25.15.5-.05.1-.2.3-.05.05-.2.25.2-.05.5-.15.15-.05.5-.2m-4.6-7v.45h.65v.7h-.7v-.3h.35v-.15h-.45l-.95.5.95.4h.45v-.1h-.35v-.25H23.1v.6h-.65v.5l.45-.2h.6v-1.95h-.6l-.45-.2M23.3 43h-.45v.95h.45v-.4h.65v.4h.45V43h-.45v.35H23.3V43m3.1-1.25h-.45v.3h-.65v-.3h-.5v.9h.5v-.35h.65v.35h.45v-.9m-3.1-2.6h-.45v.9h.45v-.4h.65v.4h.45v-.9h-.45v.3H23.3v-.3m2.65 1.25v.4h-.65V40.4h-.5v.9h.5V41h.65v.3h.45v-.9h-.45m-6.8 2.6h-.45v.35H18.05V43h-.45v.95h.45v-.4h.65v.4h.45V43m-2-1.25h-.45v.3h-.65v-.3h-.45v.9h.45v-.35h.65v.35h.45v-.9m2.75-1.15v.25l1.1.5 1.1-.5v-.25h-.6v.15h.2V41h-.55v-.65h1.3l-1.45-.7-1.95.9h-.55v1.95h.55l1.95.9 1.45-.7h-1.3v-.65h.55v.3h-.2v.1h.6v-.3L21 41.7l-1.1.45v.3h.6v-.1h-.25v-.3H20.85v.65h-1.3v-.5h-.65v-.6H19.55v.25h-.3v.1h.4l1-.4-1-.5h-.4v.15h.3v.3h-.65v-.7h.65v-.45h1.3V41H20.25v-.25h.25v-.15h-.6m-3.2-.2v.4h-.65v-.4h-.45v.9h.45V41H16.7v.3h.45v-.9h-.45m1.35-.35v-.4h.65v.4h.45v-.9h-.45v.3H18.05v-.3h-.45v.9h.45m7.25-9.45h-1.75l1.75.85v-.85m-1.75 4.05h1.75v-.85l-1.75.85m-.2-2.25v.45h1.2v-.45h-1.2m.35.1h.55v.2h-.55v-.2m.4 1.3l.95-.45h-1.9l.95.45m.95-1.95l-.95-.4-.95.4h1.9m-6.6 2.8l-1.75-.85v.85h1.75m4.4-.9h-1.2v.4h1.2v-.4m-.9.1h.55v.2h-.55v-.2m.25.8v-.45H21v.45h1.2m-.35-.35h.05v.25h-.55v-.25h.5m-.25-.55h-1.2v.4h1.2v-.4m-.9.1h.55v.2h-.55v-.2m.3-.6v.45h1.2v-.45H21m.35.1h.55v.25h-.55v-.25m-2.2.4v.4h1.2v-.4h-1.2m.3.1H20v.2h-.55v-.2m.3.35v.45h1.2v-.45h-1.2m.4.35h-.05v-.25h.55v.25h-.5m-.4-1.3v.45h1.2v-.45h-1.2m.35.1h.55v.25h-.55v-.25m-1.5-.5v-.45h-1.2v.45h1.2m-.3-.15h-.55v-.2h.55v.2m-.4 1.1l.95-.45H16.9l1 .45m.95-1.95l-.95-.4-1 .4h1.95m-.4-1.25H16.7v.85l1.75-.85M22.2 32v-.45H21V32h1.2m-.3-.35v.25h-.55v-.25h.55m-.3-.15v-.45h-1.2v.45h1.2m-.35-.1h-.55v-.2h.55v.2m1.6.1v-.45h-1.2v.45h1.2m-.35-.3v.2h-.55v-.2h.55m-.3-.6H21v.4h1.2v-.4m-.85.1h.55v.25h-.55v-.25m-1.6-.1v.4h1.2v-.4h-1.2m.35.35v-.25h.55v.25h-.55m-.35.6V32h1.2v-.45h-1.2m.35.35v-.25h.55v.25h-.55m-.95-.85v.45h1.2v-.45h-1.2m.85.35h-.55v-.2H20v.2m5-5.45v-.7l-1.2.7H25m-8.45-4.55H15.4v.65l1.15-.65m.45-.9v.65l1.2-.65H17m0 4.75v.7h1.2l-1.2-.7m4 .55l.35-.25v-.1h-.7v.1l.35.25m1.8-.25v-.1h-.7v.1l.35.25.35-.25m1.45-.1v-.4l-.7.4h.7m-5.05.1l.35.25.3-.25v-.1h-.65v.1m-2.15-1h-.15v.5h.8V25.45h.7l-1.35-.85v-.05m-.95-1.05l-.3.25.3.25h.8v.1h.15V24h.05v-.5h-1m.95-1.15h-.15v.05h-.8l-.3.3.3.2h.8v.05h.15v-.05h.05v-.5h-.05v-.05m.65-1h-.8v.55h.15v-.05L18.4 21h-.7v.35m1.85-.75l-.35.2v.2h.65v-.2l-.3-.2m5.4 3.95v.05l-.7.45h.85v-.5h-.15m.15-.45V24h.8l.3-.25-.3-.25h-1v.5h.05v.1h.15m-.15-1.7h-.05v.5h.05v.05h.15v-.05h.8l.3-.2-.3-.3h-.8v-.05h-.15v.05m-3.6-1.6l-.35-.2-.35.2v.2h.7v-.2m3.75.55H24.25V21h-.7l1.4.85v.05h.15v-.55m-5.75-.2h-.05l.3.2.25-.2h-.05l-.2.15-.25-.15m3.05.15l-.2-.15h-.05l.25.2.3-.2h-.1l-.2.15m-1.6-.15h-.1l.3.2.25-.2h-.05l-.2.15-.2-.15m-.15 3.8V25.1l.1-.1-.1-.05m0 .05h-.05v.05l.05-.05m.7.25h-.1L21 25.1l-.3.15h-.05v.05h.7v-.05m-.35-.1l.2.1h-.4l.2-.1m.4-.2l-.05.05v-.05l-.1.05.1.1v-.05l.05.05v-.15m.7.05h-.05v.05l.05-.05m0 0v.05l.05-.05h-.05m.7.3v-.05h-.1l-.3-.15-.25.15h-.05v.05h.7m-.2-.05h-.4l.2-.1.2.1m-2.75.05v-.05l-.25-.15-.3.15h-.1v.05h.65m-.5-.05l.25-.1.2.1h-.45m-.3-.7h-1.6l1.15.7h.25l.35-.2v.05l.1-.1-.1-.05V25l-.2-.2.05-.25m-1.7-1v-.05h-.05v.5H17.45l-.1-.05v-.2l.3.2.25-.15h.25l.1.1-.1.1h.05l-.1.1h1.1v.5l.1-.05.3.15.25-.15v-.45h.05V24h.3v-.2H19.8v-.3H18.15l-.25.05-.05-.05h-.4l-.1.05m0-1.15h-.05v.5h.05v-.05l.1.05h.05l.1.05h.15l.1-.05h.35l.05.05h.95v-.05h.6v-.3h.4v-.2h-.3v-.05h-.05v-.45l-.25-.15-.3.15h-.1v.45h-1l.05.05h-.05l.05.1-.1.15h-.25l-.25-.15-.3.2v-.2l.1-.1h-.1m1.5-1.25h-.25l-1.15.75h1.75l-.15-.05-.05-.25.2-.1.1-.05-.1-.05v.05l-.35-.3m5.7 3.4h-1.6l.05.25-.2.2v-.05l-.15.05.15.1v-.05l.35.2h.25l1.15-.7m-2.35-.75H21.8v.2h.25v.1h.05v.45h.05l.25.15.3-.15.1.05v-.5h1.1l-.05-.1h.05l-.15-.1.05-.1h.3l.2.15.35-.2v.2l-.1.05H24.7v-.5h-.05v.05l-.1-.05h-.35l-.1.05-.3-.05h-1.6v.3m-1.55.4V24.6l.05-.05.3.15.25-.15.1.05V24.2h-.7m.3-1h-.6v.3l.6.25v-.55m.4-.95v-.35h-.1l-.25-.15-.3.15h-.05v.35h.7m.3.9v-.2L21 22.7v.45h.65m1.05-1.25l-.3-.15-.25.15h-.05v.45h-.05v.05h-.25v.2h.4v.3h.6v.05h.95l.05-.05h.4l.05.05h.15l.1-.05h.1l.05-.05v.05h.05v-.5h-.1l.05.1v.2l-.35-.2-.2.15h-.3l-.05-.15.1-.1h-.1l.1-.05H22.8v-.45h-.1m-.65-.4l.05-.05h-.05v.05m.05-.05v.05l.05-.05h-.05m-.7-.05l-.05.05v-.05l-.1.05.1.1v-.05h.05v-.1m-.75.05h-.05v.05l.05-.05m.1 0l-.1-.05v.1l.1-.05m2.05 0v-.1l-.15.1.15.1v-.05l.2.1-.05.25-.15.05h1.8l-1.2-.75h-.25l-.35.3m0-.45v-.2l-.35-.2-.35.2v.2h.7m3.8.4h-1.15l1.15.65v-.65m-1.6-.25v-.65h-1.2l1.2.65m-10.1 3.5v-.45l-.5.2.5.25m0-1.65l-.5.2.5.3V23m0-.7v-.45l-.5.2.5.25m12.2 2.35l.5-.25-.5-.2v.45m.5-1.45l-.5-.2v.5l.5-.3m-.5-1.35v.45l.5-.25-.5-.2m-4.45 4.45l.1.15.15-.15h-.25m-1.75 0l.1.15.15-.15h-.25m-1.5 0h-.25l.1.15.15-.15m-.75-10.05l-.45.3h.9l-.45-.3m-.85.2v.1h.4v-.35l-.4.25m1.7.1v-.1l-.4-.25v.35h.4m-3.5-.5h.45v-.3l-.45.2v.1m.6-1.05V14.85l.2-.15v.45l-.2.15.3.2.25-.2-.2-.15v-.45l.25.15V15l.2-.15-.5-.4-.55.4.25.15m.7.75v.3h.45v-.1l-.45-.2m7.4.3v-.3l-.45.2v.1h.45m-1.35.2l-.5.3h.95l-.45-.3m.85.3v-.1l-.4-.25v.35h.4m-1.75-.1v.1h.4v-.35l-.4.25m2.95-1.6V15l.2-.15-.5-.4-.5.4.2.15v-.15l.25-.15v.45l-.25.15.3.2.3-.2-.25-.15v-.45l.25.15m-5.25 1.7l-.6.45v.05h.6v-.5M16.9 12.1l-.3.25.2.1v.45l-.2-.15v-.15l-.25.15.55.4.5-.4-.2-.15v.15l-.25.15v-.45l.2-.1-.25-.25m4.95 4.95L21 16.6l-.85.45h1.7m.55-.05l-.55-.45v.5h.55V17m5.4-1.4h-.05v-.05l-.4-.25v.3l-.45-.3-.5.3v-.3l-.4.25v.55h-1.75v.5h-1.8v.5H19.5v-.5h-1.75v-.5h-1.8v-.55l-.4-.25v.3l-.45-.3-.45.3v-.3l-.4.25v.05h-.05v-1.45h-.5v1.8h1.8v.5h1.8v.5h1.75v.45h3.9v-.45h1.75v-.5h1.8v-.5h1.75v-1.8h-.45v1.45m-1.3-2v-.2h-2.35l-1.7-.8H19.5l-1.65.8H15.5v.2h-.8v.4h.8v.2h2.35l1.65.85h.9l.15.15-.5.4.35.2v-.15l.3-.2v.45l-.4.2.7.4.7-.4-.4-.2v-.45l.3.2v.15l.3-.2-.45-.4.15-.15h.85l1.7-.85h2.35V14h.75v-.4h-.75m-.9.4v-.4h-1.7v-.15l-1.5-.7h-2.85l-1.45.7v.15h-1.7v.4h1.7v.15l1.1.6-1.15-.6v-.1h-1.7v-.5h1.7v-.1l1.5-.75h2.9l1.5.75v.1h1.7v.5h-1.7v.1l-1.5.75h-.05l1.5-.75V14h1.7m-2.4-.4l.45.25-.45.2-.45-.2.45-.25m-1.6-.75h.15l-.5.3.9.5.5-.25-.15-.1-.15.1-.25-.15.4-.2.65.35-.75.45.75.35-.65.4-.4-.25.25-.15.15.1.15-.1-.5-.25-.9.5.5.3h-.5l-.25-.1-.25.1h-.5l.5-.3-.95-.5-.5.25.15.1.2-.1.25.15-.45.25-.6-.4.7-.35-.7-.45.6-.35.45.2-.25.15-.2-.1-.15.1.5.25.95-.5-.5-.3H20.75l.25.2.25-.2h.35M21 15.9l.35.2-.35.25-.35-.25.35-.2m-2.65-2.05l.45-.25.4.25-.4.2-.45-.2m3.6 0L21 13.3l-.95.55.95.45.95-.45M21 13.6l.4.25-.4.2-.45-.2.45-.25m4.1-1.5l-.3.25.25.1v.45l-.25-.15v-.15l-.2.15.5.4.5-.4-.2-.15v.15l-.25.15v-.45l.25-.1-.3-.25m-4.4.1l-.3-.25v-.1l-.35.2.5.35-.15.15h1.2l-.15-.15.45-.35-.3-.2v.1l-.3.25v-.5l.4-.2-.7-.4-.7.4.4.2v.5m.3-.9v-.05l.35.25-.35.2-.35-.2.35-.2m-1.45-.75v.2l.6.3v-.5h-.6M21 11l.85-.45h-1.7L21 11m1.4-.45h-.55v.5l.55-.3v-.2m.05-.05v.7l.4.25v-.4l.5.3.45-.3v.4l.4-.25v-.15h.05v.6l.45.2v-.25l.4.25.4-.25.05.25.4-.15v-.15H26v.55l.4.25V12l.5.3.45-.3v.35l.4-.25V12h.05v1.5h.45v-1.85H26.5v-.5h-1.8v-.45h-1.75v-.5h-3.9v.5H17.3v.45h-1.8v.5h-1.8v1.85h.5V12h.05v.1l.4.25V12l.45.3.45-.3v.35l.4-.25v-.55H16v.15l.45.15v-.25l.45.25.4-.25v.25l.45-.2v-.6h.05v.15l.4.25v-.4l.45.3.45-.3v.4l.4-.25v-.7h2.95m-6-3.9l-.25-.15-.35.25.25.15.35-.25m2.35-1.05l-.35.25h.45l.15.1-.1.1h-.05l-.55.4h-.8l1.05.5v-.4l.55-.35.05-.05.1-.05h.05l.05-.1-.2-.2-.4-.2m-.35-2.15l.3-.15-.35-.2-.25.1.3.25m.75 0v-.3l-1.05.5H19l.6.4.15-.05.15-.05-.7-.5m-1.65 2.25l-.3.25-.05.05-.5.3H15.85l1.1.55V6.4l.8-.6-.2-.15m-.15-.8v.05l.3.25-.3.2v.35l.15-.1.2.2h.7l-.35-.2.35-.2-.5-.2h1l.6-.45-.65-.3h-2.25l.75.4M16 5.7l.35.2.45.2v-.4l.4-.25.05-.05.35-.25-.2-.2-.2.2-.65.4h-.85l.3.15m0 .4l.3-.2-.25-.15-.3.25.25.1m-.4-2.4v-.3l.2-.1-.15-.05h-.05l-.15-.05-.5.35v.05l-.9.8.9.85v.05l.5.25h.2l-.1-.05h.25l-.2-.1v-.25l.1-.2h.45v-.4h-.45l-.4.3h.25l-.4.3-.25-.2v-.1l-.55-.45.55-.45v-.1l.25-.15.4.25h-.25l.4.25h.45v-.4h-.45l-.1-.1m1.65.05l.15.1.2-.15-.35-.2-.05-.1-.4-.3v-.35l-1.1.5h.85l.65.5h.05m-.95-.8L16 2.7l-.25.15.3.2.25-.1m-.1-.6l-.35.15h.85l.5.4h.05l.3.2.2-.15-.8-.55v-.35l-.75.3m.25-.15L16.1 2l-.25.1.35.25.25-.15m4.5 4.55V5.5l-1-.55-.7.45v.35l.25.25-.1.05 1.55.7m0 1.05v-.9L20 6.4l-.05.1-.85.7h-.3l-.6-.2-.1.2.6.3H19.65l.45.3h.85m2-.6h-.05l-.9-.8-1 .5v.9h.85l.5-.3h.9l.65-.3-.15-.2-.55.2h-.25m1.25-.25l.25-.15-.3-.25-.3.2.35.2m.4-1.2h-.05l-.1-.1-.2.15.8.6v.4l1.1-.55h-.85l-.15-.1-.35-.2-.05-.05-.15-.15m-4.15-.65h.5v-.65H19.7v.3h.75v.35m.5-1.35h-.5v.3h-.75v.35h1.25v-.65m0-1.8V1h-.85l-.45.35h-.95l-.6.25.1.2.6-.2h.3l.85.75H20l.95-.4M26 6.1l.25-.1-.3-.25-.3.15.35.2m-.05-.4h.1l.2-.15h-.85l-.6-.4h-.05l-.2-.2-.2.2.2.15h.05l.15.1.05.05.4.25v.4l.4-.2.35-.2M18.1 6.75l-.25-.2-.3.25.25.15.3-.2m0-4.65l-.3-.25-.25.15.3.25.25-.15m.5.2v-.35l-1.05.45h.8l.85.6.2-.15-.05-.05h-.05l-.7-.5m6.95 4.3l.3.25.3-.15-.35-.25-.25.15m-2-.85l.3-.15-.35-.2-.25.15.3.2m-1 .2l.1.05.05.05.7.45v.4l1.05-.5h-.85l-.55-.4-.1-.05-.2-.2-.2.2m-1-.85v-.35h.75v-.3H21v.65h.55m.8-.3l-.2.1.6.45v.35l.75-.3.35-.15H23l-.6-.45h-.05m1.05-2.85v.35l-.6.4v.05l-.15.1h-.1l.2.15.3-.15V2.8l.55-.4h.85l-1.05-.45M22.3 4.4v-.35h-.75v-.3H21v.65h1.3M24.25 3h-.7l.35.15-.35.25.45.25h-1l-.55.4.75.35h2.1l-.75-.45V3.9l-.25-.2.25-.15V3.1l-.1.05-.2-.15m.2-1l-.25-.15-.35.25.3.15.3-.25m-1.4 1l-.1-.05-.2.1-.25-.2.1-.05-1.6-.75V3.3l1.1.55.6-.45v-.35l.5.2.35-.25h-.5m.7-1.2l.15-.2-.65-.25h-.9l-.5-.35H21v.95l1 .4.9-.75h.3l.55.2m1.65 1.45H26.25l-1.05-.5v.35l-.4.3h-.05l-.2.2-.2.1.2.15h.05l.15-.1.05-.05.6-.45m1.65.35v-.05l-.55-.35-.1.05h-.05l-.15.05.2.1v.3l-.1.1h-.45v1.15h.45l.1.2v.25l-.2.1h.25l-.05.05h.1l.55-.25v-.05l.85-.85-.85-.8m-.8-.75L26 2.7l-.35.25.3.1.3-.2m-.1-.35l-.35-.15-.75-.3v.35l-.8.55.2.15.1-.05.05-.05.15-.1h.05l.5-.4h.85m-.3-.5l-.3.2.25.15.35-.25-.3-.1M29.6.25h-.45l-.25-.2h-1.75l-.1.15-.25-.15h-.5l1 .7.45-.3H27.35l.1-.35H28.15l1.4.95v.4H28.9v-.3l-.3.2.7.5-.3.25 1 .75V.9l-.4-.25v-.4z"/><path fill="#28AE66" d="M14.25 40v3.1l.85.35.3.1q1.7.7 3.45 1.4h4.25l4.65-1.85V40l-4.65-1.9h-4.25l-4.6 1.9m1.15-.2l3.55-1.4h4.1q1.65.6 3.3 1.3.1.05.25.1l.85.35v2.75l-4.4 1.8h-4.1l-4.4-1.8v-2.75l.85-.35m4.35-9.65H16.2v.95h-1.25v.95H13.7v1.15h1.25v.9h1.25v.95h3.55l1.25.6 1.25-.6h3.55v-.95h1.25v-.9h1.25v-1.15h-1.25v-.95H25.8v-.95h-3.55l-1.25-.5-1.25.5m-.05.4h.25l1.05-.5 1.05.5h.2V31h.65v.55h-.65v.5h-.2L21 32.5l-1.05-.45h-.25v-.5h-.6V31h.6v-.45m-3.05 0h1.95l-1.95.95v-.95m2.5 1.3v.5h.75v.55h-.75v.45h-.2l-1.05.5-1.05-.5h-.25v-.45h-.5v-.55h.5v-.5h.25l1-.45h.05l1.05.45h.2m.55 1.35h.25l1.05-.5 1.05.5h.2v.5h.65v.5h-.65v.5h-.2l-1.05.5-1.05-.5h-.25v-.5h-.6v-.5h.6v-.5m-1.1 1.5h-1.95v-.95l1.95.95m5.5-3.3l1.05.45h.25v.5h.45v.55h-.45v.45h-.25l-1.05.5-1.05-.5h-.2v-.45h-.75v-.55h.75v-.5h.2l1.05-.45m1.25 2.35v.95h-2l2-.95m-2-3.2h2v.95l-2-.95m-3.75-10.7l.3-.2-.3-.2-.35.25-.35-.25-.3.2.3.2-.35.3H19l.25-.25.2.25h.5l-.35-.3m1.75-.4l-.35.25-.35-.25-.3.2.3.2-.35.3h.45l.25-.25.2.25h.5l-.35-.3.3-.2-.3-.2m5.25 4.9V22.1l-2.9-1.6h-5.4l-2.95 1.6v2.25l1.65.9 1.3.7h5.4l2.9-1.6m-3.75-3.55v.15h1.45v.4H25.15v.5h.75l.35.25-.3.25.3.35-.3.25.3.25-.3.3.3.25-.3.25.3.3-.35.3h-.75v.5h-.85v.4h-1.45v.15l-.4.2-.35-.2-.4.2-.35-.2-.35.2-.35-.2-.4.2-.35-.2-.35.2-.4-.2v-.15H17.7V25.1h-.85v-.5h-.8l-.3-.3.3-.3-.3-.25.3-.25-.3-.3.3-.25-.3-.25.3-.35-.3-.25.3-.25h.8v-.5H17.7V20.95h1.45v-.15l.4-.25.35.25.35-.25.4.25.35-.25.35.25.35-.25.4.25.35-.25.4.25m.65.2h-5l-1.4.85V24.55l1.4.9H23.5l1.4-.9v-2.7L23.5 21m-.35.15h.25l1.25.75.05.05v2.55l-.05.05-1.25.75H18.55l-1.15-.75-.1-.05v-2.55l.1-.05 1.15-.75h.35l.3.25.1.05-.1.05-.15.1.05.25.1.05h.1l.3-.15.25.15h.05l.15-.05.05-.25-.2-.1-.05-.05h.05l.35-.3h.1l.25.2.05.05.1.05-.1.05-.05.05-.15.05.05.25.1.05h.1l.3-.15.25.15H21.4l.1-.05v-.25l-.1-.05h-.05l-.1-.1.1-.05.05-.05.25-.2h.1l.3.25.05.05h.05l-.05.05h-.05l-.15.1v.25l.15.05h.1l.25-.15.3.15h.1l.1-.05.05-.25-.15-.05-.15-.1.15-.1.25-.2h.1m-2.45 0h.55l-.25.2-.3-.2m1.5 0h.5l-.3.2-.25-.2h.05m-2.9 0h.55l-.25.2-.3-.2m-.1 3.45h-.1l-.05.2.15.15.1.05-.1.1-.3.15h.4l.3-.15.25.15H20.25l-.35-.2-.05-.05h.05l.2-.2-.05-.2h-.15l-.05-.05-.25.15-.3-.15-.1.05m-1.85-.85v.2l.1.05.1.1-.2.15v.2l.3-.2.25.15h.25l.1-.1-.2-.2.1-.1.1-.1-.1-.1h-.25l-.25.15-.3-.2m0-.9v.2l.2.15-.2.15v.2l.1-.05.2-.1.2.1.05.05.25-.05.1-.1-.2-.2.2-.15-.05-.1-.05-.05h-.25l-.05.05-.2.1-.15-.1-.05-.05-.1-.05m.15-.5l-.05.05-.1.1v.2l.3-.2.25.15h.25l.1-.15-.05-.1-.05-.05-.1-.05.2-.15-.1-.1-.25-.05-.25.15-.3-.15v.2l.2.1-.05.05m6.3 1.45l-.05.1.15.1.05.1-.2.2.05.1h.3l.2-.15.35.2v-.2l-.2-.15.1-.1.1-.05v-.2l-.35.2-.2-.15h-.3m.4-.85l-.1-.05h-.3v.05l-.05.1.2.15-.2.2.05.1.3.05.1-.05.1-.1.25.1.1.05v-.2l-.2-.15.2-.15v-.2l-.05.05-.1.05-.2.1-.1-.1m.4-.55l-.05-.05-.1-.05.2-.1V22l-.35.15-.2-.15-.3.05-.05.1.2.15-.05.05-.05.05-.1.1.05.15h.3l.2-.15.35.2v-.2l-.05-.1M21 23.75l.65-.25v-.3H21v.55m1.05.85h-.15v.2l.15.15.05.05h.05l-.05.05h-.05l-.3.2H22.15l.25-.15.3.15h.35l-.25-.15-.15-.1.15-.05.15-.15-.05-.2h-.1l-.1-.05-.3.15-.25-.15h-.05l-.05.05m-1.45 0h-.1l-.05.2.15.15h.05l.1.05-.1.1h-.05l-.25.15h.35l.3-.15.25.15h.4l-.25-.15h-.05l-.1-.1.1-.05.05-.05.1-.1v-.2H21.35l-.1-.05-.25.15-.3-.15-.05.05h-.05m-.25-1.65v.2h.6v-.45l-.6.25m.65 3.8l.35.25.3-.2-.3-.2.35-.3h-.5l-.2.2-.25-.2h-.45l.35.3-.3.2.3.2.35-.25m2.45-.45h-.5l-.2.2-.25-.2h-.45l.35.3-.3.2.3.2.35-.25.35.25.3-.2-.3-.2.35-.3m2.6-.2h-.35v.2h-.45v.45h.4v-.3h.4v-.35m1-.4H27.45v-.35h-.35v.2h-.45v.4h.4v-.25m-10.75.4h-.4v.35h.4v.3h.45v-.45h-.45v-.2m-.95-.15v-.4h-.45v-.2h-.4v.35h.45v.25h.4m3.2.35l.35.3-.3.2.3.2.35-.25.35.25.3-.2-.3-.2.35-.3h-.5l-.2.2-.25-.2h-.45M16.3 20h-.4v.35h.4v-.2h.45v-.45h-.45v.3m-2.9 4.7h.3l.4-.15.8.4v-.3l-.6-.25.6-.25v-.3l-.8.4-.4-.25-.3.1-.1.1.3.2-.3.15.1.15m1.5-2.4l-.6-.25.6-.25v-.3l-.8.4-.4-.2-.3.05-.1.1.3.2-.3.15.1.15h.3l.4-.2.8.45v-.3m0 .65v-.25l-.8.35-.4-.2-.3.05-.1.1.3.2-.3.2.1.15h.3l.4-.15.8.35v-.25l-.6-.3.6-.25m.05-2.5v.3h-.45v.35h.4v-.25h.45v-.4h-.4m12.15 3.4v.3l.6.25-.6.25v.3l.8-.4.35.15h.3l.15-.15-.3-.15.3-.2-.15-.1-.3-.1-.35.25-.8-.4m0-1.55v.3l.8-.45.35.2h.3l.15-.15-.3-.15.3-.2-.15-.1-.3-.05-.35.2-.8-.4v.3l.6.25-.6.25m0 .4v.25l.6.25-.6.3v.25l.8-.35.35.15h.3l.15-.15-.3-.2.3-.2-.15-.1-.3-.05-.35.2-.8-.35m-.45-2.25v.4h.45v.25h.35v-.35h-.4v-.3h-.4m-1.4-.75v.45h.45v.2h.35V20h-.4v-.3h-.4m-1.85-.05l-.3-.2-.35.25-.35-.25-.3.2.3.2-.35.3h.45l.25-.25.2.25h.5l-.35-.3.3-.2m-5.55-5.4h-.05v2.15l.45-.3v.35l.4-.25.4.25v-.35l.45.3v-1.35l-1.65-.8m.7.9l-.15.15v.25l-.35-.3.6-.4.6.4-.35.3v-.25l-.15-.15v.45l.25.15-.35.2-.35-.2.25-.15v-.45m-.3-3.65l-.45-.3v2.15h.05l1.65-.8V11.2l-.45.3v-.35l-.4.3-.4-.3v.35m.65.85v-.25l.35.25-.6.4-.6-.4.35-.25v.25l.15.1v-.4l-.25-.15.35-.25.35.25-.25.15v.4l.15-.1m-3.8 0l-.4-.25v.3l-.45-.2v1.3h-.55v.6h.55v1.4l.45-.3v.35l.4-.3.45.3v-.35l.4.3v-1.25h-.5V14h-.8v-.4h.8v-.25h.5V12.2l-.4.2v-.3l-.45.25m.15.5l.2-.2q.05.45-.15.55l-.1.05H15l-.1-.05q-.15-.1-.15-.55l.2.2.15-.15.15.15m.2 2.1l-.2-.2-.15.2-.15-.2-.2.2q0-.45.15-.55.088-.044.15-.05h.1q.066.008.15.05.2.1.15.55m8.75-.7h-.05l-1.65.8h-.05v1.35l.45-.3v.35l.45-.25.4.25v-.35l.45.3v-2.15m-1 .9l-.15.15v.25l-.3-.3.6-.4.55.4-.3.3v-.25l-.15-.15v.45l.25.15-.35.2-.4-.2.25-.15v-.45m-4.4-1.55l-.35.25.35.15.3-.15-.3-.25m2.45 2.5l-.25-.15-.3.15.3.2.25-.2m.1-2.25L21 13.6l-.35.25.35.15.35-.15m2.2 0l-.35-.25-.35.25.35.15.35-.15m3.35-1.5h-.05l-.4-.25v.3l-.45-.2v1.15h.55v.25h.75v.4h-.75v.25H26v1.25l.45-.3v.35l.45-.3.4.3v-.35l.45.3v-1.4h.5v-.6h-.5v-1.3l-.45.2v-.3l-.4.25m-.15.5l.15-.15.1.15.25-.2q0 .2-.05.35 0 .15-.15.2-.05.05-.15.05-.15 0-.2-.05-.2-.1-.2-.55l.25.2m.15 1.5q.1 0 .15.05.2.1.2.55l-.25-.2-.1.2-.15-.2-.25.2q0-.45.2-.55.05-.05.2-.05m-3.15-2.85v-.35l-.4.3-.45-.3v.35l-.45-.3v1.35h.05l1.65.8h.05V11.2l-.45.3m-.7.6v.25l.15.1v-.4l-.25-.15.4-.25.35.25-.25.15v.4l.15-.1v-.25l.3.25-.55.4-.6-.4.3-.25m-1.8-.6l-.25-.2-.3.2.3.15.25-.15m6.45-8.55v-.8l-1.35-.65h-1.1L23.2.65h-4.4l-2.1.85h-1.1l-1.3.65v.8l-1.45.7V5.2l1.45.6v.9l1.3.55h1.1l2.1.9h4.4l2.05-.9h1.1l1.35-.55v-.9l1.45-.6V3.65l-1.45-.7M26.25 1.8l1 .5v.85l1.45.65V5l-1.45.65v.85l-1 .45h-1.1l-2.05.9h-4.2l-2.05-.9h-1.1l-1-.45v-.85L13.3 5V3.8l1.45-.65V2.3l1-.5h1.1L18.9.95h4.2l2.05.85h1.1M19.9 4.9l-.25-.1h-.05l-.6.45h-.85l1.05.45v-.35l.7-.45m-1.5.85l.35-.2-.3-.15-.3.2.25.15M18.45 3h-.7l-.2.15-.15-.1v.45l.3.2-.3.2v.05l-.75.45h2.15l.75-.35-.6-.4h-1l.5-.25-.35-.25.35-.15m2.5.35v-1.3l-1.55.75.1.05-.3.2-.15-.1-.15.05h-.45l.35.25.45-.2v.35l.65.5 1.05-.55m2.25 2.2l-.4.2.15.15.1-.1h.5l-.35-.25m.8-.35l-.45.2.35.2-.35.2h.65l.25-.2.1.1v-.35l-.25-.2.25-.25v-.05l.75-.4h-2.2l-.65.3.55.45h1m-1.45.85L22.5 6l.05-.05.15-.2V5.4l-.6-.45-1.1.55v1.25l1.55-.7m.7-2.8l.25.15.35-.25-.3-.1-.3.2m-.5-.15v.3l-.6.5.25.1.6-.4h.85l-.35-.2-.75-.3M100 50.05V0H35.35v.05H30V50H12V.05H8.35V0H0v50.05h100m-47.45-39.5q.1-1.45-.7-2.8-.75-1.3-2.2-2.2 2.25.75 3.6 2.25 1.4 1.6 1.4 3.45 0 1.3-.65 2.45-.6 1.15-1.75 2-1.15.85-2.65 1.35-1.55.45-3.2.45-1.55 0-2.95-.35Q42.1 16.7 41 16q1.4.5 2.9.5 1.7.05 3.25-.4 1.5-.4 2.7-1.2 1.2-.85 1.9-1.9.75-1.15.8-2.45M41.15 5.6l-.35-.85.95.55.9-.55-.35.85.95.5H42.1l-.35.85-.35-.85h-1.2l.95-.5m3.3 2.15l.9-.55-.35-.8.95.5.95-.5-.35.8.9.55H46.3l-.35.8-.35-.8h-1.15m-2.7.75l.9-.55-.35.85.95.5H42.1l-.35.85-.35-.85h-1.2l.95-.5-.35-.85.95.55m-.6 3.5l-.35-.85.95.55.9-.55-.35.85.95.5H42.1l-.35.85-.35-.85h-1.2l.95-.5M36.6 9.5l.9.55.95-.55-.35.85.95.5H37.9l-.4.85-.35-.85H36l.95-.5-.35-.85z"/><path fill="#FFF" d="M23.85 41.55h-.3v1h-.6L21 43.4v.3l.45-.2v.9h1l-.7-.35v-.7l1.25-.6H23.85v-1.2m3.55-1.4l-.8-.35q-.15-.05-.25-.1-1.65-.7-3.3-1.3H21v.9l.4.2v-.9h1.2l-.8.4v.65l1.25.6h.85v1.3h3.5v-1.4m-1.45.25h.5v.95h-.55V41h-.6v.35h-.55v-.95h.55v.35h.6v-.35h.05m-3.15-1.35h.55v.4h.55v-.4h.55v1h-.55v-.35h-.55v.35h-.55v-1m2 1.1v-.75l1.85.75H24.8m-6.65 2.6h-.05v-1.2h-3.5v1.3l4.35 1.8h2v-.9l-.35-.2v.9h-1.2l.8-.4v-.65l-1.25-.65h-.8m-1.5-1.05h.55v.95h-.55v-.3h-.55v.3h-.55v-.95h.55v.3h.55v-.3m-1.3 1.2h1.85v.75l-1.85-.75m3.3.05h.55V44h-.55v-.4h-.55v.4h-.55v-1.05h.55v.4h.55v-.4m.3-2.65h-.8v1.25h.3V40.5h.6l1.9-.9v-.25l-.4.2v-.95h-1l.7.4v.7l-1.3.6m.9.6v-.35h.7v.25h-.25v.2h.5v-.65h-1.2v.5h-.65v.55h.55v-.15h-.3v-.2h.45l1.1.5-1.1.45h-.45v-.2h.3v-.2h-.55v.6h.65v.45h1.2v-.6h-.5v.25h.25v.2h-.7v-.35l1.15-.5 1.15.5v.35h-.7v-.2h.2v-.25h-.45v.6h1.2v-.45h.65v-.6h-.6v.2h.35v.2h-.5l-1.05-.45 1.05-.5h.5v.2h-.35v.15h.6v-.55h-.65v-.5h-1.2V41h.45v-.2h-.2v-.25h.7v.35l-1.15.5-1.15-.5m3.1-8.2v-.2h-.45v.2h.45m.8-.2v.2h.45v-.2h-.45m1.25 0v.2h.45v-.2H25m-.05.7V33h-.45v.2h.45m-1.25 0V33h-.45v.2h.45m-.45-1.15v.2h.45v-.2h-.45m1.25 0v.2h.45v-.2h-.45m-2.5 1.8V34h.45v-.15H22m-.15.7v-.25h-.45v.25h.45m-1.1-.7V34h.45v-.15h-.45m.65-.5v.15h.45v-.15h-.45m-1.9.5V34h.45v-.15h-.45m.65.45v.25h.45v-.25h-.45m0-.95v.15h.45v-.15h-.45M17 32.7v-.2h-.45v.2H17m2.5 0v-.2h-.45v.2h.45m-1.25 0v-.2h-.45v.2h.45m.45.5V33h-.4v.2h.4m-1.25 0V33h-.4v.2h.4m-.4-1.15v.2h.4v-.2h-.4m1.25 0v.2h.4v-.2h-.4m3.55-.2v-.15h-.45v.15h.45m-.65-.45v-.15h-.45v.15h.45m1.25 0v-.15H22v.15h.45m-1.05-.65v.15h.45v-.15h-.45m-1.25 0v.15h.45v-.15h-.45m0 .95v.15h.45v-.15h-.45m-.2-.3v-.15h-.45v.15h.45m-.6-10.25l.25.15.2-.15h-.45m3.25 0h-.4l.2.15.2-.15m-1.6.15l.2-.15h-.4l.2.15m.2 3.95l-.2-.1-.2.1h.4m1 0h.4l-.2-.1-.2.1m-2.6-.1l-.25.1h.45l-.2-.1m-2.25-1.05v.1l.15-.1-.15-.1v.1m.15-.9l-.15-.1v.25l.15-.15m-.15-.85v.05l.1-.05.05-.05-.15-.05v.1m7.3 1.65l-.15.1.15.1V24m0-.9l-.15.1.15.1v-.2m-.05-.75l.05.05V22.25l-.15.05.1.05m-3.65 1.4l-.65-.25v-.3h-1.05v.3H19.85v.3H20.25v.35h.7v-.4m.75-.8v.2h1.05v-.2h-.6v-.3h-.4v-.35H21v.35l.7.3m-3.35-7.5v-.2l.25-.15v.5l-.25.15.3.15.3-.15-.25-.15v-.5l.25.15v.2l.2-.2-.5-.35-.5.35.2.2m0-3.1v-.15l-.2.15.5.35.5-.35-.2-.15v.15l-.25.15V12l.25-.1-.3-.2-.3.2.25.1v.5l-.25-.15m-3.1 2.35l.15.15q0-.35-.15-.45-.041-.041-.1-.05h-.1q-.056.006-.1.05-.15.1-.15.45l.2-.15.1.15.15-.15m.15-1.95l-.15.15-.15-.15-.1.15-.2-.15q0 .35.15.45l.05.05h.2l.05-.05q.15-.1.15-.45m7.4 2.5l.2.2v-.2l.25-.15v.5l-.2.15.3.15.25-.15-.2-.15v-.5l.25.15v.2l.2-.2-.5-.35-.55.35m4.25-.85q-.05-.05-.15-.05-.15 0-.2.05-.1.1-.15.45l.2-.15.15.15.1-.15.2.15q0-.35-.15-.45m.15-1.65l-.2.15-.1-.15-.15.15-.2-.15q.05.35.15.45.05.05.2.05.1 0 .15-.05.15-.1.15-.45m-4.2-.4v-.15l-.2.15.55.35.5-.35-.2-.15v.15l-.25.15V12l.2-.1-.25-.2-.3.2.2.1v.5l-.25-.15m-3.45-7.6l.05.05h.05v-.35h-.75l.65.3m.1-.35V4l-.1.05-.65.35h.75m-2.8 1.3v.45l.35-.25v-.4l-.35.2m-1.15-.15l-.25.05-.55-.25v-.1l-.85-.8h-.7v.5l1.45.7v.8l.95.5h1.1l2.05.85h1.15l-.45-.3h-.9l-.65-.3.15-.25.6.25h.25l.85-.75-.65-.25-.6.35v.4l-.5-.2-.35.25-.35-.2.35-.25-.45-.2h1l.5-.35h-1.2l-.7.45V6.85l-.45-.25-.35.3-.35-.2.35-.25-.45-.2H16.65l.2-.1-.5-.25-.35.25-.35-.15.35-.3-.3-.15m.05-.55l-.15.15v.2l.3.15h.65l.65-.4v-.15l-.7-.4h-.3V5h-.45m1.5-1.2v.05l-.7.45h-.9l-.4-.35V3.9h.2l-.35-.15-.15.1v.1l-.5.45h.35l.3-.3.3.3h1.2l.8-.5-.15-.1m.15-.75l-.15-.1v.4l.15.15v-.45m.4-.1H19l-.1-.1h-1.25l.15.1m1.45-.25l.1.05 1.6-.7-.95.35-.05-.05-.7.35m5.5 3.2v-.45l-.15-.1v.4l.15.15m-3.8-.8h-.55v-.3h-.75l.25.1.05.05 1 .5V5.1m0-1.35v-.4l-1.05.55-.15.05-.1.05h.75v-.25h.55m-6.1.7l.25.15.25-.15h-.5M21 6.8v.05l.8-.4-.8.35m1.7-.65l-.1-.05-.55.25.05.05.6-.25m.4-.35l-.1.1.1.05h1.15l-.1-.05.05-.1h-1.1m-.75-1h.05l.05-.05.65-.3h-.75v.35M21 5.1v.35l1.1-.5.05-.05.2-.1h-.75v.3H21m4.8-.55v-.1h-.4l-.8.4v.1l.15.15v-.2l.7-.35h.35M22.35 4v.4h.75l-.65-.35-.1-.05m-.8-.25h.05V4h.75l-.2-.1L21 3.35v.4h.55m3.6-1.05l-.35.25v.4l.35-.25v-.4m1.15.55H25.45l-.65.5v.1l.65.35h.35v-.4h.45l.1-.1v-.3l-.25-.1.2-.05m-.8-1.05l.35-.25.35.15-.35.25.45.2h-1l-.15.15.45.2.4-.2.35.15-.4.2.45.2.1-.05h.05l.55.3v.1l.9.8h.65v-.55l-1.45-.7V2.3l-1-.45h-1.05L23.05 1H22l.35.3h.95l.65.25-.15.3-.6-.25h-.25l-.85.75.65.35.6-.45v-.4l.45.25.35-.3.35.2-.35.25.45.2h-.95l-.5.4h1.15l.7-.5V2l.5.2m12 7.85l-.9-.55.35.85-.95.5h1.15l.35.85.4-.85h1.15l-.95-.5.35-.85-.95.55m3.3 1.1l.35.85-.95.5h1.2l.35.85.35-.85h1.15l-.95-.5.35-.85-.9.55-.95-.55m1.85-3.2l-.9.55-.95-.55.35.85-.95.5h1.2l.35.85.35-.85h1.15l-.95-.5.35-.85m2.7-.75l-.9.55h1.15l.35.8.35-.8h1.15l-.9-.55.35-.8-.95.5-.95-.5.35.8M40.8 4.75l.35.85-.95.5h1.2l.35.85.35-.85h1.15l-.95-.5.35-.85-.9.55-.95-.55m11.05 3q.8 1.35.7 2.8-.05 1.3-.8 2.45-.7 1.05-1.9 1.9-1.2.8-2.7 1.2-1.55.45-3.25.4-1.5 0-2.9-.5 1.1.7 2.45 1.15 1.4.35 2.95.35 1.65 0 3.2-.45 1.5-.5 2.65-1.35 1.15-.85 1.75-2 .65-1.15.65-2.45 0-1.85-1.4-3.45-1.35-1.5-3.6-2.25 1.45.9 2.2 2.2z"/></g></defs><use xlink:href="#a" transform="scale(2 2.0979)"/></svg>