<svg xmlns="http://www.w3.org/2000/svg" xmlns:xlink="http://www.w3.org/1999/xlink" preserveAspectRatio="none" width="200" height="105"><defs><path fill="#EE333E" d="M182.5 465.5h215.95V321.55H182.5V465.5z" id="a"/><path fill="#FFF" d="M265 368.05q-10.55 10.5-10.55 25.45T265 419q10.55 10.55 25.5 10.55T315.95 419q10.55-10.55 10.55-25.5 0-14.9-10.55-25.45-10.5-10.55-25.45-10.55T265 368.05z" id="b"/><path fill="#EE333E" d="M301.6 387.9l-6.4-9.6-.45 11.45-11.15 3.15 10.9 4-.55 11.5 7.15-9.05 10.8 4.05-6.4-9.65 7.2-8.95-11.1 3.1z" id="c"/><path fill="#EE333E" d="M273.55 376.6q-7 7-7 16.9 0 9.95 7 16.95t16.95 7q5.75 0 10.55-2.45l-1.55.05q-8.9 0-15.25-6.3-6.3-6.3-6.3-15.25 0-8.9 6.3-15.2 6.35-6.3 15.25-6.3l1.55.05q-4.9-2.45-10.55-2.45-9.95 0-16.95 7z" id="d"/></defs><use xlink:href="#a" transform="matrix(.92612 0 0 .72935 -169 -234.5)"/><use xlink:href="#b" transform="matrix(.92612 0 0 .72935 -169 -234.5)"/><use xlink:href="#c" transform="matrix(.92612 0 0 .72935 -169 -234.5)"/><use xlink:href="#d" transform="matrix(.92612 0 0 .72935 -169 -234.5)"/></svg>