<svg xmlns="http://www.w3.org/2000/svg" xmlns:xlink="http://www.w3.org/1999/xlink" preserveAspectRatio="none" width="200" height="105"><defs><path fill="#F2653F" d="M182.5 465.5h215.95V321.55H182.5V465.5z" id="a"/><path fill="#FFF" d="M229.2 368.15q-10.55 10.5-10.55 25.35 0 14.9 10.55 25.4 10.5 10.55 25.35 10.55 8.3 0 15.9-3.95 7.15-3.7 12.25-10.1-7.6 6.85-19.15 6.85-11.9 0-20.3-8.4-8.4-8.45-8.4-20.35 0-11.9 8.4-20.3t20.3-8.4q11.6 0 19.15 6.9-5.1-6.45-12.25-10.15-7.6-3.95-15.9-3.95-14.85 0-25.35 10.55z" id="b"/><path fill="#FFF" d="M302.9 387.2l-7.3-10.75-.35 12.9-12.5 3.6 12.25 4.4-.5 12.95 7.95-10.25 12.15 4.45-7.3-10.8 8.05-10.1-12.45 3.6z" id="c"/></defs><use xlink:href="#a" transform="matrix(.92612 0 0 .7297 -169 -234.65)"/><use xlink:href="#b" transform="matrix(.92612 0 0 .7297 -169 -234.65)"/><use xlink:href="#c" transform="matrix(.92612 0 0 .7297 -169 -234.65)"/></svg>