<svg xmlns="http://www.w3.org/2000/svg" xmlns:xlink="http://www.w3.org/1999/xlink" preserveAspectRatio="none" width="200" height="105"><defs><path fill="#FFF" d="M159.95 463.05H448V319H159.95v144.05z" id="a"/><path fill="#EE333E" d="M448 347.8V319H159.95v28.8H448z" id="b"/><path fill="#EE333E" d="M100 50V39.95L0 40v10h100z" id="c"/><path fill="#A4D2F1" d="M174.35 353.6l93.6 37.45-93.6 37.4H448V353.6H174.35z" id="d"/><g id="e"><path fill="#373535" d="M405.05 338.7l6.15-4.45 6.1 4.45-2.3-7.25 6.15-4.4h-7.6l-2.35-7.2-2.35 7.15h-7.6l6.2 4.5-2.4 7.2m9.65-7.35v.1l2.15 6.6-5.65-4.1-5.65 4.1 2.15-6.55.05-.1-5.75-4.15h7.05l2.15-6.6 2.15 6.65h7l-5.65 4.05z"/><path fill="#FFF" d="M414.7 331.45v-.1l5.65-4.05h-7l-2.15-6.65-2.15 6.6H402l5.75 4.15-.05.1-2.15 6.55 5.65-4.1 5.65 4.1-2.15-6.6z"/></g><g id="f"><path fill="#373535" d="M371.75 334.95l6.2 4.5-2.35 7.2 6.1-4.45 6.1 4.45-2.3-7.25 6.15-4.4h-7.55l-2.4-7.2-2.3 7.15h-7.65m6.45 4.5l.05-.1-5.75-4.15h7.1l2.1-6.6 2.2 6.65h6.95l-5.65 4.05v.1l2.15 6.6-5.65-4.1-5.6 4.1 2.1-6.55z"/><path fill="#FFF" d="M378.25 339.35l-.05.1-2.1 6.55 5.6-4.1 5.65 4.1-2.15-6.6v-.1l5.65-4.05h-6.95l-2.2-6.65-2.1 6.6h-7.1l5.75 4.15z"/></g><g id="g"><path fill="#373535" d="M385.9 366.45l6.2 4.5-2.4 7.15 6.15-4.45 6.15 4.45-2.35-7.2 6.1-4.45h-7.55l-2.35-7.2-2.35 7.2h-7.6m.75.25h7.05l2.15-6.65 2.15 6.65h7l-5.65 4.1v.1l2.15 6.55-5.65-4.1-5.65 4.1 2.15-6.5.05-.1-5.75-4.15z"/><path fill="#FFF" d="M393.7 366.7h-7.05l5.75 4.15-.05.1-2.15 6.5 5.65-4.1 5.65 4.1-2.15-6.55v-.1l5.65-4.1h-7l-2.15-6.65-2.15 6.65z"/></g><g id="h"><path fill="#373535" d="M394.7 394.15h-7.65l6.2 4.5-2.35 7.15 6.1-4.45 6.1 4.45-2.3-7.25 6.15-4.4h-7.55l-2.4-7.2-2.3 7.2m2.3-6.4l2.2 6.65h6.95l-5.65 4.05v.1l2.15 6.6-5.65-4.1-5.6 4.1 2.1-6.5.05-.1-5.75-4.15h7.1l2.1-6.65z"/><path fill="#FFF" d="M399.2 394.4l-2.2-6.65-2.1 6.65h-7.1l5.75 4.15-.05.1-2.1 6.5 5.6-4.1 5.65 4.1-2.15-6.6v-.1l5.65-4.05h-6.95z"/></g><g id="i"><path fill="#373535" d="M378 412.4h-7.55l-2.35-7.2-2.35 7.2h-7.6l6.2 4.5-2.4 7.15 6.15-4.45 6.15 4.45-2.35-7.2 6.1-4.45m-6.4 4.35v.1l2.15 6.55-5.65-4.1-5.65 4.1 2.15-6.5.05-.1-5.75-4.15h7.05l2.15-6.65 2.15 6.65h7l-5.65 4.1z"/><path fill="#FFF" d="M371.6 416.85v-.1l5.65-4.1h-7L368.1 406l-2.15 6.65h-7.05l5.75 4.15-.05.1-2.15 6.5 5.65-4.1 5.65 4.1-2.15-6.55z"/></g><g id="j"><path fill="#373535" d="M342.2 395.2h-7.65l6.2 4.5-2.35 7.15 6.1-4.45 6.15 4.45-2.35-7.2 6.2-4.45h-7.6l-2.4-7.2-2.3 7.2m-6.9.25h7.1l2.1-6.65 2.2 6.65h7l-5.7 4.1v.1l2.15 6.55-5.65-4.1-5.6 4.1 2.1-6.5.05-.1-5.75-4.15z"/><path fill="#FFF" d="M342.4 395.45h-7.1l5.75 4.15-.05.1-2.1 6.5 5.6-4.1 5.65 4.1-2.15-6.55v-.1l5.7-4.1h-7l-2.2-6.65-2.1 6.65z"/></g><g id="k"><path fill="#373535" d="M339.35 444.55l-2.35-7.2-2.35 7.2h-7.6l6.2 4.5-2.4 7.15 6.15-4.45 6.15 4.45-2.35-7.2 6.1-4.45h-7.55m-2.35-6.4l2.15 6.65h7l-5.65 4.1v.1l2.15 6.55-5.65-4.1-5.65 4.1 2.15-6.5.05-.1-5.75-4.15h7.05l2.15-6.65z"/><path fill="#FFF" d="M339.15 444.8l-2.15-6.65-2.15 6.65h-7.05l5.75 4.15-.05.1-2.15 6.5 5.65-4.1 5.65 4.1-2.15-6.55v-.1l5.65-4.1h-7z"/></g><g id="l"><path fill="#373535" d="M322.45 447.55h-7.55l-2.35-7.2-2.35 7.2h-7.6l6.2 4.5-2.4 7.15 6.15-4.45 6.15 4.45-2.35-7.2 6.1-4.45m-7.75.25h7l-5.65 4.1v.1l2.15 6.55-5.65-4.1-5.65 4.1 2.15-6.5.05-.1-5.75-4.15h7.05l2.15-6.65 2.15 6.65z"/><path fill="#FFF" d="M321.7 447.8h-7l-2.15-6.65-2.15 6.65h-7.05l5.75 4.15-.05.1-2.15 6.5 5.65-4.1 5.65 4.1-2.15-6.55v-.1l5.65-4.1z"/></g><g id="m"><path fill="#A7562D" d="M172.3 400.8q1.05.6 1.45.25l-.05.1q1-1-.8-2.9-2.45-2.45-3.6-.1-.2.75.15 1.5.55 1.25 1.45 2.4l-.7-1.1.55-1.55q.6.8 1.55 1.4m27.9-2.55l-.05-.1q-1.15-2.3-3.55.1-1.7 1.8-.9 2.8l.05.05q.45.3 1.45-.3.95-.6 1.5-1.4.2.75.6 1.55l-.4.7q.6-.95 1.1-2 .05-.1.1-.15l.2-.65q0-.271-.1-.5v-.1m-21.95 2.7q-.15.3-.15.5.35.65 1.1.65l.55.05q.5.1 1.05-.5-.5-.05-.7-.35-.05-.1-.1 0t0 .2q.1.2-.15 0-.2-.3-.2.1-.05.2-.2.15l-.25-.45-.1.4q-.1.15-.2.05-.25-.2-.25-.5-.2.25-.35.1-.1-.15-.05-.4m.7-1.55q.15.05.1.85.196-1.027.35-.15-.092-.606.15-.8-.85-.65-1.5-.4-.15.4.1.65-.05-.2.05-.35.25-.25.15.05-.1.25 0 .45.15-.35.15-.4.2-.2.2.55.15-.55.25-.45m-2.1.55q.05.05.1-.1.05-.15-.05-.15-.05-.05-.1.05 0 .15.05.2m3.65-.35q-.45-.25-.75-.15-.25.1-.15.35.15.3.6.65.5.45.9.5.3.15.5.4.35.5.15-.15-.45-1.2-1.25-1.6m.5 1.1q-.45-.15-1.1-.8-.4-.3 0-.3.6.1 1.1 1.1m-2.25.45q0 .1.1.05t.1-.15q-.05-.1-.2-.05-.05.05 0 .15m-1.3-1.1q0-.15-.1-.15-.05-.05-.1.15.2.25.2 0m.95.55q0-.2-.05-.2t-.1.15q.15.3.15.05m-.5-.05q-.1-.1-.15 0-.05.1.1.15.65.3.05-.15m12.4-1.6q-.15-.2-.1-.3.05-.1.25.1.2.15.25.15.1 0-.05-.15-.15-.15-.1-.25.05-.05.25.15.25.2.35.15.1 0-.15-.2-.25-.25-.15-.35.05-.15.3.15.75.75.3.15-.4-.4 0-.2.3.2.35.15.05 0-.15-.15-.4-.15-.5-.5-.85 0-1.3.9.9.8.45.2m2.85 0q.15.2-.25.1-.45-.3.1.25.2.15.05.15-.15 0-.4-.1-.6-.3.05.35.35.5-.45.1-.25-.15-.2.15 0 .2-.5-.05.1.25.35.45.75.15 1.05-.3.1-.1.55-.45.4-.25.25-1-.55.15-.75.1-.25-.05.15.25m-2.2.85q-.1 0-.05.15t.2.1q.15-.05.05-.15-.1-.1-.2-.1m-.6.1q-.1-.2-.2-.15-.1.05 0 .25.1.15.2.1.1-.05 0-.2m.85-.5q-.1.05 0 .15.15.15.2.15.1 0 0-.2t-.2-.1m.9.15q.15-.05.05-.2-.1-.15-.25-.1-.1.05 0 .2.1.1.2.1m-2.4.45q-.1.05 0 .15.1.15.2.15.05 0-.05-.2-.05-.2-.15-.1m-.85-.15q-.1-.1-.2-.1-.05.05.05.15.1.1.15.1.05 0 0-.15m.35-.4q-.1 0 0 .2.25.2.15 0t-.15-.2m4.8-1.9q.15.05.2 0 .05-.1-.2-.2-.35-.2-1.25-.1-.8.05-1.1.25-.4.4.05.6.5.15 1.5-.3.55-.3.8-.25m-.85.15q-1.25.6-1.65.2.65-.55 1.65-.2m3.75-8.85q.3-.1.25-.15 0-.1-.25 0-.2.05-.2 0-.05-.05.1-.15.15-.05.15-.1-.05-.05-.2 0-.2.2-.5.1-.35.85.2 1.7.2-.05.4-.3.3-.3-.2-.15-.2.05-.15 0 .1-.1.3-.2.25-.1.15-.15-.05-.05-.3 0-.25.1-.2 0 .05-.15.35-.25t.3-.15q0-.1-.35.05-.4.2-.3 0 .1-.15.45-.25m.8 2q.1-.05.15-.1 0-.1-.15-.1t-.2.1q0 .1.2.1m-.05-.7q-.1 0-.1.1.05.15.15.1.2-.2-.05-.2m-.8 1.45q-.05.2.05.3.05.1.1-.2.05-.3 0-.35-.1 0-.15.25m.1-.65q-.3.2-.05.15.2 0 .2-.05 0-.1-.15-.1m.05-.45q-.05.1.1.1.15 0 .2-.1 0-.1-.15-.1-.1 0-.15.1m.1-3.85q-.05-.5.15-.75.1-.1.1-.2 0-.05-.1 0-.3.15-1.05 1.35-.35.65.05 1.1.15.25.2.25.05.05.2-.2.55-.75.45-1.55m-.6.8q.35-.4.45-.65.05 1.1-.5 1.55-.2-.5.05-.9m1.45 2.1q-.15.35.05.2.1-.1.1-.2t-.15 0m-.1-.45q-.15 0-.15.1 0 .15.1.1.1-.05.15-.1.05-.1-.1-.1m.2-.65q-.15-.05-.15.05.05.1.15.15.15 0 .15-.1.05-.05-.15-.1m.95-.6q-.2-.25-.2-.55 0-.55-.9-.65.2.3-.05.55-.3.15 0 .15.1.05.25-.1.25-.1.05.15-.15.15-.05.2.25.1.4-.05-.25.5-.35.55l.4-.05q.25-.1.1.1l-.25.35q-.3.1-.05.15.15.05.2.15.05.05-.05.1-.2.15-.35.15.3.1.55.05.55-.75.3-1.25m-2.05-9.15q-.3.15-.05-.1.25-.15.5-.6l-.45.35.2-.4q-.15.2-.7.4-.05.35.2.85.3.5.6.7l.4-.65q.15-.2.05-.15-.05.05-.3.25-.3.25.1-.3.2-.15.1-.15-.15-.05-.35.1-.55.55-.15-.05.1-.25.35-.45-.2.1-.5.2m1.35 2.35q.1-.05.1-.15 0-.1-.1-.05-.15.25 0 .2m.2-1.1q.05.1.15.05.1-.1.1-.15 0-.1-.15-.05-.1.1-.1.15m-.4.55q.2-.15.2-.25 0-.05-.2.05-.25.35 0 .2m0-2.05q.05 0 .15-.05.1-.1.05-.2 0-.05-.15.1-.1.1-.05.15m.4.05q-.1.1-.05.2t.15.05q.1-.1.05-.2-.05-.15-.15-.05m-2.2-3.1q-.35.4-.45 1.1-.1.8.3 1.25.4.4.5.4.1-.05.1-.4.1-.95-.15-1.4-.25-.35-.15-.65 0-.6-.15-.3m.05 1.65l.15-.7q.2.4.2 1.35 0 .3-.1.35-.05 0-.15-.15-.2-.35-.1-.85m1.25-.45q.1-.15.2-.15.1-.05.05.15t.05.2q.05 0 .15-.15.1-.1.2 0t0 .25q-.25.45.05.2.2-.15.3-.1.1.05.05.15 0 .25-.3.35-.2.1-.2.2 0 .05.2 0 .2-.1.3.05.15.1-.05.2-.15.1-.15.2-.05.1.15 0 .2-.15.35-.15.1-1.2-.45-1.45-.2-.65-1.2-.65.25.25.15.5-.05.15 0 .25.05.05.15-.05m-6.35 5.75h-.6v2.35h2v-2.35h-.55v1.4h-.85v-1.4m-2.85 0h-.75v2.35H190v-2.35h-.65v1.35h-.95v-1.35m-2.15-.75l-1.35-1.4 1.25.7-.5-.75 1.2.85-.7-1q.85.35 1.1.65l-.4-.7q.5-.1.7.2-.15-.8.5-.15 0-.05-.1-.3-.05-.1.15 0 .25.15.5.1.25 0 .15-.2l-.3-.65-7.55-.35 3.65 3.25q-1.05-1.2-1.35-1.45.95.7 1.65 1.4-.902-1.234-1.3-1.6l1.2 1.05-.8-1.1 1.65 1.5-1.2-1.5 1.85 1.45m.7.75h-.65v1.35h-1v-1.35h-2.15v2.35h3.8v-2.35m-8.6 0h-.5v2.35h1.8v-2.35h-.5v1.35h-.8v-1.35m2.5 0h-.65v2.35h2.25v-2.35h-.6v1.35h-1v-1.35m-3.7 0h-.45V384.7h.45v-2.35m-4.7 6.2q-.55.75 0 .3.45-.35.05.15-.2.3-.1.35.1.05.3-.2.25-.25.3-.2.1.05-.15.35t-.25.35q0 .1.15-.1.6-.6.15 0-.1.15-.05.2.05 0 .15-.15.25-.25.45-.25 0-.25-.45-.8-.5-.55-.65-.55-.3.5-.3.6l.15-.05q.75-.6.25 0m-1.4 2.3q.15.3.3.4.3.15.5.4.2.35 1.2.25-.45-.25-.3-.7 0-.15-.25.1-.1.15-.1-.05 0-.3-.3 0-.1.15-.15 0-.05-.15 0-.5-.45.45-.5.25-.1-.2.1-.65-.45.05-.4-.1.05-.1.35-.35-.35 0-.55.2-.05.35.1.75m2.8-1.05q-.3-.45-.55-.2-.25.2-.15.75.1.45.35.8.35.45.35.7l.05.45q0 .15.05.2.1.05.15-.25.45-1.6-.25-2.45m-.15 1.45q-.7-1.3-.4-1.6.65.2.4 1.6m-2-.85q.05.1.15 0 .2-.1-.05-.15-.15.1-.1.15m-.05-.7q.05.1.15 0 .15-.15.1-.25-.05-.1-.2.05-.1.1-.05.2m-.3-.15q.15-.1.1-.25-.1-.1-.2.05-.1.1-.05.2t.15 0m-.1-.85q.15-.05.1-.15-.05-.1-.15 0-.1.1-.1.2 0 .05.15-.05m.3-.45q.15-.05.15-.15-.05-.05-.15 0l-.15.15q0 .05.15 0m-.45-.2q-.05-.05-.15.05-.05.3.1.15.1-.1.05-.2m.3-.55q-.1.1-.05.2t.15 0q.15-.1.1-.2-.1-.1-.2 0m-.15-.35q.1-.1.05-.15-.05-.05-.15.05-.1.25.1.1m-.6-6.65q0-.05.05-.2.15-.25.3-.3.4-.1 0-.1-.85 0-.35-.25.45-.3.25-.3-.4.1-.5.25-.25.55.05 1.2.15.25.4.65.15.4.85.4-.05-.4 0-.6.1-.35-.1-.2-.15.15-.25.15-.1.05 0-.15.25-.35-.05-.15-.4.15-.35.05.1-.45.25-.55l-.45.15q-.05.05-.1-.05m.4-1.65q-.1-.1-.2-.05t0 .2q.1.1.2.05.1-.1 0-.2m.15.25q-.1.1-.05.2t.15 0q.1-.1.1-.15-.05-.1-.2-.05m-.15-1.35l.15-.15q0-.1-.15-.05-.2.05-.15.2 0 .1.15 0m.05.45q.1-.05.1-.15-.05-.05-.15 0-.1.25.05.15m.6-.5q-.05-.05-.2 0-.1.1-.1.2.05.05.2 0 .15-.1.1-.2m.15-.55q0-.05-.2 0-.15.05-.15.15 0 .05.2 0t.15-.15m-.15-.55q0-.1-.15 0-.2.05-.15.15 0 .1.15 0l.15-.15m1.5 3.45q-.3-.45-.5-.3-.25.15-.3.8-.05.55.05.9.25.6.05.85-.15.55.2.15.95-1.25.5-2.4m-.5.05q.15-.35.25-.05.1.25.05.7-.1.5-.35.7-.1-1.05.05-1.35m-.55-1.3q.3-.15.35-.1.05.05-.2.25-.55.5-.15.25.35-.2.4-.1.1.05-.25.25-.3.2-.2.3.1.1.3-.1.25-.3.25-.05 0 .05.15 0 .1 0 .2.1.2-.9-.65-1.65-.8.6-.3.45.55-.2.15.15-.25.2-.25.3-.05.15.2-.05m7.2-6.6q-.05-.15-.1-.15-.05.05.05.15.1.35-.1.35-.15-.3-.3-.4-.3-.45-.05.05.15.15.15.35 0 .3-.15 0l-.45-.55q.3.4.2.8l-.55-.75q.199.298.2.6-.004-.103-.25-.3-.25-.2-.4-.25.65.35.5 1 .75.25 1.7-.45-.2-.1-.45-.45m.2-.85q.25.1.15-.05-.05-.1-.15-.1-.05 0 0 .15m-1.85 1.85q.6-.3.05-.55-.6-.3-1.4-.2-.7.1-1.1 0-.25-.05-.05.15.15.2.8.5.85.45 1.7.1m-1.4-.6q1.1-.1 1.6.25-.35.6-1.6-.25m2.15-1.35q-.1.05 0 .15.25.15.1-.05-.05-.15-.1-.1m1.6 0q0 .2.15.05-.05-.1-.1-.15-.1-.05-.05.1m-.25.6q.35.7.1-.05-.15-.1-.1.05m.7.2q.05.05 0-.15t-.1-.15q-.1 0 0 .15 0 .15.1.15m-1.5-1q-.1-.1-.2-.05-.15.05-.05.15.1.15.25-.1m-1.95-.6q-.3.3-.5.3-.2.05-.4.3-.25.3-.25.65.45-.1.6-.05.45.45.15 0l-.15-.3q.05-.05.15-.05.2.2.2.05 0-.3-.1-.35.4 0 .6.3l-.1-.55q.2-.05.35.1.2.15.15.4-.15.55.15.05.1-.3.05-.7.1.15.35.5.1-.25 0-.55-.55-.5-1.25-.1m14.55 1.95l-.15-.05q0 .05.1.25.15.25-.1.15l-.2-.3q-.3-.3 0 .2.1.2 0 .25-.05.05-.15-.1-.2-.35-.35-.4l.1.45q.1.3-.15.05l-.4-.55q-.15-.15-.2-.15 0 .05.1.15.3.45.35.6l-.35-.35q.296.31.1.8 1.05.15 1.6-.5-.15-.4-.3-.5m-1.6 1q.45-.2-.1-.5-.6-.25-1.55-.15-.6 0-.85-.1-.2-.05-.05.15.2.3.9.6.9.45 1.65 0m-.35 0q-.3-.05-.45-.15l-.75-.35q.4-.1 1.25 0 .5.15.35.35-.05.15-.4.15m1.1-1.65q.1-.05.05-.15-.15-.45-.15 0 .05.15.1.15m.3-.5q-.05.05 0 .1.25.2.15 0-.05-.15-.15-.1m.95.45l-.05-.1q-.05-.15-.15-.15-.1.05-.05.15.2.15.25.1m.3-.3q-.1 0 0 .15.25.2.15 0-.05-.2-.15-.15m.4.55q-.05 0 0 .2.25.2.15 0-.05-.2-.15-.2m.55-.05q-.05.05-.05.15.05.15.1.15.1.05.05-.15-.05-.15-.1-.15m-4.1-1.05l-.5.25q-.4 0-.5.9.35-.15.55-.1.5.25.2-.15l-.1-.15.15.05q.35.2.15-.2-.3-.4.1-.2.3.15.35.25-.1-.45-.1-.55.55 0 .55.4-.05.2.05.25.05 0 .1-.2.1-.45.2-.35.25.25.25.3.15-.35-.1-.55-.65-.3-1.35.05z"/><path fill="#FDBA39" d="M200.2 398.35q.1.229.1.5l-.2.65q-.05.05-.1.15-.5 1.05-1.1 2l.4-.7q-.4-.8-.6-1.55-.55.8-1.5 1.4-1 .6-1.45.3l.05.05q.2.2.8.65.65.5 1.2 1.2l-.25.3q-2.6 2.7-6.75 3.9-2.9.85-6.05.85t-6.1-.85q-4.05-1.2-6.7-3.9l-.25-.3q.55-.7 1.2-1.2.6-.45.8-.65l.05-.1q-.4.35-1.45-.25-.95-.6-1.55-1.4l-.55 1.55.7 1.1q-.9-1.15-1.45-2.4-.35-.75-.15-1.5-1.35 3.25-2.15 4-.65.65.25 1.9 2.8 3.7 5.75 5.6 4.8 3 11.6 3t11.55-3q2.95-1.85 5.75-5.6.45-.6.55-.95.2-.5-.25-.95-.834-.736-2.15-3.8m-31.15-28.95v15.55q0 7.05 3.9 12.75 4 5.9 11.8 9.9 7.8-4 11.8-9.9 3.9-5.7 3.9-12.75V369.4h-31.4m19.6 1.7l.5-.25q.7-.35 1.35-.05.55-.45 1.1.25.85 0 1.3.5.5-.1.9.2.35.25.35.5 0 .2-.3.35-.25.15-.5.15-.05 0-.7.15-.45.1-.75 0-.55.65-1.6.5-.45.6-1.05.45-.3-.05-1 0-.65.05-1.25-1.1.25-.45 1.15-.75.1-.9.5-.9m-3.85-.25q.5-.3 1.3-.2.25.2.55.65.55-.05 1.05 0 .1.15 0 .25-.45-.15-1.05-.1-.15.2-.25.65-.1.4-.35.55-.4-.25-.7-.2l-.1.3-.7.35-.15-.15q-.2.2-.2.3-.5.25-.65.3-.05 0-.2-.35-.25.45-.95.7-.1-.25 0-.6l-.3-.15q.2-.5.5-.85h.3l-.05-.25.45-.45h.35v-.25q.75-.4 1.1-.3l.05-.2m9.65-.45l1.1.15.2.45.15-.25.7.3q.25.45.25.6l.25-.25q.4.2.8.75l.05.6.25-.2q.75.55 1 1.6l-.45.95q.45.75.5 1.4 0 .1-.15.1-.05-.65-.5-1.45-.2-.05-.55 0-.55.05-.95-.15-.1-.75-.2-1l-.25.2-.8-.75.1-.35-.35.05-.75-.9.25-.3-.4-.05-.9-.8.65-.3v-.4m-20.25-.15l.05.4.5.3-.75.9-.3-.05.2.3q-.1.3-.6.85h-.25l.05.3-.7.75-.2-.1q-.15.45-.15.95l-.35.2q-.3-.2-.9-.05-.4.75-.45 1.4l-.15-.05q.1-.7.45-1.4-.1-.3-.4-.9.1-1 .85-1.7l.15.25.05-.6.7-.75.2.15.2-.45q.25-.2.6-.3l.05.15.05-.05.3-.35q.45-.15.8-.15m2.35.5q.2 0 .5-.3.7-.4 1.25.1.5-.5 1.15.25.8 0 1 .2.25.2.75.25.35.05.6.3.3.25.25.5-.05.2-.35.35-.3.1-.45.05-.25-.05-.6.1-.35.15-.85.1-.95.7-1.7.45-.5.55-.8.5-.2-.1-.75.05-.4.05-1-.2-.7-.35-.85-.95.3-.5 1.2-.8 0-.35.25-.65.2-.25.4-.3M173 379.6q.8.5.55.85-.1.2.05.65.1.3-.05.8-.2.65-.9 1.05-.35-.2-.95-1.1-.7 0-.85-.4-.25-.4-.4-.65-.3-.65-.05-1.2-.5-.5.2-1.3-.1-.65.35-1.2 0-.65.3-1.1.35-.35.5-.15.1.1.25.7.05.1.3.75.15.35.05.65.85.75.65 1.65m-3.05 1.7h.15q-.1.45.2 1.15.75-.05 1.4.4l.05.8.3.05q.25.35.65.7l-.2.2.35.05.55.75-.3.25.3.05q.4.3.75.85l-.5.2-.15.3-.9-.3-.2-.4-.15.2-.65-.45q0-.35-.1-.45l-.25.15q-.35-.2-.6-.8l.05-.6-.25.3q-.6-.45-.8-1.4l.55-.8q-.3-.75-.25-1.2m.75 5q.3-.3.5 0 .55.55.6.9.5.5.55.8.15 0 .65.55.45.55.45.8.8.2.8.65 0 .25.25.55.25.3.2 1.05-.05.85-.6 1.1-.7-.15-1.05-.8-1 .1-1.2-.25-.2-.25-.5-.4-.15-.1-.3-.4-.15-.4-.1-.75-.5-.45-.2-1.1-.35-.65-.05-1.3-.15-.3-.15-.75t.15-.65m.6 7.8q-.05-.15 0-.25.55-.2 1.6.2.3-.3.9-.7 1.2.35 1.7.7l-.3.4q.3-.1.7-.1.7.35.85.6l-.15.25.6.1.5.7-.3.1.55.15q.25.25.45 1l-.45.15-.2.65-.9-.7-.2-.4-.25.3-1-.45q-.1-.35-.05-.4l-.25.2q-.5-.3-.85-.7l-.05-.3-.95.05q-.45-.6-.4-1.4-.95-.3-1.55-.15m3.15-8V374.3h20.6V386.1h-20.6m.5 3.55l-.4-1.9q1.9.45 3.8-.15 2.3-.65 4.4.25 2.4 1.15 4.45-.05 1.85-1 4.75-.2 1.9.6 2.95.3-.15 1-.45 1.95-.55.05-2.35-.45-2.7-.7-4.85.3-2.4 1.2-4.8-.05-2.6-1.3-4.75-.4-1.4.55-2.75.4m1.6 3.75l-.85-1.7q1.3.05 2.55-.55 1.5-.9 3.95.25 1.4.65 2.5.7 1.2.05 2.5-.6 2.1-1.05 3.8-.35 2.1.7 2.75.7l-.95 1.75q-.95 0-2.4-.8-.6-.3-1.4-.2-.7.1-2.2.7-1.35.5-2.35.4-.75-.05-2.2-.65-1.9-.8-3.8-.05-.95.4-1.9.4m1.35 1.85q.6-.05 2.1-.4 1.6-.3 3.05.25 1.7.75 3.4.05 1.8-.6 2.95-.2 1.35.45 2.05.45-.3.4-1.55 1.65-.7-.05-1.55-.4-1.35-.5-2.55.15-1.1.65-2.55-.1-1.2-.65-2.5-.05-.35.15-1.15.4-.85-.8-1.7-1.8M196.25 375q.5.15 1.05.9 1 0 1.2.65.55.25.45 1.45.55.55 0 1.2.3.7-.15 1.35.3.6-.2 1.2-.2.3-.5 0l-.45-.9q-.4-.6-.4-.95-.3-.2-.6-.7-.25-.5-.2-.85-.85-.3-.7-1-.25-.5-.2-1.1.05-.75.7-1.25m-.55 6.2q.7.05 1.05.25l.15.35.15-.1.65.3.15.45q.1 0 .25-.15.3.2.65.8v.55l.3-.2q.35.3.85 1.45-.2.3-.6.85.3.65.35 1.25-.05.1-.15 0 0-.55-.3-1.2-.75-.2-1.1-.1l-.45-.6.05-.5-.25.05-.7-.7.1-.25-.35-.05-.6-.75.25-.3-.35-.05-.65-.8q.35-.15.45-.2l.1-.35m3.1 6.1q0 .3.2.55.25.5-.3 1.25.2.3.1.65-.15.35-.5.5-.25.9-.6 1.1 0 .65-.55 1.1-.1.1-.2.1.7.2 1.05.2l-.05.5.4.5q-.7.25-1 .45l-.4-.1.1.4-.9.5-.4-.05v.25l-1 .4-.25-.25-.55.95q-1.05 0-1.45-.45-.6.55-.95 1.1l-.15-.1q.45-.6 1.05-1.1-.1-.5-.1-1.15 1-1 1.45-1.1l.1.55.35-.75q.45-.35.95-.45l.15.35.45-.55.65-.05.15.25q.1-.05.35-.3-.15.05-.3-.15-.3-.4-.2-1-.15-.7 0-1.15-.55-.85-.2-1.7-.1-.05-.35-.55.05-.65 0-1 0-1.05 1.35-1.65.4.25.65 1.3.9.1.9.65m-5.25 9.45q.7.2 1.05.65-.1.5-.85 1.2.15.75-.25 1-.45.35-.55.45-.3.45-1.05.3l-.55.35q-.35 0-.5-.15-.2-.15-.55 0-.25.1-.75-.05-.25-.1-.55 0-.45.15-.95-.25-.3-.2-.15-.4.2-.4.65-.55.35-.05.45-.25.3-.3.85-.3.45-.9 1.3-.9.3-.8 1.05-.9.6-.45 1.35-.2m-6.2 5.1l.2-.4q.2-.05.25 0l.1-.25q.25-.05.75-.25l.1.7.3.25-.6 1.05H188l.15.3-.65.7-.55-.15.1.45q-.55.3-1.1.45l-.65-.2.2.4q-1.1.4-1.85.45-.55-.45-.9-.9-.8.05-1.5-.1-.05-.1 0-.25.6.2 1.4.15.4-1.25.85-1.55.55 0 .95.2.1-.1.1-.35.8-.4.95-.55l.3.25q.2-.4.2-.5.35-.1 1.1-.3l.25.4m-3.15-3.45q.85.35 1.9-.1.75-.25 1.9.25-.25.2-2.05 1.35-.7-.4-1.15-.35-.45.05-1 .5-1.05-.6-2.25-1.45 1.9-.55 2.65-.2m-7 .15q.3-.1.85.35.65-.25 1.5.4.8-.2 1.05.1.15.15.65.35.9.35.9 1.6.05.45-1.35.3-.55.6-1.05.5l-.55-.05q-.75 0-1.1-.65-.7.05-.95-.9-.4-.15-.65-.7-.05-.35-.3-.5-.5-.25-.5-.85t.95-.2q.4.25.55.25m-.5-16.2h17.25l-3.75-3.3-1.75-.1.3.65q.1.2-.15.2-.25.05-.5-.1-.2-.1-.15 0 .1.25.1.3-.65-.65-.5.15-.2-.3-.7-.2l.4.7q-.25-.3-1.1-.65l.7 1-1.2-.85.5.75-1.25-.7 1.35 1.4-1.85-1.45 1.2 1.5-1.65-1.5.8 1.1-1.2-1.05q.398.366 1.3 1.6-.7-.7-1.65-1.4.3.25 1.35 1.45l-3.65-3.25-.6-.05-4.1 3.8h.5z"/><path fill="#FFF" d="M178.05 398.9q-.55-.45-.85-.35-.15 0-.55-.25-.95-.4-.95.2 0 .6.5.85.25.15.3.5.25.55.65.7.25.95.95.9 0-.2.15-.5-.05.25.05.4.15.15.35-.1 0 .3.25.5.1.1.2-.05l.1-.4.25.45q.15.05.2-.15 0-.4.2-.1.25.2.15 0-.05-.1 0-.2t.1 0q.2.3.7.35 1.4.15 1.35-.3 0-1.25-.9-1.6-.5-.2-.65-.35-.25-.3-1.05-.1-.242.194-.15.8-.154-.877-.35.15.05-.8-.1-.85-.1-.1-.25.45 0-.75-.2-.55 0 .05-.15.4-.1-.2 0-.45.1-.3-.15-.05-.1.15-.05.35-.25-.25-.1-.65m-.3 1.65q.05-.1.15 0 .6.45-.05.15-.15-.05-.1-.15m.6-.15q.05 0 .05.2 0 .25-.15-.05.05-.15.1-.15m-1-.5q.1 0 .1.15 0 .25-.2 0 .05-.2.1-.15m1.5 1.3q-.1.05-.1-.05-.05-.1 0-.15.15-.05.2.05 0 .1-.1.15m.9-1.75q.3-.1.75.15.8.4 1.25 1.6.2.65-.15.15-.2-.25-.5-.4-.4-.05-.9-.5-.45-.35-.6-.65-.1-.25.15-.35m-2.8.4q-.05.15-.1.1-.05-.05-.05-.2.05-.1.1-.05.1 0 .05.15m15.95-.8q.4.1.25-.1-.4-.3-.15-.25.2.05.75-.1.75-.7.85-1.2-.35-.45-1.05-.65-.75-.25-1.35.2-.75.1-1.05.9.1.35.5.5.2.15.15.15-.05.05-.35-.15-.4-.2 0 .2.45.6-.3-.15-.25-.3-.3-.15-.1.1.15.35.25.2.15.2-.1.05-.35-.15-.2-.2-.25-.15-.05.1.1.25.15.15.05.15-.05 0-.25-.15-.2-.2-.25-.1-.05.1.1.3.45.6-.45-.2-.55 0-.85.3-.1.2-.45.25-.45.15-.65.55-.15.2.15.4.5.4.95.25.3-.1.55 0 .5.15.75.05.35-.15.55 0 .15.15.5.15l.55-.35q-.25-.2-.35-.45.5.25.5.05-.05-.3.2-.15.8.4.45-.1-.65-.65-.05-.35.25.1.4.1.15 0-.05-.15-.55-.55-.1-.25m1.3-1.5q-.05.05-.2 0-.25-.05-.8.25-1 .45-1.5.3-.45-.2-.05-.6.3-.2 1.1-.25.9-.1 1.25.1.25.1.2.2m-5 2.1q-.1-.2 0-.2.05 0 .15.2.1.2-.15 0m-.55.1q.1 0 .2.1.05.15 0 .15t-.15-.1q-.1-.1-.05-.15m1.05.4q-.1-.1 0-.15.1-.1.15.1.1.2.05.2-.1 0-.2-.15m2.45-.8q.1.15-.05.2-.1 0-.2-.1-.1-.15 0-.2.15-.05.25.1m-.95.2q-.1-.1 0-.15.1-.1.2.1t0 .2q-.05 0-.2-.15m-1.05.2q.1-.05.2.15.1.15 0 .2-.1.05-.2-.1-.1-.2 0-.25m.75.2q-.05-.15.05-.15t.2.1q.1.1-.05.15-.15.05-.2-.1m7.65-11.9l-.4.05q.1-.05.35-.55-.15.15-.4.05-.1-.05.05-.2.2-.25-.05-.15-.15.15-.25.1-.3 0 0-.15.25-.25.05-.55-.25-1.05-.65-1.3-1.35.6-1.35 1.65.05.35 0 1 .25.5.35.55.3.1.5-.1.15-.05.2 0 0 .05-.15.1-.15.1-.1.15 0 .05.2 0 .25-.1.25 0 .05.05-.25.15-.35.1-.45.25-.1.2.3 0 .35-.15.35-.05 0 .05-.3.15-.3.1-.35.25-.05.1.2 0 .25-.05.3 0 .1.05-.15.15-.2.1-.3.2-.05.05.15 0 .5-.15.2.15-.2.25-.4.3-.15.45 0 1.15-.1.6.2 1 .15.2.3.15.1 0 .2-.1.55-.45.55-1.1.35-.2.6-1.1.35-.15.5-.5.1-.35-.1-.65-.25.05-.55-.05.15 0 .35-.15.1-.05.05-.1-.05-.1-.2-.15-.25-.05.05-.15l.25-.35q.15-.2-.1-.1m-.65.45q0-.1.15-.05.2.05.15.1 0 .1-.15.1-.1-.05-.15-.15m-.2.7q0-.1.15-.1t.1.1q-.05.05-.15.1-.1.05-.1-.1m.3.55q-.2.15-.05-.2.15-.1.15 0t-.1.2m-.75-3.85q-.2.25-.15.75.1.8-.45 1.55-.15.25-.2.2-.05 0-.2-.25-.4-.45-.05-1.1.75-1.2 1.05-1.35.1-.05.1 0 0 .1-.1.2m-.15 4.7q-.15 0-.1-.1.05-.1.15-.1.15 0 .15.1-.05.1-.2.1m-.2.5q-.25.05.05-.15.15 0 .15.1 0 .05-.2.05m0 .8q-.1-.1-.05-.3.05-.25.15-.25.05.05 0 .35t-.1.2m.65-1.65q0-.1.1-.1.25 0 .05.2-.1.05-.15-.1m.3.5q-.05.05-.15.1-.2 0-.2-.1.05-.1.2-.1.15 0 .15.1m-.05-14.3q-.1 0-.2.15-.1.1-.15.05-.05-.1 0-.25.1-.25-.15-.5-.55-.75-1.05-.9-.65.5-.7 1.25-.05.6.2 1.1-.15.7.7 1 .55-.2.7-.4l-.2.4.45-.35q-.25.45-.5.6-.25.25.05.1.3-.1.5-.2-.25.2-.35.45-.4.6.15.05.2-.15.35-.1.1 0-.1.15-.4.55-.1.3.25-.2.3-.25.1-.05-.05.15l-.4.65q0 .35.4.95l.45.9q.3.3.5 0 .5-.6.2-1.2.45-.65.15-1.35.55-.65 0-1.2-.15 0-.35.15-.2.1-.15 0 0-.1.15-.2.2-.1.05-.2-.1-.15-.3-.05-.2.05-.2 0 0-.1.2-.2.3-.1.3-.35.05-.1-.05-.15-.1-.05-.3.1-.3.25-.05-.2.1-.15 0-.25t-.2 0q-.1.15-.15.15-.1 0-.05-.2t-.05-.15m-1.95.05q.1-.7.45-1.1.15-.3.15.3-.1.3.15.65.25.45.15 1.4 0 .35-.1.4-.1 0-.5-.4-.4-.45-.3-1.25m2.6 2.2q-.05-.1.05-.2t.15.05q.05.1-.05.2-.1.05-.15-.05m-.2-.3q-.1.05-.15.05-.05-.05.05-.15.15-.15.15-.1.05.1-.05.2m.05 1.85q0 .1-.2.25-.25.15 0-.2.2-.1.2-.05m.35-.25q-.1.05-.15-.05 0-.05.1-.15.15-.05.15.05 0 .05-.1.15m-.25.9q0 .1-.1.15-.15.05 0-.2.1-.05.1.05m-18.75 3.8h-2.95l-.55.5H194l-.8-.5h-13.55m-8.45 1.6q-.2-.3-.5 0-.15.2-.15.65t.15.75q-.3.65.05 1.3-.3.65.2 1.1.2-.2.55-.2-.3.25-.35.35-.05.15.4.1-.2.45-.1.65.05.2.5-.25-.05.35 0 .5.05.15.15 0 .3-.3.3 0 0 .2.1.05.25-.25.25-.1-.15.45.3.7.35.65 1.05.8.55-.25.6-1.1.05-.75-.2-1.05-.25-.3-.25-.55 0-.45-.8-.65-.2 0-.45.25-.1.15-.15.15-.05-.05.05-.2.45-.6-.15 0-.15.2-.15.1 0-.05.25-.35t.15-.35q-.05-.05-.3.2-.2.25-.3.2-.1-.05.1-.35.4-.5-.05-.15-.55.45 0-.3.5-.6-.25 0l-.15.05q0-.1.3-.6-.05-.3-.55-.8-.05-.35-.6-.9m.1.7q.05.05-.05.15-.2.15-.1-.1.1-.1.15-.05m.05.7q-.05-.1.05-.2t.2 0q.05.1-.1.2-.1.1-.15 0m-.4.4q.1-.1.15-.05.05.1-.05.2-.15.15-.1-.15m.75 0q0 .1-.15.15-.15.05-.15 0l.15-.15q.1-.05.15 0m-.35.45q.05.1-.1.15-.15.1-.15.05 0-.1.1-.2t.15 0m.1.75q.05.15-.1.25-.1.1-.15 0-.05-.1.05-.2.1-.15.2-.05m.35.4q-.1.1-.15 0-.05-.1.05-.2.15-.15.2-.05.05.1-.1.25m.05.7q-.1.1-.15 0-.05-.05.1-.15.25.05.05.15m1.45-.8q.25-.25.55.2.7.85.25 2.45-.05.3-.15.25-.05-.05-.05-.2l-.05-.45q0-.25-.35-.7-.25-.35-.35-.8-.1-.55.15-.75m-.8-10.9q-.05-.05-.35.1-.25.2-.2.05 0-.1.25-.3.4-.35-.15-.15-.5.15.3-.45.1-.3-.05-.65-.25-.65-.3-.75-.15-.6-.25-.7-.15-.2-.5.15-.3.45-.3 1.1-.45.55-.35 1.2-.7.8-.2 1.3.1-.15.5-.25.2 0-.25.3-.5.25.35.25.4 0 0 .1-.15.05-.3.3-.05.15-.05.2.05.1.1.05l.45-.15q-.15.1-.25.55-.05.1.35-.05.3-.2.05.15-.1.2 0 .15.1 0 .25-.15.2-.15.1.2-.05.2 0 .6.6.9.95 1.1.7-.4.9-1.05.15-.5.05-.8-.15-.45-.05-.65.25-.35-.55-.85-.1-.1-.2-.1-.15.05-.15 0 0-.25-.25.05-.2.2-.3.1-.1-.1.2-.3.35-.2.25-.25-.05-.1-.4.1-.4.25.15-.25.25-.2.2-.25m.2 1.05q.2-.15.5.3.45 1.15-.5 2.4-.35.4-.2-.15.2-.25-.05-.85-.1-.35-.05-.9.05-.65.3-.8m-1.15-3.15q.15-.1.15 0l-.15.15q-.15.1-.15 0-.05-.1.15-.15m.1.55q.2-.05.2 0 .05.1-.15.15-.2.05-.2 0 0-.1.15-.15m-.15.55q.15-.05.2 0 .05.1-.1.2-.15.05-.2 0 0-.1.1-.2m-.3.35q0 .1-.1.15-.15.1-.05-.15.1-.05.15 0m0-.45l-.15.15q-.15.1-.15 0-.05-.15.15-.2.15-.05.15.05m-.05 1.7q-.05-.1.05-.2.15-.05.2.05 0 .05-.1.15-.1.1-.15 0m-.3-.5q.1-.05.2.05t0 .2q-.1.05-.2-.05-.1-.15 0-.2m9.6-7.8q-.2-.2-1-.2-.65-.75-1.15-.25.1.3 0 .55-.25-.35-.35-.5.05.4-.05.7-.3.5-.15-.05.05-.25-.15-.4-.15-.15-.35-.1l.1.55q-.2-.3-.6-.3.1.05.1.35 0 .15-.2-.05-.1 0-.15.05l.15.3q.3.45-.15 0-.15-.05-.6.05-.9.3-1.2.8.15.6.85.95.6.25 1 .2.55-.15.75-.05.3.05.8-.5.15-.65-.5-1 .15.05.4.25.246.197.25.3-.001-.302-.2-.6l.55.75q.1-.4-.2-.8l.45.55q.15.3.15 0 0-.2-.15-.35-.25-.5.05-.05.15.1.3.4.2 0 .1-.35-.1-.1-.05-.15.05 0 .1.15.25.35.45.45.5.05.85-.1.35-.15.6-.1.15.05.45-.05.3-.15.35-.35.05-.25-.25-.5-.25-.25-.6-.3-.5-.05-.75-.25m-1.65 0q.1-.05.2.05-.15.25-.25.1-.1-.1.05-.15m1.7.9q.05.2 0 .15-.1 0-.1-.15-.1-.15 0-.15.05-.05.1.15m-.6-.1q.25.75-.1.05-.05-.15.1-.05m.3-.5q-.15.15-.15-.05-.05-.15.05-.1.05.05.1.15m-1.75.1q-.1-.1 0-.15.05-.05.1.1.15.2-.1.05m-.7 1.25q.55.25-.05.55-.85.35-1.7-.1-.65-.3-.8-.5-.2-.2.05-.15.4.1 1.1 0 .8-.1 1.4.2m1.95-1.35q.1.15-.15.05-.05-.15 0-.15.1 0 .15.1m11.9-.25q-.55-.7-1.1-.25.25.2.1.55 0-.05-.25-.3-.1-.1-.2.35-.05.2-.1.2-.1-.05-.05-.25 0-.4-.55-.4 0 .1.1.55-.05-.1-.35-.25-.4-.2-.1.2.2.4-.15.2l-.15-.05.1.15q.3.4-.2.15-.2-.05-.55.1-.9.3-1.15.75.6 1.15 1.25 1.1.7-.05 1 0 .6.15 1.05-.45.196-.49-.1-.8l.35.35q-.05-.15-.35-.6-.1-.1-.1-.15.05 0 .2.15l.4.55q.25.25.15-.05l-.1-.45q.15.05.35.4.1.15.15.1.1-.05 0-.25-.3-.5 0-.2l.2.3q.25.1.1-.15-.1-.2-.1-.25l.15.05q.15.1.3.5.3.1.75 0 .65-.15.7-.15.25 0 .5-.15.3-.15.3-.35 0-.25-.35-.5-.4-.3-.9-.2-.45-.5-1.3-.5m1.6 1q0-.1.05-.15.05 0 .1.15.05.2-.05.15-.05 0-.1-.15m-.5.1q-.05-.2 0-.2.1 0 .15.2.1.2-.15 0m-.4-.6q-.1-.15 0-.15.1-.05.15.15.1.2-.15 0m-.35.05l.05.1q-.05.05-.25-.1-.05-.1.05-.15.1 0 .15.15m-.9-.25q-.05-.05 0-.1.1-.05.15.1.1.2-.15 0m-.25.25q.05.1-.05.15-.05 0-.1-.15 0-.45.15 0m-.9 1.3q.55.3.1.5-.75.45-1.65 0-.7-.3-.9-.6-.15-.2.05-.15.25.1.85.1.95-.1 1.55.15z"/><path fill="#373535" d="M179.9 399.9q.65.65 1.1.8-.5-1-1.1-1.1-.4 0 0 .3m2.85 4.55q1.2-.15 2.6-.75 1.85-.75 3.4-2.05-1.65 1.3-3.8 2.05-1.3.45-2.3.55-.8.05-1.4-.15-.05.15 0 .25.7.15 1.5.1m8.75-6.55q.4.4 1.65-.2-1-.35-1.65.2m3.15-3.65q-1.3.65-2.2 1.5-.6.5-1.05 1.1l.15.1q.35-.55.95-1.1.85-.75 2.1-1.45 2-1.05 3.35-1.15-1.4.05-3.3 1m2.3-7.45q-.1.25-.45.65-.25.4-.05.9.55-.45.5-1.55m1.15-2.75q.7.95 1.1 1.75.3.65.3 1.2.1.1.15 0-.05-.6-.35-1.25-.4-.85-1.15-1.85-1.3-1.6-2.55-2.35 1.2.8 2.5 2.5m-1.6-7.7l-.15.7q-.1.5.1.85.1.15.15.15.1-.05.1-.35 0-.95-.2-1.35m-8.85 6h-.7v2.35h.7v-2.35m4.45 0h-.85v1.4h.85v-1.4m-1.45 0H190v2.35h.65v-2.35m-1.3 0h-.95v1.35h.95v-1.35m-3.05 0h-1v1.35h1v-1.35m-3.15 0h-.7v2.35h.7v-2.35m10.05 0h-.55v2.35h.55V382.35m-15.35 0h-.7v2.35h.7v-2.35m1.3 0h-.8v1.35h.8v-1.35m2.7 0h-1v1.35h1v-1.35m-1.65 0h-.55v2.35h.55v-2.35m-8.9 11.5q-.05.1 0 .25.6-.15 1.55.15.85.25 2 .9 2.1 1.15 3.1 2.25-.7-1.05-3.15-2.45-1.1-.65-1.9-.9-1.05-.4-1.6-.2m2-4.2q-.3.3.4 1.6.25-1.4-.4-1.6m-3.2-8.35h-.15q-.05.45.25 1.2.2.45.55 1.05.85 1.3 2.1 2.5-1.1-1.1-1.9-2.4-.45-.7-.65-1.2-.3-.7-.2-1.15m2.85-1.25q-.1-.3-.25.05-.15.3-.05 1.35.25-.2.35-.7.05-.45-.05-.7m4.95-7.2q-.5-.35-1.6-.25 1.25.85 1.6.25m-7.7 3.5l.15.05q.05-.65.45-1.4.3-.75.9-1.6 1.25-1.85 2.55-2.75-1.1.7-2.3 2.2-.85 1.05-1.3 2.1-.35.7-.45 1.4m28.9.25q.15 0 .15-.1-.05-.65-.5-1.4-.5-.9-1.5-1.95-1.55-1.7-2.8-2.35 1.05.6 2.65 2.4 1 1.1 1.5 1.95.45.8.5 1.45m-11.4-5.05q.1-.1 0-.25-.5-.05-1.05 0-.8.1-1.8.5-1.5.65-2.45 1.5 1.15-.85 2.45-1.35 1-.45 1.8-.5.6-.05 1.05.1m1.5 1.7q.15.1.45.15.35 0 .4-.15.15-.2-.35-.35-.85-.1-1.25 0l.75.35z"/><path fill="#00A0DD" d="M186.1 398.3q-1.05.45-1.9.1-.75-.35-2.65.2 1.2.85 2.25 1.45.55-.45 1-.5.45-.05 1.15.35 1.8-1.15 2.05-1.35-1.15-.5-1.9-.25m-6.1-3.45q-1.5.35-2.1.4.85 1 1.7 1.8.8-.25 1.15-.4 1.3-.6 2.5.05 1.45.75 2.55.1 1.2-.65 2.55-.15.85.35 1.55.4 1.25-1.25 1.55-1.65-.7 0-2.05-.45-1.15-.4-2.95.2-1.7.7-3.4-.05-1.45-.55-3.05-.25m-4.3-3.15l.85 1.7q.95 0 1.9-.4 1.9-.75 3.8.05 1.45.6 2.2.65 1 .1 2.35-.4 1.5-.6 2.2-.7.8-.1 1.4.2 1.45.8 2.4.8l.95-1.75q-.65 0-2.75-.7-1.7-.7-3.8.35-1.3.65-2.5.6-1.1-.05-2.5-.7-2.45-1.15-3.95-.25-1.25.6-2.55.55m-1.15-3.95l.4 1.9q1.35.15 2.75-.4 2.15-.9 4.75.4 2.4 1.25 4.8.05 2.15-1 4.85-.3 1.8.5 2.35.45.3-.95.45-1.95-1.05.3-2.95-.3-2.9-.8-4.75.2-2.05 1.2-4.45.05-2.1-.9-4.4-.25-1.9.6-3.8.15z"/><path fill="#00755C" d="M189.05 401.9l-.3-.25q-1.55 1.3-3.4 2.05-1.4.6-2.6.75.35.45.9.9.75-.05 1.85-.45l-.2-.4.65.2q.55-.15 1.1-.45l-.1-.45.55.15.65-.7-.15-.3h.45l.6-1.05m-1.5-.45l-.2.4-.25-.4q-.75.2-1.1.3 0 .1-.2.5l-.3-.25q-.15.15-.95.55 0 .25-.1.35-.4-.2-.95-.2-.45.3-.85 1.55 1-.1 2.3-.55 2.15-.75 3.8-2.05l-.1-.7q-.5.2-.75.25l-.1.25q-.05-.05-.25 0m6.95-6.1l.25.25 1-.4v-.25l.4.05.9-.5-.1-.4.4.1q.3-.2 1-.45l-.4-.5q-1.35.1-3.35 1.15-1.25.7-2.1 1.45.4.45 1.45.45l.55-.95m2.1-2.5l-.15-.25-.65.05-.45.55-.15-.35q-.5.1-.95.45l-.35.75-.1-.55q-.45.1-1.45 1.1 0 .65.1 1.15.9-.85 2.2-1.5 1.9-.95 3.3-1l.05-.5q-.35 0-1.05-.2-.25.25-.35.3m-1.45-11.1l.65.8.35.05-.25.3.6.75.35.05-.1.25.7.7.25-.05-.05.5.45.6q.35-.1 1.1.1-.4-.8-1.1-1.75-1.3-1.7-2.5-2.5-.1.05-.45.2m1.6-.3q-.35-.2-1.05-.25l-.1.35q1.25.75 2.55 2.35.75 1 1.15 1.85.4-.55.6-.85-.5-1.15-.85-1.45l-.3.2v-.55q-.35-.6-.65-.8-.15.15-.25.15l-.15-.45-.65-.3-.15.1-.15-.35m-20.05 3.25v-.05h-2.25v1.45h20.6v-1.45h-1.85v.05l.8.5h-17.85l.55-.5m-2.9 8.65q-.6.4-.9.7.8.25 1.9.9 2.45 1.4 3.15 2.45l.45-.15q-.2-.75-.45-1l-.55-.15.3-.1-.5-.7-.6-.1.15-.25q-.15-.25-.85-.6-.4 0-.7.1l.3-.4q-.5-.35-1.7-.7m.4 2.25l.05.3q.35.4.85.7l.25-.2q-.05.05.05.4l1 .45.25-.3.2.4.9.7.2-.65q-1-1.1-3.1-2.25-1.15-.65-2-.9-.05.8.4 1.4l.95-.05m-4-13.1l-.55.8q.2.95.8 1.4l.25-.3-.05.6q.25.6.6.8l.25-.15q.1.1.1.45l.65.45.15-.2.2.4.9.3.15-.3.5-.2q-.35-.55-.75-.85l-.3-.05.3-.25-.55-.75-.35-.05.2-.2q-.4-.35-.65-.7l-.3-.05-.05-.8q-.65-.45-1.4-.4.2.5.65 1.2.8 1.3 1.9 2.4-1.25-1.2-2.1-2.5-.35-.6-.55-1.05m4.55-11.55l-.5-.3q-1.3.9-2.55 2.75-.6.85-.9 1.6.6-.15.9.05l.35-.2q0-.5.15-.95l.2.1.7-.75-.05-.3h.25q.5-.55.6-.85l-.2-.3.3.05.75-.9m-.5-.3l-.05-.4q-.35 0-.8.15l-.3.35-.05.05-.05-.15q-.35.1-.6.3l-.2.45-.2-.15-.7.75-.05.6-.15-.25q-.75.7-.85 1.7.3.6.4.9.45-1.05 1.3-2.1 1.2-1.5 2.3-2.2m20.2.15l-.65.3.9.8.4.05-.25.3.75.9.35-.05-.1.35.8.75.25-.2q.1.25.2 1 .4.2.95.15.35-.05.55 0-.5-.85-1.5-1.95-1.6-1.8-2.65-2.4m1.1-.25l-1.1-.15v.4q1.25.65 2.8 2.35 1 1.05 1.5 1.95l.45-.95q-.25-1.05-1-1.6l-.25.2-.05-.6q-.4-.55-.8-.75l-.25.25q0-.15-.25-.6l-.7-.3-.15.25-.2-.45m-10.3 2.2l.1-.3q.3-.05.7.2.25-.15.35-.55.1-.45.25-.65-.8.05-1.8.5-1.3.5-2.45 1.35-.1.35 0 .6.7-.25.95-.7.15.35.2.35.15-.05.65-.3 0-.1.2-.3l.15.15.7-.35m.85-2.1q-.8-.1-1.3.2l-.05.2q-.35-.1-1.1.3v.25h-.35l-.45.45.05.25h-.3q-.3.35-.5.85l.3.15q.95-.85 2.45-1.5 1-.4 1.8-.5-.3-.45-.55-.65z"/><path fill="#A4D2F1" d="M176.7 382.35h-.5l4.1-3.8.6.05 7.55.35 1.75.1 3.75 3.3h-.75v2.3h1.85V374.3h-20.6v10.35h2.25v-2.3z"/></g><path fill="#FDBA39" d="M195.05 386.1h-20.6q.25 9.25 10.3 14.45 10.05-5.2 10.3-14.45z" id="n"/><path fill="#373535" d="M169.4 401.4l-.8.45.1.1q.7-.3.9 0 .1.1-.05.2l-1.35 1q-.15.15-.25 0l-.15-.2-.1.1.65.9.1-.1-.1-.15q-.1-.1.05-.25l1.4-1q.1-.1.2.05.3.3-.3.85l.05.1.7-.55-1.05-1.5z" id="o"/><path fill="#373535" d="M172.2 404.9l.1-.1-.6-.6-.1.1q.25.25-.05.55l-.75.7q-.45.45-.9 0-.4-.5.05-.85l.95-.9q.15-.1.25 0l.1.1.1-.1-.7-.75-.1.1.1.15q.15.15 0 .25l-1 .95q-.55.45.1 1.1.6.6 1.25 0l.65-.65q.35-.25.55-.05z" id="p"/><path fill="#373535" d="M172.4 404.9l-.1.1q.2.15.15.3l-.7 2.1.1.1 1.85-1.1q.2-.15.4 0l.1-.1-.65-.5-.1.1q.2.2.15.25l-.05.1-.05.05-1.25.8.5-1.5.05-.1.05-.05.2.1.05.05.05-.1-.75-.6z" id="q"/><path fill="#373535" d="M176.2 407.75q.1-.15.2-.1l.2.05.05-.1-.95-.45-.05.15.15.05q.2.1.1.25l-.75 1.55q-.1.15-.2.1l-.15-.1-.1.15 1.7.75.4-.75-.1-.05q-.4.65-.95.35l-.1-.05q-.2-.1-.2-.2l.75-1.6z" id="r"/><path fill="#373535" d="M178.45 408.3l-1-.3-.05.1.2.05q.15.1.1.25l-.4 1.3q-.2.65.6.95.8.2 1.1-.65l.25-.85q.15-.4.45-.3l.05-.15-.8-.25-.05.15q.35.15.2.5l-.3.95q-.15.65-.75.45-.6-.15-.4-.8l.4-1.2q0-.2.2-.1l.15.05.05-.15z" id="s"/><path fill="#373535" d="M184.15 409.3l-.55-.05h-.25l-.7 1.65-.4-1.75-.8-.1-.05.15.2.05q.15 0 .15.15l-.15 1.45q0 .45-.35.4l-.05.15.9.1v-.15q-.35-.05-.3-.5l.15-1.6.5 2.25.1.05.9-2.15-.15 1.9q-.05.15-.2.15l-.2-.05v.15l1.05.1v-.15h-.15q-.2 0-.15-.2l.15-1.7q0-.15.15-.15h.2v-.15z" id="t"/><path fill="#373535" d="M186.2 411.3q.3-.4.25-.9 0-.5-.3-.85-.35-.35-.8-.35-.45.05-.75.4-.3.4-.25.9 0 .5.35.85.3.35.75.3.4 0 .75-.35m-.85-1.95q.6 0 .7 1.1 0 1.05-.6 1.05-.7.1-.7-1.05 0-1 .6-1.1z" id="u"/><path fill="#373535" d="M190.15 409.5h.15l-.25-.9-1.8.4.15.9h.1q-.05-.75.35-.9.05 0 .2.15l.35 1.7q.05.1-.1.2l-.2.05v.15l1.1-.25-.05-.15-.2.05q-.15 0-.2-.15l-.35-1.65q-.1-.2.1-.2.4-.15.65.6z" id="v"/><path fill="#373535" d="M191.2 409.5l.15-.05q.35-.05.5.35l.15-.05-.35-1-.15.05q.15.4-.2.5l-.15.05-.2-.7q-.05-.15.1-.2l.2-.05q.5-.2.9.4l.1-.05-.3-.75-1.8.6.05.15.2-.1q.15 0 .2.15l.55 1.6q.1.2-.1.2l-.2.1.05.1 1.8-.6-.2-.85-.1.05q.05.45 0 .6-.1.2-.5.35h-.1q-.25.1-.3 0l-.3-.85z" id="w"/><path fill="#373535" d="M196.6 405.65q-.15-.15.05-.2.25-.25.85.25l.1-.05-.6-.7-1.45 1.15.5.75.1-.1q-.4-.65-.05-.9.15-.15.25.05l1.05 1.35q.05.15-.05.25l-.15.1.1.1.85-.65-.1-.1-.15.1q-.1.1-.25-.05l-1.05-1.35z" id="x"/><path fill="#373535" d="M197.2 404.85l.1.1.1-.15q.15-.15.25 0l1 .95q.5.5 1.15-.15.55-.6-.1-1.2l-.65-.65q-.3-.3-.05-.55l-.15-.1-.6.6.15.1q.2-.25.55.05l.7.7q.5.45.05.9-.4.45-.85 0l-.95-.9q-.1-.1 0-.25l.1-.1-.1-.1-.7.75z" id="y"/><path fill="#373535" d="M173.3 408.3v-.05q-.15 0-.15-.15-.05-.05 0-.1l.05-.1.3-.25.7.45-.1.45-.05.1-.05.05-.25-.15-.05.15.8.5.05-.15q-.15-.15-.15-.25l.4-2.25-.1-.05-1.6 1.25q-.25.25-.5.1l-.05.15.7.4.05-.1m.9-.4l-.55-.35.75-.6-.2.95z" id="z"/><path fill="#373535" d="M194.6 406.6l-.1.1.35 1.95q.05.4-.1.5l.05.15.7-.45-.05-.1h-.05q-.1.15-.2.05l-.1-.05-.05-.1-.1-.35.7-.4.35.25.1.1v.1l-.25.15.1.1.8-.5-.05-.1q-.2.1-.3 0l-1.8-1.4m.65 1.35l-.3.15-.2-.95.75.6-.25.2z" id="A"/><path fill="#373535" d="M201.95 402.8l-.1-.05q-.15.15-.3.15l-2.15-.65-.1.15 1.1 1.7q.25.3.1.5l.1.05.5-.65-.1-.1-.2.2-.15-.05-.05-.05-.25-.3.5-.65.45.1.1.05v.1l-.1.2.1.1.55-.8m-1.25.2l-.45.55-.5-.85.95.3z" id="B"/><path fill="#373535" d="M179.9 410.4q.2 0 .2-.2 0-.15-.2-.15t-.2.15q0 .2.2.2z" id="C"/><path fill="#373535" d="M187.55 410.6q.2 0 .2-.2 0-.15-.2-.15t-.2.15q0 .2.2.2z" id="D"/><path fill="#373535" d="M193.65 408.9q.2 0 .2-.2t-.2-.2q-.2 0-.2.2t.2.2z" id="E"/></defs><use xlink:href="#a" transform="matrix(.69415 0 0 .7289 -111 -232.5)"/><use xlink:href="#b" transform="matrix(.69415 0 0 .7289 -111 -232.5)"/><use xlink:href="#c" transform="scale(1.99951 2.1)"/><use xlink:href="#d" transform="matrix(.69415 0 0 .7289 -111 -232.5)"/><use xlink:href="#e" transform="matrix(.69415 0 0 .7289 -111 -232.5)"/><use xlink:href="#f" transform="matrix(.69415 0 0 .7289 -111 -232.5)"/><use xlink:href="#g" transform="matrix(.69415 0 0 .7289 -111 -232.5)"/><use xlink:href="#h" transform="matrix(.69415 0 0 .7289 -111 -232.5)"/><use xlink:href="#i" transform="matrix(.69415 0 0 .7289 -111 -232.5)"/><use xlink:href="#j" transform="matrix(.69415 0 0 .7289 -111 -232.5)"/><use xlink:href="#k" transform="matrix(.69415 0 0 .7289 -111 -232.5)"/><use xlink:href="#l" transform="matrix(.69415 0 0 .7289 -111 -232.5)"/><use xlink:href="#m" transform="matrix(.69415 0 0 .7289 -111 -232.5)"/><use xlink:href="#n" transform="matrix(.69412 0 0 .72887 -111 -232.5)"/><use xlink:href="#o" transform="matrix(.69406 0 0 .7288 -111 -232.5)"/><use xlink:href="#p" transform="matrix(.69406 0 0 .7288 -111 -232.5)"/><use xlink:href="#q" transform="matrix(.69406 0 0 .7288 -111 -232.5)"/><use xlink:href="#r" transform="matrix(.69406 0 0 .7288 -111 -232.5)"/><use xlink:href="#s" transform="matrix(.69406 0 0 .7288 -111 -232.5)"/><use xlink:href="#t" transform="matrix(.69406 0 0 .7288 -111 -232.5)"/><use xlink:href="#u" transform="matrix(.69406 0 0 .7288 -111 -232.5)"/><use xlink:href="#v" transform="matrix(.69406 0 0 .7288 -111 -232.5)"/><use xlink:href="#w" transform="matrix(.69406 0 0 .7288 -111 -232.5)"/><use xlink:href="#x" transform="matrix(.69406 0 0 .7288 -111 -232.5)"/><use xlink:href="#y" transform="matrix(.69406 0 0 .7288 -111 -232.5)"/><use xlink:href="#z" transform="matrix(.69406 0 0 .7288 -111 -232.5)"/><use xlink:href="#A" transform="matrix(.69406 0 0 .7288 -111 -232.5)"/><use xlink:href="#B" transform="matrix(.69406 0 0 .7288 -111 -232.5)"/><use xlink:href="#C" transform="matrix(.69412 0 0 .72887 -111 -232.5)"/><use xlink:href="#D" transform="matrix(.69412 0 0 .72887 -111 -232.5)"/><use xlink:href="#E" transform="matrix(.69412 0 0 .72887 -111 -232.5)"/></svg>