<svg xmlns="http://www.w3.org/2000/svg" xmlns:xlink="http://www.w3.org/1999/xlink" preserveAspectRatio="none" width="200" height="105"><defs><path fill="#EE3156" d="M182.45 465.55H398.5V321.5H182.45v144.05z" id="a"/><path fill="#006DA8" d="M182.45 321.5v72H290.5v-72H182.45z" id="b"/><path fill="#FFF" d="M226.95 367q3.9 3.95 9.5 3.95t9.5-3.95q3.95-3.9 3.95-9.5 0-5.55-3.95-9.5-3.9-3.95-9.5-3.95t-9.5 3.95q-3.95 3.95-3.95 9.5 0 5.6 3.95 9.5z" id="c"/><path fill="#FFF" d="M233.3 342.4q3.05-.75 6.3-.05l-3.15-11.75-3.15 11.8z" id="d"/><path fill="#FFF" d="M226.15 346q2.3-2.2 5.45-3.2l-8.6-8.6 3.15 11.8z" id="e"/><path fill="#FFF" d="M221.75 352.7q.9-3.05 3.15-5.5l-11.8-3.15 8.65 8.65z" id="f"/><path fill="#FFF" d="M221.35 360.7q-.75-2.9-.05-6.35l-11.8 3.15 11.85 3.2z" id="g"/><path fill="#FFF" d="M224.95 367.8q-2.2-2.2-3.2-5.45L213.1 371l11.85-3.2z" id="h"/><path fill="#FFF" d="M231.65 372.2q-3.15-.95-5.5-3.15l-3.15 11.8 8.65-8.65z" id="i"/><path fill="#FFF" d="M239.6 372.65q-3.1.75-6.3 0l3.15 11.8 3.15-11.8z" id="j"/><path fill="#FFF" d="M249.95 380.85l-3.2-11.8q-2.35 2.15-5.45 3.15l8.65 8.65z" id="k"/><path fill="#FFF" d="M251.15 362.35q-.9 2.95-3.15 5.5l11.8 3.15-8.65-8.65z" id="l"/><path fill="#FFF" d="M251.6 354.35q.75 3.1 0 6.3l11.8-3.15-11.8-3.15z" id="m"/><path fill="#FFF" d="M247.95 347.2q2.2 2.3 3.2 5.45l8.65-8.6-11.85 3.15z" id="n"/><path fill="#FFF" d="M246.75 345.95l3.2-11.75-8.65 8.65q2.95.85 5.45 3.1z" id="o"/></defs><use xlink:href="#a" transform="matrix(.92569 0 0 .72888 -168.9 -234.35)"/><use xlink:href="#b" transform="matrix(.92569 0 0 .72888 -168.9 -234.35)"/><use xlink:href="#c" transform="matrix(.92566 0 0 .72885 -168.9 -234.35)"/><use xlink:href="#d" transform="matrix(.92566 0 0 .72885 -168.9 -234.35)"/><use xlink:href="#e" transform="matrix(.92566 0 0 .72885 -168.9 -234.35)"/><use xlink:href="#f" transform="matrix(.92566 0 0 .72885 -168.9 -234.35)"/><use xlink:href="#g" transform="matrix(.92566 0 0 .72885 -168.9 -234.35)"/><use xlink:href="#h" transform="matrix(.92566 0 0 .72885 -168.9 -234.35)"/><use xlink:href="#i" transform="matrix(.92566 0 0 .72885 -168.9 -234.35)"/><use xlink:href="#j" transform="matrix(.92566 0 0 .72885 -168.9 -234.35)"/><use xlink:href="#k" transform="matrix(.92566 0 0 .72885 -168.9 -234.35)"/><use xlink:href="#l" transform="matrix(.92566 0 0 .72885 -168.9 -234.35)"/><use xlink:href="#m" transform="matrix(.92566 0 0 .72885 -168.9 -234.35)"/><use xlink:href="#n" transform="matrix(.92566 0 0 .72885 -168.9 -234.35)"/><use xlink:href="#o" transform="matrix(.92566 0 0 .72885 -168.9 -234.35)"/></svg>