<svg xmlns="http://www.w3.org/2000/svg" xmlns:xlink="http://www.w3.org/1999/xlink" preserveAspectRatio="none" width="200" height="105"><defs><path fill="#007FC4" d="M398.5 321.5l-216.05 144H398.5v-144z" id="b"/><path fill="#00A05F" d="M182.45 465.5l216.05-144H182.45v144z" id="c"/><path fill="#FFF215" d="M398.5 355.8v-34.3h-51.4L182.45 431.3v34.2h51.35l164.7-109.7z" id="d"/><path fill="#373535" d="M398.5 344.95V321.5h-35.15l-180.9 120.6v23.4h35.2L398.5 344.95z" id="e"/><path id="a" stroke="#373535" stroke-width=".25" stroke-linejoin="miter" stroke-linecap="butt" stroke-miterlimit="4" fill="none" d="M-.008 105.015V.02h199.995v104.996H-.008z"/></defs><use xlink:href="#a" transform="matrix(.99999 0 0 1 -.008 -.018)"/><use xlink:href="#b" transform="matrix(.92569 0 0 .72914 -168.9 -234.4)"/><use xlink:href="#c" transform="matrix(.92569 0 0 .72914 -168.9 -234.4)"/><use xlink:href="#d" transform="matrix(.92569 0 0 .72914 -168.9 -234.4)"/><use xlink:href="#e" transform="matrix(.92569 0 0 .72914 -168.9 -234.4)"/></svg>