<svg xmlns="http://www.w3.org/2000/svg" xmlns:xlink="http://www.w3.org/1999/xlink" preserveAspectRatio="none" width="200" height="105"><defs><g id="a"><path fill="#D74452" d="M219.95 4.85V-6.2H-53.5V4.85h273.45m0 22.15V15.9H-53.5V27h273.45m0 22.15v-11.1H-53.5v11.1h273.45M56-50.5v11.05h163.95V-50.5H56m0 22.15v11.05h163.95v-11.05H56m0-44.3v11.1h163.95v-11.1H56m0-22.15v11.1h163.95v-11.1H56z"/><path fill="#FFF" d="M219.95 15.9V4.85H-53.5V15.9h273.45m0 22.15V27H-53.5v11.05h273.45M56-17.3v.1H-53.5v11h273.45v-11.1H56m0-22.15v11.1h163.95v-11.1H56m0-44.25v11.05h163.95V-83.7H56m0 22.15v11.05h163.95v-11.05H56z"/><path fill="#21467B" d="M56-50.5V-94.8H-53.5v77.6H56v-33.3z"/></g><path fill="#FFF" d="M-43.4-88.35l-1-3.05-1 3.05h-3.2l2.6 1.9-1 3.05 2.6-1.9 2.6 1.9-1-3.1 2.6-1.85h-3.2z" id="c"/><path fill="#FFF" d="M-25.15-88.35l-1-3.05-1 3.05h-3.2l2.6 1.9-1 3.05 2.6-1.9 2.6 1.9-1-3.1 2.6-1.85h-3.2z" id="d"/><path fill="#FFF" d="M-6.9-88.35l-1-3.05-1 3.05h-3.2l2.6 1.9-1 3.05 2.6-1.9 2.6 1.9-1-3.1 2.6-1.85h-3.2z" id="e"/><path fill="#FFF" d="M11.35-88.35l-1-3.05-1 3.05h-3.2l2.6 1.9-1 3.05 2.6-1.9 2.6 1.9-1-3.1 2.6-1.85h-3.2z" id="f"/><path fill="#FFF" d="M29.6-88.35l-1-3.05-1 3.05h-3.2l2.6 1.9-1 3.05 2.6-1.9 2.6 1.9-1-3.1 2.6-1.85h-3.2z" id="g"/><path fill="#FFF" d="M47.85-88.35l-1-3.05-1 3.05h-3.2l2.6 1.9-1 3.05 2.6-1.9 2.6 1.9-1-3.1 2.6-1.85h-3.2z" id="h"/><path fill="#FFF" d="M-43.4-72.85l-1-3.1-1 3.05h-3.2L-46-71l-1 3.05 2.6-1.9 2.6 1.9-1-3.05 2.6-1.85h-3.2z" id="i"/><path fill="#FFF" d="M-27.15-72.9h-3.2l2.6 1.9-1 3.05 2.6-1.9 2.6 1.9-1-3.05 2.6-1.85h-3.2l-1-3.1-1 3.05z" id="j"/><path fill="#FFF" d="M-8.9-72.9h-3.2l2.6 1.9-1 3.05 2.6-1.9 2.6 1.9-1-3.05 2.6-1.85h-3.2l-1-3.1-1 3.05z" id="k"/><path fill="#FFF" d="M9.35-72.9h-3.2l2.6 1.9-1 3.05 2.6-1.9 2.6 1.9-1-3.05 2.6-1.85h-3.2l-1-3.1-1 3.05z" id="l"/><path fill="#FFF" d="M27.6-72.9h-3.2L27-71l-1 3.05 2.6-1.9 2.6 1.9-1-3.05 2.6-1.85h-3.2l-1-3.1-1 3.05z" id="m"/><path fill="#FFF" d="M45.85-72.9h-3.2l2.6 1.9-1 3.05 2.6-1.9 2.6 1.9-1-3.05 2.6-1.85h-3.2l-1-3.1-1 3.05z" id="n"/><path fill="#FFF" d="M-43.4-57.4l-1-3.05-1 3.05h-3.2l2.6 1.9-1 3.05 2.6-1.9 2.6 1.9-1-3.1 2.6-1.85h-3.2z" id="o"/><path fill="#FFF" d="M-21.95-57.4h-3.2l-1-3.05-1 3.05h-3.2l2.6 1.9-1 3.05 2.6-1.9 2.6 1.9-1-3.1 2.6-1.85z" id="p"/><path fill="#FFF" d="M-6.9-57.4l-1-3.05-1 3.05h-3.2l2.6 1.9-1 3.05 2.6-1.9 2.6 1.9-1-3.1 2.6-1.85h-3.2z" id="q"/><path fill="#FFF" d="M8.75-55.5l-1 3.05 2.6-1.9 2.6 1.9-1-3.1 2.6-1.85h-3.2l-1-3.05-1 3.05h-3.2l2.6 1.9z" id="r"/><path fill="#FFF" d="M29.6-57.4l-1-3.05-1 3.05h-3.2l2.6 1.9-1 3.05 2.6-1.9 2.6 1.9-1-3.1 2.6-1.85h-3.2z" id="s"/><path fill="#FFF" d="M47.85-57.4l-1-3.05-1 3.05h-3.2l2.6 1.9-1 3.05 2.6-1.9 2.6 1.9-1-3.1 2.6-1.85h-3.2z" id="t"/><path fill="#FFF" d="M-43.4-41.95l-1-3.05-1 3.05h-3.2l2.6 1.9-1 3.05 2.6-1.9 2.6 1.9-1-3.05 2.6-1.9h-3.2z" id="u"/><path fill="#FFF" d="M-25.15-41.95l-1-3.05-1 3.05h-3.2l2.6 1.9-1 3.05 2.6-1.9 2.6 1.9-1-3.05 2.6-1.9h-3.2z" id="v"/><path fill="#FFF" d="M-6.9-41.95l-1-3.05-1 3.05h-3.2l2.6 1.9-1 3.05 2.6-1.9 2.6 1.9-1-3.05 2.6-1.9h-3.2z" id="w"/><path fill="#FFF" d="M11.35-41.95l-1-3.05-1 3.05h-3.2l2.6 1.9-1 3.05 2.6-1.9 2.6 1.9-1-3.05 2.6-1.9h-3.2z" id="x"/><path fill="#FFF" d="M29.6-41.95l-1-3.05-1 3.05h-3.2l2.6 1.9L26-37l2.6-1.9 2.6 1.9-1-3.05 2.6-1.9h-3.2z" id="y"/><path fill="#FFF" d="M47.85-41.95l-1-3.05-1 3.05h-3.2l2.6 1.9-1 3.05 2.6-1.9 2.6 1.9-1-3.05 2.6-1.9h-3.2z" id="z"/><path fill="#FFF" d="M-43.4-26.45l-1-3.05-1 3.05h-3.2l2.6 1.85-1 3.05 2.6-1.85 2.6 1.85-1-3.05 2.6-1.85h-3.2z" id="A"/><path fill="#FFF" d="M-25.15-26.45l-1-3.05-1 3.05h-3.2l2.6 1.85-1 3.05 2.6-1.85 2.6 1.85-1-3.05 2.6-1.85h-3.2z" id="B"/><path fill="#FFF" d="M-6.9-26.45l-1-3.05-1 3.05h-3.2l2.6 1.85-1 3.05 2.6-1.85 2.6 1.85-1-3.05 2.6-1.85h-3.2z" id="C"/><path fill="#FFF" d="M11.35-26.45l-1-3.05-1 3.05h-3.2l2.6 1.85-1 3.05 2.6-1.85 2.6 1.85-1-3.05 2.6-1.85h-3.2z" id="D"/><path fill="#FFF" d="M29.6-26.45l-1-3.05-1 3.05h-3.2L27-24.6l-1 3.05 2.6-1.85 2.6 1.85-1-3.05 2.6-1.85h-3.2z" id="E"/><path fill="#FFF" d="M47.85-26.45l-1-3.05-1 3.05h-3.2l2.6 1.85-1 3.05 2.6-1.85 2.6 1.85-1-3.05 2.6-1.85h-3.2z" id="F"/><path fill="#FFF" d="M-31.1-34.15h-3.2l-1-3.05-.95 3.05h-3.25l2.6 1.9-1 3.05 2.6-1.9 2.6 1.9-1-3.1 2.6-1.85z" id="G"/><path fill="#FFF" d="M-16.05-34.15l-1-3.05-.95 3.05h-3.25l2.6 1.9-1 3.05 2.6-1.9 2.6 1.9-1-3.1 2.6-1.85h-3.2z" id="H"/><path fill="#FFF" d="M2.2-34.15l-1-3.05-.95 3.05H-3l2.6 1.9-1 3.05 2.6-1.9 2.6 1.9-1-3.1 2.6-1.85H2.2z" id="I"/><path fill="#FFF" d="M22.05-29.2l-1-3.1 2.6-1.85h-3.2l-1-3.05-.95 3.05h-3.25l2.6 1.9-1 3.05 2.6-1.9 2.6 1.9z" id="J"/><path fill="#FFF" d="M38.7-34.15l-1-3.05-.95 3.05H33.5l2.6 1.9-1 3.05 2.6-1.9 2.6 1.9-1-3.1 2.6-1.85h-3.2z" id="K"/><path fill="#FFF" d="M-34.3-49.65l-1-3.05-.95 3.05h-3.25l2.6 1.9-1 3.05 2.6-1.9 2.6 1.9-1-3.1 2.6-1.85h-3.2z" id="L"/><path fill="#FFF" d="M-16.05-49.65l-1-3.05-.95 3.05h-3.25l2.6 1.9-1 3.05 2.6-1.9 2.6 1.9-1-3.1 2.6-1.85h-3.2z" id="M"/><path fill="#FFF" d="M2.2-49.65l-1-3.05-.95 3.05H-3l2.6 1.9-1 3.05 2.6-1.9 2.6 1.9-1-3.1 2.6-1.85H2.2z" id="N"/><path fill="#FFF" d="M20.45-49.65l-1-3.05-.95 3.05h-3.25l2.6 1.9-1 3.05 2.6-1.9 2.6 1.9-1-3.1 2.6-1.85h-3.2z" id="O"/><path fill="#FFF" d="M38.7-49.65l-1-3.05-.95 3.05H33.5l2.6 1.9-1 3.05 2.6-1.9 2.6 1.9-1-3.1 2.6-1.85h-3.2z" id="P"/><path fill="#FFF" d="M-34.3-65.15l-1-3.05-.95 3.05h-3.25l2.6 1.9-1 3.05 2.6-1.9 2.6 1.9-1-3.1 2.6-1.85h-3.2z" id="Q"/><path fill="#FFF" d="M-16.05-65.15l-1-3.05-.95 3.05h-3.25l2.6 1.9-1 3.05 2.6-1.9 2.6 1.9-1-3.1 2.6-1.85h-3.2z" id="R"/><path fill="#FFF" d="M2.2-65.15l-1-3.05-.95 3.05H-3l2.6 1.9-1 3.05 2.6-1.9 2.6 1.9-1-3.1 2.6-1.85H2.2z" id="S"/><path fill="#FFF" d="M19.45-68.2l-.95 3.05h-3.25l2.6 1.9-1 3.05 2.6-1.9 2.6 1.9-1-3.1 2.6-1.85h-3.2l-1-3.05z" id="T"/><path fill="#FFF" d="M38.7-65.15l-1-3.05-.95 3.05H33.5l2.6 1.9-1 3.05 2.6-1.9 2.6 1.9-1-3.1 2.6-1.85h-3.2z" id="U"/><path fill="#FFF" d="M-34.3-80.65l-1-3.05-.95 3.05h-3.25l2.6 1.9-1 3.05 2.6-1.9 2.6 1.9-1-3.1 2.6-1.85h-3.2z" id="V"/><path fill="#FFF" d="M-16.05-80.65l-1-3.05-.95 3.05h-3.25l2.6 1.9-1 3.05 2.6-1.9 2.6 1.9-1-3.1 2.6-1.85h-3.2z" id="W"/><path fill="#FFF" d="M2.2-80.65l-1-3.05-.95 3.05H-3l2.6 1.9-1 3.05 2.6-1.9 2.6 1.9-1-3.1 2.6-1.85H2.2z" id="X"/><path fill="#FFF" d="M22.05-75.7l-1-3.1 2.6-1.85h-3.2l-1-3.05-.95 3.05h-3.25l2.6 1.9-1 3.05 2.6-1.9 2.6 1.9z" id="Y"/><path fill="#FFF" d="M38.7-80.65l-1-3.05-.95 3.05H33.5l2.6 1.9-1 3.05 2.6-1.9 2.6 1.9-1-3.1 2.6-1.85h-3.2z" id="Z"/><path id="b" stroke="#373535" stroke-width=".25" stroke-linejoin="miter" stroke-linecap="butt" stroke-miterlimit="4" fill="none" d="M80.108 56.604v-.073"/></defs><g transform="matrix(.73138 0 0 .72942 39.15 69.15)"><use xlink:href="#a"/><use xlink:href="#b" transform="matrix(1.36726 0 0 1.37096 -53.5 -94.8)"/></g><use xlink:href="#c" transform="matrix(.73135 0 0 .72939 39.15 69.15)"/><use xlink:href="#d" transform="matrix(.73135 0 0 .72939 39.15 69.15)"/><use xlink:href="#e" transform="matrix(.73135 0 0 .72939 39.15 69.15)"/><use xlink:href="#f" transform="matrix(.73135 0 0 .72939 39.15 69.15)"/><use xlink:href="#g" transform="matrix(.73135 0 0 .72939 39.15 69.15)"/><use xlink:href="#h" transform="matrix(.73135 0 0 .72939 39.15 69.15)"/><use xlink:href="#i" transform="matrix(.73135 0 0 .72939 39.15 69.15)"/><use xlink:href="#j" transform="matrix(.73135 0 0 .72939 39.15 69.15)"/><use xlink:href="#k" transform="matrix(.73135 0 0 .72939 39.15 69.15)"/><use xlink:href="#l" transform="matrix(.73135 0 0 .72939 39.15 69.15)"/><use xlink:href="#m" transform="matrix(.73135 0 0 .72939 39.15 69.15)"/><use xlink:href="#n" transform="matrix(.73135 0 0 .72939 39.15 69.15)"/><use xlink:href="#o" transform="matrix(.73135 0 0 .72939 39.15 69.15)"/><use xlink:href="#p" transform="matrix(.73135 0 0 .72939 39.15 69.15)"/><use xlink:href="#q" transform="matrix(.73135 0 0 .72939 39.15 69.15)"/><use xlink:href="#r" transform="matrix(.73135 0 0 .72939 39.15 69.15)"/><use xlink:href="#s" transform="matrix(.73135 0 0 .72939 39.15 69.15)"/><use xlink:href="#t" transform="matrix(.73135 0 0 .72939 39.15 69.15)"/><use xlink:href="#u" transform="matrix(.73135 0 0 .72939 39.15 69.15)"/><use xlink:href="#v" transform="matrix(.73135 0 0 .72939 39.15 69.15)"/><use xlink:href="#w" transform="matrix(.73135 0 0 .72939 39.15 69.15)"/><use xlink:href="#x" transform="matrix(.73135 0 0 .72939 39.15 69.15)"/><use xlink:href="#y" transform="matrix(.73135 0 0 .72939 39.15 69.15)"/><use xlink:href="#z" transform="matrix(.73135 0 0 .72939 39.15 69.15)"/><use xlink:href="#A" transform="matrix(.73135 0 0 .72939 39.15 69.15)"/><use xlink:href="#B" transform="matrix(.73135 0 0 .72939 39.15 69.15)"/><use xlink:href="#C" transform="matrix(.73135 0 0 .72939 39.15 69.15)"/><use xlink:href="#D" transform="matrix(.73135 0 0 .72939 39.15 69.15)"/><use xlink:href="#E" transform="matrix(.73135 0 0 .72939 39.15 69.15)"/><use xlink:href="#F" transform="matrix(.73135 0 0 .72939 39.15 69.15)"/><use xlink:href="#G" transform="matrix(.73135 0 0 .72939 39.15 69.15)"/><use xlink:href="#H" transform="matrix(.73135 0 0 .72939 39.15 69.15)"/><use xlink:href="#I" transform="matrix(.73135 0 0 .72939 39.15 69.15)"/><use xlink:href="#J" transform="matrix(.73135 0 0 .72939 39.15 69.15)"/><use xlink:href="#K" transform="matrix(.73135 0 0 .72939 39.15 69.15)"/><use xlink:href="#L" transform="matrix(.73135 0 0 .72939 39.15 69.15)"/><use xlink:href="#M" transform="matrix(.73135 0 0 .72939 39.15 69.15)"/><use xlink:href="#N" transform="matrix(.73135 0 0 .72939 39.15 69.15)"/><use xlink:href="#O" transform="matrix(.73135 0 0 .72939 39.15 69.15)"/><use xlink:href="#P" transform="matrix(.73135 0 0 .72939 39.15 69.15)"/><use xlink:href="#Q" transform="matrix(.73135 0 0 .72939 39.15 69.15)"/><use xlink:href="#R" transform="matrix(.73135 0 0 .72939 39.15 69.15)"/><use xlink:href="#S" transform="matrix(.73135 0 0 .72939 39.15 69.15)"/><use xlink:href="#T" transform="matrix(.73135 0 0 .72939 39.15 69.15)"/><use xlink:href="#U" transform="matrix(.73135 0 0 .72939 39.15 69.15)"/><use xlink:href="#V" transform="matrix(.73135 0 0 .72939 39.15 69.15)"/><use xlink:href="#W" transform="matrix(.73135 0 0 .72939 39.15 69.15)"/><use xlink:href="#X" transform="matrix(.73135 0 0 .72939 39.15 69.15)"/><use xlink:href="#Y" transform="matrix(.73135 0 0 .72939 39.15 69.15)"/><use xlink:href="#Z" transform="matrix(.73135 0 0 .72939 39.15 69.15)"/></svg>