<svg xmlns="http://www.w3.org/2000/svg" xmlns:xlink="http://www.w3.org/1999/xlink" preserveAspectRatio="none" width="200" height="105"><defs><path fill="#FFF" d="M182.5 465.5h216v-144h-216v144z" id="a"/><path fill="#009CD9" d="M398.5 353.55v-16h-136v16h136z" id="b"/><path fill="#009CD9" d="M398.5 385.55v-16h-136v16h136z" id="c"/><path fill="#009CD9" d="M182.5 401.55v16h216v-16h-216z" id="d"/><path fill="#009CD9" d="M182.5 433.55v16h216v-16h-216z" id="e"/><g id="f"><path fill="#373535" d="M212.45 330.8q-.036.01-.1 0-1.393.393-2 1.65h.05q-.788 1.442.3 3.35.684 1.206 1 3.3.272 1.796.1 2.9-.329 2.156 1.25 5.35 1.601 3.22 1.5 6.05-1.062-.676-4.95-.65-4.142.08-7-2.9-1.886-1.97-5.25-2-2.908.02-3.5-.95-.015-.012-.05-.05-.05.01-.1 0-.035.05-.05.1-.735 1.3-.35 2.6.544 1.558 2.65 2.1 1.352.37 3.05 1.65 1.458 1.087 2.15 1.95 1.259 1.756 4.65 2.9 3.38 1.16 5.4 3.25-1.287.269-4 3.05-2.908 2.967-7.05 2.85-2.755-.023-5.1 2.35-2.079 2.084-3.15 1.8-.013.01-.05 0-.048.052-.1.1.01.036 0 .05.394 1.428 1.65 2.05 1.442.736 3.35-.35 1.207-.684 3.3-1 1.796-.272 2.9-.15 2.156.379 5.35-1.2 3.22-1.602 6.05-1.55-.676 1.112-.65 5 .08 4.142-2.9 7-1.969 1.938-2 5.25.02 2.908-.95 3.5-.012.015-.05.05.01.05 0 .1.05.035.1.05 1.3.735 2.6.3 1.558-.494 2.1-2.65.37-1.302 1.65-3.05 1.087-1.408 1.95-2.1 1.756-1.26 2.9-4.6 1.16-3.428 3.25-5.45.27 1.287 3.05 4 2.967 2.908 2.85 7.05-.023 2.754 2.35 5.1 2.084 2.079 1.8 3.1.01.063 0 .1.052.048.1.05.036.04.05 0 1.428-.344 2.05-1.6.736-1.442-.35-3.35v-.05q-.684-1.157-1-3.3-.272-1.746-.15-2.9.379-2.106-1.2-5.3-1.603-3.175-1.55-6.1 1.112.726 5 .65 4.142-.03 7 2.9 1.938 2.019 5.25 2 2.908.03 3.5.95.015.062.05.05.05.04.1 0 .035 0 .05-.05.735-1.3.3-2.6-.494-1.558-2.65-2.15-1.302-.32-3.05-1.6-1.408-1.087-2.1-2-1.26-1.706-4.6-2.9-3.428-1.11-5.45-3.2 1.287-.27 4-3.1v.05q2.908-2.968 7.05-2.9 2.754.086 5.1-2.3 2.079-2.084 3.1-1.85.063.04.1 0 .048-.001.05-.05.04-.036 0-.1-.343-1.393-1.6-2v.05q-1.442-.788-3.35.3h-.05q-1.157.684-3.3 1-1.746.272-2.9.1-2.106-.329-5.3 1.25-3.175 1.603-6.1 1.5.726-1.063.65-4.95-.03-4.142 2.9-7 2.02-1.886 2-5.25.03-2.908.95-3.5.062-.015.05-.05.04-.05 0-.1 0-.035-.05-.05-1.3-.735-2.6-.35-1.558.544-2.15 2.65-.32 1.352-1.6 3.05-1.087 1.458-2 2.15-1.706 1.259-2.9 4.65-1.11 3.38-3.2 5.4-.27-1.287-3.1-4h.05q-2.968-2.908-2.9-7.05.086-2.755-2.3-5.1-2.084-2.079-1.85-3.15.04-.013 0-.05-.001-.048-.05-.1m-1.85 1.75q.504-1.057 1.6-1.45-.077 1.168 1.95 3.2 2.327 2.254 2.25 4.9-.083 4.258 2.95 7.25 3.013 2.89 3 4.05.02.045.05.05.042.067.1.05.044.03.05 0 2.306-2.067 3.5-5.65 1.156-3.31 2.8-4.55.937-.708 2.05-2.2 1.32-1.752 1.65-3.15.558-1.944 2-2.45 1.11-.336 2.2.2-.88.742-.9 3.6.03 3.236-1.9 5.05-3.02 2.942-3 7.2.068 4.167-.75 5-.03.043-.05.1.02.044.05.05.042.067.1.05 3.074.172 6.45-1.55 3.106-1.521 5.15-1.2 1.196.178 3-.1 2.206-.334 3.4-1.05 1.792-1.012 3.15-.3 1.057.504 1.4 1.6-1.118-.077-3.15 1.95-2.255 2.327-4.9 2.25-4.258-.083-7.25 2.95-2.89 3.013-4.05 3-.045.02-.1.05-.017.042-.05.1.02.044.05.05 2.067 2.306 5.7 3.5 3.26 1.156 4.5 2.8.708.937 2.15 2.05 1.802 1.32 3.15 1.65 1.994.558 2.45 2 .386 1.11-.15 2.2-.742-.88-3.6-.9-3.188.031-5.05-1.9-2.942-3.02-7.2-3-4.167.068-5-.75-.043-.03-.1-.05-.044.02-.1.05-.017.042-.05.1-.122 3.074 1.6 6.45 1.521 3.106 1.15 5.15-.128 1.196.15 3 .334 2.207 1.05 3.4 1.014 1.792.35 3.15-.535 1.059-1.7 1.4.128-1.117-1.9-3.15-2.314-2.255-2.3-4.9.132-4.258-2.9-7.25h-.05q-2.963-2.89-3-4.05.03-.045 0-.1-.042-.017-.1-.05-.044.02-.1.05-2.256 2.067-3.5 5.7-1.106 3.26-2.8 4.5-.887.708-2 2.15-1.32 1.802-1.7 3.15-.508 1.994-1.95 2.45-1.11.386-2.25-.15.93-.743.9-3.6.019-3.188 1.9-5.05 3.07-2.942 3-7.2-.018-4.167.8-5 .03-.043 0-.1.03-.044 0-.1-.042-.017-.1-.05-3.023-.122-6.45 1.6-3.106 1.521-5.2 1.15-1.146-.128-3 .15-2.157.334-3.4 1.05h.05q-1.792 1.014-3.15.35-1.059-.535-1.45-1.7 1.167.128 3.2-1.9 2.254-2.314 4.9-2.3 4.258.132 7.25-2.9v-.05q2.89-2.963 4.05-3 .045.03.05 0 .067-.042.05-.1.03-.044 0-.1-2.067-2.256-5.65-3.5-3.31-1.106-4.55-2.8-.708-.887-2.2-2-1.752-1.32-3.15-1.7-1.944-.508-2.45-1.95-.336-1.11.2-2.25.743.93 3.6.9 3.236.02 5.05 1.9 2.942 3.07 7.2 3 4.167-.018 5 .8.043.03.1 0 .044.03.05 0 .067-.042.05-.1.172-3.023-1.55-6.45-1.521-3.106-1.2-5.2.178-1.146-.1-3-.334-2.156-1.05-3.4v.05q-1.012-1.792-.3-3.15z"/><path fill="#FFF215" d="M212.2 331.1q-1.096.393-1.6 1.45-.712 1.358.3 3.15v-.05q.716 1.244 1.05 3.4.278 1.854.1 3-.321 2.094 1.2 5.2 1.722 3.427 1.55 6.45.017.058-.05.1-.006.03-.05 0-.057.03-.1 0-.833-.818-5-.8-4.258.07-7.2-3-1.814-1.88-5.05-1.9-2.857.03-3.6-.9-.536 1.14-.2 2.25.506 1.442 2.45 1.95 1.398.38 3.15 1.7 1.492 1.113 2.2 2 1.24 1.694 4.55 2.8 3.583 1.244 5.65 3.5.03.056 0 .1.017.058-.05.1-.005.03-.05 0-1.16.037-4.05 3v.05q-2.992 3.032-7.25 2.9-2.646-.014-4.9 2.3-2.033 2.028-3.2 1.9.391 1.165 1.45 1.7 1.358.664 3.15-.35h-.05q1.243-.716 3.4-1.05 1.854-.278 3-.15 2.094.371 5.2-1.15 3.427-1.722 6.45-1.6.058.033.1.05.03.056 0 .1.03.057 0 .1-.818.833-.8 5 .07 4.258-3 7.2-1.881 1.862-1.9 5.05.03 2.857-.9 3.6 1.14.536 2.25.15 1.442-.456 1.95-2.45.38-1.348 1.7-3.15 1.113-1.442 2-2.15 1.694-1.24 2.8-4.5 1.244-3.633 3.5-5.7.056-.03.1-.05.058.033.1.05.03.055 0 .1.037 1.16 3 4.05h.05q3.032 2.992 2.9 7.25-.014 2.645 2.3 4.9 2.028 2.033 1.9 3.15 1.165-.341 1.7-1.4.664-1.358-.35-3.15-.716-1.193-1.05-3.4-.278-1.804-.15-3 .371-2.044-1.15-5.15-1.722-3.376-1.6-6.45.033-.058.05-.1.056-.03.1-.05.057.02.1.05.833.818 5 .75 4.258-.02 7.2 3 1.862 1.931 5.05 1.9 2.858.02 3.6.9.536-1.09.15-2.2-.456-1.442-2.45-2-1.348-.33-3.15-1.65-1.442-1.113-2.15-2.05-1.24-1.644-4.5-2.8-3.633-1.194-5.7-3.5-.03-.006-.05-.05.033-.058.05-.1.055-.03.1-.05 1.16.013 4.05-3 2.992-3.033 7.25-2.95 2.645.077 4.9-2.25 2.032-2.027 3.15-1.95-.343-1.096-1.4-1.6-1.358-.712-3.15.3-1.194.716-3.4 1.05-1.804.278-3 .1-2.044-.321-5.15 1.2-3.376 1.722-6.45 1.55-.058.017-.1-.05-.03-.006-.05-.05.02-.057.05-.1.818-.833.75-5-.02-4.258 3-7.2 1.93-1.814 1.9-5.05.02-2.858.9-3.6-1.09-.536-2.2-.2-1.442.506-2 2.45-.33 1.398-1.65 3.15-1.113 1.492-2.05 2.2-1.644 1.24-2.8 4.55-1.194 3.583-3.5 5.65-.006.03-.05 0-.058.017-.1-.05-.03-.005-.05-.05.013-1.16-3-4.05-3.033-2.992-2.95-7.25.077-2.646-2.25-4.9-2.027-2.032-1.95-3.2z"/></g><g id="g"><path fill="#373535" d="M222.4 329.2q-.013.03-.05.05l-4.2 21.95-18.4-12.55q-.009-.027-.05-.05-.056.024-.1.05-.026.044-.05.1.023.041.05.05l12.55 18.45-21.95 4.1q-.02.037-.05.05-.027.057-.05.1.023.043.05.05.03.063.05.05l21.95 4.25-12.55 18.35q-.027.059-.05.1.024.056.05.1.044.026.1 0 .04.027.05 0l18.45-12.55 4.15 21.9q.037.07.05.1.057.027.1 0 .043.027.05 0 .063-.03.05-.1l4.2-21.9 18.35 12.55q.059.027.1 0 .056.026.1 0 .026-.044 0-.1.027-.041 0-.1l-12.55-18.4 21.9-4.2q.07.013.1-.05.027-.007 0-.05.027-.043 0-.1-.03-.013-.1-.05l-21.9-4.15 12.55-18.4q.027-.009 0-.05.026-.056 0-.1-.044-.026-.1-.05-.041.023-.1.05l-18.4 12.55-4.15-21.95q.013-.02-.05-.05-.007-.027-.05-.05-.043.023-.1.05m4.1 22.2q.038.07.05.1.057.025.1 0 .04.026.05 0l18.05-12.3-12.25 18q-.026.06-.05.1.025.043.05.05.03.062.05.05l21.45 4.1-21.45 4.05q-.02.038-.05.05-.025.057-.05.1.024.04.05.05l12.25 18.05-18-12.25q-.009-.026-.05-.05-.043.025-.1.05-.012.03-.05.05l-4.05 21.45-4.1-21.45q.012-.02-.05-.05-.007-.025-.05-.05-.04.024-.1.05l-18.05 12.25 12.3-18q.026-.01 0-.05.025-.043 0-.1-.03-.012-.1-.05l-21.45-4.1 21.45-4.05q.07.012.1-.05.025-.007 0-.05.026-.041 0-.1l-12.3-18.05 18 12.3q.059.026.1 0 .043.025.05 0 .062-.03.05-.1l4.15-21.45 4 21.45z"/><path fill="#FFF215" d="M226.55 351.5q-.012-.03-.05-.1l-4-21.45-4.15 21.45q.012.07-.05.1-.007.025-.05 0-.041.026-.1 0l-18-12.3 12.3 18.05q.026.059 0 .1.025.043 0 .05-.03.062-.1.05l-21.45 4.05 21.45 4.1q.07.038.1.05.025.057 0 .1.026.04 0 .05l-12.3 18 18.05-12.25q.06-.026.1-.05.043.025.05.05.062.03.05.05l4.1 21.45 4.05-21.45q.038-.02.05-.05.057-.025.1-.05.041.024.05.05l18 12.25-12.25-18.05q-.026-.01-.05-.05.025-.043.05-.1.03-.012.05-.05L254 361.5l-21.45-4.1q-.02.012-.05-.05-.025-.007-.05-.05.024-.04.05-.1l12.25-18-18.05 12.3q-.01.026-.05 0-.043.025-.1 0z"/></g><path fill="#FDBA3A" d="M218.3 371.65l14.3-14.35 12.65-18.55-45.55 45.55 18.6-12.65z" id="h"/><path fill="#FDBA3A" d="M232.6 365.7l-14.35-14.3-18.55-12.65 45.55 45.55-12.65-18.6z" id="j"/><path fill="#FDBA3A" d="M226.7 371.65l-.05-20.25-4.15-22.1v64.45l4.2-22.1z" id="l"/><path fill="#FDBA3A" d="M212.35 365.75l20.25-.05 22.1-4.2h-64.45l22.1 4.25z" id="n"/><g id="p"><path fill="#373535" d="M233.6 361.5q.031-4.608-3.25-7.85-3.242-3.281-7.85-3.3-4.607.019-7.9 3.3-3.281 3.242-3.3 7.85.019 4.658 3.3 7.9 3.293 3.281 7.9 3.25 4.608.031 7.85-3.25 3.281-3.293 3.25-7.9m-3.45-7.65q3.219 3.158 3.2 7.65.019 4.492-3.2 7.7-3.158 3.219-7.65 3.2-4.493.019-7.7-3.2-3.22-3.158-3.25-7.7.031-4.492 3.25-7.65 3.207-3.22 7.7-3.25 4.492.031 7.65 3.25z"/><path fill="#FFF215" d="M233.35 361.5q.019-4.492-3.2-7.65-3.158-3.219-7.65-3.25-4.493.03-7.7 3.25-3.219 3.158-3.25 7.65.03 4.542 3.25 7.7 3.207 3.219 7.7 3.2 4.492.019 7.65-3.2 3.219-3.208 3.2-7.7z"/></g><path fill="#373535" d="M222.8 366.95q.3.1 1-.5.35-.25.9-.1.35.1.95.35.2 0 .2-.1 0-.15-.2-.1-.3 0-1.45-.6-.65-.4-1.25-.1-.5.25-.95 0-.55-.3-1.65.45-.55.35-1.05.15-.15-.05-.15.05.05.1.15.2.05 0 1-.2.3-.1 1.05.05.1.05.45.25.3.2.45.2h.55z" id="W"/><path fill="#373535" d="M223.8 367.25q-.65.2-.9.15-.45-.1-.9 0-.4.1-.75-.1-.4-.2-.85-.15-.55 0 .05.15.3 0 .95.45.5.4 1.1.3.65 0 .85-.3.3-.3.95-.45.4-.1.15-.15-.2-.05-.65.1z" id="X"/><path fill="#373535" d="M223.2 370.6q-.05-.2-.3-.35-.234-.187-.35-.2.161.013 1.8.2 1.35.2 2.05-.25-.4.1-1.35.05-.95-.1-1.65-.3-.7-.25-1.6-.25-.85 0-1.25.2-.85.35-2 .35.25.2.9.15.65 0 1.05-.2.35-.15.85-.1.45 0 .6.15.1.1.65.25.5.15.6.3z" id="Y"/><path fill="#373535" d="M215.25 355.8q-.25.2 0 .25.25.05.45-.2.1-.15.5-.25.4-.05.65-.25.3-.3.7-.3.35 0 .5.15.05.1.8.45.75.45 1.05.7.75.55.75.15-.05-.25.25-.5.2-.15.15-.35 0-.25-.3-.3-1.35-.15-2.35-.65-1-.6-3.15 1.1z" id="Z"/><path fill="#373535" d="M217.9 359.55q.6.15 1-.05l1.5-.55q.1 0 .2-.05.05 0-.15-.15-.15-.1-.65.15-.65.4-1.3.45-.4 0-.95-.2-.5-.2-.7-.4.3.6 1.05.8z" id="aa"/><path fill="#373535" d="M216.1 358.05q-.25.35.15.2.3-.15 1.05-.4 0 1.2 1.1 1.2.55 0 .85-.45.25-.4.15-.8.7.6.8.35l.3-.5q-1.3-.6-1.85-.6-1.5.45-1.95.55-.35.05-.6.45m1.75-.3q0 .75.3.75l.05.25q-.35-.05-.45-.4-.1-.4.1-.6z" id="ab"/><path fill="#373535" d="M225.05 363.15l-.2-.4q-.35-.2-.15.35.3.6-.55.5-.7 0-.95.25-.2.15-.5.15-.4.05-.55-.15-.25-.35-1.05-.35-.55 0-.45-.6.15-.4-.15-.1-.15.15-.15.35 0 .4-.95 1.2-.25.25-.25.3 0 .1.3-.15.85-.55 1.1-.85.2.2.35.2.75.05 1.05.3l-.05.75q0 .15.05.15t.1-.2l.25-.5.7-.05.25.65q.05.15.15.1.05-.1 0-.25l-.05-.65q.5-.3 1.1-.15.1.05.35-.1l.6.7q.2.2.3.2.05 0-.05-.2-.6-1.2-.6-1.45z" id="ac"/><path fill="#373535" d="M226.5 355.65q.4-.1.45-.15.1-.15.45-.1.4 0 .75.3.25.2.65.1.35-.1.45.05.2.25.45.1.2-.1-.05-.35-1.95-1.45-3.1-1-1.9.7-2.35.75-.3.05-.3.3-.05.2.15.35.5.4.25.5-.75.6-.45 1.75.05.25 0 1.6-.1 1.2.4 2.25-.1-.3-.1-.85-.05-.55.1-.3.2.4.5.55.25.15-.1-.65-.1-.2.3-.5.4-.25.3-.5-.15-.3-.15-.7l.85.4q.4.2 1.05 0 .8-.2 1.1-.8-.2.2-.7.4-.5.2-.9.2-.8-.05-1.45-.5v-.7l.5-.35q-.1.4.15.8.3.45.85.45 1.1 0 1.1-1.2.75.25 1.05.4.4.15.15-.2-.25-.4-.6-.45-1.45-.5-1.95-.55-.35 0-1.25.4.1-.7.3-.8.25-.1.35-.35.15-.25 0-.4.25-.15.8-.25m.6 2.1q.2.2.1.6-.1.35-.45.4l.05-.25q.3 0 .3-.75z" id="ad"/><path id="i" stroke="#373535" stroke-width=".05" stroke-linejoin="round" stroke-linecap="round" fill="none" d="M33.161 36.547l-17.22 9.224 42.172-33.214L46.4 26.083 33.16 36.547z"/><path id="k" stroke="#373535" stroke-width=".05" stroke-linejoin="round" stroke-linecap="round" fill="none" d="M33.115 21.781l-17.174-9.224L58.113 45.77 46.4 32.208 33.115 21.781z"/><path id="m" stroke="#373535" stroke-width=".05" stroke-linejoin="round" stroke-linecap="round" fill="none" d="M40.892 21.781L37.05 5.666v46.995l3.888-16.114-.046-14.766z"/><path id="o" stroke="#373535" stroke-width=".05" stroke-linejoin="round" stroke-linecap="round" fill="none" d="M27.653 32.245l-20.462-3.1h59.671l-20.461 3.063-18.748.037z"/><path id="q" stroke="#373535" stroke-width=".05" stroke-linejoin="round" stroke-linecap="round" fill="none" d="M27.19 8.911q-.232.766.833 2.406 1.111 1.714.88 3.573-.186 1.386.925 3.1.556.947 1.574 2.114"/><path id="r" stroke="#373535" stroke-width=".05" stroke-linejoin="round" stroke-linecap="round" fill="none" d="M28.532 11.062q.926 1.386 1.065 1.714"/><path id="s" stroke="#373535" stroke-width=".05" stroke-linejoin="round" stroke-linecap="round" fill="none" d="M30.106 15.802q.417 1.349 2.639 3.5"/><path id="t" stroke="#373535" stroke-width=".05" stroke-linejoin="round" stroke-linecap="round" fill="none" d="M11.867 20.323q.556.656 2.731 1.24 2.361.619 3.842 2.04 1.158 1.095 3.472 1.714 1.25.329 3.01.584"/><path id="u" stroke="#373535" stroke-width=".05" stroke-linejoin="round" stroke-linecap="round" fill="none" d="M14.783 21.088q.186.073 1.111.255.695.183 1.158.365"/><path id="v" stroke="#373535" stroke-width=".05" stroke-linejoin="round" stroke-linecap="round" fill="none" d="M20.153 23.567q1.528.73 5 1.021"/><path id="w" stroke="#373535" stroke-width=".05" stroke-linejoin="round" stroke-linecap="round" fill="none" d="M11.311 36.911q.973.183 3.056-.656 2.176-.875 4.536-.693 1.76.146 3.935-.692 2.176-1.021 2.685-1.276"/><path id="x" stroke="#373535" stroke-width=".05" stroke-linejoin="round" stroke-linecap="round" fill="none" d="M14.043 35.854q1.759-.73 2.175-.839"/><path id="y" stroke="#373535" stroke-width=".05" stroke-linejoin="round" stroke-linecap="round" fill="none" d="M20.06 34.614q1.714-.328 4.445-2.078"/><path id="z" stroke="#373535" stroke-width=".05" stroke-linejoin="round" stroke-linecap="round" fill="none" d="M25.8 48.98q.834-.438 1.575-2.152.787-1.86 2.592-3.026 1.389-.912 2.176-2.734.602-1.896.74-2.37"/><path id="A" stroke="#373535" stroke-width=".05" stroke-linejoin="round" stroke-linecap="round" fill="none" d="M26.773 46.682q.37-1.13.787-1.786"/><path id="B" stroke="#373535" stroke-width=".05" stroke-linejoin="round" stroke-linecap="round" fill="none" d="M29.92 42.453q.927-1.203 1.297-3.938"/><path id="C" stroke="#373535" stroke-width=".05" stroke-linejoin="round" stroke-linecap="round" fill="none" d="M46.864 49.417q.231-.766-.833-2.37-1.111-1.75-.88-3.61.185-1.385-.88-3.099-1.296-1.677-1.62-2.114"/><path id="D" stroke="#373535" stroke-width=".05" stroke-linejoin="round" stroke-linecap="round" fill="none" d="M45.521 47.266q-.925-1.35-1.064-1.714"/><path id="E" stroke="#373535" stroke-width=".05" stroke-linejoin="round" stroke-linecap="round" fill="none" d="M43.947 42.526q-.416-1.35-2.638-3.5"/><path id="F" stroke="#373535" stroke-width=".05" stroke-linejoin="round" stroke-linecap="round" fill="none" d="M62.187 38.005q-.556-.656-2.732-1.24-2.36-.62-3.842-2.041-1.157-1.094-3.472-1.677-2.407-.474-3.009-.62"/><path id="G" stroke="#373535" stroke-width=".05" stroke-linejoin="round" stroke-linecap="round" fill="none" d="M59.27 37.24q-1.435-.292-2.268-.62"/><path id="H" stroke="#373535" stroke-width=".05" stroke-linejoin="round" stroke-linecap="round" fill="none" d="M53.9 34.76q-1.527-.729-5-1.02"/><path id="I" stroke="#373535" stroke-width=".05" stroke-linejoin="round" stroke-linecap="round" fill="none" d="M62.742 21.416q-.972-.182-3.009.657-2.222.875-4.583.692-1.759-.145-3.935.73-1.203.437-2.685 1.24"/><path id="J" stroke="#373535" stroke-width=".05" stroke-linejoin="round" stroke-linecap="round" fill="none" d="M60.01 22.474q-1.712.729-2.175.838"/><path id="K" stroke="#373535" stroke-width=".05" stroke-linejoin="round" stroke-linecap="round" fill="none" d="M53.993 23.713q-1.713.328-4.444 2.078"/><path id="L" stroke="#373535" stroke-width=".05" stroke-linejoin="round" stroke-linecap="round" fill="none" d="M48.253 9.349q-.834.437-1.574 2.15-.787 1.86-2.593 3.027-1.388.911-2.13 2.734-.416.984-.786 2.37"/><path id="M" stroke="#373535" stroke-width=".05" stroke-linejoin="round" stroke-linecap="round" fill="none" d="M47.28 11.645q-.092.146-.324.875-.231.547-.463.912"/><path id="N" stroke="#373535" stroke-width=".05" stroke-linejoin="round" stroke-linecap="round" fill="none" d="M44.133 15.875q-.926 1.203-1.297 3.937"/><path id="O" stroke="#373535" stroke-width=".05" stroke-linejoin="round" stroke-linecap="round" fill="none" d="M42.929 34.943q3.472-2.26 3.472-5.797 0-1.313-.602-2.662"/><path id="P" stroke="#373535" stroke-width=".05" stroke-linejoin="round" stroke-linecap="round" fill="none" d="M45.568 26.12l-.417-.693"/><path id="Q" stroke="#373535" stroke-width=".05" stroke-linejoin="round" stroke-linecap="round" fill="none" d="M44.827 25.026l-.278-.292"/><path id="R" stroke="#373535" stroke-width=".05" stroke-linejoin="round" stroke-linecap="round" fill="none" d="M44.271 24.442l-.231-.182"/><path id="S" stroke="#373535" stroke-width=".05" stroke-linejoin="round" stroke-linecap="round" fill="none" d="M35.152 21.927l-.556.073"/><path id="T" stroke="#373535" stroke-width=".05" stroke-linejoin="round" stroke-linecap="round" fill="none" d="M33.624 22.255l-.694.255"/><path id="U" stroke="#373535" stroke-width=".05" stroke-linejoin="round" stroke-linecap="round" fill="none" d="M32.236 22.802l-.926.51"/><path id="V" stroke="#373535" stroke-width=".05" stroke-linejoin="round" stroke-linecap="round" fill="none" d="M30.43 23.896q-.37.255-.74.656"/></defs><use xlink:href="#a" transform="matrix(.9259 0 0 .72917 -168.95 -234.45)"/><use xlink:href="#b" transform="matrix(.92587 0 0 .72917 -168.95 -234.45)"/><use xlink:href="#c" transform="matrix(.92587 0 0 .72917 -168.95 -234.45)"/><use xlink:href="#d" transform="matrix(.92587 0 0 .72917 -168.95 -234.45)"/><use xlink:href="#e" transform="matrix(.92587 0 0 .72917 -168.95 -234.45)"/><use xlink:href="#f" transform="matrix(.92587 0 0 .72917 -168.95 -234.45)"/><use xlink:href="#g" transform="matrix(.92587 0 0 .72917 -168.95 -234.45)"/><g transform="matrix(.92584 0 0 .72917 -168.95 -234.45)"><use xlink:href="#h"/><use xlink:href="#i" transform="matrix(1.0801 0 0 1.37141 182.45 321.5)"/></g><g transform="matrix(.92584 0 0 .72917 -168.95 -234.45)"><use xlink:href="#j"/><use xlink:href="#k" transform="matrix(1.0801 0 0 1.37141 182.45 321.5)"/></g><g transform="matrix(.92584 0 0 .72917 -168.95 -234.45)"><use xlink:href="#l"/><use xlink:href="#m" transform="matrix(1.0801 0 0 1.37141 182.45 321.5)"/></g><g transform="matrix(.92584 0 0 .72917 -168.95 -234.45)"><use xlink:href="#n"/><use xlink:href="#o" transform="matrix(1.0801 0 0 1.37141 182.45 321.5)"/></g><use xlink:href="#p" transform="matrix(.92587 0 0 .72917 -168.95 -234.45)"/><use xlink:href="#q" transform="matrix(1 0 0 1 -.03 -.021)"/><use xlink:href="#r" transform="matrix(1 0 0 1 -.03 -.021)"/><use xlink:href="#s" transform="matrix(1 0 0 1 -.03 -.021)"/><use xlink:href="#t" transform="matrix(1 0 0 1 -.03 -.021)"/><use xlink:href="#u" transform="matrix(1 0 0 1 -.03 -.021)"/><use xlink:href="#v" transform="matrix(1 0 0 1 -.03 -.021)"/><use xlink:href="#w" transform="matrix(1 0 0 1 -.03 -.021)"/><use xlink:href="#x" transform="matrix(1 0 0 1 -.03 -.021)"/><use xlink:href="#y" transform="matrix(1 0 0 1 -.03 -.021)"/><use xlink:href="#z" transform="matrix(1 0 0 1 -.03 -.021)"/><use xlink:href="#A" transform="matrix(1 0 0 1 -.03 -.021)"/><use xlink:href="#B" transform="matrix(1 0 0 1 -.03 -.021)"/><use xlink:href="#C" transform="matrix(1 0 0 1 -.03 -.021)"/><use xlink:href="#D" transform="matrix(1 0 0 1 -.03 -.021)"/><use xlink:href="#E" transform="matrix(1 0 0 1 -.03 -.021)"/><use xlink:href="#F" transform="matrix(1 0 0 1 -.03 -.021)"/><use xlink:href="#G" transform="matrix(1 0 0 1 -.03 -.021)"/><use xlink:href="#H" transform="matrix(1 0 0 1 -.03 -.021)"/><use xlink:href="#I" transform="matrix(1 0 0 1 -.03 -.021)"/><use xlink:href="#J" transform="matrix(1 0 0 1 -.03 -.021)"/><use xlink:href="#K" transform="matrix(1 0 0 1 -.03 -.021)"/><use xlink:href="#L" transform="matrix(1 0 0 1 -.03 -.021)"/><use xlink:href="#M" transform="matrix(1 0 0 1 -.03 -.021)"/><use xlink:href="#N" transform="matrix(1 0 0 1 -.03 -.021)"/><use xlink:href="#O" transform="matrix(1 0 0 1 -.03 -.021)"/><use xlink:href="#P" transform="matrix(1 0 0 1 -.03 -.021)"/><use xlink:href="#Q" transform="matrix(1 0 0 1 -.03 -.021)"/><use xlink:href="#R" transform="matrix(1 0 0 1 -.03 -.021)"/><use xlink:href="#S" transform="matrix(1 0 0 1 -.03 -.021)"/><use xlink:href="#T" transform="matrix(1 0 0 1 -.03 -.021)"/><use xlink:href="#U" transform="matrix(1 0 0 1 -.03 -.021)"/><use xlink:href="#V" transform="matrix(1 0 0 1 -.03 -.021)"/><use xlink:href="#W" transform="matrix(.92584 0 0 .72917 -168.95 -234.45)"/><use xlink:href="#X" transform="matrix(.92584 0 0 .72917 -168.95 -234.45)"/><use xlink:href="#Y" transform="matrix(.92584 0 0 .72917 -168.95 -234.45)"/><use xlink:href="#Z" transform="matrix(.92584 0 0 .72917 -168.95 -234.45)"/><use xlink:href="#aa" transform="matrix(.92584 0 0 .72917 -168.95 -234.45)"/><use xlink:href="#ab" transform="matrix(.92584 0 0 .72917 -168.95 -234.45)"/><use xlink:href="#ac" transform="matrix(.92584 0 0 .72917 -168.95 -234.45)"/><use xlink:href="#ad" transform="matrix(.92584 0 0 .72917 -168.95 -234.45)"/></svg>