<svg xmlns="http://www.w3.org/2000/svg" xmlns:xlink="http://www.w3.org/1999/xlink" preserveAspectRatio="none" width="200" height="105"><defs><path fill="#F2653C" d="M434.5 419.45V367.6H146.45v51.85H434.5z" id="a"/><path fill="#0097C3" d="M434.5 367.6v-46.1H146.45v46.1H434.5z" id="b"/><path fill="#FFF" d="M146.45 370.5v46.1H434.5v-46.1H146.45z" id="c"/><path fill="#3FB65F" d="M146.45 419.45v46.1H434.5v-46.1H146.45z" id="d"/><path fill="#FFF" d="M181 344.55q0-5.6 3.95-9.6 4-3.95 9.6-3.95 1.35 0 3.1.35-4.65-3.95-11-3.95-7.1 0-12.1 5-5.05 5.05-5.05 12.15 0 7.1 5.05 12.15 5 5 12.1 5 6.35 0 11-3.95-1.75.35-3.1.35-5.6 0-9.6-3.95-3.95-3.95-3.95-9.6z" id="e"/><path fill="#FFF" d="M255.85 357.75h-2.65l-.8-2.5-.8 2.5h-2.65l2.15 1.55-.85 2.5 2.15-1.55 2.15 1.55-.85-2.5 2.15-1.55z" id="f"/><path fill="#FFF" d="M240.85 355.25l-.8 2.5h-2.7l2.2 1.55-.85 2.5 2.15-1.55 2.1 1.55-.8-2.5 2.15-1.55h-2.65l-.8-2.5z" id="g"/><path fill="#FFF" d="M229.25 355.25l-.8 2.5h-2.65l2.15 1.55-.8 2.5 2.1-1.55 2.15 1.55-.8-2.5 2.15-1.55h-2.65l-.85-2.5z" id="h"/><path fill="#FFF" d="M217.7 355.25l-.8 2.5h-2.65l2.15 1.55-.8 2.5 2.1-1.55 2.15 1.55-.8-2.5 2.15-1.55h-2.65l-.85-2.5z" id="i"/><path fill="#FFF" d="M206.95 357.75l-.8-2.5-.8 2.5h-2.65l2.15 1.55-.85 2.5 2.15-1.55 2.15 1.55-.85-2.5 2.15-1.55h-2.65z" id="j"/><path fill="#FFF" d="M255.85 329.8h-2.65l-.8-2.55-.8 2.5h-2.65l2.15 1.6-.85 2.5 2.15-1.55 2.15 1.55-.85-2.55 2.15-1.5z" id="k"/><path fill="#FFF" d="M240.85 327.25l-.8 2.5h-2.7l2.2 1.6-.85 2.5 2.15-1.55 2.1 1.55-.8-2.55 2.15-1.5h-2.65l-.8-2.55z" id="l"/><path fill="#FFF" d="M232.75 329.8h-2.65l-.85-2.55-.8 2.5h-2.65l2.15 1.6-.8 2.5 2.1-1.55 2.15 1.55-.8-2.55 2.15-1.5z" id="m"/><path fill="#FFF" d="M253.2 343.75l-.8-2.5-.8 2.5h-2.65l2.15 1.55-.85 2.55 2.15-1.6 2.15 1.6-.85-2.55 2.15-1.55h-2.65z" id="n"/><path fill="#FFF" d="M240.85 341.25l-.8 2.5h-2.7l2.2 1.55-.85 2.55 2.15-1.6 2.1 1.6-.8-2.55 2.15-1.55h-2.65l-.8-2.5z" id="o"/><path fill="#FFF" d="M229.25 341.25l-.8 2.5h-2.65l2.15 1.55-.8 2.55 2.1-1.6 2.15 1.6-.8-2.55 2.15-1.55h-2.65l-.85-2.5z" id="p"/><path fill="#FFF" d="M217.7 341.25l-.8 2.5h-2.65l2.15 1.55-.8 2.55 2.1-1.6 2.15 1.6-.8-2.55 2.15-1.55h-2.65l-.85-2.5z" id="q"/></defs><use xlink:href="#a" transform="matrix(.6943 0 0 .72888 -101.7 -234.35)"/><use xlink:href="#b" transform="matrix(.6943 0 0 .72888 -101.7 -234.35)"/><use xlink:href="#c" transform="matrix(.6943 0 0 .72888 -101.7 -234.35)"/><use xlink:href="#d" transform="matrix(.6943 0 0 .72888 -101.7 -234.35)"/><use xlink:href="#e" transform="matrix(.69427 0 0 .72885 -101.7 -234.35)"/><use xlink:href="#f" transform="matrix(.69427 0 0 .72885 -101.7 -234.35)"/><use xlink:href="#g" transform="matrix(.69427 0 0 .72885 -101.7 -234.35)"/><use xlink:href="#h" transform="matrix(.69427 0 0 .72885 -101.7 -234.35)"/><use xlink:href="#i" transform="matrix(.69427 0 0 .72885 -101.7 -234.35)"/><use xlink:href="#j" transform="matrix(.69427 0 0 .72885 -101.7 -234.35)"/><use xlink:href="#k" transform="matrix(.69427 0 0 .72885 -101.7 -234.35)"/><use xlink:href="#l" transform="matrix(.69427 0 0 .72885 -101.7 -234.35)"/><use xlink:href="#m" transform="matrix(.69427 0 0 .72885 -101.7 -234.35)"/><use xlink:href="#n" transform="matrix(.69427 0 0 .72885 -101.7 -234.35)"/><use xlink:href="#o" transform="matrix(.69427 0 0 .72885 -101.7 -234.35)"/><use xlink:href="#p" transform="matrix(.69427 0 0 .72885 -101.7 -234.35)"/><use xlink:href="#q" transform="matrix(.69427 0 0 .72885 -101.7 -234.35)"/></svg>