<svg xmlns="http://www.w3.org/2000/svg" xmlns:xlink="http://www.w3.org/1999/xlink" preserveAspectRatio="none" width="200" height="105"><defs><path fill="#FFF215" d="M345.65 321.5h-110.4v144.05h110.4V321.5z" id="a"/><path fill="#009776" d="M272.9 367.3l-14.4 21.55 14.4 21.6 14.4-21.6-14.4-21.55z" id="b"/><path fill="#009776" d="M290.5 436.7l14.35-21.6-14.35-21.6-14.4 21.6 14.4 21.6z" id="c"/><path fill="#009776" d="M322.45 388.85l-14.4-21.55-14.4 21.55 14.4 21.6 14.4-21.6z" id="d"/><path fill="#0071B8" d="M235.25 321.5h-52.8v144.05h52.8V321.5z" id="e"/><path fill="#009776" d="M398.5 321.5h-52.85v144.05h52.85V321.5z" id="f"/></defs><use xlink:href="#a" transform="matrix(.92569 0 0 .72888 -168.9 -234.35)"/><use xlink:href="#b" transform="matrix(.92566 0 0 .72885 -168.9 -234.35)"/><use xlink:href="#c" transform="matrix(.92566 0 0 .72885 -168.9 -234.35)"/><use xlink:href="#d" transform="matrix(.92566 0 0 .72885 -168.9 -234.35)"/><use xlink:href="#e" transform="matrix(.92569 0 0 .72888 -168.9 -234.35)"/><use xlink:href="#f" transform="matrix(.92569 0 0 .72888 -168.9 -234.35)"/></svg>