<svg xmlns="http://www.w3.org/2000/svg" xmlns:xlink="http://www.w3.org/1999/xlink" preserveAspectRatio="none" width="200" height="105"><defs><path fill="#007FC4" d="M398.5 417.5v-48h-216v48h216z" id="a"/><path fill="#FFF215" d="M398.5 369.5v-48h-216v48h216z" id="b"/><path fill="#EE333E" d="M182.5 417.5v48h216v-48h-216z" id="c"/><path fill="#FFF" d="M291.65 381.85l-1.15-3.45-1.1 3.45h-3.7l3 2.15-1.15 3.5 2.95-2.15 2.95 2.15-1.1-3.5 2.95-2.15h-3.65z" id="d"/><path fill="#FFF" d="M280.65 384.45H277l-1.15-3.5-1.1 3.45h-3.7l3 2.2-1.15 3.45 2.95-2.15 2.95 2.15-1.15-3.5 3-2.1z" id="e"/><path fill="#FFF" d="M264.15 391.85l-1.15-3.5-1.1 3.45h-3.7l3 2.2-1.15 3.45 2.95-2.15 2.95 2.15-1.1-3.5 2.95-2.1h-3.65z" id="f"/><path fill="#FFF" d="M254.6 403.2l-1.15-3.45-1.1 3.45h-3.7l3 2.15-1.15 3.5 2.95-2.2 2.95 2.2-1.15-3.5 3-2.15h-3.65z" id="g"/><path fill="#FFF" d="M303.3 386.55l-1.15 3.5 2.95-2.15 2.95 2.15-1.15-3.45 3-2.2h-3.7l-1.1-3.45-1.15 3.5h-3.65l3 2.1z" id="h"/><path fill="#FFF" d="M317.95 388.35l-1.15 3.5h-3.65l2.95 2.1-1.1 3.5 2.95-2.15 2.95 2.15-1.15-3.45 3-2.2h-3.7l-1.1-3.45z" id="i"/><path fill="#FFF" d="M327.5 399.75l-1.15 3.45h-3.65l3 2.15-1.15 3.5 2.95-2.2 2.95 2.2-1.15-3.5 3-2.15h-3.7l-1.1-3.45z" id="j"/></defs><use xlink:href="#a" transform="matrix(.92589 0 0 .72923 -168.95 -234.45)"/><use xlink:href="#b" transform="matrix(.92589 0 0 .72923 -168.95 -234.45)"/><use xlink:href="#c" transform="matrix(.92589 0 0 .72923 -168.95 -234.45)"/><use xlink:href="#d" transform="matrix(.92586 0 0 .7292 -168.95 -234.45)"/><use xlink:href="#e" transform="matrix(.92586 0 0 .7292 -168.95 -234.45)"/><use xlink:href="#f" transform="matrix(.92586 0 0 .7292 -168.95 -234.45)"/><use xlink:href="#g" transform="matrix(.92586 0 0 .7292 -168.95 -234.45)"/><use xlink:href="#h" transform="matrix(.92586 0 0 .7292 -168.95 -234.45)"/><use xlink:href="#i" transform="matrix(.92586 0 0 .7292 -168.95 -234.45)"/><use xlink:href="#j" transform="matrix(.92586 0 0 .7292 -168.95 -234.45)"/></svg>