<svg xmlns="http://www.w3.org/2000/svg" xmlns:xlink="http://www.w3.org/1999/xlink" preserveAspectRatio="none" width="200" height="105"><defs><path fill="#FFF" d="M182.5 465.5h216v-144h-216v144z" id="a"/><path fill="#00AFD6" d="M189.65 374.7q1.95 1.5 2.55 3.5 5.65 19 7.6 25.65.5 1.7-.05 2.9-.45.95-1.8 2.15h12q-1.35-1.2-1.8-2.15-.55-1.2-.05-2.9l7.6-25.65q.35-1.05.7-1.6.65-.95 1.9-1.9h-10q.9.45 1.35 1.7.4 1.1.2 1.95-1.5 5.55-5.9 20.35-4.4-14.8-5.85-20.35-.25-.8.2-1.95.45-1.25 1.35-1.7h-10z" id="b"/><path fill="#00AFD6" d="M372.2 374.7q2.6 1.4 2.6 4.9v24.45q0 3.5-2.6 4.9h10.75q-2.65-1.4-2.65-4.9V379.6q0-3.5 2.65-4.9H372.2z" id="c"/><g id="d"><path fill="#373535" d="M288.95 342.75q-2.3-.05-3.5.5-1.35.5-1.9 1.8-.75-.05-1.25.35-.7.45-.9 1.35-3.15.2-3.95.7-1.6.95-1.55 4.4v.35l.2-.25q1.15-1.25 2.15-1.3H280.15q1.55-.4 3 .8 1.35 1.2.85 2.4-1.25 1.3-1.9 3.6-.75 2.35-2.9 3.5l-.15.1.1.1q.2.2.85.4h-.05q.3.1.55.15-.95.65-2.5 2.45-1.45 1.6-2.25 1.75h-.15l.05.15q.15.4 1 .65.6.15 1.25.15-.8 1.2-.85 1.3-.85 1.1-1.6 1.4l-.45.2.05.05 29.65-.4-.1-.2q-1.3-2.6-3.2-4.3.55-.05 1.35-.3 1.05-.4 1.25-.7l.1-.15-.15-.05q-1.6-.7-3.15-2-1.9-1.5-2.55-3.05.5.15 1.25.15.9-.1 1.3-.3l.2-.05-.15-.15q-1.65-1.25-2.55-4.25-.45-1.6-.9-4.4-.6-3.7-3.2-5.45-2.2-1.45-5.25-1.45m-5.3 2.55h.1l.05-.1q.45-1.25 1.75-1.7 1.2-.5 3.4-.5 2.95-.05 5.1 1.4 2.55 1.75 3.1 5.3.4 2.85.9 4.4.9 3 2.5 4.3-.4.1-1.05.15-.9-.05-1.45-.2l-.25-.1.1.25q.65 1.75 2.75 3.4 1.5 1.25 3.05 1.95-.3.2-1.05.5-.95.3-1.6.35h-.35l.3.2q2 1.65 3.35 4.25l-28.3.4q.6-.45 1.2-1.25v-.05q.05-.1.95-1.45l.15-.25-.25.05q-.75 0-1.4-.15-.55-.15-.7-.35.8-.25 2.2-1.8 1.8-2.05 2.75-2.6l.35-.2h-.45q-.3-.05-.8-.2-.4-.15-.55-.25 2.1-1.2 2.85-3.55.65-2.2 1.8-3.4 1.9-.4 2.4-2.2.5-1.85-1.25-2.35-3.7-1.15-3.7-2.45 0-.1.05-.2.15-.85.8-1.3.5-.35 1.2-.3m-2.3 1.7v.05q-.05.55.45 1.05.4.4 1.2.85.3.15.7.3.05 0 .1.05.6.25 1.45.5 1.5.45 1.05 2.05-.4 1.45-1.8 1.9-.15 0-.25.05l.1-.3q.2-1.15-1.05-2.25-1.5-1.3-3.2-.85h-1.85q-1 0-2.1 1.15.05-3 1.45-3.9.75-.45 3.75-.65m-59.6 39.6l.05.15q1.7 5.65 5.85 6.95 3.1.9 3.45 1.1 1.7.7 2.3 2.05.3.8 1.25 3.45-1.1-.4-2.4-2.15-1.4-1.9-3.1-1.9-2.95-.15-4.2-1.25l-.35-.25.15.4q1.75 5.2 5 5.65 2.85.45 3.85 1v.05q1.95.9 3.1 3.2-1-.7-2.6-1.05-1.8-.4-2.9-.1-.95.15-2.2.15-1.35-.1-2.25-.45l-.3-.15.15.3q.7 1.7 2.6 2.9 2.1 1.35 3.9.95 2.2-.5 3.3 0 1.5.6 2.85 2.95-.8-.7-2-1.15-1.8-.7-2.95-.2-1.05.4-2.4.6-1.55.1-2.65-.15l-.3-.1.15.25q.95 1.75 3 2.7 2 .9 3.85.55 3.6-.7 5.6 2.75-1.25-1-3.1-1-1.5-.15-2.85.35-2.3.85-4.75-.05l-.35-.15.2.35q1.3 2.05 3.35 3 2.4 1.1 5.35.35 1.9-.5 3 .1.3.15 1.05 1-3.35-.8-4.8.35-1.95 1.55-3.95 1.45l-.3-.05.2.25q1.1 1.1 3.5 1.25 2.05.15 3.55-.45.9-.3 2.3-.9.95-.15 1.6 1v-.05q1.95 3.65 4.6 8.1 3.3 5.5 4.65 6.75l.05.1.1-.1q.35-.45 1.85-.25 1.65.2 2.65-.65l.1-.05-.1-.1q-1.85-2.4-5.2-6.9-3.5-4.75-4.55-6.45-1.35-1.95-.05-3.05h-.05q1.9-.95 2.4-1.35.9-.8 1.4-2.2.55-1.8 0-3.6l-.15-.45-.1.45q-.35 1.55-3.35 2.95-1 .5-1.55 2.35-.3.85-.35 1.5-.3-1.2.2-2.6.45-1.55 1.6-2.8.95-1 1-3.25 0-2.15-.75-3.9l-.2-.45-.05.05v.5q0 2.05-2.55 4.25-.7.55-.9 2.6-.15 1.8-.6 2.45-1.3-2-1.55-3.15-.3-1.45.8-2.15 2.35-1.55 2.6-4.55.1-2.4-1.05-4.7l-.05-.05-.2-.45-.05.05.05.5q.2 1.6-2.15 3.75-.9.8-1 2.9-.05 2.05-.45 2.85-1.6-3.3-1.1-5.5.25-1.4 1.7-2.75 1.1-1.1 1.2-3.15 0-2.25-1.2-4.05l-.2-.35v.4q0 1-.6 2.1-.7 1.2-1.6 1.75-1.2.65-1.25 2.8-.15 1.95-.25 2.65-1.15-2.35-.9-4.6.2-2.35 1.9-3.7.9-.85 1.05-2.9.05-2.05-.85-3.55v-.05h-.05l-.25-.4h-.1l.15.5q.3.95-1 2-1.85 1.45-2.25 2.45-.4.9-.15 2.8.15 1.5-.1 2.45-.9-2.2-1.25-3.05-.45-1.05-.1-2.15.3-1.1 1.8-3.5 1.35-2.2.75-4.75-.55-1.9-1.9-3.55l-.2-.25v.3q-.1.65-1.1 2.95-.95 2.15-.65 3.25.65 2.85-.2 4.65-1.05-2.1-1.25-4.8 0-2.9-.05-3.85-.05-1.55-1.25-3.2-1.2-1.9-3.3-3.25l-.15-.1-.05.15q-.75 1.65-.85 3.85-.2 2.9 1.1 3.9 1.3 1.15 2.5 3 1.1 1.75 1.7 3.5-1.3-.25-2.4-1.5-.35-.45-1.75-2.55-.9-1.5-2.8-2.35-1.8-.8-3.45-.5h-.15m6.3-7.1q1.95 1.3 3.1 3.1 1.1 1.6 1.2 3.05 0 .95.05 3.85.25 2.9 1.4 5.1l.1.25.1-.25q1.05-1.9.35-5-.25-1.05.65-3.1.85-1.95 1.05-2.75 1.15 1.55 1.65 3.25.55 2.4-.7 4.55-1.5 2.45-1.85 3.55v.05q-.4 1.15.1 2.3.4.9 1.4 3.4l.1.3.15-.3q.4-1.1.2-2.95t.15-2.65q.35-1 2.15-2.35 1.05-.85 1.15-1.65.6 1.3.55 2.95-.1 1.95-.95 2.7-1.75 1.35-2 3.85-.25 2.45 1.1 5.05l.15.3.1-.3q.1-.25.3-3.05.1-1.95 1.15-2.6.95-.55 1.65-1.85.5-.95.6-1.8.95 1.65.95 3.6-.05 1.95-1.1 2.95-1.5 1.45-1.8 2.9-.55 2.35 1.25 5.85l.1.2.1-.15q.5-.8.6-3.2.05-2 .9-2.7 2.1-1.9 2.25-3.45.9 2.05.8 4.15-.2 2.9-2.5 4.35-1.25.8-.9 2.4.3 1.25 1.7 3.4l.1.1.1-.1q.55-.65.75-2.75.15-1.85.8-2.4 2.3-2 2.6-3.9.5 1.5.55 3.25-.1 2.15-.95 3.1-1.15 1.3-1.65 2.85-.65 1.95.15 3.55 0 .05.05.1l.25.45.15-.05-.15-.5q-.3-.75.2-2.3.5-1.7 1.4-2.2v.05q2.75-1.25 3.35-2.7.35 1.5-.1 3.05v-.05q-.45 1.3-1.3 2.1-.45.4-2.35 1.35-1.45 1.2 0 3.4 1.05 1.65 4.55 6.45 3.3 4.45 5.15 6.8-.9.65-2.35.5-1.5-.2-2 .25-1.3-1.35-4.5-6.65-2.65-4.4-4.6-8.05-.75-1.3-1.85-1.1h-.05q-1.4.55-2.3.9-1.5.55-3.45.45-2.05-.1-3.05-.95 1.9 0 3.75-1.5 1.5-1.15 5.05-.2l.4.1-.3-.3q-1.1-1.15-1.45-1.35-1.2-.7-3.15-.15-2.9.7-5.2-.35-1.8-.85-3-2.6 2.35.8 4.55-.05 1.35-.45 2.75-.35 2.15 0 3.4 1.35l.35.35.1-.05-.25-.45v-.05q-2.1-4.2-6.15-3.4-1.8.3-3.7-.55-1.8-.85-2.75-2.3 1.05.2 2.45.1h.05q1.4-.15 2.45-.6 1.05-.45 2.75.2 1.8.65 2.6 1.9l.3.4.15-.1-.25-.45q0-.05-.05-.1-1.6-3.2-3.4-3.95-1.15-.55-3.45 0-1.75.35-3.7-.9-1.65-1.05-2.4-2.5.85.3 2.05.35 1.25.05 2.25-.15 1.05-.25 2.8.1 1.95.4 2.9 1.35l.35.4.1-.05-.2-.45q-1.25-2.85-3.5-3.9-1-.55-3.9-1.05-3-.45-4.65-5.1 1.3.9 4 1.05 1.6.05 2.9 1.8 1.5 2 2.8 2.35l.2.05-.05-.25q-1.05-2.85-1.35-3.7-.65-1.45-2.45-2.2-.35-.15-3.5-1.1-3.95-1.25-5.6-6.65 1.5-.2 3.15.55 1.8.8 2.7 2.25 1.4 2.15 1.75 2.55 1.3 1.4 2.75 1.65h.2l-.05-.15q-.6-1.9-1.8-3.8-1.2-1.9-2.55-3.05-1.15-1-1-3.7.1-2.05.8-3.6m-25.8-36.75q-2.1-.9-3.35-.6-1.3.2-1.65 1.65-.8 2.7 2.35 4.2-.7 1.15-.05 2.6.7 1.65 3 2.6-1 1.85.9 3.35 1.7 1.45 6.7 2.95-.9 2 1.65 3.9 2.45 1.95 7.45 3.1-.85 2 1.15 3.35 1.95 1.4 7.15 2.35-.5.45-.45 1 .05.65.8 1.5 1.7 1.85 6.6 2.6-.65.5-.5 1.1.1.65 1.25 1.4 2.4 1.7 8.5 2.05-1.25 1.5-.3 3.15.85 1.75 2.95 1.65-.95 1.45.3 3.25 1.35 1.95 4.15 1.5.1 1.45 1.85 2.15 1.8.65 3.1-.3.15 1.6 2.65 2 2.45.3 3.4-.8.55 1.05 2.6 1 2-.05 3.25-.9-.1 4.4-3.4 7.15-5.8 4.65-6 8.5-.2 2.75-.65 4.05-.45 1.25-1.5 1.85l-.3.2.35.05q1 .15 2.6-.4 1.25-.5 1.9-1.05-.1.5-.1 1.3-.05 1.2-.35 1.8l-.1.25.25-.05q1.35-.3 2.55-1.4.9-.85 1.3-1.05-.7 2.85-.05 4.3l.1.2.1-.15q.25-.35.45-.6.35-.45 1.1-.6 1.85-.35 3-3.3.85-2.35 3.8-3.95 3.4-1.75 3.95-2.55l.05-.05V409l-9-36.25-.05-.05v-.05q-1.95-1.75-4.5-.9-2.5.8-2.95.5-.75-.55-.6-1.4.1-.9.75-1.35 2.3-1.95 2.25-5.2-.15-3.25-2.75-4.75-4.1-2.3-14.5-5.2-7.6-2.1-15.65-3.85-5.85-1.3-15.05-3.85-9.25-2.6-12.45-3.9m-3.3-.4q1.15-.2 3.2.65 3.2 1.25 12.5 3.9 9.25 2.6 15.05 3.85 8 1.75 15.65 3.85 10.35 2.85 14.45 5.15 2.5 1.4 2.6 4.55.1 3.15-2.15 5-.7.55-.85 1.5-.2 1 .7 1.65.5.4 3.2-.45 2.4-.8 4.2.85l9 36.15q-.65.75-3.85 2.45-3.05 1.6-3.95 4.05-1.1 2.75-2.8 3.15-.8.2-1.25.7-.15.15-.3.4-.5-1.5.25-4.2l.05-.2-.2.05q-.45.05-1.65 1.2-1.05 1-2.25 1.3.25-.65.3-1.7.05-1.3.25-1.75l.15-.45-.1-.05-.3.4q-.55.75-2.15 1.35-1.25.4-2.1.4.85-.6 1.3-1.75.5-1.3.65-4.15.25-3.75 5.9-8.3 3.45-2.9 3.5-7.6v-.25l-.2.15q-1.25.95-3.3 1-2.05.05-2.45-1.05l-.1-.2-.15.2q-.8 1.15-3.25.85-2.45-.4-2.45-2l-.05-.25-.15.15q-1.25 1.05-3.05.4-1.65-.65-1.7-2.05v-.15l-.15.05q-2.75.45-4.05-1.4-1.25-1.75-.15-3.15l.15-.25-.25.05q-2.1.15-3-1.5-.9-1.65.45-3.05l.15-.2H244q-6.2-.35-8.6-2.05-1-.7-1.15-1.25-.1-.6.65-1.05l.25-.15-.3-.05q-5-.7-6.75-2.55-.7-.75-.75-1.35-.05-.55.55-1l.2-.15-.25-.05q-5.35-.95-7.3-2.35-1.9-1.3-.95-3.2l.05-.1-.15-.05q-5.1-1.15-7.55-3.1-2.45-1.85-1.5-3.75l.05-.1-.15-.05q-5.05-1.5-6.75-2.95-1.8-1.45-.8-3.2l.1-.1-.15-.05q-2.25-.9-2.95-2.5-.65-1.4.05-2.5l.1-.15-.15-.05q-3.05-1.4-2.3-3.95.3-1.25 1.45-1.5m155.8 40.6l-12.3 12.65 3.4.85-10.35 18.8 3.5-13.2 2.55 1.4.2.15-.2-16.05-8.05 13.85 3.15.05-6 22.7-2.45 4.4h-3.45l-.05.05-1.45 2.65-.8-.15-.1-.05-.05.1L312 442.8l5.25.6 1.2 5.1 4.1-4.65-1.1 4.25 4.55-1.65 3.1 3.75 3.65-13.85v-.1l-1.55-1.45 1.1-2 .05-.05-1.05-1.65.65-2.35 19.65-22.25 1.95 2.8.05-.2 7.5-15.4-14.5 9.55.2.05 2.8 1.45-14.15 16.05 12.7-23.1 2.55 2.4 4.05-17.15m-11.8 12.5l11.35-11.65-3.75 15.8-2.45-2.3-13.35 24.3-9.05 10.2-2.25-.5 1.4-2.5h3.5v-.1l17.85-32.4-.15-.05-3.1-.8m-25.5 47.7h-.1l-4.85-.55 9.95-11.25 3.3.75h.05l.05-.05 24.15-27.4-.15-.05-2.75-1.4 13.4-8.8-7 14.45-1.9-2.75-24.2 27.4-.05.05 1.15 3.2-9.9 11.2-1.15-4.8m5.5.25l.15-.2 1.65 3.4.1-.25 6.25-11.3 1.35 1.3-3.45 13.3-2.9-3.4-.05-.1-.1.05-4.15 1.5 1.15-4.3m18.55-40.25l-2.65-1.45-.05.15-3.8 14.35-3.85 7 5.8-21.85v-.15l-3-.05 7.35-12.7.2 14.7m-10.8 27l.85-.95-.45 1.6-.4-.65m-.15.2l1.55 2.45-7.35 13.25-1.5-3 5.5-6.2.05-.05-1.15-3.2 2.9-3.25m51.5-88.2q-1.25-.3-3.35.6-3.2 1.3-12.4 3.9-9.25 2.55-15.05 3.85-8.1 1.75-15.65 3.85-10.45 2.9-14.55 5.2-2.6 1.5-2.7 4.75-.1 3.25 2.25 5.2.6.5.75 1.35.1.85-.6 1.4-.5.3-3-.5-2.55-.85-4.45.9l-.05.05v.05l-9 36.25v.1q.55.8 3.95 2.55 2.95 1.6 3.85 3.95 1.1 2.95 3 3.3.7.15 1.05.6.2.25.45.6l.15.15.1-.2q.6-1.45-.1-4.3.4.2 1.35 1.05 1.15 1.1 2.55 1.4l.25.05-.15-.25q-.3-.6-.3-1.8-.05-.8-.1-1.3.6.55 1.85 1.05 1.6.55 2.65.4l.35-.05-.35-.2q-1.05-.6-1.45-1.85-.5-1.3-.65-4.05-.25-3.85-6-8.5-3.35-2.75-3.4-7.15 1.2.85 3.2.9 2.1.05 2.65-1 .95 1.1 3.4.8 2.45-.4 2.65-2 1.3.95 3.05.3 1.75-.7 1.9-2.15 2.75.45 4.15-1.5 1.2-1.8.25-3.25 2.1.05 3-1.65.9-1.65-.3-3.15 6.05-.35 8.55-2.05 1.05-.75 1.15-1.4.15-.6-.45-1.1 4.85-.75 6.55-2.6.75-.85.8-1.5.05-.55-.4-1 5.15-.95 7.15-2.35 1.95-1.35 1.1-3.35 5-1.15 7.5-3.1 2.5-1.9 1.65-3.9 4.95-1.5 6.7-2.95 1.85-1.5.9-3.35 2.25-.95 3-2.6.6-1.45-.05-2.6 3.1-1.5 2.35-4.2-.4-1.45-1.7-1.65m-3.25.85q2.05-.85 3.25-.65 1.1.25 1.45 1.5.7 2.55-2.35 3.95l-.1.05.05.15q.7 1.1.1 2.5-.75 1.6-3 2.5l-.1.05.05.1q1 1.75-.75 3.2-1.75 1.45-6.75 2.95l-.15.05.05.1q.9 1.9-1.5 3.75-2.5 1.95-7.55 3.1l-.15.05.05.1q.9 1.9-.95 3.2-2 1.4-7.3 2.35l-.3.05.25.15q.55.45.5 1-.05.6-.75 1.35-1.75 1.85-6.7 2.55l-.3.05.25.15q.7.45.65 1.05-.15.55-1.1 1.25-2.5 1.7-8.7 2.05h-.25l.15.2q1.35 1.4.5 3.05-.95 1.65-3.05 1.5l-.25-.05.15.25q1.1 1.4-.1 3.15-1.35 1.85-4.05 1.4l-.15-.05v.15q-.1 1.4-1.75 2.05-1.75.65-3-.4l-.2-.15v.25q-.05 1.6-2.45 2-2.45.3-3.3-.85l-.1-.15-.1.15q-.45 1.1-2.5 1.05-2.05-.05-3.25-1l-.2-.15v.25q0 4.7 3.5 7.6 5.6 4.55 5.9 8.3.1 2.85.65 4.15.4 1.15 1.3 1.75-.9 0-2.15-.4-1.6-.6-2.1-1.35h-.05l-.3-.4-.1.05.2.45q.15.45.25 1.75 0 1.05.25 1.7-1.2-.3-2.2-1.3-1.25-1.15-1.65-1.2l-.2-.05.05.2q.7 2.7.2 4.2-.15-.25-.3-.4-.45-.5-1.2-.7-1.75-.4-2.8-3.15-.95-2.45-4-4.05-3.2-1.7-3.8-2.45l9-36.15q1.75-1.65 4.15-.85 2.7.85 3.25.45.85-.65.7-1.65-.2-.9-.85-1.5-2.3-1.85-2.15-5 .05-3.15 2.55-4.55 4.1-2.3 14.5-5.15 7.6-2.1 15.65-3.85 5.75-1.25 15.05-3.85 9.25-2.65 12.45-3.9z"/><path fill="#FFF215" d="M281.35 347.05V347q-3 .2-3.75.65-1.4.9-1.45 3.9 1.1-1.15 2.1-1.15h1.85q1.7-.45 3.2.85 1.25 1.1 1.05 2.25l-.1.3q.1-.05.25-.05 1.4-.45 1.8-1.9.45-1.6-1.05-2.05-.85-.25-1.45-.5-.05-.05-.1-.05-.4-.15-.7-.3-.8-.45-1.2-.85-.5-.5-.45-1.05m2.4-1.75h-.1q-.7-.05-1.2.3-.65.45-.8 1.3-.05.1-.05.2 0 1.3 3.7 2.45 1.75.5 1.25 2.35-.5 1.8-2.4 2.2-1.15 1.2-1.8 3.4-.75 2.35-2.85 3.55.15.1.55.25.5.15.8.2h.45l-.35.2q-.95.55-2.75 2.6-1.4 1.55-2.2 1.8.15.2.7.35.65.15 1.4.15l.25-.05-.15.25q-.9 1.35-.95 1.45v.05q-.6.8-1.2 1.25l28.3-.4q-1.35-2.6-3.35-4.25l-.3-.2h.35q.65-.05 1.6-.35.75-.3 1.05-.5-1.55-.7-3.05-1.95-2.1-1.65-2.75-3.4l-.1-.25.25.1q.55.15 1.45.2.65-.05 1.05-.15-1.6-1.3-2.5-4.3-.5-1.55-.9-4.4-.55-3.55-3.1-5.3-2.15-1.45-5.1-1.4-2.2 0-3.4.5-1.3.45-1.75 1.7l-.05.1m-81.6-2.3q-2.05-.85-3.2-.65-1.15.25-1.45 1.5-.75 2.55 2.3 3.95l.15.05-.1.15q-.7 1.1-.05 2.5.7 1.6 2.95 2.5l.15.05-.1.1q-1 1.75.8 3.2 1.7 1.45 6.75 2.95l.15.05-.05.1q-.95 1.9 1.5 3.75 2.45 1.95 7.55 3.1l.15.05-.05.1q-.95 1.9.95 3.2 1.95 1.4 7.3 2.35l.25.05-.2.15q-.6.45-.55 1 .05.6.75 1.35 1.75 1.85 6.75 2.55l.3.05-.25.15q-.75.45-.65 1.05.15.55 1.15 1.25 2.4 1.7 8.6 2.05h.25l-.15.2q-1.35 1.4-.45 3.05.9 1.65 3 1.5l.25-.05-.15.25q-1.1 1.4.15 3.15 1.3 1.85 4.05 1.4l.15-.05v.15q.05 1.4 1.7 2.05 1.8.65 3.05-.4l.15-.15.05.25q0 1.6 2.45 2 2.45.3 3.25-.85l.15-.2.1.2q.4 1.1 2.45 1.05 2.05-.05 3.3-1l.2-.15v.25q-.05 4.7-3.5 7.6-5.65 4.55-5.9 8.3-.15 2.85-.65 4.15-.45 1.15-1.3 1.75.85 0 2.1-.4 1.6-.6 2.15-1.35l.3-.4.1.05-.15.45q-.2.45-.25 1.75-.05 1.05-.3 1.7 1.2-.3 2.25-1.3 1.2-1.15 1.65-1.2l.2-.05-.05.2q-.75 2.7-.25 4.2.15-.25.3-.4.45-.5 1.25-.7 1.7-.4 2.8-3.15.9-2.45 3.95-4.05 3.2-1.7 3.85-2.45l-9-36.15q-1.8-1.65-4.2-.85-2.7.85-3.2.45-.9-.65-.7-1.65.15-.95.85-1.5 2.25-1.85 2.15-5-.1-3.15-2.6-4.55-4.1-2.3-14.45-5.15-7.65-2.1-15.65-3.85-5.8-1.25-15.05-3.85-9.3-2.65-12.5-3.9m179.9-.65q-1.2-.2-3.25.65-3.2 1.25-12.45 3.9-9.3 2.6-15.05 3.85-8.05 1.75-15.65 3.85-10.4 2.85-14.5 5.15-2.5 1.4-2.55 4.55-.15 3.15 2.15 5 .65.6.85 1.5.15 1-.7 1.65-.55.4-3.25-.45-2.4-.8-4.15.85l-9 36.15q.6.75 3.8 2.45 3.05 1.6 4 4.05 1.05 2.75 2.8 3.15.75.2 1.2.7.15.15.3.4.5-1.5-.2-4.2l-.05-.2.2.05q.4.05 1.65 1.2 1 1 2.2 1.3-.25-.65-.25-1.7-.1-1.3-.25-1.75l-.2-.45.1-.05.3.4h.05q.5.75 2.1 1.35 1.25.4 2.15.4-.9-.6-1.3-1.75-.55-1.3-.65-4.15-.3-3.75-5.9-8.3-3.5-2.9-3.5-7.6v-.25l.2.15q1.2.95 3.25 1 2.05.05 2.5-1.05l.1-.15.1.15q.85 1.15 3.3.85 2.4-.4 2.45-2v-.25l.2.15q1.25 1.05 3 .4 1.65-.65 1.75-2.05v-.15l.15.05q2.7.45 4.05-1.4 1.2-1.75.1-3.15l-.15-.25.25.05q2.1.15 3.05-1.5.85-1.65-.5-3.05l-.15-.2h.25q6.2-.35 8.7-2.05.95-.7 1.1-1.25.05-.6-.65-1.05l-.25-.15.3-.05q4.95-.7 6.7-2.55.7-.75.75-1.35.05-.55-.5-1l-.25-.15.3-.05q5.3-.95 7.3-2.35 1.85-1.3.95-3.2l-.05-.1.15-.05q5.05-1.15 7.55-3.1 2.4-1.85 1.5-3.75l-.05-.1.15-.05q5-1.5 6.75-2.95 1.75-1.45.75-3.2l-.05-.1.1-.05q2.25-.9 3-2.5.6-1.4-.1-2.5l-.05-.15.1-.05q3.05-1.4 2.35-3.95-.35-1.25-1.45-1.5z"/><path fill="#009E6D" d="M231.15 382.6q-1.15-1.8-3.1-3.1-.7 1.55-.8 3.6-.15 2.7 1 3.7 1.35 1.15 2.55 3.05 1.2 1.9 1.8 3.8l.05.15h-.2q-1.45-.25-2.75-1.65-.35-.4-1.75-2.55-.9-1.45-2.7-2.25-1.65-.75-3.15-.55 1.65 5.4 5.6 6.65 3.15.95 3.5 1.1 1.8.75 2.45 2.2.3.85 1.35 3.7l.05.25-.2-.05q-1.3-.35-2.8-2.35-1.3-1.75-2.9-1.8-2.7-.15-4-1.05 1.65 4.65 4.65 5.1 2.9.5 3.9 1.05 2.25 1.05 3.5 3.9l.2.45-.1.05-.35-.4q-.95-.95-2.9-1.35-1.75-.35-2.8-.1-1 .2-2.25.15-1.2-.05-2.05-.35.75 1.45 2.4 2.5 1.95 1.25 3.7.9 2.3-.55 3.45 0 1.8.75 3.4 3.95.05.05.05.1l.25.45-.15.1-.3-.4q-.8-1.25-2.6-1.9-1.7-.65-2.75-.2t-2.45.6h-.05q-1.4.1-2.45-.1.95 1.45 2.75 2.3 1.9.85 3.7.55 4.05-.8 6.15 3.4v.05l.25.45-.1.05-.35-.35q-1.25-1.35-3.4-1.35-1.4-.1-2.75.35-2.2.85-4.55.05 1.2 1.75 3 2.6 2.3 1.05 5.2.35 1.95-.55 3.15.15.35.2 1.45 1.35l.3.3-.4-.1q-3.55-.95-5.05.2-1.85 1.5-3.75 1.5 1 .85 3.05.95 1.95.1 3.45-.45.9-.35 2.3-.9h.05q1.1-.2 1.85 1.1 1.95 3.65 4.6 8.05 3.2 5.3 4.5 6.65.5-.45 2-.25 1.45.15 2.35-.5-1.85-2.35-5.15-6.8-3.5-4.8-4.55-6.45-1.45-2.2 0-3.4 1.9-.95 2.35-1.35.85-.8 1.3-2.1v.05q.45-1.55.1-3.05-.6 1.45-3.35 2.7V416q-.9.5-1.4 2.2-.5 1.55-.2 2.3l.15.5-.15.05-.25-.45q-.05-.05-.05-.1-.8-1.6-.15-3.55.5-1.55 1.65-2.85.85-.95.95-3.1-.05-1.75-.55-3.25-.3 1.9-2.6 3.9-.65.55-.8 2.4-.2 2.1-.75 2.75l-.1.1-.1-.1q-1.4-2.15-1.7-3.4-.35-1.6.9-2.4 2.3-1.45 2.5-4.35.1-2.1-.8-4.15-.15 1.55-2.25 3.45-.85.7-.9 2.7-.1 2.4-.6 3.2l-.1.15-.1-.2q-1.8-3.5-1.25-5.85.3-1.45 1.8-2.9 1.05-1 1.1-2.95 0-1.95-.95-3.6-.1.85-.6 1.8-.7 1.3-1.65 1.85-1.05.65-1.15 2.6-.2 2.8-.3 3.05l-.1.3-.15-.3q-1.35-2.6-1.1-5.05.25-2.5 2-3.85.85-.75.95-2.7.05-1.65-.55-2.95-.1.8-1.15 1.65-1.8 1.35-2.15 2.35-.35.8-.15 2.65.2 1.85-.2 2.95l-.15.3-.1-.3q-1-2.5-1.4-3.4-.5-1.15-.1-2.3v-.05q.35-1.1 1.85-3.55 1.25-2.15.7-4.55-.5-1.7-1.65-3.25-.2.8-1.05 2.75-.9 2.05-.65 3.1.7 3.1-.35 5l-.1.25-.1-.25q-1.15-2.2-1.4-5.1-.05-2.9-.05-3.85-.1-1.45-1.2-3.05z"/><path fill="#00AFD6" d="M332.1 432.8l-1.55-2.45-2.9 3.25 1.15 3.2-.05.05-5.5 6.2 1.5 3 7.35-13.25m-.55-3.6l-.85.95.4.65.45-1.6m7.3-27.5l2.65 1.45-.2-14.7-7.35 12.7 3 .05v.15l-5.8 21.85 3.85-7 3.8-14.35.05-.15m-15.75 41.5l-.15.2-1.15 4.3 4.15-1.5.1-.05.05.1 2.9 3.4 3.45-13.3-1.35-1.3-6.25 11.3-.1.25-1.65-3.4m-5.75-.05h.1l1.15 4.8 9.9-11.2-1.15-3.2.05-.05 24.2-27.4 1.9 2.75 7-14.45-13.4 8.8 2.75 1.4.15.05-24.15 27.4-.05.05h-.05l-3.3-.75-9.95 11.25 4.85.55m36.95-59.35l-11.35 11.65 3.1.8.15.05-17.85 32.4v.1h-3.5l-1.4 2.5 2.25.5 9.05-10.2 13.35-24.3 2.45 2.3 3.75-15.8z"/></g><g id="e"><path fill="#373535" d="M315.25 415.95q-.747 1.377-.15 2.2v.05q.88.663 2.8 1.35 2.297.862 3.4 1.45.8.45 1.95 1.1.914.467 1.65.55.828.177 1.4 1.1.532.94.6 2.1.233 1.725 1.4 2.65l.1.1 1.85-3.35q.89-.334 1.9.65.974.952.7 1.45l-1.7 1.9.15.05q1.387.726 2.75.5 1.29-.175 1.3-.95.885.097 1.4-.35.629-.405.6-1.05 1.321-.187 1.15-2.75-.032-1.331-.45-2.15-.455-.874-1.7-1.95-1.045-1.026-2.45-1.2-.682-.077-2.35.05h-.05q-1.696.27-2.9 0-.715-.128-1.85-.65-.58-.215-1.7-1.5-1.364-1.593-2.25-2.2-.973-1.787-2.35-2.15-1.395-.333-3.2.8-1.294.87-2 2.2m.05 2.05q-.504-.727.15-1.95.694-1.27 1.95-2.1 1.695-1.068 3-.75 1.304.332 2.25 2.05v.05q.865.593 2.2 2.15 1.18 1.365 1.8 1.6 1.165.528 1.9.65 1.238.278 3 0 1.631-.123 2.3-.05 1.345.175 2.35 1.15 1.205 1.024 1.65 1.85.382.781.4 2.05.171 2.407-1.05 2.5l-.15.05v.1q.108.597-.45.95-.488.414-1.35.25h-.15v.15q.046.693-1.1.85-1.215.213-2.45-.4l1.5-1.65q.427-.652-.7-1.8h-.05q-1.14-1.117-2.15-.7l-.05.05-1.75 3.15q-.984-.843-1.2-2.35-.082-1.24-.65-2.25-.628-1.027-1.55-1.2-.714-.067-1.6-.5-1.15-.65-1.95-1.1-1.097-.612-3.4-1.5-1.85-.652-2.7-1.3z"/><path fill="#FFF215" d="M315.45 416.05q-.654 1.223-.15 1.95.85.648 2.7 1.3 2.303.888 3.4 1.5.8.45 1.95 1.1.886.433 1.6.5.922.173 1.55 1.2.568 1.01.65 2.25.216 1.507 1.2 2.35l1.75-3.15.05-.05q1.01-.417 2.15.7h.05q1.127 1.148.7 1.8l-1.5 1.65q1.235.613 2.45.4 1.146-.157 1.1-.85v-.15h.15q.862.164 1.35-.25.558-.353.45-.95v-.1l.15-.05q1.221-.093 1.05-2.5-.018-1.269-.4-2.05-.445-.826-1.65-1.85-1.005-.975-2.35-1.15-.669-.073-2.3.05-1.762.278-3 0-.735-.122-1.9-.65-.62-.235-1.8-1.6-1.335-1.557-2.2-2.15v-.05q-.946-1.718-2.25-2.05-1.305-.318-3 .75-1.256.83-1.95 2.1z"/></g><g id="f"><path fill="#373535" d="M265.9 417.85q.815-1.268.4-2.3-.344-.971-1.9-1.7-3.112-1.41-6.4 1.3-.786.71-2.1 2.3-1.071 1.398-1.65 1.7-.986.534-1.85.7-1.116.272-2.9.15-1.618-.078-2.4.05-1.304.277-2.4 1.3-1.17 1.177-1.6 2.05-.33.87-.35 2.15.025 2.62 1.4 2.7-.024.649.55 1.05.62.354 1.45.2.122.77 1.15 1 1.159.238 2.6-.4l.1-.05-1.2-2.15v.05q-.28-.583.65-1.5h-.05q1.003-.928 1.9-.6l2.25 3.1.1-.15q.778-.847.75-2.65.068-1.172.55-2.1.571-.988 1.35-1.2.799-.133 1.65-.65.108-.047 1.9-1.2 1.066-.638 3.3-1.6 1.919-.838 2.7-1.5l.05-.05m.2-2.2q.335.919-.4 2.05-.8.652-2.65 1.45-2.266.988-3.35 1.65-1.758 1.146-1.85 1.2h-.05q-.799.483-1.55.6-.871.238-1.5 1.35-.519.972-.6 2.2.022 1.567-.6 2.4l-2.05-2.9-.05-.05q-1.063-.413-2.2.65-1.071 1.083-.65 1.8l1.05 1.85q-1.261.553-2.3.35-.92-.195-1-.9v-.15h-.15q-.767.218-1.35-.1-.508-.353-.45-.95l.05-.15h-.15q-1.275.001-1.3-2.45.03-1.22.35-2.05.42-.827 1.55-1.95h-.05q1.054-.977 2.3-1.25.768-.123 2.35-.05 1.816.128 2.95-.15.886-.184 1.9-.75.621-.298 1.75-1.75 1.286-1.56 2.05-2.25 3.162-2.591 6.15-1.25 1.444.671 1.8 1.55z"/><path fill="#FFF215" d="M265.7 417.7q.735-1.131.4-2.05-.356-.879-1.8-1.55-2.988-1.341-6.15 1.25-.764.69-2.05 2.25-1.129 1.452-1.75 1.75-1.014.566-1.9.75-1.134.278-2.95.15-1.582-.073-2.35.05-1.246.273-2.3 1.25h.05q-1.13 1.123-1.55 1.95-.32.83-.35 2.05.025 2.451 1.3 2.45h.15l-.05.15q-.058.597.45.95.583.318 1.35.1h.15v.15q.08.705 1 .9 1.039.203 2.3-.35l-1.05-1.85q-.421-.717.65-1.8 1.137-1.063 2.2-.65l.05.05 2.05 2.9q.622-.833.6-2.4.081-1.228.6-2.2.629-1.112 1.5-1.35.751-.117 1.55-.6h.05q.092-.054 1.85-1.2 1.084-.662 3.35-1.65 1.85-.798 2.65-1.45z"/></g><g id="g"><path fill="#373535" d="M301.5 410.5l.1.35q2.486 7.954 5.9 12.8 3.738 5.35 6.2 3.45 1.293-.922.9-2.7-.377-1.703-2.35-4.25-3.658-4.688-10.45-9.4l-.3-.25m12.05 16.4q-2.287 1.7-5.85-3.4-3.312-4.7-5.75-12.35 6.541 4.595 10.1 9.15 1.927 2.502 2.3 4.15.357 1.622-.8 2.45z"/><path fill="#FFF215" d="M307.7 423.5q3.563 5.1 5.85 3.4 1.157-.828.8-2.45-.373-1.648-2.3-4.15-3.559-4.555-10.1-9.15 2.438 7.65 5.75 12.35z"/></g><g id="h"><path fill="#373535" d="M299.55 412.2l.1.35q2.386 8.254 5.85 13.4 3.735 5.546 6.35 3.7 1.342-.935.95-2.8-.327-1.765-2.3-4.45-3.658-4.938-10.65-9.95l-.3-.25m10.75 10.35q1.927 2.615 2.25 4.35.358 1.685-.85 2.55-2.435 1.654-6-3.65-3.364-4.996-5.7-12.95 6.737 4.895 10.3 9.7z"/><path fill="#FFF215" d="M312.55 426.9q-.323-1.735-2.25-4.35-3.563-4.805-10.3-9.7 2.336 7.954 5.7 12.95 3.565 5.304 6 3.65 1.208-.865.85-2.55z"/></g><g id="i"><path fill="#373535" d="M297.35 413.75l.05.35q1.985 8.804 5.2 14.35 3.427 6.043 6.1 4.2 1.414-.908 1.15-2.85-.253-1.89-2.1-4.8-3.458-5.387-10.15-11l-.25-.25m10.2 11.4q1.803 2.84 2.05 4.65.236 1.808-1.05 2.65-2.477 1.658-5.75-4.1-3.119-5.426-5.05-13.9 6.431 5.453 9.8 10.7z"/><path fill="#FFF215" d="M309.6 429.8q-.247-1.81-2.05-4.65-3.369-5.247-9.8-10.7 1.931 8.474 5.05 13.9 3.273 5.758 5.75 4.1 1.286-.842 1.05-2.65z"/></g><g id="j"><path fill="#373535" d="M295.25 415.05l.05.35q1.435 9.391 4.45 15.55h-.05q3.194 6.641 6.2 4.9 1.519-.848 1.35-2.95-.11-1.995-1.85-5.2-3.208-5.975-9.9-12.4l-.25-.25m4.7 15.8q-2.925-6.018-4.35-15.1 6.47 6.24 9.6 12.05 1.71 3.145 1.85 5.1.131 1.948-1.25 2.75-2.793 1.56-5.85-4.8z"/><path fill="#FFF215" d="M299.95 430.85q3.057 6.36 5.85 4.8 1.381-.802 1.25-2.75-.14-1.955-1.85-5.1-3.13-5.81-9.6-12.05 1.425 9.082 4.35 15.1z"/></g><g id="k"><path fill="#373535" d="M292.85 416.35v.35q.922 9.929 3.65 16.6 2.937 7.14 6.2 5.5 1.654-.796 1.65-3-.01-2.095-1.65-5.55-2.983-6.462-9.6-13.65l-.25-.25m9.75 22.25q-3.037 1.46-5.85-5.4-2.673-6.509-3.6-16.15 6.392 6.99 9.3 13.3 1.622 3.394 1.65 5.45.008 2.046-1.5 2.8z"/><path fill="#FFF215" d="M296.75 433.2q2.813 6.86 5.85 5.4 1.508-.754 1.5-2.8-.028-2.056-1.65-5.45-2.908-6.31-9.3-13.3.927 9.641 3.6 16.15z"/></g><g id="l"><path fill="#373535" d="M291.9 418.65l-.05.4q-.528 9.966 1.15 16.9.959 3.742 2.25 5.3 1.39 1.657 3.15 1.05 3.42-1.086 1.2-8.45-2.033-6.799-7.5-14.9l-.2-.3m7.45 15.25q2.13 7.087-1.05 8.15-1.59.543-2.85-.95-1.259-1.542-2.2-5.2-1.64-6.783-1.15-16.5 5.272 7.878 7.25 14.5z"/><path fill="#FFF215" d="M298.3 442.05q3.18-1.063 1.05-8.15-1.978-6.622-7.25-14.5-.49 9.717 1.15 16.5.941 3.658 2.2 5.2 1.26 1.493 2.85.95z"/></g><g id="m"><path fill="#373535" d="M279.35 410.9l.1-.4-.3.25q-6.792 4.712-10.45 9.4-1.942 2.548-2.3 4.25-.387 1.778.85 2.7 2.513 1.9 6.2-3.45 3.414-4.833 5.9-12.75m-10.45 9.4q3.556-4.552 10.1-9.15-2.444 7.648-5.75 12.35-3.513 5.1-5.85 3.4-1.114-.828-.8-2.45.392-1.647 2.3-4.15z"/><path fill="#FFF215" d="M279 411.15q-6.544 4.598-10.1 9.15-1.908 2.503-2.3 4.15-.314 1.622.8 2.45 2.337 1.7 5.85-3.4 3.306-4.702 5.75-12.35z"/></g><g id="n"><path fill="#373535" d="M281.35 412.2l-.3.25q-6.942 5.012-10.6 9.95-1.973 2.685-2.35 4.45-.342 1.865.95 2.8 2.665 1.846 6.4-3.7 3.464-5.146 5.8-13.4l.1-.35m-13 14.7q.373-1.735 2.3-4.35 3.563-4.805 10.25-9.7-2.287 7.954-5.65 12.95-3.565 5.304-6.05 3.65-1.158-.865-.85-2.55z"/><path fill="#FFF215" d="M270.65 422.55q-1.927 2.615-2.3 4.35-.308 1.685.85 2.55 2.485 1.654 6.05-3.65 3.363-4.996 5.65-12.95-6.687 4.895-10.25 9.7z"/></g><g id="o"><path fill="#373535" d="M283.5 414.1l.1-.35-.3.25q-6.642 5.613-10.1 11-1.847 2.91-2.1 4.8-.264 1.942 1.1 2.85 2.722 1.854 6.2-4.2 3.214-5.609 5.1-14.35m-11.15 18.35q-1.236-.842-1-2.65.247-1.81 2.05-4.65 3.369-5.248 9.8-10.75-1.881 8.475-5 13.95-3.322 5.758-5.85 4.1z"/><path fill="#FFF215" d="M271.35 429.8q-.236 1.808 1 2.65 2.528 1.658 5.85-4.1 3.119-5.475 5-13.95-6.431 5.502-9.8 10.75-1.803 2.84-2.05 4.65z"/></g><g id="p"><path fill="#373535" d="M285.7 415.05l-.25.25q-6.642 6.475-9.9 12.4-1.74 3.205-1.9 5.2-.119 2.102 1.4 2.95 2.993 1.688 6.2-4.9 2.977-6.159 4.4-15.55l.05-.35m-4.7 15.8h.05q-3.093 6.312-5.9 4.8-1.381-.802-1.25-2.75.14-1.955 1.85-5.1 3.178-5.76 9.6-12.05-1.437 9.083-4.35 15.1z"/><path fill="#FFF215" d="M281.05 430.85H281q2.913-6.017 4.35-15.1-6.422 6.29-9.6 12.05-1.71 3.145-1.85 5.1-.131 1.948 1.25 2.75 2.807 1.512 5.9-4.8z"/></g><g id="q"><path fill="#373535" d="M288.1 416.3l-.25.3q-6.567 7.188-9.6 13.65-1.578 3.455-1.6 5.55.008 2.204 1.65 3 3.263 1.64 6.15-5.5 2.727-6.621 3.6-16.6l.05-.4m-.3.75q-.927 9.69-3.6 16.15-2.763 6.86-5.8 5.4-1.496-.754-1.5-2.8.04-2.056 1.6-5.45 2.957-6.31 9.3-13.3z"/><path fill="#FFF215" d="M284.2 433.2q2.673-6.46 3.6-16.15-6.343 6.99-9.3 13.3-1.56 3.394-1.6 5.45.004 2.046 1.5 2.8 3.037 1.46 5.8-5.4z"/></g><g id="r"><path fill="#373535" d="M289.05 419.05v-.4l-.2.3q-5.467 8.101-7.5 14.9-2.17 7.364 1.25 8.45 1.728.608 3.05-1.05 1.335-1.558 2.25-5.3 1.728-6.934 1.15-16.9m-1.4 16.85q-.885 3.658-2.15 5.2-1.228 1.492-2.8.95-3.18-1.063-1.1-8.15 1.98-6.623 7.25-14.5.49 9.717-1.2 16.5z"/><path fill="#FFF215" d="M285.5 441.1q1.265-1.542 2.15-5.2 1.69-6.783 1.2-16.5-5.27 7.877-7.25 14.5-2.08 7.087 1.1 8.15 1.572.542 2.8-.95z"/></g><g id="s"><path fill="#373535" d="M290.4 417.35l-.15.35q-3.78 10.927-3.95 19.3-.1 4.466.9 6.7 1.022 2.286 3.2 2.25 2.184.036 3.2-2.25 1.031-2.234.9-6.7-.17-8.372-4-19.3l-.1-.35m3.85 19.65q.119 4.384-.9 6.55-.934 2.164-2.95 2.15-2.022.014-3-2.15-.95-2.166-.85-6.55.177-8.19 3.85-18.85 3.674 10.66 3.85 18.85z"/><path fill="#FFF215" d="M293.35 443.55q1.019-2.166.9-6.55-.176-8.19-3.85-18.85-3.673 10.66-3.85 18.85-.1 4.384.85 6.55.978 2.164 3 2.15 2.016.014 2.95-2.15z"/></g><g id="t"><path fill="#373535" d="M304.55 414.75q.977-.696.9-1.7 0-.965-1-2.25-2.04-2.486-3.75-1.2-.824.618-.8 1.6.055.99.95 2.3 1.832 2.694 3.7 1.25m.7-1.7q.023.896-.85 1.5-1.682 1.256-3.35-1.2-.855-1.24-.9-2.15-.026-.868.7-1.4 1.54-1.114 3.4 1.15.95 1.215 1 2.1z"/><path fill="#FFF215" d="M304.4 414.55q.873-.604.85-1.5-.05-.885-1-2.1-1.86-2.264-3.4-1.15-.726.532-.7 1.4.045.91.9 2.15 1.668 2.456 3.35 1.2z"/></g><g id="u"><path fill="#373535" d="M302.6 412.6q-2.088-2.634-3.85-1.4-.846.637-.85 1.65.03 1.033.9 2.4 1.829 2.844 3.8 1.4 1.04-.695 1-1.75.012-.965-1-2.3m-3.7-1.2q1.588-1.066 3.5 1.35.95 1.265.95 2.2.023.895-.9 1.5-1.779 1.256-3.45-1.35-.818-1.283-.85-2.25.009-.888.75-1.45z"/><path fill="#FFF215" d="M302.4 412.75q-1.912-2.416-3.5-1.35-.741.563-.75 1.45.032.967.85 2.25 1.671 2.606 3.45 1.35.923-.605.9-1.5 0-.935-.95-2.2z"/></g><g id="v"><path fill="#373535" d="M296.55 412.65q-.876.61-.9 1.7-.025 1.045.8 2.55.815 1.506 1.7 1.9.979.45 2-.25 1.06-.688 1.1-1.8.035-1.033-.9-2.5-1.932-2.84-3.8-1.6m-.65 1.7q.026-.96.8-1.5 1.682-1.06 3.45 1.55.878 1.383.85 2.35-.048.988-1 1.6-.879.6-1.7.2-.865-.356-1.65-1.75-.775-1.445-.75-2.45z"/><path fill="#FFF215" d="M296.7 412.85q-.774.54-.8 1.5-.025 1.005.75 2.45.785 1.394 1.65 1.75.821.4 1.7-.2.952-.612 1-1.6.028-.967-.85-2.35-1.768-2.61-3.45-1.55z"/></g><g id="w"><path fill="#373535" d="M295.75 420.45q.988.518 2.15-.15 1.154-.661 1.25-1.8.104-1.095-.8-2.65-1.825-3.18-3.85-2-1.983 1.133-.45 4.45.776 1.65 1.7 2.15m2-.35h.05q-1.038.582-1.9.1-.876-.45-1.6-2-1.417-3.083.35-4.15 1.825-1.02 3.5 1.9.846 1.495.75 2.55-.104 1.011-1.15 1.6z"/><path fill="#FFF215" d="M297.8 420.1h-.05q1.046-.589 1.15-1.6.096-1.055-.75-2.55-1.675-2.92-3.5-1.9-1.767 1.067-.35 4.15.724 1.55 1.6 2 .862.482 1.9-.1z"/></g><g id="x"><path fill="#373535" d="M292.2 414.95v.05q-2.167 1.027-.8 4.65.7 1.768 1.65 2.35.961.612 2.2 0 1.234-.597 1.4-1.8.234-1.131-.6-2.85-1.643-3.439-3.85-2.4m.1.25q2.005-.912 3.55 2.25h-.05q.815 1.63.65 2.7-.184 1.097-1.3 1.65-1.111.538-2 0-.85-.568-1.5-2.25-1.283-3.377.65-4.35z"/><path fill="#FFF215" d="M292.3 415.2q-1.933.973-.65 4.35.65 1.682 1.5 2.25.889.538 2 0 1.116-.553 1.3-1.65.165-1.07-.65-2.7h.05q-1.545-3.162-3.55-2.25z"/></g><g id="y"><path fill="#373535" d="M281 411.2q.074-.982-.8-1.6-1.66-1.286-3.7 1.2-.98 1.285-1 2.25-.032 1.004.9 1.7 1.92 1.446 3.7-1.25.895-1.31.9-2.3m-.2 0q-.045.91-.9 2.15-1.62 2.454-3.35 1.2-.818-.604-.8-1.5.03-.885.95-2.1 1.86-2.264 3.35-1.15.776.532.75 1.4z"/><path fill="#FFF215" d="M279.9 413.35q.855-1.24.9-2.15.026-.868-.75-1.4-1.49-1.114-3.35 1.15-.92 1.215-.95 2.1-.018.896.8 1.5 1.73 1.254 3.35-1.2z"/></g><g id="z"><path fill="#373535" d="M283.05 412.85q.009-1.013-.9-1.65-1.712-1.234-3.8 1.4-1 1.335-1 2.3-.027 1.055.95 1.75 2.021 1.444 3.85-1.4.882-1.367.9-2.4m-4.5-.1q1.912-2.416 3.45-1.35.804.563.8 1.45-.02.967-.85 2.25-1.671 2.606-3.5 1.35-.861-.605-.85-1.5.012-.935.95-2.2z"/><path fill="#FFF215" d="M282 411.4q-1.538-1.066-3.45 1.35-.938 1.265-.95 2.2-.011.895.85 1.5 1.829 1.256 3.5-1.35.83-1.283.85-2.25.004-.888-.8-1.45z"/></g><g id="A"><path fill="#373535" d="M284.5 416.9q.825-1.505.8-2.55-.024-1.09-.95-1.7-1.818-1.24-3.75 1.6-.922 1.467-.9 2.5.052 1.112 1.05 1.8 1.071.7 2 .25.935-.394 1.75-1.9m.55-2.55q.025 1.005-.75 2.45-.785 1.394-1.65 1.75-.821.4-1.75-.2-.89-.612-.95-1.6-.015-.967.85-2.35 1.768-2.61 3.4-1.55.824.54.85 1.5z"/><path fill="#FFF215" d="M284.3 416.8q.775-1.445.75-2.45-.026-.96-.85-1.5-1.632-1.06-3.4 1.55-.865 1.383-.85 2.35.06.988.95 1.6.929.6 1.75.2.865-.356 1.65-1.75z"/></g><g id="B"><path fill="#373535" d="M286.9 418.3q1.53-3.317-.5-4.45-1.975-1.18-3.8 2-.898 1.568-.8 2.65.14 1.151 1.3 1.8h-.05q1.173.668 2.15.15.949-.5 1.7-2.15m-.65-4.25q1.82 1.067.4 4.15-.699 1.55-1.6 2-.824.481-1.85-.1-1.04-.601-1.15-1.65-.102-1.018.75-2.5 1.675-2.92 3.45-1.9z"/><path fill="#FFF215" d="M286.65 418.2q1.42-3.083-.4-4.15-1.775-1.02-3.45 1.9-.852 1.482-.75 2.5.11 1.049 1.15 1.65 1.026.581 1.85.1.901-.45 1.6-2z"/></g><g id="C"><path fill="#373535" d="M284.85 417.35q-.785 1.719-.6 2.85.216 1.203 1.45 1.8 1.245.61 2.2 0 .981-.582 1.65-2.35 1.418-3.636-.8-4.7v.05q-2.143-1.077-3.85 2.35h-.05m-.35 2.8q-.166-1.07.6-2.7 1.593-3.174 3.55-2.25 1.982.986.65 4.35-.631 1.682-1.55 2.25-.845.539-1.95 0-1.116-.553-1.3-1.65z"/><path fill="#FFF215" d="M285.1 417.45q-.766 1.63-.6 2.7.184 1.097 1.3 1.65 1.105.539 1.95 0 .919-.568 1.55-2.25 1.332-3.364-.65-4.35-1.957-.924-3.55 2.25z"/></g><g id="D"><path fill="#373535" d="M290.5 415.5q-2.92.007-3.1 4.5-.082 2.22.65 3.3.798 1.171 2.45 1.15 1.652.021 2.4-1.15.782-1.08.65-3.3-.182-4.493-3.05-4.5m-2.85 4.5q.17-4.207 2.85-4.25 2.631.042 2.8 4.25.118 2.13-.6 3.2-.702 1.029-2.2 1-1.498.029-2.2-1-.718-1.07-.65-3.2z"/><path fill="#FFF215" d="M290.5 415.75q-2.68.043-2.85 4.25-.068 2.13.65 3.2.702 1.029 2.2 1 1.498.029 2.2-1 .718-1.07.6-3.2-.169-4.208-2.8-4.25z"/></g><path fill="#373535" d="M283.6 345q-.051.048-.1.1-.445 1.104-.15 2 .394 1.069 1.65 1.2h.05q.14.027.3.05.752.218 1.65.85 1.168.831 1.95.8.74.026 1.35-.45.759-.58 1.2-.75l.35-.15-.4-.1q-.39-.074-1-.85-.638-.719-1.7-.8-.835.019-1.85.8-.678.519-1.5.4-.173-.023-.35-.05-1.098-.13-1.45-1.05-.255-.805.15-1.8.045-.05 0-.1.002-.051-.05-.1-.05.005-.1 0m5.15 2.15q.938.069 1.5.7.484.621.85.85-.374.204-.95.65-.54.424-1.2.4-.718.019-1.8-.75-.573-.41-1.1-.65.535-.093 1-.45.935-.719 1.7-.75z" id="E"/><path fill="#373535" d="M348.9 351.2q.072.032.1 0 3.349-.792 4.15 1.45.78 2.208-1.8 3.7h.05q-1.293.737-4.2 1.55-3.462 1.024-6.75 1.3-.06.032-.1.05-.031.057-.05.1.032.06.05.1.057.031.1 0 3.312-.274 6.8-1.3 2.955-.837 4.25-1.6 2.77-1.608 1.9-4-.849-2.458-4.45-1.6-.024.034-.05.05-.032.072-.05.1.034.074.05.1z" id="F"/><path fill="#373535" d="M352.6 355.6q.07.032.1 0 8.325-1.275 15.65-3.2 8.692-2.187 12.9-4.4.053-.025.05-.1.032-.014 0-.05-.025-.053-.1-.1-.014.018-.05.05-4.192 2.187-12.85 4.35-7.325 1.925-15.65 3.2-.023.033-.05.05-.032.07-.05.1.033.073.05.1z" id="G"/><path fill="#373535" d="M350.6 359.75q.07.032.1 0 6.424-.875 14.55-2.8 7.989-1.925 13.05-3.75.05.002.05-.05.045-.049 0-.1.002-.05-.05-.1-.049.005-.1 0-5.04 1.825-13 3.75-8.124 1.925-14.55 2.8-.022.033-.05.05-.032.07-.05.1.033.072.05.1z" id="H"/><path fill="#373535" d="M346.8 365.2q.07.032.1 0 4.073-.625 11.6-2.45 7.89-1.825 12.2-3.25.038.002.05-.05.032-.049 0-.1.003-.038-.05-.05-.049-.032-.1-.05-4.29 1.425-12.15 3.25-7.524 1.824-11.6 2.45-.023.033-.05.05-.032.07-.05.1.033.073.05.1z" id="I"/><path fill="#373535" d="M361.55 366.3q-.022-.032-.1-.05-3.126.775-9.4 1.9-5.624 1.075-9.15 1.55-.022.033-.05.05-.032.07-.05.1.033.072.05.1.07.032.1 0 3.524-.475 9.15-1.55 6.276-1.125 9.4-1.9.074.016.1-.05.032-.022 0-.1.016-.024-.05-.05z" id="J"/><path fill="#373535" d="M339.7 374.2q-.022.033-.05.05-.031.07-.05.1.033.072.05.1.07.031.1 0 4.673-.525 13.4-2.25.073.017.1-.05.032-.021 0-.1.017-.023-.05-.05-.021-.032-.1-.05-8.724 1.725-13.4 2.25z" id="K"/><path fill="#373535" d="M334.6 378.45q.055.031.1 0 2.249-.025 6.05-.4 3.627-.375 5.4-.75.073.017.1-.05.032-.021 0-.1.017-.023-.05-.05-.021-.032-.1-.05-1.77.374-5.35.75-3.799.375-6.05.4-.058.032-.1.05-.031.055-.05.1.032.058.05.1z" id="L"/><path fill="#373535" d="M348 357.85q.048.032.1 0 .885-.246 1.7.55.956.846.6 1.9-.923 3.238-10.8 3.9-.059.032-.1.05-.031.056-.05.1.032.059.05.1.056.031.1 0 10.123-.688 11.05-4.1.394-1.196-.7-2.15-.935-.904-1.95-.6-.038.047-.05.1-.032.048-.05.1.047.038.1.05z" id="M"/><path fill="#373535" d="M344.6 363.75q.072.032.1 0 1.242-.248 1.9.85.577 1.166-1.05 2.25-1.753 1.183-4.05 1.55-1.466.275-4.95.4-.058.032-.1.05-.031.056-.05.1.032.058.05.1.056.031.1 0 3.515-.125 5-.4 2.353-.383 4.15-1.6 1.824-1.217 1.1-2.55v-.05q-.742-1.252-2.15-.95-.024.034-.05.05-.032.072-.05.1.034.074.05.1z" id="N"/><path fill="#373535" d="M340.3 368.8q.071.032.1 0 1.485-.261 2.1.45.597.775 0 1.85-1.737 2.98-8.1 2.9-.057.02-.1.05-.03.042-.05.1.02.057.05.1.042.03.1 0 6.537.07 8.3-3.05.703-1.225 0-2.1-.685-.839-2.35-.55-.023.033-.05.05-.032.071-.05.1.033.073.05.1z" id="O"/><path fill="#373535" d="M339.35 373.9q.342.272.25.95-.136 1.526-3.05 2.85v.05q-1.18.583-2.95.7-2.172.17-3.95-.5-.05.005-.1 0-.052.05-.1.1.005.05 0 .1.05.052.1.05 1.822.68 4.05.5 1.83-.133 3.05-.75 3.086-1.426 3.2-3.1.101-.814-.35-1.15-.38-.308-1.3-.15-.024.034-.05.05-.032.071-.05.1.034.074.05.1.071.032.1 0 .78-.142 1.1.1z" id="P"/><path fill="#373535" d="M328.2 382.7q-.045.019-.1.05-.018.042-.05.1.019.045.05.05.042.068.1.05 3.19.071 4-1.45.864-1.477-.95-3-.007-.031-.05-.05-.059.032-.1.05-.031.056-.05.1.032.059.05.1 1.636 1.377.9 2.7-.789 1.379-3.8 1.3z" id="Q"/><path fill="#373535" d="M328.1 383.05q.005.05 0 .1.594 1.408-.6 2.3-1.275.953-3.2-.05-.036-.032-.1-.05-.025.047-.05.1-.032.036-.05.05.047.075.1.1 2.075 1.096 3.45.05 1.356-1.008.7-2.6.002-.051-.05-.1-.05.005-.1 0-.051.048-.1.1z" id="R"/><path fill="#373535" d="M324.15 385.6q-.032.036-.05.05.446 1.45-1 2.5-1.418 1.058-3.15.45-.051.018-.1.05-.053.012-.1.05.018.051.05.1.012.052.05.05 1.868.642 3.4-.5 1.604-1.15 1.1-2.75.003-.025-.05-.05-.036-.032-.1-.05-.025.047-.05.1z" id="S"/><path fill="#373535" d="M337 381.65q-.007-.031-.05-.05-1.643.17-4.7-.5-.029.018-.1.05-.016.026-.05.05.018.079.05.1.026.066.05.05 3.093.679 4.75.5.059.018.1-.05.031-.007 0-.05.018-.06-.05-.1z" id="T"/><path fill="#373535" d="M329.55 384.8q.047.075.1.1 2.615 1.47 4.6 1.7.08.032.1 0 .067-.028.05-.1.032-.03 0-.1-.028-.017-.1-.05-1.965-.22-4.55-1.65-.036-.032-.1-.05-.025.047-.05.1-.032.035-.05.05z" id="U"/><path fill="#373535" d="M327.1 388.45q-.026-.016-.1-.05-.028.018-.1.05-.016.026-.05.05.018.078.05.1 1.37 2.219 3.05 2.75.051.032.1 0 .052-.012.05-.05.032-.051 0-.1-.012-.053-.05-.1-1.62-.519-2.95-2.65z" id="V"/><path fill="#373535" d="M325.15 392.95q.003-.025-.05-.05-.522-.3-1-1.15v.05q-.383-.736-.5-1.4.017-.022-.05-.05-.02-.032-.1-.05-.023.033-.05.05-.032.07-.05.1.133.686.55 1.45.522.9 1.1 1.2.036.032.05 0 .075.003.1-.05.032-.036 0-.1z" id="W"/><path fill="#373535" d="M319.25 391.7q-.031.057-.05.1.177 1.563-.2 2.35-.032.049-.05.1.047.038.1.05.049.032.1 0 .038.002.05-.05.423-.813.25-2.45.018-.06-.05-.1-.007-.031-.05-.05-.06.032-.1.05z" id="X"/><path fill="#373535" d="M320 387.15q-.031.07-.05.1.215 1.722-1.35 2.35-1.368.61-3.2.1-.015.018-.05.05l-.1.05q.018.065.05.1.026.053.05.05 1.918.54 3.35-.1 1.735-.722 1.5-2.65.017-.022-.05-.05-.02-.031-.1-.05-.022.033-.05.05z" id="Y"/><path fill="#373535" d="M331 358.55q-.05.005-.1 0-3.795 1.645-4.9 3.5-1.088 1.879.25 4.4 2.987 5.793-.35 8.3-.017.028-.05.05.018.08.05.1.028.067.05.05.08.032.1 0 3.513-2.593.4-8.6-1.262-2.379-.25-4.15 1.094-1.795 4.8-3.4.052.001.05-.05.045-.05 0-.1.001-.052-.05-.1z" id="Z"/><path fill="#373535" d="M332.95 361.9q.032.06.05.1 1.367 1.1 1.1 2.75-.26 1.67-1.75 2.4-.032.005-.05 0-.022.06-.05.1.028.04.05.05.61.985.15 2.35-.45 1.413-1.65 2.1-.053.025-.1.05.018.065.05.1.025.053.05.05.065.032.1 0 1.3-.713 1.8-2.2v-.05q.46-1.39-.15-2.4 1.524-.781 1.8-2.5.283-1.8-1.2-3-.007-.031-.05-.05-.06.032-.1.05-.031.057-.05.1z" id="aa"/><path fill="#373535" d="M331.65 373.25q-.031.056-.05.1.122 1.74-1.35 2.95-1.496 1.322-3.8 1.3-.04.028-.1.05-.008.018-.05.05.015.036 0 .05.27 1.85-1.15 3-1.334 1.114-3.3.75-.013.016-.05 0-.03.043-.05.05-.02.046-.05.05-.166 1.326-1.6 2.15-1.449.765-2.8.3-.052.018-.1.05-.053.012-.1.05.018.052.05.1.012.053.05.05 1.448.485 3-.35 1.497-.837 1.75-2.15 1.98.299 3.35-.85 1.473-1.202 1.3-3.1 2.293-.013 3.8-1.35 1.578-1.29 1.45-3.15.018-.058-.05-.1-.006-.031-.05-.05-.059.032-.1.05z" id="ab"/><path fill="#373535" d="M315.25 402.9q.032.058.05.1.896.835 1.45 2.6v-.05q.406 1.243.8 1.7-1.008-.054-2.1-.75-1.41-.98-1.95-1.05-.03.019-.1.05-.017.04-.05.1.019.043.05.05.04.067.1.05.473.079 1.8 1 1.337.86 2.6.8h.5l-.4-.25q-.502-.212-1-1.75-.596-1.835-1.55-2.7-.006-.031-.05-.05-.058.032-.1.05-.031.055-.05.1z" id="ac"/><path fill="#373535" d="M310.3 407.15q.032.058.05.1.894.824 1.35 2.55.425 1.288.85 1.75-1.037-.048-2.15-.8-1.412-1.03-1.9-1.1-.03.019-.1.05-.017.028-.05.05.019.08.05.1.028.067.05.05.461.08 1.8 1.05 1.363.928 2.65.85h.4l-.35-.2q-.504-.294-1-1.85-.494-1.824-1.45-2.7-.006-.031-.05-.05-.058.032-.1.05-.031.055-.05.1z" id="ad"/><path fill="#373535" d="M315.9 409.65q.02.057.05.1.78.774 1.15 2.35.33 1.115.7 1.55-.939-.108-1.9-.8-1.262-.93-1.7-1-.03.018-.1.05-.017.028-.05.05.018.08.05.1.028.067.05.05.411.08 1.6.95 1.212.877 2.4.85h.45l-.4-.2q-.023-.013-.05-.05-.42-.27-.8-1.6-.381-1.674-1.2-2.5-.043-.03-.1-.05-.058.02-.1.05-.03.042-.05.1z" id="ae"/><path fill="#373535" d="M232.05 351.1q.032-.028 0-.1-.026-.016-.1-.05-3.552-.858-4.45 1.6-.82 2.392 1.9 4h.05q1.307.763 4.2 1.6 3.538 1.026 6.85 1.3.043.031.05 0 .068-.04.05-.1.031-.043 0-.1-.041-.018-.1-.05-3.288-.276-6.8-1.3-2.845-.813-4.15-1.55-2.53-1.492-1.8-3.7.851-2.242 4.15-1.45.078.032.1 0 .066-.026.05-.1z" id="af"/><path fill="#373535" d="M199.6 347.9q.047.075.1.1 4.207 2.213 12.85 4.4 7.375 1.925 15.65 3.2.08.032.1 0 .067-.027.05-.1.032-.03 0-.1-.027-.017-.1-.05-8.275-1.275-15.65-3.2-8.608-2.163-12.8-4.35-.036-.032-.1-.05-.025.047-.05.1-.032.036-.05.05z" id="ag"/><path fill="#373535" d="M230.2 359.75q.08.032.1 0 .067-.028.05-.1.032-.03 0-.1-.028-.017-.1-.05-6.376-.875-14.5-2.8-7.961-1.925-13-3.75-.051.005-.1 0-.052.05-.1.1.005.051 0 .1.05.052.1.05 5.06 1.825 13.05 3.75 8.126 1.925 14.5 2.8z" id="ah"/><path fill="#373535" d="M234 365.2q.08.032.1 0 .067-.027.05-.1.032-.03 0-.1-.027-.017-.1-.05-4.027-.626-11.6-2.45-7.811-1.825-12.1-3.25-.051.018-.1.05-.053.012-.1.05.018.051.05.1.012.052.05.05 4.31 1.425 12.15 3.25 7.576 1.825 11.6 2.45z" id="ai"/><path fill="#373535" d="M228.85 368.4q5.675 1.075 9.1 1.55.08.032.1 0 .067-.028.05-.1.032-.03 0-.1-.028-.017-.1-.05-3.426-.475-9.1-1.55-6.224-1.125-9.45-1.9-.028.018-.1.05-.016.026-.05.05.018.078.05.1.026.066.05.05 3.224.775 9.45 1.9z" id="aj"/><path fill="#373535" d="M241.3 374.25q-.028-.017-.1-.05-4.627-.525-13.4-2.25-.029.018-.1.05-.017.027-.05.05.018.079.05.1.027.067.05.05 8.776 1.725 13.4 2.25.08.031.1 0 .067-.028.05-.1.032-.03 0-.1z" id="ak"/><path fill="#373535" d="M234.7 377.25q.027.067.05.05 1.823.375 5.45.75h.05q3.751.375 6 .4.044.031.05 0 .068-.042.05-.1.031-.045 0-.1-.042-.018-.1-.05-2.251-.025-6-.4-3.63-.376-5.45-.75-.029.018-.1.05-.017.027-.05.05.018.079.05.1z" id="al"/><path fill="#373535" d="M233 357.7q-.012-.053-.05-.1-1.015-.304-2 .6-1.044.954-.7 2.15.977 3.412 11.1 4.1.044.031.05 0 .068-.041.05-.1.031-.044 0-.1-.041-.018-.1-.05-9.877-.662-10.85-3.9-.306-1.054.6-1.9.865-.796 1.75-.55.052.032.1 0 .053-.012.05-.05.032-.052 0-.1z" id="am"/><path fill="#373535" d="M236.35 363.55q-.026-.016-.1-.05-1.36-.291-2.05 1-.777 1.333 1 2.55 1.847 1.217 4.15 1.6 1.535.275 5.05.4.044.031.05 0 .068-.042.05-.1.031-.044 0-.1-.042-.018-.1-.05-3.484-.125-5-.4-2.247-.367-4.05-1.55-1.573-1.084-.95-2.25.61-1.11 1.8-.85.078.032.1 0 .066-.026.05-.1.032-.028 0-.1z" id="an"/><path fill="#373535" d="M240.65 368.6q-.027-.017-.1-.05-1.615-.289-2.3.55-.703.875 0 2.1 1.763 3.12 8.3 3.05.058.03.1 0 .03-.043 0-.1.03-.058 0-.1-.043-.03-.1-.05-6.363.08-8.1-2.9-.597-1.075 0-1.85.615-.711 2.05-.45.079.032.1 0 .067-.027.05-.1.032-.029 0-.1z" id="ao"/><path fill="#373535" d="M242.8 373.6q-.027-.016-.1-.05-.87-.158-1.3.15-.401.336-.35 1.15.164 1.674 3.25 3.1 1.22.617 3.05.75 2.228.18 4.05-.5.05.002.05-.05.045-.05 0-.1.002-.05-.05-.1-.05.005-.1 0-1.778.67-3.95.5-1.77-.117-2.95-.7v-.05q-2.914-1.324-3.1-2.85-.042-.678.25-.95.37-.242 1.1-.1.079.032.1 0 .066-.026.05-.1.032-.029 0-.1z" id="ap"/><path fill="#373535" d="M249.75 378.45q-.043.019-.1.05-1.764 1.523-.9 3 .81 1.521 4 1.45.058.018.1-.05.03-.005 0-.05.018-.058-.05-.1-.005-.031-.05-.05-3.011.079-3.8-1.3-.737-1.323.85-2.7.068-.041.05-.1.031-.044 0-.1-.041-.018-.1-.05z" id="aq"/><path fill="#373535" d="M252.65 382.95q-.052.049-.1.1-.606 1.592.7 2.6 1.425 1.046 3.5-.05.053-.025.05-.1.032-.014 0-.05-.025-.053-.1-.1-.014.018-.05.05-1.925 1.003-3.25.05-1.144-.892-.6-2.3.045-.05 0-.1.001-.052-.05-.1-.05.005-.1 0z" id="ar"/><path fill="#373535" d="M261.1 388.85q.038.002.05-.05.032-.049 0-.1.002-.038-.05-.05-.049-.032-.1-.05-1.732.608-3.2-.45-1.396-1.05-1-2.5.032-.014 0-.05-.025-.053-.1-.1-.014.018-.05.05-.053.025-.1.05-.454 1.6 1.1 2.75 1.582 1.142 3.45.5z" id="as"/><path fill="#373535" d="M243.9 381.8q.04.068.1.05 1.657.179 4.7-.5.073.016.1-.05.032-.021 0-.1.016-.024-.05-.05-.021-.032-.1-.05-3.007.67-4.65.5-.043.019-.1.05-.018.04-.05.1.019.043.05.05z" id="at"/><path fill="#373535" d="M251.3 384.9q.053-.025.05-.1.032-.015 0-.05-.025-.053-.1-.1-.015.018-.05.05-2.585 1.43-4.6 1.65-.022.033-.05.05-.032.07-.05.1.033.072.05.1.07.032.1 0 2.035-.23 4.65-1.7z" id="au"/><path fill="#373535" d="M250.9 391.35q.049.032.1 0 1.68-.531 3.05-2.75.032-.022 0-.1.016-.024-.05-.05-.022-.032-.1-.05-.024.034-.05.05-1.33 2.131-2.95 2.65-.038.047-.05.1-.032.049-.05.1.047.038.1.05z" id="av"/><path fill="#373535" d="M257.45 390.3q-.03.018-.1.05-.017.028-.05.05-.067.664-.45 1.4v-.05q-.478.85-1 1.15-.053.025-.1.05.018.064.05.1.025.053.05.05.064.032.1 0 .578-.3 1.1-1.2.417-.764.5-1.45.032-.03 0-.1-.028-.017-.1-.05z" id="aw"/><path fill="#373535" d="M261.5 391.7q-.018.04-.05.1-.123 1.637.3 2.45.012.052.05.05.051.032.1 0 .052-.012.05-.05.032-.051 0-.1-.377-.787-.25-2.35.031-.043 0-.1-.04-.018-.1-.05-.043.019-.1.05z" id="ax"/><path fill="#373535" d="M260.75 387.15q-.017.028-.05.05-.185 1.928 1.55 2.65 1.432.64 3.3.1.074.003.1-.05.032-.035 0-.1.003-.024-.05-.05-.035-.032-.1-.05-1.782.51-3.15-.1-1.565-.628-1.4-2.35.031-.03 0-.1-.028-.017-.1-.05-.03.019-.1.05z" id="ay"/><path fill="#373535" d="M249.85 358.75q.048.051.1.05 3.705 1.605 4.8 3.4 1.012 1.771-.25 4.15-1.372 2.628-1.4 4.75-.026 2.465 1.75 3.85.07.032.1 0 .072.017.1-.05.032-.02 0-.1.017-.022-.05-.05-1.674-1.315-1.65-3.65.022-2.078 1.35-4.65 1.338-2.521.25-4.4-1.106-1.855-4.9-3.5-.05.005-.1 0-.051.048-.1.1.005.05 0 .1z" id="az"/><path fill="#373535" d="M247.85 361.75q-.043.019-.1.05-1.433 1.2-1.2 3 .326 1.719 1.8 2.5-.56 1.01-.15 2.4v.05q.55 1.487 1.85 2.2.035.032.05 0 .075.003.1-.05.032-.035 0-.1.003-.025-.05-.05-1.2-.688-1.7-2.1-.41-1.365.2-2.35.022-.01 0-.05.022-.04 0-.1-.018.005-.05 0-1.49-.73-1.8-2.4-.217-1.65 1.1-2.75.067-.04.05-.1.031-.043 0-.1-.04-.018-.1-.05z" id="aA"/><path fill="#373535" d="M255.75 380.75q-1.37-1.15-1.15-3 .035-.014 0-.05.008-.032-.05-.05-.01-.022-.05-.05-2.304.022-3.85-1.3-1.422-1.21-1.35-2.95.031-.044 0-.1-.042-.018-.1-.05-.044.019-.1.05-.018.042-.05.1-.078 1.86 1.45 3.15 1.557 1.337 3.85 1.35-.173 1.898 1.25 3.1 1.421 1.15 3.4.85.29 1.311 1.7 2.15h.05q1.551.835 3 .35.038.003.05-.05.032-.048 0-.1.003-.038-.05-.05-.049-.032-.1-.05-1.352.465-2.8-.3-1.376-.823-1.65-2.15.016-.023-.05-.05-.02-.032-.1-.05-1.916.364-3.3-.75z" id="aB"/><path fill="#373535" d="M265.55 402.75q-.045.019-.1.05-.904.865-1.55 2.7-.448 1.538-.95 1.75l-.4.25h.5q1.263.06 2.55-.8 1.39-.921 1.85-1 .072.017.1-.05.032-.007 0-.05.017-.06-.05-.1-.007-.031-.05-.05-.527.07-2 1.05-1.042.696-2.1.75.444-.457.8-1.7v.05q.604-1.765 1.45-2.6.068-.042.05-.1.031-.045 0-.1-.042-.018-.1-.05z" id="aC"/><path fill="#373535" d="M270.5 407q-.045.019-.1.05-.906.876-1.45 2.7-.446 1.556-.95 1.85l-.35.2h.4q1.287.078 2.6-.85 1.388-.97 1.8-1.05.072.017.1-.05.032-.02 0-.1.017-.022-.05-.05-.02-.031-.1-.05-.438.07-1.9 1.1-1.063.751-2.15.8.475-.462.85-1.75.506-1.726 1.35-2.55.068-.042.05-.1.031-.045 0-.1-.042-.018-.1-.05z" id="aD"/><path fill="#373535" d="M264.9 409.5q-.058.02-.1.05-.82.826-1.25 2.5-.33 1.33-.75 1.6-.026.037-.05.05l-.4.2h.45q1.188.027 2.35-.85 1.239-.87 1.6-.95.072.017.1-.05.032-.02 0-.1.017-.022-.05-.05-.02-.032-.1-.05-.389.07-1.7 1-.912.692-1.85.8.37-.435.65-1.55.419-1.576 1.2-2.35.03-.043 0-.1.03-.058 0-.1-.042-.03-.1-.05z" id="aE"/><path fill="#373535" d="M248.3 424.1q.072.017.1-.05.032-.02 0-.1.017-.022-.05-.05-.02-.032-.1-.05-1.454.182-1.95 1.85-.33 1.23-.2 3.65.032.059.05.1.056.031.1 0 .059.018.1-.05.031-.006 0-.05-.12-2.38.2-3.6.454-1.482 1.75-1.65z" id="aF"/><path fill="#373535" d="M246.5 422.8q.058.018.1-.05.031-.006 0-.05.018-.058-.05-.1-.006-.031-.05-.05-2.477.102-2.35 5.6.032.058.05.1.055.031.1 0 .058.018.1-.05.031-.006 0-.05-.124-5.203 2.1-5.35z" id="aG"/><path fill="#373535" d="M250.05 420.2q.04.068.1.05 2.77.28 3.95-.05.074.016.1-.05.032-.022 0-.1.016-.024-.05-.05-.022-.032-.1-.05-1.17.32-3.9.05-.043.019-.1.05-.018.04-.05.1.019.043.05.05z" id="aH"/><path fill="#373535" d="M335.35 428.8q.03-.042 0-.1.029-2.482-.4-3.65-.499-1.627-2-1.8-.03.018-.1.05-.017.028-.05.05.018.08.05.1.028.067.05.05 1.349.177 1.8 1.65.421 1.133.4 3.55.02.058.05.1.042.03.1 0 .058.03.1 0z" id="aI"/><path fill="#373535" d="M334.7 421.9q-.058.032-.1.05-.031.055-.05.1.032.058.05.1.055.031.1 0 2.228.001 2.35 5.2.032.058.05.1.055.031.1 0 .058.018.1-.05.031-.006 0-.05-.128-5.502-2.6-5.45z" id="aJ"/><path fill="#373535" d="M326.95 419.65q-.028.018-.1.05-.016.026-.05.05.018.078.05.1.026.066.05.05.927.23 4-.1.06.018.1-.05.031-.007 0-.05.018-.06-.05-.1-.007-.031-.05-.05-3.027.32-3.95.1z" id="aK"/><g id="aL"><path fill="#373535" d="M278.3 368.35q-7.77.23-13.15-2.4l-.2-.1v18.05q.025 12.294 7.1 21.1 5.818 7.289 18.4 14.25l.05.05.05-.05q12.583-6.961 18.35-14.25 7.075-8.806 7.05-21.1v-18.05l-.15.1q-5.38 2.63-13.15 2.4-7.653-.171-12.1-3l-.05-.05-.1.05q-4.446 2.829-12.1 3m-13.1-2.15q5.396 2.617 13.1 2.4 7.682-.177 12.2-3 4.467 2.823 12.15 3 7.705.217 13.05-2.4v17.7q.025 12.206-7 20.95-5.721 7.247-18.2 14.15-12.479-6.903-18.25-14.15-7.025-8.744-7.05-20.95v-17.7z"/><path fill="#FFF" d="M278.3 368.6q-7.704.217-13.1-2.4v17.7q.025 12.206 7.05 20.95 5.771 7.247 18.25 14.15 12.479-6.903 18.2-14.15 7.025-8.744 7-20.95v-17.7q-5.345 2.617-13.05 2.4-7.683-.177-12.15-3-4.518 2.823-12.2 3z"/></g><g id="aM"><path fill="#373535" d="M265.15 365.95l-.2-.1V384h51v-18.15l-.15.1q-5.38 2.63-13.15 2.4-7.653-.171-12.1-3l-.05-.05-.1.05q-4.446 2.829-12.1 3-7.77.23-13.15-2.4m.05.25q5.396 2.617 13.1 2.4 7.682-.177 12.2-3 4.467 2.823 12.15 3 7.705.217 13.05-2.4v17.55h-50.5V366.2z"/><path fill="#21467B" d="M278.3 368.6q-7.704.217-13.1-2.4v17.55h50.5V366.2q-5.345 2.617-13.05 2.4-7.683-.177-12.15-3-4.518 2.823-12.2 3z"/></g><g id="aN"><path fill="#373535" d="M273 383.75h-4.15v16.55l.05.05q2.1 3.767 3.9 5.6l.2.25v-22.45m-3.9.25h3.65v21.6q-1.669-1.836-3.65-5.3V384z"/><path fill="#D74452" d="M272.75 384h-3.65v16.3q1.981 3.464 3.65 5.3V384z"/></g><g id="aO"><path fill="#373535" d="M280.8 383.75h-4.15v26.15l.05.05q3.527 2.851 3.9 3.15l.2.15v-29.5m-3.9.25h3.65v28.75q-.714-.59-3.65-2.95V384z"/><path fill="#D74452" d="M280.55 384h-3.65v25.8q2.936 2.36 3.65 2.95V384z"/></g><g id="aP"><path fill="#373535" d="M288.6 383.75h-4.15v31.95l.05.05 4.1 2.5v-34.5m-3.9.25h3.65v33.8l-3.65-2.25V384z"/><path fill="#D74452" d="M288.35 384h-3.65v31.55l3.65 2.25V384z"/></g><g id="aQ"><path fill="#373535" d="M312.05 383.75h-4.15v22.45l.25-.25q1.8-1.833 3.9-5.6v-16.6m-3.9.25h3.65v16.3q-1.931 3.463-3.65 5.3V384z"/><path fill="#D74452" d="M311.8 384h-3.65v21.6q1.719-1.837 3.65-5.3V384z"/></g><g id="aR"><path fill="#373535" d="M304.25 383.75h-4.15v29.5l.2-.15q.471-.296 3.9-3.15l.05-.05v-26.15m-3.9.25H304v25.8q-2.867 2.38-3.65 2.95V384z"/><path fill="#D74452" d="M304 384h-3.65v28.75q.783-.57 3.65-2.95V384z"/></g><g id="aS"><path fill="#373535" d="M296.45 383.75h-4.15v34.5l4.1-2.5.05-.05v-31.95m-3.9.25h3.65v31.55l-3.65 2.25V384z"/><path fill="#D74452" d="M296.2 384h-3.65v33.8l3.65-2.25V384z"/></g></defs><use xlink:href="#a" transform="matrix(.92589 0 0 .72917 -168.95 -234.45)"/><use xlink:href="#b" transform="matrix(.92586 0 0 .72917 -168.95 -234.45)"/><use xlink:href="#c" transform="matrix(.92586 0 0 .72917 -168.95 -234.45)"/><use xlink:href="#d" transform="matrix(.92589 0 0 .72917 -168.95 -234.45)"/><use xlink:href="#e" transform="matrix(.92586 0 0 .72917 -168.95 -234.45)"/><use xlink:href="#f" transform="matrix(.92586 0 0 .72917 -168.95 -234.45)"/><use xlink:href="#g" transform="matrix(.92586 0 0 .72917 -168.95 -234.45)"/><use xlink:href="#h" transform="matrix(.92586 0 0 .72917 -168.95 -234.45)"/><use xlink:href="#i" transform="matrix(.92586 0 0 .72917 -168.95 -234.45)"/><use xlink:href="#j" transform="matrix(.92586 0 0 .72917 -168.95 -234.45)"/><use xlink:href="#k" transform="matrix(.92586 0 0 .72917 -168.95 -234.45)"/><use xlink:href="#l" transform="matrix(.92586 0 0 .72917 -168.95 -234.45)"/><use xlink:href="#m" transform="matrix(.92586 0 0 .72917 -168.95 -234.45)"/><use xlink:href="#n" transform="matrix(.92586 0 0 .72917 -168.95 -234.45)"/><use xlink:href="#o" transform="matrix(.92586 0 0 .72917 -168.95 -234.45)"/><use xlink:href="#p" transform="matrix(.92586 0 0 .72917 -168.95 -234.45)"/><use xlink:href="#q" transform="matrix(.92586 0 0 .72917 -168.95 -234.45)"/><use xlink:href="#r" transform="matrix(.92586 0 0 .72917 -168.95 -234.45)"/><use xlink:href="#s" transform="matrix(.92586 0 0 .72917 -168.95 -234.45)"/><use xlink:href="#t" transform="matrix(.92586 0 0 .72917 -168.95 -234.45)"/><use xlink:href="#u" transform="matrix(.92586 0 0 .72917 -168.95 -234.45)"/><use xlink:href="#v" transform="matrix(.92586 0 0 .72917 -168.95 -234.45)"/><use xlink:href="#w" transform="matrix(.92586 0 0 .72917 -168.95 -234.45)"/><use xlink:href="#x" transform="matrix(.92586 0 0 .72917 -168.95 -234.45)"/><use xlink:href="#y" transform="matrix(.92586 0 0 .72917 -168.95 -234.45)"/><use xlink:href="#z" transform="matrix(.92586 0 0 .72917 -168.95 -234.45)"/><use xlink:href="#A" transform="matrix(.92586 0 0 .72917 -168.95 -234.45)"/><use xlink:href="#B" transform="matrix(.92586 0 0 .72917 -168.95 -234.45)"/><use xlink:href="#C" transform="matrix(.92586 0 0 .72917 -168.95 -234.45)"/><use xlink:href="#D" transform="matrix(.92586 0 0 .72917 -168.95 -234.45)"/><use xlink:href="#E" transform="matrix(.92586 0 0 .72917 -168.95 -234.45)"/><use xlink:href="#F" transform="matrix(.92586 0 0 .72917 -168.95 -234.45)"/><use xlink:href="#G" transform="matrix(.92586 0 0 .72917 -168.95 -234.45)"/><use xlink:href="#H" transform="matrix(.92586 0 0 .72917 -168.95 -234.45)"/><use xlink:href="#I" transform="matrix(.92586 0 0 .72917 -168.95 -234.45)"/><use xlink:href="#J" transform="matrix(.92586 0 0 .72917 -168.95 -234.45)"/><use xlink:href="#K" transform="matrix(.92586 0 0 .72917 -168.95 -234.45)"/><use xlink:href="#L" transform="matrix(.92586 0 0 .72917 -168.95 -234.45)"/><use xlink:href="#M" transform="matrix(.92586 0 0 .72917 -168.95 -234.45)"/><use xlink:href="#N" transform="matrix(.92586 0 0 .72917 -168.95 -234.45)"/><use xlink:href="#O" transform="matrix(.92586 0 0 .72917 -168.95 -234.45)"/><use xlink:href="#P" transform="matrix(.92586 0 0 .72917 -168.95 -234.45)"/><use xlink:href="#Q" transform="matrix(.92586 0 0 .72917 -168.95 -234.45)"/><use xlink:href="#R" transform="matrix(.92586 0 0 .72917 -168.95 -234.45)"/><use xlink:href="#S" transform="matrix(.92586 0 0 .72917 -168.95 -234.45)"/><use xlink:href="#T" transform="matrix(.92586 0 0 .72917 -168.95 -234.45)"/><use xlink:href="#U" transform="matrix(.92586 0 0 .72917 -168.95 -234.45)"/><use xlink:href="#V" transform="matrix(.92586 0 0 .72917 -168.95 -234.45)"/><use xlink:href="#W" transform="matrix(.92586 0 0 .72917 -168.95 -234.45)"/><use xlink:href="#X" transform="matrix(.92586 0 0 .72917 -168.95 -234.45)"/><use xlink:href="#Y" transform="matrix(.92586 0 0 .72917 -168.95 -234.45)"/><use xlink:href="#Z" transform="matrix(.92586 0 0 .72917 -168.95 -234.45)"/><use xlink:href="#aa" transform="matrix(.92586 0 0 .72917 -168.95 -234.45)"/><use xlink:href="#ab" transform="matrix(.92586 0 0 .72917 -168.95 -234.45)"/><use xlink:href="#ac" transform="matrix(.92586 0 0 .72917 -168.95 -234.45)"/><use xlink:href="#ad" transform="matrix(.92586 0 0 .72917 -168.95 -234.45)"/><use xlink:href="#ae" transform="matrix(.92586 0 0 .72917 -168.95 -234.45)"/><use xlink:href="#af" transform="matrix(.92586 0 0 .72917 -168.95 -234.45)"/><use xlink:href="#ag" transform="matrix(.92586 0 0 .72917 -168.95 -234.45)"/><use xlink:href="#ah" transform="matrix(.92586 0 0 .72917 -168.95 -234.45)"/><use xlink:href="#ai" transform="matrix(.92586 0 0 .72917 -168.95 -234.45)"/><use xlink:href="#aj" transform="matrix(.92586 0 0 .72917 -168.95 -234.45)"/><use xlink:href="#ak" transform="matrix(.92586 0 0 .72917 -168.95 -234.45)"/><use xlink:href="#al" transform="matrix(.92586 0 0 .72917 -168.95 -234.45)"/><use xlink:href="#am" transform="matrix(.92586 0 0 .72917 -168.95 -234.45)"/><use xlink:href="#an" transform="matrix(.92586 0 0 .72917 -168.95 -234.45)"/><use xlink:href="#ao" transform="matrix(.92586 0 0 .72917 -168.95 -234.45)"/><use xlink:href="#ap" transform="matrix(.92586 0 0 .72917 -168.95 -234.45)"/><use xlink:href="#aq" transform="matrix(.92586 0 0 .72917 -168.95 -234.45)"/><use xlink:href="#ar" transform="matrix(.92586 0 0 .72917 -168.95 -234.45)"/><use xlink:href="#as" transform="matrix(.92586 0 0 .72917 -168.95 -234.45)"/><use xlink:href="#at" transform="matrix(.92586 0 0 .72917 -168.95 -234.45)"/><use xlink:href="#au" transform="matrix(.92586 0 0 .72917 -168.95 -234.45)"/><use xlink:href="#av" transform="matrix(.92586 0 0 .72917 -168.95 -234.45)"/><use xlink:href="#aw" transform="matrix(.92586 0 0 .72917 -168.95 -234.45)"/><use xlink:href="#ax" transform="matrix(.92586 0 0 .72917 -168.95 -234.45)"/><use xlink:href="#ay" transform="matrix(.92586 0 0 .72917 -168.95 -234.45)"/><use xlink:href="#az" transform="matrix(.92586 0 0 .72917 -168.95 -234.45)"/><use xlink:href="#aA" transform="matrix(.92586 0 0 .72917 -168.95 -234.45)"/><use xlink:href="#aB" transform="matrix(.92586 0 0 .72917 -168.95 -234.45)"/><use xlink:href="#aC" transform="matrix(.92586 0 0 .72917 -168.95 -234.45)"/><use xlink:href="#aD" transform="matrix(.92586 0 0 .72917 -168.95 -234.45)"/><use xlink:href="#aE" transform="matrix(.92586 0 0 .72917 -168.95 -234.45)"/><use xlink:href="#aF" transform="matrix(.92586 0 0 .72917 -168.95 -234.45)"/><use xlink:href="#aG" transform="matrix(.92586 0 0 .72917 -168.95 -234.45)"/><use xlink:href="#aH" transform="matrix(.92586 0 0 .72917 -168.95 -234.45)"/><use xlink:href="#aI" transform="matrix(.92586 0 0 .72917 -168.95 -234.45)"/><use xlink:href="#aJ" transform="matrix(.92586 0 0 .72917 -168.95 -234.45)"/><use xlink:href="#aK" transform="matrix(.92586 0 0 .72917 -168.95 -234.45)"/><use xlink:href="#aL" transform="matrix(.92586 0 0 .72917 -168.95 -234.45)"/><use xlink:href="#aM" transform="matrix(.92586 0 0 .72917 -168.95 -234.45)"/><use xlink:href="#aN" transform="matrix(.92586 0 0 .72917 -168.95 -234.45)"/><use xlink:href="#aO" transform="matrix(.92586 0 0 .72917 -168.95 -234.45)"/><use xlink:href="#aP" transform="matrix(.92586 0 0 .72917 -168.95 -234.45)"/><use xlink:href="#aQ" transform="matrix(.92586 0 0 .72917 -168.95 -234.45)"/><use xlink:href="#aR" transform="matrix(.92586 0 0 .72917 -168.95 -234.45)"/><use xlink:href="#aS" transform="matrix(.92586 0 0 .72917 -168.95 -234.45)"/></svg>