<svg xmlns="http://www.w3.org/2000/svg" xmlns:xlink="http://www.w3.org/1999/xlink" preserveAspectRatio="none" width="200" height="105"><defs><g id="a"><path fill="#009543" d="M200 105V61.95H95.5L0 105h200z"/><path d="M200 61.95v-6.7H93.8L0 97.55V105l95.5-43.05H200M0 13.65v77.7L86.1 52.5 0 13.65m19.5 30.9q.2-.35.7.3.3.3.5.6l.3.25.2.1q-.3-.35-.5-.65-.5-.5-.1-.5.3.1.8.7.3.45.4.75l.4.2q-.3-.4-.5-.7-.5-.75-.1-.65.4.1.8.95.2.3.3.75.2 0 .3.2-.1-.45-.3-.75-.4-.75 0-.65.4.25.7.95.2.45.2.75.2.1.5.3-.3-.4-.4-.7-.3-.85.1-.75.4.1.6.95.1.4.1.85l.2.2v-.1q0-.1.1-.2-.1-.15-.1-.25-.2-.8.2-.6l.2.2.2-.2q.5-.2.2.6V48q.1-.1.2-.1 0-.45.1-.95.2-.85.6-.95.4-.1.1.75-.1.3-.4.8.3-.2.5-.3 0-.4.2-.85.3-.7.7-.95.4-.1 0 .65-.2.4-.3.75.1-.1.3-.2.1-.45.3-.75.4-.85.8-.95.4-.1-.1.65-.2.3-.4.7.2-.1.3-.2.1-.3.4-.75.5-.6.8-.7.6-.1-.4 1.05l.3-.25q.3-.3.5-.6.5-.65.7-.3.2.3-.5.7-.3.2-.7.35l-.5.3.9-.45q1-.2 1.2 0 .1.25-1.2.45l-1.4.2q-.3.2-.5.3l.9-.2q.9-.1.8.2-.2.25-1.1.35h-1l-.2.1q-.1 0-.2.1l.9-.1q.8-.1.7.1-.2.2-1.2.3h-.8q-.3.1-.4.3l.7-.1q.9-.1.7.25-.2.3-1.3.4h-.2q0 .1.1.2h.3q0-.2.2 0 .4.2.4 1.05v.85q.3.2.5.5-.2-.5-.3-1.05-.1-.9.3-.6.5.2.5 1.25 0 .4-.1.85l.4.4q-.1-.4-.1-.95 0-.95.3-.7.4.2.3 1.25 0 .5-.1.95.2.1.3.3l.1.1q-.1-.5-.1-1.05 0-1.05.4-.85.3.35.2 1.4 0 .5-.2.95l.4.4q-.1-.65-.1-1.15 0-1.05.5-.65.5.45.2 1.4-.1.5-.3.8v.1q.3.45.7.95l-.3.1q-.2-.4-.5-.8v.1q-.6-.1-1.2-.35-1.2-.3-1.2-.6.1-.3 1.1.1l1 .4-.3-.4-1-.2q-1.1-.45-1.3-.75-.1-.3 1 .1.5.2 1.1.45l-.4-.35-1-.4q-1-.45-1.2-.75-.1-.3.8 0 .5.2.9.45-.1-.15-.2-.25l-.2-.2q-.5-.1-1-.3-1.1-.3-1.3-.75-.2-.4.8 0 .5.2 1 .55l-.1-.25q-.3-.3-.6-.5-.4 0-.8-.1-.7-.2-1.1-.3-.4.1-1.1.3l-.8.1q-.3.3-.6.65l-.1.1 1-.55q1-.4.8 0-.2.45-1.2.75l-1.1.3-.2.2q-.1.1-.1.25l.8-.45q.9-.3.8 0-.1.3-1.2.75l-1 .4-.1.1q-.1.1-.1.25l.9-.45q1.1-.4 1-.1-.1.3-1.2.75l-1.1.2q-.2.2-.3.4l1-.4q1.1-.4 1.1-.1 0 .3-1.2.6l-1.1.35q-.3.4-.5.7l-.4-.1q.4-.5.7-.95v-.1q-.2-.3-.3-.8-.3-.95.2-1.4.5-.4.5.65 0 .5-.1 1.15l.4-.4q-.2-.45-.2-.95-.1-1.05.2-1.4.4-.2.4.85 0 .55-.1 1.05l.4-.4q-.1-.45-.1-.95-.1-1.05.3-1.25.3-.25.3.7 0 .55-.1 1.05.2-.3.4-.4-.1-.55-.1-.95 0-1.05.5-1.25.4-.3.3.6-.1.55-.2.95.2-.2.4-.3v-.95q0-.85.4-1.05.2-.1.3 0h.3v-.1q-.1-.1-.2-.1-1.1-.1-1.3-.4-.2-.35.7-.25.4 0 .9.1-.3-.2-.5-.3h-.9q-1-.1-1.2-.3-.1-.2.7-.1.4 0 .8.1l-.3-.2h-.9q-1-.1-1.2-.35-.1-.3.8-.2.4.1.9.2-.2-.2-.5-.3-.7 0-1.4-.2-1.3-.2-1.2-.45.2-.2 1.2 0 .5.25 1 .45l-.6-.3q-.4-.15-.7-.35-.7-.4-.5-.7m-9 4.8q0-6.8 6.2-10.4 2.3-1.25 5.1-2 2.2-.5 4-.5 1.8 0 4.1.6 2.9.75 5.3 2.25 6.7 4.05 6.7 12.35 0 8.65-6.6 13.25-2.5 1.9-5.7 2.85-2.8.8-5.3.8V62.6q5.1 0 8.5-3.9 3.2-3.35 3.2-7.55 0-3.9-3.1-6.85-3.3-3.15-8-3.15-4.4 0-7.4 3.15-2.6 2.75-2.6 6 0 3.05 2.6 5.35 2.9 2.55 7.2 2.55 4.1 0 6.8-2.75 2.2-2.1 2.2-4.3.6 5.15-3.7 7.75-2.9 1.9-6 1.9-4 0-7.6-1.8-5.9-2.9-5.9-9.65m15.9-.6q.1.3 0 .6.2.2.4.45-.1-.45-.1-.85v-.45q-.1.1-.3.25m-.5.1h-.1l.1.1v-.1m-.4-.45l.3-.1v-.1h-.3v.2m-1-.2v.2h.2v-.2h-.2m-.1.65h-.1v.1q.1 0 .1-.1m.7.2l-.7.1q-.3.2-.5.4l.9-.2q.6-.1.6 0l1 .2q-.3-.2-.5-.4-.4-.1-.8-.1m-1.3.4v-.7q-.1-.15-.2-.15v.35q-.1.4-.2.85.2-.25.4-.35m176.2.35v-6.65H95.7L0 0v7.45L93.8 49.8H200z"/><path fill="#FDCE12" d="M200 55.25V49.8H93.8L0 7.45v6.2L86.1 52.5 0 91.35v6.2l93.8-42.3H200M16.7 38.95q-6.2 3.6-6.2 10.4 0 6.75 5.9 9.65 3.6 1.8 7.6 1.8 3.1 0 6-1.9 4.3-2.6 3.7-7.75 0 2.2-2.2 4.3-2.7 2.75-6.8 2.75-4.3 0-7.2-2.55-2.6-2.3-2.6-5.35 0-3.25 2.6-6 3-3.15 7.4-3.15 4.7 0 8 3.15 3.1 2.95 3.1 6.85 0 4.2-3.2 7.55-3.4 3.9-8.5 3.9v5.95q2.5 0 5.3-.8 3.2-.95 5.7-2.85 6.6-4.6 6.6-13.25 0-8.3-6.7-12.35-2.4-1.5-5.3-2.25-2.3-.6-4.1-.6-1.8 0-4 .5-2.8.75-5.1 2m3.5 5.9q-.5-.65-.7-.3-.2.3.5.7.3.2.7.35l.6.3q-.5-.2-1-.45-1-.2-1.2 0-.1.25 1.2.45.7.2 1.4.2.3.1.5.3-.5-.1-.9-.2-.9-.1-.8.2.2.25 1.2.35h.9l.3.2q-.4-.1-.8-.1-.8-.1-.7.1.2.2 1.2.3h.9q.2.1.5.3-.5-.1-.9-.1-.9-.1-.7.25.2.3 1.3.4.1 0 .2.1v.1h-.3q-.1-.1-.3 0-.4.2-.4 1.05v.95q-.2.1-.4.3.1-.4.2-.95.1-.9-.3-.6-.5.2-.5 1.25 0 .4.1.95-.2.1-.4.4.1-.5.1-1.05 0-.95-.3-.7-.4.2-.3 1.25 0 .5.1.95l-.4.4q.1-.5.1-1.05 0-1.05-.4-.85-.3.35-.2 1.4 0 .5.2.95l-.4.4q.1-.65.1-1.15 0-1.05-.5-.65-.5.45-.2 1.4.1.5.3.8v.1q-.3.45-.7.95l.4.1q.2-.3.5-.7l1.1-.35q1.2-.3 1.2-.6t-1.1.1l-1 .4q.1-.2.3-.4l1.1-.2q1.1-.45 1.2-.75.1-.3-1 .1l-.9.45q0-.15.1-.25l.1-.1 1-.4q1.1-.45 1.2-.75.1-.3-.8 0l-.8.45q0-.15.1-.25l.2-.2 1.1-.3q1-.3 1.2-.75.2-.4-.8 0l-1 .55.1-.1q.3-.35.6-.65l.8-.1q.7-.2 1.1-.3.4.1 1.1.3.4.1.8.1.3.2.6.5l.1.25q-.5-.35-1-.55-1-.4-.8 0 .2.45 1.3.75.5.2 1 .3l.2.2q.1.1.2.25-.4-.25-.9-.45-.9-.3-.8 0 .2.3 1.2.75l1 .4.4.35q-.6-.25-1.1-.45-1.1-.4-1-.1.2.3 1.3.75l1 .2.3.4-1-.4q-1-.4-1.1-.1 0 .3 1.2.6.6.25 1.2.35v-.1q.3.4.5.8l.3-.1q-.4-.5-.7-.95v-.1q.2-.3.3-.8.3-.95-.2-1.4-.5-.4-.5.65 0 .5.1 1.15l-.4-.4q.2-.45.2-.95.1-1.05-.2-1.4-.4-.2-.4.85 0 .55.1 1.05l-.1-.1q-.1-.2-.3-.3.1-.45.1-.95.1-1.05-.3-1.25-.3-.25-.3.7 0 .55.1.95l-.4-.4q.1-.45.1-.85 0-1.05-.5-1.25-.4-.3-.3.6.1.55.3 1.05-.2-.3-.5-.5v-.85q0-.85-.4-1.05-.2-.2-.2 0h-.3q-.1-.1-.1-.2h.2q1.1-.1 1.3-.4.2-.35-.7-.25l-.7.1q.1-.2.4-.3h.8q1-.1 1.2-.3.1-.2-.7-.1l-.9.1q.1-.1.2-.1l.2-.1h1q.9-.1 1.1-.35.1-.3-.8-.2l-.9.2q.2-.1.5-.3l1.4-.2q1.3-.2 1.2-.45-.2-.2-1.2 0l-.9.45.5-.3q.4-.15.7-.35.7-.4.5-.7-.2-.35-.7.3-.2.3-.5.6l-.3.25q1-1.15.4-1.05-.3.1-.8.7-.3.45-.4.75-.1.1-.3.2.2-.4.4-.7.5-.75.1-.65-.4.1-.8.95-.2.3-.3.75-.2.1-.3.2.1-.35.3-.75.4-.75 0-.65-.4.25-.7.95-.2.45-.2.85-.2.1-.5.3.3-.5.4-.8.3-.85-.1-.75-.4.1-.6.95-.1.5-.1.95-.1 0-.2.1v-.1-.2-.25q.3-.8-.2-.6l-.2.2-.2-.2q-.4-.2-.2.6 0 .1.1.25-.1.1-.1.2v.1l-.2-.2q0-.45-.1-.85-.2-.85-.6-.95-.4-.1-.1.75.1.3.4.7-.3-.2-.5-.3 0-.3-.2-.75-.3-.7-.7-.95-.4-.1 0 .65.2.3.3.75-.1-.2-.3-.2-.1-.45-.3-.75-.4-.85-.8-.95-.4-.1.1.65.2.3.5.7l-.4-.2q-.1-.3-.4-.75-.5-.6-.8-.7-.4 0 .1.5.2.3.5.65l-.2-.1-.3-.25q-.2-.3-.5-.6m3.6 3.9v.7q-.2.1-.4.35.1-.45.2-.85v-.35q.1 0 .2.15m.6.4l.7-.1q.4 0 .8.1.2.2.5.4l-1-.2q0-.1-.6 0l-.9.2q.2-.2.5-.4m-.1-.3h.1q0 .1-.1.1v-.1m.2-.45v-.2h.2q.3.2.8.2v-.2h.3v.1l-.3.1q-.5 0-.8-.2v.2h-.2m1.3.45h.1v.1l-.1-.1m.6.5q.1-.3 0-.6.2-.15.3-.25v.45q0 .4.1.85-.2-.25-.4-.45z"/><path fill="#D21034" d="M200 43.15V0H0l95.7 43.15H200z"/></g><path id="b" stroke="#FDCE12" stroke-width="1" stroke-linejoin="miter" stroke-linecap="butt" stroke-miterlimit="4" fill="none" d="M21.7 46.1q.3.1.5.3m1.8 1.15q-.3-.2-.5-.3m-1 3.35q.2-.2.4-.3m-1.3 1.35q.2-.3.4-.4m-2.2 2.6q-.3.45-.7.95l.4.1q.2-.3.5-.7m.5-.85q-.2.2-.3.4m.8-1.05q-.1.1-.1.25m.8-1.05q0-.15.1-.25l.2-.2m1.2-1.25q-.3.3-.6.65m5-.15q-.3-.3-.6-.5m1.2 1.25l.2.2q.1.1.2.25m1.7 2.2q.3.4.5.8l.3-.1q-.4-.5-.7-.95M29 52.1q.2.1.3.3m-1.1-1.25l.4.4m-1.3-1.35q.3.2.5.5m-1-3.45q-.3.1-.4.3m1-.7q-.1 0-.2.1m1.3-.85q-.3.2-.5.3m.1-.1q.2-.1.3-.2m-1.2.75q.1-.1.3-.2m-1.4.9q.3-.2.5-.3m-1.1.75q.1-.1.2-.1m-1.2-.1l.2.2m-.6-.55q-.3-.2-.5-.3m-.6-.3q-.1-.2-.3-.2m-.5-.35l-.4-.2m-.6-.3l-.2-.1m2.8 3.75q-.2.1-.4.35m1-.65q-.3.2-.5.4m2.5 0q-.3-.2-.5-.4m-1.6-.2q.1 0 .1-.1m.3-.65q.3.2.8.2m.4.55l-.1-.1m.6.5q.2.2.4.45"/></defs><g><use xlink:href="#a"/><use xlink:href="#b"/></g></svg>