<svg xmlns="http://www.w3.org/2000/svg" xmlns:xlink="http://www.w3.org/1999/xlink" preserveAspectRatio="none" width="200" height="105"><defs><path fill="#009776" d="M146.45 465.55H434.5V321.5H146.45v144.05z" id="a"/><path fill="#FFF215" d="M434.5 444.95V342.1H146.45v102.85H434.5z" id="b"/><path fill="#EE333E" d="M146.45 362.65v61.75H434.5v-61.75H146.45z" id="c"/><path fill="#373535" d="M434.5 403.8v-20.55H146.45v20.55H434.5z" id="d"/><path fill="#373535" d="M153.6 321.5h-7.15v144.05h7.15l96.25-72.05-96.25-72z" id="e"/><path fill="#FFF" d="M242.7 393.5l-96.25-72v144.05l96.25-72.05z" id="f"/><path fill="#EE333E" d="M190.95 379.25l-8.05-24.8-7.95 24.7h-26.1l21.2 15.35-8.15 24.65 21-15.35 21 15.35-8.05-24.9 21.1-15h-26z" id="g"/><g id="h"><path fill="#FFF215" d="M179.15 373.2h-.1l-.1.1q-5.85 2.95-8.05 3.85-1.35.45-2 .45-.3 0-.5-.1.25 3.35-.1 6.8-.6 5.2-2.4 8.35-.7 1.2-1.4 3.45-.85 2.4-.9 3.55-.05 1.25.65 1.6h.05q.15.1.45.1 1.4 0 1.65-.85v-.4q.1-3.2 2.8-6.6h-.05q2.55-3.3 2.7-6.9h.35q-.1 3.7-2.75 7.1-2.6 3.25-2.7 6.35.05.2.15.45v-.05q.6.95 2 1 1.05 0 1.6-.3.5-.3.5-.9.1-.9.25-1.2.45-1.05 1.85-1.75 1.95-.9 3.5-1.6 1.25-.65 2.15-1.2.5-.3.95-.6 2.4-1.65 3.35-3.6-3.95-1.35-5.7-3-2.2-2.05-1.7-4.85l.35.05q-.45 2.65 1.6 4.55 1.75 1.65 5.75 2.95 1.2.4 2.75.8 1.35.3 3 .65 1.45.25 3.15.6 3.35.6 10.8 1.75.3 0 .6.1 0-.05.05 0 .05 0 .1.05t.05.15q1.75.25 2.35.2 1.05-.05.05-.95-13.4-12.1-27.1-20.15m-7.8 27.2q-.1.7-.65 1.05-.6.35-1.8.35-1.5-.05-2.2-1.05-.35 1-1.95.95-.2-.05-.3-.05l2.2 11.1q2.55.25 6.9.55l-1.95-12.9h-.25m7.15.4l2.4 2.9 2.8-2.6q-2.5-.15-5.2-.3m-.4 0q-2.55-.2-5.3-.3l2.6 2.95 2.7-2.65m2.1 5.9l-2.25-2.5-2.65 2.35q2.3.05 4.9.15m-5.35-.15l-2.45-2.75.4 2.75h2.05m23.8 7.55l1.35-5.45q-5.15-.8-13.3-1.3-3.25-.25-6.15-.35h-.05q-4.15-.2-7.65-.2l.95 6.5q14.05-.6 24.85.8m-9.15-12.55l2.45 2.9 2.7-2.35q-2.4-.3-5.15-.55m-.45 0q-2.45-.25-5.15-.4l2.5 2.8 2.65-2.4m-2.75 5.5q.2 0 .4.05 2.45.15 4.65.35l-2.45-2.7-2.6 2.3m-.5-.05l-2.35-2.6-2.6 2.35q2.35.05 4.95.25m11.9-2l2.35-2.2q-2.25-.35-4.95-.65l2.6 2.85m3.15.1l-3.25 2.95q1.3.15 2.45.35l.8-3.3m-.55-2.5h.05q.5.05 1.05.15l1.05-4.3q-8.85-1.6-25.65-2.45h-.05q-1.5.7-3.5 1.6-1.25.6-1.7 1.6-.1.25-.2.95.2 0 .35.05h.05q.35 0 .75.05 18.25.8 27.8 2.35m-11.75-3.6q0 .5-.35.85t-.85.3q-.5 0-.8-.35-.35-.35-.35-.85t.35-.85q.35-.35.85-.3.5 0 .85.35t.3.85m-5.25-.4q0 .5-.35.8-.35.35-.85.35-.5-.05-.85-.4-.35-.35-.3-.85 0-.5.35-.8.35-.35.85-.3.5 0 .8.35.35.35.35.85m13.8 9.4l-2.6-2.8-2.6 2.3q2.8.2 5.2.5m-2.65-3.1q0-.05.05 0 .05 0 .1.05l2.75 3 3.6-3.3.4-1.65q-.55-.1-1-.15l-2.55 2.4q-.05.05-.1.05-.05-.05-.1-.05l-2.75-3-2.8 2.45q-.05.05-.1.05-.05-.05-.1-.05l-2.6-3-2.75 2.5q-.05.05-.1.05-.05-.05-.1-.05l-2.5-2.8-2.85 2.55q-.05.05-.1.05-.05-.05-.1-.05l-2.45-3-2.8 2.75q-.05 0-.05.05h-.1l-2.9-3.25q-.3-.05-.6-.05l.45 2.9 2.75 3.1 2.85-2.55q0-.05.05 0 .05 0 .1.05l2.45 2.75 2.9-2.6q0-.05.05 0 .05 0 .1.05l2.5 2.8 2.8-2.5q0-.05.05 0 .05 0 .1.05l2.6 2.9 2.85-2.5m-11.4-10.85q.05-.05.15-.05 1.25-.7 2.65-2.9l-2.45-.7q-.95 1.95-3.25 3.65 1.65.55 2.9 0m3.05-2.9q-1.4 2.2-2.65 2.95 1.65.5 2.85.05 1.2-.6 2.5-2.4-1.5-.35-2.7-.6m-7.15 3.65q-.75.45-1.7.95 16.5.9 25.25 2.45l.95-4q-.25-.05-.45-.05-7.5-1.15-10.8-1.75-1.7-.3-3.1-.6-1.4 2-2.7 2.6-1.3.55-3.25-.1-1.4.6-3.25-.05-.45.25-.95.55m-10.9-33.65q-3.6.35-4.4 4.7-1.95 1.05-2.95 2.5 3.2-.1 4.65 1 1.75 1.25 2.4 4.75.25 1.35.4 2.75.05-.05.1.05.05 0 .05.05l.05.05v.15q.15.15.55.2.65-.05 1.9-.45 2.2-.85 8-3.8.1-.05.15-.1h.05q-1.15-3.55-4.4-8.15-2.9-4.05-6.55-3.7m.45 3.1q.25.25.25.65 0 .35-.3.65-.25.25-.65.25t-.65-.3q-.3-.25-.25-.65 0-.4.3-.65.25-.3.65-.25.35 0 .65.3z"/><path fill="#373535" d="M179.05 373.2h.1v-.05q0-.05-.05-.1 0-.05-.05-.05-.05-.05-.05 0h-.05q-.05.05-.15.1-5.8 2.95-8 3.8-1.25.4-1.9.45-.4-.05-.55-.2V377l-.05-.05q0-.05-.05-.05-.05-.1-.1-.05-.1 0-.1.05-.05.05-.05.1v.05q.3 3.5-.05 7.2-.55 5.15-2.35 8.2-.7 1.2-1.45 3.55-.9 2.5-.9 3.65-.1 1.45.8 1.9l2.3 11.5.15.05q2.6.25 7.2.55 14.2-.6 25.1.85h.15l.05-.15 4.85-20.25q0-.1-.05-.15-.05-.05-.1-.05-.05-.05-.05 0-.3-.1-.6-.1-7.45-1.15-10.8-1.75-1.7-.35-3.15-.6-1.65-.35-3-.65-1.55-.4-2.75-.8-4-1.3-5.75-2.95-2.05-1.9-1.6-4.55l-.35-.05q-.5 2.8 1.7 4.85 1.75 1.65 5.7 3-.95 1.95-3.35 3.6-.45.3-.95.6-.9.55-2.15 1.2-1.55.7-3.5 1.6-1.4.7-1.85 1.75-.15.3-.25 1.2 0 .6-.5.9-.55.3-1.6.3-1.4-.05-2-1v.05q-.1-.25-.15-.45.1-3.1 2.7-6.35 2.65-3.4 2.75-7.1h-.35q-.15 3.6-2.7 6.9h.05q-2.7 3.4-2.8 6.6v.4q-.25.85-1.65.85-.3 0-.45-.1h-.05q-.7-.35-.65-1.6.05-1.15.9-3.55.7-2.25 1.4-3.45 1.8-3.15 2.4-8.35.35-3.45.1-6.8.2.1.5.1.65 0 2-.45 2.2-.9 8.05-3.85l.1-.1m-1.8 22.55q.95-.5 1.7-.95.5-.3.95-.55 1.85.65 3.25.05 1.95.65 3.25.1 1.3-.6 2.7-2.6 1.4.3 3.1.6 3.3.6 10.8 1.75.2 0 .45.05l-.95 4q-8.75-1.55-25.25-2.45m6.2-1.65q1.25-.75 2.65-2.95 1.2.25 2.7.6-1.3 1.8-2.5 2.4-1.2.45-2.85-.05m-.25-.1q-.1 0-.15.05-1.25.55-2.9 0 2.3-1.7 3.25-3.65l2.45.7q-1.4 2.2-2.65 2.9m11.3 10.9q-.05-.05-.05 0l-2.85 2.5-2.6-2.9q-.05-.05-.1-.05-.05-.05-.05 0l-2.8 2.5-2.5-2.8q-.05-.05-.1-.05-.05-.05-.05 0l-2.9 2.6-2.45-2.75q-.05-.05-.1-.05-.05-.05-.05 0l-2.85 2.55-2.75-3.1-.45-2.9q.3 0 .6.05l2.9 3.25h.1q0-.05.05-.05l2.8-2.75 2.45 3q.05 0 .1.05.05 0 .1-.05l2.85-2.55 2.5 2.8q.05 0 .1.05.05 0 .1-.05l2.75-2.5 2.6 3q.05 0 .1.05.05 0 .1-.05l2.8-2.45 2.75 3q.05 0 .1.05.05 0 .1-.05l2.55-2.4q.45.05 1 .15l-.4 1.65-3.6 3.3-2.75-3q-.05-.05-.1-.05m0 .3l2.6 2.8q-2.4-.3-5.2-.5l2.6-2.3m5.85-2.6h-.05q-9.55-1.55-27.8-2.35-.4-.05-.75-.05h-.05q-.15-.05-.35-.05.1-.7.2-.95.45-1 1.7-1.6 2-.9 3.5-1.6h.05q16.8.85 25.65 2.45l-1.05 4.3q-.55-.1-1.05-.15m-2.75 5.45l3.25-2.95-.8 3.3q-1.15-.2-2.45-.35m2.45-5.25l-2.35 2.2-2.6-2.85q2.7.3 4.95.65m-16.6 1.6l2.35 2.6q-2.6-.2-4.95-.25l2.6-2.35m3.25 2.7q-.2-.05-.4-.05l2.6-2.3 2.45 2.7q-2.2-.2-4.65-.35m-2.8-5.95q2.7.15 5.15.4l-2.65 2.4-2.5-2.8m8.05 3.3l-2.45-2.9q2.75.25 5.15.55l-2.7 2.35m8.05 4.2l-1.35 5.45q-10.8-1.4-24.85-.8l-.95-6.5q3.5 0 7.65.2h.05q2.9.1 6.15.35 8.15.5 13.3 1.3m-27.6-4.85l2.45 2.75h-2.05l-.4-2.75m5.55.4l2.25 2.5q-2.6-.1-4.9-.15l2.65-2.35m-5.15-3.7q2.75.1 5.3.3l-2.7 2.65-2.6-2.95m8.1 3.2l-2.4-2.9q2.7.15 5.2.3l-2.8 2.6m-10.2-2.25q.55-.35.65-1.05h.25l1.95 12.9q-4.35-.3-6.9-.55l-2.2-11.1q.1 0 .3.05 1.6.05 1.95-.95.7 1 2.2 1.05 1.2 0 1.8-.35m12.25-2.05q.35-.3.35-.8t-.35-.85q-.3-.35-.8-.35-.5-.05-.85.3-.35.3-.35.8-.05.5.3.85t.85.4q.5 0 .85-.35m5.25.45q.35-.35.35-.85.05-.5-.3-.85t-.85-.35q-.5-.05-.85.3t-.35.85q0 .5.35.85.3.35.8.35.5.05.85-.3m-19.45-34.95q0-.4-.25-.65-.3-.3-.65-.3-.4-.05-.65.25-.3.25-.3.65-.05.4.25.65.25.3.65.3t.65-.25q.3-.3.3-.65z"/></g></defs><use xlink:href="#a" transform="matrix(.6943 0 0 .72888 -101.7 -234.35)"/><use xlink:href="#b" transform="matrix(.6943 0 0 .72888 -101.7 -234.35)"/><use xlink:href="#c" transform="matrix(.6943 0 0 .72888 -101.7 -234.35)"/><use xlink:href="#d" transform="matrix(.6943 0 0 .72888 -101.7 -234.35)"/><use xlink:href="#e" transform="matrix(.6943 0 0 .72888 -101.7 -234.35)"/><use xlink:href="#f" transform="matrix(.6943 0 0 .72888 -101.7 -234.35)"/><use xlink:href="#g" transform="matrix(.6943 0 0 .72888 -101.7 -234.35)"/><use xlink:href="#h" transform="matrix(.6943 0 0 .72888 -101.7 -234.35)"/></svg>