<svg xmlns="http://www.w3.org/2000/svg" xmlns:xlink="http://www.w3.org/1999/xlink" preserveAspectRatio="none" width="19" height="19"><defs><path fill="url(#a)" d="M315.15 56.35Q267.45 8.65 200 8.65T84.85 56.35q-47.7 47.7-47.7 115.15t47.7 115.15q47.7 47.7 115.15 47.7t115.15-47.7q47.7-47.7 47.7-115.15t-47.7-115.15z" id="c"/><path fill="url(#b)" d="M57.6-57.55Q33.75-81.4 0-81.4q-33.7 0-57.55 23.85Q-81.4-33.7-81.4 0q0 33.75 23.85 57.6T0 81.45q33.75 0 57.6-23.85T81.45 0q0-33.7-23.85-57.55z" id="e"/><path id="d" stroke="#000" stroke-width="1" stroke-linejoin="round" stroke-linecap="round" fill="none" d="M315.15 56.35q47.7 47.7 47.7 115.15t-47.7 115.15q-47.7 47.7-115.15 47.7t-115.15-47.7q-47.7-47.7-47.7-115.15t47.7-115.15Q132.55 8.65 200 8.65t115.15 47.7z"/><path id="f" stroke="#000" stroke-width="3" stroke-linejoin="round" stroke-linecap="round" fill="none" d="M57.6-57.55Q81.45-33.7 81.45 0q0 33.75-23.85 57.6T0 81.45q-33.7 0-57.55-23.85Q-81.4 33.75-81.4 0q0-33.7 23.85-57.55Q-33.7-81.4 0-81.4q33.75 0 57.6 23.85z"/><radialGradient id="a" gradientUnits="userSpaceOnUse" cx="0" cy="0" r="253.113" fx="0" fy="0" gradientTransform="translate(119.55 60.95)" spreadMethod="pad"><stop offset="0%" stop-color="#FFF"/><stop offset="22.745%" stop-color="navy"/><stop offset="89.804%" stop-color="#000040"/></radialGradient><radialGradient id="b" gradientUnits="userSpaceOnUse" cx="0" cy="0" r="117.288" fx="0" fy="0" gradientTransform="translate(-16 -34)" spreadMethod="pad"><stop offset="0%" stop-color="#FFF"/><stop offset="100%" stop-color="#C8C8C8"/></radialGradient></defs><g transform="matrix(.05833 0 0 .05833 -2.167 -.517)"><use xlink:href="#c"/><use xlink:href="#d"/></g><g transform="matrix(.05833 0 0 .05833 9.5 9.517)"><use xlink:href="#e"/><use xlink:href="#f"/></g><g transform="matrix(.05833 0 0 .05833 6.583 6.186)"><clipPath id="g"><path fill="#FFF" d="M25.2-1.95h123.5v218.5H25.2z"/></clipPath><text clip-path="url(#g)" writing-mode="lr"><tspan x="27.2" y="86.95" baseline-shift="0%" font-family="Arial Bold" font-weight="bold" font-size="96">8</tspan></text></g></svg>