<svg xmlns="http://www.w3.org/2000/svg" preserveAspectRatio="none" width="19" height="19"><defs><radialGradient id="a" gradientUnits="userSpaceOnUse" cx="0" cy="0" r="253.1" fx="0" fy="0" gradientTransform="translate(119.55 60.95)" spreadMethod="pad"><stop offset="0%" stop-color="#FFF"/><stop offset="22.745%" stop-color="#818181"/><stop offset="89.804%" stop-color="#000400"/></radialGradient><radialGradient id="b" gradientUnits="userSpaceOnUse" cx="0" cy="0" r="117.288" fx="0" fy="0" gradientTransform="translate(-16 -34)" spreadMethod="pad"><stop offset="0%" stop-color="#FFF"/><stop offset="100%" stop-color="#C8C8C8"/></radialGradient><radialGradient id="d" gradientUnits="userSpaceOnUse" cx="0" cy="0" r="12.622" fx="0" fy="0" gradientTransform="rotate(-45 9.987 -4.137) scale(1 .33473)" spreadMethod="pad"><stop offset="0%" stop-color="#FFF"/><stop offset="80.784%" stop-color="#A8000C"/></radialGradient><radialGradient id="e" gradientUnits="userSpaceOnUse" cx="0" cy="0" r="39.899" fx="0" fy="0" gradientTransform="rotate(-45 43.09 -17.648) scale(1 .144)" spreadMethod="pad"><stop offset="0%" stop-color="#5E0000"/><stop offset="80.784%" stop-color="#A8000C"/></radialGradient></defs><path fill="url(#a)" d="M315.15 56.35Q267.45 8.65 200 8.65T84.85 56.35q-47.7 47.7-47.7 115.15t47.7 115.15q47.7 47.7 115.15 47.7t115.15-47.7q47.7-47.7 47.7-115.15t-47.7-115.15z" transform="matrix(.05833 0 0 .05833 -2.167 -.517)"/><path stroke="#000" stroke-linejoin="round" stroke-linecap="round" fill="none" d="M16.217 2.77Q19 5.553 19 9.487q0 3.935-2.783 6.718-2.782 2.782-6.717 2.782-3.935 0-6.717-2.782Q0 13.422 0 9.487 0 5.553 2.783 2.77 5.565-.012 9.5-.012q3.935 0 6.717 2.782z" stroke-width=".05833"/><path fill="url(#b)" d="M57.6-57.55Q33.75-81.4 0-81.4q-33.7 0-57.55 23.85Q-81.4-33.7-81.4 0q0 33.75 23.85 57.6T0 81.45q33.75 0 57.6-23.85T81.45 0q0-33.7-23.85-57.55z" transform="matrix(.05833 0 0 .05833 9.5 9.517)"/><path stroke="#000" stroke-width=".17499" stroke-linejoin="round" stroke-linecap="round" fill="none" d="M12.86 6.16q1.391 1.39 1.391 3.357 0 1.968-1.39 3.36-1.392 1.391-3.361 1.391-1.966 0-3.357-1.391-1.391-1.392-1.391-3.36 0-1.966 1.39-3.358Q7.535 4.77 9.5 4.77q1.969 0 3.36 1.39z"/><g><g transform="matrix(.05833 0 0 .05833 6.583 6.186)"><clipPath id="c"><path fill="#FFF" d="M25.2-1.95h123.5v218.5H25.2z"/></clipPath><text clip-path="url(#c)" writing-mode="lr"><tspan x="27.2" y="86.95" baseline-shift="0%" font-family="Arial Bold" font-weight="bold" font-size="96">8</tspan></text></g></g><g><path fill="#FFF" d="M14.658 11.16h-.174q-1.379 0-2.351.973-.972.972-.972 2.35v.175q.047.932.551 1.669l4.615-4.615q-.738-.504-1.67-.551m3.12 2.873q-.101-.83-.594-1.495l-4.644 4.644q.213.157.436.275.093.044.174.073.026.016.043.014.478.213 1.016.247.14.015.276.015 1.378 0 2.35-.973.973-.972.973-2.35 0-.23-.03-.45z"/><path fill="url(#d)" d="M17.7.15Q16.642 0 15.5 0 9.1 0 4.55 4.55 0 9.1 0 15.5q0 1.143.15 2.2.597-.148 1.25-.4 1.31-.511 2.6-1.25v-.6q0-4.75 3.35-8.1Q10.7 4 15.45 4h.6q.737-1.303 1.25-2.65.248-.615.4-1.2z" transform="matrix(.2902 0 0 .2902 10 10)"/><path fill="url(#e)" d="M26.8 13.9q.1.755.1 1.55 0 4.75-3.35 8.1-3.35 3.35-8.1 3.35-.467 0-.95-.05-.353.783-.65 1.55-.515 1.322-.75 2.4 1.179.2 2.4.2 6.4 0 10.95-4.55Q31 21.9 31 15.5q0-1.746-.35-3.35l-.9.3q-1.476.597-2.95 1.45z" transform="matrix(.2902 0 0 .2902 10 10)"/><path fill="#A8000C" d="M17.183 12.54q.493.664.595 1.494.427-.248.856-.42l.26-.088q-.257-1.245-1.218-2.206-1.085-1.084-2.54-1.276-.044.17-.115.348-.15.39-.363.769.931.047 1.669.551l-4.615 4.615q-.504-.737-.551-1.67-.375.215-.755.364-.19.073-.362.116.192 1.455 1.276 2.539.154.153.305.29.023.014.03.03.958.78 2.147.942.068-.313.217-.696.086-.223.189-.45-.538-.034-1.016-.247-.017.002-.043-.014-.081-.029-.174-.073-.223-.118-.436-.275l4.644-4.644z"/></g></svg>
