<svg xmlns="http://www.w3.org/2000/svg" xmlns:xlink="http://www.w3.org/1999/xlink" preserveAspectRatio="none" width="21" height="21"><defs><path fill="#FFF" d="M3.7 9.8q.85 1.1 1.95 1.1 1.15 0 2-1.1.85-1.1.85-2.65 0-1.55-.85-2.65-.85-1.1-2-1.1-1.1 0-1.95 1.1-.85 1.1-.85 2.65 0 1.55.85 2.65m9.2-6.4q-1.1 0-1.95 1.1-.85 1.1-.85 2.65 0 1.55.85 2.65.85 1.1 1.95 1.1 1.15 0 2-1.1.85-1.1.85-2.65 0-1.55-.85-2.65-.85-1.1-2-1.1z" id="a"/><path d="M7.6 6q-.6-.6-1.4-.6-.8 0-1.35.6-.6.55-.6 1.4 0 .85.6 1.45.55.55 1.35.55t1.4-.55q.55-.6.55-1.45T7.6 6m6.15 0q-.6-.6-1.4-.6-.8 0-1.35.6-.6.55-.6 1.4 0 .85.6 1.45.55.55 1.35.55t1.4-.55q.55-.6.55-1.45T13.75 6z" id="d"/><path id="b" stroke="#333" stroke-width="1" stroke-linejoin="round" stroke-linecap="round" fill="none" d="M12.9 3.4q1.15 0 2 1.1.85 1.1.85 2.65 0 1.55-.85 2.65-.85 1.1-2 1.1-1.1 0-1.95-1.1-.85-1.1-.85-2.65 0-1.55.85-2.65.85-1.1 1.95-1.1zM3.7 9.8q-.85-1.1-.85-2.65 0-1.55.85-2.65.85-1.1 1.95-1.1 1.15 0 2 1.1.85 1.1.85 2.65 0 1.55-.85 2.65-.85 1.1-2 1.1-1.1 0-1.95-1.1z"/><path id="c" stroke="#560000" stroke-width="1.2" stroke-linejoin="round" stroke-linecap="round" fill="none" d="M4.25 13q4.95 5.95 10.85-.1"/></defs><g transform="translate(1.9 2.3) scale(.92613)"><use xlink:href="#a"/><use xlink:href="#b"/><use xlink:href="#c"/></g><use xlink:href="#d" transform="translate(1.9 2.3) scale(.92613)"/></svg>
