<svg xmlns="http://www.w3.org/2000/svg" xmlns:xlink="http://www.w3.org/1999/xlink" preserveAspectRatio="none" width="40" height="40"><defs><radialGradient id="a" gradientUnits="userSpaceOnUse" cx="0" cy="0" r="9.668" fx="0" fy="0" gradientTransform="matrix(.48356 -.87531 .51459 .28186 8.15 13.8)" spreadMethod="pad"><stop offset="0%" stop-opacity=".412"/><stop offset="100%" stop-color="#013198" stop-opacity="0"/></radialGradient><radialGradient id="b" gradientUnits="userSpaceOnUse" cx="0" cy="0" r="5.021" fx="0" fy="0" gradientTransform="matrix(.77672 -.62984 .4008 .49292 6.9 5.15)" spreadMethod="pad"><stop offset="0%" stop-opacity=".424"/><stop offset="100%" stop-color="#013198" stop-opacity="0"/></radialGradient><path fill="#090" d="M8.8 3.9q0-1.4-1-2.4T5.4.5Q4 .5 3 1.5T2 3.9q0 1.4 1 2.4t2.4 1q-1.65.15-3.2 2.35-.542.76-.9 1.6-.835 1.873-.8 4.15.05 1 5.15 1.1 5.1.1 5.05-.95-.142-2.376-.95-4.3-.314-.788-.75-1.5Q7.5 7.3 5.7 7.3q1.2-.1 2.1-1 1-1 1-2.4z" id="c"/><g id="d"><path fill-opacity=".651" d="M8.9 3.9q.03-1.458-1-2.5Q6.857.369 5.4.35 3.942.369 2.9 1.4 1.869 2.442 1.85 3.9q.019 1.457 1.05 2.5.756.747 1.7.95-1.268.482-2.5 2.2-.567.819-.95 1.7-.808 1.876-.8 4.15.058 1.12 5.3 1.2 2.56.07 3.8-.2 1.428-.23 1.35-.85-.119-2.372-.9-4.3-.343-.829-.8-1.6-1.217-1.964-2.65-2.4.806-.217 1.45-.85 1.03-1.043 1-2.5M7.7 1.6q.969.957.95 2.3.019 1.342-.95 2.3-.856.872-2 .95-.058.033-.1.05-.03.056-.05.1.033.058.05.1.056.03.1 0 1.741.042 3.2 2.4.415.703.7 1.45.835 1.92.95 4.3.024.43-1.1.65-1.26.23-3.8.15Q.69 16.28.6 15.4q-.01-2.28.8-4.15.382-.8.9-1.55 1.505-2.119 3.1-2.3.058.017.1-.05.03-.007 0-.05.017-.057-.05-.1-.006-.03-.05-.05-1.343.019-2.3-.95-.97-.958-1-2.3.03-1.343 1-2.3.957-.97 2.3-1 1.342.03 2.3 1z"/><path fill="url(#a)" d="M2.3 9.7q-.518.75-.9 1.55-.81 1.87-.8 4.15.09.88 5.05.95 2.54.08 3.8-.15 1.124-.22 1.1-.65-.115-2.38-.95-4.3-.285-.747-.7-1.45-1.459-2.358-3.2-2.4-.044.03-.1 0-.017-.042-.05-.1H5.5q.03.043 0 .05-.042.067-.1.05-1.595.181-3.1 2.3m1.25 1.55Q4.231 9.855 5.4 9.1q-1.169.755-1.85 2.15-.696 1.47-.85 3.65.154-2.18.85-3.65z"/><path fill="url(#b)" d="M8.65 3.9q.019-1.343-.95-2.3-.958-.97-2.3-1-1.343.03-2.3 1-.97.957-1 2.3.03 1.342 1 2.3.957.969 2.3.95.044.02.05.05.067.043.05.1h.05q.02-.044.05-.1.042-.017.1-.05 1.144-.078 2-.95.969-.958.95-2.3m-4.95.05Q3.9 2.65 5 2.1q-1.1.55-1.3 1.85z"/></g><path fill="#03F" d="M8.8 3.9q0-1.4-1-2.4T5.4.5Q4 .5 3 1.5T2 3.9q0 1.4 1 2.4t2.4 1q-1.65.15-3.2 2.35Q.45 12.1.5 15.4q.05 1 5.15 1.1 5.1.1 5.05-.95-.2-3.35-1.7-5.8Q7.5 7.3 5.7 7.3q1.2-.1 2.1-1 1-1 1-2.4z" id="f"/><g id="g"><path fill-opacity=".651" d="M8.9 3.9q.03-1.458-1-2.5Q6.857.369 5.4.35 3.942.369 2.9 1.4 1.869 2.442 1.85 3.9q.019 1.457 1.05 2.5.756.747 1.7.95-1.268.482-2.5 2.2Q.326 12.057.35 15.4q.058 1.12 5.3 1.2 2.56.07 3.8-.2 1.428-.23 1.35-.85-.18-3.392-1.7-5.9-1.217-1.964-2.65-2.4.806-.217 1.45-.85 1.03-1.043 1-2.5M7.7 1.6q.969.957.95 2.3.019 1.342-.95 2.3-.856.872-2 .95-.058.033-.1.05-.03.056-.05.1.033.058.05.1.056.03.1 0 1.741.042 3.2 2.4 1.48 2.442 1.65 5.75.024.43-1.1.65-1.26.23-3.8.15Q.69 16.28.6 15.4q-.026-3.257 1.7-5.7 1.505-2.119 3.1-2.3.058.017.1-.05.03-.007 0-.05.017-.057-.05-.1-.006-.03-.05-.05-1.343.019-2.3-.95-.97-.958-1-2.3.03-1.343 1-2.3.957-.97 2.3-1 1.342.03 2.3 1z"/><path fill="url(#a)" d="M5.5 7.3q.03.043 0 .05-.042.067-.1.05-1.595.181-3.1 2.3Q.574 12.143.6 15.4q.09.88 5.05.95 2.54.08 3.8-.15 1.124-.22 1.1-.65-.17-3.308-1.65-5.75-1.459-2.358-3.2-2.4-.044.03-.1 0-.017-.042-.05-.1H5.5m-2.8 7.6q.3-4.25 2.7-5.8-2.4 1.55-2.7 5.8z"/><path fill="url(#b)" d="M8.65 3.9q.019-1.343-.95-2.3-.958-.97-2.3-1-1.343.03-2.3 1-.97.957-1 2.3.03 1.342 1 2.3.957.969 2.3.95.044.02.05.05.067.043.05.1h.05q.02-.044.05-.1.042-.017.1-.05 1.144-.078 2-.95.969-.958.95-2.3m-4.95.05Q3.9 2.65 5 2.1q-1.1.55-1.3 1.85z"/></g><path fill="red" d="M8.8 3.9q0-1.4-1-2.4T5.4.5Q4 .5 3 1.5T2 3.9q0 1.4 1 2.4t2.4 1q-1.65.15-3.2 2.35Q.45 12.1.5 15.4q.05 1 5.15 1.1 5.1.1 5.05-.95-.2-3.35-1.7-5.8Q7.5 7.3 5.7 7.3q1.2-.1 2.1-1 1-1 1-2.4z" id="i"/><g id="j"><path fill-opacity=".651" d="M8.9 3.9q.03-1.458-1-2.5Q6.857.369 5.4.35 3.942.369 2.9 1.4 1.869 2.442 1.85 3.9q.019 1.457 1.05 2.5.756.747 1.7.95-1.268.482-2.5 2.2Q.326 12.057.35 15.4q.058 1.12 5.3 1.2 2.56.07 3.8-.2 1.428-.23 1.35-.85-.18-3.392-1.7-5.9-1.217-1.964-2.65-2.4.806-.217 1.45-.85 1.03-1.043 1-2.5M7.7 1.6q.969.957.95 2.3.019 1.342-.95 2.3-.856.872-2 .95-.058.033-.1.05-.03.056-.05.1.033.058.05.1.056.03.1 0 1.741.042 3.2 2.4 1.48 2.442 1.65 5.75.024.43-1.1.65-1.26.23-3.8.15Q.69 16.28.6 15.4q-.026-3.257 1.7-5.7 1.505-2.119 3.1-2.3.058.017.1-.05.03-.007 0-.05.017-.057-.05-.1-.006-.03-.05-.05-1.343.019-2.3-.95-.97-.958-1-2.3.03-1.343 1-2.3.957-.97 2.3-1 1.342.03 2.3 1z"/><path fill="url(#a)" d="M5.5 7.3q.03.043 0 .05-.042.067-.1.05-1.595.181-3.1 2.3Q.574 12.143.6 15.4q.09.88 5.05.95 2.54.08 3.8-.15 1.124-.22 1.1-.65-.17-3.308-1.65-5.75-1.459-2.358-3.2-2.4-.044.03-.1 0-.017-.042-.05-.1H5.5m-2.8 7.6q.3-4.25 2.7-5.8-2.4 1.55-2.7 5.8z"/><path fill="url(#b)" d="M8.65 3.9q.019-1.343-.95-2.3-.958-.97-2.3-1-1.343.03-2.3 1-.97.957-1 2.3.03 1.342 1 2.3.957.969 2.3.95.044.02.05.05.067.043.05.1h.05q.02-.044.05-.1.042-.017.1-.05 1.144-.078 2-.95.969-.958.95-2.3m-4.95.05Q3.9 2.65 5 2.1q-1.1.55-1.3 1.85z"/></g><path fill="#F60" d="M8.8 3.9q0-1.4-1-2.4T5.4.5Q4 .5 3 1.5T2 3.9q0 1.4 1 2.4t2.4 1q-1.65.15-3.2 2.35Q.45 12.1.5 15.4q.05 1 5.15 1.1 5.1.1 5.05-.95-.2-3.35-1.7-5.8Q7.5 7.3 5.7 7.3q1.2-.1 2.1-1 1-1 1-2.4z" id="l"/><g id="m"><path fill-opacity=".651" d="M8.9 3.9q.03-1.458-1-2.5Q6.857.369 5.4.35 3.942.369 2.9 1.4 1.869 2.442 1.85 3.9q.019 1.457 1.05 2.5.756.747 1.7.95-1.268.482-2.5 2.2Q.326 12.057.35 15.4q.058 1.12 5.3 1.2 2.56.07 3.8-.2 1.428-.23 1.35-.85-.18-3.392-1.7-5.9-1.217-1.964-2.65-2.4.806-.217 1.45-.85 1.03-1.043 1-2.5M7.7 1.6q.969.957.95 2.3.019 1.342-.95 2.3-.856.872-2 .95-.058.033-.1.05-.03.056-.05.1.033.058.05.1.056.03.1 0 1.741.042 3.2 2.4 1.48 2.442 1.65 5.75.024.43-1.1.65-1.26.23-3.8.15Q.69 16.28.6 15.4q-.026-3.257 1.7-5.7 1.505-2.119 3.1-2.3.058.017.1-.05.03-.007 0-.05.017-.057-.05-.1-.006-.03-.05-.05-1.343.019-2.3-.95-.97-.958-1-2.3.03-1.343 1-2.3.957-.97 2.3-1 1.342.03 2.3 1z"/><path fill="url(#a)" d="M5.5 7.3q.03.043 0 .05-.042.067-.1.05-1.595.181-3.1 2.3Q.574 12.143.6 15.4q.09.88 5.05.95 2.54.08 3.8-.15 1.124-.22 1.1-.65-.17-3.308-1.65-5.75-1.459-2.358-3.2-2.4-.044.03-.1 0-.017-.042-.05-.1H5.5m-2.8 7.6q.3-4.25 2.7-5.8-2.4 1.55-2.7 5.8z"/><path fill="url(#b)" d="M8.65 3.9q.019-1.343-.95-2.3-.958-.97-2.3-1-1.343.03-2.3 1-.97.957-1 2.3.03 1.342 1 2.3.957.969 2.3.95.044.02.05.05.067.043.05.1h.05q.02-.044.05-.1.042-.017.1-.05 1.144-.078 2-.95.969-.958.95-2.3m-4.95.05Q3.9 2.65 5 2.1q-1.1.55-1.3 1.85z"/></g><path id="e" stroke="#FFF" stroke-width="1" stroke-linejoin="round" stroke-linecap="round" fill="none" d="M3.7 3.95Q3.9 2.65 5 2.1M2.7 14.9q.154-2.18.85-3.65.681-1.395 1.85-2.15"/><path id="h" stroke="#FFF" stroke-width="1" stroke-linejoin="round" stroke-linecap="round" fill="none" d="M3.7 3.95Q3.9 2.65 5 2.1M2.7 14.9q.3-4.25 2.7-5.8"/><path id="k" stroke="#FFF" stroke-width="1" stroke-linejoin="round" stroke-linecap="round" fill="none" d="M3.7 3.95Q3.9 2.65 5 2.1M2.7 14.9q.3-4.25 2.7-5.8"/><path id="n" stroke="#FFF" stroke-width="1" stroke-linejoin="round" stroke-linecap="round" fill="none" d="M3.7 3.95Q3.9 2.65 5 2.1M2.7 14.9q.3-4.25 2.7-5.8"/></defs><use xlink:href="#c" transform="matrix(1.68957 0 0 1.6904 10.453 .878)"/><g transform="matrix(1.68957 0 0 1.6904 10.453 .878)"><use xlink:href="#d"/><use xlink:href="#e"/></g><use xlink:href="#f" transform="matrix(1.68957 0 0 1.6904 3.328 5.812)"/><g transform="matrix(1.68957 0 0 1.6904 3.328 5.812)"><use xlink:href="#g"/><use xlink:href="#h"/></g><g><use xlink:href="#i" transform="matrix(1.68957 0 0 1.6904 17.714 5.812)"/><g transform="matrix(1.68957 0 0 1.6904 17.714 5.812)"><use xlink:href="#j"/><use xlink:href="#k"/></g></g><g><use xlink:href="#l" transform="matrix(1.68957 0 0 1.6904 10.453 10.405)"/><g transform="matrix(1.68957 0 0 1.6904 10.453 10.405)"><use xlink:href="#m"/><use xlink:href="#n"/></g></g></svg>
