<svg xmlns="http://www.w3.org/2000/svg" xmlns:xlink="http://www.w3.org/1999/xlink" preserveAspectRatio="none" width="40" height="40"><defs><path fill="red" d="M30.65 12.15q-.89-4.29-4.2-7.6Q22.712.812 17.7.15 16.642 0 15.5 0 9.1 0 4.55 4.55 0 9.1 0 15.5q0 1.143.15 2.2.664 5.014 4.4 8.75.528.528 1.05 1 .08.046.1.1 3.302 2.69 7.4 3.25 1.179.2 2.4.2 6.4 0 10.95-4.55Q31 21.9 31 15.5q0-1.746-.35-3.35m-3.75 3.3q0 4.75-3.35 8.1-3.35 3.35-8.1 3.35-.467 0-.95-.05-1.853-.116-3.5-.85-.06.004-.15-.05-.28-.098-.6-.25-.768-.407-1.5-.95l16-16q1.699 2.29 2.05 5.15.1.755.1 1.55M15.45 4h.6q3.21.162 5.75 1.9L5.9 21.8Q4.164 19.263 4 16.05v-.6q0-4.75 3.35-8.1Q10.7 4 15.45 4z" id="a"/><path id="b" stroke="#333" stroke-opacity=".451" stroke-width="1" stroke-linejoin="round" stroke-linecap="round" fill="none" d="M13.125 30.825Q14.279 31 15.5 31q6.4 0 10.95-4.55Q31 21.9 31 15.5q0-1.746-.35-3.35-.89-4.29-4.2-7.6Q22.712.812 17.725.15 16.642 0 15.5 0 9.1 0 4.55 4.55 0 9.1 0 15.5q0 1.143.15 2.225.664 4.989 4.4 8.725.528.528 1.075 1 .055.046.1.1 3.277 2.69 7.4 3.275zm1.4-3.95q.458.025.925.025 4.75 0 8.1-3.35 3.35-3.35 3.35-8.1 0-.795-.1-1.55-.351-2.86-2.05-5.15l-16 16q.732.543 1.525.95.295.152.6.275.066.03.125.05 1.647.709 3.525.85zm1.525-22.85Q15.756 4 15.45 4q-4.75 0-8.1 3.35Q4 10.7 4 15.45q0 .306.025.6.14 3.213 1.875 5.75L21.8 5.9q-2.54-1.738-5.75-1.875z"/></defs><g transform="matrix(-.85081 0 0 .85081 33.35 7.85)"><use xlink:href="#a"/><use xlink:href="#b"/></g></svg>
