<svg xmlns="http://www.w3.org/2000/svg" xmlns:xlink="http://www.w3.org/1999/xlink" preserveAspectRatio="none" width="40" height="40"><defs><g id="a"><path fill="red" d="M2.55 7.1V5.65l-5.7-4.6 1.9-8.75q-3.3-3.95-7.95-1.45Q-21.6.3-.3 10.95L2.55 7.1M-12.5-3.95q3.55-5.6 8.85-2.8-5.3-2.8-8.85 2.8M12.65-9.3q-.8-.95-1.9-1.65-1.3-.85-3.15-1.35-5.3.1-6.55 5.3L.1-.75 6.4 3.9q4.85-5.3 6.25-13.2m-9.7 1.4q3.4-4.4 8.55-1.85Q6.35-12.3 2.95-7.9z"/><path fill="#C20303" d="M2.55 12.3V7.1L-.3 10.95q1.35.65 2.85 1.35M6.4 3.9L5.1 8.7q11.7-12.55 7.55-18-1.4 7.9-6.25 13.2z"/></g><path id="b" stroke="#FFF" stroke-opacity=".651" stroke-width="1" stroke-linejoin="round" stroke-linecap="round" fill="none" d="M2.95-7.9q3.4-4.4 8.55-1.85m-24 5.8q3.55-5.6 8.85-2.8"/><path id="c" stroke="#333" stroke-opacity=".451" stroke-width="1" stroke-linejoin="round" stroke-linecap="round" fill="none" d="M6.4 3.9L.1-.75 1.05-7q1.25-5.2 6.55-5.3 1.85.5 3.15 1.35 1.1.7 1.9 1.65 4.15 5.45-7.55 18l1.3-4.8zM2.55 7.1v5.2q-1.5-.7-2.85-1.35Q-21.6.3-9.2-9.15q4.65-2.5 7.95 1.45l-1.9 8.75 5.7 4.6V7.1z"/></defs><g transform="translate(20.25 22.45)"><use xlink:href="#a"/><use xlink:href="#b"/><use xlink:href="#c"/></g></svg>
