<svg xmlns="http://www.w3.org/2000/svg" xmlns:xlink="http://www.w3.org/1999/xlink" preserveAspectRatio="none" width="20" height="20"><defs><path id="b" stroke="#444" stroke-opacity=".451" stroke-width="4" stroke-linejoin="round" stroke-linecap="round" fill="none" d="M7.35 132.4q3.9 2.45 9.7 2.45 11.65-.2 45.45-33.35Q67 97 90.15 96.9h8.1q23.15.1 27.65 4.6 33.8 33.15 45.45 33.35 18.7.05 16.9-24.95-7.45-54.3-19.1-81.8M7.35 132.4q-8.45-5.3-7.2-22.5 12.9-93.95 38.4-107.65 13.1-6 32.2 4.1 10.8 4.8 23.8 4.1 12.3.7 23.1-4.1 19.1-10.1 32.2-4.1 10.8 5.75 19.3 25.85"/><g id="a"><path fill="#900" d="M119.95 44.3q-2.25-2.2-5.4-2.2-3.15 0-5.4 2.2-2.2 2.25-2.2 5.4 0 2.75 1.75 4.85.2.25.45.55 2.25 2.2 5.4 2.2 3.15 0 5.4-2.2 2.2-2.25 2.2-5.4 0-1.25-.3-2.3-.55-1.7-1.9-3.1z"/><path fill="#FFF" d="M114.55 42.1q3.15 0 5.4 2.2 1.35 1.4 1.9 3.1 24.1-12.4 47.3-19.3-8.5-20.1-19.3-25.85-13.1-6-32.2 4.1-10.8 4.8-23.1 4.1-13 .7-23.8-4.1-19.1-10.1-32.2-4.1Q13.05 15.95.15 109.9q-1.25 17.2 7.2 22.5 52.5-50 101.35-77.85-1.75-2.1-1.75-4.85 0-3.15 2.2-5.4 2.25-2.2 5.4-2.2m25.65-10.8q0 3.15-2.2 5.4-2.25 2.25-5.4 2.25-3.15 0-5.4-2.25-2.2-2.25-2.2-5.4 0-3.15 2.2-5.35 2.25-2.25 5.4-2.25 3.15 0 5.4 2.25 2.2 2.2 2.2 5.35m-83.6-7.4q10.9 0 18.55 7.65 7.7 7.7 7.7 18.6 0 10.9-7.7 18.6Q67.5 76.4 56.6 76.4T38 68.75q-7.65-7.7-7.65-18.6 0-10.9 7.65-18.6 7.7-7.65 18.6-7.65z"/><path fill="#666" d="M75.15 31.55Q67.5 23.9 56.6 23.9T38 31.55q-7.65 7.7-7.65 18.6 0 10.9 7.65 18.6 7.7 7.65 18.6 7.65 10.9 0 18.55-7.65 7.7-7.7 7.7-18.6 0-10.9-7.7-18.6m-18.55.5q7.55 0 12.8 5.3 5.3 5.3 5.3 12.8 0 7.55-5.3 12.85-5.25 5.35-12.8 5.35-7.55 0-12.8-5.35-5.35-5.3-5.35-12.85 0-7.5 5.35-12.8 5.25-5.3 12.8-5.3z"/><path fill="#999" d="M69.4 37.35q-5.25-5.3-12.8-5.3-7.55 0-12.8 5.3-5.35 5.3-5.35 12.8 0 7.55 5.35 12.85 5.25 5.35 12.8 5.35 7.55 0 12.8-5.35 5.3-5.3 5.3-12.85 0-7.5-5.3-12.8z"/><path fill="#FC0" d="M138 36.7q2.2-2.25 2.2-5.4 0-3.15-2.2-5.35-2.25-2.25-5.4-2.25-3.15 0-5.4 2.25-2.2 2.2-2.2 5.35 0 3.15 2.2 5.4 2.25 2.25 5.4 2.25 3.15 0 5.4-2.25z"/><path fill="#CBCBCB" d="M171.35 134.85q18.7.05 16.9-24.95-7.45-54.3-19.1-81.8-23.2 6.9-47.3 19.3.3 1.05.3 2.3 0 3.15-2.2 5.4-2.25 2.2-5.4 2.2-3.15 0-5.4-2.2-.25-.3-.45-.55Q59.85 82.4 7.35 132.4q3.9 2.45 9.7 2.45 11.65-.2 45.45-33.35Q67 97 90.15 96.9h8.1q23.15.1 27.65 4.6 33.8 33.15 45.45 33.35m-20.5-92.75q3.15 0 5.4 2.2 2.2 2.25 2.2 5.4 0 3.15-2.2 5.4-2.25 2.2-5.4 2.2-3.15 0-5.4-2.2-2.2-2.25-2.2-5.4 0-3.15 2.2-5.4 2.25-2.2 5.4-2.2M127.2 61.45q2.25-2.25 5.4-2.25 3.15 0 5.4 2.25 2.2 2.2 2.2 5.4 0 3.15-2.2 5.35-2.25 2.25-5.4 2.25-3.15 0-5.4-2.25-2.2-2.2-2.2-5.35 0-3.2 2.2-5.4z"/><path fill="#090" d="M132.6 59.2q-3.15 0-5.4 2.25-2.2 2.2-2.2 5.4 0 3.15 2.2 5.35 2.25 2.25 5.4 2.25 3.15 0 5.4-2.25 2.2-2.2 2.2-5.35 0-3.2-2.2-5.4-2.25-2.25-5.4-2.25z"/><path fill="#03F" d="M156.25 44.3q-2.25-2.2-5.4-2.2-3.15 0-5.4 2.2-2.2 2.25-2.2 5.4 0 3.15 2.2 5.4 2.25 2.2 5.4 2.2 3.15 0 5.4-2.2 2.2-2.25 2.2-5.4 0-3.15-2.2-5.4z"/></g></defs><g transform="matrix(.1 0 0 .1 .55 3.2)"><use xlink:href="#a"/><use xlink:href="#b"/></g></svg>