<svg xmlns="http://www.w3.org/2000/svg" xmlns:xlink="http://www.w3.org/1999/xlink" preserveAspectRatio="none" width="40" height="40"><defs><g id="a"><path fill="#C20303" d="M.95 10.4q1.45.55 3.05 1.3 13.45-17 6.05-21.65Q10 3.1.95 10.4z"/><path fill="red" d="M10.05-9.95Q7.9-11.35 3.9-11.7q-4.45.55-4.75 4.8-3.2-3.7-7.4-1.45Q-20.5 1 .95 10.4 10 3.1 10.05-9.95m-9.1 2.5Q4-11.35 8.6-9.1 4-11.35.95-7.45m-11.5 3.1q3.05-4.8 7.6-2.45-4.55-2.35-7.6 2.45z"/></g><path id="b" stroke="#333" stroke-opacity=".451" stroke-width="1" stroke-linejoin="round" stroke-linecap="round" fill="none" d="M.95 10.4Q-20.5 1-8.25-8.35q4.2-2.25 7.4 1.45.3-4.25 4.75-4.8 4 .35 6.15 1.75Q17.45-5.3 4 11.7q-1.6-.75-3.05-1.3z"/><path id="c" stroke="#FFF" stroke-opacity=".651" stroke-width="1" stroke-linejoin="round" stroke-linecap="round" fill="none" d="M.95-7.45Q4-11.35 8.6-9.1m-19.15 4.75q3.05-4.8 7.6-2.45"/></defs><g transform="translate(19.3 22)"><use xlink:href="#a"/><use xlink:href="#b"/><use xlink:href="#c"/></g></svg>
