<svg xmlns="http://www.w3.org/2000/svg" xmlns:xlink="http://www.w3.org/1999/xlink" preserveAspectRatio="none" width="40" height="40"><defs><linearGradient id="a" gradientUnits="userSpaceOnUse" x1="0" y1="9.1" x2="9.2" y2="9.1" spreadMethod="pad"><stop offset=".784%" stop-color="#FFF"/><stop offset="51.765%" stop-color="#F90"/><stop offset="100%" stop-color="#FFF"/></linearGradient><filter id="i" x="-20%" y="-20%" width="140%" height="140%" color-interpolation-filters="sRGB"><feColorMatrix in="SourceGraphic" values="1 0 0 0 0 0 1 0 0 0 0 0 1 0 0 0 0 0 0 0" result="result1"/></filter><path fill="#09F" d="M15.3-12.55q0-6-5.6-10.35-5.5-4.2-13.4-4.2-.85 0-2 .1-6.45.45-11.4 4.1-5.6 4.35-5.6 10.35 0 6.2 5.6 10.4 1.6 1.2 3.25 2.15-.5 4.2-5.35 8.3 7.05-1.05 12-6.3 1.7.2 3.5.2 7.9 0 13.4-4.35 2-1.45 3.3-3.35 2.3-3.15 2.3-7.05z" id="b"/><path fill="url(#a)" d="M0 12h9.2V6.25H0V12z" id="f"/><path fill="#0F0" d="M8.2 0H0v4.75h8.2V0z" id="j"/><path id="c" stroke="#FFF" stroke-opacity=".451" stroke-width="1" stroke-linejoin="round" stroke-linecap="round" fill="none" d="M9.05-18.55q-12.95-9.8-25.65-.25"/><path id="d" stroke="#333" stroke-opacity=".451" stroke-width="1" stroke-linejoin="round" stroke-linecap="round" fill="none" d="M9.7-22.9q-5.5-4.2-13.4-4.2-.85 0-2 .1-6.45.45-11.4 4.1-5.6 4.35-5.6 10.35 0 6.2 5.6 10.4 1.6 1.2 3.25 2.15-.5 4.2-5.35 8.3 7.05-1.05 12-6.3 1.7.2 3.5.2 7.9 0 13.4-4.35 2-1.45 3.3-3.35 2.3-3.15 2.3-7.05 0-6-5.6-10.35z"/><path id="e" stroke="#666" stroke-width="2" stroke-linejoin="round" stroke-linecap="round" fill="none" d="M.9 6.425v-2.4q.003-1.526 1.075-2.6Q3.038.337 4.55.325q1.524.012 2.6 1.1 1.072 1.074 1.075 2.6.018.34.05 2.4"/><path id="g" stroke="#F90" stroke-width="1" stroke-linejoin="round" stroke-linecap="round" fill="none" d="M0 9.125h9.2"/><path id="h" stroke="#FFF" stroke-width="1" stroke-linejoin="round" stroke-linecap="round" fill="none" d="M.9 3q.17-1.095.975-1.925Q2.951 0 4.475 0q.71 0 1.325.225"/><path id="k" stroke="#484848" stroke-width="1" stroke-linejoin="round" stroke-linecap="round" fill="none" d="M9.2 6.25V12H0V6.25h9.2z"/></defs><use xlink:href="#b" transform="matrix(.80142 0 0 .76527 23.3 28.55)"/><g transform="matrix(.80142 0 0 .76527 23.3 28.55)"><use xlink:href="#c"/><use xlink:href="#d"/></g><g><use xlink:href="#e" transform="matrix(.96431 0 0 .96431 15.9 12.35)"/><use xlink:href="#f" transform="matrix(.96431 0 0 .96431 15.9 12.35)"/><g transform="matrix(.96431 0 0 .96431 15.9 12.35)"><use xlink:href="#g"/><use xlink:href="#h"/></g><use filter="url(#i)" xlink:href="#j" transform="matrix(1.09624 0 0 1.16948 15.804 18.377)"/><use xlink:href="#k" transform="matrix(.96431 0 0 .96431 15.9 12.35)"/></g></svg>
