<svg xmlns="http://www.w3.org/2000/svg" xmlns:xlink="http://www.w3.org/1999/xlink" preserveAspectRatio="none" width="40" height="40"><defs><path fill="#09F" d="M15.3-12.55q0-6-5.6-10.35-5.5-4.2-13.4-4.2-.85 0-2 .1-6.45.45-11.4 4.1-5.6 4.35-5.6 10.35 0 6.2 5.6 10.4 1.6 1.2 3.25 2.15-.5 4.2-5.35 8.3 7.05-1.05 12-6.3 1.7.2 3.5.2 7.9 0 13.4-4.35 2-1.45 3.3-3.35 2.3-3.15 2.3-7.05z" id="a"/><path fill="#FC0" d="M15.3-12.55q0-6-5.6-10.35-5.5-4.2-13.4-4.2-.85 0-2 .1-6.45.45-11.4 4.1-5.6 4.35-5.6 10.35 0 6.2 5.6 10.4 1.6 1.2 3.25 2.15-.5 4.2-5.35 8.3 7.05-1.05 12-6.3 1.7.2 3.5.2 7.9 0 13.4-4.35 2-1.45 3.3-3.35 2.3-3.15 2.3-7.05z" id="d"/><path id="b" stroke="#FFF" stroke-opacity=".451" stroke-width="1" stroke-linejoin="round" stroke-linecap="round" fill="none" d="M9.05-18.55q-12.95-9.8-25.65-.25"/><path id="c" stroke="#333" stroke-opacity=".451" stroke-width="1" stroke-linejoin="round" stroke-linecap="round" fill="none" d="M9.7-22.9q-5.5-4.2-13.4-4.2-.85 0-2 .1-6.45.45-11.4 4.1-5.6 4.35-5.6 10.35 0 6.2 5.6 10.4 1.6 1.2 3.25 2.15-.5 4.2-5.35 8.3 7.05-1.05 12-6.3 1.7.2 3.5.2 7.9 0 13.4-4.35 2-1.45 3.3-3.35 2.3-3.15 2.3-7.05 0-6-5.6-10.35z"/><path id="e" stroke="#FFF" stroke-opacity=".451" stroke-width="1" stroke-linejoin="round" stroke-linecap="round" fill="none" d="M9.05-18.55q-12.95-9.8-25.65-.25"/><path id="f" stroke="#333" stroke-opacity=".451" stroke-width="1" stroke-linejoin="round" stroke-linecap="round" fill="none" d="M9.7-22.9q-5.5-4.2-13.4-4.2-.85 0-2 .1-6.45.45-11.4 4.1-5.6 4.35-5.6 10.35 0 6.2 5.6 10.4 1.6 1.2 3.25 2.15-.5 4.2-5.35 8.3 7.05-1.05 12-6.3 1.7.2 3.5.2 7.9 0 13.4-4.35 2-1.45 3.3-3.35 2.3-3.15 2.3-7.05 0-6-5.6-10.35z"/></defs><use xlink:href="#a" transform="matrix(.60487 0 0 .60487 15.9 22.85)"/><g transform="matrix(.60487 0 0 .60487 15.9 22.85)"><use xlink:href="#b"/><use xlink:href="#c"/></g><g><use xlink:href="#d" transform="matrix(-.53891 0 0 .53891 25.9 28.1)"/><g transform="matrix(-.53891 0 0 .53891 25.9 28.1)"><use xlink:href="#e"/><use xlink:href="#f"/></g></g></svg>
