<svg xmlns="http://www.w3.org/2000/svg" xmlns:xlink="http://www.w3.org/1999/xlink" preserveAspectRatio="none" width="20" height="20"><defs><radialGradient id="a" gradientUnits="userSpaceOnUse" cx="0" cy="0" r="9.668" fx="0" fy="0" gradientTransform="matrix(.48356 -.87531 .51459 .28186 2.65 5.3)" spreadMethod="pad"><stop offset="0%" stop-opacity=".412"/><stop offset="100%" stop-color="#013198" stop-opacity="0"/></radialGradient><radialGradient id="b" gradientUnits="userSpaceOnUse" cx="0" cy="0" r="5.021" fx="0" fy="0" gradientTransform="matrix(.77672 -.62984 .4008 .49292 1.4 -3.35)" spreadMethod="pad"><stop offset="0%" stop-opacity=".424"/><stop offset="100%" stop-color="#013198" stop-opacity="0"/></radialGradient><g id="c"><path fill="#C6C6C6" d="M-88.4 61.05q0 7.35 7.35 7.35H82.1q6.85 0 6.85-7.35V4.2Q-10.55-11.05-88.4 35.25v25.8z"/><path fill="#FFF" d="M93.15-35.8q0-7.35-7.35-7.35H-85.25q-7.4 0-7.4 7.35v73.15Q-11.05-12.1 93.15 4.2v-40z"/></g><path fill="#BBB" d="M22.1-54.75q-3.7-7.9-22.1-7.9-14.75 0-18.4 7.9-3.7 8.45-8.95 11.6-1.6.5-2.65 1.05h63.7q-1.05-.55-2.1-1.05-5.8-3.15-9.5-11.6m-7.9 0q1.05 1.05 1.05 2.65 0 1.55-1.05 2.65-.5 1.05-2.1 1.05H-10q-1.6 0-2.65-1.05-1.05-1.1-1.05-2.65 0-1.6 1.05-2.65Q-11.6-55.8-10-55.8h22.1q1.6 0 2.1 1.05z" id="d"/><path fill="#090" d="M8.3 3.4q-.003-1.407-1-2.4-.993-.996-2.4-1-1.407.004-2.4 1-.998.993-1 2.4.002 1.407 1 2.4.993.984 2.4.95-1.661.183-3.2 2.35-1.762 2.507-1.7 5.75.025 1.063 5.15 1.15 5.116.083 5.05-.95-.189-3.326-1.75-5.85-1.453-2.424-3.3-2.45 1.254-.06 2.15-.95.997-.993 1-2.4z" id="g"/><g id="h"><path fill="url(#a)" d="M-.05-1.2H-.1q-1.65.15-3.2 2.35Q-5.05 3.6-5 6.9q.05 1 5.15 1.1 5.1.1 5.05-.95Q5 3.7 3.5 1.25 2-1.2.2-1.2h-.25M-2.8 6.4Q-2.5 2.15-.1.6q-2.4 1.55-2.7 5.8z"/><path fill="url(#b)" d="M.2-1.2q1.2-.1 2.1-1 1-1 1-2.4T2.3-7q-1-1-2.4-1t-2.4 1q-1 1-1 2.4t1 2.4q1 1 2.4 1h.3m-2-3.35q.2-1.3 1.3-1.85-1.1.55-1.3 1.85z"/></g><path id="e" stroke="#000" stroke-opacity=".647" stroke-width="4" stroke-linejoin="round" stroke-linecap="round" fill="none" d="M-27.35-43.15q5.25-3.15 8.95-11.6 3.65-7.9 18.4-7.9 18.4 0 22.1 7.9 3.7 8.45 9.5 11.6L50-42.1h35.8q7.35 0 7.35 7.35V62.1q0 7.35-7.35 7.35H-85.25q-7.4 0-7.4-7.35v-96.85q0-7.35 7.4-7.35h44.7l13.2-1.05q-1.6.5-2.65 1.05m2.65 0H31.6m0-1.05q1.05.5 2.1 1.05H50m-90.55 0H-30m20 0V69.45"/><path id="f" stroke="#000" stroke-opacity=".647" stroke-width="8" stroke-linejoin="round" stroke-linecap="round" fill="none" d="M4.75 4.2h72.6M4.75 23.7h72.6"/><path id="i" stroke="#000" stroke-opacity=".651" stroke-width=".05" stroke-linejoin="round" stroke-linecap="round" fill="none" d="M-.1-1.2q-1.4 0-2.4-1t-1-2.4q0-1.4 1-2.4t2.4-1q1.4 0 2.4 1t1 2.4q0 1.4-1 2.4-.9.9-2.1 1 1.8 0 3.3 2.45Q5 3.7 5.2 7.05 5.25 8.1.15 8-4.95 7.9-5 6.9q-.05-3.3 1.7-5.75 1.55-2.2 3.2-2.35z"/><path id="j" stroke="#FFF" stroke-width="1" stroke-linejoin="round" stroke-linecap="round" fill="none" d="M-1.8-4.55q.2-1.3 1.3-1.85M-2.8 6.4Q-2.5 2.15-.1.6"/><path id="k" stroke="#000" stroke-width=".05" stroke-linejoin="round" stroke-linecap="round" fill="none" d="M-.05-1.2H-.1"/></defs><use xlink:href="#c" transform="matrix(.1 0 0 .1 9.95 9.65)"/><g transform="matrix(.1 0 0 .1 9.95 9.65)"><use xlink:href="#d"/><use xlink:href="#e"/></g><use xlink:href="#f" transform="matrix(.1 0 0 .1 9.95 9.65)"/><use xlink:href="#g" transform="matrix(.46487 0 0 .46487 2.466 7.191)"/><g transform="matrix(.46487 0 0 .46487 4.79 10.91)"><use xlink:href="#h"/><use xlink:href="#i"/><use xlink:href="#j"/><use xlink:href="#k"/></g></svg>