<svg xmlns="http://www.w3.org/2000/svg" width="18" height="18"><style>.st0{fill:#ccc}.st1{fill:none;stroke:#666;stroke-width:.2915;stroke-miterlimit:10}</style><linearGradient id="SVGID_1_" gradientUnits="userSpaceOnUse" x1="0" y1="0" x2="0" y2="-1"><stop offset="0" stop-color="#656565"/><stop offset=".618" stop-color="#1b1b1b"/><stop offset=".629" stop-color="#545454"/><stop offset=".983" stop-color="#3e3e3e"/></linearGradient><g id="Capa_2"><g id="XMLID_1_"><path class="st0" d="M16.434 7.495v3.061l-1.358.095-.579 1.41.917 1.271-2.041 2.041-1.159-.977-1.557.588v1.505l-3.26.095v-1.505l-1.453-.726-1.124 1.063-1.989-1.989.925-1.167-.631-1.557-1.557-.095-.051-3.009 1.608-.147.631-1.557-.924-1.167 2.041-1.989.969 1.02 1.461-.631.242-1.461h2.914l.199 1.314 1.41.631 1.306-.873 2.041 2.179-.875 1.072.536 1.314 1.358.191zm-3.061 1.678a4.346 4.346 0 1 0-8.691 0 4.347 4.347 0 0 0 8.691 0z"/><path class="st0" d="M9.032 4.823c2.395 0 4.341 1.946 4.341 4.35a4.346 4.346 0 1 1-8.691 0 4.348 4.348 0 0 1 4.35-4.35zm3.035 4.324c0-1.634-1.332-2.957-2.966-2.957S6.135 7.512 6.135 9.147a2.965 2.965 0 1 0 5.932 0z"/><g><path class="st1" d="M12.067 9.147a2.965 2.965 0 1 1-5.932 0c0-1.634 1.332-2.957 2.966-2.957s2.966 1.322 2.966 2.957z"/><path d="M13.373 9.173a4.346 4.346 0 1 1-8.691 0 4.346 4.346 0 0 1 8.691 0z" fill="none" stroke="gray" stroke-width=".291" stroke-miterlimit="10"/><path class="st1" d="M7.302 3.128l.242-1.461h2.915l.198 1.314 1.41.631 1.306-.873 2.04 2.179-.873 1.072.536 1.315 1.358.19v3.061l-1.358.095-.579 1.41.916 1.271-2.04 2.041-1.159-.977-1.557.588v1.504l-3.26.095v-1.504l-1.452-.727-1.125 1.064-1.988-1.989.925-1.167-.631-1.557-1.557-.095-.052-3.009 1.609-.147.631-1.557-.925-1.167 2.04-1.989.969 1.02z"/></g></g></g></svg>