<svg xmlns="http://www.w3.org/2000/svg" xmlns:xlink="http://www.w3.org/1999/xlink" preserveAspectRatio="none" width="19" height="19"><defs><path fill="#E5BB00" d="M27.3 64.4l9.6-2.25-1.25-49.5h-47l-.2 31.75-1.8 18 40.65 2z" id="b"/><path fill-opacity=".247" d="M36.9 62.1l-7.25-5.7-.55-42.5-1.8 50.5 9.6-2.25v-.05z" id="c"/><path fill-opacity=".647" d="M-1.65 22.8q.05-1.25-.8-2.2-.85-.9-2.1-.95-1.25-.05-2.15.8-.9.85-.95 2.1-.05 1.25.75 2.15.9.9 2.15.95 1.25.05 2.1-.8.95-.8 1-2.05m26.65 1q.05-1.25-.85-2.15-.85-.9-2.1-.95-1.25-.05-2.15.75-.9.9-.95 2.15-.05 1.25.75 2.1.9.95 2.15 1 1.25.05 2.1-.8 1-.85 1.05-2.1z" id="e"/><path id="a" stroke="#FFF" stroke-width="2.5" stroke-linejoin="round" stroke-linecap="round" fill="none" d="M22.05 21.35v-7.9m3.7.55q.2-5.9-3.5-10.2Q18.5-.55 13-.75 7.35-1 3.2 3.05q-4.05 4-4.25 9.9m-3.7.5v7.9"/><path id="d" stroke="#333" stroke-opacity=".647" stroke-width="1" stroke-linejoin="round" stroke-linecap="round" fill="none" d="M29.15 12.65h6.5l1.25 49.5-9.6 2.25-40.65-2 1.8-18 .2-31.75h40.5L27.3 64.4"/><path id="f" stroke="#FFF" stroke-width="2.5" stroke-linejoin="round" stroke-linecap="butt" fill="none" d="M22.05 26.6l-.3 7.9q-.2 5.85-4.25 9.85-4.1 4.05-9.6 3.85-5.65-.25-9.45-4.6-3.7-4.3-3.5-10.15l.3-7.9"/></defs><use xlink:href="#a" transform="matrix(.27463 0 0 .27463 6.25 .75)"/><use xlink:href="#b" transform="matrix(.27463 0 0 .27463 6.25 .75)"/><use xlink:href="#c" transform="matrix(.27463 0 0 .27463 6.25 .75)"/><use xlink:href="#d" transform="matrix(.27463 0 0 .27463 6.25 .75)"/><use xlink:href="#e" transform="matrix(.27463 0 0 .27463 6.25 .75)"/><use xlink:href="#f" transform="matrix(.27463 0 0 .27463 6.25 .75)"/></svg>