<svg xmlns="http://www.w3.org/2000/svg" xmlns:xlink="http://www.w3.org/1999/xlink" preserveAspectRatio="none" width="40" height="40"><defs><path fill="red" d="M7.5-3.9q-.35.35-.35.8V0H-13.8q-.15-.85-.15-1.2 0-1.35.95-2.35.9-.85 2.05-.95h3.6q-.15-1.05-.5-1.45-.65-.65-1.35-1-.2-.15-.45-.2-1-.4-2.1-.4h-.35q-2.05.1-3.55 1.6-1.6 1.6-1.6 3.9 0 .5.15 1.2.25 1.6 1.5 2.85 1.1 1.15 2.6 1.5H7.15v2.8q0 .4.35.8.3.35.75.4.4.1.85-.15l7.6-4.65q.35-.3.5-.65.1-.45 0-.8-.15-.45-.5-.65L9.1-4.2q-.45-.25-.85-.2-.45.1-.75.5z" id="a"/><path id="b" stroke="#333" stroke-opacity=".451" stroke-width="1" stroke-linejoin="round" stroke-linecap="round" fill="none" d="M7.15 6.3q0 .4.35.8.3.35.75.4.4.1.85-.15l7.6-4.65q.35-.3.5-.65.1-.45 0-.8-.15-.45-.5-.65L9.1-4.2q-.45-.25-.85-.2-.45.1-.75.5-.35.35-.35.8V0H-13.8q-.15-.85-.15-1.2 0-1.35.95-2.35.9-.85 2.05-.95h3.6q-.15-1.05-.5-1.45-.65-.65-1.35-1-.2-.15-.45-.2-1-.4-2.1-.4h-.35q-2.05.1-3.55 1.6-1.6 1.6-1.6 3.9 0 .5.15 1.2.25 1.6 1.5 2.85 1.1 1.15 2.6 1.5H7.15v2.8z"/></defs><g transform="translate(20.15 22.95)"><use xlink:href="#a"/><use xlink:href="#b"/></g></svg>
