<svg xmlns="http://www.w3.org/2000/svg" xmlns:xlink="http://www.w3.org/1999/xlink" preserveAspectRatio="none" width="40" height="40"><defs><path fill="#00820B" d="M10.7-10.35l-.5-.45h-.9l-.45-.45v-.45l-.9-1.35Q4.35-9.9-.6-4.45-2.85-7.6-5.1-10.8l-.4-.45q-.9 0-1.35.9v.45q-.45 0-.45-.45-.45 0-.45-.45-.4.9-1.4 1.8 1 3.65 4.05 9.4-3.6 4.15-5.8 7.25 0 .4.4.85.45.9 0 .9-.4.45 0 .9 0 .4.9 1.45H-8.15q-.55.45 0 .9.4 0 .4.45.45 0 .9-.9Q-5.5 9.85-2 5.4q3.25 4.45 4.15 5.3.4.55.85 0 .45-.4.9-.85.45-.45.45 0t.4.45q.45.4.45 0l.9-.9q-.45-.45 0-.45 0-.45.45-.45T7 8.05q.45-.4.95-.9 0-.4-.5-.9-1.8-2.2-4.9-6.25 4.9-5.85 7.65-8.5V-9l.5-.4q.45-.5 0-.95z" id="a"/><path id="b" stroke="#333" stroke-opacity=".451" stroke-width="1" stroke-linejoin="round" stroke-linecap="round" fill="none" d="M10.7-10.35q.45.45 0 .95l-.5.4v.5Q7.45-5.85 2.55 0q3.1 4.05 4.9 6.25.5.5.5.9-.5.5-.95.9 0 .45-.45.45t-.45.45q-.45 0 0 .45l-.9.9q0 .4-.45 0-.4 0-.4-.45t-.45 0q-.45.45-.9.85-.45.55-.85 0-.9-.85-4.15-5.3-3.5 4.45-4.85 6.8-.45.9-.9.9 0-.45-.4-.45-.55-.45 0-.9H-9.6q-.9-1.05-.9-1.45-.4-.45 0-.9.45 0 0-.9-.4-.45-.4-.85Q-8.7 4.55-5.1.4-8.15-5.35-9.15-9q1-.9 1.4-1.8 0 .45.45.45 0 .45.45.45v-.45q.45-.9 1.35-.9l.4.45q2.25 3.2 4.5 6.35 4.95-5.45 8.55-8.6l.9 1.35v.45l.45.45h.9l.5.45z"/></defs><g transform="translate(20 20)"><use xlink:href="#a"/><use xlink:href="#b"/></g></svg>