<svg xmlns="http://www.w3.org/2000/svg" xmlns:xlink="http://www.w3.org/1999/xlink" preserveAspectRatio="none" width="40" height="40"><defs><path id="a" stroke="#FFF" stroke-width="1" stroke-linejoin="round" stroke-linecap="round" fill="none" d="M28.65 19.6v4.95h4.6v3.5h-4.6v5.15H25.5v-5.15h-4.65v-3.5h4.65V19.6h3.15zm-2.9 16.2q-2.1.25-5.75.1-8.45-.1-8.55-1.85-.05-5.65 2.8-9.8 2.6-3.8 5.3-4.05-2.35 0-3.95-1.7-1.65-1.7-1.65-4.05 0-2.4 1.65-4.15 1.6-1.7 3.95-1.7t3.95 1.7q1.65 1.75 1.65 4.15 0 2.35-1.65 4.05-1.5 1.5-3.45 1.7m-3.3-5.7q.35-2.2 2.15-3.2m-3.85 21.9q.55-7.3 4.5-9.95"/></defs><use xlink:href="#a"/></svg>