<svg xmlns="http://www.w3.org/2000/svg" xmlns:xlink="http://www.w3.org/1999/xlink" preserveAspectRatio="none" width="40" height="40"><defs><path fill="#FFF" d="M20.9 23.5q0 .7.55 1.2l2.8 2.8-2.85 2.95q-.55.5-.55 1.2t.55 1.25q.55.55 1.2.55.75 0 1.25-.55L26.8 30l1.7 1.75h.05v.05l1.1 1.1q.55.55 1.2.55.75 0 1.3-.55.5-.55.5-1.25t-.5-1.2L29.2 27.5l2.9-2.8q.5-.5.5-1.2t-.55-1.25q-.55-.55-1.25-.55t-1.2.5l-2.8 2.85-2.9-2.85q-.25-.25-.5-.3-.3-.2-.65-.2-.75 0-1.3.55t-.55 1.25z" id="a"/><path id="b" stroke="#FFF" stroke-width="1" stroke-linejoin="round" stroke-linecap="round" fill="none" d="M28.25 34.3q.05 1.85-8.3 1.65-8.4-.15-8.45-1.85-.1-5.6 2.75-9.75 2.55-3.75 5.25-4.05-2.3 0-3.9-1.7-1.65-1.7-1.65-4.05 0-2.4 1.65-4.1 1.6-1.7 3.9-1.7 2.35 0 3.9 1.7 1.65 1.7 1.65 4.1 0 2.35-1.65 4.05-1.45 1.6-3.4 1.7m-3.25-5.7q.3-2.2 2.15-3.15M15.1 33.2q.5-7.15 4.4-9.8"/></defs><g><use xlink:href="#a"/><use xlink:href="#b"/></g></svg>