<svg xmlns="http://www.w3.org/2000/svg" xmlns:xlink="http://www.w3.org/1999/xlink" preserveAspectRatio="none" width="19" height="19"><defs><radialGradient id="a" gradientUnits="userSpaceOnUse" cx="0" cy="0" r="10.6" fx="0" fy="0" gradientTransform="translate(8.5 8.2)" spreadMethod="pad"><stop offset="0%" stop-color="#FEDA18"/><stop offset="69.804%" stop-color="#FEDA18"/><stop offset="100%" stop-color="#BA9501"/></radialGradient><linearGradient id="b" gradientUnits="userSpaceOnUse" x1="9.35" y1="11.563" x2="9.35" y2="-2.263" spreadMethod="pad"><stop offset="20.392%" stop-color="#FFF" stop-opacity="0"/><stop offset="73.725%" stop-color="#FFF" stop-opacity=".949"/><stop offset="100%" stop-color="#FFF" stop-opacity=".651"/><stop offset="100%" stop-opacity=".251"/></linearGradient><path fill="url(#a)" d="M16.2 2.75q-.645-.641-1.35-1.15-2.354-1.631-5.4-1.65L8.7 0Q6.263.176 4.3 1.5q-.806.532-1.55 1.25l-.55.6Q-.021 5.976-.05 9.45q.03 3.938 2.8 6.7 2.812 2.82 6.7 2.8 3.95.02 6.75-2.8 2.783-2.762 2.75-6.7.033-3.9-2.75-6.7z" id="c"/><path fill="url(#b)" d="M16.95 8.55q.15-.65.15-1.45 0-2.65-2.25-4.55-2.3-1.9-5.5-1.9-3.15 0-5.5 1.9Q1.6 4.45 1.6 7.1q0 .9.25 1.6l15.1-.15z" id="d"/><path fill="#FFF" d="M4.7 15.45q1.95 2.25 4.7 2.2 3-.05 4.8-2.15 1.65-1.95 1.45-4.5-6.7 1.25-12.75.1 0 2.3 1.8 4.35m2.75-12.9q-.85-1.1-2-1.1-1.1 0-1.95 1.1-.85 1.1-.85 2.65 0 1.55.85 2.65.85 1.1 1.95 1.1 1.15 0 2-1.1.85-1.1.85-2.65 0-1.55-.85-2.65m5.35-1.1q-1.1 0-1.95 1.1Q10 3.65 10 5.2q0 1.55.85 2.65.85 1.1 1.95 1.1 1.15 0 2-1.1.85-1.1.85-2.65 0-1.55-.85-2.65-.85-1.1-2-1.1z" id="e"/><path d="M7.45 4.2q-.55-.55-1.4-.55-.85 0-1.45.55-.55.6-.55 1.45t.55 1.4q.6.6 1.45.6t1.4-.6q.6-.55.6-1.4 0-.85-.6-1.45m6.95 1.45q0-.85-.6-1.45-.55-.55-1.4-.55-.85 0-1.45.55-.55.6-.55 1.45t.55 1.4q.6.6 1.45.6t1.4-.6q.6-.55.6-1.4z" id="h"/><path id="f" stroke="#900" stroke-width="1" stroke-linejoin="round" stroke-linecap="round" fill="none" d="M4.7 15.45Q2.9 13.4 2.9 11.1q6.05 1.15 12.75-.1.2 2.55-1.45 4.5-1.8 2.1-4.8 2.15-2.75.05-4.7-2.2z"/><path id="g" stroke="#333" stroke-width="1" stroke-linejoin="round" stroke-linecap="round" fill="none" d="M12.8 1.45q1.15 0 2 1.1.85 1.1.85 2.65 0 1.55-.85 2.65-.85 1.1-2 1.1-1.1 0-1.95-1.1Q10 6.75 10 5.2q0-1.55.85-2.65.85-1.1 1.95-1.1zm-5.35 1.1q.85 1.1.85 2.65 0 1.55-.85 2.65-.85 1.1-2 1.1-1.1 0-1.95-1.1-.85-1.1-.85-2.65 0-1.55.85-2.65.85-1.1 1.95-1.1 1.15 0 2 1.1z"/></defs><use xlink:href="#c" transform="translate(0 .05)"/><use xlink:href="#d" transform="translate(0 .05)"/><g><use xlink:href="#e"/><use xlink:href="#f"/><use xlink:href="#g"/></g><g><use xlink:href="#h"/></g></svg>
