<svg xmlns="http://www.w3.org/2000/svg" preserveAspectRatio="none" width="25" height="25"><defs><linearGradient id="a" gradientUnits="userSpaceOnUse" x1="6.212" y1="15.8" x2="18.688" y2="15.8" spreadMethod="pad"><stop offset=".392%" stop-color="#555"/><stop offset="22.353%" stop-color="#FFF"/><stop offset="29.02%" stop-color="#FFF"/><stop offset="100%" stop-color="#373737"/></linearGradient><radialGradient id="b" gradientUnits="userSpaceOnUse" cx="0" cy="0" r="10.038" fx="0" fy="0" gradientTransform="matrix(1 0 0 1.00125 9.85 6.15)" spreadMethod="pad"><stop offset="16.471%" stop-color="#FFF"/><stop offset="100%" stop-color="#444"/></radialGradient><linearGradient id="c" gradientUnits="userSpaceOnUse" x1="1.95" y1="3.938" x2="-.75" y2="3.862" spreadMethod="pad"><stop offset="0%" stop-color="#FFF"/><stop offset="100%"/></linearGradient><linearGradient id="d" gradientUnits="userSpaceOnUse" x1="9.738" y1="2.375" x2="7.563" y2="-.275" spreadMethod="pad"><stop offset=".392%" stop-color="#404040"/><stop offset="38.039%" stop-color="#FFF"/><stop offset="100%" stop-color="#2F2F2F"/></linearGradient></defs><path fill="url(#a)" d="M17.45 9.55q-2.1.75-5.1.75-2.95 0-5.05-.75l-1-.4v11.1q-.1.1-.05.3-.05.8 1.8 1.4 1.8.65 4.35.65l4.35-.65q1.7-.55 1.8-1.4l.15-11.5-1.25.5z"/><path fill="url(#b)" d="M19.5 5.5q-2.55-2.05-5.05-2.6-1.95-.45-3.85 0-2.65.6-5.3 2.85L5.2 7.9q0 .7 1.1 1.25l1 .4q2.1.75 5.05.75 3 0 5.1-.75l1.25-.5q.8-.5.85-1.1L19.5 5.5z"/><path fill="url(#c)" d="M.85 0Q.4 0 .1.3q-.2 7.6 0 7.8.3.3.75.3t.75-.3q.2-.2 0-7.8Q1.3 0 .85 0z" transform="matrix(1.06273 0 0 1.0633 7.55 11.4)"/><path fill="url(#c)" d="M.85 0Q.4 0 .1.3q-.2 7.6 0 7.8.3.3.75.3t.75-.3q.2-.2 0-7.8Q1.3 0 .85 0z" transform="matrix(1.06273 0 0 1.0633 15.6 11.2)"/><path fill="url(#c)" d="M.85 0Q.4 0 .1.3q-.2 7.6 0 7.8.3.3.75.3t.75-.3q.2-.2 0-7.8Q1.3 0 .85 0z" transform="matrix(1.06273 0 0 1.0633 12.95 11.95)"/><path fill="url(#c)" d="M.85 0Q.4 0 .1.3q-.2 7.6 0 7.8.3.3.75.3t.75-.3q.2-.2 0-7.8Q1.3 0 .85 0z" transform="matrix(1.06273 0 0 1.0633 10.2 12)"/><path stroke="#999" stroke-linejoin="round" stroke-linecap="round" fill="none" d="M19.3 5.65q-.1.95-2 1.55l-4.75.75L7.7 7.2q-1.95-.65-1.95-1.55"/><path stroke="#333" stroke-linejoin="round" stroke-linecap="round" fill="none" d="M18.7 9.05q.8-.5.85-1.1L19.5 5.5q-7.2-5.75-14.2.25L5.2 7.9q0 .7 1.1 1.25l1 .4q2.1.75 5.05.75 3 0 5.1-.75l1.25-.5-.15 11.5q-.1.85-1.8 1.4-2.095.725-4.35.65-2.55 0-4.35-.65-1.495-.485-1.75-1.1V9.15"/><path fill="url(#d)" d="M7.9-.85q.5.2-.3.15l2.3.85q.9.55.95 2l1.4-.9q.05-1.45-.5-2l-1.35-.7-.8-.2-1.7.8z" transform="translate(3.15 3.25)"/><path stroke="#333" stroke-linejoin="round" stroke-linecap="round" fill="none" d="M10.75 2.55l2.3.85q.9.55.95 2l1.4-.9q.05-1.45-.5-2l-1.35-.7-.8-.2-1.7.8q.5.2-.3.15l.3-.15h-.3l-.1.05q-.55.15-.5 1.2l.7-.5"/></svg>
