<svg xmlns="http://www.w3.org/2000/svg" xmlns:xlink="http://www.w3.org/1999/xlink" preserveAspectRatio="none" width="23" height="23"><defs><path d="M10.7 10.15q.55-2.5.1-4.9-.5-2.65-2.35-4.15l-.5-.3Q7.15.35 6.4.25 3.35-.6 1.25 1.9-.396 3.846-.3 6.35q.138 2.512 1.95 3.8 1.816 1.334 4.5.15-.8 3.5-2.05 5.4-1.35 1.85-2.4 2.5 1.6.35 3.3-.4 1.65-.8 3.4-2.85 1.7-2.1 2.3-4.8z" id="a"/></defs><use xlink:href="#a" transform="matrix(.88268 0 0 .76646 .25 4.45)"/><use xlink:href="#a" transform="matrix(.88268 0 0 .76646 13.3 4.45)"/></svg>