<svg xmlns="http://www.w3.org/2000/svg" xmlns:xlink="http://www.w3.org/1999/xlink" preserveAspectRatio="none" width="23" height="23"><defs><path d="M-5.4 4.35q-.85-.6-2.35-.6h-2.8v8.55h3.3q1.45 0 2.3-.65.8-.6.8-1.85 0-.7-.4-1.25t-1.2-.7q.55-.25.85-.7.3-.45.3-1.05 0-1.15-.8-1.75m-3.45.75h1.1q.7 0 1.1.25.35.3.35.9 0 .55-.35.8-.4.3-1.05.3h-1.15V5.1m1.55 3.45q.75 0 1.1.3.35.35.35.95t-.4.9q-.35.3-1 .3h-1.6V8.55h1.55z" id="a"/></defs><use xlink:href="#a" transform="matrix(2.67836 0 0 2.67836 31.2 -10)"/></svg>