<svg xmlns="http://www.w3.org/2000/svg" xmlns:xlink="http://www.w3.org/1999/xlink" height="19" width="19" preserveAspectRatio="none"><defs><path id="a" d="M12.8 8.75Q15 7.249 15 5.1q0-2.136-2.2-3.65-2.2-1.472-5.3-1.5-3.1.028-5.3 1.5Q0 2.964 0 5.1q0 2.149 2.2 3.65.58.395 1.2.7-.152 1.477-2.05 2.9 2.738-.338 4.7-2.2.708.1 1.45.1 3.1-.003 5.3-1.5z" fill="#3c3"/></defs><use xlink:href="#a" transform="matrix(1.13332 0 0 1.26613 1 2)" style="font-variant-east_asian:normal" stroke="#4b4b4b" fill="none" stroke-width="1.67" stroke-linejoin="round"/><use xlink:href="#a" transform="matrix(1.13332 0 0 1.26613 1 2)" width="100%" height="100%"/></svg>
