<svg xmlns="http://www.w3.org/2000/svg" xmlns:xlink="http://www.w3.org/1999/xlink" preserveAspectRatio="none" width="40" height="40"><defs><path fill="#FFF" d="M29.95 26.5q-.25-.4-.8-.55-.45-.25-1.15-.25-.5 0-.85.2-.4.05-.65.2-.3.25-.45.55-.15.4-.15.8t.15.75q.2.35.6.55.5.15 1.55.5.8.15.95.3.3.15.3.55 0 .3-.3.6-.3.25-1 .25-.65 0-1-.3-.4-.35-.5-.85l-1 .15q.25.9.8 1.4.6.45 1.7.45.7 0 1.25-.25.55-.2.85-.7.25-.45.25-.9 0-.5-.25-.85t-.6-.5q-.4-.15-1.5-.45-.7-.15-.85-.25-.25-.15-.4-.3-.1-.1-.1-.3 0-.35.25-.55.3-.15 1-.15.55 0 .85.2.35.25.4.7l.95-.15q-.1-.55-.3-.85m-15.45-.6h-1.2l-1 1.3q-.25.3-.45.7-.15-.3-.4-.7l-.85-1.3H9.35l1.95 2.7-2.1 3.05h1.15l1.55-2.25 1.5 2.25h1.25l-2.2-3.05 2.05-2.7m3.9.7q.75 0 1.1.3.3.25.3.85V28q-.55.15-1.8.3-.55.05-.85.15-.4.15-.7.3-.3.25-.5.65-.2.3-.2.7 0 .75.55 1.25.45.45 1.45.45.55 0 1.1-.25.5-.15 1-.6.1.4.2.7h1.05q-.2-.3-.3-.7V27.9q0-.6-.05-.85-.1-.45-.35-.7-.2-.25-.7-.45-.45-.2-1.15-.2-.8 0-1.35.25-.5.15-.85.55-.3.4-.45 1l1 .15q.15-.6.5-.85.3-.2 1-.2m-1.55 3.5q0-.25.05-.5.15-.2.4-.3.3-.05.85-.15 1.1-.15 1.65-.4v.35q0 .7-.15 1-.25.4-.65.7-.45.25-1 .25-.6 0-.95-.35-.2-.2-.2-.6m2.4-14.2h-.85v.7q-.7-.85-1.7-.85-.8 0-1.35.4-.6.35-.95 1.05-.2.7-.2 1.6 0 1.15.6 2 .65.85 1.9.85.9 0 1.55-.75 0 1-.1 1.25-.05.55-.45.75-.4.3-1.1.3-.65 0-.95-.3-.3-.15-.4-.6l-.9-.15q0 .9.6 1.4.65.45 1.75.45.85 0 1.4-.3.6-.3.9-.85.25-.65.25-1.95v-5m-2.5.7q.65 0 1.1.45.45.55.45 1.65 0 1.1-.45 1.65-.4.55-1.1.55-.7 0-1.15-.55-.4-.55-.4-1.65 0-1.1.4-1.65.45-.45 1.15-.45m6.7 7.25l-.9.55v1.5h-.75v.75h.75v3.3q0 .9.05 1.15.15.3.45.45.25.2.8.2.3 0 .8-.1l-.15-.85H24q-.15 0-.3-.1-.1-.05-.15-.15-.1-.15-.1-.55v-3.35h1.05v-.75h-1.05v-2.05m.25-8.1q-1.15 0-1.95.85-.8.75-.8 2.25 0 1.4.8 2.2.7.75 2.05.75 1 0 1.6-.55.65-.45.85-1.3l-1-.15q-.25.6-.55.95-.4.2-.9.2-.8 0-1.25-.45-.5-.55-.55-1.5h4.35v-.2q0-1.5-.8-2.3-.7-.75-1.85-.75M22.6 17q.4-.4 1.1-.4.8 0 1.25.55.3.3.3 1.1h-3.2q.1-.8.55-1.25m4.45-.35h.7v3.3q0 .95.1 1.15.15.35.45.5.25.15.8.15.3 0 .75-.1l-.15-.85h-.45q-.15 0-.35-.05-.05-.1-.15-.2-.05-.15-.05-.5v-3.4h1v-.75h-1v-2.05l-.95.55v1.5h-.7v.75z" id="a"/><path id="b" stroke="#FFF" stroke-width="1" stroke-linejoin="round" stroke-linecap="round" fill="none" d="M6.15 20.25v9.35q.05 4.65 4.35 4.65h19.45q4.3-.1 4.3-4.8V15.6q0-4.8-4.3-4.8H15.9m-.7-4.25l-3.65 3.8 2.25 4.85-4.75-2.25L5.2 16.6l.7-5.3-4.75-2.6 5.3-.9.95-5.25 2.55 4.7 5.25-.7z"/></defs><g><use xlink:href="#a"/><use xlink:href="#b"/></g></svg>