<svg xmlns="http://www.w3.org/2000/svg" xmlns:xlink="http://www.w3.org/1999/xlink" preserveAspectRatio="none" width="40" height="40"><defs><path fill="#FFF" d="M12.2 3.85q-.6 0-1 .4L8.9 6.6 6.55 4.25q-.2-.2-.4-.25-.25-.15-.55-.15-.6 0-1.05.45-.45.45-.45 1 0 .6.45 1l2.3 2.3L4.5 11q-.45.4-.45 1 0 .55.45 1 .45.45 1 .45.6 0 1-.45l2.4-2.35 1.4 1.4h.05v.05l.9.9q.45.45 1 .45.6 0 1.05-.45.4-.45.4-1 0-.6-.4-1l-2.4-2.4 2.35-2.3q.4-.4.4-1 0-.55-.45-1-.45-.45-1-.45z" id="a"/><path id="b" stroke="#FFF" stroke-width="1" stroke-linejoin="round" stroke-linecap="round" fill="none" d="M17.6 8.8q0 3.65-2.6 6.2-2.55 2.6-6.2 2.6-3.65 0-6.25-2.6Q0 12.45 0 8.8q0-3.65 2.55-6.25Q5.15 0 8.8 0T15 2.55q2.6 2.6 2.6 6.25z"/></defs><g transform="matrix(1.76703 0 0 1.76703 4.5 4.4)"><use xlink:href="#a"/><use xlink:href="#b"/></g></svg>