<svg xmlns="http://www.w3.org/2000/svg" preserveAspectRatio="none" width="19" height="19"><defs><radialGradient id="a" gradientUnits="userSpaceOnUse" cx="0" cy="0" r="12.622" fx="0" fy="0" gradientTransform="rotate(-45 9.987 -4.137) scale(1 .33473)" spreadMethod="pad"><stop offset="0%" stop-color="#FFF"/><stop offset="80.784%" stop-color="#A8000C"/></radialGradient><radialGradient id="b" gradientUnits="userSpaceOnUse" cx="0" cy="0" r="39.899" fx="0" fy="0" gradientTransform="rotate(-45 43.09 -17.648) scale(1 .144)" spreadMethod="pad"><stop offset="0%" stop-color="#5E0000"/><stop offset="80.784%" stop-color="#A8000C"/></radialGradient></defs><path fill="#FFF" d="M16.213 12.529Q19 10.628 19 7.907q0-2.704-2.787-4.621-2.786-1.864-6.713-1.9-3.927.036-6.713 1.9Q0 5.203 0 7.907q0 2.72 2.787 4.622.734.5 1.52.886-.193 1.87-2.597 3.672 3.467-.428 5.953-2.786.897.127 1.837.127 3.927-.004 6.713-1.9z"/><path stroke="#000" stroke-width=".05" stroke-linejoin="round" stroke-linecap="round" fill="none" d="M1.35 12.375q1.898-1.448 2.075-2.925-.645-.305-1.225-.7Q0 7.249 0 5.1q0-2.136 2.2-3.625 2.2-1.497 5.3-1.5 3.1.003 5.3 1.5Q15 2.964 15 5.1q0 1.774-1.5 3.1-.317.288-.7.55-2.2 1.497-5.3 1.5-.742 0-1.425-.075-1.987 1.837-4.725 2.2z" transform="matrix(1.26666 0 0 1.26613 0 1.45)"/><g><path fill="#FFF" d="M14.658 11.16h-.174q-1.379 0-2.351.973-.972.972-.972 2.35v.175q.047.932.551 1.669l4.615-4.615q-.738-.504-1.67-.551m3.12 2.873q-.101-.83-.594-1.495l-4.644 4.644q.213.157.436.275.093.044.174.073.026.016.043.014.478.213 1.016.247.14.015.276.015 1.378 0 2.35-.973.973-.972.973-2.35 0-.23-.03-.45z"/><path fill="url(#a)" d="M17.7.15Q16.642 0 15.5 0 9.1 0 4.55 4.55 0 9.1 0 15.5q0 1.143.15 2.2.597-.148 1.25-.4 1.31-.511 2.6-1.25v-.6q0-4.75 3.35-8.1Q10.7 4 15.45 4h.6q.737-1.303 1.25-2.65.248-.615.4-1.2z" transform="matrix(.2902 0 0 .2902 10 10)"/><path fill="url(#b)" d="M26.8 13.9q.1.755.1 1.55 0 4.75-3.35 8.1-3.35 3.35-8.1 3.35-.467 0-.95-.05-.353.783-.65 1.55-.515 1.322-.75 2.4 1.179.2 2.4.2 6.4 0 10.95-4.55Q31 21.9 31 15.5q0-1.746-.35-3.35l-.9.3q-1.476.597-2.95 1.45z" transform="matrix(.2902 0 0 .2902 10 10)"/><path fill="#A8000C" d="M17.183 12.54q.493.664.595 1.494.427-.248.856-.42l.26-.088q-.257-1.245-1.218-2.206-1.085-1.084-2.54-1.276-.044.17-.115.348-.15.39-.363.769.931.047 1.669.551l-4.615 4.615q-.504-.737-.551-1.67-.375.215-.755.364-.19.073-.362.116.192 1.455 1.276 2.539.154.153.305.29.023.014.03.03.958.78 2.147.942.068-.313.217-.696.086-.223.189-.45-.538-.034-1.016-.247-.017.002-.043-.014-.081-.029-.174-.073-.223-.118-.436-.275l4.644-4.644z"/></g></svg>
