<svg xmlns="http://www.w3.org/2000/svg" xmlns:xlink="http://www.w3.org/1999/xlink" preserveAspectRatio="none" width="19" height="19"><defs><radialGradient id="a" gradientUnits="userSpaceOnUse" cx="0" cy="0" r="10.6" fx="0" fy="0" gradientTransform="translate(8.5 8.2)" spreadMethod="pad"><stop offset="0%" stop-color="#FEDA18"/><stop offset="69.804%" stop-color="#FEDA18"/><stop offset="100%" stop-color="#BA9501"/></radialGradient><linearGradient id="b" gradientUnits="userSpaceOnUse" x1="9.35" y1="11.563" x2="9.35" y2="-2.263" spreadMethod="pad"><stop offset="20.392%" stop-color="#FFF" stop-opacity="0"/><stop offset="73.725%" stop-color="#FFF" stop-opacity=".949"/><stop offset="100%" stop-color="#FFF" stop-opacity=".651"/><stop offset="100%" stop-opacity=".251"/></linearGradient><path fill="url(#a)" d="M16.2 2.75q-.645-.641-1.35-1.15-2.354-1.631-5.4-1.65L8.7 0Q6.263.176 4.3 1.5q-.806.532-1.55 1.25l-.55.6Q-.021 5.976-.05 9.45q.03 3.938 2.8 6.7 2.812 2.82 6.7 2.8 3.95.02 6.75-2.8 2.783-2.762 2.75-6.7.033-3.9-2.75-6.7z" id="c"/><path fill="url(#b)" d="M16.95 8.55q.15-.65.15-1.45 0-2.65-2.25-4.55-2.3-1.9-5.5-1.9-3.15 0-5.5 1.9Q1.6 4.45 1.6 7.1q0 .9.25 1.6l15.1-.15z" id="d"/><path fill="#FFF" d="M7.8 4.35q-.3-.4-.6-.6-.65-.5-1.4-.5-1.1 0-1.95 1.1Q3 5.45 3 7q0 1.55.85 2.65.85 1.1 1.95 1.1 1.15 0 2-1.1.85-1.1.85-2.65 0-1.55-.85-2.65M15.75 7q0-1.55-.85-2.65-.3-.4-.6-.6-.65-.5-1.4-.5-1.1 0-1.95 1.1-.85 1.1-.85 2.65 0 1.55.85 2.65.85 1.1 1.95 1.1 1.15 0 2-1.1.85-1.1.85-2.65z" id="e"/><path d="M7.65 5.9q-.5-.5-1.25-.5t-1.3.5q-.5.55-.5 1.3t.5 1.25Q5.65 9 6.4 9t1.25-.55q.55-.5.55-1.25t-.55-1.3m5.85 0q-.5-.5-1.25-.5t-1.3.5q-.5.55-.5 1.3t.5 1.25q.55.55 1.3.55t1.25-.55q.55-.5.55-1.25t-.55-1.3z" id="h"/><path id="f" stroke="#333" stroke-width="1" stroke-linejoin="round" stroke-linecap="round" fill="none" d="M15.75 7q0 1.55-.85 2.65-.85 1.1-2 1.1-1.1 0-1.95-1.1-.85-1.1-.85-2.65 0-1.55.85-2.65.85-1.1 1.95-1.1.75 0 1.4.5.3.2.6.6.85 1.1.85 2.65zM7.2 3.75q.3.2.6.6.85 1.1.85 2.65 0 1.55-.85 2.65-.85 1.1-2 1.1-1.1 0-1.95-1.1Q3 8.55 3 7q0-1.55.85-2.65.85-1.1 1.95-1.1.75 0 1.4.5z"/><path id="g" stroke="#900" stroke-width="1" stroke-linejoin="round" stroke-linecap="round" fill="none" d="M4.65 13.05q.05 2.1 2 2.55 1.9.4 2.5-1.35.65-1.7 2.45-1.4 1.8.35 1.95 2.5"/></defs><use xlink:href="#c" transform="translate(0 .05)"/><use xlink:href="#d" transform="translate(0 .05)"/><g><use xlink:href="#e"/><use xlink:href="#f"/></g><use xlink:href="#g"/><g><use xlink:href="#h"/></g></svg>
