<svg xmlns="http://www.w3.org/2000/svg" xmlns:xlink="http://www.w3.org/1999/xlink" preserveAspectRatio="none" width="19" height="19"><defs><radialGradient id="a" gradientUnits="userSpaceOnUse" cx="0" cy="0" r="10.6" fx="0" fy="0" gradientTransform="translate(8.5 8.2)" spreadMethod="pad"><stop offset="0%" stop-color="#FEDA18"/><stop offset="69.804%" stop-color="#FEDA18"/><stop offset="100%" stop-color="#BA9501"/></radialGradient><linearGradient id="b" gradientUnits="userSpaceOnUse" x1="9.35" y1="11.563" x2="9.35" y2="-2.263" spreadMethod="pad"><stop offset="20.392%" stop-color="#FFF" stop-opacity="0"/><stop offset="73.725%" stop-color="#FFF" stop-opacity=".949"/><stop offset="100%" stop-color="#FFF" stop-opacity=".651"/><stop offset="100%" stop-opacity=".251"/></linearGradient><radialGradient id="c" gradientUnits="userSpaceOnUse" cx="0" cy="0" r="3.875" fx="0" fy="0" gradientTransform="matrix(1 0 0 .58387 1.45 4.95)" spreadMethod="pad"><stop offset="0%" stop-color="#FFF"/><stop offset="100%"/></radialGradient><radialGradient id="d" gradientUnits="userSpaceOnUse" cx="0" cy="0" r="3.875" fx="0" fy="0" gradientTransform="matrix(1 0 0 .58387 9.4 4.95)" spreadMethod="pad"><stop offset="0%" stop-color="#FFF"/><stop offset="100%"/></radialGradient><radialGradient id="e" gradientUnits="userSpaceOnUse" cx="0" cy="0" r="16.901" fx="0" fy="0" gradientTransform="matrix(.86605 .49996 -.4112 .71222 0 0)" spreadMethod="pad"><stop offset="0%" stop-color="#FFF"/><stop offset="100%" stop-color="#FFF" stop-opacity="0"/></radialGradient><radialGradient id="f" gradientUnits="userSpaceOnUse" cx="0" cy="0" r="21.825" fx="0" fy="0" spreadMethod="pad"><stop offset="0%" stop-color="#FFF"/><stop offset="100%" stop-color="#FFF" stop-opacity="0"/></radialGradient><path fill="url(#a)" d="M16.2 2.75q-.645-.641-1.35-1.15-2.354-1.631-5.4-1.65L8.7 0Q6.263.176 4.3 1.5q-.806.532-1.55 1.25l-.55.6Q-.021 5.976-.05 9.45q.03 3.938 2.8 6.7 2.812 2.82 6.7 2.8 3.95.02 6.75-2.8 2.783-2.762 2.75-6.7.033-3.9-2.75-6.7z" id="g"/><path fill="url(#b)" d="M16.95 8.55q.15-.65.15-1.45 0-2.65-2.25-4.55-2.3-1.9-5.5-1.9-3.15 0-5.5 1.9Q1.6 4.45 1.6 7.1q0 .9.25 1.6l15.1-.15z" id="h"/><g id="i"><path fill="url(#c)" d="M6.3 4.8q-.256-.456-.65-.85Q4.6 2.85 3 2.85q-1.55 0-2.7 1.1-1.05 1.1-1.05 2.7T.3 9.35q1.15 1.1 2.7 1.1 1.6 0 2.65-1.1 1.1-1.1 1.1-2.7 0-1.027-.45-1.85z"/><path fill="url(#d)" d="M14.25 4.85q-.239-.489-.65-.9-1.05-1.1-2.65-1.1-1.55 0-2.65 1.1-.379.397-.65.85-.4.827-.4 1.85 0 1.6 1.05 2.7 1.1 1.1 2.65 1.1 1.6 0 2.65-1.1 1.1-1.1 1.1-2.7 0-1.002-.45-1.8z"/><path fill="#900" d="M11.6 12.35q-.15-.05-.25-.05-4.3.8-8.1.05-.2 0-.35.1-.15.05-.25.25-.1.1-.1.3 0 1.7 1.35 3.15 1.4 1.6 3.45 1.6h.05q2.1-.05 3.5-1.55h.05q1.2-1.5 1-3.35 0-.15-.1-.3-.15-.1-.25-.2m-1.5 3.1q-1.1 1-2.75 1.1-1.6 0-2.65-1.25-.7-.75-.9-1.6 3.35.5 7.05-.05-.15.9-.75 1.7v.1z"/><path fill="#FFF" d="M7.35 16.55q1.65-.1 2.75-1.1v-.1q.6-.8.75-1.7-3.7.55-7.05.05.2.85.9 1.6 1.05 1.25 2.65 1.25z"/></g><path fill="url(#e)" d="M2-4.85v-19.4h-4v19.4l-11.3-11.3v5.5l8.6 8.8h-8.6v3.7h8.6l-8.6 8.8v5.5L-2 4.85V28.9h4V4.85L19.05 21.9l2.65-2.7L4.65 1.85h24.4v-3.7H4.65L21.7-19.2l-2.65-2.7L2-4.85z" id="k"/><path fill="url(#f)" d="M17.75-16.45l-1.55-1.6L2-3.8q-.12.173-.35.15-.18.023-.35-.15-.124-.12-.15-.35v-20.1h-2.4v20.1q-.001.23-.15.35-.145.173-.35.15-.205.024-.35-.15l-11.2-11.25v3.25l9.6 9.9q.173.146.15.35.022.205-.15.35-.12.148-.35.15h-9.25V1.1h9.25q.23.002.35.15.172.145.15.35.023.203-.15.35l-9.6 9.85v3.3L-2.1 3.8q.145-.124.35-.15.205.026.35.15.149.17.15.35v20.1h2.4V4.15q.026-.18.15-.35.17-.124.35-.15.23.026.35.15l14.2 14.25 1.55-1.6L3.6 1.95q-.148-.147-.15-.35.003-.205.15-.35.146-.148.35-.15h20.3v-2.15H3.95q-.204-.002-.35-.15-.147-.145-.15-.35.002-.204.15-.35l14.15-14.55z" id="l"/><path id="j" stroke="#000" stroke-width="1" stroke-linejoin="round" stroke-linecap="round" fill="none" d="M14.275 4.85H15.8q2.35.15 2 2.7M7.675 4.8H6.3"/></defs><use xlink:href="#g" transform="translate(0 .05)"/><use xlink:href="#h" transform="translate(0 .05)"/><g><use xlink:href="#i"/><use xlink:href="#j"/></g><g><use xlink:href="#k" transform="matrix(.19862 0 0 .19862 2.75 4.8)"/><use xlink:href="#l" transform="matrix(.19862 0 0 .19862 2.75 4.8)"/></g></svg>
