<svg xmlns="http://www.w3.org/2000/svg" xmlns:xlink="http://www.w3.org/1999/xlink" preserveAspectRatio="none" width="19" height="19"><defs><radialGradient id="a" gradientUnits="userSpaceOnUse" cx="0" cy="0" r="10.6" fx="0" fy="0" gradientTransform="translate(8.5 8.2)" spreadMethod="pad"><stop offset="0%" stop-color="#FEDA18"/><stop offset="69.804%" stop-color="#FEDA18"/><stop offset="100%" stop-color="#BA9501"/></radialGradient><linearGradient id="b" gradientUnits="userSpaceOnUse" x1="9.35" y1="11.563" x2="9.35" y2="-2.263" spreadMethod="pad"><stop offset="20.392%" stop-color="#FFF" stop-opacity="0"/><stop offset="73.725%" stop-color="#FFF" stop-opacity=".949"/><stop offset="100%" stop-color="#FFF" stop-opacity=".651"/><stop offset="100%" stop-opacity=".251"/></linearGradient><radialGradient id="c" gradientUnits="userSpaceOnUse" cx="0" cy="0" r="1.014" fx="0" fy="0" gradientTransform="matrix(.86288 .5054 -.92452 1.6025 3.2 10.9)" spreadMethod="pad"><stop offset=".784%" stop-color="#FFF"/><stop offset="100%" stop-color="#FFF" stop-opacity="0"/></radialGradient><path fill="url(#a)" d="M16.2 2.75q-.645-.641-1.35-1.15-2.354-1.631-5.4-1.65L8.7 0Q6.263.176 4.3 1.5q-.806.532-1.55 1.25l-.55.6Q-.021 5.976-.05 9.45q.03 3.938 2.8 6.7 2.812 2.82 6.7 2.8 3.95.02 6.75-2.8 2.783-2.762 2.75-6.7.033-3.9-2.75-6.7z" id="d"/><path fill="url(#b)" d="M16.95 8.55q.15-.65.15-1.45 0-2.65-2.25-4.55-2.3-1.9-5.5-1.9-3.15 0-5.5 1.9Q1.6 4.45 1.6 7.1q0 .9.25 1.6l15.1-.15z" id="e"/><g id="f"><path fill="#333" d="M8.35 7.4q1.05 0 1.75-.3.75-.3.75-.75t-.75-.75q-.7-.3-1.75-.3t-1.75.3q-.75.3-.75.75t.75.75q.7.3 1.75.3m6.2-2.1q-1.05 0-1.8.3-.7.3-.7.75t.7.75q.75.3 1.8.3 1 0 1.75-.3.7-.3.7-.75t-.7-.75q-.75-.3-1.75-.3z"/><path fill="#FFF" d="M12.5 10.05q-1-.3-2.05.45-1.05.8-1.4 2.15-.4 1.35.2 2.5.45 1.2 1.55 1.5 1.05.3 2.05-.5 1.05-.75 1.4-2.1.35-1.35-.15-2.55-.55-1.15-1.6-1.45z"/></g><path fill="#03F" d="M5.65 10.65q-.25-1.4.2-3.95Q2.4 9.4 1.6 11.6q-.3.85.1 1.7.4.8 1.3 1.1.85.3 1.7-.1.8-.45 1.15-1.3.1-.5-.2-2.35z" id="i"/><path fill="url(#c)" d="M3.15 12.6q.6-.4.95-.75t.45-1.4q.1-1.1-.25-1.35-.4-.25-1 .1-.6.4-1 1.15-.45.75-.5 1.45 0 .7.4.95.35.2.95-.15z" id="j"/><path id="g" stroke="#000" stroke-width="1" stroke-linejoin="round" stroke-linecap="round" fill="none" d="M12.65 3.85q1.65-2.15 3.3 0m-9.4 0q1.65-2.15 3.3 0"/><path id="h" stroke="#900" stroke-width="1" stroke-linejoin="round" stroke-linecap="round" fill="none" d="M12.5 10.05q1.05.3 1.6 1.45.5 1.2.15 2.55-.35 1.35-1.4 2.1-1 .8-2.05.5-1.1-.3-1.55-1.5-.6-1.15-.2-2.5.35-1.35 1.4-2.15 1.05-.75 2.05-.45z"/></defs><use xlink:href="#d" transform="translate(0 .05)"/><use xlink:href="#e" transform="translate(0 .05)"/><g><use xlink:href="#f"/><use xlink:href="#g"/><use xlink:href="#h"/></g><use xlink:href="#i"/><g><use xlink:href="#j"/></g></svg>
