<svg xmlns="http://www.w3.org/2000/svg" viewBox="0 0 19 19"><path d="M15.7 2.8l-1.2-1C13.1.8 11.4.3 9.6.3h-.8c-1.5.1-2.9.6-4 1.4L3.4 2.8l-.6.6C1.5 5 .8 6.9.8 9c0 2.4.9 4.4 2.6 6.2 1.7 1.7 3.7 2.5 6.2 2.6 2.4 0 4.4-.9 6.2-2.6 1.7-1.7 2.6-3.8 2.6-6.2-.2-2.4-1-4.4-2.7-6.2z" fill="#999"/><path d="M14.35 13.7c0-.4-.1-.7-.4-1-.2-.3-.6-.4-1-.4s-.7.1-1 .4c-.2.3-.4.6-.4 1s.1.7.4 1l.6.3.5.1.7-.2.3-.2c.2-.3.3-.6.3-1m-4 2.2l-.5-.1-.4.2-.2.5.2.5c.1.1.3.2.4.2l.5-.2.2-.5-.2-.6m-4.6-5.4c-.4 0-.7.1-1 .4-.2.3-.4.6-.4 1s.1.7.4 1l.6.3.5.1.7-.2.3-.2c.3-.3.4-.6.4-1s-.1-.7-.4-1c-.4-.3-.7-.4-1.1-.4m-4.1-1.4v.6l.3.6.3.1.3-.3v-.6l-.3-.5-.3-.2-.3.3m4.4-5c-.3-.4-.8-.6-1.3-.6s-1 .2-1.3.6c-.3.4-.5.8-.5 1.3s.2 1 .5 1.3l.7.5.6.1.9-.2.4-.3c.4-.4.6-.8.6-1.3 0-.6-.2-1-.6-1.4m3.9-.5c.3-.2.4-.6.4-.9 0-.4-.1-.7-.4-1-.2-.3-.6-.4-.9-.4s-.7.1-1 .4c-.2.2-.4.6-.4 1s.1.7.4.9c.3.3.6.4 1 .4s.6-.1.9-.4m6.4 8.2c-.1 0-.3 0-.4.1l-.3.5v.6l.3.3.4-.1.3-.6V12l-.3-.2M13.05 6c-.6 0-1.2.2-1.6.6-.4.4-.6 1-.6 1.6 0 .6.2 1.1.6 1.6.4.4 1 .6 1.6.6.6 0 1.1-.2 1.5-.6.5-.5.7-1 .7-1.6 0-.6-.2-1.2-.7-1.6-.3-.4-.9-.6-1.5-.6m2.1-2.5c-.1-.2-.3-.2-.5-.2s-.4.1-.5.2l-.2.5.2.5.3.1h.2l.4-.1.1-.1.2-.5-.2-.4z" fill="#333" fill-opacity=".118"/><g><radialGradient id="a" cx="9.279" cy="10.986" r="9.751" gradientTransform="matrix(1 0 0 -1 -.7 18.84)" gradientUnits="userSpaceOnUse"><stop offset="0" stop-opacity="0"/><stop offset=".698" stop-opacity="0"/><stop offset="1" stop-opacity=".251"/></radialGradient><path d="M16.4 3.7c0 .2-.1.4-.1.6-.5 2.2-1.5 4.3-3 6.1-1.5 1.8-3.2 3.2-5.3 4.1-1.3.6-2.7 1-4.1 1.2 1.6 1.4 3.5 2 5.6 2.1 2.4 0 4.4-.9 6.2-2.6 1.7-1.7 2.6-3.8 2.6-6.2-.1-2-.7-3.8-1.9-5.3z" fill="url(#a)"/></g><path d="M15.7 15.3c1.7-1.7 2.6-3.8 2.6-6.2 0-1.9-.5-3.5-1.6-5-1.5 6.8-5.8 10.7-12.8 11.7 1.6 1.4 3.5 2 5.6 2.1 2.4-.1 4.4-1 6.2-2.6z" fill="#ffaf12" fill-opacity=".769"/><path d="M16.7 4.1c1 1.5 1.5 3.1 1.5 5 0 2.4-.9 4.4-2.6 6.2-1.7 1.7-3.8 2.5-6.2 2.6-2.2 0-4-.7-5.6-2" fill="none" stroke="#666" stroke-linecap="round" stroke-linejoin="round" stroke-opacity=".451"/><path d="M3.9 15.8c7-1 11.2-4.9 12.8-11.7" fill="none" stroke="#666" stroke-linecap="round" stroke-linejoin="round" stroke-opacity=".447"/><g><g><linearGradient id="b" gradientUnits="userSpaceOnUse" x1="15.505" y1="4.41" x2="18.793" y2="16.691" gradientTransform="matrix(1 0 0 -1 0 19.89)"><stop offset=".204" stop-color="#fff" stop-opacity="0"/><stop offset=".737" stop-color="#fff" stop-opacity=".22"/><stop offset="1" stop-color="#fff" stop-opacity=".651"/><stop offset="1" stop-opacity=".251"/></linearGradient><path d="M18.2 8.1c-.2-1.5-.4-2.3-.6-2.4-.2-.1-.4.5-.8 1.6s-.8 2.4-1.2 4l-.4 1.5.9.1.3-1.3c1.4-.9 2-2 1.8-3.5z" fill="url(#b)"/></g></g></svg>