<svg xmlns="http://www.w3.org/2000/svg" xmlns:xlink="http://www.w3.org/1999/xlink" preserveAspectRatio="none" width="40" height="40"><defs><path fill="#FF3D34" d="M14.35-.05q0-5.95-4.25-10.2-4.2-4.2-10.15-4.2t-10.2 4.2q-4.2 4.25-4.2 10.2 0 5.95 4.2 10.15Q-6 14.35-.05 14.35q5.95 0 10.15-4.25 4.25-4.2 4.25-10.15z" id="a"/><path fill="#FFF" d="M6.95-.05q0-.35-.25-.6T6.1-.9H-6.2q-.35 0-.6.25t-.25.6V0q0 .35.25.6t.6.25H6.1q.35 0 .6-.25t.25-.6v-.05z" id="b"/></defs><use xlink:href="#a" transform="translate(20 20)"/><use xlink:href="#b" transform="translate(20 20)"/></svg>
