<svg xmlns="http://www.w3.org/2000/svg" xmlns:xlink="http://www.w3.org/1999/xlink" preserveAspectRatio="none" width="40" height="40"><defs><g id="a"><path fill="#333" fill-opacity=".247" d="M19.85 2q-.15-.75-.6-1.15-.6-.45-1.25-.4-.7-.05-1.2.45L8.6 8.15l-.4-1.2q-.15-.5-.6-.85-.45-.4-1-.4-.55-.05-1.1.2-.45.3-.65.85L-.8 18.8q-.35.55-.15 1.25.15.55.75 1.05.45.35 1.1.35.7-.05 1.15-.5l5.4-4.75.2.5q.25.65.9 1 .6.3 1.3.2.65-.25 1.05-.85L19.6 3.3q.35-.65.25-1.3M18 .9q.55-.05.9.3.4.35.5.85.1.5-.2.95l-8.7 13.85q-.3.4-.75.55-.6.15-1.05-.1-.45-.3-.55-.75l-.5-1.1L1.8 20.6q-.45.35-.9.35t-.85-.25q-.35-.3-.5-.8-.15-.45.1-.85L5.2 6.95q.2-.45.6-.6.3-.25.75-.2.45.05.75.3.35.25.5.65l.55 1.8 8.75-7.7q.4-.3.9-.3z"/><path fill="#333" fill-opacity=".498" d="M18.9 1.2q-.35-.35-.9-.3-.5 0-.9.3L8.35 8.9 7.8 7.1q-.15-.4-.5-.65-.3-.25-.75-.3-.45-.05-.75.2-.4.15-.6.6l-5.55 12.1q-.25.4-.1.85.15.5.5.8.4.25.85.25.45 0 .9-.35l5.85-5.15.5 1.1q.1.45.55.75.45.25 1.05.1.45-.15.75-.55L19.2 3q.3-.45.2-.95-.1-.5-.5-.85m.05.95q0 .25-.15.6l-8.65 13.8q-.15.35-.5.4-.4.05-.65 0-.4-.25-.5-.6l-.6-1.75-6.4 5.65q-.3.2-.6.25-.35 0-.6-.25-.25-.15-.4-.45-.05-.35.15-.65l5.65-12q.1-.3.35-.4.15-.2.45-.2.3 0 .6.25.1.15.2.45l.85 2.45 9.3-8.15q.2-.25.55-.25.35 0 .6.25t.35.6z"/><path fill="#333" fill-opacity=".733" d="M18.8 2.75q.15-.35.15-.6-.1-.35-.35-.6-.25-.25-.6-.25t-.55.25L8.15 9.7 7.3 7.25q-.1-.3-.2-.45-.3-.25-.6-.25t-.45.2q-.25.1-.35.4l-5.65 12q-.2.3-.15.65.15.3.4.45.25.25.6.25.3-.05.6-.25l6.4-5.65.6 1.75q.1.35.5.6.25.05.65 0 .35-.05.5-.4l8.65-13.8m-.3-.5q.05.1-.05.3L9.75 16.3q-.1.2-.3.25-.15 0-.3-.05-.15-.1-.2-.25l-.9-2.45-6.9 6.1q-.15.15-.3.15-.1 0-.25-.05-.15-.15-.15-.3-.05-.2 0-.3l5.6-12q.05-.2.15-.25.1-.05.3-.05.1 0 .3.05.05.1.1.3l1.05 3.15 9.8-8.65q.1-.15.25-.1.2-.05.3.1.15.05.2.3z"/><path d="M18.45 2.55q.1-.2.05-.3-.05-.25-.2-.3-.1-.15-.3-.1-.15-.05-.25.1l-9.8 8.65L6.9 7.45q-.05-.2-.1-.3-.2-.05-.3-.05-.2 0-.3.05-.1.05-.15.25l-5.6 12q-.05.1 0 .3 0 .15.15.3.15.05.25.05.15 0 .3-.15l6.9-6.1.9 2.45q.05.15.2.25.15.05.3.05.2-.05.3-.25l8.7-13.75z"/></g></defs><use xlink:href="#a" transform="matrix(1.42017 0 0 1.42017 7.75 3.6)"/></svg>