<svg xmlns="http://www.w3.org/2000/svg" xmlns:xlink="http://www.w3.org/1999/xlink" preserveAspectRatio="none" width="19" height="19"><defs><path fill="#FFF" d="M2.8-2.5L1.5-2 .75-4l-1.9 1.45Q-2.8-1.3-3.6.2q-.35 1.85.4 3.15.5.9 2.1 2.2 2-.2 3.4-1L4 3.4l-.7-2.05.45-.25L2.9-.6l.7-.4-.8-1.5z" id="e"/><path fill="#FFF" d="M8.3 3.4q-.003-1.407-1-2.4-.993-.996-2.4-1-1.407.004-2.4 1-.998.993-1 2.4.002 1.407 1 2.4.993.984 2.4.95-1.661.183-3.2 2.35-1.762 2.507-1.7 5.75.025 1.063 5.15 1.15 5.116.083 5.05-.95-.189-3.326-1.75-5.85-1.453-2.424-3.3-2.45 1.254-.06 2.15-.95.997-.993 1-2.4z" id="g"/><path id="f" stroke="#666" stroke-width="1" stroke-linejoin="round" stroke-linecap="round" fill="none" d="M1.5-2l1.3-.5.8 1.5-.7.4.85 1.7-.45.25L4 3.4 2.3 4.55q-1.4.8-3.4 1-1.6-1.3-2.1-2.2-.75-1.3-.4-3.15.8-1.5 2.45-2.75L.75-4l.75 2q-.3.15-2.15 1.5M3.3 1.35L1.1 2.6M2.9-.6Q1.35.25.25 1"/><path id="i" stroke="#000" stroke-opacity=".651" stroke-width=".05" stroke-linejoin="round" stroke-linecap="round" fill="none" d="M4.9 6.8q-1.4 0-2.4-1t-1-2.4q0-1.4 1-2.4t2.4-1q1.4 0 2.4 1t1 2.4q0 1.4-1 2.4-.9.9-2.1 1 1.8 0 3.3 2.45 1.5 2.45 1.7 5.8.05 1.05-5.05.95-5.1-.1-5.15-1.1-.05-3.3 1.7-5.75 1.55-2.2 3.2-2.35z"/><path id="j" stroke="#FFF" stroke-width="1" stroke-linejoin="round" stroke-linecap="round" fill="none" d="M3.2 3.45q.2-1.3 1.3-1.85M2.2 14.4q.3-4.25 2.7-5.8"/><path id="k" stroke="#000" stroke-width=".05" stroke-linejoin="round" stroke-linecap="round" fill="none" d="M4.95 6.8H4.9"/><radialGradient id="a" gradientUnits="userSpaceOnUse" cx="0" cy="0" r="6.15" fx="0" fy="0" gradientTransform="translate(7.3 7.4)" spreadMethod="pad"><stop offset="0%" stop-color="#4DE6E6" stop-opacity=".549"/><stop offset="100%" stop-color="#FFF"/></radialGradient><radialGradient id="b" gradientUnits="userSpaceOnUse" cx="0" cy="0" r="9.668" fx="0" fy="0" gradientTransform="matrix(.48356 -.87531 .51459 .28186 7.65 13.3)" spreadMethod="pad"><stop offset="0%" stop-opacity=".412"/><stop offset="100%" stop-color="#013198" stop-opacity="0"/></radialGradient><radialGradient id="c" gradientUnits="userSpaceOnUse" cx="0" cy="0" r="5.021" fx="0" fy="0" gradientTransform="matrix(.77672 -.62984 .4008 .49292 6.4 4.65)" spreadMethod="pad"><stop offset="0%" stop-opacity=".424"/><stop offset="100%" stop-color="#013198" stop-opacity="0"/></radialGradient><g id="d"><path d="M7.3 14.6q-.9 0-1.7-.2V24q1.75 1.2 3.5 0v-9.6q-.85.2-1.8.2z"/><path fill="#CCC" d="M14.6 7.3q0-3-2.15-5.15Q10.3 0 7.3 0q-3 0-5.15 2.15Q0 4.3 0 7.3q0 3 2.15 5.15 1.5 1.5 3.45 1.95.8.2 1.7.2.95 0 1.8-.2 1.9-.45 3.35-1.95Q14.6 10.3 14.6 7.3m-1.7.1q0 2.3-1.65 3.9-1.65 1.65-3.95 1.65-2.3 0-3.95-1.65Q1.7 9.7 1.7 7.4q0-.97.3-1.85.369-1.064 1.2-2l.15-.1Q5 1.8 7.3 1.8q2.3 0 3.95 1.65l1.15 1.6.15.45q.276.697.3 1.45.05.217.05.45z"/><path fill="#C4FFFF" fill-opacity=".812" d="M12.85 6.95q-.024-.753-.3-1.45l-.15-.45-1.15-1.6Q9.6 1.8 7.3 1.8 5 1.8 3.35 3.45l-.15.1q-.124.19-.25.35-.179.214-.35.45L2 5.55q-.214.682-.25 1.4 5.093-3.595 11.1 0z"/><path fill="url(#a)" d="M11.25 11.3q1.65-1.6 1.65-3.9 0-.233-.05-.45-6.007-3.595-11.1 0 .036-.718.25-1.4-.3.88-.3 1.85 0 2.3 1.65 3.9Q5 12.95 7.3 12.95q2.3 0 3.95-1.65z"/></g><g id="h"><path fill="url(#b)" d="M4.95 6.8H4.9q-1.65.15-3.2 2.35Q-.05 11.6 0 14.9q.05 1 5.15 1.1 5.1.1 5.05-.95-.2-3.35-1.7-5.8Q7 6.8 5.2 6.8h-.25M2.2 14.4q.3-4.25 2.7-5.8-2.4 1.55-2.7 5.8z"/><path fill="url(#c)" d="M8.3 3.4q0-1.4-1-2.4T4.9 0Q3.5 0 2.5 1t-1 2.4q0 1.4 1 2.4t2.4 1h.3q1.2-.1 2.1-1 1-1 1-2.4m-5.1.05q.2-1.3 1.3-1.85-1.1.55-1.3 1.85z"/></g></defs><use xlink:href="#d" transform="rotate(28.595 4.648 12.5) scale(.7201)"/><use xlink:href="#e" transform="matrix(.52152 .49655 -.49654 .52152 4.258 12.608)"/><use xlink:href="#f" transform="matrix(.52152 .49655 -.49654 .52152 4.258 12.608)"/><g><use xlink:href="#g" transform="matrix(.69734 0 0 .66396 11.55 7.55)"/><g transform="matrix(.69734 0 0 .66396 11.55 7.55)"><use xlink:href="#h"/><use xlink:href="#i"/><use xlink:href="#j"/><use xlink:href="#k"/></g></g></svg>