<svg xmlns="http://www.w3.org/2000/svg" xmlns:xlink="http://www.w3.org/1999/xlink" preserveAspectRatio="none" width="40" height="40"><defs><path fill="#FC0" d="M13-5.5q2.3-3.15 2.3-7.05 0-6-5.6-10.35-5.5-4.2-13.4-4.2-.85 0-2 .1-6.45.45-11.4 4.1-5.6 4.35-5.6 10.35 0 6.2 5.6 10.4 1.6 1.2 3.25 2.15-.5 4.2-5.35 8.3 7.05-1.05 12-6.3 1.7.2 3.5.2 7.9 0 13.4-4.35 2-1.45 3.3-3.35z" id="a"/><path fill="#FFF" d="M2.55-4.25l-1.4-6.5L5.9-15.5l-6.65-.65-3.05-6-2.65 6.1-6.65.95 4.95 4.55L-9.2-3.9l5.8-3.4 5.95 3.05z" id="d"/><path id="b" stroke="#FFF" stroke-opacity=".451" stroke-width="1" stroke-linejoin="round" stroke-linecap="round" fill="none" d="M9.05-18.55q-12.95-9.8-25.65-.25"/><path id="c" stroke="#CD8F42" stroke-width="1" stroke-linejoin="round" stroke-linecap="round" fill="none" d="M-3.7-27.1q-.85 0-2 .1-6.45.45-11.4 4.1-5.6 4.35-5.6 10.35 0 6.2 5.6 10.4 1.6 1.2 3.25 2.15-.5 4.2-5.35 8.3 7.05-1.05 12-6.3 1.7.2 3.5.2 7.9 0 13.4-4.35 2-1.45 3.3-3.35 2.3-3.15 2.3-7.05 0-6-5.6-10.35-5.5-4.2-13.4-4.2z"/></defs><use xlink:href="#a" transform="translate(23.75 29.5)"/><g transform="translate(23.75 29.5)"><use xlink:href="#b"/><use xlink:href="#c"/></g><use xlink:href="#d" transform="translate(23.75 29.5)"/></svg>