<svg version="1.1" id="Capa_7" xmlns="http://www.w3.org/2000/svg" x="0" y="0" width="22" height="22" xml:space="preserve"><style>.st2{fill:#ff1d25}</style><linearGradient id="SVGID_1_" gradientUnits="userSpaceOnUse" x1="0" y1="0" x2="0" y2="-1"><stop offset="0" stop-color="#656565"/><stop offset=".618" stop-color="#1b1b1b"/><stop offset=".629" stop-color="#545454"/><stop offset=".983" stop-color="#3e3e3e"/></linearGradient><path fill="#fcac21" d="M2.054 20.147h18.073v-9.94h1.807V6.592H.246v3.615h1.808z"/><path fill="#ff9800" d="M2.054 10.207h18.073v1.468H2.054z"/><path class="st2" d="M9.207 6.14l.076 14.007-.076-14.233 3.766.076-.076 14.157H9.283"/><path class="st2" d="M4.061 6.741l14.308-.151s2.937-1.732-.226-5.121a3.376 3.376 0 0 0-.924-.314 3.383 3.383 0 0 0-1.561.088 5.272 5.272 0 0 0-3.238 3.012l-2.711.152S7.65 1.093 6.219 1.469c-.235-.077-.468-.083-.875-.094-.369-.01-.679.04-.906.095-1.198.791-3 2.936-.377 5.271z"/><path d="M9.185 5.301l-.04 1.227h3.615s.226-1.28-.527-2.259l-1.905-.048a1.116 1.116 0 0 0-1.143 1.08z" fill="#861d25"/></svg>