<svg xmlns="http://www.w3.org/2000/svg" xmlns:xlink="http://www.w3.org/1999/xlink" preserveAspectRatio="none" width="21" height="21"><defs><linearGradient id="a" gradientUnits="userSpaceOnUse" x1="11.7" y1="17.45" x2="11.7" y2="5.25" spreadMethod="pad"><stop offset="0%" stop-color="#5F5F5F"/><stop offset="53.333%" stop-color="#F9F9F9"/></linearGradient><radialGradient id="b" gradientUnits="userSpaceOnUse" cx="0" cy="0" r="17.05" fx="0" fy="0" gradientTransform="translate(12.6 14.2)" spreadMethod="pad"><stop offset="0%" stop-color="#00F"/><stop offset="100%" stop-color="#03F"/></radialGradient><linearGradient id="c" gradientUnits="userSpaceOnUse" x1="13" y1="14.2" x2="13" y2="-3" spreadMethod="pad"><stop offset="0%" stop-color="#5F5F5F"/><stop offset="0%" stop-color="#5F5F5F"/><stop offset="53.333%" stop-color="#666"/></linearGradient><filter id="e" x="-20%" y="-20%" width="140%" height="140%" color-interpolation-filters="sRGB"><feColorMatrix in="SourceGraphic" values="1 0 0 0 0 0 1 0 0 0 0 0 1 0 0 0 0 0 0.4 0" result="result1"/></filter><path fill="#FFF" d="M0 22.7h23.4V3.55L19.85 0H3.55L0 3.55V22.7z" id="d"/><path fill="url(#a)" d="M0 22.7h23.4V3.55L19.85 0H3.55L0 3.55V22.7z" id="f"/><path fill="url(#b)" d="M21.05 8.05l1.35-.55q2.05-1.3 1.8-3.35Q23.35 1.5 21.95.4 17.1-1 15.55 2.8 15 4.6 14 5.85l-1.45-.25-1.4.25q-1-1.25-1.55-3.05Q8.05-1 3.2.4 1.8 1.5.95 4.15.7 6.2 2.75 7.5l1.7.65Q1.4 10.05 0 14.95l2.85-.6 1.5 2.85 4-8.85 1.2-.1v20.1h6.05V8.2l1.2.15 4 8.85 1.5-2.85 2.85.6q-1.4-4.9-4.1-6.9m-5.1-1.55q.75-.55 1.1-1.75Q19 2 22.2 3.05q-.1 4.35-6.25 3.45m-13-3.45Q6.15 2 8.1 4.75q.35 1.2 1.1 1.75-6.15.9-6.25-3.45z" id="h"/><path fill="url(#c)" d="M21.05 8.05l1.35-.55q2.05-1.3 1.8-3.35Q23.35 1.5 21.95.4 17.1-1 15.55 2.8 15 4.6 14 5.85l-1.45-.25-1.4.25q-1-1.25-1.55-3.05Q8.05-1 3.2.4 1.8 1.5.95 4.15.7 6.2 2.75 7.5l1.7.65Q1.4 10.05 0 14.95l2.85-.6 1.5 2.85 4-8.85 1.2-.1v20.1h6.05V8.2l1.2.15 4 8.85 1.5-2.85 2.85.6q-1.4-4.9-4.1-6.9m-5.1-1.55q.75-.55 1.1-1.75Q19 2 22.2 3.05q-.1 4.35-6.25 3.45m-13-3.45Q6.15 2 8.1 4.75q.35 1.2 1.1 1.75-6.15.9-6.25-3.45z" id="i"/><path id="g" stroke="#333" stroke-opacity=".847" stroke-width="2" stroke-linejoin="round" stroke-linecap="round" fill="none" d="M11.55-8.2L8-11.75H-8.3l-3.55 3.55h23.4v19.15h-23.4V-8.2"/><path id="j" stroke="#333" stroke-opacity=".451" stroke-width=".65" stroke-linejoin="round" stroke-linecap="round" fill="none" d="M14 5.85q1-1.25 1.55-3.05Q17.1-1 21.95.4q1.4 1.1 2.25 3.75.25 2.05-1.8 3.35l-1.35.55q2.7 2 4.1 6.9l-2.85-.6-1.5 2.85-4-8.85-1.2-.15v20.15H9.55V8.25l-1.2.1-4 8.85-1.5-2.85-2.85.6q1.4-4.9 4.45-6.8l-1.7-.65Q.7 6.2.95 4.15 1.8 1.5 3.2.4 8.05-1 9.6 2.8q.55 1.8 1.55 3.05l1.4-.25 1.45.25.25.1q.7.4.7.9v.1q-.05.45-.7.75l-.3.15 1.65.35m-6.05.05l2.1-.25-.8-.3q-.65-.3-.7-.75v-.1q0-.5.7-.9l.3-.1m2.8 2l-1.4.25-.9-.1m4.3-1.5q6.15.9 6.25-3.45Q19 2 17.05 4.75q-.35 1.2-1.1 1.75zm-13-3.45Q6.15 2 8.1 4.75q.35 1.2 1.1 1.75-6.15.9-6.25-3.45zm5.4 5.3l-3.9-.2m16.6-.1l-4.25.3"/></defs><use xlink:href="#d" transform="matrix(.62057 0 0 .58447 3.746 5.982)"/><use filter="url(#e)" xlink:href="#f" transform="matrix(.62057 0 0 .58447 3.746 5.982)"/><use xlink:href="#g" transform="matrix(.62057 0 0 .58447 11.1 12.85)"/><use xlink:href="#h" transform="matrix(.59713 0 0 .58447 3.715 2.242)"/><use filter="url(#e)" xlink:href="#i" transform="matrix(.59713 0 0 .58447 3.715 2.242)"/><use xlink:href="#j" transform="matrix(.59713 0 0 .58447 3.715 2.242)"/></svg>