<svg xmlns="http://www.w3.org/2000/svg" xmlns:xlink="http://www.w3.org/1999/xlink" preserveAspectRatio="none" width="21" height="21"><defs><path fill="#FFF" d="M0 22.7h23.4V3.55L19.85 0H3.55L0 3.55V22.7z" id="c"/><path fill="url(#a)" d="M0 22.7h23.4V3.55L19.85 0H3.55L0 3.55V22.7z" id="e"/><path fill="#333" d="M21.05 8.05l1.35-.55q2.05-1.3 1.8-3.35Q23.35 1.5 21.95.4 17.1-1 15.55 2.8 15 4.6 14 5.85l-1.45-.25-1.4.25q-1-1.25-1.55-3.05Q8.05-1 3.2.4 1.8 1.5.95 4.15.7 6.2 2.75 7.5l1.7.65Q1.4 10.05 0 14.95l2.85-.6 1.5 2.85 4-8.85 1.2-.1v20.1h6.05V8.2l1.2.15 4 8.85 1.5-2.85 2.85.6q-1.4-4.9-4.1-6.9m-5.1-1.55q.75-.55 1.1-1.75Q19 2 22.2 3.05q-.1 4.35-6.25 3.45m-13-3.45Q6.15 2 8.1 4.75q.35 1.2 1.1 1.75-6.15.9-6.25-3.45z" id="g"/><path fill="url(#b)" d="M21.05 8.05l1.35-.55q2.05-1.3 1.8-3.35Q23.35 1.5 21.95.4 17.1-1 15.55 2.8 15 4.6 14 5.85l-1.45-.25-1.4.25q-1-1.25-1.55-3.05Q8.05-1 3.2.4 1.8 1.5.95 4.15.7 6.2 2.75 7.5l1.7.65Q1.4 10.05 0 14.95l2.85-.6 1.5 2.85 4-8.85 1.2-.1v20.1h6.05V8.2l1.2.15 4 8.85 1.5-2.85 2.85.6q-1.4-4.9-4.1-6.9m-5.1-1.55q.75-.55 1.1-1.75Q19 2 22.2 3.05q-.1 4.35-6.25 3.45M8.1 4.75q.35 1.2 1.1 1.75-6.15.9-6.25-3.45Q6.15 2 8.1 4.75z" id="h"/><path fill="red" fill-opacity=".992" d="M14.8-8.1h-.3q-1 .1-1.85.15-8.6 1-14.6 7.6Q-8.5 7-8.1 16.8l.35 3.35q1 5.5 4.5 9.9Q-2 31.7-.4 33.2q5.3 4.8 11.95 5.85 1.25.25 2.6.3 1.3.1 2.6.1.15-.05.25-.05l3.35-.45q7.6-1.3 13.05-7.35l1.65-1.95Q38.5 25.1 39.4 19.6q.1-.8.2-1.5l.05-3.55Q39.2 4.7 31.8-2 30.4-3.2 29-4.2q-6.35-4.25-14.2-3.9m-2.2 6.5l2.35-.25q4.1-.2 7.55 1.25 1 .5 2.05 1.05l-9.6 10.6-10.1-9.1Q8.2-.8 12.6-1.6m20.35 14.95l.1 1.4q.25 5.75-2.7 10.3L19.6 15.3l9.65-10.65L31.5 7.9q1.15 2.55 1.45 5.45M.7 6.6l10 9.2-9.2 10.1q-.2-.3-.35-.55-2.65-3.85-2.9-8.8v-.9q-.1-5 2.45-9.05m15.7 26.5l-2.45-.05q-3.3-.2-6.15-1.65-1-.5-1.85-1.05l9.4-10.4 10.7 9.7Q21.9 32.8 16.4 33.1z" id="k"/><path id="f" stroke="#333" stroke-opacity=".847" stroke-width="2" stroke-linejoin="round" stroke-linecap="round" fill="none" d="M11.55-8.2L8-11.75H-8.3l-3.55 3.55h23.4v19.15h-23.4V-8.2"/><path id="i" stroke="#333" stroke-opacity=".451" stroke-width=".65" stroke-linejoin="round" stroke-linecap="round" fill="none" d="M14 5.85q1-1.25 1.55-3.05Q17.1-1 21.95.4q1.4 1.1 2.25 3.75.25 2.05-1.8 3.35l-1.35.55q2.7 2 4.1 6.9l-2.85-.6-1.5 2.85-4-8.85-1.2-.15v20.15H9.55V8.25l-1.2.1-4 8.85-1.5-2.85-2.85.6q1.4-4.9 4.45-6.8l-1.7-.65Q.7 6.2.95 4.15 1.8 1.5 3.2.4 8.05-1 9.6 2.8q.55 1.8 1.55 3.05l1.4-.25 1.45.25.25.1q.7.4.7.9v.1q-.05.45-.7.75l-.3.15 1.65.35m-6.05.05l2.1-.25-.8-.3q-.65-.3-.7-.75v-.1q0-.5.7-.9l.3-.1m2.8 2l-1.4.25-.9-.1m4.3-1.5q6.15.9 6.25-3.45Q19 2 17.05 4.75q-.35 1.2-1.1 1.75zm-13-3.45Q6.15 2 8.1 4.75q.35 1.2 1.1 1.75-6.15.9-6.25-3.45zm5.4 5.3l-3.9-.2m16.6-.1l-4.25.3"/><linearGradient id="a" gradientUnits="userSpaceOnUse" x1="11.7" y1="17.45" x2="11.7" y2="5.25" spreadMethod="pad"><stop offset="0%" stop-color="#5F5F5F"/><stop offset="53.333%" stop-color="#F9F9F9"/></linearGradient><linearGradient id="b" gradientUnits="userSpaceOnUse" x1="13" y1="14.2" x2="13" y2="-3" spreadMethod="pad"><stop offset="0%" stop-color="#5F5F5F"/><stop offset="53.333%" stop-color="#F9F9F9"/></linearGradient><filter id="d" x="-20%" y="-20%" width="140%" height="140%" color-interpolation-filters="sRGB"><feColorMatrix in="SourceGraphic" values="1 0 0 0 0 0 1 0 0 0 0 0 1 0 0 0 0 0 0.4 0" result="result1"/></filter><g id="j"><path fill="#FFF" fill-opacity=".659" d="M8.95 26.95q6.95 2.2 12.85-1.05l-6.45-5.95-6.4 7M10.7 15.8L.7 6.6q-2.55 4.05-2.45 9.05v.9q.25 5.35 3.25 9.35l9.2-10.1m15.9 5.8q2.5-6.3-2.15-11.65L19.6 15.3l7 6.3M22.5-.6q-3.45-1.45-7.55-1.25l-2.35.25q-4.4.8-7.75 3.55l10.1 9.1 9.6-10.6Q23.5-.1 22.5-.6z"/><path fill="#CCC" fill-opacity=".8" d="M8.95 26.95l-3 3.4q.85.55 1.85 1.05 2.85 1.45 6.15 1.65l2.45.05q5.5-.3 9.65-3.45L21.8 25.9q-5.9 3.25-12.85 1.05m24.1-12.2l-.1-1.4q-.3-2.9-1.45-5.45l-2.25-3.25-4.8 5.3Q29.1 15.3 26.6 21.6l3.75 3.45q2.95-4.55 2.7-10.3z"/></g></defs><use xlink:href="#c" transform="matrix(.62057 0 0 .62057 3.146 4.808)"/><use filter="url(#d)" xlink:href="#e" transform="matrix(.62057 0 0 .62057 3.146 4.808)"/><use xlink:href="#f" transform="matrix(.62057 0 0 .62057 10.5 12.1)"/><use xlink:href="#g" transform="matrix(.59713 0 0 .62057 3.115 .837)"/><use filter="url(#d)" xlink:href="#h" transform="matrix(.59713 0 0 .62057 3.115 .837)"/><use xlink:href="#i" transform="matrix(.59713 0 0 .62057 3.115 .837)"/><g><use xlink:href="#j" transform="matrix(.23092 .00704 -.00704 .23092 11.863 11.742)"/><use xlink:href="#k" transform="matrix(.23092 .00704 -.00704 .23092 11.863 11.742)"/></g></svg>