<svg xmlns="http://www.w3.org/2000/svg" xmlns:xlink="http://www.w3.org/1999/xlink" preserveAspectRatio="none" width="40" height="40"><defs><path fill="#FFF" d="M25.05 21.2q-.8.15-1.65.5-1.15.5-2.15 1.55-1.4 1.35-1.8 3.2-.2.75-.2 1.45 0 2.75 2 4.8 2.05 2 4.75 2 .6 0 1.1-.1h.15v-.05h.15q.45-.05.9-.25 1.05-.3 1.95-1.1 0-.1.05-.1.25-.15.5-.4 1.6-1.65 1.9-3.8.05-.5.05-1 0-2.75-1.95-4.65-2-2.1-4.8-2.1-.5 0-.95.05m-1.75 2.55q.6-.45 1.3-.55.6-.2 1.15-.2H26q2.1 0 3.6 1.4 1.4 1.4 1.4 3.5v.25q-.05 1.45-.8 2.5l-6.9-6.9m-2.25 4.15q0-.3.05-.65.15-1.3.95-2.3l6.95 7q-.3.25-.7.35-.05.05-.2.15l-.05.05H28q-.7.3-1.5.35H26q-1.95 0-3.45-1.45-1.5-1.5-1.5-3.5z" id="a"/><path id="b" stroke="#FFF" stroke-width="1" stroke-linejoin="round" stroke-linecap="round" fill="none" d="M25.1 35.8q-1.9.2-5.15.15-8.4-.15-8.45-1.8-.1-5.7 2.75-9.85 2.5-3.65 5.15-4-2.25-.1-3.8-1.75-1.65-1.75-1.65-4.05 0-2.4 1.65-4.15 1.6-1.75 3.95-1.75 2.3 0 3.95 1.75 1.6 1.75 1.6 4.15 0 2.3-1.6 4.05-1.6 1.65-3.6 1.7l.9.15q.6.15 1.3.75m-5.35-6.65q.35-2.1 2.15-3.15M15.1 33.2q.5-7.25 4.45-9.8"/></defs><g><use xlink:href="#a"/><use xlink:href="#b"/></g></svg>