<svg xmlns="http://www.w3.org/2000/svg" xmlns:xlink="http://www.w3.org/1999/xlink" preserveAspectRatio="none" width="19" height="19"><defs><path fill="red" d="M30.65 12.15q-.89-4.29-4.2-7.6Q22.712.812 17.7.15 16.642 0 15.5 0 9.1 0 4.55 4.55 0 9.1 0 15.5q0 1.143.15 2.2.664 5.014 4.4 8.75.528.528 1.05 1 .08.046.1.1 3.302 2.69 7.4 3.25 1.179.2 2.4.2 6.4 0 10.95-4.55Q31 21.9 31 15.5q0-1.746-.35-3.35m-3.75 3.3q0 4.75-3.35 8.1-3.35 3.35-8.1 3.35-.467 0-.95-.05-1.853-.116-3.5-.85-.06.004-.15-.05-.28-.098-.6-.25-.768-.407-1.5-.95l16-16q1.699 2.29 2.05 5.15.1.755.1 1.55M15.45 4h.6q3.21.162 5.75 1.9L5.9 21.8Q4.164 19.263 4 16.05v-.6q0-4.75 3.35-8.1Q10.7 4 15.45 4z" id="a"/></defs><use xlink:href="#a" transform="matrix(-.56694 0 0 .56694 18.25 .7)"/></svg>