<svg xmlns="http://www.w3.org/2000/svg" xmlns:xlink="http://www.w3.org/1999/xlink" preserveAspectRatio="none" width="40" height="40"><defs><path id="a" stroke="#FFF" stroke-width="1" stroke-linejoin="round" stroke-linecap="round" fill="none" d="M23.3 20.95l3.25-.85q1.25-.35 1.95-.25 2.65-.3 3.75 1.95l1.4 5.35-26.45 7.2Q3.95 26.2 6.7 22L5 15.95l10.8-3.15 1.35 5 3.9 1.9 2.25 1.25q-2.1 1.85-2 4.95m7.2-6.05q-.75 1.15-.35 2.3m.1-7.3q2.85 4.45 7.05 1.05-2.7 5.85 4.35 6.05-5.7 2.25-2.75 5.7M17.15 17.8q-2.4 1.3-3.2 4.05m-5.25 4.6q4-1.7 5.2 1.65l.8 3.05m6.35-11.45q-3 1.65-3.7 5.15"/></defs><use xlink:href="#a"/></svg>