<svg xmlns="http://www.w3.org/2000/svg" xmlns:xlink="http://www.w3.org/1999/xlink" preserveAspectRatio="none" width="40" height="40"><defs><path fill="#FFF" d="M10.4 9.1q.25-.15.4-.35.15-.2.15-.5 0-.45-.35-.75-.3-.25-.85-.25-.6 0-.9.25-.3.3-.3.75 0 .25.1.5.15.2.45.35-.35.15-.5.4-.15.3-.15.6 0 .6.4.95.35.25.9.25.6 0 .95-.35.35-.3.35-.9 0-.3-.15-.55-.2-.3-.5-.4m-.1.95q0 .3-.15.5-.15.15-.4.15t-.4-.15q-.15-.2-.15-.5 0-.25.1-.45.15-.2.45-.2.25 0 .4.2.15.15.15.45m-.55-2.2q.2 0 .35.1.1.15.1.35 0 .25-.1.35-.15.15-.35.15-.25 0-.35-.15-.15-.1-.15-.35 0-.2.15-.35.1-.1.35-.1z" id="a"/><path id="b" stroke="#FFF" stroke-width="1" stroke-linejoin="round" stroke-linecap="round" fill="none" d="M14.25 9.5q0 1.95-1.4 3.35-1.4 1.4-3.35 1.4-1.95 0-3.35-1.4-1.4-1.4-1.4-3.35 0-1.95 1.4-3.35 1.4-1.4 3.35-1.4 1.95 0 3.35 1.4 1.4 1.4 1.4 3.35zm4.75 0q0 3.95-2.75 6.7Q13.45 19 9.5 19q-3.9 0-6.7-2.8Q0 13.45 0 9.5t2.8-6.7Q5.6 0 9.5 0q3.95 0 6.75 2.8Q19 5.55 19 9.5z"/></defs><g transform="matrix(1.5 0 0 1.5 5.75 5.75)"><use xlink:href="#a"/><use xlink:href="#b"/></g></svg>