<svg xmlns="http://www.w3.org/2000/svg" viewBox="0 0 21 21"><path d="M18.899 10.122c-1.566-.314-2.898-1.648-3.994-3.845-1.018-2.276-2.428-1.412-4.15 2.511C9.188 5.022 7.7 4.237 6.29 6.434c-1.488 2.197-2.584 3.453-3.446 3.767 3.446 4.551 6.03 6.748 7.753 6.748 1.801 0 4.542-2.354 8.301-6.827m-5.325-4.159l-1.175 1.334 1.175-1.334M7.7 6.042l-1.096 1.57L7.7 6.041m1.019 4.787c1.41.235 2.584.235 3.602 0-1.018.235-2.193.235-3.602 0m-2.193.863c2.74 3.531 5.56 3.453 8.457-.236-2.897 3.689-5.716 3.767-8.457.236z" fill="red"/><path d="M12.8 1.1l-1.5 1.7m-6-1.6l-1.4 2m-.1 5.2c3.5 4.5 7.1 4.4 10.8-.3" fill="none" stroke="#fff" stroke-linecap="round" stroke-linejoin="round" transform="matrix(.78311 0 0 .78473 3.55 5.1)"/><path d="M6.6 7.3c1.8.3 3.3.3 4.6 0" fill="none" stroke="#c00" stroke-linecap="round" stroke-linejoin="round" transform="matrix(.78311 0 0 .78473 3.55 5.1)"/><g><path d="M4 3.2l14.2 15.5" fill="none" stroke="#ccc" stroke-linecap="round" stroke-linejoin="round" stroke-miterlimit="4.001" stroke-opacity=".647"/></g><g><path d="M18.4 18.1h0" fill="none" stroke="#999" stroke-linecap="round" stroke-linejoin="round" stroke-miterlimit="4.001"/><path d="M18.4 18.1L4.3 2.7l.4-.5 14.1 15.4-.4.5" fill="none" stroke="#fff" stroke-linecap="round" stroke-linejoin="round" stroke-miterlimit="4.001"/></g></svg>