<svg xmlns="http://www.w3.org/2000/svg" preserveAspectRatio="none" width="11" height="14"><defs><linearGradient id="a" gradientUnits="userSpaceOnUse" x1=".462" y1="9.8" x2="9.637" y2="9.8" spreadMethod="pad"><stop offset="6.275%" stop-color="#FFF" stop-opacity=".847"/><stop offset="37.647%" stop-color="#F90"/></linearGradient></defs><path fill="#666" d="M7.527 3.038q.83.83.867 2.025l.054 2.506q.004.437.325.746.313.316.758.32.445-.004.758-.32.321-.309.325-.746L10.56 5.01q-.073-2.056-1.517-3.464Q7.466-.014 5.47 0 3.367-.007 1.895 1.546v.053Q.391 2.867.38 5.063V7.57q.004.437.325.746.313.316.758.32.445-.004.758-.32.321-.309.325-.746V5.063q-.012-1.214.867-1.972.056-.039.108-.106.803-.846 1.95-.853 1.143.014 2.057.906z"/><path fill="url(#a)" d="M.5 6.9v5.75h9.15V6.9H.5z" transform="scale(1.08304 1.066)"/><path stroke="#F90" stroke-linejoin="round" stroke-linecap="round" fill="none" d="M.5 9.8h9.15" transform="scale(1.08304 1.066)"/><path stroke="#FFF" stroke-opacity=".647" stroke-linejoin="round" stroke-linecap="round" fill="none" d="M1.35 3.65q.25-1.15 1-1.85Q3.5.65 5 .65" transform="matrix(1.08304 0 0 1.066 .108 .16)"/><path fill="#333" fill-opacity=".749" d="M.162 6.982q-.16.155-.162.373v6.13q.002.219.162.373.157.158.38.16h9.91q.222-.002.378-.16.16-.154.163-.373v-6.13q-.002-.218-.163-.373-.156-.158-.379-.16H.541q-.222.002-.379.16m.921 5.97V7.888H9.91v5.064H1.083z"/></svg>