<svg xmlns="http://www.w3.org/2000/svg" xmlns:xlink="http://www.w3.org/1999/xlink" preserveAspectRatio="none" width="40" height="40"><defs><path fill="#FFF" d="M17.45 7v5.3H8.9q-1.45 0-1.45 1.45v4.9q0 1.45 1.45 1.45h8.55v5.65l11.1-9.4L17.45 7z" id="a"/><path id="b" stroke="#FFF" stroke-width="1" stroke-linejoin="round" stroke-linecap="round" fill="none" d="M25.65 9.9v-7q0-2.9-2.9-2.9H2.9Q0 0 0 2.9v27.95q0 2.9 2.9 2.9h19.85q2.9 0 2.9-2.9V22.9m-8.2-10.6H8.9q-1.45 0-1.45 1.45v4.9q0 1.45 1.45 1.45h8.55v5.65l11.1-9.4L17.45 7v5.3z"/></defs><g transform="translate(6.75 3.4)"><use xlink:href="#a"/><use xlink:href="#b"/></g></svg>