<svg xmlns="http://www.w3.org/2000/svg" viewBox="0 0 19 19"><path d="M13.3 5.5l-1-.8c-1.1-.8-2.4-1.2-3.9-1.2h-.6c-1.2.1-2.3.5-3.2 1.1l-1.1.9-.4.5C2 7.3 1.5 8.7 1.5 10.4c0 1.9.7 3.5 2 4.9 1.3 1.3 3 2 4.9 2s3.5-.7 4.9-2c1.4-1.4 2-3 2-4.9 0-1.9-.6-3.5-2-4.9z" fill="#03afd5"/><path d="M10.3 12.9c-1.1 1.3-8.8-4.2-8.8-2.5 0 1.9.7 3.5 2 4.9 1.3 1.3 3 2 4.9 2s3.5-.7 4.9-2c1.4-1.4 2-3 2-4.9s-.7-3.6-2-4.9l-1-.8c-1.1-.8-2.4-1.2-3.9-1.2h-.6" fill="#66afd5" opacity=".42"/><path d="M13.5 5.3l1.7 2.9 3.2.6-2.2 2.5.4 3.3-2.9-1.2-3.1 1.4.5-3.3L8.7 9l3.3-.7 1.5-3z" fill="#ffd52d"/></svg>