<svg xmlns="http://www.w3.org/2000/svg" xmlns:xlink="http://www.w3.org/1999/xlink" preserveAspectRatio="none" width="40" height="40"><defs><path id="a" stroke="#FFF" stroke-width="1" stroke-linejoin="round" stroke-linecap="round" fill="none" d="M-23.1 16.25h11.05V7.9h11V-.45h11.5v-8.3H21.9"/><path id="b" stroke="#FFF" stroke-width="1" stroke-linejoin="round" stroke-linecap="round" fill="none" d="M19-19.15q-.9.95-2.05 1.05 1.8 0 3.25 2.5 1.5 2.5 1.7 5.85.05 1.1-5 1-5-.05-5.05-1.1-.05-3.4 1.65-5.85 1.5-2.25 3.15-2.4-1.35 0-2.35-1.05t-1-2.4q0-1.45 1-2.5t2.35-1.05q1.4 0 2.35 1.05 1 1.05 1 2.5 0 1.35-1 2.4zm-4-2.4q.2-1.3 1.3-1.9M14.05-10.4q.25-4.3 2.6-5.9"/></defs><use xlink:href="#a" transform="translate(20.4 20.25) scale(.73822)"/><use xlink:href="#b" transform="translate(20.4 20.25) scale(.73822)"/></svg>