<svg xmlns="http://www.w3.org/2000/svg" xmlns:xlink="http://www.w3.org/1999/xlink" preserveAspectRatio="none" width="40" height="40"><defs><path id="a" stroke="#FFF" stroke-width="1" stroke-linejoin="round" stroke-linecap="round" fill="none" d="M-20.5 11.2h12.85V1.45H5.2v-9.7h13.35"/><path id="b" stroke="#FFF" stroke-width="1" stroke-linejoin="round" stroke-linecap="round" fill="none" d="M12.45-27.25q1.6 0 2.75 1.2t1.15 2.9q0 1.6-1.15 2.8-1.05 1.1-2.4 1.2 2.1 0 3.8 2.95 1.7 2.9 1.95 6.8.05 1.3-5.8 1.15Q6.9-8.3 6.85-9.5q-.05-3.95 1.95-6.85 1.75-2.6 3.65-2.8-1.6 0-2.75-1.2t-1.15-2.8q0-1.7 1.15-2.9t2.75-1.2zM9.4-10.15q.3-5 3.05-6.85m-1.9-6.15q.2-1.5 1.5-2.2"/></defs><use xlink:href="#a" transform="translate(20.4 20.25) scale(.73822)"/><use xlink:href="#b" transform="translate(20.4 20.25) scale(.73822)"/></svg>