<svg xmlns="http://www.w3.org/2000/svg" xmlns:xlink="http://www.w3.org/1999/xlink" preserveAspectRatio="none" width="40" height="40"><defs><path id="a" stroke="#FFF" stroke-width="1" stroke-linejoin="round" stroke-linecap="round" fill="none" d="M15.6 16.25l1.6-.55q.85-.3 1.2-1.2l-.05-2.6 1.4-2.2q.25-.95-.35-1.55l-1-1.35-.1-.2V4q-.35-.9-1.15-1.2l-1.65-.55M4.85 2.1l1-1.35Q6.4.1 7.4 0l2.7.75L12.75 0q1.05.1 1.55.75l.95 1.35M4.7 16.25l-1.6-.55q-.85-.3-1.2-1.2l.05-2.6-1.4-2.2q-.25-.95.3-1.55L1.9 6.6 1.85 4Q2.2 3.1 3 2.8l1.65-.55M9.9 21.3q.1 0-.65 2.1L7.6 27.95l-2.05-2.7-3.55.7 2.85-6.65q.75 2.45 4.7 2.05m5.8-4.95l-1 1.35q-.5.65-1.55.75l-2.65-.75-2.65.75q-1.05-.1-1.55-.75L4.9 16.4m8 5.25q2.15-.25 2.85-2.35l2.8 6.65-3.55-.7-2 2.7-1.6-4.25 1.5-2.05z"/><path id="b" stroke="#FFF" stroke-width="1" stroke-linejoin="round" stroke-linecap="round" fill="none" d="M9.9 15.3q-3.4-.1-3.45-.85-.05-2.6 1.3-4.55 1.15-1.7 2.4-1.85-1.05 0-1.8-.8-.8-.75-.8-1.85t.8-1.9q.55-.55 1.3-.75.2-.05.5-.05t.55.05q.7.2 1.25.75.8.8.8 1.9 0 1.1-.8 1.85-.7.75-1.6.8 1.45 0 2.55 1.95 1.1 1.95 1.3 4.55.05.65-2.2.75h-1.65m-1.5-9.9q.2-1 1-1.45M8.15 14q.2-3.25 2-4.5"/></defs><g transform="translate(9.9 6.55)"><use xlink:href="#a"/><use xlink:href="#b"/></g></svg>