<svg xmlns="http://www.w3.org/2000/svg" xmlns:xlink="http://www.w3.org/1999/xlink" preserveAspectRatio="none" width="19" height="19"><defs><radialGradient id="a" gradientUnits="userSpaceOnUse" cx="0" cy="0" r="10.6" fx="0" fy="0" gradientTransform="translate(8.5 8.2)" spreadMethod="pad"><stop offset="0%" stop-color="#FEDA18"/><stop offset="69.804%" stop-color="#FEDA18"/><stop offset="100%" stop-color="#BA9501"/></radialGradient><linearGradient id="b" gradientUnits="userSpaceOnUse" x1="9.35" y1="11.563" x2="9.35" y2="-2.263" spreadMethod="pad"><stop offset="20.392%" stop-color="#FFF" stop-opacity="0"/><stop offset="73.725%" stop-color="#FFF" stop-opacity=".949"/><stop offset="100%" stop-color="#FFF" stop-opacity=".651"/><stop offset="100%" stop-opacity=".251"/></linearGradient><path fill="url(#a)" d="M16.2 2.75q-.645-.641-1.35-1.15-2.354-1.631-5.4-1.65L8.7 0Q6.263.176 4.3 1.5q-.806.532-1.55 1.25l-.55.6Q-.021 5.976-.05 9.45q.03 3.938 2.8 6.7 2.812 2.82 6.7 2.8 3.95.02 6.75-2.8 2.783-2.762 2.75-6.7.033-3.9-2.75-6.7z" id="c"/><path fill="url(#b)" d="M16.95 8.55q.15-.65.15-1.45 0-2.65-2.25-4.55-2.3-1.9-5.5-1.9-3.15 0-5.5 1.9Q1.6 4.45 1.6 7.1q0 .9.25 1.6l15.1-.15z" id="d"/><path fill="#FC0" d="M6.35 11.8l-.95 7.15L10.65 14l6.5 3.1-3.1-6.5L19 5.35l-7.15.95L8.4-.05l-1.3 7.1L0 8.35l6.35 3.45z" id="g"/><path fill="red" d="M15.1 10.05h-2.8v2.65H8.25v-.25H3.4v3.05h11.7v-5.45M12 8.5V6.1H2.9v6.35h5.35V8.5H12m.3 1.55V8.5H8.25v4.2h4.05v-2.65z" id="h"/><path fill="#FFF" d="M4.7 15.45q1.95 2.25 4.7 2.2 3-.05 4.8-2.15 1.65-1.95 1.45-4.5-6.7 1.25-12.75.1 0 2.3 1.8 4.35m2.75-12.9q-.85-1.1-2-1.1-1.1 0-1.95 1.1-.85 1.1-.85 2.65 0 1.55.85 2.65.85 1.1 1.95 1.1 1.15 0 2-1.1.85-1.1.85-2.65 0-1.55-.85-2.65m5.35-1.1q-1.1 0-1.95 1.1Q10 3.65 10 5.2q0 1.55.85 2.65.85 1.1 1.95 1.1 1.15 0 2-1.1.85-1.1.85-2.65 0-1.55-.85-2.65-.85-1.1-2-1.1z" id="j"/><path d="M7.45 4.2q-.55-.55-1.4-.55-.85 0-1.45.55-.55.6-.55 1.45t.55 1.4q.6.6 1.45.6t1.4-.6q.6-.55.6-1.4 0-.85-.6-1.45m6.95 1.45q0-.85-.6-1.45-.55-.55-1.4-.55-.85 0-1.45.55-.55.6-.55 1.45t.55 1.4q.6.6 1.45.6t1.4-.6q.6-.55.6-1.4z" id="m"/><path fill="red" d="M3.2 11.65q1.25 5.35 6.3 5.6 5.5-.55 6.1-5.8-6.35 1.2-12.4.2z" id="n"/><path fill="#FFF" d="M4.9 11.9l.85 3.5 2.35-3.3-3.2-.2m7.8 3.65l.95-3.75-3.2.3 2.25 3.45z" id="o"/><path fill="red" d="M19 7.1q-2.806-.597-4.65-4.6-1.804-3.983-4.95 2.95-2.76-6.72-5.35-2.8Q1.516 6.627 0 7.2q6.14 8.099 9.2 8 3.195-.036 9.8-8.1m-6.25-4.9l-1.4 1.6 1.4-1.6m-6.95.1L4.5 4.2l1.3-1.9M4.35 8.95q4.883 6.303 10.05-.3-5.167 6.603-10.05.3m2.65-1q2.433.47 4.3 0-1.867.47-4.3 0z" id="p"/><path id="e" stroke="#900" stroke-width="1" stroke-linejoin="round" stroke-linecap="round" fill="none" d="M4.05 12.25q5.651 5.954 10.85-.1"/><path id="f" stroke="#333" stroke-width="1" stroke-linejoin="round" stroke-linecap="round" fill="none" d="M15.05 6.45q-2.399 3.2-4.8.05m-2-.05q-2.399 3.2-4.8.05"/><path id="i" stroke="#000" stroke-width="1" stroke-linejoin="round" stroke-linecap="round" fill="none" d="M12.3 10.05h2.8v5.45H3.4v-3.05h-.5V6.1H12v2.4h.3v1.55zm-8.9 2.4h4.85V8.5H12m.3 1.55v2.65H8.25v-.25"/><path id="k" stroke="#900" stroke-width="1" stroke-linejoin="round" stroke-linecap="round" fill="none" d="M4.7 15.45Q2.9 13.4 2.9 11.1q6.05 1.15 12.75-.1.2 2.55-1.45 4.5-1.8 2.1-4.8 2.15-2.75.05-4.7-2.2z"/><path id="l" stroke="#333" stroke-width="1" stroke-linejoin="round" stroke-linecap="round" fill="none" d="M12.8 1.45q1.15 0 2 1.1.85 1.1.85 2.65 0 1.55-.85 2.65-.85 1.1-2 1.1-1.1 0-1.95-1.1Q10 6.75 10 5.2q0-1.55.85-2.65.85-1.1 1.95-1.1zm-5.35 1.1q.85 1.1.85 2.65 0 1.55-.85 2.65-.85 1.1-2 1.1-1.1 0-1.95-1.1-.85-1.1-.85-2.65 0-1.55.85-2.65.85-1.1 1.95-1.1 1.15 0 2 1.1z"/><path id="q" stroke="#FFF" stroke-width="1" stroke-linejoin="round" stroke-linecap="round" fill="none" d="M12.75 2.2l-1.4 1.6M5.8 2.3L4.5 4.2m-.15 4.75q4.883 6.303 10.05-.3"/><path id="r" stroke="#C00" stroke-width="1" stroke-linejoin="round" stroke-linecap="round" fill="none" d="M7 7.95q2.433.47 4.3 0"/></defs><use xlink:href="#c" transform="matrix(.52715 0 0 .52574 .9 8.176)"/><use xlink:href="#d" transform="matrix(.52715 0 0 .52574 .9 8.176)"/><g transform="matrix(.52715 0 0 .52574 .9 8.15)"><use xlink:href="#e"/><use xlink:href="#f"/></g><use xlink:href="#g" transform="translate(9.5 9.5) scale(.45526)"/><g><g transform="matrix(.52715 0 0 .52435 8.15 .9)"><use xlink:href="#h"/><use xlink:href="#i"/></g><use xlink:href="#c" transform="matrix(.52715 0 0 .52573 8.15 .926)"/><use xlink:href="#d" transform="matrix(.52715 0 0 .52573 8.15 .926)"/><g transform="matrix(.52715 0 0 .52573 8.15 .9)"><use xlink:href="#j"/><use xlink:href="#k"/><use xlink:href="#l"/></g><g transform="matrix(.52715 0 0 .52573 8.15 .9)"><use xlink:href="#m"/></g><g transform="matrix(.52715 0 0 .52435 8.15 .9)"><use xlink:href="#n"/></g><g transform="matrix(.52715 0 0 .52435 8.15 .9)"><use xlink:href="#o"/></g></g><g><g transform="matrix(.52715 0 0 .52577 .9 .4)"><use xlink:href="#p"/><use xlink:href="#q"/><use xlink:href="#r"/></g></g></svg>
