<svg xmlns="http://www.w3.org/2000/svg" xmlns:xlink="http://www.w3.org/1999/xlink" preserveAspectRatio="none" width="40" height="40"><defs><radialGradient id="a" gradientUnits="userSpaceOnUse" cx="0" cy="0" r="10.688" fx="0" fy="0" gradientTransform="matrix(1 0 0 1.00234 7.7 7.25)" spreadMethod="pad"><stop offset="0%" stop-color="#FFF"/><stop offset="100%" stop-color="#FE007D"/></radialGradient><path fill="url(#a)" d="M19.95 10.7L17.5 8.6l1.35-2.85-3-.6-.4-3.4-2.9 1.05-1.9-2.75-.1-.05L8.5 2.4 5.65 1.1 5 4.1l-3.35.35L2.7 7.4 0 9.25l2.45 2.1L1.1 14.2l3 .6.4 3.4 2.9-1.05 1.9 2.75.1.1 2.05-2.45 2.85 1.3.65-3 3.35-.35-1.05-2.95 2.7-1.85z" id="b"/></defs><use xlink:href="#b" transform="matrix(1.69946 0 0 1.69946 3.105 2.51)"/><g transform="matrix(.35016 0 0 .3508 7.864 14.662)"><clipPath id="c"><path fill="#FFF" d="M-2-2h88.3v34.45H-2z"/></clipPath><text clip-path="url(#c)" writing-mode="lr"><tspan x="0" y="24.25" baseline-shift="0%" font-family="_sans_Regular" font-size="27">NEW!</tspan></text></g></svg>