<svg xmlns="http://www.w3.org/2000/svg" xmlns:xlink="http://www.w3.org/1999/xlink" preserveAspectRatio="none" width="19" height="19"><defs><path d="M5.75 8.45q0 .15.35.45.35.35.5.35.15 0 .5-.35.35-.3.35-.45 0-.15-.35-.45-.35-.35-.5-.35-.15 0-.5.35-.35.3-.35.45m1.6-4.3q-.8-.7-1.5 0-.15.5 0 1l.35 2.1q.4.25.8 0l.35-2.1q.15-.5 0-1z" id="a"/></defs><path d="M-22.43 17.182H-56.79l17.18-29.758z" transform="matrix(.43653 0 0 -.50406 26.791 10.66)" fill="none" stroke="#4b4b4b" stroke-width="5.33" stroke-linejoin="round"/><path d="M17 2H2l7.5 15z" fill="#fff"/><use xlink:href="#a" transform="matrix(1.5556 0 0 1.55725 -.767 -2.19)" width="100%" height="100%"/></svg>
