<svg xmlns="http://www.w3.org/2000/svg" xmlns:xlink="http://www.w3.org/1999/xlink" preserveAspectRatio="none" width="40" height="40"><defs><path fill="#FC0" d="M7.4-16.95q-.85-.1-1.5-.1-5.65 0-9.7 3.05-4 3.1-4 7.45 0 2.8 1.7 5.15.95 1.3 2.3 2.4Q.25 4.1 5.9 4.1q1.3 0 2.5-.1 3.65 3.8 8.7 4.55-3.45-3-3.85-6.05Q14.5 1.85 15.6 1q4-3.05 4-7.55 0-4.35-4-7.45-3.55-2.7-8.2-2.95z" id="d"/><path fill="url(#a)" d="M7.4-16.95q-.85-.1-1.5-.1-5.65 0-9.7 3.05-4 3.1-4 7.45 0 2.8 1.7 5.15.95 1.3 2.3 2.4Q.25 4.1 5.9 4.1q1.3 0 2.5-.1 3.65 3.8 8.7 4.55-3.45-3-3.85-6.05Q14.5 1.85 15.6 1q4-3.05 4-7.55 0-4.35-4-7.45-3.55-2.7-8.2-2.95z" id="f"/><path fill="url(#b)" d="M16.25-6.9q.2-.65.2-1.45 0-2.65-3.15-4.55-3.2-1.9-7.7-1.9-4.4 0-7.65 1.9Q-5.2-11-5.2-8.35q0 .9.35 1.6l21.1-.15z" id="g"/><path fill="#09F" d="M7.4-16.95q-.85-.1-1.5-.1-5.65 0-9.7 3.05-4 3.1-4 7.45 0 2.8 1.7 5.15.95 1.3 2.3 2.4Q.25 4.1 5.9 4.1q1.3 0 2.5-.1 3.65 3.8 8.7 4.55-3.45-3-3.85-6.05Q14.5 1.85 15.6 1q4-3.05 4-7.55 0-4.35-4-7.45-3.55-2.7-8.2-2.95z" id="h"/><path fill="url(#c)" d="M16.75-7.2q.2-.65.2-1.45 0-2.65-3.15-4.55-3.25-1.9-7.7-1.9-4.4 0-7.7 1.9-3.15 1.9-3.15 4.55 0 .9.35 1.6l21.15-.15z" id="j"/><path id="e" stroke="#515151" stroke-opacity=".651" stroke-width="1" stroke-linejoin="round" stroke-linecap="round" fill="none" d="M-6.1-1.4Q-5.15-.1-3.8 1 .25 4.1 5.9 4.1q1.3 0 2.5-.1 3.65 3.8 8.7 4.55-3.45-3-3.85-6.05Q14.5 1.85 15.6 1q4-3.05 4-7.55 0-4.35-4-7.45-3.55-2.7-8.2-2.95-.85-.1-1.5-.1-5.65 0-9.7 3.05-4 3.1-4 7.45 0 2.8 1.7 5.15z"/><path id="i" stroke="#515151" stroke-opacity=".651" stroke-width="1" stroke-linejoin="round" stroke-linecap="round" fill="none" d="M-6.1-1.4Q-5.15-.1-3.8 1 .25 4.1 5.9 4.1q1.3 0 2.5-.1 3.65 3.8 8.7 4.55-3.45-3-3.85-6.05Q14.5 1.85 15.6 1q4-3.05 4-7.55 0-4.35-4-7.45-3.55-2.7-8.2-2.95-.85-.1-1.5-.1-5.65 0-9.7 3.05-4 3.1-4 7.45 0 2.8 1.7 5.15z"/><linearGradient id="a" gradientUnits="userSpaceOnUse" x1="5.9" y1="6.8" x2="5.9" y2="-15.3" spreadMethod="pad"><stop offset="33.333%" stop-opacity=".4"/><stop offset="82.353%" stop-color="#FFF" stop-opacity=".251"/></linearGradient><linearGradient id="b" gradientUnits="userSpaceOnUse" x1="5.6" y1="-3.888" x2="5.6" y2="-17.713" spreadMethod="pad"><stop offset="20.392%" stop-color="#FFF" stop-opacity="0"/><stop offset="73.725%" stop-color="#FFF" stop-opacity=".949"/><stop offset="100%" stop-color="#FFF" stop-opacity=".651"/><stop offset="100%" stop-opacity=".251"/></linearGradient><linearGradient id="c" gradientUnits="userSpaceOnUse" x1="6.1" y1="-4.187" x2="6.1" y2="-18.012" spreadMethod="pad"><stop offset="20.392%" stop-color="#FFF" stop-opacity="0"/><stop offset="73.725%" stop-color="#FFF" stop-opacity=".949"/><stop offset="100%" stop-color="#FFF" stop-opacity=".651"/><stop offset="100%" stop-opacity=".251"/></linearGradient></defs><g transform="translate(24 26.8) scale(.76103)"><use xlink:href="#d"/><use xlink:href="#e"/></g><use xlink:href="#f" transform="translate(24 26.8) scale(.76103)"/><use xlink:href="#g" transform="translate(24 26.8) scale(.76103)"/><g><g transform="matrix(-.87398 0 0 .87398 18.15 20.85)"><use xlink:href="#h"/><use xlink:href="#i"/></g><use xlink:href="#j" transform="matrix(-.87398 0 0 .87398 18.15 20.85)"/></g></svg>