<svg xmlns="http://www.w3.org/2000/svg" preserveAspectRatio="none" width="19" height="19"><defs><linearGradient id="a" gradientUnits="userSpaceOnUse" x1="-2.7" y1="-.3" x2="2.7" y2="-.3" spreadMethod="pad"><stop offset="0%" stop-opacity="0"/><stop offset="71.765%" stop-color="#FFF" stop-opacity=".671"/></linearGradient></defs><path stroke="#666" stroke-linejoin="round" stroke-linecap="round" fill="none" d="M12.693 6.54L8.97 13.038l-.36.628-.992.726-1.308.977-.282-.162.12-1.111.483-2.4L10.354 5.2q-.026-.907.646-1.327l.108.062q-.16-.725.475-.879 1.313.321 2.34 1.341.221.617-.519.854l.108.062q-.013.827-.819 1.228L10.354 5.2M6.63 11.696q.662-.052.528.734.66.004.975.559.322-.563.836.048m-2.823 1.058q.797-.436 1.47.296m5.788-9.142l-2.296-1.316" stroke-width=".49928"/><path fill="#333" d="M6.146 14.096l-.119 1.111.282.162 1.308-.977q-.674-.732-1.47-.296z"/><path fill="#EAE9B4" d="M7.158 12.431q.134-.786-.528-.734l-.484 2.399q.797-.436 1.47.296l.993-.726.36-.628q-.514-.611-.836-.048-.315-.555-.975-.559z"/><path fill="#F33" d="M13.404 5.25q.74-.237.518-.854-1.026-1.02-2.339-1.34-.635.153-.475.878l2.296 1.316z"/><path fill="#999" d="M12.693 6.54q.806-.401.82-1.228l-.109-.062-2.296-1.316L11 3.872q-.672.42-.646 1.327l2.34 1.341z"/><g><path fill="#F5B62A" d="M8.133 12.99q.322-.563.836.048l3.724-6.498-2.339-1.34-3.724 6.497q.662-.052.528.734.66.004.975.559z"/></g><g><path fill="url(#a)" d="M1.2 7.6q0-1.3 1.5-.75v-15h-5.4v15q1.1-.75 1.65.75 1.15-.65 2.25 0z" transform="matrix(.43315 .2483 -.2483 .43315 9.5 9.4)"/></g></svg>
