<svg xmlns="http://www.w3.org/2000/svg" viewBox="0 0 19 19"><path d="M8.712-.074c-1.6.1-3.101.6-4.401 1.5l-1.5 1.2-.601.7C.71 5.028.01 7.128.01 9.429c0 2.6.9 4.801 2.8 6.702 0 0 .1.1.2.1 1.3 1.2 2.7 2 4.301 2.4.7.2 1.4.2 2.2.2.701 0 1.501-.1 2.101-.2 1.7-.4 3.201-1.2 4.601-2.5 1.9-1.9 2.801-4.101 2.801-6.702 0-2.1-.6-4-1.9-5.701-.3-.4-.6-.7-.9-1.1l-1.4-1.1C13.212.425 11.411-.175 9.411-.175h-.7z" fill="#d00912"/><path d="M17.114 3.727c-.3-.4-.6-.7-.9-1.1C17.813 15.93 12.712 19.43.81 13.228c.5 1 1.1 2 2 2.9 0 0 .1.1.2.1 1.3 1.201 2.7 2.001 4.401 2.401.7.2 1.4.2 2.1.2.701 0 1.501-.1 2.101-.2 1.7-.4 3.201-1.2 4.601-2.5 1.9-1.9 2.801-4.101 2.801-6.702 0-2.1-.6-4-1.9-5.701z" fill="#9a0912" fill-opacity=".176"/><path d="M6.411 13.229l8.802-3.7-8.802-1.601v5.301z" fill="#480912" fill-opacity=".6"/><path d="M7.011 12.029l7.202-3.201-7.202-2.2v5.4z" fill="#fff"/><path d="M2.41 1.726C7.311 6.627 12.112 11.73 16.614 17.23" fill="none" stroke="#999" stroke-linecap="round" stroke-linejoin="round" stroke-miterlimit="4.001" stroke-opacity=".647" stroke-width="1.00024"/><path d="M17.314 16.23l-.4.4L2.71 1.126l.4-.5L17.314 16.23z" fill="none" stroke="#fff" stroke-linecap="round" stroke-linejoin="round" stroke-miterlimit="4.001" stroke-width="1.00024"/></svg>