<svg xmlns="http://www.w3.org/2000/svg" viewBox="0 0 19 19"><path d="M8.7-.05c-1.6.1-3.1.6-4.4 1.5l-1.5 1.2-.6.7C.7 5.05 0 7.15 0 9.45c0 2.6.9 4.8 2.8 6.7l.2.2c1.3 1.2 2.7 2 4.3 2.4.7.2 1.4.2 2.2.2.7 0 1.5-.1 2.2-.2 1.7-.4 3.2-1.2 4.5-2.6 1.9-1.9 2.8-4.1 2.8-6.7 0-2.1-.6-4-1.9-5.7-.2-.3-.5-.6-.9-1l-1.3-1.1c-1.6-1.1-3.4-1.7-5.4-1.7h-.8z" fill="#d00912"/><path d="M17.1 3.85c-.2-.4-.5-.7-.9-1.1 1.6 13.3-3.5 16.8-15.4 10.6.5 1 1.1 2 2 2.8l.2.2c1.3 1.2 2.7 2 4.4 2.4.7.2 1.4.2 2.2.2.7 0 1.4-.1 2.2-.2 1.6-.4 3.1-1.3 4.4-2.6 1.9-1.9 2.8-4.1 2.8-6.7 0-2.1-.6-4-1.9-5.6z" fill="#9a0912" fill-opacity=".176"/><path d="M6.4 7.95v5.3l8.8-3.7-8.8-1.6z" fill="#480912" fill-opacity=".6"/><path d="M7 12.05l7.2-3.2L7 6.65v5.4z" fill="#fff"/></svg>