<svg xmlns="http://www.w3.org/2000/svg" xmlns:xlink="http://www.w3.org/1999/xlink" preserveAspectRatio="none" width="40" height="40"><defs><g id="a"><path fill="#333" fill-opacity=".247" d="M33.75 6.15q-.85-.65-1.8-.55-1-.1-1.7.65L18.6 16.5l-.55-1.7q-.2-.7-.85-1.2-.65-.55-1.45-.55-.75-.1-1.55.3-.65.4-.9 1.2l-8.05 17.1q-.5.8-.2 1.75.2.8 1.05 1.5.65.5 1.6.5.95-.05 1.6-.7l7.7-6.75.25.7q.35.95 1.3 1.45.85.4 1.85.25.9-.35 1.5-1.2l12.35-19.5q.5-.95.35-1.85-.2-1.05-.85-1.65m.2 1.7q.15.7-.3 1.35L21.3 28.9q-.4.55-1.05.75-.85.2-1.5-.15-.65-.4-.8-1.05l-.7-1.55-8.3 7.3q-.65.5-1.25.5-.65 0-1.25-.35-.5-.45-.7-1.15-.2-.65.15-1.2l7.9-17.2q.25-.6.85-.85.4-.35 1.05-.25.65.05 1.05.4.5.35.75.95l.75 2.55L30.7 6.65q.55-.4 1.25-.4.8-.1 1.3.4.55.5.7 1.2z"/><path fill="#333" fill-opacity=".498" d="M33.65 9.2q.45-.65.3-1.35-.15-.7-.7-1.2-.5-.5-1.3-.4-.7 0-1.25.4L18.25 17.6l-.75-2.55q-.25-.6-.75-.95-.4-.35-1.05-.4-.65-.1-1.05.25-.6.25-.85.85L5.9 32q-.35.55-.15 1.2.2.7.7 1.15.6.35 1.25.35.6 0 1.25-.5l8.3-7.3.7 1.55q.15.65.8 1.05.65.35 1.5.15.65-.2 1.05-.75L33.65 9.2M33.3 8q0 .35-.2.85l-12.3 19.6q-.2.5-.7.55-.55.1-.9 0-.6-.35-.75-.85l-.85-2.45-9.05 8q-.45.3-.85.35-.5 0-.85-.35-.4-.2-.6-.65-.05-.5.2-.9L14.5 15.1q.15-.4.5-.55.2-.3.65-.3.4 0 .85.35.15.2.25.65l1.2 3.5L31.2 7.15q.25-.35.75-.35t.85.35q.35.35.5.85z"/><path fill="#333" fill-opacity=".733" d="M33.1 8.85q.2-.5.2-.85-.15-.5-.5-.85t-.85-.35q-.5 0-.75.35l-13.25 11.6-1.2-3.5q-.1-.45-.25-.65-.45-.35-.85-.35-.45 0-.65.3-.35.15-.5.55L6.45 32.15q-.25.4-.2.9.2.45.6.65.35.35.85.35.4-.05.85-.35l9.05-8 .85 2.45q.15.5.75.85.35.1.9 0 .5-.05.7-.55l12.3-19.6m-.45-.7q.1.15-.05.4L20.25 28.1q-.15.3-.45.35-.2 0-.4-.05-.2-.15-.3-.35l-1.25-3.5-9.8 8.65q-.25.2-.45.2-.15 0-.35-.05-.2-.2-.2-.4-.1-.3 0-.45L15 15.45q.05-.25.2-.35.15-.05.45-.05.1 0 .4.05.1.15.15.45L17.7 20 31.6 7.7q.15-.2.35-.1.3-.1.45.1.2.1.25.45z"/><path fill="#FF0" d="M32.6 8.55q.15-.25.05-.4-.05-.35-.25-.45-.15-.2-.45-.1-.2-.1-.35.1L17.7 20l-1.5-4.45q-.05-.3-.15-.45-.3-.05-.4-.05-.3 0-.45.05-.15.1-.2.35L7.05 32.5q-.1.15 0 .45 0 .2.2.4.2.05.35.05.2 0 .45-.2l9.8-8.65 1.25 3.5q.1.2.3.35.2.05.4.05.3-.05.45-.35L32.6 8.55z"/></g></defs><use xlink:href="#a"/></svg>