<svg xmlns="http://www.w3.org/2000/svg" xmlns:xlink="http://www.w3.org/1999/xlink" preserveAspectRatio="none" width="40" height="40"><defs><path id="a" stroke="#FFF" stroke-width="1" stroke-linejoin="round" stroke-linecap="round" fill="none" d="M15.8 28q-1.2.2-2.35.2-1.2 0-2.15-.05-3.05 3.05-7.15 3.75 2.8-2.45 3.15-5.05-.95-.55-1.85-1.25Q2.1 23 2.1 19.35q0-3.7 3.35-6.2 3.25-2.55 8-2.55 4.7 0 8.05 2.55 2.15 1.6 2.7 3.45m6.2 2.1q-1-.2-2.15-.2-.3 0-.65.1-3.65.05-6.3 2.15-2.95 2.15-2.95 5.35 0 1.9 1 3.45.75 1.1 1.95 2 2.85 2.25 6.95 2.25 1 0 1.85-.15.1.2.3.45 2.55 2.3 5.9 2.85-2.45-2.1-2.75-4.35.85-.45 1.65-1.05 2.85-2.25 2.85-5.45t-2.85-5.35q-2.05-1.6-4.8-2.05zm-18 7q-4-1.25-5.6-3.2-1.55-2-1.15-5.3M30.4 31.5q5.15-2.35 4.6-7.25"/></defs><use xlink:href="#a"/></svg>