<svg xmlns="http://www.w3.org/2000/svg" xmlns:xlink="http://www.w3.org/1999/xlink" preserveAspectRatio="none" width="20" height="20"><defs><path fill="url(#a)" d="M0 12h9.2V6.25H0V12z" id="f"/><path fill="#0F0" d="M8.2 0H0v4.75h8.2V0z" id="j"/><path id="c" stroke="#444" stroke-opacity=".451" stroke-width="8" stroke-linejoin="round" stroke-linecap="round" fill="none" d="M46.85-87.35h4.75l25.75 28.4h1.05v137.9q0 8.4-8.95 8.4H-70q-8.4 0-8.4-8.4v-157.9q0-8.4 8.4-8.4H46.85v19.45q0 5.25 7.35 8.95h23.15l1.05.55"/><path id="d" stroke="#39F" stroke-width="8" stroke-linejoin="round" stroke-linecap="round" fill="none" d="M-60.55-49.45H-6.3M-60.55-3.7h48.45m-48.45-15.25H13.7m-74.25-15.8H13.7"/><path id="e" stroke="#666" stroke-width="2" stroke-linejoin="round" stroke-linecap="round" fill="none" d="M.9 6.425v-2.4q.003-1.526 1.075-2.6Q3.038.337 4.55.325q1.524.012 2.6 1.1 1.072 1.074 1.075 2.6.018.34.05 2.4"/><path id="g" stroke="#F90" stroke-width="1" stroke-linejoin="round" stroke-linecap="round" fill="none" d="M0 9.125h9.2"/><path id="h" stroke="#FFF" stroke-width="1" stroke-linejoin="round" stroke-linecap="round" fill="none" d="M.9 3q.17-1.095.975-1.925Q2.951 0 4.475 0q.71 0 1.325.225"/><path id="k" stroke="#484848" stroke-width="1" stroke-linejoin="round" stroke-linecap="round" fill="none" d="M9.2 6.25V12H0V6.25h9.2z"/><linearGradient id="a" gradientUnits="userSpaceOnUse" x1="0" y1="9.1" x2="9.2" y2="9.1" spreadMethod="pad"><stop offset=".784%" stop-color="#FFF"/><stop offset="51.765%" stop-color="#F90"/><stop offset="100%" stop-color="#FFF"/></linearGradient><filter id="i" x="-20%" y="-20%" width="140%" height="140%" color-interpolation-filters="sRGB"><feColorMatrix in="SourceGraphic" values="1 0 0 0 0 0 1 0 0 0 0 0 1 0 0 0 0 0 0 0" result="result1"/></filter><g id="b"><path fill="#DEDEDE" d="M78.4-42.65Q49.45-36.3 24.2-25.8 2.1-15.8-16.3-2.1-30 8.4-42.1 20.55-63.15 43.7-78.4 73.7v5.25q0 8.4 8.4 8.4H69.45q8.95 0 8.95-8.4v-121.6z"/><path fill="#FFF" d="M77.35-58.95H54.2q-7.35-3.7-7.35-8.95v-19.45H-70q-8.4 0-8.4 8.4V73.7q15.25-30 36.3-53.15Q-30 8.4-16.3-2.1 2.1-15.8 24.2-25.8q25.25-10.5 54.2-16.85V-58.4l-1.05-.55z"/><path fill="#CBCBCB" d="M77.35-58.95L51.6-87.35h-4.75v19.45q0 5.25 7.35 8.95h23.15z"/></g></defs><g transform="matrix(.1 0 0 .1 9.95 9.95)"><use xlink:href="#b"/><use xlink:href="#c"/></g><use xlink:href="#d" transform="matrix(.1 0 0 .1 9.95 9.95)"/><use xlink:href="#e" transform="translate(10.42 9.58) scale(.67073)"/><use xlink:href="#f" transform="translate(10.42 9.58) scale(.67073)"/><g transform="translate(10.42 9.58) scale(.67073)"><use xlink:href="#g"/><use xlink:href="#h"/></g><use filter="url(#i)" xlink:href="#j" transform="matrix(.7625 0 0 .81344 10.353 13.772)"/><use xlink:href="#k" transform="translate(10.42 9.58) scale(.67073)"/></svg>