<svg xmlns="http://www.w3.org/2000/svg" xmlns:xlink="http://www.w3.org/1999/xlink" preserveAspectRatio="none" width="40" height="40"><defs><path fill="#FFF" d="M14.9 24.15V27h9.25v-2.85H14.9m9.25 0V21.2H14.9v2.95h9.25z" id="a"/><path id="b" stroke="#FFF" stroke-width="1" stroke-linejoin="round" stroke-linecap="round" fill="none" d="M30.6 14.4q4.65 3.1 4.65 7.6 0 4.45-4.65 7.6-4.6 3.15-11.1 3.15-1.55 0-2.95-.05-4.15 3.75-9.9 4.55 3.95-3 4.35-6.15-1.35-.6-2.6-1.5-4.65-3.15-4.65-7.6 0-4.5 4.65-7.6 4.6-3.15 11.1-3.15t11.1 3.15zm-15.7 9.75V21.2h9.25V27H14.9v-2.85h9.25m-7.6-3.6V18.8q0-1.1.9-1.9.8-.8 2-.8t2.1.8q.85.8.9 1.9v1.75"/></defs><g><use xlink:href="#a"/><use xlink:href="#b"/></g></svg>