<svg xmlns="http://www.w3.org/2000/svg" xmlns:xlink="http://www.w3.org/1999/xlink" preserveAspectRatio="none" width="20" height="20"><defs><path id="b" stroke="#000" stroke-width="4" stroke-linejoin="round" stroke-linecap="round" fill="none" d="M126 24.8L128.45 0m10.35 43.75l20.85-23.65M146.1 60.85L186.5 49m-37.4 30.4l30.45 8.85m-31 14.25l15.4 19.55"/><path id="c" stroke="#333" stroke-width="4" stroke-linejoin="round" stroke-linecap="round" fill="none" d="M41.35 76.4l7.15-2.6Q85.45 52 104.25 16.5l22.35 61.8 15 42.05q-50.3-21.95-89-12.6-1.7.6-3.55.95l-8.45 3.2 4.5 26.65-11.45 3.2-9.95-23.65-10.5 3.95Q-6.7 110 3.4 90.5l37.95-14.1zM23.7 118.1l16.9-6.2"/><g id="a"><path fill="#E6E6E6" d="M45.1 138.55l-4.5-26.65-16.9 6.2 9.95 23.65 11.45-3.2z"/><path fill="#D9D9D9" d="M50.75 102.15l1.85 5.6q38.7-9.35 89 12.6l-15-42.05-75.85 23.85z"/><path fill="#EB373B" d="M41.35 76.4L3.4 90.5q-10.1 19.5 9.8 31.55l10.5-3.95 16.9-6.2 8.45-3.2q1.85-.35 3.55-.95l-1.85-5.6-9.4-25.75z"/><path fill="#EBEBEB" d="M126.6 78.3l-22.35-61.8Q85.45 52 48.5 73.8l-7.15 2.6 9.4 25.75L126.6 78.3z"/></g></defs><g transform="matrix(.1 0 0 .1 .8 2.25)"><use xlink:href="#a"/><use xlink:href="#b"/><use xlink:href="#c"/></g></svg>