<svg xmlns="http://www.w3.org/2000/svg" xmlns:xlink="http://www.w3.org/1999/xlink" preserveAspectRatio="none" width="15" height="15"><defs><linearGradient id="a" gradientUnits="userSpaceOnUse" x1="7.45" y1="11.6" x2="7.45" y2="3.4" spreadMethod="pad"><stop offset="0%" stop-color="#ADADAD"/><stop offset="100%" stop-color="#FFF"/></linearGradient><path fill="url(#a)" d="M7.5 13.3q2.45 0 4.1-1.7 1.7-1.65 1.7-4.1 0-2.4-1.7-4.05-1.65-1.7-4.1-1.7-2.4 0-4.05 1.7-1.7 1.65-1.7 4.05v5.8H7.5z" id="b"/><path fill-opacity=".667" d="M10.7 10.15q.55-2.5.1-4.9-.5-2.65-2.35-4.15l-.5-.3Q7.15.35 6.4.25 3.35-.6 1.25 1.9-.396 3.846-.3 6.35q.138 2.512 1.95 3.8 1.816 1.334 4.5.15-.8 3.5-2.05 5.4-1.35 1.85-2.4 2.5 1.6.35 3.3-.4 1.65-.8 3.4-2.85 1.7-2.1 2.3-4.8z" id="d"/><path id="c" stroke="#000" stroke-opacity=".498" stroke-width="1.2" stroke-linejoin="round" stroke-linecap="round" fill="none" d="M13.253 7.5q0 2.393-1.68 4.031-1.638 1.68-4.031 1.68H1.788V7.5q0-2.394 1.638-4.074 1.68-1.68 4.116-1.68 2.393 0 4.031 1.68 1.68 1.68 1.68 4.074z"/></defs><use xlink:href="#b"/><use xlink:href="#c" transform="matrix(1 0 0 1 .024 .024)"/><use xlink:href="#d" transform="matrix(.28552 0 0 .28493 3.85 5.2)"/><use xlink:href="#d" transform="matrix(.28552 0 0 .28493 8.05 5.2)"/></svg>