<svg xmlns="http://www.w3.org/2000/svg" xmlns:xlink="http://www.w3.org/1999/xlink" preserveAspectRatio="none" width="19" height="19"><defs><radialGradient id="a" gradientUnits="userSpaceOnUse" cx="0" cy="0" r="1.512" fx="0" fy="0" gradientTransform="matrix(1 0 0 1.01653 11.25 22.6)" spreadMethod="pad"><stop offset="0%" stop-color="#FFF"/><stop offset="100%"/></radialGradient><radialGradient id="b" gradientUnits="userSpaceOnUse" cx="0" cy="0" r="1.513" fx="0" fy="0" gradientTransform="matrix(1 0 0 1.01653 6.7 20.6)" spreadMethod="pad"><stop offset="0%" stop-color="#FFF"/><stop offset="100%"/></radialGradient><radialGradient id="c" gradientUnits="userSpaceOnUse" cx="0" cy="0" r="1.513" fx="0" fy="0" gradientTransform="matrix(1 0 0 1.01653 2.5 19.2)" spreadMethod="pad"><stop offset="0%" stop-color="#FFF"/><stop offset="100%"/></radialGradient><g id="d"><path fill="#999" d="M15.4 12.1L15 26.5l6.7-6.5V6.3l-6.3 5.8z"/><path fill="#CCC" d="M.5 5.2q7.846-7.639 14.9 6.9l6.3-5.8Q11.496-8.695.5 5.2m14.9 6.9Q8.346-2.439.5 5.2v16.7L15 26.5l.4-14.4z"/></g><g id="f"><path fill="#999" d="M8.7 13l4.1 1.4q-.194-5.827-4.1-7.2V13m-2-6.7q-3.315.259-4.3 4.4l3.9 1.5.4-.3V6.3z"/><path fill="url(#a)" d="M11.75 24.5q.518.006.85-.45.394-.417.4-1.05-.006-.62-.4-1.05-.332-.443-.85-.45-.53.007-.9.45-.356.43-.35 1.05-.006.633.35 1.05.37.456.9.45z"/><path fill="url(#b)" d="M6.3 19.95q-.356.43-.35 1.05-.006.633.35 1.05.37.456.9.45.518.006.85-.45.394-.417.4-1.05-.006-.62-.4-1.05-.332-.443-.85-.45-.53.007-.9.45z"/><path fill="url(#c)" d="M3.85 18.55q-.332-.443-.85-.45-.53.007-.9.45-.356.43-.35 1.05-.006.633.35 1.05.37.456.9.45.518.006.85-.45.394-.417.4-1.05-.006-.62-.4-1.05z"/></g><path fill="#00F" d="M-.65 6.8q-.406-.394-1.05-.4-.606.006-1.05.4-.419.469-.45 1.1.031.637.45 1.05.444.45 1.05.45.662 0 1.05-.45.475-.412.45-1.05.025-.631-.45-1.1m12.45 0q-.406-.394-1.05-.4-.606.006-1.05.4-.419.469-.45 1.1.031.637.45 1.05.444.45 1.05.45.662 0 1.05-.45.475-.412.45-1.05.025-.631-.45-1.1m5-1.4q-.406-.394-1.05-.4-.606.006-1.05.4-.419.469-.45 1.1.031.638.45 1.05.444.45 1.05.45.663 0 1.05-.45.475-.412.45-1.05.025-.631-.45-1.1z" id="k"/><path id="e" stroke="#999" stroke-width="1" stroke-linejoin="round" stroke-linecap="round" fill="none" d="M15.4 12.1Q8.346-2.439.5 5.2v16.7L15 26.5l.4-14.4 6.3-5.8Q11.496-8.695.5 5.2M15 26.5l6.7-6.5V6.3"/><path id="g" stroke="#999" stroke-width="1" stroke-linejoin="round" stroke-linecap="round" fill="none" d="M6.7 6.3v5.6m6.1 2.5q-.194-5.827-4.1-7.2"/><path id="h" stroke="#000" stroke-width="1" stroke-linejoin="round" stroke-linecap="round" fill="none" d="M2.4 10.7q.985-4.141 4.3-4.4m9.8 11.1l3.5-3.2m-3.4 6.6l3.5-3.2m-3.6-3.3l3.5-3.2m-17.6 5L13 20.5M8.7 7.2V13"/><path id="i" stroke="#FFF" stroke-width="1" stroke-linejoin="round" stroke-linecap="round" fill="none" d="M6.3 12.2l-3.9-1.5M8.7 13l4.1 1.4"/><path id="j" stroke="#000" stroke-width="2" stroke-linejoin="round" stroke-linecap="round" fill="none" d="M2.7 13.625l10 4.2"/><path id="l" stroke="#00F" stroke-width="1" stroke-linejoin="round" stroke-linecap="round" fill="none" d="M16.8 5.4V1l-5 1.5v4.3m-12.45 0V2.5q1.776.573 2.4 3.45"/></defs><g transform="matrix(.63239 0 0 .62856 3.4 1.85)"><use xlink:href="#d"/><use xlink:href="#e"/></g><g transform="matrix(.63239 0 0 .62856 3.4 1.85)"><use xlink:href="#f"/><use xlink:href="#g"/><use xlink:href="#h"/><use xlink:href="#i"/><use xlink:href="#j"/></g><g transform="matrix(.63239 0 0 .62856 3.4 1.85)"><use xlink:href="#k"/><use xlink:href="#l"/></g></svg>
