<svg version="1.1" id="Camada_1" xmlns="http://www.w3.org/2000/svg" x="0" y="0" viewBox="0 0 19 19" xml:space="preserve"><style>.st0{fill:#999}.st2{fill:none;stroke:#999;stroke-linecap:round;stroke-linejoin:round}</style><g transform="matrix(.63239 0 0 .62856 3.4 1.85)"><g id="d"><path class="st0" d="M15.4 12.1L15 26.5l6.7-6.5V6.3l-6.3 5.8z"/><path d="M.5 5.2C5.7.1 10.7 2.4 15.4 12.1l6.3-5.8C14.9-3.7 7.8-4.1.5 5.2m14.9 6.9C10.7 2.4 5.7.1.5 5.2v16.7L15 26.5l.4-14.4z" fill="#ccc"/></g></g><g transform="matrix(.63239 0 0 .62856 3.4 1.85)"><path id="e" class="st2" d="M15.4 12.1C10.7 2.4 5.7.1.5 5.2v16.7L15 26.5l.4-14.4 6.3-5.8C14.9-3.7 7.8-4.1.5 5.2M15 26.5l6.7-6.5V6.3"/></g><g transform="matrix(.63239 0 0 .62856 3.4 1.85)"><g id="f"><path class="st0" d="M8.7 13l4.1 1.4c-.1-3.9-1.5-6.3-4.1-7.2V13m-2-6.7c-2.2.2-3.6 1.6-4.3 4.4l3.9 1.5.4-.3V6.3z"/><radialGradient id="SVGID_1_" cx="259.358" cy="-340.784" r="1.512" gradientTransform="matrix(.6324 0 0 -.639 -152.765 -195.144)" gradientUnits="userSpaceOnUse"><stop offset="0" stop-color="#fff"/><stop offset="1"/></radialGradient><path d="M11.8 24.5c.3 0 .6-.1.9-.5.3-.3.4-.6.4-1s-.1-.8-.4-1c-.2-.3-.5-.4-.9-.5-.4 0-.7.2-.9.5-.2.3-.4.6-.4 1s.1.8.4 1c.2.4.5.5.9.5z" fill="url(#SVGID_1_)"/><radialGradient id="SVGID_2_" cx="259.358" cy="-340.784" r="1.513" gradientTransform="matrix(.6324 0 0 -.639 -157.315 -197.144)" gradientUnits="userSpaceOnUse"><stop offset="0" stop-color="#fff"/><stop offset="1"/></radialGradient><path d="M6.3 19.9c-.2.3-.4.6-.3 1 0 .4.1.8.3 1 .2.3.5.5.9.5.3 0 .6-.1.8-.5.3-.3.4-.6.4-1s-.1-.8-.4-1c-.2-.3-.5-.4-.8-.5-.4.1-.7.3-.9.5z" fill="url(#SVGID_2_)"/><radialGradient id="SVGID_3_" cx="259.358" cy="-340.784" r="1.513" gradientTransform="matrix(.6324 0 0 -.639 -161.515 -198.544)" gradientUnits="userSpaceOnUse"><stop offset="0" stop-color="#fff"/><stop offset="1"/></radialGradient><path d="M3.9 18.5c-.2-.3-.5-.4-.8-.5-.4 0-.7.2-.9.5-.2.3-.4.6-.4 1s.1.8.4 1c.1.5.4.6.8.6.3 0 .6-.1.8-.5.3-.3.4-.6.4-1s-.1-.8-.3-1.1z" fill="url(#SVGID_3_)"/></g></g><g transform="matrix(.63239 0 0 .62856 3.4 1.85)"><path id="g" class="st2" d="M6.7 6.3v5.6m6.1 2.5c-.1-3.9-1.5-6.3-4.1-7.2"/></g><g transform="matrix(.63239 0 0 .62856 3.4 1.85)"><path id="h" d="M2.4 10.7c.7-2.8 2.1-4.2 4.3-4.4m9.8 11.1l3.5-3.2m-3.4 6.6l3.5-3.2m-3.6-3.3l3.5-3.2m-17.6 5L13 20.5M8.7 7.2V13" fill="none" stroke="#000" stroke-width=".7" stroke-linecap="round" stroke-linejoin="round"/></g><g transform="matrix(.63239 0 0 .62856 3.4 1.85)"><path id="i" d="M6.3 12.2l-3.9-1.5M8.7 13l4.1 1.4" fill="none" stroke="#fff" stroke-linecap="round" stroke-linejoin="round"/></g><g transform="matrix(.63239 0 0 .62856 3.4 1.85)"><path id="j" d="M2.7 13.6l10 4.2" fill="none" stroke="#000" stroke-width=".5" stroke-linecap="round" stroke-linejoin="round"/></g><g><path id="k" d="M3 6.1c-.2-.1-.4-.2-.7-.2-.2 0-.5.1-.6.2-.2.2-.3.5-.3.7 0 .3.1.5.3.7.2.2.4.3.7.3.3 0 .5-.1.7-.3.2-.2.3-.4.3-.7-.1-.2-.2-.5-.4-.7m7.9 0c-.2-.2-.4-.2-.7-.3-.3.1-.5.2-.7.3-.1.2-.2.5-.3.7 0 .3.1.5.3.7.2.2.4.3.7.3.3 0 .5-.1.7-.3.2-.2.3-.4.3-.7 0-.2-.1-.5-.3-.7m3.1-.9c-.1-.1-.4-.2-.6-.2-.3 0-.5.1-.7.3-.2.2-.3.4-.3.7 0 .3.1.5.3.7.2.2.4.3.7.3.3 0 .5-.1.7-.3.2-.2.3-.4.3-.7-.1-.3-.2-.6-.4-.8z" fill="#00f"/></g><path id="l" d="M14 5.2V1.8l-3.2.7v3.6M3 6.1V2.5c.7.2 1.1-.1 1.5 2.4" fill="none" stroke="#00f" stroke-linecap="round" stroke-linejoin="round"/></svg>