<svg xmlns="http://www.w3.org/2000/svg" xmlns:xlink="http://www.w3.org/1999/xlink" preserveAspectRatio="none" width="40" height="40"><defs><path id="b" stroke="#000" stroke-opacity=".451" stroke-width="1" stroke-linejoin="round" stroke-linecap="round" fill="none" d="M25.6 0l-4.9 7.25h8.5L25.6 0h-11l6.1 7.25.4.5-5.1 23.3 13.2-23.8M0 7.25L3.6 0h11L8.55 7.25H20.7m-12.15 0l-.45.5 5 23.4 1.4 2.6 1.5-2.7M0 7.25h8.55L3.6 0m9.5 31.15L0 7.25"/><g id="a"><path fill="#70BCC1" d="M14.6 0L8.55 7.25H20.7L14.6 0z"/><path fill="#D1DCE1" d="M3.6 0l4.95 7.25L14.6 0h-11z"/><path fill="#8CB8C0" d="M8.1 7.75l.45-.5H0l13.1 23.9-5-23.4z"/><path fill="#79A6AF" d="M3.6 0L0 7.25h8.55L3.6 0z"/><path fill="#4E8F98" d="M21.1 7.75l-.4-.5H8.55l-.45.5 5 23.4 1.4 2.6 1.5-2.7 5.1-23.3z"/><path fill="#5068A3" d="M29.2 7.25h-8.5l.4.5-5.1 23.3 13.2-23.8M25.6 0l-4.9 7.25h8.5L25.6 0z"/><path fill="#4C7DA0" d="M20.7 7.25L25.6 0h-11l6.1 7.25z"/></g></defs><g transform="translate(7.5 6.2) scale(.88014)"><use xlink:href="#a"/><use xlink:href="#b"/></g></svg>