<svg xmlns="http://www.w3.org/2000/svg" xmlns:xlink="http://www.w3.org/1999/xlink" preserveAspectRatio="none" width="19" height="19"><defs><radialGradient id="a" gradientUnits="userSpaceOnUse" cx="0" cy="0" r="6.15" fx="0" fy="0" gradientTransform="translate(7.3 7.4)" spreadMethod="pad"><stop offset="0%" stop-color="#4DE6E6" stop-opacity=".549"/><stop offset="100%" stop-color="#FFF"/></radialGradient><g id="b"><path d="M7.3 14.6q-.9 0-1.7-.2V24q1.75 1.2 3.5 0v-9.6q-.85.2-1.8.2z"/><path fill="#CCC" d="M14.6 7.3q0-3-2.15-5.15Q10.3 0 7.3 0q-3 0-5.15 2.15Q0 4.3 0 7.3q0 3 2.15 5.15 1.5 1.5 3.45 1.95.8.2 1.7.2.95 0 1.8-.2 1.9-.45 3.35-1.95Q14.6 10.3 14.6 7.3m-2.05-1.8q.276.697.3 1.45.05.217.05.45 0 2.3-1.65 3.9-1.65 1.65-3.95 1.65-2.3 0-3.95-1.65Q1.7 9.7 1.7 7.4q0-.97.3-1.85.369-1.064 1.2-2l.15-.1Q5 1.8 7.3 1.8q2.3 0 3.95 1.65l1.15 1.6.15.45z"/><path fill="url(#a)" d="M11.25 11.3q1.65-1.6 1.65-3.9 0-.233-.05-.45-6.007-3.595-11.1 0 .036-.718.25-1.4-.3.88-.3 1.85 0 2.3 1.65 3.9Q5 12.95 7.3 12.95q2.3 0 3.95-1.65z"/><path fill="#C4FFFF" fill-opacity=".812" d="M12.85 6.95q-.024-.753-.3-1.45l-.15-.45-1.15-1.6Q9.6 1.8 7.3 1.8 5 1.8 3.35 3.45l-.15.1q-.124.19-.25.35-.179.214-.35.45L2 5.55q-.214.682-.25 1.4 5.093-3.595 11.1 0z"/></g></defs><use xlink:href="#b" transform="rotate(-43.599 7.95 5.138) scale(.81911)"/></svg>