<svg xmlns="http://www.w3.org/2000/svg" xmlns:xlink="http://www.w3.org/1999/xlink" preserveAspectRatio="none" width="40" height="40"><defs><path fill="url(#a)" d="M24.55 26.35q4.75 0 8.1-3.4 3.4-3.35 3.4-8.1 0-4.8-3.4-8.15-3.35-3.35-8.1-3.35T16.4 6.7q-3.35 3.35-3.35 8.15 0 4.75 3.35 8.1 3.4 3.4 8.15 3.4z" id="d"/><path id="c" stroke="#333" stroke-width="1" stroke-linejoin="round" stroke-linecap="round" fill="none" d="M55.3 48.45q1.55 1.55-.35 3.45l-3.65 3.65q-1.85 1.85-3.4.3l-11-11q-1.55-1.55.3-3.4l.25-.25-2.9-3q-5.65 4.5-13.2 4.5-8.85 0-15.1-6.25T0 21.35q0-8.85 6.25-15.1T21.35 0q8.85 0 15.1 6.25t6.25 15.1q0 7.85-4.9 13.65l2.95 2.9.1-.1q1.9-1.9 3.45-.35l11 11zM39.2 21.2q0 7.4-5.25 12.6-5.2 5.25-12.6 5.25-7.4 0-12.65-5.25-5.2-5.2-5.2-12.6 0-7.4 5.2-12.65 5.25-5.2 12.65-5.2t12.6 5.2Q39.2 13.8 39.2 21.2z"/><radialGradient id="a" gradientUnits="userSpaceOnUse" cx="0" cy="0" r="11.8" fx="0" fy="0" gradientTransform="translate(24.55 14.85)" spreadMethod="pad"><stop offset="10.196%" stop-color="#FFF"/><stop offset="100%" stop-color="#FFF" stop-opacity="0"/></radialGradient><g id="b"><path fill="#FFF" d="M55.3 48.45l-11-11q-1.55-1.55-3.45.35l-.1.1L37.8 35q4.9-5.8 4.9-13.65 0-8.85-6.25-15.1T21.35 0Q12.5 0 6.25 6.25T0 21.35q0 8.85 6.25 15.1t15.1 6.25q7.55 0 13.2-4.5l2.9 3-.25.25q-1.85 1.85-.3 3.4l11 11q1.55 1.55 3.4-.3l3.65-3.65q1.9-1.9.35-3.45M33.95 8.55Q39.2 13.8 39.2 21.2t-5.25 12.6q-5.2 5.25-12.6 5.25-7.4 0-12.65-5.25-5.2-5.2-5.2-12.6 0-7.4 5.2-12.65 5.25-5.2 12.65-5.2t12.6 5.2M10.8 29q1.3 2 3.25 3.45 5.45 4.15 12.3-.7Q12 31.25 9.45 15q-3.6 6.6 1.35 14z"/><path fill="#6CF" fill-opacity=".561" d="M39.2 21.2q0-7.4-5.25-12.65-5.2-5.2-12.6-5.2-7.4 0-12.65 5.2Q3.5 13.8 3.5 21.2t5.2 12.6q5.25 5.25 12.65 5.25t12.6-5.25q5.25-5.2 5.25-12.6M14.05 32.45Q12.1 31 10.8 29q-4.95-7.4-1.35-14Q12 31.25 26.35 31.75q-6.85 4.85-12.3.7z"/></g></defs><g transform="matrix(.51764 0 0 .51764 5.5 5.6)"><use xlink:href="#b"/><use xlink:href="#c"/></g><use xlink:href="#d" transform="matrix(.51764 0 0 .51764 5.5 5.6)"/></svg>