<svg xmlns="http://www.w3.org/2000/svg" xmlns:xlink="http://www.w3.org/1999/xlink" preserveAspectRatio="none" width="40" height="40"><defs><g id="a"><path fill="#96989D" d="M38.7 22.4q-.2 1.15-.65 2.3-1.25 3.5-4.75 6.35-5.55 4.6-13.5 4.6t-13.55-4.6q-3.4-2.85-4.7-6.35-.45-1.15-.65-2.3l-.15 5q1.4 3.55 4.95 6.35 5.8 4.6 14 4.6 8.25 0 14-4.6 3.65-2.8 5-6.35v-5z"/><path fill="#FFF" d="M38.9 20q0-6.45-5.6-11-5.55-4.6-13.5-4.6T6.25 9Q.7 13.55.7 20q0 1.2.2 2.4.2 1.15.65 2.3 1.3 3.5 4.7 6.35 5.6 4.6 13.55 4.6 7.95 0 13.5-4.6 3.5-2.85 4.75-6.35.45-1.15.65-2.3.1-.85.2-1.85V20z"/></g><g id="c"><path fill="#BA2215" d="M36.3 13.5q0-4.8-4.8-8.2-4.8-3.35-11.55-3.35-6.8 0-11.6 3.35-4.7 3.4-4.7 8.2 0 .85.1 1.75.75 3.65 4.6 6.4 3.15 2.25 7.15 3.05 2.1.35 4.45.35 2.3 0 4.55-.35 1.9-.4 3.55-1.15 1.85-.7 3.45-1.9 3.9-2.75 4.6-6.4.2-.9.2-1.75z"/><path fill="#7C1612" d="M30.4 24.7l1.1-.9q4.45-3.5 4.6-8.55-.7 3.65-4.6 6.4-1.6 1.2-3.45 1.9-1.65.75-3.55 1.15-2.25.35-4.55.35-2.35 0-4.45-.35-4-.8-7.15-3.05-3.85-2.75-4.6-6.4.15 5.05 4.6 8.55.5.45 1.1.9 1.1.8 2.4 1.35 3.65 1.65 8.1 1.65 6 0 10.45-3z"/></g><path fill="#FFF" d="M5.45 9.85q2.25 10.45 20.75 7L27.45 21l7.65-9.85-11.45-5.7 1.05 4.4q-16.6 4.35-19.25 0z" id="e"/><path id="b" stroke="#000" stroke-width="1" stroke-linejoin="round" stroke-linecap="round" fill="none" d="M.9 22.4Q.7 21.2.7 20q0-6.45 5.55-11 5.6-4.6 13.55-4.6 7.95 0 13.5 4.6 5.6 4.55 5.6 11v.55q-.1 1-.2 1.85v5q-1.35 3.55-5 6.35-5.75 4.6-14 4.6-8.2 0-14-4.6-3.55-2.8-4.95-6.35l.15-5q.2 1.15.65 2.3 1.3 3.5 4.7 6.35 5.6 4.6 13.55 4.6 7.95 0 13.5-4.6 3.5-2.85 4.75-6.35.45-1.15.65-2.3"/><path id="d" stroke="#000" stroke-width="1" stroke-linejoin="round" stroke-linecap="round" fill="none" d="M36.1 15.25q-.15 5.05-4.6 8.55l-1.1.9q-4.45 3-10.45 3-4.45 0-8.1-1.65-1.3-.55-2.4-1.35-.6-.45-1.1-.9-4.45-3.5-4.6-8.55-.1-.9-.1-1.75 0-4.8 4.7-8.2 4.8-3.35 11.6-3.35 6.75 0 11.55 3.35 4.8 3.4 4.8 8.2 0 .85-.2 1.75-.7 3.65-4.6 6.4-1.6 1.2-3.45 1.9-1.65.75-3.55 1.15-2.25.35-4.55.35-2.35 0-4.45-.35-4-.8-7.15-3.05-3.85-2.75-4.6-6.4"/><path id="f" stroke="#999" stroke-width="1" stroke-linejoin="round" stroke-linecap="round" fill="none" d="M5.45 9.85q2.65 4.35 19.25 0l-1.05-4.4 11.45 5.7L27.45 21l-1.25-4.15q-18.5 3.45-20.75-7z"/></defs><g><use xlink:href="#a"/><use xlink:href="#b"/></g><g><use xlink:href="#c"/><use xlink:href="#d"/></g><g><use xlink:href="#e"/><use xlink:href="#f"/></g></svg>
