<svg xmlns="http://www.w3.org/2000/svg" xmlns:xlink="http://www.w3.org/1999/xlink" preserveAspectRatio="none" width="40" height="40"><defs><path fill="#333" fill-opacity=".561" d="M32.1 2.4q-.078-.037-.15-.05-.028-.012-.05-.05-.623-.339-1.35-.65-.145-.068-.3-.05-.144.037-.25.15-1.012.96-2.1 2.15-.438.537-.85 1.1-.024.032-.05.05-.08.065-.15.15-1.93 2.445-3.25 5.35-.021.042-.05.05-.023.086-.05.15-.363.812-.7 1.65-.026.187 0 .35.071.154.2.25l3.3 2.5q.032.024.05.05.064.08.15.15l1.45 1.1q-.743 1.458-1.6 2.7v.05q-.085.06-.15.15-1.808 2.538-4.2 4.25-.088.017-.2.05-2.166 1.462-4.8 2.2-.233-.723-.55-1.35-.058-.083-.15-.15-.019-.09-.1-.2-.075-.125-.2-.3-1.016-1.549-2.55-2.25-.12-.06-.25-.05-.124.018-.25.1l-2 1.4q-.08.012-.2.05l-5 3.35q-.01.049-.05.05-.06.052-.15.1l-2.6 1.8q-.088.066-.15.15-.058.144-.05.25.108 1.566 1.15 3.05.024.107.1.2 1.448 1.87 4.3 3.45.049.054.1.05.15.075.3.1.072.05.15.05.032.017.05 0 2.943.708 6.2-.2.118.001.2-.05.045-.006.1-.05 2.56-.786 5.35-2.7.06.002.1-.05.06-.002.1-.05 1.65-1.11 3.3-2.55.938-.775 1.8-1.6.095-.045.15-.1 2.215-2.112 4-4.35.105-.07.1-.2h.05q1.966-2.475 3.4-5 .064-.066.05-.15.055-.015.05-.05 1.554-2.687 2.5-5.5.036-.007.05-.05.046-.06.05-.15.375-1.113.65-2.25.041-.013.05-.05.21-2.24-.6-4-.02-.048-.05-.1.008-.109-.05-.25-1.197-2.46-4.35-4.2m-.6.8q.04.065.1.1 2.847 1.56 3.95 3.75.021.065.05.1 0 .1.05.2.69 1.54.5 3.5-.287 1.05-.65 2.1-.04.074-.1.15-.904 2.737-2.4 5.35-.013.066-.05.1-.004.065-.05.1-1.416 2.475-3.35 4.9-.076.093-.1.2-1.767 2.161-3.95 4.2-.07.056-.15.1-.838.825-1.75 1.6-1.6 1.41-3.2 2.5-.075.008-.2.05-2.66 1.837-5.1 2.6-.094.055-.2.1.005.017-.05 0-2.993.842-5.7.2-.022.013-.1 0-.006-.01-.05-.05-.135-.02-.3-.1-2.566-1.443-3.9-3.15-.033-.11-.1-.2-.773-1.094-.95-2.25l2.35-1.6q.13-.012.2-.1l5-3.35q.06.001.1-.05.06-.002.1-.05l1.75-1.25q1.147.623 1.9 1.8.125.175.2.3.082.11.15.15.023.071.05.1.356.684.6 1.5v.15q.31.914.45 1.9.032.227.2.35.168.127.35.1.227-.032.35-.2.127-.168.1-.4-.12-.795-.35-1.55 2.817-.773 5.1-2.3h.05q.117-.038.2-.1 2.508-1.788 4.4-4.45.018-.024 0-.05.148-.06.2-.2.988-1.449 1.85-3.15.086-.13.05-.3-.049-.183-.2-.3l-1.8-1.4q-.027-.022-.05-.05-.057-.082-.15-.15l-3-2.3q.234-.627.5-1.25.02-.042 0-.1.072-.036.1-.1 1.28-2.796 3.15-5.15.022-.027.05-.05.082-.057.15-.15.388-.537.8-1.05.942-1.012 1.8-1.85.513.22.95.45.047.052.1.05z" id="b"/><g id="a"><path fill="#FFAF85" d="M16.65 26.8q.3.95.45 2 9.8-3.4 11.5-12.1-3.95 8.05-11.95 10.1m-1.05-2.3q-.95-1.45-2.35-2.1l-10 6.75q.1 1.5 1.15 2.95l11.2-7.6M28.3 4.25l8.35 6.65q.5-5.85-6.3-8.8-1 .95-2.05 2.15z"/><path fill="#FF5800" d="M36.65 10.9L28.3 4.25q-3.3 3.65-5 8.35l5.3 4.1q-1.7 8.7-11.5 12.1-.15-1.05-.45-2-.35-1.4-1.05-2.3L4.4 32.1q1.4 1.8 4.15 3.35 6.65 2.1 15.4-5.4 10.1-8.85 12.7-19.15z"/></g></defs><g><use xlink:href="#a"/><use xlink:href="#b"/></g></svg>