<svg xmlns="http://www.w3.org/2000/svg" xmlns:xlink="http://www.w3.org/1999/xlink" preserveAspectRatio="none" width="40" height="40"><defs><radialGradient id="a" gradientUnits="userSpaceOnUse" cx="0" cy="0" r="9.668" fx="0" fy="0" gradientTransform="matrix(.48356 -.87531 .51459 .28186 8.15 13.8)" spreadMethod="pad"><stop offset="0%" stop-opacity=".412"/><stop offset="100%" stop-color="#013198" stop-opacity="0"/></radialGradient><radialGradient id="b" gradientUnits="userSpaceOnUse" cx="0" cy="0" r="5.021" fx="0" fy="0" gradientTransform="matrix(.77672 -.62984 .4008 .49292 6.9 5.15)" spreadMethod="pad"><stop offset="0%" stop-opacity=".424"/><stop offset="100%" stop-color="#013198" stop-opacity="0"/></radialGradient><path fill="#090" d="M8.3 3.4q-.003-1.407-1-2.4-.993-.996-2.4-1-1.407.004-2.4 1-.998.993-1 2.4.002 1.407 1 2.4.993.984 2.4.95-1.661.183-3.2 2.35-1.762 2.507-1.7 5.75.025 1.063 5.15 1.15 5.116.083 5.05-.95-.189-3.326-1.75-5.85-1.453-2.424-3.3-2.45 1.254-.06 2.15-.95.997-.993 1-2.4z" id="c"/><g id="d"><path fill="url(#a)" d="M5.45 7.3H5.4q-1.65.15-3.2 2.35Q.45 12.1.5 15.4q.05 1 5.15 1.1 5.1.1 5.05-.95-.2-3.35-1.7-5.8Q7.5 7.3 5.7 7.3h-.25M2.7 14.9q.3-4.25 2.7-5.8-2.4 1.55-2.7 5.8z"/><path fill="url(#b)" d="M7.8 1.5q-1-1-2.4-1T3 1.5q-1 1-1 2.4t1 2.4q1 1 2.4 1h.3q1.2-.1 2.1-1 1-1 1-2.4t-1-2.4M3.7 3.95Q3.9 2.65 5 2.1q-1.1.55-1.3 1.85z"/></g><g id="h"><path fill="#900" d="M12.75 23.05q2.1.85 4.5 1.85Q37.4-.55 26.3-7.5 26.2 12 12.75 23.05z"/><path fill="#DF1D0E" d="M26.3-7.5q-3.2-2.1-9.2-2.6-6.7.85-7.2 7.2-4.65-5.6-11-2.25-18.4 14.05 13.85 28.2Q26.2 12 26.3-7.5m-9.7 5.6L11-5.15q5.25-4.95 11.35-3.7-5.5 2.1-5.75 6.95M2.65 2.55q-2.25 7.1 7.5 14.3-8.1-.75-11.95-6.35Q-7.05 1.7-.1-1.4l2.75 3.95z"/><path fill="#FFF" d="M10.15 16.85Q.4 9.65 2.65 2.55L-.1-1.4q-6.95 3.1-1.7 11.9 3.85 5.6 11.95 6.35m.85-22l5.6 3.25q.25-4.85 5.75-6.95-6.1-1.25-11.35 3.7z"/></g><path id="e" stroke="#000" stroke-opacity=".651" stroke-width="1" stroke-linejoin="round" stroke-linecap="round" fill="none" d="M5.4 7.3Q4 7.3 3 6.3T2 3.9q0-1.4 1-2.4t2.4-1q1.4 0 2.4 1t1 2.4q0 1.4-1 2.4-.9.9-2.1 1 1.8 0 3.3 2.45 1.5 2.45 1.7 5.8.05 1.05-5.05.95-5.1-.1-5.15-1.1-.05-3.3 1.7-5.75 1.55-2.2 3.2-2.35z"/><path id="f" stroke="#FFF" stroke-width="1" stroke-linejoin="round" stroke-linecap="round" fill="none" d="M3.7 3.95Q3.9 2.65 5 2.1M2.7 14.9q.3-4.25 2.7-5.8"/><path id="g" stroke="#000" stroke-width="1" stroke-linejoin="round" stroke-linecap="round" fill="none" d="M5.45 7.3H5.4"/><path id="i" stroke="#900" stroke-width="1" stroke-linejoin="round" stroke-linecap="round" fill="none" d="M12.75 23.05Q-19.5 8.9-1.1-5.15 5.25-8.5 9.9-2.9q.5-6.35 7.2-7.2 6 .5 9.2 2.6 11.1 6.95-9.05 32.4-2.4-1-4.5-1.85z"/></defs><use xlink:href="#c" transform="matrix(2.28812 0 0 2.28812 6.544 1.394)"/><g transform="matrix(2.28812 0 0 2.28812 5.4 .25)"><use xlink:href="#d"/><use xlink:href="#e"/><use xlink:href="#f"/><use xlink:href="#g"/></g><g><g transform="translate(20.75 22.25) scale(.45944)"><use xlink:href="#h"/><use xlink:href="#i"/></g></g></svg>
