<svg xmlns="http://www.w3.org/2000/svg" xmlns:xlink="http://www.w3.org/1999/xlink" preserveAspectRatio="none" width="40" height="40"><defs><path fill="#2A3FAA" fill-opacity="0" d="M17.95 9q.03-3.734-2.6-6.4Q12.71-.005 8.95 0 5.254-.005 2.6 2.6-.004 5.266 0 9q-.004 3.734 2.6 6.35Q5.254 18.006 8.95 18q3.76.006 6.4-2.65 2.63-2.616 2.6-6.35M14 3.95q2.134 2.112 2.1 5.1.034 2.99-2.1 5.1-2.098 2.122-5.1 2.1-2.988.022-5.1-2.1-2.109-2.11-2.1-5.1-.009-2.988 2.1-5.1Q5.912 1.816 8.9 1.8q3.002.016 5.1 2.15z" id="c"/><path fill="#2A3FAA" d="M7.2 14.45q3.002.022 5.1-2.1 2.134-2.11 2.1-5.1.034-2.988-2.1-5.1Q10.202.016 7.2 0 4.212.016 2.1 2.15-.009 4.262 0 7.25q-.009 2.99 2.1 5.1 2.112 2.122 5.1 2.1z" id="d"/><path fill="#FFF" d="M8.75 5.5q.382-.743.35-1.55.03-1.937-1.5-3.1Q6.514-.005 4.7 0 2.388-.007 1.25 1.2.145 2.452-.05 4.45l3.25.45q.11-1.08.5-1.55.372-.421.95-.45.55.03.8.3.294.307.3.8-.002.55-.7 1.15-1.238 1.212-1.6 1.65-.366.496-.55 1.05-.179.588-.2 1.5v.35h3.15q.026-.717.25-1.2.213-.443 1.05-1.2 1.207-1.065 1.6-1.8z" id="e"/><path fill="#FFF" d="M2.75 12q.003.686.45 1.15.49.472 1.15.45.66.022 1.1-.45.497-.464.5-1.15-.003-.647-.5-1.15-.44-.434-1.1-.45-.66.016-1.15.45-.447.503-.45 1.15z" id="f"/><path fill="url(#a)" d="M15.35 2.6Q12.71-.005 8.95 0 5.254-.005 2.6 2.6-.004 5.266 0 9q-.004 3.734 2.6 6.35Q5.254 18.006 8.95 18q3.76.006 6.4-2.65 2.63-2.616 2.6-6.35.03-3.734-2.6-6.4z" id="g"/><path fill="url(#b)" d="M17.5 11.9q.477-1.356.45-2.9.03-3.734-2.6-6.4Q12.71-.005 8.95 0 5.254-.005 2.6 2.6-.004 5.266 0 9q-.004 3.734 2.6 6.35 1.224 1.21 2.65 1.85 1.186.25 2.45.25 4.741.006 8.05-3.35 1.063-1.02 1.75-2.2z" id="h"/><radialGradient id="a" gradientUnits="userSpaceOnUse" cx="0" cy="0" r="10.063" fx="0" fy="0" gradientTransform="translate(8.1 8.65)" spreadMethod="pad"><stop offset="77.647%" stop-opacity="0"/><stop offset="100%" stop-opacity=".8"/></radialGradient><radialGradient id="b" gradientUnits="userSpaceOnUse" cx="0" cy="0" r="14.225" fx="0" fy="0" gradientTransform="translate(7.1 4.7)" spreadMethod="pad"><stop offset="0%" stop-color="#FFF" stop-opacity=".612"/><stop offset="41.176%" stop-color="#FFF" stop-opacity="0"/><stop offset="42.745%" stop-color="#FFF" stop-opacity="0"/></radialGradient></defs><use xlink:href="#c" transform="matrix(2.11298 0 0 2.11298 1.2 1.3)"/><use xlink:href="#d" transform="matrix(2.62478 0 0 2.62297 1.2 1.3)"/><use xlink:href="#e" transform="matrix(1.90167 0 0 1.90167 11.448 7.639)"/><use xlink:href="#f" transform="matrix(1.90167 0 0 1.90167 11.448 7.639)"/><use xlink:href="#g" transform="matrix(2.11298 0 0 2.11298 1.2 1.3)"/><g transform="matrix(2.11298 0 0 2.11298 1.2 1.3)"><use xlink:href="#h"/></g></svg>