<svg xmlns="http://www.w3.org/2000/svg" xmlns:xlink="http://www.w3.org/1999/xlink" preserveAspectRatio="none" width="40" height="40"><defs><radialGradient id="a" gradientUnits="userSpaceOnUse" cx="0" cy="0" r="9.668" fx="0" fy="0" gradientTransform="matrix(.48356 -.87531 .51459 .28186 8.15 13.8)" spreadMethod="pad"><stop offset="0%" stop-opacity=".412"/><stop offset="100%" stop-color="#013198" stop-opacity="0"/></radialGradient><radialGradient id="b" gradientUnits="userSpaceOnUse" cx="0" cy="0" r="5.021" fx="0" fy="0" gradientTransform="matrix(.77672 -.62984 .4008 .49292 6.9 5.15)" spreadMethod="pad"><stop offset="0%" stop-opacity=".424"/><stop offset="100%" stop-color="#013198" stop-opacity="0"/></radialGradient><path fill="#090" d="M8.8 3.9q0-1.4-1-2.4T5.4.5Q4 .5 3 1.5T2 3.9q0 1.4 1 2.4t2.4 1q-1.65.15-3.2 2.35-.542.76-.9 1.6-.31.697-.5 1.45h9.45q-.208-.754-.5-1.45-.314-.788-.75-1.5Q7.5 7.3 5.7 7.3q1.2-.1 2.1-1 1-1 1-2.4z" id="c"/><path id="e" stroke="#FFF" stroke-width="1" stroke-linejoin="round" stroke-linecap="round" fill="none" d="M3.7 3.95Q3.9 2.65 5 2.1M3.35 12.25q.15-.6.35-1.1.55-1 1.4-1.55"/><g id="d"><path fill="url(#a)" d="M2.3 9.7q-.518.75-.9 1.55-.287.696-.5 1.45h9.2q-.182-.755-.5-1.45-.285-.747-.7-1.45-1.459-2.358-3.2-2.4-.044.03-.1 0-.017-.042-.05-.1H5.5q.03.043 0 .05-.042.067-.1.05-1.595.181-3.1 2.3m1.05 2.55q.15-.6.35-1.1.55-1 1.4-1.55-.85.55-1.4 1.55-.2.5-.35 1.1z"/><path fill="url(#b)" d="M7.7 1.6Q6.742.63 5.4.6q-1.343.03-2.3 1-.97.957-1 2.3.03 1.342 1 2.3.957.969 2.3.95.044.02.05.05.067.043.05.1h.05q.02-.044.05-.1.042-.017.1-.05 1.144-.078 2-.95.969-.958.95-2.3.019-1.343-.95-2.3m-4 2.35Q3.9 2.65 5 2.1q-1.1.55-1.3 1.85z"/><path fill-opacity=".651" d="M7.9 1.4Q6.857.369 5.4.35 3.942.369 2.9 1.4 1.869 2.442 1.85 3.9q.019 1.457 1.05 2.5.756.747 1.7.95-1.268.482-2.5 2.2-.567.819-.95 1.7-.3.698-.5 1.45H.9q.213-.754.5-1.45.382-.8.9-1.55 1.505-2.119 3.1-2.3.058.017.1-.05.03-.007 0-.05.017-.057-.05-.1-.006-.03-.05-.05-1.343.019-2.3-.95-.97-.958-1-2.3.03-1.343 1-2.3.957-.97 2.3-1 1.342.03 2.3 1 .969.957.95 2.3.019 1.342-.95 2.3-.856.872-2 .95-.058.033-.1.05-.03.056-.05.1.033.058.05.1.056.03.1 0 1.741.042 3.2 2.4.415.703.7 1.45.318.695.5 1.45h.25q-.168-.754-.45-1.45-.343-.829-.8-1.6-1.217-1.964-2.65-2.4.806-.217 1.45-.85 1.03-1.043 1-2.5.03-1.458-1-2.5z"/></g></defs><use xlink:href="#c" transform="matrix(2.92502 0 0 2.92502 4.15 .6)"/><g transform="matrix(2.92502 0 0 2.92502 4.15 .6)"><use xlink:href="#d"/><use xlink:href="#e"/></g></svg>