<svg xmlns="http://www.w3.org/2000/svg" xmlns:xlink="http://www.w3.org/1999/xlink" preserveAspectRatio="none" width="40" height="40"><defs><path fill="url(#a)" d="M0 12h9.2V6.25H0V12z" id="f"/><path fill="#0F0" d="M8.2 0H0v4.75h8.2V0z" id="j"/><path id="c" stroke="#000" stroke-width="1" stroke-linejoin="round" stroke-linecap="round" fill="none" d="M37.3 6.95h.2V37.6q0 1.85-1.95 1.85H4.6q-1.85 0-1.85-1.85V2.55Q2.75.7 4.6.7h26.85l5.85 6.25.2.25M30.45.7V5q0 1.2 1.65 1.95h5.2"/><path id="d" stroke="#39F" stroke-width="1" stroke-linejoin="round" stroke-linecap="round" fill="none" d="M7.45 31.15h24.8M7.45 25.9h24.8M7.45 36.25h22.7"/><path id="e" stroke="#666" stroke-width="2" stroke-linejoin="round" stroke-linecap="round" fill="none" d="M.9 6.425v-2.4q.003-1.526 1.075-2.6Q3.038.337 4.55.325q1.524.012 2.6 1.1 1.072 1.074 1.075 2.6.018.34.05 2.4"/><path id="g" stroke="#F90" stroke-width="1" stroke-linejoin="round" stroke-linecap="round" fill="none" d="M0 9.125h9.2"/><path id="h" stroke="#FFF" stroke-width="1" stroke-linejoin="round" stroke-linecap="round" fill="none" d="M.9 3q.17-1.095.975-1.925Q2.951 0 4.475 0q.71 0 1.325.225"/><path id="k" stroke="#484848" stroke-width="1" stroke-linejoin="round" stroke-linecap="round" fill="none" d="M9.2 6.25V12H0V6.25h9.2z"/><linearGradient id="a" gradientUnits="userSpaceOnUse" x1="0" y1="9.1" x2="9.2" y2="9.1" spreadMethod="pad"><stop offset=".784%" stop-color="#FFF"/><stop offset="51.765%" stop-color="#F90"/><stop offset="100%" stop-color="#FFF"/></linearGradient><filter id="i" x="-20%" y="-20%" width="140%" height="140%" color-interpolation-filters="sRGB"><feColorMatrix in="SourceGraphic" values="1 0 0 0 0 0 1 0 0 0 0 0 1 0 0 0 0 0 0 0" result="result1"/></filter><g id="b"><path fill="#0173B6" d="M30.45.7V5q0 1.2 1.65 1.95h5.2L31.45.7h-1z"/><path fill="#FFF" d="M37.5 7.2l-.2-.25h-5.2Q30.45 6.2 30.45 5V.7H4.6Q2.75.7 2.75 2.55V37.6q0 1.85 1.85 1.85h30.95q1.95 0 1.95-1.85V7.2M7.45 31.15h24.8-24.8m0-5.25h24.8-24.8m0 10.35h22.7-22.7z"/></g></defs><g><use xlink:href="#b"/><use xlink:href="#c"/><use xlink:href="#d"/></g><use xlink:href="#e" transform="matrix(1.58838 0 0 1.58838 12.55 3.55)"/><use xlink:href="#f" transform="matrix(1.58838 0 0 1.58838 12.55 3.55)"/><g transform="matrix(1.58838 0 0 1.58838 12.55 3.55)"><use xlink:href="#g"/><use xlink:href="#h"/></g><use filter="url(#i)" xlink:href="#j" transform="matrix(1.80569 0 0 1.92634 12.391 13.477)"/><use xlink:href="#k" transform="matrix(1.58838 0 0 1.58838 12.55 3.55)"/></svg>