<svg xmlns="http://www.w3.org/2000/svg" xmlns:xlink="http://www.w3.org/1999/xlink" preserveAspectRatio="none" width="40" height="40"><defs><path id="b" stroke="#06F" stroke-opacity=".749" stroke-width="1" stroke-linejoin="round" stroke-linecap="round" fill="none" d="M21.2 23.75q7.25.1 12.55 1.7 5.7 1.6 5.7 4 0 2.25-5.7 3.9-5.7 1.7-13.65 1.7-8 0-13.7-1.7Q.8 31.7.8 29.45q0-2.4 5.6-4 5.65-1.7 13.55-1.7m.6 7.05q-1.8.35-3.3.3-1.65-.15-2.2-.35-1.6-.4-1.95-.95-.15-.25-.15-.5 0-.9 2.1-1.55 1.7-.6 4-.65m2.3-1.7q5 .05 8.6 1.15 4.1 1.2 4.1 2.9 0 1.65-4.1 2.85-4.05 1.15-9.85 1.15t-9.9-1.15q-4.1-1.2-4.1-2.85 0-1.7 4.1-2.9 3.95-1.15 9.5-1.2m2.45 1.8q1.75.1 3.15.6 2.1.65 2.1 1.55 0 .95-2.1 1.6-.35.05-.7.2"/><path id="c" stroke="#06F" stroke-width="1" stroke-linejoin="round" stroke-linecap="round" fill="none" d="M19.95 23.75v-.25q0-.1-.2-.65-.35-.85-.35-2.1 0-1.3.35-2.25.35-.85.8-.85.5 0 .85.85.35.95.35 2.25 0 1.25-.35 2.1-.2.55-.2.75v.15m-1.25 0q-.15.85-.25 1.6-.3 1-.65 1.75-.6.85-1.4 1.15m5.75.15q-.75-.55-1.25-1.25-.55-.85-.8-1.75-.15-.8-.15-1.65"/><g id="a"><path fill="#09F" d="M20.1 33.45q-5.8 0-9.9-1.15-4.1-1.2-4.1-2.85 0-1.7 4.1-2.9 3.95-1.15 9.5-1.2.1-.75.25-1.6-7.9 0-13.55 1.7-5.6 1.6-5.6 4 0 2.25 5.6 3.9 5.7 1.7 13.7 1.7 7.95 0 13.65-1.7 5.7-1.65 5.7-3.9 0-2.4-5.7-4-5.3-1.6-12.55-1.7 0 .85.15 1.65 5 .05 8.6 1.15 4.1 1.2 4.1 2.9 0 1.65-4.1 2.85-4.05 1.15-9.85 1.15m1.1-9.7v-.15q0-.2.2-.75.35-.85.35-2.1 0-1.3-.35-2.25-.35-.85-.85-.85-.45 0-.8.85-.35.95-.35 2.25 0 1.25.35 2.1.2.55.2.65v.25q-.15.85-.25 1.6-.3 1-.65 1.75-.6.85-1.4 1.15 2.9 1.15 5.75.15-.75-.55-1.25-1.25-.55-.85-.8-1.75-.15-.8-.15-1.65z"/><path fill="#0CF" d="M17.65 28.25q.8-.3 1.4-1.15-2.3.05-4 .65-2.1.65-2.1 1.55 0 .25.15.5.35.55 1.95.95.55.2 2.2.35 1.5.05 3.3-.3-1.8.35-3.3.3-1.65-.15-2.2-.35-1.6-.4-1.95-.95-.15-.25-.15-.5 0-.9 2.1-1.55 1.7-.6 4-.65.35-.75.65-1.75-5.55.05-9.5 1.2-4.1 1.2-4.1 2.9 0 1.65 4.1 2.85 4.1 1.15 9.9 1.15 5.8 0 9.85-1.15 4.1-1.2 4.1-2.85 0-1.7-4.1-2.9-3.6-1.1-8.6-1.15.25.9.8 1.75 1.75.1 3.15.6 2.1.65 2.1 1.55 0 .95-2.1 1.6-.35.05-.7.2.35-.15.7-.2 2.1-.65 2.1-1.6 0-.9-2.1-1.55-1.4-.5-3.15-.6.5.7 1.25 1.25-2.85 1-5.75-.15z"/></g></defs><g><use xlink:href="#a"/><use xlink:href="#b"/><use xlink:href="#c"/></g></svg>