<svg xmlns="http://www.w3.org/2000/svg" xmlns:xlink="http://www.w3.org/1999/xlink" preserveAspectRatio="none" width="19" height="19"><defs><path fill="#0F3" d="M23.8-6.3h-14v-13.8H-.55v13.8H-4.5q-4.847-.003-9.7 0V4.05H-.55V17.9H9.8V4.05h14V-6.3z" id="c"/><path id="b" stroke="#FFF" stroke-opacity=".651" stroke-width="1" stroke-linejoin="round" stroke-linecap="round" fill="none" d="M8.7-22.95q4.1-5.35 10.4-2.3m-25.95 6.5q4.15-6.5 10.25-3.35"/><g id="a"><path fill="#C20303" d="M8.7 1.2q2 .85 4.1 1.8 18.3-23.1 8.25-29.4Q20.95-8.75 8.7 1.2z"/><path fill="red" d="M21.05-26.4q-2.9-1.9-8.35-2.3-5.95.75-6.5 6.5-4.25-5.05-9.9-2Q-20.45-11.55 8.7 1.2q12.25-9.95 12.35-27.6M8.7-22.95q4.1-5.35 10.4-2.3-6.3-3.05-10.4 2.3m-15.55 4.2q4.15-6.5 10.25-3.35-6.1-3.15-10.25 3.35z"/></g></defs><g transform="matrix(.48893 0 0 .48893 5.386 15.79)"><use xlink:href="#a"/><use xlink:href="#b"/></g><use xlink:href="#c" transform="matrix(.19299 0 0 .19299 13.698 13.81)"/></svg>