<svg xmlns="http://www.w3.org/2000/svg" xmlns:xlink="http://www.w3.org/1999/xlink" preserveAspectRatio="none" width="40" height="40"><defs><path id="b" stroke="#333" stroke-width="1" stroke-linejoin="round" stroke-linecap="round" fill="none" d="M106.8 23.85q0 2.4-1.7 4.1-1.7 1.7-4.1 1.7-2.4 0-4.1-1.7-1.7-1.7-1.7-4.1 0-2.4 1.7-4.1 1.7-1.7 4.1-1.7 2.4 0 4.1 1.7 1.7 1.7 1.7 4.1zm-24 17.7q-1.35-1.6-1.35-3.7 0-2.4 1.7-4.1 1.7-1.7 4.1-1.7 2.4 0 4.1 1.7 1.05 1.05 1.45 2.35m-10 5.45q.15.2.35.4 1.7 1.7 4.1 1.7 2.4 0 4.1-1.7 1.7-1.7 1.7-4.1 0-.95-.25-1.75m8.2 9q2.4 0 4.1 1.7 1.7 1.7 1.7 4.1 0 2.4-1.7 4.1-1.7 1.7-4.1 1.7-2.4 0-4.1-1.7-1.7-1.7-1.7-4.1 0-2.4 1.7-4.1 1.7-1.7 4.1-1.7zm13.9-1.45q-2.4 0-4.1-1.7-1.7-1.7-1.7-4.1 0-2.4 1.7-4.1 1.7-1.7 4.1-1.7 2.4 0 4.1 1.7 1.7 1.7 1.7 4.1 0 2.4-1.7 4.1-1.7 1.7-4.1 1.7zm-57.65-19.6Q63.1 29.9 63.1 38.2t-5.85 14.15Q51.4 58.2 43.1 58.2t-14.15-5.85Q23.1 46.5 23.1 38.2t5.85-14.15Q34.8 18.2 43.1 18.2t14.15 5.85z"/><path id="c" stroke="#333" stroke-width="4" stroke-linejoin="round" stroke-linecap="round" fill="none" d="M128.85 21.4q-6.5-15.3-14.7-19.7-10-4.55-24.55 3.15Q81.4 8.5 72 7.95q-9.9.55-18.1-3.1-14.55-7.7-24.55-3.15Q9.95 12.15.1 83.7q-.95 13.1 5.5 17.15 2.95 1.85 7.4 1.85 8.85-.15 34.6-25.4 3.45-3.4 21.05-3.5h6.2q17.6.1 21.05 3.5 25.75 25.25 34.6 25.4 14.25.05 12.9-19-5.7-41.35-14.55-62.3z"/><g id="a"><path fill="#CBCBCB" d="M83.15 41.95q-.2-.2-.35-.4-37.2 21.2-77.2 59.3 2.95 1.85 7.4 1.85 8.85-.15 34.6-25.4 3.45-3.4 21.05-3.5h6.2q17.6.1 21.05 3.5 25.75 25.25 34.6 25.4 14.25.05 12.9-19-5.7-41.35-14.55-62.3-17.7 5.25-36.05 14.7.25.8.25 1.75 0 2.4-1.7 4.1-1.7 1.7-4.1 1.7-2.4 0-4.1-1.7M96.9 46.8q1.7-1.7 4.1-1.7 2.4 0 4.1 1.7 1.7 1.7 1.7 4.1 0 2.4-1.7 4.1-1.7 1.7-4.1 1.7-2.4 0-4.1-1.7-1.7-1.7-1.7-4.1 0-2.4 1.7-4.1m22.1-4.85q-1.7 1.7-4.1 1.7-2.4 0-4.1-1.7-1.7-1.7-1.7-4.1 0-2.4 1.7-4.1 1.7-1.7 4.1-1.7 2.4 0 4.1 1.7 1.7 1.7 1.7 4.1 0 2.4-1.7 4.1z"/><path fill="#03F" d="M114.9 43.65q2.4 0 4.1-1.7 1.7-1.7 1.7-4.1 0-2.4-1.7-4.1-1.7-1.7-4.1-1.7-2.4 0-4.1 1.7-1.7 1.7-1.7 4.1 0 2.4 1.7 4.1 1.7 1.7 4.1 1.7z"/><path fill="#090" d="M101 45.1q-2.4 0-4.1 1.7-1.7 1.7-1.7 4.1 0 2.4 1.7 4.1 1.7 1.7 4.1 1.7 2.4 0 4.1-1.7 1.7-1.7 1.7-4.1 0-2.4-1.7-4.1-1.7-1.7-4.1-1.7z"/><path fill="#900" d="M92.8 36.1q-.4-1.3-1.45-2.35-1.7-1.7-4.1-1.7-2.4 0-4.1 1.7-1.7 1.7-1.7 4.1 0 2.1 1.35 3.7.15.2.35.4 1.7 1.7 4.1 1.7 2.4 0 4.1-1.7 1.7-1.7 1.7-4.1 0-.95-.25-1.75z"/><path fill="#FFF" d="M91.35 33.75q1.05 1.05 1.45 2.35 18.35-9.45 36.05-14.7-6.5-15.3-14.7-19.7-10-4.55-24.55 3.15Q81.4 8.5 72 7.95q-9.9.55-18.1-3.1-14.55-7.7-24.55-3.15Q9.95 12.15.1 83.7q-.95 13.1 5.5 17.15 40-38.1 77.2-59.3-1.35-1.6-1.35-3.7 0-2.4 1.7-4.1 1.7-1.7 4.1-1.7 2.4 0 4.1 1.7m13.75-14q1.7 1.7 1.7 4.1 0 2.4-1.7 4.1-1.7 1.7-4.1 1.7-2.4 0-4.1-1.7-1.7-1.7-1.7-4.1 0-2.4 1.7-4.1 1.7-1.7 4.1-1.7 2.4 0 4.1 1.7m-62-1.55q8.3 0 14.15 5.85T63.1 38.2q0 8.3-5.85 14.15T43.1 58.2q-8.3 0-14.15-5.85T23.1 38.2q0-8.3 5.85-14.15T43.1 18.2z"/><path fill="#666" d="M57.25 24.05Q51.4 18.2 43.1 18.2t-14.15 5.85Q23.1 29.9 23.1 38.2t5.85 14.15Q34.8 58.2 43.1 58.2t14.15-5.85Q63.1 46.5 63.1 38.2t-5.85-14.15M56.9 38.2q0 5.75-4.05 9.8-4 4.05-9.75 4.05T33.35 48q-4.05-4.05-4.05-9.8 0-5.7 4.05-9.75 4-4.05 9.75-4.05t9.75 4.05q4.05 4.05 4.05 9.75z"/><path fill="#999" d="M52.85 48q4.05-4.05 4.05-9.8 0-5.7-4.05-9.75-4-4.05-9.75-4.05t-9.75 4.05Q29.3 32.5 29.3 38.2q0 5.75 4.05 9.8 4 4.05 9.75 4.05T52.85 48z"/><path fill="#FC0" d="M106.8 23.85q0-2.4-1.7-4.1-1.7-1.7-4.1-1.7-2.4 0-4.1 1.7-1.7 1.7-1.7 4.1 0 2.4 1.7 4.1 1.7 1.7 4.1 1.7 2.4 0 4.1-1.7 1.7-1.7 1.7-4.1z"/></g></defs><g transform="translate(.9 7.05) scale(.2637)"><use xlink:href="#a"/><use xlink:href="#b"/><use xlink:href="#c"/></g></svg>