<svg xmlns="http://www.w3.org/2000/svg" xmlns:xlink="http://www.w3.org/1999/xlink" preserveAspectRatio="none" width="40" height="40"><defs><g id="a"><path fill="#333" fill-opacity=".247" d="M37.95 4.9q-.2-1.3-1-2.05-1.05-.8-2.25-.65-1.2-.15-2.05.8L18.3 15.6l-.65-2.1q-.25-.85-1.05-1.5t-1.8-.65q-.9-.15-1.9.35-.8.5-1.1 1.5l-9.9 21q-.6 1-.25 2.15.25 1 1.3 1.85.8.6 1.95.6 1.2-.05 2-.85l9.45-8.3.3.85q.45 1.2 1.6 1.8 1.05.5 2.25.3 1.15-.45 1.85-1.5l15.2-23.95q.6-1.15.4-2.25M36.3 3.45q.7.65.85 1.5.2.85-.35 1.65L21.65 30.8q-.5.7-1.3.95-1.05.25-1.85-.2-.8-.5-1-1.3l-.85-1.9-10.2 9q-.8.6-1.55.6-.8 0-1.5-.45-.65-.55-.9-1.4-.25-.8.2-1.45l9.7-21.15q.3-.75 1.05-1.05.5-.45 1.3-.3.8.05 1.3.5.6.4.9 1.15l.95 3.15 15.3-13.5Q33.85 3 34.7 3q1-.15 1.6.45z"/><path fill="#333" fill-opacity=".498" d="M37.15 4.95q-.15-.85-.85-1.5-.6-.6-1.6-.45-.85 0-1.5.45l-15.3 13.5-.95-3.15q-.3-.75-.9-1.15-.5-.45-1.3-.5-.8-.15-1.3.3-.75.3-1.05 1.05L2.7 34.65q-.45.65-.2 1.45.25.85.9 1.4.7.45 1.5.45.75 0 1.55-.6l10.2-9 .85 1.9q.2.8 1 1.3.8.45 1.85.2.8-.25 1.3-.95L36.8 6.6q.55-.8.35-1.65m-1.4-.85q.45.4.6 1.05 0 .4-.2 1.05L21 30.25q-.25.65-.85.7-.65.1-1.1 0-.75-.45-.95-1.05l-1-3-11.15 9.8q-.55.4-1.05.45-.6 0-1.05-.45-.45-.25-.7-.8-.1-.6.25-1.1l9.85-20.95q.2-.5.65-.65.25-.4.8-.4.45 0 1.05.45.15.25.3.8l1.45 4.3L33.8 4.1q.3-.45.9-.45.65 0 1.05.45z"/><path fill="#333" fill-opacity=".733" d="M36.35 5.15q-.15-.65-.6-1.05-.4-.45-1.05-.45-.6 0-.9.45L17.5 18.35l-1.45-4.3q-.15-.55-.3-.8-.6-.45-1.05-.45-.55 0-.8.4-.45.15-.65.65L3.4 34.8q-.35.5-.25 1.1.25.55.7.8.45.45 1.05.45.5-.05 1.05-.45l11.15-9.8 1 3q.2.6.95 1.05.45.1 1.1 0 .6-.05.85-.7L36.15 6.2q.2-.65.2-1.05m-.75.15q.1.2-.1.5L20.35 29.85q-.2.35-.55.4-.25 0-.5-.05-.25-.2-.4-.45l-1.5-4.3L5.35 36.1q-.3.25-.55.25-.2 0-.45-.05-.25-.25-.25-.5-.1-.35 0-.55l9.8-20.95q.05-.3.25-.45.15-.05.55-.05.1 0 .45.05.15.2.2.55l1.85 5.5L34.3 4.75q.15-.25.4-.1.4-.15.55.1.25.15.35.55z"/><path fill="#FC0" d="M35.5 5.8q.2-.3.1-.5-.1-.4-.35-.55-.15-.25-.55-.1-.25-.15-.4.1L17.2 19.9l-1.85-5.5q-.05-.35-.2-.55-.35-.05-.45-.05-.4 0-.55.05-.2.15-.25.45L4.1 35.25q-.1.2 0 .55 0 .25.25.5.25.05.45.05.25 0 .55-.25L17.4 25.45l1.5 4.3q.15.25.4.45.25.05.5.05.35-.05.55-.4L35.5 5.8z"/></g></defs><use xlink:href="#a"/></svg>