<svg xmlns="http://www.w3.org/2000/svg" xmlns:xlink="http://www.w3.org/1999/xlink" preserveAspectRatio="none" width="40" height="40"><defs><path fill="#FEDA18" d="M19 9.55q0-3.95-2.8-6.75-.65-.65-1.35-1.1Q12.5 0 9.5.05q-.4-.05-.8 0-2.45.2-4.4 1.5-.8.55-1.5 1.25-.35.3-.6.65Q0 6.05 0 9.55q0 3.9 2.8 6.7 2.75 2.75 6.7 2.8 3.9-.05 6.7-2.8 2.8-2.8 2.8-6.7z" id="c"/><path fill="url(#a)" d="M19 9.55q0-3.95-2.8-6.75-.55-.55-1.15-.95-.1-.1-.2-.15Q12.5 0 9.5.05q-.4-.05-.8 0-2.45.2-4.4 1.5-.8.55-1.5 1.25-.35.3-.6.65Q0 6.05 0 9.55q0 1.75.55 3.3.7 1.85 2.25 3.4 2.75 2.75 6.7 2.8 3.9-.05 6.7-2.8 2.8-2.8 2.8-6.7z" id="d"/><path fill="url(#b)" d="M9.35.65q-3.15 0-5.5 1.9Q1.6 4.45 1.6 7.1q0 .9.25 1.6l15.1-.15q.15-.65.15-1.45 0-2.65-2.25-4.55-2.3-1.9-5.5-1.9z" id="e"/><path fill="#FFF" d="M3.7 9.8q.85 1.1 1.95 1.1 1.15 0 2-1.1.85-1.1.85-2.65 0-1.55-.85-2.65-.85-1.1-2-1.1-1.1 0-1.95 1.1-.85 1.1-.85 2.65 0 1.55.85 2.65m9.2-6.4q-1.1 0-1.95 1.1-.85 1.1-.85 2.65 0 1.55.85 2.65.85 1.1 1.95 1.1 1.15 0 2-1.1.85-1.1.85-2.65 0-1.55-.85-2.65-.85-1.1-2-1.1z" id="g"/><path d="M7.55 5.95Q7 5.4 6.2 5.4t-1.4.55q-.55.6-.55 1.45t.55 1.4q.6.6 1.4.6.8 0 1.35-.6.6-.55.6-1.4 0-.85-.6-1.45m6.15 0q-.55-.55-1.35-.55t-1.4.55q-.55.6-.55 1.45t.55 1.4q.6.6 1.4.6.8 0 1.35-.6.6-.55.6-1.4 0-.85-.6-1.45z" id="i"/><path id="f" stroke="#900" stroke-width="1" stroke-linejoin="round" stroke-linecap="round" fill="none" d="M4.25 13q4.95 5.95 10.85-.1"/><path id="h" stroke="#333" stroke-width="1" stroke-linejoin="round" stroke-linecap="round" fill="none" d="M12.9 3.4q1.15 0 2 1.1.85 1.1.85 2.65 0 1.55-.85 2.65-.85 1.1-2 1.1-1.1 0-1.95-1.1-.85-1.1-.85-2.65 0-1.55.85-2.65.85-1.1 1.95-1.1zM3.7 9.8q-.85-1.1-.85-2.65 0-1.55.85-2.65.85-1.1 1.95-1.1 1.15 0 2 1.1.85 1.1.85 2.65 0 1.55-.85 2.65-.85 1.1-2 1.1-1.1 0-1.95-1.1z"/><radialGradient id="a" gradientUnits="userSpaceOnUse" cx="0" cy="0" r="10.6" fx="0" fy="0" gradientTransform="translate(8.5 8.25)" spreadMethod="pad"><stop offset="0%" stop-opacity="0"/><stop offset="69.804%" stop-opacity="0"/><stop offset="100%" stop-opacity=".251"/></radialGradient><linearGradient id="b" gradientUnits="userSpaceOnUse" x1="9.35" y1="11.563" x2="9.35" y2="-2.263" spreadMethod="pad"><stop offset="20.392%" stop-color="#FFF" stop-opacity="0"/><stop offset="73.725%" stop-color="#FFF" stop-opacity=".949"/><stop offset="100%" stop-color="#FFF" stop-opacity=".651"/><stop offset="100%" stop-opacity=".251"/></linearGradient></defs><use xlink:href="#c" transform="translate(4.4 4.418) scale(1.64398)"/><use xlink:href="#d" transform="translate(4.4 4.418) scale(1.64398)"/><use xlink:href="#e" transform="translate(4.4 4.5) scale(1.64398)"/><use xlink:href="#f" transform="translate(4.4 4.5) scale(1.64398)"/><g transform="translate(4.4 4.5) scale(1.64398)"><use xlink:href="#g"/><use xlink:href="#h"/></g><g transform="translate(4.4 4.5) scale(1.64398)"><use xlink:href="#i"/></g></svg>