<svg xmlns="http://www.w3.org/2000/svg" xmlns:xlink="http://www.w3.org/1999/xlink" preserveAspectRatio="none" width="40" height="40"><defs><path fill="#FEDA18" d="M19 9.55q0-3.95-2.8-6.75-.65-.65-1.35-1.1Q12.5 0 9.5.05q-.4-.05-.8 0-2.45.2-4.4 1.5-.8.55-1.5 1.25-.35.3-.6.65Q0 6.05 0 9.55q0 3.9 2.8 6.7 2.75 2.75 6.7 2.8 3.9-.05 6.7-2.8 2.8-2.8 2.8-6.7z" id="e"/><path fill="url(#a)" d="M19 9.55q0-3.95-2.8-6.75-.55-.55-1.15-.95-.1-.1-.2-.15Q12.5 0 9.5.05q-.4-.05-.8 0-2.45.2-4.4 1.5-.8.55-1.5 1.25-.35.3-.6.65Q0 6.05 0 9.55q0 1.75.55 3.3.7 1.85 2.25 3.4 2.75 2.75 6.7 2.8 3.9-.05 6.7-2.8 2.8-2.8 2.8-6.7z" id="f"/><path fill="url(#b)" d="M1.6 7.1q0 .9.25 1.6l15.1-.15q.15-.65.15-1.45 0-2.65-2.25-4.55-2.3-1.9-5.5-1.9-3.15 0-5.5 1.9Q1.6 4.45 1.6 7.1z" id="g"/><path fill="#FC0" d="M25.3 26.65l3.8 2.1-.6 4.15 3.1-2.85 3.8 1.8-1.85-3.9 2.9-3.1-4.1.65-2.1-3.8-.7 4.25-4.25.7z" id="m"/><path id="h" stroke="#000" stroke-width="1" stroke-linejoin="round" stroke-linecap="round" fill="none" d="M6.3 4.8h1.375"/><path id="j" stroke="#000" stroke-width="1" stroke-linejoin="round" stroke-linecap="round" fill="none" d="M14.275 4.85H15.8q2.35.15 2 2.7"/><path id="l" stroke="#FFF" stroke-width="1" stroke-linejoin="round" stroke-linecap="round" fill="none" d="M38.7 27.35q0 3.15-2.3 5.5Q34.1 35 30.95 35q-3.2 0-5.35-2.15-2.35-2.35-2.35-5.5 0-2.85 1.8-4.95.15-.25.55-.5.5-.55 1.15-1.1 1.6-1.05 3.6-1.1.3-.15.6 0 2.5-.15 4.4 1.2.5.45 1.05 1 2.3 2.3 2.3 5.45z"/><radialGradient id="a" gradientUnits="userSpaceOnUse" cx="0" cy="0" r="10.6" fx="0" fy="0" gradientTransform="translate(8.5 8.25)" spreadMethod="pad"><stop offset="0%" stop-opacity="0"/><stop offset="69.804%" stop-opacity="0"/><stop offset="100%" stop-opacity=".251"/></radialGradient><radialGradient id="c" gradientUnits="userSpaceOnUse" cx="0" cy="0" r="3.875" fx="0" fy="0" gradientTransform="matrix(1 0 0 .58387 1.45 4.95)" spreadMethod="pad"><stop offset="0%" stop-color="#FFF"/><stop offset="100%"/></radialGradient><radialGradient id="d" gradientUnits="userSpaceOnUse" cx="0" cy="0" r="3.875" fx="0" fy="0" gradientTransform="matrix(1 0 0 .58387 9.4 4.95)" spreadMethod="pad"><stop offset="0%" stop-color="#FFF"/><stop offset="100%"/></radialGradient><g id="i"><path fill="url(#c)" d="M6.3 4.8q-.256-.456-.65-.85Q4.6 2.85 3 2.85q-1.55 0-2.7 1.1-1.05 1.1-1.05 2.7T.3 9.35q1.15 1.1 2.7 1.1 1.6 0 2.65-1.1 1.1-1.1 1.1-2.7 0-1.027-.45-1.85z"/><path fill="#900" d="M11.6 12.35q-.15-.05-.25-.05-4.3.8-8.1.05-.2 0-.35.1-.15.05-.25.25-.1.1-.1.3 0 1.7 1.35 3.15 1.4 1.6 3.45 1.6h.05q2.1-.05 3.5-1.55h.05q1.2-1.5 1-3.35 0-.15-.1-.3-.15-.1-.25-.2m-1.5 3v.1q-1.1 1-2.75 1.1-1.6 0-2.65-1.25-.7-.75-.9-1.6 3.35.5 7.05-.05-.15.9-.75 1.7z"/><path fill="#FFF" d="M10.1 15.45v-.1q.6-.8.75-1.7-3.7.55-7.05.05.2.85.9 1.6 1.05 1.25 2.65 1.25 1.65-.1 2.75-1.1z"/><path fill="url(#d)" d="M13.6 9.35q1.1-1.1 1.1-2.7 0-1.002-.45-1.8-.239-.489-.65-.9-1.05-1.1-2.65-1.1-1.55 0-2.65 1.1-.379.397-.65.85-.4.827-.4 1.85 0 1.6 1.05 2.7 1.1 1.1 2.65 1.1 1.6 0 2.65-1.1z"/></g><g id="k"><path fill="#09F" d="M36.4 21.9q-.55-.55-1.05-1-1.9-1.35-4.4-1.2-.3-.15-.6 0-2 .05-3.6 1.1-.65.55-1.15 1.1-.4.25-.55.5-1.8 2.1-1.8 4.95 0 3.15 2.35 5.5Q27.75 35 30.95 35q3.15 0 5.45-2.15 2.3-2.35 2.3-5.5t-2.3-5.45m-4.05 3.6l4.1-.65-2.9 3.1 1.85 3.9-3.8-1.8-3.1 2.85.6-4.15-3.8-2.1 4.25-.7.7-4.25 2.1 3.8z"/><path fill="#FC0" d="M36.45 24.85l-4.1.65-2.1-3.8-.7 4.25-4.25.7 3.8 2.1-.6 4.15 3.1-2.85 3.8 1.8-1.85-3.9 2.9-3.1z"/></g><linearGradient id="b" gradientUnits="userSpaceOnUse" x1="9.35" y1="11.563" x2="9.35" y2="-2.263" spreadMethod="pad"><stop offset="20.392%" stop-color="#FFF" stop-opacity="0"/><stop offset="73.725%" stop-color="#FFF" stop-opacity=".949"/><stop offset="100%" stop-color="#FFF" stop-opacity=".651"/><stop offset="100%" stop-opacity=".251"/></linearGradient></defs><use xlink:href="#e" transform="matrix(1.59167 0 0 1.59167 1.5 5.37)"/><use xlink:href="#f" transform="matrix(1.59167 0 0 1.59167 1.5 5.37)"/><use xlink:href="#g" transform="matrix(1.59167 0 0 1.59167 1.5 5.45)"/><use xlink:href="#h" transform="matrix(1.59167 0 0 1.59167 1.5 5.45)"/><g transform="matrix(1.59167 0 0 1.59167 1.5 5.45)"><use xlink:href="#i"/><use xlink:href="#j"/></g><g><use xlink:href="#k"/><use xlink:href="#l"/></g><g><use xlink:href="#m"/></g></svg>