<svg xmlns="http://www.w3.org/2000/svg" xmlns:xlink="http://www.w3.org/1999/xlink" preserveAspectRatio="none" width="40" height="40"><defs><path fill="red" d="M21.5 8.85q.55-4.25.55-5.05 0-.8-.55-1.45-.6-.5-1.55-.5-1 0-1.55.5-.55.65-.55 1.45 0 .8.45 5.05.6 4.2.9 8.1h1.4q.3-3.9.9-8.1m.7 12.8q0-.8-.55-1.4-.75-.6-1.7-.6-1 0-1.65.6-.7.6-.7 1.4 0 .8.7 1.4.65.55 1.65.55.95 0 1.7-.55.55-.6.55-1.4z" id="d"/><path id="b" stroke="#000" stroke-width="1" stroke-linejoin="round" stroke-linecap="round" fill="none" d="M37.3 6.95h.2V37.6q0 1.85-1.95 1.85H4.6q-1.85 0-1.85-1.85V2.55Q2.75.7 4.6.7h26.85l5.85 6.25.2.25M30.45.7V5q0 1.2 1.65 1.95h5.2"/><path id="c" stroke="#39F" stroke-width="1" stroke-linejoin="round" stroke-linecap="round" fill="none" d="M7.45 31.15h24.8M7.45 25.9h24.8M7.45 36.25h22.7"/><g id="a"><path fill="#0173B6" d="M30.45.7V5q0 1.2 1.65 1.95h5.2L31.45.7h-1z"/><path fill="#FFF" d="M37.5 7.2l-.2-.25h-5.2Q30.45 6.2 30.45 5V.7H4.6Q2.75.7 2.75 2.55V37.6q0 1.85 1.85 1.85h30.95q1.95 0 1.95-1.85V7.2M7.45 31.15h24.8-24.8m0-5.25h24.8-24.8m0 10.35h22.7-22.7z"/></g></defs><g><use xlink:href="#a"/><use xlink:href="#b"/><use xlink:href="#c"/></g><use xlink:href="#d"/></svg>