<svg xmlns="http://www.w3.org/2000/svg" width="275" height="284"><style></style><switch><g><linearGradient id="SVGID_1_" gradientUnits="userSpaceOnUse" x1="-90" y1="-374" x2="-90" y2="-375"><stop offset="0" stop-color="#656565"/><stop offset=".618" stop-color="#1b1b1b"/><stop offset=".629" stop-color="#545454"/><stop offset=".983" stop-color="#3e3e3e"/></linearGradient><g id="lines"><path d="M83.5 158.5c0 43.078 35.37 78 79 78 16.608 0 21.281 1.643 34-7 4.24-2.881 16.974 7.986 32 16 15 8-2.056-40.848.951-45.577A76.914 76.914 0 00241.5 158.5c0-43.078-35.37-78-79-78s-79 34.922-79 78z" fill="#d6dfff" stroke="#1faaff" stroke-width="15" stroke-miterlimit="10"/><path d="M192.5 115.5c0 43.078-35.37 78-79 78-16.608 0-21.281 1.643-34-7-4.24-2.881-20.974 13.986-36 22-15 8 6.056-46.848 3.049-51.577A76.914 76.914 0 0134.5 115.5c0-43.078 35.37-78 79-78s79 34.922 79 78z" fill="#fff" stroke="#1faaff" stroke-width="15" stroke-miterlimit="10"/><path d="M102.447 138.349c.045-6.387.992-11.063 2.84-14.03 1.847-2.965 5.531-6.57 11.052-10.812 3.239-2.646 5.828-5.498 7.767-8.555 1.939-3.056 2.909-6.478 2.909-10.266 0-4.197-1.107-7.482-3.32-9.855-2.213-2.372-5.372-3.559-9.478-3.559-3.377 0-6.239 1.004-8.589 3.011-2.35 2.008-3.548 4.952-3.593 8.828H82.6l-.137-.41c-.137-8.76 2.748-15.468 8.657-20.122s13.608-6.98 23.098-6.98c10.22 0 18.238 2.589 24.056 7.767C144.091 78.545 147 85.583 147 94.479c0 5.795-1.7 11.156-5.099 16.083-3.399 4.928-7.654 9.058-12.763 12.387-2.784 2.146-4.609 4.301-5.475 6.468-.867 2.167-1.3 5.144-1.3 8.931h-19.916zm20.052 28.333h-20.121v-17.11h20.121v17.11z" fill="#1faaff" stroke="#1faaff" stroke-width="1.121" stroke-miterlimit="10"/></g></g></switch></svg>