<svg xmlns="http://www.w3.org/2000/svg" xmlns:xlink="http://www.w3.org/1999/xlink" preserveAspectRatio="none" width="32" height="32"><defs><path fill="#303030" d="M7.55 5.95Q7 5.4 6.2 5.4t-1.4.55q-.55.6-.55 1.45t.55 1.4q.6.6 1.4.6.8 0 1.35-.6.6-.55.6-1.4 0-.85-.6-1.45m6.15 0q-.55-.55-1.35-.55t-1.4.55q-.55.6-.55 1.45t.55 1.4q.6.6 1.4.6.8 0 1.35-.6.6-.55.6-1.4 0-.85-.6-1.45z" id="c"/><path id="a" stroke="#303030" stroke-width="1" stroke-linejoin="round" stroke-linecap="round" fill="none" d="M12.9 3.4q1.15 0 2 1.1.85 1.1.85 2.65 0 1.55-.85 2.65-.85 1.1-2 1.1-1.1 0-1.95-1.1-.85-1.1-.85-2.65 0-1.55.85-2.65.85-1.1 1.95-1.1zM3.7 9.8q-.85-1.1-.85-2.65 0-1.55.85-2.65.85-1.1 1.95-1.1 1.15 0 2 1.1.85 1.1.85 2.65 0 1.55-.85 2.65-.85 1.1-2 1.1-1.1 0-1.95-1.1z"/><path id="b" stroke="#303030" stroke-width="1" stroke-linejoin="round" stroke-linecap="round" fill="none" d="M4.25 13q4.95 5.95 10.85-.1"/></defs><use xlink:href="#smilies_smileback_0_Layer2_0_FILL" transform="matrix(1.52632 0 0 1.52493 1.6 1.726)"/><use xlink:href="#smilies_smileback_0_Layer1_0_FILL" transform="matrix(1.52632 0 0 1.52493 1.6 1.726)"/><g transform="matrix(1.52632 0 0 1.52493 1.6 1.65)"><use xlink:href="#smilies_smile_0_Layer1_0_FILL"/><use xlink:href="#a"/><use xlink:href="#b"/></g><g transform="matrix(1.52632 0 0 1.52493 1.6 1.65)"><use xlink:href="#c"/></g></svg>