<svg xmlns="http://www.w3.org/2000/svg" xmlns:xlink="http://www.w3.org/1999/xlink" preserveAspectRatio="none" width="19" height="19"><defs><linearGradient id="a" gradientUnits="userSpaceOnUse" x1="7.45" y1="15.3" x2="7.95" y2="2.2" spreadMethod="pad"><stop offset=".392%" stop-color="#52527B"/><stop offset="51.765%" stop-color="#FFF"/><stop offset="100%" stop-color="#6C35C1"/></linearGradient><radialGradient id="b" gradientUnits="userSpaceOnUse" cx="0" cy="0" r="25.067" fx="0" fy="0" gradientTransform="matrix(.7081 .7061 -.54205 .68167 18.8 17.3)" spreadMethod="pad"><stop offset="0%" stop-color="#FFF"/><stop offset="100%"/></radialGradient><radialGradient id="c" gradientUnits="userSpaceOnUse" cx="0" cy="0" r="9.042" fx="-.602" fy="-.601" gradientTransform="matrix(.7078 .70642 -.73406 .92207 -10.65 9.4)" spreadMethod="pad"><stop offset="0%" stop-color="#FFF"/><stop offset="100%"/></radialGradient><radialGradient id="d" gradientUnits="userSpaceOnUse" cx="0" cy="0" r="12.622" fx="0" fy="0" gradientTransform="rotate(-45 9.987 -4.137) scale(1 .33473)" spreadMethod="pad"><stop offset="0%" stop-color="#FFF"/><stop offset="80.784%" stop-color="#A8000C"/></radialGradient><radialGradient id="e" gradientUnits="userSpaceOnUse" cx="0" cy="0" r="39.899" fx="0" fy="0" gradientTransform="rotate(-45 43.09 -17.648) scale(1 .144)" spreadMethod="pad"><stop offset="0%" stop-color="#5E0000"/><stop offset="80.784%" stop-color="#A8000C"/></radialGradient><path fill="url(#a)" d="M13.2 5.95q-2.929-1.885-6.35-2.4-3.41-.516-5.05.3Q.214 4.667-.3 7.5q-.46 2.877 1.5 4.35 1.992 1.473 4.95 2.3 2.967.828 5.8-.45 2.792-1.19 3.45-3.55.716-2.315-2.2-4.2z" id="f"/><path fill="url(#b)" d="M15.1 21.7q3.6-1.937 5.15-6.4 1.548-4.466.15-8.85-1.31-4.323-4.75-6-3.448-1.634-7.05.3-3.523 2.056-5.1 6.5-1.535 4.498-.2 8.8 1.373 4.404 4.8 6.05 3.474 1.653 7-.4z" id="h"/><path fill="url(#c)" d="M-7.7 16.55q1.744-.952 2.5-3.15.763-2.158.1-4.3-.649-2.115-2.35-2.95-1.668-.783-3.45.15-1.7 1.017-2.45 3.2-.769 2.186-.15 4.3.705 2.142 2.4 2.95 1.675.798 3.4-.2z" id="j"/><g id="l"><path fill="#FFF" d="M16.05 4h-.6q-4.75 0-8.1 3.35Q4 10.7 4 15.45v.6q.164 3.213 1.9 5.75L21.8 5.9Q19.26 4.162 16.05 4M26.9 15.45q0-.795-.1-1.55-.351-2.86-2.05-5.15l-16 16q.732.543 1.5.95.32.152.6.25.09.054.15.05 1.647.734 3.5.85.483.05.95.05 4.75 0 8.1-3.35 3.35-3.35 3.35-8.1z"/><path fill="url(#d)" d="M17.7.15Q16.642 0 15.5 0 9.1 0 4.55 4.55 0 9.1 0 15.5q0 1.143.15 2.2.597-.148 1.25-.4 1.31-.511 2.6-1.25v-.6q0-4.75 3.35-8.1Q10.7 4 15.45 4h.6q.737-1.303 1.25-2.65.248-.615.4-1.2z"/><path fill="#A8000C" d="M26.8 13.9q1.474-.853 2.95-1.45l.9-.3q-.89-4.29-4.2-7.6Q22.712.812 17.7.15q-.152.585-.4 1.2-.513 1.347-1.25 2.65 3.21.162 5.75 1.9L5.9 21.8Q4.164 19.263 4 16.05q-1.29.739-2.6 1.25-.653.252-1.25.4.664 5.014 4.4 8.75.528.528 1.05 1 .08.046.1.1 3.302 2.69 7.4 3.25.235-1.078.75-2.4.297-.767.65-1.55-1.853-.116-3.5-.85-.06.004-.15-.05-.28-.098-.6-.25-.768-.407-1.5-.95l16-16q1.699 2.29 2.05 5.15z"/><path fill="url(#e)" d="M31 15.5q0-1.746-.35-3.35l-.9.3q-1.476.597-2.95 1.45.1.755.1 1.55 0 4.75-3.35 8.1-3.35 3.35-8.1 3.35-.467 0-.95-.05-.353.783-.65 1.55-.515 1.322-.75 2.4 1.179.2 2.4.2 6.4 0 10.95-4.55Q31 21.9 31 15.5z"/></g><path id="g" stroke="#52527B" stroke-width=".05" stroke-linejoin="round" stroke-linecap="round" fill="none" d="M13.2 5.95q2.916 1.885 2.225 4.225-.683 2.335-3.475 3.55-2.833 1.253-5.8.425-2.958-.827-4.925-2.3-1.984-1.473-1.5-4.325.489-2.858 2.1-3.675 1.616-.816 5.025-.3 3.421.515 6.35 2.4z"/><path id="i" stroke="#5D5D5D" stroke-width=".05" stroke-linejoin="round" stroke-linecap="round" fill="none" d="M15.125 21.725q-3.551 2.028-7 .375-3.452-1.646-4.825-6.025-1.335-4.327.225-8.8 1.552-4.47 5.1-6.5 3.577-1.959 7.025-.3 3.44 1.652 4.775 5.975 1.373 4.384-.175 8.85-1.55 4.463-5.125 6.425z"/><path id="k" stroke="#5B5B5B" stroke-width=".05" stroke-linejoin="round" stroke-linecap="round" fill="none" d="M-7.7 16.55q-1.725.998-3.4.2-1.695-.808-2.375-2.95-.644-2.114.125-4.3.75-2.183 2.475-3.175 1.757-.958 3.45-.15 1.676.81 2.325 2.925.663 2.142-.1 4.325-.756 2.173-2.5 3.125z"/></defs><g transform="matrix(.68951 0 0 .68971 2.35 1.7)"><use xlink:href="#f"/><use xlink:href="#g"/></g><g transform="matrix(.68951 0 0 .68971 2.35 1.7)"><use xlink:href="#h"/><use xlink:href="#i"/></g><g transform="matrix(.68951 0 0 .68971 16.313 1.355)"><use xlink:href="#j"/><use xlink:href="#k"/></g><use xlink:href="#l" transform="matrix(.27793 0 0 .278 9.004 8.321)"/></svg>
