<svg xmlns="http://www.w3.org/2000/svg" xmlns:xlink="http://www.w3.org/1999/xlink" preserveAspectRatio="none" width="40" height="40"><defs><path fill="#090" d="M8.3 3.4q-.003-1.407-1-2.4-.993-.996-2.4-1-1.407.004-2.4 1-.998.993-1 2.4.002 1.407 1 2.4.993.984 2.4.95-1.661.183-3.2 2.35-1.762 2.507-1.7 5.75.025 1.063 5.15 1.15 5.116.083 5.05-.95-.189-3.326-1.75-5.85-1.453-2.424-3.3-2.45 1.254-.06 2.15-.95.997-.993 1-2.4z" id="c"/><path fill="#03F" d="M8.8 3.9q0-1.4-1-2.4T5.4.5Q4 .5 3 1.5T2 3.9q0 1.4 1 2.4t2.4 1q-1.65.15-3.2 2.35Q.45 12.1.5 15.4q.05 1 5.15 1.1 5.1.1 5.05-.95-.2-3.35-1.7-5.8Q7.5 7.3 5.7 7.3q1.2-.1 2.1-1 1-1 1-2.4z" id="h"/><path fill="red" d="M8.8 3.9q0-1.4-1-2.4T5.4.5Q4 .5 3 1.5T2 3.9q0 1.4 1 2.4t2.4 1q-1.65.15-3.2 2.35Q.45 12.1.5 15.4q.05 1 5.15 1.1 5.1.1 5.05-.95-.2-3.35-1.7-5.8Q7.5 7.3 5.7 7.3q1.2-.1 2.1-1 1-1 1-2.4z" id="m"/><path fill="#F60" d="M8.8 3.9q0-1.4-1-2.4T5.4.5Q4 .5 3 1.5T2 3.9q0 1.4 1 2.4t2.4 1q-1.65.15-3.2 2.35Q.45 12.1.5 15.4q.05 1 5.15 1.1 5.1.1 5.05-.95-.2-3.35-1.7-5.8Q7.5 7.3 5.7 7.3q1.2-.1 2.1-1 1-1 1-2.4z" id="r"/><path id="e" stroke="#000" stroke-opacity=".651" stroke-width="1" stroke-linejoin="round" stroke-linecap="round" fill="none" d="M5.4 7.3Q4 7.3 3 6.3T2 3.9q0-1.4 1-2.4t2.4-1q1.4 0 2.4 1t1 2.4q0 1.4-1 2.4-.9.9-2.1 1 1.8 0 3.3 2.45 1.5 2.45 1.7 5.8.05 1.05-5.05.95-5.1-.1-5.15-1.1-.05-3.3 1.7-5.75 1.55-2.2 3.2-2.35z"/><path id="f" stroke="#FFF" stroke-width="1" stroke-linejoin="round" stroke-linecap="round" fill="none" d="M3.7 3.95Q3.9 2.65 5 2.1M2.7 14.9q.3-4.25 2.7-5.8"/><path id="g" stroke="#000" stroke-width="1" stroke-linejoin="round" stroke-linecap="round" fill="none" d="M5.45 7.3H5.4"/><path id="j" stroke="#000" stroke-opacity=".651" stroke-width="1" stroke-linejoin="round" stroke-linecap="round" fill="none" d="M5.4 7.3Q4 7.3 3 6.3T2 3.9q0-1.4 1-2.4t2.4-1q1.4 0 2.4 1t1 2.4q0 1.4-1 2.4-.9.9-2.1 1 1.8 0 3.3 2.45 1.5 2.45 1.7 5.8.05 1.05-5.05.95-5.1-.1-5.15-1.1-.05-3.3 1.7-5.75 1.55-2.2 3.2-2.35z"/><path id="k" stroke="#FFF" stroke-width="1" stroke-linejoin="round" stroke-linecap="round" fill="none" d="M3.7 3.95Q3.9 2.65 5 2.1M2.7 14.9q.3-4.25 2.7-5.8"/><path id="l" stroke="#000" stroke-width="1" stroke-linejoin="round" stroke-linecap="round" fill="none" d="M5.45 7.3H5.4"/><path id="o" stroke="#000" stroke-opacity=".651" stroke-width="1" stroke-linejoin="round" stroke-linecap="round" fill="none" d="M5.4 7.3Q4 7.3 3 6.3T2 3.9q0-1.4 1-2.4t2.4-1q1.4 0 2.4 1t1 2.4q0 1.4-1 2.4-.9.9-2.1 1 1.8 0 3.3 2.45 1.5 2.45 1.7 5.8.05 1.05-5.05.95-5.1-.1-5.15-1.1-.05-3.3 1.7-5.75 1.55-2.2 3.2-2.35z"/><path id="p" stroke="#FFF" stroke-width="1" stroke-linejoin="round" stroke-linecap="round" fill="none" d="M3.7 3.95Q3.9 2.65 5 2.1M2.7 14.9q.3-4.25 2.7-5.8"/><path id="q" stroke="#000" stroke-width="1" stroke-linejoin="round" stroke-linecap="round" fill="none" d="M5.45 7.3H5.4"/><path id="t" stroke="#000" stroke-opacity=".651" stroke-width="1" stroke-linejoin="round" stroke-linecap="round" fill="none" d="M5.4 7.3Q4 7.3 3 6.3T2 3.9q0-1.4 1-2.4t2.4-1q1.4 0 2.4 1t1 2.4q0 1.4-1 2.4-.9.9-2.1 1 1.8 0 3.3 2.45 1.5 2.45 1.7 5.8.05 1.05-5.05.95-5.1-.1-5.15-1.1-.05-3.3 1.7-5.75 1.55-2.2 3.2-2.35z"/><path id="u" stroke="#FFF" stroke-width="1" stroke-linejoin="round" stroke-linecap="round" fill="none" d="M3.7 3.95Q3.9 2.65 5 2.1M2.7 14.9q.3-4.25 2.7-5.8"/><path id="v" stroke="#000" stroke-width="1" stroke-linejoin="round" stroke-linecap="round" fill="none" d="M5.45 7.3H5.4"/><g id="d"><path fill="url(#a)" d="M5.7 7.3h-.3q-1.65.15-3.2 2.35Q.45 12.1.5 15.4q.05 1 5.15 1.1 5.1.1 5.05-.95-.2-3.35-1.7-5.8Q7.5 7.3 5.7 7.3m-3 7.6q.3-4.25 2.7-5.8-2.4 1.55-2.7 5.8z"/><path fill="url(#b)" d="M7.8 1.5q-1-1-2.4-1T3 1.5q-1 1-1 2.4t1 2.4q1 1 2.4 1h.3q1.2-.1 2.1-1 1-1 1-2.4t-1-2.4M3.7 3.95Q3.9 2.65 5 2.1q-1.1.55-1.3 1.85z"/></g><g id="i"><path fill="url(#a)" d="M5.45 7.3H5.4q-1.65.15-3.2 2.35Q.45 12.1.5 15.4q.05 1 5.15 1.1 5.1.1 5.05-.95-.2-3.35-1.7-5.8Q7.5 7.3 5.7 7.3h-.25M2.7 14.9q.3-4.25 2.7-5.8-2.4 1.55-2.7 5.8z"/><path fill="url(#b)" d="M7.8 1.5q-1-1-2.4-1T3 1.5q-1 1-1 2.4t1 2.4q1 1 2.4 1h.3q1.2-.1 2.1-1 1-1 1-2.4t-1-2.4M3.7 3.95Q3.9 2.65 5 2.1q-1.1.55-1.3 1.85z"/></g><g id="n"><path fill="url(#a)" d="M5.45 7.3H5.4q-1.65.15-3.2 2.35Q.45 12.1.5 15.4q.05 1 5.15 1.1 5.1.1 5.05-.95-.2-3.35-1.7-5.8Q7.5 7.3 5.7 7.3h-.25M2.7 14.9q.3-4.25 2.7-5.8-2.4 1.55-2.7 5.8z"/><path fill="url(#b)" d="M7.8 1.5q-1-1-2.4-1T3 1.5q-1 1-1 2.4t1 2.4q1 1 2.4 1h.3q1.2-.1 2.1-1 1-1 1-2.4t-1-2.4M3.7 3.95Q3.9 2.65 5 2.1q-1.1.55-1.3 1.85z"/></g><g id="s"><path fill="url(#a)" d="M5.45 7.3H5.4q-1.65.15-3.2 2.35Q.45 12.1.5 15.4q.05 1 5.15 1.1 5.1.1 5.05-.95-.2-3.35-1.7-5.8Q7.5 7.3 5.7 7.3h-.25M2.7 14.9q.3-4.25 2.7-5.8-2.4 1.55-2.7 5.8z"/><path fill="url(#b)" d="M7.8 1.5q-1-1-2.4-1T3 1.5q-1 1-1 2.4t1 2.4q1 1 2.4 1h.3q1.2-.1 2.1-1 1-1 1-2.4t-1-2.4M3.7 3.95Q3.9 2.65 5 2.1q-1.1.55-1.3 1.85z"/></g><g id="w"><path fill="#333" fill-opacity=".247" d="M19.85 2q-.15-.75-.6-1.15-.6-.45-1.25-.4-.7-.05-1.2.45L8.6 8.15l-.4-1.2q-.15-.5-.6-.85-.45-.4-1-.4-.55-.05-1.1.2-.45.3-.65.85L-.8 18.8q-.35.55-.15 1.25.15.55.75 1.05.45.35 1.1.35.7-.05 1.15-.5l5.4-4.75.2.5q.25.65.9 1 .6.3 1.3.2.65-.25 1.05-.85L19.6 3.3q.35-.65.25-1.3M18 .9q.55-.05.9.3.4.35.5.85.1.5-.2.95l-8.7 13.85q-.3.4-.75.55-.6.15-1.05-.1-.45-.3-.55-.75l-.5-1.1L1.8 20.6q-.45.35-.9.35t-.85-.25q-.35-.3-.5-.8-.15-.45.1-.85L5.2 6.95q.2-.45.6-.6.3-.25.75-.2.45.05.75.3.35.25.5.65l.55 1.8 8.75-7.7q.4-.3.9-.3z"/><path fill="#333" fill-opacity=".498" d="M18.9 1.2q-.35-.35-.9-.3-.5 0-.9.3L8.35 8.9 7.8 7.1q-.15-.4-.5-.65-.3-.25-.75-.3-.45-.05-.75.2-.4.15-.6.6l-5.55 12.1q-.25.4-.1.85.15.5.5.8.4.25.85.25.45 0 .9-.35l5.85-5.15.5 1.1q.1.45.55.75.45.25 1.05.1.45-.15.75-.55L19.2 3q.3-.45.2-.95-.1-.5-.5-.85m-.3.35q.25.25.35.6 0 .25-.15.6l-8.65 13.8q-.15.35-.5.4-.4.05-.65 0-.4-.25-.5-.6l-.6-1.75-6.4 5.65q-.3.2-.6.25-.35 0-.6-.25-.25-.15-.4-.45-.05-.35.15-.65l5.65-12q.1-.3.35-.4.15-.2.45-.2.3 0 .6.25.1.15.2.45l.85 2.45 9.3-8.15q.2-.25.55-.25.35 0 .6.25z"/><path fill="#333" fill-opacity=".733" d="M18.95 2.15q-.1-.35-.35-.6-.25-.25-.6-.25t-.55.25L8.15 9.7 7.3 7.25q-.1-.3-.2-.45-.3-.25-.6-.25t-.45.2q-.25.1-.35.4l-5.65 12q-.2.3-.15.65.15.3.4.45.25.25.6.25.3-.05.6-.25l6.4-5.65.6 1.75q.1.35.5.6.25.05.65 0 .35-.05.5-.4l8.65-13.8q.15-.35.15-.6m-.45.1q.05.1-.05.3L9.75 16.3q-.1.2-.3.25-.15 0-.3-.05-.15-.1-.2-.25l-.9-2.45-6.9 6.1q-.15.15-.3.15-.1 0-.25-.05-.15-.15-.15-.3-.05-.2 0-.3l5.6-12q.05-.2.15-.25.1-.05.3-.05.1 0 .3.05.05.1.1.3l1.05 3.15 9.8-8.65q.1-.15.25-.1.2-.05.3.1.15.05.2.3z"/><path fill="#FF0" d="M18.45 2.55q.1-.2.05-.3-.05-.25-.2-.3-.1-.15-.3-.1-.15-.05-.25.1l-9.8 8.65L6.9 7.45q-.05-.2-.1-.3-.2-.05-.3-.05-.2 0-.3.05-.1.05-.15.25l-5.6 12q-.05.1 0 .3 0 .15.15.3.15.05.25.05.15 0 .3-.15l6.9-6.1.9 2.45q.05.15.2.25.15.05.3.05.2-.05.3-.25l8.7-13.75z"/></g><radialGradient id="a" gradientUnits="userSpaceOnUse" cx="0" cy="0" r="9.668" fx="0" fy="0" gradientTransform="matrix(.48356 -.87531 .51459 .28186 8.15 13.8)" spreadMethod="pad"><stop offset="0%" stop-opacity=".412"/><stop offset="100%" stop-color="#013198" stop-opacity="0"/></radialGradient><radialGradient id="b" gradientUnits="userSpaceOnUse" cx="0" cy="0" r="5.021" fx="0" fy="0" gradientTransform="matrix(.77672 -.62984 .4008 .49292 6.9 5.15)" spreadMethod="pad"><stop offset="0%" stop-opacity=".424"/><stop offset="100%" stop-color="#013198" stop-opacity="0"/></radialGradient></defs><use xlink:href="#c" transform="matrix(1.23315 0 0 1.23315 14.567 7.367)"/><g transform="matrix(1.23315 0 0 1.23315 13.95 6.75)"><use xlink:href="#d"/><use xlink:href="#e"/><use xlink:href="#f"/><use xlink:href="#g"/></g><use xlink:href="#h" transform="matrix(1.23315 0 0 1.23315 8.75 10.35)"/><g transform="matrix(1.23315 0 0 1.23315 8.75 10.35)"><use xlink:href="#i"/><use xlink:href="#j"/><use xlink:href="#k"/><use xlink:href="#l"/></g><g><use xlink:href="#m" transform="matrix(1.23315 0 0 1.23315 19.25 10.35)"/><g transform="matrix(1.23315 0 0 1.23315 19.25 10.35)"><use xlink:href="#n"/><use xlink:href="#o"/><use xlink:href="#p"/><use xlink:href="#q"/></g></g><g><use xlink:href="#r" transform="matrix(1.23315 0 0 1.23315 13.95 13.7)"/><g transform="matrix(1.23315 0 0 1.23315 13.95 13.7)"><use xlink:href="#s"/><use xlink:href="#t"/><use xlink:href="#u"/><use xlink:href="#v"/></g></g><g><use xlink:href="#w" transform="matrix(1.10632 0 0 1.10632 10.45 12.2)"/></g></svg>