<svg xmlns="http://www.w3.org/2000/svg" xmlns:xlink="http://www.w3.org/1999/xlink" preserveAspectRatio="none" width="40" height="40"><defs><path fill="#0F3" d="M23.8-6.3h-14v-13.8H-.55v13.8H-14.2V4.05H-.55V17.9H9.8V4.05h14V-6.3z" id="c"/><path id="b" stroke="#900" stroke-width="1" stroke-linejoin="round" stroke-linecap="round" fill="none" d="M12.75 23.05Q-19.5 8.9-1.1-5.15 5.25-8.5 9.9-2.9q.5-6.35 7.2-7.2 6 .5 9.2 2.6 11.1 6.95-9.05 32.4-2.4-1-4.5-1.85z"/><path id="d" stroke="#060" stroke-width="1" stroke-linejoin="round" stroke-linecap="round" fill="none" d="M23.8-6.3V4.05h-14V17.9H-.55V4.05H-14.2V-6.3H-.55v-13.8H9.8v13.8h14z"/><g id="a"><path fill="#900" d="M12.75 23.05q2.1.85 4.5 1.85Q37.4-.55 26.3-7.5 26.2 12 12.75 23.05z"/><path fill="#DF1D0E" d="M26.3-7.5q-3.2-2.1-9.2-2.6-6.7.85-7.2 7.2-4.65-5.6-11-2.25-18.4 14.05 13.85 28.2Q26.2 12 26.3-7.5m-9.7 5.6L11-5.15q5.25-4.95 11.35-3.7-5.5 2.1-5.75 6.95M2.65 2.55q-2.25 7.1 7.5 14.3-8.1-.75-11.95-6.35Q-7.05 1.7-.1-1.4l2.75 3.95z"/><path fill="#FFF" d="M10.15 16.85Q.4 9.65 2.65 2.55L-.1-1.4q-6.95 3.1-1.7 11.9 3.85 5.6 11.95 6.35m.85-22l5.6 3.25q.25-4.85 5.75-6.95-6.1-1.25-11.35 3.7z"/></g></defs><g transform="matrix(.86682 .14404 -.14407 .86676 10.45 11.9)"><use xlink:href="#a"/><use xlink:href="#b"/></g><g transform="matrix(.39471 0 0 .39471 28.9 31.55)"><use xlink:href="#c"/><use xlink:href="#d"/></g></svg>