<svg xmlns="http://www.w3.org/2000/svg" xmlns:xlink="http://www.w3.org/1999/xlink" preserveAspectRatio="none" width="20" height="20"><defs><path id="b" stroke="#444" stroke-opacity=".451" stroke-width="8" stroke-linejoin="round" stroke-linecap="round" fill="none" d="M46.85-87.35v19.45q0 5.25 7.35 8.95h23.15L51.6-87.35H-70q-8.4 0-8.4 8.4V73.7M78.4-42.65V-58.4l-1.05-.55h1.05v.55m0 15.75v121.6q0 8.4-8.95 8.4H-70q-8.4 0-8.4-8.4V73.7"/><path id="c" stroke="#39F" stroke-width="8" stroke-linejoin="round" stroke-linecap="round" fill="none" d="M-60.55-49.45H-6.3M-60.55-3.7h48.45m-48.45-15.25H13.7m-74.25-15.8H13.7"/><path id="d" stroke="#008C1C" stroke-width="8" stroke-linejoin="round" stroke-linecap="round" fill="none" d="M-21.05 36.85L11.6 64.2 57.35 0"/><g id="a"><path fill="#DEDEDE" d="M78.4-42.65Q49.45-36.3 24.2-25.8 2.1-15.8-16.3-2.1-30 8.4-42.1 20.55-63.15 43.7-78.4 73.7v5.25q0 8.4 8.4 8.4H69.45q8.95 0 8.95-8.4v-121.6z"/><path fill="#FFF" d="M77.35-58.95H54.2q-7.35-3.7-7.35-8.95v-19.45H-70q-8.4 0-8.4 8.4V73.7q15.25-30 36.3-53.15Q-30 8.4-16.3-2.1 2.1-15.8 24.2-25.8q25.25-10.5 54.2-16.85V-58.4l-1.05-.55z"/><path fill="#CBCBCB" d="M54.2-58.95h23.15L51.6-87.35h-4.75v19.45q0 5.25 7.35 8.95z"/></g></defs><g transform="matrix(.1 0 0 .1 9.95 9.95)"><use xlink:href="#a"/><use xlink:href="#b"/></g><use xlink:href="#c" transform="matrix(.1 0 0 .1 9.95 9.95)"/><use xlink:href="#d" transform="matrix(.1 0 0 .1 9.95 9.95)"/></svg>