<svg xmlns="http://www.w3.org/2000/svg" xmlns:xlink="http://www.w3.org/1999/xlink" preserveAspectRatio="none" width="40" height="40"><defs><path id="a" stroke="#FFF" stroke-width="1" stroke-linejoin="round" stroke-linecap="round" fill="none" d="M20.3 23.8q2-.45 3.75-1.2 3-1.45 3.05-3.45V16.1q-.05 1.9-3.05 3.35-3.15 1.5-7.5 1.5-1.15 0-2.15-.1-1.55-.1-2.95-.5-1.35-.35-2.4-.9Q6 18 6 15.95l-.1 2.85m.1-2.85v-.1q.05-1.95 3.05-3.4 3.05-1.5 7.5-1.5 4.35 0 7.5 1.5 3.05 1.45 3.05 3.5v.15q3 .2 5.35 1.35 3.05 1.4 3.05 3.5V24.65q-.1 1-.9 1.65-.45.35-2.15 1.2M35.5 21q-.05 2-3.05 3.45-1 .5-2.15.75M4.55 27.85L4.6 25v-.05q.1-1.95 2.9-3.3-1.45-1.15-1.5-2.5m1.5 2.5q.6.5 1.55.95.8.35 1.65.7m7.2 9.7q-1.3.15-2.7.15-4.45 0-7.5-1.5-3-1.45-3.1-3.45m5.1 1.1q-1.1-.35-2-.8-3.1-1.4-3.1-3.5"/><path id="b" stroke="#FFF" stroke-width="2" stroke-linejoin="round" stroke-linecap="round" fill="none" d="M16.8 24.1h-2.05l-1.85 1.85v2l1.55 1.55 15.45.35-4.3-4.15m4.3 4.15l-4.15 4.35"/></defs><g><use xlink:href="#a"/><use xlink:href="#b"/></g></svg>