<svg xmlns="http://www.w3.org/2000/svg" xmlns:xlink="http://www.w3.org/1999/xlink" preserveAspectRatio="none" width="19" height="19"><defs><path fill="#FFF" d="M2.15 10.7l1-2.35H8.2l1 2.35h2.15L6.75 0H4.6L0 10.7h2.15m2.2-4.2l1.3-3.6 1.2 3.6h-2.5z" id="a"/><path fill="#64695D" d="M10.65 3V1.6H6.1V0H4.6v1.7H.2v1.25h7q.1 2.4-1.85 3.75-1.3-1.05-1.75-3.1H2.1Q2.6 6.1 4 7.8q-1.1.9-4 1.8L.85 11q2.3-.85 4.45-2.1 2 1.45 3.6 1.6l1.3-1.05Q8.05 9.2 6.8 7.7 8.6 6.2 8.85 3h1.8z" id="b"/><path fill="#0067CD" d="M2.85 0L0 3.4h1.9Q1.55 9 6.25 8.7v1.15l3.6-2.25L6.45 5v1.5Q4.1 6.45 4.3 3.4H6L2.85 0z" id="c"/></defs><use xlink:href="#a" transform="matrix(.85 0 0 .85 8.36 7.95)"/><use xlink:href="#b" transform="matrix(.85 0 0 .85 1.05 2)"/><use xlink:href="#c" transform="matrix(.85 0 0 .85 3.643 7.483)"/></svg>