<svg version="1.1" id="Camada_1" xmlns="http://www.w3.org/2000/svg" x="0" y="0" viewBox="0 0 19 19" xml:space="preserve"><style>.st0{fill:#090}.st4,.st5{fill:none;stroke:#fff;stroke-linecap:round;stroke-linejoin:round}.st5{stroke:#000;stroke-width:5.000000e-02}</style><g transform="translate(30.5 .5)" id="col0"><path class="st0" d="M-16.1 5.4c0-.9-.3-1.6-.9-2.2-.6-.6-1.3-.9-2.2-.9-.9 0-1.6.3-2.2.9-.6.6-.9 1.3-.9 2.2 0 .9.3 1.6.9 2.2.6.6 1.3.9 2.2.9-1 .1-2 .8-2.9 2.1-1.1 1.5-1.6 3.3-1.5 5.2 0 .6 1.6 1 4.7 1 3.1.1 4.6-.2 4.6-.9-.1-2-.6-3.8-1.6-5.3-.9-1.5-1.9-2.2-3-2.2.8 0 1.4-.3 2-.9.5-.6.8-1.3.8-2.1z" id="ChatterB_0_Layer0_0_FILL"/></g><g><g id="Layer1_0_FILL"><radialGradient id="SVGID_1_" cx="-522.766" cy="-302.051" r="8.807" gradientTransform="matrix(.4836 -.8753 -.5146 -.2819 111.144 -527.84)" gradientUnits="userSpaceOnUse"><stop offset="0" stop-opacity=".412"/><stop offset="1" stop-color="#013198" stop-opacity="0"/></radialGradient><path d="M11.3 9c-1 .1-2 .8-2.9 2.1-1.1 1.5-1.6 3.2-1.5 5.2 0 .6 1.6.9 4.7 1 3.1.1 4.6-.2 4.6-.9-.1-2-.6-3.8-1.5-5.3S12.7 9 11.6 9h-.3m-2.5 6.9c.2-2.6 1-4.3 2.5-5.3-1.5.9-2.3 2.7-2.5 5.3z" fill="url(#SVGID_1_)"/><radialGradient id="SVGID_2_" cx="-343.825" cy="-335.338" r="4.574" gradientTransform="matrix(.7767 -.6298 -.4008 -.4929 145.3 -374.85)" gradientUnits="userSpaceOnUse"><stop offset="0" stop-opacity=".423"/><stop offset="1" stop-color="#013198" stop-opacity="0"/></radialGradient><path d="M14.4 5.9c0-.9-.3-1.6-.9-2.2-.6-.6-1.3-.9-2.2-.9-.9 0-1.6.3-2.2.9-.6.6-.9 1.3-.9 2.2s.3 1.5.9 2.1c.6.7 1.3 1 2.2 1h.2c.7-.1 1.4-.4 1.9-.9.7-.7 1-1.4 1-2.2m-4.7 0c.1-.8.5-1.4 1.2-1.7-.6.4-1 .9-1.2 1.7z" fill="url(#SVGID_2_)"/></g></g><g><path id="Layer1_0_1_STROKES" d="M11.3 9c-.9 0-1.6-.3-2.2-1-.6-.6-.9-1.3-.9-2.1s.3-1.6.9-2.2c.6-.6 1.3-.9 2.2-.9.9 0 1.6.3 2.2.9.6.6.9 1.3.9 2.2s-.3 1.5-.9 2.1c-.6.6-1.5.9-2.2 1 1.1 0 2.4.7 3.3 2.2s1.4 3.2 1.5 5.3c0 .6-1.5.9-4.6.9-3.1-.1-4.7-.4-4.7-1 0-2 .5-3.7 1.5-5.2 1-1.4 2-2.2 3-2.2z" fill="none" stroke="#000" stroke-width=".4" stroke-linecap="round" stroke-linejoin="round" stroke-opacity=".651"/></g><g><path id="Layer1_0_2_STROKES" class="st4" d="M9.7 5.9c.1-.8.5-1.4 1.2-1.7M8.8 15.9c.2-2.6 1-4.3 2.5-5.3"/></g><g><path id="Layer1_0_3_STROKES" class="st5" d="M11.3 9"/></g><g transform="matrix(.66707 0 0 .73657 25.85 4.35)"><g transform="translate(.5 .5)" id="col0_FL"><path class="st0" d="M-27.4 5.7c0-.9-.3-1.6-.9-2.2-.6-.6-1.3-.9-2.2-.9-.9 0-1.6.3-2.2.9-.6.6-.9 1.3-.9 2.2 0 .9.3 1.6.9 2.2.6.6 1.3.9 2.2.9-1 .1-2 .8-2.9 2.1-1.1 1.5-1.6 3.3-1.5 5.2 0 .6 1.6 1 4.7 1 3.1.1 4.6-.2 4.6-.9-.1-2-.6-3.8-1.6-5.3-.9-1.5-1.9-2.2-3-2.2.8 0 1.4-.3 2-.9.5-.6.8-1.3.8-2.1z" id="ChatterB_0_Layer0_0_FILL_1_"/></g><g><g id="C_pia_de_Pawn_0_Layer0_0_FILL"><radialGradient id="SVGID_3_" cx="-920.664" cy="-849.155" r="8.807" gradientTransform="matrix(.3226 -.5839 -.379 -.2076 -52.334 -698.683)" gradientUnits="userSpaceOnUse"><stop offset="0" stop-opacity=".412"/><stop offset="1" stop-color="#013198" stop-opacity="0"/></radialGradient><path d="M-29.7 9.3h-.2c-1 .1-2 .8-2.9 2.1-1.1 1.5-1.6 3.2-1.5 5.2 0 .6 1.6.9 4.7 1s4.6-.2 4.6-.9c-.1-2-.6-3.8-1.5-5.3-1.1-1.4-2.1-2.1-3.2-2.1m-2.7 6.9c.2-2.6 1-4.3 2.5-5.3-1.5.9-2.3 2.7-2.5 5.3z" fill="url(#SVGID_3_)"/><radialGradient id="SVGID_4_" cx="-539.37" cy="-883.988" r="4.574" gradientTransform="matrix(.5181 -.4201 -.2952 -.3631 -10.104 -540.266)" gradientUnits="userSpaceOnUse"><stop offset="0" stop-opacity=".423"/><stop offset="1" stop-color="#013198" stop-opacity="0"/></radialGradient><path d="M-27.8 4c-.6-.6-1.3-.9-2.2-.9s-1.6.3-2.2.9c-.6.6-.9 1.3-.9 2.2s.3 1.6.9 2.2c.6.6 1.3.9 2.2.9h.2c.7-.1 1.4-.4 1.9-.9.6-.6.9-1.3.9-2.2s-.2-1.6-.8-2.2m-3.7 2.2c.1-.8.5-1.4 1.2-1.7-.7.4-1.1.9-1.2 1.7z" fill="url(#SVGID_4_)"/></g></g><g><path id="C_pia_de_Pawn_0_Layer0_0_1_STROKES" d="M-30 9.3c-.9 0-1.6-.3-2.2-.9-.6-.6-.9-1.3-.9-2.2s.3-1.6.9-2.2c.6-.6 1.3-.9 2.2-.9s1.6.3 2.2.9.9 1.3.9 2.2-.3 1.6-.9 2.2c-.5.5-1.2.9-1.9.9 1.1 0 2.1.7 3 2.2.9 1.5 1.4 3.2 1.5 5.3 0 .6-1.5.9-4.6.9s-4.7-.4-4.7-1c0-2 .5-3.7 1.5-5.2 1.1-1.4 2-2.2 3-2.2z" fill="none" stroke="#000" stroke-width=".6" stroke-linecap="round" stroke-linejoin="round" stroke-opacity=".651"/></g><g><path id="C_pia_de_Pawn_0_Layer0_0_2_STROKES" class="st4" d="M-31.5 6.2c.1-.8.5-1.4 1.2-1.7m-2.1 11.7c.2-2.6 1-4.3 2.5-5.3"/></g><g><path id="C_pia_de_Pawn_0_Layer0_0_3_STROKES" class="st5" d="M-29.9 9.3"/></g></g></svg>