<svg xmlns="http://www.w3.org/2000/svg" xmlns:xlink="http://www.w3.org/1999/xlink" preserveAspectRatio="none" width="19" height="19"><defs><radialGradient id="a" gradientUnits="userSpaceOnUse" cx="0" cy="0" r="10.6" fx="0" fy="0" gradientTransform="translate(8.5 8.2)" spreadMethod="pad"><stop offset="0%" stop-color="#FEDA18"/><stop offset="69.804%" stop-color="#FEDA18"/><stop offset="100%" stop-color="#BA9501"/></radialGradient><linearGradient id="b" gradientUnits="userSpaceOnUse" x1="9.35" y1="11.563" x2="9.35" y2="-2.263" spreadMethod="pad"><stop offset="20.392%" stop-color="#FFF" stop-opacity="0"/><stop offset="73.725%" stop-color="#FFF" stop-opacity=".949"/><stop offset="100%" stop-color="#FFF" stop-opacity=".651"/><stop offset="100%" stop-opacity=".251"/></linearGradient><path fill="url(#a)" d="M16.2 2.75q-.645-.641-1.35-1.15-2.354-1.631-5.4-1.65L8.7 0Q6.263.176 4.3 1.5q-.806.532-1.55 1.25l-.55.6Q-.021 5.976-.05 9.45q.03 3.938 2.8 6.7 2.812 2.82 6.7 2.8 3.95.02 6.75-2.8 2.783-2.762 2.75-6.7.033-3.9-2.75-6.7z" id="c"/><path fill="url(#b)" d="M16.95 8.55q.15-.65.15-1.45 0-2.65-2.25-4.55-2.3-1.9-5.5-1.9-3.15 0-5.5 1.9Q1.6 4.45 1.6 7.1q0 .9.25 1.6l15.1-.15z" id="d"/><path fill="#FFF" d="M10.15 8.1q.15-.6.15-1.3 0-1.55-.85-2.65-.1-.15-.2-.25-.8-.85-1.8-.85-1.1 0-1.95 1.1-.85 1.1-.85 2.65 0 1.55.85 2.65.85 1.1 1.95 1.1 1.15 0 2-1.1.45-.6.7-1.35z" id="e"/><path fill="#FFF" d="M14.8 3.05q-1.1 0-1.95 1.1Q12 5.25 12 6.8q0 1.55.85 2.65.85 1.1 1.95 1.1 1.15 0 2-1.1.85-1.1.85-2.65 0-1.55-.85-2.65-.85-1.1-2-1.1z" id="h"/><path d="M9 5.4q-.55-.55-1.35-.55T6.3 5.4q-.55.55-.55 1.35T6.3 8.1q.55.55 1.35.55T9 8.1q.55-.55.55-1.35T9 5.4m5.3-.55q-.8 0-1.35.55t-.55 1.35q0 .8.55 1.35t1.35.55q.8 0 1.35-.55t.55-1.35q0-.8-.55-1.35t-1.35-.55z" id="k"/><path id="f" stroke="#333" stroke-width="1" stroke-linejoin="round" stroke-linecap="round" fill="none" d="M10.15 8.1q-.25.75-.7 1.35-.85 1.1-2 1.1-1.1 0-1.95-1.1-.85-1.1-.85-2.65 0-1.55.85-2.65.85-1.1 1.95-1.1 1 0 1.8.85.1.1.2.25.85 1.1.85 2.65 0 .7-.15 1.3z"/><path id="g" stroke="#000" stroke-width="1" stroke-linejoin="round" stroke-linecap="round" fill="none" d="M12.2 1.75q1.65-2.6 2.9.25m-8.3-.05Q8.5-.85 9.75 2"/><path id="i" stroke="#903" stroke-width="1" stroke-linejoin="round" stroke-linecap="round" fill="none" d="M5.4 12.55q2.7 6.05 9.25 1.85"/><path id="j" stroke="#333" stroke-width="1" stroke-linejoin="round" stroke-linecap="round" fill="none" d="M14.8 3.05q1.15 0 2 1.1.85 1.1.85 2.65 0 1.55-.85 2.65-.85 1.1-2 1.1-1.1 0-1.95-1.1Q12 8.35 12 6.8q0-1.55.85-2.65.85-1.1 1.95-1.1z"/></defs><use xlink:href="#c" transform="translate(0 .05)"/><use xlink:href="#d" transform="translate(0 .05)"/><g><use xlink:href="#e"/><use xlink:href="#f"/><use xlink:href="#g"/></g><g><use xlink:href="#h"/><use xlink:href="#i"/><use xlink:href="#j"/></g><g><use xlink:href="#k"/></g></svg>
