<svg xmlns="http://www.w3.org/2000/svg" xmlns:xlink="http://www.w3.org/1999/xlink" preserveAspectRatio="none" width="40" height="40"><defs><path id="a" stroke="#000" stroke-width="1" stroke-linejoin="round" stroke-linecap="round" fill="none" d="M19 9.55q0 3.9-2.8 6.7-2.8 2.75-6.7 2.8-3.95-.05-6.7-2.8Q0 13.45 0 9.55q0-3.5 2.2-6.1.25-.35.6-.65.7-.7 1.5-1.25Q6.25.25 8.7.05q.4-.05.8 0 3-.05 5.35 1.65.7.45 1.35 1.1Q19 5.6 19 9.55z"/><path id="b" stroke="#000" stroke-width="1" stroke-linejoin="round" stroke-linecap="round" fill="none" d="M15.15 7.15q0 1.3-.7 2.15-.7.9-1.6.9-.95 0-1.65-.9-.7-.85-.7-2.15 0-1.3.7-2.2.7-.9 1.65-.9.9 0 1.6.9.7.9.7 2.2zM4.25 9.3q-.7-.85-.7-2.15 0-1.3.7-2.2.7-.9 1.65-.9.9 0 1.6.9.7.9.7 2.2 0 1.3-.7 2.15-.7.9-1.6.9-.95 0-1.65-.9zm.95 4.1q4.1 4.95 8.95-.05"/></defs><use xlink:href="#a" transform="matrix(1.5 0 0 1.5 5.6 5.6)"/><use xlink:href="#b" transform="matrix(1.5 0 0 1.5 5.6 5.6)"/></svg>