<svg xmlns="http://www.w3.org/2000/svg" xmlns:xlink="http://www.w3.org/1999/xlink" preserveAspectRatio="none" width="19" height="19"><defs><path d="M16.2 2.75q-.645-.641-1.35-1.15-2.354-1.631-5.4-1.65L8.7 0Q6.263.176 4.3 1.5q-.806.532-1.55 1.25l-.55.6Q-.021 5.976-.05 9.45q.03 3.938 2.8 6.7 2.651 2.66 6.25 2.8.25.025.45 0 3.95.02 6.75-2.8 2.296-2.274 2.7-5.35.076-.64.05-1.35.033-3.9-2.75-6.7z" id="b"/><path fill="url(#a)" d="M6.75-.45q.1-.6.1-1.3 0-2.35-2-4.05-2-1.65-4.85-1.65-2.8 0-4.9 1.65-2 1.7-2 4.05 0 .8.25 1.4l13.4-.1z" id="d"/><path id="c" stroke="#FFF" stroke-width="1" stroke-linejoin="round" stroke-linecap="round" fill="none" d="M9 .05q0 3.8-2.55 6.45Q3.8 9.05 0 9.05q-3.75 0-6.35-2.55Q-9 3.85-9 .05-9-3.7-6.35-6.3-3.75-8.95 0-8.95q3.8 0 6.45 2.65Q9-3.7 9 .05z"/><linearGradient id="a" gradientUnits="userSpaceOnUse" x1="-.05" y1="2.175" x2="-.05" y2="-10.075" spreadMethod="pad"><stop offset="20.392%" stop-color="#FFF" stop-opacity="0"/><stop offset="73.725%" stop-color="#FFF" stop-opacity=".949"/><stop offset="100%" stop-color="#FFF" stop-opacity=".651"/><stop offset="100%" stop-opacity=".251"/></linearGradient><g id="e"><path fill="#90C" d="M5.05.2l.05-5.25H-.1V.2h5.15z"/><path fill="#F9C931" d="M-.1.2v5.2h5.15V.2H-.1z"/><path fill="#C00" d="M-.1.2h-5.2v5.2h5.2V.2z"/><path fill="#02A9D2" d="M-.1-5.05h-5.2V.2h5.2v-5.25z"/></g></defs><use xlink:href="#b" transform="matrix(.9763 0 0 .9582 .225 .495)"/><use xlink:href="#c" transform="matrix(.9763 0 0 .9582 9.5 9.55)"/><use xlink:href="#d" transform="matrix(.9763 0 0 .9582 9.5 9.55)"/><use xlink:href="#e" transform="matrix(.9763 0 0 .9582 9.5 9.55)"/></svg>
