<svg xmlns="http://www.w3.org/2000/svg" xmlns:xlink="http://www.w3.org/1999/xlink" preserveAspectRatio="none" width="19" height="19"><defs><path fill="#18557A" d="M-1.2-18q-7.393.142-12.7 5.4-5.4 5.45-5.4 13.1 0 7.65 5.4 13.05Q-8.45 19-.8 19q7.65 0 13.05-5.45 2.454-2.431 3.8-5.35L-1.2 0v-18z" id="a"/><path fill="#FFF" d="M2.3-7.45q1.3-1.35 1.4-3.2-.1-1.85-1.4-3.25-1.35-1.35-3.2-1.35t-3.25 1.35q-1.35 1.4-1.35 3.25t1.35 3.2q1.05 1 2.45 1.3.2 0 .45.1h.35q1.85 0 3.2-1.4z" id="b"/><path id="c" stroke="#000" stroke-width="1" stroke-linejoin="round" stroke-linecap="round" fill="none" d="M-1.25-6.05q-.25-.1-.45-.1-1.4-.3-2.45-1.3-1.35-1.35-1.35-3.2t1.35-3.25q1.4-1.35 3.25-1.35t3.2 1.35q1.3 1.4 1.4 3.25-.1 1.85-1.4 3.2-1.35 1.4-3.2 1.4h-.35z"/><path id="d" stroke="#FB472F" stroke-width="1" stroke-linejoin="round" stroke-linecap="round" fill="none" d="M12.15-5.35L10-3.25l2.15 2.1M10-3.25H-1.3"/><path id="e" stroke="#972F97" stroke-width="1" stroke-linejoin="round" stroke-linecap="round" fill="none" d="M-13.75-5.25l1.7 2H-1.3m-10.75 0l-1.8 2.2"/><path id="f" stroke="#6398D1" stroke-width="1" stroke-linejoin="round" stroke-linecap="round" fill="none" d="M-1.25-6.05v2.8l.1 10.65"/><path id="g" stroke="#24E53B" stroke-width="1" stroke-linejoin="round" stroke-linecap="round" fill="none" d="M-1.15 7.4l-7.65 7.85-1.95-1.95"/><path id="h" stroke="#EB1CD3" stroke-width="1" stroke-linejoin="round" stroke-linecap="round" fill="none" d="M-1.15 7.4l8.3 8 2.35-2.1"/></defs><use xlink:href="#a" transform="matrix(.46838 0 0 .46838 10.25 9.3)"/><g transform="matrix(.46838 0 0 .46838 10.25 9.3)"><use xlink:href="#b"/><use xlink:href="#c"/><use xlink:href="#d"/><use xlink:href="#e"/><use xlink:href="#f"/><use xlink:href="#g"/><use xlink:href="#h"/></g></svg>
