<svg xmlns="http://www.w3.org/2000/svg" xmlns:xlink="http://www.w3.org/1999/xlink" preserveAspectRatio="none" width="19" height="19"><defs><path d="M-17.1 15.05V19h4.65v-3.95h-4.65m31.8 0V19h4.65v-3.95H14.7z" id="a"/><path fill="#CCC" d="M23.85 3.05q0-.95-.65-1.6Q22.55.8 21.6.8q-.95 0-1.6.65-.65.65-.65 1.6 0 .95.65 1.6.65.65 1.6.65.95 0 1.6-.65.65-.65.65-1.6m-.65-13q-.65-.65-1.6-.65-.95 0-1.6.65-.65.65-.65 1.6 0 .95.65 1.6.65.65 1.6.65.95 0 1.6-.65.65-.65.65-1.6 0-.95-.65-1.6z" id="j"/><path id="b" stroke="#333" stroke-width="1" stroke-linejoin="round" stroke-linecap="round" fill="none" d="M14.7 15.05h4.65V19H14.7v-3.95zm-31.8 0h4.65V19h-4.65v-3.95z"/><path id="c" stroke="#000" stroke-width="3" stroke-linejoin="round" stroke-linecap="round" fill="none" d="M-17.1-31.65l6.7 12.9m8.4-12.9l-6.7 12.9"/><path id="e" stroke="#333" stroke-width="1" stroke-linejoin="round" stroke-linecap="round" fill="none" d="M-22.7-18.75h46q2 0 2 2v31.6q0 2-2 2h-46q-2 0-2-2v-31.6q0-2 2-2zm6.05 4.85H14.4q1.3 0 1.3 1.45v23q0 1.45-1.3 1.45h-31.05Q-18 12-18 10.55v-23q0-1.45 1.35-1.45z"/><path id="k" stroke="#333" stroke-width="1" stroke-linejoin="round" stroke-linecap="round" fill="none" d="M23.85-8.35q0 .95-.65 1.6-.65.65-1.6.65-.95 0-1.6-.65-.65-.65-.65-1.6 0-.95.65-1.6.65-.65 1.6-.65.95 0 1.6.65.65.65.65 1.6zm0 11.4q0 .95-.65 1.6-.65.65-1.6.65-.95 0-1.6-.65-.65-.65-.65-1.6 0-.95.65-1.6.65-.65 1.6-.65.95 0 1.6.65.65.65.65 1.6z"/><g id="d"><path d="M25.3-16.75q0-2-2-2h-46q-2 0-2 2v31.6q0 2 2 2h46q2 0 2-2v-31.6M14.4-13.9q1.3 0 1.3 1.45v23q0 1.45-1.3 1.45h-31.05Q-18 12-18 10.55v-23q0-1.45 1.35-1.45H14.4z"/><path fill="#C2F2FF" d="M15.7-12.45q0-1.45-1.3-1.45h-31.05q-1.35 0-1.35 1.45v23Q-18 12-16.65 12H14.4q1.3 0 1.3-1.45v-23z"/></g></defs><g transform="matrix(.342 0 0 .342 9.4 11.65)"><use xlink:href="#a"/><use xlink:href="#b"/></g><use xlink:href="#c" transform="matrix(.342 0 0 .342 9.4 11.65)"/><g transform="matrix(.342 0 0 .342 9.4 11.65)"><use xlink:href="#d"/><use xlink:href="#e"/></g><g transform="matrix(.22953 0 0 .22953 3.552 8.538)"><clipPath id="f"><path fill="#FFF" d="M-2-2h16.85v29.8H-2z"/></clipPath><text clip-path="url(#f)" writing-mode="lr"><tspan x="0" y="20.95" baseline-shift="0%" font-family="Helvetica Neue" font-size="22">L</tspan></text></g><g transform="matrix(.22953 0 0 .22953 6.459 8.538)"><clipPath id="g"><path fill="#FFF" d="M-2-2H8.3v29.8H-2z"/></clipPath><text clip-path="url(#g)" writing-mode="lr"><tspan x="0" y="20.95" baseline-shift="0%" font-family="Helvetica Neue" font-size="22">I</tspan></text></g><g transform="matrix(.22953 0 0 .22953 7.861 8.538)"><clipPath id="h"><path fill="#FFF" d="M-2-2h17.65v29.8H-2z"/></clipPath><text clip-path="url(#h)" writing-mode="lr"><tspan x="0" y="20.95" baseline-shift="0%" font-family="Helvetica Neue" font-size="22">V</tspan></text></g><g transform="matrix(.22953 0 0 .22953 10.956 8.538)"><clipPath id="i"><path fill="#FFF" d="M-2-2h18.05v29.8H-2z"/></clipPath><text clip-path="url(#i)" writing-mode="lr"><tspan x="0" y="20.95" baseline-shift="0%" font-family="Helvetica Neue" font-size="22">E</tspan></text></g><g transform="matrix(.342 0 0 .342 9.4 11.65)"><use xlink:href="#j"/><use xlink:href="#k"/></g></svg>
