<svg xmlns="http://www.w3.org/2000/svg" xmlns:xlink="http://www.w3.org/1999/xlink" preserveAspectRatio="none" width="80" height="80"><defs><path fill="#001F5C" d="M71.55 8.05q-2.65-.65-6-1.15-3.35-.45-22.75-4.75-19.35-4.3-23.65-3.55-4.55.75-13.7 18.65 10.25-9.8 17.1-10.6 6.8-.8 23 5.75 16.1 6.6 23.95 7.15 1.95.3 3.3-5.35 1.35-5.6-1.25-6.15z" id="a"/><path fill="#001F5C" d="M73.6 9.75q-.4-1.9-2-2.2-2.65-.65-5.95-1.1-3.45-.5-22.75-4.75-19.5-4.35-23.85-3.6-4.65.65-14 18.9v.35q0 .15.1.3.1.1.3.1.1 0 .25-.1 10.15-9.7 16.85-10.5 6.75-.8 22.9 5.75 16.15 6.6 24 7.15 2.3.4 3.75-5.7.75-3 .4-4.6M71.45 8.5q1.05.25 1.3 1.55.25 1.35-.35 4.05-1.2 5.05-2.85 4.95-7.8-.55-23.85-7.05-16.3-6.65-23.15-5.85-6.35.7-15.55 9Q15.1-.15 19.15-.9q4.3-.75 23.55 3.55 19.4 4.3 22.8 4.75 3.3.5 5.95 1.1z" id="b"/></defs><use xlink:href="#a" transform="matrix(1.16533 0 0 1.16327 -5.9 29.55)"/><use xlink:href="#b" transform="matrix(1.16533 0 0 1.16327 -5.9 29.55)"/></svg>