<svg xmlns="http://www.w3.org/2000/svg" xmlns:xlink="http://www.w3.org/1999/xlink" preserveAspectRatio="none" width="80" height="80"><defs><path fill="#001F5C" d="M80.65 25.5q.1-.131.1-.3 0-.17-.1-.35-3.23-6.734-9-12.5-6.888-6.844-15.25-10.1-7.603-3-16.4-3-8.848 0-16.45 3-8.363 3.256-15.3 10.1-5.722 5.766-8.95 12.5-.049.181-.05.35.002.17.05.3Q2.528 32.335 8.25 38 21.392 51.147 40 51.15 58.558 51.147 71.65 38q5.771-5.665 9-12.5M70.6 13.4q5.441 5.446 8.55 11.8-3.109 6.402-8.55 11.75Q57.942 49.653 40 49.65q-17.992.003-30.7-12.7Q3.91 31.602.8 25.2q3.11-6.354 8.5-11.8 6.713-6.607 14.8-9.75Q31.448.75 40 .75q8.503 0 15.85 2.9 8.087 3.144 14.75 9.75z" id="a"/><path fill="#001F5C" d="M71.15 37.5Q76.8 31.9 80 25.2q-3.2-6.65-8.85-12.3-6.8-6.75-15-9.95Q48.65 0 40 0q-8.7 0-16.15 2.95Q15.6 6.15 8.8 12.9 3.15 18.55 0 25.2q3.15 6.7 8.8 12.3Q21.7 50.4 40 50.4q18.25 0 31.15-12.9M60.5 25.25q0 8.45-6.05 14.5-6 6-14.45 6-8.55 0-14.5-6-6-6.05-6-14.5 0-8.5 6-14.55 5.95-6 14.5-6 8.45 0 14.45 6 6.05 6.05 6.05 14.55M49.4 34.6q3.9-3.85 3.9-9.35 0-5.55-3.9-9.4-3.9-3.9-9.4-3.9-1.4 0-2.65.25.25.2.45.4 2 2 2 4.85 0 2.85-2 4.8-1.95 2-4.75 2t-4.8-2q-.55-.55-.95-1.15-.6 1.95-.6 4.15 0 5.5 3.9 9.35 3.9 3.85 9.4 3.85t9.4-3.85z" id="b"/></defs><use xlink:href="#a" transform="matrix(.9816 0 0 .98073 .75 15.3)"/><use xlink:href="#b" transform="matrix(.9816 0 0 .98073 .75 15.3)"/></svg>