<svg xmlns="http://www.w3.org/2000/svg" xmlns:xlink="http://www.w3.org/1999/xlink" preserveAspectRatio="none" width="80" height="80"><defs><path fill="#001F5C" d="M67.5 22.8l-18.65-4.45L38.85 2Q38.1.7 36.75.25q-1.4-.45-2.75 0T31.85 2L21.8 18.35 3.15 22.8q-1.4.35-2.3 1.5-.95 1.1-.85 2.55 0 1.45.95 2.6l12.5 14.65-1.55 19.05q-.1 1.4.8 2.65.75 1.15 2.15 1.55 1.4.45 2.75-.1l17.75-7.3 17.7 7.3q1.3.55 2.7.1 1.4-.4 2.2-1.55.85-1.25.75-2.65L57.2 44.1l12.5-14.65q.9-1.15.9-2.6.05-1.45-.8-2.55-.95-1.15-2.3-1.5z" id="a"/></defs><use xlink:href="#a" transform="matrix(1.13315 0 0 1.1325 0 1.75)"/></svg>