<svg xmlns="http://www.w3.org/2000/svg" xmlns:xlink="http://www.w3.org/1999/xlink" preserveAspectRatio="none" width="80" height="80"><defs><path fill="#001F5C" d="M63.3 8.25l-.05-.05Q54.142-.491 40.9-.5q-11.423.001-19.85 6.55H21q-.575.525-1.25 1.05-2.067 1.858-3.7 4.1-1.527 2.136-2.75 4.5-1.163 2.4-2.15 4.8-1.013 2.75-2.25 5.3-.2.437-.4.9v-.05q-.45.925-.95 1.9-.438.912-.95 1.75-.275.487-.55.85.012.05 0 .05-.1.225-.15.3-.326.587-.75 1.15-.313.563-.7 1.1H4.4q-.314.561-.7 1.05h-.05q-.313.563-.7 1.1-.388.537-.85 1 .011.05 0 .05-.341.5-.75 1V38q-.676.787-1.15 1.65-.374.67-.55 1.45v-.05q-.091.334-.15.7-.003.063 0 .1v.05q-.001 2.158 1.55 3.65Q2.344 46.796 4 47q.52.242.9.4.625.528 1.2 1.1l.05.05q.37.425.6.9.037.05.05.05.229.626.35 1.2.24.996-.05 1.9v.05q-.118.6-.4 1.2h-.05q-.275.825-.6 1.6v.05q-.194.71-.25 1.45v.8q.114.883.45 1.6.223.465.5.85 1.845 2.068 4.55 2.45 2.712.397 5.25-.2h.05q.063-.003.1-.05 1.218-.303 2.6-.3.452.004.95.1 1.279.222 2.15.85 1.91 1.495 1.05 3.95-.012.15-.1.25-.097.147-.25.3v-.05q-.751.656-3.2.35-.166-.028-.35.05-.13.137-.2.3-.03.208.05.35.093.2.25.25 3.335 1.29 5.7.75.024-.011.05-.05.288-.075.6-.2v.05q3.24-.715 4.15-3.9.83-2.738-.25-5.1v-.05q-.383-.682-.9-1.25-.624-.627-1.3-1.15-.024-.013-.05-.05-.223-.113-.4-.25-.025-.013-.05-.05-.164-.075-.2-.1-.346-.35-.35-.8-.001-.52.25-1l.05-.05q.282-.539.75-1.15.451-.559.65-1.2.251-.675.25-1.35.005-1.725-1.3-3.25-1.16-1.324-3.9-2.95h-.05q-.523-.269-1.05-.7l-.05-.05q-.06-.034-.15-.15-.023-.026-.05-.05-1.3-1.259-1.3-3.1-.002-1.8 1.3-3.15.13-.125.3-.25.026-.023.05-.05v-.05q.272-.008.5-.05 1.1-.161 2.1-.45.688-.124 1.35-.35 5.725-1.755 10.25-6.55 1.99-2.085 3.55-4.55l1.05-1.5q-1.174 4.599-7.1 9.8-.12.145-.15.3-.027.214.05.35.137.178.3.2.205.078.35 0 5.798-2.763 8.55-6.3 2.507-3.233 3.55-9.8 2.575 3.152 6.45 5.25.026.014.05 0 7.896 3.29 6.5 15.75-.018.175.05.3.114.17.25.2.188.083.35 0 .172-.03.25-.2 1.417-2.15 2.9-2.75.239 11.868-11.8 25.35-.113.175-.1.35.054.934.35 1.95.96 3.187 4.15 3.9l-.05-.05q.375.125.7.2l.05.05q2.313.542 5.6-.75.207-.05.3-.25.08-.142 0-.35-.02-.163-.2-.3-.134-.078-.35-.05-2.399.306-3.15-.35v.05q-.151-.158-.25-.3-.089-.113-.15-.25-.808-2.455 1.15-3.95.825-.625 2.1-.85.498-.096.95-.1 1.384-.004 2.6.3.063.038.1.05h.05q.677.155 1.45.3 1.51.215 3.1-.1 2.18-.384 3.65-2.45.013-.025 0-.05.253-.385.4-.85v.05q.341-.728.4-1.65v-.75q-.06-.714-.25-1.4v-.05q-.173-.8-.5-1.65v.05l-.35-1.25h.05q-.187-.964-.05-2 .037-.244.15-.5.018-.023 0-.1.117-.317.25-.6v.05q.243-.462.55-.85v-.05q.442-.293.85-.55l-.05.05 1.65-.8q.05-.01.05-.05 2.426-1.586 3.2-4.45v.05q.832-2.58-.3-5-1.071-2.454-2.55-4.55-1.422-2.014-2.5-4.25-.449-.812-.8-1.6v-.05l-1.45-3.05v.05q-.4-.95-.8-1.85l-2-5.3q-2.127-4.877-6.45-9m-.7.7q4.185 3.994 6.25 8.7l-.05-.05 2 5.3.05.05q.4.9.8 1.85l1.45 3.05q.349.812.8 1.65 1.122 2.314 2.6 4.4 1.42 2.004 2.45 4.35.968 2.08.25 4.3-.676 2.486-2.8 3.85-.799.412-1.6.8-.475.284-.95.65-.039.034-.1.05-.417.508-.75 1.1-.148.33-.25.7-.187.394-.25.8-.163 1.214.05 2.35.174.688.35 1.35.323.8.5 1.55.157.615.2 1.25v.65q-.041.728-.3 1.3h-.05q-.093.357-.25.65-1.221 1.722-3.05 2.05-1.396.282-2.7.1-.8-.15-1.5-.3-.05-.006-.1 0-1.326-.346-2.8-.35-.548-.005-1.15.1-1.525.275-2.5 1.05-2.542 1.905-1.5 5.05.094.26.25.5l.05.05q.12.177.35.4.232.263.6.4-1.017.106-1.9-.1-.325-.075-.7-.2-2.61-.587-3.4-3.2-.22-.778-.3-1.5 12.534-14.124 11.9-26.55-.012-.112-.1-.25-.075-.094-.2-.15-.133-.065-.3-.05-1.573.252-3.05 1.9.763-11.737-7.2-14.95-.025-.013-.05-.05-4.219-2.263-6.8-5.85-.085-.123-.25-.2-.123-.02-.3 0-.122.061-.25.15-.079.131-.1.25-.977 7.166-3.55 10.55-1.81 2.3-5 4.25 5.048-5.322 5.1-10 0-.165-.1-.3-.094-.13-.25-.2-.163-.028-.35 0-.132.084-.25.2l-2.25 3.25q-1.49 2.384-3.4 4.4h-.05q-4.326 4.605-9.8 6.3-.625.224-1.25.35h-.05q-.95.261-2 .4-.275.05-.6.1-.054.014-.15.05-.113.07-.25.2-.229.175-.4.35-1.598 1.65-1.6 3.85 0 2.223 1.55 3.75.21.284.4.4l-.05-.05q.623.519 1.25.85v-.05q2.56 1.524 3.65 2.75 1.045 1.225 1.05 2.6-.001.525-.2 1.05v-.05q-.152.509-.5.95-.532.69-.85 1.3-.399.72-.4 1.5-.004.85.65 1.5.059.069.35.25.203.148.45.3.61.467 1.15 1l.05.05q.392.449.7 1 .92 2.038.2 4.4-.74 2.615-3.4 3.2h-.05q-.338.125-.65.2h.05q-.885.19-1.95.1.376-.146.6-.4l.35-.35q.06-.055.1-.15.113-.213.15-.45 1.09-3.145-1.4-5.05-1.03-.772-2.55-1.05-.602-.105-1.15-.1-1.473.003-2.75.35-.062.005-.15 0-2.378.594-4.95.2-2.327-.316-3.9-2.05-.223-.315-.4-.7v.05q-.264-.583-.35-1.3V57q.044-.61.2-1.2.325-.775.6-1.6v.05q.318-.688.45-1.4.37-1.135.1-2.35H8.1q-.122-.688-.4-1.4.013 0 0-.05-.33-.63-.85-1.2-.662-.664-1.35-1.25-.033-.02-.1-.05-.439-.201-1.05-.5-.058-.041-.15-.05-1.38-.13-2.45-1.15Q.51 43.651.5 41.9q.044-.295.1-.55.038-.025.05-.05.124-.62.4-1.15l.05-.05q.418-.772 1-1.5h.05q.4-.563.75-1.1l-.05.05q.488-.487.9-1.05.413-.563.75-1.15.423-.477.75-1.05.422-.527.75-1.1.425-.588.75-1.2l.05-.05q.044-.062.1-.25.04.001.05-.05.242-.367.5-.85.538-.862 1-1.8.5-.975.95-1.9.2-.437.4-.85 1.263-2.6 2.3-5.4.963-2.35 2.1-4.7 1.177-2.286 2.65-4.35 1.567-2.158 3.55-3.95.66-.513 1.25-1V6.8Q29.841.499 40.9.5 53.737.491 62.6 8.95z" id="a"/><path fill="#001F5C" d="M69.3 17.45q-2.1-4.8-6.35-8.85Q53.95 0 40.9 0 29.65 0 21.35 6.45q-.6.5-1.25 1.05-2.05 1.8-3.65 4-1.5 2.1-2.7 4.45-1.15 2.35-2.1 4.75-1.05 2.75-2.3 5.35-.2.4-.4.85L8 28.8q-.45.9-.95 1.75-.3.5-.55.9l-.15.3q-.35.6-.75 1.2-.35.55-.75 1.1-.35.55-.75 1.05-.35.55-.75 1.1t-.85 1.05q-.35.5-.75 1.05-.65.75-1.1 1.6-.35.6-.5 1.3-.1.3-.15.65v.05q0 1.95 1.4 3.3 1.2 1.15 2.75 1.3.6.3 1.05.5.65.55 1.3 1.2.45.5.75 1.1.25.65.4 1.3.25 1.1-.05 2.15-.15.65-.45 1.3l-.6 1.6q-.2.65-.25 1.35v.7q.1.8.4 1.45.2.4.45.75 1.7 1.9 4.25 2.25 2.65.4 5.15-.2h.05q1.25-.35 2.7-.35.5 0 1.05.1 1.4.25 2.35.95 2.2 1.7 1.25 4.5-.05.2-.15.4l-.35.35q-.85.8-3.6.45 3.15 1.2 5.4.7.3-.1.65-.2 2.95-.65 3.8-3.55.75-2.55-.25-4.75-.35-.65-.8-1.15-.6-.6-1.25-1.1-.25-.15-.45-.3-.25-.15-.3-.2-.5-.5-.5-1.15 0-.65.35-1.25.3-.6.8-1.25.4-.5.6-1.05.2-.6.2-1.2 0-1.55-1.15-2.9-1.15-1.3-3.8-2.85-.6-.3-1.15-.75-.15-.1-.3-.3-1.45-1.4-1.45-3.45 0-2 1.45-3.5.15-.15.35-.3.1-.1.2-.15l.6-.1q1.05-.15 2.05-.4.65-.15 1.3-.35 5.6-1.75 10.05-6.45 1.95-2.05 3.5-4.45L42 22.7q-.11 5.611-7.55 12.2 5.635-2.676 8.3-6.15 2.715-3.474 3.7-10.75 2.65 3.7 7 6.05 8.25 3.35 6.8 16.25 1.8-2.8 3.8-3.15.6 12.3-11.9 26.35.05.85.35 1.8.85 2.9 3.75 3.55l.7.2q2.2.5 5.35-.7-2.75.35-3.6-.45-.2-.2-.3-.35-.15-.2-.2-.4-.95-2.8 1.3-4.5.9-.7 2.3-.95.55-.1 1.05-.1 1.45 0 2.75.35h.05q.7.15 1.5.3 1.4.2 2.9-.1 2-.35 3.35-2.25.2-.35.35-.75.3-.65.35-1.45V57q-.05-.7-.2-1.35-.2-.8-.5-1.6-.2-.65-.35-1.3-.2-1.05-.05-2.15.05-.35.2-.65.1-.4.25-.7.3-.55.7-1 .45-.35.9-.6.8-.4 1.65-.8 2.25-1.5 3-4.15.75-2.4-.3-4.65-1.05-2.4-2.5-4.45-1.45-2.05-2.55-4.3-.45-.85-.8-1.65L72.1 24.6q-.4-.95-.8-1.85l-2-5.3z" id="b"/></defs><use xlink:href="#a" transform="matrix(.98705 0 0 .99713 .5 5.5)"/><use xlink:href="#b" transform="matrix(.98705 0 0 .99713 .5 5.5)"/></svg>