<svg xmlns="http://www.w3.org/2000/svg" xmlns:xlink="http://www.w3.org/1999/xlink" preserveAspectRatio="none" width="80" height="80"><defs><path fill="#001F5C" d="M61.75 19.4v-.05q-.85-3-2.3-5.65-.35-.65-.75-1.3-4.95-7.8-14.65-10.85-1.2-.4-2.45-.7l-.4-.1-.5-.1Q37.95.1 35 .05 34.55 0 34.1 0q-3.4 0-6.55.65-.2.05-.35.1-.1 0-.25.05L27 .75Q15.3 3.45 9.65 12.2q-.1.1-.15.2v.05q-.4.6-.75 1.25-1.7 3.05-2.5 6.5-.5 2.1-.55 3.5-.05 5.95.95 13.05-1.1-1.2-2.7-1.2-1.55 0-2.65 1.25-.75.75-.95 1.75Q-.2 40.9.1 43.2l.7 5.35q0 .05.05.1Q4.2 57.3 9 57.35q0 .25.05.55v-.05q.95 6.2 3.3 9.45 2.55 3.5 7.25 7.1 1.5 1.1 2.8 2 .2.1.35.2Q27.7 80 34.05 80q6.35 0 11.35-3.4 1.45-.9 3.15-2.2 4.7-3.6 7.25-7.1 2.45-3.35 3.4-9.95 4.8-.1 8.15-8.7v-.1l.7-5.35q.3-2.3-.2-4.65-.25-1-.95-1.75-1.1-1.25-2.7-1.25-1.55 0-2.65 1.2.95-7.15.9-13.05 0-1-.3-2.45v-.15l-.2-.9-.2-.8z" id="a"/></defs><use xlink:href="#a" transform="translate(5.95)"/></svg>