<svg xmlns="http://www.w3.org/2000/svg" xmlns:xlink="http://www.w3.org/1999/xlink" preserveAspectRatio="none" width="80" height="80"><defs><path fill="#001F5C" d="M80 40q0-16.6-11.7-28.3T40 0Q23.4 0 11.7 11.7q-1.25 1.25-2.35 2.6-.05.05-.1.15Q.05 25.25 0 40q0 16.6 11.7 28.3T40 80q14.7 0 25.55-9.2l.15-.05.2-.2q1.2-1.1 2.4-2.25Q80 56.6 80 40M59.35 20.65q8 8 8 19.35 0 9.7-5.8 16.95L23.1 18.45q7.2-5.8 16.9-5.8 11.35 0 19.35 8M12.65 40q0-6.35 2.5-11.65l36.5 36.55q-5.3 2.45-11.65 2.45-11.35 0-19.35-8-8-8-8-19.35z" fill-opacity=".25" id="a"/></defs><use xlink:href="#a"/></svg>