<svg xmlns="http://www.w3.org/2000/svg" xmlns:xlink="http://www.w3.org/1999/xlink" preserveAspectRatio="none" width="80" height="80"><defs><path fill="#001F5C" d="M67.2 21.9q-2.15-1.15-4.4-1.85-3.55-1.1-7.4-1h-.1q-2.35.35-4.65 1-1.65.5-3.25 1.1-.15 0-.3.1-2.6 1.1-5.1 1.1-2.5-.05-4.95-1.2-4.95-2.25-10.5-2.35h-.1q-3 .4-5.55 1.85-5.55 3.2-11.85 3.45-.35 0-.6.2-.3.25-.3.6 0 .4.2.6 1 1.2 1.95 2.25 3.1 3.75 7.85 6.5 5.15 2.95 11.5 4.15Q35.7 39.7 42 39.6q6-.1 12.1-.7 6.6-.9 12.1-3.8 5.45-2.8 8.75-7.35.9-1.1 1.95-2.3.25-.25.25-.6-.05-.45-.35-.6-.25-.25-.6-.25-4.5.3-8.9-2l-.1-.1m.85-13.7q-.05-.15-.1-.25-2.2-2.6-4.15-4.55h-.05Q60.35 0 55.5 0q-1.7 0-3.15.45L52.6.4l-.05.05q-.1 0-.2.05-1.4.3-2.65 1l-.1.1-.6.3-.05.05q-1.65 1.1-3.3 1.6-.15 0-.2.05l-.25.1q-.4.05-.6.2-1 .1-1.9.1-1.5 0-2.95-.25-2-.55-3.8-1.8-.05-.05-.1-.05-.3-.15-.55-.25 0-.1-.1-.1-1.2-.7-2.4-1-.1-.1-.2-.1Q31 0 29.25 0q-1.15 0-2.2.25Q23.7.8 21.1 3.4q-.95.9-1.9 1.95h.05q-1.1 1.1-2.15 2.4-.1.05-.2.2l-5.45 7.3q-.05 0-.05.1Q9.85 17.1 7.6 19q-.2.2-.3.5-.1.25 0 .5t.35.45q.25.15.5.15 5.8 0 10.9-2.95.05 0 .15-.05 3.25-1.8 7.05-2.3h.05q.1-.05.15-.05 6.35.05 12.05 2.7.1.05.15.1 3.45 1.5 7 .05 0-.05.1-.05 4.35-1.85 9.35-2.45.05 0 .15-.05 7.15-.3 13.6 3.25 1.5.8 3.05 1.25 2.3.65 4.8.4.35-.05.6-.35l.05-.05q.15-.25.1-.55-.05-.4-.3-.6-2.35-2-3.85-3.65L68.05 8.2z" id="a"/></defs><use xlink:href="#a" transform="matrix(1.1396 0 0 1.13889 -8.25 17.45)"/></svg>