<svg version="1.1" id="Capa_6" xmlns="http://www.w3.org/2000/svg" x="0" y="0" width="245" height="251" xml:space="preserve"><style>.st1{fill:#ed1888}</style><linearGradient id="SVGID_1_" gradientUnits="userSpaceOnUse" x1="-759" y1="0" x2="-759" y2="-1"><stop offset="0" stop-color="#656565"/><stop offset=".618" stop-color="#1b1b1b"/><stop offset=".629" stop-color="#545454"/><stop offset=".983" stop-color="#3e3e3e"/></linearGradient><path fill="none" stroke="#ed1888" stroke-width="7" stroke-miterlimit="10" d="M100.28 35.83l23-28 19 29 36-15 3 36 35 5-13 34 30 22-30 23 15 33-36 3-5 37-33-13-22 29-22-31-35 18-3-41-38-3 15-31-29-24 31-21-15-35 36-4 4-37z"/><path class="st1" d="M60.59 142.67V99.38l7.38-.25 17.83 27.76V99.38l7.89.26v43.03h-7.64L68.22 113.9v28.52zM101.07 142.42l.26-43.04h24.19v7.64l-16.3.26v9.17h15.54v7.64h-15.28v11.2h17.31v7.64zM131.52 99.38l10.7 43.04h8.15l7.64-27.5 6.62 28.01h7.38L185 99.38l-8.91.26-7.39 28.01-6.62-28.27-7.89.26-7.13 27.5-7.13-28.01z"/></svg>